<svg width="50" height="40" viewBox="0 0 50 40" fill="none" xmlns="http://www.w3.org/2000/svg">
<path d="M0.5 2.5C0.5 1.39543 1.39543 0.5 2.5 0.5H46.5C47.6046 0.5 48.5 1.39543 48.5 2.5V36.5C48.5 37.6046 47.6046 38.5 46.5 38.5H2.5C1.39543 38.5 0.5 37.6046 0.5 36.5V2.5Z" fill="#278CDD" stroke="#1656A7"/>
<path d="M25 29.5H30.5L33.5 31.5H37M25 26.5H30.5L34.5 28.5H37M25 21.5H30.5L33.5 19.5H37M37 22.5H34.5L30.5 24.5H25" stroke="#83CAFF" stroke-linejoin="round"/>
<path d="M37 28C37 27.4477 37.4477 27 38 27H42C42.5523 27 43 27.4477 43 28V32C43 32.5523 42.5523 33 42 33H38C37.4477 33 37 32.5523 37 32V28Z" fill="#333333"/>
<path d="M37 19C37 18.4477 37.4477 18 38 18H42C42.5523 18 43 18.4477 43 19V23C43 23.5523 42.5523 24 42 24H38C37.4477 24 37 23.5523 37 23V19Z" fill="#333333"/>
<path d="M24.25 28C24.1119 28 24 27.8881 24 27.75L24 26.25C24 26.1119 24.1119 26 24.25 26H25.75C25.8881 26 26 26.1119 26 26.25V27.75C26 27.8881 25.8881 28 25.75 28H24.25Z" fill="#F5F5F5"/>
<path d="M24.25 25C24.1119 25 24 24.8881 24 24.75L24 23.25C24 23.1119 24.1119 23 24.25 23H25.75C25.8881 23 26 23.1119 26 23.25V24.75C26 24.8881 25.8881 25 25.75 25H24.25Z" fill="#F5F5F5"/>
<path d="M24.25 22C24.1119 22 24 21.8881 24 21.75L24 20.25C24 20.1119 24.1119 20 24.25 20L25.75 20C25.8881 20 26 20.1119 26 20.25V21.75C26 21.8881 25.8881 22 25.75 22H24.25Z" fill="#F5F5F5"/>
<path d="M24.25 31C24.1119 31 24 30.8881 24 30.75L24 29.25C24 29.1119 24.1119 29 24.25 29H25.75C25.8881 29 26 29.1119 26 29.25V30.75C26 30.8881 25.8881 31 25.75 31H24.25Z" fill="#F5F5F5"/>
<path d="M27 6C27 5.44771 27.4477 5 28 5H38C38.5523 5 39 5.44772 39 6V15C39 15.5523 38.5523 16 38 16H28C27.4477 16 27 15.5523 27 15V6Z" fill="#333333"/>
<path d="M29 7.5C29 7.22386 29.2239 7 29.5 7H36.5C36.7761 7 37 7.22386 37 7.5V13.5C37 13.7761 36.7761 14 36.5 14H29.5C29.2239 14 29 13.7761 29 13.5V7.5Z" fill="#EDB120"/>
<path d="M6 18C6 17.4477 6.44772 17 7 17H21C21.5523 17 22 17.4477 22 18V31C22 31.5523 21.5523 32 21 32H7C6.44772 32 6 31.5523 6 31V18Z" fill="#333333"/>
<path d="M8 19.5C8 19.2239 8.22386 19 8.5 19H19.5C19.7761 19 20 19.2239 20 19.5V29.5C20 29.7761 19.7761 30 19.5 30H8.5C8.22386 30 8 29.7761 8 29.5V19.5Z" fill="#EDB120"/>
<path d="M8 9H10V12H8V9Z" fill="#83CAFF"/>
<path d="M8 12H10V13.5C10 13.7761 9.77614 14 9.5 14H8.5C8.22386 14 8 13.7761 8 13.5V12Z" fill="#333333"/>
<path d="M8 7.5C8 7.22386 8.22386 7 8.5 7H9.5C9.77614 7 10 7.22386 10 7.5V9H8V7.5Z" fill="#F5F5F5"/>
<path d="M11 9H13V12H11V9Z" fill="#83CAFF"/>
<path d="M11 12H13V13.5C13 13.7761 12.7761 14 12.5 14H11.5C11.2239 14 11 13.7761 11 13.5V12Z" fill="#333333"/>
<path d="M11 7.5C11 7.22386 11.2239 7 11.5 7H12.5C12.7761 7 13 7.22386 13 7.5V9H11V7.5Z" fill="#F5F5F5"/>
<path d="M14 9H16V12H14V9Z" fill="#83CAFF"/>
<path d="M14 12H16V13.5C16 13.7761 15.7761 14 15.5 14H14.5C14.2239 14 14 13.7761 14 13.5V12Z" fill="#333333"/>
<path d="M14 7.5C14 7.22386 14.2239 7 14.5 7H15.5C15.7761 7 16 7.22386 16 7.5V9H14V7.5Z" fill="#F5F5F5"/>
<path d="M17 9H19V12H17V9Z" fill="#83CAFF"/>
<path d="M17 12H19V13.5C19 13.7761 18.7761 14 18.5 14H17.5C17.2239 14 17 13.7761 17 13.5V12Z" fill="#333333"/>
<path d="M17 7.5C17 7.22386 17.2239 7 17.5 7H18.5C18.7761 7 19 7.22386 19 7.5V9H17V7.5Z" fill="#F5F5F5"/>
<path d="M20 9H22V12H20V9Z" fill="#83CAFF"/>
<path d="M20 12H22V13.5C22 13.7761 21.7761 14 21.5 14H20.5C20.2239 14 20 13.7761 20 13.5V12Z" fill="#333333"/>
<path d="M20 7.5C20 7.22386 20.2239 7 20.5 7H21.5C21.7761 7 22 7.22386 22 7.5V9H20V7.5Z" fill="#F5F5F5"/>
<path d="M8 0H14V2.5C14 2.77614 13.7761 3 13.5 3H8.5C8.22386 3 8 2.77614 8 2.5V0Z" fill="white"/>
<path d="M8 39H14V36.5C14 36.2239 13.7761 36 13.5 36H8.5C8.22386 36 8 36.2239 8 36.5V39Z" fill="white"/>
<path d="M38 39H44V36.5C44 36.2239 43.7761 36 43.5 36H38.5C38.2239 36 38 36.2239 38 36.5V39Z" fill="white"/>
<path d="M20 0.999878V1.99988H19V0.999878L20 0.999878Z" fill="#EDB120"/>
<path d="M20 1.99988V2.74988C20 2.88795 19.8881 2.99988 19.75 2.99988H19.25C19.1119 2.99988 19 2.88795 19 2.74988V1.99988H20Z" fill="#FFF5BC"/>
<path d="M29 0.999878V1.99988H28V0.999878L29 0.999878Z" fill="#EDB120"/>
<path d="M29 1.99988V2.74988C29 2.88795 28.8881 2.99988 28.75 2.99988H28.25C28.1119 2.99988 28 2.88795 28 2.74988V1.99988H29Z" fill="#FFF5BC"/>
<path d="M22 0.999878V1.99988H21V0.999878L22 0.999878Z" fill="#EDB120"/>
<path d="M22 1.99988V2.74988C22 2.88795 21.8881 2.99988 21.75 2.99988H21.25C21.1119 2.99988 21 2.88795 21 2.74988V1.99988H22Z" fill="#FFF5BC"/>
<path d="M31 0.999878V1.99988H30V0.999878L31 0.999878Z" fill="#EDB120"/>
<path d="M31 1.99988V2.74988C31 2.88795 30.8881 2.99988 30.75 2.99988H30.25C30.1119 2.99988 30 2.88795 30 2.74988V1.99988H31Z" fill="#FFF5BC"/>
<path d="M40 0.999878V1.99988H39V0.999878L40 0.999878Z" fill="#EDB120"/>
<path d="M40 1.99988V2.74988C40 2.88795 39.8881 2.99988 39.75 2.99988H39.25C39.1119 2.99988 39 2.88795 39 2.74988V1.99988H40Z" fill="#FFF5BC"/>
<path d="M24 0.999878V1.99988H23V0.999878L24 0.999878Z" fill="#EDB120"/>
<path d="M24 1.99988V2.74988C24 2.88795 23.8881 2.99988 23.75 2.99988H23.25C23.1119 2.99988 23 2.88795 23 2.74988V1.99988H24Z" fill="#FFF5BC"/>
<path d="M33 0.999878V1.99988H32V0.999878L33 0.999878Z" fill="#EDB120"/>
<path d="M33 1.99988V2.74988C33 2.88795 32.8881 2.99988 32.75 2.99988H32.25C32.1119 2.99988 32 2.88795 32 2.74988V1.99988H33Z" fill="#FFF5BC"/>
<path d="M42 0.999878V1.99988H41V0.999878L42 0.999878Z" fill="#EDB120"/>
<path d="M42 1.99988V2.74988C42 2.88795 41.8881 2.99988 41.75 2.99988H41.25C41.1119 2.99988 41 2.88795 41 2.74988V1.99988H42Z" fill="#FFF5BC"/>
<path d="M35 0.999878V1.99988H34V0.999878L35 0.999878Z" fill="#EDB120"/>
<path d="M35 1.99988V2.74988C35 2.88795 34.8881 2.99988 34.75 2.99988H34.25C34.1119 2.99988 34 2.88795 34 2.74988V1.99988H35Z" fill="#FFF5BC"/>
<path d="M44 0.999878V1.99988H43V0.999878L44 0.999878Z" fill="#EDB120"/>
<path d="M44 1.99988V2.74988C44 2.88795 43.8881 2.99988 43.75 2.99988H43.25C43.1119 2.99988 43 2.88795 43 2.74988V1.99988H44Z" fill="#FFF5BC"/>
<path d="M48 26H47V25H48V26Z" fill="#EDB120"/>
<path d="M47 26H46.25C46.1119 26 46 25.8881 46 25.75V25.25C46 25.1119 46.1119 25 46.25 25H47V26Z" fill="#FFF5BC"/>
<path d="M48 18H47V17H48V18Z" fill="#EDB120"/>
<path d="M47 18H46.25C46.1119 18 46 17.8881 46 17.75V17.25C46 17.1119 46.1119 17 46.25 17H47V18Z" fill="#FFF5BC"/>
<path d="M48 16H47V15H48V16Z" fill="#EDB120"/>
<path d="M47 16H46.25C46.1119 16 46 15.8881 46 15.75V15.25C46 15.1119 46.1119 15 46.25 15H47V16Z" fill="#FFF5BC"/>
<path d="M48 28H47V27H48V28Z" fill="#EDB120"/>
<path d="M47 28H46.25C46.1119 28 46 27.8881 46 27.75V27.25C46 27.1119 46.1119 27 46.25 27H47V28Z" fill="#FFF5BC"/>
<path d="M48 20H47V19H48V20Z" fill="#EDB120"/>
<path d="M47 20H46.25C46.1119 20 46 19.8881 46 19.75V19.25C46 19.1119 46.1119 19 46.25 19H47V20Z" fill="#FFF5BC"/>
<path d="M48 11H47V10H48V11Z" fill="#EDB120"/>
<path d="M47 11H46.25C46.1119 11 46 10.8881 46 10.75V10.25C46 10.1119 46.1119 10 46.25 10H47V11Z" fill="#FFF5BC"/>
<path d="M48 9H47V8H48V9Z" fill="#EDB120"/>
<path d="M47 9H46.25C46.1119 9 46 8.88807 46 8.75V8.25C46 8.11193 46.1119 8 46.25 8H47V9Z" fill="#FFF5BC"/>
<path d="M48 30H47V29H48V30Z" fill="#EDB120"/>
<path d="M47 30H46.25C46.1119 30 46 29.8881 46 29.75V29.25C46 29.1119 46.1119 29 46.25 29H47V30Z" fill="#FFF5BC"/>
<path d="M48 22H47V21H48V22Z" fill="#EDB120"/>
<path d="M47 22H46.25C46.1119 22 46 21.8881 46 21.75V21.25C46 21.1119 46.1119 21 46.25 21H47V22Z" fill="#FFF5BC"/>
<path d="M1 6H2V7H1V6Z" fill="#EDB120"/>
<path d="M2 6H2.75C2.88807 6 3 6.11193 3 6.25V6.75C3 6.88807 2.88807 7 2.75 7H2V6Z" fill="#FFF5BC"/>
<path d="M1 8H2V9H1V8Z" fill="#EDB120"/>
<path d="M2 8H2.75C2.88807 8 3 8.11193 3 8.25V8.75C3 8.88807 2.88807 9 2.75 9H2V8Z" fill="#FFF5BC"/>
<path d="M1 12H2V13H1V12Z" fill="#EDB120"/>
<path d="M2 12H2.75C2.88807 12 3 12.1119 3 12.25V12.75C3 12.8881 2.88807 13 2.75 13H2V12Z" fill="#FFF5BC"/>
<path d="M1 14H2V15H1V14Z" fill="#EDB120"/>
<path d="M2 14H2.75C2.88807 14 3 14.1119 3 14.25V14.75C3 14.8881 2.88807 15 2.75 15H2V14Z" fill="#FFF5BC"/>
<path d="M1 16H2V17H1V16Z" fill="#EDB120"/>
<path d="M2 16H2.75C2.88807 16 3 16.1119 3 16.25V16.75C3 16.8881 2.88807 17 2.75 17H2V16Z" fill="#FFF5BC"/>
<path d="M1 18H2V19H1V18Z" fill="#EDB120"/>
<path d="M2 18H2.75C2.88807 18 3 18.1119 3 18.25V18.75C3 18.8881 2.88807 19 2.75 19H2V18Z" fill="#FFF5BC"/>
<path d="M1 20H2V21H1V20Z" fill="#EDB120"/>
<path d="M2 20H2.75C2.88807 20 3 20.1119 3 20.25V20.75C3 20.8881 2.88807 21 2.75 21H2V20Z" fill="#FFF5BC"/>
<path d="M1 24H2V25H1V24Z" fill="#EDB120"/>
<path d="M2 24H2.75C2.88807 24 3 24.1119 3 24.25V24.75C3 24.8881 2.88807 25 2.75 25H2V24Z" fill="#FFF5BC"/>
<path d="M1 26H2V27H1V26Z" fill="#EDB120"/>
<path d="M2 26H2.75C2.88807 26 3 26.1119 3 26.25V26.75C3 26.8881 2.88807 27 2.75 27H2V26Z" fill="#FFF5BC"/>
<path d="M1 28H2V29H1V28Z" fill="#EDB120"/>
<path d="M2 28H2.75C2.88807 28 3 28.1119 3 28.25V28.75C3 28.8881 2.88807 29 2.75 29H2V28Z" fill="#FFF5BC"/>
<path d="M19 38V37H20V38H19Z" fill="#EDB120"/>
<path d="M19 37V36.25C19 36.1119 19.1119 36 19.25 36H19.75C19.8881 36 20 36.1119 20 36.25V37H19Z" fill="#FFF5BC"/>
<path d="M21 38V37H22V38H21Z" fill="#EDB120"/>
<path d="M21 37V36.25C21 36.1119 21.1119 36 21.25 36H21.75C21.8881 36 22 36.1119 22 36.25V37H21Z" fill="#FFF5BC"/>
<path d="M24 38V37H25V38H24Z" fill="#EDB120"/>
<path d="M24 37V36.25C24 36.1119 24.1119 36 24.25 36H24.75C24.8881 36 25 36.1119 25 36.25V37H24Z" fill="#FFF5BC"/>
<path d="M29 38V37H30V38H29Z" fill="#EDB120"/>
<path d="M29 37V36.25C29 36.1119 29.1119 36 29.25 36H29.75C29.8881 36 30 36.1119 30 36.25V37H29Z" fill="#FFF5BC"/>
<path d="M26 38V37H27V38H26Z" fill="#EDB120"/>
<path d="M26 37V36.25C26 36.1119 26.1119 36 26.25 36H26.75C26.8881 36 27 36.1119 27 36.25V37H26Z" fill="#FFF5BC"/>
<path d="M31 38V37H32V38H31Z" fill="#EDB120"/>
<path d="M31 37V36.25C31 36.1119 31.1119 36 31.25 36H31.75C31.8881 36 32 36.1119 32 36.25V37H31Z" fill="#FFF5BC"/>
</svg>
