<svg width="24" height="24" viewBox="0 0 24 24" fill="none" xmlns="http://www.w3.org/2000/svg">
<path d="M0.5 18.5V4.5C0.5 2.29086 2.29086 0.5 4.5 0.5H18.5C20.7091 0.5 22.5 2.29086 22.5 4.5V18.5C22.5 20.7091 20.7091 22.5 18.5 22.5H4.5C2.29086 22.5 0.5 20.7091 0.5 18.5Z" fill="#00A3A3"/>
<mask id="path-2-inside-1_822_4663" fill="var(--mw-icon-background-default-white, white)">
<rect x="3" y="3" width="4" height="4" rx="0.5"/>
</mask>
<rect x="3" y="3" width="4" height="4" rx="0.5" fill="#FF453A" stroke="var(--mw-icon-background-default-white, white)" stroke-width="2" mask="url(#path-2-inside-1_822_4663)"/>
<rect x="3.5" y="17.5" width="2" height="2" fill="var(--mw-icon-background-default-white, white)" stroke="var(--mw-icon-glyph-content-dark-gray, #333333)"/>
<rect x="5.5" y="17.5" width="2" height="2" fill="var(--mw-icon-background-default-white, white)" stroke="var(--mw-icon-glyph-content-dark-gray, #333333)"/>
<rect x="7.5" y="17.5" width="2" height="2" fill="var(--mw-icon-background-default-white, white)" stroke="var(--mw-icon-glyph-content-dark-gray, #333333)"/>
<rect x="13.5" y="17.5" width="2" height="2" fill="var(--mw-icon-background-default-white, white)" stroke="var(--mw-icon-glyph-content-dark-gray, #333333)"/>
<rect x="15.5" y="17.5" width="2" height="2" fill="var(--mw-icon-background-default-white, white)" stroke="var(--mw-icon-glyph-content-dark-gray, #333333)"/>
<rect x="17.5" y="17.5" width="2" height="2" fill="var(--mw-icon-background-default-white, white)" stroke="var(--mw-icon-glyph-content-dark-gray, #333333)"/>
<path d="M15.4661 6.07573L15.2426 5.5L15.4661 4.92427C15.7799 4.11602 16.7172 3.5 17.5961 3.5C18.6293 3.5 19.5 4.37677 19.5 5.5C19.5 6.62323 18.6293 7.5 17.5961 7.5C16.7172 7.5 15.7799 6.88398 15.4661 6.07573ZM14.5339 4.92427L14.7574 5.5L14.5339 6.07573C14.2201 6.88399 13.2828 7.5 12.4039 7.5C11.3707 7.5 10.5 6.62323 10.5 5.5C10.5 4.37677 11.3707 3.5 12.4039 3.5C13.2828 3.5 14.2201 4.11602 14.5339 4.92427Z" stroke="var(--mw-icon-background-default-white, white)"/>
<rect x="4" y="9" width="3" height="7" fill="var(--mw-icon-glyph-content-dark-gray, #333333)"/>
<rect x="7" y="9" width="1" height="1" fill="var(--mw-icon-background-default-white, white)"/>
<rect x="7" y="11" width="1" height="1" fill="var(--mw-icon-background-default-white, white)"/>
<rect x="7" y="13" width="1" height="1" fill="var(--mw-icon-background-default-white, white)"/>
<rect x="7" y="15" width="1" height="1" fill="var(--mw-icon-background-default-white, white)"/>
<rect x="3" y="9" width="1" height="1" fill="var(--mw-icon-background-default-white, white)"/>
<rect x="3" y="11" width="1" height="1" fill="var(--mw-icon-background-default-white, white)"/>
<rect x="3" y="13" width="1" height="1" fill="var(--mw-icon-background-default-white, white)"/>
<rect x="3" y="15" width="1" height="1" fill="var(--mw-icon-background-default-white, white)"/>
<rect x="20" y="10" width="5" height="11" transform="rotate(90 20 10)" fill="var(--mw-icon-glyph-content-dark-gray, #333333)"/>
<rect x="16" y="15" width="1" height="1" transform="rotate(90 16 15)" fill="var(--mw-icon-background-default-white, white)"/>
<rect x="18" y="15" width="1" height="1" transform="rotate(90 18 15)" fill="var(--mw-icon-background-default-white, white)"/>
<rect x="20" y="15" width="1" height="1" transform="rotate(90 20 15)" fill="var(--mw-icon-background-default-white, white)"/>
<rect x="14" y="15" width="1" height="1" transform="rotate(90 14 15)" fill="var(--mw-icon-background-default-white, white)"/>
<rect x="12" y="15" width="1" height="1" transform="rotate(90 12 15)" fill="var(--mw-icon-background-default-white, white)"/>
<rect x="10" y="15" width="1" height="1" transform="rotate(90 10 15)" fill="var(--mw-icon-background-default-white, white)"/>
<rect x="16" y="9" width="1" height="1" transform="rotate(90 16 9)" fill="var(--mw-icon-background-default-white, white)"/>
<rect x="18" y="9" width="1" height="1" transform="rotate(90 18 9)" fill="var(--mw-icon-background-default-white, white)"/>
<rect x="20" y="9" width="1" height="1" transform="rotate(90 20 9)" fill="var(--mw-icon-background-default-white, white)"/>
<rect x="14" y="9" width="1" height="1" transform="rotate(90 14 9)" fill="var(--mw-icon-background-default-white, white)"/>
<rect x="12" y="9" width="1" height="1" transform="rotate(90 12 9)" fill="var(--mw-icon-background-default-white, white)"/>
<rect x="10" y="9" width="1" height="1" transform="rotate(90 10 9)" fill="var(--mw-icon-background-default-white, white)"/>
<path d="M0.5 18.5V4.5C0.5 2.29086 2.29086 0.5 4.5 0.5H18.5C20.7091 0.5 22.5 2.29086 22.5 4.5V18.5C22.5 20.7091 20.7091 22.5 18.5 22.5H4.5C2.29086 22.5 0.5 20.7091 0.5 18.5Z" stroke="#02555C" stroke-linecap="round"/>
<use href="#arduinoExplorerApp" />
</svg>
