<svg width="50" height="40" viewBox="0 0 50 40" fill="none" xmlns="http://www.w3.org/2000/svg">
<path d="M43.9422 8.035L42.8124 7H8.01676L7 8.035V32.965L8.01676 34H43.9832L45 33.0437V16.25L43.973 15.3837L43.9422 8.035Z" fill="#027880"/>
<path d="M42.5 32.5C43.0523 32.5 43.5 32.0523 43.5 31.5C43.5 30.9477 43.0523 30.5 42.5 30.5C41.9477 30.5 41.5 30.9477 41.5 31.5C41.5 32.0523 41.9477 32.5 42.5 32.5Z" fill="#212121" stroke="white" stroke-miterlimit="10"/>
<path d="M15.5 32.5C16.0523 32.5 16.5 32.0523 16.5 31.5C16.5 30.9477 16.0523 30.5 15.5 30.5C14.9477 30.5 14.5 30.9477 14.5 31.5C14.5 32.0523 14.9477 32.5 15.5 32.5Z" fill="#212121" stroke="white" stroke-miterlimit="10"/>
<path d="M42.5 18.5C43.0523 18.5 43.5 18.0523 43.5 17.5C43.5 16.9477 43.0523 16.5 42.5 16.5C41.9477 16.5 41.5 16.9477 41.5 17.5C41.5 18.0523 41.9477 18.5 42.5 18.5Z" fill="#212121" stroke="white" stroke-miterlimit="10"/>
<path d="M15.5 10.5C16.0523 10.5 16.5 10.0523 16.5 9.5C16.5 8.94772 16.0523 8.5 15.5 8.5C14.9477 8.5 14.5 8.94772 14.5 9.5C14.5 10.0523 14.9477 10.5 15.5 10.5Z" fill="#212121" stroke="white" stroke-miterlimit="10"/>
<path d="M41 22H21V26H41V22Z" fill="#212121"/>
<path d="M37 8H28V11H37V8Z" fill="#212121"/>
<path d="M34 9H33V10H34V9Z" fill="#7D7D7D"/>
<path d="M36 9H35V10H36V9Z" fill="#7D7D7D"/>
<path d="M32 9H31V10H32V9Z" fill="#7D7D7D"/>
<path d="M30 9H29V10H30V9Z" fill="#7D7D7D"/>
<path d="M27 8H20V11H27V8Z" fill="#212121"/>
<path d="M24 9H23V10H24V9Z" fill="#7D7D7D"/>
<path d="M26 9H25V10H26V9Z" fill="#7D7D7D"/>
<path d="M22 9H21V10H22V9Z" fill="#7D7D7D"/>
<path d="M39 30H30V33H39V30Z" fill="#212121"/>
<path d="M36 31H35V32H36V31Z" fill="#7D7D7D"/>
<path d="M38 31H37V32H38V31Z" fill="#7D7D7D"/>
<path d="M34 31H33V32H34V31Z" fill="#7D7D7D"/>
<path d="M32 31H31V32H32V31Z" fill="#7D7D7D"/>
<path d="M28 30H19V33H28V30Z" fill="#212121"/>
<path d="M25 31H24V32H25V31Z" fill="#7D7D7D"/>
<path d="M27 31H26V32H27V31Z" fill="#7D7D7D"/>
<path d="M23 31H22V32H23V31Z" fill="#7D7D7D"/>
<path d="M21 31H20V32H21V31Z" fill="#7D7D7D"/>
<path d="M7 24H6V29H7V24Z" fill="#616161"/>
<path d="M12 25H7V28H12V25Z" fill="black"/>
<path d="M9.5 8.5H8.5" stroke="#A8E0E0" stroke-miterlimit="10" stroke-linecap="square"/>
<path d="M9.5 10.5H8.5" stroke="#A8E0E0" stroke-miterlimit="10" stroke-linecap="square"/>
<path d="M12.5 8.5H11.5" stroke="#A8E0E0" stroke-miterlimit="10" stroke-linecap="square"/>
<path d="M12.5 10.5H11.5" stroke="#A8E0E0" stroke-miterlimit="10" stroke-linecap="square"/>
<path d="M11.6 8H9.4C9.17909 8 9 8.17909 9 8.4V10.6C9 10.8209 9.17909 11 9.4 11H11.6C11.8209 11 12 10.8209 12 10.6V8.4C12 8.17909 11.8209 8 11.6 8Z" fill="white"/>
<path d="M10.5 10C10.7761 10 11 9.77614 11 9.5C11 9.22386 10.7761 9 10.5 9C10.2239 9 10 9.22386 10 9.5C10 9.77614 10.2239 10 10.5 10Z" fill="#993333"/>
<path d="M18 15H15V16H18V15Z" fill="white"/>
<path d="M17 15H16V16H17V15Z" fill="#FF1550"/>
<path opacity="0.64" d="M18.46 15.5C18.46 16.32 17.57 17 16.46 17C15.9981 17.0527 15.5336 16.9267 15.1617 16.6477C14.7898 16.3688 14.5387 15.9582 14.46 15.5C14.46 14.68 15.35 14 16.46 14C17.57 14 18.46 14.67 18.46 15.5Z" fill="url(#paint0_radial_1253_41632)"/>
<path d="M18 19H15V20H18V19Z" fill="white"/>
<path d="M17 19H16V20H17V19Z" fill="#15FF50"/>
<path opacity="0.64" d="M18.46 19.5C18.46 20.32 17.57 21 16.46 21C15.9981 21.0527 15.5336 20.9267 15.1617 20.6477C14.7898 20.3688 14.5387 19.9582 14.46 19.5C14.46 18.68 15.35 18 16.46 18C17.57 18 18.46 18.67 18.46 19.5Z" fill="url(#paint1_radial_1253_41632)"/>
<path d="M32.79 17.26C31.96 18.09 31.1 19 29.79 19C29.4747 19.0073 29.1613 18.9494 28.8695 18.83C28.5776 18.7105 28.3135 18.5321 28.0939 18.3058C27.8742 18.0796 27.7036 17.8104 27.5928 17.5151C27.482 17.2199 27.4334 16.9049 27.45 16.59C27.4526 16.2696 27.5187 15.953 27.6447 15.6584C27.7706 15.3638 27.9537 15.0971 28.1835 14.8739C28.4133 14.6506 28.6851 14.4752 28.9832 14.3578C29.2813 14.2404 29.5997 14.1834 29.92 14.19C31.12 14.19 32.01 15.19 32.79 15.93C33.62 15.1 34.48 14.19 35.79 14.19C36.1048 14.1813 36.418 14.2378 36.7098 14.3562C37.0017 14.4745 37.2658 14.652 37.4857 14.8774C37.7055 15.1029 37.8763 15.3715 37.9872 15.6663C38.0981 15.961 38.1467 16.2755 38.13 16.59C38.1287 16.9103 38.0639 17.2273 37.9391 17.5223C37.8144 17.8174 37.6324 18.0848 37.4036 18.309C37.1747 18.5332 36.9037 18.7097 36.6061 18.8283C36.3085 18.9469 35.9903 19.0053 35.67 19C34.47 19 33.57 18 32.79 17.26ZM32.14 16.59C31.51 16.01 30.84 15.16 29.9 15.16C29.5216 15.1626 29.1593 15.3141 28.8917 15.5817C28.6241 15.8493 28.4726 16.2115 28.47 16.59C28.4632 16.7745 28.494 16.9584 28.5606 17.1305C28.6271 17.3027 28.728 17.4595 28.8571 17.5914C28.9862 17.7233 29.1408 17.8276 29.3115 17.8978C29.4822 17.9681 29.6654 18.0028 29.85 18C30.7691 17.8495 31.5919 17.3429 32.14 16.59V16.59ZM37.14 16.59C37.1482 16.4034 37.1182 16.2171 37.0517 16.0425C36.9853 15.868 36.8839 15.7089 36.7537 15.5749C36.6235 15.441 36.4673 15.3351 36.2947 15.2638C36.1221 15.1924 35.9368 15.1571 35.75 15.16C34.83 15.16 34.08 15.96 33.46 16.59C34.1 17.18 34.76 18.02 35.71 18.02C36.0858 18.0147 36.4444 17.8618 36.7083 17.5942C36.9721 17.3265 37.12 16.9658 37.12 16.59H37.14Z" fill="white"/>
<rect x="8" y="14" width="1" height="7" fill="white"/>
<path d="M12 15H5V20H12V15Z" fill="#BFBFBF"/>
<defs>
<radialGradient id="paint0_radial_1253_41632" cx="0" cy="0" r="1" gradientUnits="userSpaceOnUse" gradientTransform="translate(15.5504 17.6758) scale(2.0124 1.5093)">
<stop stop-color="#FF9500"/>
<stop offset="1" stop-color="#FF4000" stop-opacity="0"/>
</radialGradient>
<radialGradient id="paint1_radial_1253_41632" cx="0" cy="0" r="1" gradientUnits="userSpaceOnUse" gradientTransform="translate(15.5504 21.7052) scale(2.0124 1.5093)">
<stop stop-color="#84FF00"/>
<stop offset="1" stop-color="#9FAA00" stop-opacity="0"/>
</radialGradient>
</defs>
</svg>
