<svg width="50" height="40" viewBox="0 0 50 40" fill="none" xmlns="http://www.w3.org/2000/svg">
<path d="M7.31018 11C9.69057 7.93125 13.1498 6 17 6C20.8501 6 24.3094 7.93125 26.6898 11" stroke="#A6A6A6" stroke-width="2" stroke-linecap="round"/>
<path d="M28.201 28C29.9586 25.493 31 22.3768 31 19C31 10.7157 24.732 4 17 4C9.26801 4 3 10.7157 3 19C3 22.3768 4.04145 25.493 5.79897 28" stroke="#616162" stroke-width="2" stroke-linecap="round"/>
<path d="M5 26C5 25.4477 5.44772 25 6 25H8.5C8.77614 25 9 25.2239 9 25.5V34.5C9 34.7761 8.77614 35 8.5 35H6C5.44772 35 5 34.5523 5 34V26Z" fill="#616162"/>
<path d="M29 26C29 25.4477 28.5523 25 28 25H25.5C25.2239 25 25 25.2239 25 25.5V34.5C25 34.7761 25.2239 35 25.5 35H28C28.5523 35 29 34.5523 29 34V26Z" fill="#616162"/>
<path d="M9 24C9 23.4477 9.44772 23 10 23H13C14.1046 23 15 23.8954 15 25V35C15 36.1046 14.1046 37 13 37H10C9.44772 37 9 36.5523 9 36V24Z" fill="#A6A6A6"/>
<path d="M25 24C25 23.4477 24.5523 23 24 23H21C19.8954 23 19 23.8954 19 25V35C19 36.1046 19.8954 37 21 37H24C24.5523 37 25 36.5523 25 36V24Z" fill="#A6A6A6"/>
<path d="M29.5 3.5C29.5 2.94772 29.9477 2.5 30.5 2.5H46.5C47.0523 2.5 47.5 2.94772 47.5 3.5V19.5C47.5 20.0523 47.0523 20.5 46.5 20.5H30.5C29.9477 20.5 29.5 20.0523 29.5 19.5V3.5Z" fill="white" stroke="#1656A7"/>
<path d="M36 7.25006C36 7.02062 36.1562 6.82063 36.3787 6.76499L43.3787 5.01517C43.6943 4.93629 44 5.17497 44 5.50025V14.3599C44 15.7406 42.8807 16.8599 41.5 16.8599C40.1193 16.8599 39 15.7406 39 14.3599C39 12.9792 40.1193 11.8599 41.5 11.8599C42.0628 11.8599 42.5822 12.0458 43 12.3597V9.10985L37 10.6097V15.3599C37 16.7406 35.8807 17.8599 34.5 17.8599C33.1193 17.8599 32 16.7406 32 15.3599C32 13.9792 33.1193 12.8599 34.5 12.8599C35.0628 12.8599 35.5822 13.0458 36 13.3597V7.25006Z" fill="#1656A8"/>
</svg>
