<svg width="50" height="40" viewBox="0 0 50 40" fill="none" xmlns="http://www.w3.org/2000/svg">
<path d="M44 15.5H45.1768C45.2625 15.5 45.3447 15.5343 45.4053 15.5954C45.4659 15.6564 45.5 15.7392 45.5 15.8256V24.1744C45.5 24.2608 45.4659 24.3436 45.4053 24.4046C45.3447 24.4657 45.2625 24.5 45.1768 24.5H44" fill="#D9D9D9"/>
<path d="M44 15.5H45.1768C45.2625 15.5 45.3447 15.5343 45.4053 15.5954C45.4659 15.6564 45.5 15.7392 45.5 15.8256V24.1744C45.5 24.2608 45.4659 24.3436 45.4053 24.4046C45.3447 24.4657 45.2625 24.5 45.1768 24.5H44" stroke="#616162" stroke-miterlimit="10"/>
<path d="M7 5L8 6H41L42 5V1H7V5Z" fill="#D9D9D9"/>
<path d="M7 35L8 34H41L42 35V39H7V35Z" fill="#D9D9D9"/>
<path d="M7 5L8 6H41L42 5H7Z" fill="#A6A6A6"/>
<path d="M7 35L8 34H41L42 35H7Z" fill="#A6A6A6"/>
<path d="M36 3C36 3.55228 35.5523 4 35 4C34.4477 4 34 3.55228 34 3C34 2.44772 34.4477 2 35 2C35.5523 2 36 2.44772 36 3Z" fill="#616162"/>
<path d="M40 3C40 3.55228 39.5523 4 39 4C38.4477 4 38 3.55228 38 3C38 2.44772 38.4477 2 39 2C39.5523 2 40 2.44772 40 3Z" fill="#616162"/>
<path d="M32 3C32 3.55228 31.5523 4 31 4C30.4477 4 30 3.55228 30 3C30 2.44772 30.4477 2 31 2C31.5523 2 32 2.44772 32 3Z" fill="#616162"/>
<path d="M28 3C28 3.55228 27.5523 4 27 4C26.4477 4 26 3.55228 26 3C26 2.44772 26.4477 2 27 2C27.5523 2 28 2.44772 28 3Z" fill="#616162"/>
<path d="M24 3C24 3.55228 23.5523 4 23 4C22.4477 4 22 3.55228 22 3C22 2.44772 22.4477 2 23 2C23.5523 2 24 2.44772 24 3Z" fill="#616162"/>
<path d="M20 3C20 3.55228 19.5523 4 19 4C18.4477 4 18 3.55228 18 3C18 2.44772 18.4477 2 19 2C19.5523 2 20 2.44772 20 3Z" fill="#616162"/>
<path d="M16 3C16 3.55228 15.5523 4 15 4C14.4477 4 14 3.55228 14 3C14 2.44772 14.4477 2 15 2C15.5523 2 16 2.44772 16 3Z" fill="#616162"/>
<path d="M12 3C12 3.55228 11.5523 4 11 4C10.4477 4 10 3.55228 10 3C10 2.44772 10.4477 2 11 2C11.5523 2 12 2.44772 12 3Z" fill="#616162"/>
<path d="M36 37C36 36.4477 35.5523 36 35 36C34.4477 36 34 36.4477 34 37C34 37.5523 34.4477 38 35 38C35.5523 38 36 37.5523 36 37Z" fill="#616162"/>
<path d="M40 37C40 36.4477 39.5523 36 39 36C38.4477 36 38 36.4477 38 37C38 37.5523 38.4477 38 39 38C39.5523 38 40 37.5523 40 37Z" fill="#616162"/>
<path d="M32 37C32 36.4477 31.5523 36 31 36C30.4477 36 30 36.4477 30 37C30 37.5523 30.4477 38 31 38C31.5523 38 32 37.5523 32 37Z" fill="#616162"/>
<path d="M28 37C28 36.4477 27.5523 36 27 36C26.4477 36 26 36.4477 26 37C26 37.5523 26.4477 38 27 38C27.5523 38 28 37.5523 28 37Z" fill="#616162"/>
<path d="M24 37C24 36.4477 23.5523 36 23 36C22.4477 36 22 36.4477 22 37C22 37.5523 22.4477 38 23 38C23.5523 38 24 37.5523 24 37Z" fill="#616162"/>
<path d="M20 37C20 36.4477 19.5523 36 19 36C18.4477 36 18 36.4477 18 37C18 37.5523 18.4477 38 19 38C19.5523 38 20 37.5523 20 37Z" fill="#616162"/>
<path d="M16 37C16 36.4477 15.5523 36 15 36C14.4477 36 14 36.4477 14 37C14 37.5523 14.4477 38 15 38C15.5523 38 16 37.5523 16 37Z" fill="#616162"/>
<path d="M12 37C12 36.4477 11.5523 36 11 36C10.4477 36 10 36.4477 10 37C10 37.5523 10.4477 38 11 38C11.5523 38 12 37.5523 12 37Z" fill="#616162"/>
<path d="M5.5 8.5C5.5 7.39543 6.39543 6.5 7.5 6.5H41.5C42.6046 6.5 43.5 7.39543 43.5 8.5V31.5C43.5 32.6046 42.6046 33.5 41.5 33.5H7.5C6.39543 33.5 5.5 32.6046 5.5 31.5V8.5Z" fill="#B4DEFF" stroke="#1656A7"/>
<path d="M24.5004 31C29.6769 31 33.7023 29.7175 34.7523 28H14.2194C15.2169 29.7175 19.3239 31 24.5004 31Z" fill="white"/>
<path d="M35 27.3154C35 25.4866 29.9407 24 24.2691 24C18.5975 24 14 25.4866 14 27.3154C14.0027 27.5584 14.0758 27.7957 14.2108 28H34.749C34.8973 27.7994 34.9843 27.5621 35 27.3154Z" fill="#333333"/>
<circle cx="40" cy="13" r="2" fill="#333333"/>
<path d="M23 21C24.1046 21 25 20.1046 25 19C25 17.8954 24.1046 17 23 17C21.8954 17 21 17.8954 21 19C21 20.1046 21.8954 21 23 21Z" fill="#333333"/>
<path d="M23 20C23.5523 20 24 19.5523 24 19C24 18.4477 23.5523 18 23 18C22.4477 18 22 18.4477 22 19C22 19.5523 22.4477 20 23 20Z" fill="#64D413"/>
</svg>
