<svg width="50" height="40" viewBox="0 0 50 40" fill="none" xmlns="http://www.w3.org/2000/svg">
<path d="M4 7C4 6.44772 4.44772 6 5 6H44C44.5523 6 45 6.44772 45 7V11H4V7Z" fill="#BFBFBF"/>
<path d="M9.7 9.5C10.1564 9.40641 10.5 8.99878 10.5 8.5101C10.5 8.36645 10.4703 8.22979 10.4168 8.10606M9.3 9.5C8.84355 9.40641 8.5 8.99878 8.5 8.5101C8.5 8.36645 8.52969 8.22979 8.58321 8.10606M10.2031 7.79186C10.0225 7.61141 9.77413 7.5 9.5 7.5C9.22587 7.5 8.97751 7.61141 8.79687 7.79186" stroke="black" stroke-width="0.7"/>
<path d="M15.7 9.5C16.1564 9.40641 16.5 8.99878 16.5 8.5101C16.5 8.36645 16.4703 8.22979 16.4168 8.10606M15.3 9.5C14.8436 9.40641 14.5 8.99878 14.5 8.5101C14.5 8.36645 14.5297 8.22979 14.5832 8.10606M16.2031 7.79186C16.0225 7.61141 15.7741 7.5 15.5 7.5C15.2259 7.5 14.9775 7.61141 14.7969 7.79186" stroke="black" stroke-width="0.7"/>
<path d="M21.7 9.5C22.1564 9.40641 22.5 8.99878 22.5 8.5101C22.5 8.36645 22.4703 8.22979 22.4168 8.10606M21.3 9.5C20.8436 9.40641 20.5 8.99878 20.5 8.5101C20.5 8.36645 20.5297 8.22979 20.5832 8.10606M22.2031 7.79186C22.0225 7.61141 21.7741 7.5 21.5 7.5C21.2259 7.5 20.9775 7.61141 20.7969 7.79186" stroke="black" stroke-width="0.7"/>
<path d="M27.7 9.5C28.1564 9.40641 28.5 8.99878 28.5 8.5101C28.5 8.36645 28.4703 8.22979 28.4168 8.10606M27.3 9.5C26.8436 9.40641 26.5 8.99878 26.5 8.5101C26.5 8.36645 26.5297 8.22979 26.5832 8.10606M28.2031 7.79186C28.0225 7.61141 27.7741 7.5 27.5 7.5C27.2259 7.5 26.9775 7.61141 26.7969 7.79186" stroke="black" stroke-width="0.7"/>
<path d="M33.7 9.5C34.1564 9.40641 34.5 8.99878 34.5 8.5101C34.5 8.36645 34.4703 8.22979 34.4168 8.10606M33.3 9.5C32.8436 9.40641 32.5 8.99878 32.5 8.5101C32.5 8.36645 32.5297 8.22979 32.5832 8.10606M34.2031 7.79186C34.0225 7.61141 33.7741 7.5 33.5 7.5C33.2259 7.5 32.9775 7.61141 32.7969 7.79186" stroke="black" stroke-width="0.7"/>
<path d="M39.7 9.5C40.1564 9.40641 40.5 8.99878 40.5 8.5101C40.5 8.36645 40.4703 8.22979 40.4168 8.10606M39.3 9.5C38.8436 9.40641 38.5 8.99878 38.5 8.5101C38.5 8.36645 38.5297 8.22979 38.5832 8.10606M40.2031 7.79186C40.0225 7.61141 39.7741 7.5 39.5 7.5C39.2259 7.5 38.9775 7.61141 38.7969 7.79186" stroke="black" stroke-width="0.7"/>
<path d="M4 28H45V32C45 32.5523 44.5523 33 44 33H5C4.44771 33 4 32.5523 4 32V28Z" fill="#BFBFBF"/>
<path d="M9.7 31.5C10.1564 31.4064 10.5 30.9988 10.5 30.5101C10.5 30.3664 10.4703 30.2298 10.4168 30.1061M9.3 31.5C8.84355 31.4064 8.5 30.9988 8.5 30.5101C8.5 30.3664 8.52969 30.2298 8.58321 30.1061M10.2031 29.7919C10.0225 29.6114 9.77413 29.5 9.5 29.5C9.22587 29.5 8.97751 29.6114 8.79687 29.7919" stroke="black" stroke-width="0.7"/>
<path d="M15.7 31.5C16.1564 31.4064 16.5 30.9988 16.5 30.5101C16.5 30.3664 16.4703 30.2298 16.4168 30.1061M15.3 31.5C14.8436 31.4064 14.5 30.9988 14.5 30.5101C14.5 30.3664 14.5297 30.2298 14.5832 30.1061M16.2031 29.7919C16.0225 29.6114 15.7741 29.5 15.5 29.5C15.2259 29.5 14.9775 29.6114 14.7969 29.7919" stroke="black" stroke-width="0.7"/>
<path d="M21.7 31.5C22.1564 31.4064 22.5 30.9988 22.5 30.5101C22.5 30.3664 22.4703 30.2298 22.4168 30.1061M21.3 31.5C20.8436 31.4064 20.5 30.9988 20.5 30.5101C20.5 30.3664 20.5297 30.2298 20.5832 30.1061M22.2031 29.7919C22.0225 29.6114 21.7741 29.5 21.5 29.5C21.2259 29.5 20.9775 29.6114 20.7969 29.7919" stroke="black" stroke-width="0.7"/>
<path d="M27.7 31.5C28.1564 31.4064 28.5 30.9988 28.5 30.5101C28.5 30.3664 28.4703 30.2298 28.4168 30.1061M27.3 31.5C26.8436 31.4064 26.5 30.9988 26.5 30.5101C26.5 30.3664 26.5297 30.2298 26.5832 30.1061M28.2031 29.7919C28.0225 29.6114 27.7741 29.5 27.5 29.5C27.2259 29.5 26.9775 29.6114 26.7969 29.7919" stroke="black" stroke-width="0.7"/>
<path d="M33.7 31.5C34.1564 31.4064 34.5 30.9988 34.5 30.5101C34.5 30.3664 34.4703 30.2298 34.4168 30.1061M33.3 31.5C32.8436 31.4064 32.5 30.9988 32.5 30.5101C32.5 30.3664 32.5297 30.2298 32.5832 30.1061M34.2031 29.7919C34.0225 29.6114 33.7741 29.5 33.5 29.5C33.2259 29.5 32.9775 29.6114 32.7969 29.7919" stroke="black" stroke-width="0.7"/>
<path d="M39.7 31.5C40.1564 31.4064 40.5 30.9988 40.5 30.5101C40.5 30.3664 40.4703 30.2298 40.4168 30.1061M39.3 31.5C38.8436 31.4064 38.5 30.9988 38.5 30.5101C38.5 30.3664 38.5297 30.2298 38.5832 30.1061M40.2031 29.7919C40.0225 29.6114 39.7741 29.5 39.5 29.5C39.2259 29.5 38.9775 29.6114 38.7969 29.7919" stroke="black" stroke-width="0.7"/>
<path d="M7 3.5C7 3.22386 7.22386 3 7.5 3H21.5C21.7761 3 22 3.22386 22 3.5V6H7V3.5Z" fill="#008014"/>
<circle cx="8.5" cy="4.5" r="0.5" fill="#F5F5F5"/>
<circle cx="14.5" cy="4.5" r="0.5" fill="#F5F5F5"/>
<circle cx="20.5" cy="4.5" r="0.5" fill="#F5F5F5"/>
<path d="M7 33H22V35.5C22 35.7761 21.7761 36 21.5 36H7.5C7.22386 36 7 35.7761 7 35.5V33Z" fill="#008014"/>
<path d="M27 3.5C27 3.22386 27.2239 3 27.5 3H41.5C41.7761 3 42 3.22386 42 3.5V6H27V3.5Z" fill="#008014"/>
<circle cx="28.5" cy="4.5" r="0.5" fill="#F5F5F5"/>
<circle cx="34.5" cy="4.5" r="0.5" fill="#F5F5F5"/>
<circle cx="40.5" cy="4.5" r="0.5" fill="#F5F5F5"/>
<path d="M27 33H42V35.5C42 35.7761 41.7761 36 41.5 36H27.5C27.2239 36 27 35.7761 27 35.5V33Z" fill="#008014"/>
<path d="M1 11.5C1 11.2239 1.22386 11 1.5 11H47.5C47.7761 11 48 11.2239 48 11.5V27.5C48 27.7761 47.7761 28 47.5 28H1.5C1.22386 28 1 27.7761 1 27.5V11.5Z" fill="#8B6606"/>
<circle cx="6" cy="15" r="1" fill="white"/>
<circle cx="6" cy="24" r="1" fill="white"/>
<circle cx="6" cy="19.5" r="1" fill="white"/>
<circle cx="13" cy="15" r="1" fill="white"/>
<circle cx="13" cy="24" r="1" fill="white"/>
<circle cx="20" cy="15" r="1" fill="white"/>
<circle cx="20" cy="24" r="1" fill="white"/>
<circle cx="27" cy="15" r="1" fill="white"/>
<circle cx="27" cy="24" r="1" fill="white"/>
<circle cx="34" cy="15" r="1" fill="white"/>
<circle cx="34" cy="24" r="1" fill="white"/>
<circle cx="41" cy="15" r="1" fill="white"/>
<circle cx="41" cy="24" r="1" fill="white"/>
<rect x="9" y="18" width="32" height="3" rx="1.5" fill="white"/>
<circle cx="8.5" cy="34.5" r="0.5" fill="#F5F5F5"/>
<circle cx="14.5" cy="34.5" r="0.5" fill="#F5F5F5"/>
<circle cx="20.5" cy="34.5" r="0.5" fill="#F5F5F5"/>
<circle cx="28.5" cy="34.5" r="0.5" fill="#F5F5F5"/>
<circle cx="34.5" cy="34.5" r="0.5" fill="#F5F5F5"/>
<circle cx="40.5" cy="34.5" r="0.5" fill="#F5F5F5"/>
</svg>
