<svg width="50" height="40" viewBox="0 0 50 40" fill="none" xmlns="http://www.w3.org/2000/svg">
<path d="M0.5 10.5C0.5 9.39543 1.39543 8.5 2.5 8.5H46.5C47.6046 8.5 48.5 9.39543 48.5 10.5V30.5C48.5 31.6046 47.6046 32.5 46.5 32.5H2.5C1.39543 32.5 0.5 31.6046 0.5 30.5V10.5Z" fill="#F5F5F5" stroke="#616161" stroke-linecap="round" stroke-linejoin="round"/>
<path d="M8.11364 20.5C8.11364 21.8807 6.96891 23 5.55682 23C4.14473 23 3 21.8807 3 20.5C3 19.1193 4.14473 18 5.55682 18C6.96891 18 8.11364 19.1193 8.11364 20.5Z" fill="#D9D9D9"/>
<path d="M46 20.5C46 21.8807 44.8553 23 43.4432 23C42.0311 23 40.8864 21.8807 40.8864 20.5C40.8864 19.1193 42.0311 18 43.4432 18C44.8553 18 46 19.1193 46 20.5Z" fill="#D9D9D9"/>
<path d="M8.11364 20.5C8.11364 21.8807 6.96891 23 5.55682 23C4.14473 23 3 21.8807 3 20.5C3 19.1193 4.14473 18 5.55682 18C6.96891 18 8.11364 19.1193 8.11364 20.5Z" stroke="#333333" stroke-linejoin="round"/>
<path d="M46 20.5C46 21.8807 44.8553 23 43.4432 23C42.0311 23 40.8864 21.8807 40.8864 20.5C40.8864 19.1193 42.0311 18 43.4432 18C44.8553 18 46 19.1193 46 20.5Z" stroke="#333333" stroke-linejoin="round"/>
<path d="M38.3195 14.5H10.6805C10.0625 14.5 9.59248 15.0549 9.69407 15.6644L11.3607 25.6644C11.4411 26.1466 11.8583 26.5 12.3471 26.5H36.6529C37.1417 26.5 37.5589 26.1466 37.6393 25.6644L39.3059 15.6644C39.4075 15.0549 38.9375 14.5 38.3195 14.5Z" fill="#A6A6A6" stroke="#333333" stroke-linejoin="round"/>
<path fill-rule="evenodd" clip-rule="evenodd" d="M15 19C15 19.5523 14.5523 20 14 20C13.4477 20 13 19.5523 13 19C13 18.4477 13.4477 18 14 18C14.5523 18 15 18.4477 15 19ZM17 22C17 22.5523 16.5523 23 16 23C15.4477 23 15 22.5523 15 22C15 21.4477 15.4477 21 16 21C16.5523 21 17 21.4477 17 22ZM20 23C20.5523 23 21 22.5523 21 22C21 21.4477 20.5523 21 20 21C19.4477 21 19 21.4477 19 22C19 22.5523 19.4477 23 20 23ZM25 22C25 22.5523 24.5523 23 24 23C23.4477 23 23 22.5523 23 22C23 21.4477 23.4477 21 24 21C24.5523 21 25 21.4477 25 22ZM28 23C28.5523 23 29 22.5523 29 22C29 21.4477 28.5523 21 28 21C27.4477 21 27 21.4477 27 22C27 22.5523 27.4477 23 28 23ZM33 22C33 22.5523 32.5523 23 32 23C31.4477 23 31 22.5523 31 22C31 21.4477 31.4477 21 32 21C32.5523 21 33 21.4477 33 22ZM18 20C18.5523 20 19 19.5523 19 19C19 18.4477 18.5523 18 18 18C17.4477 18 17 18.4477 17 19C17 19.5523 17.4477 20 18 20ZM23 19C23 19.5523 22.5523 20 22 20C21.4477 20 21 19.5523 21 19C21 18.4477 21.4477 18 22 18C22.5523 18 23 18.4477 23 19ZM26 20C26.5523 20 27 19.5523 27 19C27 18.4477 26.5523 18 26 18C25.4477 18 25 18.4477 25 19C25 19.5523 25.4477 20 26 20ZM31 19C31 19.5523 30.5523 20 30 20C29.4477 20 29 19.5523 29 19C29 18.4477 29.4477 18 30 18C30.5523 18 31 18.4477 31 19ZM34 20C34.5523 20 35 19.5523 35 19C35 18.4477 34.5523 18 34 18C33.4477 18 33 18.4477 33 19C33 19.5523 33.4477 20 34 20Z" fill="#F5F5F5"/>
</svg>
