<svg width="24" height="24" viewBox="0 0 24 24" fill="none" xmlns="http://www.w3.org/2000/svg">
<path d="M0.5 18.5V4.5C0.5 2.29086 2.29086 0.5 4.5 0.5H18.5C20.7091 0.5 22.5 2.29086 22.5 4.5V18.5C22.5 20.7091 20.7091 22.5 18.5 22.5H4.5C2.29086 22.5 0.5 20.7091 0.5 18.5Z" fill="#00A3A3"/>
<path d="M2.5 5.5C2.5 4.39543 3.39543 3.5 4.5 3.5H18.5C19.6046 3.5 20.5 4.39543 20.5 5.5V18.5C20.5 19.6046 19.6046 20.5 18.5 20.5H4.5C3.39543 20.5 2.5 19.6046 2.5 18.5V5.5Z" fill="var(--mw-icon-background-default-light-gray, #F5F5F5)" stroke="var(--mw-icon-border-default-gray, #616161)" stroke-linecap="round"/>
<path d="M18.5 6.5H4.5V14.5H7.5V16.5H9.5V18.5H13.5V16.5H15.5V14.5H18.5V6.5Z" fill="var(--mw-icon-glyph-content-gray, #616162)" stroke="var(--mw-icon-glyph-content-dark-gray, #333333)" stroke-linejoin="round"/>
<path d="M6 7H7V9.5C7 9.77614 6.77614 10 6.5 10C6.22386 10 6 9.77614 6 9.5V7Z" fill="#FFD60A"/>
<path d="M8 7H9V9.5C9 9.77614 8.77614 10 8.5 10C8.22386 10 8 9.77614 8 9.5V7Z" fill="#FFD60A"/>
<path d="M10 7H11V9.5C11 9.77614 10.7761 10 10.5 10C10.2239 10 10 9.77614 10 9.5V7Z" fill="#FFD60A"/>
<path d="M12 7H13V9.5C13 9.77614 12.7761 10 12.5 10C12.2239 10 12 9.77614 12 9.5V7Z" fill="#FFD60A"/>
<path d="M14 7H15V9.5C15 9.77614 14.7761 10 14.5 10C14.2239 10 14 9.77614 14 9.5V7Z" fill="#FFD60A"/>
<path d="M16 7H17V9.5C17 9.77614 16.7761 10 16.5 10C16.2239 10 16 9.77614 16 9.5V7Z" fill="#FFD60A"/>
<path d="M0.5 18.5V4.5C0.5 2.29086 2.29086 0.5 4.5 0.5H18.5C20.7091 0.5 22.5 2.29086 22.5 4.5V18.5C22.5 20.7091 20.7091 22.5 18.5 22.5H4.5C2.29086 22.5 0.5 20.7091 0.5 18.5Z" stroke="#02555C" stroke-linecap="round"/>
<use href="#tcpIpExplorerApp" />
</svg>
