<svg width="50" height="40" viewBox="0 0 50 40" fill="none" xmlns="http://www.w3.org/2000/svg">
<path d="M0.5 2.5C0.5 1.39543 1.39543 0.5 2.5 0.5H46.5C47.6046 0.5 48.5 1.39543 48.5 2.5V37.5C48.5 38.6046 47.6046 39.5 46.5 39.5H2.5C1.39543 39.5 0.5 38.6046 0.5 37.5V2.5Z" fill="#F5F5F5" stroke="#616161" stroke-linecap="round" stroke-linejoin="round"/>
<path d="M34.5 32.5V22.5H15.5V32.5H34.5Z" fill="#F5F5F5" stroke="#333333" stroke-linejoin="round"/>
<path d="M8 12H41V17H8V12Z" fill="#FFEF91"/>
<path d="M44 7V22H5V7H8V16C8 16.5523 8.44772 17 9 17H10C10.5523 17 11 16.5523 11 16V7H13V16C13 16.5523 13.4477 17 14 17H15C15.5523 17 16 16.5523 16 16V7H18V16C18 16.5523 18.4477 17 19 17H20C20.5523 17 21 16.5523 21 16V7H23V16C23 16.5523 23.4477 17 24 17H25C25.5523 17 26 16.5523 26 16V7H28V16C28 16.5523 28.4477 17 29 17H30C30.5523 17 31 16.5523 31 16V7H33V16C33 16.5523 33.4477 17 34 17H35C35.5523 17 36 16.5523 36 16V7H38V16C38 16.5523 38.4477 17 39 17H40C40.5523 17 41 16.5523 41 16V7H44Z" fill="#A6A6A6"/>
<path d="M44.5 22.5H34.5V29.5H44.5V22.5Z" fill="#D9D9D9"/>
<path d="M15.5 22.5H4.5V29.5H15.5V22.5Z" fill="#D9D9D9"/>
<path d="M44.5 22.5H34.5V29.5H44.5V22.5ZM44.5 22.5V7M4.5 22.5H15.5V29.5H4.5V22.5ZM4.5 22.5V7" stroke="#333333" stroke-linejoin="round"/>
</svg>
