<svg xmlns="http://www.w3.org/2000/svg" xmlns:xlink="http://www.w3.org/1999/xlink" viewBox="0 0 16 16"><defs><style>.cls-1{fill:none;}.cls-2{fill:url(#linear-gradient);}.cls-3{fill:url(#linear-gradient-2);}</style><linearGradient id="linear-gradient" x1="8" y1="13" x2="8" y2="3" gradientUnits="userSpaceOnUse"><stop offset="0.05" stop-color="#a4bbcb"/><stop offset="0.11" stop-color="#bccdd9"/><stop offset="0.2" stop-color="#d4dfe7"/><stop offset="0.3" stop-color="#e7edf2"/><stop offset="0.42" stop-color="#f5f7f9"/><stop offset="0.56" stop-color="#fdfdfe"/><stop offset="0.84" stop-color="#fff"/></linearGradient><linearGradient id="linear-gradient-2" x1="8" y1="3" x2="8" y2="13" gradientUnits="userSpaceOnUse"><stop offset="0.01" stop-color="#42688b"/><stop offset="0.96" stop-color="#273757"/></linearGradient></defs><g id="Layer_2" data-name="Layer 2"><g id="Layer_1-2" data-name="Layer 1"><rect class="cls-1" width="16" height="16"/><circle class="cls-2" cx="8" cy="8" r="5"/><path class="cls-3" d="M8,3a5,5,0,1,0,5,5A5,5,0,0,0,8,3Zm3.44,3H9.8a12,12,0,0,0-.46-1.75A4,4,0,0,1,11.44,6ZM12,8a4.09,4.09,0,0,1-.14,1H10c0-.32.05-.66.05-1s0-.68-.05-1h1.91A4.09,4.09,0,0,1,12,8ZM4,8a4.09,4.09,0,0,1,.14-1H6.05c0,.32,0,.66,0,1s0,.68,0,1H4.14A4.09,4.09,0,0,1,4,8ZM7,8a8,8,0,0,1,.06-1H8.94a8.36,8.36,0,0,1,0,2H7.06A8,8,0,0,1,7,8ZM8.18,4a11,11,0,0,1,.6,2H7.22a11,11,0,0,1,.6-2L8,4Zm-1.52.23A12,12,0,0,0,6.2,6H4.56A4,4,0,0,1,6.66,4.25ZM4.56,10H6.2a12,12,0,0,0,.46,1.75A4,4,0,0,1,4.56,10Zm3.26,2a11,11,0,0,1-.6-2H8.78a11,11,0,0,1-.6,2L8,12Zm1.52-.23A12,12,0,0,0,9.8,10h1.64A4,4,0,0,1,9.34,11.75Z"/></g></g></svg>