<svg width="16" height="16" viewBox="0 0 16 16" fill="none" xmlns="http://www.w3.org/2000/svg">
<path d="M8 16C12.4183 16 16 12.4183 16 8C16 3.58172 12.4183 0 8 0C3.58172 0 0 3.58172 0 8C0 12.4183 3.58172 16 8 16Z" fill="#54B6FF"/>
<path d="M9.33331 5H7.33331V14.3333H9.33331V5Z" fill="white"/>
<path d="M9.33331 5H6.33331V7H9.33331V5Z" fill="white"/>
<path d="M10.3333 12.3334H6V14.3334H10.3333V12.3334Z" fill="white"/>
<path d="M8.00002 4.00004C8.7364 4.00004 9.33335 3.40309 9.33335 2.66671C9.33335 1.93033 8.7364 1.33337 8.00002 1.33337C7.26364 1.33337 6.66669 1.93033 6.66669 2.66671C6.66669 3.40309 7.26364 4.00004 8.00002 4.00004Z" fill="white"/>
</svg>
