<svg width="24" height="24" viewBox="0 0 24 24" fill="none" xmlns="http://www.w3.org/2000/svg">
<path d="M16 2L23 7.5L16 13V10H8.5C7.8914 10.0771 7.33184 10.3736 6.92624 10.8339C6.52064 11.2941 6.29686 11.8865 6.29686 12.5C6.29686 13.1135 6.52064 13.7059 6.92624 14.1661C7.33184 14.6264 7.8914 14.9229 8.5 15H16V20H8.5C6.51088 20 4.60322 19.2098 3.1967 17.8033C1.79018 16.3968 1 14.4891 1 12.5C1 10.5109 1.79018 8.60322 3.1967 7.1967C4.60322 5.79018 6.51088 5 8.5 5H16V2Z" fill="#888888"/>
<path d="M15 19.0001V16.0001H8.5C7.57175 16.0001 6.68151 15.6313 6.02513 14.9749C5.36875 14.3186 5 13.4283 5 12.5001C5 11.5718 5.36875 10.6816 6.02513 10.0252C6.68151 9.36881 7.57175 9.00006 8.5 9.00006H17V10.9401L21.38 7.50006L17 4.06006V6.00006H8.5C6.7761 6.00006 5.1228 6.68488 3.90381 7.90386C2.68483 9.12285 2 10.7762 2 12.5001C2 14.224 2.68483 15.8773 3.90381 17.0963C5.1228 18.3152 6.7761 19.0001 8.5 19.0001H15Z" fill="white"/>
<g opacity="0.5">
<path opacity="0.5" d="M17 5.00006V4.06006L21.38 7.50006L20.78 7.97006L17 5.00006Z" fill="white"/>
<path opacity="0.5" d="M17 6.94H8.5C6.85107 6.94095 5.26373 7.56664 4.05765 8.69108C2.85157 9.81552 2.11634 11.3552 2 13C2 12.85 2 12.69 2 12.53C1.99737 11.6743 2.16348 10.8264 2.48884 10.0349C2.81419 9.24341 3.29241 8.52384 3.89612 7.91734C4.49983 7.31084 5.21719 6.82932 6.00718 6.50032C6.79716 6.17133 7.64425 6.00131 8.5 6H17V6.94Z" fill="white"/>
<path opacity="0.8" d="M8.5 16H15V16.94H8.5C7.57174 16.94 6.6815 16.5713 6.02513 15.9149C5.36875 15.2585 5 14.3683 5 13.44C4.99139 13.2935 4.99139 13.1465 5 13C5.11905 13.84 5.54003 14.6079 6.18421 15.1601C6.82839 15.7122 7.65164 16.0108 8.5 16Z" fill="white"/>
</g>
</svg>
