<svg width="24" height="24" viewBox="0 0 24 24" fill="none" xmlns="http://www.w3.org/2000/svg">
<path d="M8 2L1 7.5L8 13V10H15.5C16.1086 10.0771 16.6682 10.3736 17.0738 10.8339C17.4794 11.2941 17.7031 11.8865 17.7031 12.5C17.7031 13.1135 17.4794 13.7059 17.0738 14.1661C16.6682 14.6264 16.1086 14.9229 15.5 15H8V20H15.5C17.4891 20 19.3968 19.2098 20.8033 17.8033C22.2098 16.3968 23 14.4891 23 12.5C23 10.5109 22.2098 8.60322 20.8033 7.1967C19.3968 5.79018 17.4891 5 15.5 5H8V2Z" fill="#888888"/>
<path d="M9 19.0001V16.0001H15.5C16.4283 16.0001 17.3185 15.6313 17.9749 14.9749C18.6312 14.3186 19 13.4283 19 12.5001C19 11.5718 18.6312 10.6816 17.9749 10.0252C17.3185 9.36881 16.4283 9.00006 15.5 9.00006H7V10.9401L2.62 7.50006L7 4.06006V6.00006H15.5C17.2239 6.00006 18.8772 6.68488 20.0962 7.90386C21.3152 9.12285 22 10.7762 22 12.5001C22 14.224 21.3152 15.8773 20.0962 17.0963C18.8772 18.3152 17.2239 19.0001 15.5 19.0001H9Z" fill="white"/>
<g opacity="0.5">
<path opacity="0.5" d="M7 5.00006V4.06006L2.62 7.50006L3.22 7.97006L7 5.00006Z" fill="white"/>
<path opacity="0.5" d="M7 6.94H15.5C17.1489 6.94095 18.7363 7.56664 19.9423 8.69108C21.1484 9.81552 21.8837 11.3552 22 13C22 12.85 22 12.69 22 12.53C22.0026 11.6743 21.8365 10.8264 21.5112 10.0349C21.1858 9.24341 20.7076 8.52384 20.1039 7.91734C19.5002 7.31084 18.7828 6.82932 17.9928 6.50032C17.2028 6.17133 16.3557 6.00131 15.5 6H7V6.94Z" fill="white"/>
<path opacity="0.8" d="M15.5 16H9V16.94H15.5C16.4283 16.94 17.3185 16.5713 17.9749 15.9149C18.6313 15.2585 19 14.3683 19 13.44C19.0086 13.2935 19.0086 13.1465 19 13C18.8809 13.84 18.46 14.6079 17.8158 15.1601C17.1716 15.7122 16.3484 16.0108 15.5 16Z" fill="white"/>
</g>
</svg>
