<svg width="16" height="16" viewBox="0 0 16 16" fill="none" xmlns="http://www.w3.org/2000/svg">
<circle cx="8" cy="8" r="8" fill="var(--mw-icon-object-primary, #B7312C)"/>
<path d="M7 12C7 11.4477 7.44772 11 8 11C8.55228 11 9 11.4477 9 12C9 12.5523 8.55228 13 8 13C7.44772 13 7 12.5523 7 12Z" fill="var(--mw-icon-object-secondary, #FFFFFE)"/>
<path d="M9 9C9 9.55228 8.55229 10 8 10C7.44772 10 7 9.55228 7 9L7 4C7 3.44772 7.44772 3 8 3C8.55229 3 9 3.44772 9 4L9 9Z" fill="var(--mw-icon-object-secondary, #FFFFFE)"/>
</svg>
