<svg width="176" height="39" viewBox="0 0 176 39" fill="none" xmlns="http://www.w3.org/2000/svg">
<path d="M37.2285 34C39.6573 33.9395 41.9629 32.9182 43.6398 31.1602C45.3167 29.4021 46.228 27.0508 46.1737 24.6219C46.1618 22.327 45.2741 20.1232 43.692 18.4606C42.1099 16.7981 39.9528 15.8023 37.6613 15.6766L37.3728 15.5323C37.0576 12.6738 35.7121 10.028 33.5877 8.08958C31.4634 6.15114 28.7058 5.05282 25.8305 5C23.6409 5.05793 21.5105 5.72254 19.6764 6.9198C17.8423 8.11707 16.3765 9.79998 15.4424 11.7811C13.8538 11.0003 12.0206 10.8808 10.344 11.4486C8.6675 12.0165 7.28426 13.2255 6.49713 14.8109C6.07152 15.7168 5.82649 16.6969 5.77574 17.6965C4.09792 18.1918 2.62709 19.2201 1.58581 20.6258C0.54452 22.0316 -0.0105475 23.7382 0.00459598 25.4876V25.4876C-0.0315525 26.56 0.145827 27.6289 0.526425 28.6322C0.907022 29.6355 1.48325 30.5531 2.2216 31.3317C2.95996 32.1104 3.84571 32.7345 4.82739 33.1678C5.80906 33.6011 6.86707 33.8349 7.93992 33.8557H37.2285V34Z" fill="#268CDD"/>
<path d="M32.4674 26.3526C31.0246 25.487 30.1589 23.3228 28.7161 23.8999C27.1291 24.3327 26.2634 26.3526 24.9649 27.9397C24.3294 28.7077 23.4731 29.2618 22.5122 29.5268C21.9351 28.3725 21.2137 25.6312 20.2037 24.6213C20.0819 24.4799 19.9213 24.3773 19.7419 24.326C19.5624 24.2747 19.3719 24.2771 19.1938 24.3327V24.3327C21.6465 22.4571 23.5221 18.9944 24.9649 14.3775C25.2136 13.5937 25.5026 12.8232 25.8306 12.069C25.9373 11.8834 26.0828 11.7229 26.2571 11.5985C26.4313 11.474 26.6303 11.3885 26.8405 11.3477C28.2833 11.3477 30.1589 21.0143 32.4674 26.3526ZM24.0992 13.2233C23.3778 14.5218 22.6564 15.9646 21.6465 16.2531C20.604 16.7419 19.7447 17.5506 19.1938 18.5616L21.0694 20.1487C22.2344 18.1814 23.201 16.1032 23.955 13.9447L24.0992 13.2233ZM20.0594 21.0143L18.1838 19.283L13.5669 21.4472L16.8853 24.1885C18.1808 23.398 19.269 22.3098 20.0594 21.0143V21.0143Z" fill="white"/>
<path d="M154.303 34.8594C154.303 35.9549 153.411 36.8512 152.322 36.8512H144.398C143.308 36.8512 142.417 35.9542 142.417 34.8594H121.121V36.8512C121.121 37.9467 122.013 38.843 123.102 38.843H173.617C174.707 38.843 175.598 37.946 175.598 36.8512V34.8594H154.303Z" fill="#268CDD"/>
<path d="M121.913 32.8659H174.856C175.302 32.8659 175.5 32.3181 175.202 32.0193L169.656 26.8897V1.99183C169.656 0.896324 168.764 0 167.675 0H129.045C127.956 0 127.064 0.896987 127.064 1.99183V26.8897L121.567 31.9689C121.22 32.2676 121.418 32.8659 121.913 32.8659ZM129.045 1.99316H167.675V26.891H129.045V1.99316Z" fill="#268CDD"/>
<path d="M145.785 14.8923L144.051 13.5977C142.664 14.1952 141.327 14.6434 139.94 15.1911C141.129 16.0376 142.169 16.7846 142.961 17.3821C143.654 16.8842 144.447 16.3364 145.784 14.893L145.785 14.8923Z" fill="#268CDD"/>
<path d="M154.303 12.9497C154.006 12.1032 153.709 11.2567 153.411 10.4102C153.064 9.51317 152.767 8.61751 152.321 7.82012C152.123 7.47155 151.677 6.72461 151.182 6.72461C151.034 6.72461 150.935 6.77507 150.835 6.874C150.538 7.07318 150.142 7.77098 149.943 8.11889C149.646 8.66664 149.051 9.56297 148.606 10.0609C148.458 10.2103 148.309 10.4593 148.16 10.6087C147.913 10.8577 147.566 11.1564 147.219 11.3058C147.12 11.3563 146.972 11.3563 146.873 11.4054C146.576 11.505 146.378 11.6046 146.179 11.8038C145.833 12.1025 145.486 12.5009 145.189 12.8495C145.139 12.9491 145.04 13.0487 144.941 13.1483L146.477 14.3434C147.665 12.8993 149.002 11.5548 149.993 8.96542C149.993 8.96542 149.646 11.8536 147.17 14.8407C145.635 16.6831 144.347 17.6292 144.149 17.8284C144.149 17.8284 144.595 17.7288 144.941 17.8789C145.732 18.2274 146.179 19.3727 146.525 20.2193C146.773 20.8168 147.07 21.4144 147.317 22.0119C148.109 21.8127 148.654 21.4642 149.199 21.016C149.793 20.518 150.289 19.8707 150.784 19.3229C151.725 18.2274 152.914 16.6838 154.3 17.3809C154.548 17.4805 154.796 17.6797 154.994 17.8291C155.291 18.078 155.489 18.2772 155.785 18.5262C156.281 18.9246 156.528 19.2731 156.924 19.4723C155.835 17.2813 155.092 15.1401 154.3 12.9491L154.303 12.9497Z" fill="#268CDD"/>
<path d="M83.8836 17.3214L95.6665 17.2883L91.8842 13.811C91.1007 13.0381 91.078 11.8755 91.7032 11.0986C92.4566 10.3214 93.6092 10.3182 94.3903 10.9619L101.824 17.7878C101.849 17.8123 102.064 18.03 102.181 18.2067C102.371 18.5007 102.485 18.844 102.492 19.207C102.502 19.7237 102.288 20.2087 101.942 20.565L101.88 20.6297L94.7129 27.4966C94.3363 27.8852 93.8265 28.0158 93.4423 28.0169C92.93 28.0183 92.4126 27.7614 92.0209 27.375C91.2373 26.6021 91.3402 25.3099 92.096 24.6619L95.7421 21.1637L83.9593 21.1967C82.9347 21.1996 82.0205 20.2979 82.0003 19.2644C81.9802 18.231 82.859 17.3243 83.8836 17.3214Z" fill="#888888"/>
<circle cx="77" cy="19.4961" r="2" fill="#7D7D7D"/>
<circle cx="70" cy="19.4961" r="2" fill="#616161"/>
</svg>
