<svg width="16" height="16" viewBox="0 0 16 16" fill="none" xmlns="http://www.w3.org/2000/svg">
<path d="M0.5 1.5C0.5 0.947716 0.947715 0.5 1.5 0.5H13.5C14.0523 0.5 14.5 0.947715 14.5 1.5V13.5C14.5 14.0523 14.0523 14.5 13.5 14.5H1.5C0.947716 14.5 0.5 14.0523 0.5 13.5V1.5Z" fill="var(--mw-icon-background-default-selection, #B4DEFF)" stroke="var(--mw-icon-border-default-blue, #1656A7)"/>
<path d="M8 11L8 4L9 4L9 11H8Z" fill="var(--mw-icon-glyph-content-blue, #1656A8)"/>
<path d="M12 5L9 5V4L12 4V5Z" fill="var(--mw-icon-glyph-content-blue, #1656A8)"/>
<path d="M12 11H9L9 10L12 10V11Z" fill="var(--mw-icon-glyph-content-blue, #1656A8)"/>
<path d="M13 5V10L12 10V5H13Z" fill="var(--mw-icon-glyph-content-blue, #1656A8)"/>
<path d="M3 4H6V5H3V4Z" fill="var(--mw-icon-glyph-content-blue, #1656A8)"/>
<path d="M2 5H3V6H2V5Z" fill="var(--mw-icon-glyph-content-blue, #1656A8)"/>
<path d="M4 7H5V6H6V7H5V8H4V7Z" fill="var(--mw-icon-glyph-content-blue, #1656A8)"/>
<path d="M3 8H4V9H3V8Z" fill="var(--mw-icon-glyph-content-blue, #1656A8)"/>
<path d="M2 9H3L3 10H2V9Z" fill="var(--mw-icon-glyph-content-blue, #1656A8)"/>
<path d="M6 7V5H7V6H6V7Z" fill="var(--mw-icon-glyph-content-blue, #1656A8)"/>
<path d="M7 11L2 11L2 10L7 10V11Z" fill="var(--mw-icon-glyph-content-blue, #1656A8)"/>
</svg>
