<svg width="16" height="16" viewBox="0 0 16 16" fill="none" xmlns="http://www.w3.org/2000/svg">
<rect width="16" height="16" rx="3" fill="var(--mw-icon-background-default-white, #FFFFFF)"/>
<path d="M10.1786 9.01577L10.325 8.72064L10.6177 9.01577L10.4713 9.3109H10.1786V9.01577Z" fill="#BFBFBF" stroke="#BFBFBF" stroke-width="0.5" stroke-linecap="round" stroke-linejoin="round"/>
<path d="M9.59307 3.26073C9.10515 3.06398 7.77801 2.78852 6.3728 3.26073" stroke="#BFBFBF" stroke-width="0.5" stroke-linecap="round" stroke-linejoin="round"/>
<path d="M12.3742 10.1963C12.3742 10.4324 12.6669 9.70442 12.8133 9.31091L11.7887 8.1304L10.6176 7.98283L9.88577 7.09744H8.12926L7.251 7.83527L7.10463 9.90117L5.34812 10.4914H4.90899L4.32349 9.90117L4.61624 9.16335H4.03073L3.73798 9.31091L3.44523 9.01578L3.0061 7.98283V8.1304C3.0061 8.95676 3.34765 9.75361 3.44523 9.90117L4.17711 10.1963L4.61624 10.639L4.32349 11.2293L4.46986 11.5244L4.76261 11.6719L5.49449 12.2622L5.78725 12.1146V11.6719L5.34812 11.5244L5.20174 11.2293L5.49449 11.0817H6.08L6.22637 10.4914L6.6655 10.7866L7.54376 10.3439L7.83651 10.1963L8.12926 9.90117L8.71476 9.75361L8.86114 9.16335V8.72065L8.71476 8.42552V7.83527H9.15389L9.30027 8.1304L9.88577 8.27796L10.1785 8.42552L10.764 8.86822V9.75361L10.9104 9.90117H12.0814L12.2278 10.0487L12.3742 10.1963Z" fill="var(--mw-icon-border-disabled-gray, #888888)" stroke="var(--mw-icon-border-disabled-gray, #888888)" stroke-width="0.5" stroke-linecap="round" stroke-linejoin="round"/>
<path d="M11.935 5.6218L12.0814 5.17911C12.1923 5.29088 12.3994 5.67601 12.5039 5.88367L12.9597 7.24501C13.0768 8.30748 12.9109 9.06498 12.8133 9.31092L12.0814 7.09745L11.6423 6.35962L10.9104 5.91693V5.6218H11.2032H11.935Z" fill="var(--mw-icon-background-default-dark-gray, #A6A6A6)"/>
<path d="M12.5205 5.91693C12.5153 5.90646 12.5098 5.89534 12.5039 5.88367M12.5039 5.88367C12.3994 5.67601 12.1923 5.29088 12.0814 5.17911L11.935 5.6218H11.2032H10.9104V5.91693L11.6423 6.35962L12.0814 7.09745L12.8133 9.31092C12.9109 9.06498 13.0768 8.30748 12.9597 7.24501L12.5039 5.88367Z" stroke="var(--mw-icon-background-default-dark-gray, #A6A6A6)" stroke-width="0.5" stroke-linecap="round" stroke-linejoin="round"/>
<path d="M3.00617 7.98279C2.88906 6.09397 4.46992 4.44124 5.2018 3.85098L5.05543 4.44124H5.34818L5.64093 4.29368L6.51919 3.85098H7.69019L7.83657 4.44124L8.56845 5.17906L9.15395 4.58881H9.4467L9.73945 4.88394L10.0322 4.58881H10.7641V4.73637L10.4713 5.0315V5.32663L10.7641 5.62176V6.06445H11.2032L11.496 6.35958L11.6423 6.94984L12.9597 7.83523V8.13036L12.8133 8.42549V9.31087L12.2278 9.45844L12.3742 9.16331L11.496 8.13036H10.9105L10.6177 8.42549L10.325 8.13036H10.0322L9.88583 7.83523L9.59308 7.0974H9.15395L8.8612 7.39253H8.2757L7.83657 7.24497V7.68766L8.12932 7.83523L7.98294 8.13036L6.95831 8.27792L7.54382 8.72062V9.16331L7.25107 9.45844V10.0487L6.95831 10.4914H6.51919L6.08006 10.1963L5.64093 10.7865L5.34818 10.1963L5.2018 10.4914H4.6163L4.32355 10.1963V9.606L4.6163 9.31087V9.01575H4.0308V9.31087H3.73804L3.15254 8.72062V8.27792L3.00617 7.98279Z" fill="#7D7D7D" stroke="#7D7D7D" stroke-width="0.5" stroke-linecap="round" stroke-linejoin="round"/>
<path d="M6.51915 6.65473L5.49452 6.80229V7.24499L5.6409 7.98281L5.93365 8.13038L6.08002 7.98281L5.93365 7.68768L6.2264 7.54012L6.66553 7.24499V6.80229L6.51915 6.65473Z" fill="var(--mw-icon-border-disabled-gray, #888888)"/>
<path d="M4.46989 5.91691L4.32351 5.62178H4.17714L4.03076 5.76934L4.32351 6.06447L4.46989 5.91691Z" fill="var(--mw-icon-border-disabled-gray, #888888)"/>
<path d="M4.61627 7.09742L4.32351 7.24499V7.39255L4.46989 7.54012H4.76264V7.39255L4.61627 7.09742Z" fill="var(--mw-icon-border-disabled-gray, #888888)"/>
<path d="M7.83653 6.21204L7.69016 6.3596V6.50717H7.98291L8.27566 6.3596V6.21204L8.42204 5.91691L8.27566 5.62178V5.47421L7.98291 5.62178L7.83653 5.47421H7.69016L7.54378 5.62178V5.76934L7.83653 5.91691V6.21204Z" fill="var(--mw-icon-border-disabled-gray, #888888)"/>
<path d="M6.51915 6.65473L5.49452 6.80229V7.24499L5.6409 7.98281L5.93365 8.13038L6.08002 7.98281L5.93365 7.68768L6.2264 7.54012L6.66553 7.24499V6.80229L6.51915 6.65473Z" stroke="var(--mw-icon-border-disabled-gray, #888888)" stroke-width="0.5" stroke-linecap="round" stroke-linejoin="round"/>
<path d="M4.46989 5.91691L4.32351 5.62178H4.17714L4.03076 5.76934L4.32351 6.06447L4.46989 5.91691Z" stroke="var(--mw-icon-border-disabled-gray, #888888)" stroke-width="0.5" stroke-linecap="round" stroke-linejoin="round"/>
<path d="M4.61627 7.09742L4.32351 7.24499V7.39255L4.46989 7.54012H4.76264V7.39255L4.61627 7.09742Z" stroke="var(--mw-icon-border-disabled-gray, #888888)" stroke-width="0.5" stroke-linecap="round" stroke-linejoin="round"/>
<path d="M7.83653 6.21204L7.69016 6.3596V6.50717H7.98291L8.27566 6.3596V6.21204L8.42204 5.91691L8.27566 5.62178V5.47421L7.98291 5.62178L7.83653 5.47421H7.69016L7.54378 5.62178V5.76934L7.83653 5.91691V6.21204Z" stroke="var(--mw-icon-border-disabled-gray, #888888)" stroke-width="0.5" stroke-linecap="round" stroke-linejoin="round"/>
<path d="M11.4959 9.01575L11.2032 8.72062L11.0568 9.01575H10.7641V9.31088L11.0568 9.45845L11.2032 9.75357L11.4959 9.45845V9.01575Z" fill="#7D7D7D"/>
<path d="M9.44668 3.70342L9.15393 3.55586L9.30031 3.40829H9.88581V3.55586L9.73943 3.70342H9.44668Z" fill="#7D7D7D"/>
<path d="M11.4959 9.01575L11.2032 8.72062L11.0568 9.01575H10.7641V9.31088L11.0568 9.45845L11.2032 9.75357L11.4959 9.45845V9.01575Z" stroke="#7D7D7D" stroke-width="0.5" stroke-linecap="round" stroke-linejoin="round"/>
<path d="M9.44668 3.70342L9.15393 3.55586L9.30031 3.40829H9.88581V3.55586L9.73943 3.70342H9.44668Z" stroke="#7D7D7D" stroke-width="0.5" stroke-linecap="round" stroke-linejoin="round"/>
<path d="M12.5207 5.9169C12.872 6.74326 12.9598 7.19579 12.9598 7.39255L12.5207 7.09742V6.80229L12.3743 6.65472L12.2279 6.06447L12.5207 5.9169Z" fill="#7D7D7D" stroke="#7D7D7D" stroke-width="0.5" stroke-linecap="round" stroke-linejoin="round"/>
<path d="M10.9104 4.88396L10.6177 5.17909L10.9104 5.47422L11.4959 5.76935C11.7399 5.76935 12.1107 5.47422 12.2278 5.47422C12.3449 5.47422 11.7887 4.78558 11.6423 4.58883L11.4959 4.7364L10.9104 4.2937V4.88396Z" fill="var(--mw-icon-background-default-dark-gray, #A6A6A6)"/>
<path d="M11.7887 6.8023L12.0814 6.94986L12.2278 6.8023V6.50717L11.9351 6.21204L11.7887 6.50717V6.8023Z" fill="var(--mw-icon-background-default-dark-gray, #A6A6A6)"/>
<path d="M10.9104 4.88396L10.6177 5.17909L10.9104 5.47422L11.4959 5.76935C11.7399 5.76935 12.1107 5.47422 12.2278 5.47422C12.3449 5.47422 11.7887 4.78558 11.6423 4.58883L11.4959 4.7364L10.9104 4.2937V4.88396Z" stroke="var(--mw-icon-background-default-dark-gray, #A6A6A6)" stroke-width="0.5" stroke-linecap="round" stroke-linejoin="round"/>
<path d="M11.7887 6.8023L12.0814 6.94986L12.2278 6.8023V6.50717L11.9351 6.21204L11.7887 6.50717V6.8023Z" stroke="var(--mw-icon-background-default-dark-gray, #A6A6A6)" stroke-width="0.5" stroke-linecap="round" stroke-linejoin="round"/>
<path d="M5.20178 3.85102C5.67019 3.49686 6.17762 3.30995 6.37279 3.26076L6.66554 3.40832C7.98292 3.1132 8.69233 3.34037 9.15393 3.40832L8.86118 3.55589L9.00756 3.70345L9.44668 3.99858L9.88581 3.85102L10.0322 3.55589L9.59306 3.26076C10.4713 3.55589 11.3984 4.34289 11.6423 4.58883L11.3496 4.44128L10.7641 4.14615L10.6177 4.44128H10.0322L9.73943 4.58884L9.59306 4.44128H9.15393L8.7148 4.88397L8.42205 4.73641L7.98292 4.29371L7.69017 3.70345H6.37279L5.34816 4.29371L5.20178 4.14615V3.85102Z" fill="var(--mw-icon-border-disabled-gray, #888888)" stroke="var(--mw-icon-border-disabled-gray, #888888)" stroke-width="0.5" stroke-linecap="round" stroke-linejoin="round"/>
<path d="M10.6178 12.2622C9.91515 12.7344 8.86125 12.9508 8.42212 13L9.00762 12.7049L9.44675 12.4097L9.154 12.1146L9.44675 11.8195L9.7395 12.1146L10.6178 12.2622Z" fill="var(--mw-icon-background-default-dark-gray, #A6A6A6)" stroke="var(--mw-icon-background-default-dark-gray, #A6A6A6)" stroke-width="0.5" stroke-linecap="round" stroke-linejoin="round"/>
<path d="M7.98295 13C5.64094 13 4.0308 11.3768 3.59167 10.3438L4.32355 10.7865V11.2292L5.64094 12.2622L5.93369 12.1146V11.6719L5.49456 11.3768V11.2292H6.08006L6.37282 10.7865L6.81194 10.639L7.83658 10.0487L8.56845 9.75356L8.71483 9.31087L8.86121 9.01574L9.00758 8.57305L8.86121 8.27792V7.98279H9.15396L9.30033 8.13035L10.1786 8.57305L9.88584 9.01574V9.31087L10.0322 9.45843H10.325H10.4713H10.6177V9.75356L10.7641 10.0487L11.0568 10.1963L11.496 10.0487V10.3438V10.639L10.7641 11.0816L10.4713 11.2292L10.325 11.3768H10.1786L10.0322 11.2292V10.9341H9.59309L9.15396 10.7865L8.86121 10.639L9.15396 10.3438V10.0487L9.00758 9.90113H8.71483H8.2757L6.51919 10.9341L6.37282 11.967L6.22644 12.2622V12.5573L7.98295 13Z" fill="var(--mw-icon-background-default-dark-gray, #A6A6A6)" stroke="var(--mw-icon-background-default-dark-gray, #A6A6A6)" stroke-width="0.5" stroke-linecap="round" stroke-linejoin="round"/>
<path d="M12.3743 10.3438C11.7888 11.4063 10.9105 12.1146 10.6177 12.2622L9.88586 11.967L9.59311 11.6719H9.30036L9.00761 11.967V12.1146L9.30036 12.4097L9.15399 12.5573H8.71486V12.8524L8.42211 13C7.3682 13 7.00714 12.9016 6.95835 12.8524L6.37284 12.4097L6.51922 12.1146L6.6656 11.6719V10.9341L7.2511 10.4914H7.54385L7.98298 10.3438L8.42211 10.0487H8.71486H9.00761V10.3438L8.71486 10.4914V10.7865L9.15399 11.0816H9.88586V11.3768L10.0322 11.5243L10.325 11.6719L10.6177 11.3768L11.0569 11.2292L11.6424 10.6389V10.1962H12.2279L12.3743 10.3438Z" fill="#BFBFBF"/>
<path d="M3.88445 10.7865C3.73808 10.7865 3.44533 10.0487 3.29895 9.60599L3.73808 10.0487L4.03083 10.3438L4.32358 10.6389L4.17721 10.7865H3.88445Z" fill="#BFBFBF"/>
<path d="M10.4714 10.0487L10.325 9.90112L10.1786 10.0487L10.4714 10.1962V10.0487Z" fill="#BFBFBF"/>
<path d="M12.3743 10.3438C11.7888 11.4063 10.9105 12.1146 10.6177 12.2622L9.88586 11.967L9.59311 11.6719H9.30036L9.00761 11.967V12.1146L9.30036 12.4097L9.15399 12.5573H8.71486V12.8524L8.42211 13C7.3682 13 7.00714 12.9016 6.95835 12.8524L6.37284 12.4097L6.51922 12.1146L6.6656 11.6719V10.9341L7.2511 10.4914H7.54385L7.98298 10.3438L8.42211 10.0487H8.71486H9.00761V10.3438L8.71486 10.4914V10.7865L9.15399 11.0816H9.88586V11.3768L10.0322 11.5243L10.325 11.6719L10.6177 11.3768L11.0569 11.2292L11.6424 10.6389V10.1962H12.2279L12.3743 10.3438Z" stroke="#BFBFBF" stroke-width="0.5" stroke-linecap="round" stroke-linejoin="round"/>
<path d="M3.88445 10.7865C3.73808 10.7865 3.44533 10.0487 3.29895 9.60599L3.73808 10.0487L4.03083 10.3438L4.32358 10.6389L4.17721 10.7865H3.88445Z" stroke="#BFBFBF" stroke-width="0.5" stroke-linecap="round" stroke-linejoin="round"/>
<path d="M10.4714 10.0487L10.325 9.90112L10.1786 10.0487L10.4714 10.1962V10.0487Z" stroke="#BFBFBF" stroke-width="0.5" stroke-linecap="round" stroke-linejoin="round"/>
<path d="M7.69021 10.7865L7.39746 10.9341V11.0817H7.54384L7.69021 10.9341V10.7865Z" stroke="var(--mw-icon-background-default-medium-gray, #D9D9D9)" stroke-width="0.5" stroke-linecap="round" stroke-linejoin="round"/>
<path d="M12.2279 10.4914L12.0815 10.7865V10.4914H12.2279Z" stroke="var(--mw-icon-background-default-medium-gray, #D9D9D9)" stroke-width="0.5" stroke-linecap="round" stroke-linejoin="round"/>
<path d="M5.5 5.5C5.5 5.5 6.05 4.5 8.5 4.5C10.95 4.5 12.5 5.72727 12.5 7C12.5 8.27273 10.7 8.5 10 8.5C10 8.5 8.05 8.5 7 8.5C5.95 8.5 4.5 9.54545 4.5 10.5C4.5 11.4545 8.5 11.5 8.5 11.5" stroke="var(--mw-icon-background-default-highlight, #FFE864)" stroke-linecap="round" stroke-linejoin="round"/>
<path d="M7 5.5C7 6.32843 6.32843 7 5.5 7C4.67157 7 4 6.32843 4 5.5C4 4.67157 4.67157 4 5.5 4C6.32843 4 7 4.67157 7 5.5Z" fill="var(--mw-icon-glyph-content-gray, #616162)"/>
<path d="M6 5.5C6 5.77614 5.77614 6 5.5 6C5.22386 6 5 5.77614 5 5.5C5 5.22386 5.22386 5 5.5 5C5.77614 5 6 5.22386 6 5.5Z" fill="var(--mw-icon-background-medium-blue, #83CAFF)"/>
<path d="M10 11.5C10 12.3284 9.32843 13 8.5 13C7.67157 13 7 12.3284 7 11.5C7 10.6716 7.67157 10 8.5 10C9.32843 10 10 10.6716 10 11.5Z" fill="var(--mw-icon-glyph-content-gray, #616162)"/>
<path d="M9 11.5C9 11.7761 8.77614 12 8.5 12C8.22386 12 8 11.7761 8 11.5C8 11.2239 8.22386 11 8.5 11C8.77614 11 9 11.2239 9 11.5Z" fill="#FFAB66"/>
<rect x="0.5" y="0.5" width="15" height="15" rx="2" stroke="var(--mw-icon-border-default-gray, #616161)"/>
</svg>
