<svg width="16" height="16" viewBox="0 0 16 16" fill="none" xmlns="http://www.w3.org/2000/svg">
<path d="M0.5 10.5V6.5L4.5 4.5L8.5 6.63333L4.5 8.5L8.5 10.5L4.5 12.5L0.5 10.5Z" fill="var(--mw-icon-background-light-yellow, #FFF5BC)"/>
<path d="M0.5 6.5V10.5L4.5 12.5M0.5 6.5L4.5 8.5M0.5 6.5L4.5 4.5L8.5 6.63333L4.5 8.5M4.5 12.5V8.5M4.5 12.5L8.5 10.5L4.5 8.5" stroke="#674C06" stroke-linejoin="round"/>
<path d="M10.5 9.5V5.5L6.5 3.5L10.5 1.5L14.5 3.5V7.5L10.5 9.5Z" fill="var(--mw-icon-background-default-medium-gray, #D9D9D9)"/>
<path d="M10.5 5.5V9.5L14.5 7.5V3.5M10.5 5.5L14.5 3.5M10.5 5.5L6.5 3.5L10.5 1.5L14.5 3.5" stroke="var(--mw-icon-border-default-gray, #616161)" stroke-linejoin="round"/>
<path d="M13.5 11.5L11 13" stroke="var(--mw-icon-object-primary, #616160)" stroke-linecap="square"/>
<path d="M11.9998 14L8.49988 14.5L10.4999 11.5L11.9998 14Z" fill="var(--mw-icon-object-primary, #616160)"/>
</svg>
