<svg width="16" height="16" viewBox="0 0 16 16" fill="none" xmlns="http://www.w3.org/2000/svg">
<path d="M0.5 13.5C0.5 14.0523 0.947715 14.5 1.5 14.5H13.5C14.0523 14.5 14.5 14.0523 14.5 13.5V1.5C14.5 0.947716 14.0523 0.5 13.5 0.5H1.5C0.947716 0.5 0.5 0.947716 0.5 1.5V13.5Z" fill="var(--mw-icon-background-default-white, #FFFFFF)" stroke="var(--mw-icon-border-default-gray, #616161)"/>
<path fill-rule="evenodd" clip-rule="evenodd" d="M2.77612 6.00012H6L5.83148 7.04659H3.56744L3.21574 7.90215C3.51852 7.66071 3.90006 7.53046 4.29281 7.53447C5.58969 7.53447 6.03663 8.38296 5.60434 9.57792C5.42649 10.0264 5.10229 10.407 4.68066 10.6621C4.25903 10.9172 3.76286 11.033 3.26703 10.9921C1.80163 10.9921 1.39132 10.285 1.52321 9.40115H2.77612C2.70285 9.74762 3.04722 10.0163 3.50882 10.0163C3.70877 10.0141 3.90331 9.95343 4.06682 9.84235C4.23032 9.73127 4.3551 9.57498 4.4247 9.39408C4.62253 8.84963 4.4247 8.41832 3.8019 8.41832C3.63936 8.40959 3.47706 8.43915 3.32899 8.50443C3.18093 8.56972 3.05153 8.66878 2.95197 8.79307H1.78698L2.77612 6.00012Z" fill="black"/>
<path fill-rule="evenodd" clip-rule="evenodd" d="M8.45249 10.5317V10.8932H9.14189L9.4833 8.80223H8.03886L7.90755 9.61027H8.38684C8.33132 9.74507 8.23823 9.85781 8.12053 9.93278C8.00284 10.0077 7.86641 10.0412 7.73027 10.0285C7.21159 10.0285 7.04088 9.57483 7.13936 8.99361C7.23785 8.41239 7.50047 7.95875 8.00603 7.95875C8.06526 7.95254 8.12504 7.96021 8.18128 7.98122C8.23752 8.00224 8.2889 8.0361 8.3319 8.08051C8.37491 8.12492 8.40853 8.17883 8.43048 8.23855C8.45242 8.29827 8.46217 8.3624 8.45906 8.42656H9.49643C9.51023 8.23166 9.48392 8.03588 9.41939 7.85324C9.35487 7.6706 9.25372 7.50563 9.12321 7.37015C8.99269 7.23467 8.83603 7.13203 8.66446 7.06958C8.49288 7.00713 8.31063 6.98643 8.13078 7.00895C7.56703 7.02473 7.03167 7.27934 6.64037 7.71776C6.32717 8.06964 6.11706 8.51344 6.03633 8.99361C5.86563 10.0426 6.2924 10.9995 7.40199 10.9995C7.59986 11.0053 7.79684 10.9688 7.98162 10.8922C8.1664 10.8155 8.33534 10.7003 8.47876 10.553" fill="black"/>
<path fill-rule="evenodd" clip-rule="evenodd" d="M6.49988 6.45809C7.0891 5.91041 7.88583 5.56971 8.74096 5.49976C9.38687 5.51953 10.0064 5.72919 10.4999 6.09499L9.82076 6.49976C9.34779 6.12748 8.73814 5.91627 8.10259 5.90452C7.51349 5.92332 6.9508 6.12354 6.51346 6.46999" fill="#189143"/>
<path fill-rule="evenodd" clip-rule="evenodd" d="M6.99988 6C7.34935 5.55965 7.78429 5.19887 8.27702 4.94061C8.76975 4.68236 9.30945 4.5323 9.86176 4.5C10.6413 4.53124 11.3906 4.81797 11.9999 5.31818L11.0304 6C10.4453 5.48972 9.71223 5.19246 8.94543 5.15455C8.21578 5.17196 7.52003 5.4743 6.99988 6Z" fill="#189143"/>
<path fill-rule="evenodd" clip-rule="evenodd" d="M7 5.50012C7.47669 4.89814 8.11241 4.40281 8.85461 4.05508C9.59681 3.70735 10.4242 3.51721 11.2683 3.50038C12.2462 3.49082 13.2024 3.74895 14 4.23775L12.4839 5.0872C11.7307 4.58321 10.8074 4.30564 9.85463 4.29674C9.3101 4.31158 8.77509 4.42413 8.28364 4.62725C7.79218 4.83036 7.35504 5.11958 7 5.47653" fill="#189143"/>
</svg>
