<svg width="16" height="16" viewBox="0 0 16 16" fill="none" xmlns="http://www.w3.org/2000/svg">
<path d="M0.5 12.5V2.5C0.5 1.39543 1.39543 0.5 2.5 0.5H12.5C13.6046 0.5 14.5 1.39543 14.5 2.5V12.5C14.5 13.6046 13.6046 14.5 12.5 14.5H2.5C1.39543 14.5 0.5 13.6046 0.5 12.5Z" fill="#EDB120"/>
<path d="M0.5 12.5V2.5C0.5 1.39543 1.39543 0.5 2.5 0.5H12.5C13.6046 0.5 14.5 1.39543 14.5 2.5V12.5C14.5 13.6046 13.6046 14.5 12.5 14.5H2.5C1.39543 14.5 0.5 13.6046 0.5 12.5Z" stroke="var(--mw-icon-border-default-gray, #616161)" stroke-linecap="round"/>
<path d="M2.5 11.5L6.5 5.5L9.5 8.5L12.5 3.5" stroke="var(--mw-icon-background-default-white, #FFFFFF)" stroke-miterlimit="10" stroke-linecap="square"/>
</svg>
