<svg width="16" height="16" viewBox="0 0 16 16" fill="none" xmlns="http://www.w3.org/2000/svg">
<rect x="0.5" y="0.5" width="14" height="14" rx="1" fill="var(--mw-icon-background-default-white, #FFFFFF)"/>
<rect x="0.5" y="0.5" width="14" height="14" rx="1" stroke="var(--mw-icon-border-default-gray, #616161)"/>
<path d="M1 4.5H14" stroke="#FF6929"/>
<path d="M1 8.5H14" stroke="var(--mw-icon-glyph-content-gray, #616162)"/>
<path d="M5 3.5C5 4.32843 4.32843 5 3.5 5C2.67157 5 2 4.32843 2 3.5C2 2.67157 2.67157 2 3.5 2C4.32843 2 5 2.67157 5 3.5Z" fill="#139FFF"/>
<path d="M9 4.5C9 5.32843 8.32843 6 7.5 6C6.67157 6 6 5.32843 6 4.5C6 3.67157 6.67157 3 7.5 3C8.32843 3 9 3.67157 9 4.5Z" fill="#139FFF"/>
<path d="M13 5.5C13 6.32843 12.3284 7 11.5 7C10.6716 7 10 6.32843 10 5.5C10 4.67157 10.6716 4 11.5 4C12.3284 4 13 4.67157 13 5.5Z" fill="#139FFF"/>
<path d="M8.5 10.5H8C7.72386 10.5 7.5 10.7239 7.5 11V12C7.5 12.2761 7.72386 12.5 8 12.5H8.5M10.5 12V10.5H11.5M10.5 12V12.5M10.5 12L11.5 11.5M3.5 12.5L4.5 10.5L5.5 12.5" stroke="var(--mw-icon-glyph-content-dark-gray, #333333)" stroke-linecap="round" stroke-linejoin="round"/>
</svg>
