<svg width="16" height="16" viewBox="0 0 16 16" fill="none" xmlns="http://www.w3.org/2000/svg">
<path d="M0.5 12.5V2.5C0.5 1.39543 1.39543 0.5 2.5 0.5H12.5C13.6046 0.5 14.5 1.39543 14.5 2.5V12.5C14.5 13.6046 13.6046 14.5 12.5 14.5H2.5C1.39543 14.5 0.5 13.6046 0.5 12.5Z" fill="var(--mw-icon-background-default-white, #FFFFFF)"/>
<rect x="2.50814" y="2.4917" width="10" height="10" rx="1" transform="rotate(-0.186793 2.50814 2.4917)" fill="var(--mw-icon-background-default-medium-gray, #D9D9D9)" stroke="var(--mw-icon-glyph-content-dark-gray, #333333)" stroke-linejoin="round"/>
<circle cx="10.5146" cy="4.46565" r="0.5" transform="rotate(-0.186793 10.5146 4.46565)" fill="var(--mw-icon-glyph-content-red, #902623)"/>
<path d="M11.0244 7.46398C11.0307 9.39696 9.46881 10.9691 7.53582 10.9754C5.60284 10.9817 4.03073 9.41978 4.02443 7.4868C4.01813 5.55381 5.58001 3.98171 7.513 3.97541C9.44599 3.9691 11.0181 5.53099 11.0244 7.46398Z" fill="#7D7D7D"/>
<path d="M10.0244 7.46708C10.0289 8.84779 8.91327 9.97072 7.53256 9.97522C6.15186 9.97972 5.02893 8.86409 5.02442 7.48339C5.01992 6.10268 6.13556 4.97975 7.51626 4.97525C8.89696 4.97075 10.0199 6.08638 10.0244 7.46708Z" fill="var(--mw-icon-glyph-content-dark-gray, #333333)"/>
<circle cx="6.52115" cy="6.47884" r="0.5" transform="rotate(-0.186793 6.52115 6.47884)" fill="var(--mw-icon-background-default-medium-gray, #D9D9D9)"/>
<path d="M0.5 12.5V2.5C0.5 1.39543 1.39543 0.5 2.5 0.5H12.5C13.6046 0.5 14.5 1.39543 14.5 2.5V12.5C14.5 13.6046 13.6046 14.5 12.5 14.5H2.5C1.39543 14.5 0.5 13.6046 0.5 12.5Z" stroke="var(--mw-icon-border-default-gray, #616161)" stroke-linecap="round"/>
</svg>
