<svg width="16" height="16" viewBox="0 0 16 16" fill="none" xmlns="http://www.w3.org/2000/svg">
<path d="M1 1H15V15H1V1Z" fill="var(--mw-icon-background-default-white, #FFFFFF)"/>
<path d="M0.5 12.8111C0.5 8.94444 4.68889 2.5 15 2.5" stroke="var(--mw-icon-glyph-content-gray, #616162)"/>
<path d="M7.81817 7.42131H6.88963L6.72574 8.15981H7.62234L6.81275 11.9684C6.70156 12.4829 6.57256 12.8478 6.43245 13.079C6.31676 13.27 6.21182 13.3427 6.12301 13.3622C6.147 13.3135 6.17535 13.2412 6.17535 13.1465C6.17535 12.9918 6.1185 12.8458 6.00954 12.7384C5.90033 12.6308 5.75106 12.5738 5.58767 12.5738C5.24541 12.5738 5 12.8722 5 13.1949C5 13.7034 5.48865 14 5.99054 14C6.52697 14 6.97337 13.7106 7.32834 13.2113C7.67972 12.7171 7.95556 12.0003 8.16465 11.0925L8.8341 8.15981H9.86709L9.88467 8.2522L10.2839 8.1429C10.467 8.09546 10.5623 8.08232 10.6119 8.08232C10.6657 8.08232 10.6847 8.08726 10.6909 8.08961L10.6927 8.09053C10.6927 8.09053 10.697 8.09403 10.7035 8.10318C10.7182 8.12395 10.7394 8.16506 10.7665 8.24627C10.793 8.32584 10.8214 8.43268 10.8554 8.576L11.1086 9.68125L10.3586 10.727C10.2596 10.8664 10.1702 10.9731 10.0977 11.0426C10.0617 11.077 10.0346 11.0978 10.0166 11.1088C10.0091 11.1071 9.99889 11.1045 9.98607 11.1003C9.95689 11.0907 9.92199 11.0752 9.8859 11.0539L9.87716 11.0492C9.74769 10.9805 9.60824 10.9177 9.46227 10.9177C9.13438 10.9177 8.9139 11.182 8.9139 11.4806C8.9139 11.6639 8.98423 11.8286 9.12289 11.9435C9.25676 12.0544 9.43315 12.1017 9.61948 12.1017C9.79921 12.1017 9.96964 12.0745 10.1564 11.9512C10.3296 11.8369 10.5055 11.6467 10.7244 11.3574L11.318 10.5661L11.4945 11.2798C11.5549 11.5278 11.6307 11.7356 11.7573 11.8806C11.8981 12.0418 12.0786 12.1017 12.2823 12.1017C12.5292 12.1017 12.7367 12.0188 12.953 11.82C13.1567 11.6328 13.3758 11.336 13.6605 10.9006L13.7831 10.713L13.2838 10.4176L13.1673 10.5611C13.1146 10.6261 13.076 10.6781 13.0328 10.7362C13.0099 10.767 12.9857 10.7996 12.9575 10.8367C12.8449 10.9814 12.7734 11.062 12.7209 11.1067C12.6962 11.1276 12.6817 11.1354 12.6751 11.1382L12.6718 11.1395C12.67 11.1375 12.6678 11.1348 12.6652 11.1312C12.6421 11.0996 12.611 11.0329 12.5788 10.906L12.2646 9.60935L12.264 9.60712C12.2219 9.44115 12.2031 9.33585 12.1959 9.27527C12.3958 8.93481 12.5742 8.67208 12.7204 8.49462C12.7979 8.40057 12.8614 8.33652 12.9099 8.29791C12.9337 8.27892 12.9487 8.27032 12.9556 8.26672C13.0089 8.26951 13.0487 8.28773 13.1114 8.32219L13.1275 8.33118C13.194 8.36835 13.3059 8.43099 13.4516 8.43099C13.6049 8.43099 13.7456 8.37324 13.8473 8.26663C13.9484 8.16076 14 8.01867 14 7.86804C14 7.7019 13.9332 7.55321 13.8146 7.44839C13.6981 7.34542 13.5442 7.2954 13.3828 7.2954C13.0961 7.2954 12.8472 7.41606 12.5901 7.65731C12.4124 7.82408 12.2227 8.05598 12.0045 8.36196L11.9909 8.29833C11.9224 7.97054 11.8529 7.72826 11.7537 7.56698C11.7011 7.48131 11.6346 7.40891 11.5471 7.36008C11.4592 7.31109 11.3674 7.2954 11.2801 7.2954C11.015 7.2954 10.6608 7.37461 10.0581 7.58884L10.0069 7.6072L10.0423 7.42131H8.99224C9.12078 6.79622 9.26221 6.35176 9.42034 6.05964C9.57662 5.77094 9.72782 5.66593 9.87386 5.64553C9.85203 5.69956 9.8344 5.76766 9.8344 5.85351C9.8344 6.21443 10.1274 6.44552 10.4122 6.44552C10.7633 6.44552 11.0392 6.13935 11.0392 5.81477C11.0392 5.55785 10.903 5.34726 10.7065 5.20866C10.5125 5.07185 10.2558 5 9.9799 5C9.28566 5 8.82569 5.38746 8.50815 5.83599C8.18646 6.2877 8.01173 6.80774 7.81817 7.42131Z" fill="var(--mw-icon-glyph-content-gray, #616162)"/>
<path d="M0.5 1.5C0.5 0.947715 0.947715 0.5 1.5 0.5H14.5C15.0523 0.5 15.5 0.947715 15.5 1.5V14.5C15.5 15.0523 15.0523 15.5 14.5 15.5H1.5C0.947715 15.5 0.5 15.0523 0.5 14.5V1.5Z" stroke="var(--mw-icon-border-default-gray, #616161)" stroke-linejoin="round"/>
</svg>
