<svg width="16" height="16" viewBox="0 0 16 16" fill="none" xmlns="http://www.w3.org/2000/svg">
<path d="M11.5 0.5H1.5C0.947715 0.5 0.5 0.947715 0.5 1.5V11.5C0.5 12.0523 0.947715 12.5 1.5 12.5H11.5C12.0523 12.5 12.5 12.0523 12.5 11.5V1.5C12.5 0.947715 12.0523 0.5 11.5 0.5Z" fill="var(--mw-icon-background-default-white, #FFFFFF)" stroke="var(--mw-icon-border-default-gray, #616161)" stroke-linecap="round"/>
<path d="M8.5 7.5C7.96957 8.14029 7.25015 8.5 6.5 8.5C5.74985 8.5 5 8 4.5 7.5M10.5 8.5C9.57174 9.78058 7.81275 10.5 6.5 10.5C5.18725 10.5 3.42826 9.78058 2.5 8.5" stroke="var(--mw-icon-glyph-content-gray, #616162)" stroke-linecap="square"/>
<path fill-rule="evenodd" clip-rule="evenodd" d="M8.80903 2H4.19099L3.19099 4H3.18797C2.56751 4 2.09681 4.55917 2.20263 5.17054C2.27466 5.58675 2.59769 5.90551 2.99999 5.98227V6.5C2.99999 6.77614 3.22385 7 3.49999 7C3.77613 7 3.99999 6.77614 3.99999 6.5V6L8.99999 6V6.5C8.99999 6.77614 9.22385 7 9.49999 7C9.77613 7 9.99999 6.77614 9.99999 6.5V5.98229C10.4023 5.90555 10.7254 5.58676 10.7974 5.17052C10.9032 4.55915 10.4325 4 9.81207 4H9.80903L8.80903 2ZM8.69099 4L8.19099 3H4.80903L4.30902 4L8.69099 4Z" fill="var(--mw-icon-glyph-content-gray, #616162)"/>
<rect width="10" height="10" rx="5" transform="matrix(-1 0 0 1 15.5 5.5)" fill="var(--mw-icon-background-default-action, #CBFFBE)" stroke="var(--mw-icon-border-default-green, #008013)"/>
<path d="M13.5 10.5H7.5M10.5 7.5V13.5" stroke="var(--mw-icon-glyph-content-dark-green, #02580E)" stroke-linecap="square"/>
</svg>
