<svg width="16" height="16" viewBox="0 0 16 16" fill="none" xmlns="http://www.w3.org/2000/svg">
<path d="M0.5 2.5C0.5 1.39543 1.39543 0.5 2.5 0.5H12.5C13.6046 0.5 14.5 1.39543 14.5 2.5V9.5C14.5 10.6046 13.6046 11.5 12.5 11.5H2.5C1.39543 11.5 0.5 10.6046 0.5 9.5V2.5Z" fill="var(--mw-icon-background-default-selection, #B4DEFF)" stroke="var(--mw-icon-border-default-blue, #1656A7)"/>
<path d="M3.55731 2.37106C4.40498 2.09736 4.89244 2 5.25085 2C5.36389 2 5.47851 2.0184 5.58683 2.07328C5.69486 2.12801 5.77914 2.21017 5.84794 2.31185C5.97923 2.50589 6.075 2.80404 6.17159 3.22402L6.2301 3.4728C6.58258 3.01295 6.87914 2.67593 7.15264 2.4428C7.50471 2.14269 7.8361 2 8.21296 2C8.42361 2 8.61992 2.05922 8.76666 2.177C8.91555 2.29651 9 2.46613 9 2.6579C9 2.83356 8.93396 2.9962 8.80775 3.11625C8.68081 3.237 8.50458 3.30342 8.30985 3.30342C8.12698 3.30342 7.98704 3.23255 7.89277 3.18482L7.87021 3.17345C7.77134 3.12411 7.69811 3.09275 7.59009 3.09275L7.59439 3.0928C7.59439 3.0928 7.56379 3.09998 7.49544 3.14943C7.42089 3.20336 7.32723 3.28968 7.21623 3.41205C7.00308 3.64702 6.74456 3.99414 6.45618 4.44187C6.4645 4.52158 6.49151 4.6664 6.55713 4.90141L6.55771 4.90348L7.00007 6.56194L7.00035 6.56296C7.04661 6.72834 7.09354 6.82507 7.13565 6.87726C7.16983 6.91964 7.18821 6.91964 7.20244 6.91964C7.22461 6.91964 7.25918 6.9162 7.33374 6.85866C7.41494 6.79599 7.52027 6.68717 7.67909 6.50176C7.72027 6.45258 7.75488 6.41025 7.78731 6.37058L7.78733 6.37056C7.84739 6.2971 7.90002 6.23272 7.9733 6.15072L8.09258 6.01723L8.66078 6.32245L8.53512 6.49703C8.13401 7.05426 7.83026 7.42683 7.55178 7.6593C7.26033 7.90259 6.98731 8 6.6627 8C6.3936 8 6.16425 7.92908 5.98517 7.74275C5.82051 7.57143 5.71735 7.32064 5.63282 7.00541L5.34257 5.93912L4.40218 7.07761C4.09489 7.44649 3.85434 7.68092 3.62254 7.81987C3.37699 7.96706 3.15425 8 2.91161 8C2.66221 8 2.43431 7.94245 2.2646 7.81473C2.08998 7.68332 2 7.49457 2 7.28013C2 6.93469 2.27873 6.63462 2.69015 6.63462C2.87367 6.63462 3.05428 6.7066 3.236 6.7942L3.24495 6.79852C3.3008 6.82852 3.35543 6.85055 3.40231 6.86454C3.44215 6.87643 3.47008 6.88081 3.48475 6.88205C3.48944 6.88034 3.49862 6.87657 3.51277 6.86878C3.54497 6.85104 3.58837 6.82045 3.64219 6.77364C3.74951 6.68031 3.87888 6.53955 4.0199 6.3592L5.0978 4.99405L4.7327 3.5465C4.68472 3.36244 4.644 3.22331 4.60547 3.11822C4.56638 3.0116 4.53342 2.95096 4.50586 2.91558C4.48232 2.88536 4.46546 2.87678 4.45007 2.87148C4.42713 2.86359 4.38835 2.8573 4.30962 2.8573C4.22862 2.8573 4.08566 2.87628 3.82632 2.93733L3.34939 3.05594L3.34958 2.43869L3.55731 2.37106Z" fill="var(--mw-icon-border-default-blue, #1656A7)"/>
<rect width="10" height="10" rx="5" transform="matrix(-1 0 0 1 15.5 5.5)" fill="var(--mw-icon-background-default-action, #CBFFBE)" stroke="var(--mw-icon-border-default-green, #008013)"/>
<path d="M13.5 10.5H7.5M10.5 7.5V13.5" stroke="var(--mw-icon-glyph-content-dark-green, #02580E)" stroke-linecap="square"/>
</svg>
