<svg width="16" height="16" viewBox="0 0 16 16" fill="none" xmlns="http://www.w3.org/2000/svg">
<path d="M0.5 2.5C0.5 1.39543 1.39543 0.5 2.5 0.5H10.5C11.6046 0.5 12.5 1.39543 12.5 2.5V10.5C12.5 11.6046 11.6046 12.5 10.5 12.5H2.5C1.39543 12.5 0.5 11.6046 0.5 10.5V2.5Z" fill="#F5FAFF" stroke="var(--mw-icon-borderColor-light-blue, #268CDD)"/>
<path d="M6.5 4C6.5 3.09425 5.90575 2.5 5 2.5H2.5V9.5C2.5 9.5 4.5 9.5 5 9.5C5.5 9.5 6.5 10.0943 6.5 11M6.5 4V11V4ZM6.5 4C6.5 3.09425 7.09425 2.5 8 2.5H10.5V9.5H8C7.09425 9.5 6.5 10.0943 6.5 11" fill="var(--mw-icon-background-default-white, #FFFFFF)"/>
<path d="M6.5 4C6.5 3.09425 5.90575 2.5 5 2.5H2.5V9.5C2.5 9.5 4.5 9.5 5 9.5C5.5 9.5 6.5 10.0943 6.5 11M6.5 4V11M6.5 4C6.5 3.09425 7.09425 2.5 8 2.5H10.5V9.5H8C7.09425 9.5 6.5 10.0943 6.5 11" stroke="var(--mw-icon-glyph-content-gray, #616162)" stroke-linecap="square" stroke-linejoin="round"/>
<path d="M4 4H5V5H4V4Z" fill="var(--mw-icon-glyph-content-gray, #616162)"/>
<path d="M8 4H9V5H8V4Z" fill="var(--mw-icon-glyph-content-gray, #616162)"/>
<path d="M4 6H5V7H4V6Z" fill="var(--mw-icon-glyph-content-gray, #616162)"/>
<path d="M8 6H9V7H8V6Z" fill="var(--mw-icon-glyph-content-gray, #616162)"/>
<path d="M5.5 10.5C5.5 13.2614 7.73858 15.5 10.5 15.5C13.2614 15.5 15.5 13.2614 15.5 10.5C15.5 7.73858 13.2614 5.5 10.5 5.5C7.73858 5.5 5.5 7.73858 5.5 10.5Z" fill="var(--mw-icon-background-default-action, #CBFFBE)" stroke="var(--mw-icon-glyph-content-green, #008014)"/>
<path d="M13.5 10.5H7.5M10.5 7.5V13.5" stroke="var(--mw-icon-glyph-content-dark-green, #02580E)" stroke-linecap="square"/>
</svg>
