<svg width="16" height="16" viewBox="0 0 16 16" fill="none" xmlns="http://www.w3.org/2000/svg">
<path d="M6.5 10.8333C9.81371 10.8333 12.5 8.744 12.5 6.16667C12.5 3.58934 9.81371 1.5 6.5 1.5C3.18629 1.5 0.5 3.58934 0.5 6.16667C0.5 7.27801 0.666133 8.19851 1.5 9V12.5L3.83333 10.5C4.65598 10.8298 5.51073 10.8333 6.5 10.8333Z" fill="var(--mw-icon-background-default-white, #FFFFFF)"/>
<path d="M1.5 9H2V8.78707L1.84649 8.63952L1.5 9ZM3.83333 10.5L4.0194 10.0359L3.73807 9.92312L3.50794 10.1204L3.83333 10.5ZM1.5 12.5H1C1 12.6953 1.11367 12.8727 1.29107 12.9543C1.46847 13.0358 1.67714 13.0067 1.8254 12.8796L1.5 12.5ZM12 6.16667C12 8.35819 9.66179 10.3333 6.5 10.3333V11.3333C9.96563 11.3333 13 9.1298 13 6.16667H12ZM1 6.16667C1 3.97514 3.33821 2 6.5 2V1C3.03437 1 0 3.20354 0 6.16667H1ZM6.5 2C9.66179 2 12 3.97514 12 6.16667H13C13 3.20354 9.96563 1 6.5 1V2ZM1.84649 8.63952C1.15728 7.97707 1 7.22405 1 6.16667H0C0 7.33196 0.174987 8.41995 1.15351 9.36048L1.84649 8.63952ZM6.5 10.3333C5.49392 10.3333 4.73774 10.3239 4.0194 10.0359L3.64727 10.9641C4.57423 11.3357 5.52754 11.3333 6.5 11.3333V10.3333ZM1 9V12.5H2V9H1ZM1.8254 12.8796L4.15873 10.8796L3.50794 10.1204L1.1746 12.1204L1.8254 12.8796Z" fill="var(--mw-icon-border-default-gray, #616161)"/>
<circle cx="4" cy="6" r="1" fill="var(--mw-icon-border-default-gray, #616161)"/>
<circle cx="7" cy="6" r="1" fill="var(--mw-icon-border-default-gray, #616161)"/>
<circle cx="10" cy="6" r="1" fill="var(--mw-icon-border-default-gray, #616161)"/>
<rect width="10" height="10" rx="5" transform="matrix(1 0 0 -1 5.5 15.5)" fill="var(--mw-icon-background-default-action, #CBFFBE)" stroke="var(--mw-icon-glyph-content-green, #008014)"/>
<path d="M13.5 10.5H7.5M10.5 7.5V13.5" stroke="var(--mw-icon-glyph-content-dark-green, #02580E)" stroke-linecap="square"/>
</svg>
