<svg width="16" height="16" viewBox="0 0 16 16" fill="none" xmlns="http://www.w3.org/2000/svg">
<rect x="0.5" y="0.5" width="12" height="12" rx="1" fill="var(--mw-icon-background-default-white, #FFFFFF)"/>
<path d="M1 12C1 12 1.82977 10.5054 2.68182 9.22727C3.22727 8.40909 4.31818 7.59091 5.40909 7.59091C7.04545 7.59091 7.04545 7.59091 8.68182 7.59091C9.77273 7.59091 10.8636 5.95455 11.4091 4.59091C12.0232 3.05574 12.5 1.5 12.5 1.5" stroke="var(--mw-icon-glyph-content-light-blue, #278CDD)" stroke-linecap="round" stroke-linejoin="round"/>
<path d="M2 6C2 5.44772 2.44772 5 3 5C3.55228 5 4 5.44772 4 6C4 6.55228 3.55228 7 3 7C2.44772 7 2 6.55228 2 6Z" fill="var(--mw-icon-glyph-content-dark-gray, #333333)"/>
<path d="M4 10C4 9.44772 4.44772 9 5 9C5.55228 9 6 9.44772 6 10C6 10.5523 5.55228 11 5 11C4.44772 11 4 10.5523 4 10Z" fill="var(--mw-icon-glyph-content-dark-gray, #333333)"/>
<path d="M9 3C9 2.44772 9.44772 2 10 2C10.5523 2 11 2.44772 11 3C11 3.55228 10.5523 4 10 4C9.44772 4 9 3.55228 9 3Z" fill="var(--mw-icon-glyph-content-dark-gray, #333333)"/>
<path d="M6 5C6 4.44772 6.44772 4 7 4C7.55228 4 8 4.44772 8 5C8 5.55228 7.55228 6 7 6C6.44772 6 6 5.55228 6 5Z" fill="var(--mw-icon-glyph-content-dark-gray, #333333)"/>
<rect x="0.5" y="0.5" width="12" height="12" rx="1" stroke="var(--mw-icon-border-default-gray, #616161)"/>
<rect width="10" height="10" rx="5" transform="matrix(-1 0 0 1 15.5 5.5)" fill="var(--mw-icon-background-default-action, #CBFFBE)" stroke="var(--mw-icon-border-default-green, #008013)"/>
<path d="M13.5 10.5H7.5M10.5 7.5V13.5" stroke="var(--mw-icon-glyph-content-dark-green, #02580E)" stroke-linecap="square"/>
</svg>
