<svg width="16" height="16" viewBox="0 0 16 16" fill="none" xmlns="http://www.w3.org/2000/svg">
<path d="M11.5 0.5H1.5C0.947715 0.5 0.5 0.947715 0.5 1.5V11.5C0.5 12.0523 0.947715 12.5 1.5 12.5H11.5C12.0523 12.5 12.5 12.0523 12.5 11.5V1.5C12.5 0.947715 12.0523 0.5 11.5 0.5Z" fill="var(--mw-icon-background-default-white, #FFFFFF)" stroke="var(--mw-icon-border-default-gray, #616161)" stroke-linecap="round"/>
<path d="M9.5 4.5C10.0523 4.5 10.5 4.05228 10.5 3.5C10.5 2.94772 10.0523 2.5 9.5 2.5C8.94772 2.5 8.5 2.94772 8.5 3.5C8.5 4.05228 8.94772 4.5 9.5 4.5Z" fill="var(--mw-icon-glyph-content-gray, #616162)" stroke="var(--mw-icon-glyph-content-gray, #616162)"/>
<path d="M3.77273 10.5C2.51754 10.5 1.5 9.46681 1.5 8.19231C1.5 6.91781 2.51754 5.88462 3.77273 5.88462C4.06427 5.88462 4.34298 5.94035 4.5991 6.0419C5.10382 5.12214 6.07127 4.5 7.18182 4.5C8.74221 4.5 10.0201 5.72826 10.1289 7.28453C10.9035 7.39321 11.5 8.06818 11.5 8.88461C11.5 9.77676 10.7877 10.5 9.90909 10.5H3.77273Z" fill="var(--mw-icon-glyph-content-gray, #616162)" stroke="var(--mw-icon-background-default-white, #FFFFFF)"/>
<rect width="10" height="10" rx="5" transform="matrix(-1 0 0 1 15.5 5.5)" fill="var(--mw-icon-background-default-action, #CBFFBE)" stroke="var(--mw-icon-border-default-green, #008013)"/>
<path d="M13.5 10.5H7.5M10.5 7.5V13.5" stroke="var(--mw-icon-glyph-content-dark-green, #02580E)" stroke-linecap="square"/>
</svg>
