<svg width="16" height="16" viewBox="0 0 16 16" fill="none" xmlns="http://www.w3.org/2000/svg">
<path d="M0.5 1.5C0.5 0.947715 0.947715 0.5 1.5 0.5H11.5C12.0523 0.5 12.5 0.947715 12.5 1.5V11.5C12.5 12.0523 12.0523 12.5 11.5 12.5H1.5C0.947715 12.5 0.5 12.0523 0.5 11.5V1.5Z" fill="var(--mw-icon-background-default-white, #FFFFFF)" stroke="var(--mw-icon-glyph-content-gray, #616162)"/>
<path d="M5 11H4L6 5.5H7L9 11H8L6.5 6.5L5 11Z" fill="var(--mw-icon-glyph-content-gray, #616162)"/>
<circle cx="6.5" cy="4.5" r="1.5" fill="var(--mw-icon-glyph-content-gray, #616162)"/>
<path d="M9.5 2.5C9.5 2.5 10.5 3.23512 10.5 4.5C10.5 5.76488 9.5 6.5 9.5 6.5" stroke="var(--mw-icon-glyph-content-light-blue, #278CDD)" stroke-linecap="round"/>
<path d="M3.5 2.5C3.5 2.5 2.5 3.23512 2.5 4.5C2.5 5.76488 3.5 6.5 3.5 6.5" stroke="var(--mw-icon-glyph-content-light-blue, #278CDD)" stroke-linecap="round"/>
<path d="M5.5 10.5C5.5 13.2614 7.73858 15.5 10.5 15.5C13.2614 15.5 15.5 13.2614 15.5 10.5C15.5 7.73858 13.2614 5.5 10.5 5.5C7.73858 5.5 5.5 7.73858 5.5 10.5Z" fill="var(--mw-icon-background-default-action, #CBFFBE)" stroke="var(--mw-icon-glyph-content-green, #008014)"/>
<path d="M13.5 10.5H7.5M10.5 7.5V13.5" stroke="var(--mw-icon-glyph-content-dark-green, #02580E)" stroke-linecap="square"/>
</svg>
