<svg width="16" height="16" viewBox="0 0 16 16" fill="none" xmlns="http://www.w3.org/2000/svg">
<path d="M12.5 11.5V1.5C12.5 0.947715 12.0523 0.5 11.5 0.5H1.5C0.947715 0.5 0.5 0.947715 0.5 1.5V11.5C0.5 12.0523 0.947715 12.5 1.5 12.5H11.5C12.0523 12.5 12.5 12.0523 12.5 11.5Z" fill="var(--mw-icon-background-default-white, #FFFFFF)"/>
<path d="M12.5 6.92072C10.4769 2.35964 8.52315 2.35982 6.5 6.92089C4.83333 10.3778 2.52315 10.6176 0.5 6.0565" stroke="#0072BD" stroke-linecap="round"/>
<path d="M12.5 11.5V1.5C12.5 0.947715 12.0523 0.5 11.5 0.5H1.5C0.947715 0.5 0.5 0.947715 0.5 1.5V11.5C0.5 12.0523 0.947715 12.5 1.5 12.5H11.5C12.0523 12.5 12.5 12.0523 12.5 11.5Z" stroke="var(--mw-icon-border-default-gray, #616161)" stroke-linejoin="round"/>
<rect width="10" height="10" rx="5" transform="matrix(-1 0 0 1 15.5 5.5)" fill="var(--mw-icon-background-default-action, #CBFFBE)" stroke="var(--mw-icon-border-default-green, #008013)"/>
<path d="M13.5 11H14V9.99999H13.5V11ZM7.5 9.99999H7V11H7.5V9.99999ZM11 7.5V7H10V7.5H11ZM10 13.5V14H11V13.5H10ZM13.5 9.99999H7.5V11H13.5V9.99999ZM10 7.5V13.5H11V7.5H10Z" fill="var(--mw-icon-glyph-content-dark-green, #02580E)"/>
</svg>
