<svg width="16" height="16" viewBox="0 0 16 16" fill="none" xmlns="http://www.w3.org/2000/svg">
<path d="M0.5 11.5V1.5C0.5 0.947715 0.947715 0.5 1.5 0.5H11.5C12.0523 0.5 12.5 0.947715 12.5 1.5V11.5C12.5 12.0523 12.0523 12.5 11.5 12.5H1.5C0.947715 12.5 0.5 12.0523 0.5 11.5Z" fill="var(--mw-icon-glyph-content-gray, #616162)"/>
<path d="M0.0359066 9.66419C1.73106 9.8262 4.02005 10.0279 5.7152 9.86585C6.71082 9.80865 7.71467 9.83674 8.69753 9.94933C9.66292 10.0121 11.2055 10.047 12.058 9.86585C12.2021 9.83523 12.8485 9.91939 12.9404 9.90282C13.0354 9.88568 12.8691 9.44181 12.9389 9.33929C13.0763 9.13763 12.9389 8.62203 12.9389 8.62203C12.3259 8.50571 11.468 8.30804 10.995 8.0432C10.5219 7.77836 10.442 7.69082 10.1994 7.32812C10.0353 7.10273 9.88478 6.88987 9.7343 6.67282C9.78902 6.57683 9.83006 6.49752 9.85742 6.45578C10.3704 5.70031 11.5162 4.62344 12.9252 4.4231V3.81371L12.9389 3.78449V3.06587C12.4352 3.04924 11.6398 3.24739 11.1463 3.18345C10.0314 3.03319 10.0929 2.92467 8.5402 3.06658C7.41599 3.21396 6.25746 3.23658 5.1201 3.13337C4.29906 2.96298 3.41066 2.95567 2.58239 3.1125C1.99933 3.21044 1.39407 3.24991 0.790259 3.22937C0.619254 3.06658 0.174165 3.18417 0.0373608 3.07982L0.331966 4.56918C0.785243 4.68177 1.19443 4.85152 1.53274 5.06731C1.87105 5.28309 2.01926 5.60217 2.2951 5.82135C2.58239 6.04963 2.81984 6.1981 2.97033 6.41514C2.97033 6.74005 2.97033 6.74005 2.67718 7.06495C2.08892 7.93312 1.68585 8.23803 0.0373608 8.39664V9.33929C0.0373608 9.33929 -0.045723 9.69892 0.0359066 9.66419ZM11.5773 9.19803L11.372 9.23142C10.2402 9.37067 9.07157 9.35356 7.95195 9.18133C7.50733 9.11872 7.47332 9.03524 7.18603 9.00603C8.03422 8.74725 8.94444 8.05856 9.46429 7.2363C10.0259 8.02333 10.4295 8.7017 11.5773 9.19803ZM9.40207 3.74275C9.81932 3.77197 10.4486 3.79701 11.0916 3.80536C10.6098 4.10087 10.7215 4.15027 10.5 4.4C10.0698 4.88494 9.75725 5.48429 9.5 5.8C8.94594 5.00696 7.85618 4.18936 7.17216 3.8638C7.89846 3.74529 8.65289 3.70433 9.40207 3.74275ZM6.28294 4.35977C7.00116 4.35977 8.29395 5.49579 8.96429 6.45578C8.96429 6.45578 9.13437 6.05398 8.94377 6.5C8.75318 6.94602 7.928 7.3251 7.50733 7.70795C7.20718 8.00261 6.76862 8.23531 6.24874 8.37577C5.27059 8.37577 4.59391 7.50343 3.84833 6.43491C5.18901 4.53162 6.02985 4.35977 6.28294 4.35977ZM1.70001 4.00154C2.20136 3.79712 2.78683 3.68285 3.38953 3.6718C3.91623 3.70102 4.66181 3.80119 5.35267 3.87214C4.66865 4.17684 3.98463 4.82797 3.30061 5.75874C3.27373 5.72788 3.25086 5.69579 3.23221 5.66274C2.79092 5.0862 2.27872 4.53088 1.70001 4.00154ZM2.56235 8.18723C2.95894 7.8077 3.30218 7.40836 3.58838 6.9935C4.32028 7.98688 5.25109 8.56824 5.9206 9.10203C5.05684 9.20466 4.29382 9.27851 3.4169 9.32324C2.79345 9.30548 1.88325 9.23092 1.29596 9.10203C1.49432 8.88498 2.00781 8.65542 2.2609 8.42586L2.56235 8.18723Z" fill="#64D413"/>
<path d="M6.5 4C6.77614 4 7 3.77614 7 3.5C7 3.22386 6.77614 3 6.5 3C6.22386 3 6 3.22386 6 3.5C6 3.77614 6.22386 4 6.5 4Z" fill="#FF13A6"/>
<path d="M9.5 7C9.77614 7 10 6.77614 10 6.5C10 6.22386 9.77614 6 9.5 6C9.22386 6 9 6.22386 9 6.5C9 6.77614 9.22386 7 9.5 7Z" fill="#FF13A6"/>
<path d="M1.5 4C1.77614 4 2 3.77614 2 3.5C2 3.22386 1.77614 3 1.5 3C1.22386 3 1 3.22386 1 3.5C1 3.77614 1.22386 4 1.5 4Z" fill="#FF13A6"/>
<path d="M3.5 7C3.77614 7 4 6.77614 4 6.5C4 6.22386 3.77614 6 3.5 6C3.22386 6 3 6.22386 3 6.5C3 6.77614 3.22386 7 3.5 7Z" fill="#FF13A6"/>
<path d="M11.5 4C11.7761 4 12 3.77614 12 3.5C12 3.22386 11.7761 3 11.5 3C11.2239 3 11 3.22386 11 3.5C11 3.77614 11.2239 4 11.5 4Z" fill="#FF13A6"/>
<path d="M11.5 10C11.7761 10 12 9.77614 12 9.5C12 9.22386 11.7761 9 11.5 9C11.2239 9 11 9.22386 11 9.5C11 9.77614 11.2239 10 11.5 10Z" fill="#FF13A6"/>
<path d="M6.5 10C6.77614 10 7 9.77614 7 9.5C7 9.22386 6.77614 9 6.5 9C6.22386 9 6 9.22386 6 9.5C6 9.77614 6.22386 10 6.5 10Z" fill="#FF13A6"/>
<path d="M1.5 10C1.77614 10 2 9.77614 2 9.5C2 9.22386 1.77614 9 1.5 9C1.22386 9 1 9.22386 1 9.5C1 9.77614 1.22386 10 1.5 10Z" fill="#FF13A6"/>
<path d="M0.5 11.5V1.5C0.5 0.947715 0.947715 0.5 1.5 0.5H11.5C12.0523 0.5 12.5 0.947715 12.5 1.5V11.5C12.5 12.0523 12.0523 12.5 11.5 12.5H1.5C0.947715 12.5 0.5 12.0523 0.5 11.5Z" stroke="var(--mw-icon-border-default-gray, #616161)" stroke-linecap="round"/>
<rect width="10" height="10" rx="5" transform="matrix(-1 0 0 1 15.5 5.5)" fill="var(--mw-icon-background-default-action, #CBFFBE)" stroke="var(--mw-icon-border-default-green, #008013)"/>
<path d="M13.5 11H14V9.99999H13.5V11ZM7.5 9.99999H7V11H7.5V9.99999ZM11 7.5V7H10V7.5H11ZM10 13.5V14H11V13.5H10ZM13.5 9.99999H7.5V11H13.5V9.99999ZM10 7.5V13.5H11V7.5H10Z" fill="var(--mw-icon-glyph-content-dark-green, #02580E)"/>
</svg>
