<svg width="16" height="16" viewBox="0 0 16 16" fill="none" xmlns="http://www.w3.org/2000/svg">
<path d="M11.5 0.5H1.5C0.947715 0.5 0.5 0.947715 0.5 1.5V11.5C0.5 12.0523 0.947715 12.5 1.5 12.5H11.5C12.0523 12.5 12.5 12.0523 12.5 11.5V1.5C12.5 0.947715 12.0523 0.5 11.5 0.5Z" fill="var(--mw-icon-background-brown, #DC996C)" stroke="var(--mw-icon-border-default-brown, #5F1B08)"/>
<path d="M10.5 8.5V4.5L6.5 6.5V10.5L10.5 8.5Z" fill="var(--mw-icon-glyph-content-brown, #5F1B18)"/>
<path d="M2.5 8.5V4.5L6.5 6.5V10.5L2.5 8.5Z" fill="var(--mw-icon-glyph-content-brown, #5F1B18)"/>
<path d="M2.5 4.5L6.5 2.5L10.5 4.5L6.5 6.5L2.5 4.5Z" fill="var(--mw-icon-glyph-content-brown, #5F1B18)"/>
<path d="M10.5 4.5V8.5L6.5 10.5M10.5 4.5L6.5 6.5M10.5 4.5L6.5 2.5L2.5 4.5M6.5 6.5V10.5M6.5 6.5L2.5 4.5M6.5 10.5L2.5 8.5V4.5" stroke="var(--mw-icon-background-brown, #DC996C)" stroke-linecap="round" stroke-linejoin="round"/>
<rect width="10" height="10" rx="5" transform="matrix(-1 0 0 1 15.5 5.5)" fill="var(--mw-icon-background-default-action, #CBFFBE)" stroke="var(--mw-icon-border-default-green, #008013)"/>
<path d="M13.5 10.5H7.5M10.5 7.5V13.5" stroke="var(--mw-icon-glyph-content-dark-green, #02580E)" stroke-linecap="square"/>
</svg>
