<svg width="17" height="16" viewBox="0 0 17 16" fill="none" xmlns="http://www.w3.org/2000/svg">
<path d="M1 10.5V1.5C1 0.947715 1.44771 0.5 2 0.5H11C11.5523 0.5 12 0.947715 12 1.5V10.5C12 11.0523 11.5523 11.5 11 11.5H2C1.44772 11.5 1 11.0523 1 10.5Z" fill="var(--mw-icon-background-default-white, #FFFFFF)" stroke="var(--mw-icon-border-default-gray, #616161)"/>
<path d="M2.5 3H5.5V2H2.5V3ZM2.5 7H5.5V6H2.5V7ZM4.5 5H7.5V4H4.5V5Z" fill="var(--mw-icon-glyph-content-gray, #616162)"/>
<rect width="10" height="10" rx="5" transform="matrix(-1 0 0 1 16 5.5)" fill="var(--mw-icon-background-default-action, #CBFFBE)" stroke="var(--mw-icon-border-default-green, #008013)"/>
<path d="M14 11H14.5V9.99999H14V11ZM8 9.99999H7.5V11H8V9.99999ZM11.5 7.5V7H10.5V7.5H11.5ZM10.5 13.5V14H11.5V13.5H10.5ZM14 9.99999H8V11H14V9.99999ZM10.5 7.5V13.5H11.5V7.5H10.5Z" fill="var(--mw-icon-glyph-content-dark-green, #02580E)"/>
</svg>
