<svg width="16" height="16" viewBox="0 0 16 16" fill="none" xmlns="http://www.w3.org/2000/svg">
<rect x="0.5" y="0.5" width="12" height="12" rx="1" fill="var(--mw-icon-background-default-white, #FFFFFF)"/>
<path d="M0.5 6.5C1.16667 4.8336 1.83333 5.28807 2.5 6.95447C3.16667 8.62088 3.83333 8.1664 4.5 6.5C5.16667 4.8336 5.83333 4.37912 6.5 6.04553C7.16667 7.71193 7.83333 8.1664 8.5 6.5C9.16667 4.8336 9.83333 5.28807 10.5 6.95447C11.1667 8.62088 11.8333 8.1664 12.5 6.5" stroke="#0072BD" stroke-miterlimit="10"/>
<rect x="1" y="1" width="11" height="2" fill="var(--mw-icon-background-medium-yellow, #FFEF91)"/>
<rect x="1" y="3" width="11" height="1" fill="var(--mw-icon-glyph-content-yellow, #674C07)"/>
<rect width="11" height="2" transform="matrix(1 0 0 -1 1 12)" fill="var(--mw-icon-background-medium-yellow, #FFEF91)"/>
<rect width="11" height="1" transform="matrix(1 0 0 -1 1 10)" fill="var(--mw-icon-glyph-content-yellow, #674C07)"/>
<rect x="0.5" y="0.5" width="12" height="12" rx="1" stroke="var(--mw-icon-border-default-gray, #616161)"/>
<rect width="10" height="10" rx="5" transform="matrix(-1 0 0 1 15.5 5.5)" fill="var(--mw-icon-background-default-action, #CBFFBE)" stroke="var(--mw-icon-glyph-content-green, #008014)"/>
<path d="M13.5 10.5H7.5M10.5 7.5V13.5" stroke="var(--mw-icon-glyph-content-dark-green, #02580E)" stroke-linecap="square"/>
</svg>
