<svg width="16" height="16" viewBox="0 0 16 16" fill="none" xmlns="http://www.w3.org/2000/svg">
<path d="M11.5 0.5H1.5C0.947715 0.5 0.5 0.947715 0.5 1.5V11.5C0.5 12.0523 0.947715 12.5 1.5 12.5H11.5C12.0523 12.5 12.5 12.0523 12.5 11.5V1.5C12.5 0.947715 12.0523 0.5 11.5 0.5Z" fill="var(--mw-icon-background-default-white, #FFFFFF)" stroke="var(--mw-icon-border-default-gray, #616161)" stroke-linecap="round"/>
<path d="M6 8V12H2L6 8Z" fill="var(--mw-icon-glyph-content-gray, #616162)"/>
<path d="M7 8V12H11L7 8Z" fill="var(--mw-icon-glyph-content-gray, #616162)"/>
<path d="M5.01393 5.21628C5.00475 5.31224 5 5.40715 5 5.5C5 6.60457 5.67157 7 6.5 7C7.32843 7 8 6.60457 8 5.5C8 5.40715 7.99525 5.31224 7.98607 5.21628L9.5 5L11 4H7.64581C7.47565 3.64702 7.25346 3.34818 7 3.1715V3L6.5 1.5L6 3V3.1715C5.74654 3.34818 5.52435 3.64702 5.35419 4H2L3.5 5L5.01393 5.21628Z" fill="var(--mw-icon-glyph-content-gray, #616162)"/>
<rect width="10" height="10" rx="5" transform="matrix(-1 0 0 1 15.5 5.5)" fill="var(--mw-icon-background-default-action, #CBFFBE)" stroke="var(--mw-icon-border-default-green, #008013)"/>
<path d="M13.5 10.5H7.5M10.5 7.5V13.5" stroke="var(--mw-icon-glyph-content-dark-green, #02580E)" stroke-linecap="square"/>
</svg>
