<svg width="16" height="16" viewBox="0 0 16 16" fill="none" xmlns="http://www.w3.org/2000/svg">
<path d="M0.5 1C0.5 0.723858 0.723858 0.5 1 0.5H5.08579C5.351 0.5 5.60536 0.605357 5.79289 0.792893L6.20711 1.20711C6.39464 1.39464 6.649 1.5 6.91421 1.5H11C11.2761 1.5 11.5 1.72386 11.5 2V8C11.5 8.27614 11.2761 8.5 11 8.5H1C0.723858 8.5 0.5 8.27614 0.5 8V1Z" fill="var(--mw-icon-background-light-yellow, #FFF5BC)" stroke="#674C06"/>
<rect width="10" height="10" rx="5" transform="matrix(-1 0 0 1 15.5 5.5)" fill="var(--mw-icon-background-default-action, #CBFFBE)" stroke="var(--mw-icon-border-default-green, #008013)"/>
<path d="M13.5 11H14V9.99999H13.5V11ZM7.5 9.99999H7V11H7.5V9.99999ZM11 7.5V7H10V7.5H11ZM10 13.5V14H11V13.5H10ZM13.5 9.99999H7.5V11H13.5V9.99999ZM10 7.5V13.5H11V7.5H10Z" fill="var(--mw-icon-glyph-content-dark-green, #02580E)"/>
</svg>
