<svg width="16" height="16" viewBox="0 0 16 16" fill="none" xmlns="http://www.w3.org/2000/svg">
<path d="M0.5 2.5C0.5 1.39543 1.39543 0.5 2.5 0.5H12.5C13.6046 0.5 14.5 1.39543 14.5 2.5V9.5C14.5 10.6046 13.6046 11.5 12.5 11.5H2.5C1.39543 11.5 0.5 10.6046 0.5 9.5V2.5Z" fill="var(--mw-icon-background-default-selection, #B4DEFF)" stroke="var(--mw-icon-border-default-blue, #1656A7)"/>
<rect width="10" height="10" rx="5" transform="matrix(-1 0 0 1 15.5 5.5)" fill="var(--mw-icon-background-default-action, #CBFFBE)" stroke="var(--mw-icon-border-default-green, #008013)"/>
<path d="M13.5 11H14V9.99999H13.5V11ZM7.5 9.99999H7V11H7.5V9.99999ZM11 7.5V7H10V7.5H11ZM10 13.5V14H11V13.5H10ZM13.5 9.99999H7.5V11H13.5V9.99999ZM10 7.5V13.5H11V7.5H10Z" fill="var(--mw-icon-glyph-content-dark-green, #02580E)"/>
<path d="M2.88741 3.62712C3.01977 3.20705 3.1364 2.8558 3.35315 2.55153C3.56398 2.25378 3.86666 2 4.32249 2C4.50393 2 4.67135 2.04728 4.79691 2.13583C4.9239 2.22538 5.01036 2.36012 5.01036 2.52352C5.01036 2.72916 4.83494 2.92339 4.61303 2.92339C4.43372 2.92339 4.24871 2.77771 4.24871 2.54956C4.24871 2.47482 4.2698 2.4217 4.29011 2.38319L4.28948 2.38319C4.16706 2.38319 4.04617 2.45348 3.92536 2.67665C3.81502 2.88049 3.71751 3.19106 3.6294 3.62712H4.33541L4.30922 3.76479L4.38317 3.73829C4.78778 3.59446 5.02245 3.54251 5.19621 3.54251C5.25198 3.54251 5.3094 3.55251 5.36393 3.58293C5.41831 3.61326 5.46025 3.65855 5.49407 3.71358C5.55824 3.81799 5.60432 3.97698 5.65038 4.19741L5.67096 4.29379C5.83063 4.0665 5.96672 3.89773 6.093 3.77921C6.26282 3.61984 6.42446 3.54251 6.60927 3.54251C6.71286 3.54251 6.8103 3.57459 6.88353 3.6393C6.95793 3.70505 7 3.79835 7 3.90332C7 3.99907 6.96727 4.0884 6.90406 4.1546C6.84045 4.22122 6.75231 4.25763 6.6555 4.25763C6.5641 4.25763 6.49406 4.21852 6.44924 4.19349L6.43841 4.18748C6.39337 4.16273 6.36192 4.14805 6.31714 4.14704C6.31459 4.1482 6.30164 4.1534 6.2765 4.17342C6.2421 4.20082 6.19819 4.24527 6.14558 4.30912C6.04522 4.43092 5.92324 4.61101 5.7869 4.84372C5.79125 4.88513 5.80405 4.95912 5.83418 5.07789L5.83449 5.07913L6.04547 5.95002L6.04563 5.95063C6.06754 6.03686 6.08934 6.08535 6.10767 6.11036C6.12043 6.12778 6.12532 6.12676 6.12688 6.12643L6.12743 6.12637C6.13338 6.12638 6.14653 6.12638 6.17996 6.09798C6.21736 6.0662 6.26675 6.0102 6.34247 5.91287C6.36185 5.8874 6.37825 5.86532 6.39368 5.84453L6.3937 5.84451L6.39371 5.8445C6.42251 5.80572 6.44794 5.77148 6.48309 5.72817L6.54829 5.64784L6.84443 5.82298L6.77574 5.92804C6.58441 6.22068 6.4386 6.41784 6.3042 6.54137C6.1627 6.67141 6.02887 6.72434 5.86973 6.72434C5.73804 6.72434 5.62399 6.68593 5.53502 6.584C5.45392 6.49111 5.40403 6.35633 5.36361 6.19037L5.23287 5.66158L4.80328 6.23417C4.6565 6.42816 4.54071 6.55272 4.42785 6.62721C4.30747 6.70665 4.198 6.72434 4.08029 6.72434C3.95889 6.72434 3.84635 6.6935 3.7619 6.62352C3.67475 6.55132 3.63014 6.44769 3.63014 6.33098C3.63014 6.14208 3.76901 5.97668 3.97464 5.97668C4.06629 5.97668 4.15539 6.0162 4.2422 6.06227L4.24709 6.06487C4.27281 6.08008 4.29785 6.0912 4.31915 6.0982C4.33411 6.10311 4.34492 6.10531 4.35131 6.10623C4.35322 6.10529 4.35582 6.1039 4.35915 6.10187C4.37323 6.09333 4.39304 6.07807 4.41825 6.05394C4.46849 6.00583 4.52957 5.93275 4.59654 5.83845L4.59686 5.838L5.10678 5.12699L4.93417 4.37354C4.91132 4.27703 4.892 4.20443 4.87385 4.14991C4.85538 4.09447 4.84023 4.06426 4.82835 4.04748C4.81868 4.0338 4.81298 4.03136 4.8088 4.02978C4.80048 4.02663 4.78422 4.02332 4.74721 4.02332C4.71063 4.02332 4.64404 4.03285 4.52059 4.06484L4.27722 4.13147L4.25835 4.03224L4.25014 4.07539H3.53338L3.07925 6.06481C2.93905 6.67352 2.75459 7.15168 2.52108 7.48011C2.28557 7.81137 1.99211 8 1.64164 8C1.31106 8 1 7.80569 1 7.48298C1 7.2773 1.15614 7.08963 1.37092 7.08963C1.47507 7.08963 1.56912 7.12585 1.63757 7.19332C1.70587 7.26065 1.74183 7.35242 1.74183 7.45044C1.74183 7.52445 1.71408 7.57623 1.69784 7.60648L1.68909 7.62315L1.69447 7.62332C1.77302 7.62332 1.86297 7.57626 1.95913 7.41754C2.05534 7.25877 2.14271 7.01051 2.21763 6.6638L2.76785 4.07539H2.16561L2.26509 3.62712H2.88741Z" fill="var(--mw-icon-glyph-content-blue, #1656A8)"/>
</svg>
