<svg width="16" height="16" viewBox="0 0 16 16" fill="none" xmlns="http://www.w3.org/2000/svg">
<path d="M0.5 11V3.58114C0.5 3.5274 0.508664 3.47401 0.525658 3.42302L1.38604 0.841886C1.45409 0.637715 1.64516 0.5 1.86038 0.5H6.13962C6.35484 0.5 6.54591 0.637715 6.61396 0.841886L7.47434 3.42302C7.49134 3.47401 7.5 3.5274 7.5 3.58114V11C7.5 11.2761 7.27614 11.5 7 11.5H1C0.723858 11.5 0.5 11.2761 0.5 11Z" fill="var(--mw-icon-background-default-selection, #B4DEFF)" stroke="var(--mw-icon-border-default-blue, #1656A7)" stroke-linejoin="round"/>
<path d="M4.49998 3C4.49998 3.27614 4.27613 3.5 3.99998 3.5C3.72384 3.5 3.49998 3.27614 3.49998 3C3.49998 2.72386 3.72384 2.5 3.99998 2.5C4.27613 2.5 4.49998 2.72386 4.49998 3Z" stroke="var(--mw-icon-glyph-content-blue, #1656A8)"/>
<rect width="10" height="10" rx="5" transform="matrix(-1 0 0 1 15.5 5.5)" fill="var(--mw-icon-background-default-action, #CBFFBE)" stroke="var(--mw-icon-border-default-green, #008013)"/>
<path d="M13.5 10.5H7.5M10.5 7.5V13.5" stroke="var(--mw-icon-glyph-content-dark-green, #02580E)" stroke-linecap="square"/>
</svg>
