<svg width="16" height="16" viewBox="0 0 16 16" fill="none" xmlns="http://www.w3.org/2000/svg">
<path d="M11.5 0.5H1.5C0.947715 0.5 0.5 0.947715 0.5 1.5V11.5C0.5 12.0523 0.947715 12.5 1.5 12.5H11.5C12.0523 12.5 12.5 12.0523 12.5 11.5V1.5C12.5 0.947715 12.0523 0.5 11.5 0.5Z" fill="var(--mw-icon-background-default-white, #FFFFFF)" stroke="var(--mw-icon-border-default-gray, #616161)" stroke-linecap="round"/>
<circle cx="6.5" cy="6.5" r="0.5" fill="var(--mw-icon-glyph-content-gray, #616162)"/>
<circle cx="6.5" cy="6.5" r="3" stroke="var(--mw-icon-glyph-content-gray, #616162)"/>
<path d="M6.5 2V5M6.5 8V11M8 6.5H11M2 6.5H5" stroke="var(--mw-icon-glyph-content-gray, #616162)"/>
<rect width="10" height="10" rx="5" transform="matrix(-1 0 0 1 15.5 5.5)" fill="var(--mw-icon-background-default-action, #CBFFBE)" stroke="var(--mw-icon-border-default-green, #008013)"/>
<path d="M13.5 10.5H7.5M10.5 7.5V13.5" stroke="var(--mw-icon-glyph-content-dark-green, #02580E)" stroke-linecap="square"/>
</svg>
