<svg width="16" height="16" viewBox="0 0 16 16" fill="none" xmlns="http://www.w3.org/2000/svg">
<rect x="1" y="1" width="11" height="11" fill="var(--mw-icon-background-default-white, #FFFFFF)"/>
<rect x="1" y="4" width="5" height="7" fill="var(--mw-icon-background-medium-yellow, #FFEF91)"/>
<rect x="6" y="3" width="6" height="5" fill="var(--mw-icon-background-medium-yellow, #FFEF91)"/>
<rect x="6" y="2" width="6" height="1" fill="#674C06"/>
<rect x="6" y="8" width="6" height="1" fill="#674C06"/>
<rect x="1" y="3" width="5" height="1" fill="#674C06"/>
<rect x="1" y="10" width="5" height="1" fill="#674C06"/>
<path d="M0.5 10.5C0.5 9 1 4.5 3.5 4.5C6 4.5 7.5 7.5 9.5 7.5C11.5 7.5 12 6 12 6" stroke="#DD5400" stroke-linecap="square"/>
<path d="M0.5 10.5C5 1.5 8.5 6.5 12.5 5.5" stroke="#1171BE"/>
<rect x="0.5" y="0.5" width="12" height="12" rx="1" stroke="var(--mw-icon-border-default-gray, #616161)"/>
<rect width="10" height="10" rx="5" transform="matrix(-1 0 0 1 15.5 5.5)" fill="var(--mw-icon-background-default-action, #CBFFBE)" stroke="var(--mw-icon-glyph-content-green, #008014)"/>
<path d="M13.5 10.5H7.5M10.5 7.5V13.5" stroke="var(--mw-icon-glyph-content-dark-green, #02580E)" stroke-linecap="square"/>
</svg>
