<svg width="16" height="16" viewBox="0 0 16 16" fill="none" xmlns="http://www.w3.org/2000/svg">
<path d="M0.5 2.5C0.5 1.39543 1.39543 0.5 2.5 0.5H12.5C13.6046 0.5 14.5 1.39543 14.5 2.5V9.5C14.5 10.6046 13.6046 11.5 12.5 11.5H2.5C1.39543 11.5 0.5 10.6046 0.5 9.5V2.5Z" fill="var(--mw-icon-background-red, #FF9D9A)" stroke="var(--mw-icon-border-default-red, #902622)"/>
<rect width="10" height="10" rx="5" transform="matrix(-1 0 0 1 15.5 5.5)" fill="var(--mw-icon-background-default-action, #CBFFBE)" stroke="var(--mw-icon-border-default-green, #008013)"/>
<path d="M13.5 11H14V9.99999H13.5V11ZM7.5 9.99999H7V11H7.5V9.99999ZM11 7.5V7H10V7.5H11ZM10 13.5V14H11V13.5H10ZM13.5 9.99999H7.5V11H13.5V9.99999ZM10 7.5V13.5H11V7.5H10Z" fill="var(--mw-icon-glyph-content-dark-green, #02580E)"/>
<path fill-rule="evenodd" clip-rule="evenodd" d="M5 2H2V3V4V5V7H3V5H4H5V4V3V2ZM4 3H3V4H4V3Z" fill="var(--mw-icon-glyph-content-dark-red, #610908)"/>
</svg>
