<svg width="16" height="16" viewBox="0 0 16 16" fill="none" xmlns="http://www.w3.org/2000/svg">
<path d="M6.5 10.5C9.81371 10.5 12.5 8.26142 12.5 5.5C12.5 2.73858 9.81371 0.5 6.5 0.5C3.18629 0.5 0.5 2.73858 0.5 5.5C0.5 6.76052 1.05974 7.91209 1.98339 8.79153L0.5 12.5L3.85031 9.98727C4.64939 10.3156 5.54885 10.5 6.5 10.5Z" fill="var(--mw-icon-background-default-white, #FFFFFF)" stroke="var(--mw-icon-border-default-gray, #616161)" stroke-linejoin="round"/>
<path d="M5.5 10.5C5.5 13.2614 7.73858 15.5 10.5 15.5C13.2614 15.5 15.5 13.2614 15.5 10.5C15.5 7.73858 13.2614 5.5 10.5 5.5C7.73858 5.5 5.5 7.73858 5.5 10.5Z" fill="var(--mw-icon-background-default-action, #CBFFBE)" stroke="var(--mw-icon-glyph-content-green, #008014)"/>
<path d="M13.5 10.5H7.5M10.5 7.5V13.5" stroke="var(--mw-icon-glyph-content-dark-green, #02580E)" stroke-linecap="square"/>
</svg>
