<svg width="16" height="16" viewBox="0 0 16 16" fill="none" xmlns="http://www.w3.org/2000/svg">
<path d="M0.5 12V2C0.5 1.72386 0.723858 1.5 1 1.5H11C11.2761 1.5 11.5 1.72386 11.5 2V12C11.5 12.2761 11.2761 12.5 11 12.5H1C0.723858 12.5 0.5 12.2761 0.5 12Z" fill="var(--mw-icon-background-default-white, #FFFFFF)" stroke="var(--mw-icon-border-default-gray, #616161)"/>
<path d="M3.5 2.5V0.5H8.5V2.5H3.5Z" fill="var(--mw-icon-background-default-medium-gray, #D9D9D9)" stroke="var(--mw-icon-border-default-gray, #616161)"/>
<path d="M5.5 4.5L2.5 7.5M2.5 4.5L5.5 7.5" stroke="var(--mw-icon-glyph-content-gray, #616162)" stroke-linecap="square"/>
<rect width="10" height="10" rx="5" transform="matrix(-1 0 0 1 15.5 5.5)" fill="var(--mw-icon-background-default-action, #CBFFBE)" stroke="var(--mw-icon-glyph-content-green, #008014)"/>
<path d="M13.5 10.5H7.5M10.5 7.5V13.5" stroke="var(--mw-icon-glyph-content-dark-green, #02580E)" stroke-linecap="square"/>
</svg>
