<svg width="16" height="16" viewBox="0 0 16 16" fill="none" xmlns="http://www.w3.org/2000/svg">
<path d="M1.5 0.5H11.4749C12.0271 0.5 12.4749 0.947715 12.4749 1.5V11.5C12.4749 12.0523 12.0271 12.5 11.4749 12.5H1.5C0.947716 12.5 0.5 12.0523 0.5 11.5V1.5C0.5 0.947715 0.947715 0.5 1.5 0.5Z" fill="var(--mw-icon-background-default-white, #FFFFFF)"/>
<path d="M11.9759 11.0021C11.9759 11.5532 11.5291 12 10.978 12V10H11.9759V11.0021Z" fill="var(--mw-icon-glyph-content-dark-red, #610908)"/>
<path d="M8.98218 12H7.98429L7.98429 10H8.98218L8.98218 12Z" fill="#F57729"/>
<path d="M7.98429 12L6.98638 12V10L7.98429 10L7.98429 12Z" fill="#FFD60A"/>
<path d="M6.98638 12L5.98847 12V10L6.98638 10V12Z" fill="#3AC831"/>
<path d="M5.98847 12H4.99057V10L5.98847 10V12Z" fill="#1FCFBE"/>
<path d="M4.99057 12H3.99266V10H4.99057V12Z" fill="#35D2FA"/>
<path d="M3.99266 12H2.99476L2.99476 10L3.99266 10V12Z" fill="var(--mw-icon-borderColor-light-blue, #268CDD)"/>
<path d="M2.99476 12H1.99686L1.99685 10H2.99476L2.99476 12Z" fill="#0E00FF"/>
<path d="M1.99686 12H0.99895L0.998947 10H1.99685L1.99686 12Z" fill="#08036F"/>
<path d="M10.978 12H9.98009V10H10.978V12Z" fill="var(--mw-icon-border-default-red, #902622)"/>
<path d="M9.98009 12H8.98218L8.98218 10H9.98009V12Z" fill="#FF453A"/>
<path d="M0.5 7.5C0.5 7.5 1.11364 5.5 3.5 5.5C5.88636 5.5 6.95455 8.5 9 8.5C11.0455 8.5 12.5 6.5 12.5 6.5" stroke="#D95319"/>
<path d="M0.5 5.22727C0.5 5.22727 1.18182 2.5 2.54545 2.5C4.25 2.5 4.29545 7.5 6 7.5C7.70455 7.5 7.13636 3.5 8.5 3.5C9.52273 3.5 9.63636 7.5 11 7.5C11.6818 7.5 12.5 5.5 12.5 5.5" stroke="#0072BD"/>
<path d="M1.5 0.5H11.4749C12.0271 0.5 12.4749 0.947715 12.4749 1.5V11.5C12.4749 12.0523 12.0271 12.5 11.4749 12.5H1.5C0.947716 12.5 0.5 12.0523 0.5 11.5V1.5C0.5 0.947715 0.947715 0.5 1.5 0.5Z" stroke="var(--mw-icon-border-default-gray, #616161)" stroke-linecap="round"/>
<rect width="10" height="10" rx="5" transform="matrix(-1 0 0 1 15.5 5.5)" fill="var(--mw-icon-background-default-action, #CBFFBE)" stroke="var(--mw-icon-border-default-green, #008013)"/>
<path d="M13.5 10.5H7.5M10.5 7.5V13.5" stroke="var(--mw-icon-glyph-content-dark-green, #02580E)" stroke-linecap="square"/>
</svg>
