<svg width="16" height="16" viewBox="0 0 16 16" fill="none" xmlns="http://www.w3.org/2000/svg">
<circle cx="7.5" cy="7.5" r="7" fill="var(--mw-icon-glyph-content-dark-gray, #333333)" stroke="var(--mw-icon-glyph-disabled-gray, #888889)"/>
<path d="M10.1022 3.23054C9.37201 2.78546 8.53982 2.53511 7.68522 2.50343C6.83063 2.47175 5.98219 2.6598 5.22101 3.04959C4.45982 3.43938 3.81134 4.01789 3.33753 4.72982C2.86373 5.44176 2.58045 6.26332 2.51477 7.11598" stroke="#E11B14" stroke-linecap="round"/>
<path d="M2.52075 7.04504C2.40587 8.3024 2.77094 9.55666 3.54263 10.556" stroke="var(--mw-icon-background-default-highlight, #FFE864)" stroke-linecap="round"/>
<path d="M3.53638 10.5479C3.99838 11.1487 4.59092 11.6366 5.26922 11.9747C5.94751 12.3129 6.69379 12.4924 7.45166 12.4997C8.20954 12.5071 8.95915 12.342 9.64386 12.017C10.3286 11.6921 10.9304 11.2157 11.404 10.6239" stroke="#3BAA32" stroke-linecap="round"/>
<path d="M11.3763 10.6582C12.0167 9.87225 12.4029 8.91025 12.484 7.89975C12.5436 7.15582 12.4358 6.41147 12.1725 5.72021" stroke="var(--mw-icon-background-default-white, #FFFFFF)" stroke-linecap="round"/>
<path d="M7.5 7.5L10 10" stroke="white"/>
<circle cx="7.5" cy="7.5" r="1" fill="var(--mw-icon-glyph-content-dark-gray, #333333)" stroke="var(--mw-icon-background-default-dark-gray, #A6A6A6)"/>
</svg>
