<svg width="16" height="16" viewBox="0 0 16 16" fill="none" xmlns="http://www.w3.org/2000/svg">
<circle cx="7.5" cy="7.5" r="7" fill="var(--mw-icon-glyph-content-dark-gray, #333333)" stroke="var(--mw-icon-glyph-disabled-gray, #888889)"/>
<path d="M7.5 7.5V4" stroke="var(--mw-icon-background-default-white, #FFFFFF)"/>
<circle cx="7.5" cy="7.5" r="1" transform="rotate(-180 7.5 7.5)" fill="var(--mw-icon-glyph-content-dark-gray, #333333)" stroke="var(--mw-icon-background-default-dark-gray, #A6A6A6)"/>
<path d="M11 7.5H12.5M2.5 7.5H4M7.5 12.5V11" stroke="white"/>
<path d="M3.02883 9.73799C2.52595 8.7333 2.37609 7.58852 2.60344 6.48824C2.83079 5.38796 3.42208 4.39632 4.28198 3.67322" stroke="#E11B14" stroke-linecap="round"/>
<path d="M3.02161 9.72351C3.57994 10.8481 4.54091 11.7214 5.71357 12.17" stroke="var(--mw-icon-background-default-highlight, #FFE864)" stroke-linecap="round"/>
<path d="M7.50002 2.5C8.24015 2.5 8.97105 2.66431 9.63996 2.98108C10.3089 3.29785 10.8991 3.75917 11.3681 4.33175C11.8371 4.90433 12.1731 5.57389 12.3519 6.29209C12.5307 7.0103 12.5478 7.75925 12.4021 8.48488C12.2563 9.21051 11.9512 9.89472 11.5089 10.4881C11.0666 11.0816 10.498 11.5694 9.84427 11.9164C9.19053 12.2634 8.4679 12.4609 7.72855 12.4948C6.98919 12.5286 6.25154 12.3979 5.56885 12.112" stroke="#3BAA32" stroke-linecap="round"/>
</svg>
