<svg width="16" height="16" viewBox="0 0 16 16" fill="none" xmlns="http://www.w3.org/2000/svg">
<circle cx="7.5" cy="7.5" r="7" fill="var(--mw-icon-glyph-content-dark-gray, #333333)" stroke="var(--mw-icon-object-primary, #616160)"/>
<path d="M7.5 0.5V2.5M14.5 7.5H12.5M0.5 7.5H2.5M2.5 2.5L4 4M12.5 2.5L11 4" stroke="var(--mw-icon-background-default-white, #FFFFFF)"/>
<circle cx="7.5" cy="7.5" r="5.5" fill="#745A27"/>
<path d="M12.9776 7H2.0224C2.27501 4.19675 4.63096 2 7.49998 2C10.369 2 12.7249 4.19675 12.9776 7Z" fill="#54B6FF"/>
<path d="M6 4L7.5 2L9 4H6Z" fill="var(--mw-icon-background-default-highlight, #FFE864)"/>
<path d="M3 7.75V7H5V8H6V7H9V8H10V7H12V7.75C12 7.88807 11.8881 8 11.75 8H11V8.75C11 8.88807 10.8881 9 10.75 9H9.25C9.11193 9 9 8.88807 9 8.75V8H8V8.75C8 8.88807 7.88807 9 7.75 9H7.25C7.11193 9 7 8.88807 7 8.75V8H6V8.75C6 8.88807 5.88807 9 5.75 9H4.25C4.11193 9 4 8.88807 4 8.75V8H3.25C3.11193 8 3 7.88807 3 7.75Z" fill="var(--mw-icon-background-default-highlight, #FFE864)"/>
<circle cx="7.5" cy="7.5" r="7" stroke="var(--mw-icon-glyph-disabled-gray, #888889)"/>
</svg>
