<svg width="16" height="16" viewBox="0 0 16 16" fill="none" xmlns="http://www.w3.org/2000/svg">
<circle cx="7.5" cy="7.5" r="7" fill="var(--mw-icon-glyph-content-dark-gray, #333333)" stroke="var(--mw-icon-glyph-disabled-gray, #888889)"/>
<path d="M7.5 4V2.5C6.17392 2.5 4.90215 3.02678 3.96447 3.96447C3.02678 4.90215 2.5 6.17392 2.5 7.5C2.5 8.82608 3.02678 10.0978 3.96446 11.0355C4.90215 11.9732 6.17391 12.5 7.5 12.5V11M12 7.5H13" stroke="var(--mw-icon-background-default-white, #FFFFFF)" stroke-linejoin="round"/>
<path d="M4.50006 5L4.00006 6L5.00006 6L4.50006 5Z" fill="var(--mw-icon-background-default-white, #FFFFFF)"/>
<path d="M4.50007 10L4.00007 9H5.00007L4.50007 10Z" fill="white"/>
<path d="M4 7.5H7.5" stroke="white"/>
<path d="M7.5 7.5H11" stroke="var(--mw-icon-background-default-dark-gray, #A6A6A6)"/>
<circle cx="7.5" cy="7.5" r="1" fill="var(--mw-icon-glyph-content-dark-gray, #333333)" stroke="var(--mw-icon-background-default-dark-gray, #A6A6A6)"/>
</svg>
