<svg width="16" height="16" viewBox="0 0 16 16" fill="none" xmlns="http://www.w3.org/2000/svg">
<circle cx="7.5" cy="7.5" r="7" fill="var(--mw-icon-glyph-content-dark-gray, #333333)" stroke="var(--mw-icon-glyph-disabled-gray, #888889)"/>
<path d="M7.5 2.5C8.48891 2.5 9.45561 2.79324 10.2779 3.34265C11.1001 3.89206 11.741 4.67295 12.1194 5.58658C12.371 6.19405 12.4991 6.84207 12.5 7.49325M7.5 2.5C6.5111 2.5 5.5444 2.79324 4.72215 3.34265C3.89991 3.89206 3.25904 4.67295 2.8806 5.58658C2.62811 6.19615 2.5 6.84654 2.5 7.5M7.5 2.5V4M12.5 7.49325C12.5004 7.82144 12.4686 8.15043 12.4039 8.47545C12.211 9.44536 11.7348 10.3363 11.0355 11.0355L11 11L10 10M12.5 7.49325H11M2.5 7.5C2.5 7.82595 2.53187 8.15266 2.59608 8.47545C2.789 9.44536 3.26521 10.3363 3.96447 11.0355L5 10M2.5 7.5H4" stroke="var(--mw-icon-background-default-dark-gray, #A6A6A6)"/>
<path d="M7.5 2.5C6.5111 2.5 5.5444 2.79324 4.72215 3.34265C3.89991 3.89206 3.25904 4.67295 2.8806 5.58658C2.62811 6.19615 2.5 6.84654 2.5 7.5C2.5 7.82595 2.53187 8.15266 2.59608 8.47545C2.789 9.44536 3.26521 10.3363 3.96447 11.0355L4.32031 11.3906" stroke="#3BAA32"/>
<path d="M12.1194 5.58658C11.7409 4.67295 11.1001 3.89206 10.2778 3.34265C9.4556 2.79324 8.4889 2.5 7.49999 2.5L6.97266 2.52734" stroke="#FFD60A"/>
<path d="M12.1194 5.58655C12.371 6.19402 12.4991 6.84203 12.5 7.49321C12.5004 7.8214 12.4686 8.1504 12.4039 8.47542C12.211 9.44532 11.7348 10.3362 11.0355 11.0355L10.6823 11.3896" stroke="#E11B14"/>
<path d="M7.5 7.5L5 5" stroke="#E11B14"/>
<circle cx="7.5" cy="7.5" r="1" fill="var(--mw-icon-glyph-content-dark-gray, #333333)" stroke="var(--mw-icon-background-default-dark-gray, #A6A6A6)"/>
<path d="M6 11.25C6 11.1119 6.11193 11 6.25 11H8.75C8.88807 11 9 11.1119 9 11.25V12.75C9 12.8881 8.88807 13 8.75 13H6.25C6.11193 13 6 12.8881 6 12.75V11.25Z" fill="var(--mw-icon-background-default-dark-gray, #A6A6A6)"/>
</svg>
