<svg width="16" height="16" viewBox="0 0 16 16" fill="none" xmlns="http://www.w3.org/2000/svg">
<path d="M8 0.499512C3.85786 0.499512 0.5 3.85738 0.5 7.99951C0.5 12.1416 3.85786 15.4995 8 15.4995H8.5V13.4806C11.8562 13.2253 14.5 10.4211 14.5 6.99951C14.5 3.40966 11.5899 0.499512 8 0.499512Z" fill="var(--mw-icon-glyph-content-light-blue, #278CDD)"/>
<path d="M8.5 15.4995V15.9995C8.77614 15.9995 9 15.7757 9 15.4995H8.5ZM8.5 13.4806L8.46207 12.982C8.2014 13.0018 8 13.2191 8 13.4806H8.5ZM8 -0.000488281C3.58172 -0.000488281 0 3.58123 0 7.99951H1C1 4.13352 4.13401 0.999512 8 0.999512V-0.000488281ZM0 7.99951C0 12.4178 3.58172 15.9995 8 15.9995V14.9995C4.13401 14.9995 1 11.8655 1 7.99951H0ZM8 15.9995H8.5V14.9995H8V15.9995ZM9 15.4995V13.4806H8V15.4995H9ZM8.53793 13.9791C12.1528 13.7041 15 10.6846 15 6.99951H14C14 10.1577 11.5596 12.7464 8.46207 12.982L8.53793 13.9791ZM15 6.99951C15 3.13352 11.866 -0.000488281 8 -0.000488281V0.999512C11.3137 0.999512 14 3.6858 14 6.99951H15Z" fill="var(--mw-icon-glyph-content-light-blue, #278CDD)"/>
<path d="M8.86354 3.0944C8.91042 2.96772 9.08958 2.96772 9.13646 3.0944L9.861 5.05243C9.87573 5.09226 9.90713 5.12366 9.94696 5.13839L11.905 5.86293C12.0317 5.90981 12.0317 6.08897 11.905 6.13585L9.94696 6.86039C9.90713 6.87512 9.87573 6.90652 9.861 6.94635L9.13646 8.90438C9.08958 9.03106 8.91042 9.03106 8.86354 8.90438L8.139 6.94635C8.12427 6.90652 8.09287 6.87512 8.05304 6.86039L6.09501 6.13585C5.96833 6.08897 5.96833 5.90981 6.09501 5.86293L8.05304 5.13839C8.09287 5.12366 8.12427 5.09226 8.139 5.05243L8.86354 3.0944Z" fill="var(--mw-icon-background-default-white, #FFFFFF)"/>
<path d="M5.35726 7.59955C5.40638 7.46682 5.59411 7.46682 5.64323 7.59955L6.09357 8.8166C6.10902 8.85833 6.14192 8.89123 6.18365 8.90667L7.4007 9.35702C7.53343 9.40613 7.53343 9.59387 7.4007 9.64298L6.18365 10.0933C6.14192 10.1088 6.10902 10.1417 6.09357 10.1834L5.64323 11.4005C5.59411 11.5332 5.40638 11.5332 5.35726 11.4005L4.90691 10.1834C4.89147 10.1417 4.85857 10.1088 4.81684 10.0933L3.59979 9.64298C3.46706 9.59387 3.46706 9.40613 3.59979 9.35702L4.81684 8.90667C4.85857 8.89123 4.89147 8.85833 4.90691 8.8166L5.35726 7.59955Z" fill="white"/>
</svg>
