<svg width="16" height="16" viewBox="0 0 16 16" fill="none" xmlns="http://www.w3.org/2000/svg">
<path d="M13.5 0.5H1.5C0.947715 0.5 0.5 0.947716 0.5 1.5V13.5C0.5 14.0523 0.947716 14.5 1.5 14.5H13.5C14.0523 14.5 14.5 14.0523 14.5 13.5V1.5C14.5 0.947715 14.0523 0.5 13.5 0.5Z" fill="var(--mw-icon-background-default-white, #FFFFFF)" stroke="var(--mw-icon-border-default-gray, #616161)" stroke-linecap="round"/>
<path d="M11.6507 9L11.6504 8.99504C12.4082 8.94475 13 8.51845 13 8C13 7.44772 12.3284 7 11.5 7H8.5L5.5 5H4.5L6 7H3.5L2.5 6H1.5L2.5 8L4.5 8.5L6.22217 9H11.6507Z" fill="var(--mw-icon-glyph-content-gray, #616162)"/>
</svg>
