<svg width="16" height="16" viewBox="0 0 16 16" fill="none" xmlns="http://www.w3.org/2000/svg">
<path d="M10 3V4H11V3H10Z" fill="var(--mw-icon-object-primary, #616160)"/>
<path d="M10 5V6H11V5H10Z" fill="var(--mw-icon-object-primary, #616160)"/>
<path d="M11 9H13L10.5 12L8 9H10V7H11V9Z" fill="var(--mw-icon-object-primary, #616160)"/>
<path d="M5.5 10.5L5.9 10.8L6.5 10H5.5V10.5ZM2.5 14.5L2.1 14.2L1.5 15H2.5V14.5ZM2.05279 5.27639C1.92929 5.52338 2.0294 5.82372 2.27639 5.94721C2.52338 6.07071 2.82372 5.9706 2.94721 5.72361L2.05279 5.27639ZM4.5 1.5L4.94721 1.27639C4.86252 1.107 4.68939 1 4.5 1C4.31061 1 4.13748 1.107 4.05279 1.27639L4.5 1.5ZM6.05279 5.72361C6.17628 5.9706 6.47662 6.07071 6.72361 5.94721C6.9706 5.82372 7.07071 5.52338 6.94721 5.27639L6.05279 5.72361ZM3 4C2.72386 4 2.5 4.22386 2.5 4.5C2.5 4.77614 2.72386 5 3 5V4ZM6 5C6.27614 5 6.5 4.77614 6.5 4.5C6.5 4.22386 6.27614 4 6 4V5ZM2 11H5.5V10H2V11ZM5.1 10.2L2.1 14.2L2.9 14.8L5.9 10.8L5.1 10.2ZM2.5 15H6V14H2.5V15ZM2.94721 5.72361L4.94721 1.72361L4.05279 1.27639L2.05279 5.27639L2.94721 5.72361ZM4.05279 1.72361L6.05279 5.72361L6.94721 5.27639L4.94721 1.27639L4.05279 1.72361ZM3 5H6V4H3V5Z" fill="var(--mw-icon-object-primary, #616160)"/>
</svg>
