<svg width="16" height="16" viewBox="0 0 16 16" fill="none" xmlns="http://www.w3.org/2000/svg">
<path d="M0.5 12.5V2.5C0.5 1.39543 1.39543 0.5 2.5 0.5H12.5C13.6046 0.5 14.5 1.39543 14.5 2.5V12.5C14.5 13.6046 13.6046 14.5 12.5 14.5H2.5C1.39543 14.5 0.5 13.6046 0.5 12.5Z" fill="#E6E6E6"/>
<path d="M2.5 8.5V3.5C2.5 2.94772 2.94772 2.5 3.5 2.5H11.5C12.0523 2.5 12.5 2.94772 12.5 3.5V8.5C12.5 9.05228 12.0523 9.5 11.5 9.5H3.5C2.94772 9.5 2.5 9.05228 2.5 8.5Z" fill="#00A3A3"/>
<path d="M2.5 6.4233C3.16667 5.46644 3.83333 5.46644 4.5 6.4233C5.06856 7.39334 6.04772 7.9956 6.5 6.4233C7.5 1.83974 7.83333 4.53866 8.5 6.4233C9.50715 9.21138 9.84048 8.02932 10.5 6.4233C11.1667 4.81729 11.8333 4.81729 12.5 6.4233" stroke="var(--mw-icon-background-default-white, white)"/>
<path d="M2.5 8.5V3.5C2.5 2.94772 2.94772 2.5 3.5 2.5H11.5C12.0523 2.5 12.5 2.94772 12.5 3.5V8.5C12.5 9.05228 12.0523 9.5 11.5 9.5H3.5C2.94772 9.5 2.5 9.05228 2.5 8.5Z" stroke="#02555C" stroke-linecap="round"/>
<circle cx="4" cy="12" r="1" fill="var(--mw-icon-border-default-gray, #616161)"/>
<circle cx="11" cy="12" r="1" fill="var(--mw-icon-border-default-gray, #616161)"/>
<path d="M0.5 12.5V2.5C0.5 1.39543 1.39543 0.5 2.5 0.5H12.5C13.6046 0.5 14.5 1.39543 14.5 2.5V12.5C14.5 13.6046 13.6046 14.5 12.5 14.5H2.5C1.39543 14.5 0.5 13.6046 0.5 12.5Z" stroke="var(--mw-icon-border-default-gray, #616161)" stroke-linecap="round"/>

</svg>
