<svg width="16" height="16" viewBox="0 0 16 16" fill="none" xmlns="http://www.w3.org/2000/svg">
<path d="M5 3.5V3H6V3.5H5ZM2.5 4.5H2C2 4.22386 2.22386 4 2.5 4V4.5ZM3 5.5V6H2V5.5H3ZM8.5 4.5V4C8.77614 4 9 4.22386 9 4.5H8.5ZM9 5.5V6H8V5.5H9ZM6 3.5V4.5H5V3.5H6ZM5.5 5H2.5V4H5.5V5ZM3 4.5V5.5H2V4.5H3ZM5.5 4H8.5V5H5.5V4ZM9 4.5V5.5H8V4.5H9Z" fill="var(--mw-icon-glyph-disabled-gray, #888889)"/>
<path d="M0.5 8.5V6.5H4.5V8.5H0.5Z" fill="var(--mw-icon-background-medium-yellow, #FFEF91)"/>
<path d="M6.5 8.5V6.5H10.5V8.5H6.5Z" fill="var(--mw-icon-background-medium-yellow, #FFEF91)"/>
<path d="M0.5 8.5V6.5H4.5V8.5H0.5Z" stroke="#674C06" stroke-linecap="square" stroke-linejoin="round"/>
<path d="M6.5 8.5V6.5H10.5V8.5H6.5Z" stroke="#674C06" stroke-linecap="square" stroke-linejoin="round"/>
<path d="M3.5 2.5V0.5H7.5V2.5H3.5Z" fill="var(--mw-icon-background-default-selection, #B4DEFF)" stroke="var(--mw-icon-border-default-blue, #1656A7)" stroke-linecap="square" stroke-linejoin="round"/>
<path d="M7.5 8.5H15.5V15.5H7.5V8.5Z" fill="var(--mw-icon-background-default-white, #FFFFFF)" stroke="var(--mw-icon-border-default-gray, #616161)" stroke-linejoin="round"/>
<path d="M14 13H13V14H14V13Z" fill="#0072BD"/>
<path d="M10 12H9V14H10V12Z" fill="#0072BD"/>
<path d="M12 10H11V14H12V10Z" fill="#0072BD"/>
<path d="M13 12H12V14H13V12Z" fill="#D95319"/>
<path d="M11 11H10V14H11V11Z" fill="#D95319"/>
</svg>
