<svg width="16" height="16" viewBox="0 0 16 16" fill="none" xmlns="http://www.w3.org/2000/svg">
<path d="M0.5 2C0.5 1.17157 1.17157 0.5 2 0.5H13C13.8284 0.5 14.5 1.17157 14.5 2V13C14.5 13.8284 13.8284 14.5 13 14.5H2C1.17157 14.5 0.5 13.8284 0.5 13V2Z" fill="var(--mw-icon-background-default-white, #FFFFFF)" stroke="var(--mw-icon-border-default-gray, #616161)"/>
<path d="M3.5 11.5L7.5 3.5L11.5 11.5" stroke="var(--mw-icon-glyph-content-yellow, #674C07)" stroke-linejoin="round"/>
<path d="M11.955 5.76996C11.5364 6.59157 10.8987 7.2814 10.1125 7.76321C9.32626 8.24501 8.42211 8.50001 7.5 8.50001C6.57789 8.50001 5.67374 8.24501 4.88751 7.76321C4.10128 7.2814 3.4636 6.59157 3.04497 5.76996" stroke="var(--mw-icon-glyph-content-yellow, #674C07)" stroke-linecap="round" stroke-dasharray="1 2"/>
<path d="M4.5 11.5C4.5 12.0523 4.05228 12.5 3.5 12.5C2.94772 12.5 2.5 12.0523 2.5 11.5C2.5 10.9477 2.94772 10.5 3.5 10.5C4.05228 10.5 4.5 10.9477 4.5 11.5Z" fill="var(--mw-icon-background-medium-yellow, #FFEF91)"/>
<path d="M12.5 11.5C12.5 12.0523 12.0523 12.5 11.5 12.5C10.9477 12.5 10.5 12.0523 10.5 11.5C10.5 10.9477 10.9477 10.5 11.5 10.5C12.0523 10.5 12.5 10.9477 12.5 11.5Z" fill="var(--mw-icon-background-medium-yellow, #FFEF91)"/>
<path d="M8.5 3.5C8.5 4.05228 8.05228 4.5 7.5 4.5C6.94772 4.5 6.5 4.05228 6.5 3.5C6.5 2.94772 6.94772 2.5 7.5 2.5C8.05228 2.5 8.5 2.94772 8.5 3.5Z" fill="var(--mw-icon-background-medium-yellow, #FFEF91)"/>
<path d="M4.5 11.5C4.5 12.0523 4.05228 12.5 3.5 12.5C2.94772 12.5 2.5 12.0523 2.5 11.5C2.5 10.9477 2.94772 10.5 3.5 10.5C4.05228 10.5 4.5 10.9477 4.5 11.5Z" stroke="var(--mw-icon-glyph-content-yellow, #674C07)"/>
<path d="M12.5 11.5C12.5 12.0523 12.0523 12.5 11.5 12.5C10.9477 12.5 10.5 12.0523 10.5 11.5C10.5 10.9477 10.9477 10.5 11.5 10.5C12.0523 10.5 12.5 10.9477 12.5 11.5Z" stroke="var(--mw-icon-glyph-content-yellow, #674C07)"/>
<path d="M8.5 3.5C8.5 4.05228 8.05228 4.5 7.5 4.5C6.94772 4.5 6.5 4.05228 6.5 3.5C6.5 2.94772 6.94772 2.5 7.5 2.5C8.05228 2.5 8.5 2.94772 8.5 3.5Z" stroke="var(--mw-icon-glyph-content-yellow, #674C07)"/>
</svg>
