<svg width="16" height="16" viewBox="0 0 16 16" fill="none" xmlns="http://www.w3.org/2000/svg">
<path d="M0.5 12.5V2.5C0.5 1.39543 1.39543 0.5 2.5 0.5H12.5C13.6046 0.5 14.5 1.39543 14.5 2.5V12.5C14.5 13.6046 13.6046 14.5 12.5 14.5H2.5C1.39543 14.5 0.5 13.6046 0.5 12.5Z" fill="#00A3A3"/>
<path d="M7 6L3 13L8.81102 8.1718" stroke="var(--mw-icon-background-default-white, white)" stroke-linecap="square"/>
<path d="M8 6L12 13L6.17188 8.17188" stroke="var(--mw-icon-background-default-white, white)" stroke-linecap="square"/>
<path d="M2.72414 8.05642C2.03525 7.2952 1.60386 6.28332 1.51688 5.20146C1.42991 4.1196 1.6941 3.0518 2.25254 2.1903C2.46711 1.85928 2.71918 1.56766 3.00002 1.32062" stroke="var(--mw-icon-background-default-white, white)" stroke-linecap="round"/>
<path d="M5.24069 2.50635C4.67787 2.70015 4.20266 3.08841 3.90054 3.6013C3.59842 4.11419 3.48923 4.71805 3.59259 5.30427C3.69596 5.89048 4.0051 6.42058 4.46442 6.79921" stroke="var(--mw-icon-background-default-white, white)" stroke-linecap="round"/>
<path d="M12.4753 8.05642C13.1642 7.2952 13.5956 6.28332 13.6826 5.20146C13.7696 4.1196 13.5054 3.0518 12.9469 2.1903C12.7822 1.93621 12.5954 1.70532 12.3905 1.5" stroke="var(--mw-icon-background-default-white, white)" stroke-linecap="round"/>
<path d="M9.95865 2.50635C10.5215 2.70015 10.9967 3.08841 11.2988 3.6013C11.6009 4.11419 11.7101 4.71805 11.6067 5.30427C11.5034 5.89048 11.1942 6.42058 10.7349 6.79921" stroke="var(--mw-icon-background-default-white, white)" stroke-linecap="round"/>
<circle cx="7.50024" cy="4.49976" r="1.5" fill="var(--mw-icon-background-default-white, white)" stroke="var(--mw-icon-background-default-white, white)"/>
<path d="M0.5 12.5V2.5C0.5 1.39543 1.39543 0.5 2.5 0.5H12.5C13.6046 0.5 14.5 1.39543 14.5 2.5V12.5C14.5 13.6046 13.6046 14.5 12.5 14.5H2.5C1.39543 14.5 0.5 13.6046 0.5 12.5Z" stroke="#02555C" stroke-linecap="round"/>

</svg>
