<svg width="16" height="16" viewBox="0 0 16 16" fill="none" xmlns="http://www.w3.org/2000/svg">
<path d="M0.5 3H15.5V14.5C15.5 15.0523 15.0523 15.5 14.5 15.5H1.5C0.947715 15.5 0.5 15.0523 0.5 14.5V3Z" fill="var(--mw-icon-background-default-white, #FFFFFF)" stroke="var(--mw-icon-border-default-gray, #616161)"/>
<path d="M4 13H9V14H4V13Z" fill="var(--mw-icon-glyph-content-gray, #616162)"/>
<path d="M10 13H14V14H10V13Z" fill="var(--mw-icon-glyph-content-gray, #616162)"/>
<circle cx="2.5" cy="13.5" r="0.5" fill="var(--mw-icon-glyph-content-green, #008014)"/>
<path d="M2.5 8.45667C4.33333 7.12333 6.16667 7.12333 8 8.45667C9.83333 9.79 11.6667 9.79 13.5 8.45667" stroke="var(--mw-icon-borderColor-light-blue, #268CDD)" stroke-linecap="round"/>
<path d="M2.5 11.5H13.5V5.5H2.5V11.5Z" stroke="var(--mw-icon-glyph-content-gray, #616162)" stroke-linejoin="round"/>
<path d="M0.5 1.5C0.5 0.947715 0.947715 0.5 1.5 0.5H14.5C15.0523 0.5 15.5 0.947715 15.5 1.5V3.5H0.5V1.5Z" fill="var(--mw-icon-background-default-selection, #B4DEFF)" stroke="var(--mw-icon-border-default-blue, #1656A7)"/>
<path d="M2 2H3V3H2V2Z" fill="var(--mw-icon-glyph-content-light-blue, #278CDD)"/>
<path d="M4 2H5V3H4V2Z" fill="var(--mw-icon-glyph-content-light-blue, #278CDD)"/>
<path d="M13 2H14V3H13V2Z" fill="var(--mw-icon-glyph-content-light-blue, #278CDD)"/>
</svg>
