<svg width="16" height="16" viewBox="0 0 16 16" fill="none" xmlns="http://www.w3.org/2000/svg">
<path d="M0.5 14V2C0.5 1.17157 1.17157 0.5 2 0.5H14C14.8284 0.5 15.5 1.17157 15.5 2V14C15.5 14.8284 14.8284 15.5 14 15.5H2C1.17157 15.5 0.5 14.8284 0.5 14Z" fill="var(--mw-icon-background-default-white, #FFFFFF)" stroke="var(--mw-icon-border-default-gray, #616161)" stroke-linecap="round"/>
<path d="M8.5 12.5078C8.5 11.995 8.89181 11.5 9.36414 11.5H11.6448C12.1171 11.5 12.5 11.995 12.5 12.5078C12.5 13.0206 12.1171 13.5 11.6448 13.5H9.36414C8.89181 13.5 8.5 13.0206 8.5 12.5078Z" fill="var(--mw-icon-background-medium-blue, #83CAFF)" stroke="var(--mw-icon-glyph-content-blue, #1656A8)"/>
<circle cx="4.5" cy="12.5" r="1" fill="var(--mw-icon-background-medium-blue, #83CAFF)" stroke="var(--mw-icon-glyph-content-blue, #1656A8)"/>
<path d="M8 2.5C4.96243 2.5 2.5 4.93756 2.5 7.94444V9C2.5 9.27614 2.72386 9.5 3 9.5H13C13.2761 9.5 13.5 9.27614 13.5 9V7.94444C13.5 6.92818 13.2187 5.97694 12.729 5.16287C11.7698 3.56831 10.0109 2.5 8 2.5Z" fill="var(--mw-icon-background-default-selection, #B4DEFF)"/>
<path d="M12.729 5.16287C11.7698 3.56831 10.0109 2.5 8 2.5C4.96243 2.5 2.5 4.93756 2.5 7.94444V9C2.5 9.27614 2.72386 9.5 3 9.5H13C13.2761 9.5 13.5 9.27614 13.5 9V7.94444C13.5 6.92818 13.2187 5.97694 12.729 5.16287ZM12.729 5.16287L10.5 6.5" stroke="var(--mw-icon-glyph-content-blue, #1656A8)" stroke-linecap="round"/>
<path d="M8.5 3L8.5 4.5" stroke="var(--mw-icon-glyph-content-blue, #1656A8)" stroke-linecap="round"/>
<path d="M8 7L5.5 4.51111" stroke="var(--mw-icon-glyph-content-red, #902623)" stroke-linecap="round"/>
<circle cx="8" cy="7" r="1" fill="var(--mw-icon-glyph-content-gray, #616162)"/>
</svg>
