<svg width="16" height="16" viewBox="0 0 16 16" fill="none" xmlns="http://www.w3.org/2000/svg">
<path d="M5.5 0.5H1.5C0.947715 0.5 0.5 0.947715 0.5 1.5V5.5C0.5 6.05228 0.947715 6.5 1.5 6.5H5.5C6.05228 6.5 6.5 6.05228 6.5 5.5V1.5C6.5 0.947715 6.05228 0.5 5.5 0.5Z" fill="var(--mw-sidebar-icon-fill, #ffffff)"/>
<path d="M13.5 8.5H9.5C8.94772 8.5 8.5 8.94772 8.5 9.5V13.5C8.5 14.0523 8.94772 14.5 9.5 14.5H13.5C14.0523 14.5 14.5 14.0523 14.5 13.5V9.5C14.5 8.94772 14.0523 8.5 13.5 8.5Z" fill="var(--mw-sidebar-icon-fill, #ffffff)"/>
<path d="M13.6213 5.62132C14.7929 4.44975 14.7929 2.55025 13.6213 1.37868C12.4497 0.207107 10.5502 0.207107 9.37866 1.37868C8.2071 2.55025 8.20712 4.44975 9.3787 5.62132C10.5503 6.79289 12.4498 6.79289 13.6213 5.62132Z" fill="var(--mw-sidebar-icon-fill, #ffffff)"/>
<path d="M5.62134 13.6213C6.7929 12.4497 6.79288 10.5503 5.6213 9.37868C4.44972 8.20711 2.55022 8.20711 1.37866 9.37868C0.207098 10.5503 0.207116 12.4497 1.3787 13.6213C2.55028 14.7929 4.44978 14.7929 5.62134 13.6213Z" fill="var(--mw-sidebar-icon-fill, #ffffff)"/>
<path d="M5.5 0.5H1.5C0.947715 0.5 0.5 0.947715 0.5 1.5V5.5C0.5 6.05228 0.947715 6.5 1.5 6.5H5.5C6.05228 6.5 6.5 6.05228 6.5 5.5V1.5C6.5 0.947715 6.05228 0.5 5.5 0.5Z" stroke="var(--mw-sidebar-icon-stroke, #616161)"/>
<path d="M13.5 8.5H9.5C8.94772 8.5 8.5 8.94772 8.5 9.5V13.5C8.5 14.0523 8.94772 14.5 9.5 14.5H13.5C14.0523 14.5 14.5 14.0523 14.5 13.5V9.5C14.5 8.94772 14.0523 8.5 13.5 8.5Z" stroke="var(--mw-sidebar-icon-stroke, #616161)"/>
<path d="M13.6213 5.62132C14.7929 4.44975 14.7929 2.55025 13.6213 1.37868C12.4497 0.207107 10.5502 0.207107 9.37866 1.37868C8.2071 2.55025 8.20712 4.44975 9.3787 5.62132C10.5503 6.79289 12.4498 6.79289 13.6213 5.62132Z" stroke="var(--mw-sidebar-icon-stroke, #616161)"/>
<path d="M5.62134 13.6213C6.7929 12.4497 6.79288 10.5503 5.6213 9.37868C4.44972 8.20711 2.55022 8.20711 1.37866 9.37868C0.207098 10.5503 0.207116 12.4497 1.3787 13.6213C2.55028 14.7929 4.44978 14.7929 5.62134 13.6213Z" stroke="var(--mw-sidebar-icon-stroke, #616161)"/>
</svg>
