<svg width="16" height="16" viewBox="0 0 16 16" fill="none" xmlns="http://www.w3.org/2000/svg">
<path d="M0.5 12.5V2.5C0.5 1.39543 1.39543 0.5 2.5 0.5H12.5C13.6046 0.5 14.5 1.39543 14.5 2.5V12.5C14.5 13.6046 13.6046 14.5 12.5 14.5H2.5C1.39543 14.5 0.5 13.6046 0.5 12.5Z" fill="#00A3A3"/>
<rect x="3" y="2" width="2" height="2" rx="0.5" fill="#FF453A"/>
<rect x="2" y="11" width="5" height="2" rx="0.5" fill="var(--mw-icon-glyph-content-dark-gray, #333333)"/>
<rect x="8" y="11" width="5" height="2" rx="0.5" fill="var(--mw-icon-glyph-content-dark-gray, #333333)"/>
<rect x="3" y="10" width="5" height="3" transform="rotate(-90 3 10)" fill="var(--mw-icon-glyph-content-dark-gray, #333333)"/>
<rect x="2" y="5" width="1" height="1" fill="var(--mw-icon-background-default-white, white)"/>
<rect x="2" y="7" width="1" height="1" fill="var(--mw-icon-background-default-white, white)"/>
<rect x="2" y="9" width="1" height="1" fill="var(--mw-icon-background-default-white, white)"/>
<rect x="6" y="9" width="1" height="1" fill="var(--mw-icon-background-default-white, white)"/>
<rect x="6" y="7" width="1" height="1" fill="var(--mw-icon-background-default-white, white)"/>
<rect x="6" y="5" width="1" height="1" fill="var(--mw-icon-background-default-white, white)"/>
<rect x="8" y="7" width="5" height="2" fill="var(--mw-icon-glyph-content-dark-gray, #333333)"/>
<rect x="13" y="6" width="1" height="1" transform="rotate(90 13 6)" fill="var(--mw-icon-background-default-white, white)"/>
<rect x="11" y="6" width="1" height="1" transform="rotate(90 11 6)" fill="var(--mw-icon-background-default-white, white)"/>
<rect x="9" y="6" width="1" height="1" transform="rotate(90 9 6)" fill="var(--mw-icon-background-default-white, white)"/>
<rect x="9" y="9" width="1" height="1" transform="rotate(90 9 9)" fill="var(--mw-icon-background-default-white, white)"/>
<rect x="11" y="9" width="1" height="1" transform="rotate(90 11 9)" fill="var(--mw-icon-background-default-white, white)"/>
<rect x="13" y="9" width="1" height="1" transform="rotate(90 13 9)" fill="var(--mw-icon-background-default-white, white)"/>
<path d="M10.4661 3.77305L10.3601 3.5L10.4661 3.22695C10.6229 2.82302 11.1084 2.5 11.5577 2.5C12.0598 2.5 12.5 2.92905 12.5 3.5C12.5 4.07095 12.0598 4.5 11.5577 4.5C11.1084 4.5 10.6229 4.17698 10.4661 3.77305ZM9.63989 3.5L9.53388 3.77306C9.37707 4.17698 8.89161 4.5 8.44231 4.5C7.94019 4.5 7.5 4.07095 7.5 3.5C7.5 2.92905 7.94019 2.5 8.44231 2.5C8.89161 2.5 9.37707 2.82302 9.53388 3.22694L9.63989 3.5Z" stroke="var(--mw-icon-background-default-white, white)"/>
<path d="M0.5 12.5V2.5C0.5 1.39543 1.39543 0.5 2.5 0.5H12.5C13.6046 0.5 14.5 1.39543 14.5 2.5V12.5C14.5 13.6046 13.6046 14.5 12.5 14.5H2.5C1.39543 14.5 0.5 13.6046 0.5 12.5Z" stroke="#02555C" stroke-linecap="round"/>

</svg>
