<svg width="16" height="16" viewBox="0 0 16 16" fill="none" xmlns="http://www.w3.org/2000/svg">
<path d="M0.5 1.5C0.5 0.947715 0.947715 0.5 1.5 0.5H14.5C15.0523 0.5 15.5 0.947715 15.5 1.5V14.5C15.5 15.0523 15.0523 15.5 14.5 15.5H1.5C0.947715 15.5 0.5 15.0523 0.5 14.5V1.5Z" fill="var(--mw-icon-background-default-white, #FFFFFF)" stroke="var(--mw-icon-border-default-gray, #616161)"/>
<path d="M6.33484 5.37106C7.06141 5.09736 7.47923 5 7.78644 5C7.88333 5 7.98158 5.0184 8.07443 5.07328C8.16703 5.12801 8.23927 5.21017 8.29824 5.31186C8.41077 5.50589 8.49286 5.80404 8.57565 6.22402L8.6258 6.4728C8.92793 6.01295 9.18212 5.67593 9.41655 5.4428C9.71833 5.14269 10.0024 5 10.3254 5C10.506 5 10.6742 5.05922 10.8 5.177C10.9276 5.29651 11 5.46614 11 5.65791C11 5.83356 10.9434 5.9962 10.8352 6.11625C10.7264 6.237 10.5754 6.30342 10.4084 6.30342C10.2517 6.30342 10.1318 6.23255 10.0509 6.18482L10.0316 6.17345C9.94686 6.12411 9.88409 6.09275 9.7915 6.09275L9.79519 6.0928C9.79519 6.0928 9.76897 6.09998 9.71038 6.14943C9.64648 6.20336 9.5662 6.28968 9.47106 6.41205C9.28836 6.64702 9.06676 6.99414 8.81959 7.44187C8.82671 7.52158 8.84987 7.6664 8.90612 7.90141L8.90661 7.90348L9.28577 9.56194L9.28602 9.56296C9.32567 9.72834 9.36589 9.82507 9.40198 9.87726C9.43128 9.91964 9.44704 9.91964 9.45923 9.91964C9.47823 9.91964 9.50787 9.9162 9.57178 9.85866C9.64138 9.79599 9.73166 9.68717 9.86779 9.50176C9.90309 9.45258 9.93275 9.41026 9.96055 9.37058L9.96057 9.37056C10.012 9.29711 10.0572 9.23273 10.12 9.15072L10.1669 9.0895C10.1982 9.04854 10.2556 9.03817 10.2993 9.06557L10.6251 9.26972C10.6717 9.2989 10.686 9.36019 10.6571 9.40696L10.6015 9.49703C10.2577 10.0543 9.99737 10.4268 9.75867 10.6593C9.50885 10.9026 9.27484 11 8.9966 11C8.76594 11 8.56936 10.9291 8.41586 10.7428C8.27472 10.5714 8.1863 10.3206 8.11384 10.0054L7.86506 8.93912L7.05901 10.0776C6.79562 10.4465 6.58943 10.6809 6.39075 10.8199C6.18028 10.9671 5.98936 11 5.78138 11C5.56761 11 5.37226 10.9424 5.2268 10.8147C5.07713 10.6833 5 10.4946 5 10.2801C5 9.93469 5.23891 9.63462 5.59156 9.63462C5.74886 9.63462 5.90367 9.7066 6.05943 9.7942L6.0671 9.79852C6.11497 9.82852 6.16179 9.85055 6.20198 9.86454C6.23613 9.87643 6.26007 9.88081 6.27264 9.88205C6.27666 9.88034 6.28453 9.87657 6.29666 9.86878C6.32426 9.85104 6.36146 9.82046 6.40759 9.77364C6.49958 9.68031 6.61047 9.53955 6.73134 9.3592L7.65526 7.99405L7.34232 6.5465C7.30119 6.36244 7.26628 6.22331 7.23326 6.11822C7.19975 6.0116 7.1715 5.95096 7.14788 5.91558C7.1277 5.88536 7.11325 5.87678 7.10006 5.87148C7.0804 5.86359 7.04716 5.8573 6.97967 5.8573C6.91025 5.8573 6.78771 5.87628 6.56542 5.93733L6.25199 6.02827C6.19921 6.04358 6.14409 6.01338 6.13172 5.95984C6.11704 5.89633 6.10132 5.81307 6.1013 5.74776C6.10127 5.62526 6.0708 5.56428 6.15662 5.48167C6.2113 5.42904 6.33484 5.37106 6.33484 5.37106Z" fill="var(--mw-icon-glyph-content-gray, #616162)"/>
<path d="M5 4.13647V4.21323C5 4.21323 5 4.21465 5 4.21749C5 4.26866 4.89922 4.39944 4.69767 4.60982C4.19535 5.1386 3.81705 5.71714 3.56279 6.34542C3.1938 7.26938 3.0093 8.172 3.0093 9.05331C3.0093 9.93462 3.16589 10.6681 3.47907 11.2537C3.66512 11.5949 3.75814 11.7726 3.75814 11.7868C3.75814 11.9289 3.68372 12 3.53488 12H3.44651C3.31318 12 3.1814 11.9332 3.05116 11.7996C2.7969 11.5409 2.58605 11.231 2.4186 10.8699C2.13953 10.2672 2 9.63185 2 8.96376V8.78039C2 8.32837 2.07132 7.85218 2.21395 7.35182C2.51163 6.30847 3.03721 5.40441 3.7907 4.63967C4.2124 4.21323 4.52558 4.00001 4.73023 4.00001H4.81395C4.93798 4.00001 5 4.04549 5 4.13647Z" fill="var(--mw-icon-glyph-content-gray, #616162)"/>
<path d="M11.2087 12C11.0696 12 11 11.9318 11 11.7953C11 11.7555 11.1005 11.6233 11.3014 11.3987C11.5023 11.177 11.7017 10.9296 11.8995 10.6567C12.1005 10.3838 12.2937 10.0114 12.4791 9.53945C12.8223 8.68089 12.9938 7.79816 12.9938 6.89127C12.9938 6.88274 12.9938 6.87421 12.9938 6.86568C12.9938 5.95026 12.7944 5.16703 12.3957 4.516C12.3029 4.36248 12.2566 4.2644 12.2566 4.22176C12.2566 4.07392 12.3416 4.00001 12.5116 4.00001C12.6847 4.00001 12.8315 4.06113 12.9521 4.18338C13.1777 4.41081 13.3756 4.6951 13.5456 5.03626C13.8485 5.63896 14 6.26866 14 6.92538V7.29212C14 7.77542 13.9134 8.27861 13.7403 8.80171C13.3941 9.85928 12.8655 10.7264 12.1546 11.403C11.7342 11.801 11.4189 12 11.2087 12Z" fill="var(--mw-icon-glyph-content-gray, #616162)"/>
</svg>
