<svg width="16" height="16" viewBox="0 0 16 16" fill="none" xmlns="http://www.w3.org/2000/svg">
<path d="M5.5 2.5C5.5 1.94772 5.94772 1.5 6.5 1.5H14.5C15.0523 1.5 15.5 1.94772 15.5 2.5V10.5C15.5 11.0523 15.0523 11.5 14.5 11.5H6.5C5.94772 11.5 5.5 11.0523 5.5 10.5V2.5Z" fill="var(--mw-icon-background-default-white, #FFFFFF)" stroke="var(--mw-icon-border-default-gray, #616161)"/>
<path d="M10.4999 4.5H12.4999V7.5" stroke="var(--mw-icon-glyph-disabled-gray, #888889)" stroke-linecap="square"/>
<path d="M10 6.5C10 6.22386 10.2239 6 10.5 6H13.5C13.7761 6 14 6.22386 14 6.5V9.5C14 9.77614 13.7761 10 13.5 10H10.5C10.2239 10 10 9.77614 10 9.5V6.5Z" fill="var(--mw-icon-alert-red, #B7313C)"/>
<path d="M7 7V2L11 4.5L7 7Z" fill="var(--mw-icon-glyph-content-blue, #1656A8)"/>
<path d="M0.5 7.5L0.5 11.5H4.5V14.5L10.5 9.5L4.5 4.5V7.5L0.5 7.5Z" fill="var(--mw-icon-background-default-action, #CBFFBE)" stroke="var(--mw-icon-border-default-green, #008013)"/>
</svg>
