<svg width="16" height="16" viewBox="0 0 16 16" fill="none" xmlns="http://www.w3.org/2000/svg">
<path d="M3.5 1C3.5 0.723858 3.72386 0.5 4 0.5H15C15.2761 0.5 15.5 0.723858 15.5 1V6C15.5 6.27614 15.2761 6.5 15 6.5H4C3.72386 6.5 3.5 6.27614 3.5 6V1Z" fill="var(--mw-icon-background-default-light-gray, #F5F5F5)" stroke="var(--mw-icon-border-default-gray, #616161)" stroke-linejoin="round"/>
<path d="M5.5 2.5V4.5" stroke="var(--mw-icon-glyph-content-gray, #616162)" stroke-linecap="square" stroke-linejoin="round"/>
<path d="M8.5 4.5V2.5H7.5V4.5H8.5Z" stroke="var(--mw-icon-glyph-content-gray, #616162)" stroke-linecap="round" stroke-linejoin="round"/>
<path d="M11.5 4.5V2.5H10.5V4.5H11.5Z" stroke="var(--mw-icon-glyph-content-gray, #616162)" stroke-linecap="round" stroke-linejoin="round"/>
<rect width="2" height="1" transform="matrix(-1 0 0 1 15 4)" fill="var(--mw-icon-background-default-dark-gray, #A6A6A6)"/>
<path d="M11.5 11.5V7.5H7.5V4.5L1 9.5L7.5 14.5V11.5H11.5Z" fill="var(--mw-icon-background-default-action, #CBFFBE)"/>
<path d="M11.5 11.5V7.5H7.5V4.5L1 9.5L7.5 14.5V11.5H11.5Z" stroke="var(--mw-icon-border-default-green, #008013)"/>
</svg>
