<svg width="16" height="16" viewBox="0 0 16 16" fill="none" xmlns="http://www.w3.org/2000/svg">
<path d="M0.5 12.5V2.5C0.5 1.39543 1.39543 0.5 2.5 0.5H12.5C13.6046 0.5 14.5 1.39543 14.5 2.5V12.5C14.5 13.6046 13.6046 14.5 12.5 14.5H2.5C1.39543 14.5 0.5 13.6046 0.5 12.5Z" fill="#00A3A3"/>
<path d="M1.00085 10.0005V11.0005H14.0009V10.0005H1.00085Z" fill="var(--mw-icon-background-default-white, white)"/>
<path d="M12.0018 8.00024V5.88024C12.0018 4.29024 11.1018 3.00024 10.0018 3.00024C8.90183 3.00024 8.00183 4.29024 8.00183 5.88024V8.00024" stroke="var(--mw-icon-background-default-white, white)" stroke-miterlimit="10"/>
<path d="M13.0018 7.50024V6.50024C13.0018 5.94796 12.5541 5.50024 12.0018 5.50024C11.4495 5.50024 11.0018 5.94796 11.0018 6.50024V7.50024C11.0018 8.05253 11.4495 8.50024 12.0018 8.50024C12.5541 8.50024 13.0018 8.05253 13.0018 7.50024Z" fill="var(--mw-icon-background-default-white, white)"/>
<path d="M9.00183 7.50024V6.50024C9.00183 5.94796 8.55412 5.50024 8.00183 5.50024C7.44955 5.50024 7.00183 5.94796 7.00183 6.50024V7.50024C7.00183 8.05253 7.44955 8.50024 8.00183 8.50024C8.55412 8.50024 9.00183 8.05253 9.00183 7.50024Z" fill="var(--mw-icon-background-default-white, white)"/>
<rect x="3" y="7.99927" width="2" height="5" rx="0.5" fill="var(--mw-icon-background-default-white, white)"/>
<path d="M0.5 12.5V2.5C0.5 1.39543 1.39543 0.5 2.5 0.5H12.5C13.6046 0.5 14.5 1.39543 14.5 2.5V12.5C14.5 13.6046 13.6046 14.5 12.5 14.5H2.5C1.39543 14.5 0.5 13.6046 0.5 12.5Z" stroke="#02555C" stroke-linecap="round"/>

</svg>
