<svg width="16" height="16" viewBox="0 0 16 16" fill="none" xmlns="http://www.w3.org/2000/svg">
<path d="M0.5 12.5V2.5C0.5 1.39543 1.39543 0.5 2.5 0.5H12.5C13.6046 0.5 14.5 1.39543 14.5 2.5V12.5C14.5 13.6046 13.6046 14.5 12.5 14.5H2.5C1.39543 14.5 0.5 13.6046 0.5 12.5Z" fill="#00A3A3"/>
<rect x="2.5" y="2.5" width="4" height="10" stroke="var(--mw-icon-background-default-white, white)"/>
<path d="M5 10V4" stroke="var(--mw-icon-background-default-white, white)"/>
<path d="M4 9V6" stroke="var(--mw-icon-background-default-white, white)"/>
<path d="M11.5 5V10" stroke="var(--mw-icon-background-default-white, white)"/>
<path d="M9.5 5V10" stroke="var(--mw-icon-background-default-white, white)"/>
<path d="M10.5 3V12" stroke="var(--mw-icon-background-default-white, white)"/>
<path d="M1 7.5H14" stroke="var(--mw-icon-background-default-white, white)"/>
<path d="M0.5 12.5V2.5C0.5 1.39543 1.39543 0.5 2.5 0.5H12.5C13.6046 0.5 14.5 1.39543 14.5 2.5V12.5C14.5 13.6046 13.6046 14.5 12.5 14.5H2.5C1.39543 14.5 0.5 13.6046 0.5 12.5Z" stroke="#02555C" stroke-linecap="round"/>

</svg>
