<svg width="16" height="16" viewBox="0 0 16 16" fill="none" xmlns="http://www.w3.org/2000/svg">
<path d="M1.5 15.5V6.5H14.5V15.5H1.5Z" fill="var(--mw-icon-background-default-white, #FFFFFF)" stroke="var(--mw-icon-border-default-gray, #616161)" stroke-linecap="square" stroke-linejoin="round"/>
<path d="M2 7H14V12H2V7Z" fill="var(--mw-icon-background-default-selection, #B4DEFF)"/>
<path d="M11 12H12V15H11V12Z" fill="var(--mw-icon-glyph-content-gray, #616162)"/>
<path d="M13 12H14V15H13V12Z" fill="var(--mw-icon-glyph-content-gray, #616162)"/>
<path d="M12 14H13V15H12V14Z" fill="var(--mw-icon-glyph-content-gray, #616162)"/>
<path d="M8 13H9V15H8V13Z" fill="var(--mw-icon-glyph-content-gray, #616162)"/>
<path d="M7 12H10V13H7V12Z" fill="var(--mw-icon-glyph-content-gray, #616162)"/>
<path d="M4.5 14L3 13H4.5L6 14H4.5Z" fill="var(--mw-icon-glyph-content-gray, #616162)"/>
<path d="M3 12H6V13H3V12Z" fill="var(--mw-icon-glyph-content-gray, #616162)"/>
<path d="M3 14H6V15H3V14Z" fill="var(--mw-icon-glyph-content-gray, #616162)"/>
<path d="M4.5 10L3 9H4.5L6 10H4.5Z" fill="var(--mw-icon-borderColor-light-blue, #268CDD)"/>
<path d="M8 9H9V11H8V9Z" fill="var(--mw-icon-glyph-content-dark-blue, #104280)"/>
<path d="M11 8H12V11H11V8Z" fill="var(--mw-icon-glyph-content-dark-blue, #104280)"/>
<path d="M13 8H14V11H13V8Z" fill="var(--mw-icon-glyph-content-dark-blue, #104280)"/>
<path d="M12 8H13V9H12V8Z" fill="var(--mw-icon-glyph-content-dark-blue, #104280)"/>
<path d="M12 10H13V11H12V10Z" fill="var(--mw-icon-glyph-content-dark-blue, #104280)"/>
<path d="M7 8H10V9H7V8Z" fill="var(--mw-icon-glyph-content-dark-blue, #104280)"/>
<path d="M3 8H6V9H3V8Z" fill="var(--mw-icon-glyph-content-dark-blue, #104280)"/>
<path d="M3 10H6V11H3V10Z" fill="var(--mw-icon-glyph-content-dark-blue, #104280)"/>
<path d="M0.5 6.5V0.5H15.5V6.5H0.5Z" fill="white" stroke="var(--mw-icon-border-default-gray, #616161)" stroke-linecap="square" stroke-linejoin="round"/>
<rect x="10" y="1" width="1" height="5" fill="var(--mw-icon-borderColor-light-blue, #268CDD)"/>
<path d="M7 3H8V5H7V3Z" fill="var(--mw-icon-glyph-content-gray, #616162)"/>
<path d="M6 2H9V3H6V2Z" fill="var(--mw-icon-glyph-content-gray, #616162)"/>
<path d="M3.5 4L2 3H3.5L5 4H3.5Z" fill="var(--mw-icon-glyph-content-gray, #616162)"/>
<path d="M2 2H5V3H2V2Z" fill="var(--mw-icon-glyph-content-gray, #616162)"/>
<path d="M2 4H5V5H2V4Z" fill="var(--mw-icon-glyph-content-gray, #616162)"/>
</svg>
