<svg width="16" height="16" viewBox="0 0 16 16" fill="none" xmlns="http://www.w3.org/2000/svg">
<path d="M13.5 2.5H2.5" stroke="#3AC831" stroke-linecap="round"/>
<path d="M13 5V0L16 2.5L13 5Z" fill="#3AC831"/>
<path d="M2.5 14.5V2.49998" stroke="#FF453A" stroke-linecap="round" stroke-linejoin="round"/>
<path d="M5 13L0 13L2.5 16L5 13Z" fill="#FF453A"/>
<path d="M7.5 12.4451L8.50658 11H9.46711L8.01974 12.9835L9.5 15H8.52961L7.5 13.533L6.46711 15H5.5L6.98355 12.9835L5.53289 11H6.49342L7.5 12.4451Z" fill="var(--mw-icon-object-primary, #616160)"/>
<path d="M13.0016 7.8956L14.0902 6H15L13.4143 8.52747V10H12.589V8.52747L11 6H11.9131L13.0016 7.8956Z" fill="var(--mw-icon-object-primary, #616160)"/>
</svg>
