<svg width="16" height="16" viewBox="0 0 16 16" fill="none" xmlns="http://www.w3.org/2000/svg">
<rect width="15" height="15" transform="translate(0.5 0.5)" fill="var(--mw-icon-background-default-white, #FFFFFF)"/>
<rect width="15" height="15" transform="translate(0.5 0.5)" fill="black" fill-opacity="0.2"/>
<path d="M0.5 2.5C0.5 1.39543 1.39543 0.5 2.5 0.5H13.5C14.6046 0.5 15.5 1.39543 15.5 2.5V13.5C15.5 14.6046 14.6046 15.5 13.5 15.5H2.5C1.39543 15.5 0.5 14.6046 0.5 13.5V2.5Z" fill="white"/>
<path d="M2.5 14.5H1.5L2.5 15.5H13.5L14.5 14.5H13.5V10C13.5 6.96243 11.0376 4.5 8 4.5C4.96243 4.5 2.5 6.96243 2.5 10V14.5Z" fill="#4DBEEE" stroke="#0072BD"/>
<path d="M0.5 2.5C0.5 1.39543 1.39543 0.5 2.5 0.5H13.5C14.6046 0.5 15.5 1.39543 15.5 2.5V13.5C15.5 14.6046 14.6046 15.5 13.5 15.5H2.5C1.39543 15.5 0.5 14.6046 0.5 13.5V2.5Z" stroke="var(--mw-icon-border-default-gray, #616161)" stroke-linejoin="round"/>
</svg>
