<svg width="16" height="16" viewBox="0 0 16 16" fill="none" xmlns="http://www.w3.org/2000/svg">
<path d="M0.5 13.5V1.5C0.5 0.947715 0.947716 0.5 1.5 0.5H13.5C14.0523 0.5 14.5 0.947716 14.5 1.5V13.5C14.5 14.0523 14.0523 14.5 13.5 14.5H1.5C0.947715 14.5 0.5 14.0523 0.5 13.5Z" fill="var(--mw-icon-background-default-white, #FFFFFF)" stroke="var(--mw-icon-border-default-gray, #616161)" stroke-linecap="round"/>
<path d="M1 3H12V5H1V3Z" fill="#1171BE"/>
<path d="M1 9H5V11H1V9Z" fill="#1171BE"/>
<path d="M9 6H1V8H9V6Z" fill="#1171BE"/>
<path d="M1 3H8V5H1V3Z" fill="#DD5400"/>
<path d="M1 6H5V8H1V6Z" fill="#DD5400"/>
<path d="M1 9H2V11H1V9Z" fill="#DD5400"/>
</svg>
