<svg width="16" height="16" viewBox="0 0 16 16" fill="none" xmlns="http://www.w3.org/2000/svg">
<path d="M0.5 13.5V1.5C0.5 0.947715 0.947716 0.5 1.5 0.5H13.5C14.0523 0.5 14.5 0.947716 14.5 1.5V13.5C14.5 14.0523 14.0523 14.5 13.5 14.5H1.5C0.947715 14.5 0.5 14.0523 0.5 13.5Z" fill="var(--mw-icon-background-default-white, #FFFFFF)" stroke="var(--mw-icon-border-default-gray, #616161)" stroke-linecap="square"/>
<path d="M12.5909 2.5L12.5855 3.08645C12.5381 8.29921 8.29891 12.5 3.08593 12.5H2.49988" stroke="#0072BD" stroke-linecap="square"/>
<path d="M10.5 4.5C10.5 5.05228 10.0523 5.5 9.5 5.5C8.94772 5.5 8.5 5.05228 8.5 4.5C8.5 3.94772 8.94772 3.5 9.5 3.5C10.0523 3.5 10.5 3.94772 10.5 4.5Z" fill="white"/>
<path d="M12.5 10.5C12.5 11.0523 12.0523 11.5 11.5 11.5C10.9477 11.5 10.5 11.0523 10.5 10.5C10.5 9.94772 10.9477 9.5 11.5 9.5C12.0523 9.5 12.5 9.94772 12.5 10.5Z" fill="white"/>
<path d="M4.5 10.5C4.5 11.0523 4.05228 11.5 3.5 11.5C2.94772 11.5 2.5 11.0523 2.5 10.5C2.5 9.94772 2.94772 9.5 3.5 9.5C4.05228 9.5 4.5 9.94772 4.5 10.5Z" fill="white"/>
<path d="M10.5 4.5C10.5 5.05228 10.0523 5.5 9.5 5.5C8.94772 5.5 8.5 5.05228 8.5 4.5C8.5 3.94772 8.94772 3.5 9.5 3.5C10.0523 3.5 10.5 3.94772 10.5 4.5Z" stroke="var(--mw-icon-glyph-content-gray, #616162)"/>
<path d="M12.5 10.5C12.5 11.0523 12.0523 11.5 11.5 11.5C10.9477 11.5 10.5 11.0523 10.5 10.5C10.5 9.94772 10.9477 9.5 11.5 9.5C12.0523 9.5 12.5 9.94772 12.5 10.5Z" stroke="var(--mw-icon-glyph-content-gray, #616162)"/>
<path d="M4.5 10.5C4.5 11.0523 4.05228 11.5 3.5 11.5C2.94772 11.5 2.5 11.0523 2.5 10.5C2.5 9.94772 2.94772 9.5 3.5 9.5C4.05228 9.5 4.5 9.94772 4.5 10.5Z" stroke="var(--mw-icon-glyph-content-gray, #616162)"/>
</svg>
