<svg width="16" height="16" viewBox="0 0 16 16" fill="none" xmlns="http://www.w3.org/2000/svg">
<path d="M14.5 0.5H1.5C0.947715 0.5 0.5 0.947715 0.5 1.5V14.5C0.5 15.0523 0.947715 15.5 1.5 15.5H14.5C15.0523 15.5 15.5 15.0523 15.5 14.5V1.5C15.5 0.947715 15.0523 0.5 14.5 0.5Z" fill="var(--mw-icon-background-default-white, #FFFFFF)" stroke="var(--mw-icon-border-default-gray, #616161)" stroke-linecap="round"/>
<path d="M7.16393 11.9121H3.8306L3.08197 14H2L5.03825 6H5.95628L9 14H7.9235L7.16393 11.9121ZM4.14754 11.044H6.85246L5.49727 7.3022L4.14754 11.044Z" fill="var(--mw-icon-glyph-content-gray, #616162)"/>
<path d="M8 6L11 2L14 6L12 6L12 8L10 8L10 6L8 6Z" fill="var(--mw-icon-glyph-content-green, #008014)"/>
</svg>
