<svg width="16" height="16" viewBox="0 0 16 16" fill="none" xmlns="http://www.w3.org/2000/svg">
<path d="M0.5 12.5V2.5C0.5 1.39543 1.39543 0.5 2.5 0.5H12.5C13.6046 0.5 14.5 1.39543 14.5 2.5V12.5C14.5 13.6046 13.6046 14.5 12.5 14.5H2.5C1.39543 14.5 0.5 13.6046 0.5 12.5Z" fill="var(--mw-icon-background-default-white, #FFFFFF)" stroke="#3AC831" stroke-linecap="round"/>
<path d="M1 2.5H14M1 5.5H14M1 8.5H14M13.5 1L13.5 14M9.5 1L9.5 14M1.5 1L1.5 14M5.5 1L5.5 14" stroke="var(--mw-icon-background-default-medium-gray, #D9D9D9)" stroke-linecap="square"/>
<path d="M2 6H5V14H2V6Z" fill="var(--mw-icon-glyph-content-dark-blue, #104280)"/>
<path d="M6 3H9V14H6V3Z" fill="var(--mw-icon-glyph-content-dark-blue, #104280)"/>
<path d="M10 9H13V14H10V9Z" fill="var(--mw-icon-glyph-content-dark-blue, #104280)"/>
<path d="M0.5 12.5V2.5C0.5 1.39543 1.39543 0.5 2.5 0.5H12.5C13.6046 0.5 14.5 1.39543 14.5 2.5V12.5C14.5 13.6046 13.6046 14.5 12.5 14.5H2.5C1.39543 14.5 0.5 13.6046 0.5 12.5Z" stroke="#3AC831" stroke-linecap="round"/>
</svg>
