<svg width="16" height="16" viewBox="0 0 16 16" fill="none" xmlns="http://www.w3.org/2000/svg">
<path d="M0.5 12.5V2.5C0.5 1.39543 1.39543 0.5 2.5 0.5H12.5C13.6046 0.5 14.5 1.39543 14.5 2.5V12.5C14.5 13.6046 13.6046 14.5 12.5 14.5H2.5C1.39543 14.5 0.5 13.6046 0.5 12.5Z" fill="var(--mw-icon-background-default-white, white)"/>
<path d="M1 2.5H14" stroke="var(--mw-icon-background-default-medium-gray, #D9D9D9)" stroke-linecap="square"/>
<path d="M1 5.5H14" stroke="var(--mw-icon-background-default-medium-gray, #D9D9D9)" stroke-linecap="square"/>
<path d="M1 11.5H14" stroke="var(--mw-icon-background-default-medium-gray, #D9D9D9)" stroke-linecap="square"/>
<path d="M1 8.5H14" stroke="var(--mw-icon-background-default-medium-gray, #D9D9D9)" stroke-linecap="square"/>
<path d="M13.5 1L13.5 14" stroke="var(--mw-icon-background-default-medium-gray, #D9D9D9)" stroke-linecap="square"/>
<path d="M9.5 1L9.5 14" stroke="var(--mw-icon-background-default-medium-gray, #D9D9D9)" stroke-linecap="square"/>
<path d="M1.5 1L1.5 14" stroke="var(--mw-icon-background-default-medium-gray, #D9D9D9)" stroke-linecap="square"/>
<path d="M5.5 1L5.5 14" stroke="var(--mw-icon-background-default-medium-gray, #D9D9D9)" stroke-linecap="square"/>
<rect x="2" y="6" width="3" height="8" fill="var(--mw-icon-glyph-content-dark-blue, #104280)"/>
<rect x="6" y="3" width="3" height="11" fill="var(--mw-icon-glyph-content-dark-blue, #104280)"/>
<rect x="10" y="9" width="3" height="5" fill="var(--mw-icon-glyph-content-dark-blue, #104280)"/>
<circle cx="3.5" cy="8" r="1" fill="#3AC831"/>
<circle cx="7.5" cy="5" r="1" fill="#3AC831"/>
<circle cx="11.5" cy="4" r="1" fill="#3AC831"/>
<path d="M3.5 8L7.5 5L11.5 4" stroke="#3AC831"/>
<path d="M0.5 12.5V2.5C0.5 1.39543 1.39543 0.5 2.5 0.5H12.5C13.6046 0.5 14.5 1.39543 14.5 2.5V12.5C14.5 13.6046 13.6046 14.5 12.5 14.5H2.5C1.39543 14.5 0.5 13.6046 0.5 12.5Z" stroke="#3AC831" stroke-linecap="round"/>

</svg>
