<svg width="16" height="16" viewBox="0 0 16 16" fill="none" xmlns="http://www.w3.org/2000/svg">
<path d="M0.5 12.5V2.5C0.5 1.39543 1.39543 0.5 2.5 0.5H12.5C13.6046 0.5 14.5 1.39543 14.5 2.5V12.5C14.5 13.6046 13.6046 14.5 12.5 14.5H2.5C1.39543 14.5 0.5 13.6046 0.5 12.5Z" fill="var(--mw-icon-background-default-white, #FFFFFF)"/>
<path d="M5.5 5.5H7.5M7.5 5.5V3.5H8.5M7.5 5.5V7.5H8.5" stroke="#6E0149" stroke-linecap="square" stroke-linejoin="round"/>
<path d="M5.5 4.5H2.5V6.5H5.5V4.5Z" fill="#FBE5F3" stroke="#D1048B" stroke-linecap="square" stroke-linejoin="round"/>
<path d="M12.5 2.5H9.5V4.5H12.5V2.5Z" fill="#FBE5F3" stroke="#D1048B" stroke-linecap="square" stroke-linejoin="round"/>
<path d="M12.5 6.5H9.5V8.5H12.5V6.5Z" fill="#FBE5F3" stroke="#D1048B" stroke-linecap="square" stroke-linejoin="round"/>
<path d="M3 10.5V10H2V10.5H3ZM2 14.5C2 14.7761 2.22386 15 2.5 15C2.77614 15 3 14.7761 3 14.5H2ZM2 10.5V14.5H3V10.5H2Z" fill="var(--mw-icon-background-default-dark-gray, #A6A6A6)"/>
<path d="M5.5 11.5V13.5" stroke="var(--mw-icon-background-default-dark-gray, #A6A6A6)" stroke-linecap="square"/>
<path d="M12.5 11.5V12.5" stroke="var(--mw-icon-background-default-dark-gray, #A6A6A6)" stroke-linecap="square"/>
<path d="M3 14.5C5 14.5 6.57102 13.3068 8.48493 12.2238M8.48493 12.2238C10.0753 11.3239 12 10.5 14 10.5M8.48493 12.2238C5.95466 11.0531 3 9.5 1 9.5M8.48493 12.2238C10.0153 12.9319 12 13.5 14 13.5" stroke="var(--mw-icon-glyph-content-gray, #616162)"/>
<path d="M0.5 12.5V2.5C0.5 1.39543 1.39543 0.5 2.5 0.5H12.5C13.6046 0.5 14.5 1.39543 14.5 2.5V12.5C14.5 13.6046 13.6046 14.5 12.5 14.5H2.5C1.39543 14.5 0.5 13.6046 0.5 12.5Z" stroke="#6E0149" stroke-linecap="round"/>
</svg>
