<svg width="16" height="16" viewBox="0 0 16 16" fill="none" xmlns="http://www.w3.org/2000/svg">
<path d="M13.9066 10.8726C14.0465 11.0254 14.3023 11.046 14.4582 10.9059C14.8969 10.5114 15.2558 10.0473 15.5168 9.53508C15.8342 8.91205 15.9992 8.23292 16 7.54531C16.0008 6.85769 15.8376 6.17823 15.5217 5.55455C15.2619 5.0418 14.9042 4.57696 14.4664 4.18156C14.3109 4.04114 14.055 4.0612 13.9147 4.21371C13.7807 4.3594 13.8027 4.57207 13.95 4.70726C14.311 5.0385 14.6066 5.4258 14.8225 5.85204C15.0911 6.38227 15.2299 6.95993 15.2292 7.54451C15.2284 8.1291 15.0882 8.70647 14.8183 9.23614C14.6014 9.66192 14.3049 10.0486 13.9431 10.3791C13.7954 10.514 13.7729 10.7266 13.9066 10.8726Z" fill="var(--mw-icon-borderColor-light-blue, #268CDD)"/>
<path d="M12.208 9.9967C12.3839 10.0965 12.629 10.0765 12.7616 9.9417C13.4531 9.23894 13.8239 8.40063 13.818 7.54009C13.8122 6.67931 13.4297 5.84335 12.7283 5.14523C12.594 5.01165 12.349 4.99356 12.1746 5.09451C11.9727 5.21132 11.9456 5.43898 12.0946 5.59738C12.635 6.17204 12.9285 6.84806 12.9333 7.54311C12.938 8.23797 12.6539 8.91578 12.1217 9.49401C11.9747 9.6537 12.0046 9.8813 12.208 9.9967Z" fill="var(--mw-icon-borderColor-light-blue, #268CDD)"/>
<path d="M0.5 14.5V1.5C0.5 0.947715 0.947714 0.5 1.5 0.5H9.28261C9.83489 0.5 10.2826 0.947715 10.2826 1.5V14.5C10.2826 15.0523 9.8349 15.5 9.28261 15.5H1.5C0.947715 15.5 0.5 15.0523 0.5 14.5Z" fill="var(--mw-icon-borderColor-light-blue, #268CDD)" stroke="var(--mw-icon-borderColor-light-blue, #268CDD)" stroke-linecap="round"/>
<path d="M2 13V3H5.36189C6.47129 3 7.31569 3.22665 7.89509 3.67995C8.47449 4.13324 8.7642 4.80861 8.7642 5.70604C8.7642 6.16392 8.64293 6.57601 8.40038 6.94231C8.15784 7.30861 7.80302 7.59249 7.3359 7.79396C7.8659 7.94048 8.27462 8.21749 8.56208 8.625C8.85403 9.02793 9 9.51328 9 10.081C9 11.0197 8.70356 11.7408 8.11068 12.2445C7.5223 12.7482 6.6779 13 5.57748 13H2ZM3.70452 8.48764V11.6126H5.59769C6.13218 11.6126 6.54989 11.4776 6.85082 11.2074C7.15175 10.9373 7.30221 10.5618 7.30221 10.081C7.30221 9.04167 6.7812 8.51053 5.73917 8.48764H3.70452ZM3.70452 7.21017H5.37536C5.90536 7.21017 6.31858 7.08883 6.61501 6.84615C6.91594 6.5989 7.06641 6.25092 7.06641 5.8022C7.06641 5.30769 6.92717 4.95055 6.6487 4.73077C6.37472 4.51099 5.94578 4.4011 5.36189 4.4011H3.70452V7.21017Z" fill="var(--mw-icon-background-default-white, #FFFFFF)"/>
</svg>
