<svg width="16" height="16" viewBox="0 0 16 16" fill="none" xmlns="http://www.w3.org/2000/svg">
<path d="M2.5 0.5H13.5V5.5H2.5V0.5Z" fill="var(--mw-icon-background-default-white, #FFFFFF)" stroke="var(--mw-icon-border-default-gray, #616161)" stroke-linejoin="round"/>
<path d="M14.916 1.22265C14.7628 0.992886 14.4524 0.930799 14.2226 1.08397C13.9929 1.23715 13.9308 1.54759 14.084 1.77735L14.916 1.22265ZM15.5 3L15.916 3.27735C16.028 3.1094 16.028 2.8906 15.916 2.72265L15.5 3ZM14.084 4.22265C13.9308 4.45241 13.9929 4.76285 14.2226 4.91603C14.4524 5.0692 14.7628 5.00711 14.916 4.77735L14.084 4.22265ZM14.084 1.77735L15.084 3.27735L15.916 2.72265L14.916 1.22265L14.084 1.77735ZM15.084 2.72265L14.084 4.22265L14.916 4.77735L15.916 3.27735L15.084 2.72265Z" fill="var(--mw-icon-border-default-gray, #616161)"/>
<path d="M0.916025 1.22265C0.762849 0.992886 0.452414 0.930799 0.22265 1.08397C-0.00711447 1.23715 -0.0692014 1.54759 0.0839748 1.77735L0.916025 1.22265ZM1.5 3L1.91603 3.27735C2.02799 3.1094 2.02799 2.8906 1.91603 2.72265L1.5 3ZM0.0839748 4.22265C-0.0692014 4.45241 -0.00711447 4.76285 0.22265 4.91603C0.452414 5.0692 0.762849 5.00711 0.916025 4.77735L0.0839748 4.22265ZM0.0839748 1.77735L1.08397 3.27735L1.91603 2.72265L0.916025 1.22265L0.0839748 1.77735ZM1.08397 2.72265L0.0839748 4.22265L0.916025 4.77735L1.91603 3.27735L1.08397 2.72265Z" fill="var(--mw-icon-border-default-gray, #616161)"/>
<path d="M2.5 10.5H13.5V15.5H2.5V10.5Z" fill="white" stroke="var(--mw-icon-border-disabled-gray, #888888)" stroke-linejoin="round"/>
<path d="M14.916 11.2226C14.7628 10.9929 14.4524 10.9308 14.2226 11.084C13.9929 11.2372 13.9308 11.5476 14.084 11.7774L14.916 11.2226ZM15.5 13L15.916 13.2774C16.028 13.1094 16.028 12.8906 15.916 12.7226L15.5 13ZM14.084 14.2226C13.9308 14.4524 13.9929 14.7628 14.2226 14.916C14.4524 15.0692 14.7628 15.0071 14.916 14.7774L14.084 14.2226ZM14.084 11.7774L15.084 13.2774L15.916 12.7226L14.916 11.2226L14.084 11.7774ZM15.084 12.7226L14.084 14.2226L14.916 14.7774L15.916 13.2774L15.084 12.7226Z" fill="var(--mw-icon-border-disabled-gray, #888888)"/>
<path d="M0.916025 11.2226C0.762849 10.9929 0.452414 10.9308 0.22265 11.084C-0.00711447 11.2372 -0.0692014 11.5476 0.0839748 11.7774L0.916025 11.2226ZM1.5 13L1.91603 13.2774C2.02799 13.1094 2.02799 12.8906 1.91603 12.7226L1.5 13ZM0.0839748 14.2226C-0.0692014 14.4524 -0.00711447 14.7628 0.22265 14.916C0.452414 15.0692 0.762849 15.0071 0.916025 14.7774L0.0839748 14.2226ZM0.0839748 11.7774L1.08397 13.2774L1.91603 12.7226L0.916025 11.2226L0.0839748 11.7774ZM1.08397 12.7226L0.0839748 14.2226L0.916025 14.7774L1.91603 13.2774L1.08397 12.7226Z" fill="var(--mw-icon-border-disabled-gray, #888888)"/>
<path d="M11.5 8.5L8 13.5L4.5 8.5L6.5 8.5L6.5 3.5L9.5 3.5L9.5 8.5L11.5 8.5Z" fill="var(--mw-icon-background-default-selection, #B4DEFF)" stroke="var(--mw-icon-border-default-blue, #1656A7)"/>
</svg>
