<svg width="16" height="16" viewBox="0 0 16 16" fill="none" xmlns="http://www.w3.org/2000/svg">
<path d="M6.99411 2.5H7.0017C7.22777 2.5 7.45702 2.53373 7.67366 2.63434C7.88973 2.73469 8.05829 2.88532 8.19589 3.07173C8.45846 3.42746 8.65 3.97407 8.84319 4.74403L8.96019 5.20013C9.66517 4.35708 10.2583 3.73921 10.8053 3.3118C11.5094 2.7616 12.1722 2.5 12.9259 2.5C13.3472 2.5 13.7398 2.60857 14.0333 2.8245C14.3311 3.0436 14.5 3.35458 14.5 3.70616C14.5 4.02819 14.3679 4.32636 14.1155 4.54646C13.8616 4.76783 13.5092 4.8896 13.1197 4.8896C12.754 4.8896 12.4741 4.75968 12.2855 4.67216L12.2404 4.65132C12.0427 4.56087 11.8928 4.64633 11.98 4.60833C11.98 4.60833 11.8255 4.65338 11.6888 4.74403C11.5397 4.8429 11.2975 5.11091 11.0755 5.33524C10.6492 5.76603 10.4101 6.26249 9.83333 7.08333C9.84996 7.22947 9.83333 7.08333 9.83333 7.54167V8L10.5001 10.8636C10.5927 11.1667 10.6871 11.346 10.7713 11.4417C10.8397 11.5193 10.8764 11.5193 10.9049 11.5193C10.9492 11.5193 11.0184 11.513 11.1675 11.4075C11.3299 11.2926 11.5405 11.0931 11.8582 10.7532C11.9405 10.6631 12.0098 10.5855 12.0746 10.5127L12.0746 10.5127C12.1948 10.378 12.3 10.26 12.4466 10.1097L12.6852 9.86493L13.5 10.4919V11C12.6978 12.0216 12.1605 12.4492 11.6036 12.8754C11.0207 13.3214 10.4746 13.5 9.82539 13.5C9.28719 13.5 8.8285 13.37 8.47035 13.0284C8.14102 12.7143 7.93469 12.2545 7.76563 11.6766L7.5 9.83333L5.51172 12.0483C4.89715 12.7246 4.24798 12.9056 3.78438 13.1603C3.29328 13.4302 2.8085 13.5 2.32323 13.5C1.82441 13.5 1.36862 13.3945 1.0292 13.1603C0.679959 12.9194 0.5 12.5734 0.5 12.1802C0.5 11.5469 1.05745 10.9968 1.8803 10.9968C2.24733 10.9968 2.60856 11.1288 2.972 11.2894L2.9899 11.2973C3.10161 11.3523 3.21085 11.3927 3.30462 11.4183C3.3843 11.4401 3.44016 11.4481 3.4695 11.4504C3.47888 11.4473 3.49724 11.4404 3.52553 11.4261C3.58994 11.3936 3.67673 11.3375 3.78438 11.2517C3.99903 11.0806 4.25776 10.8225 4.5398 10.4919L6.6956 7.98908L5.96541 5.33524C5.86945 4.99781 5.78799 4.74273 5.71094 4.55008C5.63276 4.3546 5.56683 4.24342 5.51172 4.17856C5.46464 4.12316 5.43092 4.10742 5.40014 4.09771C5.35426 4.08324 5.2767 4.07172 5.11924 4.07172C4.95725 4.07172 4.67132 4.10652 4.15264 4.21844L3.5 4.5V3.5V3C5.18937 2.49998 6.27719 2.49999 6.99411 2.5Z" fill="var(--mw-icon-background-default-selection, #B4DEFF)" stroke="var(--mw-icon-border-default-blue, #1656A7)" stroke-linejoin="round"/>
</svg>
