<svg width="17" height="16" viewBox="0 0 17 16" fill="none" xmlns="http://www.w3.org/2000/svg">
<rect x="1.5" y="0.5" width="14" height="14" rx="1" fill="var(--mw-icon-background-default-white, #FFFFFF)"/>
<path d="M2.5 10.5H5.5C7 10.5 9.5 13.5 15 13.5" stroke="#1171BE" stroke-linecap="square" stroke-linejoin="round"/>
<path d="M2.5 5.5H3.5" stroke="var(--mw-icon-background-default-dark-gray, #A6A6A6)" stroke-linecap="square" stroke-linejoin="round"/>
<path d="M5.5 5.5H6.5" stroke="var(--mw-icon-background-default-dark-gray, #A6A6A6)" stroke-linecap="square" stroke-linejoin="round"/>
<path d="M8.5 5.5H9.5" stroke="var(--mw-icon-background-default-dark-gray, #A6A6A6)" stroke-linecap="square" stroke-linejoin="round"/>
<path d="M11.5 5.5H12.5" stroke="var(--mw-icon-background-default-dark-gray, #A6A6A6)" stroke-linecap="square" stroke-linejoin="round"/>
<path d="M14.5 5.5H15" stroke="var(--mw-icon-background-default-dark-gray, #A6A6A6)" stroke-linecap="square" stroke-linejoin="round"/>
<rect x="2" y="1" width="6" height="1" fill="var(--mw-icon-background-medium-yellow, #FFEF91)"/>
<rect x="8" y="1" width="7" height="4" fill="var(--mw-icon-background-medium-yellow, #FFEF91)"/>
<rect x="2" y="2" width="6" height="1" fill="var(--mw-icon-glyph-content-yellow, #674C07)"/>
<path d="M1.5 5.5C4.80119 5.33833 5 4.5 5.5 3.5C8.04324 8.0497 10 7.5 14.5 7.5" stroke="#1171BE" stroke-linecap="square" stroke-linejoin="round"/>
<path d="M2.5 8.5H14.5" stroke="var(--mw-icon-background-default-dark-gray, #A6A6A6)" stroke-linecap="square" stroke-linejoin="round"/>
<rect x="1.5" y="0.5" width="14" height="14" rx="1" stroke="var(--mw-icon-border-default-gray, #616161)"/>
</svg>
