<svg width="16" height="16" viewBox="0 0 16 16" fill="none" xmlns="http://www.w3.org/2000/svg">
<rect x="0.5" y="0.5" width="14" height="14" rx="1" fill="var(--mw-icon-background-default-white, #FFFFFF)" stroke="var(--mw-icon-border-default-gray, #616161)"/>
<rect x="1" y="4" width="5" height="8" fill="var(--mw-icon-background-medium-yellow, #FFEF91)"/>
<rect x="6" y="3" width="8" height="5" fill="var(--mw-icon-background-medium-yellow, #FFEF91)"/>
<rect x="6" y="2" width="8" height="1" fill="#674C06"/>
<rect x="6" y="8" width="8" height="1" fill="#674C06"/>
<rect x="1" y="3" width="5" height="1" fill="#674C06"/>
<rect x="1" y="12" width="5" height="1" fill="#674C06"/>
<path d="M0.5 13.5C0.5 12 1.5 4.5 4 4.5C6.5 4.5 8.5 7.5 10.5 7.5C12.5 7.5 14.5 3.5 14.5 3.5" stroke="#DD5400" stroke-linecap="round"/>
<path d="M0.5 13.5C2.5 3 10.5 3.5 14.5 3.5" stroke="#1171BE"/>
<rect x="0.5" y="0.5" width="14" height="14" rx="1" stroke="var(--mw-icon-border-default-gray, #616161)"/>
</svg>
