<svg width="16" height="16" viewBox="0 0 16 16" fill="none" xmlns="http://www.w3.org/2000/svg">
<path d="M2.50126 5.5H5.00004L10.5 11V13.5131C10.5 14.0602 10.0592 14.5108 9.51337 14.4723C5.27067 14.1728 1.93295 11.5338 1.53898 6.5016C1.49584 5.95052 1.9485 5.5 2.50126 5.5Z" fill="var(--mw-icon-background-default-white, #FFFFFF)"/>
<path d="M3.00004 11L4.50004 9.5M5.49999 13L6.5001 11.5M2.50126 5.5H5.00004L10.5 11V13.5131C10.5 14.0602 10.0592 14.5108 9.51337 14.4723C5.27067 14.1728 1.93295 11.5338 1.53898 6.5016C1.49584 5.95052 1.9485 5.5 2.50126 5.5Z" stroke="var(--mw-icon-border-default-gray, #616161)" stroke-linejoin="round"/>
<path d="M12 2L8.5 5.5H5L10.5 11V7.5L14 4C14.5523 3.44772 14.5523 2.55228 14 2C13.4477 1.44772 12.5523 1.44771 12 2Z" fill="var(--mw-icon-background-medium-yellow, #FFEF91)" stroke="#674C06" stroke-linejoin="round"/>
</svg>
