<svg width="16" height="16" viewBox="0 0 16 16" fill="none" xmlns="http://www.w3.org/2000/svg">
<rect x="0.5" y="0.5" width="14" height="14" rx="1" fill="var(--mw-icon-background-default-white, #FFFFFF)" stroke="var(--mw-icon-border-default-gray, #616161)"/>
<path d="M1.5 7.5H3" stroke="var(--mw-icon-glyph-content-red, #902623)" stroke-linecap="round"/>
<path d="M5 2L6 3" stroke="var(--mw-icon-glyph-content-dark-gray, #333333)" stroke-linecap="round"/>
<path d="M10 2L9 3" stroke="var(--mw-icon-glyph-content-dark-gray, #333333)" stroke-linecap="round"/>
<path d="M12 7.5H13.5" stroke="var(--mw-icon-glyph-content-red, #902623)" stroke-linecap="round"/>
<path d="M11 11L13 13" stroke="var(--mw-icon-glyph-content-red, #902623)" stroke-linecap="round"/>
<path d="M4 11L2 13" stroke="var(--mw-icon-glyph-content-red, #902623)" stroke-linecap="round"/>
<path d="M2.51335 6.9997C2.65357 9.63716 3.9037 12.5 6.5 12.5V6.5H3C2.72386 6.5 2.49869 6.72395 2.51335 6.9997Z" fill="var(--mw-icon-background-red, #FF9D9A)" stroke="var(--mw-icon-glyph-content-red, #902623)"/>
<path d="M12.4867 6.9997C12.3464 9.63716 11.0963 12.5 8.5 12.5V6.5H12C12.2761 6.5 12.5013 6.72395 12.4867 6.9997Z" fill="var(--mw-icon-background-red, #FF9D9A)" stroke="var(--mw-icon-glyph-content-red, #902623)"/>
<path d="M7.5 2.5C5.84315 2.5 4.5 3.84315 4.5 5.5H10.5C10.5 3.84315 9.15685 2.5 7.5 2.5Z" fill="var(--mw-icon-glyph-content-dark-gray, #333333)" stroke="var(--mw-icon-glyph-content-dark-gray, #333333)"/>
</svg>
