<svg width="16" height="16" viewBox="0 0 16 16" fill="none" xmlns="http://www.w3.org/2000/svg">
<path d="M0.5 12V2C0.5 1.72386 0.723858 1.5 1 1.5H11C11.2761 1.5 11.5 1.72386 11.5 2V12C11.5 12.2761 11.2761 12.5 11 12.5H1C0.723858 12.5 0.5 12.2761 0.5 12Z" fill="var(--mw-icon-background-default-white, #FFFFFF)" stroke="var(--mw-icon-border-default-gray, #616161)"/>
<path d="M3.5 2.5V0.5H8.5V2.5H3.5Z" fill="var(--mw-icon-background-default-medium-gray, #D9D9D9)" stroke="var(--mw-icon-border-default-gray, #616161)"/>
<path d="M7.5 11.5H15.5V15.5H11.5H7.5V11.5Z" fill="var(--mw-icon-background-default-selection, #B4DEFF)" stroke="var(--mw-icon-border-default-blue, #1656A7)"/>
<rect x="13" y="13" width="1" height="1" fill="var(--mw-icon-glyph-content-blue, #1656A8)"/>
<rect x="9" y="13" width="1" height="1" fill="var(--mw-icon-glyph-content-blue, #1656A8)"/>
<rect x="11" y="13" width="1" height="1" fill="var(--mw-icon-glyph-content-blue, #1656A8)"/>
<path d="M15 8H16L14 11L12 8H13V6H15V8Z" fill="var(--mw-icon-glyph-content-blue, #1656A8)"/>
<path d="M3.02513 9.97487C3.43212 10.3819 3.93321 10.6822 4.484 10.8493C5.0348 11.0164 5.6183 11.045 6.18282 10.9327C6.74733 10.8205 7.27545 10.5707 7.72038 10.2055C8.1653 9.84039 8.51331 9.37116 8.73358 8.83939C8.95384 8.30763 9.03956 7.72975 8.98315 7.15694C8.92673 6.58413 8.72992 6.03408 8.41014 5.5555C8.09037 5.07693 7.6575 4.6846 7.14989 4.41328C6.64227 4.14195 6.07558 4 5.5 4L5.5 7.5L3.02513 9.97487Z" fill="var(--mw-icon-background-default-selection, #B4DEFF)"/>
<path d="M5.5 4.5V7.49995L3.5 9.5" stroke="var(--mw-icon-glyph-content-gray, #616162)" stroke-linecap="square" stroke-linejoin="round"/>
</svg>
