<svg width="16" height="16" viewBox="0 0 16 16" fill="none" xmlns="http://www.w3.org/2000/svg">
<rect x="0.5" y="0.5" width="14" height="14" rx="2" fill="var(--mw-icon-background-default-white, #FFFFFF)" stroke="var(--mw-icon-border-default-blue, #1656A7)"/>
<path d="M7.5 4.5H9.5" stroke="var(--mw-icon-glyph-content-gray, #616162)" stroke-linecap="square"/>
<path d="M12.5 2.5H10.5V4.5H12.5V2.5Z" fill="var(--mw-icon-background-medium-blue, #83CAFF)"/>
<path d="M12.5 4.5H10.5V6.5H12.5V4.5Z" fill="var(--mw-icon-background-medium-blue, #83CAFF)"/>
<path d="M6.5 2.50002H2.5V6.57144H6.5V2.50002Z" fill="var(--mw-icon-background-medium-blue, #83CAFF)"/>
<path d="M12.5 8.5H2.5V12.5H12.5V8.5Z" fill="var(--mw-icon-background-medium-blue, #83CAFF)"/>
<path d="M10.5 4.5V2.5H12.5V4.5M10.5 4.5H12.5M10.5 4.5V6.5H12.5V4.5M2.5 2.50002H6.5V6.57144H2.5V2.50002ZM12.5 8.5H2.5V12.5H12.5V8.5Z" stroke="var(--mw-icon-glyph-content-dark-blue, #104280)" stroke-linecap="square" stroke-linejoin="round"/>
<rect x="5" y="10" width="1" height="1" fill="var(--mw-icon-glyph-content-dark-blue, #104280)"/>
<rect x="7" y="10" width="1" height="1" fill="var(--mw-icon-glyph-content-dark-blue, #104280)"/>
<rect x="9" y="10" width="1" height="1" fill="var(--mw-icon-glyph-content-dark-blue, #104280)"/>
<rect x="11" y="7" width="1" height="1" fill="var(--mw-icon-glyph-content-gray, #616162)"/>
</svg>
