<svg width="16" height="16" viewBox="0 0 16 16" fill="none" xmlns="http://www.w3.org/2000/svg">
<path d="M14.5 0.5H1.5C0.947715 0.5 0.5 0.947715 0.5 1.5V14.5C0.5 15.0523 0.947715 15.5 1.5 15.5H14.5C15.0523 15.5 15.5 15.0523 15.5 14.5V1.5C15.5 0.947715 15.0523 0.5 14.5 0.5Z" fill="var(--mw-icon-background-default-white, #FFFFFF)" stroke="var(--mw-icon-border-default-gray, #616161)" stroke-linecap="round"/>
<path d="M6.5 3.5H13.5M6.5 7.5H13.5M6.5 11.5H13.5" stroke="var(--mw-icon-glyph-content-gray, #616162)" stroke-linecap="square"/>
<mask id="path-3-inside-1_14848_33408" fill="white">
<path d="M2 3.5C2 2.67157 2.67157 2 3.5 2C4.32843 2 5 2.67157 5 3.5C5 4.32843 4.32843 5 3.5 5C2.67157 5 2 4.32843 2 3.5Z"/>
<path d="M2.00005 7.5C2.00005 6.67157 2.67163 6 3.50005 6C4.32848 6 5.00005 6.67157 5.00005 7.5C5.00005 8.32843 4.32848 9 3.50005 9C2.67163 9 2.00005 8.32843 2.00005 7.5Z"/>
<path d="M2.00005 11.5C2.00005 10.6716 2.67163 10 3.50005 10C4.32848 10 5.00005 10.6716 5.00005 11.5C5.00005 12.3284 4.32848 13 3.50005 13C2.67163 13 2.00005 12.3284 2.00005 11.5Z"/>
</mask>
<path d="M2 3.5C2 2.67157 2.67157 2 3.5 2C4.32843 2 5 2.67157 5 3.5C5 4.32843 4.32843 5 3.5 5C2.67157 5 2 4.32843 2 3.5Z" fill="var(--mw-icon-glyph-content-gray, #616162)"/>
<path d="M2.00005 7.5C2.00005 6.67157 2.67163 6 3.50005 6C4.32848 6 5.00005 6.67157 5.00005 7.5C5.00005 8.32843 4.32848 9 3.50005 9C2.67163 9 2.00005 8.32843 2.00005 7.5Z" fill="var(--mw-icon-glyph-content-gray, #616162)"/>
<path d="M2.00005 11.5C2.00005 10.6716 2.67163 10 3.50005 10C4.32848 10 5.00005 10.6716 5.00005 11.5C5.00005 12.3284 4.32848 13 3.50005 13C2.67163 13 2.00005 12.3284 2.00005 11.5Z" fill="var(--mw-icon-glyph-content-gray, #616162)"/>
<path d="M2 3.5C2 2.67157 2.67157 2 3.5 2C4.32843 2 5 2.67157 5 3.5C5 4.32843 4.32843 5 3.5 5C2.67157 5 2 4.32843 2 3.5Z" stroke="var(--mw-icon-glyph-content-gray, #616162)" stroke-width="2" mask="url(#path-3-inside-1_14848_33408)"/>
<path d="M2.00005 7.5C2.00005 6.67157 2.67163 6 3.50005 6C4.32848 6 5.00005 6.67157 5.00005 7.5C5.00005 8.32843 4.32848 9 3.50005 9C2.67163 9 2.00005 8.32843 2.00005 7.5Z" stroke="var(--mw-icon-glyph-content-gray, #616162)" stroke-width="2" mask="url(#path-3-inside-1_14848_33408)"/>
<path d="M2.00005 11.5C2.00005 10.6716 2.67163 10 3.50005 10C4.32848 10 5.00005 10.6716 5.00005 11.5C5.00005 12.3284 4.32848 13 3.50005 13C2.67163 13 2.00005 12.3284 2.00005 11.5Z" stroke="var(--mw-icon-glyph-content-gray, #616162)" stroke-width="2" mask="url(#path-3-inside-1_14848_33408)"/>
</svg>
