<svg width="16" height="16" viewBox="0 0 16 16" fill="none" xmlns="http://www.w3.org/2000/svg">
<path d="M0.5 6C0.5 5.72386 0.723858 5.5 1 5.5H10C10.2761 5.5 10.5 5.72386 10.5 6V8C10.5 8.27614 10.2761 8.5 10 8.5H1C0.723858 8.5 0.5 8.27614 0.5 8V6Z" fill="var(--mw-icon-background-default-dark-gray, #A6A6A6)" stroke="var(--mw-icon-border-default-gray, #616161)"/>
<path d="M0.5 1C0.5 0.723858 0.723858 0.5 1 0.5H10C10.2761 0.5 10.5 0.723858 10.5 1V3C10.5 3.27614 10.2761 3.5 10 3.5H1C0.723858 3.5 0.5 3.27614 0.5 3V1Z" fill="var(--mw-icon-background-default-light-gray, #F5F5F5)"/>
<path d="M0.5 11C0.5 10.7239 0.723858 10.5 1 10.5H10C10.2761 10.5 10.5 10.7239 10.5 11V13C10.5 13.2761 10.2761 13.5 10 13.5H1C0.723858 13.5 0.5 13.2761 0.5 13V11Z" fill="var(--mw-icon-background-default-light-gray, #F5F5F5)"/>
<path d="M0.5 1C0.5 0.723858 0.723858 0.5 1 0.5H10C10.2761 0.5 10.5 0.723858 10.5 1V3C10.5 3.27614 10.2761 3.5 10 3.5H1C0.723858 3.5 0.5 3.27614 0.5 3V1Z" stroke="var(--mw-icon-glyph-disabled-gray, #888889)"/>
<path d="M0.5 11C0.5 10.7239 0.723858 10.5 1 10.5H10C10.2761 10.5 10.5 10.7239 10.5 11V13C10.5 13.2761 10.2761 13.5 10 13.5H1C0.723858 13.5 0.5 13.2761 0.5 13V11Z" stroke="var(--mw-icon-glyph-disabled-gray, #888889)"/>
<path d="M7.5 7.5L9.41417 14.4631L11.3776 12.4996L14.1456 15.2676C14.4555 15.5775 14.9578 15.5775 15.2676 15.2676C15.5775 14.9578 15.5775 14.4555 15.2676 14.1456L12.4996 11.3776L14.4631 9.41417L7.5 7.5Z" fill="var(--mw-icon-background-default-white, #FFFFFF)" stroke="var(--mw-icon-border-default-gray, #616161)" stroke-linejoin="round"/>
</svg>
