<svg width="16" height="16" viewBox="0 0 16 16" fill="none" xmlns="http://www.w3.org/2000/svg">
<path d="M2.5 15V5.61803C2.5 5.54041 2.51807 5.46385 2.55279 5.39443L4.8618 0.776393C4.9465 0.607001 5.11963 0.5 5.30902 0.5H10.691C10.8804 0.5 11.0535 0.607002 11.1382 0.776394L13.4472 5.39443C13.4819 5.46385 13.5 5.54041 13.5 5.61803V15C13.5 15.2761 13.2761 15.5 13 15.5L7.06522 15.5L3 15.5C2.72386 15.5 2.5 15.2761 2.5 15Z" fill="var(--mw-icon-background-default-selection, #B4DEFF)" stroke="var(--mw-icon-border-default-blue, #1656A7)" stroke-linejoin="round"/>
<rect x="7" y="1" width="2" height="1" fill="var(--mw-icon-glyph-content-blue, #1656A8)"/>
<path d="M9.69277 10.9045H6.29518L5.58434 13H4L7.31325 4H8.68072L12 13H10.4096L9.69277 10.9045ZM6.72289 9.64354H9.26506L7.99398 5.91003L6.72289 9.64354Z" fill="var(--mw-icon-glyph-content-blue, #1656A8)"/>
</svg>
