<svg width="16" height="16" viewBox="0 0 16 16" fill="none" xmlns="http://www.w3.org/2000/svg">
<path d="M10.4595 8.52258H12.0024C11.9927 9.05644 11.8869 9.50891 11.6851 9.88C11.4832 10.2511 11.1968 10.5327 10.8257 10.7247C10.4546 10.9135 10.0151 11.0079 9.50732 11.0079C9.10368 11.0079 8.74561 10.9396 8.43311 10.8029C8.12061 10.6629 7.85531 10.4611 7.63721 10.1974C7.42236 9.93372 7.2596 9.60982 7.14893 9.22571C7.0415 8.84159 6.98779 8.40214 6.98779 7.90735V6.80383C6.98779 6.3123 7.04639 5.87284 7.16357 5.48547C7.28076 5.0981 7.44678 4.77258 7.66162 4.50891C7.87972 4.24198 8.14502 4.04016 8.45752 3.90344C8.77002 3.76672 9.11995 3.69836 9.50732 3.69836C10.0379 3.69836 10.4839 3.79765 10.8452 3.99622C11.2065 4.19478 11.4849 4.48287 11.6802 4.86047C11.8755 5.23808 11.9862 5.69543 12.0122 6.23254H10.4644C10.4676 5.90702 10.4383 5.65312 10.3765 5.47083C10.3179 5.28528 10.2186 5.15507 10.0786 5.0802C9.93864 5.00208 9.74821 4.96301 9.50732 4.96301C9.3348 4.96301 9.18669 4.99556 9.06299 5.06067C8.93929 5.12252 8.84001 5.22506 8.76514 5.36829C8.69027 5.51152 8.63493 5.70032 8.59912 5.93469C8.56331 6.16907 8.54541 6.45553 8.54541 6.79407V7.90735C8.54541 8.24589 8.56006 8.53235 8.58936 8.76672C8.61865 8.99784 8.66911 9.18665 8.74072 9.33313C8.81234 9.47636 8.90999 9.58053 9.03369 9.64563C9.15739 9.71073 9.31527 9.74329 9.50732 9.74329C9.72217 9.74329 9.89958 9.71073 10.0396 9.64563C10.1795 9.57727 10.2837 9.4552 10.3521 9.27942C10.4237 9.10364 10.4595 8.85136 10.4595 8.52258Z" fill="var(--mw-icon-glyph-content-light-blue, #278CDD)"/>
</svg>
