<svg width="16" height="16" viewBox="0 0 16 16" fill="none" xmlns="http://www.w3.org/2000/svg">
<path d="M1.5 14.5V8.5H5.5V14.5H1.5Z" fill="var(--mw-icon-background-default-selection, #B4DEFF)" stroke="var(--mw-icon-border-default-blue, #1656A7)" stroke-linejoin="round"/>
<path d="M10.5 1.5L10.5 7.5L14.5 7.5L14.5 1.5L10.5 1.5Z" fill="var(--mw-icon-background-light-yellow, #FFF5BC)" stroke="#674C06" stroke-linejoin="round"/>
<path d="M7 4V2L10 4.5L7 7L7 5L2 5L2 4L7 4Z" fill="var(--mw-icon-object-primary, #616160)"/>
<path d="M7 4V2L10 4.5L7 7L7 5L2 5L2 4L7 4Z" fill="var(--mw-icon-object-primary, #616160)"/>
<path d="M9 11V9L6 11.5L9 14L9 12L14 12V11H9Z" fill="var(--mw-icon-object-primary, #616160)"/>
<path d="M9 11V9L6 11.5L9 14L9 12L14 12V11H9Z" fill="var(--mw-icon-object-primary, #616160)"/>
</svg>
