<svg width="16" height="16" viewBox="0 0 16 16" fill="none" xmlns="http://www.w3.org/2000/svg">
<path d="M0 14C0 15.1046 0.895431 16 2 16H14C15.1046 16 16 15.1046 16 14V2C16 0.89543 15.1046 0 14 0H2C0.895431 0 0 0.89543 0 2V14Z" fill="var(--mw-icon-background-default-white, #FFFFFF)"/>
<path d="M5.5 12.5C6 12 6.5 11.5 6.5 10.5C6.5 9.5 6 9 5.5 8.5" stroke="var(--mw-icon-glyph-content-gray, #616162)" stroke-linecap="square"/>
<path d="M3.5 15V11" stroke="var(--mw-icon-glyph-content-gray, #616162)"/>
<circle cx="3.5" cy="10.5" r="1.5" fill="var(--mw-icon-glyph-content-gray, #616162)"/>
<path d="M12.5 15V11" stroke="var(--mw-icon-glyph-content-gray, #616162)"/>
<circle cx="1.5" cy="1.5" r="1.5" transform="matrix(-1 0 0 1 14 9)" fill="var(--mw-icon-glyph-content-gray, #616162)"/>
<path d="M1 2.5C2.5 2.5 1.58473 6.5 3.00002 6.5C4.3799 6.5 3.50002 2.5 5.00002 2.5C6.27232 2.5 5.50002 6.5 7.00002 6.5M15 4.5C13.9355 4.5 14.5 6.5 13.5 6.5C12.5 6.5 12.5 4.5 11.5 4.5C10.5 4.5 11 6.5 10 6.5" stroke="#0072BD"/>
<path d="M0.5 14.5C0.5 15.0523 0.947715 15.5 1.5 15.5H14.5C15.0523 15.5 15.5 15.0523 15.5 14.5V1.5C15.5 0.947716 15.0523 0.5 14.5 0.5H1.5C0.947715 0.5 0.5 0.947716 0.5 1.5V14.5Z" stroke="var(--mw-icon-border-default-gray, #616161)"/>
<path d="M8.5 13.5L8.5 2.5" stroke="var(--mw-icon-alert-red, #B7313C)" stroke-linecap="square"/>
</svg>
