<svg width="16" height="16" viewBox="0 0 16 16" fill="none" xmlns="http://www.w3.org/2000/svg">
<path d="M0.5 2.5H12.5V10C12.5 10.2761 12.2761 10.5 12 10.5H1C0.723858 10.5 0.5 10.2761 0.5 10V2.5Z" fill="var(--mw-icon-background-default-white, #FFFFFF)" stroke="var(--mw-icon-border-default-gray, #616161)"/>
<path d="M0.5 1C0.5 0.723858 0.723858 0.5 1 0.5H12C12.2761 0.5 12.5 0.723858 12.5 1V2.5H0.5V1Z" fill="var(--mw-icon-background-default-selection, #B4DEFF)"/>
<path d="M12.5 2.5V3H13V2.5H12.5ZM0.5 2.5H0V3H0.5V2.5ZM1 1H12V0H1V1ZM12 1V2.5H13V1H12ZM12.5 2H0.5V3H12.5V2ZM1 2.5V1H0V2.5H1ZM12 1H12H13C13 0.447715 12.5523 0 12 0V1ZM1 0C0.447715 0 0 0.447715 0 1H1H1V0Z" fill="var(--mw-icon-border-default-blue, #1656A7)"/>
<path d="M4 8H10V9H4V8Z" fill="var(--mw-icon-glyph-content-gray, #616162)"/>
<path d="M4 6H9V7H4V6Z" fill="var(--mw-icon-glyph-content-gray, #616162)"/>
<path d="M10.5 5H11V4H10.5V5ZM4.5 4H4V5H4.5V4ZM2 5H3V4H2V5ZM10.5 4H4.5V5H10.5V4Z" fill="var(--mw-icon-glyph-content-red, #902623)"/>
<rect width="10" height="10" rx="5" transform="matrix(-1 0 0 1 15.5 5.5)" fill="var(--mw-icon-background-default-action, #CBFFBE)" stroke="var(--mw-icon-border-default-green, #008013)"/>
<path d="M8 11L9.5 12.5L12.5 9.5" stroke="var(--mw-icon-glyph-content-green, #008014)" stroke-linecap="round" stroke-linejoin="round"/>
</svg>
