<svg width="16" height="16" viewBox="0 0 16 16" fill="none" xmlns="http://www.w3.org/2000/svg">
<path d="M0.5 1.5C0.5 0.947716 0.947715 0.5 1.5 0.5H14.5C15.0523 0.5 15.5 0.947715 15.5 1.5V13.5C15.5 14.0523 15.0523 14.5 14.5 14.5H1.5C0.947715 14.5 0.5 14.0523 0.5 13.5V1.5Z" fill="var(--mw-icon-background-default-light-gray, #F5F5F5)" stroke="var(--mw-icon-border-default-gray, #616161)"/>
<path d="M3.5 5V7.5M5 11.5H4.5C3.94772 11.5 3.5 11.0523 3.5 10.5V7.5M3.5 7.5H5" stroke="var(--mw-icon-background-default-dark-gray, #A6A6A6)"/>
<path d="M5.5 6.75C5.5 6.61193 5.61193 6.5 5.75 6.5H7.25C7.38807 6.5 7.5 6.61193 7.5 6.75V8.25C7.5 8.38807 7.38807 8.5 7.25 8.5H5.75C5.61193 8.5 5.5 8.38807 5.5 8.25V6.75Z" fill="var(--mw-icon-background-default-dark-gray, #A6A6A6)"/>
<path d="M5.5 10.75C5.5 10.6119 5.61193 10.5 5.75 10.5H7.25C7.38807 10.5 7.5 10.6119 7.5 10.75V12.25C7.5 12.3881 7.38807 12.5 7.25 12.5H5.75C5.61193 12.5 5.5 12.3881 5.5 12.25V10.75Z" fill="var(--mw-icon-background-default-dark-gray, #A6A6A6)"/>
<path d="M5.5 6.75C5.5 6.61193 5.61193 6.5 5.75 6.5H7.25C7.38807 6.5 7.5 6.61193 7.5 6.75V8.25C7.5 8.38807 7.38807 8.5 7.25 8.5H5.75C5.61193 8.5 5.5 8.38807 5.5 8.25V6.75Z" stroke="var(--mw-icon-glyph-content-gray, #616162)" stroke-linejoin="round"/>
<path d="M5.5 10.75C5.5 10.6119 5.61193 10.5 5.75 10.5H7.25C7.38807 10.5 7.5 10.6119 7.5 10.75V12.25C7.5 12.3881 7.38807 12.5 7.25 12.5H5.75C5.61193 12.5 5.5 12.3881 5.5 12.25V10.75Z" stroke="var(--mw-icon-glyph-content-gray, #616162)" stroke-linejoin="round"/>
<path d="M2.5 2.75C2.5 2.61193 2.61193 2.5 2.75 2.5H4.25C4.38807 2.5 4.5 2.61193 4.5 2.75V4.25C4.5 4.38807 4.38807 4.5 4.25 4.5H2.75C2.61193 4.5 2.5 4.38807 2.5 4.25V2.75Z" fill="var(--mw-icon-background-default-action, #CBFFBE)" stroke="var(--mw-icon-glyph-content-green, #008014)" stroke-linejoin="round"/>
<path d="M6.5 3.5H10.5M9.5 7.5H13.5M9.5 11.5H12.5" stroke="var(--mw-icon-background-default-dark-gray, #A6A6A6)" stroke-linecap="square"/>
</svg>
