<svg width="16" height="16" viewBox="0 0 16 16" fill="none" xmlns="http://www.w3.org/2000/svg">
<path d="M4.5 11.5V12.5C4.5 13.0523 4.94772 13.5 5.5 13.5H12.5C13.0523 13.5 13.5 13.0523 13.5 12.5V5.5C13.5 4.94772 13.0523 4.5 12.5 4.5H11.5M2.5 3.5V10.5C2.5 11.0523 2.94772 11.5 3.5 11.5H10.5C11.0523 11.5 11.5 11.0523 11.5 10.5V3.5C11.5 2.94772 11.0523 2.5 10.5 2.5H3.5C2.94772 2.5 2.5 2.94772 2.5 3.5Z" stroke="var(--mw-icon-object-primary, #616160)"/>
<path d="M4.5 7.5L6 9L9.5 5.5" stroke="var(--mw-icon-object-primary, #616160)" stroke-linecap="round" stroke-linejoin="round"/>
</svg>
