<svg width="16" height="16" viewBox="0 0 16 16" fill="none" xmlns="http://www.w3.org/2000/svg">
<path d="M0.5 2C0.5 1.72386 0.723858 1.5 1 1.5H5.08579C5.351 1.5 5.60536 1.60536 5.79289 1.79289L6.20711 2.20711C6.39464 2.39464 6.649 2.5 6.91421 2.5H11C11.2761 2.5 11.5 2.72386 11.5 3V9C11.5 9.27614 11.2761 9.5 11 9.5H1C0.723858 9.5 0.5 9.27614 0.5 9V2Z" fill="var(--mw-icon-background-light-yellow, #FFF5BC)" stroke="#674C06"/>
<rect width="10" height="10" rx="5" transform="matrix(-1 0 0 1 15.5 4.5)" fill="var(--mw-icon-background-default-action, #CBFFBE)" stroke="var(--mw-icon-border-default-green, #008013)"/>
<path d="M8 10L9.5 11.5L12.5 8.5" stroke="var(--mw-icon-glyph-content-green, #008014)" stroke-linecap="round" stroke-linejoin="round"/>
</svg>
