<svg width="16" height="16" viewBox="0 0 16 16" fill="none" xmlns="http://www.w3.org/2000/svg">
<path d="M7.5 7.5H12.5V12.5H7.5V7.5Z" fill="var(--mw-icon-background-default-white, #FFFFFF)" stroke="var(--mw-icon-border-default-gray, #616161)" stroke-linejoin="round"/>
<path d="M9 8H11V9H9V8Z" fill="var(--mw-icon-glyph-content-light-blue, #278CDD)"/>
<path d="M9 9V10H8V9H9Z" fill="var(--mw-icon-glyph-content-light-blue, #278CDD)"/>
<path d="M11 9V10H12V9H11Z" fill="var(--mw-icon-glyph-content-light-blue, #278CDD)"/>
<path d="M9.5 11V12H10.5V11H9.5Z" fill="var(--mw-icon-glyph-content-light-blue, #278CDD)"/>
<path d="M9 10H11V11H9V10Z" fill="var(--mw-icon-background-medium-blue, #83CAFF)"/>
<path d="M0.5 7.5H5.5V12.5H0.5V7.5Z" fill="white" stroke="var(--mw-icon-border-default-gray, #616161)" stroke-linejoin="round"/>
<path d="M1.5 11.5H2.5V8.5H4.5" stroke="var(--mw-icon-glyph-content-light-blue, #278CDD)" stroke-linecap="square"/>
<path d="M7.5 0.5H12.5V5.5H7.5V0.5Z" fill="white" stroke="var(--mw-icon-border-default-gray, #616161)" stroke-linejoin="round"/>
<path d="M9 3L10.5 2V4L9 3Z" fill="var(--mw-icon-borderColor-light-blue, #268CDD)" stroke="var(--mw-icon-glyph-content-light-blue, #278CDD)" stroke-linejoin="round"/>
<path d="M0.5 0.5H5.5V5.5H0.5V0.5Z" fill="white" stroke="var(--mw-icon-border-default-gray, #616161)" stroke-linejoin="round"/>
<circle cx="3" cy="3" r="1" fill="var(--mw-icon-glyph-content-light-blue, #278CDD)"/>
<circle cx="2.5" cy="2.5" r="0.5" fill="white"/>
<rect width="10" height="10" rx="5" transform="matrix(-1 0 0 1 15.5 5.5)" fill="var(--mw-icon-background-default-action, #CBFFBE)" stroke="var(--mw-icon-glyph-content-green, #008014)"/>
<path d="M8 11L9.5 12.5L12.5 9.5" stroke="var(--mw-icon-glyph-content-green, #008014)" stroke-linecap="round" stroke-linejoin="round"/>
</svg>
