<svg width="16" height="16" viewBox="0 0 16 16" fill="none" xmlns="http://www.w3.org/2000/svg">
<path d="M0.5 3.5C0.5 2.94772 0.947715 2.5 1.5 2.5H14.5C15.0523 2.5 15.5 2.94772 15.5 3.5V11.5C15.5 12.0523 15.0523 12.5 14.5 12.5H1.5C0.947715 12.5 0.5 12.0523 0.5 11.5V3.5Z" fill="var(--mw-icon-background-default-action, #CBFFBE)" stroke="var(--mw-icon-border-default-green, #008013)"/>
<path d="M10 5.5H13" stroke="var(--mw-icon-glyph-content-green, #008014)"/>
<path d="M11 7.5H14" stroke="var(--mw-icon-glyph-content-green, #008014)"/>
<path d="M10 9.5H13" stroke="var(--mw-icon-glyph-content-green, #008014)"/>
<path d="M8.5 7.5C8.5 5.84315 7.15685 4.5 5.5 4.5C3.84315 4.5 2.5 5.84315 2.5 7.5C2.5 9.15685 3.84315 10.5 5.5 10.5C7.15685 10.5 8.5 9.15685 8.5 7.5Z" fill="var(--mw-icon-background-default-action, #CBFFBE)" stroke="var(--mw-icon-border-default-green, #008013)"/>
<path d="M4.5 7.5L5.5 8.5L7.5 6.5" stroke="var(--mw-icon-glyph-content-green, #008014)" stroke-linecap="square" stroke-linejoin="round"/>
</svg>
