<svg width="16" height="16" viewBox="0 0 16 16" fill="none" xmlns="http://www.w3.org/2000/svg">
<rect x="1.5" y="1.5" width="13" height="13" rx="1" fill="var(--mw-icon-background-default-white, #FFFFFF)" stroke="var(--mw-icon-border-default-gray, #616161)" stroke-linejoin="round"/>
<path d="M5 2H8V5H5V2Z" fill="var(--mw-icon-glyph-content-dark-gray, #333333)"/>
<path d="M5 8H8V11H5V8Z" fill="var(--mw-icon-glyph-content-dark-gray, #333333)"/>
<path d="M2 11H5V14H2.5C2.22386 14 2 13.7761 2 13.5V11Z" fill="var(--mw-icon-glyph-content-dark-gray, #333333)"/>
<path d="M8 5H11V8H8V5Z" fill="var(--mw-icon-glyph-content-dark-gray, #333333)"/>
<path d="M11 2H13.5C13.7761 2 14 2.22386 14 2.5V5H11V2Z" fill="var(--mw-icon-glyph-content-dark-gray, #333333)"/>
<path d="M2 5H5V8H2V5Z" fill="var(--mw-icon-glyph-content-dark-gray, #333333)"/>
<path d="M11 8H14V11H11V8Z" fill="var(--mw-icon-glyph-content-dark-gray, #333333)"/>
<path d="M8 11H11V14H8V11Z" fill="var(--mw-icon-glyph-content-dark-gray, #333333)"/>
</svg>
