<svg width="16" height="16" viewBox="0 0 16 16" fill="none" xmlns="http://www.w3.org/2000/svg">
<circle cx="6.5" cy="6.5" r="6" fill="var(--mw-icon-background-default-white, #FFFFFF)" stroke="var(--mw-icon-border-default-gray, #616161)"/>
<path d="M6.5 2C7.24003 2 7.96864 2.18251 8.62129 2.53135C9.27393 2.8802 9.83047 3.38462 10.2416 3.99993C10.6528 4.61525 10.9058 5.32246 10.9783 6.05892C11.0509 6.79539 10.9407 7.53838 10.6575 8.22207C10.3743 8.90577 9.92682 9.50908 9.35477 9.97855C8.78272 10.448 8.10372 10.7692 7.37791 10.9135C6.6521 11.0579 5.90188 11.0211 5.19372 10.8062C4.48556 10.5914 3.8413 10.2053 3.31802 9.68198L6.5 6.5V2Z" fill="var(--mw-icon-background-default-selection, #B4DEFF)"/>
<path d="M6.5 2.5V6.5L3.5 9.5" stroke="var(--mw-icon-glyph-content-gray, #616162)" stroke-linecap="square" stroke-linejoin="round"/>
<rect width="10" height="10" rx="5" transform="matrix(-1 0 0 1 15.5 5.5)" fill="var(--mw-icon-background-default-action, #CBFFBE)" stroke="var(--mw-icon-border-default-green, #008013)"/>
<path d="M8 11L9.5 12.5L12.5 9.5" stroke="var(--mw-icon-glyph-content-green, #008014)" stroke-linecap="round" stroke-linejoin="round"/>
</svg>
