<svg width="16" height="16" viewBox="0 0 16 16" fill="none" xmlns="http://www.w3.org/2000/svg">
<path d="M11.5 0.5H1.5C0.947715 0.5 0.5 0.947715 0.5 1.5V11.5C0.5 12.0523 0.947715 12.5 1.5 12.5H11.5C12.0523 12.5 12.5 12.0523 12.5 11.5V1.5C12.5 0.947715 12.0523 0.5 11.5 0.5Z" fill="var(--mw-icon-background-default-light-gray, #F5F5F5)" stroke="var(--mw-icon-border-default-gray, #616161)"/>
<path d="M4.5 0.5L0.5 4.5M8.5 12.5L12.5 8.5" stroke="var(--mw-icon-glyph-content-gray, #616162)"/>
<path fill-rule="evenodd" clip-rule="evenodd" d="M7.85713 3.9262C7.69952 3.84293 7.53335 3.77371 7.36027 3.72021L7.10606 2.5H5.89394L5.63973 3.72021C5.46665 3.77371 5.30047 3.84293 5.14287 3.92621L4.10012 3.24302L3.24302 4.10012L3.9262 5.14288C3.84293 5.30048 3.77371 5.46665 3.72021 5.63973L2.5 5.89394V7.10606L3.72021 7.36027C3.77371 7.53335 3.84293 7.69952 3.9262 7.85712L3.24301 8.89988L4.10011 9.75698L5.14287 9.07379C5.30047 9.15707 5.46665 9.22629 5.63973 9.27979L5.89394 10.5H7.10606L7.36027 9.27979C7.53335 9.22629 7.69952 9.15707 7.85712 9.0738L8.89987 9.75698L9.75697 8.89988L9.07379 7.85713C9.15707 7.69953 9.22629 7.53335 9.27979 7.36027L10.5 7.10606V5.89394L9.27979 5.63973C9.22629 5.46665 9.15707 5.30048 9.0738 5.14287L9.75698 4.10012L8.89988 3.24302L7.85713 3.9262Z" fill="var(--mw-icon-background-default-medium-gray, #D9D9D9)" stroke="var(--mw-icon-border-default-gray, #616161)"/>
<path d="M8 6.5C8 7.32843 7.32843 8 6.5 8C5.67157 8 5 7.32843 5 6.5C5 5.67157 5.67157 5 6.5 5C7.32843 5 8 5.67157 8 6.5Z" fill="var(--mw-icon-glyph-disabled-gray, #888889)"/>
<rect width="10" height="10" rx="5" transform="matrix(-1 0 0 1 15.5 5.5)" fill="var(--mw-icon-background-default-action, #CBFFBE)" stroke="var(--mw-icon-glyph-content-green, #008014)"/>
<path d="M8 11L9.5 12.5L12.5 9.5" stroke="var(--mw-icon-glyph-content-green, #008014)" stroke-linecap="round" stroke-linejoin="round"/>
</svg>
