<svg width="16" height="16" viewBox="0 0 16 16" fill="none" xmlns="http://www.w3.org/2000/svg">
<path d="M1.5 3.5H12.5V11C12.5 11.2761 12.2761 11.5 12 11.5H2C1.72386 11.5 1.5 11.2761 1.5 11V3.5Z" fill="var(--mw-icon-background-lightest-blue, #E2F0FF)" stroke="var(--mw-icon-border-default-blue, #1656A7)"/>
<path d="M0.5 1C0.5 0.723858 0.723858 0.5 1 0.5H13C13.2761 0.5 13.5 0.723858 13.5 1V3.5H0.5V1Z" fill="var(--mw-icon-background-lightest-blue, #E2F0FF)"/>
<path d="M13.5 3.5V4C13.7761 4 14 3.77614 14 3.5H13.5ZM0.5 3.5H0C0 3.77614 0.223858 4 0.5 4L0.5 3.5ZM1 1H13V0H1V1ZM13 1V3.5H14V1H13ZM13.5 3H0.5V4H13.5V3ZM1 3.5V1H0V3.5H1ZM13 1H14C14 0.447715 13.5523 0 13 0V1ZM1 0C0.447715 0 0 0.447715 0 1H1V1V0Z" fill="var(--mw-icon-border-default-blue, #1656A7)"/>
<rect width="10" height="10" rx="5" transform="matrix(-1 0 0 1 15.5 5.5)" fill="var(--mw-icon-background-default-action, #CBFFBE)" stroke="var(--mw-icon-border-default-green, #008013)"/>
<path d="M8 11L9.5 12.5L12.5 9.5" stroke="var(--mw-icon-glyph-content-green, #008014)" stroke-linecap="round" stroke-linejoin="round"/>
</svg>
