<svg width="16" height="16" viewBox="0 0 16 16" fill="none" xmlns="http://www.w3.org/2000/svg">
<circle cx="7.5" cy="7.5" r="7" fill="var(--mw-icon-background-default-medium-gray, #D9D9D9)" stroke="var(--mw-icon-border-default-gray, #616161)"/>
<path d="M7.50004 3.5L7.28886 3.60559C6.11245 4.19378 4.81526 4.5 3.5 4.5V4.5V5.97838C3.5 7.59114 4.13109 9.15848 5.37244 10.1881C6.19512 10.8704 7.07056 11.5 7.50004 11.5C7.92952 11.5 8.80496 10.8704 9.62762 10.1881C10.8689 9.15848 11.5 7.59116 11.5 5.97843V4.5V4.5C10.1847 4.5 8.88755 4.19377 7.71115 3.60556L7.50004 3.5Z" stroke="var(--mw-icon-glyph-content-gray, #616162)" stroke-linejoin="round"/>
<path d="M7.5 3.5L7.34391 3.57805C6.11832 4.19084 4.82934 4.66766 3.5 5V6.95312L11.5 7V5C10.1707 4.66766 8.88168 4.19084 7.65609 3.57805L7.5 3.5Z" fill="var(--mw-icon-glyph-content-gray, #616162)"/>
<path d="M11.5 4V6M3.5 4V6" stroke="var(--mw-icon-glyph-content-gray, #616162)"/>
</svg>
