<svg width="16" height="16" viewBox="0 0 16 16" fill="none" xmlns="http://www.w3.org/2000/svg">
<rect x="0.5" y="0.5" width="15" height="15" rx="2" fill="var(--mw-icon-background-default-selection, #B4DEFF)" stroke="var(--mw-icon-border-default-blue, #1656A7)"/>
<path d="M8.73423 8.98397H9.99159C9.96636 9.37675 9.85282 9.72545 9.65097 10.0301C9.45192 10.3347 9.17297 10.5725 8.81413 10.7435C8.45809 10.9145 8.02916 11 7.52733 11C7.13485 11 6.78301 10.9359 6.47183 10.8076C6.16064 10.6767 5.89431 10.4896 5.67283 10.2465C5.45416 10.0033 5.28736 9.70942 5.17241 9.36473C5.05747 9.02004 5 8.63393 5 8.20641V7.8016C5 7.37408 5.05887 6.98798 5.17662 6.64329C5.29717 6.29593 5.46818 6.00067 5.68966 5.75752C5.91393 5.51436 6.18167 5.32732 6.49285 5.19639C6.80404 5.06546 7.15167 5 7.53574 5C8.04598 5 8.47631 5.08818 8.82675 5.26453C9.17998 5.44088 9.45332 5.68403 9.64676 5.99399C9.84301 6.30394 9.96075 6.65665 10 7.0521H8.73844C8.72442 6.81697 8.67536 6.6179 8.59125 6.45491C8.50715 6.28925 8.37959 6.165 8.20858 6.08216C8.04037 5.99666 7.81609 5.95391 7.53574 5.95391C7.32548 5.95391 7.14186 5.99132 6.98486 6.06613C6.82787 6.14095 6.6961 6.25451 6.58957 6.40681C6.48304 6.55912 6.40314 6.7515 6.34987 6.98397C6.29941 7.21376 6.27418 7.48363 6.27418 7.79359V8.20641C6.27418 8.50835 6.29801 8.77421 6.34567 9.00401C6.39333 9.23113 6.46622 9.42351 6.56434 9.58116C6.66526 9.73614 6.79422 9.85371 6.95122 9.93387C7.11102 10.0114 7.30306 10.0501 7.52733 10.0501C7.79086 10.0501 8.00813 10.01 8.17914 9.92986C8.35015 9.8497 8.48052 9.73079 8.57023 9.57315C8.66274 9.4155 8.71741 9.2191 8.73423 8.98397Z" fill="var(--mw-icon-glyph-content-blue, #1656A8)"/>
</svg>
