<svg width="16" height="16" viewBox="0 0 16 16" fill="none" xmlns="http://www.w3.org/2000/svg">
<path d="M7.5 8.5V10.5M7.5 10.5H3.5V11.5M7.5 10.5H11.5V11.5" stroke="var(--mw-icon-glyph-disabled-gray, #888889)" stroke-linecap="square" stroke-linejoin="round"/>
<path d="M0.5 15.5V12.5H6.5V15.5H0.5Z" fill="var(--mw-icon-background-default-medium-gray, #D9D9D9)"/>
<path d="M8.5 15.5V12.5H14.5V15.5H8.5Z" fill="var(--mw-icon-background-default-medium-gray, #D9D9D9)"/>
<path d="M0.5 15.5V12.5H6.5V15.5H0.5Z" stroke="var(--mw-icon-border-default-gray, #616161)" stroke-linecap="square" stroke-linejoin="round"/>
<path d="M8.5 15.5V12.5H14.5V15.5H8.5Z" stroke="var(--mw-icon-border-default-gray, #616161)" stroke-linecap="square" stroke-linejoin="round"/>
<path fill-rule="evenodd" clip-rule="evenodd" d="M9.01086 1.13551C8.82303 1.35153 8.65136 1.74831 8.54445 2.48475C8.50167 2.77947 8.37507 3.11217 8.21951 3.43806C8.06162 3.76882 7.8631 4.11456 7.65985 4.44042C7.25325 5.0923 6.81615 5.68299 6.6167 5.94518C6.43521 6.18376 6.06383 6.52715 5.70107 6.84171C5.46712 7.04459 5.22458 7.24575 5.01465 7.41567C5.10001 7.47129 5.18268 7.52549 5.26169 7.57774C5.77699 7.91852 6.15855 8.46534 6.45352 8.97738C6.60297 9.2368 6.73591 9.49786 6.85424 9.73087L6.85996 9.74213C6.92161 9.86354 6.9785 9.97557 7.03207 10.0771C7.17399 9.9964 7.34799 9.87003 7.54074 9.6926C7.84544 9.41211 8.56857 8.53776 9.00596 7.93381C9.26228 7.57988 9.61638 7.30549 9.97274 7.11953C10.3259 6.93526 10.7092 6.82335 11.0369 6.82335C11.3084 6.82335 11.6294 6.9446 11.8946 7.0691C11.4809 5.86785 10.9231 4.21452 10.7314 3.52221C10.5862 2.99781 10.3354 2.28442 10.0544 1.7082C9.91308 1.41857 9.77134 1.17856 9.64019 1.01608C9.57464 0.934881 9.52019 0.883707 9.47926 0.85508C9.45972 0.84141 9.44756 0.835824 9.44218 0.83374C9.40266 0.836576 9.31835 0.864393 9.18657 0.971305C9.1697 0.984988 9.15269 0.999451 9.13556 1.01464L9.13732 1.01699C9.12586 1.02555 9.11442 1.03462 9.10302 1.04424C9.07259 1.07259 9.04182 1.1031 9.01086 1.13551Z" fill="#F57729"/>
<path fill-rule="evenodd" clip-rule="evenodd" d="M4.42484 7.03465C4.66081 6.84682 4.97049 6.59325 5.26502 6.33785C5.41525 6.20758 5.55676 6.08087 5.68081 5.96459L5.0252 5.48933L5.02053 5.49183C4.95605 5.52627 4.87555 5.56544 4.78546 5.60722C4.60458 5.6911 4.37099 5.79199 4.11933 5.89711C3.83032 6.01783 3.51374 6.14567 3.21912 6.26211C3.45805 6.41713 3.73435 6.59354 4.01908 6.77533C4.15346 6.86112 4.28975 6.94814 4.42484 7.03465ZM5.53479 5.03533L6.13854 5.473C6.34916 5.19326 6.73561 4.66343 7.0949 4.08741C7.29051 3.77379 7.47519 3.45107 7.61857 3.15068C7.64431 3.09676 7.6684 3.04421 7.69077 2.99316C7.6466 3.04459 7.60166 3.0956 7.55672 3.1454C7.31321 3.41521 7.0297 3.69384 6.81855 3.83299C6.46398 4.06666 6.1927 4.25631 6.02099 4.48454C5.90846 4.63412 5.71323 4.84846 5.53479 5.03533Z" fill="#068CFC"/>
<path d="M2.5 6.1839L2.32223 5.71657C2.14902 5.78246 2.02646 5.93874 2.00376 6.12267C1.98107 6.30659 2.06196 6.48798 2.21395 6.594L2.5 6.1839ZM4.97638 5.1267L4.62889 4.7672H4.62888L4.97638 5.1267ZM5.75472 4.28419L5.35516 3.9836L5.35516 3.9836L5.75472 4.28419ZM6.63522 3.5547L6.36008 3.13721V3.13721L6.63522 3.5547ZM7.87736 2.18693L8.31354 2.43137L7.87736 2.18693ZM11.0535 3.43312L11.5353 3.29971V3.29971L11.0535 3.43312ZM12.5 7.79483L12.2198 8.20895C12.3984 8.32975 12.6342 8.32252 12.805 8.191C12.9758 8.05948 13.0431 7.83329 12.972 7.6298L12.5 7.79483ZM7.76729 9.93769L8.10593 10.3056H8.10593L7.76729 9.93769ZM6.88679 10.5L6.45762 10.7565C6.57138 10.9469 6.79689 11.0395 7.01159 10.9842L6.88679 10.5ZM5.07861 7.85562L4.80281 8.27267L5.07861 7.85562ZM4.17315 7.02092C3.95557 7.19095 3.91702 7.50518 4.08706 7.72276C4.25709 7.94035 4.57132 7.9789 4.7889 7.80886L4.17315 7.02092ZM6.3521 5.74315L5.95416 5.44043V5.44043L6.3521 5.74315ZM8.21528 2.43664L7.72046 2.36481L8.21528 2.43664ZM2.67777 6.65123C3.08823 6.4951 3.67777 6.26225 4.18366 6.05094C4.43609 5.9455 4.67194 5.84366 4.85567 5.75846C4.94701 5.7161 5.0307 5.67544 5.09915 5.63888C5.14602 5.61384 5.24824 5.55933 5.32388 5.48621L4.62888 4.7672C4.66994 4.72751 4.69421 4.72146 4.62799 4.75683C4.58335 4.78068 4.5188 4.81238 4.43496 4.85126C4.26833 4.92854 4.04605 5.02469 3.79823 5.1282C3.30361 5.33481 2.72414 5.56369 2.32223 5.71657L2.67777 6.65123ZM5.32388 5.48621C5.49764 5.31826 5.95038 4.8558 6.15427 4.58478L5.35516 3.9836C5.20302 4.18583 4.80104 4.6008 4.62889 4.7672L5.32388 5.48621ZM6.15427 4.58478C6.30571 4.38348 6.55146 4.20872 6.91036 3.97219L6.36008 3.13721C6.02716 3.35661 5.62819 3.62068 5.35516 3.9836L6.15427 4.58478ZM6.91036 3.97219C7.1406 3.82046 7.43615 3.52789 7.68053 3.25711C7.92746 2.98351 8.18283 2.66461 8.31354 2.43137L7.44118 1.9425C7.36749 2.074 7.17474 2.325 6.93817 2.58711C6.69907 2.85203 6.47575 3.06098 6.36008 3.13721L6.91036 3.97219ZM8.31354 2.43137C8.41359 2.25282 8.64039 1.85834 8.90819 1.5132C9.04284 1.33966 9.17451 1.1962 9.29237 1.10058C9.42214 0.995298 9.47111 1 9.44968 1V0C9.12557 0 8.8522 0.169976 8.66235 0.324004C8.46058 0.487695 8.27533 0.697571 8.11813 0.900173C7.80221 1.30732 7.54552 1.7563 7.44118 1.9425L8.31354 2.43137ZM9.44968 1C9.38483 1 9.35997 0.974319 9.38453 0.991501C9.40818 1.00804 9.45146 1.04648 9.5113 1.12061C9.63107 1.26899 9.76641 1.49626 9.90535 1.78111C10.181 2.34624 10.4285 3.04968 10.5716 3.56653L11.5353 3.29971C11.3797 2.73753 11.1122 1.97441 10.8041 1.34273C10.6512 1.02919 10.4775 0.725496 10.2894 0.492512C10.1954 0.375962 10.085 0.261123 9.95768 0.17205C9.83125 0.083621 9.65801 0 9.44968 0V1ZM10.5716 3.56653C10.8161 4.44954 11.6477 6.87227 12.028 7.95986L12.972 7.6298C12.5871 6.52893 11.7688 4.14314 11.5353 3.29971L10.5716 3.56653ZM12.7802 7.38071C12.6066 7.26327 12.3241 7.09105 12.0247 6.94595C11.7492 6.81244 11.3706 6.65653 11.0377 6.65653V7.65653C11.12 7.65653 11.3153 7.71339 11.5885 7.84583C11.8379 7.96669 12.0789 8.11362 12.2198 8.20895L12.7802 7.38071ZM11.0377 6.65653C10.6759 6.65653 10.2659 6.77881 9.89644 6.97161C9.52207 7.16697 9.1462 7.45697 8.87177 7.8359L9.68169 8.42245C9.84751 8.19347 10.0927 7.99716 10.3591 7.85816C10.6303 7.71662 10.8807 7.65653 11.0377 7.65653V6.65653ZM8.87177 7.8359C8.43582 8.43787 7.72061 9.30106 7.42866 9.56982L8.10593 10.3056C8.47435 9.96641 9.23713 9.03629 9.68169 8.42245L8.87177 7.8359ZM7.42866 9.56982C7.1199 9.85404 6.87886 9.9857 6.762 10.0158L7.01159 10.9842C7.36643 10.8927 7.75431 10.6292 8.10593 10.3056L7.42866 9.56982ZM7.31596 10.2435C7.2246 10.0906 7.12522 9.89467 7.00364 9.65525C6.88547 9.42256 6.75068 9.15778 6.59874 8.89403C6.30074 8.37674 5.90331 7.80157 5.35442 7.43857L4.80281 8.27267C5.15015 8.50238 5.45241 8.90745 5.73224 9.3932C5.86921 9.63097 5.99287 9.87341 6.11202 10.108C6.22776 10.336 6.34458 10.5674 6.45762 10.7565L7.31596 10.2435ZM5.35442 7.43857C4.51452 6.88311 3.29309 6.12748 2.78605 5.77381L2.21395 6.594C2.72368 6.94953 4.02257 7.75667 4.80281 8.27267L5.35442 7.43857ZM4.7889 7.80886C5.04053 7.61223 5.43643 7.29219 5.81096 6.96742C6.17166 6.65464 6.55642 6.3004 6.75005 6.04587L5.95416 5.44043C5.83332 5.59928 5.52888 5.88841 5.15582 6.21191C4.7966 6.52341 4.4142 6.83255 4.17315 7.02092L4.7889 7.80886ZM6.75005 6.04587C6.95096 5.78177 7.39149 5.18649 7.80196 4.52841C8.00712 4.19949 8.2091 3.848 8.37062 3.50964C8.52864 3.17859 8.6637 2.82801 8.71009 2.50848L7.72046 2.36481C7.69568 2.53551 7.6114 2.77877 7.46816 3.07886C7.3284 3.37165 7.14719 3.68863 6.95348 3.99918C6.56621 4.62007 6.14633 5.18782 5.95416 5.44043L6.75005 6.04587ZM8.71009 2.50848C8.83911 1.61974 9.05793 1.28462 9.23775 1.15031L8.63934 0.349114C8.12734 0.731526 7.85868 1.41272 7.72046 2.36481L8.71009 2.50848ZM4.70643 5.46408L5.77562 6.23916L6.36254 5.42952L5.29336 4.65445L4.70643 5.46408Z" fill="var(--mw-icon-glyph-content-dark-gray, #333333)"/>
</svg>
