<svg width="16" height="16" viewBox="0 0 16 16" fill="none" xmlns="http://www.w3.org/2000/svg">
<path d="M0.5 3C0.5 2.72386 0.723858 2.5 1 2.5H4.5V12.5H0.5V3Z" fill="var(--mw-icon-background-default-selection, #B4DEFF)" stroke="var(--mw-icon-border-default-blue, #1656A7)" stroke-linejoin="round"/>
<path d="M8.5 3.5H12C12.2761 3.5 12.5 3.72386 12.5 4V12.5H8.5V3.5Z" fill="var(--mw-icon-background-default-action, #CBFFBE)" stroke="var(--mw-icon-border-default-green, #008013)" stroke-linejoin="round"/>
<path d="M4.5 1C4.5 0.723858 4.72386 0.5 5 0.5H8C8.27614 0.5 8.5 0.723858 8.5 1V12.5H4.5V1Z" fill="var(--mw-icon-background-medium-yellow, #FFEF91)" stroke="#674C06"/>
<rect x="5" y="6" width="10" height="9" fill="var(--mw-icon-background-default-white, #FFFFFF)"/>
<path d="M11.5 12.5H12.5M12.5 12.5H13.5M12.5 12.5V11.5M12.5 12.5V13.5M11.5 8.5H12.5M12.5 8.5H13.5M12.5 8.5V7.5M12.5 8.5V9.5" stroke="#0072BD" stroke-linecap="square" stroke-linejoin="round"/>
<path d="M9.5 6V15" stroke="var(--mw-icon-border-default-gray, #616161)"/>
<path d="M4.5 6.5V14.5C4.5 15.0523 4.94772 15.5 5.5 15.5H10.5H14.5C15.0523 15.5 15.5 15.0523 15.5 14.5V6.5C15.5 5.94772 15.0523 5.5 14.5 5.5H10.5H5.5C4.94772 5.5 4.5 5.94772 4.5 6.5Z" stroke="var(--mw-icon-border-default-gray, #616161)" stroke-linejoin="round"/>
<rect x="6" y="11" width="2" height="2" rx="0.5" fill="#A2142F"/>
<rect x="6" y="7" width="2" height="2" rx="0.5" fill="#A2142F"/>
</svg>
