<svg width="16" height="16" viewBox="0 0 16 16" fill="none" xmlns="http://www.w3.org/2000/svg">
<path d="M0.5 12.5V2.5C0.5 1.39543 1.39543 0.5 2.5 0.5H12.5C13.6046 0.5 14.5 1.39543 14.5 2.5V12.5C14.5 13.6046 13.6046 14.5 12.5 14.5H2.5C1.39543 14.5 0.5 13.6046 0.5 12.5Z" fill="var(--mw-icon-background-default-white, white)"/>
<path d="M9.57634 6.24074L9.92713 5.88445L9.92713 5.88445L9.57634 6.24074ZM0.233516 7.80052C-0.000138156 7.94769 -0.0702427 8.25642 0.0769326 8.49007C0.224108 8.72372 0.532831 8.79383 0.766484 8.64665L0.233516 7.80052ZM8.33754 14.2719C8.21156 14.5176 8.30864 14.819 8.55438 14.9449C8.80011 15.0709 9.10144 14.9738 9.22742 14.7281L8.33754 14.2719ZM9.92713 5.88445C9.28943 5.2566 8.45532 5.01616 7.5875 5.0008C6.7249 4.98553 5.79254 5.19054 4.89191 5.49246C3.08951 6.09667 1.29984 7.12886 0.233516 7.80052L0.766484 8.64665C1.81129 7.98854 3.52111 7.00668 5.20975 6.4406C6.05465 6.15737 6.86571 5.98818 7.5698 6.00064C8.26869 6.01302 8.82457 6.20226 9.22555 6.59704L9.92713 5.88445ZM9.22742 14.7281C9.73492 13.7381 10.4671 12.1292 10.8092 10.4947C11.1451 8.88997 11.1407 7.07928 9.92713 5.88445L9.22555 6.59704C10.0529 7.41161 10.1517 8.755 9.83045 10.2898C9.51545 11.7948 8.83025 13.3108 8.33754 14.2719L9.22742 14.7281Z" fill="#FF453A"/>
<circle cx="3.5" cy="10.5" r="0.5" fill="#FF453A"/>
<circle cx="4.5" cy="12.5" r="0.5" fill="#FF453A"/>
<circle cx="5.5" cy="8.5" r="0.5" fill="#FF453A"/>
<circle cx="8.5" cy="7.5" r="0.5" fill="#FF453A"/>
<circle cx="8.5" cy="9.5" r="0.5" fill="#FF453A"/>
<circle cx="7.5" cy="11.5" r="0.5" fill="#FF453A"/>
<circle cx="12.5" cy="6.5" r="0.5" fill="var(--mw-icon-glyph-content-dark-blue, #104280)"/>
<circle cx="9.5" cy="4.5" r="0.5" fill="var(--mw-icon-glyph-content-dark-blue, #104280)"/>
<circle cx="11.5" cy="3.5" r="0.5" fill="var(--mw-icon-glyph-content-dark-blue, #104280)"/>
<circle cx="7.5" cy="2.5" r="0.5" fill="var(--mw-icon-glyph-content-dark-blue, #104280)"/>
<path d="M0.5 12.5V2.5C0.5 1.39543 1.39543 0.5 2.5 0.5H12.5C13.6046 0.5 14.5 1.39543 14.5 2.5V12.5C14.5 13.6046 13.6046 14.5 12.5 14.5H2.5C1.39543 14.5 0.5 13.6046 0.5 12.5Z" stroke="#B7312C" stroke-linecap="round"/>

</svg>
