<svg width="16" height="16" viewBox="0 0 16 16" fill="none" xmlns="http://www.w3.org/2000/svg">
<path d="M1.5 9.5H14.5V15C14.5 15.2761 14.2761 15.5 14 15.5H2C1.72386 15.5 1.5 15.2761 1.5 15V9.5Z" fill="var(--mw-icon-background-default-white, #FFFFFF)" stroke="var(--mw-icon-border-default-gray, #616161)"/>
<path d="M3.5 11.5H6.5M3.5 13.5H5.5" stroke="var(--mw-icon-glyph-content-gray, #616162)" stroke-linecap="square"/>
<path d="M1.5 6C1.5 5.72386 1.72386 5.5 2 5.5H14C14.2761 5.5 14.5 5.72386 14.5 6V9.5H1.5V6Z" fill="var(--mw-icon-background-default-selection, #B4DEFF)"/>
<path d="M5 7.5H11M14.5 9.5V6C14.5 5.72386 14.2761 5.5 14 5.5H2C1.72386 5.5 1.5 5.72386 1.5 6V9.5H14.5Z" stroke="var(--mw-icon-glyph-content-blue, #1656A8)"/>
<path d="M5.5 1.5H13.5" stroke="var(--mw-icon-object-primary, #616160)" stroke-linecap="square"/>
<circle cx="2.5" cy="1.5" r="1" stroke="var(--mw-icon-object-primary, #616160)"/>
<path d="M2.5 4.5V3" stroke="var(--mw-icon-object-primary, #616160)" stroke-linecap="square"/>
</svg>
