<svg width="16" height="16" viewBox="0 0 16 16" fill="none" xmlns="http://www.w3.org/2000/svg">
<rect x="0.5" y="0.5" width="10" height="10" rx="1" fill="var(--mw-icon-background-light-yellow, #FFF5BC)" stroke="var(--mw-icon-border-default-blue, #1656A7)"/>
<path d="M1.49988 5.49999H9.49988M5.50003 1.5L5.50003 9.5" stroke="var(--mw-icon-glyph-content-light-blue, #278CDD)" stroke-linecap="square"/>
<path d="M7.425 7.6C7.47221 7.53705 7.54631 7.5 7.625 7.5H14.25C14.3881 7.5 14.5 7.61193 14.5 7.75V15.25C14.5 15.3881 14.3881 15.5 14.25 15.5H7.625C7.54631 15.5 7.47221 15.463 7.425 15.4L4.6125 11.65C4.54583 11.5611 4.54583 11.4389 4.6125 11.35L7.425 7.6Z" fill="var(--mw-icon-background-default-selection, #B4DEFF)" stroke="var(--mw-icon-border-default-blue, #1656A7)"/>
<path d="M12 13L9 10M9 13L12 10" stroke="var(--mw-icon-glyph-content-blue, #1656A8)" stroke-linecap="square"/>
</svg>
