<svg width="16" height="16" viewBox="0 0 16 16" fill="none" xmlns="http://www.w3.org/2000/svg">
<path d="M11.5 0.5H1.5C0.947715 0.5 0.5 0.947715 0.5 1.5V11.5C0.5 12.0523 0.947715 12.5 1.5 12.5H11.5C12.0523 12.5 12.5 12.0523 12.5 11.5V1.5C12.5 0.947715 12.0523 0.5 11.5 0.5Z" fill="var(--mw-icon-background-default-white, #FFFFFF)" stroke="var(--mw-icon-border-default-gray, #616161)" stroke-linecap="round"/>
<path fill-rule="evenodd" clip-rule="evenodd" d="M0.651493 7.63532C1.02226 8.2744 1.38567 8.77924 1.7397 9.15671C2.31419 9.76925 2.81649 9.99834 3.25 9.99834C3.68351 9.99834 4.18581 9.76925 4.7603 9.15671C5.33419 8.54482 5.93274 7.59823 6.54731 6.28771C7.18274 4.93267 7.83419 3.88009 8.5103 3.1592C9.18581 2.43896 9.93351 2.00166 10.75 2.00166C11.1865 2.00166 11.6033 2.12664 12 2.35302V3.58701C11.5327 3.16563 11.1167 3.00166 10.75 3.00166C10.3165 3.00166 9.81419 3.23075 9.2397 3.84329C8.66581 4.45518 8.06726 5.40177 7.4527 6.71229C6.81726 8.06733 6.16581 9.11991 5.4897 9.8408C4.81419 10.561 4.06649 10.9983 3.25 10.9983C2.43351 10.9983 1.68581 10.561 1.0103 9.8408C0.889935 9.71246 0.770348 9.57361 0.651493 9.42441V7.63532Z" fill="#0072BD"/>
<path fill-rule="evenodd" clip-rule="evenodd" d="M0.999896 9.77692C1.23445 9.64254 1.48425 9.44116 1.74963 9.15729C2.32163 8.54544 2.91828 7.59885 3.5309 6.28827C4.16428 4.93329 4.81362 3.88072 5.48761 3.15979C6.16089 2.4396 6.90673 2.00166 7.72184 2.00166C8.53695 2.00166 9.28279 2.4396 9.95608 3.15979C10.6301 3.88072 11.2794 4.93329 11.9128 6.28827L11.9173 6.29801L11.9215 6.30794L12.9615 8.80794C13.0676 9.0629 12.9469 9.35557 12.692 9.46164C12.437 9.56771 12.1443 9.44702 12.0383 9.19206L11.0023 6.70204C10.3913 5.39648 9.79619 4.45305 9.22559 3.84271C8.65288 3.23011 8.15273 3.00166 7.72184 3.00166C7.29096 3.00166 6.79081 3.23011 6.2181 3.84271C5.64609 4.45456 5.04944 5.40115 4.43682 6.71173C3.80345 8.06671 3.1541 9.11928 2.48012 9.84022C2.02021 10.3322 1.52646 10.6924 0.999896 10.8713V9.77692Z" fill="#D95319"/>
<path d="M11.5 0.5H1.5C0.947715 0.5 0.5 0.947715 0.5 1.5V11.5C0.5 12.0523 0.947715 12.5 1.5 12.5H11.5C12.0523 12.5 12.5 12.0523 12.5 11.5V1.5C12.5 0.947715 12.0523 0.5 11.5 0.5Z" stroke="var(--mw-icon-border-default-gray, #616161)" stroke-linecap="round"/>
<path d="M8.425 7.6C8.47221 7.53705 8.54631 7.5 8.625 7.5H15.25C15.3881 7.5 15.5 7.61193 15.5 7.75V15.25C15.5 15.3881 15.3881 15.5 15.25 15.5H8.625C8.54631 15.5 8.47221 15.463 8.425 15.4L5.6125 11.65C5.54583 11.5611 5.54583 11.4389 5.6125 11.35L8.425 7.6Z" fill="var(--mw-icon-background-default-selection, #B4DEFF)" stroke="var(--mw-icon-border-default-blue, #1656A7)"/>
<path d="M12.6464 13.3536L13 13.7071L13.7071 13L13.3536 12.6464L12.6464 13.3536ZM10.3536 9.64645L10 9.29289L9.29289 10L9.64645 10.3536L10.3536 9.64645ZM9.64645 12.6464L9.29289 13L10 13.7071L10.3536 13.3536L9.64645 12.6464ZM13.3536 10.3536L13.7071 10L13 9.29289L12.6464 9.64645L13.3536 10.3536ZM13.3536 12.6464L10.3536 9.64645L9.64645 10.3536L12.6464 13.3536L13.3536 12.6464ZM10.3536 13.3536L13.3536 10.3536L12.6464 9.64645L9.64645 12.6464L10.3536 13.3536Z" fill="var(--mw-icon-glyph-content-blue, #1656A8)"/>
</svg>
