<svg width="16" height="16" viewBox="0 0 16 16" fill="none" xmlns="http://www.w3.org/2000/svg">
<path d="M11.5 0.5H1.5C0.947715 0.5 0.5 0.947715 0.5 1.5V11.5C0.5 12.0523 0.947715 12.5 1.5 12.5H11.5C12.0523 12.5 12.5 12.0523 12.5 11.5V1.5C12.5 0.947715 12.0523 0.5 11.5 0.5Z" fill="var(--mw-icon-background-default-white, #FFFFFF)" stroke="var(--mw-icon-border-default-gray, #616161)" stroke-linecap="round"/>
<path d="M2 3.80962C2 3.28056 2.19347 2.8477 2.58042 2.51102C2.96737 2.17034 3.47496 2 4.10319 2C4.74052 2 5.25038 2.17034 5.63278 2.51102C6.01973 2.8477 6.2132 3.29058 6.2132 3.83968V4.27255C6.2132 4.7976 6.01973 5.22846 5.63278 5.56513C5.25038 5.9018 4.74507 6.07014 4.11684 6.07014C3.50228 6.07014 2.99469 5.90581 2.59408 5.57715C2.19803 5.24449 2 4.7976 2 4.23647V3.80962ZM3.16085 4.27255C3.16085 4.5491 3.24734 4.77355 3.42033 4.94589C3.59788 5.11423 3.83005 5.1984 4.11684 5.1984C4.39909 5.1984 4.62671 5.11423 4.7997 4.94589C4.97269 4.77355 5.05918 4.54108 5.05918 4.2485V3.80962C5.05918 3.53307 4.97041 3.30862 4.79287 3.13627C4.61988 2.96393 4.38999 2.87776 4.10319 2.87776C3.81639 2.87776 3.58649 2.96593 3.41351 3.14228C3.24507 3.31463 3.16085 3.54309 3.16085 3.82766V4.27255ZM4.45827 10.2244L3.6047 9.79158L8.45979 2.9499L9.31335 3.38277L4.45827 10.2244Z" fill="var(--mw-icon-glyph-content-green, #008014)"/>
<path d="M8.425 7.6C8.47221 7.53705 8.54631 7.5 8.625 7.5H15.25C15.3881 7.5 15.5 7.61193 15.5 7.75V15.25C15.5 15.3881 15.3881 15.5 15.25 15.5H8.625C8.54631 15.5 8.47221 15.463 8.425 15.4L5.6125 11.65C5.54583 11.5611 5.54583 11.4389 5.6125 11.35L8.425 7.6Z" fill="var(--mw-icon-background-default-selection, #B4DEFF)" stroke="var(--mw-icon-border-default-blue, #1656A7)"/>
<path d="M12.6464 13.3536L13 13.7071L13.7071 13L13.3536 12.6464L12.6464 13.3536ZM10.3536 9.64645L10 9.29289L9.29289 10L9.64645 10.3536L10.3536 9.64645ZM9.64645 12.6464L9.29289 13L10 13.7071L10.3536 13.3536L9.64645 12.6464ZM13.3536 10.3536L13.7071 10L13 9.29289L12.6464 9.64645L13.3536 10.3536ZM13.3536 12.6464L10.3536 9.64645L9.64645 10.3536L12.6464 13.3536L13.3536 12.6464ZM10.3536 13.3536L13.3536 10.3536L12.6464 9.64645L9.64645 12.6464L10.3536 13.3536Z" fill="var(--mw-icon-glyph-content-blue, #1656A8)"/>
</svg>
