<svg width="16" height="16" viewBox="0 0 16 16" fill="none" xmlns="http://www.w3.org/2000/svg">
<path d="M14 0.5H1C0.723858 0.5 0.5 0.723858 0.5 1V9C0.5 9.27614 0.723858 9.5 1 9.5H3.5V12.5L6.5 9.5H14C14.2761 9.5 14.5 9.27614 14.5 9V1C14.5 0.723858 14.2761 0.5 14 0.5Z" fill="var(--mw-icon-background-default-white, #FFFFFF)" stroke="var(--mw-icon-border-default-gray, #616161)" stroke-linejoin="round"/>
<path d="M2.99994 6.5H10.9999" stroke="var(--mw-icon-glyph-content-gray, #616162)"/>
<path d="M2.99994 3.5H9.99994" stroke="var(--mw-icon-glyph-content-gray, #616162)"/>
<path d="M8.425 7.6C8.47221 7.53705 8.54631 7.5 8.625 7.5H15.25C15.3881 7.5 15.5 7.61193 15.5 7.75V15.25C15.5 15.3881 15.3881 15.5 15.25 15.5H8.625C8.54631 15.5 8.47221 15.463 8.425 15.4L5.6125 11.65C5.54583 11.5611 5.54583 11.4389 5.6125 11.35L8.425 7.6Z" fill="var(--mw-icon-background-default-selection, #B4DEFF)" stroke="var(--mw-icon-border-default-blue, #1656A7)"/>
<path d="M13 13L10 10M10 13L13 10" stroke="var(--mw-icon-glyph-content-blue, #1656A8)" stroke-linecap="square"/>
</svg>
