<svg width="16" height="16" viewBox="0 0 16 16" fill="none" xmlns="http://www.w3.org/2000/svg">
<path d="M14 0.5L8.5 0.50001V14.5H14C14.2761 14.5 14.5 14.2761 14.5 14V1C14.5 0.723858 14.2761 0.5 14 0.5Z" fill="var(--mw-icon-glyph-content-gray, #616162)" stroke="var(--mw-icon-border-default-gray, #616161)" stroke-linecap="round"/>
<path d="M0.5 1V14C0.5 14.2761 0.723858 14.5 1 14.5H6.5V0.5H1C0.723858 0.5 0.5 0.723857 0.5 1Z" fill="var(--mw-icon-glyph-content-gray, #616162)" stroke="var(--mw-icon-border-default-gray, #616161)" stroke-linecap="round"/>
<circle cx="2" cy="2" r="1" fill="var(--mw-icon-background-medium-yellow, #FFEF91)"/>
<path d="M6 3C5.86868 3 5.73864 2.97413 5.61732 2.92388C5.49599 2.87362 5.38575 2.79997 5.29289 2.70711C5.20003 2.61425 5.12638 2.50401 5.07612 2.38268C5.02587 2.26136 5 2.13132 5 2C5 1.86868 5.02587 1.73864 5.07612 1.61732C5.12638 1.49599 5.20003 1.38575 5.29289 1.29289C5.38575 1.20003 5.49599 1.12638 5.61732 1.07612C5.73864 1.02587 5.86868 1 6 1L6 3Z" fill="var(--mw-icon-background-medium-yellow, #FFEF91)"/>
<path d="M4 14C4 13.7374 4.05173 13.4773 4.15224 13.2346C4.25275 12.992 4.40007 12.7715 4.58579 12.5858C4.7715 12.4001 4.99198 12.2528 5.23463 12.1522C5.47728 12.0517 5.73736 12 6 12L6 14H4Z" fill="var(--mw-icon-background-medium-yellow, #FFEF91)"/>
<path d="M1.5 14C1.77614 14 2 13.7761 2 13.5C2 13.2239 1.77614 13 1.5 13C1.22386 13 1 13.2239 1 13.5C1 13.7761 1.22386 14 1.5 14Z" fill="var(--mw-icon-background-medium-yellow, #FFEF91)"/>
<ellipse cx="3.5" cy="8" rx="2.5" ry="4" fill="var(--mw-icon-background-medium-yellow, #FFEF91)"/>
<ellipse cx="11.5" cy="8" rx="2.5" ry="4" fill="var(--mw-icon-background-medium-yellow, #FFEF91)"/>
</svg>
