<svg width="16" height="16" viewBox="0 0 16 16" fill="none" xmlns="http://www.w3.org/2000/svg">
<path d="M0.5 7.5H12.5V11.5C12.5 12.0523 12.0523 12.5 11.5 12.5H1.5C0.947715 12.5 0.5 12.0523 0.5 11.5V7.5Z" fill="var(--mw-icon-background-default-medium-gray, #D9D9D9)" stroke="var(--mw-icon-border-default-gray, #616161)"/>
<rect x="2" y="9" width="1" height="1" rx="0.5" fill="var(--mw-icon-glyph-content-green, #008014)"/>
<path d="M9.5 10.5V9.5H4.5L4.53106 10.5H9.5Z" stroke="var(--mw-icon-glyph-disabled-gray, #888889)" stroke-linecap="square" stroke-linejoin="round"/>
<path d="M0.5 7.49991H12.5V1.49991C12.5 0.947624 12.0523 0.499908 11.5 0.499908H1.5C0.947715 0.499908 0.5 0.947624 0.5 1.49991V7.49991Z" fill="var(--mw-icon-background-default-white, #FFFFFF)"/>
<path d="M0.5 4C2.5 2 4.5 2 6.5 4C8.5 6 10.5 6 12.5 4" stroke="#1171BE" stroke-linecap="round"/>
<path d="M0.5 7.50002H12.5V1.50002C12.5 0.94773 12.0523 0.500015 11.5 0.500015H1.5C0.947715 0.500015 0.5 0.947731 0.5 1.50002V7.50002Z" stroke="var(--mw-icon-border-default-gray, #616161)"/>
<path d="M8.425 7.6C8.47221 7.53705 8.54631 7.5 8.625 7.5H15.25C15.3881 7.5 15.5 7.61193 15.5 7.75V15.25C15.5 15.3881 15.3881 15.5 15.25 15.5H8.625C8.54631 15.5 8.47221 15.463 8.425 15.4L5.6125 11.65C5.54583 11.5611 5.54583 11.4389 5.6125 11.35L8.425 7.6Z" fill="var(--mw-icon-background-default-selection, #B4DEFF)" stroke="var(--mw-icon-border-default-blue, #1656A7)"/>
<path d="M13 13L10 10M10 13L13 10" stroke="var(--mw-icon-glyph-content-blue, #1656A8)" stroke-linecap="square"/>
</svg>
