<svg width="16" height="16" viewBox="0 0 16 16" fill="none" xmlns="http://www.w3.org/2000/svg">
<path d="M13.5 1.0625C13.5 0.75184 13.2482 0.5 12.9375 0.5H8.0625C7.75184 0.5 7.5 0.75184 7.5 1.0625V5.9375C7.5 6.24816 7.75184 6.5 8.0625 6.5H12.9375C13.2482 6.5 13.5 6.24816 13.5 5.9375V1.0625Z" stroke="var(--mw-icon-border-default-gray, #616161)"/>
<path d="M6.5 8.0625C6.5 7.75184 6.24816 7.5 5.9375 7.5H1.0625C0.75184 7.5 0.5 7.75184 0.5 8.0625V12.9375C0.5 13.2482 0.75184 13.5 1.0625 13.5H5.9375C6.24816 13.5 6.5 13.2482 6.5 12.9375V8.0625Z" stroke="var(--mw-icon-border-default-gray, #616161)"/>
<path d="M13.5 7.0625C13.5 6.75184 13.2482 6.5 12.9375 6.5H8.0625C7.75184 6.5 7.5 6.75184 7.5 7.0625V11.9375C7.5 12.2482 7.75184 12.5 8.0625 12.5H12.9375C13.2482 12.5 13.5 12.2482 13.5 11.9375V7.0625Z" stroke="var(--mw-icon-border-default-gray, #616161)"/>
<path d="M6.5 1.0625C6.5 0.75184 6.24816 0.5 5.9375 0.5H1.0625C0.75184 0.5 0.5 0.75184 0.5 1.0625V5.9375C0.5 6.24816 0.75184 6.5 1.0625 6.5H5.9375C6.24816 6.5 6.5 6.24816 6.5 5.9375V1.0625Z" fill="var(--mw-icon-background-default-selection, #B4DEFF)" stroke="var(--mw-icon-borderColor-light-blue, #268CDD)"/>
<path d="M8.425 7.6C8.47221 7.53705 8.54631 7.5 8.625 7.5H15.25C15.3881 7.5 15.5 7.61193 15.5 7.75V15.25C15.5 15.3881 15.3881 15.5 15.25 15.5H8.625C8.54631 15.5 8.47221 15.463 8.425 15.4L5.6125 11.65C5.54583 11.5611 5.54583 11.4389 5.6125 11.35L8.425 7.6Z" fill="var(--mw-icon-background-default-selection, #B4DEFF)" stroke="var(--mw-icon-border-default-blue, #1656A7)"/>
<path d="M13 13L10 10M10 13L13 10" stroke="var(--mw-icon-glyph-content-blue, #1656A8)" stroke-linecap="square"/>
</svg>
