<svg width="16" height="16" viewBox="0 0 16 16" fill="none" xmlns="http://www.w3.org/2000/svg">
<path d="M5 5.5C1.625 5.5 0.5 7.68629 0.5 11V12C0.5 12.2761 0.723858 12.5 1 12.5H9C9.27614 12.5 9.5 12.2761 9.5 12V11C9.5 7.68629 8.375 5.5 5 5.5Z" fill="var(--mw-icon-background-default-white, #FFFFFF)" stroke="var(--mw-icon-border-default-gray, #616161)"/>
<circle cx="5" cy="3" r="2.5" fill="white" stroke="var(--mw-icon-border-default-gray, #616161)"/>
<path d="M8.425 7.6C8.47221 7.53705 8.54631 7.5 8.625 7.5H15.25C15.3881 7.5 15.5 7.61193 15.5 7.75V15.25C15.5 15.3881 15.3881 15.5 15.25 15.5H8.625C8.54631 15.5 8.47221 15.463 8.425 15.4L5.6125 11.65C5.54583 11.5611 5.54583 11.4389 5.6125 11.35L8.425 7.6Z" fill="var(--mw-icon-background-default-selection, #B4DEFF)" stroke="var(--mw-icon-border-default-blue, #1656A7)"/>
<path d="M13 13L10 10M10 13L13 10" stroke="var(--mw-icon-glyph-content-blue, #1656A8)" stroke-linecap="square"/>
</svg>
