<svg width="16" height="16" viewBox="0 0 16 16" fill="none" xmlns="http://www.w3.org/2000/svg">
<rect x="0.5" y="0.5" width="12" height="12" rx="1" fill="var(--mw-icon-background-default-white, #FFFFFF)" stroke="var(--mw-icon-border-default-gray, #616161)"/>
<path d="M2.85355 2.14645C2.65829 1.95118 2.34171 1.95118 2.14645 2.14645C1.95118 2.34171 1.95118 2.65829 2.14645 2.85355L2.85355 2.14645ZM4 4L4.35355 4.35355C4.54882 4.15829 4.54882 3.84171 4.35355 3.64645L4 4ZM2.14645 5.14645C1.95118 5.34171 1.95118 5.65829 2.14645 5.85355C2.34171 6.04882 2.65829 6.04882 2.85355 5.85355L2.14645 5.14645ZM5.85355 2.14645C5.65829 1.95118 5.34171 1.95118 5.14645 2.14645C4.95118 2.34171 4.95118 2.65829 5.14645 2.85355L5.85355 2.14645ZM7 4L7.35355 4.35355C7.54882 4.15829 7.54882 3.84171 7.35355 3.64645L7 4ZM5.14645 5.14645C4.95118 5.34171 4.95118 5.65829 5.14645 5.85355C5.34171 6.04882 5.65829 6.04882 5.85355 5.85355L5.14645 5.14645ZM2.14645 2.85355L3.64645 4.35355L4.35355 3.64645L2.85355 2.14645L2.14645 2.85355ZM3.64645 3.64645L2.14645 5.14645L2.85355 5.85355L4.35355 4.35355L3.64645 3.64645ZM5.14645 2.85355L6.64645 4.35355L7.35355 3.64645L5.85355 2.14645L5.14645 2.85355ZM6.64645 3.64645L5.14645 5.14645L5.85355 5.85355L7.35355 4.35355L6.64645 3.64645Z" fill="var(--mw-icon-glyph-content-gray, #616162)"/>
<path d="M7.425 7.6C7.47221 7.53705 7.54631 7.5 7.625 7.5H14.25C14.3881 7.5 14.5 7.61193 14.5 7.75V15.25C14.5 15.3881 14.3881 15.5 14.25 15.5H7.625C7.54631 15.5 7.47221 15.463 7.425 15.4L4.6125 11.65C4.54583 11.5611 4.54583 11.4389 4.6125 11.35L7.425 7.6Z" fill="var(--mw-icon-background-default-selection, #B4DEFF)" stroke="var(--mw-icon-border-default-blue, #1656A7)"/>
<path d="M11.6464 13.3536L12 13.7071L12.7071 13L12.3536 12.6464L11.6464 13.3536ZM9.35355 9.64645L9 9.29289L8.29289 10L8.64645 10.3536L9.35355 9.64645ZM8.64645 12.6464L8.29289 13L9 13.7071L9.35355 13.3536L8.64645 12.6464ZM12.3536 10.3536L12.7071 10L12 9.29289L11.6464 9.64645L12.3536 10.3536ZM12.3536 12.6464L9.35355 9.64645L8.64645 10.3536L11.6464 13.3536L12.3536 12.6464ZM9.35355 13.3536L12.3536 10.3536L11.6464 9.64645L8.64645 12.6464L9.35355 13.3536Z" fill="var(--mw-icon-glyph-content-blue, #1656A8)"/>
</svg>
