<svg width="16" height="16" viewBox="0 0 16 16" fill="none" xmlns="http://www.w3.org/2000/svg">
<path d="M2.16663 2.1665H11.5L11.5 10.9998C11.5 11.2759 11.2761 11.4998 11 11.4998L2.16663 11.4998V2.1665Z" fill="var(--mw-icon-background-default-white, #FFFFFF)" stroke="var(--mw-icon-borderColor-light-blue, #268CDD)"/>
<path d="M3.5 0.5H11C11.2761 0.5 11.5 0.723857 11.5 1V3.5H3.5V0.5Z" fill="var(--mw-icon-background-default-selection, #B4DEFF)"/>
<path d="M1 11.5C0.723858 11.5 0.500001 11.2761 0.500001 11L0.5 1.00001C0.5 0.723865 0.723856 0.500009 0.999997 0.500007L3.5 0.5L3.5 11.5H1Z" fill="var(--mw-icon-background-default-selection, #B4DEFF)"/>
<path d="M3.5 0.5H11C11.2761 0.5 11.5 0.723857 11.5 1V3.5H3.5V0.5ZM3.5 0.5L0.999997 0.500007C0.723856 0.500009 0.5 0.723865 0.5 1.00001L0.500001 11C0.500001 11.2761 0.723858 11.5 1 11.5H3.5L3.5 0.5Z" stroke="var(--mw-icon-borderColor-light-blue, #268CDD)"/>
<path d="M7.5 3V1M1 3.5H3M1 7.5H3" stroke="var(--mw-icon-borderColor-light-blue, #268CDD)"/>
<path d="M4.5 7H4V8H4.5V7ZM10.5 8H11V7H10.5V8ZM8 4.5V4H7V4.5H8ZM7 10.5V11H8V10.5H7ZM4.5 8H10.5V7H4.5V8ZM7 4.5V10.5H8V4.5H7Z" fill="var(--mw-icon-borderColor-light-blue, #268CDD)"/>
<path d="M8.425 6.6C8.47221 6.53705 8.54631 6.5 8.625 6.5H15.25C15.3881 6.5 15.5 6.61193 15.5 6.75V14.25C15.5 14.3881 15.3881 14.5 15.25 14.5H8.625C8.54631 14.5 8.47221 14.463 8.425 14.4L5.6125 10.65C5.54583 10.5611 5.54583 10.4389 5.6125 10.35L8.425 6.6Z" fill="var(--mw-icon-background-default-selection, #B4DEFF)" stroke="var(--mw-icon-border-default-blue, #1656A7)"/>
<path d="M12.6464 12.3536L13 12.7071L13.7071 12L13.3536 11.6464L12.6464 12.3536ZM10.3536 8.64645L10 8.29289L9.29289 9L9.64645 9.35355L10.3536 8.64645ZM9.64645 11.6464L9.29289 12L10 12.7071L10.3536 12.3536L9.64645 11.6464ZM13.3536 9.35355L13.7071 9L13 8.29289L12.6464 8.64645L13.3536 9.35355ZM13.3536 11.6464L10.3536 8.64645L9.64645 9.35355L12.6464 12.3536L13.3536 11.6464ZM10.3536 12.3536L13.3536 9.35355L12.6464 8.64645L9.64645 11.6464L10.3536 12.3536Z" fill="var(--mw-icon-glyph-content-blue, #1656A8)"/>
</svg>
