<svg width="16" height="16" viewBox="0 0 16 16" fill="none" xmlns="http://www.w3.org/2000/svg">
<path d="M13 11.5L1 11.5C0.723858 11.5 0.5 11.2761 0.5 11L0.499999 3.5L13.5 3.5L13.5 11C13.5 11.2761 13.2761 11.5 13 11.5Z" fill="var(--mw-icon-background-default-white, #FFFFFF)" stroke="var(--mw-icon-border-default-gray, #616161)" stroke-linecap="round"/>
<path d="M13.5 3.5L0.5 3.5L0.5 1C0.5 0.723858 0.723858 0.5 1 0.5L13 0.5C13.2761 0.5 13.5 0.723858 13.5 1L13.5 3.5Z" fill="white" stroke="var(--mw-icon-border-default-gray, #616161)" stroke-linecap="round"/>
<path d="M8.425 7.6C8.47221 7.53705 8.54631 7.5 8.625 7.5H15.25C15.3881 7.5 15.5 7.61193 15.5 7.75V15.25C15.5 15.3881 15.3881 15.5 15.25 15.5H8.625C8.54631 15.5 8.47221 15.463 8.425 15.4L5.6125 11.65C5.54583 11.5611 5.54583 11.4389 5.6125 11.35L8.425 7.6Z" fill="var(--mw-icon-background-default-selection, #B4DEFF)" stroke="var(--mw-icon-border-default-blue, #1656A7)"/>
<path d="M13 13L10 10M10 13L13 10" stroke="var(--mw-icon-glyph-content-blue, #1656A8)" stroke-linecap="square"/>
<path d="M5 7L3.5 9L2 7H3L3 5H4V7H5Z" fill="var(--mw-icon-glyph-content-gray, #616162)"/>
</svg>
