<svg width="16" height="16" viewBox="0 0 16 16" fill="none" xmlns="http://www.w3.org/2000/svg">
<path d="M13 1.5H1C0.723858 1.5 0.5 1.72386 0.5 2V6C0.5 6.27614 0.723858 6.5 1 6.5H13C13.2761 6.5 13.5 6.27614 13.5 6V2C13.5 1.72386 13.2761 1.5 13 1.5Z" fill="var(--mw-icon-background-light-yellow, #FFF5BC)" stroke="#674C06" stroke-linejoin="round"/>
<path d="M2.5 4V6M5.5 4V6M8.5 4V6M11.5 4V6" stroke="var(--mw-icon-glyph-content-yellow, #674C07)"/>
<path d="M8.425 5.6C8.47221 5.53705 8.54631 5.5 8.625 5.5H15.25C15.3881 5.5 15.5 5.61193 15.5 5.75V13.25C15.5 13.3881 15.3881 13.5 15.25 13.5H8.625C8.54631 13.5 8.47221 13.463 8.425 13.4L5.6125 9.65C5.54583 9.56111 5.54583 9.43889 5.6125 9.35L8.425 5.6Z" fill="var(--mw-icon-background-default-selection, #B4DEFF)" stroke="var(--mw-icon-border-default-blue, #1656A7)"/>
<path d="M13 11L10 8M10 11L13 8" stroke="var(--mw-icon-glyph-content-blue, #1656A8)" stroke-linecap="square"/>
</svg>
