<svg width="16" height="16" viewBox="0 0 16 16" fill="none" xmlns="http://www.w3.org/2000/svg">
<path d="M0.840881 0.840914L0.840881 10.3864H15.1591V0.840914H0.840881Z" fill="var(--mw-icon-background-default-white, #FFFFFF)"/>
<path d="M0.840881 10.3864V15.1591H7.99997H15.1591V10.3864H7.99997H0.840881Z" fill="white"/>
<path d="M0.5 7.33144C1.80129 2.10164 3.10259 2.10164 4.40388 7.33144C4.50042 7.71944 4.59697 8.07865 4.69351 8.40909M8.01813 8.40909C8.11467 8.07865 8.21122 7.71944 8.30778 7.33144C9.60904 2.10164 10.9103 2.10164 12.2116 7.33144C12.3081 7.71923 12.4042 8.07846 12.5 8.40909" stroke="#0072BD"/>
<path d="M0.5 8V9H15.5V8H0.5Z" fill="var(--mw-icon-glyph-content-gray, #616162)"/>
<path d="M8 13H7V9H8V13Z" fill="var(--mw-icon-border-default-gray, #616161)"/>
<path d="M10 13L7.5 15L5 13H10Z" fill="var(--mw-icon-glyph-content-gray, #616162)"/>
<path d="M0.5 2.5C0.5 1.39543 1.39543 0.5 2.5 0.5H13.5C14.6046 0.5 15.5 1.39543 15.5 2.5V13.5C15.5 14.6046 14.6046 15.5 13.5 15.5H2.5C1.39543 15.5 0.5 14.6046 0.5 13.5V2.5Z" stroke="var(--mw-icon-border-default-gray, #616161)" stroke-linejoin="round"/>
</svg>
