<svg width="16" height="16" viewBox="0 0 16 16" fill="none" xmlns="http://www.w3.org/2000/svg">
<path d="M1.5 3.5H12.5V11C12.5 11.2761 12.2761 11.5 12 11.5H2C1.72386 11.5 1.5 11.2761 1.5 11V3.5Z" fill="var(--mw-icon-background-lightest-blue, #E2F0FF)" stroke="var(--mw-icon-border-default-blue, #1656A7)"/>
<path d="M0.5 1C0.5 0.723858 0.723858 0.5 1 0.5H13C13.2761 0.5 13.5 0.723858 13.5 1V3.5H0.5V1Z" fill="var(--mw-icon-background-lightest-blue, #E2F0FF)"/>
<path d="M13.5 3.5V4C13.7761 4 14 3.77614 14 3.5H13.5ZM0.5 3.5H0C0 3.77614 0.223858 4 0.5 4L0.5 3.5ZM1 1H13V0H1V1ZM13 1V3.5H14V1H13ZM13.5 3H0.5V4H13.5V3ZM1 3.5V1H0V3.5H1ZM13 1H14C14 0.447715 13.5523 0 13 0V1ZM1 0C0.447715 0 0 0.447715 0 1H1V1V0Z" fill="var(--mw-icon-border-default-blue, #1656A7)"/>
<circle cx="10.5" cy="10.5" r="5" fill="var(--mw-icon-background-default-selection, #B4DEFF)" stroke="var(--mw-icon-border-default-blue, #1656A7)"/>
<path d="M12.7766 8.9307C12.9719 8.73544 12.9719 8.41886 12.7766 8.2236C12.5813 8.02833 12.2648 8.02833 12.0695 8.2236L12.7766 8.9307ZM8.22335 12.0697C8.02809 12.265 8.02809 12.5816 8.22335 12.7769C8.41861 12.9721 8.7352 12.9721 8.93046 12.7769L8.22335 12.0697ZM8.93046 8.2236C8.7352 8.02833 8.41861 8.02833 8.22335 8.2236C8.02809 8.41886 8.02809 8.73544 8.22335 8.9307L8.93046 8.2236ZM12.0695 12.7769C12.2648 12.9721 12.5813 12.9721 12.7766 12.7769C12.9719 12.5816 12.9719 12.265 12.7766 12.0697L12.0695 12.7769ZM12.0695 8.2236L10.1464 10.1467L10.8535 10.8538L12.7766 8.9307L12.0695 8.2236ZM10.1464 10.1467L8.22335 12.0697L8.93046 12.7769L10.8535 10.8538L10.1464 10.1467ZM8.22335 8.9307L10.1464 10.8538L10.8535 10.1467L8.93046 8.2236L8.22335 8.9307ZM10.1464 10.8538L12.0695 12.7769L12.7766 12.0697L10.8535 10.1467L10.1464 10.8538Z" fill="var(--mw-icon-glyph-content-blue, #1656A8)"/>
</svg>
