<svg width="16" height="16" viewBox="0 0 16 16" fill="none" xmlns="http://www.w3.org/2000/svg">
<path d="M0.5 1.5C0.5 0.947715 0.947715 0.5 1.5 0.5H7.5C8.05228 0.5 8.5 0.947715 8.5 1.5V7.5C8.5 8.05228 8.05228 8.5 7.5 8.5H1.5C0.947715 8.5 0.5 8.05228 0.5 7.5V1.5Z" fill="var(--mw-icon-background-default-white, #FFFFFF)" stroke="var(--mw-icon-border-default-gray, #616161)"/>
<path d="M5 2.5C5 2.77614 4.77614 3 4.5 3C4.22386 3 4 2.77614 4 2.5C4 2.22386 4.22386 2 4.5 2C4.77614 2 5 2.22386 5 2.5Z" fill="#1171BE"/>
<path d="M3 3.5C3 3.77614 2.77614 4 2.5 4C2.22386 4 2 3.77614 2 3.5C2 3.22386 2.22386 3 2.5 3C2.77614 3 3 3.22386 3 3.5Z" fill="#1171BE"/>
<path d="M4 5.5C4 5.77614 3.77614 6 3.5 6C3.22386 6 3 5.77614 3 5.5C3 5.22386 3.22386 5 3.5 5C3.77614 5 4 5.22386 4 5.5Z" fill="#1171BE"/>
<path d="M5 4.5C5 4.77614 4.77614 5 4.5 5C4.22386 5 4 4.77614 4 4.5C4 4.22386 4.22386 4 4.5 4C4.77614 4 5 4.22386 5 4.5Z" fill="#1171BE"/>
<path d="M7 3.5C7 3.77614 6.77614 4 6.5 4C6.22386 4 6 3.77614 6 3.5C6 3.22386 6.22386 3 6.5 3C6.77614 3 7 3.22386 7 3.5Z" fill="#1171BE"/>
<path d="M6 6.5C6 6.77614 5.77614 7 5.5 7C5.22386 7 5 6.77614 5 6.5C5 6.22386 5.22386 6 5.5 6C5.77614 6 6 6.22386 6 6.5Z" fill="#1171BE"/>
<path d="M13 2.5C13 2.77614 12.7761 3 12.5 3C12.2239 3 12 2.77614 12 2.5C12 2.22386 12.2239 2 12.5 2C12.7761 2 13 2.22386 13 2.5Z" fill="#DD5400"/>
<path d="M15 2.5C15 2.77614 14.7761 3 14.5 3C14.2239 3 14 2.77614 14 2.5C14 2.22386 14.2239 2 14.5 2C14.7761 2 15 2.22386 15 2.5Z" fill="#DD5400"/>
<path d="M15 4.5C15 4.77614 14.7761 5 14.5 5C14.2239 5 14 4.77614 14 4.5C14 4.22386 14.2239 4 14.5 4C14.7761 4 15 4.22386 15 4.5Z" fill="#DD5400"/>
<path d="M13 4.5C13 4.77614 12.7761 5 12.5 5C12.2239 5 12 4.77614 12 4.5C12 4.22386 12.2239 4 12.5 4C12.7761 4 13 4.22386 13 4.5Z" fill="#DD5400"/>
<path d="M11 4.5C11 4.77614 10.7761 5 10.5 5C10.2239 5 10 4.77614 10 4.5C10 4.22386 10.2239 4 10.5 4C10.7761 4 11 4.22386 11 4.5Z" fill="#DD5400"/>
<path d="M12 6.5C12 6.77614 11.7761 7 11.5 7C11.2239 7 11 6.77614 11 6.5C11 6.22386 11.2239 6 11.5 6C11.7761 6 12 6.22386 12 6.5Z" fill="#DD5400"/>
<path d="M3 10.5C3 10.7761 2.77614 11 2.5 11C2.22386 11 2 10.7761 2 10.5C2 10.2239 2.22386 10 2.5 10C2.77614 10 3 10.2239 3 10.5Z" fill="#3BAA32"/>
<path d="M6 11.5C6 11.7761 5.77614 12 5.5 12C5.22386 12 5 11.7761 5 11.5C5 11.2239 5.22386 11 5.5 11C5.77614 11 6 11.2239 6 11.5Z" fill="#3BAA32"/>
<path d="M4 12.5C4 12.7761 3.77614 13 3.5 13C3.22386 13 3 12.7761 3 12.5C3 12.2239 3.22386 12 3.5 12C3.77614 12 4 12.2239 4 12.5Z" fill="#3BAA32"/>
<path d="M6 13.5C6 13.7761 5.77614 14 5.5 14C5.22386 14 5 13.7761 5 13.5C5 13.2239 5.22386 13 5.5 13C5.77614 13 6 13.2239 6 13.5Z" fill="#3BAA32"/>
<path d="M3 14.5C3 14.7761 2.77614 15 2.5 15C2.22386 15 2 14.7761 2 14.5C2 14.2239 2.22386 14 2.5 14C2.77614 14 3 14.2239 3 14.5Z" fill="#3BAA32"/>
<path d="M2 12.5C2 12.7761 1.77614 13 1.5 13C1.22386 13 1 12.7761 1 12.5C1 12.2239 1.22386 12 1.5 12C1.77614 12 2 12.2239 2 12.5Z" fill="#3BAA32"/>
<path d="M13 10.5C13 10.7761 12.7761 11 12.5 11C12.2239 11 12 10.7761 12 10.5C12 10.2239 12.2239 10 12.5 10C12.7761 10 13 10.2239 13 10.5Z" fill="#8516D1"/>
<path d="M11 11.5C11 11.7761 10.7761 12 10.5 12C10.2239 12 10 11.7761 10 11.5C10 11.2239 10.2239 11 10.5 11C10.7761 11 11 11.2239 11 11.5Z" fill="#8516D1"/>
<path d="M11.5 13.5C11.5 13.7761 11.2761 14 11 14C10.7239 14 10.5 13.7761 10.5 13.5C10.5 13.2239 10.7239 13 11 13C11.2761 13 11.5 13.2239 11.5 13.5Z" fill="#8516D1"/>
<path d="M13 12.5C13 12.7761 12.7761 13 12.5 13C12.2239 13 12 12.7761 12 12.5C12 12.2239 12.2239 12 12.5 12C12.7761 12 13 12.2239 13 12.5Z" fill="#8516D1"/>
<path d="M15 11.5C15 11.7761 14.7761 12 14.5 12C14.2239 12 14 11.7761 14 11.5C14 11.2239 14.2239 11 14.5 11C14.7761 11 15 11.2239 15 11.5Z" fill="#8516D1"/>
<path d="M14 14.5C14 14.7761 13.7761 15 13.5 15C13.2239 15 13 14.7761 13 14.5C13 14.2239 13.2239 14 13.5 14C13.7761 14 14 14.2239 14 14.5Z" fill="#8516D1"/>
</svg>
