<svg width="16" height="16" viewBox="0 0 16 16" fill="none" xmlns="http://www.w3.org/2000/svg">
<path d="M0.5 12.5V2.5C0.5 1.39543 1.39543 0.5 2.5 0.5H12.5C13.6046 0.5 14.5 1.39543 14.5 2.5V12.5C14.5 13.6046 13.6046 14.5 12.5 14.5H2.5C1.39543 14.5 0.5 13.6046 0.5 12.5Z" fill="var(--mw-icon-background-default-white, white)"/>
<path d="M1 13V2C1 1.44772 1.44771 1 2 1H6.09091V14H2C1.44772 14 1 13.5523 1 13Z" fill="#E6E6E6"/>
<circle cx="3.5" cy="3.5" r="1.5" fill="var(--mw-icon-glyph-content-green, #008014)"/>
<circle cx="3.5" cy="7.5" r="1.5" fill="#EDB120"/>
<circle cx="3.5" cy="11.5" r="1.5" fill="#B7312C"/>
<path d="M0.5 12.5V2.5C0.5 1.39543 1.39543 0.5 2.5 0.5H12.5C13.6046 0.5 14.5 1.39543 14.5 2.5V12.5C14.5 13.6046 13.6046 14.5 12.5 14.5H2.5C1.39543 14.5 0.5 13.6046 0.5 12.5Z" stroke="#B7312C" stroke-linecap="round"/>
<path d="M8.4375 3.5L7.5 4.5L8.4375 5.5M11.5625 3.5L12.5 4.5L11.5625 5.5M10.3125 2.5L9.6875 6.5" stroke="var(--mw-icon-glyph-content-gray, #616162)" stroke-linecap="round" stroke-linejoin="round"/>
<path d="M11 13L10 13L10 11L8.5 11L10.5 8.5L12.5 11L11 11L11 13Z" fill="var(--mw-icon-glyph-content-green, #008014)"/>

</svg>
