<svg width="16" height="16" viewBox="0 0 16 16" fill="none" xmlns="http://www.w3.org/2000/svg">
<path d="M0.5 12.5V2.5C0.5 1.39543 1.39543 0.5 2.5 0.5H12.5C13.6046 0.5 14.5 1.39543 14.5 2.5V12.5C14.5 13.6046 13.6046 14.5 12.5 14.5H2.5C1.39543 14.5 0.5 13.6046 0.5 12.5Z" fill="var(--mw-icon-background-default-white, #FFFFFF)"/>
<path d="M1 12.7679V2C1 1.44772 1.44772 1 2 1H6V13.7679H2C1.44772 13.7679 1 13.3201 1 12.7679Z" fill="#E6E6E6"/>
<ellipse cx="3.45536" cy="3.45533" rx="1.47321" ry="1.47321" fill="var(--mw-icon-glyph-content-green, #008014)"/>
<ellipse cx="3.45536" cy="7.38392" rx="1.47321" ry="1.47321" fill="#EDB120"/>
<circle cx="3.5" cy="11.5" r="1.5" fill="#B7312C"/>
<path d="M0.5 12.5V2.5C0.5 1.39543 1.39543 0.5 2.5 0.5H12.5C13.6046 0.5 14.5 1.39543 14.5 2.5V12.5C14.5 13.6046 13.6046 14.5 12.5 14.5H2.5C1.39543 14.5 0.5 13.6046 0.5 12.5Z" stroke="#B7312C" stroke-linecap="round"/>
<path d="M8.5 3.5L7.5 4.5L8.5 5.5M11.5 3.5L12.5 4.5L11.5 5.5M10.5 2.5L9.5 6.5" stroke="var(--mw-icon-glyph-content-gray, #616162)" stroke-linecap="round" stroke-linejoin="round"/>
<path d="M8 11L9.5 12.5L12.5 9.5" stroke="var(--mw-icon-glyph-content-green, #008014)" stroke-linecap="round" stroke-linejoin="round"/>
</svg>
