<svg width="16" height="16" viewBox="0 0 16 16" fill="none" xmlns="http://www.w3.org/2000/svg">
<path d="M2.5 3.5C2.5 2.94772 2.94772 2.5 3.5 2.5H13.5C14.0523 2.5 14.5 2.94772 14.5 3.5V13.5C14.5 14.0523 14.0523 14.5 13.5 14.5H3.5C2.94772 14.5 2.5 14.0523 2.5 13.5V3.5Z" fill="var(--mw-icon-background-default-selection, #B4DEFF)" stroke="var(--mw-icon-glyph-content-dark-blue, #104280)"/>
<path d="M0.5 1.5C0.5 0.947715 0.947715 0.5 1.5 0.5H11.5C12.0523 0.5 12.5 0.947715 12.5 1.5V11.5C12.5 12.0523 12.0523 12.5 11.5 12.5H1.5C0.947715 12.5 0.5 12.0523 0.5 11.5V1.5Z" fill="var(--mw-icon-background-default-white, #FFFFFF)" stroke="var(--mw-icon-glyph-content-dark-blue, #104280)"/>
<path d="M2.5 2.5H4.13636H5.5M4.5 4.9H6.13636H7.5M6.5 7.3H8.13636H9.5M4.5 9.7H6.13636H7.5" stroke="var(--mw-icon-glyph-content-dark-blue, #104280)" stroke-linecap="square" stroke-linejoin="round"/>
</svg>
