<svg xmlns="http://www.w3.org/2000/svg" width="16" height="16" viewBox="0 0 16 16" fill="none">
    <path d="M6.5 0.5H1.5C0.947715 0.5 0.5 0.947715 0.5 1.5V14.5C0.5 15.0523 0.947715 15.5 1.5 15.5H6.5V0.5Z" fill="var(--mw-sidebar-icon-fill, #ffffff)" stroke="var(--mw-sidebar-icon-stroke, #616161)" stroke-linecap="round"/>
    <path d="M14.5 0.5H6.5V15.5H14.5C15.0523 15.5 15.5 15.0523 15.5 14.5V1.5C15.5 0.947715 15.0523 0.5 14.5 0.5Z" fill="var(--mw-sidebar-icon-fill, #ffffff)" stroke="var(--mw-sidebar-icon-stroke, #616161)" stroke-linecap="round"/>
    <path d="M8.5 2.5H11.5M10.5 6.5H13.5M8.5 8.5H11.5M8.5 12.5H11.5" stroke="var(--mw-sidebar-icon-stroke-de-emphasized, #888888)" stroke-linecap="square"/>
    <path d="M9.5 4.5H12.5M10.5 10.5H13.5" stroke="var(--mw-sidebar-icon-stroke, #616161)" stroke-linecap="square"/>
    <path d="M4.5 4.5C4.5 5.05228 4.05228 5.5 3.5 5.5C2.94772 5.5 2.5 5.05228 2.5 4.5C2.5 3.94772 2.94772 3.5 3.5 3.5C4.05228 3.5 4.5 3.94772 4.5 4.5Z" fill="var(--mw-sidebar-icon-stroke, #616161)"/>
    <path d="M4.5 10.5C4.5 11.0523 4.05228 11.5 3.5 11.5C2.94772 11.5 2.5 11.0523 2.5 10.5C2.5 9.94772 2.94772 9.5 3.5 9.5C4.05228 9.5 4.5 9.94772 4.5 10.5Z" fill="var(--mw-sidebar-icon-stroke, #616161)"/>
    <path d="M4.5 4.5C4.5 5.05228 4.05228 5.5 3.5 5.5C2.94772 5.5 2.5 5.05228 2.5 4.5C2.5 3.94772 2.94772 3.5 3.5 3.5C4.05228 3.5 4.5 3.94772 4.5 4.5Z" stroke="var(--mw-sidebar-icon-stroke, #616161)"/>
    <path d="M4.5 10.5C4.5 11.0523 4.05228 11.5 3.5 11.5C2.94772 11.5 2.5 11.0523 2.5 10.5C2.5 9.94772 2.94772 9.5 3.5 9.5C4.05228 9.5 4.5 9.94772 4.5 10.5Z" stroke="var(--mw-sidebar-icon-stroke, #616161)"/>
</svg>