<svg width="16" height="16" viewBox="0 0 16 16" fill="none" xmlns="http://www.w3.org/2000/svg">
<rect x="0.5" y="0.5" width="10" height="10" rx="1" fill="var(--mw-icon-background-light-yellow, #FFF5BC)" stroke="var(--mw-icon-border-default-blue, #1656A7)"/>
<path d="M1.49988 5.49999H9.49988M5.50003 1.5L5.50003 9.5" stroke="var(--mw-icon-glyph-content-light-blue, #278CDD)" stroke-linecap="square"/>
<path d="M15.5 14.5C15.5 15.0523 15.0523 15.5 14.5 15.5L6.5 15.5C5.94772 15.5 5.5 15.0523 5.5 14.5L5.5 6.5C5.5 5.94772 5.94772 5.5 6.5 5.5L14.5 5.5C15.0523 5.5 15.5 5.94772 15.5 6.5L15.5 14.5Z" fill="var(--mw-icon-background-default-white, #FFFFFF)" stroke="var(--mw-icon-border-default-gray, #616161)"/>
<path d="M10.5 9.5L10.5 7.5L6.5 10.5L10.5 13.5L10.5 11.5L11 11.5C12.3807 11.5 13.5 10.3807 13.5 9L13.5 6C13.5 7.53679 11.9728 9.5 10.5 9.5Z" fill="var(--mw-icon-background-default-action, #CBFFBE)" stroke="var(--mw-icon-border-default-green, #008013)" stroke-linecap="square"/>
</svg>
