<svg width="16" height="16" viewBox="0 0 16 16" fill="none" xmlns="http://www.w3.org/2000/svg">
<path d="M9.5 2.5L7.5 0.5L5.5 2.5H2.49999L2.5 5.5L0.5 7.5L2.5 9.5L2.49999 12.5H5.5L7.5 14.5L9.5 12.5H12.5L12.5 9.5L14.5 7.5L12.5 5.5V2.5H9.5Z" fill="var(--mw-icon-background-red, #FF9D9A)" stroke="var(--mw-icon-border-default-red, #902622)" stroke-linejoin="round"/>
<path d="M8 10.5C8 10.7761 7.77614 11 7.5 11C7.22386 11 7 10.7761 7 10.5C7 10.2239 7.22386 10 7.5 10C7.77614 10 8 10.2239 8 10.5Z" fill="var(--mw-icon-glyph-content-dark-red, #610908)"/>
<path fill-rule="evenodd" clip-rule="evenodd" d="M7.5 4C7.77614 4 8 4.22386 8 4.5V8.5C8 8.77614 7.77614 9 7.5 9C7.22386 9 7 8.77614 7 8.5V4.5C7 4.22386 7.22386 4 7.5 4Z" fill="var(--mw-icon-glyph-content-dark-red, #610908)"/>
</svg>
