<svg width="16" height="16" viewBox="0 0 16 16" fill="none" xmlns="http://www.w3.org/2000/svg">
<path d="M11.5 0.5H1.5C0.947715 0.5 0.5 0.947715 0.5 1.5V11.5C0.5 12.0523 0.947715 12.5 1.5 12.5H11.5C12.0523 12.5 12.5 12.0523 12.5 11.5V1.5C12.5 0.947715 12.0523 0.5 11.5 0.5Z" fill="var(--mw-icon-background-default-white, #FFFFFF)" stroke="var(--mw-icon-border-default-gray, #616161)"/>
<path d="M2.52081 12V10" stroke="var(--mw-icon-glyph-content-dark-gray, #333333)"/>
<path d="M6.42857 2L4.5 3.92857V6.07143L5.92857 7.5H8.07143L10 5.57143" stroke="var(--mw-icon-glyph-content-dark-gray, #333333)"/>
<path d="M2 10L5 7" stroke="var(--mw-icon-glyph-content-dark-gray, #333333)"/>
<circle cx="2.5" cy="9.5" r="1" fill="white" stroke="var(--mw-icon-glyph-content-dark-gray, #333333)"/>
<path fill-rule="evenodd" clip-rule="evenodd" d="M7.5 9L6 10.5L7.5 12V13.5H9L10.5 15L12 13.5H13.5V12L15 10.5L13.5 9V7.5H12L10.5 6L9 7.5H7.5V9Z" fill="var(--mw-icon-background-red, #FF9D9A)"/>
<path d="M6 10.5L5.64645 10.1464L5.29289 10.5L5.64645 10.8536L6 10.5ZM7.5 9L7.85355 9.35355L8 9.20711V9H7.5ZM7.5 12H8V11.7929L7.85355 11.6464L7.5 12ZM7.5 13.5H7V14H7.5V13.5ZM9 13.5L9.35355 13.1464L9.2071 13H9V13.5ZM10.5 15L10.1464 15.3536L10.5 15.7071L10.8536 15.3536L10.5 15ZM12 13.5V13H11.7929L11.6465 13.1464L12 13.5ZM13.5 13.5V14H14V13.5H13.5ZM13.5 12L13.1464 11.6464L13 11.7929V12H13.5ZM15 10.5L15.3536 10.8536L15.7071 10.5L15.3536 10.1464L15 10.5ZM13.5 9H13V9.20711L13.1464 9.35355L13.5 9ZM13.5 7.5H14V7H13.5V7.5ZM12 7.5L11.6464 7.85355L11.7929 8H12V7.5ZM10.5 6L10.8536 5.64645L10.5 5.29289L10.1464 5.64645L10.5 6ZM9 7.5V8H9.20711L9.35356 7.85355L9 7.5ZM7.5 7.5V7H7V7.5H7.5ZM6.35355 10.8536L7.85355 9.35355L7.14645 8.64645L5.64645 10.1464L6.35355 10.8536ZM7.85355 11.6464L6.35355 10.1464L5.64645 10.8536L7.14645 12.3536L7.85355 11.6464ZM8 13.5V12H7V13.5H8ZM9 13H7.5V14H9V13ZM10.8536 14.6464L9.35355 13.1464L8.64644 13.8535L10.1464 15.3536L10.8536 14.6464ZM11.6465 13.1464L10.1464 14.6464L10.8536 15.3536L12.3536 13.8535L11.6465 13.1464ZM13.5 13H12V14H13.5V13ZM13 12V13.5H14V12H13ZM14.6464 10.1464L13.1464 11.6464L13.8536 12.3536L15.3536 10.8536L14.6464 10.1464ZM13.1464 9.35355L14.6464 10.8536L15.3536 10.1464L13.8536 8.64645L13.1464 9.35355ZM13 7.5V9H14V7.5H13ZM12 8H13.5V7H12V8ZM10.1464 6.35355L11.6464 7.85355L12.3535 7.14644L10.8536 5.64645L10.1464 6.35355ZM9.35356 7.85355L10.8536 6.35355L10.1464 5.64645L8.64645 7.14644L9.35356 7.85355ZM7.5 8H9V7H7.5V8ZM8 9V7.5H7V9H8Z" fill="var(--mw-icon-border-default-red, #902622)"/>
<path d="M11 12.5C11 12.7761 10.7761 13 10.5 13C10.2239 13 10 12.7761 10 12.5C10 12.2239 10.2239 12 10.5 12C10.7761 12 11 12.2239 11 12.5Z" fill="var(--mw-icon-glyph-content-dark-red, #610908)"/>
<path d="M10 8H11V11H10V8Z" fill="var(--mw-icon-glyph-content-dark-red, #610908)"/>
</svg>
