<svg width="16" height="16" viewBox="0 0 16 16" fill="none" xmlns="http://www.w3.org/2000/svg">
<path d="M14.5 0.5H1.5C0.947715 0.5 0.5 0.947715 0.5 1.5V14.5C0.5 15.0523 0.947715 15.5 1.5 15.5H14.5C15.0523 15.5 15.5 15.0523 15.5 14.5V1.5C15.5 0.947715 15.0523 0.5 14.5 0.5Z" fill="var(--mw-icon-background-default-white, #FFFFFF)" stroke="var(--mw-icon-border-default-gray, #616161)" stroke-linecap="round"/>
<path d="M14 13.5C14 13.7761 13.7761 14 13.5 14L12 14L12 2L13.5 2C13.7761 2 14 2.22386 14 2.5L14 13.5Z" fill="#F57729"/>
<path d="M10 2H12V14H10V2Z" fill="#FFD60A"/>
<path d="M8 2H10V14H8V2Z" fill="#3AC831"/>
<path d="M6 2H8V14H6V2Z" fill="var(--mw-icon-borderColor-light-blue, #268CDD)"/>
<path d="M4 2H6V14H4V2Z" fill="#C05CFB"/>
<path d="M2 2.5C2 2.22386 2.22386 2 2.5 2H4V14H2.5C2.22386 14 2 13.7761 2 13.5V2.5Z" fill="#F267C5"/>
</svg>
