<svg width="16" height="16" viewBox="0 0 16 16" fill="none" xmlns="http://www.w3.org/2000/svg">
<path d="M0.5 12.5V2.5C0.5 1.39543 1.39543 0.5 2.5 0.5H12.5C13.6046 0.5 14.5 1.39543 14.5 2.5V12.5C14.5 13.6046 13.6046 14.5 12.5 14.5H2.5C1.39543 14.5 0.5 13.6046 0.5 12.5Z" fill="var(--mw-icon-background-default-selection, #B4DEFF)"/>
<path d="M0.5 12.5V2.5C0.5 1.39543 1.39543 0.5 2.5 0.5H12.5C13.6046 0.5 14.5 1.39543 14.5 2.5V12.5C14.5 13.6046 13.6046 14.5 12.5 14.5H2.5C1.39543 14.5 0.5 13.6046 0.5 12.5Z" fill="var(--mw-icon-background-default-selection, #B4DEFF)"/>
<path d="M8 5.19184C7.10521 3.98943 6.12776 3 5.29545 3C4.07309 3 3.059 5.09068 2.41313 6.42222C2.13434 6.99697 1.92416 7.43029 1.79545 7.49296C1.47727 7.64789 0.159091 7.33803 0 7.02817L0.5 12.5C0.5 13.8807 1.11929 14.5 2.5 14.5H8V5.19184Z" fill="var(--mw-icon-glyph-content-green, #008014)"/>
<path d="M7 1H13C13.5523 1 14 1.44772 14 2V10.5C14 12.433 12.433 14 10.5 14H7V1Z" fill="var(--mw-icon-glyph-content-dark-gray, #333333)"/>
<path d="M7 13.9999H13.4091L14.5 12.4506L15 7.80275C14.4697 6.97646 13.2182 5.32388 12.4546 5.32388C11.691 5.32388 10.5985 7.3896 10.0682 8.42247C9.36031 7.21601 8.17987 5.20428 7 3.99976V13.9999Z" fill="var(--mw-icon-background-default-white, white)"/>
<path d="M7.5 0.5V14.5" stroke="var(--mw-icon-border-default-gray, #616161)"/>
<path d="M0.5 12.5V2.5C0.5 1.39543 1.39543 0.5 2.5 0.5H12.5C13.6046 0.5 14.5 1.39543 14.5 2.5V12.5C14.5 13.6046 13.6046 14.5 12.5 14.5H2.5C1.39543 14.5 0.5 13.6046 0.5 12.5Z" stroke="var(--mw-icon-border-default-gray, #616161)" stroke-linecap="round"/>

</svg>
