<svg width="17" height="16" viewBox="0 0 17 16" fill="none" xmlns="http://www.w3.org/2000/svg">
<path d="M4.5 12.5L4.50001 0.5L0.500006 0.5L0.5 12.5L4.5 12.5Z" fill="var(--mw-icon-background-default-medium-gray, #D9D9D9)"/>
<path d="M4.5 12.5V13C4.77614 13 5 12.7761 5 12.5H4.5ZM4.50001 0.5L5.00001 0.500001C5.00001 0.367393 4.94733 0.240215 4.85356 0.146447C4.75979 0.052679 4.63262 5.06639e-07 4.50001 4.76837e-07V0.5ZM0.500006 0.5L0.500006 0C0.223864 -5.96046e-08 6.34789e-06 0.223857 6.19888e-06 0.5L0.500006 0.5ZM0.5 12.5H0C-5.96046e-08 12.6326 0.0526783 12.7598 0.146447 12.8536C0.240215 12.9473 0.367392 13 0.5 13L0.5 12.5ZM3.5 9H4V8H3.5V9ZM1.5 8H1V9H1.5V8ZM3.5 5H4V4H3.5V5ZM1.5 4H1V5H1.5V4ZM5 12.5L5.00001 0.500001L4.00001 0.5L4 12.5H5ZM4.50001 4.76837e-07L0.500006 0L0.500006 1L4.50001 1V4.76837e-07ZM6.19888e-06 0.5L0 12.5H1L1.00001 0.5L6.19888e-06 0.5ZM0.5 13L4.5 13V12L0.5 12L0.5 13ZM3.5 8H1.5V9H3.5V8ZM3.5 4H1.5V5H3.5V4Z" fill="var(--mw-icon-border-disabled-gray, #888888)"/>
<path d="M15.5 11.5L3.5 11.5L3.5 15.5H15.5L15.5 11.5Z" fill="var(--mw-icon-background-default-white, #FFFFFF)"/>
<path d="M15.5 11.5L16 11.5C16 11.2239 15.7761 11 15.5 11V11.5ZM3.5 11.5L3.5 11C3.36739 11 3.24022 11.0527 3.14645 11.1464C3.05268 11.2402 3 11.3674 3 11.5L3.5 11.5ZM3.5 15.5H3C3 15.6326 3.05268 15.7598 3.14645 15.8536C3.24021 15.9473 3.36739 16 3.5 16V15.5ZM15.5 15.5V16C15.6326 16 15.7598 15.9473 15.8536 15.8536C15.9473 15.7598 16 15.6326 16 15.5L15.5 15.5ZM12 12.5V12H11V12.5H12ZM11 14.5V15H12V14.5H11ZM8 12.5V12H7V12.5H8ZM7 14.5V15H8V14.5H7ZM15.5 11L3.5 11L3.5 12L15.5 12V11ZM3 11.5L3 15.5H4L4 11.5L3 11.5ZM3.5 16H15.5V15H3.5V16ZM16 15.5L16 11.5L15 11.5L15 15.5L16 15.5ZM11 12.5V14.5H12V12.5H11ZM7 12.5V14.5H8V12.5H7Z" fill="var(--mw-icon-border-default-gray, #616161)"/>
<path d="M7 6.5L9.5 6.5L9.5 5.5C9.5 4.39543 8.60457 3.5 7.5 3.5L6.5 3.5L6.5 0.5L8.5 0.5C10.7091 0.5 12.5 2.29086 12.5 4.5L12.5 6.5L15 6.5L11 11L7 6.5Z" fill="var(--mw-icon-background-default-action, #CBFFBE)" stroke="var(--mw-icon-border-default-green, #008013)"/>
</svg>
