<svg width="16" height="16" viewBox="0 0 16 16" fill="none" xmlns="http://www.w3.org/2000/svg">
<path d="M0.5 2.5C0.5 1.39543 1.39543 0.5 2.5 0.5H13.5C14.6046 0.5 15.5 1.39543 15.5 2.5V13.5C15.5 14.6046 14.6046 15.5 13.5 15.5H2.5C1.39543 15.5 0.5 14.6046 0.5 13.5V2.5Z" fill="var(--mw-icon-background-default-white, #FFFFFF)"/>
<path d="M15.5 11.5C13.5 9.5 13.5 3.5 13.5 3.5C13.5 3.5 13.5 9 12.5 10.5C11.5 12 11.5 13.5 11.5 13.5C11.5 13.5 11.5 12 10.5 10.5C9.5 9 9.5 3.5 9.5 3.5C9.5 3.5 9.5 9 8.5 10.5C7.5 12 7.5 13.5 7.5 13.5C7.5 13.5 7.5 12 6.5 10.5C5.5 9 5.50403 3.52733 5.5 3.5C5.5 3.5 5.5 9 4.5 10.5C3.54839 11.9274 3.50234 13.3458 3.50011 13.4797C3.50073 13.3481 3.48279 11.9742 2.5 10.5C1.46635 8.94952 1.5 3.5 1.5 3.5L0.5 10.5V13.5009C0.5 14.6054 1.39543 15.5 2.5 15.5H13.5C14.6046 15.5 15.5 14.6046 15.5 13.5V11.5Z" fill="#2FBEEF" stroke="#1171BE" stroke-linejoin="round"/>
<path d="M0.5 2.5C0.5 1.39543 1.39543 0.5 2.5 0.5H13.5C14.6046 0.5 15.5 1.39543 15.5 2.5V13.5C15.5 14.6046 14.6046 15.5 13.5 15.5H2.5C1.39543 15.5 0.5 14.6046 0.5 13.5V2.5Z" stroke="var(--mw-icon-border-default-gray, #616161)" stroke-linejoin="round"/>
</svg>
