<svg width="16" height="16" viewBox="0 0 16 16" fill="none" xmlns="http://www.w3.org/2000/svg">
<path d="M0.5 0.5H14.5V14.5H0.5V0.5Z" fill="var(--mw-icon-background-default-white, #FFFFFF)" stroke="var(--mw-icon-border-default-gray, #616161)" stroke-linejoin="round"/>
<path d="M9 3L7.5 5L6 3H9Z" fill="var(--mw-icon-glyph-content-gray, #616162)"/>
<path d="M9 12L7.5 10L6 12H9Z" fill="var(--mw-icon-glyph-content-gray, #616162)"/>
<path fill-rule="evenodd" clip-rule="evenodd" d="M7 3V1H8V3H7Z" fill="var(--mw-icon-glyph-content-gray, #616162)"/>
<path fill-rule="evenodd" clip-rule="evenodd" d="M7 14L7 12H8L8 14H7Z" fill="var(--mw-icon-glyph-content-gray, #616162)"/>
<path d="M14 9L14 6L1 6L1 9L14 9Z" fill="var(--mw-icon-background-default-medium-gray, #D9D9D9)"/>
<path d="M12.2737 5.5C12.5971 6.15133 12.9206 7.14228 13.2441 8.47278C13.3297 8.82479 13.415 9.15319 13.5 9.45795M10.4124 5.5C10.0888 6.15133 9.76533 7.14228 9.44189 8.47278C9.35626 8.82496 9.27063 9.15336 9.185 9.45795M4.58866 5.54205C4.9121 6.19338 5.23561 7.18433 5.55912 8.51482C5.64471 8.86683 5.72998 9.19524 5.815 9.5M2.72735 5.54205C2.40384 6.19338 2.08033 7.18433 1.75689 8.51482C1.67126 8.86701 1.58563 9.1954 1.5 9.5" stroke="var(--mw-icon-glyph-content-light-blue, #278CDD)"/>
<path d="M14 5.5H1M14 9.5H1" stroke="var(--mw-icon-border-default-gray, #616161)"/>
</svg>
