<svg width="16" height="16" viewBox="0 0 16 16" fill="none" xmlns="http://www.w3.org/2000/svg">
<rect x="2.5" y="0.5" width="8" height="10" rx="0.5" fill="var(--mw-icon-background-default-medium-gray, #D9D9D9)" stroke="var(--mw-icon-border-default-gray, #616161)"/>
<rect x="0.5" y="2.5" width="8" height="10" rx="0.5" fill="var(--mw-icon-background-default-white, #FFFFFF)" stroke="var(--mw-icon-border-default-gray, #616161)" stroke-linejoin="round"/>
<path d="M2 5.5H7M2 7.5H7M2 9.5H7" stroke="var(--mw-icon-glyph-content-gray, #616162)"/>
<path d="M5.5 6.5C5.5 5.94772 5.94772 5.5 6.5 5.5H14.5C15.0523 5.5 15.5 5.94772 15.5 6.5V14.5C15.5 15.0523 15.0523 15.5 14.5 15.5H6.5C5.94772 15.5 5.5 15.0523 5.5 14.5V6.5Z" fill="var(--mw-icon-background-default-medium-gray, #D9D9D9)"/>
<path d="M10.5 10.5L5.5 12.5L10.5 14.5L15.5 12.5L10.5 10.5Z" fill="white" stroke="var(--mw-icon-glyph-content-gray, #616162)" stroke-linejoin="round"/>
<path d="M11.5 5.5H9.5V8.5H7L10.5 12.5L14 8.5H11.5V5.5Z" fill="var(--mw-icon-background-default-action, #CBFFBE)" stroke="var(--mw-icon-border-default-green, #008013)"/>
<path d="M5.5 6.5C5.5 5.94772 5.94772 5.5 6.5 5.5H14.5C15.0523 5.5 15.5 5.94772 15.5 6.5V14.5C15.5 15.0523 15.0523 15.5 14.5 15.5H6.5C5.94772 15.5 5.5 15.0523 5.5 14.5V6.5Z" stroke="var(--mw-icon-border-default-gray, #616161)"/>
</svg>
