<svg width="16" height="16" viewBox="0 0 16 16" fill="none" xmlns="http://www.w3.org/2000/svg">
<path d="M13.5 0.5H1.5C0.947715 0.5 0.5 0.947716 0.5 1.5V13.5C0.5 14.0523 0.947716 14.5 1.5 14.5H13.5C14.0523 14.5 14.5 14.0523 14.5 13.5V1.5C14.5 0.947715 14.0523 0.5 13.5 0.5Z" fill="var(--mw-icon-background-default-white, #FFFFFF)" stroke="var(--mw-icon-border-default-gray, #616161)" stroke-linecap="round"/>
<circle cx="11.5" cy="2.5" r="0.5" fill="var(--mw-icon-borderColor-light-blue, #268CDD)"/>
<circle cx="11.5" cy="4.5" r="0.5" fill="var(--mw-icon-borderColor-light-blue, #268CDD)"/>
<circle cx="12.5" cy="3.5" r="0.5" fill="var(--mw-icon-borderColor-light-blue, #268CDD)"/>
<circle cx="11.5" cy="3.5" r="0.5" fill="var(--mw-icon-borderColor-light-blue, #268CDD)"/>
<circle cx="10.5" cy="3.5" r="0.5" fill="var(--mw-icon-borderColor-light-blue, #268CDD)"/>
<path d="M9.5 5.5L5.5 9.5" stroke="var(--mw-icon-glyph-content-gray, #616162)" stroke-linecap="square" stroke-dasharray="2 2"/>
<circle cx="3.5" cy="10.5" r="0.5" fill="var(--mw-icon-glyph-content-light-blue, #278CDD)"/>
<circle cx="3.5" cy="11.5" r="0.5" fill="var(--mw-icon-glyph-content-light-blue, #278CDD)"/>
<circle cx="3.5" cy="12.5" r="0.5" fill="var(--mw-icon-glyph-content-light-blue, #278CDD)"/>
<circle cx="4.5" cy="11.5" r="0.5" fill="var(--mw-icon-glyph-content-light-blue, #278CDD)"/>
<circle cx="2.5" cy="11.5" r="0.5" fill="var(--mw-icon-glyph-content-light-blue, #278CDD)"/>
</svg>
