<svg width="16" height="16" viewBox="0 0 16 16" fill="none" xmlns="http://www.w3.org/2000/svg">
<path d="M1 1.5C1 0.947716 1.44772 0.5 2 0.5H14C14.5523 0.5 15 0.947715 15 1.5V13.5C15 14.0523 14.5523 14.5 14 14.5H2C1.44772 14.5 1 14.0523 1 13.5V1.5Z" fill="var(--mw-icon-background-default-white, #FFFFFF)"/>
<path d="M2.5 1L4 3H1L2.5 1Z" fill="var(--mw-icon-glyph-content-gray, #616162)"/>
<path d="M14 12.5L12 14V11L14 12.5Z" fill="var(--mw-icon-glyph-content-gray, #616162)"/>
<path d="M4.5 12.5C4.5 12.5 5 11.5 4 11" stroke="var(--mw-icon-glyph-content-gray, #616162)"/>
<path d="M2.5 12.5L10.5 4.5" stroke="#DD5400"/>
<path d="M2.5 3V12.5H12.5" stroke="var(--mw-icon-glyph-content-gray, #616162)" stroke-linecap="round" stroke-linejoin="round"/>
<path d="M3 4.5H10.5V12" stroke="#1171BE" stroke-linejoin="round"/>
<path d="M9.5 11.5C9.5 11.5 8.05228 9.5 7.5 9.5C6.94772 9.5 6.5 9.94772 6.5 10.5C6.5 11.0523 6.94772 11.5 7.5 11.5C8.05228 11.5 9.5 9.5 9.5 9.5" stroke="black" stroke-linecap="round"/>
<path d="M0.5 1.5C0.5 0.947716 0.947715 0.5 1.5 0.5H13.5C14.0523 0.5 14.5 0.947715 14.5 1.5V13.5C14.5 14.0523 14.0523 14.5 13.5 14.5H1.5C0.947716 14.5 0.5 14.0523 0.5 13.5V1.5Z" stroke="var(--mw-icon-border-default-gray, #616161)"/>
</svg>
