<svg width="16" height="16" viewBox="0 0 16 16" fill="none" xmlns="http://www.w3.org/2000/svg">
<path d="M13.5 0.5H1.5C0.947715 0.5 0.5 0.947716 0.5 1.5V13.5C0.5 14.0523 0.947716 14.5 1.5 14.5H13.5C14.0523 14.5 14.5 14.0523 14.5 13.5V1.5C14.5 0.947715 14.0523 0.5 13.5 0.5Z" fill="var(--mw-icon-background-default-light-gray, #F5F5F5)" stroke="var(--mw-icon-border-default-gray, #616161)"/>
<path d="M3.29293 1L1 3.29293V4.70714L4.70714 1H3.29293Z" fill="var(--mw-icon-glyph-content-gray, #616162)"/>
<path d="M14 10.2929L10.2929 14H11.7071L14 11.7071V10.2929Z" fill="var(--mw-icon-glyph-content-gray, #616162)"/>
<path fill-rule="evenodd" clip-rule="evenodd" d="M9.19641 4.28276C8.9994 4.17866 8.79169 4.09214 8.57534 4.02526L8.25758 2.5H6.74242L6.42466 4.02526C6.20831 4.09214 6.00059 4.17867 5.80359 4.28276L4.50014 3.42878L3.42877 4.50015L4.28275 5.8036C4.17866 6.0006 4.09214 6.20832 4.02526 6.42466L2.5 6.74242V8.25758L4.02526 8.57534C4.09213 8.79168 4.17866 8.9994 4.28275 9.1964L3.42877 10.4998L4.50014 11.5712L5.80359 10.7172C6.00059 10.8213 6.20831 10.9079 6.42466 10.9747L6.74242 12.5H8.25758L8.57534 10.9747C8.79169 10.9079 8.9994 10.8213 9.19641 10.7172L10.4998 11.5712L11.5712 10.4998L10.7172 9.19641C10.8213 8.99941 10.9079 8.79169 10.9747 8.57534L12.5 8.25758V6.74242L10.9747 6.42466C10.9079 6.20831 10.8213 6.00059 10.7172 5.80359L11.5712 4.50015L10.4998 3.42878L9.19641 4.28276Z" fill="var(--mw-icon-background-default-medium-gray, #D9D9D9)" stroke="var(--mw-icon-border-default-gray, #616161)"/>
<path d="M9 7.5C9 8.32843 8.32843 9 7.5 9C6.67157 9 6 8.32843 6 7.5C6 6.67157 6.67157 6 7.5 6C8.32843 6 9 6.67157 9 7.5Z" fill="var(--mw-icon-glyph-disabled-gray, #888889)"/>
</svg>
