<svg width="16" height="16" viewBox="0 0 16 16" fill="none" xmlns="http://www.w3.org/2000/svg">
<path d="M8.85371 9.85355L9.20727 9.5L8.50016 8.79289L8.14661 9.14645L8.85371 9.85355ZM7.50016 10.5L7.14661 10.8536C7.34187 11.0488 7.65845 11.0488 7.85371 10.8536L7.50016 10.5ZM6.85371 9.14645L6.50016 8.79289L5.79305 9.5L6.14661 9.85355L6.85371 9.14645ZM8.14661 9.14645L7.14661 10.1464L7.85371 10.8536L8.85371 9.85355L8.14661 9.14645ZM7.85371 10.1464L6.85371 9.14645L6.14661 9.85355L7.14661 10.8536L7.85371 10.1464ZM1.1001 8H6.5001V7H1.1001V8ZM7.0001 8.5V10H8.0001V8.5H7.0001ZM6.5001 8C6.77624 8 7.0001 8.22386 7.0001 8.5H8.0001C8.0001 7.67157 7.32852 7 6.5001 7V8ZM13.5001 7H8.5001V8H13.5001V7ZM8.5001 7C7.67167 7 7.0001 7.67157 7.0001 8.5H8.0001C8.0001 8.22386 8.22396 8 8.5001 8V7ZM7.0001 5.00001L7.00016 10.5L8.00016 10.5L8.0001 4.99999L7.0001 5.00001Z" fill="var(--mw-icon-glyph-disabled-gray, #888889)"/>
<rect x="5.5" y="11.5" width="4" height="4" rx="0.5" fill="var(--mw-icon-background-red, #FF9D9A)" stroke="var(--mw-icon-border-default-red, #902622)"/>
<rect x="0.5" y="5.5" width="4" height="4" rx="0.5" fill="var(--mw-icon-background-default-medium-gray, #D9D9D9)" stroke="var(--mw-icon-glyph-disabled-gray, #888889)"/>
<rect x="10.5" y="5.5" width="4" height="4" rx="0.5" fill="var(--mw-icon-background-default-medium-gray, #D9D9D9)" stroke="var(--mw-icon-glyph-disabled-gray, #888889)"/>
<rect x="5.5" y="0.5" width="4" height="4" rx="0.5" fill="var(--mw-icon-background-default-medium-gray, #D9D9D9)" stroke="var(--mw-icon-glyph-disabled-gray, #888889)"/>
</svg>
