<svg width="16" height="16" viewBox="0 0 16 16" fill="none" xmlns="http://www.w3.org/2000/svg">
<path d="M14.5 7.5L11.5 10.5L5.5 4.5L8.5 1.5L11.5 4.5L14.5 7.5Z" fill="#E5FADD"/>
<path d="M14.8536 1.85355L15.2071 1.5L14.5 0.792893L14.1464 1.14645L14.8536 1.85355ZM12.1464 11.8536L12.5 12.2071L13.2071 11.5L12.8536 11.1464L12.1464 11.8536ZM4.85355 3.14645L4.5 2.79289L3.79289 3.5L4.14645 3.85355L4.85355 3.14645ZM8.5 1.5L8.85355 1.14645C8.65829 0.951184 8.34171 0.951184 8.14645 1.14645L8.5 1.5ZM14.5 7.5L14.8536 7.85355C15.0488 7.65829 15.0488 7.34171 14.8536 7.14645L14.5 7.5ZM11.8536 4.85355L14.8536 1.85355L14.1464 1.14645L11.1464 4.14645L11.8536 4.85355ZM11.1464 10.8536L12.1464 11.8536L12.8536 11.1464L11.8536 10.1464L11.1464 10.8536ZM5.85355 4.14645L4.85355 3.14645L4.14645 3.85355L5.14645 4.85355L5.85355 4.14645ZM8.14645 1.85355L11.1464 4.85355L11.8536 4.14645L8.85355 1.14645L8.14645 1.85355ZM5.85355 4.85355L8.85355 1.85355L8.14645 1.14645L5.14645 4.14645L5.85355 4.85355ZM11.1464 4.85355L14.1464 7.85355L14.8536 7.14645L11.8536 4.14645L11.1464 4.85355ZM14.1464 7.14645L11.1464 10.1464L11.8536 10.8536L14.8536 7.85355L14.1464 7.14645ZM11.8536 10.1464L5.85355 4.14645L5.14645 4.85355L11.1464 10.8536L11.8536 10.1464Z" fill="#3BAA32"/>
<path d="M1.5 8.5L4.5 5.5L10.5 11.5L7.5 14.5L4.5 11.5L1.5 8.5Z" fill="#E5FADD"/>
<path d="M1.14645 14.1464L0.792893 14.5L1.5 15.2071L1.85355 14.8536L1.14645 14.1464ZM3.85355 4.14645L3.5 3.79289L2.79289 4.5L3.14645 4.85355L3.85355 4.14645ZM11.1464 12.8536L11.5 13.2071L12.2071 12.5L11.8536 12.1464L11.1464 12.8536ZM7.5 14.5L7.14645 14.8536C7.34171 15.0488 7.65829 15.0488 7.85355 14.8536L7.5 14.5ZM1.5 8.5L1.14645 8.14645C0.951184 8.34171 0.951184 8.65829 1.14645 8.85355L1.5 8.5ZM4.14645 11.1464L1.14645 14.1464L1.85355 14.8536L4.85355 11.8536L4.14645 11.1464ZM4.85355 5.14645L3.85355 4.14645L3.14645 4.85355L4.14645 5.85355L4.85355 5.14645ZM10.1464 11.8536L11.1464 12.8536L11.8536 12.1464L10.8536 11.1464L10.1464 11.8536ZM7.85355 14.1464L4.85355 11.1464L4.14645 11.8536L7.14645 14.8536L7.85355 14.1464ZM10.1464 11.1464L7.14645 14.1464L7.85355 14.8536L10.8536 11.8536L10.1464 11.1464ZM4.85355 11.1464L1.85355 8.14645L1.14645 8.85355L4.14645 11.8536L4.85355 11.1464ZM1.85355 8.85355L4.85355 5.85355L4.14645 5.14645L1.14645 8.14645L1.85355 8.85355ZM4.14645 5.85355L10.1464 11.8536L10.8536 11.1464L4.85355 5.14645L4.14645 5.85355Z" fill="#3BAA32"/>
</svg>
