<svg width="16" height="16" viewBox="0 0 16 16" fill="none" xmlns="http://www.w3.org/2000/svg">
<path d="M0.5 12.5V2.5C0.5 1.39543 1.39543 0.5 2.5 0.5H12.5C13.6046 0.5 14.5 1.39543 14.5 2.5V12.5C14.5 13.6046 13.6046 14.5 12.5 14.5H2.5C1.39543 14.5 0.5 13.6046 0.5 12.5Z" fill="var(--mw-icon-background-default-white, #FFFFFF)"/>
<path d="M2.5 4.50001C1.62909 4.56374 0.5 5.50001 0.5 5.50001V11.5C0.5 11.5 1.62909 10.5637 2.5 10.5C3.9043 10.3973 4.0972 12.3785 5.5 12.5C7.44534 12.6685 7.55466 9.33152 9.5 9.50001C10.9028 9.62151 11.0957 11.6028 12.5 11.5C13.3709 11.4363 14.5 10.5 14.5 10.5V4.50001C14.5 4.50001 13.3709 5.43629 12.5 5.50001C11.0957 5.60276 10.9028 3.62151 9.5 3.50001C7.55466 3.33152 7.44534 6.6685 5.5 6.50001C4.0972 6.37851 3.9043 4.39726 2.5 4.50001Z" fill="var(--mw-icon-background-default-selection, #B4DEFF)" stroke="#823400"/>
<path d="M0.5 12.5V2.5C0.5 1.39543 1.39543 0.5 2.5 0.5H12.5C13.6046 0.5 14.5 1.39543 14.5 2.5V12.5C14.5 13.6046 13.6046 14.5 12.5 14.5H2.5C1.39543 14.5 0.5 13.6046 0.5 12.5Z" stroke="#B7312C" stroke-linecap="round"/>
</svg>
