<svg width="16" height="16" viewBox="0 0 16 16" fill="none" xmlns="http://www.w3.org/2000/svg">
<path d="M0.5 1.5C0.5 0.947716 0.947715 0.5 1.5 0.5H13.5C14.0523 0.5 14.5 0.947715 14.5 1.5V13.5C14.5 14.0523 14.0523 14.5 13.5 14.5H1.5C0.947716 14.5 0.5 14.0523 0.5 13.5V1.5Z" fill="#4852F4"/>
<path d="M0.5 1.85937V14.1489L14.3993 14.5C14.5123 11.1058 14.8524 3.3821 13.0433 1.50825C10.6702 -0.949644 5.92412 1.85937 0.5 1.85937Z" fill="#2E87F7"/>
<path d="M0.5 4.70048V14L12 14C12.6955 14 14 6 12 4C10.3331 2.33314 3.62958 4.70049 0.5 4.70048Z" fill="#12B1D6"/>
<path d="M0.5 7V14L10 14C10.4392 14 12.3854 7.62066 10 6.00001C8.0917 4.70349 2.6582 5.81152 0.5 7Z" fill="#ABC739"/>
<path d="M8.99995 8C9.67307 9.57976 8.99995 12.5 6.99995 14C4.99995 14 1.76752 15.0975 1 13C0.249606 10.9493 0.790835 9.17731 2.99991 8.00001C5.20898 6.82271 8.32684 6.42025 8.99995 8Z" fill="#FEC338"/>
<path d="M6.99993 9.00002C7.41989 9.85181 6.58633 12.2694 5 13C3.41367 13.7306 1.91991 12.8518 1.49995 12C1.07999 11.1482 1.91357 9.73065 3.4999 9.00003C5.08622 8.26941 6.57996 8.14824 6.99993 9.00002Z" fill="#F9FB15"/>
<path d="M6 4C6 3.44772 6.44772 3 7 3C7.55228 3 8 3.44772 8 4C8 4.55228 7.55228 5 7 5C6.44772 5 6 4.55228 6 4Z" fill="var(--mw-icon-glyph-content-dark-gray, #333333)"/>
<path d="M3 8C3 7.44772 3.44772 7 4 7C4.55228 7 5 7.44772 5 8C5 8.55228 4.55228 9 4 9C3.44772 9 3 8.55228 3 8Z" fill="var(--mw-icon-glyph-content-dark-gray, #333333)"/>
<path d="M7 8C7 7.44772 7.44772 7 8 7C8.55228 7 9 7.44772 9 8C9 8.55228 8.55228 9 8 9C7.44772 9 7 8.55228 7 8Z" fill="var(--mw-icon-glyph-content-dark-gray, #333333)"/>
<rect x="0.5" y="0.5" width="14" height="14" rx="1" stroke="var(--mw-icon-border-default-gray, #616161)"/>
</svg>
