<svg width="16" height="16" viewBox="0 0 16 16" fill="none" xmlns="http://www.w3.org/2000/svg">
<path d="M0.5 14.5V1.5C0.5 0.947715 0.947715 0.5 1.5 0.5H14.5C15.0523 0.5 15.5 0.947715 15.5 1.5V14.5C15.5 15.0523 15.0523 15.5 14.5 15.5H1.5C0.947715 15.5 0.5 15.0523 0.5 14.5Z" fill="var(--mw-icon-background-default-white, #FFFFFF)" stroke="var(--mw-icon-border-default-gray, #616161)" stroke-linejoin="round"/>
<path d="M3.04541 11H12.9545" stroke="var(--mw-icon-glyph-disabled-gray, #888889)" stroke-width="2" stroke-linecap="square" stroke-linejoin="round"/>
<path d="M4.5 9.75C4.5 9.61193 4.61193 9.5 4.75 9.5H6.25C6.38807 9.5 6.5 9.61193 6.5 9.75V11.9243C6.5 11.9737 6.48539 12.0219 6.45801 12.063L5.70801 13.188C5.60906 13.3364 5.39094 13.3364 5.29199 13.188L4.54199 12.063C4.51461 12.0219 4.5 11.9737 4.5 11.9243V9.75Z" fill="white" stroke="var(--mw-icon-glyph-content-gray, #616162)"/>
<path d="M2.5 3C2.5 2.72386 2.72386 2.5 3 2.5H13C13.2761 2.5 13.5 2.72386 13.5 3V6C13.5 6.27614 13.2761 6.5 13 6.5H3C2.72386 6.5 2.5 6.27614 2.5 6V3Z" fill="var(--mw-icon-background-default-light-gray, #F5F5F5)" stroke="var(--mw-icon-border-default-gray, #616161)"/>
<path d="M8.5 2.5V6.5" stroke="var(--mw-icon-glyph-content-gray, #616162)" stroke-linecap="round" stroke-linejoin="round"/>
<path d="M10 4.5H12" stroke="var(--mw-icon-background-default-dark-gray, #A6A6A6)"/>
</svg>
