<svg width="16" height="16" viewBox="0 0 16 16" fill="none" xmlns="http://www.w3.org/2000/svg">
<path d="M0.5 12.5V2.5C0.5 1.39543 1.39543 0.5 2.5 0.5H12.5C13.6046 0.5 14.5 1.39543 14.5 2.5V12.5C14.5 13.6046 13.6046 14.5 12.5 14.5H2.5C1.39543 14.5 0.5 13.6046 0.5 12.5Z" fill="#00A9E0"/>
<path d="M6.5 4.5H2.5V10.5H12.5V4.5H11" stroke="black"/>
<path d="M6.5 2.5H10.5V6.5H6.5V2.5Z" fill="var(--mw-icon-background-default-white, white)" stroke="black"/>
<path d="M4 6.5V2.5L6.5 4.5L4 6.5Z" fill="black"/>
<path d="M0.5 12.5V2.5C0.5 1.39543 1.39543 0.5 2.5 0.5H12.5C13.6046 0.5 14.5 1.39543 14.5 2.5V12.5C14.5 13.6046 13.6046 14.5 12.5 14.5H2.5C1.39543 14.5 0.5 13.6046 0.5 12.5Z" stroke="#245474" stroke-linecap="round"/>

</svg>
