<svg width="16" height="16" viewBox="0 0 16 16" fill="none" xmlns="http://www.w3.org/2000/svg">
<path d="M0.5 12.5V2.5C0.5 1.39543 1.39543 0.5 2.5 0.5H12.5C13.6046 0.5 14.5 1.39543 14.5 2.5V12.5C14.5 13.6046 13.6046 14.5 12.5 14.5H2.5C1.39543 14.5 0.5 13.6046 0.5 12.5Z" fill="#00A9E0"/>
<path d="M3.02093 6.99998H1.99651V2.99998H1V1.97852H4V2.99998H3.02093V6.99998Z" fill="var(--mw-icon-background-default-white, #FFFFFF)"/>
<path d="M3.98779 6.99998L4 5.99998H5L4.99302 5.00952H3.99302V3.00952L6 2.99998V4.02144L5 4.0119V4.99998H6V6.99998H3.98779Z" fill="white"/>
<path d="M9.02441 6.99998H8V4.02144H7V2.99998H9.02441V6.99998Z" fill="white"/>
<path d="M3.02171 13H1.9969V9.02146H1V8H4.01861V9.02146H3.02171V13Z" fill="white"/>
<path d="M9 13H7V10.9873H8V10.0215H7V9L9 9V11L8.02481 11.0087V11.9746L9 11.9658V13Z" fill="white"/>
<path d="M4 13L4.01221 12H5.01221L5.00523 11.0095H4.00523V9.00954L6.01221 9V10.0215L5.01221 10.0119V11H6.01221V13H4Z" fill="white"/>
<path d="M11 9.5L11 13.5L9 11.5L11 9.5Z" fill="#232B33"/>
<path d="M10 11.5H12.5V4.5H10" stroke="#232B33"/>
<path d="M0.5 12.5V2.5C0.5 1.39543 1.39543 0.5 2.5 0.5H12.5C13.6046 0.5 14.5 1.39543 14.5 2.5V12.5C14.5 13.6046 13.6046 14.5 12.5 14.5H2.5C1.39543 14.5 0.5 13.6046 0.5 12.5Z" stroke="#245474" stroke-linecap="round"/>
</svg>
