<svg width="16" height="16" viewBox="0 0 16 16" fill="none" xmlns="http://www.w3.org/2000/svg">
<path d="M1 1H15V15H1V1Z" fill="var(--mw-icon-background-default-white, #FFFFFF)"/>
<rect x="2" y="2" width="7" height="7" fill="var(--mw-icon-background-default-medium-gray, #D9D9D9)"/>
<path d="M0.5 14L5.5 4.5L9.5 12.5L12.5 9.7L15.5 14" stroke="var(--mw-icon-glyph-content-gray, #616162)" stroke-linejoin="round"/>
<path d="M2 2H4V3H2V2Z" fill="var(--mw-icon-glyph-content-gray, #616162)"/>
<path d="M7 2H9V3H7V2Z" fill="var(--mw-icon-glyph-content-gray, #616162)"/>
<path d="M7 8H9V9H7V8Z" fill="var(--mw-icon-glyph-content-gray, #616162)"/>
<path d="M2 8H4V9H2V8Z" fill="var(--mw-icon-glyph-content-gray, #616162)"/>
<path d="M2 2H3V4H2V2Z" fill="var(--mw-icon-glyph-content-gray, #616162)"/>
<path d="M8 2H9V4H8V2Z" fill="var(--mw-icon-glyph-content-gray, #616162)"/>
<path d="M2 7H3V9H2V7Z" fill="var(--mw-icon-glyph-content-gray, #616162)"/>
<path d="M8 7H9V9H8V7Z" fill="var(--mw-icon-glyph-content-gray, #616162)"/>
<path d="M5 2H6V3H5V2Z" fill="var(--mw-icon-glyph-content-gray, #616162)"/>
<path d="M8 5H9V6H8V5Z" fill="var(--mw-icon-glyph-content-gray, #616162)"/>
<path d="M2 5H3V6H2V5Z" fill="var(--mw-icon-glyph-content-gray, #616162)"/>
<path d="M5 8H6V9H5V8Z" fill="var(--mw-icon-glyph-content-gray, #616162)"/>
<path d="M12 2L15 4.5L12 7V5H10V4H12V2Z" fill="var(--mw-icon-glyph-content-gray, #616162)"/>
<path d="M0.5 1.5C0.5 0.947715 0.947715 0.5 1.5 0.5H14.5C15.0523 0.5 15.5 0.947715 15.5 1.5V14.5C15.5 15.0523 15.0523 15.5 14.5 15.5H1.5C0.947715 15.5 0.5 15.0523 0.5 14.5V1.5Z" stroke="var(--mw-icon-border-default-gray, #616161)" stroke-linejoin="round"/>
</svg>
