<svg width="16" height="16" viewBox="0 0 16 16" fill="none" xmlns="http://www.w3.org/2000/svg">
<rect x="0.5" y="0.5" width="14" height="4" fill="var(--mw-icon-object-secondary, #FFFFFE)" stroke="var(--mw-icon-object-primary, #616160)" stroke-linejoin="round"/>
<rect x="0.5" y="11.5" width="14" height="4" fill="var(--mw-icon-object-secondary, #FFFFFE)" stroke="var(--mw-icon-object-primary, #616160)" stroke-linejoin="round"/>
<path d="M3 2.5V3H4V2.5H3ZM4 2.5V0.5H3V2.5H4Z" fill="var(--mw-icon-object-primary, #616160)"/>
<path d="M2 13.5V14H3V13.5H2ZM3 13.5V12H2V13.5H3Z" fill="var(--mw-icon-object-primary, #616160)"/>
<path d="M9 2.5V3H10V2.5H9ZM10 2.5V0.5H9V2.5H10Z" fill="var(--mw-icon-object-primary, #616160)"/>
<path d="M7 13.5V14H8V13.5H7ZM8 13.5V12H7V13.5H8Z" fill="var(--mw-icon-object-primary, #616160)"/>
<path d="M12 13.5V14H13V13.5H12ZM13 13.5V12H12V13.5H13Z" fill="var(--mw-icon-object-primary, #616160)"/>
<path d="M6 2V2.5H7V2H6ZM7 2V1H6V2H7Z" fill="var(--mw-icon-object-primary, #616160)"/>
<path d="M12 1.5V2H13V1.5H12ZM13 1.5V1H12V1.5H13Z" fill="var(--mw-icon-object-primary, #616160)"/>
<path d="M7.5 7V9" stroke="var(--mw-icon-object-primary, #616160)"/>
<path d="M9 9L7.5 11L6 9H9Z" fill="var(--mw-icon-object-primary, #616160)"/>
<path d="M9 7L7.5 5L6 7H9Z" fill="var(--mw-icon-object-primary, #616160)"/>
</svg>
