<svg width="16" height="16" viewBox="0 0 16 16" fill="none" xmlns="http://www.w3.org/2000/svg">
<path d="M0.5 10V1C0.5 0.723858 0.723858 0.5 1 0.5H11C11.2761 0.5 11.5 0.723858 11.5 1V10C11.5 10.2761 11.2761 10.5 11 10.5H1C0.723858 10.5 0.5 10.2761 0.5 10Z" fill="var(--mw-icon-background-default-medium-gray, #D9D9D9)" stroke="var(--mw-icon-border-disabled-gray, #888888)"/>
<path d="M1.99969 2H9.99969V9H1.99969V2Z" fill="var(--mw-icon-glyph-disabled-gray, #888889)"/>
<path d="M4.49994 14V5C4.49994 4.72386 4.7238 4.5 4.99994 4.5H14.9999C15.2761 4.5 15.4999 4.72386 15.4999 5V14C15.4999 14.2761 15.2761 14.5 14.9999 14.5H4.99994C4.7238 14.5 4.49994 14.2761 4.49994 14Z" fill="var(--mw-icon-background-default-white, white)" stroke="var(--mw-icon-border-default-gray, #616161)"/>
<rect x="6" y="6" width="2" height="7" fill="var(--mw-icon-glyph-content-blue, #1656A8)"/>
<rect x="9" y="6" width="2" height="7" fill="var(--mw-icon-glyph-content-blue, #1656A8)"/>
<rect x="12" y="6" width="2" height="7" fill="var(--mw-icon-glyph-content-blue, #1656A8)"/>

</svg>
