<svg width="16" height="16" viewBox="0 0 16 16" fill="none" xmlns="http://www.w3.org/2000/svg">
<rect x="0.5" y="0.5" width="14" height="14" rx="1.5" fill="var(--mw-icon-background-default-white, #FFFFFF)" stroke="var(--mw-icon-border-default-gray, #616161)"/>
<path d="M8.39474 5.33333C7.82973 5.28444 7.32554 5.50222 7.21053 6C7.21053 6.15111 8.01157 6.22222 8.63158 6.22222C9.25158 6.22222 9.57895 5.99556 9.57895 5.89778C9.57895 5.79556 9.29474 5.38667 8.39474 5.33333ZM4.60526 5.33333C3.70526 5.38667 3.42105 5.75111 3.42105 5.89778C3.42105 6 3.80342 6.22222 4.36842 6.22222C4.93342 6.22222 5.78947 6.15111 5.78947 6C5.67447 5.50222 5.11026 5.28444 4.60526 5.33333ZM8.975 8C8.02001 8 7.4 7.11111 6.5 7.11111C5.6 7.11111 4.925 8 4.025 8C2.845 8 2 7.04889 2 5.35111C2 4.30222 2.34 4 3.855 4C5.37 4 5.77 4.44444 6.5 4.44444C7.22999 4.44444 7.68 4 9.14501 4C10.61 4 11 4.35111 11 5.35111C11 7.04889 10.155 8 8.975 8Z" fill="var(--mw-icon-glyph-disabled-gray, #888889)"/>
<path d="M10.3947 8.33333C9.82973 8.28444 9.32554 8.50222 9.21053 9C9.21053 9.15111 10.0116 9.22222 10.6316 9.22222C11.2516 9.22222 11.5789 8.99556 11.5789 8.89778C11.5789 8.79556 11.2947 8.38667 10.3947 8.33333ZM6.60526 8.33333C5.70526 8.38667 5.42105 8.75111 5.42105 8.89778C5.42105 9 5.80342 9.22222 6.36842 9.22222C6.93342 9.22222 7.78947 9.15111 7.78947 9C7.67447 8.50222 7.11026 8.28444 6.60526 8.33333ZM10.975 11C10.02 11 9.4 10.1111 8.5 10.1111C7.6 10.1111 6.925 11 6.025 11C4.845 11 4 10.0489 4 8.35111C4 7.30222 4.34 7 5.855 7C7.37 7 7.77 7.44444 8.5 7.44444C9.22999 7.44444 9.68 7 11.145 7C12.61 7 13 7.35111 13 8.35111C13 10.0489 12.155 11 10.975 11Z" fill="var(--mw-icon-glyph-content-dark-gray, #333333)"/>
</svg>
