<svg width="16" height="16" viewBox="0 0 16 16" fill="none" xmlns="http://www.w3.org/2000/svg">
<rect x="0.5" y="0.5" width="14" height="14" rx="1" fill="var(--mw-icon-background-default-white, #FFFFFF)"/>
<path d="M7.49794 0.501617L14.4998 7.50019M1.00009 14L7.50001 7.5" stroke="#FF6929"/>
<path d="M3 2H4V7H3V2Z" fill="var(--mw-icon-glyph-content-light-blue, #278CDD)"/>
<path d="M11 9H12V14H11V9Z" fill="var(--mw-icon-glyph-content-light-blue, #278CDD)"/>
<path d="M5 4H6V7H5V4Z" fill="var(--mw-icon-glyph-content-light-blue, #278CDD)"/>
<path d="M9 11H10V14H9V11Z" fill="var(--mw-icon-glyph-content-light-blue, #278CDD)"/>
<path d="M3 11.5C3 11.7761 2.77614 12 2.5 12C2.22386 12 2 11.7761 2 11.5C2 11.2239 2.22386 11 2.5 11C2.77614 11 3 11.2239 3 11.5Z" fill="var(--mw-icon-glyph-content-light-blue, #278CDD)"/>
<path d="M4.5 12C4.5 12.2761 4.27614 12.5 4 12.5C3.72386 12.5 3.5 12.2761 3.5 12C3.5 11.7239 3.72386 11.5 4 11.5C4.27614 11.5 4.5 11.7239 4.5 12Z" fill="var(--mw-icon-glyph-content-light-blue, #278CDD)"/>
<path d="M6 11.5C6 11.7761 5.77614 12 5.5 12C5.22386 12 5 11.7761 5 11.5C5 11.2239 5.22386 11 5.5 11C5.77614 11 6 11.2239 6 11.5Z" fill="var(--mw-icon-glyph-content-light-blue, #278CDD)"/>
<path d="M5.5 9.5C5.5 9.77614 5.27614 10 5 10C4.72386 10 4.5 9.77614 4.5 9.5C4.5 9.22386 4.72386 9 5 9C5.27614 9 5.5 9.22386 5.5 9.5Z" fill="var(--mw-icon-glyph-content-light-blue, #278CDD)"/>
<path d="M11 4.5C11 4.77614 10.7761 5 10.5 5C10.2239 5 10 4.77614 10 4.5C10 4.22386 10.2239 4 10.5 4C10.7761 4 11 4.22386 11 4.5Z" fill="var(--mw-icon-glyph-content-light-blue, #278CDD)"/>
<path d="M10 3.5C10 3.77614 9.77614 4 9.5 4C9.22386 4 9 3.77614 9 3.5C9 3.22386 9.22386 3 9.5 3C9.77614 3 10 3.22386 10 3.5Z" fill="var(--mw-icon-glyph-content-light-blue, #278CDD)"/>
<path d="M13 4.5C13 4.77614 12.7761 5 12.5 5C12.2239 5 12 4.77614 12 4.5C12 4.22386 12.2239 4 12.5 4C12.7761 4 13 4.22386 13 4.5Z" fill="var(--mw-icon-glyph-content-light-blue, #278CDD)"/>
<path d="M10 5.5C10 5.77614 9.77614 6 9.5 6C9.22386 6 9 5.77614 9 5.5C9 5.22386 9.22386 5 9.5 5C9.77614 5 10 5.22386 10 5.5Z" fill="var(--mw-icon-glyph-content-light-blue, #278CDD)"/>
<path d="M12 2.5C12 2.77614 11.7761 3 11.5 3C11.2239 3 11 2.77614 11 2.5C11 2.22386 11.2239 2 11.5 2C11.7761 2 12 2.22386 12 2.5Z" fill="var(--mw-icon-glyph-content-light-blue, #278CDD)"/>
<path d="M4 9.5C4 9.77614 3.77614 10 3.5 10C3.22386 10 3 9.77614 3 9.5C3 9.22386 3.22386 9 3.5 9C3.77614 9 4 9.22386 4 9.5Z" fill="var(--mw-icon-glyph-content-light-blue, #278CDD)"/>
<path d="M1 7.5H7.5M7.5 7.5H14M7.5 7.5V0.5M7.5 7.5V14.5M1.5 14.5H13.5C14.0523 14.5 14.5 14.0523 14.5 13.5V1.5C14.5 0.947715 14.0523 0.5 13.5 0.5H1.5C0.947715 0.5 0.5 0.947716 0.5 1.5V13.5C0.5 14.0523 0.947716 14.5 1.5 14.5Z" stroke="var(--mw-icon-border-default-gray, #616161)"/>
</svg>
