<svg width="16" height="16" viewBox="0 0 16 16" fill="none" xmlns="http://www.w3.org/2000/svg">
<path d="M3.5 1.5L3.5 13.5C3.5 14.0523 3.94772 14.5 4.5 14.5L14.5 14.5C15.0523 14.5 15.5 14.0523 15.5 13.5L15.5 3.91421C15.5 3.649 15.3946 3.39464 15.2071 3.20711L12.7929 0.792893C12.6054 0.605356 12.351 0.499999 12.0858 0.499999L4.5 0.5C3.94771 0.5 3.5 0.947716 3.5 1.5Z" fill="var(--mw-icon-background-default-white, #FFFFFF)" stroke="var(--mw-icon-border-default-gray, #616161)"/>
<path d="M13.8154 7.09473V7.90039H11.3604V7.09473H13.8154ZM13.0127 5.9668V9.07227H12.1748V5.9668H13.0127Z" fill="var(--mw-icon-glyph-content-gray, #616162)"/>
<path d="M10.9971 7.09473V7.90039H8.54199V7.09473H10.9971ZM10.1943 5.9668V9.07227H9.35645V5.9668H10.1943Z" fill="var(--mw-icon-glyph-content-gray, #616162)"/>
<path d="M7.26758 8.06738H8.19336C8.1875 8.3877 8.12402 8.65918 8.00293 8.88184C7.88184 9.10449 7.70996 9.27344 7.4873 9.38867C7.26465 9.50195 7.00098 9.55859 6.69629 9.55859C6.4541 9.55859 6.23926 9.51758 6.05176 9.43555C5.86426 9.35156 5.70508 9.23047 5.57422 9.07227C5.44531 8.91406 5.34766 8.71973 5.28125 8.48926C5.2168 8.25879 5.18457 7.99512 5.18457 7.69824V7.03613C5.18457 6.74121 5.21973 6.47754 5.29004 6.24512C5.36035 6.0127 5.45996 5.81738 5.58887 5.65918C5.71973 5.49902 5.87891 5.37793 6.06641 5.2959C6.25391 5.21387 6.46387 5.17285 6.69629 5.17285C7.01465 5.17285 7.28223 5.23242 7.49902 5.35156C7.71582 5.4707 7.88281 5.64355 8 5.87012C8.11719 6.09668 8.18359 6.37109 8.19922 6.69336H7.27051C7.27246 6.49805 7.25488 6.3457 7.21777 6.23633C7.18262 6.125 7.12305 6.04688 7.03906 6.00195C6.95508 5.95508 6.84082 5.93164 6.69629 5.93164C6.59277 5.93164 6.50391 5.95117 6.42969 5.99023C6.35547 6.02734 6.2959 6.08887 6.25098 6.1748C6.20605 6.26074 6.17285 6.37402 6.15137 6.51465C6.12988 6.65527 6.11914 6.82715 6.11914 7.03027V7.69824C6.11914 7.90137 6.12793 8.07324 6.14551 8.21387C6.16309 8.35254 6.19336 8.46582 6.23633 8.55371C6.2793 8.63965 6.33789 8.70215 6.41211 8.74121C6.48633 8.78027 6.58105 8.7998 6.69629 8.7998C6.8252 8.7998 6.93164 8.78027 7.01562 8.74121C7.09961 8.7002 7.16211 8.62695 7.20312 8.52148C7.24609 8.41602 7.26758 8.26465 7.26758 8.06738Z" fill="var(--mw-icon-glyph-content-gray, #616162)"/>
</svg>
