<svg width="17" height="17" viewBox="0 0 17 17" fill="none" xmlns="http://www.w3.org/2000/svg">
<path d="M1.48485 13.4828V3.49784C1.48485 2.39411 2.37897 1.49902 3.4827 1.49784L13.4827 1.48708C14.5881 1.48589 15.4848 2.38167 15.4848 3.48708V13.472C15.4848 14.5757 14.5907 15.4708 13.487 15.472L3.487 15.4828C2.38159 15.4839 1.48485 14.5882 1.48485 13.4828Z" fill="var(--mw-icon-background-default-white, #FFFFFF)" stroke="#B7312C" stroke-linecap="round"/>
<path d="M3.5 12.5C4 9.5 5 3 12.5 3.5" stroke="#0072BD"/>
<circle cx="4.5" cy="8.5" r="1" fill="white" stroke="#D95319"/>
<circle cx="7.5" cy="4.5" r="1" fill="white" stroke="#D95319"/>
<circle cx="12.5" cy="3.5" r="1" fill="white" stroke="#D95319"/>
<circle cx="3.5" cy="12.5" r="1" fill="white" stroke="#D95319"/>
<path d="M6.5 11.5H8.5V13.5H11.5V11.5H13.5V8.5H11.5V6.5H8.5V8.5H6.5V11.5Z" fill="var(--mw-icon-background-medium-yellow, #FFEF91)" stroke="#674C06"/>
</svg>
