<svg width="16" height="16" viewBox="0 0 16 16" fill="none" xmlns="http://www.w3.org/2000/svg">
<path d="M0.5 11H15.5V14C15.5 14.5523 15.0523 15 14.5 15H1.5C0.947715 15 0.5 14.5523 0.5 14V11Z" fill="var(--mw-icon-border-default-green, #008013)"/>
<circle cx="13" cy="13" r="0.5" fill="var(--mw-icon-glyph-content-dark-gray, #333333)" stroke="#FFD60A"/>
<rect x="5" y="12" width="1" height="2" rx="0.5" fill="#FFD60A"/>
<rect x="10" y="12" width="1" height="2" rx="0.5" fill="#FFD60A"/>
<rect x="7" y="12" width="2" height="2" rx="0.5" fill="#FFD60A"/>
<circle cx="3" cy="13" r="0.5" fill="var(--mw-icon-glyph-content-dark-gray, #333333)" stroke="#FFD60A"/>
<circle cx="3" cy="13" r="0.5" fill="var(--mw-icon-glyph-content-dark-gray, #333333)"/>
<circle cx="13" cy="13" r="0.5" fill="var(--mw-icon-glyph-content-dark-gray, #333333)"/>
<path d="M0.5 11V13.5C0.5 14.6046 1.39543 15.5 2.5 15.5H13.5C14.6046 15.5 15.5 14.6046 15.5 13.5V11" stroke="#013E0A"/>
<rect x="0.5" y="5.5" width="8" height="4" rx="1" fill="var(--mw-icon-background-default-selection, #B4DEFF)" stroke="var(--mw-icon-border-default-blue, #1656A7)"/>
<path d="M2.5 2V4" stroke="var(--mw-icon-glyph-content-blue, #1656A8)"/>
<rect x="2" width="1" height="1" fill="var(--mw-icon-glyph-content-blue, #1656A8)"/>
<path d="M3 3.5L2.49999 4.16667L2 3.5H3Z" fill="var(--mw-icon-glyph-content-blue, #1656A8)" stroke="var(--mw-icon-glyph-content-blue, #1656A8)"/>
<rect x="2" y="7" width="1" height="1" fill="var(--mw-icon-glyph-content-blue, #1656A8)"/>
<rect x="4" y="7" width="1" height="1" fill="var(--mw-icon-glyph-content-blue, #1656A8)"/>
<rect x="6" y="7" width="1" height="1" fill="var(--mw-icon-glyph-content-blue, #1656A8)"/>
<path d="M12.5 1.5L7.5 1.5L7.5 9.5L5 9.5L10 14.5L15.5 9.5L12.5 9.5L12.5 1.5Z" fill="var(--mw-icon-background-default-selection, #B4DEFF)" stroke="var(--mw-icon-border-default-blue, #1656A7)" stroke-linejoin="round"/>
</svg>
