<svg width="16" height="16" viewBox="0 0 16 16" fill="none" xmlns="http://www.w3.org/2000/svg">
<path d="M0.5 2C0.5 1.17157 1.17157 0.5 2 0.5H13C13.8284 0.5 14.5 1.17157 14.5 2V14C14.5 14.8284 13.8284 15.5 13 15.5H2C1.17157 15.5 0.5 14.8284 0.5 14V2Z" fill="var(--mw-icon-background-default-white, #FFFFFF)" stroke="var(--mw-icon-border-default-gray, #616161)"/>
<path d="M9 2C9 2.55228 8.55228 3 8 3C7.44772 3 7 2.55228 7 2C7 1.44772 7.44772 1 8 1C8.55228 1 9 1.44772 9 2Z" fill="var(--mw-icon-glyph-disabled-gray, #888889)"/>
<path d="M14 8C14 8.55228 13.5523 9 13 9C12.4477 9 12 8.55228 12 8C12 7.44772 12.4477 7 13 7C13.5523 7 14 7.44772 14 8Z" fill="var(--mw-icon-glyph-disabled-gray, #888889)"/>
<path d="M8 14C8 14.5523 7.55228 15 7 15C6.44772 15 6 14.5523 6 14C6 13.4477 6.44772 13 7 13C7.55228 13 8 13.4477 8 14Z" fill="var(--mw-icon-glyph-disabled-gray, #888889)"/>
<path d="M9 7C9 7.55228 8.55228 8 8 8C7.44772 8 7 7.55228 7 7C7 6.44772 7.44772 6 8 6C8.55228 6 9 6.44772 9 7Z" fill="var(--mw-icon-glyph-content-light-blue, #278CDD)"/>
<path d="M7 9C7 9.55228 6.55228 10 6 10C5.44772 10 5 9.55228 5 9C5 8.44772 5.44772 8 6 8C6.55228 8 7 8.44772 7 9Z" fill="var(--mw-icon-glyph-content-light-blue, #278CDD)"/>
<path d="M4.5 11.5H8.5M4.5 11.5V4.5M4.5 11.5V13.5M4.5 11.5H2.5M4.5 2.5V4.5M4.5 4.5H2.5M10.5 4.5H6.5M10.5 4.5V11.5M10.5 4.5H12.5M10.5 4.5V2.5M10.5 13.5L10.5 11.5M10.5 11.5H12.5" stroke="var(--mw-icon-glyph-content-light-blue, #278CDD)" stroke-linecap="square"/>
</svg>
