<svg width="16" height="16" viewBox="0 0 16 16" fill="none" xmlns="http://www.w3.org/2000/svg">
<path d="M11 1H5V15H11V1Z" fill="var(--mw-icon-background-default-medium-gray, #D9D9D9)"/>
<path d="M11.3333 14.6667H14.6666V7.66666V0.666664H11.3333V7.66666V14.6667Z" fill="var(--mw-icon-background-default-white, #FFFFFF)"/>
<path d="M0.666687 14.6667H4.00002V7.66666V0.666664H0.666687V7.66666V14.6667Z" fill="white"/>
<path d="M5.5 8.49702C6.2524 11.1915 7.28148 11.3547 8 7.83427C8.83605 3.90663 9.664 3.22692 10.5 6.99033" stroke="#0072BD"/>
<path d="M5 15H6V1H5V15Z" fill="var(--mw-icon-glyph-content-gray, #616162)"/>
<path d="M10 15H11V1H10V15Z" fill="var(--mw-icon-glyph-content-gray, #616162)"/>
<path d="M13 7V8H11V7H13Z" fill="var(--mw-icon-glyph-content-gray, #616162)"/>
<path d="M13 5L15 7.5L13 10V5Z" fill="var(--mw-icon-glyph-content-gray, #616162)"/>
<path d="M5 7V8H3V7H5Z" fill="var(--mw-icon-glyph-content-gray, #616162)"/>
<path d="M3 10L1 7.5L3 5V10Z" fill="var(--mw-icon-glyph-content-gray, #616162)"/>
<path d="M14.4773 0.5H1.52273C0.957891 0.5 0.5 0.957891 0.5 1.52273V14.4773C0.5 15.0421 0.957891 15.5 1.52273 15.5H14.4773C15.0421 15.5 15.5 15.0421 15.5 14.4773V1.52273C15.5 0.957891 15.0421 0.5 14.4773 0.5Z" stroke="var(--mw-icon-border-default-gray, #616161)"/>
</svg>
