<svg width="16" height="16" viewBox="0 0 16 16" fill="none" xmlns="http://www.w3.org/2000/svg">
<path d="M7.5 5.5V3.58114C7.5 3.5274 7.49134 3.47401 7.47434 3.42302L6.61396 0.841886C6.54591 0.637715 6.35484 0.5 6.13962 0.5H1.86038C1.64516 0.5 1.45409 0.637715 1.38604 0.841886L0.525658 3.42302C0.508664 3.47401 0.5 3.5274 0.5 3.58114V11C0.5 11.2761 0.723858 11.5 1 11.5H5.5" stroke="var(--mw-icon-object-primary, #616160)" stroke-linejoin="round"/>
<path d="M2.5 9.5L4 5.5L5.5 9.5M3 8.5H5" stroke="var(--mw-icon-object-primary, #616160)" stroke-linecap="round" stroke-linejoin="round"/>
<path d="M4.49998 3C4.49998 3.27614 4.27613 3.5 3.99998 3.5C3.72384 3.5 3.49998 3.27614 3.49998 3C3.49998 2.72386 3.72384 2.5 3.99998 2.5C4.27613 2.5 4.49998 2.72386 4.49998 3Z" stroke="var(--mw-icon-object-primary, #616160)"/>
<path d="M5.5 6.5C5.5 5.94772 5.94772 5.5 6.5 5.5H14.5C15.0523 5.5 15.5 5.94772 15.5 6.5V14.5C15.5 15.0523 15.0523 15.5 14.5 15.5H6.5C5.94772 15.5 5.5 15.0523 5.5 14.5V6.5Z" stroke="var(--mw-icon-object-primary, #616160)"/>
<path d="M10 7H11V9H10V7Z" fill="var(--mw-icon-object-primary, #616160)"/>
<path d="M10 12H11V14H10V12Z" fill="var(--mw-icon-object-primary, #616160)"/>
<path d="M14 10V11H12V10H14Z" fill="var(--mw-icon-object-primary, #616160)"/>
<path d="M9 10V11H7L7 10H9Z" fill="var(--mw-icon-object-primary, #616160)"/>
<path d="M10 10H11V11H10V10Z" fill="var(--mw-icon-object-primary, #616160)"/>
</svg>
