<svg width="16" height="16" viewBox="0 0 16 16" fill="none" xmlns="http://www.w3.org/2000/svg">
<path d="M8.37305 8.52258H9.91602C9.90625 9.05644 9.80046 9.50891 9.59863 9.88C9.39681 10.2511 9.11035 10.5327 8.73926 10.7247C8.36816 10.9135 7.92871 11.0079 7.4209 11.0079C7.01725 11.0079 6.65918 10.9396 6.34668 10.8029C6.03418 10.6629 5.76888 10.4611 5.55078 10.1974C5.33594 9.93372 5.17318 9.60982 5.0625 9.22571C4.95508 8.84159 4.90137 8.40214 4.90137 7.90735V6.80383C4.90137 6.3123 4.95996 5.87284 5.07715 5.48547C5.19434 5.0981 5.36035 4.77258 5.5752 4.50891C5.79329 4.24198 6.05859 4.04016 6.37109 3.90344C6.68359 3.76672 7.03353 3.69836 7.4209 3.69836C7.9515 3.69836 8.39746 3.79765 8.75879 3.99622C9.12012 4.19478 9.39844 4.48287 9.59375 4.86047C9.78906 5.23808 9.89974 5.69543 9.92578 6.23254H8.37793C8.38118 5.90702 8.35189 5.65312 8.29004 5.47083C8.23145 5.28528 8.13216 5.15507 7.99219 5.0802C7.85221 5.00208 7.66178 4.96301 7.4209 4.96301C7.24837 4.96301 7.10026 4.99556 6.97656 5.06067C6.85286 5.12252 6.75358 5.22506 6.67871 5.36829C6.60384 5.51152 6.5485 5.70032 6.5127 5.93469C6.47689 6.16907 6.45898 6.45553 6.45898 6.79407V7.90735C6.45898 8.24589 6.47363 8.53235 6.50293 8.76672C6.53223 8.99784 6.58268 9.18665 6.6543 9.33313C6.72591 9.47636 6.82357 9.58053 6.94727 9.64563C7.07096 9.71073 7.22884 9.74329 7.4209 9.74329C7.63574 9.74329 7.81315 9.71073 7.95312 9.64563C8.0931 9.57727 8.19727 9.4552 8.26562 9.27942C8.33724 9.10364 8.37305 8.85136 8.37305 8.52258Z" fill="var(--mw-icon-glyph-content-light-blue, #278CDD)"/>
<path fill-rule="evenodd" clip-rule="evenodd" d="M10.915 10.1969L11.1416 8.59534H10.4346V7.90002H11.24L11.3914 6.82971H10.6807V6.1344H11.4898L11.7197 4.5094H12.4307L12.2008 6.1344H12.6656L12.8955 4.5094H13.6104L13.3804 6.1344H14.0986V6.82971H13.2821L13.1306 7.90002H13.8486V8.59534H13.0323L12.8057 10.1969H12.0908L12.3174 8.59534H11.8526L11.626 10.1969H10.915ZM12.4158 7.90002H11.9509L12.1024 6.82971H12.5672L12.4158 7.90002Z" fill="var(--mw-icon-glyph-content-light-blue, #278CDD)"/>
</svg>
