<svg width="16" height="16" viewBox="0 0 16 16" fill="none" xmlns="http://www.w3.org/2000/svg">
<path d="M13.5 0.5H1.5C0.947715 0.5 0.5 0.947716 0.5 1.5V13.5C0.5 14.0523 0.947716 14.5 1.5 14.5H13.5C14.0523 14.5 14.5 14.0523 14.5 13.5V1.5C14.5 0.947715 14.0523 0.5 13.5 0.5Z" fill="var(--mw-icon-glyph-content-gray, #616162)" stroke="var(--mw-icon-border-disabled-gray, #888888)" stroke-linecap="round"/>
<path d="M7.5 2.5V6.5M7.5 6.5L5.5 8.5M7.5 6.5L9.5 8.5" stroke="var(--mw-icon-background-default-white, #FFFFFF)" stroke-linecap="round"/>
<path d="M9 11.7929V4.80902C9 4.43733 9.39116 4.19558 9.72361 4.3618L11.8944 5.44721C12.572 5.786 13 6.47852 13 7.23607V11.7929C13 12.2383 12.4614 12.4614 12.1464 12.1464L12.0607 12.0607C11.4749 11.4749 10.5251 11.4749 9.93934 12.0607L9.85355 12.1464C9.53857 12.4614 9 12.2383 9 11.7929Z" fill="var(--mw-icon-background-red, #FF9D9A)"/>
<path d="M2 11.7929V7.23607C2 6.47852 2.428 5.786 3.10557 5.44721L5.27639 4.3618C5.60884 4.19558 6 4.43733 6 4.80902V11.7929C6 12.2383 5.46143 12.4614 5.14645 12.1464L5.06066 12.0607C4.47487 11.4749 3.52513 11.4749 2.93934 12.0607L2.85355 12.1464C2.53857 12.4614 2 12.2383 2 11.7929Z" fill="var(--mw-icon-background-red, #FF9D9A)"/>
</svg>
