<svg width="16" height="16" viewBox="0 0 16 16" fill="none" xmlns="http://www.w3.org/2000/svg">
<rect x="0.5" y="0.5" width="15" height="15" rx="1" stroke="var(--mw-icon-border-default-gray, #616161)"/>
<rect x="1" y="1" width="1" height="14" fill="#FF453A"/>
<rect x="2" y="1" width="1" height="14" fill="#FF6929"/>
<rect x="3" y="1" width="1" height="14" fill="#FFAB66"/>
<rect x="4" y="1" width="1" height="14" fill="var(--mw-icon-background-medium-yellow, #FFEF91)"/>
<rect x="5" y="1" width="1" height="14" fill="var(--mw-icon-background-default-action, #CBFFBE)"/>
<rect x="6" y="1" width="1" height="14" fill="#64D413"/>
<rect x="7" y="1" width="1" height="14" fill="#77AC30"/>
<rect x="8" y="1" width="1" height="14" fill="#4DBEEE"/>
<rect x="9" y="1" width="1" height="14" fill="#068CFC"/>
<rect x="10" y="1" width="1" height="14" fill="#0072BD"/>
<rect x="12" y="1" width="1" height="14" fill="#7E2F8E"/>
<rect x="11" y="1" width="1" height="14" fill="var(--mw-icon-glyph-content-dark-blue, #104280)"/>
<rect x="13" y="1" width="1" height="14" fill="#B746FF"/>
<rect x="14" y="1" width="1" height="14" fill="#FF13A6"/>
</svg>
