<svg width="16" height="16" viewBox="0 0 16 16" fill="none" xmlns="http://www.w3.org/2000/svg">
<path d="M0.5 3.5H14.5V14.5C14.5 15.0523 14.0523 15.5 13.5 15.5H1.5C0.947716 15.5 0.5 15.0523 0.5 14.5V3.5Z" fill="var(--mw-icon-background-default-white, #FFFFFF)" stroke="var(--mw-icon-border-default-gray, #616161)"/>
<path d="M0.5 1.5C0.5 0.947715 0.947715 0.5 1.5 0.5H13.5C14.0523 0.5 14.5 0.947715 14.5 1.5V3.5H0.5V1.5Z" fill="var(--mw-icon-background-default-selection, #B4DEFF)" stroke="var(--mw-icon-border-default-blue, #1656A7)"/>
<path d="M8.78027 10.8774H10.0942C10.0679 11.3081 9.94922 11.6904 9.73828 12.0244C9.53027 12.3584 9.23877 12.6191 8.86377 12.8066C8.4917 12.9941 8.04346 13.0879 7.51904 13.0879C7.10889 13.0879 6.74121 13.0176 6.41602 12.877C6.09082 12.7334 5.8125 12.5283 5.58105 12.2617C5.35254 11.9951 5.17822 11.6729 5.05811 11.2949C4.93799 10.917 4.87793 10.4937 4.87793 10.0249V9.58105C4.87793 9.1123 4.93945 8.68896 5.0625 8.31104C5.18848 7.93018 5.36719 7.60645 5.59863 7.33984C5.83301 7.07324 6.11279 6.86816 6.43799 6.72461C6.76318 6.58105 7.12646 6.50928 7.52783 6.50928C8.06104 6.50928 8.51074 6.60596 8.87695 6.79932C9.24609 6.99268 9.53174 7.25928 9.73389 7.59912C9.93896 7.93896 10.062 8.32568 10.103 8.75928H8.78467C8.77002 8.50146 8.71875 8.2832 8.63086 8.10449C8.54297 7.92285 8.40967 7.78662 8.23096 7.6958C8.05518 7.60205 7.8208 7.55518 7.52783 7.55518C7.30811 7.55518 7.11621 7.59619 6.95215 7.67822C6.78809 7.76025 6.65039 7.88477 6.53906 8.05176C6.42773 8.21875 6.34424 8.42969 6.28857 8.68457C6.23584 8.93652 6.20947 9.23242 6.20947 9.57227V10.0249C6.20947 10.356 6.23438 10.6475 6.28418 10.8994C6.33398 11.1484 6.41016 11.3594 6.5127 11.5322C6.61816 11.7021 6.75293 11.8311 6.91699 11.9189C7.08398 12.0039 7.28467 12.0464 7.51904 12.0464C7.79443 12.0464 8.02148 12.0024 8.2002 11.9146C8.37891 11.8267 8.51514 11.6963 8.60889 11.5234C8.70557 11.3506 8.7627 11.1353 8.78027 10.8774Z" fill="var(--mw-icon-border-default-gray, #616161)"/>
</svg>
