<svg width="16" height="16" viewBox="0 0 16 16" fill="none" xmlns="http://www.w3.org/2000/svg">
<path d="M0.5 1.5C0.5 0.947716 0.947715 0.5 1.5 0.5H13.5C14.0523 0.5 14.5 0.947715 14.5 1.5V13.5C14.5 14.0523 14.0523 14.5 13.5 14.5H1.5C0.947716 14.5 0.5 14.0523 0.5 13.5V1.5Z" fill="var(--mw-icon-background-lightest-blue, #E2F0FF)" stroke="var(--mw-icon-border-default-blue, #1656A7)" stroke-linejoin="round"/>
<path d="M9 3.5C9 3.22386 8.77614 3 8.5 3H6.5C6.22386 3 6 3.22386 6 3.5V14H9V3.5Z" fill="var(--mw-icon-glyph-content-light-blue, #278CDD)"/>
<path d="M13 9.5C13 9.22386 12.7761 9 12.5 9H10.5C10.2239 9 10 9.22386 10 9.5V14H13V9.5Z" fill="var(--mw-icon-glyph-content-blue, #1656A8)"/>
<path d="M5 6.5C5 6.22386 4.77614 6 4.5 6H2.5C2.22386 6 2 6.22386 2 6.5V14H5V6.5Z" fill="var(--mw-icon-glyph-content-blue, #1656A8)"/>
</svg>
