<svg width="16" height="16" viewBox="0 0 16 16" fill="none" xmlns="http://www.w3.org/2000/svg">
<path d="M0.5 2C0.5 1.72386 0.723858 1.5 1 1.5H5.45536C5.76395 1.5 6.05526 1.64247 6.24471 1.88606L7.19973 3.11394C7.38919 3.35753 7.68049 3.5 7.98908 3.5H14C14.2761 3.5 14.5 3.72386 14.5 4V13C14.5 13.2761 14.2761 13.5 14 13.5H1C0.723857 13.5 0.5 13.2761 0.5 13V2Z" fill="var(--mw-icon-background-default-white, #FFFFFF)" stroke="var(--mw-icon-border-default-gray, #616161)"/>
<path fill-rule="evenodd" clip-rule="evenodd" d="M7.30108 8.1989C6.92756 7.82537 6.32196 7.82537 5.94844 8.1989L4.19737 9.94997C3.82385 10.3235 3.82385 10.9291 4.19737 11.3026C4.57089 11.6761 5.17649 11.6761 5.55001 11.3026L6.30047 10.5522C6.47957 10.3731 6.76995 10.3731 6.94905 10.5522C7.12815 10.7313 7.12815 11.0216 6.94905 11.2007L6.19859 11.9512C5.46687 12.6829 4.28051 12.6829 3.54879 11.9512C2.81707 11.2195 2.81707 10.0331 3.54879 9.30139L5.29986 7.55032C6.03158 6.81859 7.21794 6.81859 7.94966 7.55032C8.12876 7.72942 8.12876 8.0198 7.94966 8.1989C7.77056 8.378 7.48018 8.378 7.30108 8.1989Z" fill="var(--mw-icon-glyph-content-gray, #616162)"/>
<path fill-rule="evenodd" clip-rule="evenodd" d="M6.69892 8.8011C7.07244 9.17463 7.67804 9.17463 8.05156 8.8011L9.80263 7.05002C10.1762 6.6765 10.1762 6.0709 9.80263 5.69737C9.42911 5.32385 8.82351 5.32385 8.44999 5.69737L7.69953 6.44784C7.52043 6.62694 7.23005 6.62694 7.05095 6.44784C6.87185 6.26874 6.87185 5.97836 7.05095 5.79926L7.80141 5.04879C8.53313 4.31707 9.71949 4.31707 10.4512 5.04879C11.1829 5.78052 11.1829 6.96688 10.4512 7.69861L8.70014 9.44968C7.96842 10.1814 6.78206 10.1814 6.05034 9.44968C5.87124 9.27058 5.87124 8.9802 6.05034 8.8011C6.22944 8.622 6.51982 8.622 6.69892 8.8011Z" fill="var(--mw-icon-glyph-content-gray, #616162)"/>
</svg>
