<svg width="16" height="16" viewBox="0 0 16 16" fill="none" xmlns="http://www.w3.org/2000/svg">
<path d="M15.4998 10.5C15.4998 11.4841 12.5896 12.5 8.99976 12.5C5.4099 12.5 2.49976 11.4841 2.49976 10.5M15.4998 7.5C15.4998 8.48407 12.5896 9.5 8.99976 9.5C5.4099 9.5 2.49976 8.48407 2.49976 7.5M15.5001 4.5C15.5001 3.51593 12.5899 2.5 9.00005 2.5C5.4102 2.5 2.50005 3.51593 2.50005 4.5C2.50005 4.8444 2.49976 13.5 2.49976 13.5C2.49976 14.4841 5.4102 15.5 9.00005 15.5C12.5899 15.5 15.5001 14.4841 15.5001 13.5C15.5001 13.1556 15.5001 4.5 15.5001 4.5Z" stroke="var(--mw-icon-border-default-gray, #616161)"/>
<path d="M15.4998 4.5C15.4998 5.48407 12.5896 6.5 8.99976 6.5C5.4099 6.5 2.49976 5.48407 2.49976 4.5C2.49976 3.51593 5.4099 2.5 8.99976 2.5C12.5896 2.5 15.4998 3.51593 15.4998 4.5Z" fill="var(--mw-icon-background-default-light-gray, #F5F5F5)" stroke="var(--mw-icon-border-default-gray, #616161)"/>
<path d="M0.5 1C0.5 0.723858 0.723858 0.5 1 0.5H7C7.27614 0.5 7.5 0.723858 7.5 1V8C7.5 8.27614 7.27614 8.5 7 8.5H1C0.723858 8.5 0.5 8.27614 0.5 8V1Z" fill="var(--mw-icon-background-default-white, #FFFFFF)" stroke="var(--mw-icon-border-default-gray, #616161)"/>
<path d="M3 4.25C3 4.11193 3.11193 4 3.25 4H5.75C5.88807 4 6 4.11193 6 4.25V6.75C6 6.88807 5.88807 7 5.75 7H3.25C3.11193 7 3 6.88807 3 6.75V4.25Z" fill="#D78825"/>
<path d="M2 5V1L5.5 3L2 5Z" fill="#0076A8"/>
</svg>
