<svg width="16" height="16" viewBox="0 0 16 16" fill="none" xmlns="http://www.w3.org/2000/svg">
<path d="M15.5 11L15.5 2C15.5 1.72386 15.2761 1.5 15 1.5L3 1.5C2.72386 1.5 2.5 1.72386 2.5 2L2.5 11C2.5 11.2761 2.72386 11.5 3 11.5L15 11.5C15.2761 11.5 15.5 11.2761 15.5 11Z" fill="var(--mw-icon-background-default-white, #FFFFFF)" stroke="var(--mw-icon-border-default-gray, #616161)" stroke-linecap="round" stroke-linejoin="round"/>
<path d="M14 9H10.1141V8.45935L12.167 6.18293C12.4711 5.83875 12.6802 5.55962 12.7943 5.34553C12.9111 5.12873 12.9694 4.90515 12.9694 4.6748C12.9694 4.36585 12.8758 4.11247 12.6884 3.91463C12.501 3.7168 12.2512 3.61789 11.9389 3.61789C11.5642 3.61789 11.2722 3.72493 11.0631 3.93902C10.8568 4.15041 10.7536 4.4458 10.7536 4.8252H10C10 4.28049 10.1752 3.84011 10.5255 3.50407C10.8785 3.16802 11.3496 3 11.9389 3C12.4902 3 12.926 3.14499 13.2464 3.43496C13.5669 3.72222 13.7271 4.10569 13.7271 4.58537C13.7271 5.16802 13.3551 5.86179 12.611 6.66667L11.0224 8.38618H14V9Z" fill="var(--mw-icon-glyph-content-gray, #616162)"/>
<path d="M8 5H10V6H8V5Z" fill="var(--mw-icon-glyph-content-gray, #616162)"/>
<path d="M8 7H10V8H8V7Z" fill="var(--mw-icon-glyph-content-gray, #616162)"/>
<path d="M5.98924 6.46026L7.0226 5H7.95264L6.42842 6.97782L8 9H7.07858L6.00215 7.50277L4.92573 9H4L5.57158 6.97782L4.04736 5H4.96878L5.98924 6.46026Z" fill="var(--mw-icon-glyph-content-gray, #616162)"/>
<path d="M0.5 11.5C0.5 12.6046 1.39543 13.5 2.5 13.5C3.60457 13.5 4.5 12.6046 4.5 11.5C4.5 10.3954 3.60457 9.5 2.5 9.5C1.39543 9.5 0.5 10.3954 0.5 11.5Z" fill="var(--mw-icon-background-default-selection, #B4DEFF)" stroke="var(--mw-icon-border-default-blue, #1656A7)" stroke-linecap="round" stroke-linejoin="round"/>
</svg>
