<svg width="16" height="16" viewBox="0 0 16 16" fill="none" xmlns="http://www.w3.org/2000/svg">
<path d="M11.5 9.5H13H14.5V12.5C14.5 13.6046 13.6046 14.5 12.5 14.5H11.5V9.5Z" fill="var(--mw-icon-background-default-medium-gray, #D9D9D9)" stroke="var(--mw-icon-border-default-blue, #1656A7)"/>
<path d="M0.5 12.5C0.5 11.9477 0.947715 11.5 1.5 11.5H11.5V14.5H2.5C1.39543 14.5 0.5 13.6046 0.5 12.5Z" fill="var(--mw-icon-background-default-white, #FFFFFF)" stroke="var(--mw-icon-border-default-blue, #1656A7)"/>
<path d="M0.5 2.5C0.5 1.39543 1.39543 0.5 2.5 0.5H12.5C13.6046 0.5 14.5 1.39543 14.5 2.5V9.5C14.5 10.6046 13.6046 11.5 12.5 11.5H4H0.8C0.634315 11.5 0.5 11.6343 0.5 11.8L0.5 12.3333L0.5 2.5Z" fill="var(--mw-icon-background-light-yellow, #FFF5BC)" stroke="var(--mw-icon-border-default-blue, #1656A7)" stroke-linejoin="round"/>
<path d="M3.5 11V4" stroke="var(--mw-icon-background-default-dark-gray, #A6A6A6)"/>
<path d="M10.5 4V8.5H8.5V6.5H10" stroke="var(--mw-icon-glyph-content-blue, #1656A8)"/>
<path d="M3 7V1H6V7L4.5 5.5L3 7Z" fill="var(--mw-icon-glyph-content-light-blue, #278CDD)"/>
</svg>
