<svg width="16" height="16" viewBox="0 0 16 16" fill="none" xmlns="http://www.w3.org/2000/svg">
<rect x="2.5" y="2.5" width="12" height="12" rx="1" fill="var(--mw-icon-background-default-medium-gray, #D9D9D9)" stroke="var(--mw-icon-border-default-gray, #616161)"/>
<rect x="0.5" y="0.5" width="12" height="12" rx="1" fill="var(--mw-icon-background-default-white, #FFFFFF)"/>
<path d="M6.5 4.5L1.5 11.5M10.5 8.5L8 12.5M8.5 4.5L12.5 8.5" stroke="var(--mw-icon-glyph-content-gray, #616162)" stroke-linecap="round"/>
<path d="M6.5 2.5H8.5V4.5H6.5V2.5Z" fill="white"/>
<path d="M3.5 6.5H5.5V8.5H3.5V6.5Z" fill="white"/>
<path d="M10.5 6.5H12.5V8.5H10.5V6.5Z" fill="white"/>
<path d="M0.5 10.5H2.5V12.5H1.5C0.947715 12.5 0.5 12.0523 0.5 11.5V10.5Z" fill="white"/>
<path d="M7.5 10.5H9.5V12.5H7.5V10.5Z" fill="white"/>
<path d="M6.5 2.5H8.5V4.5H6.5V2.5Z" stroke="var(--mw-icon-glyph-content-gray, #616162)" stroke-linejoin="round"/>
<path d="M3.5 6.5H5.5V8.5H3.5V6.5Z" stroke="var(--mw-icon-glyph-content-gray, #616162)" stroke-linejoin="round"/>
<path d="M10.5 6.5H12.5V8.5H10.5V6.5Z" stroke="var(--mw-icon-glyph-content-gray, #616162)" stroke-linejoin="round"/>
<path d="M0.5 10.5H2.5V12.5H1.5C0.947715 12.5 0.5 12.0523 0.5 11.5V10.5Z" stroke="var(--mw-icon-glyph-content-gray, #616162)" stroke-linejoin="round"/>
<path d="M7.5 10.5H9.5V12.5H7.5V10.5Z" stroke="var(--mw-icon-glyph-content-gray, #616162)" stroke-linejoin="round"/>
<rect x="0.5" y="0.5" width="12" height="12" rx="1" stroke="var(--mw-icon-border-default-gray, #616161)"/>
</svg>
