<svg width="16" height="16" viewBox="0 0 16 16" fill="none" xmlns="http://www.w3.org/2000/svg">
<path d="M0.5 12.5V2.5C0.5 1.39543 1.39543 0.5 2.5 0.5H12.5C13.6046 0.5 14.5 1.39543 14.5 2.5V12.5C14.5 13.6046 13.6046 14.5 12.5 14.5H2.5C1.39543 14.5 0.5 13.6046 0.5 12.5Z" fill="var(--mw-icon-background-default-white, white)"/>
<path d="M0.5 12.5H6.5V10.5H11.5V8.5H14.5" stroke="var(--mw-icon-borderColor-light-blue, #268CDD)" stroke-linecap="round" stroke-linejoin="round"/>
<path d="M4 3L5.5 5.5M4 3L3 6M4 3H8M5.5 5.5L8 3M5.5 5.5L9 6M5.5 5.5L6 8M5.5 5.5L3 6M8 3L9 6M9 6L6 8M6 8L3 6" stroke="#FF453A" stroke-linecap="round" stroke-linejoin="round"/>
<rect x="3" y="2" width="2" height="2" rx="1" fill="var(--mw-icon-glyph-content-dark-blue, #104280)"/>
<rect x="2" y="5" width="2" height="2" rx="1" fill="var(--mw-icon-glyph-content-dark-blue, #104280)"/>
<rect x="4.5" y="4.5" width="2" height="2" rx="1" fill="var(--mw-icon-glyph-content-dark-blue, #104280)"/>
<rect x="8" y="5" width="2" height="2" rx="1" fill="var(--mw-icon-glyph-content-dark-blue, #104280)"/>
<rect x="5" y="7" width="2" height="2" rx="1" fill="var(--mw-icon-glyph-content-dark-blue, #104280)"/>
<rect x="7" y="2" width="2" height="2" rx="1" fill="var(--mw-icon-glyph-content-dark-blue, #104280)"/>
<path d="M0.5 12.5V2.5C0.5 1.39543 1.39543 0.5 2.5 0.5H12.5C13.6046 0.5 14.5 1.39543 14.5 2.5V12.5C14.5 13.6046 13.6046 14.5 12.5 14.5H2.5C1.39543 14.5 0.5 13.6046 0.5 12.5Z" stroke="#B7312C" stroke-linecap="round"/>

</svg>
