<svg width="16" height="16" viewBox="0 0 16 16" fill="none" xmlns="http://www.w3.org/2000/svg">
<path d="M0.5 7.5H14.5V15.5H0.5V7.5Z" fill="var(--mw-icon-background-default-white, #FFFFFF)"/>
<path fill-rule="evenodd" clip-rule="evenodd" d="M0 7.5C0 7.22386 0.223858 7 0.5 7H1.875V8H1V9H0V7.5ZM3 7H5V8H3V7ZM6.125 7H8.875V8H6.125V7ZM10 7H12V8H10V7ZM13.125 7H14.5C14.7761 7 15 7.22386 15 7.5V9H14V8H13.125V7ZM1 10V13H0V10H1ZM15 10V13H14V10H15ZM1 14V15H1.875V16H0.5C0.223858 16 0 15.7761 0 15.5V14H1ZM15 14V15.5C15 15.7761 14.7761 16 14.5 16H13.125V15H14V14H15ZM3 15H5V16H3V15ZM6.125 15H8.875V16H6.125V15ZM10 15H12V16H10V15Z" fill="var(--mw-icon-border-default-gray, #616161)"/>
<path d="M7.49951 6.5L10.5 2.5L8.5 2.5L8.5 0.5L6.5 0.5L6.5 2.5L4.5 2.5L7.49951 6.5Z" fill="var(--mw-icon-background-default-selection, #B4DEFF)" stroke="var(--mw-icon-border-default-blue, #1656A7)"/>
</svg>
