<svg width="16" height="16" viewBox="0 0 16 16" fill="none" xmlns="http://www.w3.org/2000/svg">
<path d="M10.4545 0.5H1.54541C0.993125 0.5 0.54541 0.947715 0.54541 1.5V11.5C0.54541 12.0523 0.993126 12.5 1.54541 12.5H10.4545C11.0068 12.5 11.4545 12.0523 11.4545 11.5V1.5C11.4545 0.947715 11.0068 0.5 10.4545 0.5Z" fill="var(--mw-icon-background-default-white, #FFFFFF)" stroke="var(--mw-icon-border-default-gray, #616161)" stroke-linecap="round"/>
<rect x="7" y="6" width="3" height="3" fill="var(--mw-icon-background-medium-blue, #83CAFF)"/>
<path d="M7 3.5H10M8.5 5V2" stroke="var(--mw-icon-glyph-content-gray, #616162)"/>
<path d="M2.5 3.5H5.5M2.5 7.5H5.5" stroke="var(--mw-icon-glyph-content-gray, #616162)" stroke-linecap="square"/>
<rect x="5.5" y="15.5" width="10" height="10" rx="0.5" transform="rotate(-90 5.5 15.5)" fill="var(--mw-icon-background-red, #FF9D9A)" stroke="var(--mw-icon-border-default-red, #902622)" stroke-linejoin="round"/>
<path d="M13 13L8 8M8 13L13 8" stroke="var(--mw-icon-glyph-content-dark-red, #610908)" stroke-linecap="square"/>
</svg>
