<svg width="16" height="16" viewBox="0 0 16 16" fill="none" xmlns="http://www.w3.org/2000/svg">
<path d="M12.5 6.5L0.5 6.5L0.5 2.5L12.5 2.5V6.5Z" fill="var(--mw-icon-background-default-white, #FFFFFF)"/>
<path d="M12.5 6.5V7C12.7761 7 13 6.77614 13 6.5H12.5ZM0.5 6.5H2.98023e-07C2.98023e-07 6.63261 0.0526787 6.75978 0.146447 6.85355C0.240215 6.94732 0.367392 7 0.5 7L0.5 6.5ZM0.5 2.5L0.5 2C0.223858 2 0 2.22386 0 2.5L0.5 2.5ZM12.5 2.5H13C13 2.36739 12.9473 2.24021 12.8536 2.14645C12.7598 2.05268 12.6326 2 12.5 2V2.5ZM4 5.5L4 6L5 6V5.5H4ZM5 3.5V3L4 3V3.5L5 3.5ZM8 5.5V6H9V5.5H8ZM9 3.5V3H8V3.5H9ZM12.5 6L0.5 6L0.5 7L12.5 7V6ZM1 6.5L1 2.5L0 2.5L2.98023e-07 6.5H1ZM0.5 3L12.5 3V2L0.5 2L0.5 3ZM12 2.5V6.5H13V2.5H12ZM9 5.5V3.5H8V5.5H9ZM5 5.5L5 3.5L4 3.5L4 5.5H5Z" fill="var(--mw-icon-border-default-gray, #616161)"/>
<rect x="5.5" y="15.5" width="10" height="10" rx="0.5" transform="rotate(-90 5.5 15.5)" fill="var(--mw-icon-background-red, #FF9D9A)" stroke="var(--mw-icon-border-default-red, #902622)" stroke-linejoin="round"/>
<path d="M12.6464 13.3536L13 13.7071L13.7071 13L13.3536 12.6464L12.6464 13.3536ZM8.35355 7.64645L8 7.29289L7.29289 8L7.64645 8.35355L8.35355 7.64645ZM7.64645 12.6464L7.29289 13L8 13.7071L8.35355 13.3536L7.64645 12.6464ZM13.3536 8.35355L13.7071 8L13 7.29289L12.6464 7.64645L13.3536 8.35355ZM13.3536 12.6464L8.35355 7.64645L7.64645 8.35355L12.6464 13.3536L13.3536 12.6464ZM8.35355 13.3536L13.3536 8.35355L12.6464 7.64645L7.64645 12.6464L8.35355 13.3536Z" fill="var(--mw-icon-glyph-content-dark-red, #610908)"/>
</svg>
