<svg width="16" height="16" viewBox="0 0 16 16" fill="none" xmlns="http://www.w3.org/2000/svg">
<path d="M0.5 1.5C0.5 0.947715 0.947715 0.5 1.5 0.5H11.5C12.0523 0.5 12.5 0.947715 12.5 1.5V11.5C12.5 12.0523 12.0523 12.5 11.5 12.5H1.5C0.947715 12.5 0.5 12.0523 0.5 11.5V1.5Z" fill="var(--mw-icon-background-default-white, #FFFFFF)" stroke="var(--mw-icon-border-default-gray, #616161)"/>
<path d="M8.5 4.5C8.5 4.5 7.6 3.5 5.5 3.5C3.4 3.5 2.5 5.22727 2.5 6.5C2.5 7.77273 2.9 8.5 3.5 8.5H6.5C7.1 8.5 7.5 8.9443 7.5 9.5C7.5 10.1364 6.5 10.5 6.5 10.5" stroke="var(--mw-icon-glyph-content-gray, #616162)" stroke-linecap="square" stroke-linejoin="round"/>
<path d="M6 3.5C6 4.32843 5.32843 5 4.5 5C3.67157 5 3 4.32843 3 3.5C3 2.67157 3.67157 2 4.5 2C5.32843 2 6 2.67157 6 3.5Z" fill="var(--mw-icon-borderColor-light-blue, #268CDD)"/>
<path d="M10 4.5C10 5.32843 9.32843 6 8.5 6C7.67157 6 7 5.32843 7 4.5C7 3.67157 7.67157 3 8.5 3C9.32843 3 10 3.67157 10 4.5Z" fill="var(--mw-icon-borderColor-light-blue, #268CDD)"/>
<path d="M5 8.5C5 9.32843 4.32843 10 3.5 10C2.67157 10 2 9.32843 2 8.5C2 7.67157 2.67157 7 3.5 7C4.32843 7 5 7.67157 5 8.5Z" fill="var(--mw-icon-borderColor-light-blue, #268CDD)"/>
<rect x="5.5" y="15.5" width="10" height="10" rx="0.5" transform="rotate(-90 5.5 15.5)" fill="var(--mw-icon-background-red, #FF9D9A)" stroke="var(--mw-icon-border-default-red, #902622)" stroke-linejoin="round"/>
<path d="M13 13L8 8M8 13L13 8" stroke="var(--mw-icon-glyph-content-dark-red, #610908)" stroke-linecap="square"/>
</svg>
