<svg width="16" height="16" viewBox="0 0 16 16" fill="none" xmlns="http://www.w3.org/2000/svg">
<path d="M0.5 2C0.5 1.72386 0.723858 1.5 1 1.5H5.08579C5.351 1.5 5.60536 1.60536 5.79289 1.79289L6.20711 2.20711C6.39464 2.39464 6.649 2.5 6.91421 2.5H11C11.2761 2.5 11.5 2.72386 11.5 3V9C11.5 9.27614 11.2761 9.5 11 9.5H1C0.723858 9.5 0.5 9.27614 0.5 9V2Z" fill="var(--mw-icon-background-light-yellow, #FFF5BC)" stroke="#674C06"/>
<rect x="5.5" y="14.5" width="10" height="10" rx="0.5" transform="rotate(-90 5.5 14.5)" fill="var(--mw-icon-background-red, #FF9D9A)" stroke="var(--mw-icon-border-default-red, #902622)" stroke-linejoin="round"/>
<path d="M13 12L8 7M8 12L13 7" stroke="var(--mw-icon-glyph-content-dark-red, #610908)" stroke-linecap="square"/>
</svg>
