<svg width="16" height="16" viewBox="0 0 16 16" fill="none" xmlns="http://www.w3.org/2000/svg">
<path d="M2.5 11.5V3.5C2.5 2.94772 2.94772 2.5 3.5 2.5H11.5C12.0523 2.5 12.5 2.94772 12.5 3.5V11.5C12.5 12.0523 12.0523 12.5 11.5 12.5H3.5C2.94772 12.5 2.5 12.0523 2.5 11.5Z" fill="var(--mw-icon-background-default-medium-gray, #D9D9D9)" stroke="var(--mw-icon-border-default-gray, #616161)" stroke-linejoin="round"/>
<path d="M0.5 9.5V1.5C0.5 0.947715 0.947716 0.5 1.5 0.5H9.5C10.0523 0.5 10.5 0.947716 10.5 1.5V9.5C10.5 10.0523 10.0523 10.5 9.5 10.5H1.5C0.947715 10.5 0.5 10.0523 0.5 9.5Z" fill="var(--mw-icon-background-default-white, #FFFFFF)"/>
<path d="M0.5 9.5V1.5C0.5 0.947715 0.947716 0.5 1.5 0.5H9.5C10.0523 0.5 10.5 0.947716 10.5 1.5V9.5C10.5 10.0523 10.0523 10.5 9.5 10.5H1.5C0.947715 10.5 0.5 10.0523 0.5 9.5Z" stroke="var(--mw-icon-border-default-gray, #616161)" stroke-linejoin="round"/>
<rect x="5.5" y="15.5" width="10" height="10" rx="0.5" transform="rotate(-90 5.5 15.5)" fill="var(--mw-icon-background-red, #FF9D9A)" stroke="var(--mw-icon-border-default-red, #902622)" stroke-linejoin="round"/>
<path d="M13 13L8 8M8 13L13 8" stroke="var(--mw-icon-glyph-content-dark-red, #610908)" stroke-linecap="square"/>
</svg>
