<svg width="16" height="16" viewBox="0 0 16 16" fill="none" xmlns="http://www.w3.org/2000/svg">
<path d="M12.5 12.5L12.5 0.5L0.5 0.499999L0.499999 12.5L12.5 12.5Z" fill="var(--mw-icon-background-default-white, #FFFFFF)" stroke="var(--mw-icon-border-default-gray, #616161)" stroke-linecap="round" stroke-linejoin="round"/>
<path d="M11.5 8.5L1.5 8.5M8.5 1.5L8.5 11.5M11.5 4.5L1.5 4.5M4.5 1.5L4.5 11.5" stroke="var(--mw-icon-border-default-gray, #616161)" stroke-linecap="square"/>
<rect x="5.5" y="15.5" width="10" height="10" rx="0.5" transform="rotate(-90 5.5 15.5)" fill="var(--mw-icon-background-red, #FF9D9A)" stroke="var(--mw-icon-border-default-red, #902622)" stroke-linejoin="round"/>
<path d="M12.6464 13.3536L13 13.7071L13.7071 13L13.3536 12.6464L12.6464 13.3536ZM8.35355 7.64645L8 7.29289L7.29289 8L7.64645 8.35355L8.35355 7.64645ZM7.64645 12.6464L7.29289 13L8 13.7071L8.35355 13.3536L7.64645 12.6464ZM13.3536 8.35355L13.7071 8L13 7.29289L12.6464 7.64645L13.3536 8.35355ZM13.3536 12.6464L8.35355 7.64645L7.64645 8.35355L12.6464 13.3536L13.3536 12.6464ZM8.35355 13.3536L13.3536 8.35355L12.6464 7.64645L7.64645 12.6464L8.35355 13.3536Z" fill="var(--mw-icon-glyph-content-dark-red, #610908)"/>
<path d="M0.5 1C0.5 0.723858 0.723858 0.5 1 0.5H4.5V4.5H0.5V1Z" fill="var(--mw-icon-background-red, #FF9D9A)" stroke="var(--mw-icon-border-default-red, #902622)"/>
</svg>
