<svg width="16" height="16" viewBox="0 0 16 16" fill="none" xmlns="http://www.w3.org/2000/svg">
<path d="M13 11.5L1 11.5C0.723858 11.5 0.5 11.2761 0.5 11L0.499999 3.5L13.5 3.5L13.5 11C13.5 11.2761 13.2761 11.5 13 11.5Z" fill="var(--mw-icon-background-default-white, #FFFFFF)" stroke="var(--mw-icon-border-default-gray, #616161)" stroke-linecap="round"/>
<path d="M13.5 3.5L0.5 3.5L0.5 1C0.5 0.723858 0.723858 0.5 1 0.5L13 0.5C13.2761 0.5 13.5 0.723858 13.5 1L13.5 3.5Z" fill="white" stroke="var(--mw-icon-border-default-gray, #616161)" stroke-linecap="round"/>
<rect x="5.5" y="15.5" width="10" height="10" rx="0.5" transform="rotate(-90 5.5 15.5)" fill="var(--mw-icon-background-red, #FF9D9A)" stroke="var(--mw-icon-border-default-red, #902622)" stroke-linejoin="round"/>
<path d="M13 13L8 8M8 13L13 8" stroke="var(--mw-icon-glyph-content-dark-red, #610908)" stroke-linecap="square"/>
<path d="M5 7L3.5 9L2 7H3L3 5H4V7H5Z" fill="var(--mw-icon-glyph-content-gray, #616162)"/>
</svg>
