<svg width="16" height="16" viewBox="0 0 16 16" fill="none" xmlns="http://www.w3.org/2000/svg">
<path d="M6.5 12.5L6.5 0.5L2.5 0.5L2.5 12.5H6.5Z" fill="var(--mw-icon-background-default-white, #FFFFFF)"/>
<path d="M6.5 12.5V13C6.77614 13 7 12.7761 7 12.5H6.5ZM6.5 0.5L7 0.5C7 0.367392 6.94732 0.240215 6.85355 0.146447C6.75978 0.0526786 6.63261 1.19209e-07 6.5 1.19209e-07V0.5ZM2.5 0.5L2.5 0C2.22386 0 2 0.223858 2 0.5L2.5 0.5ZM2.5 12.5H2C2 12.6326 2.05268 12.7598 2.14645 12.8536C2.24021 12.9473 2.36739 13 2.5 13V12.5ZM5.5 5H6V4H5.5V5ZM3.5 4H3V5H3.5V4ZM5.5 9H6V8H5.5V9ZM3.5 8H3V9H3.5V8ZM7 12.5L7 0.5L6 0.5L6 12.5H7ZM6.5 1.19209e-07L2.5 0L2.5 1L6.5 1V1.19209e-07ZM2 0.5L2 12.5H3L3 0.5L2 0.5ZM2.5 13H6.5V12H2.5V13ZM5.5 8H3.5V9H5.5V8ZM5.5 4H3.5V5H5.5V4Z" fill="var(--mw-icon-border-default-gray, #616161)"/>
<rect x="5.5" y="15.5" width="10" height="10" rx="0.5" transform="rotate(-90 5.5 15.5)" fill="var(--mw-icon-background-red, #FF9D9A)" stroke="var(--mw-icon-border-default-red, #902622)" stroke-linejoin="round"/>
<path d="M12.6464 13.3536L13 13.7071L13.7071 13L13.3536 12.6464L12.6464 13.3536ZM8.35355 7.64645L8 7.29289L7.29289 8L7.64645 8.35355L8.35355 7.64645ZM7.64645 12.6464L7.29289 13L8 13.7071L8.35355 13.3536L7.64645 12.6464ZM13.3536 8.35355L13.7071 8L13 7.29289L12.6464 7.64645L13.3536 8.35355ZM13.3536 12.6464L8.35355 7.64645L7.64645 8.35355L12.6464 13.3536L13.3536 12.6464ZM8.35355 13.3536L13.3536 8.35355L12.6464 7.64645L7.64645 12.6464L8.35355 13.3536Z" fill="var(--mw-icon-glyph-content-dark-red, #610908)"/>
</svg>
