<svg width="16" height="16" viewBox="0 0 16 16" fill="none" xmlns="http://www.w3.org/2000/svg">
<path d="M11.5 0.5H1.5C0.947715 0.5 0.5 0.947715 0.5 1.5V10.5C0.5 11.0523 0.947715 11.5 1.5 11.5H11.5C12.0523 11.5 12.5 11.0523 12.5 10.5V1.5C12.5 0.947715 12.0523 0.5 11.5 0.5Z" fill="var(--mw-icon-background-default-white, #FFFFFF)" stroke="var(--mw-icon-border-default-gray, #616161)"/>
<path d="M6.5 5.5V6.5M6.5 6.5H3.5V7.5M6.5 6.5H9.5V8" stroke="var(--mw-icon-glyph-disabled-gray, #888889)" stroke-linecap="square" stroke-linejoin="round"/>
<path d="M10 4.5V2.5C10 2.22386 9.77614 2 9.5 2H3.5C3.22386 2 3 2.22386 3 2.5V4.5C3 4.77614 3.22386 5 3.5 5H9.5C9.77614 5 10 4.77614 10 4.5Z" fill="var(--mw-icon-glyph-content-light-blue, #278CDD)"/>
<path d="M6 9.5V8.5C6 8.22386 5.77614 8 5.5 8H2.5C2.22386 8 2 8.22386 2 8.5V9.5C2 9.77614 2.22386 10 2.5 10H5.5C5.77614 10 6 9.77614 6 9.5Z" fill="var(--mw-icon-glyph-content-light-blue, #278CDD)"/>
<path d="M10 9.5V8.5C10 8.22386 9.77614 8 9.5 8H7.5C7.22386 8 7 8.22386 7 8.5V9.5C7 9.77614 7.22386 10 7.5 10H9.5C9.77614 10 10 9.77614 10 9.5Z" fill="var(--mw-icon-glyph-content-light-blue, #278CDD)"/>
<rect x="5.5" y="15.5" width="10" height="10" rx="0.5" transform="rotate(-90 5.5 15.5)" fill="var(--mw-icon-background-red, #FF9D9A)" stroke="var(--mw-icon-border-default-red, #902622)" stroke-linejoin="round"/>
<path d="M13 13L8 8M8 13L13 8" stroke="var(--mw-icon-glyph-content-dark-red, #610908)" stroke-linecap="square"/>
</svg>
