<svg width="16" height="16" viewBox="0 0 16 16" fill="none" xmlns="http://www.w3.org/2000/svg">
<rect x="0.5" y="0.5" width="14" height="14" rx="1" fill="var(--mw-icon-background-default-white, #FFFFFF)" stroke="var(--mw-icon-border-default-gray, #616161)"/>
<path d="M7.5 3V5M7.5 11V13M7.5 7V9" stroke="var(--mw-icon-glyph-disabled-gray, #888889)"/>
<path d="M9.5 2.5L9.5 11.5H12.5L12.5 2.5L9.5 2.5Z" fill="var(--mw-icon-background-default-action, #CBFFBE)"/>
<path d="M2.5 2.5L2.5 11.5H5.5L5.5 2.5L2.5 2.5Z" fill="var(--mw-icon-background-default-action, #CBFFBE)"/>
<path d="M9.5 2.5V2C9.22386 2 9 2.22386 9 2.5L9.5 2.5ZM9.5 11.5H9C9 11.6326 9.05268 11.7598 9.14645 11.8536C9.24021 11.9473 9.36739 12 9.5 12V11.5ZM12.5 11.5V12C12.7761 12 13 11.7761 13 11.5H12.5ZM12.5 2.5L13 2.5C13 2.36739 12.9473 2.24022 12.8536 2.14645C12.7598 2.05268 12.6326 2 12.5 2V2.5ZM2.5 2.5L2.5 2C2.36739 2 2.24022 2.05268 2.14645 2.14645C2.05268 2.24021 2 2.36739 2 2.5L2.5 2.5ZM2.5 11.5H2C2 11.6326 2.05268 11.7598 2.14645 11.8536C2.24021 11.9473 2.36739 12 2.5 12V11.5ZM5.5 11.5V12C5.77614 12 6 11.7761 6 11.5H5.5ZM5.5 2.5L6 2.5C6 2.22386 5.77614 2 5.5 2V2.5ZM10.5 8H10V9H10.5V8ZM11.5 9H12V8H11.5V9ZM10.5 5H10V6H10.5V5ZM11.5 6H12V5H11.5V6ZM3.5 8H3V9H3.5V8ZM4.5 9H5V8H4.5V9ZM3.5 5H3V6H3.5V5ZM4.5 6H5V5H4.5V6ZM9 2.5L9 11.5H10L10 2.5L9 2.5ZM9.5 12H12.5V11H9.5V12ZM13 11.5L13 2.5L12 2.5L12 11.5H13ZM12.5 2L9.5 2V3L12.5 3V2ZM2 2.5L2 11.5H3L3 2.5L2 2.5ZM2.5 12H5.5V11H2.5V12ZM6 11.5L6 2.5L5 2.5L5 11.5H6ZM5.5 2L2.5 2L2.5 3L5.5 3V2ZM10.5 9H11.5V8H10.5V9ZM10.5 6H11.5V5H10.5V6ZM3.5 9H4.5V8H3.5V9ZM3.5 6H4.5V5H3.5V6Z" fill="var(--mw-icon-glyph-content-green, #008014)"/>
</svg>
