<svg width="16" height="16" viewBox="0 0 16 16" fill="none" xmlns="http://www.w3.org/2000/svg">
<path d="M0.5 2C0.5 1.17157 1.17157 0.5 2 0.5H13C13.8284 0.5 14.5 1.17157 14.5 2V14C14.5 14.8284 13.8284 15.5 13 15.5H2C1.17157 15.5 0.5 14.8284 0.5 14V2Z" fill="var(--mw-icon-background-default-white, #FFFFFF)" stroke="var(--mw-icon-border-default-gray, #616161)"/>
<circle cx="10" cy="9" r="1" fill="var(--mw-icon-glyph-content-light-blue, #278CDD)"/>
<circle cx="10" cy="7" r="1" fill="var(--mw-icon-glyph-content-light-blue, #278CDD)"/>
<circle cx="12" cy="7" r="1" fill="var(--mw-icon-glyph-content-light-blue, #278CDD)"/>
<circle cx="12" cy="9" r="1" fill="var(--mw-icon-glyph-content-light-blue, #278CDD)"/>
<path d="M7.5 1L7.5 15" stroke="var(--mw-icon-border-default-gray, #616161)"/>
<circle cx="5" cy="13" r="1" fill="var(--mw-icon-glyph-content-light-blue, #278CDD)"/>
<circle cx="3" cy="9" r="1" fill="var(--mw-icon-glyph-content-light-blue, #278CDD)"/>
<circle cx="3" cy="7" r="1" fill="var(--mw-icon-glyph-content-light-blue, #278CDD)"/>
<circle cx="5" cy="7" r="1" fill="var(--mw-icon-glyph-content-light-blue, #278CDD)"/>
<circle cx="5" cy="9" r="1" fill="var(--mw-icon-glyph-content-light-blue, #278CDD)"/>
<circle cx="6" cy="4" r="1" fill="var(--mw-icon-glyph-content-light-blue, #278CDD)"/>
<circle cx="3" cy="3" r="1" fill="var(--mw-icon-glyph-content-light-blue, #278CDD)"/>
</svg>
