<svg width="16" height="16" viewBox="0 0 16 16" fill="none" xmlns="http://www.w3.org/2000/svg">
<g id="dependencyAnalyzerApp">
<rect id="Rectangle 19" x="0.5" y="0.5" width="14" height="14" rx="2" fill="var(--mw-icon-background-default-white, #FFFFFF)" stroke="#B7312C"/>
<g id="hierarchy">
<g id="Frame">
<path id="lines" d="M7 6.5V6H8V6.5H7ZM4.5 7.5H4C4 7.22386 4.22386 7 4.5 7V7.5ZM5 8.5V9H4V8.5H5ZM10.5 7.5V7C10.7761 7 11 7.22386 11 7.5H10.5ZM11 8.5V9H10V8.5H11ZM8 6.5V7.5H7V6.5H8ZM7.5 8H4.5V7H7.5V8ZM5 7.5V8.5H4V7.5H5ZM7.5 7H10.5V8H7.5V7ZM11 7.5V8.5H10V7.5H11Z" fill="var(--mw-icon-glyph-disabled-gray, #888889)"/>
<g id="yellow box">
<path d="M2.5 11.5V9.5H6.5V11.5H2.5Z" fill="var(--mw-icon-background-medium-yellow, #FFEF91)"/>
<path d="M8.5 11.5V9.5H12.5V11.5H8.5Z" fill="var(--mw-icon-background-medium-yellow, #FFEF91)"/>
<path d="M2.5 9.5H2C2 9.22386 2.22386 9 2.5 9V9.5ZM2.5 11.5V12C2.22386 12 2 11.7761 2 11.5H2.5ZM6.5 11.5H7C7 11.7761 6.77614 12 6.5 12V11.5ZM6.5 9.5V9C6.77614 9 7 9.22386 7 9.5H6.5ZM8.5 9.5H8C8 9.22386 8.22386 9 8.5 9V9.5ZM8.5 11.5V12C8.22386 12 8 11.7761 8 11.5H8.5ZM12.5 11.5H13C13 11.7761 12.7761 12 12.5 12V11.5ZM12.5 9.5V9C12.7761 9 13 9.22386 13 9.5H12.5ZM3 9.5V11.5H2V9.5H3ZM2.5 11H6.5V12H2.5V11ZM6 11.5V9.5H7V11.5H6ZM6.5 10H2.5V9H6.5V10ZM9 9.5V11.5H8V9.5H9ZM8.5 11H12.5V12H8.5V11ZM12 11.5V9.5H13V11.5H12ZM12.5 10H8.5V9H12.5V10Z" fill="#674C06"/>
</g>
<path id="blue box" d="M5.5 5.5V3.5H9.5V5.5H5.5Z" fill="var(--mw-icon-background-default-selection, #B4DEFF)" stroke="var(--mw-icon-border-default-blue, #1656A7)" stroke-linecap="square" stroke-linejoin="round"/>
</g>
</g>
</g>
</svg>
