<svg width="16" height="16" viewBox="0 0 16 16" fill="none" xmlns="http://www.w3.org/2000/svg">
<path d="M0.5 12.5V2.5C0.5 1.39543 1.39543 0.5 2.5 0.5H12.5C13.6046 0.5 14.5 1.39543 14.5 2.5V12.5C14.5 13.6046 13.6046 14.5 12.5 14.5H2.5C1.39543 14.5 0.5 13.6046 0.5 12.5Z" fill="var(--mw-icon-background-default-white, #FFFFFF)" stroke="var(--mw-icon-border-default-blue, #1656A7)" stroke-linecap="round"/>
<path d="M6 12H4C3.44772 12 3 11.5523 3 11C3 10.4477 3.44772 10 4 10H6C6.55228 10 7 10.4477 7 11C7 11.5523 6.55228 12 6 12Z" fill="var(--mw-icon-glyph-content-blue, #1656A8)"/>
<path d="M11 12H9C8.44772 12 8 11.5523 8 11C8 10.4477 8.44772 10 9 10H11C11.5523 10 12 10.4477 12 11C12 11.5523 11.5523 12 11 12Z" fill="var(--mw-icon-glyph-content-blue, #1656A8)"/>
<path d="M2.5 2.5V2C2.22386 2 2 2.22386 2 2.5H2.5ZM2.5 7.5H2C2 7.77614 2.22386 8 2.5 8V7.5ZM12.5 7.5V8C12.7761 8 13 7.77614 13 7.5H12.5ZM12.5 2.5H13C13 2.22386 12.7761 2 12.5 2V2.5ZM2 2.5V7.5H3V2.5H2ZM2.5 8H12.5V7H2.5V8ZM13 7.5V2.5H12V7.5H13ZM12.5 2H2.5V3H12.5V2ZM6 6C6.90294 6 7.39342 5.68567 7.80128 5.41803C8.16529 5.17917 8.43326 5 9 5V4C8.12662 4 7.6506 4.32083 7.25265 4.58197C6.89854 4.81433 6.60908 5 6 5V6ZM2.59423 3.29215C2.88223 3.69214 3.30253 4.38639 3.81119 4.92948C4.33686 5.49073 5.04762 6 6 6V5C5.44035 5 4.97529 4.70952 4.54105 4.24589C4.08981 3.7641 3.76613 3.20835 3.40577 2.70785L2.59423 3.29215ZM9 5C9.52024 5 9.98562 5.28633 10.4352 5.75748C10.8923 6.2366 11.2431 6.80452 11.5942 7.29215L12.4058 6.70785C12.1085 6.29499 11.6794 5.61291 11.1587 5.06715C10.6303 4.51342 9.91989 4 9 4V5Z" fill="var(--mw-icon-glyph-content-blue, #1656A8)"/>
</svg>
