<svg width="16" height="16" viewBox="0 0 16 16" fill="none" xmlns="http://www.w3.org/2000/svg">
<path d="M0.5 12.5V2.5C0.5 1.39543 1.39543 0.5 2.5 0.5H12.5C13.6046 0.5 14.5 1.39543 14.5 2.5V12.5C14.5 13.6046 13.6046 14.5 12.5 14.5H2.5C1.39543 14.5 0.5 13.6046 0.5 12.5Z" fill="var(--mw-icon-background-default-light-gray, #F5F5F5)"/>
<path d="M0.5 12.5V2.5C0.5 1.39543 1.39543 0.5 2.5 0.5H12.5C13.6046 0.5 14.5 1.39543 14.5 2.5V12.5C14.5 13.6046 13.6046 14.5 12.5 14.5H2.5C1.39543 14.5 0.5 13.6046 0.5 12.5Z" fill="var(--mw-icon-background-default-white, #FFFFFF)" stroke="var(--mw-icon-border-default-gray, #616161)" stroke-linecap="round"/>
<path d="M4.5 10.5L7.5 4.5" stroke="var(--mw-icon-glyph-content-dark-blue, #104280)"/>
<path d="M10.5 10.5L7.5 4.5" stroke="var(--mw-icon-glyph-content-dark-blue, #104280)" stroke-dasharray="1 2"/>
<circle cx="4.5" cy="10.5" r="2" fill="#54B6FF" stroke="var(--mw-icon-glyph-content-dark-blue, #104280)"/>
<circle cx="10.5" cy="10.5" r="2" fill="white" stroke="var(--mw-icon-glyph-content-dark-blue, #104280)" stroke-dasharray="1 1"/>
<circle cx="7.5" cy="4.5" r="2" fill="#54B6FF" stroke="var(--mw-icon-glyph-content-dark-blue, #104280)"/>
</svg>
