<svg width="16" height="16" viewBox="0 0 16 16" fill="none" xmlns="http://www.w3.org/2000/svg">
<path d="M0.5 2.5H12.5V12C12.5 12.2761 12.2761 12.5 12 12.5H1C0.723858 12.5 0.5 12.2761 0.5 12V2.5Z" fill="var(--mw-icon-background-default-white, #FFFFFF)" stroke="var(--mw-icon-border-default-gray, #616161)"/>
<path d="M2 9.5C2 9.22386 2.22386 9 2.5 9H10.5C10.7761 9 11 9.22386 11 9.5V10.5C11 10.7761 10.7761 11 10.5 11H2.5C2.22386 11 2 10.7761 2 10.5V9.5Z" fill="var(--mw-icon-glyph-disabled-gray, #888889)"/>
<path d="M10.5 5.5C9.16667 4.16667 7.83333 4.16667 6.5 5.5C5.16667 6.83333 3.83333 6.83333 2.5 5.5" stroke="#0072BD" stroke-linecap="round"/>
<path d="M0.5 1C0.5 0.723858 0.723858 0.5 1 0.5H12C12.2761 0.5 12.5 0.723858 12.5 1V2.5H0.5V1Z" fill="var(--mw-icon-background-default-selection, #B4DEFF)" stroke="var(--mw-icon-border-default-blue, #1656A7)"/>
<path d="M2 1H3V2H2V1Z" fill="var(--mw-icon-glyph-content-light-blue, #278CDD)"/>
<path d="M4 1H5V2H4V1Z" fill="var(--mw-icon-glyph-content-light-blue, #278CDD)"/>
<path d="M10 1H11V2H10V1Z" fill="var(--mw-icon-glyph-content-light-blue, #278CDD)"/>
<path d="M5.5 6.5C5.5 5.94772 5.94772 5.5 6.5 5.5H14.5C15.0523 5.5 15.5 5.94772 15.5 6.5V14.5C15.5 15.0523 15.0523 15.5 14.5 15.5H6.5C5.94772 15.5 5.5 15.0523 5.5 14.5V6.5Z" fill="white" stroke="var(--mw-icon-border-default-gray, #616161)"/>
<path d="M9 7H14V8H9V7Z" fill="var(--mw-icon-glyph-content-gray, #616162)"/>
<path d="M9 11H13V12H9V11Z" fill="var(--mw-icon-glyph-content-gray, #616162)"/>
<path d="M9 9H12V10H9V9Z" fill="var(--mw-icon-glyph-content-gray, #616162)"/>
<path d="M9 13H14V14H9V13Z" fill="var(--mw-icon-glyph-content-gray, #616162)"/>
<path d="M7 7H8V8H7V7Z" fill="var(--mw-icon-glyph-content-gray, #616162)"/>
<path d="M7 9H8V10H7V9Z" fill="var(--mw-icon-glyph-content-gray, #616162)"/>
<path d="M7 11H8V12H7V11Z" fill="var(--mw-icon-glyph-content-gray, #616162)"/>
<path d="M7 13H8V14H7V13Z" fill="var(--mw-icon-glyph-content-gray, #616162)"/>
</svg>
