<svg width="16" height="16" viewBox="0 0 16 16" fill="none" xmlns="http://www.w3.org/2000/svg">
<path d="M1.5 3.5H12.5V11C12.5 11.2761 12.2761 11.5 12 11.5H2C1.72386 11.5 1.5 11.2761 1.5 11V3.5Z" fill="var(--mw-icon-background-lightest-blue, #E2F0FF)" stroke="var(--mw-icon-border-default-blue, #1656A7)"/>
<path d="M0.5 1C0.5 0.723858 0.723858 0.5 1 0.5H13C13.2761 0.5 13.5 0.723858 13.5 1V3.5H0.5V1Z" fill="var(--mw-icon-background-lightest-blue, #E2F0FF)"/>
<path d="M13.5 3.5V4C13.7761 4 14 3.77614 14 3.5H13.5ZM0.5 3.5H0C0 3.77614 0.223858 4 0.5 4L0.5 3.5ZM1 1H13V0H1V1ZM13 1V3.5H14V1H13ZM13.5 3H0.5V4H13.5V3ZM1 3.5V1H0V3.5H1ZM13 1H14C14 0.447715 13.5523 0 13 0V1ZM1 0C0.447715 0 0 0.447715 0 1H1V1V0Z" fill="var(--mw-icon-border-default-blue, #1656A7)"/>
<path d="M5.5 6.5C5.5 5.94772 5.94772 5.5 6.5 5.5H14.5C15.0523 5.5 15.5 5.94772 15.5 6.5V14.5C15.5 15.0523 15.0523 15.5 14.5 15.5H6.5C5.94772 15.5 5.5 15.0523 5.5 14.5V6.5Z" fill="var(--mw-icon-background-default-white, #FFFFFF)" stroke="var(--mw-icon-border-default-gray, #616161)"/>
<path d="M9 7H14V8H9V7Z" fill="var(--mw-icon-glyph-content-gray, #616162)"/>
<path d="M9 11H13V12H9V11Z" fill="var(--mw-icon-glyph-content-gray, #616162)"/>
<path d="M9 9H12V10H9V9Z" fill="var(--mw-icon-glyph-content-gray, #616162)"/>
<path d="M9 13H14V14H9V13Z" fill="var(--mw-icon-glyph-content-gray, #616162)"/>
<path d="M7 7H8V8H7V7Z" fill="var(--mw-icon-glyph-content-gray, #616162)"/>
<path d="M7 9H8V10H7V9Z" fill="var(--mw-icon-glyph-content-gray, #616162)"/>
<path d="M7 11H8V12H7V11Z" fill="var(--mw-icon-glyph-content-gray, #616162)"/>
<path d="M7 13H8V14H7V13Z" fill="var(--mw-icon-glyph-content-gray, #616162)"/>
</svg>
