<svg width="16" height="16" viewBox="0 0 16 16" fill="none" xmlns="http://www.w3.org/2000/svg">
<path d="M11.5 1.5C11.5 0.947715 11.0523 0.5 10.5 0.5H1.5C0.947716 0.5 0.500001 0.947715 0.500001 1.5V10.5C0.500001 11.0523 0.947716 11.5 1.5 11.5H10.5C11.0523 11.5 11.5 11.0523 11.5 10.5V1.5Z" fill="var(--mw-icon-background-default-white, #FFFFFF)" stroke="var(--mw-icon-border-default-gray, #616161)"/>
<path d="M4 4H6V10H4V4Z" fill="#D95319"/>
<path d="M8 2H10V10H8V2Z" fill="#D95319"/>
<path d="M2 8H4V10H2V8Z" fill="#0072BD"/>
<path d="M6 3H8V10H6V3Z" fill="#0072BD"/>
<path d="M5.5 6.5C5.5 5.94772 5.94772 5.5 6.5 5.5H14.5C15.0523 5.5 15.5 5.94772 15.5 6.5V14.5C15.5 15.0523 15.0523 15.5 14.5 15.5H6.5C5.94772 15.5 5.5 15.0523 5.5 14.5V6.5Z" fill="white" stroke="var(--mw-icon-border-default-gray, #616161)"/>
<path d="M9 7H14V8H9V7Z" fill="var(--mw-icon-glyph-content-gray, #616162)"/>
<path d="M9 11H13V12H9V11Z" fill="var(--mw-icon-glyph-content-gray, #616162)"/>
<path d="M9 9H12V10H9V9Z" fill="var(--mw-icon-glyph-content-gray, #616162)"/>
<path d="M9 13H14V14H9V13Z" fill="var(--mw-icon-glyph-content-gray, #616162)"/>
<path d="M7 7H8V8H7V7Z" fill="var(--mw-icon-glyph-content-gray, #616162)"/>
<path d="M7 9H8V10H7V9Z" fill="var(--mw-icon-glyph-content-gray, #616162)"/>
<path d="M7 11H8V12H7V11Z" fill="var(--mw-icon-glyph-content-gray, #616162)"/>
<path d="M7 13H8V14H7V13Z" fill="var(--mw-icon-glyph-content-gray, #616162)"/>
</svg>
