<svg width="16" height="16" viewBox="0 0 16 16" fill="none" xmlns="http://www.w3.org/2000/svg">
<circle cx="7.5" cy="7.5" r="5.5" fill="var(--mw-icon-object-primary, #616160)"/>
<circle cx="7.5" cy="7.5" r="4" stroke="var(--mw-icon-object-secondary, #FFFFFE)"/>
<rect x="7" y="4" width="1" height="3" fill="var(--mw-icon-object-secondary, #FFFFFE)"/>
<path d="M8 0.5C8 0.776142 7.77614 1 7.5 1C7.22386 1 7 0.776142 7 0.5C7 0.223858 7.22386 0 7.5 0C7.77614 0 8 0.223858 8 0.5Z" fill="var(--mw-icon-object-primary, #616160)"/>
<path d="M4 1.5C4 1.77614 3.77614 2 3.5 2C3.22386 2 3 1.77614 3 1.5C3 1.22386 3.22386 1 3.5 1C3.77614 1 4 1.22386 4 1.5Z" fill="var(--mw-icon-object-primary, #616160)"/>
<path d="M2 3.5C2 3.77614 1.77614 4 1.5 4C1.22386 4 1 3.77614 1 3.5C1 3.22386 1.22386 3 1.5 3C1.77614 3 2 3.22386 2 3.5Z" fill="var(--mw-icon-object-primary, #616160)"/>
<path d="M1 6.5C1 6.77614 0.776142 7 0.5 7C0.223858 7 0 6.77614 0 6.5C0 6.22386 0.223858 6 0.5 6C0.776142 6 1 6.22386 1 6.5Z" fill="var(--mw-icon-object-primary, #616160)"/>
<path d="M12 1.5C12 1.77614 11.7761 2 11.5 2C11.2239 2 11 1.77614 11 1.5C11 1.22386 11.2239 1 11.5 1C11.7761 1 12 1.22386 12 1.5Z" fill="var(--mw-icon-object-primary, #616160)"/>
<path d="M14 3.5C14 3.77614 13.7761 4 13.5 4C13.2239 4 13 3.77614 13 3.5C13 3.22386 13.2239 3 13.5 3C13.7761 3 14 3.22386 14 3.5Z" fill="var(--mw-icon-object-primary, #616160)"/>
<path d="M15 6.5C15 6.77614 14.7761 7 14.5 7C14.2239 7 14 6.77614 14 6.5C14 6.22386 14.2239 6 14.5 6C14.7761 6 15 6.22386 15 6.5Z" fill="var(--mw-icon-object-primary, #616160)"/>
</svg>
