<svg width="16" height="16" viewBox="0 0 16 16" fill="none" xmlns="http://www.w3.org/2000/svg">
<path d="M0.5 12.5V2.5C0.5 1.39543 1.39543 0.5 2.5 0.5H12.5C13.6046 0.5 14.5 1.39543 14.5 2.5V12.5C14.5 13.6046 13.6046 14.5 12.5 14.5H2.5C1.39543 14.5 0.5 13.6046 0.5 12.5Z" fill="var(--mw-icon-background-default-white, #FFFFFF)"/>
<path d="M8 2L8 6" stroke="var(--mw-icon-glyph-content-gray, #616162)" stroke-width="2"/>
<path d="M8 9L8 13" stroke="var(--mw-icon-glyph-content-gray, #616162)" stroke-width="2"/>
<path d="M3 3.5H7" stroke="#FEC338"/>
<path d="M3 5.5H7" stroke="#FEC338"/>
<path d="M3 9.5H7" stroke="#FEC338"/>
<path d="M3 7.5L12 7.5" stroke="#FEC338"/>
<path d="M3 11.5H7" stroke="#FEC338"/>
<path d="M0.5 13.5V1.5C0.5 0.947715 0.947716 0.5 1.5 0.5H13.5C14.0523 0.5 14.5 0.947716 14.5 1.5V13.5C14.5 14.0523 14.0523 14.5 13.5 14.5H1.5C0.947715 14.5 0.5 14.0523 0.5 13.5Z" stroke="var(--mw-icon-border-default-gray, #616161)" stroke-linecap="round"/>
</svg>
