<svg width="16" height="16" viewBox="0 0 16 16" fill="none" xmlns="http://www.w3.org/2000/svg">
<path d="M0.5 12.5V2.5C0.5 1.39543 1.39543 0.5 2.5 0.5H12.5C13.6046 0.5 14.5 1.39543 14.5 2.5V12.5C14.5 13.6046 13.6046 14.5 12.5 14.5H2.5C1.39543 14.5 0.5 13.6046 0.5 12.5Z" fill="var(--mw-icon-background-default-white, white)"/>
<rect x="2.5" y="2.5" width="10" height="10" rx="1" fill="var(--mw-icon-background-default-selection, #B4DEFF)" stroke="var(--mw-icon-border-default-gray, #616161)"/>
<path d="M7.5 2V13" stroke="var(--mw-icon-border-default-gray, #616161)"/>
<path d="M13 7.5L2 7.5" stroke="var(--mw-icon-border-default-gray, #616161)"/>
<path d="M3 5.36632V7H7V5.36632C5.66667 5.36632 6.33333 7 5.66667 5.36632C4.64773 2.86942 3.44444 4.36797 3 5.36632Z" fill="var(--mw-icon-glyph-content-green, #008014)"/>
<path d="M12 10.3663V11.5C12 11.7761 11.7761 12 11.5 12H8V10.3663C9.33333 10.3663 8.66667 12 9.33333 10.3663C10.3523 7.86942 11.5556 9.36797 12 10.3663Z" fill="var(--mw-icon-glyph-content-green, #008014)"/>
<path d="M5 9C3.89543 9 3 9.73122 3 11.25V11.5C3 11.7761 3.22386 12 3.5 12H7V11.25C7 9.73122 6.10457 9 5 9Z" fill="var(--mw-icon-glyph-content-green, #008014)"/>
<path d="M10 4C8.89543 4 8 4.73122 8 6.25V7H12V6.25C12 4.73122 11.1046 4 10 4Z" fill="var(--mw-icon-glyph-content-green, #008014)"/>
<path d="M0.5 12.5V2.5C0.5 1.39543 1.39543 0.5 2.5 0.5H12.5C13.6046 0.5 14.5 1.39543 14.5 2.5V12.5C14.5 13.6046 13.6046 14.5 12.5 14.5H2.5C1.39543 14.5 0.5 13.6046 0.5 12.5Z" stroke="var(--mw-icon-border-default-gray, #616161)" stroke-linecap="round"/>

</svg>
