<svg width="16" height="16" viewBox="0 0 16 16" fill="none" xmlns="http://www.w3.org/2000/svg">
<path d="M4.5 10.5L2.5 12.5M5.50006 11.4999L5.5 13.5M1.5 9.49701H3.49404" stroke="#B7312C" stroke-linecap="round"/>
<path d="M0.5 0.5H8.5V5.5H0.5V0.5Z" fill="var(--mw-icon-background-default-white, #FFFFFF)"/>
<path d="M0.5 0.5V0C0.223858 0 0 0.223858 0 0.5L0.5 0.5ZM8.5 0.5H9C9 0.223858 8.77614 0 8.5 0V0.5ZM8.5 5.5V6C8.77614 6 9 5.77614 9 5.5H8.5ZM0.5 5.5H0C0 5.77614 0.223858 6 0.5 6L0.5 5.5ZM4 5.5C4 5.22386 3.77614 5 3.5 5C3.22386 5 3 5.22386 3 5.5H4ZM2.5 7C2.22386 7 2 7.22386 2 7.5C2 7.77614 2.22386 8 2.5 8V7ZM6.5 8C6.77614 8 7 7.77614 7 7.5C7 7.22386 6.77614 7 6.5 7V8ZM6 5.5C6 5.22386 5.77614 5 5.5 5C5.22386 5 5 5.22386 5 5.5H6ZM0.5 1H8.5V0H0.5V1ZM8 0.5V5.5H9V0.5H8ZM8.5 5H0.5V6H8.5V5ZM1 5.5V0.5H0V5.5H1ZM3 5.5V7.5H4V5.5H3ZM3.5 7H2.5V8H3.5V7ZM3.5 8H5.5V7H3.5V8ZM5.5 8H6.5V7H5.5V8ZM6 7.5V5.5H5V7.5H6Z" fill="var(--mw-icon-border-default-gray, #616161)"/>
<path d="M7.5 6.5H15.5V11.5H7.5V6.5Z" fill="white"/>
<path d="M7.5 6.5V6C7.22386 6 7 6.22386 7 6.5H7.5ZM15.5 6.5H16C16 6.22386 15.7761 6 15.5 6V6.5ZM15.5 11.5V12C15.7761 12 16 11.7761 16 11.5H15.5ZM7.5 11.5H7C7 11.7761 7.22386 12 7.5 12V11.5ZM11 11.5C11 11.2239 10.7761 11 10.5 11C10.2239 11 10 11.2239 10 11.5H11ZM9.5 13C9.22386 13 9 13.2239 9 13.5C9 13.7761 9.22386 14 9.5 14V13ZM13.5 14C13.7761 14 14 13.7761 14 13.5C14 13.2239 13.7761 13 13.5 13V14ZM13 11.5C13 11.2239 12.7761 11 12.5 11C12.2239 11 12 11.2239 12 11.5H13ZM7.5 7H15.5V6H7.5V7ZM15 6.5V11.5H16V6.5H15ZM15.5 11H7.5V12H15.5V11ZM8 11.5V6.5H7V11.5H8ZM10 11.5V13.5H11V11.5H10ZM10.5 13H9.5V14H10.5V13ZM10.5 14H12.5V13H10.5V14ZM12.5 14H13.5V13H12.5V14ZM13 13.5V11.5H12V13.5H13Z" fill="var(--mw-icon-border-default-gray, #616161)"/>
<path d="M11.5 3.50001L13.5 1.50001M10.4999 2.50005L10.5 0.500011M14.5 4.50299H12.506" stroke="#B7312C" stroke-linecap="round"/>
</svg>
