<svg width="16" height="16" viewBox="0 0 16 16" fill="none" xmlns="http://www.w3.org/2000/svg">
<rect x="0.5" y="0.5" width="14" height="14" rx="1" fill="var(--mw-icon-background-default-white, #FFFFFF)"/>
<path d="M2.5 12.5L8.5 8.5M8.5 8.5L12.5 2.5M8.5 8.5L12.5 12.5" stroke="var(--mw-icon-glyph-content-gray, #616162)" stroke-linecap="round" stroke-linejoin="round"/>
<path d="M2.5 4.5C2.5 3.94772 2.94772 3.5 3.5 3.5C4.05228 3.5 4.5 3.94772 4.5 4.5C4.5 5.05228 4.05228 5.5 3.5 5.5C2.94772 5.5 2.5 5.05228 2.5 4.5Z" fill="white"/>
<path d="M7.5 3.5C7.5 2.94772 7.94772 2.5 8.5 2.5C9.05228 2.5 9.5 2.94772 9.5 3.5C9.5 4.05228 9.05228 4.5 8.5 4.5C7.94772 4.5 7.5 4.05228 7.5 3.5Z" fill="white"/>
<path d="M4.5 7.5C4.5 6.94772 4.94772 6.5 5.5 6.5C6.05228 6.5 6.5 6.94772 6.5 7.5C6.5 8.05228 6.05228 8.5 5.5 8.5C4.94772 8.5 4.5 8.05228 4.5 7.5Z" fill="white"/>
<path d="M2.5 4.5C2.5 3.94772 2.94772 3.5 3.5 3.5C4.05228 3.5 4.5 3.94772 4.5 4.5C4.5 5.05228 4.05228 5.5 3.5 5.5C2.94772 5.5 2.5 5.05228 2.5 4.5Z" stroke="#1171BE"/>
<path d="M7.5 3.5C7.5 2.94772 7.94772 2.5 8.5 2.5C9.05228 2.5 9.5 2.94772 9.5 3.5C9.5 4.05228 9.05228 4.5 8.5 4.5C7.94772 4.5 7.5 4.05228 7.5 3.5Z" stroke="#1171BE"/>
<path d="M4.5 7.5C4.5 6.94772 4.94772 6.5 5.5 6.5C6.05228 6.5 6.5 6.94772 6.5 7.5C6.5 8.05228 6.05228 8.5 5.5 8.5C4.94772 8.5 4.5 8.05228 4.5 7.5Z" stroke="#1171BE"/>
<path d="M11.5 7.5C11.5 6.94772 11.9477 6.5 12.5 6.5C13.0523 6.5 13.5 6.94772 13.5 7.5C13.5 8.05228 13.0523 8.5 12.5 8.5C11.9477 8.5 11.5 8.05228 11.5 7.5Z" fill="white"/>
<path d="M6.5 12.5C6.5 11.9477 6.94772 11.5 7.5 11.5C8.05228 11.5 8.5 11.9477 8.5 12.5C8.5 13.0523 8.05228 13.5 7.5 13.5C6.94772 13.5 6.5 13.0523 6.5 12.5Z" fill="white"/>
<path d="M11.5 7.5C11.5 6.94772 11.9477 6.5 12.5 6.5C13.0523 6.5 13.5 6.94772 13.5 7.5C13.5 8.05228 13.0523 8.5 12.5 8.5C11.9477 8.5 11.5 8.05228 11.5 7.5Z" stroke="#DD5400"/>
<path d="M6.5 12.5C6.5 11.9477 6.94772 11.5 7.5 11.5C8.05228 11.5 8.5 11.9477 8.5 12.5C8.5 13.0523 8.05228 13.5 7.5 13.5C6.94772 13.5 6.5 13.0523 6.5 12.5Z" stroke="#DD5400"/>
<rect x="0.5" y="0.5" width="14" height="14" rx="1" stroke="var(--mw-icon-border-default-gray, #616161)"/>
</svg>
