<svg width="16" height="16" viewBox="0 0 16 16" fill="none" xmlns="http://www.w3.org/2000/svg">
<circle cx="7.5" cy="7.5" r="7" fill="var(--mw-icon-background-default-medium-gray, #D9D9D9)" stroke="var(--mw-icon-border-default-gray, #616161)"/>
<path d="M14.3232 11.3232L3.67678 0.676777C3.57915 0.579146 3.42085 0.579146 3.32322 0.676777L0.676777 3.32322C0.579146 3.42085 0.579146 3.57915 0.676777 3.67678L11.3232 14.3232C11.4209 14.4209 11.5791 14.4209 11.6768 14.3232L14.3232 11.6768C14.4209 11.5791 14.4209 11.4209 14.3232 11.3232Z" fill="var(--mw-icon-background-default-light-gray, #F5F5F5)"/>
<path d="M6.5 5.5L3.5 2.5L2.5 3.5L5.5 6.5L6.5 5.5Z" fill="#E11B14"/>
<path d="M13.7929 10.7929L4.20711 1.20711C3.81658 0.816583 3.18342 0.816583 2.79289 1.20711L1.20711 2.79289C0.816582 3.18342 0.816583 3.81658 1.20711 4.20711L10.7929 13.7929C11.1834 14.1834 11.8166 14.1834 12.2071 13.7929L13.7929 12.2071C14.1834 11.8166 14.1834 11.1834 13.7929 10.7929Z" stroke="var(--mw-icon-border-default-gray, #616161)"/>
</svg>
