<svg width="16" height="16" viewBox="0 0 16 16" fill="none" xmlns="http://www.w3.org/2000/svg">
<path d="M4.5 14.5L8.5 10.5" stroke="#FF453A" stroke-linecap="round" stroke-linejoin="round"/>
<path d="M4 15V12L7 15H4Z" fill="#FF453A"/>
<path d="M8.5 5.5V10.5" stroke="var(--mw-icon-borderColor-light-blue, #268CDD)" stroke-linecap="round" stroke-linejoin="round"/>
<path d="M10 6L7 6L8.5 3.5L10 6Z" fill="var(--mw-icon-borderColor-light-blue, #268CDD)"/>
<path d="M13.5 10.5H8.5" stroke="#3AC831" stroke-linecap="round"/>
<path d="M13 12V9L15.5 10.5L13 12Z" fill="#3AC831"/>
<path d="M15.5 0.5H14.5H11.5M0.5 15.5V14.5V11.5M5.5 0.5H2.5H0.5V2.5V5.5M5.5 0.5V2.5M5.5 0.5H8.5H11.5M0.5 5.5H2.5M0.5 5.5V8.5V11.5M0.5 11.5H2.5M11.5 0.5V2.5" stroke="var(--mw-icon-object-primary, #616160)" stroke-linecap="round" stroke-linejoin="round"/>
</svg>
