<svg width="16" height="16" viewBox="0 0 16 16" fill="none" xmlns="http://www.w3.org/2000/svg">
<path d="M14.5 1.0625C14.5 0.75184 14.2482 0.5 13.9375 0.5H9.0625C8.75184 0.5 8.5 0.75184 8.5 1.0625V5.9375C8.5 6.24816 8.75184 6.5 9.0625 6.5H13.9375C14.2482 6.5 14.5 6.24816 14.5 5.9375V1.0625Z" stroke="var(--mw-icon-border-default-gray, #616161)"/>
<path d="M6.5 9.0625C6.5 8.75184 6.24816 8.5 5.9375 8.5H1.0625C0.75184 8.5 0.5 8.75184 0.5 9.0625V13.9375C0.5 14.2482 0.75184 14.5 1.0625 14.5H5.9375C6.24816 14.5 6.5 14.2482 6.5 13.9375V9.0625Z" stroke="var(--mw-icon-border-default-gray, #616161)"/>
<path d="M14.5 9.0625C14.5 8.75184 14.2482 8.5 13.9375 8.5H9.0625C8.75184 8.5 8.5 8.75184 8.5 9.0625V13.9375C8.5 14.2482 8.75184 14.5 9.0625 14.5H13.9375C14.2482 14.5 14.5 14.2482 14.5 13.9375V9.0625Z" stroke="var(--mw-icon-border-default-gray, #616161)"/>
<path d="M6.5 1.0625C6.5 0.75184 6.24816 0.5 5.9375 0.5H1.0625C0.75184 0.5 0.5 0.75184 0.5 1.0625V5.9375C0.5 6.24816 0.75184 6.5 1.0625 6.5H5.9375C6.24816 6.5 6.5 6.24816 6.5 5.9375V1.0625Z" stroke="var(--mw-icon-border-default-gray, #616161)"/>
</svg>
