<svg width="16" height="16" viewBox="0 0 16 16" fill="none" xmlns="http://www.w3.org/2000/svg">
<path d="M1.5 1.5C1.5 0.947715 1.94772 0.5 2.5 0.5H12.5C13.0523 0.5 13.5 0.947715 13.5 1.5V11.5C13.5 12.0523 13.0523 12.5 12.5 12.5H2.5C1.94772 12.5 1.5 12.0523 1.5 11.5V1.5Z" fill="var(--mw-icon-background-light-yellow, #FFF5BC)" stroke="var(--mw-icon-border-default-blue, #1656A7)"/>
<path d="M13 14C13.5523 14 14 14.4477 14 15C14 15.5523 13.5523 16 13 16C12.4477 16 12 15.5523 12 15C12 14.4477 12.4477 14 13 14Z" fill="var(--mw-icon-object-primary, #616160)"/>
<path d="M10 14C10.5523 14 11 14.4477 11 15C11 15.5523 10.5523 16 10 16C9.44772 16 9 15.5523 9 15C9 14.4477 9.44772 14 10 14Z" fill="var(--mw-icon-object-primary, #616160)"/>
<path d="M7 14C7.55228 14 8 14.4477 8 15C8 15.5523 7.55228 16 7 16C6.44772 16 6 15.5523 6 15C6 14.4477 6.44772 14 7 14Z" fill="var(--mw-icon-object-primary, #616160)"/>
<path fill-rule="evenodd" clip-rule="evenodd" d="M4.61609 5.48055C4.99543 5.15872 5.4765 5 6.04592 5C6.63937 5 7.12523 5.14807 7.48155 5.45912C7.83779 5.7701 8.00624 6.19571 8.00624 6.71658C8.00624 6.98849 7.91109 7.24892 7.72771 7.49573C7.60567 7.66246 7.45316 7.80144 7.27128 7.91213C7.4845 8.01614 7.66102 8.15472 7.79797 8.32831C7.99954 8.58034 8.09592 8.88348 8.09592 9.22995C8.09592 9.75938 7.91011 10.195 7.52425 10.5198C7.14072 10.8427 6.64405 11 6.05 11C5.45761 11 4.96061 10.8487 4.57426 10.5372C4.1888 10.224 4 9.81113 4 9.31398V9.17112H5.09156V9.31398C5.09156 9.57645 5.18162 9.77195 5.34881 9.91608C5.51565 10.0599 5.74313 10.1375 6.05 10.1375C6.38173 10.1375 6.61045 10.0572 6.7635 9.91582C6.91866 9.77248 7.00844 9.55633 7.00844 9.24523C7.00844 8.94903 6.91229 8.74277 6.74216 8.6038C6.57035 8.46345 6.31104 8.38078 5.93867 8.37586H5.20664V7.51337H5.93851C6.2624 7.50852 6.49722 7.42943 6.66324 7.29046C6.82896 7.15175 6.91876 6.96095 6.91876 6.7013C6.91876 6.39425 6.83682 6.19063 6.70235 6.06413C6.57056 5.94016 6.36253 5.86631 6.04592 5.86631C5.75785 5.86631 5.54319 5.94252 5.3838 6.08565C5.22625 6.22704 5.14048 6.41951 5.14048 6.67838V6.82124H4.05299V6.67838C4.05299 6.20255 4.23977 5.79962 4.61609 5.48055ZM10.6822 5.04966H11V10.9236H9.90844V6.28235L8.38792 6.80565V5.85685L10.6822 5.04966Z" fill="var(--mw-icon-glyph-content-blue, #1656A8)"/>
<path d="M1.50024 1.5C1.50024 0.947715 1.94796 0.5 2.50024 0.5H12.4999C13.0522 0.5 13.4999 0.947701 13.4999 1.49997L13.5002 3.5H1.50024V1.5Z" fill="var(--mw-icon-background-default-selection, #B4DEFF)" stroke="var(--mw-icon-border-default-blue, #1656A7)"/>
</svg>
