<svg width="16" height="16" viewBox="0 0 16 16" fill="none" xmlns="http://www.w3.org/2000/svg">
<path d="M13.5 0.5H1.5C0.947715 0.5 0.5 0.947716 0.5 1.5V13.5C0.5 14.0523 0.947716 14.5 1.5 14.5H13.5C14.0523 14.5 14.5 14.0523 14.5 13.5V1.5C14.5 0.947715 14.0523 0.5 13.5 0.5Z" fill="var(--mw-icon-background-default-white, #FFFFFF)" stroke="var(--mw-icon-border-default-gray, #616161)" stroke-linecap="round"/>
<circle cx="7.5" cy="7.5" r="5" fill="var(--mw-icon-background-lightest-blue, #E2F0FF)"/>
<path d="M11.7351 4.84225C12.3878 5.88235 12.635 7.12626 12.4295 8.33687C12.2239 9.54749 11.5801 10.6401 10.6207 11.4065C9.66132 12.173 8.45344 12.5595 7.22733 12.4926C6.00122 12.4256 4.84263 11.9098 3.9724 11.0435C3.10218 10.1771 2.58117 9.02085 2.50871 7.79505C2.43625 6.56926 2.8174 5.35966 3.5795 4.39683C4.3416 3.43401 5.43135 2.78529 6.64103 2.57434C7.85071 2.36338 9.09572 2.60495 10.1387 3.25299" stroke="var(--mw-icon-borderColor-light-blue, #268CDD)" stroke-linecap="round"/>
<circle cx="7.5" cy="7.5" r="0.5" fill="var(--mw-icon-glyph-content-red, #902623)"/>
<path d="M3.52081 14V12" stroke="var(--mw-icon-glyph-disabled-gray, #888889)"/>
<path d="M7.42857 4L5.5 5.92857V8.07143L6.92857 9.5H9.07143L11 7.57143" stroke="var(--mw-icon-glyph-content-dark-gray, #333333)"/>
<path d="M3 12L6 9" stroke="var(--mw-icon-glyph-content-dark-gray, #333333)"/>
<circle cx="3.5" cy="11.5" r="1" fill="white" stroke="var(--mw-icon-glyph-disabled-gray, #888889)"/>
<path d="M10 5L9 6" stroke="var(--mw-icon-glyph-content-blue, #1656A8)" stroke-linecap="square" stroke-linejoin="round"/>
<path d="M10.9975 3.99751V5.99751L8.99751 3.99751H10.9975Z" fill="var(--mw-icon-glyph-content-blue, #1656A8)"/>
<path d="M7.99751 6.99751V4.99751L9.99751 6.99751H7.99751Z" fill="var(--mw-icon-glyph-content-blue, #1656A8)"/>
</svg>
