<svg width="16" height="16" viewBox="0 0 16 16" fill="none" xmlns="http://www.w3.org/2000/svg">
<rect x="3.5" y="2.5" width="10" height="10" rx="0.5" fill="var(--mw-icon-background-light-yellow, #FFF5BC)" stroke="var(--mw-icon-border-default-blue, #1656A7)"/>
<path d="M3.5 3C3.5 2.72386 3.72386 2.5 4 2.5H13C13.2761 2.5 13.5 2.72386 13.5 3V4.5H3.5V3Z" fill="var(--mw-icon-background-default-selection, #B4DEFF)"/>
<path d="M4 12.5C3.72386 12.5 3.5 12.2761 3.5 12L3.5 3.5C3.5 2.94772 3.94772 2.5 4.5 2.5L5.5 2.5V12.5H4Z" fill="var(--mw-icon-background-default-selection, #B4DEFF)"/>
<path d="M3.5 3C3.5 2.72386 3.72386 2.5 4 2.5H13C13.2761 2.5 13.5 2.72386 13.5 3V4.5H3.5V3Z" stroke="var(--mw-icon-border-default-blue, #1656A7)"/>
<path d="M4 12.5C3.72386 12.5 3.5 12.2761 3.5 12L3.5 3.5C3.5 2.94772 3.94772 2.5 4.5 2.5L5.5 2.5V12.5H4Z" stroke="var(--mw-icon-border-default-blue, #1656A7)"/>
<path d="M8.5 3V12M11.5 3V12M13 10.5H4M13 7.5H4" stroke="var(--mw-icon-border-default-blue, #1656A7)" stroke-linecap="square"/>
<circle cx="6.5" cy="5.5" r="5" fill="var(--mw-icon-background-default-white, #FFFFFF)" stroke="var(--mw-icon-border-default-gray, #616161)"/>
<path d="M6.5 2.5V5.49995H9.5" stroke="var(--mw-icon-glyph-content-gray, #616162)" stroke-linecap="square"/>
<path d="M13 14C13.5523 14 14 14.4477 14 15C14 15.5523 13.5523 16 13 16C12.4477 16 12 15.5523 12 15C12 14.4477 12.4477 14 13 14Z" fill="var(--mw-icon-object-primary, #616160)"/>
<path d="M10 14C10.5523 14 11 14.4477 11 15C11 15.5523 10.5523 16 10 16C9.44772 16 9 15.5523 9 15C9 14.4477 9.44772 14 10 14Z" fill="var(--mw-icon-object-primary, #616160)"/>
<path d="M7 14C7.55228 14 8 14.4477 8 15C8 15.5523 7.55228 16 7 16C6.44772 16 6 15.5523 6 15C6 14.4477 6.44772 14 7 14Z" fill="var(--mw-icon-object-primary, #616160)"/>
</svg>
