<svg width="16" height="16" viewBox="0 0 16 16" fill="none" xmlns="http://www.w3.org/2000/svg">
<path d="M1.5 1.5C1.5 0.947715 1.94772 0.5 2.5 0.5H12.5C13.0523 0.5 13.5 0.947715 13.5 1.5V11.5C13.5 12.0523 13.0523 12.5 12.5 12.5H2.5C1.94772 12.5 1.5 12.0523 1.5 11.5V1.5Z" fill="var(--mw-icon-background-light-yellow, #FFF5BC)" stroke="var(--mw-icon-border-default-blue, #1656A7)"/>
<path d="M13 14C13.5523 14 14 14.4477 14 15C14 15.5523 13.5523 16 13 16C12.4477 16 12 15.5523 12 15C12 14.4477 12.4477 14 13 14Z" fill="var(--mw-icon-object-primary, #616160)"/>
<path d="M10 14C10.5523 14 11 14.4477 11 15C11 15.5523 10.5523 16 10 16C9.44772 16 9 15.5523 9 15C9 14.4477 9.44772 14 10 14Z" fill="var(--mw-icon-object-primary, #616160)"/>
<path d="M7 14C7.55228 14 8 14.4477 8 15C8 15.5523 7.55228 16 7 16C6.44772 16 6 15.5523 6 15C6 14.4477 6.44772 14 7 14Z" fill="var(--mw-icon-object-primary, #616160)"/>
<path d="M6.5 7.99976C6.5 8.82818 5.82843 9.49976 5 9.49976C4.17157 9.49976 3.5 8.82818 3.5 7.99976C3.5 7.17133 4.17157 6.49976 5 6.49976C5.82843 6.49976 6.5 7.17133 6.5 7.99976Z" fill="var(--mw-icon-background-default-white, #FFFFFF)"/>
<path d="M11.5 7.99976C11.5 8.82818 10.8284 9.49976 10 9.49976C9.17157 9.49976 8.5 8.82818 8.5 7.99976C8.5 7.17133 9.17157 6.49976 10 6.49976C10.8284 6.49976 11.5 7.17133 11.5 7.99976Z" fill="var(--mw-icon-background-default-selection, #B4DEFF)"/>
<path d="M8.5 4C8.5 4.82843 7.82843 5.5 7 5.5C6.17157 5.5 5.5 4.82843 5.5 4C5.5 3.17157 6.17157 2.5 7 2.5C7.82843 2.5 8.5 3.17157 8.5 4Z" fill="#F5FAFF"/>
<path d="M6.5 7.99976C6.5 8.82818 5.82843 9.49976 5 9.49976C4.17157 9.49976 3.5 8.82818 3.5 7.99976C3.5 7.17133 4.17157 6.49976 5 6.49976C5.82843 6.49976 6.5 7.17133 6.5 7.99976Z" stroke="var(--mw-icon-glyph-content-blue, #1656A8)"/>
<path d="M11.5 7.99976C11.5 8.82818 10.8284 9.49976 10 9.49976C9.17157 9.49976 8.5 8.82818 8.5 7.99976C8.5 7.17133 9.17157 6.49976 10 6.49976C10.8284 6.49976 11.5 7.17133 11.5 7.99976Z" stroke="var(--mw-icon-glyph-content-blue, #1656A8)"/>
<path d="M8.5 4C8.5 4.82843 7.82843 5.5 7 5.5C6.17157 5.5 5.5 4.82843 5.5 4C5.5 3.17157 6.17157 2.5 7 2.5C7.82843 2.5 8.5 3.17157 8.5 4Z" stroke="var(--mw-icon-glyph-content-blue, #1656A8)"/>
</svg>
