<svg width="16" height="16" viewBox="0 0 16 16" fill="none" xmlns="http://www.w3.org/2000/svg">
<path d="M0.5 12.5V2.5C0.5 1.39543 1.39543 0.5 2.5 0.5H12.5C13.6046 0.5 14.5 1.39543 14.5 2.5V12.5C14.5 13.6046 13.6046 14.5 12.5 14.5H2.5C1.39543 14.5 0.5 13.6046 0.5 12.5Z" fill="var(--mw-icon-background-default-white, white)"/>
<path d="M0.380981 12V10.4144C1.61908 10.6375 2.85717 9.52181 4.09527 7.06726C6.36511 2.56726 8.63495 2.56726 10.9048 7.06726C12.1429 9.52181 13.381 10.6375 14.6191 10.4144V12H0.380981Z" fill="#FFCBCB"/>
<path d="M0.655812 10.442C1.8023 10.4652 2.94878 9.34031 4.09526 7.06738C6.3651 2.56738 8.63495 2.56738 10.9048 7.06738C12.0513 9.34031 13.1978 10.4652 14.3442 10.442" stroke="#FF453A" stroke-linecap="square"/>
<path d="M3.5 2.5V12.5" stroke="var(--mw-icon-border-default-gray, #616161)" stroke-linecap="square"/>
<path d="M11.5 2.5V12.5" stroke="var(--mw-icon-border-default-gray, #616161)" stroke-linecap="square"/>
<path d="M7.5 2.5V12.5" stroke="var(--mw-icon-border-default-gray, #616161)" stroke-linecap="square"/>
<path d="M0.5 12.5V2.5C0.5 1.39543 1.39543 0.5 2.5 0.5H12.5C13.6046 0.5 14.5 1.39543 14.5 2.5V12.5C14.5 13.6046 13.6046 14.5 12.5 14.5H2.5C1.39543 14.5 0.5 13.6046 0.5 12.5Z" stroke="#B7312C" stroke-linecap="round"/>

</svg>
