<svg width="16" height="16" viewBox="0 0 16 16" fill="none" xmlns="http://www.w3.org/2000/svg">
<path d="M0.5 1.5C0.5 0.947715 0.947715 0.5 1.5 0.5H14.5C15.0523 0.5 15.5 0.947715 15.5 1.5V14.5C15.5 15.0523 15.0523 15.5 14.5 15.5H1.5C0.947715 15.5 0.5 15.0523 0.5 14.5V1.5Z" fill="var(--mw-icon-background-default-white, #FFFFFF)" stroke="var(--mw-icon-border-default-gray, #616161)" stroke-linejoin="round"/>
<path fill-rule="evenodd" clip-rule="evenodd" d="M7 4H5V3H7V4Z" fill="#D95319"/>
<path fill-rule="evenodd" clip-rule="evenodd" d="M10 4H8V3H10V4Z" fill="#D95319"/>
<path fill-rule="evenodd" clip-rule="evenodd" d="M14 8H11V7H14V8Z" fill="#D95319"/>
<path fill-rule="evenodd" clip-rule="evenodd" d="M12 6V5H13V6H12Z" fill="#D95319"/>
<path fill-rule="evenodd" clip-rule="evenodd" d="M14 4H11V3H14V4Z" fill="#D95319"/>
<path d="M1 11.5H1.5L2 13L2.5 11.5H3.5L4.5 3.5L5.5 11.5H6.5L7.5 13.5L8.5 11.5H9.5L10.5 7.5L11.5 11.5H13L13.5 12.5L14 11.5H15" stroke="#0072BD" stroke-linejoin="round"/>
</svg>
