<svg width="16" height="16" viewBox="0 0 16 16" fill="none" xmlns="http://www.w3.org/2000/svg">
<path d="M1.5 1.5C1.5 0.947715 1.94772 0.5 2.5 0.5H12.5C13.0523 0.5 13.5 0.947715 13.5 1.5V11.5C13.5 12.0523 13.0523 12.5 12.5 12.5H2.5C1.94772 12.5 1.5 12.0523 1.5 11.5V1.5Z" fill="var(--mw-icon-background-light-yellow, #FFF5BC)" stroke="var(--mw-icon-border-default-blue, #1656A7)"/>
<path d="M13 14C13.5523 14 14 14.4477 14 15C14 15.5523 13.5523 16 13 16C12.4477 16 12 15.5523 12 15C12 14.4477 12.4477 14 13 14Z" fill="var(--mw-icon-object-primary, #616160)"/>
<path d="M10 14C10.5523 14 11 14.4477 11 15C11 15.5523 10.5523 16 10 16C9.44772 16 9 15.5523 9 15C9 14.4477 9.44772 14 10 14Z" fill="var(--mw-icon-object-primary, #616160)"/>
<path d="M7 14C7.55228 14 8 14.4477 8 15C8 15.5523 7.55228 16 7 16C6.44772 16 6 15.5523 6 15C6 14.4477 6.44772 14 7 14Z" fill="var(--mw-icon-object-primary, #616160)"/>
<path d="M9.2831 2C10.4951 2.30966 11.1011 3.02248 11.1011 4.13848L11.1011 5.05365C11.1011 5.70056 11.4007 6.02402 12 6.02402V6.97598C11.4142 6.97598 11.1146 7.28104 11.1011 7.89116V8.86612C11.1011 9.43332 10.9496 9.89167 10.6466 10.2412C10.3436 10.5907 9.8891 10.8436 9.2831 11L9.0003 10.2596C9.25617 10.1737 9.44975 10.0235 9.58105 9.80889C9.71235 9.59734 9.78137 9.30301 9.7881 8.92591L9.7881 7.96014C9.7881 7.26725 10.0894 6.7813 10.692 6.5023C10.0894 6.22024 9.7881 5.73122 9.7881 5.03526V4.0603C9.77127 3.34287 9.50867 2.90445 9.0003 2.74502L9.2831 2Z" fill="var(--mw-icon-glyph-content-blue, #1656A8)"/>
<path d="M5.7169 11C4.5049 10.6903 3.8989 9.97752 3.8989 8.86152V7.94635C3.8989 7.29944 3.59927 6.97598 3 6.97598V6.02402C3.5858 6.02402 3.88543 5.71896 3.8989 5.10884V4.13388C3.8989 3.56668 4.0504 3.10833 4.3534 2.75881C4.6564 2.4093 5.1109 2.15636 5.7169 2L5.9997 2.74042C5.74383 2.82626 5.55025 2.97649 5.41895 3.19111C5.28765 3.40266 5.21863 3.69699 5.2119 4.07409V5.03986C5.2119 5.73275 4.91058 6.2187 4.30795 6.4977C4.91058 6.77976 5.2119 7.26878 5.2119 7.96474V8.9397C5.22873 9.65713 5.49133 10.0956 5.9997 10.255L5.7169 11Z" fill="var(--mw-icon-glyph-content-blue, #1656A8)"/>
</svg>
