<svg width="16" height="16" viewBox="0 0 16 16" fill="none" xmlns="http://www.w3.org/2000/svg">
<path d="M1.5 1.5C1.5 0.947715 1.94772 0.5 2.5 0.5H12.5C13.0523 0.5 13.5 0.947715 13.5 1.5V11.5C13.5 12.0523 13.0523 12.5 12.5 12.5H2.5C1.94772 12.5 1.5 12.0523 1.5 11.5V1.5Z" fill="var(--mw-icon-background-light-yellow, #FFF5BC)" stroke="var(--mw-icon-border-default-blue, #1656A7)"/>
<path d="M13 14C13.5523 14 14 14.4477 14 15C14 15.5523 13.5523 16 13 16C12.4477 16 12 15.5523 12 15C12 14.4477 12.4477 14 13 14Z" fill="var(--mw-icon-object-primary, #616160)"/>
<path d="M10 14C10.5523 14 11 14.4477 11 15C11 15.5523 10.5523 16 10 16C9.44772 16 9 15.5523 9 15C9 14.4477 9.44772 14 10 14Z" fill="var(--mw-icon-object-primary, #616160)"/>
<path d="M7 14C7.55228 14 8 14.4477 8 15C8 15.5523 7.55228 16 7 16C6.44772 16 6 15.5523 6 15C6 14.4477 6.44772 14 7 14Z" fill="var(--mw-icon-object-primary, #616160)"/>
<path d="M5 6H7V7H5V6Z" fill="var(--mw-icon-glyph-content-blue, #1656A8)"/>
<path d="M4 6H5V9H4V6Z" fill="var(--mw-icon-glyph-content-blue, #1656A8)"/>
<path d="M5 8H7V9H5V8Z" fill="var(--mw-icon-glyph-content-blue, #1656A8)"/>
<path d="M8 4H9V9H8V4Z" fill="var(--mw-icon-glyph-content-blue, #1656A8)"/>
<path d="M9 6H11V7H9V6Z" fill="var(--mw-icon-glyph-content-blue, #1656A8)"/>
<path d="M10 6H11V9H10V6Z" fill="var(--mw-icon-glyph-content-blue, #1656A8)"/>
</svg>
