<svg width="16" height="16" viewBox="0 0 16 16" fill="none" xmlns="http://www.w3.org/2000/svg">
<path fill-rule="evenodd" clip-rule="evenodd" d="M5.5 4C4.67157 4 4 4.67157 4 5.5V13.5C4 14.3284 4.67157 15 5.5 15H13.5C14.3284 15 15 14.3284 15 13.5V5.5C15 4.67157 14.3284 4 13.5 4H5.5ZM7.14642 7.85359L11.2929 12H8.99998V13H12.5C12.7761 13 13 12.7762 13 12.5V9.00004H12V11.2929L7.85353 7.14648L7.14642 7.85359Z" fill="var(--mw-icon-object-primary, #616160)"/>
<path d="M3 10.5H1.5C0.947715 10.5 0.5 10.0523 0.5 9.5V1.5C0.5 0.947715 0.947716 0.5 1.5 0.5H9.5C10.0523 0.5 10.5 0.947715 10.5 1.5V3" stroke="var(--mw-icon-object-primary, #616160)"/>
</svg>
