<svg width="16" height="16" viewBox="0 0 16 16" fill="none" xmlns="http://www.w3.org/2000/svg">
<path d="M9.08579 0.5H1.5C0.947715 0.5 0.5 0.947715 0.5 1.5V14.5C0.5 15.0523 0.947715 15.5 1.5 15.5H11.5C12.0523 15.5 12.5 15.0523 12.5 14.5V3.91421C12.5 3.649 12.3946 3.39464 12.2071 3.20711L9.79289 0.792893C9.60536 0.605357 9.351 0.5 9.08579 0.5Z" fill="var(--mw-icon-background-default-white, #FFFFFF)" stroke="var(--mw-icon-border-default-gray, #616161)" stroke-linecap="round"/>
<path fill-rule="evenodd" clip-rule="evenodd" d="M6.80351 4.37021C6.93576 4.59924 6.98238 4.91773 6.99156 5.28523C7.00117 5.66989 6.90463 6.15791 6.80989 6.54015C6.76201 6.73331 6.71359 6.90329 6.67714 7.02502C6.65955 7.08374 6.64472 7.13134 6.63403 7.165C6.78984 7.48629 7.06105 7.85312 7.3049 8.15068C7.4321 8.30589 7.54958 8.43954 7.63523 8.53434C7.66841 8.57106 7.69676 8.60191 7.719 8.62587C7.7675 8.6181 7.83863 8.60838 7.93935 8.59807C8.16148 8.57532 8.52943 8.54951 9.11882 8.53583C9.73442 8.52155 10.0865 8.69162 10.2832 8.90366C10.4764 9.11202 10.4946 9.33484 10.4978 9.37489C10.5009 9.41309 10.5165 9.60614 10.3808 9.79517C10.2406 9.9903 9.9677 10.1444 9.47375 10.164C8.95823 10.1843 8.4507 9.92151 8.08635 9.67248C7.90127 9.54598 7.74674 9.41857 7.63845 9.32281C7.58989 9.27988 7.55045 9.24314 7.52153 9.21549C7.47991 9.2227 7.4231 9.23276 7.35727 9.24498C7.21727 9.27097 7.03816 9.30645 6.87806 9.34492C6.71729 9.38355 6.3732 9.47715 6.06655 9.56191C5.91383 9.60412 5.77131 9.64388 5.66695 9.6731L5.55608 9.7042C5.54763 9.71921 5.53743 9.73714 5.52546 9.7579C5.48471 9.82858 5.42335 9.93204 5.34019 10.0646C5.17388 10.3298 4.92032 10.7116 4.56985 11.1806C4.20545 11.6683 3.80864 11.9096 3.45637 11.9789C3.1103 12.0469 2.7945 11.9472 2.63929 11.733L2.6385 11.7319C2.56232 11.6247 2.51593 11.5112 2.50342 11.3907C2.49095 11.2706 2.51316 11.1529 2.56005 11.0386C2.65154 10.8154 2.84292 10.5913 3.08872 10.3561C3.35184 10.1043 3.77608 9.88265 4.12006 9.72731C4.2947 9.64844 4.45365 9.58448 4.56895 9.54023C4.62376 9.51919 4.66883 9.50256 4.70117 9.49085C4.70496 9.48343 4.70914 9.47519 4.7137 9.46614C4.73936 9.41531 4.77724 9.33888 4.82564 9.23745C4.92243 9.03459 5.0613 8.73171 5.22864 8.33341C5.39531 7.93667 5.54092 7.53923 5.64497 7.24053C5.69696 7.0913 5.73847 6.96699 5.76696 6.8801C5.77823 6.84572 5.78746 6.8172 5.79449 6.79533C5.78566 6.77365 5.77442 6.74562 5.76137 6.71211C5.72863 6.62805 5.68437 6.50924 5.63803 6.36961C5.54597 6.09222 5.44313 5.72507 5.4091 5.38294C5.37482 5.01892 5.37292 4.6842 5.46468 4.43617C5.5121 4.30797 5.58683 4.19609 5.70003 4.11713C5.81305 4.03829 5.95134 4.0014 6.11005 4.00004C6.26549 3.99872 6.40415 4.02753 6.52359 4.09182C6.64382 4.15653 6.73542 4.2523 6.80351 4.37021ZM6.05018 5.99165C6.06351 5.94185 6.07727 5.88896 6.09101 5.83408C6.16803 5.52641 6.23938 5.1743 6.23716 4.94643C6.23481 4.70629 6.19472 4.60272 6.16451 4.56105C6.14439 4.53328 6.12382 4.52509 6.0805 4.52509C6.07066 4.52509 6.03477 4.52732 5.99355 4.59928C5.95085 4.6738 5.90882 4.81553 5.90473 5.06683V5.10733C5.90473 5.37678 5.95634 5.66218 6.02157 5.89538C6.03093 5.9288 6.0405 5.96096 6.05018 5.99165ZM8.24784 9.09966C8.54178 9.3192 8.87307 9.46875 9.14671 9.52115C9.3248 9.55525 9.45779 9.5443 9.5384 9.50685C9.57615 9.48932 9.60104 9.46679 9.6174 9.44021C9.634 9.41324 9.64724 9.37323 9.64724 9.31275C9.64724 9.26971 9.63345 9.23931 9.60736 9.21221C9.57789 9.18159 9.52804 9.15105 9.45212 9.12526C9.29898 9.07324 9.08281 9.05457 8.85086 9.05685C8.63518 9.05897 8.41802 9.07893 8.24784 9.09966ZM7.04857 8.77862C6.9124 8.80376 6.72222 8.84409 6.47072 8.90846C6.24213 8.96507 6.05673 9.02346 5.91454 9.07419L6.00465 8.86549C6.12494 8.5886 6.24681 8.26237 6.33811 8.00695C6.355 7.95971 6.37087 7.91481 6.38553 7.87298C6.53229 8.10795 6.70165 8.33918 6.84793 8.52768C6.92198 8.62312 6.99074 8.70839 7.04857 8.77862ZM4.20683 10.3006C4.18945 10.3099 4.17172 10.3195 4.15369 10.3295C3.95449 10.4397 3.7243 10.5871 3.52262 10.7432C3.31733 10.9021 3.1556 11.0594 3.07846 11.1878C3.0398 11.2521 3.03311 11.2917 3.03479 11.3108C3.03557 11.3197 3.03783 11.337 3.07758 11.3613C3.15344 11.4077 3.25685 11.4016 3.41299 11.2917C3.56644 11.1838 3.72882 11.0017 3.88055 10.7965C4.00518 10.628 4.11767 10.4508 4.20683 10.3006Z" fill="var(--mw-icon-glyph-content-red, #902623)"/>
</svg>
