<svg width="16" height="16" viewBox="0 0 16 16" fill="none" xmlns="http://www.w3.org/2000/svg">
<g id="documentHierarchy">
<path id="Vector" d="M10.0858 0.5H2.5C1.94771 0.5 1.5 0.947715 1.5 1.5V14.5C1.5 15.0523 1.94771 15.5 2.5 15.5H12.5C13.0523 15.5 13.5 15.0523 13.5 14.5V3.91421C13.5 3.649 13.3946 3.39464 13.2071 3.20711L10.7929 0.792893C10.6054 0.605357 10.351 0.5 10.0858 0.5Z" fill="var(--mw-icon-background-default-white, #FFFFFF)" stroke="var(--mw-icon-object-primary, #616160)" stroke-linecap="round"/>
<path id="Vector_2" d="M3.5 10.5H6.5V13.5H3.5V10.5Z" fill="var(--mw-icon-background-medium-yellow, #FFEF91)" stroke="#674C06" stroke-linejoin="round"/>
<path id="Vector_3" d="M8.5 10.5H11.5V13.5H8.5V10.5Z" fill="var(--mw-icon-background-medium-yellow, #FFEF91)" stroke="#674C06" stroke-linejoin="round"/>
<path id="Vector_4" d="M7.5 6V8.5M7.5 8.5H5.5V10M7.5 8.5H9.5V10" stroke="var(--mw-icon-border-disabled-gray, #888888)" stroke-linejoin="round"/>
<path id="Vector_5" d="M3.5 3.5H11.5V6.5H3.5V3.5Z" fill="var(--mw-icon-background-default-selection, #B4DEFF)" stroke="var(--mw-icon-border-default-blue, #1656A7)" stroke-linejoin="round"/>
</g>
</svg>
