<svg width="16" height="16" viewBox="0 0 16 16" fill="none" xmlns="http://www.w3.org/2000/svg">
<path d="M9.08579 0.5H1.5C0.947715 0.5 0.5 0.947716 0.5 1.5V13.5C0.5 14.0523 0.947715 14.5 1.5 14.5H11.5C12.0523 14.5 12.5 14.0523 12.5 13.5V3.91421C12.5 3.649 12.3946 3.39464 12.2071 3.20711L9.79289 0.792893C9.60536 0.605357 9.351 0.5 9.08579 0.5Z" fill="var(--mw-icon-background-default-white, #FFFFFF)" stroke="var(--mw-icon-border-default-gray, #616161)" stroke-linecap="round"/>
<path d="M6.5 6.5V7.5M6.5 7.5H8.5V8.5M6.5 7.5H4.5V8.5" stroke="var(--mw-icon-glyph-content-gray, #616162)" stroke-linecap="square" stroke-linejoin="round"/>
<path d="M10.5 11.5V9.5H6.5V11.5H10.5Z" fill="var(--mw-icon-background-medium-blue, #83CAFF)"/>
<path d="M6.5 11.5V9.5H2.5V11.5H6.5Z" fill="var(--mw-icon-background-medium-blue, #83CAFF)"/>
<path d="M6.5 9.5H10.5V11.5H6.5M6.5 9.5V11.5M6.5 9.5H2.5V11.5H6.5" stroke="var(--mw-icon-glyph-content-blue, #1656A8)" stroke-linecap="square" stroke-linejoin="round"/>
<path d="M8.5 5.5V3.5H4.5V5.5H8.5Z" fill="var(--mw-icon-background-medium-blue, #83CAFF)" stroke="var(--mw-icon-glyph-content-blue, #1656A8)" stroke-linecap="square" stroke-linejoin="round"/>
</svg>
