<svg width="16" height="16" viewBox="0 0 16 16" fill="none" xmlns="http://www.w3.org/2000/svg">
<path d="M0.500244 13.5001V1.50006C0.500244 0.947776 0.94796 0.500061 1.50024 0.500061H13.5002C14.0525 0.500061 14.5002 0.947777 14.5002 1.50006V13.5001C14.5002 14.0523 14.0525 14.5001 13.5002 14.5001H1.50024C0.947959 14.5001 0.500244 14.0523 0.500244 13.5001Z" fill="var(--mw-icon-background-lightest-blue, #E2F0FF)" stroke="var(--mw-icon-borderColor-light-blue, #268CDD)" stroke-linecap="square"/>
<path d="M2.5 10.4999V11.4999C2.5 12.0522 2.94772 12.4999 3.5 12.4999H11.5C12.0523 12.4999 12.5 12.0522 12.5 11.4999V10.4999H2.5Z" fill="var(--mw-icon-background-default-medium-gray, #D9D9D9)" stroke="var(--mw-icon-glyph-content-gray, #616162)" stroke-linecap="round"/>
<path d="M2.5 10.4999V2.49994H5.5C6.60457 2.49994 7.5 3.39537 7.5 4.49994V12.4999C7.5 11.3954 6.60457 10.4999 5.5 10.4999H2.5Z" fill="var(--mw-icon-background-default-white, #FFFFFF)"/>
<path d="M12.5 10.4999V2.49994H9.5C8.39543 2.49994 7.5 3.39537 7.5 4.49994V12.4999C7.5 11.3954 8.39543 10.4999 9.5 10.4999H12.5Z" fill="white"/>
<path d="M7.5 4.49994C7.5 3.39537 6.60457 2.49994 5.5 2.49994H2.5V10.4999H5.5C6.60457 10.4999 7.5 11.3954 7.5 12.4999M7.5 4.49994V12.4999M7.5 4.49994C7.5 3.39537 8.39543 2.49994 9.5 2.49994H12.5V10.4999H9.5C8.39543 10.4999 7.5 11.3954 7.5 12.4999" stroke="var(--mw-icon-glyph-content-gray, #616162)" stroke-linecap="square" stroke-linejoin="round"/>
<path d="M4.5 4.49994H5.5M4.5 6.49994H5.5M4.5 8.49994H5.5M9.5 4.49994H10.5M9.5 6.49994H10.5M9.5 8.49994H10.5" stroke="var(--mw-icon-glyph-content-gray, #616162)" stroke-linecap="square"/>
</svg>
