<svg width="16" height="16" viewBox="0 0 16 16" fill="none" xmlns="http://www.w3.org/2000/svg">
<path d="M3.5 4.5L3.5 14.5C3.5 15.0523 3.94772 15.5 4.5 15.5L14.5 15.5C15.0523 15.5 15.5 15.0523 15.5 14.5L15.5 4.91421C15.5 4.649 15.3946 4.39464 15.2071 4.20711L12.7929 1.79289C12.6054 1.60536 12.351 1.5 12.0858 1.5L6.5 1.5C4.84314 1.5 3.5 2.84315 3.5 4.5Z" fill="var(--mw-icon-background-default-white, #FFFFFF)" stroke="var(--mw-icon-border-default-gray, #616161)"/>
<path d="M13.5 10.5H5.5V13.5H13.5V10.5Z" fill="var(--mw-icon-background-default-selection, #B4DEFF)" stroke="var(--mw-icon-borderColor-light-blue, #268CDD)" stroke-linecap="square" stroke-linejoin="round"/>
<path d="M9.35317 4.89831C9.5182 4.40822 9.66361 3.99844 9.93384 3.64345C10.1967 3.29607 10.5741 3 11.1424 3C11.3686 3 11.5773 3.05517 11.7339 3.15847C11.8922 3.26295 12 3.42014 12 3.61078C12 3.85068 11.7813 4.07729 11.5046 4.07729C11.2811 4.07729 11.0504 3.90733 11.0504 3.64115C11.0504 3.55396 11.0767 3.49199 11.102 3.44705C10.9494 3.44705 10.7979 3.52906 10.6473 3.78943C10.5097 4.02724 10.3881 4.38957 10.2783 4.89831H11.1585L11.0522 5.42129H10.1585L9.59235 7.74228C9.41755 8.45244 9.18757 9.0103 8.89644 9.39346C8.60281 9.77993 8.23694 10 7.79998 10C7.38782 10 7 9.7733 7 9.39681C7 9.15685 7.19467 8.9379 7.46245 8.9379C7.5923 8.9379 7.70956 8.98015 7.7949 9.05887C7.88006 9.13742 7.9249 9.24449 7.9249 9.35885C7.9249 9.44519 7.89029 9.50561 7.87004 9.54089L7.85914 9.56034L7.86584 9.56054C7.96378 9.56054 8.07593 9.50563 8.19582 9.32047C8.31576 9.13523 8.4247 8.8456 8.51811 8.4411L9.2041 5.42129H8.45324L8.57728 4.89831H9.35317Z" fill="#F57729"/>
<path d="M5.16788 2.83338L2.8345 6.33344L1.08447 4.58341V4.00006L5.75122 0.5L5.16788 2.83338Z" fill="#068CFC"/>
<path fill-rule="evenodd" clip-rule="evenodd" d="M5.34008 1.00993L4.25376 3.45058C4.03356 3.94528 3.71522 4.39013 3.31802 4.75816L2.39697 5.61156C2.75766 5.8501 3.06424 6.07955 3.27071 6.43795C3.37532 6.61954 3.59285 7.04464 3.67568 7.20774C3.67568 7.20774 3.89681 7.06278 4.03173 6.93858C4.24501 6.74225 4.75118 6.13023 5.05733 5.70749C5.23675 5.45975 5.4846 5.26768 5.73405 5.13751C6.15949 4.91551 7.07931 5.10222 7.07931 5.10222C6.78971 4.26138 6.39926 3.1041 6.26509 2.61951C6.16347 2.25244 5.6792 1.01173 5.34008 1.00993Z" fill="#F57729"/>
<path d="M2.86052 3.06225C2.86052 3.06225 1.06863 4.26225 0.5 4.47855C0.5 4.47855 1.87096 5.22207 2.30495 5.6487C2.84129 6.17596 3.28478 7.0221 3.57093 7.5008C3.80205 7.28805 4.3593 6.76629 4.74499 6.40954C5.08918 6.09116 5.76896 5.16048 6.47646 5.16048C6.93922 5.16048 7.5 5.60727 7.5 5.60727C7.5 5.60727 6.65475 3.15844 6.48747 2.55421C6.27836 1.79893 5.76625 0.5 5.36456 0.5C4.94081 0.5 4.40705 1.42549 4.26398 1.6808C4.1209 1.93611 3.38542 2.70945 2.86052 3.06225Z" stroke="var(--mw-icon-glyph-content-dark-gray, #333333)" stroke-linecap="round" stroke-linejoin="round"/>
</svg>
