<svg width="16" height="16" viewBox="0 0 16 16" fill="none" xmlns="http://www.w3.org/2000/svg">
<path d="M9.08579 0.5H1.5C0.947715 0.5 0.5 0.947715 0.5 1.5V14.5C0.5 15.0523 0.947715 15.5 1.5 15.5H11.5C12.0523 15.5 12.5 15.0523 12.5 14.5V3.91421C12.5 3.649 12.3946 3.39464 12.2071 3.20711L9.79289 0.792893C9.60536 0.605357 9.351 0.5 9.08579 0.5Z" fill="var(--mw-icon-background-default-white, #FFFFFF)" stroke="var(--mw-icon-border-default-gray, #616161)" stroke-linecap="round"/>
<path d="M14.384 9.52947L11.7367 4.94073C11.6186 4.7387 11.4257 4.59132 11.1997 4.53054C10.9738 4.46975 10.733 4.50045 10.5295 4.61599L5.94073 7.26334C5.7387 7.3814 5.59132 7.57431 5.53054 7.80027C5.46975 8.02623 5.50045 8.26705 5.61599 8.47053L8.26334 13.0593C8.3814 13.2613 8.57431 13.4087 8.80027 13.4695C9.02623 13.5302 9.26705 13.4995 9.47053 13.384L14.0593 10.7367C14.2613 10.6186 14.4087 10.4257 14.4695 10.1997C14.5302 9.97377 14.4995 9.73295 14.384 9.52947Z" fill="var(--mw-icon-background-default-medium-gray, #D9D9D9)" stroke="var(--mw-icon-border-default-gray, #616161)"/>
</svg>
