<svg width="16" height="16" viewBox="0 0 16 16" fill="none" xmlns="http://www.w3.org/2000/svg">
<path d="M9.08579 0.5H1.5C0.947715 0.5 0.5 0.947715 0.5 1.5V14.5C0.5 15.0523 0.947715 15.5 1.5 15.5H11.5C12.0523 15.5 12.5 15.0523 12.5 14.5V3.91421C12.5 3.649 12.3946 3.39464 12.2071 3.20711L9.79289 0.792893C9.60536 0.605357 9.351 0.5 9.08579 0.5Z" fill="var(--mw-icon-background-default-white, #FFFFFF)" stroke="var(--mw-icon-border-default-gray, #616161)" stroke-linecap="round"/>
<path d="M4.5 7.5H12V14.5C12 14.7761 11.7761 15 11.5 15H4.5V7.5Z" fill="var(--mw-icon-background-medium-blue, #83CAFF)"/>
<path d="M4 7H12V8H5L4 7ZM12 15H4.5H12ZM4 15V7L5 8V15H4ZM12 7.5V15V7.5Z" fill="var(--mw-icon-glyph-content-dark-blue, #104280)"/>
<path d="M2.5 6C2.5 5.72386 2.72386 5.5 3 5.5H10C10.2761 5.5 10.5 5.72386 10.5 6V13C10.5 13.2761 10.2761 13.5 10 13.5H3C2.72386 13.5 2.5 13.2761 2.5 13V6Z" fill="white" stroke="var(--mw-icon-glyph-content-dark-blue, #104280)"/>
<path d="M4.5 7.5H6.5M5.5 9.5H7.5M4.5 11.5H6.5" stroke="var(--mw-icon-glyph-content-dark-blue, #104280)" stroke-linecap="square" stroke-linejoin="round"/>
</svg>
