<svg width="16" height="16" viewBox="0 0 16 16" fill="none" xmlns="http://www.w3.org/2000/svg">
<path d="M9.08579 0.5H1.5C0.947715 0.5 0.5 0.947715 0.5 1.5V14.5C0.5 15.0523 0.947715 15.5 1.5 15.5H11.5C12.0523 15.5 12.5 15.0523 12.5 14.5V3.91421C12.5 3.649 12.3946 3.39464 12.2071 3.20711L9.79289 0.792893C9.60536 0.605357 9.351 0.5 9.08579 0.5Z" fill="var(--mw-icon-background-default-white, #FFFFFF)" stroke="var(--mw-icon-border-default-gray, #616161)" stroke-linecap="round"/>
<path d="M4.5 5.5V3.5H8.5V5.5H4.5Z" fill="var(--mw-icon-background-default-selection, #B4DEFF)" stroke="var(--mw-icon-glyph-content-blue, #1656A8)" stroke-linecap="square" stroke-linejoin="round"/>
<path d="M6.5 6.49997V7.49997H4.5V8.49997" stroke="var(--mw-icon-glyph-disabled-gray, #888889)" stroke-linecap="square" stroke-linejoin="round"/>
<path d="M6.5 7.49998H8.5V8.99998" stroke="var(--mw-icon-glyph-disabled-gray, #888889)" stroke-linecap="square" stroke-linejoin="round"/>
<path d="M2.5 11.5V9.5H5.5V11.5H2.5Z" fill="var(--mw-icon-background-default-selection, #B4DEFF)" stroke="var(--mw-icon-glyph-content-blue, #1656A8)" stroke-linecap="square" stroke-linejoin="round"/>
<path d="M7.5 11.5V9.5H10.5V11.5H7.5Z" fill="var(--mw-icon-background-default-selection, #B4DEFF)" stroke="var(--mw-icon-glyph-content-blue, #1656A8)" stroke-linecap="square" stroke-linejoin="round"/>
</svg>
