<svg width="16" height="16" viewBox="0 0 16 16" fill="none" xmlns="http://www.w3.org/2000/svg">
<path d="M9.08579 0.5H1.5C0.947715 0.5 0.5 0.947715 0.5 1.5V14.5C0.5 15.0523 0.947715 15.5 1.5 15.5H11.5C12.0523 15.5 12.5 15.0523 12.5 14.5V3.91421C12.5 3.649 12.3946 3.39464 12.2071 3.20711L9.79289 0.792893C9.60536 0.605357 9.351 0.5 9.08579 0.5Z" fill="var(--mw-icon-background-default-white, #FFFFFF)" stroke="var(--mw-icon-border-default-gray, #616161)" stroke-linecap="round"/>
<path d="M4 12H8V13H4V12Z" fill="var(--mw-icon-glyph-content-gray, #616162)"/>
<path d="M9 12H11V13H9V12Z" fill="var(--mw-icon-glyph-content-gray, #616162)"/>
<circle cx="2.5" cy="12.5" r="0.5" fill="var(--mw-icon-glyph-content-green, #008014)"/>
<path d="M2.5 7C3.83333 4.86667 5.16667 4.86667 6.5 7C7.83333 9.13333 9.16667 9.13333 10.5 7" stroke="#0072BD" stroke-linecap="round"/>
<path d="M2.5 3.5V3C2.22386 3 2 3.22386 2 3.5H2.5ZM10.5 3.5H11C11 3.22386 10.7761 3 10.5 3V3.5ZM10.5 10.5V11C10.7761 11 11 10.7761 11 10.5H10.5ZM2.5 10.5H2C2 10.7761 2.22386 11 2.5 11V10.5ZM2.5 4H10.5V3H2.5V4ZM10 3.5V10.5H11V3.5H10ZM10.5 10H2.5V11H10.5V10ZM3 10.5V3.5H2V10.5H3Z" fill="var(--mw-icon-glyph-content-gray, #616162)"/>
</svg>
