<svg width="16" height="16" viewBox="0 0 16 16" fill="none" xmlns="http://www.w3.org/2000/svg">
<path d="M0.5 12.5V2.5C0.5 1.39543 1.39543 0.5 2.5 0.5H12.5C13.6046 0.5 14.5 1.39543 14.5 2.5V12.5C14.5 13.6046 13.6046 14.5 12.5 14.5H2.5C1.39543 14.5 0.5 13.6046 0.5 12.5Z" fill="var(--mw-icon-background-default-white, #FFFFFF)"/>
<path d="M5.5 12.5C6.3 12.5 7.5 10.8137 7.5 7.5C7.5 4.18629 6.39998 2.5 5.59998 2.5H11.5C11.5 2.5 10 4.1 10 7.5C10 10.9 11.5 12.5 11.5 12.5H5.5Z" fill="var(--mw-icon-background-default-selection, #B4DEFF)"/>
<path d="M5.5 12C5.22386 12 5 12.2239 5 12.5C5 12.7761 5.22386 13 5.5 13V12ZM5.59998 2C5.32383 2 5.09998 2.22386 5.09998 2.5C5.09998 2.77614 5.32383 3 5.59998 3V2ZM11.5 2.5L11.8648 2.84197C12.0011 2.69657 12.038 2.48411 11.9588 2.30124C11.8796 2.11836 11.6993 2 11.5 2V2.5ZM11.5 12.5V13C11.6993 13 11.8796 12.8816 11.9588 12.6988C12.038 12.5159 12.0011 12.3034 11.8648 12.158L11.5 12.5ZM7 7.5C7 9.10056 6.70964 10.2732 6.34899 11.0268C6.16817 11.4046 5.9767 11.6626 5.80896 11.8191C5.63488 11.9815 5.5261 12 5.5 12V13C5.8739 13 6.21512 12.8077 6.49104 12.5504C6.7733 12.2871 7.03183 11.9165 7.25101 11.4585C7.69036 10.5405 8 9.21314 8 7.5H7ZM5.59998 3C5.62244 3 5.72286 3.01516 5.88562 3.17357C6.04362 3.32734 6.22389 3.58336 6.3938 3.96204C6.7327 4.71735 7 5.89361 7 7.5H8C8 5.79268 7.71729 4.46894 7.30617 3.55268C7.10108 3.09558 6.85635 2.72291 6.58309 2.45695C6.31459 2.19563 5.97751 2 5.59998 2V3ZM5.59998 3H11.5V2H5.59998V3ZM11.5 12H5.5V13H11.5V12ZM11.5 2.5C11.1352 2.15803 11.135 2.15822 11.1349 2.15843C11.1348 2.1585 11.1346 2.15871 11.1345 2.15886C11.1342 2.15916 11.1339 2.15949 11.1335 2.15984C11.1329 2.16055 11.1321 2.16135 11.1313 2.16226C11.1296 2.16407 11.1276 2.16628 11.1252 2.1689C11.1205 2.17413 11.1144 2.18098 11.107 2.18944C11.0921 2.20638 11.0722 2.2298 11.0478 2.25975C10.999 2.31967 10.9326 2.40578 10.8545 2.51852C10.6984 2.744 10.4957 3.07612 10.2948 3.5181C9.89227 4.4037 9.5 5.72397 9.5 7.5H10.5C10.5 5.87603 10.8577 4.6963 11.2052 3.9319C11.3793 3.54888 11.5516 3.2685 11.6767 3.08773C11.7393 2.99734 11.7901 2.93189 11.8233 2.89103C11.84 2.8706 11.8522 2.85632 11.8594 2.84815C11.8629 2.84407 11.8652 2.84152 11.8662 2.84049C11.8666 2.83998 11.8667 2.83984 11.8665 2.84009C11.8664 2.84021 11.8662 2.84043 11.8659 2.84074C11.8658 2.8409 11.8656 2.84108 11.8654 2.84129C11.8653 2.84139 11.8652 2.84156 11.8651 2.84161C11.8649 2.84179 11.8648 2.84197 11.5 2.5ZM9.5 7.5C9.5 9.27603 9.89227 10.5963 10.2948 11.4819C10.4957 11.9239 10.6984 12.256 10.8545 12.4815C10.9326 12.5942 10.999 12.6803 11.0478 12.7402C11.0722 12.7702 11.0921 12.7936 11.107 12.8106C11.1144 12.819 11.1205 12.8259 11.1252 12.8311C11.1276 12.8337 11.1296 12.8359 11.1313 12.8377C11.1321 12.8386 11.1329 12.8395 11.1335 12.8402C11.1339 12.8405 11.1342 12.8408 11.1345 12.8411C11.1346 12.8413 11.1348 12.8415 11.1349 12.8416C11.135 12.8418 11.1352 12.842 11.5 12.5C11.8648 12.158 11.8649 12.1582 11.8651 12.1584C11.8652 12.1584 11.8653 12.1586 11.8654 12.1587C11.8656 12.1589 11.8658 12.1591 11.8659 12.1593C11.8662 12.1596 11.8664 12.1598 11.8665 12.1599C11.8667 12.1602 11.8666 12.16 11.8662 12.1595C11.8652 12.1585 11.8629 12.1559 11.8594 12.1518C11.8522 12.1437 11.84 12.1294 11.8233 12.109C11.7901 12.0681 11.7393 12.0027 11.6767 11.9123C11.5516 11.7315 11.3793 11.4511 11.2052 11.0681C10.8577 10.3037 10.5 9.12397 10.5 7.5H9.5Z" fill="var(--mw-icon-glyph-content-light-blue, #278CDD)"/>
<path d="M7.5 7.5C7.5 10.8137 6.3 12.5 5.5 12.5C4.7 12.5 3.5 10.8137 3.5 7.5C3.5 4.18629 4.7 2.5 5.5 2.5C6.3 2.5 7.5 4.18629 7.5 7.5Z" fill="var(--mw-icon-background-default-selection, #B4DEFF)" stroke="var(--mw-icon-glyph-content-light-blue, #278CDD)"/>
<path d="M0.5 13.5V1.5C0.5 0.947715 0.947716 0.5 1.5 0.5H13.5C14.0523 0.5 14.5 0.947716 14.5 1.5V13.5C14.5 14.0523 14.0523 14.5 13.5 14.5H1.5C0.947715 14.5 0.5 14.0523 0.5 13.5Z" stroke="var(--mw-icon-border-default-gray, #616161)" stroke-linecap="round"/>
</svg>
