<svg width="16" height="16" viewBox="0 0 16 16" fill="none" xmlns="http://www.w3.org/2000/svg">
<path d="M10.5 12.5V3.55663C10.5 3.26661 10.3741 2.99088 10.1549 2.80094L7.7819 0.744311C7.60008 0.58674 7.36756 0.5 7.12697 0.5H1.5C0.947715 0.5 0.5 0.947715 0.5 1.5V12.5C0.5 13.0523 0.947715 13.5 1.5 13.5H9.5C10.0523 13.5 10.5 13.0523 10.5 12.5Z" fill="var(--mw-icon-background-default-white, #FFFFFF)" stroke="var(--mw-icon-border-default-gray, #616161)" stroke-linecap="round"/>
<path d="M2.5 3.5H8.5V9.5H2.5V3.5Z" fill="var(--mw-icon-background-light-yellow, #FFF5BC)" stroke="var(--mw-icon-glyph-content-blue, #1656A8)" stroke-linejoin="round"/>
<path d="M3.5 6.5H7.5M5.49999 4.5L5.49999 8.5" stroke="var(--mw-icon-glyph-content-light-blue, #278CDD)" stroke-linecap="square"/>
<path d="M11.5 5.5H8.5V8.5H5.5L10 14.5L14.5 8.5H11.5V5.5Z" fill="var(--mw-icon-background-default-action, #CBFFBE)"/>
<path d="M11.5 5.5H8.5V8.5H5.5L10 14.5L14.5 8.5H11.5V5.5Z" stroke="var(--mw-icon-glyph-content-green, #008014)"/>
</svg>
