<svg width="16" height="16" viewBox="0 0 16 16" fill="none" xmlns="http://www.w3.org/2000/svg">
<path d="M9.5 3C12.7609 3 15.5 4.54348 15.5 6.5C15.5 8.45652 11.4783 8.19565 10.5 9.5C9.52174 10.8043 9.76087 12.5 6.5 12.5C5.25 12.5 0.5 12.7609 0.5 9.5C0.5 7.80819 3.41934 8.63444 5 6C6.25 3.91667 6.8913 3 9.5 3Z" fill="var(--mw-icon-background-medium-blue, #83CAFF)"/>
<path d="M6.5 12.5C5.25 12.5 0.5 12.7609 0.5 9.5C0.5 7.80819 3.41934 8.63444 5 6C6.25 3.91667 6.8913 3 9.5 3C12.7609 3 15.5 4.54348 15.5 6.5C15.5 8.45652 11.4783 8.19565 10.5 9.5" stroke="var(--mw-icon-object-primary, #616160)" stroke-linecap="round" stroke-linejoin="round"/>
</svg>
