<svg width="16" height="16" viewBox="0 0 16 16" fill="none" xmlns="http://www.w3.org/2000/svg">
<path d="M9.5 3C12.7609 3 15.5 4.54348 15.5 6.5C15.5 8.45652 11.4783 8.19565 10.5 9.5C9.52174 10.8043 9.76087 12.5 6.5 12.5C5.25 12.5 0.5 12.7609 0.5 9.5C0.5 7.80819 3.41934 8.63444 5 6C6.25 3.91667 6.8913 3 9.5 3Z" fill="var(--mw-icon-background-medium-blue, #83CAFF)"/>
<path d="M8 8C8 8.55228 7.55228 9 7 9C6.44772 9 6 8.55228 6 8C6 7.44772 6.44772 7 7 7C7.55228 7 8 7.44772 8 8Z" fill="#0072BD"/>
<path d="M10 6C10 6.55228 9.55228 7 9 7C8.44772 7 8 6.55228 8 6C8 5.44772 8.44772 5 9 5C9.55228 5 10 5.44772 10 6Z" fill="#0072BD"/>
<path d="M10 8C10 8.55228 9.55228 9 9 9C8.44772 9 8 8.55228 8 8C8 7.44772 8.44772 7 9 7C9.55228 7 10 7.44772 10 8Z" fill="#0072BD"/>
<path d="M5 10C5 10.5523 4.55228 11 4 11C3.44772 11 3 10.5523 3 10C3 9.44772 3.44772 9 4 9C4.55228 9 5 9.44772 5 10Z" fill="var(--mw-icon-background-lightest-blue, #E2F0FF)"/>
<path d="M14 6C14 6.55228 13.5523 7 13 7C12.4477 7 12 6.55228 12 6C12 5.44772 12.4477 5 13 5C13.5523 5 14 5.44772 14 6Z" fill="var(--mw-icon-background-lightest-blue, #E2F0FF)"/>
<path d="M6.5 12.5C5.25 12.5 0.5 12.7609 0.5 9.5C0.5 7.80819 3.41934 8.63444 5 6C6.25 3.91667 6.8913 2.5 9.5 2.5C12.7609 2.5 15.5 4.54348 15.5 6.5C15.5 8.45652 11.4783 8.19565 10.5 9.5" stroke="var(--mw-icon-object-primary, #616160)" stroke-linecap="square" stroke-linejoin="round"/>
</svg>
