<svg width="16" height="16" viewBox="0 0 16 16" fill="none" xmlns="http://www.w3.org/2000/svg">
<path d="M1 3.5C1 2.39543 1.89543 1.5 3 1.5H13C14.1046 1.5 15 2.39543 15 3.5V13.5C15 14.6046 14.1046 15.5 13 15.5H3C1.89543 15.5 1 14.6046 1 13.5V3.5Z" fill="#00A3A3"/>
<path d="M1 4.5H14" stroke="var(--mw-icon-background-default-white, #FFFFFF)"/>
<path d="M7.5 4V2M9.5 4V3" stroke="white"/>
<path d="M5.5 4V3" stroke="white"/>
<path d="M3.5 4.5V6M10.5 4.5V6" stroke="white"/>
<path d="M2.5 4V3" stroke="white"/>
<path d="M13 3.5H12" stroke="white"/>
<path d="M0.5 7.5C0.5 7.5 1.5 9.5 2.5 9.5C3.5 9.5 3.39543 7.5 4.5 7.5C5.60457 7.5 5.39543 9.5 6.5 9.5C7.60457 9.5 7.39543 7.5 8.5 7.5C9.60457 7.5 9.39543 9.5 10.5 9.5C11.6046 9.5 11.3954 7.5 12.5 7.5C13.6046 7.5 14.5 9.5 14.5 9.5" stroke="white"/>
<path d="M2.5 12.5V11.5M2.5 12.5H4.5M2.5 12.5V13.5M4.5 12.5V11.5M4.5 12.5V13.5" stroke="white" stroke-linecap="square" stroke-linejoin="round"/>
<path d="M6.5 13.5V11.5H7.5C8.05228 11.5 8.5 11.9477 8.5 12.5C8.5 13.0523 8.05228 13.5 7.5 13.5H6.5Z" stroke="white"/>
<path d="M10.5 11V13.5H13" stroke="white" stroke-linejoin="round"/>
<path d="M0.5 3.5C0.5 2.39543 1.39543 1.5 2.5 1.5H12.5C13.6046 1.5 14.5 2.39543 14.5 3.5V13.5C14.5 14.6046 13.6046 15.5 12.5 15.5H2.5C1.39543 15.5 0.5 14.6046 0.5 13.5V3.5Z" stroke="#02555C"/>
</svg>
