<svg width="16" height="16" viewBox="0 0 16 16" fill="none" xmlns="http://www.w3.org/2000/svg">
<path d="M0.5 1.5C0.5 0.947715 0.947715 0.5 1.5 0.5H14.5C15.0523 0.5 15.5 0.947715 15.5 1.5V14.5C15.5 15.0523 15.0523 15.5 14.5 15.5H1.5C0.947715 15.5 0.5 15.0523 0.5 14.5V1.5Z" fill="var(--mw-icon-background-default-white, #FFFFFF)" stroke="var(--mw-icon-border-default-gray, #616161)"/>
<path d="M9.18198 11.182C8.45677 11.9072 7.50951 12.3593 6.5 12.4722L6.5 3.52785C7.50951 3.64069 8.45677 4.09281 9.18198 4.81802C10.0259 5.66193 10.5 6.80653 10.5 8C10.5 9.19347 10.0259 10.3381 9.18198 11.182Z" stroke="var(--mw-icon-glyph-content-gray, #616162)"/>
</svg>
