<svg width="16" height="16" viewBox="0 0 16 16" fill="none" xmlns="http://www.w3.org/2000/svg">
<path d="M0.5 12.5V2.5C0.5 1.39543 1.39543 0.5 2.5 0.5H12.5C13.6046 0.5 14.5 1.39543 14.5 2.5V12.5C14.5 13.6046 13.6046 14.5 12.5 14.5H2.5C1.39543 14.5 0.5 13.6046 0.5 12.5Z" fill="var(--mw-icon-background-default-white, white)"/>
<path d="M1 2.5H14" stroke="var(--mw-icon-background-default-medium-gray, #D9D9D9)" stroke-linecap="square"/>
<path d="M1 5.5H14" stroke="var(--mw-icon-background-default-medium-gray, #D9D9D9)" stroke-linecap="square"/>
<path d="M1 11.5H14" stroke="var(--mw-icon-background-default-medium-gray, #D9D9D9)" stroke-linecap="square"/>
<path d="M1 8.5H14" stroke="var(--mw-icon-background-default-medium-gray, #D9D9D9)" stroke-linecap="square"/>
<path d="M12.5 1L12.5 14" stroke="var(--mw-icon-background-default-medium-gray, #D9D9D9)" stroke-linecap="square"/>
<path d="M9.5 1L9.5 14" stroke="var(--mw-icon-background-default-medium-gray, #D9D9D9)" stroke-linecap="square"/>
<path d="M3.5 1L3.5 14" stroke="var(--mw-icon-background-default-medium-gray, #D9D9D9)" stroke-linecap="square"/>
<path d="M6.5 1L6.5 14" stroke="var(--mw-icon-background-default-medium-gray, #D9D9D9)" stroke-linecap="square"/>
<path d="M2.5 11.5V12.5H4.5M12.5 11.5V12.5H10.5M4.5 12.5V11.5M4.5 12.5H6.5M6.5 12.5V11.5M6.5 12.5H8.5M8.5 12.5V11.5M8.5 12.5H10.5M10.5 12.5V11.5" stroke="var(--mw-icon-border-default-green, #008013)" stroke-linecap="square"/>
<path d="M2.5 9.5L4.5 4.5L6.5 7.5L8.5 2.5L10.5 9.5L12.5 3.5" stroke="var(--mw-icon-glyph-content-dark-blue, #104280)" stroke-linecap="round" stroke-linejoin="round"/>
<path d="M0.5 12.5V2.5C0.5 1.39543 1.39543 0.5 2.5 0.5H12.5C13.6046 0.5 14.5 1.39543 14.5 2.5V12.5C14.5 13.6046 13.6046 14.5 12.5 14.5H2.5C1.39543 14.5 0.5 13.6046 0.5 12.5Z" stroke="#3AC831" stroke-linecap="round"/>

</svg>
