<svg width="16" height="16" viewBox="0 0 16 16" fill="none" xmlns="http://www.w3.org/2000/svg">
<path d="M10.5 0.5H1.5C0.947715 0.5 0.5 0.947715 0.5 1.5V10.5C0.5 11.0523 0.947715 11.5 1.5 11.5H10.5C11.0523 11.5 11.5 11.0523 11.5 10.5V1.5C11.5 0.947715 11.0523 0.5 10.5 0.5Z" fill="var(--mw-icon-background-default-white, #FFFFFF)" stroke="var(--mw-icon-border-default-gray, #616161)" stroke-linecap="round"/>
<path d="M9.27585 8.91979C9.23603 8.83422 9.20368 8.68182 9.1788 8.46257C8.85778 8.82086 8.47456 9 8.02912 9C7.63096 9 7.30372 8.87968 7.04741 8.63904C6.79358 8.39572 6.66667 8.08824 6.66667 7.71658C6.66667 7.26471 6.82593 6.91444 7.14446 6.66578C7.46547 6.41444 7.91589 6.28877 8.49571 6.28877H9.1676V5.94786C9.1676 5.6885 9.09543 5.48262 8.9511 5.33021C8.80677 5.17513 8.594 5.09759 8.3128 5.09759C8.06644 5.09759 7.8599 5.16444 7.69317 5.29813C7.52644 5.43182 7.44308 5.59358 7.44308 5.78342H6.74879C6.74879 5.56684 6.81971 5.35829 6.96155 5.15775C7.10589 4.95455 7.29999 4.79412 7.54386 4.67647C7.79022 4.55882 8.06022 4.5 8.35386 4.5C8.81921 4.5 9.18378 4.62567 9.44756 4.87701C9.71134 5.12567 9.8482 5.46925 9.85816 5.90775V7.90508C9.85816 8.30348 9.90544 8.62032 10 8.85561V8.91979H9.27585ZM8.1299 8.35428C8.3464 8.35428 8.5517 8.29412 8.7458 8.1738C8.9399 8.05348 9.0805 7.89706 9.1676 7.70455V6.81417H8.62635C7.78027 6.81417 7.35722 7.08021 7.35722 7.6123C7.35722 7.84492 7.42939 8.02674 7.57372 8.15775C7.71805 8.28877 7.90345 8.35428 8.1299 8.35428Z" fill="var(--mw-icon-glyph-content-gray, #616162)"/>
<path d="M5.44262 7.43407H3.2204L2.72131 9H2L4.0255 3H4.63752L6.66667 9H5.949L5.44262 7.43407ZM3.43169 6.78297H5.23497L4.33151 3.97665L3.43169 6.78297Z" fill="var(--mw-icon-glyph-content-gray, #616162)"/>
<path d="M13.5 11.5L11.5 9.5L13.5 7.5L15.5 9.5L13.5 11.5Z" fill="var(--mw-icon-background-red, #FF9D9A)" stroke="var(--mw-icon-border-default-red, #902622)" stroke-linejoin="round"/>
<path d="M13.5 11.5L9.5 15.5H7.5V13.5L11.5 9.5L13.5 11.5Z" fill="var(--mw-icon-background-default-highlight, #FFE864)" stroke="#674C06" stroke-linejoin="round"/>
</svg>
