<svg width="16" height="16" viewBox="0 0 16 16" fill="none" xmlns="http://www.w3.org/2000/svg">
<path d="M12.5 9.5V3.5L6.5 6.50001V12.5L12.5 9.5Z" fill="var(--mw-icon-background-default-action, #CBFFBE)"/>
<path d="M12.5 3.5L6.5 0.5V6.5L12.5 3.5Z" fill="var(--mw-icon-background-medium-yellow, #FFEF91)"/>
<path d="M0.5 3.5L6.5 0.5V12.5L0.5 9.5V3.5Z" fill="var(--mw-icon-background-default-medium-gray, #D9D9D9)"/>
<path d="M6.5 0.5L0.5 3.5M0.5 3.5V9.5L6.5 12.5V6.5L0.5 3.5Z" stroke="var(--mw-icon-border-default-gray, #616161)" stroke-linecap="round" stroke-linejoin="round"/>
<path d="M6.5 0.5L12.5 3.5" stroke="#674C06" stroke-linecap="round" stroke-linejoin="round"/>
<path d="M12.5 9.5V3.5L6.5 6.5V12.5L12.5 9.5Z" stroke="var(--mw-icon-glyph-content-green, #008014)" stroke-linecap="round" stroke-linejoin="round"/>
<path d="M13.5 11.5L11.5 9.5L13.5 7.5L15.5 9.5L13.5 11.5Z" fill="var(--mw-icon-background-red, #FF9D9A)" stroke="var(--mw-icon-border-default-red, #902622)" stroke-linejoin="round"/>
<path d="M13.5 11.5L9.5 15.5H7.5V13.5L11.5 9.5L13.5 11.5Z" fill="var(--mw-icon-background-default-highlight, #FFE864)" stroke="#674C06" stroke-linejoin="round"/>
</svg>
