<svg width="16" height="16" viewBox="0 0 16 16" fill="none" xmlns="http://www.w3.org/2000/svg">
<rect x="0.5" y="0.5" width="12" height="12" rx="1" fill="var(--mw-icon-background-default-white, #FFFFFF)"/>
<path d="M1 12C3 12 12.5 3.5 12.5 1.5" stroke="var(--mw-icon-glyph-content-light-blue, #278CDD)" stroke-linecap="round"/>
<path d="M5 6C5 5.44772 5.44772 5 6 5C6.55228 5 7 5.44772 7 6C7 6.55228 6.55228 7 6 7C5.44772 7 5 6.55228 5 6Z" fill="var(--mw-icon-glyph-content-dark-gray, #333333)"/>
<path d="M8 3C8 2.44772 8.44772 2 9 2C9.55228 2 10 2.44772 10 3C10 3.55228 9.55228 4 9 4C8.44772 4 8 3.55228 8 3Z" fill="var(--mw-icon-glyph-content-dark-gray, #333333)"/>
<path d="M10 7C10 6.44772 10.4477 6 11 6C11.5523 6 12 6.44772 12 7C12 7.55228 11.5523 8 11 8C10.4477 8 10 7.55228 10 7Z" fill="var(--mw-icon-glyph-content-dark-gray, #333333)"/>
<path d="M2 8C2 7.44772 2.44772 7 3 7C3.55228 7 4 7.44772 4 8C4 8.55228 3.55228 9 3 9C2.44772 9 2 8.55228 2 8Z" fill="var(--mw-icon-glyph-content-dark-gray, #333333)"/>
<path d="M6 11C6 10.4477 6.44772 10 7 10C7.55228 10 8 10.4477 8 11C8 11.5523 7.55228 12 7 12C6.44772 12 6 11.5523 6 11Z" fill="var(--mw-icon-glyph-content-dark-gray, #333333)"/>
<path d="M8 9C8 8.44772 8.44772 8 9 8C9.55228 8 10 8.44772 10 9C10 9.55228 9.55228 10 9 10C8.44772 10 8 9.55228 8 9Z" fill="var(--mw-icon-glyph-content-dark-gray, #333333)"/>
<rect x="0.5" y="0.5" width="12" height="12" rx="1" stroke="var(--mw-icon-border-default-gray, #616161)"/>
<path d="M13.5 11.5L11.5 9.5L13.5 7.5L15.5 9.5L13.5 11.5Z" fill="var(--mw-icon-background-red, #FF9D9A)" stroke="var(--mw-icon-border-default-red, #902622)" stroke-linejoin="round"/>
<path d="M13.5 11.5L9.5 15.5H7.5V13.5L11.5 9.5L13.5 11.5Z" fill="var(--mw-icon-background-default-highlight, #FFE864)" stroke="#674C06" stroke-linejoin="round"/>
</svg>
