<svg width="16" height="16" viewBox="0 0 16 16" fill="none" xmlns="http://www.w3.org/2000/svg">
<path d="M0.5 5C0.5 4.72386 0.723858 4.5 1 4.5H15C15.2761 4.5 15.5 4.72386 15.5 5V10C15.5 10.2761 15.2761 10.5 15 10.5H1C0.723858 10.5 0.5 10.2761 0.5 10V5Z" fill="var(--mw-icon-background-default-light-gray, #F5F5F5)" stroke="var(--mw-icon-border-default-gray, #616161)"/>
<path d="M11 5H6V10H11V5Z" fill="var(--mw-icon-background-default-selection, #B4DEFF)"/>
<path d="M10 6H7V7H8V8H7V9H10V6Z" fill="var(--mw-icon-glyph-content-blue, #1656A8)"/>
<path d="M3 6L3 9H2L2 6H3Z" fill="var(--mw-icon-glyph-content-gray, #616162)"/>
<path d="M6 7H4V6H6V7Z" fill="var(--mw-icon-glyph-content-gray, #616162)"/>
<path d="M4 9H6V8H4V9Z" fill="var(--mw-icon-glyph-content-gray, #616162)"/>
<path d="M5 2H4V3H5V12H4V13H5V12H6V13H7V12H6V3H7V2H6V3H5V2Z" fill="var(--mw-icon-glyph-content-light-blue, #278CDD)"/>
</svg>
