<svg width="16" height="16" viewBox="0 0 16 16" fill="none" xmlns="http://www.w3.org/2000/svg">
<path d="M7.5 4.5H1.5C0.947715 4.5 0.5 4.94772 0.5 5.5V11.5C0.5 12.0523 0.947715 12.5 1.5 12.5H4.5H7.5C8.05228 12.5 8.5 12.0523 8.5 11.5V8.5V5.5C8.5 4.94772 8.05228 4.5 7.5 4.5Z" fill="var(--mw-icon-object-secondary, #FFFFFE)" stroke="var(--mw-icon-object-primary, #616160)"/>
<path d="M11.5 0.5H5.5C4.94772 0.5 4.5 0.947715 4.5 1.5V7.5C4.5 8.05228 4.94772 8.5 5.5 8.5H8.5H11.5C12.0523 8.5 12.5 8.05228 12.5 7.5V4.5V1.5C12.5 0.947715 12.0523 0.5 11.5 0.5Z" fill="var(--mw-icon-object-primary, #616160)" stroke="var(--mw-icon-object-primary, #616160)"/>
<path d="M13.5 11.5L11.5 9.5L13.5 7.5L15.5 9.5L13.5 11.5Z" stroke="var(--mw-icon-object-primary, #616160)" stroke-linejoin="round"/>
<path d="M13.5 11.5L9.5 15.5H7.5V13.5L11.5 9.5L13.5 11.5Z" stroke="var(--mw-icon-object-primary, #616160)" stroke-linejoin="round"/>
</svg>
