<svg width="16" height="16" viewBox="0 0 16 16" fill="none" xmlns="http://www.w3.org/2000/svg">
<circle cx="6.5" cy="6.5" r="1.5" fill="var(--mw-icon-object-primary, #616160)"/>
<path d="M11.5 3.5C11.5 3.5 12.5 4.60544 12.5 6.50018C12.5 8.39492 11.5 9.5 11.5 9.5M1.5 3.5C1.5 3.5 0.5 4.60544 0.5 6.50018C0.5 8.39492 1.5 9.5 1.5 9.5M4.0196 5C3.76324 5.34256 3.5 5.85211 3.5 6.50019C3.5 7.14828 3.76324 7.65782 4.0196 8.00038M8.98039 5C9.23675 5.34256 9.5 5.85211 9.5 6.50021C9.5 7.1483 9.23675 7.65784 8.98039 8.0004" stroke="var(--mw-icon-object-primary, #616160)" stroke-linecap="square" stroke-linejoin="round"/>
<path d="M13.5 11.5L11.5 9.5L13.5 7.5L15.5 9.5L13.5 11.5Z" fill="var(--mw-icon-background-red, #FF9D9A)" stroke="var(--mw-icon-border-default-red, #902622)" stroke-linejoin="round"/>
<path d="M13.5 11.5L9.5 15.5H7.5V13.5L11.5 9.5L13.5 11.5Z" fill="var(--mw-icon-background-default-highlight, #FFE864)" stroke="#674C06" stroke-linejoin="round"/>
</svg>
