<svg width="16" height="16" viewBox="0 0 16 16" fill="none" xmlns="http://www.w3.org/2000/svg">
<path d="M0.5 2.5C0.5 1.39543 1.39543 0.5 2.5 0.5H10.5C11.6046 0.5 12.5 1.39543 12.5 2.5V10.5C12.5 11.6046 11.6046 12.5 10.5 12.5H2.5C1.39543 12.5 0.5 11.6046 0.5 10.5V2.5Z" fill="var(--mw-icon-background-default-white, #FFFFFF)"/>
<path d="M12.3889 9.19859C10.4259 11.5873 8.46292 10.6877 6.49993 6.5C4.54563 2.33083 2.59133 1.42078 0.637035 3.76985" stroke="var(--mw-icon-glyph-content-light-blue, #278CDD)" stroke-linecap="round" stroke-linejoin="round"/>
<circle cx="8" cy="9" r="1.5" fill="white" stroke="var(--mw-icon-glyph-content-light-blue, #278CDD)"/>
<circle cx="5" cy="4" r="1.5" fill="var(--mw-icon-glyph-content-light-blue, #278CDD)" stroke="var(--mw-icon-glyph-content-light-blue, #278CDD)"/>
<path d="M0.5 1.5C0.5 0.947715 0.947715 0.5 1.5 0.5H11.5C12.0523 0.5 12.5 0.947715 12.5 1.5V11.5C12.5 12.0523 12.0523 12.5 11.5 12.5H1.5C0.947715 12.5 0.5 12.0523 0.5 11.5V1.5Z" stroke="var(--mw-icon-border-default-gray, #616161)" stroke-linejoin="round"/>
<path d="M13.5 11.5L11.5 9.5L13.5 7.5L15.5 9.5L13.5 11.5Z" fill="var(--mw-icon-background-red, #FF9D9A)" stroke="var(--mw-icon-border-default-red, #902622)" stroke-linejoin="round"/>
<path d="M13.5 11.5L9.5 15.5H7.5V13.5L11.5 9.5L13.5 11.5Z" fill="var(--mw-icon-background-default-highlight, #FFE864)" stroke="#674C06" stroke-linejoin="round"/>
</svg>
