<svg width="16" height="16" viewBox="0 0 16 16" fill="none" xmlns="http://www.w3.org/2000/svg">
<path d="M0.5 3.5L6.5 0.5L12.5 3.5V9.5L6.5 12.5L0.5 9.5V3.5Z" fill="var(--mw-icon-background-default-white, #FFFFFF)"/>
<path d="M6.5 0.5L12.5 3.5V9.5L6.5 6.5V0.5Z" fill="var(--mw-icon-background-default-light-gray, #F5F5F5)"/>
<path d="M6.5 0.5L0.5 3.5V9.5L6.5 6.5V0.5Z" fill="var(--mw-icon-background-default-medium-gray, #D9D9D9)"/>
<path d="M5 8.5L2.5 8L4 5.5L7.5 3.5L10.5 7.5L8.5 8.5L7.5 10.5L5 8.5Z" fill="var(--mw-icon-background-default-selection, #B4DEFF)"/>
<path d="M7.5 3.5L10.5 7.5L8.5 8.5M7.5 3.5L5.5 5.5M7.5 3.5L4 5.5M5 8.5L2.5 8L4 5.5M5 8.5L7.5 10.5L8.5 8.5M5 8.5L5.5 5.5M5.5 5.5H4M5.5 5.5L8.5 8.5" stroke="var(--mw-icon-glyph-content-light-blue, #278CDD)" stroke-linecap="round" stroke-linejoin="round"/>
<rect x="9" y="10" width="1" height="1" rx="0.5" fill="var(--mw-icon-glyph-content-dark-gray, #333333)"/>
<rect x="7" y="10" width="1" height="1" rx="0.5" fill="var(--mw-icon-glyph-content-dark-gray, #333333)"/>
<rect x="5" y="10" width="1" height="1" rx="0.5" fill="var(--mw-icon-glyph-content-dark-gray, #333333)"/>
<rect x="3" y="9" width="1" height="1" rx="0.5" fill="var(--mw-icon-glyph-content-dark-gray, #333333)"/>
<rect x="2" y="5" width="1" height="1" rx="0.5" fill="var(--mw-icon-glyph-content-dark-gray, #333333)"/>
<rect x="3" y="4" width="1" height="1" rx="0.5" fill="var(--mw-icon-glyph-content-dark-gray, #333333)"/>
<rect x="4" y="3" width="1" height="1" rx="0.5" fill="var(--mw-icon-glyph-content-dark-gray, #333333)"/>
<rect x="6" y="2" width="1" height="1" rx="0.5" fill="var(--mw-icon-glyph-content-dark-gray, #333333)"/>
<rect x="6.5" y="7.5" width="1" height="1" rx="0.5" fill="var(--mw-icon-glyph-content-dark-gray, #333333)"/>
<rect x="4" y="6" width="1" height="1" rx="0.5" fill="var(--mw-icon-glyph-content-dark-gray, #333333)"/>
<rect x="8" y="4" width="1" height="1" rx="0.5" fill="var(--mw-icon-glyph-content-dark-gray, #333333)"/>
<rect x="10" y="5" width="1" height="1" rx="0.5" fill="var(--mw-icon-glyph-content-dark-gray, #333333)"/>
<rect x="7" y="5" width="1" height="1" rx="0.5" fill="var(--mw-icon-glyph-content-dark-gray, #333333)"/>
<path d="M0.5 3.5L6.5 0.5L12.5 3.5V9.5" stroke="var(--mw-icon-background-default-dark-gray, #A6A6A6)" stroke-linecap="round" stroke-linejoin="round"/>
<path d="M0.5 3.5V9.5L6.5 12.5L12.5 9.5" stroke="var(--mw-icon-border-default-gray, #616161)" stroke-linecap="round" stroke-linejoin="round"/>
<path d="M13.5 11.5L11.5 9.5L13.5 7.5L15.5 9.5L13.5 11.5Z" fill="var(--mw-icon-background-red, #FF9D9A)" stroke="var(--mw-icon-border-default-red, #902622)" stroke-linejoin="round"/>
<path d="M13.5 11.5L9.5 15.5H7.5V13.5L11.5 9.5L13.5 11.5Z" fill="var(--mw-icon-background-default-highlight, #FFE864)" stroke="#674C06" stroke-linejoin="round"/>
</svg>
