<svg width="16" height="16" viewBox="0 0 16 16" fill="none" xmlns="http://www.w3.org/2000/svg">
<rect x="0.5" y="0.5" width="12" height="12" rx="2" fill="var(--mw-icon-background-default-light-gray, #F5F5F5)"/>
<path d="M2.5 12L3.5 7.5L9.5 3.5" stroke="#6582FD" stroke-linecap="square" stroke-linejoin="round"/>
<path d="M5 7.5C5 8.32843 4.32843 9 3.5 9C2.67157 9 2 8.32843 2 7.5C2 6.67157 2.67157 6 3.5 6C4.32843 6 5 6.67157 5 7.5Z" fill="#0E00FF"/>
<path d="M11 3.5C11 4.32843 10.3284 5 9.5 5C8.67157 5 8 4.32843 8 3.5C8 2.67157 8.67157 2 9.5 2C10.3284 2 11 2.67157 11 3.5Z" fill="#0E00FF"/>
<rect x="0.5" y="0.5" width="12" height="12" rx="2" stroke="var(--mw-icon-border-default-gray, #616161)"/>
<path d="M13.5 11.5L11.5 9.5L13.5 7.5L15.5 9.5L13.5 11.5Z" fill="var(--mw-icon-background-red, #FF9D9A)" stroke="var(--mw-icon-border-default-red, #902622)" stroke-linejoin="round"/>
<path d="M13.5 11.5L9.5 15.5H7.5V13.5L11.5 9.5L13.5 11.5Z" fill="var(--mw-icon-background-default-highlight, #FFE864)" stroke="#674C06" stroke-linejoin="round"/>
</svg>
