<svg width="16" height="16" viewBox="0 0 16 16" fill="none" xmlns="http://www.w3.org/2000/svg">
<path d="M7.85355 7.35355L8.20711 7L7.5 6.29289L7.14645 6.64645L7.85355 7.35355ZM6.5 8L6.14645 8.35355L6.5 8.70711L6.85355 8.35355L6.5 8ZM5.85355 6.64645L5.5 6.29289L4.79289 7L5.14645 7.35355L5.85355 6.64645ZM7.14645 6.64645L6.14645 7.64645L6.85355 8.35355L7.85355 7.35355L7.14645 6.64645ZM6.85355 7.64645L5.85355 6.64645L5.14645 7.35355L6.14645 8.35355L6.85355 7.64645ZM1.5 6H5.5V5H1.5V6ZM6 6.5V7.5H7V6.5H6ZM5.5 6C5.77614 6 6 6.22386 6 6.5H7C7 5.67157 6.32843 5 5.5 5V6ZM11 5H7.5V6H11V5ZM7.5 5C6.67157 5 6 5.67157 6 6.5H7C7 6.22386 7.22386 6 7.5 6V5ZM6 2.5V8H7V2.5H6Z" fill="var(--mw-icon-glyph-disabled-gray, #888889)"/>
<rect x="4.5" y="8.5" width="4" height="4" fill="var(--mw-icon-background-red, #FF9D9A)" stroke="var(--mw-icon-border-default-red, #902622)" stroke-linejoin="round"/>
<rect x="4.5" y="3.5" width="3" height="4" transform="rotate(-90 4.5 3.5)" fill="var(--mw-icon-background-default-medium-gray, #D9D9D9)" stroke="var(--mw-icon-border-disabled-gray, #888888)" stroke-linejoin="round"/>
<rect x="9.5" y="4.5" width="3" height="4" fill="var(--mw-icon-background-default-medium-gray, #D9D9D9)" stroke="var(--mw-icon-border-disabled-gray, #888888)" stroke-linejoin="round"/>
<rect x="0.5" y="4.5" width="3" height="4" fill="var(--mw-icon-background-default-medium-gray, #D9D9D9)" stroke="var(--mw-icon-border-disabled-gray, #888888)" stroke-linejoin="round"/>
<path d="M13.5 11.5L11.5 9.5L13.5 7.5L15.5 9.5L13.5 11.5Z" fill="var(--mw-icon-background-red, #FF9D9A)" stroke="var(--mw-icon-border-default-red, #902622)" stroke-linejoin="round"/>
<path d="M13.5 11.5L9.5 15.5H7.5V13.5L11.5 9.5L13.5 11.5Z" fill="var(--mw-icon-background-default-highlight, #FFE864)" stroke="#674C06" stroke-linejoin="round"/>
</svg>
