<svg width="16" height="16" viewBox="0 0 16 16" fill="none" xmlns="http://www.w3.org/2000/svg">
<path d="M0.5 1.5C0.5 0.947715 0.947715 0.5 1.5 0.5H11.5C12.0523 0.5 12.5 0.947715 12.5 1.5V11.5C12.5 12.0523 12.0523 12.5 11.5 12.5H1.5C0.947715 12.5 0.5 12.0523 0.5 11.5V1.5Z" fill="var(--mw-icon-background-default-white, #FFFFFF)" stroke="var(--mw-icon-border-default-gray, #616161)"/>
<path d="M4 3C4 3.55228 3.55228 4 3 4C2.44772 4 2 3.55228 2 3C2 2.44772 2.44772 2 3 2C3.55228 2 4 2.44772 4 3Z" fill="var(--mw-icon-glyph-content-light-blue, #278CDD)"/>
<path d="M7 5C7 5.55228 6.55228 6 6 6C5.44772 6 5 5.55228 5 5C5 4.44772 5.44772 4 6 4C6.55228 4 7 4.44772 7 5Z" fill="var(--mw-icon-glyph-content-light-blue, #278CDD)"/>
<path d="M10 7.5C10 8.05228 9.55228 8.5 9 8.5C8.44772 8.5 8 8.05228 8 7.5C8 6.94772 8.44772 6.5 9 6.5C9.55228 6.5 10 6.94772 10 7.5Z" fill="var(--mw-icon-glyph-content-light-blue, #278CDD)"/>
<path d="M8 10C8 10.5523 7.55228 11 7 11C6.44772 11 6 10.5523 6 10C6 9.44772 6.44772 9 7 9C7.55228 9 8 9.44772 8 10Z" fill="var(--mw-icon-glyph-content-light-blue, #278CDD)"/>
<path d="M11 4C11 4.55228 10.5523 5 10 5C9.44772 5 9 4.55228 9 4C9 3.44772 9.44772 3 10 3C10.5523 3 11 3.44772 11 4Z" fill="var(--mw-icon-glyph-content-light-blue, #278CDD)"/>
<path d="M5 8C5 8.55228 4.55228 9 4 9C3.44772 9 3 8.55228 3 8C3 7.44772 3.44772 7 4 7C4.55228 7 5 7.44772 5 8Z" fill="var(--mw-icon-glyph-content-light-blue, #278CDD)"/>
<path d="M13.5 11.5L11.5 9.5L13.5 7.5L15.5 9.5L13.5 11.5Z" fill="var(--mw-icon-background-red, #FF9D9A)" stroke="var(--mw-icon-border-default-red, #902622)" stroke-linejoin="round"/>
<path d="M13.5 11.5L9.5 15.5H7.5V13.5L11.5 9.5L13.5 11.5Z" fill="var(--mw-icon-background-default-highlight, #FFE864)" stroke="#674C06" stroke-linejoin="round"/>
</svg>
