<svg width="16" height="16" viewBox="0 0 16 16" fill="none" xmlns="http://www.w3.org/2000/svg">
<path d="M0.5 1.5C0.5 0.947715 0.947715 0.5 1.5 0.5H11.5C12.0523 0.5 12.5 0.947715 12.5 1.5V10.5C12.5 11.0523 12.0523 11.5 11.5 11.5H1.5C0.947715 11.5 0.5 11.0523 0.5 10.5V1.5Z" fill="var(--mw-icon-background-default-white, #FFFFFF)" stroke="var(--mw-icon-border-default-gray, #616161)"/>
<path d="M3.98062 6.93583C3.98062 6.86096 3.97027 6.79412 3.94956 6.73529C3.93045 6.67469 3.89461 6.62032 3.84205 6.57219C3.79108 6.52228 3.71861 6.47415 3.62463 6.42781C3.53225 6.37968 3.4128 6.32977 3.26626 6.27807C3.1038 6.22103 2.95248 6.15686 2.81232 6.08556C2.67215 6.01426 2.54871 5.93137 2.442 5.8369C2.33687 5.74242 2.25484 5.63369 2.19591 5.5107C2.13698 5.38592 2.10751 5.24153 2.10751 5.07754C2.10751 4.91711 2.13778 4.77094 2.1983 4.63904C2.26042 4.50713 2.34802 4.39394 2.46111 4.29947C2.5742 4.20321 2.70719 4.12923 2.8601 4.07754C3.0146 4.02585 3.18503 4 3.37138 4C3.62941 4 3.8524 4.05258 4.04035 4.15775C4.22989 4.26292 4.37643 4.40553 4.47996 4.58556C4.58349 4.7656 4.63525 4.96791 4.63525 5.19251H3.98062C3.98062 5.0713 3.95753 4.96435 3.91134 4.87166C3.86674 4.77897 3.79825 4.70588 3.70587 4.65241C3.61508 4.59893 3.5004 4.57219 3.36183 4.57219C3.22803 4.57219 3.11654 4.59447 3.02734 4.63904C2.93974 4.6836 2.87364 4.74421 2.82904 4.82086C2.78604 4.8975 2.76453 4.98307 2.76453 5.07754C2.76453 5.14884 2.77967 5.21301 2.80993 5.27005C2.84019 5.32531 2.88559 5.3779 2.94611 5.42781C3.00664 5.47594 3.0815 5.52139 3.17069 5.56417C3.26148 5.60517 3.3666 5.64617 3.48606 5.68717C3.6772 5.75134 3.84444 5.82264 3.98779 5.90107C4.13273 5.9795 4.25299 6.06863 4.34855 6.16845C4.44571 6.26827 4.51818 6.38057 4.56597 6.50535C4.61534 6.63012 4.64003 6.77184 4.64003 6.93048C4.64003 7.09804 4.61057 7.24777 4.55163 7.37968C4.4927 7.51159 4.40828 7.62389 4.29838 7.71658C4.18848 7.80927 4.05628 7.87968 3.90178 7.92781C3.74887 7.97594 3.57765 8 3.38811 8C3.21927 8 3.05203 7.97504 2.88638 7.92513C2.72233 7.87344 2.5734 7.79679 2.43961 7.69519C2.30581 7.5918 2.1991 7.46168 2.11946 7.30481C2.03982 7.14617 2 6.96078 2 6.74866H2.65941C2.65941 6.87166 2.67693 6.97683 2.71197 7.06417C2.74861 7.14973 2.79958 7.22014 2.86488 7.2754C2.93178 7.32888 3.00982 7.36809 3.09902 7.39305C3.18821 7.418 3.28458 7.43048 3.38811 7.43048C3.5219 7.43048 3.6318 7.40998 3.71781 7.36898C3.80542 7.3262 3.87072 7.26738 3.91372 7.19251C3.95832 7.11765 3.98062 7.03209 3.98062 6.93583Z" fill="var(--mw-icon-glyph-content-dark-gray, #333333)"/>
<path d="M7.96337 5.90107V6.1016C7.96337 6.39572 7.92832 6.66043 7.85824 6.89572C7.78816 7.12923 7.68861 7.32799 7.5596 7.49198C7.43058 7.65597 7.27688 7.78164 7.09849 7.86898C6.9201 7.95633 6.72179 8 6.50358 8C6.28856 8 6.09105 7.95633 5.91107 7.86898C5.73268 7.78164 5.57818 7.65597 5.44757 7.49198C5.31696 7.32799 5.21582 7.12923 5.14415 6.89572C5.07247 6.66043 5.03663 6.39572 5.03663 6.1016V5.90107C5.03663 5.60517 5.07247 5.34046 5.14415 5.10695C5.21582 4.87344 5.31617 4.67469 5.44518 4.5107C5.5742 4.34492 5.7279 4.21836 5.90629 4.13102C6.08628 4.04367 6.28378 4 6.49881 4C6.71702 4 6.91532 4.04367 7.09371 4.13102C7.2721 4.21836 7.4258 4.34492 7.55482 4.5107C7.68543 4.67469 7.78577 4.87344 7.85585 5.10695C7.92753 5.34046 7.96337 5.60517 7.96337 5.90107ZM7.29918 6.1016V5.89572C7.29918 5.6836 7.28166 5.49733 7.24662 5.3369C7.21157 5.17469 7.15981 5.03832 7.09132 4.92781C7.02283 4.81729 6.93841 4.7344 6.83807 4.67914C6.73772 4.6221 6.62464 4.59358 6.49881 4.59358C6.37138 4.59358 6.2583 4.6221 6.15954 4.67914C6.06238 4.7344 5.97956 4.81729 5.91107 4.92781C5.84258 5.03832 5.79002 5.17469 5.75338 5.3369C5.71834 5.49733 5.70082 5.6836 5.70082 5.89572V6.1016C5.70082 6.31194 5.71834 6.49822 5.75338 6.66043C5.79002 6.82264 5.84258 6.95989 5.91107 7.07219C5.98115 7.18271 6.06557 7.26649 6.16432 7.32353C6.26307 7.38057 6.37616 7.40909 6.50358 7.40909C6.63101 7.40909 6.74409 7.38057 6.84285 7.32353C6.9416 7.26649 7.02442 7.18271 7.09132 7.07219C7.15981 6.95989 7.21157 6.82264 7.24662 6.66043C7.28166 6.49822 7.29918 6.31194 7.29918 6.1016Z" fill="var(--mw-icon-glyph-content-dark-gray, #333333)"/>
<path d="M10.3406 6.93583C10.3406 6.86096 10.3302 6.79412 10.3095 6.73529C10.2904 6.67469 10.2546 6.62032 10.202 6.57219C10.151 6.52228 10.0786 6.47415 9.9846 6.42781C9.89222 6.37968 9.77276 6.32977 9.62623 6.27807C9.46376 6.22103 9.31245 6.15686 9.17229 6.08556C9.03212 6.01426 8.90868 5.93137 8.80196 5.8369C8.69684 5.74242 8.61481 5.63369 8.55588 5.5107C8.49695 5.38592 8.46748 5.24153 8.46748 5.07754C8.46748 4.91711 8.49774 4.77094 8.55827 4.63904C8.62039 4.50713 8.70799 4.39394 8.82108 4.29947C8.93417 4.20321 9.06716 4.12923 9.22007 4.07754C9.37457 4.02585 9.545 4 9.73135 4C9.98938 4 10.2124 4.05258 10.4003 4.15775C10.5899 4.26292 10.7364 4.40553 10.8399 4.58556C10.9435 4.7656 10.9952 4.96791 10.9952 5.19251H10.3406C10.3406 5.0713 10.3175 4.96435 10.2713 4.87166C10.2267 4.77897 10.1582 4.70588 10.0658 4.65241C9.97505 4.59893 9.86037 4.57219 9.72179 4.57219C9.588 4.57219 9.47651 4.59447 9.38731 4.63904C9.29971 4.6836 9.23361 4.74421 9.18901 4.82086C9.146 4.8975 9.1245 4.98307 9.1245 5.07754C9.1245 5.14884 9.13963 5.21301 9.1699 5.27005C9.20016 5.32531 9.24555 5.3779 9.30608 5.42781C9.3666 5.47594 9.44147 5.52139 9.53066 5.56417C9.62145 5.60517 9.72657 5.64617 9.84603 5.68717C10.0372 5.75134 10.2044 5.82264 10.3478 5.90107C10.4927 5.9795 10.613 6.06863 10.7085 6.16845C10.8057 6.26827 10.8782 6.38057 10.9259 6.50535C10.9753 6.63012 11 6.77184 11 6.93048C11 7.09804 10.9705 7.24777 10.9116 7.37968C10.8527 7.51159 10.7683 7.62389 10.6583 7.71658C10.5484 7.80927 10.4162 7.87968 10.2617 7.92781C10.1088 7.97594 9.93762 8 9.74808 8C9.57924 8 9.412 7.97504 9.24635 7.92513C9.08229 7.87344 8.93337 7.79679 8.79958 7.69519C8.66578 7.5918 8.55907 7.46168 8.47943 7.30481C8.39979 7.14617 8.35997 6.96078 8.35997 6.74866H9.01938C9.01938 6.87166 9.0369 6.97683 9.07194 7.06417C9.10857 7.14973 9.15954 7.22014 9.22485 7.2754C9.29174 7.32888 9.36979 7.36809 9.45899 7.39305C9.54818 7.418 9.64454 7.43048 9.74808 7.43048C9.88187 7.43048 9.99177 7.40998 10.0778 7.36898C10.1654 7.3262 10.2307 7.26738 10.2737 7.19251C10.3183 7.11765 10.3406 7.03209 10.3406 6.93583Z" fill="var(--mw-icon-glyph-content-dark-gray, #333333)"/>
<path d="M13.5 11.5L11.5 9.5L13.5 7.5L15.5 9.5L13.5 11.5Z" fill="var(--mw-icon-background-red, #FF9D9A)" stroke="var(--mw-icon-border-default-red, #902622)" stroke-linejoin="round"/>
<path d="M13.5 11.5L9.5 15.5H7.5V13.5L11.5 9.5L13.5 11.5Z" fill="var(--mw-icon-background-default-highlight, #FFE864)" stroke="#674C06" stroke-linejoin="round"/>
</svg>
