<svg width="16" height="16" viewBox="0 0 16 16" fill="none" xmlns="http://www.w3.org/2000/svg">
<path d="M0.5 4.5H15.5V10.5H0.5V4.5Z" fill="var(--mw-icon-background-default-light-gray, #F5F5F5)" stroke="var(--mw-icon-border-default-gray, #616161)"/>
<rect x="6" y="5" width="5" height="5" fill="var(--mw-icon-background-default-selection, #B4DEFF)"/>
<path d="M2 6H5V7H2V6Z" fill="var(--mw-icon-glyph-content-gray, #616162)"/>
<path d="M7 6H10V7H7V6Z" fill="var(--mw-icon-glyph-content-dark-blue, #104280)"/>
<path d="M9 7V9H8V7L9 7Z" fill="var(--mw-icon-glyph-content-dark-blue, #104280)"/>
<path d="M2 8H5V9H2V8Z" fill="var(--mw-icon-glyph-content-gray, #616162)"/>
<path d="M3.5 8L2 7H3.5L5 8H3.5Z" fill="var(--mw-icon-glyph-disabled-gray, #888889)"/>
<path d="M5 3H6V12H5V3Z" fill="var(--mw-icon-object-primary, #616160)"/>
<path d="M5 2H4V3H5V2Z" fill="var(--mw-icon-object-primary, #616160)"/>
<path d="M5 12H4V13H5V12Z" fill="var(--mw-icon-object-primary, #616160)"/>
<path d="M7 2H6V3H7V2Z" fill="var(--mw-icon-object-primary, #616160)"/>
<path d="M7 12H6V13H7V12Z" fill="var(--mw-icon-object-primary, #616160)"/>
</svg>
