<svg width="16" height="16" viewBox="0 0 16 16" fill="none" xmlns="http://www.w3.org/2000/svg">
<rect x="0.5" y="0.5" width="14" height="14" rx="2" fill="var(--mw-icon-glyph-content-green, #008014)"/>
<path d="M5.5 5.5H9.5L14.5 10.5V13.5C14.5 14.0523 14.0523 14.5 13.5 14.5H1.5C0.947716 14.5 0.5 14.0523 0.5 13.5V10.5L5.5 5.5Z" fill="var(--mw-icon-glyph-disabled-gray, #888889)" stroke="var(--mw-icon-background-default-medium-gray, #D9D9D9)"/>
<path d="M6.5 11H8.5L9 14H6L6.5 11Z" fill="var(--mw-icon-background-default-white, #FFFFFF)"/>
<path d="M7 7H8L8.5 9H6.5L7 7Z" fill="white"/>
<path d="M1 6H14V1H1V6Z" fill="var(--mw-icon-background-medium-blue, #83CAFF)"/>
<path d="M0.5 1.5C0.5 0.947716 0.947715 0.5 1.5 0.5H13.5C14.0523 0.5 14.5 0.947715 14.5 1.5V13.5C14.5 14.0523 14.0523 14.5 13.5 14.5H1.5C0.947716 14.5 0.5 14.0523 0.5 13.5V1.5Z" stroke="var(--mw-icon-border-default-gray, #616161)"/>
</svg>
