<svg width="16" height="16" viewBox="0 0 16 16" fill="none" xmlns="http://www.w3.org/2000/svg">
<path d="M0.5 12.5V2.5C0.5 1.39543 1.39543 0.5 2.5 0.5H12.5C13.6046 0.5 14.5 1.39543 14.5 2.5V12.5C14.5 13.6046 13.6046 14.5 12.5 14.5H2.5C1.39543 14.5 0.5 13.6046 0.5 12.5Z" fill="var(--mw-icon-border-default-green, #008013)"/>
<path d="M4.5 0.5V5.5L0.5 9.5" stroke="#3AC831" stroke-linecap="round"/>
<path d="M6 4.5H10" stroke="#3AC831"/>
<path d="M6 2.5H10" stroke="#3AC831"/>
<circle cx="12" cy="12" r="1" fill="#FFD60A"/>
<circle cx="3" cy="12" r="1" fill="#FFD60A"/>
<path d="M11.5 4.5C11.5 5.05228 11.0523 5.5 10.5 5.5C9.94772 5.5 9.5 5.05228 9.5 4.5C9.5 3.94772 9.94772 3.5 10.5 3.5C11.0523 3.5 11.5 3.94772 11.5 4.5Z" fill="#FFD60A"/>
<circle cx="10.5" cy="2.5" r="1" fill="#FFD60A"/>
<path d="M5 11H6V13H5V11Z" fill="#FFD60A"/>
<path d="M9 11H10V13H9V11Z" fill="#FFD60A"/>
<path d="M7 11H8V13H7V11Z" fill="#FFD60A"/>
<rect x="8.5" y="7.5" width="3" height="3" fill="#7D7D7D" stroke="var(--mw-icon-glyph-content-dark-gray, #333333)"/>
<rect x="3.5" y="7.5" width="3" height="3" fill="#7D7D7D" stroke="var(--mw-icon-glyph-content-dark-gray, #333333)"/>
<rect x="3.5" y="2.5" width="3" height="3" fill="#7D7D7D" stroke="var(--mw-icon-glyph-content-dark-gray, #333333)"/>
<path d="M0.5 12.5V2.5C0.5 1.39543 1.39543 0.5 2.5 0.5H12.5C13.6046 0.5 14.5 1.39543 14.5 2.5V12.5C14.5 13.6046 13.6046 14.5 12.5 14.5H2.5C1.39543 14.5 0.5 13.6046 0.5 12.5Z" stroke="#013E0A" stroke-linecap="round"/>
</svg>
