<svg width="21" height="16" viewBox="0 0 21 16" fill="none" xmlns="http://www.w3.org/2000/svg">
<path d="M4 1H17V14H4V1Z" fill="var(--mw-icon-background-default-white, #FFFFFF)"/>
<path fill-rule="evenodd" clip-rule="evenodd" d="M1.33878e-09 2.03449C-0.000530256 2.01153 -0.000527686 1.98861 1.33878e-09 1.96575V2.03449ZM3 9.91244C3.34293 10.5202 3.70656 11.0505 4.0941 11.4909C4.82788 12.3248 5.80049 13 7.00001 13C8.19954 13 9.17215 12.3248 9.90593 11.4909C10.6449 10.6512 11.2969 9.48433 11.8842 8.07805C12.4105 6.81766 12.9119 5.98455 13.3463 5.49094C13.559 5.24914 13.7273 5.12159 13.8403 5.05817C13.9441 4.99998 13.992 5.00001 13.9998 5.00001C14.0076 5.00001 14.056 4.99998 14.1597 5.05817C14.2727 5.12159 14.441 5.24914 14.6538 5.49094C15.0881 5.98455 15.5895 6.81766 16.1159 8.07805C16.129 8.10945 16.1432 8.1404 16.1584 8.17083L18 11.8541V5.08754C17.6571 4.47985 17.2935 3.94947 16.9059 3.50909C16.1721 2.67522 15.1995 2.00001 14 2.00001C12.8005 2.00001 11.8279 2.67522 11.0941 3.50909C10.3552 4.3488 9.70314 5.5157 9.11586 6.92197C8.58951 8.18236 8.08813 9.01547 7.65375 9.50909C7.44098 9.75089 7.27272 9.87843 7.15969 9.94185C7.05596 10 7.00798 10 7.0002 10C6.99241 10 6.94406 10 6.84034 9.94185C6.7273 9.87843 6.55904 9.75089 6.34627 9.50909C5.91556 9.01963 5.41897 8.19639 4.89748 6.95378L3 1.73572V9.91244ZM20.0343 14H19.9681C19.9901 14.0005 20.0122 14.0005 20.0343 14Z" fill="var(--mw-icon-background-default-selection, #B4DEFF)"/>
<path d="M3.5 7.5C5.72727 12.8333 8.27273 12.8333 10.5 7.5C12.7273 2.16667 15.2727 2.16667 17.5 7.5" stroke="#0072BD" stroke-linecap="round" stroke-linejoin="round"/>
<path d="M3.5 1.5C3.5 0.947716 3.94772 0.5 4.5 0.5H16.5C17.0523 0.5 17.5 0.947715 17.5 1.5V13.5C17.5 14.0523 17.0523 14.5 16.5 14.5H4.5C3.94772 14.5 3.5 14.0523 3.5 13.5V1.5Z" stroke="var(--mw-icon-border-default-gray, #616161)" stroke-linejoin="round"/>
</svg>
