<svg width="16" height="16" viewBox="0 0 16 16" fill="none" xmlns="http://www.w3.org/2000/svg">
<rect x="0.5" y="0.5" width="14" height="14" rx="1" fill="var(--mw-icon-background-default-white, #FFFFFF)"/>
<rect x="4.5" y="4.5" width="8" height="8" fill="var(--mw-icon-background-default-medium-gray, #D9D9D9)" stroke="var(--mw-icon-glyph-content-gray, #616162)" stroke-linejoin="round"/>
<rect x="2.5" y="2.5" width="8" height="8" fill="white" stroke="var(--mw-icon-glyph-content-gray, #616162)" stroke-linejoin="round"/>
<path d="M6.5 4.5H7.5V5.49994H6.5V4.5Z" fill="var(--mw-icon-glyph-content-gray, #616162)"/>
<path d="M3.5 7.5H4.5V8.5H3.5V7.5Z" fill="var(--mw-icon-glyph-content-gray, #616162)"/>
<path d="M9.5 7.5H10.5V8.49994H9.5V7.5Z" fill="var(--mw-icon-glyph-content-gray, #616162)"/>
<path d="M2.14645 9.14639C1.95118 9.34165 1.95118 9.65823 2.14645 9.85349C2.34171 10.0488 2.65829 10.0488 2.85355 9.85349L2.14645 9.14639ZM10.5 8.49994V8.99994H11V8.49994H10.5ZM7.14645 10.1464C6.95118 10.3416 6.95118 10.6582 7.14645 10.8535C7.34171 11.0488 7.65829 11.0488 7.85355 10.8535L7.14645 10.1464ZM6.5 4.5V4C6.22386 4 6 4.22386 6 4.5H6.5ZM7.5 4.5H8C8 4.22386 7.77614 4 7.5 4V4.5ZM3.5 7.5V7C3.22386 7 3 7.22386 3 7.5H3.5ZM4.5 7.5H5C5 7.22386 4.77614 7 4.5 7V7.5ZM4.5 8.5V9C4.77614 9 5 8.77614 5 8.5H4.5ZM3.5 8.5H3C3 8.77614 3.22386 9 3.5 9V8.5ZM9.5 7.5V7C9.22386 7 9 7.22386 9 7.5H9.5ZM10.5 7.5H11C11 7.22386 10.7761 7 10.5 7V7.5ZM6.14645 5.14639L2.14645 9.14639L2.85355 9.85349L6.85355 5.85349L6.14645 5.14639ZM7.14645 5.85349L10.1464 8.85349L10.8536 8.14639L7.85355 5.14639L7.14645 5.85349ZM9.14645 8.14639L7.14645 10.1464L7.85355 10.8535L9.85355 8.85349L9.14645 8.14639ZM6.5 5H7.5V4H6.5V5ZM7 4.5V5.49994H8V4.5H7ZM7.5 4.99994H6.5V5.99994H7.5V4.99994ZM7 5.49994V4.5H6V5.49994H7ZM3.5 8H4.5V7H3.5V8ZM4 7.5V8.5H5V7.5H4ZM4.5 8H3.5V9H4.5V8ZM4 8.5V7.5H3V8.5H4ZM9.5 8H10.5V7H9.5V8ZM10 7.5V8.49994H11V7.5H10ZM10.5 7.99994H9.5V8.99994H10.5V7.99994ZM10 8.49994V7.5H9V8.49994H10Z" fill="var(--mw-icon-glyph-content-gray, #616162)"/>
<rect x="0.5" y="0.5" width="14" height="14" rx="1" stroke="var(--mw-icon-border-default-gray, #616161)"/>
</svg>
