<svg width="16" height="16" viewBox="0 0 16 16" fill="none" xmlns="http://www.w3.org/2000/svg">
<rect x="0.5" y="0.5" width="14" height="14" rx="1" fill="var(--mw-icon-background-default-white, #FFFFFF)"/>
<rect x="4.5" y="4.5" width="8" height="8" fill="var(--mw-icon-background-default-medium-gray, #D9D9D9)" stroke="var(--mw-icon-glyph-content-gray, #616162)" stroke-linejoin="round"/>
<rect x="2.5" y="2.5" width="8" height="8" rx="1" fill="white"/>
<path d="M10.5 4.5L7.5 8.5M4.5 10.5L7.5 8.5M7.5 8.5L9.5 10.5" stroke="var(--mw-icon-glyph-content-gray, #616162)" stroke-linecap="round" stroke-linejoin="round"/>
<path d="M6 4.5C6 3.94772 6.44772 3.5 7 3.5C7.55228 3.5 8 3.94772 8 4.5C8 5.05228 7.55228 5.5 7 5.5C6.44772 5.5 6 5.05228 6 4.5Z" fill="white"/>
<path d="M2.5 7.5C2.5 6.94772 2.94772 6.5 3.5 6.5C4.05228 6.5 4.5 6.94772 4.5 7.5C4.5 8.05228 4.05228 8.5 3.5 8.5C2.94772 8.5 2.5 8.05228 2.5 7.5Z" fill="white"/>
<path d="M6 4.5C6 3.94772 6.44772 3.5 7 3.5C7.55228 3.5 8 3.94772 8 4.5C8 5.05228 7.55228 5.5 7 5.5C6.44772 5.5 6 5.05228 6 4.5Z" stroke="#1171BE"/>
<path d="M2.5 7.5C2.5 6.94772 2.94772 6.5 3.5 6.5C4.05228 6.5 4.5 6.94772 4.5 7.5C4.5 8.05228 4.05228 8.5 3.5 8.5C2.94772 8.5 2.5 8.05228 2.5 7.5Z" stroke="#1171BE"/>
<rect x="2.5" y="2.5" width="8" height="8" stroke="var(--mw-icon-glyph-content-gray, #616162)" stroke-linejoin="round"/>
<rect x="0.5" y="0.5" width="14" height="14" rx="1" stroke="var(--mw-icon-border-default-gray, #616161)"/>
</svg>
