<svg width="16" height="16" viewBox="0 0 16 16" fill="none" xmlns="http://www.w3.org/2000/svg">
<rect x="0.5" y="0.5" width="14" height="14" rx="1" fill="var(--mw-icon-background-default-white, #FFFFFF)"/>
<rect x="4.5" y="4.5" width="8" height="8" fill="var(--mw-icon-background-default-medium-gray, #D9D9D9)" stroke="var(--mw-icon-glyph-content-gray, #616162)" stroke-linejoin="round"/>
<rect x="2.5" y="2.5" width="8" height="8" rx="1" fill="white"/>
<path d="M8.5 3.5C8.5 2.94772 8.94772 2.5 9.5 2.5C10.0523 2.5 10.5 2.94772 10.5 3.5C10.5 4.05228 10.0523 4.5 9.5 4.5C8.94772 4.5 8.5 4.05228 8.5 3.5Z" fill="white"/>
<path d="M8.5 7.5C8.5 6.94772 8.94772 6.5 9.5 6.5C10.0523 6.5 10.5 6.94772 10.5 7.5C10.5 8.05228 10.0523 8.5 9.5 8.5C8.94772 8.5 8.5 8.05228 8.5 7.5Z" fill="white"/>
<path d="M6.5 10.5C6.5 9.94772 6.94772 9.5 7.5 9.5C8.05228 9.5 8.5 9.94772 8.5 10.5C8.5 11.0523 8.05228 11.5 7.5 11.5C6.94772 11.5 6.5 11.0523 6.5 10.5Z" fill="white"/>
<path d="M8.5 3.5C8.5 2.94772 8.94772 2.5 9.5 2.5C10.0523 2.5 10.5 2.94772 10.5 3.5C10.5 4.05228 10.0523 4.5 9.5 4.5C8.94772 4.5 8.5 4.05228 8.5 3.5Z" stroke="#1171BE"/>
<path d="M8.5 7.5C8.5 6.94772 8.94772 6.5 9.5 6.5C10.0523 6.5 10.5 6.94772 10.5 7.5C10.5 8.05228 10.0523 8.5 9.5 8.5C8.94772 8.5 8.5 8.05228 8.5 7.5Z" stroke="#1171BE"/>
<path d="M6.5 10.5C6.5 9.94772 6.94772 9.5 7.5 9.5C8.05228 9.5 8.5 9.94772 8.5 10.5C8.5 11.0523 8.05228 11.5 7.5 11.5C6.94772 11.5 6.5 11.0523 6.5 10.5Z" stroke="#1171BE"/>
<path d="M2.5 3.5C2.5 2.94772 2.94772 2.5 3.5 2.5C4.05228 2.5 4.5 2.94772 4.5 3.5C4.5 4.05228 4.05228 4.5 3.5 4.5C2.94772 4.5 2.5 4.05228 2.5 3.5Z" fill="white"/>
<path d="M5.5 7.5C5.5 6.94772 5.94772 6.5 6.5 6.5C7.05228 6.5 7.5 6.94772 7.5 7.5C7.5 8.05228 7.05228 8.5 6.5 8.5C5.94772 8.5 5.5 8.05228 5.5 7.5Z" fill="white"/>
<path d="M2.5 3.5C2.5 2.94772 2.94772 2.5 3.5 2.5C4.05228 2.5 4.5 2.94772 4.5 3.5C4.5 4.05228 4.05228 4.5 3.5 4.5C2.94772 4.5 2.5 4.05228 2.5 3.5Z" stroke="#DD5400"/>
<path d="M5.5 7.5C5.5 6.94772 5.94772 6.5 6.5 6.5C7.05228 6.5 7.5 6.94772 7.5 7.5C7.5 8.05228 7.05228 8.5 6.5 8.5C5.94772 8.5 5.5 8.05228 5.5 7.5Z" stroke="#DD5400"/>
<path d="M5.5 10.4999V8.5C5.5 6.84315 6.84315 5.5 8.5 5.5H10.5" stroke="var(--mw-icon-glyph-content-gray, #616162)" stroke-linecap="round" stroke-linejoin="round"/>
<rect x="6" y="11" width="3" height="1" fill="var(--mw-icon-background-default-medium-gray, #D9D9D9)"/>
<rect x="2.5" y="2.5" width="8" height="8" stroke="var(--mw-icon-glyph-content-gray, #616162)" stroke-linejoin="round"/>
<rect x="0.5" y="0.5" width="14" height="14" rx="1" stroke="var(--mw-icon-border-default-gray, #616161)"/>
</svg>
