<svg width="16" height="16" viewBox="0 0 16 16" fill="none" xmlns="http://www.w3.org/2000/svg">
<path d="M13.5 0.5H1.5C0.947715 0.5 0.5 0.947716 0.5 1.5V13.5C0.5 14.0523 0.947716 14.5 1.5 14.5H13.5C14.0523 14.5 14.5 14.0523 14.5 13.5V1.5C14.5 0.947715 14.0523 0.5 13.5 0.5Z" fill="var(--mw-icon-background-default-white, #FFFFFF)"/>
<line x1="14" y1="7.5" x2="1" y2="7.5" stroke="var(--mw-icon-border-default-gray, #616161)"/>
<path d="M0.5 12.5L2.5 9.5H5.5L7.5 12.5H9.5L10.5 11.5H14M0.5 5.5L2.5 2.5H5.5L7.5 5.5H9.5L10.5 4.5H14" stroke="#0072BD" stroke-miterlimit="10" stroke-linejoin="round"/>
<path d="M13.5 0.5H1.5C0.947715 0.5 0.5 0.947716 0.5 1.5V13.5C0.5 14.0523 0.947716 14.5 1.5 14.5H13.5C14.0523 14.5 14.5 14.0523 14.5 13.5V1.5C14.5 0.947715 14.0523 0.5 13.5 0.5Z" stroke="var(--mw-icon-border-default-gray, #616161)" stroke-linecap="round"/>
</svg>
