<svg width="16" height="16" viewBox="0 0 16 16" fill="none" xmlns="http://www.w3.org/2000/svg">
<path d="M9.08579 0.5H1.5C0.947715 0.5 0.5 0.947715 0.5 1.5V11.5C0.5 12.0523 0.947715 12.5 1.5 12.5H11.5C12.0523 12.5 12.5 12.0523 12.5 11.5V3.91421C12.5 3.649 12.3946 3.39464 12.2071 3.20711L9.79289 0.792893C9.60536 0.605357 9.351 0.5 9.08579 0.5Z" fill="var(--mw-icon-background-default-white, #FFFFFF)" stroke="var(--mw-icon-border-default-gray, #616161)" stroke-linecap="round"/>
<path d="M6.5 5.5V6.5M6.5 6.5H8.5V7.5M6.5 6.5H4.5V7.5" stroke="var(--mw-icon-glyph-content-gray, #616162)" stroke-linecap="square" stroke-linejoin="round"/>
<path d="M6.5 10.5V8.5H2.5V10.5H6.5Z" fill="var(--mw-icon-background-medium-blue, #83CAFF)"/>
<path d="M10.5 10.5V8.5H6.5V10.5H10.5Z" fill="var(--mw-icon-background-medium-blue, #83CAFF)"/>
<path d="M6.5 10.5V8.5M6.5 10.5H2.5V8.5H6.5M6.5 10.5H10.5V8.5H6.5" stroke="var(--mw-icon-glyph-content-blue, #1656A8)" stroke-linecap="square" stroke-linejoin="round"/>
<path d="M8.5 4.5V2.5H4.5V4.5H8.5Z" fill="var(--mw-icon-background-medium-blue, #83CAFF)" stroke="var(--mw-icon-glyph-content-blue, #1656A8)" stroke-linecap="square" stroke-linejoin="round"/>
<path d="M15.5 8.42893L12.5711 5.5H8.42893L5.5 8.42893V12.5711L8.42893 15.5H12.5711L15.5 12.5711V8.42893Z" fill="var(--mw-icon-alert-red, #B7313C)" stroke="var(--mw-icon-alert-red, #B7313C)"/>
<path d="M11 8H10V11H11V8Z" fill="white"/>
<path d="M11 12H10V13H11V12Z" fill="white"/>
</svg>
