<svg width="16" height="16" viewBox="0 0 16 16" fill="none" xmlns="http://www.w3.org/2000/svg">
<path d="M3.71429 4.5C1.30357 4.5 0.5 6.06164 0.5 8.42857V9C0.5 9.27614 0.723857 9.5 1 9.5H6.42857C6.70471 9.5 6.92857 9.27614 6.92857 9V8.42857C6.92857 6.06164 6.125 4.5 3.71429 4.5Z" fill="var(--mw-icon-background-default-white, #FFFFFF)" stroke="var(--mw-icon-border-default-gray, #616161)"/>
<circle cx="3.5" cy="2.5" r="2" fill="white" stroke="var(--mw-icon-border-default-gray, #616161)"/>
<path d="M7 6.5C3.625 6.5 2.5 8.68629 2.5 12V13C2.5 13.2761 2.72386 13.5 3 13.5H11C11.2761 13.5 11.5 13.2761 11.5 13V12C11.5 8.68629 10.375 6.5 7 6.5Z" fill="white" stroke="var(--mw-icon-border-default-gray, #616161)"/>
<circle cx="7" cy="4" r="2.5" fill="white" stroke="var(--mw-icon-border-default-gray, #616161)"/>
<circle cx="10.5" cy="10.5" r="5" fill="var(--mw-icon-background-red, #FF9D9A)" stroke="var(--mw-icon-border-default-red, #902622)"/>
<path d="M12.4231 8.57715L8.5769 12.4233M8.5769 8.57715L12.4231 12.4233" stroke="var(--mw-icon-glyph-content-dark-red, #610908)" stroke-linecap="round"/>
</svg>
