<svg width="16" height="16" viewBox="0 0 16 16" fill="none" xmlns="http://www.w3.org/2000/svg">
<circle cx="8" cy="8" r="7.5" fill="var(--mw-icon-alert-red, #B7313C)" stroke="var(--mw-icon-alert-red, #B7313C)"/>
<path fill-rule="evenodd" clip-rule="evenodd" d="M8.4751 2.9397C8.75124 2.9397 8.9751 3.16355 8.9751 3.4397V8.4397C8.9751 8.71584 8.75124 8.9397 8.4751 8.9397H7.4751C7.19896 8.9397 6.9751 8.71584 6.9751 8.4397V3.4397C6.9751 3.16355 7.19896 2.9397 7.4751 2.9397H8.4751Z" fill="var(--mw-icon-background-default-white, #FFFFFF)"/>
<path d="M8.9751 11.9397C8.9751 12.492 8.52738 12.9397 7.9751 12.9397V12.9397C7.42281 12.9397 6.9751 12.492 6.9751 11.9397V11.9397C6.9751 11.3874 7.42281 10.9397 7.9751 10.9397V10.9397C8.52738 10.9397 8.9751 11.3874 8.9751 11.9397V11.9397Z" fill="white"/>
</svg>
