<svg width="16" height="16" viewBox="0 0 16 16" fill="none" xmlns="http://www.w3.org/2000/svg">
<circle cx="8" cy="8" r="7.5" fill="var(--mw-icon-alert-red, #B7313C)" stroke="var(--mw-icon-alert-red, #B7313C)"/>
<path d="M7 3.5C7 3.22386 7.22386 3 7.5 3H8.5C8.77614 3 9 3.22386 9 3.5V8.5C9 8.77614 8.77614 9 8.5 9H7.5C7.22386 9 7 8.77614 7 8.5V3.5Z" fill="var(--mw-icon-background-default-white, #FFFFFF)"/>
<path d="M7 11.5C7 11.2239 7.22386 11 7.5 11H8.5C8.77614 11 9 11.2239 9 11.5V12.5C9 12.7761 8.77614 13 8.5 13H7.5C7.22386 13 7 12.7761 7 12.5V11.5Z" fill="white"/>
</svg>
