<svg width="16" height="16" viewBox="0 0 16 16" fill="none" xmlns="http://www.w3.org/2000/svg">
<rect x="0.5" y="0.5" width="10" height="10" rx="1" fill="var(--mw-icon-background-light-yellow, #FFF5BC)" stroke="var(--mw-icon-border-default-blue, #1656A7)"/>
<path d="M1.49988 5.49999H9.49988M5.50003 1.5L5.50003 9.5" stroke="var(--mw-icon-glyph-content-light-blue, #278CDD)" stroke-linecap="square"/>
<circle cx="10" cy="10" r="5" fill="#B7312C"/>
<path fill-rule="evenodd" clip-rule="evenodd" d="M9.5 11C9.22386 11 9 10.7761 9 10.5V7.49999C9 7.22385 9.22386 6.99999 9.5 6.99999H10.5C10.7761 6.99999 11 7.22385 11 7.49999V10.5C11 10.7761 10.7761 11 10.5 11H9.5Z" fill="var(--mw-icon-background-default-white, #FFFFFF)"/>
<path d="M11 13C11 13.5523 10.5523 14 10 14C9.44772 14 9 13.5523 9 13C9 12.4477 9.44772 12 10 12C10.5523 12 11 12.4477 11 13Z" fill="white"/>
</svg>
