<svg width="16" height="16" viewBox="0 0 16 16" fill="none" xmlns="http://www.w3.org/2000/svg">
<rect x="0.5" y="0.5" width="14" height="14" rx="1" fill="var(--mw-icon-background-default-white, #FFFFFF)"/>
<path d="M3 6H5V9H3V6Z" fill="#1171BE"/>
<path d="M5 10H7V12H5V10Z" fill="#1171BE"/>
<path d="M9 10H11V12H9V10Z" fill="#1171BE"/>
<path d="M7 3H9V9H7V3Z" fill="#1171BE"/>
<path d="M11 7H13V9H11V7Z" fill="#1171BE"/>
<path d="M0 5.5H2M3 5.5H5M6 5.5H8M9 5.5H11M12 5.5H14" stroke="#DD5400" stroke-linejoin="round"/>
<path d="M0 12.5H2M3 12.5H5M6 12.5H8M9 12.5H11M12 12.5H14" stroke="#DD5400" stroke-linejoin="round"/>
<path d="M0.5 9.5H14.5" stroke="var(--mw-icon-glyph-content-gray, #616162)" stroke-linejoin="round"/>
<rect x="0.5" y="0.5" width="14" height="14" rx="1" stroke="var(--mw-icon-border-default-gray, #616161)"/>
</svg>
