<svg width="16" height="16" viewBox="0 0 16 16" fill="none" xmlns="http://www.w3.org/2000/svg">
<path d="M4.5 12.5V0.5L14.5 6.5L4.5 12.5Z" fill="var(--mw-icon-background-default-action, #CBFFBE)" stroke="var(--mw-icon-border-default-green, #008013)" stroke-linejoin="round"/>
<path d="M0.5 8.42893L3.42893 5.5H7.57107L10.5 8.42893V12.5711L7.57107 15.5H3.42893L0.5 12.5711V8.42893Z" fill="var(--mw-icon-alert-red, #B7313C)" stroke="var(--mw-icon-alert-red, #B7313C)"/>
<path d="M5 8.5C5 8.22386 5.22386 8 5.5 8V8C5.77614 8 6 8.22386 6 8.5V11.1C6 11.3761 5.77614 11.6 5.5 11.6V11.6C5.22386 11.6 5 11.3761 5 11.1V8.5Z" fill="var(--mw-icon-background-default-white, #FFFFFF)"/>
<path d="M5 13.3C5 13.0239 5.22386 12.8 5.5 12.8V12.8C5.77614 12.8 6 13.0239 6 13.3V13.5C6 13.7761 5.77614 14 5.5 14V14C5.22386 14 5 13.7761 5 13.5V13.3Z" fill="white"/>
</svg>
