<svg width="16" height="16" viewBox="0 0 16 16" fill="none" xmlns="http://www.w3.org/2000/svg">
<path d="M1.5 3.5H11.5V11C11.5 11.2761 11.2761 11.5 11 11.5H2C1.72386 11.5 1.5 11.2761 1.5 11V3.5Z" fill="var(--mw-icon-background-brown, #DC996C)" stroke="var(--mw-icon-border-default-brown, #5F1B08)" stroke-linejoin="round"/>
<path d="M0.5 1C0.5 0.723858 0.723858 0.5 1 0.5H12C12.2761 0.5 12.5 0.723858 12.5 1V3.5H0.5V1Z" fill="var(--mw-icon-background-brown, #DC996C)" stroke="var(--mw-icon-border-default-brown, #5F1B08)" stroke-linejoin="round"/>
<path d="M3.5 7L3.5 10" stroke="var(--mw-icon-glyph-content-brown, #5F1B18)" stroke-linejoin="round"/>
<path d="M5.5 7L5.5 10" stroke="var(--mw-icon-glyph-content-brown, #5F1B18)"/>
<path d="M7.5 7L7.5 10" stroke="var(--mw-icon-glyph-content-brown, #5F1B18)"/>
<circle cx="10.5" cy="10.5" r="5" fill="var(--mw-icon-background-red, #FF9D9A)" stroke="var(--mw-icon-border-default-red, #902622)"/>
<path d="M12.4231 8.57715L8.5769 12.4233M8.5769 8.57715L12.4231 12.4233" stroke="var(--mw-icon-glyph-content-dark-red, #610908)" stroke-linecap="round"/>
</svg>
