<svg width="16" height="16" viewBox="0 0 16 16" fill="none" xmlns="http://www.w3.org/2000/svg">
<path d="M0.5 10.5V1.5C0.5 0.947715 0.947715 0.5 1.5 0.5H10.5C11.0523 0.5 11.5 0.947715 11.5 1.5V10.5C11.5 11.0523 11.0523 11.5 10.5 11.5H1.5C0.947715 11.5 0.5 11.0523 0.5 10.5Z" fill="var(--mw-icon-background-default-white, #FFFFFF)" stroke="var(--mw-icon-border-default-gray, #616161)" stroke-linejoin="round"/>
<path d="M9.5 2.5H2.5L5.5 5.5H6.5L9.5 2.5Z" fill="white" stroke="var(--mw-icon-border-default-gray, #616161)" stroke-linejoin="round"/>
<path d="M5.14645 8.14645C5.05268 8.05268 5 7.9255 5 7.79289V5H7V9.39645C7 9.61917 6.73071 9.73071 6.57322 9.57322L5.14645 8.14645Z" fill="var(--mw-icon-border-default-gray, #616161)"/>
<path d="M15.5 10.5C15.5 13.2614 13.2614 15.5 10.5 15.5C7.73858 15.5 5.5 13.2614 5.5 10.5C5.5 7.73858 7.73858 5.5 10.5 5.5C13.2614 5.5 15.5 7.73858 15.5 10.5Z" fill="var(--mw-icon-background-red, #FF9D9A)" stroke="var(--mw-icon-border-default-red, #902622)"/>
<path d="M8.5 12.5L12.5 8.5M8.5 8.5L12.5 12.5" stroke="var(--mw-icon-glyph-content-dark-red, #610908)" stroke-linecap="square"/>
</svg>
