<svg width="16" height="16" viewBox="0 0 16 16" fill="none" xmlns="http://www.w3.org/2000/svg">
<path d="M0.5 12.5V2.5C0.5 1.39543 1.39543 0.5 2.5 0.5H12.5C13.6046 0.5 14.5 1.39543 14.5 2.5V12.5C14.5 13.6046 13.6046 14.5 12.5 14.5H2.5C1.39543 14.5 0.5 13.6046 0.5 12.5Z" fill="#00A9E0"/>
<path d="M14.5 6.34588C10.5464 7.81967 7.64118 3.82359 5.49996 4.00608C4.85452 4.06109 4.49996 5.00541 3.99996 6.00473C3.49996 7.16256 2.5383 9.26161 1.99996 10.5017C1.49205 11.6717 1.15991 12.6343 0.5 13" stroke="#232B33" stroke-miterlimit="10"/>
<path d="M4.5 7.5H7.5V10.5H4.5V7.5Z" fill="var(--mw-icon-background-default-white, #FFFFFF)" stroke="black"/>
<path d="M10.5 9.5H13.5V12.5H10.5V9.5Z" fill="white" stroke="black"/>
<path d="M9.5 1.5H12.5V4.5H9.5V1.5Z" fill="white" stroke="black"/>
<path d="M0.5 12.5V2.5C0.5 1.39543 1.39543 0.5 2.5 0.5H12.5C13.6046 0.5 14.5 1.39543 14.5 2.5V12.5C14.5 13.6046 13.6046 14.5 12.5 14.5H2.5C1.39543 14.5 0.5 13.6046 0.5 12.5Z" stroke="#245474" stroke-linecap="round"/>
</svg>
