<svg width="16" height="16" viewBox="0 0 16 16" fill="none" xmlns="http://www.w3.org/2000/svg">
<path d="M0.500244 13.5001V1.50006C0.500244 0.947776 0.94796 0.500061 1.50024 0.500061H13.5002C14.0525 0.500061 14.5002 0.947777 14.5002 1.50006V13.5001C14.5002 14.0523 14.0525 14.5001 13.5002 14.5001H1.50024C0.947959 14.5001 0.500244 14.0523 0.500244 13.5001Z" fill="var(--mw-icon-background-lightest-blue, #E2F0FF)" stroke="var(--mw-icon-borderColor-light-blue, #268CDD)" stroke-linecap="square"/>
<path d="M10.3 8.9L10.8262 8.28604C11.261 7.77881 11.5 7.13278 11.5 6.46472C11.5 4.27507 9.68965 2.5 7.5 2.5C5.31035 2.5 3.5 4.27507 3.5 6.46472C3.5 7.13278 3.73898 7.77881 4.17375 8.28604L4.7 8.9C5.21624 9.50228 5.5 10.2694 5.5 11.0626V11.5H9.5V11.0626C9.5 10.2694 9.78376 9.50228 10.3 8.9Z" fill="var(--mw-icon-background-default-white, #FFFFFF)"/>
<path d="M10.8262 8.28604L10.4466 7.96065V7.96065L10.8262 8.28604ZM10.3 8.9L10.6796 9.22539L10.3 8.9ZM9.5 11.5V12C9.77614 12 10 11.7761 10 11.5H9.5ZM5.5 11.5H5C5 11.7761 5.22386 12 5.5 12V11.5ZM4.7 8.9L5.07963 8.5746H5.07963L4.7 8.9ZM4.17375 8.28604L4.55338 7.96065V7.96065L4.17375 8.28604ZM10.4466 7.96065L9.92037 8.5746L10.6796 9.22539L11.2059 8.61144L10.4466 7.96065ZM9 11.0626V11.5H10V11.0626H9ZM6 11.5V11.0626H5V11.5H6ZM5.07963 8.5746L4.55338 7.96065L3.79412 8.61144L4.32037 9.22539L5.07963 8.5746ZM9.5 11H5.5V12H9.5V11ZM4.55338 7.96065C4.19628 7.54404 4 7.01343 4 6.46472H3C3 7.25214 3.28168 8.01358 3.79412 8.61144L4.55338 7.96065ZM9.92037 8.5746C9.32646 9.2675 9 10.15 9 11.0626H10C10 10.3887 10.2411 9.73705 10.6796 9.22539L9.92037 8.5746ZM11 6.46472C11 7.01343 10.8037 7.54404 10.4466 7.96065L11.2059 8.61144C11.7183 8.01359 12 7.25214 12 6.46472H11ZM6 11.0626C6 10.15 5.67354 9.2675 5.07963 8.5746L4.32037 9.22539C4.75893 9.73705 5 10.3887 5 11.0626H6ZM7.5 3C9.41929 3 11 4.55695 11 6.46472H12C12 3.99318 9.96002 2 7.5 2V3ZM7.5 2C5.03998 2 3 3.99318 3 6.46472H4C4 4.55695 5.58071 3 7.5 3V2Z" fill="var(--mw-icon-glyph-content-gray, #616162)"/>
<path d="M5.5 11.5V10.5H9.5V11.5C9.5 12.0523 9.05228 12.5 8.5 12.5H6.5C5.94772 12.5 5.5 12.0523 5.5 11.5Z" fill="var(--mw-icon-background-default-medium-gray, #D9D9D9)" stroke="var(--mw-icon-glyph-content-gray, #616162)"/>
<path d="M7.5 10V6.5M7.5 6.5C7.5 5.94772 7.05228 5.5 6.5 5.5C5.94772 5.5 5.5 5.94772 5.5 6.5C5.5 7.05228 5.94772 7.5 6.5 7.5H7M7.5 6.5C7.5 5.94772 7.94772 5.5 8.5 5.5C9.05228 5.5 9.5 5.94772 9.5 6.5C9.5 7.05228 9.05228 7.5 8.5 7.5H8" stroke="var(--mw-icon-background-default-dark-gray, #A6A6A6)"/>
</svg>
