<svg width="16" height="16" viewBox="0 0 16 16" fill="none" xmlns="http://www.w3.org/2000/svg">
<path d="M3.5 1.5L3.5 13.5C3.5 14.0523 3.94772 14.5 4.5 14.5L14.5 14.5C15.0523 14.5 15.5 14.0523 15.5 13.5L15.5 3.91421C15.5 3.649 15.3946 3.39464 15.2071 3.20711L12.7929 0.792893C12.6054 0.605356 12.351 0.499999 12.0858 0.499999L4.5 0.5C3.94771 0.5 3.5 0.947716 3.5 1.5Z" fill="#2C733C" stroke="#2C733C"/>
<path d="M8.73242 4.8125L9.54492 6.71094L10.3184 4.8125H11.5801L10.209 7.62891L11.6074 10.5H10.2949L9.48633 8.55859L8.67773 10.5H7.39258L8.81445 7.60547L7.42383 4.8125H8.73242Z" fill="var(--mw-icon-background-default-white, #FFFFFF)"/>
</svg>
