<svg width="16" height="16" viewBox="0 0 16 16" fill="none" xmlns="http://www.w3.org/2000/svg">
<rect x="0.5" y="0.5" width="14" height="14" rx="2" fill="var(--mw-icon-background-default-action, #CBFFBE)"/>
<rect x="0.5" y="3" width="15" height="1" fill="var(--mw-icon-border-default-green, #008013)"/>
<rect x="7" y="1" width="1" height="2" fill="var(--mw-icon-border-default-green, #008013)"/>
<rect x="2" y="11" width="1" height="2" fill="var(--mw-icon-glyph-content-dark-green, #02580E)"/>
<rect x="4" y="11" width="1" height="2" fill="var(--mw-icon-glyph-content-dark-green, #02580E)"/>
<path d="M3.9958 5.05348L4.76224 6.41176L5.52867 5.05348H6.48811L5.3049 6.98396L6.51888 8.94652H5.55105L4.76224 7.5615L3.97343 8.94652H3L4.21678 6.98396L3.03077 5.05348H3.9958Z" fill="var(--mw-icon-glyph-content-dark-green, #02580E)"/>
<path d="M9.55944 8.32086V8.94652H7.50909V8.32086H9.55944ZM7.78042 5.05348V8.94652H6.94126V5.05348H7.78042Z" fill="var(--mw-icon-glyph-content-dark-green, #02580E)"/>
<path d="M12.1608 7.92781C12.1608 7.85829 12.1497 7.7959 12.1273 7.74064C12.1068 7.6836 12.0676 7.63191 12.0098 7.58556C11.952 7.53743 11.8709 7.4902 11.7664 7.44385C11.662 7.3975 11.5268 7.34938 11.3608 7.29947C11.1762 7.24242 11.0009 7.17825 10.835 7.10695C10.6709 7.03565 10.5254 6.95276 10.3986 6.85829C10.2737 6.76203 10.1748 6.65062 10.1021 6.52406C10.0312 6.3975 9.9958 6.25045 9.9958 6.08289C9.9958 5.92068 10.0331 5.77362 10.1077 5.64171C10.1823 5.50802 10.2867 5.39394 10.421 5.29947C10.5552 5.20321 10.7138 5.12923 10.8965 5.07754C11.0811 5.02585 11.2835 5 11.5035 5C11.8037 5 12.0657 5.05169 12.2895 5.15508C12.5133 5.25847 12.6867 5.40018 12.8098 5.58021C12.9347 5.76025 12.9972 5.96613 12.9972 6.19786H12.1636C12.1636 6.08378 12.1385 5.98396 12.0881 5.8984C12.0396 5.81105 11.965 5.74242 11.8643 5.69251C11.7655 5.6426 11.6406 5.61765 11.4895 5.61765C11.3441 5.61765 11.2228 5.63904 11.1259 5.68182C11.0289 5.72282 10.9562 5.77897 10.9077 5.85027C10.8592 5.91979 10.835 5.99822 10.835 6.08556C10.835 6.15152 10.8517 6.21123 10.8853 6.26471C10.9207 6.31818 10.973 6.36809 11.042 6.41444C11.111 6.46078 11.1958 6.50446 11.2965 6.54545C11.3972 6.58645 11.5138 6.62656 11.6462 6.66578C11.8681 6.72995 12.0629 6.80214 12.2308 6.88235C12.4005 6.96257 12.5422 7.05258 12.6559 7.15241C12.7697 7.25223 12.8555 7.36542 12.9133 7.49198C12.9711 7.61854 13 7.76203 13 7.92246C13 8.0918 12.9655 8.24332 12.8965 8.37701C12.8275 8.5107 12.7277 8.62389 12.5972 8.71658C12.4667 8.80927 12.311 8.87968 12.1301 8.92781C11.9492 8.97594 11.7469 9 11.5231 9C11.3217 9 11.1231 8.97504 10.9273 8.92513C10.7315 8.87344 10.5534 8.7959 10.393 8.69251C10.2345 8.58913 10.1077 8.45722 10.0126 8.29679C9.91748 8.13636 9.86993 7.94652 9.86993 7.72727H10.7119C10.7119 7.84848 10.7315 7.95098 10.7706 8.03476C10.8098 8.11854 10.8648 8.18627 10.9357 8.23797C11.0084 8.28966 11.0942 8.32709 11.193 8.35027C11.2937 8.37344 11.4037 8.38503 11.5231 8.38503C11.6685 8.38503 11.7879 8.36542 11.8811 8.3262C11.9762 8.28699 12.0462 8.23262 12.0909 8.1631C12.1375 8.09358 12.1608 8.01515 12.1608 7.92781Z" fill="var(--mw-icon-glyph-content-dark-green, #02580E)"/>
<rect x="0.5" y="0.5" width="14" height="14" rx="2" stroke="var(--mw-icon-border-default-green, #008013)"/>
</svg>
