<svg width="16" height="16" viewBox="0 0 16 16" fill="none" xmlns="http://www.w3.org/2000/svg">
<path d="M1.5 8.5C1.5 7.94772 1.94772 7.5 2.5 7.5C3.05228 7.5 3.5 7.94772 3.5 8.5C3.5 9.05228 3.05228 9.5 2.5 9.5C1.94772 9.5 1.5 9.05228 1.5 8.5ZM6.5 10.5C6.5 9.94772 6.94772 9.5 7.5 9.5C8.05228 9.5 8.5 9.94772 8.5 10.5C8.5 11.0523 8.05228 11.5 7.5 11.5C6.94772 11.5 6.5 11.0523 6.5 10.5ZM11.5 7.5C11.5 6.94772 11.9477 6.5 12.5 6.5C13.0523 6.5 13.5 6.94772 13.5 7.5C13.5 8.05228 13.0523 8.5 12.5 8.5C11.9477 8.5 11.5 8.05228 11.5 7.5Z" fill="var(--mw-icon-object-primary, #616160)" stroke="var(--mw-icon-object-primary, #616160)"/>
<path d="M4.5 2.5L6 4M6 4L7.5 5.5M6 4L7.5 2.5M6 4L4.5 5.5M11.5 11.5L13 13M13 13L14.5 14.5M13 13L14.5 11.5M13 13L11.5 14.5" stroke="var(--mw-icon-object-primary, #616160)"/>
</svg>
