<svg width="16" height="16" viewBox="0 0 16 16" fill="none" xmlns="http://www.w3.org/2000/svg">
<path d="M11 1.5H4C3.72386 1.5 3.5 1.72386 3.5 2V3C3.5 3.27614 3.72386 3.5 4 3.5H5.5V4.77646C5.5 4.92367 5.4675 5.06906 5.40482 5.20226L2.84193 10.6484C2.2177 11.9749 3.18553 13.5 4.65156 13.5H10.3484C11.8145 13.5 12.7823 11.9749 12.1581 10.6484L9.59518 5.20226C9.5325 5.06906 9.5 4.92367 9.5 4.77646V3.5H11C11.2761 3.5 11.5 3.27614 11.5 3V2C11.5 1.72386 11.2761 1.5 11 1.5Z" fill="var(--mw-icon-background-default-white, #FFFFFF)" stroke="var(--mw-icon-border-default-gray, #616161)" stroke-linecap="round" stroke-linejoin="round"/>
<path d="M6.3618 6.27639L3.8618 11.2764C3.69558 11.6088 3.93733 12 4.30902 12H10.691C11.0627 12 11.3044 11.6088 11.1382 11.2764L8.6382 6.27639C8.5535 6.107 8.38037 6 8.19098 6H6.80902C6.61963 6 6.4465 6.107 6.3618 6.27639Z" fill="var(--mw-icon-borderColor-light-blue, #268CDD)"/>
</svg>
