<svg width="16" height="16" viewBox="0 0 16 16" fill="none" xmlns="http://www.w3.org/2000/svg">
<mask id="path-1-inside-1_51372_8200" fill="var(--mw-icon-background-default-white, #FFFFFF)">
<path d="M0 14V2C0 0.895431 0.895431 0 2 0H14C15.1046 0 16 0.895431 16 2V14C16 15.1046 15.1046 16 14 16H2C0.895431 16 0 15.1046 0 14Z"/>
</mask>
<path d="M0 14V2C0 0.895431 0.895431 0 2 0H14C15.1046 0 16 0.895431 16 2V14C16 15.1046 15.1046 16 14 16H2C0.895431 16 0 15.1046 0 14Z" fill="white" stroke="var(--mw-icon-border-default-gray, #616161)" stroke-width="2" stroke-linecap="round" mask="url(#path-1-inside-1_51372_8200)"/>
<mask id="path-2-inside-2_51372_8200" fill="white">
<path d="M3 11V5C3 3.89543 3.89543 3 5 3H11C12.1046 3 13 3.89543 13 5V11C13 12.1046 12.1046 13 11 13H5C3.89543 13 3 12.1046 3 11Z"/>
</mask>
<path d="M3 11V5C3 3.89543 3.89543 3 5 3H11C12.1046 3 13 3.89543 13 5V11C13 12.1046 12.1046 13 11 13H5C3.89543 13 3 12.1046 3 11Z" fill="var(--mw-icon-background-default-medium-gray, #D9D9D9)" stroke="var(--mw-icon-glyph-content-gray, #616162)" stroke-width="2" stroke-linecap="round" mask="url(#path-2-inside-2_51372_8200)"/>
<line x1="5.5" y1="5" x2="5.5" y2="13" stroke="var(--mw-icon-glyph-content-gray, #616162)"/>
<line x1="4" y1="6.5" x2="5" y2="6.5" stroke="var(--mw-icon-glyph-content-gray, #616162)"/>
<mask id="path-5-inside-3_51372_8200" fill="white">
<path d="M3 4.25C3 3.41667 3.58824 3 4.47059 3H11.5294C12.4118 2.99999 13 3.51362 13 4.25V4.99999H8H3V4.25Z"/>
</mask>
<path d="M3 4.25C3 3.41667 3.58824 3 4.47059 3H11.5294C12.4118 2.99999 13 3.51362 13 4.25V4.99999H8H3V4.25Z" stroke="var(--mw-icon-glyph-content-gray, #616162)" stroke-width="2" stroke-linecap="round" stroke-linejoin="round" mask="url(#path-5-inside-3_51372_8200)"/>
<path d="M10.5 11V13.5L13.5 12V9.5L10.5 11Z" fill="var(--mw-icon-background-medium-blue, #83CAFF)" stroke="var(--mw-icon-glyph-content-blue, #1656A8)" stroke-linejoin="round"/>
<path d="M7.5 12V9.5L10.5 11V13.5L7.5 12Z" fill="white" stroke="var(--mw-icon-glyph-content-blue, #1656A8)" stroke-linejoin="round"/>
<path d="M7.5 9.5L10.5 8L13.5 9.5L10.5 11L7.5 9.5Z" fill="var(--mw-icon-background-default-selection, #B4DEFF)" stroke="var(--mw-icon-glyph-content-blue, #1656A8)" stroke-linejoin="round"/>
</svg>
