<svg width="16" height="16" viewBox="0 0 16 16" fill="none" xmlns="http://www.w3.org/2000/svg">
<path d="M11.5 0.5H1.5C0.947715 0.5 0.5 0.947715 0.5 1.5V11.5C0.5 12.0523 0.947715 12.5 1.5 12.5H11.5C12.0523 12.5 12.5 12.0523 12.5 11.5V1.5C12.5 0.947715 12.0523 0.5 11.5 0.5Z" fill="var(--mw-icon-background-default-white, #FFFFFF)" stroke="var(--mw-icon-border-default-gray, #616161)" stroke-linecap="round"/>
<path fill-rule="evenodd" clip-rule="evenodd" d="M0.651615 7.63531C1.02238 8.27438 1.3858 8.77922 1.73982 9.15669C2.31431 9.76923 2.81661 9.99832 3.25012 9.99832C3.68363 9.99832 4.18593 9.76923 4.76043 9.15669C5.33431 8.5448 5.93287 7.59821 6.54743 6.2877C7.18287 4.93266 7.83431 3.88008 8.51043 3.15919C9.18593 2.43895 9.93363 2.00165 10.7501 2.00165C11.1866 2.00165 11.6035 2.12663 12.0001 2.35301V3.58699C11.5328 3.16561 11.1169 3.00165 10.7501 3.00165C10.3166 3.00165 9.81431 3.23074 9.23982 3.84328C8.66594 4.45517 8.06738 5.40176 7.45282 6.71228C6.81738 8.06732 6.16593 9.1199 5.48982 9.84079C4.81431 10.561 4.06661 10.9983 3.25012 10.9983C2.43363 10.9983 1.68593 10.561 1.01043 9.84079C0.890057 9.71245 0.77047 9.57359 0.651615 9.42439V7.63531Z" fill="#1171BE"/>
<path fill-rule="evenodd" clip-rule="evenodd" d="M0.99999 9.77691C1.23454 9.64252 1.48434 9.44114 1.74972 9.15728C2.32173 8.54543 2.91838 7.59884 3.531 6.28825C4.16437 4.93328 4.81371 3.8807 5.4877 3.15977C6.16099 2.43959 6.90683 2.00165 7.72194 2.00165C8.53705 2.00165 9.28289 2.43959 9.95617 3.15977C10.6302 3.8807 11.2795 4.93328 11.9129 6.28825L11.9174 6.298L11.9216 6.30793L12.9616 8.80793C13.0677 9.06289 12.947 9.35556 12.692 9.46163C12.4371 9.5677 12.1444 9.447 12.0383 9.19204L11.0024 6.70203C10.3914 5.39647 9.79628 4.45303 9.22568 3.84269C8.65298 3.2301 8.15282 3.00165 7.72194 3.00165C7.29105 3.00165 6.7909 3.2301 6.21819 3.84269C5.64619 4.45454 5.04953 5.40113 4.43691 6.71172C3.80354 8.06669 3.1542 9.11927 2.48021 9.8402C2.02031 10.3321 1.52655 10.6924 0.99999 10.8713V9.77691Z" fill="#DD5400"/>
<path d="M11.5 0.5H1.5C0.947715 0.5 0.5 0.947715 0.5 1.5V11.5C0.5 12.0523 0.947715 12.5 1.5 12.5H11.5C12.0523 12.5 12.5 12.0523 12.5 11.5V1.5C12.5 0.947715 12.0523 0.5 11.5 0.5Z" stroke="var(--mw-icon-border-default-gray, #616161)" stroke-linecap="round"/>
<path d="M5.5 6.5C5.5 5.94772 5.94772 5.5 6.5 5.5H14.5C15.0523 5.5 15.5 5.94772 15.5 6.5V14.5C15.5 15.0523 15.0523 15.5 14.5 15.5H6.5C5.94772 15.5 5.5 15.0523 5.5 14.5V6.5Z" fill="white" stroke="var(--mw-icon-border-default-gray, #616161)"/>
<path d="M10.5 11.5V13.5L14.5 10.5L10.5 7.5V9.5H10C8.61929 9.5 7.5 10.6193 7.5 12V15C7.5 13.4632 9.02724 11.5 10.5 11.5Z" fill="var(--mw-icon-background-default-action, #CBFFBE)" stroke="var(--mw-icon-glyph-content-green, #008014)" stroke-linecap="square"/>
</svg>
