<svg width="16" height="16" viewBox="0 0 16 16" fill="none" xmlns="http://www.w3.org/2000/svg">
<path d="M0.5 2.5H12.5V10C12.5 10.2761 12.2761 10.5 12 10.5H1C0.723858 10.5 0.5 10.2761 0.5 10V2.5Z" fill="var(--mw-icon-background-default-white, #FFFFFF)" stroke="var(--mw-icon-border-default-gray, #616161)"/>
<path d="M0.5 1C0.5 0.723858 0.723858 0.5 1 0.5H12C12.2761 0.5 12.5 0.723858 12.5 1V2.5H0.5V1Z" fill="var(--mw-icon-background-default-selection, #B4DEFF)"/>
<path d="M12.5 2.5V3H13V2.5H12.5ZM0.5 2.5H0V3H0.5V2.5ZM1 1H12V0H1V1ZM12 1V2.5H13V1H12ZM12.5 2H0.5V3H12.5V2ZM1 2.5V1H0V2.5H1ZM12 1H13C13 0.447715 12.5523 0 12 0V1ZM1 0C0.447715 0 0 0.447715 0 1H1V0Z" fill="var(--mw-icon-border-default-blue, #1656A7)"/>
<path d="M4 8H10V9H4V8Z" fill="var(--mw-icon-glyph-content-gray, #616162)"/>
<path d="M4 6H9V7H4V6Z" fill="var(--mw-icon-glyph-content-gray, #616162)"/>
<path d="M10.5 5H11V4H10.5V5ZM4.5 4H4V5H4.5V4ZM2 5H3V4H2V5ZM10.5 4H4.5V5H10.5V4Z" fill="var(--mw-icon-glyph-content-red, #902623)"/>
<path d="M5.5 6.5C5.5 5.94772 5.94772 5.5 6.5 5.5H14.5C15.0523 5.5 15.5 5.94772 15.5 6.5V14.5C15.5 15.0523 15.0523 15.5 14.5 15.5H6.5C5.94772 15.5 5.5 15.0523 5.5 14.5V6.5Z" fill="white" stroke="var(--mw-icon-border-default-gray, #616161)"/>
<path d="M10.5 11.5V13.5L14.5 10.5L10.5 7.5V9.5H10C8.61929 9.5 7.5 10.6193 7.5 12V15C7.5 13.4632 9.02724 11.5 10.5 11.5Z" fill="var(--mw-icon-background-default-action, #CBFFBE)" stroke="var(--mw-icon-border-default-green, #008013)" stroke-linecap="square"/>
</svg>
