<svg width="16" height="16" viewBox="0 0 16 16" fill="none" xmlns="http://www.w3.org/2000/svg">
<path d="M2.16663 2.1665H11.5L11.5 10.9998C11.5 11.2759 11.2761 11.4998 11 11.4998L2.16663 11.4998V2.1665Z" fill="var(--mw-icon-background-default-white, #FFFFFF)" stroke="var(--mw-icon-border-default-gray, #616161)"/>
<path d="M3.5 0.5H11C11.2761 0.5 11.5 0.723857 11.5 1V3.5H3.5V0.5Z" fill="var(--mw-icon-background-default-selection, #B4DEFF)"/>
<path d="M1 11.5C0.723858 11.5 0.500001 11.2761 0.500001 11L0.5 1.00001C0.5 0.723865 0.723856 0.500009 0.999997 0.500007L3.5 0.5L3.5 11.5H1Z" fill="var(--mw-icon-background-default-selection, #B4DEFF)"/>
<path d="M3.5 0.5H11C11.2761 0.5 11.5 0.723857 11.5 1V3.5H3.5V0.5ZM3.5 0.5L0.999997 0.500007C0.723856 0.500009 0.5 0.723865 0.5 1.00001L0.500001 11C0.500001 11.2761 0.723858 11.5 1 11.5H3.5L3.5 0.5Z" stroke="var(--mw-icon-border-default-blue, #1656A7)"/>
<path d="M7.5 3V1M1 3.5H3M1 7.5H3" stroke="var(--mw-icon-border-default-blue, #1656A7)"/>
<path d="M4.5 7H4V8H4.5V7ZM10.5 8H11V7H10.5V8ZM8 4.5V4H7V4.5H8ZM7 10.5V11H8V10.5H7ZM4.5 8H10.5V7H4.5V8ZM7 4.5V10.5H8V4.5H7Z" fill="var(--mw-icon-border-default-gray, #616161)"/>
<path d="M5.5 6.5C5.5 5.94772 5.94772 5.5 6.5 5.5H14.5C15.0523 5.5 15.5 5.94772 15.5 6.5V14.5C15.5 15.0523 15.0523 15.5 14.5 15.5H6.5C5.94772 15.5 5.5 15.0523 5.5 14.5V6.5Z" fill="white" stroke="var(--mw-icon-border-default-gray, #616161)"/>
<path d="M10.5 11.5V13.5L14.5 10.5L10.5 7.5V9.5H10C8.61929 9.5 7.5 10.6193 7.5 12V15C7.5 13.4632 9.02724 11.5 10.5 11.5Z" fill="var(--mw-icon-background-default-action, #CBFFBE)" stroke="var(--mw-icon-border-default-green, #008013)" stroke-linecap="square"/>
</svg>
