<svg width="16" height="16" viewBox="0 0 16 16" fill="none" xmlns="http://www.w3.org/2000/svg">
<path d="M7.5 9.5L7.5 13.5L15 7.5L7.5 1.5L7.5 5.5C3.63401 5.5 0.5 8.63401 0.5 12.5L0.5 15C0.5 12.0265 2.87687 9.59849 5.84966 9.53516L7.5 9.5Z" fill="var(--mw-icon-background-default-action, #CBFFBE)"/>
<path d="M7.5 13.5L7 13.5L7 14.5403L7.81235 13.8904L7.5 13.5ZM7.5 9.5L8 9.5L8 8.98923L7.48935 9.00011L7.5 9.5ZM5.84966 9.53516L5.83901 9.03527L5.84966 9.53516ZM7.5 5.5L7.5 6L8 6L8 5.5L7.5 5.5ZM7.5 1.5L7.81235 1.10957L7 0.459687L7 1.5L7.5 1.5ZM15 7.5L15.3123 7.89043L15.8004 7.5L15.3123 7.10957L15 7.5ZM8 13.5L8 9.5L7 9.5L7 13.5L8 13.5ZM7.48935 9.00011L5.83901 9.03527L5.86031 10.035L7.51065 9.99989L7.48935 9.00011ZM1 15L1 12.5L-1.09278e-07 12.5L0 15L1 15ZM8 5.5L8 1.5L7 1.5L7 5.5L8 5.5ZM7.18765 1.89043L14.6877 7.89043L15.3123 7.10957L7.81235 1.10957L7.18765 1.89043ZM14.6877 7.10957L7.18765 13.1096L7.81235 13.8904L15.3123 7.89043L14.6877 7.10957ZM1 12.5C1 8.91015 3.91015 6 7.5 6L7.5 5C3.35786 5 -2.90337e-07 8.35786 -1.09278e-07 12.5L1 12.5ZM5.83901 9.03527C2.59429 9.10439 -1.41863e-07 11.7545 0 15L1 15C1 12.2985 3.15945 10.0926 5.86031 10.035L5.83901 9.03527Z" fill="var(--mw-icon-border-default-green, #008013)"/>

</svg>
