<svg width="16" height="16" viewBox="0 0 16 16" fill="none" xmlns="http://www.w3.org/2000/svg">
<path d="M5 5.5H6.5M6.5 5.5V2.5H8M6.5 5.5V8.5H8" stroke="var(--mw-icon-object-primary, #616160)" stroke-linecap="square" stroke-linejoin="round"/>
<path d="M4.5 3.5L0.5 3.5L0.5 7.5H4.5V3.5Z" fill="var(--mw-icon-background-default-medium-gray, #D9D9D9)" stroke="var(--mw-icon-border-default-gray, #616161)" stroke-linecap="square" stroke-linejoin="round"/>
<path d="M1 6.59998H4" stroke="var(--mw-icon-glyph-disabled-gray, #888889)"/>
<path d="M12.5 0.5L8.5 0.5V4.5H12.5V0.5Z" fill="var(--mw-icon-background-default-medium-gray, #D9D9D9)" stroke="var(--mw-icon-border-default-gray, #616161)" stroke-linecap="square" stroke-linejoin="round"/>
<path d="M9 3.59998H12" stroke="var(--mw-icon-glyph-disabled-gray, #888889)"/>
<path d="M12.5 6.5H8.5V10.5H12.5V6.5Z" fill="var(--mw-icon-background-default-medium-gray, #D9D9D9)" stroke="var(--mw-icon-border-default-gray, #616161)" stroke-linecap="square" stroke-linejoin="round"/>
<path d="M9 9.59998H12" stroke="var(--mw-icon-glyph-disabled-gray, #888889)"/>
<path d="M5.5 6.5C5.5 5.94772 5.94772 5.5 6.5 5.5H14.5C15.0523 5.5 15.5 5.94772 15.5 6.5V14.5C15.5 15.0523 15.0523 15.5 14.5 15.5H6.5C5.94772 15.5 5.5 15.0523 5.5 14.5V6.5Z" fill="var(--mw-icon-background-default-white, #FFFFFF)" stroke="var(--mw-icon-border-default-gray, #616161)"/>
<path d="M10.5 11.5V13.5L14.5 10.5L10.5 7.5V9.5H10C8.61929 9.5 7.5 10.6193 7.5 12V15C7.5 13.4632 9.02724 11.5 10.5 11.5Z" fill="var(--mw-icon-background-default-action, #CBFFBE)" stroke="var(--mw-icon-border-default-green, #008013)" stroke-linecap="square"/>
</svg>
