<svg width="16" height="16" viewBox="0 0 16 16" fill="none" xmlns="http://www.w3.org/2000/svg">
<path d="M10.5 0.5H1.5C0.947715 0.5 0.5 0.947715 0.5 1.5V10.5C0.5 11.0523 0.947715 11.5 1.5 11.5H10.5C11.0523 11.5 11.5 11.0523 11.5 10.5V1.5C11.5 0.947715 11.0523 0.5 10.5 0.5Z" fill="var(--mw-icon-background-default-white, #FFFFFF)" stroke="var(--mw-icon-border-default-gray, #616161)" stroke-linecap="round"/>
<path d="M2.5 6.5H8.5V9.5H2.5V6.5Z" fill="var(--mw-icon-background-default-selection, #B4DEFF)" stroke="var(--mw-icon-glyph-content-light-blue, #278CDD)"/>
<path d="M4.5 4.5H6.5" stroke="var(--mw-icon-glyph-content-gray, #616162)" stroke-linecap="square"/>
<path d="M2.5 2.5H4.5" stroke="var(--mw-icon-glyph-content-red, #902623)" stroke-linecap="square"/>
<path d="M5.5 6.5C5.5 5.94772 5.94772 5.5 6.5 5.5H14.5C15.0523 5.5 15.5 5.94772 15.5 6.5V14.5C15.5 15.0523 15.0523 15.5 14.5 15.5H6.5C5.94772 15.5 5.5 15.0523 5.5 14.5V6.5Z" fill="white" stroke="var(--mw-icon-border-default-gray, #616161)"/>
<path d="M10.5 11.5V13.5L14.5 10.5L10.5 7.5V9.5H10C8.61929 9.5 7.5 10.6193 7.5 12V15C7.5 13.4632 9.02724 11.5 10.5 11.5Z" fill="var(--mw-icon-background-default-action, #CBFFBE)" stroke="var(--mw-icon-glyph-content-green, #008014)" stroke-linecap="square"/>
</svg>
