<svg width="16" height="16" viewBox="0 0 16 16" fill="none" xmlns="http://www.w3.org/2000/svg">
<path d="M13 12L9 8L11 6L15 10C15.5523 10.5523 15.5523 11.4477 15 12C14.4477 12.5523 13.5523 12.5523 13 12Z" fill="var(--mw-icon-background-default-medium-gray, #D9D9D9)" stroke="var(--mw-icon-border-default-gray, #616161)"/>
<path d="M11.182 1.81802C12.9394 3.57538 12.9393 6.42462 11.1819 8.18198C9.42457 9.93934 6.57533 9.93934 4.81799 8.18198C3.06065 6.42462 3.06067 3.57538 4.81805 1.81802C6.57543 0.0606602 9.42467 0.0606602 11.182 1.81802Z" fill="var(--mw-icon-background-default-white, #FFFFFF)" stroke="var(--mw-icon-border-default-gray, #616161)"/>
<path d="M0.5 6.5C0.5 5.94772 0.947715 5.5 1.5 5.5H9.5C10.0523 5.5 10.5 5.94772 10.5 6.5V14.5C10.5 15.0523 10.0523 15.5 9.5 15.5H1.5C0.947715 15.5 0.5 15.0523 0.5 14.5V6.5Z" fill="white" stroke="var(--mw-icon-border-default-gray, #616161)"/>
<path d="M5.5 11.5V13.5L9.5 10.5L5.5 7.5V9.5H5C3.61929 9.5 2.5 10.6193 2.5 12V15C2.5 13.4632 4.02724 11.5 5.5 11.5Z" fill="var(--mw-icon-background-default-action, #CBFFBE)" stroke="var(--mw-icon-glyph-content-green, #008014)" stroke-linecap="square"/>
</svg>
