<svg width="16" height="16" viewBox="0 0 16 16" fill="none" xmlns="http://www.w3.org/2000/svg">
<path d="M0.5 11V3.58114C0.5 3.5274 0.508664 3.47401 0.525658 3.42302L1.38604 0.841886C1.45409 0.637715 1.64516 0.5 1.86038 0.5H6.13962C6.35484 0.5 6.54591 0.637715 6.61396 0.841886L7.47434 3.42302C7.49134 3.47401 7.5 3.5274 7.5 3.58114V11C7.5 11.2761 7.27614 11.5 7 11.5H1C0.723858 11.5 0.5 11.2761 0.5 11Z" fill="var(--mw-icon-background-default-selection, #B4DEFF)" stroke="var(--mw-icon-border-default-blue, #1656A7)" stroke-linejoin="round"/>
<path d="M2.5 9.5L4 5.5L5.5 9.5M3 8.5H5" stroke="var(--mw-icon-glyph-content-blue, #1656A8)" stroke-linecap="round" stroke-linejoin="round"/>
<mask id="path-3-inside-1_17578_196504" fill="var(--mw-icon-background-default-white, #FFFFFF)">
<path d="M4.99998 3C4.99998 3.55228 4.55227 4 3.99998 4C3.4477 4 2.99998 3.55228 2.99998 3C2.99998 2.44772 3.4477 2 3.99998 2C4.55227 2 4.99998 2.44772 4.99998 3Z"/>
</mask>
<path d="M4.99998 3C4.99998 3.55228 4.55227 4 3.99998 4C3.4477 4 2.99998 3.55228 2.99998 3C2.99998 2.44772 3.4477 2 3.99998 2C4.55227 2 4.99998 2.44772 4.99998 3Z" stroke="var(--mw-icon-glyph-content-blue, #1656A8)" stroke-width="2" mask="url(#path-3-inside-1_17578_196504)"/>
<path d="M5.5 6.5C5.5 5.94772 5.94772 5.5 6.5 5.5H14.5C15.0523 5.5 15.5 5.94772 15.5 6.5V14.5C15.5 15.0523 15.0523 15.5 14.5 15.5H6.5C5.94772 15.5 5.5 15.0523 5.5 14.5V6.5Z" fill="white" stroke="var(--mw-icon-border-default-gray, #616161)"/>
<path d="M10.5 11.5V13.5L14.5 10.5L10.5 7.5V9.5H10C8.61929 9.5 7.5 10.6193 7.5 12V15C7.5 13.4632 9.02724 11.5 10.5 11.5Z" fill="var(--mw-icon-background-default-action, #CBFFBE)" stroke="var(--mw-icon-border-default-green, #008013)" stroke-linecap="square"/>
</svg>
