<svg width="16" height="16" viewBox="0 0 16 16" fill="none" xmlns="http://www.w3.org/2000/svg">
<path d="M0.5 1.5C0.5 0.947715 0.947715 0.5 1.5 0.5H10.5C11.0523 0.5 11.5 0.947715 11.5 1.5V10.5C11.5 11.0523 11.0523 11.5 10.5 11.5H1.5C0.947715 11.5 0.5 11.0523 0.5 10.5V1.5Z" fill="var(--mw-icon-background-default-white, #FFFFFF)" stroke="var(--mw-icon-border-default-gray, #616161)"/>
<path d="M3.81817 3.42131H2.88963L2.72574 4.15981H3.62234L2.81275 7.96839C2.70156 8.48293 2.57256 8.84779 2.43245 9.07903C2.31676 9.26998 2.21182 9.34268 2.12301 9.36219C2.147 9.3135 2.17535 9.24124 2.17535 9.14649C2.17535 8.99179 2.1185 8.84583 2.00954 8.73843C1.90033 8.63078 1.75106 8.57385 1.58767 8.57385C1.24541 8.57385 1 8.87218 1 9.19491C1 9.70338 1.48865 10 1.99054 10C2.52697 10 2.97337 9.71061 3.32834 9.21134C3.67972 8.71711 3.95556 8.00029 4.16465 7.09248L4.8341 4.15981H5.86709L5.88467 4.2522L6.28388 4.1429C6.46698 4.09546 6.56231 4.08232 6.61191 4.08232C6.66573 4.08232 6.6847 4.08726 6.69091 4.08961L6.69274 4.09053C6.69274 4.09053 6.69703 4.09403 6.70351 4.10318C6.71821 4.12395 6.73944 4.16506 6.76648 4.24627C6.79298 4.32584 6.82145 4.43268 6.85539 4.576L7.10858 5.68125L6.35859 6.72702C6.25964 6.86635 6.17021 6.97313 6.09769 7.04256C6.06172 7.077 6.03456 7.09775 6.01659 7.10875C6.00908 7.10713 5.99889 7.10451 5.98607 7.1003C5.95689 7.09071 5.92199 7.0752 5.8859 7.05386L5.87716 7.04922C5.74769 6.9805 5.60824 6.91768 5.46227 6.91768C5.13438 6.91768 4.9139 7.18204 4.9139 7.48063C4.9139 7.66386 4.98423 7.82857 5.12289 7.94346C5.25676 8.05437 5.43315 8.10169 5.61948 8.10169C5.79921 8.10169 5.96964 8.07447 6.15635 7.95124C6.32964 7.83688 6.50549 7.64669 6.72437 7.35741L7.31802 6.56613L7.49447 7.27982C7.55487 7.5278 7.6307 7.73556 7.75734 7.88063C7.89806 8.04182 8.07862 8.10169 8.28233 8.10169C8.52918 8.10169 8.73672 8.01881 8.95303 7.82C9.15668 7.63283 9.37579 7.33596 9.66046 6.90056L9.78312 6.71295L9.28377 6.41763L9.16734 6.56109C9.11459 6.62607 9.07598 6.67806 9.03279 6.73622C9.00991 6.76702 8.98574 6.79955 8.95752 6.83666C8.8449 6.9814 8.77341 7.06203 8.72086 7.10668C8.69624 7.1276 8.68168 7.13539 8.67506 7.13824L8.67183 7.13949C8.67005 7.13749 8.66783 7.13478 8.66522 7.13122C8.64207 7.09962 8.611 7.03287 8.57875 6.90603L8.26461 5.60935L8.26405 5.60712C8.22195 5.44115 8.20313 5.33585 8.19589 5.27527C8.39583 4.93481 8.57417 4.67208 8.72039 4.49462C8.79787 4.40057 8.86143 4.33652 8.9099 4.29791C8.93375 4.27892 8.94866 4.27032 8.95556 4.26672C9.00892 4.26951 9.04867 4.28773 9.1114 4.32219L9.12754 4.33118C9.19396 4.36835 9.30587 4.43099 9.45163 4.43099C9.60486 4.43099 9.74555 4.37324 9.84735 4.26663C9.94843 4.16076 10 4.01867 10 3.86804C10 3.7019 9.93323 3.55321 9.81461 3.44839C9.69809 3.34542 9.54425 3.2954 9.38285 3.2954C9.09607 3.2954 8.84721 3.41606 8.59015 3.65731C8.41245 3.82408 8.22271 4.05598 8.00446 4.36196L7.99087 4.29833C7.92238 3.97054 7.85286 3.72826 7.75374 3.56698C7.70109 3.48131 7.63461 3.40891 7.54706 3.36008C7.45924 3.31109 7.36738 3.2954 7.28008 3.2954C7.01498 3.2954 6.66078 3.37461 6.05814 3.58884L6.00691 3.6072L6.04227 3.42131H4.99224C5.12078 2.79622 5.26221 2.35176 5.42034 2.05964C5.57662 1.77094 5.72782 1.66593 5.87386 1.64553C5.85203 1.69956 5.8344 1.76766 5.8344 1.85351C5.8344 2.21443 6.12742 2.44552 6.41224 2.44552C6.76332 2.44552 7.03922 2.13935 7.03922 1.81477C7.03922 1.55785 6.90302 1.34726 6.70647 1.20866C6.51246 1.07185 6.25575 1 5.9799 1C5.28566 1 4.82569 1.38746 4.50815 1.83599C4.18646 2.2877 4.01173 2.80774 3.81817 3.42131Z" fill="var(--mw-icon-glyph-content-gray, #616162)"/>
<path d="M5.5 6.5C5.5 5.94772 5.94772 5.5 6.5 5.5H14.5C15.0523 5.5 15.5 5.94772 15.5 6.5V14.5C15.5 15.0523 15.0523 15.5 14.5 15.5H6.5C5.94772 15.5 5.5 15.0523 5.5 14.5V6.5Z" fill="white" stroke="var(--mw-icon-border-default-gray, #616161)"/>
<path d="M10.5 11.5V13.5L14.5 10.5L10.5 7.5V9.5H10C8.61929 9.5 7.5 10.6193 7.5 12V15C7.5 13.4632 9.02724 11.5 10.5 11.5Z" fill="var(--mw-icon-background-default-action, #CBFFBE)" stroke="var(--mw-icon-border-default-green, #008013)" stroke-linecap="square"/>
</svg>
