<svg width="16" height="16" viewBox="0 0 16 16" fill="none" xmlns="http://www.w3.org/2000/svg">
<g id="export_image">
<g id="Group 564">
<g id="Group 581">
<path id="Vector 649" d="M0.5 9.5V0.5H12.5V9.5H0.5Z" fill="var(--mw-icon-background-default-white, #FFFFFF)" stroke="var(--mw-icon-border-default-gray, #616161)" stroke-linecap="square" stroke-linejoin="round"/>
<path id="Vector 651" d="M2.5 7.5V2.5H10.5V7.5H2.5Z" fill="white" stroke="var(--mw-icon-glyph-content-gray, #616162)" stroke-linecap="square"/>
<ellipse id="Ellipse 104" cx="8.40001" cy="3.97732" rx="0.8" ry="0.772727" fill="var(--mw-icon-glyph-content-gray, #616162)"/>
<path id="Vector 650" d="M10 6H7.2L6.15 5L5.45 5.66667L3.7 4L3 4.66667" stroke="var(--mw-icon-glyph-content-gray, #616162)" stroke-linecap="square"/>
</g>
<rect id="Rectangle 1416" x="5.5" y="5.5" width="10" height="10" rx="1" fill="white" stroke="var(--mw-icon-border-default-gray, #616161)"/>
<g id="Vector 323">
<path d="M10.3246 11.303L10.3246 13.1212L13.8333 10.2121L10.3246 7.66663L10.3246 9.48481C8.5805 9.48481 7.16667 10.8986 7.16667 12.6427L7.16667 13.6666C7.16667 12.3612 8.2249 11.303 9.5303 11.303L10.3246 11.303Z" fill="var(--mw-icon-background-default-action, #CBFFBE)"/>
<path d="M10.3246 13.1212L9.82456 13.1212L9.82456 14.1852L10.6437 13.5061L10.3246 13.1212ZM10.3246 11.303L10.8246 11.303L10.8246 10.803L10.3246 10.803L10.3246 11.303ZM9.5303 11.303L9.5303 11.803L9.5303 11.303ZM10.3246 9.48481L10.3246 9.98481L10.8246 9.98481L10.8246 9.48481L10.3246 9.48481ZM10.3246 7.66663L10.6182 7.26191L9.82456 6.68618L9.82456 7.66663L10.3246 7.66663ZM13.8333 10.2121L14.1525 10.597L14.6485 10.1857L14.1269 9.80736L13.8333 10.2121ZM10.8246 13.1212L10.8246 11.303L9.82456 11.303L9.82456 13.1212L10.8246 13.1212ZM10.3246 10.803L9.5303 10.803L9.5303 11.803L10.3246 11.803L10.3246 10.803ZM7.66667 13.6666L7.66667 12.6427L6.66667 12.6427L6.66667 13.6666L7.66667 13.6666ZM10.8246 9.48481L10.8246 7.66663L9.82456 7.66663L9.82456 9.48481L10.8246 9.48481ZM10.031 8.07134L13.5397 10.6168L14.1269 9.80736L10.6182 7.26191L10.031 8.07134ZM13.5142 9.82717L10.0054 12.7363L10.6437 13.5061L14.1525 10.597L13.5142 9.82717ZM7.66667 12.6427C7.66667 11.1748 8.85665 9.98481 10.3246 9.98481L10.3246 8.98481C8.30436 8.98481 6.66667 10.6225 6.66667 12.6427L7.66667 12.6427ZM9.5303 10.803C7.94876 10.803 6.66667 12.0851 6.66667 13.6666L7.66667 13.6666C7.66667 12.6374 8.50105 11.803 9.5303 11.803L9.5303 10.803Z" fill="var(--mw-icon-border-default-green, #008013)"/>
</g>
</g>
</g>
</svg>
