<svg width="16" height="16" viewBox="0 0 16 16" fill="none" xmlns="http://www.w3.org/2000/svg">
<path d="M6.08579 0.5H1.5C0.947715 0.5 0.5 0.947715 0.5 1.5V10.5C0.5 11.0523 0.947715 11.5 1.5 11.5H8.5C9.05229 11.5 9.5 11.0523 9.5 10.5V3.91421C9.5 3.649 9.39464 3.39464 9.20711 3.20711L6.79289 0.792893C6.60536 0.605357 6.351 0.5 6.08579 0.5Z" fill="var(--mw-icon-background-default-white, #FFFFFF)" stroke="var(--mw-icon-border-default-gray, #616161)" stroke-linecap="round"/>
<path fill-rule="evenodd" clip-rule="evenodd" d="M5.22763 2.32393C5.32682 2.52433 5.36178 2.80302 5.36867 3.12458C5.37588 3.46115 5.30347 3.88817 5.23242 4.22263C5.19651 4.39165 5.1602 4.54038 5.13285 4.64689C5.11966 4.69828 5.10854 4.73992 5.10053 4.76937C5.21738 5.0505 5.42079 5.37148 5.60368 5.63184C5.69908 5.76766 5.78719 5.8846 5.85142 5.96755C5.8763 5.99968 5.89757 6.02667 5.91425 6.04763C5.95062 6.04084 6.00397 6.03233 6.07951 6.02331C6.24611 6.0034 6.52207 5.98082 6.96411 5.96885C7.42582 5.95636 7.68989 6.10517 7.83738 6.2907C7.98232 6.47302 7.99592 6.66799 7.99836 6.70302C8.00068 6.73646 8.01241 6.90537 7.91057 7.07077C7.80545 7.24151 7.60077 7.37638 7.23031 7.39346C6.84367 7.41129 6.46302 7.18132 6.18976 6.96342C6.05095 6.85273 5.93505 6.74125 5.85383 6.65746C5.81742 6.61989 5.78784 6.58775 5.76615 6.56356C5.73494 6.56986 5.69233 6.57866 5.64295 6.58936C5.53795 6.6121 5.40362 6.64314 5.28355 6.6768C5.16297 6.7106 4.9049 6.79251 4.67491 6.86667C4.56037 6.90361 4.45348 6.9384 4.37521 6.96396L4.29206 6.99117C4.28572 7.00431 4.27808 7.01999 4.2691 7.03816C4.23853 7.1 4.19251 7.19053 4.13014 7.30655C4.00541 7.53859 3.81524 7.87261 3.55238 8.28303C3.27908 8.70976 2.98148 8.92093 2.71728 8.9815C2.45773 9.041 2.22087 8.95376 2.10447 8.76634L2.10387 8.76538C2.04674 8.6716 2.01195 8.57229 2.00257 8.46689C1.99321 8.36177 2.00987 8.25883 2.04504 8.15876C2.11366 7.96348 2.25719 7.76742 2.44154 7.56158C2.63888 7.34123 2.95706 7.14732 3.21504 7.01139C3.34602 6.94238 3.46524 6.88642 3.55171 6.8477C3.59282 6.82929 3.62662 6.81474 3.65088 6.8045C3.65372 6.798 3.65685 6.79079 3.66028 6.78288C3.67952 6.73839 3.70793 6.67152 3.74423 6.58277C3.81683 6.40527 3.92098 6.14024 4.04648 5.79173C4.17149 5.44459 4.28069 5.09683 4.35873 4.83546C4.39772 4.70489 4.42885 4.59612 4.45022 4.52009C4.45867 4.49 4.4656 4.46505 4.47087 4.44591C4.46424 4.42694 4.45581 4.40242 4.44603 4.3731C4.42147 4.29955 4.38827 4.19558 4.35352 4.07341C4.28448 3.83069 4.20735 3.50943 4.18183 3.21008C4.15611 2.89155 4.15469 2.59867 4.22351 2.38165C4.25908 2.26948 4.31512 2.17157 4.40002 2.10249C4.48478 2.03351 4.58851 2.00122 4.70754 2.00004C4.82412 1.99888 4.92811 2.02409 5.01769 2.08034C5.10786 2.13696 5.17657 2.22076 5.22763 2.32393ZM4.66263 3.74269C4.67263 3.69912 4.68295 3.65284 4.69326 3.60482C4.75102 3.33561 4.80453 3.02752 4.80287 2.82813C4.80111 2.618 4.77104 2.52738 4.74839 2.49092C4.73329 2.46662 4.71787 2.45945 4.68538 2.45945C4.67799 2.45945 4.65108 2.46141 4.62016 2.52437C4.58814 2.58957 4.55661 2.71359 4.55355 2.93348V2.96891C4.55355 3.20469 4.59225 3.45441 4.64118 3.65846C4.64819 3.6877 4.65538 3.71584 4.66263 3.74269ZM6.31088 6.46221C6.53134 6.6543 6.7798 6.78516 6.98503 6.83101C7.1186 6.86085 7.21834 6.85126 7.2788 6.8185C7.30711 6.80315 7.32578 6.78344 7.33805 6.76018C7.3505 6.73658 7.36043 6.70158 7.36043 6.64865C7.36043 6.611 7.35009 6.58439 7.33052 6.56068C7.30842 6.53389 7.27103 6.50717 7.21409 6.4846C7.09923 6.43908 6.9371 6.42275 6.76314 6.42474C6.60138 6.4266 6.43852 6.44406 6.31088 6.46221ZM5.41142 6.18129C5.3093 6.20329 5.16666 6.23858 4.97804 6.2949C4.8066 6.34444 4.66755 6.39553 4.56091 6.43991L4.62849 6.2573C4.7187 6.01503 4.81011 5.72957 4.87859 5.50608C4.89125 5.46475 4.90315 5.42546 4.91415 5.38886C5.02422 5.59446 5.15124 5.79678 5.26094 5.96172C5.31649 6.04523 5.36805 6.11984 5.41142 6.18129ZM3.28012 7.51303C3.26709 7.52116 3.25379 7.5296 3.24026 7.53833C3.09087 7.63478 2.91823 7.76369 2.76696 7.90027C2.613 8.0393 2.4917 8.17699 2.43385 8.28929C2.40485 8.34559 2.39983 8.38021 2.40109 8.39692C2.40168 8.40471 2.40337 8.41986 2.43318 8.44118C2.49008 8.48178 2.56764 8.47641 2.68474 8.38028C2.79983 8.28579 2.92161 8.12645 3.03541 7.94694C3.12889 7.79947 3.21325 7.64441 3.28012 7.51303Z" fill="var(--mw-icon-glyph-content-red, #902623)"/>
<path d="M5.5 6.5C5.5 5.94772 5.94772 5.5 6.5 5.5H14.5C15.0523 5.5 15.5 5.94772 15.5 6.5V14.5C15.5 15.0523 15.0523 15.5 14.5 15.5H6.5C5.94772 15.5 5.5 15.0523 5.5 14.5V6.5Z" fill="white" stroke="var(--mw-icon-border-default-gray, #616161)"/>
<path d="M10.5 11.5V13.5L14.5 10.5L10.5 7.5V9.5H10C8.61929 9.5 7.5 10.6193 7.5 12V15C7.5 13.4632 9.02724 11.5 10.5 11.5Z" fill="var(--mw-icon-background-default-action, #CBFFBE)" stroke="var(--mw-icon-border-default-green, #008013)" stroke-linecap="square"/>
</svg>
