<svg width="16" height="16" viewBox="0 0 16 16" fill="none" xmlns="http://www.w3.org/2000/svg">
<path d="M0.5 1.5C0.5 0.947715 0.947715 0.5 1.5 0.5H11.5C12.0523 0.5 12.5 0.947715 12.5 1.5V11.5C12.5 12.0523 12.0523 12.5 11.5 12.5H1.5C0.947715 12.5 0.5 12.0523 0.5 11.5V1.5Z" fill="var(--mw-icon-background-default-white, #FFFFFF)" stroke="var(--mw-icon-border-default-gray, #616161)"/>
<path d="M2.5 4.5H9.49988V7.5" stroke="var(--mw-icon-glyph-disabled-gray, #888889)" stroke-linecap="square" stroke-linejoin="round"/>
<path d="M7 7.5C7 7.22386 7.22386 7 7.5 7H10.5C10.7761 7 11 7.22386 11 7.5V10.5C11 10.7761 10.7761 11 10.5 11H7.5C7.22386 11 7 10.7761 7 10.5V7.5Z" fill="var(--mw-icon-glyph-content-red, #902623)"/>
<path d="M3 7V2L7 4.5L3 7Z" fill="var(--mw-icon-glyph-content-blue, #1656A8)"/>
<path d="M5.5 6C5.5 5.72386 5.72386 5.5 6 5.5H15C15.2761 5.5 15.5 5.72386 15.5 6V15C15.5 15.2761 15.2761 15.5 15 15.5H6C5.72386 15.5 5.5 15.2761 5.5 15V6Z" fill="white" stroke="var(--mw-icon-border-default-gray, #616161)"/>
<path d="M10.5 11.5V13.5L14.5 10.5L10.5 7.5V9.5H10C8.61929 9.5 7.5 10.6193 7.5 12V15C7.5 13.4632 9.02724 11.5 10.5 11.5Z" fill="var(--mw-icon-background-default-action, #CBFFBE)" stroke="var(--mw-icon-glyph-content-green, #008014)" stroke-linecap="square"/>
</svg>
