<svg width="16" height="16" viewBox="0 0 16 16" fill="none" xmlns="http://www.w3.org/2000/svg">
<path d="M0.5 2.5C0.5 1.39543 1.39543 0.5 2.5 0.5H13.5C14.6046 0.5 15.5 1.39543 15.5 2.5V13.5C15.5 14.6046 14.6046 15.5 13.5 15.5H2.5C1.39543 15.5 0.5 14.6046 0.5 13.5V2.5Z" fill="var(--mw-icon-background-default-medium-gray, #D9D9D9)"/>
<path d="M1 2C1 1.44772 1.44772 1 2 1H3V15H2C1.44772 15 1 14.5523 1 14V2Z" fill="var(--mw-icon-background-default-white, #FFFFFF)"/>
<path d="M15 2C15 1.44772 14.5523 1 14 1H13V15H14C14.5523 15 15 14.5523 15 14V2Z" fill="white"/>
<path d="M1.5 9.5H4.38462L5.53846 6.5L7.5 12.5L9.5 3.5L11.6154 9.5H14.5" stroke="#1171BE" stroke-linecap="square" stroke-linejoin="round"/>
<path d="M3.5 1V15" stroke="var(--mw-icon-glyph-content-gray, #616162)"/>
<path d="M12.5 1V15" stroke="var(--mw-icon-glyph-content-gray, #616162)"/>
<path d="M0.5 2.5C0.5 1.39543 1.39543 0.5 2.5 0.5H13.5C14.6046 0.5 15.5 1.39543 15.5 2.5V13.5C15.5 14.6046 14.6046 15.5 13.5 15.5H2.5C1.39543 15.5 0.5 14.6046 0.5 13.5V2.5Z" stroke="var(--mw-icon-border-default-gray, #616161)" stroke-linejoin="round"/>
</svg>
