<svg width="16" height="16" viewBox="0 0 16 16" fill="none" xmlns="http://www.w3.org/2000/svg">
<path d="M0.5 2C0.5 1.17157 1.17157 0.5 2 0.5H13C13.8284 0.5 14.5 1.17157 14.5 2V13C14.5 13.8284 13.8284 14.5 13 14.5H2C1.17157 14.5 0.5 13.8284 0.5 13V2Z" fill="var(--mw-icon-background-default-white, #FFFFFF)" stroke="var(--mw-icon-border-default-gray, #616161)"/>
<path d="M4.5 8.5L8 9L6 11C5.44772 11.5523 4.55228 11.5523 4 11C3.44772 10.4477 3.44772 9.55228 4 9L4.5 8.5Z" fill="var(--mw-icon-background-default-medium-gray, #D9D9D9)"/>
<path d="M3.49995 10.5L2.99995 11C2.72381 11.2761 2.72381 11.7239 2.99995 12C3.2761 12.2761 3.72381 12.2761 3.99995 12L4.49995 11.5L3.49995 10.5Z" fill="var(--mw-icon-background-default-medium-gray, #D9D9D9)"/>
<path d="M3.49995 10.5L2.99995 11C2.72381 11.2761 2.72381 11.7239 2.99995 12C3.2761 12.2761 3.72381 12.2761 3.99995 12L4.49995 11.5L3.49995 10.5Z" stroke="var(--mw-icon-glyph-content-gray, #616162)"/>
<path d="M3.99995 9L7.49995 5.5L9.49995 7.5L5.99995 11C5.44767 11.5523 4.55224 11.5523 3.99995 11C3.44767 10.4477 3.44767 9.55229 3.99995 9Z" stroke="var(--mw-icon-glyph-content-gray, #616162)"/>
<path d="M10 3.00001L8.5 4.50001L7 3.00001L6 4.00001L11 9.00001L12 8.00001L10.5 6.50001L12 5C12 5 13 4.00001 12 3.00001C11 2.00002 10 3.00001 10 3.00001Z" fill="var(--mw-icon-glyph-content-gray, #616162)" stroke="var(--mw-icon-border-default-gray, #616161)" stroke-linejoin="round"/>
</svg>
