<svg width="16" height="16" viewBox="0 0 16 16" fill="none" xmlns="http://www.w3.org/2000/svg">
<rect x="0.5" y="0.5" width="12" height="12" rx="1" fill="var(--mw-icon-background-default-white, #FFFFFF)" stroke="var(--mw-icon-border-default-gray, #616161)"/>
<path d="M2.85355 2.14645C2.65829 1.95118 2.34171 1.95118 2.14645 2.14645C1.95118 2.34171 1.95118 2.65829 2.14645 2.85355L2.85355 2.14645ZM4 4L4.35355 4.35355C4.54882 4.15829 4.54882 3.84171 4.35355 3.64645L4 4ZM2.14645 5.14645C1.95118 5.34171 1.95118 5.65829 2.14645 5.85355C2.34171 6.04882 2.65829 6.04882 2.85355 5.85355L2.14645 5.14645ZM5.85355 2.14645C5.65829 1.95118 5.34171 1.95118 5.14645 2.14645C4.95118 2.34171 4.95118 2.65829 5.14645 2.85355L5.85355 2.14645ZM7 4L7.35355 4.35355C7.54882 4.15829 7.54882 3.84171 7.35355 3.64645L7 4ZM5.14645 5.14645C4.95118 5.34171 4.95118 5.65829 5.14645 5.85355C5.34171 6.04882 5.65829 6.04882 5.85355 5.85355L5.14645 5.14645ZM2.14645 2.85355L3.64645 4.35355L4.35355 3.64645L2.85355 2.14645L2.14645 2.85355ZM3.64645 3.64645L2.14645 5.14645L2.85355 5.85355L4.35355 4.35355L3.64645 3.64645ZM5.14645 2.85355L6.64645 4.35355L7.35355 3.64645L5.85355 2.14645L5.14645 2.85355ZM6.64645 3.64645L5.14645 5.14645L5.85355 5.85355L7.35355 4.35355L6.64645 3.64645Z" fill="var(--mw-icon-glyph-content-gray, #616162)"/>
<path d="M5.5 14.5V6.5C5.5 5.94772 5.94772 5.5 6.5 5.5H14.5C15.0523 5.5 15.5 5.94772 15.5 6.5V14.5C15.5 15.0523 15.0523 15.5 14.5 15.5H6.5C5.94772 15.5 5.5 15.0523 5.5 14.5Z" fill="white" stroke="var(--mw-icon-border-default-blue, #1656A7)" stroke-linejoin="round"/>
<path d="M10.5 6.5L11.5 9H14L12 11L13 14L10.5 12L8 14L9 11L7 9H9.5L10.5 6.5Z" fill="var(--mw-icon-glyph-content-light-blue, #278CDD)"/>
</svg>
