<svg width="16" height="16" viewBox="0 0 16 16" fill="none" xmlns="http://www.w3.org/2000/svg">
<path d="M0.5 1C0.5 0.723858 0.723858 0.5 1 0.5H5.08579C5.351 0.5 5.60536 0.605357 5.79289 0.792893L6.20711 1.20711C6.39464 1.39464 6.649 1.5 6.91421 1.5H11C11.2761 1.5 11.5 1.72386 11.5 2V8C11.5 8.27614 11.2761 8.5 11 8.5H1C0.723858 8.5 0.5 8.27614 0.5 8V1Z" fill="var(--mw-icon-background-light-yellow, #FFF5BC)" stroke="#674C06"/>
<path d="M5.5 14.5V6.5C5.5 5.94772 5.94772 5.5 6.5 5.5H14.5C15.0523 5.5 15.5 5.94772 15.5 6.5V14.5C15.5 15.0523 15.0523 15.5 14.5 15.5H6.5C5.94772 15.5 5.5 15.0523 5.5 14.5Z" fill="var(--mw-icon-background-default-white, #FFFFFF)" stroke="var(--mw-icon-border-default-blue, #1656A7)" stroke-linejoin="round"/>
<path d="M10.5 6.5L11.5 9H14L12 11L13 14L10.5 12L8 14L9 11L7 9H9.5L10.5 6.5Z" fill="var(--mw-icon-glyph-content-light-blue, #278CDD)"/>
</svg>
