<svg width="16" height="16" viewBox="0 0 16 16" fill="none" xmlns="http://www.w3.org/2000/svg">
<path d="M14.5 0.5H1.5C0.947715 0.5 0.5 0.947715 0.5 1.5V10.5C0.5 11.0523 0.947715 11.5 1.5 11.5H3.5V15.5L6.5 11.5H14.5C15.0523 11.5 15.5 11.0523 15.5 10.5V1.5C15.5 0.947715 15.0523 0.5 14.5 0.5Z" stroke="var(--mw-icon-object-primary, #616160)" stroke-linejoin="round"/>
<path d="M6 6C6 6.55228 5.55228 7 5 7C4.44772 7 4 6.55228 4 6C4 5.44772 4.44772 5 5 5C5.55228 5 6 5.44772 6 6Z" fill="var(--mw-icon-object-primary, #616160)"/>
<path d="M9 6C9 6.55228 8.55228 7 8 7C7.44772 7 7 6.55228 7 6C7 5.44772 7.44772 5 8 5C8.55228 5 9 5.44772 9 6Z" fill="var(--mw-icon-object-primary, #616160)"/>
<path d="M12 6C12 6.55228 11.5523 7 11 7C10.4477 7 10 6.55228 10 6C10 5.44772 10.4477 5 11 5C11.5523 5 12 5.44772 12 6Z" fill="var(--mw-icon-object-primary, #616160)"/>
</svg>
