<svg width="16" height="16" viewBox="0 0 16 16" fill="none" xmlns="http://www.w3.org/2000/svg">
<path d="M13.5 0.5H1.5C0.947715 0.5 0.5 0.947716 0.5 1.5V13.5C0.5 14.0523 0.947716 14.5 1.5 14.5H13.5C14.0523 14.5 14.5 14.0523 14.5 13.5V1.5C14.5 0.947715 14.0523 0.5 13.5 0.5Z" fill="var(--mw-icon-background-default-white, #FFFFFF)" stroke="var(--mw-icon-border-default-gray, #616161)" stroke-linecap="round"/>
<path d="M10.5 4.5L11.5 3.5M12.5 2.5L11.5 3.5M11.5 3.5L10.5 2.5M11.5 3.5L12.5 4.5" stroke="var(--mw-icon-glyph-content-green, #008014)" stroke-linecap="square" stroke-linejoin="round"/>
<path d="M9 6L6.5 8.5M6.5 8.5V6.5M6.5 8.5H8.5" stroke="var(--mw-icon-glyph-content-gray, #616162)" stroke-linecap="square" stroke-linejoin="round"/>
<path d="M2.5 12.5L3.5 11.5M4.5 10.5L3.5 11.5M3.5 11.5L2.5 10.5M3.5 11.5L4.5 12.5" stroke="var(--mw-icon-glyph-content-light-blue, #278CDD)" stroke-linecap="square" stroke-linejoin="round"/>
<path d="M7 12.5C7 12.7761 6.77614 13 6.5 13C6.22386 13 6 12.7761 6 12.5C6 12.2239 6.22386 12 6.5 12C6.77614 12 7 12.2239 7 12.5Z" fill="var(--mw-icon-glyph-disabled-gray, #888889)"/>
<path d="M9 12.5C9 12.7761 8.77614 13 8.5 13C8.22386 13 8 12.7761 8 12.5C8 12.2239 8.22386 12 8.5 12C8.77614 12 9 12.2239 9 12.5Z" fill="var(--mw-icon-glyph-disabled-gray, #888889)"/>
<path d="M3 7.5C3 7.77614 2.77614 8 2.5 8C2.22386 8 2 7.77614 2 7.5C2 7.22386 2.22386 7 2.5 7C2.77614 7 3 7.22386 3 7.5Z" fill="var(--mw-icon-glyph-disabled-gray, #888889)"/>
<path d="M9 2.5C9 2.77614 8.77614 3 8.5 3C8.22386 3 8 2.77614 8 2.5C8 2.22386 8.22386 2 8.5 2C8.77614 2 9 2.22386 9 2.5Z" fill="var(--mw-icon-glyph-disabled-gray, #888889)"/>
<path d="M8 3.5C8 3.77614 7.77614 4 7.5 4C7.22386 4 7 3.77614 7 3.5C7 3.22386 7.22386 3 7.5 3C7.77614 3 8 3.22386 8 3.5Z" fill="var(--mw-icon-glyph-disabled-gray, #888889)"/>
<path d="M13 6.5C13 6.77614 12.7761 7 12.5 7C12.2239 7 12 6.77614 12 6.5C12 6.22386 12.2239 6 12.5 6C12.7761 6 13 6.22386 13 6.5Z" fill="var(--mw-icon-glyph-disabled-gray, #888889)"/>
</svg>
