<svg width="16" height="16" viewBox="0 0 16 16" fill="none" xmlns="http://www.w3.org/2000/svg">
<path d="M15.5 3.5H10.5V15.5H14.5C15.0523 15.5 15.5 15.0523 15.5 14.5V3.5Z" fill="var(--mw-icon-background-default-light-gray, #F5F5F5)" stroke="var(--mw-icon-border-default-gray, #616161)"/>
<path d="M0.5 3.5H10.5V15.5H1.5C0.947716 15.5 0.5 15.0523 0.5 14.5V3.5Z" fill="var(--mw-icon-background-default-white, #FFFFFF)" stroke="var(--mw-icon-border-default-gray, #616161)"/>
<path d="M0.5 1.5C0.5 0.947715 0.947715 0.5 1.5 0.5H14.5C15.0523 0.5 15.5 0.947715 15.5 1.5V3.5H0.5V1.5Z" fill="var(--mw-icon-background-default-selection, #B4DEFF)" stroke="var(--mw-icon-border-default-blue, #1656A7)"/>
<path d="M12 5.5H14M12 7.5H14M12 9.5H14M12 11.5H13" stroke="var(--mw-icon-glyph-content-gray, #616162)"/>
<path d="M2.5 9.95654C3.5 5.28988 4.5 5.28988 5.5 9.95654C6.5 14.6232 7.5 14.6232 8.5 9.95654" stroke="#0072BD" stroke-linecap="round"/>
</svg>
