<svg width="16" height="16" viewBox="0 0 16 16" fill="none" xmlns="http://www.w3.org/2000/svg">
<path d="M15.5 13.5435C15.5 14.624 14.624 15.5 13.5434 15.5C12.4629 15.5 11.5869 14.624 11.5869 13.5435C11.5869 12.4629 12.5652 11.0978 13.5434 9.63043C14.5217 11.0978 15.5 12.4629 15.5 13.5435Z" stroke="var(--mw-icon-glyph-content-mono, #616061)"/>
<path d="M2.5 5.5L7.5 0.5L10.5 3.5M2.5 5.5L0.5 7.5L6.5 13.5L11.5 8.5L14.5 7.5L12.5 5.5M2.5 5.5H12.5M12.5 5.5L10.5 3.5M10.5 3.5L9.5 4.5M10.5 3.5L13.5 0.5" stroke="var(--mw-icon-glyph-content-mono, #616061)" stroke-linecap="round" stroke-linejoin="round"/>
</svg>
