<svg width="16" height="16" viewBox="0 0 16 16" fill="none" xmlns="http://www.w3.org/2000/svg">
<path d="M16 14C16 15.1046 15.1046 16 14 16C12.8954 16 12 15.1046 12 14C12 12.8954 13 11.5 14 10C15 11.5 16 12.8954 16 14Z" fill="var(--mw-icon-background-medium-blue, #83CAFF)"/>
<path d="M12.5 6.5L14.5 8.5L11.5 9.5L6.5 14.5L0.5 7.5L2.5 5.5L12.5 6.5Z" fill="var(--mw-icon-background-medium-blue, #83CAFF)"/>
<path d="M7.5 0.5L2.5 5.5L12.5 6.5L7.5 0.5Z" fill="var(--mw-icon-background-default-white, #FFFFFF)"/>
<path d="M0.5 7.5L7.5 0.5L14.5 8.5L11.5 9.5L6.5 14.5L0.5 7.5Z" stroke="var(--mw-icon-object-primary, #616160)" stroke-linejoin="round"/>
<path d="M10.5 4.5L14.5 0.5" stroke="var(--mw-icon-object-primary, #616160)" stroke-linecap="round"/>
</svg>
