<svg width="16" height="16" viewBox="0 0 16 16" fill="none" xmlns="http://www.w3.org/2000/svg">
<path d="M1 1H14V14H1V1Z" fill="var(--mw-icon-background-default-white, #FFFFFF)"/>
<path d="M0.5 10.5C0.5 10.5 1.55879 9.5 2.5 9.5C4 9.5 3.13636 12.5 4.5 12.5C6.79051 12.5 5.20954 7.5 7.5 7.5C9.5 7.5 9.5 12.5 11.5 12.5C13.5 12.5 14.5 6.5 14.5 6.5" stroke="#0072BD"/>
<path d="M0.5 8.5C0.5 8.5 1.27399 6.5 2.5 6.5C3.5 6.5 3.67436 7.70641 4.5 7.5C6.5 7 5.04646 3.5 7.5 3.5C9 3.5 9.8066 7.5 11.5 7.5C14 7.5 14.5 3.5 14.5 3.5" stroke="#D95319"/>
<path d="M0.5 1.5C0.5 0.947716 0.947715 0.5 1.5 0.5H13.5C14.0523 0.5 14.5 0.947715 14.5 1.5V13.5C14.5 14.0523 14.0523 14.5 13.5 14.5H1.5C0.947716 14.5 0.5 14.0523 0.5 13.5V1.5Z" stroke="var(--mw-icon-border-default-gray, #616161)" stroke-linejoin="round"/>
</svg>
