<svg width="16" height="16" viewBox="0 0 16 16" fill="none" xmlns="http://www.w3.org/2000/svg">
<rect x="1" y="1" width="13" height="13" fill="var(--mw-icon-background-default-white, #FFFFFF)"/>
<path d="M0.5 9.5L1.5 8.5L2.5 9.5V11.5L3.5 12.5L4.5 11.5V9.5L5.5 8.5L6.5 9.5V11.5L7.5 12.5L8.5 11.5V9.5L9.5 8.5L10.5 9.5V11.5L11.5 12.5L12.5 11.5V9.5L13.5 8.5L14.5 9.5V11.5" stroke="#0072BD" stroke-linecap="round" stroke-linejoin="round"/>
<path d="M0.5 3.5L1.5 2.5L2.5 3.5V5.5L3.5 6.5L4.5 5.5V3.5L5.5 2.5L6.5 3.5V5.5L7.5 6.5L8.5 5.5V3.5L9.5 2.5L10.5 3.5V5.5L11.5 6.5L12.5 5.5V3.5L13.5 2.5L14.5 3.5V5.5" stroke="#D95319" stroke-linecap="round" stroke-linejoin="round"/>
<path d="M0.5 5.5C0.5 5.5 3.3494 3.5 5.5 3.5C7.5 3.5 8.35348 5.4723 10.5 5.5C12.8287 5.53005 14.5 4 14.5 4" stroke="#0072BD"/>
<path d="M0.5 1.5C0.5 0.947716 0.947715 0.5 1.5 0.5H13.5C14.0523 0.5 14.5 0.947715 14.5 1.5V13.5C14.5 14.0523 14.0523 14.5 13.5 14.5H1.5C0.947716 14.5 0.5 14.0523 0.5 13.5V1.5Z" stroke="var(--mw-icon-border-default-gray, #616161)"/>
</svg>
