<svg width="16" height="16" viewBox="0 0 16 16" fill="none" xmlns="http://www.w3.org/2000/svg">
<path d="M12.8675 2.86597C13.1588 2.53298 12.9308 2 12.4971 2H5.49976C5.06593 2 4.83795 2.53326 5.12945 2.86618L7.99999 6H9.99999L12.8675 2.86597Z" fill="var(--mw-icon-object-primary, #616160)"/>
<path d="M8.29142 9.47659C8.11383 9.39213 7.99999 9.20821 7.99999 9.00574V6H9.99999V9.48132C9.99999 9.85893 9.62264 10.1097 9.29142 9.95217L8.29142 9.47659Z" fill="var(--mw-icon-object-primary, #616160)"/>
<path d="M4 5.99988L7 9.99988H1L4 5.99988Z" fill="var(--mw-icon-object-primary, #616160)"/>
<path d="M3 12.9999H5V9.99988H3V12.9999Z" fill="var(--mw-icon-object-primary, #616160)"/>
<path d="M3 14.9999H5V13.9999H3V14.9999Z" fill="var(--mw-icon-object-primary, #616160)"/>
</svg>
