<svg width="16" height="16" viewBox="0 0 16 16" fill="none" xmlns="http://www.w3.org/2000/svg">
<path d="M12.8675 2.83576C13.1588 2.51439 12.9308 2 12.4971 2H5.49976C5.06593 2 4.83795 2.51465 5.12945 2.83596L7.99997 6H9.99997L12.8675 2.83576Z" fill="var(--mw-icon-object-primary, #616160)"/>
<path d="M8.21948 9.23074C8.08221 9.13771 7.99999 8.98267 7.99999 8.81684L7.99997 6H9.99997L9.99999 9.49458C9.99999 9.89565 9.55149 10.1335 9.21948 9.90848L8.21948 9.23074Z" fill="var(--mw-icon-object-primary, #616160)"/>
<path d="M4 14.9999L7 10.9999H1L4 14.9999Z" fill="var(--mw-icon-object-primary, #616160)"/>
<path d="M3 7.99993H5V10.9999H3V7.99993Z" fill="var(--mw-icon-object-primary, #616160)"/>
<path d="M3 6H5V7H3V6Z" fill="var(--mw-icon-object-primary, #616160)"/>
</svg>
