<svg width="16" height="16" viewBox="0 0 16 16" fill="none" xmlns="http://www.w3.org/2000/svg">
<path d="M0.5 3.5L6.5 0.5L12.5 3.5V9.5L6.5 12.5L0.5 9.5V3.5Z" fill="var(--mw-icon-background-default-selection, #B4DEFF)"/>
<path d="M0.5 3.5L6.5 0.5L12.5 3.5M0.5 3.5V9.5L6.5 12.5M0.5 3.5L6.5 6.5M6.5 12.5V6.5M6.5 12.5L12.5 9.5V3.5M6.5 6.5L12.5 3.5" stroke="var(--mw-icon-border-default-blue, #1656A7)" stroke-linejoin="round"/>
<path d="M14.0326 15.2284L9.08643 10.2822L10.0063 9.3623L14.9525 14.3085C15.201 14.557 15.201 14.96 14.9525 15.2085L14.9325 15.2284C14.684 15.4769 14.2811 15.4769 14.0326 15.2284Z" fill="var(--mw-icon-background-default-medium-gray, #D9D9D9)" stroke="var(--mw-icon-glyph-content-gray, #616162)"/>
<path d="M11.3285 5.67157C12.8905 7.23367 12.8905 9.76633 11.3284 11.3284C9.76629 12.8905 7.23363 12.8905 5.67155 11.3284C4.10946 9.76633 4.10949 7.23367 5.6716 5.67157C7.23371 4.10948 9.76637 4.10948 11.3285 5.67157Z" fill="var(--mw-icon-background-default-white, #FFFFFF)" stroke="var(--mw-icon-glyph-content-gray, #616162)"/>
</svg>
