<svg width="17" height="17" viewBox="0 0 17 17" fill="none" xmlns="http://www.w3.org/2000/svg">
<rect x="0.5" y="0.5" width="12" height="12" rx="1" fill="var(--mw-icon-background-default-white, #FFFFFF)"/>
<circle cx="4" cy="11" r="1" fill="#DD5400"/>
<circle cx="4" cy="8" r="1" fill="#EDB120"/>
<circle cx="3" cy="6" r="1" fill="#1171BE"/>
<path d="M1 1.5C1 1.22386 1.22386 1 1.5 1H11.5C11.7761 1 12 1.22386 12 1.5V4H1V1.5Z" fill="var(--mw-icon-background-default-medium-gray, #D9D9D9)"/>
<line x1="1" y1="4.5" x2="12" y2="4.5" stroke="var(--mw-icon-glyph-content-gray, #616162)"/>
<path d="M6 2V1H7V2H8L6.5 4L5 2H6Z" fill="var(--mw-icon-glyph-content-dark-gray, #333333)"/>
<rect x="0.5" y="0.5" width="12" height="12" rx="1" stroke="var(--mw-icon-border-default-gray, #616161)"/>
<path d="M13.5 15.5L9.5 11.5L11.5 9.5L15.5 13.5C16.0523 14.0523 16.0523 14.9477 15.5 15.5C14.9477 16.0523 14.0523 16.0523 13.5 15.5Z" fill="var(--mw-icon-background-default-medium-gray, #D9D9D9)" stroke="var(--mw-icon-border-default-gray, #616161)"/>
<path d="M12.3285 6.67157C13.8905 8.23367 13.8905 10.7663 12.3284 12.3284C10.7663 13.8905 8.23363 13.8905 6.67155 12.3284C5.10946 10.7663 5.10949 8.23367 6.6716 6.67157C8.23371 5.10948 10.7664 5.10948 12.3285 6.67157Z" fill="white" stroke="var(--mw-icon-border-default-gray, #616161)"/>
</svg>
