<svg width="17" height="17" viewBox="0 0 17 17" fill="none" xmlns="http://www.w3.org/2000/svg">
<rect x="0.5" y="0.5" width="12" height="12" rx="6" fill="var(--mw-icon-background-default-selection, #B4DEFF)" stroke="var(--mw-icon-border-default-blue, #1656A7)"/>
<path d="M1 6.5H12M6.5 1L6.5 12M9.5 6.5C9.5 9.81371 8.15685 12.5 6.5 12.5C4.84315 12.5 3.5 9.81371 3.5 6.5C3.5 3.18629 4.84315 0.5 6.5 0.5C8.15685 0.5 9.5 3.18629 9.5 6.5ZM6.5 9.5C3.18629 9.5 0.5 8.15685 0.5 6.5C0.5 4.84315 3.18629 3.5 6.5 3.5C9.81371 3.5 12.5 4.84315 12.5 6.5C12.5 8.15685 9.81371 9.5 6.5 9.5Z" stroke="var(--mw-icon-border-default-blue, #1656A7)"/>
<path d="M13.5 15.5L9.5 11.5L11.5 9.5L15.5 13.5C16.0523 14.0523 16.0523 14.9477 15.5 15.5C14.9477 16.0523 14.0523 16.0523 13.5 15.5Z" fill="var(--mw-icon-background-default-medium-gray, #D9D9D9)" stroke="var(--mw-icon-glyph-content-gray, #616162)"/>
<path d="M12.3285 6.67157C13.8905 8.23367 13.8905 10.7663 12.3284 12.3284C10.7663 13.8905 8.23363 13.8905 6.67155 12.3284C5.10946 10.7663 5.10949 8.23367 6.6716 6.67157C8.23371 5.10948 10.7664 5.10948 12.3285 6.67157Z" fill="var(--mw-icon-background-default-white, #FFFFFF)" stroke="var(--mw-icon-glyph-content-gray, #616162)"/>
</svg>
