<svg width="16" height="16" viewBox="0 0 16 16" fill="none" xmlns="http://www.w3.org/2000/svg">
<path d="M11.5 0.5H1.5C0.947715 0.5 0.5 0.947715 0.5 1.5V11.5C0.5 12.0523 0.947715 12.5 1.5 12.5H11.5C12.0523 12.5 12.5 12.0523 12.5 11.5V1.5C12.5 0.947715 12.0523 0.5 11.5 0.5Z" fill="var(--mw-icon-background-default-white, #FFFFFF)" stroke="var(--mw-icon-border-default-gray, #616161)" stroke-linecap="round"/>
<path d="M4.5 9.5H10.5" stroke="var(--mw-icon-glyph-disabled-gray, #888889)" stroke-linecap="square"/>
<path d="M4.5 3.5H10.5M4.5 6.5H10.5" stroke="var(--mw-icon-glyph-content-dark-gray, #333333)" stroke-linecap="square"/>
<path d="M2 3H3V4H2V3Z" fill="var(--mw-icon-glyph-content-dark-gray, #333333)"/>
<path d="M2 6H3V7H2V6Z" fill="var(--mw-icon-glyph-content-dark-gray, #333333)"/>
<path d="M2 9H3V10H2V9Z" fill="var(--mw-icon-glyph-disabled-gray, #888889)"/>
<path d="M7.5 14.5L11.5 10.5L9.5 8.5L5.5 12.5C4.94772 13.0523 4.94772 13.9477 5.5 14.5C6.05228 15.0523 6.94771 15.0523 7.5 14.5Z" fill="var(--mw-icon-background-default-medium-gray, #D9D9D9)" stroke="var(--mw-icon-glyph-content-gray, #616162)"/>
<path d="M8.67155 5.67157C7.10946 7.23367 7.10949 9.76633 8.6716 11.3284C10.2337 12.8905 12.7664 12.8905 14.3285 11.3284C15.8905 9.76633 15.8905 7.23367 14.3284 5.67157C12.7663 4.10948 10.2336 4.10948 8.67155 5.67157Z" fill="white" stroke="var(--mw-icon-glyph-content-gray, #616162)"/>
</svg>
