<svg width="16" height="16" viewBox="0 0 16 16" fill="none" xmlns="http://www.w3.org/2000/svg">
<path d="M3.71429 4.5C1.30357 4.5 0.5 6.06164 0.5 8.42857V9C0.5 9.27614 0.723857 9.5 1 9.5H6.42857C6.70471 9.5 6.92857 9.27614 6.92857 9V8.42857C6.92857 6.06164 6.125 4.5 3.71429 4.5Z" fill="var(--mw-icon-background-default-white, #FFFFFF)" stroke="var(--mw-icon-border-default-gray, #616161)"/>
<circle cx="3.5" cy="2.5" r="2" fill="white" stroke="var(--mw-icon-border-default-gray, #616161)"/>
<path d="M7 6.5C3.625 6.5 2.5 8.68629 2.5 12V13C2.5 13.2761 2.72386 13.5 3 13.5H11C11.2761 13.5 11.5 13.2761 11.5 13V12C11.5 8.68629 10.375 6.5 7 6.5Z" fill="white" stroke="var(--mw-icon-border-default-gray, #616161)"/>
<circle cx="7" cy="4" r="2.5" fill="white" stroke="var(--mw-icon-border-default-gray, #616161)"/>
<path d="M5.5 12.5L9.5 8.5L11.5 10.5L7.5 14.5C6.94772 15.0523 6.05228 15.0523 5.5 14.5C4.94772 13.9477 4.94771 13.0523 5.5 12.5Z" fill="var(--mw-icon-background-default-medium-gray, #D9D9D9)" stroke="var(--mw-icon-border-default-gray, #616161)"/>
<path d="M14.3284 11.3285C12.7663 12.8905 10.2337 12.8905 8.67157 11.3284C7.10948 9.76629 7.10948 7.23363 8.67157 5.67155C10.2337 4.10946 12.7663 4.10949 14.3284 5.6716C15.8905 7.23371 15.8905 9.76637 14.3284 11.3285Z" fill="white" stroke="var(--mw-icon-border-default-gray, #616161)"/>
</svg>
