<svg width="17" height="16" viewBox="0 0 17 16" fill="none" xmlns="http://www.w3.org/2000/svg">
<path d="M10 4L5 5.99999L10 8M10 4L15 1L10 8M10 4L15 6L10 8M10 4L5 11L10 8M10 4L15 11L10 8M10 4L5 0.999993L10 8" stroke="var(--mw-icon-border-disabled-gray, #888888)" stroke-linecap="round" stroke-linejoin="round"/>
<rect x="9" y="3" width="2" height="2" fill="var(--mw-icon-glyph-content-light-blue, #278CDD)"/>
<rect x="14" width="2" height="2" fill="var(--mw-icon-glyph-content-light-blue, #278CDD)"/>
<rect x="9" y="7" width="2" height="2" fill="var(--mw-icon-glyph-content-light-blue, #278CDD)"/>
<rect x="4" width="2" height="2" fill="var(--mw-icon-glyph-content-light-blue, #278CDD)"/>
<rect x="4" y="10" width="2" height="2" fill="var(--mw-icon-glyph-content-light-blue, #278CDD)"/>
<rect x="14" y="5" width="2" height="2" fill="var(--mw-icon-glyph-content-light-blue, #278CDD)"/>
<rect x="14" y="10" width="2" height="2" fill="var(--mw-icon-glyph-content-light-blue, #278CDD)"/>
<rect x="4" y="5" width="2" height="2" fill="var(--mw-icon-glyph-content-light-blue, #278CDD)"/>
<path d="M10.0326 15.2284L5.08643 10.2822L6.00634 9.3623L10.9525 14.3085C11.201 14.557 11.201 14.96 10.9525 15.2085L10.9325 15.2284C10.684 15.4769 10.2811 15.4769 10.0326 15.2284Z" fill="var(--mw-icon-background-default-medium-gray, #D9D9D9)" stroke="var(--mw-icon-glyph-content-gray, #616162)"/>
<path d="M7.32845 5.67157C8.89054 7.23367 8.89051 9.76633 7.3284 11.3284C5.76629 12.8905 3.23363 12.8905 1.67155 11.3284C0.109464 9.76633 0.109488 7.23367 1.6716 5.67157C3.23371 4.10948 5.76637 4.10948 7.32845 5.67157Z" fill="var(--mw-icon-background-default-white, #FFFFFF)" stroke="var(--mw-icon-glyph-content-gray, #616162)"/>
</svg>
