<svg width="16" height="16" viewBox="0 0 16 16" fill="none" xmlns="http://www.w3.org/2000/svg">
<path d="M2.5 1L2.5 5C2.5 5.27614 2.72386 5.5 3 5.5L7 5.5C7.27614 5.5 7.5 5.27614 7.5 5L7.5 1C7.5 0.723858 7.27614 0.5 7 0.5L3 0.5C2.72386 0.5 2.5 0.723858 2.5 1Z" fill="var(--mw-icon-background-default-medium-gray, #D9D9D9)" stroke="var(--mw-icon-border-disabled-gray, #888888)"/>
<path d="M10.5 1L10.5 5C10.5 5.27614 10.7239 5.5 11 5.5L15 5.5C15.2761 5.5 15.5 5.27614 15.5 5L15.5 1C15.5 0.723858 15.2761 0.5 15 0.5L11 0.5C10.7239 0.5 10.5 0.723858 10.5 1Z" fill="var(--mw-icon-background-default-medium-gray, #D9D9D9)" stroke="var(--mw-icon-border-disabled-gray, #888888)"/>
<path d="M10.5 9L10.5 13C10.5 13.2761 10.7239 13.5 11 13.5L15 13.5C15.2761 13.5 15.5 13.2761 15.5 13L15.5 9C15.5 8.72386 15.2761 8.5 15 8.5L11 8.5C10.7239 8.5 10.5 8.72386 10.5 9Z" fill="var(--mw-icon-background-default-medium-gray, #D9D9D9)" stroke="var(--mw-icon-border-disabled-gray, #888888)"/>
<path d="M10.0326 15.2283L5.08643 10.2821L6.00634 9.36218L10.9525 14.3084C11.201 14.5569 11.201 14.9598 10.9525 15.2083L10.9325 15.2283C10.684 15.4768 10.2811 15.4768 10.0326 15.2283Z" fill="var(--mw-icon-background-default-medium-gray, #D9D9D9)" stroke="var(--mw-icon-glyph-content-gray, #616162)"/>
<path d="M7.32845 5.67157C8.89054 7.23367 8.89051 9.76633 7.3284 11.3284C5.76629 12.8905 3.23363 12.8905 1.67155 11.3284C0.109464 9.76633 0.109488 7.23367 1.6716 5.67157C3.23371 4.10948 5.76637 4.10948 7.32845 5.67157Z" fill="var(--mw-icon-background-default-white, #FFFFFF)" stroke="var(--mw-icon-glyph-content-gray, #616162)"/>
</svg>
