<svg width="16" height="16" viewBox="0 0 16 16" fill="none" xmlns="http://www.w3.org/2000/svg">
<path d="M3.5 2.5C3.5 1.39543 4.39543 0.5 5.5 0.5H13.5C14.6046 0.5 15.5 1.39543 15.5 2.5V10.5C15.5 11.6046 14.6046 12.5 13.5 12.5H5.5C4.39543 12.5 3.5 11.6046 3.5 10.5V2.5Z" fill="var(--mw-icon-background-default-white, #FFFFFF)" stroke="var(--mw-icon-border-default-gray, #616161)"/>
<path d="M5.5 4C5.22386 4 5 4.22386 5 4.5C5 4.77614 5.22386 5 5.5 5V4ZM11.5 5C11.7761 5 12 4.77614 12 4.5C12 4.22386 11.7761 4 11.5 4V5ZM11 9.5V10H12V9.5H11ZM12 5V4.5H11V5H12ZM5.5 5H11.5V4H5.5V5ZM12 9.5V5H11V9.5H12Z" fill="var(--mw-icon-glyph-disabled-gray, #888889)"/>
<path d="M8.41176 4.32073C8.52941 4.40041 8.52941 4.59959 8.41176 4.67927L5.76471 6.47196C5.64706 6.55163 5.5 6.45204 5.5 6.29269L5.5 2.70731C5.5 2.54796 5.64706 2.44837 5.76471 2.52804L8.41176 4.32073Z" fill="var(--mw-icon-background-default-selection, #B4DEFF)" stroke="var(--mw-icon-glyph-content-blue, #1656A8)" stroke-linejoin="round"/>
<rect x="9.5" y="6.5" width="4" height="4" rx="1" fill="var(--mw-icon-background-red, #FF9D9A)" stroke="var(--mw-icon-glyph-content-red, #902623)"/>
<path d="M10.0326 15.2284L5.08643 10.2822L6.00634 9.3623L10.9525 14.3085C11.201 14.557 11.201 14.96 10.9525 15.2085L10.9325 15.2284C10.684 15.4769 10.2811 15.4769 10.0326 15.2284Z" fill="var(--mw-icon-background-default-medium-gray, #D9D9D9)" stroke="var(--mw-icon-glyph-content-gray, #616162)"/>
<path d="M7.32845 5.67157C8.89054 7.23367 8.89051 9.76633 7.3284 11.3284C5.76629 12.8905 3.23363 12.8905 1.67155 11.3284C0.109464 9.76633 0.109488 7.23367 1.6716 5.67157C3.23371 4.10948 5.76637 4.10948 7.32845 5.67157Z" fill="white" stroke="var(--mw-icon-glyph-content-gray, #616162)"/>
</svg>
