<svg width="16" height="16" viewBox="0 0 16 16" fill="none" xmlns="http://www.w3.org/2000/svg">
<path d="M5 5.5C1.625 5.5 0.5 7.68629 0.5 11V12C0.5 12.2761 0.723858 12.5 1 12.5H9C9.27614 12.5 9.5 12.2761 9.5 12V11C9.5 7.68629 8.375 5.5 5 5.5Z" fill="var(--mw-icon-background-default-white, #FFFFFF)" stroke="var(--mw-icon-border-default-gray, #616161)"/>
<circle cx="5" cy="3" r="2.5" fill="white" stroke="var(--mw-icon-border-default-gray, #616161)"/>
<path d="M12.5 14.5L8.5 10.5L10.5 8.5L14.5 12.5C15.0523 13.0523 15.0523 13.9477 14.5 14.5C13.9477 15.0523 13.0523 15.0523 12.5 14.5Z" fill="var(--mw-icon-background-default-medium-gray, #D9D9D9)" stroke="var(--mw-icon-border-default-gray, #616161)"/>
<path d="M11.3285 5.67157C12.8905 7.23367 12.8905 9.76633 11.3284 11.3284C9.76629 12.8905 7.23363 12.8905 5.67155 11.3284C4.10946 9.76633 4.10949 7.23367 5.6716 5.67157C7.23371 4.10948 9.76637 4.10948 11.3285 5.67157Z" fill="white" stroke="var(--mw-icon-border-default-gray, #616161)"/>
</svg>
