<svg width="17" height="17" viewBox="0 0 17 17" fill="none" xmlns="http://www.w3.org/2000/svg">
<rect x="0.5" y="0.5" width="12" height="12" rx="1" fill="var(--mw-icon-background-default-white, #FFFFFF)" stroke="var(--mw-icon-border-default-gray, #616161)"/>
<path d="M5 10C5 10.5523 4.55228 11 4 11C3.44772 11 3 10.5523 3 10C3 9.44772 3.44772 9 4 9C4.55228 9 5 9.44772 5 10Z" fill="#DD5400"/>
<path d="M8 10C8 10.5523 7.55228 11 7 11C6.44772 11 6 10.5523 6 10C6 9.44772 6.44772 9 7 9C7.55228 9 8 9.44772 8 10Z" fill="#DD5400"/>
<path d="M8 6C8 6.55228 7.55228 7 7 7C6.44772 7 6 6.55228 6 6C6 5.44772 6.44772 5 7 5C7.55228 5 8 5.44772 8 6Z" fill="#EDB120"/>
<path d="M5 6C5 6.55228 4.55228 7 4 7C3.44772 7 3 6.55228 3 6C3 5.44772 3.44772 5 4 5C4.55228 5 5 5.44772 5 6Z" fill="#EDB120"/>
<path d="M7 3C7 3.55228 6.55228 4 6 4C5.44772 4 5 3.55228 5 3C5 2.44772 5.44772 2 6 2C6.55228 2 7 2.44772 7 3Z" fill="#1171BE"/>
<path d="M10 3C10 3.55228 9.55228 4 9 4C8.44772 4 8 3.55228 8 3C8 2.44772 8.44772 2 9 2C9.55228 2 10 2.44772 10 3Z" fill="#1171BE"/>
<path d="M4 3C4 3.55228 3.55228 4 3 4C2.44772 4 2 3.55228 2 3C2 2.44772 2.44772 2 3 2C3.55228 2 4 2.44772 4 3Z" fill="#1171BE"/>
<path d="M13.5 15.5L9.5 11.5L11.5 9.5L15.5 13.5C16.0523 14.0523 16.0523 14.9477 15.5 15.5C14.9477 16.0523 14.0523 16.0523 13.5 15.5Z" fill="var(--mw-icon-background-default-medium-gray, #D9D9D9)" stroke="var(--mw-icon-border-default-gray, #616161)"/>
<path d="M12.3285 6.67157C13.8905 8.23367 13.8905 10.7663 12.3284 12.3284C10.7663 13.8905 8.23363 13.8905 6.67155 12.3284C5.10946 10.7663 5.10949 8.23367 6.6716 6.67157C8.23371 5.10948 10.7664 5.10948 12.3285 6.67157Z" fill="white" stroke="var(--mw-icon-border-default-gray, #616161)"/>
</svg>
