<svg width="16" height="16" viewBox="0 0 16 16" fill="none" xmlns="http://www.w3.org/2000/svg">
<path d="M14 13H11L11 2L14 2L14 13Z" fill="var(--mw-icon-background-default-medium-gray, #D9D9D9)"/>
<path d="M8 2H11V13H8V2Z" fill="var(--mw-icon-background-default-dark-gray, #A6A6A6)"/>
<path d="M5 2H8V13H5V2Z" fill="#7D7D7D"/>
<path d="M2 2H5V13H2V2Z" fill="#4C4C4C"/>
<path d="M3 4.5C3 4.22386 3.22386 4 3.5 4H12.5C12.7761 4 13 4.22386 13 4.5V10.5C13 10.7761 12.7761 11 12.5 11H3.5C3.22386 11 3 10.7761 3 10.5V4.5Z" fill="var(--mw-icon-object-secondary, #FFFFFE)"/>
<path d="M5.5 5.5L3.5 7.5M3.5 7.5L5.5 9.5M3.5 7.5L12.5 7.50004M12.5 7.50004L10.5 5.5M12.5 7.50004L10.5 9.5" stroke="var(--mw-icon-object-primary, #616160)" stroke-linecap="square" stroke-linejoin="round"/>
<path d="M13.5 1.5H2.5C1.94772 1.5 1.5 1.94772 1.5 2.5V12.5C1.5 13.0523 1.94772 13.5 2.5 13.5H13.5C14.0523 13.5 14.5 13.0523 14.5 12.5V2.5C14.5 1.94772 14.0523 1.5 13.5 1.5Z" stroke="var(--mw-icon-object-primary, #616160)" stroke-linecap="round"/>
</svg>
