<svg width="16" height="16" viewBox="0 0 16 16" fill="none" xmlns="http://www.w3.org/2000/svg">
<path d="M0.5 12.5V2.5C0.5 1.39543 1.39543 0.5 2.5 0.5H12.5C13.6046 0.5 14.5 1.39543 14.5 2.5V12.5C14.5 13.6046 13.6046 14.5 12.5 14.5H2.5C1.39543 14.5 0.5 13.6046 0.5 12.5Z" fill="var(--mw-icon-background-default-white, white)"/>
<path d="M0.5 11.5H3C3.27614 11.5 3.5 11.2761 3.5 11V9C3.5 8.72386 3.72386 8.5 4 8.5H7C7.27614 8.5 7.5 8.27614 7.5 8V6C7.5 5.72386 7.72386 5.5 8 5.5H14.5" stroke="var(--mw-icon-borderColor-light-blue, #268CDD)" stroke-linecap="round" stroke-linejoin="round"/>
<path d="M9 8C9 7.44772 9.44772 7 10 7V7V13H9V8Z" fill="#212121"/>
<rect x="10" y="7" width="2" height="1" fill="#212121"/>
<rect x="8" y="9" width="3" height="1" fill="#212121"/>
<rect x="12" y="9" width="1" height="4" fill="#212121"/>
<path fill-rule="evenodd" clip-rule="evenodd" d="M2 3L4.5 5L7 3L5 3L5 1L4 1L4 3L2 3Z" fill="var(--mw-icon-glyph-content-blue, #1656A8)"/>
<path fill-rule="evenodd" clip-rule="evenodd" d="M8 3L10.5 5L13 3L11 3L11 1L10 1L10 3L8 3Z" fill="var(--mw-icon-glyph-content-blue, #1656A8)"/>
<path d="M0.5 12.5V2.5C0.5 1.39543 1.39543 0.5 2.5 0.5H12.5C13.6046 0.5 14.5 1.39543 14.5 2.5V12.5C14.5 13.6046 13.6046 14.5 12.5 14.5H2.5C1.39543 14.5 0.5 13.6046 0.5 12.5Z" stroke="var(--mw-icon-glyph-disabled-gray, #888889)" stroke-linecap="round"/>

</svg>
