<svg width="16" height="16" viewBox="0 0 16 16" fill="none" xmlns="http://www.w3.org/2000/svg">
<path d="M13.5 0.5H1.5C0.947715 0.5 0.5 0.947716 0.5 1.5V13.5C0.5 14.0523 0.947716 14.5 1.5 14.5H13.5C14.0523 14.5 14.5 14.0523 14.5 13.5V1.5C14.5 0.947715 14.0523 0.5 13.5 0.5Z" fill="var(--mw-icon-background-default-white, #FFFFFF)" stroke="var(--mw-icon-border-default-gray, #616161)" stroke-linecap="round"/>
<path d="M4.5 14L4.5 7.5L1 7.5" stroke="var(--mw-icon-glyph-disabled-gray, #888889)"/>
<rect x="2.5" y="5.5" width="4" height="4" rx="2" fill="var(--mw-icon-background-red, #FF9D9A)" stroke="var(--mw-icon-glyph-content-red, #902623)"/>
<path d="M8 6.5C8 6.22386 8.22386 6 8.5 6H12.5C12.7761 6 13 6.22386 13 6.5V9.5C13 9.77614 12.7761 10 12.5 10H8.5C8.22386 10 8 9.77614 8 9.5V6.5Z" fill="var(--mw-icon-alert-red, #B7313C)"/>
<path d="M9.5 6.5V4.5C9.5 3.94772 9.94772 3.5 10.5 3.5V3.5C11.0523 3.5 11.5 3.94772 11.5 4.5V6.5" stroke="var(--mw-icon-alert-red, #B7313C)"/>
</svg>
