<svg width="16" height="16" viewBox="0 0 16 16" fill="none" xmlns="http://www.w3.org/2000/svg">
<path d="M0.5 1.5C0.5 0.947716 0.947715 0.5 1.5 0.5H13.5C14.0523 0.5 14.5 0.947715 14.5 1.5V13.5C14.5 14.0523 14.0523 14.5 13.5 14.5H1.5C0.947716 14.5 0.5 14.0523 0.5 13.5V1.5Z" fill="var(--mw-icon-background-default-white, #FFFFFF)" stroke="var(--mw-icon-border-default-gray, #616161)"/>
<path d="M6.5 5.50005V3.5H8.5V5.50005H6.5Z" fill="var(--mw-icon-background-default-selection, #B4DEFF)"/>
<path d="M10.5 7.50008V5.50005H12.5V7.50008H10.5Z" fill="var(--mw-icon-background-default-selection, #B4DEFF)"/>
<path d="M8.5 7.50005L10.5 7.50008H12.5L8.5 7.50005Z" fill="var(--mw-icon-background-default-selection, #B4DEFF)"/>
<path d="M3.5 9.50005V7.50005H8.5V9.50005H3.5Z" fill="var(--mw-icon-background-default-selection, #B4DEFF)"/>
<path d="M2.5 11.5001V9.50005H8.5V11.5001H2.5Z" fill="var(--mw-icon-background-default-selection, #B4DEFF)"/>
<path d="M5.5 7.50008V5.50005H8.5V7.50005L5.5 7.50008Z" fill="var(--mw-icon-background-default-selection, #B4DEFF)"/>
<path d="M8.5 9.50005V7.50005L12.5 7.50008V9.50005H8.5Z" fill="var(--mw-icon-background-default-selection, #B4DEFF)"/>
<path d="M8.5 11.5001V9.50005H12.5V11.5001H8.5Z" fill="var(--mw-icon-background-default-selection, #B4DEFF)"/>
<path d="M8.5 5.50005V3.5H6.5V5.50005H8.5ZM8.5 5.50005H5.5V7.50008L8.5 7.50005M8.5 5.50005V7.50005M10.5 7.50008V5.50005H12.5V7.50008M10.5 7.50008H12.5M10.5 7.50008L8.5 7.50005M12.5 7.50008L8.5 7.50005M12.5 7.50008V9.50005M8.5 7.50005H3.5V9.50005H8.5M8.5 7.50005V9.50005M8.5 7.50005H4.5M8.5 9.50005H2.5V11.5001H8.5M8.5 9.50005V11.5001M8.5 9.50005H12.5M8.5 11.5001H12.5V9.50005" stroke="var(--mw-icon-glyph-content-blue, #1656A8)" stroke-linecap="square" stroke-linejoin="round"/>
</svg>
