<svg width="16" height="16" viewBox="0 0 16 16" fill="none" xmlns="http://www.w3.org/2000/svg">
<rect x="0.5" y="0.5" width="12" height="12" rx="6" fill="var(--mw-icon-background-default-selection, #B4DEFF)" stroke="var(--mw-icon-glyph-content-blue, #1656A8)"/>
<path d="M1 6.5H12M6.5 1L6.5 12M9.5 6.5C9.5 9.81371 8.15685 12.5 6.5 12.5C4.84315 12.5 3.5 9.81371 3.5 6.5C3.5 3.18629 4.84315 0.5 6.5 0.5C8.15685 0.5 9.5 3.18629 9.5 6.5ZM6.5 9.5C3.18629 9.5 0.5 8.15685 0.5 6.5C0.5 4.84315 3.18629 3.5 6.5 3.5C9.81371 3.5 12.5 4.84315 12.5 6.5C12.5 8.15685 9.81371 9.5 6.5 9.5Z" stroke="var(--mw-icon-glyph-content-blue, #1656A8)"/>
<path d="M5.5 8C5.5 7.72386 5.72386 7.5 6 7.5H9.08579C9.351 7.5 9.60536 7.60536 9.79289 7.79289L11.2071 9.20711C11.3946 9.39464 11.649 9.5 11.9142 9.5H15C15.2761 9.5 15.5 9.72386 15.5 10V15C15.5 15.2761 15.2761 15.5 15 15.5H6C5.72386 15.5 5.5 15.2761 5.5 15V8Z" fill="var(--mw-icon-background-light-yellow, #FFF5BC)" stroke="#674C06"/>
</svg>
