<svg width="16" height="16" viewBox="0 0 16 16" fill="none" xmlns="http://www.w3.org/2000/svg">
<path d="M14.5 0.5H1.5C0.947715 0.5 0.5 0.947715 0.5 1.5V14.5C0.5 15.0523 0.947715 15.5 1.5 15.5H14.5C15.0523 15.5 15.5 15.0523 15.5 14.5V1.5C15.5 0.947715 15.0523 0.5 14.5 0.5Z" fill="var(--mw-icon-background-default-white, #FFFFFF)" stroke="var(--mw-icon-border-default-gray, #616161)" stroke-linecap="round"/>
<path fill-rule="evenodd" clip-rule="evenodd" d="M6.27295 4H5.07139L2 12H3.5416L4.25389 10.0349H7.09138L7.81406 12H9.34986L8.91806 10.8773C9.02294 11.1069 9.18204 11.3121 9.39405 11.4908L9.39592 11.4924C9.81237 11.8362 10.3367 12 10.9494 12C11.503 12 11.9985 11.8434 12.43 11.5339C12.4546 11.6274 12.4835 11.7081 12.518 11.7732L12.5847 11.8993H14V11.5328L13.9789 11.4866C13.8634 11.2338 13.7976 10.8735 13.7976 10.3907L13.7977 7.88423L13.7975 7.87822C13.7818 7.27066 13.5627 6.77219 13.127 6.41079C12.6947 6.04887 12.1134 5.88234 11.4129 5.88234C10.965 5.88234 10.5476 5.96137 10.1639 6.1225C9.78522 6.28313 9.47351 6.50706 9.23968 6.79654C9.01013 7.08189 8.88429 7.39387 8.88429 7.7282V7.9635H10.3509V7.7282C10.3509 7.58271 10.4176 7.44508 10.608 7.31081C10.798 7.17684 11.0419 7.10285 11.3543 7.10285C11.7195 7.10285 11.9545 7.19133 12.1009 7.32963L12.1024 7.33103C12.2525 7.4704 12.3363 7.6624 12.3363 7.93456V8.12707H11.6153C10.7615 8.12707 10.0641 8.28913 9.55111 8.64224C9.02985 9.0001 8.76709 9.5133 8.76709 10.1541C8.76709 10.3447 8.79392 10.5245 8.84713 10.6929L6.27295 4ZM4.7267 8.74725L5.67267 6.15308L6.62248 8.74725H4.7267ZM10.2283 10.0233C10.2283 9.89249 10.2575 9.7893 10.308 9.70558C10.3586 9.62157 10.4385 9.54431 10.5594 9.47747C10.8083 9.3398 11.2124 9.25699 11.8017 9.25699H12.3363V10.0795C12.2353 10.2525 12.0794 10.4008 11.8574 10.5218C11.6147 10.6541 11.3611 10.7191 11.0932 10.7191C10.812 10.7191 10.6038 10.6483 10.4488 10.5246C10.3057 10.4104 10.2283 10.2533 10.2283 10.0233Z" fill="#D95319"/>
</svg>
