<svg width="16" height="16" viewBox="0 0 16 16" fill="none" xmlns="http://www.w3.org/2000/svg">
<path d="M1 2.5C1 1.39543 1.89543 0.5 3 0.5H14C15.1046 0.5 16 1.39543 16 2.5V13.5C16 14.6046 15.1046 15.5 14 15.5H3C1.89543 15.5 1 14.6046 1 13.5V2.5Z" fill="var(--mw-icon-background-default-white, #FFFFFF)"/>
<path d="M0.00620985 12.4214C-0.0371763 12.6942 0.14873 12.9504 0.421442 12.9938C0.694155 13.0372 0.950404 12.8513 0.99379 12.5786L0.00620985 12.4214ZM15.5 12H15V13H15.5V12ZM0.5 12.5C0.99379 12.5786 0.99378 12.5786 0.993772 12.5787C0.993772 12.5787 0.993767 12.5787 0.993768 12.5787C0.99377 12.5787 0.993782 12.5786 0.993803 12.5785C0.993846 12.5782 0.993928 12.5777 0.994048 12.577C0.994287 12.5755 0.994681 12.5731 0.995229 12.5697C0.996325 12.5631 0.998038 12.5528 1.00037 12.5391C1.00504 12.5117 1.01217 12.4708 1.0218 12.4183C1.04107 12.3133 1.07025 12.1622 1.10948 11.9805C1.18824 11.6157 1.30612 11.1341 1.46351 10.6565C1.62299 10.1726 1.81348 9.72268 2.02751 9.40344C2.25605 9.06257 2.42102 9 2.5 9L2.5 8C1.89716 8 1.47122 8.43743 1.19692 8.84656C0.908114 9.27732 0.68383 9.82742 0.513758 10.3435C0.341605 10.8659 0.215169 11.3843 0.132001 11.7695C0.0902632 11.9628 0.0590723 12.1242 0.0382133 12.2379C0.0277778 12.2948 0.0199112 12.3398 0.0145887 12.3711C0.011927 12.3867 0.00990012 12.3988 0.00850498 12.4073C0.00780737 12.4116 0.00726757 12.4149 0.00688521 12.4172C0.00669403 12.4184 0.00654219 12.4194 0.00642965 12.4201C0.00637338 12.4204 0.00632693 12.4207 0.0062903 12.4209C0.006272 12.4211 0.00625185 12.4212 0.00624271 12.4212C0.00622506 12.4213 0.00620985 12.4214 0.5 12.5ZM2.5 9C2.65983 9 2.87976 9.09169 3.18555 9.35044C3.48413 9.60309 3.78829 9.94756 4.12442 10.3301C4.44738 10.6976 4.80231 11.1031 5.16851 11.4129C5.52748 11.7167 5.97802 12 6.5 12V11C6.34017 11 6.12024 10.9083 5.81445 10.6496C5.51587 10.3969 5.21171 10.0524 4.87558 9.66994C4.55262 9.30244 4.19769 8.89691 3.83149 8.58706C3.47252 8.28331 3.02198 8 2.5 8L2.5 9ZM6.5 12C6.94211 12 7.29441 11.7835 7.56 11.4948C7.8182 11.2142 8.01981 10.8407 8.18621 10.443C8.51879 9.64818 8.77036 8.60465 9.00806 7.61699C9.25199 6.6034 9.48189 5.64605 9.77078 4.93915C9.91518 4.58582 10.0595 4.33393 10.1997 4.1772C10.3332 4.02811 10.4289 4 10.5 4L10.5 3C10.0597 3 9.7127 3.22189 9.45458 3.5103C9.20329 3.79107 9.00721 4.16418 8.8451 4.56085C8.52098 5.35395 8.27321 6.3966 8.03581 7.38301C7.79218 8.39535 7.55878 9.35182 7.26371 10.057C7.11629 10.4093 6.96842 10.6608 6.82409 10.8177C6.68715 10.9665 6.58388 11 6.5 11V12ZM10.5 4C10.5476 4 10.6407 4.01931 10.7851 4.19944C10.9326 4.38346 11.0826 4.67623 11.2312 5.07921C11.5275 5.88302 11.7645 6.96926 12.0114 8.10611C12.2531 9.21926 12.5048 10.383 12.8306 11.2667C12.9931 11.7075 13.1876 12.1178 13.4346 12.426C13.6848 12.7381 14.0362 13 14.5 13V12C14.4524 12 14.3593 11.9807 14.2149 11.8006C14.0674 11.6165 13.9174 11.3238 13.7688 10.9208C13.4725 10.117 13.2355 9.03074 12.9886 7.89389C12.7469 6.78074 12.4952 5.61698 12.1694 4.73329C12.0069 4.29252 11.8124 3.88216 11.5654 3.57399C11.3152 3.26194 10.9638 3 10.5 3L10.5 4ZM14.5 13C14.5027 13 14.5053 13 14.508 13C14.5106 13 14.5133 13 14.5159 13C14.5185 13 14.5212 13 14.5238 13C14.5264 13 14.529 13 14.5316 13C14.5343 13 14.5369 13 14.5395 13C14.5421 13 14.5446 13 14.5472 13C14.5498 13 14.5524 13 14.555 13C14.5575 13 14.5601 13 14.5627 13C14.5652 13 14.5678 13 14.5703 13C14.5729 13 14.5754 13 14.5779 13C14.5805 13 14.583 13 14.5855 13C14.588 13 14.5906 13 14.5931 13C14.5956 13 14.5981 13 14.6006 13C14.6031 13 14.6055 13 14.608 13C14.6105 13 14.613 13 14.6155 13C14.6179 13 14.6204 13 14.6228 13C14.6253 13 14.6278 13 14.6302 13C14.6326 13 14.6351 13 14.6375 13C14.6399 13 14.6424 13 14.6448 13C14.6472 13 14.6496 13 14.652 13C14.6544 13 14.6568 13 14.6592 13C14.6616 13 14.664 13 14.6664 13C14.6688 13 14.6711 13 14.6735 13C14.6759 13 14.6782 13 14.6806 13C14.6829 13 14.6853 13 14.6876 13C14.69 13 14.6923 13 14.6947 13C14.697 13 14.6993 13 14.7016 13C14.7039 13 14.7063 13 14.7086 13C14.7109 13 14.7132 13 14.7155 13C14.7178 13 14.72 13 14.7223 13C14.7246 13 14.7269 13 14.7292 13C14.7314 13 14.7337 13 14.736 13C14.7382 13 14.7405 13 14.7427 13C14.745 13 14.7472 13 14.7494 13C14.7517 13 14.7539 13 14.7561 13C14.7583 13 14.7605 13 14.7628 13C14.765 13 14.7672 13 14.7694 13C14.7716 13 14.7737 13 14.7759 13C14.7781 13 14.7803 13 14.7825 13C14.7846 13 14.7868 13 14.789 13C14.7911 13 14.7933 13 14.7954 13C14.7976 13 14.7997 13 14.8019 13C14.804 13 14.8061 13 14.8083 13C14.8104 13 14.8125 13 14.8146 13C14.8167 13 14.8188 13 14.8209 13C14.823 13 14.8251 13 14.8272 13C14.8293 13 14.8314 13 14.8335 13C14.8356 13 14.8376 13 14.8397 13C14.8418 13 14.8438 13 14.8459 13C14.8479 13 14.85 13 14.852 13C14.8541 13 14.8561 13 14.8581 13C14.8602 13 14.8622 13 14.8642 13C14.8662 13 14.8683 13 14.8703 13C14.8723 13 14.8743 13 14.8763 13C14.8783 13 14.8803 13 14.8822 13C14.8842 13 14.8862 13 14.8882 13C14.8902 13 14.8921 13 14.8941 13C14.8961 13 14.898 13 14.9 13C14.9019 13 14.9039 13 14.9058 13C14.9077 13 14.9097 13 14.9116 13C14.9135 13 14.9155 13 14.9174 13C14.9193 13 14.9212 13 14.9231 13C14.925 13 14.9269 13 14.9288 13C14.9307 13 14.9326 13 14.9345 13C14.9364 13 14.9382 13 14.9401 13C14.942 13 14.9439 13 14.9457 13C14.9476 13 14.9494 13 14.9513 13C14.9531 13 14.955 13 14.9568 13C14.9587 13 14.9605 13 14.9623 13C14.9641 13 14.966 13 14.9678 13C14.9696 13 14.9714 13 14.9732 13C14.975 13 14.9768 13 14.9786 13C14.9804 13 14.9822 13 14.984 13C14.9858 13 14.9876 13 14.9893 13C14.9911 13 14.9929 13 14.9946 13C14.9964 13 14.9982 13 14.9999 13C15.0017 13 15.0034 13 15.0051 13C15.0069 13 15.0086 13 15.0104 13C15.0121 13 15.0138 13 15.0155 13C15.0172 13 15.019 13 15.0207 13C15.0224 13 15.0241 13 15.0258 13C15.0275 13 15.0292 13 15.0309 13C15.0325 13 15.0342 13 15.0359 13C15.0376 13 15.0393 13 15.0409 13C15.0426 13 15.0442 13 15.0459 13C15.0476 13 15.0492 13 15.0509 13C15.0525 13 15.0541 13 15.0558 13C15.0574 13 15.059 13 15.0607 13C15.0623 13 15.0639 13 15.0655 13C15.0671 13 15.0687 13 15.0703 13C15.072 13 15.0736 13 15.0751 13C15.0767 13 15.0783 13 15.0799 13C15.0815 13 15.0831 13 15.0846 13C15.0862 13 15.0878 13 15.0893 13C15.0909 13 15.0925 13 15.094 13C15.0956 13 15.0971 13 15.0987 13C15.1002 13 15.1017 13 15.1033 13C15.1048 13 15.1063 13 15.1078 13C15.1094 13 15.1109 13 15.1124 13C15.1139 13 15.1154 13 15.1169 13C15.1184 13 15.1199 13 15.1214 13C15.1229 13 15.1244 13 15.1259 13C15.1273 13 15.1288 13 15.1303 13C15.1318 13 15.1332 13 15.1347 13C15.1362 13 15.1376 13 15.1391 13C15.1405 13 15.142 13 15.1434 13C15.1448 13 15.1463 13 15.1477 13C15.1491 13 15.1506 13 15.152 13C15.1534 13 15.1548 13 15.1562 13C15.1577 13 15.1591 13 15.1605 13C15.1619 13 15.1633 13 15.1647 13C15.166 13 15.1674 13 15.1688 13C15.1702 13 15.1716 13 15.1729 13C15.1743 13 15.1757 13 15.1771 13C15.1784 13 15.1798 13 15.1811 13C15.1825 13 15.1838 13 15.1852 13C15.1865 13 15.1879 13 15.1892 13C15.1905 13 15.1919 13 15.1932 13C15.1945 13 15.1958 13 15.1971 13C15.1985 13 15.1998 13 15.2011 13C15.2024 13 15.2037 13 15.205 13C15.2063 13 15.2076 13 15.2089 13C15.2101 13 15.2114 13 15.2127 13C15.214 13 15.2153 13 15.2165 13C15.2178 13 15.2191 13 15.2203 13C15.2216 13 15.2228 13 15.2241 13C15.2253 13 15.2266 13 15.2278 13C15.2291 13 15.2303 13 15.2315 13C15.2328 13 15.234 13 15.2352 13C15.2364 13 15.2377 13 15.2389 13C15.2401 13 15.2413 13 15.2425 13C15.2437 13 15.2449 13 15.2461 13C15.2473 13 15.2485 13 15.2497 13C15.2509 13 15.252 13 15.2532 13C15.2544 13 15.2556 13 15.2567 13C15.2579 13 15.2591 13 15.2602 13C15.2614 13 15.2625 13 15.2637 13C15.2648 13 15.266 13 15.2671 13C15.2683 13 15.2694 13 15.2705 13C15.2717 13 15.2728 13 15.2739 13C15.275 13 15.2762 13 15.2773 13C15.2784 13 15.2795 13 15.2806 13C15.2817 13 15.2828 13 15.2839 13C15.285 13 15.2861 13 15.2872 13C15.2883 13 15.2894 13 15.2904 13C15.2915 13 15.2926 13 15.2937 13C15.2947 13 15.2958 13 15.2969 13C15.2979 13 15.299 13 15.3001 13C15.3011 13 15.3022 13 15.3032 13C15.3042 13 15.3053 13 15.3063 13C15.3074 13 15.3084 13 15.3094 13C15.3105 13 15.3115 13 15.3125 13C15.3135 13 15.3145 13 15.3155 13C15.3166 13 15.3176 13 15.3186 13C15.3196 13 15.3206 13 15.3216 13C15.3226 13 15.3236 13 15.3245 13C15.3255 13 15.3265 13 15.3275 13C15.3285 13 15.3294 13 15.3304 13C15.3314 13 15.3323 13 15.3333 13C15.3343 13 15.3352 13 15.3362 13C15.3371 13 15.3381 13 15.339 13C15.34 13 15.3409 13 15.3419 13C15.3428 13 15.3437 13 15.3447 13C15.3456 13 15.3465 13 15.3474 13C15.3484 13 15.3493 13 15.3502 13C15.3511 13 15.352 13 15.3529 13C15.3538 13 15.3547 13 15.3556 13C15.3565 13 15.3574 13 15.3583 13C15.3592 13 15.3601 13 15.3609 13C15.3618 13 15.3627 13 15.3636 13C15.3645 13 15.3653 13 15.3662 13C15.3671 13 15.3679 13 15.3688 13C15.3696 13 15.3705 13 15.3713 13C15.3722 13 15.373 13 15.3739 13C15.3747 13 15.3756 13 15.3764 13C15.3772 13 15.378 13 15.3789 13C15.3797 13 15.3805 13 15.3813 13C15.3822 13 15.383 13 15.3838 13C15.3846 13 15.3854 13 15.3862 13C15.387 13 15.3878 13 15.3886 13C15.3894 13 15.3902 13 15.391 13C15.3918 13 15.3926 13 15.3933 13C15.3941 13 15.3949 13 15.3957 13C15.3964 13 15.3972 13 15.398 13C15.3987 13 15.3995 13 15.4003 13C15.401 13 15.4018 13 15.4025 13C15.4033 13 15.404 13 15.4048 13C15.4055 13 15.4063 13 15.407 13C15.4077 13 15.4085 13 15.4092 13C15.4099 13 15.4107 13 15.4114 13C15.4121 13 15.4128 13 15.4135 13C15.4142 13 15.415 13 15.4157 13C15.4164 13 15.4171 13 15.4178 13C15.4185 13 15.4192 13 15.4199 13C15.4206 13 15.4212 13 15.4219 13C15.4226 13 15.4233 13 15.424 13C15.4247 13 15.4253 13 15.426 13C15.4267 13 15.4273 13 15.428 13C15.4287 13 15.4293 13 15.43 13C15.4307 13 15.4313 13 15.432 13C15.4326 13 15.4333 13 15.4339 13C15.4345 13 15.4352 13 15.4358 13C15.4365 13 15.4371 13 15.4377 13C15.4384 13 15.439 13 15.4396 13C15.4402 13 15.4408 13 15.4415 13C15.4421 13 15.4427 13 15.4433 13C15.4439 13 15.4445 13 15.4451 13C15.4457 13 15.4463 13 15.4469 13C15.4475 13 15.4481 13 15.4487 13C15.4493 13 15.4499 13 15.4505 13C15.451 13 15.4516 13 15.4522 13C15.4528 13 15.4533 13 15.4539 13C15.4545 13 15.4551 13 15.4556 13C15.4562 13 15.4567 13 15.4573 13C15.4579 13 15.4584 13 15.459 13C15.4595 13 15.4601 13 15.4606 13C15.4611 13 15.4617 13 15.4622 13C15.4628 13 15.4633 13 15.4638 13C15.4643 13 15.4649 13 15.4654 13C15.4659 13 15.4664 13 15.467 13C15.4675 13 15.468 13 15.4685 13C15.469 13 15.4695 13 15.47 13C15.4705 13 15.471 13 15.4715 13C15.472 13 15.4725 13 15.473 13C15.4735 13 15.474 13 15.4745 13C15.475 13 15.4755 13 15.476 13C15.4764 13 15.4769 13 15.4774 13C15.4779 13 15.4783 13 15.4788 13C15.4793 13 15.4797 13 15.4802 13C15.4807 13 15.4811 13 15.4816 13C15.482 13 15.4825 13 15.4829 13C15.4834 13 15.4838 13 15.4843 13C15.4847 13 15.4852 13 15.4856 13C15.486 13 15.4865 13 15.4869 13C15.4873 13 15.4878 13 15.4882 13C15.4886 13 15.4891 13 15.4895 13C15.4899 13 15.4903 13 15.4907 13C15.4911 13 15.4916 13 15.492 13C15.4924 13 15.4928 13 15.4932 13C15.4936 13 15.494 13 15.4944 13C15.4948 13 15.4952 13 15.4956 13C15.496 13 15.4964 13 15.4967 13C15.4971 13 15.4975 13 15.4979 13C15.4983 13 15.4987 13 15.499 13C15.4994 13 15.4998 13 15.5001 13C15.5005 13 15.5009 13 15.5012 13C15.5016 13 15.502 13 15.5023 13C15.5027 13 15.503 13 15.5034 13C15.5038 13 15.5041 13 15.5045 13C15.5048 13 15.5051 13 15.5055 13C15.5058 13 15.5062 13 15.5065 13C15.5068 13 15.5072 13 15.5075 13C15.5078 13 15.5082 13 15.5085 13C15.5088 13 15.5091 13 15.5095 13C15.5098 13 15.5101 13 15.5104 13C15.5107 13 15.5111 13 15.5114 13C15.5117 13 15.512 13 15.5123 13C15.5126 13 15.5129 13 15.5132 13C15.5135 13 15.5138 13 15.5141 13C15.5144 13 15.5147 13 15.515 13C15.5153 13 15.5155 13 15.5158 13C15.5161 13 15.5164 13 15.5167 13C15.517 13 15.5172 13 15.5175 13C15.5178 13 15.5181 13 15.5183 13C15.5186 13 15.5189 13 15.5191 13C15.5194 13 15.5197 13 15.5199 13C15.5202 13 15.5204 13 15.5207 13C15.5209 13 15.5212 13 15.5215 13C15.5217 13 15.522 13 15.5222 13C15.5224 13 15.5227 13 15.5229 13C15.5232 13 15.5234 13 15.5236 13C15.5239 13 15.5241 13 15.5243 13C15.5246 13 15.5248 13 15.525 13C15.5253 13 15.5255 13 15.5257 13C15.5259 13 15.5261 13 15.5264 13C15.5266 13 15.5268 13 15.527 13C15.5272 13 15.5274 13 15.5276 13C15.5279 13 15.5281 13 15.5283 13C15.5285 13 15.5287 13 15.5289 13C15.5291 13 15.5293 13 15.5295 13C15.5297 13 15.5298 13 15.53 13C15.5302 13 15.5304 13 15.5306 13C15.5308 13 15.531 13 15.5312 13C15.5313 13 15.5315 13 15.5317 13C15.5319 13 15.532 13 15.5322 13C15.5324 13 15.5326 13 15.5327 13C15.5329 13 15.5331 13 15.5332 13C15.5334 13 15.5336 13 15.5337 13C15.5339 13 15.534 13 15.5342 13C15.5343 13 15.5345 13 15.5346 13C15.5348 13 15.535 13 15.5351 13C15.5352 13 15.5354 13 15.5355 13C15.5357 13 15.5358 13 15.536 13C15.5361 13 15.5362 13 15.5364 13C15.5365 13 15.5366 13 15.5368 13C15.5369 13 15.537 13 15.5372 13C15.5373 13 15.5374 13 15.5375 13C15.5377 13 15.5378 13 15.5379 13C15.538 13 15.5381 13 15.5383 13C15.5384 13 15.5385 13 15.5386 13C15.5387 13 15.5388 13 15.5389 13C15.539 13 15.5391 13 15.5392 13C15.5394 13 15.5395 13 15.5396 13C15.5397 13 15.5398 13 15.5399 13C15.54 13 15.54 13 15.5401 13C15.5402 13 15.5403 13 15.5404 13C15.5405 13 15.5406 13 15.5407 13C15.5408 13 15.5408 13 15.5409 13C15.541 13 15.5411 13 15.5412 13C15.5412 13 15.5413 13 15.5414 13C15.5415 13 15.5415 13 15.5416 13C15.5417 13 15.5418 13 15.5418 13C15.5419 13 15.542 13 15.542 13C15.5421 13 15.5422 13 15.5422 13C15.5423 13 15.5423 13 15.5424 13C15.5425 13 15.5425 13 15.5426 13C15.5426 13 15.5427 13 15.5427 13C15.5428 13 15.5428 13 15.5429 13C15.5429 13 15.543 13 15.543 13C15.5431 13 15.5431 13 15.5431 13C15.5432 13 15.5432 13 15.5433 13C15.5433 13 15.5433 13 15.5434 13C15.5434 13 15.5434 13 15.5435 13C15.5435 13 15.5435 13 15.5436 13C15.5436 13 15.5436 13 15.5437 13C15.5437 13 15.5437 13 15.5437 13C15.5437 13 15.5438 13 15.5438 13C15.5438 13 15.5438 13 15.5438 13C15.5439 13 15.5439 13 15.5439 13C15.5439 13 15.5439 13 15.5439 13C15.5439 13 15.5439 13 15.544 13C15.544 13 15.544 13 15.544 13C15.544 13 15.544 13 15.544 13C15.544 13 15.544 12.5 15.544 12C15.544 12 15.544 12 15.544 12C15.544 12 15.544 12 15.544 12C15.544 12 15.544 12 15.544 12C15.5439 12 15.5439 12 15.5439 12C15.5439 12 15.5439 12 15.5439 12C15.5439 12 15.5439 12 15.5438 12C15.5438 12 15.5438 12 15.5438 12C15.5438 12 15.5438 12 15.5437 12C15.5437 12 15.5437 12 15.5437 12C15.5436 12 15.5436 12 15.5436 12C15.5436 12 15.5435 12 15.5435 12C15.5435 12 15.5434 12 15.5434 12C15.5434 12 15.5433 12 15.5433 12C15.5433 12 15.5432 12 15.5432 12C15.5432 12 15.5431 12 15.5431 12C15.5431 12 15.543 12 15.543 12C15.5429 12 15.5429 12 15.5429 12C15.5428 12 15.5428 12 15.5427 12C15.5427 12 15.5426 12 15.5426 12C15.5425 12 15.5425 12 15.5424 12C15.5424 12 15.5423 12 15.5423 12C15.5422 12 15.5422 12 15.5421 12C15.5421 12 15.542 12 15.542 12C15.5419 12 15.5419 12 15.5418 12C15.5417 12 15.5417 12 15.5416 12C15.5416 12 15.5415 12 15.5414 12C15.5414 12 15.5413 12 15.5413 12C15.5412 12 15.5411 12 15.5411 12C15.541 12 15.5409 12 15.5409 12C15.5408 12 15.5407 12 15.5407 12C15.5406 12 15.5405 12 15.5404 12C15.5404 12 15.5403 12 15.5402 12C15.5402 12 15.5401 12 15.54 12C15.5399 12 15.5399 12 15.5398 12C15.5397 12 15.5396 12 15.5395 12C15.5395 12 15.5394 12 15.5393 12C15.5392 12 15.5391 12 15.5391 12C15.539 12 15.5389 12 15.5388 12C15.5387 12 15.5387 12 15.5386 12C15.5385 12 15.5384 12 15.5383 12C15.5382 12 15.5381 12 15.538 12C15.538 12 15.5379 12 15.5378 12C15.5377 12 15.5376 12 15.5375 12C15.5374 12 15.5373 12 15.5372 12C15.5371 12 15.5371 12 15.537 12C15.5369 12 15.5368 12 15.5367 12C15.5366 12 15.5365 12 15.5364 12C15.5363 12 15.5362 12 15.5361 12C15.536 12 15.5359 12 15.5358 12C15.5357 12 15.5356 12 15.5355 12C15.5354 12 15.5353 12 15.5352 12C15.5351 12 15.535 12 15.5349 12C15.5348 12 15.5347 12 15.5346 12C15.5345 12 15.5344 12 15.5343 12C15.5342 12 15.5341 12 15.534 12C15.5339 12 15.5338 12 15.5337 12C15.5335 12 15.5334 12 15.5333 12C15.5332 12 15.5331 12 15.533 12C15.5329 12 15.5328 12 15.5327 12C15.5326 12 15.5325 12 15.5323 12C15.5322 12 15.5321 12 15.532 12C15.5319 12 15.5318 12 15.5317 12C15.5316 12 15.5315 12 15.5313 12C15.5312 12 15.5311 12 15.531 12C15.5309 12 15.5308 12 15.5307 12C15.5305 12 15.5304 12 15.5303 12C15.5302 12 15.5301 12 15.53 12C15.5299 12 15.5297 12 15.5296 12C15.5295 12 15.5294 12 15.5293 12C15.5292 12 15.529 12 15.5289 12C15.5288 12 15.5287 12 15.5286 12C15.5284 12 15.5283 12 15.5282 12C15.5281 12 15.528 12 15.5278 12C15.5277 12 15.5276 12 15.5275 12C15.5274 12 15.5272 12 15.5271 12C15.527 12 15.5269 12 15.5268 12C15.5266 12 15.5265 12 15.5264 12C15.5263 12 15.5262 12 15.526 12C15.5259 12 15.5258 12 15.5257 12C15.5255 12 15.5254 12 15.5253 12C15.5252 12 15.5251 12 15.5249 12C15.5248 12 15.5247 12 15.5246 12C15.5244 12 15.5243 12 15.5242 12C15.5241 12 15.524 12 15.5238 12C15.5237 12 15.5236 12 15.5235 12C15.5233 12 15.5232 12 15.5231 12C15.523 12 15.5228 12 15.5227 12C15.5226 12 15.5225 12 15.5224 12C15.5222 12 15.5221 12 15.522 12C15.5219 12 15.5217 12 15.5216 12C15.5215 12 15.5214 12 15.5212 12C15.5211 12 15.521 12 15.5209 12C15.5207 12 15.5206 12 15.5205 12C15.5204 12 15.5203 12 15.5201 12C15.52 12 15.5199 12 15.5198 12C15.5196 12 15.5195 12 15.5194 12C15.5193 12 15.5191 12 15.519 12C15.5189 12 15.5188 12 15.5187 12C15.5185 12 15.5184 12 15.5183 12C15.5182 12 15.518 12 15.5179 12C15.5178 12 15.5177 12 15.5176 12C15.5174 12 15.5173 12 15.5172 12C15.5171 12 15.517 12 15.5168 12C15.5167 12 15.5166 12 15.5165 12C15.5164 12 15.5162 12 15.5161 12C15.516 12 15.5159 12 15.5158 12C15.5156 12 15.5155 12 15.5154 12C15.5153 12 15.5152 12 15.515 12C15.5149 12 15.5148 12 15.5147 12C15.5146 12 15.5145 12 15.5143 12C15.5142 12 15.5141 12 15.514 12C15.5139 12 15.5138 12 15.5136 12C15.5135 12 15.5134 12 15.5133 12C15.5132 12 15.5131 12 15.513 12C15.5128 12 15.5127 12 15.5126 12C15.5125 12 15.5124 12 15.5123 12C15.5122 12 15.5121 12 15.5119 12C15.5118 12 15.5117 12 15.5116 12C15.5115 12 15.5114 12 15.5113 12C15.5112 12 15.5111 12 15.511 12C15.5109 12 15.5107 12 15.5106 12C15.5105 12 15.5104 12 15.5103 12C15.5102 12 15.5101 12 15.51 12C15.5099 12 15.5098 12 15.5097 12C15.5096 12 15.5095 12 15.5094 12C15.5093 12 15.5092 12 15.5091 12C15.509 12 15.5089 12 15.5088 12C15.5087 12 15.5086 12 15.5085 12C15.5084 12 15.5083 12 15.5082 12C15.5081 12 15.508 12 15.5079 12C15.5078 12 15.5077 12 15.5076 12C15.5075 12 15.5074 12 15.5073 12C15.5072 12 15.5071 12 15.507 12C15.5069 12 15.5068 12 15.5067 12C15.5066 12 15.5065 12 15.5065 12C15.5064 12 15.5063 12 15.5062 12C15.5061 12 15.506 12 15.5059 12C15.5058 12 15.5057 12 15.5057 12C15.5056 12 15.5055 12 15.5054 12C15.5053 12 15.5052 12 15.5052 12C15.5051 12 15.505 12 15.5049 12C15.5048 12 15.5047 12 15.5047 12C15.5046 12 15.5045 12 15.5044 12C15.5044 12 15.5043 12 15.5042 12C15.5041 12 15.504 12 15.504 12C15.5039 12 15.5038 12 15.5038 12C15.5037 12 15.5036 12 15.5035 12C15.5035 12 15.5034 12 15.5033 12C15.5033 12 15.5032 12 15.5031 12C15.5031 12 15.503 12 15.5029 12C15.5029 12 15.5028 12 15.5027 12C15.5027 12 15.5026 12 15.5025 12C15.5025 12 15.5024 12 15.5024 12C15.5023 12 15.5022 12 15.5022 12C15.5021 12 15.5021 12 15.502 12C15.502 12 15.5019 12 15.5018 12C15.5018 12 15.5017 12 15.5017 12C15.5016 12 15.5016 12 15.5015 12C15.5015 12 15.5014 12 15.5014 12C15.5013 12 15.5013 12 15.5013 12C15.5012 12 15.5012 12 15.5011 12C15.5011 12 15.501 12 15.501 12C15.501 12 15.5009 12 15.5009 12C15.5008 12 15.5008 12 15.5008 12C15.5007 12 15.5007 12 15.5007 12C15.5006 12 15.5006 12 15.5006 12C15.5005 12 15.5005 12 15.5005 12C15.5005 12 15.5004 12 15.5004 12C15.5004 12 15.5003 12 15.5003 12C15.5003 12 15.5003 12 15.5003 12C15.5002 12 15.5002 12 15.5002 12C15.5002 12 15.5002 12 15.5001 12C15.5001 12 15.5001 12 15.5001 12C15.5001 12 15.5001 12 15.5001 12C15.5001 12 15.5 12 15.5 12C15.5 12 15.5 12 15.5 12C15.5 12 15.5 12 15.5 12C15.5 12 15.5 12 15.5 12.5C15.5 13 15.5 13 15.5 13C15.5 13 15.5 13 15.5 13C15.5 13 15.5 13 15.5 13C15.5 13 15.5001 13 15.5001 13C15.5001 13 15.5001 13 15.5001 13C15.5001 13 15.5001 13 15.5001 13C15.5002 13 15.5002 13 15.5002 13C15.5002 13 15.5002 13 15.5003 13C15.5003 13 15.5003 13 15.5003 13C15.5003 13 15.5004 13 15.5004 13C15.5004 13 15.5005 13 15.5005 13C15.5005 13 15.5005 13 15.5006 13C15.5006 13 15.5006 13 15.5007 13C15.5007 13 15.5007 13 15.5008 13C15.5008 13 15.5008 13 15.5009 13C15.5009 13 15.501 13 15.501 13C15.501 13 15.5011 13 15.5011 13C15.5012 13 15.5012 13 15.5013 13C15.5013 13 15.5013 13 15.5014 13C15.5014 13 15.5015 13 15.5015 13C15.5016 13 15.5016 13 15.5017 13C15.5017 13 15.5018 13 15.5018 13C15.5019 13 15.502 13 15.502 13C15.5021 13 15.5021 13 15.5022 13C15.5022 13 15.5023 13 15.5024 13C15.5024 13 15.5025 13 15.5025 13C15.5026 13 15.5027 13 15.5027 13C15.5028 13 15.5029 13 15.5029 13C15.503 13 15.5031 13 15.5031 13C15.5032 13 15.5033 13 15.5033 13C15.5034 13 15.5035 13 15.5035 13C15.5036 13 15.5037 13 15.5038 13C15.5038 13 15.5039 13 15.504 13C15.504 13 15.5041 13 15.5042 13C15.5043 13 15.5044 13 15.5044 13C15.5045 13 15.5046 13 15.5047 13C15.5047 13 15.5048 13 15.5049 13C15.505 13 15.5051 13 15.5052 13C15.5052 13 15.5053 13 15.5054 13C15.5055 13 15.5056 13 15.5057 13C15.5057 13 15.5058 13 15.5059 13C15.506 13 15.5061 13 15.5062 13C15.5063 13 15.5064 13 15.5065 13C15.5065 13 15.5066 13 15.5067 13C15.5068 13 15.5069 13 15.507 13C15.5071 13 15.5072 13 15.5073 13C15.5074 13 15.5075 13 15.5076 13C15.5077 13 15.5078 13 15.5079 13C15.508 13 15.5081 13 15.5082 13C15.5083 13 15.5084 13 15.5085 13C15.5086 13 15.5087 13 15.5088 13C15.5089 13 15.509 13 15.5091 13C15.5092 13 15.5093 13 15.5094 13C15.5095 13 15.5096 13 15.5097 13C15.5098 13 15.5099 13 15.51 13C15.5101 13 15.5102 13 15.5103 13C15.5104 13 15.5105 13 15.5106 13C15.5107 13 15.5109 13 15.511 13C15.5111 13 15.5112 13 15.5113 13C15.5114 13 15.5115 13 15.5116 13C15.5117 13 15.5118 13 15.5119 13C15.5121 13 15.5122 13 15.5123 13C15.5124 13 15.5125 13 15.5126 13C15.5127 13 15.5128 13 15.513 13C15.5131 13 15.5132 13 15.5133 13C15.5134 13 15.5135 13 15.5136 13C15.5138 13 15.5139 13 15.514 13C15.5141 13 15.5142 13 15.5143 13C15.5145 13 15.5146 13 15.5147 13C15.5148 13 15.5149 13 15.515 13C15.5152 13 15.5153 13 15.5154 13C15.5155 13 15.5156 13 15.5158 13C15.5159 13 15.516 13 15.5161 13C15.5162 13 15.5164 13 15.5165 13C15.5166 13 15.5167 13 15.5168 13C15.517 13 15.5171 13 15.5172 13C15.5173 13 15.5174 13 15.5176 13C15.5177 13 15.5178 13 15.5179 13C15.518 13 15.5182 13 15.5183 13C15.5184 13 15.5185 13 15.5187 13C15.5188 13 15.5189 13 15.519 13C15.5191 13 15.5193 13 15.5194 13C15.5195 13 15.5196 13 15.5198 13C15.5199 13 15.52 13 15.5201 13C15.5203 13 15.5204 13 15.5205 13C15.5206 13 15.5207 13 15.5209 13C15.521 13 15.5211 13 15.5212 13C15.5214 13 15.5215 13 15.5216 13C15.5217 13 15.5219 13 15.522 13C15.5221 13 15.5222 13 15.5224 13C15.5225 13 15.5226 13 15.5227 13C15.5228 13 15.523 13 15.5231 13C15.5232 13 15.5233 13 15.5235 13C15.5236 13 15.5237 13 15.5238 13C15.524 13 15.5241 13 15.5242 13C15.5243 13 15.5244 13 15.5246 13C15.5247 13 15.5248 13 15.5249 13C15.5251 13 15.5252 13 15.5253 13C15.5254 13 15.5255 13 15.5257 13C15.5258 13 15.5259 13 15.526 13C15.5262 13 15.5263 13 15.5264 13C15.5265 13 15.5266 13 15.5268 13C15.5269 13 15.527 13 15.5271 13C15.5272 13 15.5274 13 15.5275 13C15.5276 13 15.5277 13 15.5278 13C15.528 13 15.5281 13 15.5282 13C15.5283 13 15.5284 13 15.5286 13C15.5287 13 15.5288 13 15.5289 13C15.529 13 15.5292 13 15.5293 13C15.5294 13 15.5295 13 15.5296 13C15.5297 13 15.5299 13 15.53 13C15.5301 13 15.5302 13 15.5303 13C15.5304 13 15.5305 13 15.5307 13C15.5308 13 15.5309 13 15.531 13C15.5311 13 15.5312 13 15.5313 13C15.5315 13 15.5316 13 15.5317 13C15.5318 13 15.5319 13 15.532 13C15.5321 13 15.5322 13 15.5323 13C15.5325 13 15.5326 13 15.5327 13C15.5328 13 15.5329 13 15.533 13C15.5331 13 15.5332 13 15.5333 13C15.5334 13 15.5335 13 15.5337 13C15.5338 13 15.5339 13 15.534 13C15.5341 13 15.5342 13 15.5343 13C15.5344 13 15.5345 13 15.5346 13C15.5347 13 15.5348 13 15.5349 13C15.535 13 15.5351 13 15.5352 13C15.5353 13 15.5354 13 15.5355 13C15.5356 13 15.5357 13 15.5358 13C15.5359 13 15.536 13 15.5361 13C15.5362 13 15.5363 13 15.5364 13C15.5365 13 15.5366 13 15.5367 13C15.5368 13 15.5369 13 15.537 13C15.5371 13 15.5371 13 15.5372 13C15.5373 13 15.5374 13 15.5375 13C15.5376 13 15.5377 13 15.5378 13C15.5379 13 15.538 13 15.538 13C15.5381 13 15.5382 13 15.5383 13C15.5384 13 15.5385 13 15.5386 13C15.5387 13 15.5387 13 15.5388 13C15.5389 13 15.539 13 15.5391 13C15.5391 13 15.5392 13 15.5393 13C15.5394 13 15.5395 13 15.5395 13C15.5396 13 15.5397 13 15.5398 13C15.5399 13 15.5399 13 15.54 13C15.5401 13 15.5402 13 15.5402 13C15.5403 13 15.5404 13 15.5404 13C15.5405 13 15.5406 13 15.5407 13C15.5407 13 15.5408 13 15.5409 13C15.5409 13 15.541 13 15.5411 13C15.5411 13 15.5412 13 15.5413 13C15.5413 13 15.5414 13 15.5414 13C15.5415 13 15.5416 13 15.5416 13C15.5417 13 15.5417 13 15.5418 13C15.5419 13 15.5419 13 15.542 13C15.542 13 15.5421 13 15.5421 13C15.5422 13 15.5422 13 15.5423 13C15.5423 13 15.5424 13 15.5424 13C15.5425 13 15.5425 13 15.5426 13C15.5426 13 15.5427 13 15.5427 13C15.5428 13 15.5428 13 15.5429 13C15.5429 13 15.5429 13 15.543 13C15.543 13 15.5431 13 15.5431 13C15.5431 13 15.5432 13 15.5432 13C15.5432 13 15.5433 13 15.5433 13C15.5433 13 15.5434 13 15.5434 13C15.5434 13 15.5435 13 15.5435 13C15.5435 13 15.5436 13 15.5436 13C15.5436 13 15.5436 13 15.5437 13C15.5437 13 15.5437 13 15.5437 13C15.5438 13 15.5438 13 15.5438 13C15.5438 13 15.5438 13 15.5438 13C15.5439 13 15.5439 13 15.5439 13C15.5439 13 15.5439 13 15.5439 13C15.5439 13 15.5439 13 15.544 13C15.544 13 15.544 13 15.544 13C15.544 13 15.544 13 15.544 13C15.544 13 15.544 13 15.544 13C15.544 12.5 15.544 12 15.544 12C15.544 12 15.544 12 15.544 12C15.544 12 15.544 12 15.544 12C15.5439 12 15.5439 12 15.5439 12C15.5439 12 15.5439 12 15.5439 12C15.5439 12 15.5439 12 15.5438 12C15.5438 12 15.5438 12 15.5438 12C15.5438 12 15.5437 12 15.5437 12C15.5437 12 15.5437 12 15.5437 12C15.5436 12 15.5436 12 15.5436 12C15.5435 12 15.5435 12 15.5435 12C15.5434 12 15.5434 12 15.5434 12C15.5433 12 15.5433 12 15.5433 12C15.5432 12 15.5432 12 15.5431 12C15.5431 12 15.5431 12 15.543 12C15.543 12 15.5429 12 15.5429 12C15.5428 12 15.5428 12 15.5427 12C15.5427 12 15.5426 12 15.5426 12C15.5425 12 15.5425 12 15.5424 12C15.5423 12 15.5423 12 15.5422 12C15.5422 12 15.5421 12 15.542 12C15.542 12 15.5419 12 15.5418 12C15.5418 12 15.5417 12 15.5416 12C15.5415 12 15.5415 12 15.5414 12C15.5413 12 15.5412 12 15.5412 12C15.5411 12 15.541 12 15.5409 12C15.5408 12 15.5408 12 15.5407 12C15.5406 12 15.5405 12 15.5404 12C15.5403 12 15.5402 12 15.5401 12C15.54 12 15.54 12 15.5399 12C15.5398 12 15.5397 12 15.5396 12C15.5395 12 15.5394 12 15.5392 12C15.5391 12 15.539 12 15.5389 12C15.5388 12 15.5387 12 15.5386 12C15.5385 12 15.5384 12 15.5383 12C15.5381 12 15.538 12 15.5379 12C15.5378 12 15.5377 12 15.5375 12C15.5374 12 15.5373 12 15.5372 12C15.537 12 15.5369 12 15.5368 12C15.5366 12 15.5365 12 15.5364 12C15.5362 12 15.5361 12 15.536 12C15.5358 12 15.5357 12 15.5355 12C15.5354 12 15.5352 12 15.5351 12C15.535 12 15.5348 12 15.5346 12C15.5345 12 15.5343 12 15.5342 12C15.534 12 15.5339 12 15.5337 12C15.5336 12 15.5334 12 15.5332 12C15.5331 12 15.5329 12 15.5327 12C15.5326 12 15.5324 12 15.5322 12C15.532 12 15.5319 12 15.5317 12C15.5315 12 15.5313 12 15.5312 12C15.531 12 15.5308 12 15.5306 12C15.5304 12 15.5302 12 15.53 12C15.5298 12 15.5297 12 15.5295 12C15.5293 12 15.5291 12 15.5289 12C15.5287 12 15.5285 12 15.5283 12C15.5281 12 15.5279 12 15.5276 12C15.5274 12 15.5272 12 15.527 12C15.5268 12 15.5266 12 15.5264 12C15.5261 12 15.5259 12 15.5257 12C15.5255 12 15.5253 12 15.525 12C15.5248 12 15.5246 12 15.5243 12C15.5241 12 15.5239 12 15.5236 12C15.5234 12 15.5232 12 15.5229 12C15.5227 12 15.5224 12 15.5222 12C15.522 12 15.5217 12 15.5215 12C15.5212 12 15.5209 12 15.5207 12C15.5204 12 15.5202 12 15.5199 12C15.5197 12 15.5194 12 15.5191 12C15.5189 12 15.5186 12 15.5183 12C15.5181 12 15.5178 12 15.5175 12C15.5172 12 15.517 12 15.5167 12C15.5164 12 15.5161 12 15.5158 12C15.5155 12 15.5153 12 15.515 12C15.5147 12 15.5144 12 15.5141 12C15.5138 12 15.5135 12 15.5132 12C15.5129 12 15.5126 12 15.5123 12C15.512 12 15.5117 12 15.5114 12C15.5111 12 15.5107 12 15.5104 12C15.5101 12 15.5098 12 15.5095 12C15.5091 12 15.5088 12 15.5085 12C15.5082 12 15.5078 12 15.5075 12C15.5072 12 15.5068 12 15.5065 12C15.5062 12 15.5058 12 15.5055 12C15.5051 12 15.5048 12 15.5045 12C15.5041 12 15.5038 12 15.5034 12C15.503 12 15.5027 12 15.5023 12C15.502 12 15.5016 12 15.5012 12C15.5009 12 15.5005 12 15.5001 12C15.4998 12 15.4994 12 15.499 12C15.4987 12 15.4983 12 15.4979 12C15.4975 12 15.4971 12 15.4967 12C15.4964 12 15.496 12 15.4956 12C15.4952 12 15.4948 12 15.4944 12C15.494 12 15.4936 12 15.4932 12C15.4928 12 15.4924 12 15.492 12C15.4916 12 15.4911 12 15.4907 12C15.4903 12 15.4899 12 15.4895 12C15.4891 12 15.4886 12 15.4882 12C15.4878 12 15.4873 12 15.4869 12C15.4865 12 15.486 12 15.4856 12C15.4852 12 15.4847 12 15.4843 12C15.4838 12 15.4834 12 15.4829 12C15.4825 12 15.482 12 15.4816 12C15.4811 12 15.4807 12 15.4802 12C15.4797 12 15.4793 12 15.4788 12C15.4783 12 15.4779 12 15.4774 12C15.4769 12 15.4764 12 15.476 12C15.4755 12 15.475 12 15.4745 12C15.474 12 15.4735 12 15.473 12C15.4725 12 15.472 12 15.4715 12C15.471 12 15.4705 12 15.47 12C15.4695 12 15.469 12 15.4685 12C15.468 12 15.4675 12 15.467 12C15.4664 12 15.4659 12 15.4654 12C15.4649 12 15.4643 12 15.4638 12C15.4633 12 15.4628 12 15.4622 12C15.4617 12 15.4611 12 15.4606 12C15.4601 12 15.4595 12 15.459 12C15.4584 12 15.4579 12 15.4573 12C15.4567 12 15.4562 12 15.4556 12C15.4551 12 15.4545 12 15.4539 12C15.4533 12 15.4528 12 15.4522 12C15.4516 12 15.451 12 15.4505 12C15.4499 12 15.4493 12 15.4487 12C15.4481 12 15.4475 12 15.4469 12C15.4463 12 15.4457 12 15.4451 12C15.4445 12 15.4439 12 15.4433 12C15.4427 12 15.4421 12 15.4415 12C15.4408 12 15.4402 12 15.4396 12C15.439 12 15.4384 12 15.4377 12C15.4371 12 15.4365 12 15.4358 12C15.4352 12 15.4345 12 15.4339 12C15.4333 12 15.4326 12 15.432 12C15.4313 12 15.4307 12 15.43 12C15.4293 12 15.4287 12 15.428 12C15.4273 12 15.4267 12 15.426 12C15.4253 12 15.4247 12 15.424 12C15.4233 12 15.4226 12 15.4219 12C15.4212 12 15.4206 12 15.4199 12C15.4192 12 15.4185 12 15.4178 12C15.4171 12 15.4164 12 15.4157 12C15.415 12 15.4142 12 15.4135 12C15.4128 12 15.4121 12 15.4114 12C15.4107 12 15.4099 12 15.4092 12C15.4085 12 15.4077 12 15.407 12C15.4063 12 15.4055 12 15.4048 12C15.404 12 15.4033 12 15.4025 12C15.4018 12 15.401 12 15.4003 12C15.3995 12 15.3987 12 15.398 12C15.3972 12 15.3964 12 15.3957 12C15.3949 12 15.3941 12 15.3933 12C15.3926 12 15.3918 12 15.391 12C15.3902 12 15.3894 12 15.3886 12C15.3878 12 15.387 12 15.3862 12C15.3854 12 15.3846 12 15.3838 12C15.383 12 15.3822 12 15.3813 12C15.3805 12 15.3797 12 15.3789 12C15.378 12 15.3772 12 15.3764 12C15.3756 12 15.3747 12 15.3739 12C15.373 12 15.3722 12 15.3713 12C15.3705 12 15.3696 12 15.3688 12C15.3679 12 15.3671 12 15.3662 12C15.3653 12 15.3645 12 15.3636 12C15.3627 12 15.3618 12 15.3609 12C15.3601 12 15.3592 12 15.3583 12C15.3574 12 15.3565 12 15.3556 12C15.3547 12 15.3538 12 15.3529 12C15.352 12 15.3511 12 15.3502 12C15.3493 12 15.3484 12 15.3474 12C15.3465 12 15.3456 12 15.3447 12C15.3437 12 15.3428 12 15.3419 12C15.3409 12 15.34 12 15.339 12C15.3381 12 15.3371 12 15.3362 12C15.3352 12 15.3343 12 15.3333 12C15.3323 12 15.3314 12 15.3304 12C15.3294 12 15.3285 12 15.3275 12C15.3265 12 15.3255 12 15.3245 12C15.3236 12 15.3226 12 15.3216 12C15.3206 12 15.3196 12 15.3186 12C15.3176 12 15.3166 12 15.3155 12C15.3145 12 15.3135 12 15.3125 12C15.3115 12 15.3105 12 15.3094 12C15.3084 12 15.3074 12 15.3063 12C15.3053 12 15.3042 12 15.3032 12C15.3022 12 15.3011 12 15.3001 12C15.299 12 15.2979 12 15.2969 12C15.2958 12 15.2947 12 15.2937 12C15.2926 12 15.2915 12 15.2904 12C15.2894 12 15.2883 12 15.2872 12C15.2861 12 15.285 12 15.2839 12C15.2828 12 15.2817 12 15.2806 12C15.2795 12 15.2784 12 15.2773 12C15.2762 12 15.275 12 15.2739 12C15.2728 12 15.2717 12 15.2705 12C15.2694 12 15.2683 12 15.2671 12C15.266 12 15.2648 12 15.2637 12C15.2625 12 15.2614 12 15.2602 12C15.2591 12 15.2579 12 15.2567 12C15.2556 12 15.2544 12 15.2532 12C15.252 12 15.2509 12 15.2497 12C15.2485 12 15.2473 12 15.2461 12C15.2449 12 15.2437 12 15.2425 12C15.2413 12 15.2401 12 15.2389 12C15.2377 12 15.2364 12 15.2352 12C15.234 12 15.2328 12 15.2315 12C15.2303 12 15.2291 12 15.2278 12C15.2266 12 15.2253 12 15.2241 12C15.2228 12 15.2216 12 15.2203 12C15.2191 12 15.2178 12 15.2165 12C15.2153 12 15.214 12 15.2127 12C15.2114 12 15.2101 12 15.2089 12C15.2076 12 15.2063 12 15.205 12C15.2037 12 15.2024 12 15.2011 12C15.1998 12 15.1985 12 15.1971 12C15.1958 12 15.1945 12 15.1932 12C15.1919 12 15.1905 12 15.1892 12C15.1879 12 15.1865 12 15.1852 12C15.1838 12 15.1825 12 15.1811 12C15.1798 12 15.1784 12 15.1771 12C15.1757 12 15.1743 12 15.1729 12C15.1716 12 15.1702 12 15.1688 12C15.1674 12 15.166 12 15.1647 12C15.1633 12 15.1619 12 15.1605 12C15.1591 12 15.1577 12 15.1562 12C15.1548 12 15.1534 12 15.152 12C15.1506 12 15.1491 12 15.1477 12C15.1463 12 15.1448 12 15.1434 12C15.142 12 15.1405 12 15.1391 12C15.1376 12 15.1362 12 15.1347 12C15.1332 12 15.1318 12 15.1303 12C15.1288 12 15.1273 12 15.1259 12C15.1244 12 15.1229 12 15.1214 12C15.1199 12 15.1184 12 15.1169 12C15.1154 12 15.1139 12 15.1124 12C15.1109 12 15.1094 12 15.1078 12C15.1063 12 15.1048 12 15.1033 12C15.1017 12 15.1002 12 15.0987 12C15.0971 12 15.0956 12 15.094 12C15.0925 12 15.0909 12 15.0893 12C15.0878 12 15.0862 12 15.0846 12C15.0831 12 15.0815 12 15.0799 12C15.0783 12 15.0767 12 15.0751 12C15.0736 12 15.072 12 15.0703 12C15.0687 12 15.0671 12 15.0655 12C15.0639 12 15.0623 12 15.0607 12C15.059 12 15.0574 12 15.0558 12C15.0541 12 15.0525 12 15.0509 12C15.0492 12 15.0476 12 15.0459 12C15.0442 12 15.0426 12 15.0409 12C15.0393 12 15.0376 12 15.0359 12C15.0342 12 15.0325 12 15.0309 12C15.0292 12 15.0275 12 15.0258 12C15.0241 12 15.0224 12 15.0207 12C15.019 12 15.0172 12 15.0155 12C15.0138 12 15.0121 12 15.0104 12C15.0086 12 15.0069 12 15.0051 12C15.0034 12 15.0017 12 14.9999 12C14.9982 12 14.9964 12 14.9946 12C14.9929 12 14.9911 12 14.9893 12C14.9876 12 14.9858 12 14.984 12C14.9822 12 14.9804 12 14.9786 12C14.9768 12 14.975 12 14.9732 12C14.9714 12 14.9696 12 14.9678 12C14.966 12 14.9641 12 14.9623 12C14.9605 12 14.9587 12 14.9568 12C14.955 12 14.9531 12 14.9513 12C14.9494 12 14.9476 12 14.9457 12C14.9439 12 14.942 12 14.9401 12C14.9382 12 14.9364 12 14.9345 12C14.9326 12 14.9307 12 14.9288 12C14.9269 12 14.925 12 14.9231 12C14.9212 12 14.9193 12 14.9174 12C14.9155 12 14.9135 12 14.9116 12C14.9097 12 14.9077 12 14.9058 12C14.9039 12 14.9019 12 14.9 12C14.898 12 14.8961 12 14.8941 12C14.8921 12 14.8902 12 14.8882 12C14.8862 12 14.8842 12 14.8822 12C14.8803 12 14.8783 12 14.8763 12C14.8743 12 14.8723 12 14.8703 12C14.8683 12 14.8662 12 14.8642 12C14.8622 12 14.8602 12 14.8581 12C14.8561 12 14.8541 12 14.852 12C14.85 12 14.8479 12 14.8459 12C14.8438 12 14.8418 12 14.8397 12C14.8376 12 14.8356 12 14.8335 12C14.8314 12 14.8293 12 14.8272 12C14.8251 12 14.823 12 14.8209 12C14.8188 12 14.8167 12 14.8146 12C14.8125 12 14.8104 12 14.8083 12C14.8061 12 14.804 12 14.8019 12C14.7997 12 14.7976 12 14.7954 12C14.7933 12 14.7911 12 14.789 12C14.7868 12 14.7846 12 14.7825 12C14.7803 12 14.7781 12 14.7759 12C14.7737 12 14.7716 12 14.7694 12C14.7672 12 14.765 12 14.7628 12C14.7605 12 14.7583 12 14.7561 12C14.7539 12 14.7517 12 14.7494 12C14.7472 12 14.745 12 14.7427 12C14.7405 12 14.7382 12 14.736 12C14.7337 12 14.7314 12 14.7292 12C14.7269 12 14.7246 12 14.7223 12C14.72 12 14.7178 12 14.7155 12C14.7132 12 14.7109 12 14.7086 12C14.7063 12 14.7039 12 14.7016 12C14.6993 12 14.697 12 14.6947 12C14.6923 12 14.69 12 14.6876 12C14.6853 12 14.6829 12 14.6806 12C14.6782 12 14.6759 12 14.6735 12C14.6711 12 14.6688 12 14.6664 12C14.664 12 14.6616 12 14.6592 12C14.6568 12 14.6544 12 14.652 12C14.6496 12 14.6472 12 14.6448 12C14.6424 12 14.6399 12 14.6375 12C14.6351 12 14.6326 12 14.6302 12C14.6278 12 14.6253 12 14.6228 12C14.6204 12 14.6179 12 14.6155 12C14.613 12 14.6105 12 14.608 12C14.6055 12 14.6031 12 14.6006 12C14.5981 12 14.5956 12 14.5931 12C14.5906 12 14.588 12 14.5855 12C14.583 12 14.5805 12 14.5779 12C14.5754 12 14.5729 12 14.5703 12C14.5678 12 14.5652 12 14.5627 12C14.5601 12 14.5575 12 14.555 12C14.5524 12 14.5498 12 14.5472 12C14.5446 12 14.5421 12 14.5395 12C14.5369 12 14.5343 12 14.5316 12C14.529 12 14.5264 12 14.5238 12C14.5212 12 14.5185 12 14.5159 12C14.5133 12 14.5106 12 14.508 12C14.5053 12 14.5027 12 14.5 12V13Z" fill="var(--mw-icon-background-default-dark-gray, #A6A6A6)"/>
<path d="M4.5 8.5C4.5 9.05228 4.05228 9.5 3.5 9.5C2.94772 9.5 2.5 9.05228 2.5 8.5C2.5 7.94772 2.94772 7.5 3.5 7.5C4.05228 7.5 4.5 7.94772 4.5 8.5Z" fill="#1171BE"/>
<path d="M3.5 9.5C4.05228 9.5 4.5 9.05228 4.5 8.5C4.5 7.94772 4.05228 7.5 3.5 7.5C2.94772 7.5 2.5 7.94772 2.5 8.5C2.5 9.05228 2.94772 9.5 3.5 9.5ZM3.5 9.5V15.5" stroke="#1171BE" stroke-linecap="square" stroke-linejoin="round"/>
<path d="M12.5 5.5C12.5 6.05228 12.0523 6.5 11.5 6.5C10.9477 6.5 10.5 6.05228 10.5 5.5C10.5 4.94772 10.9477 4.5 11.5 4.5C12.0523 4.5 12.5 4.94772 12.5 5.5Z" fill="#1171BE"/>
<path d="M11.5 6.5C12.0523 6.5 12.5 6.05228 12.5 5.5C12.5 4.94772 12.0523 4.5 11.5 4.5C10.9477 4.5 10.5 4.94772 10.5 5.5C10.5 6.05228 10.9477 6.5 11.5 6.5ZM11.5 6.5V15.5" stroke="#1171BE" stroke-linecap="square" stroke-linejoin="round"/>
<path d="M8.5 10.5C8.5 11.0523 8.05228 11.5 7.5 11.5C6.94772 11.5 6.5 11.0523 6.5 10.5C6.5 9.94772 6.94772 9.5 7.5 9.5C8.05228 9.5 8.5 9.94772 8.5 10.5Z" fill="#1171BE"/>
<path d="M7.5 11.5C8.05228 11.5 8.5 11.0523 8.5 10.5C8.5 9.94772 8.05228 9.5 7.5 9.5C6.94772 9.5 6.5 9.94772 6.5 10.5C6.5 11.0523 6.94772 11.5 7.5 11.5ZM7.5 11.5V14V15.5" stroke="#1171BE" stroke-linecap="square" stroke-linejoin="round"/>
<path d="M3.5 15.5V14.5M7.5 15.5V14.5M11.5 15.5V14.5" stroke="var(--mw-icon-border-default-gray, #616161)" stroke-linecap="square" stroke-linejoin="round"/>
<path d="M0.5 2.5C0.5 1.39543 1.39543 0.5 2.5 0.5H13.5C14.6046 0.5 15.5 1.39543 15.5 2.5V13.5C15.5 14.6046 14.6046 15.5 13.5 15.5H2.5C1.39543 15.5 0.5 14.6046 0.5 13.5V2.5Z" stroke="var(--mw-icon-border-default-gray, #616161)" stroke-linejoin="round"/>
</svg>
