<svg width="16" height="16" viewBox="0 0 16 16" fill="none" xmlns="http://www.w3.org/2000/svg">
<path d="M0.5 14.5V1.5C0.5 0.947715 0.947715 0.5 1.5 0.5H14.5C15.0523 0.5 15.5 0.947715 15.5 1.5V14.5C15.5 15.0523 15.0523 15.5 14.5 15.5H1.5C0.947715 15.5 0.5 15.0523 0.5 14.5Z" fill="var(--mw-icon-background-default-white, #FFFFFF)"/>
<path d="M1 14C2.73336 14 5.5 8.5 5.5 8.5C5.5 8.5 7 14.5 9.5 14.5C12 14.5 12.5 10.5 12.5 10.5C12.5 10.5 12.5125 13.5 15 14" stroke="var(--mw-icon-glyph-content-light-blue, #278CDD)" stroke-miterlimit="1" stroke-linecap="round" stroke-linejoin="round"/>
<path d="M0.5 13.5V2.5C0.5 1.39543 1.39543 0.5 2.5 0.5H13.5C14.6046 0.5 15.5 1.39543 15.5 2.5V13.5C15.5 14.6046 14.6046 15.5 13.5 15.5H2.5C1.39543 15.5 0.5 14.6046 0.5 13.5Z" stroke="var(--mw-icon-border-default-gray, #616161)" stroke-linejoin="round"/>
<path d="M5.5 6.5L2.5 2.5L8.5 2.5L5.5 6.5Z" fill="var(--mw-icon-background-medium-yellow, #FFEF91)" stroke="var(--mw-icon-glyph-content-yellow, #674C07)" stroke-linejoin="round"/>
</svg>
