<svg width="16" height="16" viewBox="0 0 16 16" fill="none" xmlns="http://www.w3.org/2000/svg">
<rect width="16" height="16" fill="var(--mw-icon-background-default-white, #FFFFFF)"/>
<path d="M2.5 15.5C2.5 6 7.5 5.5 15.5 5.5" stroke="#0072BD"/>
<rect x="0.5" y="0.5" width="15" height="15" stroke="var(--mw-icon-border-default-gray, #616161)" stroke-linejoin="round"/>
<path d="M3 8H2V9H3V8Z" fill="#D95319"/>
<path d="M4 9H3V10H4V9Z" fill="#D95319"/>
<path d="M5 8H4V9H5V8Z" fill="#D95319"/>
<path d="M3 10H2V11H3V10Z" fill="#D95319"/>
<path d="M5 10H4V11H5V10Z" fill="#D95319"/>
<path d="M7 5H6V6H7V5Z" fill="#D95319"/>
<path d="M8 6H7V7H8V6Z" fill="#D95319"/>
<path d="M9 5H8V6H9V5Z" fill="#D95319"/>
<path d="M7 7H6V8H7V7Z" fill="#D95319"/>
<path d="M9 7H8V8H9V7Z" fill="#D95319"/>
<path d="M12 4H11V5H12V4Z" fill="#D95319"/>
<path d="M13 5H12V6H13V5Z" fill="#D95319"/>
<path d="M14 4H13V5H14V4Z" fill="#D95319"/>
<path d="M12 6H11V7H12V6Z" fill="#D95319"/>
<path d="M14 6H13V7H14V6Z" fill="#D95319"/>
</svg>
