<svg width="16" height="16" viewBox="0 0 16 16" fill="none" xmlns="http://www.w3.org/2000/svg">
<path d="M1 1H15V15H1V1Z" fill="var(--mw-icon-background-default-white, #FFFFFF)"/>
<path d="M12.5 5.5L3.5 3.5L12.5 10.5M12.5 5.5L3.5 7.5L12.5 10.5M12.5 5.5L3.5 12.5L12.5 10.5" stroke="var(--mw-icon-glyph-content-yellow, #674C07)" stroke-linejoin="round"/>
<path d="M4.5 3.5C4.5 4.05228 4.05228 4.5 3.5 4.5C2.94772 4.5 2.5 4.05228 2.5 3.5C2.5 2.94772 2.94772 2.5 3.5 2.5C4.05228 2.5 4.5 2.94772 4.5 3.5Z" fill="#EDB120"/>
<path d="M4.5 7.5C4.5 8.05228 4.05228 8.5 3.5 8.5C2.94772 8.5 2.5 8.05228 2.5 7.5C2.5 6.94772 2.94772 6.5 3.5 6.5C4.05228 6.5 4.5 6.94772 4.5 7.5Z" fill="#EDB120"/>
<path d="M13.5 5.5C13.5 6.05228 13.0523 6.5 12.5 6.5C11.9477 6.5 11.5 6.05228 11.5 5.5C11.5 4.94772 11.9477 4.5 12.5 4.5C13.0523 4.5 13.5 4.94772 13.5 5.5Z" fill="#EDB120"/>
<path d="M13.5 10.5C13.5 11.0523 13.0523 11.5 12.5 11.5C11.9477 11.5 11.5 11.0523 11.5 10.5C11.5 9.94772 11.9477 9.5 12.5 9.5C13.0523 9.5 13.5 9.94772 13.5 10.5Z" fill="#EDB120"/>
<path d="M4.5 12.5C4.5 13.0523 4.05228 13.5 3.5 13.5C2.94772 13.5 2.5 13.0523 2.5 12.5C2.5 11.9477 2.94772 11.5 3.5 11.5C4.05228 11.5 4.5 11.9477 4.5 12.5Z" fill="#EDB120"/>
<path d="M4.5 3.5C4.5 4.05228 4.05228 4.5 3.5 4.5C2.94772 4.5 2.5 4.05228 2.5 3.5C2.5 2.94772 2.94772 2.5 3.5 2.5C4.05228 2.5 4.5 2.94772 4.5 3.5Z" stroke="var(--mw-icon-glyph-content-yellow, #674C07)"/>
<path d="M4.5 7.5C4.5 8.05228 4.05228 8.5 3.5 8.5C2.94772 8.5 2.5 8.05228 2.5 7.5C2.5 6.94772 2.94772 6.5 3.5 6.5C4.05228 6.5 4.5 6.94772 4.5 7.5Z" stroke="var(--mw-icon-glyph-content-yellow, #674C07)"/>
<path d="M13.5 5.5C13.5 6.05228 13.0523 6.5 12.5 6.5C11.9477 6.5 11.5 6.05228 11.5 5.5C11.5 4.94772 11.9477 4.5 12.5 4.5C13.0523 4.5 13.5 4.94772 13.5 5.5Z" stroke="var(--mw-icon-glyph-content-yellow, #674C07)"/>
<path d="M13.5 10.5C13.5 11.0523 13.0523 11.5 12.5 11.5C11.9477 11.5 11.5 11.0523 11.5 10.5C11.5 9.94772 11.9477 9.5 12.5 9.5C13.0523 9.5 13.5 9.94772 13.5 10.5Z" stroke="var(--mw-icon-glyph-content-yellow, #674C07)"/>
<path d="M4.5 12.5C4.5 13.0523 4.05228 13.5 3.5 13.5C2.94772 13.5 2.5 13.0523 2.5 12.5C2.5 11.9477 2.94772 11.5 3.5 11.5C4.05228 11.5 4.5 11.9477 4.5 12.5Z" stroke="var(--mw-icon-glyph-content-yellow, #674C07)"/>
<path d="M0.5 1.5C0.5 0.947715 0.947715 0.5 1.5 0.5H14.5C15.0523 0.5 15.5 0.947715 15.5 1.5V14.5C15.5 15.0523 15.0523 15.5 14.5 15.5H1.5C0.947715 15.5 0.5 15.0523 0.5 14.5V1.5Z" stroke="var(--mw-icon-border-default-gray, #616161)" stroke-linejoin="round"/>
</svg>
