<svg width="16" height="16" viewBox="0 0 16 16" fill="none" xmlns="http://www.w3.org/2000/svg">
<path d="M3.5 4.5L3.5 14.5C3.5 15.0523 3.94772 15.5 4.5 15.5L14.5 15.5C15.0523 15.5 15.5 15.0523 15.5 14.5L15.5 4.91421C15.5 4.649 15.3946 4.39464 15.2071 4.20711L12.7929 1.79289C12.6054 1.60536 12.351 1.5 12.0858 1.5L6.5 1.5C4.84314 1.5 3.5 2.84315 3.5 4.5Z" fill="var(--mw-icon-background-default-white, #FFFFFF)" stroke="var(--mw-icon-border-default-gray, #616161)"/>
<path d="M9.29444 6.71186C9.52548 6.01174 9.72905 5.42634 10.1074 4.91922C10.4754 4.42296 11.0037 4 11.7993 4C12.116 4 12.4083 4.07881 12.6274 4.22638C12.8491 4.37564 13 4.6002 13 4.87254C13 5.21526 12.6938 5.53898 12.3065 5.53898C11.9935 5.53898 11.6706 5.29618 11.6706 4.91593C11.6706 4.79137 11.7074 4.70284 11.7428 4.63865L11.7417 4.63864C11.528 4.63864 11.317 4.7558 11.1062 5.12775C10.9136 5.46748 10.7434 5.98511 10.5896 6.71186H11.8219L11.6731 7.45898H10.422L9.62929 10.7747C9.38457 11.7892 9.0626 12.5861 8.65502 13.1335C8.24394 13.6856 7.73172 14 7.11998 14C6.54295 14 6 13.6762 6 13.1383C6 12.7955 6.27253 12.4827 6.64743 12.4827C6.82922 12.4827 6.99338 12.5431 7.11286 12.6555C7.23209 12.7677 7.29486 12.9207 7.29486 13.0841C7.29486 13.2074 7.24641 13.2937 7.21806 13.3441C7.21153 13.3557 7.20657 13.3648 7.2028 13.3719C7.20566 13.3721 7.20878 13.3722 7.21218 13.3722C7.34929 13.3722 7.5063 13.2938 7.67415 13.0292C7.84207 12.7646 7.99457 12.3509 8.12535 11.773L9.08574 7.45898H8.03454L8.20819 6.71186H9.29444Z" fill="#F57729"/>
<path d="M5.16788 2.83338L2.8345 6.33344L1.08447 4.58341V4.00006L5.75122 0.5L5.16788 2.83338Z" fill="#068CFC"/>
<path fill-rule="evenodd" clip-rule="evenodd" d="M5.34008 1.00993L4.25376 3.45058C4.03356 3.94528 3.71522 4.39013 3.31802 4.75816L2.39697 5.61156C2.75766 5.8501 3.06424 6.07955 3.27071 6.43795C3.37532 6.61954 3.59285 7.04464 3.67568 7.20774C3.67568 7.20774 3.89681 7.06278 4.03173 6.93858C4.24501 6.74225 4.75118 6.13023 5.05733 5.70749C5.23675 5.45975 5.4846 5.26768 5.73405 5.13751C6.15949 4.91551 7.07931 5.10222 7.07931 5.10222C6.78971 4.26138 6.39926 3.1041 6.26509 2.61951C6.16347 2.25244 5.6792 1.01173 5.34008 1.00993Z" fill="#F57729"/>
<path d="M2.86052 3.06225C2.86052 3.06225 1.06863 4.26225 0.5 4.47855C0.5 4.47855 1.87096 5.22207 2.30495 5.6487C2.84129 6.17596 3.28478 7.0221 3.57093 7.5008C3.80205 7.28805 4.3593 6.76629 4.74499 6.40954C5.08918 6.09116 5.76896 5.16048 6.47646 5.16048C6.93922 5.16048 7.5 5.60727 7.5 5.60727C7.5 5.60727 6.65475 3.15844 6.48747 2.55421C6.27836 1.79893 5.76625 0.5 5.36456 0.5C4.94081 0.5 4.40705 1.42549 4.26398 1.6808C4.1209 1.93611 3.38542 2.70945 2.86052 3.06225Z" stroke="var(--mw-icon-glyph-content-dark-gray, #333333)" stroke-linecap="round" stroke-linejoin="round"/>
</svg>
