<svg width="16" height="16" viewBox="0 0 16 16" fill="none" xmlns="http://www.w3.org/2000/svg">
<path d="M0.5 1.5C0.5 0.947715 0.947715 0.5 1.5 0.5H14.5C15.0523 0.5 15.5 0.947715 15.5 1.5V14.5C15.5 15.0523 15.0523 15.5 14.5 15.5H1.5C0.947715 15.5 0.5 15.0523 0.5 14.5V1.5Z" fill="var(--mw-icon-background-default-white, #FFFFFF)" stroke="var(--mw-icon-border-default-gray, #616161)"/>
<path d="M5.78596 5.27089C6.05501 4.41647 6.28839 3.70838 6.72454 3.09601C7.14511 2.50195 7.74542 2 8.64829 2C9.00799 2 9.33803 2.09378 9.58429 2.26744C9.83305 2.44286 10.0004 2.70506 10.0004 3.02171C10.0004 3.4191 9.6605 3.79483 9.23233 3.79483C8.88734 3.79483 8.53068 3.51427 8.53068 3.07404C8.53068 2.9134 8.58107 2.80509 8.62417 2.72862L8.63387 2.71159C8.61921 2.70993 8.60195 2.70889 8.58192 2.70889C8.31986 2.70889 8.06848 2.86135 7.82297 3.31491C7.59591 3.73437 7.39677 4.37397 7.21752 5.27089H8.63716L8.58141 5.56397L8.78061 5.49257C9.59351 5.2036 10.061 5.1008 10.4047 5.1008C10.5131 5.1008 10.623 5.12023 10.7269 5.17817C10.8305 5.23596 10.9113 5.3227 10.9773 5.43006C11.1032 5.63492 11.195 5.94971 11.2876 6.39312L11.3437 6.65579C11.6818 6.17028 11.9662 5.81446 12.2284 5.56831C12.5661 5.25146 12.8839 5.1008 13.2453 5.1008C13.4473 5.1008 13.6355 5.16333 13.7762 5.28768C13.919 5.41386 14 5.59295 14 5.79542C14 5.98088 13.9367 6.15259 13.8156 6.27935C13.6939 6.40683 13.5249 6.47695 13.3382 6.47695C13.1628 6.47695 13.0286 6.40214 12.9382 6.35173L12.9166 6.33973C12.8218 6.28764 12.7515 6.25453 12.6479 6.25453L12.6521 6.25459C12.6521 6.25459 12.6227 6.26217 12.5572 6.31437C12.4857 6.37132 12.3959 6.46245 12.2894 6.59165C12.085 6.83974 11.8371 7.20622 11.5606 7.67894C11.5685 7.7631 11.5944 7.916 11.6574 8.16412L11.6579 8.1663L12.0821 9.91732L12.0824 9.9184C12.1268 10.093 12.1718 10.1951 12.2121 10.2502C12.2449 10.295 12.2625 10.295 12.2762 10.295C12.2974 10.295 12.3306 10.2913 12.4021 10.2306C12.48 10.1644 12.581 10.0495 12.7333 9.85377C12.7728 9.80185 12.806 9.75716 12.8371 9.71528L12.8371 9.71523C12.8947 9.63769 12.9452 9.56972 13.0154 9.48315L13.1298 9.34221L13.6747 9.66446L13.5542 9.84878C13.1695 10.4371 12.8783 10.8305 12.6112 11.0759C12.3317 11.3328 12.0699 11.4356 11.7586 11.4356C11.5005 11.4356 11.2806 11.3607 11.1089 11.164C10.951 10.9831 10.852 10.7184 10.771 10.3855L10.4926 9.25974L9.59082 10.4618C9.29614 10.8512 9.06545 11.0987 8.84317 11.2454C8.60769 11.4008 8.39409 11.4356 8.16141 11.4356C7.92224 11.4356 7.70369 11.3749 7.54094 11.24C7.37349 11.1013 7.2872 10.902 7.2872 10.6756C7.2872 10.3109 7.55449 9.99405 7.94903 9.99405C8.12502 9.99405 8.29822 10.0701 8.47249 10.1625L8.48107 10.1671C8.53463 10.1988 8.58701 10.222 8.63197 10.2368C8.67018 10.2494 8.69696 10.254 8.71103 10.2553C8.71553 10.2535 8.72433 10.2495 8.7379 10.2413C8.76878 10.2225 8.8104 10.1903 8.86201 10.1408C8.96493 10.0423 9.08899 9.89368 9.22422 9.70326L10.2579 8.26193L9.90778 6.7336C9.86177 6.53927 9.82272 6.39238 9.78577 6.28143C9.74828 6.16885 9.71667 6.10483 9.69025 6.06747C9.66767 6.03557 9.65151 6.02651 9.63674 6.02091C9.61475 6.01258 9.57756 6.00595 9.50206 6.00595C9.42438 6.00595 9.28729 6.02599 9.03859 6.09044L8.58123 6.21566L8.51933 5.89029L8.47742 6.11062H7.03749L6.11914 10.1337C5.8377 11.3556 5.46805 12.3123 5.00201 12.9678C4.53244 13.6283 3.95088 14 3.25915 14C2.60316 14 2 13.6158 2 12.9914C2 12.5922 2.30264 12.2313 2.71493 12.2313C2.91708 12.2313 3.09812 12.3015 3.2294 12.4309C3.36043 12.5601 3.42986 12.7365 3.42986 12.926C3.42986 13.0666 3.37736 13.165 3.34507 13.2251C3.32202 13.268 3.31429 13.2848 3.3117 13.2944C3.32011 13.2985 3.33698 13.3042 3.36534 13.3042C3.53862 13.3042 3.72769 13.1991 3.92364 12.8757C4.11966 12.5522 4.29617 12.0492 4.44705 11.351L5.561 6.11062H4.3507L4.53706 5.27089H5.78596Z" fill="var(--mw-icon-glyph-content-gray, #616162)"/>
</svg>
