<svg width="16" height="16" viewBox="0 0 16 16" fill="none" xmlns="http://www.w3.org/2000/svg">
<path d="M4.11429 4.58472H5.18122C5.46958 3.56257 5.8012 2.6412 6.32025 1.97896C6.81046 1.37431 7.45927 1 8.43969 1C9.30477 1 9.86708 1.44629 9.86708 2.15172C9.86708 2.59801 9.57872 2.92913 9.13176 2.92913C8.72805 2.92913 8.42528 2.6124 8.42528 2.2093C8.42528 1.87818 8.65596 1.8062 8.65596 1.60465C8.65596 1.48948 8.54062 1.4175 8.39644 1.4175C7.90623 1.4175 7.41601 2.2237 7.06998 3.63455L6.83929 4.58472H8.15133L8.02157 5.18937H6.73837C5.93096 9.00443 5.75794 9.69546 5.36866 10.8616C4.9217 12.186 4.59008 12.8339 4.07104 13.3378C3.60966 13.7841 3.06178 14 2.42738 14C1.61997 14 1 13.5537 1 12.8627C1 12.4164 1.34603 12.0709 1.73532 12.0709C2.11019 12.0709 2.45622 12.3588 2.45622 12.7763C2.45622 13.1362 2.22553 13.1794 2.22553 13.381C2.22553 13.4961 2.34087 13.5537 2.48506 13.5537C3.06178 13.5537 3.33572 12.9635 3.78268 10.8328C3.86918 10.4153 4.33056 8.35659 5.05146 5.18937H3.98453L4.11429 4.58472Z" fill="var(--mw-icon-object-primary, #616160)"/>
<path d="M8.82909 4.74308L11.2081 4.39756C11.482 4.80066 11.655 5.16058 11.8857 6.38427C13.0103 4.74308 13.4861 4.39756 14.1638 4.39756C14.6107 4.39756 15 4.81506 15 5.27575C15 5.69324 14.6251 6.03876 14.1926 6.03876C13.8466 6.03876 13.7024 5.75083 13.3708 5.75083C13.0392 5.75083 12.5057 6.2835 12.0443 7.1041L12.5057 9.36434C12.621 9.9258 12.7652 10.1274 13.0392 10.1274C13.2987 10.1274 13.4429 9.99779 14.0052 9.27796L14.3079 9.47951C13.4284 10.7464 12.8229 11.2359 12.1308 11.2359C11.4099 11.2359 11.0495 10.66 10.7323 9.00443L10.3862 9.56589C9.53557 10.948 9.21838 11.2359 8.49748 11.2359C7.94959 11.2359 7.58914 10.8904 7.58914 10.3865C7.58914 9.9258 7.92076 9.56589 8.36772 9.56589C8.80026 9.56589 8.95885 9.88261 9.26163 9.88261C9.52116 9.88261 9.6365 9.79623 9.93928 9.30676L10.5737 8.28461L10.1555 6.09635C10.0258 5.39092 9.7951 5.10299 9.33372 5.10299C9.20396 5.10299 9.10303 5.10299 8.82909 5.13178V4.74308Z" fill="var(--mw-icon-object-primary, #616160)"/>
</svg>
