<svg width="16" height="16" viewBox="0 0 16 16" fill="none" xmlns="http://www.w3.org/2000/svg">
<path d="M0.5 12.5V2.5C0.5 1.39543 1.39543 0.5 2.5 0.5H12.5C13.6046 0.5 14.5 1.39543 14.5 2.5V12.5C14.5 13.6046 13.6046 14.5 12.5 14.5H2.5C1.39543 14.5 0.5 13.6046 0.5 12.5Z" fill="#00A9E0"/>
<path d="M1 12.5H6L11.5 2.5H14" stroke="#74EBDA" stroke-miterlimit="10"/>
<path d="M1 2.5H2.5H3.5L8.5 12.5H14" stroke="black" stroke-miterlimit="10"/>
<path d="M1 12.5H3H4.5L7.5 3.5L10.5 12.5H12H14" stroke="var(--mw-icon-background-default-white, white)" stroke-miterlimit="10"/>
<path d="M0.5 12.5V2.5C0.5 1.39543 1.39543 0.5 2.5 0.5H12.5C13.6046 0.5 14.5 1.39543 14.5 2.5V12.5C14.5 13.6046 13.6046 14.5 12.5 14.5H2.5C1.39543 14.5 0.5 13.6046 0.5 12.5Z" stroke="#245474" stroke-linecap="round"/>

</svg>
