<svg width="16" height="16" viewBox="0 0 16 16" fill="none" xmlns="http://www.w3.org/2000/svg">
<path d="M7.5 3.5C3.63401 3.5 0.5 6.63401 0.5 10.5V12C0.5 12.2761 0.723857 12.5 1 12.5H14C14.2761 12.5 14.5 12.2761 14.5 12V10.5C14.5 6.63401 11.366 3.5 7.5 3.5Z" fill="var(--mw-icon-background-default-light-gray, #F5F5F5)" stroke="var(--mw-icon-border-default-gray, #616161)"/>
<path d="M7.14645 10.8536C7.34171 11.0488 7.65829 11.0488 7.85355 10.8536C8.04882 10.6583 8.04882 10.3417 7.85355 10.1464L7.14645 10.8536ZM5.35355 7.64645L5 7.29289L4.29289 8L4.64645 8.35355L5.35355 7.64645ZM7.85355 10.1464L5.35355 7.64645L4.64645 8.35355L7.14645 10.8536L7.85355 10.1464Z" fill="#E11B14"/>
<path d="M6.5 10.5C6.5 9.94772 6.94772 9.5 7.5 9.5C8.05228 9.5 8.5 9.94772 8.5 10.5C8.5 10.5 8.05228 10.5 7.5 10.5C6.94772 10.5 6.5 10.5 6.5 10.5Z" fill="var(--mw-icon-background-default-dark-gray, #A6A6A6)" stroke="var(--mw-icon-glyph-content-gray, #616162)" stroke-linejoin="round"/>
<path d="M12.5 10.5V11C12.7761 11 13 10.7761 13 10.5H12.5ZM2.5 10.5H2C2 10.7761 2.22386 11 2.5 11V10.5ZM3 10.5C3 8.01472 5.01472 6 7.5 6V5C4.46243 5 2 7.46243 2 10.5H3ZM2.5 11H4V10H2.5V11ZM11 11H12.5V10H11V11ZM8 7V5.5H7V7H8ZM7.5 6C8.75893 6 9.89637 6.51632 10.7137 7.35002L11.4278 6.64998C10.4301 5.63232 9.03846 5 7.5 5V6ZM10.7137 7.35002C11.5099 8.16222 12 9.27337 12 10.5H13C13 9.00117 12.3998 7.64153 11.4278 6.64998L10.7137 7.35002ZM10.7172 6.64645L9.71716 7.64645L10.4243 8.35355L11.4243 7.35355L10.7172 6.64645Z" fill="var(--mw-icon-glyph-content-gray, #616162)"/>
</svg>
