<svg width="16" height="16" viewBox="0 0 16 16" fill="none" xmlns="http://www.w3.org/2000/svg">
<path d="M9.5 11.5H6.5H3.5H0.5V7.5H3.5V3.5H6.5V0.5H9.5V11.5Z" fill="var(--mw-icon-background-medium-yellow, #FFEF91)"/>
<path d="M6.5 11.5V0.5M3.5 11.5V7.5M3.5 7.5V3.5H6.5V0.5M3.5 7.5H0.5V11.5H9.5V0.5H6.5" stroke="#674C06" stroke-linecap="square" stroke-linejoin="round"/>
<path d="M5.5 6.5C5.5 5.94772 5.94772 5.5 6.5 5.5H14.5C15.0523 5.5 15.5 5.94772 15.5 6.5V14.5C15.5 15.0523 15.0523 15.5 14.5 15.5H6.5C5.94772 15.5 5.5 15.0523 5.5 14.5V6.5Z" fill="var(--mw-icon-background-default-white, #FFFFFF)" stroke="var(--mw-icon-border-default-gray, #616161)"/>
<path d="M7 7H10V8H7V7Z" fill="var(--mw-icon-glyph-content-gray, #616162)"/>
<path d="M9 9H12V10H9V9Z" fill="var(--mw-icon-glyph-content-gray, #616162)"/>
<path d="M11 11H14V12H11V11Z" fill="var(--mw-icon-glyph-content-gray, #616162)"/>
<path d="M9 13H12V14H9V13Z" fill="var(--mw-icon-glyph-content-gray, #616162)"/>
</svg>
