<svg width="16" height="16" viewBox="0 0 16 16" fill="none" xmlns="http://www.w3.org/2000/svg">
<path d="M0.5 11.5V1.5C0.5 0.947715 0.947715 0.5 1.5 0.5H11.5C12.0523 0.5 12.5 0.947715 12.5 1.5V11.5C12.5 12.0523 12.0523 12.5 11.5 12.5H1.5C0.947715 12.5 0.5 12.0523 0.5 11.5Z" fill="var(--mw-icon-background-default-white, #FFFFFF)"/>
<path d="M0.5 8.5859C1.88669 8.5859 3.5 2.5 3.5 2.5C3.5 2.5 4.5 8.5 6.5 8.5C8.5 8.5 9.5 4.5 9.5 4.5C9.5 4.5 10.5 8.5 12.5 8.5859" stroke="var(--mw-icon-glyph-content-light-blue, #278CDD)" stroke-miterlimit="1" stroke-linecap="round" stroke-linejoin="round"/>
<path d="M0.5 11.5V1.5C0.5 0.947715 0.947715 0.5 1.5 0.5H11.5C12.0523 0.5 12.5 0.947715 12.5 1.5V11.5C12.5 12.0523 12.0523 12.5 11.5 12.5H1.5C0.947715 12.5 0.5 12.0523 0.5 11.5Z" stroke="var(--mw-icon-border-default-gray, #616161)" stroke-linejoin="round"/>
<path d="M5.5 6.5C5.5 5.94772 5.94772 5.5 6.5 5.5H14.5C15.0523 5.5 15.5 5.94772 15.5 6.5V14.5C15.5 15.0523 15.0523 15.5 14.5 15.5H6.5C5.94772 15.5 5.5 15.0523 5.5 14.5V6.5Z" fill="white" stroke="var(--mw-icon-border-default-gray, #616161)"/>
<path d="M7 7H10V8H7V7Z" fill="var(--mw-icon-glyph-content-gray, #616162)"/>
<path d="M9 9H12V10H9V9Z" fill="var(--mw-icon-glyph-content-gray, #616162)"/>
<path d="M11 11H14V12H11V11Z" fill="var(--mw-icon-glyph-content-gray, #616162)"/>
<path d="M9 13H12V14H9V13Z" fill="var(--mw-icon-glyph-content-gray, #616162)"/>
</svg>
