<svg width="16" height="16" viewBox="0 0 16 16" fill="none" xmlns="http://www.w3.org/2000/svg">
<path d="M0.5 12.5V2.5C0.5 1.39543 1.39543 0.5 2.5 0.5H12.5C13.6046 0.5 14.5 1.39543 14.5 2.5V12.5C14.5 13.6046 13.6046 14.5 12.5 14.5H2.5C1.39543 14.5 0.5 13.6046 0.5 12.5Z" fill="var(--mw-icon-background-default-white, #FFFFFF)"/>
<path fill-rule="evenodd" clip-rule="evenodd" d="M2.83387 6.02513C2.99707 5.9032 3.21125 5.73861 3.41494 5.57283C3.51884 5.48827 3.6167 5.40602 3.7025 5.33054L3.24908 5.02204L3.24585 5.02367C3.20126 5.04602 3.14558 5.07145 3.08328 5.09856C2.95818 5.15301 2.79663 5.21851 2.62258 5.28674C2.42271 5.3651 2.20376 5.44808 2 5.52366C2.16525 5.62429 2.35634 5.7388 2.55325 5.8568C2.64619 5.91249 2.74045 5.96897 2.83387 6.02513ZM3.60151 4.72735L4.01906 5.01144C4.16473 4.82986 4.432 4.48594 4.68048 4.11204C4.81577 3.90846 4.94348 3.69898 5.04265 3.50399C5.06045 3.46899 5.07711 3.43489 5.09258 3.40175C5.06203 3.43513 5.03095 3.46824 4.99987 3.50057C4.83146 3.6757 4.63539 3.85656 4.48936 3.94689C4.24414 4.09857 4.05652 4.22167 3.93777 4.36982C3.85994 4.46692 3.72492 4.60604 3.60151 4.72735Z" fill="var(--mw-icon-glyph-content-gray, #616162)"/>
<path fill-rule="evenodd" clip-rule="evenodd" d="M6.00559 2.19588C5.87569 2.3361 5.75697 2.59366 5.68303 3.07169C5.65344 3.263 5.56588 3.47896 5.4583 3.6905C5.3491 3.9052 5.21181 4.12962 5.07124 4.34114C4.79003 4.76429 4.48774 5.14771 4.3498 5.3179C4.22428 5.47277 3.96744 5.69566 3.71656 5.89985C3.55475 6.03154 3.38702 6.16212 3.24183 6.27242C3.30086 6.30852 3.35804 6.3437 3.41268 6.37762C3.76906 6.59882 4.03295 6.95377 4.23695 7.28614C4.34031 7.45454 4.43224 7.62399 4.51408 7.77524L4.51804 7.78255C4.56067 7.86136 4.60002 7.93408 4.63707 8C4.73522 7.9476 4.85556 7.86557 4.98886 7.7504C5.19959 7.56833 5.69971 7.00078 6.0022 6.60875C6.17948 6.37901 6.42437 6.2009 6.67083 6.08019C6.91504 5.96058 7.18018 5.88793 7.40682 5.88793C7.59457 5.88793 7.81659 5.96664 8 6.04745C7.71387 5.2677 7.32808 4.19451 7.19552 3.74512C7.09511 3.40472 6.92164 2.94166 6.72727 2.56763C6.62957 2.37962 6.53154 2.22383 6.44084 2.11836C6.39551 2.06565 6.35784 2.03243 6.32954 2.01385C6.31602 2.00498 6.30761 2.00135 6.30389 2C6.27656 2.00184 6.21825 2.0199 6.12711 2.08929C6.11545 2.09818 6.10368 2.10756 6.09184 2.11743L6.09305 2.11895C6.08513 2.1245 6.07722 2.13039 6.06933 2.13664C6.04828 2.15504 6.02701 2.17484 6.00559 2.19588Z" fill="var(--mw-icon-glyph-content-gray, #616162)"/>
<path fill-rule="evenodd" clip-rule="evenodd" d="M9 6L11.5 9L14 6L12 6L12 4L12 3L11 3L9 3L9 4L11 4L11 6L9 6Z" fill="var(--mw-icon-glyph-content-gray, #616162)"/>
<path d="M0.5 12.5V2.5C0.5 1.39543 1.39543 0.5 2.5 0.5H12.5C13.6046 0.5 14.5 1.39543 14.5 2.5V12.5C14.5 13.6046 13.6046 14.5 12.5 14.5H2.5C1.39543 14.5 0.5 13.6046 0.5 12.5Z" stroke="#B7312C" stroke-linecap="round"/>
<path d="M2.5 10.5V10C2.22386 10 2 10.2239 2 10.5H2.5ZM2.5 12.5H2C2 12.7761 2.22386 13 2.5 13V12.5ZM5 10H2.5V11H5V10ZM2 10.5V12.5H3V10.5H2ZM2.5 13H5V12H2.5V13Z" fill="var(--mw-icon-glyph-content-gray, #616162)"/>
<path d="M8 10H7V11H6V12H7V13H8V12H9V11H8V10Z" fill="var(--mw-icon-glyph-content-gray, #616162)"/>
<path d="M12 10H11V11H10V12H11V13H12V12H13V11H12V10Z" fill="var(--mw-icon-glyph-content-gray, #616162)"/>
</svg>
