<svg width="16" height="16" viewBox="0 0 16 16" fill="none" xmlns="http://www.w3.org/2000/svg">
<path d="M3.5 3.5H15.5V12.5H3.5V3.5Z" fill="var(--mw-icon-background-default-white, #FFFFFF)" stroke="var(--mw-icon-glyph-content-light-blue, #278CDD)" stroke-linejoin="round"/>
<path d="M11.2319 11C11.6339 10.606 11.9528 10.1383 12.1704 9.62359C12.388 9.10885 12.5 8.55715 12.5 8C12.5 7.44285 12.388 6.89115 12.1704 6.37641C11.9528 5.86167 11.6339 5.39397 11.2319 5M9.5 9.79922C9.74123 9.56284 9.93258 9.28222 10.0631 8.97337C10.1937 8.66453 10.2609 8.33351 10.2609 7.99922C10.2609 7.66493 10.1937 7.33391 10.0631 7.02507C9.93258 6.71622 9.74123 6.4356 9.5 6.19922" stroke="var(--mw-icon-glyph-content-light-blue, #278CDD)"/>
<path d="M8 11V5L6 7H5V9H6L8 11Z" fill="var(--mw-icon-glyph-content-light-blue, #278CDD)"/>
</svg>
