<svg width="16" height="17" viewBox="0 0 16 17" fill="none" xmlns="http://www.w3.org/2000/svg">
<path d="M0.5 6.77271C0.5 6.22042 0.947715 5.77271 1.5 5.77271H13.5C14.0523 5.77271 14.5 6.22042 14.5 6.77271V14.7727C14.5 15.325 14.0523 15.7727 13.5 15.7727H1.5C0.947716 15.7727 0.5 15.325 0.5 14.7727V6.77271Z" fill="var(--mw-icon-background-default-selection, #B4DEFF)" stroke="var(--mw-icon-border-default-blue, #1656A7)"/>
<path d="M12.5 0.272705V3.47271" stroke="var(--mw-icon-glyph-content-blue, #1656A8)"/>
<path d="M12.5 5.27271L10 2.2727L15 2.2727L12.5 5.27271Z" fill="var(--mw-icon-glyph-content-blue, #1656A8)"/>
<path d="M2.5 0.272705V3.47271" stroke="var(--mw-icon-glyph-content-blue, #1656A8)"/>
<path d="M2.5 5.27271L2.62268e-07 2.2727L5 2.2727L2.5 5.27271Z" fill="var(--mw-icon-glyph-content-blue, #1656A8)"/>
<path d="M7.5 0.272705V3.47271" stroke="var(--mw-icon-glyph-content-blue, #1656A8)"/>
<path d="M7.5 5.27271L5 2.2727L10 2.2727L7.5 5.27271Z" fill="var(--mw-icon-glyph-content-blue, #1656A8)"/>
<path d="M7 8.77271H11" stroke="var(--mw-icon-glyph-content-blue, #1656A8)"/>
<line x1="9" y1="10.7727" x2="13" y2="10.7727" stroke="var(--mw-icon-glyph-content-blue, #1656A8)"/>
<line x1="7" y1="12.7727" x2="11" y2="12.7727" stroke="var(--mw-icon-glyph-content-blue, #1656A8)"/>
<path d="M2.5 8.77271L5.5 10.7727L2.5 12.7727" stroke="var(--mw-icon-glyph-content-blue, #1656A8)" stroke-linejoin="round"/>
</svg>
