<svg width="16" height="16" viewBox="0 0 16 16" fill="none" xmlns="http://www.w3.org/2000/svg">
<path d="M12.5 11.5V1.5C12.5 0.947715 12.0523 0.5 11.5 0.5H1.5C0.947715 0.5 0.5 0.947715 0.5 1.5V11.5C0.5 12.0523 0.947715 12.5 1.5 12.5H11.5C12.0523 12.5 12.5 12.0523 12.5 11.5Z" fill="var(--mw-icon-background-default-white, #FFFFFF)"/>
<path d="M10 1H11.5C11.7761 1 12 1.22386 12 1.5V11.5C12 11.7761 11.7761 12 11.5 12H10V1Z" fill="var(--mw-icon-background-default-medium-gray, #D9D9D9)"/>
<rect x="4" y="1" width="5" height="11" fill="white"/>
<path d="M1 1.5C1 1.22386 1.22386 1 1.5 1H3V12H1.5C1.22386 12 1 11.7761 1 11.5V1.5Z" fill="var(--mw-icon-background-default-medium-gray, #D9D9D9)"/>
<path d="M12.5 6.92072C10.4769 2.35964 8.52315 2.35982 6.5 6.92089C4.83333 10.3778 2.52315 10.6176 0.5 6.0565" stroke="#0072BD" stroke-linecap="round"/>
<path d="M3.5 0.5H1.5C0.947715 0.5 0.5 0.947715 0.5 1.5V11.5C0.5 12.0523 0.947715 12.5 1.5 12.5H3.5M3.5 0.5V12.5M3.5 0.5H9.5M3.5 12.5H9.5M9.5 0.5H11.5C12.0523 0.5 12.5 0.947715 12.5 1.5V11.5C12.5 12.0523 12.0523 12.5 11.5 12.5H9.5M9.5 0.5V12.5" stroke="var(--mw-icon-border-default-gray, #616161)" stroke-linejoin="round"/>
<path d="M5.5 6.5C5.5 5.94772 5.94772 5.5 6.5 5.5H14.5C15.0523 5.5 15.5 5.94772 15.5 6.5V14.5C15.5 15.0523 15.0523 15.5 14.5 15.5H6.5C5.94772 15.5 5.5 15.0523 5.5 14.5V6.5Z" fill="white" stroke="var(--mw-icon-border-default-gray, #616161)"/>
<path d="M7 7H10V8H7V7Z" fill="var(--mw-icon-glyph-content-gray, #616162)"/>
<path d="M9 9H12V10H9V9Z" fill="var(--mw-icon-glyph-content-gray, #616162)"/>
<path d="M11 11H14V12H11V11Z" fill="var(--mw-icon-glyph-content-gray, #616162)"/>
<path d="M9 13H12V14H9V13Z" fill="var(--mw-icon-glyph-content-gray, #616162)"/>
</svg>
