<svg width="16" height="16" viewBox="0 0 16 16" fill="none" xmlns="http://www.w3.org/2000/svg">
<path d="M1.5 14.5C0.947715 14.5 0.5 14.0523 0.5 13.5V2.5V1.5C0.5 0.947715 0.947715 0.5 1.5 0.5H13.5C14.0523 0.5 14.5 0.947715 14.5 1.5V2.5V13.5C14.5 14.0523 14.0523 14.5 13.5 14.5H1.5Z" fill="var(--mw-sidebar-icon-fill, #ffffff)" stroke="var(--mw-sidebar-icon-stroke, #616161)"/>
<path d="M3.86178 4.22361L7.05276 10.6056C7.23703 10.9741 7.76293 10.9741 7.94719 10.6056L11.1382 4.22361C11.3044 3.89116 11.0627 3.5 10.691 3.5L4.309 3.5C3.9373 3.5 3.69556 3.89116 3.86178 4.22361Z" fill="var(--mw-sidebar-icon-fill, #ffffff)" stroke="var(--mw-sidebar-icon-stroke, #616161)"/>
</svg>
