<svg width="16" height="16" viewBox="0 0 16 16" fill="none" xmlns="http://www.w3.org/2000/svg">
<path d="M0.5 12.5V2.5C0.5 1.39543 1.39543 0.5 2.5 0.5H12.5C13.6046 0.5 14.5 1.39543 14.5 2.5V12.5C14.5 13.6046 13.6046 14.5 12.5 14.5H2.5C1.39543 14.5 0.5 13.6046 0.5 12.5Z" fill="var(--mw-icon-background-default-white, white)"/>
<path d="M5 14.5C11.5 13 5.5 3.5 9 0.5" stroke="#D1048B"/>
<path d="M14.5 5.5C14.5 6.5 12.5 8.81818 8 8C2.5 7 0.833333 8.16667 0.5 8.5" stroke="#D1048B"/>
<path d="M8.35355 3.64645C8.15829 3.45118 7.84171 3.45118 7.64645 3.64645C7.45118 3.84171 7.45118 4.15829 7.64645 4.35355L8.35355 3.64645ZM11.1464 7.85355C11.3417 8.04882 11.6583 8.04882 11.8536 7.85355C12.0488 7.65829 12.0488 7.34171 11.8536 7.14645L11.1464 7.85355ZM8.85355 1.14645C8.65829 0.951184 8.34171 0.951184 8.14645 1.14645C7.95118 1.34171 7.95118 1.65829 8.14645 1.85355L8.85355 1.14645ZM13.1464 6.85355C13.3417 7.04882 13.6583 7.04882 13.8536 6.85355C14.0488 6.65829 14.0488 6.34171 13.8536 6.14645L13.1464 6.85355ZM10.8536 0.146447C10.6583 -0.0488155 10.3417 -0.0488155 10.1464 0.146447C9.95118 0.341709 9.95118 0.658291 10.1464 0.853553L10.8536 0.146447ZM14.1464 4.85355C14.3417 5.04882 14.6583 5.04882 14.8536 4.85355C15.0488 4.65829 15.0488 4.34171 14.8536 4.14645L14.1464 4.85355ZM5.35355 7.64645L5 7.29289L4.29289 8L4.64645 8.35355L5.35355 7.64645ZM7.64645 11.3536C7.84171 11.5488 8.15829 11.5488 8.35355 11.3536C8.54882 11.1583 8.54882 10.8417 8.35355 10.6464L7.64645 11.3536ZM2.35355 7.64645L2 7.29289L1.29289 8L1.64645 8.35355L2.35355 7.64645ZM6.64645 13.3536C6.84171 13.5488 7.15829 13.5488 7.35355 13.3536C7.54882 13.1583 7.54882 12.8417 7.35355 12.6464L6.64645 13.3536ZM1.35355 10.6464L1 10.2929L0.292893 11L0.646447 11.3536L1.35355 10.6464ZM4.14645 14.8536C4.34171 15.0488 4.65829 15.0488 4.85355 14.8536C5.04882 14.6583 5.04882 14.3417 4.85355 14.1464L4.14645 14.8536ZM7.64645 4.35355L11.1464 7.85355L11.8536 7.14645L8.35355 3.64645L7.64645 4.35355ZM8.14645 1.85355L13.1464 6.85355L13.8536 6.14645L8.85355 1.14645L8.14645 1.85355ZM10.1464 0.853553L12.6464 3.35355L13.3536 2.64645L10.8536 0.146447L10.1464 0.853553ZM12.6464 3.35355L14.1464 4.85355L14.8536 4.14645L13.3536 2.64645L12.6464 3.35355ZM4.64645 8.35355L7.64645 11.3536L8.35355 10.6464L5.35355 7.64645L4.64645 8.35355ZM1.64645 8.35355L6.64645 13.3536L7.35355 12.6464L2.35355 7.64645L1.64645 8.35355ZM0.646447 11.3536L4.14645 14.8536L4.85355 14.1464L1.35355 10.6464L0.646447 11.3536Z" fill="#D1048B"/>
<path d="M0.5 12.5V2.5C0.5 1.39543 1.39543 0.5 2.5 0.5H12.5C13.6046 0.5 14.5 1.39543 14.5 2.5V12.5C14.5 13.6046 13.6046 14.5 12.5 14.5H2.5C1.39543 14.5 0.5 13.6046 0.5 12.5Z" stroke="#6E0149" stroke-linecap="round"/>

</svg>
