<svg width="16" height="16" viewBox="0 0 16 16" fill="none" xmlns="http://www.w3.org/2000/svg">
<path d="M0.5 12.5V2.5C0.5 1.39543 1.39543 0.5 2.5 0.5H12.5C13.6046 0.5 14.5 1.39543 14.5 2.5V12.5C14.5 13.6046 13.6046 14.5 12.5 14.5H2.5C1.39543 14.5 0.5 13.6046 0.5 12.5Z" fill="var(--mw-icon-background-default-white, #FFFFFF)" stroke="var(--mw-icon-border-default-gray, #616161)" stroke-linecap="round"/>
<rect x="4" y="7" width="1" height="5" rx="0.5" fill="#1171BE"/>
<rect x="6" y="6" width="1" height="4" rx="0.5" fill="#1171BE"/>
<path d="M2 8.5C2 8.22386 2.22386 8 2.5 8C2.77614 8 3 8.22386 3 8.5V12.5C3 12.7761 2.77614 13 2.5 13C2.22386 13 2 12.7761 2 12.5V8.5Z" fill="#1171BE"/>
<path d="M2 8.5C2 8.22386 2.22386 8 2.5 8C2.77614 8 3 8.22386 3 8.5V12.5C3 12.7761 2.77614 13 2.5 13C2.22386 13 2 12.7761 2 12.5V8.5Z" fill="#1171BE"/>
<rect x="8" y="6" width="1" height="4" rx="0.5" fill="#1171BE"/>
<rect width="1" height="5" rx="0.5" transform="matrix(-1 0 0 1 11 4)" fill="#1171BE"/>
<rect width="1" height="5" rx="0.5" transform="matrix(-1 0 0 1 13 3)" fill="#1171BE"/>
<rect x="2" y="8" width="1" height="3" rx="0.5" fill="#DD5400"/>
<rect x="4" y="7" width="1" height="3" rx="0.5" fill="#DD5400"/>
<rect x="6" y="6" width="1" height="2" rx="0.5" fill="#DD5400"/>
<rect x="8" y="8" width="1" height="2" rx="0.5" fill="#DD5400"/>
<rect x="10" y="6" width="1" height="3" rx="0.5" fill="#DD5400"/>
<rect x="12" y="6" width="1" height="2" rx="0.5" fill="#DD5400"/>
<circle cx="4.5" cy="5.5" r="0.5" fill="#DD5400"/>
<circle cx="8.5" cy="4.5" r="0.5" fill="#1171BE"/>
<circle cx="10.5" cy="10.5" r="0.5" fill="#DD5400"/>
</svg>
