<svg width="16" height="16" viewBox="0 0 16 16" fill="none" xmlns="http://www.w3.org/2000/svg">
<path d="M14.5 0.5H5.5C4.94772 0.5 4.5 0.947715 4.5 1.5V14.5C4.5 15.0523 4.94771 15.5 5.5 15.5H14.5C15.0523 15.5 15.5 15.0523 15.5 14.5V1.5C15.5 0.947715 15.0523 0.5 14.5 0.5Z" fill="var(--mw-icon-background-default-white, white)" stroke="var(--mw-icon-border-default-gray, #616161)" stroke-linecap="round"/>
<path d="M5 9H15V4H5L5 9Z" fill="var(--mw-icon-background-default-selection, #B4DEFF)"/>
<path d="M10.5 5.5H13.5" stroke="var(--mw-icon-glyph-content-dark-blue, #104280)" stroke-linecap="square"/>
<path d="M10.5 7.5H13.5" stroke="var(--mw-icon-glyph-content-dark-blue, #104280)" stroke-linecap="square"/>
<path d="M6.5 10.5H9.5" stroke="var(--mw-icon-glyph-content-gray, #616162)" stroke-linecap="square"/>
<path d="M8.5 12.5H11.5" stroke="var(--mw-icon-glyph-content-gray, #616162)" stroke-linecap="square"/>
<path d="M8.5 2.5H11.5" stroke="var(--mw-icon-glyph-content-gray, #616162)" stroke-linecap="square"/>
<path d="M0.5 4.5L0.5 8.5H2.5L2.5 11.5L8.5 6.5L2.5 1.5L2.5 4.5H0.5Z" fill="var(--mw-icon-background-default-selection, #B4DEFF)" stroke="var(--mw-icon-border-default-blue, #1656A7)"/>

</svg>
