<svg width="16" height="16" viewBox="0 0 16 16" fill="none" xmlns="http://www.w3.org/2000/svg">
<path d="M15.5 14.5V3.91421C15.5 3.649 15.3946 3.39464 15.2071 3.20711L12.7929 0.792893C12.6054 0.605357 12.351 0.5 12.0858 0.5H5.5C4.94772 0.5 4.5 0.947715 4.5 1.5V14.5C4.5 15.0523 4.94771 15.5 5.5 15.5H14.5C15.0523 15.5 15.5 15.0523 15.5 14.5Z" fill="var(--mw-icon-background-default-white, #FFFFFF)" stroke="var(--mw-icon-border-default-gray, #616161)" stroke-linecap="round"/>
<path d="M6.5 10.4787L6.32223 10.0114C6.14902 10.0773 6.02646 10.2336 6.00376 10.4175C5.98107 10.6014 6.06196 10.7828 6.21395 10.8888L6.5 10.4787ZM8.23347 9.73869L8.58097 10.0982L8.23347 9.73869ZM8.7783 9.14893L8.37875 8.84834L8.37875 8.84834L8.7783 9.14893ZM9.39465 8.63829L9.66979 9.05578L9.66979 9.05578L9.39465 8.63829ZM10.2642 7.68085L10.7003 7.92529V7.92529L10.2642 7.68085ZM12.4874 8.55318L12.9693 8.41977L12.4874 8.55318ZM13.5 11.6064L13.2198 12.0205C13.3984 12.1413 13.6342 12.1341 13.805 12.0026C13.9758 11.871 14.0431 11.6448 13.972 11.4414L13.5 11.6064ZM11.2437 11.8404L11.6487 12.1337V12.1337L11.2437 11.8404ZM10.1871 13.1064L9.84847 12.7385L9.84847 12.7385L10.1871 13.1064ZM9.57075 13.5L9.14158 13.7565C9.25534 13.9469 9.48085 14.0395 9.69555 13.9842L9.57075 13.5ZM8.30503 11.6489L8.02922 12.066L8.30503 11.6489ZM7.57884 10.9465C7.36126 11.1165 7.32271 11.4308 7.49275 11.6484C7.66278 11.8659 7.97701 11.9045 8.19459 11.7344L7.57884 10.9465ZM9.19647 10.1703L9.59441 10.473L9.19647 10.1703ZM10.5007 7.8557L10.0059 7.78387L10.5007 7.8557ZM6.67777 10.9461C6.96637 10.8363 7.38057 10.6727 7.73637 10.5241C7.91377 10.45 8.0809 10.3778 8.21207 10.317C8.27714 10.2868 8.33859 10.257 8.39008 10.2295C8.41999 10.2135 8.51051 10.1663 8.58097 10.0982L7.88597 9.37919C7.93221 9.33449 7.96818 9.32116 7.91892 9.34747C7.89124 9.36226 7.84893 9.38311 7.79137 9.4098C7.67729 9.46271 7.52373 9.52916 7.35095 9.60133C7.0064 9.74525 6.60229 9.90487 6.32223 10.0114L6.67777 10.9461ZM8.58097 10.0982C8.70284 9.9804 9.02737 9.64956 9.17786 9.44952L8.37875 8.84834C8.28001 8.97958 8.00624 9.26294 7.88597 9.37919L8.58097 10.0982ZM9.17786 9.44952C9.26562 9.33286 9.41466 9.22392 9.66979 9.05578L9.11952 8.2208C8.89037 8.37181 8.5881 8.57006 8.37875 8.84834L9.17786 9.44952ZM9.66979 9.05578C9.84815 8.93824 10.0659 8.7209 10.2377 8.53048C10.4121 8.33723 10.6003 8.10382 10.7003 7.92529L9.82797 7.43642C9.78494 7.51321 9.65941 7.67872 9.49537 7.86048C9.32879 8.04504 9.1833 8.17876 9.11952 8.2208L9.66979 9.05578ZM10.7003 7.92529C10.7697 7.80146 10.924 7.53349 11.1042 7.3012C11.1951 7.18408 11.2792 7.09361 11.3492 7.03689C11.431 6.97051 11.4316 7 11.3648 7V6C11.0861 6 10.8611 6.14519 10.7191 6.26032C10.5653 6.38511 10.4276 6.54199 10.3142 6.68817C10.0858 6.98247 9.90166 7.30493 9.82797 7.43642L10.7003 7.92529ZM11.3648 7C11.3217 7 11.2878 6.99118 11.2659 6.98298C11.2448 6.97508 11.2339 6.96744 11.2332 6.96697C11.2324 6.96638 11.2377 6.97006 11.2488 6.98099C11.2597 6.99174 11.2739 7.00725 11.2912 7.02864C11.3648 7.11982 11.4538 7.26744 11.5489 7.46254C11.737 7.84814 11.9073 8.3316 12.0055 8.6866L12.9693 8.41977C12.8585 8.01945 12.6683 7.47631 12.4477 7.02416C12.3386 6.80037 12.2112 6.57632 12.0693 6.40054C11.9983 6.3126 11.9111 6.22075 11.8063 6.14752C11.7026 6.07493 11.5516 6 11.3648 6V7ZM12.0055 8.6866C12.1783 9.31064 12.7625 11.0121 13.028 11.7714L13.972 11.4414C13.7018 10.6687 13.1311 9.00424 12.9693 8.41977L12.0055 8.6866ZM13.7802 11.1923C13.6538 11.1067 13.4498 10.9824 13.2327 10.8772C13.0395 10.7836 12.747 10.6596 12.4764 10.6596V11.6596C12.4732 11.6596 12.5023 11.6607 12.5724 11.6836C12.6368 11.7047 12.7133 11.7367 12.7966 11.7771C12.9636 11.858 13.1261 11.9571 13.2198 12.0205L13.7802 11.1923ZM12.4764 10.6596C12.1924 10.6596 11.8815 10.7545 11.6081 10.8971C11.3299 11.0423 11.0471 11.2594 10.8388 11.5471L11.6487 12.1337C11.7485 11.9959 11.9005 11.8725 12.0707 11.7837C12.2459 11.6923 12.3972 11.6596 12.4764 11.6596V10.6596ZM10.8388 11.5471C10.5349 11.9667 10.0414 12.5609 9.84847 12.7385L10.5257 13.4742C10.7951 13.2263 11.3362 12.5652 11.6487 12.1337L10.8388 11.5471ZM9.84847 12.7385C9.75048 12.8287 9.66101 12.8973 9.58587 12.9451C9.50726 12.9951 9.46025 13.0121 9.44596 13.0158L9.69555 13.9842C9.97963 13.911 10.2732 13.7067 10.5257 13.4742L9.84847 12.7385ZM9.99992 13.2435C9.93923 13.1419 9.87227 13.0101 9.78629 12.8408C9.70372 12.6782 9.6077 12.4895 9.49909 12.3009C9.28777 11.9341 8.99529 11.506 8.58084 11.2319L8.02922 12.066C8.24213 12.2068 8.43943 12.4648 8.63259 12.8001C8.72622 12.9627 8.81112 13.129 8.89467 13.2935C8.97482 13.4514 9.0592 13.6187 9.14158 13.7565L9.99992 13.2435ZM8.58084 11.2319C7.98396 10.8371 7.14058 10.3159 6.78605 10.0686L6.21395 10.8888C6.57116 11.138 7.49201 11.7107 8.02922 12.066L8.58084 11.2319ZM8.19459 11.7344C8.37231 11.5956 8.65148 11.3699 8.91594 11.1406C9.16658 10.9232 9.44796 10.6655 9.59441 10.473L8.79853 9.86754C8.72486 9.96438 8.52379 10.157 8.2608 10.3851C8.01164 10.6011 7.74599 10.8159 7.57884 10.9465L8.19459 11.7344ZM9.59441 10.473C9.73636 10.2864 10.0478 9.86556 10.3386 9.39933C10.484 9.16633 10.6285 8.91511 10.7448 8.67142C10.8576 8.43504 10.9598 8.17354 10.9955 7.92754L10.0059 7.78387C9.99177 7.88103 9.94039 8.03522 9.84234 8.24064C9.74777 8.43876 9.62404 8.65546 9.49016 8.8701C9.22255 9.29914 8.93173 9.69243 8.79853 9.86754L9.59441 10.473ZM10.9955 7.92754C11.0844 7.31492 11.2301 7.13225 11.3062 7.07545L10.7078 6.27425C10.2995 6.57916 10.104 7.1079 10.0059 7.78387L10.9955 7.92754ZM7.95646 10.0964L8.70489 10.6389L9.29182 9.82927L8.54339 9.28672L7.95646 10.0964Z" fill="var(--mw-icon-glyph-content-dark-gray, #333333)"/>
<path fill-rule="evenodd" clip-rule="evenodd" d="M7.84742 11.0743C8.0126 10.9429 8.22938 10.7654 8.43555 10.5866C8.54071 10.4954 8.63977 10.4067 8.7266 10.3253L8.26768 9.99262L8.26441 9.99437C8.21927 10.0185 8.16292 10.0459 8.09986 10.0751C7.97324 10.1339 7.80973 10.2045 7.63356 10.2781C7.43126 10.3626 7.20965 10.4521 7.00342 10.5336C7.17067 10.6421 7.36408 10.7656 7.56339 10.8928C7.65746 10.9529 7.75286 11.0138 7.84742 11.0743ZM8.62439 9.67482L9.04701 9.98119C9.19445 9.78537 9.46497 9.41449 9.71647 9.01127C9.8534 8.79174 9.98267 8.56583 10.083 8.35556C10.1011 8.31782 10.1179 8.28104 10.1336 8.2453C10.1027 8.2813 10.0712 8.31701 10.0397 8.35187C9.86928 8.54073 9.67083 8.73577 9.52302 8.83318C9.27482 8.99675 9.08493 9.1295 8.96473 9.28927C8.88596 9.39397 8.7493 9.54401 8.62439 9.67482Z" fill="#068CFC"/>
<path fill-rule="evenodd" clip-rule="evenodd" d="M11.0576 6.94482C10.9261 7.09603 10.806 7.37378 10.7311 7.88929C10.7012 8.0956 10.6125 8.32848 10.5037 8.5566C10.3931 8.78814 10.2542 9.03016 10.1119 9.25826C9.82727 9.71457 9.52131 10.1281 9.38169 10.3116C9.25465 10.4786 8.99468 10.719 8.74075 10.9392C8.57698 11.0812 8.40721 11.222 8.26025 11.3409C8.32001 11.3799 8.37788 11.4178 8.43318 11.4544C8.79389 11.6929 9.06099 12.0757 9.26747 12.4341C9.37208 12.6157 9.46514 12.7985 9.54797 12.9616L9.55197 12.9695C9.59513 13.0544 9.63495 13.1329 9.67245 13.2039C9.7718 13.1474 9.89359 13.059 10.0285 12.9348C10.2418 12.7384 10.748 12.1264 11.0542 11.7036C11.2336 11.4559 11.4815 11.2638 11.7309 11.1336C11.9781 11.0046 12.2465 10.9263 12.4759 10.9263C12.6659 10.9263 12.8906 11.0112 13.0762 11.0983C12.7866 10.2575 12.3962 9.10012 12.262 8.61551C12.1604 8.24843 11.9848 7.74906 11.788 7.34571C11.6892 7.14296 11.5899 6.97496 11.4981 6.86122C11.4523 6.80438 11.4141 6.76856 11.3855 6.74852C11.3718 6.73895 11.3633 6.73504 11.3595 6.73358C11.3319 6.73557 11.2728 6.75504 11.1806 6.82988C11.1688 6.83946 11.1569 6.84958 11.1449 6.86021L11.1461 6.86186C11.1381 6.86785 11.1301 6.8742 11.1221 6.88093C11.1008 6.90077 11.0793 6.92213 11.0576 6.94482Z" fill="#F57729"/>
<path d="M0.5 4.5V8.5H2.5V11.5L8.5 6.5L2.5 1.5V4.5H0.5Z" fill="var(--mw-icon-background-default-selection, #B4DEFF)" stroke="var(--mw-icon-border-default-blue, #1656A7)"/>
</svg>
