<svg width="16" height="16" viewBox="0 0 16 16" fill="none" xmlns="http://www.w3.org/2000/svg">
<path d="M0.5 3.5H12.5V10C12.5 10.2761 12.2761 10.5 12 10.5H1C0.723858 10.5 0.5 10.2761 0.5 10V3.5Z" fill="var(--mw-icon-background-default-white, #FFFFFF)" stroke="var(--mw-icon-border-default-gray, #616161)"/>
<path d="M0.5 1C0.5 0.723858 0.723858 0.5 1 0.5H12C12.2761 0.5 12.5 0.723858 12.5 1V3.5H0.5V1Z" fill="var(--mw-icon-background-default-selection, #B4DEFF)" stroke="var(--mw-icon-border-default-blue, #1656A7)"/>
<path d="M3.5 8.5H15.5V15C15.5 15.2761 15.2761 15.5 15 15.5H4C3.72386 15.5 3.5 15.2761 3.5 15V8.5Z" fill="var(--mw-icon-background-default-medium-gray, #D9D9D9)" stroke="var(--mw-icon-border-disabled-gray, #888888)"/>
<path d="M3.5 6C3.5 5.72386 3.72386 5.5 4 5.5H15C15.2761 5.5 15.5 5.72386 15.5 6V8.5H3.5V6Z" fill="var(--mw-icon-background-default-medium-gray, #D9D9D9)" stroke="var(--mw-icon-border-disabled-gray, #888888)"/>
</svg>
