<svg width="16" height="16" viewBox="0 0 16 16" fill="none" xmlns="http://www.w3.org/2000/svg">
<rect x="0.5" y="0.5" width="14" height="14" rx="1" fill="var(--mw-icon-background-default-white, #FFFFFF)"/>
<path d="M3.46739 1.5C1.95435 1.5 1.02536 2.76449 0.5 3.5V7.5L1.5 6.5L3.5 12.5L4.5 8.5C5.55072 10.0761 7.23913 12.7435 8.5 13.5C9.76087 14.2565 13.4493 14.7391 14.5 14.7391V3.3913L11.5 6.5L8.5 2.5V6.5C7.3442 5.02899 4.98044 1.5 3.46739 1.5Z" fill="var(--mw-icon-background-default-medium-gray, #D9D9D9)"/>
<path d="M0.5 5.5L3.5 2.5L8.5 12.5L10.5 10.5L12.5 11.5L14.5 5.5" stroke="var(--mw-icon-borderColor-light-blue, #268CDD)" stroke-linecap="round" stroke-linejoin="round"/>
<path d="M2.5 6.5C2.5 5.94772 2.94772 5.5 3.5 5.5C4.05228 5.5 4.5 5.94772 4.5 6.5C4.5 7.05228 4.05228 7.5 3.5 7.5C2.94772 7.5 2.5 7.05228 2.5 6.5Z" fill="white"/>
<path d="M10.5 7.5C10.5 6.94772 10.9477 6.5 11.5 6.5C12.0523 6.5 12.5 6.94772 12.5 7.5C12.5 8.05228 12.0523 8.5 11.5 8.5C10.9477 8.5 10.5 8.05228 10.5 7.5Z" fill="white"/>
<path d="M9.5 11.5C9.5 10.9477 9.94772 10.5 10.5 10.5C11.0523 10.5 11.5 10.9477 11.5 11.5C11.5 12.0523 11.0523 12.5 10.5 12.5C9.94772 12.5 9.5 12.0523 9.5 11.5Z" fill="white"/>
<path d="M2.5 6.5C2.5 5.94772 2.94772 5.5 3.5 5.5C4.05228 5.5 4.5 5.94772 4.5 6.5C4.5 7.05228 4.05228 7.5 3.5 7.5C2.94772 7.5 2.5 7.05228 2.5 6.5Z" stroke="#DD5400"/>
<path d="M10.5 7.5C10.5 6.94772 10.9477 6.5 11.5 6.5C12.0523 6.5 12.5 6.94772 12.5 7.5C12.5 8.05228 12.0523 8.5 11.5 8.5C10.9477 8.5 10.5 8.05228 10.5 7.5Z" stroke="#DD5400"/>
<path d="M9.5 11.5C9.5 10.9477 9.94772 10.5 10.5 10.5C11.0523 10.5 11.5 10.9477 11.5 11.5C11.5 12.0523 11.0523 12.5 10.5 12.5C9.94772 12.5 9.5 12.0523 9.5 11.5Z" stroke="#DD5400"/>
<rect x="0.5" y="0.5" width="14" height="14" rx="1" stroke="var(--mw-icon-border-default-gray, #616161)"/>
</svg>
