<svg width="16" height="16" viewBox="0 0 16 16" fill="none" xmlns="http://www.w3.org/2000/svg">
<rect x="0.5" y="0.5" width="14" height="14" rx="1" fill="var(--mw-icon-background-default-white, #FFFFFF)"/>
<path d="M3.5 5.5C2.09094 5.5 1.08711 6.91291 0.5 7.50002C0.561723 7.06796 0.5 4.5 0.5 4.5C0.5 4.5 1.73836 3.5 3.5 3.5C5.26164 3.5 8.38641 7.50002 10.5 7.50002C12.1909 7.50002 13.678 7.08713 14.5 6.50002V9.50002C13.7955 10.2045 13.3181 11 10.5 11C6.97734 11 5.61359 5.5 3.5 5.5Z" fill="var(--mw-icon-background-default-medium-gray, #D9D9D9)"/>
<path d="M0.5 5.50006C1.08711 4.91295 1.40906 4.35248 2.81813 4.35248C4.93172 4.35248 7.74985 8.93193 11.2725 8.93193C14.0906 8.93193 14.5 7.50006 14.5 7.50006" stroke="var(--mw-icon-borderColor-light-blue, #268CDD)" stroke-linecap="round" stroke-linejoin="round"/>
<path d="M10.5 5.5C10.5 4.94772 10.9477 4.5 11.5 4.5C12.0523 4.5 12.5 4.94772 12.5 5.5C12.5 6.05228 12.0523 6.5 11.5 6.5C10.9477 6.5 10.5 6.05228 10.5 5.5Z" fill="white"/>
<path d="M9.5 11.5C9.5 10.9477 9.94772 10.5 10.5 10.5C11.0523 10.5 11.5 10.9477 11.5 11.5C11.5 12.0523 11.0523 12.5 10.5 12.5C9.94772 12.5 9.5 12.0523 9.5 11.5Z" fill="white"/>
<path d="M2.5 7.5C2.5 6.94772 2.94772 6.5 3.5 6.5C4.05228 6.5 4.5 6.94772 4.5 7.5C4.5 8.05228 4.05228 8.5 3.5 8.5C2.94772 8.5 2.5 8.05228 2.5 7.5Z" fill="white"/>
<path d="M10.5 5.5C10.5 4.94772 10.9477 4.5 11.5 4.5C12.0523 4.5 12.5 4.94772 12.5 5.5C12.5 6.05228 12.0523 6.5 11.5 6.5C10.9477 6.5 10.5 6.05228 10.5 5.5Z" stroke="#DD5400"/>
<path d="M9.5 11.5C9.5 10.9477 9.94772 10.5 10.5 10.5C11.0523 10.5 11.5 10.9477 11.5 11.5C11.5 12.0523 11.0523 12.5 10.5 12.5C9.94772 12.5 9.5 12.0523 9.5 11.5Z" stroke="#DD5400"/>
<path d="M2.5 7.5C2.5 6.94772 2.94772 6.5 3.5 6.5C4.05228 6.5 4.5 6.94772 4.5 7.5C4.5 8.05228 4.05228 8.5 3.5 8.5C2.94772 8.5 2.5 8.05228 2.5 7.5Z" stroke="#DD5400"/>
<rect x="0.5" y="0.5" width="14" height="14" rx="1" stroke="var(--mw-icon-border-default-gray, #616161)"/>
</svg>
