<svg width="16" height="16" viewBox="0 0 16 16" fill="none" xmlns="http://www.w3.org/2000/svg">
<rect x="0.5" y="0.5" width="14" height="14" rx="1" fill="var(--mw-icon-background-default-white, #FFFFFF)"/>
<path d="M3.5 7.5C2.25556 7.5 1.01852 10.9815 0.5 11.5C0.554512 11.1184 0.5 4.48889 0.5 4.48889C0.5 4.48889 0.944171 2.5 2.5 2.5C4.05583 2.5 6.63333 7.5 8.5 7.5C9.99333 7.5 13.7741 5.01852 14.5 4.5V13.5L14.4754 13.5C13.5395 13.5001 11.9894 13.5003 9.52222 12.2667C6.73956 10.8753 5.36667 7.5 3.5 7.5Z" fill="var(--mw-icon-background-default-medium-gray, #D9D9D9)"/>
<path d="M0.5 6.5C1.01852 5.98148 1.74444 4.80017 2.98889 4.80017C4.85556 4.80017 7.34444 11.0222 10.4556 11.0222C12.9444 11.0222 13.8778 8.84446 14.5 8.53335" stroke="var(--mw-icon-borderColor-light-blue, #268CDD)" stroke-linecap="round" stroke-linejoin="round"/>
<path d="M10.5 7.5C10.5 6.94772 10.9477 6.5 11.5 6.5C12.0523 6.5 12.5 6.94772 12.5 7.5C12.5 8.05228 12.0523 8.5 11.5 8.5C10.9477 8.5 10.5 8.05228 10.5 7.5Z" fill="white"/>
<path d="M9.5 11.5C9.5 10.9477 9.94772 10.5 10.5 10.5C11.0523 10.5 11.5 10.9477 11.5 11.5C11.5 12.0523 11.0523 12.5 10.5 12.5C9.94772 12.5 9.5 12.0523 9.5 11.5Z" fill="white"/>
<path d="M2.5 7.5C2.5 6.94772 2.94772 6.5 3.5 6.5C4.05228 6.5 4.5 6.94772 4.5 7.5C4.5 8.05228 4.05228 8.5 3.5 8.5C2.94772 8.5 2.5 8.05228 2.5 7.5Z" fill="white"/>
<path d="M10.5 7.5C10.5 6.94772 10.9477 6.5 11.5 6.5C12.0523 6.5 12.5 6.94772 12.5 7.5C12.5 8.05228 12.0523 8.5 11.5 8.5C10.9477 8.5 10.5 8.05228 10.5 7.5Z" stroke="#DD5400"/>
<path d="M9.5 11.5C9.5 10.9477 9.94772 10.5 10.5 10.5C11.0523 10.5 11.5 10.9477 11.5 11.5C11.5 12.0523 11.0523 12.5 10.5 12.5C9.94772 12.5 9.5 12.0523 9.5 11.5Z" stroke="#DD5400"/>
<path d="M2.5 7.5C2.5 6.94772 2.94772 6.5 3.5 6.5C4.05228 6.5 4.5 6.94772 4.5 7.5C4.5 8.05228 4.05228 8.5 3.5 8.5C2.94772 8.5 2.5 8.05228 2.5 7.5Z" stroke="#DD5400"/>
<rect x="0.5" y="0.5" width="14" height="14" rx="1" stroke="var(--mw-icon-border-default-gray, #616161)"/>
</svg>
