<svg width="16" height="16" viewBox="0 0 16 16" fill="none" xmlns="http://www.w3.org/2000/svg">
<rect x="0.5" y="0.5" width="15" height="15" rx="2" fill="var(--mw-icon-background-default-action, #CBFFBE)" stroke="var(--mw-icon-border-default-green, #008013)"/>
<path d="M8.16113 8.74512H7.07422V8.05957H8.16113C8.3291 8.05957 8.46582 8.03223 8.57129 7.97754C8.67676 7.9209 8.75391 7.84277 8.80273 7.74316C8.85156 7.64355 8.87598 7.53125 8.87598 7.40625C8.87598 7.2793 8.85156 7.16113 8.80273 7.05176C8.75391 6.94238 8.67676 6.85449 8.57129 6.78809C8.46582 6.72168 8.3291 6.68848 8.16113 6.68848H7.37891V10.2656H6.5V6H8.16113C8.49512 6 8.78125 6.06055 9.01953 6.18164C9.25977 6.30078 9.44336 6.46582 9.57031 6.67676C9.69727 6.8877 9.76074 7.12891 9.76074 7.40039C9.76074 7.67578 9.69727 7.91406 9.57031 8.11523C9.44336 8.31641 9.25977 8.47168 9.01953 8.58105C8.78125 8.69043 8.49512 8.74512 8.16113 8.74512Z" fill="var(--mw-icon-glyph-content-dark-green, #02580E)"/>
<path d="M12.3936 6H13.2695V8.81836C13.2695 9.14648 13.1992 9.42285 13.0586 9.64746C12.9199 9.87207 12.7275 10.041 12.4814 10.1543C12.2373 10.2676 11.9561 10.3242 11.6377 10.3242C11.3193 10.3242 11.0361 10.2676 10.7881 10.1543C10.542 10.041 10.3486 9.87207 10.208 9.64746C10.0693 9.42285 10 9.14648 10 8.81836V6H10.8789V8.81836C10.8789 9.00977 10.9092 9.16602 10.9697 9.28711C11.0303 9.4082 11.1172 9.49707 11.2305 9.55371C11.3457 9.61035 11.4814 9.63867 11.6377 9.63867C11.7979 9.63867 11.9336 9.61035 12.0449 9.55371C12.1582 9.49707 12.2441 9.4082 12.3027 9.28711C12.3633 9.16602 12.3936 9.00977 12.3936 8.81836V6Z" fill="var(--mw-icon-glyph-content-dark-green, #02580E)"/>
<path d="M5.9834 8.09766V9.78809C5.91699 9.86816 5.81445 9.95508 5.67578 10.0488C5.53711 10.1406 5.3584 10.2197 5.13965 10.2861C4.9209 10.3525 4.65625 10.3857 4.3457 10.3857C4.07031 10.3857 3.81934 10.3408 3.59277 10.251C3.36621 10.1592 3.1709 10.0254 3.00684 9.84961C2.84473 9.67383 2.71973 9.45898 2.63184 9.20508C2.54395 8.94922 2.5 8.65723 2.5 8.3291V8.0625C2.5 7.73438 2.54199 7.44238 2.62598 7.18652C2.71191 6.93066 2.83398 6.71484 2.99219 6.53906C3.15039 6.36328 3.33887 6.22949 3.55762 6.1377C3.77637 6.0459 4.01953 6 4.28711 6C4.6582 6 4.96289 6.06055 5.20117 6.18164C5.43945 6.30078 5.62109 6.4668 5.74609 6.67969C5.87305 6.89062 5.95117 7.13281 5.98047 7.40625H5.12793C5.10645 7.26172 5.06543 7.13574 5.00488 7.02832C4.94434 6.9209 4.85742 6.83691 4.74414 6.77637C4.63281 6.71582 4.48828 6.68555 4.31055 6.68555C4.16406 6.68555 4.0332 6.71582 3.91797 6.77637C3.80469 6.83496 3.70898 6.92188 3.63086 7.03711C3.55273 7.15234 3.49316 7.29492 3.45215 7.46484C3.41113 7.63477 3.39062 7.83203 3.39062 8.05664V8.3291C3.39062 8.55176 3.41211 8.74902 3.45508 8.9209C3.49805 9.09082 3.56152 9.23438 3.64551 9.35156C3.73145 9.4668 3.83691 9.55371 3.96191 9.6123C4.08691 9.6709 4.23242 9.7002 4.39844 9.7002C4.53711 9.7002 4.65234 9.68848 4.74414 9.66504C4.83789 9.6416 4.91309 9.61328 4.96973 9.58008C5.02832 9.54492 5.07324 9.51172 5.10449 9.48047V8.72461H4.30176V8.09766H5.9834Z" fill="var(--mw-icon-glyph-content-dark-green, #02580E)"/>
</svg>
