<svg width="16" height="16" viewBox="0 0 16 16" fill="none" xmlns="http://www.w3.org/2000/svg">
<path d="M0.5 12.5V2.5C0.5 1.39543 1.39543 0.5 2.5 0.5H12.5C13.6046 0.5 14.5 1.39543 14.5 2.5V12.5C14.5 13.6046 13.6046 14.5 12.5 14.5H2.5C1.39543 14.5 0.5 13.6046 0.5 12.5Z" fill="var(--mw-icon-background-default-white, #FFFFFF)"/>
<path d="M14.5 6.34588C10.5464 7.81967 7.64118 3.82359 5.49996 4.00608C4.85452 4.06109 4.49996 5.00541 3.99996 6.00473C3.49996 7.16256 2.5383 9.26161 1.99996 10.5017C1.49205 11.6717 1.15991 12.6343 0.5 13" stroke="#FF13A6" stroke-miterlimit="10"/>
<path d="M4.5 7.5H7.5V10.5H4.5V7.5Z" fill="white" stroke="#FF13A6"/>
<path d="M10.5 9.5H13.5V12.5H10.5V9.5Z" fill="white" stroke="#FF13A6"/>
<path d="M9.5 1.5H12.5V4.5H9.5V1.5Z" fill="white" stroke="#FF13A6"/>
<path d="M1 14V2C1 1.44772 1.44772 1 2 1H13C13.5523 1 14 1.44772 14 2V14C14 14.5523 13.5523 15 13 15H2C1.44772 15 1 14.5523 1 14Z" fill="#FFDB9A"/>
<rect x="0.5" y="0.5" width="14" height="14" rx="1.5" stroke="var(--mw-icon-border-default-gray, #616161)"/>
<path d="M8.5 0V14.3478" stroke="var(--mw-icon-border-default-gray, #616161)"/>
<path d="M0.5 7.49999C0.826087 6.73912 2.02798 3.56396 3.5 4.49999C5.04348 5.48145 4.86063 9.59015 6.5 9.99998C8.13937 10.4098 8.5 8.49998 8.5 7.49999" stroke="var(--mw-icon-border-default-gray, #616161)"/>
<path d="M8.5 5.5V3.5H10.5H12.5V5.5H10.5H8.5Z" fill="var(--mw-icon-background-default-medium-gray, #D9D9D9)"/>
<path d="M10.5 3.5H8.5V5.5H10.5M10.5 3.5V5.5M10.5 3.5H12.5V5.5H10.5" stroke="var(--mw-icon-border-default-gray, #616161)" stroke-linejoin="round"/>
<path d="M8.5 7.5V5.5H10.5H12.5V7.5H10.5H8.5Z" fill="white"/>
<path d="M10.5 5.5H8.5V7.5H10.5M10.5 5.5V7.5M10.5 5.5H12.5V7.5H10.5" stroke="var(--mw-icon-border-default-gray, #616161)" stroke-linejoin="round"/>
<path d="M8.5 9.5V7.5H10.5H12.5V9.5H10.5H8.5Z" fill="white"/>
<path d="M10.5 7.5H8.5V9.5H10.5M10.5 7.5V9.5M10.5 7.5H12.5V9.5H10.5" stroke="var(--mw-icon-border-default-gray, #616161)" stroke-linejoin="round"/>
<path d="M8.5 11.5V9.5H10.5H12.5V11.5H10.5H8.5Z" fill="white"/>
<path d="M10.5 9.5H8.5V11.5H10.5M10.5 9.5V11.5M10.5 9.5H12.5V11.5H10.5" stroke="var(--mw-icon-border-default-gray, #616161)" stroke-linejoin="round"/>
</svg>
