<svg width="16" height="16" viewBox="0 0 16 16" fill="none" xmlns="http://www.w3.org/2000/svg">
<path d="M6.5 0.5H1.5C0.947715 0.5 0.5 0.947716 0.5 1.5V13.5C0.5 14.0523 0.947715 14.5 1.5 14.5H6.5V0.5Z" fill="var(--mw-icon-background-default-white, #FFFFFF)" stroke="var(--mw-icon-border-default-gray, #616161)" stroke-linecap="round"/>
<path d="M0.81818 9.72727V1.31818C0.81818 1.04203 1.04204 0.818176 1.31818 0.818176H6.54545V4.63636C4 3.04545 2.00143 4.59986 0.81818 9.72727Z" fill="var(--mw-icon-glyph-content-gray, #616162)"/>
<path d="M14.5 1.00001V9.5H8.5V0.5L14 0.500014C14.2761 0.500015 14.5 0.723872 14.5 1.00001Z" fill="var(--mw-icon-background-red, #FF9D9A)"/>
<path d="M14.5 9.5V10C14.7761 10 15 9.77614 15 9.5H14.5ZM8.5 9.5H8C8 9.77614 8.22385 10 8.5 10V9.5ZM14 0.500014L14 1.38506e-05L14 0.500014ZM8.5 0.5L8.5 0L8 -1.25915e-06V0.5H8.5ZM15 9.5V1.00001H14V9.5H15ZM8.5 10H14.5V9H8.5V10ZM14 1.38506e-05L8.5 0L8.49999 1L14 1.00001L14 1.38506e-05ZM8 0.5V9.5H9V0.5H8ZM15 1.00001C15 0.447729 14.5523 1.52414e-05 14 1.38506e-05L14 1.00001L14 1.00001H15Z" fill="var(--mw-icon-glyph-content-red, #902623)"/>
<path d="M14.5 14V9.4091C13 5.00004 10 5.00004 8.5 9.50003V14.5H14C14.2761 14.5 14.5 14.2762 14.5 14Z" fill="var(--mw-icon-background-default-action, #CBFFBE)"/>
<path d="M14.5 9.4091H15C15 9.35432 14.991 9.29992 14.9734 9.24806L14.5 9.4091ZM8.5 9.50003L8.02566 9.34191C8.00866 9.39289 8 9.44628 8 9.50003H8.5ZM8.5 14.5H8V15H8.5V14.5ZM14 9.4091V14H15V9.4091H14ZM8.97434 9.65814C9.33534 8.57516 9.7748 7.80082 10.2284 7.30476C10.68 6.81081 11.1196 6.61754 11.5051 6.61365C11.8897 6.60976 12.3266 6.79344 12.7759 7.27249C13.2277 7.7541 13.6661 8.51049 14.0266 9.57014L14.9734 9.24806C14.5839 8.10318 14.0848 7.20618 13.5053 6.58836C12.9234 5.96799 12.2353 5.60622 11.4949 5.6137C10.7554 5.62117 10.07 5.99608 9.49037 6.62997C8.9127 7.26174 8.41466 8.1749 8.02566 9.34191L8.97434 9.65814ZM14 14H8.5V15H14V14ZM9 14.5V9.50003H8V14.5H9ZM14 14V14V15C14.5523 15 15 14.5523 15 14H14Z" fill="var(--mw-icon-glyph-content-green, #008014)"/>
</svg>
