<svg width="16" height="16" viewBox="0 0 16 16" fill="none" xmlns="http://www.w3.org/2000/svg">
<path d="M0.5 12.5V2.5C0.5 1.39543 1.39543 0.5 2.5 0.5H12.5C13.6046 0.5 14.5 1.39543 14.5 2.5V12.5C14.5 13.6046 13.6046 14.5 12.5 14.5H2.5C1.39543 14.5 0.5 13.6046 0.5 12.5Z" fill="var(--mw-icon-background-lightest-blue, #E2F0FF)"/>
<path d="M0.341438 9.91683L2.95007 9.10386L3.20841 9.02744L3.46671 8.9599L3.72508 8.87514L4.08668 8.78433L4.2094 8.74614L4.53874 8.65836L4.73889 8.61289L5.03596 8.53028L5.32655 8.45409L5.58483 8.39067L5.95935 8.29548L6.26289 8.20645L6.72138 8.08581L7.04441 7.9646L7.60626 7.80569L13.5 7.49994L0.337094 10.9523L0.341438 9.91683Z" fill="var(--mw-icon-glyph-content-dark-green, #02580E)"/>
<path d="M0.141461 11.0598C4.59021 9.04827 9.08023 7.84085 14 7.5V8.70264C14 8.70264 14 12.5 14 14.5C13.3429 14.5 6.5407 14.5081 6.03531 14.4935C5.31764 14.4727 4.6438 14.5024 4.08397 14.4935C-1.15208 14.4102 0.141461 11.0598 0.141461 11.0598Z" fill="#3AC831"/>
<path d="M11.1818 3.81818V11.1818H3.81818V3.81818H11.1818ZM12 3H3V12H12V3Z" fill="var(--mw-icon-glyph-content-dark-blue, #104280)"/>
<path d="M8 7.95801H7V11H8V7.95801Z" fill="var(--mw-icon-border-default-red, #902622)"/>
<rect x="2.5" y="2.5" width="2" height="2" fill="var(--mw-icon-background-default-white, white)" stroke="var(--mw-icon-glyph-content-dark-blue, #104280)"/>
<rect x="2.5" y="10.5" width="2" height="2" fill="var(--mw-icon-background-default-white, white)" stroke="var(--mw-icon-glyph-content-dark-blue, #104280)"/>
<rect x="10.5" y="10.5" width="2" height="2" fill="var(--mw-icon-background-default-white, white)" stroke="var(--mw-icon-glyph-content-dark-blue, #104280)"/>
<rect x="10.5" y="2.5" width="2" height="2" fill="var(--mw-icon-background-default-white, white)" stroke="var(--mw-icon-glyph-content-dark-blue, #104280)"/>
<circle cx="7.5" cy="7.5" r="2" fill="var(--mw-icon-background-red, #FF9D9A)" stroke="var(--mw-icon-border-default-red, #902622)"/>
<path d="M0.5 12.5V2.5C0.5 1.39543 1.39543 0.5 2.5 0.5H12.5C13.6046 0.5 14.5 1.39543 14.5 2.5V12.5C14.5 13.6046 13.6046 14.5 12.5 14.5H2.5C1.39543 14.5 0.5 13.6046 0.5 12.5Z" stroke="var(--mw-icon-border-disabled-gray, #888888)" stroke-linecap="round"/>

</svg>
