<svg width="16" height="16" viewBox="0 0 16 16" fill="none" xmlns="http://www.w3.org/2000/svg">
<rect x="0.5" y="0.5" width="14" height="14" rx="2" fill="var(--mw-icon-background-default-white, #FFFFFF)"/>
<path d="M10.5 14V1" stroke="var(--mw-icon-background-default-dark-gray, #A6A6A6)" stroke-linejoin="round"/>
<path d="M4.5 14V1" stroke="var(--mw-icon-background-default-dark-gray, #A6A6A6)" stroke-linejoin="round"/>
<path d="M0.5 6L4.5 8.5L10.5 12.5L14.5 12" stroke="#2FBEEF"/>
<path d="M0.5 5L4.5 6.5L10.5 11H14.5" stroke="#2FBEEF" stroke-linejoin="round"/>
<path d="M0.5 5L4.5 5.5L10.5 9.5L14.5 11" stroke="#1171BE" stroke-linejoin="round"/>
<path d="M0.5 2L4.5 8.5L10.5 3.5L14.5 6.66667" stroke="#EDB120" stroke-linejoin="round"/>
<path d="M0.5 4L4.5 10.5L10.5 5L14.5 7.42857" stroke="#EDB120" stroke-linejoin="round"/>
<path d="M0.5 5L4.5 11.5L10.5 6.5L14.5 7.25" stroke="#DD5400" stroke-linejoin="round"/>
<rect x="0.5" y="0.5" width="14" height="14" rx="1" stroke="var(--mw-icon-border-default-gray, #616161)"/>
</svg>
