<svg width="16" height="16" viewBox="0 0 16 16" fill="none" xmlns="http://www.w3.org/2000/svg">
<path d="M1.5 1.5H13.5V13.5H1.5V1.5Z" fill="var(--mw-icon-background-default-white, #FFFFFF)"/>
<path fill-rule="evenodd" clip-rule="evenodd" d="M1 1H14V14H1V1ZM2 2V13H13V2H2Z" fill="var(--mw-icon-glyph-content-gray, #616162)"/>
<path d="M0 0H2V2H0V0Z" fill="var(--mw-icon-glyph-content-gray, #616162)"/>
<path d="M13 0H15V2H13V0Z" fill="var(--mw-icon-glyph-content-gray, #616162)"/>
<path d="M13 13H15V15H13V13Z" fill="var(--mw-icon-glyph-content-gray, #616162)"/>
<path d="M0 13H2V15H0V13Z" fill="var(--mw-icon-glyph-content-gray, #616162)"/>
<path d="M1 2H2V3H1V2Z" fill="white"/>
<path d="M1 5H2V6H1V5Z" fill="white"/>
<path d="M1 8H2V9H1V8Z" fill="white"/>
<path d="M1 11H2V12H1V11Z" fill="white"/>
<path d="M13 2H14V3H13V2Z" fill="white"/>
<path d="M12 1H13V2H12V1Z" fill="white"/>
<path d="M9 1H10V2H9V1Z" fill="white"/>
<path d="M6 1H7V2H6V1Z" fill="white"/>
<path d="M3 1H4V2H3V1Z" fill="white"/>
<path d="M12 13H13V14H12V13Z" fill="white"/>
<path d="M9 13H10V14H9V13Z" fill="white"/>
<path d="M6 13H7V14H6V13Z" fill="white"/>
<path d="M3 13H4V14H3V13Z" fill="white"/>
<path d="M13 5H14V6H13V5Z" fill="white"/>
<path d="M13 8H14V9H13V8Z" fill="white"/>
<path d="M13 11H14V12H13V11Z" fill="white"/>
<path fill-rule="evenodd" clip-rule="evenodd" d="M5 4V11H4V4H5ZM8 4V11H7V4H8ZM11 4V11H10V4H11Z" fill="var(--mw-icon-glyph-content-gray, #616162)"/>
<path d="M3 6H6V7H3V6Z" fill="var(--mw-icon-glyph-content-gray, #616162)"/>
<path d="M6 9H9V10H6V9Z" fill="var(--mw-icon-glyph-content-gray, #616162)"/>
<path d="M9 5H12V6H9V5Z" fill="var(--mw-icon-glyph-content-gray, #616162)"/>
</svg>
