<svg width="16" height="16" viewBox="0 0 16 16" fill="none" xmlns="http://www.w3.org/2000/svg">
<path d="M13.5 1.5H1.5V13.5H13.5V1.5Z" stroke="var(--mw-icon-borderColor-light-blue, #268CDD)"/>
<path d="M0.5 2.5V0.5H2.5V2.5H0.5Z" fill="var(--mw-icon-background-default-white, #FFFFFF)"/>
<path d="M0.5 14.5V12.5H2.5V14.5H0.5Z" fill="white"/>
<path d="M12.5 14.5V12.5H14.5V14.5H12.5Z" fill="white"/>
<path d="M12.5 2.5V0.5H14.5V2.5H12.5Z" fill="white"/>
<path d="M0.5 2.5V0.5H2.5V2.5H0.5Z" stroke="var(--mw-icon-border-default-blue, #1656A7)" stroke-linejoin="round"/>
<path d="M0.5 14.5V12.5H2.5V14.5H0.5Z" stroke="var(--mw-icon-border-default-blue, #1656A7)" stroke-linejoin="round"/>
<path d="M12.5 14.5V12.5H14.5V14.5H12.5Z" stroke="var(--mw-icon-border-default-blue, #1656A7)" stroke-linejoin="round"/>
<path d="M12.5 2.5V0.5H14.5V2.5H12.5Z" stroke="var(--mw-icon-border-default-blue, #1656A7)" stroke-linejoin="round"/>
<path d="M3.5 8.5V3.5H8.5V8.5H3.5Z" stroke="var(--mw-icon-glyph-disabled-gray, #888889)" stroke-linejoin="round"/>
<path d="M6.5 11.5V6.5H11.5V11.5H6.5Z" stroke="var(--mw-icon-glyph-disabled-gray, #888889)" stroke-linejoin="round"/>
</svg>
