<svg width="16" height="16" viewBox="0 0 16 16" fill="none" xmlns="http://www.w3.org/2000/svg">
<path d="M0.5 2.50003H15.5V8.50003H0.5V2.50003Z" fill="var(--mw-icon-background-default-medium-gray, #D9D9D9)" stroke="var(--mw-icon-border-default-gray, #616161)" stroke-linejoin="round"/>
<path d="M2.50098 8.52643H4.50085V15.5H2.50098V8.52643Z" fill="var(--mw-icon-background-default-dark-gray, #A6A6A6)"/>
<path d="M2.5 1C2.5 0.723857 2.72386 0.5 3 0.5H3.99987C4.27601 0.5 4.49987 0.723858 4.49987 1V2.50429H2.5V1Z" fill="var(--mw-icon-background-default-dark-gray, #A6A6A6)"/>
<path d="M11.5001 8.52611H13.5V15.4997H11.5001V8.52611Z" fill="var(--mw-icon-background-default-dark-gray, #A6A6A6)"/>
<path d="M11.4991 1C11.4991 0.723857 11.723 0.5 11.9991 0.5H12.999C13.2752 0.5 13.499 0.723858 13.499 1V2.50429H11.4991V1Z" fill="var(--mw-icon-background-default-dark-gray, #A6A6A6)"/>
<path d="M2.50098 8.52643H4.50085V15.5H2.50098V8.52643Z" stroke="var(--mw-icon-border-default-gray, #616161)"/>
<path d="M2.5 1C2.5 0.723857 2.72386 0.5 3 0.5H3.99987C4.27601 0.5 4.49987 0.723858 4.49987 1V2.50429H2.5V1Z" stroke="var(--mw-icon-border-default-gray, #616161)"/>
<path d="M11.5001 8.52611H13.5V15.4997H11.5001V8.52611Z" stroke="var(--mw-icon-border-default-gray, #616161)"/>
<path d="M11.4991 1C11.4991 0.723857 11.723 0.5 11.9991 0.5H12.999C13.2752 0.5 13.499 0.723858 13.499 1V2.50429H11.4991V1Z" stroke="var(--mw-icon-border-default-gray, #616161)"/>
<path d="M1 4.01111H15V3H1V4.01111Z" fill="var(--mw-icon-background-default-white, #FFFFFF)"/>
<path d="M1 8H15V6.98889H1V8Z" fill="var(--mw-icon-background-default-light-gray, #F5F5F5)"/>
<path d="M4 5.5C4 5.77614 3.77614 6 3.5 6C3.22386 6 3 5.77614 3 5.5C3 5.22386 3.22386 5 3.5 5C3.77614 5 4 5.22386 4 5.5Z" fill="var(--mw-icon-glyph-content-gray, #616162)"/>
<path d="M13 5.5C13 5.77614 12.7762 6 12.5 6C12.2239 6 12 5.77614 12 5.5C12 5.22386 12.2239 5 12.5 5C12.7762 5 13 5.22386 13 5.5Z" fill="var(--mw-icon-glyph-content-gray, #616162)"/>
</svg>
