<svg width="16" height="16" viewBox="0 0 16 16" fill="none" xmlns="http://www.w3.org/2000/svg">
<rect x="0.5" y="0.5" width="14" height="14" rx="2" fill="var(--mw-icon-glyph-content-green, #008014)" stroke="#013E0A"/>
<path d="M4 12H5V14H4V12Z" fill="var(--mw-icon-background-medium-yellow, #FFEF91)"/>
<path d="M1 4H3V5H1V4Z" fill="var(--mw-icon-background-medium-yellow, #FFEF91)"/>
<path d="M1 6H3V7H1V6Z" fill="var(--mw-icon-background-medium-yellow, #FFEF91)"/>
<path d="M1 8H3V9H1V8Z" fill="var(--mw-icon-background-medium-yellow, #FFEF91)"/>
<path d="M1 10H3V11H1V10Z" fill="var(--mw-icon-background-medium-yellow, #FFEF91)"/>
<rect x="4.5" y="2.5" width="8" height="8" rx="0.5" fill="var(--mw-icon-background-medium-yellow, #FFEF91)" stroke="var(--mw-icon-glyph-content-yellow, #674C07)"/>
<path fill-rule="evenodd" clip-rule="evenodd" d="M11.1964 6.28276C10.9994 6.17866 10.7917 6.09214 10.5753 6.02526L10.2576 4.5H8.74242L8.42466 6.02526C8.20831 6.09214 8.00059 6.17867 7.80359 6.28276L6.50014 5.42878L5.42877 6.50015L6.28275 7.8036C6.17866 8.0006 6.09214 8.20832 6.02526 8.42466L4.5 8.74242V10.2576L6.02526 10.5753C6.09213 10.7917 6.17866 10.9994 6.28275 11.1964L5.42877 12.4998L6.50014 13.5712L7.80359 12.7172C8.00059 12.8213 8.20831 12.9079 8.42466 12.9747L8.74242 14.5H10.2576L10.5753 12.9747C10.7917 12.9079 10.9994 12.8213 11.1964 12.7172L12.4998 13.5712L13.5712 12.4998L12.7172 11.1964C12.8213 10.9994 12.9079 10.7917 12.9747 10.5753L14.5 10.2576V8.74242L12.9747 8.42466C12.9079 8.20831 12.8213 8.00059 12.7172 7.80359L13.5712 6.50015L12.4998 5.42878L11.1964 6.28276Z" fill="var(--mw-icon-background-default-medium-gray, #D9D9D9)" stroke="var(--mw-icon-border-default-gray, #616161)"/>
<path d="M11 9.5C11 10.3284 10.3284 11 9.5 11C8.67157 11 8 10.3284 8 9.5C8 8.67157 8.67157 8 9.5 8C10.3284 8 11 8.67157 11 9.5Z" fill="var(--mw-icon-glyph-disabled-gray, #888889)"/>
</svg>
