<svg width="16" height="16" viewBox="0 0 16 16" fill="none" xmlns="http://www.w3.org/2000/svg">
<rect x="1" y="1" width="13" height="13" rx="1" fill="#00A9E0"/>
<path d="M0.5 4.5L3.5 1.5L5.5 4.5L8.5 1.5L10.5 6L12.5 2.5L13.5 13.5" stroke="#74EBDA" stroke-linejoin="round"/>
<path d="M1 1.5C12.5 1.5 14 4.5 14 14" stroke="var(--mw-icon-background-default-white, #FFFFFF)" stroke-linejoin="round"/>
<path d="M12.3434 10.2344L14.5 12.697L14.1538 14.1538L12.6742 14.5L10.2597 12.3309C9.60353 12.59 8.88476 12.6428 8.19816 12.4825C7.51156 12.3222 6.88939 11.9563 6.41369 11.433C5.938 10.9097 5.63113 10.2536 5.53356 9.55132C5.436 8.84899 5.55232 8.1334 5.86718 7.49894L8.45372 10.1612L9.69737 9.66868L10.22 8.43073L7.5739 5.84834C8.20018 5.54406 8.90271 5.43558 9.59086 5.5369C10.279 5.63822 10.9212 5.94469 11.4345 6.41677C11.9479 6.88885 12.3089 7.50488 12.4709 8.18536C12.6329 8.86584 12.5885 9.57956 12.3434 10.2344Z" fill="var(--mw-icon-background-default-white, #FFFFFF)"/>
<path d="M14.5 12.697L12.3434 10.2344C12.5885 9.57956 12.6329 8.86584 12.4709 8.18536C12.3089 7.50488 11.9479 6.88885 11.4345 6.41677C10.9212 5.94469 10.279 5.63822 9.59086 5.5369C8.90271 5.43558 8.20018 5.54406 7.5739 5.84834L10.22 8.43073L9.69737 9.66868L8.45372 10.1612L5.86718 7.49894C5.55232 8.1334 5.436 8.84899 5.53356 9.55132C5.63113 10.2536 5.938 10.9097 6.41369 11.433C6.88939 11.9563 7.51156 12.3222 8.19816 12.4825C8.88476 12.6428 9.60353 12.59 10.2597 12.3309L12.6742 14.5" stroke="black" stroke-linejoin="round"/>
<rect x="0.5" y="0.5" width="14" height="14" rx="2" stroke="#245474"/>
</svg>
