<svg width="16" height="16" viewBox="0 0 16 16" fill="none" xmlns="http://www.w3.org/2000/svg">
<path d="M0.5 2.5H12.5V10C12.5 10.2761 12.2761 10.5 12 10.5H1C0.723858 10.5 0.5 10.2761 0.5 10V2.5Z" fill="var(--mw-icon-background-default-white, #FFFFFF)" stroke="var(--mw-icon-border-default-gray, #616161)"/>
<path d="M0.5 1C0.5 0.723858 0.723858 0.5 1 0.5H12C12.2761 0.5 12.5 0.723858 12.5 1V2.5H0.5V1Z" fill="var(--mw-icon-background-default-selection, #B4DEFF)" stroke="var(--mw-icon-border-default-blue, #1656A7)"/>
<path d="M4 8H10V9H4V8Z" fill="var(--mw-icon-glyph-content-gray, #616162)"/>
<path d="M4 6H9V7H4V6Z" fill="var(--mw-icon-glyph-content-gray, #616162)"/>
<path d="M10.5 5H11V4H10.5V5ZM4.5 4H4V5H4.5V4ZM2 5H3V4H2V5ZM10.5 4H4.5V5H10.5V4Z" fill="var(--mw-icon-glyph-content-red, #902623)"/>
<path d="M15.4998 11C15.4998 8.51472 13.485 6.5 10.9998 6.5C8.51447 6.5 6.49976 8.51472 6.49976 11C6.49976 13.4853 8.51447 15.5 10.9998 15.5C13.485 15.5 15.4998 13.4853 15.4998 11Z" fill="#F5FAFF" stroke="var(--mw-icon-border-default-blue, #1656A7)"/>
<path d="M10.3407 12.1492C10.3407 11.7728 10.391 11.4731 10.4917 11.25C10.5923 11.0269 10.7758 10.8078 11.0422 10.5927C11.3115 10.375 11.4906 10.1989 11.5794 10.0645C11.6681 9.92742 11.7125 9.7836 11.7125 9.63306C11.7125 9.17876 11.4817 8.95161 11.02 8.95161C10.801 8.95161 10.6249 9.01344 10.4917 9.1371C10.3615 9.25806 10.2934 9.42608 10.2875 9.64113H9C9.00592 9.12769 9.18794 8.72581 9.54606 8.43548C9.90714 8.14516 10.3984 8 11.02 8C11.6474 8 12.1343 8.13844 12.4806 8.41532C12.8269 8.68952 13 9.07796 13 9.58065C13 9.80914 12.9438 10.0255 12.8313 10.2298C12.7188 10.4315 12.522 10.6559 12.2408 10.9032L11.8812 11.2137C11.6563 11.4099 11.5276 11.6398 11.495 11.9032L11.4772 12.1492H10.3407ZM10.212 13.3871C10.212 13.207 10.2786 13.0591 10.4118 12.9435C10.5479 12.8253 10.7211 12.7661 10.9312 12.7661C11.1413 12.7661 11.313 12.8253 11.4462 12.9435C11.5823 13.0591 11.6504 13.207 11.6504 13.3871C11.6504 13.5645 11.5838 13.711 11.4506 13.8266C11.3204 13.9422 11.1472 14 10.9312 14C10.7151 14 10.5405 13.9422 10.4073 13.8266C10.2771 13.711 10.212 13.5645 10.212 13.3871Z" fill="var(--mw-icon-glyph-content-blue, #1656A8)"/>
</svg>
