<svg width="16" height="16" viewBox="0 0 16 16" fill="none" xmlns="http://www.w3.org/2000/svg">
<path d="M13.0073 12.9111V10.881L10.8303 9.55705L8.00021 11.2184V13.8116L9.76848 14.8523L13.0073 12.9111Z" fill="#EDB120"/>
<path d="M2.00366 12.9111V10.881L4.1776 9.55705L7.00366 11.2184V13.8116L5.23791 14.8523L2.00366 12.9111Z" fill="#DD5400"/>
<path d="M15.0073 9.34953V5.51148L13.3377 4.52029L11.0073 5.83421V9.04985L13.3454 10.3547L15.0073 9.34953Z" fill="#8516D1"/>
<path d="M4.52832 5.83733L7.50012 4.10852L10.4213 5.83732V9.07678L7.50012 10.7665L4.52832 9.07678V5.83733Z" fill="#1171BE"/>
<path d="M0.0393066 9.34956V5.51151L1.70889 4.52032L4.03931 5.83424V9.04988L1.70119 10.3547L0.0393066 9.34956Z" fill="#3BAA32"/>
<path d="M13.0073 1.94121V3.97132L10.8303 5.29525L8.00021 3.63391V1.0407L9.76848 0L13.0073 1.94121Z" fill="#D1048B"/>
<path d="M2 1.94121V3.97132L4.17703 5.29525L7.00711 3.63391V1.0407L5.23885 0L2 1.94121Z" fill="#2FBEEF"/>
</svg>
