<svg width="16" height="16" viewBox="0 0 16 16" fill="none" xmlns="http://www.w3.org/2000/svg">
<path d="M0.5 3.5H12.5V11C12.5 11.2761 12.2761 11.5 12 11.5H1C0.723858 11.5 0.5 11.2761 0.5 11V3.5Z" fill="var(--mw-icon-background-default-medium-gray, #D9D9D9)" stroke="var(--mw-icon-border-disabled-gray, #888888)"/>
<path d="M2.5 7.5H10.5M2.5 9.5H3.5M2.5 5.5H10.5" stroke="var(--mw-icon-glyph-disabled-gray, #888889)" stroke-linecap="square"/>
<path d="M0.5 1C0.5 0.723858 0.723858 0.5 1 0.5H12C12.2761 0.5 12.5 0.723858 12.5 1V3.5H0.5V1Z" fill="var(--mw-icon-background-default-dark-gray, #A6A6A6)" stroke="var(--mw-icon-border-disabled-gray, #888888)"/>
<path d="M4 1.5H9" stroke="var(--mw-icon-glyph-disabled-gray, #888889)"/>
<path d="M5.5 6.5C5.5 5.94772 5.94772 5.5 6.5 5.5H14.5C15.0523 5.5 15.5 5.94772 15.5 6.5V14.5C15.5 15.0523 15.0523 15.5 14.5 15.5H6.5C5.94772 15.5 5.5 15.0523 5.5 14.5V6.5Z" fill="var(--mw-icon-background-default-white, #FFFFFF)" stroke="var(--mw-icon-border-default-gray, #616161)"/>
<path d="M9 11.5L8.5 12.5M12 11.5L12.5 12.5M7 11L7.5 10.5M13.5 10.5L14 11M10.5 13V11.5" stroke="var(--mw-icon-glyph-content-gray, #616162)" stroke-linecap="round"/>
<path d="M13.5 9.5C13.5 9.5 13 11.5 10.5 11.5C8 11.5 7.5 9.5 7.5 9.5" stroke="var(--mw-icon-glyph-content-gray, #616162)" stroke-linecap="round"/>
</svg>
