<svg width="16" height="16" viewBox="0 0 16 16" fill="none" xmlns="http://www.w3.org/2000/svg">
<path d="M0.5 1.5C0.5 0.947715 0.947715 0.5 1.5 0.5H11.5C12.0523 0.5 12.5 0.947715 12.5 1.5V11.5C12.5 12.0523 12.0523 12.5 11.5 12.5H1.5C0.947715 12.5 0.5 12.0523 0.5 11.5V1.5Z" fill="var(--mw-icon-glyph-content-green, #008014)"/>
<path d="M2.5 0.5H10.5V12.5H2.5V0.5Z" fill="var(--mw-icon-glyph-disabled-gray, #888889)" stroke="var(--mw-icon-background-default-medium-gray, #D9D9D9)"/>
<path d="M6 2H7V4H6V2Z" fill="var(--mw-icon-background-default-white, #FFFFFF)"/>
<path d="M6 6H7V8H6V6Z" fill="white"/>
<path d="M6 10H7V12H6V10Z" fill="white"/>
<path d="M0.5 1.5C0.5 0.947715 0.947715 0.5 1.5 0.5H11.5C12.0523 0.5 12.5 0.947715 12.5 1.5V11.5C12.5 12.0523 12.0523 12.5 11.5 12.5H1.5C0.947715 12.5 0.5 12.0523 0.5 11.5V1.5Z" stroke="var(--mw-icon-border-default-gray, #616161)"/>
<path d="M5.5 6.5C5.5 5.94772 5.94772 5.5 6.5 5.5H14.5C15.0523 5.5 15.5 5.94772 15.5 6.5V14.5C15.5 15.0523 15.0523 15.5 14.5 15.5H6.5C5.94772 15.5 5.5 15.0523 5.5 14.5V6.5Z" fill="white" stroke="var(--mw-icon-border-default-gray, #616161)"/>
<path d="M9 11.5L8.5 12.5M12 11.5L12.5 12.5M7 11L7.5 10.5M13.5 10.5L14 11M10.5 13V11.5" stroke="var(--mw-icon-glyph-content-gray, #616162)" stroke-linecap="round"/>
<path d="M13.5 9.5C13.5 9.5 13 11.5 10.5 11.5C8 11.5 7.5 9.5 7.5 9.5" stroke="var(--mw-icon-glyph-content-gray, #616162)" stroke-linecap="round"/>
</svg>
