<svg width="16" height="16" viewBox="0 0 16 16" fill="none" xmlns="http://www.w3.org/2000/svg">
<path d="M3.5 2C3.5 1.72386 3.72386 1.5 4 1.5H11C11.2761 1.5 11.5 1.72386 11.5 2V9C11.5 9.27614 11.2761 9.5 11 9.5H4C3.72386 9.5 3.5 9.27614 3.5 9V2Z" fill="var(--mw-icon-background-default-white, #FFFFFF)" stroke="var(--mw-icon-border-default-gray, #616161)"/>
<rect x="4" y="2" width="7" height="1" fill="var(--mw-icon-background-default-dark-gray, #A6A6A6)"/>
<path d="M7.5 10.5V11.5M7.5 11.5H3.5V12.5M7.5 11.5L11.5 11.5V12.5" stroke="var(--mw-icon-object-primary, #616160)" stroke-linecap="square" stroke-linejoin="round"/>
<path d="M0.5 15.5V13.5H6.5V15.5H0.5Z" fill="var(--mw-icon-background-medium-blue, #83CAFF)"/>
<path d="M8.5 15.5V13.5H14.5V15.5H8.5Z" fill="var(--mw-icon-background-medium-blue, #83CAFF)"/>
<path d="M0.5 15.5V13.5H6.5V15.5H0.5Z" stroke="var(--mw-icon-border-default-blue, #1656A7)" stroke-linecap="square" stroke-linejoin="round"/>
<path d="M8.5 15.5V13.5H14.5V15.5H8.5Z" stroke="var(--mw-icon-border-default-blue, #1656A7)" stroke-linecap="square" stroke-linejoin="round"/>
</svg>
