<svg width="16" height="16" viewBox="0 0 16 16" fill="none" xmlns="http://www.w3.org/2000/svg">
<rect x="2" y="1" width="11" height="7" rx="1" fill="var(--mw-icon-background-default-highlight, #FFE864)"/>
<path d="M14.5 6C15.3284 6 16 5.32843 16 4.5C16 3.67157 15.3284 3 14.5 3V6ZM1.5 4.5V3C0.671573 3 0 3.67157 0 4.5H1.5ZM0 10.5V12H3V10.5H0ZM14.5 3H1.5V6H14.5V3ZM0 4.5V10.5H3V4.5H0Z" fill="var(--mw-icon-background-default-highlight, #FFE864)"/>
<path d="M1 4.25C1 4.11193 1.11193 4 1.25 4H15V5H1V4.25Z" fill="var(--mw-icon-glyph-content-yellow, #674C07)"/>
<rect x="3.5" y="2.5" width="8" height="4" fill="var(--mw-icon-background-medium-yellow, #FFEF91)" stroke="var(--mw-icon-glyph-content-yellow, #674C07)" stroke-linejoin="round"/>
<path d="M1 4.25C1 4.11193 1.11193 4 1.25 4H2V6H1V4.25Z" fill="var(--mw-icon-glyph-content-yellow, #674C07)"/>
<rect x="1" y="7" width="1" height="2" fill="var(--mw-icon-glyph-content-yellow, #674C07)"/>
<rect x="1" y="10" width="1" height="2" fill="var(--mw-icon-glyph-content-yellow, #674C07)"/>
<rect y="11" width="15" height="1" fill="var(--mw-icon-border-disabled-gray, #888888)"/>
<rect x="3.5" y="9.5" width="8" height="4" fill="var(--mw-icon-background-default-medium-gray, #D9D9D9)" stroke="var(--mw-icon-border-disabled-gray, #888888)" stroke-linejoin="round"/>
</svg>
