<svg width="16" height="16" viewBox="0 0 16 16" fill="none" xmlns="http://www.w3.org/2000/svg">
<path d="M0.5 2.5C0.5 1.39543 1.39543 0.5 2.5 0.5H13.5C14.6046 0.5 15.5 1.39543 15.5 2.5V13.5C15.5 14.6046 14.6046 15.5 13.5 15.5H2.5C1.39543 15.5 0.5 14.6046 0.5 13.5V2.5Z" fill="var(--mw-icon-background-default-white, #FFFFFF)"/>
<path d="M12.5 5.5H15.5V13.5C15.5 14.6046 14.6046 15.5 13.5 15.5H5.5L1 14.5H5.5V12.5C5.5 8.63401 8.63401 5.5 12.5 5.5Z" fill="#4DBEEE" stroke="#0072BD"/>
<path d="M0.5 2.5C0.5 1.39543 1.39543 0.5 2.5 0.5H13.5C14.6046 0.5 15.5 1.39543 15.5 2.5V13.5C15.5 14.6046 14.6046 15.5 13.5 15.5H2.5C1.39543 15.5 0.5 14.6046 0.5 13.5V2.5Z" stroke="var(--mw-icon-border-default-gray, #616161)" stroke-linejoin="round"/>
</svg>
