<svg width="16" height="16" viewBox="0 0 16 16" fill="none" xmlns="http://www.w3.org/2000/svg">
<path d="M0.5 2.5C0.5 1.39543 1.39543 0.5 2.5 0.5H13.5C14.6046 0.5 15.5 1.39543 15.5 2.5V13.5C15.5 14.6046 14.6046 15.5 13.5 15.5H2.5C1.39543 15.5 0.5 14.6046 0.5 13.5V2.5Z" fill="var(--mw-icon-background-default-white, #FFFFFF)"/>
<line x1="2" y1="10.5" x2="4" y2="10.5" stroke="var(--mw-icon-glyph-content-dark-gray, #333333)"/>
<line x1="9.5" y1="11" x2="9.5" y2="9" stroke="var(--mw-icon-glyph-disabled-gray, #888889)"/>
<line x1="9.5" y1="15" x2="9.5" y2="13" stroke="var(--mw-icon-glyph-disabled-gray, #888889)"/>
<line x1="9.5" y1="7" x2="9.5" y2="5" stroke="var(--mw-icon-glyph-disabled-gray, #888889)"/>
<line x1="9.5" y1="3" x2="9.5" y2="1" stroke="var(--mw-icon-glyph-disabled-gray, #888889)"/>
<line x1="1" y1="3.5" x2="9" y2="3.5" stroke="#0072BD"/>
<line x1="10" y1="12.5" x2="15" y2="12.5" stroke="#0072BD"/>
<circle cx="12.5" cy="2.5" r="0.5" fill="var(--mw-icon-glyph-content-dark-gray, #333333)"/>
<path d="M12.5 4V6.5V6.5C12.5 7.05228 12.0523 7.5 11.5 7.5H11" stroke="var(--mw-icon-glyph-content-dark-gray, #333333)"/>
<circle cx="5.5" cy="8.5" r="0.5" fill="var(--mw-icon-glyph-content-dark-gray, #333333)"/>
<path d="M5.5 10V12.5V12.5C5.5 13.0523 5.05228 13.5 4.5 13.5H4" stroke="var(--mw-icon-glyph-content-dark-gray, #333333)"/>
<path d="M0.5 2.5C0.5 1.39543 1.39543 0.5 2.5 0.5H13.5C14.6046 0.5 15.5 1.39543 15.5 2.5V13.5C15.5 14.6046 14.6046 15.5 13.5 15.5H2.5C1.39543 15.5 0.5 14.6046 0.5 13.5V2.5Z" stroke="var(--mw-icon-border-default-gray, #616161)" stroke-linejoin="round"/>
</svg>
