<svg width="16" height="16" viewBox="0 0 16 16" fill="none" xmlns="http://www.w3.org/2000/svg">
<rect x="0.5" y="0.5" width="14" height="14" rx="1" fill="var(--mw-icon-background-default-white, #FFFFFF)"/>
<path d="M3.5 7.5H5.5V14.5H3.5V7.5Z" fill="var(--mw-icon-background-default-selection, #B4DEFF)"/>
<path d="M7.5 5.5H9.5V14.5H7.5V5.5Z" fill="var(--mw-icon-background-default-selection, #B4DEFF)"/>
<path d="M9.5 10.5H11.5V14.5H9.5V10.5Z" fill="var(--mw-icon-background-default-selection, #B4DEFF)"/>
<path d="M5.5 3.5H7.5V14.5H5.5V3.5Z" fill="var(--mw-icon-background-default-selection, #B4DEFF)"/>
<path d="M5.5 14.5V7.5H3.5V14.5H5.5ZM5.5 14.5H7.5M5.5 14.5V3.5H7.5V14.5M9.5 14.5V5.5H7.5V14.5M9.5 14.5H7.5M9.5 14.5H11.5V10.5H9.5V14.5Z" stroke="var(--mw-icon-border-default-blue, #1656A7)" stroke-linejoin="round"/>
<rect x="0.5" y="0.5" width="14" height="14" rx="1" stroke="var(--mw-icon-border-default-gray, #616161)"/>
</svg>
