<svg width="16" height="16" viewBox="0 0 16 16" fill="none" xmlns="http://www.w3.org/2000/svg">
<path d="M0.5 2.5H12.5V10C12.5 10.2761 12.2761 10.5 12 10.5H1C0.723858 10.5 0.5 10.2761 0.5 10V2.5Z" fill="var(--mw-icon-background-default-white, #FFFFFF)" stroke="var(--mw-icon-border-default-gray, #616161)"/>
<path d="M0.5 1C0.5 0.723858 0.723858 0.5 1 0.5H12C12.2761 0.5 12.5 0.723858 12.5 1V2.5H0.5V1Z" fill="var(--mw-icon-background-default-selection, #B4DEFF)" stroke="var(--mw-icon-border-default-blue, #1656A7)"/>
<path d="M4 8H10V9H4V8Z" fill="var(--mw-icon-glyph-content-gray, #616162)"/>
<path d="M4 6H9V7H4V6Z" fill="var(--mw-icon-glyph-content-gray, #616162)"/>
<path d="M10.5 5H11V4H10.5V5ZM4.5 4H4V5H4.5V4ZM2 5H3V4H2V5ZM10.5 4H4.5V5H10.5V4Z" fill="var(--mw-icon-glyph-content-red, #902623)"/>
<circle cx="10.5" cy="10.5" r="5" fill="white" stroke="var(--mw-icon-border-default-gray, #616161)"/>
<path d="M10.5 7.5V10.4999H13.5" stroke="var(--mw-icon-glyph-content-gray, #616162)" stroke-linecap="square"/>
</svg>
