<svg width="16" height="16" viewBox="0 0 16 16" fill="none" xmlns="http://www.w3.org/2000/svg">
<path d="M2.5 10.5L0.5 12.5L2.5 14.5M1 12.5H15M13.5 10.5L15.5 12.5L13.5 14.5" stroke="var(--mw-icon-object-primary, #616160)" stroke-linecap="round" stroke-linejoin="round"/>
<path d="M5.5 4.5H7.5M7.5 4.5V6.5H9.5M7.5 4.5V2.5H9.5" stroke="var(--mw-icon-glyph-disabled-gray, #888889)" stroke-linecap="square" stroke-linejoin="round"/>
<path d="M10.5 3.5L10.5 1.5L14.5 1.5V3.5H10.5Z" fill="var(--mw-icon-background-medium-yellow, #FFEF91)"/>
<path d="M10.5 7.5L10.5 5.5H14.5V7.5H10.5Z" fill="var(--mw-icon-background-medium-yellow, #FFEF91)"/>
<path d="M10.5 3.5L10.5 1.5L14.5 1.5V3.5H10.5Z" stroke="#674C06" stroke-linecap="square" stroke-linejoin="round"/>
<path d="M10.5 7.5L10.5 5.5H14.5V7.5H10.5Z" stroke="#674C06" stroke-linecap="square" stroke-linejoin="round"/>
<path d="M4.5 5.5H0.5V3.5H4.5V5.5Z" fill="var(--mw-icon-background-default-selection, #B4DEFF)" stroke="var(--mw-icon-border-default-blue, #1656A7)" stroke-linecap="square" stroke-linejoin="round"/>
</svg>
