<svg width="16" height="16" viewBox="0 0 16 16" fill="none" xmlns="http://www.w3.org/2000/svg">
<path d="M3.5 1.5L3.5 13.5C3.5 14.0523 3.94772 14.5 4.5 14.5L14.5 14.5C15.0523 14.5 15.5 14.0523 15.5 13.5L15.5 3.91421C15.5 3.649 15.3946 3.39464 15.2071 3.20711L12.7929 0.792893C12.6054 0.605356 12.351 0.499999 12.0858 0.499999L4.5 0.5C3.94771 0.5 3.5 0.947716 3.5 1.5Z" fill="var(--mw-icon-background-default-white, #FFFFFF)" stroke="var(--mw-icon-border-default-gray, #616161)"/>
<path d="M13.5767 7.09473V7.90039H11.1216V7.09473H13.5767ZM12.7739 5.9668V9.07227H11.936V5.9668H12.7739Z" fill="var(--mw-icon-glyph-content-gray, #616162)"/>
<path d="M10.7583 7.09473V7.90039H8.30322V7.09473H10.7583ZM9.95557 5.9668V9.07227H9.11768V5.9668H9.95557Z" fill="var(--mw-icon-glyph-content-gray, #616162)"/>
<path d="M6.31396 5V9.5H5.42334V5H6.31396ZM6.19678 7.80664L5.97998 7.8125C5.97607 7.58984 5.99658 7.38477 6.0415 7.19727C6.08838 7.00977 6.15479 6.84668 6.24072 6.70801C6.32666 6.56934 6.43115 6.46191 6.5542 6.38574C6.67725 6.30957 6.81299 6.27148 6.96143 6.27148C7.09229 6.27148 7.2124 6.29395 7.32178 6.33887C7.43115 6.38379 7.5249 6.45508 7.60303 6.55273C7.68311 6.65039 7.74463 6.77832 7.7876 6.93652C7.83252 7.09473 7.85498 7.28809 7.85498 7.5166V9.5H6.96143V7.51074C6.96143 7.37793 6.94775 7.27441 6.92041 7.2002C6.89502 7.12402 6.85693 7.07129 6.80615 7.04199C6.75732 7.01074 6.69482 6.99512 6.61865 6.99512C6.53271 6.99512 6.4624 7.0166 6.40771 7.05957C6.35303 7.10059 6.31006 7.15723 6.27881 7.22949C6.24756 7.30176 6.22607 7.3877 6.21436 7.4873C6.20264 7.58496 6.19678 7.69141 6.19678 7.80664Z" fill="var(--mw-icon-glyph-content-gray, #616162)"/>
</svg>
