<svg width="16" height="16" viewBox="0 0 16 16" fill="none" xmlns="http://www.w3.org/2000/svg">
<path d="M0.5 10.5V2.5C0.5 1.94772 0.947715 1.5 1.5 1.5H11.5C12.0523 1.5 12.5 1.94772 12.5 2.5V10.5C12.5 11.0523 12.0523 11.5 11.5 11.5H1.5C0.947715 11.5 0.5 11.0523 0.5 10.5Z" fill="var(--mw-icon-background-default-medium-gray, #D9D9D9)" stroke="var(--mw-icon-border-default-gray, #616161)" stroke-linecap="square"/>
<path d="M3.5 13.5V5.5C3.5 4.94772 3.94772 4.5 4.5 4.5H14.5C15.0523 4.5 15.5 4.94772 15.5 5.5V13.5C15.5 14.0523 15.0523 14.5 14.5 14.5H4.5C3.94772 14.5 3.5 14.0523 3.5 13.5Z" fill="var(--mw-icon-background-default-white, #FFFFFF)" stroke="var(--mw-icon-border-default-gray, #616161)" stroke-linecap="square"/>
<path d="M5.5 12.5V6.5H13.5V12.5H5.5Z" fill="white" stroke="var(--mw-icon-glyph-content-gray, #616162)" stroke-linecap="square" stroke-linejoin="round"/>
<path d="M5.12835 9.16555C4.94362 9.3708 4.96026 9.68695 5.16552 9.87168C5.37077 10.0564 5.68692 10.0398 5.87165 9.83451L5.12835 9.16555ZM6.5 8.38892L6.95187 8.17487C6.88027 8.02372 6.73784 7.91838 6.57236 7.89418C6.40687 7.86998 6.24024 7.93012 6.12835 8.05443L6.5 8.38892ZM7.5 10.5L7.04813 10.7141C7.11774 10.861 7.25445 10.9649 7.41466 10.9927C7.57488 11.0204 7.73858 10.9686 7.85355 10.8536L7.5 10.5ZM8.5 9.50003L8.85355 9.14647C8.75979 9.05271 8.63261 9.00003 8.5 9.00003C8.36739 9.00003 8.24021 9.05271 8.14645 9.14647L8.5 9.50003ZM10.5 11.5L10.1464 11.8536C10.2402 11.9474 10.3674 12 10.5 12V11.5ZM13.5 12H14V11H13.5V12ZM5.87165 9.83451L6.87165 8.7234L6.12835 8.05443L5.12835 9.16555L5.87165 9.83451ZM6.04813 8.60296L7.04813 10.7141L7.95187 10.286L6.95187 8.17487L6.04813 8.60296ZM7.85355 10.8536L8.85355 9.85358L8.14645 9.14647L7.14645 10.1465L7.85355 10.8536ZM8.14645 9.85358L10.1464 11.8536L10.8536 11.1465L8.85355 9.14647L8.14645 9.85358ZM10.5 12H13.5V11H10.5V12Z" fill="var(--mw-icon-glyph-content-gray, #616162)"/>
<circle cx="11.5" cy="8.5" r="1" fill="white" stroke="var(--mw-icon-glyph-content-gray, #616162)"/>
</svg>
