<svg width="16" height="16" viewBox="0 0 16 16" fill="none" xmlns="http://www.w3.org/2000/svg">
<path d="M15 0.5H1C0.723858 0.5 0.5 0.723858 0.5 1V15C0.5 15.2761 0.723858 15.5 1 15.5H15C15.2761 15.5 15.5 15.2761 15.5 15V1C15.5 0.723858 15.2761 0.5 15 0.5Z" fill="var(--mw-icon-object-secondary, #FFFFFE)" stroke="var(--mw-icon-object-primary, #616160)" stroke-linecap="round"/>
<path d="M2 5V2H5L2 5Z" fill="var(--mw-icon-object-primary, #616160)"/>
<path d="M2 10V7L7 2H10L2 10Z" fill="var(--mw-icon-object-primary, #616160)"/>
<path d="M9 14H6.2L14 6V9L9 14Z" fill="var(--mw-icon-object-primary, #616160)"/>
<path d="M14 11V14H11L14 11Z" fill="var(--mw-icon-object-primary, #616160)"/>
<path d="M4 14H2V12L12 2H14V4L4 14Z" fill="var(--mw-icon-object-primary, #616160)"/>
</svg>
