<svg width="16" height="16" viewBox="0 0 16 16" fill="none" xmlns="http://www.w3.org/2000/svg">
<path d="M0.5 11.5V1.5H12.5V11.5H0.5Z" fill="var(--mw-icon-background-default-white, #FFFFFF)" stroke="var(--mw-icon-glyph-content-gray, #616162)" stroke-linecap="square" stroke-linejoin="round"/>
<circle cx="9" cy="5" r="1.5" stroke="var(--mw-icon-glyph-content-gray, #616162)"/>
<path d="M11.5 8.5H7.5L5.5 6.5L4.5 7.5L2.5 5.5L1 7" stroke="var(--mw-icon-glyph-content-gray, #616162)" stroke-linecap="square" stroke-linejoin="round"/>
<path d="M9.5 15V9.58114C9.5 9.5274 9.50866 9.47401 9.52566 9.42302L10.386 6.84189C10.4541 6.63772 10.6452 6.5 10.8604 6.5H14.1396C14.3548 6.5 14.5459 6.63772 14.614 6.84189L15.4743 9.42302C15.4913 9.47401 15.5 9.5274 15.5 9.58114V15C15.5 15.2761 15.2761 15.5 15 15.5H10C9.72386 15.5 9.5 15.2761 9.5 15Z" fill="var(--mw-icon-background-default-selection, #B4DEFF)" stroke="var(--mw-icon-glyph-content-blue, #1656A8)" stroke-linejoin="round"/>
<path d="M11.5 13.5L12.5 10.5L13.5 13.5M12 12.5H13" stroke="var(--mw-icon-glyph-content-blue, #1656A8)" stroke-linecap="round" stroke-linejoin="round"/>
<path d="M13 8.5C13 8.77614 12.7761 9 12.5 9C12.2238 9 12 8.77614 12 8.5C12 8.22386 12.2238 8 12.5 8C12.7761 8 13 8.22386 13 8.5Z" fill="var(--mw-icon-glyph-content-blue, #1656A8)"/>
</svg>
