<svg width="16" height="16" viewBox="0 0 16 16" fill="none" xmlns="http://www.w3.org/2000/svg">
<path d="M0.5 12.5V2.5C0.5 1.39543 1.39543 0.5 2.5 0.5H12.5C13.6046 0.5 14.5 1.39543 14.5 2.5V12.5C14.5 13.6046 13.6046 14.5 12.5 14.5H2.5C1.39543 14.5 0.5 13.6046 0.5 12.5Z" fill="var(--mw-icon-background-default-selection, #B4DEFF)"/>
<path d="M1.79545 9.99296C1.47727 10.1479 0.159091 9.83803 0 9.52817L0.663315 12.4944C0.869704 13.4173 1.57923 14.1448 2.49672 14.3742L3 14.5H11.9645C12.6275 14.5 13.2634 14.2366 13.7322 13.7678L14.5 13L15 10.3028C14.4697 9.47653 13.2182 7.82394 12.4545 7.82394C11.6909 7.82394 10.5985 9.88967 10.0682 10.9225C9.00758 9.11502 6.88636 5.5 5.29545 5.5C3.54545 5.5 2.22234 9.7851 1.79545 9.99296Z" fill="var(--mw-icon-glyph-content-green, #008014)"/>
<mask id="path-3-inside-1_822_4508" fill="var(--mw-icon-background-default-white, white)">
<rect x="6" y="2" width="7" height="7" rx="0.5"/>
</mask>
<rect x="6" y="2" width="7" height="7" rx="0.5" fill="var(--mw-icon-background-default-selection, #B4DEFF)" stroke="var(--mw-icon-glyph-content-dark-blue, #104280)" stroke-width="2" mask="url(#path-3-inside-1_822_4508)"/>
<circle cx="9.5" cy="5.5" r="1.5" fill="#FF453A"/>
<path d="M0.5 12.5V2.5C0.5 1.39543 1.39543 0.5 2.5 0.5H12.5C13.6046 0.5 14.5 1.39543 14.5 2.5V12.5C14.5 13.6046 13.6046 14.5 12.5 14.5H2.5C1.39543 14.5 0.5 13.6046 0.5 12.5Z" stroke="var(--mw-icon-border-default-gray, #616161)" stroke-linecap="round"/>

</svg>
