<svg width="16" height="16" viewBox="0 0 16 16" fill="none" xmlns="http://www.w3.org/2000/svg">
<path d="M5 3.5V3H6V3.5H5ZM2.5 4.5H2C2 4.22386 2.22386 4 2.5 4V4.5ZM3 5.5V6H2V5.5H3ZM8.5 4.5V4C8.77614 4 9 4.22386 9 4.5H8.5ZM9 5.5V6H8V5.5H9ZM6 3.5V4.5H5V3.5H6ZM5.5 5H2.5V4H5.5V5ZM3 4.5V5.5H2V4.5H3ZM5.5 4H8.5V5H5.5V4ZM9 4.5V5.5H8V4.5H9Z" fill="var(--mw-icon-glyph-disabled-gray, #888889)"/>
<path d="M0.5 8.5V6.5H4.5V8.5H0.5Z" fill="var(--mw-icon-background-medium-yellow, #FFEF91)"/>
<path d="M6.5 8.5V6.5H10.5V8.5H6.5Z" fill="var(--mw-icon-background-medium-yellow, #FFEF91)"/>
<path d="M0.5 8.5V6.5H4.5V8.5H0.5Z" stroke="#674C06" stroke-linecap="square" stroke-linejoin="round"/>
<path d="M6.5 8.5V6.5H10.5V8.5H6.5Z" stroke="#674C06" stroke-linecap="square" stroke-linejoin="round"/>
<path d="M3.5 2.5V0.5H7.5V2.5H3.5Z" fill="var(--mw-icon-background-default-selection, #B4DEFF)" stroke="var(--mw-icon-border-default-blue, #1656A7)" stroke-linecap="square" stroke-linejoin="round"/>
<mask id="path-4-inside-1_14740_34616" fill="var(--mw-icon-background-default-white, #FFFFFF)">
<path d="M12.7782 5L8.22183 5L5 8.22183V12.7782L8.22183 16H12.7782L16 12.7782L16 8.22183L12.7782 5Z"/>
</mask>
<path d="M12.7782 5L8.22183 5L5 8.22183V12.7782L8.22183 16H12.7782L16 12.7782L16 8.22183L12.7782 5Z" fill="var(--mw-icon-alert-red, #B7313C)" stroke="var(--mw-icon-alert-red, #B7313C)" stroke-width="2" mask="url(#path-4-inside-1_14740_34616)"/>
<path d="M11 8H10V11H11V8Z" fill="white"/>
<path d="M11 12H10V13H11V12Z" fill="white"/>
</svg>
