<svg width="16" height="16" viewBox="0 0 16 16" fill="none" xmlns="http://www.w3.org/2000/svg">
<path d="M11.5 0.5H1.5C0.947715 0.5 0.5 0.947715 0.5 1.5V11.5C0.5 12.0523 0.947715 12.5 1.5 12.5H11.5C12.0523 12.5 12.5 12.0523 12.5 11.5V1.5C12.5 0.947715 12.0523 0.5 11.5 0.5Z" fill="var(--mw-icon-background-default-white, #FFFFFF)" stroke="var(--mw-icon-border-default-gray, #616161)"/>
<path d="M4.5 2.5H8.5C8.63455 2.50002 7.6829 3.15174 6.5 4.06058C8.24763 5.40332 10.5 7.30728 10.5 8.49998C10.5 10.5 9 10.5 8.57407 10.5H4.72222C4.44444 10.5 2.5 10.5 2.5 8.49998C2.5 7.30728 4.75237 5.40332 6.5 4.06058C5.31711 3.15174 4.36545 2.50002 4.5 2.5Z" fill="var(--mw-icon-background-default-dark-gray, #A6A6A6)" stroke="var(--mw-icon-glyph-content-dark-gray, #333333)"/>
<path d="M5.5 6.5C5.5 5.94772 5.94772 5.5 6.5 5.5H14.5C15.0523 5.5 15.5 5.94772 15.5 6.5V14.5C15.5 15.0523 15.0523 15.5 14.5 15.5H6.5C5.94772 15.5 5.5 15.0523 5.5 14.5V6.5Z" fill="white"/>
<path d="M9.5 10.5L7.5 10.5L10.5 14.5L13.5 10.5H11.5V10C11.5 8.61929 10.3807 7.5 9 7.5L6 7.5C7.53679 7.5 9.5 9.02724 9.5 10.5Z" fill="var(--mw-icon-background-default-action, #CBFFBE)" stroke="var(--mw-icon-glyph-content-green, #008014)" stroke-linecap="square"/>
<path d="M5.5 6.5C5.5 5.94772 5.94772 5.5 6.5 5.5H14.5C15.0523 5.5 15.5 5.94772 15.5 6.5V14.5C15.5 15.0523 15.0523 15.5 14.5 15.5H6.5C5.94772 15.5 5.5 15.0523 5.5 14.5V6.5Z" stroke="var(--mw-icon-border-default-gray, #616161)"/>
</svg>
