<svg width="16" height="16" viewBox="0 0 16 16" fill="none" xmlns="http://www.w3.org/2000/svg">
<path d="M0.5 15V10C0.5 9.72386 0.723858 9.5 1 9.5H15C15.2761 9.5 15.5 9.72386 15.5 10V15C15.5 15.2761 15.2761 15.5 15 15.5H1C0.723858 15.5 0.5 15.2761 0.5 15Z" fill="var(--mw-icon-background-default-light-gray, #F5F5F5)" stroke="var(--mw-icon-border-default-gray, #616161)"/>
<circle cx="13" cy="12" r="1" fill="var(--mw-icon-glyph-content-green, #008014)"/>
<path d="M6.5 5.5H2.5L8 12.5L13.5 5.5H9.5V4.5C9.5 2.29086 7.70914 0.5 5.5 0.5H2C4.48528 0.5 6.5 2.51472 6.5 5V5.5Z" fill="var(--mw-icon-background-default-action, #CBFFBE)" stroke="var(--mw-icon-border-default-green, #008013)" stroke-linecap="square"/>
<path d="M4.24054 13.156H4.99495C4.97982 13.4178 4.91169 13.6503 4.79058 13.8534C4.67115 14.0564 4.50378 14.215 4.28848 14.329C4.07485 14.443 3.81749 14.5 3.5164 14.5C3.28091 14.5 3.06981 14.4572 2.8831 14.3717C2.69638 14.2845 2.53659 14.1598 2.4037 13.9977C2.2725 13.8356 2.17241 13.6396 2.10345 13.4098C2.03448 13.18 2 12.9226 2 12.6376V12.3677C2 12.0827 2.03532 11.8253 2.10597 11.5955C2.1783 11.364 2.28091 11.1671 2.41379 11.005C2.54836 10.8429 2.709 10.7182 2.89571 10.6309C3.08242 10.5436 3.291 10.5 3.52145 10.5C3.82759 10.5 4.08579 10.5588 4.29605 10.6764C4.50799 10.7939 4.67199 10.956 4.78806 11.1627C4.9058 11.3693 4.97645 11.6044 5 11.8681H4.24306C4.23465 11.7113 4.20521 11.5786 4.15475 11.4699C4.10429 11.3595 4.02775 11.2767 3.92515 11.2214C3.82422 11.1644 3.68966 11.1359 3.52145 11.1359C3.39529 11.1359 3.28511 11.1609 3.19092 11.2108C3.09672 11.2606 3.01766 11.3363 2.95374 11.4379C2.88982 11.5394 2.84188 11.6677 2.80992 11.8226C2.77965 11.9758 2.76451 12.1558 2.76451 12.3624V12.6376C2.76451 12.8389 2.77881 13.0161 2.8074 13.1693C2.836 13.3208 2.87973 13.449 2.9386 13.5541C2.99916 13.6574 3.07653 13.7358 3.17073 13.7892C3.26661 13.8409 3.38183 13.8667 3.5164 13.8667C3.67452 13.8667 3.80488 13.84 3.90749 13.7866C4.01009 13.7331 4.08831 13.6539 4.14214 13.5488C4.19765 13.4437 4.23045 13.3127 4.24054 13.156Z" fill="var(--mw-icon-glyph-content-gray, #616162)"/>
</svg>
