<svg width="16" height="16" viewBox="0 0 16 16" fill="none" xmlns="http://www.w3.org/2000/svg">
<path d="M0.5 8.5L6.49997 5.5L12.5 8.5L6.49997 11.5L0.5 8.5Z" fill="var(--mw-icon-background-default-light-gray, #F5F5F5)" stroke="var(--mw-icon-border-default-gray, #616161)" stroke-linejoin="round"/>
<path d="M0.5 6.5L6.49997 3.5L12.5 6.5L6.49997 9.5L0.5 6.5Z" fill="var(--mw-icon-background-default-light-gray, #F5F5F5)" stroke="var(--mw-icon-border-default-gray, #616161)" stroke-linejoin="round"/>
<path d="M0.5 4.5L6.49997 1.5L12.5 4.5L6.49997 7.5L0.5 4.5Z" fill="var(--mw-icon-background-default-selection, #B4DEFF)" stroke="var(--mw-icon-border-default-blue, #1656A7)" stroke-linejoin="round"/>
<path d="M5.5 6.5C5.5 5.94772 5.94772 5.5 6.5 5.5H14.5C15.0523 5.5 15.5 5.94772 15.5 6.5V14.5C15.5 15.0523 15.0523 15.5 14.5 15.5H6.5C5.94772 15.5 5.5 15.0523 5.5 14.5V6.5Z" fill="var(--mw-icon-background-default-white, #FFFFFF)"/>
<path d="M9.5 10.5L7.5 10.5L10.5 14.5L13.5 10.5H11.5V10C11.5 8.61929 10.3807 7.5 9 7.5L6 7.5C7.53679 7.5 9.5 9.02724 9.5 10.5Z" fill="var(--mw-icon-background-default-action, #CBFFBE)" stroke="var(--mw-icon-glyph-content-green, #008014)" stroke-linecap="square"/>
<path d="M5.5 6.5C5.5 5.94772 5.94772 5.5 6.5 5.5H14.5C15.0523 5.5 15.5 5.94772 15.5 6.5V14.5C15.5 15.0523 15.0523 15.5 14.5 15.5H6.5C5.94772 15.5 5.5 15.0523 5.5 14.5V6.5Z" stroke="var(--mw-icon-border-default-gray, #616161)"/>
</svg>
