<svg width="16" height="16" viewBox="0 0 16 16" fill="none" xmlns="http://www.w3.org/2000/svg">
<path d="M0.5 15V10C0.5 9.72386 0.723858 9.5 1 9.5H15C15.2761 9.5 15.5 9.72386 15.5 10V15C15.5 15.2761 15.2761 15.5 15 15.5H1C0.723858 15.5 0.5 15.2761 0.5 15Z" fill="var(--mw-icon-background-default-light-gray, #F5F5F5)" stroke="var(--mw-icon-border-default-gray, #616161)"/>
<circle cx="13" cy="12" r="1" fill="var(--mw-icon-glyph-content-green, #008014)"/>
<path d="M6.5 5.5H2.5L8 12.5L13.5 5.5H9.5V4.5C9.5 2.29086 7.70914 0.5 5.5 0.5H2C4.48528 0.5 6.5 2.51472 6.5 5V5.5Z" fill="var(--mw-icon-background-default-action, #CBFFBE)" stroke="var(--mw-icon-border-default-green, #008013)" stroke-linecap="square"/>
<path d="M5 12.4132V13.9549C4.94281 14.0279 4.8545 14.1072 4.73507 14.1927C4.61564 14.2764 4.46173 14.3486 4.27334 14.4092C4.08495 14.4697 3.85702 14.5 3.58957 14.5C3.3524 14.5 3.13625 14.459 2.94113 14.3771C2.74601 14.2934 2.5778 14.1713 2.4365 14.011C2.29689 13.8507 2.18923 13.6548 2.11354 13.4232C2.03785 13.1898 2 12.9235 2 12.6242V12.3811C2 12.0818 2.03616 11.8155 2.10849 11.5822C2.18251 11.3488 2.28764 11.152 2.42389 10.9916C2.56013 10.8313 2.72246 10.7093 2.91085 10.6256C3.09924 10.5419 3.30866 10.5 3.53911 10.5C3.8587 10.5 4.12111 10.5552 4.32632 10.6657C4.53154 10.7743 4.68797 10.9257 4.79563 11.1199C4.90496 11.3123 4.97225 11.5332 4.99748 11.7826H4.26325C4.24474 11.6507 4.20942 11.5358 4.15727 11.4379C4.10513 11.3399 4.03028 11.2633 3.93272 11.2081C3.83684 11.1529 3.71236 11.1253 3.55929 11.1253C3.43314 11.1253 3.32044 11.1529 3.22119 11.2081C3.12363 11.2615 3.04121 11.3408 2.97393 11.4459C2.90664 11.551 2.85534 11.681 2.82002 11.836C2.78469 11.991 2.76703 12.1709 2.76703 12.3758V12.6242C2.76703 12.8273 2.78553 13.0072 2.82254 13.164C2.85955 13.319 2.91421 13.4499 2.98654 13.5568C3.06056 13.6619 3.15139 13.7411 3.25904 13.7946C3.36669 13.848 3.49201 13.8747 3.63499 13.8747C3.75442 13.8747 3.85366 13.8641 3.93272 13.8427C4.01346 13.8213 4.07822 13.7955 4.127 13.7652C4.17746 13.7331 4.21615 13.7029 4.24306 13.6743V12.985H3.55172V12.4132H5Z" fill="var(--mw-icon-glyph-content-gray, #616162)"/>
</svg>
