<svg width="16" height="16" viewBox="0 0 16 16" fill="none" xmlns="http://www.w3.org/2000/svg">
<path d="M0.5 6.5L6.5 10.5L12.5 6.5L6.5 2.5L0.5 6.5Z" fill="#3BAA32" stroke="var(--mw-icon-glyph-content-green, #008014)" stroke-linejoin="round"/>
<path d="M4.02899 6.62662C4.22809 6.75948 5.11585 6.7168 5.14388 6.7787C5.25979 7.03469 4.38852 7.1422 4.17349 7.29728C4.10488 7.34675 3.68251 7.18191 3.60851 7.19726C3.22259 7.27731 3.59299 7.44824 3.19463 7.60769C2.42123 7.91726 1.74624 6.77499 1.34009 6.8414L0.7146 6.36328C1.2198 6.4885 2.06535 6.90476 2.35959 6.8414C2.72305 6.76314 3.92285 6.62662 4.02899 6.62662Z" fill="#49DB40"/>
<path d="M7.23826 8.65787C7.43736 8.79072 8.32512 8.74804 8.35315 8.80995C8.46906 9.06594 8.16986 9.10455 7.95482 9.25962C7.88622 9.3091 7.53607 9.53979 7.46207 9.55514C7.07615 9.6352 6.8312 10.1257 6.51306 10.1257C6.16748 10.1257 5.39981 9.37843 4.56545 8.87265L4.29944 8.70026C4.80464 8.82548 5.27462 8.936 5.56886 8.87265C5.93232 8.79439 7.13211 8.65787 7.23826 8.65787Z" fill="#49DB40"/>
<path d="M9.25033 4.90926L8.84491 4.6441L8.52318 4.53909C8.2895 4.58378 7.05176 3.61899 6.9249 3.65298C6.73066 3.70501 6.40423 4.31208 5.73819 4.11009C5.29945 4.28348 4.79008 4.11009 4.771 4.11009C4.75193 4.11009 3.57229 4.35818 3.26549 4.2831L2.1321 4.85347L1.75439 5.21155L2.0141 6.09492L3.91144 6.71865C4.28818 6.74725 5.07413 6.76412 5.1161 6.76412C5.15806 6.76412 4.5803 7.80312 4.97194 8.1707C5.36358 8.53829 5.85776 8.19758 5.99328 8.1707C6.13119 8.14335 6.95803 8.73354 7.32909 8.50941C7.70015 8.28528 7.56822 7.92525 8.17018 7.63796C8.59705 7.43424 8.96975 7.63796 9.35762 7.63796C9.35762 7.63796 10.3988 8.25107 10.5538 7.80312C10.5823 7.72082 10.1127 5.86573 10.026 5.73276C9.9158 5.56382 9.71779 5.32329 9.71779 5.32329L9.25033 4.90926Z" fill="var(--mw-icon-border-default-green, #008013)"/>
<path d="M6.98475 8.43262C6.82251 8.20913 6.72608 8.11514 6.59495 7.96769C6.46382 7.82023 6.27566 7.75712 6.04052 7.75954C5.73366 7.7627 5.34014 7.62062 5.21902 7.74347C5.1274 7.83639 4.166 8.42643 4.29097 8.68433C4.35361 8.8136 4.98439 8.80317 5.33335 8.93838C5.67489 9.0707 6.06087 9.59577 6.2577 9.58004C6.51811 9.55923 6.90063 9.14074 7.1784 9.04641C7.45618 8.95208 7.62634 9.08838 7.68354 9.04641C7.74073 9.00444 7.14699 8.65611 6.98475 8.43262Z" fill="#ABC739"/>
<path d="M3.43406 6.13903C3.27182 5.91554 3.17539 5.82155 3.04426 5.6741C2.91313 5.52664 2.72497 5.46353 2.48983 5.46595C2.18296 5.46911 1.82288 5.57782 1.70175 5.70067C1.61014 5.79359 0.67096 6.36917 0.705884 6.36917C0.8368 6.36917 1.44482 6.6424 1.79378 6.77761C2.13531 6.90993 2.51018 7.30218 2.707 7.28645C2.96742 7.26564 3.34994 6.84715 3.62771 6.75282C3.90548 6.65849 4.07565 6.79479 4.13285 6.75282C4.19004 6.71085 3.5963 6.36252 3.43406 6.13903Z" fill="#ABC739"/>
<path d="M6.22745 7.62802C6.39707 7.69946 6.5711 7.89002 6.61272 7.99683C6.66772 8.13799 6.41295 7.93682 6.22745 7.99683C6.04509 8.05582 5.99733 8.51733 5.88387 8.52367C5.77041 8.53002 5.6777 8.26129 5.49458 8.18329C5.33041 8.11337 5.00164 8.16716 4.96743 8.09281C4.92326 7.99683 5.13239 7.78368 5.28094 7.6685C5.4287 7.55393 5.59507 7.54022 5.77455 7.54022C5.95403 7.54022 6.01897 7.54022 6.22745 7.62802Z" fill="var(--mw-icon-background-default-action, #CBFFBE)"/>
<path d="M2.85745 5.52127C3.02708 5.59271 3.20111 5.78327 3.24273 5.89008C3.29773 6.03124 3.04296 5.83007 2.85745 5.89008C2.6751 5.94907 2.62734 6.41058 2.51388 6.41692C2.40042 6.42327 2.3077 6.15454 2.12459 6.07654C1.96042 6.00662 1.5003 5.99228 1.46609 5.91794C1.42192 5.82196 1.74688 5.66758 1.91095 5.56175C2.06663 5.46132 2.22508 5.43347 2.40456 5.43347C2.58403 5.43347 2.64898 5.43347 2.85745 5.52127Z" fill="var(--mw-icon-background-default-action, #CBFFBE)"/>
<path d="M6.3262 3.31269C6.52529 3.44555 6.93046 3.58538 6.95849 3.64729C7.0744 3.90328 6.72596 4.09671 6.51092 4.25179C6.44232 4.30126 6.44044 4.36399 6.36643 4.37934C5.98052 4.45939 5.46152 4.12102 5.05499 4.25179C4.66039 4.37872 4.11454 5.5507 3.70839 5.61712C3.23066 5.69524 3.28703 4.57401 2.80441 4.56136C2.61112 4.55629 2.20126 5.26598 2.08121 5.09556C1.99827 4.97782 2.43619 4.13811 2.50015 4.00624C2.62578 3.74722 2.80441 3.42566 2.80441 3.42566C3.22114 3.36376 4.24221 3.41002 4.29882 3.36758C4.36959 3.31453 5.75819 2.75031 5.86434 2.75031C5.94925 2.75031 6.1271 3.17984 6.3262 3.31269Z" fill="#49DB40"/>
<path d="M9.57756 4.61009C9.77666 4.74294 10.1437 4.93097 10.1718 4.99287C10.2877 5.24886 9.93709 5.12567 9.72205 5.28075C9.65345 5.33022 9.23108 5.16537 9.15707 5.18073C8.77116 5.26078 8.62735 5.39698 8.22899 5.55643C7.45559 5.866 7.29481 4.75845 6.88866 4.82487C6.41093 4.90299 6.67095 4.96599 6.18833 4.95334C5.99504 4.94827 5.54436 5.58794 5.42431 5.41751C5.34137 5.29977 5.39795 5.17628 5.46191 5.04442C5.58754 4.78539 6.02826 4.21731 6.02826 4.21731C6.44499 4.15542 7.5603 4.89977 7.90816 4.82487C8.27161 4.74661 9.47141 4.61009 9.57756 4.61009Z" fill="#49DB40"/>
<path d="M4.1503 1.63054C3.52423 1.91286 3.0703 2.70392 2.64166 3.74663C2.21302 4.78934 3.0268 3.73565 3.26956 3.67822C3.49064 3.62591 3.7947 4.04036 4.27824 4.04036C4.76178 4.04036 4.80475 3.20613 5.19515 3.02728C5.58554 2.84842 6.13172 3.20277 6.07415 3.0733C5.54526 1.88385 4.98633 1.25354 4.1503 1.63054Z" fill="#ABC739"/>
<path d="M4.1722 0.446296C3.59272 0.826422 3.36903 1.87865 3.13023 2.64601C2.89144 3.41337 3.45443 2.6113 3.63523 2.56853C3.79989 2.52957 3.75875 2.71318 4.11888 2.71318C4.47902 2.71318 4.4333 1.74987 4.72407 1.61666C5.01484 1.48345 5.52079 2.13694 5.47791 2.04051C5.084 1.15461 4.75168 0.066171 4.1722 0.446296Z" fill="#94EF84"/>
<path d="M8.32078 3.63888L8.31637 3.63392C8.18524 3.48646 7.99708 3.42335 7.76193 3.42577C7.45507 3.42893 7.06156 3.28685 6.94043 3.4097C6.84882 3.50262 5.88386 4.10053 6.00883 4.35843C6.07147 4.4877 6.70581 4.4694 7.05477 4.60461C7.3963 4.73693 7.78229 5.262 7.97911 5.24627C8.23952 5.22546 8.62204 4.80697 8.89982 4.71264C9.17759 4.61831 9.52217 4.67452 9.57936 4.63255C9.63656 4.59058 9.09104 4.31651 8.79945 4.08343C8.51116 3.85298 8.44888 3.78295 8.32078 3.63888Z" fill="#ABC739"/>
<path d="M7.94888 3.29425C8.11851 3.36569 8.29254 3.55625 8.33416 3.66306C8.38916 3.80422 8.13439 3.60304 7.94888 3.66306C7.76653 3.72205 7.71877 4.18356 7.60531 4.1899C7.49185 4.19625 7.39913 3.92752 7.21602 3.84952C7.05185 3.7796 6.72307 3.83339 6.68886 3.75904C6.6447 3.66306 6.85383 3.44991 7.00238 3.33473C7.15013 3.22016 7.31651 3.20645 7.49599 3.20645C7.67546 3.20645 7.74041 3.20645 7.94888 3.29425Z" fill="#94EF84"/>
<path d="M11.5923 5.80167C11.43 5.57818 11.3336 5.48419 11.2025 5.33674C11.0713 5.18928 10.8832 5.12617 10.648 5.12859C10.3412 5.13175 9.94766 4.98967 9.82654 5.11252C9.73492 5.20544 8.76997 5.80335 8.89494 6.06125C8.95758 6.19052 9.59191 6.17222 9.94088 6.30743C10.2824 6.43975 10.1611 7.69923 10.5173 7.52183C10.7523 7.40479 11.3571 6.97083 11.5923 6.8332C11.8275 6.69556 12.2332 6.42303 12.2904 6.38106C12.3476 6.33909 11.7545 6.02516 11.5923 5.80167Z" fill="#ABC739"/>
<path d="M10.835 4.99704C11.0046 5.06848 11.1786 5.25903 11.2203 5.36585C11.2753 5.50701 11.0205 5.30583 10.835 5.36585C10.6526 5.42484 10.6049 5.88635 10.4914 5.89269C10.378 5.89904 10.2852 5.63031 10.1021 5.55231C9.93796 5.48239 9.60918 5.53618 9.57497 5.46183C9.53081 5.36585 9.73994 5.1527 9.88848 5.03752C10.0362 4.92295 10.2026 4.90924 10.3821 4.90924C10.5616 4.90924 10.6265 4.90924 10.835 4.99704Z" fill="var(--mw-icon-background-default-action, #CBFFBE)"/>
<path d="M5.5 6.5C5.5 5.94772 5.94772 5.5 6.5 5.5H14.5C15.0523 5.5 15.5 5.94772 15.5 6.5V14.5C15.5 15.0523 15.0523 15.5 14.5 15.5H6.5C5.94772 15.5 5.5 15.0523 5.5 14.5V6.5Z" fill="var(--mw-icon-background-default-white, #FFFFFF)"/>
<path d="M9.5 10.5L7.5 10.5L10.5 14.5L13.5 10.5H11.5V10C11.5 8.61929 10.3807 7.5 9 7.5L6 7.5C7.53679 7.5 9.5 9.02724 9.5 10.5Z" fill="var(--mw-icon-background-default-action, #CBFFBE)" stroke="var(--mw-icon-glyph-content-green, #008014)" stroke-linecap="square"/>
<path d="M5.5 6.5C5.5 5.94772 5.94772 5.5 6.5 5.5H14.5C15.0523 5.5 15.5 5.94772 15.5 6.5V14.5C15.5 15.0523 15.0523 15.5 14.5 15.5H6.5C5.94772 15.5 5.5 15.0523 5.5 14.5V6.5Z" stroke="var(--mw-icon-border-default-gray, #616161)"/>
</svg>
