<svg width="16" height="16" viewBox="0 0 16 16" fill="none" xmlns="http://www.w3.org/2000/svg">
<path d="M11.5 0.5H1.5C0.947715 0.5 0.5 0.947715 0.5 1.5V11.5C0.5 12.0523 0.947715 12.5 1.5 12.5H11.5C12.0523 12.5 12.5 12.0523 12.5 11.5V1.5C12.5 0.947715 12.0523 0.5 11.5 0.5Z" fill="var(--mw-icon-background-default-white, #FFFFFF)" stroke="var(--mw-icon-border-default-gray, #616161)" stroke-linecap="round"/>
<path d="M12 1.5V8C11 5 9 5 8 8C7 1.5 2 1.5 1 8V1.5C1 1.22386 1.22386 1 1.5 1H11.5C11.7761 1 12 1.22386 12 1.5Z" fill="var(--mw-icon-glyph-content-gray, #616162)"/>
<circle cx="9.5" cy="3.5" r="1.5" fill="white"/>
<path d="M5.5 6.5C5.5 5.94772 5.94772 5.5 6.5 5.5H14.5C15.0523 5.5 15.5 5.94772 15.5 6.5V14.5C15.5 15.0523 15.0523 15.5 14.5 15.5H6.5C5.94772 15.5 5.5 15.0523 5.5 14.5V6.5Z" fill="white"/>
<path d="M9.5 10.5L7.5 10.5L10.5 14.5L13.5 10.5H11.5V10C11.5 8.61929 10.3807 7.5 9 7.5L6 7.5C7.53679 7.5 9.5 9.02724 9.5 10.5Z" fill="var(--mw-icon-background-default-action, #CBFFBE)" stroke="var(--mw-icon-glyph-content-green, #008014)" stroke-linecap="square"/>
<path d="M5.5 6.5C5.5 5.94772 5.94772 5.5 6.5 5.5H14.5C15.0523 5.5 15.5 5.94772 15.5 6.5V14.5C15.5 15.0523 15.0523 15.5 14.5 15.5H6.5C5.94772 15.5 5.5 15.0523 5.5 14.5V6.5Z" stroke="var(--mw-icon-border-default-gray, #616161)"/>
</svg>
