<svg width="16" height="16" viewBox="0 0 16 16" fill="none" xmlns="http://www.w3.org/2000/svg">
<path d="M14.5 0.5H5.5C4.94772 0.5 4.5 0.947715 4.5 1.5V14.5C4.5 15.0523 4.94771 15.5 5.5 15.5H14.5C15.0523 15.5 15.5 15.0523 15.5 14.5V1.5C15.5 0.947715 15.0523 0.5 14.5 0.5Z" fill="var(--mw-icon-background-default-white, #FFFFFF)" stroke="var(--mw-icon-border-default-gray, #616161)" stroke-linecap="round"/>
<path d="M9 14H15V3H9L9 14Z" fill="var(--mw-icon-background-default-action, #CBFFBE)"/>
<path d="M10.5 4H10V5H10.5V4ZM13.5 5H14V4H13.5V5ZM10.5 6H10V7H10.5V6ZM11.5 7H12V6H11.5V7ZM10.5 8H10V9H10.5V8ZM13.5 9H14V8H13.5V9ZM10.5 10H10V11H10.5V10ZM11.5 11H12V10H11.5V11ZM10.5 12H10V13H10.5V12ZM13.5 13H14V12H13.5V13ZM10.5 5H13.5V4H10.5V5ZM10.5 7H11.5V6H10.5V7ZM10.5 9H13.5V8H10.5V9ZM10.5 11H11.5V10H10.5V11ZM10.5 13H13.5V12H10.5V13Z" fill="var(--mw-icon-glyph-content-dark-green, #02580E)"/>
<path d="M8.5 2.5H13.5" stroke="var(--mw-icon-glyph-content-gray, #616162)" stroke-linecap="square"/>
<path d="M0.5 4.5L0.5 8.5H2.5L2.5 11.5L8.5 6.5L2.5 1.5L2.5 4.5H0.5Z" fill="var(--mw-icon-background-default-action, #CBFFBE)" stroke="var(--mw-icon-border-default-green, #008013)"/>
</svg>
