<svg width="16" height="16" viewBox="0 0 16 16" fill="none" xmlns="http://www.w3.org/2000/svg">
<path d="M0 8C0 3.58172 3.58172 0 8 0C12.4183 0 16 3.58172 16 8C16 12.4183 12.4183 16 8 16C3.58172 16 0 12.4183 0 8Z" fill="var(--mw-icon-glyph-content-light-blue, #278CDD)"/>
<path d="M7 12.5C7 12.7761 7.22386 13 7.5 13H8.5C8.77614 13 9 12.7761 9 12.5V6.5C9 6.22386 8.77614 6 8.5 6H7.5C7.22386 6 7 6.22386 7 6.5V12.5Z" fill="var(--mw-icon-background-default-white, #FFFFFF)"/>
<path d="M7 4.5C7 4.77614 7.22386 5 7.5 5H8.5C8.77614 5 9 4.77614 9 4.5V3.5C9 3.22386 8.77614 3 8.5 3H7.5C7.22386 3 7 3.22386 7 3.5V4.5Z" fill="white"/>
</svg>
