<svg width="16" height="16" viewBox="0 0 16 16" fill="none" xmlns="http://www.w3.org/2000/svg">
<path d="M12.8536 4.14645C12.6583 3.95118 12.3417 3.95118 12.1464 4.14645C11.9512 4.34171 11.9512 4.65829 12.1464 4.85355L12.8536 4.14645ZM15.5 7.5L15.8536 7.85355C16.0488 7.65829 16.0488 7.34171 15.8536 7.14645L15.5 7.5ZM12.1464 10.1464C11.9512 10.3417 11.9512 10.6583 12.1464 10.8536C12.3417 11.0488 12.6583 11.0488 12.8536 10.8536L12.1464 10.1464ZM3.5 5H8.5V4H3.5V5ZM8.5 5C9.88071 5 11 6.11929 11 7.5H12C12 5.567 10.433 4 8.5 4V5ZM11 7.5C11 8.88071 9.88071 10 8.5 10V11C10.433 11 12 9.433 12 7.5H11ZM8.5 10H3.5V11H8.5V10ZM3.5 10C2.11929 10 1 8.88071 1 7.5H0C0 9.433 1.567 11 3.5 11V10ZM1 7.5C1 6.11929 2.11929 5 3.5 5V4C1.567 4 0 5.567 0 7.5H1ZM12.1464 4.85355L15.1464 7.85355L15.8536 7.14645L12.8536 4.14645L12.1464 4.85355ZM15.1464 7.14645L12.1464 10.1464L12.8536 10.8536L15.8536 7.85355L15.1464 7.14645Z" fill="var(--mw-icon-object-primary, #616160)"/>
</svg>
