<svg width="16" height="16" viewBox="0 0 16 16" fill="none" xmlns="http://www.w3.org/2000/svg">
<path d="M6.5 12.5C6.5 13.6046 5.60457 14.5 4.5 14.5C3.39543 14.5 2.5 13.6046 2.5 12.5C2.5 11.3954 3.39543 10.5 4.5 10.5C5.60457 10.5 6.5 11.3954 6.5 12.5Z" stroke="var(--mw-icon-object-primary, #616160)"/>
<path d="M12.5 12.5C12.5 13.6046 11.6046 14.5 10.5 14.5C9.39543 14.5 8.5 13.6046 8.5 12.5C8.5 11.3954 9.39543 10.5 10.5 10.5C11.6046 10.5 12.5 11.3954 12.5 12.5Z" stroke="var(--mw-icon-object-primary, #616160)"/>
<path d="M2 4L4.5 6.55871e-08L7 4H5V9H4V4H2Z" fill="var(--mw-icon-object-primary, #616160)"/>
<path d="M8 5L10.5 9L13 5H11V0L10 1.19248e-08L10 5H8Z" fill="var(--mw-icon-object-primary, #616160)"/>
</svg>
