<svg width="16" height="16" viewBox="0 0 16 16" fill="none" xmlns="http://www.w3.org/2000/svg">
<path d="M15.5 15.5L3.5 15.5L3.5 7.5L15.5 7.5V15.5Z" fill="var(--mw-icon-background-default-light-gray, #F5F5F5)"/>
<path d="M15.5 15.5V16C15.7761 16 16 15.7761 16 15.5H15.5ZM3.5 15.5H3C3 15.6326 3.05268 15.7598 3.14645 15.8536C3.24022 15.9473 3.36739 16 3.5 16L3.5 15.5ZM3.5 7.5L3.5 7C3.22386 7 3 7.22386 3 7.5L3.5 7.5ZM15.5 7.5H16C16 7.36739 15.9473 7.24021 15.8536 7.14645C15.7598 7.05268 15.6326 7 15.5 7V7.5ZM11 14.5V15H12V14.5H11ZM12 8.5V8H11V8.5H12ZM7 14.5V15H8V14.5H7ZM8 8.5V8H7V8.5H8ZM4.5 11H4V12H4.5V11ZM14.5 12H15V11H14.5V12ZM15.5 15L3.5 15L3.5 16L15.5 16V15ZM4 15.5L4 7.5L3 7.5L3 15.5H4ZM3.5 8L15.5 8V7L3.5 7L3.5 8ZM15 7.5V15.5H16V7.5H15ZM12 14.5V8.5H11V14.5H12ZM8 14.5V11.5H7V14.5H8ZM8 11.5V8.5H7V11.5H8ZM4.5 12H7.5V11H4.5V12ZM7.5 12H14.5V11H7.5V12Z" fill="var(--mw-icon-border-disabled-gray, #888888)"/>
<path d="M15.5 5.5L0.5 5.5L0.5 0.500002L15.5 0.5V5.5Z" fill="var(--mw-icon-background-default-action, #CBFFBE)"/>
<path d="M15.5 5.5V6C15.7761 6 16 5.77614 16 5.5H15.5ZM0.5 5.5H3.8743e-07C3.8743e-07 5.77614 0.223858 6 0.5 6L0.5 5.5ZM0.5 0.500002L0.5 2.08616e-06C0.223858 2.11596e-06 0 0.22386 0 0.500002L0.5 0.500002ZM15.5 0.5H16C16 0.367392 15.9473 0.240215 15.8536 0.146447C15.7598 0.0526784 15.6326 0 15.5 0V0.5ZM10 4.5V5H11V4.5H10ZM11 1V0.500002H10V1H11ZM5 4.5V5H6V4.5H5ZM6 1V0.500002L5 0.500002V1L6 1ZM15.5 5L0.5 5L0.5 6L15.5 6V5ZM1 5.5L1 0.500002L0 0.500002L3.8743e-07 5.5H1ZM0.5 1L15.5 1V0L0.5 2.08616e-06L0.5 1ZM15 0.5V5.5H16V0.5H15ZM11 4.5V1H10V4.5H11ZM6 4.5L6 1L5 1L5 4.5H6Z" fill="var(--mw-icon-border-default-green, #008013)"/>
</svg>
