<svg width="16" height="16" viewBox="0 0 16 16" fill="none" xmlns="http://www.w3.org/2000/svg">
<path d="M15.5 15.5L15.5 3.5L7.5 3.5L7.5 15.5H15.5Z" fill="var(--mw-icon-background-default-light-gray, #F5F5F5)"/>
<path d="M15.5 15.5V16C15.7761 16 16 15.7761 16 15.5H15.5ZM15.5 3.5L16 3.5C16 3.36739 15.9473 3.24022 15.8536 3.14645C15.7598 3.05268 15.6326 3 15.5 3V3.5ZM7.5 3.5L7.5 3C7.36739 3 7.24022 3.05268 7.14645 3.14645C7.05268 3.24021 7 3.36739 7 3.5L7.5 3.5ZM7.5 15.5H7C7 15.6326 7.05268 15.7598 7.14645 15.8536C7.24021 15.9473 7.36739 16 7.5 16V15.5ZM14.5 12H15V11H14.5V12ZM8.5 11H8V12H8.5V11ZM14.5 8H15V7H14.5V8ZM8.5 7H8L8 8H8.5V7ZM12 4.5V4H11V4.5H12ZM11 14.5V15H12V14.5H11ZM16 15.5L16 3.5L15 3.5L15 15.5H16ZM15.5 3L7.5 3L7.5 4L15.5 4V3ZM7 3.5L7 15.5H8L8 3.5L7 3.5ZM7.5 16H15.5V15H7.5V16ZM14.5 11H8.5V12H14.5V11ZM14.5 7H11.5V8H14.5V7ZM11.5 7L8.5 7V8H11.5V7ZM11 4.5V7.5H12V4.5H11ZM11 7.5L11 14.5H12L12 7.5H11Z" fill="var(--mw-icon-border-disabled-gray, #888888)"/>
<path d="M5.5 15.5L5.5 0.500001L0.500003 0.5L0.5 15.5L5.5 15.5Z" fill="var(--mw-icon-background-default-action, #CBFFBE)"/>
<path d="M5.5 15.5V16C5.63261 16 5.75979 15.9473 5.85355 15.8536C5.94732 15.7598 6 15.6326 6 15.5H5.5ZM5.5 0.500001L6 0.500001C6 0.367392 5.94732 0.240215 5.85356 0.146447C5.75979 0.0526791 5.63261 6.25849e-07 5.5 5.96046e-07V0.500001ZM0.500003 0.5L0.500003 0C0.22386 -5.96046e-08 2.80142e-06 0.223858 2.74181e-06 0.5L0.500003 0.5ZM0.5 15.5H0C-5.96046e-08 15.7761 0.223858 16 0.5 16L0.5 15.5ZM4.5 11H5V10H4.5V11ZM1 10H0.500002V11H1V10ZM4.5 6H5V5H4.5V6ZM1 5H0.500003L0.500002 6H1L1 5ZM6 15.5L6 0.500001L5 0.500001L5 15.5H6ZM5.5 5.96046e-07L0.500003 0L0.500003 1L5.5 1V5.96046e-07ZM2.74181e-06 0.5L0 15.5H1L1 0.5L2.74181e-06 0.5ZM0.5 16L5.5 16V15L0.5 15L0.5 16ZM4.5 10H1V11H4.5V10ZM4.5 5L1 5L1 6L4.5 6V5Z" fill="var(--mw-icon-border-default-green, #008013)"/>
</svg>
