<svg width="16" height="16" viewBox="0 0 16 16" fill="none" xmlns="http://www.w3.org/2000/svg">
<path d="M12.5 12.5L12.5 0.5L0.5 0.499999L0.499999 12.5L12.5 12.5Z" fill="var(--mw-icon-background-default-white, #FFFFFF)" stroke="var(--mw-icon-border-default-gray, #616161)" stroke-linecap="round" stroke-linejoin="round"/>
<path d="M11.5 8.5L1.5 8.5M8.5 1.5L8.5 11.5M11.5 4.5L1.5 4.5M4.5 1.5L4.5 11.5" stroke="var(--mw-icon-border-default-gray, #616161)" stroke-linecap="square"/>
<rect width="10" height="10" rx="5" transform="matrix(-1 0 0 1 15.5 5.5)" fill="var(--mw-icon-background-default-action, #CBFFBE)" stroke="var(--mw-icon-border-default-green, #008013)"/>
<path d="M13.5 11H14V9.99999H13.5V11ZM7.5 9.99999H7V11H7.5V9.99999ZM11 7.5V7H10V7.5H11ZM10 13.5V14H11V13.5H10ZM13.5 9.99999H7.5V11H13.5V9.99999ZM10 7.5V13.5H11V7.5H10Z" fill="var(--mw-icon-glyph-content-dark-green, #02580E)"/>
<path d="M0.5 0.5H4.5V4.5H0.5V0.5Z" fill="var(--mw-icon-background-default-action, #CBFFBE)" stroke="var(--mw-icon-border-default-green, #008013)" stroke-linejoin="round"/>
</svg>
