<svg width="16" height="16" viewBox="0 0 16 16" fill="none" xmlns="http://www.w3.org/2000/svg">
<path d="M6.5 10V6C6.5 5.72386 6.72386 5.5 7 5.5H15C15.2761 5.5 15.5 5.72386 15.5 6V10C15.5 10.2761 15.2761 10.5 15 10.5H7C6.72386 10.5 6.5 10.2761 6.5 10Z" fill="var(--mw-icon-background-default-white, #FFFFFF)" stroke="var(--mw-icon-border-default-gray, #616161)" stroke-linejoin="round"/>
<path d="M6.5 3V1C6.5 0.723858 6.72386 0.5 7 0.5H15C15.2761 0.5 15.5 0.723858 15.5 1V3C15.5 3.27614 15.2761 3.5 15 3.5H7C6.72386 3.5 6.5 3.27614 6.5 3Z" fill="#BFBFBF"/>
<path d="M6.5 15V13C6.5 12.7239 6.72386 12.5 7 12.5H15C15.2761 12.5 15.5 12.7239 15.5 13V15C15.5 15.2761 15.2761 15.5 15 15.5H7C6.72386 15.5 6.5 15.2761 6.5 15Z" fill="#BFBFBF"/>
<path d="M6.5 3V1C6.5 0.723858 6.72386 0.5 7 0.5H15C15.2761 0.5 15.5 0.723858 15.5 1V3C15.5 3.27614 15.2761 3.5 15 3.5H7C6.72386 3.5 6.5 3.27614 6.5 3Z" stroke="var(--mw-icon-glyph-disabled-gray, #888889)" stroke-linejoin="round"/>
<path d="M6.5 15V13C6.5 12.7239 6.72386 12.5 7 12.5H15C15.2761 12.5 15.5 12.7239 15.5 13V15C15.5 15.2761 15.2761 15.5 15 15.5H7C6.72386 15.5 6.5 15.2761 6.5 15Z" stroke="var(--mw-icon-glyph-disabled-gray, #888889)" stroke-linejoin="round"/>
<path d="M4.5 8.00288L0.5 4V12L4.5 8.00288Z" fill="white" stroke="var(--mw-icon-border-default-gray, #616161)" stroke-linecap="round" stroke-linejoin="round"/>
</svg>
