<svg width="16" height="16" viewBox="0 0 16 16" fill="none" xmlns="http://www.w3.org/2000/svg">
<rect x="0.5" y="0.5" width="14" height="14" rx="2" fill="var(--mw-icon-background-default-light-gray, #F5F5F5)"/>
<rect x="3.5" y="2.5" width="8" height="5" fill="#00A3A3" stroke="#02555C" stroke-linejoin="round"/>
<path d="M4 4.5H4.57617C4.85231 4.5 5.07617 4.72386 5.07617 5V5C5.07617 5.27614 5.30003 5.5 5.57617 5.5H6.19043C6.46657 5.5 6.69043 5.27614 6.69043 5V5C6.69043 4.72386 6.91428 4.5 7.19043 4.5H7.80468C8.08082 4.5 8.30468 4.72386 8.30468 5V5C8.30468 5.27614 8.52854 5.5 8.80468 5.5H9.30783C9.64533 5.5 9.91894 5.2264 9.91894 4.88889V4.88889V4.88889C9.91894 4.67411 10.093 4.5 10.3078 4.5H11" stroke="var(--mw-icon-background-medium-yellow, #FFEF91)"/>
<circle cx="10.5" cy="10.5" r="1.5" fill="var(--mw-icon-glyph-content-gray, #616162)"/>
<rect x="3" y="9" width="2" height="1" fill="var(--mw-icon-glyph-content-mono, #616061)"/>
<rect x="3" y="11" width="2" height="1" fill="var(--mw-icon-glyph-content-mono, #616061)"/>
<rect x="6" y="11" width="2" height="1" fill="var(--mw-icon-glyph-content-mono, #616061)"/>
<rect x="6" y="9" width="2" height="1" fill="var(--mw-icon-glyph-content-mono, #616061)"/>
<rect x="0.5" y="0.5" width="14" height="14" rx="2" stroke="var(--mw-icon-border-default-gray, #616161)"/>
</svg>
