<svg width="16" height="17" viewBox="0 0 16 17" fill="none" xmlns="http://www.w3.org/2000/svg">
<path d="M14.5 5L7.5 1.5L0.5 5V12L7.5 15.5L14.5 12V5Z" fill="var(--mw-icon-background-default-white, #FFFFFF)"/>
<path d="M7.5 1.5L14.5 5V12L7.5 8.5V1.5Z" fill="var(--mw-icon-background-default-light-gray, #F5F5F5)"/>
<path d="M7.5 1.5L0.5 5V12L7.5 8.5V1.5Z" fill="var(--mw-icon-background-default-medium-gray, #D9D9D9)"/>
<path d="M5.5 10.5L2.5 9.5L4.5 6.5L8.5 4.5L12.5 8.5L9.5 9.5L8.5 12.5L5.5 10.5Z" fill="var(--mw-icon-background-default-selection, #B4DEFF)"/>
<path d="M8.5 4.5L12.5 8.5L9.5 9.5M8.5 4.5L6.5 6.5M8.5 4.5L4.5 6.5M5.5 10.5L2.5 9.5L4.5 6.5M5.5 10.5L8.5 12.5L9.5 9.5M5.5 10.5L6.5 6.5M6.5 6.5H4.5M6.5 6.5L9.5 9.5" stroke="var(--mw-icon-glyph-content-light-blue, #278CDD)" stroke-linecap="round" stroke-linejoin="round"/>
<path d="M8 4.5C8 4.22386 8.22386 4 8.5 4C8.77614 4 9 4.22386 9 4.5C9 4.77614 8.77614 5 8.5 5C8.22386 5 8 4.77614 8 4.5Z" fill="var(--mw-icon-glyph-content-dark-gray, #333333)"/>
<path d="M12 8.5C12 8.22386 12.2239 8 12.5 8C12.7761 8 13 8.22386 13 8.5C13 8.77614 12.7761 9 12.5 9C12.2239 9 12 8.77614 12 8.5Z" fill="var(--mw-icon-glyph-content-dark-gray, #333333)"/>
<path d="M9 9.5C9 9.22386 9.22386 9 9.5 9C9.77614 9 10 9.22386 10 9.5C10 9.77614 9.77614 10 9.5 10C9.22386 10 9 9.77614 9 9.5Z" fill="var(--mw-icon-glyph-content-dark-gray, #333333)"/>
<path d="M6 6.5C6 6.22386 6.22386 6 6.5 6C6.77614 6 7 6.22386 7 6.5C7 6.77614 6.77614 7 6.5 7C6.22386 7 6 6.77614 6 6.5Z" fill="var(--mw-icon-glyph-content-dark-gray, #333333)"/>
<path d="M4 6.5C4 6.22386 4.22386 6 4.5 6C4.77614 6 5 6.22386 5 6.5C5 6.77614 4.77614 7 4.5 7C4.22386 7 4 6.77614 4 6.5Z" fill="var(--mw-icon-glyph-content-dark-gray, #333333)"/>
<path d="M2 9.5C2 9.22386 2.22386 9 2.5 9C2.77614 9 3 9.22386 3 9.5C3 9.77614 2.77614 10 2.5 10C2.22386 10 2 9.77614 2 9.5Z" fill="var(--mw-icon-glyph-content-dark-gray, #333333)"/>
<path d="M5 10.5C5 10.2239 5.22386 10 5.5 10C5.77614 10 6 10.2239 6 10.5C6 10.7761 5.77614 11 5.5 11C5.22386 11 5 10.7761 5 10.5Z" fill="var(--mw-icon-glyph-content-dark-gray, #333333)"/>
<path d="M8 12.5C8 12.2239 8.22386 12 8.5 12C8.77614 12 9 12.2239 9 12.5C9 12.7761 8.77614 13 8.5 13C8.22386 13 8 12.7761 8 12.5Z" fill="var(--mw-icon-glyph-content-dark-gray, #333333)"/>
<path d="M0.5 5L7.5 1.5L14.5 5V12" stroke="var(--mw-icon-background-default-dark-gray, #A6A6A6)"/>
<path d="M0.5 5V12L7.5 15.5L14.5 12" stroke="var(--mw-icon-border-default-gray, #616161)" stroke-linecap="round" stroke-linejoin="round"/>
</svg>
