<svg width="16" height="16" viewBox="0 0 16 16" fill="none" xmlns="http://www.w3.org/2000/svg">
<path d="M0.5 9.5H4.55H9.5V4.55V0.5H0.5V9.5Z" fill="var(--mw-icon-background-default-light-gray, #F5F5F5)" stroke="var(--mw-icon-border-disabled-gray, #888888)" stroke-linejoin="round"/>
<path d="M14.5 5.5H10.45H5.5V10.45V14.5H14.5V5.5Z" fill="var(--mw-icon-background-default-light-gray, #F5F5F5)" stroke="var(--mw-icon-border-disabled-gray, #888888)" stroke-linejoin="round"/>
<path d="M5.5 9.5H9.5V5.5H5.5V9.5Z" fill="var(--mw-icon-background-default-selection, #B4DEFF)"/>
<path d="M9.5 9.5V10C9.77614 10 10 9.77614 10 9.5H9.5ZM5.5 9.5H5V10H5.5V9.5ZM5.5 5.5V5C5.22386 5 5 5.22386 5 5.5H5.5ZM9.5 5.5H10V5H9.5V5.5ZM9.5 9H5.5V10H9.5V9ZM6 9.5V5.5H5V9.5H6ZM5.5 6H9.5V5H5.5V6ZM9 5.5V9.5H10V5.5H9Z" fill="var(--mw-icon-border-default-blue, #1656A7)"/>
</svg>
