<svg width="16" height="16" viewBox="0 0 16 16" fill="none" xmlns="http://www.w3.org/2000/svg">
<path d="M0.5 1.5C0.5 0.947716 0.947715 0.5 1.5 0.5H12.5C13.0523 0.5 13.5 0.947715 13.5 1.5V13.5C13.5 14.0523 13.0523 14.5 12.5 14.5H1.5C0.947715 14.5 0.5 14.0523 0.5 13.5V1.5Z" fill="var(--mw-icon-background-default-white, #FFFFFF)"/>
<path d="M3 12L5 7L7 10L9 3L11 7" stroke="var(--mw-icon-glyph-content-light-blue, #278CDD)" stroke-linecap="round" stroke-linejoin="round"/>
<path d="M8 3C8 2.44772 8.44772 2 9 2C9.55228 2 10 2.44772 10 3C10 3.55228 9.55228 4 9 4C8.44772 4 8 3.55228 8 3Z" fill="var(--mw-icon-glyph-content-dark-gray, #333333)"/>
<path d="M2 12C2 11.4477 2.44772 11 3 11C3.55228 11 4 11.4477 4 12C4 12.5523 3.55228 13 3 13C2.44772 13 2 12.5523 2 12Z" fill="var(--mw-icon-glyph-content-dark-gray, #333333)"/>
<path d="M10 7C10 6.44772 10.4477 6 11 6C11.5523 6 12 6.44772 12 7C12 7.55228 11.5523 8 11 8C10.4477 8 10 7.55228 10 7Z" fill="var(--mw-icon-glyph-content-dark-gray, #333333)"/>
<path d="M6 10C6 9.44772 6.44772 9 7 9C7.55228 9 8 9.44772 8 10C8 10.5523 7.55228 11 7 11C6.44772 11 6 10.5523 6 10Z" fill="var(--mw-icon-glyph-content-dark-gray, #333333)"/>
<path d="M4 7C4 6.44772 4.44772 6 5 6C5.55228 6 6 6.44772 6 7C6 7.55228 5.55228 8 5 8C4.44772 8 4 7.55228 4 7Z" fill="var(--mw-icon-glyph-content-dark-gray, #333333)"/>
<path d="M0.5 1.5C0.5 0.947716 0.947715 0.5 1.5 0.5H13.5C14.0523 0.5 14.5 0.947715 14.5 1.5V13.5C14.5 14.0523 14.0523 14.5 13.5 14.5H1.5C0.947716 14.5 0.5 14.0523 0.5 13.5V1.5Z" stroke="var(--mw-icon-border-default-gray, #616161)"/>
</svg>
