<svg width="16" height="16" viewBox="0 0 16 16" fill="none" xmlns="http://www.w3.org/2000/svg">
<rect x="0.5" y="0.5" width="14" height="14" rx="1" fill="var(--mw-icon-background-default-white, #FFFFFF)"/>
<path d="M1 11.5H14" stroke="var(--mw-icon-background-default-dark-gray, #A6A6A6)" stroke-linejoin="round"/>
<path d="M3.5 14V1" stroke="var(--mw-icon-background-default-dark-gray, #A6A6A6)" stroke-linejoin="round"/>
<path d="M3.00062 11.475C2.98683 11.7508 3.19923 11.9856 3.47503 11.9994C3.75083 12.0132 3.98559 11.8008 3.99938 11.525L3.00062 11.475ZM9.49995 5.5L9.20586 5.90437L9.49995 5.5ZM3.5 11.5C3.99938 11.525 3.99937 11.5251 3.99937 11.5251C3.99937 11.5251 3.99937 11.5251 3.99937 11.5251C3.99938 11.525 3.99939 11.5247 3.99941 11.5243C3.99946 11.5234 3.99953 11.522 3.99964 11.52C3.99986 11.516 4.00022 11.5096 4.00073 11.501C4.00175 11.4838 4.00338 11.4576 4.00576 11.4232C4.01053 11.3544 4.01829 11.2527 4.03013 11.1239C4.05382 10.8661 4.09373 10.5011 4.1584 10.075C4.28856 9.21754 4.51561 8.13617 4.90073 7.18819C5.29358 6.22117 5.8086 5.49797 6.45005 5.20474C7.04221 4.93403 7.9093 4.9614 9.20586 5.90437L9.79404 5.09563C8.34063 4.0386 7.08274 3.81597 6.03429 4.29526C5.03513 4.75203 4.39391 5.77883 3.97426 6.81181C3.54688 7.86383 3.30519 9.03246 3.16972 9.92497C3.10158 10.3739 3.05946 10.7589 3.03433 11.0324C3.02175 11.1692 3.0134 11.2784 3.00815 11.3541C3.00553 11.392 3.00369 11.4215 3.00248 11.4419C3.00187 11.4521 3.00143 11.46 3.00113 11.4655C3.00097 11.4683 3.00086 11.4705 3.00077 11.4721C3.00073 11.4729 3.0007 11.4735 3.00068 11.474C3.00066 11.4743 3.00065 11.4745 3.00064 11.4746C3.00063 11.4749 3.00062 11.475 3.5 11.5ZM9.20586 5.90437C10.4462 6.80646 11.4697 7.1902 12.3247 7.16094C13.2131 7.13053 13.8205 6.65951 14.212 6.09493C14.5927 5.54609 14.7848 4.89252 14.8842 4.40325C14.9348 4.15398 14.9635 3.93654 14.9795 3.78043C14.9876 3.70218 14.9925 3.63882 14.9955 3.59396C14.997 3.57151 14.998 3.55366 14.9987 3.54085C14.999 3.53444 14.9992 3.52928 14.9994 3.52544C14.9995 3.52352 14.9995 3.52193 14.9996 3.52067C14.9996 3.52004 14.9996 3.51949 14.9996 3.51903C14.9996 3.5188 14.9997 3.51852 14.9997 3.5184C14.9997 3.51814 14.9997 3.5179 14.5 3.5C14.0003 3.4821 14.0003 3.4819 14.0003 3.48172C14.0003 3.48169 14.0003 3.48153 14.0003 3.48147C14.0003 3.48134 14.0003 3.48129 14.0003 3.48133C14.0003 3.4814 14.0003 3.48179 14.0003 3.48249C14.0002 3.48391 14.0001 3.48658 13.9999 3.49046C13.9995 3.49822 13.9988 3.51078 13.9977 3.52772C13.9955 3.56162 13.9915 3.61287 13.9848 3.67801C13.9713 3.80866 13.9471 3.99309 13.9042 4.20423C13.8166 4.63579 13.6593 5.13721 13.3903 5.52504C13.1323 5.89711 12.7899 6.14443 12.2905 6.16152C11.7576 6.17976 10.9553 5.94018 9.79404 5.09563L9.20586 5.90437Z" fill="#0072BD"/>
<path d="M11.6508 9.24332H11.9555C12.1006 9.24332 12.208 9.20655 12.2779 9.13302C12.3478 9.05949 12.3828 8.9619 12.3828 8.84024C12.3828 8.72259 12.3478 8.63102 12.2779 8.56551C12.2094 8.5 12.1144 8.46725 11.9931 8.46725C11.8836 8.46725 11.792 8.49799 11.7181 8.55949C11.6442 8.61965 11.6073 8.69853 11.6073 8.79612H11.0356C11.0356 8.64372 11.0758 8.50735 11.1563 8.38703C11.238 8.26537 11.3515 8.17045 11.4965 8.10227C11.6429 8.03409 11.8038 8 11.9792 8C12.2839 8 12.5226 8.0742 12.6954 8.22259C12.8681 8.36965 12.9545 8.57286 12.9545 8.83222C12.9545 8.96591 12.9143 9.0889 12.8338 9.2012C12.7534 9.3135 12.6479 9.39973 12.5173 9.45989C12.6795 9.51872 12.8002 9.60695 12.8793 9.7246C12.9598 9.84225 13 9.98128 13 10.1417C13 10.4011 12.9064 10.609 12.7191 10.7654C12.5331 10.9218 12.2865 11 11.9792 11C11.6917 11 11.4563 10.9231 11.273 10.7694C11.091 10.6156 11 10.4124 11 10.1598H11.5717C11.5717 10.2694 11.6119 10.359 11.6924 10.4285C11.7742 10.498 11.8744 10.5328 11.9931 10.5328C12.1289 10.5328 12.2351 10.4967 12.3116 10.4245C12.3894 10.3509 12.4283 10.254 12.4283 10.1337C12.4283 9.84225 12.27 9.69652 11.9535 9.69652H11.6508V9.24332Z" fill="var(--mw-icon-glyph-content-gray, #616162)"/>
<path d="M10 11H8.05648V10.5976L8.97371 9.57724C9.09964 9.4336 9.19247 9.30827 9.25219 9.20122C9.31321 9.09417 9.34372 8.99255 9.34372 8.89634C9.34372 8.76491 9.31191 8.66192 9.2483 8.5874C9.18468 8.51152 9.0938 8.47358 8.97566 8.47358C8.84843 8.47358 8.74781 8.51965 8.67381 8.61179C8.6011 8.70257 8.56475 8.82249 8.56475 8.97154H8C8 8.79133 8.0409 8.62669 8.12269 8.47764C8.20578 8.32859 8.32262 8.21206 8.47322 8.12805C8.62382 8.04268 8.79455 8 8.98539 8C9.27751 8 9.50406 8.07317 9.66504 8.21951C9.82733 8.36585 9.90847 8.57249 9.90847 8.83943C9.90847 8.98577 9.87212 9.13482 9.79942 9.28659C9.72671 9.43835 9.60208 9.61518 9.42551 9.81707L8.78092 10.5264H10V11Z" fill="var(--mw-icon-glyph-content-gray, #616162)"/>
<path d="M6.5 11H5.81625V8.70782L5 8.92798V8.44444L6.42666 8H6.5V11Z" fill="var(--mw-icon-glyph-content-gray, #616162)"/>
<rect x="0.5" y="0.5" width="14" height="14" rx="1" stroke="var(--mw-icon-border-default-gray, #616161)"/>
</svg>
