<svg width="16" height="16" viewBox="0 0 16 16" fill="none" xmlns="http://www.w3.org/2000/svg">
<rect x="0.5" y="0.5" width="14" height="14" rx="1" fill="var(--mw-icon-background-default-white, #FFFFFF)"/>
<line x1="0.5" y1="8.5" x2="14.5" y2="8.5" stroke="var(--mw-icon-glyph-content-gray, #616162)"/>
<path d="M8 8V2.5C9.88372 2.5 11.1744 6.4 12.4302 6.4H14V8H8Z" fill="var(--mw-icon-background-red, #FF9D9A)"/>
<path d="M1 6.5H3C5.51163 6.5 5.48837 2.5 8 2.5C10.5116 2.5 10.4884 6.5 13 6.5H14" stroke="var(--mw-icon-glyph-content-red, #902623)" stroke-linecap="square" stroke-linejoin="round"/>
<path d="M8.5 10.5H8C7.72386 10.5 7.5 10.7239 7.5 11V12C7.5 12.2761 7.72386 12.5 8 12.5H8.5M10.5 10.5V12.5M5.5 10.5V12.5H4.5" stroke="var(--mw-icon-glyph-content-dark-gray, #333333)" stroke-linecap="round" stroke-linejoin="round"/>
<rect x="0.5" y="0.5" width="14" height="14" rx="1" stroke="var(--mw-icon-border-default-gray, #616161)"/>
</svg>
