<svg width="16" height="16" viewBox="0 0 16 16" fill="none" xmlns="http://www.w3.org/2000/svg">
<rect x="0.5" y="0.5" width="14" height="14" rx="1" fill="var(--mw-icon-background-default-white, #FFFFFF)"/>
<path d="M5.49981 14.4999C5.71366 13.8585 3.87483 13.1439 2.77956 12.2359C2.32603 11.8599 2 11.4507 2 10.9999C2 10.2238 2.52374 9.80345 3.22446 9.49999C3.61471 9.33098 4.05986 9.19824 4.5 9.06051C5.00821 8.90148 5.50974 8.73581 5.91237 8.49999C6.14844 8.36172 6.35052 8.19933 6.5 8.00002C6.7401 7.6799 6.91509 7.39114 7.04804 7.12689C7.62757 5.97506 7.40831 5.28884 8.29997 4.49999C8.48175 4.33917 8.7097 4.17408 9 3.99991C9.04115 3.97522 9.08206 3.95234 9.12275 3.93121C9.42657 3.7734 9.71771 3.71292 10 3.7236C10.8806 3.75692 11.6752 4.48269 12.5 5.10585C13.1315 5.58298 14 6.5 14.5 6.5" stroke="var(--mw-icon-glyph-content-gray, #616162)" stroke-linecap="round" stroke-linejoin="round"/>
<path d="M7 3.5C7 3.22386 7.22386 3 7.5 3C7.77614 3 8 3.22386 8 3.5C8 3.77614 7.77614 4 7.5 4C7.22386 4 7 3.77614 7 3.5Z" fill="#FFCBCB"/>
<path d="M8 1.5C8 1.22386 8.22386 1 8.5 1C8.77614 1 9 1.22386 9 1.5C9 1.77614 8.77614 2 8.5 2C8.22386 2 8 1.77614 8 1.5Z" fill="var(--mw-icon-background-red, #FF9D9A)"/>
<path d="M12 3.5C12 3.22386 12.2239 3 12.5 3C12.7761 3 13 3.22386 13 3.5C13 3.77614 12.7761 4 12.5 4C12.2239 4 12 3.77614 12 3.5Z" fill="#FFCBCB"/>
<path d="M10 2.5C10 2.22386 10.2239 2 10.5 2C10.7761 2 11 2.22386 11 2.5C11 2.77614 10.7761 3 10.5 3C10.2239 3 10 2.77614 10 2.5Z" fill="#FFCBCB"/>
<path d="M1 2.5C1 2.22386 1.22386 2 1.5 2C1.77614 2 2 2.22386 2 2.5C2 2.77614 1.77614 3 1.5 3C1.22386 3 1 2.77614 1 2.5Z" fill="#DD5400"/>
<path d="M3 1.5C3 1.22386 3.22386 1 3.5 1C3.77614 1 4 1.22386 4 1.5C4 1.77614 3.77614 2 3.5 2C3.22386 2 3 1.77614 3 1.5Z" fill="#DD5400"/>
<path d="M4 4.5C4 4.22386 4.22386 4 4.5 4C4.77614 4 5 4.22386 5 4.5C5 4.77614 4.77614 5 4.5 5C4.22386 5 4 4.77614 4 4.5Z" fill="var(--mw-icon-background-red, #FF9D9A)"/>
<path d="M5 6.5C5 6.22386 5.22386 6 5.5 6C5.77614 6 6 6.22386 6 6.5C6 6.77614 5.77614 7 5.5 7C5.22386 7 5 6.77614 5 6.5Z" fill="#FFCBCB"/>
<path d="M5 2.5C5 2.22386 5.22386 2 5.5 2C5.77614 2 6 2.22386 6 2.5C6 2.77614 5.77614 3 5.5 3C5.22386 3 5 2.77614 5 2.5Z" fill="var(--mw-icon-background-red, #FF9D9A)"/>
<path d="M2 7.5C2 7.22386 2.22386 7 2.5 7C2.77614 7 3 7.22386 3 7.5C3 7.77614 2.77614 8 2.5 8C2.22386 8 2 7.77614 2 7.5Z" fill="#FFCBCB"/>
<path d="M2 3.5C2 3.22386 2.22386 3 2.5 3C2.77614 3 3 3.22386 3 3.5C3 3.77614 2.77614 4 2.5 4C2.22386 4 2 3.77614 2 3.5Z" fill="#DD5400"/>
<path d="M2 5.5C2 5.22386 2.22386 5 2.5 5C2.77614 5 3 5.22386 3 5.5C3 5.77614 2.77614 6 2.5 6C2.22386 6 2 5.77614 2 5.5Z" fill="var(--mw-icon-background-red, #FF9D9A)"/>
<path d="M10 11.5C10 11.2239 10.2239 11 10.5 11C10.7761 11 11 11.2239 11 11.5C11 11.7761 10.7761 12 10.5 12C10.2239 12 10 11.7761 10 11.5Z" fill="#1171BE"/>
<path d="M9 9.5C9 9.22386 9.22386 9 9.5 9C9.77614 9 10 9.22386 10 9.5C10 9.77614 9.77614 10 9.5 10C9.22386 10 9 9.77614 9 9.5Z" fill="var(--mw-icon-background-medium-blue, #83CAFF)"/>
<path d="M7 9.5C7 9.22386 7.22386 9 7.5 9C7.77614 9 8 9.22386 8 9.5C8 9.77614 7.77614 10 7.5 10C7.22386 10 7 9.77614 7 9.5Z" fill="var(--mw-icon-background-default-selection, #B4DEFF)"/>
<path d="M12 9.5C12 9.22386 12.2239 9 12.5 9C12.7761 9 13 9.22386 13 9.5C13 9.77614 12.7761 10 12.5 10C12.2239 10 12 9.77614 12 9.5Z" fill="#1171BE"/>
<path d="M4 11.5C4 11.2239 4.22386 11 4.5 11C4.77614 11 5 11.2239 5 11.5C5 11.7761 4.77614 12 4.5 12C4.22386 12 4 11.7761 4 11.5Z" fill="var(--mw-icon-background-default-selection, #B4DEFF)"/>
<path d="M9 6.5C9 6.22386 9.22386 6 9.5 6C9.77614 6 10 6.22386 10 6.5C10 6.77614 9.77614 7 9.5 7C9.22386 7 9 6.77614 9 6.5Z" fill="var(--mw-icon-background-default-selection, #B4DEFF)"/>
<path d="M11 7.5C11 7.22386 11.2239 7 11.5 7C11.7761 7 12 7.22386 12 7.5C12 7.77614 11.7761 8 11.5 8C11.2239 8 11 7.77614 11 7.5Z" fill="var(--mw-icon-background-medium-blue, #83CAFF)"/>
<path d="M7 12.5C7 12.2239 7.22386 12 7.5 12C7.77614 12 8 12.2239 8 12.5C8 12.7761 7.77614 13 7.5 13C7.22386 13 7 12.7761 7 12.5Z" fill="var(--mw-icon-background-medium-blue, #83CAFF)"/>
<path d="M11.5 13C11.5 12.7239 11.7239 12.5 12 12.5C12.2761 12.5 12.5 12.7239 12.5 13C12.5 13.2761 12.2761 13.5 12 13.5C11.7239 13.5 11.5 13.2761 11.5 13Z" fill="#1171BE"/>
<rect x="0.5" y="0.5" width="14" height="14" rx="1" stroke="var(--mw-icon-border-default-gray, #616161)"/>
</svg>
