<svg width="16" height="16" viewBox="0 0 16 16" fill="none" xmlns="http://www.w3.org/2000/svg">
<rect x="0.5" y="0.5" width="14" height="14" rx="1" fill="var(--mw-icon-background-default-white, #FFFFFF)"/>
<path d="M5.49981 14.4999C5.71366 13.8585 3.87483 13.1439 2.77956 12.2359C2.32603 11.8599 2 11.4507 2 10.9999C2 10.2238 2.52374 9.80345 3.22446 9.49999C3.61471 9.33098 4.05986 9.19824 4.5 9.06051C5.00821 8.90148 5.50974 8.73581 5.91237 8.49999C6.14844 8.36172 6.35052 8.19933 6.5 8.00002C6.7401 7.6799 6.91509 7.39114 7.04804 7.12689C7.62757 5.97506 7.40831 5.28884 8.29997 4.49999C8.48175 4.33917 8.7097 4.17408 9 3.99991C9.04115 3.97522 9.08206 3.95234 9.12275 3.93121C9.42657 3.7734 9.71771 3.71292 10 3.7236C10.8806 3.75692 11.6752 4.48269 12.5 5.10585C13.1315 5.58298 13.7808 6.50003 14.5 6.5" stroke="var(--mw-icon-background-default-selection, #B4DEFF)" stroke-width="3" stroke-linejoin="round"/>
<path d="M5.49981 14.4999C5.71366 13.8585 3.87483 13.1439 2.77956 12.2359C2.32603 11.8599 2 11.4507 2 10.9999C2 10.2238 2.52374 9.80345 3.22446 9.49999C3.61471 9.33098 4.05986 9.19824 4.5 9.06051C5.00821 8.90148 5.50974 8.73581 5.91237 8.49999C6.14844 8.36172 6.35052 8.19933 6.5 8.00002C6.7401 7.6799 6.91509 7.39114 7.04804 7.12689C7.62757 5.97506 7.40831 5.28884 8.29997 4.49999C8.48175 4.33917 8.7097 4.17408 9 3.99991C9.04115 3.97522 9.08206 3.95234 9.12275 3.93121C9.42657 3.7734 9.71771 3.71292 10 3.7236C10.8806 3.75692 11.6752 4.48269 12.5 5.10585C13.1315 5.58298 13.7808 6.50003 14.5 6.5" stroke="var(--mw-icon-glyph-content-gray, #616162)" stroke-linecap="round" stroke-linejoin="round"/>
<path d="M10 10.5C10 10.2239 10.2239 10 10.5 10C10.7761 10 11 10.2239 11 10.5C11 10.7761 10.7761 11 10.5 11C10.2239 11 10 10.7761 10 10.5Z" fill="var(--mw-icon-glyph-disabled-gray, #888889)"/>
<path d="M3 3.5C3 3.22386 3.22386 3 3.5 3C3.77614 3 4 3.22386 4 3.5C4 3.77614 3.77614 4 3.5 4C3.22386 4 3 3.77614 3 3.5Z" fill="var(--mw-icon-glyph-disabled-gray, #888889)"/>
<path d="M5 2.5C5 2.22386 5.22386 2 5.5 2C5.77614 2 6 2.22386 6 2.5C6 2.77614 5.77614 3 5.5 3C5.22386 3 5 2.77614 5 2.5Z" fill="var(--mw-icon-glyph-disabled-gray, #888889)"/>
<path d="M11.5 2C11.5 1.72386 11.7239 1.5 12 1.5C12.2761 1.5 12.5 1.72386 12.5 2C12.5 2.27614 12.2761 2.5 12 2.5C11.7239 2.5 11.5 2.27614 11.5 2Z" fill="var(--mw-icon-glyph-disabled-gray, #888889)"/>
<path d="M6 11.5C6 11.2239 6.22386 11 6.5 11C6.77614 11 7 11.2239 7 11.5C7 11.7761 6.77614 12 6.5 12C6.22386 12 6 11.7761 6 11.5Z" fill="var(--mw-icon-glyph-disabled-gray, #888889)"/>
<path d="M8 12.5C8 12.2239 8.22386 12 8.5 12C8.77614 12 9 12.2239 9 12.5C9 12.7761 8.77614 13 8.5 13C8.22386 13 8 12.7761 8 12.5Z" fill="var(--mw-icon-glyph-disabled-gray, #888889)"/>
<path d="M10 7.5C10 7.22386 10.2239 7 10.5 7C10.7761 7 11 7.22386 11 7.5C11 7.77614 10.7761 8 10.5 8C10.2239 8 10 7.77614 10 7.5Z" fill="var(--mw-icon-glyph-disabled-gray, #888889)"/>
<path d="M4 5.5C4 5.22386 4.22386 5 4.5 5C4.77614 5 5 5.22386 5 5.5C5 5.77614 4.77614 6 4.5 6C4.22386 6 4 5.77614 4 5.5Z" fill="var(--mw-icon-glyph-disabled-gray, #888889)"/>
<path d="M2 6.5C2 6.22386 2.22386 6 2.5 6C2.77614 6 3 6.22386 3 6.5C3 6.77614 2.77614 7 2.5 7C2.22386 7 2 6.77614 2 6.5Z" fill="var(--mw-icon-glyph-disabled-gray, #888889)"/>
<path d="M12 12.5C12 12.2239 12.2239 12 12.5 12C12.7761 12 13 12.2239 13 12.5C13 12.7761 12.7761 13 12.5 13C12.2239 13 12 12.7761 12 12.5Z" fill="var(--mw-icon-glyph-disabled-gray, #888889)"/>
<path d="M12 9.5C12 9.22386 12.2239 9 12.5 9C12.7761 9 13 9.22386 13 9.5C13 9.77614 12.7761 10 12.5 10C12.2239 10 12 9.77614 12 9.5Z" fill="var(--mw-icon-glyph-disabled-gray, #888889)"/>
<path d="M0.5 1.5C0.5 0.947716 0.947715 0.5 1.5 0.5H13.5C14.0523 0.5 14.5 0.947715 14.5 1.5V13.5C14.5 14.0523 14.0523 14.5 13.5 14.5H1.5C0.947716 14.5 0.5 14.0523 0.5 13.5V1.5Z" stroke="var(--mw-icon-border-default-gray, #616161)"/>
</svg>
