<svg width="16" height="16" viewBox="0 0 16 16" fill="none" xmlns="http://www.w3.org/2000/svg">
<rect x="2.5" y="2.5" width="12" height="12" rx="1" fill="var(--mw-icon-background-default-medium-gray, #D9D9D9)" stroke="var(--mw-icon-border-default-gray, #616161)"/>
<rect x="0.5" y="0.5" width="12" height="12" rx="1" fill="var(--mw-icon-background-default-white, #FFFFFF)"/>
<path d="M5.5 13H6V12H5.5V13ZM6.5 7.50003L6.9 7.80004L6.5 7.50003ZM9 3.49992L8.74277 3.07117L9 3.49992ZM2.77956 11.7359L2.46045 12.1208L2.46045 12.1208L2.77956 11.7359ZM4.5 8.56052L4.35068 8.08334L4.5 8.56052ZM8.29997 4L8.63127 4.37448L8.63127 4.37448L8.29997 4ZM9.12275 3.43122L8.89227 2.98751L9.12275 3.43122ZM12.5 5.10587H13V4.10587H12.5V5.10587ZM5.5 12C4.95137 12 4.02938 12.1226 3.09868 11.351L2.46045 12.1208C3.72027 13.1653 5.04863 13 5.5 13V12ZM3.09868 11.351C2.65964 10.987 2.5 10.7082 2.5 10.4999H1.5C1.5 11.1932 1.99243 11.7328 2.46045 12.1208L3.09868 11.351ZM2.5 10.4999C2.5 10.2393 2.5825 10.0595 2.71919 9.90932C2.86886 9.74492 3.10098 9.59835 3.42316 9.45882L3.02575 8.54118C2.64722 8.70511 2.26711 8.92046 1.97973 9.23613C1.67938 9.56605 1.5 9.98445 1.5 10.4999H2.5ZM3.6747 8.78255L2.95024 7.28255L2.04976 7.71745L2.77422 9.21745L3.6747 8.78255ZM3.42316 9.45882C3.78298 9.30299 4.19634 9.17945 4.64932 9.0377L4.35068 8.08334C3.92339 8.21705 3.44645 8.35899 3.02575 8.54118L3.42316 9.45882ZM4.05559 8.78966L5.05559 10.7291L5.94441 10.2709L4.94441 8.33138L4.05559 8.78966ZM4.64932 9.0377C5.15093 8.88074 5.70602 8.70031 6.16506 8.43144L5.65967 7.56856C5.31346 7.77133 4.86549 7.92224 4.35068 8.08334L4.64932 9.0377ZM6.16506 8.43144C6.43914 8.27092 6.69909 8.06791 6.9 7.80004L6.1 7.20003C6.00195 7.33077 5.85775 7.45254 5.65967 7.56856L6.16506 8.43144ZM6.3477 7.75406L4.93533 5.25406L4.06467 5.74594L5.47703 8.24594L6.3477 7.75406ZM6.9 7.80004C7.1571 7.45723 7.34791 7.14338 7.4947 6.85163L6.60139 6.40218C6.48228 6.63892 6.32309 6.90258 6.1 7.20003L6.9 7.80004ZM6.79038 7.0554L8.24233 7.9285L8.75767 7.0715L7.30571 6.19841L6.79038 7.0554ZM7.4947 6.85163C7.80908 6.22678 7.92079 5.69033 8.03431 5.32612C8.14548 4.96945 8.27386 4.69069 8.63127 4.37448L7.96866 3.62552C7.43442 4.09817 7.2266 4.55694 7.07961 5.02855C6.93496 5.49262 6.86653 5.87519 6.60139 6.40218L7.4947 6.85163ZM8.63127 4.37448C8.78514 4.23835 8.9869 4.09087 9.25723 3.92868L8.74277 3.07117C8.43249 3.25732 8.17835 3.44 7.96866 3.62552L8.63127 4.37448ZM8.62006 3.61589L6.8201 2.11589L6.1799 2.88411L7.97987 4.38411L8.62006 3.61589ZM9.25723 3.92868C9.28987 3.9091 9.32186 3.89123 9.35323 3.87493L8.89227 2.98751C8.84226 3.01349 8.79243 3.04137 8.74277 3.07117L9.25723 3.92868ZM8.70654 3.7083L10.0838 5.77708L10.9162 5.22292L9.53895 3.15414L8.70654 3.7083ZM9.35323 3.87493C9.5832 3.75548 9.78872 3.71598 9.9811 3.72326L10.0189 2.72397C9.64669 2.70989 9.26993 2.79134 8.89227 2.98751L9.35323 3.87493ZM10.4802 3.36292L10.9802 1.6393L10.0198 1.3607L9.5198 3.08431L10.4802 3.36292ZM9.9811 3.72326C10.0819 3.72707 10.2216 3.77175 10.4128 3.88444C10.6017 3.99571 10.798 4.1468 11.0147 4.31883C11.2194 4.48135 11.4524 4.67114 11.6762 4.81509C11.8903 4.95278 12.1793 5.10587 12.5 5.10587V4.10587C12.4812 4.10587 12.398 4.09033 12.2172 3.97406C12.0462 3.86404 11.8618 3.71452 11.6364 3.53564C11.4231 3.36627 11.1768 3.17388 10.9204 3.02286C10.6665 2.87326 10.3584 2.73682 10.0189 2.72397L9.9811 3.72326Z" fill="var(--mw-icon-glyph-content-gray, #616162)"/>
<path d="M11 8C11 7.72386 11.2239 7.5 11.5 7.5C11.7761 7.5 12 7.72386 12 8C12 8.27614 11.7761 8.5 11.5 8.5C11.2239 8.5 11 8.27614 11 8Z" fill="#1171BE"/>
<path d="M10 5.5C10 5.22386 10.2239 5 10.5 5C10.7761 5 11 5.22386 11 5.5C11 5.77614 10.7761 6 10.5 6C10.2239 6 10 5.77614 10 5.5Z" fill="#1171BE"/>
<path d="M9 9C9 8.72386 9.22386 8.5 9.5 8.5C9.77614 8.5 10 8.72386 10 9C10 9.27614 9.77614 9.5 9.5 9.5C9.22386 9.5 9 9.27614 9 9Z" fill="#1171BE"/>
<path d="M8 7.5C8 7.22386 8.22386 7 8.5 7C8.77614 7 9 7.22386 9 7.5C9 7.77614 8.77614 8 8.5 8C8.22386 8 8 7.77614 8 7.5Z" fill="#1171BE"/>
<path d="M10 10.5C10 10.2239 10.2239 10 10.5 10C10.7761 10 11 10.2239 11 10.5C11 10.7761 10.7761 11 10.5 11C10.2239 11 10 10.7761 10 10.5Z" fill="#1171BE"/>
<path d="M8 11C8 10.7239 8.22386 10.5 8.5 10.5C8.77614 10.5 9 10.7239 9 11C9 11.2761 8.77614 11.5 8.5 11.5C8.22386 11.5 8 11.2761 8 11Z" fill="#1171BE"/>
<path d="M5 10.5C5 10.2239 5.22386 10 5.5 10C5.77614 10 6 10.2239 6 10.5C6 10.7761 5.77614 11 5.5 11C5.22386 11 5 10.7761 5 10.5Z" fill="#1171BE"/>
<path d="M4 3.5C4 3.22386 4.22386 3 4.5 3C4.77614 3 5 3.22386 5 3.5C5 3.77614 4.77614 4 4.5 4C4.22386 4 4 3.77614 4 3.5Z" fill="#DD5400"/>
<path d="M6 2.5C6 2.22386 6.22386 2 6.5 2C6.77614 2 7 2.22386 7 2.5C7 2.77614 6.77614 3 6.5 3C6.22386 3 6 2.77614 6 2.5Z" fill="#DD5400"/>
<path d="M10 1.5C10 1.22386 10.2239 1 10.5 1C10.7761 1 11 1.22386 11 1.5C11 1.77614 10.7761 2 10.5 2C10.2239 2 10 1.77614 10 1.5Z" fill="#DD5400"/>
<path d="M2 2.5C2 2.22386 2.22386 2 2.5 2C2.77614 2 3 2.22386 3 2.5C3 2.77614 2.77614 3 2.5 3C2.22386 3 2 2.77614 2 2.5Z" fill="#DD5400"/>
<path d="M2 4.5C2 4.22386 2.22386 4 2.5 4C2.77614 4 3 4.22386 3 4.5C3 4.77614 2.77614 5 2.5 5C2.22386 5 2 4.77614 2 4.5Z" fill="#DD5400"/>
<path d="M4 5.5C4 5.22386 4.22386 5 4.5 5C4.77614 5 5 5.22386 5 5.5C5 5.77614 4.77614 6 4.5 6C4.22386 6 4 5.77614 4 5.5Z" fill="#DD5400"/>
<path d="M2 7.5C2 7.22386 2.22386 7 2.5 7C2.77614 7 3 7.22386 3 7.5C3 7.77614 2.77614 8 2.5 8C2.22386 8 2 7.77614 2 7.5Z" fill="#DD5400"/>
<rect x="12" y="9.5" width="1" height="1" rx="0.5" fill="#1171BE"/>
<rect x="0.5" y="0.5" width="12" height="12" rx="1" stroke="var(--mw-icon-border-default-gray, #616161)"/>
</svg>
