<svg width="16" height="16" viewBox="0 0 16 16" fill="none" xmlns="http://www.w3.org/2000/svg">
<rect x="2.5" y="2.5" width="12" height="12" rx="1" fill="var(--mw-icon-background-default-medium-gray, #D9D9D9)" stroke="var(--mw-icon-border-default-gray, #616161)"/>
<rect x="0.5" y="0.5" width="12" height="12" rx="1" fill="var(--mw-icon-background-default-white, #FFFFFF)"/>
<path d="M5.5 12.5C5.5 11.5 3.99986 11.4935 3.12365 10.8194C2.76083 10.5403 2.5 10.2366 2.5 9.90199C2.5 9.32592 2.91899 9.01388 3.47957 8.78863C3.79177 8.66317 4.14789 8.56464 4.5 8.46241C4.90657 8.34436 5.30779 8.22138 5.62989 8.04634C5.81876 7.9437 5.98042 7.82316 6.1 7.67522C6.29208 7.43759 6.43207 7.22325 6.53843 7.0271C7.00206 6.17211 6.82665 5.66274 7.53997 5.07719C7.6854 4.95781 7.96596 4.78427 8.1982 4.65499M8.1982 4.65499C8.23112 4.63666 8.16565 4.67068 8.1982 4.65499ZM8.1982 4.65499C8.44125 4.53784 8.67416 4.49296 8.9 4.50088C9.60451 4.52562 10.2402 5.06435 10.9 5.52691C11.4052 5.88108 11.9246 6.50002 12.5 6.5" stroke="var(--mw-icon-background-default-selection, #B4DEFF)" stroke-width="3" stroke-linejoin="round"/>
<path d="M5.5 12.5C5.67108 12.0239 3.99986 11.4935 3.12365 10.8194C2.76083 10.5403 2.5 10.2366 2.5 9.90199C2.5 9.32592 2.91899 9.01388 3.47957 8.78863C3.79177 8.66317 4.14789 8.56464 4.5 8.46241C4.90657 8.34436 5.30779 8.22138 5.62989 8.04634C5.81876 7.9437 5.98042 7.82316 6.1 7.67522C6.29208 7.43759 6.43207 7.22325 6.53843 7.0271C7.00206 6.17211 6.82665 5.66274 7.53997 5.07719C7.6854 4.95781 7.96596 4.78427 8.1982 4.65499M8.1982 4.65499C8.23112 4.63666 8.16565 4.67068 8.1982 4.65499ZM8.1982 4.65499C8.44125 4.53784 8.67416 4.49296 8.9 4.50088C9.60451 4.52562 10.2402 5.06435 10.9 5.52691C11.4052 5.88108 11.9246 6.50002 12.5 6.5" stroke="var(--mw-icon-glyph-content-gray, #616162)" stroke-linecap="round" stroke-linejoin="round"/>
<path d="M10 10.5C10 10.2239 10.2239 10 10.5 10C10.7761 10 11 10.2239 11 10.5C11 10.7761 10.7761 11 10.5 11C10.2239 11 10 10.7761 10 10.5Z" fill="var(--mw-icon-glyph-disabled-gray, #888889)"/>
<path d="M2 2.5C2 2.22386 2.22386 2 2.5 2C2.77614 2 3 2.22386 3 2.5C3 2.77614 2.77614 3 2.5 3C2.22386 3 2 2.77614 2 2.5Z" fill="var(--mw-icon-glyph-disabled-gray, #888889)"/>
<path d="M5 2.5C5 2.22386 5.22386 2 5.5 2C5.77614 2 6 2.22386 6 2.5C6 2.77614 5.77614 3 5.5 3C5.22386 3 5 2.77614 5 2.5Z" fill="var(--mw-icon-glyph-disabled-gray, #888889)"/>
<path d="M8 10.5C8 10.2239 8.22386 10 8.5 10C8.77614 10 9 10.2239 9 10.5C9 10.7761 8.77614 11 8.5 11C8.22386 11 8 10.7761 8 10.5Z" fill="var(--mw-icon-glyph-disabled-gray, #888889)"/>
<path d="M9 8.5C9 8.22386 9.22386 8 9.5 8C9.77614 8 10 8.22386 10 8.5C10 8.77614 9.77614 9 9.5 9C9.22386 9 9 8.77614 9 8.5Z" fill="var(--mw-icon-glyph-disabled-gray, #888889)"/>
<path d="M4 4.5C4 4.22386 4.22386 4 4.5 4C4.77614 4 5 4.22386 5 4.5C5 4.77614 4.77614 5 4.5 5C4.22386 5 4 4.77614 4 4.5Z" fill="var(--mw-icon-glyph-disabled-gray, #888889)"/>
<path d="M2 5.5C2 5.22386 2.22386 5 2.5 5C2.77614 5 3 5.22386 3 5.5C3 5.77614 2.77614 6 2.5 6C2.22386 6 2 5.77614 2 5.5Z" fill="var(--mw-icon-glyph-disabled-gray, #888889)"/>
<rect x="0.5" y="0.5" width="12" height="12" rx="1" stroke="var(--mw-icon-border-default-gray, #616161)"/>
</svg>
