<svg width="16" height="16" viewBox="0 0 16 16" fill="none" xmlns="http://www.w3.org/2000/svg">
<rect x="0.5" y="0.5" width="14" height="14" rx="1" fill="var(--mw-icon-background-default-white, #FFFFFF)"/>
<path d="M0.5 13.5C0.5 12.9477 0.947715 12.5 1.5 12.5C2.05228 12.5 2.5 12.9477 2.5 13.5C2.5 14.0523 2.05228 14.5 1.5 14.5C0.947715 14.5 0.5 14.0523 0.5 13.5Z" fill="white"/>
<path d="M12.5 10.5C12.5 9.94772 12.9477 9.5 13.5 9.5C14.0523 9.5 14.5 9.94772 14.5 10.5C14.5 11.0523 14.0523 11.5 13.5 11.5C12.9477 11.5 12.5 11.0523 12.5 10.5Z" fill="white"/>
<path d="M1.5 2.5C1.5 1.94772 1.94772 1.5 2.5 1.5C3.05228 1.5 3.5 1.94772 3.5 2.5C3.5 3.05228 3.05228 3.5 2.5 3.5C1.94772 3.5 1.5 3.05228 1.5 2.5Z" fill="white"/>
<path d="M6.52686 5.52612C6.52686 4.97384 6.97457 4.52612 7.52686 4.52612C8.07914 4.52612 8.52686 4.97384 8.52686 5.52612C8.52686 6.07841 8.07914 6.52612 7.52686 6.52612C6.97457 6.52612 6.52686 6.07841 6.52686 5.52612Z" fill="white"/>
<path d="M8.5 9.5C8.5 8.94772 8.94772 8.5 9.5 8.5C10.0523 8.5 10.5 8.94772 10.5 9.5C10.5 10.0523 10.0523 10.5 9.5 10.5C8.94772 10.5 8.5 10.0523 8.5 9.5Z" fill="white"/>
<path d="M0.5 13.5C0.5 12.9477 0.947715 12.5 1.5 12.5C2.05228 12.5 2.5 12.9477 2.5 13.5C2.5 14.0523 2.05228 14.5 1.5 14.5C0.947715 14.5 0.5 14.0523 0.5 13.5Z" stroke="#1171BE"/>
<path d="M12.5 10.5C12.5 9.94772 12.9477 9.5 13.5 9.5C14.0523 9.5 14.5 9.94772 14.5 10.5C14.5 11.0523 14.0523 11.5 13.5 11.5C12.9477 11.5 12.5 11.0523 12.5 10.5Z" stroke="#1171BE"/>
<path d="M1.5 2.5C1.5 1.94772 1.94772 1.5 2.5 1.5C3.05228 1.5 3.5 1.94772 3.5 2.5C3.5 3.05228 3.05228 3.5 2.5 3.5C1.94772 3.5 1.5 3.05228 1.5 2.5Z" stroke="#1171BE"/>
<path d="M6.52686 5.52612C6.52686 4.97384 6.97457 4.52612 7.52686 4.52612C8.07914 4.52612 8.52686 4.97384 8.52686 5.52612C8.52686 6.07841 8.07914 6.52612 7.52686 6.52612C6.97457 6.52612 6.52686 6.07841 6.52686 5.52612Z" stroke="#1171BE"/>
<path d="M8.5 9.5C8.5 8.94772 8.94772 8.5 9.5 8.5C10.0523 8.5 10.5 8.94772 10.5 9.5C10.5 10.0523 10.0523 10.5 9.5 10.5C8.94772 10.5 8.5 10.0523 8.5 9.5Z" stroke="#1171BE"/>
<path d="M12.5 2.5C12.5 1.94772 12.9477 1.5 13.5 1.5C14.0523 1.5 14.5 1.94772 14.5 2.5C14.5 3.05228 14.0523 3.5 13.5 3.5C12.9477 3.5 12.5 3.05228 12.5 2.5Z" fill="white"/>
<path d="M12.5 13.5C12.5 12.9477 12.9477 12.5 13.5 12.5C14.0523 12.5 14.5 12.9477 14.5 13.5C14.5 14.0523 14.0523 14.5 13.5 14.5C12.9477 14.5 12.5 14.0523 12.5 13.5Z" fill="white"/>
<path d="M9.5 6.5C9.5 5.94772 9.94772 5.5 10.5 5.5C11.0523 5.5 11.5 5.94772 11.5 6.5C11.5 7.05228 11.0523 7.5 10.5 7.5C9.94772 7.5 9.5 7.05228 9.5 6.5Z" fill="white"/>
<path d="M5.5 8.5C5.5 7.94772 5.94772 7.5 6.5 7.5C7.05228 7.5 7.5 7.94772 7.5 8.5C7.5 9.05228 7.05228 9.5 6.5 9.5C5.94772 9.5 5.5 9.05228 5.5 8.5Z" fill="white"/>
<path d="M12.5 2.5C12.5 1.94772 12.9477 1.5 13.5 1.5C14.0523 1.5 14.5 1.94772 14.5 2.5C14.5 3.05228 14.0523 3.5 13.5 3.5C12.9477 3.5 12.5 3.05228 12.5 2.5Z" stroke="#DD5400"/>
<path d="M12.5 13.5C12.5 12.9477 12.9477 12.5 13.5 12.5C14.0523 12.5 14.5 12.9477 14.5 13.5C14.5 14.0523 14.0523 14.5 13.5 14.5C12.9477 14.5 12.5 14.0523 12.5 13.5Z" stroke="#DD5400"/>
<path d="M9.5 6.5C9.5 5.94772 9.94772 5.5 10.5 5.5C11.0523 5.5 11.5 5.94772 11.5 6.5C11.5 7.05228 11.0523 7.5 10.5 7.5C9.94772 7.5 9.5 7.05228 9.5 6.5Z" stroke="#DD5400"/>
<path d="M5.5 8.5C5.5 7.94772 5.94772 7.5 6.5 7.5C7.05228 7.5 7.5 7.94772 7.5 8.5C7.5 9.05228 7.05228 9.5 6.5 9.5C5.94772 9.5 5.5 9.05228 5.5 8.5Z" stroke="#DD5400"/>
<circle cx="8" cy="7.5" r="4" stroke="var(--mw-icon-glyph-content-gray, #616162)"/>
<rect x="0.5" y="0.5" width="14" height="14" rx="1" stroke="#212121"/>
</svg>
