<svg width="16" height="16" viewBox="0 0 16 16" fill="none" xmlns="http://www.w3.org/2000/svg">
<rect x="0.5" y="0.5" width="14" height="14" rx="2" fill="var(--mw-icon-background-default-white, #FFFFFF)"/>
<path d="M8.5 4.5C8.5 3.94772 8.94772 3.5 9.5 3.5C10.0523 3.5 10.5 3.94772 10.5 4.5C10.5 5.05228 10.0523 5.5 9.5 5.5C8.94772 5.5 8.5 5.05228 8.5 4.5Z" fill="white"/>
<path d="M7.5 7.5C7.5 6.94772 7.94772 6.5 8.5 6.5C9.05228 6.5 9.5 6.94772 9.5 7.5C9.5 8.05228 9.05228 8.5 8.5 8.5C7.94772 8.5 7.5 8.05228 7.5 7.5Z" fill="white"/>
<path d="M4.5 5.5C4.5 4.94772 4.94772 4.5 5.5 4.5C6.05228 4.5 6.5 4.94772 6.5 5.5C6.5 6.05228 6.05228 6.5 5.5 6.5C4.94772 6.5 4.5 6.05228 4.5 5.5Z" fill="white"/>
<path d="M8.5 4.5C8.5 3.94772 8.94772 3.5 9.5 3.5C10.0523 3.5 10.5 3.94772 10.5 4.5C10.5 5.05228 10.0523 5.5 9.5 5.5C8.94772 5.5 8.5 5.05228 8.5 4.5Z" stroke="#1171BE"/>
<path d="M7.5 7.5C7.5 6.94772 7.94772 6.5 8.5 6.5C9.05228 6.5 9.5 6.94772 9.5 7.5C9.5 8.05228 9.05228 8.5 8.5 8.5C7.94772 8.5 7.5 8.05228 7.5 7.5Z" stroke="#1171BE"/>
<path d="M4.5 5.5C4.5 4.94772 4.94772 4.5 5.5 4.5C6.05228 4.5 6.5 4.94772 6.5 5.5C6.5 6.05228 6.05228 6.5 5.5 6.5C4.94772 6.5 4.5 6.05228 4.5 5.5Z" stroke="#1171BE"/>
<path d="M3.5 9.5C3.5 8.94772 3.94772 8.5 4.5 8.5C5.05228 8.5 5.5 8.94772 5.5 9.5C5.5 10.0523 5.05228 10.5 4.5 10.5C3.94772 10.5 3.5 10.0523 3.5 9.5Z" fill="white"/>
<path d="M8.5 10.5C8.5 9.94772 8.94772 9.5 9.5 9.5C10.0523 9.5 10.5 9.94772 10.5 10.5C10.5 11.0523 10.0523 11.5 9.5 11.5C8.94772 11.5 8.5 11.0523 8.5 10.5Z" fill="white"/>
<path d="M3.5 9.5C3.5 8.94772 3.94772 8.5 4.5 8.5C5.05228 8.5 5.5 8.94772 5.5 9.5C5.5 10.0523 5.05228 10.5 4.5 10.5C3.94772 10.5 3.5 10.0523 3.5 9.5Z" stroke="#DD5400"/>
<path d="M8.5 10.5C8.5 9.94772 8.94772 9.5 9.5 9.5C10.0523 9.5 10.5 9.94772 10.5 10.5C10.5 11.0523 10.0523 11.5 9.5 11.5C8.94772 11.5 8.5 11.0523 8.5 10.5Z" stroke="#DD5400"/>
<circle cx="7.5" cy="7.5" r="5" stroke="var(--mw-icon-glyph-content-gray, #616162)"/>
<rect x="0.5" y="0.5" width="14" height="14" rx="2" stroke="#212121"/>
</svg>
