<svg width="16" height="16" viewBox="0 0 16 16" fill="none" xmlns="http://www.w3.org/2000/svg">
<rect x="0.5" y="0.5" width="14" height="14" rx="1" fill="var(--mw-icon-background-default-white, #FFFFFF)"/>
<path d="M11.5 12.5C11.5 11.9477 11.9477 11.5 12.5 11.5C13.0523 11.5 13.5 11.9477 13.5 12.5C13.5 13.0523 13.0523 13.5 12.5 13.5C11.9477 13.5 11.5 13.0523 11.5 12.5Z" fill="white"/>
<path d="M2.5 11.5C2.5 10.9477 2.94772 10.5 3.5 10.5C4.05228 10.5 4.5 10.9477 4.5 11.5C4.5 12.0523 4.05228 12.5 3.5 12.5C2.94772 12.5 2.5 12.0523 2.5 11.5Z" fill="white"/>
<path d="M10.5 3.5C10.5 2.94772 10.9477 2.5 11.5 2.5C12.0523 2.5 12.5 2.94772 12.5 3.5C12.5 4.05228 12.0523 4.5 11.5 4.5C10.9477 4.5 10.5 4.05228 10.5 3.5Z" fill="white"/>
<path d="M7.5 6.5C7.5 5.94772 7.94772 5.5 8.5 5.5C9.05228 5.5 9.5 5.94772 9.5 6.5C9.5 7.05228 9.05228 7.5 8.5 7.5C7.94772 7.5 7.5 7.05228 7.5 6.5Z" fill="white"/>
<path d="M11.5 12.5C11.5 11.9477 11.9477 11.5 12.5 11.5C13.0523 11.5 13.5 11.9477 13.5 12.5C13.5 13.0523 13.0523 13.5 12.5 13.5C11.9477 13.5 11.5 13.0523 11.5 12.5Z" stroke="#1171BE"/>
<path d="M2.5 11.5C2.5 10.9477 2.94772 10.5 3.5 10.5C4.05228 10.5 4.5 10.9477 4.5 11.5C4.5 12.0523 4.05228 12.5 3.5 12.5C2.94772 12.5 2.5 12.0523 2.5 11.5Z" stroke="#1171BE"/>
<path d="M10.5 3.5C10.5 2.94772 10.9477 2.5 11.5 2.5C12.0523 2.5 12.5 2.94772 12.5 3.5C12.5 4.05228 12.0523 4.5 11.5 4.5C10.9477 4.5 10.5 4.05228 10.5 3.5Z" stroke="#1171BE"/>
<path d="M7.5 6.5C7.5 5.94772 7.94772 5.5 8.5 5.5C9.05228 5.5 9.5 5.94772 9.5 6.5C9.5 7.05228 9.05228 7.5 8.5 7.5C7.94772 7.5 7.5 7.05228 7.5 6.5Z" stroke="#1171BE"/>
<path d="M2.5 3.5C2.5 2.94772 2.94772 2.5 3.5 2.5C4.05228 2.5 4.5 2.94772 4.5 3.5C4.5 4.05228 4.05228 4.5 3.5 4.5C2.94772 4.5 2.5 4.05228 2.5 3.5Z" fill="white"/>
<path d="M4.5 8.5C4.5 7.94772 4.94772 7.5 5.5 7.5C6.05228 7.5 6.5 7.94772 6.5 8.5C6.5 9.05228 6.05228 9.5 5.5 9.5C4.94772 9.5 4.5 9.05228 4.5 8.5Z" fill="white"/>
<path d="M2.5 3.5C2.5 2.94772 2.94772 2.5 3.5 2.5C4.05228 2.5 4.5 2.94772 4.5 3.5C4.5 4.05228 4.05228 4.5 3.5 4.5C2.94772 4.5 2.5 4.05228 2.5 3.5Z" stroke="#DD5400"/>
<path d="M4.5 8.5C4.5 7.94772 4.94772 7.5 5.5 7.5C6.05228 7.5 6.5 7.94772 6.5 8.5C6.5 9.05228 6.05228 9.5 5.5 9.5C4.94772 9.5 4.5 9.05228 4.5 8.5Z" stroke="#DD5400"/>
<circle cx="7.5" cy="7.5" r="3" stroke="var(--mw-icon-glyph-content-gray, #616162)"/>
<rect x="0.5" y="0.5" width="14" height="14" rx="1" stroke="#212121"/>
</svg>
