<svg width="16" height="16" viewBox="0 0 16 16" fill="none" xmlns="http://www.w3.org/2000/svg">
<rect x="0.5" y="0.5" width="14" height="14" rx="1" fill="var(--mw-icon-background-default-white, #FFFFFF)"/>
<path d="M1.5 12.5C1.5 11.9477 1.94772 11.5 2.5 11.5C3.05228 11.5 3.5 11.9477 3.5 12.5C3.5 13.0523 3.05228 13.5 2.5 13.5C1.94772 13.5 1.5 13.0523 1.5 12.5Z" fill="white"/>
<path d="M12.5 13.5C12.5 12.9477 12.9477 12.5 13.5 12.5C14.0523 12.5 14.5 12.9477 14.5 13.5C14.5 14.0523 14.0523 14.5 13.5 14.5C12.9477 14.5 12.5 14.0523 12.5 13.5Z" fill="white"/>
<path d="M11.5 2.5C11.5 1.94772 11.9477 1.5 12.5 1.5C13.0523 1.5 13.5 1.94772 13.5 2.5C13.5 3.05228 13.0523 3.5 12.5 3.5C11.9477 3.5 11.5 3.05228 11.5 2.5Z" fill="white"/>
<path d="M7.5 5.5C7.5 4.94772 7.94772 4.5 8.5 4.5C9.05228 4.5 9.5 4.94772 9.5 5.5C9.5 6.05228 9.05228 6.5 8.5 6.5C7.94772 6.5 7.5 6.05228 7.5 5.5Z" fill="white"/>
<path d="M7.5 8.5C7.5 7.94772 7.94772 7.5 8.5 7.5C9.05228 7.5 9.5 7.94772 9.5 8.5C9.5 9.05228 9.05228 9.5 8.5 9.5C7.94772 9.5 7.5 9.05228 7.5 8.5Z" fill="white"/>
<path d="M1.5 12.5C1.5 11.9477 1.94772 11.5 2.5 11.5C3.05228 11.5 3.5 11.9477 3.5 12.5C3.5 13.0523 3.05228 13.5 2.5 13.5C1.94772 13.5 1.5 13.0523 1.5 12.5Z" stroke="#1171BE"/>
<path d="M12.5 13.5C12.5 12.9477 12.9477 12.5 13.5 12.5C14.0523 12.5 14.5 12.9477 14.5 13.5C14.5 14.0523 14.0523 14.5 13.5 14.5C12.9477 14.5 12.5 14.0523 12.5 13.5Z" stroke="#1171BE"/>
<path d="M11.5 2.5C11.5 1.94772 11.9477 1.5 12.5 1.5C13.0523 1.5 13.5 1.94772 13.5 2.5C13.5 3.05228 13.0523 3.5 12.5 3.5C11.9477 3.5 11.5 3.05228 11.5 2.5Z" stroke="#1171BE"/>
<path d="M7.5 5.5C7.5 4.94772 7.94772 4.5 8.5 4.5C9.05228 4.5 9.5 4.94772 9.5 5.5C9.5 6.05228 9.05228 6.5 8.5 6.5C7.94772 6.5 7.5 6.05228 7.5 5.5Z" stroke="#1171BE"/>
<path d="M7.5 8.5C7.5 7.94772 7.94772 7.5 8.5 7.5C9.05228 7.5 9.5 7.94772 9.5 8.5C9.5 9.05228 9.05228 9.5 8.5 9.5C7.94772 9.5 7.5 9.05228 7.5 8.5Z" stroke="#1171BE"/>
<circle cx="7.5" cy="7.5" r="4" stroke="var(--mw-icon-glyph-content-gray, #616162)"/>
<path d="M1.5 2.5C1.5 1.94772 1.94772 1.5 2.5 1.5C3.05228 1.5 3.5 1.94772 3.5 2.5C3.5 3.05228 3.05228 3.5 2.5 3.5C1.94772 3.5 1.5 3.05228 1.5 2.5Z" fill="white"/>
<path d="M4.5 7.5C4.5 6.94772 4.94772 6.5 5.5 6.5C6.05228 6.5 6.5 6.94772 6.5 7.5C6.5 8.05228 6.05228 8.5 5.5 8.5C4.94772 8.5 4.5 8.05228 4.5 7.5Z" fill="white"/>
<path d="M1.5 2.5C1.5 1.94772 1.94772 1.5 2.5 1.5C3.05228 1.5 3.5 1.94772 3.5 2.5C3.5 3.05228 3.05228 3.5 2.5 3.5C1.94772 3.5 1.5 3.05228 1.5 2.5Z" stroke="#DD5400"/>
<path d="M4.5 7.5C4.5 6.94772 4.94772 6.5 5.5 6.5C6.05228 6.5 6.5 6.94772 6.5 7.5C6.5 8.05228 6.05228 8.5 5.5 8.5C4.94772 8.5 4.5 8.05228 4.5 7.5Z" stroke="#DD5400"/>
<rect x="0.5" y="0.5" width="14" height="14" rx="1" stroke="#212121"/>
</svg>
