<svg width="16" height="16" viewBox="0 0 16 16" fill="none" xmlns="http://www.w3.org/2000/svg">
<rect x="2.5" y="2.5" width="12" height="12" rx="1" fill="var(--mw-icon-background-default-medium-gray, #D9D9D9)" stroke="#212121"/>
<rect x="0.5" y="0.5" width="12" height="12" rx="1" fill="var(--mw-icon-background-default-white, #FFFFFF)"/>
<path d="M8.5 11.5C8.5 10.9477 8.94772 10.5 9.5 10.5C10.0523 10.5 10.5 10.9477 10.5 11.5C10.5 12.0523 10.0523 12.5 9.5 12.5C8.94772 12.5 8.5 12.0523 8.5 11.5Z" fill="white"/>
<path d="M10.5 8.5C10.5 7.94772 10.9477 7.5 11.5 7.5C12.0523 7.5 12.5 7.94772 12.5 8.5C12.5 9.05228 12.0523 9.5 11.5 9.5C10.9477 9.5 10.5 9.05228 10.5 8.5Z" fill="white"/>
<path d="M1.5 11.5C1.5 10.9477 1.94772 10.5 2.5 10.5C3.05228 10.5 3.5 10.9477 3.5 11.5C3.5 12.0523 3.05228 12.5 2.5 12.5C1.94772 12.5 1.5 12.0523 1.5 11.5Z" fill="white"/>
<path d="M6.5 5.5C6.5 4.94772 6.94772 4.5 7.5 4.5C8.05228 4.5 8.5 4.94772 8.5 5.5C8.5 6.05228 8.05228 6.5 7.5 6.5C6.94772 6.5 6.5 6.05228 6.5 5.5Z" fill="white"/>
<path d="M8.5 11.5C8.5 10.9477 8.94772 10.5 9.5 10.5C10.0523 10.5 10.5 10.9477 10.5 11.5C10.5 12.0523 10.0523 12.5 9.5 12.5C8.94772 12.5 8.5 12.0523 8.5 11.5Z" stroke="#1171BE"/>
<path d="M10.5 8.5C10.5 7.94772 10.9477 7.5 11.5 7.5C12.0523 7.5 12.5 7.94772 12.5 8.5C12.5 9.05228 12.0523 9.5 11.5 9.5C10.9477 9.5 10.5 9.05228 10.5 8.5Z" stroke="#1171BE"/>
<path d="M1.5 11.5C1.5 10.9477 1.94772 10.5 2.5 10.5C3.05228 10.5 3.5 10.9477 3.5 11.5C3.5 12.0523 3.05228 12.5 2.5 12.5C1.94772 12.5 1.5 12.0523 1.5 11.5Z" stroke="#1171BE"/>
<path d="M6.5 5.5C6.5 4.94772 6.94772 4.5 7.5 4.5C8.05228 4.5 8.5 4.94772 8.5 5.5C8.5 6.05228 8.05228 6.5 7.5 6.5C6.94772 6.5 6.5 6.05228 6.5 5.5Z" stroke="#1171BE"/>
<path d="M1.5 2.5C1.5 1.94772 1.94772 1.5 2.5 1.5C3.05228 1.5 3.5 1.94772 3.5 2.5C3.5 3.05228 3.05228 3.5 2.5 3.5C1.94772 3.5 1.5 3.05228 1.5 2.5Z" fill="white"/>
<path d="M4.5 7.5C4.5 6.94772 4.94772 6.5 5.5 6.5C6.05228 6.5 6.5 6.94772 6.5 7.5C6.5 8.05228 6.05228 8.5 5.5 8.5C4.94772 8.5 4.5 8.05228 4.5 7.5Z" fill="white"/>
<path d="M1.5 2.5C1.5 1.94772 1.94772 1.5 2.5 1.5C3.05228 1.5 3.5 1.94772 3.5 2.5C3.5 3.05228 3.05228 3.5 2.5 3.5C1.94772 3.5 1.5 3.05228 1.5 2.5Z" stroke="#DD5400"/>
<path d="M4.5 7.5C4.5 6.94772 4.94772 6.5 5.5 6.5C6.05228 6.5 6.5 6.94772 6.5 7.5C6.5 8.05228 6.05228 8.5 5.5 8.5C4.94772 8.5 4.5 8.05228 4.5 7.5Z" stroke="#DD5400"/>
<circle cx="6.5" cy="6.5" r="3" stroke="var(--mw-icon-glyph-content-gray, #616162)"/>
<rect x="0.5" y="0.5" width="12" height="12" rx="1" stroke="#212121"/>
</svg>
