<svg width="16" height="16" viewBox="0 0 16 16" fill="none" xmlns="http://www.w3.org/2000/svg">
<path d="M7.5 11L0.5 7.5V11L7.5 14.5V11Z" fill="var(--mw-icon-background-red, #FF9D9A)" stroke="var(--mw-icon-border-default-red, #902622)" stroke-linejoin="round"/>
<path d="M7.5 11L14.5 7.5V11L7.5 14.5L4 12.75V9.25L7.5 11Z" fill="#FFAB66"/>
<path d="M7.5 11L14.5 7.5V11L7.5 14.5M7.5 11V14.5M7.5 11L4 9.25V12.75L7.5 14.5" stroke="#A24302" stroke-linejoin="round"/>
<path d="M0.5 4L4 2.25L11 5.75V9.25L7.5 11L4 9.25L0.5 7.5V4Z" fill="var(--mw-icon-background-default-action, #CBFFBE)"/>
<path d="M0.5 4L7.5 7.5M0.5 4L4 2.25L11 5.75M0.5 4V7.5L4 9.25L7.5 11M7.5 7.5C7.5 7.5 9.88169 6.30915 11 5.75M7.5 7.5C7.5 7.5 7.5 9.82631 7.5 11M11 5.75V9.25L7.5 11" stroke="var(--mw-icon-border-default-green, #008013)" stroke-linejoin="round"/>
<path d="M7.5 0.5L14.5 4V7.5L11 9.25V5.75L4 2.25L7.5 0.5Z" fill="var(--mw-icon-background-default-selection, #B4DEFF)"/>
<path d="M14.5 4L7.5 0.5L4 2.25L11 5.75M14.5 4L11 5.75M14.5 4V7.5L11 9.25V5.75" stroke="var(--mw-icon-border-default-blue, #1656A7)" stroke-linejoin="round"/>
</svg>
