<svg width="16" height="16" viewBox="0 0 16 16" fill="none" xmlns="http://www.w3.org/2000/svg">
<path d="M1.5 3.5H12.5V11C12.5 11.2761 12.2761 11.5 12 11.5H2C1.72386 11.5 1.5 11.2761 1.5 11V3.5Z" fill="var(--mw-icon-background-lightest-blue, #E2F0FF)" stroke="var(--mw-icon-border-default-blue, #1656A7)"/>
<path d="M0.5 1C0.5 0.723858 0.723858 0.5 1 0.5H13C13.2761 0.5 13.5 0.723858 13.5 1V3.5H0.5V1Z" fill="var(--mw-icon-background-lightest-blue, #E2F0FF)"/>
<path d="M13.5 3.5V4C13.7761 4 14 3.77614 14 3.5H13.5ZM0.5 3.5H0C0 3.77614 0.223858 4 0.5 4L0.5 3.5ZM1 1H13V0H1V1ZM13 1V3.5H14V1H13ZM13.5 3H0.5V4H13.5V3ZM1 3.5V1H0V3.5H1ZM13 1H14C14 0.447715 13.5523 0 13 0V1ZM1 0C0.447715 0 0 0.447715 0 1H1V1V0Z" fill="var(--mw-icon-border-default-blue, #1656A7)"/>
<path d="M9.5 15V9.58114C9.5 9.5274 9.50866 9.47401 9.52566 9.42302L10.386 6.84189C10.4541 6.63772 10.6452 6.5 10.8604 6.5H14.1396C14.3548 6.5 14.5459 6.63772 14.614 6.84189L15.4743 9.42302C15.4913 9.47401 15.5 9.5274 15.5 9.58114V15C15.5 15.2761 15.2761 15.5 15 15.5H10C9.72386 15.5 9.5 15.2761 9.5 15Z" fill="var(--mw-icon-background-default-selection, #B4DEFF)" stroke="var(--mw-icon-glyph-content-blue, #1656A8)" stroke-linejoin="round"/>
<path d="M13 8.5C13 8.77614 12.7761 9 12.5 9C12.2238 9 12 8.77614 12 8.5C12 8.22386 12.2238 8 12.5 8C12.7761 8 13 8.22386 13 8.5Z" fill="var(--mw-icon-glyph-content-blue, #1656A8)"/>
</svg>
