<svg width="16" height="16" viewBox="0 0 16 16" fill="none" xmlns="http://www.w3.org/2000/svg">
<path d="M11.5 0.5H1.5C0.947715 0.5 0.5 0.947715 0.5 1.5V11.5C0.5 12.0523 0.947715 12.5 1.5 12.5H11.5C12.0523 12.5 12.5 12.0523 12.5 11.5V1.5C12.5 0.947715 12.0523 0.5 11.5 0.5Z" fill="var(--mw-icon-background-default-white, #FFFFFF)" stroke="var(--mw-icon-border-default-gray, #616161)"/>
<path d="M4.5 2.5H8.5C8.63455 2.50002 7.6829 3.15174 6.5 4.06058C8.24763 5.40332 10.5 7.30728 10.5 8.49998C10.5 10.5 9 10.5 8.57407 10.5H4.72222C4.44444 10.5 2.5 10.5 2.5 8.49998C2.5 7.30728 4.75237 5.40332 6.5 4.06058C5.31711 3.15174 4.36545 2.50002 4.5 2.5Z" fill="var(--mw-icon-background-default-dark-gray, #A6A6A6)" stroke="var(--mw-icon-glyph-content-dark-gray, #333333)"/>
<path d="M8.5 15V7.58114C8.5 7.5274 8.50866 7.47401 8.52566 7.42302L9.38604 4.84189C9.45409 4.63772 9.64516 4.5 9.86038 4.5H14.1396C14.3548 4.5 14.5459 4.63772 14.614 4.84189L15.4743 7.42302C15.4913 7.47401 15.5 7.5274 15.5 7.58114V15C15.5 15.2761 15.2761 15.5 15 15.5H9C8.72386 15.5 8.5 15.2761 8.5 15Z" fill="var(--mw-icon-background-default-selection, #B4DEFF)" stroke="var(--mw-icon-border-default-blue, #1656A7)" stroke-linejoin="round"/>
<path d="M12.5 7C12.5 7.27614 12.2761 7.5 12 7.5C11.7238 7.5 11.5 7.27614 11.5 7C11.5 6.72386 11.7238 6.5 12 6.5C12.2761 6.5 12.5 6.72386 12.5 7Z" stroke="var(--mw-icon-glyph-content-blue, #1656A8)"/>
</svg>
