<svg width="16" height="16" viewBox="0 0 16 16" fill="none" xmlns="http://www.w3.org/2000/svg">
<rect x="0.5" y="0.5" width="12" height="12" rx="1" fill="var(--mw-icon-background-default-white, #FFFFFF)"/>
<path d="M0.5 6.5L0.888492 7.2555C2.56499 10.5158 4.98186 10.1904 6.5 6.5C8.01814 2.80961 10.435 2.48421 12.1115 5.7445L12.5 6.5" stroke="#0072BD"/>
<rect x="0.5" y="0.5" width="12" height="12" rx="1" stroke="var(--mw-icon-border-default-gray, #616161)"/>
<path d="M9.5 15V9.58114C9.5 9.5274 9.50866 9.47401 9.52566 9.42302L10.386 6.84189C10.4541 6.63772 10.6452 6.5 10.8604 6.5H14.1396C14.3548 6.5 14.5459 6.63772 14.614 6.84189L15.4743 9.42302C15.4913 9.47401 15.5 9.5274 15.5 9.58114V15C15.5 15.2761 15.2761 15.5 15 15.5H10C9.72386 15.5 9.5 15.2761 9.5 15Z" fill="var(--mw-icon-background-default-selection, #B4DEFF)" stroke="var(--mw-icon-glyph-content-blue, #1656A8)" stroke-linejoin="round"/>
<path d="M11.5 13.5L12.5 10.5L13.5 13.5M12 12.5H13" stroke="var(--mw-icon-glyph-content-blue, #1656A8)" stroke-linecap="round" stroke-linejoin="round"/>
<path d="M13 8.5C13 8.77614 12.7761 9 12.5 9C12.2238 9 12 8.77614 12 8.5C12 8.22386 12.2238 8 12.5 8C12.7761 8 13 8.22386 13 8.5Z" fill="var(--mw-icon-glyph-content-blue, #1656A8)"/>
</svg>
