<svg width="16" height="16" viewBox="0 0 16 16" fill="none" xmlns="http://www.w3.org/2000/svg">
<path d="M0.5 11.5V1.5C0.5 0.947715 0.947715 0.5 1.5 0.5H11.5C12.0523 0.5 12.5 0.947715 12.5 1.5V11.5C12.5 12.0523 12.0523 12.5 11.5 12.5H1.5C0.947715 12.5 0.5 12.0523 0.5 11.5Z" fill="var(--mw-icon-background-default-white, #FFFFFF)"/>
<path d="M0.5 11.5V1.5C0.5 0.947715 0.947715 0.5 1.5 0.5H11.5C12.0523 0.5 12.5 0.947715 12.5 1.5V11.5C12.5 12.0523 12.0523 12.5 11.5 12.5H1.5C0.947715 12.5 0.5 12.0523 0.5 11.5Z" stroke="var(--mw-icon-border-default-gray, #616161)" stroke-linejoin="round"/>
<rect x="8" y="2" width="3" height="3" rx="0.5" fill="var(--mw-icon-glyph-disabled-gray, #888889)"/>
<rect x="2" y="8" width="3" height="3" rx="0.5" fill="var(--mw-icon-glyph-disabled-gray, #888889)"/>
<path d="M6 1.5L8 3.5L6 5.5L6 1.5Z" fill="var(--mw-icon-borderColor-light-blue, #268CDD)"/>
<path d="M3.5 8L3.5 3.5H6" stroke="var(--mw-icon-glyph-content-light-blue, #278CDD)" stroke-linejoin="round"/>
<mask id="path-7-inside-1_17445_195307" fill="white">
<path d="M14 11V10L13 11H14Z"/>
</mask>
<path d="M14 10H15V7.58579L13.2929 9.29289L14 10ZM14 11V12H15V11H14ZM13 11L12.2929 10.2929L10.5858 12H13V11ZM13 10V11H15V10H13ZM14 10H13V12H14V10ZM13.7071 11.7071L14.7071 10.7071L13.2929 9.29289L12.2929 10.2929L13.7071 11.7071Z" fill="var(--mw-icon-glyph-content-blue, #1656A8)" mask="url(#path-7-inside-1_17445_195307)"/>
<mask id="path-9-inside-2_17445_195307" fill="white">
<path d="M12 11V10L11 11H12Z"/>
</mask>
<path d="M12 10H13V7.58579L11.2929 9.29289L12 10ZM12 11V12H13V11H12ZM11 11L10.2929 10.2929L8.58579 12H11V11ZM11 10V11H13V10H11ZM12 10H11V12H12V10ZM11.7071 11.7071L12.7071 10.7071L11.2929 9.29289L10.2929 10.2929L11.7071 11.7071Z" fill="var(--mw-icon-glyph-content-blue, #1656A8)" mask="url(#path-9-inside-2_17445_195307)"/>
<mask id="path-11-inside-3_17445_195307" fill="white">
<path d="M14 13V12L13 13H14Z"/>
</mask>
<path d="M14 12H15V9.58579L13.2929 11.2929L14 12ZM14 13V14H15V13H14ZM13 13L12.2929 12.2929L10.5858 14H13V13ZM13 12V13H15V12H13ZM14 12H13V14H14V12ZM13.7071 13.7071L14.7071 12.7071L13.2929 11.2929L12.2929 12.2929L13.7071 13.7071Z" fill="var(--mw-icon-glyph-content-blue, #1656A8)" mask="url(#path-11-inside-3_17445_195307)"/>
<mask id="path-13-inside-4_17445_195307" fill="white">
<path d="M12 13V12L11 13H12Z"/>
</mask>
<path d="M12 12H13V9.58579L11.2929 11.2929L12 12ZM12 13V14H13V13H12ZM11 13L10.2929 12.2929L8.58579 14H11V13ZM11 12V13H13V12H11ZM12 12H11V14H12V12ZM11.7071 13.7071L12.7071 12.7071L11.2929 11.2929L10.2929 12.2929L11.7071 13.7071Z" fill="var(--mw-icon-glyph-content-blue, #1656A8)" mask="url(#path-13-inside-4_17445_195307)"/>
<path d="M9.5 15V9.58114C9.5 9.5274 9.50866 9.47401 9.52566 9.42302L10.386 6.84189C10.4541 6.63772 10.6452 6.5 10.8604 6.5H14.1396C14.3548 6.5 14.5459 6.63772 14.614 6.84189L15.4743 9.42302C15.4913 9.47401 15.5 9.5274 15.5 9.58114V15C15.5 15.2761 15.2761 15.5 15 15.5H10C9.72386 15.5 9.5 15.2761 9.5 15Z" fill="var(--mw-icon-background-default-selection, #B4DEFF)" stroke="var(--mw-icon-glyph-content-blue, #1656A8)" stroke-linejoin="round"/>
<path d="M11.5 13.5L12.5 10.5L13.5 13.5M12 12.5H13" stroke="var(--mw-icon-glyph-content-blue, #1656A8)" stroke-linecap="round" stroke-linejoin="round"/>
<path d="M13 8.5C13 8.77614 12.7761 9 12.5 9C12.2238 9 12 8.77614 12 8.5C12 8.22386 12.2238 8 12.5 8C12.7761 8 13 8.22386 13 8.5Z" fill="var(--mw-icon-glyph-content-blue, #1656A8)"/>
</svg>
