<svg width="16" height="16" viewBox="0 0 16 16" fill="none" xmlns="http://www.w3.org/2000/svg">
<path d="M1 1H14V14H1V1Z" fill="var(--mw-icon-background-default-white, #FFFFFF)"/>
<path d="M7.5 3.5L3.5 7.5M7.5 3.5L11.5 5.5M7.5 3.5L5.5 11.5M7.5 3.5L11.5 10.5M3.5 7.5L5.5 11.5M3.5 7.5L11.5 5.5M3.5 7.5L11.5 10.5M5.5 11.5L11.5 10.5M5.5 11.5L11.5 5.5M11.5 10.5V5.5" stroke="var(--mw-icon-background-medium-blue, #83CAFF)" stroke-linejoin="round"/>
<path d="M9 3.5C9 4.32843 8.32843 5 7.5 5C6.67157 5 6 4.32843 6 3.5C6 2.67157 6.67157 2 7.5 2C8.32843 2 9 2.67157 9 3.5Z" fill="var(--mw-icon-glyph-content-blue, #1656A8)"/>
<path d="M5 7.5C5 8.32843 4.32843 9 3.5 9C2.67157 9 2 8.32843 2 7.5C2 6.67157 2.67157 6 3.5 6C4.32843 6 5 6.67157 5 7.5Z" fill="var(--mw-icon-glyph-content-blue, #1656A8)"/>
<path d="M7 11.5C7 12.3284 6.32843 13 5.5 13C4.67157 13 4 12.3284 4 11.5C4 10.6716 4.67157 10 5.5 10C6.32843 10 7 10.6716 7 11.5Z" fill="var(--mw-icon-glyph-content-blue, #1656A8)"/>
<path d="M13 10.5C13 11.3284 12.3284 12 11.5 12C10.6716 12 10 11.3284 10 10.5C10 9.67157 10.6716 9 11.5 9C12.3284 9 13 9.67157 13 10.5Z" fill="var(--mw-icon-glyph-content-blue, #1656A8)"/>
<path d="M13 5.5C13 6.32843 12.3284 7 11.5 7C10.6716 7 10 6.32843 10 5.5C10 4.67157 10.6716 4 11.5 4C12.3284 4 13 4.67157 13 5.5Z" fill="var(--mw-icon-glyph-content-blue, #1656A8)"/>
<path d="M0.5 1.5C0.5 0.947716 0.947715 0.5 1.5 0.5H13.5C14.0523 0.5 14.5 0.947715 14.5 1.5V13.5C14.5 14.0523 14.0523 14.5 13.5 14.5H1.5C0.947716 14.5 0.5 14.0523 0.5 13.5V1.5Z" stroke="var(--mw-icon-border-default-gray, #616161)" stroke-linejoin="round"/>
</svg>
