<svg width="16" height="16" viewBox="0 0 16 16" fill="none" xmlns="http://www.w3.org/2000/svg">
<path d="M0.5 14.5V4.5H12.5V14.5H0.5Z" fill="var(--mw-icon-background-default-white, #FFFFFF)" stroke="var(--mw-icon-glyph-content-gray, #616162)" stroke-linecap="square" stroke-linejoin="round"/>
<circle cx="9" cy="8" r="1.5" stroke="var(--mw-icon-glyph-content-gray, #616162)"/>
<path d="M11.5 11.5H7.5L5.5 9.5L4.5 10.5L2.5 8.5L1 10" stroke="var(--mw-icon-glyph-content-gray, #616162)" stroke-linecap="square" stroke-linejoin="round"/>
<path d="M15 0.5H6C5.72386 0.5 5.5 0.723858 5.5 1V10C5.5 10.2761 5.72386 10.5 6 10.5H15C15.2761 10.5 15.5 10.2761 15.5 10V1C15.5 0.723858 15.2761 0.5 15 0.5Z" fill="white" stroke="var(--mw-icon-border-default-gray, #616161)"/>
<path d="M10 3.5H14M10 7.5H14" stroke="var(--mw-icon-glyph-content-gray, #616162)"/>
<path d="M7 7.25C7 7.11193 7.11193 7 7.25 7H8.75C8.88807 7 9 7.11193 9 7.25V8.75C9 8.88807 8.88807 9 8.75 9H7.25C7.11193 9 7 8.88807 7 8.75V7.25Z" fill="#D95319"/>
<path d="M7 3.25C7 3.11193 7.11193 3 7.25 3H8.75C8.88807 3 9 3.11193 9 3.25V4.75C9 4.88807 8.88807 5 8.75 5H7.25C7.11193 5 7 4.88807 7 4.75V3.25Z" fill="#0072BD"/>
</svg>
