<svg width="16" height="16" viewBox="0 0 16 16" fill="none" xmlns="http://www.w3.org/2000/svg">
<path d="M0.5 12.5V2.5C0.5 1.39543 1.39543 0.5 2.5 0.5H7.5H12.5C13.6046 0.5 14.5 1.39543 14.5 2.5V12.5C14.5 13.6046 13.6046 14.5 12.5 14.5H7.5H2.5C1.39543 14.5 0.5 13.6046 0.5 12.5Z" fill="var(--mw-icon-background-default-selection, #B4DEFF)"/>
<path d="M7.5 0.5H12.5C13.6046 0.5 14.5 1.39543 14.5 2.5V12.5C14.5 13.6046 13.6046 14.5 12.5 14.5H7.5M7.5 0.5H2.5C1.39543 0.5 0.5 1.39543 0.5 2.5V12.5C0.5 13.6046 1.39543 14.5 2.5 14.5H7.5M7.5 0.5V14.5" stroke="var(--mw-icon-border-default-gray, #616161)" stroke-linecap="round"/>
<rect x="5" y="9" width="1" height="1" fill="var(--mw-icon-glyph-content-light-blue, #278CDD)"/>
<rect x="3" y="4" width="1" height="1" fill="var(--mw-icon-glyph-content-light-blue, #278CDD)"/>
<rect x="1" y="3" width="1" height="1" fill="var(--mw-icon-glyph-content-light-blue, #278CDD)"/>
<rect x="3" y="3" width="1" height="1" fill="var(--mw-icon-glyph-content-light-blue, #278CDD)"/>
<rect x="6" y="2" width="1" height="1" fill="var(--mw-icon-glyph-content-light-blue, #278CDD)"/>
<rect x="4" y="2" width="1" height="1" fill="var(--mw-icon-glyph-content-light-blue, #278CDD)"/>
<rect x="4" y="3" width="1" height="1" fill="var(--mw-icon-glyph-content-light-blue, #278CDD)"/>
<rect x="5" y="4" width="1" height="1" fill="var(--mw-icon-glyph-content-light-blue, #278CDD)"/>
<rect x="1" y="5" width="1" height="1" fill="var(--mw-icon-glyph-content-light-blue, #278CDD)"/>
<rect x="4" y="5" width="1" height="1" fill="var(--mw-icon-glyph-content-light-blue, #278CDD)"/>
<rect x="1" y="9" width="1" height="1" fill="var(--mw-icon-glyph-content-light-blue, #278CDD)"/>
<rect x="6" y="5" width="1" height="1" fill="var(--mw-icon-glyph-content-light-blue, #278CDD)"/>
<rect x="6" y="9" width="1" height="1" fill="var(--mw-icon-glyph-content-light-blue, #278CDD)"/>
<rect x="3" y="13" width="1" height="1" fill="var(--mw-icon-glyph-content-light-blue, #278CDD)"/>
<rect x="3" y="7" width="1" height="1" fill="var(--mw-icon-glyph-content-light-blue, #278CDD)"/>
<rect x="5" y="7" width="1" height="1" fill="var(--mw-icon-glyph-content-light-blue, #278CDD)"/>
<rect x="3" y="1" width="1" height="1" fill="var(--mw-icon-glyph-content-light-blue, #278CDD)"/>
<rect x="2" y="10" width="1" height="1" fill="var(--mw-icon-glyph-content-light-blue, #278CDD)"/>
<rect x="1" y="11" width="1" height="1" fill="var(--mw-icon-glyph-content-light-blue, #278CDD)"/>
<rect x="6" y="13" width="1" height="1" fill="var(--mw-icon-glyph-content-light-blue, #278CDD)"/>
<rect x="8" y="5" width="1" height="1" fill="#FF453A"/>
<rect x="9" y="4" width="1" height="1" fill="#FF453A"/>
<rect x="10" y="1" width="1" height="1" fill="#FF453A"/>
<rect x="8" y="2" width="1" height="1" fill="#FF453A"/>
<rect x="13" y="5" width="1" height="1" fill="#FF453A"/>
<rect x="12" y="2" width="1" height="1" fill="#FF453A"/>
<rect x="13" y="3" width="1" height="1" fill="#FF453A"/>
<rect x="12" y="6" width="1" height="1" fill="#FF453A"/>
<path d="M12 4H13V5H12V4Z" fill="#FF453A"/>
<rect x="11" y="4" width="1" height="1" fill="#FF453A"/>
<rect x="10" y="3" width="1" height="1" fill="#FF453A"/>
<rect x="8" y="10" width="1" height="1" fill="#FF453A"/>
<rect x="9" y="12" width="1" height="1" fill="#FF453A"/>
<rect x="9" y="9" width="1" height="1" fill="#FF453A"/>
<rect x="13" y="7" width="1" height="1" fill="#FF453A"/>
<rect x="12" y="9" width="1" height="1" fill="#FF453A"/>
<rect x="13" y="8" width="1" height="1" fill="#FF453A"/>
<rect x="13" y="11" width="1" height="1" fill="#FF453A"/>
<rect x="10" y="6" width="1" height="1" fill="#FF453A"/>
<rect x="8" y="11" width="1" height="1" fill="#FF453A"/>
<rect x="11" y="13" width="1" height="1" fill="#FF453A"/>
<path d="M10.5 10.5H12.5V12.5H10.5V11.5V10.5Z" fill="var(--mw-icon-background-default-white, #FFFFFF)"/>
<path d="M5.5 11.5V10.5H3.5V12.5H5.5V11.5Z" fill="white"/>
<path d="M10.5 11.5V12.5H12.5V10.5H10.5V11.5ZM10.5 11.5H5.5M5.5 11.5V10.5H3.5V12.5H5.5V11.5Z" stroke="var(--mw-icon-glyph-content-blue, #1656A8)" stroke-linejoin="round"/>
<path d="M9.5 6.5H11.5V8.5H9.5V7.5V6.5Z" fill="white"/>
<path d="M4.5 7.5V6.5H2.5V8.5H4.5V7.5Z" fill="white"/>
<path d="M9.5 7.5V8.5H11.5V6.5H9.5V7.5ZM9.5 7.5H4.5M4.5 7.5V6.5H2.5V8.5H4.5V7.5Z" stroke="var(--mw-icon-glyph-content-blue, #1656A8)" stroke-linejoin="round"/>
</svg>
