<svg width="16" height="16" viewBox="0 0 16 16" fill="none" xmlns="http://www.w3.org/2000/svg">
<path d="M0.5 12.5V2.5C0.5 1.39543 1.39543 0.5 2.5 0.5H12.5C13.6046 0.5 14.5 1.39543 14.5 2.5V12.5C14.5 13.6046 13.6046 14.5 12.5 14.5H2.5C1.39543 14.5 0.5 13.6046 0.5 12.5Z" fill="var(--mw-icon-background-default-white, white)"/>
<path d="M1 1H2V2H1V1Z" fill="var(--mw-icon-background-default-dark-gray, #A6A6A6)"/>
<path d="M2 2H3V3H2V2Z" fill="var(--mw-icon-background-default-dark-gray, #A6A6A6)"/>
<path d="M3 1H4V2H3V1Z" fill="var(--mw-icon-background-default-dark-gray, #A6A6A6)"/>
<path d="M1 3H2V4H1V3Z" fill="var(--mw-icon-background-default-dark-gray, #A6A6A6)"/>
<path d="M2 4H3V5H2V4Z" fill="var(--mw-icon-background-default-dark-gray, #A6A6A6)"/>
<path d="M3 3H4V4H3V3Z" fill="var(--mw-icon-background-default-dark-gray, #A6A6A6)"/>
<path d="M1 5H2V6H1V5Z" fill="var(--mw-icon-background-default-dark-gray, #A6A6A6)"/>
<path d="M2 6H3V7H2V6Z" fill="var(--mw-icon-background-default-dark-gray, #A6A6A6)"/>
<path d="M3 5H4V6H3V5Z" fill="var(--mw-icon-background-default-dark-gray, #A6A6A6)"/>
<path d="M1 7H2V8H1V7Z" fill="var(--mw-icon-background-default-dark-gray, #A6A6A6)"/>
<path d="M2 8H3V9H2V8Z" fill="var(--mw-icon-background-default-dark-gray, #A6A6A6)"/>
<path d="M3 7H4V8H3V7Z" fill="var(--mw-icon-background-default-dark-gray, #A6A6A6)"/>
<path d="M1 9H2V10H1V9Z" fill="var(--mw-icon-background-default-dark-gray, #A6A6A6)"/>
<path d="M2 10H3V11H2V10Z" fill="var(--mw-icon-background-default-dark-gray, #A6A6A6)"/>
<path d="M3 9H4V10H3V9Z" fill="var(--mw-icon-background-default-dark-gray, #A6A6A6)"/>
<path d="M1 11H2V12H1V11Z" fill="var(--mw-icon-background-default-dark-gray, #A6A6A6)"/>
<path d="M2 12H3V13H2V12Z" fill="var(--mw-icon-background-default-dark-gray, #A6A6A6)"/>
<path d="M3 11H4V12H3V11Z" fill="var(--mw-icon-background-default-dark-gray, #A6A6A6)"/>
<path d="M4 2H5V3H4V2Z" fill="var(--mw-icon-background-default-dark-gray, #A6A6A6)"/>
<path d="M5 1H6V2H5V1Z" fill="var(--mw-icon-background-default-dark-gray, #A6A6A6)"/>
<path d="M4 4H5V5H4V4Z" fill="var(--mw-icon-background-default-dark-gray, #A6A6A6)"/>
<path d="M5 3H6V4H5V3Z" fill="var(--mw-icon-background-default-dark-gray, #A6A6A6)"/>
<path d="M6 2H7V3H6V2Z" fill="var(--mw-icon-background-default-dark-gray, #A6A6A6)"/>
<path d="M7 1H8V2H7V1Z" fill="var(--mw-icon-background-default-dark-gray, #A6A6A6)"/>
<path d="M6 4H7V5H6V4Z" fill="var(--mw-icon-background-default-dark-gray, #A6A6A6)"/>
<path d="M7 3H8V4H7V3Z" fill="var(--mw-icon-background-default-dark-gray, #A6A6A6)"/>
<path d="M8 2H9V3H8V2Z" fill="var(--mw-icon-background-default-dark-gray, #A6A6A6)"/>
<path d="M9 1H10V2H9V1Z" fill="var(--mw-icon-background-default-dark-gray, #A6A6A6)"/>
<path d="M8 4H9V5H8V4Z" fill="var(--mw-icon-background-default-dark-gray, #A6A6A6)"/>
<path d="M9 3H10V4H9V3Z" fill="var(--mw-icon-background-default-dark-gray, #A6A6A6)"/>
<path d="M10 2H11V3H10V2Z" fill="var(--mw-icon-background-default-dark-gray, #A6A6A6)"/>
<path d="M11 1H12V2H11V1Z" fill="var(--mw-icon-background-default-dark-gray, #A6A6A6)"/>
<path d="M10 4H11V5H10V4Z" fill="var(--mw-icon-background-default-dark-gray, #A6A6A6)"/>
<path d="M11 3H12V4H11V3Z" fill="var(--mw-icon-background-default-dark-gray, #A6A6A6)"/>
<path d="M12 2H13V3H12V2Z" fill="var(--mw-icon-background-default-dark-gray, #A6A6A6)"/>
<path d="M13 1H14V2H13V1Z" fill="var(--mw-icon-background-default-dark-gray, #A6A6A6)"/>
<path d="M12 4H13V5H12V4Z" fill="var(--mw-icon-background-default-dark-gray, #A6A6A6)"/>
<path d="M13 3H14V4H13V3Z" fill="var(--mw-icon-background-default-dark-gray, #A6A6A6)"/>
<path d="M6 6H7V7H6V6Z" fill="var(--mw-icon-background-default-dark-gray, #A6A6A6)"/>
<path d="M7 5H8V6H7V5Z" fill="var(--mw-icon-background-default-dark-gray, #A6A6A6)"/>
<path d="M6 8H7V9H6V8Z" fill="var(--mw-icon-background-default-dark-gray, #A6A6A6)"/>
<path d="M7 7H8V8H7V7Z" fill="var(--mw-icon-background-default-dark-gray, #A6A6A6)"/>
<path d="M8 6H9V7H8V6Z" fill="var(--mw-icon-background-default-dark-gray, #A6A6A6)"/>
<path d="M9 5H10V6H9V5Z" fill="var(--mw-icon-background-default-dark-gray, #A6A6A6)"/>
<path d="M8 8H9V9H8V8Z" fill="var(--mw-icon-background-default-dark-gray, #A6A6A6)"/>
<path d="M9 7H10V8H9V7Z" fill="var(--mw-icon-background-default-dark-gray, #A6A6A6)"/>
<path d="M10 6H11V7H10V6Z" fill="var(--mw-icon-background-default-dark-gray, #A6A6A6)"/>
<path d="M11 5H12V6H11V5Z" fill="var(--mw-icon-background-default-dark-gray, #A6A6A6)"/>
<path d="M10 8H11V9H10V8Z" fill="var(--mw-icon-background-default-dark-gray, #A6A6A6)"/>
<path d="M11 7H12V8H11V7Z" fill="var(--mw-icon-background-default-dark-gray, #A6A6A6)"/>
<path d="M12 6H13V7H12V6Z" fill="var(--mw-icon-background-default-dark-gray, #A6A6A6)"/>
<path d="M13 5H14V6H13V5Z" fill="var(--mw-icon-background-default-dark-gray, #A6A6A6)"/>
<path d="M12 8H13V9H12V8Z" fill="var(--mw-icon-background-default-dark-gray, #A6A6A6)"/>
<path d="M13 7H14V8H13V7Z" fill="var(--mw-icon-background-default-dark-gray, #A6A6A6)"/>
<path d="M6 10H7V11H6V10Z" fill="var(--mw-icon-background-default-dark-gray, #A6A6A6)"/>
<path d="M7 9H8V10H7V9Z" fill="var(--mw-icon-background-default-dark-gray, #A6A6A6)"/>
<path d="M6 12H7V13H6V12Z" fill="var(--mw-icon-background-default-dark-gray, #A6A6A6)"/>
<path d="M7 11H8V12H7V11Z" fill="var(--mw-icon-background-default-dark-gray, #A6A6A6)"/>
<path d="M8 10H9V11H8V10Z" fill="var(--mw-icon-background-default-dark-gray, #A6A6A6)"/>
<path d="M9 9H10V10H9V9Z" fill="var(--mw-icon-background-default-dark-gray, #A6A6A6)"/>
<path d="M8 12H9V13H8V12Z" fill="var(--mw-icon-background-default-dark-gray, #A6A6A6)"/>
<path d="M9 11H10V12H9V11Z" fill="var(--mw-icon-background-default-dark-gray, #A6A6A6)"/>
<path d="M10 10H11V11H10V10Z" fill="var(--mw-icon-background-default-dark-gray, #A6A6A6)"/>
<path d="M11 9H12V10H11V9Z" fill="var(--mw-icon-background-default-dark-gray, #A6A6A6)"/>
<path d="M10 12H11V13H10V12Z" fill="var(--mw-icon-background-default-dark-gray, #A6A6A6)"/>
<path d="M11 11H12V12H11V11Z" fill="var(--mw-icon-background-default-dark-gray, #A6A6A6)"/>
<path d="M12 10H13V11H12V10Z" fill="var(--mw-icon-background-default-dark-gray, #A6A6A6)"/>
<path d="M13 9H14V10H13V9Z" fill="var(--mw-icon-background-default-dark-gray, #A6A6A6)"/>
<path d="M12 12H13V13H12V12Z" fill="var(--mw-icon-background-default-dark-gray, #A6A6A6)"/>
<path d="M13 11H14V12H13V11Z" fill="var(--mw-icon-background-default-dark-gray, #A6A6A6)"/>
<path d="M11 13H12V14H11V13Z" fill="var(--mw-icon-background-default-dark-gray, #A6A6A6)"/>
<path d="M13 13H14V14H13V13Z" fill="var(--mw-icon-background-default-dark-gray, #A6A6A6)"/>
<path d="M7 13H8V14H7V13Z" fill="var(--mw-icon-background-default-dark-gray, #A6A6A6)"/>
<path d="M9 13H10V14H9V13Z" fill="var(--mw-icon-background-default-dark-gray, #A6A6A6)"/>
<path d="M3 13H4V14H3V13Z" fill="var(--mw-icon-background-default-dark-gray, #A6A6A6)"/>
<path d="M1 13H2V14H1V13Z" fill="var(--mw-icon-background-default-dark-gray, #A6A6A6)"/>
<path d="M5 13H6V14H5V13Z" fill="var(--mw-icon-background-default-dark-gray, #A6A6A6)"/>
<rect x="2.5" y="5.5" width="7" height="7" rx="0.5" fill="var(--mw-icon-background-default-medium-gray, #D9D9D9)" stroke="var(--mw-icon-glyph-content-dark-gray, #333333)" stroke-linejoin="round"/>
<path d="M8.5 9C8.5 10.3807 7.38071 11.5 6 11.5C4.61929 11.5 3.5 10.3807 3.5 9C3.5 7.61929 4.61929 6.5 6 6.5C7.38071 6.5 8.5 7.61929 8.5 9Z" fill="var(--mw-icon-glyph-content-dark-gray, #333333)" stroke="#7D7D7D" stroke-linejoin="round"/>
<circle cx="5.5" cy="8.5" r="0.5" fill="var(--mw-icon-background-default-medium-gray, #D9D9D9)"/>
<path d="M7.5 3C7.5 2.72386 7.72386 2.5 8 2.5H12C12.2761 2.5 12.5 2.72386 12.5 3V5.5H7.5V3Z" fill="var(--mw-icon-glyph-content-dark-gray, #333333)" stroke="var(--mw-icon-glyph-content-dark-gray, #333333)"/>
<path d="M7.5 5.5H12.5V8C12.5 8.27614 12.2761 8.5 12 8.5H8C7.72386 8.5 7.5 8.27614 7.5 8V5.5Z" fill="var(--mw-icon-background-default-medium-gray, #D9D9D9)" stroke="var(--mw-icon-glyph-content-dark-gray, #333333)"/>
<circle cx="8.5" cy="3.5" r="0.5" fill="var(--mw-icon-background-default-medium-gray, #D9D9D9)"/>
<path d="M0.5 12.5V2.5C0.5 1.39543 1.39543 0.5 2.5 0.5H12.5C13.6046 0.5 14.5 1.39543 14.5 2.5V12.5C14.5 13.6046 13.6046 14.5 12.5 14.5H2.5C1.39543 14.5 0.5 13.6046 0.5 12.5Z" stroke="var(--mw-icon-border-default-gray, #616161)" stroke-linecap="round"/>

</svg>
