<svg width="16" height="16" viewBox="0 0 16 16" fill="none" xmlns="http://www.w3.org/2000/svg">
<path d="M0.5 1.5C0.5 0.947716 0.947715 0.5 1.5 0.5H13.5C14.0523 0.5 14.5 0.947715 14.5 1.5V13.5C14.5 14.0523 14.0523 14.5 13.5 14.5H1.5C0.947716 14.5 0.5 14.0523 0.5 13.5V1.5Z" fill="var(--mw-icon-background-default-white, #FFFFFF)" stroke="var(--mw-icon-border-default-gray, #616161)"/>
<path d="M6.5 7C6.5 6.72386 6.72386 6.5 7 6.5H12C12.2761 6.5 12.5 6.72386 12.5 7V12C12.5 12.2761 12.2761 12.5 12 12.5H7C6.72386 12.5 6.5 12.2761 6.5 12V7Z" fill="var(--mw-icon-background-default-medium-gray, #D9D9D9)" stroke="var(--mw-icon-glyph-disabled-gray, #888889)" stroke-linejoin="round"/>
<path d="M11 9.5C11 10.3284 10.3284 11 9.5 11C8.67157 11 8 10.3284 8 9.5C8 8.67157 8.67157 8 9.5 8C10.3284 8 11 8.67157 11 9.5Z" fill="var(--mw-icon-glyph-content-gray, #616162)"/>
<path d="M11.5 6L13 4L10 4L11.5 6Z" fill="var(--mw-icon-glyph-content-gray, #616162)"/>
<path d="M10.5 2.5H11.5V3.5" stroke="var(--mw-icon-glyph-content-gray, #616162)" stroke-linecap="square" stroke-linejoin="round"/>
<path d="M2.5 3C2.5 2.72386 2.72386 2.5 3 2.5H8C8.27614 2.5 8.5 2.72386 8.5 3V9.5H2.5V3Z" fill="var(--mw-icon-background-default-light-gray, #F5F5F5)" stroke="var(--mw-icon-glyph-content-gray, #616162)" stroke-linejoin="round"/>
<path d="M2.5 4.5H8.5V7.5H2.5V4.5Z" fill="var(--mw-icon-background-default-dark-gray, #A6A6A6)" stroke="var(--mw-icon-border-default-gray, #616161)"/>
<path d="M5 6C5 6.55228 4.55228 7 4 7C3.44772 7 3 6.55228 3 6C3 5.44772 3.44772 5 4 5C4.55228 5 5 5.44772 5 6Z" fill="var(--mw-icon-glyph-content-gray, #616162)"/>
<path d="M8 6C8 6.55228 8 7 8 7C7.44772 7 7 6.55228 7 6C7 5.44772 7.44772 5 8 5C8 5 8 5.44772 8 6Z" fill="var(--mw-icon-glyph-content-gray, #616162)"/>
<path d="M7 6C7 6.55228 6.55228 7 6 7C5.44772 7 5 6.55228 5 6C5 5.44772 5.44772 5 6 5C6.55228 5 7 5.44772 7 6Z" fill="var(--mw-icon-glyph-content-gray, #616162)"/>
<rect x="3" y="5" width="1" height="2" fill="var(--mw-icon-background-default-light-gray, #F5F5F5)"/>
</svg>
