<svg width="16" height="16" viewBox="0 0 16 16" fill="none" xmlns="http://www.w3.org/2000/svg">
<path d="M0.5 12.5V2.5C0.5 1.39543 1.39543 0.5 2.5 0.5H12.5C13.6046 0.5 14.5 1.39543 14.5 2.5V12.5C14.5 13.6046 13.6046 14.5 12.5 14.5H2.5C1.39543 14.5 0.5 13.6046 0.5 12.5Z" fill="var(--mw-icon-background-default-selection, #B4DEFF)"/>
<rect x="5" y="2" width="1" height="1" fill="#FF453A"/>
<rect x="3" y="4" width="1" height="1" fill="#FF453A"/>
<rect x="4" y="4" width="1" height="1" fill="#FF453A"/>
<rect x="5" y="4" width="1" height="1" fill="#FF453A"/>
<rect x="6" y="3" width="1" height="1" fill="#FF453A"/>
<rect x="8" y="6" width="1" height="1" fill="#FF453A"/>
<rect x="11" y="6" width="1" height="1" fill="#FF453A"/>
<rect x="11" y="7" width="1" height="1" fill="#FF453A"/>
<rect x="2" y="5" width="1" height="1" fill="#FF453A"/>
<rect x="1" y="6" width="1" height="1" fill="#FF453A"/>
<rect y="7" width="1" height="1" fill="#FF453A"/>
<rect x="1" y="8" width="1" height="1" fill="#FF453A"/>
<rect y="9" width="1" height="1" fill="#FF453A"/>
<rect y="11" width="1" height="1" fill="#FF453A"/>
<rect x="1" y="12" width="1" height="1" fill="#FF453A"/>
<rect x="10" y="12" width="1" height="1" fill="#FF453A"/>
<rect x="6" y="5" width="1" height="1" fill="#FF453A"/>
<rect x="4" y="7" width="1" height="1" fill="#FF453A"/>
<rect x="5" y="8" width="1" height="1" fill="#FF453A"/>
<rect x="3" y="9" width="1" height="1" fill="#FF453A"/>
<rect x="5" y="10" width="1" height="1" fill="#FF453A"/>
<rect x="4" y="12" width="1" height="1" fill="#FF453A"/>
<rect x="9" y="9" width="1" height="1" fill="#FF453A"/>
<rect x="6" y="13" width="1" height="1" fill="#FF453A"/>
<rect x="12" y="9" width="1" height="1" fill="#FF453A"/>
<rect x="13" y="7" width="1" height="1" fill="#FF453A"/>
<rect x="10" y="9" width="1" height="1" fill="#FF453A"/>
<rect x="12" y="5" width="1" height="1" fill="#FF453A"/>
<rect x="14" y="9" width="1" height="1" fill="#FF453A"/>
<rect x="4" y="5" width="1" height="1" fill="#FF453A"/>
<rect x="3" y="6" width="1" height="1" fill="#FF453A"/>
<rect x="6" y="8" width="1" height="1" fill="#FF453A"/>
<rect x="2" y="9" width="1" height="1" fill="#FF453A"/>
<rect x="2" y="11" width="1" height="1" fill="#FF453A"/>
<rect x="3" y="12" width="1" height="1" fill="#FF453A"/>
<rect x="4" y="13" width="1" height="1" fill="#FF453A"/>
<rect x="12" y="13" width="1" height="1" fill="#FF453A"/>
<rect x="8" y="5" width="1" height="1" fill="#FF453A"/>
<rect x="8" y="11" width="1" height="1" fill="#FF453A"/>
<rect x="9" y="8" width="1" height="1" fill="#FF453A"/>
<rect x="13" y="8" width="1" height="1" fill="#FF453A"/>
<rect x="14" y="11" width="1" height="1" fill="#FF453A"/>
<rect x="14" y="7" width="1" height="1" fill="#FF453A"/>
<path d="M6.5 7.5C6.5 6.94772 6.94772 6.5 7.5 6.5H11.5C12.0523 6.5 12.5 6.94772 12.5 7.5V11.5C12.5 12.0523 12.0523 12.5 11.5 12.5H7.5C6.94772 12.5 6.5 12.0523 6.5 11.5V7.5Z" fill="var(--mw-icon-background-default-medium-gray, #D9D9D9)" stroke="var(--mw-icon-glyph-content-dark-gray, #333333)"/>
<rect x="7" y="7" width="5" height="4" fill="var(--mw-icon-glyph-content-dark-gray, #333333)"/>
<circle cx="7.5" cy="7.5" r="0.5" fill="var(--mw-icon-background-default-medium-gray, #D9D9D9)"/>
<path d="M0.5 12.5V2.5C0.5 1.39543 1.39543 0.5 2.5 0.5H12.5C13.6046 0.5 14.5 1.39543 14.5 2.5V12.5C14.5 13.6046 13.6046 14.5 12.5 14.5H2.5C1.39543 14.5 0.5 13.6046 0.5 12.5Z" stroke="var(--mw-icon-border-default-gray, #616161)" stroke-linecap="round"/>

</svg>
