<svg width="16" height="16" viewBox="0 0 16 16" fill="none" xmlns="http://www.w3.org/2000/svg">
<path d="M0.5 12.5V2.5C0.5 1.39543 1.39543 0.5 2.5 0.5H12.5C13.6046 0.5 14.5 1.39543 14.5 2.5V12.5C14.5 13.6046 13.6046 14.5 12.5 14.5H2.5C1.39543 14.5 0.5 13.6046 0.5 12.5Z" fill="var(--mw-icon-background-default-selection, #B4DEFF)"/>
<rect x="5" y="2" width="1" height="1" fill="#FF453A"/>
<rect x="3" y="4" width="1" height="1" fill="#FF453A"/>
<rect x="4" y="4" width="1" height="1" fill="#FF453A"/>
<rect x="5" y="4" width="1" height="1" fill="#FF453A"/>
<rect x="6" y="3" width="1" height="1" fill="#FF453A"/>
<rect x="8" y="6" width="1" height="1" fill="#FF453A"/>
<rect x="11" y="6" width="1" height="1" fill="#FF453A"/>
<rect x="11" y="7" width="1" height="1" fill="#FF453A"/>
<rect x="2" y="5" width="1" height="1" fill="#FF453A"/>
<rect x="1" y="6" width="1" height="1" fill="#FF453A"/>
<rect y="7" width="1" height="1" fill="#FF453A"/>
<rect x="1" y="8" width="1" height="1" fill="#FF453A"/>
<rect y="9" width="1" height="1" fill="#FF453A"/>
<rect y="11" width="1" height="1" fill="#FF453A"/>
<rect x="1" y="12" width="1" height="1" fill="#FF453A"/>
<rect x="10" y="12" width="1" height="1" fill="#FF453A"/>
<rect x="6" y="5" width="1" height="1" fill="#FF453A"/>
<rect x="4" y="7" width="1" height="1" fill="#FF453A"/>
<rect x="5" y="8" width="1" height="1" fill="#FF453A"/>
<rect x="3" y="9" width="1" height="1" fill="#FF453A"/>
<rect x="5" y="10" width="1" height="1" fill="#FF453A"/>
<rect x="4" y="12" width="1" height="1" fill="#FF453A"/>
<rect x="9" y="9" width="1" height="1" fill="#FF453A"/>
<rect x="6" y="13" width="1" height="1" fill="#FF453A"/>
<rect x="12" y="9" width="1" height="1" fill="#FF453A"/>
<rect x="13" y="7" width="1" height="1" fill="#FF453A"/>
<rect x="10" y="9" width="1" height="1" fill="#FF453A"/>
<rect x="12" y="5" width="1" height="1" fill="#FF453A"/>
<rect x="14" y="9" width="1" height="1" fill="#FF453A"/>
<rect x="4" y="5" width="1" height="1" fill="#FF453A"/>
<rect x="3" y="6" width="1" height="1" fill="#FF453A"/>
<rect x="6" y="8" width="1" height="1" fill="#FF453A"/>
<rect x="2" y="9" width="1" height="1" fill="#FF453A"/>
<rect x="2" y="11" width="1" height="1" fill="#FF453A"/>
<rect x="3" y="12" width="1" height="1" fill="#FF453A"/>
<rect x="4" y="13" width="1" height="1" fill="#FF453A"/>
<rect x="12" y="13" width="1" height="1" fill="#FF453A"/>
<rect x="8" y="5" width="1" height="1" fill="#FF453A"/>
<rect x="8" y="11" width="1" height="1" fill="#FF453A"/>
<rect x="9" y="8" width="1" height="1" fill="#FF453A"/>
<rect x="13" y="8" width="1" height="1" fill="#FF453A"/>
<rect x="14" y="11" width="1" height="1" fill="#FF453A"/>
<rect x="14" y="7" width="1" height="1" fill="#FF453A"/>
<path d="M0.5 12.5V2.5C0.5 1.39543 1.39543 0.5 2.5 0.5H12.5C13.6046 0.5 14.5 1.39543 14.5 2.5V12.5C14.5 13.6046 13.6046 14.5 12.5 14.5H2.5C1.39543 14.5 0.5 13.6046 0.5 12.5Z" stroke="var(--mw-icon-border-default-gray, #616161)" stroke-linecap="round"/>
<mask id="path-46-inside-1_11358_30175" fill="var(--mw-icon-background-default-white, white)">
<rect x="6" y="2" width="7" height="7" rx="0.5"/>
</mask>
<rect x="6" y="2" width="7" height="7" rx="0.5" stroke="var(--mw-icon-glyph-content-dark-blue, #104280)" stroke-width="2" mask="url(#path-46-inside-1_11358_30175)"/>
<circle cx="9.5" cy="5.5" r="1.5" fill="var(--mw-icon-border-default-red, #902622)"/>

</svg>
