<svg width="16" height="16" viewBox="0 0 16 16" fill="none" xmlns="http://www.w3.org/2000/svg">
<path d="M7.50002 12V5.5M7.50002 5.5C7.50002 4.94772 7.94773 4.5 8.50002 4.5C9.0523 4.5 9.50002 4.94772 9.50002 5.5C9.50002 6.05229 9.0523 6.5 8.50002 6.5H7.50002M7.50002 5.5V6.5M7.50002 5.5C7.50002 4.94772 7.05228 4.5 6.5 4.5C5.94772 4.5 5.5 4.94772 5.5 5.5C5.5 6.05228 5.94772 6.5 6.5 6.5L7.50002 6.5" stroke="var(--mw-icon-glyph-disabled-gray, #888889)"/>
<path d="M6.50002 14.5H8.50002M6.50002 14.5C6.50002 15.5 6.50002 15.5 7.50002 15.5C8.50002 15.5 8.50002 15.5 8.50002 14.5M6.50002 14.5C5.94773 14.5 5.5 14.0523 5.50001 13.5L5.50001 12.5M8.50002 14.5C9.0523 14.5 9.50001 14.0523 9.50001 13.5V12.5M5.50001 12.5H9.50001M5.50001 12.5L5.5 12.1318C5.5 11.087 5.08495 10.0849 4.34615 9.34615L3.94975 8.94975C3.02149 8.02149 2.5 6.7625 2.5 5.44975C2.5 2.71608 4.71608 0.5 7.44975 0.5H7.55025C10.2839 0.5 12.5 2.71608 12.5 5.44975C12.5 6.7625 11.9785 8.02149 11.0503 8.94975L10.6538 9.34615C9.91505 10.0849 9.5 11.087 9.5 12.1318L9.50001 12.5" stroke="var(--mw-icon-object-primary, #616160)" stroke-linecap="round"/>
</svg>
