<svg width="16" height="16" viewBox="0 0 16 16" fill="none" xmlns="http://www.w3.org/2000/svg">
<path d="M16 10H14V11H16V10Z" fill="var(--mw-icon-glyph-content-mono, #616061)"/>
<path d="M13 10H9V11H13V10Z" fill="var(--mw-icon-glyph-content-mono, #616061)"/>
<path d="M5 10H0V11H5V10Z" fill="var(--mw-icon-glyph-content-mono, #616061)"/>
<path d="M6.5 8.5L2.5 12.5" stroke="var(--mw-icon-glyph-content-mono, #616061)" stroke-linecap="square"/>
<path d="M6.5 12.5L2.5 8.50002" stroke="var(--mw-icon-glyph-content-mono, #616061)" stroke-linecap="square"/>
<path d="M14 5H13V10H14V5Z" fill="var(--mw-icon-glyph-content-mono, #616061)"/>
<path d="M16 5L13.5 2L11 5H16Z" fill="var(--mw-icon-glyph-content-mono, #616061)"/>
<path d="M10 7H9V2H10V7Z" fill="var(--mw-icon-glyph-content-mono, #616061)"/>
<path d="M12 7L9.5 10L7 7H12Z" fill="var(--mw-icon-glyph-content-mono, #616061)"/>
<path d="M13.5 12C14.3284 12 15 11.3284 15 10.5C15 9.67157 14.3284 9 13.5 9C12.6716 9 12 9.67157 12 10.5C12 11.3284 12.6716 12 13.5 12Z" fill="var(--mw-icon-glyph-content-mono, #616061)"/>
</svg>
