<svg width="16" height="16" viewBox="0 0 16 16" fill="none" xmlns="http://www.w3.org/2000/svg">
<path d="M5.5 9.5H0.5V15.5H15.5V9.5H13.5" stroke="var(--mw-icon-glyph-content-mono, #616061)" stroke-linecap="round" stroke-linejoin="round"/>
<path d="M8 4H7V0H8V4Z" fill="var(--mw-icon-glyph-content-light-blue, #278CDD)"/>
<path d="M10 4L7.5 7L5 4H10Z" fill="var(--mw-icon-glyph-content-light-blue, #278CDD)"/>
<path d="M13 9H9V10H13V9Z" fill="var(--mw-icon-glyph-content-mono, #616061)"/>
<path d="M3 3H2V8H3V3Z" fill="var(--mw-icon-glyph-content-mono, #616061)"/>
<path d="M5 5H0V6H5V5Z" fill="var(--mw-icon-glyph-content-mono, #616061)"/>
<circle cx="7.5" cy="9.5" r="2" stroke="var(--mw-icon-glyph-content-light-blue, #278CDD)"/>
<path d="M13 3H12V9H13V3Z" fill="var(--mw-icon-glyph-content-light-blue, #278CDD)"/>
<path d="M15 3L12.5 0L10 3H15Z" fill="var(--mw-icon-glyph-content-light-blue, #278CDD)"/>
<path d="M12.5 11C13.3284 11 14 10.3284 14 9.5C14 8.67157 13.3284 8 12.5 8C11.6716 8 11 8.67157 11 9.5C11 10.3284 11.6716 11 12.5 11Z" fill="var(--mw-icon-glyph-content-light-blue, #278CDD)"/>
</svg>
