<svg width="16" height="16" viewBox="0 0 16 16" fill="none" xmlns="http://www.w3.org/2000/svg">
<path d="M12 4H11V0H12V4Z" fill="var(--mw-icon-glyph-content-light-blue, #278CDD)"/>
<path d="M14 4L11.5 7L9 4H14Z" fill="var(--mw-icon-glyph-content-light-blue, #278CDD)"/>
<path d="M4 3H3V9H4V3Z" fill="var(--mw-icon-glyph-content-light-blue, #278CDD)"/>
<path d="M6 3L3.5 0L1 3H6Z" fill="var(--mw-icon-glyph-content-light-blue, #278CDD)"/>
<path d="M10 9H4V10H10V9Z" fill="var(--mw-icon-glyph-content-mono, #616061)"/>
<path d="M8 11H7V14H8V11Z" fill="var(--mw-icon-glyph-content-mono, #616061)"/>
<path d="M9 12H6V13H9V12Z" fill="var(--mw-icon-glyph-content-mono, #616061)"/>
<path d="M2.5 9.5H0.5V15.5H15.5V9.5H13.5" stroke="var(--mw-icon-glyph-content-mono, #616061)" stroke-linejoin="round"/>
<path d="M3.5 11C4.32843 11 5 10.3284 5 9.5C5 8.67157 4.32843 8 3.5 8C2.67157 8 2 8.67157 2 9.5C2 10.3284 2.67157 11 3.5 11Z" fill="var(--mw-icon-glyph-content-light-blue, #278CDD)"/>
<circle cx="11.5" cy="9.5" r="2" stroke="var(--mw-icon-glyph-content-light-blue, #278CDD)"/>
</svg>
