<svg width="16" height="16" viewBox="0 0 16 16" fill="none" xmlns="http://www.w3.org/2000/svg">
<path d="M14.5 0.5H6.5V15.5H14.5C15.0523 15.5 15.5 15.0523 15.5 14.5V1.5C15.5 0.947715 15.0523 0.5 14.5 0.5Z" fill="var(--mw-icon-background-default-white, #FFFFFF)" stroke="var(--mw-icon-border-default-gray, #616161)" stroke-linecap="round"/>
<path d="M6.5 0.5H1.5C0.947715 0.5 0.5 0.947715 0.5 1.5V14.5C0.5 15.0523 0.947715 15.5 1.5 15.5H6.5V0.5Z" fill="var(--mw-icon-background-default-light-gray, #F5F5F5)" stroke="var(--mw-icon-border-default-gray, #616161)" stroke-linecap="round"/>
<path d="M8.5 3.5H13.5M8.5 7.5H11.5M8.5 11.5H12.5" stroke="var(--mw-icon-glyph-content-gray, #616162)" stroke-linecap="square"/>
<path d="M2.5 10.5H4C4.27614 10.5 4.5 10.7239 4.5 11V12C4.5 12.2761 4.27614 12.5 4 12.5H2.5" stroke="var(--mw-icon-glyph-content-gray, #616162)" stroke-linecap="square"/>
<path d="M3 11.5H3.5" stroke="var(--mw-icon-glyph-disabled-gray, #888889)" stroke-linecap="square"/>
<path d="M2.5 6H2V7H2.5V6ZM4.5 6.5L4.85355 6.85355C4.99655 6.71055 5.03933 6.4955 4.96194 6.30866C4.88455 6.12182 4.70223 6 4.5 6V6.5ZM2.5 8.5L2.14645 8.14645C2.00345 8.28945 1.96067 8.5045 2.03806 8.69134C2.11545 8.87818 2.29777 9 2.5 9V8.5ZM4.5 9H5V8H4.5V9ZM2.5 7H4.5V6H2.5V7ZM4.14645 6.14645L2.14645 8.14645L2.85355 8.85355L4.85355 6.85355L4.14645 6.14645ZM2.5 9H4.5V8H2.5V9Z" fill="var(--mw-icon-glyph-content-gray, #616162)"/>
<path d="M4 2.5V2H3V2.5H4ZM3 4.5V5H4V4.5H3ZM3 2.5V4.5H4V2.5H3Z" fill="var(--mw-icon-glyph-content-gray, #616162)"/>
</svg>
