<svg width="16" height="16" viewBox="0 0 16 16" fill="none" xmlns="http://www.w3.org/2000/svg">
<path d="M1.5 0.5H14.5C15.0523 0.5 15.5 0.947715 15.5 1.5V14.5C15.5 15.0523 15.0523 15.5 14.5 15.5H1.5C0.947716 15.5 0.5 15.0523 0.5 14.5V1.5C0.5 0.947715 0.947715 0.5 1.5 0.5Z" fill="var(--mw-icon-background-default-white, #FFFFFF)" stroke="var(--mw-icon-border-default-gray, #616161)" stroke-linecap="round"/>
<path d="M9 13H13V14H9V13Z" fill="var(--mw-icon-glyph-content-gray, #616162)"/>
<path d="M6 14L2 14L2 13L6 13V14Z" fill="var(--mw-icon-glyph-content-gray, #616162)"/>
<path d="M7 13H8V14H7V13Z" fill="var(--mw-icon-glyph-content-gray, #616162)"/>
<path d="M2 11H3V12H2V11Z" fill="var(--mw-icon-glyph-content-gray, #616162)"/>
<path d="M4 11H5V12H4V11Z" fill="var(--mw-icon-glyph-content-gray, #616162)"/>
<path d="M6 11H7V12H6V11Z" fill="var(--mw-icon-glyph-content-gray, #616162)"/>
<path d="M8 11H9V12H8V11Z" fill="var(--mw-icon-glyph-content-gray, #616162)"/>
<path d="M10 11H11V12H10V11Z" fill="var(--mw-icon-glyph-content-gray, #616162)"/>
<path d="M12 11H13V12H12V11Z" fill="var(--mw-icon-glyph-content-gray, #616162)"/>
<path d="M2.5 7.5L4.5 9.5L6.5 7.5L8.5 9.5L10.5 7.5L12.5 9.5L13.5 8.5" stroke="var(--mw-icon-glyph-content-gray, #616162)" stroke-linecap="square"/>
<path d="M2 5H5V6H2V5Z" fill="var(--mw-icon-glyph-content-gray, #616162)"/>
<path d="M6 5H9V6H6V5Z" fill="var(--mw-icon-glyph-content-gray, #616162)"/>
<path d="M10 5H13V6H10V5Z" fill="var(--mw-icon-glyph-content-gray, #616162)"/>
<rect x="2" y="3" width="12" height="1" fill="var(--mw-icon-glyph-content-gray, #616162)"/>
</svg>
