<svg width="16" height="16" viewBox="0 0 16 16" fill="none" xmlns="http://www.w3.org/2000/svg">
<path d="M16 10H12V11H16V10Z" fill="var(--mw-icon-glyph-content-mono, #616061)"/>
<path d="M8 10H3V11H8V10Z" fill="var(--mw-icon-glyph-content-mono, #616061)"/>
<path d="M2 10H0V11H2V10Z" fill="var(--mw-icon-glyph-content-mono, #616061)"/>
<path d="M9.5 8.5L5.5 12.5" stroke="var(--mw-icon-glyph-content-mono, #616061)" stroke-linecap="square"/>
<path d="M9.5 12.5L5.5 8.50002" stroke="var(--mw-icon-glyph-content-mono, #616061)" stroke-linecap="square"/>
<path d="M3 5H2V10H3V5Z" fill="var(--mw-icon-glyph-content-mono, #616061)"/>
<path d="M5 5L2.5 2L0 5H5Z" fill="var(--mw-icon-glyph-content-mono, #616061)"/>
<path d="M13 7H12V2H13V7Z" fill="var(--mw-icon-glyph-content-mono, #616061)"/>
<path d="M15 7L12.5 10L10 7H15Z" fill="var(--mw-icon-glyph-content-mono, #616061)"/>
<path d="M2.5 12C3.32843 12 4 11.3284 4 10.5C4 9.67157 3.32843 9 2.5 9C1.67157 9 1 9.67157 1 10.5C1 11.3284 1.67157 12 2.5 12Z" fill="var(--mw-icon-glyph-content-mono, #616061)"/>
</svg>
