<svg width="16" height="16" viewBox="0 0 16 16" fill="none" xmlns="http://www.w3.org/2000/svg">
<path d="M5.50037 2.50009H3.50037V5.50009M5.50037 8.50009H3.50037V5.50009M3.50037 5.50009H1.50037" stroke="var(--mw-icon-background-default-highlight, #FFE864)" stroke-width="3" stroke-linecap="square" stroke-linejoin="round"/>
<path d="M5.5 2.50009H3.5V5.50009M5.5 8.50009H3.5V5.50009M3.5 5.50009H0.5" stroke="var(--mw-icon-glyph-content-yellow, #674C07)" stroke-linecap="square" stroke-linejoin="round"/>
<path d="M11.5 4.5H6.5V2.5V0.5H11.5V2.5V4.5Z" fill="var(--mw-icon-background-default-medium-gray, #D9D9D9)"/>
<path d="M11.5 2.5V4.5H6.5V2.5V0.5H11.5V2.5ZM11.5 2.5H13.5" stroke="var(--mw-icon-glyph-disabled-gray, #888889)" stroke-linecap="square" stroke-linejoin="round"/>
<path d="M11.5 10.5H6.5V8.5V6.5H11.5V10.5Z" fill="var(--mw-icon-background-default-medium-gray, #D9D9D9)" stroke="var(--mw-icon-glyph-disabled-gray, #888889)" stroke-linecap="round" stroke-linejoin="round"/>
<path d="M5.5 6.5C5.5 5.94772 5.94772 5.5 6.5 5.5H14.5C15.0523 5.5 15.5 5.94772 15.5 6.5V14.5C15.5 15.0523 15.0523 15.5 14.5 15.5H6.5C5.94772 15.5 5.5 15.0523 5.5 14.5V6.5Z" fill="var(--mw-icon-background-default-white, #FFFFFF)" stroke="var(--mw-icon-border-default-gray, #616161)"/>
<path fill-rule="evenodd" clip-rule="evenodd" d="M10.7634 10.2365C10.4366 9.9097 9.90671 9.9097 9.57988 10.2365L8.0477 11.7687C7.72087 12.0956 7.72087 12.6255 8.0477 12.9523C8.37453 13.2791 8.90443 13.2791 9.23126 12.9523L9.88791 12.2956C10.0446 12.1389 10.2987 12.1389 10.4554 12.2956C10.6121 12.4524 10.6121 12.7064 10.4554 12.8632L9.79877 13.5198C9.15851 14.1601 8.12045 14.1601 7.48019 13.5198C6.83994 12.8795 6.83994 11.8415 7.48019 11.2012L9.01238 9.66903C9.65263 9.02877 10.6907 9.02877 11.331 9.66903C11.4877 9.82574 11.4877 10.0798 11.331 10.2365C11.1742 10.3932 10.9202 10.3932 10.7634 10.2365Z" fill="var(--mw-icon-glyph-content-gray, #616162)"/>
<path fill-rule="evenodd" clip-rule="evenodd" d="M10.2366 10.7635C10.5634 11.0903 11.0933 11.0903 11.4201 10.7635L12.9523 9.23127C13.2791 8.90444 13.2791 8.37454 12.9523 8.0477C12.6255 7.72087 12.0956 7.72087 11.7687 8.0477L11.1121 8.70436C10.9554 8.86107 10.7013 8.86107 10.5446 8.70436C10.3879 8.54764 10.3879 8.29356 10.5446 8.13685L11.2012 7.48019C11.8415 6.83994 12.8796 6.83994 13.5198 7.48019C14.1601 8.12045 14.1601 9.15852 13.5198 9.79878L11.9876 11.331C11.3474 11.9712 10.3093 11.9712 9.66905 11.331C9.51234 11.1743 9.51234 10.9202 9.66905 10.7635C9.82576 10.6068 10.0798 10.6068 10.2366 10.7635Z" fill="var(--mw-icon-glyph-content-gray, #616162)"/>
</svg>
