<svg width="16" height="16" viewBox="0 0 16 16" fill="none" xmlns="http://www.w3.org/2000/svg">
<path d="M2.5 11.5V3.5C2.5 2.94772 2.94772 2.5 3.5 2.5H11.5C12.0523 2.5 12.5 2.94772 12.5 3.5V11.5C12.5 12.0523 12.0523 12.5 11.5 12.5H3.5C2.94772 12.5 2.5 12.0523 2.5 11.5Z" fill="var(--mw-icon-background-default-white, #FFFFFF)" stroke="var(--mw-icon-border-default-gray, #616161)" stroke-linejoin="round"/>
<path d="M0.5 9.5V1.5C0.5 0.947715 0.947716 0.5 1.5 0.5H9.5C10.0523 0.5 10.5 0.947716 10.5 1.5V9.5C10.5 10.0523 10.0523 10.5 9.5 10.5H1.5C0.947715 10.5 0.5 10.0523 0.5 9.5Z" fill="white"/>
<path d="M10.5 5.78048C8.81404 2.73976 7.18596 2.73988 5.5 5.7806C4.11111 8.08518 2.18596 8.24505 0.5 5.20433" stroke="#0072BD" stroke-linecap="round"/>
<path d="M0.5 9.5V1.5C0.5 0.947715 0.947716 0.5 1.5 0.5H9.5C10.0523 0.5 10.5 0.947716 10.5 1.5V9.5C10.5 10.0523 10.0523 10.5 9.5 10.5H1.5C0.947715 10.5 0.5 10.0523 0.5 9.5Z" stroke="var(--mw-icon-border-default-gray, #616161)" stroke-linejoin="round"/>
<path d="M14.5 4.5H5.5C4.94772 4.5 4.5 4.94771 4.5 5.5V14.5C4.5 15.0523 4.94771 15.5 5.5 15.5H14.5C15.0523 15.5 15.5 15.0523 15.5 14.5V5.5C15.5 4.94772 15.0523 4.5 14.5 4.5Z" fill="white" stroke="var(--mw-icon-border-default-gray, #616161)" stroke-linecap="round"/>
<path fill-rule="evenodd" clip-rule="evenodd" d="M10.3011 9.6989C9.92756 9.32537 9.32196 9.32537 8.94844 9.6989L7.19737 11.45C6.82385 11.8235 6.82385 12.4291 7.19737 12.8026C7.57089 13.1761 8.17649 13.1761 8.55001 12.8026L9.30047 12.0522C9.47957 11.8731 9.76995 11.8731 9.94905 12.0522C10.1281 12.2313 10.1281 12.5216 9.94905 12.7007L9.19859 13.4512C8.46687 14.1829 7.28051 14.1829 6.54879 13.4512C5.81707 12.7195 5.81707 11.5331 6.54879 10.8014L8.29986 9.05032C9.03158 8.31859 10.2179 8.31859 10.9497 9.05032C11.1288 9.22942 11.1288 9.5198 10.9497 9.6989C10.7706 9.878 10.4802 9.878 10.3011 9.6989Z" fill="var(--mw-icon-glyph-content-gray, #616162)"/>
<path fill-rule="evenodd" clip-rule="evenodd" d="M9.69892 10.3011C10.0724 10.6746 10.678 10.6746 11.0516 10.3011L12.8026 8.55002C13.1762 8.1765 13.1762 7.5709 12.8026 7.19737C12.4291 6.82385 11.8235 6.82385 11.45 7.19737L10.6995 7.94784C10.5204 8.12694 10.2301 8.12694 10.051 7.94784C9.87185 7.76874 9.87185 7.47836 10.051 7.29926L10.8014 6.54879C11.5331 5.81707 12.7195 5.81707 13.4512 6.54879C14.1829 7.28052 14.1829 8.46688 13.4512 9.19861L11.7001 10.9497C10.9684 11.6814 9.78206 11.6814 9.05034 10.9497C8.87124 10.7706 8.87124 10.4802 9.05034 10.3011C9.22944 10.122 9.51982 10.122 9.69892 10.3011Z" fill="var(--mw-icon-glyph-content-gray, #616162)"/>
</svg>
