<svg width="16" height="16" viewBox="0 0 16 16" fill="none" xmlns="http://www.w3.org/2000/svg">
<path d="M12.5 0.5H0.5V12.5H12.5V0.5Z" fill="var(--mw-icon-background-default-white, #FFFFFF)"/>
<rect x="2.5" y="8.5" width="2" height="2" stroke="var(--mw-icon-glyph-content-light-blue, #278CDD)" stroke-linejoin="round"/>
<path d="M6.5 3.5C7.16667 2.16667 8.83333 2.16667 9.5 3.5C10.1667 4.83333 11.8333 4.83333 12.5 3.5" stroke="var(--mw-icon-glyph-content-light-blue, #278CDD)" stroke-linecap="round"/>
<path d="M1.5 6.5L2.5 5.5M6.5 1.5L4.5 3.5M2.5 1V5.5M2.5 5.5L4.5 3.5M4.5 1V3.5" stroke="var(--mw-icon-glyph-content-light-blue, #278CDD)"/>
<path d="M0.5 6.5H12.5M6.5 0.5V12.5M1 0.5H12C12.2761 0.5 12.5 0.723858 12.5 1V12C12.5 12.2761 12.2761 12.5 12 12.5H1C0.723858 12.5 0.5 12.2761 0.5 12V1C0.5 0.723858 0.723858 0.5 1 0.5Z" stroke="var(--mw-icon-border-default-gray, #616161)"/>
<path d="M4.5 5.5C4.5 4.94772 4.94772 4.5 5.5 4.5H13.5C14.0523 4.5 14.5 4.94772 14.5 5.5V13.5C14.5 14.0523 14.0523 14.5 13.5 14.5H5.5C4.94772 14.5 4.5 14.0523 4.5 13.5V5.5Z" fill="white" stroke="var(--mw-icon-border-default-gray, #616161)"/>
<path fill-rule="evenodd" clip-rule="evenodd" d="M9.76345 9.23654C9.43661 8.9097 8.90671 8.9097 8.57988 9.23653L7.0477 10.7687C6.72087 11.0956 6.72087 11.6255 7.0477 11.9523C7.37453 12.2791 7.90443 12.2791 8.23126 11.9523L8.88791 11.2956C9.04462 11.1389 9.2987 11.1389 9.45542 11.2956C9.61213 11.4524 9.61213 11.7064 9.45542 11.8632L8.79877 12.5198C8.15851 13.1601 7.12045 13.1601 6.48019 12.5198C5.83994 11.8795 5.83994 10.8415 6.48019 10.2012L8.01238 8.66903C8.65263 8.02877 9.6907 8.02877 10.331 8.66903C10.4877 8.82574 10.4877 9.07982 10.331 9.23654C10.1742 9.39325 9.92016 9.39325 9.76345 9.23654Z" fill="var(--mw-icon-border-default-gray, #616161)"/>
<path fill-rule="evenodd" clip-rule="evenodd" d="M9.23655 9.76346C9.56339 10.0903 10.0933 10.0903 10.4201 9.76346L11.9523 8.23127C12.2791 7.90444 12.2791 7.37454 11.9523 7.0477C11.6255 6.72087 11.0956 6.72087 10.7687 7.0477L10.1121 7.70436C9.95538 7.86107 9.7013 7.86107 9.54458 7.70436C9.38787 7.54764 9.38787 7.29356 9.54458 7.13685L10.2012 6.48019C10.8415 5.83994 11.8796 5.83994 12.5198 6.48019C13.1601 7.12045 13.1601 8.15852 12.5198 8.79878L10.9876 10.331C10.3474 10.9712 9.30931 10.9712 8.66905 10.331C8.51234 10.1743 8.51234 9.92018 8.66905 9.76346C8.82576 9.60675 9.07984 9.60675 9.23655 9.76346Z" fill="var(--mw-icon-border-default-gray, #616161)"/>
</svg>
