<svg width="16" height="16" viewBox="0 0 16 16" fill="none" xmlns="http://www.w3.org/2000/svg">
<path d="M3.5 2.5C3.5 1.39543 4.39543 0.5 5.5 0.5H13.5C14.6046 0.5 15.5 1.39543 15.5 2.5V10.5C15.5 11.6046 14.6046 12.5 13.5 12.5H5.5C4.39543 12.5 3.5 11.6046 3.5 10.5V2.5Z" fill="var(--mw-icon-background-default-white, #FFFFFF)" stroke="var(--mw-icon-border-default-gray, #616161)"/>
<path d="M10 7.5C10 7.22386 10.2239 7 10.5 7H13.5C13.7761 7 14 7.22386 14 7.5V10.5C14 10.7761 13.7761 11 13.5 11H10.5C10.2239 11 10 10.7761 10 10.5V7.5Z" fill="#B7312C"/>
<path d="M5.5 3.5H12.5V6.5" stroke="var(--mw-icon-glyph-disabled-gray, #888889)" stroke-linecap="square" stroke-linejoin="round"/>
<path d="M10.9118 3.32073C11.0294 3.40041 11.0294 3.59959 10.9118 3.67927L6.26471 5.97196C6.14706 6.05163 6 5.95204 6 5.79269L6 1.20731C6 1.04796 6.14706 0.948367 6.26471 1.02804L10.9118 3.32073Z" fill="var(--mw-icon-glyph-content-light-blue, #278CDD)"/>
<path d="M0.5 6.5C0.5 5.94772 0.947715 5.5 1.5 5.5H9.5C10.0523 5.5 10.5 5.94772 10.5 6.5V14.5C10.5 15.0523 10.0523 15.5 9.5 15.5H1.5C0.947715 15.5 0.5 15.0523 0.5 14.5V6.5Z" fill="var(--mw-icon-background-default-selection, #B4DEFF)" stroke="var(--mw-icon-border-default-blue, #1656A7)"/>
<path fill-rule="evenodd" clip-rule="evenodd" d="M5.76345 10.2365C5.43661 9.9097 4.90671 9.9097 4.57988 10.2365L3.0477 11.7687C2.72087 12.0956 2.72087 12.6255 3.0477 12.9523C3.37453 13.2791 3.90443 13.2791 4.23126 12.9523L4.88791 12.2956C5.04462 12.1389 5.2987 12.1389 5.45542 12.2956C5.61213 12.4524 5.61213 12.7064 5.45542 12.8632L4.79877 13.5198C4.15851 14.1601 3.12045 14.1601 2.48019 13.5198C1.83994 12.8795 1.83994 11.8415 2.48019 11.2012L4.01238 9.66903C4.65263 9.02877 5.6907 9.02877 6.33095 9.66903C6.48766 9.82574 6.48766 10.0798 6.33095 10.2365C6.17424 10.3932 5.92016 10.3932 5.76345 10.2365Z" fill="var(--mw-icon-glyph-content-blue, #1656A8)"/>
<path fill-rule="evenodd" clip-rule="evenodd" d="M5.23655 10.7635C5.56339 11.0903 6.09329 11.0903 6.42012 10.7635L7.9523 9.23127C8.27913 8.90444 8.27913 8.37454 7.9523 8.0477C7.62547 7.72087 7.09557 7.72087 6.76874 8.0477L6.11209 8.70436C5.95538 8.86107 5.7013 8.86107 5.54458 8.70436C5.38787 8.54764 5.38787 8.29356 5.54458 8.13685L6.20123 7.48019C6.84149 6.83994 7.87955 6.83994 8.51981 7.48019C9.16006 8.12045 9.16006 9.15852 8.51981 9.79878L6.98762 11.331C6.34737 11.9712 5.30931 11.9712 4.66905 11.331C4.51234 11.1743 4.51234 10.9202 4.66905 10.7635C4.82576 10.6068 5.07984 10.6068 5.23655 10.7635Z" fill="var(--mw-icon-glyph-content-blue, #1656A8)"/>
</svg>
