<svg width="16" height="16" viewBox="0 0 16 16" fill="none" xmlns="http://www.w3.org/2000/svg">
<path d="M0.5 14.5V1.5C0.5 0.947715 0.947715 0.5 1.5 0.5H14.5C15.0523 0.5 15.5 0.947715 15.5 1.5V14.5C15.5 15.0523 15.0523 15.5 14.5 15.5H1.5C0.947715 15.5 0.5 15.0523 0.5 14.5Z" fill="var(--mw-icon-background-default-white, #FFFFFF)" stroke="var(--mw-icon-border-default-gray, #616161)" stroke-linecap="square"/>
<path fill-rule="evenodd" clip-rule="evenodd" d="M8.45162 7.54835C7.89134 6.98806 6.98294 6.98806 6.42266 7.54835L3.79605 10.175C3.23577 10.7352 3.23577 11.6437 3.79605 12.2039C4.35634 12.7642 5.26474 12.7642 5.82502 12.2039L6.95071 11.0782C7.21936 10.8096 7.65492 10.8096 7.92357 11.0782C8.19222 11.3469 8.19222 11.7825 7.92357 12.0511L6.79788 13.1768C5.7003 14.2744 3.92077 14.2744 2.82319 13.1768C1.7256 12.0792 1.7256 10.2997 2.82319 9.20209L5.44979 6.57548C6.54737 5.47789 8.32691 5.47789 9.42449 6.57548C9.69314 6.84413 9.69314 7.2797 9.42449 7.54835C9.15584 7.817 8.72027 7.817 8.45162 7.54835Z" fill="var(--mw-icon-glyph-content-gray, #616162)"/>
<path fill-rule="evenodd" clip-rule="evenodd" d="M7.54838 8.45165C8.10866 9.01194 9.01706 9.01194 9.57734 8.45165L12.2039 5.82504C12.7642 5.26475 12.7642 4.35635 12.2039 3.79606C11.6437 3.23578 10.7353 3.23578 10.175 3.79606L9.04929 4.92175C8.78064 5.1904 8.34508 5.1904 8.07643 4.92175C7.80778 4.6531 7.80778 4.21753 8.07643 3.94888L9.20212 2.82319C10.2997 1.7256 12.0792 1.7256 13.1768 2.82319C14.2744 3.92078 14.2744 5.70032 13.1768 6.79791L10.5502 9.42452C9.45263 10.5221 7.67309 10.5221 6.57551 9.42452C6.30686 9.15587 6.30686 8.7203 6.57551 8.45165C6.84416 8.183 7.27973 8.183 7.54838 8.45165Z" fill="var(--mw-icon-glyph-content-gray, #616162)"/>
</svg>
