<svg width="16" height="16" viewBox="0 0 16 16" fill="none" xmlns="http://www.w3.org/2000/svg">
<path d="M13.5 0.5H1.5C0.947715 0.5 0.5 0.947716 0.5 1.5V13.5C0.5 14.0523 0.947716 14.5 1.5 14.5H13.5C14.0523 14.5 14.5 14.0523 14.5 13.5V1.5C14.5 0.947715 14.0523 0.5 13.5 0.5Z" fill="var(--mw-icon-background-default-white, #FFFFFF)" stroke="var(--mw-icon-border-default-gray, #616161)" stroke-linecap="round"/>
<circle cx="0.5" cy="0.5" r="0.5" transform="matrix(1 0 0 -1 8 4)" fill="var(--mw-icon-glyph-content-green, #008014)"/>
<circle cx="0.5" cy="0.5" r="0.5" transform="matrix(1 0 0 -1 7 4)" fill="var(--mw-icon-glyph-content-green, #008014)"/>
<circle cx="0.5" cy="0.5" r="0.5" transform="matrix(1 0 0 -1 9 3)" fill="var(--mw-icon-glyph-content-green, #008014)"/>
<circle cx="0.5" cy="0.5" r="0.5" transform="matrix(1 0 0 -1 8 3)" fill="var(--mw-icon-glyph-content-green, #008014)"/>
<circle cx="0.5" cy="0.5" r="0.5" transform="matrix(1 0 0 -1 10 3)" fill="var(--mw-icon-glyph-content-green, #008014)"/>
<circle cx="0.5" cy="0.5" r="0.5" transform="matrix(1 0 0 -1 11 3)" fill="var(--mw-icon-glyph-content-green, #008014)"/>
<circle cx="0.5" cy="0.5" r="0.5" transform="matrix(1 0 0 -1 12 3)" fill="var(--mw-icon-glyph-content-green, #008014)"/>
<circle cx="0.5" cy="0.5" r="0.5" transform="matrix(1 0 0 -1 11 4)" fill="var(--mw-icon-glyph-content-green, #008014)"/>
<circle cx="0.5" cy="0.5" r="0.5" transform="matrix(1 0 0 -1 10 4)" fill="var(--mw-icon-glyph-content-green, #008014)"/>
<circle cx="0.5" cy="0.5" r="0.5" transform="matrix(1 0 0 -1 9 4)" fill="var(--mw-icon-glyph-content-green, #008014)"/>
<path d="M9 6L6.5 8.5M6.5 8.5V6.5M6.5 8.5H8.5" stroke="var(--mw-icon-glyph-content-gray, #616162)" stroke-linecap="square" stroke-linejoin="round"/>
<circle cx="0.5" cy="0.5" r="0.5" transform="matrix(1 0 0 -1 2 13)" fill="var(--mw-icon-glyph-content-light-blue, #278CDD)"/>
<circle cx="0.5" cy="0.5" r="0.5" transform="matrix(1 0 0 -1 3 13)" fill="var(--mw-icon-glyph-content-light-blue, #278CDD)"/>
<circle cx="0.5" cy="0.5" r="0.5" transform="matrix(1 0 0 -1 4 13)" fill="var(--mw-icon-glyph-content-light-blue, #278CDD)"/>
<circle cx="0.5" cy="0.5" r="0.5" transform="matrix(1 0 0 -1 3 12)" fill="var(--mw-icon-glyph-content-light-blue, #278CDD)"/>
<circle cx="0.5" cy="0.5" r="0.5" transform="matrix(1 0 0 -1 6 12)" fill="var(--mw-icon-glyph-content-light-blue, #278CDD)"/>
<circle cx="0.5" cy="0.5" r="0.5" transform="matrix(1 0 0 -1 7 12)" fill="var(--mw-icon-glyph-content-light-blue, #278CDD)"/>
<circle cx="0.5" cy="0.5" r="0.5" transform="matrix(1 0 0 -1 5 12)" fill="var(--mw-icon-glyph-content-light-blue, #278CDD)"/>
<circle cx="0.5" cy="0.5" r="0.5" transform="matrix(1 0 0 -1 5 13)" fill="var(--mw-icon-glyph-content-light-blue, #278CDD)"/>
<circle cx="0.5" cy="0.5" r="0.5" transform="matrix(1 0 0 -1 6 13)" fill="var(--mw-icon-glyph-content-light-blue, #278CDD)"/>
<circle cx="0.5" cy="0.5" r="0.5" transform="matrix(1 0 0 -1 4 12)" fill="var(--mw-icon-glyph-content-light-blue, #278CDD)"/>
</svg>
