<svg width="16" height="16" viewBox="0 0 16 16" fill="none" xmlns="http://www.w3.org/2000/svg">
<path d="M0.5 2C0.5 1.17157 1.17157 0.5 2 0.5H13C13.8284 0.5 14.5 1.17157 14.5 2V13C14.5 13.8284 13.8284 14.5 13 14.5H2C1.17157 14.5 0.5 13.8284 0.5 13V2Z" fill="var(--mw-icon-background-default-white, #FFFFFF)" stroke="var(--mw-icon-border-default-gray, #616161)"/>
<path d="M8.5 7.5C8.5 8.05228 8.05228 8.5 7.5 8.5C6.94772 8.5 6.5 8.05228 6.5 7.5C6.5 6.94772 6.94772 6.5 7.5 6.5C8.05228 6.5 8.5 6.94772 8.5 7.5Z" fill="var(--mw-icon-background-medium-yellow, #FFEF91)" stroke="var(--mw-icon-glyph-content-yellow, #674C07)"/>
<path d="M10.5 7.5C10.5 9.15685 9.15685 10.5 7.5 10.5C5.84315 10.5 4.5 9.15685 4.5 7.5C4.5 5.84315 5.84315 4.5 7.5 4.5C9.15685 4.5 10.5 5.84315 10.5 7.5Z" stroke="var(--mw-icon-glyph-content-yellow, #674C07)" stroke-dasharray="1.5 1"/>
<path d="M12.5 7.5H11M4 7.5H2.5M7.5 12.5V11M7.5 4V2.5" stroke="var(--mw-icon-glyph-content-yellow, #674C07)" stroke-linecap="square"/>
</svg>
