<svg width="16" height="16" viewBox="0 0 16 16" fill="none" xmlns="http://www.w3.org/2000/svg">
<rect x="0.500244" y="0.500061" width="15" height="15" rx="2" fill="var(--mw-icon-background-default-white, #FFFFFF)" stroke="var(--mw-icon-border-default-blue, #1656A7)"/>
<path d="M10.5005 12.0001C10.5005 12.9448 9.57498 13.5001 8.00049 13.5001C6.42599 13.5001 5.50049 12.9448 5.50049 12.0001C5.50049 11.0554 6.42599 10.5001 8.00049 10.5001C9.57498 10.5001 10.5005 11.0554 10.5005 12.0001Z" stroke="var(--mw-icon-glyph-content-blue, #1656A8)"/>
<path d="M12.5005 13.5001C12.5005 13.5001 13.5005 13.0001 13.5005 12.0001C13.5005 11.0001 12.5005 10.5001 12.5005 10.5001M3.50049 13.5001C3.50049 13.5001 2.50049 13.0001 2.50049 12.0001C2.50049 11.0001 3.50049 10.5001 3.50049 10.5001" stroke="var(--mw-icon-glyph-content-light-blue, #278CDD)" stroke-linecap="square" stroke-linejoin="round"/>
<path d="M10.5005 5.22739C10.5005 6.73363 8.00049 11.5001 8.00049 11.5001C8.00049 11.5001 5.50049 6.73363 5.50049 5.22739C5.50049 3.72116 6.61978 2.50012 8.00049 2.50012C9.3812 2.50012 10.5005 3.72116 10.5005 5.22739Z" fill="#FFAB66" stroke="#A24302" stroke-linejoin="round"/>
<circle cx="8.00049" cy="5.00012" r="1" fill="#823400"/>
</svg>
