<svg width="16" height="16" viewBox="0 0 16 16" fill="none" xmlns="http://www.w3.org/2000/svg">
<path d="M0.5 13.5V1.5C0.5 0.947715 0.947716 0.5 1.5 0.5H13.5C14.0523 0.5 14.5 0.947716 14.5 1.5V13.5C14.5 14.0523 14.0523 14.5 13.5 14.5H1.5C0.947715 14.5 0.5 14.0523 0.5 13.5Z" fill="var(--mw-icon-background-default-white, #FFFFFF)" stroke="var(--mw-icon-border-default-gray, #616161)" stroke-linecap="square"/>
<path d="M4 6.5C4 6.22386 4.22386 6 4.5 6H10.5C10.7761 6 11 6.22386 11 6.5V11.5C11 11.7761 10.7761 12 10.5 12H4.5C4.22386 12 4 11.7761 4 11.5V6.5Z" fill="var(--mw-icon-glyph-content-gray, #616162)"/>
<path fill-rule="evenodd" clip-rule="evenodd" d="M6 8H9V9H8V10H7V9H6V8Z" fill="white"/>
<path d="M5.5 6V4.5C5.5 3.39543 6.39543 2.5 7.5 2.5V2.5C8.60457 2.5 9.5 3.39543 9.5 4.5V6" stroke="var(--mw-icon-glyph-content-gray, #616162)"/>
</svg>
