<svg width="16" height="16" viewBox="0 0 16 16" fill="none" xmlns="http://www.w3.org/2000/svg">
<rect x="0.5" y="0.5" width="14" height="14" rx="1" fill="var(--mw-icon-background-default-white, #FFFFFF)"/>
<path d="M0.5 11.5C0.5 11.5 7.5 12.2895 7.5 7.49993C7.5 2.7104 14.5 3.49996 14.5 3.49996" stroke="var(--mw-icon-glyph-content-gray, #616162)" stroke-linecap="round" stroke-linejoin="round"/>
<path d="M10.5 3.5C10.5 2.94772 10.9477 2.5 11.5 2.5C12.0523 2.5 12.5 2.94772 12.5 3.5C12.5 4.05228 12.0523 4.5 11.5 4.5C10.9477 4.5 10.5 4.05228 10.5 3.5Z" fill="white"/>
<path d="M6.5 3.5C6.5 2.94772 6.94772 2.5 7.5 2.5C8.05228 2.5 8.5 2.94772 8.5 3.5C8.5 4.05228 8.05228 4.5 7.5 4.5C6.94772 4.5 6.5 4.05228 6.5 3.5Z" fill="white"/>
<path d="M2.5 3.5C2.5 2.94772 2.94772 2.5 3.5 2.5C4.05228 2.5 4.5 2.94772 4.5 3.5C4.5 4.05228 4.05228 4.5 3.5 4.5C2.94772 4.5 2.5 4.05228 2.5 3.5Z" fill="white"/>
<path d="M10.5 3.5C10.5 2.94772 10.9477 2.5 11.5 2.5C12.0523 2.5 12.5 2.94772 12.5 3.5C12.5 4.05228 12.0523 4.5 11.5 4.5C10.9477 4.5 10.5 4.05228 10.5 3.5Z" stroke="#DD5400"/>
<path d="M6.5 3.5C6.5 2.94772 6.94772 2.5 7.5 2.5C8.05228 2.5 8.5 2.94772 8.5 3.5C8.5 4.05228 8.05228 4.5 7.5 4.5C6.94772 4.5 6.5 4.05228 6.5 3.5Z" stroke="#DD5400"/>
<path d="M2.5 3.5C2.5 2.94772 2.94772 2.5 3.5 2.5C4.05228 2.5 4.5 2.94772 4.5 3.5C4.5 4.05228 4.05228 4.5 3.5 4.5C2.94772 4.5 2.5 4.05228 2.5 3.5Z" stroke="#DD5400"/>
<path d="M2.5 11.5C2.5 10.9477 2.94772 10.5 3.5 10.5C4.05228 10.5 4.5 10.9477 4.5 11.5C4.5 12.0523 4.05228 12.5 3.5 12.5C2.94772 12.5 2.5 12.0523 2.5 11.5Z" fill="white"/>
<path d="M6.5 11.5C6.5 10.9477 6.94772 10.5 7.5 10.5C8.05228 10.5 8.5 10.9477 8.5 11.5C8.5 12.0523 8.05228 12.5 7.5 12.5C6.94772 12.5 6.5 12.0523 6.5 11.5Z" fill="white"/>
<path d="M10.5 11.5C10.5 10.9477 10.9477 10.5 11.5 10.5C12.0523 10.5 12.5 10.9477 12.5 11.5C12.5 12.0523 12.0523 12.5 11.5 12.5C10.9477 12.5 10.5 12.0523 10.5 11.5Z" fill="white"/>
<path d="M2.5 11.5C2.5 10.9477 2.94772 10.5 3.5 10.5C4.05228 10.5 4.5 10.9477 4.5 11.5C4.5 12.0523 4.05228 12.5 3.5 12.5C2.94772 12.5 2.5 12.0523 2.5 11.5Z" stroke="#1171BE"/>
<path d="M6.5 11.5C6.5 10.9477 6.94772 10.5 7.5 10.5C8.05228 10.5 8.5 10.9477 8.5 11.5C8.5 12.0523 8.05228 12.5 7.5 12.5C6.94772 12.5 6.5 12.0523 6.5 11.5Z" stroke="#1171BE"/>
<path d="M10.5 11.5C10.5 10.9477 10.9477 10.5 11.5 10.5C12.0523 10.5 12.5 10.9477 12.5 11.5C12.5 12.0523 12.0523 12.5 11.5 12.5C10.9477 12.5 10.5 12.0523 10.5 11.5Z" stroke="#1171BE"/>
<rect x="0.5" y="0.5" width="14" height="14" rx="1" stroke="var(--mw-icon-border-default-gray, #616161)"/>
</svg>
