<svg width="16" height="16" viewBox="0 0 16 16" fill="none" xmlns="http://www.w3.org/2000/svg">
<path d="M9.5 3C9.22386 3 9 3.22386 9 3.5C9 3.77614 9.22386 4 9.5 4V3ZM14.5 3.5H15C15 3.22386 14.7761 3 14.5 3V3.5ZM14.5 14.5V15C14.7761 15 15 14.7761 15 14.5H14.5ZM0.5 14.5H0C0 14.7761 0.223858 15 0.5 15L0.5 14.5ZM0.5 3.5V3C0.223858 3 0 3.22386 0 3.5H0.5ZM9.5 4H14.5V3H9.5V4ZM14 3.5V14.5H15V3.5H14ZM14.5 14H0.5V15H14.5V14ZM1 14.5V3.5H0V14.5H1ZM0.5 4H5.5V3H0.5V4Z" fill="var(--mw-icon-object-primary, #616160)"/>
<path d="M4 7V0L8 3.5L4 7Z" fill="var(--mw-icon-object-primary, #616160)"/>
</svg>
