<svg width="16" height="17" viewBox="0 0 16 17" fill="none" xmlns="http://www.w3.org/2000/svg">
<path d="M14.5 5L7.5 1.5L0.5 5V12L7.5 15.5L14.5 12V5Z" fill="var(--mw-icon-background-default-white, #FFFFFF)"/>
<path d="M7.5 1.5L14.5 5V12L7.5 8.5V1.5Z" fill="var(--mw-icon-background-default-light-gray, #F5F5F5)"/>
<path d="M7.5 1.5L0.5 5V12L7.5 8.5V1.5Z" fill="var(--mw-icon-background-default-medium-gray, #D9D9D9)"/>
<path d="M5.5 10.5L2.5 9.5L4.5 6.5L8.5 4.5L12.5 8.5L9.5 9.5L8.5 12.5L5.5 10.5Z" fill="var(--mw-icon-background-default-selection, #B4DEFF)"/>
<path d="M8.5 4.5L12.5 8.5L9.5 9.5M8.5 4.5L6.5 6.5M8.5 4.5L4.5 6.5M5.5 10.5L2.5 9.5L4.5 6.5M5.5 10.5L8.5 12.5L9.5 9.5M5.5 10.5L6.5 6.5M6.5 6.5H4.5M6.5 6.5L9.5 9.5" stroke="var(--mw-icon-glyph-content-light-blue, #278CDD)" stroke-linecap="round" stroke-linejoin="round"/>
<path d="M9 12.5C9 12.2239 9.22386 12 9.5 12C9.77614 12 10 12.2239 10 12.5C10 12.7761 9.77614 13 9.5 13C9.22386 13 9 12.7761 9 12.5Z" fill="var(--mw-icon-glyph-content-dark-gray, #333333)"/>
<path d="M7 12.5C7 12.2239 7.22386 12 7.5 12C7.77614 12 8 12.2239 8 12.5C8 12.7761 7.77614 13 7.5 13C7.22386 13 7 12.7761 7 12.5Z" fill="var(--mw-icon-glyph-content-dark-gray, #333333)"/>
<path d="M5 12.5C5 12.2239 5.22386 12 5.5 12C5.77614 12 6 12.2239 6 12.5C6 12.7761 5.77614 13 5.5 13C5.22386 13 5 12.7761 5 12.5Z" fill="var(--mw-icon-glyph-content-dark-gray, #333333)"/>
<path d="M4 11.5C4 11.2239 4.22386 11 4.5 11C4.77614 11 5 11.2239 5 11.5C5 11.7761 4.77614 12 4.5 12C4.22386 12 4 11.7761 4 11.5Z" fill="var(--mw-icon-glyph-content-dark-gray, #333333)"/>
<path d="M3 6.5C3 6.22386 3.22386 6 3.5 6C3.77614 6 4 6.22386 4 6.5C4 6.77614 3.77614 7 3.5 7C3.22386 7 3 6.77614 3 6.5Z" fill="var(--mw-icon-glyph-content-dark-gray, #333333)"/>
<path d="M4 5.5C4 5.22386 4.22386 5 4.5 5C4.77614 5 5 5.22386 5 5.5C5 5.77614 4.77614 6 4.5 6C4.22386 6 4 5.77614 4 5.5Z" fill="var(--mw-icon-glyph-content-dark-gray, #333333)"/>
<path d="M5 4.5C5 4.22386 5.22386 4 5.5 4C5.77614 4 6 4.22386 6 4.5C6 4.77614 5.77614 5 5.5 5C5.22386 5 5 4.77614 5 4.5Z" fill="var(--mw-icon-glyph-content-dark-gray, #333333)"/>
<path d="M7 3.5C7 3.22386 7.22386 3 7.5 3C7.77614 3 8 3.22386 8 3.5C8 3.77614 7.77614 4 7.5 4C7.22386 4 7 3.77614 7 3.5Z" fill="var(--mw-icon-glyph-content-dark-gray, #333333)"/>
<path d="M7 9.5C7 9.22386 7.22386 9 7.5 9C7.77614 9 8 9.22386 8 9.5C8 9.77614 7.77614 10 7.5 10C7.22386 10 7 9.77614 7 9.5Z" fill="var(--mw-icon-glyph-content-dark-gray, #333333)"/>
<path d="M4 8.5C4 8.22386 4.22386 8 4.5 8C4.77614 8 5 8.22386 5 8.5C5 8.77614 4.77614 9 4.5 9C4.22386 9 4 8.77614 4 8.5Z" fill="var(--mw-icon-glyph-content-dark-gray, #333333)"/>
<path d="M9 6.5C9 6.22386 9.22386 6 9.5 6C9.77614 6 10 6.22386 10 6.5C10 6.77614 9.77614 7 9.5 7C9.22386 7 9 6.77614 9 6.5Z" fill="var(--mw-icon-glyph-content-dark-gray, #333333)"/>
<path d="M12 6.5C12 6.22386 12.2239 6 12.5 6C12.7761 6 13 6.22386 13 6.5C13 6.77614 12.7761 7 12.5 7C12.2239 7 12 6.77614 12 6.5Z" fill="var(--mw-icon-glyph-content-dark-gray, #333333)"/>
<path d="M8 7.5C8 7.22386 8.22386 7 8.5 7C8.77614 7 9 7.22386 9 7.5C9 7.77614 8.77614 8 8.5 8C8.22386 8 8 7.77614 8 7.5Z" fill="var(--mw-icon-glyph-content-dark-gray, #333333)"/>
<path d="M8 7.5C8 7.22386 8.22386 7 8.5 7C8.77614 7 9 7.22386 9 7.5C9 7.77614 8.77614 8 8.5 8C8.22386 8 8 7.77614 8 7.5Z" fill="var(--mw-icon-glyph-content-dark-gray, #333333)"/>
<path d="M0.5 5L7.5 1.5L14.5 5V12" stroke="var(--mw-icon-background-default-dark-gray, #A6A6A6)"/>
<path d="M0.5 5V12L7.5 15.5L14.5 12" stroke="var(--mw-icon-border-default-gray, #616161)" stroke-linecap="round" stroke-linejoin="round"/>
</svg>
