<svg width="16" height="16" viewBox="0 0 16 16" fill="none" xmlns="http://www.w3.org/2000/svg">
<path d="M0.5 12.5V2.5C0.5 1.39543 1.39543 0.5 2.5 0.5H12.5C13.6046 0.5 14.5 1.39543 14.5 2.5V12.5C14.5 13.6046 13.6046 14.5 12.5 14.5H2.5C1.39543 14.5 0.5 13.6046 0.5 12.5Z" fill="var(--mw-icon-background-default-white, white)"/>
<path d="M12.4999 3.89996C12.4999 4.07666 12.4999 4.76988 11.8116 4.80386C11.1233 4.83784 11.1233 4.06307 11.1233 3.90675C11.1377 3.44283 10.9915 2.98792 10.7086 2.6172C10.4258 2.24648 10.0233 1.98215 9.56772 1.86788C8.93542 1.67773 8.25913 1.68469 7.63097 1.88778C7.00281 2.09088 6.45334 2.48025 6.0574 3.00285C6.4064 2.31341 6.96903 1.75186 7.66347 1.39985C8.35791 1.04784 9.14796 0.923714 9.91876 1.04553C10.6276 1.12844 11.2813 1.46441 11.7567 1.99016C12.2321 2.51591 12.4964 3.19515 12.4999 3.89996ZM10.5726 4.76988C10.5726 4.89901 10.5726 5.4495 10.0289 5.4495C9.48513 5.4495 9.53331 4.89221 9.54019 4.76988C9.56461 4.4278 9.4692 4.08783 9.26995 3.80695C9.07071 3.52608 8.77973 3.32136 8.4458 3.22713C7.97691 3.06786 7.46952 3.0562 6.99364 3.19375C6.51776 3.33131 6.09684 3.61131 5.78896 3.99511C6.06793 3.4967 6.49837 3.09737 7.01953 2.85349C7.54069 2.60961 8.12625 2.53348 8.69358 2.63585C9.21478 2.70798 9.69202 2.9637 10.0373 3.35586C10.3826 3.74803 10.5728 4.25022 10.5726 4.76988ZM8.70735 6C8.27372 6 8.3219 5.59902 8.3219 5.51067C8.32094 5.25528 8.23277 5.00767 8.07165 4.80787C7.91053 4.60808 7.68587 4.46779 7.434 4.40968C7.0799 4.31431 6.70472 4.32832 6.35893 4.44982C6.01315 4.57133 5.71335 4.7945 5.49988 5.0893C5.68786 4.70586 5.99276 4.39019 6.37176 4.18663C6.75075 3.98306 7.1848 3.90182 7.61296 3.95433C8.00824 3.98921 8.37674 4.16637 8.64833 4.45209C8.91993 4.73781 9.07567 5.11215 9.08592 5.50387C9.08592 5.58543 9.1341 5.97282 8.70735 6Z" fill="#EC1944"/>
<path d="M8.56811 12.82L8.09694 12.9145C7.80166 12.9648 7.50308 12.9916 7.20383 12.9945C6.83147 13.0187 6.45917 12.9462 6.12084 12.7837C5.88125 12.6422 5.69714 12.4185 5.60045 12.1514C5.46518 11.7052 5.40802 11.2375 5.43167 10.7705V8.76466H4.84799V7.18031H5.43167V6.11922L7.40777 5V7.18031H8.49778V8.7792H7.40777V10.8142C7.39498 10.9769 7.41657 11.1406 7.47106 11.2938C7.50631 11.3544 7.55729 11.4035 7.6182 11.4356C7.67911 11.4677 7.74751 11.4816 7.81564 11.4755C8.02302 11.4627 8.22714 11.4161 8.42043 11.3374H8.51185C8.57482 11.5901 8.6669 11.8341 8.78611 12.0642C8.90778 12.2614 9.04416 12.4485 9.19399 12.6238C8.99124 12.7078 8.78183 12.7735 8.56811 12.82ZM11.9085 9.10625C11.8223 9.02086 11.7194 8.95568 11.6066 8.91517C11.4939 8.87465 11.374 8.85975 11.2552 8.87148C11.1364 8.88321 11.0214 8.92129 10.9181 8.98313C10.8148 9.04496 10.7257 9.1291 10.6567 9.2298C10.5548 9.39927 10.4923 9.5908 10.4739 9.78941H12.1968C12.1689 9.53704 12.0684 9.2991 11.9085 9.10625ZM13.9549 10.7124V10.8142V10.865H10.4387C10.4542 11.0969 10.5294 11.3202 10.6567 11.5119C10.7346 11.6159 10.8349 11.6996 10.9497 11.7564C11.0645 11.8132 11.1905 11.8414 11.3178 11.8389C11.4916 11.8379 11.6619 11.7877 11.81 11.6935C11.9296 11.6078 12.0322 11.4992 12.1124 11.3738L12.1757 11.2575H13.8986V11.3738C13.7293 11.9163 13.3743 12.3763 12.9 12.6674C12.4034 12.9146 11.854 13.0272 11.3037 12.9945C10.8199 13.0147 10.3382 12.9177 9.89722 12.711C9.53139 12.5048 9.23286 12.1912 9.03927 11.8098C8.80421 11.3647 8.68773 10.8631 8.70172 10.3563C8.68956 10.0053 8.74551 9.65536 8.86629 9.32709C8.98707 8.99881 9.17023 8.69885 9.40496 8.44489C9.65446 8.19508 9.95142 8.0015 10.277 7.8764C10.6027 7.7513 10.9499 7.69741 11.2967 7.71812C11.8285 7.69119 12.3583 7.80369 12.8368 8.04516C13.2124 8.26373 13.5143 8.59599 13.7017 8.99723C13.9174 9.50746 14.0184 10.0616 13.9971 10.6179V10.6761L13.9549 10.7124ZM1.99988 12.8927V6.38086H4.05333L3.97597 11.3956H5.16444C5.17855 11.6679 5.21859 11.9381 5.28399 12.2023C5.369 12.4557 5.51406 12.6831 5.70593 12.8636L1.99988 12.8927Z" fill="black"/>
<path d="M0.5 12.5V2.5C0.5 1.39543 1.39543 0.5 2.5 0.5H12.5C13.6046 0.5 14.5 1.39543 14.5 2.5V12.5C14.5 13.6046 13.6046 14.5 12.5 14.5H2.5C1.39543 14.5 0.5 13.6046 0.5 12.5Z" stroke="var(--mw-icon-border-default-gray, #616161)" stroke-linecap="round"/>

</svg>
