<svg width="16" height="16" viewBox="0 0 16 16" fill="none" xmlns="http://www.w3.org/2000/svg">
<path d="M0.5 13.5C0.5 14.0523 0.947715 14.5 1.5 14.5H13.5C14.0523 14.5 14.5 14.0523 14.5 13.5V1.5C14.5 0.947716 14.0523 0.5 13.5 0.5H1.5C0.947716 0.5 0.5 0.947716 0.5 1.5V13.5Z" fill="var(--mw-icon-background-default-white, #FFFFFF)" stroke="var(--mw-icon-border-default-gray, #616161)"/>
<path d="M12.4999 3.89984C12.4999 4.07654 12.4999 4.76976 11.8116 4.80374C11.1233 4.83772 11.1233 4.06295 11.1233 3.90663C11.1377 3.44271 10.9915 2.9878 10.7086 2.61708C10.4258 2.24636 10.0233 1.98202 9.56772 1.86776C8.93542 1.67761 8.25913 1.68456 7.63097 1.88766C7.00281 2.09076 6.45334 2.48013 6.0574 3.00273C6.4064 2.31329 6.96903 1.75174 7.66347 1.39973C8.35791 1.04771 9.14796 0.923592 9.91876 1.04541C10.6276 1.12832 11.2813 1.46429 11.7567 1.99004C12.2321 2.51579 12.4964 3.19503 12.4999 3.89984ZM10.5726 4.76976C10.5726 4.89888 10.5726 5.44938 10.0289 5.44938C9.48513 5.44938 9.53331 4.89209 9.54019 4.76976C9.56461 4.42768 9.4692 4.08771 9.26995 3.80683C9.07071 3.52595 8.77973 3.32124 8.4458 3.22701C7.97691 3.06774 7.46952 3.05607 6.99364 3.19363C6.51776 3.33119 6.09684 3.61118 5.78896 3.99498C6.06793 3.49658 6.49837 3.09725 7.01953 2.85337C7.54069 2.60949 8.12625 2.53336 8.69358 2.63573C9.21478 2.70786 9.69202 2.96357 10.0373 3.35574C10.3826 3.74791 10.5728 4.25009 10.5726 4.76976ZM8.70735 5.99988C8.27372 5.99988 8.3219 5.5989 8.3219 5.51055C8.32094 5.25515 8.23277 5.00754 8.07165 4.80775C7.91053 4.60796 7.68587 4.46767 7.434 4.40955C7.0799 4.31418 6.70472 4.32819 6.35893 4.4497C6.01315 4.5712 5.71335 4.79437 5.49988 5.08918C5.68786 4.70574 5.99276 4.39007 6.37176 4.1865C6.75075 3.98294 7.1848 3.9017 7.61296 3.95421C8.00824 3.98909 8.37674 4.16625 8.64833 4.45197C8.91993 4.73769 9.07567 5.11202 9.08592 5.50375C9.08592 5.58531 9.1341 5.97269 8.70735 5.99988Z" fill="#EC1944"/>
<path d="M8.56811 12.8199L8.09694 12.9144C7.80166 12.9647 7.50308 12.9914 7.20383 12.9943C6.83147 13.0185 6.45917 12.9461 6.12084 12.7836C5.88125 12.6421 5.69714 12.4184 5.60045 12.1513C5.46518 11.705 5.40802 11.2374 5.43167 10.7704V8.76454H4.84799V7.18019H5.43167V6.1191L7.40777 4.99988V7.18019H8.49778V8.77908H7.40777V10.814C7.39498 10.9768 7.41657 11.1404 7.47106 11.2937C7.50631 11.3543 7.55729 11.4034 7.6182 11.4355C7.67911 11.4676 7.74751 11.4814 7.81564 11.4754C8.02302 11.4626 8.22714 11.416 8.42043 11.3373H8.51185C8.57482 11.59 8.6669 11.834 8.78611 12.0641C8.90778 12.2613 9.04416 12.4484 9.19399 12.6237C8.99124 12.7077 8.78183 12.7733 8.56811 12.8199ZM11.9085 9.10612C11.8223 9.02074 11.7194 8.95556 11.6066 8.91505C11.4939 8.87453 11.374 8.85963 11.2552 8.87136C11.1364 8.88308 11.0214 8.92117 10.9181 8.983C10.8148 9.04484 10.7257 9.12898 10.6567 9.22967C10.5548 9.39914 10.4923 9.59067 10.4739 9.78929H12.1968C12.1689 9.53692 12.0684 9.29898 11.9085 9.10612ZM13.9549 10.7123V10.814V10.8649H10.4387C10.4542 11.0968 10.5294 11.3201 10.6567 11.5117C10.7346 11.6158 10.8349 11.6995 10.9497 11.7563C11.0645 11.8131 11.1905 11.8413 11.3178 11.8388C11.4916 11.8378 11.6619 11.7875 11.81 11.6934C11.9296 11.6076 12.0322 11.4991 12.1124 11.3736L12.1757 11.2574H13.8986V11.3736C13.7293 11.9162 13.3743 12.3762 12.9 12.6673C12.4034 12.9145 11.854 13.027 11.3037 12.9943C10.8199 13.0146 10.3382 12.9176 9.89722 12.7109C9.53139 12.5047 9.23286 12.1911 9.03927 11.8097C8.80421 11.3646 8.68773 10.863 8.70172 10.3562C8.68956 10.0052 8.74551 9.65524 8.86629 9.32696C8.98707 8.99869 9.17023 8.69873 9.40496 8.44476C9.65446 8.19496 9.95142 8.00138 10.277 7.87628C10.6027 7.75118 10.9499 7.69728 11.2967 7.71799C11.8285 7.69106 12.3583 7.80357 12.8368 8.04504C13.2124 8.2636 13.5143 8.59587 13.7017 8.99711C13.9174 9.50734 14.0184 10.0614 13.9971 10.6178V10.6759L13.9549 10.7123ZM1.99988 12.8926V6.38074H4.05333L3.97597 11.3954H5.16444C5.17855 11.6678 5.21859 11.938 5.28399 12.2022C5.369 12.4556 5.51406 12.6829 5.70593 12.8635L1.99988 12.8926Z" fill="black"/>
</svg>
