<svg width="16" height="16" viewBox="0 0 16 16" fill="none" xmlns="http://www.w3.org/2000/svg">
<path d="M0.5 12.5V2.5C0.5 1.39543 1.39543 0.5 2.5 0.5H12.5C13.6046 0.5 14.5 1.39543 14.5 2.5V12.5C14.5 13.6046 13.6046 14.5 12.5 14.5H2.5C1.39543 14.5 0.5 13.6046 0.5 12.5Z" fill="var(--mw-icon-background-default-white, white)"/>
<path d="M12.5 3.89996C12.5 4.07666 12.5 4.76988 11.8117 4.80386C11.1234 4.83784 11.1234 4.06307 11.1234 3.90675C11.1379 3.44283 10.9916 2.98792 10.7088 2.6172C10.4259 2.24648 10.0234 1.98215 9.56785 1.86788C8.93554 1.67773 8.25925 1.68469 7.63109 1.88778C7.00293 2.09088 6.45346 2.48025 6.05752 3.00285C6.40653 2.31341 6.96915 1.75186 7.66359 1.39985C8.35803 1.04784 9.14809 0.923714 9.91888 1.04553C10.6277 1.12844 11.2814 1.46441 11.7568 1.99016C12.2322 2.51591 12.4966 3.19515 12.5 3.89996ZM10.5728 4.76988C10.5728 4.89901 10.5728 5.4495 10.029 5.4495C9.48525 5.4495 9.53343 4.89221 9.54032 4.76988C9.56474 4.4278 9.46933 4.08783 9.27008 3.80695C9.07083 3.52608 8.77985 3.32136 8.44592 3.22713C7.97703 3.06786 7.46964 3.0562 6.99376 3.19375C6.51788 3.33131 6.09696 3.61131 5.78909 3.99511C6.06805 3.4967 6.49849 3.09737 7.01965 2.85349C7.54081 2.60961 8.12638 2.53348 8.69371 2.63585C9.21491 2.70798 9.69214 2.9637 10.0374 3.35586C10.3828 3.74803 10.5729 4.25022 10.5728 4.76988ZM8.70747 6C8.27384 6 8.32203 5.59902 8.32203 5.51067C8.32107 5.25528 8.2329 5.00767 8.07177 4.80787C7.91065 4.60808 7.68599 4.46779 7.43412 4.40968C7.08003 4.31431 6.70484 4.32832 6.35906 4.44982C6.01327 4.57133 5.71347 4.7945 5.5 5.0893C5.68798 4.70586 5.99288 4.39019 6.37188 4.18663C6.75087 3.98306 7.18493 3.90182 7.61308 3.95433C8.00836 3.98921 8.37686 4.16637 8.64846 4.45209C8.92005 4.73781 9.07579 5.11215 9.08604 5.50387C9.08604 5.58543 9.13422 5.97282 8.70747 6Z" fill="#EC1944"/>
<path d="M8.56823 12.82L8.09706 12.9145C7.80179 12.9648 7.5032 12.9916 7.20395 12.9945C6.83159 13.0187 6.4593 12.9462 6.12097 12.7837C5.88137 12.6422 5.69726 12.4185 5.60057 12.1514C5.4653 11.7052 5.40815 11.2375 5.43179 10.7705V8.76466H4.84811V7.18031H5.43179V6.11922L7.40789 5V7.18031H8.4979V8.7792H7.40789V10.8142C7.3951 10.9769 7.41669 11.1406 7.47118 11.2938C7.50643 11.3544 7.55741 11.4035 7.61832 11.4356C7.67923 11.4677 7.74764 11.4816 7.81577 11.4755C8.02315 11.4627 8.22726 11.4161 8.42055 11.3374H8.51197C8.57494 11.5901 8.66702 11.8341 8.78623 12.0642C8.90791 12.2614 9.04428 12.4485 9.19411 12.6238C8.99136 12.7078 8.78195 12.7735 8.56823 12.82ZM11.9086 9.10625C11.8225 9.02086 11.7195 8.95568 11.6068 8.91517C11.494 8.87465 11.3741 8.85975 11.2553 8.87148C11.1365 8.88321 11.0215 8.92129 10.9182 8.98313C10.8149 9.04496 10.7258 9.1291 10.6568 9.2298C10.555 9.39927 10.4924 9.5908 10.474 9.78941H12.1969C12.169 9.53704 12.0686 9.2991 11.9086 9.10625ZM13.955 10.7124V10.8142V10.865H10.4388C10.4543 11.0969 10.5296 11.3202 10.6568 11.5119C10.7347 11.6159 10.835 11.6996 10.9498 11.7564C11.0646 11.8132 11.1906 11.8414 11.3179 11.8389C11.4918 11.8379 11.662 11.7877 11.8101 11.6935C11.9297 11.6078 12.0323 11.4992 12.1125 11.3738L12.1758 11.2575H13.8988V11.3738C13.7295 11.9163 13.3744 12.3763 12.9002 12.6674C12.4035 12.9146 11.8542 13.0272 11.3038 12.9945C10.82 13.0147 10.3383 12.9177 9.89734 12.711C9.53152 12.5048 9.23298 12.1912 9.0394 11.8098C8.80434 11.3647 8.68785 10.8631 8.70184 10.3563C8.68968 10.0053 8.74564 9.65536 8.86641 9.32709C8.98719 8.99881 9.17035 8.69885 9.40508 8.44489C9.65458 8.19508 9.95154 8.0015 10.2772 7.8764C10.6028 7.7513 10.95 7.69741 11.2968 7.71812C11.8286 7.69119 12.3584 7.80369 12.8369 8.04516C13.2126 8.26373 13.5144 8.59599 13.7019 8.99723C13.9175 9.50746 14.0185 10.0616 13.9972 10.6179V10.6761L13.955 10.7124ZM2 12.8927V6.38086H4.05345L3.97609 11.3956H5.16456C5.17867 11.6679 5.21871 11.9381 5.28411 12.2023C5.36913 12.4557 5.51418 12.6831 5.70606 12.8636L2 12.8927Z" fill="black"/>
<path d="M0.5 12.5V2.5C0.5 1.39543 1.39543 0.5 2.5 0.5H12.5C13.6046 0.5 14.5 1.39543 14.5 2.5V12.5C14.5 13.6046 13.6046 14.5 12.5 14.5H2.5C1.39543 14.5 0.5 13.6046 0.5 12.5Z" stroke="var(--mw-icon-border-default-gray, #616161)" stroke-linecap="round"/>

</svg>
