<svg width="16" height="16" viewBox="0 0 16 16" fill="none" xmlns="http://www.w3.org/2000/svg">
<path d="M12.5 0.5H2.5C1.39543 0.5 0.5 1.39543 0.5 2.5V12.5C0.5 13.6046 1.39543 14.5 2.5 14.5H12.5C13.6046 14.5 14.5 13.6046 14.5 12.5V2.5C14.5 1.39543 13.6046 0.5 12.5 0.5Z" fill="#F5FAFF" stroke="var(--mw-icon-border-default-blue, #1656A7)" stroke-linecap="round"/>
<path d="M3.37888 3H4.54037L7.50311 10.3372L10.4596 3H11.6273L7.95031 12H7.04348L3.37888 3ZM3 3H4.02484L4.19255 8.48901V12H3V3ZM10.9752 3H12V12H10.8075V8.48901L10.9752 3Z" fill="var(--mw-icon-glyph-content-dark-blue, #104280)"/>
</svg>
