<svg width="16" height="16" viewBox="0 0 16 16" fill="none" xmlns="http://www.w3.org/2000/svg">
<path d="M5 13L3 11L8.5 5.5L10.5 7.5L5 13Z" fill="var(--mw-icon-background-default-white, #FFFFFF)" stroke="var(--mw-icon-border-default-blue, #1656A7)" stroke-linejoin="round"/>
<path d="M5 13L2.5 15.5L0.5 13.5L3 11L5 13Z" fill="var(--mw-icon-background-medium-blue, #83CAFF)" stroke="var(--mw-icon-border-default-blue, #1656A7)" stroke-linejoin="round"/>
<path d="M11.5 2.5L12.5 0.5L13.5 2.5L15.5 3.5L13.5 4.5L12.5 6.5L11.5 4.5L9.5 3.5L11.5 2.5Z" fill="var(--mw-icon-background-medium-yellow, #FFEF91)" stroke="#674C06" stroke-linejoin="round"/>
<path d="M11.5 10.5L12.5 8.5L13.5 10.5L15.5 11.5L13.5 12.5L12.5 14.5L11.5 12.5L9.5 11.5L11.5 10.5Z" fill="var(--mw-icon-background-medium-yellow, #FFEF91)" stroke="#674C06" stroke-linejoin="round"/>
<path d="M3.5 2.5L4.5 0.5L5.5 2.5L7.5 3.5L5.5 4.5L4.5 6.5L3.5 4.5L1.5 3.5L3.5 2.5Z" fill="var(--mw-icon-background-medium-yellow, #FFEF91)" stroke="#674C06" stroke-linejoin="round"/>
</svg>
