<svg width="16" height="16" viewBox="0 0 16 16" fill="none" xmlns="http://www.w3.org/2000/svg">
<path d="M11.5 3.5H14.5V5.5" stroke="var(--mw-icon-object-primary, #616160)" stroke-linecap="square" stroke-linejoin="round"/>
<path d="M15 5.5L14.5 6.16667L14 5.5H15Z" stroke="var(--mw-icon-object-primary, #616160)" stroke-linecap="round"/>
<path d="M0 1C0 0.447715 0.447715 0 1 0H9C9.55228 0 10 0.447715 10 1V6C10 6.55228 9.55228 7 9 7H1C0.447716 7 0 6.55228 0 6V1Z" fill="var(--mw-icon-background-default-white, #FFFFFF)"/>
<path d="M5.5 2.5L4.75 4.5H2.5L1 6.5H9L7.5 2.5H5.5Z" fill="#E6BFFF" stroke="#8D1FD8" stroke-linejoin="round"/>
<path d="M0.5 1C0.5 0.723858 0.723858 0.5 1 0.5H9C9.27614 0.5 9.5 0.723858 9.5 1V6C9.5 6.27614 9.27614 6.5 9 6.5H1C0.723858 6.5 0.5 6.27614 0.5 6V1Z" stroke="var(--mw-icon-border-default-gray, #616161)" stroke-linejoin="round"/>
<path d="M3.5 6V1" stroke="#A2142F"/>
<rect x="6" y="8" width="10" height="8" rx="1" fill="white"/>
<rect x="6.5" y="8.5" width="9" height="7" rx="0.5" stroke="var(--mw-icon-border-default-gray, #616161)" stroke-linejoin="round"/>
<path d="M8.5 15V12M13.5 15V10M11.5 15V11" stroke="#8D1FD8"/>
<path d="M10.5 15V9" stroke="#A2142F"/>
</svg>
