<svg width="17" height="16" viewBox="0 0 17 16" fill="none" xmlns="http://www.w3.org/2000/svg">
<path d="M1.49927 2.49994H11.4993L11.5002 7.99986C11.5002 8.27603 11.2763 8.49994 11.0002 8.49994H2.00016C1.72405 8.49994 1.50021 8.27613 1.50016 8.00002L1.49927 2.49994Z" fill="var(--mw-icon-background-default-medium-gray, #D9D9D9)" stroke="var(--mw-icon-border-disabled-gray, #888888)" stroke-linecap="round"/>
<path d="M10.999 0.5H1.99976C1.72371 0.5 1.49989 0.723709 1.49976 0.999756L1.49902 2.5H11.499V1C11.499 0.723858 11.2752 0.5 10.999 0.5Z" fill="var(--mw-icon-background-default-medium-gray, #D9D9D9)" stroke="var(--mw-icon-border-disabled-gray, #888888)"/>
<path d="M3.49927 9.49994H13.4993L13.5002 14.9999C13.5002 15.276 13.2763 15.4999 13.0002 15.4999H4.00016C3.72405 15.4999 3.50021 15.2761 3.50016 15L3.49927 9.49994Z" fill="var(--mw-icon-background-default-medium-gray, #D9D9D9)" stroke="var(--mw-icon-border-disabled-gray, #888888)" stroke-linecap="round"/>
<path d="M12.999 7.5H3.99976C3.72371 7.5 3.49989 7.72371 3.49976 7.99976L3.49902 9.5H13.499V8C13.499 7.72386 13.2752 7.5 12.999 7.5Z" fill="var(--mw-icon-background-default-medium-gray, #D9D9D9)" stroke="var(--mw-icon-border-disabled-gray, #888888)"/>
<path d="M6.49927 6.49994H16.4993L16.5002 11.9999C16.5002 12.276 16.2763 12.4999 16.0002 12.4999H7.00016C6.72405 12.4999 6.50021 12.2761 6.50016 12L6.49927 6.49994Z" fill="var(--mw-icon-background-default-white, #FFFFFF)" stroke="var(--mw-icon-border-default-gray, #616161)" stroke-linecap="round"/>
<path d="M15.999 4.5H6.99976C6.72371 4.5 6.49989 4.72371 6.49976 4.99976L6.49902 6.5H16.499V5C16.499 4.72386 16.2752 4.5 15.999 4.5Z" fill="var(--mw-icon-background-default-selection, #B4DEFF)" stroke="var(--mw-icon-border-default-blue, #1656A7)"/>
</svg>
