<svg width="16" height="16" viewBox="0 0 16 16" fill="none" xmlns="http://www.w3.org/2000/svg">
<path d="M0.5 12.5V2.5C0.5 1.39543 1.39543 0.5 2.5 0.5H12.5C13.6046 0.5 14.5 1.39543 14.5 2.5V12.5C14.5 13.6046 13.6046 14.5 12.5 14.5H2.5C1.39543 14.5 0.5 13.6046 0.5 12.5Z" fill="var(--mw-icon-background-default-white, #FFFFFF)" stroke="var(--mw-icon-border-default-blue, #1656A7)" stroke-linecap="round"/>
<path d="M7.5 11.7858V8.35719L10.5 10.0715V13.5001L7.5 11.7858Z" fill="var(--mw-icon-glyph-content-blue, #1656A8)"/>
<path d="M13.5 11.7857V8.35717L10.5 10.0715V13.5001L13.5 11.7857Z" fill="var(--mw-icon-glyph-content-blue, #1656A8)"/>
<path d="M13.5 8.35717L10.5 6.64283L7.5 8.35719L10.5 10.0715L13.5 8.35717Z" fill="var(--mw-icon-glyph-content-blue, #1656A8)"/>
<path d="M1.5 11.7858V8.35719L4.5 10.0715V13.5001L1.5 11.7858Z" fill="var(--mw-icon-glyph-content-blue, #1656A8)"/>
<path d="M7.5 11.7858V8.35719L4.5 10.0715V13.5001L7.5 11.7858Z" fill="var(--mw-icon-glyph-content-blue, #1656A8)"/>
<path d="M7.5 8.35719L4.5 6.64283L1.5 8.35719L4.5 10.0715L7.5 8.35719Z" fill="var(--mw-icon-glyph-content-blue, #1656A8)"/>
<path d="M4.5 6.64283V3.21436L7.5 4.92865V8.35719L4.5 6.64283Z" fill="var(--mw-icon-glyph-content-blue, #1656A8)"/>
<path d="M10.5 6.64283V3.21432L7.5 4.92865V8.35719L10.5 6.64283Z" fill="var(--mw-icon-glyph-content-blue, #1656A8)"/>
<path d="M10.5 3.21432L7.5 1.5L4.5 3.21436L7.5 4.92865L10.5 3.21432Z" fill="var(--mw-icon-glyph-content-blue, #1656A8)"/>
<path d="M7.5 11.7858V8.35719M7.5 11.7858L10.5 13.5001M7.5 11.7858L4.5 13.5001M7.5 8.35719L10.5 10.0715M7.5 8.35719L10.5 6.64283M7.5 8.35719L4.5 10.0715M7.5 8.35719L4.5 6.64283M7.5 8.35719V4.92865M10.5 10.0715V13.5001M10.5 10.0715L13.5 8.35717M10.5 13.5001L13.5 11.7857V8.35717M13.5 8.35717L10.5 6.64283M10.5 6.64283V3.21432M1.5 8.35719V11.7858L4.5 13.5001M1.5 8.35719L4.5 10.0715M1.5 8.35719L4.5 6.64283M4.5 10.0715V13.5001M4.5 6.64283V3.21436M4.5 3.21436L7.5 4.92865M4.5 3.21436L7.5 1.5L10.5 3.21432M7.5 4.92865L10.5 3.21432" stroke="var(--mw-icon-background-default-white, #FFFFFF)" stroke-linecap="round" stroke-linejoin="round"/>
</svg>
