<svg width="16" height="16" viewBox="0 0 16 16" fill="none" xmlns="http://www.w3.org/2000/svg">
<path d="M0 1C0 0.447715 0.447715 0 1 0H4C4.55228 0 5 0.447715 5 1V4C5 4.55228 4.55228 5 4 5H1C0.447715 5 0 4.55228 0 4V1Z" fill="var(--mw-icon-background-red, #FF9D9A)"/>
<path d="M10 6C10 5.44772 10.4477 5 11 5H14C14.5523 5 15 5.44772 15 6V9C15 9.55228 14.5523 10 14 10H11C10.4477 10 10 9.55228 10 9V6Z" fill="var(--mw-icon-background-red, #FF9D9A)"/>
<path d="M10 12C10 11.4477 10.4477 11 11 11H14C14.5523 11 15 11.4477 15 12V15C15 15.5523 14.5523 16 14 16H11C10.4477 16 10 15.5523 10 15V12Z" fill="var(--mw-icon-background-default-selection, #B4DEFF)"/>
<path d="M0 12C0 11.4477 0.447715 11 1 11H4C4.55228 11 5 11.4477 5 12V15C5 15.5523 4.55228 16 4 16H1C0.447715 16 0 15.5523 0 15V12Z" fill="var(--mw-icon-background-default-selection, #B4DEFF)"/>
<path d="M1.5 1.5H3.5V3.5H1.5V1.5Z" fill="var(--mw-icon-background-red, #FF9D9A)" stroke="var(--mw-icon-alert-red, #B7313C)" stroke-linejoin="round"/>
<path d="M1.5 7.5H3.5V9.5H1.5V7.5Z" fill="var(--mw-icon-background-default-medium-gray, #D9D9D9)" stroke="var(--mw-icon-border-disabled-gray, #888888)" stroke-linejoin="round"/>
<path d="M11.5 1.5H13.5V3.5H11.5V1.5Z" fill="var(--mw-icon-background-default-medium-gray, #D9D9D9)" stroke="var(--mw-icon-border-disabled-gray, #888888)" stroke-linejoin="round"/>
<path d="M11.5 6.5H13.5V8.5H11.5V6.5Z" fill="var(--mw-icon-background-red, #FF9D9A)" stroke="var(--mw-icon-alert-red, #B7313C)" stroke-linejoin="round"/>
<path d="M1.5 12.5H3.5V14.5H1.5V12.5Z" fill="var(--mw-icon-background-default-selection, #B4DEFF)" stroke="var(--mw-icon-glyph-content-light-blue, #278CDD)" stroke-linejoin="round"/>
<path d="M11.5 12.5H13.5V14.5H11.5V12.5Z" fill="var(--mw-icon-background-default-selection, #B4DEFF)" stroke="var(--mw-icon-glyph-content-light-blue, #278CDD)" stroke-linejoin="round"/>
<path d="M3.5 2.5H7.5V7.5H11.5" stroke="var(--mw-icon-alert-red, #B7313C)" stroke-linecap="square" stroke-linejoin="round"/>
<path d="M3.5 13.5H11.5" stroke="var(--mw-icon-glyph-content-light-blue, #278CDD)" stroke-linecap="square" stroke-linejoin="round"/>
</svg>
