<svg width="16" height="16" viewBox="0 0 16 16" fill="none" xmlns="http://www.w3.org/2000/svg">
<rect x="0.5" y="0.5" width="15" height="15" rx="2" fill="var(--mw-icon-background-default-white, #FFFFFF)" stroke="var(--mw-icon-border-default-gray, #616161)" stroke-linejoin="round"/>
<path d="M10.9474 7C10.0685 6.92667 9.28415 7.25333 9.10526 8C9.10526 8.22667 10.3513 8.33333 11.3158 8.33333C12.2802 8.33333 12.6667 7.99333 12.6667 7.84667C12.6667 7.69333 12.3474 7.08 10.9474 7ZM5.05263 7C3.65263 7.08 3.21053 7.62667 3.21053 7.84667C3.21053 8 3.80532 8.33333 4.68421 8.33333C5.5631 8.33333 6.89474 8.22667 6.89474 8C6.71585 7.25333 5.83819 6.92667 5.05263 7ZM11.85 11C10.3644 11 9.4 10 8 10C6.6 10 5.55 11 4.15 11C2.31444 11 1 9.57333 1 7.02667C1 5.45333 1.52889 5 3.88556 5C6.24222 5 6.86445 6 8 6C9.13556 6 9.83556 5 12.1144 5C14.3933 5 15 5.52667 15 7.02667C15 9.57333 13.6856 11 11.85 11Z" fill="var(--mw-icon-glyph-content-dark-gray, #333333)"/>
</svg>
