<svg width="16" height="16" viewBox="0 0 16 16" fill="none" xmlns="http://www.w3.org/2000/svg">
<path d="M15.5 14.5V3.91421C15.5 3.649 15.3946 3.39464 15.2071 3.20711L12.7929 0.792893C12.6054 0.605357 12.351 0.5 12.0858 0.5H6.5C5.94772 0.5 5.5 0.947715 5.5 1.5V14.5C5.5 15.0523 5.94772 15.5 6.5 15.5H14.5C15.0523 15.5 15.5 15.0523 15.5 14.5Z" fill="var(--mw-icon-background-default-white, #FFFFFF)" stroke="var(--mw-icon-border-default-gray, #616161)" stroke-linecap="round"/>
<path d="M7.5 7.5H13.5V13.5H7.5V7.5Z" fill="var(--mw-icon-background-light-yellow, #FFF5BC)" stroke="var(--mw-icon-border-default-blue, #1656A7)" stroke-linejoin="round"/>
<path d="M8.5 10.5H12.5M10.5 8.5L10.5 12.5" stroke="var(--mw-icon-glyph-content-light-blue, #278CDD)" stroke-linecap="square"/>
<path d="M0.555542 7.60802L0.377773 7.14069C0.204564 7.20658 0.0820026 7.36286 0.0593061 7.54679C0.0366096 7.73071 0.117501 7.9121 0.269496 8.01812L0.555542 7.60802ZM2.75677 6.66829L3.10427 7.0278H3.10427L2.75677 6.66829ZM3.44862 5.91939L3.84818 6.21998L3.44862 5.91939ZM5.33542 4.05516L5.77159 4.2996L5.77159 4.2996L5.33542 4.05516ZM8.15862 5.16288L8.64049 5.02947V5.02947L8.15862 5.16288ZM9.44443 9.03996L9.16424 9.45407C9.34279 9.57488 9.57866 9.56764 9.74947 9.43613C9.92028 9.30461 9.98756 9.07842 9.91641 8.87493L9.44443 9.03996ZM4.45491 11.4446L4.02574 11.7011C4.1395 11.8914 4.36501 11.9841 4.57971 11.9287L4.45491 11.4446ZM2.84764 9.09399L2.57184 9.51104L2.84764 9.09399ZM2.00829 8.30835C1.7907 8.47839 1.75216 8.79261 1.92219 9.0102C2.09223 9.22778 2.40645 9.26633 2.62404 9.0963L2.00829 8.30835ZM3.97934 7.21634L4.37728 7.51906L4.37728 7.51906L3.97934 7.21634ZM5.63549 4.27722L6.13031 4.34905L5.63549 4.27722ZM0.733311 8.07535C1.09864 7.93639 1.62324 7.72919 2.07354 7.5411C2.29818 7.44727 2.50858 7.35642 2.67284 7.28025C2.75445 7.2424 2.8299 7.20577 2.89207 7.17256C2.93266 7.15088 3.03055 7.09906 3.10427 7.0278L2.40927 6.30878C2.45225 6.26724 2.48085 6.2585 2.42092 6.29051C2.38256 6.311 2.32624 6.33868 2.25213 6.37305C2.10496 6.4413 1.90814 6.52646 1.68811 6.61836C1.24907 6.80175 0.734552 7.00497 0.377773 7.14069L0.733311 8.07535ZM3.10427 7.0278C3.25881 6.87842 3.66406 6.46471 3.84818 6.21998L3.04907 5.61879C2.91671 5.79473 2.56221 6.16096 2.40927 6.30878L3.10427 7.0278ZM3.84818 6.21998C3.97604 6.05003 4.18596 5.89964 4.50643 5.68845L3.95616 4.85346C3.66167 5.04754 3.29851 5.28723 3.04907 5.61879L3.84818 6.21998ZM4.50643 5.68845C4.71745 5.54938 4.98418 5.28467 5.2017 5.04365C5.42177 4.79981 5.65224 4.51257 5.77159 4.2996L4.89924 3.81072C4.8369 3.92196 4.66904 4.1413 4.45934 4.37365C4.2471 4.60881 4.05261 4.7899 3.95616 4.85346L4.50643 5.68845ZM5.77159 4.2996C5.86029 4.14131 6.06023 3.79369 6.2956 3.49035C6.41404 3.3377 6.5281 3.21387 6.62821 3.13266C6.74022 3.04178 6.77129 3.05566 6.73304 3.05566V2.05566C6.42574 2.05566 6.17028 2.21646 5.99818 2.35608C5.81417 2.50536 5.64653 2.69561 5.50554 2.87732C5.22205 3.24267 4.99223 3.64479 4.89924 3.81073L5.77159 4.2996ZM6.73304 3.05566C6.66021 3.05566 6.62711 3.02676 6.64328 3.03808C6.65854 3.04875 6.69329 3.07867 6.74458 3.14221C6.84724 3.2694 6.96542 3.46717 7.08814 3.71879C7.33135 4.21742 7.55024 4.83939 7.67674 5.29629L8.64049 5.02947C8.50144 4.52724 8.2626 3.84559 7.98693 3.28041C7.85022 3.00011 7.69367 2.72591 7.52271 2.51411C7.43718 2.40816 7.3354 2.30183 7.21643 2.21863C7.09839 2.13607 6.93339 2.05566 6.73304 2.05566V3.05566ZM7.67674 5.29629C7.89466 6.08339 8.63469 8.23898 8.97245 9.20499L9.91641 8.87493C9.574 7.89564 8.84745 5.77699 8.64049 5.02947L7.67674 5.29629ZM9.72462 8.62584C9.56851 8.52022 9.31505 8.36573 9.04615 8.23541C8.80115 8.11666 8.45442 7.97258 8.14464 7.97258V8.97258C8.20384 8.97258 8.36723 9.01762 8.61001 9.13528C8.82888 9.24137 9.04082 9.37057 9.16424 9.45407L9.72462 8.62584ZM8.14464 7.97258C7.81162 7.97258 7.43834 8.08473 7.10445 8.25896C6.76568 8.43574 6.42431 8.69872 6.17434 9.04388L6.98426 9.63043C7.12563 9.43523 7.33632 9.26592 7.56708 9.14551C7.80273 9.02254 8.01644 8.97258 8.14464 8.97258V7.97258ZM6.17434 9.04388C5.78731 9.5783 5.15421 10.3419 4.89895 10.5769L5.57622 11.3126C5.90795 11.0072 6.58862 10.1767 6.98426 9.63043L6.17434 9.04388ZM4.89895 10.5769C4.62688 10.8273 4.42077 10.937 4.33012 10.9604L4.57971 11.9287C4.90834 11.844 5.26128 11.6025 5.57622 11.3126L4.89895 10.5769ZM4.88408 11.188C4.80408 11.0542 4.71671 10.882 4.60831 10.6685C4.50333 10.4618 4.3829 10.2252 4.247 9.98929C3.9811 9.52772 3.62255 9.00701 3.12345 8.67694L2.57184 9.51104C2.86939 9.70782 3.13277 10.0584 3.3805 10.4885C3.50142 10.6984 3.61072 10.9126 3.71669 11.1213C3.81925 11.3233 3.92405 11.531 4.02574 11.7011L4.88408 11.188ZM3.12345 8.67694C2.37356 8.18101 1.29215 7.5122 0.841588 7.19793L0.269496 8.01812C0.722732 8.33425 1.88161 9.05457 2.57184 9.51104L3.12345 8.67694ZM2.62404 9.0963C2.84829 8.92105 3.20096 8.63597 3.53472 8.34654C3.85466 8.06911 4.20113 7.75062 4.37728 7.51906L3.5814 6.91361C3.47803 7.0495 3.21187 7.30289 2.87958 7.59103C2.56112 7.86719 2.22196 8.14138 2.00829 8.30835L2.62404 9.0963ZM4.37728 7.51906C4.55636 7.28366 4.94909 6.75299 5.31524 6.16597C5.49824 5.87257 5.67893 5.55822 5.82371 5.25492C5.96499 4.95894 6.08787 4.64135 6.13031 4.34905L5.14068 4.20539C5.11985 4.34885 5.04776 4.55911 4.92125 4.82415C4.79823 5.08187 4.63831 5.36171 4.46676 5.63674C4.12381 6.18657 3.75173 6.68971 3.5814 6.91361L4.37728 7.51906ZM6.13031 4.34905C6.24448 3.56258 6.43622 3.28392 6.57761 3.17832L5.9792 2.37712C5.50563 2.73083 5.26405 3.35556 5.14068 4.20539L6.13031 4.34905ZM2.48392 7.01326L3.4343 7.70221L4.02123 6.89257L3.07084 6.20362L2.48392 7.01326Z" fill="var(--mw-icon-glyph-content-dark-gray, #333333)"/>
<path fill-rule="evenodd" clip-rule="evenodd" d="M6.34369 3.12078C6.17674 3.3128 6.02414 3.66549 5.92911 4.3201C5.89108 4.58208 5.77854 4.87781 5.64027 5.16749C5.49992 5.4615 5.32346 5.76882 5.14279 6.05848C4.78137 6.63792 4.39284 7.16298 4.21555 7.39604C4.05422 7.60811 3.72411 7.91334 3.40166 8.19296C3.1937 8.37329 2.97811 8.5521 2.7915 8.70315C2.86738 8.75258 2.94087 8.80076 3.0111 8.84721C3.46914 9.15012 3.80831 9.63618 4.0705 10.0913C4.20335 10.3219 4.32151 10.554 4.4267 10.7611L4.43178 10.7711C4.48658 10.879 4.53715 10.9786 4.58477 11.0689C4.71092 10.9971 4.86559 10.8848 5.03692 10.7271C5.30776 10.4778 5.95055 9.70055 6.33934 9.16371C6.56718 8.8491 6.88193 8.6052 7.1987 8.4399C7.51257 8.27611 7.85336 8.17664 8.14465 8.17664C8.38595 8.17664 8.67132 8.28441 8.90705 8.39508C8.53929 7.3273 8.04345 5.85767 7.87307 5.24229C7.74402 4.77615 7.52106 4.14203 7.27124 3.62984C7.14567 3.37239 7.01967 3.15905 6.9031 3.01462C6.84483 2.94244 6.79643 2.89695 6.76005 2.87151C6.74267 2.85936 6.73187 2.85439 6.72709 2.85254C6.69196 2.85506 6.61702 2.87979 6.49988 2.97482C6.48489 2.98698 6.46977 2.99984 6.45454 3.01334L6.4561 3.01543C6.44592 3.02303 6.43575 3.0311 6.42561 3.03965C6.39856 3.06485 6.37122 3.09197 6.34369 3.12078Z" fill="#F57729"/>
<path fill-rule="evenodd" clip-rule="evenodd" d="M2.26657 8.3644C2.47633 8.19744 2.7516 7.97204 3.01341 7.74502C3.14694 7.62923 3.27273 7.5166 3.38299 7.41324L2.80024 6.99079L2.79608 6.99301C2.73876 7.02363 2.66721 7.05844 2.58713 7.09558C2.42635 7.17014 2.21871 7.25982 1.99501 7.35326C1.73812 7.46057 1.45671 7.5742 1.19482 7.6777C1.40721 7.8155 1.65281 7.97231 1.9059 8.1339C2.02535 8.21016 2.1465 8.2875 2.26657 8.3644ZM3.2532 6.58723L3.78987 6.97627C3.97709 6.72761 4.3206 6.25666 4.63997 5.74464C4.81385 5.46586 4.978 5.179 5.10545 4.91199C5.12833 4.86406 5.14974 4.81735 5.16963 4.77197C5.13037 4.81769 5.09042 4.86303 5.05047 4.9073C4.83402 5.14712 4.58201 5.39479 4.39432 5.51848C4.07915 5.72619 3.83801 5.89477 3.68538 6.09764C3.58535 6.2306 3.41182 6.42112 3.2532 6.58723Z" fill="#068CFC"/>
</svg>
