<svg width="16" height="16" viewBox="0 0 16 16" fill="none" xmlns="http://www.w3.org/2000/svg">
<path d="M3.5 0.5H11.5V8.5H3.5V0.5Z" fill="var(--mw-icon-background-default-white, #FFFFFF)" stroke="var(--mw-icon-border-default-gray, #616161)" stroke-linejoin="round"/>
<path d="M0.5 2.5L2.5 4.5L0.5 6.5M12.5 2.5L14.5 4.5L12.5 6.5" stroke="var(--mw-icon-border-default-gray, #616161)" stroke-linecap="round" stroke-linejoin="round"/>
<path d="M6.55554 11.608L6.37777 11.1407C6.20456 11.2066 6.082 11.3629 6.05931 11.5468C6.03661 11.7307 6.1175 11.9121 6.2695 12.0181L6.55554 11.608ZM8.75677 10.6683L9.10427 11.0278H9.10427L8.75677 10.6683ZM9.44862 9.91939L9.84818 10.22L9.44862 9.91939ZM11.3354 8.05516L11.7716 8.2996L11.7716 8.2996L11.3354 8.05516ZM14.1586 9.16288L14.6405 9.02947V9.02947L14.1586 9.16288ZM15.4444 13.04L15.1642 13.4541C15.3428 13.5749 15.5787 13.5676 15.7495 13.4361C15.9203 13.3046 15.9876 13.0784 15.9164 12.8749L15.4444 13.04ZM10.4549 15.4446L10.0257 15.7011C10.1395 15.8914 10.365 15.9841 10.5797 15.9287L10.4549 15.4446ZM8.84764 13.094L8.57184 13.511L8.84764 13.094ZM8.00829 12.3084C7.7907 12.4784 7.75216 12.7926 7.92219 13.0102C8.09223 13.2278 8.40645 13.2663 8.62404 13.0963L8.00829 12.3084ZM9.97934 11.2163L10.3773 11.5191L10.3773 11.5191L9.97934 11.2163ZM11.6355 8.27722L12.1303 8.34905L11.6355 8.27722ZM6.73331 12.0754C7.09864 11.9364 7.62324 11.7292 8.07354 11.5411C8.29818 11.4473 8.50858 11.3564 8.67284 11.2802C8.75445 11.2424 8.8299 11.2058 8.89207 11.1726C8.93266 11.1509 9.03055 11.0991 9.10427 11.0278L8.40927 10.3088C8.45225 10.2672 8.48085 10.2585 8.42092 10.2905C8.38256 10.311 8.32624 10.3387 8.25213 10.3731C8.10496 10.4413 7.90814 10.5265 7.68811 10.6184C7.24907 10.8017 6.73455 11.005 6.37777 11.1407L6.73331 12.0754ZM9.10427 11.0278C9.25881 10.8784 9.66406 10.4647 9.84818 10.22L9.04907 9.61879C8.91671 9.79473 8.56221 10.161 8.40927 10.3088L9.10427 11.0278ZM9.84818 10.22C9.97604 10.05 10.186 9.89964 10.5064 9.68845L9.95616 8.85346C9.66167 9.04754 9.29851 9.28723 9.04907 9.61879L9.84818 10.22ZM10.5064 9.68845C10.7175 9.54938 10.9842 9.28467 11.2017 9.04365C11.4218 8.79981 11.6522 8.51257 11.7716 8.2996L10.8992 7.81072C10.8369 7.92196 10.669 8.1413 10.4593 8.37365C10.2471 8.60881 10.0526 8.7899 9.95616 8.85346L10.5064 9.68845ZM11.7716 8.2996C11.8603 8.14131 12.0602 7.79369 12.2956 7.49035C12.414 7.3377 12.5281 7.21387 12.6282 7.13266C12.7402 7.04178 12.7713 7.05566 12.733 7.05566V6.05566C12.4257 6.05566 12.1703 6.21646 11.9982 6.35608C11.8142 6.50536 11.6465 6.69561 11.5055 6.87732C11.222 7.24267 10.9922 7.64479 10.8992 7.81073L11.7716 8.2996ZM12.733 7.05566C12.6602 7.05566 12.6271 7.02676 12.6433 7.03808C12.6585 7.04875 12.6933 7.07867 12.7446 7.14221C12.8472 7.2694 12.9654 7.46717 13.0881 7.71879C13.3313 8.21742 13.5502 8.83939 13.6767 9.29629L14.6405 9.02947C14.5014 8.52724 14.2626 7.84559 13.9869 7.28041C13.8502 7.00011 13.6937 6.72591 13.5227 6.51411C13.4372 6.40816 13.3354 6.30183 13.2164 6.21863C13.0984 6.13607 12.9334 6.05566 12.733 6.05566V7.05566ZM13.6767 9.29629C13.8947 10.0834 14.6347 12.239 14.9725 13.205L15.9164 12.8749C15.574 11.8956 14.8474 9.77699 14.6405 9.02947L13.6767 9.29629ZM15.7246 12.6258C15.5685 12.5202 15.315 12.3657 15.0462 12.2354C14.8012 12.1167 14.4544 11.9726 14.1446 11.9726V12.9726C14.2038 12.9726 14.3672 13.0176 14.61 13.1353C14.8289 13.2414 15.0408 13.3706 15.1642 13.4541L15.7246 12.6258ZM14.1446 11.9726C13.8116 11.9726 13.4383 12.0847 13.1045 12.259C12.7657 12.4357 12.4243 12.6987 12.1743 13.0439L12.9843 13.6304C13.1256 13.4352 13.3363 13.2659 13.5671 13.1455C13.8027 13.0225 14.0164 12.9726 14.1446 12.9726V11.9726ZM12.1743 13.0439C11.7873 13.5783 11.1542 14.3419 10.8989 14.5769L11.5762 15.3126C11.908 15.0072 12.5886 14.1767 12.9843 13.6304L12.1743 13.0439ZM10.8989 14.5769C10.6269 14.8273 10.4208 14.937 10.3301 14.9604L10.5797 15.9287C10.9083 15.844 11.2613 15.6025 11.5762 15.3126L10.8989 14.5769ZM10.8841 15.188C10.8041 15.0542 10.7167 14.882 10.6083 14.6685C10.5033 14.4618 10.3829 14.2252 10.247 13.9893C9.9811 13.5277 9.62255 13.007 9.12345 12.6769L8.57184 13.511C8.86939 13.7078 9.13277 14.0584 9.3805 14.4885C9.50142 14.6984 9.61072 14.9126 9.71669 15.1213C9.81925 15.3233 9.92405 15.531 10.0257 15.7011L10.8841 15.188ZM9.12345 12.6769C8.37356 12.181 7.29215 11.5122 6.84159 11.1979L6.2695 12.0181C6.72273 12.3343 7.88161 13.0546 8.57184 13.511L9.12345 12.6769ZM8.62404 13.0963C8.84829 12.9211 9.20096 12.636 9.53472 12.3465C9.85466 12.0691 10.2011 11.7506 10.3773 11.5191L9.5814 10.9136C9.47803 11.0495 9.21187 11.3029 8.87958 11.591C8.56112 11.8672 8.22196 12.1414 8.00829 12.3084L8.62404 13.0963ZM10.3773 11.5191C10.5564 11.2837 10.9491 10.753 11.3152 10.166C11.4982 9.87257 11.6789 9.55822 11.8237 9.25492C11.965 8.95894 12.0879 8.64135 12.1303 8.34905L11.1407 8.20539C11.1199 8.34885 11.0478 8.55911 10.9212 8.82415C10.7982 9.08187 10.6383 9.36171 10.4668 9.63674C10.1238 10.1866 9.75173 10.6897 9.5814 10.9136L10.3773 11.5191ZM12.1303 8.34905C12.2445 7.56258 12.4362 7.28392 12.5776 7.17832L11.9792 6.37712C11.5056 6.73083 11.2641 7.35556 11.1407 8.20539L12.1303 8.34905ZM8.48392 11.0133L9.4343 11.7022L10.0212 10.8926L9.07084 10.2036L8.48392 11.0133Z" fill="var(--mw-icon-glyph-content-dark-gray, #333333)"/>
<path fill-rule="evenodd" clip-rule="evenodd" d="M12.3437 7.12078C12.1768 7.3128 12.0242 7.66549 11.9291 8.3201C11.8911 8.58208 11.7786 8.87781 11.6403 9.16749C11.5 9.4615 11.3235 9.76882 11.1428 10.0585C10.7814 10.6379 10.3929 11.163 10.2156 11.396C10.0543 11.6081 9.72414 11.9133 9.40169 12.193C9.19373 12.3733 8.97814 12.5521 8.79153 12.7031C8.86741 12.7526 8.9409 12.8008 9.01113 12.8472C9.46917 13.1501 9.80834 13.6362 10.0705 14.0913C10.2034 14.3219 10.3215 14.554 10.4267 14.7611L10.4318 14.7711C10.4866 14.879 10.5372 14.9786 10.5848 15.0689C10.711 14.9971 10.8656 14.8848 11.0369 14.7271C11.3078 14.4778 11.9506 13.7006 12.3394 13.1637C12.5672 12.8491 12.882 12.6052 13.1987 12.4399C13.5126 12.2761 13.8534 12.1766 14.1447 12.1766C14.386 12.1766 14.6713 12.2844 14.9071 12.3951C14.5393 11.3273 14.0435 9.85767 13.8731 9.24229C13.744 8.77615 13.5211 8.14203 13.2713 7.62984C13.1457 7.37239 13.0197 7.15905 12.9031 7.01462C12.8449 6.94244 12.7965 6.89695 12.7601 6.87151C12.7427 6.85936 12.7319 6.85439 12.7271 6.85254C12.692 6.85506 12.617 6.87979 12.4999 6.97482C12.4849 6.98698 12.4698 6.99984 12.4546 7.01334L12.4561 7.01543C12.4459 7.02303 12.4358 7.0311 12.4256 7.03965C12.3986 7.06485 12.3712 7.09197 12.3437 7.12078Z" fill="#F57729"/>
<path fill-rule="evenodd" clip-rule="evenodd" d="M8.26661 12.3644C8.47636 12.1974 8.75163 11.972 9.01344 11.745C9.14697 11.6292 9.27276 11.5166 9.38302 11.4132L8.80027 10.9908L8.79611 10.993C8.73879 11.0236 8.66724 11.0584 8.58716 11.0956C8.42638 11.1701 8.21874 11.2598 7.99504 11.3533C7.73815 11.4606 7.45674 11.5742 7.19485 11.6777C7.40724 11.8155 7.65284 11.9723 7.90593 12.1339C8.02538 12.2102 8.14653 12.2875 8.26661 12.3644ZM9.25323 10.5872L9.7899 10.9763C9.97712 10.7276 10.3206 10.2567 10.64 9.74464C10.8139 9.46586 10.978 9.179 11.1055 8.91199C11.1284 8.86406 11.1498 8.81735 11.1697 8.77197C11.1304 8.81769 11.0905 8.86303 11.0505 8.9073C10.834 9.14712 10.582 9.39479 10.3944 9.51848C10.0792 9.72619 9.83804 9.89477 9.68541 10.0976C9.58538 10.2306 9.41185 10.4211 9.25323 10.5872Z" fill="#068CFC"/>
</svg>
