<svg width="16" height="16" viewBox="0 0 16 16" fill="none" xmlns="http://www.w3.org/2000/svg">
<path d="M0.5 2C0.5 1.72386 0.723858 1.5 1 1.5H5.08579C5.351 1.5 5.60536 1.60536 5.79289 1.79289L6.20711 2.20711C6.39464 2.39464 6.649 2.5 6.91421 2.5H11C11.2761 2.5 11.5 2.72386 11.5 3V9C11.5 9.27614 11.2761 9.5 11 9.5H1C0.723858 9.5 0.5 9.27614 0.5 9V2Z" fill="var(--mw-icon-background-light-yellow, #FFF5BC)" stroke="#674C06"/>
<path d="M5.45455 14.5C3.8228 14.5 2.5 13.1224 2.5 11.4231C2.5 9.72375 3.8228 8.34615 5.45455 8.34615C5.83355 8.34615 6.19587 8.42047 6.52883 8.55587C7.18497 7.32951 8.44265 6.5 9.88636 6.5C11.9149 6.5 13.5761 8.13768 13.7175 10.2127C14.7245 10.3576 15.5 11.2576 15.5 12.3462C15.5 13.5357 14.574 14.5 13.4318 14.5H5.45455Z" fill="var(--mw-icon-glyph-content-light-blue, #278CDD)" stroke="var(--mw-icon-border-default-blue, #1656A7)"/>
<path fill-rule="evenodd" clip-rule="evenodd" d="M6.83387 12.0251C6.99707 11.9032 7.21125 11.7386 7.41494 11.5728C7.51884 11.4883 7.6167 11.406 7.7025 11.3305L7.24908 11.022L7.24585 11.0237C7.20126 11.046 7.14558 11.0714 7.08328 11.0986C6.95818 11.153 6.79663 11.2185 6.62258 11.2867C6.42271 11.3651 6.20376 11.4481 6 11.5237C6.16525 11.6243 6.35634 11.7388 6.55325 11.8568C6.64619 11.9125 6.74044 11.969 6.83387 12.0251ZM7.60151 10.7273L8.01906 11.0114C8.16473 10.8299 8.432 10.4859 8.68048 10.112C8.81576 9.90846 8.94348 9.69898 9.04265 9.50399C9.06045 9.46899 9.07711 9.43489 9.09258 9.40175C9.06203 9.43513 9.03095 9.46824 8.99987 9.50057C8.83146 9.6757 8.63539 9.85656 8.48936 9.94689C8.24414 10.0986 8.05652 10.2217 7.93777 10.3698C7.85994 10.4669 7.72492 10.606 7.60151 10.7273Z" fill="var(--mw-icon-background-default-white, #FFFFFF)"/>
<path fill-rule="evenodd" clip-rule="evenodd" d="M10.0056 8.19588C9.87569 8.3361 9.75697 8.59366 9.68303 9.07169C9.65344 9.263 9.56588 9.47896 9.4583 9.6905C9.3491 9.9052 9.21181 10.1296 9.07124 10.3411C8.79003 10.7643 8.48774 11.1477 8.3498 11.3179C8.22428 11.4728 7.96744 11.6957 7.71656 11.8999C7.55475 12.0315 7.38702 12.1621 7.24183 12.2724C7.30086 12.3085 7.35804 12.3437 7.41268 12.3776C7.76906 12.5988 8.03295 12.9538 8.23695 13.2861C8.34031 13.4545 8.43224 13.624 8.51408 13.7752L8.51804 13.7826C8.56067 13.8614 8.60002 13.9341 8.63707 14C8.73522 13.9476 8.85556 13.8656 8.98886 13.7504C9.19959 13.5683 9.69971 13.0008 10.0022 12.6087C10.1795 12.379 10.4244 12.2009 10.6708 12.0802C10.915 11.9606 11.1802 11.8879 11.4068 11.8879C11.5946 11.8879 11.8166 11.9666 12 12.0475C11.7139 11.2677 11.3281 10.1945 11.1955 9.74512C11.0951 9.40472 10.9216 8.94166 10.7273 8.56763C10.6296 8.37962 10.5315 8.22383 10.4408 8.11836C10.3955 8.06565 10.3578 8.03243 10.3295 8.01385C10.316 8.00498 10.3076 8.00135 10.3039 8C10.2766 8.00184 10.2183 8.0199 10.1271 8.08929C10.1154 8.09818 10.1037 8.10756 10.0918 8.11743L10.0931 8.11895C10.0851 8.1245 10.0772 8.13039 10.0693 8.13664C10.0483 8.15504 10.027 8.17484 10.0056 8.19588Z" fill="white"/>
</svg>
