<svg width="16" height="16" viewBox="0 0 16 16" fill="none" xmlns="http://www.w3.org/2000/svg">
<path d="M1.5 3.5H12.5V11C12.5 11.2761 12.2761 11.5 12 11.5H2C1.72386 11.5 1.5 11.2761 1.5 11V3.5Z" fill="var(--mw-icon-background-brown, #DC996C)" stroke="var(--mw-icon-border-default-brown, #5F1B08)"/>
<path d="M0.5 1C0.5 0.723858 0.723858 0.5 1 0.5H13C13.2761 0.5 13.5 0.723858 13.5 1V3.5H0.5V1Z" fill="var(--mw-icon-background-brown, #DC996C)"/>
<path d="M13.5 3.5V4C13.7761 4 14 3.77614 14 3.5H13.5ZM0.5 3.5H0C0 3.77614 0.223858 4 0.5 4L0.5 3.5ZM1 1H13V0H1V1ZM13 1V3.5H14V1H13ZM13.5 3H0.5V4H13.5V3ZM1 3.5V1H0V3.5H1ZM13 1H14C14 0.447715 13.5523 0 13 0V1ZM1 0C0.447715 0 0 0.447715 0 1H1V1V0Z" fill="var(--mw-icon-border-default-brown, #5F1B08)"/>
<path d="M3 10L3 7H4L4 10H3Z" fill="var(--mw-icon-glyph-content-brown, #5F1B18)"/>
<path d="M5 10L5 7H6L6 10H5Z" fill="var(--mw-icon-glyph-content-brown, #5F1B18)"/>
<path d="M7 10L7 7H8L8 10H7Z" fill="var(--mw-icon-glyph-content-brown, #5F1B18)"/>
<path d="M5.61108 11.1687L5.43331 10.7014C5.26011 10.7673 5.13754 10.9235 5.11485 11.1075C5.09215 11.2914 5.17304 11.4728 5.32504 11.5788L5.61108 11.1687ZM8.03244 10.135L8.37993 10.4945L8.37993 10.4945L8.03244 10.135ZM8.79347 9.31121L9.19303 9.6118L8.79347 9.31121ZM10.8689 7.26056L11.3051 7.505V7.505L10.8689 7.26056ZM13.9745 8.47905L14.4563 8.34564V8.34564L13.9745 8.47905ZM15.3889 12.7438L15.1087 13.158C15.2872 13.2788 15.5231 13.2715 15.6939 13.14C15.8647 13.0085 15.932 12.7823 15.8608 12.5788L15.3889 12.7438ZM9.90039 15.3889L9.47122 15.6454C9.58498 15.8357 9.81048 15.9284 10.0252 15.8731L9.90039 15.3889ZM8.1324 12.8033L7.85659 13.2203H7.85659L8.1324 12.8033ZM7.23989 11.9785C7.02231 12.1485 6.98376 12.4627 7.1538 12.6803C7.32383 12.8979 7.63806 12.9364 7.85564 12.7664L7.23989 11.9785ZM9.37726 10.7379L9.77521 11.0406L9.37726 10.7379ZM11.199 7.50482L11.6938 7.57666V7.57666L11.199 7.50482ZM5.78885 11.636C6.19028 11.4833 6.76684 11.2556 7.26161 11.049C7.50848 10.9458 7.73925 10.8462 7.91908 10.7628C8.00847 10.7213 8.09052 10.6815 8.15771 10.6456C8.20332 10.6212 8.30467 10.5673 8.37993 10.4945L7.68494 9.7755C7.72638 9.73544 7.75151 9.72885 7.68655 9.76355C7.64317 9.78672 7.58027 9.81762 7.49837 9.8556C7.33563 9.93107 7.11844 10.025 6.87618 10.1262C6.39267 10.3282 5.8262 10.5519 5.43331 10.7014L5.78885 11.636ZM8.37993 10.4945C8.54985 10.3303 8.99309 9.87757 9.19303 9.6118L8.39392 9.01062C8.24573 9.20759 7.85325 9.61281 7.68494 9.7755L8.37993 10.4945ZM9.19303 9.6118C9.33975 9.41677 9.57833 9.24688 9.92955 9.01542L9.37927 8.18044C9.05404 8.39478 8.66223 8.65397 8.39392 9.01062L9.19303 9.6118ZM9.92955 9.01542C10.1559 8.86622 10.4457 8.57923 10.6847 8.3144C10.9263 8.04675 11.1767 7.73418 11.3051 7.505L10.4328 7.01612C10.3613 7.14358 10.1736 7.38824 9.94238 7.6444C9.70865 7.90337 9.4911 8.10674 9.37927 8.18044L9.92955 9.01542ZM11.3051 7.505C11.4029 7.3305 11.6243 6.94539 11.8856 6.60861C12.0171 6.43925 12.1452 6.29971 12.2595 6.20698C12.3857 6.10458 12.4311 6.11111 12.4063 6.11111V5.11111C12.0856 5.11111 11.8158 5.27925 11.6295 5.4304C11.4313 5.59121 11.2495 5.79716 11.0956 5.99558C10.7861 6.39437 10.5348 6.83398 10.4328 7.01613L11.3051 7.505ZM12.4063 6.11111C12.3399 6.11111 12.3134 6.08479 12.3363 6.1008C12.3582 6.11616 12.3998 6.1529 12.4579 6.22491C12.5743 6.36905 12.7062 6.59042 12.8419 6.86863C13.111 7.42046 13.3528 8.1076 13.4926 8.61247L14.4563 8.34564C14.304 7.79545 14.0423 7.04863 13.7407 6.43025C13.591 6.12335 13.4207 5.82556 13.2361 5.59681C13.1437 5.48238 13.0351 5.36925 12.9094 5.28135C12.7847 5.19409 12.6131 5.11111 12.4063 5.11111V6.11111ZM13.4926 8.61246C13.7318 9.47629 14.5451 11.8456 14.9169 12.9089L15.8608 12.5788C15.4844 11.5023 14.6845 9.16989 14.4563 8.34564L13.4926 8.61246ZM15.6691 12.3297C15.499 12.2146 15.2222 12.046 14.9289 11.9038C14.6596 11.7733 14.2873 11.6197 13.9591 11.6197V12.6197C14.0367 12.6197 14.2256 12.6742 14.4928 12.8037C14.7361 12.9216 14.9713 13.065 15.1087 13.158L15.6691 12.3297ZM13.9591 11.6197C13.603 11.6197 13.2004 11.74 12.838 11.9291C12.4708 12.1207 12.1018 12.4053 11.8323 12.7775L12.6422 13.364C12.8031 13.1418 13.0414 12.9509 13.3006 12.8156C13.5648 12.6778 13.8078 12.6197 13.9591 12.6197V11.6197ZM11.8323 12.7775C11.4061 13.3659 10.7073 14.2092 10.4227 14.4712L11.1 15.2069C11.461 14.8746 12.2074 13.9644 12.6422 13.364L11.8323 12.7775ZM10.4227 14.4712C10.1213 14.7487 9.88722 14.8759 9.7756 14.9047L10.0252 15.8731C10.3748 15.783 10.7557 15.5239 11.1 15.2069L10.4227 14.4712ZM10.3296 15.1324C10.2405 14.9833 10.1435 14.7921 10.0245 14.5579C9.90902 14.3304 9.7771 14.0712 9.62837 13.8131C9.33679 13.3069 8.94713 12.7426 8.40821 12.3862L7.85659 13.2203C8.19397 13.4434 8.48845 13.8376 8.76186 14.3122C8.89562 14.5444 9.01641 14.7812 9.13293 15.0107C9.24604 15.2334 9.36045 15.4601 9.47122 15.6454L10.3296 15.1324ZM8.40821 12.3862C7.5863 11.8427 6.39288 11.1044 5.89713 10.7586L5.32504 11.5788C5.82346 11.9265 7.09436 12.7162 7.85659 13.2203L8.40821 12.3862ZM7.85564 12.7664C8.10179 12.5741 8.48905 12.261 8.85542 11.9433C9.20797 11.6376 9.58508 11.2905 9.77521 11.0406L8.97932 10.4351C8.86197 10.5894 8.56519 10.8714 8.20029 11.1878C7.84921 11.4922 7.47546 11.7944 7.23989 11.9785L7.85564 12.7664ZM9.77521 11.0406C9.97175 10.7822 10.4027 10.1999 10.8043 9.55599C11.0051 9.23417 11.2028 8.89011 11.3609 8.55876C11.5156 8.23472 11.6482 7.89074 11.6938 7.57666L10.7042 7.43299C10.6802 7.59824 10.5984 7.8349 10.4585 8.12799C10.3221 8.41376 10.1451 8.72331 9.95585 9.02676C9.57744 9.63343 9.16712 10.1883 8.97932 10.4351L9.77521 11.0406ZM11.6938 7.57666C11.8199 6.70837 12.0333 6.38454 12.2054 6.25597L11.607 5.45478C11.1027 5.83145 10.8395 6.50135 10.7042 7.43299L11.6938 7.57666ZM7.76164 10.474L8.80706 11.2318L9.39399 10.4222L8.34857 9.66434L7.76164 10.474Z" fill="var(--mw-icon-glyph-content-dark-gray, #333333)"/>
<path fill-rule="evenodd" clip-rule="evenodd" d="M11.9781 6.23244C11.7945 6.44366 11.6266 6.83162 11.5221 7.55169C11.4803 7.83987 11.3565 8.16517 11.2044 8.48382C11.05 8.80724 10.8559 9.14529 10.6572 9.46391C10.2596 10.1013 9.83221 10.6789 9.63719 10.9352C9.45973 11.1685 9.09661 11.5043 8.74191 11.8118C8.51315 12.0102 8.27601 12.2069 8.07074 12.373C8.1542 12.4274 8.23504 12.4804 8.31229 12.5315C8.81614 12.8647 9.18922 13.3994 9.47764 13.9C9.62377 14.1537 9.75375 14.409 9.86945 14.6368L9.87504 14.6478C9.93532 14.7665 9.99095 14.8761 10.0433 14.9754C10.1821 14.8964 10.3522 14.7729 10.5407 14.5994C10.8386 14.3251 11.5457 13.4702 11.9734 12.8797C12.224 12.5336 12.5702 12.2653 12.9187 12.0835C13.2639 11.9033 13.6388 11.7939 13.9592 11.7939C14.2246 11.7939 14.5385 11.9124 14.7978 12.0342C14.3933 10.8596 13.8479 9.24303 13.6605 8.56611C13.5185 8.05335 13.2733 7.35582 12.9984 6.79241C12.8603 6.50921 12.7217 6.27454 12.5935 6.11567C12.5294 6.03627 12.4762 5.98623 12.4361 5.95824C12.417 5.94488 12.4051 5.93942 12.3999 5.93738C12.3612 5.94015 12.2788 5.96735 12.15 6.07189C12.1335 6.08526 12.1168 6.09941 12.1001 6.11426L12.1018 6.11656C12.0906 6.12492 12.0794 6.13379 12.0683 6.1432C12.0385 6.17092 12.0084 6.20075 11.9781 6.23244Z" fill="#F57729"/>
<path fill-rule="evenodd" clip-rule="evenodd" d="M7.49326 12.0006C7.72398 11.8169 8.02679 11.569 8.31477 11.3192C8.46166 11.1919 8.60003 11.068 8.72132 10.9543L8.08028 10.4896L8.07571 10.492C8.01266 10.5257 7.93395 10.564 7.84587 10.6048C7.66901 10.6869 7.44061 10.7855 7.19454 10.8883C6.91195 11.0063 6.60241 11.1313 6.31433 11.2452C6.54796 11.3968 6.81812 11.5693 7.09652 11.747C7.22791 11.8309 7.36117 11.916 7.49326 12.0006ZM8.57855 10.0457L9.16888 10.4736C9.37482 10.2001 9.75268 9.68203 10.104 9.11881C10.2953 8.81216 10.4758 8.49661 10.616 8.2029C10.6412 8.15017 10.6647 8.0988 10.6866 8.04888C10.6434 8.09917 10.5995 8.14904 10.5555 8.19774C10.3174 8.46155 10.0402 8.73398 9.83378 8.87004C9.48709 9.09852 9.22183 9.28396 9.05395 9.50712C8.94391 9.65337 8.75302 9.86295 8.57855 10.0457Z" fill="#068CFC"/>
</svg>
