<svg width="16" height="16" viewBox="0 0 16 16" fill="none" xmlns="http://www.w3.org/2000/svg">
<path d="M3.5 3C3.5 2.72386 3.72386 2.5 4 2.5H8.08579C8.351 2.5 8.60536 2.60536 8.79289 2.79289L10.2071 4.20711C10.3946 4.39464 10.649 4.5 10.9142 4.5H15C15.2761 4.5 15.5 4.72386 15.5 5V12C15.5 12.2761 15.2761 12.5 15 12.5H4C3.72386 12.5 3.5 12.2761 3.5 12V3Z" fill="var(--mw-icon-background-light-yellow, #FFF5BC)" stroke="#674C06"/>
<path d="M7.04545 11C5.91579 11 5 9.96681 5 8.69231C5 7.41781 5.91579 6.38462 7.04545 6.38462C7.30784 6.38462 7.55868 6.44035 7.78919 6.5419C8.24344 5.62214 9.11414 5 10.1136 5C11.518 5 12.6681 6.22826 12.766 7.78453C13.4631 7.89321 14 8.56818 14 9.38462C14 10.2768 13.3589 11 12.5682 11H7.04545Z" fill="var(--mw-icon-glyph-content-light-blue, #278CDD)"/>
<path fill-rule="evenodd" clip-rule="evenodd" d="M7.69489 9.35427C7.83089 9.25267 8.00937 9.11551 8.17912 8.97735C8.2657 8.90689 8.34725 8.83835 8.41875 8.77545L8.0409 8.51837L8.03821 8.51972C8.00105 8.53835 7.95465 8.55954 7.90273 8.58214C7.79849 8.62751 7.66386 8.68209 7.51882 8.73895C7.35226 8.80425 7.1698 8.8734 7 8.93639C7.13771 9.02024 7.29695 9.11567 7.46104 9.214C7.53849 9.26041 7.61704 9.30748 7.69489 9.35427ZM8.33459 8.27279L8.68255 8.50954C8.80394 8.35822 9.02666 8.07162 9.23373 7.76003C9.34647 7.59039 9.4529 7.41581 9.53554 7.25333C9.55037 7.22416 9.56426 7.19574 9.57715 7.16812C9.55169 7.19594 9.52579 7.22353 9.49989 7.25047C9.35955 7.39642 9.19615 7.54714 9.07446 7.62241C8.87011 7.74881 8.71377 7.85139 8.61481 7.97485C8.54995 8.05576 8.43744 8.1717 8.33459 8.27279Z" fill="var(--mw-icon-background-default-white, #FFFFFF)"/>
<path fill-rule="evenodd" clip-rule="evenodd" d="M10.338 6.16323C10.2297 6.28009 10.1308 6.49472 10.0692 6.89307C10.0445 7.0525 9.97157 7.23246 9.88191 7.40875C9.79092 7.58767 9.6765 7.77469 9.55936 7.95095C9.32503 8.30357 9.07312 8.62309 8.95817 8.76492C8.85357 8.89397 8.63953 9.07972 8.43046 9.24988C8.29563 9.35962 8.15585 9.46843 8.03486 9.56035C8.08405 9.59043 8.1317 9.61975 8.17723 9.64802C8.47421 9.83235 8.69412 10.1281 8.86412 10.4051C8.95025 10.5454 9.02687 10.6867 9.09507 10.8127L9.09836 10.8188C9.1339 10.8845 9.16669 10.9451 9.19756 11C9.27935 10.9563 9.37963 10.888 9.49072 10.792C9.66633 10.6403 10.0831 10.1673 10.3352 9.84062C10.4829 9.64917 10.687 9.50075 10.8924 9.40015C11.0959 9.30048 11.3168 9.23994 11.5057 9.23994C11.6621 9.23994 11.8472 9.30553 12 9.37288C11.7616 8.72309 11.4401 7.82875 11.3296 7.45427C11.2459 7.1706 11.1014 6.78471 10.9394 6.47302C10.858 6.31635 10.7763 6.18652 10.7007 6.09863C10.6629 6.05471 10.6315 6.02703 10.6079 6.01154C10.5967 6.00415 10.5897 6.00113 10.5866 6C10.5638 6.00153 10.5152 6.01658 10.4393 6.07441C10.4295 6.08181 10.4197 6.08964 10.4099 6.09785L10.4109 6.09913C10.4043 6.10375 10.3977 6.10866 10.3911 6.11386C10.3736 6.1292 10.3558 6.1457 10.338 6.16323Z" fill="white"/>
</svg>
