<svg width="16" height="16" viewBox="0 0 16 16" fill="none" xmlns="http://www.w3.org/2000/svg">
<path d="M0.5 2.5H12.5V7.5H0.5V2.5Z" stroke="var(--mw-icon-object-primary, #616160)" stroke-linejoin="round"/>
<path d="M14 1L15.5 2.5L14 4" stroke="var(--mw-icon-object-primary, #616160)" stroke-linecap="square" stroke-linejoin="round"/>
<path d="M6 2.49999L15 2.49999" stroke="var(--mw-icon-object-primary, #616160)" stroke-linejoin="round"/>
<path d="M2.5 0.5H5.5V4.5H2.5V0.5Z" fill="var(--mw-icon-object-secondary, #FFFFFE)" stroke="var(--mw-icon-object-primary, #616160)" stroke-linejoin="round"/>
<path d="M7.5 0.5H10.5V4.5H7.5V0.5Z" fill="var(--mw-icon-object-secondary, #FFFFFE)" stroke="var(--mw-icon-object-primary, #616160)" stroke-linejoin="round"/>
<path d="M8.10678 15.1774V11H9V15.9357H8.1961L8.10678 15.1774ZM6 14.2391V14.1716C6 13.906 6.02875 13.665 6.08624 13.4486C6.14374 13.2301 6.22793 13.0426 6.33881 12.8862C6.44969 12.7299 6.58624 12.6088 6.74846 12.5231C6.91068 12.4374 7.09548 12.3946 7.30287 12.3946C7.49795 12.3946 7.66838 12.4374 7.81417 12.5231C7.96201 12.6088 8.08727 12.7309 8.18994 12.8895C8.29466 13.0458 8.37885 13.2311 8.44251 13.4454C8.50616 13.6575 8.55236 13.8899 8.58111 14.1427V14.2905C8.55236 14.5326 8.50616 14.7575 8.44251 14.9653C8.37885 15.1731 8.29466 15.3552 8.18994 15.5116C8.08727 15.6658 7.96201 15.7858 7.81417 15.8715C7.66632 15.9572 7.49384 16 7.29671 16C7.08932 16 6.90452 15.9561 6.7423 15.8683C6.58214 15.7804 6.44661 15.6572 6.33573 15.4987C6.2269 15.3402 6.14374 15.1538 6.08624 14.9396C6.02875 14.7254 6 14.4919 6 14.2391ZM6.88706 14.1716V14.2391C6.88706 14.3826 6.89733 14.5165 6.91786 14.6407C6.94045 14.765 6.97639 14.8753 7.02567 14.9717C7.077 15.066 7.14271 15.1399 7.22279 15.1934C7.30493 15.2449 7.40452 15.2706 7.52156 15.2706C7.67351 15.2706 7.79877 15.2352 7.89733 15.1645C7.99589 15.0917 8.07084 14.9921 8.12218 14.8657C8.17556 14.7393 8.20637 14.5936 8.21458 14.4287V14.0077C8.20842 13.8728 8.18994 13.7517 8.15914 13.6446C8.13039 13.5353 8.08727 13.4422 8.02977 13.365C7.97433 13.2879 7.90452 13.2279 7.82033 13.1851C7.73819 13.1422 7.64066 13.1208 7.52772 13.1208C7.41273 13.1208 7.31417 13.1487 7.23203 13.2044C7.1499 13.2579 7.08316 13.3318 7.03183 13.4261C6.98255 13.5204 6.94559 13.6317 6.92094 13.7603C6.89836 13.8867 6.88706 14.0238 6.88706 14.1716Z" fill="var(--mw-icon-object-primary, #616160)"/>
<path d="M10.5 10.5L12.5 8.5L14.5 10.5" stroke="var(--mw-icon-object-primary, #616160)" stroke-linecap="square" stroke-linejoin="round"/>
<path d="M12.5 16L12.5 9" stroke="var(--mw-icon-object-primary, #616160)" stroke-linejoin="round"/>
</svg>
