<svg width="16" height="16" viewBox="0 0 16 16" fill="none" xmlns="http://www.w3.org/2000/svg">
<path d="M0.5 1.5L0.5 11.5C0.5 12.0523 0.947715 12.5 1.5 12.5L11.5 12.5C12.0523 12.5 12.5 12.0523 12.5 11.5L12.5 1.5C12.5 0.947715 12.0523 0.5 11.5 0.5L1.5 0.5C0.947715 0.5 0.5 0.947715 0.5 1.5Z" fill="var(--mw-icon-background-default-white, #FFFFFF)"/>
<path d="M0.5 6.07928C2.52315 10.6404 4.47685 10.6402 6.5 6.07911C8.16667 2.62223 10.4769 2.38243 12.5 6.9435" stroke="#0072BD" stroke-linecap="round"/>
<path d="M0.5 1.5L0.5 11.5C0.5 12.0523 0.947715 12.5 1.5 12.5L11.5 12.5C12.0523 12.5 12.5 12.0523 12.5 11.5L12.5 1.5C12.5 0.947715 12.0523 0.5 11.5 0.5L1.5 0.5C0.947715 0.5 0.5 0.947715 0.5 1.5Z" stroke="var(--mw-icon-border-default-gray, #616161)" stroke-linejoin="round"/>
<path d="M15 10.5H3C2.72386 10.5 2.5 10.7239 2.5 11V15C2.5 15.2761 2.72386 15.5 3 15.5H15C15.2761 15.5 15.5 15.2761 15.5 15V11C15.5 10.7239 15.2761 10.5 15 10.5Z" fill="var(--mw-icon-background-light-yellow, #FFF5BC)" stroke="#674C06" stroke-linejoin="round"/>
<path d="M4.5 13V15M7.5 13V15M10.5 13V15M13.5 13V15" stroke="var(--mw-icon-glyph-content-yellow, #674C07)"/>
</svg>
