<svg width="16" height="16" viewBox="0 0 16 16" fill="none" xmlns="http://www.w3.org/2000/svg">
<path d="M0.5 12.5V2.5C0.5 1.39543 1.39543 0.5 2.5 0.5H7.5H12.5C13.6046 0.5 14.5 1.39543 14.5 2.5V12.5C14.5 13.6046 13.6046 14.5 12.5 14.5H7.5H2.5C1.39543 14.5 0.5 13.6046 0.5 12.5Z" fill="var(--mw-icon-background-default-white, #FFFFFF)"/>
<path d="M7.5 0.5H12.5C13.6046 0.5 14.5 1.39543 14.5 2.5V12.5C14.5 13.6046 13.6046 14.5 12.5 14.5H7.5M7.5 0.5H2.5C1.39543 0.5 0.5 1.39543 0.5 2.5V12.5C0.5 13.6046 1.39543 14.5 2.5 14.5H7.5M7.5 0.5V14.5" stroke="var(--mw-icon-border-default-gray, #616161)" stroke-linecap="round"/>
<path d="M2.5 12.5V5.94152C2.5 5.08066 3.05086 4.31638 3.86754 4.04415L5.5 3.5V12.5L5.2 12.1C4.6 11.3 3.4 11.3 2.8 12.1L2.5 12.5Z" fill="var(--mw-icon-background-medium-blue, #83CAFF)" stroke="var(--mw-icon-glyph-content-light-blue, #278CDD)" stroke-linejoin="round"/>
<path d="M9.5 12.5V5.94152C9.5 5.08066 10.0509 4.31638 10.8675 4.04415L12.5 3.5V12.5L12.2 12.1C11.6 11.3 10.4 11.3 9.8 12.1L9.5 12.5Z" fill="var(--mw-icon-background-default-medium-gray, #D9D9D9)" stroke="var(--mw-icon-glyph-content-gray, #616162)" stroke-linejoin="round"/>
<path d="M10.5 6.5H12.5V8.5H10.5V7.5V6.5Z" fill="white"/>
<path d="M5.5 7.5V6.5H3.5V8.5H5.5V7.5Z" fill="white"/>
<path d="M10.5 7.5V8.5H12.5V6.5H10.5V7.5ZM10.5 7.5H5.5M5.5 7.5V6.5H3.5V8.5H5.5V7.5Z" stroke="var(--mw-icon-glyph-content-blue, #1656A8)" stroke-linejoin="round"/>
</svg>
