<svg width="16" height="16" viewBox="0 0 16 16" fill="none" xmlns="http://www.w3.org/2000/svg">
<path d="M0.5 12.5V2.5C0.5 1.39543 1.39543 0.5 2.5 0.5H12.5C13.6046 0.5 14.5 1.39543 14.5 2.5V12.5C14.5 13.6046 13.6046 14.5 12.5 14.5H2.5C1.39543 14.5 0.5 13.6046 0.5 12.5Z" fill="var(--mw-icon-background-default-white, #FFFFFF)" stroke="var(--mw-icon-border-default-gray, #616161)" stroke-linecap="round"/>
<path d="M7.5 2.49997V6.49997M7.5 6.49997L5.5 8.49997M7.5 6.49997L9.5 8.49997" stroke="var(--mw-icon-glyph-content-gray, #616162)" stroke-linecap="round"/>
<rect x="10" y="8.99997" width="1" height="1" fill="var(--mw-icon-background-default-medium-gray, #D9D9D9)"/>
<rect x="10" y="6.99997" width="1" height="1" fill="var(--mw-icon-background-default-medium-gray, #D9D9D9)"/>
<rect x="11" y="9.99997" width="1" height="1" fill="var(--mw-icon-background-default-dark-gray, #A6A6A6)"/>
<rect x="11" y="8.99997" width="1" height="1" fill="var(--mw-icon-glyph-disabled-gray, #888889)"/>
<rect x="11" y="6.99997" width="1" height="1" fill="var(--mw-icon-glyph-disabled-gray, #888889)"/>
<rect x="10" y="7.99997" width="1" height="1" fill="var(--mw-icon-glyph-disabled-gray, #888889)"/>
<rect x="11" y="4.99997" width="1" height="1" fill="var(--mw-icon-glyph-disabled-gray, #888889)"/>
<rect x="11" y="7.99997" width="1" height="1" fill="var(--mw-icon-background-default-dark-gray, #A6A6A6)"/>
<rect x="11" y="5.99997" width="1" height="1" fill="var(--mw-icon-background-default-dark-gray, #A6A6A6)"/>
<rect x="10" y="4.99997" width="1" height="1" fill="var(--mw-icon-background-default-medium-gray, #D9D9D9)"/>
<rect x="10" y="5.99997" width="1" height="1" fill="var(--mw-icon-background-default-light-gray, #F5F5F5)"/>
<rect x="10" y="11" width="1" height="1" fill="var(--mw-icon-background-default-dark-gray, #A6A6A6)"/>
<rect x="11" y="11" width="1" height="1" fill="var(--mw-icon-background-default-medium-gray, #D9D9D9)"/>
<rect x="10" y="9.99997" width="1" height="1" fill="var(--mw-icon-background-default-light-gray, #F5F5F5)"/>
<path d="M9.5 12.5V4.49997L11.1325 5.04412C11.9491 5.31635 12.5 6.08063 12.5 6.94149V12.5L12.2 12.1C11.6 11.3 10.4 11.3 9.8 12.1L9.5 12.5Z" stroke="var(--mw-icon-glyph-content-gray, #616162)" stroke-linejoin="round"/>
<path d="M2.5 12.5V6.94149C2.5 6.08063 3.05086 5.31635 3.86754 5.04412L5.5 4.49997V12.5L5.2 12.1C4.6 11.3 3.4 11.3 2.8 12.1L2.5 12.5Z" fill="var(--mw-icon-background-medium-blue, #83CAFF)" stroke="var(--mw-icon-glyph-content-light-blue, #278CDD)" stroke-linejoin="round"/>
</svg>
