<svg width="16" height="16" viewBox="0 0 16 16" fill="none" xmlns="http://www.w3.org/2000/svg">
<path d="M2.5 11.5V3.5C2.5 2.94772 2.94772 2.5 3.5 2.5H11.5C12.0523 2.5 12.5 2.94772 12.5 3.5V11.5C12.5 12.0523 12.0523 12.5 11.5 12.5H3.5C2.94772 12.5 2.5 12.0523 2.5 11.5Z" fill="var(--mw-icon-background-default-white, #FFFFFF)" stroke="var(--mw-icon-border-default-gray, #616161)" stroke-linejoin="round"/>
<path d="M0.5 9.5V1.5C0.5 0.947715 0.947716 0.5 1.5 0.5H9.5C10.0523 0.5 10.5 0.947716 10.5 1.5V9.5C10.5 10.0523 10.0523 10.5 9.5 10.5H1.5C0.947715 10.5 0.5 10.0523 0.5 9.5Z" fill="white"/>
<path d="M10.5 5.78048C8.81404 2.73976 7.18596 2.73988 5.5 5.7806C4.11111 8.08518 2.18596 8.24505 0.5 5.20433" stroke="#0072BD" stroke-linecap="round"/>
<path d="M0.5 9.5V1.5C0.5 0.947715 0.947716 0.5 1.5 0.5H9.5C10.0523 0.5 10.5 0.947716 10.5 1.5V9.5C10.5 10.0523 10.0523 10.5 9.5 10.5H1.5C0.947715 10.5 0.5 10.0523 0.5 9.5Z" stroke="var(--mw-icon-border-default-gray, #616161)" stroke-linejoin="round"/>
<rect x="5.5" y="5.5" width="10" height="10" rx="1" fill="var(--mw-icon-glyph-content-gray, #616162)" stroke="var(--mw-icon-border-default-gray, #616161)"/>
<path d="M8.5 6.5H12.5V14.5H8.5V6.5Z" stroke="var(--mw-icon-background-default-white, #FFFFFF)" stroke-linejoin="round"/>
<path d="M6 7.5H8M6 9.5H8M6 11.5H8M6 13.5H8M13 7.5H15M13 9.5H15M13 11.5H15M13 13.5H15" stroke="white"/>
</svg>
