<svg width="16" height="16" viewBox="0 0 16 16" fill="none" xmlns="http://www.w3.org/2000/svg">
<path d="M0.5 7.50006H12.5V11.5001C12.5 12.0523 12.0523 12.5001 11.5 12.5001H1.5C0.947715 12.5001 0.5 12.0523 0.5 11.5001V7.50006Z" fill="var(--mw-icon-background-default-medium-gray, #D9D9D9)" stroke="var(--mw-icon-border-default-gray, #616161)"/>
<rect x="2" y="9.00006" width="1" height="1" rx="0.5" fill="var(--mw-icon-glyph-content-green, #008014)"/>
<path d="M9.5 10.5001V9.50006H4.46875L4.5 10.5001H9.5Z" stroke="var(--mw-icon-glyph-disabled-gray, #888889)" stroke-linecap="square" stroke-linejoin="round"/>
<path d="M0.5 7.5H12.5V1.5C12.5 0.947715 12.0523 0.5 11.5 0.5H1.5C0.947715 0.5 0.5 0.947715 0.5 1.5V7.5Z" fill="var(--mw-icon-background-default-white, #FFFFFF)"/>
<path d="M0.5 4.00009C2.5 2.00009 4.5 2.00009 6.5 4.00009C8.5 6.00009 10.5 6.00009 12.5 4.00009" stroke="#0072BD" stroke-linecap="round"/>
<path d="M0.5 7.50012H12.5V1.50012C12.5 0.947837 12.0523 0.500122 11.5 0.500122H1.5C0.947715 0.500122 0.5 0.947837 0.5 1.50012V7.50012Z" stroke="var(--mw-icon-border-default-gray, #616161)"/>
<rect x="5.5" y="5.5" width="10" height="10" rx="1" fill="var(--mw-icon-glyph-content-gray, #616162)" stroke="var(--mw-icon-border-default-gray, #616161)"/>
<path d="M8.5 6.5H12.5V14.5H8.5V6.5Z" stroke="var(--mw-icon-background-default-white, #FFFFFF)" stroke-linejoin="round"/>
<path d="M6 7.5H8M6 9.5H8M6 11.5H8M6 13.5H8M13 7.5H15M13 9.5H15M13 11.5H15M13 13.5H15" stroke="white"/>
</svg>
