<svg width="17" height="16" viewBox="0 0 17 16" fill="none" xmlns="http://www.w3.org/2000/svg">
<path d="M1.5 10.3378V4.66216L8.5 0.5L15.5 4.66216V10.3378L8.5 14.5L1.5 10.3378Z" fill="var(--mw-icon-background-default-white, #FFFFFF)"/>
<path d="M8.08824 6.27194L8.09057 0.5L15.5 4.62891V10.3824L8.08824 6.27194Z" fill="var(--mw-icon-background-default-light-gray, #F5F5F5)"/>
<path d="M8.5 5.5V0.5L1.50001 4.63416L1.50001 10.3824L8.5 5.5Z" fill="#E6E6E6"/>
<path d="M15.5 10.3824V4.66543L8.49999 0.5L1.5 4.66959" stroke="#BFBFBF" stroke-linecap="round" stroke-linejoin="round"/>
<path d="M1.5 4.61765V10.3304L8.5 14.5L15.5 10.3324" stroke="var(--mw-icon-border-default-gray, #616161)" stroke-linecap="round" stroke-linejoin="round"/>
<path d="M3.5 9.49998L3.49998 5.49998L5.5 6.49998L8.49468 8.27148L11.5 6.49998L13.5 5.49998V9.49998L8.5 12.5L3.5 9.49998Z" fill="var(--mw-icon-border-default-green, #008013)"/>
<path d="M3.5 9.49998L3.49998 5.49998L5.5 6.49998M3.5 9.49998L5.5 6.49998M3.5 9.49998L8.5 12.5M13.5 9.49998V5.49998L11.5 6.49998M13.5 9.49998L8.5 12.5M13.5 9.49998L11.5 6.49998M8.5 12.5L11.5 6.49998M8.5 12.5L5.5 6.49998M8.5 12.5L8.49468 8.27148M8.49468 8.27148L11.5 6.49998M8.49468 8.27148L5.5 6.49998M11.5 6.49998V10.5M5.5 6.49998V10.5" stroke="#013E0A" stroke-linejoin="round"/>
<path d="M8.49998 2.49998L13.5 5.49998L8.49998 8.49998L3.49998 5.49998L8.49998 2.49998Z" fill="#FEC04C"/>
<path d="M8.49998 8.49998V2.49998M8.49998 8.49998L13.5 5.49998M8.49998 8.49998L3.49998 5.49998M8.49998 2.49998L13.5 5.49998M8.49998 2.49998L3.49998 5.49998M13.5 5.49998H3.49998" stroke="#4A3A19" stroke-linejoin="round"/>
</svg>
