<svg width="16" height="16" viewBox="0 0 16 16" fill="none" xmlns="http://www.w3.org/2000/svg">
<path fill-rule="evenodd" clip-rule="evenodd" d="M4 11.0986L5.57349 8.73837L4 7.61445V11.0986ZM6.38765 9.31992L4.60093 12H10.3991L8.61235 9.31992L7.79062 9.90687C7.61677 10.031 7.38323 10.031 7.20938 9.90687L6.38765 9.31992ZM11 7.61445V11.0986L9.42651 8.73837L11 7.61445ZM4.86023 7L7.5 8.88555L10.1398 7H4.86023ZM4.5 6C3.67157 6 3 6.67157 3 7.5V11.5C3 12.3284 3.67157 13 4.5 13H10.5C11.3284 13 12 12.3284 12 11.5V7.5C12 6.67157 11.3284 6 10.5 6H4.5Z" fill="var(--mw-icon-object-primary, #616160)"/>
<path fill-rule="evenodd" clip-rule="evenodd" d="M7 3.01778V5L10 2.5L7 0V2.01557C5.69987 2.09661 4.43993 2.49272 3.3474 3.17059C2.11499 3.93523 1.14855 5.02583 0.576218 6.30888C0.0036313 7.59249 -0.1469 9.00737 0.145601 10.3728C0.438021 11.7379 1.15869 12.9864 2.21003 13.9626C3.26098 14.9385 4.59566 15.5994 6.04356 15.8668C7.49138 16.1342 8.99244 15.9972 10.3583 15.4719C11.7244 14.9465 12.8977 14.0545 13.7262 12.9032L13.7262 12.9032C14.5549 11.7515 15 10.3931 15 9.00002V8.50002H14V9.00002C14 10.1781 13.624 11.3332 12.9145 12.3191C12.2045 13.3058 11.1915 14.0801 9.99938 14.5385L9.99935 14.5385C8.80698 14.9972 7.4931 15.1176 6.22518 14.8834C4.95736 14.6493 3.79747 14.0721 2.89048 13.2298C1.98389 12.388 1.37119 11.3201 1.12342 10.1634C0.875723 9.00708 1.00244 7.80808 1.48948 6.71626C1.97676 5.62386 2.80475 4.68412 3.87462 4.02032L3.87462 4.02032C4.80636 3.44221 5.88332 3.09733 7 3.01778Z" fill="var(--mw-icon-object-primary, #616160)"/>
</svg>
