<svg width="16" height="16" viewBox="0 0 16 16" fill="none" xmlns="http://www.w3.org/2000/svg">
<path d="M7.5 1.5C3.63401 1.5 0.5 4.63401 0.5 8.5C0.5 11.091 1.4077 13.2897 3.5 14.5H11.5C13.5923 13.2897 14.5 11.091 14.5 8.5C14.5 4.63401 11.366 1.5 7.5 1.5Z" fill="var(--mw-icon-background-default-white, #FFFFFF)" stroke="var(--mw-icon-border-default-gray, #616161)"/>
<circle cx="7.5" cy="8.5" r="0.5" fill="white" stroke="#A2142F"/>
<path d="M7 8L5 6" stroke="#A2142F" stroke-linecap="square" stroke-linejoin="round"/>
<path d="M3 4L3.5 4.5" stroke="var(--mw-icon-border-default-gray, #616161)" stroke-linecap="square"/>
<path d="M4 14L5.5 12.5" stroke="var(--mw-icon-border-default-gray, #616161)" stroke-linecap="square"/>
<path d="M11 14L9.5 12.5" stroke="var(--mw-icon-border-default-gray, #616161)" stroke-linecap="square"/>
<path d="M12 4L10.5 5.5" stroke="var(--mw-icon-border-default-gray, #616161)" stroke-linecap="square"/>
<path d="M7 3.50006L7 4.00006L8 4.00006L8 3.50006L7 3.50006ZM8 1.50002C8 1.22387 7.77614 1.00002 7.5 1.00002C7.22386 1.00002 7 1.22387 7 1.50002L8 1.50002ZM8 3.50006L8 1.50002L7 1.50002L7 3.50006L8 3.50006Z" fill="var(--mw-icon-border-default-gray, #616161)"/>
<path d="M2.5 9L3 9L3 8L2.5 8L2.5 9ZM0.5 8C0.223858 8 4.22469e-08 8.22386 0 8.5C-4.22469e-08 8.77614 0.223858 9 0.5 9L0.5 8ZM2.5 8L0.5 8L0.5 9L2.5 9L2.5 8Z" fill="var(--mw-icon-border-default-gray, #616161)"/>
<path d="M12.4999 8L11.9999 8L11.9999 9L12.4999 9L12.4999 8ZM14.5 9C14.7761 9 15 8.77614 15 8.5C15 8.22386 14.7761 8 14.5 8L14.5 9ZM12.4999 9L14.5 9L14.5 8L12.4999 8L12.4999 9Z" fill="var(--mw-icon-border-default-gray, #616161)"/>
</svg>
