<svg width="16" height="16" viewBox="0 0 16 16" fill="none" xmlns="http://www.w3.org/2000/svg">
<circle cx="8" cy="8" r="7.5" fill="var(--mw-icon-background-default-medium-gray, #D9D9D9)" stroke="var(--mw-icon-border-default-gray, #616161)"/>
<path d="M9 3C9 3.55228 8.55228 4 8 4C7.44772 4 7 3.55228 7 3C7 2.44772 7.44772 2 8 2C8.55228 2 9 2.44772 9 3Z" fill="var(--mw-icon-glyph-content-dark-gray, #333333)"/>
<path d="M5 5C5 5.55228 4.55228 6 4 6C3.44772 6 3 5.55228 3 5C3 4.44772 3.44772 4 4 4C4.55228 4 5 4.44772 5 5Z" fill="var(--mw-icon-glyph-content-dark-gray, #333333)"/>
<path d="M4 9C4 9.55228 3.55228 10 3 10C2.44772 10 2 9.55228 2 9C2 8.44772 2.44772 8 3 8C3.55228 8 4 8.44772 4 9Z" fill="var(--mw-icon-glyph-content-dark-gray, #333333)"/>
<path d="M13 5C13 5.55228 12.5523 6 12 6C11.4477 6 11 5.55228 11 5C11 4.44772 11.4477 4 12 4C12.5523 4 13 4.44772 13 5Z" fill="var(--mw-icon-glyph-content-dark-gray, #333333)"/>
<path d="M14 9C14 9.55228 13.5523 10 13 10C12.4477 10 12 9.55228 12 9C12 8.44772 12.4477 8 13 8C13.5523 8 14 8.44772 14 9Z" fill="var(--mw-icon-glyph-content-dark-gray, #333333)"/>
<path d="M5 13.5C5 13.2239 5.22386 13 5.5 13H10.5C10.7761 13 11 13.2239 11 13.5V15H5V13.5Z" fill="var(--mw-icon-glyph-content-gray, #616162)"/>
<circle cx="8" cy="8" r="7.5" stroke="var(--mw-icon-border-default-gray, #616161)"/>
</svg>
