<svg width="16" height="16" viewBox="0 0 16 16" fill="none" xmlns="http://www.w3.org/2000/svg">
<path d="M0 14C0 15.1046 0.895431 16 2 16H14C15.1046 16 16 15.1046 16 14V2C16 0.895431 15.1046 0 14 0H2C0.895431 0 0 0.895431 0 2V14Z" fill="var(--mw-icon-background-default-white, #FFFFFF)"/>
<path d="M5.5 5.5C6 5 6.5 4.26935 6.5 3.5C6.5 2.5 6 2 5.5 1.5" stroke="#1171BE" stroke-linecap="round"/>
<path d="M10.5 5.5C10 5 9.5 4.26935 9.5 3.5C9.5 2.5 10 2 10.5 1.5" stroke="#1171BE" stroke-linecap="round"/>
<path d="M5 3.5C5 4.32843 4.32843 5 3.5 5C2.67157 5 2 4.32843 2 3.5C2 2.67157 2.67157 2 3.5 2C4.32843 2 5 2.67157 5 3.5Z" fill="var(--mw-icon-glyph-content-gray, #616162)"/>
<path d="M14 3.5C14 4.32843 13.3284 5 12.5 5C11.6716 5 11 4.32843 11 3.5C11 2.67157 11.6716 2 12.5 2C13.3284 2 14 2.67157 14 3.5Z" fill="var(--mw-icon-glyph-content-gray, #616162)"/>
<path d="M1.5 6H1V7H1.5V6ZM4 3.5C4 3.22386 3.77614 3 3.5 3C3.22386 3 3 3.22386 3 3.5H4ZM3.5 6.5V7H4V6.5H3.5ZM1.5 7H3.5V6H1.5V7ZM3.5 6.5C4 6.5 4 6.5 4 6.49999C4 6.49998 4 6.49997 4 6.49995C4 6.49994 4 6.49992 4 6.49989C4 6.49987 4 6.49984 4 6.49981C4 6.49978 4 6.49974 4 6.4997C4 6.49966 4 6.49962 4 6.49957C4 6.49952 4 6.49947 4 6.49941C4 6.49936 4 6.4993 4 6.49923C4 6.49917 4 6.4991 4 6.49903C4 6.49896 4 6.49888 4 6.4988C4 6.49872 4 6.49864 4 6.49855C4 6.49846 4 6.49837 4 6.49828C4 6.49818 4 6.49808 4 6.49798C4 6.49787 4 6.49777 4 6.49765C4 6.49754 4 6.49743 4 6.49731C4 6.49719 4 6.49706 4 6.49694C4 6.49681 4 6.49668 4 6.49654C4 6.49641 4 6.49627 4 6.49612C4 6.49598 4 6.49583 4 6.49568C4 6.49553 4 6.49537 4 6.49521C4 6.49505 4 6.49489 4 6.49472C4 6.49456 4 6.49439 4 6.49421C4 6.49403 4 6.49386 4 6.49367C4 6.49349 4 6.4933 4 6.49311C4 6.49292 4 6.49272 4 6.49253C4 6.49233 4 6.49212 4 6.49192C4 6.49171 4 6.4915 4 6.49128C4 6.49107 4 6.49085 4 6.49063C4 6.4904 4 6.49018 4 6.48995C4 6.48971 4 6.48948 4 6.48924C4 6.489 4 6.48876 4 6.48851C4 6.48827 4 6.48802 4 6.48776C4 6.48751 4 6.48725 4 6.48698C4 6.48672 4 6.48646 4 6.48619C4 6.48591 4 6.48564 4 6.48536C4 6.48508 4 6.4848 4 6.48452C4 6.48423 4 6.48394 4 6.48364C4 6.48335 4 6.48305 4 6.48275C4 6.48245 4 6.48214 4 6.48183C4 6.48152 4 6.48121 4 6.48089C4 6.48057 4 6.48025 4 6.47992C4 6.4796 4 6.47927 4 6.47893C4 6.4786 4 6.47826 4 6.47792C4 6.47758 4 6.47723 4 6.47688C4 6.47654 4 6.47618 4 6.47582C4 6.47547 4 6.47511 4 6.47474C4 6.47437 4 6.47401 4 6.47363C4 6.47326 4 6.47288 4 6.4725C4 6.47212 4 6.47173 4 6.47135C4 6.47096 4 6.47056 4 6.47017C4 6.46977 4 6.46937 4 6.46896C4 6.46856 4 6.46815 4 6.46774C4 6.46733 4 6.46691 4 6.46649C4 6.46607 4 6.46564 4 6.46521C4 6.46479 4 6.46435 4 6.46392C4 6.46348 4 6.46304 4 6.4626C4 6.46215 4 6.4617 4 6.46125C4 6.4608 4 6.46034 4 6.45988C4 6.45942 4 6.45896 4 6.45849C4 6.45803 4 6.45755 4 6.45708C4 6.4566 4 6.45612 4 6.45564C4 6.45516 4 6.45467 4 6.45418C4 6.45369 4 6.45319 4 6.45269C4 6.45219 4 6.45169 4 6.45118C4 6.45067 4 6.45016 4 6.44965C4 6.44913 4 6.44861 4 6.44809C4 6.44757 4 6.44704 4 6.44651C4 6.44598 4 6.44545 4 6.44491C4 6.44437 4 6.44383 4 6.44328C4 6.44273 4 6.44218 4 6.44163C4 6.44108 4 6.44052 4 6.43996C4 6.43939 4 6.43883 4 6.43826C4 6.43769 4 6.43711 4 6.43654C4 6.43596 4 6.43538 4 6.43479C4 6.43421 4 6.43362 4 6.43302C4 6.43243 4 6.43183 4 6.43123C4 6.43063 4 6.43003 4 6.42942C4 6.42881 4 6.42819 4 6.42758C4 6.42696 4 6.42634 4 6.42572C4 6.42509 4 6.42446 4 6.42383C4 6.4232 4 6.42256 4 6.42192C4 6.42128 4 6.42064 4 6.41999C4 6.41934 4 6.41869 4 6.41803C4 6.41738 4 6.41672 4 6.41605C4 6.41539 4 6.41472 4 6.41405C4 6.41338 4 6.4127 4 6.41202C4 6.41134 4 6.41066 4 6.40997C4 6.40929 4 6.40859 4 6.4079C4 6.4072 4 6.40651 4 6.4058C4 6.4051 4 6.40439 4 6.40368C4 6.40297 4 6.40226 4 6.40154C4 6.40082 4 6.4001 4 6.39937C4 6.39865 4 6.39792 4 6.39718C4 6.39645 4 6.39571 4 6.39497C4 6.39423 4 6.39348 4 6.39273C4 6.39198 4 6.39123 4 6.39047C4 6.38971 4 6.38895 4 6.38819C4 6.38742 4 6.38665 4 6.38588C4 6.38511 4 6.38433 4 6.38355C4 6.38277 4 6.38198 4 6.3812C4 6.38041 4 6.37962 4 6.37882C4 6.37802 4 6.37722 4 6.37642C4 6.37561 4 6.37481 4 6.37399C4 6.37318 4 6.37237 4 6.37155C4 6.37073 4 6.3699 4 6.36908C4 6.36825 4 6.36742 4 6.36658C4 6.36575 4 6.36491 4 6.36407C4 6.36322 4 6.36238 4 6.36153C4 6.36068 4 6.35982 4 6.35896C4 6.3581 4 6.35724 4 6.35638C4 6.35551 4 6.35464 4 6.35377C4 6.35289 4 6.35201 4 6.35113C4 6.35025 4 6.34936 4 6.34847C4 6.34759 4 6.34669 4 6.3458C4 6.3449 4 6.344 4 6.34309C4 6.34219 4 6.34128 4 6.34037C4 6.33945 4 6.33854 4 6.33762C4 6.3367 4 6.33577 4 6.33484C4 6.33391 4 6.33298 4 6.33205C4 6.33111 4 6.33017 4 6.32923C4 6.32828 4 6.32734 4 6.32638C4 6.32543 4 6.32448 4 6.32352C4 6.32256 4 6.3216 4 6.32063C4 6.31966 4 6.31869 4 6.31772C4 6.31674 4 6.31576 4 6.31478C4 6.3138 4 6.31281 4 6.31182C4 6.31083 4 6.30984 4 6.30884C4 6.30784 4 6.30684 4 6.30584C4 6.30483 4 6.30382 4 6.30281C4 6.3018 4 6.30078 4 6.29976C4 6.29874 4 6.29771 4 6.29668C4 6.29566 4 6.29462 4 6.29359C4 6.29255 4 6.29151 4 6.29047C4 6.28942 4 6.28837 4 6.28732C4 6.28627 4 6.28521 4 6.28416C4 6.2831 4 6.28203 4 6.28097C4 6.2799 4 6.27883 4 6.27775C4 6.27668 4 6.2756 4 6.27452C4 6.27343 4 6.27235 4 6.27126C4 6.27017 4 6.26907 4 6.26797C4 6.26688 4 6.26577 4 6.26467C4 6.26356 4 6.26245 4 6.26134C4 6.26023 4 6.25911 4 6.25799C4 6.25687 4 6.25574 4 6.25461C4 6.25349 4 6.25235 4 6.25122C4 6.25008 4 6.24894 4 6.2478C4 6.24665 4 6.2455 4 6.24435C4 6.2432 4 6.24204 4 6.24089C4 6.23973 4 6.23856 4 6.2374C4 6.23623 4 6.23506 4 6.23388C4 6.23271 4 6.23153 4 6.23035C4 6.22916 4 6.22798 4 6.22679C4 6.2256 4 6.2244 4 6.22321C4 6.22201 4 6.22081 4 6.2196C4 6.2184 4 6.21719 4 6.21597C4 6.21476 4 6.21354 4 6.21232C4 6.2111 4 6.20988 4 6.20865C4 6.20742 4 6.20619 4 6.20495C4 6.20372 4 6.20248 4 6.20123C4 6.19999 4 6.19874 4 6.19749C4 6.19624 4 6.19498 4 6.19372C4 6.19246 4 6.1912 4 6.18993C4 6.18867 4 6.1874 4 6.18612C4 6.18485 4 6.18357 4 6.18229C4 6.18101 4 6.17972 4 6.17843C4 6.17714 4 6.17585 4 6.17455C4 6.17325 4 6.17195 4 6.17065C4 6.16934 4 6.16803 4 6.16672C4 6.16541 4 6.16409 4 6.16277C4 6.16145 4 6.16013 4 6.1588C4 6.15747 4 6.15614 4 6.1548C4 6.15347 4 6.15213 4 6.15079C4 6.14944 4 6.1481 4 6.14675C4 6.14539 4 6.14404 4 6.14268C4 6.14132 4 6.13996 4 6.1386C4 6.13723 4 6.13586 4 6.13449C4 6.13311 4 6.13173 4 6.13035C4 6.12897 4 6.12759 4 6.1262C4 6.12481 4 6.12342 4 6.12202C4 6.12062 4 6.11922 4 6.11782C4 6.11642 4 6.11501 4 6.1136C4 6.11218 4 6.11077 4 6.10935C4 6.10793 4 6.10651 4 6.10508C4 6.10365 4 6.10222 4 6.10079C4 6.09935 4 6.09792 4 6.09647C4 6.09503 4 6.09359 4 6.09214C4 6.09069 4 6.08923 4 6.08778C4 6.08632 4 6.08486 4 6.08339C4 6.08193 4 6.08046 4 6.07899C4 6.07751 4 6.07604 4 6.07456C4 6.07308 4 6.07159 4 6.07011C4 6.06862 4 6.06713 4 6.06563C4 6.06414 4 6.06264 4 6.06114C4 6.05963 4 6.05813 4 6.05662C4 6.05511 4 6.05359 4 6.05207C4 6.05056 4 6.04903 4 6.04751C4 6.04598 4 6.04445 4 6.04292C4 6.04139 4 6.03985 4 6.03831C4 6.03677 4 6.03522 4 6.03368C4 6.03213 4 6.03058 4 6.02902C4 6.02746 4 6.0259 4 6.02434C4 6.02278 4 6.02121 4 6.01964C4 6.01807 4 6.01649 4 6.01492C4 6.01334 4 6.01175 4 6.01017C4 6.00858 4 6.00699 4 6.0054C4 6.00381 4 6.00221 4 6.00061C4 5.99901 4 5.9974 4 5.99579C4 5.99418 4 5.99257 4 5.99095C4 5.98934 4 5.98772 4 5.98609C4 5.98447 4 5.98284 4 5.98121C4 5.97958 4 5.97795 4 5.97631C4 5.97467 4 5.97302 4 5.97138C4 5.96973 4 5.96808 4 5.96643C4 5.96477 4 5.96312 4 5.96145C4 5.95979 4 5.95813 4 5.95646C4 5.95479 4 5.95312 4 5.95144C4 5.94976 4 5.94808 4 5.9464C4 5.94471 4 5.94303 4 5.94133C4 5.93964 4 5.93795 4 5.93625C4 5.93455 4 5.93285 4 5.93114C4 5.92943 4 5.92772 4 5.92601C4 5.92429 4 5.92258 4 5.92085C4 5.91913 4 5.91741 4 5.91568C4 5.91395 4 5.91221 4 5.91048C4 5.90874 4 5.907 4 5.90526C4 5.90351 4 5.90176 4 5.90001C4 5.89826 4 5.8965 4 5.89475C4 5.89299 4 5.89122 4 5.88946C4 5.88769 4 5.88592 4 5.88414C4 5.88237 4 5.88059 4 5.87881C4 5.87703 4 5.87524 4 5.87345C4 5.87166 4 5.86987 4 5.86807C4 5.86628 4 5.86448 4 5.86267C4 5.86087 4 5.85906 4 5.85725C4 5.85544 4 5.85362 4 5.8518C4 5.84998 4 5.84816 4 5.84633C4 5.8445 4 5.84267 4 5.84084C4 5.839 4 5.83717 4 5.83532C4 5.83348 4 5.83164 4 5.82979C4 5.82794 4 5.82609 4 5.82423C4 5.82237 4 5.82051 4 5.81865C4 5.81678 4 5.81491 4 5.81304C4 5.81117 4 5.8093 4 5.80742C4 5.80554 4 5.80365 4 5.80177C4 5.79988 4 5.79799 4 5.7961C4 5.7942 4 5.7923 4 5.7904C4 5.7885 4 5.7866 4 5.78469C4 5.78278 4 5.78086 4 5.77895C4 5.77703 4 5.77511 4 5.77319C4 5.77126 4 5.76933 4 5.7674C4 5.76547 4 5.76354 4 5.7616C4 5.75966 4 5.75772 4 5.75577C4 5.75382 4 5.75187 4 5.74992C4 5.74796 4 5.74601 4 5.74405C4 5.74208 4 5.74012 4 5.73815C4 5.73618 4 5.73421 4 5.73223C4 5.73026 4 5.72828 4 5.72629C4 5.72431 4 5.72232 4 5.72033C4 5.71834 4 5.71634 4 5.71435C4 5.71235 4 5.71035 4 5.70834C4 5.70633 4 5.70432 4 5.70231C4 5.7003 4 5.69828 4 5.69626C4 5.69424 4 5.69221 4 5.69018C4 5.68816 4 5.68612 4 5.68409C4 5.68205 4 5.68001 4 5.67797C4 5.67593 4 5.67388 4 5.67183C4 5.66978 4 5.66772 4 5.66567C4 5.66361 4 5.66155 4 5.65948C4 5.65742 4 5.65535 4 5.65327C4 5.6512 4 5.64912 4 5.64704C4 5.64496 4 5.64288 4 5.64079C4 5.6387 4 5.63661 4 5.63452C4 5.63242 4 5.63032 4 5.62822C4 5.62612 4 5.62401 4 5.6219C4 5.61979 4 5.61768 4 5.61556C4 5.61344 4 5.61132 4 5.6092C4 5.60707 4 5.60494 4 5.60281C4 5.60068 4 5.59854 4 5.5964C4 5.59426 4 5.59212 4 5.58997C4 5.58783 4 5.58568 4 5.58352C4 5.58137 4 5.57921 4 5.57705C4 5.57489 4 5.57272 4 5.57055C4 5.56838 4 5.56621 4 5.56403C4 5.56186 4 5.55967 4 5.55749C4 5.55531 4 5.55312 4 5.55093C4 5.54874 4 5.54654 4 5.54434C4 5.54214 4 5.53994 4 5.53774C4 5.53553 4 5.53332 4 5.53111C4 5.52889 4 5.52667 4 5.52445C4 5.52223 4 5.52001 4 5.51778C4 5.51555 4 5.51332 4 5.51108C4 5.50885 4 5.50661 4 5.50437C4 5.50212 4 5.49988 4 5.49763C4 5.49538 4 5.49312 4 5.49086C4 5.48861 4 5.48634 4 5.48408C4 5.48181 4 5.47955 4 5.47727C4 5.475 4 5.47272 4 5.47044C4 5.46816 4 5.46588 4 5.46359C4 5.46131 4 5.45902 4 5.45672C4 5.45443 4 5.45213 4 5.44983C4 5.44752 4 5.44522 4 5.44291C4 5.4406 4 5.43829 4 5.43597C4 5.43365 4 5.43133 4 5.42901C4 5.42669 4 5.42436 4 5.42203C4 5.41969 4 5.41736 4 5.41502C4 5.41268 4 5.41034 4 5.40799C4 5.40565 4 5.4033 4 5.40094C4 5.39859 4 5.39623 4 5.39387C4 5.39151 4 5.38915 4 5.38678C4 5.38441 4 5.38204 4 5.37967C4 5.37729 4 5.37491 4 5.37253C4 5.37015 4 5.36776 4 5.36537C4 5.36298 4 5.36059 4 5.35819C4 5.35579 4 5.35339 4 5.35098C4 5.34858 4 5.34617 4 5.34376C4 5.34135 4 5.33893 4 5.33651C4 5.33409 4 5.33167 4 5.32924C4 5.32682 4 5.32439 4 5.32195C4 5.31952 4 5.31708 4 5.31464C4 5.3122 4 5.30975 4 5.3073C4 5.30486 4 5.3024 4 5.29995C4 5.29749 4 5.29503 4 5.29257C4 5.29011 4 5.28764 4 5.28517C4 5.2827 4 5.28022 4 5.27775C4 5.27527 4 5.27279 4 5.2703C4 5.26782 4 5.26533 4 5.26283C4 5.26034 4 5.25785 4 5.25535C4 5.25285 4 5.25034 4 5.24784C4 5.24533 4 5.24282 4 5.2403C4 5.23779 4 5.23527 4 5.23275C4 5.23023 4 5.2277 4 5.22517C4 5.22264 4 5.22011 4 5.21758C4 5.21504 4 5.2125 4 5.20996C4 5.20741 4 5.20487 4 5.20231C4 5.19976 4 5.19721 4 5.19465C4 5.19209 4 5.18953 4 5.18697C4 5.1844 4 5.18183 4 5.17926C4 5.17669 4 5.17411 4 5.17153C4 5.16895 4 5.16637 4 5.16378C4 5.16119 4 5.1586 4 5.15601C4 5.15341 4 5.15081 4 5.14821C4 5.14561 4 5.14301 4 5.1404C4 5.13779 4 5.13517 4 5.13256C4 5.12994 4 5.12732 4 5.1247C4 5.12208 4 5.11945 4 5.11682C4 5.11419 4 5.11155 4 5.10891C4 5.10628 4 5.10363 4 5.10099C4 5.09834 4 5.09569 4 5.09304C4 5.09039 4 5.08773 4 5.08507C4 5.08241 4 5.07975 4 5.07708C4 5.07442 4 5.07175 4 5.06907C4 5.0664 4 5.06372 4 5.06104C4 5.05836 4 5.05567 4 5.05298C4 5.05029 4 5.0476 4 5.0449C4 5.04221 4 5.03951 4 5.03681C4 5.0341 4 5.03139 4 5.02868C4 5.02597 4 5.02326 4 5.02054C4 5.01782 4 5.0151 4 5.01238C4 5.00965 4 5.00692 4 5.00419C4 5.00146 4 4.99872 4 4.99598C4 4.99324 4 4.9905 4 4.98776C4 4.98501 4 4.98226 4 4.9795C4 4.97675 4 4.97399 4 4.97123C4 4.96847 4 4.96571 4 4.96294C4 4.96017 4 4.9574 4 4.95462C4 4.95185 4 4.94907 4 4.94628C4 4.9435 4 4.94071 4 4.93792C4 4.93513 4 4.93234 4 4.92954C4 4.92675 4 4.92395 4 4.92114C4 4.91834 4 4.91553 4 4.91272C4 4.90991 4 4.90709 4 4.90427C4 4.90145 4 4.89863 4 4.8958C4 4.89298 4 4.89015 4 4.88732C4 4.88448 4 4.88165 4 4.8788C4 4.87596 4 4.87312 4 4.87027C4 4.86742 4 4.86457 4 4.86172C4 4.85886 4 4.85601 4 4.85314C4 4.85028 4 4.84742 4 4.84455C4 4.84168 4 4.8388 4 4.83593C4 4.83305 4 4.83017 4 4.82729C4 4.8244 4 4.82152 4 4.81863C4 4.81574 4 4.81284 4 4.80994C4 4.80705 4 4.80414 4 4.80124C4 4.79833 4 4.79542 4 4.79251C4 4.7896 4 4.78668 4 4.78376C4 4.78084 4 4.77792 4 4.775C4 4.77207 4 4.76914 4 4.7662C4 4.76327 4 4.76033 4 4.75739C4 4.75445 4 4.75151 4 4.74856C4 4.74561 4 4.74266 4 4.7397C4 4.73675 4 4.73379 4 4.73083C4 4.72786 4 4.7249 4 4.72193C4 4.71896 4 4.71598 4 4.71301C4 4.71003 4 4.70705 4 4.70407C4 4.70108 4 4.69809 4 4.6951C4 4.69211 4 4.68912 4 4.68612C4 4.68312 4 4.68012 4 4.67711C4 4.67411 4 4.6711 4 4.66809C4 4.66507 4 4.66206 4 4.65904C4 4.65602 4 4.653 4 4.64997C4 4.64694 4 4.64391 4 4.64088C4 4.63784 4 4.63481 4 4.63176C4 4.62872 4 4.62568 4 4.62263C4 4.61958 4 4.61653 4 4.61347C4 4.61042 4 4.60736 4 4.6043C4 4.60123 4 4.59817 4 4.5951C4 4.59203 4 4.58896 4 4.58588C4 4.5828 4 4.57972 4 4.57664C4 4.57355 4 4.57047 4 4.56737C4 4.56428 4 4.56119 4 4.55809C4 4.55499 4 4.55189 4 4.54879C4 4.54568 4 4.54257 4 4.53946C4 4.53635 4 4.53323 4 4.53011C4 4.52699 4 4.52387 4 4.52074C4 4.51761 4 4.51448 4 4.51135C4 4.50822 4 4.50508 4 4.50194C4 4.4988 4 4.49565 4 4.4925C4 4.48936 4 4.4862 4 4.48305C4 4.47989 4 4.47674 4 4.47357C4 4.47041 4 4.46725 4 4.46408C4 4.46091 4 4.45773 4 4.45456C4 4.45138 4 4.4482 4 4.44502C4 4.44183 4 4.43865 4 4.43546C4 4.43227 4 4.42907 4 4.42587C4 4.42268 4 4.41947 4 4.41627C4 4.41306 4 4.40986 4 4.40664C4 4.40343 4 4.40022 4 4.397C4 4.39378 4 4.39056 4 4.38733C4 4.3841 4 4.38087 4 4.37764C4 4.37441 4 4.37117 4 4.36793C4 4.36469 4 4.36145 4 4.3582C4 4.35495 4 4.3517 4 4.34845C4 4.34519 4 4.34193 4 4.33867C4 4.33541 4 4.33215 4 4.32888C4 4.32561 4 4.32234 4 4.31906C4 4.31579 4 4.31251 4 4.30922C4 4.30594 4 4.30266 4 4.29937C4 4.29608 4 4.29278 4 4.28949C4 4.28619 4 4.28289 4 4.27958C4 4.27628 4 4.27297 4 4.26966C4 4.26635 4 4.26304 4 4.25972C4 4.2564 4 4.25308 4 4.24975C4 4.24643 4 4.2431 4 4.23977C4 4.23644 4 4.2331 4 4.22976C4 4.22642 4 4.22308 4 4.21973C4 4.21639 4 4.21304 4 4.20968C4 4.20633 4 4.20297 4 4.19961C4 4.19625 4 4.19289 4 4.18952C4 4.18615 4 4.18278 4 4.17941C4 4.17604 4 4.17266 4 4.16928C4 4.16589 4 4.16251 4 4.15912C4 4.15573 4 4.15234 4 4.14894C4 4.14555 4 4.14215 4 4.13875C4 4.13535 4 4.13194 4 4.12853C4 4.12512 4 4.12171 4 4.11829C4 4.11487 4 4.11145 4 4.10803C4 4.10461 4 4.10118 4 4.09775C4 4.09432 4 4.09088 4 4.08745C4 4.08401 4 4.08057 4 4.07712C4 4.07368 4 4.07023 4 4.06678C4 4.06333 4 4.05987 4 4.05641C4 4.05295 4 4.04949 4 4.04603C4 4.04256 4 4.03909 4 4.03562C4 4.03214 4 4.02867 4 4.02519C4 4.02171 4 4.01823 4 4.01474C4 4.01125 4 4.00776 4 4.00427C4 4.00077 4 3.99728 4 3.99378C4 3.99028 4 3.98677 4 3.98326C4 3.97976 4 3.97624 4 3.97273C4 3.96922 4 3.9657 4 3.96218C4 3.95865 4 3.95513 4 3.9516C4 3.94807 4 3.94454 4 3.941C4 3.93747 4 3.93393 4 3.93038C4 3.92684 4 3.9233 4 3.91975C4 3.9162 4 3.91264 4 3.90909C4 3.90553 4 3.90197 4 3.89841C4 3.89484 4 3.89127 4 3.8877C4 3.88413 4 3.88056 4 3.87698C4 3.8734 4 3.86982 4 3.86624C4 3.86265 4 3.85907 4 3.85547C4 3.85188 4 3.84829 4 3.84469C4 3.84109 4 3.83749 4 3.83388C4 3.83028 4 3.82667 4 3.82305C4 3.81944 4 3.81583 4 3.81221C4 3.80859 4 3.80496 4 3.80134C4 3.79771 4 3.79408 4 3.79045C4 3.78681 4 3.78318 4 3.77954C4 3.7759 4 3.77225 4 3.76861C4 3.76496 4 3.76131 4 3.75765C4 3.754 4 3.75034 4 3.74668C4 3.74302 4 3.73935 4 3.73569C4 3.73202 4 3.72835 4 3.72467C4 3.721 4 3.71732 4 3.71363C4 3.70995 4 3.70627 4 3.70258C4 3.69889 4 3.6952 4 3.6915C4 3.6878 4 3.6841 4 3.6804C4 3.6767 4 3.67299 4 3.66928C4 3.66557 4 3.66186 4 3.65814C4 3.65443 4 3.65071 4 3.64698C4 3.64326 4 3.63953 4 3.6358C4 3.63207 4 3.62834 4 3.6246C4 3.62086 4 3.61712 4 3.61337C4 3.60963 4 3.60588 4 3.60213C4 3.59838 4 3.59462 4 3.59087C4 3.58711 4 3.58335 4 3.57958C4 3.57581 4 3.57205 4 3.56827C4 3.5645 4 3.56073 4 3.55695C4 3.55317 4 3.54938 4 3.5456C4 3.54181 4 3.53802 4 3.53423C4 3.53044 4 3.52664 4 3.52284C4 3.51904 4 3.51524 4 3.51143C4 3.50762 4 3.50381 4 3.5H3C3 3.50381 3 3.50762 3 3.51143C3 3.51524 3 3.51904 3 3.52284C3 3.52664 3 3.53044 3 3.53423C3 3.53802 3 3.54181 3 3.5456C3 3.54938 3 3.55317 3 3.55695C3 3.56073 3 3.5645 3 3.56827C3 3.57205 3 3.57581 3 3.57958C3 3.58335 3 3.58711 3 3.59087C3 3.59462 3 3.59838 3 3.60213C3 3.60588 3 3.60963 3 3.61337C3 3.61712 3 3.62086 3 3.6246C3 3.62834 3 3.63207 3 3.6358C3 3.63953 3 3.64326 3 3.64698C3 3.65071 3 3.65443 3 3.65814C3 3.66186 3 3.66557 3 3.66928C3 3.67299 3 3.6767 3 3.6804C3 3.6841 3 3.6878 3 3.6915C3 3.6952 3 3.69889 3 3.70258C3 3.70627 3 3.70995 3 3.71363C3 3.71732 3 3.721 3 3.72467C3 3.72835 3 3.73202 3 3.73569C3 3.73935 3 3.74302 3 3.74668C3 3.75034 3 3.754 3 3.75765C3 3.76131 3 3.76496 3 3.76861C3 3.77225 3 3.7759 3 3.77954C3 3.78318 3 3.78681 3 3.79045C3 3.79408 3 3.79771 3 3.80134C3 3.80496 3 3.80859 3 3.81221C3 3.81583 3 3.81944 3 3.82305C3 3.82667 3 3.83028 3 3.83388C3 3.83749 3 3.84109 3 3.84469C3 3.84829 3 3.85188 3 3.85547C3 3.85907 3 3.86265 3 3.86624C3 3.86982 3 3.8734 3 3.87698C3 3.88056 3 3.88413 3 3.8877C3 3.89127 3 3.89484 3 3.89841C3 3.90197 3 3.90553 3 3.90909C3 3.91264 3 3.9162 3 3.91975C3 3.9233 3 3.92684 3 3.93038C3 3.93393 3 3.93747 3 3.941C3 3.94454 3 3.94807 3 3.9516C3 3.95513 3 3.95865 3 3.96218C3 3.9657 3 3.96922 3 3.97273C3 3.97624 3 3.97976 3 3.98326C3 3.98677 3 3.99028 3 3.99378C3 3.99728 3 4.00077 3 4.00427C3 4.00776 3 4.01125 3 4.01474C3 4.01823 3 4.02171 3 4.02519C3 4.02867 3 4.03214 3 4.03562C3 4.03909 3 4.04256 3 4.04603C3 4.04949 3 4.05295 3 4.05641C3 4.05987 3 4.06333 3 4.06678C3 4.07023 3 4.07368 3 4.07712C3 4.08057 3 4.08401 3 4.08745C3 4.09088 3 4.09432 3 4.09775C3 4.10118 3 4.10461 3 4.10803C3 4.11145 3 4.11487 3 4.11829C3 4.12171 3 4.12512 3 4.12853C3 4.13194 3 4.13535 3 4.13875C3 4.14215 3 4.14555 3 4.14894C3 4.15234 3 4.15573 3 4.15912C3 4.16251 3 4.16589 3 4.16928C3 4.17266 3 4.17604 3 4.17941C3 4.18278 3 4.18615 3 4.18952C3 4.19289 3 4.19625 3 4.19961C3 4.20297 3 4.20633 3 4.20968C3 4.21304 3 4.21639 3 4.21973C3 4.22308 3 4.22642 3 4.22976C3 4.2331 3 4.23644 3 4.23977C3 4.2431 3 4.24643 3 4.24975C3 4.25308 3 4.2564 3 4.25972C3 4.26304 3 4.26635 3 4.26966C3 4.27297 3 4.27628 3 4.27958C3 4.28289 3 4.28619 3 4.28949C3 4.29278 3 4.29608 3 4.29937C3 4.30266 3 4.30594 3 4.30922C3 4.31251 3 4.31579 3 4.31906C3 4.32234 3 4.32561 3 4.32888C3 4.33215 3 4.33541 3 4.33867C3 4.34193 3 4.34519 3 4.34845C3 4.3517 3 4.35495 3 4.3582C3 4.36145 3 4.36469 3 4.36793C3 4.37117 3 4.37441 3 4.37764C3 4.38087 3 4.3841 3 4.38733C3 4.39056 3 4.39378 3 4.397C3 4.40022 3 4.40343 3 4.40664C3 4.40986 3 4.41306 3 4.41627C3 4.41947 3 4.42268 3 4.42587C3 4.42907 3 4.43227 3 4.43546C3 4.43865 3 4.44183 3 4.44502C3 4.4482 3 4.45138 3 4.45456C3 4.45773 3 4.46091 3 4.46408C3 4.46725 3 4.47041 3 4.47357C3 4.47674 3 4.47989 3 4.48305C3 4.4862 3 4.48936 3 4.4925C3 4.49565 3 4.4988 3 4.50194C3 4.50508 3 4.50822 3 4.51135C3 4.51448 3 4.51761 3 4.52074C3 4.52387 3 4.52699 3 4.53011C3 4.53323 3 4.53635 3 4.53946C3 4.54257 3 4.54568 3 4.54879C3 4.55189 3 4.55499 3 4.55809C3 4.56119 3 4.56428 3 4.56737C3 4.57047 3 4.57355 3 4.57664C3 4.57972 3 4.5828 3 4.58588C3 4.58896 3 4.59203 3 4.5951C3 4.59817 3 4.60123 3 4.6043C3 4.60736 3 4.61042 3 4.61347C3 4.61653 3 4.61958 3 4.62263C3 4.62568 3 4.62872 3 4.63176C3 4.63481 3 4.63784 3 4.64088C3 4.64391 3 4.64694 3 4.64997C3 4.653 3 4.65602 3 4.65904C3 4.66206 3 4.66507 3 4.66809C3 4.6711 3 4.67411 3 4.67711C3 4.68012 3 4.68312 3 4.68612C3 4.68912 3 4.69211 3 4.6951C3 4.69809 3 4.70108 3 4.70407C3 4.70705 3 4.71003 3 4.71301C3 4.71598 3 4.71896 3 4.72193C3 4.7249 3 4.72786 3 4.73083C3 4.73379 3 4.73675 3 4.7397C3 4.74266 3 4.74561 3 4.74856C3 4.75151 3 4.75445 3 4.75739C3 4.76033 3 4.76327 3 4.7662C3 4.76914 3 4.77207 3 4.775C3 4.77792 3 4.78084 3 4.78376C3 4.78668 3 4.7896 3 4.79251C3 4.79542 3 4.79833 3 4.80124C3 4.80414 3 4.80705 3 4.80994C3 4.81284 3 4.81574 3 4.81863C3 4.82152 3 4.8244 3 4.82729C3 4.83017 3 4.83305 3 4.83593C3 4.8388 3 4.84168 3 4.84455C3 4.84742 3 4.85028 3 4.85314C3 4.85601 3 4.85886 3 4.86172C3 4.86457 3 4.86742 3 4.87027C3 4.87312 3 4.87596 3 4.8788C3 4.88165 3 4.88448 3 4.88732C3 4.89015 3 4.89298 3 4.8958C3 4.89863 3 4.90145 3 4.90427C3 4.90709 3 4.90991 3 4.91272C3 4.91553 3 4.91834 3 4.92114C3 4.92395 3 4.92675 3 4.92954C3 4.93234 3 4.93513 3 4.93792C3 4.94071 3 4.9435 3 4.94628C3 4.94907 3 4.95185 3 4.95462C3 4.9574 3 4.96017 3 4.96294C3 4.96571 3 4.96847 3 4.97123C3 4.97399 3 4.97675 3 4.9795C3 4.98226 3 4.98501 3 4.98776C3 4.9905 3 4.99324 3 4.99598C3 4.99872 3 5.00146 3 5.00419C3 5.00692 3 5.00965 3 5.01238C3 5.0151 3 5.01782 3 5.02054C3 5.02326 3 5.02597 3 5.02868C3 5.03139 3 5.0341 3 5.03681C3 5.03951 3 5.04221 3 5.0449C3 5.0476 3 5.05029 3 5.05298C3 5.05567 3 5.05836 3 5.06104C3 5.06372 3 5.0664 3 5.06907C3 5.07175 3 5.07442 3 5.07708C3 5.07975 3 5.08241 3 5.08507C3 5.08773 3 5.09039 3 5.09304C3 5.09569 3 5.09834 3 5.10099C3 5.10363 3 5.10628 3 5.10891C3 5.11155 3 5.11419 3 5.11682C3 5.11945 3 5.12208 3 5.1247C3 5.12732 3 5.12994 3 5.13256C3 5.13517 3 5.13779 3 5.1404C3 5.14301 3 5.14561 3 5.14821C3 5.15081 3 5.15341 3 5.15601C3 5.1586 3 5.16119 3 5.16378C3 5.16637 3 5.16895 3 5.17153C3 5.17411 3 5.17669 3 5.17926C3 5.18183 3 5.1844 3 5.18697C3 5.18953 3 5.19209 3 5.19465C3 5.19721 3 5.19976 3 5.20231C3 5.20487 3 5.20741 3 5.20996C3 5.2125 3 5.21504 3 5.21758C3 5.22011 3 5.22264 3 5.22517C3 5.2277 3 5.23023 3 5.23275C3 5.23527 3 5.23779 3 5.2403C3 5.24282 3 5.24533 3 5.24784C3 5.25034 3 5.25285 3 5.25535C3 5.25785 3 5.26034 3 5.26283C3 5.26533 3 5.26782 3 5.2703C3 5.27279 3 5.27527 3 5.27775C3 5.28022 3 5.2827 3 5.28517C3 5.28764 3 5.29011 3 5.29257C3 5.29503 3 5.29749 3 5.29995C3 5.3024 3 5.30486 3 5.3073C3 5.30975 3 5.3122 3 5.31464C3 5.31708 3 5.31952 3 5.32195C3 5.32439 3 5.32682 3 5.32924C3 5.33167 3 5.33409 3 5.33651C3 5.33893 3 5.34135 3 5.34376C3 5.34617 3 5.34858 3 5.35098C3 5.35339 3 5.35579 3 5.35819C3 5.36059 3 5.36298 3 5.36537C3 5.36776 3 5.37015 3 5.37253C3 5.37491 3 5.37729 3 5.37967C3 5.38204 3 5.38441 3 5.38678C3 5.38915 3 5.39151 3 5.39387C3 5.39623 3 5.39859 3 5.40094C3 5.4033 3 5.40565 3 5.40799C3 5.41034 3 5.41268 3 5.41502C3 5.41736 3 5.41969 3 5.42203C3 5.42436 3 5.42669 3 5.42901C3 5.43133 3 5.43365 3 5.43597C3 5.43829 3 5.4406 3 5.44291C3 5.44522 3 5.44752 3 5.44983C3 5.45213 3 5.45443 3 5.45672C3 5.45902 3 5.46131 3 5.46359C3 5.46588 3 5.46816 3 5.47044C3 5.47272 3 5.475 3 5.47727C3 5.47955 3 5.48181 3 5.48408C3 5.48634 3 5.48861 3 5.49086C3 5.49312 3 5.49538 3 5.49763C3 5.49988 3 5.50212 3 5.50437C3 5.50661 3 5.50885 3 5.51108C3 5.51332 3 5.51555 3 5.51778C3 5.52001 3 5.52223 3 5.52445C3 5.52667 3 5.52889 3 5.53111C3 5.53332 3 5.53553 3 5.53774C3 5.53994 3 5.54214 3 5.54434C3 5.54654 3 5.54874 3 5.55093C3 5.55312 3 5.55531 3 5.55749C3 5.55967 3 5.56186 3 5.56403C3 5.56621 3 5.56838 3 5.57055C3 5.57272 3 5.57489 3 5.57705C3 5.57921 3 5.58137 3 5.58352C3 5.58568 3 5.58783 3 5.58997C3 5.59212 3 5.59426 3 5.5964C3 5.59854 3 5.60068 3 5.60281C3 5.60494 3 5.60707 3 5.6092C3 5.61132 3 5.61344 3 5.61556C3 5.61768 3 5.61979 3 5.6219C3 5.62401 3 5.62612 3 5.62822C3 5.63032 3 5.63242 3 5.63452C3 5.63661 3 5.6387 3 5.64079C3 5.64288 3 5.64496 3 5.64704C3 5.64912 3 5.6512 3 5.65327C3 5.65535 3 5.65742 3 5.65948C3 5.66155 3 5.66361 3 5.66567C3 5.66772 3 5.66978 3 5.67183C3 5.67388 3 5.67593 3 5.67797C3 5.68001 3 5.68205 3 5.68409C3 5.68612 3 5.68816 3 5.69018C3 5.69221 3 5.69424 3 5.69626C3 5.69828 3 5.7003 3 5.70231C3 5.70432 3 5.70633 3 5.70834C3 5.71035 3 5.71235 3 5.71435C3 5.71634 3 5.71834 3 5.72033C3 5.72232 3 5.72431 3 5.72629C3 5.72828 3 5.73026 3 5.73223C3 5.73421 3 5.73618 3 5.73815C3 5.74012 3 5.74208 3 5.74405C3 5.74601 3 5.74796 3 5.74992C3 5.75187 3 5.75382 3 5.75577C3 5.75772 3 5.75966 3 5.7616C3 5.76354 3 5.76547 3 5.7674C3 5.76933 3 5.77126 3 5.77319C3 5.77511 3 5.77703 3 5.77895C3 5.78086 3 5.78278 3 5.78469C3 5.7866 3 5.7885 3 5.7904C3 5.7923 3 5.7942 3 5.7961C3 5.79799 3 5.79988 3 5.80177C3 5.80365 3 5.80554 3 5.80742C3 5.8093 3 5.81117 3 5.81304C3 5.81491 3 5.81678 3 5.81865C3 5.82051 3 5.82237 3 5.82423C3 5.82609 3 5.82794 3 5.82979C3 5.83164 3 5.83348 3 5.83532C3 5.83717 3 5.839 3 5.84084C3 5.84267 3 5.8445 3 5.84633C3 5.84816 3 5.84998 3 5.8518C3 5.85362 3 5.85544 3 5.85725C3 5.85906 3 5.86087 3 5.86267C3 5.86448 3 5.86628 3 5.86807C3 5.86987 3 5.87166 3 5.87345C3 5.87524 3 5.87703 3 5.87881C3 5.88059 3 5.88237 3 5.88414C3 5.88592 3 5.88769 3 5.88946C3 5.89122 3 5.89299 3 5.89475C3 5.8965 3 5.89826 3 5.90001C3 5.90176 3 5.90351 3 5.90526C3 5.907 3 5.90874 3 5.91048C3 5.91221 3 5.91395 3 5.91568C3 5.91741 3 5.91913 3 5.92085C3 5.92258 3 5.92429 3 5.92601C3 5.92772 3 5.92943 3 5.93114C3 5.93285 3 5.93455 3 5.93625C3 5.93795 3 5.93964 3 5.94133C3 5.94303 3 5.94471 3 5.9464C3 5.94808 3 5.94976 3 5.95144C3 5.95312 3 5.95479 3 5.95646C3 5.95813 3 5.95979 3 5.96145C3 5.96312 3 5.96477 3 5.96643C3 5.96808 3 5.96973 3 5.97138C3 5.97302 3 5.97467 3 5.97631C3 5.97795 3 5.97958 3 5.98121C3 5.98284 3 5.98447 3 5.98609C3 5.98772 3 5.98934 3 5.99095C3 5.99257 3 5.99418 3 5.99579C3 5.9974 3 5.99901 3 6.00061C3 6.00221 3 6.00381 3 6.0054C3 6.00699 3 6.00858 3 6.01017C3 6.01175 3 6.01334 3 6.01492C3 6.01649 3 6.01807 3 6.01964C3 6.02121 3 6.02278 3 6.02434C3 6.0259 3 6.02746 3 6.02902C3 6.03058 3 6.03213 3 6.03368C3 6.03522 3 6.03677 3 6.03831C3 6.03985 3 6.04139 3 6.04292C3 6.04445 3 6.04598 3 6.04751C3 6.04903 3 6.05056 3 6.05207C3 6.05359 3 6.05511 3 6.05662C3 6.05813 3 6.05963 3 6.06114C3 6.06264 3 6.06414 3 6.06563C3 6.06713 3 6.06862 3 6.07011C3 6.07159 3 6.07308 3 6.07456C3 6.07604 3 6.07751 3 6.07899C3 6.08046 3 6.08193 3 6.08339C3 6.08486 3 6.08632 3 6.08778C3 6.08923 3 6.09069 3 6.09214C3 6.09359 3 6.09503 3 6.09647C3 6.09792 3 6.09935 3 6.10079C3 6.10222 3 6.10365 3 6.10508C3 6.10651 3 6.10793 3 6.10935C3 6.11077 3 6.11218 3 6.1136C3 6.11501 3 6.11642 3 6.11782C3 6.11922 3 6.12062 3 6.12202C3 6.12342 3 6.12481 3 6.1262C3 6.12759 3 6.12897 3 6.13035C3 6.13173 3 6.13311 3 6.13449C3 6.13586 3 6.13723 3 6.1386C3 6.13996 3 6.14132 3 6.14268C3 6.14404 3 6.14539 3 6.14675C3 6.1481 3 6.14944 3 6.15079C3 6.15213 3 6.15347 3 6.1548C3 6.15614 3 6.15747 3 6.1588C3 6.16013 3 6.16145 3 6.16277C3 6.16409 3 6.16541 3 6.16672C3 6.16803 3 6.16934 3 6.17065C3 6.17195 3 6.17325 3 6.17455C3 6.17585 3 6.17714 3 6.17843C3 6.17972 3 6.18101 3 6.18229C3 6.18357 3 6.18485 3 6.18612C3 6.1874 3 6.18867 3 6.18993C3 6.1912 3 6.19246 3 6.19372C3 6.19498 3 6.19624 3 6.19749C3 6.19874 3 6.19999 3 6.20123C3 6.20248 3 6.20372 3 6.20495C3 6.20619 3 6.20742 3 6.20865C3 6.20988 3 6.2111 3 6.21232C3 6.21354 3 6.21476 3 6.21597C3 6.21719 3 6.2184 3 6.2196C3 6.22081 3 6.22201 3 6.22321C3 6.2244 3 6.2256 3 6.22679C3 6.22798 3 6.22916 3 6.23035C3 6.23153 3 6.23271 3 6.23388C3 6.23506 3 6.23623 3 6.2374C3 6.23856 3 6.23973 3 6.24089C3 6.24204 3 6.2432 3 6.24435C3 6.2455 3 6.24665 3 6.2478C3 6.24894 3 6.25008 3 6.25122C3 6.25235 3 6.25349 3 6.25461C3 6.25574 3 6.25687 3 6.25799C3 6.25911 3 6.26023 3 6.26134C3 6.26245 3 6.26356 3 6.26467C3 6.26577 3 6.26688 3 6.26797C3 6.26907 3 6.27017 3 6.27126C3 6.27235 3 6.27343 3 6.27452C3 6.2756 3 6.27668 3 6.27775C3 6.27883 3 6.2799 3 6.28097C3 6.28203 3 6.2831 3 6.28416C3 6.28521 3 6.28627 3 6.28732C3 6.28837 3 6.28942 3 6.29047C3 6.29151 3 6.29255 3 6.29359C3 6.29462 3 6.29566 3 6.29668C3 6.29771 3 6.29874 3 6.29976C3 6.30078 3 6.3018 3 6.30281C3 6.30382 3 6.30483 3 6.30584C3 6.30684 3 6.30784 3 6.30884C3 6.30984 3 6.31083 3 6.31182C3 6.31281 3 6.3138 3 6.31478C3 6.31576 3 6.31674 3 6.31772C3 6.31869 3 6.31966 3 6.32063C3 6.3216 3 6.32256 3 6.32352C3 6.32448 3 6.32543 3 6.32638C3 6.32734 3 6.32828 3 6.32923C3 6.33017 3 6.33111 3 6.33205C3 6.33298 3 6.33391 3 6.33484C3 6.33577 3 6.3367 3 6.33762C3 6.33854 3 6.33945 3 6.34037C3 6.34128 3 6.34219 3 6.34309C3 6.344 3 6.3449 3 6.3458C3 6.34669 3 6.34759 3 6.34847C3 6.34936 3 6.35025 3 6.35113C3 6.35201 3 6.35289 3 6.35377C3 6.35464 3 6.35551 3 6.35638C3 6.35724 3 6.3581 3 6.35896C3 6.35982 3 6.36068 3 6.36153C3 6.36238 3 6.36322 3 6.36407C3 6.36491 3 6.36575 3 6.36658C3 6.36742 3 6.36825 3 6.36908C3 6.3699 3 6.37073 3 6.37155C3 6.37237 3 6.37318 3 6.37399C3 6.37481 3 6.37561 3 6.37642C3 6.37722 3 6.37802 3 6.37882C3 6.37962 3 6.38041 3 6.3812C3 6.38198 3 6.38277 3 6.38355C3 6.38433 3 6.38511 3 6.38588C3 6.38665 3 6.38742 3 6.38819C3 6.38895 3 6.38971 3 6.39047C3 6.39123 3 6.39198 3 6.39273C3 6.39348 3 6.39423 3 6.39497C3 6.39571 3 6.39645 3 6.39718C3 6.39792 3 6.39865 3 6.39937C3 6.4001 3 6.40082 3 6.40154C3 6.40226 3 6.40297 3 6.40368C3 6.40439 3 6.4051 3 6.4058C3 6.40651 3 6.4072 3 6.4079C3 6.40859 3 6.40929 3 6.40997C3 6.41066 3 6.41134 3 6.41202C3 6.4127 3 6.41338 3 6.41405C3 6.41472 3 6.41539 3 6.41605C3 6.41672 3 6.41738 3 6.41803C3 6.41869 3 6.41934 3 6.41999C3 6.42064 3 6.42128 3 6.42192C3 6.42256 3 6.4232 3 6.42383C3 6.42446 3 6.42509 3 6.42572C3 6.42634 3 6.42696 3 6.42758C3 6.42819 3 6.42881 3 6.42942C3 6.43003 3 6.43063 3 6.43123C3 6.43183 3 6.43243 3 6.43302C3 6.43362 3 6.43421 3 6.43479C3 6.43538 3 6.43596 3 6.43654C3 6.43711 3 6.43769 3 6.43826C3 6.43883 3 6.43939 3 6.43996C3 6.44052 3 6.44108 3 6.44163C3 6.44218 3 6.44273 3 6.44328C3 6.44383 3 6.44437 3 6.44491C3 6.44545 3 6.44598 3 6.44651C3 6.44704 3 6.44757 3 6.44809C3 6.44861 3 6.44913 3 6.44965C3 6.45016 3 6.45067 3 6.45118C3 6.45169 3 6.45219 3 6.45269C3 6.45319 3 6.45369 3 6.45418C3 6.45467 3 6.45516 3 6.45564C3 6.45612 3 6.4566 3 6.45708C3 6.45755 3 6.45803 3 6.45849C3 6.45896 3 6.45942 3 6.45988C3 6.46034 3 6.4608 3 6.46125C3 6.4617 3 6.46215 3 6.4626C3 6.46304 3 6.46348 3 6.46392C3 6.46435 3 6.46479 3 6.46521C3 6.46564 3 6.46607 3 6.46649C3 6.46691 3 6.46733 3 6.46774C3 6.46815 3 6.46856 3 6.46896C3 6.46937 3 6.46977 3 6.47017C3 6.47056 3 6.47096 3 6.47135C3 6.47173 3 6.47212 3 6.4725C3 6.47288 3 6.47326 3 6.47363C3 6.47401 3 6.47437 3 6.47474C3 6.47511 3 6.47547 3 6.47582C3 6.47618 3 6.47654 3 6.47688C3 6.47723 3 6.47758 3 6.47792C3 6.47826 3 6.4786 3 6.47893C3 6.47927 3 6.4796 3 6.47992C3 6.48025 3 6.48057 3 6.48089C3 6.48121 3 6.48152 3 6.48183C3 6.48214 3 6.48245 3 6.48275C3 6.48305 3 6.48335 3 6.48364C3 6.48394 3 6.48423 3 6.48452C3 6.4848 3 6.48508 3 6.48536C3 6.48564 3 6.48591 3 6.48619C3 6.48646 3 6.48672 3 6.48698C3 6.48725 3 6.48751 3 6.48776C3 6.48802 3 6.48827 3 6.48851C3 6.48876 3 6.489 3 6.48924C3 6.48948 3 6.48971 3 6.48995C3 6.49018 3 6.4904 3 6.49063C3 6.49085 3 6.49107 3 6.49128C3 6.4915 3 6.49171 3 6.49192C3 6.49212 3 6.49233 3 6.49253C3 6.49272 3 6.49292 3 6.49311C3 6.4933 3 6.49349 3 6.49367C3 6.49386 3 6.49403 3 6.49421C3 6.49439 3 6.49456 3 6.49472C3 6.49489 3 6.49505 3 6.49521C3 6.49537 3 6.49553 3 6.49568C3 6.49583 3 6.49598 3 6.49612C3 6.49627 3 6.49641 3 6.49654C3 6.49668 3 6.49681 3 6.49694C3 6.49706 3 6.49719 3 6.49731C3 6.49743 3 6.49754 3 6.49765C3 6.49777 3 6.49787 3 6.49798C3 6.49808 3 6.49818 3 6.49828C3 6.49837 3 6.49846 3 6.49855C3 6.49864 3 6.49872 3 6.4988C3 6.49888 3 6.49896 3 6.49903C3 6.4991 3 6.49917 3 6.49923C3 6.4993 3 6.49936 3 6.49941C3 6.49947 3 6.49952 3 6.49957C3 6.49962 3 6.49966 3 6.4997C3 6.49974 3 6.49978 3 6.49981C3 6.49984 3 6.49987 3 6.49989C3 6.49992 3 6.49994 3 6.49995C3 6.49997 3 6.49998 3 6.49999C3 6.5 3 6.5 3.5 6.5Z" fill="var(--mw-icon-glyph-content-gray, #616162)"/>
<path d="M14.5 7H15V6H14.5V7ZM12.5 6.5H12V7H12.5V6.5ZM13 3.5C13 3.22386 12.7761 3 12.5 3C12.2239 3 12 3.22386 12 3.5H13ZM14.5 6H12.5V7H14.5V6ZM13 6.5V3.5H12V6.5H13Z" fill="var(--mw-icon-glyph-content-gray, #616162)"/>
<path d="M5.5 12.5C6 12 6.5 11.2694 6.5 10.5C6.5 9.5 6 9 5.5 8.5" stroke="#1171BE" stroke-linecap="round"/>
<path d="M10.5 12.5C10 12 9.5 11.2694 9.5 10.5C9.5 9.5 10 9 10.5 8.5" stroke="#1171BE" stroke-linecap="round"/>
<path d="M5 10.5C5 11.3284 4.32843 12 3.5 12C2.67157 12 2 11.3284 2 10.5C2 9.67157 2.67157 9 3.5 9C4.32843 9 5 9.67157 5 10.5Z" fill="var(--mw-icon-glyph-content-gray, #616162)"/>
<path d="M14 10.5C14 11.3284 13.3284 12 12.5 12C11.6716 12 11 11.3284 11 10.5C11 9.67157 11.6716 9 12.5 9C13.3284 9 14 9.67157 14 10.5Z" fill="var(--mw-icon-glyph-content-gray, #616162)"/>
<path d="M1.5 13H1V14H1.5V13ZM4 10.5C4 10.2239 3.77614 10 3.5 10C3.22386 10 3 10.2239 3 10.5H4ZM3.5 13.5V14H4V13.5H3.5ZM1.5 14H3.5V13H1.5V14ZM3.5 13.5C4 13.5 4 13.5 4 13.5C4 13.5 4 13.5 4 13.5C4 13.4999 4 13.4999 4 13.4999C4 13.4999 4 13.4998 4 13.4998C4 13.4998 4 13.4997 4 13.4997C4 13.4997 4 13.4996 4 13.4996C4 13.4995 4 13.4995 4 13.4994C4 13.4994 4 13.4993 4 13.4992C4 13.4992 4 13.4991 4 13.499C4 13.499 4 13.4989 4 13.4988C4 13.4987 4 13.4986 4 13.4986C4 13.4985 4 13.4984 4 13.4983C4 13.4982 4 13.4981 4 13.498C4 13.4979 4 13.4978 4 13.4977C4 13.4975 4 13.4974 4 13.4973C4 13.4972 4 13.4971 4 13.4969C4 13.4968 4 13.4967 4 13.4965C4 13.4964 4 13.4963 4 13.4961C4 13.496 4 13.4958 4 13.4957C4 13.4955 4 13.4954 4 13.4952C4 13.4951 4 13.4949 4 13.4947C4 13.4946 4 13.4944 4 13.4942C4 13.494 4 13.4939 4 13.4937C4 13.4935 4 13.4933 4 13.4931C4 13.4929 4 13.4927 4 13.4925C4 13.4923 4 13.4921 4 13.4919C4 13.4917 4 13.4915 4 13.4913C4 13.4911 4 13.4908 4 13.4906C4 13.4904 4 13.4902 4 13.4899C4 13.4897 4 13.4895 4 13.4892C4 13.489 4 13.4888 4 13.4885C4 13.4883 4 13.488 4 13.4878C4 13.4875 4 13.4872 4 13.487C4 13.4867 4 13.4865 4 13.4862C4 13.4859 4 13.4856 4 13.4854C4 13.4851 4 13.4848 4 13.4845C4 13.4842 4 13.4839 4 13.4836C4 13.4834 4 13.4831 4 13.4827C4 13.4824 4 13.4821 4 13.4818C4 13.4815 4 13.4812 4 13.4809C4 13.4806 4 13.4802 4 13.4799C4 13.4796 4 13.4793 4 13.4789C4 13.4786 4 13.4783 4 13.4779C4 13.4776 4 13.4772 4 13.4769C4 13.4765 4 13.4762 4 13.4758C4 13.4755 4 13.4751 4 13.4747C4 13.4744 4 13.474 4 13.4736C4 13.4733 4 13.4729 4 13.4725C4 13.4721 4 13.4717 4 13.4713C4 13.471 4 13.4706 4 13.4702C4 13.4698 4 13.4694 4 13.469C4 13.4686 4 13.4682 4 13.4677C4 13.4673 4 13.4669 4 13.4665C4 13.4661 4 13.4656 4 13.4652C4 13.4648 4 13.4644 4 13.4639C4 13.4635 4 13.463 4 13.4626C4 13.4622 4 13.4617 4 13.4613C4 13.4608 4 13.4603 4 13.4599C4 13.4594 4 13.459 4 13.4585C4 13.458 4 13.4576 4 13.4571C4 13.4566 4 13.4561 4 13.4556C4 13.4552 4 13.4547 4 13.4542C4 13.4537 4 13.4532 4 13.4527C4 13.4522 4 13.4517 4 13.4512C4 13.4507 4 13.4502 4 13.4496C4 13.4491 4 13.4486 4 13.4481C4 13.4476 4 13.447 4 13.4465C4 13.446 4 13.4454 4 13.4449C4 13.4444 4 13.4438 4 13.4433C4 13.4427 4 13.4422 4 13.4416C4 13.4411 4 13.4405 4 13.44C4 13.4394 4 13.4388 4 13.4383C4 13.4377 4 13.4371 4 13.4365C4 13.436 4 13.4354 4 13.4348C4 13.4342 4 13.4336 4 13.433C4 13.4324 4 13.4318 4 13.4312C4 13.4306 4 13.43 4 13.4294C4 13.4288 4 13.4282 4 13.4276C4 13.427 4 13.4263 4 13.4257C4 13.4251 4 13.4245 4 13.4238C4 13.4232 4 13.4226 4 13.4219C4 13.4213 4 13.4206 4 13.42C4 13.4193 4 13.4187 4 13.418C4 13.4174 4 13.4167 4 13.4161C4 13.4154 4 13.4147 4 13.414C4 13.4134 4 13.4127 4 13.412C4 13.4113 4 13.4107 4 13.41C4 13.4093 4 13.4086 4 13.4079C4 13.4072 4 13.4065 4 13.4058C4 13.4051 4 13.4044 4 13.4037C4 13.403 4 13.4023 4 13.4015C4 13.4008 4 13.4001 4 13.3994C4 13.3986 4 13.3979 4 13.3972C4 13.3964 4 13.3957 4 13.395C4 13.3942 4 13.3935 4 13.3927C4 13.392 4 13.3912 4 13.3905C4 13.3897 4 13.389 4 13.3882C4 13.3874 4 13.3867 4 13.3859C4 13.3851 4 13.3843 4 13.3835C4 13.3828 4 13.382 4 13.3812C4 13.3804 4 13.3796 4 13.3788C4 13.378 4 13.3772 4 13.3764C4 13.3756 4 13.3748 4 13.374C4 13.3732 4 13.3724 4 13.3715C4 13.3707 4 13.3699 4 13.3691C4 13.3682 4 13.3674 4 13.3666C4 13.3657 4 13.3649 4 13.3641C4 13.3632 4 13.3624 4 13.3615C4 13.3607 4 13.3598 4 13.359C4 13.3581 4 13.3572 4 13.3564C4 13.3555 4 13.3546 4 13.3538C4 13.3529 4 13.352 4 13.3511C4 13.3503 4 13.3494 4 13.3485C4 13.3476 4 13.3467 4 13.3458C4 13.3449 4 13.344 4 13.3431C4 13.3422 4 13.3413 4 13.3404C4 13.3395 4 13.3385 4 13.3376C4 13.3367 4 13.3358 4 13.3348C4 13.3339 4 13.333 4 13.332C4 13.3311 4 13.3302 4 13.3292C4 13.3283 4 13.3273 4 13.3264C4 13.3254 4 13.3245 4 13.3235C4 13.3226 4 13.3216 4 13.3206C4 13.3197 4 13.3187 4 13.3177C4 13.3167 4 13.3158 4 13.3148C4 13.3138 4 13.3128 4 13.3118C4 13.3108 4 13.3098 4 13.3088C4 13.3078 4 13.3068 4 13.3058C4 13.3048 4 13.3038 4 13.3028C4 13.3018 4 13.3008 4 13.2998C4 13.2987 4 13.2977 4 13.2967C4 13.2957 4 13.2946 4 13.2936C4 13.2926 4 13.2915 4 13.2905C4 13.2894 4 13.2884 4 13.2873C4 13.2863 4 13.2852 4 13.2842C4 13.2831 4 13.282 4 13.281C4 13.2799 4 13.2788 4 13.2778C4 13.2767 4 13.2756 4 13.2745C4 13.2734 4 13.2723 4 13.2713C4 13.2702 4 13.2691 4 13.268C4 13.2669 4 13.2658 4 13.2647C4 13.2636 4 13.2625 4 13.2613C4 13.2602 4 13.2591 4 13.258C4 13.2569 4 13.2557 4 13.2546C4 13.2535 4 13.2524 4 13.2512C4 13.2501 4 13.2489 4 13.2478C4 13.2467 4 13.2455 4 13.2444C4 13.2432 4 13.242 4 13.2409C4 13.2397 4 13.2386 4 13.2374C4 13.2362 4 13.2351 4 13.2339C4 13.2327 4 13.2315 4 13.2303C4 13.2292 4 13.228 4 13.2268C4 13.2256 4 13.2244 4 13.2232C4 13.222 4 13.2208 4 13.2196C4 13.2184 4 13.2172 4 13.216C4 13.2148 4 13.2135 4 13.2123C4 13.2111 4 13.2099 4 13.2086C4 13.2074 4 13.2062 4 13.205C4 13.2037 4 13.2025 4 13.2012C4 13.2 4 13.1987 4 13.1975C4 13.1962 4 13.195 4 13.1937C4 13.1925 4 13.1912 4 13.1899C4 13.1887 4 13.1874 4 13.1861C4 13.1848 4 13.1836 4 13.1823C4 13.181 4 13.1797 4 13.1784C4 13.1771 4 13.1758 4 13.1745C4 13.1733 4 13.172 4 13.1706C4 13.1693 4 13.168 4 13.1667C4 13.1654 4 13.1641 4 13.1628C4 13.1615 4 13.1601 4 13.1588C4 13.1575 4 13.1561 4 13.1548C4 13.1535 4 13.1521 4 13.1508C4 13.1494 4 13.1481 4 13.1467C4 13.1454 4 13.144 4 13.1427C4 13.1413 4 13.14 4 13.1386C4 13.1372 4 13.1359 4 13.1345C4 13.1331 4 13.1317 4 13.1304C4 13.129 4 13.1276 4 13.1262C4 13.1248 4 13.1234 4 13.122C4 13.1206 4 13.1192 4 13.1178C4 13.1164 4 13.115 4 13.1136C4 13.1122 4 13.1108 4 13.1094C4 13.1079 4 13.1065 4 13.1051C4 13.1037 4 13.1022 4 13.1008C4 13.0994 4 13.0979 4 13.0965C4 13.095 4 13.0936 4 13.0921C4 13.0907 4 13.0892 4 13.0878C4 13.0863 4 13.0849 4 13.0834C4 13.0819 4 13.0805 4 13.079C4 13.0775 4 13.076 4 13.0746C4 13.0731 4 13.0716 4 13.0701C4 13.0686 4 13.0671 4 13.0656C4 13.0641 4 13.0626 4 13.0611C4 13.0596 4 13.0581 4 13.0566C4 13.0551 4 13.0536 4 13.0521C4 13.0506 4 13.049 4 13.0475C4 13.046 4 13.0445 4 13.0429C4 13.0414 4 13.0399 4 13.0383C4 13.0368 4 13.0352 4 13.0337C4 13.0321 4 13.0306 4 13.029C4 13.0275 4 13.0259 4 13.0243C4 13.0228 4 13.0212 4 13.0196C4 13.0181 4 13.0165 4 13.0149C4 13.0133 4 13.0118 4 13.0102C4 13.0086 4 13.007 4 13.0054C4 13.0038 4 13.0022 4 13.0006C4 12.999 4 12.9974 4 12.9958C4 12.9942 4 12.9926 4 12.991C4 12.9893 4 12.9877 4 12.9861C4 12.9845 4 12.9828 4 12.9812C4 12.9796 4 12.9779 4 12.9763C4 12.9747 4 12.973 4 12.9714C4 12.9697 4 12.9681 4 12.9664C4 12.9648 4 12.9631 4 12.9615C4 12.9598 4 12.9581 4 12.9565C4 12.9548 4 12.9531 4 12.9514C4 12.9498 4 12.9481 4 12.9464C4 12.9447 4 12.943 4 12.9413C4 12.9396 4 12.9379 4 12.9362C4 12.9345 4 12.9328 4 12.9311C4 12.9294 4 12.9277 4 12.926C4 12.9243 4 12.9226 4 12.9209C4 12.9191 4 12.9174 4 12.9157C4 12.9139 4 12.9122 4 12.9105C4 12.9087 4 12.907 4 12.9053C4 12.9035 4 12.9018 4 12.9C4 12.8983 4 12.8965 4 12.8947C4 12.893 4 12.8912 4 12.8895C4 12.8877 4 12.8859 4 12.8841C4 12.8824 4 12.8806 4 12.8788C4 12.877 4 12.8752 4 12.8735C4 12.8717 4 12.8699 4 12.8681C4 12.8663 4 12.8645 4 12.8627C4 12.8609 4 12.8591 4 12.8572C4 12.8554 4 12.8536 4 12.8518C4 12.85 4 12.8482 4 12.8463C4 12.8445 4 12.8427 4 12.8408C4 12.839 4 12.8372 4 12.8353C4 12.8335 4 12.8316 4 12.8298C4 12.8279 4 12.8261 4 12.8242C4 12.8224 4 12.8205 4 12.8186C4 12.8168 4 12.8149 4 12.813C4 12.8112 4 12.8093 4 12.8074C4 12.8055 4 12.8037 4 12.8018C4 12.7999 4 12.798 4 12.7961C4 12.7942 4 12.7923 4 12.7904C4 12.7885 4 12.7866 4 12.7847C4 12.7828 4 12.7809 4 12.7789C4 12.777 4 12.7751 4 12.7732C4 12.7713 4 12.7693 4 12.7674C4 12.7655 4 12.7635 4 12.7616C4 12.7597 4 12.7577 4 12.7558C4 12.7538 4 12.7519 4 12.7499C4 12.748 4 12.746 4 12.744C4 12.7421 4 12.7401 4 12.7382C4 12.7362 4 12.7342 4 12.7322C4 12.7303 4 12.7283 4 12.7263C4 12.7243 4 12.7223 4 12.7203C4 12.7183 4 12.7163 4 12.7143C4 12.7123 4 12.7103 4 12.7083C4 12.7063 4 12.7043 4 12.7023C4 12.7003 4 12.6983 4 12.6963C4 12.6942 4 12.6922 4 12.6902C4 12.6882 4 12.6861 4 12.6841C4 12.6821 4 12.68 4 12.678C4 12.6759 4 12.6739 4 12.6718C4 12.6698 4 12.6677 4 12.6657C4 12.6636 4 12.6615 4 12.6595C4 12.6574 4 12.6553 4 12.6533C4 12.6512 4 12.6491 4 12.647C4 12.645 4 12.6429 4 12.6408C4 12.6387 4 12.6366 4 12.6345C4 12.6324 4 12.6303 4 12.6282C4 12.6261 4 12.624 4 12.6219C4 12.6198 4 12.6177 4 12.6156C4 12.6134 4 12.6113 4 12.6092C4 12.6071 4 12.6049 4 12.6028C4 12.6007 4 12.5985 4 12.5964C4 12.5943 4 12.5921 4 12.59C4 12.5878 4 12.5857 4 12.5835C4 12.5814 4 12.5792 4 12.577C4 12.5749 4 12.5727 4 12.5706C4 12.5684 4 12.5662 4 12.564C4 12.5619 4 12.5597 4 12.5575C4 12.5553 4 12.5531 4 12.5509C4 12.5487 4 12.5465 4 12.5443C4 12.5421 4 12.5399 4 12.5377C4 12.5355 4 12.5333 4 12.5311C4 12.5289 4 12.5267 4 12.5245C4 12.5222 4 12.52 4 12.5178C4 12.5156 4 12.5133 4 12.5111C4 12.5088 4 12.5066 4 12.5044C4 12.5021 4 12.4999 4 12.4976C4 12.4954 4 12.4931 4 12.4909C4 12.4886 4 12.4863 4 12.4841C4 12.4818 4 12.4795 4 12.4773C4 12.475 4 12.4727 4 12.4704C4 12.4682 4 12.4659 4 12.4636C4 12.4613 4 12.459 4 12.4567C4 12.4544 4 12.4521 4 12.4498C4 12.4475 4 12.4452 4 12.4429C4 12.4406 4 12.4383 4 12.436C4 12.4337 4 12.4313 4 12.429C4 12.4267 4 12.4244 4 12.422C4 12.4197 4 12.4174 4 12.415C4 12.4127 4 12.4103 4 12.408C4 12.4056 4 12.4033 4 12.4009C4 12.3986 4 12.3962 4 12.3939C4 12.3915 4 12.3891 4 12.3868C4 12.3844 4 12.382 4 12.3797C4 12.3773 4 12.3749 4 12.3725C4 12.3701 4 12.3678 4 12.3654C4 12.363 4 12.3606 4 12.3582C4 12.3558 4 12.3534 4 12.351C4 12.3486 4 12.3462 4 12.3438C4 12.3413 4 12.3389 4 12.3365C4 12.3341 4 12.3317 4 12.3292C4 12.3268 4 12.3244 4 12.322C4 12.3195 4 12.3171 4 12.3146C4 12.3122 4 12.3098 4 12.3073C4 12.3049 4 12.3024 4 12.2999C4 12.2975 4 12.295 4 12.2926C4 12.2901 4 12.2876 4 12.2852C4 12.2827 4 12.2802 4 12.2777C4 12.2753 4 12.2728 4 12.2703C4 12.2678 4 12.2653 4 12.2628C4 12.2603 4 12.2578 4 12.2553C4 12.2528 4 12.2503 4 12.2478C4 12.2453 4 12.2428 4 12.2403C4 12.2378 4 12.2353 4 12.2327C4 12.2302 4 12.2277 4 12.2252C4 12.2226 4 12.2201 4 12.2176C4 12.215 4 12.2125 4 12.21C4 12.2074 4 12.2049 4 12.2023C4 12.1998 4 12.1972 4 12.1947C4 12.1921 4 12.1895 4 12.187C4 12.1844 4 12.1818 4 12.1793C4 12.1767 4 12.1741 4 12.1715C4 12.169 4 12.1664 4 12.1638C4 12.1612 4 12.1586 4 12.156C4 12.1534 4 12.1508 4 12.1482C4 12.1456 4 12.143 4 12.1404C4 12.1378 4 12.1352 4 12.1326C4 12.1299 4 12.1273 4 12.1247C4 12.1221 4 12.1194 4 12.1168C4 12.1142 4 12.1116 4 12.1089C4 12.1063 4 12.1036 4 12.101C4 12.0983 4 12.0957 4 12.093C4 12.0904 4 12.0877 4 12.0851C4 12.0824 4 12.0798 4 12.0771C4 12.0744 4 12.0717 4 12.0691C4 12.0664 4 12.0637 4 12.061C4 12.0584 4 12.0557 4 12.053C4 12.0503 4 12.0476 4 12.0449C4 12.0422 4 12.0395 4 12.0368C4 12.0341 4 12.0314 4 12.0287C4 12.026 4 12.0233 4 12.0205C4 12.0178 4 12.0151 4 12.0124C4 12.0097 4 12.0069 4 12.0042C4 12.0015 4 11.9987 4 11.996C4 11.9932 4 11.9905 4 11.9878C4 11.985 4 11.9823 4 11.9795C4 11.9768 4 11.974 4 11.9712C4 11.9685 4 11.9657 4 11.9629C4 11.9602 4 11.9574 4 11.9546C4 11.9518 4 11.9491 4 11.9463C4 11.9435 4 11.9407 4 11.9379C4 11.9351 4 11.9323 4 11.9295C4 11.9267 4 11.9239 4 11.9211C4 11.9183 4 11.9155 4 11.9127C4 11.9099 4 11.9071 4 11.9043C4 11.9015 4 11.8986 4 11.8958C4 11.893 4 11.8901 4 11.8873C4 11.8845 4 11.8816 4 11.8788C4 11.876 4 11.8731 4 11.8703C4 11.8674 4 11.8646 4 11.8617C4 11.8589 4 11.856 4 11.8531C4 11.8503 4 11.8474 4 11.8445C4 11.8417 4 11.8388 4 11.8359C4 11.8331 4 11.8302 4 11.8273C4 11.8244 4 11.8215 4 11.8186C4 11.8157 4 11.8128 4 11.8099C4 11.807 4 11.8041 4 11.8012C4 11.7983 4 11.7954 4 11.7925C4 11.7896 4 11.7867 4 11.7838C4 11.7808 4 11.7779 4 11.775C4 11.7721 4 11.7691 4 11.7662C4 11.7633 4 11.7603 4 11.7574C4 11.7545 4 11.7515 4 11.7486C4 11.7456 4 11.7427 4 11.7397C4 11.7367 4 11.7338 4 11.7308C4 11.7279 4 11.7249 4 11.7219C4 11.719 4 11.716 4 11.713C4 11.71 4 11.7071 4 11.7041C4 11.7011 4 11.6981 4 11.6951C4 11.6921 4 11.6891 4 11.6861C4 11.6831 4 11.6801 4 11.6771C4 11.6741 4 11.6711 4 11.6681C4 11.6651 4 11.6621 4 11.659C4 11.656 4 11.653 4 11.65C4 11.6469 4 11.6439 4 11.6409C4 11.6378 4 11.6348 4 11.6318C4 11.6287 4 11.6257 4 11.6226C4 11.6196 4 11.6165 4 11.6135C4 11.6104 4 11.6074 4 11.6043C4 11.6012 4 11.5982 4 11.5951C4 11.592 4 11.589 4 11.5859C4 11.5828 4 11.5797 4 11.5766C4 11.5736 4 11.5705 4 11.5674C4 11.5643 4 11.5612 4 11.5581C4 11.555 4 11.5519 4 11.5488C4 11.5457 4 11.5426 4 11.5395C4 11.5363 4 11.5332 4 11.5301C4 11.527 4 11.5239 4 11.5207C4 11.5176 4 11.5145 4 11.5113C4 11.5082 4 11.5051 4 11.5019C4 11.4988 4 11.4957 4 11.4925C4 11.4894 4 11.4862 4 11.483C4 11.4799 4 11.4767 4 11.4736C4 11.4704 4 11.4672 4 11.4641C4 11.4609 4 11.4577 4 11.4546C4 11.4514 4 11.4482 4 11.445C4 11.4418 4 11.4386 4 11.4355C4 11.4323 4 11.4291 4 11.4259C4 11.4227 4 11.4195 4 11.4163C4 11.4131 4 11.4099 4 11.4066C4 11.4034 4 11.4002 4 11.397C4 11.3938 4 11.3906 4 11.3873C4 11.3841 4 11.3809 4 11.3776C4 11.3744 4 11.3712 4 11.3679C4 11.3647 4 11.3614 4 11.3582C4 11.355 4 11.3517 4 11.3484C4 11.3452 4 11.3419 4 11.3387C4 11.3354 4 11.3321 4 11.3289C4 11.3256 4 11.3223 4 11.3191C4 11.3158 4 11.3125 4 11.3092C4 11.3059 4 11.3027 4 11.2994C4 11.2961 4 11.2928 4 11.2895C4 11.2862 4 11.2829 4 11.2796C4 11.2763 4 11.273 4 11.2697C4 11.2664 4 11.263 4 11.2597C4 11.2564 4 11.2531 4 11.2498C4 11.2464 4 11.2431 4 11.2398C4 11.2364 4 11.2331 4 11.2298C4 11.2264 4 11.2231 4 11.2197C4 11.2164 4 11.213 4 11.2097C4 11.2063 4 11.203 4 11.1996C4 11.1963 4 11.1929 4 11.1895C4 11.1862 4 11.1828 4 11.1794C4 11.176 4 11.1727 4 11.1693C4 11.1659 4 11.1625 4 11.1591C4 11.1557 4 11.1523 4 11.1489C4 11.1455 4 11.1422 4 11.1387C4 11.1353 4 11.1319 4 11.1285C4 11.1251 4 11.1217 4 11.1183C4 11.1149 4 11.1115 4 11.108C4 11.1046 4 11.1012 4 11.0977C4 11.0943 4 11.0909 4 11.0874C4 11.084 4 11.0806 4 11.0771C4 11.0737 4 11.0702 4 11.0668C4 11.0633 4 11.0599 4 11.0564C4 11.053 4 11.0495 4 11.046C4 11.0426 4 11.0391 4 11.0356C4 11.0321 4 11.0287 4 11.0252C4 11.0217 4 11.0182 4 11.0147C4 11.0113 4 11.0078 4 11.0043C4 11.0008 4 10.9973 4 10.9938C4 10.9903 4 10.9868 4 10.9833C4 10.9798 4 10.9762 4 10.9727C4 10.9692 4 10.9657 4 10.9622C4 10.9587 4 10.9551 4 10.9516C4 10.9481 4 10.9445 4 10.941C4 10.9375 4 10.9339 4 10.9304C4 10.9268 4 10.9233 4 10.9197C4 10.9162 4 10.9126 4 10.9091C4 10.9055 4 10.902 4 10.8984C4 10.8948 4 10.8913 4 10.8877C4 10.8841 4 10.8806 4 10.877C4 10.8734 4 10.8698 4 10.8662C4 10.8627 4 10.8591 4 10.8555C4 10.8519 4 10.8483 4 10.8447C4 10.8411 4 10.8375 4 10.8339C4 10.8303 4 10.8267 4 10.8231C4 10.8194 4 10.8158 4 10.8122C4 10.8086 4 10.805 4 10.8013C4 10.7977 4 10.7941 4 10.7904C4 10.7868 4 10.7832 4 10.7795C4 10.7759 4 10.7723 4 10.7686C4 10.765 4 10.7613 4 10.7577C4 10.754 4 10.7503 4 10.7467C4 10.743 4 10.7394 4 10.7357C4 10.732 4 10.7283 4 10.7247C4 10.721 4 10.7173 4 10.7136C4 10.71 4 10.7063 4 10.7026C4 10.6989 4 10.6952 4 10.6915C4 10.6878 4 10.6841 4 10.6804C4 10.6767 4 10.673 4 10.6693C4 10.6656 4 10.6619 4 10.6581C4 10.6544 4 10.6507 4 10.647C4 10.6433 4 10.6395 4 10.6358C4 10.6321 4 10.6283 4 10.6246C4 10.6209 4 10.6171 4 10.6134C4 10.6096 4 10.6059 4 10.6021C4 10.5984 4 10.5946 4 10.5909C4 10.5871 4 10.5833 4 10.5796C4 10.5758 4 10.572 4 10.5683C4 10.5645 4 10.5607 4 10.5569C4 10.5532 4 10.5494 4 10.5456C4 10.5418 4 10.538 4 10.5342C4 10.5304 4 10.5266 4 10.5228C4 10.519 4 10.5152 4 10.5114C4 10.5076 4 10.5038 4 10.5H3C3 10.5038 3 10.5076 3 10.5114C3 10.5152 3 10.519 3 10.5228C3 10.5266 3 10.5304 3 10.5342C3 10.538 3 10.5418 3 10.5456C3 10.5494 3 10.5532 3 10.5569C3 10.5607 3 10.5645 3 10.5683C3 10.572 3 10.5758 3 10.5796C3 10.5833 3 10.5871 3 10.5909C3 10.5946 3 10.5984 3 10.6021C3 10.6059 3 10.6096 3 10.6134C3 10.6171 3 10.6209 3 10.6246C3 10.6283 3 10.6321 3 10.6358C3 10.6395 3 10.6433 3 10.647C3 10.6507 3 10.6544 3 10.6581C3 10.6619 3 10.6656 3 10.6693C3 10.673 3 10.6767 3 10.6804C3 10.6841 3 10.6878 3 10.6915C3 10.6952 3 10.6989 3 10.7026C3 10.7063 3 10.71 3 10.7136C3 10.7173 3 10.721 3 10.7247C3 10.7283 3 10.732 3 10.7357C3 10.7394 3 10.743 3 10.7467C3 10.7503 3 10.754 3 10.7577C3 10.7613 3 10.765 3 10.7686C3 10.7723 3 10.7759 3 10.7795C3 10.7832 3 10.7868 3 10.7904C3 10.7941 3 10.7977 3 10.8013C3 10.805 3 10.8086 3 10.8122C3 10.8158 3 10.8194 3 10.8231C3 10.8267 3 10.8303 3 10.8339C3 10.8375 3 10.8411 3 10.8447C3 10.8483 3 10.8519 3 10.8555C3 10.8591 3 10.8627 3 10.8662C3 10.8698 3 10.8734 3 10.877C3 10.8806 3 10.8841 3 10.8877C3 10.8913 3 10.8948 3 10.8984C3 10.902 3 10.9055 3 10.9091C3 10.9126 3 10.9162 3 10.9197C3 10.9233 3 10.9268 3 10.9304C3 10.9339 3 10.9375 3 10.941C3 10.9445 3 10.9481 3 10.9516C3 10.9551 3 10.9587 3 10.9622C3 10.9657 3 10.9692 3 10.9727C3 10.9762 3 10.9798 3 10.9833C3 10.9868 3 10.9903 3 10.9938C3 10.9973 3 11.0008 3 11.0043C3 11.0078 3 11.0113 3 11.0147C3 11.0182 3 11.0217 3 11.0252C3 11.0287 3 11.0321 3 11.0356C3 11.0391 3 11.0426 3 11.046C3 11.0495 3 11.053 3 11.0564C3 11.0599 3 11.0633 3 11.0668C3 11.0702 3 11.0737 3 11.0771C3 11.0806 3 11.084 3 11.0874C3 11.0909 3 11.0943 3 11.0977C3 11.1012 3 11.1046 3 11.108C3 11.1115 3 11.1149 3 11.1183C3 11.1217 3 11.1251 3 11.1285C3 11.1319 3 11.1353 3 11.1387C3 11.1422 3 11.1455 3 11.1489C3 11.1523 3 11.1557 3 11.1591C3 11.1625 3 11.1659 3 11.1693C3 11.1727 3 11.176 3 11.1794C3 11.1828 3 11.1862 3 11.1895C3 11.1929 3 11.1963 3 11.1996C3 11.203 3 11.2063 3 11.2097C3 11.213 3 11.2164 3 11.2197C3 11.2231 3 11.2264 3 11.2298C3 11.2331 3 11.2364 3 11.2398C3 11.2431 3 11.2464 3 11.2498C3 11.2531 3 11.2564 3 11.2597C3 11.263 3 11.2664 3 11.2697C3 11.273 3 11.2763 3 11.2796C3 11.2829 3 11.2862 3 11.2895C3 11.2928 3 11.2961 3 11.2994C3 11.3027 3 11.3059 3 11.3092C3 11.3125 3 11.3158 3 11.3191C3 11.3223 3 11.3256 3 11.3289C3 11.3321 3 11.3354 3 11.3387C3 11.3419 3 11.3452 3 11.3484C3 11.3517 3 11.355 3 11.3582C3 11.3614 3 11.3647 3 11.3679C3 11.3712 3 11.3744 3 11.3776C3 11.3809 3 11.3841 3 11.3873C3 11.3906 3 11.3938 3 11.397C3 11.4002 3 11.4034 3 11.4066C3 11.4099 3 11.4131 3 11.4163C3 11.4195 3 11.4227 3 11.4259C3 11.4291 3 11.4323 3 11.4355C3 11.4386 3 11.4418 3 11.445C3 11.4482 3 11.4514 3 11.4546C3 11.4577 3 11.4609 3 11.4641C3 11.4672 3 11.4704 3 11.4736C3 11.4767 3 11.4799 3 11.483C3 11.4862 3 11.4894 3 11.4925C3 11.4957 3 11.4988 3 11.5019C3 11.5051 3 11.5082 3 11.5113C3 11.5145 3 11.5176 3 11.5207C3 11.5239 3 11.527 3 11.5301C3 11.5332 3 11.5363 3 11.5395C3 11.5426 3 11.5457 3 11.5488C3 11.5519 3 11.555 3 11.5581C3 11.5612 3 11.5643 3 11.5674C3 11.5705 3 11.5736 3 11.5766C3 11.5797 3 11.5828 3 11.5859C3 11.589 3 11.592 3 11.5951C3 11.5982 3 11.6012 3 11.6043C3 11.6074 3 11.6104 3 11.6135C3 11.6165 3 11.6196 3 11.6226C3 11.6257 3 11.6287 3 11.6318C3 11.6348 3 11.6378 3 11.6409C3 11.6439 3 11.6469 3 11.65C3 11.653 3 11.656 3 11.659C3 11.6621 3 11.6651 3 11.6681C3 11.6711 3 11.6741 3 11.6771C3 11.6801 3 11.6831 3 11.6861C3 11.6891 3 11.6921 3 11.6951C3 11.6981 3 11.7011 3 11.7041C3 11.7071 3 11.71 3 11.713C3 11.716 3 11.719 3 11.7219C3 11.7249 3 11.7279 3 11.7308C3 11.7338 3 11.7367 3 11.7397C3 11.7427 3 11.7456 3 11.7486C3 11.7515 3 11.7545 3 11.7574C3 11.7603 3 11.7633 3 11.7662C3 11.7691 3 11.7721 3 11.775C3 11.7779 3 11.7808 3 11.7838C3 11.7867 3 11.7896 3 11.7925C3 11.7954 3 11.7983 3 11.8012C3 11.8041 3 11.807 3 11.8099C3 11.8128 3 11.8157 3 11.8186C3 11.8215 3 11.8244 3 11.8273C3 11.8302 3 11.8331 3 11.8359C3 11.8388 3 11.8417 3 11.8445C3 11.8474 3 11.8503 3 11.8531C3 11.856 3 11.8589 3 11.8617C3 11.8646 3 11.8674 3 11.8703C3 11.8731 3 11.876 3 11.8788C3 11.8816 3 11.8845 3 11.8873C3 11.8901 3 11.893 3 11.8958C3 11.8986 3 11.9015 3 11.9043C3 11.9071 3 11.9099 3 11.9127C3 11.9155 3 11.9183 3 11.9211C3 11.9239 3 11.9267 3 11.9295C3 11.9323 3 11.9351 3 11.9379C3 11.9407 3 11.9435 3 11.9463C3 11.9491 3 11.9518 3 11.9546C3 11.9574 3 11.9602 3 11.9629C3 11.9657 3 11.9685 3 11.9712C3 11.974 3 11.9768 3 11.9795C3 11.9823 3 11.985 3 11.9878C3 11.9905 3 11.9932 3 11.996C3 11.9987 3 12.0015 3 12.0042C3 12.0069 3 12.0097 3 12.0124C3 12.0151 3 12.0178 3 12.0205C3 12.0233 3 12.026 3 12.0287C3 12.0314 3 12.0341 3 12.0368C3 12.0395 3 12.0422 3 12.0449C3 12.0476 3 12.0503 3 12.053C3 12.0557 3 12.0584 3 12.061C3 12.0637 3 12.0664 3 12.0691C3 12.0717 3 12.0744 3 12.0771C3 12.0798 3 12.0824 3 12.0851C3 12.0877 3 12.0904 3 12.093C3 12.0957 3 12.0983 3 12.101C3 12.1036 3 12.1063 3 12.1089C3 12.1116 3 12.1142 3 12.1168C3 12.1194 3 12.1221 3 12.1247C3 12.1273 3 12.1299 3 12.1326C3 12.1352 3 12.1378 3 12.1404C3 12.143 3 12.1456 3 12.1482C3 12.1508 3 12.1534 3 12.156C3 12.1586 3 12.1612 3 12.1638C3 12.1664 3 12.169 3 12.1715C3 12.1741 3 12.1767 3 12.1793C3 12.1818 3 12.1844 3 12.187C3 12.1895 3 12.1921 3 12.1947C3 12.1972 3 12.1998 3 12.2023C3 12.2049 3 12.2074 3 12.21C3 12.2125 3 12.215 3 12.2176C3 12.2201 3 12.2226 3 12.2252C3 12.2277 3 12.2302 3 12.2327C3 12.2353 3 12.2378 3 12.2403C3 12.2428 3 12.2453 3 12.2478C3 12.2503 3 12.2528 3 12.2553C3 12.2578 3 12.2603 3 12.2628C3 12.2653 3 12.2678 3 12.2703C3 12.2728 3 12.2753 3 12.2777C3 12.2802 3 12.2827 3 12.2852C3 12.2876 3 12.2901 3 12.2926C3 12.295 3 12.2975 3 12.2999C3 12.3024 3 12.3049 3 12.3073C3 12.3098 3 12.3122 3 12.3146C3 12.3171 3 12.3195 3 12.322C3 12.3244 3 12.3268 3 12.3292C3 12.3317 3 12.3341 3 12.3365C3 12.3389 3 12.3413 3 12.3438C3 12.3462 3 12.3486 3 12.351C3 12.3534 3 12.3558 3 12.3582C3 12.3606 3 12.363 3 12.3654C3 12.3678 3 12.3701 3 12.3725C3 12.3749 3 12.3773 3 12.3797C3 12.382 3 12.3844 3 12.3868C3 12.3891 3 12.3915 3 12.3939C3 12.3962 3 12.3986 3 12.4009C3 12.4033 3 12.4056 3 12.408C3 12.4103 3 12.4127 3 12.415C3 12.4174 3 12.4197 3 12.422C3 12.4244 3 12.4267 3 12.429C3 12.4313 3 12.4337 3 12.436C3 12.4383 3 12.4406 3 12.4429C3 12.4452 3 12.4475 3 12.4498C3 12.4521 3 12.4544 3 12.4567C3 12.459 3 12.4613 3 12.4636C3 12.4659 3 12.4682 3 12.4704C3 12.4727 3 12.475 3 12.4773C3 12.4795 3 12.4818 3 12.4841C3 12.4863 3 12.4886 3 12.4909C3 12.4931 3 12.4954 3 12.4976C3 12.4999 3 12.5021 3 12.5044C3 12.5066 3 12.5088 3 12.5111C3 12.5133 3 12.5156 3 12.5178C3 12.52 3 12.5222 3 12.5245C3 12.5267 3 12.5289 3 12.5311C3 12.5333 3 12.5355 3 12.5377C3 12.5399 3 12.5421 3 12.5443C3 12.5465 3 12.5487 3 12.5509C3 12.5531 3 12.5553 3 12.5575C3 12.5597 3 12.5619 3 12.564C3 12.5662 3 12.5684 3 12.5706C3 12.5727 3 12.5749 3 12.577C3 12.5792 3 12.5814 3 12.5835C3 12.5857 3 12.5878 3 12.59C3 12.5921 3 12.5943 3 12.5964C3 12.5985 3 12.6007 3 12.6028C3 12.6049 3 12.6071 3 12.6092C3 12.6113 3 12.6134 3 12.6156C3 12.6177 3 12.6198 3 12.6219C3 12.624 3 12.6261 3 12.6282C3 12.6303 3 12.6324 3 12.6345C3 12.6366 3 12.6387 3 12.6408C3 12.6429 3 12.645 3 12.647C3 12.6491 3 12.6512 3 12.6533C3 12.6553 3 12.6574 3 12.6595C3 12.6615 3 12.6636 3 12.6657C3 12.6677 3 12.6698 3 12.6718C3 12.6739 3 12.6759 3 12.678C3 12.68 3 12.6821 3 12.6841C3 12.6861 3 12.6882 3 12.6902C3 12.6922 3 12.6942 3 12.6963C3 12.6983 3 12.7003 3 12.7023C3 12.7043 3 12.7063 3 12.7083C3 12.7103 3 12.7123 3 12.7143C3 12.7163 3 12.7183 3 12.7203C3 12.7223 3 12.7243 3 12.7263C3 12.7283 3 12.7303 3 12.7322C3 12.7342 3 12.7362 3 12.7382C3 12.7401 3 12.7421 3 12.744C3 12.746 3 12.748 3 12.7499C3 12.7519 3 12.7538 3 12.7558C3 12.7577 3 12.7597 3 12.7616C3 12.7635 3 12.7655 3 12.7674C3 12.7693 3 12.7713 3 12.7732C3 12.7751 3 12.777 3 12.7789C3 12.7809 3 12.7828 3 12.7847C3 12.7866 3 12.7885 3 12.7904C3 12.7923 3 12.7942 3 12.7961C3 12.798 3 12.7999 3 12.8018C3 12.8037 3 12.8055 3 12.8074C3 12.8093 3 12.8112 3 12.813C3 12.8149 3 12.8168 3 12.8186C3 12.8205 3 12.8224 3 12.8242C3 12.8261 3 12.8279 3 12.8298C3 12.8316 3 12.8335 3 12.8353C3 12.8372 3 12.839 3 12.8408C3 12.8427 3 12.8445 3 12.8463C3 12.8482 3 12.85 3 12.8518C3 12.8536 3 12.8554 3 12.8572C3 12.8591 3 12.8609 3 12.8627C3 12.8645 3 12.8663 3 12.8681C3 12.8699 3 12.8717 3 12.8735C3 12.8752 3 12.877 3 12.8788C3 12.8806 3 12.8824 3 12.8841C3 12.8859 3 12.8877 3 12.8895C3 12.8912 3 12.893 3 12.8947C3 12.8965 3 12.8983 3 12.9C3 12.9018 3 12.9035 3 12.9053C3 12.907 3 12.9087 3 12.9105C3 12.9122 3 12.9139 3 12.9157C3 12.9174 3 12.9191 3 12.9209C3 12.9226 3 12.9243 3 12.926C3 12.9277 3 12.9294 3 12.9311C3 12.9328 3 12.9345 3 12.9362C3 12.9379 3 12.9396 3 12.9413C3 12.943 3 12.9447 3 12.9464C3 12.9481 3 12.9498 3 12.9514C3 12.9531 3 12.9548 3 12.9565C3 12.9581 3 12.9598 3 12.9615C3 12.9631 3 12.9648 3 12.9664C3 12.9681 3 12.9697 3 12.9714C3 12.973 3 12.9747 3 12.9763C3 12.9779 3 12.9796 3 12.9812C3 12.9828 3 12.9845 3 12.9861C3 12.9877 3 12.9893 3 12.991C3 12.9926 3 12.9942 3 12.9958C3 12.9974 3 12.999 3 13.0006C3 13.0022 3 13.0038 3 13.0054C3 13.007 3 13.0086 3 13.0102C3 13.0118 3 13.0133 3 13.0149C3 13.0165 3 13.0181 3 13.0196C3 13.0212 3 13.0228 3 13.0243C3 13.0259 3 13.0275 3 13.029C3 13.0306 3 13.0321 3 13.0337C3 13.0352 3 13.0368 3 13.0383C3 13.0399 3 13.0414 3 13.0429C3 13.0445 3 13.046 3 13.0475C3 13.049 3 13.0506 3 13.0521C3 13.0536 3 13.0551 3 13.0566C3 13.0581 3 13.0596 3 13.0611C3 13.0626 3 13.0641 3 13.0656C3 13.0671 3 13.0686 3 13.0701C3 13.0716 3 13.0731 3 13.0746C3 13.076 3 13.0775 3 13.079C3 13.0805 3 13.0819 3 13.0834C3 13.0849 3 13.0863 3 13.0878C3 13.0892 3 13.0907 3 13.0921C3 13.0936 3 13.095 3 13.0965C3 13.0979 3 13.0994 3 13.1008C3 13.1022 3 13.1037 3 13.1051C3 13.1065 3 13.1079 3 13.1094C3 13.1108 3 13.1122 3 13.1136C3 13.115 3 13.1164 3 13.1178C3 13.1192 3 13.1206 3 13.122C3 13.1234 3 13.1248 3 13.1262C3 13.1276 3 13.129 3 13.1304C3 13.1317 3 13.1331 3 13.1345C3 13.1359 3 13.1372 3 13.1386C3 13.14 3 13.1413 3 13.1427C3 13.144 3 13.1454 3 13.1467C3 13.1481 3 13.1494 3 13.1508C3 13.1521 3 13.1535 3 13.1548C3 13.1561 3 13.1575 3 13.1588C3 13.1601 3 13.1615 3 13.1628C3 13.1641 3 13.1654 3 13.1667C3 13.168 3 13.1693 3 13.1706C3 13.172 3 13.1733 3 13.1745C3 13.1758 3 13.1771 3 13.1784C3 13.1797 3 13.181 3 13.1823C3 13.1836 3 13.1848 3 13.1861C3 13.1874 3 13.1887 3 13.1899C3 13.1912 3 13.1925 3 13.1937C3 13.195 3 13.1962 3 13.1975C3 13.1987 3 13.2 3 13.2012C3 13.2025 3 13.2037 3 13.205C3 13.2062 3 13.2074 3 13.2086C3 13.2099 3 13.2111 3 13.2123C3 13.2135 3 13.2148 3 13.216C3 13.2172 3 13.2184 3 13.2196C3 13.2208 3 13.222 3 13.2232C3 13.2244 3 13.2256 3 13.2268C3 13.228 3 13.2292 3 13.2303C3 13.2315 3 13.2327 3 13.2339C3 13.2351 3 13.2362 3 13.2374C3 13.2386 3 13.2397 3 13.2409C3 13.242 3 13.2432 3 13.2444C3 13.2455 3 13.2467 3 13.2478C3 13.2489 3 13.2501 3 13.2512C3 13.2524 3 13.2535 3 13.2546C3 13.2557 3 13.2569 3 13.258C3 13.2591 3 13.2602 3 13.2613C3 13.2625 3 13.2636 3 13.2647C3 13.2658 3 13.2669 3 13.268C3 13.2691 3 13.2702 3 13.2713C3 13.2723 3 13.2734 3 13.2745C3 13.2756 3 13.2767 3 13.2778C3 13.2788 3 13.2799 3 13.281C3 13.282 3 13.2831 3 13.2842C3 13.2852 3 13.2863 3 13.2873C3 13.2884 3 13.2894 3 13.2905C3 13.2915 3 13.2926 3 13.2936C3 13.2946 3 13.2957 3 13.2967C3 13.2977 3 13.2987 3 13.2998C3 13.3008 3 13.3018 3 13.3028C3 13.3038 3 13.3048 3 13.3058C3 13.3068 3 13.3078 3 13.3088C3 13.3098 3 13.3108 3 13.3118C3 13.3128 3 13.3138 3 13.3148C3 13.3158 3 13.3167 3 13.3177C3 13.3187 3 13.3197 3 13.3206C3 13.3216 3 13.3226 3 13.3235C3 13.3245 3 13.3254 3 13.3264C3 13.3273 3 13.3283 3 13.3292C3 13.3302 3 13.3311 3 13.332C3 13.333 3 13.3339 3 13.3348C3 13.3358 3 13.3367 3 13.3376C3 13.3385 3 13.3395 3 13.3404C3 13.3413 3 13.3422 3 13.3431C3 13.344 3 13.3449 3 13.3458C3 13.3467 3 13.3476 3 13.3485C3 13.3494 3 13.3503 3 13.3511C3 13.352 3 13.3529 3 13.3538C3 13.3546 3 13.3555 3 13.3564C3 13.3572 3 13.3581 3 13.359C3 13.3598 3 13.3607 3 13.3615C3 13.3624 3 13.3632 3 13.3641C3 13.3649 3 13.3657 3 13.3666C3 13.3674 3 13.3682 3 13.3691C3 13.3699 3 13.3707 3 13.3715C3 13.3724 3 13.3732 3 13.374C3 13.3748 3 13.3756 3 13.3764C3 13.3772 3 13.378 3 13.3788C3 13.3796 3 13.3804 3 13.3812C3 13.382 3 13.3828 3 13.3835C3 13.3843 3 13.3851 3 13.3859C3 13.3867 3 13.3874 3 13.3882C3 13.389 3 13.3897 3 13.3905C3 13.3912 3 13.392 3 13.3927C3 13.3935 3 13.3942 3 13.395C3 13.3957 3 13.3964 3 13.3972C3 13.3979 3 13.3986 3 13.3994C3 13.4001 3 13.4008 3 13.4015C3 13.4023 3 13.403 3 13.4037C3 13.4044 3 13.4051 3 13.4058C3 13.4065 3 13.4072 3 13.4079C3 13.4086 3 13.4093 3 13.41C3 13.4107 3 13.4113 3 13.412C3 13.4127 3 13.4134 3 13.414C3 13.4147 3 13.4154 3 13.4161C3 13.4167 3 13.4174 3 13.418C3 13.4187 3 13.4193 3 13.42C3 13.4206 3 13.4213 3 13.4219C3 13.4226 3 13.4232 3 13.4238C3 13.4245 3 13.4251 3 13.4257C3 13.4263 3 13.427 3 13.4276C3 13.4282 3 13.4288 3 13.4294C3 13.43 3 13.4306 3 13.4312C3 13.4318 3 13.4324 3 13.433C3 13.4336 3 13.4342 3 13.4348C3 13.4354 3 13.436 3 13.4365C3 13.4371 3 13.4377 3 13.4383C3 13.4388 3 13.4394 3 13.44C3 13.4405 3 13.4411 3 13.4416C3 13.4422 3 13.4427 3 13.4433C3 13.4438 3 13.4444 3 13.4449C3 13.4454 3 13.446 3 13.4465C3 13.447 3 13.4476 3 13.4481C3 13.4486 3 13.4491 3 13.4496C3 13.4502 3 13.4507 3 13.4512C3 13.4517 3 13.4522 3 13.4527C3 13.4532 3 13.4537 3 13.4542C3 13.4547 3 13.4552 3 13.4556C3 13.4561 3 13.4566 3 13.4571C3 13.4576 3 13.458 3 13.4585C3 13.459 3 13.4594 3 13.4599C3 13.4603 3 13.4608 3 13.4613C3 13.4617 3 13.4622 3 13.4626C3 13.463 3 13.4635 3 13.4639C3 13.4644 3 13.4648 3 13.4652C3 13.4656 3 13.4661 3 13.4665C3 13.4669 3 13.4673 3 13.4677C3 13.4682 3 13.4686 3 13.469C3 13.4694 3 13.4698 3 13.4702C3 13.4706 3 13.471 3 13.4713C3 13.4717 3 13.4721 3 13.4725C3 13.4729 3 13.4733 3 13.4736C3 13.474 3 13.4744 3 13.4747C3 13.4751 3 13.4755 3 13.4758C3 13.4762 3 13.4765 3 13.4769C3 13.4772 3 13.4776 3 13.4779C3 13.4783 3 13.4786 3 13.4789C3 13.4793 3 13.4796 3 13.4799C3 13.4802 3 13.4806 3 13.4809C3 13.4812 3 13.4815 3 13.4818C3 13.4821 3 13.4824 3 13.4827C3 13.4831 3 13.4834 3 13.4836C3 13.4839 3 13.4842 3 13.4845C3 13.4848 3 13.4851 3 13.4854C3 13.4856 3 13.4859 3 13.4862C3 13.4865 3 13.4867 3 13.487C3 13.4872 3 13.4875 3 13.4878C3 13.488 3 13.4883 3 13.4885C3 13.4888 3 13.489 3 13.4892C3 13.4895 3 13.4897 3 13.4899C3 13.4902 3 13.4904 3 13.4906C3 13.4908 3 13.4911 3 13.4913C3 13.4915 3 13.4917 3 13.4919C3 13.4921 3 13.4923 3 13.4925C3 13.4927 3 13.4929 3 13.4931C3 13.4933 3 13.4935 3 13.4937C3 13.4939 3 13.494 3 13.4942C3 13.4944 3 13.4946 3 13.4947C3 13.4949 3 13.4951 3 13.4952C3 13.4954 3 13.4955 3 13.4957C3 13.4958 3 13.496 3 13.4961C3 13.4963 3 13.4964 3 13.4965C3 13.4967 3 13.4968 3 13.4969C3 13.4971 3 13.4972 3 13.4973C3 13.4974 3 13.4975 3 13.4977C3 13.4978 3 13.4979 3 13.498C3 13.4981 3 13.4982 3 13.4983C3 13.4984 3 13.4985 3 13.4986C3 13.4986 3 13.4987 3 13.4988C3 13.4989 3 13.499 3 13.499C3 13.4991 3 13.4992 3 13.4992C3 13.4993 3 13.4994 3 13.4994C3 13.4995 3 13.4995 3 13.4996C3 13.4996 3 13.4997 3 13.4997C3 13.4997 3 13.4998 3 13.4998C3 13.4998 3 13.4999 3 13.4999C3 13.4999 3 13.4999 3 13.5C3 13.5 3 13.5 3 13.5C3 13.5 3 13.5 3.5 13.5Z" fill="var(--mw-icon-glyph-content-gray, #616162)"/>
<path d="M14.5 13.5H12.5V10.5" stroke="var(--mw-icon-glyph-content-gray, #616162)" stroke-linecap="square"/>
<path d="M0.5 14.5C0.5 15.0523 0.947715 15.5 1.5 15.5H14.5C15.0523 15.5 15.5 15.0523 15.5 14.5V1.5C15.5 0.947716 15.0523 0.5 14.5 0.5H1.5C0.947715 0.5 0.5 0.947716 0.5 1.5V14.5Z" stroke="var(--mw-icon-border-default-gray, #616161)"/>
</svg>
