<svg width="16" height="16" viewBox="0 0 16 16" fill="none" xmlns="http://www.w3.org/2000/svg">
<path d="M0.5 12.5V2.5C0.5 1.39543 1.39543 0.5 2.5 0.5H12.5C13.6046 0.5 14.5 1.39543 14.5 2.5V12.5C14.5 13.6046 13.6046 14.5 12.5 14.5H2.5C1.39543 14.5 0.5 13.6046 0.5 12.5Z" fill="#00A3A3"/>
<path d="M11.5 6.5V2.5H3.5V6.5H11.5Z" fill="var(--mw-icon-background-default-highlight, #FFE864)" stroke="var(--mw-icon-border-default-yellow, #674C06)" stroke-linecap="square" stroke-linejoin="round"/>
<path d="M7.5 7.5V8.5H10.5V9.5" stroke="#02555C" stroke-linecap="square" stroke-linejoin="round"/>
<path d="M7.5 8.5H4.5V9.5" stroke="#02555C" stroke-linecap="square" stroke-linejoin="round"/>
<path d="M12.5 12.5V10.5H8.5V12.5H12.5Z" fill="var(--mw-icon-background-default-highlight, #FFE864)" stroke="var(--mw-icon-border-default-yellow, #674C06)" stroke-linecap="square" stroke-linejoin="round"/>
<path d="M6.5 12.5V10.5H2.5V12.5H6.5Z" fill="var(--mw-icon-background-default-highlight, #FFE864)" stroke="var(--mw-icon-border-default-yellow, #674C06)" stroke-linecap="square" stroke-linejoin="round"/>
<path d="M3.5 4.5C4.03333 3.83333 4.56667 3.83333 5.1 4.5C5.63333 5.16667 6.16667 5.16667 6.7 4.5C7.23333 3.83333 7.76667 3.83333 8.3 4.5C8.83333 5.16667 9.36667 5.16667 9.9 4.5C10.4333 3.83333 10.9667 3.83333 11.5 4.5" stroke="var(--mw-icon-glyph-content-dark-gray, #333333)"/>
<path d="M11.5 6.5V2.5H3.5V6.5H11.5Z" stroke="var(--mw-icon-border-default-yellow, #674C06)" stroke-linecap="square" stroke-linejoin="round"/>
<path d="M0.5 12.5V2.5C0.5 1.39543 1.39543 0.5 2.5 0.5H12.5C13.6046 0.5 14.5 1.39543 14.5 2.5V12.5C14.5 13.6046 13.6046 14.5 12.5 14.5H2.5C1.39543 14.5 0.5 13.6046 0.5 12.5Z" stroke="#02555C" stroke-linecap="round"/>

</svg>
