<svg width="16" height="16" viewBox="0 0 16 16" fill="none" xmlns="http://www.w3.org/2000/svg">
<path d="M0.5 12.5V2.5C0.5 1.39543 1.39543 0.5 2.5 0.5H12.5C13.6046 0.5 14.5 1.39543 14.5 2.5V12.5C14.5 13.6046 13.6046 14.5 12.5 14.5H2.5C1.39543 14.5 0.5 13.6046 0.5 12.5Z" fill="var(--mw-icon-background-default-action, #CBFFBE)"/>
<path d="M0.5 12.5V2.5C0.5 1.39543 1.39543 0.5 2.5 0.5H12.5C13.6046 0.5 14.5 1.39543 14.5 2.5V12.5C14.5 13.6046 13.6046 14.5 12.5 14.5H2.5C1.39543 14.5 0.5 13.6046 0.5 12.5Z" stroke="var(--mw-icon-border-default-green, #008013)" stroke-linecap="round"/>
<rect x="2" y="7" width="3" height="5" fill="var(--mw-icon-glyph-content-gray, #616162)"/>
<rect x="10" y="5" width="3" height="7" fill="var(--mw-icon-glyph-content-gray, #616162)"/>
<rect x="6" y="3" width="3" height="9" fill="var(--mw-icon-glyph-content-gray, #616162)"/>
</svg>
