<svg width="16" height="16" viewBox="0 0 16 16" fill="none" xmlns="http://www.w3.org/2000/svg">
<rect x="0.5" y="0.5" width="14" height="14" rx="1" fill="var(--mw-icon-background-default-white, #FFFFFF)"/>
<path d="M1.5 7.5H3.5" stroke="var(--mw-icon-background-default-dark-gray, #A6A6A6)" stroke-linecap="round" stroke-linejoin="round"/>
<path d="M5.5 7.5H7.5" stroke="var(--mw-icon-background-default-dark-gray, #A6A6A6)" stroke-linecap="round" stroke-linejoin="round"/>
<path d="M9.5 7.5H11.5" stroke="var(--mw-icon-background-default-dark-gray, #A6A6A6)" stroke-linecap="round" stroke-linejoin="round"/>
<path d="M13.5 7.5H14.5" stroke="var(--mw-icon-background-default-dark-gray, #A6A6A6)" stroke-linecap="round" stroke-linejoin="round"/>
<rect x="0.5" y="0.5" width="14" height="14" rx="1" stroke="var(--mw-icon-border-default-gray, #616161)"/>
<path d="M3.5 2.5L4.5 3.5M4.5 3.5L5.5 4.5M4.5 3.5L5.5 2.5M4.5 3.5L3.5 4.5" stroke="#1171BE" stroke-linecap="round"/>
<path d="M3.5 10.5L4.5 11.5M4.5 11.5L5.5 12.5M4.5 11.5L5.5 10.5M4.5 11.5L3.5 12.5" stroke="#1171BE" stroke-linecap="round"/>
<path d="M14 7.5C14 11.0899 14 9.9375 14 14C10.134 14 7 11.0899 7 7.5C7 3.91015 10.134 1 14 1C14 1 14 3.91015 14 7.5Z" fill="var(--mw-icon-background-medium-yellow, #FFEF91)"/>
<path d="M14 13.5H13.5C10.1863 13.5 7.5 10.8137 7.5 7.5C7.5 4.18629 10.1863 1.5 13.5 1.5H14" stroke="#EDB120"/>
<path d="M11.5 6.5L12.5 7.5M12.5 7.5L13.5 8.5M12.5 7.5L13.5 6.5M12.5 7.5L11.5 8.5" stroke="#1171BE" stroke-linecap="round"/>
<path d="M9.5 3.5L10.5 4.5M10.5 4.5L11.5 5.5M10.5 4.5L11.5 3.5M10.5 4.5L9.5 5.5" stroke="#1171BE" stroke-linecap="round"/>
<path d="M9.5 9.5L10.5 10.5M10.5 10.5L11.5 11.5M10.5 10.5L11.5 9.5M10.5 10.5L9.5 11.5" stroke="#1171BE" stroke-linecap="round"/>
</svg>
