<svg width="16" height="16" viewBox="0 0 16 16" fill="none" xmlns="http://www.w3.org/2000/svg">
<path d="M7.5 10.5V11.5M7.5 11.5H3.5V12.5M7.5 11.5L11.5 11.5V12.5" stroke="var(--mw-icon-object-primary, #616160)" stroke-linecap="square" stroke-linejoin="round"/>
<path d="M0.5 15.5V13.5H6.5V15.5H0.5Z" fill="var(--mw-icon-background-medium-blue, #83CAFF)"/>
<path d="M8.5 15.5V13.5H14.5V15.5H8.5Z" fill="var(--mw-icon-background-medium-blue, #83CAFF)"/>
<path d="M0.5 15.5V13.5H6.5V15.5H0.5Z" stroke="var(--mw-icon-border-default-blue, #1656A7)" stroke-linecap="square" stroke-linejoin="round"/>
<path d="M8.5 15.5V13.5H14.5V15.5H8.5Z" stroke="var(--mw-icon-border-default-blue, #1656A7)" stroke-linecap="square" stroke-linejoin="round"/>
<path d="M3.5 2.5C3.5 1.94772 3.94772 1.5 4.5 1.5H10.5C11.0523 1.5 11.5 1.94772 11.5 2.5V8.5C11.5 9.05228 11.0523 9.5 10.5 9.5H4.5C3.94772 9.5 3.5 9.05228 3.5 8.5V2.5Z" fill="var(--mw-icon-background-default-white, #FFFFFF)" stroke="var(--mw-icon-border-default-gray, #616161)"/>
<path d="M7 5.5C7 5.22386 7.22386 5 7.5 5H9.5C9.77614 5 10 5.22386 10 5.5V7.5C10 7.77614 9.77614 8 9.5 8H7.5C7.22386 8 7 7.77614 7 7.5V5.5Z" fill="var(--mw-icon-alert-red, #B7313C)"/>
<path d="M5 6V2L8 4L5 6Z" fill="var(--mw-icon-glyph-content-blue, #1656A8)"/>
</svg>
