<svg width="16" height="16" viewBox="0 0 16 16" fill="none" xmlns="http://www.w3.org/2000/svg">
<path d="M0.5 12.5V2.5C0.5 1.39543 1.39543 0.5 2.5 0.5H12.5C13.6046 0.5 14.5 1.39543 14.5 2.5V12.5C14.5 13.6046 13.6046 14.5 12.5 14.5H2.5C1.39543 14.5 0.5 13.6046 0.5 12.5Z" fill="#00A9E0"/>
<path d="M10.5 13.5V8.5H12.5L13 9.5V11V12.5L12 13.5H10.5Z" stroke="var(--mw-icon-background-default-white, white)"/>
<path d="M6.5 9.5L5.5 8.5H3.5L2.5 9.5V11.5V12.5L3.5 13.5H5.5L6.5 12.5" stroke="var(--mw-icon-background-default-white, white)"/>
<path d="M12 4L12.5 3V2L11.5 1.5H10.5V5.5V6.5H11.5L12.5 6V5L12 4ZM12 4H11" stroke="var(--mw-icon-background-default-white, white)"/>
<path d="M4.29993 1.5V1H3.95071L3.83049 1.32787L4.29993 1.5ZM3.19993 4.5L2.73048 4.32787L2.72948 4.33064L3.19993 4.5ZM4.69993 1.5L5.17427 1.34189L5.06031 1H4.69993V1.5ZM2.77037 7.16936L3.67037 4.66936L2.72948 4.33064L1.82948 6.83064L2.77037 7.16936ZM3.66936 4.67213L4.76936 1.67213L3.83049 1.32787L2.73049 4.32787L3.66936 4.67213ZM5.22948 4.66936L6.12948 7.16936L7.07037 6.83064L6.17037 4.33064L5.22948 4.66936ZM3.19993 5H5.69993V4H3.19993V5ZM4.29993 2H4.69993V1H4.29993V2ZM4.22559 1.65811L5.22559 4.65811L6.17427 4.34189L5.17427 1.34189L4.22559 1.65811Z" fill="var(--mw-icon-background-default-white, white)"/>
<path d="M9 14V1H8V14H9Z" fill="black"/>
<path d="M1 8H14V7H1V8Z" fill="black"/>
<path d="M0.5 12.5V2.5C0.5 1.39543 1.39543 0.5 2.5 0.5H12.5C13.6046 0.5 14.5 1.39543 14.5 2.5V12.5C14.5 13.6046 13.6046 14.5 12.5 14.5H2.5C1.39543 14.5 0.5 13.6046 0.5 12.5Z" stroke="#245474" stroke-linecap="round"/>

</svg>
