<svg width="16" height="16" viewBox="0 0 16 16" fill="none" xmlns="http://www.w3.org/2000/svg">
<path d="M0.5 5.5H14.5V13.5C14.5 14.6046 13.6046 15.5 12.5 15.5H2.5C1.39543 15.5 0.5 14.6046 0.5 13.5V5.5Z" fill="var(--mw-icon-background-lightest-blue, #E2F0FF)"/>
<path d="M14.5 11.1302C11.6893 14.2653 8.73974 13.1241 5.92906 9.98899C4.16567 8.02207 2.26339 7.13656 0.5 7.63769" stroke="var(--mw-icon-glyph-content-light-blue, #278CDD)" stroke-linecap="round"/>
<path d="M0.5 11.061C3.5 6.89497 6.5 6.28994 9.29963 9.85097C11.1479 12.2019 12.6856 13.9148 14.5 13.412" stroke="var(--mw-icon-glyph-content-blue, #1656A8)" stroke-linecap="round"/>
<path d="M0.5 5.5H14.5V13.5C14.5 14.6046 13.6046 15.5 12.5 15.5H2.5C1.39543 15.5 0.5 14.6046 0.5 13.5V5.5Z" stroke="var(--mw-icon-border-default-blue, #1656A7)"/>
<path d="M0.5 2.5C0.5 1.39543 1.39543 0.5 2.5 0.5H12.5C13.6046 0.5 14.5 1.39543 14.5 2.5V5.5H0.5V2.5Z" fill="var(--mw-icon-background-default-white, #FFFFFF)" stroke="var(--mw-icon-border-default-blue, #1656A7)"/>
<path d="M5 4H7V5H5V4Z" fill="var(--mw-icon-glyph-content-light-blue, #278CDD)"/>
<path d="M11 3H13V5H11V3Z" fill="var(--mw-icon-glyph-content-light-blue, #278CDD)"/>
<path d="M2 2H4V5H2V2Z" fill="var(--mw-icon-glyph-content-blue, #1656A8)"/>
<path d="M8 2H10V5H8V2Z" fill="var(--mw-icon-glyph-content-blue, #1656A8)"/>
</svg>
