<svg width="16" height="16" viewBox="0 0 16 16" fill="none" xmlns="http://www.w3.org/2000/svg">
<path d="M4.5 0.5H11.5V14.5H4.5V0.5Z" fill="var(--mw-icon-background-default-light-gray, #F5F5F5)" stroke="var(--mw-icon-border-default-gray, #616161)" stroke-linejoin="round"/>
<path d="M2 1L4 2.5L2 4L2 3L-8.74228e-08 3L-4.37115e-08 2L2 2L2 1Z" fill="var(--mw-icon-object-primary, #616160)"/>
<path d="M2 6L4 7.5L2 9L2 8L-8.74228e-08 8L-4.37115e-08 7L2 7L2 6Z" fill="var(--mw-icon-object-primary, #616160)"/>
<path d="M2 11L4 12.5L2 14L2 13L-8.74228e-08 13L-4.37115e-08 12L2 12L2 11Z" fill="var(--mw-icon-object-primary, #616160)"/>
<path d="M14 3L16 4.5L14 6L14 5L12 5L12 4L14 4L14 3Z" fill="var(--mw-icon-object-primary, #616160)"/>
<path d="M14 9L16 10.5L14 12L14 11L12 11L12 10L14 10L14 9Z" fill="var(--mw-icon-object-primary, #616160)"/>
<path d="M6 2H7V5H6V2Z" fill="var(--mw-icon-glyph-content-gray, #616162)"/>
<path d="M9 2H10V5H9V2Z" fill="var(--mw-icon-glyph-content-gray, #616162)"/>
<path d="M9 2H10L8.5 5H7.5L9 2Z" fill="var(--mw-icon-glyph-content-gray, #616162)"/>
<path d="M6 2H7L8.5 5H7.5L6 2Z" fill="var(--mw-icon-glyph-content-gray, #616162)"/>
<path d="M6 6H7V9H6V6Z" fill="var(--mw-icon-glyph-content-gray, #616162)"/>
<path d="M6 10H7V13H6V10Z" fill="var(--mw-icon-glyph-content-gray, #616162)"/>
<path d="M7 10H9V11H7V10Z" fill="var(--mw-icon-glyph-content-gray, #616162)"/>
<path d="M7 12H9V13H7V12Z" fill="var(--mw-icon-glyph-content-gray, #616162)"/>
<path d="M7 6H9V8H7V6Z" fill="var(--mw-icon-glyph-content-gray, #616162)"/>
</svg>
