<svg width="16" height="16" viewBox="0 0 16 16" fill="none" xmlns="http://www.w3.org/2000/svg">
<path d="M14.5 2.5C14.5 1.39543 13.6046 0.5 12.5 0.5H2.5C1.39543 0.5 0.5 1.39543 0.5 2.5V12.5C0.5 13.6046 1.39543 14.5 2.5 14.5H12.5C13.6046 14.5 14.5 13.6046 14.5 12.5V2.5Z" fill="var(--mw-icon-background-default-light-gray, #F5F5F5)" stroke="var(--mw-icon-border-default-gray, #616161)"/>
<path d="M4 10.5H13M4 12.5H10" stroke="var(--mw-icon-glyph-content-gray, #616162)" stroke-linejoin="round"/>
<path d="M2 10H3V11H2V10Z" fill="var(--mw-icon-glyph-content-gray, #616162)"/>
<path d="M2 12H3V13H2V12Z" fill="var(--mw-icon-glyph-content-gray, #616162)"/>
<path fill-rule="evenodd" clip-rule="evenodd" d="M8.76345 5.23654C8.43661 4.9097 7.90671 4.9097 7.57988 5.23653L6.0477 6.76873C5.72087 7.09556 5.72087 7.62546 6.0477 7.9523C6.37453 8.27913 6.90443 8.27913 7.23126 7.9523L7.88791 7.29564C8.04462 7.13893 8.2987 7.13893 8.45542 7.29564C8.61213 7.45236 8.61213 7.70644 8.45542 7.86315L7.79877 8.5198C7.15851 9.16006 6.12045 9.16006 5.48019 8.5198C4.83994 7.87955 4.83994 6.84148 5.48019 6.20122L7.01238 4.66903C7.65263 4.02877 8.6907 4.02877 9.33095 4.66903C9.48766 4.82574 9.48766 5.07982 9.33095 5.23654C9.17424 5.39325 8.92016 5.39325 8.76345 5.23654Z" fill="var(--mw-icon-glyph-content-gray, #616162)"/>
<path fill-rule="evenodd" clip-rule="evenodd" d="M8.23655 5.76346C8.56339 6.0903 9.09329 6.0903 9.42012 5.76346L10.9523 4.23127C11.2791 3.90444 11.2791 3.37454 10.9523 3.0477C10.6255 2.72087 10.0956 2.72087 9.76874 3.0477L9.11209 3.70436C8.95538 3.86107 8.7013 3.86107 8.54458 3.70436C8.38787 3.54764 8.38787 3.29356 8.54458 3.13685L9.20123 2.48019C9.84149 1.83994 10.8796 1.83994 11.5198 2.48019C12.1601 3.12045 12.1601 4.15852 11.5198 4.79878L9.98762 6.33097C9.34737 6.97123 8.30931 6.97123 7.66905 6.33097C7.51234 6.17426 7.51234 5.92018 7.66905 5.76346C7.82576 5.60675 8.07984 5.60675 8.23655 5.76346Z" fill="var(--mw-icon-glyph-content-gray, #616162)"/>
<path d="M0.5 2.5L0.5 5.5L5.5 0.5L2.5 0.5C1.39543 0.5 0.5 1.39543 0.5 2.5Z" fill="#7D7D7D" stroke="#7D7D7D"/>
<path d="M5.5 3.5V0.5L0.5 5.5H3.5C4.60457 5.5 5.5 4.60457 5.5 3.5Z" fill="var(--mw-icon-background-default-medium-gray, #D9D9D9)"/>
<path d="M5.5 0.5V3.5C5.5 4.60457 4.60457 5.5 3.5 5.5H0.5M5.5 0.5L0.5 5.5M5.5 0.5H7M0.5 5.5V7" stroke="var(--mw-icon-border-default-gray, #616161)" stroke-linejoin="round"/>
</svg>
