<svg width="16" height="16" viewBox="0 0 16 16" fill="none" xmlns="http://www.w3.org/2000/svg">
<path d="M14.5 2.5C14.5 1.39543 13.6046 0.5 12.5 0.5H2.5C1.39543 0.5 0.5 1.39543 0.5 2.5V12.5C0.5 13.6046 1.39543 14.5 2.5 14.5H12.5C13.6046 14.5 14.5 13.6046 14.5 12.5V2.5Z" fill="var(--mw-icon-background-default-medium-gray, #D9D9D9)" stroke="var(--mw-icon-border-default-gray, #616161)"/>
<path d="M12.5 10.5V4.5C12.5 3.94772 12.0523 3.5 11.5 3.5H3.5C2.94772 3.5 2.5 3.94772 2.5 4.5V10.5C2.5 11.0523 2.94772 11.5 3.5 11.5H11.5C12.0523 11.5 12.5 11.0523 12.5 10.5Z" fill="var(--mw-icon-background-default-white, #FFFFFF)"/>
<path fill-rule="evenodd" clip-rule="evenodd" d="M9.3599 5.07219C9.19085 5.26661 9.03635 5.62371 8.94013 6.2865C8.90162 6.55176 8.78768 6.85118 8.64768 7.14448C8.50558 7.44217 8.32691 7.75334 8.14399 8.04661C7.77805 8.6333 7.38466 9.16492 7.20515 9.40089C7.04181 9.61562 6.70757 9.92466 6.38109 10.2078C6.17053 10.3904 5.95225 10.5714 5.76331 10.7243C5.84013 10.7744 5.91454 10.8232 5.98564 10.8702C6.23777 11.0369 6.45432 11.2585 6.64212 11.5C6.6976 11.6093 9.12415 11.5 9.12415 11.5C8.74186 11.9977 9.34952 11.2925 9.12415 11.5C9.20704 11.3921 9.28535 11.2875 9.35549 11.1907C9.58618 10.8721 9.90486 10.6252 10.2256 10.4578C10.5434 10.292 10.8884 10.1912 11.1834 10.1912C11.4277 10.1912 11.7166 10.3004 11.9553 10.4124C11.5829 9.33129 11.0809 7.8433 10.9084 7.22022C10.7777 6.74826 10.552 6.10621 10.299 5.58762C10.1719 5.32694 10.0443 5.11094 9.92629 4.96471C9.8673 4.89163 9.81829 4.84557 9.78146 4.8198C9.76387 4.8075 9.75293 4.80247 9.74809 4.8006C9.71252 4.80315 9.63664 4.82819 9.51804 4.92441C9.50286 4.93672 9.48755 4.94974 9.47213 4.96341L9.47371 4.96552C9.4634 4.97322 9.4531 4.98139 9.44284 4.99005C9.41545 5.01556 9.38776 5.04302 9.3599 5.07219Z" fill="#F57729"/>
<path fill-rule="evenodd" clip-rule="evenodd" d="M5.23127 10.3814C5.44364 10.2123 5.72236 9.98409 5.98743 9.75423C6.12264 9.63699 6.25 9.52295 6.36164 9.4183L5.7716 8.99057L5.76739 8.99282C5.70936 9.02382 5.63691 9.05907 5.55583 9.09667C5.39304 9.17216 5.18281 9.26297 4.95631 9.35757C4.6962 9.46622 4.41128 9.58128 4.14612 9.68607C4.36116 9.82559 4.60983 9.98436 4.86609 10.148C4.98703 10.2252 5.10969 10.3035 5.23127 10.3814ZM6.23023 8.58197L6.7736 8.97587C6.96316 8.72411 7.31097 8.24726 7.63432 7.72884C7.81038 7.44658 7.97658 7.15613 8.10563 6.88578C8.12879 6.83725 8.15047 6.78996 8.17061 6.74402C8.13086 6.79031 8.09041 6.83621 8.04996 6.88103C7.8308 7.12386 7.57564 7.37462 7.38561 7.49986C7.0665 7.71016 6.82234 7.88085 6.66781 8.08626C6.56653 8.22088 6.39082 8.41378 6.23023 8.58197Z" fill="#068CFC"/>
<path d="M9.75435 4.5C9.20951 4.5 8.52322 5.68997 8.33926 6.01824C8.15529 6.34651 7.53265 7.04406 7.22133 7.24923C6.91001 7.4544 6.61989 7.65187 6.42888 7.90577C6.26866 8.11873 5.88404 8.51357 5.72838 8.66403C5.60385 8.7844 4.23077 9.3374 3.49963 9.61551C3.95718 9.93466 5.09133 10.6379 5.82039 11.1201M5.74924 8.60343L6.71151 9.301" stroke="#004A88" stroke-linejoin="round"/>
<path d="M12.3038 10.5C12.3038 10.5 12.3593 10.973 12.269 10.9192M12.3038 10.5C11.9275 9.41108 11.3783 7.7899 11.1983 7.13982C10.9295 6.16869 10.2714 4.50001 9.75492 4.50001C9.66824 4.4817 9.41193 4.64227 9.2946 4.72484C8.98328 4.95736 8.76391 5.41471 8.64366 6.24308C8.51556 7.12549 7.32057 8.75389 6.9668 9.21894C6.68379 9.59098 5.72624 10.377 5.28284 10.7235L5.82096 11.1201C6.01192 11.2464 6.34477 11.3129 6.49963 11.5H9.49963C9.49963 11.4012 9.54606 11.4397 9.59926 11.3663C9.99549 10.8192 10.7172 10.4909 11.1842 10.4909C11.4765 10.4909 11.9439 10.7254 12.269 10.9192M12.3038 10.5L12.269 10.9192" stroke="#923800" stroke-linejoin="round"/>
<path d="M12.5 10.5V4.5C12.5 3.94772 12.0523 3.5 11.5 3.5H3.5C2.94772 3.5 2.5 3.94772 2.5 4.5V10.5C2.5 11.0523 2.94772 11.5 3.5 11.5H11.5C12.0523 11.5 12.5 11.0523 12.5 10.5Z" stroke="var(--mw-icon-glyph-content-gray, #616162)"/>
<path d="M0.5 2.5L0.5 5.5L5.5 0.5L2.5 0.5C1.39543 0.5 0.5 1.39543 0.5 2.5Z" fill="#7D7D7D" stroke="#7D7D7D"/>
<path d="M5.5 3.5V0.5L0.5 5.5H3.5C4.60457 5.5 5.5 4.60457 5.5 3.5Z" fill="var(--mw-icon-background-default-medium-gray, #D9D9D9)"/>
<path d="M5.5 0.5V3.5C5.5 4.60457 4.60457 5.5 3.5 5.5H0.5M5.5 0.5L0.5 5.5M5.5 0.5H7M0.5 5.5V7" stroke="var(--mw-icon-border-default-gray, #616161)" stroke-linejoin="round"/>
</svg>
