<svg width="16" height="16" viewBox="0 0 16 16" fill="none" xmlns="http://www.w3.org/2000/svg">
<path d="M14.5 2.5C14.5 1.39543 13.6046 0.5 12.5 0.5H2.5C1.39543 0.5 0.5 1.39543 0.5 2.5V12.5C0.5 13.6046 1.39543 14.5 2.5 14.5H12.5C13.6046 14.5 14.5 13.6046 14.5 12.5V2.5Z" fill="var(--mw-icon-background-default-light-gray, #F5F5F5)" stroke="var(--mw-icon-border-default-gray, #616161)"/>
<path d="M10.5 13.5V6.5H4.5V13.5L7.5 12L10.5 13.5Z" fill="var(--mw-icon-background-medium-blue, #83CAFF)"/>
<path d="M10.5 6.5H11V6H10.5V6.5ZM10.5 13.5L10.2764 13.9472C10.4314 14.0247 10.6155 14.0164 10.7629 13.9253C10.9103 13.8342 11 13.6733 11 13.5H10.5ZM7.5 12L7.72361 11.5528C7.58284 11.4824 7.41716 11.4824 7.27639 11.5528L7.5 12ZM4.5 13.5H4C4 13.6733 4.08973 13.8342 4.23713 13.9253C4.38454 14.0164 4.56861 14.0247 4.72361 13.9472L4.5 13.5ZM4.5 6.5V6H4V6.5H4.5ZM10 6.5V13.5H11V6.5H10ZM10.7236 13.0528L7.72361 11.5528L7.27639 12.4472L10.2764 13.9472L10.7236 13.0528ZM7.27639 11.5528L4.27639 13.0528L4.72361 13.9472L7.72361 12.4472L7.27639 11.5528ZM5 13.5V6.5H4V13.5H5ZM4.5 7H10.5V6H4.5V7Z" fill="var(--mw-icon-glyph-content-blue, #1656A8)"/>
<circle cx="7.5" cy="6.5" r="4" fill="var(--mw-icon-background-default-highlight, #FFE864)" stroke="var(--mw-icon-glyph-content-yellow, #674C07)"/>
<path d="M5.5 7L6.5 8L9.5 5" stroke="var(--mw-icon-glyph-content-yellow, #674C07)" stroke-linecap="round" stroke-linejoin="round"/>
<path d="M0.5 2.5L0.5 5.5L5.5 0.5L2.5 0.5C1.39543 0.5 0.5 1.39543 0.5 2.5Z" fill="#7D7D7D" stroke="#7D7D7D"/>
<path d="M5.5 3.5V0.5L0.5 5.5H3.5C4.60457 5.5 5.5 4.60457 5.5 3.5Z" fill="var(--mw-icon-background-default-medium-gray, #D9D9D9)"/>
<path d="M5.5 0.5V3.5C5.5 4.60457 4.60457 5.5 3.5 5.5H0.5M5.5 0.5L0.5 5.5M5.5 0.5H7M0.5 5.5V7" stroke="var(--mw-icon-border-default-gray, #616161)" stroke-linejoin="round"/>
</svg>
