<svg width="16" height="16" viewBox="0 0 16 16" fill="none" xmlns="http://www.w3.org/2000/svg">
<path d="M14.5 2.5C14.5 1.39543 13.6046 0.5 12.5 0.5H2.5C1.39543 0.5 0.5 1.39543 0.5 2.5V12.5C0.5 13.6046 1.39543 14.5 2.5 14.5H12.5C13.6046 14.5 14.5 13.6046 14.5 12.5V2.5Z" fill="var(--mw-icon-background-default-light-gray, #F5F5F5)" stroke="var(--mw-icon-border-default-gray, #616161)"/>
<path d="M10.5 10.4999H3.5" stroke="var(--mw-icon-glyph-disabled-gray, #888889)" stroke-linecap="square"/>
<path d="M2 10.5C2 9.67157 2.67157 9 3.5 9C4.32843 9 5 9.67157 5 10.5C5 11.3284 4.32843 12 3.5 12C2.67157 12 2 11.3284 2 10.5Z" fill="var(--mw-icon-glyph-disabled-gray, #888889)"/>
<path d="M8 10.5C8 9.11929 9.11929 8 10.5 8C11.8807 8 13 9.11929 13 10.5C13 11.8807 11.8807 13 10.5 13C9.11929 13 8 11.8807 8 10.5Z" fill="var(--mw-icon-background-default-dark-gray, #A6A6A6)"/>
<circle cx="10.5" cy="10.5" r="1.5" transform="rotate(180 10.5 10.5)" fill="var(--mw-icon-glyph-content-green, #008014)"/>
<path d="M11 2H10V5H8L10.5 8L13 5H11V2Z" fill="var(--mw-icon-glyph-content-green, #008014)"/>
<path d="M0.5 2.5L0.5 5.5L5.5 0.5L2.5 0.5C1.39543 0.5 0.5 1.39543 0.5 2.5Z" fill="#7D7D7D" stroke="#7D7D7D"/>
<path d="M5.5 3.5V0.5L0.5 5.5H3.5C4.60457 5.5 5.5 4.60457 5.5 3.5Z" fill="var(--mw-icon-background-default-medium-gray, #D9D9D9)"/>
<path d="M5.5 0.5V3.5C5.5 4.60457 4.60457 5.5 3.5 5.5H0.5M5.5 0.5L0.5 5.5M5.5 0.5H7M0.5 5.5V7" stroke="var(--mw-icon-border-default-gray, #616161)" stroke-linejoin="round"/>
</svg>
