<svg width="16" height="16" viewBox="0 0 16 16" fill="none" xmlns="http://www.w3.org/2000/svg">
<path d="M14.5 2.5C14.5 1.39543 13.6046 0.5 12.5 0.5H2.5C1.39543 0.5 0.5 1.39543 0.5 2.5V12.5C0.5 13.6046 1.39543 14.5 2.5 14.5H12.5C13.6046 14.5 14.5 13.6046 14.5 12.5V2.5Z" fill="var(--mw-icon-background-default-light-gray, #F5F5F5)" stroke="var(--mw-icon-border-default-gray, #616161)"/>
<path d="M4 10.5H13M4 12.5H10" stroke="var(--mw-icon-glyph-content-gray, #616162)" stroke-linejoin="round"/>
<path d="M2 10H3V11H2V10Z" fill="var(--mw-icon-glyph-content-gray, #616162)"/>
<path d="M2 12H3V13H2V12Z" fill="var(--mw-icon-glyph-content-gray, #616162)"/>
<path d="M11.5 6.99998V3.99995L8.5 5.49996V8.5L11.5 6.99998Z" fill="var(--mw-icon-background-default-white, #FFFFFF)"/>
<path d="M5.5 6.99998V3.99995L8.5 5.49996V8.5L5.5 6.99998Z" fill="white"/>
<path d="M11.5 3.99995L8.5 2.5L5.5 3.99995L8.5 5.49996L11.5 3.99995Z" fill="white"/>
<path d="M11.5 3.99995V6.99998L8.5 8.5M11.5 3.99995L8.5 5.49997M11.5 3.99995L8.5 2.5L5.5 3.99995M8.5 8.5V5.49997M8.5 8.5L5.5 6.99998V3.99995M8.5 5.49997L5.5 3.99995" stroke="var(--mw-icon-glyph-content-gray, #616162)" stroke-linecap="round" stroke-linejoin="round"/>
<path d="M10.5 6.5L11.5 6V7L10.5 7.5V6.5Z" fill="var(--mw-icon-glyph-content-gray, #616162)"/>
<path d="M6.5 6L5.5 5.5V7L6.5 7.5V6Z" fill="var(--mw-icon-glyph-content-gray, #616162)"/>
<path d="M9.5 3L8.5 2.5L7.5 3L8.5 3.5L9.5 3Z" fill="var(--mw-icon-glyph-content-gray, #616162)"/>
<path d="M10.5 6.5L11.5 6V7L10.5 7.5V6.5Z" stroke="var(--mw-icon-glyph-content-gray, #616162)" stroke-linejoin="round"/>
<path d="M6.5 6L5.5 5.5V7L6.5 7.5V6Z" stroke="var(--mw-icon-glyph-content-gray, #616162)" stroke-linejoin="round"/>
<path d="M9.5 3L8.5 2.5L7.5 3L8.5 3.5L9.5 3Z" stroke="var(--mw-icon-glyph-content-gray, #616162)" stroke-linejoin="round"/>
<path d="M0.5 2.5L0.5 5.5L5.5 0.5L2.5 0.5C1.39543 0.5 0.5 1.39543 0.5 2.5Z" fill="#7D7D7D" stroke="#7D7D7D"/>
<path d="M5.5 3.5V0.5L0.5 5.5H3.5C4.60457 5.5 5.5 4.60457 5.5 3.5Z" fill="var(--mw-icon-background-default-medium-gray, #D9D9D9)"/>
<path d="M5.5 0.5V3.5C5.5 4.60457 4.60457 5.5 3.5 5.5H0.5M5.5 0.5L0.5 5.5M5.5 0.5H7M0.5 5.5V7" stroke="var(--mw-icon-border-default-gray, #616161)" stroke-linejoin="round"/>
</svg>
