<svg width="16" height="16" viewBox="0 0 16 16" fill="none" xmlns="http://www.w3.org/2000/svg">
<path d="M14.5 2.5C14.5 1.39543 13.6046 0.5 12.5 0.5H2.5C1.39543 0.5 0.5 1.39543 0.5 2.5V12.5C0.5 13.6046 1.39543 14.5 2.5 14.5H12.5C13.6046 14.5 14.5 13.6046 14.5 12.5V2.5Z" fill="var(--mw-icon-glyph-content-gray, #616162)" stroke="var(--mw-icon-border-default-gray, #616161)"/>
<path d="M1 7C1 3.57895 3.85088 1.45614 4.76316 1C4.76316 1 3.69387 3.31766 3.50464 5.02327C3.47092 5.32717 3.59951 5.62045 3.81824 5.8341L3.92771 5.94102C4.27747 6.28264 4.79221 6.39332 5.25148 6.22565C5.70922 6.05854 6.0311 5.64439 6.08004 5.15957L6.5 1L7 3H8L8.5 1L8.92048 5.16473C8.96911 5.6464 9.28889 6.05785 9.74364 6.22387C10.205 6.39229 10.7221 6.27791 11.0694 5.93065L11.1724 5.82756C11.3822 5.61783 11.5048 5.33318 11.4747 5.03811C11.3005 3.33114 10.2857 1 10.2857 1C11.198 1.45614 14 3.57895 14 7C14 10.4211 10.9123 13.5439 10 14C10 14 11.2869 11.9003 11.4767 9.95946C11.5059 9.66068 11.4111 9.36671 11.2446 9.11692C10.8192 8.47884 9.98527 8.25737 9.29935 8.60033L9.20223 8.64888C8.75811 8.87094 8.43954 9.28144 8.32031 9.76346C8.10046 10.6523 7.7293 12 7.5 12C7.2707 12 6.89954 10.6523 6.67969 9.76346C6.56046 9.28144 6.24189 8.87094 5.79777 8.64888L5.67134 8.58567C5.00217 8.25108 4.18857 8.46715 3.77356 9.08965C3.59597 9.35605 3.50392 9.67337 3.54858 9.99041C3.82073 11.9226 5 14 5 14C4.08772 13.5439 1 10.4211 1 7Z" fill="var(--mw-icon-background-default-white, #FFFFFF)"/>
<path d="M0.5 2.5L0.5 5.5L5.5 0.5L2.5 0.5C1.39543 0.5 0.5 1.39543 0.5 2.5Z" fill="#7D7D7D" stroke="#7D7D7D"/>
<path d="M5.5 3.5V0.5L0.5 5.5H3.5C4.60457 5.5 5.5 4.60457 5.5 3.5Z" fill="var(--mw-icon-background-default-medium-gray, #D9D9D9)"/>
<path d="M5.5 0.5V3.5C5.5 4.60457 4.60457 5.5 3.5 5.5H0.5M5.5 0.5L0.5 5.5M5.5 0.5H7M0.5 5.5V7" stroke="var(--mw-icon-border-default-gray, #616161)" stroke-linejoin="round"/>
</svg>
