<svg width="16" height="16" viewBox="0 0 16 16" fill="none" xmlns="http://www.w3.org/2000/svg">
<path d="M14.5 2.5C14.5 1.39543 13.6046 0.5 12.5 0.5H2.5C1.39543 0.5 0.5 1.39543 0.5 2.5V12.5C0.5 13.6046 1.39543 14.5 2.5 14.5H12.5C13.6046 14.5 14.5 13.6046 14.5 12.5V2.5Z" fill="var(--mw-icon-background-default-medium-gray, #D9D9D9)" stroke="var(--mw-icon-border-default-gray, #616161)"/>
<path d="M12.5 10.5V4.5C12.5 3.94772 12.0523 3.5 11.5 3.5H3.5C2.94772 3.5 2.5 3.94772 2.5 4.5V10.5C2.5 11.0523 2.94772 11.5 3.5 11.5H11.5C12.0523 11.5 12.5 11.0523 12.5 10.5Z" fill="var(--mw-icon-background-default-white, #FFFFFF)"/>
<path d="M2.5 10.5L6.5 6.5L8.5 8.5L12.5 4.5" stroke="#1171BE" stroke-linejoin="round"/>
<path d="M12.5 10.5V4.5C12.5 3.94772 12.0523 3.5 11.5 3.5H3.5C2.94772 3.5 2.5 3.94772 2.5 4.5V10.5C2.5 11.0523 2.94772 11.5 3.5 11.5H11.5C12.0523 11.5 12.5 11.0523 12.5 10.5Z" stroke="var(--mw-icon-glyph-content-gray, #616162)"/>
<path d="M0.5 2.5L0.5 5.5L5.5 0.5L2.5 0.5C1.39543 0.5 0.5 1.39543 0.5 2.5Z" fill="#7D7D7D" stroke="#7D7D7D"/>
<path d="M5.5 3.5V0.5L0.5 5.5H3.5C4.60457 5.5 5.5 4.60457 5.5 3.5Z" fill="var(--mw-icon-background-default-medium-gray, #D9D9D9)"/>
<path d="M5.5 0.5V3.5C5.5 4.60457 4.60457 5.5 3.5 5.5H0.5M5.5 0.5L0.5 5.5M5.5 0.5H7M0.5 5.5V7" stroke="var(--mw-icon-border-default-gray, #616161)" stroke-linejoin="round"/>
</svg>
