<svg width="16" height="16" viewBox="0 0 16 16" fill="none" xmlns="http://www.w3.org/2000/svg">
<path d="M0.5 12.5V2.5C0.5 1.39543 1.39543 0.5 2.5 0.5H12.5C13.6046 0.5 14.5 1.39543 14.5 2.5V12.5C14.5 13.6046 13.6046 14.5 12.5 14.5H2.5C1.39543 14.5 0.5 13.6046 0.5 12.5Z" fill="var(--mw-icon-background-default-white, #FFFFFF)"/>
<path d="M0.5 9H14.5V12.5C14.5 13.6046 13.6046 14.5 12.5 14.5H2.5C1.39543 14.5 0.5 13.6046 0.5 12.5V9Z" fill="var(--mw-icon-background-default-medium-gray, #D9D9D9)"/>
<path d="M0.5 8.5H14.5" stroke="var(--mw-icon-glyph-content-gray, #616162)"/>
<path d="M10.5 11.4783C10.5 10.938 10.938 10.5 11.4783 10.5H11.5217C12.062 10.5 12.5 10.938 12.5 11.4783V11.5217C12.5 12.062 12.062 12.5 11.5217 12.5H11.4783C10.938 12.5 10.5 12.062 10.5 11.5217V11.4783Z" fill="var(--mw-icon-background-default-action, #CBFFBE)" stroke="var(--mw-icon-glyph-content-green, #008014)"/>
<path d="M3 10.5H9M3 12.5H7" stroke="var(--mw-icon-glyph-content-gray, #616162)"/>
<path d="M0.624626 3.84984C2.74975 1.85457 4.87487 2.07129 7 4.5C9.33333 7.16667 11.6667 7.16667 14 4.5L14.5 4" stroke="#0072BD" stroke-linecap="round"/>
<path d="M0.5 12.5V2.5C0.5 1.39543 1.39543 0.5 2.5 0.5H12.5C13.6046 0.5 14.5 1.39543 14.5 2.5V12.5C14.5 13.6046 13.6046 14.5 12.5 14.5H2.5C1.39543 14.5 0.5 13.6046 0.5 12.5Z" stroke="var(--mw-icon-border-default-gray, #616161)" stroke-linecap="round"/>
</svg>
