<svg width="16" height="16" viewBox="0 0 16 16" fill="none" xmlns="http://www.w3.org/2000/svg">
<rect x="2.5" y="2.5" width="12" height="12" rx="1" fill="var(--mw-icon-background-default-medium-gray, #D9D9D9)" stroke="var(--mw-icon-border-default-gray, #616161)"/>
<rect x="0.5" y="0.5" width="12" height="12" rx="1" fill="var(--mw-icon-background-default-white, #FFFFFF)"/>
<path d="M1.5 9.5C1.5 9.5 3 9 3.5 7.5C4 6 3.04545 2.49998 4.5 2.5C5.95455 2.50002 5 6 5.5 7.5C6 9 7.5 9.5 7.5 9.5M5.5 9.5C5.5 9.5 7 9 7.5 7.5C8 6 7.04545 2.49998 8.5 2.5C9.95455 2.50002 9 6 9.5 7.5C10 9 11.5 9.5 11.5 9.5" stroke="var(--mw-icon-background-default-white, #FFFFFF)" stroke-linecap="round" stroke-linejoin="round"/>
<rect x="8.5" y="4.5" width="2.00001" height="2" rx="1" fill="white" stroke="#DD5400"/>
<path d="M2.5 4.5C2.5 3.94772 2.94772 3.5 3.5 3.5C4.05229 3.5 4.50001 3.94772 4.50001 4.5C4.50001 5.05228 4.05229 5.5 3.5 5.5C2.94772 5.5 2.5 5.05228 2.5 4.5Z" fill="white"/>
<path d="M4.5 7.5C4.5 6.94772 4.94772 6.5 5.5 6.5C6.05229 6.5 6.50001 6.94772 6.50001 7.5C6.50001 8.05228 6.05229 8.5 5.5 8.5C4.94772 8.5 4.5 8.05228 4.5 7.5Z" fill="white"/>
<path d="M2.5 4.5C2.5 3.94772 2.94772 3.5 3.5 3.5C4.05229 3.5 4.50001 3.94772 4.50001 4.5C4.50001 5.05228 4.05229 5.5 3.5 5.5C2.94772 5.5 2.5 5.05228 2.5 4.5Z" stroke="#1171BE"/>
<path d="M4.5 7.5C4.5 6.94772 4.94772 6.5 5.5 6.5C6.05229 6.5 6.50001 6.94772 6.50001 7.5C6.50001 8.05228 6.05229 8.5 5.5 8.5C4.94772 8.5 4.5 8.05228 4.5 7.5Z" stroke="#1171BE"/>
<rect x="0.5" y="0.5" width="12" height="12" rx="1" stroke="var(--mw-icon-border-default-gray, #616161)"/>
</svg>
