<svg width="16" height="16" viewBox="0 0 16 16" fill="none" xmlns="http://www.w3.org/2000/svg">
<rect x="0.5" y="0.5" width="14" height="14" rx="1" fill="var(--mw-icon-background-default-white, #FFFFFF)"/>
<path d="M2.5 12.5003C4.98684 12.2239 3.56579 7.5 5.5 7.5C6.92815 7.5 6.56579 12.2236 8.5 12.5M5.5 12.5C7.43421 12.2235 6.56579 5.49987 8.5 5.5C10.4342 5.50013 9 11.0003 11.5 12.5003" stroke="var(--mw-icon-glyph-content-gray, #616162)" stroke-linecap="round" stroke-linejoin="round"/>
<path d="M2.5 10.5C3 9 2.11847 5.05254 3.5 4.49995C4.88153 3.94736 5.5 5.5 5.5 5.5C5.5 5.5 6.5529 2.66224 8.5 2.5C11.8158 2.22372 11.2895 11.5 13.5 11.5" stroke="#DD5400" stroke-linecap="round" stroke-linejoin="round" stroke-dasharray="2 2"/>
<rect x="0.5" y="0.5" width="14" height="14" rx="1" stroke="var(--mw-icon-border-default-gray, #616161)"/>
</svg>
