<svg width="16" height="16" viewBox="0 0 16 16" fill="none" xmlns="http://www.w3.org/2000/svg">
<path d="M0.5 14.5H14.5V7.5V0.5H0.5V7.5V14.5Z" fill="var(--mw-icon-background-default-white, #FFFFFF)"/>
<path d="M7.4999 8.61951L6.53048 8.05981L5.23535 8.80278V10.2975L6.20676 10.8604L7.4999 10.1098V8.61951Z" fill="#FEC04C"/>
<path d="M12.0274 8.61936L11.0564 8.05847L9.76477 8.8027V10.2974L10.7354 10.8603L12.0262 10.1125L12.0274 8.61936Z" fill="#FEC04C"/>
<path d="M9.76486 4.70036L8.79412 4.14203L7.5 4.88802V6.38273L8.47362 6.93974L9.76471 6.19513L9.76486 4.70036Z" fill="#FEC04C"/>
<path d="M5.23538 4.70046L4.26485 4.14069L2.96973 4.8865V6.38296L3.94114 6.93976L5.23538 6.19356V4.70046Z" fill="#FEC04C"/>
<path d="M5.23529 10.2974L4.2647 10.8604L2.97074 10.1131L2.97058 8.62159L3.94117 8.05865L5.23529 8.80272V10.2974Z" fill="#F57729"/>
<path d="M9.76471 10.2991L8.79412 10.8604L7.50016 10.113L7.5 8.62155L8.47059 8.05865L9.76471 8.80272V10.2991Z" fill="#F57729"/>
<path d="M7.4999 6.38289L6.53048 6.94001L5.23535 6.19419V4.69773L6.20676 4.14093L7.4999 4.88713V6.38289Z" fill="#F57729"/>
<path d="M12.0293 6.37642L11.0599 6.94001L9.76477 6.19419V4.69773L10.7362 4.14093L12.0374 4.88713L12.0293 6.37642Z" fill="#F57729"/>
<path d="M3.94124 8.05866L3.93713 6.94152L5.23378 6.19336L6.52948 6.93925V8.05866L5.23552 8.80278L3.94124 8.05866Z" fill="#DD5400"/>
<path d="M6.20581 4.14396V3.01806L7.50334 2.27356L8.79405 3.01806V4.14394L7.49993 4.88707L6.20581 4.14396Z" fill="#DD5400"/>
<path d="M6.20471 11.9833L6.20582 10.8603L7.49994 10.1097L8.79405 10.8603L8.79547 11.9782L7.50309 12.7264L6.20471 11.9833Z" fill="#DD5400"/>
<path d="M8.47074 8.05868L8.47058 6.93927L9.76738 6.19354L11.0588 6.93927V8.05868L9.7647 8.8028L8.47074 8.05868Z" fill="#DD5400"/>
<path d="M9.76478 10.2975L10.7354 10.8604V11.9843L9.76478 12.5447L8.79419 11.9843V10.8604L9.76478 10.2975Z" fill="#1171BE"/>
<path d="M5.23581 10.2975L6.20579 10.8604L6.20595 11.98L5.23536 12.5404L4.26477 11.98V10.8593L5.23581 10.2975Z" fill="#1171BE"/>
<path d="M7.50001 6.38129L8.4706 6.93919V8.0586L7.50001 8.62276L6.52942 8.0586V6.93919L7.50001 6.38129Z" fill="#1171BE"/>
<path d="M12.0294 6.3761L13 6.93965V8.05846L12.0294 8.62075L11.0588 8.05846V6.93965L12.0294 6.3761Z" fill="#1171BE"/>
<path d="M9.76478 2.45972L10.7354 3.02009V4.14082L9.76478 4.70119L8.79419 4.14401V3.02009L9.76478 2.45972Z" fill="#1171BE"/>
<path d="M5.23536 2.45972L6.20595 3.02009V4.14401L5.23536 4.70119L4.26477 4.14082V3.02009L5.23536 2.45972Z" fill="#1171BE"/>
<path d="M2.97059 6.38129L3.94118 6.94166V8.0586L2.97059 8.62276L2 8.0586V6.94166L2.97059 6.38129Z" fill="#1171BE"/>
<path d="M0.5 1.5C0.5 0.947716 0.947715 0.5 1.5 0.5H13.5C14.0523 0.5 14.5 0.947715 14.5 1.5V13.5C14.5 14.0523 14.0523 14.5 13.5 14.5H1.5C0.947716 14.5 0.5 14.0523 0.5 13.5V1.5Z" stroke="var(--mw-icon-border-default-gray, #616161)" stroke-linejoin="round"/>
</svg>
