<svg width="16" height="16" viewBox="0 0 16 16" fill="none" xmlns="http://www.w3.org/2000/svg">
<rect x="0.5" y="0.5" width="14" height="14" rx="2" fill="#E6BFFF"/>
<rect y="3" width="15" height="1" fill="#8D1FD8"/>
<rect x="7" y="1" width="1" height="2" fill="#8D1FD8"/>
<rect x="2" y="11" width="1" height="2" fill="#8D1FD7"/>
<rect x="4" y="11" width="1" height="2" fill="#8D1FD7"/>
<path d="M5.50686 5V9H4.61905L2.88781 6.31868V9H2V5H2.88781L4.62201 7.68407V5H5.50686Z" fill="#8D1FD7"/>
<path d="M9.17057 8.35714V9H6.87705V8.35714H9.17057ZM7.16707 5V9H6.27926V5H7.16707ZM8.87167 6.62912V7.25549H6.87705V6.62912H8.87167ZM9.16761 5V5.6456H6.87705V5H9.16761Z" fill="#8D1FD7"/>
<path d="M11.6742 5V9H10.7893V5H11.6742ZM13 5V5.6456H9.48426V5H13Z" fill="#8D1FD7"/>
<rect x="0.5" y="0.5" width="14" height="14" rx="2" stroke="#8D1FD8"/>
</svg>
