<svg width="16" height="16" viewBox="0 0 16 16" fill="none" xmlns="http://www.w3.org/2000/svg">
<path d="M0.5 12.5V2.5C0.5 1.39543 1.39543 0.5 2.5 0.5H12.5C13.6046 0.5 14.5 1.39543 14.5 2.5V12.5C14.5 13.6046 13.6046 14.5 12.5 14.5H2.5C1.39543 14.5 0.5 13.6046 0.5 12.5Z" fill="var(--mw-icon-background-default-white, white)"/>
<path d="M10.5 6.5L4.5 4.5" stroke="var(--mw-icon-glyph-content-dark-gray, #333333)" stroke-linecap="round" stroke-linejoin="round"/>
<circle cx="10.5" cy="6.5" r="2" fill="#94EF84" stroke="var(--mw-icon-glyph-content-dark-gray, #333333)"/>
<circle cx="4.5" cy="4.5" r="2" fill="var(--mw-icon-background-medium-blue, #83CAFF)" stroke="var(--mw-icon-glyph-content-dark-gray, #333333)"/>
<path d="M4.5 4.5L6 10" stroke="var(--mw-icon-glyph-content-dark-gray, #333333)" stroke-linecap="round" stroke-linejoin="round"/>
<path d="M10.5 6.5L6 10" stroke="var(--mw-icon-glyph-content-dark-gray, #333333)" stroke-linecap="round" stroke-linejoin="round"/>
<circle cx="6" cy="10" r="2.5" fill="#FF453A" stroke="var(--mw-icon-glyph-content-dark-gray, #333333)"/>
<path d="M10.5 6.5L4.5 4.5" stroke="var(--mw-icon-glyph-content-dark-gray, #333333)" stroke-linecap="round" stroke-linejoin="round"/>
<circle cx="10.5" cy="6.5" r="2" fill="#94EF84" stroke="var(--mw-icon-glyph-content-dark-green, #02580E)"/>
<circle cx="4.5" cy="4.5" r="2" fill="var(--mw-icon-background-medium-blue, #83CAFF)" stroke="var(--mw-icon-border-default-blue, #1656A7)"/>
<path d="M4.5 4.5L6 10" stroke="var(--mw-icon-glyph-content-dark-gray, #333333)" stroke-linecap="round" stroke-linejoin="round"/>
<path d="M10.5 6.5L6 10" stroke="var(--mw-icon-glyph-content-dark-gray, #333333)" stroke-linecap="round" stroke-linejoin="round"/>
<circle cx="6" cy="10" r="2.5" fill="#FF453A" stroke="var(--mw-icon-glyph-content-dark-red, #610908)"/>
<path d="M0.5 12.5V2.5C0.5 1.39543 1.39543 0.5 2.5 0.5H12.5C13.6046 0.5 14.5 1.39543 14.5 2.5V12.5C14.5 13.6046 13.6046 14.5 12.5 14.5H2.5C1.39543 14.5 0.5 13.6046 0.5 12.5Z" stroke="#B7312C" stroke-linecap="round"/>

</svg>
