<svg width="16" height="16" viewBox="0 0 16 16" fill="none" xmlns="http://www.w3.org/2000/svg">
<rect x="0.5" y="0.5" width="15" height="15" rx="1" fill="var(--mw-icon-background-default-white, #FFFFFF)"/>
<path d="M3 3C3 2.44772 3.44772 2 4 2C4.55228 2 5 2.44772 5 3C5 3.55228 4.55228 4 4 4C3.44772 4 3 3.55228 3 3Z" fill="#1171BE"/>
<path d="M7 3C7 2.44772 7.44772 2 8 2C8.55228 2 9 2.44772 9 3C9 3.55228 8.55228 4 8 4C7.44772 4 7 3.55228 7 3Z" fill="#1171BE"/>
<path d="M11 3C11 2.44772 11.4477 2 12 2C12.5523 2 13 2.44772 13 3C13 3.55228 12.5523 4 12 4C11.4477 4 11 3.55228 11 3Z" fill="#1171BE"/>
<path d="M9 8C9 7.44772 9.44772 7 10 7C10.5523 7 11 7.44772 11 8C11 8.55228 10.5523 9 10 9C9.44772 9 9 8.55228 9 8Z" fill="#EDB120"/>
<path d="M5 8C5 7.44772 5.44772 7 6 7C6.55228 7 7 7.44772 7 8C7 8.55228 6.55228 9 6 9C5.44772 9 5 8.55228 5 8Z" fill="#EDB120"/>
<rect x="7" y="12" width="2" height="2" rx="1" fill="#DD5400"/>
<rect x="0.5" y="0.5" width="15" height="15" rx="1" stroke="var(--mw-icon-border-default-gray, #616161)"/>
</svg>
