<svg width="16" height="16" viewBox="0 0 16 16" fill="none" xmlns="http://www.w3.org/2000/svg">
<path d="M0.5 10.5V1.5C0.5 0.947715 0.947715 0.5 1.5 0.5H10.5C11.0523 0.5 11.5 0.947715 11.5 1.5V10.5C11.5 11.0523 11.0523 11.5 10.5 11.5H1.5C0.947715 11.5 0.5 11.0523 0.5 10.5Z" fill="var(--mw-icon-background-default-selection, #B4DEFF)" stroke="var(--mw-icon-border-default-blue, #1656A7)"/>
<path d="M2 3H5V2H2V3ZM2 7H5V6H2V7ZM4 5H7V4H4V5Z" fill="var(--mw-icon-glyph-content-dark-blue, #104280)"/>
<path d="M5.5 12.5H8.5V15.5H12.5V12.5H15.5V8.5H12.5V5.5H8.5V8.5H5.5V12.5Z" fill="var(--mw-icon-background-medium-yellow, #FFEF91)" stroke="#674C06"/>
</svg>
