<svg width="16" height="16" viewBox="0 0 16 16" fill="none" xmlns="http://www.w3.org/2000/svg">
<path d="M0.5 7.5V1.5C0.5 0.947715 0.947715 0.5 1.5 0.5H9.5C10.0523 0.5 10.5 0.947715 10.5 1.5V7.5C10.5 8.05229 10.0523 8.5 9.5 8.5H1.5C0.947715 8.5 0.5 8.05229 0.5 7.5Z" fill="var(--mw-icon-background-default-medium-gray, #D9D9D9)" stroke="var(--mw-icon-border-default-gray, #616161)" stroke-linecap="square"/>
<path d="M2.5 9.5V3.5C2.5 2.94772 2.94772 2.5 3.5 2.5H11.5C12.0523 2.5 12.5 2.94772 12.5 3.5V9.5C12.5 10.0523 12.0523 10.5 11.5 10.5H3.5C2.94772 10.5 2.5 10.0523 2.5 9.5Z" fill="var(--mw-icon-background-default-white, #FFFFFF)" stroke="var(--mw-icon-border-default-gray, #616161)" stroke-linecap="square"/>
<path d="M4.5 8.5V4.5H10.5V8.5H4.5Z" fill="white" stroke="var(--mw-icon-glyph-content-gray, #616162)" stroke-linecap="square" stroke-linejoin="round"/>
<circle cx="9.5" cy="5.5" r="0.5" fill="var(--mw-icon-border-default-gray, #616161)"/>
<path d="M4.5 6.5L5.5 5.5L6.5 7.5L7.5 6.5L8 7.5H10.5" stroke="var(--mw-icon-glyph-content-gray, #616162)" stroke-linecap="round" stroke-linejoin="round"/>
<path d="M5.5 12.5H8.5V15.5H12.5V12.5H15.5V8.5H12.5V5.5H8.5V8.5H5.5V12.5Z" fill="var(--mw-icon-background-medium-yellow, #FFEF91)" stroke="#674C06"/>
</svg>
