<svg width="16" height="16" viewBox="0 0 16 16" fill="none" xmlns="http://www.w3.org/2000/svg">
<path d="M12.5 11.5C12.5 12.0523 12.0523 12.5 11.5 12.5L1.5 12.5C0.947715 12.5 0.5 12.0523 0.5 11.5L0.5 1.5C0.5 0.947715 0.947716 0.5 1.5 0.5L11.5 0.5C12.0523 0.5 12.5 0.947716 12.5 1.5L12.5 11.5Z" fill="var(--mw-icon-background-default-white, #FFFFFF)" stroke="var(--mw-icon-border-default-gray, #616161)"/>
<path d="M3.5 5.5H4C5.65685 5.5 6.5 6 6.5 9M6.5 9L6.5 3.5M6.5 9C6.5 6 7.34315 5.5 9 5.5H9.5" stroke="var(--mw-icon-glyph-content-gray, #616162)" stroke-linejoin="round"/>
<path d="M5.5 3.5C5.5 2.94772 5.94772 2.5 6.5 2.5C7.05228 2.5 7.5 2.94772 7.5 3.5C7.5 4.05228 7.05228 4.5 6.5 4.5C5.94772 4.5 5.5 4.05228 5.5 3.5Z" fill="var(--mw-icon-background-default-action, #CBFFBE)"/>
<path d="M8.5 5.5C8.5 4.94772 8.94772 4.5 9.5 4.5C10.0523 4.5 10.5 4.94772 10.5 5.5C10.5 6.05228 10.0523 6.5 9.5 6.5C8.94772 6.5 8.5 6.05228 8.5 5.5Z" fill="var(--mw-icon-background-default-action, #CBFFBE)"/>
<path d="M2.5 5.5C2.5 4.94772 2.94772 4.5 3.5 4.5C4.05228 4.5 4.5 4.94772 4.5 5.5C4.5 6.05228 4.05228 6.5 3.5 6.5C2.94772 6.5 2.5 6.05228 2.5 5.5Z" fill="var(--mw-icon-background-default-action, #CBFFBE)"/>
<path d="M5.5 3.5C5.5 2.94772 5.94772 2.5 6.5 2.5C7.05228 2.5 7.5 2.94772 7.5 3.5C7.5 4.05228 7.05228 4.5 6.5 4.5C5.94772 4.5 5.5 4.05228 5.5 3.5Z" stroke="var(--mw-icon-glyph-content-green, #008014)"/>
<path d="M8.5 5.5C8.5 4.94772 8.94772 4.5 9.5 4.5C10.0523 4.5 10.5 4.94772 10.5 5.5C10.5 6.05228 10.0523 6.5 9.5 6.5C8.94772 6.5 8.5 6.05228 8.5 5.5Z" stroke="var(--mw-icon-glyph-content-green, #008014)"/>
<path d="M2.5 5.5C2.5 4.94772 2.94772 4.5 3.5 4.5C4.05228 4.5 4.5 4.94772 4.5 5.5C4.5 6.05228 4.05228 6.5 3.5 6.5C2.94772 6.5 2.5 6.05228 2.5 5.5Z" stroke="var(--mw-icon-glyph-content-green, #008014)"/>
<rect x="3.5" y="8.5" width="6" height="2" rx="1" fill="var(--mw-icon-background-default-medium-gray, #D9D9D9)" stroke="var(--mw-icon-glyph-disabled-gray, #888889)" stroke-linejoin="round"/>
<path d="M5.5 12.5H8.5V15.5H12.5V12.5H15.5V8.5H12.5V5.5H8.5V8.5H5.5V12.5Z" fill="var(--mw-icon-background-medium-yellow, #FFEF91)" stroke="#674C06"/>
</svg>
