<svg width="16" height="16" viewBox="0 0 16 16" fill="none" xmlns="http://www.w3.org/2000/svg">
<path d="M0.5 9.5V1.5C0.5 0.947715 0.947716 0.5 1.5 0.5H9.5C10.0523 0.5 10.5 0.947716 10.5 1.5V9.5C10.5 10.0523 10.0523 10.5 9.5 10.5H1.5C0.947715 10.5 0.5 10.0523 0.5 9.5Z" fill="var(--mw-icon-background-default-white, #FFFFFF)" stroke="var(--mw-icon-border-default-blue, #1656A7)" stroke-linejoin="round"/>
<path d="M5.5 1.5L6.5 4H9L7 6L8 9L5.5 7L3 9L4 6L2 4H4.5L5.5 1.5Z" fill="var(--mw-icon-glyph-content-light-blue, #278CDD)"/>
<path d="M5.5 12.5H8.5V15.5H12.5V12.5H15.5V8.5H12.5V5.5H8.5V8.5H5.5V12.5Z" fill="var(--mw-icon-background-medium-yellow, #FFEF91)" stroke="#674C06"/>
</svg>
