<svg width="16" height="16" viewBox="0 0 16 16" fill="none" xmlns="http://www.w3.org/2000/svg">
<path d="M0.5 9V3.58114C0.5 3.5274 0.508664 3.47401 0.525658 3.42302L1.38604 0.841886C1.45409 0.637715 1.64516 0.5 1.86038 0.5H5.13962C5.35484 0.5 5.54591 0.637715 5.61396 0.841886L6.47434 3.42302C6.49134 3.47401 6.5 3.5274 6.5 3.58114V9C6.5 9.27614 6.27614 9.5 6 9.5H1C0.723858 9.5 0.5 9.27614 0.5 9Z" fill="var(--mw-icon-background-default-selection, #B4DEFF)" stroke="var(--mw-icon-glyph-content-blue, #1656A8)" stroke-linejoin="round"/>
<path d="M3.5 11V5.58114C3.5 5.5274 3.50866 5.47401 3.52566 5.42302L4.38604 2.84189C4.45409 2.63772 4.64516 2.5 4.86038 2.5H8.13962C8.35484 2.5 8.54591 2.63772 8.61396 2.84189L9.47434 5.42302C9.49134 5.47401 9.5 5.5274 9.5 5.58114V11C9.5 11.2761 9.27614 11.5 9 11.5H4C3.72386 11.5 3.5 11.2761 3.5 11Z" fill="var(--mw-icon-background-default-selection, #B4DEFF)" stroke="var(--mw-icon-glyph-content-blue, #1656A8)" stroke-linejoin="round"/>
<path d="M6.99999 4.5C6.99999 4.77614 6.77613 5 6.49999 5C6.22385 5 5.99999 4.77614 5.99999 4.5C5.99999 4.22386 6.22385 4 6.49999 4C6.77613 4 6.99999 4.22386 6.99999 4.5Z" fill="var(--mw-icon-glyph-content-blue, #1656A8)"/>
<path d="M5.5 12.5H8.5V15.5H12.5V12.5H15.5V8.5H12.5V5.5H8.5V8.5H5.5V12.5Z" fill="var(--mw-icon-background-medium-yellow, #FFEF91)" stroke="#674C06"/>
</svg>
