<svg width="16" height="16" viewBox="0 0 16 16" fill="none" xmlns="http://www.w3.org/2000/svg">
<path d="M0.5 2.5C0.5 1.39543 1.39543 0.5 2.5 0.5H10.5C11.6046 0.5 12.5 1.39543 12.5 2.5V10.5C12.5 11.6046 11.6046 12.5 10.5 12.5H2.5C1.39543 12.5 0.5 11.6046 0.5 10.5V2.5Z" fill="var(--mw-icon-background-default-white, #FFFFFF)" stroke="var(--mw-icon-border-default-gray, #616161)"/>
<path d="M8.39474 4.33333C7.82973 4.28444 7.32554 4.50222 7.21053 5C7.21053 5.15111 8.01157 5.22222 8.63158 5.22222C9.25158 5.22222 9.57895 4.99556 9.57895 4.89778C9.57895 4.79556 9.29474 4.38667 8.39474 4.33333ZM4.60526 4.33333C3.70526 4.38667 3.42105 4.75111 3.42105 4.89778C3.42105 5 3.80342 5.22222 4.36842 5.22222C4.93342 5.22222 5.78947 5.15111 5.78947 5C5.67447 4.50222 5.11026 4.28444 4.60526 4.33333ZM8.975 7C8.02001 7 7.4 6.11111 6.5 6.11111C5.6 6.11111 4.925 7 4.025 7C2.845 7 2 6.04889 2 4.35111C2 3.30222 2.34 3 3.855 3C5.37 3 5.77 3.44444 6.5 3.44444C7.22999 3.44444 7.68 3 9.14501 3C10.61 3 11 3.35111 11 4.35111C11 6.04889 10.155 7 8.975 7Z" fill="var(--mw-icon-glyph-content-dark-gray, #333333)"/>
<path d="M5.5 12.5H8.5V15.5H12.5V12.5H15.5V8.5H12.5V5.5H8.5V8.5H5.5V12.5Z" fill="var(--mw-icon-background-medium-yellow, #FFEF91)" stroke="#674C06"/>
</svg>
