<svg width="16" height="16" viewBox="0 0 16 16" fill="none" xmlns="http://www.w3.org/2000/svg">
<path d="M12 3V7H9L5 9L1 8V6V3L5 1H9L12 3Z" fill="var(--mw-icon-background-red, #FF9D9A)"/>
<path d="M5 9L1 8V6V3L5 1H9L12 3V7H9L5 9ZM5 9L3 11" stroke="var(--mw-icon-border-default-red, #902622)" stroke-linecap="round" stroke-linejoin="bevel"/>
<path d="M9 1L5 5M5 1V5M1 3L5 9V5M1 8L5 5M5 5L9 7L12 3L5 5Z" stroke="var(--mw-icon-alert-red, #B7313C)" stroke-linecap="round" stroke-linejoin="bevel"/>
<rect y="9" width="2" height="2" rx="1" transform="rotate(-90 0 9)" fill="var(--mw-icon-glyph-content-light-blue, #278CDD)"/>
<rect y="4" width="2" height="2" rx="1" transform="rotate(-90 0 4)" fill="var(--mw-icon-glyph-content-light-blue, #278CDD)"/>
<rect x="4" y="2" width="2" height="2" rx="1" transform="rotate(-90 4 2)" fill="var(--mw-icon-glyph-content-light-blue, #278CDD)"/>
<path d="M9 2C8.44772 2 8 1.55228 8 1V1C8 0.447715 8.44772 -1.95703e-08 9 -4.37114e-08V-4.37114e-08C9.55228 -6.78525e-08 10 0.447715 10 1V1C10 1.55228 9.55228 2 9 2V2Z" fill="var(--mw-icon-glyph-content-light-blue, #278CDD)"/>
<rect x="8" y="8" width="2" height="2" rx="1" transform="rotate(-90 8 8)" fill="var(--mw-icon-glyph-content-light-blue, #278CDD)"/>
<path d="M5 6C4.44772 6 4 5.55228 4 5V5C4 4.44772 4.44772 4 5 4V4C5.55228 4 6 4.44772 6 5V5C6 5.55228 5.55228 6 5 6V6Z" fill="var(--mw-icon-glyph-content-light-blue, #278CDD)"/>
<rect x="4" y="10" width="2" height="2" rx="1" transform="rotate(-90 4 10)" fill="var(--mw-icon-glyph-content-light-blue, #278CDD)"/>
<rect x="2" y="12" width="2" height="2" rx="1" transform="rotate(-90 2 12)" fill="var(--mw-icon-glyph-content-light-blue, #278CDD)"/>
<rect x="11" y="4" width="2" height="2" rx="1" transform="rotate(-90 11 4)" fill="var(--mw-icon-glyph-content-light-blue, #278CDD)"/>
<rect x="11" y="8" width="2" height="2" rx="1" transform="rotate(-90 11 8)" fill="var(--mw-icon-glyph-content-light-blue, #278CDD)"/>
<path d="M5.5 12.5H8.5V15.5H12.5V12.5H15.5V8.5H12.5V5.5H8.5V8.5H5.5V12.5Z" fill="var(--mw-icon-background-medium-yellow, #FFEF91)" stroke="#674C06"/>
</svg>
