<svg width="16" height="16" viewBox="0 0 16 16" fill="none" xmlns="http://www.w3.org/2000/svg">
<path d="M0.5 1C0.5 0.723858 0.723858 0.5 1 0.5H5.08579C5.351 0.5 5.60536 0.605357 5.79289 0.792893L6.20711 1.20711C6.39464 1.39464 6.649 1.5 6.91421 1.5H11C11.2761 1.5 11.5 1.72386 11.5 2V8C11.5 8.27614 11.2761 8.5 11 8.5H1C0.723858 8.5 0.5 8.27614 0.5 8V1Z" fill="var(--mw-icon-background-light-yellow, #FFF5BC)" stroke="#674C06"/>
<path d="M5.5 11.5H8.5V14.5H12.5V11.5H15.5V7.5H12.5V4.5H8.5V7.5H5.5V11.5Z" fill="var(--mw-icon-background-medium-yellow, #FFEF91)" stroke="#674C06"/>
</svg>
