<svg width="16" height="16" viewBox="0 0 16 16" fill="none" xmlns="http://www.w3.org/2000/svg">
<path d="M0.5 6.9099V9.0901C0.5 9.32844 0.66823 9.53365 0.901942 9.58039L5.45145 10.4903C5.48374 10.4967 5.51658 10.5 5.54951 10.5H10.4505C10.4834 10.5 10.5163 10.4967 10.5485 10.4903L15.0981 9.58039C15.3318 9.53365 15.5 9.32844 15.5 9.0901V6.9099C15.5 6.67156 15.3318 6.46635 15.0981 6.41961L10.5485 5.50971C10.5163 5.50325 10.4834 5.5 10.4505 5.5H5.54951C5.51658 5.5 5.48374 5.50325 5.45145 5.50971L0.901942 6.41961C0.66823 6.46635 0.5 6.67156 0.5 6.9099Z" fill="#F3E3FF" stroke="#A709F5"/>
</svg>
