<svg width="16" height="16" viewBox="0 0 16 16" fill="none" xmlns="http://www.w3.org/2000/svg">
<path d="M0.5 2.5C0.5 1.39543 1.39543 0.5 2.5 0.5H13.5C14.6046 0.5 15.5 1.39543 15.5 2.5V13.5C15.5 14.6046 14.6046 15.5 13.5 15.5H2.5C1.39543 15.5 0.5 14.6046 0.5 13.5V2.5Z" fill="var(--mw-icon-background-default-white, #FFFFFF)"/>
<path d="M8 12.5L6.29307 6.81022C5.52559 4.25195 3.17091 2.5 0.5 2.5V13.5C0.5 14.6046 1.39543 15.5 2.5 15.5H13.5C14.6046 15.5 15.5 14.6046 15.5 13.5V2.5C12.8291 2.5 10.4744 4.25195 9.70693 6.81022L8 12.5Z" fill="#2FBEEF" stroke="#1171BE" stroke-linejoin="round"/>
<path d="M0.5 2.5C0.5 1.39543 1.39543 0.5 2.5 0.5H13.5C14.6046 0.5 15.5 1.39543 15.5 2.5V13.5C15.5 14.6046 14.6046 15.5 13.5 15.5H2.5C1.39543 15.5 0.5 14.6046 0.5 13.5V2.5Z" stroke="var(--mw-icon-border-default-gray, #616161)" stroke-linejoin="round"/>
</svg>
