<svg width="16" height="16" viewBox="0 0 16 16" fill="none" xmlns="http://www.w3.org/2000/svg">
<path d="M1.54492 4.5H14.454" stroke="var(--mw-icon-glyph-disabled-gray, #888889)" stroke-width="3" stroke-linecap="round" stroke-linejoin="round"/>
<path d="M3.5 1.75C3.5 1.61193 3.61193 1.5 3.75 1.5H6.25C6.38807 1.5 6.5 1.61193 6.5 1.75V6.39645C6.5 6.46275 6.47366 6.52634 6.42678 6.57322L5.17678 7.82322C5.07915 7.92085 4.92085 7.92085 4.82322 7.82322L3.57322 6.57322C3.52634 6.52634 3.5 6.46275 3.5 6.39645V1.75Z" fill="var(--mw-icon-background-default-white, #FFFFFF)" stroke="var(--mw-icon-border-default-gray, #616161)"/>
<path d="M11.5 12.5V14.5M13.5 12.5V14.5H15.5V12.5H13.5ZM1.5 12.5V14.5H3.5V12.5H1.5Z" stroke="var(--mw-icon-object-primary, #616160)" stroke-linecap="square"/>
<path d="M2.5 7.5V10.5M13.5 7.5V10.5M10.5 7.5V8.5M7.5 7.5V8.5" stroke="var(--mw-icon-border-disabled-gray, #888888)" stroke-linecap="square"/>
</svg>
