<svg width="16" height="16" viewBox="0 0 16 16" fill="none" xmlns="http://www.w3.org/2000/svg">
<path d="M1 1H15V15H1V1Z" fill="var(--mw-icon-background-default-white, #FFFFFF)"/>
<path d="M4.5 5.99999L8.5 8.33333V12L4.5 9.66666V5.99999Z" fill="var(--mw-icon-background-default-medium-gray, #D9D9D9)" stroke="var(--mw-icon-glyph-content-gray, #616162)" stroke-linejoin="round"/>
<path d="M8.5 8.33333L12.5 5.99999V9.66666L8.5 12V8.33333Z" fill="var(--mw-icon-background-default-dark-gray, #A6A6A6)" stroke="var(--mw-icon-glyph-content-gray, #616162)" stroke-linejoin="round"/>
<path d="M12.5 5.99999L8.5 3.99999L4.5 5.99999L8.5 8.33333L12.5 5.99999Z" fill="var(--mw-icon-background-default-light-gray, #F5F5F5)" stroke="var(--mw-icon-glyph-content-gray, #616162)" stroke-linejoin="round"/>
<path d="M2 1.99998V4.99998H3V2.99998H5V1.99998H2Z" fill="var(--mw-icon-glyph-content-gray, #616162)"/>
<path d="M2 11V14H5V13H3V11H2Z" fill="var(--mw-icon-glyph-content-gray, #616162)"/>
<path d="M13 2.99998H11V1.99998H14V4.99998H13V2.99998Z" fill="var(--mw-icon-glyph-content-gray, #616162)"/>
<path d="M13 11V13H11V14H14V11H13Z" fill="var(--mw-icon-glyph-content-gray, #616162)"/>
<path d="M0.5 1.5C0.5 0.947715 0.947715 0.5 1.5 0.5H14.5C15.0523 0.5 15.5 0.947715 15.5 1.5V14.5C15.5 15.0523 15.0523 15.5 14.5 15.5H1.5C0.947715 15.5 0.5 15.0523 0.5 14.5V1.5Z" stroke="var(--mw-icon-border-default-gray, #616161)" stroke-linejoin="round"/>
</svg>
