<svg width="16" height="16" viewBox="0 0 16 16" fill="none" xmlns="http://www.w3.org/2000/svg">
<path d="M0.5 11.5V1.5C0.5 0.947715 0.947715 0.5 1.5 0.5H11.5C12.0523 0.5 12.5 0.947715 12.5 1.5V11.5C12.5 12.0523 12.0523 12.5 11.5 12.5H1.5C0.947715 12.5 0.5 12.0523 0.5 11.5Z" fill="var(--mw-icon-glyph-disabled-gray, #888889)" stroke="var(--mw-icon-border-default-gray, #616161)"/>
<path d="M1.5 8.79208V3.59727L6.5 6.19467V11.3895L1.5 8.79208Z" fill="var(--mw-icon-background-default-white, #FFFFFF)"/>
<path fill-rule="evenodd" clip-rule="evenodd" d="M1.24043 3.16993C1.38972 3.07925 1.5755 3.07305 1.73049 3.15357L6.73049 5.75097C6.89609 5.83699 7 6.00807 7 6.19467V11.3895C7 11.5641 6.90885 11.7261 6.75957 11.8168C6.61028 11.9075 6.4245 11.9137 6.26951 11.8332L1.26951 9.23578C1.10391 9.14976 1 8.97868 1 8.79208V3.59727C1 3.42261 1.09115 3.2606 1.24043 3.16993ZM2 4.42045V8.48838L6 10.5663V6.49837L2 4.42045Z" fill="var(--mw-icon-glyph-disabled-gray, #888889)"/>
<path d="M11.5 8.79208V3.59727L6.5 6.19467V11.3895L11.5 8.79208Z" fill="var(--mw-icon-background-default-medium-gray, #D9D9D9)"/>
<path fill-rule="evenodd" clip-rule="evenodd" d="M11.7596 3.16993C11.6103 3.07925 11.4245 3.07305 11.2695 3.15357L6.26951 5.75097C6.10391 5.83699 6 6.00807 6 6.19467V11.3895C6 11.5641 6.09115 11.7261 6.24043 11.8168C6.38972 11.9075 6.5755 11.9137 6.73049 11.8332L11.7305 9.23578C11.8961 9.14976 12 8.97868 12 8.79208V3.59727C12 3.42261 11.9089 3.2606 11.7596 3.16993ZM11 4.42045V8.48838L7 10.5663V6.49837L11 4.42045Z" fill="var(--mw-icon-glyph-disabled-gray, #888889)"/>
<path d="M10.4154 3.59744L6.50003 5.6314L2.58465 3.59744L6.50003 1.56348L10.4154 3.59744Z" fill="white"/>
<path fill-rule="evenodd" clip-rule="evenodd" d="M12.1964 7.28276C11.9994 7.17866 11.7917 7.09214 11.5753 7.02526L11.2576 5.5H9.74242L9.42466 7.02526C9.20831 7.09214 9.00059 7.17867 8.80359 7.28276L7.50014 6.42878L6.42877 7.50015L7.28275 8.8036C7.17866 9.0006 7.09214 9.20832 7.02526 9.42466L5.5 9.74242V11.2576L7.02526 11.5753C7.09213 11.7917 7.17866 11.9994 7.28275 12.1964L6.42877 13.4998L7.50014 14.5712L8.80359 13.7172C9.00059 13.8213 9.20831 13.9079 9.42466 13.9747L9.74242 15.5H11.2576L11.5753 13.9747C11.7917 13.9079 11.9994 13.8213 12.1964 13.7172L13.4998 14.5712L14.5712 13.4998L13.7172 12.1964C13.8213 11.9994 13.9079 11.7917 13.9747 11.5753L15.5 11.2576V9.74242L13.9747 9.42466C13.9079 9.20831 13.8213 9.00059 13.7172 8.80359L14.5712 7.50015L13.4998 6.42878L12.1964 7.28276Z" fill="var(--mw-icon-background-default-medium-gray, #D9D9D9)" stroke="var(--mw-icon-border-default-gray, #616161)"/>
<path d="M12 10.5C12 11.3284 11.3284 12 10.5 12C9.67157 12 9 11.3284 9 10.5C9 9.67157 9.67157 9 10.5 9C11.3284 9 12 9.67157 12 10.5Z" fill="var(--mw-icon-glyph-disabled-gray, #888889)"/>
</svg>
