<svg width="16" height="16" viewBox="0 0 16 16" fill="none" xmlns="http://www.w3.org/2000/svg">
<path d="M0.5 12.5V2.5C0.5 1.39543 1.39543 0.5 2.5 0.5H12.5C13.6046 0.5 14.5 1.39543 14.5 2.5V12.5C14.5 13.6046 13.6046 14.5 12.5 14.5H2.5C1.39543 14.5 0.5 13.6046 0.5 12.5Z" fill="var(--mw-icon-background-default-white, #FFFFFF)"/>
<path d="M11.5 3.5C10.5369 5.27105 9.76349 6.46206 8.22581 7.88911C6.70749 9.17188 5.43722 9.76704 3.5 10.5" stroke="#1171BE" stroke-linecap="round"/>
<path d="M3.5 10.5L8.5 9.5L11.5 6.5" stroke="#DD5400" stroke-linecap="round"/>
<circle cx="3.5" cy="10.5" r="1" fill="white" stroke="#DD5400"/>
<circle cx="11.5" cy="6.5" r="1" fill="white" stroke="#DD5400"/>
<circle cx="8.5" cy="9.5" r="1" fill="white" stroke="#DD5400"/>
<path d="M0.5 12.5V2.5C0.5 1.39543 1.39543 0.5 2.5 0.5H12.5C13.6046 0.5 14.5 1.39543 14.5 2.5V12.5C14.5 13.6046 13.6046 14.5 12.5 14.5H2.5C1.39543 14.5 0.5 13.6046 0.5 12.5Z" stroke="#B7312C" stroke-linecap="round"/>
</svg>
