<svg width="16" height="17" viewBox="0 0 16 17" fill="none" xmlns="http://www.w3.org/2000/svg">
<path d="M14.057 12.4239L13.7372 12.8082L14.1463 13.1486L14.4605 12.7191L14.057 12.4239ZM7.50004 15.4836L7.4672 15.9825L7.9979 16.0174L8.00003 15.4856L7.50004 15.4836ZM15 8C15 9.54471 14.5002 10.9712 13.6535 12.1286L14.4605 12.7191C15.4284 11.3961 16 9.76408 16 8H15ZM8 1C11.866 1 15 4.13401 15 8H16C16 3.58172 12.4183 0 8 0V1ZM1 8C1 4.13401 4.13401 1 8 1V0C3.58172 0 0 3.58172 0 8H1ZM7.53287 14.9847C3.88492 14.7446 1 11.709 1 8H0C0 12.2393 3.29708 15.7081 7.4672 15.9825L7.53287 14.9847ZM8.00003 15.4856C8.00777 13.5593 9.5718 12 11.5 12V11C9.02086 11 7.00998 13.0048 7.00004 15.4816L8.00003 15.4856ZM11.5 12C12.3513 12 13.1304 12.3033 13.7372 12.8082L14.3768 12.0395C13.5971 11.3907 12.5935 11 11.5 11V12Z" fill="var(--mw-icon-object-primary, #616160)"/>
<path d="M5.5 11C5.22386 11 5 10.7761 5 10.5L5 5.5C5 5.22386 5.22386 5 5.5 5L6.5 5C6.77614 5 7 5.22386 7 5.5L7 10.5C7 10.7761 6.77614 11 6.5 11H5.5Z" fill="var(--mw-icon-object-primary, #616160)"/>
<path d="M9.5 11C9.22386 11 9 10.7761 9 10.5L9 5.5C9 5.22386 9.22386 5 9.5 5L10.5 5C10.7761 5 11 5.22386 11 5.5L11 10.5C11 10.7761 10.7761 11 10.5 11H9.5Z" fill="var(--mw-icon-object-primary, #616160)"/>
<path d="M10.5 13.5L11.5 15.5" stroke="#FF453A" stroke-linecap="round"/>
<path d="M15.5 15.5H7.5C7.5 13.2909 9.29086 11.5 11.5 11.5C13.7091 11.5 15.5 13.2909 15.5 15.5Z" stroke="var(--mw-icon-object-primary, #616160)" stroke-linecap="round"/>
</svg>
