<svg width="16" height="16" viewBox="0 0 16 16" fill="none" xmlns="http://www.w3.org/2000/svg">
<path fill-rule="evenodd" clip-rule="evenodd" d="M1.5 2V14C1.5 14.2761 1.72386 14.5 2 14.5H5C5.27614 14.5 5.5 14.2761 5.5 14V2C5.5 1.72386 5.27614 1.5 5 1.5H2C1.72386 1.5 1.5 1.72386 1.5 2ZM8.5 12.8542C9.23294 12.0238 10.3053 11.5 11.5 11.5C11.8453 11.5 12.1804 11.5438 12.5 11.626V2C12.5 1.72386 12.2761 1.5 12 1.5H9C8.72386 1.5 8.5 1.72386 8.5 2V12.8542Z" fill="var(--mw-icon-background-default-selection, #B4DEFF)"/>
<path d="M8.5 12.8542H8C8 13.0621 8.12866 13.2483 8.32313 13.3218C8.5176 13.3954 8.73729 13.3409 8.87487 13.185L8.5 12.8542ZM12.5 11.626L12.3754 12.1102C12.5251 12.1488 12.6842 12.1159 12.8063 12.0212C12.9285 11.9265 13 11.7806 13 11.626H12.5ZM2 14V2H1V14H2ZM2 14H1C1 14.5523 1.44772 15 2 15V14ZM5 14H2V15H5V14ZM5 14V15C5.55228 15 6 14.5523 6 14H5ZM5 2V14H6V2H5ZM5 2V2H6C6 1.44772 5.55229 1 5 1V2ZM2 2H5V1H2V2ZM2 2V1C1.44772 1 1 1.44772 1 2H2ZM8.87487 13.185C9.51693 12.4576 10.4547 12 11.5 12V11C10.1559 11 8.94896 11.5899 8.12513 12.5233L8.87487 13.185ZM11.5 12C11.8029 12 12.0961 12.0384 12.3754 12.1102L12.6246 11.1418C12.2646 11.0491 11.8877 11 11.5 11V12ZM12 2V11.626H13V2H12ZM12 2V2H13C13 1.44772 12.5523 1 12 1V2ZM9 2H12V1H9V2ZM9 2V1C8.44772 1 8 1.44772 8 2H9ZM9 12.8542V2H8V12.8542H9Z" fill="var(--mw-icon-border-default-blue, #1656A7)"/>
<path d="M10.5 13.5L11.5 15.5" stroke="#FF453A" stroke-linecap="round"/>
<path d="M15.5 15.5H7.5C7.5 13.2909 9.29086 11.5 11.5 11.5C13.7091 11.5 15.5 13.2909 15.5 15.5Z" stroke="var(--mw-icon-object-primary, #616160)" stroke-linecap="round"/>
</svg>
