<svg width="16" height="16" viewBox="0 0 16 16" fill="none" xmlns="http://www.w3.org/2000/svg">
<rect width="15" height="15" rx="1" transform="matrix(1 0 0 -1 0.5 15.5)" fill="var(--mw-icon-background-default-white, #FFFFFF)"/>
<path d="M15 8C13.3721 8 13.6977 13.5 12.0698 13.5C10.4419 13.5 9.79071 2.5 8.1628 2.5C6.53489 2.5 6.53488 13.5 4.90698 13.5C3.27907 13.5 3.27907 8 1.97674 8C1.32558 8 0.5 10 0.5 10" stroke="#0072BD"/>
<path d="M0.5 8.5C0.825581 9.1875 1.97674 10.75 2.62791 10.75C4.06132 10.75 3.60465 8 4.90698 8C6.2093 8 6.2093 13.5 7.83721 13.5C9.46512 13.5 9.7907 2.5 11.4186 2.5C13.0465 2.5 13.6977 13.5 15 13.5" stroke="#EDB120"/>
<path d="M0.5 10.4062C0.5 10.4062 0.548064 13.5 1.86364 13.5C3.56818 13.5 3.56818 2.5 5.27273 2.5C6.97727 2.5 7.65909 13.5 9.36364 13.5C11.0682 13.5 10.7273 8 12.0909 8C13.4545 8 13.4545 12.8125 15.5 11.0938" stroke="#D95319"/>
<rect width="15" height="15" rx="1" transform="matrix(1 0 0 -1 0.5 15.5)" stroke="var(--mw-icon-border-default-gray, #616161)"/>
</svg>
