<svg width="16" height="16" viewBox="0 0 16 16" fill="none" xmlns="http://www.w3.org/2000/svg">
<path d="M6.5 4C6.5 3.72386 6.72386 3.5 7 3.5H9.5C9.81476 3.5 10.1111 3.64819 10.3 3.9L11.2 5.1C11.3889 5.35181 11.6852 5.5 12 5.5H15C15.2761 5.5 15.5 5.72386 15.5 6V11C15.5 11.2761 15.2761 11.5 15 11.5H7C6.72386 11.5 6.5 11.2761 6.5 11V4Z" fill="var(--mw-icon-background-light-yellow, #FFF5BC)" stroke="#674C06"/>
<path d="M10.0421 11.0506L12.1048 9.20035C11.9545 8.65099 11.637 8.15438 11.1909 7.77087C10.7449 7.38735 10.1896 7.13344 9.5924 7.04001C8.99523 6.94657 8.38194 7.01762 7.82707 7.24453C7.2722 7.47144 6.79963 7.84444 6.4668 8.31819C6.50013 8.31819 10.0421 11.0506 10.0421 11.0506Z" fill="#0364B8"/>
<path d="M7.81182 8.66997C7.41711 8.44245 6.96265 8.32217 6.49919 8.32257H6.46586C6.01189 8.32842 5.5682 8.44995 5.18238 8.67411C4.79656 8.89827 4.48319 9.21661 4.27588 9.59496C4.06857 9.97331 3.97515 10.3974 4.00565 10.8217C4.03615 11.246 4.18941 11.6546 4.44899 12.0035L7.54096 11.6405L9.91202 9.8488L7.81182 8.66997Z" fill="#0078D4"/>
<path d="M12.102 9.19981H11.9687C11.6906 9.19909 11.4154 9.25225 11.1603 9.35594V9.35594L9.91016 9.84777L11.2895 11.4404L13.7564 12.0024C13.9178 11.721 14.001 11.406 13.9984 11.0864C13.9958 10.7669 13.9074 10.4532 13.7414 10.174C13.5754 9.8949 13.3371 9.65938 13.0484 9.48913C12.7597 9.31888 12.43 9.21939 12.0895 9.19981H12.102Z" fill="#1490DF"/>
<path d="M4.44922 11.9974C4.67944 12.3069 4.98607 12.5597 5.34303 12.7344C5.69998 12.909 6.0967 13.0003 6.49942 13.0005H11.9708C12.3371 12.9999 12.6965 12.9067 13.0111 12.7309C13.3257 12.555 13.5839 12.303 13.7585 12.0013L9.91225 9.84268L4.44922 11.9974Z" fill="#28A8EA"/>
</svg>
