<svg width="16" height="16" viewBox="0 0 16 16" fill="none" xmlns="http://www.w3.org/2000/svg">
<path d="M0.5 11.8333V3.16667C0.5 1.69391 1.69391 0.5 3.16667 0.5H11.8333C13.3061 0.5 14.5 1.69391 14.5 3.16667V11.8333C14.5 13.3061 13.3061 14.5 11.8333 14.5H3.16667C1.69391 14.5 0.5 13.3061 0.5 11.8333Z" fill="#00A3A3" stroke="#02555C" stroke-linecap="round"/>
<path d="M11.5 3.50003H8.5V5.49997L6.5 5.50007" stroke="var(--mw-icon-background-default-white, #FFFFFF)" stroke-linecap="round" stroke-linejoin="round"/>
<circle cx="11.5" cy="3.50003" r="1.5" fill="var(--mw-icon-background-default-white, #FFFFFF)"/>
<path d="M6.5 8.50006H8.66667H11.3333" stroke="white" stroke-linecap="round" stroke-linejoin="round"/>
<circle cx="11.5" cy="8.50006" r="1.5" fill="white"/>
<path d="M1 4.5667C1 4.52988 1.02985 4.50003 1.06667 4.50003H6C6.27614 4.50003 6.5 4.72389 6.5 5.00003V10.5C6.5 10.7762 6.27614 11 6 11H1.06667C1.02985 11 1 10.9702 1 10.9334V4.5667Z" stroke="var(--mw-icon-border-default-gray, #616161)"/>
<path d="M2.5 12.5C4.70914 12.5 6.5 11.6046 6.5 10.5C6.5 9.39546 4.70914 8.50003 2.5 8.50003C1.95483 8.50003 0.973595 8.55456 0.5 8.65331V11.9403C0.5 12.1771 0.666287 12.3807 0.901467 12.4084C1.4069 12.4679 2.08177 12.5 2.5 12.5Z" fill="#BFBFBF" stroke="var(--mw-icon-border-default-gray, #616161)"/>
<path d="M2.16667 9.50003C4.5599 9.50003 6.5 8.6046 6.5 7.50003C6.5 6.39546 4.5599 5.50003 2.16667 5.50003C1.57607 5.50003 1.01306 5.55456 0.5 5.65331V9.34675C1.01306 9.4455 1.57607 9.50003 2.16667 9.50003Z" fill="#BFBFBF" stroke="var(--mw-icon-border-default-gray, #616161)"/>
<path d="M2.16667 6.50003C4.5599 6.50003 6.5 5.6046 6.5 4.50003C6.5 3.39546 4.5599 2.50003 2.16667 2.50003C1.72867 2.50003 1.30585 2.53002 0.907319 2.5858C0.669929 2.61902 0.5 2.82655 0.5 3.06625V6.34675C1.01306 6.4455 1.57607 6.50003 2.16667 6.50003Z" fill="#E6E6E6" stroke="var(--mw-icon-border-default-gray, #616161)"/>
<path d="M8.10529 13.3684L6 11.2631L7.26317 10L9.36843 12.1053C9.71724 12.4541 9.71723 13.0197 9.36841 13.3685C9.0196 13.7173 8.45408 13.7172 8.10529 13.3684Z" fill="var(--mw-icon-background-default-light-gray, #F5F5F5)" stroke="var(--mw-icon-border-default-gray, #616161)"/>
<path d="M6.91423 8.08579C7.69527 8.86684 7.69526 10.1332 6.9142 10.9142C6.13314 11.6953 4.86681 11.6953 4.08577 10.9142C3.30473 10.1332 3.30474 8.86683 4.0858 8.08579C4.86686 7.30474 6.13319 7.30474 6.91423 8.08579Z" fill="white" stroke="var(--mw-icon-border-default-gray, #616161)"/>
<path d="M0.5 11.8333V3.16667C0.5 1.69391 1.69391 0.5 3.16667 0.5H11.8333C13.3061 0.5 14.5 1.69391 14.5 3.16667V11.8333C14.5 13.3061 13.3061 14.5 11.8333 14.5H3.16667C1.69391 14.5 0.5 13.3061 0.5 11.8333Z" stroke="#02555C" stroke-linecap="round"/>
</svg>
