<svg width="16" height="16" viewBox="0 0 16 16" fill="none" xmlns="http://www.w3.org/2000/svg">
<path d="M0.5 12.5V2.5C0.5 1.39543 1.39543 0.5 2.5 0.5H12.5C13.6046 0.5 14.5 1.39543 14.5 2.5V12.5C14.5 13.6046 13.6046 14.5 12.5 14.5H2.5C1.39543 14.5 0.5 13.6046 0.5 12.5Z" fill="var(--mw-icon-background-default-white, white)"/>
<mask id="mask0_822_3962" style="mask-type:alpha" maskUnits="userSpaceOnUse" x="-4" y="3" width="23" height="9">
<path d="M-2.71436 7.43274C-0.444514 2.93274 1.82533 2.93274 4.09517 7.43274C6.36501 11.9327 8.63485 11.9327 10.9047 7.43274C13.1745 2.93274 15.4444 2.93274 17.7142 7.43274" stroke="#FF453A" stroke-linecap="round"/>
</mask>
<g mask="url(#mask0_822_3962)">
<rect x="14.619" y="14.2693" width="14.2381" height="15.9231" transform="rotate(-180 14.619 14.2693)" fill="#FF453A"/>
</g>
<path d="M7.5 12C8.32843 12 9 11.3284 9 10.5C9 9.67157 8.32843 9 7.5 9C6.67157 9 6 9.67157 6 10.5C6 11.3284 6.67157 12 7.5 12Z" fill="var(--mw-icon-glyph-content-dark-blue, #104280)"/>
<path d="M0.5 12.5V2.5C0.5 1.39543 1.39543 0.5 2.5 0.5H12.5C13.6046 0.5 14.5 1.39543 14.5 2.5V12.5C14.5 13.6046 13.6046 14.5 12.5 14.5H2.5C1.39543 14.5 0.5 13.6046 0.5 12.5Z" stroke="#B7312C" stroke-linecap="round"/>

</svg>
