<svg width="16" height="16" viewBox="0 0 16 16" fill="none" xmlns="http://www.w3.org/2000/svg">
<path d="M0.5 12.5V2.5C0.5 1.39543 1.39543 0.5 2.5 0.5H12.5C13.6046 0.5 14.5 1.39543 14.5 2.5V12.5C14.5 13.6046 13.6046 14.5 12.5 14.5H2.5C1.39543 14.5 0.5 13.6046 0.5 12.5Z" fill="var(--mw-icon-background-default-white, #FFFFFF)"/>
<path d="M0.5 13.5C0.5 13.5 2.53846 12.5286 3.5 11.5C4.69264 10.2241 4.42777 8.87858 5.5 7.5C6.17814 6.6281 7.48898 6.34106 7.48898 6.34106C7.48898 6.34106 8.82186 6.6281 9.5 7.5C10.5722 8.87858 10.3074 10.2241 11.5 11.5C12.4615 12.5286 14.5 13.5 14.5 13.5" stroke="#FF453A" stroke-linejoin="round"/>
<path d="M7.5 5.05768C6.67157 5.05768 6 5.72925 6 6.55768C6 7.38611 6.67157 8.05768 7.5 8.05768C8.32843 8.05768 9 7.38611 9 6.55768C9 5.72925 8.32843 5.05768 7.5 5.05768Z" fill="var(--mw-icon-glyph-content-dark-blue, #104280)"/>
<path d="M0.5 12.5V2.5C0.5 1.39543 1.39543 0.5 2.5 0.5H12.5C13.6046 0.5 14.5 1.39543 14.5 2.5V12.5C14.5 13.6046 13.6046 14.5 12.5 14.5H2.5C1.39543 14.5 0.5 13.6046 0.5 12.5Z" stroke="#B7312C" stroke-linecap="round"/>
</svg>
