<svg width="16" height="16" viewBox="0 0 16 16" fill="none" xmlns="http://www.w3.org/2000/svg">
<path d="M0.5 12.5V2.5C0.5 1.39543 1.39543 0.5 2.5 0.5H12.5C13.6046 0.5 14.5 1.39543 14.5 2.5V12.5C14.5 13.6046 13.6046 14.5 12.5 14.5H2.5C1.39543 14.5 0.5 13.6046 0.5 12.5Z" fill="#1776A5"/>
<path d="M11.5 7.5C11.5 11.0049 10.0256 13.5 9 13.5C7.97436 13.5 6.5 11.0049 6.5 7.5C6.5 3.99512 7.97436 1.5 9 1.5C10.0256 1.5 11.5 3.99512 11.5 7.5Z" fill="#C9E7FF" stroke="#1776A5"/>
<path d="M3.5 1.5H8.5C8.5 1.5 6.5 3 6.5 7.5C6.5 12 8.5 13.5 8.5 13.5H3.5C3.5 13.5 3.5 10.8423 3.5 7.5C3.5 4.15765 3.5 1.5 3.5 1.5Z" fill="#C9E7FF"/>
<path d="M3.5 1.5V1C3.22386 1 3 1.22386 3 1.5H3.5ZM8.5 1.5L8.8 1.9C8.97217 1.77087 9.0424 1.54606 8.97434 1.34189C8.90628 1.13772 8.71522 1 8.5 1V1.5ZM8.5 13.5V14C8.71522 14 8.90628 13.8623 8.97434 13.6581C9.0424 13.4539 8.97217 13.2291 8.8 13.1L8.5 13.5ZM3.5 13.5H3C3 13.7761 3.22386 14 3.5 14V13.5ZM3.5 2H8.5V1H3.5V2ZM8.5 13H3.5V14H8.5V13ZM3.5 13.5C4 13.5 4 13.5 4 13.5C4 13.5 4 13.4999 4 13.4999C4 13.4998 4 13.4998 4 13.4997C4 13.4997 4 13.4996 4 13.4995C4 13.4994 4 13.4993 4 13.4992C4 13.4991 4 13.499 4 13.4989C4 13.4988 4 13.4987 4 13.4985C4 13.4984 4 13.4982 4 13.4981C4 13.4979 4 13.4977 4 13.4975C4 13.4974 4 13.4972 4 13.497C4 13.4968 4 13.4966 4 13.4963C4 13.4961 4 13.4959 4 13.4956C4 13.4954 4 13.4952 4 13.4949C4 13.4946 4 13.4944 4 13.4941C4 13.4938 4 13.4935 4 13.4932C4 13.4929 4 13.4926 4 13.4923C4 13.492 4 13.4916 4 13.4913C4 13.4909 4 13.4906 4 13.4902C4 13.4899 4 13.4895 4 13.4891C4 13.4887 4 13.4884 4 13.488C4 13.4876 4 13.4871 4 13.4867C4 13.4863 4 13.4859 4 13.4854C4 13.485 4 13.4845 4 13.4841C4 13.4836 4 13.4832 4 13.4827C4 13.4822 4 13.4817 4 13.4812C4 13.4807 4 13.4802 4 13.4797C4 13.4792 4 13.4787 4 13.4781C4 13.4776 4 13.477 4 13.4765C4 13.4759 4 13.4754 4 13.4748C4 13.4742 4 13.4736 4 13.473C4 13.4724 4 13.4718 4 13.4712C4 13.4706 4 13.47 4 13.4693C4 13.4687 4 13.4681 4 13.4674C4 13.4668 4 13.4661 4 13.4654C4 13.4647 4 13.4641 4 13.4634C4 13.4627 4 13.462 4 13.4613C4 13.4606 4 13.4598 4 13.4591C4 13.4584 4 13.4576 4 13.4569C4 13.4561 4 13.4554 4 13.4546C4 13.4538 4 13.4531 4 13.4523C4 13.4515 4 13.4507 4 13.4499C4 13.4491 4 13.4483 4 13.4474C4 13.4466 4 13.4458 4 13.4449C4 13.4441 4 13.4432 4 13.4424C4 13.4415 4 13.4406 4 13.4398C4 13.4389 4 13.438 4 13.4371C4 13.4362 4 13.4353 4 13.4343C4 13.4334 4 13.4325 4 13.4316C4 13.4306 4 13.4297 4 13.4287C4 13.4277 4 13.4268 4 13.4258C4 13.4248 4 13.4238 4 13.4228C4 13.4218 4 13.4208 4 13.4198C4 13.4188 4 13.4178 4 13.4168C4 13.4157 4 13.4147 4 13.4136C4 13.4126 4 13.4115 4 13.4104C4 13.4094 4 13.4083 4 13.4072C4 13.4061 4 13.405 4 13.4039C4 13.4028 4 13.4017 4 13.4006C4 13.3994 4 13.3983 4 13.3971C4 13.396 4 13.3948 4 13.3937C4 13.3925 4 13.3913 4 13.3902C4 13.389 4 13.3878 4 13.3866C4 13.3854 4 13.3842 4 13.383C4 13.3817 4 13.3805 4 13.3793C4 13.378 4 13.3768 4 13.3755C4 13.3743 4 13.373 4 13.3717C4 13.3705 4 13.3692 4 13.3679C4 13.3666 4 13.3653 4 13.364C4 13.3627 4 13.3614 4 13.36C4 13.3587 4 13.3574 4 13.356C4 13.3547 4 13.3533 4 13.3519C4 13.3506 4 13.3492 4 13.3478C4 13.3464 4 13.345 4 13.3436C4 13.3422 4 13.3408 4 13.3394C4 13.338 4 13.3366 4 13.3351C4 13.3337 4 13.3322 4 13.3308C4 13.3293 4 13.3279 4 13.3264C4 13.3249 4 13.3234 4 13.3219C4 13.3204 4 13.3189 4 13.3174C4 13.3159 4 13.3144 4 13.3129C4 13.3113 4 13.3098 4 13.3083C4 13.3067 4 13.3052 4 13.3036C4 13.302 4 13.3005 4 13.2989C4 13.2973 4 13.2957 4 13.2941C4 13.2925 4 13.2909 4 13.2893C4 13.2877 4 13.286 4 13.2844C4 13.2828 4 13.2811 4 13.2795C4 13.2778 4 13.2762 4 13.2745C4 13.2728 4 13.2711 4 13.2695C4 13.2678 4 13.2661 4 13.2644C4 13.2627 4 13.2609 4 13.2592C4 13.2575 4 13.2558 4 13.254C4 13.2523 4 13.2505 4 13.2488C4 13.247 4 13.2452 4 13.2435C4 13.2417 4 13.2399 4 13.2381C4 13.2363 4 13.2345 4 13.2327C4 13.2309 4 13.2291 4 13.2272C4 13.2254 4 13.2236 4 13.2217C4 13.2199 4 13.218 4 13.2162C4 13.2143 4 13.2124 4 13.2106C4 13.2087 4 13.2068 4 13.2049C4 13.203 4 13.2011 4 13.1992C4 13.1973 4 13.1953 4 13.1934C4 13.1915 4 13.1895 4 13.1876C4 13.1856 4 13.1837 4 13.1817C4 13.1797 4 13.1778 4 13.1758C4 13.1738 4 13.1718 4 13.1698C4 13.1678 4 13.1658 4 13.1638C4 13.1617 4 13.1597 4 13.1577C4 13.1556 4 13.1536 4 13.1516C4 13.1495 4 13.1474 4 13.1454C4 13.1433 4 13.1412 4 13.1391C4 13.137 4 13.135 4 13.1328C4 13.1307 4 13.1286 4 13.1265C4 13.1244 4 13.1223 4 13.1201C4 13.118 4 13.1158 4 13.1137C4 13.1115 4 13.1094 4 13.1072C4 13.105 4 13.1029 4 13.1007C4 13.0985 4 13.0963 4 13.0941C4 13.0919 4 13.0897 4 13.0874C4 13.0852 4 13.083 4 13.0807C4 13.0785 4 13.0763 4 13.074C4 13.0718 4 13.0695 4 13.0672C4 13.0649 4 13.0627 4 13.0604C4 13.0581 4 13.0558 4 13.0535C4 13.0512 4 13.0489 4 13.0465C4 13.0442 4 13.0419 4 13.0396C4 13.0372 4 13.0349 4 13.0325C4 13.0302 4 13.0278 4 13.0254C4 13.0231 4 13.0207 4 13.0183C4 13.0159 4 13.0135 4 13.0111C4 13.0087 4 13.0063 4 13.0039C4 13.0014 4 12.999 4 12.9966C4 12.9941 4 12.9917 4 12.9892C4 12.9868 4 12.9843 4 12.9819C4 12.9794 4 12.9769 4 12.9744C4 12.9719 4 12.9695 4 12.967C4 12.9644 4 12.9619 4 12.9594C4 12.9569 4 12.9544 4 12.9518C4 12.9493 4 12.9468 4 12.9442C4 12.9417 4 12.9391 4 12.9365C4 12.934 4 12.9314 4 12.9288C4 12.9262 4 12.9236 4 12.921C4 12.9184 4 12.9158 4 12.9132C4 12.9106 4 12.908 4 12.9054C4 12.9027 4 12.9001 4 12.8974C4 12.8948 4 12.8921 4 12.8895C4 12.8868 4 12.8841 4 12.8815C4 12.8788 4 12.8761 4 12.8734C4 12.8707 4 12.868 4 12.8653C4 12.8626 4 12.8599 4 12.8571C4 12.8544 4 12.8517 4 12.8489C4 12.8462 4 12.8434 4 12.8407C4 12.8379 4 12.8352 4 12.8324C4 12.8296 4 12.8268 4 12.824C4 12.8212 4 12.8184 4 12.8156C4 12.8128 4 12.81 4 12.8072C4 12.8044 4 12.8016 4 12.7987C4 12.7959 4 12.793 4 12.7902C4 12.7873 4 12.7845 4 12.7816C4 12.7787 4 12.7759 4 12.773C4 12.7701 4 12.7672 4 12.7643C4 12.7614 4 12.7585 4 12.7556C4 12.7527 4 12.7497 4 12.7468C4 12.7439 4 12.7409 4 12.738C4 12.7351 4 12.7321 4 12.7291C4 12.7262 4 12.7232 4 12.7202C4 12.7173 4 12.7143 4 12.7113C4 12.7083 4 12.7053 4 12.7023C4 12.6993 4 12.6963 4 12.6932C4 12.6902 4 12.6872 4 12.6842C4 12.6811 4 12.6781 4 12.675C4 12.672 4 12.6689 4 12.6658C4 12.6628 4 12.6597 4 12.6566C4 12.6535 4 12.6504 4 12.6473C4 12.6442 4 12.6411 4 12.638C4 12.6349 4 12.6318 4 12.6287C4 12.6255 4 12.6224 4 12.6193C4 12.6161 4 12.613 4 12.6098C4 12.6066 4 12.6035 4 12.6003C4 12.5971 4 12.5939 4 12.5908C4 12.5876 4 12.5844 4 12.5812C4 12.578 4 12.5748 4 12.5715C4 12.5683 4 12.5651 4 12.5619C4 12.5586 4 12.5554 4 12.5521C4 12.5489 4 12.5456 4 12.5424C4 12.5391 4 12.5358 4 12.5326C4 12.5293 4 12.526 4 12.5227C4 12.5194 4 12.5161 4 12.5128C4 12.5095 4 12.5062 4 12.5029C4 12.4995 4 12.4962 4 12.4929C4 12.4895 4 12.4862 4 12.4828C4 12.4795 4 12.4761 4 12.4728C4 12.4694 4 12.466 4 12.4627C4 12.4593 4 12.4559 4 12.4525C4 12.4491 4 12.4457 4 12.4423C4 12.4389 4 12.4355 4 12.432C4 12.4286 4 12.4252 4 12.4217C4 12.4183 4 12.4149 4 12.4114C4 12.4079 4 12.4045 4 12.401C4 12.3976 4 12.3941 4 12.3906C4 12.3871 4 12.3836 4 12.3801C4 12.3766 4 12.3731 4 12.3696C4 12.3661 4 12.3626 4 12.3591C4 12.3555 4 12.352 4 12.3485C4 12.3449 4 12.3414 4 12.3378C4 12.3343 4 12.3307 4 12.3272C4 12.3236 4 12.32 4 12.3164C4 12.3129 4 12.3093 4 12.3057C4 12.3021 4 12.2985 4 12.2949C4 12.2912 4 12.2876 4 12.284C4 12.2804 4 12.2768 4 12.2731C4 12.2695 4 12.2658 4 12.2622C4 12.2585 4 12.2549 4 12.2512C4 12.2475 4 12.2439 4 12.2402C4 12.2365 4 12.2328 4 12.2291C4 12.2254 4 12.2217 4 12.218C4 12.2143 4 12.2106 4 12.2069C4 12.2032 4 12.1994 4 12.1957C4 12.192 4 12.1882 4 12.1845C4 12.1807 4 12.177 4 12.1732C4 12.1694 4 12.1657 4 12.1619C4 12.1581 4 12.1543 4 12.1505C4 12.1467 4 12.1429 4 12.1391C4 12.1353 4 12.1315 4 12.1277C4 12.1239 4 12.1201 4 12.1162C4 12.1124 4 12.1086 4 12.1047C4 12.1009 4 12.097 4 12.0932C4 12.0893 4 12.0854 4 12.0816C4 12.0777 4 12.0738 4 12.0699C4 12.066 4 12.0622 4 12.0583C4 12.0544 4 12.0504 4 12.0465C4 12.0426 4 12.0387 4 12.0348C4 12.0308 4 12.0269 4 12.023C4 12.019 4 12.0151 4 12.0111C4 12.0072 4 12.0032 4 11.9993C4 11.9953 4 11.9913 4 11.9873C4 11.9834 4 11.9794 4 11.9754C4 11.9714 4 11.9674 4 11.9634C4 11.9594 4 11.9554 4 11.9513C4 11.9473 4 11.9433 4 11.9393C4 11.9352 4 11.9312 4 11.9271C4 11.9231 4 11.919 4 11.915C4 11.9109 4 11.9069 4 11.9028C4 11.8987 4 11.8946 4 11.8906C4 11.8865 4 11.8824 4 11.8783C4 11.8742 4 11.8701 4 11.866C4 11.8618 4 11.8577 4 11.8536C4 11.8495 4 11.8454 4 11.8412C4 11.8371 4 11.8329 4 11.8288C4 11.8246 4 11.8205 4 11.8163C4 11.8121 4 11.808 4 11.8038C4 11.7996 4 11.7954 4 11.7913C4 11.7871 4 11.7829 4 11.7787C4 11.7745 4 11.7703 4 11.766C4 11.7618 4 11.7576 4 11.7534C4 11.7492 4 11.7449 4 11.7407C4 11.7364 4 11.7322 4 11.7279C4 11.7237 4 11.7194 4 11.7152C4 11.7109 4 11.7066 4 11.7023C4 11.6981 4 11.6938 4 11.6895C4 11.6852 4 11.6809 4 11.6766C4 11.6723 4 11.668 4 11.6637C4 11.6594 4 11.655 4 11.6507C4 11.6464 4 11.642 4 11.6377C4 11.6334 4 11.629 4 11.6247C4 11.6203 4 11.6159 4 11.6116C4 11.6072 4 11.6028 4 11.5985C4 11.5941 4 11.5897 4 11.5853C4 11.5809 4 11.5765 4 11.5721C4 11.5677 4 11.5633 4 11.5589C4 11.5545 4 11.5501 4 11.5456C4 11.5412 4 11.5368 4 11.5323C4 11.5279 4 11.5234 4 11.519C4 11.5145 4 11.5101 4 11.5056C4 11.5012 4 11.4967 4 11.4922C4 11.4877 4 11.4832 4 11.4788C4 11.4743 4 11.4698 4 11.4653C4 11.4608 4 11.4563 4 11.4518C4 11.4472 4 11.4427 4 11.4382C4 11.4337 4 11.4291 4 11.4246C4 11.4201 4 11.4155 4 11.411C4 11.4064 4 11.4019 4 11.3973C4 11.3928 4 11.3882 4 11.3836C4 11.379 4 11.3745 4 11.3699C4 11.3653 4 11.3607 4 11.3561C4 11.3515 4 11.3469 4 11.3423C4 11.3377 4 11.3331 4 11.3285C4 11.3238 4 11.3192 4 11.3146C4 11.3099 4 11.3053 4 11.3007C4 11.296 4 11.2914 4 11.2867C4 11.2821 4 11.2774 4 11.2727C4 11.2681 4 11.2634 4 11.2587C4 11.254 4 11.2493 4 11.2447C4 11.24 4 11.2353 4 11.2306C4 11.2259 4 11.2212 4 11.2164C4 11.2117 4 11.207 4 11.2023C4 11.1976 4 11.1928 4 11.1881C4 11.1833 4 11.1786 4 11.1739C4 11.1691 4 11.1644 4 11.1596C4 11.1548 4 11.1501 4 11.1453C4 11.1405 4 11.1357 4 11.131C4 11.1262 4 11.1214 4 11.1166C4 11.1118 4 11.107 4 11.1022C4 11.0974 4 11.0926 4 11.0878C4 11.083 4 11.0781 4 11.0733C4 11.0685 4 11.0636 4 11.0588C4 11.054 4 11.0491 4 11.0443C4 11.0394 4 11.0346 4 11.0297C4 11.0248 4 11.02 4 11.0151C4 11.0102 4 11.0053 4 11.0005C4 10.9956 4 10.9907 4 10.9858C4 10.9809 4 10.976 4 10.9711C4 10.9662 4 10.9613 4 10.9564C4 10.9514 4 10.9465 4 10.9416C4 10.9367 4 10.9317 4 10.9268C4 10.9218 4 10.9169 4 10.9119C4 10.907 4 10.902 4 10.8971C4 10.8921 4 10.8871 4 10.8822C4 10.8772 4 10.8722 4 10.8672C4 10.8623 4 10.8573 4 10.8523C4 10.8473 4 10.8423 4 10.8373C4 10.8323 4 10.8273 4 10.8222C4 10.8172 4 10.8122 4 10.8072C4 10.8022 4 10.7971 4 10.7921C4 10.7871 4 10.782 4 10.777C4 10.7719 4 10.7669 4 10.7618C4 10.7567 4 10.7517 4 10.7466C4 10.7415 4 10.7365 4 10.7314C4 10.7263 4 10.7212 4 10.7161C4 10.711 4 10.7059 4 10.7008C4 10.6957 4 10.6906 4 10.6855C4 10.6804 4 10.6753 4 10.6702C4 10.6651 4 10.6599 4 10.6548C4 10.6497 4 10.6445 4 10.6394C4 10.6342 4 10.6291 4 10.6239C4 10.6188 4 10.6136 4 10.6085C4 10.6033 4 10.5981 4 10.593C4 10.5878 4 10.5826 4 10.5774C4 10.5722 4 10.567 4 10.5619C4 10.5567 4 10.5515 4 10.5463C4 10.541 4 10.5358 4 10.5306C4 10.5254 4 10.5202 4 10.515C4 10.5097 4 10.5045 4 10.4993C4 10.494 4 10.4888 4 10.4835C4 10.4783 4 10.4731 4 10.4678C4 10.4625 4 10.4573 4 10.452C4 10.4467 4 10.4415 4 10.4362C4 10.4309 4 10.4256 4 10.4204C4 10.4151 4 10.4098 4 10.4045C4 10.3992 4 10.3939 4 10.3886C4 10.3833 4 10.378 4 10.3726C4 10.3673 4 10.362 4 10.3567C4 10.3514 4 10.346 4 10.3407C4 10.3354 4 10.33 4 10.3247C4 10.3193 4 10.314 4 10.3086C4 10.3033 4 10.2979 4 10.2925C4 10.2872 4 10.2818 4 10.2764C4 10.2711 4 10.2657 4 10.2603C4 10.2549 4 10.2495 4 10.2441C4 10.2387 4 10.2333 4 10.2279C4 10.2225 4 10.2171 4 10.2117C4 10.2063 4 10.2009 4 10.1954C4 10.19 4 10.1846 4 10.1792C4 10.1737 4 10.1683 4 10.1628C4 10.1574 4 10.152 4 10.1465C4 10.141 4 10.1356 4 10.1301C4 10.1247 4 10.1192 4 10.1137C4 10.1083 4 10.1028 4 10.0973C4 10.0918 4 10.0863 4 10.0808C4 10.0754 4 10.0699 4 10.0644C4 10.0589 4 10.0534 4 10.0479C4 10.0423 4 10.0368 4 10.0313C4 10.0258 4 10.0203 4 10.0147C4 10.0092 4 10.0037 4 9.99815C4 9.99261 4 9.98707 4 9.98153C4 9.97598 4 9.97043 4 9.96488C4 9.95932 4 9.95376 4 9.9482C4 9.94263 4 9.93707 4 9.93149C4 9.92592 4 9.92034 4 9.91476C4 9.90918 4 9.90359 4 9.898C4 9.89241 4 9.88681 4 9.88121C4 9.87561 4 9.87001 4 9.8644C4 9.85879 4 9.85317 4 9.84755C4 9.84193 4 9.83631 4 9.83068C4 9.82506 4 9.81942 4 9.81379C4 9.80815 4 9.80251 4 9.79687C4 9.79122 4 9.78557 4 9.77992C4 9.77426 4 9.7686 4 9.76294C4 9.75728 4 9.75161 4 9.74594C4 9.74027 4 9.73459 4 9.72891C4 9.72323 4 9.71754 4 9.71185C4 9.70616 4 9.70047 4 9.69477C4 9.68907 4 9.68337 4 9.67766C4 9.67196 4 9.66625 4 9.66053C4 9.65481 4 9.64909 4 9.64337C4 9.63765 4 9.63192 4 9.62618C4 9.62045 4 9.61471 4 9.60897C4 9.60323 4 9.59749 4 9.59174C4 9.58599 4 9.58023 4 9.57447C4 9.56871 4 9.56295 4 9.55718C4 9.55142 4 9.54565 4 9.53987C4 9.53409 4 9.52832 4 9.52253C4 9.51675 4 9.51096 4 9.50517C4 9.49937 4 9.49358 4 9.48778C4 9.48198 4 9.47617 4 9.47036C4 9.46455 4 9.45874 4 9.45292C4 9.4471 4 9.44128 4 9.43546C4 9.42963 4 9.4238 4 9.41797C4 9.41213 4 9.4063 4 9.40045C4 9.39461 4 9.38876 4 9.38291C4 9.37706 4 9.37121 4 9.36535C4 9.35949 4 9.35363 4 9.34776C4 9.3419 4 9.33602 4 9.33015C4 9.32427 4 9.3184 4 9.31251C4 9.30663 4 9.30074 4 9.29485C4 9.28896 4 9.28307 4 9.27717C4 9.27127 4 9.26536 4 9.25946C4 9.25355 4 9.24764 4 9.24172C4 9.23581 4 9.22989 4 9.22397C4 9.21804 4 9.21212 4 9.20619C4 9.20025 4 9.19432 4 9.18838C4 9.18244 4 9.1765 4 9.17055C4 9.16461 4 9.15866 4 9.1527C4 9.14675 4 9.14079 4 9.13483C4 9.12886 4 9.1229 4 9.11693C4 9.11096 4 9.10498 4 9.09901C4 9.09303 4 9.08705 4 9.08106C4 9.07508 4 9.06909 4 9.06309C4 9.0571 4 9.0511 4 9.0451C4 9.0391 4 9.0331 4 9.02709C4 9.02108 4 9.01507 4 9.00905C4 9.00303 4 8.99702 4 8.99099C4 8.98497 4 8.97894 4 8.97291C4 8.96688 4 8.96084 4 8.9548C4 8.94877 4 8.94272 4 8.93668C4 8.93063 4 8.92458 4 8.91853C4 8.91247 4 8.90642 4 8.90036C4 8.8943 4 8.88823 4 8.88216C4 8.87609 4 8.87002 4 8.86395C4 8.85787 4 8.85179 4 8.84571C4 8.83962 4 8.83354 4 8.82745C4 8.82136 4 8.81526 4 8.80917C4 8.80307 4 8.79697 4 8.79086C4 8.78476 4 8.77865 4 8.77254C4 8.76643 4 8.76031 4 8.75419C4 8.74807 4 8.74195 4 8.73582C4 8.7297 4 8.72357 4 8.71743C4 8.7113 4 8.70516 4 8.69902C4 8.69288 4 8.68674 4 8.68059C4 8.67444 4 8.66829 4 8.66214C4 8.65598 4 8.64982 4 8.64366C4 8.6375 4 8.63133 4 8.62516C4 8.619 4 8.61282 4 8.60665C4 8.60047 4 8.59429 4 8.58811C4 8.58193 4 8.57574 4 8.56955C4 8.56336 4 8.55717 4 8.55098C4 8.54478 4 8.53858 4 8.53238C4 8.52617 4 8.51997 4 8.51376C4 8.50755 4 8.50133 4 8.49512C4 8.4889 4 8.48268 4 8.47646C4 8.47023 4 8.46401 4 8.45778C4 8.45155 4 8.44531 4 8.43908C4 8.43284 4 8.4266 4 8.42036C4 8.41411 4 8.40787 4 8.40162C4 8.39537 4 8.38911 4 8.38286C4 8.3766 4 8.37034 4 8.36408C4 8.35781 4 8.35155 4 8.34528C4 8.33901 4 8.33273 4 8.32646C4 8.32018 4 8.3139 4 8.30762C4 8.30134 4 8.29505 4 8.28876C4 8.28247 4 8.27618 4 8.26988C4 8.26359 4 8.25729 4 8.25099C4 8.24469 4 8.23838 4 8.23207C4 8.22576 4 8.21945 4 8.21314C4 8.20682 4 8.20051 4 8.19419C4 8.18786 4 8.18154 4 8.17521C4 8.16889 4 8.16256 4 8.15622C4 8.14989 4 8.14355 4 8.13721C4 8.13087 4 8.12453 4 8.11818C4 8.11184 4 8.10549 4 8.09914C4 8.09279 4 8.08643 4 8.08007C4 8.07371 4 8.06735 4 8.06099C4 8.05463 4 8.04826 4 8.04189C4 8.03552 4 8.02914 4 8.02277C4 8.01639 4 8.01001 4 8.00363C4 7.99725 4 7.99086 4 7.98447C4 7.97809 4 7.9717 4 7.9653C4 7.95891 4 7.95251 4 7.94611C4 7.93971 4 7.93331 4 7.9269C4 7.92049 4 7.91409 4 7.90767C4 7.90126 4 7.89485 4 7.88843C4 7.88201 4 7.87559 4 7.86917C4 7.86274 4 7.85632 4 7.84989C4 7.84346 4 7.83703 4 7.83059C4 7.82416 4 7.81772 4 7.81128C4 7.80484 4 7.79839 4 7.79195C4 7.7855 4 7.77905 4 7.7726C4 7.76615 4 7.75969 4 7.75324C4 7.74678 4 7.74032 4 7.73385C4 7.72739 4 7.72093 4 7.71446C4 7.70799 4 7.70152 4 7.69504C4 7.68857 4 7.68209 4 7.67561C4 7.66913 4 7.66265 4 7.65616C4 7.64968 4 7.64319 4 7.6367C4 7.63021 4 7.62371 4 7.61722C4 7.61072 4 7.60422 4 7.59772C4 7.59122 4 7.58472 4 7.57821C4 7.5717 4 7.56519 4 7.55868C4 7.55217 4 7.54565 4 7.53914C4 7.53262 4 7.5261 4 7.51958C4 7.51305 4 7.50653 4 7.5H3C3 7.50653 3 7.51305 3 7.51958C3 7.5261 3 7.53262 3 7.53914C3 7.54565 3 7.55217 3 7.55868C3 7.56519 3 7.5717 3 7.57821C3 7.58472 3 7.59122 3 7.59772C3 7.60422 3 7.61072 3 7.61722C3 7.62371 3 7.63021 3 7.6367C3 7.64319 3 7.64968 3 7.65616C3 7.66265 3 7.66913 3 7.67561C3 7.68209 3 7.68857 3 7.69504C3 7.70152 3 7.70799 3 7.71446C3 7.72093 3 7.72739 3 7.73385C3 7.74032 3 7.74678 3 7.75324C3 7.75969 3 7.76615 3 7.7726C3 7.77905 3 7.7855 3 7.79195C3 7.79839 3 7.80484 3 7.81128C3 7.81772 3 7.82416 3 7.83059C3 7.83703 3 7.84346 3 7.84989C3 7.85632 3 7.86274 3 7.86917C3 7.87559 3 7.88201 3 7.88843C3 7.89485 3 7.90126 3 7.90767C3 7.91409 3 7.92049 3 7.9269C3 7.93331 3 7.93971 3 7.94611C3 7.95251 3 7.95891 3 7.9653C3 7.9717 3 7.97809 3 7.98447C3 7.99086 3 7.99725 3 8.00363C3 8.01001 3 8.01639 3 8.02277C3 8.02914 3 8.03552 3 8.04189C3 8.04826 3 8.05463 3 8.06099C3 8.06735 3 8.07371 3 8.08007C3 8.08643 3 8.09279 3 8.09914C3 8.10549 3 8.11184 3 8.11818C3 8.12453 3 8.13087 3 8.13721C3 8.14355 3 8.14989 3 8.15622C3 8.16256 3 8.16889 3 8.17521C3 8.18154 3 8.18786 3 8.19419C3 8.20051 3 8.20682 3 8.21314C3 8.21945 3 8.22576 3 8.23207C3 8.23838 3 8.24469 3 8.25099C3 8.25729 3 8.26359 3 8.26988C3 8.27618 3 8.28247 3 8.28876C3 8.29505 3 8.30134 3 8.30762C3 8.3139 3 8.32018 3 8.32646C3 8.33273 3 8.33901 3 8.34528C3 8.35155 3 8.35781 3 8.36408C3 8.37034 3 8.3766 3 8.38286C3 8.38911 3 8.39537 3 8.40162C3 8.40787 3 8.41411 3 8.42036C3 8.4266 3 8.43284 3 8.43908C3 8.44531 3 8.45155 3 8.45778C3 8.46401 3 8.47023 3 8.47646C3 8.48268 3 8.4889 3 8.49512C3 8.50133 3 8.50755 3 8.51376C3 8.51997 3 8.52617 3 8.53238C3 8.53858 3 8.54478 3 8.55098C3 8.55717 3 8.56336 3 8.56955C3 8.57574 3 8.58193 3 8.58811C3 8.59429 3 8.60047 3 8.60665C3 8.61282 3 8.619 3 8.62516C3 8.63133 3 8.6375 3 8.64366C3 8.64982 3 8.65598 3 8.66214C3 8.66829 3 8.67444 3 8.68059C3 8.68674 3 8.69288 3 8.69902C3 8.70516 3 8.7113 3 8.71743C3 8.72357 3 8.7297 3 8.73582C3 8.74195 3 8.74807 3 8.75419C3 8.76031 3 8.76643 3 8.77254C3 8.77865 3 8.78476 3 8.79086C3 8.79697 3 8.80307 3 8.80917C3 8.81526 3 8.82136 3 8.82745C3 8.83354 3 8.83962 3 8.84571C3 8.85179 3 8.85787 3 8.86395C3 8.87002 3 8.87609 3 8.88216C3 8.88823 3 8.8943 3 8.90036C3 8.90642 3 8.91247 3 8.91853C3 8.92458 3 8.93063 3 8.93668C3 8.94272 3 8.94877 3 8.9548C3 8.96084 3 8.96688 3 8.97291C3 8.97894 3 8.98497 3 8.99099C3 8.99702 3 9.00303 3 9.00905C3 9.01507 3 9.02108 3 9.02709C3 9.0331 3 9.0391 3 9.0451C3 9.0511 3 9.0571 3 9.06309C3 9.06909 3 9.07508 3 9.08106C3 9.08705 3 9.09303 3 9.09901C3 9.10498 3 9.11096 3 9.11693C3 9.1229 3 9.12886 3 9.13483C3 9.14079 3 9.14675 3 9.1527C3 9.15866 3 9.16461 3 9.17055C3 9.1765 3 9.18244 3 9.18838C3 9.19432 3 9.20025 3 9.20619C3 9.21212 3 9.21804 3 9.22397C3 9.22989 3 9.23581 3 9.24172C3 9.24764 3 9.25355 3 9.25946C3 9.26536 3 9.27127 3 9.27717C3 9.28307 3 9.28896 3 9.29485C3 9.30074 3 9.30663 3 9.31251C3 9.3184 3 9.32427 3 9.33015C3 9.33602 3 9.3419 3 9.34776C3 9.35363 3 9.35949 3 9.36535C3 9.37121 3 9.37706 3 9.38291C3 9.38876 3 9.39461 3 9.40045C3 9.4063 3 9.41213 3 9.41797C3 9.4238 3 9.42963 3 9.43546C3 9.44128 3 9.4471 3 9.45292C3 9.45874 3 9.46455 3 9.47036C3 9.47617 3 9.48198 3 9.48778C3 9.49358 3 9.49937 3 9.50517C3 9.51096 3 9.51675 3 9.52253C3 9.52832 3 9.53409 3 9.53987C3 9.54565 3 9.55142 3 9.55718C3 9.56295 3 9.56871 3 9.57447C3 9.58023 3 9.58599 3 9.59174C3 9.59749 3 9.60323 3 9.60897C3 9.61471 3 9.62045 3 9.62618C3 9.63192 3 9.63765 3 9.64337C3 9.64909 3 9.65481 3 9.66053C3 9.66625 3 9.67196 3 9.67766C3 9.68337 3 9.68907 3 9.69477C3 9.70047 3 9.70616 3 9.71185C3 9.71754 3 9.72323 3 9.72891C3 9.73459 3 9.74027 3 9.74594C3 9.75161 3 9.75728 3 9.76294C3 9.7686 3 9.77426 3 9.77992C3 9.78557 3 9.79122 3 9.79687C3 9.80251 3 9.80815 3 9.81379C3 9.81942 3 9.82506 3 9.83068C3 9.83631 3 9.84193 3 9.84755C3 9.85317 3 9.85879 3 9.8644C3 9.87001 3 9.87561 3 9.88121C3 9.88681 3 9.89241 3 9.898C3 9.90359 3 9.90918 3 9.91476C3 9.92034 3 9.92592 3 9.93149C3 9.93707 3 9.94263 3 9.9482C3 9.95376 3 9.95932 3 9.96488C3 9.97043 3 9.97598 3 9.98153C3 9.98707 3 9.99261 3 9.99815C3 10.0037 3 10.0092 3 10.0147C3 10.0203 3 10.0258 3 10.0313C3 10.0368 3 10.0423 3 10.0479C3 10.0534 3 10.0589 3 10.0644C3 10.0699 3 10.0754 3 10.0808C3 10.0863 3 10.0918 3 10.0973C3 10.1028 3 10.1083 3 10.1137C3 10.1192 3 10.1247 3 10.1301C3 10.1356 3 10.141 3 10.1465C3 10.152 3 10.1574 3 10.1628C3 10.1683 3 10.1737 3 10.1792C3 10.1846 3 10.19 3 10.1954C3 10.2009 3 10.2063 3 10.2117C3 10.2171 3 10.2225 3 10.2279C3 10.2333 3 10.2387 3 10.2441C3 10.2495 3 10.2549 3 10.2603C3 10.2657 3 10.2711 3 10.2764C3 10.2818 3 10.2872 3 10.2925C3 10.2979 3 10.3033 3 10.3086C3 10.314 3 10.3193 3 10.3247C3 10.33 3 10.3354 3 10.3407C3 10.346 3 10.3514 3 10.3567C3 10.362 3 10.3673 3 10.3726C3 10.378 3 10.3833 3 10.3886C3 10.3939 3 10.3992 3 10.4045C3 10.4098 3 10.4151 3 10.4204C3 10.4256 3 10.4309 3 10.4362C3 10.4415 3 10.4467 3 10.452C3 10.4573 3 10.4625 3 10.4678C3 10.4731 3 10.4783 3 10.4835C3 10.4888 3 10.494 3 10.4993C3 10.5045 3 10.5097 3 10.515C3 10.5202 3 10.5254 3 10.5306C3 10.5358 3 10.541 3 10.5463C3 10.5515 3 10.5567 3 10.5619C3 10.567 3 10.5722 3 10.5774C3 10.5826 3 10.5878 3 10.593C3 10.5981 3 10.6033 3 10.6085C3 10.6136 3 10.6188 3 10.6239C3 10.6291 3 10.6342 3 10.6394C3 10.6445 3 10.6497 3 10.6548C3 10.6599 3 10.6651 3 10.6702C3 10.6753 3 10.6804 3 10.6855C3 10.6906 3 10.6957 3 10.7008C3 10.7059 3 10.711 3 10.7161C3 10.7212 3 10.7263 3 10.7314C3 10.7365 3 10.7415 3 10.7466C3 10.7517 3 10.7567 3 10.7618C3 10.7669 3 10.7719 3 10.777C3 10.782 3 10.7871 3 10.7921C3 10.7971 3 10.8022 3 10.8072C3 10.8122 3 10.8172 3 10.8222C3 10.8273 3 10.8323 3 10.8373C3 10.8423 3 10.8473 3 10.8523C3 10.8573 3 10.8623 3 10.8672C3 10.8722 3 10.8772 3 10.8822C3 10.8871 3 10.8921 3 10.8971C3 10.902 3 10.907 3 10.9119C3 10.9169 3 10.9218 3 10.9268C3 10.9317 3 10.9367 3 10.9416C3 10.9465 3 10.9514 3 10.9564C3 10.9613 3 10.9662 3 10.9711C3 10.976 3 10.9809 3 10.9858C3 10.9907 3 10.9956 3 11.0005C3 11.0053 3 11.0102 3 11.0151C3 11.02 3 11.0248 3 11.0297C3 11.0346 3 11.0394 3 11.0443C3 11.0491 3 11.054 3 11.0588C3 11.0636 3 11.0685 3 11.0733C3 11.0781 3 11.083 3 11.0878C3 11.0926 3 11.0974 3 11.1022C3 11.107 3 11.1118 3 11.1166C3 11.1214 3 11.1262 3 11.131C3 11.1357 3 11.1405 3 11.1453C3 11.1501 3 11.1548 3 11.1596C3 11.1644 3 11.1691 3 11.1739C3 11.1786 3 11.1833 3 11.1881C3 11.1928 3 11.1976 3 11.2023C3 11.207 3 11.2117 3 11.2164C3 11.2212 3 11.2259 3 11.2306C3 11.2353 3 11.24 3 11.2447C3 11.2493 3 11.254 3 11.2587C3 11.2634 3 11.2681 3 11.2727C3 11.2774 3 11.2821 3 11.2867C3 11.2914 3 11.296 3 11.3007C3 11.3053 3 11.3099 3 11.3146C3 11.3192 3 11.3238 3 11.3285C3 11.3331 3 11.3377 3 11.3423C3 11.3469 3 11.3515 3 11.3561C3 11.3607 3 11.3653 3 11.3699C3 11.3745 3 11.379 3 11.3836C3 11.3882 3 11.3928 3 11.3973C3 11.4019 3 11.4064 3 11.411C3 11.4155 3 11.4201 3 11.4246C3 11.4291 3 11.4337 3 11.4382C3 11.4427 3 11.4472 3 11.4518C3 11.4563 3 11.4608 3 11.4653C3 11.4698 3 11.4743 3 11.4788C3 11.4832 3 11.4877 3 11.4922C3 11.4967 3 11.5012 3 11.5056C3 11.5101 3 11.5145 3 11.519C3 11.5234 3 11.5279 3 11.5323C3 11.5368 3 11.5412 3 11.5456C3 11.5501 3 11.5545 3 11.5589C3 11.5633 3 11.5677 3 11.5721C3 11.5765 3 11.5809 3 11.5853C3 11.5897 3 11.5941 3 11.5985C3 11.6028 3 11.6072 3 11.6116C3 11.6159 3 11.6203 3 11.6247C3 11.629 3 11.6334 3 11.6377C3 11.642 3 11.6464 3 11.6507C3 11.655 3 11.6594 3 11.6637C3 11.668 3 11.6723 3 11.6766C3 11.6809 3 11.6852 3 11.6895C3 11.6938 3 11.6981 3 11.7023C3 11.7066 3 11.7109 3 11.7152C3 11.7194 3 11.7237 3 11.7279C3 11.7322 3 11.7364 3 11.7407C3 11.7449 3 11.7492 3 11.7534C3 11.7576 3 11.7618 3 11.766C3 11.7703 3 11.7745 3 11.7787C3 11.7829 3 11.7871 3 11.7913C3 11.7954 3 11.7996 3 11.8038C3 11.808 3 11.8121 3 11.8163C3 11.8205 3 11.8246 3 11.8288C3 11.8329 3 11.8371 3 11.8412C3 11.8454 3 11.8495 3 11.8536C3 11.8577 3 11.8618 3 11.866C3 11.8701 3 11.8742 3 11.8783C3 11.8824 3 11.8865 3 11.8906C3 11.8946 3 11.8987 3 11.9028C3 11.9069 3 11.9109 3 11.915C3 11.919 3 11.9231 3 11.9271C3 11.9312 3 11.9352 3 11.9393C3 11.9433 3 11.9473 3 11.9513C3 11.9554 3 11.9594 3 11.9634C3 11.9674 3 11.9714 3 11.9754C3 11.9794 3 11.9834 3 11.9873C3 11.9913 3 11.9953 3 11.9993C3 12.0032 3 12.0072 3 12.0111C3 12.0151 3 12.019 3 12.023C3 12.0269 3 12.0308 3 12.0348C3 12.0387 3 12.0426 3 12.0465C3 12.0504 3 12.0544 3 12.0583C3 12.0622 3 12.066 3 12.0699C3 12.0738 3 12.0777 3 12.0816C3 12.0854 3 12.0893 3 12.0932C3 12.097 3 12.1009 3 12.1047C3 12.1086 3 12.1124 3 12.1162C3 12.1201 3 12.1239 3 12.1277C3 12.1315 3 12.1353 3 12.1391C3 12.1429 3 12.1467 3 12.1505C3 12.1543 3 12.1581 3 12.1619C3 12.1657 3 12.1694 3 12.1732C3 12.177 3 12.1807 3 12.1845C3 12.1882 3 12.192 3 12.1957C3 12.1994 3 12.2032 3 12.2069C3 12.2106 3 12.2143 3 12.218C3 12.2217 3 12.2254 3 12.2291C3 12.2328 3 12.2365 3 12.2402C3 12.2439 3 12.2475 3 12.2512C3 12.2549 3 12.2585 3 12.2622C3 12.2658 3 12.2695 3 12.2731C3 12.2768 3 12.2804 3 12.284C3 12.2876 3 12.2912 3 12.2949C3 12.2985 3 12.3021 3 12.3057C3 12.3093 3 12.3129 3 12.3164C3 12.32 3 12.3236 3 12.3272C3 12.3307 3 12.3343 3 12.3378C3 12.3414 3 12.3449 3 12.3485C3 12.352 3 12.3555 3 12.3591C3 12.3626 3 12.3661 3 12.3696C3 12.3731 3 12.3766 3 12.3801C3 12.3836 3 12.3871 3 12.3906C3 12.3941 3 12.3976 3 12.401C3 12.4045 3 12.4079 3 12.4114C3 12.4149 3 12.4183 3 12.4217C3 12.4252 3 12.4286 3 12.432C3 12.4355 3 12.4389 3 12.4423C3 12.4457 3 12.4491 3 12.4525C3 12.4559 3 12.4593 3 12.4627C3 12.466 3 12.4694 3 12.4728C3 12.4761 3 12.4795 3 12.4828C3 12.4862 3 12.4895 3 12.4929C3 12.4962 3 12.4995 3 12.5029C3 12.5062 3 12.5095 3 12.5128C3 12.5161 3 12.5194 3 12.5227C3 12.526 3 12.5293 3 12.5326C3 12.5358 3 12.5391 3 12.5424C3 12.5456 3 12.5489 3 12.5521C3 12.5554 3 12.5586 3 12.5619C3 12.5651 3 12.5683 3 12.5715C3 12.5748 3 12.578 3 12.5812C3 12.5844 3 12.5876 3 12.5908C3 12.5939 3 12.5971 3 12.6003C3 12.6035 3 12.6066 3 12.6098C3 12.613 3 12.6161 3 12.6193C3 12.6224 3 12.6255 3 12.6287C3 12.6318 3 12.6349 3 12.638C3 12.6411 3 12.6442 3 12.6473C3 12.6504 3 12.6535 3 12.6566C3 12.6597 3 12.6628 3 12.6658C3 12.6689 3 12.672 3 12.675C3 12.6781 3 12.6811 3 12.6842C3 12.6872 3 12.6902 3 12.6932C3 12.6963 3 12.6993 3 12.7023C3 12.7053 3 12.7083 3 12.7113C3 12.7143 3 12.7173 3 12.7202C3 12.7232 3 12.7262 3 12.7291C3 12.7321 3 12.7351 3 12.738C3 12.7409 3 12.7439 3 12.7468C3 12.7497 3 12.7527 3 12.7556C3 12.7585 3 12.7614 3 12.7643C3 12.7672 3 12.7701 3 12.773C3 12.7759 3 12.7787 3 12.7816C3 12.7845 3 12.7873 3 12.7902C3 12.793 3 12.7959 3 12.7987C3 12.8016 3 12.8044 3 12.8072C3 12.81 3 12.8128 3 12.8156C3 12.8184 3 12.8212 3 12.824C3 12.8268 3 12.8296 3 12.8324C3 12.8352 3 12.8379 3 12.8407C3 12.8434 3 12.8462 3 12.8489C3 12.8517 3 12.8544 3 12.8571C3 12.8599 3 12.8626 3 12.8653C3 12.868 3 12.8707 3 12.8734C3 12.8761 3 12.8788 3 12.8815C3 12.8841 3 12.8868 3 12.8895C3 12.8921 3 12.8948 3 12.8974C3 12.9001 3 12.9027 3 12.9054C3 12.908 3 12.9106 3 12.9132C3 12.9158 3 12.9184 3 12.921C3 12.9236 3 12.9262 3 12.9288C3 12.9314 3 12.934 3 12.9365C3 12.9391 3 12.9417 3 12.9442C3 12.9468 3 12.9493 3 12.9518C3 12.9544 3 12.9569 3 12.9594C3 12.9619 3 12.9644 3 12.967C3 12.9695 3 12.9719 3 12.9744C3 12.9769 3 12.9794 3 12.9819C3 12.9843 3 12.9868 3 12.9892C3 12.9917 3 12.9941 3 12.9966C3 12.999 3 13.0014 3 13.0039C3 13.0063 3 13.0087 3 13.0111C3 13.0135 3 13.0159 3 13.0183C3 13.0207 3 13.0231 3 13.0254C3 13.0278 3 13.0302 3 13.0325C3 13.0349 3 13.0372 3 13.0396C3 13.0419 3 13.0442 3 13.0465C3 13.0489 3 13.0512 3 13.0535C3 13.0558 3 13.0581 3 13.0604C3 13.0627 3 13.0649 3 13.0672C3 13.0695 3 13.0718 3 13.074C3 13.0763 3 13.0785 3 13.0807C3 13.083 3 13.0852 3 13.0874C3 13.0897 3 13.0919 3 13.0941C3 13.0963 3 13.0985 3 13.1007C3 13.1029 3 13.105 3 13.1072C3 13.1094 3 13.1115 3 13.1137C3 13.1158 3 13.118 3 13.1201C3 13.1223 3 13.1244 3 13.1265C3 13.1286 3 13.1307 3 13.1328C3 13.135 3 13.137 3 13.1391C3 13.1412 3 13.1433 3 13.1454C3 13.1474 3 13.1495 3 13.1516C3 13.1536 3 13.1556 3 13.1577C3 13.1597 3 13.1617 3 13.1638C3 13.1658 3 13.1678 3 13.1698C3 13.1718 3 13.1738 3 13.1758C3 13.1778 3 13.1797 3 13.1817C3 13.1837 3 13.1856 3 13.1876C3 13.1895 3 13.1915 3 13.1934C3 13.1953 3 13.1973 3 13.1992C3 13.2011 3 13.203 3 13.2049C3 13.2068 3 13.2087 3 13.2106C3 13.2124 3 13.2143 3 13.2162C3 13.218 3 13.2199 3 13.2217C3 13.2236 3 13.2254 3 13.2272C3 13.2291 3 13.2309 3 13.2327C3 13.2345 3 13.2363 3 13.2381C3 13.2399 3 13.2417 3 13.2435C3 13.2452 3 13.247 3 13.2488C3 13.2505 3 13.2523 3 13.254C3 13.2558 3 13.2575 3 13.2592C3 13.2609 3 13.2627 3 13.2644C3 13.2661 3 13.2678 3 13.2695C3 13.2711 3 13.2728 3 13.2745C3 13.2762 3 13.2778 3 13.2795C3 13.2811 3 13.2828 3 13.2844C3 13.286 3 13.2877 3 13.2893C3 13.2909 3 13.2925 3 13.2941C3 13.2957 3 13.2973 3 13.2989C3 13.3005 3 13.302 3 13.3036C3 13.3052 3 13.3067 3 13.3083C3 13.3098 3 13.3113 3 13.3129C3 13.3144 3 13.3159 3 13.3174C3 13.3189 3 13.3204 3 13.3219C3 13.3234 3 13.3249 3 13.3264C3 13.3279 3 13.3293 3 13.3308C3 13.3322 3 13.3337 3 13.3351C3 13.3366 3 13.338 3 13.3394C3 13.3408 3 13.3422 3 13.3436C3 13.345 3 13.3464 3 13.3478C3 13.3492 3 13.3506 3 13.3519C3 13.3533 3 13.3547 3 13.356C3 13.3574 3 13.3587 3 13.36C3 13.3614 3 13.3627 3 13.364C3 13.3653 3 13.3666 3 13.3679C3 13.3692 3 13.3705 3 13.3717C3 13.373 3 13.3743 3 13.3755C3 13.3768 3 13.378 3 13.3793C3 13.3805 3 13.3817 3 13.383C3 13.3842 3 13.3854 3 13.3866C3 13.3878 3 13.389 3 13.3902C3 13.3913 3 13.3925 3 13.3937C3 13.3948 3 13.396 3 13.3971C3 13.3983 3 13.3994 3 13.4006C3 13.4017 3 13.4028 3 13.4039C3 13.405 3 13.4061 3 13.4072C3 13.4083 3 13.4094 3 13.4104C3 13.4115 3 13.4126 3 13.4136C3 13.4147 3 13.4157 3 13.4168C3 13.4178 3 13.4188 3 13.4198C3 13.4208 3 13.4218 3 13.4228C3 13.4238 3 13.4248 3 13.4258C3 13.4268 3 13.4277 3 13.4287C3 13.4297 3 13.4306 3 13.4316C3 13.4325 3 13.4334 3 13.4343C3 13.4353 3 13.4362 3 13.4371C3 13.438 3 13.4389 3 13.4398C3 13.4406 3 13.4415 3 13.4424C3 13.4432 3 13.4441 3 13.4449C3 13.4458 3 13.4466 3 13.4474C3 13.4483 3 13.4491 3 13.4499C3 13.4507 3 13.4515 3 13.4523C3 13.4531 3 13.4538 3 13.4546C3 13.4554 3 13.4561 3 13.4569C3 13.4576 3 13.4584 3 13.4591C3 13.4598 3 13.4606 3 13.4613C3 13.462 3 13.4627 3 13.4634C3 13.4641 3 13.4647 3 13.4654C3 13.4661 3 13.4668 3 13.4674C3 13.4681 3 13.4687 3 13.4693C3 13.47 3 13.4706 3 13.4712C3 13.4718 3 13.4724 3 13.473C3 13.4736 3 13.4742 3 13.4748C3 13.4754 3 13.4759 3 13.4765C3 13.477 3 13.4776 3 13.4781C3 13.4787 3 13.4792 3 13.4797C3 13.4802 3 13.4807 3 13.4812C3 13.4817 3 13.4822 3 13.4827C3 13.4832 3 13.4836 3 13.4841C3 13.4845 3 13.485 3 13.4854C3 13.4859 3 13.4863 3 13.4867C3 13.4871 3 13.4876 3 13.488C3 13.4884 3 13.4887 3 13.4891C3 13.4895 3 13.4899 3 13.4902C3 13.4906 3 13.4909 3 13.4913C3 13.4916 3 13.492 3 13.4923C3 13.4926 3 13.4929 3 13.4932C3 13.4935 3 13.4938 3 13.4941C3 13.4944 3 13.4946 3 13.4949C3 13.4952 3 13.4954 3 13.4956C3 13.4959 3 13.4961 3 13.4963C3 13.4966 3 13.4968 3 13.497C3 13.4972 3 13.4974 3 13.4975C3 13.4977 3 13.4979 3 13.4981C3 13.4982 3 13.4984 3 13.4985C3 13.4987 3 13.4988 3 13.4989C3 13.499 3 13.4991 3 13.4992C3 13.4993 3 13.4994 3 13.4995C3 13.4996 3 13.4997 3 13.4997C3 13.4998 3 13.4998 3 13.4999C3 13.4999 3 13.5 3 13.5C3 13.5 3 13.5 3.5 13.5ZM4 7.5C4 7.49347 4 7.48695 4 7.48042C4 7.4739 4 7.46738 4 7.46086C4 7.45435 4 7.44783 4 7.44132C4 7.43481 4 7.4283 4 7.42179C4 7.41528 4 7.40878 4 7.40228C4 7.39578 4 7.38928 4 7.38278C4 7.37628 4 7.36979 4 7.3633C4 7.35681 4 7.35032 4 7.34384C4 7.33735 4 7.33087 4 7.32439C4 7.31791 4 7.31143 4 7.30496C4 7.29848 4 7.29201 4 7.28554C4 7.27907 4 7.27261 4 7.26614C4 7.25968 4 7.25322 4 7.24676C4 7.24031 4 7.23385 4 7.2274C4 7.22095 4 7.2145 4 7.20805C4 7.2016 4 7.19516 4 7.18872C4 7.18228 4 7.17584 4 7.16941C4 7.16297 4 7.15654 4 7.15011C4 7.14368 4 7.13726 4 7.13083C4 7.12441 4 7.11799 4 7.11157C4 7.10515 4 7.09874 4 7.09233C4 7.08591 4 7.0795 4 7.0731C4 7.06669 4 7.06029 4 7.05389C4 7.04749 4 7.04109 4 7.0347C4 7.0283 4 7.02191 4 7.01552C4 7.00914 4 7.00275 4 6.99637C4 6.98999 4 6.98361 4 6.97723C4 6.97085 4 6.96448 4 6.95811C4 6.95174 4 6.94537 4 6.93901C4 6.93265 4 6.92628 4 6.91993C4 6.91357 4 6.90721 4 6.90086C4 6.89451 4 6.88816 4 6.88181C4 6.87547 4 6.86913 4 6.86279C4 6.85645 4 6.85011 4 6.84378C4 6.83744 4 6.83111 4 6.82479C4 6.81846 4 6.81213 4 6.80581C4 6.79949 4 6.79317 4 6.78686C4 6.78055 4 6.77423 4 6.76793C4 6.76162 4 6.75531 4 6.74901C4 6.74271 4 6.73641 4 6.73011C4 6.72382 4 6.71753 4 6.71124C4 6.70495 4 6.69866 4 6.69238C4 6.6861 4 6.67982 4 6.67354C4 6.66726 4 6.66099 4 6.65472C4 6.64845 4 6.64219 4 6.63592C4 6.62966 4 6.6234 4 6.61714C4 6.61089 4 6.60463 4 6.59838C4 6.59213 4 6.58589 4 6.57964C4 6.5734 4 6.56716 4 6.56092C4 6.55469 4 6.54845 4 6.54222C4 6.53599 4 6.52977 4 6.52354C4 6.51732 4 6.5111 4 6.50488C4 6.49867 4 6.49245 4 6.48624C4 6.48003 4 6.47383 4 6.46762C4 6.46142 4 6.45522 4 6.44902C4 6.44283 4 6.43663 4 6.43045C4 6.42426 4 6.41807 4 6.41189C4 6.40571 4 6.39953 4 6.39335C4 6.38717 4 6.381 4 6.37483C4 6.36867 4 6.3625 4 6.35634C4 6.35018 4 6.34402 4 6.33786C4 6.33171 4 6.32556 4 6.31941C4 6.31326 4 6.30712 4 6.30098C4 6.29484 4 6.2887 4 6.28257C4 6.27643 4 6.2703 4 6.26418C4 6.25805 4 6.25193 4 6.24581C4 6.23969 4 6.23357 4 6.22746C4 6.22135 4 6.21524 4 6.20914C4 6.20303 4 6.19693 4 6.19083C4 6.18474 4 6.17864 4 6.17255C4 6.16646 4 6.16037 4 6.15429C4 6.14821 4 6.14213 4 6.13605C4 6.12998 4 6.12391 4 6.11784C4 6.11177 4 6.1057 4 6.09964C4 6.09358 4 6.08752 4 6.08147C4 6.07542 4 6.06937 4 6.06332C4 6.05728 4 6.05123 4 6.04519C4 6.03916 4 6.03312 4 6.02709C4 6.02106 4 6.01503 4 6.00901C4 6.00298 4 5.99696 4 5.99095C4 5.98493 4 5.97892 4 5.97291C4 5.9669 4 5.9609 4 5.9549C4 5.9489 4 5.9429 4 5.93691C4 5.93091 4 5.92492 4 5.91894C4 5.91295 4 5.90697 4 5.90099C4 5.89502 4 5.88904 4 5.88307C4 5.8771 4 5.87114 4 5.86517C4 5.85921 4 5.85325 4 5.8473C4 5.84134 4 5.83539 4 5.82945C4 5.8235 4 5.81756 4 5.81162C4 5.80568 4 5.79974 4 5.79381C4 5.78788 4 5.78196 4 5.77603C4 5.77011 4 5.76419 4 5.75828C4 5.75236 4 5.74645 4 5.74054C4 5.73464 4 5.72873 4 5.72283C4 5.71693 4 5.71104 4 5.70515C4 5.69926 4 5.69337 4 5.68749C4 5.6816 4 5.67572 4 5.66985C4 5.66397 4 5.6581 4 5.65224C4 5.64637 4 5.64051 4 5.63465C4 5.62879 4 5.62294 4 5.61709C4 5.61123 4 5.60539 4 5.59955C4 5.5937 4 5.58787 4 5.58203C4 5.5762 4 5.57037 4 5.56454C4 5.55872 4 5.55289 4 5.54708C4 5.54126 4 5.53545 4 5.52964C4 5.52383 4 5.51802 4 5.51222C4 5.50642 4 5.50063 4 5.49483C4 5.48904 4 5.48325 4 5.47747C4 5.47168 4 5.4659 4 5.46013C4 5.45435 4 5.44858 4 5.44281C4 5.43705 4 5.43128 4 5.42553C4 5.41977 4 5.41401 4 5.40826C4 5.40251 4 5.39677 4 5.39103C4 5.38528 4 5.37955 4 5.37381C4 5.36808 4 5.36235 4 5.35663C4 5.3509 4 5.34518 4 5.33947C4 5.33375 4 5.32804 4 5.32234C4 5.31663 4 5.31093 4 5.30523C4 5.29953 4 5.29384 4 5.28815C4 5.28246 4 5.27677 4 5.27109C4 5.26541 4 5.25973 4 5.25406C4 5.24839 4 5.24272 4 5.23706C4 5.2314 4 5.22574 4 5.22008C4 5.21443 4 5.20878 4 5.20313C4 5.19749 4 5.19185 4 5.18621C4 5.18057 4 5.17494 4 5.16931C4 5.16369 4 5.15806 4 5.15245C4 5.14683 4 5.14121 4 5.1356C4 5.12999 4 5.12439 4 5.11879C4 5.11319 4 5.10759 4 5.102C4 5.09641 4 5.09082 4 5.08524C4 5.07966 4 5.07408 4 5.06851C4 5.06293 4 5.05736 4 5.0518C4 5.04624 4 5.04068 4 5.03512C4 5.02957 4 5.02402 4 5.01847C4 5.01293 4 5.00738 4 5.00185C4 4.99631 4 4.99078 4 4.98525C4 4.97973 4 4.9742 4 4.96868C4 4.96317 4 4.95765 4 4.95215C4 4.94664 4 4.94113 4 4.93563C4 4.93013 4 4.92464 4 4.91915C4 4.91366 4 4.90817 4 4.90269C4 4.89721 4 4.89174 4 4.88627C4 4.8808 4 4.87533 4 4.86987C4 4.86441 4 4.85895 4 4.8535C4 4.84805 4 4.8426 4 4.83716C4 4.83171 4 4.82628 4 4.82084C4 4.81541 4 4.80998 4 4.80456C4 4.79914 4 4.79372 4 4.7883C4 4.78289 4 4.77748 4 4.77208C4 4.76667 4 4.76127 4 4.75588C4 4.75048 4 4.7451 4 4.73971C4 4.73433 4 4.72895 4 4.72357C4 4.7182 4 4.71283 4 4.70746C4 4.7021 4 4.69674 4 4.69138C4 4.68602 4 4.68067 4 4.67533C4 4.66998 4 4.66464 4 4.65931C4 4.65397 4 4.64864 4 4.64331C4 4.63799 4 4.63267 4 4.62735C4 4.62204 4 4.61673 4 4.61142C4 4.60611 4 4.60081 4 4.59552C4 4.59022 4 4.58493 4 4.57964C4 4.57436 4 4.56908 4 4.5638C4 4.55852 4 4.55325 4 4.54799C4 4.54272 4 4.53746 4 4.53221C4 4.52695 4 4.5217 4 4.51645C4 4.51121 4 4.50597 4 4.50073C4 4.4955 4 4.49027 4 4.48504C4 4.47981 4 4.47459 4 4.46938C4 4.46416 4 4.45895 4 4.45375C4 4.44854 4 4.44334 4 4.43815C4 4.43295 4 4.42777 4 4.42258C4 4.4174 4 4.41222 4 4.40704C4 4.40187 4 4.3967 4 4.39154C4 4.38637 4 4.38121 4 4.37606C4 4.37091 4 4.36576 4 4.36062C4 4.35547 4 4.35034 4 4.3452C4 4.34007 4 4.33494 4 4.32982C4 4.3247 4 4.31958 4 4.31447C4 4.30936 4 4.30425 4 4.29915C4 4.29405 4 4.28896 4 4.28387C4 4.27878 4 4.27369 4 4.26861C4 4.26353 4 4.25846 4 4.25339C4 4.24832 4 4.24325 4 4.2382C4 4.23314 4 4.22808 4 4.22304C4 4.21799 4 4.21295 4 4.20791C4 4.20287 4 4.19784 4 4.19281C4 4.18779 4 4.18277 4 4.17775C4 4.17274 4 4.16773 4 4.16272C4 4.15772 4 4.15272 4 4.14772C4 4.14273 4 4.13774 4 4.13276C4 4.12777 4 4.1228 4 4.11782C4 4.11285 4 4.10788 4 4.10292C4 4.09796 4 4.09301 4 4.08805C4 4.0831 4 4.07816 4 4.07322C4 4.06828 4 4.06335 4 4.05842C4 4.05349 4 4.04857 4 4.04365C4 4.03873 4 4.03382 4 4.02891C4 4.02401 4 4.01911 4 4.01421C4 4.00932 4 4.00443 4 3.99954C4 3.99466 4 3.98978 4 3.98491C4 3.98003 4 3.97517 4 3.9703C4 3.96544 4 3.96059 4 3.95574C4 3.95088 4 3.94604 4 3.9412C4 3.93636 4 3.93153 4 3.9267C4 3.92187 4 3.91705 4 3.91223C4 3.90741 4 3.9026 4 3.8978C4 3.89299 4 3.88819 4 3.8834C4 3.8786 4 3.87382 4 3.86903C4 3.86425 4 3.85947 4 3.8547C4 3.84993 4 3.84517 4 3.84041C4 3.83565 4 3.83089 4 3.82614C4 3.82139 4 3.81665 4 3.81191C4 3.80718 4 3.80245 4 3.79772C4 3.793 4 3.78828 4 3.78356C4 3.77885 4 3.77414 4 3.76944C4 3.76474 4 3.76004 4 3.75535C4 3.75066 4 3.74597 4 3.74129C4 3.73662 4 3.73194 4 3.72727C4 3.72261 4 3.71795 4 3.71329C4 3.70863 4 3.70398 4 3.69934C4 3.6947 4 3.69006 4 3.68543C4 3.68079 4 3.67617 4 3.67155C4 3.66693 4 3.66231 4 3.65771C4 3.6531 4 3.64849 4 3.6439C4 3.6393 4 3.63471 4 3.63013C4 3.62554 4 3.62096 4 3.61639C4 3.61182 4 3.60725 4 3.60269C4 3.59813 4 3.59357 4 3.58902C4 3.58447 4 3.57993 4 3.57539C4 3.57086 4 3.56633 4 3.5618C4 3.55728 4 3.55276 4 3.54825C4 3.54373 4 3.53923 4 3.53472C4 3.53022 4 3.52573 4 3.52124C4 3.51675 4 3.51227 4 3.50779C4 3.50332 4 3.49885 4 3.49438C4 3.48992 4 3.48546 4 3.48101C4 3.47656 4 3.47211 4 3.46767C4 3.46323 4 3.4588 4 3.45437C4 3.44994 4 3.44552 4 3.4411C4 3.43669 4 3.43228 4 3.42788C4 3.42347 4 3.41908 4 3.41469C4 3.4103 4 3.40591 4 3.40153C4 3.39715 4 3.39278 4 3.38842C4 3.38405 4 3.37969 4 3.37534C4 3.37098 4 3.36664 4 3.3623C4 3.35796 4 3.35362 4 3.34929C4 3.34496 4 3.34064 4 3.33633C4 3.33201 4 3.3277 4 3.3234C4 3.31909 4 3.3148 4 3.31051C4 3.30621 4 3.30193 4 3.29765C4 3.29337 4 3.2891 4 3.28484C4 3.28057 4 3.27631 4 3.27206C4 3.26781 4 3.26356 4 3.25932C4 3.25508 4 3.25085 4 3.24662C4 3.24239 4 3.23817 4 3.23396C4 3.22974 4 3.22553 4 3.22133C4 3.21713 4 3.21293 4 3.20874C4 3.20456 4 3.20037 4 3.1962C4 3.19202 4 3.18785 4 3.18369C4 3.17952 4 3.17537 4 3.17122C4 3.16707 4 3.16292 4 3.15879C4 3.15465 4 3.15052 4 3.14639C4 3.14227 4 3.13815 4 3.13404C4 3.12993 4 3.12582 4 3.12172C4 3.11763 4 3.11353 4 3.10945C4 3.10536 4 3.10129 4 3.09721C4 3.09314 4 3.08907 4 3.08502C4 3.08096 4 3.0769 4 3.07286C4 3.06881 4 3.06477 4 3.06074C4 3.05671 4 3.05268 4 3.04866C4 3.04464 4 3.04063 4 3.03662C4 3.03262 4 3.02862 4 3.02462C4 3.02063 4 3.01664 4 3.01266C4 3.00868 4 3.00471 4 3.00074C4 2.99678 4 2.99282 4 2.98886C4 2.98491 4 2.98097 4 2.97703C4 2.97309 4 2.96915 4 2.96523C4 2.9613 4 2.95738 4 2.95347C4 2.94955 4 2.94565 4 2.94175C4 2.93785 4 2.93396 4 2.93007C4 2.92618 4 2.92231 4 2.91843C4 2.91456 4 2.9107 4 2.90684C4 2.90298 4 2.89913 4 2.89528C4 2.89144 4 2.8876 4 2.88377C4 2.87993 4 2.87611 4 2.87229C4 2.86847 4 2.86466 4 2.86086C4 2.85705 4 2.85326 4 2.84946C4 2.84567 4 2.84189 4 2.83811C4 2.83434 4 2.83057 4 2.8268C4 2.82304 4 2.81928 4 2.81553C4 2.81179 4 2.80804 4 2.80431C4 2.80057 4 2.79684 4 2.79312C4 2.7894 4 2.78569 4 2.78198C4 2.77827 4 2.77457 4 2.77088C4 2.76718 4 2.76349 4 2.75981C4 2.75613 4 2.75246 4 2.7488C4 2.74513 4 2.74147 4 2.73782C4 2.73417 4 2.73052 4 2.72688C4 2.72325 4 2.71962 4 2.71599C4 2.71237 4 2.70875 4 2.70514C4 2.70153 4 2.69793 4 2.69433C4 2.69074 4 2.68715 4 2.68357C4 2.67999 4 2.67641 4 2.67284C4 2.66928 4 2.66572 4 2.66216C4 2.65861 4 2.65506 4 2.65153C4 2.64799 4 2.64446 4 2.64093C4 2.63741 4 2.63389 4 2.63038C4 2.62687 4 2.62336 4 2.61987C4 2.61637 4 2.61288 4 2.6094C4 2.60592 4 2.60245 4 2.59898C4 2.59551 4 2.59205 4 2.5886C4 2.58515 4 2.5817 4 2.57826C4 2.57482 4 2.57139 4 2.56797C4 2.56454 4 2.56113 4 2.55772C4 2.55431 4 2.55091 4 2.54751C4 2.54412 4 2.54073 4 2.53735C4 2.53397 4 2.53059 4 2.52723C4 2.52386 4 2.5205 4 2.51715C4 2.5138 4 2.51046 4 2.50712C4 2.50379 4 2.50046 4 2.49713C4 2.49381 4 2.4905 4 2.48719C4 2.48388 4 2.48058 4 2.47729C4 2.474 4 2.47071 4 2.46744C4 2.46416 4 2.46089 4 2.45763C4 2.45436 4 2.45111 4 2.44786C4 2.44461 4 2.44137 4 2.43814C4 2.43491 4 2.43168 4 2.42846C4 2.42524 4 2.42203 4 2.41883C4 2.41563 4 2.41243 4 2.40924C4 2.40605 4 2.40287 4 2.3997C4 2.39652 4 2.39336 4 2.3902C4 2.38704 4 2.38389 4 2.38075C4 2.3776 4 2.37447 4 2.37134C4 2.36821 4 2.36509 4 2.36198C4 2.35886 4 2.35576 4 2.35266C4 2.34956 4 2.34647 4 2.34339C4 2.34031 4 2.33723 4 2.33416C4 2.33109 4 2.32803 4 2.32498C4 2.32193 4 2.31888 4 2.31585C4 2.31281 4 2.30978 4 2.30676C4 2.30373 4 2.30072 4 2.29771C4 2.29471 4 2.29171 4 2.28872C4 2.28572 4 2.28274 4 2.27976C4 2.27679 4 2.27382 4 2.27086C4 2.2679 4 2.26494 4 2.262C4 2.25905 4 2.25612 4 2.25319C4 2.25026 4 2.24733 4 2.24442C4 2.24151 4 2.2386 4 2.2357C4 2.2328 4 2.22991 4 2.22703C4 2.22414 4 2.22127 4 2.2184C4 2.21553 4 2.21267 4 2.20982C4 2.20697 4 2.20412 4 2.20128C4 2.19845 4 2.19562 4 2.1928C4 2.18998 4 2.18716 4 2.18436C4 2.18155 4 2.17876 4 2.17597C4 2.17318 4 2.17039 4 2.16762C4 2.16485 4 2.16208 4 2.15932C4 2.15656 4 2.15381 4 2.15107C4 2.14833 4 2.14559 4 2.14287C4 2.14014 4 2.13742 4 2.13471C4 2.132 4 2.1293 4 2.1266C4 2.12391 4 2.12122 4 2.11854C4 2.11586 4 2.11319 4 2.11053C4 2.10787 4 2.10521 4 2.10257C4 2.09992 4 2.09728 4 2.09465C4 2.09202 4 2.08939 4 2.08678C4 2.08416 4 2.08156 4 2.07896C4 2.07636 4 2.07377 4 2.07119C4 2.0686 4 2.06603 4 2.06346C4 2.0609 4 2.05834 4 2.05579C4 2.05324 4 2.05069 4 2.04816C4 2.04562 4 2.0431 4 2.04058C4 2.03806 4 2.03555 4 2.03305C4 2.03055 4 2.02805 4 2.02557C4 2.02308 4 2.02061 4 2.01814C4 2.01567 4 2.01321 4 2.01075C4 2.0083 4 2.00585 4 2.00342C4 2.00098 4 1.99855 4 1.99613C4 1.99371 4 1.9913 4 1.9889C4 1.98649 4 1.9841 4 1.98171C4 1.97932 4 1.97694 4 1.97457C4 1.9722 4 1.96984 4 1.96748C4 1.96513 4 1.96278 4 1.96044C4 1.95811 4 1.95578 4 1.95345C4 1.95113 4 1.94882 4 1.94651C4 1.94421 4 1.94191 4 1.93963C4 1.93734 4 1.93506 4 1.93279C4 1.93051 4 1.92825 4 1.926C4 1.92374 4 1.92149 4 1.91926C4 1.91702 4 1.91479 4 1.91257C4 1.91034 4 1.90813 4 1.90593C4 1.90372 4 1.90153 4 1.89934C4 1.89715 4 1.89497 4 1.8928C4 1.89063 4 1.88847 4 1.88631C4 1.88416 4 1.88201 4 1.87987C4 1.87774 4 1.87561 4 1.87349C4 1.87137 4 1.86925 4 1.86715C4 1.86505 4 1.86295 4 1.86087C4 1.85878 4 1.8567 4 1.85463C4 1.85256 4 1.8505 4 1.84845C4 1.8464 4 1.84435 4 1.84232C4 1.84028 4 1.83825 4 1.83624C4 1.83422 4 1.83221 4 1.83021C4 1.82821 4 1.82621 4 1.82423C4 1.82224 4 1.82027 4 1.8183C4 1.81634 4 1.81438 4 1.81243C4 1.81048 4 1.80854 4 1.8066C4 1.80467 4 1.80275 4 1.80083C4 1.79892 4 1.79701 4 1.79511C4 1.79321 4 1.79132 4 1.78944C4 1.78756 4 1.78569 4 1.78383C4 1.78197 4 1.78011 4 1.77826C4 1.77642 4 1.77458 4 1.77275C4 1.77092 4 1.7691 4 1.76729C4 1.76548 4 1.76368 4 1.76189C4 1.76009 4 1.75831 4 1.75653C4 1.75476 4 1.75299 4 1.75123C4 1.74947 4 1.74772 4 1.74598C4 1.74424 4 1.74251 4 1.74078C4 1.73906 4 1.73735 4 1.73564C4 1.73393 4 1.73224 4 1.73055C4 1.72886 4 1.72718 4 1.72551C4 1.72384 4 1.72218 4 1.72053C4 1.71887 4 1.71723 4 1.7156C4 1.71396 4 1.71233 4 1.71072C4 1.7091 4 1.70749 4 1.70589C4 1.70429 4 1.7027 4 1.70112C4 1.69954 4 1.69797 4 1.6964C4 1.69484 4 1.69328 4 1.69174C4 1.69019 4 1.68865 4 1.68713C4 1.6856 4 1.68408 4 1.68257C4 1.68106 4 1.67956 4 1.67807C4 1.67657 4 1.67509 4 1.67362C4 1.67214 4 1.67068 4 1.66922C4 1.66776 4 1.66632 4 1.66488C4 1.66344 4 1.66201 4 1.66059C4 1.65917 4 1.65776 4 1.65636C4 1.65496 4 1.65357 4 1.65218C4 1.6508 4 1.64942 4 1.64806C4 1.64669 4 1.64534 4 1.64399C4 1.64264 4 1.6413 4 1.63997C4 1.63864 4 1.63732 4 1.63601C4 1.6347 4 1.6334 4 1.63211C4 1.63082 4 1.62953 4 1.62826C4 1.62698 4 1.62572 4 1.62446C4 1.62321 4 1.62196 4 1.62072C4 1.61949 4 1.61826 4 1.61704C4 1.61582 4 1.61461 4 1.61341C4 1.61221 4 1.61102 4 1.60984C4 1.60865 4 1.60748 4 1.60632C4 1.60515 4 1.604 4 1.60285C4 1.60171 4 1.60057 4 1.59945C4 1.59832 4 1.5972 4 1.59609C4 1.59499 4 1.59389 4 1.5928C4 1.59171 4 1.59063 4 1.58956C4 1.58849 4 1.58743 4 1.58637C4 1.58532 4 1.58428 4 1.58325C4 1.58221 4 1.58119 4 1.58017C4 1.57916 4 1.57815 4 1.57716C4 1.57616 4 1.57518 4 1.5742C4 1.57322 4 1.57225 4 1.5713C4 1.57034 4 1.56939 4 1.56845C4 1.56751 4 1.56658 4 1.56566C4 1.56474 4 1.56383 4 1.56293C4 1.56202 4 1.56113 4 1.56025C4 1.55937 4 1.55849 4 1.55763C4 1.55677 4 1.55591 4 1.55507C4 1.55422 4 1.55339 4 1.55256C4 1.55174 4 1.55092 4 1.55011C4 1.54931 4 1.54851 4 1.54772C4 1.54693 4 1.54616 4 1.54539C4 1.54462 4 1.54386 4 1.54311C4 1.54236 4 1.54162 4 1.54089C4 1.54016 4 1.53944 4 1.53873C4 1.53802 4 1.53732 4 1.53663C4 1.53594 4 1.53525 4 1.53458C4 1.53391 4 1.53325 4 1.53259C4 1.53194 4 1.5313 4 1.53066C4 1.53003 4 1.5294 4 1.52879C4 1.52818 4 1.52757 4 1.52698C4 1.52638 4 1.5258 4 1.52522C4 1.52464 4 1.52408 4 1.52352C4 1.52297 4 1.52242 4 1.52188C4 1.52135 4 1.52082 4 1.5203C4 1.51978 4 1.51928 4 1.51878C4 1.51828 4 1.51779 4 1.51732C4 1.51684 4 1.51637 4 1.51591C4 1.51545 4 1.515 4 1.51456C4 1.51413 4 1.5137 4 1.51328C4 1.51286 4 1.51245 4 1.51205C4 1.51165 4 1.51126 4 1.51088C4 1.5105 4 1.51013 4 1.50977C4 1.50941 4 1.50906 4 1.50872C4 1.50838 4 1.50805 4 1.50773C4 1.50741 4 1.50709 4 1.50679C4 1.50649 4 1.5062 4 1.50592C4 1.50564 4 1.50537 4 1.50511C4 1.50485 4 1.5046 4 1.50435C4 1.50411 4 1.50388 4 1.50366C4 1.50344 4 1.50323 4 1.50303C4 1.50283 4 1.50263 4 1.50245C4 1.50227 4 1.5021 4 1.50194C4 1.50178 4 1.50163 4 1.50149C4 1.50134 4 1.50121 4 1.50109C4 1.50097 4 1.50086 4 1.50076C4 1.50066 4 1.50057 4 1.50049C4 1.5004 4 1.50033 4 1.50027C4 1.50021 4 1.50016 4 1.50012C4 1.50008 4 1.50005 4 1.50003C4 1.50001 4 1.5 3.5 1.5C3 1.5 3 1.50001 3 1.50003C3 1.50005 3 1.50008 3 1.50012C3 1.50016 3 1.50021 3 1.50027C3 1.50033 3 1.5004 3 1.50049C3 1.50057 3 1.50066 3 1.50076C3 1.50086 3 1.50097 3 1.50109C3 1.50121 3 1.50134 3 1.50149C3 1.50163 3 1.50178 3 1.50194C3 1.5021 3 1.50227 3 1.50245C3 1.50263 3 1.50283 3 1.50303C3 1.50323 3 1.50344 3 1.50366C3 1.50388 3 1.50411 3 1.50435C3 1.5046 3 1.50485 3 1.50511C3 1.50537 3 1.50564 3 1.50592C3 1.5062 3 1.50649 3 1.50679C3 1.50709 3 1.50741 3 1.50773C3 1.50805 3 1.50838 3 1.50872C3 1.50906 3 1.50941 3 1.50977C3 1.51013 3 1.5105 3 1.51088C3 1.51126 3 1.51165 3 1.51205C3 1.51245 3 1.51286 3 1.51328C3 1.5137 3 1.51413 3 1.51456C3 1.515 3 1.51545 3 1.51591C3 1.51637 3 1.51684 3 1.51732C3 1.51779 3 1.51828 3 1.51878C3 1.51928 3 1.51978 3 1.5203C3 1.52082 3 1.52135 3 1.52188C3 1.52242 3 1.52297 3 1.52352C3 1.52408 3 1.52464 3 1.52522C3 1.5258 3 1.52638 3 1.52698C3 1.52757 3 1.52818 3 1.52879C3 1.5294 3 1.53003 3 1.53066C3 1.5313 3 1.53194 3 1.53259C3 1.53325 3 1.53391 3 1.53458C3 1.53525 3 1.53594 3 1.53663C3 1.53732 3 1.53802 3 1.53873C3 1.53944 3 1.54016 3 1.54089C3 1.54162 3 1.54236 3 1.54311C3 1.54386 3 1.54462 3 1.54539C3 1.54616 3 1.54693 3 1.54772C3 1.54851 3 1.54931 3 1.55011C3 1.55092 3 1.55174 3 1.55256C3 1.55339 3 1.55422 3 1.55507C3 1.55591 3 1.55677 3 1.55763C3 1.55849 3 1.55937 3 1.56025C3 1.56113 3 1.56202 3 1.56293C3 1.56383 3 1.56474 3 1.56566C3 1.56658 3 1.56751 3 1.56845C3 1.56939 3 1.57034 3 1.5713C3 1.57225 3 1.57322 3 1.5742C3 1.57518 3 1.57616 3 1.57716C3 1.57815 3 1.57916 3 1.58017C3 1.58119 3 1.58221 3 1.58325C3 1.58428 3 1.58532 3 1.58637C3 1.58743 3 1.58849 3 1.58956C3 1.59063 3 1.59171 3 1.5928C3 1.59389 3 1.59499 3 1.59609C3 1.5972 3 1.59832 3 1.59945C3 1.60057 3 1.60171 3 1.60285C3 1.604 3 1.60515 3 1.60632C3 1.60748 3 1.60865 3 1.60984C3 1.61102 3 1.61221 3 1.61341C3 1.61461 3 1.61582 3 1.61704C3 1.61826 3 1.61949 3 1.62072C3 1.62196 3 1.62321 3 1.62446C3 1.62572 3 1.62698 3 1.62826C3 1.62953 3 1.63082 3 1.63211C3 1.6334 3 1.6347 3 1.63601C3 1.63732 3 1.63864 3 1.63997C3 1.6413 3 1.64264 3 1.64399C3 1.64534 3 1.64669 3 1.64806C3 1.64942 3 1.6508 3 1.65218C3 1.65357 3 1.65496 3 1.65636C3 1.65776 3 1.65917 3 1.66059C3 1.66201 3 1.66344 3 1.66488C3 1.66632 3 1.66776 3 1.66922C3 1.67068 3 1.67214 3 1.67362C3 1.67509 3 1.67657 3 1.67807C3 1.67956 3 1.68106 3 1.68257C3 1.68408 3 1.6856 3 1.68713C3 1.68865 3 1.69019 3 1.69174C3 1.69328 3 1.69484 3 1.6964C3 1.69797 3 1.69954 3 1.70112C3 1.7027 3 1.70429 3 1.70589C3 1.70749 3 1.7091 3 1.71072C3 1.71233 3 1.71396 3 1.7156C3 1.71723 3 1.71887 3 1.72053C3 1.72218 3 1.72384 3 1.72551C3 1.72718 3 1.72886 3 1.73055C3 1.73224 3 1.73393 3 1.73564C3 1.73735 3 1.73906 3 1.74078C3 1.74251 3 1.74424 3 1.74598C3 1.74772 3 1.74947 3 1.75123C3 1.75299 3 1.75476 3 1.75653C3 1.75831 3 1.76009 3 1.76189C3 1.76368 3 1.76548 3 1.76729C3 1.7691 3 1.77092 3 1.77275C3 1.77458 3 1.77642 3 1.77826C3 1.78011 3 1.78197 3 1.78383C3 1.78569 3 1.78756 3 1.78944C3 1.79132 3 1.79321 3 1.79511C3 1.79701 3 1.79892 3 1.80083C3 1.80275 3 1.80467 3 1.8066C3 1.80854 3 1.81048 3 1.81243C3 1.81438 3 1.81634 3 1.8183C3 1.82027 3 1.82224 3 1.82423C3 1.82621 3 1.82821 3 1.83021C3 1.83221 3 1.83422 3 1.83624C3 1.83825 3 1.84028 3 1.84232C3 1.84435 3 1.8464 3 1.84845C3 1.8505 3 1.85256 3 1.85463C3 1.8567 3 1.85878 3 1.86087C3 1.86295 3 1.86505 3 1.86715C3 1.86925 3 1.87137 3 1.87349C3 1.87561 3 1.87774 3 1.87987C3 1.88201 3 1.88416 3 1.88631C3 1.88847 3 1.89063 3 1.8928C3 1.89497 3 1.89715 3 1.89934C3 1.90153 3 1.90372 3 1.90593C3 1.90813 3 1.91034 3 1.91257C3 1.91479 3 1.91702 3 1.91926C3 1.92149 3 1.92374 3 1.926C3 1.92825 3 1.93051 3 1.93279C3 1.93506 3 1.93734 3 1.93963C3 1.94191 3 1.94421 3 1.94651C3 1.94882 3 1.95113 3 1.95345C3 1.95578 3 1.95811 3 1.96044C3 1.96278 3 1.96513 3 1.96748C3 1.96984 3 1.9722 3 1.97457C3 1.97694 3 1.97932 3 1.98171C3 1.9841 3 1.98649 3 1.9889C3 1.9913 3 1.99371 3 1.99613C3 1.99855 3 2.00098 3 2.00342C3 2.00585 3 2.0083 3 2.01075C3 2.01321 3 2.01567 3 2.01814C3 2.02061 3 2.02308 3 2.02557C3 2.02805 3 2.03055 3 2.03305C3 2.03555 3 2.03806 3 2.04058C3 2.0431 3 2.04562 3 2.04816C3 2.05069 3 2.05324 3 2.05579C3 2.05834 3 2.0609 3 2.06346C3 2.06603 3 2.0686 3 2.07119C3 2.07377 3 2.07636 3 2.07896C3 2.08156 3 2.08416 3 2.08678C3 2.08939 3 2.09202 3 2.09465C3 2.09728 3 2.09992 3 2.10257C3 2.10521 3 2.10787 3 2.11053C3 2.11319 3 2.11586 3 2.11854C3 2.12122 3 2.12391 3 2.1266C3 2.1293 3 2.132 3 2.13471C3 2.13742 3 2.14014 3 2.14287C3 2.14559 3 2.14833 3 2.15107C3 2.15381 3 2.15656 3 2.15932C3 2.16208 3 2.16485 3 2.16762C3 2.17039 3 2.17318 3 2.17597C3 2.17876 3 2.18155 3 2.18436C3 2.18716 3 2.18998 3 2.1928C3 2.19562 3 2.19845 3 2.20128C3 2.20412 3 2.20697 3 2.20982C3 2.21267 3 2.21553 3 2.2184C3 2.22127 3 2.22414 3 2.22703C3 2.22991 3 2.2328 3 2.2357C3 2.2386 3 2.24151 3 2.24442C3 2.24733 3 2.25026 3 2.25319C3 2.25612 3 2.25905 3 2.262C3 2.26494 3 2.2679 3 2.27086C3 2.27382 3 2.27679 3 2.27976C3 2.28274 3 2.28572 3 2.28872C3 2.29171 3 2.29471 3 2.29771C3 2.30072 3 2.30373 3 2.30676C3 2.30978 3 2.31281 3 2.31585C3 2.31888 3 2.32193 3 2.32498C3 2.32803 3 2.33109 3 2.33416C3 2.33723 3 2.34031 3 2.34339C3 2.34647 3 2.34956 3 2.35266C3 2.35576 3 2.35886 3 2.36198C3 2.36509 3 2.36821 3 2.37134C3 2.37447 3 2.3776 3 2.38075C3 2.38389 3 2.38704 3 2.3902C3 2.39336 3 2.39652 3 2.3997C3 2.40287 3 2.40605 3 2.40924C3 2.41243 3 2.41563 3 2.41883C3 2.42203 3 2.42524 3 2.42846C3 2.43168 3 2.43491 3 2.43814C3 2.44137 3 2.44461 3 2.44786C3 2.45111 3 2.45436 3 2.45763C3 2.46089 3 2.46416 3 2.46744C3 2.47071 3 2.474 3 2.47729C3 2.48058 3 2.48388 3 2.48719C3 2.4905 3 2.49381 3 2.49713C3 2.50046 3 2.50379 3 2.50712C3 2.51046 3 2.5138 3 2.51715C3 2.5205 3 2.52386 3 2.52723C3 2.53059 3 2.53397 3 2.53735C3 2.54073 3 2.54412 3 2.54751C3 2.55091 3 2.55431 3 2.55772C3 2.56113 3 2.56454 3 2.56797C3 2.57139 3 2.57482 3 2.57826C3 2.5817 3 2.58515 3 2.5886C3 2.59205 3 2.59551 3 2.59898C3 2.60245 3 2.60592 3 2.6094C3 2.61288 3 2.61637 3 2.61987C3 2.62336 3 2.62687 3 2.63038C3 2.63389 3 2.63741 3 2.64093C3 2.64446 3 2.64799 3 2.65153C3 2.65506 3 2.65861 3 2.66216C3 2.66572 3 2.66928 3 2.67284C3 2.67641 3 2.67999 3 2.68357C3 2.68715 3 2.69074 3 2.69433C3 2.69793 3 2.70153 3 2.70514C3 2.70875 3 2.71237 3 2.71599C3 2.71962 3 2.72325 3 2.72688C3 2.73052 3 2.73417 3 2.73782C3 2.74147 3 2.74513 3 2.7488C3 2.75246 3 2.75613 3 2.75981C3 2.76349 3 2.76718 3 2.77088C3 2.77457 3 2.77827 3 2.78198C3 2.78569 3 2.7894 3 2.79312C3 2.79684 3 2.80057 3 2.80431C3 2.80804 3 2.81179 3 2.81553C3 2.81928 3 2.82304 3 2.8268C3 2.83057 3 2.83434 3 2.83811C3 2.84189 3 2.84567 3 2.84946C3 2.85326 3 2.85705 3 2.86086C3 2.86466 3 2.86847 3 2.87229C3 2.87611 3 2.87993 3 2.88377C3 2.8876 3 2.89144 3 2.89528C3 2.89913 3 2.90298 3 2.90684C3 2.9107 3 2.91456 3 2.91843C3 2.92231 3 2.92618 3 2.93007C3 2.93396 3 2.93785 3 2.94175C3 2.94565 3 2.94955 3 2.95347C3 2.95738 3 2.9613 3 2.96523C3 2.96915 3 2.97309 3 2.97703C3 2.98097 3 2.98491 3 2.98886C3 2.99282 3 2.99678 3 3.00074C3 3.00471 3 3.00868 3 3.01266C3 3.01664 3 3.02063 3 3.02462C3 3.02862 3 3.03262 3 3.03662C3 3.04063 3 3.04464 3 3.04866C3 3.05268 3 3.05671 3 3.06074C3 3.06477 3 3.06881 3 3.07286C3 3.0769 3 3.08096 3 3.08502C3 3.08907 3 3.09314 3 3.09721C3 3.10129 3 3.10536 3 3.10945C3 3.11353 3 3.11763 3 3.12172C3 3.12582 3 3.12993 3 3.13404C3 3.13815 3 3.14227 3 3.14639C3 3.15052 3 3.15465 3 3.15879C3 3.16292 3 3.16707 3 3.17122C3 3.17537 3 3.17952 3 3.18369C3 3.18785 3 3.19202 3 3.1962C3 3.20037 3 3.20456 3 3.20874C3 3.21293 3 3.21713 3 3.22133C3 3.22553 3 3.22974 3 3.23396C3 3.23817 3 3.24239 3 3.24662C3 3.25085 3 3.25508 3 3.25932C3 3.26356 3 3.26781 3 3.27206C3 3.27631 3 3.28057 3 3.28484C3 3.2891 3 3.29337 3 3.29765C3 3.30193 3 3.30621 3 3.31051C3 3.3148 3 3.31909 3 3.3234C3 3.3277 3 3.33201 3 3.33633C3 3.34064 3 3.34496 3 3.34929C3 3.35362 3 3.35796 3 3.3623C3 3.36664 3 3.37098 3 3.37534C3 3.37969 3 3.38405 3 3.38842C3 3.39278 3 3.39715 3 3.40153C3 3.40591 3 3.4103 3 3.41469C3 3.41908 3 3.42347 3 3.42788C3 3.43228 3 3.43669 3 3.4411C3 3.44552 3 3.44994 3 3.45437C3 3.4588 3 3.46323 3 3.46767C3 3.47211 3 3.47656 3 3.48101C3 3.48546 3 3.48992 3 3.49438C3 3.49885 3 3.50332 3 3.50779C3 3.51227 3 3.51675 3 3.52124C3 3.52573 3 3.53022 3 3.53472C3 3.53923 3 3.54373 3 3.54825C3 3.55276 3 3.55728 3 3.5618C3 3.56633 3 3.57086 3 3.57539C3 3.57993 3 3.58447 3 3.58902C3 3.59357 3 3.59813 3 3.60269C3 3.60725 3 3.61182 3 3.61639C3 3.62096 3 3.62554 3 3.63013C3 3.63471 3 3.6393 3 3.6439C3 3.64849 3 3.6531 3 3.65771C3 3.66231 3 3.66693 3 3.67155C3 3.67617 3 3.68079 3 3.68543C3 3.69006 3 3.6947 3 3.69934C3 3.70398 3 3.70863 3 3.71329C3 3.71795 3 3.72261 3 3.72727C3 3.73194 3 3.73662 3 3.74129C3 3.74597 3 3.75066 3 3.75535C3 3.76004 3 3.76474 3 3.76944C3 3.77414 3 3.77885 3 3.78356C3 3.78828 3 3.793 3 3.79772C3 3.80245 3 3.80718 3 3.81191C3 3.81665 3 3.82139 3 3.82614C3 3.83089 3 3.83565 3 3.84041C3 3.84517 3 3.84993 3 3.8547C3 3.85947 3 3.86425 3 3.86903C3 3.87382 3 3.8786 3 3.8834C3 3.88819 3 3.89299 3 3.8978C3 3.9026 3 3.90741 3 3.91223C3 3.91705 3 3.92187 3 3.9267C3 3.93153 3 3.93636 3 3.9412C3 3.94604 3 3.95088 3 3.95574C3 3.96059 3 3.96544 3 3.9703C3 3.97517 3 3.98003 3 3.98491C3 3.98978 3 3.99466 3 3.99954C3 4.00443 3 4.00932 3 4.01421C3 4.01911 3 4.02401 3 4.02891C3 4.03382 3 4.03873 3 4.04365C3 4.04857 3 4.05349 3 4.05842C3 4.06335 3 4.06828 3 4.07322C3 4.07816 3 4.0831 3 4.08805C3 4.09301 3 4.09796 3 4.10292C3 4.10788 3 4.11285 3 4.11782C3 4.1228 3 4.12777 3 4.13276C3 4.13774 3 4.14273 3 4.14772C3 4.15272 3 4.15772 3 4.16272C3 4.16773 3 4.17274 3 4.17775C3 4.18277 3 4.18779 3 4.19281C3 4.19784 3 4.20287 3 4.20791C3 4.21295 3 4.21799 3 4.22304C3 4.22808 3 4.23314 3 4.2382C3 4.24325 3 4.24832 3 4.25339C3 4.25846 3 4.26353 3 4.26861C3 4.27369 3 4.27878 3 4.28387C3 4.28896 3 4.29405 3 4.29915C3 4.30425 3 4.30936 3 4.31447C3 4.31958 3 4.3247 3 4.32982C3 4.33494 3 4.34007 3 4.3452C3 4.35034 3 4.35547 3 4.36062C3 4.36576 3 4.37091 3 4.37606C3 4.38121 3 4.38637 3 4.39154C3 4.3967 3 4.40187 3 4.40704C3 4.41222 3 4.4174 3 4.42258C3 4.42777 3 4.43295 3 4.43815C3 4.44334 3 4.44854 3 4.45375C3 4.45895 3 4.46416 3 4.46938C3 4.47459 3 4.47981 3 4.48504C3 4.49027 3 4.4955 3 4.50073C3 4.50597 3 4.51121 3 4.51645C3 4.5217 3 4.52695 3 4.53221C3 4.53746 3 4.54272 3 4.54799C3 4.55325 3 4.55852 3 4.5638C3 4.56908 3 4.57436 3 4.57964C3 4.58493 3 4.59022 3 4.59552C3 4.60081 3 4.60611 3 4.61142C3 4.61673 3 4.62204 3 4.62735C3 4.63267 3 4.63799 3 4.64331C3 4.64864 3 4.65397 3 4.65931C3 4.66464 3 4.66998 3 4.67533C3 4.68067 3 4.68602 3 4.69138C3 4.69674 3 4.7021 3 4.70746C3 4.71283 3 4.7182 3 4.72357C3 4.72895 3 4.73433 3 4.73971C3 4.7451 3 4.75048 3 4.75588C3 4.76127 3 4.76667 3 4.77208C3 4.77748 3 4.78289 3 4.7883C3 4.79372 3 4.79914 3 4.80456C3 4.80998 3 4.81541 3 4.82084C3 4.82628 3 4.83171 3 4.83716C3 4.8426 3 4.84805 3 4.8535C3 4.85895 3 4.86441 3 4.86987C3 4.87533 3 4.8808 3 4.88627C3 4.89174 3 4.89721 3 4.90269C3 4.90817 3 4.91366 3 4.91915C3 4.92464 3 4.93013 3 4.93563C3 4.94113 3 4.94664 3 4.95215C3 4.95765 3 4.96317 3 4.96868C3 4.9742 3 4.97973 3 4.98525C3 4.99078 3 4.99631 3 5.00185C3 5.00738 3 5.01293 3 5.01847C3 5.02402 3 5.02957 3 5.03512C3 5.04068 3 5.04624 3 5.0518C3 5.05736 3 5.06293 3 5.06851C3 5.07408 3 5.07966 3 5.08524C3 5.09082 3 5.09641 3 5.102C3 5.10759 3 5.11319 3 5.11879C3 5.12439 3 5.12999 3 5.1356C3 5.14121 3 5.14683 3 5.15245C3 5.15806 3 5.16369 3 5.16931C3 5.17494 3 5.18057 3 5.18621C3 5.19185 3 5.19749 3 5.20313C3 5.20878 3 5.21443 3 5.22008C3 5.22574 3 5.2314 3 5.23706C3 5.24272 3 5.24839 3 5.25406C3 5.25973 3 5.26541 3 5.27109C3 5.27677 3 5.28246 3 5.28815C3 5.29384 3 5.29953 3 5.30523C3 5.31093 3 5.31663 3 5.32234C3 5.32804 3 5.33375 3 5.33947C3 5.34518 3 5.3509 3 5.35663C3 5.36235 3 5.36808 3 5.37381C3 5.37955 3 5.38528 3 5.39103C3 5.39677 3 5.40251 3 5.40826C3 5.41401 3 5.41977 3 5.42553C3 5.43128 3 5.43705 3 5.44281C3 5.44858 3 5.45435 3 5.46013C3 5.4659 3 5.47168 3 5.47747C3 5.48325 3 5.48904 3 5.49483C3 5.50063 3 5.50642 3 5.51222C3 5.51802 3 5.52383 3 5.52964C3 5.53545 3 5.54126 3 5.54708C3 5.55289 3 5.55872 3 5.56454C3 5.57037 3 5.5762 3 5.58203C3 5.58787 3 5.5937 3 5.59955C3 5.60539 3 5.61123 3 5.61709C3 5.62294 3 5.62879 3 5.63465C3 5.64051 3 5.64637 3 5.65224C3 5.6581 3 5.66397 3 5.66985C3 5.67572 3 5.6816 3 5.68749C3 5.69337 3 5.69926 3 5.70515C3 5.71104 3 5.71693 3 5.72283C3 5.72873 3 5.73464 3 5.74054C3 5.74645 3 5.75236 3 5.75828C3 5.76419 3 5.77011 3 5.77603C3 5.78196 3 5.78788 3 5.79381C3 5.79974 3 5.80568 3 5.81162C3 5.81756 3 5.8235 3 5.82945C3 5.83539 3 5.84134 3 5.8473C3 5.85325 3 5.85921 3 5.86517C3 5.87114 3 5.8771 3 5.88307C3 5.88904 3 5.89502 3 5.90099C3 5.90697 3 5.91295 3 5.91894C3 5.92492 3 5.93091 3 5.93691C3 5.9429 3 5.9489 3 5.9549C3 5.9609 3 5.9669 3 5.97291C3 5.97892 3 5.98493 3 5.99095C3 5.99696 3 6.00298 3 6.00901C3 6.01503 3 6.02106 3 6.02709C3 6.03312 3 6.03916 3 6.04519C3 6.05123 3 6.05728 3 6.06332C3 6.06937 3 6.07542 3 6.08147C3 6.08752 3 6.09358 3 6.09964C3 6.1057 3 6.11177 3 6.11784C3 6.12391 3 6.12998 3 6.13605C3 6.14213 3 6.14821 3 6.15429C3 6.16037 3 6.16646 3 6.17255C3 6.17864 3 6.18474 3 6.19083C3 6.19693 3 6.20303 3 6.20914C3 6.21524 3 6.22135 3 6.22746C3 6.23357 3 6.23969 3 6.24581C3 6.25193 3 6.25805 3 6.26418C3 6.2703 3 6.27643 3 6.28257C3 6.2887 3 6.29484 3 6.30098C3 6.30712 3 6.31326 3 6.31941C3 6.32556 3 6.33171 3 6.33786C3 6.34402 3 6.35018 3 6.35634C3 6.3625 3 6.36867 3 6.37483C3 6.381 3 6.38717 3 6.39335C3 6.39953 3 6.40571 3 6.41189C3 6.41807 3 6.42426 3 6.43045C3 6.43663 3 6.44283 3 6.44902C3 6.45522 3 6.46142 3 6.46762C3 6.47383 3 6.48003 3 6.48624C3 6.49245 3 6.49867 3 6.50488C3 6.5111 3 6.51732 3 6.52354C3 6.52977 3 6.53599 3 6.54222C3 6.54845 3 6.55469 3 6.56092C3 6.56716 3 6.5734 3 6.57964C3 6.58589 3 6.59213 3 6.59838C3 6.60463 3 6.61089 3 6.61714C3 6.6234 3 6.62966 3 6.63592C3 6.64219 3 6.64845 3 6.65472C3 6.66099 3 6.66726 3 6.67354C3 6.67982 3 6.6861 3 6.69238C3 6.69866 3 6.70495 3 6.71124C3 6.71753 3 6.72382 3 6.73011C3 6.73641 3 6.74271 3 6.74901C3 6.75531 3 6.76162 3 6.76793C3 6.77423 3 6.78055 3 6.78686C3 6.79317 3 6.79949 3 6.80581C3 6.81213 3 6.81846 3 6.82479C3 6.83111 3 6.83744 3 6.84378C3 6.85011 3 6.85645 3 6.86279C3 6.86913 3 6.87547 3 6.88181C3 6.88816 3 6.89451 3 6.90086C3 6.90721 3 6.91357 3 6.91993C3 6.92628 3 6.93265 3 6.93901C3 6.94537 3 6.95174 3 6.95811C3 6.96448 3 6.97085 3 6.97723C3 6.98361 3 6.98999 3 6.99637C3 7.00275 3 7.00914 3 7.01552C3 7.02191 3 7.0283 3 7.0347C3 7.04109 3 7.04749 3 7.05389C3 7.06029 3 7.06669 3 7.0731C3 7.0795 3 7.08591 3 7.09233C3 7.09874 3 7.10515 3 7.11157C3 7.11799 3 7.12441 3 7.13083C3 7.13726 3 7.14368 3 7.15011C3 7.15654 3 7.16297 3 7.16941C3 7.17584 3 7.18228 3 7.18872C3 7.19516 3 7.2016 3 7.20805C3 7.2145 3 7.22095 3 7.2274C3 7.23385 3 7.24031 3 7.24676C3 7.25322 3 7.25968 3 7.26614C3 7.27261 3 7.27907 3 7.28554C3 7.29201 3 7.29848 3 7.30496C3 7.31143 3 7.31791 3 7.32439C3 7.33087 3 7.33735 3 7.34384C3 7.35032 3 7.35681 3 7.3633C3 7.36979 3 7.37628 3 7.38278C3 7.38928 3 7.39578 3 7.40228C3 7.40878 3 7.41528 3 7.42179C3 7.4283 3 7.43481 3 7.44132C3 7.44783 3 7.45435 3 7.46086C3 7.46738 3 7.4739 3 7.48042C3 7.48695 3 7.49347 3 7.5H4ZM8.5 1.5C8.2 1.1 8.19971 1.10022 8.19941 1.10044C8.19931 1.10052 8.199 1.10075 8.19878 1.10092C8.19835 1.10124 8.19788 1.1016 8.19738 1.10198C8.19639 1.10273 8.19527 1.10358 8.19404 1.10453C8.19157 1.10643 8.18862 1.10871 8.18521 1.11139C8.1784 1.11675 8.16973 1.12369 8.15935 1.13226C8.13858 1.14939 8.11093 1.17304 8.0774 1.20357C8.01034 1.26465 7.91977 1.35328 7.8138 1.47251C7.60169 1.71113 7.32853 2.07151 7.05882 2.57721C6.51793 3.59139 6 5.17291 6 7.5L7 7.5C7 5.32709 7.48207 3.90861 7.94118 3.04779C8.17147 2.61599 8.39831 2.32012 8.5612 2.13687C8.64273 2.04515 8.70841 1.98145 8.75073 1.94291C8.77189 1.92364 8.7872 1.91067 8.79573 1.90363C8.8 1.90011 8.80256 1.89808 8.80331 1.89749C8.80369 1.89719 8.80361 1.89726 8.80306 1.89768C8.80279 1.89789 8.8024 1.89819 8.80189 1.89858C8.80163 1.89877 8.80135 1.89898 8.80103 1.89922C8.80088 1.89934 8.80062 1.89954 8.80054 1.89959C8.80027 1.89979 8.8 1.9 8.5 1.5ZM6 7.5C6 9.82709 6.51793 11.4086 7.05882 12.4228C7.32853 12.9285 7.60169 13.2889 7.8138 13.5275C7.91977 13.6467 8.01034 13.7354 8.0774 13.7964C8.11093 13.827 8.13858 13.8506 8.15935 13.8677C8.16973 13.8763 8.17839 13.8832 8.18521 13.8886C8.18862 13.8913 8.19157 13.8936 8.19404 13.8955C8.19527 13.8964 8.19639 13.8973 8.19738 13.898C8.19788 13.8984 8.19835 13.8988 8.19878 13.8991C8.199 13.8992 8.19931 13.8995 8.19941 13.8996C8.19971 13.8998 8.2 13.9 8.5 13.5C8.8 13.1 8.80027 13.1002 8.80054 13.1004C8.80062 13.1005 8.80088 13.1007 8.80103 13.1008C8.80135 13.101 8.80163 13.1012 8.80189 13.1014C8.8024 13.1018 8.80279 13.1021 8.80306 13.1023C8.80361 13.1027 8.80369 13.1028 8.80331 13.1025C8.80256 13.1019 8.8 13.0999 8.79573 13.0964C8.7872 13.0893 8.77189 13.0764 8.75073 13.0571C8.70841 13.0186 8.64273 12.9548 8.5612 12.8631C8.39831 12.6799 8.17147 12.384 7.94118 11.9522C7.48207 11.0914 7 9.67291 7 7.5L6 7.5Z" fill="#1776A5"/>
<path d="M2.5 4H2V5H2.5V4ZM12.2428 7.92875C12.4795 8.07082 12.7867 7.99404 12.9287 7.75725C13.0708 7.52046 12.994 7.21333 12.7572 7.07125L12.2428 7.92875ZM7.5 4.5L7.75725 4.07125L7.63849 4H7.5V4.5ZM2.5 5H4.63636V4H2.5V5ZM4.63636 5H7.5V4H4.63636V5ZM7.24275 4.92875L12.2428 7.92875L12.7572 7.07125L7.75725 4.07125L7.24275 4.92875Z" fill="var(--mw-icon-background-light-yellow, #FFF5BC)"/>
<path d="M4 4.5H7.5L10 6" stroke="#1776A5"/>
<path d="M2.5 7H2V8H2.5V7ZM12.5 8C12.7761 8 13 7.77614 13 7.5C13 7.22386 12.7761 7 12.5 7V8ZM2.5 8H4.63636V7H2.5V8ZM4.63636 8H7.72727V7H4.63636V8ZM7.72727 8H12.5V7H7.72727V8Z" fill="var(--mw-icon-background-light-yellow, #FFF5BC)"/>
<path d="M4 7.5H7.72726H10" stroke="#1776A5"/>
<path d="M2.5 10H2V11H2.5V10ZM7.5 10.5V11H7.63849L7.75725 10.9287L7.5 10.5ZM12.7572 7.92875C12.994 7.78667 13.0708 7.47954 12.9287 7.24275C12.7867 7.00596 12.4795 6.92918 12.2428 7.07125L12.7572 7.92875ZM2.5 11H4.63636V10H2.5V11ZM4.63636 11H7.5V10H4.63636V11ZM7.75725 10.9287L12.7572 7.92875L12.2428 7.07125L7.24275 10.0713L7.75725 10.9287Z" fill="var(--mw-icon-background-light-yellow, #FFF5BC)"/>
<path d="M4 10.5H7.5L10 9" stroke="#1776A5"/>
<path d="M12.5 3.5V11.5" stroke="var(--mw-icon-background-light-yellow, #FFF5BC)" stroke-linecap="square" stroke-linejoin="round"/>
<path d="M0.5 12.5V2.5C0.5 1.39543 1.39543 0.5 2.5 0.5H12.5C13.6046 0.5 14.5 1.39543 14.5 2.5V12.5C14.5 13.6046 13.6046 14.5 12.5 14.5H2.5C1.39543 14.5 0.5 13.6046 0.5 12.5Z" stroke="var(--mw-icon-border-default-gray, #616161)" stroke-linecap="round"/>
</svg>
