<svg width="16" height="16" viewBox="0 0 16 16" fill="none" xmlns="http://www.w3.org/2000/svg">
<path d="M0.5 12.5V2.5C0.5 1.39543 1.39543 0.5 2.5 0.5H12.5C13.6046 0.5 14.5 1.39543 14.5 2.5V12.5C14.5 13.6046 13.6046 14.5 12.5 14.5H2.5C1.39543 14.5 0.5 13.6046 0.5 12.5Z" fill="var(--mw-icon-background-default-white, #FFFFFF)" stroke="#B7312C" stroke-linecap="round"/>
<path d="M7 8.5V8.5C7.64999 8.5 8.23744 8.88736 8.49349 9.4848L8.5 9.5L8.77639 10.0528C8.91343 10.3269 9.19357 10.5 9.5 10.5V10.5C9.80643 10.5 10.0866 10.3269 10.2236 10.0528L10.5 9.5L10.5065 9.4848C10.7626 8.88736 11.35 8.5 12 8.5V8.5" stroke="#FF453A"/>
<path d="M9.5 11C9.77614 11 10 10.7761 10 10.5C10 10.2239 9.77614 10 9.5 10C9.22386 10 9 10.2239 9 10.5C9 10.7761 9.22386 11 9.5 11Z" fill="var(--mw-icon-glyph-content-dark-blue, #104280)"/>
<path d="M2.5 7.5V3.5C2.5 2.94772 2.94772 2.5 3.5 2.5H7.5C8.05228 2.5 8.5 2.94772 8.5 3.5V7.5C8.5 8.05228 8.05228 8.5 7.5 8.5H3.5C2.94772 8.5 2.5 8.05228 2.5 7.5Z" fill="white" stroke="#B7312C" stroke-linecap="round"/>
<path d="M3 4.5V4.5C3.64999 4.5 4.23744 4.88736 4.49349 5.4848L4.5 5.5L4.77639 6.05279C4.91343 6.32687 5.19357 6.5 5.5 6.5V6.5C5.80643 6.5 6.08657 6.32687 6.22361 6.05279L6.5 5.5L6.50652 5.4848C6.76256 4.88736 7.35001 4.5 8 4.5V4.5" stroke="#FF453A"/>
<path d="M5.5 7C5.77614 7 6 6.77614 6 6.5C6 6.22386 5.77614 6 5.5 6C5.22386 6 5 6.22386 5 6.5C5 6.77614 5.22386 7 5.5 7Z" fill="var(--mw-icon-glyph-content-dark-blue, #104280)"/>
<path d="M4.5 9.5V5.5C4.5 4.94772 4.94772 4.5 5.5 4.5H9.5C10.0523 4.5 10.5 4.94772 10.5 5.5V9.5C10.5 10.0523 10.0523 10.5 9.5 10.5H5.5C4.94772 10.5 4.5 10.0523 4.5 9.5Z" fill="white" stroke="#B7312C" stroke-linecap="round"/>
<path d="M5 6.5V6.5C5.64999 6.5 6.23744 6.88736 6.49349 7.4848L6.5 7.5L6.77639 8.05279C6.91343 8.32687 7.19357 8.5 7.5 8.5V8.5C7.80643 8.5 8.08657 8.32687 8.22361 8.05279L8.5 7.5L8.50652 7.4848C8.76256 6.88736 9.35001 6.5 10 6.5V6.5" stroke="#FF453A"/>
<path d="M7.5 9C7.77614 9 8 8.77614 8 8.5C8 8.22386 7.77614 8 7.5 8C7.22386 8 7 8.22386 7 8.5C7 8.77614 7.22386 9 7.5 9Z" fill="var(--mw-icon-glyph-content-dark-blue, #104280)"/>
<path d="M6.5 11.5V7.5C6.5 6.94772 6.94772 6.5 7.5 6.5H11.5C12.0523 6.5 12.5 6.94772 12.5 7.5V11.5C12.5 12.0523 12.0523 12.5 11.5 12.5H7.5C6.94772 12.5 6.5 12.0523 6.5 11.5Z" fill="white" stroke="#B7312C" stroke-linecap="round"/>
<path d="M7 8.5V8.5C7.64999 8.5 8.23744 8.88736 8.49349 9.4848L8.5 9.5L8.77639 10.0528C8.91343 10.3269 9.19357 10.5 9.5 10.5V10.5C9.80643 10.5 10.0866 10.3269 10.2236 10.0528L10.5 9.5L10.5065 9.4848C10.7626 8.88736 11.35 8.5 12 8.5V8.5" stroke="#FF453A"/>
<path d="M9.5 11C9.77614 11 10 10.7761 10 10.5C10 10.2239 9.77614 10 9.5 10C9.22386 10 9 10.2239 9 10.5C9 10.7761 9.22386 11 9.5 11Z" fill="var(--mw-icon-glyph-content-dark-blue, #104280)"/>
</svg>
