<svg width="19" height="16" viewBox="0 0 19 16" fill="none" xmlns="http://www.w3.org/2000/svg">
<path d="M9.5 0.5L3.5 8.5H7.5L6.5 14.5L12.5 6.5H8.5L9.5 0.5Z" fill="var(--mw-icon-background-default-selection, #B4DEFF)" stroke="var(--mw-icon-border-default-blue, #1656A7)" stroke-linejoin="round"/>
<path d="M14.7698 12.2531C14.6682 12.5072 14.4559 12.7343 14.1823 12.7343H13.6165C13.3382 12.7343 13.1026 12.5073 13.0888 12.2294C13.0833 12.1198 13.0852 12.0173 13.111 11.8871C13.1731 11.5914 13.2775 11.3248 13.424 11.0874C13.5749 10.8499 13.7747 10.6147 14.0233 10.3817C14.232 10.1935 14.414 10.0143 14.5694 9.84409C14.7248 9.67384 14.8468 9.4991 14.9356 9.31989C15.0244 9.1362 15.0688 8.93235 15.0688 8.70833C15.0688 8.44848 15.0289 8.23342 14.9489 8.06317C14.8735 7.88844 14.7248 7.84781 14.5694 7.7582C14.4184 7.6686 14.2608 7.65995 14.03 7.65995C13.8391 7.65995 13.5882 7.76271 13.424 7.84784C13.2597 7.92848 13.2175 7.9849 13.111 8.15515C13.0631 8.235 13.0367 8.36469 13.0217 8.50857C12.9934 8.78012 12.781 9 12.5079 9H11.511C11.2306 9 11.0034 8.76899 11.0365 8.49056C11.0952 7.99578 11.2229 7.48388 11.4195 7.18952C11.6903 6.78629 12.0522 6.48835 12.505 6.2957C12.9578 6.09857 13.4661 6 14.03 6C14.6515 6 15.1842 6.10305 15.6282 6.30914C16.0721 6.51075 16.4118 6.80869 16.6471 7.20296C16.8824 7.59274 17 8.06765 17 8.62769C17 9.01747 16.9245 9.3647 16.7736 9.66935C16.6226 9.96953 16.4251 10.2496 16.1809 10.5094C15.9367 10.7693 15.6681 11.0381 15.3751 11.3159C15.1221 11.5444 14.9489 11.784 14.8557 12.0349C14.8258 12.1194 14.7962 12.1872 14.7698 12.2531ZM13 15.0054C13 14.7186 13.0624 14.4812 13.2577 14.293C13.4531 14.1004 13.5683 14.0893 13.8968 14.0893C14.2209 14.0893 14.4806 14.1004 14.6759 14.293C14.8757 14.4812 14.9756 14.7186 14.9756 15.0054C14.9756 15.2832 14.8757 15.5184 14.6759 15.711C14.4806 15.9037 14.2209 16 13.8968 16C13.5683 16 13.4531 15.9037 13.2577 15.711C13.0624 15.5184 13 15.2832 13 15.0054Z" fill="#EDB120"/>
</svg>
