<svg width="16" height="16" viewBox="0 0 16 16" fill="none" xmlns="http://www.w3.org/2000/svg">
<path d="M2.5 1C3.95315 0.543833 5.45846 0.5 6.07289 0.5C6.26666 0.5 6.46316 0.530665 6.64885 0.622132C6.83405 0.713357 6.97853 0.850289 7.09648 1.01976C7.32154 1.34315 7.48571 1.84007 7.6513 2.54003L7.75159 2.95466C8.35586 2.18825 8.86425 1.62656 9.3331 1.238C9.93665 0.737818 10.5047 0.5 11.1508 0.5C11.5119 0.5 11.8484 0.598696 12.1 0.795002C12.3552 0.994184 12.5 1.27689 12.5 1.59651C12.5 1.88927 12.3868 2.16033 12.1704 2.36042C11.9528 2.56166 11.6507 2.67236 11.3169 2.67236C11.0034 2.67236 10.7635 2.55426 10.6019 2.47469L10.5632 2.45574C10.3937 2.37352 10.2652 2.45121 10.34 2.41667C10.34 2.41667 10.2076 2.45762 10.0904 2.54003C9.96259 2.62991 9.75502 2.87355 9.56474 3.07749C9.19933 3.46912 8.99435 3.92044 8.5 4.66667C8.51425 4.79952 8.5 4.66667 8.5 5.08333V5.5L9.07154 8.10324C9.15085 8.37886 9.23179 8.54179 9.30396 8.62878C9.36257 8.6994 9.39408 8.6994 9.41846 8.6994C9.45647 8.6994 9.51573 8.69367 9.64355 8.59776C9.78275 8.49331 9.96332 8.31195 10.2356 8.00293C10.3062 7.92096 10.3655 7.85043 10.4211 7.7843C10.5241 7.66186 10.6143 7.55456 10.7399 7.41787L10.9444 7.19539L11.5 7.76533V8.22437C10.8124 9.1531 10.4947 9.54471 10.0173 9.93216C9.51771 10.3377 9.04967 10.5 8.49319 10.5C8.03188 10.5 7.63871 10.3818 7.33173 10.0713C7.04944 9.78572 6.87259 9.36773 6.72769 8.84234L6.5 7.16667L4.79576 9.18027C4.26899 9.79507 3.71255 9.95964 3.31518 10.1912C2.89424 10.4365 2.47871 10.5 2.06277 10.5C1.63521 10.5 1.24453 10.4041 0.953604 10.1912C0.654251 9.9722 0.5 9.65762 0.5 9.30022C0.5 8.72449 0.977816 8.22437 1.68311 8.22437C1.99771 8.22437 2.30734 8.34434 2.61886 8.49034L2.6342 8.49753C2.72995 8.54753 2.82359 8.58426 2.90396 8.60757C2.97225 8.62739 3.02014 8.63468 3.04528 8.63675C3.05332 8.6339 3.06906 8.62762 3.09332 8.61463C3.14852 8.58506 3.22292 8.53409 3.31518 8.45607C3.49917 8.30051 3.72094 8.06592 3.96268 7.76533L5.81052 5.49008L5.18464 3.07749C5.10238 2.77073 5.03257 2.53885 4.96652 2.36371C4.89951 2.186 4.843 2.08493 4.79576 2.02597C4.75541 1.9756 4.72651 1.96129 4.70012 1.95247C4.66079 1.93931 4.59431 1.92884 4.45935 1.92884C4.3205 1.92884 4.07542 1.96047 3.63084 2.06222L2.5 2.36371V1.5V1Z" fill="var(--mw-icon-background-default-selection, #B4DEFF)" stroke="var(--mw-icon-border-default-blue, #1656A7)" stroke-linejoin="round"/>
<path d="M13.7698 12.2531C13.6682 12.5072 13.4559 12.7343 13.1823 12.7343H12.6165C12.3382 12.7343 12.1026 12.5073 12.0888 12.2294C12.0833 12.1198 12.0852 12.0173 12.111 11.8871C12.1731 11.5914 12.2775 11.3248 12.424 11.0874C12.5749 10.8499 12.7747 10.6147 13.0233 10.3817C13.232 10.1935 13.414 10.0143 13.5694 9.84409C13.7248 9.67384 13.8468 9.4991 13.9356 9.31989C14.0244 9.1362 14.0688 8.93235 14.0688 8.70833C14.0688 8.44848 14.0289 8.23342 13.9489 8.06317C13.8735 7.88844 13.7248 7.84781 13.5694 7.7582C13.4184 7.6686 13.2608 7.65995 13.03 7.65995C12.8391 7.65995 12.5882 7.76271 12.424 7.84784C12.2597 7.92848 12.2175 7.9849 12.111 8.15515C12.0631 8.235 12.0367 8.36469 12.0217 8.50857C11.9934 8.78012 11.781 9 11.5079 9H10.511C10.2306 9 10.0034 8.76899 10.0365 8.49056C10.0952 7.99578 10.2229 7.48388 10.4195 7.18952C10.6903 6.78629 11.0522 6.48835 11.505 6.2957C11.9578 6.09857 12.4661 6 13.03 6C13.6515 6 14.1842 6.10305 14.6282 6.30914C15.0721 6.51075 15.4118 6.80869 15.6471 7.20296C15.8824 7.59274 16 8.06765 16 8.62769C16 9.01747 15.9245 9.3647 15.7736 9.66935C15.6226 9.96953 15.4251 10.2496 15.1809 10.5094C14.9367 10.7693 14.6681 11.0381 14.3751 11.3159C14.1221 11.5444 13.9489 11.784 13.8557 12.0349C13.8258 12.1194 13.7962 12.1872 13.7698 12.2531ZM12 15.0054C12 14.7186 12.0624 14.4812 12.2577 14.293C12.4531 14.1004 12.5683 14.0893 12.8968 14.0893C13.2209 14.0893 13.4806 14.1004 13.6759 14.293C13.8757 14.4812 13.9756 14.7186 13.9756 15.0054C13.9756 15.2832 13.8757 15.5184 13.6759 15.711C13.4806 15.9037 13.2209 16 12.8968 16C12.5683 16 12.4531 15.9037 12.2577 15.711C12.0624 15.5184 12 15.2832 12 15.0054Z" fill="#EDB120"/>
</svg>
