<svg width="16" height="16" viewBox="0 0 16 16" fill="none" xmlns="http://www.w3.org/2000/svg">
<path d="M15.5 8C15.5 8.82843 14.8284 9.5 14 9.5C13.1716 9.5 12.5 8.82843 12.5 8C12.5 7.17157 13.1716 6.5 14 6.5C14.8284 6.5 15.5 7.17157 15.5 8Z" fill="var(--mw-icon-background-default-selection, #B4DEFF)" stroke="var(--mw-icon-border-default-blue, #1656A7)"/>
<path d="M11.5962 12.5962C9.05779 15.1346 4.94221 15.1346 2.40381 12.5962C-0.134602 10.0578 -0.134602 5.94221 2.40381 3.40381C4.94221 0.865398 9.05779 0.865398 11.5962 3.40381" stroke="var(--mw-icon-glyph-content-light-blue, #278CDD)"/>
<path d="M13 6V1L8.5 4.5L13 6Z" fill="var(--mw-icon-glyph-content-light-blue, #278CDD)"/>
<path d="M13 10V15L8.5 11.5L13 10Z" fill="var(--mw-icon-glyph-content-light-blue, #278CDD)"/>
<path d="M2.5 9.5V6.5H4.5V9.5H2.5Z" fill="var(--mw-icon-glyph-disabled-gray, #888889)"/>
<path d="M2.5 6.5V6H2V6.5H2.5ZM2.5 9.5H2V10H2.5V9.5ZM4.5 9.5V10C4.77614 10 5 9.77614 5 9.5H4.5ZM4.5 6.5H5C5 6.22386 4.77614 6 4.5 6V6.5ZM2 6.5V9.5H3V6.5H2ZM2.5 10H4.5V9H2.5V10ZM5 9.5V6.5H4V9.5H5ZM4.5 6H2.5V7H4.5V6Z" fill="var(--mw-icon-border-default-gray, #616161)"/>
<path d="M0.5 11.5V4.5H2.5V11.5H0.5Z" fill="var(--mw-icon-background-default-dark-gray, #A6A6A6)"/>
<path d="M0.5 4.5V4C0.223858 4 0 4.22386 0 4.5H0.5ZM0.5 11.5H0C0 11.7761 0.223858 12 0.5 12L0.5 11.5ZM2.5 11.5V12C2.77614 12 3 11.7761 3 11.5H2.5ZM2.5 4.5H3C3 4.22386 2.77614 4 2.5 4V4.5ZM0 4.5V11.5H1V4.5H0ZM0.5 12H2.5V11H0.5V12ZM3 11.5V4.5H2V11.5H3ZM2.5 4H0.5V5H2.5V4Z" fill="var(--mw-icon-border-default-gray, #616161)"/>
</svg>
