<svg width="16" height="16" viewBox="0 0 16 16" fill="none" xmlns="http://www.w3.org/2000/svg">
<path d="M2.5 4C2.5 3.72386 2.72386 3.5 3 3.5H7.29289C7.4255 3.5 7.55268 3.55268 7.64645 3.64645L9.35355 5.35355C9.44732 5.44732 9.5745 5.5 9.70711 5.5H15C15.2761 5.5 15.5 5.72386 15.5 6L15.5 9.2697L15.5 15C15.5 15.2761 15.2761 15.5 15 15.5H3C2.72386 15.5 2.5 15.2761 2.5 15V4Z" fill="var(--mw-icon-background-light-yellow, #FFF5BC)" stroke="#674C06"/>
<path d="M6.5 13V3C6.5 2.72386 6.72386 2.5 7 2.5H15C15.2761 2.5 15.5 2.72386 15.5 3V13C15.5 13.2761 15.2761 13.5 15 13.5H7C6.72386 13.5 6.5 13.2761 6.5 13Z" fill="var(--mw-icon-background-default-white, #FFFFFF)" stroke="var(--mw-icon-border-default-gray, #616161)"/>
<path d="M4.5 11V1C4.5 0.723858 4.72386 0.5 5 0.5H13C13.2761 0.5 13.5 0.723858 13.5 1V11C13.5 11.2761 13.2761 11.5 13 11.5H5C4.72386 11.5 4.5 11.2761 4.5 11Z" fill="white" stroke="var(--mw-icon-border-default-gray, #616161)"/>
<path d="M7 2L9 4L7.60555 5.39445C6.06436 6.93564 6.86276 9.57255 9 10L8.30341 8.83902C7.83124 8.05207 7.95525 7.04475 8.60418 6.39582L10 5L12 7V2H7Z" fill="var(--mw-icon-glyph-content-gray, #616162)"/>
<path d="M1.14039 7.5H13.1096C13.339 7.5 13.539 7.65615 13.5947 7.87873L15.3447 14.8787C15.4236 15.1943 15.1849 15.5 14.8596 15.5H2.89039C2.66095 15.5 2.46096 15.3439 2.40532 15.1213L0.655317 8.12127C0.576424 7.80569 0.815103 7.5 1.14039 7.5Z" fill="var(--mw-icon-background-light-yellow, #FFF5BC)" stroke="#674C06"/>
</svg>
