<svg width="16" height="16" viewBox="0 0 16 16" fill="none" xmlns="http://www.w3.org/2000/svg">
<path d="M0.76295 12.5598C0.519815 12.6907 0.428845 12.9939 0.559764 13.2371C0.690684 13.4802 0.993915 13.5712 1.23705 13.4402L0.76295 12.5598ZM2.04955 13.0027C2.29269 12.8718 2.38365 12.5686 2.25274 12.3254C2.12182 12.0823 1.81859 11.9913 1.57545 12.1223L2.04955 13.0027ZM3.20045 11.2473C2.95731 11.3782 2.86635 11.6814 2.99726 11.9246C3.12818 12.1677 3.43141 12.2587 3.67455 12.1277L3.20045 11.2473ZM5.29955 11.2527C5.54269 11.1218 5.63365 10.8186 5.50274 10.5754C5.37182 10.3323 5.06859 10.2413 4.82545 10.3723L5.29955 11.2527ZM6.45045 9.49726C6.20731 9.62818 6.11635 9.93141 6.24726 10.1746C6.37818 10.4177 6.68141 10.5087 6.92455 10.3777L6.45045 9.49726ZM7 2.5C7 2.77614 7.22386 3 7.5 3C7.77614 3 8 2.77614 8 2.5H7ZM8 4.5C8 4.22386 7.77614 4 7.5 4C7.22386 4 7 4.22386 7 4.5H8ZM7 6.5C7 6.77614 7.22386 7 7.5 7C7.77614 7 8 6.77614 8 6.5H7ZM8 8.5C8 8.22386 7.77614 8 7.5 8C7.22386 8 7 8.22386 7 8.5H8ZM8.375 10C8.65114 10 8.875 9.77614 8.875 9.5C8.875 9.22386 8.65114 9 8.375 9V10ZM10.125 9C9.84886 9 9.625 9.22386 9.625 9.5C9.625 9.77614 9.84886 10 10.125 10V9ZM11.875 10C12.1511 10 12.375 9.77614 12.375 9.5C12.375 9.22386 12.1511 9 11.875 9V10ZM13.625 9C13.3489 9 13.125 9.22386 13.125 9.5C13.125 9.77614 13.3489 10 13.625 10V9ZM1.23705 13.4402L2.04955 13.0027L1.57545 12.1223L0.76295 12.5598L1.23705 13.4402ZM3.67455 12.1277L5.29955 11.2527L4.82545 10.3723L3.20045 11.2473L3.67455 12.1277ZM6.92455 10.3777L7.73705 9.94024L7.26295 9.05976L6.45045 9.49726L6.92455 10.3777ZM7 1.5V2.5H8V1.5H7ZM7 4.5V6.5H8V4.5H7ZM7 8.5V9.5H8V8.5H7ZM7.5 10H8.375V9H7.5V10ZM10.125 10H11.875V9H10.125V10ZM13.625 10H14.5V9H13.625V10Z" fill="var(--mw-icon-border-disabled-gray, #888888)"/>
<path d="M7.5 1.5V1C7.41299 1 7.32748 1.02271 7.25193 1.06588L7.5 1.5ZM0.251931 5.06588C0.0121718 5.20288 -0.0711266 5.50831 0.0658784 5.74807C0.202883 5.98783 0.508311 6.07113 0.748069 5.93412L0.251931 5.06588ZM14.5 9.5L14.7774 9.91603C14.9164 9.82329 15 9.66718 15 9.5H14.5ZM8.22265 13.084C7.99289 13.2372 7.9308 13.5476 8.08397 13.7774C8.23715 14.0071 8.54759 14.0692 8.77735 13.916L8.22265 13.084ZM14.5 1.5H15C15 1.22386 14.7761 1 14.5 1V1.5ZM8.22265 5.08397C7.99289 5.23715 7.9308 5.54759 8.08397 5.77735C8.23715 6.00711 8.54759 6.0692 8.77735 5.91603L8.22265 5.08397ZM7.25193 1.06588L0.251931 5.06588L0.748069 5.93412L7.74807 1.93412L7.25193 1.06588ZM14.2226 9.08397L8.22265 13.084L8.77735 13.916L14.7774 9.91603L14.2226 9.08397ZM14.2226 1.08397L8.22265 5.08397L8.77735 5.91603L14.7774 1.91603L14.2226 1.08397ZM15 9.5V1.5H14V9.5H15ZM14.5 1H7.5V2H14.5V1Z" fill="var(--mw-icon-border-disabled-gray, #888888)"/>
<path d="M0.5 13.5V5.5H8.5V13.5H0.5Z" stroke="var(--mw-icon-borderColor-light-blue, #268CDD)" stroke-linejoin="round"/>
</svg>
