<svg width="16" height="16" viewBox="0 0 16 16" fill="none" xmlns="http://www.w3.org/2000/svg">
<path d="M0.853553 4.14645C0.658291 3.95118 0.341709 3.95118 0.146447 4.14645C-0.0488155 4.34171 -0.0488155 4.65829 0.146447 4.85355L0.853553 4.14645ZM3.5 7.5L3.85355 7.85355C4.04882 7.65829 4.04882 7.34171 3.85355 7.14645L3.5 7.5ZM0.146447 10.1464C-0.0488155 10.3417 -0.0488155 10.6583 0.146447 10.8536C0.341709 11.0488 0.658291 11.0488 0.853553 10.8536L0.146447 10.1464ZM7.5 5H12.5V4H7.5V5ZM12.5 5C13.8807 5 15 6.11929 15 7.5H16C16 5.567 14.433 4 12.5 4V5ZM15 7.5C15 8.88071 13.8807 10 12.5 10V11C14.433 11 16 9.433 16 7.5H15ZM12.5 10H7.5V11H12.5V10ZM7.5 10C6.11929 10 5 8.88071 5 7.5H4C4 9.433 5.567 11 7.5 11V10ZM5 7.5C5 6.11929 6.11929 5 7.5 5V4C5.567 4 4 5.567 4 7.5H5ZM0.146447 4.85355L3.14645 7.85355L3.85355 7.14645L0.853553 4.14645L0.146447 4.85355ZM3.14645 7.14645L0.146447 10.1464L0.853553 10.8536L3.85355 7.85355L3.14645 7.14645Z" fill="var(--mw-icon-object-primary, #616160)"/>
</svg>
