<svg width="16" height="16" viewBox="0 0 16 16" fill="none" xmlns="http://www.w3.org/2000/svg">
<path d="M1 1H15V15H1V1Z" fill="var(--mw-icon-background-default-white, #FFFFFF)"/>
<path d="M0.5 0.5H15.5V4.5H0.5V0.5Z" fill="var(--mw-icon-background-default-medium-gray, #D9D9D9)"/>
<path d="M15.5 4H0.5V5H15.5V4Z" fill="var(--mw-icon-glyph-content-gray, #616162)"/>
<circle cx="8" cy="5" r="2.5" fill="white" stroke="var(--mw-icon-glyph-content-gray, #616162)"/>
<path d="M9 9H7V12H5L8 15L11 12H9V9Z" fill="var(--mw-icon-glyph-content-gray, #616162)"/>
<path d="M0.5 1.5C0.5 0.947715 0.947715 0.5 1.5 0.5H14.5C15.0523 0.5 15.5 0.947715 15.5 1.5V14.5C15.5 15.0523 15.0523 15.5 14.5 15.5H1.5C0.947715 15.5 0.5 15.0523 0.5 14.5V1.5Z" stroke="var(--mw-icon-border-default-gray, #616161)" stroke-linejoin="round"/>
</svg>
