<svg width="16" height="16" viewBox="0 0 16 16" fill="none" xmlns="http://www.w3.org/2000/svg">
<path d="M6.5 4C6.5 3.72386 6.72386 3.5 7 3.5H9.5C9.81476 3.5 10.1111 3.64819 10.3 3.9L11.2 5.1C11.3889 5.35181 11.6852 5.5 12 5.5H15C15.2761 5.5 15.5 5.72386 15.5 6V11C15.5 11.2761 15.2761 11.5 15 11.5H7C6.72386 11.5 6.5 11.2761 6.5 11V4Z" fill="var(--mw-icon-background-light-yellow, #FFF5BC)" stroke="#674C06"/>
<path d="M11 7.5H5C4.72386 7.5 4.5 7.72386 4.5 8V12C4.5 12.2761 4.72386 12.5 5 12.5H11C11.2761 12.5 11.5 12.2761 11.5 12V8C11.5 7.72386 11.2761 7.5 11 7.5Z" fill="#E9B490" stroke="var(--mw-icon-border-default-brown, #5F1B08)" stroke-linecap="square"/>
<path d="M8 10.5H10" stroke="var(--mw-icon-glyph-content-brown, #5F1B18)"/>
<path d="M9 9H7V8H9V9Z" fill="#FBE7D8"/>
</svg>
