<svg width="16" height="16" viewBox="0 0 16 16" fill="none" xmlns="http://www.w3.org/2000/svg">
<path d="M3.5 3C3.5 2.72386 3.72386 2.5 4 2.5H8.08579C8.351 2.5 8.60536 2.60536 8.79289 2.79289L10.2071 4.20711C10.3946 4.39464 10.649 4.5 10.9142 4.5H15C15.2761 4.5 15.5 4.72386 15.5 5V12C15.5 12.2761 15.2761 12.5 15 12.5H4C3.72386 12.5 3.5 12.2761 3.5 12V3Z" fill="var(--mw-icon-background-light-yellow, #FFF5BC)" stroke="#674C06"/>
<path d="M13 9.5H6C5.72386 9.5 5.5 9.72386 5.5 10V15C5.5 15.2761 5.72386 15.5 6 15.5H13C13.2761 15.5 13.5 15.2761 13.5 15V10C13.5 9.72386 13.2761 9.5 13 9.5Z" fill="#E9B490" stroke="var(--mw-icon-border-default-brown, #5F1B08)" stroke-linecap="square"/>
<path d="M9 13.5H12" stroke="var(--mw-icon-glyph-content-brown, #5F1B18)"/>
<path d="M10.5 11H8.5V10H10.5V11Z" fill="#FBE7D8"/>
</svg>
