<svg width="16" height="16" viewBox="0 0 16 16" fill="none" xmlns="http://www.w3.org/2000/svg">
<path d="M11.5833 0.5H3.41667C1.80584 0.5 0.5 1.80584 0.5 3.41667V11.5833C0.5 13.1942 1.80584 14.5 3.41667 14.5H11.5833C13.1942 14.5 14.5 13.1942 14.5 11.5833V3.41667C14.5 1.80584 13.1942 0.5 11.5833 0.5Z" fill="var(--mw-icon-background-default-white, #FFFFFF)" stroke="var(--mw-icon-border-default-blue, #1656A7)"/>
<path d="M9 10V11H11L7.5 13L4 11H6V10H9Z" fill="var(--mw-icon-glyph-content-blue, #1656A8)"/>
<path d="M10 7.00001H9V6.00001H6V7.00001H5V6.00001H3V8.50001C3 8.77615 3.22386 9.00001 3.5 9.00001H7H11.5C11.7761 9.00001 12 8.77615 12 8.50001V6.00001H10V7.00001Z" fill="var(--mw-icon-glyph-content-blue, #1656A8)"/>
<path d="M11 3H9V2.25C9 2.11193 8.88807 2 8.75 2H7.5H6.25C6.11193 2 6 2.11193 6 2.25V3H4H3.5C3.22386 3 3 3.22386 3 3.5V4V5.00001H5V4H6V5.00001L9 5V4H10V5L12 5.00001V4V3.5C12 3.22386 11.7761 3 11.5 3H11Z" fill="var(--mw-icon-glyph-content-blue, #1656A8)"/>
</svg>
