<svg width="16" height="16" viewBox="0 0 16 16" fill="none" xmlns="http://www.w3.org/2000/svg">
<path fill-rule="evenodd" clip-rule="evenodd" d="M8.54432 0.501767C7.96437 0.471546 7.622 0.83328 7.622 1.25244L7.53971 6.268C7.53971 6.43441 7.49982 7.11755 7.39013 7.21633C7.11091 7.37439 7.0047 6.762 6.94879 6.60486L5.50329 2.41577C5.35833 2.00835 4.90457 1.79201 4.48761 1.93152C4.06572 2.07269 3.84268 2.52393 3.99138 2.93548L5.52537 8.50053C5.65422 8.85711 5.63506 9.20189 5.47551 9.39946C5.36582 9.47849 4.96794 9.65641 4.57643 9.26508L2.14593 7.16493C1.76889 6.78808 1.14902 6.78873 0.77281 7.16637C0.41153 7.52902 0.408733 8.10675 0.766486 8.47274L4.10406 11.8871C4.35467 12.1435 4.57293 12.4284 4.75416 12.7357L5.68044 14.3064C6.11602 15.045 6.92094 15.5 7.79201 15.5H10.6981C12.0585 15.5 13.3541 14.7743 13.5414 13.3913C13.5414 13.3913 13.6946 11.924 13.6776 10.7771C13.6605 9.63028 13.4019 9.36128 13.6435 8.7979L15.3801 4.94165C15.5718 4.49456 15.5654 3.83046 15.1247 3.60927C14.6709 3.38148 14.0965 3.64557 13.8478 4.0815L11.9932 7.35522C11.9081 7.50435 11.7235 7.56885 11.5612 7.50611C11.3989 7.44337 11.3091 7.27276 11.351 7.10694L12.6302 2.17494C12.73 1.78023 12.5049 1.37636 12.112 1.24487C11.6681 1.09637 11.1896 1.35157 11.0762 1.7972L9.85861 6.37837C9.81608 6.54557 9.66523 6.62303 9.49056 6.60206C9.31589 6.58108 9.24637 5.98818 9.24637 5.81588L9.26163 1.36357C9.26163 0.94441 9.07849 0.516915 8.54432 0.501767Z" fill="var(--mw-icon-background-default-white, #FFFFFF)" stroke="var(--mw-icon-border-default-gray, #616161)" stroke-linecap="round" stroke-linejoin="round"/>
</svg>
