<svg width="16" height="16" viewBox="0 0 16 16" fill="none" xmlns="http://www.w3.org/2000/svg">
<path fill-rule="evenodd" clip-rule="evenodd" d="M6.87422 1.34497C6.4755 1.32419 6.24012 1.57288 6.24012 1.86105L6.18355 5.30925C6.18355 5.42366 6.15613 5.89331 6.08071 5.96123C5.88875 6.06989 5.81573 5.64888 5.77729 5.54084L4.78351 2.66084C4.68385 2.38074 4.37189 2.23201 4.08523 2.32792C3.79518 2.42497 3.64184 2.7352 3.74408 3.01814L4.79869 6.84411C4.88728 7.08926 4.87411 7.3263 4.76442 7.46213C4.689 7.51646 4.41546 7.63878 4.14629 7.36974L2.47532 5.92589C2.21611 5.66681 1.78995 5.66725 1.53131 5.92688C1.28293 6.1762 1.281 6.57339 1.52696 6.82501L3.82154 9.1724C3.99383 9.34866 4.14389 9.54453 4.26849 9.75581L4.90531 10.8357C5.20477 11.3434 5.75814 11.6563 6.35701 11.6563H8.35497C9.29025 11.6563 10.1809 11.1573 10.3097 10.2065C10.3097 10.2065 10.415 9.19775 10.4033 8.40928C10.3916 7.62082 10.2138 7.43588 10.3799 7.04856L11.5738 4.39738C11.7056 4.09001 11.7012 3.63344 11.3982 3.48137C11.0862 3.32477 10.6914 3.50633 10.5204 3.80603L9.24533 6.05671C9.18683 6.15924 9.05988 6.20358 8.94832 6.16045C8.83675 6.11732 8.77499 6.00002 8.80381 5.88602L9.68326 2.49527C9.75186 2.22391 9.59714 1.94625 9.32697 1.85585C9.02184 1.75375 8.69284 1.9292 8.61492 2.23557L7.77779 5.38513C7.74856 5.50008 7.64485 5.55333 7.52476 5.53891C7.40467 5.52449 7.35688 5.11688 7.35688 4.99842L7.36737 1.93745C7.36737 1.64928 7.24146 1.35538 6.87422 1.34497Z" fill="var(--mw-icon-background-default-white, #FFFFFF)" stroke="var(--mw-icon-border-default-gray, #616161)" stroke-linecap="round" stroke-linejoin="round"/>
<path d="M3 12L1.5 13.4973M1.5 13.4973L3 15M1.5 13.4973L13.5 13.4973M13.5 13.4973L12 12M13.5 13.4973L12 15" stroke="var(--mw-icon-object-primary, #616160)" stroke-linecap="round" stroke-linejoin="round"/>
</svg>
