<svg width="16" height="16" viewBox="0 0 16 16" fill="none" xmlns="http://www.w3.org/2000/svg">
<path fill-rule="evenodd" clip-rule="evenodd" d="M7.89917 0.501296C7.47387 0.479133 7.2228 0.744405 7.2228 1.05179L7.16245 4.72987C7.16245 4.8519 7.1332 5.35287 7.05276 5.42531C6.848 5.54122 6.77011 5.09213 6.72911 4.9769L5.66908 1.9049C5.56277 1.60613 5.23002 1.44748 4.92425 1.54978C4.61486 1.65331 4.4513 1.98422 4.56035 2.28602L5.68527 6.36705C5.77976 6.62855 5.76571 6.88139 5.64871 7.02627C5.56827 7.08423 5.27649 7.2147 4.98938 6.92773L3.20701 5.38762C2.93052 5.11126 2.47595 5.11174 2.20006 5.38867C1.93512 5.65461 1.93307 6.07829 2.19542 6.34668L4.64298 8.85056C4.82675 9.03857 4.98681 9.24749 5.11972 9.47286L5.79899 10.6247C6.11842 11.1663 6.70869 11.5 7.34748 11.5H9.47863C10.4763 11.5 11.4263 10.9678 11.5637 9.95362C11.5637 9.95362 11.676 8.8776 11.6635 8.03657C11.6511 7.19554 11.4614 6.99827 11.6386 6.58513L12.9121 3.75721C13.0527 3.42934 13.048 2.94234 12.7248 2.78013C12.392 2.61309 11.9708 2.80675 11.7884 3.12643L10.4284 5.52716C10.366 5.63653 10.2305 5.68382 10.1115 5.63781C9.99254 5.59181 9.92665 5.46669 9.95739 5.34509L10.8955 1.72829C10.9686 1.43884 10.8036 1.14266 10.5154 1.04624C10.19 0.937335 9.83902 1.12448 9.75591 1.45128L8.86298 4.8108C8.83179 4.93342 8.72117 4.99022 8.59308 4.97484C8.46498 4.95946 8.414 4.52467 8.414 4.39831L8.42519 1.13328C8.42519 0.825901 8.29089 0.512405 7.89917 0.501296Z" stroke="var(--mw-icon-glyph-content-mono, #616061)" stroke-linecap="round" stroke-linejoin="round"/>
<path d="M2.5 11.5L0.5 13.5M0.5 13.5L2.5 15.5M0.5 13.5L15.5 13.4973M15.5 13.4973L13.5 11.5M15.5 13.4973L13.5 15.5" stroke="var(--mw-icon-glyph-content-mono, #616061)" stroke-linecap="round" stroke-linejoin="round"/>
</svg>
