<svg width="16" height="16" viewBox="0 0 16 16" fill="none" xmlns="http://www.w3.org/2000/svg">
<path d="M11.5 13.5L13.5 15.5M13.5 15.5L15.5 13.5M13.5 15.5L13.5 0.5M13.5 0.5L11.5 2.5M13.5 0.5L15.5 2.5" stroke="var(--mw-icon-glyph-content-mono, #616061)" stroke-linecap="round" stroke-linejoin="round"/>
<path fill-rule="evenodd" clip-rule="evenodd" d="M6.46955 2.34505C6.02391 2.32288 5.76084 2.58816 5.76084 2.89554L5.69761 6.57362C5.69761 6.69565 5.66696 7.19662 5.58267 7.26906C5.36812 7.38497 5.28651 6.93588 5.24354 6.82065L4.13282 3.74865C4.02143 3.44988 3.67276 3.29123 3.35237 3.39353C3.02819 3.49706 2.8568 3.82797 2.97107 4.12977L4.14979 8.2108C4.2488 8.4723 4.23408 8.72514 4.11148 8.87002C4.02719 8.92798 3.72146 9.05845 3.42062 8.77148L1.76883 7.37091C1.47912 7.09455 0.5 7 0.5 7.5C0.5 8 0.868991 8.60163 1.14389 8.87002L3.05765 10.6943C3.25022 10.8823 3.41793 11.0912 3.55719 11.3166L4.26895 12.4684C4.60365 13.0101 5.22214 13.3438 5.89148 13.3438H8.12455C9.16989 13.3438 10.1654 12.8116 10.3093 11.7974C10.3093 11.7974 10.427 10.7213 10.414 9.88032C10.4009 9.03929 10.2021 8.84202 10.3878 8.42888L11.7222 5.60096C11.8695 5.27309 11.8646 4.78609 11.5259 4.62388C11.1772 4.45684 10.7359 4.6505 10.5448 4.97018L9.11969 7.37091C9.05431 7.48027 8.91242 7.52757 8.78772 7.48156C8.66303 7.43556 8.59399 7.31044 8.62621 7.18884L9.60915 3.57204C9.68582 3.28259 9.5129 2.98641 9.21094 2.88999C8.8699 2.78108 8.50218 2.96823 8.41509 3.29503L7.47945 6.65455C7.44678 6.77717 7.33086 6.83397 7.19665 6.81859C7.06243 6.80321 7.00901 6.36842 7.00901 6.24206L7.02074 2.97703C7.02074 2.66965 6.88001 2.35615 6.46955 2.34505Z" stroke="var(--mw-icon-glyph-content-mono, #616061)" stroke-linecap="round" stroke-linejoin="round"/>
</svg>
