<svg width="16" height="16" viewBox="0 0 16 16" fill="none" xmlns="http://www.w3.org/2000/svg">
<path d="M11.5 1C11.7761 1 12 1.22386 12 1.5V2.5C12 2.77614 11.7761 3 11.5 3L4.5 3C4.22386 3 4 2.77614 4 2.5L4 1.5C4 1.22386 4.22386 1 4.5 1L11.5 1Z" fill="var(--mw-icon-object-primary, #616160)"/>
<path d="M11.5 4C11.7761 4 12 4.22386 12 4.5V5.5C12 5.77614 11.7761 6 11.5 6L4.5 6C4.22386 6 4 5.77614 4 5.5L4 4.5C4 4.22386 4.22386 4 4.5 4L11.5 4Z" fill="var(--mw-icon-object-primary, #616160)"/>
<path d="M11.5 7C11.7761 7 12 7.22386 12 7.5V8.5C12 8.77614 11.7761 9 11.5 9H4.5C4.22386 9 4 8.77614 4 8.5L4 7.5C4 7.22386 4.22386 7 4.5 7L11.5 7Z" fill="var(--mw-icon-object-primary, #616160)"/>
<path d="M11.5 10C11.7761 10 12 10.2239 12 10.5V11.5C12 11.7761 11.7761 12 11.5 12H4.5C4.22386 12 4 11.7761 4 11.5L4 10.5C4 10.2239 4.22386 10 4.5 10H11.5Z" fill="var(--mw-icon-object-primary, #616160)"/>
<path d="M11.5 13C11.7761 13 12 13.2239 12 13.5V14.5C12 14.7761 11.7761 15 11.5 15H4.5C4.22386 15 4 14.7761 4 14.5L4 13.5C4 13.2239 4.22386 13 4.5 13H11.5Z" fill="var(--mw-icon-object-primary, #616160)"/>
</svg>
