<svg width="16" height="16" viewBox="0 0 16 16" fill="none" xmlns="http://www.w3.org/2000/svg">
<path d="M12.5 5.5L14.4545 7.45446C14.4706 7.47057 14.4786 7.47862 14.4816 7.48794C14.4841 7.49579 14.4841 7.50421 14.4816 7.51206C14.4786 7.52138 14.4706 7.52943 14.4545 7.54554L12.5 9.5" stroke="var(--mw-icon-object-primary, #616160)" stroke-linecap="round"/>
<path d="M0.5 5.5L2.45446 7.45446C2.47057 7.47057 2.47862 7.47862 2.48157 7.48794C2.48405 7.49579 2.48405 7.50421 2.48157 7.51206C2.47862 7.52138 2.47057 7.52943 2.45446 7.54554L0.5 9.5" stroke="#E11B14" stroke-linecap="round"/>
<path d="M3.5 3.5H11.5V11.5H3.5V3.5Z" fill="var(--mw-icon-background-default-white, #FFFFFF)" stroke="var(--mw-icon-border-default-gray, #616161)" stroke-linejoin="round"/>
<path d="M5.5 5.5H9.5V6.5H5.5V5.5Z" stroke="#E11B14"/>
<path d="M5.5 8.5H9.5V9.5H5.5V8.5Z" fill="var(--mw-icon-background-medium-yellow, #FFEF91)" stroke="var(--mw-icon-glyph-content-mono, #616061)"/>
</svg>
