<svg width="16" height="16" viewBox="0 0 16 16" fill="none" xmlns="http://www.w3.org/2000/svg">
<path d="M1 4.5C1 4.22386 1.22386 4 1.5 4H2.5C2.77614 4 3 4.22386 3 4.5V11.5C3 11.7761 2.77614 12 2.5 12H1.5C1.22386 12 1 11.7761 1 11.5V4.5Z" fill="var(--mw-icon-object-primary, #616160)"/>
<path d="M4 4.5C4 4.22386 4.22386 4 4.5 4H5.5C5.77614 4 6 4.22386 6 4.5V11.5C6 11.7761 5.77614 12 5.5 12H4.5C4.22386 12 4 11.7761 4 11.5V4.5Z" fill="var(--mw-icon-object-primary, #616160)"/>
<path d="M7 4.5C7 4.22386 7.22386 4 7.5 4H8.5C8.77614 4 9 4.22386 9 4.5V11.5C9 11.7761 8.77614 12 8.5 12H7.5C7.22386 12 7 11.7761 7 11.5V4.5Z" fill="var(--mw-icon-object-primary, #616160)"/>
<path d="M10 4.5C10 4.22386 10.2239 4 10.5 4H11.5C11.7761 4 12 4.22386 12 4.5V11.5C12 11.7761 11.7761 12 11.5 12H10.5C10.2239 12 10 11.7761 10 11.5V4.5Z" fill="var(--mw-icon-object-primary, #616160)"/>
<path d="M13 4.5C13 4.22386 13.2239 4 13.5 4H14.5C14.7761 4 15 4.22386 15 4.5V11.5C15 11.7761 14.7761 12 14.5 12H13.5C13.2239 12 13 11.7761 13 11.5V4.5Z" fill="var(--mw-icon-object-primary, #616160)"/>
</svg>
