<svg width="16" height="16" viewBox="0 0 16 16" fill="none" xmlns="http://www.w3.org/2000/svg">
<path d="M4.5 14C4.22386 14 4 13.7761 4 13.5L4.00002 2.5C4.00002 2.22386 4.22388 2 4.50002 2L6.5 2C6.77614 2 7 2.22386 7 2.5L6.99998 13.5C6.99998 13.7761 6.77612 14 6.49998 14L4.5 14Z" fill="var(--mw-icon-object-primary, #616160)"/>
<path d="M9.5 14C9.22386 14 9 13.7761 9 13.5L9.00002 2.5C9.00002 2.22386 9.22388 2 9.50002 2L11.5 2C11.7761 2 12 2.22386 12 2.5L12 13.5C12 13.7761 11.7761 14 11.5 14L9.5 14Z" fill="var(--mw-icon-object-primary, #616160)"/>
</svg>
