<svg width="16" height="16" viewBox="0 0 16 16" fill="none" xmlns="http://www.w3.org/2000/svg">
<circle cx="8" cy="8" r="7.5" stroke="var(--mw-icon-object-primary, #616160)"/>
<path d="M5.5 11C5.22386 11 5 10.7761 5 10.5L5 5.5C5 5.22386 5.22386 5 5.5 5L6.5 5C6.77614 5 7 5.22386 7 5.5L7 10.5C7 10.7761 6.77614 11 6.5 11H5.5Z" fill="var(--mw-icon-object-primary, #616160)"/>
<path d="M9.5 11C9.22386 11 9 10.7761 9 10.5L9 5.5C9 5.22386 9.22386 5 9.5 5L10.5 5C10.7761 5 11 5.22386 11 5.5L11 10.5C11 10.7761 10.7761 11 10.5 11H9.5Z" fill="var(--mw-icon-object-primary, #616160)"/>
</svg>
