<svg width="16" height="16" viewBox="0 0 16 16" fill="none" xmlns="http://www.w3.org/2000/svg">
<path d="M0.5 12.5V2.5C0.5 1.39543 1.39543 0.5 2.5 0.5H12.5C13.6046 0.5 14.5 1.39543 14.5 2.5V12.5C14.5 13.6046 13.6046 14.5 12.5 14.5H2.5C1.39543 14.5 0.5 13.6046 0.5 12.5Z" fill="#00A3A3"/>
<path d="M11.5833 0.5H3.41667C1.80584 0.5 0.5 1.80584 0.5 3.41667V11.5833C0.5 13.1942 1.80584 14.5 3.41667 14.5H11.5833C13.1942 14.5 14.5 13.1942 14.5 11.5833V3.41667C14.5 1.80584 13.1942 0.5 11.5833 0.5Z" fill="#00A3A3"/>
<path d="M10 9H6L4 12H12L10 9ZM6 11L6.7 10H9.4L10.1 11H6Z" fill="var(--mw-icon-background-default-white, white)"/>
<path d="M12 13H4V14H12V13Z" fill="var(--mw-icon-background-default-white, white)"/>
<path d="M13.2937 3.87848C13.5367 3.68614 13.5694 3.33432 13.3466 3.12004C12.7191 2.51674 11.9808 2.02329 11.1661 1.66444C10.1751 1.22794 9.09485 1.00117 8.0011 1C6.90734 0.998844 5.82655 1.22333 4.8345 1.65772C4.01889 2.01485 3.27949 2.50675 2.65054 3.10873C2.42718 3.32252 2.4591 3.67438 2.70168 3.86725C2.93343 4.05149 3.27171 4.02128 3.48675 3.81871C4.01365 3.32237 4.62971 2.91595 5.3077 2.61907C6.15111 2.24977 7.06996 2.05892 7.99983 2.05991C8.9297 2.06089 9.84809 2.25369 10.6906 2.62479C11.3679 2.92309 11.9829 3.33079 12.5086 3.82822C12.7232 4.03128 13.0615 4.06224 13.2937 3.87848Z" fill="var(--mw-icon-background-default-white, white)"/>
<path d="M11.9002 5.21394C12.059 4.97209 12.0272 4.63508 11.8128 4.45267C10.6949 3.50185 9.36144 2.992 7.99263 3.00009C6.62343 3.00819 5.29371 3.53407 4.18324 4.49857C3.97076 4.68312 3.942 5.01998 4.10256 5.25986C4.28837 5.53745 4.6505 5.57472 4.90245 5.36991C5.81654 4.62683 6.89185 4.2232 7.99743 4.21666C9.10271 4.21012 10.1809 4.60081 11.1006 5.33265C11.3546 5.53477 11.7167 5.49365 11.9002 5.21394Z" fill="var(--mw-icon-background-default-white, white)"/>
<path d="M10.4645 6.70922C10.5343 6.51923 10.5 6.29313 10.3714 6.15921C9.65448 5.41273 8.83917 5.0119 8.00609 5.00026C7.17434 4.98864 6.35689 5.36541 5.63432 6.08951C5.50249 6.22161 5.46513 6.44932 5.53367 6.6422C5.64179 6.94647 5.95723 7.02886 6.17718 6.84061C6.74425 6.35528 7.36795 6.10503 8.0012 6.11388C8.63556 6.12275 9.25807 6.39133 9.82159 6.89417C10.0379 7.08716 10.3536 7.01079 10.4645 6.70922Z" fill="var(--mw-icon-background-default-white, white)"/>
<path d="M0.5 12.5V2.5C0.5 1.39543 1.39543 0.5 2.5 0.5H12.5C13.6046 0.5 14.5 1.39543 14.5 2.5V12.5C14.5 13.6046 13.6046 14.5 12.5 14.5H2.5C1.39543 14.5 0.5 13.6046 0.5 12.5Z" stroke="#02555C" stroke-linecap="round"/>
<path d="M0.5 12.5V2.5C0.5 1.39543 1.39543 0.5 2.5 0.5H12.5C13.6046 0.5 14.5 1.39543 14.5 2.5V12.5C14.5 13.6046 13.6046 14.5 12.5 14.5H2.5C1.39543 14.5 0.5 13.6046 0.5 12.5Z" stroke="#02555C" stroke-linecap="round"/>

</svg>
