<svg width="16" height="16" viewBox="0 0 16 16" fill="none" xmlns="http://www.w3.org/2000/svg">
<path d="M3.5 1.5L3.5 13.5C3.5 14.0523 3.94772 14.5 4.5 14.5L14.5 14.5C15.0523 14.5 15.5 14.0523 15.5 13.5L15.5 3.91421C15.5 3.649 15.3946 3.39464 15.2071 3.20711L12.7929 0.792893C12.6054 0.605356 12.351 0.499999 12.0858 0.499999L4.5 0.5C3.94771 0.5 3.5 0.947716 3.5 1.5Z" fill="#A42516" stroke="#A42516"/>
<path d="M13.094 5.52344V10.5H12.0925V5.52344H13.094ZM14.6526 7.63916V8.46631H12.8411V7.63916H14.6526ZM14.844 5.52344V6.354H12.8411V5.52344H14.844Z" fill="var(--mw-icon-background-default-white, #FFFFFF)"/>
<path d="M9.43335 10.5H8.55493L8.56177 9.67285H9.43335C9.67489 9.67285 9.86287 9.62956 9.99731 9.54297C10.1318 9.45638 10.2263 9.31966 10.281 9.13281C10.338 8.94596 10.3665 8.70101 10.3665 8.39795V7.62207C10.3665 7.39193 10.3516 7.1971 10.322 7.0376C10.2924 6.87581 10.2423 6.74593 10.1716 6.64795C10.101 6.54769 10.0064 6.47363 9.88794 6.42578C9.76945 6.37793 9.62248 6.354 9.44702 6.354H8.53784V5.52344H9.44702C9.73413 5.52344 9.99504 5.57015 10.2297 5.66357C10.4644 5.757 10.6661 5.89372 10.8347 6.07373C11.0033 6.25146 11.1332 6.47135 11.2244 6.7334C11.3155 6.99544 11.3611 7.29395 11.3611 7.62891V8.39795C11.3611 8.73519 11.3155 9.03369 11.2244 9.29346C11.1332 9.55322 11.0033 9.77311 10.8347 9.95312C10.6684 10.1309 10.4667 10.2664 10.2297 10.3599C9.99276 10.4533 9.72729 10.5 9.43335 10.5ZM9.13599 5.52344V10.5H8.13452V5.52344H9.13599Z" fill="white"/>
<path d="M5.85132 8.74658H4.83276V7.91602H5.8479C5.99373 7.91602 6.11108 7.88411 6.19995 7.82031C6.28882 7.75651 6.35376 7.66878 6.39478 7.55713C6.43579 7.4432 6.4563 7.31559 6.4563 7.17432C6.4563 7.03076 6.43579 6.89632 6.39478 6.771C6.35376 6.64567 6.28882 6.54541 6.19995 6.47021C6.11108 6.39274 5.99487 6.354 5.85132 6.354H5.15405V10.5H4.15601V5.52344H5.85132C6.18628 5.52344 6.47453 5.59408 6.71606 5.73535C6.9576 5.87663 7.14217 6.07145 7.26978 6.31982C7.39966 6.56592 7.4646 6.84847 7.4646 7.16748C7.4646 7.48649 7.39966 7.76449 7.26978 8.00146C7.13989 8.23844 6.95418 8.42188 6.71265 8.55176C6.47339 8.68164 6.18628 8.74658 5.85132 8.74658Z" fill="white"/>
</svg>
