<svg width="16" height="16" viewBox="0 0 16 16" fill="none" xmlns="http://www.w3.org/2000/svg">
<path d="M14 5H7V14H14V5Z" fill="var(--mw-icon-background-light-yellow, #FFF5BC)"/>
<path d="M7 5H1V14H7V5Z" fill="#FFCBCB"/>
<path d="M14 1H1.00001L0.999985 5H14V1Z" fill="var(--mw-icon-background-default-action, #CBFFBE)"/>
<path d="M0.5 5.5C8.5 5.5 9.5 10.3328 9.5 14" stroke="#0072BD"/>
<path d="M0.5 2.5C12.7824 2.30399 12.5 9.14597 12.5 14.5" stroke="#D95319"/>
<path d="M13.5 0.5H1.5C0.947715 0.5 0.5 0.947716 0.5 1.5V13.5C0.5 14.0523 0.947716 14.5 1.5 14.5H13.5C14.0523 14.5 14.5 14.0523 14.5 13.5V1.5C14.5 0.947715 14.0523 0.5 13.5 0.5Z" stroke="var(--mw-icon-border-default-gray, #616161)" stroke-linecap="round"/>
</svg>
