<svg width="16" height="16" viewBox="0 0 16 16" fill="none" xmlns="http://www.w3.org/2000/svg">
<rect x="0.5" y="0.5" width="14" height="14" rx="1" fill="var(--mw-icon-background-default-white, #FFFFFF)" stroke="var(--mw-icon-border-default-gray, #616161)"/>
<path d="M6 2H7V11H6V2Z" fill="#0072BD"/>
<path d="M5 9H6V10H5V9Z" fill="#0072BD"/>
<path d="M11 9H12V10H11V9Z" fill="#0072BD"/>
<path d="M3 10H4V11H3V10Z" fill="#0072BD"/>
<path d="M1 12H2V13H1V12Z" fill="#0072BD"/>
<path d="M2 8H3V12H2V8Z" fill="#0072BD"/>
<path d="M7 8H8V11H7V8Z" fill="#0072BD"/>
<path d="M9 9H10V10.0667V12H9V9Z" fill="#0072BD"/>
<path d="M12 5H13V11H12V5Z" fill="#0072BD"/>
<path d="M13 10H14V12H13V10Z" fill="#0072BD"/>
<path d="M8 5H9V10H8V5Z" fill="#0072BD"/>
<path d="M10 3H11V10H10V3Z" fill="#0072BD"/>
<path d="M4 6H5V11H4V6Z" fill="#0072BD"/>
</svg>
