<svg width="16" height="16" viewBox="0 0 16 16" fill="none" xmlns="http://www.w3.org/2000/svg">
<circle cx="8" cy="2.00003" r="1.5" fill="var(--mw-icon-background-default-selection, #B4DEFF)" stroke="var(--mw-icon-glyph-content-blue, #1656A8)"/>
<path d="M5.5 5.49997C5.5 4.94768 5.94772 4.49997 6.5 4.49997H9.5C10.0523 4.49997 10.5 4.94768 10.5 5.49997V9.49997C10.5 10.0523 10.0523 10.5 9.5 10.5H6.5C5.94772 10.5 5.5 10.0523 5.5 9.49997V5.49997Z" fill="var(--mw-icon-background-default-selection, #B4DEFF)" stroke="var(--mw-icon-glyph-content-blue, #1656A8)"/>
<path d="M7 10.5H9V15.5H7V10.5Z" fill="var(--mw-icon-background-default-selection, #B4DEFF)"/>
<path d="M7 10.5V9.99997H6.5V10.5H7ZM9 10.5H9.5V9.99997H9V10.5ZM9 15.5V16C9.27614 16 9.5 15.7761 9.5 15.5H9ZM7 15.5H6.5C6.5 15.7761 6.72386 16 7 16V15.5ZM7 11H9V9.99997H7V11ZM8.5 10.5V15.5H9.5V10.5H8.5ZM9 15H7V16H9V15ZM7.5 15.5V10.5H6.5V15.5H7.5Z" fill="var(--mw-icon-glyph-content-blue, #1656A8)"/>
</svg>
