<svg width="16" height="16" viewBox="0 0 16 16" fill="none" xmlns="http://www.w3.org/2000/svg">
<path d="M13.5 0.5H1.5C0.947715 0.5 0.5 0.947716 0.5 1.5V13.5C0.5 14.0523 0.947716 14.5 1.5 14.5H13.5C14.0523 14.5 14.5 14.0523 14.5 13.5V1.5C14.5 0.947715 14.0523 0.5 13.5 0.5Z" fill="#3E26A8" stroke="var(--mw-icon-border-default-gray, #616161)" stroke-linecap="round"/>
<path d="M0.5 11.5H0.604957C1.11451 11.5 1.54257 11.1169 1.59884 10.6104L2.4446 2.99856C2.47614 2.71473 2.71605 2.5 3.00162 2.5V2.5C3.28582 2.5 3.52503 2.71272 3.55823 2.99496L4.40121 10.1603C4.45824 10.6451 4.85692 11.0178 5.34443 11.0422L14.5 11.5" stroke="#4DBEEE" stroke-linejoin="round"/>
<path d="M14.5 11.5H14.395C13.8855 11.5 13.4574 11.1169 13.4012 10.6104L12.5554 2.99856C12.5239 2.71473 12.284 2.5 11.9984 2.5V2.5C11.7142 2.5 11.475 2.71272 11.4418 2.99496L10.5988 10.1603C10.5418 10.6451 10.1431 11.0178 9.65557 11.0422L0.5 11.5" stroke="#4DBEEE" stroke-linejoin="round"/>
<path d="M0.5 11.5L2.90212 10.6993C3.26746 10.5775 3.5304 10.2568 3.57817 9.87465L4.43798 2.99614C4.47341 2.7127 4.71436 2.5 5 2.5V2.5C5.28564 2.5 5.52659 2.7127 5.56202 2.99614L6.40353 9.72823C6.46027 10.1822 6.81783 10.5397 7.27177 10.5965L14.5 11.5" stroke="#4DBEEE" stroke-linejoin="round"/>
<path d="M0.5 11.5L5.27767 10.6313C5.70752 10.5532 6.03687 10.205 6.09106 9.7715L6.93798 2.99614C6.97341 2.7127 7.21436 2.5 7.5 2.5V2.5C7.78564 2.5 8.02659 2.7127 8.06202 2.99614L8.90894 9.7715C8.96313 10.205 9.29248 10.5532 9.72233 10.6313L14.5 11.5" stroke="#4DBEEE" stroke-linejoin="round"/>
<path d="M0.5 11.5L7.72823 10.5965C8.18217 10.5397 8.53973 10.1822 8.59647 9.72823L9.43798 2.99614C9.47341 2.7127 9.71436 2.5 10 2.5V2.5C10.2856 2.5 10.5266 2.7127 10.562 2.99614L11.4218 9.87465C11.4696 10.2568 11.7325 10.5775 12.0979 10.6993L14.5 11.5" stroke="#4DBEEE" stroke-linejoin="round"/>
<path d="M0.5 11.546C2.40909 10.3794 7.88182 8.74602 14.5 11.546" stroke="#EDB120" stroke-linejoin="round"/>
<path d="M0.5 12.592C2.40909 11.4254 7.88182 9.79205 14.5 12.592" stroke="#77AC30" stroke-linejoin="round"/>
<path d="M13.5 0.5H1.5C0.947715 0.5 0.5 0.947716 0.5 1.5V13.5C0.5 14.0523 0.947716 14.5 1.5 14.5H13.5C14.0523 14.5 14.5 14.0523 14.5 13.5V1.5C14.5 0.947715 14.0523 0.5 13.5 0.5Z" stroke="var(--mw-icon-border-default-gray, #616161)" stroke-linecap="round"/>
</svg>
