<svg width="16" height="16" viewBox="0 0 16 16" fill="none" xmlns="http://www.w3.org/2000/svg">
<path d="M0.5 12.5V2.5C0.5 1.39543 1.39543 0.5 2.5 0.5H12.5C13.6046 0.5 14.5 1.39543 14.5 2.5V12.5C14.5 13.6046 13.6046 14.5 12.5 14.5H2.5C1.39543 14.5 0.5 13.6046 0.5 12.5Z" fill="#00A9E0"/>
<path d="M6.5 3.5H2.5V8.5H13.5V3.5H11.5" stroke="black"/>
<path d="M6.5 1.5H11.5V6.5H6.5V1.5Z" fill="var(--mw-icon-background-default-white, white)" stroke="black"/>
<path d="M3.5 10V14" stroke="var(--mw-icon-background-default-white, white)"/>
<path d="M7.5 9.5V14" stroke="var(--mw-icon-background-default-white, white)"/>
<path d="M3 10H5.5V12H4" stroke="var(--mw-icon-background-default-white, white)"/>
<path d="M11 10H9.5V13.5H11L11.5 12.875V12.25V11L11 10Z" stroke="var(--mw-icon-background-default-white, white)"/>
<path d="M0.5 12.5V2.5C0.5 1.39543 1.39543 0.5 2.5 0.5H12.5C13.6046 0.5 14.5 1.39543 14.5 2.5V12.5C14.5 13.6046 13.6046 14.5 12.5 14.5H2.5C1.39543 14.5 0.5 13.6046 0.5 12.5Z" stroke="#245474" stroke-linecap="round"/>

</svg>
