<svg width="16" height="16" viewBox="0 0 16 16" fill="none" xmlns="http://www.w3.org/2000/svg">
<rect x="0.5" y="0.5" width="14" height="14" rx="1" fill="var(--mw-icon-background-default-white, #FFFFFF)"/>
<path d="M1 14L14 1" stroke="var(--mw-icon-glyph-content-gray, #616162)" stroke-linecap="round"/>
<path d="M1.5 12.5H3.5V14.5H2C1.72386 14.5 1.5 14.2761 1.5 14V12.5Z" stroke="#1171BE" stroke-linejoin="round"/>
<path d="M3.5 9.5H5.5V11.5H3.5V9.5Z" stroke="#1171BE" stroke-linejoin="round"/>
<path d="M1.5 5.5H3.5V7.5H1.5V5.5Z" stroke="#1171BE" stroke-linejoin="round"/>
<path d="M6.5 12.5H8.5V14.5H6.5V12.5Z" stroke="#1171BE" stroke-linejoin="round"/>
<path d="M7.5 8.5H9.5V10.5H7.5V8.5Z" stroke="#1171BE" stroke-linejoin="round"/>
<path d="M5.5 5.5H7.5V7.5H5.5V5.5Z" stroke="#1171BE" stroke-linejoin="round"/>
<path d="M9.5 5.5H11.5V7.5H9.5V5.5Z" stroke="#1171BE" stroke-linejoin="round"/>
<path d="M11.5 2.5H13.5V4.5H11.5V2.5Z" stroke="#1171BE" stroke-linejoin="round"/>
<rect x="0.5" y="0.5" width="14" height="14" rx="1" stroke="var(--mw-icon-border-default-gray, #616161)"/>
</svg>
