<svg width="16" height="16" viewBox="0 0 16 16" fill="none" xmlns="http://www.w3.org/2000/svg">
<rect x="0.5" y="0.5" width="15" height="15" rx="1" fill="var(--mw-icon-background-default-white, #FFFFFF)" stroke="var(--mw-icon-border-default-gray, #616161)"/>
<path d="M4.5 3H4V4H4.5V3ZM12.5 3.5H13C13 3.22386 12.7761 3 12.5 3V3.5ZM12 11.5V12H13V11.5H12ZM4.5 4H12.5V3H4.5V4ZM12 3.5C12 3.50586 12 3.51173 12 3.5176C12 3.52348 12 3.52936 12 3.53525C12 3.54114 12 3.54703 12 3.55294C12 3.55884 12 3.56476 12 3.57068C12 3.57659 12 3.58252 12 3.58846C12 3.59439 12 3.60033 12 3.60628C12 3.61223 12 3.61819 12 3.62415C12 3.63011 12 3.63609 12 3.64206C12 3.64804 12 3.65403 12 3.66002C12 3.66601 12 3.67201 12 3.67802C12 3.68402 12 3.69004 12 3.69606C12 3.70208 12 3.70811 12 3.71414C12 3.72018 12 3.72622 12 3.73227C12 3.73832 12 3.74437 12 3.75044C12 3.7565 12 3.76257 12 3.76865C12 3.77472 12 3.78081 12 3.7869C12 3.79299 12 3.79908 12 3.80519C12 3.81129 12 3.8174 12 3.82352C12 3.82963 12 3.83576 12 3.84189C12 3.84802 12 3.85416 12 3.8603C12 3.86644 12 3.87259 12 3.87875C12 3.88491 12 3.89107 12 3.89724C12 3.90341 12 3.90959 12 3.91577C12 3.92195 12 3.92814 12 3.93434C12 3.94053 12 3.94674 12 3.95294C12 3.95915 12 3.96537 12 3.97159C12 3.97781 12 3.98403 12 3.99027C12 3.9965 12 4.00274 12 4.00899C12 4.01523 12 4.02148 12 4.02774C12 4.034 12 4.04026 12 4.04653C12 4.05281 12 4.05908 12 4.06536C12 4.07165 12 4.07793 12 4.08423C12 4.09052 12 4.09682 12 4.10313C12 4.10944 12 4.11575 12 4.12207C12 4.12838 12 4.13471 12 4.14104C12 4.14737 12 4.1537 12 4.16004C12 4.16638 12 4.17273 12 4.17908C12 4.18544 12 4.19179 12 4.19816C12 4.20452 12 4.21089 12 4.21727C12 4.22364 12 4.23002 12 4.23641C12 4.24279 12 4.24919 12 4.25558C12 4.26198 12 4.26838 12 4.27479C12 4.2812 12 4.28761 12 4.29403C12 4.30045 12 4.30688 12 4.31331C12 4.31974 12 4.32617 12 4.33261C12 4.33905 12 4.3455 12 4.35195C12 4.3584 12 4.36486 12 4.37132C12 4.37778 12 4.38424 12 4.39072C12 4.39719 12 4.40366 12 4.41015C12 4.41663 12 4.42312 12 4.42961C12 4.4361 12 4.4426 12 4.4491C12 4.4556 12 4.46211 12 4.46862C12 4.47513 12 4.48165 12 4.48817C12 4.49469 12 4.50122 12 4.50775C12 4.51428 12 4.52082 12 4.52736C12 4.5339 12 4.54044 12 4.54699C12 4.55354 12 4.5601 12 4.56666C12 4.57322 12 4.57978 12 4.58635C12 4.59292 12 4.59949 12 4.60607C12 4.61265 12 4.61923 12 4.62582C12 4.63241 12 4.639 12 4.64559C12 4.65219 12 4.65879 12 4.6654C12 4.672 12 4.67861 12 4.68522C12 4.69184 12 4.69846 12 4.70508C12 4.7117 12 4.71833 12 4.72496C12 4.73159 12 4.73822 12 4.74486C12 4.7515 12 4.75815 12 4.76479C12 4.77144 12 4.77809 12 4.78475C12 4.7914 12 4.79806 12 4.80473C12 4.81139 12 4.81806 12 4.82473C12 4.8314 12 4.83808 12 4.84476C12 4.85144 12 4.85812 12 4.86481C12 4.8715 12 4.87819 12 4.88489C12 4.89158 12 4.89828 12 4.90498C12 4.91169 12 4.91839 12 4.9251C12 4.93181 12 4.93853 12 4.94525C12 4.95196 12 4.95868 12 4.96541C12 4.97213 12 4.97886 12 4.9856C12 4.99233 12 4.99906 12 5.0058C12 5.01254 12 5.01929 12 5.02603C12 5.03278 12 5.03953 12 5.04628C12 5.05303 12 5.05979 12 5.06655C12 5.07331 12 5.08007 12 5.08684C12 5.09361 12 5.10038 12 5.10715C12 5.11392 12 5.1207 12 5.12748C12 5.13426 12 5.14104 12 5.14783C12 5.15461 12 5.1614 12 5.16819C12 5.17499 12 5.18178 12 5.18858C12 5.19538 12 5.20218 12 5.20898C12 5.21579 12 5.22259 12 5.22941C12 5.23622 12 5.24303 12 5.24984C12 5.25666 12 5.26348 12 5.2703C12 5.27712 12 5.28395 12 5.29078C12 5.2976 12 5.30443 12 5.31127C12 5.3181 12 5.32493 12 5.33177C12 5.33861 12 5.34545 12 5.35229C12 5.35914 12 5.36598 12 5.37283C12 5.37968 12 5.38653 12 5.39339C12 5.40024 12 5.4071 12 5.41396C12 5.42082 12 5.42768 12 5.43454C12 5.4414 12 5.44827 12 5.45514C12 5.46201 12 5.46888 12 5.47575C12 5.48262 12 5.4895 12 5.49638C12 5.50326 12 5.51014 12 5.51702C12 5.5239 12 5.53078 12 5.53767C12 5.54456 12 5.55145 12 5.55834C12 5.56523 12 5.57212 12 5.57902C12 5.58591 12 5.59281 12 5.59971C12 5.60661 12 5.61351 12 5.62041C12 5.62731 12 5.63422 12 5.64112C12 5.64803 12 5.65494 12 5.66185C12 5.66876 12 5.67567 12 5.68259C12 5.6895 12 5.69642 12 5.70333C12 5.71025 12 5.71717 12 5.72409C12 5.73101 12 5.73794 12 5.74486C12 5.75179 12 5.75871 12 5.76564C12 5.77257 12 5.7795 12 5.78643C12 5.79336 12 5.80029 12 5.80722C12 5.81416 12 5.82109 12 5.82803C12 5.83497 12 5.8419 12 5.84884C12 5.85578 12 5.86272 12 5.86966C12 5.87661 12 5.88355 12 5.8905C12 5.89744 12 5.90439 12 5.91133C12 5.91828 12 5.92523 12 5.93218C12 5.93913 12 5.94608 12 5.95303C12 5.95998 12 5.96693 12 5.97389C12 5.98084 12 5.9878 12 5.99475C12 6.00171 12 6.00867 12 6.01562C12 6.02258 12 6.02954 12 6.0365C12 6.04346 12 6.05042 12 6.05738C12 6.06435 12 6.07131 12 6.07827C12 6.08523 12 6.0922 12 6.09916C12 6.10613 12 6.11309 12 6.12006C12 6.12703 12 6.13399 12 6.14096C12 6.14793 12 6.1549 12 6.16187C12 6.16883 12 6.1758 12 6.18277C12 6.18974 12 6.19671 12 6.20369C12 6.21066 12 6.21763 12 6.2246C12 6.23157 12 6.23854 12 6.24552C12 6.25249 12 6.25946 12 6.26644C12 6.27341 12 6.28038 12 6.28736C12 6.29433 12 6.3013 12 6.30828C12 6.31525 12 6.32223 12 6.3292C12 6.33618 12 6.34315 12 6.35013C12 6.3571 12 6.36408 12 6.37105C12 6.37803 12 6.385 12 6.39198C12 6.39896 12 6.40593 12 6.41291C12 6.41988 12 6.42686 12 6.43383C12 6.44081 12 6.44778 12 6.45476C12 6.46173 12 6.46871 12 6.47568C12 6.48266 12 6.48963 12 6.49661C12 6.50358 12 6.51055 12 6.51753C12 6.5245 12 6.53148 12 6.53845C12 6.54542 12 6.55239 12 6.55937C12 6.56634 12 6.57331 12 6.58028C12 6.58725 12 6.59423 12 6.6012C12 6.60817 12 6.61514 12 6.62211C12 6.62908 12 6.63604 12 6.64301C12 6.64998 12 6.65695 12 6.66392C12 6.67088 12 6.67785 12 6.68481C12 6.69178 12 6.69875 12 6.70571C12 6.71267 12 6.71964 12 6.7266C12 6.73356 12 6.74052 12 6.74748C12 6.75445 12 6.76141 12 6.76836C12 6.77532 12 6.78228 12 6.78924C12 6.7962 12 6.80315 12 6.81011C12 6.81706 12 6.82402 12 6.83097C12 6.83792 12 6.84487 12 6.85183C12 6.85878 12 6.86573 12 6.87267C12 6.87962 12 6.88657 12 6.89352C12 6.90046 12 6.90741 12 6.91435C12 6.92129 12 6.92824 12 6.93518C12 6.94212 12 6.94906 12 6.956C12 6.96294 12 6.96987 12 6.97681C12 6.98374 12 6.99068 12 6.99761C12 7.00454 12 7.01147 12 7.0184C12 7.02533 12 7.03226 12 7.03919C12 7.04611 12 7.05304 12 7.05996C12 7.06688 12 7.0738 12 7.08072C12 7.08764 12 7.09456 12 7.10148C12 7.10839 12 7.11531 12 7.12222C12 7.12913 12 7.13604 12 7.14295C12 7.14986 12 7.15677 12 7.16367C12 7.17058 12 7.17748 12 7.18438C12 7.19128 12 7.19818 12 7.20508C12 7.21198 12 7.21887 12 7.22577C12 7.23266 12 7.23955 12 7.24644C12 7.25333 12 7.26022 12 7.2671C12 7.27399 12 7.28087 12 7.28775C12 7.29463 12 7.30151 12 7.30838C12 7.31526 12 7.32213 12 7.329C12 7.33587 12 7.34274 12 7.34961C12 7.35648 12 7.36334 12 7.3702C12 7.37706 12 7.38392 12 7.39078C12 7.39764 12 7.40449 12 7.41134C12 7.41819 12 7.42504 12 7.43189C12 7.43874 12 7.44558 12 7.45242C12 7.45926 12 7.4661 12 7.47294C12 7.47977 12 7.48661 12 7.49344C12 7.50027 12 7.50709 12 7.51392C12 7.52074 12 7.52757 12 7.53439C12 7.54121 12 7.54802 12 7.55484C12 7.56165 12 7.56846 12 7.57527C12 7.58208 12 7.58888 12 7.59568C12 7.60248 12 7.60928 12 7.61608C12 7.62287 12 7.62967 12 7.63646C12 7.64324 12 7.65003 12 7.65681C12 7.6636 12 7.67038 12 7.67715C12 7.68393 12 7.6907 12 7.69748C12 7.70425 12 7.71101 12 7.71778C12 7.72454 12 7.7313 12 7.73806C12 7.74481 12 7.75157 12 7.75832C12 7.76507 12 7.77182 12 7.77856C12 7.7853 12 7.79204 12 7.79878C12 7.80551 12 7.81225 12 7.81898C12 7.82571 12 7.83243 12 7.83915C12 7.84588 12 7.85259 12 7.85931C12 7.86602 12 7.87273 12 7.87944C12 7.88615 12 7.89285 12 7.89955C12 7.90625 12 7.91295 12 7.91964C12 7.92633 12 7.93302 12 7.9397C12 7.94639 12 7.95307 12 7.95974C12 7.96642 12 7.97309 12 7.97976C12 7.98643 12 7.9931 12 7.99976C12 8.00642 12 8.01307 12 8.01972C12 8.02638 12 8.03303 12 8.03967C12 8.04631 12 8.05295 12 8.05959C12 8.06623 12 8.07286 12 8.07948C12 8.08611 12 8.09273 12 8.09935C12 8.10597 12 8.11259 12 8.11919C12 8.1258 12 8.13241 12 8.13901C12 8.14561 12 8.15221 12 8.1588C12 8.16539 12 8.17198 12 8.17857C12 8.18515 12 8.19173 12 8.1983C12 8.20488 12 8.21145 12 8.21801C12 8.22458 12 8.23114 12 8.23769C12 8.24425 12 8.2508 12 8.25734C12 8.26389 12 8.27043 12 8.27697C12 8.28351 12 8.29004 12 8.29656C12 8.30309 12 8.30961 12 8.31613C12 8.32265 12 8.32916 12 8.33567C12 8.34218 12 8.34868 12 8.35518C12 8.36167 12 8.36817 12 8.37465C12 8.38114 12 8.38763 12 8.3941C12 8.40058 12 8.40705 12 8.41352C12 8.41999 12 8.42645 12 8.43291C12 8.43936 12 8.44581 12 8.45226C12 8.45871 12 8.46515 12 8.47158C12 8.47802 12 8.48445 12 8.49088C12 8.4973 12 8.50372 12 8.51014C12 8.51655 12 8.52296 12 8.52936C12 8.53577 12 8.54216 12 8.54856C12 8.55495 12 8.56134 12 8.56772C12 8.5741 12 8.58048 12 8.58685C12 8.59322 12 8.59958 12 8.60594C12 8.6123 12 8.61865 12 8.625C12 8.63135 12 8.63769 12 8.64403C12 8.65036 12 8.65669 12 8.66302C12 8.66934 12 8.67566 12 8.68197C12 8.68829 12 8.69459 12 8.70089C12 8.70719 12 8.71349 12 8.71978C12 8.72607 12 8.73235 12 8.73863C12 8.74491 12 8.75118 12 8.75744C12 8.76371 12 8.76997 12 8.77622C12 8.78247 12 8.78872 12 8.79496C12 8.8012 12 8.80743 12 8.81366C12 8.81989 12 8.82611 12 8.83233C12 8.83854 12 8.84475 12 8.85095C12 8.85716 12 8.86335 12 8.86954C12 8.87573 12 8.88192 12 8.88809C12 8.89427 12 8.90044 12 8.90661C12 8.91277 12 8.91893 12 8.92508C12 8.93123 12 8.93738 12 8.94351C12 8.94965 12 8.95578 12 8.96191C12 8.96803 12 8.97415 12 8.98026C12 8.98637 12 8.99248 12 8.99858C12 9.00467 12 9.01076 12 9.01685C12 9.02293 12 9.02901 12 9.03508C12 9.04115 12 9.04722 12 9.05327C12 9.05933 12 9.06538 12 9.07142C12 9.07747 12 9.0835 12 9.08953C12 9.09556 12 9.10158 12 9.1076C12 9.11361 12 9.11962 12 9.12562C12 9.13162 12 9.13761 12 9.1436C12 9.14959 12 9.15557 12 9.16154C12 9.16751 12 9.17347 12 9.17943C12 9.18539 12 9.19134 12 9.19728C12 9.20322 12 9.20916 12 9.21509C12 9.22102 12 9.22694 12 9.23285C12 9.23876 12 9.24467 12 9.25057C12 9.25647 12 9.26236 12 9.26824C12 9.27412 12 9.28 12 9.28587C12 9.29173 12 9.2976 12 9.30345C12 9.3093 12 9.31515 12 9.32098C12 9.32682 12 9.33265 12 9.33847C12 9.34429 12 9.35011 12 9.35592C12 9.36172 12 9.36752 12 9.37331C12 9.3791 12 9.38488 12 9.39066C12 9.39643 12 9.4022 12 9.40796C12 9.41372 12 9.41947 12 9.42521C12 9.43096 12 9.43669 12 9.44242C12 9.44815 12 9.45387 12 9.45958C12 9.46529 12 9.47099 12 9.47668C12 9.48238 12 9.48807 12 9.49374C12 9.49942 12 9.50509 12 9.51075C12 9.51642 12 9.52207 12 9.52771C12 9.53336 12 9.539 12 9.54462C12 9.55025 12 9.55587 12 9.56148C12 9.5671 12 9.5727 12 9.57829C12 9.58389 12 9.58947 12 9.59505C12 9.60063 12 9.6062 12 9.61176C12 9.61732 12 9.62287 12 9.62841C12 9.63396 12 9.63949 12 9.64502C12 9.65054 12 9.65606 12 9.66157C12 9.66708 12 9.67258 12 9.67807C12 9.68356 12 9.68904 12 9.69451C12 9.69999 12 9.70545 12 9.71091C12 9.71636 12 9.72181 12 9.72725C12 9.73269 12 9.73811 12 9.74353C12 9.74895 12 9.75436 12 9.75977C12 9.76517 12 9.77056 12 9.77594C12 9.78133 12 9.7867 12 9.79207C12 9.79743 12 9.80279 12 9.80813C12 9.81348 12 9.81882 12 9.82415C12 9.82947 12 9.83479 12 9.8401C12 9.84541 12 9.85071 12 9.856C12 9.8613 12 9.86658 12 9.87185C12 9.87712 12 9.88238 12 9.88764C12 9.89289 12 9.89814 12 9.90337C12 9.9086 12 9.91383 12 9.91904C12 9.92426 12 9.92946 12 9.93466C12 9.93986 12 9.94504 12 9.95022C12 9.9554 12 9.96056 12 9.96572C12 9.97088 12 9.97603 12 9.98116C12 9.9863 12 9.99143 12 9.99655C12 10.0017 12 10.0068 12 10.0119C12 10.017 12 10.0221 12 10.0271C12 10.0322 12 10.0373 12 10.0423C12 10.0474 12 10.0524 12 10.0575C12 10.0625 12 10.0676 12 10.0726C12 10.0776 12 10.0826 12 10.0876C12 10.0926 12 10.0976 12 10.1026C12 10.1075 12 10.1125 12 10.1175C12 10.1224 12 10.1274 12 10.1323C12 10.1372 12 10.1422 12 10.1471C12 10.152 12 10.1569 12 10.1618C12 10.1667 12 10.1716 12 10.1765C12 10.1813 12 10.1862 12 10.191C12 10.1959 12 10.2007 12 10.2056C12 10.2104 12 10.2152 12 10.22C12 10.2249 12 10.2297 12 10.2344C12 10.2392 12 10.244 12 10.2488C12 10.2535 12 10.2583 12 10.2631C12 10.2678 12 10.2725 12 10.2773C12 10.282 12 10.2867 12 10.2914C12 10.2961 12 10.3008 12 10.3055C12 10.3102 12 10.3148 12 10.3195C12 10.3242 12 10.3288 12 10.3334C12 10.3381 12 10.3427 12 10.3473C12 10.3519 12 10.3565 12 10.3611C12 10.3657 12 10.3703 12 10.3749C12 10.3795 12 10.384 12 10.3886C12 10.3931 12 10.3976 12 10.4022C12 10.4067 12 10.4112 12 10.4157C12 10.4202 12 10.4247 12 10.4292C12 10.4337 12 10.4381 12 10.4426C12 10.4471 12 10.4515 12 10.4559C12 10.4604 12 10.4648 12 10.4692C12 10.4736 12 10.478 12 10.4824C12 10.4868 12 10.4912 12 10.4955C12 10.4999 12 10.5043 12 10.5086C12 10.5129 12 10.5173 12 10.5216C12 10.5259 12 10.5302 12 10.5345C12 10.5388 12 10.5431 12 10.5474C12 10.5516 12 10.5559 12 10.5601C12 10.5644 12 10.5686 12 10.5728C12 10.5771 12 10.5813 12 10.5855C12 10.5897 12 10.5939 12 10.598C12 10.6022 12 10.6064 12 10.6105C12 10.6147 12 10.6188 12 10.6229C12 10.6271 12 10.6312 12 10.6353C12 10.6394 12 10.6435 12 10.6476C12 10.6516 12 10.6557 12 10.6598C12 10.6638 12 10.6678 12 10.6719C12 10.6759 12 10.6799 12 10.6839C12 10.6879 12 10.6919 12 10.6959C12 10.6999 12 10.7038 12 10.7078C12 10.7117 12 10.7157 12 10.7196C12 10.7235 12 10.7275 12 10.7314C12 10.7353 12 10.7392 12 10.743C12 10.7469 12 10.7508 12 10.7546C12 10.7585 12 10.7623 12 10.7661C12 10.77 12 10.7738 12 10.7776C12 10.7814 12 10.7852 12 10.789C12 10.7927 12 10.7965 12 10.8002C12 10.804 12 10.8077 12 10.8114C12 10.8152 12 10.8189 12 10.8226C12 10.8263 12 10.83 12 10.8336C12 10.8373 12 10.841 12 10.8446C12 10.8482 12 10.8519 12 10.8555C12 10.8591 12 10.8627 12 10.8663C12 10.8699 12 10.8735 12 10.877C12 10.8806 12 10.8842 12 10.8877C12 10.8912 12 10.8948 12 10.8983C12 10.9018 12 10.9053 12 10.9088C12 10.9123 12 10.9157 12 10.9192C12 10.9226 12 10.9261 12 10.9295C12 10.9329 12 10.9364 12 10.9398C12 10.9432 12 10.9466 12 10.9499C12 10.9533 12 10.9567 12 10.96C12 10.9634 12 10.9667 12 10.97C12 10.9733 12 10.9767 12 10.9799C12 10.9832 12 10.9865 12 10.9898C12 10.9931 12 10.9963 12 10.9995C12 11.0028 12 11.006 12 11.0092C12 11.0124 12 11.0156 12 11.0188C12 11.022 12 11.0251 12 11.0283C12 11.0315 12 11.0346 12 11.0377C12 11.0408 12 11.044 12 11.0471C12 11.0501 12 11.0532 12 11.0563C12 11.0594 12 11.0624 12 11.0655C12 11.0685 12 11.0715 12 11.0745C12 11.0775 12 11.0805 12 11.0835C12 11.0865 12 11.0895 12 11.0924C12 11.0954 12 11.0983 12 11.1012C12 11.1042 12 11.1071 12 11.11C12 11.1129 12 11.1157 12 11.1186C12 11.1215 12 11.1243 12 11.1272C12 11.13 12 11.1328 12 11.1356C12 11.1384 12 11.1412 12 11.144C12 11.1468 12 11.1495 12 11.1523C12 11.155 12 11.1578 12 11.1605C12 11.1632 12 11.1659 12 11.1686C12 11.1713 12 11.174 12 11.1766C12 11.1793 12 11.1819 12 11.1845C12 11.1872 12 11.1898 12 11.1924C12 11.195 12 11.1976 12 11.2001C12 11.2027 12 11.2053 12 11.2078C12 11.2103 12 11.2129 12 11.2154C12 11.2179 12 11.2204 12 11.2228C12 11.2253 12 11.2278 12 11.2302C12 11.2327 12 11.2351 12 11.2375C12 11.2399 12 11.2423 12 11.2447C12 11.2471 12 11.2495 12 11.2518C12 11.2542 12 11.2565 12 11.2588C12 11.2611 12 11.2635 12 11.2657C12 11.268 12 11.2703 12 11.2726C12 11.2748 12 11.2771 12 11.2793C12 11.2815 12 11.2837 12 11.2859C12 11.2881 12 11.2903 12 11.2925C12 11.2946 12 11.2968 12 11.2989C12 11.3011 12 11.3032 12 11.3053C12 11.3074 12 11.3095 12 11.3115C12 11.3136 12 11.3156 12 11.3177C12 11.3197 12 11.3217 12 11.3237C12 11.3258 12 11.3277 12 11.3297C12 11.3317 12 11.3336 12 11.3356C12 11.3375 12 11.3394 12 11.3414C12 11.3433 12 11.3452 12 11.347C12 11.3489 12 11.3508 12 11.3526C12 11.3545 12 11.3563 12 11.3581C12 11.3599 12 11.3617 12 11.3635C12 11.3652 12 11.367 12 11.3687C12 11.3705 12 11.3722 12 11.3739C12 11.3756 12 11.3773 12 11.379C12 11.3807 12 11.3824 12 11.384C12 11.3856 12 11.3873 12 11.3889C12 11.3905 12 11.3921 12 11.3937C12 11.3952 12 11.3968 12 11.3983C12 11.3999 12 11.4014 12 11.4029C12 11.4044 12 11.4059 12 11.4074C12 11.4089 12 11.4103 12 11.4118C12 11.4132 12 11.4147 12 11.4161C12 11.4175 12 11.4189 12 11.4202C12 11.4216 12 11.423 12 11.4243C12 11.4256 12 11.427 12 11.4283C12 11.4296 12 11.4309 12 11.4321C12 11.4334 12 11.4347 12 11.4359C12 11.4371 12 11.4384 12 11.4396C12 11.4408 12 11.4419 12 11.4431C12 11.4443 12 11.4454 12 11.4466C12 11.4477 12 11.4488 12 11.4499C12 11.451 12 11.4521 12 11.4531C12 11.4542 12 11.4553 12 11.4563C12 11.4573 12 11.4583 12 11.4593C12 11.4603 12 11.4613 12 11.4622C12 11.4632 12 11.4641 12 11.4651C12 11.466 12 11.4669 12 11.4678C12 11.4686 12 11.4695 12 11.4704C12 11.4712 12 11.472 12 11.4729C12 11.4737 12 11.4745 12 11.4752C12 11.476 12 11.4768 12 11.4775C12 11.4783 12 11.479 12 11.4797C12 11.4804 12 11.4811 12 11.4818C12 11.4824 12 11.4831 12 11.4837C12 11.4844 12 11.485 12 11.4856C12 11.4862 12 11.4867 12 11.4873C12 11.4879 12 11.4884 12 11.4889C12 11.4895 12 11.49 12 11.4904C12 11.4909 12 11.4914 12 11.4919C12 11.4923 12 11.4927 12 11.4931C12 11.4936 12 11.494 12 11.4943C12 11.4947 12 11.4951 12 11.4954C12 11.4957 12 11.4961 12 11.4964C12 11.4967 12 11.4969 12 11.4972C12 11.4975 12 11.4977 12 11.498C12 11.4982 12 11.4984 12 11.4986C12 11.4988 12 11.4989 12 11.4991C12 11.4992 12 11.4994 12 11.4995C12 11.4996 12 11.4997 12 11.4998C12 11.4998 12 11.4999 12 11.4999C12 11.5 12 11.5 12.5 11.5C13 11.5 13 11.5 13 11.4999C13 11.4999 13 11.4998 13 11.4998C13 11.4997 13 11.4996 13 11.4995C13 11.4994 13 11.4992 13 11.4991C13 11.4989 13 11.4988 13 11.4986C13 11.4984 13 11.4982 13 11.498C13 11.4977 13 11.4975 13 11.4972C13 11.4969 13 11.4967 13 11.4964C13 11.4961 13 11.4957 13 11.4954C13 11.4951 13 11.4947 13 11.4943C13 11.494 13 11.4936 13 11.4931C13 11.4927 13 11.4923 13 11.4919C13 11.4914 13 11.4909 13 11.4904C13 11.49 13 11.4895 13 11.4889C13 11.4884 13 11.4879 13 11.4873C13 11.4867 13 11.4862 13 11.4856C13 11.485 13 11.4844 13 11.4837C13 11.4831 13 11.4824 13 11.4818C13 11.4811 13 11.4804 13 11.4797C13 11.479 13 11.4783 13 11.4775C13 11.4768 13 11.476 13 11.4752C13 11.4745 13 11.4737 13 11.4729C13 11.472 13 11.4712 13 11.4704C13 11.4695 13 11.4686 13 11.4678C13 11.4669 13 11.466 13 11.4651C13 11.4641 13 11.4632 13 11.4622C13 11.4613 13 11.4603 13 11.4593C13 11.4583 13 11.4573 13 11.4563C13 11.4553 13 11.4542 13 11.4531C13 11.4521 13 11.451 13 11.4499C13 11.4488 13 11.4477 13 11.4466C13 11.4454 13 11.4443 13 11.4431C13 11.4419 13 11.4408 13 11.4396C13 11.4384 13 11.4371 13 11.4359C13 11.4347 13 11.4334 13 11.4321C13 11.4309 13 11.4296 13 11.4283C13 11.427 13 11.4256 13 11.4243C13 11.423 13 11.4216 13 11.4202C13 11.4189 13 11.4175 13 11.4161C13 11.4147 13 11.4132 13 11.4118C13 11.4103 13 11.4089 13 11.4074C13 11.4059 13 11.4044 13 11.4029C13 11.4014 13 11.3999 13 11.3983C13 11.3968 13 11.3952 13 11.3937C13 11.3921 13 11.3905 13 11.3889C13 11.3873 13 11.3856 13 11.384C13 11.3824 13 11.3807 13 11.379C13 11.3773 13 11.3756 13 11.3739C13 11.3722 13 11.3705 13 11.3687C13 11.367 13 11.3652 13 11.3635C13 11.3617 13 11.3599 13 11.3581C13 11.3563 13 11.3545 13 11.3526C13 11.3508 13 11.3489 13 11.347C13 11.3452 13 11.3433 13 11.3414C13 11.3394 13 11.3375 13 11.3356C13 11.3336 13 11.3317 13 11.3297C13 11.3277 13 11.3258 13 11.3237C13 11.3217 13 11.3197 13 11.3177C13 11.3156 13 11.3136 13 11.3115C13 11.3095 13 11.3074 13 11.3053C13 11.3032 13 11.3011 13 11.2989C13 11.2968 13 11.2946 13 11.2925C13 11.2903 13 11.2881 13 11.2859C13 11.2837 13 11.2815 13 11.2793C13 11.2771 13 11.2748 13 11.2726C13 11.2703 13 11.268 13 11.2657C13 11.2635 13 11.2611 13 11.2588C13 11.2565 13 11.2542 13 11.2518C13 11.2495 13 11.2471 13 11.2447C13 11.2423 13 11.2399 13 11.2375C13 11.2351 13 11.2327 13 11.2302C13 11.2278 13 11.2253 13 11.2228C13 11.2204 13 11.2179 13 11.2154C13 11.2129 13 11.2103 13 11.2078C13 11.2053 13 11.2027 13 11.2001C13 11.1976 13 11.195 13 11.1924C13 11.1898 13 11.1872 13 11.1845C13 11.1819 13 11.1793 13 11.1766C13 11.174 13 11.1713 13 11.1686C13 11.1659 13 11.1632 13 11.1605C13 11.1578 13 11.155 13 11.1523C13 11.1495 13 11.1468 13 11.144C13 11.1412 13 11.1384 13 11.1356C13 11.1328 13 11.13 13 11.1272C13 11.1243 13 11.1215 13 11.1186C13 11.1157 13 11.1129 13 11.11C13 11.1071 13 11.1042 13 11.1012C13 11.0983 13 11.0954 13 11.0924C13 11.0895 13 11.0865 13 11.0835C13 11.0805 13 11.0775 13 11.0745C13 11.0715 13 11.0685 13 11.0655C13 11.0624 13 11.0594 13 11.0563C13 11.0532 13 11.0501 13 11.0471C13 11.044 13 11.0408 13 11.0377C13 11.0346 13 11.0315 13 11.0283C13 11.0251 13 11.022 13 11.0188C13 11.0156 13 11.0124 13 11.0092C13 11.006 13 11.0028 13 10.9995C13 10.9963 13 10.9931 13 10.9898C13 10.9865 13 10.9832 13 10.9799C13 10.9767 13 10.9733 13 10.97C13 10.9667 13 10.9634 13 10.96C13 10.9567 13 10.9533 13 10.9499C13 10.9466 13 10.9432 13 10.9398C13 10.9364 13 10.9329 13 10.9295C13 10.9261 13 10.9226 13 10.9192C13 10.9157 13 10.9123 13 10.9088C13 10.9053 13 10.9018 13 10.8983C13 10.8948 13 10.8912 13 10.8877C13 10.8842 13 10.8806 13 10.877C13 10.8735 13 10.8699 13 10.8663C13 10.8627 13 10.8591 13 10.8555C13 10.8519 13 10.8482 13 10.8446C13 10.841 13 10.8373 13 10.8336C13 10.83 13 10.8263 13 10.8226C13 10.8189 13 10.8152 13 10.8114C13 10.8077 13 10.804 13 10.8002C13 10.7965 13 10.7927 13 10.789C13 10.7852 13 10.7814 13 10.7776C13 10.7738 13 10.77 13 10.7661C13 10.7623 13 10.7585 13 10.7546C13 10.7508 13 10.7469 13 10.743C13 10.7392 13 10.7353 13 10.7314C13 10.7275 13 10.7235 13 10.7196C13 10.7157 13 10.7117 13 10.7078C13 10.7038 13 10.6999 13 10.6959C13 10.6919 13 10.6879 13 10.6839C13 10.6799 13 10.6759 13 10.6719C13 10.6678 13 10.6638 13 10.6598C13 10.6557 13 10.6516 13 10.6476C13 10.6435 13 10.6394 13 10.6353C13 10.6312 13 10.6271 13 10.6229C13 10.6188 13 10.6147 13 10.6105C13 10.6064 13 10.6022 13 10.598C13 10.5939 13 10.5897 13 10.5855C13 10.5813 13 10.5771 13 10.5728C13 10.5686 13 10.5644 13 10.5601C13 10.5559 13 10.5516 13 10.5474C13 10.5431 13 10.5388 13 10.5345C13 10.5302 13 10.5259 13 10.5216C13 10.5173 13 10.5129 13 10.5086C13 10.5043 13 10.4999 13 10.4955C13 10.4912 13 10.4868 13 10.4824C13 10.478 13 10.4736 13 10.4692C13 10.4648 13 10.4604 13 10.4559C13 10.4515 13 10.4471 13 10.4426C13 10.4381 13 10.4337 13 10.4292C13 10.4247 13 10.4202 13 10.4157C13 10.4112 13 10.4067 13 10.4022C13 10.3976 13 10.3931 13 10.3886C13 10.384 13 10.3795 13 10.3749C13 10.3703 13 10.3657 13 10.3611C13 10.3565 13 10.3519 13 10.3473C13 10.3427 13 10.3381 13 10.3334C13 10.3288 13 10.3242 13 10.3195C13 10.3148 13 10.3102 13 10.3055C13 10.3008 13 10.2961 13 10.2914C13 10.2867 13 10.282 13 10.2773C13 10.2725 13 10.2678 13 10.2631C13 10.2583 13 10.2535 13 10.2488C13 10.244 13 10.2392 13 10.2344C13 10.2297 13 10.2249 13 10.22C13 10.2152 13 10.2104 13 10.2056C13 10.2007 13 10.1959 13 10.191C13 10.1862 13 10.1813 13 10.1765C13 10.1716 13 10.1667 13 10.1618C13 10.1569 13 10.152 13 10.1471C13 10.1422 13 10.1372 13 10.1323C13 10.1274 13 10.1224 13 10.1175C13 10.1125 13 10.1075 13 10.1026C13 10.0976 13 10.0926 13 10.0876C13 10.0826 13 10.0776 13 10.0726C13 10.0676 13 10.0625 13 10.0575C13 10.0524 13 10.0474 13 10.0423C13 10.0373 13 10.0322 13 10.0271C13 10.0221 13 10.017 13 10.0119C13 10.0068 13 10.0017 13 9.99655C13 9.99143 13 9.9863 13 9.98116C13 9.97603 13 9.97088 13 9.96572C13 9.96056 13 9.9554 13 9.95022C13 9.94504 13 9.93986 13 9.93466C13 9.92946 13 9.92426 13 9.91904C13 9.91383 13 9.9086 13 9.90337C13 9.89814 13 9.89289 13 9.88764C13 9.88238 13 9.87712 13 9.87185C13 9.86658 13 9.8613 13 9.856C13 9.85071 13 9.84541 13 9.8401C13 9.83479 13 9.82947 13 9.82415C13 9.81882 13 9.81348 13 9.80813C13 9.80279 13 9.79743 13 9.79207C13 9.7867 13 9.78133 13 9.77594C13 9.77056 13 9.76517 13 9.75977C13 9.75436 13 9.74895 13 9.74353C13 9.73811 13 9.73269 13 9.72725C13 9.72181 13 9.71636 13 9.71091C13 9.70545 13 9.69999 13 9.69451C13 9.68904 13 9.68356 13 9.67807C13 9.67258 13 9.66708 13 9.66157C13 9.65606 13 9.65054 13 9.64502C13 9.63949 13 9.63396 13 9.62841C13 9.62287 13 9.61732 13 9.61176C13 9.6062 13 9.60063 13 9.59505C13 9.58947 13 9.58389 13 9.57829C13 9.5727 13 9.5671 13 9.56148C13 9.55587 13 9.55025 13 9.54462C13 9.539 13 9.53336 13 9.52771C13 9.52207 13 9.51642 13 9.51075C13 9.50509 13 9.49942 13 9.49374C13 9.48807 13 9.48238 13 9.47668C13 9.47099 13 9.46529 13 9.45958C13 9.45387 13 9.44815 13 9.44242C13 9.43669 13 9.43096 13 9.42521C13 9.41947 13 9.41372 13 9.40796C13 9.4022 13 9.39643 13 9.39066C13 9.38488 13 9.3791 13 9.37331C13 9.36752 13 9.36172 13 9.35592C13 9.35011 13 9.34429 13 9.33847C13 9.33265 13 9.32682 13 9.32098C13 9.31515 13 9.3093 13 9.30345C13 9.2976 13 9.29173 13 9.28587C13 9.28 13 9.27412 13 9.26824C13 9.26236 13 9.25647 13 9.25057C13 9.24467 13 9.23876 13 9.23285C13 9.22694 13 9.22102 13 9.21509C13 9.20916 13 9.20322 13 9.19728C13 9.19134 13 9.18539 13 9.17943C13 9.17347 13 9.16751 13 9.16154C13 9.15557 13 9.14959 13 9.1436C13 9.13761 13 9.13162 13 9.12562C13 9.11962 13 9.11361 13 9.1076C13 9.10158 13 9.09556 13 9.08953C13 9.0835 13 9.07747 13 9.07142C13 9.06538 13 9.05933 13 9.05327C13 9.04722 13 9.04115 13 9.03508C13 9.02901 13 9.02293 13 9.01685C13 9.01076 13 9.00467 13 8.99858C13 8.99248 13 8.98637 13 8.98026C13 8.97415 13 8.96803 13 8.96191C13 8.95578 13 8.94965 13 8.94351C13 8.93738 13 8.93123 13 8.92508C13 8.91893 13 8.91277 13 8.90661C13 8.90044 13 8.89427 13 8.88809C13 8.88192 13 8.87573 13 8.86954C13 8.86335 13 8.85716 13 8.85095C13 8.84475 13 8.83854 13 8.83233C13 8.82611 13 8.81989 13 8.81366C13 8.80743 13 8.8012 13 8.79496C13 8.78872 13 8.78247 13 8.77622C13 8.76997 13 8.76371 13 8.75744C13 8.75118 13 8.74491 13 8.73863C13 8.73235 13 8.72607 13 8.71978C13 8.71349 13 8.70719 13 8.70089C13 8.69459 13 8.68829 13 8.68197C13 8.67566 13 8.66934 13 8.66302C13 8.65669 13 8.65036 13 8.64403C13 8.63769 13 8.63135 13 8.625C13 8.61865 13 8.6123 13 8.60594C13 8.59958 13 8.59322 13 8.58685C13 8.58048 13 8.5741 13 8.56772C13 8.56134 13 8.55495 13 8.54856C13 8.54216 13 8.53577 13 8.52936C13 8.52296 13 8.51655 13 8.51014C13 8.50372 13 8.4973 13 8.49088C13 8.48445 13 8.47802 13 8.47158C13 8.46515 13 8.45871 13 8.45226C13 8.44581 13 8.43936 13 8.43291C13 8.42645 13 8.41999 13 8.41352C13 8.40705 13 8.40058 13 8.3941C13 8.38763 13 8.38114 13 8.37465C13 8.36817 13 8.36167 13 8.35518C13 8.34868 13 8.34218 13 8.33567C13 8.32916 13 8.32265 13 8.31613C13 8.30961 13 8.30309 13 8.29656C13 8.29004 13 8.28351 13 8.27697C13 8.27043 13 8.26389 13 8.25734C13 8.2508 13 8.24425 13 8.23769C13 8.23114 13 8.22458 13 8.21801C13 8.21145 13 8.20488 13 8.1983C13 8.19173 13 8.18515 13 8.17857C13 8.17198 13 8.16539 13 8.1588C13 8.15221 13 8.14561 13 8.13901C13 8.13241 13 8.1258 13 8.11919C13 8.11259 13 8.10597 13 8.09935C13 8.09273 13 8.08611 13 8.07948C13 8.07286 13 8.06623 13 8.05959C13 8.05295 13 8.04631 13 8.03967C13 8.03303 13 8.02638 13 8.01972C13 8.01307 13 8.00642 13 7.99976C13 7.9931 13 7.98643 13 7.97976C13 7.97309 13 7.96642 13 7.95974C13 7.95307 13 7.94639 13 7.9397C13 7.93302 13 7.92633 13 7.91964C13 7.91295 13 7.90625 13 7.89955C13 7.89285 13 7.88615 13 7.87944C13 7.87273 13 7.86602 13 7.85931C13 7.85259 13 7.84588 13 7.83915C13 7.83243 13 7.82571 13 7.81898C13 7.81225 13 7.80551 13 7.79878C13 7.79204 13 7.7853 13 7.77856C13 7.77182 13 7.76507 13 7.75832C13 7.75157 13 7.74481 13 7.73806C13 7.7313 13 7.72454 13 7.71778C13 7.71101 13 7.70425 13 7.69748C13 7.6907 13 7.68393 13 7.67715C13 7.67038 13 7.6636 13 7.65681C13 7.65003 13 7.64324 13 7.63646C13 7.62967 13 7.62287 13 7.61608C13 7.60928 13 7.60248 13 7.59568C13 7.58888 13 7.58208 13 7.57527C13 7.56846 13 7.56165 13 7.55484C13 7.54802 13 7.54121 13 7.53439C13 7.52757 13 7.52074 13 7.51392C13 7.50709 13 7.50027 13 7.49344C13 7.48661 13 7.47977 13 7.47294C13 7.4661 13 7.45926 13 7.45242C13 7.44558 13 7.43874 13 7.43189C13 7.42504 13 7.41819 13 7.41134C13 7.40449 13 7.39764 13 7.39078C13 7.38392 13 7.37706 13 7.3702C13 7.36334 13 7.35648 13 7.34961C13 7.34274 13 7.33587 13 7.329C13 7.32213 13 7.31526 13 7.30838C13 7.30151 13 7.29463 13 7.28775C13 7.28087 13 7.27399 13 7.2671C13 7.26022 13 7.25333 13 7.24644C13 7.23955 13 7.23266 13 7.22577C13 7.21887 13 7.21198 13 7.20508C13 7.19818 13 7.19128 13 7.18438C13 7.17748 13 7.17058 13 7.16367C13 7.15677 13 7.14986 13 7.14295C13 7.13604 13 7.12913 13 7.12222C13 7.11531 13 7.10839 13 7.10148C13 7.09456 13 7.08764 13 7.08072C13 7.0738 13 7.06688 13 7.05996C13 7.05304 13 7.04611 13 7.03919C13 7.03226 13 7.02533 13 7.0184C13 7.01147 13 7.00454 13 6.99761C13 6.99068 13 6.98374 13 6.97681C13 6.96987 13 6.96294 13 6.956C13 6.94906 13 6.94212 13 6.93518C13 6.92824 13 6.92129 13 6.91435C13 6.90741 13 6.90046 13 6.89352C13 6.88657 13 6.87962 13 6.87267C13 6.86573 13 6.85878 13 6.85183C13 6.84487 13 6.83792 13 6.83097C13 6.82402 13 6.81706 13 6.81011C13 6.80315 13 6.7962 13 6.78924C13 6.78228 13 6.77532 13 6.76836C13 6.76141 13 6.75445 13 6.74748C13 6.74052 13 6.73356 13 6.7266C13 6.71964 13 6.71267 13 6.70571C13 6.69875 13 6.69178 13 6.68481C13 6.67785 13 6.67088 13 6.66392C13 6.65695 13 6.64998 13 6.64301C13 6.63604 13 6.62908 13 6.62211C13 6.61514 13 6.60817 13 6.6012C13 6.59423 13 6.58725 13 6.58028C13 6.57331 13 6.56634 13 6.55937C13 6.55239 13 6.54542 13 6.53845C13 6.53148 13 6.5245 13 6.51753C13 6.51055 13 6.50358 13 6.49661C13 6.48963 13 6.48266 13 6.47568C13 6.46871 13 6.46173 13 6.45476C13 6.44778 13 6.44081 13 6.43383C13 6.42686 13 6.41988 13 6.41291C13 6.40593 13 6.39896 13 6.39198C13 6.385 13 6.37803 13 6.37105C13 6.36408 13 6.3571 13 6.35013C13 6.34315 13 6.33618 13 6.3292C13 6.32223 13 6.31525 13 6.30828C13 6.3013 13 6.29433 13 6.28736C13 6.28038 13 6.27341 13 6.26644C13 6.25946 13 6.25249 13 6.24552C13 6.23854 13 6.23157 13 6.2246C13 6.21763 13 6.21066 13 6.20369C13 6.19671 13 6.18974 13 6.18277C13 6.1758 13 6.16883 13 6.16187C13 6.1549 13 6.14793 13 6.14096C13 6.13399 13 6.12703 13 6.12006C13 6.11309 13 6.10613 13 6.09916C13 6.0922 13 6.08523 13 6.07827C13 6.07131 13 6.06435 13 6.05738C13 6.05042 13 6.04346 13 6.0365C13 6.02954 13 6.02258 13 6.01562C13 6.00867 13 6.00171 13 5.99475C13 5.9878 13 5.98084 13 5.97389C13 5.96693 13 5.95998 13 5.95303C13 5.94608 13 5.93913 13 5.93218C13 5.92523 13 5.91828 13 5.91133C13 5.90439 13 5.89744 13 5.8905C13 5.88355 13 5.87661 13 5.86966C13 5.86272 13 5.85578 13 5.84884C13 5.8419 13 5.83497 13 5.82803C13 5.82109 13 5.81416 13 5.80722C13 5.80029 13 5.79336 13 5.78643C13 5.7795 13 5.77257 13 5.76564C13 5.75871 13 5.75179 13 5.74486C13 5.73794 13 5.73101 13 5.72409C13 5.71717 13 5.71025 13 5.70333C13 5.69642 13 5.6895 13 5.68259C13 5.67567 13 5.66876 13 5.66185C13 5.65494 13 5.64803 13 5.64112C13 5.63422 13 5.62731 13 5.62041C13 5.61351 13 5.60661 13 5.59971C13 5.59281 13 5.58591 13 5.57902C13 5.57212 13 5.56523 13 5.55834C13 5.55145 13 5.54456 13 5.53767C13 5.53078 13 5.5239 13 5.51702C13 5.51014 13 5.50326 13 5.49638C13 5.4895 13 5.48262 13 5.47575C13 5.46888 13 5.46201 13 5.45514C13 5.44827 13 5.4414 13 5.43454C13 5.42768 13 5.42082 13 5.41396C13 5.4071 13 5.40024 13 5.39339C13 5.38653 13 5.37968 13 5.37283C13 5.36598 13 5.35914 13 5.35229C13 5.34545 13 5.33861 13 5.33177C13 5.32493 13 5.3181 13 5.31127C13 5.30443 13 5.2976 13 5.29078C13 5.28395 13 5.27712 13 5.2703C13 5.26348 13 5.25666 13 5.24984C13 5.24303 13 5.23622 13 5.22941C13 5.22259 13 5.21579 13 5.20898C13 5.20218 13 5.19538 13 5.18858C13 5.18178 13 5.17499 13 5.16819C13 5.1614 13 5.15461 13 5.14783C13 5.14104 13 5.13426 13 5.12748C13 5.1207 13 5.11392 13 5.10715C13 5.10038 13 5.09361 13 5.08684C13 5.08007 13 5.07331 13 5.06655C13 5.05979 13 5.05303 13 5.04628C13 5.03953 13 5.03278 13 5.02603C13 5.01929 13 5.01254 13 5.0058C13 4.99906 13 4.99233 13 4.9856C13 4.97886 13 4.97213 13 4.96541C13 4.95868 13 4.95196 13 4.94525C13 4.93853 13 4.93181 13 4.9251C13 4.91839 13 4.91169 13 4.90498C13 4.89828 13 4.89158 13 4.88489C13 4.87819 13 4.8715 13 4.86481C13 4.85812 13 4.85144 13 4.84476C13 4.83808 13 4.8314 13 4.82473C13 4.81806 13 4.81139 13 4.80473C13 4.79806 13 4.7914 13 4.78475C13 4.77809 13 4.77144 13 4.76479C13 4.75815 13 4.7515 13 4.74486C13 4.73822 13 4.73159 13 4.72496C13 4.71833 13 4.7117 13 4.70508C13 4.69846 13 4.69184 13 4.68522C13 4.67861 13 4.672 13 4.6654C13 4.65879 13 4.65219 13 4.64559C13 4.639 13 4.63241 13 4.62582C13 4.61923 13 4.61265 13 4.60607C13 4.59949 13 4.59292 13 4.58635C13 4.57978 13 4.57322 13 4.56666C13 4.5601 13 4.55354 13 4.54699C13 4.54044 13 4.5339 13 4.52736C13 4.52082 13 4.51428 13 4.50775C13 4.50122 13 4.49469 13 4.48817C13 4.48165 13 4.47513 13 4.46862C13 4.46211 13 4.4556 13 4.4491C13 4.4426 13 4.4361 13 4.42961C13 4.42312 13 4.41663 13 4.41015C13 4.40366 13 4.39719 13 4.39072C13 4.38424 13 4.37778 13 4.37132C13 4.36486 13 4.3584 13 4.35195C13 4.3455 13 4.33905 13 4.33261C13 4.32617 13 4.31974 13 4.31331C13 4.30688 13 4.30045 13 4.29403C13 4.28761 13 4.2812 13 4.27479C13 4.26838 13 4.26198 13 4.25558C13 4.24919 13 4.24279 13 4.23641C13 4.23002 13 4.22364 13 4.21727C13 4.21089 13 4.20452 13 4.19816C13 4.19179 13 4.18544 13 4.17908C13 4.17273 13 4.16638 13 4.16004C13 4.1537 13 4.14737 13 4.14104C13 4.13471 13 4.12838 13 4.12207C13 4.11575 13 4.10944 13 4.10313C13 4.09682 13 4.09052 13 4.08423C13 4.07793 13 4.07165 13 4.06536C13 4.05908 13 4.05281 13 4.04653C13 4.04026 13 4.034 13 4.02774C13 4.02148 13 4.01523 13 4.00899C13 4.00274 13 3.9965 13 3.99027C13 3.98403 13 3.97781 13 3.97159C13 3.96537 13 3.95915 13 3.95294C13 3.94674 13 3.94053 13 3.93434C13 3.92814 13 3.92195 13 3.91577C13 3.90959 13 3.90341 13 3.89724C13 3.89107 13 3.88491 13 3.87875C13 3.87259 13 3.86644 13 3.8603C13 3.85416 13 3.84802 13 3.84189C13 3.83576 13 3.82963 13 3.82352C13 3.8174 13 3.81129 13 3.80519C13 3.79908 13 3.79299 13 3.7869C13 3.78081 13 3.77472 13 3.76865C13 3.76257 13 3.7565 13 3.75044C13 3.74437 13 3.73832 13 3.73227C13 3.72622 13 3.72018 13 3.71414C13 3.70811 13 3.70208 13 3.69606C13 3.69004 13 3.68402 13 3.67802C13 3.67201 13 3.66601 13 3.66002C13 3.65403 13 3.64804 13 3.64206C13 3.63609 13 3.63011 13 3.62415C13 3.61819 13 3.61223 13 3.60628C13 3.60033 13 3.59439 13 3.58846C13 3.58252 13 3.57659 13 3.57068C13 3.56476 13 3.55884 13 3.55294C13 3.54703 13 3.54114 13 3.53525C13 3.52936 13 3.52348 13 3.5176C13 3.51173 13 3.50586 13 3.5H12Z" fill="var(--mw-icon-background-default-dark-gray, #A6A6A6)"/>
<path d="M3.5 3.5V12.5H12.5" stroke="var(--mw-icon-glyph-content-gray, #616162)" stroke-linecap="square"/>
<path d="M6 13H10V14H6V13Z" fill="var(--mw-icon-background-default-dark-gray, #A6A6A6)"/>
<path d="M3 6L3 10H2L2 6L3 6Z" fill="var(--mw-icon-background-default-dark-gray, #A6A6A6)"/>
<path d="M11.5 6.5L9.5 4.5L11.5 2.5L13.5 4.5L11.5 6.5Z" fill="var(--mw-icon-background-red, #FF9D9A)" stroke="var(--mw-icon-border-default-red, #902622)" stroke-linejoin="round"/>
<path d="M11.5 6.5L7.5 10.5H5.5V8.5L9.5 4.5L11.5 6.5Z" fill="var(--mw-icon-background-default-highlight, #FFE864)" stroke="#674C06" stroke-linejoin="round"/>
</svg>
