<svg width="16" height="16" viewBox="0 0 16 16" fill="none" xmlns="http://www.w3.org/2000/svg">
<rect x="0.5" y="0.5" width="14" height="14" rx="1" fill="var(--mw-icon-background-default-white, #FFFFFF)"/>
<path d="M2.5 3.36365C3.48485 4.3485 5.57273 6.31819 6.04545 6.31819C6.63636 6.31819 8.61364 3.5 9.5 3.5C10.2091 3.5 11.8106 5.61364 12.5 6.5M2.5 5.5C2.99242 5.99242 4.33182 6.9091 5.75 6.9091C7.52273 6.9091 8.31818 5.20455 9.5 5.5C10.6818 5.79545 11.9091 7.5 12.5 7.5C10.4318 7.5 9.88636 6.61365 8.40909 6.61365C7.22727 6.61365 5.99242 7.30303 5.5 7.5H2.5" stroke="#1171BE" stroke-linecap="round"/>
<path d="M2.5 7.5C2.69697 7.89394 3.32727 8.18171 4.27273 8.18171C5.45455 8.18171 5.31818 6.5 6.5 6.5C7.68182 6.5 7.81818 6.99989 8.70455 7.5908C9.41364 8.06353 11.5152 7.59848 12.5 7.5C11.7121 7.20455 9.94546 6.99989 9 6.99989C7.81818 6.99989 6.93182 9.95443 5.45455 9.36353C4.27273 8.8908 2.99242 7.38636 2.5 6.5" stroke="#DD5400" stroke-linecap="round"/>
<path d="M2.5 11.5C2.99242 10.7121 4.27273 9.56825 5.45455 9.56825C6.93182 9.56825 8.61364 8.5 9.5 8.5C10.3864 8.5 12.2045 9.5 12.5 9.5L2.5 9.56825" stroke="#EDB120" stroke-linecap="round"/>
<path d="M2.5 1V14M5.5 1V14M9.5 1V14M12.5 1V14" stroke="var(--mw-icon-glyph-disabled-gray, #888889)" stroke-linecap="round"/>
<rect x="0.5" y="0.5" width="14" height="14" rx="1" stroke="var(--mw-icon-border-default-gray, #616161)"/>
</svg>
