<svg width="16" height="16" viewBox="0 0 16 16" fill="none" xmlns="http://www.w3.org/2000/svg">
<rect x="0.5" y="0.5" width="14" height="14" rx="1" fill="var(--mw-icon-background-default-white, #FFFFFF)"/>
<path d="M3.5 3.5V4.5M3.5 4.5V5.5M3.5 4.5H2.5M3.5 4.5H4.5M7.5 5.5V6.5M7.5 6.5V7.5M7.5 6.5H6.5M7.5 6.5H8.5M10.5 2.5V3.5M10.5 3.5V4.5M10.5 3.5H9.5M10.5 3.5H11.5M11.5 9.5V10.5M11.5 10.5V11.5M11.5 10.5H10.5M11.5 10.5H12.5M4.5 10.5V11.5M4.5 11.5V12.5M4.5 11.5H3.5M4.5 11.5H5.5" stroke="#1171BE" stroke-linecap="square"/>
<rect x="0.5" y="0.5" width="14" height="14" rx="1" stroke="var(--mw-icon-border-default-gray, #616161)"/>
</svg>
