<svg width="16" height="16" viewBox="0 0 16 16" fill="none" xmlns="http://www.w3.org/2000/svg">
<rect x="0.5" y="0.5" width="12" height="12" rx="1" fill="var(--mw-icon-background-default-white, #FFFFFF)"/>
<path d="M2.5 13C2.5 4.64281 3.59091 2.5 12.5 2.5" stroke="#0072BD"/>
<rect x="0.5" y="0.5" width="12" height="12" rx="1" stroke="var(--mw-icon-border-default-gray, #616161)" stroke-linejoin="round"/>
<path d="M5.5 10C5.5 9.72386 5.72386 9.5 6 9.5H15C15.2761 9.5 15.5 9.72386 15.5 10V15C15.5 15.2761 15.2761 15.5 15 15.5L6 15.5C5.72386 15.5 5.5 15.2761 5.5 15V10Z" fill="var(--mw-icon-background-default-medium-gray, #D9D9D9)" stroke="var(--mw-icon-border-default-gray, #616161)" stroke-linejoin="round"/>
<path d="M6.5 8.00001C6.5 7.72387 6.72386 7.50001 7 7.50001L9 7.5C9.27614 7.5 9.5 7.72386 9.5 8V9.5H6.5V8.00001Z" fill="var(--mw-icon-background-default-medium-gray, #D9D9D9)" stroke="var(--mw-icon-border-default-gray, #616161)" stroke-linejoin="round"/>
<path d="M11.5 8.00001C11.5 7.72387 11.7239 7.50001 12 7.50001L14 7.5C14.2761 7.5 14.5 7.72386 14.5 8V9.5H11.5V8.00001Z" fill="var(--mw-icon-background-default-medium-gray, #D9D9D9)" stroke="var(--mw-icon-border-default-gray, #616161)" stroke-linejoin="round"/>
</svg>
