<svg width="16" height="16" viewBox="0 0 16 16" fill="none" xmlns="http://www.w3.org/2000/svg">
<rect x="0.5" y="0.5" width="14" height="14" rx="2" fill="var(--mw-icon-background-default-white, #FFFFFF)"/>
<path d="M0.5 5.175C2.02852 1.03986 2.92973 0.844602 4.63636 5.175C6.27051 9.0613 7.17437 8.8201 8.77273 5.175C10.3012 1.03986 11.2025 0.844602 12.9091 5.175C13.5375 6.66938 14.0066 7.68506 14.5 8" stroke="var(--mw-icon-background-default-dark-gray, #A6A6A6)" stroke-linecap="round" stroke-linejoin="round"/>
<path d="M14.5 5C12.2727 7.66667 9.72727 7.66667 7.5 5C5.27273 2.33333 2.72727 2.33333 0.5 5" stroke="#EDB120" stroke-linecap="round" stroke-linejoin="round"/>
<rect x="0.5" y="0.5" width="14" height="14" rx="1" stroke="var(--mw-icon-border-default-gray, #616161)"/>
<rect x="2" y="7" width="3" height="7" fill="#1171BE"/>
<rect x="6" y="10" width="3" height="4" fill="#1171BE"/>
<rect x="10" y="12" width="3" height="2" fill="#1171BE"/>
</svg>
