<svg width="16" height="16" viewBox="0 0 16 16" fill="none" xmlns="http://www.w3.org/2000/svg">
<path d="M13 11.5C13 12.3284 12.3284 13 11.5 13C10.6716 13 10 12.3284 10 11.5C10 10.6716 10.6716 10 11.5 10C12.3284 10 13 10.6716 13 11.5Z" fill="var(--mw-icon-object-primary, #616160)"/>
<path d="M9 3.5C9 4.32843 8.32843 5 7.5 5C6.67157 5 6 4.32843 6 3.5C6 2.67157 6.67157 2 7.5 2C8.32843 2 9 2.67157 9 3.5Z" fill="var(--mw-icon-object-primary, #616160)"/>
<path d="M5 11.5C5 12.3284 4.32843 13 3.5 13C2.67157 13 2 12.3284 2 11.5C2 10.6716 2.67157 10 3.5 10C4.32843 10 5 10.6716 5 11.5Z" fill="var(--mw-icon-object-primary, #616160)"/>
</svg>
