<svg width="16" height="16" viewBox="0 0 16 16" fill="none" xmlns="http://www.w3.org/2000/svg">
<path d="M3.67708 2.00277H1.37076C1.31027 1.99489 1.24877 2.0039 1.19316 2.02879C1.13755 2.05368 1.09003 2.09346 1.05595 2.14367C1.02188 2.19387 1.00258 2.25251 1.00024 2.313C0.997901 2.37348 1.01261 2.43342 1.0427 2.48607L3.36891 6.43134L4.92965 3.82746L3.93555 2.16058C3.90912 2.115 3.87164 2.07668 3.8265 2.04912C3.78136 2.02156 3.73 2.00563 3.67708 2.00277Z" fill="#B7312C"/>
<path d="M5.48635 4.80392L3.96537 7.43739L4.6016 8.51247L6.12258 5.88887L5.48635 4.80392Z" fill="#F2A900"/>
<path d="M12.0474 2.17044L8.28972 8.62097C8.25952 8.66994 8.21715 8.71039 8.16667 8.73846C8.11619 8.76652 8.0593 8.78126 8.00143 8.78126C7.94357 8.78126 7.88667 8.76652 7.83619 8.73846C7.78572 8.71039 7.74335 8.66994 7.71314 8.62097L6.71904 6.86532L5.17818 9.49879L7.72308 13.8386C7.75198 13.8877 7.79334 13.9285 7.84305 13.9568C7.89276 13.9851 7.94908 14 8.0064 14C8.06372 14 8.12004 13.9851 8.16975 13.9568C8.21946 13.9285 8.26083 13.8877 8.28972 13.8386L14.9602 2.49593C14.9873 2.44556 15.001 2.38917 14.9999 2.33208C14.9989 2.275 14.9833 2.21911 14.9544 2.16972C14.9255 2.12034 14.8844 2.07908 14.835 2.04986C14.7855 2.02065 14.7294 2.00444 14.6719 2.00277H12.3258C12.268 2.00094 12.2109 2.01582 12.1615 2.04559C12.1121 2.07536 12.0725 2.11873 12.0474 2.17044Z" fill="#48A23F"/>
</svg>
