<svg width="16" height="16" viewBox="0 0 16 16" fill="none" xmlns="http://www.w3.org/2000/svg">
<path d="M1.5 7.5L7.5 2.5L13.5 7.5L10.5 13.5H4.5L1.5 7.5Z" stroke="var(--mw-icon-object-primary, #616160)" stroke-linecap="square" stroke-linejoin="round"/>
<path d="M5.99999 13.5C5.99999 14.3284 5.32842 15 4.5 15C3.67157 15 3 14.3284 3 13.5C3 12.6716 3.67157 12 4.5 12C5.32842 12 5.99999 12.6716 5.99999 13.5Z" fill="var(--mw-icon-object-primary, #616160)"/>
<path d="M12 13.5C12 14.3284 11.3284 15 10.5 15C9.67157 15 9 14.3284 9 13.5C9 12.6716 9.67157 12 10.5 12C11.3284 12 12 12.6716 12 13.5Z" fill="var(--mw-icon-object-primary, #616160)"/>
<path d="M15 7.5C15 8.32842 14.3284 8.99999 13.5 8.99999C12.6716 8.99999 12 8.32842 12 7.5C12 6.67157 12.6716 6 13.5 6C14.3284 6 15 6.67157 15 7.5Z" fill="var(--mw-icon-object-primary, #616160)"/>
<path d="M2.99999 7.5C2.99999 8.32842 2.32842 8.99999 1.5 8.99999C0.671571 8.99999 0 8.32842 0 7.5C0 6.67157 0.671571 6 1.5 6C2.32842 6 2.99999 6.67157 2.99999 7.5Z" fill="var(--mw-icon-object-primary, #616160)"/>
<path d="M8.99999 2.5C8.99999 3.32842 8.32842 3.99999 7.5 3.99999C6.67157 3.99999 6 3.32842 6 2.5C6 1.67157 6.67157 1 7.5 1C8.32842 1 8.99999 1.67157 8.99999 2.5Z" fill="var(--mw-icon-object-primary, #616160)"/>
</svg>
