<svg width="16" height="16" viewBox="0 0 16 16" fill="none" xmlns="http://www.w3.org/2000/svg">
<rect width="15" height="15" rx="1" transform="matrix(1 0 0 -1 0.5 15.5)" fill="var(--mw-icon-background-default-white, #FFFFFF)"/>
<path d="M0.5 3.5C1.63023 3.66833 2.8837 3.91861 5.19701 4.06878C8.4769 4.28169 9.50437 4.06878 10.2048 5.05219C10.9053 6.03559 11.5 11.5 12 13C12.5 14.5 14 14.5 15 14.5" stroke="#0072BD"/>
<path d="M0.5 11.5C2.47561 11.5 1.87049 8.5 2.5 8.5C3.25622 8.5 3.40031 12.5 5 12.5C6.13022 12.5 6.30808 10.4262 6.5 9C6.66088 7.80445 6.87005 4.5 7.5 4.5C8.05197 4.5 9 10 9.5 12C10 14 12 15.5 14.5 15.5" stroke="#D95319"/>
<path d="M1 14.5C1.33684 14.5 5 15 5.72632 13.93C6.53538 12.7382 6.37983 11.5 7 11.5C7.62017 11.5 7.30674 13.4062 8.5 14.5C8.9873 14.9467 10.3279 15.5 11.5 15.5" stroke="#EDB120"/>
<rect width="15" height="15" rx="1" transform="matrix(1 0 0 -1 0.5 15.5)" stroke="var(--mw-icon-border-default-gray, #616161)"/>
</svg>
