<svg width="16" height="16" viewBox="0 0 16 16" fill="none" xmlns="http://www.w3.org/2000/svg">
<path d="M15 4.5H4C3.72386 4.5 3.5 4.72386 3.5 5V14C3.5 14.2761 3.72386 14.5 4 14.5H15C15.2761 14.5 15.5 14.2761 15.5 14V5C15.5 4.72386 15.2761 4.5 15 4.5Z" fill="#F5FAFF"/>
<path d="M3.5 7.5H15.5M4 4.5H15C15.2761 4.5 15.5 4.72386 15.5 5V14C15.5 14.2761 15.2761 14.5 15 14.5H4C3.72386 14.5 3.5 14.2761 3.5 14V5C3.5 4.72386 3.72386 4.5 4 4.5Z" stroke="var(--mw-icon-border-default-blue, #1656A7)"/>
<path d="M8.5 9.5H10.5" stroke="var(--mw-icon-glyph-content-blue, #1656A8)" stroke-linecap="square"/>
<path d="M0.5 1C0.5 0.723858 0.723858 0.5 1 0.5H7C7.27614 0.5 7.5 0.723858 7.5 1V7C7.5 7.27614 7.27614 7.5 7 7.5H1C0.723858 7.5 0.5 7.27614 0.5 7V1Z" fill="var(--mw-icon-background-default-white, #FFFFFF)" stroke="var(--mw-icon-border-default-gray, #616161)"/>
<path d="M2.14732 2.00108H1.1589C1.13297 1.99801 1.10661 2.00152 1.08278 2.0112C1.05895 2.02088 1.03859 2.03635 1.02398 2.05587C1.00938 2.07539 1.00111 2.0982 1.0001 2.12172C0.9991 2.14524 1.0054 2.16855 1.0183 2.18902L2.01524 3.72325L2.68413 2.71066L2.25809 2.06245C2.24676 2.04472 2.2307 2.02982 2.21135 2.0191C2.19201 2.00839 2.17 2.00219 2.14732 2.00108Z" fill="#B7312C"/>
<path d="M2.9227 3.09037L2.27086 4.11447L2.54352 4.53255L3.19537 3.51228L2.9227 3.09037Z" fill="#F2A900"/>
<path d="M5.73462 2.0664L4.12418 4.57488C4.11123 4.59392 4.09307 4.60965 4.07144 4.62056C4.04981 4.63148 4.02542 4.63721 4.00062 4.63721C3.97582 4.63721 3.95144 4.63148 3.92981 4.62056C3.90817 4.60965 3.89002 4.59392 3.87707 4.57488L3.45103 3.89214L2.79066 4.91624L3.88133 6.6039C3.89372 6.623 3.91144 6.63885 3.93275 6.64986C3.95405 6.66087 3.97819 6.66667 4.00275 6.66667C4.02732 6.66667 4.05146 6.66087 4.07276 6.64986C4.09406 6.63885 4.11179 6.623 4.12418 6.6039L6.98293 2.19298C6.99454 2.17339 7.00041 2.15146 6.99998 2.12926C6.99954 2.10706 6.99282 2.08533 6.98045 2.06612C6.96808 2.04692 6.95046 2.03087 6.92927 2.01951C6.90808 2.00815 6.88402 2.00185 6.85937 2.0012H5.85391C5.82915 2.00049 5.80469 2.00627 5.78351 2.01785C5.76233 2.02943 5.74534 2.04629 5.73462 2.0664Z" fill="#48A23F"/>
</svg>
