<svg width="16" height="17" viewBox="0 0 16 17" fill="none" xmlns="http://www.w3.org/2000/svg">
<path d="M14.5 5L7.5 1.5L0.5 5V12L7.5 15.5L14.5 12V5Z" fill="var(--mw-icon-background-default-white, #FFFFFF)"/>
<path d="M7.5 1.5L14.5 5V12L7.5 8.5V1.5Z" fill="var(--mw-icon-background-default-light-gray, #F5F5F5)"/>
<path d="M7.5 1.5L0.5 5V12L7.5 8.5V1.5Z" fill="var(--mw-icon-background-default-medium-gray, #D9D9D9)"/>
<path d="M5.5 10.5L2.5 9.5L4.5 6.5L8.5 4.5L12.5 8.5L9.5 9.5L8.5 12.5L5.5 10.5Z" fill="var(--mw-icon-background-default-selection, #B4DEFF)"/>
<path d="M8.5 4.5L12.5 8.5L9.5 9.5M8.5 4.5L6.5 6.5M8.5 4.5L4.5 6.5M5.5 10.5L2.5 9.5L4.5 6.5M5.5 10.5L8.5 12.5L9.5 9.5M5.5 10.5L6.5 6.5M6.5 6.5H4.5M6.5 6.5L9.5 9.5" stroke="var(--mw-icon-glyph-content-light-blue, #278CDD)" stroke-linecap="round" stroke-linejoin="round"/>
<path d="M7.5 11C7.5 10.7239 7.72386 10.5 8 10.5C8.27614 10.5 8.5 10.7239 8.5 11C8.5 11.2761 8.27614 11.5 8 11.5C7.72386 11.5 7.5 11.2761 7.5 11Z" fill="var(--mw-icon-glyph-content-dark-gray, #333333)"/>
<path d="M2.5 9C2.5 8.72386 2.72386 8.5 3 8.5C3.27614 8.5 3.5 8.72386 3.5 9C3.5 9.27614 3.27614 9.5 3 9.5C2.72386 9.5 2.5 9.27614 2.5 9Z" fill="var(--mw-icon-glyph-content-dark-gray, #333333)"/>
<path d="M5.5 8C5.5 7.72386 5.72386 7.5 6 7.5C6.27614 7.5 6.5 7.72386 6.5 8C6.5 8.27614 6.27614 8.5 6 8.5C5.72386 8.5 5.5 8.27614 5.5 8Z" fill="var(--mw-icon-glyph-content-dark-gray, #333333)"/>
<path d="M6.5 6C6.5 5.72386 6.72386 5.5 7 5.5C7.27614 5.5 7.5 5.72386 7.5 6C7.5 6.27614 7.27614 6.5 7 6.5C6.72386 6.5 6.5 6.27614 6.5 6Z" fill="var(--mw-icon-glyph-content-dark-gray, #333333)"/>
<path d="M7.5 5C7.5 4.72386 7.72386 4.5 8 4.5C8.27614 4.5 8.5 4.72386 8.5 5C8.5 5.27614 8.27614 5.5 8 5.5C7.72386 5.5 7.5 5.27614 7.5 5Z" fill="var(--mw-icon-glyph-content-dark-gray, #333333)"/>
<path d="M8.5 4C8.5 3.72386 8.72386 3.5 9 3.5C9.27614 3.5 9.5 3.72386 9.5 4C9.5 4.27614 9.27614 4.5 9 4.5C8.72386 4.5 8.5 4.27614 8.5 4Z" fill="var(--mw-icon-glyph-content-dark-gray, #333333)"/>
<path d="M7 9.5C7 9.22386 7.22386 9 7.5 9C7.77614 9 8 9.22386 8 9.5C8 9.77614 7.77614 10 7.5 10C7.22386 10 7 9.77614 7 9.5Z" fill="var(--mw-icon-glyph-content-dark-gray, #333333)"/>
<path d="M4 8.5C4 8.22386 4.22386 8 4.5 8C4.77614 8 5 8.22386 5 8.5C5 8.77614 4.77614 9 4.5 9C4.22386 9 4 8.77614 4 8.5Z" fill="var(--mw-icon-glyph-content-dark-gray, #333333)"/>
<path d="M9 6.5C9 6.22386 9.22386 6 9.5 6C9.77614 6 10 6.22386 10 6.5C10 6.77614 9.77614 7 9.5 7C9.22386 7 9 6.77614 9 6.5Z" fill="var(--mw-icon-glyph-content-dark-gray, #333333)"/>
<path d="M9.5 8C9.5 7.72386 9.72386 7.5 10 7.5C10.2761 7.5 10.5 7.72386 10.5 8C10.5 8.27614 10.2761 8.5 10 8.5C9.72386 8.5 9.5 8.27614 9.5 8Z" fill="var(--mw-icon-glyph-content-dark-gray, #333333)"/>
<path d="M8 7.5C8 7.22386 8.22386 7 8.5 7C8.77614 7 9 7.22386 9 7.5C9 7.77614 8.77614 8 8.5 8C8.22386 8 8 7.77614 8 7.5Z" fill="var(--mw-icon-glyph-content-dark-gray, #333333)"/>
<path d="M8 7.5C8 7.22386 8.22386 7 8.5 7C8.77614 7 9 7.22386 9 7.5C9 7.77614 8.77614 8 8.5 8C8.22386 8 8 7.77614 8 7.5Z" fill="var(--mw-icon-glyph-content-dark-gray, #333333)"/>
<path d="M0.5 5L7.5 1.5L14.5 5V12" stroke="var(--mw-icon-background-default-dark-gray, #A6A6A6)"/>
<path d="M0.5 5V12L7.5 15.5L14.5 12" stroke="var(--mw-icon-border-default-gray, #616161)" stroke-linecap="round" stroke-linejoin="round"/>
</svg>
