<svg width="16" height="16" viewBox="0 0 16 16" fill="none" xmlns="http://www.w3.org/2000/svg">
<path d="M3.5 4.5L3.5 14.5C3.5 15.0523 3.94772 15.5 4.5 15.5L14.5 15.5C15.0523 15.5 15.5 15.0523 15.5 14.5L15.5 4.91421C15.5 4.649 15.3946 4.39464 15.2071 4.20711L12.7929 1.79289C12.6054 1.60536 12.351 1.5 12.0858 1.5L6.5 1.5C4.84314 1.5 3.5 2.84315 3.5 4.5Z" fill="var(--mw-icon-background-default-white, #FFFFFF)" stroke="var(--mw-icon-border-default-gray, #616161)"/>
<path d="M10.5 11.5H12.5M8.5 13.5H10.5" stroke="var(--mw-icon-glyph-content-gray, #616162)" stroke-linecap="square"/>
<path d="M0.5 1C0.5 0.723858 0.723858 0.5 1 0.5H9C9.27614 0.5 9.5 0.723858 9.5 1V9C9.5 9.27614 9.27614 9.5 9 9.5H1C0.723858 9.5 0.5 9.27614 0.5 9V1Z" fill="white" stroke="var(--mw-icon-border-default-gray, #616161)"/>
<path d="M2.52975 2.00144H1.21186C1.1773 1.99735 1.14215 2.00202 1.11037 2.01493C1.0786 2.02783 1.05145 2.04846 1.03197 2.07449C1.0125 2.10052 1.00148 2.13093 1.00014 2.16229C0.998801 2.19365 1.0072 2.22473 1.0244 2.25203L2.35366 4.29767L3.24551 2.94755L2.67745 2.08326C2.66235 2.05963 2.64093 2.03976 2.61514 2.02547C2.58935 2.01118 2.56 2.00292 2.52975 2.00144Z" fill="#B7312C"/>
<path d="M3.5636 3.45383L2.69448 4.8193L3.05803 5.37673L3.92716 4.01638L3.5636 3.45383Z" fill="#F2A900"/>
<path d="M7.31283 2.08854L5.16557 5.43317C5.14831 5.45856 5.1241 5.47953 5.09525 5.49409C5.06641 5.50864 5.0339 5.51628 5.00083 5.51628C4.96777 5.51628 4.93526 5.50864 4.90641 5.49409C4.87757 5.47953 4.85335 5.45856 4.83609 5.43317L4.26804 4.52286L3.38755 5.88832L4.84177 8.13854C4.85829 8.164 4.88192 8.18513 4.91033 8.19981C4.93873 8.2145 4.97092 8.22222 5.00367 8.22222C5.03643 8.22222 5.06861 8.2145 5.09701 8.19981C5.12542 8.18513 5.14906 8.164 5.16557 8.13854L8.97723 2.2573C8.99272 2.23119 9.00055 2.20195 8.99997 2.17235C8.99939 2.14275 8.99043 2.11377 8.97393 2.08816C8.95743 2.06256 8.93395 2.04116 8.9057 2.02601C8.87745 2.01087 8.84537 2.00246 8.8125 2.0016H7.47188C7.43886 2.00065 7.40625 2.00836 7.37801 2.0238C7.34977 2.03923 7.32712 2.06173 7.31283 2.08854Z" fill="#48A23F"/>
</svg>
