<svg width="16" height="16" viewBox="0 0 16 16" fill="none" xmlns="http://www.w3.org/2000/svg">
<path d="M12.5 5.5L14.4545 7.45446C14.4706 7.47057 14.4786 7.47862 14.4816 7.48794C14.4841 7.49579 14.4841 7.50421 14.4816 7.51206C14.4786 7.52138 14.4706 7.52943 14.4545 7.54554L12.5 9.5" stroke="var(--mw-icon-glyph-content-light-blue, #278CDD)" stroke-linecap="round"/>
<path d="M0.5 5.5L2.45446 7.45446C2.47057 7.47057 2.47862 7.47862 2.48157 7.48794C2.48405 7.49579 2.48405 7.50421 2.48157 7.51206C2.47862 7.52138 2.47057 7.52943 2.45446 7.54554L0.5 9.5" stroke="var(--mw-icon-glyph-content-red, #902623)" stroke-linecap="round"/>
<path d="M3.5 4.5C3.5 3.94772 3.94772 3.5 4.5 3.5H10.5C11.0523 3.5 11.5 3.94772 11.5 4.5V10.5C11.5 11.0523 11.0523 11.5 10.5 11.5H4.5C3.94772 11.5 3.5 11.0523 3.5 10.5V4.5Z" fill="var(--mw-icon-background-default-white, #FFFFFF)" stroke="var(--mw-icon-border-default-gray, #616161)"/>
</svg>
