<svg width="16" height="16" viewBox="0 0 16 16" fill="none" xmlns="http://www.w3.org/2000/svg">
<path d="M13.5 0.5H1.5C0.947715 0.5 0.5 0.947716 0.5 1.5V13.5C0.5 14.0523 0.947716 14.5 1.5 14.5H13.5C14.0523 14.5 14.5 14.0523 14.5 13.5V1.5C14.5 0.947715 14.0523 0.5 13.5 0.5Z" fill="var(--mw-icon-background-default-white, #FFFFFF)" stroke="var(--mw-icon-border-default-gray, #616161)" stroke-linecap="round"/>
<path d="M8 7L9 6" stroke="var(--mw-icon-borderColor-light-blue, #268CDD)" stroke-linecap="square" stroke-linejoin="round"/>
<path d="M7 7.99996V6L9 8L7 7.99996Z" fill="var(--mw-icon-borderColor-light-blue, #268CDD)"/>
<path d="M9.5 2.5L9.5 5.5" stroke="#3AC831" stroke-linecap="round" stroke-linejoin="round"/>
<path d="M11 3L8 3L9.5 1L11 3Z" fill="#3AC831"/>
<path d="M12 5.5H9.5" stroke="#FF453A" stroke-linecap="round"/>
<path d="M12 7V4L14 5.5L12 7Z" fill="#FF453A"/>
<path d="M3.52081 14V12" stroke="var(--mw-icon-glyph-disabled-gray, #888889)"/>
<path d="M7.42857 4L5.5 5.92857V8.07143L6.92857 9.5H9.07143L11 7.57143" stroke="var(--mw-icon-glyph-content-dark-gray, #333333)"/>
<path d="M3 12L6 9" stroke="var(--mw-icon-glyph-content-dark-gray, #333333)"/>
<circle cx="3.5" cy="11.5" r="1" fill="white" stroke="var(--mw-icon-glyph-disabled-gray, #888889)"/>
</svg>
