<svg width="16" height="16" viewBox="0 0 16 16" fill="none" xmlns="http://www.w3.org/2000/svg">
<path d="M8 8C8.55228 8 9 7.55228 9 7L9 3C9 3 9 2 8 2C7 2 7 3 7 3L7 7C7 7.55228 7.44772 8 8 8Z" fill="var(--mw-icon-object-primary, #616160)"/>
<path d="M10.991 4.74727C11.2858 4.33611 11.8657 4.2411 12.2227 4.59954C12.899 5.27855 13.4095 6.11432 13.7063 7.04033C14.0979 8.26158 14.0979 9.57712 13.7063 10.7984C13.3148 12.0196 12.5518 13.0839 11.5267 13.8387C10.5016 14.5935 9.26708 15 8 15C6.73293 15 5.49838 14.5935 4.47329 13.8387C3.4482 13.0839 2.68521 12.0196 2.29366 10.7984C1.90211 9.57712 1.90211 8.26159 2.29366 7.04033C2.59055 6.11432 3.10099 5.27856 3.77732 4.59954C4.13434 4.2411 4.71424 4.33611 5.00901 4.74727V4.74727C5.29853 5.15112 5.20021 5.70744 4.87119 6.0798C4.48324 6.51885 4.18726 7.03729 4.00556 7.60403C3.73148 8.45891 3.73148 9.37979 4.00556 10.2347C4.27965 11.0895 4.81374 11.8345 5.5313 12.3629C6.24886 12.8912 7.11305 13.1758 8 13.1758C8.88695 13.1758 9.75114 12.8912 10.4687 12.3629C11.1863 11.8345 11.7204 11.0895 11.9944 10.2347C12.2685 9.37979 12.2685 8.45891 11.9944 7.60403C11.8127 7.03729 11.5168 6.51885 11.1288 6.0798C10.7998 5.70744 10.7015 5.15112 10.991 4.74727V4.74727Z" fill="var(--mw-icon-object-primary, #616160)"/>
</svg>
