<svg width="16" height="16" viewBox="0 0 16 16" fill="none" xmlns="http://www.w3.org/2000/svg">
<path d="M0.5 7.5C0.5 6.94772 0.947715 6.5 1.5 6.5H14.5C15.0523 6.5 15.5 6.94772 15.5 7.5V11C15.5 11.2761 15.2761 11.5 15 11.5H1C0.723858 11.5 0.5 11.2761 0.5 11V7.5Z" fill="var(--mw-icon-background-default-medium-gray, #D9D9D9)" stroke="var(--mw-icon-border-default-gray, #616161)" stroke-linejoin="round"/>
<rect x="12" y="7" width="2" height="1" fill="var(--mw-icon-background-default-dark-gray, #A6A6A6)"/>
<path d="M2.5 9.5H13.5V15C13.5 15.2761 13.2761 15.5 13 15.5H3C2.72386 15.5 2.5 15.2761 2.5 15V9.5Z" fill="var(--mw-icon-background-default-white, #FFFFFF)" stroke="var(--mw-icon-border-default-gray, #616161)" stroke-linejoin="round"/>
<path d="M4.5 13.5H7.5M4.5 11.5H11.5" stroke="var(--mw-icon-glyph-content-gray, #616162)" stroke-linecap="square" stroke-linejoin="round"/>
<path d="M2.5 6.5H13.5V2.20711C13.5 2.0745 13.4473 1.94732 13.3536 1.85355L12.1464 0.646447C12.0527 0.552678 11.9255 0.5 11.7929 0.5H3C2.72386 0.5 2.5 0.723858 2.5 1V6.5Z" fill="white" stroke="var(--mw-icon-border-default-gray, #616161)" stroke-linejoin="round"/>
</svg>
