<svg width="16" height="16" viewBox="0 0 16 16" fill="none" xmlns="http://www.w3.org/2000/svg">
<rect x="0.5" y="0.5" width="14" height="14" rx="1" fill="var(--mw-icon-background-default-white, #FFFFFF)" stroke="var(--mw-icon-border-default-gray, #616161)"/>
<path d="M3.5 6.5L6.5 9.5L12 4" stroke="var(--mw-icon-glyph-content-dark-gray, #333333)" stroke-linecap="square" stroke-linejoin="round"/>
<path d="M2.29321 5.29266L4.29321 5.43695L2.43611 7.29266L2.29321 5.29266Z" fill="var(--mw-icon-glyph-content-dark-gray, #333333)"/>
<path d="M13.0251 3.02533L12.8555 5.02334L11.0234 3.14287L13.0251 3.02533Z" fill="var(--mw-icon-glyph-content-dark-gray, #333333)"/>
<path d="M7.5 2.5H8.5M8.5 2.5H9.5M8.5 2.5V1.5M8.5 2.5V3.5M5.5 5.5H6.5M6.5 5.5H7.5M6.5 5.5V4.5M6.5 5.5V6.5M2.5 9.5H3.5M3.5 9.5H4.5M3.5 9.5V8.5M3.5 9.5V10.5M6.5 12.5H7.5M7.5 12.5H8.5M7.5 12.5V11.5M7.5 12.5V13.5M9.5 10.5H10.5M10.5 10.5H11.5M10.5 10.5V9.5M10.5 10.5V11.5M11.5 7.5H12.5M12.5 7.5H13.5M12.5 7.5V6.5M12.5 7.5V8.5" stroke="var(--mw-icon-glyph-content-light-blue, #278CDD)" stroke-linecap="square"/>
</svg>
