<svg width="16" height="16" viewBox="0 0 16 16" fill="none" xmlns="http://www.w3.org/2000/svg">
<path d="M0.5 5.5H11.5V10.5C11.5 11.6046 10.6046 12.5 9.5 12.5H2.5C1.39543 12.5 0.5 11.6046 0.5 10.5V5.5Z" fill="var(--mw-icon-background-lightest-blue, #E2F0FF)"/>
<path d="M11.5 9.04267C8.92354 10.9858 7.13643 10.9858 4.55997 9.04267C2.94353 7.82358 2.11644 7.27474 0.5 7.58534" stroke="var(--mw-icon-glyph-content-light-blue, #278CDD)" stroke-linecap="round"/>
<path d="M0.5 8.95712C3.14949 7.01429 5.00017 7.01429 7.64966 8.95712C9.31287 10.1767 9.83679 10.7258 11.5 10.4142" stroke="var(--mw-icon-border-default-blue, #1656A7)" stroke-linecap="round"/>
<path d="M0.5 5.5H11.5V10.5C11.5 11.6046 10.6046 12.5 9.5 12.5H2.5C1.39543 12.5 0.5 11.6046 0.5 10.5V5.5Z" stroke="var(--mw-icon-border-default-blue, #1656A7)" stroke-linejoin="round"/>
<path d="M0.5 2.5C0.5 1.39543 1.39543 0.5 2.5 0.5H9.5C10.6046 0.5 11.5 1.39543 11.5 2.5V5.5H0.5V2.5Z" fill="var(--mw-icon-background-default-white, #FFFFFF)" stroke="var(--mw-icon-glyph-content-blue, #1656A8)"/>
<path d="M2 2H4V5H2V2Z" fill="var(--mw-icon-glyph-content-blue, #1656A8)"/>
<path d="M4 4H6V5H4V4Z" fill="var(--mw-icon-glyph-content-light-blue, #278CDD)"/>
<path d="M8 3H10V5H8V3Z" fill="var(--mw-icon-glyph-content-light-blue, #278CDD)"/>
<path d="M6 2H8V3V5H6V2Z" fill="var(--mw-icon-glyph-content-blue, #1656A8)"/>
<path d="M5.5 6C5.5 5.72386 5.72386 5.5 6 5.5H15C15.2761 5.5 15.5 5.72386 15.5 6V15C15.5 15.2761 15.2761 15.5 15 15.5H6C5.72386 15.5 5.5 15.2761 5.5 15V6Z" fill="var(--mw-icon-glyph-content-green, #008014)" stroke="var(--mw-icon-glyph-content-green, #008014)"/>
<path d="M9.5 6.5H14.5V11.5H9.5V6.5Z" fill="var(--mw-icon-glyph-content-dark-gray, #333333)" stroke="var(--mw-icon-background-default-action, #CBFFBE)" stroke-linejoin="round"/>
<path d="M6 6V7H8V6H6Z" fill="var(--mw-icon-background-medium-yellow, #FFEF91)"/>
<path d="M6 8H8V9H6V8Z" fill="var(--mw-icon-background-medium-yellow, #FFEF91)"/>
<path d="M6 11H8V12H6V11Z" fill="var(--mw-icon-background-medium-yellow, #FFEF91)"/>
<path d="M9 15V13H10V15H9Z" fill="var(--mw-icon-background-medium-yellow, #FFEF91)"/>
<path d="M11 15V13H12V15H11Z" fill="var(--mw-icon-background-medium-yellow, #FFEF91)"/>
<path d="M13 15V13H14V15H13Z" fill="var(--mw-icon-background-medium-yellow, #FFEF91)"/>
</svg>
