<svg width="16" height="16" viewBox="0 0 16 16" fill="none" xmlns="http://www.w3.org/2000/svg">
<rect x="0.5" y="0.5" width="14" height="14" rx="2" fill="var(--mw-icon-background-brown, #DC996C)"/>
<rect y="3" width="15" height="1" fill="var(--mw-icon-border-default-brown, #5F1B08)"/>
<rect x="7" y="1" width="1" height="2" fill="var(--mw-icon-border-default-brown, #5F1B08)"/>
<rect x="2" y="11" width="1" height="2" fill="var(--mw-icon-glyph-content-brown, #5F1B18)"/>
<rect x="4" y="11" width="1" height="2" fill="var(--mw-icon-glyph-content-brown, #5F1B18)"/>
<path d="M5.77273 11.5C4.51754 11.5 3.5 10.2946 3.5 8.80769C3.5 7.32078 4.51754 6.11538 5.77273 6.11538C6.06427 6.11538 6.34298 6.18041 6.5991 6.29889C7.10382 5.22583 8.07127 4.5 9.18182 4.5C10.7422 4.5 12.0201 5.93297 12.1289 7.74861C12.9035 7.87541 13.5 8.66287 13.5 9.61538C13.5 10.6562 12.7877 11.5 11.9091 11.5H5.77273Z" fill="var(--mw-icon-background-default-white, #FFFFFF)" stroke="var(--mw-icon-glyph-content-brown, #5F1B18)"/>
<rect x="0.5" y="0.5" width="14" height="14" rx="2" stroke="var(--mw-icon-border-default-brown, #5F1B08)"/>
</svg>
