<svg width="16" height="16" viewBox="0 0 16 16" fill="none" xmlns="http://www.w3.org/2000/svg">
<path d="M0.5 12.5V2.5C0.5 1.39543 1.39543 0.5 2.5 0.5H12.5C13.6046 0.5 14.5 1.39543 14.5 2.5V12.5C14.5 13.6046 13.6046 14.5 12.5 14.5H2.5C1.39543 14.5 0.5 13.6046 0.5 12.5Z" fill="var(--mw-icon-background-default-white, white)"/>
<rect x="5" y="6" width="5" height="4" fill="#CB845D"/>
<path d="M7.45752 7.54199V3.56977" stroke="#26190E" stroke-linejoin="round"/>
<path d="M7.5 3.5V7.5L2.5 10.5V6.5L7.5 3.5Z" fill="#A0522C" stroke="#7B3115" stroke-linejoin="round"/>
<path d="M7.5 7.5L12.5 10.5V6.5L7.5 3.5V7.5Z" fill="#A0522C" stroke="#7B3115" stroke-linejoin="round"/>
<path d="M7.45752 9.45801V13.4302" stroke="#26190E" stroke-linejoin="round"/>
<path d="M7.5 13.5V9.5L2.5 6.5V10.5L7.5 13.5Z" fill="var(--mw-icon-background-brown, #DC996C)" stroke="#7B3115" stroke-linejoin="round"/>
<path d="M7.5 9.5L12.5 6.5V10.5L7.5 13.5V9.5Z" fill="var(--mw-icon-background-brown, #DC996C)" stroke="#7B3115" stroke-linejoin="round"/>
<path d="M3.5 2.5L5.5 2.5L5.5 0.500001L9.5 0.5L9.5 2.49984L11.5 2.5L7.5 7.5L3.5 2.5Z" fill="var(--mw-icon-background-default-selection, #B4DEFF)" stroke="var(--mw-icon-border-default-blue, #1656A7)"/>
<path d="M0.5 12.5V2.5C0.5 1.39543 1.39543 0.5 2.5 0.5H12.5C13.6046 0.5 14.5 1.39543 14.5 2.5V12.5C14.5 13.6046 13.6046 14.5 12.5 14.5H2.5C1.39543 14.5 0.5 13.6046 0.5 12.5Z" stroke="var(--mw-icon-border-default-gray, #616161)" stroke-linecap="round"/>

</svg>
