<svg width="16" height="16" viewBox="0 0 16 16" fill="none" xmlns="http://www.w3.org/2000/svg">
<path d="M0.5 9.5H15.5V14.5C15.5 15.0523 15.0523 15.5 14.5 15.5H1.5C0.947715 15.5 0.5 15.0523 0.5 14.5V9.5Z" fill="var(--mw-icon-background-default-white, #FFFFFF)" stroke="var(--mw-icon-border-default-gray, #616161)"/>
<path d="M5.5 11.5H12.5M5.5 13.5H9.5" stroke="var(--mw-icon-glyph-content-gray, #616162)" stroke-linecap="square"/>
<rect x="3" y="13" width="1" height="1" fill="var(--mw-icon-glyph-content-red, #902623)"/>
<rect x="3" y="11" width="1" height="1" fill="var(--mw-icon-glyph-content-green, #008014)"/>
<path d="M0.5 9.5H15.5V1.5C15.5 0.947715 15.0523 0.5 14.5 0.5H1.5C0.947715 0.5 0.5 0.947715 0.5 1.5V9.5Z" fill="white" stroke="var(--mw-icon-border-default-gray, #616161)"/>
<rect x="2" y="7" width="12" height="1" fill="var(--mw-icon-glyph-content-blue, #1656A8)"/>
<path d="M3 6H7V7H3V6Z" fill="var(--mw-icon-glyph-content-light-blue, #278CDD)"/>
<path d="M10 6H14V7H10V6Z" fill="var(--mw-icon-glyph-content-light-blue, #278CDD)"/>
<path d="M12 4H14V5H12V4Z" fill="var(--mw-icon-glyph-content-light-blue, #278CDD)"/>
<path d="M5 4H7V5H5V4Z" fill="var(--mw-icon-glyph-content-light-blue, #278CDD)"/>
<path d="M13 2H14V4H13V2Z" fill="var(--mw-icon-glyph-disabled-gray, #888889)"/>
<path d="M8 4H9V7H8V4Z" fill="var(--mw-icon-glyph-disabled-gray, #888889)"/>
<path d="M4 5H7V6H4V5Z" fill="var(--mw-icon-background-medium-blue, #83CAFF)"/>
<path d="M6 3H7V4H6V3Z" fill="var(--mw-icon-background-medium-blue, #83CAFF)"/>
<path d="M11 5H14V6H11V5Z" fill="var(--mw-icon-background-medium-blue, #83CAFF)"/>
</svg>
