<svg width="16" height="16" viewBox="0 0 16 16" fill="none" xmlns="http://www.w3.org/2000/svg">
<path d="M1.5 4.5H14.5V14C14.5 14.2761 14.2761 14.5 14 14.5H2C1.72386 14.5 1.5 14.2761 1.5 14V4.5Z" fill="var(--mw-sidebar-icon-fill, #ffffff)" stroke="var(--mw-sidebar-icon-stroke, #616161)"/>
<path d="M6.5 6.5H9.5" stroke="var(--mw-sidebar-icon-stroke, #616161)" stroke-linecap="round"/>
<path d="M0.5 2C0.5 1.72386 0.723858 1.5 1 1.5H15C15.2761 1.5 15.5 1.72386 15.5 2V4.5H0.5V2Z" fill="var(--mw-sidebar-icon-fill, #ffffff)"/>
<path d="M15.5 4.5V5C15.7761 5 16 4.77614 16 4.5H15.5ZM0.5 4.5H0C0 4.77614 0.223858 5 0.5 5L0.5 4.5ZM1 2H15V1H1V2ZM15 2V4.5H16V2H15ZM15.5 4H0.5V5H15.5V4ZM1 4.5V2H0V4.5H1ZM15 2H16C16 1.44771 15.5523 1 15 1V2ZM1 1C0.447715 1 0 1.44772 0 2H1V2V1Z" fill="var(--mw-sidebar-icon-stroke, #616161)"/>
</svg>
