<svg width="16" height="17" viewBox="0 0 16 17" fill="none" xmlns="http://www.w3.org/2000/svg">
<path d="M0.5 2C0.5 1.72386 0.723858 1.5 1 1.5H5.08579C5.351 1.5 5.60536 1.60536 5.79289 1.79289L6.20711 2.20711C6.39464 2.39464 6.649 2.5 6.91421 2.5H11C11.2761 2.5 11.5 2.72386 11.5 3V9C11.5 9.27614 11.2761 9.5 11 9.5H1C0.723858 9.5 0.5 9.27614 0.5 9V2Z" fill="var(--mw-icon-background-light-yellow, #FFF5BC)" stroke="#674C06"/>
<path d="M6.5 7.5H14.5V13C14.5 13.2761 14.2761 13.5 14 13.5H7C6.72386 13.5 6.5 13.2761 6.5 13V7.5Z" fill="var(--mw-icon-background-lightest-blue, #E2F0FF)" stroke="var(--mw-icon-border-default-blue, #1656A7)"/>
<path d="M5.5 6C5.5 5.72386 5.72386 5.5 6 5.5H15C15.2761 5.5 15.5 5.72386 15.5 6V7.5H5.5V6Z" fill="var(--mw-icon-background-lightest-blue, #E2F0FF)"/>
<path d="M15.5 7.5V8C15.7761 8 16 7.77614 16 7.5H15.5ZM5.5 7.5H5C5 7.77614 5.22386 8 5.5 8V7.5ZM6 6H15V5H6V6ZM15 6V7.5H16V6H15ZM15.5 7H5.5V8H15.5V7ZM6 7.5V6H5V7.5H6ZM15 6H16C16 5.44772 15.5523 5 15 5V6ZM6 5C5.44772 5 5 5.44772 5 6H6V5Z" fill="var(--mw-icon-border-default-blue, #1656A7)"/>
</svg>
