<svg width="16" height="16" viewBox="0 0 16 16" fill="none" xmlns="http://www.w3.org/2000/svg">
<path d="M3.5 7.5H15.5M4 4.5H15C15.2761 4.5 15.5 4.72386 15.5 5V14C15.5 14.2761 15.2761 14.5 15 14.5H4C3.72386 14.5 3.5 14.2761 3.5 14V5C3.5 4.72386 3.72386 4.5 4 4.5Z" stroke="var(--mw-icon-border-default-blue, #1656A7)"/>
<path d="M9 8V9H8V10H9V11H8V12H10V11H11V10H10V9H11V8H9Z" fill="var(--mw-icon-glyph-content-gray, #616162)"/>
<path d="M10.5 12.5H8.5V15C8.5 15.2761 8.72386 15.5 9 15.5H10C10.2761 15.5 10.5 15.2761 10.5 15V12.5Z" fill="var(--mw-icon-background-default-medium-gray, #D9D9D9)" stroke="var(--mw-icon-glyph-content-dark-gray, #333333)"/>
<rect x="9" y="14" width="1" height="1" fill="var(--mw-icon-background-default-dark-gray, #A6A6A6)"/>
<path d="M5.16788 2.83338L2.8345 6.33344L1.08447 4.58341V4.00006L5.75122 0.5L5.16788 2.83338Z" fill="#068CFC"/>
<path fill-rule="evenodd" clip-rule="evenodd" d="M5.34008 1.00993L4.25376 3.45058C4.03356 3.94528 3.71522 4.39013 3.31802 4.75816L2.39697 5.61156C2.75766 5.8501 3.06424 6.07955 3.27071 6.43795C3.37532 6.61954 3.59285 7.04464 3.67568 7.20774C3.67568 7.20774 3.89681 7.06278 4.03173 6.93858C4.24501 6.74225 4.75118 6.13023 5.05733 5.70749C5.23675 5.45975 5.4846 5.26768 5.73405 5.13751C6.15949 4.91551 7.07931 5.10222 7.07931 5.10222C6.78971 4.26138 6.39926 3.1041 6.26509 2.61951C6.16347 2.25244 5.6792 1.01173 5.34008 1.00993Z" fill="#F57729"/>
<path d="M2.86052 3.06225C2.86052 3.06225 1.06863 4.26225 0.5 4.47855C0.5 4.47855 1.87096 5.22207 2.30495 5.6487C2.84129 6.17596 3.28478 7.0221 3.57093 7.5008C3.80205 7.28805 4.3593 6.76629 4.74499 6.40954C5.08918 6.09116 5.76896 5.16048 6.47646 5.16048C6.93922 5.16048 7.5 5.60727 7.5 5.60727C7.5 5.60727 6.65475 3.15844 6.48747 2.55421C6.27836 1.79893 5.76625 0.5 5.36456 0.5C4.94081 0.5 4.40705 1.42549 4.26398 1.6808C4.1209 1.93611 3.38542 2.70945 2.86052 3.06225Z" stroke="var(--mw-icon-glyph-content-dark-gray, #333333)" stroke-linecap="round" stroke-linejoin="round"/>
</svg>
