<svg width="16" height="16" viewBox="0 0 16 16" fill="none" xmlns="http://www.w3.org/2000/svg">
<path d="M11.5 0.5H1.5C0.947715 0.5 0.5 0.947715 0.5 1.5V11.5C0.5 12.0523 0.947715 12.5 1.5 12.5H11.5C12.0523 12.5 12.5 12.0523 12.5 11.5V1.5C12.5 0.947715 12.0523 0.5 11.5 0.5Z" fill="var(--mw-icon-background-default-white, #FFFFFF)" stroke="var(--mw-icon-border-default-gray, #616161)"/>
<path d="M7.5 3.5H10.5" stroke="var(--mw-icon-glyph-content-gray, #616162)" stroke-linecap="square" stroke-linejoin="round"/>
<path d="M2.5 3.5L3.5 4.5L5.5 2.5" stroke="var(--mw-icon-glyph-content-green, #008014)" stroke-linecap="square"/>
<path d="M2.5 7.5L4.5 9.5M4.5 7.5L2.5 9.5" stroke="var(--mw-icon-glyph-content-red, #902623)" stroke-linecap="square"/>
<path d="M6.5 8.5H14.5V14C14.5 14.2761 14.2761 14.5 14 14.5H7C6.72386 14.5 6.5 14.2761 6.5 14V8.5Z" fill="var(--mw-icon-background-lightest-blue, #E2F0FF)" stroke="var(--mw-icon-border-default-blue, #1656A7)"/>
<path d="M5.5 7C5.5 6.72386 5.72386 6.5 6 6.5H15C15.2761 6.5 15.5 6.72386 15.5 7V8.5H5.5V7Z" fill="var(--mw-icon-background-lightest-blue, #E2F0FF)"/>
<path d="M15.5 8.5V9C15.7761 9 16 8.77614 16 8.5H15.5ZM5.5 8.5H5C5 8.77614 5.22386 9 5.5 9V8.5ZM6 7H15V6H6V7ZM15 7V8.5H16V7H15ZM15.5 8H5.5V9H15.5V8ZM6 8.5V7H5V8.5H6ZM15 7H16C16 6.44772 15.5523 6 15 6V7ZM6 6C5.44772 6 5 6.44772 5 7H6V6Z" fill="var(--mw-icon-border-default-blue, #1656A7)"/>
</svg>
