<svg width="16" height="16" viewBox="0 0 16 16" fill="none" xmlns="http://www.w3.org/2000/svg">
<path d="M6.5 3.5H14.5V9C14.5 9.27614 14.2761 9.5 14 9.5H7C6.72386 9.5 6.5 9.27614 6.5 9V3.5Z" fill="#F5FAFF" stroke="var(--mw-icon-border-default-blue, #1656A7)"/>
<path d="M5.5 2C5.5 1.72386 5.72386 1.5 6 1.5H15C15.2761 1.5 15.5 1.72386 15.5 2V3.5H5.5V2Z" fill="#F5FAFF" stroke="var(--mw-icon-border-default-blue, #1656A7)" stroke-linejoin="round"/>
<path d="M1.5 8.5H9.5V14C9.5 14.2761 9.27614 14.5 9 14.5H2C1.72386 14.5 1.5 14.2761 1.5 14V8.5Z" fill="#F5FAFF" stroke="var(--mw-icon-border-default-blue, #1656A7)"/>
<path d="M0.5 7C0.5 6.72386 0.723858 6.5 1 6.5H10C10.2761 6.5 10.5 6.72386 10.5 7V8.5H0.5V7Z" fill="#F5FAFF" stroke="var(--mw-icon-border-default-blue, #1656A7)" stroke-linejoin="round"/>
</svg>
