<svg width="16" height="16" viewBox="0 0 16 16" fill="none" xmlns="http://www.w3.org/2000/svg">
<path d="M0.5 3C0.5 2.72386 0.723858 2.5 1 2.5H5.86496C6.16174 2.5 6.44319 2.63182 6.63318 2.85982L7.70015 4.14018C7.89015 4.36818 8.1716 4.5 8.46837 4.5H15C15.2761 4.5 15.5 4.72386 15.5 5V7.8355V13C15.5 13.2761 15.2761 13.5 15 13.5H1C0.723858 13.5 0.5 13.2761 0.5 13V3Z" fill="var(--mw-icon-background-light-yellow, #FFF5BC)" stroke="#674C06"/>
<path d="M2.5 7C2.5 6.72386 2.72386 6.5 3 6.5H13C13.2761 6.5 13.5 6.72386 13.5 7V8.5H2.5V7Z" fill="var(--mw-icon-background-default-selection, #B4DEFF)" stroke="var(--mw-icon-border-default-blue, #1656A7)"/>
<path d="M12.5 14C12.5 14.2761 12.2761 14.5 12 14.5L4 14.5C3.72386 14.5 3.5 14.2761 3.5 14L3.5 8.5L12.5 8.5L12.5 14Z" fill="var(--mw-icon-background-default-selection, #B4DEFF)" stroke="var(--mw-icon-border-default-blue, #1656A7)"/>
<rect x="6" y="9" width="4" height="1" fill="var(--mw-icon-glyph-content-blue, #1656A8)"/>
</svg>
