<svg width="16" height="16" viewBox="0 0 16 16" fill="none" xmlns="http://www.w3.org/2000/svg">
<path d="M0.500003 1.5C0.500001 0.947717 0.947717 0.5 1.5 0.5H13.5C14.0523 0.5 14.5 0.947715 14.5 1.5V13.5C14.5 14.0523 14.0523 14.5 13.5 14.5H1.50004C0.947755 14.5 0.500041 14.0523 0.500039 13.5L0.500003 1.5Z" fill="var(--mw-icon-background-default-white, #FFFFFF)" stroke="var(--mw-icon-border-default-gray, #616161)"/>
<path d="M2.5 3.5H8.5V5.5H2.5V3.5Z" stroke="var(--mw-icon-glyph-content-gray, #616162)" stroke-linejoin="round"/>
<path d="M2.5 7.5H8.5V9.5H2.5V7.5Z" stroke="var(--mw-icon-glyph-content-gray, #616162)" stroke-linejoin="round"/>
<path d="M2.5 11.5H8.5V12.5H2.5V11.5Z" stroke="var(--mw-icon-glyph-content-gray, #616162)" stroke-linejoin="round"/>
<path d="M9.5 4.5L10.5 4V5L9.5 4.5Z" fill="var(--mw-icon-glyph-content-gray, #616162)"/>
<path d="M12.5 12.5V13C12.7761 13 13 12.7761 13 12.5H12.5ZM12.5 4.5H13C13 4.22386 12.7761 4 12.5 4L12.5 4.5ZM10.5 4L10 4L10 5L10.5 5L10.5 4ZM9.5 4.5L9.27639 4.05279L8.38197 4.5L9.27639 4.94721L9.5 4.5ZM10.5 4H11V3.19098L10.2764 3.55279L10.5 4ZM10.5 5L10.2764 5.44721L11 5.80902V5H10.5ZM10.5 13H12.5V12H10.5V13ZM13 12.5V4.5H12V12.5H13ZM12.5 4L10.5 4L10.5 5L12.5 5L12.5 4ZM9.72361 4.94721L10.7236 4.44721L10.2764 3.55279L9.27639 4.05279L9.72361 4.94721ZM10 4V5H11V4H10ZM10.7236 4.55279L9.72361 4.05279L9.27639 4.94721L10.2764 5.44721L10.7236 4.55279Z" fill="var(--mw-icon-glyph-content-gray, #616162)"/>
</svg>
