<svg width="16" height="16" viewBox="0 0 16 16" fill="none" xmlns="http://www.w3.org/2000/svg">
<path d="M0.5 3H15.5V14.5C15.5 15.0523 15.0523 15.5 14.5 15.5H1.5C0.947715 15.5 0.5 15.0523 0.5 14.5V3Z" fill="var(--mw-icon-background-default-white, #FFFFFF)" stroke="var(--mw-icon-border-default-gray, #616161)"/>
<path d="M0.5 1.5C0.5 0.947715 0.947715 0.5 1.5 0.5H14.5C15.0523 0.5 15.5 0.947715 15.5 1.5V3.5H0.5V1.5Z" fill="var(--mw-icon-background-default-selection, #B4DEFF)" stroke="var(--mw-icon-border-default-blue, #1656A7)"/>
<path d="M6.5 6.5H13.5M6.5 9.5H13.5M6.5 12.5H13.5" stroke="var(--mw-icon-glyph-content-gray, #616162)" stroke-linecap="square"/>
<path d="M2 6H4V7H2V6Z" fill="var(--mw-icon-glyph-content-gray, #616162)"/>
<path d="M2 9H4V10H2V9Z" fill="var(--mw-icon-glyph-content-gray, #616162)"/>
<path d="M2 12H4V13H2V12Z" fill="var(--mw-icon-glyph-content-gray, #616162)"/>
</svg>
