<svg width="16" height="16" viewBox="0 0 16 16" fill="none" xmlns="http://www.w3.org/2000/svg">
<path d="M13.7698 6.25313C13.6682 6.50721 13.4559 6.73429 13.1823 6.73429H12.6165C12.3382 6.73429 12.1026 6.50733 12.0888 6.22938C12.0833 6.11979 12.0852 6.01728 12.111 5.8871C12.1731 5.5914 12.2775 5.32482 12.424 5.08737C12.5749 4.84991 12.7747 4.6147 13.0233 4.38172C13.232 4.19355 13.414 4.01434 13.5694 3.84409C13.7248 3.67384 13.8468 3.4991 13.9356 3.31989C14.0244 3.1362 14.0688 2.93235 14.0688 2.70833C14.0688 2.44848 14.0289 2.23342 13.9489 2.06317C13.8735 1.88844 13.7248 1.84781 13.5694 1.7582C13.4184 1.6686 13.2608 1.65995 13.03 1.65995C12.8391 1.65995 12.5882 1.76271 12.424 1.84784C12.2597 1.92848 12.2175 1.9849 12.111 2.15515C12.0631 2.235 12.0367 2.36469 12.0217 2.50857C11.9934 2.78012 11.781 3 11.5079 3H10.511C10.2306 3 10.0034 2.76899 10.0365 2.49056C10.0952 1.99578 10.2229 1.48388 10.4195 1.18952C10.6903 0.78629 11.0522 0.488351 11.505 0.295699C11.9578 0.0985663 12.4661 0 13.03 0C13.6515 0 14.1842 0.103047 14.6282 0.30914C15.0721 0.510753 15.4118 0.808692 15.6471 1.20296C15.8824 1.59274 16 2.06765 16 2.62769C16 3.01747 15.9245 3.3647 15.7736 3.66935C15.6226 3.96953 15.4251 4.24955 15.1809 4.50941C14.9367 4.76927 14.6681 5.03808 14.3751 5.31586C14.1221 5.54435 13.9489 5.78405 13.8557 6.03495C13.8258 6.11944 13.7962 6.18722 13.7698 6.25313ZM12 9.00538C12 8.71864 12.0624 8.48118 12.2577 8.29301C12.4531 8.10036 12.5683 8.08932 12.8968 8.08932C13.2209 8.08932 13.4806 8.10036 13.6759 8.29301C13.8757 8.48118 13.9756 8.71864 13.9756 9.00538C13.9756 9.28315 13.8757 9.51837 13.6759 9.71102C13.4806 9.90367 13.2209 10 12.8968 10C12.5683 10 12.4531 9.90367 12.2577 9.71102C12.0624 9.51837 12 9.28315 12 9.00538Z" fill="#EDB120"/>
<path d="M9.89584 10.2626C10.0347 10.1237 10.0347 9.89862 9.89584 9.75977L9.24021 9.10414C9.10136 8.96529 8.87624 8.96529 8.73739 9.10414L6.5 11.3415L4.26261 9.10414C4.12376 8.96529 3.89864 8.96529 3.75979 9.10414L3.10416 9.75977C2.96531 9.89862 2.96531 10.1237 3.10416 10.2626L5.34155 12.5L3.10414 14.7374C2.96529 14.8763 2.96529 15.1014 3.10414 15.2402L3.75977 15.8959C3.89862 16.0347 4.12374 16.0347 4.26258 15.8959L6.5 13.6584L8.73742 15.8959C8.87626 16.0347 9.10138 16.0347 9.24023 15.8959L9.89586 15.2402C10.0347 15.1014 10.0347 14.8763 9.89586 14.7374L7.65845 12.5L9.89584 10.2626Z" fill="var(--mw-icon-background-default-dark-gray, #A6A6A6)"/>
<circle cx="4" cy="4" r="3.5" fill="var(--mw-icon-background-red, #FF9D9A)" stroke="var(--mw-icon-border-default-red, #902622)"/>
</svg>
