<svg width="16" height="16" viewBox="0 0 16 16" fill="none" xmlns="http://www.w3.org/2000/svg">
<path fill-rule="evenodd" clip-rule="evenodd" d="M5 2.5C5 2.22386 5.22386 2 5.5 2H8H9.5C9.77614 2 10 2.22386 10 2.5V12H11.0854C11.2913 11.4174 11.8469 11 12.5 11C13.3284 11 14 11.6716 14 12.5C14 13.3284 13.3284 14 12.5 14C11.8469 14 11.2913 13.5826 11.0854 13H9.5C9.22386 13 9 12.7761 9 12.5V3H8H6V12.5C6 12.7761 5.77614 13 5.5 13H3.91465C3.70873 13.5826 3.15311 14 2.5 14C1.67157 14 1 13.3284 1 12.5C1 11.6716 1.67157 11 2.5 11C3.15311 11 3.70873 11.4174 3.91465 12H5V2.5ZM12 12.5C12 12.7761 12.2239 13 12.5 13C12.7761 13 13 12.7761 13 12.5C13 12.2239 12.7761 12 12.5 12C12.2239 12 12 12.2239 12 12.5ZM2.5 12C2.22386 12 2 12.2239 2 12.5C2 12.7761 2.22386 13 2.5 13C2.77614 13 3 12.7761 3 12.5C3 12.2239 2.77614 12 2.5 12Z" fill="var(--mw-icon-object-primary, #616160)"/>
</svg>
