<svg width="16" height="16" viewBox="0 0 16 16" fill="none" xmlns="http://www.w3.org/2000/svg">
<rect x="0.5" y="0.5" width="14" height="14" rx="1" fill="var(--mw-icon-background-default-white, #FFFFFF)"/>
<path d="M1.5 7.5H3.5" stroke="var(--mw-icon-background-default-dark-gray, #A6A6A6)" stroke-linecap="round" stroke-linejoin="round"/>
<path d="M5.5 7.5H7.5" stroke="var(--mw-icon-background-default-dark-gray, #A6A6A6)" stroke-linecap="round" stroke-linejoin="round"/>
<path d="M9.5 7.5H11.5" stroke="var(--mw-icon-background-default-dark-gray, #A6A6A6)" stroke-linecap="round" stroke-linejoin="round"/>
<path d="M13.5 7.5H14.5" stroke="var(--mw-icon-background-default-dark-gray, #A6A6A6)" stroke-linecap="round" stroke-linejoin="round"/>
<rect x="0.5" y="0.5" width="14" height="14" rx="1" stroke="var(--mw-icon-border-default-gray, #616161)"/>
<path d="M10.5 6.5L11.5 7.5M11.5 7.5L12.5 8.5M11.5 7.5L12.5 6.5M11.5 7.5L10.5 8.5" stroke="#1171BE" stroke-linecap="round"/>
<circle cx="5" cy="11" r="2.5" fill="var(--mw-icon-background-medium-yellow, #FFEF91)" stroke="#EDB120"/>
<circle cx="5" cy="4" r="2.5" fill="var(--mw-icon-background-medium-yellow, #FFEF91)" stroke="#EDB120"/>
<rect x="5" y="4" width="1" height="1" fill="#1171BE"/>
<rect x="5" y="10" width="1" height="1" fill="#1171BE"/>
<rect x="4" y="3" width="1" height="1" fill="#1171BE"/>
<rect x="4" y="11" width="1" height="1" fill="#1171BE"/>
</svg>
