<svg width="16" height="16" viewBox="0 0 16 16" fill="none" xmlns="http://www.w3.org/2000/svg">
<path d="M0.5 13.5C0.5 14.0523 0.947715 14.5 1.5 14.5H13.5C14.0523 14.5 14.5 14.0523 14.5 13.5V1.5C14.5 0.947716 14.0523 0.5 13.5 0.5H1.5C0.947716 0.5 0.5 0.947716 0.5 1.5V13.5Z" fill="var(--mw-sidebar-icon-fill, #ffffff)" stroke="var(--mw-sidebar-icon-stroke, #616161)"/>
<path d="M2.5 12.5V10.5H12.5V12.5H2.5Z" fill="var(--mw-sidebar-icon-fill, #ffffff)" stroke="var(--mw-sidebar-icon-stroke, #616161)" stroke-linejoin="round"/>
<path d="M10 3.5L12 3.5M10 5.5L13 5.5M10 7.5H11" stroke="var(--mw-sidebar-icon-stroke, #616161)"/>
<path d="M5.5 5.5H5V5.70711L5.14645 5.85355L5.5 5.5ZM7.62132 3.37866L7.26777 3.73222V3.73222L7.62132 3.37866ZM5 2.5V5.5H6V2.5H5ZM5.14645 5.85355L7.26777 7.97487L7.97487 7.26777L5.85355 5.14645L5.14645 5.85355ZM5.5 8C4.11929 8 3 6.88071 3 5.5H2C2 7.433 3.567 9 5.5 9V8ZM3 5.5C3 4.11929 4.11929 3 5.5 3V2C3.567 2 2 3.567 2 5.5H3ZM7.26777 7.26777C6.81481 7.72073 6.19049 8 5.5 8V9C6.46636 9 7.34205 8.6077 7.97487 7.97487L7.26777 7.26777ZM8 5.49998C8 6.19048 7.72072 6.81481 7.26777 7.26777L7.97487 7.97487C8.6077 7.34204 9 6.46634 9 5.49998H8ZM7.26777 3.73222C7.72073 4.18517 8 4.80949 8 5.49998H9C9 4.53362 8.6077 3.65794 7.97487 3.02511L7.26777 3.73222ZM5.5 3C6.1905 3 6.81481 3.27926 7.26777 3.73222L7.97487 3.02511C7.34204 2.39228 6.46635 2 5.5 2V3ZM5.85355 5.85355L7.85355 3.85355L7.14645 3.14645L5.14645 5.14645L5.85355 5.85355Z" fill="var(--mw-sidebar-icon-stroke, #616161)"/>
</svg>
