<svg width="16" height="16" viewBox="0 0 16 16" fill="none" xmlns="http://www.w3.org/2000/svg">
<rect x="0.5" y="0.5" width="14" height="14" rx="1" fill="var(--mw-icon-background-default-white, #FFFFFF)"/>
<path d="M1.5 7.5H3.5" stroke="var(--mw-icon-background-default-dark-gray, #A6A6A6)" stroke-linecap="round" stroke-linejoin="round"/>
<path d="M5.5 7.5H7.5" stroke="var(--mw-icon-background-default-dark-gray, #A6A6A6)" stroke-linecap="round" stroke-linejoin="round"/>
<path d="M9.5 7.5H11.5" stroke="var(--mw-icon-background-default-dark-gray, #A6A6A6)" stroke-linecap="round" stroke-linejoin="round"/>
<path d="M13.5 7.5H14.5" stroke="var(--mw-icon-background-default-dark-gray, #A6A6A6)" stroke-linecap="round" stroke-linejoin="round"/>
<path d="M1 1L14.5 12.5" stroke="#EDB120" stroke-linecap="round" stroke-linejoin="round"/>
<path d="M0.5 5C8 5 12 7.5 14.5 13.5" stroke="#1171BE" stroke-linecap="round" stroke-linejoin="round"/>
<rect x="0.5" y="0.5" width="14" height="14" rx="1" stroke="var(--mw-icon-border-default-gray, #616161)"/>
<path d="M5.65617 12.1701L5.7564 12.2359C5.62038 12.426 5.50583 12.5869 5.34476 12.671C5.26243 12.7149 5.16578 12.7368 5.04766 12.7368C4.72193 12.7368 4.5 12.543 4.5 12.1847C4.5 11.8483 4.65392 11.5375 4.87585 11.3108C5.0584 11.1207 5.28033 11 5.52015 11C5.73492 11 5.92105 11.1353 5.92105 11.3291C5.92105 11.4827 5.83157 11.5887 5.69913 11.5887C5.57742 11.5887 5.49152 11.5046 5.49152 11.3949C5.49152 11.2852 5.56668 11.2633 5.56668 11.1828C5.56668 11.1463 5.52373 11.1207 5.48078 11.1207C5.34476 11.1207 5.24811 11.256 5.14789 11.4424C5.02976 11.6655 4.95817 11.9324 4.95817 12.1774C4.95817 12.3895 5.06198 12.5028 5.21948 12.5028C5.37339 12.5028 5.48436 12.4151 5.65617 12.1701Z" fill="var(--mw-icon-glyph-content-gray, #616162)"/>
<path d="M3.88171 10.1077V10C4.33238 10 4.52213 10.1356 4.61701 10.3231C4.66049 10.4069 4.68421 10.5026 4.68421 10.6103C4.68421 11.085 4.35214 11.7033 3.84614 11.8588C3.77103 11.8828 3.68406 11.8947 3.60104 11.8947C3.40733 11.8947 3.22153 11.8309 3.15828 11.6474C3.03969 11.815 2.81436 11.8947 2.60088 11.8947C2.47833 11.8947 2.35579 11.8708 2.26091 11.815C2.09883 11.7232 2 11.5437 2 11.3363C2 10.8696 2.16999 10.5305 2.40718 10.2992C2.60484 10.1117 2.84993 10 3.27688 10V10.1077C3.10294 10.1077 2.97644 10.1316 2.87761 10.2433C2.62065 10.5265 2.47043 11.0451 2.47043 11.5118C2.47043 11.6514 2.52182 11.7791 2.65623 11.7791C2.84993 11.7791 2.9962 11.5836 3.08317 11.3443C3.08317 11.2964 3.07922 11.2286 3.07922 11.1488C3.07922 10.8257 3.22549 10.363 3.49826 10.363C3.59313 10.363 3.64452 10.4707 3.64452 10.6223C3.64452 10.6981 3.62871 10.7898 3.60499 10.8816C3.56151 11.0411 3.41919 11.2924 3.39152 11.3403C3.38361 11.3921 3.37966 11.444 3.37966 11.4919C3.37966 11.6594 3.43896 11.7791 3.58918 11.7791C4.00822 11.7791 4.21378 10.6981 4.21378 10.4468C4.21378 10.367 4.20588 10.2992 4.18216 10.2393C4.14658 10.1476 4.05565 10.1077 3.88171 10.1077Z" fill="var(--mw-icon-glyph-content-gray, #616162)"/>
</svg>
