<svg width="16" height="16" viewBox="0 0 16 16" fill="none" xmlns="http://www.w3.org/2000/svg">
<path d="M13.5 0.5H1.5C0.947715 0.5 0.5 0.947716 0.5 1.5V13.5C0.5 14.0523 0.947716 14.5 1.5 14.5H13.5C14.0523 14.5 14.5 14.0523 14.5 13.5V1.5C14.5 0.947715 14.0523 0.5 13.5 0.5Z" fill="var(--mw-icon-background-default-white, #FFFFFF)" stroke="var(--mw-icon-border-default-gray, #616161)" stroke-linecap="round"/>
<mask id="path-2-inside-1_15266_141345" fill="white">
<path d="M8 7.5C8 7.77614 7.77614 8 7.5 8C7.22386 8 7 7.77614 7 7.5C7 7.22386 7.22386 7 7.5 7C7.77614 7 8 7.22386 8 7.5Z"/>
</mask>
<path d="M8 7.5C8 7.77614 7.77614 8 7.5 8C7.22386 8 7 7.77614 7 7.5C7 7.22386 7.22386 7 7.5 7C7.77614 7 8 7.22386 8 7.5Z" fill="var(--mw-icon-glyph-content-gray, #616162)" stroke="var(--mw-icon-glyph-content-gray, #616162)" stroke-width="2" mask="url(#path-2-inside-1_15266_141345)"/>
<path d="M11.5 7.5C11.5 9.70914 9.70914 11.5 7.5 11.5C5.29086 11.5 3.5 9.70914 3.5 7.5C3.5 5.29086 5.29086 3.5 7.5 3.5C9.70914 3.5 11.5 5.29086 11.5 7.5Z" stroke="var(--mw-icon-glyph-content-gray, #616162)"/>
<path d="M7.5 2V6M7.5 9V13M9 7.5H13M2 7.5H6" stroke="var(--mw-icon-glyph-content-gray, #616162)"/>
</svg>
