<svg width="16" height="16" viewBox="0 0 16 16" fill="none" xmlns="http://www.w3.org/2000/svg">
<path d="M13.5 0.5H1.5C0.947715 0.5 0.5 0.947716 0.5 1.5V13.5C0.5 14.0523 0.947716 14.5 1.5 14.5H13.5C14.0523 14.5 14.5 14.0523 14.5 13.5V1.5C14.5 0.947715 14.0523 0.5 13.5 0.5Z" fill="var(--mw-icon-background-default-white, #FFFFFF)" stroke="var(--mw-icon-border-default-gray, #616161)" stroke-linecap="round"/>
<path d="M11 2L13 4.99976L9 5L11 2Z" fill="#D95319"/>
<path d="M7 9L4 6V9H7Z" fill="#0072BD"/>
<path d="M8 6.99998L11.0198 10V7.00001L8 6.99998Z" fill="#0072BD"/>
<path d="M4.50002 8.5L8.00002 5M10 7.99997L7 11" stroke="#0072BD"/>
<path d="M4 10.0002L6 13L2 13.0002L4 10.0002Z" fill="#0072BD"/>
</svg>
