<svg width="16" height="16" viewBox="0 0 16 16" fill="none" xmlns="http://www.w3.org/2000/svg">
<path d="M13.5 0.5H1.5C0.947715 0.5 0.5 0.947716 0.5 1.5V13.5C0.5 14.0523 0.947716 14.5 1.5 14.5H13.5C14.0523 14.5 14.5 14.0523 14.5 13.5V1.5C14.5 0.947715 14.0523 0.5 13.5 0.5Z" fill="var(--mw-icon-background-default-white, #FFFFFF)" stroke="var(--mw-icon-border-default-gray, #616161)" stroke-linecap="round"/>
<path d="M7.00018 9V14H2.00018L7.00018 9Z" fill="var(--mw-icon-glyph-content-gray, #616162)"/>
<path d="M8.00018 9V14H13.0002L8.00018 9Z" fill="var(--mw-icon-glyph-content-gray, #616162)"/>
<path d="M6 5.5C6 4.39543 6.67157 3 7.5 3C8.32843 3 9 4.39543 9 5.5C9 6.60457 8.32843 7 7.5 7C6.67157 7 6 6.60457 6 5.5Z" fill="var(--mw-icon-glyph-content-gray, #616162)"/>
<path d="M7 4.5H8V3.5L7.5 1.5L7 3.5V4.5Z" fill="var(--mw-icon-glyph-content-gray, #616162)"/>
<path d="M8.5 4H13.5L12 5L8.5 5.5V4Z" fill="var(--mw-icon-glyph-content-gray, #616162)"/>
<path d="M6.5 4H1.5L3 5L6.5 5.5V4Z" fill="var(--mw-icon-glyph-content-gray, #616162)"/>
</svg>
