<svg width="16" height="16" viewBox="0 0 16 16" fill="none" xmlns="http://www.w3.org/2000/svg">
<path d="M0.5 12.5V2.5C0.5 1.39543 1.39543 0.5 2.5 0.5H12.5C13.6046 0.5 14.5 1.39543 14.5 2.5V12.5C14.5 13.6046 13.6046 14.5 12.5 14.5H2.5C1.39543 14.5 0.5 13.6046 0.5 12.5Z" fill="#BFBFBF"/>
<circle cx="7.5" cy="7.5" r="5.5" fill="#027880" stroke="#013A3E"/>
<circle cx="5.5" cy="4.5" r="0.5" fill="#74EBDA"/>
<circle cx="9.5" cy="10.5" r="1.5" fill="#74EBDA"/>
<path d="M6.5 8.5L4.5 10.5" stroke="var(--mw-icon-background-default-white, white)" stroke-linecap="round"/>
<path d="M10 10.5C10 10.7761 9.77614 11 9.5 11C9.22386 11 9 10.7761 9 10.5C9 10.2239 9.22386 10 9.5 10C9.77614 10 10 10.2239 10 10.5Z" fill="var(--mw-icon-background-default-white, white)"/>
<circle cx="12.5" cy="2.5" r="0.5" fill="var(--mw-icon-border-default-gray, #616161)"/>
<circle cx="2.5" cy="2.5" r="0.5" fill="var(--mw-icon-border-default-gray, #616161)"/>
<path d="M0.5 12.5V2.5C0.5 1.39543 1.39543 0.5 2.5 0.5H12.5C13.6046 0.5 14.5 1.39543 14.5 2.5V12.5C14.5 13.6046 13.6046 14.5 12.5 14.5H2.5C1.39543 14.5 0.5 13.6046 0.5 12.5Z" stroke="#02555C" stroke-linecap="round"/>

</svg>
