<svg width="16" height="16" viewBox="0 0 16 16" fill="none" xmlns="http://www.w3.org/2000/svg">
<path d="M13.5 0.5H1.5C0.947715 0.5 0.5 0.947716 0.5 1.5V13.5C0.5 14.0523 0.947716 14.5 1.5 14.5H13.5C14.0523 14.5 14.5 14.0523 14.5 13.5V1.5C14.5 0.947715 14.0523 0.5 13.5 0.5Z" fill="var(--mw-icon-background-default-white, #FFFFFF)" stroke="var(--mw-icon-border-default-gray, #616161)" stroke-linecap="round"/>
<path d="M10.5 6.5C11.6046 6.5 12.5 5.60457 12.5 4.5C12.5 3.39543 11.6046 2.5 10.5 2.5C9.39543 2.5 8.5 3.39543 8.5 4.5C8.5 5.60457 9.39543 6.5 10.5 6.5Z" fill="var(--mw-icon-glyph-content-gray, #616162)" stroke="var(--mw-icon-glyph-content-gray, #616162)"/>
<path d="M4 12.5C2.61929 12.5 1.5 11.2946 1.5 9.80769C1.5 8.32078 2.61929 7.11538 4 7.11538C4.32069 7.11538 4.62727 7.18041 4.90901 7.29889C5.4642 6.22583 6.5284 5.5 7.75 5.5C9.46643 5.5 10.8721 6.93297 10.9917 8.74861C11.8438 8.87541 12.5 9.66287 12.5 10.6154C12.5 11.6562 11.7165 12.5 10.75 12.5H4Z" fill="var(--mw-icon-glyph-content-gray, #616162)" stroke="var(--mw-icon-background-default-white, #FFFFFF)"/>
</svg>
