<svg width="16" height="16" viewBox="0 0 16 16" fill="none" xmlns="http://www.w3.org/2000/svg">
<path d="M13.5 0.5H1.5C0.947715 0.5 0.5 0.947716 0.5 1.5V13.5C0.5 14.0523 0.947716 14.5 1.5 14.5H13.5C14.0523 14.5 14.5 14.0523 14.5 13.5V1.5C14.5 0.947715 14.0523 0.5 13.5 0.5Z" fill="var(--mw-icon-background-default-white, #FFFFFF)"/>
<path d="M5 1H6V3H5V1Z" fill="#D95319"/>
<path d="M5 5H6V7H5V5Z" fill="#D95319"/>
<path d="M5 9H6V11H5V9Z" fill="#D95319"/>
<path d="M5 13H6V14H5V13Z" fill="#D95319"/>
<path d="M1 5H2V6H1V5Z" fill="#D95319"/>
<path d="M4 5H5V6H4V5Z" fill="#D95319"/>
<path d="M8 5H10V6H8V5Z" fill="#D95319"/>
<path d="M12 5H14V6H12V5Z" fill="#D95319"/>
<path d="M1 1L14 14" stroke="#0072BD"/>
<path d="M13.5 0.5H1.5C0.947715 0.5 0.5 0.947716 0.5 1.5V13.5C0.5 14.0523 0.947716 14.5 1.5 14.5H13.5C14.0523 14.5 14.5 14.0523 14.5 13.5V1.5C14.5 0.947715 14.0523 0.5 13.5 0.5Z" stroke="var(--mw-icon-border-default-gray, #616161)" stroke-linecap="round"/>
</svg>
