<svg width="16" height="16" viewBox="0 0 16 16" fill="none" xmlns="http://www.w3.org/2000/svg">
<path d="M0 4C0 3.44772 0.447715 3 1 3H14C14.5523 3 15 3.44772 15 4C15 4.55228 14.5523 5 14 5H1C0.447715 5 0 4.55228 0 4Z" fill="var(--mw-icon-glyph-disabled-gray, #888889)"/>
<path d="M11.5 12.5V14.5M2.5 13.5C2.5 12.9477 2.05228 12.5 1.5 12.5C0.947715 12.5 0.5 12.9477 0.5 13.5C0.5 14.0523 0.947715 14.5 1.5 14.5C2.05228 14.5 2.5 14.0523 2.5 13.5ZM15.5 13.5C15.5 12.9477 15.0523 12.5 14.5 12.5C13.9477 12.5 13.5 12.9477 13.5 13.5C13.5 14.0523 13.9477 14.5 14.5 14.5C15.0523 14.5 15.5 14.0523 15.5 13.5Z" stroke="var(--mw-icon-object-primary, #616160)" stroke-linecap="square"/>
<path d="M1.5 7.5V9.5M13.5 7.5V9.5M7.5 7.5V8.5" stroke="var(--mw-icon-object-primary, #616160)" stroke-linecap="square"/>
<path d="M2.5 1.75C2.5 1.61193 2.61193 1.5 2.75 1.5H4.25C4.38807 1.5 4.5 1.61193 4.5 1.75V5.44098C4.5 5.47979 4.49096 5.51807 4.47361 5.55279L3.72361 7.05279C3.63148 7.23705 3.36852 7.23705 3.27639 7.05279L2.52639 5.55279C2.50904 5.51807 2.5 5.47979 2.5 5.44098V1.75Z" fill="var(--mw-icon-background-default-white, #FFFFFF)"/>
<path d="M9.5 1.75C9.5 1.61193 9.61193 1.5 9.75 1.5H11.25C11.3881 1.5 11.5 1.61193 11.5 1.75V5.44098C11.5 5.47979 11.491 5.51807 11.4736 5.55279L10.7236 7.05279C10.6315 7.23705 10.3685 7.23705 10.2764 7.05279L9.52639 5.55279C9.50904 5.51807 9.5 5.47979 9.5 5.44098V1.75Z" fill="white"/>
<path d="M2.5 1.75C2.5 1.61193 2.61193 1.5 2.75 1.5H4.25C4.38807 1.5 4.5 1.61193 4.5 1.75V5.44098C4.5 5.47979 4.49096 5.51807 4.47361 5.55279L3.72361 7.05279C3.63148 7.23705 3.36852 7.23705 3.27639 7.05279L2.52639 5.55279C2.50904 5.51807 2.5 5.47979 2.5 5.44098V1.75Z" stroke="var(--mw-icon-border-default-gray, #616161)"/>
<path d="M9.5 1.75C9.5 1.61193 9.61193 1.5 9.75 1.5H11.25C11.3881 1.5 11.5 1.61193 11.5 1.75V5.44098C11.5 5.47979 11.491 5.51807 11.4736 5.55279L10.7236 7.05279C10.6315 7.23705 10.3685 7.23705 10.2764 7.05279L9.52639 5.55279C9.50904 5.51807 9.5 5.47979 9.5 5.44098V1.75Z" stroke="var(--mw-icon-border-default-gray, #616161)"/>
</svg>
