<svg width="16" height="16" viewBox="0 0 16 16" fill="none" xmlns="http://www.w3.org/2000/svg">
<path d="M0.5 11.5V1.5C0.5 0.947715 0.947715 0.5 1.5 0.5H11.5C12.0523 0.5 12.5 0.947715 12.5 1.5V11.5C12.5 12.0523 12.0523 12.5 11.5 12.5H1.5C0.947715 12.5 0.5 12.0523 0.5 11.5Z" fill="var(--mw-icon-background-default-white, #FFFFFF)"/>
<path d="M0.5 8.5859C1.88669 8.5859 3.5 2.5 3.5 2.5C3.5 2.5 4.5 8.5 6.5 8.5C8.5 8.5 9.5 4.5 9.5 4.5C9.5 4.5 10.5 8.5 12.5 8.5859" stroke="var(--mw-icon-glyph-content-light-blue, #278CDD)" stroke-miterlimit="1" stroke-linecap="round" stroke-linejoin="round"/>
<path d="M0.5 11.5V1.5C0.5 0.947715 0.947715 0.5 1.5 0.5H11.5C12.0523 0.5 12.5 0.947715 12.5 1.5V11.5C12.5 12.0523 12.0523 12.5 11.5 12.5H1.5C0.947715 12.5 0.5 12.0523 0.5 11.5Z" stroke="var(--mw-icon-border-default-gray, #616161)" stroke-linejoin="round"/>
<path d="M14.5 15.5L11.5 15.5L8.5 15.5H5.5V12.5H8.5V9.5H11.5V5.5H14.5V15.5Z" fill="var(--mw-icon-background-medium-yellow, #FFEF91)"/>
<path d="M11.5 15.5V5.5M8.5 15.5L8.5 12.5M8.5 12.5V9.5H11.5V5.5M8.5 12.5H5.5V15.5L14.5 15.5V5.5H11.5" stroke="#674C06" stroke-linecap="square" stroke-linejoin="round"/>
</svg>
