<svg width="16" height="16" viewBox="0 0 16 16" fill="none" xmlns="http://www.w3.org/2000/svg">
<rect x="0.5" y="0.5" width="12" height="12" rx="1" fill="var(--mw-icon-background-default-white, #FFFFFF)"/>
<path d="M0.5 6.5L0.888492 7.2555C2.56499 10.5158 4.98186 10.1904 6.5 6.5C8.01814 2.80961 10.435 2.48421 12.1115 5.7445L12.5 6.5" stroke="#0072BD"/>
<rect x="0.5" y="0.5" width="12" height="12" rx="1" stroke="var(--mw-icon-border-default-gray, #616161)"/>
<path d="M14.5 15.5L11.5 15.5L8.5 15.5H5.5V12.5H8.5V9.5H11.5V5.5H14.5V15.5Z" fill="var(--mw-icon-background-medium-yellow, #FFEF91)"/>
<path d="M11.5 15.5V5.5M8.5 15.5L8.5 12.5M8.5 12.5V9.5H11.5V5.5M8.5 12.5H5.5V15.5L14.5 15.5V5.5H11.5" stroke="#674C06" stroke-linecap="square" stroke-linejoin="round"/>
</svg>
