<svg width="16" height="16" viewBox="0 0 16 16" fill="none" xmlns="http://www.w3.org/2000/svg">
<rect x="0.5" y="0.5" width="12" height="12" rx="1" fill="var(--mw-icon-background-default-white, #FFFFFF)"/>
<path d="M6.5 7.5C6.5 7.76264 6.44827 8.02272 6.34776 8.26537C6.24725 8.50802 6.09993 8.7285 5.91421 8.91421C5.7285 9.09993 5.50802 9.24725 5.26537 9.34776C5.02272 9.44827 4.76264 9.5 4.5 9.5C4.23736 9.5 3.97728 9.44827 3.73463 9.34776C3.49198 9.24725 3.2715 9.09993 3.08579 8.91421C2.90007 8.7285 2.75275 8.50802 2.65224 8.26537C2.55173 8.02272 2.5 7.76264 2.5 7.5C2.5 6.97471 2.60346 6.45457 2.80448 5.96927C3.0055 5.48396 3.30014 5.04301 3.67157 4.67157C4.04301 4.30014 4.48396 4.0055 4.96927 3.80448C5.45457 3.60346 5.97471 3.5 6.5 3.5C7.02529 3.5 7.54543 3.60346 8.03073 3.80448C8.51604 4.0055 8.95699 4.30014 9.32843 4.67157C9.69986 5.04301 9.9945 5.48396 10.1955 5.96927C10.3965 6.45457 10.5 6.97471 10.5 7.5" stroke="#0072BD" stroke-linecap="square" stroke-linejoin="round"/>
<rect x="0.5" y="0.5" width="12" height="12" rx="1" stroke="var(--mw-icon-border-default-gray, #616161)"/>
<path d="M14.5 14.5L11.5 14.5L8.5 14.5H5.5V11.5H8.5V8.5H11.5V4.5H14.5V14.5Z" fill="var(--mw-icon-background-medium-yellow, #FFEF91)"/>
<path d="M11.5 14.5V4.5M8.5 14.5L8.5 11.5M8.5 11.5V8.5H11.5V4.5M8.5 11.5H5.5V14.5L14.5 14.5V4.5H11.5" stroke="#674C06" stroke-linecap="square" stroke-linejoin="round"/>
</svg>
