<svg width="16" height="16" viewBox="0 0 16 16" fill="none" xmlns="http://www.w3.org/2000/svg">
<rect width="12" height="12" rx="1" transform="matrix(1 0 0 -1 1.5 12.5)" fill="var(--mw-icon-background-default-white, #FFFFFF)" stroke="var(--mw-icon-borderColor-light-blue, #268CDD)"/>
<path d="M3 10.5C3 10.7761 3.22386 11 3.5 11H11.5C11.7761 11 12 10.7761 12 10.5V2.5C12 2.22386 11.7761 2 11.5 2H3.5C3.22386 2 3 2.22386 3 2.5V10.5Z" fill="var(--mw-icon-glyph-content-light-blue, #278CDD)"/>
<path d="M14.5 14.5L11.5 14.5L8.5 14.5H5.5V11.5H8.5V8.5H11.5V4.5H14.5V14.5Z" fill="var(--mw-icon-background-medium-yellow, #FFEF91)"/>
<path d="M11.5 14.5V4.5M8.5 14.5L8.5 11.5M8.5 11.5V8.5H11.5V4.5M8.5 11.5H5.5V14.5L14.5 14.5V4.5H11.5" stroke="#674C06" stroke-linecap="square" stroke-linejoin="round"/>
</svg>
