<svg width="16" height="16" viewBox="0 0 16 16" fill="none" xmlns="http://www.w3.org/2000/svg">
<path d="M3 3H15V15H3V3Z" fill="var(--mw-icon-background-default-medium-gray, #D9D9D9)"/>
<path d="M2.5 3.5C2.5 2.94772 2.94772 2.5 3.5 2.5H14.5C15.0523 2.5 15.5 2.94772 15.5 3.5V14.5C15.5 15.0523 15.0523 15.5 14.5 15.5H3.5C2.94772 15.5 2.5 15.0523 2.5 14.5V3.5Z" fill="var(--mw-icon-background-default-medium-gray, #D9D9D9)" stroke="var(--mw-icon-border-default-gray, #616161)" stroke-linejoin="round"/>
<path d="M1 1H13V13H1V1Z" fill="var(--mw-icon-background-default-white, #FFFFFF)"/>
<path d="M11.5 11.5L8.5 11.5L5.5 11.5H2.5V8.5H5.5V5.5H8.5V2.5H11.5V11.5Z" fill="var(--mw-icon-background-medium-yellow, #FFEF91)"/>
<path d="M8.5 11.5V2.5M5.5 11.5L5.5 8.5M5.5 8.5V5.5H8.5V2.5M5.5 8.5H2.5V11.5L11.5 11.5V2.5H8.5" stroke="#674C06" stroke-linecap="square" stroke-linejoin="round"/>
<path d="M0.5 1.5C0.5 0.947715 0.947715 0.5 1.5 0.5H12.5C13.0523 0.5 13.5 0.947715 13.5 1.5V12.5C13.5 13.0523 13.0523 13.5 12.5 13.5H1.5C0.947715 13.5 0.5 13.0523 0.5 12.5V1.5Z" stroke="var(--mw-icon-border-default-gray, #616161)" stroke-linejoin="round"/>
</svg>
