<svg width="16" height="16" viewBox="0 0 16 16" fill="none" xmlns="http://www.w3.org/2000/svg">
<rect x="0.5" y="0.5" width="12" height="12" rx="2" fill="var(--mw-icon-background-default-white, #FFFFFF)"/>
<rect x="0.5" y="0.5" width="12" height="12" rx="2" stroke="var(--mw-icon-border-default-gray, #616161)"/>
<path d="M5 8.63915V4.36085C5 4.20376 5.17279 4.10799 5.306 4.19125L8.72864 6.3304C8.85397 6.40873 8.85397 6.59127 8.72864 6.6696L5.306 8.80875C5.17279 8.89201 5 8.79624 5 8.63915Z" fill="var(--mw-icon-glyph-content-green, #008014)"/>
<path d="M2.53101 6C2.77705 4.02684 4.46025 2.5 6.50006 2.5C7.76325 2.5 8.88968 3.08554 9.62274 4" stroke="var(--mw-icon-glyph-content-dark-gray, #333333)"/>
<path d="M11 5.72251V3.3737C11 3.21396 10.822 3.11869 10.6891 3.20729L8.34025 4.77317C8.20177 4.86549 8.23005 5.07668 8.38794 5.12931L10.7368 5.91225C10.8663 5.95542 11 5.85903 11 5.72251Z" fill="var(--mw-icon-glyph-content-dark-gray, #333333)"/>
<path d="M10.5 7C10.254 8.97316 8.57076 10.5 6.53095 10.5C5.26775 10.5 4.14132 9.91446 3.40826 9" stroke="var(--mw-icon-glyph-content-dark-gray, #333333)"/>
<path d="M2.03101 7.27749V9.6263C2.03101 9.78604 2.20903 9.88131 2.34195 9.79271L4.69076 8.22683C4.82924 8.13451 4.80095 7.92332 4.64306 7.87069L2.29425 7.08775C2.16475 7.04458 2.03101 7.14097 2.03101 7.27749Z" fill="var(--mw-icon-glyph-content-dark-gray, #333333)"/>
<path d="M14.5 14.5L11.5 14.5L8.5 14.5H5.5V11.5H8.5V8.5H11.5V4.5H14.5V14.5Z" fill="var(--mw-icon-background-medium-yellow, #FFEF91)"/>
<path d="M11.5 14.5V4.5M8.5 14.5L8.5 11.5M8.5 11.5V8.5H11.5V4.5M8.5 11.5H5.5V14.5L14.5 14.5V4.5H11.5" stroke="#674C06" stroke-linecap="square" stroke-linejoin="round"/>
</svg>
