<svg width="16" height="16" viewBox="0 0 16 16" fill="none" xmlns="http://www.w3.org/2000/svg">
<rect x="0.5" y="0.5" width="12" height="12" rx="1" fill="var(--mw-icon-background-default-white, #FFFFFF)"/>
<path d="M1 6.5H12" stroke="var(--mw-icon-border-default-gray, #616161)"/>
<path d="M1 9.5H12M1 3.5H12" stroke="#0072BD"/>
<path d="M5.5 6.5H6.5M6.5 6.5H7.5M6.5 6.5V5.5M6.5 6.5V7.5M2.5 3.5H3.5M3.5 3.5H4.5M3.5 3.5V2.5M3.5 3.5V6.5M9.5 10H10.5M10.5 10H11.5M10.5 10V6.5M10.5 10V11" stroke="#D95319" stroke-linecap="square"/>
<rect x="0.5" y="0.5" width="12" height="12" rx="1" stroke="var(--mw-icon-border-default-gray, #616161)"/>
<path d="M14.5 14.5L11.5 14.5L8.5 14.5H5.5V11.5H8.5V8.5H11.5V4.5H14.5V14.5Z" fill="var(--mw-icon-background-medium-yellow, #FFEF91)"/>
<path d="M11.5 14.5V4.5M8.5 14.5L8.5 11.5M8.5 11.5V8.5H11.5V4.5M8.5 11.5H5.5V14.5L14.5 14.5V4.5H11.5" stroke="#674C06" stroke-linecap="square" stroke-linejoin="round"/>
</svg>
