<svg width="16" height="16" viewBox="0 0 16 16" fill="none" xmlns="http://www.w3.org/2000/svg">
<path d="M11.5 9.5L8.90679 14.6864C8.65748 15.185 8.14111 15.5 7.58363 15.5C6.80967 15.5 6.16113 14.8937 6.1214 14.1207C6.11739 14.0429 6.11966 13.9649 6.12816 13.8874L6.5 10.5H2.5C1.39543 10.5 0.5 9.60457 0.5 8.5C0.5 7.86624 1.3033 4.82258 1.89171 2.67816C2.24613 1.38646 3.42346 0.5 4.7629 0.5H11.5M11.5 9.5V0.5M11.5 9.5H15C15.2761 9.5 15.5 9.27614 15.5 9V1C15.5 0.723858 15.2761 0.5 15 0.5H11.5" stroke="var(--mw-icon-object-primary, #616160)" stroke-linejoin="round"/>
</svg>
