<svg width="16" height="16" viewBox="0 0 16 16" fill="none" xmlns="http://www.w3.org/2000/svg">
<path d="M13.5 0.5H1.5C0.947715 0.5 0.5 0.947716 0.5 1.5V13.5C0.5 14.0523 0.947716 14.5 1.5 14.5H13.5C14.0523 14.5 14.5 14.0523 14.5 13.5V1.5C14.5 0.947715 14.0523 0.5 13.5 0.5Z" fill="var(--mw-icon-background-default-white, #FFFFFF)" stroke="var(--mw-icon-border-default-gray, #616161)" stroke-linecap="round"/>
<path d="M15 7.5L1 7.5" stroke="var(--mw-icon-border-default-gray, #616161)"/>
<path d="M0.5 2.5L1.5 5.5L2.5 2.5L3.5 5.5L4.5 2.5L5.5 5.5V2.5C5.5 2.5 6.09194 4.5 7.5 4.5C8.90806 4.5 9.5 2.5 9.5 2.5V5.5L10.5 2.5L11.5 5.5L12.5 2.5L13.5 5.5L14.5 2.5" stroke="#0072BD" stroke-linecap="round" stroke-linejoin="round"/>
<path d="M0.5 9.5L1.5 12.5L2.5 9.5L3.5 12.5L4.5 9.5L5.5 12.5V9.5C5.5 9.5 6.09194 12.5 7.5 12.5C8.90806 12.5 9.5 9.5 9.5 9.5V12.5L10.5 9.5L11.5 12.5L12.5 9.5L13.5 12.5L14.5 9.5" stroke="#0072BD" stroke-linecap="round" stroke-linejoin="round"/>
<path d="M13.5 0.5H1.5C0.947715 0.5 0.5 0.947716 0.5 1.5V13.5C0.5 14.0523 0.947716 14.5 1.5 14.5H13.5C14.0523 14.5 14.5 14.0523 14.5 13.5V1.5C14.5 0.947715 14.0523 0.5 13.5 0.5Z" stroke="var(--mw-icon-border-default-gray, #616161)" stroke-linecap="round"/>
</svg>
