<svg width="16" height="16" viewBox="0 0 16 16" fill="none" xmlns="http://www.w3.org/2000/svg">
<path d="M0.5 3.5H14.5V13.5C14.5 14.0523 14.0523 14.5 13.5 14.5H1.5C0.947716 14.5 0.5 14.0523 0.5 13.5V3.5Z" fill="var(--mw-icon-background-default-white, #FFFFFF)"/>
<path fill-rule="evenodd" clip-rule="evenodd" d="M0 3H15V13.5C15 14.3284 14.3284 15 13.5 15H1.5C0.671573 15 0 14.3284 0 13.5V3ZM1 4V13.5C1 13.7761 1.22386 14 1.5 14H13.5C13.7761 14 14 13.7761 14 13.5V4H1Z" fill="var(--mw-icon-border-disabled-gray, #888888)"/>
<path fill-rule="evenodd" clip-rule="evenodd" d="M4.00003 4L4 15L3 15L3.00003 4L4.00003 4Z" fill="var(--mw-icon-border-disabled-gray, #888888)"/>
<path fill-rule="evenodd" clip-rule="evenodd" d="M1 6L4 6L4 7L1 7L1 6Z" fill="var(--mw-icon-border-default-gray, #616161)"/>
<path d="M0.5 1.5C0.5 0.947715 0.947715 0.5 1.5 0.5H13.5C14.0523 0.5 14.5 0.947715 14.5 1.5V3.5H0.5V1.5Z" fill="var(--mw-icon-background-default-medium-gray, #D9D9D9)"/>
<path fill-rule="evenodd" clip-rule="evenodd" d="M0 1.5C0 0.671573 0.671573 0 1.5 0H13.5C14.3284 0 15 0.671573 15 1.5V4H0V1.5ZM1.5 1C1.22386 1 1 1.22386 1 1.5V3H14V1.5C14 1.22386 13.7761 1 13.5 1H1.5Z" fill="var(--mw-icon-border-default-gray, #616161)"/>
<path d="M5 5H13V6H5V5Z" fill="var(--mw-icon-glyph-disabled-gray, #888889)"/>
<path d="M0.5 3.5H3.5V7.5H0.5V3.5Z" fill="var(--mw-icon-background-default-selection, #B4DEFF)"/>
<path fill-rule="evenodd" clip-rule="evenodd" d="M0 3H4V8H0V3ZM1 4V7H3V4H1Z" fill="var(--mw-icon-border-default-blue, #1656A7)"/>
<path d="M5 7H13V8H5V7Z" fill="var(--mw-icon-glyph-disabled-gray, #888889)"/>
<path d="M6 9H13V10H6V9Z" fill="var(--mw-icon-background-default-dark-gray, #A6A6A6)"/>
<path d="M5 9H10V10H5V9Z" fill="var(--mw-icon-glyph-content-light-blue, #278CDD)"/>
<path d="M5 11.5C5 11.2239 5.22386 11 5.5 11H6.5C6.77614 11 7 11.2239 7 11.5V12.5C7 12.7761 6.77614 13 6.5 13H5.5C5.22386 13 5 12.7761 5 12.5V11.5Z" fill="var(--mw-icon-glyph-disabled-gray, #888889)"/>
<path d="M8 11.5C8 11.2239 8.22386 11 8.5 11H9.5C9.77614 11 10 11.2239 10 11.5V12.5C10 12.7761 9.77614 13 9.5 13H8.5C8.22386 13 8 12.7761 8 12.5V11.5Z" fill="var(--mw-icon-glyph-disabled-gray, #888889)"/>
<path d="M11 11.5C11 11.2239 11.2239 11 11.5 11H12.5C12.7761 11 13 11.2239 13 11.5V12.5C13 12.7761 12.7761 13 12.5 13H11.5C11.2239 13 11 12.7761 11 12.5V11.5Z" fill="var(--mw-icon-glyph-disabled-gray, #888889)"/>
</svg>
