<svg width="16" height="16" viewBox="0 0 16 16" fill="none" xmlns="http://www.w3.org/2000/svg">
<path d="M11.5 0.5H1.5C0.947715 0.5 0.5 0.947715 0.5 1.5V11.5C0.5 12.0523 0.947715 12.5 1.5 12.5H11.5C12.0523 12.5 12.5 12.0523 12.5 11.5V1.5C12.5 0.947715 12.0523 0.5 11.5 0.5Z" fill="var(--mw-icon-background-default-white, #FFFFFF)" stroke="var(--mw-icon-border-default-gray, #616161)" stroke-linecap="round"/>
<path fill-rule="evenodd" clip-rule="evenodd" d="M0.651554 7.63531C1.02232 8.27438 1.38573 8.77922 1.73976 9.15669C2.31425 9.76923 2.81655 9.99832 3.25006 9.99832C3.68357 9.99832 4.18587 9.76923 4.76036 9.15669C5.33425 8.5448 5.93281 7.59821 6.54737 6.2877C7.18281 4.93266 7.83425 3.88008 8.51036 3.15919C9.18587 2.43895 9.93357 2.00165 10.7501 2.00165C11.1866 2.00165 11.6034 2.12663 12.0001 2.35301V3.58699C11.5328 3.16561 11.1168 3.00165 10.7501 3.00165C10.3166 3.00165 9.81425 3.23074 9.23976 3.84328C8.66587 4.45517 8.06732 5.40176 7.45276 6.71228C6.81732 8.06732 6.16587 9.1199 5.48976 9.84079C4.81425 10.561 4.06655 10.9983 3.25006 10.9983C2.43357 10.9983 1.68587 10.561 1.01036 9.84079C0.889996 9.71245 0.770409 9.57359 0.651554 9.42439V7.63531Z" fill="#1171BE"/>
<path fill-rule="evenodd" clip-rule="evenodd" d="M0.99999 9.77691C1.23454 9.64252 1.48434 9.44114 1.74972 9.15728C2.32173 8.54543 2.91838 7.59884 3.531 6.28825C4.16437 4.93328 4.81371 3.8807 5.4877 3.15977C6.16099 2.43959 6.90683 2.00165 7.72194 2.00165C8.53705 2.00165 9.28289 2.43959 9.95617 3.15977C10.6302 3.8807 11.2795 4.93328 11.9129 6.28825L11.9174 6.298L11.9216 6.30793L12.9616 8.80793C13.0677 9.06289 12.947 9.35556 12.692 9.46163C12.4371 9.5677 12.1444 9.447 12.0383 9.19204L11.0024 6.70203C10.3914 5.39647 9.79628 4.45303 9.22568 3.84269C8.65298 3.2301 8.15282 3.00165 7.72194 3.00165C7.29105 3.00165 6.7909 3.2301 6.21819 3.84269C5.64619 4.45454 5.04953 5.40113 4.43691 6.71172C3.80354 8.06669 3.1542 9.11927 2.48021 9.8402C2.02031 10.3321 1.52655 10.6924 0.99999 10.8713V9.77691Z" fill="#DD5400"/>
<path d="M11.5 0.5H1.5C0.947715 0.5 0.5 0.947715 0.5 1.5V11.5C0.5 12.0523 0.947715 12.5 1.5 12.5H11.5C12.0523 12.5 12.5 12.0523 12.5 11.5V1.5C12.5 0.947715 12.0523 0.5 11.5 0.5Z" stroke="var(--mw-icon-border-default-gray, #616161)" stroke-linecap="round"/>
<circle cx="10.5" cy="10.5" r="5" fill="white" stroke="var(--mw-icon-border-default-gray, #616161)"/>
<circle cx="10.5" cy="10.5" r="2.5" fill="#B7312C"/>
</svg>
