<svg width="16" height="16" viewBox="0 0 16 16" fill="none" xmlns="http://www.w3.org/2000/svg">
<rect x="0.5" y="0.5" width="14" height="14" rx="1" fill="var(--mw-icon-background-default-white, #FFFFFF)"/>
<path d="M5.5 5C5.5 5.82843 4.82843 6.5 4 6.5C3.17157 6.5 2.5 5.82843 2.5 5C2.5 4.17157 3.17157 3.5 4 3.5C4.82843 3.5 5.5 4.17157 5.5 5ZM5.5 5C5.5 5 8.67647 5.4 11.3235 5.1C11.8341 5.04214 12.5 4.5 12.5 4.5M3.5 12.5C3.5 12.5 3.97059 12 4.26471 10.2C4.51663 8.65819 4 7.5 4.5 6.5" stroke="#1171BE" stroke-linecap="round"/>
<rect x="0.5" y="0.5" width="14" height="14" rx="1" stroke="var(--mw-icon-border-default-gray, #616161)"/>
</svg>
