<svg width="16" height="16" viewBox="0 0 16 16" fill="none" xmlns="http://www.w3.org/2000/svg">
<path d="M14.5 2.5H1.5V13.5H14.5V2.5Z" stroke="var(--mw-icon-object-primary, #616160)"/>
<path d="M3 2.5C3 3.32843 2.32843 4 1.5 4C0.671573 4 0 3.32843 0 2.5C0 1.67157 0.671573 1 1.5 1C2.32843 1 3 1.67157 3 2.5Z" fill="var(--mw-icon-object-primary, #616160)"/>
<path d="M16 2.5C16 3.32843 15.3284 4 14.5 4C13.6716 4 13 3.32843 13 2.5C13 1.67157 13.6716 1 14.5 1C15.3284 1 16 1.67157 16 2.5Z" fill="var(--mw-icon-object-primary, #616160)"/>
<path d="M3 13.5C3 14.3284 2.32843 15 1.5 15C0.671573 15 0 14.3284 0 13.5C0 12.6716 0.671573 12 1.5 12C2.32843 12 3 12.6716 3 13.5Z" fill="var(--mw-icon-object-primary, #616160)"/>
<path d="M16 13.5C16 14.3284 15.3284 15 14.5 15C13.6716 15 13 14.3284 13 13.5C13 12.6716 13.6716 12 14.5 12C15.3284 12 16 12.6716 16 13.5Z" fill="var(--mw-icon-object-primary, #616160)"/>
</svg>
