<svg width="16" height="16" viewBox="0 0 16 16" fill="none" xmlns="http://www.w3.org/2000/svg">
<path d="M6 1H1.5C1.22386 1 1 1.22386 1 1.5L1 13.5C1 13.7761 1.22386 14 1.5 14H6V1Z" fill="var(--mw-icon-background-default-white, #FFFFFF)"/>
<path d="M9.00044 1.02636L13.5983 1.00212C13.8201 1.00095 14.0004 1.18038 14.0004 1.40211V13.5C14.0004 13.7761 13.7766 14 13.5004 14H9.00044V1.02636Z" fill="white"/>
<path d="M9 11H14V12H9V11Z" fill="#EDB120"/>
<path d="M1 12L6 11V12L1 13V12Z" fill="#EDB120"/>
<path d="M9 7H14V8H9V7Z" fill="#D95319"/>
<path d="M1 6L6 7V8L1 7V6Z" fill="#D95319"/>
<path d="M9 3H14V4H9V3Z" fill="#0072BD"/>
<path d="M1 1L6 3V4L1 2V1Z" fill="#0072BD"/>
<path d="M8.5 0.5H13.5C14.0523 0.5 14.5 0.947716 14.5 1.5V13.5C14.5 14.0523 14.0523 14.5 13.5 14.5H8.5V0.5Z" stroke="var(--mw-icon-border-default-gray, #616161)" stroke-linecap="round" stroke-linejoin="round"/>
<path d="M6.5 0.5H1.5C0.947715 0.5 0.5 0.947716 0.5 1.5V13.5C0.5 14.0523 0.947715 14.5 1.5 14.5H6.5V0.5Z" stroke="var(--mw-icon-border-default-gray, #616161)" stroke-linecap="round" stroke-linejoin="round"/>
</svg>
