<svg width="16" height="16" viewBox="0 0 16 16" fill="none" xmlns="http://www.w3.org/2000/svg">
<path d="M1 14V1H14V14H1Z" fill="#00A9E0"/>
<path d="M6.5 12.5V10.5C6.5 9.94772 6.94772 9.5 7.5 9.5C8.05228 9.5 8.5 9.94772 8.5 10.5V12.5C8.5 13.0523 8.05228 13.5 7.5 13.5C6.94772 13.5 6.5 13.0523 6.5 12.5Z" stroke="var(--mw-icon-background-default-white, #FFFFFF)" stroke-linecap="round" stroke-linejoin="round"/>
<path d="M10.5 13.5V9.5L12 12.5L13.5 9.5V13.5" stroke="white" stroke-linecap="round" stroke-linejoin="round"/>
<path d="M2.5 13.5V11.5M2.5 11.5V9.5H3.5C4.05228 9.5 4.5 9.94772 4.5 10.5V10.5C4.5 11.0523 4.05228 11.5 3.5 11.5V11.5M2.5 11.5H3.5M3.5 11.5L4.5 13.5" stroke="white" stroke-linecap="round" stroke-linejoin="round"/>
<path d="M0.5 6.5C1.5 5 2.25553 2.5 4.5 2.5C7.5 2.5 9 8.5 12.5 8.5C13.8158 8.5 14.5 6.5 14.5 6.5" stroke="#232B33"/>
<path d="M0.5 12.5V2.5C0.5 1.39543 1.39543 0.5 2.5 0.5H12.5C13.6046 0.5 14.5 1.39543 14.5 2.5V12.5C14.5 13.6046 13.6046 14.5 12.5 14.5H2.5C1.39543 14.5 0.5 13.6046 0.5 12.5Z" stroke="#245474" stroke-linecap="round"/>
<rect x="9.5" y="2.5" width="3" height="3" fill="var(--mw-icon-background-default-white, #FFFFFF)" stroke="#273D4F" stroke-linejoin="round"/>
<rect x="3.5" y="4.5" width="3" height="3" fill="white" stroke="#273D4F" stroke-linejoin="round"/>
</svg>
