<svg width="16" height="16" viewBox="0 0 16 16" fill="none" xmlns="http://www.w3.org/2000/svg">
<path d="M2.5 1.5C2.5 0.947715 2.94772 0.5 3.5 0.5H14.5C15.0523 0.5 15.5 0.947715 15.5 1.5V12.5C15.5 13.0523 15.0523 13.5 14.5 13.5H3.5C2.94772 13.5 2.5 13.0523 2.5 12.5V1.5Z" fill="var(--mw-icon-background-default-white, #FFFFFF)" stroke="var(--mw-icon-border-default-gray, #616161)"/>
<path d="M8.5 5.5H11.5V8" stroke="var(--mw-icon-glyph-content-gray, #616162)" stroke-linecap="square"/>
<path d="M9.5 8C9.5 7.72386 9.72386 7.5 10 7.5H13C13.2761 7.5 13.5 7.72386 13.5 8V11C13.5 11.2761 13.2761 11.5 13 11.5H10C9.72386 11.5 9.5 11.2761 9.5 11V8Z" fill="var(--mw-icon-background-red, #FF9D9A)" stroke="var(--mw-icon-glyph-content-red, #902623)"/>
<path d="M4.5 8.5V2.5L9.5 5.5L4.5 8.5Z" fill="var(--mw-icon-background-default-selection, #B4DEFF)" stroke="var(--mw-icon-glyph-content-blue, #1656A8)" stroke-linejoin="round"/>
<path d="M0.5 6.5H9.5L9.5 15.5L0.5 15.5V6.5Z" fill="var(--mw-icon-background-light-yellow, #FFF5BC)" stroke="var(--mw-icon-border-default-blue, #1656A7)" stroke-linejoin="round"/>
<path d="M2.5 10.5H4.5L4.5 8.5M2.5 8.5L4 10M7.5 11.5H5.5L5.5 13.5M7.5 13.5L6 12" stroke="var(--mw-icon-glyph-content-dark-gray, #333333)" stroke-linecap="square" stroke-linejoin="round"/>
</svg>
