<svg width="16" height="16" viewBox="0 0 16 16" fill="none" xmlns="http://www.w3.org/2000/svg">
<path d="M4.5 1.5C4.5 0.947715 4.94772 0.5 5.5 0.5H14.5C15.0523 0.5 15.5 0.947715 15.5 1.5V10.5C15.5 11.0523 15.0523 11.5 14.5 11.5H5.5C4.94771 11.5 4.5 11.0523 4.5 10.5V1.5Z" fill="var(--mw-icon-background-default-white, #FFFFFF)" stroke="var(--mw-icon-border-default-gray, #616161)"/>
<path d="M8.50504 4.42131H7.67967L7.53399 5.15981H8.33097L7.61133 8.96839C7.5125 9.48293 7.39783 9.84779 7.27329 10.079C7.17045 10.27 7.07717 10.3427 6.99823 10.3622C7.01956 10.3135 7.04475 10.2412 7.04475 10.1465C7.04475 9.99179 6.99423 9.84583 6.89737 9.73843C6.80029 9.63078 6.66761 9.57385 6.52238 9.57385C6.21814 9.57385 6 9.87218 6 10.1949C6 10.7034 6.43435 11 6.88048 11C7.3573 11 7.7541 10.7106 8.06963 10.2113C8.38197 9.71711 8.62716 9.00029 8.81303 8.09248L9.40809 5.15981H10.3263L10.3419 5.2522L10.6968 5.1429C10.8595 5.09546 10.9443 5.08232 10.9884 5.08232C11.0362 5.08232 11.0531 5.08726 11.0586 5.08961L11.0602 5.09053C11.0602 5.09053 11.064 5.09403 11.0698 5.10318C11.0828 5.12395 11.1017 5.16506 11.1258 5.24627C11.1493 5.32584 11.1746 5.43268 11.2048 5.576L11.4299 6.68125L10.7632 7.72702C10.6752 7.86635 10.5957 7.97313 10.5313 8.04256C10.4993 8.077 10.4752 8.09775 10.4592 8.10875C10.4525 8.10713 10.4435 8.10451 10.4321 8.1003C10.4061 8.09071 10.3751 8.0752 10.343 8.05386L10.3353 8.04922C10.2202 7.9805 10.0962 7.91768 9.96646 7.91768C9.675 7.91768 9.47902 8.18204 9.47902 8.48063C9.47902 8.66386 9.54153 8.82857 9.66479 8.94346C9.78379 9.05437 9.94058 9.10169 10.1062 9.10169C10.266 9.10169 10.4175 9.07447 10.5834 8.95124C10.7375 8.83688 10.8938 8.64669 11.0883 8.35741L11.616 7.56613L11.7729 8.27982C11.8266 8.5278 11.894 8.73556 12.0065 8.88063C12.1316 9.04182 12.2921 9.10169 12.4732 9.10169C12.6926 9.10169 12.8771 9.01881 13.0694 8.82C13.2504 8.63283 13.4451 8.33596 13.6982 7.90056L13.8072 7.71295L13.3634 7.41763L13.2599 7.56109C13.213 7.62607 13.1786 7.67806 13.1403 7.73622C13.1199 7.76702 13.0984 7.79955 13.0733 7.83666C12.9732 7.9814 12.9097 8.06203 12.863 8.10668C12.8411 8.1276 12.8282 8.13539 12.8223 8.13824L12.8194 8.13949C12.8178 8.13749 12.8158 8.13478 12.8135 8.13122C12.7929 8.09962 12.7653 8.03287 12.7367 7.90603L12.4574 6.60935L12.4569 6.60712C12.4195 6.44115 12.4028 6.33585 12.3963 6.27527C12.5741 5.93481 12.7326 5.67208 12.8626 5.49462C12.9314 5.40057 12.9879 5.33652 13.031 5.29791C13.0522 5.27892 13.0655 5.27032 13.0716 5.26672C13.119 5.26951 13.1544 5.28773 13.2101 5.32219L13.2245 5.33118L13.2245 5.33118C13.2835 5.36836 13.383 5.43099 13.5126 5.43099C13.6488 5.43099 13.7738 5.37324 13.8643 5.26663C13.9542 5.16076 14 5.01867 14 4.86804C14 4.7019 13.9407 4.55321 13.8352 4.44839C13.7316 4.34542 13.5949 4.2954 13.4514 4.2954C13.1965 4.2954 12.9753 4.41606 12.7468 4.65731C12.5888 4.82408 12.4202 5.05598 12.2262 5.36196L12.2141 5.29833C12.1532 4.97054 12.0914 4.72826 12.0033 4.56698C11.9565 4.48131 11.8974 4.40891 11.8196 4.36008C11.7415 4.31109 11.6599 4.2954 11.5823 4.2954C11.3467 4.2954 11.0318 4.37461 10.4961 4.58884L10.4506 4.6072L10.482 4.42131H9.54866C9.66292 3.79622 9.78863 3.35176 9.92919 3.05964C10.0681 2.77094 10.2025 2.66593 10.3323 2.64553C10.3129 2.69956 10.2972 2.76766 10.2972 2.85351C10.2972 3.21443 10.5577 3.44552 10.8109 3.44552C11.1229 3.44552 11.3682 3.13935 11.3682 2.81477C11.3682 2.55785 11.2471 2.34726 11.0724 2.20866C10.9 2.07185 10.6718 2 10.4266 2C9.80947 2 9.40062 2.38746 9.11835 2.83599C8.8324 3.2877 8.6771 3.80774 8.50504 4.42131Z" fill="var(--mw-icon-glyph-content-gray, #616162)"/>
<path d="M0.5 7.5V11.5H2.5V14.5L8.5 9.5L2.5 4.5V7.5H0.5Z" fill="var(--mw-icon-background-default-action, #CBFFBE)" stroke="var(--mw-icon-border-default-green, #008013)"/>
</svg>
