<svg width="16" height="16" viewBox="0 0 16 16" fill="none" xmlns="http://www.w3.org/2000/svg">
<path d="M11.5 3.5V0.5H0.5V11.5H3.5" stroke="var(--mw-icon-object-primary, #616160)" stroke-linejoin="round"/>
<path d="M1 4L4 1L1 1V4Z" fill="var(--mw-icon-object-primary, #616160)"/>
<path d="M8 1L11 4V1L8 1Z" fill="var(--mw-icon-object-primary, #616160)"/>
<path d="M4 11L1 8V11H4Z" fill="var(--mw-icon-object-primary, #616160)"/>
<path d="M3.5 3.5H14.5V14.5H3.5V3.5Z" stroke="var(--mw-icon-object-primary, #616160)" stroke-linejoin="round"/>
<path d="M4 7L7 4L4 4V7Z" fill="var(--mw-icon-object-primary, #616160)"/>
<path d="M14 11L11 14H14V11Z" fill="var(--mw-icon-object-primary, #616160)"/>
<path d="M11 4L14 7V4L11 4Z" fill="var(--mw-icon-object-primary, #616160)"/>
<path d="M7 14L4 11V14H7Z" fill="var(--mw-icon-object-primary, #616160)"/>
</svg>
