<svg width="16" height="16" viewBox="0 0 16 16" fill="none" xmlns="http://www.w3.org/2000/svg">
<path d="M4.5 1.5L1.5 1.5V4.50001M6.5 1.50001H8.5M1.5 6.50006V8.50006M10.5 1.5L13.5 1.5V4.50006M1.5 10.5V13.5L4.5 13.5M8.5 13.5H6.5M10.5 13.5H13.5V10.5M13.5 6.50002V8.50002" stroke="var(--mw-icon-object-primary, #616160)" stroke-linecap="round"/>
<path d="M2 0.5H1C0.723858 0.5 0.5 0.723858 0.5 1V2C0.5 2.27614 0.723858 2.5 1 2.5H2C2.27614 2.5 2.5 2.27614 2.5 2V1C2.5 0.723858 2.27614 0.5 2 0.5Z" fill="var(--mw-icon-object-secondary, #FFFFFE)"/>
<path d="M14 0.5H13C12.7239 0.5 12.5 0.723858 12.5 1V2C12.5 2.27614 12.7239 2.5 13 2.5H14C14.2761 2.5 14.5 2.27614 14.5 2V1C14.5 0.723858 14.2761 0.5 14 0.5Z" fill="var(--mw-icon-object-secondary, #FFFFFE)"/>
<path d="M14 12.5H13C12.7239 12.5 12.5 12.7239 12.5 13V14C12.5 14.2761 12.7239 14.5 13 14.5H14C14.2761 14.5 14.5 14.2761 14.5 14V13C14.5 12.7239 14.2761 12.5 14 12.5Z" fill="var(--mw-icon-object-secondary, #FFFFFE)"/>
<path d="M2 12.5H1C0.723858 12.5 0.5 12.7239 0.5 13V14C0.5 14.2761 0.723858 14.5 1 14.5H2C2.27614 14.5 2.5 14.2761 2.5 14V13C2.5 12.7239 2.27614 12.5 2 12.5Z" fill="var(--mw-icon-object-secondary, #FFFFFE)"/>
<path d="M2 0.5H1C0.723858 0.5 0.5 0.723858 0.5 1V2C0.5 2.27614 0.723858 2.5 1 2.5H2C2.27614 2.5 2.5 2.27614 2.5 2V1C2.5 0.723858 2.27614 0.5 2 0.5Z" stroke="var(--mw-icon-object-primary, #616160)"/>
<path d="M14 0.5H13C12.7239 0.5 12.5 0.723858 12.5 1V2C12.5 2.27614 12.7239 2.5 13 2.5H14C14.2761 2.5 14.5 2.27614 14.5 2V1C14.5 0.723858 14.2761 0.5 14 0.5Z" stroke="var(--mw-icon-object-primary, #616160)"/>
<path d="M14 12.5H13C12.7239 12.5 12.5 12.7239 12.5 13V14C12.5 14.2761 12.7239 14.5 13 14.5H14C14.2761 14.5 14.5 14.2761 14.5 14V13C14.5 12.7239 14.2761 12.5 14 12.5Z" stroke="var(--mw-icon-object-primary, #616160)"/>
<path d="M2 12.5H1C0.723858 12.5 0.5 12.7239 0.5 13V14C0.5 14.2761 0.723858 14.5 1 14.5H2C2.27614 14.5 2.5 14.2761 2.5 14V13C2.5 12.7239 2.27614 12.5 2 12.5Z" stroke="var(--mw-icon-object-primary, #616160)"/>
<path d="M3.5 5.5V9.5L7.5 11.5V7.5L3.5 5.5Z" fill="var(--mw-icon-background-default-selection, #B4DEFF)"/>
<path d="M7.5 7.5V11.5L11.5 9.5V5.5L7.5 7.5Z" fill="var(--mw-icon-background-medium-blue, #83CAFF)"/>
<path d="M3.5 5.5L7.5 7.5L11.5 5.5L7.5 3.5L3.5 5.5Z" fill="#F5FAFF"/>
<path d="M3.5 5.5V9.5L7.5 11.5M3.5 5.5L7.5 7.5M3.5 5.5L7.5 3.5L11.5 5.5M7.5 7.5V11.5M7.5 7.5L11.5 5.5M7.5 11.5L11.5 9.5V5.5" stroke="var(--mw-icon-border-default-blue, #1656A7)" stroke-linecap="round" stroke-linejoin="round"/>
</svg>
