<svg width="16" height="16" viewBox="0 0 16 16" fill="none" xmlns="http://www.w3.org/2000/svg">
<path d="M13.5 0.5H2.5C1.39543 0.5 0.5 1.39543 0.5 2.5V13.5C0.5 14.6046 1.39543 15.5 2.5 15.5H13.5C14.6046 15.5 15.5 14.6046 15.5 13.5V2.5C15.5 1.39543 14.6046 0.5 13.5 0.5Z" fill="var(--mw-icon-background-default-white, #FFFFFF)" stroke="var(--mw-icon-border-default-gray, #616161)" stroke-linejoin="round" stroke-dasharray="2 2"/>
<path d="M10.5263 6.66667C9.773 6.60556 9.1007 6.87777 8.94737 7.5C8.94737 7.68889 10.0154 7.77778 10.8421 7.77778C11.6687 7.77778 12 7.49444 12 7.37223C12 7.24444 11.7263 6.73333 10.5263 6.66667ZM5.47368 6.66667C4.27368 6.73333 3.89474 7.18889 3.89474 7.37223C3.89474 7.5 4.40456 7.77778 5.15789 7.77778C5.91123 7.77778 7.05263 7.68889 7.05263 7.5C6.8993 6.87777 6.14702 6.60556 5.47368 6.66667ZM11.3 10C10.0266 10 9.2 9.16667 8 9.16667C6.8 9.16667 5.9 10 4.7 10C3.12666 10 2 8.81111 2 6.68889C2 5.37777 2.45333 5 4.47334 5C6.49333 5 7.02667 5.83333 8 5.83333C8.97334 5.83333 9.57334 5 11.5266 5C13.48 5 14 5.43889 14 6.68889C14 8.81111 12.8734 10 11.3 10Z" fill="var(--mw-icon-glyph-content-dark-gray, #333333)"/>
</svg>
