<svg width="16" height="16" viewBox="0 0 16 16" fill="none" xmlns="http://www.w3.org/2000/svg">
<rect x="0.5" y="0.5" width="14" height="14" rx="1" fill="var(--mw-icon-background-default-white, #FFFFFF)"/>
<path d="M1 5.5C1 5.5 2.5 5.5 4 5.5C5.5 5.50001 6.5 11.5 7.5 11.5C8.5 11.5 9.5 5.50001 11 5.5C12.5 5.5 14 5.5 14 5.5" stroke="var(--mw-icon-glyph-content-light-blue, #278CDD)" stroke-linecap="round" stroke-linejoin="round"/>
<path d="M7 5C7 4.44772 7.44772 4 8 4C8.55228 4 9 4.44772 9 5C9 5.55228 8.55228 6 8 6C7.44772 6 7 5.55228 7 5Z" fill="var(--mw-icon-glyph-content-dark-gray, #333333)"/>
<path d="M11 9C11 8.44772 11.4477 8 12 8C12.5523 8 13 8.44772 13 9C13 9.55228 12.5523 10 12 10C11.4477 10 11 9.55228 11 9Z" fill="var(--mw-icon-glyph-content-dark-gray, #333333)"/>
<path d="M6 12C6 11.4477 6.44772 11 7 11C7.55228 11 8 11.4477 8 12C8 12.5523 7.55228 13 7 13C6.44772 13 6 12.5523 6 12Z" fill="var(--mw-icon-glyph-content-dark-gray, #333333)"/>
<path d="M2 9C2 8.44772 2.44772 8 3 8C3.55228 8 4 8.44772 4 9C4 9.55228 3.55228 10 3 10C2.44772 10 2 9.55228 2 9Z" fill="var(--mw-icon-glyph-content-dark-gray, #333333)"/>
<rect x="0.5" y="0.5" width="14" height="14" rx="1" stroke="var(--mw-icon-border-default-gray, #616161)"/>
</svg>
