<svg width="16" height="16" viewBox="0 0 16 16" fill="none" xmlns="http://www.w3.org/2000/svg">
<rect x="0.5" y="0.5" width="14" height="14" rx="1" fill="var(--mw-icon-background-default-white, #FFFFFF)"/>
<path d="M1 12.5C7.5 12.5 6 4.5 7.5 4.5C9 4.5 7.5 12.5 14 12.5" stroke="var(--mw-icon-glyph-content-light-blue, #278CDD)" stroke-linecap="round" stroke-linejoin="round"/>
<path d="M6.5 3C6.5 2.44772 6.94772 2 7.5 2C8.05228 2 8.5 2.44772 8.5 3C8.5 3.55228 8.05228 4 7.5 4C6.94772 4 6.5 3.55228 6.5 3Z" fill="var(--mw-icon-glyph-content-dark-gray, #333333)"/>
<path d="M4 6C4 5.44772 4.44772 5 5 5C5.55228 5 6 5.44772 6 6C6 6.55228 5.55228 7 5 7C4.44772 7 4 6.55228 4 6Z" fill="var(--mw-icon-glyph-content-dark-gray, #333333)"/>
<path d="M9 7C9 6.44772 9.44772 6 10 6C10.5523 6 11 6.44772 11 7C11 7.55228 10.5523 8 10 8C9.44772 8 9 7.55228 9 7Z" fill="var(--mw-icon-glyph-content-dark-gray, #333333)"/>
<path d="M11 10C11 9.44772 11.4477 9 12 9C12.5523 9 13 9.44772 13 10C13 10.5523 12.5523 11 12 11C11.4477 11 11 10.5523 11 10Z" fill="var(--mw-icon-glyph-content-dark-gray, #333333)"/>
<path d="M2 10C2 9.44772 2.44772 9 3 9C3.55228 9 4 9.44772 4 10C4 10.5523 3.55228 11 3 11C2.44772 11 2 10.5523 2 10Z" fill="var(--mw-icon-glyph-content-dark-gray, #333333)"/>
<rect x="0.5" y="0.5" width="14" height="14" rx="1" stroke="var(--mw-icon-border-default-gray, #616161)"/>
</svg>
