<svg width="16" height="16" viewBox="0 0 16 16" fill="none" xmlns="http://www.w3.org/2000/svg">
<rect x="0.5" y="0.5" width="14" height="14" rx="1" fill="var(--mw-icon-background-default-white, #FFFFFF)"/>
<path d="M1 14C1 14 2.05139 12.1729 3.04545 10.6818C3.68182 9.72727 5.22727 8.5 6.5 8.5C8.40909 8.5 8.09091 8.5 10 8.5C11.2727 8.5 12.5909 6.86364 13.2273 5.27273C13.9437 3.4817 14.5 1.5 14.5 1.5" stroke="var(--mw-icon-glyph-content-light-blue, #278CDD)" stroke-linecap="round" stroke-linejoin="round"/>
<path d="M4 7C4 6.44772 4.44772 6 5 6C5.55228 6 6 6.44772 6 7C6 7.55228 5.55228 8 5 8C4.44772 8 4 7.55228 4 7Z" fill="var(--mw-icon-glyph-content-dark-gray, #333333)"/>
<path d="M10 11C10 10.4477 10.4477 10 11 10C11.5523 10 12 10.4477 12 11C12 11.5523 11.5523 12 11 12C10.4477 12 10 11.5523 10 11Z" fill="var(--mw-icon-glyph-content-dark-gray, #333333)"/>
<path d="M6 11C6 10.4477 6.44772 10 7 10C7.55228 10 8 10.4477 8 11C8 11.5523 7.55228 12 7 12C6.44772 12 6 11.5523 6 11Z" fill="var(--mw-icon-glyph-content-dark-gray, #333333)"/>
<path d="M10 3C10 2.44772 10.4477 2 11 2C11.5523 2 12 2.44772 12 3C12 3.55228 11.5523 4 11 4C10.4477 4 10 3.55228 10 3Z" fill="var(--mw-icon-glyph-content-dark-gray, #333333)"/>
<path d="M8 6C8 5.44772 8.44772 5 9 5C9.55228 5 10 5.44772 10 6C10 6.55228 9.55228 7 9 7C8.44772 7 8 6.55228 8 6Z" fill="var(--mw-icon-glyph-content-dark-gray, #333333)"/>
<rect x="0.5" y="0.5" width="14" height="14" rx="1" stroke="var(--mw-icon-border-default-gray, #616161)"/>
</svg>
