<svg width="16" height="16" viewBox="0 0 16 16" fill="none" xmlns="http://www.w3.org/2000/svg">
<path d="M2 11.2903C2 11.0896 2.06717 10.9211 2.2015 10.7849C2.33584 10.6452 2.5179 10.5753 2.74768 10.5753C2.981 10.5753 3.16306 10.6452 3.29386 10.7849C3.42819 10.9211 3.49536 11.0896 3.49536 11.2903C3.49536 11.491 3.42819 11.6595 3.29386 11.7957C3.16306 11.9319 2.981 12 2.74768 12C2.5179 12 2.33584 11.9319 2.2015 11.7957C2.06717 11.6595 2 11.491 2 11.2903Z" fill="var(--mw-icon-object-primary, #616160)"/>
<path d="M4.99072 8.17742L6.10429 6.69892L4.46045 6.21505L4.74149 5.33333L6.37472 5.96774L6.30049 4.10215H7.22316L7.13831 6.00538L8.74503 5.37097L9.02607 6.26882L7.35042 6.75806L8.43747 8.2043L7.68979 8.75269L6.70879 7.19355L5.7437 8.70968L4.99072 8.17742Z" fill="var(--mw-icon-object-primary, #616160)"/>
<path d="M12.1759 9.62903H10.9934C10.9969 9.2957 11.0252 9.01613 11.0782 8.79032C11.1312 8.56093 11.2196 8.35305 11.3434 8.16667C11.4706 7.98029 11.6385 7.78315 11.8471 7.57527C12.0097 7.41756 12.1564 7.26882 12.2872 7.12903C12.418 6.98566 12.5223 6.83513 12.6001 6.67742C12.6779 6.51613 12.7167 6.33154 12.7167 6.12366C12.7167 5.89785 12.6796 5.70609 12.6054 5.54839C12.5312 5.39068 12.4216 5.27061 12.2766 5.18817C12.1352 5.10573 11.9585 5.06452 11.7464 5.06452C11.5696 5.06452 11.4034 5.10036 11.2479 5.17204C11.0924 5.24014 10.9669 5.34767 10.8714 5.49462C10.776 5.63799 10.7247 5.82796 10.7176 6.06452H9.43968C9.44675 5.6129 9.55281 5.23297 9.75784 4.92473C9.96288 4.61649 10.2386 4.3853 10.5851 4.23118C10.9315 4.07706 11.3186 4 11.7464 4C12.2201 4 12.6248 4.08244 12.9607 4.24731C13.2965 4.4086 13.5528 4.64516 13.7296 4.95699C13.9099 5.26523 14 5.63799 14 6.07527C14 6.39068 13.9381 6.67742 13.8144 6.93548C13.6907 7.18996 13.5298 7.42832 13.3319 7.65054C13.1339 7.86918 12.92 8.08781 12.6902 8.30645C12.4923 8.48925 12.3579 8.68817 12.2872 8.90323C12.2165 9.1147 12.1794 9.35663 12.1759 9.62903ZM10.8873 11.3065C10.8873 11.1129 10.9527 10.9498 11.0835 10.8172C11.2143 10.681 11.3928 10.6129 11.6191 10.6129C11.8453 10.6129 12.0239 10.681 12.1547 10.8172C12.2855 10.9498 12.3509 11.1129 12.3509 11.3065C12.3509 11.5 12.2855 11.6649 12.1547 11.8011C12.0239 11.9337 11.8453 12 11.6191 12C11.3928 12 11.2143 11.9337 11.0835 11.8011C10.9527 11.6649 10.8873 11.5 10.8873 11.3065Z" fill="var(--mw-icon-object-primary, #616160)"/>
</svg>
