<svg width="16" height="16" viewBox="0 0 16 16" fill="none" xmlns="http://www.w3.org/2000/svg">
<path d="M11.5 0.5H1.5C0.947715 0.5 0.5 0.947715 0.5 1.5V11.5C0.5 12.0523 0.947715 12.5 1.5 12.5H11.5C12.0523 12.5 12.5 12.0523 12.5 11.5V1.5C12.5 0.947715 12.0523 0.5 11.5 0.5Z" fill="var(--mw-icon-background-default-white, #FFFFFF)" stroke="var(--mw-icon-border-default-gray, #616161)"/>
<path d="M1 10.5H5.5V2.5H12" stroke="var(--mw-icon-glyph-content-dark-gray, #333333)" stroke-linejoin="round"/>
<path d="M5.2311 3.61765C5.35061 3.46078 5.64939 3.46078 5.7689 3.61765L8.45794 7.14706C8.57745 7.30392 8.42806 7.5 8.18903 7.5L2.81097 7.5C2.57194 7.5 2.42255 7.30392 2.54206 7.14706L5.2311 3.61765Z" fill="var(--mw-icon-background-default-medium-gray, #D9D9D9)" stroke="var(--mw-icon-glyph-content-dark-gray, #333333)" stroke-linejoin="round"/>
<path d="M5.5 6.5C5.5 5.94772 5.94772 5.5 6.5 5.5H14.5C15.0523 5.5 15.5 5.94772 15.5 6.5V14.5C15.5 15.0523 15.0523 15.5 14.5 15.5H6.5C5.94772 15.5 5.5 15.0523 5.5 14.5V6.5Z" fill="white" stroke="var(--mw-icon-border-default-gray, #616161)"/>
<path d="M13.5 10.5C13.5 11.0933 13.3241 11.6734 12.9944 12.1667C12.6648 12.6601 12.1962 13.0446 11.6481 13.2716C11.0999 13.4987 10.4967 13.5581 9.91473 13.4424C9.59131 13.378 9.28254 13.2612 9 13.0981M7.5 10.5C7.5 9.90666 7.67595 9.32664 8.00559 8.83329C8.33524 8.33994 8.80377 7.95543 9.35195 7.72836C9.90013 7.5013 10.5033 7.44189 11.0853 7.55765C11.4087 7.62198 11.7175 7.7388 12 7.90193" stroke="var(--mw-icon-glyph-content-gray, #616162)" stroke-linecap="round"/>
<path d="M9 10H6L7.5 12L9 10Z" fill="var(--mw-icon-glyph-content-gray, #616162)"/>
<path d="M12 11L15 11L13.5 9L12 11Z" fill="var(--mw-icon-glyph-content-gray, #616162)"/>
</svg>
