<svg width="16" height="16" viewBox="0 0 16 16" fill="none" xmlns="http://www.w3.org/2000/svg">
<path d="M0.5 1.5C0.5 0.947715 0.947715 0.5 1.5 0.5H13.5C14.0523 0.5 14.5 0.947715 14.5 1.5V13.5C14.5 14.0523 14.0523 14.5 13.5 14.5H7.5H1.5C0.947715 14.5 0.5 14.0523 0.5 13.5V7.5V1.5Z" stroke="var(--mw-icon-object-primary, #616160)" stroke-linecap="round" stroke-linejoin="round" stroke-dasharray="3 3"/>
<path d="M3.5 7.5C3.5 9.70914 5.29086 11.5 7.5 11.5C9.70914 11.5 11.5 9.70914 11.5 7.5C11.5 5.29086 9.70914 3.5 7.5 3.5C5.29086 3.5 3.5 5.29086 3.5 7.5Z" fill="var(--mw-icon-background-red, #FF9D9A)" stroke="var(--mw-icon-glyph-content-red, #902623)"/>
<path d="M9.49983 7.49999L5.4999 7.49999" stroke="var(--mw-icon-glyph-content-red, #902623)" stroke-linecap="round"/>
</svg>
