<svg width="16" height="16" viewBox="0 0 16 16" fill="none" xmlns="http://www.w3.org/2000/svg">
<path d="M0.5 11V3.58114C0.5 3.5274 0.508664 3.47401 0.525658 3.42302L1.38604 0.841886C1.45409 0.637715 1.64516 0.5 1.86038 0.5H6.13962C6.35484 0.5 6.54591 0.637715 6.61396 0.841886L7.47434 3.42302C7.49134 3.47401 7.5 3.5274 7.5 3.58114V11C7.5 11.2761 7.27614 11.5 7 11.5H1C0.723858 11.5 0.5 11.2761 0.5 11Z" fill="var(--mw-icon-background-default-selection, #B4DEFF)" stroke="var(--mw-icon-border-default-blue, #1656A7)" stroke-linejoin="round"/>
<path d="M2.03184 9.32444C1.93488 9.583 2.06588 9.8712 2.32444 9.96816C2.583 10.0651 2.8712 9.93412 2.96816 9.67556L2.03184 9.32444ZM4 5.5L4.46816 5.32444C4.39498 5.12929 4.20842 5 4 5C3.79158 5 3.60502 5.12929 3.53184 5.32444L4 5.5ZM5.03184 9.67556C5.1288 9.93412 5.417 10.0651 5.67556 9.96816C5.93412 9.8712 6.06512 9.583 5.96816 9.32444L5.03184 9.67556ZM3 8C2.72386 8 2.5 8.22386 2.5 8.5C2.5 8.77614 2.72386 9 3 9V8ZM5 9C5.27614 9 5.5 8.77614 5.5 8.5C5.5 8.22386 5.27614 8 5 8V9ZM2.96816 9.67556L4.46816 5.67556L3.53184 5.32444L2.03184 9.32444L2.96816 9.67556ZM3.53184 5.67556L5.03184 9.67556L5.96816 9.32444L4.46816 5.32444L3.53184 5.67556ZM3 9H5V8H3V9Z" fill="var(--mw-icon-glyph-content-blue, #1656A8)"/>
<mask id="path-3-inside-1_14848_33597" fill="var(--mw-icon-background-default-white, #FFFFFF)">
<path d="M4.99998 3C4.99998 3.55228 4.55227 4 3.99998 4C3.4477 4 2.99998 3.55228 2.99998 3C2.99998 2.44772 3.4477 2 3.99998 2C4.55227 2 4.99998 2.44772 4.99998 3Z"/>
</mask>
<path d="M4.99998 3C4.99998 3.55228 4.55227 4 3.99998 4C3.4477 4 2.99998 3.55228 2.99998 3C2.99998 2.44772 3.4477 2 3.99998 2C4.55227 2 4.99998 2.44772 4.99998 3Z" stroke="var(--mw-icon-glyph-content-blue, #1656A8)" stroke-width="2" mask="url(#path-3-inside-1_14848_33597)"/>
<rect x="5.5" y="15.5" width="10" height="10" rx="0.5" transform="rotate(-90 5.5 15.5)" fill="var(--mw-icon-background-red, #FF9D9A)" stroke="var(--mw-icon-border-default-red, #902622)" stroke-linejoin="round"/>
<path d="M12.6464 13.3536L13 13.7071L13.7071 13L13.3536 12.6464L12.6464 13.3536ZM8.35355 7.64645L8 7.29289L7.29289 8L7.64645 8.35355L8.35355 7.64645ZM7.64645 12.6464L7.29289 13L8 13.7071L8.35355 13.3536L7.64645 12.6464ZM13.3536 8.35355L13.7071 8L13 7.29289L12.6464 7.64645L13.3536 8.35355ZM13.3536 12.6464L8.35355 7.64645L7.64645 8.35355L12.6464 13.3536L13.3536 12.6464ZM8.35355 13.3536L13.3536 8.35355L12.6464 7.64645L7.64645 12.6464L8.35355 13.3536Z" fill="var(--mw-icon-glyph-content-dark-red, #610908)"/>
</svg>
