<svg width="16" height="16" viewBox="0 0 16 16" fill="none" xmlns="http://www.w3.org/2000/svg">
<rect x="0.5" y="0.5" width="14" height="14" rx="1" fill="var(--mw-icon-background-default-white, #FFFFFF)"/>
<path d="M1 1H14V14H1V1Z" fill="#EDB120"/>
<path d="M11.5625 4.55952L10.75 5.10119V6.45498L10.7325 6.41668H9.9637V8.38273H9.00268V9.22532H7.84946V9.78705H6.69623V11.1914H2.08333L3.62096 12.3148H5.92741L6.31182 11.7531V14C8.87455 14 11.4373 14 14 14V5.41072L11.5625 4.55952Z" fill="var(--mw-icon-glyph-content-green, #008014)"/>
<path d="M5.06249 2.89583L4.24999 2.625L3.70833 3.4375L4.24999 3.70833L4.52083 3.97917H4.79166V3.70833L5.06249 2.89583Z" fill="var(--mw-icon-background-default-action, #CBFFBE)"/>
<path d="M12.1042 6.41668V6.95832H12.6458V7.22916H13.4583V7.77082H12.9167V7.49999H11.8333V7.06668H11.7431L11.4722 7.71668L11.3819 8.04168H11.0208V6.74168H11.2917L11.3819 7.39168L11.7431 6.41668H12.1042Z" fill="var(--mw-icon-glyph-content-dark-green, #02580E)"/>
<path d="M2.08333 8.58335L1 8.04168V10.75H1.54167V10.2083H2.35417L2.89583 10.4792H3.70833V8.31251L2.625 8.58335H2.08333Z" fill="var(--mw-icon-glyph-content-dark-green, #02580E)"/>
<path d="M11.4529 14V13.2688H12.2976L11.8333 12.7812V12.05H13.2262L13.4583 11.8062L13.2262 11.3188H12.5298V11.5625H11.6012L11.1369 11.8062H10.6726L10.9048 11.3188L11.4529 11.075L11.6012 10.8313L11.1369 10.5875L10.9048 10.8313H10.4405V9.36875L9.97619 9.125L9.74405 9.6125H9.04762V10.1H9.5119V10.5875H9.04762L8.35119 9.6125L7.88691 9.36875L7.42262 9.85625H7.88691L8.11905 10.3438H7.77083L7.55383 10.4656L7.88691 10.8313H8.58333V11.8062L8.35119 12.05L7.65476 11.8062V11.5625L7.88691 11.3188L7.42262 10.8313H6.95833L7.42262 11.3188L6.95833 11.5625V12.05H7.19048L6.95833 12.5375L7.19048 12.7812V13.5125H6.72619L6.49405 13.2688L6.2619 13.5125H6.02976L5.79762 13.2688H5.33333V13.5125H4.40476L4.17262 13.2688H4.16876L4.25 13.1875H2.89583L3.16667 13.4583L2.89583 13.7292H2.08333V13.4583L2.35417 13.1875V12.6458H2.625L3.16667 12.1042V11.2917L2.35417 12.1042H1.27083L1 11.8333V14L11.4529 14Z" fill="var(--mw-icon-glyph-content-dark-green, #02580E)"/>
<path d="M5.875 1.65V1H9.66667V2.625L5.875 1.65Z" fill="var(--mw-icon-glyph-content-dark-green, #02580E)"/>
<path d="M6.14583 5.60417L5.875 4.25H7.5V5.60417H6.14583Z" fill="var(--mw-icon-glyph-content-dark-green, #02580E)"/>
<path d="M2.08333 3.70835L3.16666 3.43751V2.62501H2.625L2.35416 1.54168H2.08333V3.70835Z" fill="var(--mw-icon-glyph-content-dark-green, #02580E)"/>
<path d="M11.0208 3.4375L2.85714 1H2.08333L7.21006 2.66322L6.95833 3.16667L7.22917 3.70833H7.77083L8.04167 3.4375H8.85417V3.70833L8.58333 3.97917L8.85417 4.25L9.39583 3.97917V3.37233L9.875 3.52778L14 4.79167V3.97917L12.6458 3.73295V3.43749H12.375V2.89582H12.6458L12.9167 2.62499V2.08332H11.2917V3.16665L11.8333 3.43749L11.9146 3.6L11.0208 3.4375Z" fill="var(--mw-icon-glyph-content-dark-green, #02580E)"/>
<path d="M4.52083 4.25V5.60417L3.70833 5.875L3.84375 6.41668H1V7.22918L1.8125 7.77084H3.4375L3.97917 7.50001V6.95833H5.60417V4.79167L4.52083 4.25Z" fill="var(--mw-icon-glyph-content-dark-green, #02580E)"/>
<path d="M9.66667 3.97915L9.9375 3.70832L10.75 3.97915H11.0208V4.52082H10.4792L10.2083 4.79165H9.9375V4.52082L9.66667 4.24999V3.97915Z" fill="var(--mw-icon-glyph-content-dark-green, #02580E)"/>
<path d="M9.125 11.5625V12.375L10.2083 12.6458V11.5625H9.125Z" fill="var(--mw-icon-glyph-content-green, #008014)"/>
<path d="M11.2917 1.54167V1H11.8333V1.27083L11.5625 1.54167H11.2917Z" fill="#004073"/>
<path d="M3.16667 2.89582V2.08332L4.25001 2.35415V2.89582H3.16667Z" fill="#004073"/>
<path d="M10.4792 2.44443H10.3438V2.26387L10.6146 2.08332H10.75V2.44443L10.4792 2.62499V2.80554H10.75V3.16665H10.3438L10.2083 2.9861V2.62499L10.4792 2.44443Z" fill="#004073"/>
<rect x="0.5" y="0.5" width="14" height="14" rx="1" stroke="var(--mw-icon-border-default-gray, #616161)"/>
</svg>
