<svg width="16" height="16" viewBox="0 0 16 16" fill="none" xmlns="http://www.w3.org/2000/svg">
<rect x="0.5" y="0.5" width="14" height="14" rx="1" fill="var(--mw-icon-background-default-white, #FFFFFF)"/>
<path d="M1 1H14V14H1V1Z" fill="#ABC739"/>
<path d="M5.0625 2.89583L4.25 2.625L3.70833 3.4375L4.25 3.70833L4.52083 3.97917H4.79167V3.70833L5.0625 2.89583Z" fill="var(--mw-icon-background-default-action, #CBFFBE)"/>
<path d="M10.9048 3.47619L2.85714 1H2.08333L7.21005 2.66321L6.95833 3.16667L7.22916 3.70833H7.77083L8.04166 3.4375H8.85416V3.70833L8.58333 3.97917L8.85416 4.25L9.39583 3.97917V3.37232L9.875 3.52778L14 4.79167V3.97917L12.6458 3.75912V3.43749H12.375V2.89582H12.6458L12.9167 2.62499V2.08332H11.2917V3.16665L11.8333 3.43749L11.9365 3.64385L10.9048 3.47619Z" fill="#960064"/>
<path d="M2.08333 3.70835L3.16666 3.43751V2.62501H2.625L2.35416 1.54168H2.08333V3.70835Z" fill="#960064"/>
<path d="M5.875 1V1.65L9.66667 2.625V1H5.875Z" fill="#960064"/>
<path d="M9.66667 3.97915L9.9375 3.70832L10.75 3.97915H11.0208V4.52082H10.4792L10.2083 4.79165H9.9375V4.52082L9.66667 4.24999V3.97915Z" fill="#960064"/>
<path d="M6.14583 5.60417L5.875 4.25H7.5V5.60417H6.14583Z" fill="#960064"/>
<path d="M1 8.04168L2.08333 8.58334H2.625L3.70833 8.31251V10.4792H2.89583L2.35417 10.2083H1.54167V10.75H1V8.04168Z" fill="#960064"/>
<path d="M1 11.8333L1.27083 12.1042H2.35417L2.76727 11.6911L2.08333 11.1914H6.69623V9.78705H7.84946V9.22532H9.00269V8.38273H9.96371V6.41668H10.7325L10.75 6.45498V5.10119L11.5625 4.55952L14 5.41071V14C14 14 7.09141 14 6.31183 14V11.7531L5.92742 12.3148H3.62097L3.16667 11.9829V12.1042L2.625 12.6458H2.35417V13.1875L2.08333 13.4583V13.7292H2.89583L3.16667 13.4583L2.89583 13.1875H4.25L3.97917 13.4583L4.25 13.7292V14C3.16667 14 2.08333 14 1 14V11.8333Z" fill="#960064"/>
<path d="M4.52083 4.25V5.60417L3.70833 5.875L3.97916 6.95833H5.60416V4.79167L4.52083 4.25Z" fill="#960064"/>
<path d="M1 6.41667H3.97917V7.50001L3.4375 7.77084H1.8125L1 7.22917V6.41667Z" fill="#D1048B"/>
<path d="M11.4529 14V13.2687H12.2976L11.8333 12.7812V12.05H13.2262L13.4583 11.8062L13.2262 11.3187H12.5298V11.5625H11.6012L11.1369 11.8062H10.6726L10.9048 11.3187L11.4529 11.075L11.6012 10.8312L11.1369 10.5875L10.9048 10.8312H10.4405V9.36875L9.97619 9.125L9.74405 9.6125H9.04762V10.1H9.5119V10.5875H9.04762L8.35119 9.6125L7.8869 9.36875L7.42262 9.85625H7.8869L8.11905 10.3437H7.77083L7.55382 10.4656L7.8869 10.8312H8.58333V11.8062L8.35119 12.05L7.65476 11.8062V11.5625L7.8869 11.3187L7.42262 10.8312H6.95833L7.42262 11.3187L6.95833 11.5625V12.05H7.19047L6.95833 12.5375L7.19047 12.7812V13.5125H6.72619L6.49405 13.2687L6.2619 13.5125H6.02976L5.79762 13.2687H5.33333V13.5125H4.40476L4.17262 13.2687H3.70833V14H11.4529Z" fill="#D1048B"/>
<path d="M12.1042 6.41667V6.95832H12.6458V7.22915H13.4583V7.77082H12.9167V7.49999H11.8333V7.06667H11.7431L11.4722 7.71667L11.3819 8.04167H11.0208V6.74167H11.2917L11.3819 7.39167L11.7431 6.41667H12.1042Z" fill="#D1048B"/>
<path d="M11.2917 1.54167V1H11.8333V1.27083L11.5625 1.54167H11.2917Z" fill="#004073"/>
<path d="M3.16667 2.89582V2.08332L4.25 2.35415V2.89582H3.16667Z" fill="#004073"/>
<path d="M10.4792 2.44443H10.3437V2.26387L10.6146 2.08332H10.75V2.44443L10.4792 2.62499V2.80554H10.75V3.16665H10.3437L10.2083 2.9861V2.62499L10.4792 2.44443Z" fill="#004073"/>
<path d="M9.125 11.5625V12.375L10.2083 12.6458V11.5625H9.125Z" fill="#F267C5"/>
<rect x="0.5" y="0.5" width="14" height="14" rx="1" stroke="var(--mw-icon-border-default-gray, #616161)"/>
</svg>
