<svg width="16" height="16" viewBox="0 0 16 16" fill="none" xmlns="http://www.w3.org/2000/svg">
<path d="M1 1H14V14H1V1Z" fill="var(--mw-icon-background-default-white, #FFFFFF)"/>
<path d="M0.5 7.5C0.5 7.5 0.954545 5.5 3.5 5.5C6.04545 5.5 8.95455 9.5 11.5 9.5C13.1648 9.44392 13.8636 8.5 14.5 7.5" stroke="#0072BD" stroke-miterlimit="10"/>
<path d="M3.5 5.5C6.04545 5.5 8.95455 9.5 11.5 9.5" stroke="#D95319" stroke-miterlimit="10"/>
<path d="M7 6.5C7 7.32843 6.32843 8 5.5 8C4.67157 8 4 7.32843 4 6.5C4 5.67157 4.67157 5 5.5 5C6.32843 5 7 5.67157 7 6.5Z" fill="#D95319"/>
<path d="M10 8.5C10 9.32843 9.32843 10 8.5 10C7.67157 10 7 9.32843 7 8.5C7 7.67157 7.67157 7 8.5 7C9.32843 7 10 7.67157 10 8.5Z" fill="#D95319"/>
<path d="M4 5.5C4 6.32843 3.32843 7 2.5 7C1.67157 7 1 6.32843 1 5.5C1 4.67157 1.67157 4 2.5 4C3.32843 4 4 4.67157 4 5.5Z" fill="#0072BD"/>
<path d="M13 9.5C13 10.3284 12.3284 11 11.5 11C10.6716 11 10 10.3284 10 9.5C10 8.67157 10.6716 8 11.5 8C12.3284 8 13 8.67157 13 9.5Z" fill="#0072BD"/>
<path d="M0.5 1.5C0.5 0.947716 0.947715 0.5 1.5 0.5H13.5C14.0523 0.5 14.5 0.947715 14.5 1.5V13.5C14.5 14.0523 14.0523 14.5 13.5 14.5H1.5C0.947716 14.5 0.5 14.0523 0.5 13.5V1.5Z" stroke="var(--mw-icon-border-default-gray, #616161)" stroke-linejoin="round"/>
</svg>
