<svg width="16" height="16" viewBox="0 0 16 16" fill="none" xmlns="http://www.w3.org/2000/svg">
<path d="M0.5 12.5V2.5C0.5 1.39543 1.39543 0.5 2.5 0.5H12.5C13.6046 0.5 14.5 1.39543 14.5 2.5V12.5C14.5 13.6046 13.6046 14.5 12.5 14.5H2.5C1.39543 14.5 0.5 13.6046 0.5 12.5Z" fill="#BFBFBF"/>
<path d="M0.5 11.5V3.5H8.5L11.5 6.5V14.5H3.5C1.84315 14.5 0.5 13.1569 0.5 11.5Z" fill="var(--mw-icon-background-default-white, white)"/>
<path d="M2.5 6C2.22386 6 2 6.22386 2 6.5C2 6.77614 2.22386 7 2.5 7V6ZM7.5 7C7.77614 7 8 6.77614 8 6.5C8 6.22386 7.77614 6 7.5 6V7ZM2.5 7H7.5V6H2.5V7Z" fill="var(--mw-icon-border-default-red, #902622)"/>
<path d="M2.5 8C2.22386 8 2 8.22386 2 8.5C2 8.77614 2.22386 9 2.5 9V8ZM9.5 9C9.77614 9 10 8.77614 10 8.5C10 8.22386 9.77614 8 9.5 8V9ZM2.5 9H9.5V8H2.5V9Z" fill="var(--mw-icon-border-default-gray, #616161)"/>
<path d="M2.5 10C2.22386 10 2 10.2239 2 10.5C2 10.7761 2.22386 11 2.5 11V10ZM9.5 11C9.77614 11 10 10.7761 10 10.5C10 10.2239 9.77614 10 9.5 10V11ZM2.5 11H9.5V10H2.5V11Z" fill="var(--mw-icon-border-default-gray, #616161)"/>
<path d="M2.5 12C2.22386 12 2 12.2239 2 12.5C2 12.7761 2.22386 13 2.5 13V12ZM9.5 13C9.77614 13 10 12.7761 10 12.5C10 12.2239 9.77614 12 9.5 12V13ZM2.5 13H9.5V12H2.5V13Z" fill="var(--mw-icon-border-default-gray, #616161)"/>
<path d="M0.5 3.5H8.08579C8.351 3.5 8.60536 3.60536 8.79289 3.79289L11.2071 6.20711C11.3946 6.39464 11.5 6.649 11.5 6.91421V14.5" stroke="var(--mw-icon-glyph-content-dark-gray, #333333)"/>
<path d="M0.5 12.5V2.5C0.5 1.39543 1.39543 0.5 2.5 0.5H12.5C13.6046 0.5 14.5 1.39543 14.5 2.5V12.5C14.5 13.6046 13.6046 14.5 12.5 14.5H2.5C1.39543 14.5 0.5 13.6046 0.5 12.5Z" stroke="var(--mw-icon-border-default-gray, #616161)" stroke-linecap="round"/>

</svg>
