<svg width="16" height="16" viewBox="0 0 16 16" fill="none" xmlns="http://www.w3.org/2000/svg">
<path d="M0.5 12.5V2.5C0.5 1.39543 1.39543 0.5 2.5 0.5H12.5C13.6046 0.5 14.5 1.39543 14.5 2.5V12.5C14.5 13.6046 13.6046 14.5 12.5 14.5H2.5C1.39543 14.5 0.5 13.6046 0.5 12.5Z" fill="var(--mw-icon-background-default-medium-gray, #D9D9D9)"/>
<path d="M2.5 12V3C2.5 2.72386 2.72386 2.5 3 2.5H8.29289C8.4255 2.5 8.55268 2.55268 8.64645 2.64645L10.3536 4.35355C10.4473 4.44732 10.5 4.5745 10.5 4.70711V12C10.5 12.2761 10.2761 12.5 10 12.5H3C2.72386 12.5 2.5 12.2761 2.5 12Z" fill="var(--mw-icon-background-default-white, white)" stroke="var(--mw-icon-border-default-gray, #616161)" stroke-linecap="round" stroke-linejoin="round"/>
<path d="M4.5 5.5V2.5C4.5 1.94772 4.94772 1.5 5.5 1.5C6.05228 1.5 6.5 1.94772 6.5 2.5V5.5C6.5 6.05228 6.05228 6.5 5.5 6.5C4.94772 6.5 4.5 6.05228 4.5 5.5Z" stroke="var(--mw-icon-glyph-content-dark-gray, #333333)" stroke-linecap="round"/>
<path d="M4.5 3.5V2.5C4.5 1.94772 4.94772 1.5 5.5 1.5C6.05228 1.5 6.5 1.94772 6.5 2.5V3.5C6.5 4.05228 6.05228 4.5 5.5 4.5C4.94772 4.5 4.5 4.05228 4.5 3.5Z" stroke="var(--mw-icon-glyph-content-dark-gray, #333333)" stroke-linecap="round"/>
<path d="M12.125 10.75L10.75 9.375L12.125 8L13.5 9.375L12.125 10.75Z" fill="var(--mw-icon-background-red, #FF9D9A)" stroke="var(--mw-icon-border-default-red, #902622)" stroke-linejoin="round"/>
<path d="M12.125 10.75L9.375 13.5H8V12.125L10.75 9.375L12.125 10.75Z" fill="var(--mw-icon-background-default-highlight, #FFE864)" stroke="var(--mw-icon-border-default-yellow, #674C06)" stroke-linejoin="round"/>
<path d="M0.5 12.5V2.5C0.5 1.39543 1.39543 0.5 2.5 0.5H12.5C13.6046 0.5 14.5 1.39543 14.5 2.5V12.5C14.5 13.6046 13.6046 14.5 12.5 14.5H2.5C1.39543 14.5 0.5 13.6046 0.5 12.5Z" stroke="var(--mw-icon-border-default-gray, #616161)" stroke-linecap="round"/>

</svg>
