<svg width="16" height="16" viewBox="0 0 16 16" fill="none" xmlns="http://www.w3.org/2000/svg">
<path d="M0.5 3.5H14.5V14C14.5 14.2761 14.2761 14.5 14 14.5H1C0.723857 14.5 0.5 14.2761 0.5 14V3.5Z" fill="var(--mw-icon-background-default-white, #FFFFFF)" stroke="var(--mw-icon-border-default-gray, #616161)"/>
<path d="M7.5 4V14" stroke="var(--mw-icon-border-default-gray, #616161)"/>
<path d="M14 0.5H7.5V3.5H14.5V1C14.5 0.723858 14.2761 0.5 14 0.5Z" fill="var(--mw-icon-background-light-yellow, #FFF5BC)" stroke="#674C06"/>
<path d="M7.5 0.5H1C0.723858 0.5 0.5 0.723858 0.5 1V3.5H7.5V0.5Z" fill="var(--mw-icon-background-default-action, #CBFFBE)" stroke="var(--mw-icon-border-default-green, #008013)"/>
<path fill-rule="evenodd" clip-rule="evenodd" d="M11.7917 8.39762C11.8319 8.37785 11.8701 8.35589 11.9063 8.33173C12.0677 8.22413 12.1897 8.08562 12.2723 7.91621C12.3549 7.74451 12.3963 7.55563 12.3963 7.34959C12.3963 7.11607 12.3626 6.91461 12.2954 6.74519C12.2301 6.57578 12.133 6.43613 12.0043 6.32624C11.8775 6.21406 11.7229 6.13164 11.5403 6.07898C11.3598 6.02633 11.1542 6 10.9236 6L9 6V11H11.0418C11.3473 11 11.6085 10.9451 11.8256 10.8352C12.0427 10.723 12.2089 10.5593 12.3242 10.3441C12.4414 10.1289 12.5 9.86218 12.5 9.54396C12.5 9.33791 12.4635 9.1456 12.3905 8.96703C12.3175 8.78846 12.2061 8.64309 12.0562 8.53091C11.9792 8.47253 11.891 8.4281 11.7917 8.39762ZM9.72334 8.74038H11.0735C11.2406 8.74038 11.3761 8.77358 11.4798 8.83997C11.5836 8.90408 11.6595 8.99679 11.7075 9.11813C11.7555 9.23718 11.7795 9.37798 11.7795 9.54052C11.7795 9.6962 11.7517 9.83242 11.696 9.94918C11.6422 10.0636 11.5605 10.1541 11.451 10.2205C11.3415 10.2846 11.2051 10.3166 11.0418 10.3166H9.72334V8.74038ZM9.72334 8.11195V6.68681H10.9236C11.0946 6.68681 11.2349 6.71085 11.3444 6.75893C11.4558 6.80701 11.5384 6.8837 11.5922 6.98901C11.646 7.09432 11.6729 7.23054 11.6729 7.39766C11.6729 7.54876 11.6441 7.67811 11.5865 7.78571C11.5288 7.89103 11.4443 7.9723 11.3329 8.02953C11.2233 8.08448 11.0898 8.11195 10.9323 8.11195H9.72334Z" fill="var(--mw-icon-glyph-content-dark-gray, #333333)"/>
<path fill-rule="evenodd" clip-rule="evenodd" d="M4.37981 6H3.6143L2 11H2.91993L3.25479 9.86749H4.7415L5.07713 11H6L4.37981 6ZM3.39065 9.12438H4.60517L3.99721 7.07297L3.39065 9.12438Z" fill="var(--mw-icon-glyph-content-dark-gray, #333333)"/>
</svg>
