<svg width="16" height="16" viewBox="0 0 16 16" fill="none" xmlns="http://www.w3.org/2000/svg">
<path d="M0.5 2.5C0.5 1.39543 1.39543 0.5 2.5 0.5H13.5C14.6046 0.5 15.5 1.39543 15.5 2.5V13.5C15.5 14.6046 14.6046 15.5 13.5 15.5H2.5C1.39543 15.5 0.5 14.6046 0.5 13.5V2.5Z" fill="var(--mw-icon-background-default-white, #FFFFFF)"/>
<path d="M0.5 8C0.5 8 1.86364 5.5 4.59091 5.5C7.31818 5.5 9.36364 9.5 12.0909 9.5C13.8746 9.44392 14.8182 8 15.5 7" stroke="#0072BD" stroke-miterlimit="10"/>
<circle cx="6.5" cy="6.5" r="1.5" fill="#D95319"/>
<circle cx="9.5" cy="8.5" r="1.5" fill="#D95319"/>
<path d="M0.5 2.5C0.5 1.39543 1.39543 0.5 2.5 0.5H13.5C14.6046 0.5 15.5 1.39543 15.5 2.5V13.5C15.5 14.6046 14.6046 15.5 13.5 15.5H2.5C1.39543 15.5 0.5 14.6046 0.5 13.5V2.5Z" stroke="var(--mw-icon-border-default-gray, #616161)" stroke-linejoin="round"/>
<circle cx="3.5" cy="5.5" r="1.5" fill="#0072BD"/>
<circle cx="12.5" cy="9.5" r="1.5" fill="#0072BD"/>
</svg>
