<svg width="16" height="16" viewBox="0 0 16 16" fill="none" xmlns="http://www.w3.org/2000/svg">
<path d="M1 1H14V14H1V1Z" fill="var(--mw-icon-background-default-white, #FFFFFF)"/>
<path d="M2.5 5.5H3.5M3.5 5.5H4.5M3.5 5.5V4.5M3.5 5.5V6.5M8.5 5.5H9.5M9.5 5.5H10.5M9.5 5.5V4.5M9.5 5.5V6.5M10.5 11.5H11.5M11.5 11.5H12.5M11.5 11.5V10.5M11.5 11.5V12.5M11.5 3.5H12.5M12.5 3.5H13.5M12.5 3.5V2.5M12.5 3.5V4.5M4.5 10.5H5.5M5.5 10.5H6.5M5.5 10.5V9.5M5.5 10.5V11.5" stroke="#D95319" stroke-linecap="square"/>
<line x1="1" y1="7.5" x2="14" y2="7.5" stroke="#0072BD"/>
<path d="M0.5 1.5C0.5 0.947716 0.947715 0.5 1.5 0.5H13.5C14.0523 0.5 14.5 0.947715 14.5 1.5V13.5C14.5 14.0523 14.0523 14.5 13.5 14.5H1.5C0.947716 14.5 0.5 14.0523 0.5 13.5V1.5Z" stroke="var(--mw-icon-border-default-gray, #616161)" stroke-linejoin="round"/>
</svg>
