<svg width="16" height="16" viewBox="0 0 16 16" fill="none" xmlns="http://www.w3.org/2000/svg">
<rect x="0.5" y="0.5" width="14" height="14" rx="1" fill="var(--mw-icon-background-default-white, #FFFFFF)"/>
<path d="M6 4.5C6 5.32843 5.32843 6 4.5 6C3.67157 6 3 5.32843 3 4.5C3 3.67157 3.67157 3 4.5 3C5.32843 3 6 3.67157 6 4.5Z" fill="#FF6929"/>
<path d="M12 10.5C12 11.3284 11.3284 12 10.5 12C9.67157 12 9 11.3284 9 10.5C9 9.67157 9.67157 9 10.5 9C11.3284 9 12 9.67157 12 10.5Z" fill="#FF6929"/>
<path d="M4.5 5.5V10.5M10.5 4.5V9.5" stroke="#FF6929"/>
<path d="M1 14L14 1" stroke="var(--mw-icon-glyph-content-light-blue, #278CDD)"/>
<rect x="0.5" y="0.5" width="14" height="14" rx="1" stroke="var(--mw-icon-border-default-gray, #616161)"/>
</svg>
