<svg width="16" height="17" viewBox="0 0 16 17" fill="none" xmlns="http://www.w3.org/2000/svg">
<path d="M3.5 3C3.5 2.72386 3.72386 2.5 4 2.5H8.08579C8.351 2.5 8.60536 2.60536 8.79289 2.79289L10.2071 4.20711C10.3946 4.39464 10.649 4.5 10.9142 4.5H15C15.2761 4.5 15.5 4.72386 15.5 5V12C15.5 12.2761 15.2761 12.5 15 12.5H4C3.72386 12.5 3.5 12.2761 3.5 12V3Z" fill="var(--mw-icon-background-light-yellow, #FFF5BC)" stroke="#674C06"/>
<path fill-rule="evenodd" clip-rule="evenodd" d="M10.8571 8.9262C10.6995 8.84293 10.5333 8.77371 10.3603 8.72021L10.1061 7.5H8.89394L8.63973 8.72021C8.46665 8.77371 8.30047 8.84293 8.14287 8.92621L7.10012 8.24302L6.24302 9.10012L6.9262 10.1429C6.84293 10.3005 6.77371 10.4667 6.72021 10.6397L5.5 10.8939V12.1061L6.72021 12.3603C6.77371 12.5333 6.84293 12.6995 6.9262 12.8571L6.24301 13.8999L7.10011 14.757L8.14287 14.0738C8.30047 14.1571 8.46665 14.2263 8.63973 14.2798L8.89394 15.5H10.1061L10.3603 14.2798C10.5333 14.2263 10.6995 14.1571 10.8571 14.0738L11.8999 14.757L12.757 13.8999L12.0738 12.8571C12.1571 12.6995 12.2263 12.5333 12.2798 12.3603L13.5 12.1061V10.8939L12.2798 10.6397C12.2263 10.4667 12.1571 10.3005 12.0738 10.1429L12.757 9.10012L11.8999 8.24302L10.8571 8.9262Z" fill="var(--mw-icon-background-default-medium-gray, #D9D9D9)" stroke="var(--mw-icon-border-default-gray, #616161)"/>
<path d="M10.7 11.5C10.7 12.1627 10.1628 12.7 9.50005 12.7C8.83731 12.7 8.30005 12.1627 8.30005 11.5C8.30005 10.8373 8.83731 10.3 9.50005 10.3C10.1628 10.3 10.7 10.8373 10.7 11.5Z" fill="var(--mw-icon-glyph-disabled-gray, #888889)"/>
</svg>
