<svg width="16" height="16" viewBox="0 0 16 16" fill="none" xmlns="http://www.w3.org/2000/svg">
<path d="M0.5 14.5H14.5V7.5V0.5H0.5V7.5V14.5Z" fill="var(--mw-icon-background-default-white, #FFFFFF)"/>
<path d="M0.5 9.5H14.5" stroke="var(--mw-icon-glyph-content-gray, #616162)" stroke-linecap="round" stroke-linejoin="round"/>
<rect x="4" y="12" width="1" height="1" fill="#1171BE"/>
<rect x="2" y="11" width="1" height="1" fill="#1171BE"/>
<rect x="6" y="10" width="1" height="2" fill="#DD5400"/>
<rect x="8" y="12" width="1" height="2" fill="#DD5400"/>
<rect x="10" y="11" width="1" height="1" fill="#1171BE"/>
<rect x="12" y="11" width="1" height="1" fill="#3BAA32"/>
<path d="M0.5 7.5H1.5L3.5 5.5L5.5 7.5L7.5 6.5L9.5 7.5L11.5 4.5L13.5 6.5H14.5" stroke="var(--mw-icon-glyph-content-gray, #616162)" stroke-linecap="round" stroke-linejoin="round"/>
<path d="M2 3.5H5M3.5 2V5" stroke="#1171BE" stroke-linejoin="round"/>
<path d="M6 4.5H9M7.5 3V6" stroke="#3BAA32" stroke-linejoin="round"/>
<path d="M10 2.5H13M11.5 1V4" stroke="#DD5400" stroke-linejoin="round"/>
<path d="M0.5 1.5C0.5 0.947716 0.947715 0.5 1.5 0.5H13.5C14.0523 0.5 14.5 0.947715 14.5 1.5V13.5C14.5 14.0523 14.0523 14.5 13.5 14.5H1.5C0.947716 14.5 0.5 14.0523 0.5 13.5V1.5Z" stroke="var(--mw-icon-border-default-gray, #616161)" stroke-linejoin="round"/>
</svg>
