<svg width="16" height="16" viewBox="0 0 16 16" fill="none" xmlns="http://www.w3.org/2000/svg">
<path d="M0 1C0 0.447715 0.447715 0 1 0H3C3.55228 0 4 0.447715 4 1V3C4 3.55228 3.55228 4 3 4H1C0.447715 4 0 3.55228 0 3V1Z" fill="var(--mw-icon-background-red, #FF9D9A)"/>
<path d="M9 5C9 4.44772 9.44772 4 10 4H12C12.5523 4 13 4.44772 13 5V7C13 7.55228 12.5523 8 12 8H10C9.44772 8 9 7.55228 9 7V5Z" fill="var(--mw-icon-background-red, #FF9D9A)"/>
<path d="M9 10C9 9.44772 9.44772 9 10 9H12C12.5523 9 13 9.44772 13 10V12C13 12.5523 12.5523 13 12 13H10C9.44772 13 9 12.5523 9 12V10Z" fill="var(--mw-icon-background-default-selection, #B4DEFF)"/>
<path d="M0 10C0 9.44772 0.447715 9 1 9H3C3.55228 9 4 9.44772 4 10V12C4 12.5523 3.55228 13 3 13H1C0.447715 13 0 12.5523 0 12V10Z" fill="var(--mw-icon-background-default-selection, #B4DEFF)"/>
<path d="M1.5 1.5H2.5V2.5H1.5V1.5Z" fill="var(--mw-icon-background-red, #FF9D9A)" stroke="#B7312C" stroke-linejoin="round"/>
<path d="M10.5 5.5H11.5V6.5H10.5V5.5Z" fill="var(--mw-icon-background-red, #FF9D9A)" stroke="#B7312C" stroke-linejoin="round"/>
<path d="M1.5 10.5H2.5V11.5H1.5V10.5Z" fill="var(--mw-icon-background-default-selection, #B4DEFF)" stroke="var(--mw-icon-glyph-content-light-blue, #278CDD)" stroke-linejoin="round"/>
<path d="M10.5 10.5H11.5V11.5H10.5V10.5Z" fill="var(--mw-icon-background-default-selection, #B4DEFF)" stroke="var(--mw-icon-glyph-content-light-blue, #278CDD)" stroke-linejoin="round"/>
<path d="M2.5 2.5H6.5V6.5H10.5" stroke="#B7312C" stroke-linecap="square" stroke-linejoin="round"/>
<path d="M2.5 10.5H10.5" stroke="var(--mw-icon-glyph-content-light-blue, #278CDD)" stroke-linecap="square" stroke-linejoin="round"/>
<rect x="5.5" y="15.5" width="10" height="10" rx="0.5" transform="rotate(-90 5.5 15.5)" fill="var(--mw-icon-background-default-selection, #B4DEFF)" stroke="var(--mw-icon-border-default-blue, #1656A7)" stroke-linejoin="round"/>
<path d="M10 9V6L8 7.5L10 9Z" fill="var(--mw-icon-glyph-content-blue, #1656A8)"/>
<path d="M7.5 10.5C7.5 11.0933 7.67595 11.6734 8.00559 12.1667C8.33523 12.6601 8.80377 13.0446 9.35195 13.2716C9.90013 13.4987 10.5033 13.5581 11.0853 13.4424C11.6672 13.3266 12.2018 13.0409 12.6213 12.6213C13.0409 12.2018 13.3266 11.6672 13.4424 11.0853C13.5581 10.5033 13.4987 9.90013 13.2716 9.35195C13.0446 8.80377 12.6601 8.33524 12.1667 8.00559C11.6734 7.67595 11.0933 7.5 10.5 7.5H10" stroke="var(--mw-icon-glyph-content-blue, #1656A8)" stroke-linecap="round"/>
<path d="M1.5 5.5H3.5V7.5H1.5V5.5Z" fill="var(--mw-icon-background-default-medium-gray, #D9D9D9)" stroke="var(--mw-icon-glyph-disabled-gray, #888889)" stroke-linejoin="round"/>
<path d="M9.5 0.5H11.5V2.5H9.5V0.5Z" fill="var(--mw-icon-background-default-medium-gray, #D9D9D9)" stroke="var(--mw-icon-glyph-disabled-gray, #888889)" stroke-linejoin="round"/>
</svg>
