<svg width="16" height="16" viewBox="0 0 16 16" fill="none" xmlns="http://www.w3.org/2000/svg">
<path fill-rule="evenodd" clip-rule="evenodd" d="M8.53569 2.63931C8.29928 2.5144 8.05002 2.41056 7.79041 2.33031L7.40909 0.5H5.59091L5.20959 2.33031C4.94997 2.41056 4.70071 2.5144 4.4643 2.63931L2.90017 1.61454L1.61453 2.90018L2.6393 4.46432C2.51439 4.70072 2.41056 4.94998 2.33031 5.20959L0.5 5.59091V7.40909L2.33031 7.79041C2.41056 8.05002 2.51439 8.29928 2.6393 8.53568L1.61452 10.0998L2.90017 11.3855L4.4643 10.3607C4.70071 10.4856 4.94997 10.5894 5.20959 10.6697L5.59091 12.5H7.40909L7.79041 10.6697C8.05002 10.5894 8.29928 10.4856 8.53569 10.3607L10.0998 11.3855L11.3855 10.0998L10.3607 8.5357C10.4856 8.29929 10.5894 8.05003 10.6697 7.79041L12.5 7.40909V5.59091L10.6697 5.20959C10.5894 4.94998 10.4856 4.70071 10.3607 4.46431L11.3855 2.90018L10.0998 1.61453L8.53569 2.63931Z" fill="var(--mw-icon-background-default-medium-gray, #D9D9D9)" stroke="var(--mw-icon-border-default-gray, #616161)" stroke-linejoin="round"/>
<path d="M9 6.5C9 7.88071 7.88071 9 6.5 9C5.11929 9 4 7.88071 4 6.5C4 5.11929 5.11929 4 6.5 4C7.88071 4 9 5.11929 9 6.5Z" fill="var(--mw-icon-background-default-dark-gray, #A6A6A6)"/>
<path d="M8 6.5C8 7.32843 7.32843 8 6.5 8C5.67157 8 5 7.32843 5 6.5C5 5.67157 5.67157 5 6.5 5C7.32843 5 8 5.67157 8 6.5Z" fill="var(--mw-icon-glyph-content-gray, #616162)"/>
<rect x="5.5" y="15.5" width="10" height="10" rx="0.5" transform="rotate(-90 5.5 15.5)" fill="var(--mw-icon-background-default-selection, #B4DEFF)" stroke="var(--mw-icon-border-default-blue, #1656A7)" stroke-linejoin="round"/>
<path d="M10 9V6L8 7.5L10 9Z" fill="var(--mw-icon-glyph-content-blue, #1656A8)"/>
<path d="M7.5 10.5C7.5 11.0933 7.67595 11.6734 8.00559 12.1667C8.33524 12.6601 8.80377 13.0446 9.35195 13.2716C9.90013 13.4987 10.5033 13.5581 11.0853 13.4424C11.6672 13.3266 12.2018 13.0409 12.6213 12.6213C13.0409 12.2018 13.3266 11.6672 13.4424 11.0853C13.5581 10.5033 13.4987 9.90013 13.2716 9.35195C13.0446 8.80377 12.6601 8.33524 12.1667 8.00559C11.6734 7.67595 11.0933 7.5 10.5 7.5H10" stroke="var(--mw-icon-glyph-content-blue, #1656A8)" stroke-linecap="round"/>
</svg>
