<svg width="16" height="16" viewBox="0 0 16 16" fill="none" xmlns="http://www.w3.org/2000/svg">
<path d="M12 12.5L1 12.5C0.723858 12.5 0.5 12.2761 0.5 12L0.499999 3.5L12.5 3.5L12.5 12C12.5 12.2761 12.2761 12.5 12 12.5Z" fill="var(--mw-icon-background-default-white, #FFFFFF)" stroke="var(--mw-icon-border-default-gray, #616161)" stroke-linecap="round"/>
<path d="M12.5 3.5L0.5 3.5L0.5 1C0.5 0.723858 0.723858 0.5 1 0.5L12 0.499999C12.2761 0.499999 12.5 0.723857 12.5 0.999999L12.5 3.5Z" fill="var(--mw-icon-background-default-selection, #B4DEFF)" stroke="var(--mw-icon-border-default-blue, #1656A7)" stroke-linecap="round"/>
<path d="M6.5 13V4" stroke="var(--mw-icon-border-default-gray, #616161)"/>
<path d="M0 7.5H13" stroke="var(--mw-icon-border-default-gray, #616161)"/>
<rect x="5.5" y="15.5" width="10" height="10" rx="0.5" transform="rotate(-90 5.5 15.5)" fill="var(--mw-icon-background-default-selection, #B4DEFF)" stroke="var(--mw-icon-border-default-blue, #1656A7)" stroke-linejoin="round"/>
<path d="M10 9V6L8 7.5L10 9Z" fill="var(--mw-icon-glyph-content-blue, #1656A8)"/>
<path d="M7.5 10.5C7.5 11.0933 7.67595 11.6734 8.00559 12.1667C8.33524 12.6601 8.80377 13.0446 9.35195 13.2716C9.90013 13.4987 10.5033 13.5581 11.0853 13.4424C11.6672 13.3266 12.2018 13.0409 12.6213 12.6213C13.0409 12.2018 13.3266 11.6672 13.4424 11.0853C13.5581 10.5033 13.4987 9.90013 13.2716 9.35195C13.0446 8.80377 12.6601 8.33524 12.1667 8.00559C11.6734 7.67595 11.0933 7.5 10.5 7.5H10" stroke="var(--mw-icon-glyph-content-blue, #1656A8)" stroke-linecap="round"/>
</svg>
