<svg width="16" height="16" viewBox="0 0 16 16" fill="none" xmlns="http://www.w3.org/2000/svg">
<path d="M0.5 3H14.5V14.5C14.5 15.0523 14.0523 15.5 13.5 15.5H1.5C0.947716 15.5 0.5 15.0523 0.5 14.5V3Z" fill="var(--mw-icon-background-default-white, #FFFFFF)" stroke="var(--mw-icon-border-default-gray, #616161)"/>
<path d="M0.5 1.5C0.5 0.947715 0.947715 0.5 1.5 0.5H13.5C14.0523 0.5 14.5 0.947715 14.5 1.5V3.5H0.5V1.5Z" fill="var(--mw-icon-background-default-selection, #B4DEFF)" stroke="var(--mw-icon-border-default-blue, #1656A7)"/>
<path d="M7.5 8.5V9.5M7.5 9.5H4.5V10.5M7.5 9.5L10.5 9.50002V11" stroke="var(--mw-icon-glyph-disabled-gray, #888889)" stroke-linecap="square" stroke-linejoin="round"/>
<path d="M5.50002 7.5V5.5H9.50002V7.5H5.50002Z" fill="var(--mw-icon-background-default-medium-gray, #D9D9D9)"/>
<path d="M2.5 13.5V11.5H6.5V13.5H2.5Z" fill="var(--mw-icon-background-default-medium-gray, #D9D9D9)"/>
<path d="M8.5 13.5V11.5H12.5V13.5H8.5Z" fill="var(--mw-icon-background-default-medium-gray, #D9D9D9)"/>
<path d="M5.50002 7.5V5.5H9.50002V7.5H5.50002Z" stroke="var(--mw-icon-glyph-content-gray, #616162)" stroke-linecap="square" stroke-linejoin="round"/>
<path d="M2.5 13.5V11.5H6.5V13.5H2.5Z" stroke="var(--mw-icon-glyph-content-gray, #616162)" stroke-linecap="square" stroke-linejoin="round"/>
<path d="M8.5 13.5V11.5H12.5V13.5H8.5Z" stroke="var(--mw-icon-glyph-content-gray, #616162)" stroke-linecap="square" stroke-linejoin="round"/>
</svg>
