<svg width="16" height="16" viewBox="0 0 16 16" fill="none" xmlns="http://www.w3.org/2000/svg">
<path d="M1.5 1.5C1.5 0.947715 1.94772 0.5 2.5 0.5H10.5C11.0523 0.5 11.5 0.947715 11.5 1.5V10.5C11.5 11.0523 11.0523 11.5 10.5 11.5H2.5C1.94772 11.5 1.5 11.0523 1.5 10.5V1.5Z" fill="#E6E6E6" stroke="var(--mw-icon-border-default-gray, #616161)" stroke-linejoin="round"/>
<path d="M11.5 6.5H12.5" stroke="var(--mw-icon-border-default-gray, #616161)" stroke-linecap="round"/>
<path d="M0.5 6.5H1.5" stroke="var(--mw-icon-border-default-gray, #616161)" stroke-linecap="round"/>
<path d="M6.5 2.5H3.5L6.5 6.49995L9.47368 2.5H6.5ZM6.5 2.5V9.5" stroke="var(--mw-icon-glyph-content-gray, #616162)" stroke-linecap="round" stroke-linejoin="round"/>
<path d="M6 15.5C5.72386 15.5 5.5 15.2761 5.5 15L5.5 6C5.5 5.72386 5.72386 5.5 6 5.5L15 5.5C15.2761 5.5 15.5 5.72386 15.5 6L15.5 15C15.5 15.2761 15.2761 15.5 15 15.5L6 15.5Z" fill="var(--mw-icon-background-default-selection, #B4DEFF)" stroke="var(--mw-icon-border-default-blue, #1656A7)" stroke-linejoin="round"/>
<path d="M11 9V6L13 7.5L11 9Z" fill="var(--mw-icon-glyph-content-blue, #1656A8)"/>
<path d="M13.5 10.5C13.5 11.0933 13.3241 11.6734 12.9944 12.1667C12.6648 12.6601 12.1962 13.0446 11.6481 13.2716C11.0999 13.4987 10.4967 13.5581 9.91473 13.4424C9.33279 13.3266 8.79824 13.0409 8.37868 12.6213C7.95912 12.2018 7.6734 11.6672 7.55765 11.0853C7.44189 10.5033 7.5013 9.90013 7.72836 9.35195C7.95543 8.80377 8.33994 8.33524 8.83329 8.00559C9.32664 7.67595 9.90666 7.5 10.5 7.5H11" stroke="var(--mw-icon-glyph-content-blue, #1656A8)" stroke-linecap="round"/>
</svg>
