<svg width="16" height="16" viewBox="0 0 16 16" fill="none" xmlns="http://www.w3.org/2000/svg">
<path d="M0.5 1.5C0.5 0.947715 0.947715 0.5 1.5 0.5H10.5C11.0523 0.5 11.5 0.947715 11.5 1.5V10.5C11.5 11.0523 11.0523 11.5 10.5 11.5H1.5C0.947715 11.5 0.5 11.0523 0.5 10.5V1.5Z" fill="var(--mw-icon-background-default-white, #FFFFFF)" stroke="var(--mw-icon-border-default-green, #008013)" stroke-linejoin="round"/>
<path d="M3 3H6V6H3V3Z" fill="#FFD60A"/>
<path d="M6 6H9V9H6V6Z" fill="#FFD60A"/>
<path d="M6 3H9V6H6V3Z" fill="#3AC831"/>
<path d="M6 9L3 9L3 6L6 6L6 9Z" fill="#3AC831"/>
<path d="M2.5 2.5H9.5V9.5H2.5V2.5Z" stroke="var(--mw-icon-border-default-green, #008013)" stroke-linejoin="round"/>
<rect x="5.5" y="15.5" width="10" height="10" rx="0.5" transform="rotate(-90 5.5 15.5)" fill="var(--mw-icon-background-default-selection, #B4DEFF)" stroke="var(--mw-icon-border-default-blue, #1656A7)" stroke-linejoin="round"/>
<path d="M11 9V6L13 7.5L11 9Z" fill="var(--mw-icon-glyph-content-blue, #1656A8)"/>
<path d="M13.5 10.5C13.5 11.0933 13.3241 11.6734 12.9944 12.1667C12.6648 12.6601 12.1962 13.0446 11.6481 13.2716C11.0999 13.4987 10.4967 13.5581 9.91473 13.4424C9.33279 13.3266 8.79824 13.0409 8.37868 12.6213C7.95912 12.2018 7.6734 11.6672 7.55765 11.0853C7.44189 10.5033 7.5013 9.90013 7.72836 9.35195C7.95543 8.80377 8.33994 8.33524 8.83329 8.00559C9.32664 7.67595 9.90666 7.5 10.5 7.5H11" stroke="var(--mw-icon-glyph-content-blue, #1656A8)" stroke-linecap="round"/>
</svg>
