<svg width="16" height="16" viewBox="0 0 16 16" fill="none" xmlns="http://www.w3.org/2000/svg">
<path d="M0.5 0.5H14.5V14.5H0.5V0.5Z" stroke="var(--mw-icon-object-primary, #616160)" stroke-linejoin="round"/>
<path d="M11.5 8.5C11.5 9.29113 11.2654 10.0645 10.8259 10.7223C10.3864 11.3801 9.76164 11.8928 9.03073 12.1955C8.29983 12.4983 7.49556 12.5775 6.71964 12.4231C5.94371 12.2688 5.23098 11.8878 4.67157 11.3284C4.11216 10.769 3.7312 10.0563 3.57686 9.28036C3.42252 8.50444 3.50173 7.70017 3.80448 6.96927C4.10723 6.23836 4.61992 5.61365 5.27772 5.17412C5.93552 4.7346 6.70887 4.5 7.5 4.5" stroke="var(--mw-icon-object-primary, #616160)" stroke-linecap="round"/>
<path d="M7 7V2L10 4.5L7 7Z" fill="var(--mw-icon-object-primary, #616160)"/>
</svg>
