<svg width="16" height="16" viewBox="0 0 16 16" fill="none" xmlns="http://www.w3.org/2000/svg">
<path d="M2.5 11.5V3.5C2.5 2.94772 2.94772 2.5 3.5 2.5H11.5C12.0523 2.5 12.5 2.94772 12.5 3.5V11.5C12.5 12.0523 12.0523 12.5 11.5 12.5H3.5C2.94772 12.5 2.5 12.0523 2.5 11.5Z" fill="var(--mw-icon-background-default-white, #FFFFFF)" stroke="var(--mw-icon-border-default-gray, #616161)" stroke-linejoin="round"/>
<path d="M0.5 9.5V1.5C0.5 0.947715 0.947716 0.5 1.5 0.5H9.5C10.0523 0.5 10.5 0.947716 10.5 1.5V9.5C10.5 10.0523 10.0523 10.5 9.5 10.5H1.5C0.947715 10.5 0.5 10.0523 0.5 9.5Z" fill="white"/>
<path d="M10.5 5.78048C8.81404 2.73976 7.18596 2.73988 5.5 5.7806C4.11111 8.08518 2.18596 8.24505 0.5 5.20433" stroke="#0072BD" stroke-linecap="round"/>
<path d="M0.5 9.5V1.5C0.5 0.947715 0.947716 0.5 1.5 0.5H9.5C10.0523 0.5 10.5 0.947716 10.5 1.5V9.5C10.5 10.0523 10.0523 10.5 9.5 10.5H1.5C0.947715 10.5 0.5 10.0523 0.5 9.5Z" stroke="var(--mw-icon-border-default-gray, #616161)" stroke-linejoin="round"/>
<rect x="5.5" y="5.5" width="10" height="10" rx="1" fill="var(--mw-icon-background-default-selection, #B4DEFF)" stroke="var(--mw-icon-border-default-blue, #1656A7)"/>
<path d="M10.5 8.5C10.1044 8.5 9.71776 8.6173 9.38886 8.83706C9.05996 9.05682 8.80362 9.36918 8.65224 9.73463C8.50087 10.1001 8.46126 10.5022 8.53843 10.8902C8.6156 11.2781 8.80608 11.6345 9.08579 11.9142C9.36549 12.1939 9.72186 12.3844 10.1098 12.4616C10.4978 12.5387 10.8999 12.4991 11.2654 12.3478C11.6308 12.1964 11.9432 11.94 12.1629 11.6111C12.3827 11.2822 12.5 10.8956 12.5 10.5" stroke="var(--mw-icon-glyph-content-blue, #1656A8)" stroke-linecap="round" stroke-linejoin="round"/>
<path d="M10 10V7L12.5 8.5L10 10Z" fill="var(--mw-icon-glyph-content-blue, #1656A8)"/>
</svg>
