<svg width="16" height="16" viewBox="0 0 16 16" fill="none" xmlns="http://www.w3.org/2000/svg">
<g id="revert_hierarchy">
<path id="Vector 466" d="M7.5 5V7.5H3.5V10" stroke="var(--mw-icon-glyph-disabled-gray, #888889)" stroke-linecap="square" stroke-linejoin="round"/>
<path id="Vector 467" d="M7.5 5V7.5H12.5V10" stroke="var(--mw-icon-glyph-disabled-gray, #888889)" stroke-linecap="square" stroke-linejoin="round"/>
<path id="Vector 464" d="M0.5 12V10C0.5 9.72386 0.723858 9.5 1 9.5H6C6.27614 9.5 6.5 9.72386 6.5 10V12C6.5 12.2761 6.27614 12.5 6 12.5H1C0.723858 12.5 0.5 12.2761 0.5 12Z" fill="var(--mw-icon-background-medium-yellow, #FFEF91)" stroke="#674C06" stroke-linecap="square"/>
<path id="Rectangle 987" d="M11.6667 10.3571C10.7462 10.3571 10 11.0767 10 11.9643C10 12.8519 10.7462 13.5714 11.6667 13.5714H12.2222C12.8359 13.5714 13.3333 13.0917 13.3333 12.5C13.3333 12.3817 13.4328 12.2857 13.5556 12.2857H15.0556C15.209 12.2857 15.3333 12.4056 15.3333 12.5536C15.3333 14.1808 13.9653 15.5 12.2778 15.5H11.6667C9.64162 15.5 8 13.917 8 11.9643C8 10.0116 9.64162 8.42857 11.6667 8.42857H12V6.5L16 9.39286L12 12.2857V10.3571H11.6667Z" fill="var(--mw-icon-glyph-content-blue, #1656A8)"/>
<path id="Vector 463" d="M1.5 5V2C1.5 1.72386 1.72386 1.5 2 1.5H13C13.2761 1.5 13.5 1.72386 13.5 2V5C13.5 5.27614 13.2761 5.5 13 5.5H2C1.72386 5.5 1.5 5.27614 1.5 5Z" fill="var(--mw-icon-background-default-selection, #B4DEFF)" stroke="var(--mw-icon-border-default-blue, #1656A7)" stroke-linecap="square"/>
</g>
</svg>
