<svg width="16" height="16" viewBox="0 0 16 16" fill="none" xmlns="http://www.w3.org/2000/svg">
<path d="M0.5 1.5C0.5 0.947716 0.947715 0.5 1.5 0.5H13.5C14.0523 0.5 14.5 0.947715 14.5 1.5V13.5C14.5 14.0523 14.0523 14.5 13.5 14.5H1.5C0.947716 14.5 0.5 14.0523 0.5 13.5V1.5Z" fill="var(--mw-icon-background-default-white, #FFFFFF)" stroke="var(--mw-icon-border-default-gray, #616161)"/>
<path d="M1.5 13.5L4.22361 8.05279C4.393 7.714 4.73926 7.5 5.11803 7.5H9.88197C10.2607 7.5 10.607 7.286 10.7764 6.94721L13.5 1.5" stroke="#1171BE" stroke-linecap="square"/>
<path d="M0.5 1.5C0.5 0.947716 0.947715 0.5 1.5 0.5H13.5C14.0523 0.5 14.5 0.947715 14.5 1.5V13.5C14.5 14.0523 14.0523 14.5 13.5 14.5H1.5C0.947716 14.5 0.5 14.0523 0.5 13.5V1.5Z" stroke="var(--mw-icon-border-default-gray, #616161)"/>
</svg>
