<svg width="16" height="16" viewBox="0 0 16 16" fill="none" xmlns="http://www.w3.org/2000/svg">
<path d="M0.5 12.5V2.5C0.5 1.39543 1.39543 0.5 2.5 0.5H12.5C13.6046 0.5 14.5 1.39543 14.5 2.5V12.5C14.5 13.6046 13.6046 14.5 12.5 14.5H2.5C1.39543 14.5 0.5 13.6046 0.5 12.5Z" fill="#00A3A3"/>
<path d="M14 13H12.5V9.15385M10.5 9V13H8.5V8V3M6.5 3V13H4.5V3M2.5 3V13H1" stroke="var(--mw-icon-background-default-white, white)"/>
<path d="M12.5 10V9C12.5 8.44772 12.0523 8 11.5 8V8C10.9477 8 10.5 8.44772 10.5 9V10" stroke="var(--mw-icon-background-default-white, white)"/>
<path d="M8.5 4.5V3C8.5 2.44772 8.05228 2 7.5 2V2C6.94772 2 6.5 2.44772 6.5 3V4.5" stroke="var(--mw-icon-background-default-white, white)"/>
<path d="M4.5 4V3C4.5 2.44772 4.05228 2 3.5 2V2C2.94772 2 2.5 2.44772 2.5 3V4" stroke="var(--mw-icon-background-default-white, white)"/>
<path d="M12 3H11V5H12V3Z" fill="var(--mw-icon-background-default-white, white)"/>
<path d="M10 3H13L11.5 1L10 3Z" fill="var(--mw-icon-background-default-white, white)"/>
<path d="M10 5H13L11.5 7L10 5Z" fill="var(--mw-icon-background-default-white, white)"/>
<path d="M0.5 12.5V2.5C0.5 1.39543 1.39543 0.5 2.5 0.5H12.5C13.6046 0.5 14.5 1.39543 14.5 2.5V12.5C14.5 13.6046 13.6046 14.5 12.5 14.5H2.5C1.39543 14.5 0.5 13.6046 0.5 12.5Z" stroke="#02555C" stroke-linecap="round"/>

</svg>
