<svg width="16" height="16" viewBox="0 0 16 16" fill="none" xmlns="http://www.w3.org/2000/svg">
<path d="M0.5 1.5C0.5 0.947716 0.947715 0.5 1.5 0.5H13.5C14.0523 0.5 14.5 0.947715 14.5 1.5V13.5C14.5 14.0523 14.0523 14.5 13.5 14.5H1.5C0.947716 14.5 0.5 14.0523 0.5 13.5V1.5Z" fill="var(--mw-icon-background-default-white, #FFFFFF)" stroke="var(--mw-icon-border-default-gray, #616161)"/>
<path d="M0.5 1.5C0.5 0.947716 0.947715 0.5 1.5 0.5H13.5C14.0523 0.5 14.5 0.947715 14.5 1.5V13.5C14.5 14.0523 14.0523 14.5 13.5 14.5H1.5C0.947716 14.5 0.5 14.0523 0.5 13.5V1.5Z" stroke="var(--mw-icon-border-default-gray, #616161)"/>
<path d="M7.5 4.79105L7.5 7.50003M7.5 7.50003H6M7.5 7.50003H9M6 9.5H7.5M7.5 9.5H9M7.5 9.5L7.48598 12.5M7.48598 12.5L7.48568 12.5647M7.48598 12.5H2M7.48598 12.5H13" stroke="var(--mw-icon-glyph-content-gray, #616162)" stroke-linejoin="round"/>
<path d="M2 4.50003L3.51349 4.50002C3.51349 3.95408 3.59091 2.62045 4 2.5C4.24902 2.42667 4.68794 3.03787 4.99898 3.641M4.99898 3.641C5.20602 4.04247 5.3564 4.44035 5.3564 4.63039C5.3564 4.90332 5.20455 5.49997 5 5.49997C4.79546 5.49997 4.69947 4.89913 4.69947 4.63039C4.69947 4.42619 4.81743 4.03392 4.99898 3.641ZM4.99898 3.641C5.25644 3.0838 5.64179 2.5253 6 2.5C6.486 2.46567 6.51854 3.86309 6.51854 4.50002L8.5 4.49999C8.5 3.95405 8.59091 2.62041 9 2.49995C9.28141 2.41708 9.72765 3.23195 9.98553 3.93377M9.98553 3.93377C10.1077 4.26638 10.1876 4.5736 10.1876 4.74783C10.1876 5.02076 10.1997 5.50258 9.99513 5.50258C9.79058 5.50258 9.77855 5.0208 9.77855 4.74783C9.77855 4.55718 9.85912 4.2554 9.98553 3.93377ZM9.98553 3.93377C10.2344 3.30057 10.6609 2.59045 11 2.49995C11.4707 2.37432 11.5 3.86306 11.5 4.49999L13 4.49999" stroke="var(--mw-icon-glyph-content-gray, #616162)" stroke-linejoin="round"/>
</svg>
