<svg width="16" height="16" viewBox="0 0 16 16" fill="none" xmlns="http://www.w3.org/2000/svg">
<path d="M0.5 2.5C0.5 1.94772 0.947715 1.5 1.5 1.5H13.5C14.0523 1.5 14.5 1.94772 14.5 2.5V13.5C14.5 14.0523 14.0523 14.5 13.5 14.5H1.5C0.947716 14.5 0.5 14.0523 0.5 13.5V2.5Z" fill="var(--mw-icon-background-default-white, #FFFFFF)" stroke="var(--mw-icon-border-default-gray, #616161)"/>
<path d="M7.5 4.5V11.5" stroke="var(--mw-icon-glyph-content-gray, #616162)" stroke-linecap="square"/>
<path d="M2 3.5H3.64286C4.11624 3.5 4.5 3.88376 4.5 4.35714C4.5 4.43604 4.56396 4.5 4.64286 4.5H4.69098C5.13779 4.5 5.5 4.86221 5.5 5.30902C5.5 5.43461 5.47076 5.55848 5.41459 5.67082L4.84164 6.81672C4.63226 7.23548 4.20426 7.5 3.73607 7.5H3.5C2.94772 7.5 2.5 7.05228 2.5 6.5C2.5 5.94772 2.94772 5.5 3.5 5.5H3.73607C4.20426 5.5 4.63226 5.76452 4.84164 6.18328L5.27639 7.05279C5.42344 7.34689 5.5 7.67119 5.5 8C5.5 8.32881 5.42344 8.65311 5.27639 8.94721L5 9.5M5 9.5L4.84164 9.81672C4.63226 10.2355 4.20426 10.5 3.73607 10.5H3.5C2.94772 10.5 2.5 10.0523 2.5 9.5C2.5 8.94772 2.94772 8.5 3.5 8.5H3.73607C4.20426 8.5 4.63226 8.76452 4.84164 9.18328L5 9.5ZM5 9.5L5.41459 10.3292C5.47076 10.4415 5.5 10.5654 5.5 10.691C5.5 11.1378 5.13779 11.5 4.69098 11.5H4.64286C4.56396 11.5 4.5 11.564 4.5 11.6429C4.5 12.1162 4.11624 12.5 3.64286 12.5H2M13 12.5H11.3571C10.8838 12.5 10.5 12.1162 10.5 11.6429C10.5 11.564 10.436 11.5 10.3571 11.5H10.309C9.86221 11.5 9.5 11.1378 9.5 10.691C9.5 10.5654 9.52924 10.4415 9.58541 10.3292L10.1584 9.18328C10.3677 8.76452 10.7957 8.5 11.2639 8.5H11.5C12.0523 8.5 12.5 8.94772 12.5 9.5C12.5 10.0523 12.0523 10.5 11.5 10.5H11.2639C10.7957 10.5 10.3677 10.2355 10.1584 9.81672L9.72361 8.94721C9.57656 8.65311 9.5 8.32881 9.5 8C9.5 7.67119 9.57656 7.34689 9.72361 7.05279L10 6.5M10 6.5L10.1584 6.18328C10.3677 5.76452 10.7957 5.5 11.2639 5.5H11.5C12.0523 5.5 12.5 5.94772 12.5 6.5C12.5 7.05228 12.0523 7.5 11.5 7.5H11.2639C10.7957 7.5 10.3677 7.23548 10.1584 6.81672L10 6.5ZM10 6.5L9.58541 5.67082C9.52924 5.55848 9.5 5.43461 9.5 5.30902C9.5 4.86221 9.86221 4.5 10.309 4.5H10.3571C10.436 4.5 10.5 4.43604 10.5 4.35714C10.5 3.88376 10.8838 3.5 11.3571 3.5L13 3.5" stroke="var(--mw-icon-glyph-content-gray, #616162)"/>
</svg>
