<svg width="16" height="16" viewBox="0 0 16 16" fill="none" xmlns="http://www.w3.org/2000/svg">
<path d="M0.5 1.5C0.5 0.947716 0.947715 0.5 1.5 0.5H13.5C14.0523 0.5 14.5 0.947715 14.5 1.5V13.5C14.5 14.0523 14.0523 14.5 13.5 14.5H1.5C0.947716 14.5 0.5 14.0523 0.5 13.5V1.5Z" fill="var(--mw-icon-background-default-white, #FFFFFF)" stroke="var(--mw-icon-border-default-gray, #616161)"/>
<path d="M0.5 1.5C0.5 0.947716 0.947715 0.5 1.5 0.5H13.5C14.0523 0.5 14.5 0.947715 14.5 1.5V13.5C14.5 14.0523 14.0523 14.5 13.5 14.5H1.5C0.947716 14.5 0.5 14.0523 0.5 13.5V1.5Z" stroke="var(--mw-icon-border-default-gray, #616161)"/>
<path d="M12.5 7.14536C12.5 5.98173 11.6937 5.49619 10.1319 5.4376C10.1489 4.91857 10.2423 4.75114 10.9637 4.75114V4.5H8.5108V4.75114C9.23225 4.75114 9.34259 4.9102 9.35108 5.4376C7.79784 5.50457 7 6.06545 7 7.21233C7 8.39269 7.78086 8.93683 9.35108 8.99543C9.34259 9.61492 9.22377 9.74886 8.5108 9.74886V10H10.9637V9.74886C10.2593 9.74886 10.1404 9.60654 10.1319 8.99543C11.6937 8.92009 12.5 8.35921 12.5 7.14536ZM11.6343 7.1621C11.6343 8.28387 11.1674 8.62709 10.1319 8.68569V5.74734C11.0826 5.82268 11.6343 6.20776 11.6343 7.1621ZM7.85725 7.11187C7.85725 6.13242 8.40895 5.80594 9.35108 5.73896V8.67732C8.3071 8.58524 7.85725 8.12481 7.85725 7.11187Z" fill="var(--mw-icon-glyph-content-gray, #616162)"/>
<path d="M7.724 10V9.76737L5.44447 4.5H5.12833L2.724 9.76737V10H7.724ZM6.60919 9.33535H3.38956L5.07009 5.5219H5.10337L6.60919 9.33535Z" fill="var(--mw-icon-glyph-content-gray, #616162)"/>
</svg>
