<svg width="16" height="16" viewBox="0 0 16 16" fill="none" xmlns="http://www.w3.org/2000/svg">
<path d="M0.5 1.5C0.5 0.947716 0.947715 0.5 1.5 0.5H13.5C14.0523 0.5 14.5 0.947715 14.5 1.5V13.5C14.5 14.0523 14.0523 14.5 13.5 14.5H1.5C0.947716 14.5 0.5 14.0523 0.5 13.5V1.5Z" fill="var(--mw-icon-background-default-white, #FFFFFF)" stroke="var(--mw-icon-border-default-gray, #616161)"/>
<path d="M0.5 1.5C0.5 0.947716 0.947715 0.5 1.5 0.5H13.5C14.0523 0.5 14.5 0.947715 14.5 1.5V13.5C14.5 14.0523 14.0523 14.5 13.5 14.5H1.5C0.947716 14.5 0.5 14.0523 0.5 13.5V1.5Z" stroke="var(--mw-icon-border-default-gray, #616161)"/>
<path d="M7.5 6.50005V6.00005C7.32176 6.00005 7.15701 6.09492 7.06754 6.24908C6.97808 6.40324 6.97745 6.59336 7.06588 6.74812L7.5 6.50005ZM11.5 6.50005L11.9341 6.74812C12.0226 6.59336 12.0219 6.40324 11.9325 6.24908C11.843 6.09492 11.6782 6.00005 11.5 6.00005V6.50005ZM9.5 10L9.06588 10.2481L9.5 11.0078L9.93412 10.2481L9.5 10ZM11.0659 6.25198L9.06588 9.75198L9.93412 10.2481L11.9341 6.74812L11.0659 6.25198ZM9.93412 9.75198L7.93412 6.25198L7.06588 6.74812L9.06588 10.2481L9.93412 9.75198ZM7.5 7.00005H9.5V6.00005H7.5V7.00005ZM9.5 7.00005H11.5V6.00005H9.5V7.00005ZM9 6.50005V14H10V6.50005H9Z" fill="var(--mw-icon-glyph-content-gray, #616162)"/>
<path d="M2.5 4.5C2.76264 4.5 3.02272 4.44827 3.26537 4.34776C3.50802 4.24725 3.7285 4.09993 3.91421 3.91421C4.09993 3.7285 4.24725 3.50802 4.34776 3.26537C4.44827 3.02272 4.5 2.76264 4.5 2.5M2.5 6.5C3.02529 6.5 3.54543 6.39654 4.03073 6.19552C4.51604 5.9945 4.95699 5.69986 5.32843 5.32843C5.69986 4.95699 5.9945 4.51604 6.19552 4.03073C6.39654 3.54543 6.5 3.02529 6.5 2.5" stroke="var(--mw-icon-glyph-content-dark-gray, #333333)" stroke-linecap="square"/>
</svg>
