<svg width="16" height="16" viewBox="0 0 16 16" fill="none" xmlns="http://www.w3.org/2000/svg">
<path d="M0.5 1.5C0.5 0.947716 0.947715 0.5 1.5 0.5H13.5C14.0523 0.5 14.5 0.947715 14.5 1.5V13.5C14.5 14.0523 14.0523 14.5 13.5 14.5H1.5C0.947716 14.5 0.5 14.0523 0.5 13.5V1.5Z" fill="var(--mw-icon-background-default-white, #FFFFFF)" stroke="var(--mw-icon-border-default-gray, #616161)"/>
<path d="M0.5 1.5C0.5 0.947716 0.947715 0.5 1.5 0.5H13.5C14.0523 0.5 14.5 0.947715 14.5 1.5V13.5C14.5 14.0523 14.0523 14.5 13.5 14.5H1.5C0.947716 14.5 0.5 14.0523 0.5 13.5V1.5Z" stroke="var(--mw-icon-border-default-gray, #616161)"/>
<path d="M10.5 2.5L10.1464 2.85355C10.2402 2.94732 10.3674 3 10.5 3V2.5ZM10 2L10.3536 1.64645C10.2399 1.5328 10.0786 1.48071 9.91991 1.50646C9.76126 1.5322 9.62466 1.63264 9.55278 1.77639L10 2ZM8 2L8.44721 1.77639C8.36251 1.607 8.18938 1.5 8 1.5C7.81061 1.5 7.63748 1.607 7.55278 1.77639L8 2ZM7 4L6.55278 4.22361C6.63748 4.393 6.81061 4.5 7 4.5C7.18938 4.5 7.36251 4.393 7.44721 4.22361L7 4ZM6 2L6.44721 1.77639C6.3623 1.60658 6.18855 1.49951 5.99869 1.5C5.80884 1.5005 5.63564 1.60847 5.55162 1.77873L6 2ZM5 4.02632L4.55162 4.24759C4.63585 4.41826 4.80967 4.52632 5 4.52632C5.19032 4.52632 5.36414 4.41826 5.44837 4.24759L5 4.02632ZM4 2L4.44837 1.77873C4.37704 1.63419 4.24041 1.5329 4.08138 1.50667C3.92235 1.48043 3.76042 1.53247 3.64645 1.64644L4 2ZM12.5 2.5H13C13 2.22386 12.7761 2 12.5 2V2.5ZM3.49998 2.5V3C3.63259 3 3.75976 2.94732 3.85353 2.85356L3.49998 2.5ZM12.5 7.5L12.5006 8C12.7765 7.99966 13 7.7759 13 7.5H12.5ZM9 4L8.55278 4.22361C8.63748 4.393 8.81061 4.5 9 4.5C9.18938 4.5 9.36251 4.393 9.44721 4.22361L9 4ZM5.99998 5.49994V5.99994V5.49994ZM6.49998 8.10409H6.99998H6.49998ZM8.99998 5.5L8.99995 6L8.99998 5.5ZM10.5 7.50245H10C10 7.63516 10.0528 7.76243 10.1467 7.85622C10.2406 7.95001 10.3679 8.00261 10.5006 8.00245L10.5 7.50245ZM4.49999 7.50002L4.49996 8.00002C4.63257 8.00003 4.75976 7.94735 4.85353 7.85358C4.94731 7.75982 4.99999 7.63263 4.99999 7.50002H4.49999ZM2.5 7.4999L2.50003 6.9999C2.36742 6.99989 2.24024 7.05257 2.14646 7.14633C2.05269 7.2401 2 7.36728 2 7.4999H2.5ZM8.49999 11.5H7.99999V11.5L8.49999 11.5ZM2.5 11.5H2C2 11.7762 2.22386 12 2.5 12V11.5ZM10.8536 2.14645L10.3536 1.64645L9.64644 2.35355L10.1464 2.85355L10.8536 2.14645ZM7.55278 1.77639L6.55278 3.77639L7.44721 4.22361L8.44721 2.22361L7.55278 1.77639ZM7.44721 3.77639L6.44721 1.77639L5.55278 2.22361L6.55278 4.22361L7.44721 3.77639ZM5.55162 1.77873L4.55162 3.80504L5.44837 4.24759L6.44837 2.22127L5.55162 1.77873ZM5.44837 3.80504L4.44837 1.77873L3.55162 2.22127L4.55162 4.24759L5.44837 3.80504ZM10.5 3H12.5V2L10.5 2V3ZM3.64645 1.64644L3.14643 2.14644L3.85353 2.85356L4.35354 2.35356L3.64645 1.64644ZM3.49998 2H2V3H3.49998V2ZM12 2.5V7.5H13V2.5H12ZM9.55278 1.77639L8.55278 3.77639L9.44721 4.22361L10.4472 2.22361L9.55278 1.77639ZM9.44721 3.77639L8.44721 1.77639L7.55278 2.22361L8.55278 4.22361L9.44721 3.77639ZM5.99998 5.99994C6.35498 5.99994 6.74937 6.17239 7.11385 6.4806L7.75955 5.71701C7.28266 5.31374 6.66745 4.99994 5.99998 4.99994V5.99994ZM7.11385 6.4806C7.38018 6.70582 7.60773 6.98527 7.76641 7.268C7.92818 7.55627 7.99998 7.81448 7.99998 7.99994H8.99998C8.99998 7.58801 8.85227 7.15958 8.63847 6.7786C8.42156 6.39209 8.11747 6.01967 7.75955 5.71701L7.11385 6.4806ZM7.99998 7.99994C7.99998 8.84114 7.54285 8.99994 7.49998 8.99994V9.99994C8.30368 9.99994 8.99998 9.15875 8.99998 7.99994H7.99998ZM7.49998 8.99994C7.43516 8.99994 6.99998 8.81407 6.99998 8.10409H5.99998C5.99998 9.18591 6.71825 9.99994 7.49998 9.99994V8.99994ZM6.99998 8.10409C6.99998 7.58556 7.26881 6.91645 7.76864 6.47272L7.10475 5.72489C6.39257 6.35714 5.99998 7.29781 5.99998 8.10409H6.99998ZM7.76864 6.47272C8.09152 6.18609 8.50277 5.99997 8.99995 6L9.00002 5C8.23204 4.99996 7.59015 5.29398 7.10475 5.72489L7.76864 6.47272ZM8.99995 6C9.25252 6.00002 9.49254 6.16028 9.69712 6.49864C9.90154 6.83675 10 7.24829 10 7.50245H11C11 7.0598 10.8484 6.47014 10.5529 5.98125C10.2574 5.49261 9.74745 5.00005 9.00002 5L8.99995 6ZM10.5006 8.00245L12.5006 8L12.4994 7L10.4994 7.00245L10.5006 8.00245ZM4.99999 7.50002C4.99999 7.19838 5.00612 6.80201 5.14544 6.48412C5.21017 6.33642 5.29669 6.22387 5.41254 6.14566C5.52701 6.06839 5.70656 5.99994 5.99998 5.99994V4.99994C5.54341 4.99994 5.16046 5.10932 4.85305 5.31683C4.54703 5.5234 4.3523 5.80259 4.22953 6.08272C3.99385 6.62049 3.99999 7.22416 3.99999 7.50002H4.99999ZM2.49997 7.9999L4.49996 8.00002L4.50002 7.00002L2.50003 6.9999L2.49997 7.9999ZM7.99999 10V11.5H8.99999V10H7.99999ZM7.99999 11.5L8 13L9 13L8.99999 11.5L7.99999 11.5ZM8.49999 12H13V11H8.49999V12ZM3 11.5V7.4999H2V11.5H3ZM6.99999 11.5V10H5.99999V11.5H6.99999ZM2.5 12H6.49999V11H2.5V12ZM5.99999 11.5L6 13L7 13L6.99999 11.5L5.99999 11.5Z" fill="var(--mw-icon-glyph-content-gray, #616162)"/>
</svg>
