<svg width="16" height="16" viewBox="0 0 16 16" fill="none" xmlns="http://www.w3.org/2000/svg">
<path d="M0.5 1.5C0.5 0.947716 0.947715 0.5 1.5 0.5H13.5C14.0523 0.5 14.5 0.947715 14.5 1.5V13.5C14.5 14.0523 14.0523 14.5 13.5 14.5H1.5C0.947716 14.5 0.5 14.0523 0.5 13.5V1.5Z" fill="var(--mw-icon-background-default-white, #FFFFFF)" stroke="var(--mw-icon-border-default-gray, #616161)"/>
<path d="M0.5 1.5C0.5 0.947716 0.947715 0.5 1.5 0.5H13.5C14.0523 0.5 14.5 0.947715 14.5 1.5V13.5C14.5 14.0523 14.0523 14.5 13.5 14.5H1.5C0.947716 14.5 0.5 14.0523 0.5 13.5V1.5Z" stroke="var(--mw-icon-border-default-gray, #616161)"/>
<path d="M3.5 4H3V4.30902L3.27639 4.44721L3.5 4ZM4.5 4.5L4.72361 4.94721C4.893 4.86252 5 4.68939 5 4.5C5 4.31061 4.893 4.13748 4.72361 4.05279L4.5 4.5ZM2.5 5.5L2.27639 5.05279C2.107 5.13748 2 5.31061 2 5.5C2 5.68939 2.107 5.86252 2.27639 5.94721L2.5 5.5ZM4.5 6.5L4.72361 6.94721C4.893 6.86252 5 6.68939 5 6.5C5 6.31061 4.893 6.13748 4.72361 6.05279L4.5 6.5ZM2.5 7.5L2.27639 7.05279C2.107 7.13748 2 7.31061 2 7.5C2 7.68939 2.107 7.86252 2.27639 7.94721L2.5 7.5ZM4.5 8.5L4.72361 8.94721C4.893 8.86252 5 8.68939 5 8.5C5 8.31061 4.893 8.13748 4.72361 8.05279L4.5 8.5ZM4.5 10L4.85355 10.3536C4.98093 10.2262 5.02994 10.0401 4.98186 9.86653C4.93377 9.69293 4.79603 9.55862 4.62127 9.51493L4.5 10ZM3.5 11L3.14645 10.6464L3 10.7929V11H3.5ZM2.5 9.5L2.27639 9.05279C2.08924 9.14636 1.98015 9.34657 2.00299 9.55456C2.02582 9.76255 2.17574 9.93432 2.37873 9.98507L2.5 9.5ZM8.5 4.5V5C8.77614 5 9 4.77614 9 4.5H8.5ZM8.5 10.5H9C9 10.2239 8.77614 10 8.5 10V10.5ZM6.5 7.4842L6.02109 7.34052C5.99248 7.43588 5.99299 7.53762 6.02256 7.63269L6.5 7.4842ZM2 3H13V2H2V3ZM3 2.5V4H4V2.5H3ZM3.27639 4.44721L4.27639 4.94721L4.72361 4.05279L3.72361 3.55279L3.27639 4.44721ZM4.27639 4.05279L2.27639 5.05279L2.72361 5.94721L4.72361 4.94721L4.27639 4.05279ZM2.27639 5.94721L4.27639 6.94721L4.72361 6.05279L2.72361 5.05279L2.27639 5.94721ZM4.27639 6.05279L2.27639 7.05279L2.72361 7.94721L4.72361 6.94721L4.27639 6.05279ZM2.27639 7.94721L4.27639 8.94721L4.72361 8.05279L2.72361 7.05279L2.27639 7.94721ZM4.14645 9.64645L3.14645 10.6464L3.85355 11.3536L4.85355 10.3536L4.14645 9.64645ZM3 11V12.5H4V11H3ZM11 2.5V6.5H12V2.5H11ZM11.5 6H10V7H11.5V6ZM11.5 7H13V6H11.5V7ZM10 9H11.5V8H10V9ZM11.5 9H13V8H11.5V9ZM11 8.5V12.5H12V8.5H11ZM2 13H3.5V12H2V13ZM3.5 13H11.5V12H3.5V13ZM11.5 13H13V12H11.5V13ZM4.27639 8.05279L2.27639 9.05279L2.72361 9.94721L4.72361 8.94721L4.27639 8.05279ZM2.37873 9.98507L4.37873 10.4851L4.62127 9.51493L2.62127 9.01493L2.37873 9.98507ZM8 2.5V4.5H9V2.5H8ZM8.5 4.5C8.5 4 8.49981 4 8.49961 4C8.49953 4 8.49933 4 8.49917 4C8.49887 4 8.49853 4 8.49816 4C8.49742 4.00001 8.49656 4.00001 8.49557 4.00001C8.49361 4.00003 8.49115 4.00005 8.48821 4.00008C8.48235 4.00015 8.47459 4.00028 8.46504 4.00052C8.44597 4.001 8.41972 4.00191 8.38732 4.00365C8.32264 4.00711 8.23261 4.01391 8.12548 4.0273C7.91382 4.05376 7.62269 4.10749 7.32444 4.21934C7.02826 4.3304 6.69816 4.50884 6.4388 4.80063C6.17025 5.10274 6 5.50207 6 6H7C7 5.74793 7.07975 5.58476 7.1862 5.46499C7.30184 5.33491 7.47174 5.2321 7.67556 5.15566C7.87731 5.08001 8.08618 5.03999 8.24952 5.01958C8.32989 5.00953 8.39611 5.00461 8.44081 5.00221C8.46309 5.00102 8.47981 5.00047 8.49004 5.00021C8.49514 5.00008 8.49861 5.00003 8.50031 5.00001C8.50116 5 8.50157 5 8.50153 5C8.5015 5 8.50137 5 8.50111 5C8.50099 5 8.50083 5 8.50064 5C8.50055 5 8.50039 5 8.50034 5C8.50018 5 8.5 5 8.5 4.5ZM9 12.5V10.5H8V12.5H9ZM8.5 10.5C8.5 10 8.50018 10 8.50034 10C8.50039 10 8.50055 10 8.50064 10C8.50083 10 8.50099 10 8.50111 10C8.50137 10 8.5015 10 8.50153 10C8.50157 10 8.50116 10 8.50031 9.99999C8.49861 9.99997 8.49514 9.99992 8.49004 9.99979C8.47981 9.99953 8.46309 9.99898 8.44081 9.99779C8.39611 9.99539 8.32989 9.99047 8.24952 9.98042C8.08618 9.96001 7.87731 9.91999 7.67556 9.84434C7.47174 9.7679 7.30184 9.66509 7.1862 9.53501C7.07975 9.41524 7 9.25207 7 9H6C6 9.49793 6.17025 9.89726 6.4388 10.1994C6.69816 10.4912 7.02826 10.6696 7.32444 10.7807C7.62269 10.8925 7.91382 10.9462 8.12548 10.9727C8.23261 10.9861 8.32264 10.9929 8.38732 10.9964C8.41972 10.9981 8.44597 10.999 8.46504 10.9995C8.47459 10.9997 8.48235 10.9998 8.48821 10.9999C8.49115 11 8.49361 11 8.49557 11C8.49656 11 8.49742 11 8.49816 11C8.49853 11 8.49887 11 8.49917 11C8.49933 11 8.49953 11 8.49961 11C8.49981 11 8.5 11 8.5 10.5ZM6.02256 7.63269C6.34991 8.68523 7.38241 9.04085 8.20232 8.99611C8.62244 8.97319 9.04957 8.84764 9.38604 8.60916C9.72983 8.36548 10 7.98299 10 7.4842H9C9 7.58503 8.95353 7.69 8.80777 7.79331C8.65469 7.90181 8.41935 7.98278 8.14783 7.9976C7.58446 8.02834 7.11697 7.78434 6.97744 7.33571L6.02256 7.63269ZM10 7.4842C10 6.97945 9.72099 6.60013 9.37073 6.36394C9.02923 6.13366 8.59861 6.01878 8.17968 6.00214C7.37421 5.97015 6.32872 6.31517 6.02109 7.34052L6.97891 7.62789C7.0975 7.2326 7.55201 6.978 8.13999 7.00135C8.41778 7.01239 8.65724 7.08893 8.81164 7.19305C8.95728 7.29126 9 7.38933 9 7.4842H10ZM6 6V9H7V6H6Z" fill="var(--mw-icon-glyph-content-gray, #616162)"/>
</svg>
