<svg width="16" height="16" viewBox="0 0 16 16" fill="none" xmlns="http://www.w3.org/2000/svg">
<path d="M0.5 2.5C0.5 1.39543 1.39543 0.5 2.5 0.5H12.5C13.6046 0.5 14.5 1.39543 14.5 2.5V12.5C14.5 13.6046 13.6046 14.5 12.5 14.5H2.5C1.39543 14.5 0.5 13.6046 0.5 12.5V2.5Z" fill="var(--mw-icon-background-default-white, #FFFFFF)" stroke="var(--mw-icon-border-default-gray, #616161)"/>
<path d="M0.5 2.5C0.5 1.39543 1.39543 0.5 2.5 0.5H12.5C13.6046 0.5 14.5 1.39543 14.5 2.5V12.5C14.5 13.6046 13.6046 14.5 12.5 14.5H2.5C1.39543 14.5 0.5 13.6046 0.5 12.5V2.5Z" stroke="var(--mw-icon-border-default-gray, #616161)"/>
<circle cx="7.5" cy="7.5" r="5" fill="white" stroke="var(--mw-icon-glyph-content-gray, #616162)"/>
<circle cx="9.125" cy="7.625" r="3.125" fill="white" stroke="var(--mw-icon-glyph-content-gray, #616162)"/>
<path d="M2.5 7.5H12.5" stroke="var(--mw-icon-glyph-content-gray, #616162)"/>
<path d="M12.3798 7.4375C9.07278 7.4375 5.65029 5.78151 4.6875 3.4375M4.375 11.5C4.99851 9.39474 8.84422 7.5 12.065 7.5" stroke="var(--mw-icon-glyph-content-gray, #616162)"/>
</svg>
