<svg width="16" height="16" viewBox="0 0 16 16" fill="none" xmlns="http://www.w3.org/2000/svg">
<rect x="0.5" y="0.5" width="15" height="15" rx="2" fill="#121212" stroke="#FFD60A"/>
<path d="M13 8C13 10.7614 10.7614 13 8 13C7.05959 13 6.17981 12.7404 5.42844 12.2889L7.13141 10.5859C7.4043 10.6776 7.69646 10.7272 8.00022 10.7272C9.50645 10.7272 10.7275 9.50619 10.7275 7.99996C10.7275 7.69619 10.6778 7.40403 10.5862 7.13114L12.2889 5.42844C12.7404 6.17981 13 7.05959 13 8Z" fill="#FFD60A"/>
<path d="M9.29167 5.59723L10.9363 3.95258C10.1118 3.3534 9.09719 3 8 3C5.23858 3 3 5.23858 3 8C3 9.09719 3.3534 10.1118 3.95258 10.9363L5.5975 9.2914C5.39044 8.90699 5.27295 8.46719 5.27295 7.99996C5.27295 6.49372 6.49399 5.27268 8.00022 5.27268C8.46746 5.27268 8.90725 5.39018 9.29167 5.59723Z" fill="#FFD60A"/>
</svg>
