<svg width="16" height="16" viewBox="0 0 16 16" fill="none" xmlns="http://www.w3.org/2000/svg">
<path d="M0.5 2C0.5 1.17157 1.17157 0.5 2 0.5H13C13.8284 0.5 14.5 1.17157 14.5 2V14C14.5 14.8284 13.8284 15.5 13 15.5H2C1.17157 15.5 0.5 14.8284 0.5 14V2Z" fill="var(--mw-icon-glyph-content-green, #008014)"/>
<path d="M2 1.00006H13V16.0001H2V1.00006Z" fill="var(--mw-icon-background-default-medium-gray, #D9D9D9)"/>
<path d="M3.00049 1H12.0005V15H3.00049V1Z" fill="var(--mw-icon-glyph-content-dark-gray, #333333)"/>
<path d="M0.5 2.5C0.5 1.39543 1.39543 0.5 2.5 0.5H12.5C13.6046 0.5 14.5 1.39543 14.5 2.5V13.5C14.5 14.6046 13.6046 15.5 12.5 15.5H2.5C1.39543 15.5 0.5 14.6046 0.5 13.5V2.5Z" stroke="var(--mw-icon-border-default-gray, #616161)"/>
<rect x="6" y="9" width="3" height="4" fill="#4DBEEE"/>
<path fill-rule="evenodd" clip-rule="evenodd" d="M4.21665 4.06686C5.12839 3.43495 6.31853 3 7.5 3C8.68147 3 9.87161 3.33463 10.7833 3.96654C11.017 4.12844 11.0699 4.54223 10.9017 4.76701C10.7334 4.99179 10.4076 5.04276 10.174 4.88086C9.41088 4.35193 8.42969 4.00317 7.5 4.00317C6.5703 4.00317 5.58912 4.35193 4.82597 4.88086C4.59237 5.04276 4.26659 4.99179 4.09834 4.76701C3.93008 4.54223 3.98305 4.22876 4.21665 4.06686ZM5.52728 6.59138C6.09669 6.19673 6.79013 5.98535 7.5 5.98535C8.20987 5.98535 8.90332 6.19673 9.47273 6.59138C9.70633 6.75328 9.7593 7.06675 9.59104 7.29153C9.42279 7.51631 9.09701 7.56728 8.86341 7.40538C8.47574 7.13669 7.99651 6.98852 7.5 6.98852C7.00349 6.98852 6.52427 7.13669 6.13659 7.40538C5.90299 7.56728 5.57722 7.51631 5.40896 7.29153C5.2407 7.06675 5.29368 6.75328 5.52728 6.59138Z" fill="var(--mw-icon-background-default-light-gray, #F5F5F5)"/>
</svg>
