<svg width="16" height="16" viewBox="0 0 16 16" fill="none" xmlns="http://www.w3.org/2000/svg">
<path d="M0.5 12.5V2.5C0.5 1.39543 1.39543 0.5 2.5 0.5H12.5C13.6046 0.5 14.5 1.39543 14.5 2.5V12.5C14.5 13.6046 13.6046 14.5 12.5 14.5H2.5C1.39543 14.5 0.5 13.6046 0.5 12.5Z" fill="#E6E6E6"/>
<path d="M3.5 12.5V10.5H4.5L4 11.5L4.5 12.5" stroke="var(--mw-icon-glyph-content-dark-gray, #333333)" stroke-linecap="round" stroke-linejoin="round"/>
<path d="M6.5 12V11C6.5 10.7239 6.72386 10.5 7 10.5H8C8.27614 10.5 8.5 10.7239 8.5 11V12C8.5 12.2761 8.27614 12.5 8 12.5H7C6.72386 12.5 6.5 12.2761 6.5 12Z" stroke="var(--mw-icon-glyph-content-dark-gray, #333333)" stroke-linecap="round" stroke-linejoin="round"/>
<path d="M9.5 7.5H4.5V3.5H10.5" stroke="var(--mw-icon-glyph-content-gray, #616162)" stroke-linecap="round" stroke-linejoin="round"/>
<ellipse cx="10.5" cy="3.5" rx="2" ry="1" fill="var(--mw-icon-background-medium-yellow, #FFEF91)" stroke="var(--mw-icon-glyph-content-yellow, #674C07)"/>
<path d="M7.45854 6.58292C7.48395 6.5321 7.53589 6.5 7.59271 6.5H11.2573C11.3688 6.5 11.4413 6.61735 11.3915 6.71708L10.5415 8.41708C10.5161 8.4679 10.4641 8.5 10.4073 8.5H6.74271C6.6312 8.5 6.55867 8.38265 6.60854 8.28292L7.45854 6.58292Z" fill="#E6BFFF" stroke="#8D1FD7"/>
<path d="M2.5 2.5H6.5V4.5H2.5V2.5Z" fill="var(--mw-icon-background-medium-blue, #83CAFF)" stroke="var(--mw-icon-glyph-content-blue, #1656A8)" stroke-linejoin="round"/>
<path d="M0.5 12.5V2.5C0.5 1.39543 1.39543 0.5 2.5 0.5H12.5C13.6046 0.5 14.5 1.39543 14.5 2.5V12.5C14.5 13.6046 13.6046 14.5 12.5 14.5H2.5C1.39543 14.5 0.5 13.6046 0.5 12.5Z" stroke="var(--mw-icon-glyph-disabled-gray, #888889)" stroke-linecap="round"/>
<path d="M11.5 10.5H10.5L11.5 12.5H10.5" stroke="var(--mw-icon-glyph-content-dark-gray, #333333)" stroke-linecap="round" stroke-linejoin="round"/>
</svg>
