<svg width="16" height="16" viewBox="0 0 16 16" fill="none" xmlns="http://www.w3.org/2000/svg">
<path d="M0.5 12.5V2.5C0.5 1.39543 1.39543 0.5 2.5 0.5H12.5C13.6046 0.5 14.5 1.39543 14.5 2.5V12.5C14.5 13.6046 13.6046 14.5 12.5 14.5H2.5C1.39543 14.5 0.5 13.6046 0.5 12.5Z" fill="#E6E6E6"/>
<path d="M6.5 2.5H10.5L8.5 4.14706C8.5 4.14706 12.5 6.73529 12.5 8.38235C12.5 10.0294 11.25 10.5 10.75 10.5H8.5H6.5C5.75 10.5 4.5 10.0294 4.5 8.38235C4.5 6.73529 8.5 4.14706 8.5 4.14706L6.5 2.5Z" fill="var(--mw-icon-background-default-dark-gray, #A6A6A6)"/>
<path d="M6.5 2.5V2C6.28896 2 6.10064 2.13251 6.02937 2.33115C5.9581 2.5298 6.01924 2.7518 6.18215 2.88597L6.5 2.5ZM10.5 2.5L10.8179 2.88597C10.9808 2.7518 11.0419 2.5298 10.9706 2.33115C10.8994 2.13251 10.711 2 10.5 2V2.5ZM6.5 3H10.5V2H6.5V3ZM10.1821 2.11403L8.18215 3.76109L8.81785 4.53302L10.8179 2.88597L10.1821 2.11403ZM8.81785 3.76109L6.81785 2.11403L6.18215 2.88597L8.18215 4.53302L8.81785 3.76109ZM8.5 4.14706C8.22837 3.72727 8.2283 3.72732 8.22821 3.72738C8.22816 3.72741 8.22805 3.72748 8.22795 3.72755C8.22775 3.72768 8.22749 3.72785 8.22717 3.72806C8.22652 3.72847 8.22563 3.72905 8.22451 3.72978C8.22226 3.73124 8.21906 3.73333 8.21494 3.73602C8.20671 3.74141 8.19479 3.74923 8.17943 3.75937C8.14872 3.77967 8.10424 3.80928 8.04797 3.84735C7.93546 3.92346 7.77555 4.03352 7.584 4.17061C7.20168 4.44423 6.68963 4.82814 6.17553 5.26664C5.66412 5.70284 5.13662 6.2049 4.73279 6.71562C4.34484 7.20626 4 7.79183 4 8.38235H5C5 8.14935 5.15516 7.79374 5.51721 7.33585C5.86338 6.89804 6.33588 6.44422 6.82447 6.02748C7.31037 5.61303 7.79832 5.24694 8.166 4.9838C8.34945 4.85251 8.50204 4.7475 8.60828 4.67563C8.66138 4.63971 8.70284 4.61211 8.73073 4.59368C8.74467 4.58447 8.75521 4.57756 8.76211 4.57305C8.76556 4.57079 8.76809 4.56914 8.76969 4.5681C8.77049 4.56758 8.77105 4.56722 8.77138 4.56701C8.77154 4.5669 8.77164 4.56683 8.77168 4.56681C8.7717 4.56679 8.77169 4.5668 8.7717 4.5668C8.77167 4.56682 8.77163 4.56684 8.5 4.14706ZM13 8.38235C13 7.79183 12.6552 7.20626 12.2672 6.71562C11.8634 6.2049 11.3359 5.70284 10.8245 5.26664C10.3104 4.82814 9.79832 4.44423 9.416 4.17061C9.22445 4.03352 9.06454 3.92346 8.95203 3.84735C8.89575 3.80928 8.85128 3.77967 8.82057 3.75937C8.80521 3.74923 8.79329 3.74141 8.78506 3.73602C8.78094 3.73333 8.77774 3.73124 8.77549 3.72978C8.77436 3.72905 8.77348 3.72847 8.77283 3.72806C8.77251 3.72785 8.77225 3.72768 8.77205 3.72755C8.77195 3.72748 8.77184 3.72741 8.77179 3.72738C8.7717 3.72732 8.77163 3.72727 8.5 4.14706C8.22837 4.56684 8.22833 4.56682 8.2283 4.5668C8.22831 4.5668 8.2283 4.56679 8.22832 4.56681C8.22836 4.56683 8.22846 4.5669 8.22862 4.56701C8.22895 4.56722 8.22951 4.56758 8.23031 4.5681C8.23191 4.56914 8.23444 4.57079 8.23789 4.57305C8.24479 4.57756 8.25533 4.58447 8.26927 4.59368C8.29716 4.61211 8.33862 4.63971 8.39172 4.67563C8.49796 4.7475 8.65055 4.85251 8.834 4.9838C9.20168 5.24694 9.68963 5.61303 10.1755 6.02748C10.6641 6.44422 11.1366 6.89804 11.4828 7.33585C11.8448 7.79374 12 8.14935 12 8.38235H13ZM4 8.38235C4 9.34931 4.37514 10.0262 4.90727 10.4499C5.41903 10.8575 6.03568 11 6.5 11V10C6.21432 10 5.83097 9.9072 5.53023 9.6677C5.24986 9.44442 5 9.06246 5 8.38235H4ZM6.5 11H8.5V10H6.5V11ZM8.5 11H10.75V10H8.5V11ZM10.75 11C11.1204 11 11.6737 10.8389 12.1391 10.4374C12.6263 10.0171 13 9.34845 13 8.38235H12C12 9.06332 11.7487 9.45353 11.4859 9.68025C11.2013 9.92577 10.8796 10 10.75 10V11Z" fill="var(--mw-icon-glyph-content-dark-gray, #333333)"/>
<path d="M7.6875 12.5625L6 10.875L6.875 10L8.5625 11.6875C8.80412 11.9291 8.80412 12.3209 8.5625 12.5625C8.32088 12.8041 7.92912 12.8041 7.6875 12.5625Z" fill="var(--mw-icon-background-default-light-gray, #F5F5F5)" stroke="var(--mw-icon-glyph-content-dark-blue, #104280)"/>
<path d="M6.76778 7.23223C7.74409 8.20854 7.74407 9.79146 6.76775 10.7678C5.79143 11.7441 4.20852 11.7441 3.23222 10.7678C2.25591 9.79146 2.25593 8.20854 3.23225 7.23223C4.20857 6.25592 5.79148 6.25592 6.76778 7.23223Z" fill="var(--mw-icon-background-default-white, #FFFFFF)" stroke="var(--mw-icon-glyph-content-dark-blue, #104280)"/>
<path d="M0.5 12.5V2.5C0.5 1.39543 1.39543 0.5 2.5 0.5H12.5C13.6046 0.5 14.5 1.39543 14.5 2.5V12.5C14.5 13.6046 13.6046 14.5 12.5 14.5H2.5C1.39543 14.5 0.5 13.6046 0.5 12.5Z" stroke="var(--mw-icon-border-disabled-gray, #888888)" stroke-linecap="round"/>
</svg>
