<svg width="16" height="16" viewBox="0 0 16 16" fill="none" xmlns="http://www.w3.org/2000/svg">
<path d="M0.5 2.5C0.5 1.39543 1.39543 0.5 2.5 0.5H13.5C14.6046 0.5 15.5 1.39543 15.5 2.5V13.5C15.5 14.6046 14.6046 15.5 13.5 15.5H2.5C1.39543 15.5 0.5 14.6046 0.5 13.5V2.5Z" fill="var(--mw-icon-background-default-white, #FFFFFF)" stroke="var(--mw-icon-border-default-gray, #616161)"/>
<path d="M10.5 6.5L10.1464 6.14645C10.0125 6.28036 9.96577 6.47845 10.0257 6.65811L10.5 6.5ZM11.8536 5.85355L12.2071 5.5L11.5 4.79289L11.1464 5.14645L11.8536 5.85355ZM10.5257 8.15811L10.6838 8.63246L11.6325 8.31623L11.4743 7.84189L10.5257 8.15811ZM4.50001 6.5C4.37875 6.01493 4.37857 6.01497 4.37839 6.01502C4.37832 6.01504 4.37813 6.01508 4.37798 6.01512C4.3777 6.01519 4.37738 6.01527 4.37704 6.01536C4.37634 6.01553 4.37552 6.01574 4.37459 6.01598C4.37271 6.01646 4.37034 6.01707 4.36751 6.01782C4.36184 6.0193 4.35429 6.02132 4.34498 6.02388C4.32635 6.029 4.30064 6.03632 4.26884 6.04597C4.20533 6.06525 4.11697 6.09401 4.01195 6.1334C3.80352 6.21156 3.52127 6.33458 3.235 6.5135C2.67668 6.86245 1.99999 7.49466 2 8.5L3 8.5C3 8.00534 3.32331 7.63755 3.765 7.3615C3.97874 7.22792 4.19649 7.13219 4.36307 7.06973C4.44555 7.0388 4.51344 7.01678 4.55931 7.00285C4.5822 6.99591 4.59945 6.99102 4.61013 6.98808C4.61546 6.98662 4.61914 6.98564 4.62104 6.98514C4.62199 6.98489 4.6225 6.98477 4.62254 6.98475C4.62256 6.98475 4.62247 6.98477 4.62226 6.98482C4.62216 6.98485 4.62202 6.98489 4.62186 6.98493C4.62178 6.98495 4.62163 6.98498 4.62159 6.98499C4.62144 6.98503 4.62128 6.98507 4.50001 6.5ZM2 8.5C2.00001 9.46186 2.55758 10.356 3.57095 10.9869C4.57846 11.6143 6.05451 12 8 12V11C6.17275 11 4.89881 10.6357 4.09951 10.1381C3.30606 9.64402 3 9.03814 3 8.5L2 8.5ZM8 12C9.94549 12 11.4215 11.6143 12.4291 10.9869C13.4424 10.356 14 9.46186 14 8.5L13 8.5C13 9.03814 12.694 9.64402 11.9005 10.1381C11.1012 10.6357 9.82725 11 8 11V12ZM14 8.5C14 7.94013 13.7153 7.50347 13.3691 7.18611C13.0273 6.8728 12.5928 6.64283 12.1923 6.47596C11.7868 6.30701 11.3862 6.19053 11.09 6.11649C10.9411 6.07925 10.8164 6.05223 10.7281 6.03435C10.6839 6.0254 10.6486 6.01872 10.6239 6.01418C10.6115 6.01191 10.6017 6.01017 10.5947 6.00894C10.5912 6.00833 10.5884 6.00785 10.5863 6.00749C10.5852 6.00731 10.5844 6.00717 10.5837 6.00705C10.5834 6.007 10.5831 6.00695 10.5828 6.0069C10.5827 6.00688 10.5825 6.00686 10.5825 6.00685C10.5823 6.00682 10.5822 6.0068 10.5 6.5C10.4178 6.9932 10.4177 6.99318 10.4176 6.99316C10.4176 6.99316 10.4175 6.99315 10.4175 6.99314C10.4174 6.99313 10.4174 6.99313 10.4174 6.99313C10.4174 6.99314 10.4177 6.99318 10.4181 6.99324C10.4189 6.99338 10.4204 6.99364 10.4225 6.99402C10.4269 6.99478 10.4339 6.99603 10.4435 6.99778C10.4627 7.0013 10.4919 7.00682 10.5297 7.01448C10.6055 7.02981 10.7152 7.05356 10.8475 7.08663C11.1138 7.15322 11.4632 7.25549 11.8077 7.39904C12.1572 7.54467 12.4727 7.72095 12.6934 7.92326C12.9097 8.12153 13 8.30987 13 8.5L14 8.5ZM10.8536 6.85355L11.8536 5.85355L11.1464 5.14645L10.1464 6.14645L10.8536 6.85355ZM10.0257 6.65811L10.5257 8.15811L11.4743 7.84189L10.9743 6.34189L10.0257 6.65811Z" fill="var(--mw-icon-glyph-content-gray, #616162)"/>
<path d="M9.5 4.5L9.94721 4.72361C9.86252 4.893 9.68939 5 9.5 5V4.5ZM10.0528 2.27639L10.2764 1.82918L11.1708 2.27639L10.9472 2.72361L10.0528 2.27639ZM7.5 5H7V4H7.5V5ZM9.5 11.5C9.98507 11.6213 9.98503 11.6214 9.98498 11.6216C9.98496 11.6217 9.98492 11.6219 9.98488 11.622C9.98481 11.6223 9.98473 11.6226 9.98464 11.623C9.98447 11.6237 9.98426 11.6245 9.98402 11.6254C9.98354 11.6273 9.98293 11.6297 9.98218 11.6325C9.9807 11.6382 9.97868 11.6457 9.97612 11.655C9.971 11.6736 9.96368 11.6994 9.95403 11.7312C9.93475 11.7947 9.90599 11.883 9.8666 11.9881C9.78844 12.1965 9.66542 12.4787 9.4865 12.765C9.13755 13.3233 8.50534 14 7.5 14L7.5 13C7.99466 13 8.36245 12.6767 8.6385 12.235C8.77208 12.0213 8.86781 11.8035 8.93027 11.6369C8.9612 11.5545 8.98322 11.4866 8.99715 11.4407C9.00409 11.4178 9.00898 11.4005 9.01192 11.3899C9.01338 11.3845 9.01436 11.3809 9.01486 11.379C9.01511 11.378 9.01523 11.3775 9.01525 11.3775C9.01525 11.3774 9.01523 11.3775 9.01518 11.3777C9.01515 11.3778 9.01511 11.378 9.01507 11.3781C9.01505 11.3782 9.01502 11.3784 9.01501 11.3784C9.01497 11.3786 9.01493 11.3787 9.5 11.5ZM7.5 14C6.53814 14 5.64402 13.4424 5.01305 12.4291C4.38573 11.4215 4 9.94549 4 8H5C5 9.82725 5.36427 11.1012 5.86195 11.9005C6.35598 12.6939 6.96186 13 7.5 13L7.5 14ZM4 8C4 6.05451 4.38573 4.57845 5.01305 3.57094C5.64402 2.55757 6.53814 1.99999 7.5 2L7.5 3C6.96186 3 6.35598 3.30604 5.86195 4.0995C5.36427 4.8988 5 6.17275 5 8H4ZM7.5 2C8.50534 2.00001 9.13755 2.67669 9.4865 3.235C9.66541 3.52127 9.78844 3.80351 9.8666 4.01194C9.90599 4.11696 9.93475 4.20532 9.95403 4.26882C9.96368 4.30062 9.971 4.32634 9.97612 4.34496C9.97868 4.35427 9.9807 4.36183 9.98218 4.3675C9.98293 4.37033 9.98354 4.37269 9.98402 4.37457C9.98426 4.37551 9.98447 4.37633 9.98464 4.37702C9.98473 4.37737 9.98481 4.37768 9.98488 4.37797C9.98492 4.37811 9.98496 4.3783 9.98498 4.37837C9.98503 4.37856 9.98507 4.37873 9.5 4.5C9.01493 4.62127 9.01497 4.62143 9.01501 4.62158C9.01502 4.62162 9.01505 4.62177 9.01507 4.62185C9.01512 4.62201 9.01515 4.62215 9.01518 4.62225C9.01523 4.62246 9.01525 4.62255 9.01525 4.62253C9.01524 4.62249 9.01511 4.62198 9.01486 4.62103C9.01436 4.61913 9.01338 4.61545 9.01192 4.61012C9.00898 4.59944 9.00409 4.58219 8.99715 4.5593C8.98322 4.51344 8.9612 4.44554 8.93027 4.36306C8.86781 4.19649 8.77209 3.97874 8.6385 3.76501C8.36245 3.32332 7.99466 3 7.5 3L7.5 2ZM9.05279 4.27639L10.0528 2.27639L10.9472 2.72361L9.94721 4.72361L9.05279 4.27639ZM9.5 5H7.5V4H9.5V5Z" fill="var(--mw-icon-glyph-content-gray, #616162)"/>
<path d="M9.5 8C9.5 8.82843 8.82843 9.5 8 9.5C7.17157 9.5 6.5 8.82843 6.5 8C6.5 7.17157 7.17157 6.5 8 6.5C8.82843 6.5 9.5 7.17157 9.5 8Z" fill="var(--mw-icon-background-default-selection, #B4DEFF)" stroke="var(--mw-icon-border-default-blue, #1656A7)"/>
</svg>
