<svg width="16" height="16" viewBox="0 0 16 16" fill="none" xmlns="http://www.w3.org/2000/svg">
<circle cx="7" cy="7" r="7" transform="matrix(1 0 0 -1 0.5 14.5)" fill="#027880" stroke="#013A3E"/>
<path d="M12.5 7.5C12.5 4.73858 10.2614 2.5 7.5 2.5C4.73858 2.5 2.5 4.73858 2.5 7.5C2.5 10.2614 4.73858 12.5 7.5 12.5C10.2614 12.5 12.5 10.2614 12.5 7.5Z" stroke="#74EBDA"/>
<path d="M7.5 14V1M1 7.5H14" stroke="#74EBDA"/>
<path d="M12.4497 2.55025C12.6525 2.75298 12.8426 2.96797 13.0189 3.194L7.5 7.5L12.4497 2.55025Z" fill="var(--mw-icon-background-default-white, #FFFFFF)"/>
<path d="M8.5 7.5C8.5 6.94772 8.05228 6.5 7.5 6.5C6.94772 6.5 6.5 6.94772 6.5 7.5C6.5 8.05228 6.94772 8.5 7.5 8.5C8.05228 8.5 8.5 8.05228 8.5 7.5Z" fill="white" stroke="var(--mw-icon-background-default-white, #FFFFFF)"/>
<circle cx="12" cy="9" r="1" fill="white"/>
<circle cx="4" cy="10" r="1" fill="white"/>
<circle cx="6" cy="4" r="1" fill="white"/>
<circle cx="7" cy="7" r="7" transform="matrix(1 0 0 -1 0.5 14.5)" stroke="#013A3E"/>
</svg>
