<svg width="16" height="16" viewBox="0 0 16 16" fill="none" xmlns="http://www.w3.org/2000/svg">
<path d="M1.5 7.5L5.5 3.5L12.5 10.5L8.5 14.5L1.5 7.5Z" stroke="var(--mw-icon-object-primary, #616160)" stroke-linejoin="round"/>
<path d="M11 4L9.5 2.5M9.5 2.5L12 2.5C12.8284 2.5 13.5 3.17157 13.5 4L13.5 5.5M9.5 2.5L11 1" stroke="var(--mw-icon-object-primary, #616160)" stroke-linecap="square"/>
<path d="M7 3.5C7 4.32843 6.32843 5 5.5 5C4.67157 5 4 4.32843 4 3.5C4 2.67157 4.67157 2 5.5 2C6.32843 2 7 2.67157 7 3.5Z" fill="var(--mw-icon-glyph-content-gray, #616162)"/>
<path d="M3 7.5C3 8.32843 2.32843 9 1.5 9C0.671573 9 0 8.32843 0 7.5C0 6.67157 0.671573 6 1.5 6C2.32843 6 3 6.67157 3 7.5Z" fill="var(--mw-icon-glyph-content-gray, #616162)"/>
<path d="M10 14.5C10 15.3284 9.32843 16 8.5 16C7.67157 16 7 15.3284 7 14.5C7 13.6716 7.67157 13 8.5 13C9.32843 13 10 13.6716 10 14.5Z" fill="var(--mw-icon-glyph-content-gray, #616162)"/>
<path d="M14 10.5C14 11.3284 13.3284 12 12.5 12C11.6716 12 11 11.3284 11 10.5C11 9.67157 11.6716 9 12.5 9C13.3284 9 14 9.67157 14 10.5Z" fill="var(--mw-icon-glyph-content-gray, #616162)"/>
</svg>
