<svg width="16" height="17" viewBox="0 0 16 17" fill="none" xmlns="http://www.w3.org/2000/svg">
<path d="M12.5 4.5L0.500001 4.50001L0.5 0.500007L12.5 0.5V4.5Z" fill="var(--mw-icon-background-default-medium-gray, #D9D9D9)"/>
<path d="M12.5 4.5V5C12.7761 5 13 4.77614 13 4.5H12.5ZM0.500001 4.50001H6.55651e-07C6.85453e-07 4.63262 0.0526792 4.75979 0.146447 4.85356C0.240216 4.94733 0.367393 5.00001 0.500001 5.00001L0.500001 4.50001ZM0.5 0.500007L0.5 6.73532e-06C0.223857 6.88434e-06 -5.96046e-08 0.223864 0 0.500007L0.5 0.500007ZM12.5 0.5H13C13 0.367392 12.9473 0.240215 12.8536 0.146446C12.7598 0.0526783 12.6326 -5.96046e-08 12.5 0V0.5ZM8 3.5V4L9 4V3.5L8 3.5ZM9 1.5V1L8 1V1.5L9 1.5ZM4 3.5L4 4L5 4V3.5H4ZM5 1.5V1L4 1V1.5L5 1.5ZM12.5 4L0.5 4.00001L0.500001 5.00001L12.5 5V4ZM1 4.50001L1 0.500007L0 0.500007L6.55651e-07 4.50001H1ZM0.5 1.00001L12.5 1V0L0.5 6.73532e-06L0.5 1.00001ZM12 0.5V4.5H13V0.5H12ZM9 3.5L9 1.5L8 1.5L8 3.5L9 3.5ZM5 3.5L5 1.5L4 1.5L4 3.5H5Z" fill="var(--mw-icon-border-disabled-gray, #888888)"/>
<path d="M11.5 15.5L11.5 3.5L15.5 3.5L15.5 15.5L11.5 15.5Z" fill="var(--mw-icon-background-default-white, #FFFFFF)"/>
<path d="M11.5 15.5H11C11 15.7761 11.2239 16 11.5 16L11.5 15.5ZM11.5 3.5L11.5 3C11.3674 3 11.2402 3.05268 11.1464 3.14645C11.0527 3.24022 11 3.36739 11 3.5L11.5 3.5ZM15.5 3.5L16 3.5C16 3.36739 15.9473 3.24021 15.8536 3.14645C15.7598 3.05268 15.6326 3 15.5 3V3.5ZM15.5 15.5L15.5 16C15.6326 16 15.7598 15.9473 15.8536 15.8536C15.9473 15.7598 16 15.6326 16 15.5H15.5ZM12.5 11H12V12H12.5V11ZM14.5 12H15V11H14.5V12ZM12.5 7H12V8H12.5V7ZM14.5 8H15V7H14.5V8ZM12 15.5L12 3.5L11 3.5L11 15.5H12ZM11.5 4L15.5 4V3L11.5 3L11.5 4ZM15 3.5L15 15.5H16L16 3.5L15 3.5ZM15.5 15L11.5 15L11.5 16L15.5 16L15.5 15ZM12.5 12H14.5V11H12.5V12ZM12.5 8H14.5V7H12.5V8Z" fill="var(--mw-icon-border-default-gray, #616161)"/>
<path d="M6.5 7L6.5 9.5L5.5 9.5C4.39543 9.5 3.5 8.60457 3.5 7.5L3.5 6.5L0.5 6.5L0.5 8.5C0.5 10.7091 2.29086 12.5 4.5 12.5L6.5 12.5L6.5 15L11 11L6.5 7Z" fill="var(--mw-icon-background-default-action, #CBFFBE)" stroke="var(--mw-icon-border-default-green, #008013)"/>
</svg>
