<svg width="16" height="16" viewBox="0 0 16 16" fill="none" xmlns="http://www.w3.org/2000/svg">
<path d="M11.5 0.5L0.5 11.5L4.5 15.5L6 14L8 12L10 10L12 8L14 6L15.5 4.41304L11.5 0.5Z" fill="var(--mw-icon-background-default-white, #FFFFFF)"/>
<path d="M6 14L4.5 15.5L0.5 11.5L11.5 0.5L15.5 4.41304L14 6M6 14L5 13M6 14L8 12M8 12L6 10M8 12L10 10M10 10L8.97826 8.97826M10 10L12 8M12 8L10 6M12 8L14 6M14 6L13 5" stroke="var(--mw-icon-border-default-gray, #616161)" stroke-linecap="round" stroke-linejoin="round"/>
</svg>
