<svg width="16" height="16" viewBox="0 0 16 16" fill="none" xmlns="http://www.w3.org/2000/svg">
<path d="M0.5 1.5C0.5 0.947715 0.947715 0.5 1.5 0.5H10.5C11.0523 0.5 11.5 0.947715 11.5 1.5V10.5C11.5 11.0523 11.0523 11.5 10.5 11.5H1.5C0.947715 11.5 0.5 11.0523 0.5 10.5V1.5Z" fill="var(--mw-icon-background-default-white, #FFFFFF)" stroke="var(--mw-icon-border-default-green, #008013)" stroke-linejoin="round"/>
<path d="M3 3H6V6H3V3Z" fill="#FFD60A"/>
<path d="M6 6H9V9H6V6Z" fill="#FFD60A"/>
<path d="M6 3H9V6H6V3Z" fill="#3AC831"/>
<path d="M6 9L3 9L3 6L6 6L6 9Z" fill="#3AC831"/>
<path d="M2.5 2.5H9.5V9.5H2.5V2.5Z" stroke="var(--mw-icon-border-default-green, #008013)" stroke-linejoin="round"/>
<path d="M8.5 15.5V6.5L15.5 11L8.5 15.5Z" fill="var(--mw-icon-background-default-action, #CBFFBE)" stroke="var(--mw-icon-border-default-green, #008013)" stroke-linejoin="round"/>
</svg>
