<svg width="16" height="16" viewBox="0 0 16 16" fill="none" xmlns="http://www.w3.org/2000/svg">
<path d="M0.5 12V2C0.5 1.72386 0.723858 1.5 1 1.5H11C11.2761 1.5 11.5 1.72386 11.5 2V12C11.5 12.2761 11.2761 12.5 11 12.5H1C0.723858 12.5 0.5 12.2761 0.5 12Z" fill="var(--mw-icon-background-default-white, #FFFFFF)" stroke="var(--mw-icon-border-default-gray, #616161)"/>
<path d="M3.5 2.5V0.5H8.5V2.5H3.5Z" fill="var(--mw-icon-background-default-medium-gray, #D9D9D9)" stroke="var(--mw-icon-border-default-gray, #616161)"/>
<path d="M8.5 15.5V6.5L15.5 11L8.5 15.5Z" fill="var(--mw-icon-background-default-action, #CBFFBE)" stroke="var(--mw-icon-border-default-green, #008013)" stroke-linejoin="round"/>
<path d="M5 8H7V9H5V8Z" fill="var(--mw-icon-glyph-disabled-gray, #888889)"/>
<path d="M5 10H7V11H5V10Z" fill="var(--mw-icon-glyph-disabled-gray, #888889)"/>
<path d="M5 4H7V5H5V4Z" fill="var(--mw-icon-glyph-content-gray, #616162)"/>
<path d="M5 6H7V7H5V6Z" fill="var(--mw-icon-glyph-content-gray, #616162)"/>
<path d="M3.5 4.5H2.5V6.5H3.5" stroke="var(--mw-icon-glyph-content-gray, #616162)" stroke-linecap="square"/>
</svg>
