<svg width="16" height="16" viewBox="0 0 16 16" fill="none" xmlns="http://www.w3.org/2000/svg">
<path d="M0.5 0.5H11.5V9.5H0.5V0.5Z" fill="var(--mw-icon-background-default-white, #FFFFFF)" stroke="var(--mw-icon-glyph-content-red, #902623)" stroke-linejoin="round"/>
<path d="M1 5H2V6H1V5Z" fill="var(--mw-icon-glyph-content-dark-gray, #333333)"/>
<path d="M6 6H7V7H6V6Z" fill="var(--mw-icon-glyph-content-dark-gray, #333333)"/>
<path d="M7 5H8V6H7V5Z" fill="var(--mw-icon-glyph-content-dark-gray, #333333)"/>
<path d="M6 4H7V5H6V4Z" fill="var(--mw-icon-glyph-content-dark-gray, #333333)"/>
<path d="M7 3H8V4H7V3Z" fill="var(--mw-icon-glyph-content-dark-gray, #333333)"/>
<path d="M6 2H7V3H6V2Z" fill="var(--mw-icon-glyph-content-dark-gray, #333333)"/>
<path d="M7 1H8V2H7V1Z" fill="var(--mw-icon-glyph-content-dark-gray, #333333)"/>
<path d="M4 6H5V7H4V6Z" fill="var(--mw-icon-glyph-content-dark-gray, #333333)"/>
<path d="M5 5H6V6H5V5Z" fill="var(--mw-icon-glyph-content-dark-gray, #333333)"/>
<path d="M5 3H6V4H5V3Z" fill="var(--mw-icon-glyph-content-dark-gray, #333333)"/>
<path d="M5 1H6V2H5V1Z" fill="var(--mw-icon-glyph-content-dark-gray, #333333)"/>
<path d="M2 6H3V7H2V6Z" fill="var(--mw-icon-glyph-content-dark-gray, #333333)"/>
<path d="M3 5H4V6H3V5Z" fill="var(--mw-icon-glyph-content-dark-gray, #333333)"/>
<path d="M4 2H5V3H4V2Z" fill="var(--mw-icon-glyph-content-dark-gray, #333333)"/>
<path d="M3 3H4V4H3V3Z" fill="var(--mw-icon-glyph-content-dark-gray, #333333)"/>
<path d="M4 4H5V5H4L4 4Z" fill="var(--mw-icon-glyph-content-dark-gray, #333333)"/>
<path d="M2 4H3V5H2V4Z" fill="var(--mw-icon-glyph-content-dark-gray, #333333)"/>
<path d="M1 3H2V4H1V3Z" fill="var(--mw-icon-glyph-content-dark-gray, #333333)"/>
<path d="M2 2H3V3H2V2Z" fill="var(--mw-icon-glyph-content-dark-gray, #333333)"/>
<path d="M1 1H2V2H1V1Z" fill="var(--mw-icon-glyph-content-dark-gray, #333333)"/>
<path d="M3 1H4V2H3V1Z" fill="var(--mw-icon-glyph-content-dark-gray, #333333)"/>
<path d="M1 7H2V8H1V7Z" fill="var(--mw-icon-glyph-content-dark-gray, #333333)"/>
<path d="M2 8H3V9H2V8Z" fill="var(--mw-icon-glyph-content-dark-gray, #333333)"/>
<path d="M3 7H4L4 8H3V7Z" fill="var(--mw-icon-glyph-content-dark-gray, #333333)"/>
<path d="M4 8H5V9H4V8Z" fill="var(--mw-icon-glyph-content-dark-gray, #333333)"/>
<path d="M5 7H6V8H5V7Z" fill="var(--mw-icon-glyph-content-dark-gray, #333333)"/>
<path d="M6 8H7V9H6V8Z" fill="var(--mw-icon-glyph-content-dark-gray, #333333)"/>
<path d="M7 7H8V8H7L7 7Z" fill="var(--mw-icon-glyph-content-dark-gray, #333333)"/>
<path d="M8 8H9V9H8V8Z" fill="var(--mw-icon-glyph-content-dark-gray, #333333)"/>
<path d="M9 7H10V8H9V7Z" fill="var(--mw-icon-glyph-content-dark-gray, #333333)"/>
<path d="M10 8H11V9H10V8Z" fill="var(--mw-icon-glyph-content-dark-gray, #333333)"/>
<path d="M10 6H11V7H10V6Z" fill="var(--mw-icon-glyph-content-dark-gray, #333333)"/>
<path d="M8 6H9V7H8V6Z" fill="var(--mw-icon-glyph-content-dark-gray, #333333)"/>
<path d="M8 4H9V5H8V4Z" fill="var(--mw-icon-glyph-content-dark-gray, #333333)"/>
<path d="M10 4H11V5H10V4Z" fill="var(--mw-icon-glyph-content-dark-gray, #333333)"/>
<path d="M9 5H10V6H9V5Z" fill="var(--mw-icon-glyph-content-dark-gray, #333333)"/>
<path d="M9 3H10V4H9V3Z" fill="var(--mw-icon-glyph-content-dark-gray, #333333)"/>
<path d="M8 2H9V3H8V2Z" fill="var(--mw-icon-glyph-content-dark-gray, #333333)"/>
<path d="M9 1H10V2H9V1Z" fill="var(--mw-icon-glyph-content-dark-gray, #333333)"/>
<path d="M10 2H11V3H10V2Z" fill="var(--mw-icon-glyph-content-dark-gray, #333333)"/>
<path d="M8.5 15.5V6.5L15.5 11L8.5 15.5Z" fill="var(--mw-icon-background-default-action, #CBFFBE)" stroke="var(--mw-icon-glyph-content-green, #008014)" stroke-linejoin="round"/>
</svg>
