<svg width="16" height="16" viewBox="0 0 16 16" fill="none" xmlns="http://www.w3.org/2000/svg">
<path d="M0.5 2.5H12.5V12C12.5 12.2761 12.2761 12.5 12 12.5H1C0.723858 12.5 0.5 12.2761 0.5 12V2.5Z" fill="var(--mw-icon-background-default-white, #FFFFFF)" stroke="var(--mw-icon-border-default-gray, #616161)"/>
<path d="M4 4.5H11M4 7.5H11M4 10.5H9" stroke="var(--mw-icon-glyph-content-gray, #616162)"/>
<path d="M0.5 1C0.5 0.723858 0.723858 0.5 1 0.5H12C12.2761 0.5 12.5 0.723858 12.5 1V2.5H0.5V1Z" fill="var(--mw-icon-background-default-selection, #B4DEFF)" stroke="var(--mw-icon-border-default-blue, #1656A7)"/>
<rect x="2" y="4" width="1" height="1" fill="var(--mw-icon-glyph-content-gray, #616162)"/>
<rect x="2" y="7" width="1" height="1" fill="var(--mw-icon-glyph-content-gray, #616162)"/>
<rect x="2" y="10" width="1" height="1" fill="var(--mw-icon-glyph-content-gray, #616162)"/>
<path d="M8.5 15.5V6.5L15.5 11L8.5 15.5Z" fill="var(--mw-icon-background-default-action, #CBFFBE)" stroke="var(--mw-icon-border-default-green, #008013)" stroke-linejoin="round"/>
</svg>
