<svg width="16" height="16" viewBox="0 0 16 16" fill="none" xmlns="http://www.w3.org/2000/svg">
<rect x="0.5" y="0.5" width="13" height="10" rx="1" fill="var(--mw-icon-background-default-white, #FFFFFF)" stroke="var(--mw-icon-border-default-gray, #616161)"/>
<path d="M3.48633 2L4.13086 4.44629L4.77295 2H5.75928V5.55469H4.99756V4.52689L5.05555 3.19294L4.40185 5.55469H3.85742L3.20982 3.30433L3.26416 4.52689V5.55469H2.5V2H3.48633Z" fill="var(--mw-icon-glyph-content-gray, #616162)"/>
<path d="M8.37036 5.55469V4.92729H7.07642V4.03129H8.16526V3.42578H7.07642V2.62989H8.37036V2H6.30005V5.55469H8.37036Z" fill="var(--mw-icon-glyph-content-gray, #616162)"/>
<path d="M10.0599 3.18164L9.60325 2H8.71945L9.55445 3.75289L8.69995 5.55469H9.58375L10.0403 4.34859L10.4944 5.55469H11.3856L10.5408 3.76029L11.3685 2H10.4993L10.0599 3.18164Z" fill="var(--mw-icon-glyph-content-gray, #616162)"/>
<path d="M5.5 14.5V5.5L12.5 10L5.5 14.5Z" fill="var(--mw-icon-background-default-action, #CBFFBE)" stroke="var(--mw-icon-glyph-content-green, #008014)" stroke-linejoin="round"/>
</svg>
