<svg width="16" height="16" viewBox="0 0 16 16" fill="none" xmlns="http://www.w3.org/2000/svg">
<path d="M10.5 0.5H1.5C0.947715 0.5 0.5 0.947715 0.5 1.5V11.5C0.5 12.0523 0.947715 12.5 1.5 12.5H10.5C11.0523 12.5 11.5 12.0523 11.5 11.5V1.5C11.5 0.947715 11.0523 0.5 10.5 0.5Z" fill="var(--mw-icon-background-default-white, #FFFFFF)" stroke="var(--mw-icon-border-default-gray, #616161)" stroke-linecap="round"/>
<path fill-rule="evenodd" clip-rule="evenodd" d="M4.65403 2.10908C4.79285 2.02589 4.96386 2 5.11492 2C5.40457 2 5.63367 2.1039 5.78615 2.31461C5.93446 2.51955 6.00049 2.81227 6.00049 3.17232C6.00049 3.48801 5.9351 3.93729 5.73944 4.31158C5.54173 4.68981 5.20445 5.0004 4.66782 5.0004C4.43358 5.0004 4.26068 4.90769 4.14964 4.75715C4.0419 4.61108 3.99954 4.42058 3.99954 4.23226C3.99954 3.60868 4.49582 2.96096 5.17342 2.96096C5.26737 2.96096 5.39291 2.98093 5.50126 3.0466C5.50291 3.02112 5.50381 2.99561 5.50381 2.97023C5.50381 2.79699 5.47442 2.63102 5.40388 2.51179C5.3375 2.3996 5.23263 2.32373 5.05642 2.32373C4.95748 2.32373 4.87629 2.34144 4.77733 2.3727L4.69637 2.39827L4.65801 2.32253L4.61622 2.24005L4.57413 2.15696L4.65403 2.10908ZM4.75406 3.61681C4.62236 3.82643 4.538 4.10498 4.538 4.37249C4.538 4.45112 4.5431 4.53222 4.57028 4.59192C4.58289 4.61961 4.59877 4.63915 4.61852 4.65228C4.638 4.66523 4.66833 4.67667 4.71796 4.67667C4.83295 4.67667 4.94902 4.60272 5.05731 4.45797C5.16418 4.31512 5.25058 4.11925 5.3069 3.91677L5.40324 3.94356L5.30685 3.91693C5.34304 3.78596 5.36592 3.65518 5.36592 3.53938C5.36592 3.42271 5.33522 3.36038 5.30644 3.32838C5.27769 3.29643 5.24207 3.28469 5.21103 3.28469C5.0551 3.28469 4.88828 3.40319 4.75406 3.61681Z" fill="var(--mw-icon-glyph-content-gray, #616162)"/>
<path d="M7.2402 4.47751L7.52437 3H8L7.62111 4.96156H7.17369L7.2402 4.47751ZM7.37322 4.09137L7.53042 4.08593C7.51429 4.20437 7.48473 4.31919 7.44174 4.43038C7.39874 4.54036 7.3403 4.63886 7.2664 4.72588C7.1925 4.8129 7.10047 4.88119 6.99029 4.93074C6.88012 4.98029 6.75046 5.00325 6.60133 4.99963C6.48175 4.996 6.38098 4.97485 6.29902 4.93618C6.2184 4.89629 6.15458 4.84251 6.10756 4.77483C6.06053 4.70715 6.02896 4.6298 6.01283 4.54278C5.99806 4.45576 5.99604 4.36391 6.00679 4.26722L6.24259 3H6.7162L6.47839 4.27266C6.47436 4.31979 6.47436 4.36511 6.47839 4.40862C6.48242 4.45213 6.49384 4.49141 6.51265 4.52646C6.53146 4.56151 6.559 4.58991 6.59528 4.61167C6.6329 4.63221 6.68194 4.6437 6.7424 4.64611C6.87139 4.64974 6.97887 4.62738 7.06486 4.57904C7.1522 4.52948 7.22072 4.4618 7.27043 4.37599C7.32149 4.29018 7.35575 4.19531 7.37322 4.09137Z" fill="var(--mw-icon-glyph-content-gray, #616162)"/>
<line x1="2.5" y1="6.5" x2="9.5" y2="6.5" stroke="var(--mw-icon-border-default-gray, #616161)" stroke-linecap="square"/>
<path d="M8 8.5788L7.91582 8.89131H6L6.08418 8.5788H8ZM6.88552 8H7.49158L6.87542 10.3746C6.86869 10.426 6.87093 10.4722 6.88215 10.5133C6.89338 10.5543 6.92031 10.5874 6.96296 10.6123C7.00561 10.6358 7.07071 10.6482 7.15825 10.6497C7.20763 10.6497 7.25589 10.6475 7.30303 10.6431C7.35241 10.6372 7.4018 10.6321 7.45118 10.6277L7.40741 10.9622C7.33558 10.9754 7.2615 10.985 7.18519 10.9908C7.11111 10.9982 7.03704 11.0011 6.96296 10.9996C6.77666 10.9982 6.63075 10.9674 6.52525 10.9072C6.41975 10.847 6.34792 10.7693 6.30976 10.6739C6.2716 10.5786 6.26038 10.4766 6.27609 10.368L6.88552 8Z" fill="var(--mw-icon-glyph-content-gray, #616162)"/>
<path fill-rule="evenodd" clip-rule="evenodd" d="M4.65448 8.10908C4.79331 8.02589 4.96432 8 5.11538 8C5.40502 8 5.63413 8.1039 5.78661 8.31461C5.93492 8.51955 6.00094 8.81227 6.00094 9.17232C6.00094 9.48801 5.93556 9.93729 5.7399 10.3116C5.54219 10.6898 5.20491 11.0004 4.66828 11.0004C4.43404 11.0004 4.26114 10.9077 4.1501 10.7572C4.04235 10.6111 4 10.4206 4 10.2323C4 9.60868 4.49628 8.96096 5.17388 8.96096C5.26783 8.96096 5.39337 8.98093 5.50172 9.0466C5.50337 9.02112 5.50427 8.99561 5.50427 8.97023C5.50427 8.79699 5.47487 8.63102 5.40434 8.51179C5.33796 8.3996 5.23309 8.32373 5.05688 8.32373C4.95794 8.32373 4.87675 8.34144 4.77779 8.3727L4.69683 8.39827L4.65846 8.32253L4.61668 8.24005L4.57459 8.15696L4.65448 8.10908ZM4.75452 9.61681C4.62282 9.82643 4.53846 10.105 4.53846 10.3725C4.53846 10.4511 4.54356 10.5322 4.57074 10.5919C4.58334 10.6196 4.59922 10.6391 4.61898 10.6523C4.63846 10.6652 4.66879 10.6767 4.71842 10.6767C4.83341 10.6767 4.94947 10.6027 5.05777 10.458C5.16464 10.3151 5.25104 10.1193 5.30736 9.91677L5.4037 9.94356L5.30731 9.91693C5.3435 9.78596 5.36638 9.65518 5.36638 9.53938C5.36638 9.42271 5.33568 9.36038 5.30689 9.32838C5.27815 9.29643 5.24253 9.28469 5.21149 9.28469C5.05556 9.28469 4.88874 9.40319 4.75452 9.61681Z" fill="var(--mw-icon-glyph-content-gray, #616162)"/>
<path d="M8.5 15.5V6.5L15.5 11L8.5 15.5Z" fill="var(--mw-icon-background-default-action, #CBFFBE)" stroke="var(--mw-icon-border-default-green, #008013)" stroke-linejoin="round"/>
</svg>
