<svg width="16" height="16" viewBox="0 0 16 16" fill="none" xmlns="http://www.w3.org/2000/svg">
<path d="M15.5 14.5V3.91421C15.5 3.649 15.3946 3.39464 15.2071 3.20711L12.7929 0.792893C12.6054 0.605357 12.351 0.5 12.0858 0.5H5.5C4.94772 0.5 4.5 0.947715 4.5 1.5V14.5C4.5 15.0523 4.94771 15.5 5.5 15.5H14.5C15.0523 15.5 15.5 15.0523 15.5 14.5Z" fill="var(--mw-icon-background-default-white, #FFFFFF)" stroke="var(--mw-icon-border-default-gray, #616161)" stroke-linecap="round"/>
<path d="M0.5 9.5V0.5L7.5 5L0.5 9.5Z" fill="var(--mw-icon-background-default-action, #CBFFBE)" stroke="var(--mw-icon-border-default-green, #008013)" stroke-linejoin="round"/>
<path d="M8.5 6.5H13.5" stroke="var(--mw-icon-glyph-content-gray, #616162)" stroke-linecap="square"/>
<path d="M9.5 4.5H13.5" stroke="var(--mw-icon-glyph-content-gray, #616162)" stroke-linecap="square"/>
<path d="M6.5 2.5H11.5" stroke="var(--mw-icon-glyph-content-red, #902623)" stroke-linecap="square"/>
<path d="M6.5 8.5H13.5V13.5H6.5V8.5Z" fill="var(--mw-icon-background-default-selection, #B4DEFF)" stroke="var(--mw-icon-glyph-content-light-blue, #278CDD)" stroke-linejoin="round"/>
</svg>
