<svg width="16" height="16" viewBox="0 0 16 16" fill="none" xmlns="http://www.w3.org/2000/svg">
<path d="M4.5 12V2C4.5 1.72386 4.72386 1.5 5 1.5H15C15.2761 1.5 15.5 1.72386 15.5 2V12C15.5 12.2761 15.2761 12.5 15 12.5H5C4.72386 12.5 4.5 12.2761 4.5 12Z" fill="var(--mw-icon-background-default-white, #FFFFFF)" stroke="var(--mw-icon-border-default-gray, #616161)"/>
<path d="M7.5 2.5V0.5H12.5V2.5H7.5Z" fill="var(--mw-icon-background-default-medium-gray, #D9D9D9)" stroke="var(--mw-icon-border-default-gray, #616161)"/>
<path d="M0.5 15.5V6.5L7.5 11L0.5 15.5Z" fill="var(--mw-icon-background-default-action, #CBFFBE)" stroke="var(--mw-icon-glyph-content-green, #008014)" stroke-linejoin="round"/>
<path d="M5 4H15V6H5V4Z" fill="var(--mw-icon-background-red, #FF9D9A)"/>
<path d="M7.5 5.5H9.5" stroke="var(--mw-icon-glyph-content-dark-red, #610908)" stroke-linecap="square"/>
<path d="M5 6H15V8H5V6Z" fill="var(--mw-icon-background-default-action, #CBFFBE)"/>
<path d="M9.5 7.5H11.5" stroke="var(--mw-icon-glyph-content-dark-green, #02580E)" stroke-linecap="square"/>
<path d="M7.5 9.5H9.5" stroke="var(--mw-icon-glyph-content-gray, #616162)" stroke-linecap="square"/>
</svg>
