<svg width="16" height="16" viewBox="0 0 16 16" fill="none" xmlns="http://www.w3.org/2000/svg">
<path d="M3.5 9.5H15.5V13.5C15.5 14.0523 15.0523 14.5 14.5 14.5H4.5C3.94772 14.5 3.5 14.0523 3.5 13.5V9.5Z" fill="var(--mw-icon-background-default-medium-gray, #D9D9D9)" stroke="var(--mw-icon-border-default-gray, #616161)"/>
<rect x="5" y="11" width="1" height="1" rx="0.5" fill="var(--mw-icon-glyph-content-green, #008014)"/>
<path d="M7.46875 11.5V11C7.33343 11 7.20389 11.0548 7.10972 11.152C7.01554 11.2492 6.96477 11.3804 6.96899 11.5156L7.46875 11.5ZM12.5 11.5H13C13 11.2239 12.7761 11 12.5 11V11.5ZM12.5 12.5V13C12.7761 13 13 12.7761 13 12.5H12.5ZM7.5 12.5L7.00024 12.5156C7.00868 12.7855 7.22994 13 7.5 13V12.5ZM12 11.5V12.5H13V11.5H12ZM12.5 12H7.5V13H12.5V12ZM7.46875 12H12.5V11H7.46875V12ZM7.99976 12.4844L7.96851 11.4844L6.96899 11.5156L7.00024 12.5156L7.99976 12.4844Z" fill="var(--mw-icon-glyph-disabled-gray, #888889)"/>
<path d="M3.5 9.49991H15.5V3.49991C15.5 2.94762 15.0523 2.49991 14.5 2.49991H4.5C3.94772 2.49991 3.5 2.94762 3.5 3.49991V9.49991Z" fill="var(--mw-icon-background-default-white, #FFFFFF)"/>
<path d="M3.5 6C5.5 4 7.5 4 9.5 6C11.5 8 13.5 8 15.5 6" stroke="#0072BD" stroke-linecap="round"/>
<path d="M3.5 9.50002H15.5V3.50002C15.5 2.94773 15.0523 2.50002 14.5 2.50002H4.5C3.94772 2.50002 3.5 2.94773 3.5 3.50002V9.50002Z" stroke="var(--mw-icon-border-default-gray, #616161)"/>
<path d="M0.5 10.5V1.5L7.5 6L0.5 10.5Z" fill="var(--mw-icon-background-default-action, #CBFFBE)" stroke="var(--mw-icon-border-default-green, #008013)" stroke-linejoin="round"/>
</svg>
