<svg width="18" height="16" viewBox="0 0 18 16" fill="none" xmlns="http://www.w3.org/2000/svg">
<path d="M0.5 1.5C0.5 0.947716 0.947715 0.5 1.5 0.5H12.5C13.0523 0.5 13.5 0.947715 13.5 1.5V9.5C13.5 10.0523 13.0523 10.5 12.5 10.5H1.5C0.947715 10.5 0.5 10.0523 0.5 9.5V1.5Z" fill="var(--mw-icon-background-default-selection, #B4DEFF)" stroke="var(--mw-icon-border-default-blue, #1656A7)"/>
<rect x="2" y="3" width="2" height="2" rx="0.5" fill="var(--mw-icon-glyph-content-blue, #1656A8)"/>
<rect x="6" y="3" width="2" height="2" rx="0.5" fill="var(--mw-icon-glyph-content-blue, #1656A8)"/>
<rect x="10" y="3" width="2" height="2" rx="0.5" fill="var(--mw-icon-glyph-content-blue, #1656A8)"/>
<rect x="2" y="6" width="2" height="2" rx="0.5" fill="var(--mw-icon-glyph-content-blue, #1656A8)"/>
<rect x="6" y="6" width="2" height="2" rx="0.5" fill="var(--mw-icon-glyph-content-blue, #1656A8)"/>
<rect x="10" y="6" width="2" height="2" rx="0.5" fill="var(--mw-icon-glyph-content-blue, #1656A8)"/>
<path d="M5.5 14.5V5.5L12.5 10L5.5 14.5Z" fill="var(--mw-icon-background-default-action, #CBFFBE)" stroke="var(--mw-icon-glyph-content-green, #008014)" stroke-linejoin="round"/>
</svg>
