<svg width="16" height="16" viewBox="0 0 16 16" fill="none" xmlns="http://www.w3.org/2000/svg">
<rect x="0.5" y="0.5" width="14" height="14" rx="2" fill="var(--mw-icon-background-default-medium-gray, #D9D9D9)" stroke="var(--mw-icon-border-default-gray, #616161)"/>
<path d="M7 4.5C7 5.88071 5.88071 7 4.5 7C3.11929 7 2 5.88071 2 4.5C2 3.11929 3.11929 2 4.5 2C5.88071 2 7 3.11929 7 4.5Z" fill="var(--mw-icon-background-default-dark-gray, #A6A6A6)"/>
<path d="M13 4.5C13 5.88071 11.8807 7 10.5 7C9.11929 7 8 5.88071 8 4.5C8 3.11929 9.11929 2 10.5 2C11.8807 2 13 3.11929 13 4.5Z" fill="var(--mw-icon-background-default-dark-gray, #A6A6A6)"/>
<path d="M7 10.5C7 11.8807 5.88071 13 4.5 13C3.11929 13 2 11.8807 2 10.5C2 9.11929 3.11929 8 4.5 8C5.88071 8 7 9.11929 7 10.5Z" fill="var(--mw-icon-background-default-dark-gray, #A6A6A6)"/>
<path d="M13 10.5C13 11.8807 11.8807 13 10.5 13C9.11929 13 8 11.8807 8 10.5C8 9.11929 9.11929 8 10.5 8C11.8807 8 13 9.11929 13 10.5Z" fill="var(--mw-icon-background-default-dark-gray, #A6A6A6)"/>
<path d="M4.5 4.5L6.40323 5.64959C7.07767 6.05696 7.92233 6.05696 8.59677 5.64959L10.5 4.5L9.35041 6.40323C8.94304 7.07767 8.94304 7.92233 9.35041 8.59677L10.5 10.5L8.59677 9.35041C7.92233 8.94304 7.07767 8.94304 6.40323 9.35041L4.5 10.5L5.64959 8.59677C6.05696 7.92233 6.05696 7.07767 5.64959 6.40323L4.5 4.5Z" fill="var(--mw-icon-background-default-white, #FFFFFF)" stroke="var(--mw-icon-glyph-content-gray, #616162)" stroke-linejoin="round"/>
</svg>
