<svg width="16" height="16" viewBox="0 0 16 16" fill="none" xmlns="http://www.w3.org/2000/svg">
<path d="M0.5 14.5H14.5V7.5V0.5H0.5V7.5V14.5Z" fill="var(--mw-icon-background-default-white, #FFFFFF)"/>
<path d="M6 8V6.5L7.5 5.5L9 6.5V8L7.5 9L6 8Z" fill="#1171BE"/>
<path d="M10 8V6.5L11.5 5.5L13 6.5V8L11.5 9L10 8Z" fill="#1171BE"/>
<path d="M2 8V6.5L3.5 5.5L5 6.5V8L3.5 9L2 8Z" fill="#1171BE"/>
<path d="M4 4.5V3L5.5 2L7 3V4.5L5.5 5.5L4 4.5Z" fill="#1171BE"/>
<path d="M8 4.5V3L9.5 2L11 3V4.5L9.5 5.5L8 4.5Z" fill="#1171BE"/>
<path d="M4 11.5V10L5.5 9L7 10V11.5L5.5 12.5L4 11.5Z" fill="#1171BE"/>
<path d="M8 11.5V10L9.5 9L11 10V11.5L9.5 12.5L8 11.5Z" fill="#1171BE"/>
<path d="M0.5 1.5C0.5 0.947716 0.947715 0.5 1.5 0.5H13.5C14.0523 0.5 14.5 0.947715 14.5 1.5V13.5C14.5 14.0523 14.0523 14.5 13.5 14.5H1.5C0.947716 14.5 0.5 14.0523 0.5 13.5V1.5Z" stroke="var(--mw-icon-border-default-gray, #616161)" stroke-linejoin="round"/>
</svg>
