<svg width="16" height="16" viewBox="0 0 16 16" fill="none" xmlns="http://www.w3.org/2000/svg">
<path d="M6 11H8V14H6V11Z" fill="var(--mw-icon-object-primary, #616160)"/>
<path d="M4.5 9.75C4.5 9.61193 4.61193 9.5 4.75 9.5H11.25C11.3881 9.5 11.5 9.61193 11.5 9.75V14.5H4.75C4.61193 14.5 4.5 14.3881 4.5 14.25V9.75Z" stroke="var(--mw-icon-object-primary, #616160)"/>
<path d="M1.5 2C1.5 1.72386 1.72386 1.5 2 1.5H14C14.2761 1.5 14.5 1.72386 14.5 2V14C14.5 14.2761 14.2761 14.5 14 14.5H4.10145C3.99326 14.5 3.888 14.4649 3.80145 14.4L1.7 12.8239C1.5741 12.7295 1.5 12.5813 1.5 12.4239V2Z" stroke="var(--mw-icon-object-primary, #616160)"/>
<path d="M3.5 1.5H12.5V7.25C12.5 7.38807 12.3881 7.5 12.25 7.5H3.75C3.61193 7.5 3.5 7.38807 3.5 7.25V1.5Z" stroke="var(--mw-icon-object-primary, #616160)"/>
</svg>
