<svg width="16" height="16" viewBox="0 0 16 16" fill="none" xmlns="http://www.w3.org/2000/svg">
<path d="M13 11.5L1 11.5C0.723858 11.5 0.5 11.2761 0.5 11L0.499999 3.5L13.5 3.5L13.5 11C13.5 11.2761 13.2761 11.5 13 11.5Z" fill="var(--mw-icon-background-default-white, #FFFFFF)" stroke="var(--mw-icon-border-default-gray, #616161)" stroke-linecap="round"/>
<path d="M13.5 3.5L0.5 3.5L0.5 1C0.5 0.723858 0.723858 0.5 1 0.5L13 0.5C13.2761 0.5 13.5 0.723858 13.5 1L13.5 3.5Z" fill="var(--mw-icon-background-default-selection, #B4DEFF)" stroke="var(--mw-icon-border-default-blue, #1656A7)" stroke-linecap="round"/>
<path d="M4.5 6C4.5 5.72386 4.72386 5.5 5 5.5H14C14.2761 5.5 14.5 5.72386 14.5 6V15C14.5 15.2761 14.2761 15.5 14 15.5H6.4058C6.29761 15.5 6.19235 15.4649 6.1058 15.4L4.7 14.3457C4.5741 14.2512 4.5 14.103 4.5 13.9457V6Z" fill="var(--mw-icon-background-default-medium-gray, #D9D9D9)" stroke="var(--mw-icon-border-default-gray, #616161)" stroke-linejoin="round"/>
<path d="M6.5 12.5H12.5V15.5H6.5V12.5Z" fill="white" stroke="var(--mw-icon-border-default-gray, #616161)" stroke-linejoin="round"/>
<path d="M8 14H9V15H8V14Z" fill="var(--mw-icon-border-default-gray, #616161)"/>
<path d="M6.5 5.5H12.5V10.5H6.5V5.5Z" fill="white"/>
<path d="M6.5 5.5V5H6V5.5H6.5ZM12.5 5.5H13V5H12.5V5.5ZM12.5 10.5V11C12.7761 11 13 10.7761 13 10.5H12.5ZM6.5 10.5H6C6 10.7761 6.22386 11 6.5 11V10.5ZM6.5 6H12.5V5H6.5V6ZM12 5.5V10.5H13V5.5H12ZM12.5 10H6.5V11H12.5V10ZM7 10.5V5.5H6V10.5H7Z" fill="var(--mw-icon-border-default-gray, #616161)"/>
</svg>
