<svg width="16" height="16" viewBox="0 0 16 16" fill="none" xmlns="http://www.w3.org/2000/svg">
<path d="M0.5 1.5C0.5 0.947715 0.947715 0.5 1.5 0.5H11.5C12.0523 0.5 12.5 0.947715 12.5 1.5V11.5C12.5 12.0523 12.0523 12.5 11.5 12.5H1.5C0.947715 12.5 0.5 12.0523 0.5 11.5V1.5Z" fill="var(--mw-icon-background-default-white, #FFFFFF)" stroke="var(--mw-icon-border-default-blue, #1656A7)" stroke-linejoin="round"/>
<path d="M5 8.49998C5 9.32841 4.32843 9.99998 3.5 9.99998C2.67157 9.99998 2 9.32841 2 8.49998C2 7.67155 2.67157 6.99998 3.5 6.99998C4.32843 6.99998 5 7.67155 5 8.49998Z" fill="var(--mw-icon-glyph-content-blue, #1656A8)"/>
<path d="M10 7.49998C10 8.32841 9.32843 8.99998 8.5 8.99998C7.67157 8.99998 7 8.32841 7 7.49998C7 6.67155 7.67157 5.99998 8.5 5.99998C9.32843 5.99998 10 6.67155 10 7.49998Z" fill="var(--mw-icon-glyph-content-blue, #1656A8)"/>
<path d="M4 4.49998H5V8.49998H4V4.49998Z" fill="var(--mw-icon-glyph-content-blue, #1656A8)"/>
<path d="M9 3.49998H10V7.49998H9V3.49998Z" fill="var(--mw-icon-glyph-content-blue, #1656A8)"/>
<path d="M4 3.42354V4.99998L10 3.99998V2.59021C10 2.28124 9.72257 2.04622 9.4178 2.09701L4.4178 2.93035C4.17671 2.97053 4 3.17913 4 3.42354Z" fill="var(--mw-icon-glyph-content-blue, #1656A8)"/>
<path d="M5.5 6C5.5 5.72386 5.72386 5.5 6 5.5H15C15.2761 5.5 15.5 5.72386 15.5 6V15C15.5 15.2761 15.2761 15.5 15 15.5H7.4058C7.29761 15.5 7.19235 15.4649 7.1058 15.4L5.7 14.3457C5.5741 14.2512 5.5 14.103 5.5 13.9457V6Z" fill="var(--mw-icon-background-default-medium-gray, #D9D9D9)" stroke="var(--mw-icon-border-default-gray, #616161)" stroke-linejoin="round"/>
<path d="M7.5 12.5H13.5V15.5H7.5V12.5Z" fill="white" stroke="var(--mw-icon-border-default-gray, #616161)" stroke-linejoin="round"/>
<path d="M9 14H10V15H9V14Z" fill="var(--mw-icon-border-default-gray, #616161)"/>
<path d="M7.5 5.5H13.5V10.5H7.5V5.5Z" fill="white"/>
<path d="M7.5 5.5V5H7V5.5H7.5ZM13.5 5.5H14V5H13.5V5.5ZM13.5 10.5V11C13.7761 11 14 10.7761 14 10.5H13.5ZM7.5 10.5H7C7 10.7761 7.22386 11 7.5 11V10.5ZM7.5 6H13.5V5H7.5V6ZM13 5.5V10.5H14V5.5H13ZM13.5 10H7.5V11H13.5V10ZM8 10.5V5.5H7V10.5H8Z" fill="var(--mw-icon-border-default-gray, #616161)"/>
</svg>
