<svg width="16" height="16" viewBox="0 0 16 16" fill="none" xmlns="http://www.w3.org/2000/svg">
<path d="M0.5 4C0.5 3.72386 0.723858 3.5 1 3.5H12C12.2761 3.5 12.5 3.72386 12.5 4V15C12.5 15.2761 12.2761 15.5 12 15.5H2.78786C2.65893 15.5 2.53499 15.4502 2.44191 15.361L0.654047 13.6476C0.555641 13.5533 0.5 13.4229 0.5 13.2866V4Z" fill="var(--mw-icon-background-default-medium-gray, #D9D9D9)" stroke="var(--mw-icon-border-disabled-gray, #888888)"/>
<path d="M2.5 11.75C2.5 11.6119 2.61193 11.5 2.75 11.5H10.25C10.3881 11.5 10.5 11.6119 10.5 11.75V15.5H2.75C2.61193 15.5 2.5 15.3881 2.5 15.25V11.75Z" fill="var(--mw-icon-background-default-medium-gray, #D9D9D9)" stroke="var(--mw-icon-border-disabled-gray, #888888)"/>
<path d="M4 13H5V15H4V13Z" fill="var(--mw-icon-border-disabled-gray, #888888)"/>
<path d="M2.5 3.5H10.5V9.25C10.5 9.38807 10.3881 9.5 10.25 9.5H2.75C2.61193 9.5 2.5 9.38807 2.5 9.25V3.5Z" fill="var(--mw-icon-background-default-medium-gray, #D9D9D9)" stroke="var(--mw-icon-border-disabled-gray, #888888)"/>
<path d="M4.5 7V1C4.5 0.723858 4.72386 0.5 5 0.5H15C15.2761 0.5 15.5 0.723858 15.5 1V7C15.5 7.27614 15.2761 7.5 15 7.5H5C4.72386 7.5 4.5 7.27614 4.5 7Z" fill="var(--mw-icon-background-default-white, #FFFFFF)" stroke="var(--mw-icon-border-default-blue, #1656A7)" stroke-linejoin="round"/>
<path d="M8 5C8 5.55228 7.55228 6 7 6C6.44772 6 6 5.55228 6 5C6 4.44772 6.44772 4 7 4C7.55228 4 8 4.44772 8 5Z" fill="var(--mw-icon-glyph-content-blue, #1656A8)"/>
<path d="M11 5C11 5.55228 10.5523 6 10 6C9.44772 6 9 5.55228 9 5C9 4.44772 9.44772 4 10 4C10.5523 4 11 4.44772 11 5Z" fill="var(--mw-icon-glyph-content-blue, #1656A8)"/>
<path d="M14 5C14 5.55228 13.5523 6 13 6C12.4477 6 12 5.55228 12 5C12 4.44772 12.4477 4 13 4C13.5523 4 14 4.44772 14 5Z" fill="var(--mw-icon-glyph-content-blue, #1656A8)"/>
</svg>
