<svg width="16" height="16" viewBox="0 0 16 16" fill="none" xmlns="http://www.w3.org/2000/svg">
<path d="M4.5 2.5H12.5V8C12.5 8.27614 12.2761 8.5 12 8.5H5C4.72386 8.5 4.5 8.27614 4.5 8V2.5Z" fill="#F5FAFF" stroke="var(--mw-icon-border-default-blue, #1656A7)"/>
<path d="M3.5 1C3.5 0.723858 3.72386 0.5 4 0.5H13C13.2761 0.5 13.5 0.723858 13.5 1V2.5H3.5V1Z" fill="#F5FAFF" stroke="var(--mw-icon-border-default-blue, #1656A7)" stroke-linejoin="round"/>
<path d="M1.5 6.5H9.5V12C9.5 12.2761 9.27614 12.5 9 12.5H2C1.72386 12.5 1.5 12.2761 1.5 12V6.5Z" fill="#F5FAFF" stroke="var(--mw-icon-border-default-blue, #1656A7)"/>
<path d="M0.5 5C0.5 4.72386 0.723858 4.5 1 4.5H10C10.2761 4.5 10.5 4.72386 10.5 5V6.5H0.5V5Z" fill="#F5FAFF" stroke="var(--mw-icon-border-default-blue, #1656A7)" stroke-linejoin="round"/>
<path d="M5.5 7C5.5 6.72386 5.72386 6.5 6 6.5H14C14.2761 6.5 14.5 6.72386 14.5 7V15C14.5 15.2761 14.2761 15.5 14 15.5H7.4058C7.29761 15.5 7.19235 15.4649 7.1058 15.4L5.7 14.3457C5.5741 14.2512 5.5 14.103 5.5 13.9457V7Z" fill="var(--mw-icon-background-default-medium-gray, #D9D9D9)" stroke="var(--mw-icon-glyph-disabled-gray, #888889)" stroke-linejoin="round"/>
<path d="M7.5 12.5H12.5V15.5H7.5V12.5Z" fill="var(--mw-icon-background-default-medium-gray, #D9D9D9)" stroke="var(--mw-icon-glyph-disabled-gray, #888889)" stroke-linejoin="round"/>
<path d="M9 14H10V15H9V14Z" fill="var(--mw-icon-glyph-disabled-gray, #888889)"/>
<path d="M7.5 6.5H12.5V10.5H7.5V6.5Z" fill="var(--mw-icon-background-default-medium-gray, #D9D9D9)"/>
<path d="M7.5 6.5V6H7V6.5H7.5ZM12.5 6.5H13V6H12.5V6.5ZM12.5 10.5V11C12.7761 11 13 10.7761 13 10.5H12.5ZM7.5 10.5H7C7 10.7761 7.22386 11 7.5 11V10.5ZM7.5 7H12.5V6H7.5V7ZM12 6.5V10.5H13V6.5H12ZM12.5 10H7.5V11H12.5V10ZM8 10.5V6.5H7V10.5H8Z" fill="var(--mw-icon-glyph-disabled-gray, #888889)"/>
<path d="M7.5 9V6C7.5 5.72386 7.72386 5.5 8 5.5H15C15.2761 5.5 15.5 5.72386 15.5 6V9C15.5 9.27614 15.2761 9.5 15 9.5H8C7.72386 9.5 7.5 9.27614 7.5 9Z" fill="var(--mw-icon-background-default-white, #FFFFFF)" stroke="var(--mw-icon-border-default-blue, #1656A7)" stroke-linejoin="round"/>
<path d="M14 7.5C14 7.77614 13.7761 8 13.5 8C13.2239 8 13 7.77614 13 7.5C13 7.22386 13.2239 7 13.5 7C13.7761 7 14 7.22386 14 7.5Z" fill="var(--mw-icon-glyph-content-blue, #1656A8)"/>
<path d="M12 7.5C12 7.77614 11.7761 8 11.5 8C11.2239 8 11 7.77614 11 7.5C11 7.22386 11.2239 7 11.5 7C11.7761 7 12 7.22386 12 7.5Z" fill="var(--mw-icon-glyph-content-blue, #1656A8)"/>
<path d="M10 7.5C10 7.77614 9.77614 8 9.5 8C9.22386 8 9 7.77614 9 7.5C9 7.22386 9.22386 7 9.5 7C9.77614 7 10 7.22386 10 7.5Z" fill="var(--mw-icon-glyph-content-blue, #1656A8)"/>
</svg>
