<svg width="16" height="16" viewBox="0 0 16 16" fill="none" xmlns="http://www.w3.org/2000/svg">
<path d="M0.5 1.5C0.5 0.947716 0.947715 0.5 1.5 0.5L9.5 0.5C10.0523 0.5 10.5 0.947715 10.5 1.5L10.5 9.5C10.5 10.0523 10.0523 10.5 9.5 10.5L1.5 10.5C0.947716 10.5 0.5 10.0523 0.5 9.5L0.5 1.5Z" fill="var(--mw-icon-background-default-white, #FFFFFF)" stroke="var(--mw-icon-border-default-gray, #616161)"/>
<path d="M3.5 3.5L3.5 7.5" stroke="var(--mw-icon-glyph-disabled-gray, #888889)" stroke-linecap="square"/>
<circle cx="3.5" cy="8" r="1" fill="var(--mw-icon-background-default-medium-gray, #D9D9D9)" stroke="var(--mw-icon-glyph-disabled-gray, #888889)"/>
<circle cx="3.5" cy="3.5" r="1" fill="var(--mw-icon-background-default-action, #CBFFBE)" stroke="var(--mw-icon-glyph-content-green, #008014)"/>
<path d="M5.5 6C5.5 5.72386 5.72386 5.5 6 5.5H15C15.2761 5.5 15.5 5.72386 15.5 6V15C15.5 15.2761 15.2761 15.5 15 15.5H7.4058C7.29761 15.5 7.19235 15.4649 7.1058 15.4L5.7 14.3457C5.5741 14.2512 5.5 14.103 5.5 13.9457V6Z" fill="var(--mw-icon-background-default-medium-gray, #D9D9D9)" stroke="var(--mw-icon-border-default-gray, #616161)" stroke-linejoin="round"/>
<path d="M7.5 12.5H13.5V15.5H7.5V12.5Z" fill="white" stroke="var(--mw-icon-border-default-gray, #616161)" stroke-linejoin="round"/>
<path d="M9 14H10V15H9V14Z" fill="var(--mw-icon-border-default-gray, #616161)"/>
<path d="M7.5 5.5H13.5V10.5H7.5V5.5Z" fill="white"/>
<path d="M7.5 5.5V5H7V5.5H7.5ZM13.5 5.5H14V5H13.5V5.5ZM13.5 10.5V11C13.7761 11 14 10.7761 14 10.5H13.5ZM7.5 10.5H7C7 10.7761 7.22386 11 7.5 11V10.5ZM7.5 6H13.5V5H7.5V6ZM13 5.5V10.5H14V5.5H13ZM13.5 10H7.5V11H13.5V10ZM8 10.5V5.5H7V10.5H8Z" fill="var(--mw-icon-border-default-gray, #616161)"/>
</svg>
