<svg width="16" height="16" viewBox="0 0 16 16" fill="none" xmlns="http://www.w3.org/2000/svg">
<path d="M0.5 1.5C0.5 0.947715 0.947715 0.5 1.5 0.5H11.5C12.0523 0.5 12.5 0.947715 12.5 1.5V11.5C12.5 12.0523 12.0523 12.5 11.5 12.5H1.5C0.947715 12.5 0.5 12.0523 0.5 11.5V1.5Z" fill="var(--mw-icon-background-default-medium-gray, #D9D9D9)" stroke="var(--mw-icon-border-default-gray, #616161)" stroke-linejoin="round"/>
<path d="M10 2.5C10 2.77614 10.2239 3 10.5 3C10.7761 3 11 2.77614 11 2.5C11 2.22386 10.7761 2 10.5 2C10.2239 2 10 2.22386 10 2.5Z" fill="var(--mw-icon-glyph-content-dark-gray, #333333)"/>
<path d="M10.5 6.5C10.5 8.70914 8.70914 10.5 6.5 10.5C4.29086 10.5 2.5 8.70914 2.5 6.5C2.5 4.29086 4.29086 2.5 6.5 2.5C8.70914 2.5 10.5 4.29086 10.5 6.5Z" fill="var(--mw-icon-background-default-dark-gray, #A6A6A6)" stroke="var(--mw-icon-glyph-content-dark-gray, #333333)" stroke-linejoin="round"/>
<path d="M9 6.5C9 7.88071 7.88071 9 6.5 9C5.11929 9 4 7.88071 4 6.5C4 5.11929 5.11929 4 6.5 4C7.88071 4 9 5.11929 9 6.5Z" fill="var(--mw-icon-glyph-content-dark-gray, #333333)"/>
<circle cx="4.5" cy="5.5" r="0.5" fill="var(--mw-icon-background-default-light-gray, #F5F5F5)"/>
<path d="M5.5 6C5.5 5.72386 5.72386 5.5 6 5.5H15C15.2761 5.5 15.5 5.72386 15.5 6V15C15.5 15.2761 15.2761 15.5 15 15.5H7.4058C7.29761 15.5 7.19235 15.4649 7.1058 15.4L5.7 14.3457C5.5741 14.2512 5.5 14.103 5.5 13.9457V6Z" fill="var(--mw-icon-background-default-selection, #B4DEFF)" stroke="var(--mw-icon-border-default-blue, #1656A7)" stroke-linejoin="round"/>
<path d="M7.5 12.5H13.5V15.5H7.5V12.5Z" fill="var(--mw-icon-background-default-white, #FFFFFF)" stroke="var(--mw-icon-border-default-blue, #1656A7)" stroke-linejoin="round"/>
<path d="M9 14H10V15H9V14Z" fill="var(--mw-icon-border-default-blue, #1656A7)"/>
<path d="M7.5 5.5H13.5V10.5H7.5V5.5Z" fill="white"/>
<path d="M7.5 5.5V5H7V5.5H7.5ZM13.5 5.5H14V5H13.5V5.5ZM13.5 10.5V11C13.7761 11 14 10.7761 14 10.5H13.5ZM7.5 10.5H7C7 10.7761 7.22386 11 7.5 11V10.5ZM7.5 6H13.5V5H7.5V6ZM13 5.5V10.5H14V5.5H13ZM13.5 10H7.5V11H13.5V10ZM8 10.5V5.5H7V10.5H8Z" fill="var(--mw-icon-border-default-blue, #1656A7)"/>
</svg>
