<svg width="17" height="16" viewBox="0 0 17 16" fill="none" xmlns="http://www.w3.org/2000/svg">
<path d="M4.5 2.5H12.5V8C12.5 8.27614 12.2761 8.5 12 8.5H5C4.72386 8.5 4.5 8.27614 4.5 8V2.5Z" fill="#F5FAFF" stroke="var(--mw-icon-border-default-blue, #1656A7)"/>
<path d="M3.5 1C3.5 0.723858 3.72386 0.5 4 0.5H13C13.2761 0.5 13.5 0.723858 13.5 1V2.5H3.5V1Z" fill="#F5FAFF" stroke="var(--mw-icon-border-default-blue, #1656A7)" stroke-linejoin="round"/>
<path d="M1.5 6.5H9.5V12C9.5 12.2761 9.27614 12.5 9 12.5H2C1.72386 12.5 1.5 12.2761 1.5 12V6.5Z" fill="#F5FAFF" stroke="var(--mw-icon-border-default-blue, #1656A7)"/>
<path d="M0.5 5C0.5 4.72386 0.723858 4.5 1 4.5H10C10.2761 4.5 10.5 4.72386 10.5 5V6.5H0.5V5Z" fill="#F5FAFF" stroke="var(--mw-icon-border-default-blue, #1656A7)" stroke-linejoin="round"/>
<path d="M6.5 6C6.5 5.72386 6.72386 5.5 7 5.5H15C15.2761 5.5 15.5 5.72386 15.5 6V13C15.5 13.2761 15.2761 13.5 15 13.5H8.4058C8.29761 13.5 8.19235 13.4649 8.1058 13.4L6.7 12.3457C6.5741 12.2512 6.5 12.103 6.5 11.9457V6Z" fill="var(--mw-icon-background-default-medium-gray, #D9D9D9)" stroke="var(--mw-icon-border-default-gray, #616161)" stroke-linejoin="round"/>
<path d="M8.5 10.5H13.5V13.5H8.5V10.5Z" fill="var(--mw-icon-background-default-white, #FFFFFF)" stroke="var(--mw-icon-border-default-gray, #616161)" stroke-linejoin="round"/>
<path d="M10 12H11V13H10V12Z" fill="var(--mw-icon-border-default-gray, #616161)"/>
<path d="M8.5 5.5H13.5V8.5H8.5V5.5Z" fill="white"/>
<path d="M8.5 5.5V5H8V5.5H8.5ZM13.5 5.5H14V5H13.5V5.5ZM13.5 8.5V9C13.7761 9 14 8.77614 14 8.5H13.5ZM8.5 8.5H8C8 8.77614 8.22386 9 8.5 9V8.5ZM8.5 6H13.5V5H8.5V6ZM13 5.5V8.5H14V5.5H13ZM13.5 8H8.5V9H13.5V8ZM9 8.5V5.5H8V8.5H9Z" fill="var(--mw-icon-border-default-gray, #616161)"/>
<path d="M4.5 8C4.5 7.72386 4.72386 7.5 5 7.5H13C13.2761 7.5 13.5 7.72386 13.5 8V15C13.5 15.2761 13.2761 15.5 13 15.5H6.4058C6.29761 15.5 6.19235 15.4649 6.1058 15.4L4.7 14.3457C4.5741 14.2512 4.5 14.103 4.5 13.9457V8Z" fill="var(--mw-icon-background-default-selection, #B4DEFF)" stroke="var(--mw-icon-border-default-blue, #1656A7)" stroke-linejoin="round"/>
<path d="M6.5 12.5H11.5V15.5H6.5V12.5Z" fill="white" stroke="var(--mw-icon-border-default-blue, #1656A7)" stroke-linejoin="round"/>
<path d="M8 14H9V15H8V14Z" fill="var(--mw-icon-border-default-blue, #1656A7)"/>
<path d="M6.5 7.5H11.5V10.5H6.5V7.5Z" fill="white"/>
<path d="M6.5 7.5V7H6V7.5H6.5ZM11.5 7.5H12V7H11.5V7.5ZM11.5 10.5V11C11.7761 11 12 10.7761 12 10.5H11.5ZM6.5 10.5H6C6 10.7761 6.22386 11 6.5 11V10.5ZM6.5 8H11.5V7H6.5V8ZM11 7.5V10.5H12V7.5H11ZM11.5 10H6.5V11H11.5V10ZM7 10.5V7.5H6V10.5H7Z" fill="var(--mw-icon-border-default-blue, #1656A7)"/>
</svg>
