<svg width="16" height="16" viewBox="0 0 16 16" fill="none" xmlns="http://www.w3.org/2000/svg">
<path d="M0.5 14.5V9.5C0.5 8.94772 0.947715 8.5 1.5 8.5H14.5C15.0523 8.5 15.5 8.94772 15.5 9.5V14.5C15.5 15.0523 15.0523 15.5 14.5 15.5H1.5C0.947715 15.5 0.5 15.0523 0.5 14.5Z" fill="var(--mw-icon-background-default-white, #FFFFFF)" stroke="var(--mw-icon-border-default-gray, #616161)"/>
<circle cx="13" cy="12" r="1" fill="var(--mw-icon-glyph-content-light-blue, #278CDD)"/>
<rect x="6" y="11" width="4" height="2" rx="0.5" fill="var(--mw-icon-glyph-content-gray, #616162)"/>
<path d="M2 12C2 11.4477 2.44772 11 3 11C3.55228 11 4 11.4477 4 12C4 12.5523 3.55228 13 3 13C2.44772 13 2 12.5523 2 12Z" fill="var(--mw-icon-glyph-content-gray, #616162)"/>
<path d="M2 8.5V9H3V8.5H2ZM3 2.5C3 2.22386 2.77614 2 2.5 2C2.22386 2 2 2.22386 2 2.5H3ZM3 8.5L3 2.5H2L2 8.5H3Z" fill="var(--mw-icon-object-primary, #616160)"/>
<path d="M4.5 3.50001C4.5 3.50001 4.92674 3.43959 5.25781 3.7344C5.58888 4.02921 5.5 4.5 5.5 4.5" stroke="var(--mw-icon-borderColor-light-blue, #268CDD)" stroke-linecap="round"/>
<path d="M4.5 2.00975C4.5 2.00975 5.68357 1.9914 6.35047 2.6638C7.01738 3.33619 7.01738 4.49779 7.01738 4.49779" stroke="var(--mw-icon-borderColor-light-blue, #268CDD)" stroke-linecap="round"/>
<path d="M4.5 0.522193C4.5 0.522193 6.23417 0.452217 7.46924 1.55173C8.70431 2.65125 8.50881 4.47552 8.50881 4.47552" stroke="var(--mw-icon-borderColor-light-blue, #268CDD)" stroke-linecap="round"/>
</svg>
