<svg width="16" height="16" viewBox="0 0 16 16" fill="none" xmlns="http://www.w3.org/2000/svg">
<path d="M14.7852 13.5784C14.7852 13.4863 14.7592 13.4031 14.7072 13.3289C14.6551 13.2546 14.5582 13.1863 14.4165 13.1239C14.2777 13.0585 14.0766 12.9991 13.8134 12.9456C13.5763 12.8922 13.355 12.8253 13.1497 12.7451C12.9472 12.6619 12.7708 12.5624 12.6204 12.4465C12.4729 12.3307 12.3572 12.194 12.2733 12.0365C12.1894 11.8761 12.1475 11.6934 12.1475 11.4884C12.1475 11.2864 12.1894 11.0963 12.2733 10.918C12.3601 10.7398 12.483 10.5823 12.6421 10.4456C12.804 10.306 13.0007 10.1976 13.2321 10.1203C13.4664 10.0401 13.7296 10 14.0217 10C14.4295 10 14.7795 10.0668 15.0716 10.2005C15.3666 10.3342 15.5922 10.5184 15.7484 10.7531C15.9074 10.9848 15.987 11.2493 15.987 11.5463H14.7375C14.7375 11.4216 14.7115 11.3102 14.6594 11.2121C14.6103 11.1111 14.5322 11.0324 14.4252 10.9759C14.321 10.9165 14.1851 10.8868 14.0174 10.8868C13.8785 10.8868 13.7585 10.9121 13.6573 10.9626C13.556 11.0101 13.4779 11.0755 13.423 11.1586C13.3709 11.2389 13.3449 11.328 13.3449 11.426C13.3449 11.5003 13.3594 11.5671 13.3883 11.6266C13.4201 11.683 13.4707 11.735 13.5401 11.7825C13.6095 11.8301 13.6992 11.8746 13.8091 11.9162C13.9219 11.9548 14.0607 11.9905 14.2256 12.0232C14.564 12.0945 14.8662 12.1881 15.1323 12.3039C15.3984 12.4168 15.6095 12.5713 15.7657 12.7674C15.9219 12.9605 16 13.2145 16 13.5294C16 13.7433 15.9537 13.9394 15.8612 14.1176C15.7686 14.2959 15.6356 14.4519 15.462 14.5856C15.2885 14.7163 15.0803 14.8188 14.8373 14.893C14.5973 14.9643 14.3268 15 14.026 15C13.5893 15 13.2191 14.9198 12.9154 14.7594C12.6146 14.5989 12.3861 14.3954 12.2299 14.1488C12.0766 13.8993 12 13.6438 12 13.3824H13.1844C13.1902 13.5576 13.2336 13.6988 13.3145 13.8057C13.3984 13.9127 13.504 13.9899 13.6312 14.0374C13.7614 14.085 13.9017 14.1087 14.0521 14.1087C14.214 14.1087 14.3485 14.0865 14.4555 14.0419C14.5625 13.9944 14.6435 13.932 14.6985 13.8547C14.7563 13.7745 14.7852 13.6824 14.7852 13.5784Z" fill="var(--mw-icon-object-primary, #616160)"/>
<path d="M10.5 11.5H0.5L5.5 1.5L10.5 11.5Z" stroke="var(--mw-icon-object-primary, #616160)" stroke-linejoin="round"/>
<path d="M5.25 2L10 11.5" stroke="var(--mw-icon-object-primary, #616160)" stroke-linejoin="round"/>
</svg>
