<svg width="16" height="16" viewBox="0 0 16 16" fill="none" xmlns="http://www.w3.org/2000/svg">
<path d="M12.5 12.5H0.5L6.5 0.5L12.5 12.5Z" stroke="var(--mw-icon-object-primary, #616160)" stroke-linejoin="round"/>
<path d="M6.16667 1.16666L11.8333 12.5" stroke="var(--mw-icon-object-primary, #616160)" stroke-linejoin="round"/>
<path d="M6 15.5H15C15.2761 15.5 15.5 15.2761 15.5 15V6C15.5 5.72386 15.2761 5.5 15 5.5H6C5.72386 5.5 5.5 5.72386 5.5 6V15C5.5 15.2761 5.72386 15.5 6 15.5Z" fill="var(--mw-icon-background-default-white, #FFFFFF)" stroke="var(--mw-icon-border-default-gray, #616161)" stroke-linejoin="round"/>
<path d="M12 9C12 7 9 7 9 9C9 11 12 10 12 12C12 14 9 14 9 12" stroke="var(--mw-icon-glyph-content-gray, #616162)" stroke-linejoin="round"/>
</svg>
