<svg width="16" height="16" viewBox="0 0 16 16" fill="none" xmlns="http://www.w3.org/2000/svg">
<path d="M0.5 12.5V2.5C0.5 1.39543 1.39543 0.5 2.5 0.5H12.5C13.6046 0.5 14.5 1.39543 14.5 2.5V12.5C14.5 13.6046 13.6046 14.5 12.5 14.5H2.5C1.39543 14.5 0.5 13.6046 0.5 12.5Z" fill="var(--mw-icon-background-default-white, #FFFFFF)"/>
<path d="M7.5 10.5L0.5 13.5" stroke="var(--mw-icon-background-default-dark-gray, #A6A6A6)" stroke-linejoin="round"/>
<path d="M6.5 10.5H14.5" stroke="var(--mw-icon-background-default-dark-gray, #A6A6A6)" stroke-linejoin="round"/>
<path d="M7.5 10.5V0.5" stroke="var(--mw-icon-background-default-dark-gray, #A6A6A6)" stroke-linejoin="round"/>
<path d="M7.5 11L4 5H11L7.5 11Z" fill="var(--mw-icon-background-default-selection, #B4DEFF)" stroke="var(--mw-icon-background-default-selection, #B4DEFF)" stroke-linejoin="round"/>
<path d="M2.5 2.5L7.5 11.5L12.5 2.5" stroke="#823400" stroke-linejoin="round"/>
<ellipse cx="7.5" cy="4.5" rx="3.5" ry="1" fill="var(--mw-icon-background-default-selection, #B4DEFF)" stroke="#823400"/>
<path d="M0.5 12.5V2.5C0.5 1.39543 1.39543 0.5 2.5 0.5H12.5C13.6046 0.5 14.5 1.39543 14.5 2.5V12.5C14.5 13.6046 13.6046 14.5 12.5 14.5H2.5C1.39543 14.5 0.5 13.6046 0.5 12.5Z" stroke="#B7312C" stroke-linecap="round"/>
</svg>
