<svg width="16" height="16" viewBox="0 0 16 16" fill="none" xmlns="http://www.w3.org/2000/svg">
<circle cx="7" cy="7" r="7" transform="matrix(1 0 0 -1 0.5 14.5)" fill="#027880" stroke="var(--mw-icon-border-default-gray, #616161)"/>
<path d="M14.0001 7.5C14.0001 8.78558 13.6188 10.0423 12.9046 11.1112C12.1904 12.1801 11.1752 13.0132 9.98751 13.5052C8.79979 13.9972 7.49285 14.1259 6.23198 13.8751C4.9711 13.6243 3.81291 13.0052 2.90387 12.0962C1.99483 11.1872 1.37576 10.029 1.12496 8.76809C0.874157 7.50721 1.00288 6.20028 1.49485 5.01256C1.98682 3.82484 2.81994 2.80968 3.88886 2.09545C4.95778 1.38122 6.21449 1 7.50006 1L7.50006 7.5H14.0001Z" fill="var(--mw-icon-glyph-disabled-gray, #888889)"/>
<path d="M12.5001 7.5C12.5001 4.73858 10.2615 2.5 7.50007 2.5C4.73864 2.5 2.50007 4.73858 2.50007 7.5C2.50007 10.2614 4.73864 12.5 7.50007 12.5C10.2615 12.5 12.5001 10.2614 12.5001 7.5Z" stroke="#74EBDA"/>
<path d="M12.5001 7.5C12.5001 10.2614 10.2615 12.5 7.50007 12.5C4.73864 12.5 2.50007 10.2614 2.50007 7.5C2.50007 4.73858 4.73864 2.5 7.50007 2.5" stroke="var(--mw-icon-glyph-content-gray, #616162)"/>
<path d="M7.50006 14.5L7.50006 7.5L0.500064 7.5" stroke="var(--mw-icon-glyph-content-gray, #616162)"/>
<path d="M14 7C14 7.55228 13.5523 8 13 8C12.4477 8 12 7.55228 12 7C12 6.44772 12.4477 6 13 6C13.5523 6 14 6.44772 14 7Z" fill="var(--mw-icon-background-default-white, #FFFFFF)"/>
<circle cx="4" cy="5" r="1" fill="var(--mw-icon-glyph-content-dark-gray, #333333)"/>
<circle cx="3" cy="11" r="1" fill="var(--mw-icon-glyph-content-dark-gray, #333333)"/>
<circle cx="12" cy="10" r="1" fill="var(--mw-icon-glyph-content-dark-gray, #333333)"/>
<path d="M12.4497 2.55025C12.6525 2.75298 12.8426 2.96797 13.0189 3.194L7.5 7.5L12.4497 2.55025Z" fill="white"/>
<path d="M7.5 0.5C11.366 0.5 14.5 3.63401 14.5 7.5H7.5V0.5Z" stroke="#013A3E" stroke-linecap="round" stroke-linejoin="round"/>
<path d="M8.5 7.5C8.5 6.94772 8.05228 6.5 7.5 6.5C6.94772 6.5 6.5 6.94772 6.5 7.5C6.5 8.05228 6.94772 8.5 7.5 8.5C8.05228 8.5 8.5 8.05228 8.5 7.5Z" fill="white" stroke="var(--mw-icon-background-default-white, #FFFFFF)"/>
<path d="M11 3C11 3.55228 10.5523 4 10 4C9.44772 4 9 3.55228 9 3C9 2.44772 9.44772 2 10 2C10.5523 2 11 2.44772 11 3Z" fill="white"/>
</svg>
