<svg width="16" height="16" viewBox="0 0 16 16" fill="none" xmlns="http://www.w3.org/2000/svg">
<path d="M13.5 0.5H2.5C1.94772 0.5 1.5 0.947715 1.5 1.5V14.5C1.5 15.0523 1.94772 15.5 2.5 15.5H13.5C14.0523 15.5 14.5 15.0523 14.5 14.5V1.5C14.5 0.947715 14.0523 0.5 13.5 0.5Z" fill="var(--mw-icon-background-default-white, #FFFFFF)" stroke="var(--mw-icon-border-default-gray, #616161)" stroke-linecap="round"/>
<path d="M2 1.5C2 1.22386 2.22386 1 2.5 1H13.5C13.7761 1 14 1.22386 14 1.5V6H2V1.5Z" fill="var(--mw-icon-background-default-selection, #B4DEFF)"/>
<path d="M8.5 7.5H12.5M5.5 9.5H9.5M3.5 11.5H7.5M5.5 13.5H9.5" stroke="var(--mw-icon-glyph-content-gray, #616162)" stroke-linecap="square"/>
<path d="M6.5 2.5H10.5M8.5 4.5H12.5" stroke="var(--mw-icon-glyph-content-dark-blue, #104280)" stroke-linecap="square"/>
</svg>
