<svg width="16" height="16" viewBox="0 0 16 16" fill="none" xmlns="http://www.w3.org/2000/svg">
<rect x="0.5" y="0.5" width="14" height="14" rx="1" fill="var(--mw-icon-background-default-white, #FFFFFF)"/>
<rect x="0.5" y="0.5" width="14" height="14" rx="1" stroke="var(--mw-icon-border-default-gray, #616161)"/>
<path d="M5.45288 4.35852L7.35302 2.49999L7.46398 2.61095C8.66601 3.75751 9.26703 4.34003 9.26703 4.35852L8.90642 4.76074C8.88793 4.7515 8.61978 4.52034 8.10198 4.06726L7.36689 3.42926L6.60406 4.08113C6.48386 4.18284 6.36365 4.28917 6.24345 4.40013C6.12325 4.51109 6.02616 4.59893 5.95219 4.66365L5.84123 4.74687C5.82274 4.76537 5.75339 4.70064 5.63319 4.5527L5.45288 4.35852Z" fill="#1171BE"/>
<path d="M11 12H7.95455V11.8C8.45455 11.7733 8.56061 11.72 8.56061 11.48C8.56061 11.3867 8.5303 11.32 8.4697 11.24L7.09091 9.37333L5.89394 11.0133C5.68182 11.3067 5.59091 11.4667 5.59091 11.56C5.59091 11.7333 5.75758 11.8 6.19697 11.8V12H4V11.8C4.5 11.76 4.68182 11.6667 5.10606 11.12L6.83333 8.92L5.40909 7C4.93939 6.37333 4.69697 6.2 4.24242 6.2H4.10606V6H7.24242V6.2C6.78788 6.21333 6.59091 6.29333 6.59091 6.49333C6.59091 6.66667 6.84848 7.10667 7.28788 7.68C7.36364 7.77333 7.43939 7.85333 7.5 7.94667C7.65152 7.77333 7.80303 7.56 7.95455 7.36C8.28788 6.89333 8.51515 6.65333 8.51515 6.49333C8.51515 6.30667 8.36364 6.22667 7.90909 6.2V6H10.303V6.2C9.81818 6.21333 9.36364 6.42667 9.07576 6.78667L7.81818 8.38667L9.75758 11C10.1818 11.5733 10.5303 11.8 11 11.8V12Z" fill="#1171BE"/>
</svg>
