<svg width="16" height="16" viewBox="0 0 16 16" fill="none" xmlns="http://www.w3.org/2000/svg">
<path d="M0.5 1.5C0.5 0.947715 0.947715 0.5 1.5 0.5H14.5C15.0523 0.5 15.5 0.947715 15.5 1.5V7.5C15.5 8.05228 15.0523 8.5 14.5 8.5H1.5C0.947715 8.5 0.5 8.05228 0.5 7.5V1.5Z" fill="var(--mw-icon-background-default-medium-gray, #D9D9D9)" stroke="var(--mw-icon-border-default-gray, #616161)"/>
<path d="M2.5 3.5V3C2.22386 3 2 3.22386 2 3.5H2.5ZM3.5 3.5H4C4 3.22386 3.77614 3 3.5 3V3.5ZM3.5 4.5V5C3.77614 5 4 4.77614 4 4.5H3.5ZM8.5 3.5V3C8.32671 3 8.16578 3.08973 8.07467 3.23713C7.98357 3.38454 7.97529 3.56861 8.05279 3.72361L8.5 3.5ZM9.5 5.5V6C9.67329 6 9.83422 5.91027 9.92533 5.76287C10.0164 5.61546 10.0247 5.43139 9.94721 5.27639L9.5 5.5ZM2.5 4H3.5V3H2.5V4ZM3 3.5V4.5H4V3.5H3ZM3 6V4.5H2V6H3ZM3 4.5V3.5H2V4.5H3ZM3.5 4H2.5V5H3.5V4ZM5 3V5H6V3H5ZM7 5V3H6V5H7ZM10 3H8.5V4H10V3ZM9.5 5H8V6H9.5V5ZM13 3V4.5H14V3H13ZM13 4.5V6H14V4.5H13ZM11 3V4.5H12V3H11ZM11 4.5V6H12V4.5H11ZM13.5 4H11.5V5H13.5V4ZM8.05279 3.72361L8.55279 4.72361L9.44721 4.27639L8.94721 3.27639L8.05279 3.72361ZM8.55279 4.72361L9.05279 5.72361L9.94721 5.27639L9.44721 4.27639L8.55279 4.72361ZM6 6C6.55228 6 7 5.55228 7 5H6V6ZM5 5C5 5.55228 5.44772 6 6 6V5H5Z" fill="var(--mw-icon-glyph-content-gray, #616162)"/>
<path d="M6.5 7.5L8.41417 14.4631L10.3776 12.4996L13.1456 15.2676C13.4555 15.5775 13.9578 15.5775 14.2676 15.2676C14.5775 14.9578 14.5775 14.4555 14.2676 14.1456L11.4996 11.3776L13.4631 9.41417L6.5 7.5Z" fill="var(--mw-icon-background-default-white, #FFFFFF)" stroke="var(--mw-icon-border-default-gray, #616161)" stroke-linejoin="round"/>
</svg>
