<svg width="16" height="16" viewBox="0 0 16 16" fill="none" xmlns="http://www.w3.org/2000/svg">
<rect x="1.5" y="1.5" width="10" height="10" fill="var(--mw-icon-background-default-white, #FFFFFF)" stroke="var(--mw-icon-border-disabled-gray, #888888)"/>
<path d="M0.5 2.5V0.5H2.5V2.5H0.5Z" fill="var(--mw-icon-background-default-selection, #B4DEFF)"/>
<path d="M10.5 2.5V0.5H12.5V2.5H10.5Z" fill="var(--mw-icon-background-default-selection, #B4DEFF)"/>
<path d="M0.5 12.5V10.5H2.5V12.5H0.5Z" fill="var(--mw-icon-background-default-selection, #B4DEFF)"/>
<path d="M0.5 2.5V0.5H2.5V2.5H0.5Z" stroke="var(--mw-icon-glyph-content-light-blue, #278CDD)" stroke-linecap="round" stroke-linejoin="round"/>
<path d="M10.5 2.5V0.5H12.5V2.5H10.5Z" stroke="var(--mw-icon-glyph-content-light-blue, #278CDD)" stroke-linecap="round" stroke-linejoin="round"/>
<path d="M0.5 12.5V10.5H2.5V12.5H0.5Z" stroke="var(--mw-icon-glyph-content-light-blue, #278CDD)" stroke-linecap="round" stroke-linejoin="round"/>
<path d="M3 9.5V10H4V9.5H3ZM9.5 4H10V3H9.5V4ZM4 9.5V8.5H3V9.5H4ZM8.5 4H9.5V3H8.5V4ZM4 8.5C4 6.01472 6.01472 4 8.5 4V3C5.46243 3 3 5.46243 3 8.5H4Z" fill="#0072BD"/>
<path d="M5.5 5.5L7.96041 14.143L10.3647 11.7386L13.8416 15.2155C14.2209 15.5948 14.8361 15.5948 15.2155 15.2155C15.5948 14.8361 15.5948 14.2209 15.2155 13.8416L11.7386 10.3647L14.143 7.96041L5.5 5.5Z" fill="white" stroke="var(--mw-icon-border-default-gray, #616161)"/>
</svg>
