<svg width="16" height="16" viewBox="0 0 16 16" fill="none" xmlns="http://www.w3.org/2000/svg">
<path d="M0.5 0.5H8.5V7.5H0.5V0.5Z" fill="var(--mw-icon-background-default-white, #FFFFFF)" stroke="var(--mw-icon-border-default-gray, #616161)" stroke-linejoin="round"/>
<path d="M1 5H2V6H1V5Z" fill="var(--mw-icon-glyph-content-dark-gray, #333333)"/>
<path d="M6 6H7V7H6V6Z" fill="var(--mw-icon-glyph-content-dark-gray, #333333)"/>
<path d="M7 5H8V6H7V5Z" fill="var(--mw-icon-glyph-content-dark-gray, #333333)"/>
<path d="M6 4H7V5H6V4Z" fill="var(--mw-icon-glyph-content-dark-gray, #333333)"/>
<path d="M7 3H8V4H7V3Z" fill="var(--mw-icon-glyph-content-dark-gray, #333333)"/>
<path d="M6 2H7V3H6V2Z" fill="var(--mw-icon-glyph-content-dark-gray, #333333)"/>
<path d="M7 1H8V2H7V1Z" fill="var(--mw-icon-glyph-content-dark-gray, #333333)"/>
<path d="M4 6H5V7H4V6Z" fill="var(--mw-icon-glyph-content-dark-gray, #333333)"/>
<path d="M5 5H6V6H5V5Z" fill="var(--mw-icon-glyph-content-dark-gray, #333333)"/>
<path d="M5 3H6V4H5V3Z" fill="var(--mw-icon-glyph-content-dark-gray, #333333)"/>
<path d="M5 1H6V2H5V1Z" fill="var(--mw-icon-glyph-content-dark-gray, #333333)"/>
<path d="M2 6H3V7H2V6Z" fill="var(--mw-icon-glyph-content-dark-gray, #333333)"/>
<path d="M3 5H4V6H3V5Z" fill="var(--mw-icon-glyph-content-dark-gray, #333333)"/>
<path d="M0.5 0.5H5.5V5.5H0.5V0.5Z" fill="var(--mw-icon-background-red, #FF9D9A)" stroke="var(--mw-icon-alert-red, #B7313C)" stroke-linejoin="round"/>
<path d="M4 2H5V3H4V2Z" fill="var(--mw-icon-glyph-content-red, #902623)"/>
<path d="M3 3H4V4H3V3Z" fill="var(--mw-icon-glyph-content-red, #902623)"/>
<path d="M4 4H5V5H4V4Z" fill="var(--mw-icon-glyph-content-red, #902623)"/>
<path d="M2 4H3V5H2V4Z" fill="var(--mw-icon-glyph-content-red, #902623)"/>
<path d="M1 3H2V4H1V3Z" fill="var(--mw-icon-glyph-content-red, #902623)"/>
<path d="M2 2H3V3H2V2Z" fill="var(--mw-icon-glyph-content-red, #902623)"/>
<path d="M1 1H2V2H1V1Z" fill="var(--mw-icon-glyph-content-red, #902623)"/>
<path d="M3 1H4V2H3V1Z" fill="var(--mw-icon-glyph-content-red, #902623)"/>
<path d="M5.5 5.5L7.96041 14.143L10.3647 11.7386L13.8416 15.2155C14.2209 15.5948 14.8361 15.5948 15.2155 15.2155C15.5948 14.8361 15.5948 14.2209 15.2155 13.8416L11.7386 10.3647L14.143 7.96041L5.5 5.5Z" fill="white" stroke="var(--mw-icon-border-default-gray, #616161)" stroke-linejoin="round"/>
</svg>
