<svg width="16" height="17" viewBox="0 0 16 17" fill="none" xmlns="http://www.w3.org/2000/svg">
<path d="M0.5 1.5C0.5 0.947715 0.947715 0.5 1.5 0.5H14.5C15.0523 0.5 15.5 0.947715 15.5 1.5V6.5C15.5 7.05228 15.0523 7.5 14.5 7.5H1.5C0.947715 7.5 0.5 7.05228 0.5 6.5V1.5Z" fill="var(--mw-icon-background-default-light-gray, #F5F5F5)" stroke="var(--mw-icon-border-default-gray, #616161)"/>
<path d="M5 6L7.46041 14.643L9.86474 12.2386L13.3416 15.7155C13.7209 16.0948 14.3361 16.0948 14.7155 15.7155C15.0948 15.3361 15.0948 14.7209 14.7155 14.3416L11.2386 10.8647L13.643 8.46041L5 6Z" fill="var(--mw-icon-background-default-white, #FFFFFF)" stroke="var(--mw-icon-border-default-gray, #616161)" stroke-linejoin="round"/>
<path d="M13.5 2.5H12.5V4M13.5 4.5H12.5V4M12.5 4L13.5 3.5" stroke="var(--mw-icon-object-primary, #616160)" stroke-linecap="round" stroke-linejoin="round"/>
<path d="M3.5 2.5H2.5L3.5 4.5H2.5" stroke="var(--mw-icon-object-primary, #616160)" stroke-linecap="round" stroke-linejoin="round"/>
<path d="M4.5 2.5H5.5M6.5 2.5H5.5M5.5 2.5V4.5" stroke="var(--mw-icon-object-primary, #616160)" stroke-linecap="round" stroke-linejoin="round"/>
<path d="M9.5 2.5H10.5M11.5 2.5H10.5M10.5 2.5V4.5" stroke="var(--mw-icon-object-primary, #616160)" stroke-linecap="round" stroke-linejoin="round"/>
<path d="M7 4.5L8 2.5L9 4.5" stroke="var(--mw-icon-object-primary, #616160)" stroke-linecap="round" stroke-linejoin="round"/>
</svg>
