<svg width="16" height="16" viewBox="0 0 16 16" fill="none" xmlns="http://www.w3.org/2000/svg">
<rect x="0.5" y="0.5" width="12" height="12" rx="1" fill="var(--mw-icon-background-default-white, #FFFFFF)"/>
<rect x="0.5" y="0.5" width="12" height="12" rx="1" stroke="var(--mw-icon-border-default-gray, #616161)"/>
<path d="M3.5 4L3.5 9.5" stroke="#1171BE" stroke-linecap="round"/>
<path d="M5 4L2 4L3.5 2L5 4Z" fill="#1171BE"/>
<path d="M9.5 9.5H3.5" stroke="#1171BE" stroke-linecap="round"/>
<path d="M9.5 11V8L11.5 9.5L9.5 11Z" fill="#1171BE"/>
<path d="M5.5 5.5L7.96041 14.143L10.3647 11.7386L13.8416 15.2155C14.2209 15.5948 14.8361 15.5948 15.2155 15.2155C15.5948 14.8361 15.5948 14.2209 15.2155 13.8416L11.7386 10.3647L14.143 7.96041L5.5 5.5Z" fill="white" stroke="var(--mw-icon-border-default-gray, #616161)" stroke-linejoin="round"/>
</svg>
