<svg width="16" height="16" viewBox="0 0 16 16" fill="none" xmlns="http://www.w3.org/2000/svg">
<path d="M11 6H6V11H11V6Z" fill="#E6BFFF"/>
<path d="M6 6H1V11H6V6Z" fill="var(--mw-icon-background-light-yellow, #FFF5BC)"/>
<path d="M11 1H6V6H11V1Z" fill="var(--mw-icon-background-red, #FF9D9A)"/>
<path d="M1 1H6V6H1V1Z" fill="var(--mw-icon-background-default-selection, #B4DEFF)"/>
<path d="M10.7667 0.5H1.23333C0.828324 0.5 0.5 0.828324 0.5 1.23333V10.7667C0.5 11.1717 0.828324 11.5 1.23333 11.5H10.7667C11.1717 11.5 11.5 11.1717 11.5 10.7667V1.23333C11.5 0.828324 11.1717 0.5 10.7667 0.5Z" stroke="var(--mw-icon-border-default-gray, #616161)"/>
<path d="M7.5 7.5L9.41417 14.4631L11.3776 12.4996L14.1456 15.2676C14.4555 15.5775 14.9578 15.5775 15.2676 15.2676C15.5775 14.9578 15.5775 14.4555 15.2676 14.1456L12.4996 11.3776L14.4631 9.41417L7.5 7.5Z" fill="var(--mw-icon-background-default-white, #FFFFFF)" stroke="var(--mw-icon-border-default-gray, #616161)" stroke-linejoin="round"/>
</svg>
