<svg width="16" height="16" viewBox="0 0 16 16" fill="none" xmlns="http://www.w3.org/2000/svg">
<path d="M0.5 12.5V2.5C0.5 1.39543 1.39543 0.5 2.5 0.5H12.5C13.6046 0.5 14.5 1.39543 14.5 2.5V12.5C14.5 13.6046 13.6046 14.5 12.5 14.5H2.5C1.39543 14.5 0.5 13.6046 0.5 12.5Z" fill="var(--mw-icon-glyph-content-gray, #616162)"/>
<path d="M14.5 8H0.5V13L0.833333 13.6667L1.83333 14.3333H13.1667L14.1667 14L14.5 13V8Z" fill="var(--mw-icon-border-default-gray, #616161)"/>
<path d="M1.33169 13.7185C3.24968 13.8543 5.1729 14.0233 7.0909 13.8876C8.2174 13.8396 9.35321 13.8632 10.4653 13.9575C11.5576 14.0102 13.3029 14.0394 14.2675 13.8876C14.4306 13.8619 14.4953 13.7324 14.5992 13.7185C14.7067 13.7042 14.8519 13.5322 14.9309 13.4462C15.0864 13.2772 14.9309 12.8451 14.9309 12.8451C14.2373 12.7476 13.6 12.5819 13.0648 12.3599C12.5295 12.138 12.1096 11.8652 11.8351 11.5612C11.6494 11.3723 11.4791 11.1939 11.3089 11.012C11.3708 10.9315 11.4172 10.8651 11.4482 10.8301C12.0286 10.1969 13.3211 9.49376 14.9154 9.32584V8.81509L14.9309 8.79061V8.38831C14.361 8.37437 13.7943 8.34045 13.236 8.28686C11.9745 8.16092 12.0441 8.06997 10.2873 8.18891C9.01526 8.31242 7.70444 8.33138 6.41757 8.24488C5.48859 8.10207 4.48341 8.09595 3.54626 8.22739C2.88655 8.30947 2.20172 8.34256 1.51854 8.32534C1.32505 8.18891 1.15479 8.08746 1 8V9.44828C1.51286 9.54264 1.97584 9.68491 2.35862 9.86577C2.7414 10.0466 2.9091 10.3141 3.2212 10.4978C3.54626 10.6891 3.81493 10.8135 3.98519 10.9954C3.98519 11.2677 3.98519 11.2677 3.6535 11.5401C2.98792 12.2677 2.86519 12.5232 1 12.6562V13.4462C1 13.4462 1.23933 13.7477 1.33169 13.7185ZM13.7236 13.3278L13.4914 13.3558C12.2107 13.4725 10.8885 13.4582 9.62168 13.3139C9.11862 13.2614 8.84774 13.1914 8.52269 13.1669C9.48237 12.95 10.1789 12.3728 10.7671 11.6837C11.4026 12.3433 12.4249 12.9119 13.7236 13.3278ZM11.2624 8.75562C11.7345 8.78011 12.4466 8.8011 13.1741 8.8081C12.6289 9.05577 12.1438 9.32902 11.7268 9.62319C11.3633 9.8688 11.035 10.1247 10.7439 10.3893C10.117 9.72464 9.51333 9.12994 8.73939 8.85707C9.56116 8.75774 10.4148 8.72342 11.2624 8.75562ZM7.73327 9.47277C8.5459 9.47277 9.40497 10.2074 10.1634 11.012V11.0295C9.94778 11.4033 9.59458 11.7581 9.11862 12.079C8.77901 12.3259 8.2828 12.521 7.69457 12.6387C6.58784 12.6387 6.15554 11.9076 5.31194 11.012C6.82886 9.41679 7.44691 9.47277 7.73327 9.47277ZM2.54788 8.97252C3.11514 8.80119 3.77757 8.70542 4.45951 8.69615C5.05544 8.72064 5.89903 8.8046 6.68071 8.86407C5.90677 9.11944 5.13283 9.66517 4.35889 10.4453C4.32848 10.4194 4.3026 10.3925 4.2815 10.3648C3.7822 9.88161 3.20267 9.41617 2.54788 8.97252ZM3.19025 12.6807C3.63898 12.3626 4.02733 12.0279 4.35115 11.6802C5.17927 12.5128 5.66685 13.1669 7.0909 13.2474C6.11359 13.3334 5.48266 13.3953 4.49046 13.4328C3.78506 13.4179 3.08855 13.3554 2.42405 13.2474C2.64849 13.0655 2.89615 12.8731 3.18251 12.6807H3.19025Z" fill="#64D413"/>
<path d="M10.5 11C10.7761 11 11 10.7761 11 10.5C11 10.2239 10.7761 10 10.5 10C10.2239 10 10 10.2239 10 10.5C10 10.7761 10.2239 11 10.5 11Z" fill="#FF13A6"/>
<path d="M4.5 11C4.77614 11 5 10.7761 5 10.5C5 10.2239 4.77614 10 4.5 10C4.22386 10 4 10.2239 4 10.5C4 10.7761 4.22386 11 4.5 11Z" fill="#FF13A6"/>
<path d="M7.5 9C7.77614 9 8 8.77614 8 8.5C8 8.22386 7.77614 8 7.5 8C7.22386 8 7 8.22386 7 8.5C7 8.77614 7.22386 9 7.5 9Z" fill="#FF13A6"/>
<path d="M7.5 14C7.77614 14 8 13.7761 8 13.5C8 13.2239 7.77614 13 7.5 13C7.22386 13 7 13.2239 7 13.5C7 13.7761 7.22386 14 7.5 14Z" fill="#FF13A6"/>
<path d="M1.5 14C1.77614 14 2 13.7761 2 13.5C2 13.2239 1.77614 13 1.5 13C1.22386 13 1 13.2239 1 13.5C1 13.7761 1.22386 14 1.5 14Z" fill="#FF13A6"/>
<path d="M1.5 9C1.77614 9 2 8.77614 2 8.5C2 8.22386 1.77614 8 1.5 8C1.22386 8 1 8.22386 1 8.5C1 8.77614 1.22386 9 1.5 9Z" fill="#FF13A6"/>
<path d="M13.5 9C13.7761 9 14 8.77614 14 8.5C14 8.22386 13.7761 8 13.5 8C13.2239 8 13 8.22386 13 8.5C13 8.77614 13.2239 9 13.5 9Z" fill="#FF13A6"/>
<path d="M13.5 14C13.7761 14 14 13.7761 14 13.5C14 13.2239 13.7761 13 13.5 13C13.2239 13 13 13.2239 13 13.5C13 13.7761 13.2239 14 13.5 14Z" fill="#FF13A6"/>
<path d="M14 1H1V7.5H14V1Z" fill="var(--mw-icon-background-default-light-gray, #F5F5F5)"/>
<rect x="1" y="4" width="13" height="1" fill="var(--mw-icon-border-default-gray, #616161)"/>
<path d="M8 7V2H13V7H8Z" fill="var(--mw-icon-border-default-gray, #616161)"/>
<path d="M0.5 12.5V2.5C0.5 1.39543 1.39543 0.5 2.5 0.5H12.5C13.6046 0.5 14.5 1.39543 14.5 2.5V12.5C14.5 13.6046 13.6046 14.5 12.5 14.5H2.5C1.39543 14.5 0.5 13.6046 0.5 12.5Z" stroke="var(--mw-icon-border-default-gray, #616161)" stroke-linecap="round"/>
<path d="M9.5 3V6" stroke="var(--mw-icon-background-default-white, white)"/>
<path d="M11.5 3V6" stroke="var(--mw-icon-background-default-white, white)"/>
<path d="M3 2L7 4.5L3 7V2Z" fill="var(--mw-icon-border-default-gray, #616161)"/>
<path d="M0.5 12.5V2.5C0.5 1.39543 1.39543 0.5 2.5 0.5H12.5C13.6046 0.5 14.5 1.39543 14.5 2.5V12.5C14.5 13.6046 13.6046 14.5 12.5 14.5H2.5C1.39543 14.5 0.5 13.6046 0.5 12.5Z" stroke="var(--mw-icon-border-default-gray, #616161)" stroke-linecap="round"/>

</svg>
