<svg width="16" height="16" viewBox="0 0 16 16" fill="none" xmlns="http://www.w3.org/2000/svg">
<path d="M11 7.5C11 9.433 9.433 11 7.5 11C5.567 11 4 9.433 4 7.5C4 5.567 5.567 4 7.5 4C9.433 4 11 5.567 11 7.5Z" fill="var(--mw-icon-object-primary, #616160)"/>
<path fill-rule="evenodd" clip-rule="evenodd" d="M10.3701 0.570904C9.46018 0.193993 7.98491 0 7 0V3.02746C7.16417 3.00932 7.331 3 7.5 3C9.98528 3 12 5.01472 12 7.5C12 9.98528 9.98528 12 7.5 12C7.331 12 7.16417 11.9907 7 11.9725V15C7.98491 15 9.46018 14.806 10.3701 14.4291C11.2801 14.0522 12.1069 13.4997 12.8033 12.8033C13.4997 12.1069 14.0522 11.2801 14.4291 10.3701C14.806 9.46018 15 8.48491 15 7.5C15 6.51509 14.806 5.53982 14.4291 4.62987C14.0522 3.71993 13.4997 2.89314 12.8033 2.1967C12.1069 1.50026 11.2801 0.947814 10.3701 0.570904ZM7 10.9646C7.1633 10.9879 7.33024 11 7.5 11C9.433 11 11 9.433 11 7.5C11 5.567 9.433 4 7.5 4C7.33024 4 7.1633 4.01209 7 4.03544V10.9646Z" fill="var(--mw-icon-object-primary, #616160)"/>
</svg>
