<svg width="16" height="16" viewBox="0 0 16 16" fill="none" xmlns="http://www.w3.org/2000/svg">
<path fill-rule="evenodd" clip-rule="evenodd" d="M8.53569 2.63931C8.29928 2.5144 8.05002 2.41056 7.79041 2.33031L7.40909 0.5H5.59091L5.20959 2.33031C4.94997 2.41056 4.70071 2.5144 4.4643 2.63931L2.90017 1.61454L1.61453 2.90018L2.6393 4.46432C2.51439 4.70072 2.41056 4.94998 2.33031 5.20959L0.5 5.59091V7.40909L2.33031 7.79041C2.41056 8.05002 2.51439 8.29928 2.6393 8.53568L1.61452 10.0998L2.90017 11.3855L4.4643 10.3607C4.70071 10.4856 4.94997 10.5894 5.20959 10.6697L5.59091 12.5H7.40909L7.79041 10.6697C8.05002 10.5894 8.29928 10.4856 8.53569 10.3607L10.0998 11.3855L11.3855 10.0998L10.3607 8.5357C10.4856 8.29929 10.5894 8.05002 10.6697 7.79041L12.5 7.40909V5.59091L10.6697 5.20959C10.5894 4.94998 10.4856 4.70071 10.3607 4.46431L11.3855 2.90018L10.0998 1.61453L8.53569 2.63931Z" fill="var(--mw-icon-background-default-medium-gray, #D9D9D9)" stroke="var(--mw-icon-border-default-gray, #616161)" stroke-linejoin="round"/>
<path d="M9 6.5C9 7.88071 7.88071 9 6.5 9C5.11929 9 4 7.88071 4 6.5C4 5.11929 5.11929 4 6.5 4C7.88071 4 9 5.11929 9 6.5Z" fill="var(--mw-icon-background-default-dark-gray, #A6A6A6)"/>
<circle cx="6.5" cy="6.5" r="1.5" fill="var(--mw-icon-glyph-content-gray, #616162)"/>
<path fill-rule="evenodd" clip-rule="evenodd" d="M12.1964 7.28276C11.9994 7.17866 11.7917 7.09214 11.5753 7.02526L11.2576 5.5H9.74242L9.42466 7.02526C9.20831 7.09214 9.00059 7.17867 8.80359 7.28276L7.50014 6.42878L6.42877 7.50015L7.28275 8.8036C7.17866 9.0006 7.09214 9.20832 7.02526 9.42466L5.5 9.74242V11.2576L7.02526 11.5753C7.09213 11.7917 7.17866 11.9994 7.28275 12.1964L6.42877 13.4998L7.50014 14.5712L8.80359 13.7172C9.00059 13.8213 9.20831 13.9079 9.42466 13.9747L9.74242 15.5H11.2576L11.5753 13.9747C11.7917 13.9079 11.9994 13.8213 12.1964 13.7172L13.4998 14.5712L14.5712 13.4998L13.7172 12.1964C13.8213 11.9994 13.9079 11.7917 13.9747 11.5753L15.5 11.2576V9.74242L13.9747 9.42466C13.9079 9.20831 13.8213 9.00059 13.7172 8.80359L14.5712 7.50015L13.4998 6.42878L12.1964 7.28276Z" fill="var(--mw-icon-background-default-medium-gray, #D9D9D9)" stroke="var(--mw-icon-border-default-gray, #616161)"/>
<path d="M12 10.5C12 11.3284 11.3284 12 10.5 12C9.67157 12 9 11.3284 9 10.5C9 9.67157 9.67157 9 10.5 9C11.3284 9 12 9.67157 12 10.5Z" fill="var(--mw-icon-glyph-disabled-gray, #888889)"/>
</svg>
