<svg width="16" height="16" viewBox="0 0 16 16" fill="none" xmlns="http://www.w3.org/2000/svg">
<rect x="1" y="1" width="11" height="11" fill="var(--mw-icon-background-default-white, #FFFFFF)"/>
<rect x="0.5" y="0.5" width="12" height="12" rx="1" stroke="var(--mw-icon-border-default-gray, #616161)"/>
<path d="M5.64016 8L5.99602 8.9122L6.36183 8H6.97217L6.36382 9.46673L7 11H6.38767L6 10.0351L5.61233 11H5L5.63618 9.46673L5.02783 8H5.64016Z" fill="#0072BD"/>
<path d="M4.92761 5.65976C4.92761 5.57286 4.91332 5.49488 4.88472 5.4258C4.8585 5.3545 4.80846 5.28988 4.73458 5.23195C4.66071 5.17179 4.55705 5.11275 4.42359 5.05481C4.29014 4.99688 4.11737 4.93672 3.90527 4.87433C3.66935 4.80303 3.44534 4.72282 3.23324 4.63369C3.02353 4.54456 2.83765 4.44095 2.6756 4.32286C2.51594 4.20254 2.38963 4.06328 2.29669 3.90508C2.20614 3.74688 2.16086 3.56306 2.16086 3.35361C2.16086 3.15085 2.20852 2.96702 2.30384 2.80214C2.39917 2.63503 2.53262 2.49242 2.7042 2.37433C2.87578 2.25401 3.07834 2.16154 3.31189 2.09693C3.54781 2.03231 3.80637 2 4.08758 2C4.47125 2 4.80608 2.06462 5.09205 2.19385C5.37802 2.32308 5.59964 2.50022 5.75693 2.72527C5.91659 2.95031 5.99643 3.20766 5.99643 3.49733H4.93119C4.93119 3.35472 4.89902 3.22995 4.83467 3.12299C4.77271 3.01381 4.67739 2.92803 4.5487 2.86564C4.4224 2.80325 4.26273 2.77206 4.06971 2.77206C3.88382 2.77206 3.72892 2.7988 3.605 2.85227C3.48108 2.90352 3.38814 2.97371 3.32618 3.06283C3.26422 3.14973 3.23324 3.24777 3.23324 3.35695C3.23324 3.43939 3.25469 3.51404 3.29759 3.58088C3.34287 3.64773 3.40959 3.71012 3.49777 3.76805C3.58594 3.82598 3.69437 3.88057 3.82306 3.93182C3.95174 3.98307 4.10069 4.0332 4.26988 4.08222C4.55347 4.16243 4.8025 4.25267 5.01698 4.35294C5.23384 4.45321 5.41495 4.56573 5.56032 4.69051C5.70569 4.81529 5.81531 4.95677 5.88919 5.11497C5.96306 5.27317 6 5.45254 6 5.65307C6 5.86475 5.95591 6.05414 5.86774 6.22126C5.77957 6.38837 5.65207 6.52986 5.48525 6.64572C5.31844 6.76159 5.11945 6.8496 4.88829 6.90976C4.65713 6.96992 4.39857 7 4.1126 7C3.85523 7 3.60143 6.96881 3.35121 6.90642C3.10098 6.8418 2.8734 6.74488 2.66845 6.61564C2.46589 6.48641 2.30384 6.32152 2.18231 6.12099C2.06077 5.92045 2 5.68316 2 5.40909H3.07596C3.07596 5.56061 3.10098 5.68873 3.15103 5.79345C3.20107 5.89817 3.27137 5.98284 3.36193 6.04746C3.45487 6.11208 3.56449 6.15887 3.6908 6.18783C3.81948 6.2168 3.96008 6.23128 4.1126 6.23128C4.29848 6.23128 4.451 6.20677 4.57015 6.15775C4.69169 6.10873 4.78105 6.04078 4.83825 5.95388C4.89783 5.86698 4.92761 5.76894 4.92761 5.65976Z" fill="#0072BD"/>
<path d="M9.92761 5.65976C9.92761 5.57286 9.91332 5.49488 9.88472 5.4258C9.8585 5.3545 9.80846 5.28988 9.73458 5.23195C9.66071 5.17179 9.55705 5.11275 9.42359 5.05481C9.29014 4.99688 9.11737 4.93672 8.90527 4.87433C8.66935 4.80303 8.44534 4.72282 8.23324 4.63369C8.02353 4.54456 7.83765 4.44095 7.6756 4.32286C7.51594 4.20254 7.38963 4.06328 7.29669 3.90508C7.20614 3.74688 7.16086 3.56306 7.16086 3.35361C7.16086 3.15085 7.20852 2.96702 7.30384 2.80214C7.39917 2.63503 7.53262 2.49242 7.7042 2.37433C7.87578 2.25401 8.07834 2.16154 8.31189 2.09693C8.54781 2.03231 8.80637 2 9.08758 2C9.47125 2 9.80608 2.06462 10.092 2.19385C10.378 2.32308 10.5996 2.50022 10.7569 2.72527C10.9166 2.95031 10.9964 3.20766 10.9964 3.49733H9.93119C9.93119 3.35472 9.89902 3.22995 9.83467 3.12299C9.77271 3.01381 9.67739 2.92803 9.5487 2.86564C9.4224 2.80325 9.26273 2.77206 9.06971 2.77206C8.88382 2.77206 8.72892 2.7988 8.605 2.85227C8.48108 2.90352 8.38814 2.97371 8.32618 3.06283C8.26422 3.14973 8.23324 3.24777 8.23324 3.35695C8.23324 3.43939 8.25469 3.51404 8.29759 3.58088C8.34287 3.64773 8.40959 3.71012 8.49777 3.76805C8.58594 3.82598 8.69437 3.88057 8.82306 3.93182C8.95174 3.98307 9.10069 4.0332 9.26988 4.08222C9.55347 4.16243 9.8025 4.25267 10.017 4.35294C10.2338 4.45321 10.415 4.56573 10.5603 4.69051C10.7057 4.81529 10.8153 4.95677 10.8892 5.11497C10.9631 5.27317 11 5.45254 11 5.65307C11 5.86475 10.9559 6.05414 10.8677 6.22126C10.7796 6.38837 10.6521 6.52986 10.4853 6.64572C10.3184 6.76159 10.1195 6.8496 9.88829 6.90976C9.65713 6.96992 9.39857 7 9.1126 7C8.85523 7 8.60143 6.96881 8.35121 6.90642C8.10098 6.8418 7.8734 6.74488 7.66845 6.61564C7.46589 6.48641 7.30384 6.32152 7.18231 6.12099C7.06077 5.92045 7 5.68316 7 5.40909H8.07596C8.07596 5.56061 8.10098 5.68873 8.15103 5.79345C8.20107 5.89817 8.27137 5.98284 8.36193 6.04746C8.45487 6.11208 8.56449 6.15887 8.6908 6.18783C8.81948 6.2168 8.96008 6.23128 9.1126 6.23128C9.29848 6.23128 9.451 6.20677 9.57015 6.15775C9.69169 6.10873 9.78105 6.04078 9.83825 5.95388C9.89783 5.86698 9.92761 5.76894 9.92761 5.65976Z" fill="#0072BD"/>
<path d="M2.61604 8.6833V11H2V8.05445H2.57754L2.61604 8.6833ZM2.5262 9.42377H2.35936C2.35936 9.20599 2.38146 9.00998 2.42567 8.83575C2.46988 8.65971 2.53191 8.50998 2.61176 8.38657C2.69162 8.26134 2.78645 8.16606 2.89626 8.10073C3.00749 8.03358 3.13155 8 3.26845 8C3.37683 8 3.47594 8.01996 3.56578 8.05989C3.65562 8.09982 3.73262 8.16334 3.79679 8.25045C3.86239 8.33757 3.9123 8.45281 3.94652 8.59619C3.98217 8.73956 4 8.9147 4 9.1216V11H3.37968V9.11887C3.37968 8.9882 3.36542 8.88657 3.3369 8.81397C3.30838 8.74138 3.26631 8.69056 3.2107 8.66152C3.15651 8.63067 3.08948 8.61524 3.00963 8.61524C2.92692 8.61524 2.8549 8.63612 2.79358 8.67786C2.73369 8.7196 2.68378 8.77768 2.64385 8.85209C2.60535 8.92468 2.57611 9.00998 2.55615 9.10799C2.53619 9.20599 2.5262 9.31125 2.5262 9.42377Z" fill="#0072BD"/>
<path fill-rule="evenodd" clip-rule="evenodd" d="M12.1964 7.28276C11.9994 7.17866 11.7917 7.09214 11.5753 7.02526L11.2576 5.5H9.74242L9.42466 7.02526C9.20831 7.09214 9.00059 7.17867 8.80359 7.28276L7.50014 6.42878L6.42877 7.50015L7.28275 8.8036C7.17866 9.0006 7.09214 9.20832 7.02526 9.42466L5.5 9.74242V11.2576L7.02526 11.5753C7.09213 11.7917 7.17866 11.9994 7.28275 12.1964L6.42877 13.4998L7.50014 14.5712L8.80359 13.7172C9.00059 13.8213 9.20831 13.9079 9.42466 13.9747L9.74242 15.5H11.2576L11.5753 13.9747C11.7917 13.9079 11.9994 13.8213 12.1964 13.7172L13.4998 14.5712L14.5712 13.4998L13.7172 12.1964C13.8213 11.9994 13.9079 11.7917 13.9747 11.5753L15.5 11.2576V9.74242L13.9747 9.42466C13.9079 9.20831 13.8213 9.00059 13.7172 8.80359L14.5712 7.50015L13.4998 6.42878L12.1964 7.28276Z" fill="var(--mw-icon-background-default-medium-gray, #D9D9D9)" stroke="var(--mw-icon-border-default-gray, #616161)"/>
<path d="M12 10.5C12 11.3284 11.3284 12 10.5 12C9.67157 12 9 11.3284 9 10.5C9 9.67157 9.67157 9 10.5 9C11.3284 9 12 9.67157 12 10.5Z" fill="var(--mw-icon-glyph-disabled-gray, #888889)"/>
</svg>
