<svg width="16" height="16" viewBox="0 0 16 16" fill="none" xmlns="http://www.w3.org/2000/svg">
<path d="M2.1665 2.1665H11.4998L11.4998 10.9998C11.4998 11.2759 11.276 11.4998 10.9998 11.4998L2.1665 11.4998V2.1665Z" fill="var(--mw-icon-background-default-white, #FFFFFF)" stroke="var(--mw-icon-border-default-gray, #616161)"/>
<path d="M3.5 0.5H11C11.2761 0.5 11.5 0.723857 11.5 1V3.5H3.5V0.5Z" fill="var(--mw-icon-background-default-selection, #B4DEFF)"/>
<path d="M1 11.5C0.723858 11.5 0.500001 11.2761 0.500001 11L0.5 1.00001C0.5 0.723865 0.723856 0.500009 0.999997 0.500007L3.5 0.5L3.5 11.5H1Z" fill="var(--mw-icon-background-default-selection, #B4DEFF)"/>
<path d="M3.5 0.5H11C11.2761 0.5 11.5 0.723857 11.5 1V3.5H3.5V0.5ZM3.5 0.5L0.999997 0.500007C0.723856 0.500009 0.5 0.723865 0.5 1.00001L0.500001 11C0.500001 11.2761 0.723858 11.5 1 11.5H3.5L3.5 0.5Z" stroke="var(--mw-icon-border-default-blue, #1656A7)"/>
<path d="M7.5 3V1M1 3.5H3M1 7.5H3" stroke="var(--mw-icon-border-default-blue, #1656A7)"/>
<path d="M4.5 7H4V8H4.5V7ZM10.5 8H11V7H10.5V8ZM8 4.5V4H7V4.5H8ZM7 10.5V11H8V10.5H7ZM4.5 8H10.5V7H4.5V8ZM7 4.5V10.5H8V4.5H7Z" fill="var(--mw-icon-border-default-gray, #616161)"/>
<path fill-rule="evenodd" clip-rule="evenodd" d="M12.1964 7.28276C11.9994 7.17866 11.7917 7.09214 11.5753 7.02526L11.2576 5.5H9.74242L9.42466 7.02526C9.20831 7.09214 9.00059 7.17867 8.80359 7.28276L7.50014 6.42878L6.42877 7.50015L7.28275 8.8036C7.17866 9.0006 7.09214 9.20832 7.02526 9.42466L5.5 9.74242V11.2576L7.02526 11.5753C7.09213 11.7917 7.17866 11.9994 7.28275 12.1964L6.42877 13.4998L7.50014 14.5712L8.80359 13.7172C9.00059 13.8213 9.20831 13.9079 9.42466 13.9747L9.74242 15.5H11.2576L11.5753 13.9747C11.7917 13.9079 11.9994 13.8213 12.1964 13.7172L13.4998 14.5712L14.5712 13.4998L13.7172 12.1964C13.8213 11.9994 13.9079 11.7917 13.9747 11.5753L15.5 11.2576V9.74242L13.9747 9.42466C13.9079 9.20831 13.8213 9.00059 13.7172 8.80359L14.5712 7.50015L13.4998 6.42878L12.1964 7.28276Z" fill="var(--mw-icon-background-default-medium-gray, #D9D9D9)" stroke="var(--mw-icon-border-default-gray, #616161)"/>
<path d="M12 10.5C12 11.3284 11.3284 12 10.5 12C9.67157 12 9 11.3284 9 10.5C9 9.67157 9.67157 9 10.5 9C11.3284 9 12 9.67157 12 10.5Z" fill="var(--mw-icon-glyph-disabled-gray, #888889)"/>
</svg>
