<svg width="16" height="16" viewBox="0 0 16 16" fill="none" xmlns="http://www.w3.org/2000/svg">
<path d="M11.5 0.5H1.5C0.947715 0.5 0.5 0.947715 0.5 1.5V11.5C0.5 12.0523 0.947715 12.5 1.5 12.5H11.5C12.0523 12.5 12.5 12.0523 12.5 11.5V1.5C12.5 0.947715 12.0523 0.5 11.5 0.5Z" fill="var(--mw-icon-background-default-white, #FFFFFF)" stroke="var(--mw-icon-border-default-gray, #616161)"/>
<path d="M1 8.5H3.5L4.5 10.5L5.5 6.5H7.5L8.5 2.5L9.5 4.5H12" stroke="#0072BD" stroke-linejoin="round"/>
<path fill-rule="evenodd" clip-rule="evenodd" d="M2 7H1V6H2V7ZM4 7H3V6H4V7ZM6 7H5V6H6V7ZM8 7H7V6H8V7ZM10 7H9V6H10V7ZM12 7H11V6H12V7Z" fill="#D95319"/>
<path fill-rule="evenodd" clip-rule="evenodd" d="M12.1964 7.28276C11.9994 7.17866 11.7917 7.09214 11.5753 7.02526L11.2576 5.5H9.74242L9.42466 7.02526C9.20831 7.09214 9.00059 7.17867 8.80359 7.28276L7.50014 6.42878L6.42877 7.50015L7.28275 8.8036C7.17866 9.0006 7.09214 9.20832 7.02526 9.42466L5.5 9.74242V11.2576L7.02526 11.5753C7.09213 11.7917 7.17866 11.9994 7.28275 12.1964L6.42877 13.4998L7.50014 14.5712L8.80359 13.7172C9.00059 13.8213 9.20831 13.9079 9.42466 13.9747L9.74242 15.5H11.2576L11.5753 13.9747C11.7917 13.9079 11.9994 13.8213 12.1964 13.7172L13.4998 14.5712L14.5712 13.4998L13.7172 12.1964C13.8213 11.9994 13.9079 11.7917 13.9747 11.5753L15.5 11.2576V9.74242L13.9747 9.42466C13.9079 9.20831 13.8213 9.00059 13.7172 8.80359L14.5712 7.50015L13.4998 6.42878L12.1964 7.28276Z" fill="var(--mw-icon-background-default-medium-gray, #D9D9D9)" stroke="var(--mw-icon-border-default-gray, #616161)"/>
<path d="M12 10.5C12 11.3284 11.3284 12 10.5 12C9.67157 12 9 11.3284 9 10.5C9 9.67157 9.67157 9 10.5 9C11.3284 9 12 9.67157 12 10.5Z" fill="var(--mw-icon-glyph-disabled-gray, #888889)"/>
</svg>
