<svg width="16" height="16" viewBox="0 0 16 16" fill="none" xmlns="http://www.w3.org/2000/svg">
<path d="M0 0.5C0 0.223858 0.223858 0 0.5 0H2V10.5H0.5C0.223858 10.5 0 10.2761 0 10V0.5Z" fill="var(--mw-icon-glyph-content-light-blue, #278CDD)"/>
<path d="M3 0H5V10.5H3V0Z" fill="var(--mw-icon-glyph-content-light-blue, #278CDD)"/>
<path d="M6 0H8V10.5H6V0Z" fill="var(--mw-icon-glyph-content-light-blue, #278CDD)"/>
<path d="M9 0H10.5C10.7761 0 11 0.223858 11 0.5V10C11 10.2761 10.7761 10.5 10.5 10.5H9V0Z" fill="var(--mw-icon-glyph-content-light-blue, #278CDD)"/>
<path fill-rule="evenodd" clip-rule="evenodd" d="M11.1964 7.28276C10.9994 7.17866 10.7917 7.09214 10.5753 7.02526L10.2576 5.5H8.74242L8.42466 7.02526C8.20831 7.09214 8.00059 7.17867 7.80359 7.28276L6.50014 6.42878L5.42877 7.50015L6.28275 8.8036C6.17866 9.0006 6.09214 9.20832 6.02526 9.42466L4.5 9.74242V11.2576L6.02526 11.5753C6.09213 11.7917 6.17866 11.9994 6.28275 12.1964L5.42877 13.4998L6.50014 14.5712L7.80359 13.7172C8.00059 13.8213 8.20831 13.9079 8.42466 13.9747L8.74242 15.5H10.2576L10.5753 13.9747C10.7917 13.9079 10.9994 13.8213 11.1964 13.7172L12.4998 14.5712L13.5712 13.4998L12.7172 12.1964C12.8213 11.9994 12.9079 11.7917 12.9747 11.5753L14.5 11.2576V9.74242L12.9747 9.42466C12.9079 9.20831 12.8213 9.00059 12.7172 8.80359L13.5712 7.50015L12.4998 6.42878L11.1964 7.28276Z" fill="var(--mw-icon-background-default-medium-gray, #D9D9D9)" stroke="var(--mw-icon-border-default-gray, #616161)"/>
<path d="M11 10.5C11 11.3284 10.3284 12 9.5 12C8.67157 12 8 11.3284 8 10.5C8 9.67157 8.67157 9 9.5 9C10.3284 9 11 9.67157 11 10.5Z" fill="var(--mw-icon-glyph-disabled-gray, #888889)"/>
</svg>
