<svg width="16" height="16" viewBox="0 0 16 16" fill="none" xmlns="http://www.w3.org/2000/svg">
<rect x="2.5" y="2.5" width="10" height="10" rx="1" fill="var(--mw-icon-background-default-medium-gray, #D9D9D9)" stroke="var(--mw-icon-border-default-gray, #616161)"/>
<rect x="0.5" y="0.5" width="10" height="10" rx="1" fill="var(--mw-icon-background-default-white, #FFFFFF)"/>
<path d="M8.58822 4.25391C8.36801 4.12289 8.19854 4.02478 8.05669 3.95526C7.94833 4.02991 7.87801 4.08879 7.83272 4.13178C7.74764 4.21256 7.72656 4.24509 7.67433 4.42488C7.66415 4.45995 7.65172 4.50791 7.63653 4.56654C7.56706 4.83471 7.43976 5.32608 7.20425 5.82838C7.06541 6.12448 6.88863 6.43482 6.65803 6.76474C6.39868 7.1358 6.0767 7.39709 5.77903 7.58418C5.29886 7.88596 4.75035 8.07081 4.38223 8.19441L4.28131 8.22825C4.09024 8.29227 3.9367 8.34371 3.80483 8.39303C3.93488 8.46091 4.10232 8.52255 4.3463 8.60619L4.37718 8.61669C4.5288 8.66815 4.84716 8.77617 5.11923 8.94762C5.49192 9.18248 6 9.68084 6 10.5L3 10.5C2.5 10.5 2.5 10.5 1.59696 10.4892C1.19072 10.1278 0.5 9.40944 0.5 8.358C0.5 7.68902 0.723597 7.09968 1.12245 6.62956C1.4887 6.19787 1.94211 5.93812 2.30078 5.77144C2.64871 5.60976 3.03321 5.48175 3.32171 5.3857L3.42729 5.35045C3.83359 5.21403 4.04931 5.12798 4.18267 5.04417C4.19848 5.03423 4.20938 5.02652 4.21631 5.02132C4.34205 4.83871 4.42699 4.68491 4.48801 4.55478C4.59522 4.32612 4.63332 4.18128 4.69333 3.95314C4.71981 3.85246 4.75057 3.73555 4.79341 3.58806C4.93788 3.09067 5.17295 2.52023 5.76723 1.95606C5.98761 1.74685 6.23924 1.55548 6.52137 1.37384C6.57857 1.33702 6.63696 1.30192 6.69656 1.2687C7.15567 1.0128 7.64971 0.889858 8.15609 0.910416C8.64277 0.930175 9.07422 1.11631 9.32853 1.23795C9.61505 1.37499 9.90158 1.54449 10.1222 1.67572L10.174 1.70657C10.3941 1.83762 10.5483 1.92941 10.6792 1.99585C10.7349 2.02409 10.7622 2.0351 10.7667 2.03693C10.7626 2.03551 10.7394 2.02758 10.7005 2.01948C10.6626 2.01161 10.5931 2.00002 10.5 2.00002V5.00002C9.97391 5.00002 9.51109 4.76725 9.32139 4.67096C9.09403 4.55556 8.84942 4.40967 8.65392 4.29307L8.58822 4.25391Z" fill="var(--mw-icon-background-default-selection, #B4DEFF)"/>
<path d="M4.5 10.5C4.5 10 3.42844 10.1109 2.59395 9.36849C2.24841 9.06109 2 8.72658 2 8.358C2 7.72351 2.39904 7.37983 2.93292 7.13173C3.23026 6.99356 3.56942 6.88503 3.90476 6.77243C4.29197 6.64241 4.67409 6.50697 4.98085 6.31417C5.16072 6.20112 5.31468 6.06836 5.42857 5.90542C5.6115 5.64369 5.74483 5.40762 5.84613 5.19158C6.28767 4.24988 6.12062 3.68886 6.79998 3.04392C6.93847 2.91244 7.11215 2.77747 7.33333 2.63508C7.36469 2.61489 7.39586 2.59619 7.42686 2.57891C7.65834 2.44989 7.88016 2.40045 8.09524 2.40918C8.7662 2.43642 9.98255 3.50001 10.5 3.50001" stroke="var(--mw-icon-glyph-content-gray, #616162)" stroke-linejoin="round"/>
<path d="M4 2.5C4 2.22386 4.22386 2 4.5 2C4.77614 2 5 2.22386 5 2.5C5 2.77614 4.77614 3 4.5 3C4.22386 3 4 2.77614 4 2.5Z" fill="var(--mw-icon-glyph-disabled-gray, #888889)"/>
<path d="M5 1.5C5 1.22386 5.22386 1 5.5 1C5.77614 1 6 1.22386 6 1.5C6 1.77614 5.77614 2 5.5 2C5.22386 2 5 1.77614 5 1.5Z" fill="var(--mw-icon-glyph-disabled-gray, #888889)"/>
<path d="M9 1.5C9 1.22386 9.22386 1 9.5 1C9.77614 1 10 1.22386 10 1.5C10 1.77614 9.77614 2 9.5 2C9.22386 2 9 1.77614 9 1.5Z" fill="var(--mw-icon-glyph-disabled-gray, #888889)"/>
<path d="M2 2C2 1.72386 2.22386 1.5 2.5 1.5C2.77614 1.5 3 1.72386 3 2C3 2.27614 2.77614 2.5 2.5 2.5C2.22386 2.5 2 2.27614 2 2Z" fill="var(--mw-icon-glyph-disabled-gray, #888889)"/>
<path d="M8 4.5C8 4.22386 8.22386 4 8.5 4C8.77614 4 9 4.22386 9 4.5C9 4.77614 8.77614 5 8.5 5C8.22386 5 8 4.77614 8 4.5Z" fill="var(--mw-icon-glyph-disabled-gray, #888889)"/>
<path d="M7 6.5C7 6.22386 7.22386 6 7.5 6C7.77614 6 8 6.22386 8 6.5C8 6.77614 7.77614 7 7.5 7C7.22386 7 7 6.77614 7 6.5Z" fill="var(--mw-icon-glyph-disabled-gray, #888889)"/>
<path d="M4 8.5C4 8.22386 4.22386 8 4.5 8C4.77614 8 5 8.22386 5 8.5C5 8.77614 4.77614 9 4.5 9C4.22386 9 4 8.77614 4 8.5Z" fill="var(--mw-icon-glyph-disabled-gray, #888889)"/>
<path d="M1 3.5C1 3.22386 1.22386 3 1.5 3C1.77614 3 2 3.22386 2 3.5C2 3.77614 1.77614 4 1.5 4C1.22386 4 1 3.77614 1 3.5Z" fill="var(--mw-icon-glyph-disabled-gray, #888889)"/>
<path d="M3 4.5C3 4.22386 3.22386 4 3.5 4C3.77614 4 4 4.22386 4 4.5C4 4.77614 3.77614 5 3.5 5C3.22386 5 3 4.77614 3 4.5Z" fill="var(--mw-icon-glyph-disabled-gray, #888889)"/>
<path d="M1 5.5C1 5.22386 1.22386 5 1.5 5C1.77614 5 2 5.22386 2 5.5C2 5.77614 1.77614 6 1.5 6C1.22386 6 1 5.77614 1 5.5Z" fill="var(--mw-icon-glyph-disabled-gray, #888889)"/>
<rect x="0.5" y="0.5" width="10" height="10" rx="1" stroke="var(--mw-icon-border-default-gray, #616161)"/>
<path fill-rule="evenodd" clip-rule="evenodd" d="M12.1964 7.28276C11.9994 7.17866 11.7917 7.09214 11.5753 7.02526L11.2576 5.5H9.74242L9.42466 7.02526C9.20831 7.09214 9.00059 7.17867 8.80359 7.28276L7.50014 6.42878L6.42877 7.50015L7.28275 8.8036C7.17866 9.0006 7.09214 9.20832 7.02526 9.42466L5.5 9.74242V11.2576L7.02526 11.5753C7.09213 11.7917 7.17866 11.9994 7.28275 12.1964L6.42877 13.4998L7.50014 14.5712L8.80359 13.7172C9.00059 13.8213 9.20831 13.9079 9.42466 13.9747L9.74242 15.5H11.2576L11.5753 13.9747C11.7917 13.9079 11.9994 13.8213 12.1964 13.7172L13.4998 14.5712L14.5712 13.4998L13.7172 12.1964C13.8213 11.9994 13.9079 11.7917 13.9747 11.5753L15.5 11.2576V9.74242L13.9747 9.42466C13.9079 9.20831 13.8213 9.00059 13.7172 8.80359L14.5712 7.50015L13.4998 6.42878L12.1964 7.28276Z" fill="var(--mw-icon-background-default-medium-gray, #D9D9D9)" stroke="var(--mw-icon-border-default-gray, #616161)"/>
<path d="M12 10.5C12 11.3284 11.3284 12 10.5 12C9.67157 12 9 11.3284 9 10.5C9 9.67157 9.67157 9 10.5 9C11.3284 9 12 9.67157 12 10.5Z" fill="var(--mw-icon-glyph-disabled-gray, #888889)"/>
</svg>
