<svg width="16" height="16" viewBox="0 0 16 16" fill="none" xmlns="http://www.w3.org/2000/svg">
<rect x="3.5" y="3.5" width="11" height="11" rx="1" fill="var(--mw-icon-background-default-medium-gray, #D9D9D9)" stroke="var(--mw-icon-border-default-gray, #616161)"/>
<rect x="1.5" y="1.5" width="11" height="11" rx="1" fill="var(--mw-icon-background-default-white, #FFFFFF)"/>
<path d="M6.99985 2.41667C6.99985 1.91041 7.41026 1.5 7.91652 1.5C8.42278 1.5 8.83319 1.91041 8.83319 2.41667C8.83319 2.92293 8.42278 3.33333 7.91652 3.33333C7.41026 3.33333 6.99985 2.92293 6.99985 2.41667Z" fill="white"/>
<path d="M3.33301 3.33334C3.33301 2.82708 3.74341 2.41668 4.24967 2.41668C4.75594 2.41668 5.16634 2.82708 5.16634 3.33334C5.16634 3.83961 4.75594 4.25001 4.24967 4.25001C3.74341 4.25001 3.33301 3.83961 3.33301 3.33334Z" fill="white"/>
<path d="M6.99985 2.41667C6.99985 1.91041 7.41026 1.5 7.91652 1.5C8.42278 1.5 8.83319 1.91041 8.83319 2.41667C8.83319 2.92293 8.42278 3.33333 7.91652 3.33333C7.41026 3.33333 6.99985 2.92293 6.99985 2.41667Z" stroke="#DD5400"/>
<path d="M3.33301 3.33334C3.33301 2.82708 3.74341 2.41668 4.24967 2.41668C4.75594 2.41668 5.16634 2.82708 5.16634 3.33334C5.16634 3.83961 4.75594 4.25001 4.24967 4.25001C3.74341 4.25001 3.33301 3.83961 3.33301 3.33334Z" stroke="#DD5400"/>
<path d="M3.33301 11.5833C3.33301 11.0771 3.74341 10.6667 4.24967 10.6667C4.75594 10.6667 5.16634 11.0771 5.16634 11.5833C5.16634 12.0896 4.75594 12.5 4.24967 12.5C3.74341 12.5 3.33301 12.0896 3.33301 11.5833Z" fill="white"/>
<path d="M7.45801 10.6667C7.45801 10.1604 7.86841 9.75 8.37467 9.75C8.88094 9.75 9.29134 10.1604 9.29134 10.6667C9.29134 11.1729 8.88094 11.5833 8.37467 11.5833C7.86841 11.5833 7.45801 11.1729 7.45801 10.6667Z" fill="white"/>
<path d="M10.6667 7.91667C10.6667 7.41041 11.0771 7 11.5834 7C12.0896 7 12.5 7.41041 12.5 7.91667C12.5 8.42293 12.0896 8.83333 11.5834 8.83333C11.0771 8.83333 10.6667 8.42293 10.6667 7.91667Z" fill="white"/>
<path d="M3.33301 11.5833C3.33301 11.0771 3.74341 10.6667 4.24967 10.6667C4.75594 10.6667 5.16634 11.0771 5.16634 11.5833C5.16634 12.0896 4.75594 12.5 4.24967 12.5C3.74341 12.5 3.33301 12.0896 3.33301 11.5833Z" stroke="#1171BE"/>
<path d="M7.45801 10.6667C7.45801 10.1604 7.86841 9.75 8.37467 9.75C8.88094 9.75 9.29134 10.1604 9.29134 10.6667C9.29134 11.1729 8.88094 11.5833 8.37467 11.5833C7.86841 11.5833 7.45801 11.1729 7.45801 10.6667Z" stroke="#1171BE"/>
<path d="M10.6667 7.91667C10.6667 7.41041 11.0771 7 11.5834 7C12.0896 7 12.5 7.41041 12.5 7.91667C12.5 8.42293 12.0896 8.83333 11.5834 8.83333C11.0771 8.83333 10.6667 8.42293 10.6667 7.91667Z" stroke="#1171BE"/>
<path d="M1.5 8.83333L12.5 4.25" stroke="var(--mw-icon-glyph-content-gray, #616162)" stroke-linecap="round" stroke-linejoin="round"/>
<path d="M1.5 10.6667L12.5 6.08335M1.5 7.00002L12.5 2.41669" stroke="var(--mw-icon-glyph-content-gray, #616162)" stroke-linejoin="round" stroke-dasharray="2 3"/>
<rect x="1.5" y="1.5" width="11" height="11" rx="1" stroke="var(--mw-icon-border-default-gray, #616161)"/>
<path fill-rule="evenodd" clip-rule="evenodd" d="M12.1964 7.28276C11.9994 7.17866 11.7917 7.09214 11.5753 7.02526L11.2576 5.5H9.74242L9.42466 7.02526C9.20831 7.09214 9.00059 7.17867 8.80359 7.28276L7.50014 6.42878L6.42877 7.50015L7.28275 8.8036C7.17866 9.0006 7.09214 9.20832 7.02526 9.42466L5.5 9.74242V11.2576L7.02526 11.5753C7.09213 11.7917 7.17866 11.9994 7.28275 12.1964L6.42877 13.4998L7.50014 14.5712L8.80359 13.7172C9.00059 13.8213 9.20831 13.9079 9.42466 13.9747L9.74242 15.5H11.2576L11.5753 13.9747C11.7917 13.9079 11.9994 13.8213 12.1964 13.7172L13.4998 14.5712L14.5712 13.4998L13.7172 12.1964C13.8213 11.9994 13.9079 11.7917 13.9747 11.5753L15.5 11.2576V9.74242L13.9747 9.42466C13.9079 9.20831 13.8213 9.00059 13.7172 8.80359L14.5712 7.50015L13.4998 6.42878L12.1964 7.28276Z" fill="var(--mw-icon-background-default-medium-gray, #D9D9D9)" stroke="var(--mw-icon-border-default-gray, #616161)"/>
<path d="M12 10.5C12 11.3284 11.3284 12 10.5 12C9.67157 12 9 11.3284 9 10.5C9 9.67157 9.67157 9 10.5 9C11.3284 9 12 9.67157 12 10.5Z" fill="var(--mw-icon-glyph-disabled-gray, #888889)"/>
<circle cx="4" cy="4" r="3.5" fill="white" stroke="var(--mw-icon-border-default-gray, #616161)"/>
<path d="M2.2669 5.73234C2.5518 6.01724 2.90256 6.22747 3.28812 6.34443C3.67368 6.46139 4.08212 6.48145 4.47729 6.40285C4.87245 6.32425 5.24213 6.1494 5.55358 5.8938C5.86503 5.6382 6.10864 5.30974 6.26282 4.9375C6.41701 4.56527 6.47701 4.16075 6.43752 3.75979C6.39803 3.35882 6.26026 2.97378 6.03642 2.63878C5.81258 2.30378 5.50957 2.02915 5.15424 1.83922C4.79891 1.64929 4.40222 1.54993 3.99932 1.54993L3.99932 3.99993L2.2669 5.73234Z" fill="var(--mw-icon-background-default-selection, #B4DEFF)"/>
<path d="M4.00059 1.89996V3.99993L2.60059 5.39996" stroke="var(--mw-icon-glyph-content-gray, #616162)" stroke-linecap="square" stroke-linejoin="round"/>
</svg>
