<svg width="16" height="16" viewBox="0 0 16 16" fill="none" xmlns="http://www.w3.org/2000/svg">
<rect x="0.5" y="0.5" width="14" height="14" rx="1" fill="var(--mw-icon-background-default-white, #FFFFFF)"/>
<rect x="0.5" y="0.5" width="14" height="14" rx="1" stroke="var(--mw-icon-border-default-gray, #616161)"/>
<path d="M3.5 5.5L4.5 6.5M4.5 6.5L5.5 7.5M4.5 6.5L5.5 5.5M4.5 6.5L3.5 7.5" stroke="#1171BE" stroke-linecap="round"/>
<rect x="9" y="1" width="5" height="13" fill="var(--mw-icon-background-medium-yellow, #FFEF91)"/>
<rect x="8" y="1" width="1" height="13" fill="var(--mw-icon-glyph-content-yellow, #674C07)"/>
<path d="M10.5 2.5L11.5 3.5M11.5 3.5L12.5 4.5M11.5 3.5L12.5 2.5M11.5 3.5L10.5 4.5" stroke="#1171BE" stroke-linecap="round"/>
<path d="M10.5 10.5L11.5 11.5M11.5 11.5L12.5 12.5M11.5 11.5L12.5 10.5M11.5 11.5L10.5 12.5" stroke="#1171BE" stroke-linecap="round"/>
</svg>
