<svg width="16" height="16" viewBox="0 0 16 16" fill="none" xmlns="http://www.w3.org/2000/svg">
<path d="M11.5 3.5H1.5C0.947715 3.5 0.5 3.94772 0.5 4.5V11.5C0.5 12.0523 0.947715 12.5 1.5 12.5H11.5C12.0523 12.5 12.5 12.0523 12.5 11.5V4.5C12.5 3.94772 12.0523 3.5 11.5 3.5Z" fill="var(--mw-icon-background-default-selection, #B4DEFF)" stroke="var(--mw-icon-border-default-blue, #1656A7)"/>
<path d="M2 6.25C2 6.11193 2.11193 6 2.25 6H2.75C2.88807 6 3 6.11193 3 6.25V6.75C3 6.88807 2.88807 7 2.75 7H2.25C2.11193 7 2 6.88807 2 6.75V6.25Z" fill="var(--mw-icon-glyph-content-blue, #1656A8)"/>
<path d="M4 6.25C4 6.11193 4.11193 6 4.25 6H4.75C4.88807 6 5 6.11193 5 6.25V6.75C5 6.88807 4.88807 7 4.75 7H4.25C4.11193 7 4 6.88807 4 6.75V6.25Z" fill="var(--mw-icon-glyph-content-blue, #1656A8)"/>
<path d="M6 6.25C6 6.11193 6.11193 6 6.25 6H6.75C6.88807 6 7 6.11193 7 6.25V6.75C7 6.88807 6.88807 7 6.75 7H6.25C6.11193 7 6 6.88807 6 6.75V6.25Z" fill="var(--mw-icon-glyph-content-blue, #1656A8)"/>
<path d="M8 6.25C8 6.11193 8.11193 6 8.25 6H8.75C8.88807 6 9 6.11193 9 6.25V6.75C9 6.88807 8.88807 7 8.75 7H8.25C8.11193 7 8 6.88807 8 6.75V6.25Z" fill="var(--mw-icon-glyph-content-blue, #1656A8)"/>
<path d="M2 8.25C2 8.11193 2.11193 8 2.25 8H2.75C2.88807 8 3 8.11193 3 8.25V8.75C3 8.88807 2.88807 9 2.75 9H2.25C2.11193 9 2 8.88807 2 8.75V8.25Z" fill="var(--mw-icon-glyph-content-blue, #1656A8)"/>
<path d="M4 8.25C4 8.11193 4.11193 8 4.25 8H4.75C4.88807 8 5 8.11193 5 8.25V8.75C5 8.88807 4.88807 9 4.75 9H4.25C4.11193 9 4 8.88807 4 8.75V8.25Z" fill="var(--mw-icon-glyph-content-blue, #1656A8)"/>
<path d="M6 8.25C6 8.11193 6.11193 8 6.25 8H6.75C6.88807 8 7 8.11193 7 8.25V8.75C7 8.88807 6.88807 9 6.75 9H6.25C6.11193 9 6 8.88807 6 8.75V8.25Z" fill="var(--mw-icon-glyph-content-blue, #1656A8)"/>
<path d="M8 8.25C8 8.11193 8.11193 8 8.25 8H8.75C8.88807 8 9 8.11193 9 8.25V8.75C9 8.88807 8.88807 9 8.75 9H8.25C8.11193 9 8 8.88807 8 8.75V8.25Z" fill="var(--mw-icon-glyph-content-blue, #1656A8)"/>
<path d="M10 6.25C10 6.11193 10.1119 6 10.25 6H10.75C10.8881 6 11 6.11193 11 6.25V6.75C11 6.88807 10.8881 7 10.75 7H10.25C10.1119 7 10 6.88807 10 6.75V6.25Z" fill="var(--mw-icon-glyph-content-blue, #1656A8)"/>
<path d="M10 8.25C10 8.11193 10.1119 8 10.25 8H10.75C10.8881 8 11 8.11193 11 8.25V8.75C11 8.88807 10.8881 9 10.75 9H10.25C10.1119 9 10 8.88807 10 8.75V8.25Z" fill="var(--mw-icon-glyph-content-blue, #1656A8)"/>
<path d="M9.99997 0H11V1H9.99997V0Z" fill="var(--mw-icon-glyph-content-blue, #1656A8)"/>
<path d="M10.5 3L9 1H12L10.5 3Z" fill="var(--mw-icon-glyph-content-blue, #1656A8)"/>
<path d="M5.99997 0H6.99997V1H5.99997V0Z" fill="var(--mw-icon-glyph-content-blue, #1656A8)"/>
<path d="M6.5 3L5 1H7.99997L6.5 3Z" fill="var(--mw-icon-glyph-content-blue, #1656A8)"/>
<path d="M1.99997 0H2.99997V1H1.99997V0Z" fill="var(--mw-icon-glyph-content-blue, #1656A8)"/>
<path d="M2.5 3L1 1H3.99997L2.5 3Z" fill="var(--mw-icon-glyph-content-blue, #1656A8)"/>
<path fill-rule="evenodd" clip-rule="evenodd" d="M12.1964 7.28276C11.9994 7.17866 11.7917 7.09214 11.5753 7.02526L11.2576 5.5H9.74242L9.42466 7.02526C9.20831 7.09214 9.00059 7.17867 8.80359 7.28276L7.50014 6.42878L6.42877 7.50015L7.28275 8.8036C7.17866 9.0006 7.09214 9.20832 7.02526 9.42466L5.5 9.74242V11.2576L7.02526 11.5753C7.09213 11.7917 7.17866 11.9994 7.28275 12.1964L6.42877 13.4998L7.50014 14.5712L8.80359 13.7172C9.00059 13.8213 9.20831 13.9079 9.42466 13.9747L9.74242 15.5H11.2576L11.5753 13.9747C11.7917 13.9079 11.9994 13.8213 12.1964 13.7172L13.4998 14.5712L14.5712 13.4998L13.7172 12.1964C13.8213 11.9994 13.9079 11.7917 13.9747 11.5753L15.5 11.2576V9.74242L13.9747 9.42466C13.9079 9.20831 13.8213 9.00059 13.7172 8.80359L14.5712 7.50015L13.4998 6.42878L12.1964 7.28276Z" fill="var(--mw-icon-background-default-medium-gray, #D9D9D9)" stroke="var(--mw-icon-border-default-gray, #616161)"/>
<path d="M12 10.5C12 11.3284 11.3284 12 10.5 12C9.67157 12 9 11.3284 9 10.5C9 9.67157 9.67157 9 10.5 9C11.3284 9 12 9.67157 12 10.5Z" fill="var(--mw-icon-glyph-disabled-gray, #888889)"/>
</svg>
