<svg width="16" height="16" viewBox="0 0 16 16" fill="none" xmlns="http://www.w3.org/2000/svg">
<path d="M0.5 1.5C0.5 0.947715 0.947715 0.5 1.5 0.5H14.5C15.0523 0.5 15.5 0.947715 15.5 1.5V14.5C15.5 15.0523 15.0523 15.5 14.5 15.5H1.5C0.947715 15.5 0.5 15.0523 0.5 14.5V1.5Z" fill="var(--mw-icon-background-default-white, #FFFFFF)" stroke="var(--mw-icon-glyph-content-gray, #616162)"/>
<path d="M11 4L5 8L11 12" stroke="var(--mw-icon-glyph-content-gray, #616162)" stroke-linejoin="round"/>
<path d="M7 8C7 9.10457 6.10457 10 5 10C3.89543 10 3 9.10457 3 8C3 6.89543 3.89543 6 5 6C6.10457 6 7 6.89543 7 8Z" fill="var(--mw-icon-glyph-content-gray, #616162)"/>
<path d="M13 4C13 5.10457 12.1046 6 11 6C9.89543 6 9 5.10457 9 4C9 2.89543 9.89543 2 11 2C12.1046 2 13 2.89543 13 4Z" fill="var(--mw-icon-glyph-content-gray, #616162)"/>
<path d="M13 12C13 13.1046 12.1046 14 11 14C9.89543 14 9 13.1046 9 12C9 10.8954 9.89543 10 11 10C12.1046 10 13 10.8954 13 12Z" fill="var(--mw-icon-glyph-content-gray, #616162)"/>
</svg>
