<svg width="16" height="16" viewBox="0 0 16 16" fill="none" xmlns="http://www.w3.org/2000/svg">
<path d="M3.5 3C3.5 2.72386 3.72386 2.5 4 2.5H7.88197C8.26074 2.5 8.607 2.714 8.77639 3.05279L9.22361 3.94721C9.393 4.286 9.73926 4.5 10.118 4.5H15C15.2761 4.5 15.5 4.72386 15.5 5V12C15.5 12.2761 15.2761 12.5 15 12.5H4C3.72386 12.5 3.5 12.2761 3.5 12V3Z" fill="var(--mw-icon-background-light-yellow, #FFF5BC)" stroke="#674C06"/>
<path d="M11 7L7.5 8.5L11 10" stroke="var(--mw-icon-glyph-content-yellow, #674C07)" stroke-linecap="round" stroke-linejoin="round"/>
<path d="M12 7C12 7.55228 11.5523 8 11 8C10.4477 8 10 7.55228 10 7C10 6.44772 10.4477 6 11 6C11.5523 6 12 6.44772 12 7Z" fill="var(--mw-icon-glyph-content-yellow, #674C07)"/>
<path d="M12 10C12 10.5523 11.5523 11 11 11C10.4477 11 10 10.5523 10 10C10 9.44772 10.4477 9 11 9C11.5523 9 12 9.44772 12 10Z" fill="var(--mw-icon-glyph-content-yellow, #674C07)"/>
</svg>
