<svg width="16" height="16" viewBox="0 0 16 16" fill="none" xmlns="http://www.w3.org/2000/svg">
<path d="M0.5 4.5C0.5 3.94772 0.947715 3.5 1.5 3.5H10.5C11.0523 3.5 11.5 3.94772 11.5 4.5V6.5V9.5V11.5C11.5 12.0523 11.0523 12.5 10.5 12.5H1.5C0.947715 12.5 0.5 12.0523 0.5 11.5V4.5Z" fill="var(--mw-icon-background-default-medium-gray, #D9D9D9)"/>
<path d="M13.5 4.5L11.5 6.5V9.5L13.5 11.5V4.5Z" fill="var(--mw-icon-background-default-medium-gray, #D9D9D9)"/>
<path d="M13.5 4.5V11.5H15.5L15.5 4.5H13.5Z" fill="var(--mw-icon-background-default-medium-gray, #D9D9D9)"/>
<path d="M11.5 6.5V4.5C11.5 3.94772 11.0523 3.5 10.5 3.5H1.5C0.947715 3.5 0.5 3.94772 0.5 4.5V11.5C0.5 12.0523 0.947715 12.5 1.5 12.5H10.5C11.0523 12.5 11.5 12.0523 11.5 11.5V9.5M11.5 6.5L13.5 4.5M11.5 6.5V9.5M13.5 4.5V11.5M13.5 4.5H15.5L15.5 11.5H13.5M13.5 11.5L11.5 9.5" stroke="var(--mw-icon-border-default-gray, #616161)" stroke-linejoin="round"/>
<path d="M8 5.5C8 5.77614 8.22386 6 8.5 6C8.77614 6 9 5.77614 9 5.5C9 5.22386 8.77614 5 8.5 5C8.22386 5 8 5.22386 8 5.5Z" fill="var(--mw-icon-glyph-content-green, #008014)"/>
<path d="M2.5 7.5H9.5V10.5H2.50005L2.5 7.5Z" fill="var(--mw-icon-background-default-white, #FFFFFF)"/>
<path d="M9.5 7.5H10C10 7.22386 9.77614 7 9.5 7V7.5ZM2.5 7.5V7C2.36739 7 2.24021 7.05268 2.14644 7.14645C2.05268 7.24022 2 7.3674 2 7.50001L2.5 7.5ZM2.50005 10.5L2.00005 10.5C2.00005 10.7761 2.22391 11 2.50005 11V10.5ZM9.5 10.5V11C9.77614 11 10 10.7761 10 10.5H9.5ZM9.5 7H2.5V8H9.5V7ZM2 7.50001L2.00005 10.5L3.00005 10.5L3 7.49999L2 7.50001ZM2.50005 11H9.5V10H2.50005V11ZM10 10.5V7.5H9V10.5H10Z" fill="var(--mw-icon-glyph-content-gray, #616162)"/>
</svg>
