<svg width="16" height="16" viewBox="0 0 16 16" fill="none" xmlns="http://www.w3.org/2000/svg">
<path d="M0.5 2.5H12.5V12C12.5 12.2761 12.2761 12.5 12 12.5H1C0.723858 12.5 0.5 12.2761 0.5 12V2.5Z" fill="var(--mw-icon-background-default-white, #FFFFFF)" stroke="var(--mw-icon-border-default-gray, #616161)"/>
<path d="M2.5 4.5H10.5V7.5H2.5V4.5Z" fill="var(--mw-icon-background-default-medium-gray, #D9D9D9)" stroke="var(--mw-icon-glyph-content-mono, #616061)" stroke-linejoin="round"/>
<path d="M0.5 1C0.5 0.723858 0.723858 0.5 1 0.5H12C12.2761 0.5 12.5 0.723858 12.5 1V2.5H0.5V1Z" fill="var(--mw-icon-background-default-selection, #B4DEFF)" stroke="var(--mw-icon-border-default-blue, #1656A7)"/>
<path d="M4.5 5.5C4.5 4.94772 4.94772 4.5 5.5 4.5H13.5C14.0523 4.5 14.5 4.94772 14.5 5.5V13.5C14.5 14.0523 14.0523 14.5 13.5 14.5H5.5C4.94772 14.5 4.5 14.0523 4.5 13.5V5.5Z" fill="white" stroke="var(--mw-icon-border-default-gray, #616161)"/>
<path d="M6 9.5C6 8.5 7.63333 7 9.5 7C11.3667 7 13 8.5 13 9.5C13 10.5 11.3667 12 9.5 12C7.63333 12 6 10.5 6 9.5Z" fill="var(--mw-icon-glyph-content-gray, #616162)"/>
<path d="M11 9.5C11 10.3284 10.3284 11 9.5 11C8.67157 11 8 10.3284 8 9.5C8 8.67157 8.67157 8 9.5 8C10.3284 8 11 8.67157 11 9.5Z" fill="white"/>
<circle cx="9.5" cy="9.5" r="0.5" fill="var(--mw-icon-glyph-content-gray, #616162)"/>
</svg>
