<svg width="16" height="16" viewBox="0 0 16 16" fill="none" xmlns="http://www.w3.org/2000/svg">
<path d="M0.5 11.5V1.5C0.5 0.947715 0.947715 0.5 1.5 0.5H11.5C12.0523 0.5 12.5 0.947715 12.5 1.5V11.5C12.5 12.0523 12.0523 12.5 11.5 12.5H1.5C0.947715 12.5 0.5 12.0523 0.5 11.5Z" fill="var(--mw-icon-background-default-white, #FFFFFF)" stroke="var(--mw-icon-border-default-gray, #616161)" stroke-linecap="round"/>
<path d="M3.50476 3.00275V6.00275" stroke="#EDB120"/>
<path d="M3.50476 7.7178L2.80112 6.49905H4.20841L3.50476 7.7178Z" stroke="#EDB120"/>
<circle cx="3.5" cy="3.5" r="1" fill="white" stroke="var(--mw-icon-glyph-content-dark-gray, #333333)"/>
<path d="M9.47902 5.4506L7.27319 3.65582" stroke="#0072BD"/>
<path d="M6.01267 2.63023L7.40212 2.85362L6.51393 3.94522L6.01267 2.63023Z" stroke="#0072BD"/>
<circle cx="9.5" cy="5.5" r="1" fill="white" stroke="var(--mw-icon-glyph-content-dark-gray, #333333)"/>
<path d="M5.49995 9.50002L8.64162 8.53802" stroke="#D95319"/>
<path d="M8.98607 9.05324L8.5296 7.72204L9.91069 7.99232L8.98607 9.05324Z" stroke="#D95319"/>
<circle cx="5.5" cy="9.5" r="1" fill="white" stroke="var(--mw-icon-glyph-content-dark-gray, #333333)"/>
<path d="M5.5 6.5C5.5 5.94772 5.94772 5.5 6.5 5.5H14.5C15.0523 5.5 15.5 5.94772 15.5 6.5V14.5C15.5 15.0523 15.0523 15.5 14.5 15.5H6.5C5.94772 15.5 5.5 15.0523 5.5 14.5V6.5Z" fill="white" stroke="var(--mw-icon-border-default-gray, #616161)"/>
<path d="M7 10.5C7 9.5 8.63333 8 10.5 8C12.3667 8 14 9.5 14 10.5C14 11.5 12.3667 13 10.5 13C8.63333 13 7 11.5 7 10.5Z" fill="var(--mw-icon-glyph-content-gray, #616162)"/>
<path d="M12 10.5C12 11.3284 11.3284 12 10.5 12C9.67157 12 9 11.3284 9 10.5C9 9.67157 9.67157 9 10.5 9C11.3284 9 12 9.67157 12 10.5Z" fill="white"/>
<circle cx="10.5" cy="10.5" r="0.5" fill="var(--mw-icon-glyph-content-gray, #616162)"/>
</svg>
