<svg width="16" height="16" viewBox="0 0 16 16" fill="none" xmlns="http://www.w3.org/2000/svg">
<path d="M0 3L2.5 0L5 3H3V6H2V3H0Z" fill="var(--mw-icon-object-primary, #616160)"/>
<path d="M6 3L8.5 6L11 3H9V0H8L8 3H6Z" fill="var(--mw-icon-object-primary, #616160)"/>
<circle cx="2.5" cy="8.5" r="1" stroke="var(--mw-icon-object-primary, #616160)"/>
<circle cx="8.5" cy="8.5" r="2" stroke="var(--mw-icon-object-primary, #616160)"/>
<path d="M5.5 6.5C5.5 5.94772 5.94772 5.5 6.5 5.5H14.5C15.0523 5.5 15.5 5.94772 15.5 6.5V14.5C15.5 15.0523 15.0523 15.5 14.5 15.5H6.5C5.94772 15.5 5.5 15.0523 5.5 14.5V6.5Z" fill="var(--mw-icon-background-default-white, #FFFFFF)" stroke="var(--mw-icon-border-default-gray, #616161)"/>
<path d="M7 10.5C7 9.5 8.63333 8 10.5 8C12.3667 8 14 9.5 14 10.5C14 11.5 12.3667 13 10.5 13C8.63333 13 7 11.5 7 10.5Z" fill="var(--mw-icon-glyph-content-gray, #616162)"/>
<path d="M12 10.5C12 11.3284 11.3284 12 10.5 12C9.67157 12 9 11.3284 9 10.5C9 9.67157 9.67157 9 10.5 9C11.3284 9 12 9.67157 12 10.5Z" fill="white"/>
<circle cx="10.5" cy="10.5" r="0.5" fill="var(--mw-icon-glyph-content-gray, #616162)"/>
</svg>
