<svg width="16" height="16" viewBox="0 0 16 16" fill="none" xmlns="http://www.w3.org/2000/svg">
<path d="M3.71429 4.5C1.30357 4.5 0.5 6.06164 0.5 8.42857V9C0.5 9.27614 0.723857 9.5 1 9.5H6.42857C6.70471 9.5 6.92857 9.27614 6.92857 9V8.42857C6.92857 6.06164 6.125 4.5 3.71429 4.5Z" fill="var(--mw-icon-background-default-white, #FFFFFF)" stroke="var(--mw-icon-border-default-gray, #616161)"/>
<circle cx="3.5" cy="2.5" r="2" fill="white" stroke="var(--mw-icon-border-default-gray, #616161)"/>
<path d="M7 6.5C3.625 6.5 2.5 8.68629 2.5 12V13C2.5 13.2761 2.72386 13.5 3 13.5H11C11.2761 13.5 11.5 13.2761 11.5 13V12C11.5 8.68629 10.375 6.5 7 6.5Z" fill="white" stroke="var(--mw-icon-border-default-gray, #616161)"/>
<circle cx="7" cy="4" r="2.5" fill="white" stroke="var(--mw-icon-border-default-gray, #616161)"/>
<path d="M5.5 6.5C5.5 5.94772 5.94772 5.5 6.5 5.5H14.5C15.0523 5.5 15.5 5.94772 15.5 6.5V14.5C15.5 15.0523 15.0523 15.5 14.5 15.5H6.5C5.94772 15.5 5.5 15.0523 5.5 14.5V6.5Z" fill="white" stroke="var(--mw-icon-border-default-gray, #616161)"/>
<path d="M7 10.5C7 9.5 8.63333 8 10.5 8C12.3667 8 14 9.5 14 10.5C14 11.5 12.3667 13 10.5 13C8.63333 13 7 11.5 7 10.5Z" fill="var(--mw-icon-glyph-content-gray, #616162)"/>
<path d="M12 10.5C12 11.3284 11.3284 12 10.5 12C9.67157 12 9 11.3284 9 10.5C9 9.67157 9.67157 9 10.5 9C11.3284 9 12 9.67157 12 10.5Z" fill="white"/>
<circle cx="10.5" cy="10.5" r="0.5" fill="var(--mw-icon-glyph-content-gray, #616162)"/>
</svg>
