<svg width="16" height="16" viewBox="0 0 16 16" fill="none" xmlns="http://www.w3.org/2000/svg">
<path d="M6.5 9.5L0.5 6.5V9.5L6.5 12.5V9.5Z" fill="var(--mw-icon-background-red, #FF9D9A)" stroke="var(--mw-icon-border-default-red, #902622)" stroke-linejoin="round"/>
<path d="M6.5 9.5L12.5 6.5V9.5L6.5 12.5L3.5 11V8L6.5 9.5Z" fill="#FFAB66"/>
<path d="M6.5 9.5L12.5 6.5V9.5L6.5 12.5M6.5 9.5V12.5M6.5 9.5L3.5 8V11L6.5 12.5" stroke="#A24302" stroke-linejoin="round"/>
<path d="M0.5 3.5L3.5 2L9.5 5V8L6.5 9.5L3.5 8L0.5 6.5V3.5Z" fill="var(--mw-icon-background-default-action, #CBFFBE)"/>
<path d="M0.5 3.5L6.5 6.5M0.5 3.5L3.5 2L9.5 5M0.5 3.5V6.5L3.5 8L6.5 9.5M6.5 6.5C6.5 6.5 8.54145 5.47927 9.5 5M6.5 6.5C6.5 6.5 6.5 8.49398 6.5 9.5M9.5 5V8L6.5 9.5" stroke="var(--mw-icon-border-default-green, #008013)" stroke-linejoin="round"/>
<path d="M6.5 0.5L12.5 3.5V6.5L9.5 8V5L3.5 2L6.5 0.5Z" fill="var(--mw-icon-background-default-selection, #B4DEFF)"/>
<path d="M12.5 3.5L6.5 0.5L3.5 2L9.5 5M12.5 3.5L9.5 5M12.5 3.5V6.5L9.5 8V5" stroke="var(--mw-icon-border-default-blue, #1656A7)" stroke-linejoin="round"/>
<path d="M5.5 6.5C5.5 5.94772 5.94772 5.5 6.5 5.5H14.5C15.0523 5.5 15.5 5.94772 15.5 6.5V14.5C15.5 15.0523 15.0523 15.5 14.5 15.5H6.5C5.94772 15.5 5.5 15.0523 5.5 14.5V6.5Z" fill="var(--mw-icon-background-default-white, #FFFFFF)" stroke="var(--mw-icon-border-default-gray, #616161)"/>
<path d="M7 10.5C7 9.5 8.63333 8 10.5 8C12.3667 8 14 9.5 14 10.5C14 11.5 12.3667 13 10.5 13C8.63333 13 7 11.5 7 10.5Z" fill="var(--mw-icon-glyph-content-gray, #616162)"/>
<path d="M12 10.5C12 11.3284 11.3284 12 10.5 12C9.67157 12 9 11.3284 9 10.5C9 9.67157 9.67157 9 10.5 9C11.3284 9 12 9.67157 12 10.5Z" fill="white"/>
<circle cx="10.5" cy="10.5" r="0.5" fill="var(--mw-icon-glyph-content-gray, #616162)"/>
</svg>
