<svg width="16" height="16" viewBox="0 0 16 16" fill="none" xmlns="http://www.w3.org/2000/svg">
<path fill-rule="evenodd" clip-rule="evenodd" d="M7.50004 3C3.75002 3 0 6.37521 0 7.50025C0.00116908 8.62645 3.75064 12 7.50007 12C11.2501 12 15 8.62532 15 7.49969C14.9988 6.37407 11.2494 3 7.50004 3ZM7.5 11C9.433 11 11 9.433 11 7.5C11 5.567 9.433 4 7.5 4C5.567 4 4 5.567 4 7.5C4 9.433 5.567 11 7.5 11Z" fill="var(--mw-icon-object-primary, #616160)"/>
<path d="M10 7.5C10 8.88071 8.88071 10 7.5 10C6.11929 10 5 8.88071 5 7.5C5 6.11929 6.11929 5 7.5 5C8.88071 5 10 6.11929 10 7.5Z" fill="var(--mw-icon-object-primary, #616160)"/>
</svg>
