<svg width="16" height="16" viewBox="0 0 16 16" fill="none" xmlns="http://www.w3.org/2000/svg">
<path d="M11 6L15 3.5L11 1V6Z" fill="var(--mw-icon-object-primary, #616160)"/>
<path d="M11 15L15 12.5L11 10V15Z" fill="var(--mw-icon-object-primary, #616160)"/>
<path d="M7.48465 5.78453L7.02775 5.58146L7.48465 5.78453ZM6.08363 8.93683L6.54054 9.1399L6.08363 8.93683ZM0.5 12C0.223858 12 0 12.2239 0 12.5C0 12.7761 0.223858 13 0.5 13V12ZM7.48465 10.2155L7.02775 10.4185L7.48465 10.2155ZM6.08363 7.06317L6.54054 6.8601L6.08363 7.06317ZM0.5 3C0.223858 3 0 3.22386 0 3.5C0 3.77614 0.223858 4 0.5 4V3ZM7.02775 5.58146L5.62673 8.73376L6.54054 9.1399L7.94156 5.9876L7.02775 5.58146ZM0.600761 12H0.5V13H0.600761V12ZM5.62673 8.73376C4.74397 10.72 2.7743 12 0.600761 12V13C3.16949 13 5.49728 11.4872 6.54054 9.1399L5.62673 8.73376ZM11 3C9.28215 3 7.72543 4.01167 7.02775 5.58146L7.94156 5.9876C8.47874 4.77894 9.67734 4 11 4V3ZM7.94156 10.0124L6.54054 6.8601L5.62673 7.26624L7.02775 10.4185L7.94156 10.0124ZM0.600761 3H0.5V4H0.600761V3ZM6.54054 6.8601C5.49728 4.51277 3.16949 3 0.600761 3V4C2.7743 4 4.74397 5.28004 5.62673 7.26624L6.54054 6.8601ZM11 12C9.67734 12 8.47874 11.2211 7.94156 10.0124L7.02775 10.4185C7.72543 11.9883 9.28215 13 11 13V12Z" fill="var(--mw-icon-object-primary, #616160)"/>
</svg>
