<svg width="16" height="16" viewBox="0 0 16 16" fill="none" xmlns="http://www.w3.org/2000/svg">
<path d="M5.5 3.5H15.5V14.5C15.5 15.0523 15.0523 15.5 14.5 15.5H6.5C5.94772 15.5 5.5 15.0523 5.5 14.5V3.5Z" fill="var(--mw-icon-background-default-light-gray, #F5F5F5)" stroke="var(--mw-icon-border-disabled-gray, #888888)"/>
<path d="M0.5 3.5H6.5V15.5H1.5C0.947715 15.5 0.5 15.0523 0.5 14.5V3.5Z" fill="var(--mw-icon-background-default-white, #FFFFFF)" stroke="var(--mw-icon-border-default-gray, #616161)"/>
<path d="M0.5 1.5C0.5 0.947715 0.947715 0.5 1.5 0.5H14.5C15.0523 0.5 15.5 0.947715 15.5 1.5V3.5H0.5V1.5Z" fill="var(--mw-icon-background-default-selection, #B4DEFF)" stroke="var(--mw-icon-glyph-content-blue, #1656A8)"/>
<path d="M2.5 6.5H4.5M2.5 8.5H4.5M2.5 10.5H3.5M2.5 12.5H4.5" stroke="var(--mw-icon-glyph-content-gray, #616162)" stroke-linecap="square"/>
</svg>
