<svg width="16" height="16" viewBox="0 0 16 16" fill="none" xmlns="http://www.w3.org/2000/svg">
<path d="M0.5 3.5H15.5V14.5C15.5 15.0523 15.0523 15.5 14.5 15.5H1.5C0.947715 15.5 0.5 15.0523 0.5 14.5V3.5Z" fill="var(--mw-icon-background-default-light-gray, #F5F5F5)" stroke="var(--mw-icon-border-default-gray, #616161)" stroke-linejoin="round"/>
<path d="M5.5 4V15M10.5 4V15M15 7.5H1M15 11.5H1" stroke="var(--mw-icon-background-default-dark-gray, #A6A6A6)"/>
<path d="M5.5 11.5V7.5H10.5V11.5H5.5Z" fill="var(--mw-icon-background-medium-blue, #83CAFF)" stroke="var(--mw-icon-glyph-content-blue, #1656A8)" stroke-linejoin="round"/>
<path d="M0.5 3.5H15.5V1.5C15.5 0.947715 15.0523 0.5 14.5 0.5H1.5C0.947715 0.5 0.5 0.947715 0.5 1.5V3.5Z" fill="var(--mw-icon-background-default-medium-gray, #D9D9D9)" stroke="var(--mw-icon-border-default-gray, #616161)" stroke-linejoin="round"/>
<path d="M2 2.5C2 2.22386 2.22386 2 2.5 2H4.5C4.77614 2 5 2.22386 5 2.5V3H2V2.5Z" fill="var(--mw-icon-glyph-content-blue, #1656A8)"/>
</svg>
