<svg width="17" height="16" viewBox="0 0 17 16" fill="none" xmlns="http://www.w3.org/2000/svg">
<path d="M1.5 12.5V2.5C1.5 1.39543 2.39543 0.5 3.5 0.5H13.5C14.6046 0.5 15.5 1.39543 15.5 2.5V12.5C15.5 13.6046 14.6046 14.5 13.5 14.5H3.5C2.39543 14.5 1.5 13.6046 1.5 12.5Z" fill="#00A3A3"/>
<path d="M2 7H15V13V13.5L14.5 14H14H3.54762L2.61905 13.3L2 12.25V7Z" fill="#3E26A8"/>
<rect width="2" height="1" transform="matrix(1 0 0 -1 5 14)" fill="#ABC739"/>
<rect width="1" height="1" transform="matrix(1 0 0 -1 14 13)" fill="#ABC739"/>
<rect width="2" height="5" transform="matrix(1 0 0 -1 5 13)" fill="#2E87F7"/>
<rect width="2" height="4" transform="matrix(1 0 0 -1 3 12)" fill="#4852F4"/>
<rect width="2" height="2" transform="matrix(1 0 0 -1 9 10)" fill="#4852F4"/>
<path d="M9 13H11V10H9V13Z" fill="#2E87F7"/>
<path d="M3 13H5V12H3V13Z" fill="#2E87F7"/>
<path d="M3 13.9998H5V12.9998H3V13.9998Z" fill="#FEC338"/>
<path d="M12 13H14V11H12V13Z" fill="#2E87F7"/>
<path d="M11 10H12V9H11V10Z" fill="#2E87F7"/>
<path d="M14 9H15V8H14V9Z" fill="#4852F4"/>
<rect width="2" height="3" transform="matrix(1 0 0 -1 7 13)" fill="#ABC739"/>
<rect width="2" height="2" transform="matrix(1 0 0 -1 7 10)" fill="#12B1D6"/>
<rect width="1" height="3" transform="matrix(1 0 0 -1 11 13)" fill="#12B1D6"/>
<rect x="15" y="12" width="1" height="3" transform="rotate(-180 15 12)" fill="#12B1D6"/>
<rect width="2" height="1" transform="matrix(1 0 0 -1 7 14)" fill="#FEC338"/>
<path d="M2.5 14H3V12H2V13L2.5 14Z" fill="#FEC338"/>
<path d="M12 14H9V13H15V13.5L14 14H12Z" fill="#FEC338"/>
<path d="M1 4.32833C2.69973 2.95912 3.49676 2.76334 4.46429 3.87794C5.43182 4.99255 6.1804 5.65841 6.79545 4.34414C7.77737 0.536963 8.5 2.3416 8.84091 3.06459C9.18182 3.78758 9.18182 4.02856 9.52273 4.99255C9.86364 5.95654 10.8156 6.43853 11.2273 5.47454C11.6389 4.51055 11.6962 2.39503 13.4209 3.98457C13.9649 4.487 15.0864 4.72332 16 4.34414" stroke="var(--mw-icon-background-default-white, white)"/>
<path d="M1.5 12.5V2.5C1.5 1.39543 2.39543 0.5 3.5 0.5H13.5C14.6046 0.5 15.5 1.39543 15.5 2.5V12.5C15.5 13.6046 14.6046 14.5 13.5 14.5H3.5C2.39543 14.5 1.5 13.6046 1.5 12.5Z" stroke="#02555C" stroke-linecap="round"/>

</svg>
