<svg width="16" height="16" viewBox="0 0 16 16" fill="none" xmlns="http://www.w3.org/2000/svg">
<path d="M0.5 12.5V2.5C0.5 1.39543 1.39543 0.5 2.5 0.5H12.5C13.6046 0.5 14.5 1.39543 14.5 2.5V12.5C14.5 13.6046 13.6046 14.5 12.5 14.5H2.5C1.39543 14.5 0.5 13.6046 0.5 12.5Z" fill="#00A3A3"/>
<path d="M0.5 7.649C2.08641 4.17702 3.09877 4.3231 3.73334 6.50693C4.05062 8.83684 5.00247 11.8367 5.57652 8.50401C6.49297 -1.15008 8.14455 1.59371 8.11478 6.17409C8.18986 11.2424 9.4416 15.3088 10.0278 11.5038C10.6337 7.14157 10.4831 2.74662 12.0928 6.77731C12.6005 8.05135 13.6473 8.65061 14.5 7.6891" stroke="var(--mw-icon-background-default-white, #FFFFFF)"/>
<path d="M13.5 13.5L10.5 13.5L7.5 13.5H4.5V10.5H7.5V7.5H10.5V3.5H13.5V13.5Z" fill="var(--mw-icon-background-medium-yellow, #FFEF91)"/>
<path d="M10.5 13.5V3.5M7.5 13.5L7.5 10.5M7.5 10.5V7.5H10.5V3.5M7.5 10.5H4.5V13.5L13.5 13.5V3.5H10.5" stroke="var(--mw-icon-glyph-content-yellow, #674C07)" stroke-linecap="square" stroke-linejoin="round"/>
<path d="M0.5 12.5V2.5C0.5 1.39543 1.39543 0.5 2.5 0.5H12.5C13.6046 0.5 14.5 1.39543 14.5 2.5V12.5C14.5 13.6046 13.6046 14.5 12.5 14.5H2.5C1.39543 14.5 0.5 13.6046 0.5 12.5Z" stroke="#02555C" stroke-linecap="round"/>
</svg>
