<svg width="16" height="16" viewBox="0 0 16 16" fill="none" xmlns="http://www.w3.org/2000/svg">
<path d="M0.5 2.5C0.5 1.39543 1.39543 0.5 2.5 0.5H13.5C14.6046 0.5 15.5 1.39543 15.5 2.5V13.5C15.5 14.6046 14.6046 15.5 13.5 15.5H2.5C1.39543 15.5 0.5 14.6046 0.5 13.5V2.5Z" fill="var(--mw-icon-background-default-white, #FFFFFF)"/>
<path d="M5 9.5L1 10.5V1H15V10.5L11 10L9.5 7L9 5L8 4.5L7 5L6.5 7L5 9.5Z" fill="var(--mw-icon-background-default-action, #CBFFBE)"/>
<path d="M0.5 10.5C0.5 10.5 4.00349 10.4776 5.5 9C6.74279 7.77294 6.25352 4.5 8 4.5C9.74648 4.5 9.26505 7.76505 10.5 9C12.2465 10.7465 15.5 10.5 15.5 10.5" stroke="#0072BD" stroke-linejoin="round"/>
<path d="M0.5 1.5C0.5 0.947715 0.947715 0.5 1.5 0.5H14.5C15.0523 0.5 15.5 0.947715 15.5 1.5V14.5C15.5 15.0523 15.0523 15.5 14.5 15.5H1.5C0.947715 15.5 0.5 15.0523 0.5 14.5V1.5Z" stroke="var(--mw-icon-border-default-gray, #616161)" stroke-linejoin="round"/>
</svg>
