<svg width="16" height="16" viewBox="0 0 16 16" fill="none" xmlns="http://www.w3.org/2000/svg">
<path d="M5 3C5 1.89543 5.89543 1 7 1H8C9.10457 1 10 1.89543 10 3V12C10 13.1046 9.10457 14 8 14H7C5.89543 14 5 13.1046 5 12V3Z" fill="var(--mw-icon-background-default-white, #FFFFFF)"/>
<path d="M1 2C1 1.44772 1.44772 1 2 1H4V15H2C1.44772 15 1 14.5523 1 14V2Z" fill="var(--mw-icon-background-default-medium-gray, #D9D9D9)"/>
<path d="M15 2C15 1.44772 14.5523 1 14 1L12 1V15H14C14.5523 15 15 14.5523 15 14V2Z" fill="var(--mw-icon-background-default-medium-gray, #D9D9D9)"/>
<path d="M0.5 7.5C2.88636 12.8333 5.61364 12.8333 8 7.5C10.3864 2.16667 13.1136 2.16667 15.5 7.5" stroke="var(--mw-icon-glyph-content-light-blue, #278CDD)" stroke-linecap="round" stroke-linejoin="round"/>
<path d="M0.5 2.5C0.5 1.39543 1.39543 0.5 2.5 0.5H13.5C14.6046 0.5 15.5 1.39543 15.5 2.5V13.5C15.5 14.6046 14.6046 15.5 13.5 15.5H2.5C1.39543 15.5 0.5 14.6046 0.5 13.5V2.5Z" stroke="var(--mw-icon-border-default-gray, #616161)" stroke-linejoin="round"/>
<path d="M4.5 1L4.5 15" stroke="var(--mw-icon-glyph-content-gray, #616162)"/>
<path d="M11.5 1V15" stroke="var(--mw-icon-glyph-content-gray, #616162)"/>
</svg>
