<svg width="17" height="16" viewBox="0 0 17 16" fill="none" xmlns="http://www.w3.org/2000/svg">
<path d="M1.5 12.5V2.5C1.5 1.39543 2.39543 0.5 3.5 0.5H13.5C14.6046 0.5 15.5 1.39543 15.5 2.5V12.5C15.5 13.6046 14.6046 14.5 13.5 14.5H3.5C2.39543 14.5 1.5 13.6046 1.5 12.5Z" fill="#00A3A3"/>
<path d="M1 7.649C2.58641 4.17702 3.59877 4.3231 4.23334 6.50693C4.55062 8.83684 5.50247 11.8367 6.07652 8.50401C6.99297 -1.15008 8.64455 1.59371 8.61478 6.17409C8.68986 11.2424 9.9416 15.3088 10.5278 11.5038C11.1337 7.14157 10.9831 2.74662 12.5928 6.77731C13.1005 8.05135 14.1473 8.65061 15 7.6891" stroke="var(--mw-icon-background-default-white, white)"/>
<path d="M8.5 13.5V6.54348L9.96512 3.5H12.8721L14.5 6.54348V13.5H10.7791H8.5Z" fill="var(--mw-icon-background-default-selection, #B4DEFF)" stroke="var(--mw-icon-glyph-content-dark-blue, #104280)"/>
<circle cx="11.5" cy="6.5" r="1.5" fill="var(--mw-icon-background-default-white, white)" stroke="black"/>
<path d="M1.5 12.5V2.5C1.5 1.39543 2.39543 0.5 3.5 0.5H13.5C14.6046 0.5 15.5 1.39543 15.5 2.5V12.5C15.5 13.6046 14.6046 14.5 13.5 14.5H3.5C2.39543 14.5 1.5 13.6046 1.5 12.5Z" stroke="#02555C" stroke-linecap="round"/>

</svg>
