<svg width="16" height="16" viewBox="0 0 16 16" fill="none" xmlns="http://www.w3.org/2000/svg">
<path d="M0.5 12.5V2.5C0.5 1.39543 1.39543 0.5 2.5 0.5H12.5C13.6046 0.5 14.5 1.39543 14.5 2.5V12.5C14.5 13.6046 13.6046 14.5 12.5 14.5H2.5C1.39543 14.5 0.5 13.6046 0.5 12.5Z" fill="#00A3A3"/>
<path d="M0.999756 4H0.499756V5H0.999756V4ZM1.49976 4.5V5C1.7759 5 1.99976 4.77614 1.99976 4.5H1.49976ZM1.49976 2.5V2C1.22361 2 0.999756 2.22386 0.999756 2.5H1.49976ZM3.49976 2.5H3.99976C3.99976 2.22386 3.7759 2 3.49976 2V2.5ZM3.49976 4.5H2.99976C2.99976 4.77614 3.22361 5 3.49976 5V4.5ZM5.49976 4.5V5C5.7759 5 5.99976 4.77614 5.99976 4.5H5.49976ZM5.49976 2.5V2C5.22361 2 4.99976 2.22386 4.99976 2.5H5.49976ZM7.49976 2.5H7.99976C7.99976 2.22386 7.7759 2 7.49976 2V2.5ZM7.49976 4.5H6.99976C6.99976 4.77614 7.22361 5 7.49976 5V4.5ZM9.49976 4.5V5C9.7759 5 9.99976 4.77614 9.99976 4.5H9.49976ZM9.49976 2.5V2C9.22361 2 8.99976 2.22386 8.99976 2.5H9.49976ZM11.4998 2.5H11.9998C11.9998 2.22386 11.7759 2 11.4998 2V2.5ZM11.4998 4.5H10.9998C10.9998 4.77614 11.2236 5 11.4998 5V4.5ZM13.4998 4.5V5C13.7759 5 13.9998 4.77614 13.9998 4.5H13.4998ZM13.4998 2.5V2C13.2236 2 12.9998 2.22386 12.9998 2.5H13.4998ZM14.4998 3C14.7759 3 14.9998 2.77614 14.9998 2.5C14.9998 2.22386 14.7759 2 14.4998 2V3ZM0.999756 5H1.49976V4H0.999756V5ZM1.99976 4.5V2.5H0.999756V4.5H1.99976ZM1.49976 3H3.49976V2H1.49976V3ZM2.99976 2.5V4.5H3.99976V2.5H2.99976ZM3.49976 5H5.49976V4H3.49976V5ZM5.99976 4.5V2.5H4.99976V4.5H5.99976ZM5.49976 3H7.49976V2H5.49976V3ZM6.99976 2.5V4.5H7.99976V2.5H6.99976ZM7.49976 5H9.49976V4H7.49976V5ZM9.99976 4.5V2.5H8.99976V4.5H9.99976ZM9.49976 3H11.4998V2H9.49976V3ZM10.9998 2.5V4.5H11.9998V2.5H10.9998ZM11.4998 5H13.4998V4H11.4998V5ZM13.9998 4.5V2.5H12.9998V4.5H13.9998ZM13.4998 3H14.4998V2H13.4998V3Z" fill="var(--mw-icon-background-default-white, white)"/>
<path d="M0.5 12.0002H0V13.0002H0.5V12.0002ZM14.5 11.0002C14.7761 11.0002 15 10.7764 15 10.5002C15 10.2241 14.7761 10.0002 14.5 10.0002V11.0002ZM0.5 13.0002H1.5V12.0002H0.5V13.0002ZM3.5 11.0002H6.5V10.0002H3.5V11.0002ZM8.5 13.0002H11.5V12.0002H8.5V13.0002ZM13.5 11.0002H14.5V10.0002H13.5V11.0002ZM13 11.5002C13 11.2241 13.2239 11.0002 13.5 11.0002V10.0002C12.6716 10.0002 12 10.6718 12 11.5002H13ZM11.5 13.0002C12.3284 13.0002 13 12.3287 13 11.5002H12C12 11.7764 11.7761 12.0002 11.5 12.0002V13.0002ZM7 11.5002C7 12.3287 7.67157 13.0002 8.5 13.0002V12.0002C8.22386 12.0002 8 11.7764 8 11.5002H7ZM6.5 11.0002C6.77614 11.0002 7 11.2241 7 11.5002H8C8 10.6718 7.32843 10.0002 6.5 10.0002V11.0002ZM3 11.5002C3 11.2241 3.22386 11.0002 3.5 11.0002V10.0002C2.67157 10.0002 2 10.6718 2 11.5002H3ZM1.5 13.0002C2.32843 13.0002 3 12.3287 3 11.5002H2C2 11.7764 1.77614 12.0002 1.5 12.0002V13.0002Z" fill="var(--mw-icon-background-default-white, white)"/>
<path d="M0.999756 8H0.499756V9H0.999756V8ZM2.49976 8.5V9C2.7759 9 2.99976 8.77614 2.99976 8.5H2.49976ZM2.49976 6.5V6C2.22361 6 1.99976 6.22386 1.99976 6.5H2.49976ZM5.49976 6.5H5.99976C5.99976 6.22386 5.7759 6 5.49976 6V6.5ZM5.49976 8.5H4.99976C4.99976 8.77614 5.22361 9 5.49976 9V8.5ZM8.49976 8.5V9C8.7759 9 8.99976 8.77614 8.99976 8.5H8.49976ZM8.49976 6.5V6C8.22361 6 7.99976 6.22386 7.99976 6.5H8.49976ZM11.4998 6.5H11.9998C11.9998 6.22386 11.7759 6 11.4998 6V6.5ZM11.4998 8.5H10.9998C10.9998 8.77614 11.2236 9 11.4998 9V8.5ZM13.9998 9C14.2759 9 14.4998 8.77614 14.4998 8.5C14.4998 8.22386 14.2759 8 13.9998 8V9ZM0.999756 9H2.49976V8H0.999756V9ZM2.99976 8.5V6.5H1.99976V8.5H2.99976ZM2.49976 7H5.49976V6H2.49976V7ZM4.99976 6.5V8.5H5.99976V6.5H4.99976ZM5.49976 9H8.49976V8H5.49976V9ZM8.99976 8.5V6.5H7.99976V8.5H8.99976ZM8.49976 7H11.4998V6H8.49976V7ZM10.9998 6.5V8.5H11.9998V6.5H10.9998ZM11.4998 9H13.9998V8H11.4998V9Z" fill="var(--mw-icon-background-default-white, white)"/>
<path d="M0.5 12.5V2.5C0.5 1.39543 1.39543 0.5 2.5 0.5H12.5C13.6046 0.5 14.5 1.39543 14.5 2.5V12.5C14.5 13.6046 13.6046 14.5 12.5 14.5H2.5C1.39543 14.5 0.5 13.6046 0.5 12.5Z" stroke="#02555C" stroke-linecap="round"/>

</svg>
