<svg width="16" height="16" viewBox="0 0 16 16" fill="none" xmlns="http://www.w3.org/2000/svg">
<path d="M0.5 12.5V2.5C0.5 1.39543 1.39543 0.5 2.5 0.5H12.5C13.6046 0.5 14.5 1.39543 14.5 2.5V12.5C14.5 13.6046 13.6046 14.5 12.5 14.5H2.5C1.39543 14.5 0.5 13.6046 0.5 12.5Z" fill="var(--mw-icon-background-default-white, white)"/>
<path d="M3.5 2.5H4.5" stroke="#D1048B" stroke-linecap="round"/>
<path d="M8.5 2.5H10.5" stroke="#6E0149" stroke-linecap="round"/>
<path d="M9.5 4.5H11.5" stroke="#6E0149" stroke-linecap="round"/>
<path d="M7.5 6.5H11.5" stroke="#6E0149" stroke-linecap="round"/>
<path d="M8.5 8.5H10.5" stroke="#6E0149" stroke-linecap="round"/>
<path d="M4.5 10.5H5.5" stroke="#6E0149" stroke-linecap="round"/>
<path d="M3.5 12.5H5.5" stroke="#6E0149" stroke-linecap="round"/>
<path d="M3.5 14.5H7.5" stroke="#6E0149" stroke-linecap="round"/>
<path d="M2.5 4.5H4.5" stroke="#D1048B" stroke-linecap="round"/>
<path d="M4.5 8.5H6.5" stroke="#D1048B" stroke-linecap="round"/>
<path d="M9.5 12.5H11.5" stroke="#D1048B" stroke-linecap="round"/>
<path d="M8.5 14.5H12.5" stroke="#D1048B" stroke-linecap="round"/>
<path d="M6.5 10.5H10.5" stroke="#D1048B" stroke-linecap="round"/>
<path d="M3.5 6.5H6.5" stroke="#D1048B" stroke-linecap="round"/>
<path d="M0.5 12.5V2.5C0.5 1.39543 1.39543 0.5 2.5 0.5H12.5C13.6046 0.5 14.5 1.39543 14.5 2.5V12.5C14.5 13.6046 13.6046 14.5 12.5 14.5H2.5C1.39543 14.5 0.5 13.6046 0.5 12.5Z" stroke="#6E0149" stroke-linecap="round"/>

</svg>
