<svg width="16" height="16" viewBox="0 0 16 16" fill="none" xmlns="http://www.w3.org/2000/svg">
<rect x="0.5" y="0.5" width="14" height="14" rx="2" fill="var(--mw-icon-background-default-medium-gray, #D9D9D9)" stroke="var(--mw-icon-border-default-gray, #616161)"/>
<path d="M2.5 12.5V3.5H12.5V12.5H2.5Z" fill="var(--mw-icon-background-default-white, #FFFFFF)" stroke="var(--mw-icon-border-default-blue, #1656A7)" stroke-linejoin="round"/>
<path d="M4 10.75V9H11V10.75C11 10.8881 10.8881 11 10.75 11H4.25C4.11193 11 4 10.8881 4 10.75Z" fill="var(--mw-icon-glyph-content-light-blue, #278CDD)"/>
<path d="M4 9V7H11V9H4Z" fill="var(--mw-icon-background-medium-blue, #83CAFF)"/>
<path d="M4 7V5.25C4 5.11193 4.11193 5 4.25 5H10.75C10.8881 5 11 5.11193 11 5.25V7H4Z" fill="var(--mw-icon-background-default-selection, #B4DEFF)"/>
<path d="M3.5 2.5V3.5H5.5V2.5H3.5Z" stroke="var(--mw-icon-border-default-blue, #1656A7)" stroke-linejoin="round"/>
<path d="M9.5 2.5V3.5H11.5V2.5H9.5Z" stroke="var(--mw-icon-border-default-blue, #1656A7)" stroke-linejoin="round"/>
</svg>
