<svg width="16" height="16" viewBox="0 0 16 16" fill="none" xmlns="http://www.w3.org/2000/svg">
<path d="M3.5 12.5V5.5L9.5 2.5L15.5 5.5V12.5L9.5 15.5L3.5 12.5Z" fill="#FFEAC6"/>
<path d="M6.5 11V7L9.5 8.5L12.5 7V11L9.5 12.5L6.5 11Z" fill="#FFD997"/>
<path d="M15.5 5.5L9.5 2.5L3.5 5.5L6.5 7L9.5 5.5L12.5 7L15.5 5.5Z" fill="#FFD997"/>
<path d="M12.5 7L9.5 5.5L6.5 7V11L9.5 12.5L12.5 11V7Z" stroke="var(--mw-icon-border-default-gray, #616161)" stroke-linejoin="round"/>
<path d="M9.5 8.5V15.5M9.5 8.5L15.5 5.5M9.5 8.5L3.5 5.5M9.5 15.5L15.5 12.5V5.5M9.5 15.5L3.5 12.5V5.5M15.5 5.5L9.5 2.5L3.5 5.5" stroke="var(--mw-icon-border-default-gray, #616161)" stroke-linejoin="round"/>
<path d="M0.5 1C0.5 0.723858 0.723858 0.5 1 0.5H7C7.27614 0.5 7.5 0.723858 7.5 1V8C7.5 8.27614 7.27614 8.5 7 8.5H1C0.723858 8.5 0.5 8.27614 0.5 8V1Z" fill="var(--mw-icon-background-default-white, #FFFFFF)" stroke="var(--mw-icon-border-default-gray, #616161)"/>
<path d="M3 4.25C3 4.11193 3.11193 4 3.25 4H5.75C5.88807 4 6 4.11193 6 4.25V6.75C6 6.88807 5.88807 7 5.75 7H3.25C3.11193 7 3 6.88807 3 6.75V4.25Z" fill="#D78825"/>
<path d="M2 5V1L5.5 3L2 5Z" fill="#0076A8"/>
</svg>
