<svg width="16" height="16" viewBox="0 0 16 16" fill="none" xmlns="http://www.w3.org/2000/svg">
<path d="M3.5 4.5L3.5 14.5C3.5 15.0523 3.94772 15.5 4.5 15.5L14.5 15.5C15.0523 15.5 15.5 15.0523 15.5 14.5L15.5 4.91421C15.5 4.649 15.3946 4.39464 15.2071 4.20711L12.7929 1.79289C12.6054 1.60536 12.351 1.5 12.0858 1.5L6.5 1.5C4.84314 1.5 3.5 2.84315 3.5 4.5Z" fill="var(--mw-icon-background-default-white, #FFFFFF)" stroke="var(--mw-icon-border-default-gray, #616161)"/>
<path d="M13.4996 10.423C13.4996 11.0285 11.7088 11.6537 9.49966 11.6537C7.29058 11.6537 5.49976 11.0285 5.49976 10.423M13.4996 8.57685C13.4996 9.18242 11.7088 9.80759 9.49966 9.80759C7.29058 9.80759 5.49976 9.18242 5.49976 8.57685M13.4998 6.73074C13.4998 6.12517 11.7089 5.5 9.49985 5.5C7.29076 5.5 5.49994 6.12517 5.49994 6.73074C5.49994 6.94268 5.49976 12.2691 5.49976 12.2691C5.49976 12.8746 7.29076 13.4998 9.49985 13.4998C11.7089 13.4998 13.4998 12.8746 13.4998 12.2691C13.4998 12.0571 13.4998 6.73074 13.4998 6.73074Z" stroke="var(--mw-icon-border-default-gray, #616161)"/>
<path d="M13.4998 6.7C13.4998 7.29044 11.7089 7.9 9.49976 7.9C7.29062 7.9 5.49976 7.29044 5.49976 6.7C5.49976 6.10956 7.29062 5.5 9.49976 5.5C11.7089 5.5 13.4998 6.10956 13.4998 6.7Z" fill="var(--mw-icon-background-default-light-gray, #F5F5F5)" stroke="var(--mw-icon-border-default-gray, #616161)"/>
<path d="M0.5 1C0.5 0.723858 0.723858 0.5 1 0.5H7C7.27614 0.5 7.5 0.723858 7.5 1V8C7.5 8.27614 7.27614 8.5 7 8.5H1C0.723858 8.5 0.5 8.27614 0.5 8V1Z" fill="white" stroke="var(--mw-icon-border-default-gray, #616161)"/>
<path d="M3 4.25C3 4.11193 3.11193 4 3.25 4H5.75C5.88807 4 6 4.11193 6 4.25V6.75C6 6.88807 5.88807 7 5.75 7H3.25C3.11193 7 3 6.88807 3 6.75V4.25Z" fill="#D78825"/>
<path d="M2 5V1L5.5 3L2 5Z" fill="#0076A8"/>
</svg>
