<svg width="16" height="16" viewBox="0 0 16 16" fill="none" xmlns="http://www.w3.org/2000/svg">
<path d="M0.5 4.5H14.5V10.5H0.5V4.5Z" fill="var(--mw-icon-background-default-light-gray, #F5F5F5)" stroke="var(--mw-icon-border-default-gray, #616161)" stroke-linejoin="round"/>
<path d="M7 5.99999H6.51083C6.50386 5.99984 6.49689 5.99984 6.48994 5.99999H5V6.99999H5.69098L5.19098 7.99999H5V8.48915C4.99985 8.49613 4.99985 8.50309 5 8.51005V8.99999H5.48916C5.49614 9.00013 5.50311 9.00013 5.51007 8.99999H7V7.99999H6.30902L6.80902 6.99999H7V6.51082C7.00015 6.50385 7.00015 6.49688 7 6.48992V5.99999Z" fill="var(--mw-icon-glyph-content-gray, #616162)"/>
<path d="M4 5.99999H3V8.99999H4V5.99999Z" fill="var(--mw-icon-glyph-content-gray, #616162)"/>
<path d="M10 5.99999H12V8.99999H10V7.99999H11V6.99999H10V5.99999Z" fill="var(--mw-icon-glyph-content-gray, #616162)"/>
<path d="M9 7.99999H8V8.99999H9V7.99999Z" fill="var(--mw-icon-glyph-content-gray, #616162)"/>
<rect x="10" y="7" width="1" height="1" fill="var(--mw-icon-background-default-dark-gray, #A6A6A6)"/>
</svg>
