<svg width="16" height="16" viewBox="0 0 16 16" fill="none" xmlns="http://www.w3.org/2000/svg">
<path d="M0.5 5.5V1.5H11.5V5.5H0.5Z" fill="#E6E6E6" stroke="var(--mw-icon-border-default-gray, #616161)"/>
<rect x="9" y="3" width="1" height="1" fill="var(--mw-icon-glyph-content-green, #008014)"/>
<path d="M0.5 9.5V5.5H11.5V9.5H0.5Z" fill="#E6E6E6" stroke="var(--mw-icon-border-default-gray, #616161)"/>
<rect x="9" y="7" width="1" height="1" fill="var(--mw-icon-glyph-content-green, #008014)"/>
<path d="M0.5 13.5V9.5H11.5V13.5H0.5Z" fill="#E6E6E6" stroke="var(--mw-icon-border-default-gray, #616161)"/>
<rect x="9" y="11" width="1" height="1" fill="var(--mw-icon-glyph-content-green, #008014)"/>
<path d="M5.5 6.5C5.5 5.94772 5.94772 5.5 6.5 5.5H14.5C15.0523 5.5 15.5 5.94772 15.5 6.5V14.5C15.5 15.0523 15.0523 15.5 14.5 15.5H6.5C5.94772 15.5 5.5 15.0523 5.5 14.5V6.5Z" fill="var(--mw-icon-background-default-white, #FFFFFF)" stroke="var(--mw-icon-border-default-gray, #616161)"/>
<path d="M10.4999 8.50002H12.4999V11.5" stroke="var(--mw-icon-glyph-disabled-gray, #888889)" stroke-linecap="square"/>
<path d="M10 10.5C10 10.2239 10.2239 10 10.5 10H13.5C13.7761 10 14 10.2239 14 10.5V13.5C14 13.7761 13.7761 14 13.5 14H10.5C10.2239 14 10 13.7761 10 13.5V10.5Z" fill="var(--mw-icon-alert-red, #B7313C)"/>
<path d="M7 11V6L11 8.5L7 11Z" fill="var(--mw-icon-glyph-content-blue, #1656A8)"/>
</svg>
