<svg width="16" height="16" viewBox="0 0 16 16" fill="none" xmlns="http://www.w3.org/2000/svg">
<path d="M4 15V10H9V15H4Z" fill="var(--mw-icon-background-default-white, #FFFFFF)"/>
<path d="M10 15V10H15V15H10Z" fill="white"/>
<path d="M4 9V4H9V9H4Z" fill="white"/>
<path d="M10 9V4H15V9H10Z" fill="white"/>
<path d="M5.5 11.5V11H5V11.5H5.5ZM5.5 13.5H5V14H5.5V13.5ZM7.5 13.5V14H8V13.5H7.5ZM7.5 11.5H8V11H7.5V11.5ZM12.5 13.5V14C12.7761 14 13 13.7761 13 13.5H12.5ZM12.5 11.5V11C12.2239 11 12 11.2239 12 11.5H12.5ZM9.02399 6.68033C8.93948 6.94322 9.0841 7.22485 9.347 7.30935C9.60989 7.39385 9.89151 7.24923 9.97601 6.98634L9.02399 6.68033ZM15.976 6.31967C16.0605 6.05678 15.9159 5.77515 15.653 5.69065C15.3901 5.60615 15.1085 5.75077 15.024 6.01366L15.976 6.31967ZM3.27639 7.05279C3.0294 7.17628 2.92929 7.47662 3.05279 7.72361C3.17628 7.9706 3.47662 8.07071 3.72361 7.94721L3.27639 7.05279ZM9.72361 4.94721C9.9706 4.82372 10.0707 4.52338 9.94721 4.27639C9.82372 4.0294 9.52338 3.92929 9.27639 4.05279L9.72361 4.94721ZM5 11.5V13.5H6V11.5H5ZM5.5 14H7.5V13H5.5V14ZM8 13.5V11.5H7V13.5H8ZM7.5 11H5.5V12H7.5V11ZM10 14H12.5V13H10V14ZM13 13.5V11.5H12V13.5H13ZM12.5 12H15.5V11H12.5V12ZM9.5 6.83333C9.97601 6.98634 9.97595 6.98654 9.97589 6.98673C9.97587 6.98679 9.97581 6.98698 9.97577 6.98709C9.9757 6.98732 9.97563 6.98754 9.97556 6.98773C9.97544 6.98812 9.97534 6.98843 9.97526 6.98866C9.9751 6.98913 9.97505 6.9893 9.97509 6.98918C9.97517 6.98893 9.97565 6.98752 9.97653 6.98503C9.97829 6.98005 9.98166 6.97078 9.98671 6.95784C9.99684 6.93187 10.0135 6.89171 10.0374 6.84215C10.0858 6.74182 10.1604 6.60967 10.2648 6.47986C10.4713 6.2228 10.7695 6 11.2143 6V5C10.3733 5 9.81439 5.44387 9.48525 5.85347C9.3217 6.057 9.20883 6.25818 9.13667 6.40785C9.1003 6.48329 9.07347 6.5473 9.05515 6.59425C9.04597 6.61777 9.03887 6.63714 9.03373 6.65169C9.03115 6.65896 9.02907 6.66504 9.02745 6.66984C9.02664 6.67224 9.02595 6.67432 9.02537 6.67607C9.02508 6.67695 9.02482 6.67774 9.02459 6.67845C9.02448 6.67881 9.02437 6.67914 9.02427 6.67945C9.02422 6.67961 9.02415 6.67983 9.02412 6.67991C9.02405 6.68012 9.02399 6.68033 9.5 6.83333ZM11.2143 6C11.5419 6 11.7243 6.21795 12.0794 6.77038C12.3671 7.21795 12.8276 8 13.7857 8V7C13.4581 7 13.2757 6.78205 12.9206 6.22962C12.6329 5.78205 12.1724 5 11.2143 5V6ZM13.7857 8C14.6267 8 15.1856 7.55613 15.5148 7.14653C15.6783 6.943 15.7912 6.74182 15.8633 6.59215C15.8997 6.51671 15.9265 6.4527 15.9449 6.40575C15.954 6.38223 15.9611 6.36286 15.9663 6.34831C15.9688 6.34104 15.9709 6.33496 15.9726 6.33016C15.9734 6.32776 15.9741 6.32568 15.9746 6.32393C15.9749 6.32305 15.9752 6.32226 15.9754 6.32155C15.9755 6.32119 15.9756 6.32086 15.9757 6.32055C15.9758 6.32039 15.9759 6.32017 15.9759 6.32009C15.9759 6.31988 15.976 6.31967 15.5 6.16667C15.024 6.01366 15.024 6.01346 15.0241 6.01327C15.0241 6.01321 15.0242 6.01302 15.0242 6.01291C15.0243 6.01268 15.0244 6.01246 15.0244 6.01227C15.0246 6.01188 15.0247 6.01157 15.0247 6.01134C15.0249 6.01087 15.025 6.0107 15.0249 6.01082C15.0248 6.01107 15.0244 6.01248 15.0235 6.01497C15.0217 6.01995 15.0183 6.02922 15.0133 6.04216C15.0032 6.06813 14.9865 6.10829 14.9626 6.15785C14.9142 6.25818 14.8396 6.39033 14.7352 6.52014C14.5287 6.7772 14.2305 7 13.7857 7V8ZM3.72361 7.94721L9.72361 4.94721L9.27639 4.05279L3.27639 7.05279L3.72361 7.94721Z" fill="var(--mw-icon-glyph-content-light-blue, #278CDD)"/>
<path d="M3.5 9.5V15.5H9.5M3.5 9.5H9.5M3.5 9.5V3.5H9.5M9.5 15.5V9.5M9.5 15.5H15.5V9.5M9.5 9.5H15.5M9.5 9.5V3.5M15.5 9.5V3.5H9.5" stroke="var(--mw-icon-border-default-gray, #616161)" stroke-linejoin="round"/>
<path d="M0.5 1C0.5 0.723858 0.723858 0.5 1 0.5H7C7.27614 0.5 7.5 0.723858 7.5 1V8C7.5 8.27614 7.27614 8.5 7 8.5H1C0.723858 8.5 0.5 8.27614 0.5 8V1Z" fill="white" stroke="var(--mw-icon-border-default-gray, #616161)"/>
<path d="M3 4.25C3 4.11193 3.11193 4 3.25 4H5.75C5.88807 4 6 4.11193 6 4.25V6.75C6 6.88807 5.88807 7 5.75 7H3.25C3.11193 7 3 6.88807 3 6.75V4.25Z" fill="#D78825"/>
<path d="M2 5V1L5.5 3L2 5Z" fill="#0076A8"/>
</svg>
