<svg width="16" height="16" viewBox="0 0 16 16" fill="none" xmlns="http://www.w3.org/2000/svg">
<path d="M3.5 4.5L3.5 14.5C3.5 15.0523 3.94772 15.5 4.5 15.5L14.5 15.5C15.0523 15.5 15.5 15.0523 15.5 14.5L15.5 4.91421C15.5 4.649 15.3946 4.39464 15.2071 4.20711L12.7929 1.79289C12.6054 1.60536 12.351 1.5 12.0858 1.5L6.5 1.5C4.84314 1.5 3.5 2.84315 3.5 4.5Z" fill="var(--mw-icon-background-default-white, #FFFFFF)" stroke="var(--mw-icon-border-default-gray, #616161)"/>
<path d="M12.5 8.5L9.5 10.5M12.5 8.5V11.5L9.5 13.5M12.5 8.5L9.5 6.5L6.5 8.5M9.5 10.5V13.5M9.5 10.5L6.5 8.5M9.5 13.5L6.5 11.5V8.5M9.5 8.5V5.5M5.5 12.5L8 11M13.5 12.5L11 11" stroke="var(--mw-icon-glyph-content-gray, #616162)" stroke-linecap="round" stroke-linejoin="round"/>
<path d="M0.5 1C0.5 0.723858 0.723858 0.5 1 0.5H7C7.27614 0.5 7.5 0.723858 7.5 1V8C7.5 8.27614 7.27614 8.5 7 8.5H1C0.723858 8.5 0.5 8.27614 0.5 8V1Z" fill="white" stroke="var(--mw-icon-border-default-gray, #616161)"/>
<path d="M3 4.25C3 4.11193 3.11193 4 3.25 4H5.75C5.88807 4 6 4.11193 6 4.25V6.75C6 6.88807 5.88807 7 5.75 7H3.25C3.11193 7 3 6.88807 3 6.75V4.25Z" fill="#D78825"/>
<path d="M2 5V1L5.5 3L2 5Z" fill="#0076A8"/>
</svg>
