<svg width="16" height="16" viewBox="0 0 16 16" fill="none" xmlns="http://www.w3.org/2000/svg">
<path d="M3.5 1.5L3.5 13.5C3.5 14.0523 3.94772 14.5 4.5 14.5L14.5 14.5C15.0523 14.5 15.5 14.0523 15.5 13.5L15.5 3.91421C15.5 3.649 15.3946 3.39464 15.2071 3.20711L12.7929 0.792893C12.6054 0.605356 12.351 0.499999 12.0858 0.499999L4.5 0.5C3.94771 0.5 3.5 0.947716 3.5 1.5Z" fill="var(--mw-icon-background-default-white, #FFFFFF)" stroke="var(--mw-icon-border-default-gray, #616161)"/>
<path d="M9 8.5C9 8.22386 9.22386 8 9.5 8H13.5C13.7761 8 14 8.22386 14 8.5V12.5C14 12.7761 13.7761 13 13.5 13H9.5C9.22386 13 9 12.7761 9 12.5V8.5Z" fill="#D78825"/>
<path d="M7.5 5.5H11.5V8" stroke="var(--mw-icon-glyph-disabled-gray, #888889)" stroke-linejoin="round"/>
<path d="M5 9V2L10 5.5L5 9Z" fill="#0076A8"/>
</svg>
