<svg width="16" height="16" viewBox="0 0 16 16" fill="none" xmlns="http://www.w3.org/2000/svg">
<path d="M0.5 12.5V2.5C0.5 1.39543 1.39543 0.5 2.5 0.5H12.5C13.6046 0.5 14.5 1.39543 14.5 2.5V12.5C14.5 13.6046 13.6046 14.5 12.5 14.5H2.5C1.39543 14.5 0.5 13.6046 0.5 12.5Z" fill="var(--mw-icon-background-default-white, #FFFFFF)"/>
<path d="M7.5 9.5L9.5 11.5M7.5 6.5L9.5 8.5M7.5 3.5L9.5 5.5" stroke="var(--mw-icon-glyph-content-gray, #616162)"/>
<path d="M5.5 2.5H7.5V12.5H5.5V2.5Z" fill="var(--mw-icon-background-default-selection, #B4DEFF)" stroke="var(--mw-icon-glyph-content-light-blue, #278CDD)"/>
<path d="M0.5 13.5V1.5C0.5 0.947715 0.947716 0.5 1.5 0.5H13.5C14.0523 0.5 14.5 0.947716 14.5 1.5V13.5C14.5 14.0523 14.0523 14.5 13.5 14.5H1.5C0.947715 14.5 0.5 14.0523 0.5 13.5Z" stroke="var(--mw-icon-border-default-gray, #616161)" stroke-linecap="round"/>
</svg>
