<svg width="16" height="16" viewBox="0 0 16 16" fill="none" xmlns="http://www.w3.org/2000/svg">
<path d="M13.2227 13.4818C13.5549 13.7033 14 13.4651 14 13.0657L14 2.93426C14 2.53491 13.5549 2.29672 13.2226 2.51824L5.62405 7.58399C5.32718 7.7819 5.32718 8.21813 5.62405 8.41604L13.2227 13.4818Z" fill="var(--mw-icon-object-primary, #616160)"/>
<path d="M5.5 2C5.77614 2 6 2.22386 6 2.5L5.99997 13.5C5.99997 13.7761 5.77612 14 5.49997 14L3.5 14C3.22386 14 3 13.7761 3 13.5L3.00002 2.5C3.00002 2.22386 3.22388 2 3.50002 2L5.5 2Z" fill="var(--mw-icon-object-primary, #616160)"/>
</svg>
