<svg width="16" height="16" viewBox="0 0 16 16" fill="none" xmlns="http://www.w3.org/2000/svg">
<path d="M10.5 14C10.2239 14 10 13.7761 10 13.5L10 2.5C10 2.22386 10.2239 2 10.5 2L12.5 2C12.7761 2 13 2.22386 13 2.5L13 13.5C13 13.7761 12.7761 14 12.5 14L10.5 14Z" fill="var(--mw-icon-object-primary, #616160)"/>
<path d="M2.77735 13.4818C2.44507 13.7033 2 13.4651 2 13.0657L2 2.93426C2 2.53491 2.44507 2.29672 2.77735 2.51823L10.376 7.58398C10.6728 7.78189 10.6728 8.21811 10.376 8.41603L2.77735 13.4818Z" fill="var(--mw-icon-object-primary, #616160)"/>
</svg>
