<svg width="16" height="16" viewBox="0 0 16 16" fill="none" xmlns="http://www.w3.org/2000/svg">
<path d="M15.5 2C15.7761 2 16 2.22386 16 2.5L16 13.5C16 13.7761 15.7761 14 15.5 14L13.5 14C13.2239 14 13 13.7761 13 13.5L13 2.5C13 2.22386 13.2239 2 13.5 2L15.5 2Z" fill="var(--mw-icon-object-primary, #616160)"/>
<path d="M6.77735 13.4818C6.44507 13.7033 6 13.4651 6 13.0657L6 2.93426C6 2.53491 6.44507 2.29672 6.77735 2.51823L14.376 7.58398C14.6728 7.78189 14.6728 8.21811 14.376 8.41603L6.77735 13.4818Z" fill="var(--mw-icon-object-primary, #616160)"/>
<path d="M0.77735 13.4818C0.445073 13.7033 8.4966e-10 13.4651 8.21937e-10 13.0657L0 2.93426C0 2.53491 0.445074 2.29672 0.777351 2.51823L8.37596 7.58398C8.67283 7.78189 8.67283 8.21811 8.37596 8.41603L0.77735 13.4818Z" fill="var(--mw-icon-object-primary, #616160)"/>
</svg>
