<svg width="16" height="16" viewBox="0 0 16 16" fill="none" xmlns="http://www.w3.org/2000/svg">
<path d="M0.5 12.5V2.5C0.5 1.39543 1.39543 0.5 2.5 0.5H12.5C13.6046 0.5 14.5 1.39543 14.5 2.5V12.5C14.5 13.6046 13.6046 14.5 12.5 14.5H2.5C1.39543 14.5 0.5 13.6046 0.5 12.5Z" fill="#E6E6E6"/>
<rect x="7" y="4" width="5" height="3" fill="var(--mw-icon-glyph-content-dark-blue, #104280)"/>
<rect x="3" y="10" width="5" height="3" fill="var(--mw-icon-glyph-content-dark-blue, #104280)"/>
<path d="M10.5 0.5V2.5H2.5V8.5H10.5V14.5" stroke="#B7312C" stroke-dasharray="3 1"/>
<path d="M0.5 12.5V2.5C0.5 1.39543 1.39543 0.5 2.5 0.5H12.5C13.6046 0.5 14.5 1.39543 14.5 2.5V12.5C14.5 13.6046 13.6046 14.5 12.5 14.5H2.5C1.39543 14.5 0.5 13.6046 0.5 12.5Z" stroke="var(--mw-icon-border-disabled-gray, #888888)" stroke-linecap="round"/>

</svg>
