<svg width="16" height="16" viewBox="0 0 16 16" fill="none" xmlns="http://www.w3.org/2000/svg">
<rect x="0.5" y="0.5" width="14" height="14" rx="1" fill="var(--mw-icon-background-default-white, #FFFFFF)"/>
<path d="M0.5 7.5C0.5 7.5 1.22727 4.5 2.5 4.5C4.09091 4.5 4.59091 10.5 6.5 10.5C8.09091 10.5 7.90909 5.5 9.5 5.5C10.7727 5.5 10.5909 8.5 12.5 8.5C14.0909 8.5 14.5 5.5 14.5 5.5" stroke="var(--mw-icon-glyph-content-light-blue, #278CDD)"/>
<path d="M7 4C7 3.44772 7.44772 3 8 3C8.55228 3 9 3.44772 9 4C9 4.55228 8.55228 5 8 5C7.44772 5 7 4.55228 7 4Z" fill="var(--mw-icon-glyph-content-dark-gray, #333333)"/>
<path d="M2 3C2 2.44772 2.44772 2 3 2C3.55228 2 4 2.44772 4 3C4 3.55228 3.55228 4 3 4C2.44772 4 2 3.55228 2 3Z" fill="var(--mw-icon-glyph-content-dark-gray, #333333)"/>
<path d="M11 10C11 9.44772 11.4477 9 12 9C12.5523 9 13 9.44772 13 10C13 10.5523 12.5523 11 12 11C11.4477 11 11 10.5523 11 10Z" fill="var(--mw-icon-glyph-content-dark-gray, #333333)"/>
<path d="M5 12C5 11.4477 5.44772 11 6 11C6.55228 11 7 11.4477 7 12C7 12.5523 6.55228 13 6 13C5.44772 13 5 12.5523 5 12Z" fill="var(--mw-icon-glyph-content-dark-gray, #333333)"/>
<rect x="0.5" y="0.5" width="14" height="14" rx="1" stroke="var(--mw-icon-border-default-gray, #616161)"/>
</svg>
