<svg width="16" height="16" viewBox="0 0 16 16" fill="none" xmlns="http://www.w3.org/2000/svg">
<path d="M0.5 1.5C0.5 0.947716 0.947715 0.5 1.5 0.5H13.5C14.0523 0.5 14.5 0.947715 14.5 1.5V13.5C14.5 14.0523 14.0523 14.5 13.5 14.5H1.5C0.947716 14.5 0.5 14.0523 0.5 13.5V1.5Z" fill="var(--mw-icon-background-default-white, #FFFFFF)" stroke="var(--mw-icon-border-default-gray, #616161)"/>
<path d="M2.5 2.5L3 3M2.5 12.5L3 12M12.5 2.5L12 3M12.5 12.5L12 12" stroke="var(--mw-icon-glyph-content-gray, #616162)" stroke-linecap="square" stroke-linejoin="round"/>
<path d="M4 4H2L4 2V4Z" fill="var(--mw-icon-glyph-content-gray, #616162)"/>
<path d="M4 11V13L2 11H4Z" fill="var(--mw-icon-glyph-content-gray, #616162)"/>
<path d="M11 4H13L11 2V4Z" fill="var(--mw-icon-glyph-content-gray, #616162)"/>
<path d="M11 11V13L13 11H11Z" fill="var(--mw-icon-glyph-content-gray, #616162)"/>
<path d="M7 8C7 8.55228 6.55228 9 6 9C5.44772 9 5 8.55228 5 8C5 7.44772 5.44772 7 6 7C6.55228 7 7 7.44772 7 8Z" fill="#0072BD"/>
<path d="M9 9C9 9.55228 8.55228 10 8 10C7.44772 10 7 9.55228 7 9C7 8.44772 7.44772 8 8 8C8.55228 8 9 8.44772 9 9Z" fill="#0072BD"/>
<path d="M9 6C9 6.55228 8.55228 7 8 7C7.44772 7 7 6.55228 7 6C7 5.44772 7.44772 5 8 5C8.55228 5 9 5.44772 9 6Z" fill="#0072BD"/>
<path d="M4.5 4.5H10.5V10.5H4.5V4.5Z" stroke="var(--mw-icon-border-default-gray, #616161)" stroke-linejoin="round"/>
</svg>
