<svg width="16" height="16" viewBox="0 0 16 16" fill="none" xmlns="http://www.w3.org/2000/svg">
<rect x="0.5" y="0.5" width="12" height="12" rx="2" fill="var(--mw-icon-background-default-light-gray, #F5F5F5)"/>
<path d="M2.5 2.5H6.5V7.5H2.5" stroke="#1171BE" stroke-linecap="square" stroke-linejoin="round"/>
<path d="M3.5 4.5H9.5V5.16666V10.5H7.25H3.5" stroke="#EDB120" stroke-linecap="square" stroke-linejoin="round"/>
<rect x="0.5" y="0.5" width="12" height="12" rx="2" stroke="var(--mw-icon-border-default-gray, #616161)"/>
<path d="M6.5 7.5C6.5 6.94772 6.94772 6.5 7.5 6.5H14.5C15.0523 6.5 15.5 6.94772 15.5 7.5V14.5C15.5 15.0523 15.0523 15.5 14.5 15.5H7.5C6.94772 15.5 6.5 15.0523 6.5 14.5V7.5Z" fill="var(--mw-icon-background-default-white, #FFFFFF)"/>
<path d="M8.5 12.5L6.5 14.5L7.5 15.5L9.5 13.5L8.5 12.5Z" fill="var(--mw-icon-object-primary, #616160)" stroke="var(--mw-icon-glyph-content-gray, #616162)" stroke-linejoin="round"/>
<path d="M10.5 10.5L8.5 12.5L9.5 13.5L11.5 11.5L10.5 10.5Z" fill="var(--mw-icon-object-secondary, #FFFFFE)" stroke="var(--mw-icon-glyph-content-gray, #616162)" stroke-linejoin="round"/>
<path d="M13.8536 8.85355L14.2071 8.5L13.5 7.79289L13.1464 8.14645L13.8536 8.85355ZM13.1464 8.14645L12.1464 9.14645L12.8536 9.85355L13.8536 8.85355L13.1464 8.14645ZM11.6464 13.3536L13.1464 14.8536L13.8536 14.1464L12.3536 12.6464L11.6464 13.3536ZM7.14645 8.85355L8.64645 10.3536L9.35355 9.64645L7.85355 8.14645L7.14645 8.85355ZM11 9V7H10V9H11ZM13 12H15V11H13V12Z" fill="var(--mw-icon-glyph-disabled-gray, #888889)"/>
<path d="M6.5 7.5C6.5 6.94772 6.94772 6.5 7.5 6.5H14.5C15.0523 6.5 15.5 6.94772 15.5 7.5V14.5C15.5 15.0523 15.0523 15.5 14.5 15.5H7.5C6.94772 15.5 6.5 15.0523 6.5 14.5V7.5Z" stroke="var(--mw-icon-border-default-gray, #616161)"/>
</svg>
