<svg width="16" height="16" viewBox="0 0 16 16" fill="none" xmlns="http://www.w3.org/2000/svg">
<path d="M0.5 1.5C0.5 0.947716 0.947715 0.5 1.5 0.5H13.5C14.0523 0.5 14.5 0.947715 14.5 1.5V13.5C14.5 14.0523 14.0523 14.5 13.5 14.5H1.5C0.947716 14.5 0.5 14.0523 0.5 13.5V1.5Z" fill="var(--mw-icon-background-default-white, #FFFFFF)" stroke="var(--mw-icon-border-default-gray, #616161)"/>
<path d="M11.5 9.5V5.5L7.5 7.5V11.5L11.5 9.5Z" fill="var(--mw-icon-background-medium-yellow, #FFEF91)"/>
<path d="M3.5 9.5V5.5L7.5 7.5V11.5L3.5 9.5Z" fill="var(--mw-icon-background-medium-yellow, #FFEF91)"/>
<path d="M11.5 5.5L7.5 3.5L3.5 5.5L7.5 7.5L11.5 5.5Z" fill="var(--mw-icon-background-medium-yellow, #FFEF91)"/>
<path d="M11.5 5.5V9.5L7.5 11.5M11.5 5.5L7.5 7.5M11.5 5.5L7.5 3.5L3.5 5.5M7.5 7.5V11.5M7.5 7.5L3.5 5.5M7.5 11.5L3.5 9.5V5.5" stroke="var(--mw-icon-glyph-content-yellow, #674C07)" stroke-linecap="round" stroke-linejoin="round" stroke-dasharray="2 2"/>
<path d="M4.00001 4H2.00001L4.00001 2V4Z" fill="var(--mw-icon-glyph-content-gray, #616162)"/>
<path d="M4.00001 11V13L2.00001 11H4.00001Z" fill="var(--mw-icon-glyph-content-gray, #616162)"/>
<path d="M11 4H13L11 2V4Z" fill="var(--mw-icon-glyph-content-gray, #616162)"/>
<path d="M11 11V13L13 11H11Z" fill="var(--mw-icon-glyph-content-gray, #616162)"/>
<path d="M2.50001 2.5L3.00001 3M2.50001 12.5L3.00001 12M12.5 2.5L12 3M12.5 12.5L12 12" stroke="var(--mw-icon-glyph-content-gray, #616162)" stroke-linecap="square" stroke-linejoin="round"/>
</svg>
