<svg width="16" height="16" viewBox="0 0 16 16" fill="none" xmlns="http://www.w3.org/2000/svg">
<path d="M13.5 0.5H1.5C0.947715 0.5 0.5 0.947716 0.5 1.5V13.5C0.5 14.0523 0.947716 14.5 1.5 14.5H13.5C14.0523 14.5 14.5 14.0523 14.5 13.5V1.5C14.5 0.947715 14.0523 0.5 13.5 0.5Z" fill="var(--mw-icon-background-default-white, #FFFFFF)"/>
<path d="M0.5 4.5C3.2949 7.58378 4.59085 7.49999 6.5 7.5C9.24115 11.4919 11.2677 12.4683 14.5 13.5" stroke="#D95319" stroke-linejoin="round"/>
<path d="M1 0.5C3.79489 3.69799 4.77276 3.49999 7 3.5C9.74114 7.63977 11.2677 8.43008 14.5 9.5" stroke="#0072BD" stroke-linejoin="round"/>
<path d="M11 1V2H12V1H11Z" fill="var(--mw-icon-glyph-content-dark-gray, #333333)"/>
<path d="M11 4V6H12V4H11Z" fill="var(--mw-icon-glyph-content-dark-gray, #333333)"/>
<path d="M11 8V10H12V8H11Z" fill="var(--mw-icon-glyph-content-dark-gray, #333333)"/>
<path d="M11 12V14H12V12H11Z" fill="var(--mw-icon-glyph-content-dark-gray, #333333)"/>
<path d="M1 12H3V11H1V12Z" fill="#D95319"/>
<path d="M5 12H7V11H5V12Z" fill="#D95319"/>
<path d="M9 12H11V11H9V12Z" fill="#D95319"/>
<path d="M13 12H14V11H13V12Z" fill="#D95319"/>
<path d="M1 9H3V8H1V9Z" fill="#0072BD"/>
<path d="M5 9H7V8H5V9Z" fill="#0072BD"/>
<path d="M9 9H11V8H9V9Z" fill="#0072BD"/>
<path d="M13 9H14V8H13V9Z" fill="#0072BD"/>
<path d="M13.5 0.5H1.5C0.947715 0.5 0.5 0.947716 0.5 1.5V13.5C0.5 14.0523 0.947716 14.5 1.5 14.5H13.5C14.0523 14.5 14.5 14.0523 14.5 13.5V1.5C14.5 0.947715 14.0523 0.5 13.5 0.5Z" stroke="var(--mw-icon-border-default-gray, #616161)" stroke-linecap="round"/>
</svg>
