<svg width="16" height="16" viewBox="0 0 16 16" fill="none" xmlns="http://www.w3.org/2000/svg">
<path d="M0.5 12.5V2.5C0.5 1.39543 1.39543 0.5 2.5 0.5H12.5C13.6046 0.5 14.5 1.39543 14.5 2.5V12.5C14.5 13.6046 13.6046 14.5 12.5 14.5H2.5C1.39543 14.5 0.5 13.6046 0.5 12.5Z" fill="var(--mw-icon-background-default-white, #FFFFFF)"/>
<path d="M0.5 11.8333V3.16667C0.5 1.69391 1.69391 0.5 3.16667 0.5H4.5L4.5 14.5H3.16667C1.69391 14.5 0.5 13.3061 0.5 11.8333Z" fill="#EDB120" stroke="#EDB120" stroke-linecap="round"/>
<path d="M9 6L8.5 7H9.66988L8.93345 10.9322C8.69177 12.1525 8.35552 12.7627 7.91419 12.7627C7.78809 12.7627 7.70403 12.6836 7.70403 12.5819C7.70403 12.4576 7.7986 12.4011 7.7986 12.2542C7.7986 12.0169 7.64098 11.8362 7.3993 11.8362C7.17863 11.8362 7 12.0508 7 12.3107C7 12.7062 7.35727 13 7.83012 13C8.78634 13 9.49037 11.8927 9.9317 9.80226L10.5 7H11.5L12 6H10.7408C11.0455 4.21469 11.4553 3.24859 12.0438 3.24859C12.1909 3.24859 12.275 3.30508 12.275 3.39548C12.275 3.49718 12.1699 3.55367 12.1699 3.74576C12.1699 4.01695 12.3695 4.18644 12.5587 4.18644C12.8004 4.18644 13 3.94915 13 3.70056C13 3.29379 12.6112 3 12.0963 3C11.4553 3 11.0245 3.38418 10.7093 3.87006C10.3625 4.40113 10.1629 5.19774 9.9317 6H9Z" fill="var(--mw-icon-glyph-content-gray, #616162)"/>
<path fill-rule="evenodd" clip-rule="evenodd" d="M9.66988 7L8.93345 10.9322C8.69177 12.1525 8.35552 12.7627 7.91419 12.7627C7.78809 12.7627 7.70403 12.6836 7.70403 12.5819C7.70403 12.5224 7.72574 12.4784 7.74835 12.4326C7.77294 12.3827 7.7986 12.3307 7.7986 12.2542C7.7986 12.0169 7.64098 11.8362 7.3993 11.8362C7.17863 11.8362 7 12.0508 7 12.3107C7 12.7062 7.35727 13 7.83012 13C8.78634 13 9.49037 11.8927 9.9317 9.80226L10.5 7H11.5L12 6H10.7408C10.7529 5.92899 10.7862 5.82726 10.7986 5.75938C11.0978 4.12073 11.4787 3.24859 12.0438 3.24859C12.1909 3.24859 12.275 3.30508 12.275 3.39548C12.275 3.43831 12.2563 3.47312 12.2347 3.51343C12.2051 3.56882 12.1699 3.63457 12.1699 3.74576C12.1699 4.01695 12.3695 4.18644 12.5587 4.18644C12.8004 4.18644 13 3.94915 13 3.70056C13 3.29379 12.6112 3 12.0963 3C11.4553 3 11.0245 3.38418 10.7093 3.87006C10.3633 4.39992 10.1637 5.1949 9.93328 5.99451L9.9317 6H9L8.5 7H9.66988Z" fill="var(--mw-icon-glyph-content-gray, #616162)"/>
<path d="M3.66667 12.3125C4.18244 12.3125 4.66667 12.0788 4.66667 10.0163V6.125C4.66667 4.75 4.62437 2 6.83089 2C7.43262 2 8 2.06572 8 2.7975C8 3.14125 7.73448 3.485 7.33333 3.485C6.7267 3.48501 7.04411 2.7975 6.33333 2.7975C5.67299 2.7975 6 4.0625 6 5.4375V9.32875C6 12.4225 4.1175 13 3 13C2.66667 13 2 13 2 11.9688C2 11.5251 2.33333 11.2812 2.66667 11.2812C3.66667 11.2812 3.1509 12.3125 3.66667 12.3125Z" fill="var(--mw-icon-glyph-content-gray, #616162)"/>
<path d="M0.5 12.5V2.5C0.5 1.39543 1.39543 0.5 2.5 0.5H12.5C13.6046 0.5 14.5 1.39543 14.5 2.5V12.5C14.5 13.6046 13.6046 14.5 12.5 14.5H2.5C1.39543 14.5 0.5 13.6046 0.5 12.5Z" stroke="var(--mw-icon-border-default-gray, #616161)" stroke-linecap="round"/>
</svg>
