<svg width="16" height="16" viewBox="0 0 16 16" fill="none" xmlns="http://www.w3.org/2000/svg">
<path d="M0.5 14.5V2.5C0.5 1.39543 1.39543 0.5 2.5 0.5H13.5C14.6046 0.5 15.5 1.39543 15.5 2.5V13.5C15.5 14.6046 14.6046 15.5 13.5 15.5H1.5C0.947715 15.5 0.5 15.0523 0.5 14.5Z" fill="var(--mw-icon-background-default-white, #FFFFFF)" stroke="var(--mw-icon-border-default-gray, #616161)" stroke-linecap="square"/>
<path d="M9.5 5.5L11.5 5.5L11.5 8.5L14 8.5L10.5 13.5L7 8.5L9.5 8.5L9.5 5.5Z" fill="var(--mw-icon-background-default-action, #CBFFBE)" stroke="var(--mw-icon-border-default-green, #008013)"/>
<path d="M2.5 6.5V3.5H4.5V6.5M3 5.5H4M2.5 9.5H4.5L2.5 12.5H4.5" stroke="var(--mw-icon-glyph-content-gray, #616162)" stroke-linecap="square"/>
</svg>
