<svg width="16" height="16" viewBox="0 0 16 16" fill="none" xmlns="http://www.w3.org/2000/svg">
<path d="M0.5 13.5C0.5 14.0523 0.947715 14.5 1.5 14.5H13.5C14.0523 14.5 14.5 14.0523 14.5 13.5V1.5C14.5 0.947716 14.0523 0.5 13.5 0.5H1.5C0.947716 0.5 0.5 0.947716 0.5 1.5V13.5Z" fill="var(--mw-icon-background-default-white, #FFFFFF)" stroke="var(--mw-icon-border-default-gray, #616161)"/>
<path d="M4.42076 8.66979C4.42076 8.5762 4.40811 8.49265 4.3828 8.41912C4.35944 8.34336 4.31564 8.2754 4.25139 8.21524C4.1891 8.15285 4.10052 8.09269 3.98567 8.03476C3.87275 7.9746 3.72675 7.91221 3.54765 7.84759C3.34908 7.77629 3.16414 7.69608 2.99283 7.60695C2.82152 7.51783 2.67065 7.41422 2.54022 7.29612C2.41173 7.17803 2.31148 7.04211 2.23945 6.88837C2.16742 6.7324 2.1314 6.55192 2.1314 6.34693C2.1314 6.14639 2.16839 5.96368 2.24237 5.7988C2.31829 5.63391 2.42536 5.49242 2.56358 5.37433C2.7018 5.25401 2.86435 5.16154 3.05123 5.09693C3.24007 5.03231 3.44837 5 3.67613 5C3.99151 5 4.26405 5.06573 4.49376 5.19719C4.72542 5.32865 4.90452 5.50691 5.03106 5.73195C5.1576 5.957 5.22087 6.20989 5.22087 6.49064H4.42076C4.42076 6.33913 4.39253 6.20544 4.33608 6.08957C4.28157 5.97371 4.19786 5.88235 4.08495 5.81551C3.97398 5.74866 3.83382 5.71524 3.66445 5.71524C3.50093 5.71524 3.36466 5.74309 3.25564 5.7988C3.14857 5.8545 3.06778 5.93026 3.01327 6.02607C2.96071 6.12188 2.93443 6.22883 2.93443 6.34693C2.93443 6.43605 2.95292 6.51627 2.98991 6.58757C3.0269 6.65664 3.08238 6.72237 3.15636 6.78476C3.23033 6.84492 3.32183 6.90174 3.43085 6.95521C3.54181 7.00646 3.67029 7.05771 3.8163 7.10896C4.04991 7.18917 4.25431 7.2783 4.42952 7.37634C4.60667 7.47438 4.75365 7.58578 4.87045 7.71056C4.9892 7.83534 5.07778 7.97571 5.13618 8.13168C5.19653 8.28766 5.22671 8.46479 5.22671 8.6631C5.22671 8.87255 5.19069 9.05971 5.11866 9.2246C5.04663 9.38948 4.94346 9.52986 4.80913 9.64572C4.67481 9.76159 4.51323 9.8496 4.3244 9.90976C4.13751 9.96992 3.92824 10 3.69658 10C3.49022 10 3.28582 9.96881 3.08336 9.90642C2.88284 9.8418 2.70082 9.74599 2.5373 9.61898C2.37377 9.48975 2.24334 9.32709 2.146 9.13102C2.04867 8.93271 2 8.70098 2 8.43583H2.80595C2.80595 8.58957 2.82736 8.72103 2.87019 8.83021C2.91496 8.93717 2.97726 9.02518 3.05707 9.09425C3.13884 9.1611 3.23423 9.21012 3.34324 9.24131C3.45226 9.2725 3.57004 9.2881 3.69658 9.2881C3.8601 9.2881 3.99443 9.26248 4.09955 9.21123C4.20662 9.15775 4.28643 9.08422 4.339 8.99064C4.39351 8.89706 4.42076 8.79011 4.42076 8.66979Z" fill="var(--mw-icon-glyph-content-dark-gray, #333333)"/>
<path d="M9.28856 7.37634V7.62701C9.28856 7.99465 9.24573 8.32553 9.16007 8.61965C9.07442 8.91154 8.95275 9.15998 8.79506 9.36497C8.63738 9.56996 8.44952 9.72705 8.23148 9.83623C8.01345 9.94541 7.77108 10 7.50438 10C7.24157 10 7.00018 9.94541 6.7802 9.83623C6.56216 9.72705 6.37333 9.56996 6.2137 9.36497C6.05407 9.15998 5.93045 8.91154 5.84285 8.61965C5.75524 8.32553 5.71144 7.99465 5.71144 7.62701V7.37634C5.71144 7.00646 5.75524 6.67558 5.84285 6.38369C5.93045 6.0918 6.05309 5.84336 6.21078 5.63837C6.36846 5.43115 6.55632 5.27295 6.77436 5.16377C6.99434 5.05459 7.23573 5 7.49854 5C7.76524 5 8.00761 5.05459 8.22564 5.16377C8.44368 5.27295 8.63154 5.43115 8.78922 5.63837C8.94885 5.84336 9.0715 6.0918 9.15715 6.38369C9.24476 6.67558 9.28856 7.00646 9.28856 7.37634ZM8.47677 7.62701V7.36965C8.47677 7.1045 8.45536 6.87166 8.41253 6.67112C8.3697 6.46836 8.30643 6.29791 8.22272 6.15976C8.13901 6.02161 8.03584 5.918 7.91319 5.84893C7.79055 5.77763 7.65233 5.74198 7.49854 5.74198C7.3428 5.74198 7.20458 5.77763 7.08389 5.84893C6.96514 5.918 6.86391 6.02161 6.7802 6.15976C6.69649 6.29791 6.63225 6.46836 6.58747 6.67112C6.54464 6.87166 6.52323 7.1045 6.52323 7.36965V7.62701C6.52323 7.88993 6.54464 8.12277 6.58747 8.32553C6.63225 8.5283 6.69649 8.69987 6.7802 8.84024C6.86585 8.97839 6.96903 9.08311 7.08973 9.15441C7.21042 9.22571 7.34864 9.26136 7.50438 9.26136C7.66012 9.26136 7.79834 9.22571 7.91903 9.15441C8.03973 9.08311 8.14096 8.97839 8.22272 8.84024C8.30643 8.69987 8.3697 8.5283 8.41253 8.32553C8.45536 8.12277 8.47677 7.88993 8.47677 7.62701Z" fill="var(--mw-icon-glyph-content-dark-gray, #333333)"/>
<path d="M12.1941 8.66979C12.1941 8.5762 12.1814 8.49265 12.1561 8.41912C12.1327 8.34336 12.0889 8.2754 12.0247 8.21524C11.9624 8.15285 11.8738 8.09269 11.759 8.03476C11.646 7.9746 11.5 7.91221 11.3209 7.84759C11.1224 7.77629 10.9374 7.69608 10.7661 7.60695C10.5948 7.51783 10.4439 7.41422 10.3135 7.29612C10.185 7.17803 10.0848 7.04211 10.0127 6.88837C9.94071 6.7324 9.9047 6.55192 9.9047 6.34693C9.9047 6.14639 9.94169 5.96368 10.0157 5.7988C10.0916 5.63391 10.1987 5.49242 10.3369 5.37433C10.4751 5.25401 10.6376 5.16154 10.8245 5.09693C11.0134 5.03231 11.2217 5 11.4494 5C11.7648 5 12.0373 5.06573 12.2671 5.19719C12.4987 5.32865 12.6778 5.50691 12.8044 5.73195C12.9309 5.957 12.9942 6.20989 12.9942 6.49064H12.1941C12.1941 6.33913 12.1658 6.20544 12.1094 6.08957C12.0549 5.97371 11.9712 5.88235 11.8582 5.81551C11.7473 5.74866 11.6071 5.71524 11.4377 5.71524C11.2742 5.71524 11.138 5.74309 11.0289 5.7988C10.9219 5.8545 10.8411 5.93026 10.7866 6.02607C10.734 6.12188 10.7077 6.22883 10.7077 6.34693C10.7077 6.43605 10.7262 6.51627 10.7632 6.58757C10.8002 6.65664 10.8557 6.72237 10.9297 6.78476C11.0036 6.84492 11.0951 6.90174 11.2041 6.95521C11.3151 7.00646 11.4436 7.05771 11.5896 7.10896C11.8232 7.18917 12.0276 7.2783 12.2028 7.37634C12.38 7.47438 12.5269 7.58578 12.6437 7.71056C12.7625 7.83534 12.8511 7.97571 12.9095 8.13168C12.9698 8.28766 13 8.46479 13 8.6631C13 8.87255 12.964 9.05971 12.892 9.2246C12.8199 9.38948 12.7168 9.52986 12.5824 9.64572C12.4481 9.76159 12.2865 9.8496 12.0977 9.90976C11.9108 9.96992 11.7015 10 11.4699 10C11.2635 10 11.0591 9.96881 10.8567 9.90642C10.6561 9.8418 10.4741 9.74599 10.3106 9.61898C10.1471 9.48975 10.0166 9.32709 9.9193 9.13102C9.82196 8.93271 9.77329 8.70098 9.77329 8.43583H10.5792C10.5792 8.58957 10.6007 8.72103 10.6435 8.83021C10.6883 8.93717 10.7506 9.02518 10.8304 9.09425C10.9121 9.1611 11.0075 9.21012 11.1165 9.24131C11.2256 9.2725 11.3433 9.2881 11.4699 9.2881C11.6334 9.2881 11.7677 9.26248 11.8728 9.21123C11.9799 9.15775 12.0597 9.08422 12.1123 8.99064C12.1668 8.89706 12.1941 8.79011 12.1941 8.66979Z" fill="var(--mw-icon-glyph-content-dark-gray, #333333)"/>
</svg>
