<svg width="16" height="16" viewBox="0 0 16 16" fill="none" xmlns="http://www.w3.org/2000/svg">
<path d="M0.5 1.5C0.5 0.947715 0.947715 0.5 1.5 0.5H13.5C14.0523 0.5 14.5 0.947715 14.5 1.5V14.5C14.5 15.0523 14.0523 15.5 13.5 15.5H1.5C0.947716 15.5 0.5 15.0523 0.5 14.5V1.5Z" fill="var(--mw-icon-background-default-white, #FFFFFF)" stroke="var(--mw-icon-glyph-content-gray, #616162)"/>
<path d="M11.5 9.5H10.5C8.84315 9.5 7.5 8.15685 7.5 6.5M7.5 6.5V12.5M7.5 6.5C7.5 8.15685 6.15685 9.5 4.5 9.5H3.5" stroke="var(--mw-icon-glyph-content-gray, #616162)"/>
<path d="M8.5 12.5C8.5 13.0523 8.05228 13.5 7.5 13.5C6.94772 13.5 6.5 13.0523 6.5 12.5C6.5 11.9477 6.94772 11.5 7.5 11.5C8.05228 11.5 8.5 11.9477 8.5 12.5Z" fill="var(--mw-icon-background-default-action, #CBFFBE)"/>
<path d="M4.5 9.5C4.5 10.0523 4.05228 10.5 3.5 10.5C2.94772 10.5 2.5 10.0523 2.5 9.5C2.5 8.94772 2.94772 8.5 3.5 8.5C4.05228 8.5 4.5 8.94772 4.5 9.5Z" fill="var(--mw-icon-background-default-action, #CBFFBE)"/>
<path d="M12.5 9.5C12.5 10.0523 12.0523 10.5 11.5 10.5C10.9477 10.5 10.5 10.0523 10.5 9.5C10.5 8.94772 10.9477 8.5 11.5 8.5C12.0523 8.5 12.5 8.94772 12.5 9.5Z" fill="var(--mw-icon-background-default-action, #CBFFBE)"/>
<path d="M8.5 12.5C8.5 13.0523 8.05228 13.5 7.5 13.5C6.94772 13.5 6.5 13.0523 6.5 12.5C6.5 11.9477 6.94772 11.5 7.5 11.5C8.05228 11.5 8.5 11.9477 8.5 12.5Z" stroke="var(--mw-icon-glyph-content-green, #008014)"/>
<path d="M4.5 9.5C4.5 10.0523 4.05228 10.5 3.5 10.5C2.94772 10.5 2.5 10.0523 2.5 9.5C2.5 8.94772 2.94772 8.5 3.5 8.5C4.05228 8.5 4.5 8.94772 4.5 9.5Z" stroke="var(--mw-icon-glyph-content-green, #008014)"/>
<path d="M12.5 9.5C12.5 10.0523 12.0523 10.5 11.5 10.5C10.9477 10.5 10.5 10.0523 10.5 9.5C10.5 8.94772 10.9477 8.5 11.5 8.5C12.0523 8.5 12.5 8.94772 12.5 9.5Z" stroke="var(--mw-icon-glyph-content-green, #008014)"/>
<path d="M10.5 5.5L7.5 2L4.5 5.5L6.5 5.5L6.5 7.5L8.5 7.5L8.5 5.5L10.5 5.5Z" fill="var(--mw-icon-background-default-action, #CBFFBE)" stroke="var(--mw-icon-glyph-content-green, #008014)"/>
</svg>
