<svg width="16" height="16" viewBox="0 0 16 16" fill="none" xmlns="http://www.w3.org/2000/svg">
<path d="M15.5 14.5C15.5 15.0523 15.0523 15.5 14.5 15.5L1.5 15.5C0.947715 15.5 0.499999 15.0523 0.499999 14.5L0.499999 1.5C0.499999 0.947715 0.947715 0.499999 1.5 0.499999L14.5 0.499999C15.0523 0.499999 15.5 0.947715 15.5 1.5L15.5 14.5Z" fill="var(--mw-icon-background-default-white, #FFFFFF)" stroke="var(--mw-icon-border-default-gray, #616161)"/>
<path d="M12 12L6.35355 6.35355C6.03857 6.03857 5.5 6.26165 5.5 6.70711L5.5 12" stroke="var(--mw-icon-glyph-content-gray, #616162)" stroke-linecap="square"/>
<path d="M4 12C4 11.1716 4.67157 10.5 5.5 10.5C6.32843 10.5 7 11.1716 7 12C7 12.8284 6.32843 13.5 5.5 13.5C4.67157 13.5 4 12.8284 4 12Z" fill="var(--mw-icon-background-default-action, #CBFFBE)" stroke="var(--mw-icon-glyph-content-green, #008014)"/>
<path d="M10.5 12C10.5 11.1716 11.1716 10.5 12 10.5C12.8284 10.5 13.5 11.1716 13.5 12C13.5 12.8284 12.8284 13.5 12 13.5C11.1716 13.5 10.5 12.8284 10.5 12Z" fill="var(--mw-icon-background-default-medium-gray, #D9D9D9)" stroke="var(--mw-icon-glyph-content-gray, #616162)"/>
<path d="M2.5 5.5C2.5 3.84315 3.84315 2.5 5.5 2.5C7.15685 2.5 8.5 3.84315 8.5 5.5C8.5 7.15685 7.15685 8.5 5.5 8.5C3.84315 8.5 2.5 7.15685 2.5 5.5Z" fill="var(--mw-icon-background-default-medium-gray, #D9D9D9)" stroke="var(--mw-icon-glyph-content-gray, #616162)"/>
<path d="M4.5 5.5C4.5 4.94772 4.94772 4.5 5.5 4.5C6.05228 4.5 6.5 4.94772 6.5 5.5C6.5 6.05228 6.05228 6.5 5.5 6.5C4.94772 6.5 4.5 6.05228 4.5 5.5Z" fill="var(--mw-icon-background-default-action, #CBFFBE)" stroke="var(--mw-icon-glyph-content-green, #008014)"/>
</svg>
