<svg width="16" height="16" viewBox="0 0 16 16" fill="none" xmlns="http://www.w3.org/2000/svg">
<path d="M0.5 1.5C0.5 0.947715 0.947715 0.5 1.5 0.5H14.5C15.0523 0.5 15.5 0.947715 15.5 1.5V14.5C15.5 15.0523 15.0523 15.5 14.5 15.5H1.5C0.947715 15.5 0.5 15.0523 0.5 14.5V1.5Z" fill="var(--mw-icon-background-default-white, #FFFFFF)" stroke="var(--mw-icon-border-default-gray, #616161)"/>
<path d="M4.5 4.5V10.2929C4.5 10.7383 5.03857 10.9614 5.35355 10.6464L11.5 4.5" stroke="var(--mw-icon-glyph-content-gray, #616162)" stroke-linecap="square"/>
<path d="M6.5 4.5C6.5 5.60457 5.60457 6.5 4.5 6.5C3.39543 6.5 2.5 5.60457 2.5 4.5C2.5 3.39543 3.39543 2.5 4.5 2.5C5.60457 2.5 6.5 3.39543 6.5 4.5Z" fill="var(--mw-icon-background-default-action, #CBFFBE)"/>
<path d="M13.5 4.5C13.5 5.60457 12.6046 6.5 11.5 6.5C10.3954 6.5 9.5 5.60457 9.5 4.5C9.5 3.39543 10.3954 2.5 11.5 2.5C12.6046 2.5 13.5 3.39543 13.5 4.5Z" fill="var(--mw-icon-background-default-action, #CBFFBE)"/>
<path d="M6.5 11.5C6.5 12.6046 5.60457 13.5 4.5 13.5C3.39543 13.5 2.5 12.6046 2.5 11.5C2.5 10.3954 3.39543 9.5 4.5 9.5C5.60457 9.5 6.5 10.3954 6.5 11.5Z" fill="var(--mw-icon-background-default-action, #CBFFBE)"/>
<path d="M6.5 4.5C6.5 5.60457 5.60457 6.5 4.5 6.5C3.39543 6.5 2.5 5.60457 2.5 4.5C2.5 3.39543 3.39543 2.5 4.5 2.5C5.60457 2.5 6.5 3.39543 6.5 4.5Z" stroke="var(--mw-icon-glyph-content-green, #008014)"/>
<path d="M13.5 4.5C13.5 5.60457 12.6046 6.5 11.5 6.5C10.3954 6.5 9.5 5.60457 9.5 4.5C9.5 3.39543 10.3954 2.5 11.5 2.5C12.6046 2.5 13.5 3.39543 13.5 4.5Z" stroke="var(--mw-icon-glyph-content-green, #008014)"/>
<path d="M6.5 11.5C6.5 12.6046 5.60457 13.5 4.5 13.5C3.39543 13.5 2.5 12.6046 2.5 11.5C2.5 10.3954 3.39543 9.5 4.5 9.5C5.60457 9.5 6.5 10.3954 6.5 11.5Z" stroke="var(--mw-icon-glyph-content-green, #008014)"/>
</svg>
