<svg width="16" height="16" viewBox="0 0 16 16" fill="none" xmlns="http://www.w3.org/2000/svg">
<path d="M0.5 1.5C0.5 0.947715 0.947715 0.5 1.5 0.5H14.5C15.0523 0.5 15.5 0.947715 15.5 1.5V14.5C15.5 15.0523 15.0523 15.5 14.5 15.5H1.5C0.947715 15.5 0.5 15.0523 0.5 14.5V1.5Z" fill="var(--mw-icon-background-default-white, #FFFFFF)" stroke="var(--mw-icon-border-default-gray, #616161)"/>
<path d="M3.52786 6.5L12.4721 6.5C12.4253 6.91929 12.3195 7.33075 12.1575 7.72208C11.9313 8.26804 11.5998 8.76412 11.182 9.18198C10.7641 9.59984 10.268 9.93131 9.72208 10.1575C9.17611 10.3836 8.59095 10.5 8 10.5C7.40905 10.5 6.82389 10.3836 6.27792 10.1575C5.73196 9.93131 5.23588 9.59984 4.81802 9.18198C4.40016 8.76412 4.06869 8.26804 3.84254 7.72208C3.68045 7.33075 3.57474 6.91929 3.52786 6.5Z" stroke="var(--mw-icon-glyph-content-gray, #616162)"/>
</svg>
