<svg width="16" height="16" viewBox="0 0 16 16" fill="none" xmlns="http://www.w3.org/2000/svg">
<path d="M0.5 2.5C0.5 1.39543 1.39543 0.5 2.5 0.5H12.5C13.6046 0.5 14.5 1.39543 14.5 2.5V12.5C14.5 13.6046 13.6046 14.5 12.5 14.5H2.5C1.39543 14.5 0.5 13.6046 0.5 12.5V2.5Z" fill="var(--mw-icon-background-default-white, #FFFFFF)" stroke="var(--mw-icon-border-default-gray, #616161)"/>
<path d="M14 1.5C10.8182 1.5 10.3803 2.0641 9.59091 3.70108C8 7 8.32927 11.5141 7.5 11.5C6.67073 11.4859 7 7 5.40909 3.70107C4.5946 2.01212 2.59091 1.49915 1 1.5" stroke="#0072BD"/>
<path d="M0.5 2.5C0.5 1.39543 1.39543 0.5 2.5 0.5H12.5C13.6046 0.5 14.5 1.39543 14.5 2.5V12.5C14.5 13.6046 13.6046 14.5 12.5 14.5H2.5C1.39543 14.5 0.5 13.6046 0.5 12.5V2.5Z" stroke="var(--mw-icon-border-default-gray, #616161)"/>
</svg>
