<svg width="16" height="16" viewBox="0 0 16 16" fill="none" xmlns="http://www.w3.org/2000/svg">
<path d="M0.5 6C0.5 5.72386 0.723858 5.5 1 5.5H15C15.2761 5.5 15.5 5.72386 15.5 6V11C15.5 11.2761 15.2761 11.5 15 11.5H1C0.723858 11.5 0.5 11.2761 0.5 11V6Z" fill="var(--mw-icon-background-default-white, #FFFFFF)" stroke="var(--mw-icon-border-default-gray, #616161)"/>
<path d="M9.5 6C9.5 5.72386 9.72386 5.5 10 5.5H15C15.2761 5.5 15.5 5.72386 15.5 6V11C15.5 11.2761 15.2761 11.5 15 11.5H10C9.72386 11.5 9.5 11.2761 9.5 11V6Z" fill="var(--mw-icon-background-default-light-gray, #F5F5F5)" stroke="var(--mw-icon-border-default-gray, #616161)"/>
<path d="M9.5 5.5V11.5" stroke="var(--mw-icon-glyph-content-gray, #616162)" stroke-linecap="round" stroke-linejoin="round"/>
<path d="M14 9H11L12.5 11L14 9Z" fill="var(--mw-icon-glyph-content-gray, #616162)"/>
<path d="M14 8H11L12.5 6L14 8Z" fill="var(--mw-icon-glyph-content-gray, #616162)"/>
<path d="M7.5 7.5V9.5" stroke="var(--mw-icon-glyph-content-gray, #616162)" stroke-linecap="square"/>
</svg>
