<svg width="16" height="16" viewBox="0 0 16 16" fill="none" xmlns="http://www.w3.org/2000/svg">
<path d="M0.5 3.5H14.5V14C14.5 14.2761 14.2761 14.5 14 14.5H1C0.723857 14.5 0.5 14.2761 0.5 14V3.5Z" fill="var(--mw-icon-background-default-white, #FFFFFF)" stroke="var(--mw-icon-border-default-gray, #616161)"/>
<path d="M0.5 1C0.5 0.723858 0.723858 0.5 1 0.5H7.5H14C14.2761 0.5 14.5 0.723858 14.5 1V3.5H0.5V1Z" fill="var(--mw-icon-background-default-selection, #B4DEFF)"/>
<path d="M7.5 0.5H1C0.723858 0.5 0.5 0.723858 0.5 1V3.5H14.5V1C14.5 0.723858 14.2761 0.5 14 0.5H7.5ZM7.5 0.5V3" stroke="var(--mw-icon-border-default-blue, #1656A7)"/>
<path d="M7.5 4V14" stroke="var(--mw-icon-border-default-gray, #616161)"/>
</svg>
