<svg width="16" height="16" viewBox="0 0 16 16" fill="none" xmlns="http://www.w3.org/2000/svg">
<rect x="0.5" y="0.5" width="14" height="14" fill="var(--mw-icon-background-default-white, #FFFFFF)"/>
<path d="M14 7H1V8H14V7Z" fill="var(--mw-icon-background-default-dark-gray, #A6A6A6)"/>
<path d="M1.00012 2.60045C1.98185 2.60045 3.55081 5.5 4.44736 5.5C5.34391 5.5 6.68874 2.5 7.58529 2.5C8.48185 2.5 9.82667 5.5 10.9474 5.5C12.0681 5.5 13.1036 2.58036 14.0001 2.58036" stroke="#D95319" stroke-miterlimit="10"/>
<path d="M0.500122 10.4107C0.500122 10.4107 0.986064 9.5 1.95795 9.5C2.92983 9.5 4.38766 12.5 5.60252 12.5C6.81737 12.5 8.03223 9.5 9.24708 9.5C10.4619 9.5 11.6768 12.5 12.8917 12.5C14.1065 12.5 14.5001 11 14.5001 11" stroke="#0072BD" stroke-miterlimit="10"/>
<rect x="0.5" y="0.5" width="14" height="14" rx="1" stroke="var(--mw-icon-border-default-gray, #616161)" stroke-linejoin="round"/>
</svg>
