<svg width="16" height="16" viewBox="0 0 16 16" fill="none" xmlns="http://www.w3.org/2000/svg">
<rect x="0.5" y="0.5" width="14" height="14" rx="2" fill="var(--mw-icon-background-brown, #DC996C)"/>
<rect y="3" width="15" height="1" fill="var(--mw-icon-border-default-brown, #5F1B08)"/>
<rect x="7" y="1" width="1" height="2" fill="var(--mw-icon-border-default-brown, #5F1B08)"/>
<rect x="2" y="11" width="1" height="2" fill="var(--mw-icon-glyph-content-brown, #5F1B18)"/>
<rect x="4" y="11" width="1" height="2" fill="var(--mw-icon-glyph-content-brown, #5F1B18)"/>
<path d="M4.55554 9.60802L4.37777 9.14069C4.20456 9.20658 4.082 9.36286 4.05931 9.54679C4.03661 9.73071 4.1175 9.9121 4.2695 10.0181L4.55554 9.60802ZM6.75677 8.66829L7.10427 9.0278L7.10427 9.0278L6.75677 8.66829ZM7.44862 7.91939L7.84818 8.21998L7.84818 8.21998L7.44862 7.91939ZM9.33542 6.05516L9.77159 6.2996L9.77159 6.2996L9.33542 6.05516ZM12.1586 7.16288L12.6405 7.02947L12.6405 7.02947L12.1586 7.16288ZM13.4444 11.04L13.1642 11.4541C13.3428 11.5749 13.5787 11.5676 13.7495 11.4361C13.9203 11.3046 13.9876 11.0784 13.9164 10.8749L13.4444 11.04ZM8.45491 13.4446L8.02574 13.7011C8.1395 13.8914 8.36501 13.9841 8.57971 13.9287L8.45491 13.4446ZM6.84764 11.094L6.57184 11.511L6.57184 11.511L6.84764 11.094ZM6.00829 10.3084C5.7907 10.4784 5.75216 10.7926 5.92219 11.0102C6.09223 11.2278 6.40645 11.2663 6.62404 11.0963L6.00829 10.3084ZM7.97934 9.21634L8.37728 9.51906L8.37728 9.51906L7.97934 9.21634ZM9.63549 6.27722L10.1303 6.34905L10.1303 6.34905L9.63549 6.27722ZM4.73331 10.0754C5.09864 9.93639 5.62324 9.72919 6.07354 9.5411C6.29818 9.44727 6.50858 9.35642 6.67284 9.28025C6.75445 9.2424 6.8299 9.20577 6.89207 9.17256C6.93266 9.15088 7.03055 9.09906 7.10427 9.0278L6.40927 8.30878C6.45225 8.26724 6.48085 8.2585 6.42092 8.29051C6.38256 8.311 6.32624 8.33868 6.25213 8.37305C6.10496 8.4413 5.90814 8.52646 5.68811 8.61836C5.24907 8.80175 4.73455 9.00497 4.37777 9.14069L4.73331 10.0754ZM7.10427 9.0278C7.25881 8.87842 7.66406 8.46471 7.84818 8.21998L7.04907 7.61879C6.91671 7.79473 6.56221 8.16096 6.40927 8.30878L7.10427 9.0278ZM7.84818 8.21998C7.97604 8.05003 8.18596 7.89964 8.50643 7.68845L7.95616 6.85346C7.66167 7.04754 7.29851 7.28723 7.04907 7.61879L7.84818 8.21998ZM8.50643 7.68845C8.71745 7.54938 8.98418 7.28467 9.2017 7.04365C9.42177 6.79981 9.65224 6.51257 9.77159 6.2996L8.89924 5.81072C8.8369 5.92196 8.66904 6.1413 8.45934 6.37365C8.2471 6.60881 8.05261 6.7899 7.95616 6.85346L8.50643 7.68845ZM9.77159 6.2996C9.86029 6.14131 10.0602 5.79369 10.2956 5.49035C10.414 5.3377 10.5281 5.21387 10.6282 5.13266C10.7402 5.04178 10.7713 5.05566 10.733 5.05566V4.05566C10.4257 4.05566 10.1703 4.21646 9.99818 4.35608C9.81417 4.50536 9.64653 4.69561 9.50554 4.87732C9.22205 5.24267 8.99223 5.64479 8.89924 5.81073L9.77159 6.2996ZM10.733 5.05566C10.6602 5.05566 10.6271 5.02676 10.6433 5.03808C10.6585 5.04875 10.6933 5.07867 10.7446 5.14221C10.8472 5.2694 10.9654 5.46717 11.0881 5.71879C11.3313 6.21742 11.5502 6.83939 11.6767 7.29629L12.6405 7.02947C12.5014 6.52724 12.2626 5.84559 11.9869 5.28041C11.8502 5.00011 11.6937 4.72591 11.5227 4.51411C11.4372 4.40816 11.3354 4.30183 11.2164 4.21863C11.0984 4.13607 10.9334 4.05566 10.733 4.05566V5.05566ZM11.6767 7.29629C11.8947 8.08339 12.6347 10.239 12.9725 11.205L13.9164 10.8749C13.574 9.89564 12.8474 7.77699 12.6405 7.02947L11.6767 7.29629ZM13.7246 10.6258C13.5685 10.5202 13.315 10.3657 13.0462 10.2354C12.8012 10.1167 12.4544 9.97258 12.1446 9.97258V10.9726C12.2038 10.9726 12.3672 11.0176 12.61 11.1353C12.8289 11.2414 13.0408 11.3706 13.1642 11.4541L13.7246 10.6258ZM12.1446 9.97258C11.8116 9.97258 11.4383 10.0847 11.1045 10.259C10.7657 10.4357 10.4243 10.6987 10.1743 11.0439L10.9843 11.6304C11.1256 11.4352 11.3363 11.2659 11.5671 11.1455C11.8027 11.0225 12.0164 10.9726 12.1446 10.9726V9.97258ZM10.1743 11.0439C9.78731 11.5783 9.15421 12.3419 8.89895 12.5769L9.57622 13.3126C9.90795 13.0072 10.5886 12.1767 10.9843 11.6304L10.1743 11.0439ZM8.89895 12.5769C8.62688 12.8273 8.42077 12.937 8.33012 12.9604L8.57971 13.9287C8.90834 13.844 9.26128 13.6025 9.57622 13.3126L8.89895 12.5769ZM8.88408 13.188C8.80408 13.0542 8.71671 12.882 8.60831 12.6685C8.50333 12.4618 8.3829 12.2252 8.247 11.9893C7.9811 11.5277 7.62255 11.007 7.12345 10.6769L6.57184 11.511C6.86939 11.7078 7.13277 12.0584 7.3805 12.4885C7.50142 12.6984 7.61072 12.9126 7.71669 13.1213C7.81925 13.3233 7.92405 13.531 8.02574 13.7011L8.88408 13.188ZM7.12345 10.6769C6.37356 10.181 5.29215 9.5122 4.84159 9.19793L4.2695 10.0181C4.72273 10.3343 5.88161 11.0546 6.57184 11.511L7.12345 10.6769ZM6.62404 11.0963C6.84829 10.9211 7.20096 10.636 7.53472 10.3465C7.85466 10.0691 8.20113 9.75062 8.37728 9.51906L7.5814 8.91361C7.47803 9.0495 7.21187 9.30289 6.87958 9.59104C6.56112 9.86719 6.22196 10.1414 6.00829 10.3084L6.62404 11.0963ZM8.37728 9.51906C8.55636 9.28366 8.94909 8.75299 9.31524 8.16597C9.49824 7.87257 9.67893 7.55822 9.82371 7.25492C9.96499 6.95894 10.0879 6.64135 10.1303 6.34905L9.14068 6.20539C9.11985 6.34885 9.04776 6.55911 8.92125 6.82415C8.79823 7.08187 8.63831 7.36171 8.46676 7.63674C8.12381 8.18657 7.75173 8.68971 7.5814 8.91361L8.37728 9.51906ZM10.1303 6.34905C10.2445 5.56258 10.4362 5.28392 10.5776 5.17832L9.9792 4.37712C9.50563 4.73083 9.26405 5.35556 9.14068 6.20539L10.1303 6.34905ZM6.48392 9.01326L7.4343 9.70221L8.02123 8.89257L7.07084 8.20362L6.48392 9.01326Z" fill="var(--mw-icon-glyph-content-dark-gray, #333333)"/>
<path fill-rule="evenodd" clip-rule="evenodd" d="M10.3437 5.12078C10.1767 5.3128 10.0241 5.66549 9.92911 6.3201C9.89108 6.58208 9.77854 6.87781 9.64027 7.16749C9.49992 7.4615 9.32346 7.76882 9.14279 8.05848C8.78137 8.63792 8.39284 9.16298 8.21555 9.39604C8.05422 9.60811 7.72411 9.91334 7.40166 10.193C7.1937 10.3733 6.97811 10.5521 6.7915 10.7031C6.86738 10.7526 6.94087 10.8008 7.0111 10.8472C7.46914 11.1501 7.80831 11.6362 8.0705 12.0913C8.20335 12.3219 8.32151 12.554 8.4267 12.7611L8.43178 12.7711C8.48658 12.879 8.53715 12.9786 8.58477 13.0689C8.71092 12.9971 8.86559 12.8848 9.03692 12.7271C9.30776 12.4778 9.95055 11.7006 10.3393 11.1637C10.5672 10.8491 10.8819 10.6052 11.1987 10.4399C11.5126 10.2761 11.8534 10.1766 12.1447 10.1766C12.386 10.1766 12.6713 10.2844 12.907 10.3951C12.5393 9.3273 12.0434 7.85767 11.8731 7.24229C11.744 6.77615 11.5211 6.14203 11.2712 5.62984C11.1457 5.37239 11.0197 5.15905 10.9031 5.01462C10.8448 4.94244 10.7964 4.89695 10.76 4.87151C10.7427 4.85936 10.7319 4.85439 10.7271 4.85254C10.692 4.85506 10.617 4.87979 10.4999 4.97482C10.4849 4.98698 10.4698 4.99984 10.4545 5.01334L10.4561 5.01543C10.4459 5.02303 10.4357 5.0311 10.4256 5.03965C10.3986 5.06485 10.3712 5.09197 10.3437 5.12078Z" fill="#F57729"/>
<path fill-rule="evenodd" clip-rule="evenodd" d="M6.26657 10.3644C6.47633 10.1974 6.7516 9.97204 7.01341 9.74502C7.14694 9.62923 7.27273 9.5166 7.38299 9.41324L6.80024 8.99079L6.79608 8.99301C6.73876 9.02363 6.66721 9.05844 6.58713 9.09558C6.42635 9.17014 6.21871 9.25982 5.99501 9.35326C5.73812 9.46057 5.45671 9.5742 5.19482 9.6777C5.40721 9.8155 5.65281 9.97231 5.9059 10.1339C6.02535 10.2102 6.1465 10.2875 6.26657 10.3644ZM7.2532 8.58723L7.78987 8.97627C7.97709 8.72761 8.3206 8.25666 8.63997 7.74464C8.81385 7.46586 8.978 7.179 9.10545 6.91199C9.12833 6.86406 9.14974 6.81735 9.16963 6.77197C9.13037 6.81769 9.09042 6.86303 9.05047 6.9073C8.83402 7.14712 8.58201 7.39479 8.39432 7.51848C8.07915 7.72619 7.83801 7.89477 7.68538 8.09764C7.58535 8.2306 7.41182 8.42112 7.2532 8.58723Z" fill="#068CFC"/>
<rect x="0.5" y="0.5" width="14" height="14" rx="2" stroke="var(--mw-icon-border-default-brown, #5F1B08)"/>
</svg>
