<svg width="16" height="16" viewBox="0 0 16 16" fill="none" xmlns="http://www.w3.org/2000/svg">
<path d="M4.5 3.5H15.5L15.5 14C15.5 14.2761 15.2761 14.5 15 14.5H4.5V3.5Z" fill="var(--mw-icon-background-default-white, #FFFFFF)" stroke="var(--mw-icon-border-default-gray, #616161)"/>
<path d="M0.5 1C0.5 0.723858 0.723858 0.5 1 0.5H5.5V3.5H0.5V1Z" fill="var(--mw-icon-background-default-medium-gray, #D9D9D9)"/>
<path d="M15.5 1C15.5 0.723858 15.2761 0.5 15 0.5H5.5V3.5H15.5V1Z" fill="var(--mw-icon-background-default-medium-gray, #D9D9D9)"/>
<path d="M5.5 0.5H1C0.723858 0.5 0.5 0.723858 0.5 1V3.5H5.5M5.5 0.5V3.5M5.5 0.5H15C15.2761 0.5 15.5 0.723858 15.5 1V3.5H5.5" stroke="var(--mw-icon-border-default-gray, #616161)"/>
<path d="M1 14.5C0.723858 14.5 0.5 14.2761 0.5 14L0.5 8.5L0.5 3.5H5.5L5.5 8.5V14.5H1Z" fill="var(--mw-icon-background-light-yellow, #FFF5BC)"/>
<path d="M5.5 8.5L5.5 3.5H0.5L0.5 8.5M5.5 8.5V14.5H1C0.723858 14.5 0.5 14.2761 0.5 14L0.5 8.5M5.5 8.5H0.5" stroke="#674C06"/>
<path d="M6 8.5H15M10.5 1V14" stroke="var(--mw-icon-glyph-content-gray, #616162)"/>
<path d="M7 5.5H9M12 5.5H14M7 10.5H9M7 12.5H9" stroke="var(--mw-icon-glyph-content-gray, #616162)"/>
<path d="M2 5.5H4M2 10.5H4" stroke="var(--mw-icon-glyph-content-yellow, #674C07)"/>
</svg>
