<svg width="16" height="16" viewBox="0 0 16 16" fill="none" xmlns="http://www.w3.org/2000/svg">
<path d="M13.5 0.5H1.5C0.947715 0.5 0.5 0.947716 0.5 1.5V13.5C0.5 14.0523 0.947716 14.5 1.5 14.5H13.5C14.0523 14.5 14.5 14.0523 14.5 13.5V1.5C14.5 0.947715 14.0523 0.5 13.5 0.5Z" fill="var(--mw-icon-background-light-yellow, #FFF5BC)" stroke="#674C06"/>
<mask id="path-2-inside-1_19753_39932" fill="var(--mw-icon-background-default-white, #FFFFFF)">
<path d="M6 9L4.5 7L3 9L6 9Z"/>
</mask>
<path d="M6 9L4.5 7L3 9L6 9Z" stroke="var(--mw-icon-glyph-content-yellow, #674C07)" stroke-width="2" stroke-linecap="round" mask="url(#path-2-inside-1_19753_39932)"/>
<path d="M4.5 9.5L4.5 10C4.5 10.2761 4.72386 10.5 5 10.5V10.5L5.5 10.5" stroke="var(--mw-icon-glyph-content-yellow, #674C07)" stroke-linecap="square" stroke-linejoin="round"/>
<mask id="path-4-inside-2_19753_39932" fill="white">
<path d="M9 6L10.5 8L12 6H9Z"/>
</mask>
<path d="M9 6L10.5 8L12 6H9Z" stroke="var(--mw-icon-glyph-content-yellow, #674C07)" stroke-width="2" stroke-linecap="round" mask="url(#path-4-inside-2_19753_39932)"/>
<path d="M10.5 5.5V5C10.5 4.72386 10.2761 4.5 10 4.5V4.5L9.5 4.5" stroke="var(--mw-icon-glyph-content-yellow, #674C07)" stroke-linecap="square" stroke-linejoin="round"/>
<path d="M2.5 2.5H7.5V6.5L2.5 6.49998V2.5Z" stroke="var(--mw-icon-glyph-content-yellow, #674C07)" stroke-linecap="round" stroke-linejoin="round"/>
<path d="M7.5 8.5H12.5V12.5L7.5 12.5V8.5Z" stroke="var(--mw-icon-glyph-content-yellow, #674C07)" stroke-linecap="round" stroke-linejoin="round"/>
</svg>
