<svg width="16" height="16" viewBox="0 0 16 16" fill="none" xmlns="http://www.w3.org/2000/svg">
<path d="M1 1.5C1 0.947716 1.44772 0.5 2 0.5H14C14.5523 0.5 15 0.947715 15 1.5V13.5C15 14.0523 14.5523 14.5 14 14.5H2C1.44772 14.5 1 14.0523 1 13.5V1.5Z" fill="var(--mw-icon-background-default-white, #FFFFFF)"/>
<path d="M3.5 7.49997V4" stroke="#DD5400"/>
<path d="M7.5 7.49997V3" stroke="#DD5400"/>
<path d="M5 4C5 4.82843 4.32843 5.5 3.5 5.5C2.67157 5.5 2 4.82843 2 4C2 3.17157 2.67157 2.5 3.5 2.5C4.32843 2.5 5 3.17157 5 4Z" fill="#DD5400"/>
<path d="M9 3.5C9 4.32843 8.32843 5 7.5 5C6.67157 5 6 4.32843 6 3.5C6 2.67157 6.67157 2 7.5 2C8.32843 2 9 2.67157 9 3.5Z" fill="#DD5400"/>
<path d="M12 11.5C12 12.3284 11.3284 13 10.5 13C9.67157 13 9 12.3284 9 11.5C9 10.6716 9.67157 10 10.5 10C11.3284 10 12 10.6716 12 11.5Z" fill="#1171BE"/>
<path d="M10.5 8V11.5" stroke="#1171BE"/>
<path d="M1 7.5H14.5" stroke="var(--mw-icon-glyph-content-gray, #616162)" stroke-linejoin="round"/>
<path d="M0.5 1.5C0.5 0.947716 0.947715 0.5 1.5 0.5H13.5C14.0523 0.5 14.5 0.947715 14.5 1.5V13.5C14.5 14.0523 14.0523 14.5 13.5 14.5H1.5C0.947716 14.5 0.5 14.0523 0.5 13.5V1.5Z" stroke="var(--mw-icon-border-default-gray, #616161)"/>
</svg>
