<svg width="16" height="16" viewBox="0 0 16 16" fill="none" xmlns="http://www.w3.org/2000/svg">
<path fill-rule="evenodd" clip-rule="evenodd" d="M12.5 2C12.2239 2 12 2.22386 12 2.5C12 2.77614 12.2239 3 12.5 3C12.7761 3 13 2.77614 13 2.5C13 2.22386 12.7761 2 12.5 2ZM12.5 4C11.8469 4 11.2913 3.5826 11.0854 3H9.75H8V12.5C8 12.7761 7.77614 13 7.5 13H3.91465C3.70873 13.5826 3.15311 14 2.5 14C1.67157 14 1 13.3284 1 12.5C1 11.6716 1.67157 11 2.5 11C3.15311 11 3.70873 11.4174 3.91465 12H7V2.5C7 2.22386 7.22386 2 7.5 2H9.75H11.0854C11.2913 1.4174 11.8469 1 12.5 1C13.3284 1 14 1.67157 14 2.5C14 3.32843 13.3284 4 12.5 4ZM3 12.5C3 12.2239 2.77614 12 2.5 12C2.22386 12 2 12.2239 2 12.5C2 12.7761 2.22386 13 2.5 13C2.77614 13 3 12.7761 3 12.5Z" fill="var(--mw-icon-object-primary, #616160)"/>
</svg>
