<svg width="16" height="16" viewBox="0 0 16 16" fill="none" xmlns="http://www.w3.org/2000/svg">
<rect x="0.5" y="0.5" width="14" height="14" rx="1" fill="var(--mw-icon-background-default-white, #FFFFFF)"/>
<rect x="2.5" y="2.49988" width="6" height="6" fill="var(--mw-icon-background-default-medium-gray, #D9D9D9)" stroke="var(--mw-icon-glyph-content-gray, #616162)"/>
<rect x="4.5" y="4.49988" width="6" height="6" fill="var(--mw-icon-background-default-medium-gray, #D9D9D9)" stroke="var(--mw-icon-glyph-content-gray, #616162)"/>
<path d="M4.5 5.3186L7.77273 8.04588" stroke="var(--mw-icon-glyph-disabled-gray, #888889)" stroke-linecap="round" stroke-linejoin="round"/>
<path d="M9 5H10V6H9V5Z" fill="var(--mw-icon-glyph-content-gray, #616162)"/>
<path d="M5 8H6V9H5V8Z" fill="var(--mw-icon-glyph-content-gray, #616162)"/>
<rect x="4.5" y="4.49988" width="6" height="6" stroke="var(--mw-icon-glyph-content-gray, #616162)"/>
<rect x="6.5" y="6.49988" width="6" height="6" fill="#FFD19E" stroke="#DD5400"/>
<path d="M6.5 11.9785L12.5 7.99982" stroke="#DD5400" stroke-linecap="round" stroke-linejoin="round"/>
<path d="M8 7.99988H9V8.99988H8V7.99988Z" fill="var(--mw-icon-glyph-content-gray, #616162)"/>
<path d="M10 10.9999H11V11.9999H10V10.9999Z" fill="var(--mw-icon-glyph-content-gray, #616162)"/>
<path d="M11 9.99988H12V10.9999H11V9.99988Z" fill="var(--mw-icon-glyph-content-gray, #616162)"/>
<rect x="0.5" y="0.5" width="14" height="14" rx="1" stroke="var(--mw-icon-border-default-gray, #616161)"/>
</svg>
