<svg width="16" height="16" viewBox="0 0 16 16" fill="none" xmlns="http://www.w3.org/2000/svg">
<path d="M7.77733 13.4818C7.44505 13.7033 6.99998 13.4651 6.99998 13.0657L7 2.93426C7 2.53491 7.44507 2.29672 7.77735 2.51824L15.376 7.58399C15.6728 7.7819 15.6728 8.21813 15.3759 8.41604L7.77733 13.4818Z" fill="var(--mw-icon-object-primary, #616160)"/>
<path d="M4.5 2C4.77614 2 5 2.22386 5 2.5L4.99997 13.5C4.99997 13.7761 4.77612 14 4.49997 14L2.5 14C2.22386 14 2 13.7761 2 13.5L2.00002 2.5C2.00002 2.22386 2.22388 2 2.50002 2L4.5 2Z" fill="var(--mw-icon-object-primary, #616160)"/>
</svg>
