<svg width="16" height="16" viewBox="0 0 16 16" fill="none" xmlns="http://www.w3.org/2000/svg">
<path d="M0.734375 12.2969V2.73438C0.734375 1.62981 1.62981 0.734375 2.73438 0.734375H12.2969C13.4014 0.734375 14.2969 1.62981 14.2969 2.73438V12.2969C14.2969 13.4014 13.4014 14.2969 12.2969 14.2969H2.73438C1.62981 14.2969 0.734375 13.4014 0.734375 12.2969Z" fill="var(--mw-icon-background-default-white, white)"/>
<path d="M1.00159 1H1.99833V1.99675H1.00159V1Z" fill="var(--mw-icon-background-default-dark-gray, #A6A6A6)"/>
<path d="M2.00159 2H2.99833V2.99675H2.00159V2Z" fill="var(--mw-icon-background-default-dark-gray, #A6A6A6)"/>
<path d="M2.00159 12H2.99833V12.9967H2.00159V12Z" fill="var(--mw-icon-background-default-dark-gray, #A6A6A6)"/>
<path d="M12.0016 12H12.9983V12.9967H12.0016V12Z" fill="var(--mw-icon-background-default-dark-gray, #A6A6A6)"/>
<path d="M12.0016 2H12.9983V2.99675H12.0016V2Z" fill="var(--mw-icon-background-default-dark-gray, #A6A6A6)"/>
<path d="M3.00159 1H3.99833V1.99675H3.00159V1Z" fill="var(--mw-icon-background-default-dark-gray, #A6A6A6)"/>
<path d="M5.00159 1H5.99833V1.99675H5.00159V1Z" fill="var(--mw-icon-background-default-dark-gray, #A6A6A6)"/>
<path d="M7.00159 1H7.99833V1.99675H7.00159V1Z" fill="var(--mw-icon-background-default-dark-gray, #A6A6A6)"/>
<path d="M9.00159 1H9.99833V1.99675H9.00159V1Z" fill="var(--mw-icon-background-default-dark-gray, #A6A6A6)"/>
<path d="M11.0016 1H11.9983V1.99675H11.0016V1Z" fill="var(--mw-icon-background-default-dark-gray, #A6A6A6)"/>
<path d="M3.00159 13H3.99833V13.9967H3.00159V13Z" fill="var(--mw-icon-background-default-dark-gray, #A6A6A6)"/>
<path d="M5.00159 13H5.99833V13.9967H5.00159V13Z" fill="var(--mw-icon-background-default-dark-gray, #A6A6A6)"/>
<path d="M7.00159 13H7.99833V13.9967H7.00159V13Z" fill="var(--mw-icon-background-default-dark-gray, #A6A6A6)"/>
<path d="M9.00159 13H9.99833V13.9967H9.00159V13Z" fill="var(--mw-icon-background-default-dark-gray, #A6A6A6)"/>
<path d="M11.0016 13H11.9983V13.9967H11.0016V13Z" fill="var(--mw-icon-background-default-dark-gray, #A6A6A6)"/>
<path d="M13.0016 1H13.9983V1.99675H13.0016V1Z" fill="var(--mw-icon-background-default-dark-gray, #A6A6A6)"/>
<path d="M13.0016 3H13.9983V3.99675H13.0016V3Z" fill="var(--mw-icon-background-default-dark-gray, #A6A6A6)"/>
<path d="M13.0016 5H13.9983V5.99675H13.0016V5Z" fill="var(--mw-icon-background-default-dark-gray, #A6A6A6)"/>
<path d="M13.0016 7H13.9983V7.99675H13.0016V7Z" fill="var(--mw-icon-background-default-dark-gray, #A6A6A6)"/>
<path d="M13.0016 9H13.9983V9.99675H13.0016V9Z" fill="var(--mw-icon-background-default-dark-gray, #A6A6A6)"/>
<path d="M13.0016 11H13.9983V11.9967H13.0016V11Z" fill="var(--mw-icon-background-default-dark-gray, #A6A6A6)"/>
<path d="M13 13H13.9967V13.9967H13V13Z" fill="var(--mw-icon-background-default-dark-gray, #A6A6A6)"/>
<path d="M1.00159 3H1.99833V3.99675H1.00159V3Z" fill="var(--mw-icon-background-default-dark-gray, #A6A6A6)"/>
<path d="M1.00159 5H1.99833V5.99675H1.00159V5Z" fill="var(--mw-icon-background-default-dark-gray, #A6A6A6)"/>
<path d="M1.00159 7H1.99833V7.99675H1.00159V7Z" fill="var(--mw-icon-background-default-dark-gray, #A6A6A6)"/>
<path d="M1.00159 9H1.99833V9.99675H1.00159V9Z" fill="var(--mw-icon-background-default-dark-gray, #A6A6A6)"/>
<path d="M1.00159 11H1.99833V11.9967H1.00159V11Z" fill="var(--mw-icon-background-default-dark-gray, #A6A6A6)"/>
<path d="M1 13H1.99675V13.9967H1V13Z" fill="var(--mw-icon-background-default-dark-gray, #A6A6A6)"/>
<rect x="2.5" y="2.5" width="10" height="10" rx="0.5" fill="var(--mw-icon-background-default-medium-gray, #D9D9D9)" stroke="var(--mw-icon-glyph-content-dark-gray, #333333)" stroke-linejoin="round"/>
<ellipse cx="10.4984" cy="4.5018" rx="0.498378" ry="0.498383" fill="var(--mw-icon-border-disabled-gray, #888888)"/>
<path d="M11 7.50345C11 9.43647 9.433 11.0035 7.5 11.0035C5.567 11.0035 4 9.43647 4 7.50345C4 5.57044 5.567 4.00342 7.5 4.00342C9.433 4.00342 11 5.57044 11 7.50345Z" fill="#7D7D7D"/>
<path d="M10 7.50027C10 8.881 8.88071 10.0003 7.5 10.0003C6.11929 10.0003 5 8.881 5 7.50027C5 6.11954 6.11929 5.00024 7.5 5.00024C8.88071 5.00024 10 6.11954 10 7.50027Z" fill="var(--mw-icon-glyph-content-dark-gray, #333333)"/>
<ellipse cx="6.49838" cy="6.49545" rx="0.498378" ry="0.498383" fill="var(--mw-icon-background-default-medium-gray, #D9D9D9)"/>
<path d="M0.5 12.5V2.5C0.5 1.39543 1.39543 0.5 2.5 0.5H12.5C13.6046 0.5 14.5 1.39543 14.5 2.5V12.5C14.5 13.6046 13.6046 14.5 12.5 14.5H2.5C1.39543 14.5 0.5 13.6046 0.5 12.5Z" stroke="var(--mw-icon-border-default-gray, #616161)" stroke-linecap="round"/>

</svg>
