<svg width="16" height="16" viewBox="0 0 16 16" fill="none" xmlns="http://www.w3.org/2000/svg">
<path d="M0.5 12.5H14.5V14C14.5 14.2761 14.2761 14.5 14 14.5H1C0.723857 14.5 0.5 14.2761 0.5 14V12.5Z" fill="#EDB120"/>
<path d="M0.5 1C0.5 0.723858 0.723858 0.5 1 0.5H14C14.2761 0.5 14.5 0.723858 14.5 1V2.5H0.5V1Z" fill="#EDB120"/>
<path d="M0.5 12.5H14.5V14C14.5 14.2761 14.2761 14.5 14 14.5H1C0.723857 14.5 0.5 14.2761 0.5 14V12.5Z" stroke="#745A26" stroke-linejoin="round"/>
<path d="M0.5 1C0.5 0.723858 0.723858 0.5 1 0.5H14C14.2761 0.5 14.5 0.723858 14.5 1V2.5H0.5V1Z" stroke="#745A26" stroke-linejoin="round"/>
<path d="M0.5 2.5H14.5V12.5H0.5V2.5Z" fill="var(--mw-icon-glyph-content-green, #008014)" stroke="#013E0A"/>
<path d="M4.5 5.5H10.5V9.5H4.5V5.5Z" fill="#EDB120" stroke="#4A3A19" stroke-linejoin="round"/>
</svg>
