<svg width="16" height="16" viewBox="0 0 16 16" fill="none" xmlns="http://www.w3.org/2000/svg">
<rect x="0.5" y="0.5" width="14" height="14" rx="1" fill="var(--mw-icon-background-default-white, #FFFFFF)"/>
<rect x="0.5" y="0.5" width="14" height="14" rx="1" stroke="var(--mw-icon-border-default-gray, #616161)"/>
<path d="M8 9.53474L7.70526 12H2V11.8187L4.81053 8.08459L2 4.18127V4H7.53684V5.94562H7.27368C7.11579 4.71299 6.62105 4.45921 5.69474 4.45921H3.50526L5.73684 7.56495L3.24211 10.852H6.50526C7.31579 10.852 7.6 10.4532 7.75789 9.53474H8Z" fill="#1171BE"/>
<path d="M13 6.39201L12.7573 7H11V6.94675L11.8 6.10799C12.2225 5.66864 12.3843 5.33136 12.3843 4.95414C12.3843 4.5503 12.1416 4.3284 11.7596 4.3284C11.436 4.3284 11.2787 4.47041 11.0989 4.90533L11.0045 4.88314C11.0989 4.36391 11.3865 4 11.9393 4C12.4472 4 12.7708 4.34172 12.7708 4.78107C12.7708 5.13166 12.5955 5.4645 12.1955 5.88166L11.4539 6.66272H12.5056C12.6944 6.66272 12.7888 6.61391 12.9371 6.36538L13 6.39201Z" fill="#1171BE"/>
<path d="M10.8797 7.88936L11 7.93404C10.7068 8.62979 10.1805 9 9.42857 9C8.54135 9 8 8.43191 8 7.55106C8 6.65106 8.60902 6 9.55639 6C10.0226 6 10.3609 6.15319 10.6015 6.44043C10.7519 6.61915 10.8271 6.8234 10.8571 7.16809H8.54135C8.57895 7.65319 8.61654 7.90213 8.88722 8.20851C9.09774 8.44468 9.37594 8.55957 9.7218 8.55957C10.2256 8.55957 10.5113 8.3617 10.8797 7.88936ZM8.55639 6.96383H10.0902C10.0075 6.44681 9.84962 6.22979 9.35338 6.22979C8.93233 6.22979 8.6391 6.48511 8.55639 6.96383Z" fill="#1171BE"/>
</svg>
