<svg width="16" height="16" viewBox="0 0 16 16" fill="none" xmlns="http://www.w3.org/2000/svg">
<path d="M0.5 15.5V0.5H5.71739V4.41304L7.67391 5.71739L9.63043 7.67391L5.71739 11.587V15.5H0.5Z" fill="var(--mw-icon-background-medium-blue, #83CAFF)"/>
<path d="M5.71741 0.5H15.5V15.5H5.71741V11.587L9.63045 7.67391L7.67393 5.71739L5.71741 4.41304V0.5Z" fill="var(--mw-icon-background-default-white, #FFFFFF)"/>
<path d="M5.71739 0.5H1C0.723858 0.5 0.5 0.723858 0.5 1V1.80435M5.71739 0.5V4.41304M5.71739 0.5H12.8913M5.71739 4.41304L4.41304 5.71739M5.71739 4.41304L7.67391 5.71739M4.41304 5.71739L0.5 1.80435M4.41304 5.71739V9.63043M0.5 1.80435V9.63043M4.41304 9.63043H0.5M4.41304 9.63043L5.71739 11.587M0.5 9.63043V15C0.5 15.2761 0.723857 15.5 1 15.5H2.13043M5.71739 11.587L2.13043 15.5M5.71739 11.587V15.5M5.71739 11.587L7.34783 9.95652M2.13043 15.5H5.71739M5.71739 15.5H11.587M9.63043 7.67391L7.67391 5.71739M9.63043 7.67391H11.587M9.63043 7.67391L7.34783 9.95652M15.5 5.71739V1C15.5 0.723858 15.2761 0.5 15 0.5H12.8913M15.5 5.71739V14.1957M15.5 5.71739L13.5435 7.67391H11.587M15.5 5.71739L14.8478 6.36957L10.9348 2.45652M7.67391 5.71739L10.9348 2.45652M12.8913 0.5L10.9348 2.45652M11.587 7.67391V10.2826M11.587 15.5H15C15.2761 15.5 15.5 15.2761 15.5 15V14.1957M11.587 15.5V14.1957M11.587 10.2826L15.5 14.1957M11.587 10.2826V14.1957M7.34783 9.95652L11.587 14.1957" stroke="var(--mw-icon-border-default-gray, #616161)" stroke-linecap="round"/>
</svg>
