<svg width="16" height="16" viewBox="0 0 16 16" fill="none" xmlns="http://www.w3.org/2000/svg">
<rect x="0.5" y="0.5" width="14" height="14" rx="1" fill="var(--mw-icon-background-default-white, #FFFFFF)"/>
<path d="M4.5 13.5C4.5 12.9477 4.94772 12.5 5.5 12.5C6.05228 12.5 6.5 12.9477 6.5 13.5C6.5 14.0523 6.05228 14.5 5.5 14.5C4.94772 14.5 4.5 14.0523 4.5 13.5Z" fill="white"/>
<path d="M8.5 9.5C8.5 8.94772 8.94772 8.5 9.5 8.5C10.0523 8.5 10.5 8.94772 10.5 9.5C10.5 10.0523 10.0523 10.5 9.5 10.5C8.94772 10.5 8.5 10.0523 8.5 9.5Z" fill="white"/>
<path d="M4.5 13.5C4.5 12.9477 4.94772 12.5 5.5 12.5C6.05228 12.5 6.5 12.9477 6.5 13.5C6.5 14.0523 6.05228 14.5 5.5 14.5C4.94772 14.5 4.5 14.0523 4.5 13.5Z" stroke="#DD5400"/>
<path d="M8.5 9.5C8.5 8.94772 8.94772 8.5 9.5 8.5C10.0523 8.5 10.5 8.94772 10.5 9.5C10.5 10.0523 10.0523 10.5 9.5 10.5C8.94772 10.5 8.5 10.0523 8.5 9.5Z" stroke="#DD5400"/>
<path d="M1.5 4.5C1.5 3.94772 1.94772 3.5 2.5 3.5C3.05228 3.5 3.5 3.94772 3.5 4.5C3.5 5.05228 3.05228 5.5 2.5 5.5C1.94772 5.5 1.5 5.05228 1.5 4.5Z" fill="white"/>
<path d="M10.5 4.5C10.5 3.94772 10.9477 3.5 11.5 3.5C12.0523 3.5 12.5 3.94772 12.5 4.5C12.5 5.05228 12.0523 5.5 11.5 5.5C10.9477 5.5 10.5 5.05228 10.5 4.5Z" fill="white"/>
<path d="M6.5 2.5C6.5 1.94772 6.94772 1.5 7.5 1.5C8.05228 1.5 8.5 1.94772 8.5 2.5C8.5 3.05228 8.05228 3.5 7.5 3.5C6.94772 3.5 6.5 3.05228 6.5 2.5Z" fill="white"/>
<path d="M1.5 4.5C1.5 3.94772 1.94772 3.5 2.5 3.5C3.05228 3.5 3.5 3.94772 3.5 4.5C3.5 5.05228 3.05228 5.5 2.5 5.5C1.94772 5.5 1.5 5.05228 1.5 4.5Z" stroke="#1171BE"/>
<path d="M10.5 4.5C10.5 3.94772 10.9477 3.5 11.5 3.5C12.0523 3.5 12.5 3.94772 12.5 4.5C12.5 5.05228 12.0523 5.5 11.5 5.5C10.9477 5.5 10.5 5.05228 10.5 4.5Z" stroke="#1171BE"/>
<path d="M6.5 2.5C6.5 1.94772 6.94772 1.5 7.5 1.5C8.05228 1.5 8.5 1.94772 8.5 2.5C8.5 3.05228 8.05228 3.5 7.5 3.5C6.94772 3.5 6.5 3.05228 6.5 2.5Z" stroke="#1171BE"/>
<path d="M3.5 14.5C3.5 13.5 4.32516 10.5 7.5 10.5C10.6748 10.5 11.5 13.5 11.5 14.5M1 8C1 8 3 5.5 7.5 5.5C12 5.5 14 8 14 8" stroke="var(--mw-icon-glyph-content-gray, #616162)" stroke-linecap="square" stroke-linejoin="round" stroke-dasharray="1 3"/>
<path d="M0.5 12.4999C1.16667 10.6147 3.73333 7.23379 8 7.49993C12.2667 7.76608 13.5 11.5 14.5 13.5" stroke="var(--mw-icon-glyph-content-gray, #616162)" stroke-linecap="round" stroke-linejoin="round"/>
<rect x="0.5" y="0.5" width="14" height="14" rx="1" stroke="var(--mw-icon-border-default-gray, #616161)"/>
</svg>
