<svg width="16" height="16" viewBox="0 0 16 16" fill="none" xmlns="http://www.w3.org/2000/svg">
<rect x="0.5" y="0.5" width="14" height="14" rx="1" fill="var(--mw-icon-background-default-white, #FFFFFF)"/>
<path d="M8.5 2.5C8.5 1.94772 8.94772 1.5 9.5 1.5C10.0523 1.5 10.5 1.94772 10.5 2.5C10.5 3.05228 10.0523 3.5 9.5 3.5C8.94772 3.5 8.5 3.05228 8.5 2.5Z" fill="white"/>
<path d="M4.5 3.5C4.5 2.94772 4.94772 2.5 5.5 2.5C6.05228 2.5 6.5 2.94772 6.5 3.5C6.5 4.05228 6.05228 4.5 5.5 4.5C4.94772 4.5 4.5 4.05228 4.5 3.5Z" fill="white"/>
<path d="M1 2C1 1.44772 1.44772 1 2 1C2.55228 1 3 1.44772 3 2C3 2.55228 2.55228 3 2 3C1.44772 3 1 2.55228 1 2Z" fill="white"/>
<path d="M8.5 2.5C8.5 1.94772 8.94772 1.5 9.5 1.5C10.0523 1.5 10.5 1.94772 10.5 2.5C10.5 3.05228 10.0523 3.5 9.5 3.5C8.94772 3.5 8.5 3.05228 8.5 2.5Z" stroke="#DD5400"/>
<path d="M4.5 3.5C4.5 2.94772 4.94772 2.5 5.5 2.5C6.05228 2.5 6.5 2.94772 6.5 3.5C6.5 4.05228 6.05228 4.5 5.5 4.5C4.94772 4.5 4.5 4.05228 4.5 3.5Z" stroke="#DD5400"/>
<path d="M1 2C1 1.44772 1.44772 1 2 1C2.55228 1 3 1.44772 3 2C3 2.55228 2.55228 3 2 3C1.44772 3 1 2.55228 1 2Z" stroke="#DD5400"/>
<path d="M10.5 9.5C10.5 8.94772 10.9477 8.5 11.5 8.5C12.0523 8.5 12.5 8.94772 12.5 9.5C12.5 10.0523 12.0523 10.5 11.5 10.5C10.9477 10.5 10.5 10.0523 10.5 9.5Z" fill="white"/>
<path d="M11.5 13.5C11.5 12.9477 11.9477 12.5 12.5 12.5C13.0523 12.5 13.5 12.9477 13.5 13.5C13.5 14.0523 13.0523 14.5 12.5 14.5C11.9477 14.5 11.5 14.0523 11.5 13.5Z" fill="white"/>
<path d="M7.5 11.5C7.5 10.9477 7.94772 10.5 8.5 10.5C9.05228 10.5 9.5 10.9477 9.5 11.5C9.5 12.0523 9.05228 12.5 8.5 12.5C7.94772 12.5 7.5 12.0523 7.5 11.5Z" fill="white"/>
<path d="M3.5 13.5C3.5 12.9477 3.94772 12.5 4.5 12.5C5.05228 12.5 5.5 12.9477 5.5 13.5C5.5 14.0523 5.05228 14.5 4.5 14.5C3.94772 14.5 3.5 14.0523 3.5 13.5Z" fill="white"/>
<path d="M10.5 9.5C10.5 8.94772 10.9477 8.5 11.5 8.5C12.0523 8.5 12.5 8.94772 12.5 9.5C12.5 10.0523 12.0523 10.5 11.5 10.5C10.9477 10.5 10.5 10.0523 10.5 9.5Z" stroke="#1171BE"/>
<path d="M11.5 13.5C11.5 12.9477 11.9477 12.5 12.5 12.5C13.0523 12.5 13.5 12.9477 13.5 13.5C13.5 14.0523 13.0523 14.5 12.5 14.5C11.9477 14.5 11.5 14.0523 11.5 13.5Z" stroke="#1171BE"/>
<path d="M7.5 11.5C7.5 10.9477 7.94772 10.5 8.5 10.5C9.05228 10.5 9.5 10.9477 9.5 11.5C9.5 12.0523 9.05228 12.5 8.5 12.5C7.94772 12.5 7.5 12.0523 7.5 11.5Z" stroke="#1171BE"/>
<path d="M3.5 13.5C3.5 12.9477 3.94772 12.5 4.5 12.5C5.05228 12.5 5.5 12.9477 5.5 13.5C5.5 14.0523 5.05228 14.5 4.5 14.5C3.94772 14.5 3.5 14.0523 3.5 13.5Z" stroke="#1171BE"/>
<path d="M0.5 10.5L14.5 4.5" stroke="var(--mw-icon-glyph-content-gray, #616162)" stroke-linecap="round" stroke-linejoin="round"/>
<path d="M0.5 12.5L14.5 6.5M0.5 8.5L14.5 2.5" stroke="var(--mw-icon-glyph-content-gray, #616162)" stroke-linejoin="round" stroke-dasharray="1 3"/>
<rect x="0.5" y="0.5" width="14" height="14" rx="1" stroke="var(--mw-icon-border-default-gray, #616161)"/>
</svg>
