<svg width="16" height="16" viewBox="0 0 16 16" fill="none" xmlns="http://www.w3.org/2000/svg">
<rect x="0.5" y="0.5" width="14" height="14" rx="1" fill="var(--mw-icon-background-default-white, #FFFFFF)"/>
<path d="M8.5 13.5C8.5 12.9477 8.94772 12.5 9.5 12.5C10.0523 12.5 10.5 12.9477 10.5 13.5C10.5 14.0523 10.0523 14.5 9.5 14.5C8.94772 14.5 8.5 14.0523 8.5 13.5Z" fill="white"/>
<path d="M12.5 10.5C12.5 9.94772 12.9477 9.5 13.5 9.5C14.0523 9.5 14.5 9.94772 14.5 10.5C14.5 11.0523 14.0523 11.5 13.5 11.5C12.9477 11.5 12.5 11.0523 12.5 10.5Z" fill="white"/>
<path d="M11.5 4.5C11.5 3.94772 11.9477 3.5 12.5 3.5C13.0523 3.5 13.5 3.94772 13.5 4.5C13.5 5.05228 13.0523 5.5 12.5 5.5C11.9477 5.5 11.5 5.05228 11.5 4.5Z" fill="white"/>
<path d="M8.5 13.5C8.5 12.9477 8.94772 12.5 9.5 12.5C10.0523 12.5 10.5 12.9477 10.5 13.5C10.5 14.0523 10.0523 14.5 9.5 14.5C8.94772 14.5 8.5 14.0523 8.5 13.5Z" stroke="#DD5400"/>
<path d="M12.5 10.5C12.5 9.94772 12.9477 9.5 13.5 9.5C14.0523 9.5 14.5 9.94772 14.5 10.5C14.5 11.0523 14.0523 11.5 13.5 11.5C12.9477 11.5 12.5 11.0523 12.5 10.5Z" stroke="#DD5400"/>
<path d="M11.5 4.5C11.5 3.94772 11.9477 3.5 12.5 3.5C13.0523 3.5 13.5 3.94772 13.5 4.5C13.5 5.05228 13.0523 5.5 12.5 5.5C11.9477 5.5 11.5 5.05228 11.5 4.5Z" stroke="#DD5400"/>
<path d="M1.5 2.5C1.5 1.94772 1.94772 1.5 2.5 1.5C3.05228 1.5 3.5 1.94772 3.5 2.5C3.5 3.05228 3.05228 3.5 2.5 3.5C1.94772 3.5 1.5 3.05228 1.5 2.5Z" fill="white"/>
<path d="M1.5 8.5C1.5 7.94772 1.94772 7.5 2.5 7.5C3.05228 7.5 3.5 7.94772 3.5 8.5C3.5 9.05228 3.05228 9.5 2.5 9.5C1.94772 9.5 1.5 9.05228 1.5 8.5Z" fill="white"/>
<path d="M1.5 2.5C1.5 1.94772 1.94772 1.5 2.5 1.5C3.05228 1.5 3.5 1.94772 3.5 2.5C3.5 3.05228 3.05228 3.5 2.5 3.5C1.94772 3.5 1.5 3.05228 1.5 2.5Z" stroke="#1171BE"/>
<path d="M1.5 8.5C1.5 7.94772 1.94772 7.5 2.5 7.5C3.05228 7.5 3.5 7.94772 3.5 8.5C3.5 9.05228 3.05228 9.5 2.5 9.5C1.94772 9.5 1.5 9.05228 1.5 8.5Z" stroke="#1171BE"/>
<path d="M14.5 2.5C14.5 2.5 4.5 3.33047 4.5 5.5C4.5 8.56818 12.5 5.43182 12.5 8.5C12.5 10 0.5 12.5 0.5 12.5" stroke="var(--mw-icon-glyph-content-gray, #616162)" stroke-linecap="round" stroke-linejoin="round"/>
<rect x="0.5" y="0.5" width="14" height="14" rx="1" stroke="var(--mw-icon-border-default-gray, #616161)"/>
</svg>
