<svg width="16" height="16" viewBox="0 0 16 16" fill="none" xmlns="http://www.w3.org/2000/svg">
<rect x="0.5" y="0.5" width="14" height="14" rx="1" fill="var(--mw-icon-background-default-white, #FFFFFF)"/>
<path d="M3.5 5.5C3.5 4.94772 3.94772 4.5 4.5 4.5C5.05228 4.5 5.5 4.94772 5.5 5.5C5.5 6.05228 5.05228 6.5 4.5 6.5C3.94772 6.5 3.5 6.05228 3.5 5.5Z" fill="white"/>
<path d="M0.5 2.5C0.5 1.94772 0.947715 1.5 1.5 1.5C2.05228 1.5 2.5 1.94772 2.5 2.5C2.5 3.05228 2.05228 3.5 1.5 3.5C0.947715 3.5 0.5 3.05228 0.5 2.5Z" fill="white"/>
<path d="M11.5 2.5C11.5 1.94772 11.9477 1.5 12.5 1.5C13.0523 1.5 13.5 1.94772 13.5 2.5C13.5 3.05228 13.0523 3.5 12.5 3.5C11.9477 3.5 11.5 3.05228 11.5 2.5Z" fill="white"/>
<path d="M3.5 5.5C3.5 4.94772 3.94772 4.5 4.5 4.5C5.05228 4.5 5.5 4.94772 5.5 5.5C5.5 6.05228 5.05228 6.5 4.5 6.5C3.94772 6.5 3.5 6.05228 3.5 5.5Z" stroke="#DD5400"/>
<path d="M0.5 2.5C0.5 1.94772 0.947715 1.5 1.5 1.5C2.05228 1.5 2.5 1.94772 2.5 2.5C2.5 3.05228 2.05228 3.5 1.5 3.5C0.947715 3.5 0.5 3.05228 0.5 2.5Z" stroke="#DD5400"/>
<path d="M11.5 2.5C11.5 1.94772 11.9477 1.5 12.5 1.5C13.0523 1.5 13.5 1.94772 13.5 2.5C13.5 3.05228 13.0523 3.5 12.5 3.5C11.9477 3.5 11.5 3.05228 11.5 2.5Z" stroke="#DD5400"/>
<path d="M4.5 10.5C4.5 9.94772 4.94772 9.5 5.5 9.5C6.05228 9.5 6.5 9.94772 6.5 10.5C6.5 11.0523 6.05228 11.5 5.5 11.5C4.94772 11.5 4.5 11.0523 4.5 10.5Z" fill="white"/>
<path d="M10.5 6.5C10.5 5.94772 10.9477 5.5 11.5 5.5C12.0523 5.5 12.5 5.94772 12.5 6.5C12.5 7.05228 12.0523 7.5 11.5 7.5C10.9477 7.5 10.5 7.05228 10.5 6.5Z" fill="white"/>
<path d="M4.5 10.5C4.5 9.94772 4.94772 9.5 5.5 9.5C6.05228 9.5 6.5 9.94772 6.5 10.5C6.5 11.0523 6.05228 11.5 5.5 11.5C4.94772 11.5 4.5 11.0523 4.5 10.5Z" stroke="#1171BE"/>
<path d="M10.5 6.5C10.5 5.94772 10.9477 5.5 11.5 5.5C12.0523 5.5 12.5 5.94772 12.5 6.5C12.5 7.05228 12.0523 7.5 11.5 7.5C10.9477 7.5 10.5 7.05228 10.5 6.5Z" stroke="#1171BE"/>
<path d="M5.49981 14.5C5.80221 13.5931 2.5 12.0396 2.5 10.5001C2.5 8.50006 5.47837 8.86223 6.5 7.50006C8 5.50008 6.45902 4.72453 8.5 3.50003C10.541 2.27554 12.5 5.50015 14.5 5.50006M8.5 14.5V9.50005C8.5 7.38428 12 8.50005 12.5 9.50005C13 10.5001 10.5 11.8954 10.5 12.5C10.5 13.1047 10.8954 13.8951 11.5 14.5001" stroke="var(--mw-icon-glyph-content-gray, #616162)" stroke-linecap="round" stroke-linejoin="round"/>
<rect x="0.5" y="0.5" width="14" height="14" rx="1" stroke="var(--mw-icon-border-default-gray, #616161)"/>
</svg>
