<svg width="16" height="16" viewBox="0 0 16 16" fill="none" xmlns="http://www.w3.org/2000/svg">
<rect x="0.5" y="0.5" width="14" height="14" rx="1" fill="var(--mw-icon-background-default-white, #FFFFFF)"/>
<path d="M3.5 7.5C3.5 6.94772 3.94772 6.5 4.5 6.5C5.05228 6.5 5.5 6.94772 5.5 7.5C5.5 8.05228 5.05228 8.5 4.5 8.5C3.94772 8.5 3.5 8.05228 3.5 7.5Z" fill="white"/>
<path d="M5.5 3.5C5.5 2.94772 5.94772 2.5 6.5 2.5C7.05228 2.5 7.5 2.94772 7.5 3.5C7.5 4.05228 7.05228 4.5 6.5 4.5C5.94772 4.5 5.5 4.05228 5.5 3.5Z" fill="white"/>
<path d="M1.5 2.5C1.5 1.94772 1.94772 1.5 2.5 1.5C3.05228 1.5 3.5 1.94772 3.5 2.5C3.5 3.05228 3.05228 3.5 2.5 3.5C1.94772 3.5 1.5 3.05228 1.5 2.5Z" fill="white"/>
<path d="M3.5 7.5C3.5 6.94772 3.94772 6.5 4.5 6.5C5.05228 6.5 5.5 6.94772 5.5 7.5C5.5 8.05228 5.05228 8.5 4.5 8.5C3.94772 8.5 3.5 8.05228 3.5 7.5Z" stroke="#1171BE"/>
<path d="M5.5 3.5C5.5 2.94772 5.94772 2.5 6.5 2.5C7.05228 2.5 7.5 2.94772 7.5 3.5C7.5 4.05228 7.05228 4.5 6.5 4.5C5.94772 4.5 5.5 4.05228 5.5 3.5Z" stroke="#1171BE"/>
<path d="M1.5 2.5C1.5 1.94772 1.94772 1.5 2.5 1.5C3.05228 1.5 3.5 1.94772 3.5 2.5C3.5 3.05228 3.05228 3.5 2.5 3.5C1.94772 3.5 1.5 3.05228 1.5 2.5Z" stroke="#1171BE"/>
<path d="M6.5 13.5C6.5 12.9477 6.94772 12.5 7.5 12.5C8.05228 12.5 8.5 12.9477 8.5 13.5C8.5 14.0523 8.05228 14.5 7.5 14.5C6.94772 14.5 6.5 14.0523 6.5 13.5Z" fill="white"/>
<path d="M8.5 9.5C8.5 8.94772 8.94772 8.5 9.5 8.5C10.0523 8.5 10.5 8.94772 10.5 9.5C10.5 10.0523 10.0523 10.5 9.5 10.5C8.94772 10.5 8.5 10.0523 8.5 9.5Z" fill="white"/>
<path d="M10.5 5.5C10.5 4.94772 10.9477 4.5 11.5 4.5C12.0523 4.5 12.5 4.94772 12.5 5.5C12.5 6.05228 12.0523 6.5 11.5 6.5C10.9477 6.5 10.5 6.05228 10.5 5.5Z" fill="white"/>
<path d="M11.5 12.5C11.5 11.9477 11.9477 11.5 12.5 11.5C13.0523 11.5 13.5 11.9477 13.5 12.5C13.5 13.0523 13.0523 13.5 12.5 13.5C11.9477 13.5 11.5 13.0523 11.5 12.5Z" fill="white"/>
<path d="M0.5 12.5C0.5 11.9477 0.947715 11.5 1.5 11.5C2.05228 11.5 2.5 11.9477 2.5 12.5C2.5 13.0523 2.05228 13.5 1.5 13.5C0.947715 13.5 0.5 13.0523 0.5 12.5Z" fill="white"/>
<path d="M6.5 13.5C6.5 12.9477 6.94772 12.5 7.5 12.5C8.05228 12.5 8.5 12.9477 8.5 13.5C8.5 14.0523 8.05228 14.5 7.5 14.5C6.94772 14.5 6.5 14.0523 6.5 13.5Z" stroke="#DD5400"/>
<path d="M8.5 9.5C8.5 8.94772 8.94772 8.5 9.5 8.5C10.0523 8.5 10.5 8.94772 10.5 9.5C10.5 10.0523 10.0523 10.5 9.5 10.5C8.94772 10.5 8.5 10.0523 8.5 9.5Z" stroke="#DD5400"/>
<path d="M10.5 5.5C10.5 4.94772 10.9477 4.5 11.5 4.5C12.0523 4.5 12.5 4.94772 12.5 5.5C12.5 6.05228 12.0523 6.5 11.5 6.5C10.9477 6.5 10.5 6.05228 10.5 5.5Z" stroke="#DD5400"/>
<path d="M11.5 12.5C11.5 11.9477 11.9477 11.5 12.5 11.5C13.0523 11.5 13.5 11.9477 13.5 12.5C13.5 13.0523 13.0523 13.5 12.5 13.5C11.9477 13.5 11.5 13.0523 11.5 12.5Z" stroke="#DD5400"/>
<path d="M0.5 12.5C0.5 11.9477 0.947715 11.5 1.5 11.5C2.05228 11.5 2.5 11.9477 2.5 12.5C2.5 13.0523 2.05228 13.5 1.5 13.5C0.947715 13.5 0.5 13.0523 0.5 12.5Z" stroke="#DD5400"/>
<path d="M0.5 7.5C0.5 7.5 1.95455 11.5 4.5 11.5C7.04545 11.5 7.63636 2.5 10.5 2.5C13.3636 2.5 14.5 5.5 14.5 5.5" stroke="var(--mw-icon-glyph-content-gray, #616162)" stroke-linecap="round" stroke-linejoin="round"/>
<rect x="0.5" y="0.5" width="14" height="14" rx="1" stroke="var(--mw-icon-border-default-gray, #616161)"/>
</svg>
