<svg width="16" height="16" viewBox="0 0 16 16" fill="none" xmlns="http://www.w3.org/2000/svg">
<rect x="0.5" y="0.5" width="14" height="14" rx="1" fill="var(--mw-icon-background-default-white, #FFFFFF)"/>
<path d="M13 2C13 2 4.5 3.33047 4.5 5.5C4.5 8.56818 12.5 5.43182 12.5 8.5C12.5 10 2 13 2 13" stroke="var(--mw-icon-background-default-selection, #B4DEFF)" stroke-width="3" stroke-linecap="round" stroke-linejoin="round"/>
<path d="M14.5 1.5C14.5 1.5 4.5 3.33047 4.5 5.5C4.5 8.56818 12.5 5.43182 12.5 8.5C12.5 10 0.5 13.5 0.5 13.5" stroke="var(--mw-icon-glyph-content-gray, #616162)" stroke-linejoin="round"/>
<path d="M8.5 12.5H10.5V14.5H8.5V12.5Z" fill="white"/>
<path d="M12.5 9.5H14.5V11.5H12.5V9.5Z" fill="white"/>
<path d="M11.5 2.5H13.5V4.5H11.5V2.5Z" fill="white"/>
<path d="M1.5 1.5H3.5V3.5H1.5V1.5Z" fill="white"/>
<path d="M8.5 12.5H10.5V14.5H8.5V12.5Z" stroke="var(--mw-icon-glyph-disabled-gray, #888889)" stroke-linejoin="round"/>
<path d="M12.5 9.5H14.5V11.5H12.5V9.5Z" stroke="var(--mw-icon-glyph-disabled-gray, #888889)" stroke-linejoin="round"/>
<path d="M11.5 2.5H13.5V4.5H11.5V2.5Z" stroke="var(--mw-icon-glyph-disabled-gray, #888889)" stroke-linejoin="round"/>
<path d="M1.5 1.5H3.5V3.5H1.5V1.5Z" stroke="var(--mw-icon-glyph-disabled-gray, #888889)" stroke-linejoin="round"/>
<rect x="2.5" y="8.5" width="2" height="2" fill="var(--mw-icon-glyph-content-dark-gray, #333333)" stroke="var(--mw-icon-glyph-content-dark-gray, #333333)" stroke-linejoin="round"/>
<rect x="0.5" y="0.5" width="14" height="14" rx="1" stroke="var(--mw-icon-border-default-gray, #616161)"/>
</svg>
