<svg width="16" height="16" viewBox="0 0 16 16" fill="none" xmlns="http://www.w3.org/2000/svg">
<path d="M13 4.5L12.5 5.16667L12 4.5H13Z" stroke="var(--mw-icon-object-primary, #616160)" stroke-linecap="round"/>
<path d="M12.5 4.5V2C12.5 1.72386 12.2761 1.5 12 1.5V1.5L10.5 1.5" stroke="var(--mw-icon-object-primary, #616160)" stroke-linecap="square" stroke-linejoin="round"/>
<path d="M2 10.5L2.5 9.83333L3 10.5L2 10.5Z" stroke="var(--mw-icon-object-primary, #616160)" stroke-linecap="round"/>
<path d="M2.5 10.5L2.5 13C2.5 13.2761 2.72386 13.5 3 13.5V13.5L4.5 13.5" stroke="var(--mw-icon-object-primary, #616160)" stroke-linecap="square" stroke-linejoin="round"/>
<rect x="0.5" y="0.5" width="8" height="8" rx="0.5" fill="var(--mw-icon-background-light-yellow, #FFF5BC)" stroke="var(--mw-icon-border-default-blue, #1656A7)"/>
<path d="M1 4.5L8 4.5" stroke="var(--mw-icon-glyph-content-light-blue, #278CDD)"/>
<path d="M4.5 1V8" stroke="var(--mw-icon-glyph-content-light-blue, #278CDD)"/>
<rect x="6.5" y="6.5" width="8" height="8" rx="0.5" fill="var(--mw-icon-background-light-yellow, #FFF5BC)" stroke="var(--mw-icon-border-default-blue, #1656A7)"/>
<path d="M7 10.5L14 10.5" stroke="var(--mw-icon-glyph-content-light-blue, #278CDD)"/>
<path d="M10.5 7V14" stroke="var(--mw-icon-glyph-content-light-blue, #278CDD)"/>
</svg>
