<svg width="17" height="17" viewBox="0 0 17 17" fill="none" xmlns="http://www.w3.org/2000/svg">
<path d="M11 5.5C11.2761 5.5 11.5 5.72386 11.5 6L11.5 7L13.5 8L13.5 6C13.5 4.61929 12.3807 3.5 11 3.5L6.5 3.5L6.5 1L1 4.5L6.5 8L6.5 5.5L11 5.5Z" fill="var(--mw-icon-background-default-selection, #B4DEFF)"/>
<path d="M6.5 1L6.23156 0.578169L7 0.089163L7 1L6.5 1ZM6.5 8L7 8L7 8.91084L6.23156 8.42183L6.5 8ZM6.5 3.5L6.5 4L6 4L6 3.5L6.5 3.5ZM6.5 5.5L6 5.5L6 5L6.5 5L6.5 5.5ZM1 4.5L0.731563 4.92183L0.0686857 4.5L0.731563 4.07817L1 4.5ZM13.5 8L14 8C14 8.17329 13.9103 8.33422 13.7629 8.42533C13.6155 8.51643 13.4314 8.52471 13.2764 8.44721L13.5 8ZM11.5 7L11.2764 7.44721L11 7.30902L11 7L11.5 7ZM11 3.5L11 4L11 3.5ZM13.5 6L14 6L13.5 6ZM11.5 6L11 6L11.5 6ZM11 4L6.5 4L6.5 3L11 3L11 4ZM6 3.5L6 1L7 1L7 3.5L6 3.5ZM6 8L6 5.5L7 5.5L7 8L6 8ZM6.5 5L11 5L11 6L6.5 6L6.5 5ZM6.76844 1.42183L1.26844 4.92183L0.731563 4.07817L6.23156 0.578169L6.76844 1.42183ZM1.26844 4.07817L6.76844 7.57817L6.23156 8.42183L0.731563 4.92183L1.26844 4.07817ZM13 8L13 6L14 6L14 8L13 8ZM11.7236 6.55279L13.7236 7.55279L13.2764 8.44721L11.2764 7.44721L11.7236 6.55279ZM12 6L12 7L11 7L11 6L12 6ZM11 3C12.6569 3 14 4.34315 14 6L13 6C13 4.89543 12.1046 4 11 4L11 3ZM11 5C11.5523 5 12 5.44771 12 6L11 6L11 5Z" fill="var(--mw-icon-border-default-blue, #1656A7)"/>
<path d="M5 10.5C4.72386 10.5 4.5 10.2761 4.5 10L4.5 9L2.5 8L2.5 10C2.5 11.3807 3.61929 12.5 5 12.5L9.5 12.5L9.5 15L15 11.5L9.5 8L9.5 10.5L5 10.5Z" fill="var(--mw-icon-background-default-selection, #B4DEFF)"/>
<path d="M9.5 15L9.76844 15.4218L9 15.9108L9 15L9.5 15ZM9.5 8L9 8L9 7.08916L9.76844 7.57817L9.5 8ZM9.5 12.5L9.5 12L10 12L10 12.5L9.5 12.5ZM9.5 10.5L10 10.5L10 11L9.5 11L9.5 10.5ZM15 11.5L15.2684 11.0782L15.9313 11.5L15.2684 11.9218L15 11.5ZM2.5 8L2 8C2 7.82671 2.08973 7.66578 2.23713 7.57467C2.38454 7.48357 2.56861 7.47529 2.72361 7.55279L2.5 8ZM4.5 9L4.72361 8.55279L5 8.69098L5 9L4.5 9ZM5 12.5L5 12L5 12.5ZM2.5 10L2 10L2.5 10ZM4.5 10L5 10L4.5 10ZM5 12L9.5 12L9.5 13L5 13L5 12ZM10 12.5L10 15L9 15L9 12.5L10 12.5ZM10 8L10 10.5L9 10.5L9 8L10 8ZM9.5 11L5 11L5 10L9.5 10L9.5 11ZM9.23156 14.5782L14.7316 11.0782L15.2684 11.9218L9.76844 15.4218L9.23156 14.5782ZM14.7316 11.9218L9.23156 8.42183L9.76844 7.57817L15.2684 11.0782L14.7316 11.9218ZM3 8L3 10L2 10L2 8L3 8ZM4.27639 9.44721L2.27639 8.44721L2.72361 7.55279L4.72361 8.55279L4.27639 9.44721ZM4 10L4 9L5 9L5 10L4 10ZM5 13C3.34315 13 2 11.6569 2 10L3 10C3 11.1046 3.89543 12 5 12L5 13ZM5 11C4.44772 11 4 10.5523 4 10L5 10L5 11Z" fill="var(--mw-icon-border-default-blue, #1656A7)"/>

</svg>
