<svg width="16" height="17" viewBox="0 0 16 17" fill="none" xmlns="http://www.w3.org/2000/svg">
<path d="M0.5 12.5V2.5C0.5 1.39543 1.39543 0.5 2.5 0.5H12.5C13.6046 0.5 14.5 1.39543 14.5 2.5V12.5C14.5 13.6046 13.6046 14.5 12.5 14.5H2.5C1.39543 14.5 0.5 13.6046 0.5 12.5Z" fill="var(--mw-icon-background-default-white, #FFFFFF)"/>
<path d="M8.5 2.5V5.5H5.5H2.5V2.5H5.5H8.5Z" fill="white"/>
<path d="M5.5 2.5H8.5V5.5H5.5M5.5 2.5V5.5M5.5 2.5H2.5V5.5H5.5" stroke="var(--mw-icon-border-default-gray, #616161)" stroke-linejoin="round"/>
<line x1="3" y1="3.5" x2="5" y2="3.5" stroke="var(--mw-icon-background-default-dark-gray, #A6A6A6)"/>
<line x1="6" y1="3.5" x2="8" y2="3.5" stroke="var(--mw-icon-background-default-dark-gray, #A6A6A6)"/>
<path d="M8.5 5.5V7.5H5.5H2.5V5.5H5.5H8.5Z" fill="white"/>
<path d="M5.5 5.5H8.5V7.5H5.5M5.5 5.5V7.5M5.5 5.5H2.5V7.5H5.5" stroke="var(--mw-icon-border-default-gray, #616161)" stroke-linejoin="round"/>
<path d="M10.5 4.5V7.5H7.5H4.5V4.5H7.5H10.5Z" fill="white"/>
<path d="M7.5 4.5H10.5V7.5H7.5M7.5 4.5V7.5M7.5 4.5H4.5V7.5H7.5" stroke="var(--mw-icon-border-default-gray, #616161)" stroke-linejoin="round"/>
<line x1="5" y1="5.5" x2="7" y2="5.5" stroke="var(--mw-icon-background-default-dark-gray, #A6A6A6)"/>
<line x1="8" y1="5.5" x2="10" y2="5.5" stroke="var(--mw-icon-background-default-dark-gray, #A6A6A6)"/>
<path d="M10.5 7.5V9.5H7.5H4.5V7.5H7.5H10.5Z" fill="white"/>
<path d="M7.5 7.5H10.5V9.5H7.5M7.5 7.5V9.5M7.5 7.5H4.5V9.5H7.5" stroke="var(--mw-icon-border-default-gray, #616161)" stroke-linejoin="round"/>
<ellipse cx="9.5" cy="10.0938" rx="3" ry="3.1875" fill="white" stroke="var(--mw-icon-border-default-gray, #616161)"/>
<path d="M9.5 7.4375C9.91113 7.4375 10.3159 7.54523 10.6785 7.75115C11.0411 7.95706 11.3503 8.25481 11.5787 8.61802C11.8071 8.98122 11.9477 9.39867 11.988 9.83339C12.0283 10.2681 11.967 10.7067 11.8097 11.1103C11.6524 11.5138 11.4038 11.8699 11.086 12.1471C10.7682 12.4242 10.391 12.6137 9.98773 12.699C9.5845 12.7842 9.16771 12.7624 8.77429 12.6356C8.38086 12.5088 8.02294 12.2809 7.73223 11.972L9.5 10.0938L9.5 7.4375Z" fill="var(--mw-icon-background-default-selection, #B4DEFF)"/>
<path d="M9.5 9.03125L9.50012 10.0937L8.5 11.1562" stroke="var(--mw-icon-glyph-content-gray, #616162)" stroke-linecap="square" stroke-linejoin="round"/>
<path d="M0.5 12.5V2.5C0.5 1.39543 1.39543 0.5 2.5 0.5H12.5C13.6046 0.5 14.5 1.39543 14.5 2.5V12.5C14.5 13.6046 13.6046 14.5 12.5 14.5H2.5C1.39543 14.5 0.5 13.6046 0.5 12.5Z" stroke="#B7312C" stroke-linecap="round"/>
</svg>
