<svg width="16" height="16" viewBox="0 0 16 16" fill="none" xmlns="http://www.w3.org/2000/svg">
<path d="M3.5 4.5L3.5 14.5C3.5 15.0523 3.94772 15.5 4.5 15.5L14.5 15.5C15.0523 15.5 15.5 15.0523 15.5 14.5L15.5 4.91421C15.5 4.649 15.3946 4.39464 15.2071 4.20711L12.7929 1.79289C12.6054 1.60536 12.351 1.5 12.0858 1.5L6.5 1.5C4.84314 1.5 3.5 2.84315 3.5 4.5Z" fill="var(--mw-icon-background-default-white, #FFFFFF)" stroke="var(--mw-icon-border-default-gray, #616161)"/>
<path d="M11.5 10.5H13C13.2761 10.5 13.5 10.2761 13.5 10V7C13.5 6.72386 13.7239 6.5 14 6.5H15" stroke="var(--mw-icon-glyph-content-light-blue, #278CDD)"/>
<path d="M14 13H15V14.5C15 14.7761 14.7761 15 14.5 15H14V13Z" fill="var(--mw-icon-background-default-dark-gray, #A6A6A6)"/>
<path d="M15 12.5H14.5C13.9477 12.5 13.5 12.9477 13.5 13.5V15" stroke="var(--mw-icon-border-default-gray, #616161)"/>
<path d="M4.5 15C4.22386 15 4 14.7761 4 14.5V6H9.5V15H4.5Z" fill="var(--mw-icon-background-default-medium-gray, #D9D9D9)"/>
<rect x="8" y="4" width="1" height="2" fill="var(--mw-icon-background-default-dark-gray, #A6A6A6)"/>
<path d="M3.5 3.5H9C9.27614 3.5 9.5 3.72386 9.5 4V8.5C10.6046 8.5 11.5 9.39543 11.5 10.5C11.5 11.6046 10.6046 12.5 9.5 12.5V15.5" stroke="var(--mw-icon-border-default-gray, #616161)" stroke-linecap="square" stroke-linejoin="round"/>
<circle cx="9.5" cy="10.5" r="1.5" fill="white"/>
<path d="M9 9.5L10.5 10.5L9 11.5V9.5Z" fill="var(--mw-icon-glyph-content-gray, #616162)"/>
<path d="M0.5 1C0.5 0.723858 0.723858 0.5 1 0.5H7C7.27614 0.5 7.5 0.723858 7.5 1V8C7.5 8.27614 7.27614 8.5 7 8.5H1C0.723858 8.5 0.5 8.27614 0.5 8V1Z" fill="white" stroke="var(--mw-icon-border-default-gray, #616161)"/>
<path d="M3 4.25C3 4.11193 3.11193 4 3.25 4H5.75C5.88807 4 6 4.11193 6 4.25V6.75C6 6.88807 5.88807 7 5.75 7H3.25C3.11193 7 3 6.88807 3 6.75V4.25Z" fill="#D78825"/>
<path d="M2 5V1L5.5 3L2 5Z" fill="#0076A8"/>
</svg>
