<svg width="16" height="16" viewBox="0 0 16 16" fill="none" xmlns="http://www.w3.org/2000/svg">
<path d="M3.5 3.5H15.5V14.5C15.5 15.0523 15.0523 15.5 14.5 15.5H3.5V3.5Z" fill="var(--mw-icon-background-default-white, #FFFFFF)" stroke="var(--mw-icon-border-default-gray, #616161)"/>
<path d="M11.5 4.5V14.5M7.5 4.5V14.5M4.5 7.49996H14.5M4.5 11.5H14.5" stroke="var(--mw-icon-border-default-gray, #616161)" stroke-linecap="square" stroke-linejoin="round"/>
<path d="M0.5 3.5H3.5V15.5H1.5C0.947715 15.5 0.5 15.0523 0.5 14.5V3.5Z" fill="white" stroke="var(--mw-icon-border-default-gray, #616161)"/>
<path d="M2.5 7.49963H1.5M2.5 11.4996H1.5" stroke="var(--mw-icon-border-default-gray, #616161)" stroke-linecap="square" stroke-linejoin="round"/>
<path d="M0.5 1.5C0.5 0.947715 0.947715 0.5 1.5 0.5H14.5C15.0523 0.5 15.5 0.947715 15.5 1.5V3.5H0.5V1.5Z" fill="var(--mw-icon-background-default-selection, #B4DEFF)" stroke="var(--mw-icon-border-default-blue, #1656A7)" stroke-linejoin="round"/>
<path d="M7.5 1.5V2.5M11.5 1.5V2.5M3.5 1.5V2V2.5" stroke="var(--mw-icon-border-default-blue, #1656A7)" stroke-linecap="square" stroke-linejoin="round"/>
</svg>
