<svg width="16" height="16" viewBox="0 0 16 16" fill="none" xmlns="http://www.w3.org/2000/svg">
<path d="M2.5 2.5H14.5L14.5 13.5C14.5 14.0523 14.0523 14.5 13.5 14.5L2.5 14.5V2.5Z" fill="var(--mw-icon-background-default-white, #FFFFFF)"/>
<path d="M10.5 10.5V6.49996H6.5V10.5H10.5Z" fill="white"/>
<path d="M10.5 3.5V6.49996M10.5 6.49996V10.5M10.5 6.49996H6.5M10.5 6.49996H13.5M10.5 10.5V13.5M10.5 10.5H6.5M10.5 10.5H13.5M6.5 3.5V6.49996M6.5 6.49996V10.5M6.5 6.49996H3.5M6.5 10.5V13.5M6.5 10.5H3.5M2.5 2.5H14.5L14.5 13.5C14.5 14.0523 14.0523 14.5 13.5 14.5L2.5 14.5V2.5Z" stroke="var(--mw-icon-border-default-gray, #616161)" stroke-linecap="square" stroke-linejoin="round"/>
<path d="M0.500001 1.5C0.500001 0.947716 0.947716 0.5 1.5 0.5H13.5C14.0523 0.5 14.5 0.947716 14.5 1.5V2.5H0.500001V1.5Z" fill="var(--mw-icon-background-default-dark-gray, #A6A6A6)"/>
<path d="M1.5 14.5C0.947715 14.5 0.5 14.0523 0.5 13.5L0.500001 1.5C0.500001 0.947716 0.947716 0.5 1.5 0.5L2.5 0.5L2.5 14.5H1.5Z" fill="var(--mw-icon-background-default-dark-gray, #A6A6A6)"/>
<path d="M0.500001 1.5C0.500001 0.947716 0.947716 0.5 1.5 0.5M0.500001 1.5V2.5H14.5V1.5C14.5 0.947716 14.0523 0.5 13.5 0.5H1.5M0.500001 1.5L0.5 13.5C0.5 14.0523 0.947715 14.5 1.5 14.5H2.5L2.5 0.5L1.5 0.5M2.5 6.49998H1.5M2.5 2.49998H1.5M2.5 10.5H1.5M6.5 1.5V2.5M10.5 1V2.5" stroke="var(--mw-icon-border-default-gray, #616161)" stroke-linecap="square"/>
<path d="M10.5 2.5H14.5L14.5 13.5C14.5 14.0523 14.0523 14.5 13.5 14.5L10.5 14.5V2.5Z" fill="var(--mw-icon-background-default-selection, #B4DEFF)"/>
<path d="M10.5 6.49996H14.5M10.5 10.5H14.5M10.5 2.5H14.5L14.5 13.5C14.5 14.0523 14.0523 14.5 13.5 14.5L10.5 14.5V2.5Z" stroke="var(--mw-icon-border-default-blue, #1656A7)" stroke-linecap="square"/>
</svg>
