<svg width="16" height="16" viewBox="0 0 16 16" fill="none" xmlns="http://www.w3.org/2000/svg">
<path d="M0.500001 1.5C0.500001 0.947716 0.947716 0.5 1.5 0.5H14.5C15.0523 0.5 15.5 0.947716 15.5 1.5V3.5H0.500001V1.5Z" fill="var(--mw-icon-background-default-white, #FFFFFF)"/>
<path d="M1.5 15.5C0.947715 15.5 0.5 15.0523 0.5 14.5L0.500001 1.5C0.500001 0.947716 0.947716 0.5 1.5 0.5L3.5 0.5L3.5 15.5H1.5Z" fill="white"/>
<path d="M0.500001 1.5C0.500001 0.947716 0.947716 0.5 1.5 0.5M0.500001 1.5V3.5H15.5V1.5C15.5 0.947716 15.0523 0.5 14.5 0.5H1.5M0.500001 1.5L0.5 14.5C0.5 15.0523 0.947715 15.5 1.5 15.5H3.5L3.5 0.5L1.5 0.5" stroke="var(--mw-icon-border-default-gray, #616161)"/>
<path d="M2.5 7.49998H1.5M2.5 11.5H1.5M7.5 1.5V2.5M11.5 1V2.5" stroke="var(--mw-icon-border-default-gray, #616161)" stroke-linecap="square" stroke-linejoin="round"/>
<path d="M3.5 3.5H15.5L15.5 14.5C15.5 15.0523 15.0523 15.5 14.5 15.5L3.5 15.5V3.5Z" fill="var(--mw-icon-background-default-selection, #B4DEFF)" stroke="var(--mw-icon-border-default-blue, #1656A7)"/>
<path d="M11.5 11.5V7.49996H7.5V11.5H11.5Z" fill="var(--mw-icon-background-default-selection, #B4DEFF)"/>
<path d="M11.5 4.5V14.5M7.5 4.5V14.5M4.5 7.49996H14.5M4.5 11.5H14.5" stroke="var(--mw-icon-border-default-blue, #1656A7)" stroke-linecap="square" stroke-linejoin="round"/>
</svg>
