<svg width="16" height="16" viewBox="0 0 16 16" fill="none" xmlns="http://www.w3.org/2000/svg">
<path d="M14.5 3.5H0.5V14.5C0.5 15.0523 0.947715 15.5 1.5 15.5H13.5C14.0523 15.5 14.5 15.0523 14.5 14.5V3.5Z" fill="var(--mw-icon-background-default-white, #FFFFFF)" stroke="var(--mw-icon-border-default-gray, #616161)" stroke-linecap="round"/>
<path d="M0.5 9.5H6.5V12.5H0.5V9.5Z" fill="var(--mw-icon-background-default-medium-gray, #D9D9D9)"/>
<path d="M0.5 12.5H6.5V15.5H1.5C0.947715 15.5 0.5 15.0523 0.5 14.5V12.5Z" fill="var(--mw-icon-background-default-medium-gray, #D9D9D9)"/>
<path d="M0.5 6.5H6.5V3.5H0.5V6.5Z" fill="var(--mw-icon-background-default-medium-gray, #D9D9D9)"/>
<path d="M0.5 12.5V9.5H6.5V12.5M0.5 12.5H6.5M0.5 12.5V14.5C0.5 15.0523 0.947715 15.5 1.5 15.5H6.5V12.5M6.5 6.5H0.5V3.5H6.5V6.5Z" stroke="var(--mw-icon-glyph-disabled-gray, #888889)"/>
<path d="M14.5 3.5H0.5V14.5C0.5 15.0523 0.947715 15.5 1.5 15.5H13.5C14.0523 15.5 14.5 15.0523 14.5 14.5V3.5Z" stroke="var(--mw-icon-border-default-gray, #616161)" stroke-linecap="round"/>
<path d="M13.5 0.5H1.5C0.947715 0.5 0.5 0.947715 0.5 1.5V3.5H14.5V1.5C14.5 0.947715 14.0523 0.5 13.5 0.5Z" fill="var(--mw-icon-background-default-selection, #B4DEFF)" stroke="var(--mw-icon-border-default-blue, #1656A7)" stroke-linecap="round"/>
<path d="M8.5 5.5H10.5M8.5 9.5H10.5M10.5 7.5H12.5M8.5 13.5H10.5M10.5 11.5H12.5" stroke="var(--mw-icon-glyph-content-gray, #616162)" stroke-linecap="square"/>
</svg>
