<svg width="16" height="16" viewBox="0 0 16 16" fill="none" xmlns="http://www.w3.org/2000/svg">
<path d="M16 13C16 13.5523 15.5523 14 15 14C14.4477 14 14 13.5523 14 13C14 12.4477 14.4477 12 15 12C15.5523 12 16 12.4477 16 13Z" fill="var(--mw-icon-object-primary, #616160)"/>
<path d="M16 10C16 10.5523 15.5523 11 15 11C14.4477 11 14 10.5523 14 10C14 9.44772 14.4477 9 15 9C15.5523 9 16 9.44772 16 10Z" fill="var(--mw-icon-object-primary, #616160)"/>
<path d="M16 7C16 7.55228 15.5523 8 15 8C14.4477 8 14 7.55228 14 7C14 6.44772 14.4477 6 15 6C15.5523 6 16 6.44772 16 7Z" fill="var(--mw-icon-object-primary, #616160)"/>
<path d="M0.5 2.5C0.5 1.94772 0.947715 1.5 1.5 1.5H11.5C12.0523 1.5 12.5 1.94772 12.5 2.5V12.5C12.5 13.0523 12.0523 13.5 11.5 13.5H1.5C0.947715 13.5 0.5 13.0523 0.5 12.5V2.5Z" fill="var(--mw-icon-background-light-yellow, #FFF5BC)" stroke="var(--mw-icon-border-default-blue, #1656A7)"/>
<circle cx="6.5" cy="7.5" r="4" fill="var(--mw-icon-background-default-white, #FFFFFF)" stroke="var(--mw-icon-glyph-content-blue, #1656A8)"/>
<path d="M6.5 5C6.91113 5 7.31591 5.10139 7.67849 5.2952C8.04107 5.489 8.35026 5.76923 8.57867 6.11107C8.80708 6.45291 8.94766 6.84581 8.98796 7.25496C9.02826 7.6641 8.96703 8.07688 8.8097 8.45671C8.65237 8.83654 8.40379 9.17171 8.08598 9.43253C7.76818 9.69334 7.39095 9.87176 6.98773 9.95196C6.5845 10.0322 6.16771 10.0117 5.77429 9.89235C5.38086 9.77301 5.02294 9.55848 4.73223 9.26777L6.5 7.5L6.5 5Z" fill="var(--mw-icon-background-default-selection, #B4DEFF)"/>
<path d="M6.5 5.5V7.5L5 9" stroke="var(--mw-icon-glyph-content-blue, #1656A8)" stroke-linecap="square"/>
</svg>
