<svg width="16" height="16" viewBox="0 0 16 16" fill="none" xmlns="http://www.w3.org/2000/svg">
<path d="M16 13C16 13.5523 15.5523 14 15 14C14.4477 14 14 13.5523 14 13C14 12.4477 14.4477 12 15 12C15.5523 12 16 12.4477 16 13Z" fill="var(--mw-icon-object-primary, #616160)"/>
<path d="M16 10C16 10.5523 15.5523 11 15 11C14.4477 11 14 10.5523 14 10C14 9.44772 14.4477 9 15 9C15.5523 9 16 9.44772 16 10Z" fill="var(--mw-icon-object-primary, #616160)"/>
<path d="M16 7C16 7.55228 15.5523 8 15 8C14.4477 8 14 7.55228 14 7C14 6.44772 14.4477 6 15 6C15.5523 6 16 6.44772 16 7Z" fill="var(--mw-icon-object-primary, #616160)"/>
<path d="M0.5 2.5C0.5 1.94772 0.947715 1.5 1.5 1.5H11.5C12.0523 1.5 12.5 1.94772 12.5 2.5V12.5C12.5 13.0523 12.0523 13.5 11.5 13.5H1.5C0.947715 13.5 0.5 13.0523 0.5 12.5V2.5Z" fill="var(--mw-icon-background-light-yellow, #FFF5BC)" stroke="var(--mw-icon-border-default-blue, #1656A7)"/>
<path d="M2.5 7.5L5 10L10.5 4.5" stroke="var(--mw-icon-glyph-content-blue, #1656A8)" stroke-linecap="round" stroke-linejoin="round"/>
</svg>
