<svg width="16" height="16" viewBox="0 0 16 16" fill="none" xmlns="http://www.w3.org/2000/svg">
<path d="M16 13C16 13.5523 15.5523 14 15 14C14.4477 14 14 13.5523 14 13C14 12.4477 14.4477 12 15 12C15.5523 12 16 12.4477 16 13Z" fill="var(--mw-icon-object-primary, #616160)"/>
<path d="M16 10C16 10.5523 15.5523 11 15 11C14.4477 11 14 10.5523 14 10C14 9.44772 14.4477 9 15 9C15.5523 9 16 9.44772 16 10Z" fill="var(--mw-icon-object-primary, #616160)"/>
<path d="M16 7C16 7.55228 15.5523 8 15 8C14.4477 8 14 7.55228 14 7C14 6.44772 14.4477 6 15 6C15.5523 6 16 6.44772 16 7Z" fill="var(--mw-icon-object-primary, #616160)"/>
<path d="M0.5 2.5C0.5 1.94772 0.947715 1.5 1.5 1.5H11.5C12.0523 1.5 12.5 1.94772 12.5 2.5V12.5C12.5 13.0523 12.0523 13.5 11.5 13.5H1.5C0.947715 13.5 0.5 13.0523 0.5 12.5V2.5Z" fill="var(--mw-icon-background-light-yellow, #FFF5BC)" stroke="var(--mw-icon-border-default-blue, #1656A7)"/>
<path d="M8.2831 3C9.4951 3.30966 10.1011 4.02248 10.1011 5.13848L10.1011 6.05365C10.1011 6.70056 10.4007 7.02402 11 7.02402V7.97598C10.4142 7.97598 10.1146 8.28104 10.1011 8.89116V9.86612C10.1011 10.4333 9.9496 10.8917 9.6466 11.2412C9.3436 11.5907 8.8891 11.8436 8.2831 12L8.0003 11.2596C8.25617 11.1737 8.44975 11.0235 8.58105 10.8089C8.71235 10.5973 8.78137 10.303 8.7881 9.92591L8.7881 8.96014C8.7881 8.26725 9.08942 7.7813 9.69205 7.5023C9.08942 7.22024 8.7881 6.73122 8.7881 6.03526V5.0603C8.77127 4.34287 8.50867 3.90445 8.0003 3.74502L8.2831 3Z" fill="var(--mw-icon-glyph-content-blue, #1656A8)"/>
<path d="M4.7169 12C3.5049 11.6903 2.8989 10.9775 2.8989 9.86152V8.94635C2.8989 8.29944 2.59927 7.97598 2 7.97598V7.02402C2.5858 7.02402 2.88543 6.71896 2.8989 6.10884V5.13388C2.8989 4.56668 3.0504 4.10833 3.3534 3.75881C3.6564 3.4093 4.1109 3.15636 4.7169 3L4.9997 3.74042C4.74383 3.82626 4.55025 3.97649 4.41895 4.19111C4.28765 4.40266 4.21863 4.69699 4.2119 5.07409V6.03986C4.2119 6.73275 3.91058 7.2187 3.30795 7.4977C3.91058 7.77976 4.2119 8.26878 4.2119 8.96474V9.9397C4.22873 10.6571 4.49133 11.0956 4.9997 11.255L4.7169 12Z" fill="var(--mw-icon-glyph-content-blue, #1656A8)"/>
</svg>
