<svg width="16" height="16" viewBox="0 0 16 16" fill="none" xmlns="http://www.w3.org/2000/svg">
<path d="M3.12735 5.07205C1.59659 3.92817 0.376218 2.68897 1.34619 1.40082C2.64899 0.30589 3.89273 1.6404 5.0408 3.16557L9 5.21372L7.08655 7.09354L5.1731 9L3.12735 5.07205Z" fill="var(--mw-icon-background-default-dark-gray, #A6A6A6)" stroke="var(--mw-icon-border-default-gray, #616161)" stroke-linejoin="round"/>
<path d="M10.4279 12.3727C11.5718 13.9034 12.811 15.1238 14.0992 14.1538C15.1941 12.851 13.8596 11.6073 12.3344 10.4592L10.2863 6.5L8.40646 8.41345L6.5 10.3269L10.4279 12.3727Z" fill="var(--mw-icon-background-default-dark-gray, #A6A6A6)" stroke="var(--mw-icon-border-default-gray, #616161)" stroke-linejoin="round"/>
<path d="M4 12L2 14M6 13L5.99994 15M1 9.99702H2.99404M14.5 1.5L12.5 3.5M9.99997 1.00296L10 3M15 5.99995L13 5.99999" stroke="#B7312C" stroke-linecap="round"/>
<rect x="0.5" y="0.5" width="15" height="15" stroke="#B7312C"/>
</svg>
