<svg width="16" height="16" viewBox="0 0 16 16" fill="none" xmlns="http://www.w3.org/2000/svg">
<path d="M5 4.5C2.9 4.5 1.5 6.20974 1.5 8.50385V9.96C1.5 10.2582 1.74177 10.5 2.04 10.5H7.96C8.25823 10.5 8.5 10.2582 8.5 9.96V8.50385C8.5 6.20974 7.1 4.5 5 4.5Z" fill="var(--mw-icon-background-default-white, #FFFFFF)" stroke="var(--mw-icon-glyph-content-mono, #616061)"/>
<circle cx="5" cy="2.5" r="2" fill="white" stroke="var(--mw-icon-glyph-content-mono, #616061)"/>
<path d="M9.5 7.5C6.5 7.5 4.5 9.77965 4.5 12.8385V14.5C4.5 15.0523 4.94772 15.5 5.5 15.5H13.5C14.0523 15.5 14.5 15.0523 14.5 14.5V12.8385C14.5 9.77965 12.5 7.5 9.5 7.5Z" fill="white" stroke="var(--mw-icon-glyph-content-mono, #616061)"/>
<circle cx="9.5" cy="4.5" r="3" fill="white" stroke="var(--mw-icon-glyph-content-mono, #616061)"/>
</svg>
