<svg width="16" height="17" viewBox="0 0 16 17" fill="none" xmlns="http://www.w3.org/2000/svg">
<path d="M0.5 13V3C0.5 1.89543 1.39543 1 2.5 1H12.5C13.6046 1 14.5 1.89543 14.5 3V13C14.5 14.1046 13.6046 15 12.5 15H2.5C1.39543 15 0.5 14.1046 0.5 13Z" fill="var(--mw-icon-background-default-white, #FFFFFF)" stroke="var(--mw-icon-border-default-gray, #616161)" stroke-linecap="round"/>
<path d="M7.5 4H12.5M7.5 8H12.5M7.5 12H12.5" stroke="var(--mw-icon-glyph-content-gray, #616162)" stroke-linecap="square" stroke-linejoin="round"/>
<path d="M2.5 4L3.5 5L5.5 3M2.5 8L3.5 9L5.5 7" stroke="var(--mw-icon-glyph-content-green, #008014)" stroke-linecap="round" stroke-linejoin="round"/>
<path d="M2.5 11L4.5 13M4.5 11L2.5 13" stroke="var(--mw-icon-glyph-content-red, #902623)" stroke-linecap="round"/>
</svg>
