<svg width="16" height="16" viewBox="0 0 16 16" fill="none" xmlns="http://www.w3.org/2000/svg">
<path d="M7.5 10.5V11.5M7.5 11.5H3.5V12.5M7.5 11.5L11.5 11.5V12.5" stroke="var(--mw-icon-object-primary, #616160)" stroke-linecap="square" stroke-linejoin="round"/>
<path d="M0.5 15.5V13.5H6.5V15.5H0.5Z" fill="var(--mw-icon-background-medium-blue, #83CAFF)"/>
<path d="M8.5 15.5V13.5H14.5V15.5H8.5Z" fill="var(--mw-icon-background-medium-blue, #83CAFF)"/>
<path d="M0.5 15.5V13.5H6.5V15.5H0.5Z" stroke="var(--mw-icon-border-default-blue, #1656A7)" stroke-linecap="square" stroke-linejoin="round"/>
<path d="M8.5 15.5V13.5H14.5V15.5H8.5Z" stroke="var(--mw-icon-border-default-blue, #1656A7)" stroke-linecap="square" stroke-linejoin="round"/>
<path d="M1.5 1C1.5 0.723858 1.72386 0.5 2 0.5H13C13.2761 0.5 13.5 0.723858 13.5 1V9C13.5 9.27614 13.2761 9.5 13 9.5H2C1.72386 9.5 1.5 9.27614 1.5 9V1Z" fill="var(--mw-icon-background-default-white, #FFFFFF)" stroke="var(--mw-icon-border-default-gray, #616161)"/>
<path d="M8.5 6.5H11.5M8.5 3.5H11.5" stroke="var(--mw-icon-glyph-content-gray, #616162)" stroke-linecap="square"/>
<path d="M3.5 7.5L5.5 5.5M3.5 5.5L5.5 7.5" stroke="var(--mw-icon-glyph-content-red, #902623)" stroke-linecap="round"/>
<path d="M3.5 2.5L4.5 3.5L6.5 1.5" stroke="var(--mw-icon-glyph-content-green, #008014)" stroke-linecap="round" stroke-linejoin="round"/>
</svg>
