<svg width="16" height="16" viewBox="0 0 16 16" fill="none" xmlns="http://www.w3.org/2000/svg">
<path d="M0.5 4.5C0.5 3.94772 0.947715 3.5 1.5 3.5H14.5C15.0523 3.5 15.5 3.94772 15.5 4.5V7.5V10.5C15.5 11.0523 15.0523 11.5 14.5 11.5H1.5C0.947715 11.5 0.5 11.0523 0.5 10.5V7.5V4.5Z" fill="var(--mw-icon-background-default-light-gray, #F5F5F5)"/>
<rect x="5" y="8" width="1" height="3" fill="#FFAB66"/>
<rect x="3" y="8" width="1" height="3" fill="var(--mw-icon-background-default-selection, #B4DEFF)"/>
<rect x="13" y="4" width="1" height="3" fill="var(--mw-icon-background-red, #FF9D9A)"/>
<path d="M6 4H8V7H6V4Z" fill="#E6BFFF"/>
<path d="M7 8H11V11H7V8Z" fill="#E6BFFF"/>
<path d="M2 4H5V7H2V4Z" fill="var(--mw-icon-background-default-action, #CBFFBE)"/>
<path d="M12 8H13V11H12V8Z" fill="var(--mw-icon-background-default-action, #CBFFBE)"/>
<path d="M15.5 7.5V4.5C15.5 3.94772 15.0523 3.5 14.5 3.5H1.5C0.947715 3.5 0.5 3.94772 0.5 4.5V7.5M15.5 7.5V10.5C15.5 11.0523 15.0523 11.5 14.5 11.5H1.5C0.947715 11.5 0.5 11.0523 0.5 10.5V7.5M15.5 7.5H0.5" stroke="var(--mw-icon-border-default-blue, #1656A7)"/>
</svg>
