<svg width="16" height="16" viewBox="0 0 16 16" fill="none" xmlns="http://www.w3.org/2000/svg">
<path d="M0.5 12.5V2.5C0.5 1.39543 1.39543 0.5 2.5 0.5H12.5C13.6046 0.5 14.5 1.39543 14.5 2.5V12.5C14.5 13.6046 13.6046 14.5 12.5 14.5H2.5C1.39543 14.5 0.5 13.6046 0.5 12.5Z" fill="var(--mw-icon-background-default-white, #FFFFFF)"/>
<path d="M0.5 12.5V2.5C0.5 1.39543 1.39543 0.5 2.5 0.5H12.5C13.6046 0.5 14.5 1.39543 14.5 2.5V12.5C14.5 13.6046 13.6046 14.5 12.5 14.5H2.5C1.39543 14.5 0.5 13.6046 0.5 12.5Z" stroke="#B7312C" stroke-linecap="round"/>
<path fill-rule="evenodd" clip-rule="evenodd" d="M4 5H2V6V10H3V8H4V10H5V5H4ZM4 7V6H3V7H4ZM7 5H6V10H7H8H9V9V8V7H7V5ZM8 9V8H7V9H8ZM13 7H10V8V9V10H11H13V9H11V8H13V7Z" fill="var(--mw-icon-glyph-content-gray, #616162)"/>
</svg>
