<svg width="16" height="16" viewBox="0 0 16 16" fill="none" xmlns="http://www.w3.org/2000/svg">
<rect x="0.5" y="0.5" width="12" height="12" rx="2" fill="var(--mw-icon-background-default-light-gray, #F5F5F5)"/>
<path d="M2.5 12L3 7L9 3" stroke="#6582FD" stroke-linecap="square" stroke-linejoin="round"/>
<circle cx="3" cy="7" r="1.5" fill="#0E00FF"/>
<circle cx="9" cy="3" r="1.5" fill="#0E00FF"/>
<rect x="0.5" y="0.5" width="12" height="12" rx="2" stroke="var(--mw-icon-border-default-gray, #616161)"/>
<path d="M15 15.5C15.2761 15.5 15.5 15.2761 15.5 15L15.5 8C15.5 7.72386 15.2761 7.5 15 7.5L8 7.5C7.72386 7.5 7.5 7.72386 7.5 8L7.5 15C7.5 15.2761 7.72386 15.5 8 15.5L15 15.5Z" fill="var(--mw-icon-background-default-white, #FFFFFF)" stroke="var(--mw-icon-border-default-gray, #616161)" stroke-linejoin="round"/>
<path d="M12.4615 12.9698H10.5348L10.1685 14H9L10.9853 9H12.0037L14 14H12.8315L12.4615 12.9698ZM10.8315 12.1353H12.1648L11.4945 10.2637L10.8315 12.1353Z" fill="var(--mw-icon-glyph-content-gray, #616162)"/>
</svg>
