<svg width="16" height="16" viewBox="0 0 16 16" fill="none" xmlns="http://www.w3.org/2000/svg">
<path fill-rule="evenodd" clip-rule="evenodd" d="M5.94911 4L8.74809 11.8916H7.40458L6.80504 10.0434H3.93659L3.33842 11.8916H2L4.7888 4H5.94911ZM4.28566 8.96477H6.45516L5.36917 5.61692L4.28566 8.96477Z" fill="var(--mw-icon-object-primary, #616160)"/>
<path fill-rule="evenodd" clip-rule="evenodd" d="M12.5999 11.3128C12.5513 11.3693 12.4989 11.4249 12.4427 11.4797C12.2867 11.6314 12.0984 11.7561 11.8779 11.8537C11.6607 11.9512 11.4097 12 11.1247 12C10.7651 12 10.4444 11.9241 10.1628 11.7724C9.88126 11.617 9.66073 11.4092 9.50127 11.1491C9.34181 10.8853 9.26209 10.5872 9.26209 10.2547C9.26209 9.94399 9.31637 9.66938 9.42494 9.43089C9.5369 9.1888 9.69975 8.98645 9.91349 8.82385C10.1306 8.66125 10.3953 8.53839 10.7074 8.45528C11.0195 8.36856 11.3757 8.3252 11.7761 8.3252H12.5598V7.9187C12.5598 7.70912 12.5242 7.52846 12.4529 7.37669C12.3817 7.22493 12.2731 7.1075 12.1272 7.02439C11.9847 6.94128 11.8049 6.89973 11.5878 6.89973C11.3876 6.89973 11.2146 6.93586 11.0687 7.00813C10.9228 7.0804 10.8092 7.17796 10.7277 7.30081C10.6463 7.42367 10.6056 7.56278 10.6056 7.71816H9.38422C9.38422 7.4869 9.43681 7.26287 9.54198 7.04607C9.64716 6.82927 9.79983 6.63595 10 6.46612C10.2002 6.2963 10.4394 6.1626 10.7176 6.06504C10.9958 5.96748 11.3079 5.9187 11.6539 5.9187C12.0679 5.9187 12.4343 5.99277 12.7532 6.14092C13.0755 6.28907 13.3282 6.5131 13.5114 6.81301C13.698 7.1093 13.7913 7.48148 13.7913 7.92954V10.5366C13.7913 10.804 13.8083 11.0443 13.8422 11.2575C13.8796 11.467 13.9321 11.6495 14 11.8049V11.8916H12.743C12.6853 11.7507 12.6395 11.5718 12.6056 11.355C12.6036 11.3409 12.6017 11.3268 12.5999 11.3128ZM12.5598 10.2361C12.5349 10.2883 12.5044 10.3415 12.4682 10.3957C12.3596 10.5547 12.2103 10.6902 12.0204 10.8022C11.8338 10.9106 11.6149 10.9648 11.3639 10.9648C11.1773 10.9648 11.0178 10.9286 10.8855 10.8564C10.7566 10.7841 10.6582 10.6847 10.5903 10.5583C10.5225 10.4282 10.4885 10.2855 10.4885 10.1301C10.4885 9.97471 10.5174 9.83559 10.5751 9.71274C10.6327 9.58988 10.7193 9.48509 10.8346 9.39837C10.95 9.31165 11.0941 9.24661 11.2672 9.20325C11.4402 9.15628 11.6404 9.13279 11.8677 9.13279H12.5598V10.2361Z" fill="var(--mw-icon-object-primary, #616160)"/>
</svg>
