<svg width="16" height="16" viewBox="0 0 16 16" fill="none" xmlns="http://www.w3.org/2000/svg">
<path d="M1.5 5.5H13.5M0.5 1.5C0.5 0.947716 0.947715 0.5 1.5 0.5H13.5C14.0523 0.5 14.5 0.947715 14.5 1.5V13.5C14.5 14.0523 14.0523 14.5 13.5 14.5H1.5C0.947716 14.5 0.5 14.0523 0.5 13.5V1.5Z" stroke="var(--mw-icon-glyph-content-gray, #616162)" stroke-linecap="square"/>
<path d="M10 1H14V5H10V1Z" fill="var(--mw-icon-glyph-content-gray, #616162)"/>
<path d="M12.5 4L11 2H12L14 2L12.5 4Z" fill="var(--mw-icon-background-default-white, #FFFFFF)"/>
<path d="M3 7H4V8H3V7Z" fill="var(--mw-icon-glyph-content-gray, #616162)"/>
<path d="M3 9H4V10H3V9Z" fill="var(--mw-icon-glyph-content-gray, #616162)"/>
<path d="M3 11H4V12H3V11Z" fill="var(--mw-icon-glyph-content-gray, #616162)"/>
<path d="M2.5 2.5V3.5" stroke="var(--mw-icon-glyph-content-gray, #616162)" stroke-linecap="round"/>
<path d="M5.5 7.5H12.5M5.5 9.5H12.5M5.5 11.5H12.5" stroke="var(--mw-icon-glyph-content-gray, #616162)" stroke-linecap="round" stroke-linejoin="round"/>
</svg>
