<svg width="16" height="16" viewBox="0 0 16 16" fill="none" xmlns="http://www.w3.org/2000/svg">
<path d="M0.5 1.5C0.5 0.947716 0.947715 0.5 1.5 0.5H13.5C14.0523 0.5 14.5 0.947715 14.5 1.5V13.5C14.5 14.0523 14.0523 14.5 13.5 14.5H1.5C0.947716 14.5 0.5 14.0523 0.5 13.5V1.5Z" fill="var(--mw-icon-object-secondary, #FFFFFE)" stroke="var(--mw-icon-border-default-gray, #616161)"/>
<path d="M8.5 8.5H10.5M12.5 8.5H10.5M10.5 8.5V12.5" stroke="var(--mw-icon-object-primary, #616160)" stroke-linecap="square" stroke-linejoin="round"/>
<path d="M4.5 6.5L5.5 5.5L6.5 4.5V6.5H4.5Z" fill="var(--mw-icon-glyph-content-mono, #616061)"/>
<path d="M3.5 3.5L5.5 5.5M5.5 5.5L4.5 6.5H6.5V4.5L5.5 5.5Z" stroke="var(--mw-icon-object-primary, #616160)" stroke-linecap="square"/>
</svg>
