<svg width="16" height="16" viewBox="0 0 16 16" fill="none" xmlns="http://www.w3.org/2000/svg">
<path d="M0.5 12.5V2.5C0.5 1.39543 1.39543 0.5 2.5 0.5H12.5C13.6046 0.5 14.5 1.39543 14.5 2.5V12.5C14.5 13.6046 13.6046 14.5 12.5 14.5H2.5C1.39543 14.5 0.5 13.6046 0.5 12.5Z" fill="var(--mw-icon-background-default-white, #FFFFFF)"/>
<rect x="3" y="2" width="2" height="12" fill="#77AC30"/>
<rect x="6" y="7" width="2" height="7" fill="#EDB120"/>
<rect x="9" y="11" width="2" height="3" fill="#A2142F"/>
<path d="M14.5 5.5H0.5V9.5H14.5V5.5Z" stroke="var(--mw-icon-glyph-content-light-blue, #278CDD)"/>
<path d="M0.5 12.5V2.5C0.5 1.39543 1.39543 0.5 2.5 0.5H12.5C13.6046 0.5 14.5 1.39543 14.5 2.5V12.5C14.5 13.6046 13.6046 14.5 12.5 14.5H2.5C1.39543 14.5 0.5 13.6046 0.5 12.5Z" stroke="#3AC831" stroke-linecap="round"/>
</svg>
