<svg width="16" height="16" viewBox="0 0 16 16" fill="none" xmlns="http://www.w3.org/2000/svg">
<rect width="15" height="15" rx="1" transform="matrix(1 0 0 -1 0.5 15.5)" fill="var(--mw-icon-background-default-white, #FFFFFF)"/>
<path d="M0.5 12.5C2.64286 12.5 2.64286 3.5 4.78571 3.5C6.92857 3.5 7.46429 13.5 9.07143 13.5C10.6786 13.5 10.8642 5.5 12.2857 5.5C13.7073 5.5 14.4286 11.5 15.5 11.5" stroke="var(--mw-icon-glyph-disabled-gray, #888889)"/>
<path d="M1 10H3V11H1V10Z" fill="#D95319"/>
<path d="M5 10H7V11H5V10Z" fill="#D95319"/>
<path d="M9 10H11V11H9V10Z" fill="#D95319"/>
<path d="M13 10H15V11H13V10Z" fill="#D95319"/>
<path d="M6.90794 10C6.83849 9.71783 6.76933 9.43067 6.70005 9.14295C6.65722 8.96513 6.61431 8.78695 6.57129 8.60976C6.26645 7.35437 5.95338 6.13805 5.58915 5.23806C5.40617 4.78591 5.22363 4.44843 5.04629 4.23241C4.8638 4.01013 4.75906 4 4.73696 4C4.69596 4 4.59931 4.01501 4.44296 4.19755C4.2846 4.38244 4.12273 4.6763 3.96141 5.07991C3.63973 5.8847 3.37787 6.9719 3.10529 8.10847L3.09902 8.13462C2.94877 8.76114 2.79497 9.40247 2.62618 10H1.50891C1.69855 9.36239 1.87286 8.6376 2.05178 7.89153L2.05805 7.86539C2.32316 6.75992 2.59932 5.6084 2.94938 4.73259C3.12531 4.29245 3.33443 3.88318 3.59763 3.57589C3.86285 3.26624 4.23835 3 4.73696 3C5.25446 3 5.63873 3.30237 5.90522 3.62697C6.17684 3.95782 6.40323 4.40159 6.59965 4.88694C6.99424 5.86195 7.32195 7.14563 7.62417 8.39024C7.6683 8.57196 7.71188 8.75282 7.75506 8.93205C7.84302 9.29709 7.92934 9.65534 8.01526 10H6.90794Z" fill="var(--mw-icon-glyph-content-light-blue, #278CDD)"/>
<path d="M13.9797 10C13.8619 9.66762 13.7453 9.31236 13.6294 8.95921C13.5951 8.85452 13.5608 8.75002 13.5265 8.64635C13.277 7.89112 13.0287 7.17551 12.7616 6.6508C12.6274 6.38727 12.5038 6.2032 12.3959 6.0919C12.367 6.06209 12.3434 6.04158 12.3249 6.02755C12.3094 6.04597 12.2901 6.07134 12.2671 6.10584C12.159 6.26859 12.0439 6.53139 11.9257 6.89441C11.7045 7.57395 11.5118 8.47535 11.3091 9.42375L11.272 9.59727C11.2434 9.73101 11.2145 9.86549 11.1853 10H10.0841C10.1273 9.80365 10.1703 9.60399 10.2134 9.40273L10.2547 9.20974C10.4529 8.28156 10.6553 7.33414 10.8925 6.60559C11.0185 6.21861 11.1656 5.85641 11.3481 5.58166C11.5146 5.33091 11.8145 5 12.2914 5C12.6893 5 12.9916 5.20992 13.1989 5.42373C13.409 5.64055 13.5855 5.92523 13.7377 6.2242C14.0432 6.82449 14.3124 7.60888 14.5585 8.35365C14.5941 8.46165 14.6293 8.56879 14.6641 8.6747C14.8216 9.15439 14.9708 9.6086 15.1189 10H13.9797Z" fill="var(--mw-icon-glyph-content-light-blue, #278CDD)"/>
<rect width="15" height="15" rx="1" transform="matrix(1 0 0 -1 0.5 15.5)" stroke="var(--mw-icon-border-default-gray, #616161)"/>
</svg>
