<svg width="16" height="16" viewBox="0 0 16 16" fill="none" xmlns="http://www.w3.org/2000/svg">
<path d="M6.5 1C6.5 0.723858 6.72386 0.5 7 0.5H9C9.27614 0.5 9.5 0.723858 9.5 1V7.65385L11.2846 6.41835C11.4195 6.32496 11.5 6.17133 11.5 6.00725V1C11.5 0.723858 11.7239 0.5 12 0.5H14C14.2761 0.5 14.5 0.723858 14.5 1V6.00668C14.5 6.17107 14.4192 6.32496 14.2839 6.41829L9.6969 9.58171C9.6003 9.64834 9.53147 9.74582 9.5 9.85596V15C9.5 15.2761 9.27614 15.5 9 15.5H7C6.74112 15.5 6.52819 15.3033 6.50258 15.0511C6.50087 15.0343 6.5 15.0173 6.5 15V12.4927C6.5 12.3287 6.4195 12.175 6.28461 12.0816L1.7154 8.91835C1.5805 8.82496 1.5 8.67133 1.5 8.50725V4C1.5 3.72386 1.72386 3.5 2 3.5H4C4.27614 3.5 4.5 3.72386 4.5 4V8.50725C4.5 8.67133 4.5805 8.82496 4.71539 8.91835L6.5 10.1538V1Z" fill="var(--mw-icon-border-default-green, #008013)" stroke="#013E0A" stroke-linejoin="round"/>
</svg>
