<svg width="16" height="16" viewBox="0 0 16 16" fill="none" xmlns="http://www.w3.org/2000/svg">
<path d="M7.49094 1.26002L5.49978 6.5V14.5H10.4936C11.8627 14.5 13.0585 13.5745 13.3855 12.2451C13.8733 10.2615 14.4998 7.60329 14.4998 7.03333C14.4998 6.18652 13.8133 5.5 12.9665 5.5H9.0998L9.75434 2.04673C9.77327 1.94688 9.78046 1.84516 9.77576 1.74364L9.77024 1.62423C9.74112 0.995102 9.22258 0.5 8.59278 0.5C8.10333 0.5 7.6648 0.802484 7.49094 1.26002Z" fill="var(--mw-icon-glyph-content-gray, #616162)"/>
<path d="M0.5 7C0.5 6.72386 0.723858 6.5 1 6.5H3.5V14.5H1C0.723858 14.5 0.5 14.2761 0.5 14V7Z" fill="var(--mw-icon-glyph-content-mono, #616061)"/>
<path d="M5.49978 6.5L5.03239 6.32239C5.01083 6.37913 4.99978 6.43931 4.99978 6.5H5.49978ZM7.49094 1.26002L7.02355 1.08241V1.08241L7.49094 1.26002ZM9.77024 1.62423L9.27077 1.64734V1.64734L9.77024 1.62423ZM9.77576 1.74364L10.2752 1.72053V1.72052L9.77576 1.74364ZM9.75434 2.04673L9.26309 1.95361V1.95361L9.75434 2.04673ZM9.0998 5.5L8.60855 5.40689C8.58082 5.5532 8.61974 5.70425 8.71473 5.81894C8.80972 5.93362 8.95089 6 9.0998 6V5.5ZM5.49978 14.5H4.99978C4.99978 14.7761 5.22364 15 5.49978 15V14.5ZM13.3855 12.2451L12.8999 12.1256L13.3855 12.2451ZM3.5 6.5H4V6H3.5V6.5ZM3.5 14.5V15H4V14.5H3.5ZM5.96717 6.67761L7.95833 1.43763L7.02355 1.08241L5.03239 6.32239L5.96717 6.67761ZM9.27077 1.64734L9.27629 1.76675L10.2752 1.72052L10.2697 1.60112L9.27077 1.64734ZM9.26309 1.95361L8.60855 5.40689L9.59105 5.59311L10.2456 2.13984L9.26309 1.95361ZM9.0998 6H12.9665V5H9.0998V6ZM10.4936 14H5.49978V15H10.4936V14ZM5.99978 14.5V6.5H4.99978V14.5H5.99978ZM13.9998 7.03333C13.9998 7.12242 13.9704 7.35023 13.9025 7.71863C13.8377 8.07057 13.7456 8.51174 13.6374 9.00112C13.421 9.97917 13.1435 11.1352 12.8999 12.1256L13.871 12.3645C14.1152 11.3714 14.3949 10.2065 14.6138 9.2171C14.7231 8.72273 14.8181 8.2685 14.886 7.89973C14.9509 7.54742 14.9998 7.22922 14.9998 7.03333H13.9998ZM12.9665 6C13.5371 6 13.9998 6.46264 13.9998 7.03333H14.9998C14.9998 5.9104 14.0895 5 12.9665 5V6ZM9.27629 1.76675C9.27919 1.82934 9.27476 1.89205 9.26309 1.95361L10.2456 2.13984C10.2718 2.0017 10.2817 1.86097 10.2752 1.72053L9.27629 1.76675ZM8.59278 1C8.95543 1 9.25401 1.28508 9.27077 1.64734L10.2697 1.60112C10.2282 0.70512 9.48974 0 8.59278 0V1ZM10.4936 15C12.0898 15 13.4883 13.9204 13.871 12.3645L12.8999 12.1256C12.6286 13.2287 11.6356 14 10.4936 14V15ZM7.95833 1.43763C8.05844 1.17417 8.31095 1 8.59278 1V0C7.8957 0 7.27116 0.430795 7.02355 1.08241L7.95833 1.43763ZM1 7H3.5V6H1V7ZM3 6.5V14.5H4V6.5H3ZM3.5 14H1V15H3.5V14ZM1 14V7H0V14H1ZM1 14H1H0C0 14.5523 0.447715 15 1 15V14ZM1 6C0.447715 6 0 6.44772 0 7H1V7V6Z" fill="var(--mw-icon-glyph-content-mono, #616061)"/>
</svg>
