<svg width="16" height="16" viewBox="0 0 16 16" fill="none" xmlns="http://www.w3.org/2000/svg">
<path d="M6.68888 1.31583L4.50006 6.5V14.5H10.3704C11.7099 14.5 12.8875 13.6131 13.2411 12.3212C13.7859 10.3302 14.5 7.61061 14.5 7.03333C14.5 6.18652 13.8135 5.5 12.9667 5.5H8.50006L9.22424 2.06137C9.2473 1.95188 9.25607 1.83986 9.25032 1.72811C9.21494 1.03988 8.6466 0.5 7.95745 0.5H7.9189C7.38219 0.5 6.89765 0.821379 6.68888 1.31583Z" stroke="var(--mw-icon-glyph-content-mono, #616061)" stroke-linejoin="round"/>
<path d="M0.5 7C0.5 6.72386 0.723858 6.5 1 6.5H4.5V14.5L0.999999 14.5C0.723857 14.5 0.5 14.2761 0.5 14V7Z" stroke="var(--mw-icon-glyph-content-mono, #616061)"/>
</svg>
