<svg width="16" height="16" viewBox="0 0 16 16" fill="none" xmlns="http://www.w3.org/2000/svg">
<path d="M7.49094 1.26002L5.49978 6.5V14.5H10.4936C11.8627 14.5 13.0585 13.5745 13.3855 12.2451C13.8733 10.2615 14.4998 7.60329 14.4998 7.03333C14.4998 6.18652 13.8133 5.5 12.9665 5.5H9.0998L9.75434 2.04673C9.77327 1.94688 9.78046 1.84516 9.77576 1.74364L9.77024 1.62423C9.74112 0.995102 9.22258 0.5 8.59278 0.5C8.10333 0.5 7.6648 0.802484 7.49094 1.26002Z" fill="var(--mw-icon-object-primary, #616160)"/>
<path d="M0.5 7C0.5 6.72386 0.723858 6.5 1 6.5H3.5V14.5H1C0.723858 14.5 0.5 14.2761 0.5 14V7Z" fill="var(--mw-icon-object-primary, #616160)"/>
<path d="M7.49094 1.26002L5.49978 6.5V14.5H10.4936C11.8627 14.5 13.0585 13.5745 13.3855 12.2451C13.8733 10.2615 14.4998 7.60329 14.4998 7.03333C14.4998 6.18652 13.8133 5.5 12.9665 5.5H9.0998L9.75434 2.04673C9.77327 1.94688 9.78046 1.84516 9.77576 1.74364L9.77024 1.62423C9.74112 0.995102 9.22258 0.5 8.59278 0.5C8.10333 0.5 7.6648 0.802484 7.49094 1.26002Z" stroke="var(--mw-icon-object-primary, #616160)" stroke-linejoin="round"/>
<path d="M0.5 7C0.5 6.72386 0.723858 6.5 1 6.5H3.5V14.5H1C0.723858 14.5 0.5 14.2761 0.5 14V7Z" stroke="var(--mw-icon-object-primary, #616160)" stroke-linejoin="round"/>
</svg>
