<svg width="16" height="16" viewBox="0 0 16 16" fill="none" xmlns="http://www.w3.org/2000/svg">
<path d="M8.50857 14.74L10.4997 9.50006V1.50006H5.50591C4.13681 1.50006 2.94104 2.42553 2.61406 3.75501C2.12622 5.73852 1.49973 8.39677 1.49973 8.96673C1.49973 9.81354 2.1862 10.5001 3.03301 10.5001H6.89971L6.24517 13.9533C6.22624 14.0532 6.21905 14.1549 6.22375 14.2564L6.22928 14.3758C6.25839 15.005 6.77693 15.5001 7.40673 15.5001C7.89618 15.5001 8.33471 15.1976 8.50857 14.74Z" fill="var(--mw-icon-glyph-content-gray, #616162)"/>
<path d="M15.4995 9.00006C15.4995 9.2762 15.2757 9.50006 14.9995 9.50006H12.4995V1.50007H14.9995C15.2757 1.50007 15.4995 1.72392 15.4995 2.00007V9.00006Z" fill="var(--mw-icon-glyph-content-mono, #616061)"/>
<path d="M10.4997 9.50006L10.9671 9.67767C10.9887 9.62093 10.9997 9.56075 10.9997 9.50006H10.4997ZM8.50857 14.74L8.97596 14.9176V14.9176L8.50857 14.74ZM6.22928 14.3758L6.72874 14.3527V14.3527L6.22928 14.3758ZM6.22375 14.2564L5.72429 14.2795V14.2795L6.22375 14.2564ZM6.24517 13.9533L6.73642 14.0464V14.0464L6.24517 13.9533ZM6.89971 10.5001L7.39096 10.5932C7.4187 10.4469 7.37977 10.2958 7.28478 10.1811C7.18979 10.0664 7.04863 10.0001 6.89971 10.0001V10.5001ZM10.4997 1.50006H10.9997C10.9997 1.22392 10.7759 1.00006 10.4997 1.00006V1.50006ZM2.61406 3.75501L3.09959 3.87442L2.61406 3.75501ZM12.4995 9.50006H11.9995V10.0001H12.4995V9.50006ZM12.4995 1.50007V1.00007H11.9995V1.50007H12.4995ZM10.0323 9.32245L8.04118 14.5624L8.97596 14.9176L10.9671 9.67767L10.0323 9.32245ZM6.72874 14.3527L6.72322 14.2333L5.72429 14.2795L5.72981 14.3989L6.72874 14.3527ZM6.73642 14.0464L7.39096 10.5932L6.40846 10.4069L5.75391 13.8602L6.73642 14.0464ZM6.89971 10.0001H3.03301V11.0001H6.89971V10.0001ZM5.50591 2.00006H10.4997V1.00006H5.50591V2.00006ZM9.99973 1.50006V9.50006H10.9997V1.50006H9.99973ZM1.99973 8.96673C1.99973 8.87764 2.02914 8.64983 2.09698 8.28143C2.16178 7.92949 2.25391 7.48832 2.36216 6.99894C2.5785 6.0209 2.85599 4.86488 3.09959 3.87442L2.12853 3.6356C1.88429 4.62865 1.60462 5.79352 1.38576 6.78296C1.27641 7.27733 1.18142 7.73156 1.11351 8.10033C1.04864 8.45264 0.999731 8.77084 0.999731 8.96673H1.99973ZM3.03301 10.0001C2.46236 10.0001 1.99973 9.53742 1.99973 8.96673H0.999731C0.999731 10.0897 1.91004 11.0001 3.03301 11.0001V10.0001ZM6.72322 14.2333C6.72032 14.1707 6.72475 14.108 6.73642 14.0464L5.75391 13.8602C5.72773 13.9984 5.71779 14.1391 5.72429 14.2795L6.72322 14.2333ZM7.40673 15.0001C7.04408 15.0001 6.7455 14.715 6.72874 14.3527L5.72981 14.3989C5.77127 15.2949 6.50977 16.0001 7.40673 16.0001V15.0001ZM5.50591 1.00006C3.90972 1.00006 2.5112 2.07967 2.12853 3.6356L3.09959 3.87442C3.37087 2.77138 4.3639 2.00006 5.50591 2.00006V1.00006ZM8.04118 14.5624C7.94107 14.8259 7.68856 15.0001 7.40673 15.0001V16.0001C8.10381 16.0001 8.72835 15.5693 8.97596 14.9176L8.04118 14.5624ZM14.9995 9.00006H12.4995V10.0001H14.9995V9.00006ZM12.9995 9.50006V1.50007H11.9995V9.50006H12.9995ZM12.4995 2.00007H14.9995V1.00007H12.4995V2.00007ZM14.9995 2.00007V9.00006H15.9995V2.00007H14.9995ZM14.9995 2.00007H14.9995H15.9995C15.9995 1.44778 15.5518 1.00007 14.9995 1.00007V2.00007ZM14.9995 10.0001C15.5518 10.0001 15.9995 9.55234 15.9995 9.00006H14.9995V9.00006V10.0001Z" fill="var(--mw-icon-glyph-content-mono, #616061)"/>
</svg>
