<svg width="16" height="16" viewBox="0 0 16 16" fill="none" xmlns="http://www.w3.org/2000/svg">
<path d="M9.31088 14.6842L11.4997 9.5V1.5H5.62933C4.28989 1.5 3.11226 2.38689 2.75871 3.67883C2.21386 5.6698 1.49976 8.38939 1.49976 8.96667C1.49976 9.81348 2.18622 10.5 3.03303 10.5H7.4997L6.77552 13.9386C6.75246 14.0481 6.74369 14.1601 6.74944 14.2719C6.78482 14.9601 7.35316 15.5 8.04231 15.5H8.08086C8.61757 15.5 9.10211 15.1786 9.31088 14.6842Z" stroke="var(--mw-icon-object-primary, #616160)" stroke-linejoin="round"/>
<path d="M15.4998 9C15.4998 9.27614 15.2759 9.5 14.9998 9.5H11.4998V1.5L14.9998 1.50001C15.2759 1.50001 15.4998 1.72387 15.4998 2.00001V9Z" stroke="var(--mw-icon-object-primary, #616160)"/>
</svg>
