<svg width="16" height="16" viewBox="0 0 16 16" fill="none" xmlns="http://www.w3.org/2000/svg">
<path d="M0.5 1.5C0.5 0.947716 0.947715 0.5 1.5 0.5H13.5C14.0523 0.5 14.5 0.947715 14.5 1.5V13.5C14.5 14.0523 14.0523 14.5 13.5 14.5H1.5C0.947716 14.5 0.5 14.0523 0.5 13.5V1.5Z" fill="var(--mw-icon-background-default-white, #FFFFFF)"/>
<path d="M0.5 7.5H7.5M7.5 7.5H14.5M7.5 7.5V0.5M7.5 7.5V14.5M1.5 14.5H13.5C14.0523 14.5 14.5 14.0523 14.5 13.5V1.5C14.5 0.947715 14.0523 0.5 13.5 0.5H1.5C0.947715 0.5 0.5 0.947716 0.5 1.5V13.5C0.5 14.0523 0.947716 14.5 1.5 14.5Z" stroke="var(--mw-icon-border-default-gray, #616161)"/>
<path d="M5.5 4C5.5 4.82843 4.82843 5.5 4 5.5C3.17157 5.5 2.5 4.82843 2.5 4C2.5 3.17157 3.17157 2.5 4 2.5C4.82843 2.5 5.5 3.17157 5.5 4ZM12.5 11C12.5 11.8284 11.8284 12.5 11 12.5C10.1716 12.5 9.5 11.8284 9.5 11C9.5 10.1716 10.1716 9.5 11 9.5C11.8284 9.5 12.5 10.1716 12.5 11Z" stroke="var(--mw-icon-glyph-disabled-gray, #888889)"/>
<path d="M12.4167 2.5L10.9583 3.95833M10.9583 3.95833L9.5 5.41667M10.9583 3.95833L9.5 2.5M10.9583 3.95833L12.4167 5.41667M5.41667 9.5L3.95833 10.9583M3.95833 10.9583L2.5 12.4167M3.95833 10.9583L2.5 9.5M3.95833 10.9583L5.41667 12.4167" stroke="var(--mw-icon-glyph-content-gray, #616162)" stroke-linecap="round" stroke-linejoin="round"/>
</svg>
