<svg width="16" height="16" viewBox="0 0 16 16" fill="none" xmlns="http://www.w3.org/2000/svg">
<path d="M0.5 12.5V2.5C0.5 1.39543 1.39543 0.5 2.5 0.5H12.5C13.6046 0.5 14.5 1.39543 14.5 2.5V12.5C14.5 13.6046 13.6046 14.5 12.5 14.5H2.5C1.39543 14.5 0.5 13.6046 0.5 12.5Z" fill="var(--mw-icon-background-default-white, #FFFFFF)"/>
<path d="M0.5 8.5C2 6 3.21768 6.11536 3.5 7C4.03008 8.661 5.20793 11.0571 5.57652 8.23733C6.49297 1.22633 7.81818 3.18113 8.11478 6.54529C8.438 10.2113 9.4416 13.1791 10.0278 10.4159C10.0338 10.3844 10.0399 10.3501 10.046 10.313" stroke="var(--mw-icon-glyph-content-dark-blue, #104280)"/>
<path d="M10.0278 10.4159C10.2403 9.30513 10.5 4.5 12.0928 7.37505C12.6043 8.29822 13.6473 8.9356 14.5 8.23733" stroke="#FF453A"/>
<circle cx="3" cy="4" r="1" fill="var(--mw-icon-glyph-content-dark-blue, #104280)"/>
<circle cx="9" cy="2" r="1" fill="var(--mw-icon-glyph-content-dark-blue, #104280)"/>
<circle cx="5" cy="12" r="1" fill="var(--mw-icon-glyph-content-dark-blue, #104280)"/>
<circle cx="11" cy="13" r="1" fill="var(--mw-icon-glyph-content-dark-blue, #104280)"/>
<path d="M0.5 12.5V2.5C0.5 1.39543 1.39543 0.5 2.5 0.5H12.5C13.6046 0.5 14.5 1.39543 14.5 2.5V12.5C14.5 13.6046 13.6046 14.5 12.5 14.5H2.5C1.39543 14.5 0.5 13.6046 0.5 12.5Z" stroke="#B7312C" stroke-linecap="round"/>
</svg>
