<svg width="16" height="16" viewBox="0 0 16 16" fill="none" xmlns="http://www.w3.org/2000/svg">
<rect x="2.5" y="2.5" width="12" height="12" rx="1" fill="var(--mw-icon-background-default-medium-gray, #D9D9D9)" stroke="var(--mw-icon-border-default-gray, #616161)"/>
<rect x="0.5" y="0.5" width="12" height="12" rx="1" fill="var(--mw-icon-background-default-white, #FFFFFF)"/>
<path d="M0.5 10.5L12.5 5.5" stroke="#DD5400" stroke-linecap="round" stroke-linejoin="round"/>
<path d="M5.5 4.5H7.5V6.5H5.5V4.5Z" stroke="var(--mw-icon-glyph-disabled-gray, #888889)" stroke-linejoin="round"/>
<path d="M4.5 9.5H6.5V11.5H4.5V9.5Z" stroke="var(--mw-icon-glyph-disabled-gray, #888889)" stroke-linejoin="round"/>
<path d="M0.5 7.5H2.5V9.5H0.5V7.5Z" stroke="var(--mw-icon-glyph-disabled-gray, #888889)" stroke-linejoin="round"/>
<path d="M9.5 7.5H11.5V9.5H9.5V7.5Z" stroke="var(--mw-icon-glyph-disabled-gray, #888889)" stroke-linejoin="round"/>
<path d="M9.5 2.5H11.5V4.5H9.5V2.5Z" stroke="var(--mw-icon-glyph-disabled-gray, #888889)" stroke-linejoin="round"/>
<rect x="0.5" y="0.5" width="12" height="12" rx="1" stroke="var(--mw-icon-border-default-gray, #616161)"/>
<circle cx="5.5" cy="5.5" r="5" fill="white" stroke="var(--mw-icon-border-default-gray, #616161)"/>
<path d="M3.02513 7.97487C3.43212 8.38187 3.93321 8.68221 4.484 8.84929C5.0348 9.01637 5.6183 9.04504 6.18282 8.93275C6.74733 8.82046 7.27545 8.57068 7.72038 8.20554C8.1653 7.84039 8.51331 7.37116 8.73358 6.83939C8.95384 6.30763 9.03956 5.72975 8.98315 5.15694C8.92673 4.58413 8.72992 4.03408 8.41014 3.5555C8.09037 3.07693 7.6575 2.6846 7.14989 2.41328C6.64227 2.14195 6.07558 2 5.5 2L5.5 5.5L3.02513 7.97487Z" fill="var(--mw-icon-background-default-selection, #B4DEFF)"/>
<path d="M5.5 2.5V5.49995L3.5 7.5" stroke="var(--mw-icon-glyph-content-gray, #616162)" stroke-linecap="square" stroke-linejoin="round"/>
</svg>
