<svg width="16" height="16" viewBox="0 0 16 16" fill="none" xmlns="http://www.w3.org/2000/svg">
<rect width="14" height="14" fill="var(--mw-icon-background-default-white, #FFFFFF)"/>
<path d="M0.5 10.5H6.5V3.5H13.5" stroke="#0072BD" stroke-linecap="round" stroke-linejoin="round"/>
<rect x="0.5" y="0.5" width="13" height="13" stroke="var(--mw-icon-border-default-gray, #616161)" stroke-linejoin="round"/>
<circle cx="10.5" cy="10.5" r="5" fill="white" stroke="var(--mw-icon-border-default-gray, #616161)"/>
<path d="M8.02513 12.9749C8.43212 13.3819 8.93321 13.6822 9.484 13.8493C10.0348 14.0164 10.6183 14.045 11.1828 13.9327C11.7473 13.8205 12.2754 13.5707 12.7204 13.2055C13.1653 12.8404 13.5133 12.3712 13.7336 11.8394C13.9538 11.3076 14.0396 10.7297 13.9831 10.1569C13.9267 9.58413 13.7299 9.03408 13.4101 8.5555C13.0904 8.07693 12.6575 7.6846 12.1499 7.41328C11.6423 7.14195 11.0756 7 10.5 7L10.5 10.5L8.02513 12.9749Z" fill="var(--mw-icon-background-default-selection, #B4DEFF)"/>
<path d="M11 7.5V7H10V7.5H11ZM10.5 10.4999L10.8536 10.8535C10.9473 10.7597 11 10.6326 11 10.4999H10.5ZM8.14644 12.1465L7.79289 12.5L8.50001 13.2071L8.85356 12.8535L8.14644 12.1465ZM10 7.5V10.4999H11V7.5H10ZM10.1464 10.1464L8.14644 12.1465L8.85356 12.8535L10.8536 10.8535L10.1464 10.1464Z" fill="var(--mw-icon-glyph-content-gray, #616162)"/>
</svg>
