<svg width="16" height="16" viewBox="0 0 16 16" fill="none" xmlns="http://www.w3.org/2000/svg">
<path d="M0.5 14.5V1.5C0.5 0.947715 0.947715 0.5 1.5 0.5H14.5C15.0523 0.5 15.5 0.947715 15.5 1.5V14.5C15.5 15.0523 15.0523 15.5 14.5 15.5H1.5C0.947715 15.5 0.5 15.0523 0.5 14.5Z" fill="var(--mw-icon-background-default-white, #FFFFFF)" stroke="var(--mw-icon-border-default-gray, #616161)" stroke-linejoin="round"/>
<path d="M6.00003 4.99999H12V11H6.00003V4.99999Z" fill="#2E87F7"/>
<path fill-rule="evenodd" clip-rule="evenodd" d="M2.50005 2C2.22391 2 2.00005 2.22386 2.00005 2.5L2 13.5C2 13.7761 2.22386 14 2.5 14H13.5C13.7762 14 14 13.7761 14 13.5V2.99999C14 2.79341 14 2.6295 14 2.49946C14 2.22332 13.7762 2.00001 13.5 2.00001L2.50005 2ZM5.00003 3.99999H13V12H5.00003V3.99999Z" fill="#2E87F7"/>
<path d="M6 7H12V5H6V7Z" fill="#12B1D6"/>
<path d="M6 11H12V9H6V11Z" fill="#12B1D6"/>
<path d="M6 9H12V7H6V9Z" fill="#FEC338"/>
</svg>
