<svg width="16" height="16" viewBox="0 0 16 16" fill="none" xmlns="http://www.w3.org/2000/svg">
<rect x="3.5" y="3.5" width="12" height="12" rx="1" fill="var(--mw-icon-background-default-white, #FFFFFF)"/>
<path d="M3.5 13.5C3.5 13.5 9.5 14.1406 9.5 10C9.5 5.85941 15.5 6.5 15.5 6.5" stroke="var(--mw-icon-glyph-content-gray, #616162)" stroke-linecap="round" stroke-linejoin="round"/>
<path d="M13.5 6.5C13.5 5.94772 13.9477 5.5 14.5 5.5C15.0523 5.5 15.5 5.94772 15.5 6.5C15.5 7.05228 15.0523 7.5 14.5 7.5C13.9477 7.5 13.5 7.05228 13.5 6.5Z" fill="white"/>
<path d="M9.5 6.5C9.5 5.94772 9.94772 5.5 10.5 5.5C11.0523 5.5 11.5 5.94772 11.5 6.5C11.5 7.05228 11.0523 7.5 10.5 7.5C9.94772 7.5 9.5 7.05228 9.5 6.5Z" fill="white"/>
<path d="M4.5 6.5C4.5 5.94772 4.94772 5.5 5.5 5.5C6.05228 5.5 6.5 5.94772 6.5 6.5C6.5 7.05228 6.05228 7.5 5.5 7.5C4.94772 7.5 4.5 7.05228 4.5 6.5Z" fill="white"/>
<path d="M13.5 6.5C13.5 5.94772 13.9477 5.5 14.5 5.5C15.0523 5.5 15.5 5.94772 15.5 6.5C15.5 7.05228 15.0523 7.5 14.5 7.5C13.9477 7.5 13.5 7.05228 13.5 6.5Z" stroke="#DD5400"/>
<path d="M9.5 6.5C9.5 5.94772 9.94772 5.5 10.5 5.5C11.0523 5.5 11.5 5.94772 11.5 6.5C11.5 7.05228 11.0523 7.5 10.5 7.5C9.94772 7.5 9.5 7.05228 9.5 6.5Z" stroke="#DD5400"/>
<path d="M4.5 6.5C4.5 5.94772 4.94772 5.5 5.5 5.5C6.05228 5.5 6.5 5.94772 6.5 6.5C6.5 7.05228 6.05228 7.5 5.5 7.5C4.94772 7.5 4.5 7.05228 4.5 6.5Z" stroke="#DD5400"/>
<path d="M4.5 13.5C4.5 12.9477 4.94772 12.5 5.5 12.5C6.05228 12.5 6.5 12.9477 6.5 13.5C6.5 14.0523 6.05228 14.5 5.5 14.5C4.94772 14.5 4.5 14.0523 4.5 13.5Z" fill="white"/>
<path d="M8.5 13.5C8.5 12.9477 8.94772 12.5 9.5 12.5C10.0523 12.5 10.5 12.9477 10.5 13.5C10.5 14.0523 10.0523 14.5 9.5 14.5C8.94772 14.5 8.5 14.0523 8.5 13.5Z" fill="white"/>
<path d="M13.5 13.5C13.5 12.9477 13.9477 12.5 14.5 12.5C15.0523 12.5 15.5 12.9477 15.5 13.5C15.5 14.0523 15.0523 14.5 14.5 14.5C13.9477 14.5 13.5 14.0523 13.5 13.5Z" fill="white"/>
<path d="M4.5 13.5C4.5 12.9477 4.94772 12.5 5.5 12.5C6.05228 12.5 6.5 12.9477 6.5 13.5C6.5 14.0523 6.05228 14.5 5.5 14.5C4.94772 14.5 4.5 14.0523 4.5 13.5Z" stroke="#1171BE"/>
<path d="M8.5 13.5C8.5 12.9477 8.94772 12.5 9.5 12.5C10.0523 12.5 10.5 12.9477 10.5 13.5C10.5 14.0523 10.0523 14.5 9.5 14.5C8.94772 14.5 8.5 14.0523 8.5 13.5Z" stroke="#1171BE"/>
<path d="M13.5 13.5C13.5 12.9477 13.9477 12.5 14.5 12.5C15.0523 12.5 15.5 12.9477 15.5 13.5C15.5 14.0523 15.0523 14.5 14.5 14.5C13.9477 14.5 13.5 14.0523 13.5 13.5Z" stroke="#1171BE"/>
<rect x="3.5" y="3.5" width="12" height="12" rx="1" stroke="var(--mw-icon-border-default-gray, #616161)"/>
<circle cx="5.5" cy="5.5" r="5" fill="white" stroke="var(--mw-icon-border-default-gray, #616161)"/>
<path d="M3.02513 7.97487C3.43212 8.38187 3.93321 8.68221 4.484 8.84929C5.0348 9.01637 5.6183 9.04504 6.18282 8.93275C6.74733 8.82046 7.27545 8.57068 7.72038 8.20554C8.1653 7.84039 8.51331 7.37116 8.73358 6.83939C8.95384 6.30763 9.03956 5.72975 8.98315 5.15694C8.92673 4.58413 8.72992 4.03408 8.41014 3.5555C8.09037 3.07693 7.6575 2.6846 7.14989 2.41328C6.64227 2.14195 6.07558 2 5.5 2L5.5 5.5L3.02513 7.97487Z" fill="var(--mw-icon-background-default-selection, #B4DEFF)"/>
<path d="M5.5 2.5V5.49995L3.5 7.5" stroke="var(--mw-icon-glyph-content-gray, #616162)" stroke-linecap="square" stroke-linejoin="round"/>
</svg>
