<svg width="16" height="16" viewBox="0 0 16 16" fill="none" xmlns="http://www.w3.org/2000/svg">
<path d="M0.5 3C0.5 2.72386 0.723858 2.5 1 2.5H4.5V12.5H0.5V3Z" fill="var(--mw-icon-background-default-selection, #B4DEFF)" stroke="var(--mw-icon-border-default-blue, #1656A7)" stroke-linejoin="round"/>
<path d="M8.5 3.5H12C12.2761 3.5 12.5 3.72386 12.5 4V12.5H8.5V3.5Z" fill="var(--mw-icon-background-default-action, #CBFFBE)" stroke="var(--mw-icon-border-default-green, #008013)" stroke-linejoin="round"/>
<path d="M4.5 1C4.5 0.723858 4.72386 0.5 5 0.5H8C8.27614 0.5 8.5 0.723858 8.5 1V12.5H4.5V1Z" fill="var(--mw-icon-background-medium-yellow, #FFEF91)" stroke="#674C06"/>
<circle cx="10.5" cy="10.5" r="5" fill="var(--mw-icon-background-default-white, #FFFFFF)" stroke="var(--mw-icon-border-default-gray, #616161)"/>
<path d="M8.02513 12.9749C8.43212 13.3819 8.93321 13.6822 9.484 13.8493C10.0348 14.0164 10.6183 14.045 11.1828 13.9327C11.7473 13.8205 12.2754 13.5707 12.7204 13.2055C13.1653 12.8404 13.5133 12.3712 13.7336 11.8394C13.9538 11.3076 14.0396 10.7297 13.9831 10.1569C13.9267 9.58413 13.7299 9.03408 13.4101 8.5555C13.0904 8.07693 12.6575 7.6846 12.1499 7.41328C11.6423 7.14195 11.0756 7 10.5 7L10.5 10.5L8.02513 12.9749Z" fill="var(--mw-icon-background-default-selection, #B4DEFF)"/>
<path d="M10.5 7.5V10.4999L8.5 12.5" stroke="var(--mw-icon-glyph-content-gray, #616162)" stroke-linecap="square" stroke-linejoin="round"/>
</svg>
