<svg width="16" height="16" viewBox="0 0 16 16" fill="none" xmlns="http://www.w3.org/2000/svg">
<rect x="3.5" y="3.5" width="11" height="11" rx="1" fill="var(--mw-icon-background-default-medium-gray, #D9D9D9)" stroke="var(--mw-icon-border-default-gray, #616161)"/>
<rect x="1.5" y="1.5" width="11" height="11" rx="1" fill="var(--mw-icon-background-default-white, #FFFFFF)"/>
<path d="M6.99985 2.41667C6.99985 1.91041 7.41026 1.5 7.91652 1.5C8.42278 1.5 8.83319 1.91041 8.83319 2.41667C8.83319 2.92293 8.42278 3.33333 7.91652 3.33333C7.41026 3.33333 6.99985 2.92293 6.99985 2.41667Z" fill="white"/>
<path d="M3.33301 3.33334C3.33301 2.82708 3.74341 2.41668 4.24967 2.41668C4.75594 2.41668 5.16634 2.82708 5.16634 3.33334C5.16634 3.83961 4.75594 4.25001 4.24967 4.25001C3.74341 4.25001 3.33301 3.83961 3.33301 3.33334Z" fill="white"/>
<path d="M6.99985 2.41667C6.99985 1.91041 7.41026 1.5 7.91652 1.5C8.42278 1.5 8.83319 1.91041 8.83319 2.41667C8.83319 2.92293 8.42278 3.33333 7.91652 3.33333C7.41026 3.33333 6.99985 2.92293 6.99985 2.41667Z" stroke="#DD5400"/>
<path d="M3.33301 3.33334C3.33301 2.82708 3.74341 2.41668 4.24967 2.41668C4.75594 2.41668 5.16634 2.82708 5.16634 3.33334C5.16634 3.83961 4.75594 4.25001 4.24967 4.25001C3.74341 4.25001 3.33301 3.83961 3.33301 3.33334Z" stroke="#DD5400"/>
<path d="M3.33301 11.5833C3.33301 11.0771 3.74341 10.6667 4.24967 10.6667C4.75594 10.6667 5.16634 11.0771 5.16634 11.5833C5.16634 12.0896 4.75594 12.5 4.24967 12.5C3.74341 12.5 3.33301 12.0896 3.33301 11.5833Z" fill="white"/>
<path d="M7.45801 10.6667C7.45801 10.1604 7.86841 9.75 8.37467 9.75C8.88094 9.75 9.29134 10.1604 9.29134 10.6667C9.29134 11.1729 8.88094 11.5833 8.37467 11.5833C7.86841 11.5833 7.45801 11.1729 7.45801 10.6667Z" fill="white"/>
<path d="M10.6667 7.91667C10.6667 7.41041 11.0771 7 11.5834 7C12.0896 7 12.5 7.41041 12.5 7.91667C12.5 8.42293 12.0896 8.83333 11.5834 8.83333C11.0771 8.83333 10.6667 8.42293 10.6667 7.91667Z" fill="white"/>
<path d="M3.33301 11.5833C3.33301 11.0771 3.74341 10.6667 4.24967 10.6667C4.75594 10.6667 5.16634 11.0771 5.16634 11.5833C5.16634 12.0896 4.75594 12.5 4.24967 12.5C3.74341 12.5 3.33301 12.0896 3.33301 11.5833Z" stroke="#1171BE"/>
<path d="M7.45801 10.6667C7.45801 10.1604 7.86841 9.75 8.37467 9.75C8.88094 9.75 9.29134 10.1604 9.29134 10.6667C9.29134 11.1729 8.88094 11.5833 8.37467 11.5833C7.86841 11.5833 7.45801 11.1729 7.45801 10.6667Z" stroke="#1171BE"/>
<path d="M10.6667 7.91667C10.6667 7.41041 11.0771 7 11.5834 7C12.0896 7 12.5 7.41041 12.5 7.91667C12.5 8.42293 12.0896 8.83333 11.5834 8.83333C11.0771 8.83333 10.6667 8.42293 10.6667 7.91667Z" stroke="#1171BE"/>
<path d="M1.5 8.83333L12.5 4.25" stroke="var(--mw-icon-glyph-content-gray, #616162)" stroke-linecap="round" stroke-linejoin="round"/>
<path d="M1.5 10.6667L12.5 6.08335M1.5 7.00002L12.5 2.41669" stroke="var(--mw-icon-glyph-content-gray, #616162)" stroke-linejoin="round" stroke-dasharray="2 3"/>
<rect x="1.5" y="1.5" width="11" height="11" rx="1" stroke="var(--mw-icon-border-default-gray, #616161)"/>
<circle cx="5.5" cy="5.5" r="5" fill="white" stroke="var(--mw-icon-border-default-gray, #616161)"/>
<path d="M3.02513 7.97487C3.43212 8.38187 3.93321 8.68221 4.484 8.84929C5.0348 9.01637 5.6183 9.04504 6.18282 8.93275C6.74733 8.82046 7.27545 8.57068 7.72038 8.20554C8.1653 7.84039 8.51331 7.37116 8.73358 6.83939C8.95384 6.30763 9.03956 5.72975 8.98315 5.15694C8.92673 4.58413 8.72992 4.03408 8.41014 3.5555C8.09037 3.07693 7.6575 2.6846 7.14989 2.41328C6.64227 2.14195 6.07558 2 5.5 2L5.5 5.5L3.02513 7.97487Z" fill="var(--mw-icon-background-default-selection, #B4DEFF)"/>
<path d="M5.5 2.5V5.49995L3.5 7.5" stroke="var(--mw-icon-glyph-content-gray, #616162)" stroke-linecap="square" stroke-linejoin="round"/>
</svg>
