<svg width="16" height="16" viewBox="0 0 16 16" fill="none" xmlns="http://www.w3.org/2000/svg">
<path d="M0.5 14.5V1.5C0.5 0.947715 0.947715 0.5 1.5 0.5H14.5C15.0523 0.5 15.5 0.947715 15.5 1.5V14.5C15.5 15.0523 15.0523 15.5 14.5 15.5H1.5C0.947715 15.5 0.5 15.0523 0.5 14.5Z" fill="var(--mw-icon-background-default-white, #FFFFFF)" stroke="var(--mw-icon-border-default-gray, #616161)" stroke-linejoin="round"/>
<path d="M2 2.5C2 2.22386 2.22386 2 2.5 2H13.5C13.7761 2 14 2.22386 14 2.5V5H12V3H9V7H6V6H4V4H2V2.5Z" fill="#3E26A8"/>
<path d="M9 8H6V7H4V6H6V7H9V8Z" fill="#4852F4"/>
<path d="M12 3H9V6H14V5H12V3Z" fill="#4852F4"/>
<path d="M6 10H9V8H6V10Z" fill="#2E87F7"/>
<path d="M2 7H4V4H2V7Z" fill="#2E87F7"/>
<path d="M14 7H12V6H14V7Z" fill="#2E87F7"/>
<path d="M6 11H9V10H6V11Z" fill="#12B1D6"/>
<path d="M2 10H4V9H6V7H2V10Z" fill="#12B1D6"/>
<path d="M12 10H14V7H12V6H9V9H12V10Z" fill="#12B1D6"/>
<path d="M4 13H9V11H6V9H4V10H2V12H4V13Z" fill="#ABC739"/>
<path d="M12 11H9V9H12V10H14V12H12V11Z" fill="#ABC739"/>
<path d="M2.5 14C2.22386 14 2 13.7761 2 13.5L2 12H4V13H9V11H12V12H14V13.5C14 13.7761 13.7761 14 13.5 14H2.5Z" fill="#FEC338"/>
</svg>
