<svg width="16" height="16" viewBox="0 0 16 16" fill="none" xmlns="http://www.w3.org/2000/svg">
<path d="M0.5 1.5C0.5 0.947715 0.947715 0.5 1.5 0.5H14.5C15.0523 0.5 15.5 0.947715 15.5 1.5V14.5C15.5 15.0523 15.0523 15.5 14.5 15.5H1.5C0.947715 15.5 0.5 15.0523 0.5 14.5V1.5Z" fill="var(--mw-icon-background-default-white, #FFFFFF)" stroke="var(--mw-icon-border-default-gray, #616161)"/>
<path d="M3.1738 3.50852C2.95135 3.73098 2.84615 4.9605 3.46564 5.57999C3.8841 5.99846 4.42988 6.21229 4.979 6.22168C5.46404 6.22998 5.97726 6.31198 6.31983 6.65456L9.34544 9.68016C9.68802 10.0227 9.77002 10.536 9.77832 11.021C9.78771 11.5701 10.0015 12.1159 10.42 12.5344C11.0395 13.1539 12.269 13.0487 12.4915 12.8262L11.088 11.4227L11.3116 10.3116L12.4227 10.088L13.8262 11.4915C14.0487 11.269 14.1539 10.0395 13.5344 9.42001C13.1159 9.00154 12.5701 8.78771 12.021 8.77832C11.536 8.77002 11.0227 8.68802 10.6802 8.34544L7.65456 5.31984C7.31198 4.97726 7.22998 4.46403 7.22168 3.979C7.21229 3.42988 6.99846 2.8841 6.57999 2.46564C5.9605 1.84615 4.73098 1.95135 4.50852 2.1738L5.91202 3.5773L5.68836 4.68836L4.5773 4.91202L3.1738 3.50852Z" fill="var(--mw-icon-glyph-content-gray, #616162)"/>
<path d="M7.21425 8.14088L12.6956 2.65952L13.7548 2.024C13.8987 1.93765 14.0623 2.10127 13.976 2.24519L13.3405 3.30439L7.85912 8.78575L8.59842 9.52505C8.72434 9.65097 8.72434 9.85513 8.59842 9.98104L8.08711 10.4924C8.0732 10.5063 8.05717 10.5175 8.0395 10.5263C7.76978 10.6604 7.364 10.5706 7.15099 10.7836L4.12348 13.8111C3.87164 14.063 3.46333 14.063 3.2115 13.8111L2.18888 12.7885C1.93704 12.5367 1.93704 12.1284 2.18888 11.8765L5.21639 8.84901C5.4294 8.636 5.33956 8.23022 5.47372 7.9605C5.48251 7.94283 5.49373 7.9268 5.50765 7.91289L6.01896 7.40158C6.14487 7.27566 6.34903 7.27566 6.47495 7.40158L7.21425 8.14088Z" fill="var(--mw-icon-glyph-content-gray, #616162)"/>
</svg>
