<svg width="16" height="16" viewBox="0 0 16 16" fill="none" xmlns="http://www.w3.org/2000/svg">
<path d="M14.5 0.5H1.5C0.947715 0.5 0.5 0.947716 0.5 1.5V13.5C0.5 14.0523 0.947715 14.5 1.5 14.5H14.5C15.0523 14.5 15.5 14.0523 15.5 13.5V1.5C15.5 0.947715 15.0523 0.5 14.5 0.5Z" fill="var(--mw-icon-background-default-white, #FFFFFF)" stroke="var(--mw-icon-border-default-gray, #616161)" stroke-linecap="round"/>
<path d="M3.5 5L3.5 14" stroke="var(--mw-icon-glyph-disabled-gray, #888889)"/>
<path d="M12.5 5L12.5 14" stroke="var(--mw-icon-glyph-disabled-gray, #888889)"/>
<path d="M15 4.5L1 4.5" stroke="var(--mw-icon-glyph-disabled-gray, #888889)"/>
<path d="M2.5 11.5L2.5 8.5L4.5 8.5L4.5 11.5H2.5Z" fill="var(--mw-icon-background-default-selection, #B4DEFF)" stroke="var(--mw-icon-glyph-content-blue, #1656A8)" stroke-linejoin="round"/>
<path d="M11.5 11.5L11.5 8.5L13.5 8.5L13.5 11.5H11.5Z" fill="var(--mw-icon-background-default-selection, #B4DEFF)" stroke="var(--mw-icon-glyph-content-blue, #1656A8)" stroke-linejoin="round"/>
<path d="M6.5 3.5L9.5 3.5V5.5H6.5L6.5 3.5Z" fill="var(--mw-icon-background-default-selection, #B4DEFF)" stroke="var(--mw-icon-glyph-content-blue, #1656A8)" stroke-linejoin="round"/>
</svg>
