<svg width="16" height="16" viewBox="0 0 16 16" fill="none" xmlns="http://www.w3.org/2000/svg">
<path d="M15.5 14.5C15.5 15 15 15.5 14.5 15.5C14 15.5 13.5 15 13.5 14.5C13.5 14 14.5 12.5 14.5 12.5C14.5 12.5 15.5 14 15.5 14.5Z" stroke="var(--mw-icon-glyph-content-mono, #616061)"/>
<path d="M6.5 9.5L10.5 5.5L12.5 7.5M6.5 9.5L5.5 10.5L9.5 14.5L12.5 11.5L15.5 10.5L14.5 9.5M6.5 9.5H14.5M14.5 9.5L12.5 7.5M12.5 7.5L11.5 8.5M12.5 7.5L14.5 5.5" stroke="var(--mw-icon-glyph-content-mono, #616061)" stroke-linecap="round" stroke-linejoin="round"/>
<path d="M5.5 12.5H0.5V0.5H12.5V5.5" stroke="var(--mw-icon-glyph-content-mono, #616061)" stroke-linecap="round" stroke-linejoin="round" stroke-dasharray="2 2"/>
</svg>
