<svg width="16" height="16" viewBox="0 0 16 16" fill="none" xmlns="http://www.w3.org/2000/svg">
<path d="M0.5 12.5V2.5C0.5 1.39543 1.39543 0.5 2.5 0.5H12.5C13.6046 0.5 14.5 1.39543 14.5 2.5V12.5C14.5 13.6046 13.6046 14.5 12.5 14.5H2.5C1.39543 14.5 0.5 13.6046 0.5 12.5Z" fill="#00A3A3"/>
<path d="M11.5833 0.5H3.41667C1.80584 0.5 0.5 1.80584 0.5 3.41667V11.5833C0.5 13.1942 1.80584 14.5 3.41667 14.5H11.5833C13.1942 14.5 14.5 13.1942 14.5 11.5833V3.41667C14.5 1.80584 13.1942 0.5 11.5833 0.5Z" fill="#00A3A3"/>
<path d="M2.35218 10.0059C2.14456 10.4031 2.07564 10.7794 1.99998 11.2963C1.3741 15.5721 14.813 8.57744 13 12.5001C12.7046 13.1392 11.5 14.5001 11.5 14.5001" stroke="var(--mw-icon-background-default-white, white)" stroke-miterlimit="10"/>
<path d="M1.33333 7.7766H1.14583H1V8.16667L1.51064 8.28723L2.02128 8.54255L2.2766 8.71277L2.02128 9.16667L2.33333 9.5L2.78723 9.22341L2.95745 9.39362L3.21277 10.0745L3.33333 10.5H3.55319H3.7234V10.1667V9.83333V9.64894V9.32292V9.05319V8.71277V8.54255L5.59575 7.01064L6.10638 7.52128L6.44681 8.03192L7.46809 9.73404L7.66667 9.83333L7.84896 9.64894L8 9.5L7.97872 9.39362L7.66667 7.8617L7.33333 6.5L7.04255 5.56383L8.06383 4.45745L8.48936 3.94681L8.74468 3.60638C8.80324 3.51711 8.82979 3.43617 8.82979 3.43617L8.91489 3.26596L9 2.92553V2.75532L8.91489 2.67021L8.82979 2.58511L8.65958 2.5H8.48936H8.31915L8.14894 2.58511L7.97872 2.67021L7.80851 2.75532L7.55319 2.92553L6.95745 3.43617L5.85106 4.54255L4.91489 4.20213L3.89362 3.94681L3.21277 3.7766L2.10638 3.52128H2.02128L1.93617 3.60638L1.85106 3.69149L1.76596 3.7766V3.94681L3.38298 4.96809L3.89362 5.30851L4.57447 5.90426L4.48936 5.98936L2.95745 7.7766H2.78723H2.44681H2.10638H1.85106H1.66667H1.51064H1.33333Z" fill="var(--mw-icon-background-default-white, white)"/>
<path d="M11.647 2.08519C12.157 2.22183 12.6106 2.51641 12.9429 2.9267C13.2751 3.33699 13.4689 3.84194 13.4966 4.36916C13.5242 4.89639 13.3842 5.41882 13.0967 5.8616C12.8091 6.30437 12.3888 6.64475 11.8959 6.83395" stroke="var(--mw-icon-background-default-white, white)" stroke-linecap="round"/>
<path d="M10.6339 3.14054C10.8846 3.25745 11.0981 3.44141 11.2508 3.6721C11.4035 3.90278 11.4894 4.17119 11.4991 4.44765C11.5087 4.72412 11.4418 4.99787 11.3055 5.23864C11.1693 5.47941 10.9692 5.67782 10.7272 5.81193" stroke="var(--mw-icon-background-default-white, white)" stroke-linecap="round"/>
<path d="M0.5 12.5V2.5C0.5 1.39543 1.39543 0.5 2.5 0.5H12.5C13.6046 0.5 14.5 1.39543 14.5 2.5V12.5C14.5 13.6046 13.6046 14.5 12.5 14.5H2.5C1.39543 14.5 0.5 13.6046 0.5 12.5Z" stroke="#02555C" stroke-linecap="round"/>

</svg>
