<svg width="16" height="16" viewBox="0 0 16 16" fill="none" xmlns="http://www.w3.org/2000/svg">
<path d="M0.5 14.5H14.5V7.5V0.5H0.5V7.5V14.5Z" fill="var(--mw-icon-background-default-white, #FFFFFF)"/>
<path d="M0.5 5.5H14.5M0.5 10.5H14.5" stroke="var(--mw-icon-glyph-content-gray, #616162)" stroke-linecap="round" stroke-linejoin="round"/>
<path d="M1 13H2V14H1V13Z" fill="#DD5400"/>
<path d="M4 13H5V14H4V13Z" fill="#DD5400"/>
<path d="M7 13H8V14H7V13Z" fill="#DD5400"/>
<path d="M10 12H11V13H10V12Z" fill="#DD5400"/>
<path d="M13 11H14V12H13V11Z" fill="#DD5400"/>
<path d="M0.5 7.5H3.5L4.5 8.5L5.5 7.5H8.5L9.5 8.5H11.5L12.5 7.5H14.5" stroke="#1171BE" stroke-linecap="round" stroke-linejoin="round"/>
<path d="M0.5 2.5H4.5L8.5 3.5L10.5 2.5L12.5 3.5H14.5" stroke="#1171BE" stroke-linecap="round" stroke-linejoin="round"/>
<rect x="0.5" y="0.5" width="14" height="14" rx="1" stroke="var(--mw-icon-border-default-gray, #616161)"/>
</svg>
