<svg width="16" height="16" viewBox="0 0 16 16" fill="none" xmlns="http://www.w3.org/2000/svg">
<path d="M0.5 12.5V2.5C0.5 1.39543 1.39543 0.5 2.5 0.5H12.5C13.6046 0.5 14.5 1.39543 14.5 2.5V12.5C14.5 13.6046 13.6046 14.5 12.5 14.5H2.5C1.39543 14.5 0.5 13.6046 0.5 12.5Z" fill="#00A3A3"/>
<path d="M6 3L7.5 4.5L8.5 3.5L7 2L6 3Z" fill="var(--mw-icon-background-default-white, #FFFFFF)"/>
<path d="M11 5.5C11 6.32843 10.3284 7 9.5 7C8.67157 7 8 6.32843 8 5.5C8 4.67157 8.67157 4 9.5 4C10.3284 4 11 4.67157 11 5.5Z" fill="white"/>
<path d="M10.5 7.5L12 9L13 8L11.5 6.5L10.5 7.5Z" fill="white"/>
<path d="M4.5 8.5C4.5 10 5.5 10.5 6.5 10.5" stroke="var(--mw-icon-background-default-white, #FFFFFF)" stroke-linecap="square"/>
<path d="M2.5 8.5C2.5 11 4 12.5 6.5 12.5" stroke="white" stroke-linecap="square"/>
<path d="M10.5 13.5C10.5 9 6 4.5 1.5 4.5" stroke="white" stroke-linecap="square" stroke-dasharray="2 2"/>
<path d="M0.5 12.5V2.5C0.5 1.39543 1.39543 0.5 2.5 0.5H12.5C13.6046 0.5 14.5 1.39543 14.5 2.5V12.5C14.5 13.6046 13.6046 14.5 12.5 14.5H2.5C1.39543 14.5 0.5 13.6046 0.5 12.5Z" stroke="#02555C" stroke-linecap="round"/>
</svg>
