<svg width="16" height="16" viewBox="0 0 16 16" fill="none" xmlns="http://www.w3.org/2000/svg">
<path d="M10.5 0.5H1.5C0.947715 0.5 0.5 0.947715 0.5 1.5V10.5C0.5 11.0523 0.947715 11.5 1.5 11.5H10.5C11.0523 11.5 11.5 11.0523 11.5 10.5V1.5C11.5 0.947715 11.0523 0.5 10.5 0.5Z" fill="var(--mw-icon-background-default-white, #FFFFFF)" stroke="var(--mw-icon-border-default-gray, #616161)" stroke-linecap="round"/>
<path d="M2.5 2.5H4.5M4.5 4.5H6.5M2.5 6.5H4.5" stroke="var(--mw-icon-glyph-content-gray, #616162)" stroke-linecap="square"/>
<rect x="1" y="3" width="10" height="3" fill="var(--mw-icon-background-default-selection, #B4DEFF)"/>
<path d="M4.5 4.5H6.5" stroke="var(--mw-icon-glyph-content-yellow, #674C07)" stroke-linecap="square"/>
<path d="M4.5 11.5V7.5H8.5V4.5L15 9.5L8.5 14.5V11.5H4.5Z" fill="var(--mw-icon-background-default-action, #CBFFBE)"/>
<path d="M4.5 11.5V7.5H8.5V4.5L15 9.5L8.5 14.5V11.5H4.5Z" stroke="var(--mw-icon-glyph-content-green, #008014)"/>
</svg>
