<svg width="16" height="16" viewBox="0 0 16 16" fill="none" xmlns="http://www.w3.org/2000/svg">
<path d="M0.5 1.5C0.5 0.947716 0.947715 0.5 1.5 0.5H13.5C14.0523 0.5 14.5 0.947715 14.5 1.5V13.5C14.5 14.0523 14.0523 14.5 13.5 14.5H1.5C0.947716 14.5 0.5 14.0523 0.5 13.5V1.5Z" fill="var(--mw-icon-background-default-light-gray, #F5F5F5)" stroke="var(--mw-icon-border-default-gray, #616161)"/>
<path d="M4.5 5V7.5M8 11.5H5.5C4.94772 11.5 4.5 11.0523 4.5 10.5V7.5M4.5 7.5H8" stroke="var(--mw-icon-background-default-dark-gray, #A6A6A6)"/>
<path d="M3 2.5H5.5V3.5M5.5 3.5V4.5H3.5V4L5.5 3.5ZM9.5 6.5H11.5V8.5H9.5V6.5ZM9.5 6.5V4M12 10.5H10C9.72386 10.5 9.5 10.7239 9.5 11V12C9.5 12.2761 9.72386 12.5 10 12.5H12" stroke="var(--mw-icon-glyph-content-gray, #616162)" stroke-linejoin="round"/>
</svg>
