<svg width="16" height="16" viewBox="0 0 16 16" fill="none" xmlns="http://www.w3.org/2000/svg">
<path d="M15 1H7V15H15V1Z" fill="var(--mw-icon-background-default-white, #FFFFFF)"/>
<path d="M15.5 8.8736C14.3208 12.8003 13.2494 12.3107 12.1225 7.49367C10.8768 2.16878 9.63106 2.16878 8.38529 7.49367C7.80776 9.96247 7.23017 11.2867 6.6526 11.4662M6.6526 11.4662C6.60173 11.482 6.55087 11.4889 6.5 11.487L6.6526 11.4662Z" stroke="#0072BD"/>
<path d="M1 15H6V8V1H1V8V15Z" fill="white"/>
<path d="M6 16H7V1H6V16Z" fill="var(--mw-icon-glyph-content-gray, #616162)"/>
<path d="M6 7V8H3V7H6Z" fill="var(--mw-icon-glyph-content-gray, #616162)"/>
<path d="M3 10L1 7.5L3 5V10Z" fill="var(--mw-icon-glyph-content-gray, #616162)"/>
<path d="M0.5 2.5C0.5 1.39543 1.39543 0.5 2.5 0.5H13.5C14.6046 0.5 15.5 1.39543 15.5 2.5V13.5C15.5 14.6046 14.6046 15.5 13.5 15.5H2.5C1.39543 15.5 0.5 14.6046 0.5 13.5V2.5Z" stroke="var(--mw-icon-border-default-gray, #616161)" stroke-linejoin="round"/>
</svg>
