<svg width="16" height="16" viewBox="0 0 16 16" fill="none" xmlns="http://www.w3.org/2000/svg">
<path d="M0.5 12.5V2.5C0.5 1.39543 1.39543 0.5 2.5 0.5H12.5C13.6046 0.5 14.5 1.39543 14.5 2.5V12.5C14.5 13.6046 13.6046 14.5 12.5 14.5H2.5C1.39543 14.5 0.5 13.6046 0.5 12.5Z" fill="var(--mw-icon-background-default-white, #FFFFFF)"/>
<path d="M4.5 12.5C5.3 12.5 6.5 10.8137 6.5 7.5C6.5 4.18629 5.39998 2.5 4.59998 2.5H10.5C10.5 2.5 9 4.1 9 7.5C9 10.9 10.5 12.5 10.5 12.5H4.5Z" fill="var(--mw-icon-background-default-selection, #B4DEFF)"/>
<path d="M4.5 12C4.22386 12 4 12.2239 4 12.5C4 12.7761 4.22386 13 4.5 13V12ZM4.59998 2C4.32383 2 4.09998 2.22386 4.09998 2.5C4.09998 2.77614 4.32383 3 4.59998 3V2ZM10.5 2.5L10.8648 2.84197C11.0011 2.69657 11.038 2.48411 10.9588 2.30124C10.8796 2.11836 10.6993 2 10.5 2V2.5ZM10.5 12.5V13C10.6993 13 10.8796 12.8816 10.9588 12.6988C11.038 12.5159 11.0011 12.3034 10.8648 12.158L10.5 12.5ZM6 7.5C6 9.10056 5.70964 10.2732 5.34899 11.0268C5.16817 11.4046 4.9767 11.6626 4.80896 11.8191C4.63488 11.9815 4.5261 12 4.5 12V13C4.8739 13 5.21512 12.8077 5.49104 12.5504C5.7733 12.2871 6.03183 11.9165 6.25101 11.4585C6.69036 10.5405 7 9.21314 7 7.5H6ZM4.59998 3C4.62244 3 4.72286 3.01516 4.88562 3.17357C5.04362 3.32734 5.22389 3.58336 5.3938 3.96204C5.7327 4.71735 6 5.89361 6 7.5H7C7 5.79268 6.71729 4.46894 6.30617 3.55268C6.10108 3.09558 5.85635 2.72291 5.58309 2.45695C5.31459 2.19563 4.97751 2 4.59998 2V3ZM4.59998 3H10.5V2H4.59998V3ZM10.5 12H4.5V13H10.5V12ZM10.5 2.5C10.1352 2.15803 10.135 2.15822 10.1349 2.15843C10.1348 2.1585 10.1346 2.15871 10.1345 2.15886C10.1342 2.15916 10.1339 2.15949 10.1335 2.15984C10.1329 2.16055 10.1321 2.16135 10.1313 2.16226C10.1296 2.16407 10.1276 2.16628 10.1252 2.1689C10.1205 2.17413 10.1144 2.18098 10.107 2.18944C10.0921 2.20638 10.0722 2.2298 10.0478 2.25975C9.999 2.31967 9.93258 2.40578 9.85453 2.51852C9.69843 2.744 9.49572 3.07612 9.29482 3.5181C8.89227 4.4037 8.5 5.72397 8.5 7.5H9.5C9.5 5.87603 9.85773 4.6963 10.2052 3.9319C10.3793 3.54888 10.5516 3.2685 10.6767 3.08773C10.7393 2.99734 10.7901 2.93189 10.8233 2.89103C10.84 2.8706 10.8522 2.85632 10.8594 2.84815C10.8629 2.84407 10.8652 2.84152 10.8662 2.84049C10.8666 2.83998 10.8667 2.83984 10.8665 2.84009C10.8664 2.84021 10.8662 2.84043 10.8659 2.84074C10.8658 2.8409 10.8656 2.84108 10.8654 2.84129C10.8653 2.84139 10.8652 2.84156 10.8651 2.84161C10.8649 2.84179 10.8648 2.84197 10.5 2.5ZM8.5 7.5C8.5 9.27603 8.89227 10.5963 9.29482 11.4819C9.49572 11.9239 9.69843 12.256 9.85453 12.4815C9.93258 12.5942 9.999 12.6803 10.0478 12.7402C10.0722 12.7702 10.0921 12.7936 10.107 12.8106C10.1144 12.819 10.1205 12.8259 10.1252 12.8311C10.1276 12.8337 10.1296 12.8359 10.1313 12.8377C10.1321 12.8386 10.1329 12.8395 10.1335 12.8402C10.1339 12.8405 10.1342 12.8408 10.1345 12.8411C10.1346 12.8413 10.1348 12.8415 10.1349 12.8416C10.135 12.8418 10.1352 12.842 10.5 12.5C10.8648 12.158 10.8649 12.1582 10.8651 12.1584C10.8652 12.1584 10.8653 12.1586 10.8654 12.1587C10.8656 12.1589 10.8658 12.1591 10.8659 12.1593C10.8662 12.1596 10.8664 12.1598 10.8665 12.1599C10.8667 12.1602 10.8666 12.16 10.8662 12.1595C10.8652 12.1585 10.8629 12.1559 10.8594 12.1518C10.8522 12.1437 10.84 12.1294 10.8233 12.109C10.7901 12.0681 10.7393 12.0027 10.6767 11.9123C10.5516 11.7315 10.3793 11.4511 10.2052 11.0681C9.85773 10.3037 9.5 9.12397 9.5 7.5H8.5Z" fill="var(--mw-icon-glyph-content-light-blue, #278CDD)"/>
<path d="M6.5 7.5C6.5 10.8137 5.3 12.5 4.5 12.5C3.7 12.5 2.5 10.8137 2.5 7.5C2.5 4.18629 3.7 2.5 4.5 2.5C5.3 2.5 6.5 4.18629 6.5 7.5Z" fill="var(--mw-icon-background-default-selection, #B4DEFF)" stroke="var(--mw-icon-glyph-content-light-blue, #278CDD)"/>
<path d="M12.5 7.5C12.5 10.8137 11.3 12.5 10.5 12.5C9.7 12.5 8.5 10.8137 8.5 7.5C8.5 4.18629 9.7 2.5 10.5 2.5C11.3 2.5 12.5 4.18629 12.5 7.5Z" fill="var(--mw-icon-background-default-selection, #B4DEFF)" stroke="var(--mw-icon-glyph-content-light-blue, #278CDD)"/>
<path d="M0.5 13.5V1.5C0.5 0.947715 0.947716 0.5 1.5 0.5H13.5C14.0523 0.5 14.5 0.947716 14.5 1.5V13.5C14.5 14.0523 14.0523 14.5 13.5 14.5H1.5C0.947715 14.5 0.5 14.0523 0.5 13.5Z" stroke="var(--mw-icon-border-default-gray, #616161)" stroke-linecap="round"/>
</svg>
