<svg width="16" height="16" viewBox="0 0 16 16" fill="none" xmlns="http://www.w3.org/2000/svg">
<path d="M1.5 1.50003C1.5 0.947746 1.94772 0.500031 2.5 0.500031H13.5C14.0523 0.500031 14.5 0.947746 14.5 1.50003V11.5C14.5 12.0523 14.0523 12.5 13.5 12.5H2.5C1.94772 12.5 1.5 12.0523 1.5 11.5V1.50003Z" fill="var(--mw-icon-background-default-medium-gray, #D9D9D9)" stroke="var(--mw-icon-border-default-gray, #616161)"/>
<path d="M2 13C2 12.4477 2.44772 12 3 12H4C4.55228 12 5 12.4477 5 13V15.5C5 15.7761 4.77614 16 4.5 16H2.5C2.22386 16 2 15.7761 2 15.5V13Z" fill="var(--mw-icon-glyph-disabled-gray, #888889)"/>
<path d="M11.1001 13C11.1001 12.4477 11.5478 12 12.1001 12H13.1001C13.6524 12 14.1001 12.4477 14.1001 13V15.5C14.1001 15.7761 13.8762 16 13.6001 16H11.6001C11.324 16 11.1001 15.7761 11.1001 15.5V13Z" fill="var(--mw-icon-glyph-disabled-gray, #888889)"/>
<path d="M3.5 4.50009H12.5V7.00009C12.5 7.27623 12.2761 7.50009 12 7.50009H4C3.72386 7.50009 3.5 7.27623 3.5 7.00009V4.50009Z" fill="var(--mw-icon-background-default-light-gray, #F5F5F5)" stroke="var(--mw-icon-glyph-content-blue, #1656A8)" stroke-linejoin="round"/>
<path d="M4.00667 3.14885C4.15304 2.75854 4.52616 2.49997 4.943 2.49997H11.057C11.4738 2.49997 11.847 2.75854 11.9933 3.14885L12.5 4.49997H3.5L4.00667 3.14885Z" fill="var(--mw-icon-background-default-selection, #B4DEFF)" stroke="var(--mw-icon-glyph-content-blue, #1656A8)" stroke-linejoin="round"/>
<path d="M3.5 7.51036L12.5 7.50021V8.50006L13.8999 9.11297C14.2636 9.27221 14.4986 9.63151 14.4988 10.0285L14.5 12.5002L14.4985 12.5001L1.50151 12.5002L1.50032 10.0294C1.50012 9.63195 1.73535 9.2721 2.0995 9.11278L3.5 8.50006V7.51036Z" fill="var(--mw-icon-background-default-selection, #B4DEFF)"/>
<path d="M3.5 7.51036L3.49944 7.01036L3 7.01092V7.51036H3.5ZM12.5 7.50021H13V6.99965L12.4994 7.00021L12.5 7.50021ZM14.5 12.5002L14.4498 12.9977C14.5905 13.0119 14.7306 12.9659 14.8354 12.871C14.9403 12.7762 15.0001 12.6414 15 12.5L14.5 12.5002ZM1.50151 12.5002L1.00151 12.5005C1.00165 12.7765 1.22547 13.0002 1.50152 13.0002L1.50151 12.5002ZM12.5 8.50006H12C12 8.69866 12.1175 8.87843 12.2995 8.95808L12.5 8.50006ZM3.5 8.50006L3.70041 8.95814C3.8824 8.87852 4 8.69871 4 8.50006H3.5ZM14.4985 12.5001L14.5487 12.0026L14.5236 12.0001L14.4985 12.0001L14.4985 12.5001ZM13.8999 9.11297L13.6993 9.57099L13.8999 9.11297ZM14.4988 10.0285L13.9988 10.0288L14.4988 10.0285ZM3.50056 8.01036L12.5006 8.00021L12.4994 7.00021L3.49944 7.01036L3.50056 8.01036ZM12 7.50021V8.50006H13V7.50021H12ZM4 8.50006V7.51036H3V8.50006H4ZM2.00151 12.5L2.00032 10.0292L1.00032 10.0297L1.00151 12.5005L2.00151 12.5ZM2.29991 9.57086L3.70041 8.95814L3.29959 8.04198L1.89909 8.6547L2.29991 9.57086ZM12.2995 8.95808L13.6993 9.57099L14.1004 8.65495L12.7005 8.04204L12.2995 8.95808ZM13.9988 10.0288L14 12.5005L15 12.5L14.9988 10.0283L13.9988 10.0288ZM14.5502 12.0027L14.5487 12.0026L14.4483 12.9975L14.4498 12.9977L14.5502 12.0027ZM14.4985 12.0001L1.50151 12.0002L1.50152 13.0002L14.4985 13.0001L14.4985 12.0001ZM13.6993 9.57099C13.8812 9.65061 13.9987 9.83026 13.9988 10.0288L14.9988 10.0283C14.9985 9.43276 14.6459 8.8938 14.1004 8.65495L13.6993 9.57099ZM2.00032 10.0292C2.00022 9.83044 2.11783 9.65052 2.29991 9.57086L1.89909 8.6547C1.35287 8.89367 1.00003 9.43345 1.00032 10.0297L2.00032 10.0292Z" fill="var(--mw-icon-glyph-content-blue, #1656A8)"/>
<path d="M14.5 12.5V10.5H11.5V12.5H14.5Z" fill="var(--mw-icon-background-default-light-gray, #F5F5F5)" stroke="var(--mw-icon-glyph-content-blue, #1656A8)" stroke-linejoin="round"/>
<path d="M4.5 12.5V10.5H1.5V12.5H4.5Z" fill="var(--mw-icon-background-default-light-gray, #F5F5F5)" stroke="var(--mw-icon-glyph-content-blue, #1656A8)" stroke-linejoin="round"/>
<path d="M9.5 9.49997H6.5V12.5H9.5V9.49997Z" fill="var(--mw-icon-glyph-content-blue, #1656A8)" stroke="var(--mw-icon-glyph-content-blue, #1656A8)" stroke-linejoin="round"/>
<path d="M15.5 12.5H0.5V13.5H15.5V12.5Z" fill="var(--mw-icon-glyph-content-blue, #1656A8)" stroke="var(--mw-icon-glyph-content-blue, #1656A8)" stroke-linejoin="round"/>
</svg>
