<svg width="16" height="16" viewBox="0 0 16 16" fill="none" xmlns="http://www.w3.org/2000/svg">
<rect x="0.5" y="0.5" width="14" height="14" rx="1" fill="var(--mw-icon-background-default-white, #FFFFFF)"/>
<rect x="8" y="8" width="6" height="6" fill="var(--mw-icon-background-medium-yellow, #FFEF91)"/>
<rect x="1" y="1" width="6" height="6" fill="var(--mw-icon-background-medium-yellow, #FFEF91)"/>
<rect x="1" y="7" width="13" height="1" fill="var(--mw-icon-glyph-content-gray, #616162)"/>
<path d="M7 14V1H8V14H7Z" fill="var(--mw-icon-glyph-content-gray, #616162)"/>
<path d="M1 14C1 14 1.567 10.0523 3.5 9.5C4.251 9.28543 4.75903 9.74699 5.5 9.5C6.54789 9.1507 6.62811 8.17814 7.5 7.5C8.87859 6.42777 10.2126 6.68014 11.5 5.5C12.9819 4.14156 14 1 14 1" stroke="#1171BE" stroke-linecap="round" stroke-linejoin="round"/>
<rect x="0.5" y="0.5" width="14" height="14" rx="1" stroke="var(--mw-icon-border-default-gray, #616161)"/>
</svg>
