<svg width="16" height="16" viewBox="0 0 16 16" fill="none" xmlns="http://www.w3.org/2000/svg">
<rect x="0.5" y="0.5" width="14" height="14" rx="1" fill="var(--mw-icon-background-default-white, #FFFFFF)"/>
<path d="M8 5.5C11 5.5 12 6.5 14.5 6.5" stroke="#1171BE" stroke-linecap="square" stroke-linejoin="round"/>
<path d="M8 3.5C10.34 3.52222 10 2.5 10.5 1.5C11.5 3 14 3.5 14.5 3.5" stroke="#1171BE" stroke-linecap="square" stroke-linejoin="round"/>
<path d="M8.5 4.5H13.5" stroke="var(--mw-icon-background-default-dark-gray, #A6A6A6)" stroke-linecap="square" stroke-linejoin="round"/>
<path d="M11.5 11L8 8H14V14H8L11.5 11Z" fill="var(--mw-icon-background-medium-yellow, #FFEF91)"/>
<path d="M3.5 8.5V13.5" stroke="#EDB120" stroke-linecap="square" stroke-linejoin="round"/>
<rect x="4" y="8" width="3" height="6" fill="var(--mw-icon-background-medium-yellow, #FFEF91)"/>
<path d="M1 7C1.5 4.5 3.5 2.5 7.5 2.5" stroke="#0072BD" stroke-linecap="square" stroke-linejoin="round"/>
<rect x="1" y="10" width="1" height="1" fill="#0072BD"/>
<rect x="8" y="10" width="1" height="1" fill="#0072BD"/>
<rect x="5" y="9" width="1" height="1" fill="#0072BD"/>
<rect x="12" y="9" width="1" height="1" fill="#0072BD"/>
<rect x="5" y="12" width="1" height="1" fill="#0072BD"/>
<rect x="12" y="12" width="1" height="1" fill="#0072BD"/>
<path d="M8 8L11.5 11L8 14" stroke="#EDB120" stroke-linecap="square" stroke-linejoin="round"/>
<path d="M1.5 7.5H14.5" stroke="var(--mw-icon-glyph-content-gray, #616162)" stroke-linecap="square" stroke-linejoin="round"/>
<path d="M7.5 14V1" stroke="var(--mw-icon-glyph-content-gray, #616162)" stroke-linecap="square" stroke-linejoin="round"/>
<rect x="0.5" y="0.5" width="14" height="14" rx="1" stroke="var(--mw-icon-border-default-gray, #616161)"/>
</svg>
