<svg width="16" height="16" viewBox="0 0 16 16" fill="none" xmlns="http://www.w3.org/2000/svg">
<rect x="0.5" y="0.5" width="14" height="14" rx="1" fill="var(--mw-icon-background-default-white, #FFFFFF)"/>
<path d="M1.5 6.5H13.5" stroke="var(--mw-icon-background-default-dark-gray, #A6A6A6)" stroke-linecap="square" stroke-linejoin="round"/>
<path d="M11.5 1.5V13.5" stroke="var(--mw-icon-background-default-dark-gray, #A6A6A6)" stroke-linecap="square" stroke-linejoin="round"/>
<circle cx="4.5" cy="6.5" r="3" fill="var(--mw-icon-background-medium-yellow, #FFEF91)" stroke="#EDB120"/>
<path d="M4.5 6.5H6.5M5.5 5.5V7.5" stroke="#FF453A" stroke-linecap="round" stroke-linejoin="round"/>
<path d="M11.0263 6.77273C11.0263 7.04887 11.2502 7.27273 11.5263 7.27273C11.8025 7.27273 12.0263 7.04887 12.0263 6.77273H11.0263ZM9.5 6.77273C9.5 6.3424 9.84523 6 10.2632 6V5C9.28584 5 8.5 5.79724 8.5 6.77273H9.5ZM10.2632 6C10.6811 6 11.0263 6.3424 11.0263 6.77273H12.0263C12.0263 5.79724 11.2405 5 10.2632 5V6ZM15 12C12.105 12 9.5 9.62892 9.5 6.77273H8.5C8.5 10.2427 11.6163 13 15 13V12Z" fill="#1171BE"/>
<rect x="0.5" y="0.5" width="14" height="14" rx="1" stroke="var(--mw-icon-border-default-gray, #616161)"/>
</svg>
