<svg width="16" height="16" viewBox="0 0 16 16" fill="none" xmlns="http://www.w3.org/2000/svg">
<rect x="0.5" y="0.5" width="14" height="14" rx="1" fill="var(--mw-icon-background-default-white, #FFFFFF)"/>
<path d="M1.5 6.5H3.5" stroke="var(--mw-icon-background-default-dark-gray, #A6A6A6)" stroke-linecap="round" stroke-linejoin="round"/>
<path d="M5.5 6.5H7.5" stroke="var(--mw-icon-background-default-dark-gray, #A6A6A6)" stroke-linecap="round" stroke-linejoin="round"/>
<path d="M9.5 6.5H11.5" stroke="var(--mw-icon-background-default-dark-gray, #A6A6A6)" stroke-linecap="round" stroke-linejoin="round"/>
<path d="M13.5 6.5H14.5" stroke="var(--mw-icon-background-default-dark-gray, #A6A6A6)" stroke-linecap="round" stroke-linejoin="round"/>
<path d="M1 14C2.81395 13.9998 3.30425 4.5 4.5 4.5C5.69575 4.5 6.15116 9.5 7.5 9.5C8.7093 9.5 8.5 5.5 9.5 5.5C10.5 5.5 14.5 6.5 14.5 6.5" stroke="#EDB120" stroke-linecap="round" stroke-linejoin="round"/>
<path d="M1 14C2.81395 13.9998 1.5 2.5 4.5 2.5C7.5 2.5 7.33325 10.5834 9.5 9.5C10.5 9 10 6.5 11.5 6.5C12.7093 6.5 14.5 6.5 14.5 6.5" stroke="#1171BE" stroke-linecap="round" stroke-linejoin="round"/>
<rect x="0.5" y="0.5" width="14" height="14" rx="1" stroke="var(--mw-icon-border-default-gray, #616161)"/>
</svg>
