<svg width="16" height="16" viewBox="0 0 16 16" fill="none" xmlns="http://www.w3.org/2000/svg">
<rect x="0.5" y="0.5" width="14" height="14" rx="1" fill="var(--mw-icon-background-medium-yellow, #FFEF91)"/>
<path d="M1.5 7.5H13.5" stroke="var(--mw-icon-background-default-dark-gray, #A6A6A6)" stroke-linecap="square" stroke-linejoin="round"/>
<path d="M10.5 1.5V13.5" stroke="var(--mw-icon-background-default-dark-gray, #A6A6A6)" stroke-linecap="square" stroke-linejoin="round"/>
<path d="M7.5 3.5L10 2.5V12.5L7.5 12L7 11.5L6 10.5L5 9L4.5 7.5L5 6L6 4.5L7.5 3.5Z" fill="var(--mw-icon-background-default-white, #FFFFFF)"/>
<path d="M4.5 7.5C4.5 10.2614 7.23858 12.5 10 12.5H12.5V7.5V2.5H10C7.23858 2.5 4.5 4.73858 4.5 7.5Z" stroke="#EDB120"/>
<rect x="0.5" y="0.5" width="14" height="14" rx="1" stroke="var(--mw-icon-border-default-gray, #616161)"/>
<path d="M6.5 6.5L7.5 7.5M7.5 7.5L8.5 8.5M7.5 7.5L8.5 6.5M7.5 7.5L6.5 8.5" stroke="#1171BE" stroke-linecap="round"/>
</svg>
