<svg width="16" height="16" viewBox="0 0 16 16" fill="none" xmlns="http://www.w3.org/2000/svg">
<rect x="0.5" y="0.5" width="14" height="14" rx="1" fill="var(--mw-icon-background-default-white, #FFFFFF)"/>
<path d="M14 12.3904C13.2323 12.6921 12.6794 12.3529 11.9318 11.5937C10.4098 10.149 9.56191 10.1219 8.09091 11.5937C6.59272 12.9101 5.91957 12.6891 4.84091 11.5937C3.31892 10.149 2.471 10.1219 1 11.5937L0.5 12" stroke="#DD5400" stroke-linecap="round" stroke-linejoin="round"/>
<path d="M1.5 7.5H13.5" stroke="var(--mw-icon-background-default-dark-gray, #A6A6A6)" stroke-linecap="square" stroke-linejoin="round"/>
<path d="M2.23815 4.27781C2.23815 4.27781 2.54768 1.5 3.47619 1.5C4.40476 1.5 4.40476 6.5 5.33333 6.5C6.26191 6.5 6.57143 4.27778 6.57143 4.27778C6.57143 4.27778 6.88101 1.5 7.80952 1.5C9.04768 1.5 8.7381 6.5 9.66667 6.5C10.5952 6.5 10.9048 4.27778 10.9048 4.27778C10.9048 4.27778 11.2143 1.5 12.1429 1.5C13.0714 1.5 13.0714 6.5 14 6.5M2.23815 4.27781C2.23815 4.27781 1.92857 6.5 1 6.5M2.23815 4.27781C2.23815 4.27781 2.39541 2.8662 2.82212 2.05556" stroke="#1171BE" stroke-linecap="round" stroke-linejoin="round"/>
<path d="M7.5 6.5V9.5M7.5 9.5L6.5 8.5M7.5 9.5L8.5 8.5" stroke="var(--mw-icon-glyph-content-dark-gray, #333333)" stroke-linecap="round" stroke-linejoin="round"/>
<rect x="0.5" y="0.5" width="14" height="14" rx="1" stroke="var(--mw-icon-border-default-gray, #616161)"/>
</svg>
