<svg width="16" height="16" viewBox="0 0 16 16" fill="none" xmlns="http://www.w3.org/2000/svg">
<path d="M0 2.16667C0 0.970051 0.970051 0 2.16667 0H2.64099H6.53539H10.4298H10.8333C12.0299 0 13 0.970051 13 2.16667V10.8333C13 12.0299 12.0299 13 10.8333 13H10.4298H6.53539H2.64099H2.16667C0.970051 13 0 12.0299 0 10.8333V2.16667Z" fill="var(--mw-icon-background-light-yellow, #FFF5BC)"/>
<path d="M3.03335 0.43335H2.16668C1.20939 0.43335 0.43335 1.20939 0.43335 2.16668V10.8333C0.43335 11.7907 1.20939 12.5667 2.16668 12.5667H3.03335" stroke="var(--mw-icon-border-default-blue, #1656A7)" stroke-width="0.866667"/>
<path d="M9.96667 12.5667H10.8333C11.7907 12.5667 12.5667 11.7518 12.5667 10.7467V2.25335C12.5667 1.24819 11.7907 0.43335 10.8333 0.43335H9.96667" stroke="var(--mw-icon-border-default-blue, #1656A7)" stroke-width="0.866667"/>
<path d="M3.03333 1.73328V5.19994" stroke="var(--mw-icon-glyph-content-blue, #1656A8)" stroke-width="0.866667"/>
<path d="M9.96667 1.73328V5.19994" stroke="var(--mw-icon-glyph-content-blue, #1656A8)" stroke-width="0.866667"/>
<path d="M7.36663 3.46663C7.36663 3.86058 7.24633 4.20055 7.07254 4.43227C6.89885 4.66387 6.69198 4.76663 6.49997 4.76663C6.30796 4.76663 6.10108 4.66387 5.9274 4.43227C5.7536 4.20055 5.6333 3.86058 5.6333 3.46663C5.6333 3.07267 5.7536 2.7327 5.9274 2.50098C6.10108 2.26939 6.30796 2.16663 6.49997 2.16663C6.69198 2.16663 6.89885 2.26939 7.07254 2.50098C7.24633 2.7327 7.36663 3.07267 7.36663 3.46663Z" stroke="var(--mw-icon-glyph-content-blue, #1656A8)" stroke-width="0.866667"/>
<path d="M6.5 7.80005V11.2667" stroke="var(--mw-icon-glyph-content-blue, #1656A8)" stroke-width="0.866667"/>
<path d="M10.8333 9.53328C10.8333 9.92726 10.713 10.2672 10.5392 10.4989C10.3655 10.7305 10.1586 10.8333 9.96664 10.8333C9.77468 10.8333 9.5678 10.7305 9.39404 10.4989C9.22027 10.2672 9.09998 9.92726 9.09998 9.53328C9.09998 9.13929 9.22027 8.79938 9.39404 8.56763C9.5678 8.33604 9.77468 8.23328 9.96664 8.23328C10.1586 8.23328 10.3655 8.33604 10.5392 8.56763C10.713 8.79938 10.8333 9.13929 10.8333 9.53328Z" stroke="var(--mw-icon-glyph-content-blue, #1656A8)" stroke-width="0.866667"/>
<path d="M3.89996 9.53328C3.89996 9.92726 3.77966 10.2672 3.60586 10.4989C3.43218 10.7305 3.2253 10.8333 3.03329 10.8333C2.84128 10.8333 2.63441 10.7305 2.46072 10.4989C2.28693 10.2672 2.16663 9.92726 2.16663 9.53328C2.16663 9.13929 2.28693 8.79938 2.46072 8.56763C2.63441 8.33604 2.84128 8.23328 3.03329 8.23328C3.2253 8.23328 3.43218 8.33604 3.60586 8.56763C3.77966 8.79938 3.89996 9.13929 3.89996 9.53328Z" stroke="var(--mw-icon-glyph-content-blue, #1656A8)" stroke-width="0.866667"/>
<path d="M4.5 5.5C4.5 4.94772 4.94772 4.5 5.5 4.5H13.5C14.0523 4.5 14.5 4.94772 14.5 5.5V13.5C14.5 14.0523 14.0523 14.5 13.5 14.5H5.5C4.94772 14.5 4.5 14.0523 4.5 13.5V5.5Z" fill="var(--mw-icon-background-default-white, #FFFFFF)" stroke="var(--mw-icon-border-default-gray, #616161)"/>
<circle cx="7.5" cy="7.5" r="1.5" fill="var(--mw-icon-glyph-content-red, #902623)"/>
<circle cx="11.5" cy="9.5" r="1.5" fill="var(--mw-icon-glyph-content-red, #902623)"/>
<circle cx="7.5" cy="11.5" r="1.5" fill="var(--mw-icon-glyph-content-dark-gray, #333333)"/>
</svg>
