<svg width="16" height="16" viewBox="0 0 16 16" fill="none" xmlns="http://www.w3.org/2000/svg">
<path d="M0.5 3.5H14.5V14.5C14.5 15.0523 14.0523 15.5 13.5 15.5H1.5C0.947716 15.5 0.5 15.0523 0.5 14.5V3.5Z" fill="var(--mw-icon-background-default-white, #FFFFFF)" stroke="var(--mw-icon-border-default-gray, #616161)"/>
<path d="M0.5 1.5C0.5 0.947715 0.947715 0.5 1.5 0.5H13.5C14.0523 0.5 14.5 0.947715 14.5 1.5V3.5H0.5V1.5Z" fill="var(--mw-icon-background-default-selection, #B4DEFF)" stroke="var(--mw-icon-border-default-blue, #1656A7)"/>
<path d="M9.85355 11.1464L9.5 10.7929L8.79289 11.5L9.14645 11.8536L9.85355 11.1464ZM10.5 12.5L10.8536 12.8536L11.2071 12.5L10.8536 12.1464L10.5 12.5ZM9.14645 13.1464L8.79289 13.5L9.5 14.2071L9.85355 13.8536L9.14645 13.1464ZM11.8536 11.1464L11.5 10.7929L10.7929 11.5L11.1464 11.8536L11.8536 11.1464ZM12.5 12.5L12.8536 12.8536L13.2071 12.5L12.8536 12.1464L12.5 12.5ZM11.1464 13.1464L10.7929 13.5L11.5 14.2071L11.8536 13.8536L11.1464 13.1464ZM8 4.5V4H7V4.5H8ZM7 14.5V15H8V14.5H7ZM9.14645 11.8536L10.1464 12.8536L10.8536 12.1464L9.85355 11.1464L9.14645 11.8536ZM11.1464 11.8536L12.1464 12.8536L12.8536 12.1464L11.8536 11.1464L11.1464 11.8536ZM12.1464 12.1464L11.1464 13.1464L11.8536 13.8536L12.8536 12.8536L12.1464 12.1464ZM8 10H14V9H8V10ZM7 4.5V14.5H8V4.5H7ZM10.1464 12.1464L9.14645 13.1464L9.85355 13.8536L10.8536 12.8536L10.1464 12.1464Z" fill="var(--mw-icon-border-default-gray, #616161)"/>
</svg>
