<svg width="16" height="16" viewBox="0 0 16 16" fill="none" xmlns="http://www.w3.org/2000/svg">
<path d="M3.5 4L5 2H2L3.5 4Z" fill="var(--mw-icon-object-primary, #616160)"/>
<path d="M7.5 4L9 2H6L7.5 4Z" fill="var(--mw-icon-object-primary, #616160)"/>
<path d="M11.5 4L13 2H10L11.5 4Z" fill="var(--mw-icon-object-primary, #616160)"/>
<path d="M3.5 2V0M7.5 2V0M11.5 2V0" stroke="var(--mw-icon-object-primary, #616160)"/>
<path d="M1.5 5.5C1.5 4.94772 1.94772 4.5 2.5 4.5H12.5C13.0523 4.5 13.5 4.94772 13.5 5.5V13.5C13.5 14.0523 13.0523 14.5 12.5 14.5H2.5C1.94772 14.5 1.5 14.0523 1.5 13.5V5.5Z" fill="var(--mw-icon-background-default-white, #FFFFFF)" stroke="var(--mw-icon-border-default-gray, #616161)"/>
<circle cx="5.5" cy="7.5" r="1.5" fill="var(--mw-icon-glyph-content-red, #902623)"/>
<circle cx="9.5" cy="9.5" r="1.5" fill="var(--mw-icon-glyph-content-red, #902623)"/>
<circle cx="5.5" cy="11.5" r="1.5" fill="var(--mw-icon-glyph-content-dark-gray, #333333)"/>
</svg>
