<svg width="16" height="16" viewBox="0 0 16 16" fill="none" xmlns="http://www.w3.org/2000/svg">
<path d="M1 1H14V14H1V1Z" fill="var(--mw-icon-background-default-white, #FFFFFF)"/>
<path d="M0.5 5.5C2.72727 10.8333 5.27273 10.8333 7.5 5.5C9.72727 0.166667 12.2727 0.166667 14.5 5.5" stroke="#0072BD" stroke-linecap="round" stroke-linejoin="round"/>
<path d="M0.5 9.5C2.72727 14.8333 5.27273 14.8333 7.5 9.5C9.72727 4.16667 12.2727 4.16667 14.5 9.5" stroke="#D95319" stroke-linecap="round" stroke-linejoin="round"/>
<path d="M0.5 1.5C0.5 0.947716 0.947715 0.5 1.5 0.5H13.5C14.0523 0.5 14.5 0.947715 14.5 1.5V13.5C14.5 14.0523 14.0523 14.5 13.5 14.5H1.5C0.947716 14.5 0.5 14.0523 0.5 13.5V1.5Z" stroke="var(--mw-icon-border-default-gray, #616161)" stroke-linejoin="round"/>
</svg>
