<svg width="16" height="16" viewBox="0 0 16 16" fill="none" xmlns="http://www.w3.org/2000/svg">
<path d="M0.5 2.5C0.5 1.39543 1.39543 0.5 2.5 0.5H12.5C13.6046 0.5 14.5 1.39543 14.5 2.5V12.5C14.5 13.6046 13.6046 14.5 12.5 14.5H2.5C1.39543 14.5 0.5 13.6046 0.5 12.5V2.5Z" fill="var(--mw-icon-background-default-white, #FFFFFF)"/>
<path d="M0.5 9C2.72727 5.66667 5.27273 5.66667 7.5 9C9.72727 12.3333 12.2727 12.3333 14.5 9" stroke="#D95319" stroke-linecap="round" stroke-linejoin="round"/>
<path d="M0.5 7.5C1.77273 2.16667 3.22727 2.16667 4.5 7.5C5.77273 12.8333 7.22727 12.8333 8.5 7.5M8.5 7.40103C9.45455 3.40103 10.5455 3.40103 11.5 7.40103C12.4545 11.401 13.5455 11.401 14.5 7.40103" stroke="#0072BD" stroke-linecap="round" stroke-linejoin="round"/>
<path d="M0.5 2.5C0.5 1.39543 1.39543 0.5 2.5 0.5H12.5C13.6046 0.5 14.5 1.39543 14.5 2.5V12.5C14.5 13.6046 13.6046 14.5 12.5 14.5H2.5C1.39543 14.5 0.5 13.6046 0.5 12.5V2.5Z" stroke="var(--mw-icon-border-default-gray, #616161)" stroke-linejoin="round"/>
</svg>
