<svg width="16" height="16" viewBox="0 0 16 16" fill="none" xmlns="http://www.w3.org/2000/svg">
<path d="M7 15.5C6.72386 15.5 6.5 15.2761 6.5 15V9.77222C6.5 9.6025 6.41391 9.44437 6.27136 9.35226L1.72864 6.41697C1.58609 6.32486 1.5 6.16673 1.5 5.99701V1C1.5 0.723858 1.72386 0.5 2 0.5H4C4.27614 0.5 4.5 0.723858 4.5 1V6.00001C4.5 6.16808 4.58444 6.32491 4.72476 6.41743L8.1382 8.66815L11.2904 6.41878C11.4219 6.32493 11.4999 6.17333 11.4999 6.01178L11.4999 1C11.4999 0.723858 11.7238 0.5 11.9999 0.5H14C14.2761 0.5 14.5 0.723858 14.5 1V6.0112C14.5 6.17308 14.4216 6.32494 14.2897 6.41873L9.69098 9.68767C9.59747 9.75414 9.53086 9.84979 9.5 9.95749V15C9.5 15.2761 9.27614 15.5 9 15.5H7Z" fill="var(--mw-icon-border-default-green, #008013)" stroke="#013E0A" stroke-linejoin="round"/>
</svg>
