<svg width="16" height="16" viewBox="0 0 16 16" fill="none" xmlns="http://www.w3.org/2000/svg">
<path d="M6.5 15C6.5 15.2761 6.72386 15.5 7 15.5H9C9.27614 15.5 9.5 15.2761 9.5 15V9.99275C9.5 9.82867 9.4195 9.67504 9.2846 9.58165L4.71539 6.41835C4.5805 6.32496 4.5 6.17133 4.5 6.00725L4.5 1C4.5 0.723858 4.27614 0.5 4 0.5L2 0.5C1.72386 0.5 1.5 0.723858 1.5 1V6.00725C1.5 6.17133 1.5805 6.32496 1.71539 6.41835L6.2846 9.58165C6.4195 9.67504 6.5 9.82867 6.5 9.99275L6.5 15Z" fill="#F5FAFF" stroke="var(--mw-icon-border-default-blue, #1656A7)" stroke-linejoin="round"/>
<path d="M9.49995 15C9.49995 15.2761 9.27609 15.5 8.99995 15.5H7C6.72386 15.5 6.5 15.2761 6.5 15L6.50002 9.99274C6.50003 9.82867 6.58052 9.67504 6.71542 9.58165L11.2846 6.41835C11.4195 6.32496 11.4999 6.17133 11.4999 6.00726L11.4999 1C11.4999 0.723858 11.7238 0.5 11.9999 0.5L13.9686 0.5C14.2448 0.5 14.4686 0.723858 14.4686 1L14.4686 6.00819C14.4686 6.17174 14.3887 6.32496 14.2545 6.41845L9.71413 9.58155C9.57993 9.67504 9.49995 9.82826 9.49995 9.99181V15Z" fill="#1171BE" stroke="var(--mw-icon-border-default-blue, #1656A7)" stroke-linejoin="round"/>
</svg>
