<svg width="16" height="16" viewBox="0 0 16 16" fill="none" xmlns="http://www.w3.org/2000/svg">
<path d="M0.5 1.5C0.5 0.947716 0.947715 0.5 1.5 0.5H13.5C14.0523 0.5 14.5 0.947715 14.5 1.5V13.5C14.5 14.0523 14.0523 14.5 13.5 14.5H1.5C0.947716 14.5 0.5 14.0523 0.5 13.5V1.5Z" fill="var(--mw-icon-background-default-white, #FFFFFF)" stroke="var(--mw-icon-border-default-gray, #616161)"/>
<path fill-rule="evenodd" clip-rule="evenodd" d="M4.00005 12H3.41456V8.08154C3.27814 8.2195 3.11752 8.3607 2.89505 8.49866C2.67468 8.63663 2.47635 8.7401 2.30005 8.80908V8.2283C2.61696 8.07032 2.894 7.87895 3.13116 7.65421C3.36832 7.42946 3.53622 7.21139 3.63486 7H4.00005V12ZM8.5 11.375V12H5.50049C5.49639 11.8554 5.51795 11.7163 5.56518 11.5828C5.64117 11.3625 5.76234 11.1455 5.92868 10.9319C6.09708 10.7183 6.33942 10.4713 6.65568 10.1909C7.14651 9.75478 7.47818 9.3231 7.65069 9.06943C7.8232 8.81353 7.90945 8.5721 7.90945 8.34513C7.90945 8.10703 7.83039 7.90676 7.67225 7.74433C7.51617 7.57966 7.31183 7.49733 7.05923 7.49733C6.79225 7.49733 6.57867 7.58411 6.41848 7.75768C6.2583 7.93124 6.17718 8.17156 6.17512 8.47864L5.60523 8.41522C5.64425 7.95461 5.79109 7.60414 6.04574 7.36382C6.3004 7.12127 6.64234 7 7.07155 7C7.50488 7 7.84784 7.13017 8.10044 7.39052C8.35305 7.65087 8.47935 7.97352 8.47935 8.35848C8.47935 8.55429 8.44238 8.74677 8.36845 8.93591C8.29452 9.12506 8.1713 9.32421 7.99879 9.53338C7.9764 9.56085 7.95205 9.59116 7.92573 9.62392C7.75165 9.84059 7.49157 10.1643 7.14548 10.4813C6.81279 10.7839 6.59921 10.9898 6.50474 11.0988C6.47548 11.1319 6.4478 11.1605 6.4217 11.1875L6.42169 11.1875L6.42169 11.1875C6.3635 11.2477 6.31315 11.2997 6.27062 11.375H8.5ZM10.5625 10.5414L10 10.6215C10.0375 11.0287 10.1885 11.3603 10.4531 11.6162C10.7198 11.8721 11.0542 12 11.4563 12C11.9021 12 12.2708 11.852 12.5625 11.5561C12.8542 11.2579 13 10.8952 13 10.468C13 10.152 12.925 9.88941 12.775 9.68024C12.625 9.46885 12.4146 9.32977 12.1437 9.26302C12.3521 9.16066 12.5094 9.0227 12.6156 8.84913C12.7219 8.67557 12.775 8.48309 12.775 8.2717C12.775 8.04918 12.7188 7.8389 12.6063 7.64085C12.4958 7.44281 12.3354 7.28705 12.125 7.17356C11.9146 7.05785 11.6844 7 11.4344 7C11.0719 7 10.7688 7.11126 10.525 7.33378C10.2813 7.55407 10.125 7.8656 10.0562 8.26836L10.6188 8.37517C10.6604 8.08144 10.7542 7.86115 10.9 7.71429C11.0458 7.56742 11.2281 7.49399 11.4469 7.49399C11.6677 7.49399 11.8479 7.56631 11.9875 7.71095C12.1271 7.85559 12.1969 8.03805 12.1969 8.25834C12.1969 8.53649 12.101 8.74232 11.9094 8.87583C11.7177 9.00935 11.5021 9.0761 11.2625 9.0761C11.2396 9.0761 11.2094 9.07388 11.1719 9.06943L11.1094 9.5968C11.2677 9.55229 11.4 9.53004 11.5063 9.53004C11.7667 9.53004 11.9812 9.62016 12.15 9.8004C12.3187 9.97842 12.4031 10.2054 12.4031 10.4813C12.4031 10.7706 12.3115 11.0131 12.1281 11.2089C11.9469 11.4048 11.724 11.5027 11.4594 11.5027C11.2365 11.5027 11.0469 11.4281 10.8906 11.279C10.7365 11.1277 10.6271 10.8818 10.5625 10.5414Z" fill="var(--mw-icon-glyph-content-gray, #616162)"/>
</svg>
