<svg width="16" height="16" viewBox="0 0 16 16" fill="none" xmlns="http://www.w3.org/2000/svg">
<path d="M0.5 1.5C0.5 0.947716 0.947715 0.5 1.5 0.5H13.5C14.0523 0.5 14.5 0.947715 14.5 1.5V13.5C14.5 14.0523 14.0523 14.5 13.5 14.5H1.5C0.947716 14.5 0.5 14.0523 0.5 13.5V1.5Z" fill="var(--mw-icon-background-default-white, #FFFFFF)" stroke="var(--mw-icon-border-default-gray, #616161)"/>
<path fill-rule="evenodd" clip-rule="evenodd" d="M3.5677 3.83348C3.23405 4.25588 3.03595 4.78508 3.00337 5.34097C2.97864 5.73318 3.09082 6.12109 3.31749 6.42717C3.54417 6.73326 3.86864 6.93497 4.22604 6.99198C4.31949 7.00735 4.41488 7.00058 4.5057 6.97214C4.59653 6.9437 4.68064 6.89426 4.7523 6.8272C4.82395 6.76013 4.88146 6.67702 4.92089 6.58355C4.96032 6.49007 4.98075 6.38843 4.98077 6.28558C4.98463 6.21905 4.97491 6.15242 4.95231 6.09047C4.92971 6.02852 4.8948 5.97277 4.85007 5.92723C4.80535 5.8817 4.75191 5.8475 4.69361 5.82708C4.6353 5.80667 4.57357 5.80055 4.51284 5.80917C4.29882 5.77867 4.10293 5.66248 3.96338 5.48327C3.82383 5.30406 3.75064 5.07469 3.7581 4.83992C3.7581 4.13352 4.37699 3.65712 4.96568 3.36141C4.98346 3.3304 4.99467 3.29547 4.99851 3.25916C5.00236 3.22285 4.99873 3.18606 4.98789 3.15146C4.97705 3.11687 4.95928 3.08533 4.93586 3.05913C4.91243 3.03293 4.88395 3.01274 4.85247 3C4.35236 3.11849 3.90135 3.41108 3.5677 3.83348ZM6.56369 3.8344C6.2336 4.25753 6.03684 4.78797 6.00311 5.34568C5.97929 5.7424 6.09293 6.13426 6.32094 6.44157C6.54894 6.74888 6.87417 6.94856 7.2305 7C7.84047 7 7.97437 6.54733 7.97437 6.29218C7.97771 6.22782 7.96859 6.16341 7.94761 6.10326C7.92663 6.04311 7.89428 5.98862 7.85273 5.94342C7.81118 5.89823 7.76138 5.86337 7.70667 5.84119C7.65196 5.81901 7.59359 5.81002 7.53549 5.81481C7.32455 5.78425 7.13147 5.66783 6.99394 5.48826C6.8564 5.30869 6.78427 5.07886 6.79162 4.84362C6.79162 4.1358 7.40159 3.65844 7.97437 3.36214C7.98999 3.32861 7.9987 3.29166 7.99987 3.25395C8.00103 3.21625 7.99462 3.17872 7.9811 3.14409C7.96759 3.10945 7.9473 3.07857 7.92169 3.05365C7.89609 3.02873 7.86581 3.01041 7.83304 3C7.33931 3.1184 6.89379 3.41126 6.56369 3.8344ZM11.9959 9.64271C11.9674 10.1981 11.7712 10.7285 11.4369 11.1538C11.1027 11.579 10.6485 11.876 10.143 12C10.1127 11.9851 10.0856 11.9638 10.0633 11.9373C10.0409 11.9108 10.0239 11.8796 10.0131 11.8458C10.0024 11.812 9.99815 11.7762 10.0007 11.7405C10.0033 11.7049 10.0127 11.6702 10.0282 11.6386C10.6254 11.3429 11.2532 10.8583 11.2532 10.152C11.2598 9.91169 11.18 9.67791 11.0304 9.49903C10.8807 9.32014 10.6727 9.20984 10.4493 9.19097C10.3904 9.19219 10.3318 9.18036 10.2774 9.15622C10.2229 9.13208 10.1736 9.09615 10.1327 9.05068C10.0917 9.0052 10.0599 8.95115 10.0393 8.89191C10.0187 8.83267 10.0097 8.76951 10.0129 8.70637C10.0129 8.44353 10.1584 8 10.7785 8C11.137 8.05891 11.4616 8.26085 11.6873 8.56541C11.913 8.86998 12.0232 9.25473 11.9959 9.64271ZM8.43146 11.1623C8.76582 10.7376 8.96432 10.2053 8.99689 9.64609C9.02086 9.25029 8.90555 8.85944 8.67455 8.55346C8.44355 8.24749 8.1143 8.0495 7.75415 8C7.15914 8 7.00097 8.44444 7.00097 8.70782C6.99669 8.77608 7.00662 8.84451 7.03002 8.90797C7.05342 8.97143 7.08968 9.02827 7.13607 9.07422C7.18247 9.12016 7.23779 9.15402 7.29788 9.17324C7.35797 9.19246 7.42126 9.19654 7.483 9.18518C7.69595 9.21384 7.89136 9.32858 8.03075 9.50681C8.17015 9.68503 8.24344 9.91383 8.23618 10.1481C8.23618 10.856 7.61858 11.3416 7.03863 11.6379C7.02198 11.6688 7.01148 11.7031 7.00781 11.7388C7.00415 11.7744 7.00739 11.8105 7.01734 11.8447C7.02729 11.8788 7.04372 11.9103 7.06556 11.9371C7.08739 11.9639 7.11415 11.9853 7.14407 12C7.64515 11.8812 8.09711 11.5871 8.43146 11.1623Z" fill="var(--mw-icon-glyph-content-gray, #616162)"/>
</svg>
