<svg width="16" height="16" viewBox="0 0 16 16" fill="none" xmlns="http://www.w3.org/2000/svg">
<path d="M0.5 1.5C0.5 0.947716 0.947715 0.5 1.5 0.5H7.5H13.5C14.0523 0.5 14.5 0.947715 14.5 1.5V13.5C14.5 14.0523 14.0523 14.5 13.5 14.5H7.5H1.5C0.947715 14.5 0.5 14.0523 0.5 13.5V1.5Z" fill="var(--mw-icon-background-default-white, #FFFFFF)"/>
<path d="M7.5 0.5H1.5C0.947715 0.5 0.5 0.947716 0.5 1.5V13.5C0.5 14.0523 0.947715 14.5 1.5 14.5H7.5M7.5 0.5H13.5C14.0523 0.5 14.5 0.947715 14.5 1.5V13.5C14.5 14.0523 14.0523 14.5 13.5 14.5H7.5M7.5 0.5V14.5" stroke="var(--mw-icon-border-default-gray, #616161)"/>
<path fill-rule="evenodd" clip-rule="evenodd" d="M3 5V6H2V9H3V10H5V9H6V6H5V5H3ZM5 6H3V9H5V6Z" fill="var(--mw-icon-glyph-content-gray, #616162)"/>
<path d="M3 5H4V6H3V5Z" fill="var(--mw-icon-glyph-content-gray, #616162)"/>
<path d="M4 5H5V6H4V5Z" fill="var(--mw-icon-glyph-content-gray, #616162)"/>
<path d="M5 6H6V7H5V6Z" fill="var(--mw-icon-glyph-content-gray, #616162)"/>
<path d="M2 6H3V7H2V6Z" fill="var(--mw-icon-glyph-content-gray, #616162)"/>
<path d="M2 7H3V8H2V7Z" fill="var(--mw-icon-glyph-content-gray, #616162)"/>
<path d="M2 8H3V9H2V8Z" fill="var(--mw-icon-glyph-content-gray, #616162)"/>
<path d="M3 9H4V10H3V9Z" fill="var(--mw-icon-glyph-content-gray, #616162)"/>
<path d="M4 9H5V10H4V9Z" fill="var(--mw-icon-glyph-content-gray, #616162)"/>
<path d="M5 8H6V9H5V8Z" fill="var(--mw-icon-glyph-content-gray, #616162)"/>
<path d="M5 7H6V8H5V7Z" fill="var(--mw-icon-glyph-content-gray, #616162)"/>
<path d="M12 5V10H11V6L10 7V6L11 5H12Z" fill="var(--mw-icon-glyph-content-gray, #616162)"/>
</svg>
