<svg width="16" height="16" viewBox="0 0 16 16" fill="none" xmlns="http://www.w3.org/2000/svg">
<path d="M0.5 1.5C0.5 0.947716 0.947715 0.5 1.5 0.5H13.5C14.0523 0.5 14.5 0.947715 14.5 1.5V13.5C14.5 14.0523 14.0523 14.5 13.5 14.5H1.5C0.947716 14.5 0.5 14.0523 0.5 13.5V1.5Z" stroke="var(--mw-icon-object-primary, #616160)"/>
<path fill-rule="evenodd" clip-rule="evenodd" d="M8.91465 6H14V7H8.91465C8.76401 7.42619 8.42622 7.76399 8.00003 7.91464V9.99997L14.0001 9.99998V11H7.50002C7.36742 11 7.24024 10.9473 7.14647 10.8535C7.0527 10.7598 7.00002 10.6326 7.00002 10.5L7.00003 7.91466C6.57381 7.76402 6.236 7.42622 6.08535 7H1V6H6.08535C6.29127 5.4174 6.84689 5 7.5 5C8.15311 5 8.70873 5.4174 8.91465 6Z" fill="var(--mw-icon-object-primary, #616160)"/>
</svg>
