<svg width="16" height="16" viewBox="0 0 16 16" fill="none" xmlns="http://www.w3.org/2000/svg">
<path d="M11.5 3.5H14.5V5.5" stroke="var(--mw-icon-object-primary, #616160)" stroke-linecap="square" stroke-linejoin="round"/>
<path d="M15 5.5L14.5 6.16667L14 5.5H15Z" stroke="var(--mw-icon-object-primary, #616160)" stroke-linecap="round"/>
<path d="M1 1H9V6H1V1Z" fill="var(--mw-icon-background-default-white, #FFFFFF)"/>
<path d="M5 2L1 6.5H9L5 2Z" stroke="#8D1FD7" stroke-linejoin="round"/>
<path d="M0.5 1C0.5 0.723858 0.723858 0.5 1 0.5H9C9.27614 0.5 9.5 0.723858 9.5 1V6C9.5 6.27614 9.27614 6.5 9 6.5H1C0.723858 6.5 0.5 6.27614 0.5 6V1Z" stroke="var(--mw-icon-border-default-gray, #616161)" stroke-linejoin="round"/>
<rect x="7" y="9" width="8" height="6" fill="white"/>
<path d="M11 10L7 15.5H15L11 10Z" fill="#8D1FD7"/>
<path d="M11 10L9.5 15H12.5L11 10Z" fill="#E6BFFF"/>
<rect x="6.5" y="8.5" width="9" height="7" rx="0.5" stroke="var(--mw-icon-border-default-gray, #616161)" stroke-linejoin="round"/>
</svg>
