<svg width="16" height="16" viewBox="0 0 16 16" fill="none" xmlns="http://www.w3.org/2000/svg">
<path d="M0.5 1.5C0.5 0.947716 0.947715 0.5 1.5 0.5H13.5C14.0523 0.5 14.5 0.947715 14.5 1.5V13.5C14.5 14.0523 14.0523 14.5 13.5 14.5H1.5C0.947716 14.5 0.5 14.0523 0.5 13.5V1.5Z" fill="var(--mw-icon-background-default-white, #FFFFFF)" stroke="var(--mw-icon-border-default-gray, #616161)"/>
<path fill-rule="evenodd" clip-rule="evenodd" d="M6 3H13V4H6V3ZM2 7H9V8H2V7ZM13 11H6V12H13V11Z" fill="var(--mw-icon-glyph-content-gray, #616162)"/>
<mask id="path-3-inside-1_23604_226108" fill="white">
<path fill-rule="evenodd" clip-rule="evenodd" d="M11 3.5C11 4.32843 10.3284 5 9.5 5C8.67157 5 8 4.32843 8 3.5C8 2.67157 8.67157 2 9.5 2C10.3284 2 11 2.67157 11 3.5ZM11 11.5C11 12.3284 10.3284 13 9.5 13C8.67157 13 8 12.3284 8 11.5C8 10.6716 8.67157 10 9.5 10C10.3284 10 11 10.6716 11 11.5ZM5.5 9C6.32843 9 7 8.32843 7 7.5C7 6.67157 6.32843 6 5.5 6C4.67157 6 4 6.67157 4 7.5C4 8.32843 4.67157 9 5.5 9Z"/>
</mask>
<path fill-rule="evenodd" clip-rule="evenodd" d="M11 3.5C11 4.32843 10.3284 5 9.5 5C8.67157 5 8 4.32843 8 3.5C8 2.67157 8.67157 2 9.5 2C10.3284 2 11 2.67157 11 3.5ZM11 11.5C11 12.3284 10.3284 13 9.5 13C8.67157 13 8 12.3284 8 11.5C8 10.6716 8.67157 10 9.5 10C10.3284 10 11 10.6716 11 11.5ZM5.5 9C6.32843 9 7 8.32843 7 7.5C7 6.67157 6.32843 6 5.5 6C4.67157 6 4 6.67157 4 7.5C4 8.32843 4.67157 9 5.5 9Z" fill="white"/>
<path d="M9.5 6C10.8807 6 12 4.88071 12 3.5H10C10 3.77614 9.77614 4 9.5 4V6ZM7 3.5C7 4.88071 8.11929 6 9.5 6V4C9.22386 4 9 3.77614 9 3.5H7ZM9.5 1C8.11929 1 7 2.11929 7 3.5H9C9 3.22386 9.22386 3 9.5 3V1ZM12 3.5C12 2.11929 10.8807 1 9.5 1V3C9.77614 3 10 3.22386 10 3.5H12ZM9.5 14C10.8807 14 12 12.8807 12 11.5H10C10 11.7761 9.77614 12 9.5 12V14ZM7 11.5C7 12.8807 8.11929 14 9.5 14V12C9.22386 12 9 11.7761 9 11.5H7ZM9.5 9C8.11929 9 7 10.1193 7 11.5H9C9 11.2239 9.22386 11 9.5 11V9ZM12 11.5C12 10.1193 10.8807 9 9.5 9V11C9.77614 11 10 11.2239 10 11.5H12ZM6 7.5C6 7.77614 5.77614 8 5.5 8V10C6.88071 10 8 8.88071 8 7.5H6ZM5.5 7C5.77614 7 6 7.22386 6 7.5H8C8 6.11929 6.88071 5 5.5 5V7ZM5 7.5C5 7.22386 5.22386 7 5.5 7V5C4.11929 5 3 6.11929 3 7.5H5ZM5.5 8C5.22386 8 5 7.77614 5 7.5H3C3 8.88071 4.11929 10 5.5 10V8Z" fill="var(--mw-icon-glyph-content-gray, #616162)" mask="url(#path-3-inside-1_23604_226108)"/>
</svg>
