<svg width="16" height="16" viewBox="0 0 16 16" fill="none" xmlns="http://www.w3.org/2000/svg">
<mask id="path-1-inside-1_42085_11278" fill="var(--mw-icon-background-default-white, #FFFFFF)">
<path d="M3 13H12V14H3V13Z"/>
</mask>
<path d="M3 13H12V14H3V13Z" fill="var(--mw-icon-object-primary, #616160)"/>
<path d="M3 13V12H2V13H3ZM12 13H13V12H12V13ZM12 14V15H13V14H12ZM3 14H2V15H3V14ZM3 14H12V12H3V14ZM11 13V14H13V13H11ZM12 13H3V15H12V13ZM4 14V13H2V14H4Z" fill="var(--mw-icon-object-primary, #616160)" mask="url(#path-1-inside-1_42085_11278)"/>
<path d="M4 2V7.5C4 9.433 5.567 11 7.5 11V11C9.433 11 11 9.433 11 7.5V2" stroke="var(--mw-icon-object-primary, #616160)" stroke-width="2"/>
</svg>
