<svg width="16" height="16" viewBox="0 0 16 16" fill="none" xmlns="http://www.w3.org/2000/svg">
<path d="M5.5 8.45923V5.80617L8 7.1327V9.78576L5.5 8.45923Z" fill="var(--mw-icon-background-red, #FF9D9A)"/>
<path d="M10.5 8.45923V5.80617L8 7.1327V9.78576L10.5 8.45923Z" fill="var(--mw-icon-background-red, #FF9D9A)"/>
<path d="M10.5 5.80617L8 4.47949L5.5 5.80617L8 7.1327L10.5 5.80617Z" fill="var(--mw-icon-background-red, #FF9D9A)"/>
<path d="M5.5 5.80617V8.45923L8 9.78576M5.5 5.80617L8 7.1327M5.5 5.80617L8 4.47949L10.5 5.80617M8 7.1327V9.78576M8 7.1327L10.5 5.80617M8 9.78576L10.5 8.45923V5.80617" stroke="var(--mw-icon-border-default-red, #902622)" stroke-linecap="round" stroke-linejoin="round"/>
<path d="M0.5 8.45923V5.80617L3 7.1327V9.78576L0.5 8.45923Z" fill="var(--mw-icon-background-default-action, #CBFFBE)"/>
<path d="M5.5 8.45923V5.80617L3 7.1327V9.78576L5.5 8.45923Z" fill="var(--mw-icon-background-default-action, #CBFFBE)"/>
<path d="M5.5 5.80617L3 4.47949L0.5 5.80617L3 7.1327L5.5 5.80617Z" fill="var(--mw-icon-background-default-action, #CBFFBE)"/>
<path d="M0.5 5.80617V8.45923L3 9.78576M0.5 5.80617L3 7.1327M0.5 5.80617L3 4.47949L5.5 5.80617M3 7.1327V9.78576M3 7.1327L5.5 5.80617M3 9.78576L5.5 8.45923V5.80617" stroke="var(--mw-icon-border-default-green, #008013)" stroke-linecap="round" stroke-linejoin="round"/>
<path d="M3 4.47952V1.82646L5.5 3.15299V5.80605L3 4.47952Z" fill="var(--mw-icon-background-medium-blue, #83CAFF)"/>
<path d="M8 4.47952V1.82646L5.5 3.15299V5.80605L8 4.47952Z" fill="var(--mw-icon-background-medium-blue, #83CAFF)"/>
<path d="M8 1.82646L5.5 0.5L3 1.82646L5.5 3.15299L8 1.82646Z" fill="var(--mw-icon-background-medium-blue, #83CAFF)"/>
<path d="M3 1.82646V4.47952L5.5 5.80605M3 1.82646L5.5 3.15299M3 1.82646L5.5 0.5L8 1.82646M5.5 3.15299V5.80605M5.5 3.15299L8 1.82646M5.5 5.80605L8 4.47952V1.82646" stroke="var(--mw-icon-border-default-blue, #1656A7)" stroke-linecap="round" stroke-linejoin="round"/>
<path d="M8.425 7.6C8.47221 7.53705 8.54631 7.5 8.625 7.5H15.25C15.3881 7.5 15.5 7.61193 15.5 7.75V15.25C15.5 15.3881 15.3881 15.5 15.25 15.5H8.625C8.54631 15.5 8.47221 15.463 8.425 15.4L5.6125 11.65C5.54583 11.5611 5.54583 11.4389 5.6125 11.35L8.425 7.6Z" fill="var(--mw-icon-background-default-selection, #B4DEFF)" stroke="var(--mw-icon-border-default-blue, #1656A7)"/>
<path d="M12.6464 13.3536L13 13.7071L13.7071 13L13.3536 12.6464L12.6464 13.3536ZM10.3536 9.64645L10 9.29289L9.29289 10L9.64645 10.3536L10.3536 9.64645ZM9.64645 12.6464L9.29289 13L10 13.7071L10.3536 13.3536L9.64645 12.6464ZM13.3536 10.3536L13.7071 10L13 9.29289L12.6464 9.64645L13.3536 10.3536ZM13.3536 12.6464L10.3536 9.64645L9.64645 10.3536L12.6464 13.3536L13.3536 12.6464ZM10.3536 13.3536L13.3536 10.3536L12.6464 9.64645L9.64645 12.6464L10.3536 13.3536Z" fill="var(--mw-icon-glyph-content-blue, #1656A8)"/>
</svg>
