<svg width="16" height="16" viewBox="0 0 16 16" fill="none" xmlns="http://www.w3.org/2000/svg">
<path d="M8 0.5L15.5 14.5H0.5L8 0.5Z" fill="var(--mw-icon-background-default-white, white)" stroke="var(--mw-icon-borderColor-light-blue, #268CDD)" stroke-linecap="square" stroke-linejoin="round"/>
<path d="M7.34884 10.9301C7.34884 10.513 7.4 10.1806 7.50233 9.9328C7.60465 9.68504 7.8062 9.41375 8.10698 9.11895C8.41085 8.82101 8.6031 8.60932 8.68372 8.48387C8.80775 8.29256 8.86977 8.08557 8.86977 7.8629C8.86977 7.5681 8.7969 7.34386 8.65116 7.19019C8.50853 7.03338 8.29767 6.95497 8.0186 6.95497C7.75194 6.95497 7.53643 7.03181 7.37209 7.18548C7.21085 7.33602 7.13023 7.54144 7.13023 7.80175H6C6.0062 7.24664 6.19225 6.80757 6.55814 6.48454C6.92713 6.16151 7.41395 6 8.0186 6C8.64186 6 9.12713 6.15995 9.47442 6.47984C9.82481 6.79973 10 7.24664 10 7.82056C10 8.33176 9.76434 8.83513 9.29302 9.33065L8.72093 9.89987C8.51628 10.1351 8.41085 10.4785 8.40465 10.9301H7.34884ZM7.26977 12.3931C7.26977 12.2081 7.32713 12.0591 7.44186 11.9462C7.55659 11.8302 7.71163 11.7722 7.90698 11.7722C8.10543 11.7722 8.26202 11.8318 8.37674 11.9509C8.49147 12.067 8.54884 12.2144 8.54884 12.3931C8.54884 12.5656 8.49302 12.7099 8.3814 12.8259C8.26977 12.942 8.11163 13 7.90698 13C7.70233 13 7.54419 12.942 7.43256 12.8259C7.32403 12.7099 7.26977 12.5656 7.26977 12.3931Z" fill="var(--mw-icon-glyph-content-blue, #1656A8)"/>

</svg>
