<svg width="16" height="16" viewBox="0 0 16 16" fill="none" xmlns="http://www.w3.org/2000/svg">
<path fill-rule="evenodd" clip-rule="evenodd" d="M2 7C1.44772 7 1 7.44772 1 8V15C1 15.5523 1.44772 16 2 16H11C11.5523 16 12 15.5523 12 15V8C12 7.44772 11.5523 7 11 7H2ZM8 10.5C8 11.1531 7.5826 11.7087 7 11.9146V13.5C7 13.7761 6.77614 14 6.5 14C6.22386 14 6 13.7761 6 13.5V11.9146C5.4174 11.7087 5 11.1531 5 10.5C5 9.67157 5.67157 9 6.5 9C7.32843 9 8 9.67157 8 10.5Z" fill="var(--mw-icon-object-primary, #616160)"/>
<path d="M13 7C13 7.55228 13.4477 8 14 8C14.5523 8 15 7.55228 15 7H13ZM10 7V3.5H8V7H10ZM13 3.5V7H15V3.5H13ZM11.5 2C12.3284 2 13 2.67157 13 3.5H15C15 1.567 13.433 0 11.5 0V2ZM10 3.5C10 2.67157 10.6716 2 11.5 2V0C9.567 0 8 1.567 8 3.5H10Z" fill="var(--mw-icon-object-primary, #616160)"/>
</svg>
