<svg width="16" height="16" viewBox="0 0 16 16" fill="none" xmlns="http://www.w3.org/2000/svg">
<path d="M4.5 0.5L8.5 0.5L8.5 3.5L11.5 3.5L6.5 9.5L1.5 3.5L4.5 3.5L4.5 0.5Z" fill="var(--mw-icon-background-default-action, #CBFFBE)" stroke="var(--mw-icon-glyph-content-green, #008014)"/>
<path d="M7 12.4999L13.5 12.5" stroke="var(--mw-icon-glyph-disabled-gray, #888889)" stroke-linecap="square"/>
<path d="M3.5 12.5C3.5 10.8431 4.84315 9.5 6.5 9.5C8.15685 9.5 9.5 10.8431 9.5 12.5C9.5 14.1569 8.15685 15.5 6.5 15.5C4.84315 15.5 3.5 14.1569 3.5 12.5Z" fill="var(--mw-icon-background-default-medium-gray, #D9D9D9)" stroke="var(--mw-icon-glyph-disabled-gray, #888889)"/>
<path d="M11.5 12.5C11.5 11.3954 12.3954 10.5 13.5 10.5C14.6046 10.5 15.5 11.3954 15.5 12.5C15.5 13.6046 14.6046 14.5 13.5 14.5C12.3954 14.5 11.5 13.6046 11.5 12.5Z" fill="var(--mw-icon-background-default-action, #CBFFBE)" stroke="var(--mw-icon-glyph-content-green, #008014)"/>
<path d="M5.49988 12.5C5.49988 11.9477 5.94759 11.5 6.49988 11.5C7.05216 11.5 7.49988 11.9477 7.49988 12.5C7.49988 13.0523 7.05216 13.5 6.49988 13.5C5.94759 13.5 5.49988 13.0523 5.49988 12.5Z" fill="var(--mw-icon-background-default-medium-gray, #D9D9D9)" stroke="var(--mw-icon-glyph-disabled-gray, #888889)"/>
</svg>
