<svg width="16" height="16" viewBox="0 0 16 16" fill="none" xmlns="http://www.w3.org/2000/svg">
<path d="M8.5 12.5L11.5 12.5L11.5 5.5L14 5.5L10 1.5L6 5.5L8.5 5.5L8.5 12.5Z" fill="var(--mw-icon-background-default-selection, #B4DEFF)" stroke="var(--mw-icon-border-default-blue, #1656A7)"/>
<path d="M1.5 8C1.5 7.72386 1.72386 7.5 2 7.5H6.08579C6.351 7.5 6.60536 7.60536 6.79289 7.79289L7.20711 8.20711C7.39464 8.39464 7.649 8.5 7.91421 8.5H12C12.2761 8.5 12.5 8.72386 12.5 9V15C12.5 15.2761 12.2761 15.5 12 15.5H2C1.72386 15.5 1.5 15.2761 1.5 15V8Z" fill="var(--mw-icon-background-light-yellow, #FFF5BC)" stroke="#674C06"/>
</svg>
