<svg width="16" height="16" viewBox="0 0 16 16" fill="none" xmlns="http://www.w3.org/2000/svg">
<path d="M0.5 1.5C0.5 0.947716 0.947715 0.5 1.5 0.5H9.5C10.0523 0.5 10.5 0.947715 10.5 1.5V9.5C10.5 10.0523 10.0523 10.5 9.5 10.5H1.5C0.947716 10.5 0.5 10.0523 0.5 9.5V1.5Z" fill="var(--mw-icon-background-light-yellow, #FFF5BC)" stroke="var(--mw-icon-border-default-blue, #1656A7)"/>
<path d="M2.5 2.5L8.5 8.5M2.5 5.5L5.5 8.5M5.5 2.5L8.5 5.5" stroke="var(--mw-icon-glyph-content-blue, #1656A8)" stroke-linecap="round"/>
<path d="M14.3413 11.1258L13.2158 8.47292C13.0881 8.17202 13.1759 7.82294 13.4307 7.61819C13.8133 7.31073 14.3842 7.46058 14.5665 7.91632L15.8514 11.1286C15.9468 11.367 15.9468 11.633 15.8514 11.8714L14.4821 15.2948C14.3316 15.6709 13.8876 15.8326 13.5305 15.6413C13.2277 15.4791 13.0936 15.1164 13.2181 14.7962L14.3527 11.8788C14.4471 11.6359 14.443 11.3657 14.3413 11.1258Z" fill="var(--mw-icon-glyph-content-light-blue, #278CDD)"/>
<path d="M11.8413 11.1258L10.7158 8.47292C10.5881 8.17202 10.6759 7.82294 10.9307 7.61819C11.3133 7.31073 11.8842 7.46058 12.0665 7.91632L13.3514 11.1286C13.4468 11.367 13.4468 11.633 13.3514 11.8714L11.9821 15.2948C11.8316 15.6709 11.3876 15.8326 11.0305 15.6413C10.7277 15.4791 10.5936 15.1164 10.7181 14.7962L11.8527 11.8788C11.9471 11.6359 11.943 11.3657 11.8413 11.1258Z" fill="var(--mw-icon-glyph-content-light-blue, #278CDD)"/>
<path d="M9.34126 11.1258L8.21579 8.47292C8.08813 8.17202 8.1759 7.82294 8.43069 7.61819C8.81331 7.31073 9.38423 7.46058 9.56653 7.91632L10.8514 11.1286C10.9468 11.367 10.9468 11.633 10.8514 11.8714L9.48208 15.2948C9.33164 15.6709 8.88757 15.8326 8.53049 15.6413C8.22769 15.4791 8.09362 15.1164 8.21813 14.7962L9.35268 11.8788C9.44714 11.6359 9.44304 11.3657 9.34126 11.1258Z" fill="var(--mw-icon-glyph-content-light-blue, #278CDD)"/>
</svg>
