<svg width="16" height="16" viewBox="0 0 16 16" fill="none" xmlns="http://www.w3.org/2000/svg">
<path d="M1 1H15V15H1V1Z" fill="var(--mw-icon-background-default-white, #FFFFFF)"/>
<path d="M8.00507 5.94067L5.01469 2.95029C5.6061 2.66185 6.27058 2.5 6.97287 2.5C9.44317 2.5 11.4457 4.50257 11.4457 6.97287C11.4457 7.5762 11.3263 8.15163 11.1097 8.67681L13.5 11.0671L11.0671 13.5L8.67682 11.1097C8.15164 11.3263 7.57621 11.4457 6.97287 11.4457C4.50257 11.4457 2.5 9.44316 2.5 6.97287C2.5 6.27058 2.66185 5.6061 2.95029 5.01469L5.94067 8.00507L7.661 7.661L8.00507 5.94067Z" fill="var(--mw-icon-background-default-medium-gray, #D9D9D9)" stroke="var(--mw-icon-glyph-content-gray, #616162)" stroke-linejoin="round"/>
<path d="M0.5 1.5C0.5 0.947715 0.947715 0.5 1.5 0.5H14.5C15.0523 0.5 15.5 0.947715 15.5 1.5V14.5C15.5 15.0523 15.0523 15.5 14.5 15.5H1.5C0.947715 15.5 0.5 15.0523 0.5 14.5V1.5Z" stroke="var(--mw-icon-border-default-gray, #616161)" stroke-linejoin="round"/>
</svg>
