<svg width="16" height="16" viewBox="0 0 16 16" fill="none" xmlns="http://www.w3.org/2000/svg">
<path d="M0.5 13.5C0.5 14.0523 0.947715 14.5 1.5 14.5H13.5C14.0523 14.5 14.5 14.0523 14.5 13.5V1.5C14.5 0.947716 14.0523 0.5 13.5 0.5H1.5C0.947716 0.5 0.5 0.947716 0.5 1.5V13.5Z" fill="var(--mw-icon-background-default-white, #FFFFFF)"/>
<path d="M4.11749 3.5C2.48996 3.5 2.61996 14 2.61996 14H3.61743H5.61502C5.61502 14 5.74502 3.5 4.11749 3.5Z" fill="var(--mw-icon-background-default-medium-gray, #D9D9D9)"/>
<path d="M2.50247 14C2.50247 14 2.37247 3.5 4 3.5C5.62753 3.5 5.49753 14 5.49753 14" stroke="var(--mw-icon-glyph-disabled-gray, #888889)"/>
<path d="M7.5 10.5C3.5 10.5 2.5 14.5 2.5 14.5H7.5H12.5C12.5 14.5 11.5 10.5 7.5 10.5Z" fill="var(--mw-icon-background-medium-blue, #83CAFF)"/>
<path d="M2.5 14.5C2.5 14.5 3.5 10.5 7.5 10.5C11.5 10.5 12.5 14.5 12.5 14.5" stroke="#0072BD"/>
<path d="M0.5 13.5V1.5C0.5 0.947715 0.947716 0.5 1.5 0.5H13.5C14.0523 0.5 14.5 0.947716 14.5 1.5V13.5C14.5 14.0523 14.0523 14.5 13.5 14.5H1.5C0.947715 14.5 0.5 14.0523 0.5 13.5Z" stroke="var(--mw-icon-border-default-gray, #616161)" stroke-linecap="round"/>
</svg>
