<svg width="16" height="16" viewBox="0 0 16 16" fill="none" xmlns="http://www.w3.org/2000/svg">
<path d="M0.5 2.5C0.5 1.39543 1.39543 0.5 2.5 0.5H12.5C13.6046 0.5 14.5 1.39543 14.5 2.5V12.5C14.5 13.6046 13.6046 14.5 12.5 14.5H2.5C1.39543 14.5 0.5 13.6046 0.5 12.5V2.5Z" fill="var(--mw-icon-background-default-white, #FFFFFF)" stroke="var(--mw-icon-border-default-gray, #616161)"/>
<path d="M10.5 10.5H10C10 10.7022 10.1218 10.8845 10.3087 10.9619C10.4955 11.0393 10.7106 10.9966 10.8536 10.8536L10.5 10.5ZM12.8536 8.85355L13.2071 8.5L12.5 7.79289L12.1464 8.14645L12.8536 8.85355ZM10 9V10.5H11V9H10ZM10.8536 10.8536L12.8536 8.85355L12.1464 8.14645L10.1464 10.1464L10.8536 10.8536Z" fill="var(--mw-icon-glyph-content-green, #008014)"/>
<path d="M10.5 6.5L12.5 4.5M12.5 6.5L10.5 4.5" stroke="var(--mw-icon-alert-red, #B7313C)" stroke-linecap="square"/>
<path d="M2.5 5.5H7.5M2.5 9.5H7.5" stroke="var(--mw-icon-glyph-content-gray, #616162)" stroke-linecap="square"/>
</svg>
