<svg width="16" height="16" viewBox="0 0 16 16" fill="none" xmlns="http://www.w3.org/2000/svg">
<path d="M1 1H14V14H1V1Z" fill="var(--mw-icon-background-default-white, #FFFFFF)"/>
<path d="M14.5 9.5C8.75 8.61538 10.3775 5.5 7.5 5.5C4.62247 5.5 6.25 8.61538 0.5 9.5" stroke="#D95319"/>
<path d="M14.5 12.5C8.75 10.7308 10.3775 2.5 7.5 2.5C4.62247 2.5 6.25 10.7308 0.5 12.5" stroke="#0072BD"/>
<path d="M0.5 1.5C0.5 0.947716 0.947715 0.5 1.5 0.5H13.5C14.0523 0.5 14.5 0.947715 14.5 1.5V13.5C14.5 14.0523 14.0523 14.5 13.5 14.5H1.5C0.947716 14.5 0.5 14.0523 0.5 13.5V1.5Z" stroke="var(--mw-icon-border-default-gray, #616161)" stroke-linejoin="round"/>
</svg>
