<svg width="16" height="16" viewBox="0 0 16 16" fill="none" xmlns="http://www.w3.org/2000/svg">
<path d="M0.5 1.5C0.5 0.947715 0.947715 0.5 1.5 0.5H14.5C15.0523 0.5 15.5 0.947715 15.5 1.5V14.5C15.5 15.0523 15.0523 15.5 14.5 15.5H1.5C0.947715 15.5 0.5 15.0523 0.5 14.5V1.5Z" fill="var(--mw-icon-background-default-white, #FFFFFF)" stroke="var(--mw-icon-border-default-gray, #616161)"/>
<path d="M5.22473 3.61844C6.43569 3.16227 7.13205 3 7.64407 3C7.80555 3 7.9693 3.03066 8.12404 3.12213C8.27838 3.21336 8.39878 3.35029 8.49706 3.51976C8.68462 3.84315 8.82143 4.34007 8.95942 5.04003L9.04299 5.45466C9.54655 4.68825 9.9702 4.12656 10.3609 3.738C10.8639 3.23782 11.3373 3 11.8757 3C12.1766 3 12.457 3.0987 12.6667 3.295C12.8794 3.49418 13 3.77689 13 4.09651C13 4.38927 12.9057 4.66033 12.7254 4.86042C12.544 5.06166 12.2923 5.17236 12.0141 5.17236C11.7528 5.17236 11.5529 5.05426 11.4182 4.97469L11.386 4.95574C11.2448 4.87351 11.1402 4.82125 10.9858 4.82125L10.992 4.82134C10.992 4.82134 10.9483 4.8333 10.8506 4.91572C10.7441 5.0056 10.6103 5.14947 10.4518 5.35341C10.1473 5.74504 9.77794 6.32356 9.36598 7.06979C9.37785 7.20264 9.41644 7.44401 9.51019 7.83568L9.51102 7.83913L10.143 10.6032L10.1434 10.6049C10.2094 10.8806 10.2765 11.0418 10.3366 11.1288C10.3855 11.1994 10.4117 11.1994 10.4321 11.1994C10.4637 11.1994 10.5131 11.1937 10.6196 11.0978C10.7356 10.9933 10.8861 10.8119 11.113 10.5029C11.1718 10.421 11.2213 10.3504 11.2676 10.2843C11.3534 10.1619 11.4286 10.0546 11.5333 9.91787L11.7037 9.69539L12.5154 10.2041L12.3359 10.495C11.7629 11.4238 11.3289 12.0447 10.9311 12.4322C10.5148 12.8377 10.1247 13 9.661 13C9.27657 13 8.94893 12.8818 8.69311 12.5713C8.45787 12.2857 8.31049 11.8677 8.18974 11.3423L7.7751 9.5652L6.43168 11.4627C5.99271 12.0775 5.64905 12.4682 5.31791 12.6998C4.96713 12.9451 4.64893 13 4.30231 13C3.94601 13 3.62044 12.9041 3.378 12.6912C3.12854 12.4722 3 12.1576 3 11.8002C3 11.2245 3.39818 10.7244 3.98593 10.7244C4.24809 10.7244 4.50612 10.8443 4.76571 10.9903L4.7785 10.9975C4.85829 11.0475 4.93632 11.0843 5.0033 11.1076C5.06021 11.1274 5.10011 11.1347 5.12107 11.1367C5.12777 11.1339 5.14088 11.1276 5.1611 11.1146C5.2071 11.0851 5.2691 11.0341 5.34599 10.9561C5.4993 10.8005 5.68411 10.5659 5.88557 10.2653L7.42543 7.99008L6.90386 5.57749C6.83532 5.27073 6.77714 5.03885 6.7221 4.8637C6.66625 4.686 6.61917 4.58493 6.5798 4.52597C6.54617 4.4756 6.52209 4.46129 6.5001 4.45247C6.46733 4.43931 6.41193 4.42884 6.29946 4.42884C6.18375 4.42884 5.97952 4.46047 5.60903 4.56222L4.92771 4.75989L4.92798 3.73114L5.22473 3.61844Z" fill="var(--mw-icon-glyph-content-gray, #616162)"/>
</svg>
