<svg width="16" height="16" viewBox="0 0 16 16" fill="none" xmlns="http://www.w3.org/2000/svg">
<path d="M0.5 1.5C0.5 0.947715 0.947715 0.5 1.5 0.5H11.5C12.0523 0.5 12.5 0.947715 12.5 1.5V11.5C12.5 12.0523 12.0523 12.5 11.5 12.5H1.5C0.947715 12.5 0.5 12.0523 0.5 11.5V1.5Z" fill="var(--mw-icon-background-light-yellow, #FFF5BC)" stroke="var(--mw-icon-border-default-blue, #1656A7)"/>
<path d="M2.5 3.5C2.5 2.94772 2.94772 2.5 3.5 2.5H14.5C15.0523 2.5 15.5 2.94772 15.5 3.5V14.5C15.5 15.0523 15.0523 15.5 14.5 15.5H3.5C2.94772 15.5 2.5 15.0523 2.5 14.5V3.5Z" fill="var(--mw-icon-background-light-yellow, #FFF5BC)" stroke="var(--mw-icon-border-default-blue, #1656A7)"/>
<path d="M4.5 7.5H7.5V4.5M4.5 4.5L7 7M13.5 10.5H10.5V13.5M13.5 13.5L11 11" stroke="var(--mw-icon-glyph-content-dark-gray, #333333)" stroke-linecap="square" stroke-linejoin="round"/>
</svg>
