<svg width="16" height="16" viewBox="0 0 16 16" fill="none" xmlns="http://www.w3.org/2000/svg">
<path d="M11.5 6.5V1C11.5 0.723858 11.2761 0.5 11 0.5H1C0.723858 0.5 0.5 0.723858 0.5 1V9C0.5 9.27614 0.723858 9.5 1 9.5H4.5" stroke="var(--mw-icon-object-primary, #616160)"/>
<path d="M2 2.5H10" stroke="var(--mw-icon-glyph-disabled-gray, #888889)"/>
<path d="M10 1.5C10.5523 1.5 11 1.94772 11 2.5C11 3.05228 10.5523 3.5 10 3.5C9.44772 3.5 9 3.05228 9 2.5C9 1.94772 9.44772 1.5 10 1.5Z" fill="var(--mw-icon-glyph-disabled-gray, #888889)"/>
<path d="M2 1.5C2.55228 1.5 3 1.94772 3 2.5C3 3.05228 2.55228 3.5 2 3.5C1.44772 3.5 1 3.05228 1 2.5C1 1.94772 1.44772 1.5 2 1.5Z" fill="var(--mw-icon-glyph-disabled-gray, #888889)"/>
<path d="M3 7C3 7 3 2.5 6 2.5C8.37808 2.5 8.87099 5.32762 8.97316 6.5" stroke="var(--mw-icon-object-primary, #616160)" stroke-linecap="round"/>
<path d="M5 3.25V1.75C5 1.61193 5.11193 1.5 5.25 1.5H6.75C6.88807 1.5 7 1.61193 7 1.75V3.25C7 3.38807 6.88807 3.5 6.75 3.5H5.25C5.11193 3.5 5 3.38807 5 3.25Z" fill="var(--mw-icon-object-primary, #616160)"/>
<path d="M2 7.75V6.25C2 6.11193 2.11193 6 2.25 6H3.75C3.88807 6 4 6.11193 4 6.25V7.75C4 7.88807 3.88807 8 3.75 8H2.25C2.11193 8 2 7.88807 2 7.75Z" fill="var(--mw-icon-object-primary, #616160)"/>
<path d="M4.5 15V7C4.5 6.72386 4.72386 6.5 5 6.5H15C15.2761 6.5 15.5 6.72386 15.5 7V15C15.5 15.2761 15.2761 15.5 15 15.5H5C4.72386 15.5 4.5 15.2761 4.5 15Z" stroke="var(--mw-icon-object-primary, #616160)"/>
<path d="M6 8.5H14" stroke="var(--mw-icon-glyph-disabled-gray, #888889)"/>
<path d="M14 7.5C14.5523 7.5 15 7.94772 15 8.5C15 9.05228 14.5523 9.5 14 9.5C13.4477 9.5 13 9.05228 13 8.5C13 7.94772 13.4477 7.5 14 7.5Z" fill="var(--mw-icon-glyph-disabled-gray, #888889)"/>
<path d="M6 7.5C6.55228 7.5 7 7.94772 7 8.5C7 9.05228 6.55228 9.5 6 9.5C5.44772 9.5 5 9.05228 5 8.5C5 7.94772 5.44772 7.5 6 7.5Z" fill="var(--mw-icon-glyph-disabled-gray, #888889)"/>
<path d="M12.9999 13C12.9999 13 13 8.5 10 8.5C7 8.5 7 13 7 13" stroke="var(--mw-icon-object-primary, #616160)" stroke-linecap="round"/>
<path d="M9 9.25V7.75C9 7.61193 9.11193 7.5 9.25 7.5H10.75C10.8881 7.5 11 7.61193 11 7.75V9.25C11 9.38807 10.8881 9.5 10.75 9.5H9.25C9.11193 9.5 9 9.38807 9 9.25Z" fill="var(--mw-icon-object-primary, #616160)"/>
<path d="M6 13.75V12.25C6 12.1119 6.11193 12 6.25 12H7.75C7.88807 12 8 12.1119 8 12.25V13.75C8 13.8881 7.88807 14 7.75 14H6.25C6.11193 14 6 13.8881 6 13.75Z" fill="var(--mw-icon-object-primary, #616160)"/>
<path d="M12 13.75V12.25C12 12.1119 12.1119 12 12.25 12H13.75C13.8881 12 14 12.1119 14 12.25V13.75C14 13.8881 13.8881 14 13.75 14H12.25C12.1119 14 12 13.8881 12 13.75Z" fill="var(--mw-icon-object-primary, #616160)"/>
</svg>
