<svg width="16" height="16" viewBox="0 0 16 16" fill="none" xmlns="http://www.w3.org/2000/svg">
<path d="M13.5 0.5H1.5C0.947715 0.5 0.5 0.947716 0.5 1.5V13.5C0.5 14.0523 0.947716 14.5 1.5 14.5H13.5C14.0523 14.5 14.5 14.0523 14.5 13.5V1.5C14.5 0.947715 14.0523 0.5 13.5 0.5Z" fill="var(--mw-icon-background-default-white, #FFFFFF)" stroke="var(--mw-icon-border-default-gray, #616161)" stroke-linecap="round"/>
<path d="M10.1471 12.5L2.5 12.5L9.55883 9.85294C9.55883 9.85294 11.3235 10.1471 11.3235 11.3235C11.3235 12.5 10.1471 12.5 10.1471 12.5Z" fill="var(--mw-icon-background-default-selection, #B4DEFF)" stroke="var(--mw-icon-border-default-blue, #1656A7)"/>
<path d="M9.61467 7.39347L3.08823 11.9118L9.85294 11.0294C10.4864 10.945 12.5 10.7353 12.5 8.9706C12.5 7.50001 11.4664 7.46012 10.7353 6.91177C10.0841 6.4234 10.2839 6.93016 9.61467 7.39347Z" fill="var(--mw-icon-background-default-selection, #B4DEFF)" stroke="var(--mw-icon-border-default-blue, #1656A7)"/>
<path d="M2.5 4.85295V12.5L5.14706 5.44118C5.14706 5.44118 4.85294 3.67648 3.67647 3.67648C2.5 3.67648 2.5 4.85295 2.5 4.85295Z" fill="var(--mw-icon-background-default-selection, #B4DEFF)" stroke="var(--mw-icon-border-default-blue, #1656A7)"/>
<path d="M7.60653 5.38533L3.08823 11.9118L3.97058 5.14706C4.05503 4.51365 4.2647 2.5 6.0294 2.5C7.49999 2.5 7.53988 3.53358 8.08823 4.26471C8.5766 4.91587 8.06984 4.7161 7.60653 5.38533Z" fill="var(--mw-icon-background-default-selection, #B4DEFF)" stroke="var(--mw-icon-border-default-blue, #1656A7)"/>
<path d="M2.5 12.5L6.36683 4.41784C6.87653 3.2528 8.02758 2.5 9.29923 2.5C11.067 2.5 12.5 3.93303 12.5 5.70077C12.5 6.97242 11.7472 8.12347 10.5822 8.63317L2.5 12.5Z" fill="var(--mw-icon-background-default-selection, #B4DEFF)" stroke="var(--mw-icon-border-default-blue, #1656A7)" stroke-linejoin="round"/>
</svg>
