<svg width="16" height="16" viewBox="0 0 16 16" fill="none" xmlns="http://www.w3.org/2000/svg">
<path d="M0.5 12.5V2.5C0.5 1.39543 1.39543 0.5 2.5 0.5H12.5C13.6046 0.5 14.5 1.39543 14.5 2.5V12.5C14.5 13.6046 13.6046 14.5 12.5 14.5H2.5C1.39543 14.5 0.5 13.6046 0.5 12.5Z" fill="var(--mw-icon-background-default-selection, #B4DEFF)"/>
<rect x="8" y="1" width="2" height="2" fill="var(--mw-icon-background-default-selection, #B4DEFF)"/>
<rect x="8" y="5" width="2" height="2" fill="var(--mw-icon-background-medium-blue, #83CAFF)"/>
<rect x="8" y="9" width="2" height="2" fill="var(--mw-icon-glyph-content-dark-green, #02580E)"/>
<rect x="10" y="11" width="2" height="2" fill="#3AC831"/>
<rect x="8" y="3" width="2" height="2" fill="#54B6FF"/>
<rect x="8" y="7" width="2" height="2" fill="#3AC831"/>
<rect x="12" y="11" width="2" height="2" fill="#94EF84"/>
<rect x="10" y="1" width="2" height="2" fill="var(--mw-icon-background-medium-blue, #83CAFF)"/>
<rect x="10" y="5" width="2" height="2" fill="#54B6FF"/>
<rect x="10" y="9" width="2" height="2" fill="#94EF84"/>
<rect x="8" y="11" width="2" height="2" fill="var(--mw-icon-glyph-content-green, #008014)"/>
<rect x="10" y="3" width="2" height="2" fill="#1171BE"/>
<rect x="10" y="7" width="2" height="2" fill="var(--mw-icon-glyph-content-green, #008014)"/>
<path d="M12 13H14V14H12V13Z" fill="var(--mw-icon-glyph-content-green, #008014)"/>
<rect x="12" y="1" width="2" height="2" fill="#54B6FF"/>
<rect x="12" y="5" width="2" height="2" fill="#3AC831"/>
<rect x="12" y="9" width="2" height="2" fill="#3AC831"/>
<rect x="8" y="13" width="2" height="1" fill="#3AC831"/>
<rect x="12" y="3" width="2" height="2" fill="var(--mw-icon-background-default-selection, #B4DEFF)"/>
<rect x="12" y="7" width="2" height="2" fill="var(--mw-icon-glyph-content-dark-green, #02580E)"/>
<rect x="10" y="13" width="2" height="1" fill="var(--mw-icon-glyph-content-dark-green, #02580E)"/>
<path d="M8 5.19184C7.10521 3.98943 6.12776 3 5.29545 3C4.07309 3 3.059 5.09068 2.41313 6.42222C2.13434 6.99697 1.92416 7.43029 1.79545 7.49296C1.47727 7.64789 0.159091 7.33803 0 7.02817L0.5 12.5C0.5 13.8807 1.11929 14.5 2.5 14.5H8V5.19184Z" fill="var(--mw-icon-glyph-content-green, #008014)"/>
<path d="M7.5 0.5V14.5" stroke="var(--mw-icon-border-default-gray, #616161)"/>
<path d="M0.5 12.5V2.5C0.5 1.39543 1.39543 0.5 2.5 0.5H12.5C13.6046 0.5 14.5 1.39543 14.5 2.5V12.5C14.5 13.6046 13.6046 14.5 12.5 14.5H2.5C1.39543 14.5 0.5 13.6046 0.5 12.5Z" stroke="var(--mw-icon-border-default-gray, #616161)" stroke-linecap="round"/>

</svg>
