<svg width="16" height="16" viewBox="0 0 16 16" fill="none" xmlns="http://www.w3.org/2000/svg">
<path d="M14.5 2.5H1.5C0.947715 2.5 0.5 2.94772 0.5 3.5V14.5C0.5 15.0523 0.947715 15.5 1.5 15.5H14.5C15.0523 15.5 15.5 15.0523 15.5 14.5V3.5C15.5 2.94772 15.0523 2.5 14.5 2.5Z" fill="var(--mw-icon-background-default-white, #FFFFFF)" stroke="var(--mw-icon-border-default-gray, #616161)" stroke-linejoin="round"/>
<path d="M2.5 7.5V0.5H6.5V7.5L4.5 5.5L2.5 7.5Z" fill="var(--mw-icon-background-default-dark-gray, #A6A6A6)" stroke="var(--mw-icon-border-default-gray, #616161)" stroke-linejoin="round"/>
<path d="M13.5 8H9.5C9.22386 8 9 7.77614 9 7.5V4.5C9 4.22386 9.22386 4 9.5 4H13.5C13.7761 4 14 4.22386 14 4.5V7.5C14 7.77614 13.7761 8 13.5 8Z" fill="var(--mw-icon-background-default-dark-gray, #A6A6A6)"/>
<path d="M13.5 14H9.5C9.22386 14 9 13.7761 9 13.5V10.5C9 10.2239 9.22386 10 9.5 10H13.5C13.7761 10 14 10.2239 14 10.5V13.5C14 13.7761 13.7761 14 13.5 14Z" fill="var(--mw-icon-background-default-dark-gray, #A6A6A6)"/>
<path d="M6.5 14H2.5C2.22386 14 2 13.7761 2 13.5V10.5C2 10.2239 2.22386 10 2.5 10H6.5C6.77614 10 7 10.2239 7 10.5V13.5C7 13.7761 6.77614 14 6.5 14Z" fill="var(--mw-icon-background-default-dark-gray, #A6A6A6)"/>
</svg>
