<svg width="16" height="16" viewBox="0 0 16 16" fill="none" xmlns="http://www.w3.org/2000/svg">
<path d="M0.5 12.5V2.5C0.5 1.39543 1.39543 0.5 2.5 0.5H12.5C13.6046 0.5 14.5 1.39543 14.5 2.5V12.5C14.5 13.6046 13.6046 14.5 12.5 14.5H2.5C1.39543 14.5 0.5 13.6046 0.5 12.5Z" fill="var(--mw-icon-background-default-white, white)"/>
<path d="M2.5 4.5V7.5L7.5 9.5V6.5L2.5 4.5Z" fill="#94EF84" stroke="var(--mw-icon-glyph-content-dark-gray, #333333)" stroke-linecap="round" stroke-linejoin="round"/>
<path d="M2.5 7.5V10.5L5 11.5V8.5L2.5 7.5Z" fill="#FF453A" stroke="var(--mw-icon-glyph-content-dark-gray, #333333)" stroke-linecap="round" stroke-linejoin="round"/>
<path d="M12.5 4.5V7.5L10 8.5V5.5L12.5 4.5Z" fill="#54B6FF" stroke="var(--mw-icon-glyph-content-dark-gray, #333333)" stroke-linecap="round" stroke-linejoin="round"/>
<path d="M5 8.5V11.5L7.5 12.5V9.5L5 8.5Z" fill="#FFD60A" stroke="var(--mw-icon-glyph-content-dark-gray, #333333)" stroke-linecap="round" stroke-linejoin="round"/>
<path d="M10 5.5V8.5L7.5 9.5V6.5L10 5.5Z" fill="#3AC831" stroke="var(--mw-icon-glyph-content-dark-gray, #333333)" stroke-linecap="round" stroke-linejoin="round"/>
<path d="M12.5 7.5V10.5L7.5 12.5V9.5L12.5 7.5Z" fill="#F57729" stroke="var(--mw-icon-glyph-content-dark-gray, #333333)" stroke-linecap="round" stroke-linejoin="round"/>
<path d="M7.5 2.5L2.5 4.5L7.5 6.5L12.5 4.5L7.5 2.5Z" fill="var(--mw-icon-background-default-action, #CBFFBE)" stroke="var(--mw-icon-glyph-content-dark-gray, #333333)" stroke-linecap="round" stroke-linejoin="round"/>
<path d="M0.5 12.5V2.5C0.5 1.39543 1.39543 0.5 2.5 0.5H12.5C13.6046 0.5 14.5 1.39543 14.5 2.5V12.5C14.5 13.6046 13.6046 14.5 12.5 14.5H2.5C1.39543 14.5 0.5 13.6046 0.5 12.5Z" stroke="var(--mw-icon-border-default-gray, #616161)" stroke-linecap="round"/>

</svg>
