<svg width="16" height="16" viewBox="0 0 16 16" fill="none" xmlns="http://www.w3.org/2000/svg">
<path d="M15.5 11.5L10 0.5L4.5 11.5H15.5Z" fill="var(--mw-icon-object-secondary, #FFFFFE)" stroke="var(--mw-icon-object-primary, #616160)" stroke-linejoin="round"/>
<path d="M9 5.5C9 5.22386 9.22386 5 9.5 5H10.5C10.7761 5 11 5.22386 11 5.5V7.5C11 7.77614 10.7761 8 10.5 8H9.5C9.22386 8 9 7.77614 9 7.5V5.5Z" fill="var(--mw-icon-object-primary, #616160)"/>
<path d="M9 9.5C9 9.22386 9.22386 9 9.5 9H10.5C10.7761 9 11 9.22386 11 9.5C11 9.77614 10.7761 10 10.5 10H9.5C9.22386 10 9 9.77614 9 9.5Z" fill="var(--mw-icon-object-primary, #616160)"/>
<path d="M11.5 15.5L6 4.5L0.5 15.5H11.5Z" fill="var(--mw-icon-object-secondary, #FFFFFE)" stroke="var(--mw-icon-object-primary, #616160)" stroke-linejoin="round"/>
<path d="M5 9.5C5 9.22386 5.22386 9 5.5 9H6.5C6.77614 9 7 9.22386 7 9.5V11.5C7 11.7761 6.77614 12 6.5 12H5.5C5.22386 12 5 11.7761 5 11.5V9.5Z" fill="var(--mw-icon-object-primary, #616160)"/>
<path d="M5 13.5C5 13.2239 5.22386 13 5.5 13H6.5C6.77614 13 7 13.2239 7 13.5C7 13.7761 6.77614 14 6.5 14H5.5C5.22386 14 5 13.7761 5 13.5Z" fill="var(--mw-icon-object-primary, #616160)"/>
</svg>
