<svg width="16" height="16" viewBox="0 0 16 16" fill="none" xmlns="http://www.w3.org/2000/svg">
<path d="M4.5 12.5V0.5L14.5 6.5L4.5 12.5Z" fill="var(--mw-icon-background-default-action, #CBFFBE)" stroke="var(--mw-icon-border-default-green, #008013)" stroke-linejoin="round"/>
<path d="M5.5 6.5L10 14.5H1L5.5 6.5Z" fill="var(--mw-icon-background-medium-yellow, #FFEF91)" stroke="#674C06" stroke-linecap="square" stroke-linejoin="round"/>
<path d="M6 12.5C6 12.7773 5.77614 12.9999 5.5 12.9999C5.22386 12.9999 5 12.7852 5 12.5C5 12.2148 5.22386 12 5.5 12C5.79688 12 6 12.2227 6 12.5Z" fill="var(--mw-icon-glyph-content-yellow, #674C07)"/>
<path fill-rule="evenodd" clip-rule="evenodd" d="M5.5 9C5.77614 9 6 9.3422 6 9.5V11C6 11.1578 5.77614 11.5 5.5 11.5C5.22386 11.5 5 11.1578 5 11V9.5C5 9.3422 5.22386 9 5.5 9Z" fill="var(--mw-icon-glyph-content-yellow, #674C07)"/>
</svg>
