<svg width="16" height="16" viewBox="0 0 16 16" fill="none" xmlns="http://www.w3.org/2000/svg">
<rect x="0.5" y="0.5" width="10" height="10" rx="1" fill="var(--mw-icon-background-light-yellow, #FFF5BC)" stroke="var(--mw-icon-border-default-blue, #1656A7)"/>
<path d="M1.49988 5.49999H9.49988M5.50003 1.5L5.50003 9.5" stroke="var(--mw-icon-glyph-content-light-blue, #278CDD)" stroke-linecap="square"/>
<path d="M5.5 15.5L10.5 6.5L15.5 15.5H5.5Z" fill="var(--mw-icon-background-medium-yellow, #FFEF91)" stroke="#674C06" stroke-linejoin="round"/>
<path d="M10 13.5C10 13.7761 10.2239 14 10.5 14C10.7761 14 11 13.7761 11 13.5C11 13.2239 10.7761 13 10.5 13C10.2239 13 10 13.2239 10 13.5Z" fill="var(--mw-icon-glyph-content-yellow, #674C07)"/>
<path d="M11 9.5C11 9.22386 10.7761 9 10.5 9C10.2239 9 10 9.22386 10 9.5V11.5C10 11.7761 10.2239 12 10.5 12C10.7761 12 11 11.7761 11 11.5V9.5Z" fill="var(--mw-icon-glyph-content-yellow, #674C07)"/>
</svg>
