<svg width="16" height="16" viewBox="0 0 16 16" fill="none" xmlns="http://www.w3.org/2000/svg">
<path d="M12.5 6.5L6.5 10.5L0.5 6.5L6.5 2.5L12.5 6.5Z" stroke="var(--mw-icon-object-primary, #616160)" stroke-linejoin="round"/>
<path d="M6.5 12.5V10.5" stroke="var(--mw-icon-object-primary, #616160)" stroke-linecap="round"/>
<path d="M6.5 2.5V0.5" stroke="var(--mw-icon-object-primary, #616160)" stroke-linecap="round"/>
<path d="M4.5 15.5L9.5 6.5L14.5 15.5H4.5Z" fill="var(--mw-icon-background-medium-yellow, #FFEF91)" stroke="#674C06" stroke-linejoin="round"/>
<path d="M9 13.5C9 13.7761 9.22386 14 9.5 14C9.77614 14 10 13.7761 10 13.5C10 13.2239 9.77614 13 9.5 13C9.22386 13 9 13.2239 9 13.5Z" fill="var(--mw-icon-glyph-content-yellow, #674C07)"/>
<path d="M10 9.5C10 9.22386 9.77614 9 9.5 9C9.22386 9 9 9.22386 9 9.5V11.5C9 11.7761 9.22386 12 9.5 12C9.77614 12 10 11.7761 10 11.5V9.5Z" fill="var(--mw-icon-glyph-content-yellow, #674C07)"/>
</svg>
