<svg width="16" height="16" viewBox="0 0 16 16" fill="none" xmlns="http://www.w3.org/2000/svg">
<path d="M0.5 12.5V2.5C0.5 1.39543 1.39543 0.5 2.5 0.5H12.5C13.6046 0.5 14.5 1.39543 14.5 2.5V12.5C14.5 13.6046 13.6046 14.5 12.5 14.5H2.5C1.39543 14.5 0.5 13.6046 0.5 12.5Z" fill="#00A3A3"/>
<path d="M0.5 5.86364L3.3 3L5.78889 10L8.9 6.18182L11.3889 8.72727L14.5 3.63636" stroke="#013A3E" stroke-miterlimit="10"/>
<path d="M0.5 10.5455C0.5 10.5455 1.77273 8 4.31818 8C6.86364 8 7.5 11.8182 10.0455 11.8182C11.7103 11.7325 13.2898 11.0556 14.5 9.90909" stroke="var(--mw-icon-background-default-white, white)" stroke-miterlimit="10"/>
<path d="M0.5 12.5V2.5C0.5 1.39543 1.39543 0.5 2.5 0.5H12.5C13.6046 0.5 14.5 1.39543 14.5 2.5V12.5C14.5 13.6046 13.6046 14.5 12.5 14.5H2.5C1.39543 14.5 0.5 13.6046 0.5 12.5Z" stroke="#02555C" stroke-linecap="round"/>

</svg>
