<svg width="16" height="16" viewBox="0 0 16 16" fill="none" xmlns="http://www.w3.org/2000/svg">
<path d="M0.5 12.5V2.5C0.5 1.39543 1.39543 0.5 2.5 0.5H12.5C13.6046 0.5 14.5 1.39543 14.5 2.5V12.5C14.5 13.6046 13.6046 14.5 12.5 14.5H2.5C1.39543 14.5 0.5 13.6046 0.5 12.5Z" fill="var(--mw-icon-background-default-selection, #B4DEFF)"/>
<path d="M8 8H14V13C14 13.5523 13.5523 14 13 14H8V8Z" fill="var(--mw-icon-border-default-gray, #616161)"/>
<path d="M8 11.2772V14H13C13.5523 14 14 13.5523 14 13V11.2772C12 11.2772 13 14 12 11.2772C10.4716 7.1157 8.66667 9.61328 8 11.2772Z" fill="var(--mw-icon-background-default-white, #FFFFFF)"/>
<path d="M1 11V13.5C1 13.7761 1.22386 14 1.5 14H7V11H6V12H5V10H4V9H3V10H2V11H1Z" fill="var(--mw-icon-glyph-content-green, #008014)"/>
<path d="M1.79545 5.99296C1.47727 6.14789 0.159091 5.83803 0 5.52817L0.367908 6.43758C0.749947 7.38191 1.66675 8 2.68544 8H3H13H15V6.30282C14.4697 5.47653 13.2182 3.82394 12.4545 3.82394C11.6909 3.82394 10.5985 5.88967 10.0682 6.92254C9.00758 5.11502 6.88636 1.5 5.29545 1.5C3.54545 1.5 2.22234 5.7851 1.79545 5.99296Z" fill="var(--mw-icon-glyph-content-green, #008014)"/>
<path d="M7.5 8L7.5 14" stroke="var(--mw-icon-border-default-gray, #616161)"/>
<path d="M0.5 7.5H14.5" stroke="var(--mw-icon-border-default-gray, #616161)"/>
<path d="M0.5 12.5V2.5C0.5 1.39543 1.39543 0.5 2.5 0.5H12.5C13.6046 0.5 14.5 1.39543 14.5 2.5V12.5C14.5 13.6046 13.6046 14.5 12.5 14.5H2.5C1.39543 14.5 0.5 13.6046 0.5 12.5Z" stroke="var(--mw-icon-border-default-gray, #616161)" stroke-linecap="round"/>
</svg>
