<svg width="16" height="16" viewBox="0 0 16 16" fill="none" xmlns="http://www.w3.org/2000/svg">
<path d="M0.5 12.5V2.5C0.5 1.39543 1.39543 0.5 2.5 0.5H12.5C13.6046 0.5 14.5 1.39543 14.5 2.5V12.5C14.5 13.6046 13.6046 14.5 12.5 14.5H2.5C1.39543 14.5 0.5 13.6046 0.5 12.5Z" fill="#00A3A3"/>
<path d="M2 2L13 2V7.5C13 10.5376 10.5376 13 7.5 13C4.46243 13 2 10.5376 2 7.5L2 2Z" fill="#4852F4"/>
<rect x="2" y="2" width="2" height="4" fill="#FEC338"/>
<rect x="5" y="3" width="1" height="1" fill="#FEC338"/>
<rect x="6" y="2" width="2" height="4" fill="#FEC338"/>
<rect x="4" y="2" width="1" height="4" fill="#ABC739"/>
<rect x="5" y="2" width="1" height="4" fill="#ABC739"/>
<rect x="8" y="2" width="2" height="4" fill="#ABC739"/>
<rect x="8" y="6" width="2" height="7" fill="#37C897"/>
<path d="M2 7H4V12L3 11.375L2 7Z" fill="#4852F4"/>
<rect x="2" y="6" width="2" height="2" fill="#ABC739"/>
<rect x="6" y="6" width="2" height="7" fill="#2E87F7"/>
<path d="M11 5H13V11L11 12V5Z" fill="#3E26A8"/>
<path d="M4 6H6V13L4 12.0455V6Z" fill="#3E26A8"/>
<rect x="10" y="5" width="1" height="6" fill="#4852F4"/>
<rect x="10" y="2" width="3" height="3" fill="#FEC338"/>
<path d="M2 1.5H1.5V2L1.5 7.5C1.5 10.8137 4.18629 13.5 7.5 13.5C10.8137 13.5 13.5 10.8137 13.5 7.5V2V1.5H13L2 1.5Z" stroke="var(--mw-icon-background-default-white, white)"/>
<path d="M0.5 12.5V2.5C0.5 1.39543 1.39543 0.5 2.5 0.5H12.5C13.6046 0.5 14.5 1.39543 14.5 2.5V12.5C14.5 13.6046 13.6046 14.5 12.5 14.5H2.5C1.39543 14.5 0.5 13.6046 0.5 12.5Z" stroke="#02555C" stroke-linecap="round"/>

</svg>
