<svg width="16" height="16" viewBox="0 0 16 16" fill="none" xmlns="http://www.w3.org/2000/svg">
<path d="M0.5 12.5V2.5C0.5 1.39543 1.39543 0.5 2.5 0.5H12.5C13.6046 0.5 14.5 1.39543 14.5 2.5V12.5C14.5 13.6046 13.6046 14.5 12.5 14.5H2.5C1.39543 14.5 0.5 13.6046 0.5 12.5Z" fill="#00A3A3"/>
<path d="M0.5 7.5H14.5" stroke="#013A3E"/>
<path d="M3 7L3 5" stroke="#013A3E" stroke-width="2"/>
<path d="M13 8L13 10" stroke="#013A3E" stroke-width="2"/>
<path d="M7 7L7 4" stroke="#013A3E" stroke-width="2"/>
<path d="M9 8L9 11" stroke="#013A3E" stroke-width="2"/>
<path d="M5 7L5 2" stroke="var(--mw-icon-background-default-white, #FFFFFF)" stroke-width="2"/>
<path d="M11 8L11 13" stroke="white" stroke-width="2"/>
<path d="M0.5 12.5V2.5C0.5 1.39543 1.39543 0.5 2.5 0.5H12.5C13.6046 0.5 14.5 1.39543 14.5 2.5V12.5C14.5 13.6046 13.6046 14.5 12.5 14.5H2.5C1.39543 14.5 0.5 13.6046 0.5 12.5Z" stroke="#02555C" stroke-linecap="round"/>
</svg>
