<svg width="17" height="16" viewBox="0 0 17 16" fill="none" xmlns="http://www.w3.org/2000/svg">
<rect x="0.5" y="0.5" width="14" height="14" rx="2" fill="var(--mw-icon-background-brown, #DC996C)"/>
<rect y="3" width="15" height="1" fill="var(--mw-icon-border-default-brown, #5F1B08)"/>
<rect x="7" y="1" width="1" height="2" fill="var(--mw-icon-border-default-brown, #5F1B08)"/>
<rect x="2" y="11" width="1" height="2" fill="var(--mw-icon-glyph-content-brown, #5F1B18)"/>
<rect x="4" y="11" width="1" height="2" fill="var(--mw-icon-glyph-content-brown, #5F1B18)"/>
<rect x="5.5" y="4.5" width="8" height="8" rx="4" fill="var(--mw-icon-background-default-selection, #B4DEFF)" stroke="var(--mw-icon-glyph-content-blue, #1656A8)"/>
<path d="M6 7H13.5M13.5 10H5.5M11 8.5C11 10.9162 10.5355 12.5 9.5 12.5C8.46447 12.5 8 10.9162 8 8.5C8 6.08375 8.46447 4.5 9.5 4.5C10.5355 4.5 11 6.08375 11 8.5Z" stroke="var(--mw-icon-glyph-content-blue, #1656A8)"/>
<rect x="0.5" y="0.5" width="14" height="14" rx="2" stroke="var(--mw-icon-border-default-brown, #5F1B08)"/>
</svg>
