<svg width="16" height="16" viewBox="0 0 16 16" fill="none" xmlns="http://www.w3.org/2000/svg">
<path d="M0.5 14.5H14.5V7.5V0.5H0.5V7.5V14.5Z" fill="var(--mw-icon-background-default-white, #FFFFFF)"/>
<path d="M3 5.64706V4.05882L4.5 3L6 4.05882V5.64706L4.5 6.70588L3 5.64706Z" fill="#B7312C"/>
<path d="M6 5.64706V4.05882L7.5 3L9 4.05882V5.64706L7.5 6.70588L6 5.64706Z" fill="var(--mw-icon-glyph-content-red, #902623)"/>
<path d="M3 10.9412V9.35295L4.5 8.29413L6 9.35295V10.9412L4.5 12L3 10.9412Z" fill="var(--mw-icon-background-default-highlight, #FFE864)"/>
<path d="M6 10.9412V9.35295L7.5 8.29413L9 9.35295V10.9412L7.5 12L6 10.9412Z" fill="#FEC04C"/>
<path d="M9 5.64706V4.05882L10.5 3L12 4.05882V5.64706L10.5 6.70588L9 5.64706Z" fill="var(--mw-icon-glyph-content-dark-red, #610908)"/>
<path d="M4.5 8.29409V6.70586L6 5.64703L7.5 6.70586V8.29409L6 9.35292L4.5 8.29409Z" fill="#F57729"/>
<path d="M7.5 8.29409V6.70586L9 5.64703L10.5 6.70586V8.29409L9 9.35292L7.5 8.29409Z" fill="#DD5400"/>
<path d="M9 10.9412V9.35295L10.5 8.29413L12 9.35295V10.9412L10.5 12L9 10.9412Z" fill="#EDB120"/>
<path d="M0.5 1.5C0.5 0.947716 0.947715 0.5 1.5 0.5H13.5C14.0523 0.5 14.5 0.947715 14.5 1.5V13.5C14.5 14.0523 14.0523 14.5 13.5 14.5H1.5C0.947716 14.5 0.5 14.0523 0.5 13.5V1.5Z" stroke="var(--mw-icon-border-default-gray, #616161)" stroke-linejoin="round"/>
</svg>
