<svg width="16" height="16" viewBox="0 0 16 16" fill="none" xmlns="http://www.w3.org/2000/svg">
<path d="M0.5 14.5H14.5V7.5V0.5H0.5V7.5V14.5Z" fill="var(--mw-icon-background-default-white, #FFFFFF)"/>
<path d="M8 7L4 8M8 7V13M8 7L13 5M8 7L12 10M8 7L7 3M8 13L3.5 11.5L4 8M8 13L12 10M4 8L3 3H7M13 5L11 2L7 3M13 5L12 10M13 5L7 3" stroke="#DD5400" stroke-linejoin="round"/>
<circle cx="12.5" cy="12.5" r="0.5" fill="#3BAA32"/>
<circle cx="1.5" cy="8.5" r="0.5" fill="#3BAA32"/>
<circle cx="4.5" cy="1.5" r="0.5" fill="#3BAA32"/>
<circle cx="13.5" cy="2.5" r="0.5" fill="#3BAA32"/>
<circle cx="2.5" cy="13.5" r="0.5" fill="#3BAA32"/>
<circle cx="3" cy="3" r="1" fill="#1171BE"/>
<circle cx="11" cy="2" r="1" fill="#1171BE"/>
<circle cx="7" cy="3" r="1" fill="#1171BE"/>
<circle cx="8" cy="7" r="1" fill="#1171BE"/>
<circle cx="13" cy="5" r="1" fill="#1171BE"/>
<circle cx="8" cy="13" r="1" fill="#1171BE"/>
<circle cx="12" cy="10" r="1" fill="#1171BE"/>
<circle cx="3.5" cy="11.5" r="1" fill="#1171BE"/>
<circle cx="4" cy="8" r="1" fill="#1171BE"/>
<path d="M0.5 1.5C0.5 0.947716 0.947715 0.5 1.5 0.5H13.5C14.0523 0.5 14.5 0.947715 14.5 1.5V13.5C14.5 14.0523 14.0523 14.5 13.5 14.5H1.5C0.947716 14.5 0.5 14.0523 0.5 13.5V1.5Z" stroke="var(--mw-icon-border-default-gray, #616161)" stroke-linejoin="round"/>
</svg>
