<svg width="16" height="16" viewBox="0 0 16 16" fill="none" xmlns="http://www.w3.org/2000/svg">
<path d="M0.5 8.5V11.5H15.5V8.5" stroke="var(--mw-icon-object-primary, #616160)" stroke-miterlimit="10" stroke-linecap="round" stroke-linejoin="round"/>
<path d="M10.1632 9.99928H9.35781V3H10.2665V5.47033C10.4351 5.25789 10.6563 5.08612 10.9115 4.96948C11.1667 4.85284 11.4483 4.79475 11.7327 4.80009C12.0532 4.79662 12.3705 4.85873 12.662 4.98201C12.9468 5.0986 13.198 5.27573 13.3952 5.49906C13.588 5.74376 13.7379 6.01521 13.8392 6.30335C13.9448 6.63268 13.997 6.97473 13.9941 7.31829C14.0419 8.03472 13.7988 8.7418 13.3126 9.30031C13.1121 9.52016 12.8622 9.69666 12.5804 9.81741C12.2985 9.93816 11.9916 10.0002 11.6811 9.99928C11.3776 10.0077 11.0771 9.94122 10.8104 9.80664C10.5437 9.67205 10.3204 9.47418 10.1632 9.23328V9.99928ZM10.1632 7.38532C10.1632 7.83311 10.2234 8.27576 10.4317 8.67794C10.534 8.85748 10.6835 9.01018 10.8665 9.12186C11.0494 9.23355 11.2597 9.30062 11.478 9.31685C11.6963 9.33308 11.9155 9.29796 12.1152 9.21472C12.315 9.13149 12.4889 9.00284 12.6207 8.84071C12.9564 8.4222 13.0751 7.91631 13.0751 7.38532C13.0751 6.85433 12.9668 6.36841 12.6517 5.94908C12.5305 5.80283 12.3738 5.68505 12.1945 5.60522C12.0151 5.52539 11.8181 5.48574 11.6191 5.48948C11.419 5.49094 11.222 5.53484 11.043 5.61782C10.864 5.7008 10.7079 5.82067 10.5866 5.96823C10.2665 6.3781 10.1632 6.86379 10.1632 7.38532Z" fill="var(--mw-icon-object-primary, #616160)"/>
<path d="M2 10L4.83958 3.14435H5.87215L8.8976 10H7.80307L6.9357 7.92224H3.83798L3.02225 10H2ZM4.1271 7.18497H6.63626L5.86183 5.26998C5.63466 4.69549 5.45912 4.21674 5.34554 3.84332C5.24627 4.28916 5.11167 4.7276 4.94284 5.15508L4.1271 7.18497Z" fill="var(--mw-icon-object-primary, #616160)"/>
</svg>
