<svg width="16" height="16" viewBox="0 0 16 16" fill="none" xmlns="http://www.w3.org/2000/svg">
<path d="M7.5 10.5C9.15685 10.5 10.5 9.15685 10.5 7.5C10.5 5.84315 9.15685 4.5 7.5 4.5C5.84315 4.5 4.5 5.84315 4.5 7.5C4.5 9.15685 5.84315 10.5 7.5 10.5Z" fill="var(--mw-icon-object-secondary, #FFFFFE)" stroke="var(--mw-icon-object-primary, #616160)"/>
<path fill-rule="evenodd" clip-rule="evenodd" d="M5 7.5C5 8.88071 6.11929 10 7.5 10V5C6.11929 5 5 6.11929 5 7.5Z" fill="var(--mw-icon-object-primary, #616160)"/>
<path d="M7.5 0.5V2.5M7.5 12.5V14.5M12.5 7.5H14.5M0.5 7.5H2.5M11 4L12.5 2.5M11 11L12.5 12.5M2.5 12.5L4 11M4 4L2.5 2.5" stroke="var(--mw-icon-object-primary, #616160)" stroke-linecap="round"/>
</svg>
