<svg width="16" height="16" viewBox="0 0 16 16" fill="none" xmlns="http://www.w3.org/2000/svg">
<path d="M10.0448 7.19713C10.6623 7.05855 11.2081 6.69084 11.5774 6.16465C11.9466 5.63845 12.1133 4.99088 12.0453 4.34633C11.9774 3.70178 11.6796 3.10571 11.2092 2.67263C10.7388 2.23955 10.129 2 9.49685 2C8.86473 2 8.25489 2.23955 7.7845 2.67263C7.31411 3.10571 7.01633 3.70178 6.94837 4.34633C6.88042 4.99088 7.04708 5.63845 7.41633 6.16465C7.78559 6.69084 8.3314 7.05855 8.94892 7.19713C7.86062 7.33555 6.85898 7.87651 6.13193 8.7185C5.40488 9.56049 5.0024 10.6456 5 11.7703V15H14V11.7703C13.9974 10.6447 13.594 9.5587 12.8657 8.71656C12.1374 7.87443 11.1342 7.3341 10.0448 7.19713Z" fill="var(--mw-icon-object-primary, #616160)"/>
<path d="M3.65503 8.69054C3.56939 8.69236 3.4843 8.67642 3.40513 8.64372C3.32595 8.61102 3.25442 8.56227 3.19503 8.50054C3.13333 8.44086 3.08428 8.36938 3.05077 8.29036C3.01727 8.21133 3 8.12637 3 8.04054C3 7.9547 3.01727 7.86975 3.05077 7.79072C3.08428 7.7117 3.13333 7.64022 3.19503 7.58054C3.91502 6.85233 4.31883 5.86959 4.31883 4.84554C4.31883 3.82149 3.91502 2.83875 3.19503 2.11054C3.07303 1.98854 3.00449 1.82307 3.00449 1.65054C3.00449 1.478 3.07303 1.31254 3.19503 1.19054C3.31703 1.06854 3.48249 1 3.65503 1C3.82756 1 3.99303 1.06854 4.11503 1.19054C5.08414 2.16004 5.62854 3.47473 5.62854 4.84554C5.62854 6.21634 5.08414 7.53104 4.11503 8.50054C4.05528 8.56179 3.98367 8.61022 3.90459 8.64289C3.8255 8.67555 3.74059 8.69177 3.65503 8.69054Z" fill="var(--mw-icon-glyph-content-light-blue, #278CDD)"/>
<path d="M2.5 3.5C2.5 3.5 3 4 3 5C3 6 2.5 6.5 2.5 6.5" stroke="var(--mw-icon-glyph-content-light-blue, #278CDD)" stroke-linecap="round"/>
<path d="M1 4C1 4 1.33333 4.33333 1.33333 5C1.33333 5.66667 1 6 1 6" stroke="var(--mw-icon-glyph-content-light-blue, #278CDD)" stroke-linecap="round"/>
</svg>
