<svg width="16" height="16" viewBox="0 0 16 16" fill="none" xmlns="http://www.w3.org/2000/svg">
<path d="M0.5 12.5V2.5C0.5 1.39543 1.39543 0.5 2.5 0.5H12.5C13.6046 0.5 14.5 1.39543 14.5 2.5V12.5C14.5 13.6046 13.6046 14.5 12.5 14.5H2.5C1.39543 14.5 0.5 13.6046 0.5 12.5Z" fill="#00A3A3"/>
<path d="M7 11.6362C8.16812 9.40133 8.91355 9.49536 9.3808 10.9011C9.61442 12.4008 10.3153 14.3318 10.738 12.1866C11.4128 5.97232 12.6289 7.73847 12.607 10.6868C12.629 11.9869 12.7886 13.1846 13 14" stroke="var(--mw-icon-background-default-white, white)"/>
<path d="M3.5 5.5V14.5" stroke="var(--mw-icon-background-default-white, white)" stroke-miterlimit="10"/>
<path d="M8.64705 2.08519C9.15701 2.22183 9.61062 2.51641 9.94287 2.9267C10.2751 3.33699 10.4689 3.84194 10.4966 4.36916C10.5242 4.89639 10.3842 5.41882 10.0967 5.8616C9.80913 6.30437 9.3888 6.64475 8.89592 6.83395" stroke="var(--mw-icon-background-default-white, white)" stroke-linecap="round"/>
<path d="M6.63393 3.14054C6.88464 3.25745 7.09814 3.44141 7.25083 3.6721C7.40351 3.90278 7.48943 4.17119 7.49909 4.44765C7.50874 4.72412 7.44175 4.99787 7.30553 5.23864C7.16931 5.47941 6.96916 5.67782 6.72721 5.81193" stroke="var(--mw-icon-background-default-white, white)" stroke-linecap="round"/>
<circle cx="3.5" cy="4.5" r="1.5" fill="var(--mw-icon-background-default-white, white)" stroke="var(--mw-icon-background-default-white, white)"/>
<path d="M0.5 12.5V2.5C0.5 1.39543 1.39543 0.5 2.5 0.5H12.5C13.6046 0.5 14.5 1.39543 14.5 2.5V12.5C14.5 13.6046 13.6046 14.5 12.5 14.5H2.5C1.39543 14.5 0.5 13.6046 0.5 12.5Z" stroke="#02555C" stroke-linecap="round"/>

</svg>
