<svg width="16" height="16" viewBox="0 0 16 16" fill="none" xmlns="http://www.w3.org/2000/svg">
<path d="M0.5 13.5C0.5 14.0523 0.947715 14.5 1.5 14.5H13.5C14.0523 14.5 14.5 14.0523 14.5 13.5V1.5C14.5 0.947716 14.0523 0.5 13.5 0.5H1.5C0.947716 0.5 0.5 0.947716 0.5 1.5V13.5Z" fill="var(--mw-icon-background-default-white, #FFFFFF)" stroke="var(--mw-icon-border-default-gray, #616161)"/>
<circle cx="7.5" cy="10.5" r="1.5" fill="var(--mw-icon-glyph-content-dark-gray, #333333)"/>
<path d="M9.5 8.5C9.5 8.5 8.78 7.5 7.5 7.5C6.22 7.5 5.5 8.5 5.5 8.5" stroke="var(--mw-icon-glyph-content-dark-gray, #333333)" stroke-linecap="round"/>
<path d="M11 7C11 7 9.5 5.5 7.5 5.5C5.5 5.5 4 7 4 7" stroke="var(--mw-icon-glyph-content-dark-gray, #333333)" stroke-linecap="round"/>
<path d="M12.5 5.5C12.5 5.5 10.5 3.5 7.5 3.5C4.5 3.5 2.5 5.5 2.5 5.5" stroke="var(--mw-icon-glyph-content-dark-gray, #333333)" stroke-linecap="round"/>
</svg>
