<svg width="16" height="16" viewBox="0 0 16 16" fill="none" xmlns="http://www.w3.org/2000/svg">
<path d="M0.5 12.5V2.5C0.5 1.39543 1.39543 0.5 2.5 0.5H12.5C13.6046 0.5 14.5 1.39543 14.5 2.5V12.5C14.5 13.6046 13.6046 14.5 12.5 14.5H2.5C1.39543 14.5 0.5 13.6046 0.5 12.5Z" fill="var(--mw-icon-background-default-white, #FFFFFF)"/>
<circle cx="7.5" cy="10.5" r="1.5" fill="var(--mw-icon-glyph-content-dark-gray, #333333)"/>
<path d="M9.5 8.5C9.5 8.5 8.78 7.5 7.5 7.5C6.22 7.5 5.5 8.5 5.5 8.5" stroke="var(--mw-icon-glyph-content-dark-gray, #333333)" stroke-linecap="round"/>
<path d="M11 7C11 7 9.5 5.5 7.5 5.5C5.5 5.5 4 7 4 7" stroke="var(--mw-icon-glyph-content-dark-gray, #333333)" stroke-linecap="round"/>
<path d="M12.5 5.5C12.5 5.5 10.5 3.5 7.5 3.5C4.5 3.5 2.5 5.5 2.5 5.5" stroke="var(--mw-icon-glyph-content-dark-gray, #333333)" stroke-linecap="round"/>
<path d="M0.5 12.5V2.5C0.5 1.39543 1.39543 0.5 2.5 0.5H12.5C13.6046 0.5 14.5 1.39543 14.5 2.5V12.5C14.5 13.6046 13.6046 14.5 12.5 14.5H2.5C1.39543 14.5 0.5 13.6046 0.5 12.5Z" stroke="var(--mw-icon-border-default-gray, #616161)" stroke-linecap="round"/>
</svg>
