<svg width="16" height="16" viewBox="0 0 16 16" fill="none" xmlns="http://www.w3.org/2000/svg">
<path d="M0.5 1.5C0.5 0.947716 0.947715 0.5 1.5 0.5H13.5C14.0523 0.5 14.5 0.947715 14.5 1.5V13.5C14.5 14.0523 14.0523 14.5 13.5 14.5H1.5C0.947716 14.5 0.5 14.0523 0.5 13.5V1.5Z" fill="var(--mw-icon-background-light-yellow, #FFF5BC)" stroke="var(--mw-icon-border-default-blue, #1656A7)"/>
<path d="M12.4735 1L7.21735 3.02594C6.70346 3.22401 6.26936 3.58624 5.98247 4.05636L1 12.2209V13.5C1 13.6891 1.10498 13.8537 1.25984 13.9387L6.63647 8.44681C7.16108 7.91096 8.00082 7.84486 8.6028 8.29205L14 12.3014V11.0557L9.19912 7.48931C8.19582 6.744 6.79625 6.85415 5.9219 7.74724L5.87214 7.79807L6.79685 6.58882C7.08066 6.2177 7.52118 6 7.98839 6H14V5H7.98839C7.20971 5 6.4755 5.36283 6.0025 5.98137L5.88722 6.13212L6.83607 4.57727C7.00821 4.2952 7.26867 4.07787 7.577 3.95902L13.9997 1.48342C13.991 1.21495 13.7706 1 13.5 1H12.4735Z" fill="var(--mw-icon-glyph-content-blue, #1656A8)"/>
</svg>
