<svg width="16" height="16" viewBox="0 0 16 16" fill="none" xmlns="http://www.w3.org/2000/svg">
<path d="M0 3C0 1.34315 1.34315 0 3 0H3.0473H7.54083H12.0344C13.6722 0 15 1.32776 15 2.96564V12.0344C15 13.6722 13.6722 15 12.0344 15H7.54083H3.0473H3C1.34315 15 0 13.6569 0 12V3Z" fill="var(--mw-icon-background-light-yellow, #FFF5BC)"/>
<path d="M3.5 0.5H2.5C1.39543 0.5 0.5 1.39543 0.5 2.5V12.5C0.5 13.6046 1.39543 14.5 2.5 14.5H3.5" stroke="var(--mw-icon-border-default-blue, #1656A7)"/>
<path d="M11.5 14.5H12.5C13.6046 14.5 14.5 13.5598 14.5 12.4L14.5 2.6C14.5 1.4402 13.6046 0.5 12.5 0.5L11.5 0.5" stroke="var(--mw-icon-border-default-blue, #1656A7)"/>
<path d="M3.5 2V6" stroke="var(--mw-icon-glyph-content-blue, #1656A8)"/>
<path d="M11.5 2V6" stroke="var(--mw-icon-glyph-content-blue, #1656A8)"/>
<path d="M7.5 9V13" stroke="var(--mw-icon-glyph-content-blue, #1656A8)"/>
<path d="M8.5 4C8.5 4.45456 8.36119 4.84684 8.16066 5.11421C7.96025 5.38143 7.72155 5.5 7.5 5.5C7.27845 5.5 7.03975 5.38143 6.83934 5.11421C6.63881 4.84684 6.5 4.45456 6.5 4C6.5 3.54544 6.63881 3.15316 6.83934 2.88579C7.03975 2.61857 7.27845 2.5 7.5 2.5C7.72155 2.5 7.96025 2.61857 8.16066 2.88579C8.36119 3.15316 8.5 3.54544 8.5 4Z" stroke="var(--mw-icon-glyph-content-blue, #1656A8)"/>
<path d="M12.5 11C12.5 11.4546 12.3612 11.8468 12.1607 12.1142C11.9602 12.3814 11.7215 12.5 11.5 12.5C11.2785 12.5 11.0398 12.3814 10.8393 12.1142C10.6388 11.8468 10.5 11.4546 10.5 11C10.5 10.5454 10.6388 10.1532 10.8393 9.88579C11.0398 9.61857 11.2785 9.5 11.5 9.5C11.7215 9.5 11.9602 9.61857 12.1607 9.88579C12.3612 10.1532 12.5 10.5454 12.5 11Z" stroke="var(--mw-icon-glyph-content-blue, #1656A8)"/>
<path d="M4.5 11C4.5 11.4546 4.36119 11.8468 4.16066 12.1142C3.96025 12.3814 3.72155 12.5 3.5 12.5C3.27845 12.5 3.03975 12.3814 2.83934 12.1142C2.63881 11.8468 2.5 11.4546 2.5 11C2.5 10.5454 2.63881 10.1532 2.83934 9.88579C3.03975 9.61857 3.27845 9.5 3.5 9.5C3.72155 9.5 3.96025 9.61857 4.16066 9.88579C4.36119 10.1532 4.5 10.5454 4.5 11Z" stroke="var(--mw-icon-glyph-content-blue, #1656A8)"/>
</svg>
