<svg width="16" height="16" viewBox="0 0 16 16" fill="none" xmlns="http://www.w3.org/2000/svg">
<path d="M3.5 3C3.5 2.72386 3.72386 2.5 4 2.5H7.88197C8.26074 2.5 8.607 2.714 8.77639 3.05279L9.22361 3.94721C9.393 4.286 9.73926 4.5 10.118 4.5H15C15.2761 4.5 15.5 4.72386 15.5 5V12C15.5 12.2761 15.2761 12.5 15 12.5H4C3.72386 12.5 3.5 12.2761 3.5 12V3Z" fill="var(--mw-icon-background-light-yellow, #FFF5BC)" stroke="#674C06"/>
<path d="M13.5 11.5H11.5V14C11.5 14.2761 11.7239 14.5 12 14.5H13C13.2761 14.5 13.5 14.2761 13.5 14V11.5Z" fill="var(--mw-icon-background-default-medium-gray, #D9D9D9)" stroke="var(--mw-icon-glyph-content-dark-gray, #333333)"/>
<rect x="12" y="13" width="1" height="1" fill="var(--mw-icon-background-default-dark-gray, #A6A6A6)"/>
<path d="M13 5H11V6H12V7H11V8H12V9H11V10H12V11H14V10H13V9H14V8H13V7H14V6H13V5Z" fill="var(--mw-icon-glyph-content-gray, #616162)"/>
</svg>
