<svg width="16" height="16" viewBox="0 0 16 16" fill="none" xmlns="http://www.w3.org/2000/svg">
<path d="M14.5 0.5H1.5C0.947715 0.5 0.5 0.947715 0.5 1.5V14.5C0.5 15.0523 0.947715 15.5 1.5 15.5H14.5C15.0523 15.5 15.5 15.0523 15.5 14.5V1.5C15.5 0.947715 15.0523 0.5 14.5 0.5Z" stroke="var(--mw-icon-glyph-content-mono, #616061)" stroke-linecap="round"/>
<path d="M5 6.5H7M8 6.5H10M11 6.5H13M14 6.5H16M14 13.5H16M11 13.5H13M8 13.5H10M5 13.5H7M5.5 9V11" stroke="var(--mw-icon-glyph-content-mono, #616061)"/>
<path d="M1 3.5H5.5L9.5 10.5H15.5" stroke="var(--mw-icon-glyph-content-mono, #616061)"/>
</svg>
