<svg width="16" height="16" viewBox="0 0 16 16" fill="none" xmlns="http://www.w3.org/2000/svg">
<symbol id="packageApp" viewBox="0 0 16 16">
<path d="M6.29289 0.5H1C0.723858 0.5 0.5 0.723858 0.5 1V12C0.5 12.2761 0.723858 12.5 1 12.5H9C9.27614 12.5 9.5 12.2761 9.5 12V3.70711C9.5 3.5745 9.44732 3.44732 9.35355 3.35355L6.64645 0.646447C6.55268 0.552678 6.4255 0.5 6.29289 0.5Z" fill="var(--mw-icon-background-default-white, white)" stroke="var(--mw-icon-border-default-gray, #616161)" stroke-linecap="round"/>
<path d="M2.5 4.5C3.33333 3.16667 4.16667 3.16667 5 4.5C5.83333 5.83333 6.66667 5.83333 7.5 4.5" stroke="#0072BD" stroke-linecap="round"/>
<path d="M8.48111 11.2014C8.37041 11.3084 7.14989 11.7999 6.5 12.0471C6.90671 12.3308 7.91484 12.9559 8.56289 13.3845C9.27987 13.8587 9.68239 14.9529 10.0094 15.5C10.1981 15.4514 10.4497 15.2933 10.7138 15.0502C10.978 14.807 11.5692 14.0897 11.9214 13.6033C12.2736 13.117 12.9151 12.8252 13.3302 12.8252C13.6623 12.8252 14.2484 13.1656 14.5 13.3359C14.1939 12.4605 13.534 10.5371 13.3428 9.8465C13.1038 8.98327 12.5188 7.5 12.0597 7.5C11.5754 7.5 10.9654 8.55775 10.8019 8.84955C10.6384 9.14134 10.0849 9.76139 9.80818 9.94376C9.53145 10.1261 9.27356 10.3017 9.10377 10.5274C8.96136 10.7167 8.61947 11.0676 8.48111 11.2014Z" stroke="var(--mw-icon-glyph-content-dark-gray, #333333)" stroke-linejoin="round"/>
<path d="M7.77672 12.638C7.55914 12.808 7.52059 13.1223 7.69062 13.3398C7.86066 13.5574 8.17488 13.596 8.39247 13.4259L7.77672 12.638ZM9.58145 11.6946L9.18351 11.3919L9.58145 11.6946ZM11.072 9.04938L10.5772 8.97754L11.072 9.04938ZM8.39247 13.4259C8.59482 13.2678 8.9129 13.0107 9.21405 12.7495C9.50138 12.5004 9.81722 12.2105 9.9794 11.9973L9.18351 11.3919C9.09412 11.5094 8.85859 11.7342 8.55892 11.994C8.27307 12.2419 7.9685 12.4881 7.77672 12.638L8.39247 13.4259ZM9.9794 11.9973C10.141 11.7849 10.4955 11.3059 10.8262 10.7757C10.9915 10.5107 11.1551 10.2261 11.2865 9.95085C11.4144 9.68291 11.5275 9.39172 11.5668 9.12121L10.5772 8.97754C10.5595 9.09922 10.4972 9.28309 10.3841 9.52008C10.2744 9.74975 10.1315 9.99988 9.97771 10.2465C9.67021 10.7395 9.33637 11.1909 9.18351 11.3919L9.9794 11.9973ZM11.5668 9.12121C11.6691 8.41655 11.8392 8.18306 11.9498 8.10043L11.3514 7.29923C10.9086 7.62997 10.6887 8.20954 10.5772 8.97754L11.5668 9.12121ZM8.20623 11.5523L9.06157 12.1724L9.6485 11.3627L8.79315 10.7427L8.20623 11.5523Z" fill="var(--mw-icon-glyph-content-dark-gray, #333333)"/>
<path fill-rule="evenodd" clip-rule="evenodd" d="M8.03989 12.7278C8.22867 12.5775 8.47642 12.3746 8.71204 12.1703C8.83222 12.0661 8.94543 11.9647 9.04467 11.8717L8.52019 11.4915C8.51892 11.4922 8.51767 11.4928 8.51645 11.4935C8.46486 11.5211 8.40046 11.5524 8.32839 11.5858C8.18369 11.6529 7.99682 11.7336 7.79549 11.8177C7.56428 11.9143 7.31102 12.0166 7.07532 12.1097C7.26647 12.2337 7.48751 12.3749 7.71529 12.5203C7.82279 12.5889 7.93182 12.6585 8.03989 12.7278ZM8.92786 11.1283L9.41086 11.4784C9.57936 11.2546 9.88852 10.8308 10.1759 10.37C10.3324 10.1191 10.4802 9.86089 10.5949 9.62058C10.6155 9.57744 10.6347 9.53541 10.6526 9.49457C10.6173 9.53571 10.5814 9.57652 10.5454 9.61636C10.3506 9.8322 10.1238 10.0551 9.95487 10.1664C9.67121 10.3534 9.45418 10.5051 9.31682 10.6877C9.22679 10.8073 9.07061 10.9788 8.92786 11.1283Z" fill="#068CFC"/>
<path fill-rule="evenodd" clip-rule="evenodd" d="M11.7094 8.00838C11.5592 8.1812 11.4218 8.49862 11.3363 9.08777C11.3021 9.32355 11.2008 9.58971 11.0763 9.85042C10.95 10.115 10.7912 10.3916 10.6286 10.6523C10.3033 11.1738 9.95366 11.6464 9.79409 11.8561C9.6489 12.047 9.3518 12.3217 9.06159 12.5733C8.87443 12.7356 8.6804 12.8966 8.51245 13.0325C8.58074 13.077 8.64688 13.1204 8.71008 13.1622C9.12232 13.4348 9.42757 13.8722 9.66355 14.2819C9.78311 14.4894 9.88946 14.6983 9.98412 14.8847L9.9887 14.8937C10.038 14.9908 10.0835 15.0804 10.1264 15.1617C10.2399 15.0971 10.3791 14.996 10.5333 14.8541C10.7771 14.6297 11.3556 13.9302 11.7055 13.447C11.9106 13.1639 12.1938 12.9444 12.4789 12.7956C12.7614 12.6482 13.0681 12.5587 13.3303 12.5587C13.5475 12.5587 13.8043 12.6557 14.0164 12.7553C13.6855 11.7943 13.2392 10.4716 13.0859 9.91775C12.9697 9.49822 12.7691 8.92751 12.5442 8.46654C12.4312 8.23483 12.3178 8.04282 12.2129 7.91284C12.1604 7.84788 12.1169 7.80694 12.0841 7.78404C12.0685 7.7731 12.0588 7.76863 12.0545 7.76697C12.0229 7.76924 11.9554 7.79149 11.85 7.87702C11.8365 7.88797 11.8229 7.89954 11.8092 7.91169L11.8106 7.91357C11.8014 7.92041 11.7923 7.92767 11.7831 7.93537C11.7588 7.95804 11.7342 7.98246 11.7094 8.00838Z" fill="#F57729"/>
<circle cx="2.5" cy="7.5" r="0.5" fill="var(--mw-icon-glyph-content-green, #008014)"/>
<rect x="4" y="7" width="2" height="1" fill="var(--mw-icon-glyph-content-gray, #616162)"/>
<rect x="7" y="7" width="1" height="1" fill="var(--mw-icon-glyph-content-gray, #616162)"/>
</symbol>
<use href="#packageApp" />
</svg>
