<svg width="24" height="24" viewBox="0 0 24 24" fill="none" xmlns="http://www.w3.org/2000/svg">
<path d="M22.5 1.5H13.5V22.5H22.5V1.5Z" fill="white" stroke="#616161" stroke-linecap="round"/>
<path d="M15 19.5H18" stroke="#616162"/>
<path d="M14 18H22V12H14V18Z" fill="#FFD60A"/>
<path d="M15 4.5H18.375" stroke="#616162"/>
<path d="M15 16.5H20" stroke="#616162"/>
<path d="M10.5 1.5H1.5V22.5H10.5V1.5Z" fill="white" stroke="#616161" stroke-linecap="round"/>
<path d="M3 19.5H7.54" stroke="#616162"/>
<path d="M2 12H10V6H2V12Z" fill="#FFD60A"/>
<path d="M3 4.5H7" stroke="#616162"/>
<path d="M3 16.5H5" stroke="#616162"/>
<path d="M3 13.5H7" stroke="#616162"/>
<path d="M3 10.5H6" stroke="#616162"/>
<path d="M3 7.5H4.5H6" stroke="#616162"/>
<path d="M15 13.5H18" stroke="#616162"/>
<path d="M16 7.5H18" stroke="#616161"/>
<path d="M10.7188 8.4994V10.5006H12.4976V12.1016L16.5 9.5L12.4976 6.89844V8.4994H10.7188Z" fill="#FFD60A" stroke="#B3882A"/>
<rect x="9.01562" y="8" width="1.70312" height="3" fill="#B3882A"/>
<rect x="10" y="9" width="1.84375" height="1" fill="#FFD60A"/>
</svg>
