<?xml version="1.0" encoding="utf-8"?>
<!-- Generator: Adobe Illustrator 14.0.0, SVG Export Plug-In . SVG Version: 6.00 Build 43363)  -->
<!DOCTYPE svg PUBLIC "-//W3C//DTD SVG 1.1//EN" "http://www.w3.org/Graphics/SVG/1.1/DTD/svg11.dtd">
<svg version="1.1" id="Layer_1" xmlns="http://www.w3.org/2000/svg" xmlns:xlink="http://www.w3.org/1999/xlink" x="0px" y="0px"
	 width="26px" height="26px" viewBox="-1 -1 26 26" enable-background="new -1 -1 26 26" xml:space="preserve">
<linearGradient id="SVGID_1_" gradientUnits="userSpaceOnUse" x1="3.1431" y1="5.0874" x2="21.1034" y2="23.0478">
	<stop  offset="0.0531" style="stop-color:#E3F1FA"/>
	<stop  offset="0.1379" style="stop-color:#DCECF7"/>
	<stop  offset="0.262" style="stop-color:#C8DFEE"/>
	<stop  offset="0.4102" style="stop-color:#A8CAE0"/>
	<stop  offset="0.577" style="stop-color:#7BACCC"/>
	<stop  offset="0.7572" style="stop-color:#4387B3"/>
	<stop  offset="0.7863" style="stop-color:#3980AF"/>
</linearGradient>
<polygon fill="url(#SVGID_1_)" points="11.209,15.558 0.283,15.558 0.283,8.81 11.209,8.81 11.209,2.338 23.586,12.2 11.209,22.064 
	"/>
<g>
	<polygon fill="none" points="11.709,3.251 11.709,9.185 0.783,9.185 0.783,14.933 11.709,14.933 11.709,20.901 22.783,12.075 	"/>
	<polygon fill="#1B2533" points="22.783,12.075 24.388,12.075 10.709,1.176 11.709,3.251 	"/>
	<polygon fill="#3F4C60" points="0.783,9.185 11.709,9.185 11.709,3.251 10.709,1.176 10.709,8.185 -0.217,8.185 -0.217,15.933 
		0.783,14.933 	"/>
	<polygon fill="#3F4C60" points="11.709,20.901 11.709,14.933 10.709,15.933 10.709,22.978 	"/>
	<polygon points="11.709,20.901 10.709,22.978 24.388,12.075 22.783,12.075 	"/>
	<polygon points="0.783,14.933 -0.217,15.933 10.709,15.933 11.709,14.933 	"/>
</g>
</svg>
