<?xml version="1.0" encoding="utf-8"?>
<!-- Generator: Adobe Illustrator 14.0.0, SVG Export Plug-In . SVG Version: 6.00 Build 43363)  -->
<!DOCTYPE svg PUBLIC "-//W3C//DTD SVG 1.1//EN" "http://www.w3.org/Graphics/SVG/1.1/DTD/svg11.dtd">
<svg version="1.1" id="Layer_1" xmlns="http://www.w3.org/2000/svg" xmlns:xlink="http://www.w3.org/1999/xlink" x="0px" y="0px"
	 width="26px" height="26px" viewBox="-1 -1 26 26" enable-background="new -1 -1 26 26" xml:space="preserve">
<linearGradient id="SVGID_1_" gradientUnits="userSpaceOnUse" x1="13.1055" y1="11.0986" x2="22.7088" y2="10.4768">
	<stop  offset="0.0242" style="stop-color:#E5E9EE"/>
	<stop  offset="0.2788" style="stop-color:#FFFFFF"/>
	<stop  offset="0.3603" style="stop-color:#F9FBFC"/>
	<stop  offset="0.4698" style="stop-color:#E8EEF2"/>
	<stop  offset="0.5952" style="stop-color:#CCD9E2"/>
	<stop  offset="0.7314" style="stop-color:#A5BCCC"/>
	<stop  offset="0.8364" style="stop-color:#82A2B8"/>
	<stop  offset="0.9939" style="stop-color:#68A2D7"/>
</linearGradient>
<path fill="url(#SVGID_1_)" d="M23.372,18.455c-1.235-1.016-2.727-1.53-4.431-1.53c-2.396,0-4.62,1.001-5.732,1.598l-0.736,0.396
	V3.365l0.237-0.146c1.316-0.812,2.702-1.225,4.12-1.225c3.18,0,5.407,2.052,5.5,2.139l0.132,0.124l1.88,14.995L23.372,18.455z"/>
<linearGradient id="SVGID_2_" gradientUnits="userSpaceOnUse" x1="0.0176" y1="10.3994" x2="11.9703" y2="11.1594">
	<stop  offset="0.0121" style="stop-color:#CED8E1"/>
	<stop  offset="0.2788" style="stop-color:#FFFFFF"/>
	<stop  offset="0.3603" style="stop-color:#F9FBFC"/>
	<stop  offset="0.4698" style="stop-color:#E8EEF2"/>
	<stop  offset="0.5952" style="stop-color:#CCD9E2"/>
	<stop  offset="0.7314" style="stop-color:#A5BCCC"/>
	<stop  offset="0.8364" style="stop-color:#82A2B8"/>
	<stop  offset="0.9939" style="stop-color:#68A2D7"/>
</linearGradient>
<path fill="url(#SVGID_2_)" d="M1.538,4.257L1.67,4.133c0.093-0.087,2.318-2.139,5.499-2.139c1.417,0,2.803,0.412,4.119,1.225
	l0.237,0.146v15.553l-0.736-0.396c-1.111-0.597-3.334-1.598-5.732-1.598c-1.704,0-3.195,0.515-4.431,1.53l-0.97,0.797L1.538,4.257z"
	/>
<linearGradient id="SVGID_3_" gradientUnits="userSpaceOnUse" x1="-19.1738" y1="19.123" x2="43.0398" y2="19.123">
	<stop  offset="0.0606" style="stop-color:#FFFFFF"/>
	<stop  offset="0.4727" style="stop-color:#B3CCDB"/>
	<stop  offset="0.8078" style="stop-color:#5B7683"/>
	<stop  offset="0.9697" style="stop-color:#36515E"/>
</linearGradient>
<path fill="url(#SVGID_3_)" d="M-0.65,19.248l0.333-0.273c1.516-1.245,3.323-1.876,5.372-1.876c2.575,0,4.958,1.017,6.214,1.665
	h1.461c1.257-0.648,3.64-1.666,6.214-1.666c2.049,0,3.856,0.632,5.374,1.877l0.333,0.274l-1.139,1.897l-0.448-0.367
	c-1.152-0.946-2.543-1.427-4.133-1.427c-2.271,0-4.415,0.97-5.491,1.547l-0.216,0.118h-2.449l-0.219-0.12
	c-1.074-0.575-3.22-1.544-5.489-1.544c-1.591,0-2.981,0.479-4.132,1.426l-0.448,0.368L-0.65,19.248z"/>
<linearGradient id="SVGID_4_" gradientUnits="userSpaceOnUse" x1="15.5371" y1="6.2324" x2="19.6055" y2="6.2324">
	<stop  offset="0.2727" style="stop-color:#333333"/>
	<stop  offset="0.8606" style="stop-color:#000000"/>
</linearGradient>
<path fill="url(#SVGID_4_)" d="M15.537,4.92c1.328-0.686,2.66-0.477,3.84,0.061l0.229,2.984c-1.34-0.564-2.604-0.539-3.943,0.014
	L15.537,4.92z"/>
<linearGradient id="SVGID_5_" gradientUnits="userSpaceOnUse" x1="15.709" y1="11.7607" x2="20.0938" y2="11.7607">
	<stop  offset="0.2727" style="stop-color:#333333"/>
	<stop  offset="0.8606" style="stop-color:#000000"/>
</linearGradient>
<path fill="url(#SVGID_5_)" d="M15.83,13.734l-0.121-3.43c1.34-0.65,3.031-0.717,4.074-0.037l0.311,3.223
	C18.799,12.957,16.926,13.262,15.83,13.734z"/>
<linearGradient id="SVGID_6_" gradientUnits="userSpaceOnUse" x1="4.3945" y1="6.2324" x2="8.4629" y2="6.2324">
	<stop  offset="0.2485" style="stop-color:#333333"/>
	<stop  offset="0.4924" style="stop-color:#232323"/>
	<stop  offset="0.8909" style="stop-color:#000000"/>
</linearGradient>
<path fill="url(#SVGID_6_)" d="M4.623,4.98c1.18-0.537,2.512-0.746,3.84-0.061L8.338,7.979C6.996,7.426,5.732,7.4,4.395,7.965
	L4.623,4.98z"/>
<linearGradient id="SVGID_7_" gradientUnits="userSpaceOnUse" x1="3.9062" y1="11.7607" x2="8.291" y2="11.7607">
	<stop  offset="0.2485" style="stop-color:#333333"/>
	<stop  offset="0.4924" style="stop-color:#232323"/>
	<stop  offset="0.8909" style="stop-color:#000000"/>
</linearGradient>
<path fill="url(#SVGID_7_)" d="M4.217,10.268c1.041-0.68,2.734-0.613,4.074,0.037l-0.123,3.43c-1.096-0.473-2.967-0.777-4.262-0.244
	L4.217,10.268z"/>
<path fill="#3F4C60" d="M2.012,4.498c0,0,2.138-2.004,5.157-2.003c1.176,0,2.486,0.304,3.856,1.149v14.438l1,1.644l0.947-1.644
	V3.645c1.37-0.846,2.681-1.15,3.857-1.149c3.019,0,5.158,2.003,5.158,2.003l0.947-0.483l-0.264-0.246
	c-0.099-0.093-2.467-2.273-5.842-2.273c-1.512-0.001-2.986,0.437-4.383,1.299L11.999,3.07l-0.448-0.276
	c-1.396-0.862-2.87-1.299-4.382-1.299C3.793,1.494,1.427,3.676,1.328,3.769L1.064,4.016l-1.979,15.766l1.243-1.874L2.012,4.498z"/>
<polygon points="12.025,19.726 12.025,3.07 11.025,3.645 11.025,18.082 "/>
<g>
	<path d="M0.943,18.841c0.271-0.223,0.558-0.415,0.855-0.585c1.075-0.472,2.183-0.657,3.256-0.657c2.192,0,4.239,0.764,5.562,1.399
		l1.355,0.728v0.028l0.026-0.014l0.026,0.014v-0.028l-1-1.644c-1.269-0.681-3.544-1.657-5.969-1.657
		c-1.235,0-2.507,0.258-3.705,0.934c-0.353,0.157-0.692,0.344-1.022,0.549l-1.243,1.874l1.017-0.249L0.943,18.841z"/>
	<path fill="none" d="M12.973,3.645v14.438c1.27-0.681,3.545-1.657,5.969-1.657c1.233,0,2.505,0.258,3.702,0.932
		c0.354,0.157,0.693,0.344,1.025,0.55L21.988,4.498c0,0-2.14-2.003-5.158-2.003C15.653,2.494,14.343,2.799,12.973,3.645z"/>
	<path fill="none" d="M7.169,2.495c-3.02-0.001-5.157,2.003-5.157,2.003L0.329,17.907c0.33-0.205,0.67-0.392,1.022-0.549
		c1.198-0.676,2.47-0.934,3.705-0.934c2.425,0,4.7,0.977,5.969,1.657V3.645C9.655,2.799,8.345,2.495,7.169,2.495z"/>
	<path fill="none" d="M11.999,19.74l-0.026,0.014v-0.028l-1.355-0.728c-1.323-0.636-3.37-1.399-5.562-1.399
		c-1.073,0-2.181,0.186-3.256,0.657c-0.298,0.17-0.585,0.362-0.855,0.585l-0.841,0.691l0.515,0.86
		c1.39-1.142,2.95-1.539,4.449-1.539c2.37,0,4.586,0.993,5.729,1.605l0.107,0.059h2.193l0.107-0.059
		c1.144-0.613,3.358-1.606,5.728-1.606c1.498,0.001,3.06,0.398,4.45,1.54l0.517-0.859l-0.843-0.692
		c-0.272-0.224-0.561-0.418-0.86-0.589c-1.074-0.47-2.18-0.654-3.251-0.654c-2.195,0-4.244,0.767-5.567,1.402l-1.351,0.726v0.028
		L11.999,19.74z"/>
	<path d="M22.936,4.015l-0.947,0.483l1.681,13.408c-0.332-0.206-0.672-0.393-1.025-0.55c-1.197-0.674-2.469-0.932-3.702-0.932
		c-2.424,0-4.699,0.977-5.969,1.657l-0.947,1.644L13.376,19c1.323-0.636,3.372-1.402,5.567-1.402c1.071,0,2.177,0.185,3.251,0.654
		c0.3,0.171,0.588,0.365,0.86,0.589l0.843,0.692l-0.517,0.859c-1.391-1.142-2.952-1.539-4.45-1.54c-2.369,0-4.584,0.993-5.728,1.606
		l-0.107,0.059h-2.193l-0.107-0.059c-1.143-0.612-3.358-1.605-5.729-1.605c-1.499,0-3.06,0.397-4.449,1.539l-0.515-0.86
		l-1.017,0.249l1.27,2.121l0.896-0.737c1.06-0.87,2.343-1.312,3.814-1.312c2.16,0,4.221,0.932,5.256,1.487l0.102,0.055l0.224,0.122
		h2.703l0.224-0.122l0.107-0.059c1.029-0.553,3.089-1.484,5.249-1.484c1.472,0.001,2.756,0.442,3.815,1.312l0.896,0.736l1.271-2.117
		L22.936,4.015z"/>
</g>
</svg>
