<?xml version="1.0" encoding="utf-8"?>
<!-- Generator: Adobe Illustrator 14.0.0, SVG Export Plug-In . SVG Version: 6.00 Build 43363)  -->
<!DOCTYPE svg PUBLIC "-//W3C//DTD SVG 1.1//EN" "http://www.w3.org/Graphics/SVG/1.1/DTD/svg11.dtd">
<svg version="1.1" id="Layer_1" xmlns="http://www.w3.org/2000/svg" xmlns:xlink="http://www.w3.org/1999/xlink" x="0px" y="0px"
	 width="26px" height="26px" viewBox="-1 -1 26 26" enable-background="new -1 -1 26 26" xml:space="preserve">
<g>
	<g>
		<radialGradient id="SVGID_1_" cx="4.6274" cy="3.249" r="21.3725" gradientUnits="userSpaceOnUse">
			<stop  offset="0.0061" style="stop-color:#FFFFFF"/>
			<stop  offset="0.703" style="stop-color:#B7E060"/>
			<stop  offset="1" style="stop-color:#4EA43F"/>
		</radialGradient>
		<path fill="url(#SVGID_1_)" d="M12,22C6.486,22,2,17.514,2,12S6.486,2,12,2s10,4.486,10,10S17.514,22,12,22L12,22z M10.967,17.279
			l6.249-9.268l-1.233-0.831l-5.389,7.989l-3.076-2.235l-0.874,1.204L10.967,17.279z"/>
	</g>
</g>
<polygon points="11.092,17.988 5.945,14.25 7.406,12.236 10.469,14.461 15.848,6.486 17.91,7.877 "/>
<g>
	<path d="M19.421,4.579l-0.704,0.704C20.437,7.002,21.5,9.377,21.5,12c0,5.246-4.254,9.5-9.5,9.5c-2.623,0-4.998-1.063-6.717-2.783
		l-0.704,0.704C6.48,21.322,9.105,22.5,12,22.5c5.79,0,10.5-4.71,10.5-10.5C22.5,9.105,21.322,6.48,19.421,4.579z"/>
	<path fill="#6B8233" d="M2.5,12c0-5.246,4.254-9.5,9.5-9.5c2.623,0,4.998,1.063,6.717,2.783l0.704-0.704
		C17.52,2.678,14.895,1.5,12,1.5C6.21,1.5,1.5,6.21,1.5,12c0,2.895,1.178,5.52,3.079,7.421l0.704-0.704
		C3.563,16.998,2.5,14.623,2.5,12z"/>
</g>
</svg>
