<?xml version="1.0" encoding="utf-8"?>
<!-- Generator: Adobe Illustrator 14.0.0, SVG Export Plug-In . SVG Version: 6.00 Build 43363)  -->
<!DOCTYPE svg PUBLIC "-//W3C//DTD SVG 1.1//EN" "http://www.w3.org/Graphics/SVG/1.1/DTD/svg11.dtd">
<svg version="1.1" id="Layer_1" xmlns="http://www.w3.org/2000/svg" xmlns:xlink="http://www.w3.org/1999/xlink" x="0px" y="0px"
	 width="26px" height="26px" viewBox="-1 -1 26 26" enable-background="new -1 -1 26 26" xml:space="preserve">
<linearGradient id="SVGID_1_" gradientUnits="userSpaceOnUse" x1="2.8335" y1="4.2075" x2="23.1481" y2="24.5221">
	<stop  offset="0.1226" style="stop-color:#FFFFFF"/>
	<stop  offset="0.9939" style="stop-color:#909090"/>
</linearGradient>
<rect x="0" y="3.91" fill="url(#SVGID_1_)" width="24" height="18.928"/>
<linearGradient id="SVGID_2_" gradientUnits="userSpaceOnUse" x1="18.6807" y1="9.2056" x2="5.3181" y2="-4.157">
	<stop  offset="0.0061" style="stop-color:#5E9AC6"/>
	<stop  offset="0.8774" style="stop-color:#D9F1FD"/>
</linearGradient>
<rect x="0" y="1.162" fill="url(#SVGID_2_)" width="24" height="2.725"/>
<rect x="3.075" y="17.947" width="4.912" height="1.438"/>
<rect x="9.784" y="17.947" width="4.912" height="1.438"/>
<rect x="16.371" y="17.947" width="4.912" height="1.438"/>
<rect x="16.371" y="7.805" width="4.912" height="1.438"/>
<rect x="9.784" y="7.805" width="4.912" height="1.438"/>
<rect x="3.075" y="7.805" width="4.912" height="1.438"/>
<linearGradient id="SVGID_3_" gradientUnits="userSpaceOnUse" x1="2.0034" y1="6.8672" x2="22.3879" y2="20.5875">
	<stop  offset="0.1068" style="stop-color:#0D5395"/>
	<stop  offset="0.4364" style="stop-color:#0B3F6F"/>
	<stop  offset="0.8774" style="stop-color:#0B1428"/>
</linearGradient>
<path fill="url(#SVGID_3_)" d="M1.458,11.602v3.986h21.083v-3.986H1.458z M7.987,14.314H3.075v-1.438h4.912V14.314z M14.695,14.314
	H9.784v-1.438h4.912V14.314z M21.283,14.314h-4.912v-1.438h4.912V14.314z"/>
<g>
	<rect x="0.5" y="4.41" fill="none" width="23" height="17.928"/>
	<polygon fill="#4D4D4D" points="0.5,4.41 23.5,4.41 24.5,3.41 23.5,3.41 0.5,3.41 -0.5,3.41 -0.5,4.41 -0.5,22.338 -0.5,23.338 
		0.5,22.338 	"/>
	<polygon points="23.5,4.41 23.5,22.338 0.5,22.338 -0.5,23.338 0.5,23.338 23.5,23.338 24.5,23.338 24.5,22.338 24.5,4.41 
		24.5,3.41 	"/>
</g>
<g>
	<rect x="0.5" y="1.662" fill="none" width="23" height="1.725"/>
	<g>
		<rect x="0.5" y="1.662" fill="none" width="23" height="1.725"/>
		<polygon points="23.5,1.662 23.5,3.387 0.5,3.387 -0.5,4.387 0.5,4.387 23.5,4.387 24.5,4.387 24.5,3.387 24.5,1.662 24.5,0.662 
					"/>
		<polygon fill="#3F4C60" points="0.5,1.662 23.5,1.662 24.5,0.662 23.5,0.662 0.5,0.662 -0.5,0.662 -0.5,1.662 -0.5,3.387 
			-0.5,4.387 0.5,3.387 		"/>
	</g>
</g>
</svg>
