<?xml version="1.0" encoding="utf-8"?>
<!-- Generator: Adobe Illustrator 14.0.0, SVG Export Plug-In . SVG Version: 6.00 Build 43363)  -->
<!DOCTYPE svg PUBLIC "-//W3C//DTD SVG 1.1//EN" "http://www.w3.org/Graphics/SVG/1.1/DTD/svg11.dtd">
<svg version="1.1" id="Layer_1" xmlns="http://www.w3.org/2000/svg" xmlns:xlink="http://www.w3.org/1999/xlink" x="0px" y="0px"
	 width="26px" height="26px" viewBox="-1 -1 26 26" enable-background="new -1 -1 26 26" xml:space="preserve">
<linearGradient id="SVGID_1_" gradientUnits="userSpaceOnUse" x1="2.8335" y1="4.2075" x2="23.1481" y2="24.5221">
	<stop  offset="0.1226" style="stop-color:#FFFFFF"/>
	<stop  offset="0.9939" style="stop-color:#909090"/>
</linearGradient>
<rect x="0" y="3.91" fill="url(#SVGID_1_)" width="24" height="18.928"/>
<linearGradient id="SVGID_2_" gradientUnits="userSpaceOnUse" x1="18.6807" y1="9.2056" x2="5.3181" y2="-4.157">
	<stop  offset="0.0061" style="stop-color:#5E9AC6"/>
	<stop  offset="0.8774" style="stop-color:#D9F1FD"/>
</linearGradient>
<rect x="0" y="1.162" fill="url(#SVGID_2_)" width="24" height="2.725"/>
<g>
	<rect x="0.5" y="4.41" fill="none" width="23" height="17.928"/>
	<polygon fill="#4D4D4D" points="0.5,4.41 23.5,4.41 24.5,3.41 23.5,3.41 0.5,3.41 -0.5,3.41 -0.5,4.41 -0.5,22.338 -0.5,23.338 
		0.5,22.338 	"/>
	<polygon points="23.5,4.41 23.5,22.338 0.5,22.338 -0.5,23.338 0.5,23.338 23.5,23.338 24.5,23.338 24.5,22.338 24.5,4.41 
		24.5,3.41 	"/>
</g>
<g>
	<rect x="0.5" y="1.662" fill="none" width="23" height="1.725"/>
	<g>
		<rect x="0.5" y="1.662" fill="none" width="23" height="1.725"/>
		<polygon points="23.5,1.662 23.5,3.387 0.5,3.387 -0.5,4.387 0.5,4.387 23.5,4.387 24.5,4.387 24.5,3.387 24.5,1.662 24.5,0.662 
					"/>
		<polygon fill="#3F4C60" points="0.5,1.662 23.5,1.662 24.5,0.662 23.5,0.662 0.5,0.662 -0.5,0.662 -0.5,1.662 -0.5,3.387 
			-0.5,4.387 0.5,3.387 		"/>
	</g>
</g>
<path fill="#4D4D4D" d="M4.644,9.812c0.637,0,1.15-0.516,1.15-1.152c0-0.635-0.514-1.15-1.15-1.15c-0.635,0-1.15,0.516-1.15,1.15
	C3.494,9.296,4.009,9.812,4.644,9.812 M8.046,9.522h12.459V7.798H8.046V9.522 M4.644,14.22c0.637,0,1.15-0.516,1.15-1.15
	c0-0.637-0.514-1.15-1.15-1.15c-0.635,0-1.15,0.514-1.15,1.15C3.494,13.704,4.009,14.22,4.644,14.22 M8.046,13.931h12.459v-1.725
	H8.046V13.931 M4.644,18.628c0.637,0,1.15-0.516,1.15-1.15c0-0.637-0.514-1.152-1.15-1.152c-0.635,0-1.15,0.516-1.15,1.152
	C3.494,18.112,4.009,18.628,4.644,18.628 M8.046,18.339h12.459v-1.725H8.046V18.339 M4.644,8.812c-0.083,0-0.15-0.068-0.15-0.152
	c0-0.083,0.067-0.15,0.15-0.15s0.15,0.067,0.15,0.15C4.794,8.744,4.728,8.812,4.644,8.812L4.644,8.812z M4.644,13.22
	c-0.083,0-0.15-0.067-0.15-0.15s0.067-0.15,0.15-0.15c0.084,0,0.15,0.066,0.15,0.15C4.794,13.152,4.727,13.22,4.644,13.22
	L4.644,13.22z M4.644,17.628c-0.083,0-0.15-0.067-0.15-0.15c0-0.084,0.067-0.152,0.15-0.152c0.084,0,0.15,0.067,0.15,0.152
	C4.794,17.561,4.727,17.628,4.644,17.628L4.644,17.628z"/>
<rect x="8.046" y="16.614" width="12.459" height="1.725"/>
<path d="M8.046,9.522h12.459V7.798H8.046V9.522z M3.494,8.659c0,0.637,0.516,1.152,1.15,1.152c0.637,0,1.15-0.516,1.15-1.152
	c0-0.635-0.514-1.15-1.15-1.15C4.009,7.509,3.494,8.024,3.494,8.659z"/>
<linearGradient id="SVGID_3_" gradientUnits="userSpaceOnUse" x1="5.4258" y1="5.9961" x2="16.425" y2="17.4952">
	<stop  offset="0.2667" style="stop-color:#808080"/>
	<stop  offset="0.4083" style="stop-color:#727272"/>
	<stop  offset="0.6744" style="stop-color:#4E4E4E"/>
	<stop  offset="1" style="stop-color:#1A1A1A"/>
</linearGradient>
<path fill="url(#SVGID_3_)" d="M8.046,13.931h12.459v-1.725H8.046V13.931z M3.494,13.069c0,0.635,0.516,1.15,1.15,1.15
	c0.637,0,1.15-0.516,1.15-1.15c0-0.637-0.514-1.15-1.15-1.15C4.009,11.919,3.494,12.433,3.494,13.069z"/>
<circle cx="4.644" cy="17.478" r="1.15"/>
</svg>
