<?xml version="1.0" encoding="utf-8"?>
<!-- Generator: Adobe Illustrator 14.0.0, SVG Export Plug-In . SVG Version: 6.00 Build 43363)  -->
<!DOCTYPE svg PUBLIC "-//W3C//DTD SVG 1.1//EN" "http://www.w3.org/Graphics/SVG/1.1/DTD/svg11.dtd">
<svg version="1.1" id="Layer_1" xmlns="http://www.w3.org/2000/svg" xmlns:xlink="http://www.w3.org/1999/xlink" x="0px" y="0px"
	 width="26px" height="26px" viewBox="-1 -1 26 26" enable-background="new -1 -1 26 26" xml:space="preserve">
<g>
	
		<radialGradient id="SVGID_1_" cx="296.6914" cy="-361.4268" r="32.5378" gradientTransform="matrix(1 0 0 -1 -291 -357)" gradientUnits="userSpaceOnUse">
		<stop  offset="0.1595" style="stop-color:#FFFFFF"/>
		<stop  offset="0.4479" style="stop-color:#FCEE7E"/>
		<stop  offset="0.8466" style="stop-color:#EDB621"/>
	</radialGradient>
	<polygon fill="url(#SVGID_1_)" points="8.978,22.5 8.978,15.084 1.562,15.084 1.562,8.914 8.978,8.914 8.978,1.5 15.146,1.5 
		15.146,8.914 22.562,8.914 22.562,15.084 15.146,15.084 15.146,22.5 	"/>
</g>
<line fill="none" x1="22.062" y1="9.414" x2="23.062" y2="8.414"/>
<line fill="none" x1="14.646" y1="9.414" x2="15.861" y2="8.2"/>
<line fill="none" x1="14.807" y1="1.938" x2="15.876" y2="0.869"/>
<line fill="none" x1="2.062" y1="14.584" x2="0.937" y2="15.709"/>
<line fill="none" x1="9.478" y1="14.584" x2="8.033" y2="16.027"/>
<line fill="none" x1="9.637" y1="21.938" x2="8.463" y2="23.111"/>
<g>
	<polygon fill="none" points="14.646,2 9.478,2 9.478,9.414 2.062,9.414 2.062,14.584 9.478,14.584 9.478,22 14.646,22 
		14.646,14.584 22.062,14.584 22.062,9.414 14.646,9.414 	"/>
	<polygon points="14.646,9.414 15.646,8.414 15.646,1 14.646,2 	"/>
	<polygon fill="#9B772F" points="22.062,9.414 23.062,8.414 15.646,8.414 14.646,9.414 	"/>
	<polygon points="2.062,14.584 1.062,15.584 8.478,15.584 9.478,14.584 	"/>
	<polygon points="22.062,9.414 22.062,14.584 14.646,14.584 14.646,22 9.478,22 8.478,23 15.646,23 15.646,15.584 23.062,15.584 
		23.062,8.414 	"/>
	<polygon fill="#9B772F" points="2.062,9.414 9.478,9.414 9.478,2 14.646,2 15.646,1 8.478,1 8.478,8.414 1.062,8.414 1.062,15.584 
		2.062,14.584 	"/>
	<polygon fill="#9B772F" points="9.478,14.584 8.478,15.584 8.478,23 9.478,22 	"/>
</g>
</svg>
