<?xml version="1.0" encoding="utf-8"?>
<!-- Generator: Adobe Illustrator 14.0.0, SVG Export Plug-In . SVG Version: 6.00 Build 43363)  -->
<!DOCTYPE svg PUBLIC "-//W3C//DTD SVG 1.1//EN" "http://www.w3.org/Graphics/SVG/1.1/DTD/svg11.dtd">
<svg version="1.1" id="Layer_1" xmlns="http://www.w3.org/2000/svg" xmlns:xlink="http://www.w3.org/1999/xlink" x="0px" y="0px"
	 width="26px" height="26px" viewBox="-1 -1 26 26" enable-background="new -1 -1 26 26" xml:space="preserve">
<g>
	<linearGradient id="SVGID_1_" gradientUnits="userSpaceOnUse" x1="26.4648" y1="16.1094" x2="12.1383" y2="1.7829">
		<stop  offset="0.0727" style="stop-color:#DDC487"/>
		<stop  offset="0.9697" style="stop-color:#C4A185"/>
	</linearGradient>
	<polygon fill="url(#SVGID_1_)" points="20.801,7.563 9.062,7.563 8.8,5.12 24.331,5.12 23.204,19.37 22.21,19.391 	"/>
	<radialGradient id="SVGID_2_" cx="-0.4854" cy="3.5186" r="32.5085" gradientUnits="userSpaceOnUse">
		<stop  offset="0.2061" style="stop-color:#FFFFFF"/>
		<stop  offset="0.2793" style="stop-color:#FFFEF9"/>
		<stop  offset="0.3777" style="stop-color:#FEFCE8"/>
		<stop  offset="0.4904" style="stop-color:#FEF7CC"/>
		<stop  offset="0.6129" style="stop-color:#FDF2A5"/>
		<stop  offset="0.6788" style="stop-color:#FCEE8D"/>
		<stop  offset="0.9697" style="stop-color:#D2AC7C"/>
	</radialGradient>
	<polygon fill="url(#SVGID_2_)" points="2.025,20.688 -0.295,4.251 8.676,4.251 9.127,7.573 20.843,7.573 22.355,20.688 	"/>
</g>
<g>
	<polygon fill="#8C6239" points="9.562,7.063 8.609,8.033 8.612,8.063 8.689,8.063 8.69,8.073 20.351,8.073 21.246,7.073 
		21.245,7.063 	"/>
	<polygon fill="#231F20" points="9.112,3.751 9.108,3.751 8.239,4.751 8.327,5.401 8.362,5.727 8.517,7.17 8.609,8.033 9.562,7.063 
			"/>
	<polygon fill="#8C6239" points="23.79,5.62 9.366,5.62 9.366,5.62 9.23,4.616 24.872,4.62 	"/>
	<polygon fill="#8C6239" points="0.28,4.751 8.239,4.751 9.108,3.751 -0.871,3.751 1.591,21.188 1.597,21.188 2.46,20.188 	"/>
	<path fill="#231F20" d="M23.79,5.62l-1.084,13.711l-0.117-0.986L21.391,7.959l-0.102-0.886h-0.043l-0.896,1h0.008l1.25,10.501
		l0.187,1.614H2.46l-0.863,1h21.305l0.802-1.78L24.872,4.62L23.79,5.62z M22.714,19.43L22.714,19.43l0.016,0.14L22.714,19.43z"/>
	<polygon fill="#8C6239" points="22.714,19.43 22.729,19.569 22.715,19.43 	"/>
	<polygon fill="#8C6239" points="22.589,18.345 22.706,19.331 21.391,7.959 	"/>
</g>
<path fill="#231F20" d="M9.366,5.62"/>
</svg>
