<svg width="24" height="24" viewBox="0 0 24 24" fill="none" xmlns="http://www.w3.org/2000/svg">
<path d="M0.5 3.35001H18.544V16.5189C18.544 17.6235 17.6486 18.5189 16.544 18.5189H2.5C1.39543 18.5189 0.5 17.6235 0.5 16.5189V3.35001Z" fill="url(#paint0_linear_330_1589)" stroke="#616161"/>
<path d="M0.5 0.5H18.544V3.375H0.5V0.5Z" fill="url(#paint1_linear_330_1589)" stroke="#616161"/>
<rect x="2" y="5" width="3" height="2" fill="url(#paint2_linear_330_1589)"/>
<path d="M12 7L7 7L7 5L12 5L12 7Z" fill="url(#paint3_linear_330_1589)"/>
<rect x="14" y="5" width="2.99699" height="1.99772" fill="url(#paint4_linear_330_1589)"/>
<rect x="2" y="8" width="15" height="2" fill="#888889"/>
<rect x="2" y="11" width="15" height="6" fill="#A6A6A6"/>
<path d="M17.4751 15.1292C14.3802 15.1292 11.7673 13.7312 11.7673 12.0812C11.7673 10.4313 14.3802 9.02696 17.4751 9.02696C20.5699 9.02696 23.1828 10.425 23.1828 12.0812C23.1828 13.7375 20.6017 15.1292 17.4751 15.1292Z" fill="url(#paint5_radial_330_1589)"/>
<path d="M22.8657 15.211C22.8657 16.5334 20.6968 18.1456 17.475 18.1456C14.2533 18.1456 12.0844 16.5334 12.0844 15.211V13.5988C13.0737 14.7638 15.1095 15.6266 17.475 15.6266C19.8406 15.6266 21.87 14.7638 22.8657 13.5988V15.211Z" fill="url(#paint6_linear_330_1589)"/>
<path d="M22.8657 17.8371C22.8657 19.1595 20.6968 20.7654 17.475 20.7654C14.2533 20.7654 12.0844 19.1595 12.0844 17.8371V16.8358C13.0737 18.0008 15.1095 18.8573 17.475 18.8573C19.8406 18.8573 21.87 18.0197 22.8657 16.8358V17.8371Z" fill="url(#paint7_linear_330_1589)"/>
<path d="M22.9101 12.4275C22.9101 12.4275 22.9101 12.4779 22.9101 12.5031C22.834 13.8066 20.684 15.3558 17.5257 15.3558C14.3674 15.3558 12.2112 13.8003 12.1351 12.4968C12.1351 12.4968 12.1351 12.4464 12.1351 12.4212H11.5009C11.5183 12.9713 11.7266 13.4986 12.0907 13.9137C13.0673 15.1039 15.1348 15.9793 17.5257 15.9793C19.9167 15.9793 21.87 15.1543 22.8657 14.0208C23.1796 13.6844 23.3984 13.2716 23.4999 12.8242V12.4275H22.9101Z" fill="#CBCBCA"/>
<path d="M22.8658 15.3369C22.8658 16.6594 20.6969 18.2715 17.4751 18.2715C14.2534 18.2715 12.0845 16.6594 12.0845 15.3369H11.4503C11.4503 17.2261 14.1456 18.9013 17.4751 18.9013C20.8047 18.9013 23.5 17.1947 23.5 15.3369H22.8658Z" fill="#CBCBCA"/>
<path d="M23.0371 17.7426C23.0371 19.1028 20.8047 20.7654 17.4751 20.7654C14.1456 20.7654 11.9132 19.1028 11.9132 17.7426H11.4503V18.788C11.5938 19.1615 11.8092 19.5038 12.0845 19.7956C14.3422 22.2264 20.6081 22.239 22.8658 19.7956C23.1424 19.5048 23.358 19.1623 23.5 18.788V17.7426H23.0371Z" fill="#CBCBCA"/>
<path d="M22.9039 19.8082C22.9039 21.3385 20.7222 22.8624 17.4751 22.8624C14.228 22.8624 12.0464 21.3007 12.0464 19.8082V19.4492C13.0357 20.6205 15.0969 21.4896 17.4751 21.4896C19.8534 21.4896 21.9145 20.6205 22.9039 19.4492V19.8082Z" fill="url(#paint8_linear_330_1589)"/>
<g style="mix-blend-mode:lighten" opacity="0.8">
<path d="M23.5 13.3469C23.5 11.4891 20.8047 9.78882 17.4751 9.78882C14.1456 9.78882 11.4503 11.4891 11.4503 13.3469H12.0845C12.0845 12.0307 14.2534 10.4186 17.4751 10.4186C20.6969 10.4186 22.8658 12.0307 22.8658 13.3469H23.5Z" fill="white"/>
</g>
<path d="M23.4932 12.2008C23.3283 10.4249 20.7027 9.00793 17.4747 9.00793C14.2466 9.00793 11.621 10.4249 11.4561 12.2008V20.2742C11.4576 20.3199 11.4684 20.3649 11.4878 20.4064L11.7415 20.9732C12.5152 22.3838 14.792 23.4922 17.481 23.4922C18.2984 23.5308 19.1163 23.4264 19.8973 23.1836C21.2862 22.7302 22.7322 21.8548 23.2205 20.9732L23.4995 20.3434C23.4995 20.3434 23.4995 20.3434 23.4995 20.2993V12.2008H23.4932ZM22.859 19.9341C22.859 21.2503 20.69 22.8624 17.4683 22.8624C14.2466 22.8624 12.084 21.244 12.084 19.9341V18.6746C12.7812 19.3904 13.62 19.9552 14.5478 20.3335C15.4755 20.7117 16.472 20.8952 17.4747 20.8724C18.4773 20.8952 19.4738 20.7117 20.4015 20.3335C21.3293 19.9552 22.1681 19.3904 22.8653 18.6746L22.859 19.9341ZM22.859 17.8244C22.859 19.1469 21.0071 20.2427 17.7854 20.3434C14.4051 20.4505 12.0776 18.7313 12.0776 17.4151V16.1556C12.7685 16.8856 13.6042 17.4655 14.532 17.859C15.4597 18.2524 16.4595 18.4508 17.4683 18.4416C18.478 18.4488 19.4782 18.2483 20.406 17.8526C21.3338 17.457 22.169 16.8749 22.859 16.143V17.8244ZM22.859 14.8961C22.859 16.2123 20.69 17.8244 17.4683 17.8244C14.2466 17.8244 12.084 16.206 12.084 14.8961V13.3469C13.0733 14.5119 15.1091 15.3747 17.4747 15.3747C19.8402 15.3747 21.8697 14.5119 22.8653 13.3469L22.859 14.8961ZM22.8971 12.4967C22.7639 13.7562 20.633 14.745 17.5127 14.745C14.3925 14.745 12.2679 13.7562 12.1347 12.4967C12.1347 12.4967 12.1347 12.4464 12.1347 12.4212V12.3771C12.1347 11.0546 14.3037 9.63768 17.5254 9.63768C20.7471 9.63768 22.9161 11.0546 22.9161 12.3771V12.4275C22.9161 12.4275 22.9034 12.4716 22.9034 12.4967H22.8971Z" fill="url(#paint9_linear_330_1589)"/>
<defs>
<linearGradient id="paint0_linear_330_1589" x1="9.77202" y1="3.35001" x2="9.77202" y2="19.0189" gradientUnits="userSpaceOnUse">
<stop stop-color="#F2F2F2"/>
<stop offset="1" stop-color="#CCCCCC"/>
</linearGradient>
<linearGradient id="paint1_linear_330_1589" x1="18.556" y1="1.9375" x2="-0.964003" y2="1.9375" gradientUnits="userSpaceOnUse">
<stop stop-color="#278CDD"/>
<stop offset="1" stop-color="#B5D0E6"/>
</linearGradient>
<linearGradient id="paint2_linear_330_1589" x1="3" y1="7" x2="3" y2="5" gradientUnits="userSpaceOnUse">
<stop stop-color="#4D4D4D"/>
<stop offset="0.723958" stop-color="#4D4D4D" stop-opacity="0.82"/>
<stop offset="1" stop-color="#4D4D4D" stop-opacity="0.33"/>
</linearGradient>
<linearGradient id="paint3_linear_330_1589" x1="10.3333" y1="5" x2="10.3333" y2="7" gradientUnits="userSpaceOnUse">
<stop stop-color="#4D4D4D"/>
<stop offset="0.723958" stop-color="#4D4D4D" stop-opacity="0.82"/>
<stop offset="1" stop-color="#4D4D4D" stop-opacity="0.33"/>
</linearGradient>
<linearGradient id="paint4_linear_330_1589" x1="14" y1="5.99886" x2="16.997" y2="5.99886" gradientUnits="userSpaceOnUse">
<stop offset="0.109375" stop-color="#4D4D4D" stop-opacity="0.33"/>
<stop offset="0.338542" stop-color="#4D4D4D" stop-opacity="0.82"/>
<stop offset="1" stop-color="#4D4D4D"/>
</linearGradient>
<radialGradient id="paint5_radial_330_1589" cx="0" cy="0" r="1" gradientUnits="userSpaceOnUse" gradientTransform="translate(15.2598 9.72385) rotate(83.9177) scale(6.14684 9.77908)">
<stop offset="0.02" stop-color="#EDECED"/>
<stop offset="0.31" stop-color="#E2E2E2"/>
<stop offset="1" stop-color="#B1B4B4"/>
</radialGradient>
<linearGradient id="paint6_linear_330_1589" x1="12.0844" y1="15.8722" x2="22.8657" y2="15.8722" gradientUnits="userSpaceOnUse">
<stop stop-color="#B2B4B7"/>
<stop offset="0.14" stop-color="#D7D7D8"/>
<stop offset="0.22" stop-color="#E4E3E3"/>
<stop offset="0.37" stop-color="#BCBCBF"/>
<stop offset="0.47" stop-color="#B9B9BC"/>
<stop offset="0.93" stop-color="#808389"/>
<stop offset="1" stop-color="#808389"/>
</linearGradient>
<linearGradient id="paint7_linear_330_1589" x1="12.0844" y1="18.8132" x2="22.8657" y2="18.8132" gradientUnits="userSpaceOnUse">
<stop stop-color="#B2B4B7"/>
<stop offset="0.14" stop-color="#D7D7D8"/>
<stop offset="0.22" stop-color="#E4E3E3"/>
<stop offset="0.37" stop-color="#BCBCBF"/>
<stop offset="0.47" stop-color="#B9B9BC"/>
<stop offset="0.93" stop-color="#808389"/>
<stop offset="1" stop-color="#808389"/>
</linearGradient>
<linearGradient id="paint8_linear_330_1589" x1="12.0464" y1="21.1558" x2="22.9039" y2="21.1558" gradientUnits="userSpaceOnUse">
<stop stop-color="#B2B4B7"/>
<stop offset="0.14" stop-color="#D7D7D8"/>
<stop offset="0.22" stop-color="#E4E3E3"/>
<stop offset="0.37" stop-color="#BCBCBF"/>
<stop offset="0.47" stop-color="#B9B9BC"/>
<stop offset="0.93" stop-color="#808389"/>
<stop offset="1" stop-color="#808389"/>
</linearGradient>
<linearGradient id="paint9_linear_330_1589" x1="12.103" y1="10.8405" x2="22.7518" y2="21.5645" gradientUnits="userSpaceOnUse">
<stop stop-color="#979797"/>
<stop offset="1" stop-color="#4D4E4E"/>
</linearGradient>
</defs>
</svg>
