<?xml version="1.0" encoding="utf-8"?>
<!-- Generator: Adobe Illustrator 20.1.0, SVG Export Plug-In . SVG Version: 6.00 Build 0)  -->
<svg version="1.1" id="Layer_1" xmlns="http://www.w3.org/2000/svg" xmlns:xlink="http://www.w3.org/1999/xlink" x="0px" y="0px"
	 viewBox="0 0 16 16" style="enable-background:new 0 0 16 16;" xml:space="preserve">
<style type="text/css">
	.st0{fill:#0093FF;}
	.st1{fill:#FFFFFF;}
	.st2{fill:url(#SVGID_1_);}
	.st3{fill:url(#SVGID_2_);}
	.st4{opacity:0.8;}
	.st5{fill:url(#SVGID_3_);}
	.st6{fill:url(#SVGID_4_);}
	.st7{opacity:0.5;}
	.st8{fill:url(#SVGID_5_);}
	.st9{fill:#333333;}
	.st10{fill:url(#SVGID_6_);}
	.st11{fill:url(#SVGID_7_);}
	.st12{fill:url(#SVGID_8_);}
	.st13{fill:url(#SVGID_9_);}
	.st14{fill:url(#SVGID_10_);}
	.st15{fill:#4D4D4D;}
	.st16{fill:url(#SVGID_11_);}
	.st17{fill:url(#SVGID_12_);}
	.st18{fill:url(#SVGID_13_);}
	.st19{fill:url(#SVGID_14_);}
	.st20{fill:url(#SVGID_15_);}
	.st21{fill:#1A1A1A;}
</style>
<path class="st0" d="M3.4,6c1.3,0,2.4,0.6,2.4,1.5C5.8,8.4,4.7,9,3.4,9S1,8.4,1,7.5C1,6.6,2.1,6,3.4,6 M3.4,5C1.5,5,0,6,0,7.5
	C0,9,1.5,10,3.4,10c1.9,0,3.4-1,3.4-2.5C6.8,6,5.3,5,3.4,5L3.4,5z"/>
<circle class="st0" cx="14.5" cy="7.5" r="1.5"/>
<circle class="st0" cx="14.5" cy="13.5" r="1.5"/>
<circle class="st0" cx="14.5" cy="1.5" r="1.5"/>
<rect x="7.5" y="5.5" transform="matrix(6.123234e-17 -1 1 6.123234e-17 0.5 15.5)" class="st0" width="1" height="4"/>
<polygon class="st0" points="12,7.5 9,10 9,5 "/>
</svg>
