<?xml version="1.0" encoding="utf-8"?>
<!-- Generator: Adobe Illustrator 20.1.0, SVG Export Plug-In . SVG Version: 6.00 Build 0)  -->
<svg version="1.1" id="Layer_1" xmlns="http://www.w3.org/2000/svg" xmlns:xlink="http://www.w3.org/1999/xlink" x="0px" y="0px"
	 viewBox="0 0 16 16" style="enable-background:new 0 0 16 16;" xml:space="preserve">
<style type="text/css">
	.st0{fill:#0093FF;}
	.st1{fill:#FFFFFF;}
	.st2{fill:url(#SVGID_1_);}
	.st3{fill:url(#SVGID_2_);}
	.st4{opacity:0.8;}
	.st5{fill:url(#SVGID_3_);}
	.st6{fill:url(#SVGID_4_);}
	.st7{opacity:0.5;}
	.st8{fill:url(#SVGID_5_);}
	.st9{fill:#333333;}
	.st10{fill:url(#SVGID_6_);}
	.st11{fill:url(#SVGID_7_);}
	.st12{fill:url(#SVGID_8_);}
	.st13{fill:url(#SVGID_9_);}
	.st14{fill:url(#SVGID_10_);}
	.st15{fill:#4D4D4D;}
	.st16{fill:url(#SVGID_11_);}
	.st17{fill:url(#SVGID_12_);}
	.st18{fill:url(#SVGID_13_);}
	.st19{fill:url(#SVGID_14_);}
	.st20{fill:url(#SVGID_15_);}
	.st21{fill:#1A1A1A;}
</style>
<g>
	<polygon class="st0" points="6,9 6,6 10,6 10,9 6,9 	"/>
</g>
<g>
	<polygon class="st0" points="5,1 6,1 6,15 5,15 5,1 	"/>
</g>
<circle class="st0" cx="1.5" cy="5.5" r="1.5"/>
<circle class="st0" cx="1.5" cy="10.5" r="1.5"/>
<rect y="1" class="st0" width="6" height="1"/>
<rect y="14" class="st0" width="6" height="1"/>
<g>
	<polygon class="st0" points="11,15 10,15 10,1 11,1 11,15 	"/>
</g>
<circle class="st0" cx="14.5" cy="10.5" r="1.5"/>
<circle class="st0" cx="14.5" cy="5.5" r="1.5"/>
<rect x="10" y="14" transform="matrix(-1 -1.224647e-16 1.224647e-16 -1 26 29)" class="st0" width="6" height="1"/>
<rect x="10" y="1" transform="matrix(-1 -1.224647e-16 1.224647e-16 -1 26 3)" class="st0" width="6" height="1"/>
</svg>
