<?xml version="1.0" encoding="utf-8"?>
<!-- Generator: Adobe Illustrator 19.2.0, SVG Export Plug-In . SVG Version: 6.00 Build 0)  -->
<svg version="1.1" id="Layer_1" xmlns="http://www.w3.org/2000/svg" xmlns:xlink="http://www.w3.org/1999/xlink" x="0px" y="0px"
	 viewBox="0 0 16 16" style="enable-background:new 0 0 16 16;" xml:space="preserve">
<style type="text/css">
	.st0{fill:#0093FF;}
</style>
<g>
	<path class="st0" d="M4.8,11.5c1.6,0,3.3-1.4,4-3.5c0.6-1.9,1.9-3.1,3.3-3.1h0c1.2,0,1.9,0.6,2.5,2.5L15,7
		c-0.5-1.6-1.3-2.6-2.9-2.6c0,0,0,0,0,0c-1.7,0-3.2,1.4-3.9,3.5C7.5,9.7,6,11,4.7,11c-1.5-0.1-2.6-1.8-3-4.7L1,6.3
		c0.7,4.4,2.6,5.1,3.7,5.2C4.7,11.5,4.8,11.5,4.8,11.5L4.8,11.5z"/>
</g>
<path class="st0" d="M1,1v14h14V1H1z M12,14h-2H9H7H6H4H3H2v-1v-1v-2V9V7V6V4V3V2l12,0v12h-1H12z"/>
</svg>
