<svg width="50" height="40" viewBox="0 0 50 40" fill="none" xmlns="http://www.w3.org/2000/svg">
<rect x="0.5" y="0.5" width="48" height="38" rx="1" stroke="var(--mw-icon-object-primary, #616160)"/>
<path d="M26 6V14H25.0054V7.2623L23 8.00546V7.0929L25.8441 6H26Z" fill="var(--mw-icon-object-primary, #616160)"/>
<path d="M27 32.1762V33H22.1427V32.2791L24.5739 29.4011C24.8729 29.047 25.104 28.7471 25.2671 28.5014C25.4336 28.252 25.5491 28.0298 25.6137 27.8347C25.6816 27.636 25.7156 27.4336 25.7156 27.2276C25.7156 26.9675 25.6646 26.7326 25.5627 26.523C25.4642 26.3098 25.318 26.14 25.1244 26.0136C24.9307 25.8871 24.6962 25.8238 24.421 25.8238C24.0914 25.8238 23.8162 25.8925 23.5953 26.0298C23.3778 26.1635 23.2147 26.3514 23.106 26.5935C22.9973 26.8356 22.9429 27.1138 22.9429 27.4282H22C22 26.9837 22.0917 26.5772 22.2752 26.2087C22.4587 25.8401 22.7305 25.5474 23.0907 25.3306C23.4509 25.1102 23.8943 25 24.421 25C24.8899 25 25.2909 25.0885 25.6239 25.2656C25.9568 25.439 26.2117 25.6847 26.3884 26.0027C26.5685 26.3171 26.6585 26.6856 26.6585 27.1084C26.6585 27.3397 26.6211 27.5745 26.5464 27.813C26.475 28.0479 26.3748 28.2827 26.2457 28.5176C26.1199 28.7525 25.9721 28.9837 25.8022 29.2114C25.6357 29.439 25.4574 29.6631 25.2671 29.8835L23.2793 32.1762H27Z" fill="var(--mw-icon-object-primary, #616160)"/>
<path d="M0 19.5H49" stroke="var(--mw-icon-object-primary, #616160)"/>
</svg>
