<svg width="50" height="41" viewBox="0 0 50 41" fill="none" xmlns="http://www.w3.org/2000/svg">
<path d="M5.5 27.5V12.5L24.5 1.5L43.5 12.5V27.5L24.5 38.5L5.5 27.5Z" fill="var(--mw-icon-background-default-white, white)"/>
<path d="M24.5 17L24.5058 2.08362L43.0197 12.7539V27.6225L24.5 17Z" fill="var(--mw-icon-background-default-light-gray, #F5F5F5)"/>
<path d="M24.5 17L24.4942 2.08362L5.98034 12.7675L5.98034 27.6225L24.5 17Z" fill="#E6E6E6"/>
<path d="M43.5 27.5V12.459L24.5 1.5L5.5 12.47" stroke="#BFBFBF" stroke-linecap="round" stroke-linejoin="round"/>
<path d="M5.5 12.5V27.53L24.5 38.5L43.5 27.5352" stroke="var(--mw-icon-border-default-gray, #616161)" stroke-linecap="round" stroke-linejoin="round"/>
<path d="M15.6799 9.7995C15.6799 9.7995 15.2036 10.098 14.918 10.3164C14.6421 10.5274 14.2422 10.8945 14.2422 10.8945C14.2422 10.8945 12.5 12.4647 12.5 14.5C12.5 23.826 36.5 26.2657 36.5 18.5C36.5 11.7849 12.5 11.3925 12.5 20C12.5 28.6076 36.5 30.7193 36.5 24C36.5 18.0762 19.0244 19.9797 16.625 21.2774C16.0988 21.5619 15.7897 21.6779 15.159 22.1719" stroke="#0072BD" stroke-linecap="round"/>

</svg>
