<svg width="50" height="40" viewBox="0 0 50 40" fill="none" xmlns="http://www.w3.org/2000/svg">
<rect x="0.5" y="0.5" width="48" height="38" rx="1" stroke="var(--mw-icon-object-primary, #616160)"/>
<path d="M10 6V14H9.00538V7.2623L7 8.00546V7.0929L9.84409 6H10Z" fill="var(--mw-icon-object-primary, #616160)"/>
<path d="M27 13.1762V14H22.1427V13.2791L24.5739 10.4011C24.8729 10.047 25.104 9.74706 25.2671 9.50136C25.4336 9.25203 25.5491 9.02981 25.6137 8.83469C25.6816 8.63595 25.7156 8.4336 25.7156 8.22764C25.7156 7.96748 25.6646 7.73261 25.5627 7.52304C25.4642 7.30985 25.318 7.14002 25.1244 7.01355C24.9307 6.88708 24.6962 6.82385 24.421 6.82385C24.0914 6.82385 23.8162 6.8925 23.5953 7.02981C23.3778 7.1635 23.2147 7.3514 23.106 7.5935C22.9973 7.83559 22.9429 8.11382 22.9429 8.42818H22C22 7.98374 22.0917 7.57724 22.2752 7.20867C22.4587 6.84011 22.7305 6.54743 23.0907 6.33062C23.4509 6.11021 23.8943 6 24.421 6C24.8899 6 25.2909 6.08853 25.6239 6.26558C25.9568 6.43902 26.2117 6.68473 26.3884 7.00271C26.5685 7.31707 26.6585 7.68564 26.6585 8.1084C26.6585 8.33966 26.6211 8.57453 26.5464 8.81301C26.475 9.04788 26.3748 9.28275 26.2457 9.51762C26.1199 9.75248 25.9721 9.98374 25.8022 10.2114C25.6357 10.439 25.4574 10.6631 25.2671 10.8835L23.2793 13.1762H27Z" fill="var(--mw-icon-object-primary, #616160)"/>
<path d="M0 19.5H49" stroke="var(--mw-icon-object-primary, #616160)"/>
<path d="M32.5 1V39" stroke="var(--mw-icon-object-primary, #616160)"/>
<path d="M16.5 1V39" stroke="var(--mw-icon-object-primary, #616160)"/>
<path d="M39.6035 9.51337H40.3185C40.6688 9.51337 40.9577 9.45633 41.1853 9.34225C41.4164 9.2246 41.5879 9.06595 41.6999 8.86631C41.8155 8.6631 41.8732 8.43494 41.8732 8.18182C41.8732 7.88235 41.8227 7.63102 41.7216 7.42781C41.6204 7.2246 41.4688 7.0713 41.2665 6.96791C41.0643 6.86453 40.8079 6.81283 40.4973 6.81283C40.2156 6.81283 39.9664 6.86809 39.7497 6.97861C39.5367 7.08556 39.3687 7.23886 39.2459 7.4385C39.1268 7.63815 39.0672 7.87344 39.0672 8.14438H38.065C38.065 7.74866 38.1661 7.38859 38.3684 7.06417C38.5706 6.73975 38.8541 6.48128 39.2189 6.28877C39.5872 6.09626 40.0134 6 40.4973 6C40.974 6 41.3911 6.08378 41.7486 6.25134C42.1062 6.41533 42.3843 6.66132 42.5829 6.9893C42.7815 7.31373 42.8808 7.71836 42.8808 8.20321C42.8808 8.39929 42.8339 8.60963 42.74 8.83422C42.6497 9.05526 42.507 9.26203 42.312 9.45455C42.1206 9.64706 41.8714 9.8057 41.5645 9.93048C41.2575 10.0517 40.8891 10.1123 40.4594 10.1123H39.6035V9.51337ZM39.6035 10.3262V9.73262H40.4594C40.9614 9.73262 41.3767 9.79144 41.7053 9.90909C42.0339 10.0267 42.2922 10.1836 42.48 10.3797C42.6714 10.5758 42.805 10.7914 42.8808 11.0267C42.9603 11.2585 43 11.4902 43 11.7219C43 12.0856 42.9368 12.4082 42.8104 12.6898C42.6876 12.9715 42.5125 13.2103 42.2849 13.4064C42.061 13.6025 41.7974 13.7504 41.494 13.8503C41.1907 13.9501 40.8602 14 40.5027 14C40.1596 14 39.8364 13.9519 39.533 13.8556C39.2333 13.7594 38.9679 13.6203 38.7367 13.4385C38.5056 13.2531 38.325 13.0267 38.195 12.7594C38.065 12.4884 38 12.18 38 11.8342H39.0022C39.0022 12.1052 39.0618 12.3422 39.1809 12.5455C39.3037 12.7487 39.4771 12.9073 39.701 13.0214C39.9285 13.1319 40.1957 13.1872 40.5027 13.1872C40.8097 13.1872 41.0733 13.1355 41.2936 13.0321C41.5175 12.9251 41.6891 12.7647 41.8082 12.5508C41.931 12.3369 41.9924 12.0677 41.9924 11.7433C41.9924 11.4189 41.9238 11.1533 41.7866 10.9465C41.6493 10.7362 41.4543 10.5811 41.2015 10.4813C40.9523 10.3779 40.658 10.3262 40.3185 10.3262H39.6035Z" fill="var(--mw-icon-object-primary, #616160)"/>
<path d="M6 31.3594V30.5625L9.64865 25H10.2486V26.2344H9.84324L7.08649 30.4375V30.5H12V31.3594H6ZM9.90811 33V25H10.8649V33H9.90811Z" fill="var(--mw-icon-object-primary, #616160)"/>
<path d="M24.9085 33C24.372 33 23.8887 32.9101 23.4588 32.7303C23.029 32.5504 22.6845 32.3038 22.4253 31.9904C22.1662 31.6769 22.0244 31.3198 22 30.9191H23.0976C23.1402 31.2762 23.3323 31.5716 23.6738 31.8054C24.0183 32.0366 24.4299 32.1522 24.9085 32.1522C25.2927 32.1522 25.6341 32.0764 25.9329 31.9249C26.2348 31.7733 26.471 31.5652 26.6418 31.3006C26.8155 31.0334 26.9024 30.7315 26.9024 30.395C26.9024 30.0507 26.8125 29.7437 26.6326 29.474C26.4558 29.2017 26.2119 28.9872 25.9009 28.8304C25.5899 28.6737 25.2348 28.5941 24.8354 28.5915C24.5488 28.589 24.2546 28.6262 23.9527 28.7033C23.6509 28.7778 23.4024 28.8741 23.2073 28.9923L22.1463 28.8844L22.7134 25H27.5793V25.8478H23.6646L23.3354 28.1753H23.3902C23.5823 28.0469 23.8232 27.9403 24.1128 27.8555C24.4024 27.7707 24.7043 27.7283 25.0183 27.7283C25.5915 27.7283 26.1021 27.8439 26.5503 28.0751C27.0015 28.3038 27.3552 28.6172 27.6113 29.0154C27.8704 29.4136 28 29.8683 28 30.3796C28 30.8831 27.8659 31.3327 27.5976 31.7283C27.3323 32.1214 26.9665 32.4322 26.5 32.6609C26.0335 32.887 25.503 33 24.9085 33Z" fill="var(--mw-icon-object-primary, #616160)"/>
<path d="M41.0602 32.9998C40.6991 32.9948 40.3381 32.9339 39.9771 32.8173C39.616 32.7007 39.2865 32.5043 38.9885 32.228C38.6905 31.9492 38.4513 31.5727 38.2708 31.0987C38.0903 30.6222 38 30.024 38 29.3041C38 28.6146 38.0731 28.0037 38.2192 27.4714C38.3653 26.9366 38.5774 26.4867 38.8553 26.1217C39.1332 25.7541 39.4685 25.4753 39.861 25.2852C40.2564 25.0951 40.702 25 41.1977 25C41.6905 25 42.1289 25.0875 42.5129 25.2624C42.8997 25.4347 43.2149 25.6755 43.4585 25.9848C43.702 26.294 43.8596 26.6502 43.9312 27.0532H42.8825C42.7851 26.7034 42.596 26.4132 42.3152 26.1825C42.0344 25.9518 41.6619 25.8365 41.1977 25.8365C40.5158 25.8365 39.9785 26.0988 39.586 26.6235C39.1963 27.1482 39 27.8846 38.9971 28.8326H39.0659C39.2264 28.6172 39.4169 28.4334 39.6375 28.2813C39.861 28.1267 40.1074 28.0075 40.3768 27.9239C40.6461 27.8402 40.9312 27.7984 41.2321 27.7984C41.7364 27.7984 42.1977 27.91 42.616 28.133C43.0344 28.3535 43.3696 28.659 43.6218 29.0493C43.8739 29.4372 44 29.882 44 30.3839C44 30.8655 43.8782 31.3066 43.6347 31.7071C43.3911 32.1051 43.0487 32.4219 42.6075 32.6576C42.1691 32.8908 41.6533 33.0049 41.0602 32.9998ZM41.0602 32.1634C41.4212 32.1634 41.745 32.0835 42.0315 31.9238C42.3209 31.7641 42.5487 31.5499 42.7149 31.2812C42.884 31.0126 42.9685 30.7134 42.9685 30.3839C42.9685 30.062 42.8868 29.7692 42.7235 29.5056C42.563 29.2395 42.341 29.0278 42.0573 28.8706C41.7765 28.7135 41.4556 28.6349 41.0946 28.6349C40.8223 28.6349 40.5688 28.6831 40.3338 28.7794C40.0989 28.8732 39.8926 29.0025 39.7149 29.1672C39.5401 29.332 39.4026 29.5208 39.3023 29.7337C39.202 29.9441 39.1519 30.1659 39.1519 30.3991C39.1519 30.7084 39.2335 30.9973 39.3968 31.266C39.563 31.5347 39.7894 31.7514 40.0759 31.9162C40.3653 32.081 40.6934 32.1634 41.0602 32.1634Z" fill="var(--mw-icon-object-primary, #616160)"/>
</svg>
