<svg width="50" height="40" viewBox="0 0 50 40" fill="none" xmlns="http://www.w3.org/2000/svg">
<path d="M0.5 1.5C0.5 0.947716 0.947715 0.5 1.5 0.5H47.5C48.0523 0.5 48.5 0.947715 48.5 1.5V37.5C48.5 38.0523 48.0523 38.5 47.5 38.5H1.5C0.947714 38.5 0.5 38.0523 0.5 37.5V1.5Z" fill="var(--mw-icon-background-default-white, #FFFFFF)"/>
<path d="M33.1729 3.6958L31.4326 9H30.0308L32.4082 2.60156H33.3003L33.1729 3.6958ZM34.6187 9L32.874 3.6958L32.7334 2.60156H33.6343L36.0249 9H34.6187ZM34.5396 6.61816V7.65088H31.1602V6.61816H34.5396Z" fill="var(--mw-icon-glyph-content-dark-gray, #333333)"/>
<path d="M40.23 6.87744H41.544C41.5176 7.30811 41.399 7.69043 41.1881 8.02441C40.98 8.3584 40.6885 8.61914 40.3135 8.80664C39.9415 8.99414 39.4932 9.08789 38.9688 9.08789C38.5587 9.08789 38.191 9.01758 37.8658 8.87695C37.5406 8.7334 37.2623 8.52832 37.0308 8.26172C36.8023 7.99512 36.628 7.67285 36.5079 7.29492C36.3878 6.91699 36.3277 6.49365 36.3277 6.0249V5.58105C36.3277 5.1123 36.3892 4.68896 36.5123 4.31104C36.6382 3.93018 36.817 3.60645 37.0484 3.33984C37.2828 3.07324 37.5626 2.86816 37.8878 2.72461C38.213 2.58105 38.5762 2.50928 38.9776 2.50928C39.5108 2.50928 39.9605 2.60596 40.3267 2.79932C40.6959 2.99268 40.9815 3.25928 41.1837 3.59912C41.3887 3.93896 41.5118 4.32568 41.5528 4.75928H40.2344C40.2198 4.50146 40.1685 4.2832 40.0806 4.10449C39.9927 3.92285 39.8594 3.78662 39.6807 3.6958C39.5049 3.60205 39.2706 3.55518 38.9776 3.55518C38.7579 3.55518 38.566 3.59619 38.4019 3.67822C38.2379 3.76025 38.1002 3.88477 37.9888 4.05176C37.8775 4.21875 37.794 4.42969 37.7383 4.68457C37.6856 4.93652 37.6592 5.23242 37.6592 5.57227V6.0249C37.6592 6.35596 37.6841 6.64746 37.734 6.89941C37.7838 7.14844 37.8599 7.35938 37.9625 7.53223C38.0679 7.70215 38.2027 7.83105 38.3668 7.91895C38.5338 8.00391 38.7344 8.04639 38.9688 8.04639C39.2442 8.04639 39.4713 8.00244 39.65 7.91455C39.8287 7.82666 39.9649 7.69629 40.0587 7.52344C40.1553 7.35059 40.2125 7.13525 40.23 6.87744Z" fill="var(--mw-icon-glyph-content-dark-gray, #333333)"/>
<path d="M43.7101 2.60156V9H42.3917V2.60156H43.7101ZM46.2589 5.33496V6.36328H43.3497V5.33496H46.2589ZM46.5665 2.60156V3.63428H43.3497V2.60156H46.5665Z" fill="var(--mw-icon-glyph-content-dark-gray, #333333)"/>
<path d="M1 28.5H48M1 10.5H48" stroke="#FF6929"/>
<path d="M1 19.5H48" stroke="var(--mw-icon-glyph-content-gray, #616162)"/>
<path d="M44.5 31V20M5.5 5V19M10.5 12V19M17.5 13V19M38.5 20V26.5M31.5 20V24" stroke="#139FFF"/>
<circle cx="5.5" cy="4.5" r="2.5" fill="#139FFF"/>
<circle cx="10.5" cy="10.5" r="2.5" fill="#139FFF"/>
<path d="M20 14.5C20 15.8807 18.8807 17 17.5 17C16.1193 17 15 15.8807 15 14.5C15 13.1193 16.1193 12 17.5 12C18.8807 12 20 13.1193 20 14.5Z" fill="#139FFF"/>
<path d="M27 19.5C27 20.8807 25.8807 22 24.5 22C23.1193 22 22 20.8807 22 19.5C22 18.1193 23.1193 17 24.5 17C25.8807 17 27 18.1193 27 19.5Z" fill="#139FFF"/>
<path d="M34 24.5C34 25.8807 32.8807 27 31.5 27C30.1193 27 29 25.8807 29 24.5C29 23.1193 30.1193 22 31.5 22C32.8807 22 34 23.1193 34 24.5Z" fill="#139FFF"/>
<path d="M41 28.5C41 29.8807 39.8807 31 38.5 31C37.1193 31 36 29.8807 36 28.5C36 27.1193 37.1193 26 38.5 26C39.8807 26 41 27.1193 41 28.5Z" fill="#139FFF"/>
<path d="M47 33C47 34.3807 45.8807 35.5 44.5 35.5C43.1193 35.5 42 34.3807 42 33C42 31.6193 43.1193 30.5 44.5 30.5C45.8807 30.5 47 31.6193 47 33Z" fill="#139FFF"/>
<rect x="0.5" y="0.5" width="48" height="38" rx="1" stroke="var(--mw-icon-border-default-gray, #616161)"/>
</svg>
