<svg width="50" height="40" viewBox="0 0 50 40" fill="none" xmlns="http://www.w3.org/2000/svg">
<rect x="0.5" y="0.5" width="48" height="38" rx="1" fill="var(--mw-icon-object-secondary, #FFFFFE)" stroke="var(--mw-icon-border-default-gray, #616161)"/>
<path d="M16.911 16.4429L14.7449 22.8931H13L15.9592 15.1122H17.0696L16.911 16.4429ZM18.7106 22.8931L16.539 16.4429L16.364 15.1122H17.4853L20.461 22.8931H18.7106ZM18.6121 19.9967V21.2525H14.4058V19.9967H18.6121Z" fill="var(--mw-icon-object-primary, #616160)"/>
<path d="M27.4132 18.8263V21.9098C27.2892 22.0559 27.0978 22.2144 26.8389 22.3854C26.58 22.5529 26.2463 22.6972 25.8379 22.8183C25.4295 22.9394 24.9354 23 24.3555 23C23.8414 23 23.3728 22.9181 22.9498 22.7542C22.5268 22.5867 22.1621 22.3427 21.8558 22.022C21.5531 21.7014 21.3197 21.3095 21.1556 20.8464C20.9915 20.3796 20.9095 19.847 20.9095 19.2485V18.7622C20.9095 18.1637 20.9879 17.631 21.1447 17.1643C21.3052 16.6976 21.5331 16.3039 21.8284 15.9833C22.1238 15.6627 22.4757 15.4186 22.8841 15.2512C23.2926 15.0837 23.7466 15 24.2461 15C24.939 15 25.5079 15.1104 25.9528 15.3313C26.3976 15.5487 26.7368 15.8515 26.9702 16.2398C27.2072 16.6246 27.3531 17.0664 27.4078 17.5651H25.816C25.7759 17.3015 25.6993 17.0717 25.5863 16.8758C25.4732 16.6798 25.311 16.5266 25.0995 16.4162C24.8916 16.3057 24.6217 16.2505 24.2899 16.2505C24.0164 16.2505 23.7721 16.3057 23.5569 16.4162C23.3454 16.523 23.1667 16.6816 23.0209 16.8918C22.875 17.102 22.7638 17.3621 22.6872 17.672C22.6106 17.982 22.5724 18.3418 22.5724 18.7515V19.2485C22.5724 19.6546 22.6125 20.0145 22.6927 20.328C22.7729 20.6379 22.8914 20.8998 23.0482 21.1136C23.2087 21.3238 23.4056 21.4823 23.639 21.5892C23.8724 21.6961 24.144 21.7495 24.454 21.7495C24.7129 21.7495 24.9281 21.7281 25.0995 21.6854C25.2745 21.6426 25.4149 21.591 25.5206 21.5304C25.63 21.4663 25.7139 21.4057 25.7723 21.3487V19.9699H24.2735V18.8263H27.4132Z" fill="var(--mw-icon-object-primary, #616160)"/>
<path d="M33.3536 20.312H34.9891C34.9562 20.8357 34.8086 21.3006 34.546 21.7067C34.2871 22.1129 33.9242 22.43 33.4575 22.658C32.9944 22.886 32.4364 23 31.7837 23C31.2732 23 30.8155 22.9145 30.4107 22.7435C30.006 22.5689 29.6595 22.3195 29.3715 21.9953C29.087 21.6711 28.87 21.2792 28.7205 20.8196C28.571 20.3601 28.4963 19.8452 28.4963 19.2752V18.7355C28.4963 18.1654 28.5728 17.6506 28.726 17.191C28.8828 16.7279 29.1053 16.3342 29.3933 16.01C29.6851 15.6858 30.0333 15.4364 30.4381 15.2619C30.8429 15.0873 31.295 15 31.7946 15C32.4583 15 33.0181 15.1176 33.4739 15.3527C33.9334 15.5878 34.2889 15.912 34.5405 16.3253C34.7958 16.7386 34.9489 17.2089 35 17.7361H33.359C33.3408 17.4226 33.277 17.1572 33.1676 16.9399C33.0582 16.719 32.8923 16.5533 32.6698 16.4429C32.451 16.3289 32.1593 16.2719 31.7946 16.2719C31.5211 16.2719 31.2823 16.3218 31.0781 16.4215C30.8739 16.5213 30.7025 16.6727 30.5639 16.8758C30.4253 17.0788 30.3214 17.3353 30.2521 17.6453C30.1865 17.9517 30.1537 18.3115 30.1537 18.7248V19.2752C30.1537 19.6778 30.1847 20.0323 30.2466 20.3387C30.3086 20.6415 30.4034 20.898 30.5311 21.1082C30.6624 21.3149 30.8301 21.4716 31.0343 21.5785C31.2422 21.6818 31.492 21.7335 31.7837 21.7335C32.1265 21.7335 32.4091 21.68 32.6315 21.5731C32.854 21.4663 33.0235 21.3077 33.1402 21.0975C33.2606 20.8873 33.3317 20.6255 33.3536 20.312Z" fill="var(--mw-icon-object-primary, #616160)"/>
</svg>
