<svg width="50" height="40" viewBox="0 0 50 40" fill="none" xmlns="http://www.w3.org/2000/svg">
<rect x="0.5" y="0.5" width="48" height="38" rx="1" fill="var(--mw-icon-background-default-white, white)"/>
<path d="M1 21.5176C1 21.5176 3.95776 19.8981 6.67241 20.7079C11.0564 22.0277 28.7867 28.1898 34.2241 27.9955C41.7766 27.7283 48 23.1371 48 23.1371V21.5176L30.9828 26.376C30.9828 26.376 21.7691 22.1249 12.3448 17.4689C6.67241 14.651 2.45052 16.4325 1 18.2787V21.5176Z" fill="#0072BD"/>
<path d="M1.00583 18.919C1.00583 18.919 0.671707 18.2766 5.06266 18.2766C9.45362 18.2766 18.43 28 20.4553 28C22.4806 28 43.8764 26.7491 48 21.6108V19.196C48 19.196 39.1776 23.526 36.6581 24.7986C34.2763 25.9991 27.5602 26.1992 24.506 25.5989C21.4518 24.9986 18.5272 24.7986 12.3539 20.7968C10.1746 19.3881 8.15738 17.3792 6.53711 16.7949C3.0049 15.4664 1.00583 16.2045 1.00583 16.2045V18.919Z" fill="#EDB120"/>
<path d="M1 16.4782C1 16.4782 5.91879 15.6001 8.2931 17.9257C10.6674 20.2513 17.5148 29 22.069 29C26.6231 29 39.2159 25.8359 42.5221 23.4629C44.4166 22.2374 46.245 20.9173 48 19.5078V14.7617C48 14.7617 41.4119 22.0786 36.6552 23.4629C31.8984 24.8472 24.3947 27.0225 21.2586 26.6269C18.1226 26.2314 12.5555 16.8341 9.10345 13.1796C8.07106 12.107 6.81068 11.268 5.41079 10.7213C4.01089 10.1747 2.50541 9.93385 1 10.0156V16.3437" fill="#D95319"/>
<rect x="0.5" y="0.5" width="48" height="38" rx="1" stroke="var(--mw-icon-border-default-gray, #616161)"/>

</svg>
