<svg width="50" height="40" viewBox="0 0 50 40" fill="none" xmlns="http://www.w3.org/2000/svg">
<rect x="0.5" y="0.5" width="48" height="38" rx="1" fill="var(--mw-icon-background-default-white, #FFFFFF)"/>
<rect x="0.5" y="0.5" width="48" height="38" rx="1" stroke="var(--mw-icon-border-default-gray, #616161)"/>
<path d="M14 8C14 8.55228 13.5523 9 13 9C12.4477 9 12 8.55228 12 8C12 7.44772 12.4477 7 13 7C13.5523 7 14 7.44772 14 8Z" fill="#0072BD"/>
<path d="M11 8C11 8.55228 10.5523 9 10 9C9.44772 9 9 8.55228 9 8C9 7.44772 9.44772 7 10 7C10.5523 7 11 7.44772 11 8Z" fill="#0072BD"/>
<path d="M20 8C20 8.55228 19.5523 9 19 9C18.4477 9 18 8.55228 18 8C18 7.44772 18.4477 7 19 7C19.5523 7 20 7.44772 20 8Z" fill="#0072BD"/>
<path d="M23 8C23 8.55228 22.5523 9 22 9C21.4477 9 21 8.55228 21 8C21 7.44772 21.4477 7 22 7C22.5523 7 23 7.44772 23 8Z" fill="#0072BD"/>
<path d="M26 8C26 8.55228 25.5523 9 25 9C24.4477 9 24 8.55228 24 8C24 7.44772 24.4477 7 25 7C25.5523 7 26 7.44772 26 8Z" fill="#0072BD"/>
<path d="M29 8C29 8.55228 28.5523 9 28 9C27.4477 9 27 8.55228 27 8C27 7.44772 27.4477 7 28 7C28.5523 7 29 7.44772 29 8Z" fill="#0072BD"/>
<path d="M32 8C32 8.55228 31.5523 9 31 9C30.4477 9 30 8.55228 30 8C30 7.44772 30.4477 7 31 7C31.5523 7 32 7.44772 32 8Z" fill="#0072BD"/>
<path d="M38 8C38 8.55228 37.5523 9 37 9C36.4477 9 36 8.55228 36 8C36 7.44772 36.4477 7 37 7C37.5523 7 38 7.44772 38 8Z" fill="#0072BD"/>
<path d="M41 8C41 8.55228 40.5523 9 40 9C39.4477 9 39 8.55228 39 8C39 7.44772 39.4477 7 40 7C40.5523 7 41 7.44772 41 8Z" fill="#0072BD"/>
<path d="M17 11C17 11.5523 16.5523 12 16 12C15.4477 12 15 11.5523 15 11C15 10.4477 15.4477 10 16 10C16.5523 10 17 10.4477 17 11Z" fill="#0072BD"/>
<path d="M11 11C11 11.5523 10.5523 12 10 12C9.44772 12 9 11.5523 9 11C9 10.4477 9.44772 10 10 10C10.5523 10 11 10.4477 11 11Z" fill="#0072BD"/>
<path d="M17 29C17 29.5523 16.5523 30 16 30C15.4477 30 15 29.5523 15 29C15 28.4477 15.4477 28 16 28C16.5523 28 17 28.4477 17 29Z" fill="#0072BD"/>
<path d="M11 29C11 29.5523 10.5523 30 10 30C9.44772 30 9 29.5523 9 29C9 28.4477 9.44772 28 10 28C10.5523 28 11 28.4477 11 29Z" fill="#0072BD"/>
<path d="M17 32C17 32.5523 16.5523 33 16 33C15.4477 33 15 32.5523 15 32C15 31.4477 15.4477 31 16 31C16.5523 31 17 31.4477 17 32Z" fill="#0072BD"/>
<path d="M14 32C14 32.5523 13.5523 33 13 33C12.4477 33 12 32.5523 12 32C12 31.4477 12.4477 31 13 31C13.5523 31 14 31.4477 14 32Z" fill="#0072BD"/>
<path d="M11 32C11 32.5523 10.5523 33 10 33C9.44772 33 9 32.5523 9 32C9 31.4477 9.44772 31 10 31C10.5523 31 11 31.4477 11 32Z" fill="#0072BD"/>
<path d="M20 11C20 11.5523 19.5523 12 19 12C18.4477 12 18 11.5523 18 11C18 10.4477 18.4477 10 19 10C19.5523 10 20 10.4477 20 11Z" fill="#0072BD"/>
<path d="M20 29C20 29.5523 19.5523 30 19 30C18.4477 30 18 29.5523 18 29C18 28.4477 18.4477 28 19 28C19.5523 28 20 28.4477 20 29Z" fill="#0072BD"/>
<path d="M20 32C20 32.5523 19.5523 33 19 33C18.4477 33 18 32.5523 18 32C18 31.4477 18.4477 31 19 31C19.5523 31 20 31.4477 20 32Z" fill="#0072BD"/>
<path d="M23 11C23 11.5523 22.5523 12 22 12C21.4477 12 21 11.5523 21 11C21 10.4477 21.4477 10 22 10C22.5523 10 23 10.4477 23 11Z" fill="#0072BD"/>
<path d="M23 29C23 29.5523 22.5523 30 22 30C21.4477 30 21 29.5523 21 29C21 28.4477 21.4477 28 22 28C22.5523 28 23 28.4477 23 29Z" fill="#0072BD"/>
<path d="M23 32C23 32.5523 22.5523 33 22 33C21.4477 33 21 32.5523 21 32C21 31.4477 21.4477 31 22 31C22.5523 31 23 31.4477 23 32Z" fill="#0072BD"/>
<path d="M26 11C26 11.5523 25.5523 12 25 12C24.4477 12 24 11.5523 24 11C24 10.4477 24.4477 10 25 10C25.5523 10 26 10.4477 26 11Z" fill="#0072BD"/>
<path d="M26 29C26 29.5523 25.5523 30 25 30C24.4477 30 24 29.5523 24 29C24 28.4477 24.4477 28 25 28C25.5523 28 26 28.4477 26 29Z" fill="#0072BD"/>
<path d="M29 11C29 11.5523 28.5523 12 28 12C27.4477 12 27 11.5523 27 11C27 10.4477 27.4477 10 28 10C28.5523 10 29 10.4477 29 11Z" fill="#0072BD"/>
<path d="M29 32C29 32.5523 28.5523 33 28 33C27.4477 33 27 32.5523 27 32C27 31.4477 27.4477 31 28 31C28.5523 31 29 31.4477 29 32Z" fill="#0072BD"/>
<path d="M32 29C32 29.5523 31.5523 30 31 30C30.4477 30 30 29.5523 30 29C30 28.4477 30.4477 28 31 28C31.5523 28 32 28.4477 32 29Z" fill="#0072BD"/>
<path d="M32 32C32 32.5523 31.5523 33 31 33C30.4477 33 30 32.5523 30 32C30 31.4477 30.4477 31 31 31C31.5523 31 32 31.4477 32 32Z" fill="#0072BD"/>
<path d="M35 11C35 11.5523 34.5523 12 34 12C33.4477 12 33 11.5523 33 11C33 10.4477 33.4477 10 34 10C34.5523 10 35 10.4477 35 11Z" fill="#0072BD"/>
<path d="M38 11C38 11.5523 37.5523 12 37 12C36.4477 12 36 11.5523 36 11C36 10.4477 36.4477 10 37 10C37.5523 10 38 10.4477 38 11Z" fill="#0072BD"/>
<path d="M41 11C41 11.5523 40.5523 12 40 12C39.4477 12 39 11.5523 39 11C39 10.4477 39.4477 10 40 10C40.5523 10 41 10.4477 41 11Z" fill="#0072BD"/>
<path d="M35 29C35 29.5523 34.5523 30 34 30C33.4477 30 33 29.5523 33 29C33 28.4477 33.4477 28 34 28C34.5523 28 35 28.4477 35 29Z" fill="#0072BD"/>
<path d="M41 29C41 29.5523 40.5523 30 40 30C39.4477 30 39 29.5523 39 29C39 28.4477 39.4477 28 40 28C40.5523 28 41 28.4477 41 29Z" fill="#0072BD"/>
<path d="M38 32C38 32.5523 37.5523 33 37 33C36.4477 33 36 32.5523 36 32C36 31.4477 36.4477 31 37 31C37.5523 31 38 31.4477 38 32Z" fill="#0072BD"/>
<path d="M41 32C41 32.5523 40.5523 33 40 33C39.4477 33 39 32.5523 39 32C39 31.4477 39.4477 31 40 31C40.5523 31 41 31.4477 41 32Z" fill="#0072BD"/>
<path d="M17 14C17 14.5523 16.5523 15 16 15C15.4477 15 15 14.5523 15 14C15 13.4477 15.4477 13 16 13C16.5523 13 17 13.4477 17 14Z" fill="#0072BD"/>
<path d="M14 14C14 14.5523 13.5523 15 13 15C12.4477 15 12 14.5523 12 14C12 13.4477 12.4477 13 13 13C13.5523 13 14 13.4477 14 14Z" fill="#0072BD"/>
<path d="M20 14C20 14.5523 19.5523 15 19 15C18.4477 15 18 14.5523 18 14C18 13.4477 18.4477 13 19 13C19.5523 13 20 13.4477 20 14Z" fill="#0072BD"/>
<path d="M23 14C23 14.5523 22.5523 15 22 15C21.4477 15 21 14.5523 21 14C21 13.4477 21.4477 13 22 13C22.5523 13 23 13.4477 23 14Z" fill="#0072BD"/>
<path d="M26 14C26 14.5523 25.5523 15 25 15C24.4477 15 24 14.5523 24 14C24 13.4477 24.4477 13 25 13C25.5523 13 26 13.4477 26 14Z" fill="#0072BD"/>
<path d="M29 14C29 14.5523 28.5523 15 28 15C27.4477 15 27 14.5523 27 14C27 13.4477 27.4477 13 28 13C28.5523 13 29 13.4477 29 14Z" fill="#0072BD"/>
<path d="M32 14C32 14.5523 31.5523 15 31 15C30.4477 15 30 14.5523 30 14C30 13.4477 30.4477 13 31 13C31.5523 13 32 13.4477 32 14Z" fill="#0072BD"/>
<path d="M35 14C35 14.5523 34.5523 15 34 15C33.4477 15 33 14.5523 33 14C33 13.4477 33.4477 13 34 13C34.5523 13 35 13.4477 35 14Z" fill="#0072BD"/>
<path d="M38 14C38 14.5523 37.5523 15 37 15C36.4477 15 36 14.5523 36 14C36 13.4477 36.4477 13 37 13C37.5523 13 38 13.4477 38 14Z" fill="#0072BD"/>
<path d="M41 14C41 14.5523 40.5523 15 40 15C39.4477 15 39 14.5523 39 14C39 13.4477 39.4477 13 40 13C40.5523 13 41 13.4477 41 14Z" fill="#0072BD"/>
<path d="M17 17C17 17.5523 16.5523 18 16 18C15.4477 18 15 17.5523 15 17C15 16.4477 15.4477 16 16 16C16.5523 16 17 16.4477 17 17Z" fill="#0072BD"/>
<path d="M14 17C14 17.5523 13.5523 18 13 18C12.4477 18 12 17.5523 12 17C12 16.4477 12.4477 16 13 16C13.5523 16 14 16.4477 14 17Z" fill="#0072BD"/>
<path d="M11 17C11 17.5523 10.5523 18 10 18C9.44772 18 9 17.5523 9 17C9 16.4477 9.44772 16 10 16C10.5523 16 11 16.4477 11 17Z" fill="#0072BD"/>
<path d="M20 17C20 17.5523 19.5523 18 19 18C18.4477 18 18 17.5523 18 17C18 16.4477 18.4477 16 19 16C19.5523 16 20 16.4477 20 17Z" fill="#0072BD"/>
<path d="M23 17C23 17.5523 22.5523 18 22 18C21.4477 18 21 17.5523 21 17C21 16.4477 21.4477 16 22 16C22.5523 16 23 16.4477 23 17Z" fill="#0072BD"/>
<path d="M29 17C29 17.5523 28.5523 18 28 18C27.4477 18 27 17.5523 27 17C27 16.4477 27.4477 16 28 16C28.5523 16 29 16.4477 29 17Z" fill="#0072BD"/>
<path d="M32 17C32 17.5523 31.5523 18 31 18C30.4477 18 30 17.5523 30 17C30 16.4477 30.4477 16 31 16C31.5523 16 32 16.4477 32 17Z" fill="#0072BD"/>
<path d="M35 17C35 17.5523 34.5523 18 34 18C33.4477 18 33 17.5523 33 17C33 16.4477 33.4477 16 34 16C34.5523 16 35 16.4477 35 17Z" fill="#0072BD"/>
<path d="M17 20C17 20.5523 16.5523 21 16 21C15.4477 21 15 20.5523 15 20C15 19.4477 15.4477 19 16 19C16.5523 19 17 19.4477 17 20Z" fill="#0072BD"/>
<path d="M14 20C14 20.5523 13.5523 21 13 21C12.4477 21 12 20.5523 12 20C12 19.4477 12.4477 19 13 19C13.5523 19 14 19.4477 14 20Z" fill="#0072BD"/>
<path d="M11 20C11 20.5523 10.5523 21 10 21C9.44772 21 9 20.5523 9 20C9 19.4477 9.44772 19 10 19C10.5523 19 11 19.4477 11 20Z" fill="#0072BD"/>
<path d="M20 20C20 20.5523 19.5523 21 19 21C18.4477 21 18 20.5523 18 20C18 19.4477 18.4477 19 19 19C19.5523 19 20 19.4477 20 20Z" fill="#0072BD"/>
<path d="M26 20C26 20.5523 25.5523 21 25 21C24.4477 21 24 20.5523 24 20C24 19.4477 24.4477 19 25 19C25.5523 19 26 19.4477 26 20Z" fill="#0072BD"/>
<path d="M29 20C29 20.5523 28.5523 21 28 21C27.4477 21 27 20.5523 27 20C27 19.4477 27.4477 19 28 19C28.5523 19 29 19.4477 29 20Z" fill="#0072BD"/>
<path d="M32 20C32 20.5523 31.5523 21 31 21C30.4477 21 30 20.5523 30 20C30 19.4477 30.4477 19 31 19C31.5523 19 32 19.4477 32 20Z" fill="#0072BD"/>
<path d="M35 20C35 20.5523 34.5523 21 34 21C33.4477 21 33 20.5523 33 20C33 19.4477 33.4477 19 34 19C34.5523 19 35 19.4477 35 20Z" fill="#0072BD"/>
<path d="M38 20C38 20.5523 37.5523 21 37 21C36.4477 21 36 20.5523 36 20C36 19.4477 36.4477 19 37 19C37.5523 19 38 19.4477 38 20Z" fill="#0072BD"/>
<path d="M41 20C41 20.5523 40.5523 21 40 21C39.4477 21 39 20.5523 39 20C39 19.4477 39.4477 19 40 19C40.5523 19 41 19.4477 41 20Z" fill="#0072BD"/>
<path d="M17 23C17 23.5523 16.5523 24 16 24C15.4477 24 15 23.5523 15 23C15 22.4477 15.4477 22 16 22C16.5523 22 17 22.4477 17 23Z" fill="#0072BD"/>
<path d="M14 23C14 23.5523 13.5523 24 13 24C12.4477 24 12 23.5523 12 23C12 22.4477 12.4477 22 13 22C13.5523 22 14 22.4477 14 23Z" fill="#0072BD"/>
<path d="M11 23C11 23.5523 10.5523 24 10 24C9.44772 24 9 23.5523 9 23C9 22.4477 9.44772 22 10 22C10.5523 22 11 22.4477 11 23Z" fill="#0072BD"/>
<path d="M20 23C20 23.5523 19.5523 24 19 24C18.4477 24 18 23.5523 18 23C18 22.4477 18.4477 22 19 22C19.5523 22 20 22.4477 20 23Z" fill="#0072BD"/>
<path d="M23 23C23 23.5523 22.5523 24 22 24C21.4477 24 21 23.5523 21 23C21 22.4477 21.4477 22 22 22C22.5523 22 23 22.4477 23 23Z" fill="#0072BD"/>
<path d="M26 23C26 23.5523 25.5523 24 25 24C24.4477 24 24 23.5523 24 23C24 22.4477 24.4477 22 25 22C25.5523 22 26 22.4477 26 23Z" fill="#0072BD"/>
<path d="M29 23C29 23.5523 28.5523 24 28 24C27.4477 24 27 23.5523 27 23C27 22.4477 27.4477 22 28 22C28.5523 22 29 22.4477 29 23Z" fill="#0072BD"/>
<path d="M32 23C32 23.5523 31.5523 24 31 24C30.4477 24 30 23.5523 30 23C30 22.4477 30.4477 22 31 22C31.5523 22 32 22.4477 32 23Z" fill="#0072BD"/>
<path d="M35 23C35 23.5523 34.5523 24 34 24C33.4477 24 33 23.5523 33 23C33 22.4477 33.4477 22 34 22C34.5523 22 35 22.4477 35 23Z" fill="#0072BD"/>
<path d="M38 23C38 23.5523 37.5523 24 37 24C36.4477 24 36 23.5523 36 23C36 22.4477 36.4477 22 37 22C37.5523 22 38 22.4477 38 23Z" fill="#0072BD"/>
<path d="M41 23C41 23.5523 40.5523 24 40 24C39.4477 24 39 23.5523 39 23C39 22.4477 39.4477 22 40 22C40.5523 22 41 22.4477 41 23Z" fill="#0072BD"/>
<path d="M14 26C14 26.5523 13.5523 27 13 27C12.4477 27 12 26.5523 12 26C12 25.4477 12.4477 25 13 25C13.5523 25 14 25.4477 14 26Z" fill="#0072BD"/>
<path d="M11 26C11 26.5523 10.5523 27 10 27C9.44772 27 9 26.5523 9 26C9 25.4477 9.44772 25 10 25C10.5523 25 11 25.4477 11 26Z" fill="#0072BD"/>
<path d="M20 26C20 26.5523 19.5523 27 19 27C18.4477 27 18 26.5523 18 26C18 25.4477 18.4477 25 19 25C19.5523 25 20 25.4477 20 26Z" fill="#0072BD"/>
<path d="M23 26C23 26.5523 22.5523 27 22 27C21.4477 27 21 26.5523 21 26C21 25.4477 21.4477 25 22 25C22.5523 25 23 25.4477 23 26Z" fill="#0072BD"/>
<path d="M26 26C26 26.5523 25.5523 27 25 27C24.4477 27 24 26.5523 24 26C24 25.4477 24.4477 25 25 25C25.5523 25 26 25.4477 26 26Z" fill="#0072BD"/>
<path d="M29 26C29 26.5523 28.5523 27 28 27C27.4477 27 27 26.5523 27 26C27 25.4477 27.4477 25 28 25C28.5523 25 29 25.4477 29 26Z" fill="#0072BD"/>
<path d="M32 26C32 26.5523 31.5523 27 31 27C30.4477 27 30 26.5523 30 26C30 25.4477 30.4477 25 31 25C31.5523 25 32 25.4477 32 26Z" fill="#0072BD"/>
<path d="M35 26C35 26.5523 34.5523 27 34 27C33.4477 27 33 26.5523 33 26C33 25.4477 33.4477 25 34 25C34.5523 25 35 25.4477 35 26Z" fill="#0072BD"/>
<path d="M38 26C38 26.5523 37.5523 27 37 27C36.4477 27 36 26.5523 36 26C36 25.4477 36.4477 25 37 25C37.5523 25 38 25.4477 38 26Z" fill="#0072BD"/>
</svg>
