<svg width="50" height="40" viewBox="0 0 50 40" fill="none" xmlns="http://www.w3.org/2000/svg">
<path d="M2.5 33.5V5.5C2.5 4.94772 2.94772 4.5 3.5 4.5H44.5C45.0523 4.5 45.5 4.94772 45.5 5.5V12.3151C45.5 12.517 45.5611 12.7141 45.6753 12.8806L48.3247 16.7444C48.4389 16.9109 48.5 17.108 48.5 17.3099V33.5C48.5 34.0523 48.0523 34.5 47.5 34.5H3.5C2.94772 34.5 2.5 34.0523 2.5 33.5Z" fill="#00A3A3" stroke="#02555C"/>
<rect x="0.5" y="14.5" width="6" height="5" rx="0.5" fill="var(--mw-icon-background-default-dark-gray, #A6A6A6)" stroke="var(--mw-icon-border-default-gray, #616161)"/>
<rect x="41" y="9" width="3" height="15" rx="0.5" fill="var(--mw-icon-glyph-content-gray, #616162)"/>
<path d="M42 10H43V11H42V10Z" fill="var(--mw-icon-glyph-content-dark-gray, #333333)"/>
<path d="M42 12H43V13H42V12Z" fill="var(--mw-icon-glyph-content-dark-gray, #333333)"/>
<path d="M42 14H43V15H42V14Z" fill="var(--mw-icon-glyph-content-dark-gray, #333333)"/>
<path d="M42 16H43V17H42V16Z" fill="var(--mw-icon-glyph-content-dark-gray, #333333)"/>
<path d="M42 18H43V19H42V18Z" fill="var(--mw-icon-glyph-content-dark-gray, #333333)"/>
<path d="M42 20H43V21H42V20Z" fill="var(--mw-icon-glyph-content-dark-gray, #333333)"/>
<path d="M42 22H43V23H42V22Z" fill="var(--mw-icon-glyph-content-dark-gray, #333333)"/>
<path d="M2 24H6.5C6.77614 24 7 24.2239 7 24.5V26.5C7 26.7761 6.77614 27 6.5 27H2V24Z" fill="var(--mw-icon-glyph-content-dark-gray, #333333)"/>
<path d="M0.5 28C0.223858 28 2.08772e-07 27.7761 1.96701e-07 27.5L2.18557e-08 23.5C9.78514e-09 23.2239 0.223858 23 0.5 23H2L2 28H0.5Z" fill="var(--mw-icon-glyph-content-dark-gray, #333333)"/>
<path d="M11 16.5C11 16.2239 11.2239 16 11.5 16H17.5C17.7761 16 18 16.2239 18 16.5V22.5C18 22.7761 17.7761 23 17.5 23H11.5C11.2239 23 11 22.7761 11 22.5V16.5Z" fill="var(--mw-icon-glyph-content-dark-gray, #333333)"/>
<path d="M11 6.5C11 6.22386 11.2239 6 11.5 6H17.5C17.7761 6 18 6.22386 18 6.5V8.5C18 8.77614 17.7761 9 17.5 9H11.5C11.2239 9 11 8.77614 11 8.5V6.5Z" fill="var(--mw-icon-glyph-content-gray, #616162)"/>
<path d="M19 6.5C19 6.22386 19.2239 6 19.5 6H25.5C25.7761 6 26 6.22386 26 6.5V8.5C26 8.77614 25.7761 9 25.5 9H19.5C19.2239 9 19 8.77614 19 8.5V6.5Z" fill="var(--mw-icon-glyph-content-gray, #616162)"/>
<path d="M27 6.5C27 6.22386 27.2239 6 27.5 6H33.5C33.7761 6 34 6.22386 34 6.5V8.5C34 8.77614 33.7761 9 33.5 9H27.5C27.2239 9 27 8.77614 27 8.5V6.5Z" fill="var(--mw-icon-glyph-content-gray, #616162)"/>
<path d="M26 30.5C26 30.2239 26.2239 30 26.5 30H38.5C38.7761 30 39 30.2239 39 30.5V32.5C39 32.7761 38.7761 33 38.5 33H26.5C26.2239 33 26 32.7761 26 32.5V30.5Z" fill="var(--mw-icon-glyph-content-gray, #616162)"/>
<path d="M11 30.5C11 30.2239 11.2239 30 11.5 30H23.5C23.7761 30 24 30.2239 24 30.5V32.5C24 32.7761 23.7761 33 23.5 33H11.5C11.2239 33 11 32.7761 11 32.5V30.5Z" fill="var(--mw-icon-glyph-content-gray, #616162)"/>
<path d="M27.4661 20.0757L27.2426 19.5L27.4661 18.9243C27.7799 18.116 28.7172 17.5 29.5961 17.5C30.6293 17.5 31.5 18.3768 31.5 19.5C31.5 20.6232 30.6293 21.5 29.5961 21.5C28.7172 21.5 27.7799 20.884 27.4661 20.0757ZM26.5339 18.9243L26.7574 19.5L26.5339 20.0757C26.2201 20.884 25.2828 21.5 24.4039 21.5C23.3707 21.5 22.5 20.6232 22.5 19.5C22.5 18.3768 23.3707 17.5 24.4039 17.5C25.2828 17.5 26.2201 18.116 26.5339 18.9243Z" stroke="var(--mw-icon-background-default-white, #FFFFFF)"/>
<path d="M42.5 30.5V32.5M41.5 31.5H43.5M7.5 30.5V32.5M6.5 31.5H8.5M7.5 6.5V8.5M6.5 7.5H8.5M37.5 6.5V8.5M36.5 7.5H38.5" stroke="var(--mw-icon-background-default-medium-gray, #D9D9D9)" stroke-linecap="round"/>
<path d="M14 7H15V8H14V7Z" fill="var(--mw-icon-glyph-content-dark-gray, #333333)"/>
<path d="M12 7H13V8H12V7Z" fill="var(--mw-icon-glyph-content-dark-gray, #333333)"/>
<path d="M16 7H17V8H16V7Z" fill="var(--mw-icon-glyph-content-dark-gray, #333333)"/>
<path d="M22 7H23V8H22V7Z" fill="var(--mw-icon-glyph-content-dark-gray, #333333)"/>
<path d="M20 7H21V8H20V7Z" fill="var(--mw-icon-glyph-content-dark-gray, #333333)"/>
<path d="M24 7H25V8H24V7Z" fill="var(--mw-icon-glyph-content-dark-gray, #333333)"/>
<path d="M30 7H31V8H30V7Z" fill="var(--mw-icon-glyph-content-dark-gray, #333333)"/>
<path d="M32 7H33V8H32V7Z" fill="var(--mw-icon-glyph-content-dark-gray, #333333)"/>
<path d="M28 7H29V8H28V7Z" fill="var(--mw-icon-glyph-content-dark-gray, #333333)"/>
<path d="M33 31H34V32H33V31Z" fill="var(--mw-icon-glyph-content-dark-gray, #333333)"/>
<path d="M31 31H32V32H31V31Z" fill="var(--mw-icon-glyph-content-dark-gray, #333333)"/>
<path d="M29 31H30V32H29V31Z" fill="var(--mw-icon-glyph-content-dark-gray, #333333)"/>
<path d="M27 31H28V32H27V31Z" fill="var(--mw-icon-glyph-content-dark-gray, #333333)"/>
<path d="M37 31H38V32H37V31Z" fill="var(--mw-icon-glyph-content-dark-gray, #333333)"/>
<path d="M35 31H36V32H35V31Z" fill="var(--mw-icon-glyph-content-dark-gray, #333333)"/>
<path d="M18 31H19V32H18V31Z" fill="var(--mw-icon-glyph-content-dark-gray, #333333)"/>
<path d="M16 31H17V32H16V31Z" fill="var(--mw-icon-glyph-content-dark-gray, #333333)"/>
<path d="M14 31H15V32H14V31Z" fill="var(--mw-icon-glyph-content-dark-gray, #333333)"/>
<path d="M12 31H13V32H12V31Z" fill="var(--mw-icon-glyph-content-dark-gray, #333333)"/>
<path d="M22 31H23V32H22V31Z" fill="var(--mw-icon-glyph-content-dark-gray, #333333)"/>
<path d="M20 31H21V32H20V31Z" fill="var(--mw-icon-glyph-content-dark-gray, #333333)"/>
<rect x="3" y="20" width="3" height="2" fill="#027880"/>
<path d="M14 10H15V12H14V10Z" fill="var(--mw-icon-background-default-white, #FFFFFF)"/>
<path d="M12 10H13V12H12V10Z" fill="white"/>
<path d="M16 10H17V12H16V10Z" fill="white"/>
<path d="M22 10H23V12H22V10Z" fill="white"/>
<path d="M20 10H21V12H20V10Z" fill="white"/>
<path d="M24 10H25V12H24V10Z" fill="white"/>
<path d="M28 10H29V12H28V10Z" fill="white"/>
<path d="M30 10H31V12H30V10Z" fill="white"/>
<path d="M32 10H33V12H32V10Z" fill="white"/>
<path d="M20 27H21V29H20V27Z" fill="white"/>
<path d="M22 27H23V29H22V27Z" fill="white"/>
<path d="M18 27H19V29H18V27Z" fill="white"/>
<path d="M14 27H15V29H14V27Z" fill="white"/>
<path d="M16 27H17V29H16V27Z" fill="white"/>
<path d="M12 27H13V29H12V27Z" fill="white"/>
<path d="M27 27H28V29H27V27Z" fill="white"/>
<path d="M29 27H30V29H29V27Z" fill="white"/>
<path d="M31 27H32V29H31V27Z" fill="white"/>
<path d="M33 27H34V29H33V27Z" fill="white"/>
<path d="M35 27H36V29H35V27Z" fill="white"/>
<path d="M37 27H38V29H37V27Z" fill="white"/>
<path d="M38 22H40V23H38V22Z" fill="white"/>
<path d="M38 20H40V21H38V20Z" fill="white"/>
<path d="M38 18H40V19H38V18Z" fill="white"/>
<path d="M38 16H40V17H38V16Z" fill="white"/>
<path d="M38 14H40V15H38V14Z" fill="white"/>
<path d="M38 12H40V13H38V12Z" fill="white"/>
<path d="M38 10H40V11H38V10Z" fill="white"/>
<path d="M4 13H5V14H4V13Z" fill="white"/>
<path d="M4 20H5V21H4V20Z" fill="white"/>
</svg>
