<svg width="50" height="40" viewBox="0 0 50 40" fill="none" xmlns="http://www.w3.org/2000/svg">
<rect x="0.5" y="0.5" width="48" height="38" rx="1" fill="var(--mw-icon-background-default-white, #FFFFFF)"/>
<rect x="0.5" y="0.5" width="48" height="38" rx="1" stroke="var(--mw-icon-border-default-gray, #616161)"/>
<path d="M20 25V12.8824C20 11.0006 20.5021 9.71218 21.5063 9.017C22.5105 8.31584 23.6216 7.96525 24.8397 7.96525C26.0706 7.96525 27.1072 8.28288 27.9495 8.91812C28.7917 9.54737 29.2128 10.3684 29.2128 11.3812C29.2128 12.0404 28.9861 12.6217 28.5326 13.1251C28.079 13.6225 27.5154 13.9491 26.8416 14.105C27.93 14.2728 28.7269 14.7072 29.2323 15.4084C29.7441 16.1036 30 16.8797 30 17.7366C30 18.7914 29.6566 19.6963 28.9699 20.4514C28.2831 21.2065 27.3469 21.5841 26.1613 21.5841C24.7943 21.5841 23.6508 21.0477 22.7308 19.975V25H20ZM23.965 13.5296C24.7943 13.5177 25.4422 13.3349 25.9086 12.9813C26.3751 12.6277 26.6084 12.1782 26.6084 11.6329C26.6084 11.1355 26.4205 10.734 26.0447 10.4283C25.6754 10.1167 25.2284 9.96088 24.7036 9.96088C24.2501 9.96088 23.8614 10.0897 23.5374 10.3474C23.22 10.5991 23.0062 10.9257 22.896 11.3273C22.7859 11.7288 22.7308 12.3161 22.7308 13.0892V15.8039C22.7308 16.619 22.8053 17.2752 22.9543 17.7726C23.1098 18.264 23.4176 18.6895 23.8776 19.0491C24.3375 19.4086 24.8364 19.5884 25.3741 19.5884C25.8925 19.5884 26.3265 19.4116 26.6764 19.0581C27.0262 18.6985 27.2012 18.24 27.2012 17.6827C27.2012 16.8677 26.9355 16.2055 26.4043 15.6961C25.8795 15.1867 25.0664 14.932 23.965 14.932V13.5296Z" fill="var(--mw-icon-glyph-content-light-blue, #278CDD)"/>
<path d="M21.6151 6.65185L23.6559 4H26.1826L28.1943 6.65185H25.998L24.8707 5.31244L23.8211 6.65185H21.6151Z" fill="var(--mw-icon-glyph-content-light-blue, #278CDD)"/>
<path d="M9.51601 29.1971L7.56868 35H6L8.66036 28H9.65861L9.51601 29.1971ZM11.1339 35L9.18162 29.1971L9.02426 28H10.0323L12.7075 35H11.1339ZM11.0453 32.3942V33.524H7.26379V32.3942H11.0453Z" fill="var(--mw-icon-glyph-content-dark-gray, #333333)"/>
<path d="M13.3512 28H16.0214C16.5689 28 17.0393 28.0801 17.4327 28.2404C17.8294 28.4006 18.1343 28.6378 18.3473 28.9519C18.5604 29.266 18.667 29.6522 18.667 30.1106C18.667 30.4856 18.6014 30.8077 18.4703 31.0769C18.3424 31.3429 18.1605 31.5657 17.9244 31.7452C17.6917 31.9215 17.4179 32.0625 17.1032 32.1683L16.6361 32.4087H14.315L14.3052 31.2837H16.0312C16.2902 31.2837 16.5049 31.2388 16.6754 31.149C16.8459 31.0593 16.9737 30.9343 17.059 30.774C17.1475 30.6138 17.1917 30.4279 17.1917 30.2163C17.1917 29.992 17.1491 29.7981 17.0639 29.6346C16.9786 29.4712 16.8491 29.3462 16.6754 29.2596C16.5016 29.1731 16.2836 29.1298 16.0214 29.1298H14.8264V35H13.3512V28ZM17.354 35L15.7214 31.8798L17.2802 31.8702L18.9325 34.9327V35H17.354Z" fill="var(--mw-icon-glyph-content-dark-gray, #333333)"/>
<path d="M21.3515 28V35H19.8811V28H21.3515Z" fill="var(--mw-icon-glyph-content-dark-gray, #333333)"/>
<path d="M23.3868 28H24.6359L26.475 33.1394L28.3141 28H29.5632L26.9766 35H25.9734L23.3868 28ZM22.7131 28H23.9573L24.1835 33.0096V35H22.7131V28ZM28.9928 28H30.2418V35H28.7666V33.0096L28.9928 28Z" fill="var(--mw-icon-glyph-content-dark-gray, #333333)"/>
<path d="M34.5146 29.1971L32.5673 35H30.9986L33.659 28H34.6572L34.5146 29.1971ZM36.1325 35L34.1802 29.1971L34.0229 28H35.031L37.7061 35H36.1325ZM36.044 32.3942V33.524H32.2624V32.3942H36.044Z" fill="var(--mw-icon-glyph-content-dark-gray, #333333)"/>
<path d="M39.5644 28L40.9118 30.4423L42.2592 28H43.9459L41.8658 31.4712L44 35H42.2985L40.9118 32.5096L39.5251 35H37.8138L39.9529 31.4712L37.8679 28H39.5644Z" fill="var(--mw-icon-glyph-content-dark-gray, #333333)"/>
</svg>
