<svg width="50" height="40" viewBox="0 0 50 40" fill="none" xmlns="http://www.w3.org/2000/svg">
<rect x="0.5" y="0.5" width="48" height="38" rx="1" fill="var(--mw-icon-background-default-white, #FFFFFF)"/>
<rect x="0.5" y="0.5" width="48" height="38" rx="1" stroke="var(--mw-icon-border-default-gray, #616161)"/>
<path d="M20 25V12.8824C20 11.0006 20.5021 9.71218 21.5063 9.017C22.5105 8.31584 23.6216 7.96525 24.8397 7.96525C26.0706 7.96525 27.1072 8.28288 27.9495 8.91812C28.7917 9.54737 29.2128 10.3684 29.2128 11.3812C29.2128 12.0404 28.9861 12.6217 28.5326 13.1251C28.079 13.6225 27.5154 13.9491 26.8416 14.105C27.93 14.2728 28.7269 14.7072 29.2323 15.4084C29.7441 16.1036 30 16.8797 30 17.7366C30 18.7914 29.6566 19.6963 28.9699 20.4514C28.2831 21.2065 27.3469 21.5841 26.1613 21.5841C24.7943 21.5841 23.6508 21.0477 22.7308 19.975V25H20ZM23.965 13.5296C24.7943 13.5177 25.4422 13.3349 25.9086 12.9813C26.3751 12.6277 26.6084 12.1782 26.6084 11.6329C26.6084 11.1355 26.4205 10.734 26.0447 10.4283C25.6754 10.1167 25.2284 9.96088 24.7036 9.96088C24.2501 9.96088 23.8614 10.0897 23.5374 10.3474C23.22 10.5991 23.0062 10.9257 22.896 11.3273C22.7859 11.7288 22.7308 12.3161 22.7308 13.0892V15.8039C22.7308 16.619 22.8053 17.2752 22.9543 17.7726C23.1098 18.264 23.4176 18.6895 23.8776 19.0491C24.3375 19.4086 24.8364 19.5884 25.3741 19.5884C25.8925 19.5884 26.3265 19.4116 26.6764 19.0581C27.0262 18.6985 27.2012 18.24 27.2012 17.6827C27.2012 16.8677 26.9355 16.2055 26.4043 15.6961C25.8795 15.1867 25.0664 14.932 23.965 14.932V13.5296Z" fill="var(--mw-icon-glyph-content-light-blue, #278CDD)"/>
<path d="M21.6151 6.65185L23.6559 4H26.1826L28.1943 6.65185H25.998L24.8707 5.31244L23.8211 6.65185H21.6151Z" fill="var(--mw-icon-glyph-content-light-blue, #278CDD)"/>
<path d="M21.5343 29.1971L19.5769 35H18L20.6742 28H21.6777L21.5343 29.1971ZM23.1606 35L21.1982 29.1971L21.04 28H22.0534L24.7425 35H23.1606ZM23.0717 32.3942V33.524H19.2704V32.3942H23.0717Z" fill="var(--mw-icon-glyph-content-dark-gray, #333333)"/>
<path d="M25.3895 28H28.0737C28.624 28 29.0969 28.0801 29.4923 28.2404C29.8911 28.4006 30.1976 28.6378 30.4118 28.9519C30.626 29.266 30.7331 29.6522 30.7331 30.1106C30.7331 30.4856 30.6672 30.8077 30.5353 31.0769C30.4068 31.3429 30.2239 31.5657 29.9867 31.7452C29.7527 31.9215 29.4775 32.0625 29.1611 32.1683L28.6916 32.4087H26.3584L26.3485 31.2837H28.0835C28.3439 31.2837 28.5597 31.2388 28.7311 31.149C28.9025 31.0593 29.031 30.9343 29.1167 30.774C29.2056 30.6138 29.2501 30.4279 29.2501 30.2163C29.2501 29.992 29.2073 29.7981 29.1216 29.6346C29.0359 29.4712 28.9058 29.3462 28.7311 29.2596C28.5564 29.1731 28.3373 29.1298 28.0737 29.1298H26.8725V35H25.3895V28ZM29.4132 35L27.7721 31.8798L29.3391 31.8702L31 34.9327V35H29.4132Z" fill="var(--mw-icon-glyph-content-dark-gray, #333333)"/>
</svg>
