<svg width="50" height="40" viewBox="0 0 50 40" fill="none" xmlns="http://www.w3.org/2000/svg">
<rect x="0.5" y="0.5" width="48" height="38" rx="1" fill="var(--mw-icon-background-default-white, white)"/>
<path d="M31.7692 31.9698H30.2278L29.9348 33H29L30.5883 28H31.4029L33 33H32.0652L31.7692 31.9698ZM30.4652 31.1353H31.5319L30.9956 29.2637L30.4652 31.1353Z" fill="var(--mw-icon-glyph-content-gray, #616162)"/>
<path d="M35.9012 31.1696H35.0582V33H34V28H35.9083C36.515 28 36.983 28.1316 37.3122 28.3949C37.6414 28.6582 37.806 29.0302 37.806 29.511C37.806 29.8521 37.7296 30.1371 37.5767 30.3661C37.4262 30.5927 37.1969 30.7736 36.8889 30.9087L38 32.9519V33H36.8642L35.9012 31.1696ZM35.0582 30.3352H35.9118C36.1775 30.3352 36.3833 30.2699 36.5291 30.1394C36.6749 30.0066 36.7478 29.8246 36.7478 29.5934C36.7478 29.3576 36.6784 29.1722 36.5397 29.0371C36.4033 28.902 36.1928 28.8345 35.9083 28.8345H35.0582V30.3352Z" fill="var(--mw-icon-glyph-content-gray, #616162)"/>
<path d="M41 29.7239L41.868 28H42.965L41.6169 30.4794L43 33H41.8903L41 31.2486L40.1097 33H39L40.3831 30.4794L39.035 28H40.132L41 29.7239Z" fill="var(--mw-icon-glyph-content-gray, #616162)"/>
<path d="M0.5 33.5L1.01075 25L3.56452 30L6.11828 16L8.16129 21L9.1828 13L11.7366 19L13.2688 15L16.3333 32.5L19.3978 24.5L20.9301 28.5L22.4624 20.5L24.5054 24.5L25.0161 17.5L27.5699 22V13L30.1237 16L29.1021 8L32.6774 12L34.7204 8.5V17L37.2742 13L39.3172 15.5L41.3602 6L43.4032 11L45.957 5L48 16" stroke="var(--mw-icon-glyph-disabled-gray, #888889)"/>
<path d="M0.5 33C2.12712 28.95 6.11356 20.85 9.04237 20.85C12.7034 20.85 13.1102 28.5 17.5847 28.5C22.0593 28.5 31.0085 6 39.1441 6C45.6525 6 48.0932 15.3 48.5 19.95" stroke="#0072BD"/>
<path d="M45.5 25V35.5H25" stroke="var(--mw-icon-border-default-gray, #616161)"/>
<rect x="0.5" y="0.5" width="48" height="38" rx="1" stroke="var(--mw-icon-border-default-gray, #616161)"/>

</svg>
