<svg width="50" height="40" viewBox="0 0 50 40" fill="none" xmlns="http://www.w3.org/2000/svg">
<path d="M42.5 4.5H5.5C4.94772 4.5 4.5 4.94772 4.5 5.5V35.5C4.5 36.0523 4.94772 36.5 5.5 36.5H42.5C43.0523 36.5 43.5 36.0523 43.5 35.5V5.5C43.5 4.94772 43.0523 4.5 42.5 4.5Z" fill="var(--mw-icon-background-default-medium-gray, #D9D9D9)" stroke="var(--mw-icon-border-default-gray, #616161)"/>
<path d="M40.5 2.5H3.5C2.94772 2.5 2.5 2.94772 2.5 3.5V33.5C2.5 34.0523 2.94772 34.5 3.5 34.5H40.5C41.0523 34.5 41.5 34.0523 41.5 33.5V3.5C41.5 2.94772 41.0523 2.5 40.5 2.5Z" fill="var(--mw-icon-background-default-medium-gray, #D9D9D9)" stroke="var(--mw-icon-border-default-gray, #616161)"/>
<path d="M38.5 0.5H1.5C0.947715 0.5 0.5 0.947715 0.5 1.5V31.5C0.5 32.0523 0.947715 32.5 1.5 32.5H38.5C39.0523 32.5 39.5 32.0523 39.5 31.5V1.5C39.5 0.947715 39.0523 0.5 38.5 0.5Z" fill="var(--mw-icon-background-default-white, #FFFFFF)" stroke="var(--mw-icon-border-default-gray, #616161)"/>
<path d="M0.5 19.0252C2.18473 13.356 4.08765 6.5 6.23485 6.5C9.89502 6.5 11.4465 26.5 15.4106 26.5C18.9783 26.4915 21.0405 6.5 24.7007 6.5C28.3675 6.5 30.1976 26.4447 34.1287 26.4447C36.1966 26.4447 37.8087 19.5972 39.5 13.9195" stroke="#0072BD"/>
<path d="M38.5 0.5H1.5C0.947715 0.5 0.5 0.947715 0.5 1.5V31.5C0.5 32.0523 0.947715 32.5 1.5 32.5H38.5C39.0523 32.5 39.5 32.0523 39.5 31.5V1.5C39.5 0.947715 39.0523 0.5 38.5 0.5Z" stroke="var(--mw-icon-border-default-gray, #616161)"/>
<path d="M46.5 16.5H28.5C27.3954 16.5 26.5 17.3954 26.5 18.5V36.5C26.5 37.6046 27.3954 38.5 28.5 38.5H46.5C47.6046 38.5 48.5 37.6046 48.5 36.5V18.5C48.5 17.3954 47.6046 16.5 46.5 16.5Z" fill="white" stroke="var(--mw-icon-border-default-gray, #616161)" stroke-linecap="round"/>
<path fill-rule="evenodd" clip-rule="evenodd" d="M28 27.5C28 22.2533 32.2533 18 37.5 18C42.7467 18 47 22.2533 47 27.5C47 32.7467 42.7467 37 37.5 37C32.2533 37 28 32.7467 28 27.5Z" fill="var(--mw-icon-glyph-content-gray, #616162)"/>
<circle cx="37.5" cy="27.5" r="5.5" fill="white"/>
<path d="M44.5 27.5H45.5" stroke="var(--mw-icon-background-default-light-gray, #F5F5F5)" stroke-linecap="square" stroke-linejoin="round"/>
<path d="M29.5 27.5H30.5" stroke="var(--mw-icon-background-default-light-gray, #F5F5F5)" stroke-linecap="square" stroke-linejoin="round"/>
<path d="M31.5 21.5L32.5 22.5001M43.5 21.5L42.4998 22.5001" stroke="var(--mw-icon-background-default-light-gray, #F5F5F5)" stroke-linecap="square" stroke-linejoin="round"/>
<path d="M35.5 19.5L37.5 23.5L39.5 19.5H35.5Z" fill="var(--mw-icon-background-default-light-gray, #F5F5F5)" stroke="var(--mw-icon-glyph-content-gray, #616162)" stroke-linecap="round" stroke-linejoin="round"/>
<path d="M32.0227 28C32.1391 29.2753 32.6979 30.4762 33.6109 31.3891C34.6423 32.4205 36.0413 33 37.4999 33C38.9586 33 40.3576 32.4205 41.389 31.3891C42.302 30.4762 42.8608 29.2753 42.9772 28H32.0227Z" fill="var(--mw-icon-background-default-dark-gray, #A6A6A6)"/>
<path d="M32.5 27.5H35.5V28.5M42.5 27.5H39.5V28.5" stroke="var(--mw-icon-glyph-content-dark-gray, #333333)" stroke-linecap="square" stroke-linejoin="round"/>
<path d="M37.5 29.5V32.5" stroke="var(--mw-icon-glyph-content-dark-gray, #333333)" stroke-linecap="square"/>
</svg>
