<svg width="50" height="40" viewBox="0 0 50 40" fill="none" xmlns="http://www.w3.org/2000/svg">
<circle cx="25.5" cy="19.5" r="16" fill="var(--mw-icon-background-default-white, #FFFFFF)"/>
<circle cx="25.5" cy="19.5" r="7" stroke="var(--mw-icon-background-default-medium-gray, #D9D9D9)"/>
<path d="M25.5 3.5V35.5" stroke="var(--mw-icon-background-default-medium-gray, #D9D9D9)"/>
<path d="M33.5 5.64362L17.5 33.3564" stroke="var(--mw-icon-background-default-medium-gray, #D9D9D9)"/>
<path d="M39.3564 11.4999L11.6436 27.4999" stroke="var(--mw-icon-background-default-medium-gray, #D9D9D9)"/>
<path d="M17.5 5.64362L33.5 33.3564" stroke="var(--mw-icon-background-default-medium-gray, #D9D9D9)"/>
<path d="M11.6436 11.4999L39.3564 27.4999" stroke="var(--mw-icon-background-default-medium-gray, #D9D9D9)"/>
<path d="M9.5 19.5L41.5 19.5" stroke="var(--mw-icon-background-default-medium-gray, #D9D9D9)"/>
<circle cx="25.5" cy="19.5" r="16" stroke="var(--mw-icon-border-default-gray, #616161)"/>
<rect x="25" width="1" height="2" fill="var(--mw-icon-border-disabled-gray, #888888)"/>
<rect x="25" y="37" width="1" height="2" fill="var(--mw-icon-border-disabled-gray, #888888)"/>
<rect x="15.317" y="2.86249" width="1" height="2" transform="rotate(-30 15.317 2.86249)" fill="var(--mw-icon-border-disabled-gray, #888888)"/>
<rect x="33.817" y="34.9055" width="1" height="2" transform="rotate(-30 33.817 34.9055)" fill="var(--mw-icon-border-disabled-gray, #888888)"/>
<rect x="8.36252" y="10.183" width="1" height="2" transform="rotate(-60 8.36252 10.183)" fill="var(--mw-icon-border-disabled-gray, #888888)"/>
<rect x="40.4055" y="28.683" width="1" height="2" transform="rotate(-60 40.4055 28.683)" fill="var(--mw-icon-border-disabled-gray, #888888)"/>
<rect x="8" y="19" width="1" height="2" transform="rotate(90 8 19)" fill="var(--mw-icon-border-disabled-gray, #888888)"/>
<rect x="45" y="19" width="1" height="2" transform="rotate(90 45 19)" fill="var(--mw-icon-border-disabled-gray, #888888)"/>
<rect x="10.0946" y="27.817" width="1" height="2" transform="rotate(60 10.0946 27.817)" fill="var(--mw-icon-border-disabled-gray, #888888)"/>
<rect x="42.1375" y="9.31702" width="1" height="2" transform="rotate(60 42.1375 9.31702)" fill="var(--mw-icon-border-disabled-gray, #888888)"/>
<rect x="16.317" y="34.4055" width="1" height="2" transform="rotate(30 16.317 34.4055)" fill="var(--mw-icon-border-disabled-gray, #888888)"/>
<rect x="34.817" y="2.36255" width="1" height="2" transform="rotate(30 34.817 2.36255)" fill="var(--mw-icon-border-disabled-gray, #888888)"/>
<path d="M16.508 15.5C16.2879 20.5846 20.6429 23.3934 22.8729 24.3242C19.434 28.4873 21.7235 33.6767 25.5038 33.4999C30.3332 33.2741 30.5 26.5 27.8004 24.3242C29.7656 23.4457 34.358 20.6958 34.4957 16C34.6333 11.3042 31.4947 6.5 25.5038 6.5C21.5091 6.5 16.7832 9.14422 16.508 15.5Z" stroke="#0072BD" stroke-linejoin="round"/>
</svg>
