<svg width="50" height="41" viewBox="0 0 50 41" fill="none" xmlns="http://www.w3.org/2000/svg">
<path d="M5.5 27.5V12.5L24.5 1.5L43.5 12.5V27.5L24.5 38.5L5.5 27.5Z" fill="var(--mw-icon-background-default-white, white)"/>
<path d="M24.5 17L24.5058 2.08362L43.0197 12.7539V27.6225L24.5 17Z" fill="var(--mw-icon-background-default-light-gray, #F5F5F5)"/>
<path d="M24.5 17L24.4942 2.08362L5.98034 12.7675L5.98034 27.6225L24.5 17Z" fill="#E6E6E6"/>
<path d="M43.5 27.5V12.459L24.5 1.5L5.5 12.47" stroke="#BFBFBF" stroke-linecap="round" stroke-linejoin="round"/>
<path d="M5.5 12.5V27.53L24.5 38.5L43.5 27.5352" stroke="var(--mw-icon-border-default-gray, #616161)" stroke-linecap="round" stroke-linejoin="round"/>
<path d="M17.5 22.9091L31.471 30.9464C31.4843 30.9541 31.501 30.9444 31.501 30.929V25.963L17.53 17.8747C17.5167 17.867 17.5 17.8766 17.5 17.892V22.9091Z" fill="#F57729" stroke="#823400" stroke-linejoin="round"/>
<path d="M28.0407 18.1558L36.4713 23.0583C36.4846 23.066 36.4846 23.0852 36.4713 23.0929L31.5012 25.9633L23.0704 21.0616C23.0571 21.0539 23.0571 21.0347 23.0704 21.027L28.0407 18.1558Z" fill="#FE9043" stroke="#823400" stroke-linejoin="round"/>
<path d="M14.502 16.1609L28.4729 24.1982C28.4863 24.2059 28.5029 24.1963 28.5029 24.1809V19.2148L14.532 11.1265C14.5186 11.1188 14.502 11.1284 14.502 11.1438V16.1609Z" fill="#F57729" stroke="#823400" stroke-linejoin="round"/>
<path d="M25.0422 11.4076L33.4728 16.3101C33.4861 16.3178 33.486 16.337 33.4727 16.3447L28.5027 19.2151L20.0718 14.3135C20.0585 14.3058 20.0586 14.2866 20.0719 14.2789L25.0422 11.4076Z" fill="#FE9043" stroke="#823400" stroke-linejoin="round"/>
<path d="M36.5015 28.0532L31.5313 30.9358C31.5179 30.9436 31.5012 30.9339 31.5012 30.9185L31.5012 25.9569L36.4715 23.0909C36.4848 23.0832 36.5015 23.0928 36.5015 23.1082L36.5015 28.0532Z" fill="#C04C0B" stroke="#823400" stroke-linejoin="round"/>
<path d="M20.5002 3.82946L25.4702 6.70689C25.4835 6.7146 25.4835 6.73382 25.4702 6.74152L20.5002 9.61188L15.5299 6.73533C15.5166 6.72762 15.5166 6.7084 15.53 6.7007L20.5002 3.82946Z" fill="#FE9043" stroke="#823400" stroke-linejoin="round"/>
<path d="M25.5005 11.7018L20.5303 14.5844C20.517 14.5921 20.5003 14.5825 20.5003 14.5671L20.5003 9.60551L25.4705 6.73942C25.4838 6.73173 25.5005 6.74135 25.5005 6.75674L25.5005 11.7018Z" fill="#C04C0B" stroke="#823400" stroke-linejoin="round"/>
<path d="M33.5029 21.3051L28.5327 24.1877C28.5194 24.1954 28.5027 24.1858 28.5027 24.1704L28.5027 19.2088L33.4729 16.3427C33.4863 16.335 33.5029 16.3446 33.5029 16.36L33.5029 21.3051Z" fill="#C04C0B" stroke="#823400" stroke-linejoin="round"/>
<path d="M18.0422 18.1492L26.4728 23.0517C26.4861 23.0594 26.486 23.0786 26.4727 23.0863L21.5027 25.9567L13.0718 21.0551C13.0585 21.0473 13.0586 21.0281 13.0719 21.0204L18.0422 18.1492Z" fill="#94EF84" stroke="var(--mw-icon-glyph-content-dark-green, #02580E)" stroke-linejoin="round"/>
<path d="M26.5029 28.0467L21.5327 30.9292C21.5194 30.937 21.5027 30.9273 21.5027 30.9119L21.5027 25.9504L26.4729 23.0843C26.4863 23.0766 26.5029 23.0862 26.5029 23.1016L26.5029 28.0467Z" fill="var(--mw-icon-glyph-content-green, #008014)" stroke="var(--mw-icon-glyph-content-dark-green, #02580E)" stroke-linejoin="round"/>
<path d="M15.4997 6.71924L27.4747 13.6386C27.488 13.6463 27.488 13.6655 27.4747 13.6732L22.5047 16.5436L10.5295 9.62509C10.5162 9.61739 10.5162 9.59816 10.5295 9.59046L15.4997 6.71924Z" fill="#94EF84" stroke="var(--mw-icon-glyph-content-dark-green, #02580E)" stroke-linejoin="round"/>
<path d="M23.502 21.2946L18.5318 24.1772C18.5184 24.1849 18.5017 24.1753 18.5017 24.1599L18.5017 19.1983L23.472 16.3322C23.4853 16.3245 23.502 16.3341 23.502 16.3495L23.502 21.2946Z" fill="var(--mw-icon-glyph-content-green, #008014)" stroke="var(--mw-icon-glyph-content-dark-green, #02580E)" stroke-linejoin="round"/>
<path d="M27.5054 18.6336L22.5352 21.5162C22.5219 21.5239 22.5051 21.5143 22.5051 21.4988L22.5051 16.5373L27.4754 13.6712C27.4887 13.6635 27.5054 13.6731 27.5054 13.6885L27.5054 18.6336Z" fill="var(--mw-icon-glyph-content-green, #008014)" stroke="var(--mw-icon-glyph-content-dark-green, #02580E)" stroke-linejoin="round"/>
<path d="M13.5044 16.3879L22.4752 21.5267C22.4885 21.5343 22.5051 21.5247 22.5051 21.5093V16.5432L13.5344 11.3535C13.5211 11.3458 13.5044 11.3554 13.5044 11.3708V16.3879Z" fill="#3AC831" stroke="var(--mw-icon-glyph-content-dark-green, #02580E)" stroke-linejoin="round"/>
<path d="M9.50098 19.049L18.4718 24.1878C18.4851 24.1954 18.5017 24.1858 18.5017 24.1705V19.2043L9.53099 14.0146C9.51766 14.0069 9.50098 14.0165 9.50098 14.0319V19.049Z" fill="#3AC831" stroke="var(--mw-icon-glyph-content-dark-green, #02580E)" stroke-linejoin="round"/>
<path d="M5.5 27.5344L19.471 35.5717C19.4843 35.5794 19.501 35.5698 19.501 35.5544V30.5883L5.53002 22.5001C5.51669 22.4923 5.5 22.502 5.5 22.5174V27.5344Z" fill="#54B6FF" stroke="var(--mw-icon-glyph-content-dark-blue, #104280)" stroke-linejoin="round"/>
<path d="M16.0402 22.7813L24.4708 27.6838C24.4841 27.6915 24.4841 27.7107 24.4708 27.7184L19.5007 30.5888L11.0699 25.6871C11.0566 25.6794 11.0566 25.6602 11.0699 25.6525L16.0402 22.7813Z" fill="var(--mw-icon-background-medium-blue, #83CAFF)" stroke="var(--mw-icon-glyph-content-dark-blue, #104280)" stroke-linejoin="round"/>
<path d="M24.501 32.6787L19.5308 35.5613C19.5175 35.569 19.5008 35.5594 19.5008 35.544L19.5008 30.5824L24.471 27.7163C24.4843 27.7087 24.501 27.7183 24.501 27.7337L24.501 32.6787Z" fill="#1171BE" stroke="var(--mw-icon-glyph-content-dark-blue, #104280)" stroke-linejoin="round"/>
<path d="M5.50732 22.5141L11.4713 25.9305C11.4846 25.9381 11.5012 25.9285 11.5012 25.9131V20.947L5.53738 17.4798C5.52404 17.4721 5.50732 17.4817 5.50732 17.4971V22.5141Z" fill="#54B6FF" stroke="var(--mw-icon-glyph-content-dark-blue, #104280)" stroke-linejoin="round"/>
<path d="M16.501 23.0374L11.5308 25.92C11.5175 25.9277 11.5008 25.9181 11.5008 25.9027L11.5008 20.9411L16.471 18.075C16.4843 18.0673 16.501 18.0769 16.501 18.0923L16.501 23.0374Z" fill="#1171BE" stroke="var(--mw-icon-glyph-content-dark-blue, #104280)" stroke-linejoin="round"/>
<path d="M10.5031 9.60229L19.4707 14.7936C19.484 14.8013 19.484 14.8205 19.4707 14.8282L14.5006 17.6986L5.53287 12.5082C5.51955 12.5005 5.51956 12.4812 5.53288 12.4735L10.5031 9.60229Z" fill="var(--mw-icon-background-medium-blue, #83CAFF)" stroke="var(--mw-icon-glyph-content-dark-blue, #104280)" stroke-linejoin="round"/>
<path d="M5.5 17.5429L14.4708 22.6817C14.4841 22.6893 14.5007 22.6797 14.5007 22.6643V17.6982L5.53001 12.5085C5.51668 12.5008 5.5 12.5104 5.5 12.5258V17.5429Z" fill="#54B6FF" stroke="var(--mw-icon-glyph-content-dark-blue, #104280)" stroke-linejoin="round"/>
<path d="M19.501 19.7886L14.5308 22.6712C14.5175 22.6789 14.5008 22.6693 14.5008 22.6539L14.5008 17.6923L19.471 14.8262C19.4843 14.8185 19.501 14.8281 19.501 14.8435L19.501 19.7886Z" fill="#1171BE" stroke="var(--mw-icon-glyph-content-dark-blue, #104280)" stroke-linejoin="round"/>

</svg>
