<svg width="50" height="41" viewBox="0 0 50 41" fill="none" xmlns="http://www.w3.org/2000/svg">
<path d="M5.5 27.5V12.5L24.5 1.5L43.5 12.5V27.5L24.5 38.5L5.5 27.5Z" fill="var(--mw-icon-background-default-white, white)"/>
<path d="M24.5 17L24.5058 2.08362L43.0197 12.7539V27.6225L24.5 17Z" fill="var(--mw-icon-background-default-light-gray, #F5F5F5)"/>
<path d="M24.5 17L24.4942 2.08362L5.98034 12.7675L5.98034 27.6225L24.5 17Z" fill="#E6E6E6"/>
<path d="M43.5 27.5V12.459L24.5 1.5L5.5 12.47" stroke="#BFBFBF" stroke-linecap="round" stroke-linejoin="round"/>
<path d="M5.5 12.5V27.53L24.5 38.5L43.5 27.5352" stroke="var(--mw-icon-border-default-gray, #616161)" stroke-linecap="round" stroke-linejoin="round"/>
<path d="M39.4988 29.8361L34.4986 32.7271V28.145L39.4688 25.2789C39.4821 25.2712 39.4988 25.2809 39.4988 25.2962V29.8361Z" fill="#C04C0B" stroke="#823400" stroke-linejoin="round"/>
<path d="M19.5 20.7148L24.5002 23.6057V15.9147L19.53 13.0486C19.5167 13.041 19.5 13.0506 19.5 13.066V20.7148Z" fill="#F57729" stroke="#823400" stroke-linejoin="round"/>
<path d="M34.5004 22.3718L39.4705 25.2463C39.4838 25.254 39.4838 25.2732 39.4704 25.2809L34.5004 28.1513L29.5302 25.2777C29.5169 25.27 29.5169 25.2508 29.5302 25.2431L34.5004 22.3718Z" fill="#FE9043" stroke="#823400" stroke-linejoin="round"/>
<path d="M24.5026 10.1417L29.4727 13.0162C29.486 13.0239 29.486 13.0431 29.4726 13.0508L24.5026 15.9212L19.5324 13.0476C19.5191 13.0399 19.5191 13.0206 19.5324 13.013L24.5026 10.1417Z" fill="#FE9043" stroke="#823400" stroke-linejoin="round"/>
<path d="M34.4985 19.8169L29.4983 22.7078V16.0769L34.4685 13.2108C34.4819 13.2031 34.4985 13.2127 34.4985 13.2281V19.8169Z" fill="#C04C0B" stroke="#823400" stroke-linejoin="round"/>
<path d="M24.5002 19.8169L29.5005 22.7078V16.0769L24.5302 13.2108C24.5169 13.2031 24.5002 13.2127 24.5002 13.2281V19.8169Z" fill="#F57729" stroke="#823400" stroke-linejoin="round"/>
<path d="M29.5004 10.3038L34.4705 13.1782C34.4838 13.1859 34.4838 13.2052 34.4704 13.2129L29.5004 16.0832L24.5302 13.2096C24.5169 13.2019 24.5169 13.1827 24.5302 13.175L29.5004 10.3038Z" fill="#FE9043" stroke="#823400" stroke-linejoin="round"/>
<path d="M34.5005 32.7256L29.5303 35.5991C29.5169 35.6068 29.5003 35.5972 29.5003 35.5818V19.9825L34.4705 17.1164C34.4838 17.1087 34.5005 17.1183 34.5005 17.1337V32.7256Z" fill="var(--mw-icon-glyph-content-green, #008014)" stroke="var(--mw-icon-glyph-content-dark-green, #02580E)" stroke-linejoin="round"/>
<path d="M19.4998 29.8216L24.47 32.6952C24.4833 32.7029 24.5 32.6933 24.5 32.6779V23.5422L19.5297 20.6761C19.5164 20.6684 19.4998 20.6781 19.4998 20.6935V29.8216Z" fill="#3AC831" stroke="var(--mw-icon-glyph-content-dark-green, #02580E)" stroke-linejoin="round"/>
<path d="M24.4999 17.7692L29.47 20.6436C29.4833 20.6513 29.4833 20.6706 29.47 20.6783L24.5 23.5486L19.5297 20.675C19.5164 20.6673 19.5164 20.6481 19.5297 20.6404L24.4999 17.7692Z" fill="#94EF84" stroke="var(--mw-icon-glyph-content-dark-green, #02580E)" stroke-linejoin="round"/>
<path d="M24.5 26.2618L29.4702 29.1354C29.4835 29.1431 29.5002 29.1334 29.5002 29.118V19.9824L24.53 17.1163C24.5167 17.1086 24.5 17.1182 24.5 17.1336V26.2618Z" fill="#3AC831" stroke="var(--mw-icon-glyph-content-dark-green, #02580E)" stroke-linejoin="round"/>
<path d="M29.5002 14.2126L34.4702 17.0871C34.4835 17.0948 34.4835 17.1141 34.4702 17.1217L29.5002 19.9921L24.53 17.1185C24.5166 17.1108 24.5166 17.0916 24.53 17.0839L29.5002 14.2126Z" fill="#94EF84" stroke="var(--mw-icon-glyph-content-dark-green, #02580E)" stroke-linejoin="round"/>
<path d="M9.49951 29.8374L14.4997 32.7283V14.4196L9.5295 11.5535C9.51617 11.5458 9.49951 11.5554 9.49951 11.5708V29.8374Z" fill="#54B6FF" stroke="var(--mw-icon-glyph-content-dark-blue, #104280)" stroke-linejoin="round"/>
<path d="M19.5 28.8564L14.4998 31.7473V14.387L19.47 11.5209C19.4833 11.5133 19.5 11.5229 19.5 11.5383V28.8564Z" fill="#1171BE" stroke="var(--mw-icon-glyph-content-dark-blue, #104280)" stroke-linejoin="round"/>
<path d="M14.4997 8.61389L19.4697 11.4884C19.483 11.4961 19.483 11.5153 19.4697 11.523L14.4997 14.3933L9.52947 11.5198C9.51615 11.512 9.51615 11.4928 9.52948 11.4851L14.4997 8.61389Z" fill="var(--mw-icon-background-medium-blue, #83CAFF)" stroke="var(--mw-icon-glyph-content-dark-blue, #104280)" stroke-linejoin="round"/>
<path d="M14.4998 32.7214L19.5 35.6123V31.0303L14.5297 28.1642C14.5164 28.1565 14.4998 28.1661 14.4998 28.1815V32.7214Z" fill="#54B6FF" stroke="var(--mw-icon-glyph-content-dark-blue, #104280)" stroke-linejoin="round"/>
<path d="M19.4999 25.2572L24.47 28.1317C24.4833 28.1394 24.4833 28.1586 24.47 28.1663L19.5 31.0367L14.5297 28.1631C14.5164 28.1554 14.5164 28.1361 14.5297 28.1284L19.4999 25.2572Z" fill="var(--mw-icon-background-medium-blue, #83CAFF)" stroke="var(--mw-icon-glyph-content-dark-blue, #104280)" stroke-linejoin="round"/>
<path d="M19.4998 35.5987L24.47 38.4723C24.4833 38.48 24.5 38.4704 24.5 38.455V27.4502L19.5297 24.5841C19.5164 24.5765 19.4998 24.5861 19.4998 24.6015V35.5987Z" fill="#54B6FF" stroke="var(--mw-icon-glyph-content-dark-blue, #104280)" stroke-linejoin="round"/>
<path d="M24.4999 21.6711L29.47 24.5456C29.4833 24.5533 29.4833 24.5725 29.47 24.5802L24.5 27.4506L19.5297 24.577C19.5164 24.5693 19.5164 24.5501 19.5297 24.5424L24.4999 21.6711Z" fill="var(--mw-icon-background-medium-blue, #83CAFF)" stroke="var(--mw-icon-glyph-content-dark-blue, #104280)" stroke-linejoin="round"/>
<path d="M29.5 35.5987L24.5298 38.4723C24.5165 38.48 24.4998 38.4704 24.4998 38.455L24.4998 27.4479L29.47 24.5818C29.4833 24.5741 29.5 24.5837 29.5 24.5991V35.5987Z" fill="#1171BE" stroke="var(--mw-icon-glyph-content-dark-blue, #104280)" stroke-linejoin="round"/>

</svg>
