<svg width="50" height="40" viewBox="0 0 50 40" fill="none" xmlns="http://www.w3.org/2000/svg">
<rect x="0.5" y="0.5" width="48" height="38" rx="1" fill="var(--mw-icon-background-default-white, white)"/>
<path d="M38 7L1 7L1 9L38 9L38 7Z" fill="#D95319"/>
<path d="M45 5L1 5L1 7L45 7L45 5Z" fill="#0072BD"/>
<path d="M16 19L1 19L1 21L16 21L16 19Z" fill="#D95319"/>
<path d="M19 17L1 17L1 19L19 19L19 17Z" fill="#0072BD"/>
<path d="M11 25L1 25L1 27L11 27L11 25Z" fill="#D95319"/>
<path d="M13 23L1 23L1 25L13 25L13 23Z" fill="#0072BD"/>
<path d="M6 31L1 31L1 33L6 33L6 31Z" fill="#D95319"/>
<path d="M7 29L1 29L1 31L7 31L7 29Z" fill="#0072BD"/>
<path d="M25 13L1 13L1 15L25 15L25 13Z" fill="#D95319"/>
<path d="M30 11L1 11L1 13L30 13L30 11Z" fill="#0072BD"/>
<rect x="0.5" y="0.5" width="48" height="38" rx="1" stroke="var(--mw-icon-border-default-gray, #616161)"/>

</svg>
