<svg width="50" height="40" viewBox="0 0 50 40" fill="none" xmlns="http://www.w3.org/2000/svg">
<rect x="0.5" y="0.5" width="48" height="38" rx="1" fill="var(--mw-icon-background-default-white, white)"/>
<path d="M6 34L6 38L4 38L4 34L6 34Z" fill="#D95319"/>
<path d="M8 32L8 38.4375L6 38.4375L6 32L8 32Z" fill="#0072BD"/>
<path d="M15 31L15 38L13 38L13 31L15 31Z" fill="#D95319"/>
<path d="M17 26L17 38L15 38L15 26L17 26Z" fill="#0072BD"/>
<path d="M24 27L24 38L22 38L22 27L24 27Z" fill="#D95319"/>
<path d="M26 19L26 38L24 38L24 19L26 19Z" fill="#0072BD"/>
<path d="M33 24L33 38L31 38L31 24L33 24Z" fill="#D95319"/>
<path d="M35 13L35 38L33 38L33 13L35 13Z" fill="#0072BD"/>
<path d="M42 10L42 38L40 38L40 10L42 10Z" fill="#D95319"/>
<path d="M44 5L44 38L42 38L42 5L44 5Z" fill="#0072BD"/>
<rect x="0.5" y="0.5" width="48" height="38" rx="1" stroke="var(--mw-icon-border-default-gray, #616161)"/>

</svg>
