<svg width="50" height="40" viewBox="0 0 50 40" fill="none" xmlns="http://www.w3.org/2000/svg">
<rect x="0.5" y="0.5" width="48" height="38" rx="1" fill="var(--mw-icon-background-default-white, white)"/>
<path d="M14 4L1 4L1 9L14 9L14 4Z" fill="#D95319"/>
<path d="M41 4L14 4L14 9L41 9L41 4Z" fill="#0072BD"/>
<path d="M8 13L0.999922 13L0.999922 18L8 18L8 13Z" fill="#D95319"/>
<path d="M22 13L8 13L8 18L22 18L22 13Z" fill="#0072BD"/>
<path d="M4 22L0.999953 22L0.999953 27L4 27L4 22Z" fill="#D95319"/>
<path d="M10 22L4 22L4 27L10 27L10 22Z" fill="#0072BD"/>
<path d="M4.99976 31L0.999932 31L0.999932 36L5 36L4.99976 31Z" fill="#D95319"/>
<path d="M9 31L5 31L5 36L9 36L9 31Z" fill="#0072BD"/>
<rect x="0.5" y="0.5" width="48" height="38" rx="1" stroke="var(--mw-icon-border-default-gray, #616161)"/>

</svg>
