<svg width="50" height="40" viewBox="0 0 50 40" fill="none" xmlns="http://www.w3.org/2000/svg">
<rect x="0.5" y="0.5" width="48" height="38" rx="1" fill="var(--mw-icon-background-default-white, #FFFFFF)"/>
<path d="M13.9999 4L0.999878 4L0.999878 9L13.9999 9L13.9999 4Z" fill="#DD5400"/>
<path d="M41 4L14 4L14 9L41 9L41 4Z" fill="#1171BE"/>
<path d="M8.00006 13L0.999983 13L0.999983 18L8.00006 18L8.00006 13Z" fill="#DD5400"/>
<path d="M22 13L8 13L8 18L22 18L22 13Z" fill="#1171BE"/>
<path d="M4.00006 22L1.00001 22L1.00001 27L4.00006 27L4.00006 22Z" fill="#DD5400"/>
<path d="M10 22L4 22L4 27L10 27L10 22Z" fill="#1171BE"/>
<path d="M4.99988 31L1.00005 31L1.00005 36L5.00012 36L4.99988 31Z" fill="#DD5400"/>
<path d="M9.00012 31L5.00012 31L5.00012 36L9.00012 36L9.00012 31Z" fill="#1171BE"/>
<rect x="0.5" y="0.5" width="48" height="38" rx="1" stroke="var(--mw-icon-border-default-gray, #616161)"/>
</svg>
