<svg width="50" height="40" viewBox="0 0 50 40" fill="none" xmlns="http://www.w3.org/2000/svg">
<rect x="0.5" y="0.5" width="48" height="38" rx="1" fill="var(--mw-icon-background-default-white, white)"/>
<path d="M38 28L38 38L43 38L43 28L38 28Z" fill="#D95319"/>
<path d="M38 7L38 28.0459L43 28.0459L43 7L38 7Z" fill="#0072BD"/>
<path d="M30 32L30 38L35 38L35 32L30 32Z" fill="#D95319"/>
<path d="M30 17L30 32L35 32L35 17L30 17Z" fill="#0072BD"/>
<path d="M22 33L22 38L27 38L27 33L22 33Z" fill="#D95319"/>
<path d="M22 23L22 33L27 33L27 23L22 23Z" fill="#0072BD"/>
<path d="M14 35L14 37.9999L19 37.9999L19 35L14 35Z" fill="#D95319"/>
<path d="M14 29L14 35L19 35L19 29L14 29Z" fill="#0072BD"/>
<path d="M6 36L6 38L11 38L11 36L6 36Z" fill="#D95319"/>
<path d="M6.00001 33L6 35.981L11 35.981L11 33L6.00001 33Z" fill="#0072BD"/>
<rect x="0.5" y="0.5" width="48" height="38" rx="1" stroke="var(--mw-icon-border-default-gray, #616161)"/>

</svg>
