<svg width="50" height="40" viewBox="0 0 50 40" fill="none" xmlns="http://www.w3.org/2000/svg">
<path d="M28.5 22.5C28.5 21.9477 28.9477 21.5 29.5 21.5H41.5C42.0523 21.5 42.5 21.9477 42.5 22.5V37.5C42.5 38.0523 42.0523 38.5 41.5 38.5H29.5C28.9477 38.5 28.5 38.0523 28.5 37.5V22.5Z" fill="var(--mw-icon-background-default-white, white)" stroke="var(--mw-icon-border-default-gray, #616161)"/>
<path d="M7.5 1.5C7.5 0.947715 7.94772 0.5 8.5 0.5H20.5C21.0523 0.5 21.5 0.947715 21.5 1.5V16.5C21.5 17.0523 21.0523 17.5 20.5 17.5H8.5C7.94772 17.5 7.5 17.0523 7.5 16.5V1.5Z" fill="#BFBFBF" stroke="var(--mw-icon-border-default-gray, #616161)"/>
<path d="M20.5 38.5L29.5 0.5" stroke="var(--mw-icon-object-primary, #616160)" stroke-linecap="round"/>

</svg>
