<svg width="50" height="41" viewBox="0 0 50 41" fill="none" xmlns="http://www.w3.org/2000/svg">
<path d="M5.5 27.5V12.5L24.5 1.5L43.5 12.5V27.5L24.5 38.5L5.5 27.5Z" fill="var(--mw-icon-background-default-white, #FFFFFF)"/>
<path d="M24.5 17L24.5058 2.08362L43.0197 12.7539V27.6225L24.5 17Z" fill="var(--mw-icon-background-default-light-gray, #F5F5F5)"/>
<path d="M24.5 17L24.4942 2.08362L5.98034 12.7675L5.98034 27.6225L24.5 17Z" fill="#E6E6E6"/>
<path d="M43.5 27.5V12.459L24.5 1.5L5.5 12.47" stroke="#BFBFBF" stroke-linecap="round" stroke-linejoin="round"/>
<path d="M5.5 12.5V27.53L24.5 38.5L43.5 27.5352" stroke="var(--mw-icon-border-default-gray, #616161)" stroke-linecap="round" stroke-linejoin="round"/>
<path d="M15.699 28.601C16.5622 30.5692 19.5072 32.5 24.5 32.5C29.4996 32.5 32.3599 30.658 33.2809 28.6188C33.4452 28.2552 33.2961 27.8414 32.9812 27.5965L24.5 21L16.0005 27.6107C15.695 27.8484 15.5435 28.2465 15.699 28.601Z" fill="#EDB120" stroke="#745A26" stroke-linejoin="round"/>
<path d="M32 13.5C31.6583 11.9855 29.4999 9 24.5 9C19.5 9 17.3417 11.9855 17 13.5L24.5 20.5L32 13.5Z" fill="#EDB120" stroke="#745A26" stroke-linejoin="round"/>
<path d="M30.8641 7.81802C34.3788 9.57538 34.3788 12.4246 30.8641 14.182C27.3494 15.9393 21.6509 15.9393 18.1362 14.182C14.6214 12.4246 14.6214 9.57538 18.1362 7.81802C21.6509 6.06066 27.3494 6.06066 30.8641 7.81802Z" fill="#EDB120" stroke="#745A26"/>
</svg>
