<svg width="50" height="40" viewBox="0 0 50 40" fill="none" xmlns="http://www.w3.org/2000/svg">
<path d="M5.5 27V12L24.5 1L43.5 12V27L24.5 38L5.5 27Z" fill="var(--mw-icon-background-default-white, #FFFFFF)"/>
<path d="M24.5 16.5L24.5058 1.58362L43.0197 12.2539V27.1225L24.5 16.5Z" fill="var(--mw-icon-background-default-light-gray, #F5F5F5)"/>
<path d="M24.5 16.5L24.4942 1.58362L5.98034 12.2675L5.98034 27.1225L24.5 16.5Z" fill="#E6E6E6"/>
<path d="M43.5 27V11.959L24.5 1L5.5 11.97" stroke="#BFBFBF" stroke-linecap="round" stroke-linejoin="round"/>
<path d="M5.5 12V27.03L24.5 38L43.5 27.0352" stroke="var(--mw-icon-border-default-gray, #616161)" stroke-linecap="round" stroke-linejoin="round"/>
<path d="M17.5 6.5L31.25 32.25" stroke="#4A3A19" stroke-linecap="round"/>
<path d="M31.25 6.5L17.5 32.25" stroke="#4A3A19" stroke-linecap="round"/>
<path d="M14.5 28.5L34.5 10.5M14.5 10.5L34.5 28.5" stroke="#4A3A19" stroke-linecap="round"/>
<path d="M24.5 5.5V33.5" stroke="#4A3A19" stroke-linecap="round"/>
</svg>
