<svg width="50" height="40" viewBox="0 0 50 40" fill="none" xmlns="http://www.w3.org/2000/svg">
<rect x="0.989746" y="0.987183" width="47.0204" height="37.0256" rx="1" fill="var(--mw-icon-background-default-white, #FFFFFF)"/>
<rect x="0.5" y="0.5" width="48" height="38" rx="1" stroke="var(--mw-icon-border-default-gray, #616161)"/>
<path d="M21 18H31V21H21V18Z" fill="var(--mw-icon-glyph-content-light-blue, #278CDD)"/>
<path d="M23 15H26V18H23V15Z" fill="var(--mw-icon-glyph-content-light-blue, #278CDD)"/>
<path d="M25 21H28V24H25V21Z" fill="#54B6FF"/>
<path d="M19 10H23V15H19V10Z" fill="var(--mw-icon-background-default-selection, #B4DEFF)"/>
<path d="M26 14H29V18H26V14Z" fill="#54B6FF"/>
<path d="M22 21H25V24H22V21Z" fill="#54B6FF"/>
<path d="M18 19H21V22H18V19Z" fill="#54B6FF"/>
<path d="M26 24H29V27H26V24Z" fill="var(--mw-icon-glyph-content-light-blue, #278CDD)"/>
<path d="M28 21H32V24H28V21Z" fill="var(--mw-icon-background-medium-blue, #83CAFF)"/>
<path d="M26 10H28V14H26V10Z" fill="var(--mw-icon-background-medium-blue, #83CAFF)"/>
<path d="M21 13H23V18H21V13Z" fill="var(--mw-icon-background-medium-blue, #83CAFF)"/>
<path d="M21 21H22V24H21V21Z" fill="var(--mw-icon-background-medium-blue, #83CAFF)"/>
<path d="M19 22H21V26H19V22Z" fill="var(--mw-icon-background-medium-blue, #83CAFF)"/>
<path d="M24 24H26V27H24V24Z" fill="var(--mw-icon-background-medium-blue, #83CAFF)"/>
<path d="M17 15H21V19H17V15Z" fill="var(--mw-icon-background-medium-blue, #83CAFF)"/>
<path d="M15 19H18V22H15V19Z" fill="var(--mw-icon-background-medium-blue, #83CAFF)"/>
<path d="M29 24H31V25H29V24Z" fill="var(--mw-icon-background-medium-blue, #83CAFF)"/>
<path d="M31 18H34V21H31V18Z" fill="var(--mw-icon-background-medium-blue, #83CAFF)"/>
<path d="M36 24H38V27H36V24Z" fill="var(--mw-icon-background-default-selection, #B4DEFF)"/>
<path d="M29 25H31V28H29V25Z" fill="var(--mw-icon-background-default-selection, #B4DEFF)"/>
<path d="M26 27H29V30H26V27Z" fill="var(--mw-icon-background-default-selection, #B4DEFF)"/>
<path d="M23 27H26V31H23V27Z" fill="var(--mw-icon-background-default-selection, #B4DEFF)"/>
<path d="M21 24H24V27H21V24Z" fill="var(--mw-icon-background-default-selection, #B4DEFF)"/>
<path d="M21 27H23V28H21V27Z" fill="var(--mw-icon-background-default-selection, #B4DEFF)"/>
<path d="M18 28H20V31H18V28Z" fill="var(--mw-icon-background-default-selection, #B4DEFF)"/>
<path d="M31 24H33V27H31V24Z" fill="var(--mw-icon-background-default-selection, #B4DEFF)"/>
<path d="M32 21H35V24H32V21Z" fill="var(--mw-icon-background-default-selection, #B4DEFF)"/>
<path d="M34 18H37V21H34V18Z" fill="var(--mw-icon-background-default-selection, #B4DEFF)"/>
<path d="M29 14H34V18H29V14Z" fill="var(--mw-icon-background-default-selection, #B4DEFF)"/>
<path d="M34 16H36V18H34V16Z" fill="var(--mw-icon-background-default-selection, #B4DEFF)"/>
<path d="M28 12H32V14H28V12Z" fill="var(--mw-icon-background-default-selection, #B4DEFF)"/>
<path d="M16 12H19V15H16V12Z" fill="var(--mw-icon-background-default-selection, #B4DEFF)"/>
<path d="M15 15H17V19H15V15Z" fill="var(--mw-icon-background-default-selection, #B4DEFF)"/>
<path d="M14 15H15V18H14V15Z" fill="var(--mw-icon-background-default-selection, #B4DEFF)"/>
<path d="M12 18H15V22H12V18Z" fill="var(--mw-icon-background-default-selection, #B4DEFF)"/>
<path d="M14 22H19V24H14V22Z" fill="var(--mw-icon-background-default-selection, #B4DEFF)"/>
<path d="M16 24H19V27H16V24Z" fill="var(--mw-icon-background-default-selection, #B4DEFF)"/>
<path d="M23 8H26V15H23V8Z" fill="var(--mw-icon-background-default-selection, #B4DEFF)"/>
</svg>
