<svg width="50" height="40" viewBox="0 0 50 40" fill="none" xmlns="http://www.w3.org/2000/svg">
<path d="M5.5 27V12L24.5 1L43.5 12V27L24.5 38L5.5 27Z" fill="var(--mw-icon-background-default-white, #FFFFFF)"/>
<path d="M24.5 16.5001L24.5058 1.58374L43.0197 12.254V27.1226L24.5 16.5001Z" fill="var(--mw-icon-background-default-light-gray, #F5F5F5)"/>
<path d="M24.5 16.4999L24.4942 1.5835L5.98034 12.2674L5.98034 27.1224L24.5 16.4999Z" fill="#E6E6E6"/>
<path d="M43.5 27V11.959L24.5 1L5.5 11.97" stroke="#BFBFBF" stroke-linecap="round" stroke-linejoin="round"/>
<path d="M5.5 12V27.03L24.5 38L43.5 27.0352" stroke="var(--mw-icon-border-default-gray, #616161)" stroke-linecap="round" stroke-linejoin="round"/>
<path d="M35.2324 14.2096L33.176 13.0372L28.1266 5.4729L29.9776 6.58319L35.2324 14.2096Z" fill="#B3882A" stroke="#745A26" stroke-linejoin="round"/>
<path d="M25.9649 19.5698L23.9084 18.3974L28.1266 5.4729L29.9776 6.58319L25.9649 19.5698Z" fill="#EDB120" stroke="#745A26" stroke-linejoin="round"/>
<path d="M33.176 13.0371L35.2324 14.2095L31.0143 27.0798L28.8314 25.7211L33.176 13.0371Z" fill="#EDB120" stroke="#745A26" stroke-linejoin="round"/>
<path d="M23.9084 18.3975L25.9649 19.5699L31.0143 27.0799L28.8314 25.7212L23.9084 18.3975Z" fill="#B3882A" stroke="#745A26" stroke-linejoin="round"/>
<path d="M25.7324 19.7096L23.676 18.5372L18.6266 10.9729L20.4776 12.0832L25.7324 19.7096Z" fill="#B3882A" stroke="#745A26" stroke-linejoin="round"/>
<path d="M16.4649 25.0698L14.4084 23.8974L18.6266 10.9729L20.4776 12.0832L16.4649 25.0698Z" fill="#EDB120" stroke="#745A26" stroke-linejoin="round"/>
<path d="M23.676 18.5371L25.7324 19.7095L21.5143 32.5798L19.3314 31.2211L23.676 18.5371Z" fill="#EDB120" stroke="#745A26" stroke-linejoin="round"/>
<path d="M14.4084 23.8975L16.4649 25.0699L21.5143 32.5799L19.3314 31.2212L14.4084 23.8975Z" fill="#B3882A" stroke="#745A26" stroke-linejoin="round"/>
</svg>
