<svg width="50" height="40" viewBox="0 0 50 40" fill="none" xmlns="http://www.w3.org/2000/svg">
<rect x="8.5" y="11.5" width="36" height="18" rx="1" fill="#00A3A3" stroke="#02555C"/>
<rect x="5.5" y="17.5" width="7" height="6" rx="0.5" fill="var(--mw-icon-background-default-dark-gray, #A6A6A6)" stroke="var(--mw-icon-border-default-gray, #616161)"/>
<path d="M10.5 19.5V21.5M7.5 19.5H8.5M7.5 21.5H8.5" stroke="var(--mw-icon-glyph-content-dark-gray, #333333)" stroke-linecap="round"/>
<path d="M11.5 13.5V15.5M10.5 14.5H12.5M11.5 25.5V27.5M10.5 26.5H12.5M41.5 25.5V27.5M40.5 26.5H42.5M41.5 13.5V15.5M40.5 14.5H42.5" stroke="var(--mw-icon-background-default-medium-gray, #D9D9D9)" stroke-linecap="round"/>
<path d="M15 13.5C15 13.2239 15.2239 13 15.5 13H37.5C37.7761 13 38 13.2239 38 13.5V15.5C38 15.7761 37.7761 16 37.5 16H15.5C15.2239 16 15 15.7761 15 15.5V13.5Z" fill="var(--mw-icon-border-default-gray, #616161)"/>
<path d="M15 25.5C15 25.2239 15.2239 25 15.5 25H37.5C37.7761 25 38 25.2239 38 25.5V27.5C38 27.7761 37.7761 28 37.5 28H15.5C15.2239 28 15 27.7761 15 27.5V25.5Z" fill="var(--mw-icon-border-default-gray, #616161)"/>
<path d="M18 14H19V15H18V14Z" fill="var(--mw-icon-glyph-content-dark-gray, #333333)"/>
<path d="M16 14H17V15H16V14Z" fill="var(--mw-icon-glyph-content-dark-gray, #333333)"/>
<path d="M20 14H21V15H20V14Z" fill="var(--mw-icon-glyph-content-dark-gray, #333333)"/>
<path d="M22 14H23V15H22V14Z" fill="var(--mw-icon-glyph-content-dark-gray, #333333)"/>
<path d="M24 14H25V15H24V14Z" fill="var(--mw-icon-glyph-content-dark-gray, #333333)"/>
<path d="M26 14H27V15H26V14Z" fill="var(--mw-icon-glyph-content-dark-gray, #333333)"/>
<path d="M28 14H29V15H28V14Z" fill="var(--mw-icon-glyph-content-dark-gray, #333333)"/>
<path d="M30 14H31V15H30V14Z" fill="var(--mw-icon-glyph-content-dark-gray, #333333)"/>
<path d="M32 14H33V15H32V14Z" fill="var(--mw-icon-glyph-content-dark-gray, #333333)"/>
<path d="M34 14H35V15H34V14Z" fill="var(--mw-icon-glyph-content-dark-gray, #333333)"/>
<path d="M36 14H37V15H36V14Z" fill="var(--mw-icon-glyph-content-dark-gray, #333333)"/>
<path d="M16 26H17V27H16V26Z" fill="var(--mw-icon-glyph-content-dark-gray, #333333)"/>
<path d="M18 26H19V27H18V26Z" fill="var(--mw-icon-glyph-content-dark-gray, #333333)"/>
<path d="M20 26H21V27H20V26Z" fill="var(--mw-icon-glyph-content-dark-gray, #333333)"/>
<path d="M22 26H23V27H22V26Z" fill="var(--mw-icon-glyph-content-dark-gray, #333333)"/>
<path d="M24 26H25V27H24V26Z" fill="var(--mw-icon-glyph-content-dark-gray, #333333)"/>
<path d="M26 26H27V27H26V26Z" fill="var(--mw-icon-glyph-content-dark-gray, #333333)"/>
<path d="M28 26H29V27H28V26Z" fill="var(--mw-icon-glyph-content-dark-gray, #333333)"/>
<path d="M30 26H31V27H30V26Z" fill="var(--mw-icon-glyph-content-dark-gray, #333333)"/>
<path d="M32 26H33V27H32V26Z" fill="var(--mw-icon-glyph-content-dark-gray, #333333)"/>
<path d="M34 26H35V27H34V26Z" fill="var(--mw-icon-glyph-content-dark-gray, #333333)"/>
<path d="M36 26H37V27H36V26Z" fill="var(--mw-icon-glyph-content-dark-gray, #333333)"/>
<rect x="35" y="18" width="3" height="5" rx="0.5" fill="var(--mw-icon-background-default-medium-gray, #D9D9D9)"/>
<circle cx="36.5" cy="20.5" r="0.5" fill="#B7312C"/>
<path d="M28.4661 21.0757L28.2426 20.5L28.4661 19.9243C28.7799 19.116 29.7172 18.5 30.5961 18.5C31.6293 18.5 32.5 19.3768 32.5 20.5C32.5 21.6232 31.6293 22.5 30.5961 22.5C29.7172 22.5 28.7799 21.884 28.4661 21.0757ZM27.5339 19.9243L27.7574 20.5L27.5339 21.0757C27.2201 21.884 26.2828 22.5 25.4039 22.5C24.3707 22.5 23.5 21.6232 23.5 20.5C23.5 19.3768 24.3707 18.5 25.4039 18.5C26.2828 18.5 27.2201 19.116 27.5339 19.9243Z" stroke="var(--mw-icon-background-default-white, #FFFFFF)"/>
<rect x="15" y="20.5355" width="5" height="5" rx="0.5" transform="rotate(-45 15 20.5355)" fill="var(--mw-icon-glyph-content-dark-gray, #333333)"/>
<path d="M40 19.5C40 19.2239 40.2239 19 40.5 19H42.5C42.7761 19 43 19.2239 43 19.5C43 19.7761 42.7761 20 42.5 20H40.5C40.2239 20 40 19.7761 40 19.5Z" fill="var(--mw-icon-background-default-medium-gray, #D9D9D9)"/>
<path d="M40 21.5C40 21.2239 40.2239 21 40.5 21H42.5C42.7761 21 43 21.2239 43 21.5C43 21.7761 42.7761 22 42.5 22H40.5C40.2239 22 40 21.7761 40 21.5Z" fill="var(--mw-icon-background-default-medium-gray, #D9D9D9)"/>
<path d="M41 19H42V20H41V19Z" fill="#B7312C"/>
<path d="M41 21H42V22H41V21Z" fill="#3AC831"/>
<path d="M25 2.72C27.6953 2.78807 30.2729 3.83043 32.2759 5.65094C32.4822 5.83843 32.8017 5.83612 32.9955 5.63574L34.1572 4.43448C34.3473 4.23792 34.3447 3.92432 34.1443 3.73837C31.6414 1.41691 28.3959 0.0860239 25 0C21.6003 0.0918115 18.3539 1.43284 15.856 3.76566C15.6556 3.95286 15.6548 4.26762 15.8471 4.46327L17.0043 5.64124C17.1986 5.83904 17.5161 5.84001 17.7212 5.65338C19.7241 3.83056 22.3032 2.78718 25 2.72Z" fill="#00A3A3"/>
<path d="M25.0048 8.31183C26.2025 8.36099 27.3524 8.82205 28.2995 9.62417C28.5251 9.81526 28.8681 9.80319 29.0576 9.57627L30.2347 8.16712C30.3886 7.98282 30.391 7.71397 30.2298 7.53601C29.5848 6.82403 28.8334 6.24076 28.0083 5.81291C27.0652 5.32385 26.0444 5.04756 25.0048 5C23.9664 5.04063 22.9454 5.3095 22.0007 5.79115C21.1756 6.21179 20.4229 6.78746 19.7751 7.49191C19.6114 7.66999 19.6132 7.94123 19.7688 8.12649L20.9555 9.53968C21.144 9.76412 21.4832 9.7773 21.7086 9.59C22.6598 8.79967 23.8101 8.3507 25.0048 8.31183Z" fill="#00A3A3"/>
<path d="M25 37.28C22.3046 37.2129 19.7267 36.1705 17.7241 34.3493C17.5179 34.1617 17.1982 34.164 17.0044 34.3644L15.8426 35.5657C15.6526 35.7622 15.6551 36.0756 15.8554 36.2616C18.3574 38.5847 21.6035 39.9159 25 40C28.3992 39.9063 31.6448 38.5655 34.1436 36.2343C34.3442 36.0472 34.345 35.7323 34.1528 35.5365L32.9956 34.3586C32.8013 34.1609 32.4839 34.1599 32.2788 34.3464C30.2754 36.1686 27.6966 37.2119 25 37.28Z" fill="#00A3A3"/>
<path d="M25.0048 31.6882C23.8067 31.639 22.6564 31.1776 21.7091 30.3749C21.4839 30.1841 21.1417 30.1957 20.9519 30.4217L19.7669 31.8327C19.6122 32.017 19.6094 32.2865 19.771 32.4648C20.417 33.1776 21.1696 33.7613 21.9961 34.1891C22.941 34.6782 23.9636 34.9538 25.0048 35C26.0416 34.958 27.0607 34.6884 28.0037 34.2068C28.8274 33.7861 29.5789 33.2109 30.2257 32.5073C30.3891 32.3295 30.3876 32.059 30.2328 31.8737L29.054 30.4624C28.8657 30.237 28.5258 30.2233 28.2999 30.4109C27.3489 31.2007 26.1991 31.6493 25.0048 31.6882Z" fill="#00A3A3"/>
</svg>
