<svg width="50" height="40" viewBox="0 0 50 40" fill="none" xmlns="http://www.w3.org/2000/svg">
<rect x="0.5" y="0.5" width="48" height="38" rx="1" fill="var(--mw-icon-background-default-white, white)"/>
<path d="M0.5 10.5C4.14138 10.5 14 10.5 16 10.5C18.6681 10.5 25 8.5 26.5 2.5C27.5 6 29.2379 14.9185 37.5 16C42.4655 16.65 47.1759 16.5 48.5 16.5" stroke="#0072BD"/>
<line x1="1" y1="19.5" x2="48" y2="19.5" stroke="var(--mw-icon-background-default-dark-gray, #A6A6A6)"/>
<path d="M0.5 20.5C4.50843 20.5 13.1034 20.5 17.4159 22.7667C22.8066 25.6 29.4412 37.5 39.8078 37.5C48.1011 37.5 48.9147 37.5 48.5 37.5" stroke="#0072BD"/>
<rect x="0.5" y="0.5" width="48" height="38" rx="1" stroke="var(--mw-icon-border-default-gray, #616161)"/>

</svg>
