<svg width="50" height="40" viewBox="0 0 50 40" fill="none" xmlns="http://www.w3.org/2000/svg">
<rect x="0.5" y="0.5" width="48" height="38" rx="1" fill="var(--mw-icon-background-default-white, white)"/>
<path d="M1 12.075C4.56552 12.075 11.5669 12.255 13.6414 12.075C16.2345 11.85 19.1517 10.05 23.0414 6C24.3379 8.25 27.2686 13.8012 35.3586 14.55C40.2207 15 46.7034 15 48 15" stroke="#D95319" stroke-width="6"/>
<path d="M1 12.075C4.56552 12.075 11.5669 12.255 13.6414 12.075C16.2345 11.85 19.1517 10.05 23.0414 6C24.3379 8.25 27.2686 13.8012 35.3586 14.55C40.2207 15 46.7034 15 48 15" stroke="#EDB120" stroke-width="4"/>
<path d="M1 12.075C4.56552 12.075 11.5669 12.255 13.6414 12.075C16.2345 11.85 19.1517 10.05 23.0414 6C24.3379 8.25 27.2686 13.8012 35.3586 14.55C40.2207 15 46.7034 15 48 15" stroke="#0072BD"/>
<line x1="1" y1="19.5" x2="48" y2="19.5" stroke="var(--mw-icon-background-default-dark-gray, #A6A6A6)"/>
<path d="M47.8871 34.5C48.3047 34.5 47.9688 34.5 39.6178 34.5C29.1791 34.5 22.4982 26.1 17.0701 24.1C13.1944 22.672 5.48278 22.5185 1 22.502" stroke="#D95319" stroke-width="7"/>
<path d="M47.887 34.5C48.305 34.5 47.9688 34.5 39.6086 34.5C29.1583 34.5 22.4702 26.1 17.036 24.1C13.171 22.6775 5.49509 22.5197 1 22.5022" stroke="#EDB120" stroke-width="5"/>
<path d="M47.8873 34.5C48.3044 34.5 47.9689 34.5 39.6271 34.5C29.1999 34.5 22.5264 26.1 17.1043 24.1C13.2179 22.6665 5.46997 22.5173 1 22.5018" stroke="#0072BD"/>
<rect x="0.5" y="0.5" width="48" height="38" rx="1" stroke="var(--mw-icon-border-default-gray, #616161)"/>

</svg>
