<svg width="50" height="40" viewBox="0 0 50 40" fill="none" xmlns="http://www.w3.org/2000/svg">
<path d="M7 34L2 19L7 4H5L0 19L5 34H7Z" fill="var(--mw-icon-object-primary, #616160)"/>
<path d="M7.5 12.5C7.5 11.9477 7.94772 11.5 8.5 11.5H19.5C20.0523 11.5 20.5 11.9477 20.5 12.5V25.5C20.5 26.0523 20.0523 26.5 19.5 26.5H8.5C7.94772 26.5 7.5 26.0523 7.5 25.5V12.5Z" fill="#BFBFBF" stroke="var(--mw-icon-border-default-gray, #616161)"/>
<path d="M28.5 12.5C28.5 11.9477 28.9477 11.5 29.5 11.5H40.5C41.0523 11.5 41.5 11.9477 41.5 12.5V25.5C41.5 26.0523 41.0523 26.5 40.5 26.5H29.5C28.9477 26.5 28.5 26.0523 28.5 25.5V12.5Z" fill="var(--mw-icon-background-default-white, white)" stroke="var(--mw-icon-border-default-gray, #616161)"/>
<path d="M43 4L48 19L43 34L45 34L50 19L45 4L43 4Z" fill="var(--mw-icon-object-primary, #616160)"/>
<path d="M26 34V4H24V34H26Z" fill="var(--mw-icon-object-primary, #616160)"/>

</svg>
