<svg width="50" height="40" viewBox="0 0 50 40" fill="none" xmlns="http://www.w3.org/2000/svg">
<rect x="0.5" y="0.5" width="48" height="38" rx="1" fill="var(--mw-icon-background-default-white, #FFFFFF)"/>
<circle cx="13.5" cy="21.5" r="3" stroke="#0072BD"/>
<circle cx="29.5" cy="26.5" r="2" stroke="#0072BD"/>
<circle cx="37" cy="20.5" r="2" stroke="#0072BD"/>
<circle cx="15.5" cy="16.5" r="2" stroke="#0072BD"/>
<circle cx="7" cy="20" r="1" stroke="#0072BD"/>
<circle cx="9" cy="20" r="1" stroke="#0072BD"/>
<circle cx="17.5" cy="12.5" r="2" stroke="#0072BD"/>
<circle cx="35.5" cy="14.5" r="2" stroke="#0072BD"/>
<circle cx="19.5" cy="26.5" r="2" stroke="#0072BD"/>
<circle cx="33.5" cy="25.5" r="2" stroke="#0072BD"/>
<circle cx="16.5" cy="24.5" r="1" stroke="#0072BD"/>
<circle cx="21.5" cy="29.5" r="1" stroke="#0072BD"/>
<circle cx="23.5" cy="6.5" r="1" stroke="#0072BD"/>
<circle cx="12.5" cy="16.5" r="1" stroke="#0072BD"/>
<circle cx="8.5" cy="17.5" r="1" stroke="#0072BD"/>
<circle cx="14.5" cy="13.5" r="1" stroke="#0072BD"/>
<circle cx="12.5" cy="14.5" r="1" stroke="#0072BD"/>
<circle cx="10.5" cy="15.5" r="1" stroke="#0072BD"/>
<circle cx="30.5" cy="29.5" r="1" stroke="#0072BD"/>
<circle cx="32.5" cy="28.5" r="1" stroke="#0072BD"/>
<circle cx="32.5" cy="13.5" r="1" stroke="#0072BD"/>
<circle cx="32.5" cy="11.5" r="1" stroke="#0072BD"/>
<circle cx="34.5" cy="11.5" r="1" stroke="#0072BD"/>
<circle cx="36.5" cy="11.5" r="1" stroke="#0072BD"/>
<circle cx="38.5" cy="13.5" r="1" stroke="#0072BD"/>
<circle cx="40.5" cy="15.5" r="1" stroke="#0072BD"/>
<circle cx="42.5" cy="16.5" r="1" stroke="#0072BD"/>
<circle cx="28.5" cy="9.5" r="1" stroke="#0072BD"/>
<circle cx="26.5" cy="8.5" r="1" stroke="#0072BD"/>
<circle cx="28.5" cy="7.5" r="1" stroke="#0072BD"/>
<circle cx="30.5" cy="9.5" r="1" stroke="#0072BD"/>
<circle cx="25.5" cy="6.5" r="1" stroke="#0072BD"/>
<circle cx="19.5" cy="9.5" r="1" stroke="#0072BD"/>
<circle cx="38.5" cy="15.5" r="1" stroke="#0072BD"/>
<circle cx="39.5" cy="17.5" r="1" stroke="#0072BD"/>
<circle cx="28.5" cy="29.5" r="1" stroke="#0072BD"/>
<circle cx="26.5" cy="30.5" r="1" stroke="#0072BD"/>
<circle cx="28.5" cy="31.5" r="1" stroke="#0072BD"/>
<circle cx="26.5" cy="32.5" r="1" stroke="#0072BD"/>
<circle cx="24.5" cy="30.5" r="1" stroke="#0072BD"/>
<circle cx="16.5" cy="26.5" r="1" stroke="#0072BD"/>
<circle cx="16.5" cy="28.5" r="1" stroke="#0072BD"/>
<circle cx="18.5" cy="29.5" r="1" stroke="#0072BD"/>
<circle cx="14.5" cy="25.5" r="1" stroke="#0072BD"/>
<circle cx="12.5" cy="25.5" r="1" stroke="#0072BD"/>
<circle cx="10.5" cy="24.5" r="1" stroke="#0072BD"/>
<circle cx="5.5" cy="21.5" r="1" stroke="#0072BD"/>
<circle cx="7.5" cy="23.5" r="1" stroke="#0072BD"/>
<circle cx="9.5" cy="22.5" r="1" stroke="#0072BD"/>
<circle cx="10.5" cy="17.5" r="1" stroke="#0072BD"/>
<circle cx="40.5" cy="19.5" r="1" stroke="#0072BD"/>
<circle cx="42.5" cy="18.5" r="1" stroke="#0072BD"/>
<circle cx="40.5" cy="21.5" r="1" stroke="#0072BD"/>
<circle cx="42.5" cy="22.5" r="1" stroke="#0072BD"/>
<circle cx="40.5" cy="23.5" r="1" stroke="#0072BD"/>
<circle cx="42.5" cy="20.5" r="1" stroke="#0072BD"/>
<circle cx="44.5" cy="19.5" r="1" stroke="#0072BD"/>
<circle cx="37.5" cy="17.5" r="1" stroke="#0072BD"/>
<circle cx="35.5" cy="17.5" r="1" stroke="#0072BD"/>
<circle cx="36.5" cy="23.5" r="1" stroke="#0072BD"/>
<circle cx="38.5" cy="23.5" r="1" stroke="#0072BD"/>
<circle cx="37.5" cy="25.5" r="1" stroke="#0072BD"/>
<circle cx="36.5" cy="27.5" r="1" stroke="#0072BD"/>
<circle cx="21.5" cy="7.5" r="1" stroke="#0072BD"/>
<circle cx="18.5" cy="15.5" r="1" stroke="#0072BD"/>
<circle cx="24.5" cy="26.5" r="3" stroke="#0072BD"/>
<circle cx="20.5" cy="20.5" r="4" stroke="#0072BD"/>
<circle cx="23.5" cy="12.5" r="4" stroke="#0072BD"/>
<circle cx="29.5" cy="19.5" r="5" stroke="#0072BD"/>
<circle cx="29.5" cy="12.5" r="2" stroke="#0072BD"/>
<rect x="0.5" y="0.5" width="48" height="38" rx="1" stroke="var(--mw-icon-border-default-gray, #616161)"/>
</svg>
