<svg width="50" height="41" viewBox="0 0 50 41" fill="none" xmlns="http://www.w3.org/2000/svg">
<path d="M5.5 27.5V12.5L24.5 1.5L43.5 12.5V27.5L24.5 38.5L5.5 27.5Z" fill="var(--mw-icon-background-default-white, white)"/>
<path d="M24.5 17L24.5058 2.08362L43.0197 12.7539V27.6225L24.5 17Z" fill="var(--mw-icon-background-default-light-gray, #F5F5F5)"/>
<path d="M24.5 17L24.4942 2.08362L5.98034 12.7675L5.98034 27.6225L24.5 17Z" fill="#E6E6E6"/>
<path d="M43.5 27.5V12.459L24.5 1.5L5.5 12.47" stroke="#BFBFBF" stroke-linecap="round" stroke-linejoin="round"/>
<path d="M5.5 12.5V27.53L24.5 38.5L43.5 27.5352" stroke="var(--mw-icon-border-default-gray, #616161)" stroke-linecap="round" stroke-linejoin="round"/>
<path d="M37 16.9999C39.2091 16.9999 41 15.2091 41 12.9999C41 10.7908 39.2091 8.99994 37 8.99994C34.7909 8.99994 33 10.7908 33 12.9999C33 15.2091 34.7909 16.9999 37 16.9999Z" fill="#0072BD"/>
<path d="M30.5 30.9999C34.0899 30.9999 37 28.0898 37 24.4999C37 20.9101 34.0899 17.9999 30.5 17.9999C26.9101 17.9999 24 20.9101 24 24.4999C24 28.0898 26.9101 30.9999 30.5 30.9999Z" fill="#0072BD"/>
<path d="M12 24.9999C14.7614 24.9999 17 22.7614 17 19.9999C17 17.2385 14.7614 14.9999 12 14.9999C9.23858 14.9999 7 17.2385 7 19.9999C7 22.7614 9.23858 24.9999 12 24.9999Z" fill="#0072BD"/>
<path d="M18.5 13.9999C20.433 13.9999 22 12.4329 22 10.4999C22 8.56694 20.433 6.99994 18.5 6.99994C16.567 6.99994 15 8.56694 15 10.4999C15 12.4329 16.567 13.9999 18.5 13.9999Z" fill="#0072BD"/>
<path d="M25 17.9999C26.6569 17.9999 28 16.6568 28 14.9999C28 13.3431 26.6569 11.9999 25 11.9999C23.3431 11.9999 22 13.3431 22 14.9999C22 16.6568 23.3431 17.9999 25 17.9999Z" fill="#0072BD"/>
<path d="M19.5 28.9999C20.8807 28.9999 22 27.8807 22 26.4999C22 25.1192 20.8807 23.9999 19.5 23.9999C18.1193 23.9999 17 25.1192 17 26.4999C17 27.8807 18.1193 28.9999 19.5 28.9999Z" fill="#0072BD"/>
<path d="M29.2962 7.17993C30.1246 7.17993 30.7962 6.50836 30.7962 5.67993C30.7962 4.8515 30.1246 4.17993 29.2962 4.17993C28.4677 4.17993 27.7962 4.8515 27.7962 5.67993C27.7962 6.50836 28.4677 7.17993 29.2962 7.17993Z" fill="#0072BD"/>

</svg>
