<svg width="50" height="40" viewBox="0 0 50 40" fill="none" xmlns="http://www.w3.org/2000/svg">
<rect x="0.5" y="0.5" width="48" height="38" rx="1" fill="var(--mw-icon-background-default-white, #FFFFFF)"/>
<path d="M3 4C3 3.44771 3.44772 3 4 3H45C45.5523 3 46 3.44772 46 4V35C46 35.5523 45.5523 36 45 36H4C3.44772 36 3 35.5523 3 35V4Z" fill="#37C897"/>
<path d="M8 3L37.0181 8.96546L40 9.40557V9L38 8V6H43V7L42.5345 7.63979H41.6151V9H42.5V9.77455L46 10.2911V11.9737L37 10.0248V11.25H35L34 12H33V11.25L32 10.5V9.75L32.841 9.11922L31.5017 8.80598V10.2911L30.5 11H29L28.5 10L30 9.5V9L26.9047 8.96545L26 10H24.1465L23.2271 8.30262L24.0816 7.07052L6.67761 3H8Z" fill="#FEC338"/>
<path d="M10 6V9H14V7L10 6Z" fill="#FEC338"/>
<path d="M22 29V26H26V24H30V22H33V17H36L37.1898 19.2153L38 18H40V18.1282H46V35C46 35.5523 45.5524 36 45.0001 36C44.7399 36 44.4216 36 44 36H21.0323L21 31L20 32H12L10 31.2V31.5L8 33H7.59704V34.0115L7 34.5V35H10V34.0115H14.0329L14 34.5V35.5L14.0329 36H5C4.57836 36 4.26004 36 3.99981 36C3.44752 36 3 35.5523 3 35V30.5L4 31H8L8.52174 30.6087L7 30V29H22Z" fill="#FEC338"/>
<path d="M21.8333 15L21 12H26V15H21.8333Z" fill="#FEC338"/>
<path d="M3 17H12V16L14.9522 15V12.9539L18 14V19L13.1135 18.933V19.9079L11.2747 20.5707H6.03725L3 19.245V17Z" fill="#FEC338"/>
<path d="M19.0001 4.5V3H33.0001V7L19.0001 4.5Z" fill="#FEC338"/>
<path d="M34.9672 15.0954L37.7254 13.7697L46.0001 15.0954V25.3947H42.3224L41.403 24.7319L42.3224 24.0691L41.403 22.7434H39.5642V24.0691H36.806L34.9672 22.7434L35.8866 21.4177L37.7254 22.0806V21.4177H41.403L42.3224 20.7549L41.403 20.0921H35.8866L34.9672 18.1036V15.0954Z" fill="#ABC739"/>
<path d="M40 20.5V21.5H43V22.5H45V20.5H43L42 19.5H40V17.5H38L36 20.5L35.5 18.5H34V22.5H36L36.5 21.5L38 19.5H39V20.5H40Z" fill="#FEC338"/>
<path d="M39 5V3H42V4L40 5H39Z" fill="#12B1D6"/>
<path d="M17.5 8.83332L15 7.49999L13.5 10.1667L15.5 10.7L15.9 11.5H16.5V10.1667L17.5 8.83332Z" fill="#12B1D6"/>
<path d="M6 12L10 10.6667V8H8L7 4H6V12Z" fill="#12B1D6"/>
<path d="M35.25 5.1754V5.71926H35.8158L34.6842 6.26312V7.35084L35.25 7.8947H36.9474V6.80698H35.8158V6.26312L36.9474 5.71926V4.63154H36.3816L35.25 5.1754Z" fill="#12B1D6"/>
<path d="M6.67763 22.5592L3 21.2336V28H5V26H8L9.5 27H12V22H8.5L6.67763 22.5592Z" fill="#F9FB15"/>
<path d="M38.9881 36L12 36V34H14L14.5582 34.8069H17.7104V34.2103H19.2865L20 35H21L21.5 34.5L22 35H24.0149V33.0173L23.5 32.5L24.0149 31H23V30L24.5 29.5L23 28H25L26.5 29.5L25.9851 30L26 31H27.9552L29 30.5V28H26L25.2484 27.3501L25.9851 27.0518H27.1672L26.3791 26.3587H24.803L26.3791 25.1656L27.9552 25.7622L30.3194 27.6483H31.8956V26.4552H30.3194V25.2622H32.6836L33.4717 24.0691L35.0478 24.6656V28H36.624L37 27.5L38.9881 28.2449L38.5 29L36.5 29.5L36 30.5H37.5L38.9881 30.0345H42V29H44.3642L45.2927 30.6311L45 31H40V33L42 33.5V34H38.9881V36Z" fill="#F9FB15"/>
<rect x="0.5" y="0.5" width="48" height="38" rx="1" stroke="var(--mw-icon-border-default-gray, #616161)"/>
</svg>
