<svg width="50" height="40" viewBox="0 0 50 40" fill="none" xmlns="http://www.w3.org/2000/svg">
<rect x="5.5" y="0.5" width="38" height="38" rx="1" fill="var(--mw-icon-background-default-medium-gray, #D9D9D9)"/>
<path d="M40.5 19.5C40.5 28.3366 33.3366 35.5 24.5 35.5C15.6634 35.5 8.5 28.3366 8.5 19.5C8.5 10.6634 15.6634 3.5 24.5 3.5C33.3366 3.5 40.5 10.6634 40.5 19.5Z" fill="var(--mw-icon-background-default-dark-gray, #A6A6A6)" stroke="var(--mw-icon-glyph-content-dark-gray, #333333)" stroke-linejoin="round"/>
<path d="M37 19.5C37 26.4036 31.4036 32 24.5 32C17.5964 32 12 26.4036 12 19.5C12 12.5964 17.5964 7 24.5 7C31.4036 7 37 12.5964 37 19.5Z" fill="var(--mw-icon-glyph-content-dark-gray, #333333)"/>
<circle cx="19" cy="13" r="2" fill="var(--mw-icon-background-default-light-gray, #F5F5F5)"/>
<circle cx="39.5" cy="4.5" r="2" fill="var(--mw-icon-background-default-light-gray, #F5F5F5)" stroke="var(--mw-icon-border-default-gray, #616161)" stroke-linejoin="round"/>
<rect x="5.39795" y="0.5" width="38.2041" height="38" rx="1" stroke="var(--mw-icon-border-default-gray, #616161)"/>

</svg>
