<svg width="50" height="40" viewBox="0 0 50 40" fill="none" xmlns="http://www.w3.org/2000/svg">
<path d="M5.5 27V12L24.5 1L43.5 12V27L24.5 38L5.5 27Z" fill="var(--mw-icon-background-default-white, #FFFFFF)"/>
<path d="M24.5 16.4999L24.5058 1.5835L43.0197 12.2538V27.1224L24.5 16.4999Z" fill="var(--mw-icon-background-default-light-gray, #F5F5F5)"/>
<path d="M24.5 16.4999L24.4942 1.5835L5.98034 12.2674L5.98034 27.1224L24.5 16.4999Z" fill="#E6E6E6"/>
<path d="M43.5 27V11.959L24.5 1L5.5 11.97" stroke="#BFBFBF" stroke-linecap="round" stroke-linejoin="round"/>
<path d="M5.5 12V27.03L24.5 38L43.5 27.0352" stroke="var(--mw-icon-border-default-gray, #616161)" stroke-linecap="round" stroke-linejoin="round"/>
<path d="M24.4911 33L10.5 24.9169V16.0597L24.4911 8L38.5018 16.0551V24.7147L24.4911 33Z" fill="#EDB120"/>
<path d="M24.4911 33L10.5 24.9169V16.0597M24.4911 33L38.5018 24.7147V16.0551M24.4911 33V24.1871M24.4911 16.1627V8M24.4911 16.1627L17.5 20M24.4911 16.1627L31.5379 20.2157M10.5 16.0597L24.4911 8M10.5 16.0597L17.5 20M24.4911 8L38.5018 16.0551M38.5018 16.0551L31.5379 20.2157M24.4911 24.1871L17.5 20M24.4911 24.1871L31.5379 20.2157" stroke="#745A26"/>
<path d="M24.4911 16.7246L18.3223 20.1224L24.4911 23.6849L30.5605 20.1918L24.4911 16.7246Z" fill="#FFDB9A"/>
</svg>
