<svg width="50" height="40" viewBox="0 0 50 40" fill="none" xmlns="http://www.w3.org/2000/svg">
<path d="M5.5 27V12L24.5 1L43.5 12V27L24.5 38L5.5 27Z" fill="var(--mw-icon-background-default-white, #FFFFFF)"/>
<path d="M24.5 16.4999L24.5058 1.5835L43.0197 12.2538V27.1224L24.5 16.4999Z" fill="var(--mw-icon-background-default-light-gray, #F5F5F5)"/>
<path d="M24.5 16.4999L24.4942 1.5835L5.98034 12.2674L5.98034 27.1224L24.5 16.4999Z" fill="#E6E6E6"/>
<path d="M43.5 27V11.959L24.5 1L5.5 11.97" stroke="#BFBFBF" stroke-linecap="round" stroke-linejoin="round"/>
<path d="M5.5 12V27.03L24.5 38L43.5 27.0352" stroke="var(--mw-icon-border-default-gray, #616161)" stroke-linecap="round" stroke-linejoin="round"/>
<path d="M12.5 24.9998V17.7959H37.4999V24.9998C37.4999 25.844 35.0365 31.4998 25.0052 31.4998C14.9738 31.4998 12.5 26.1959 12.5 24.9998Z" fill="#EDB120" stroke="#745A26"/>
<path d="M33.8388 12.5421C38.7204 15.2649 38.7204 19.6794 33.8388 22.4022C28.9573 25.125 21.0427 25.125 16.1612 22.4022C11.2796 19.6794 11.2796 15.2649 16.1612 12.5421C21.0427 9.8193 28.9573 9.8193 33.8388 12.5421Z" fill="#EDB120" stroke="#745A26"/>
<path d="M25.0077 17.5811C22.2619 17.5809 17.6744 18.5924 14.8032 20.989C20.3085 25.3767 31.5568 24.5126 35.2965 20.7397C33.3325 18.8171 27.307 17.5812 25.0077 17.5811Z" fill="#FFDB9A"/>
<path d="M35.818 20.8943C30.0626 16.2751 19.5553 16.4644 14.311 20.8945" stroke="#745A26"/>
</svg>
