<svg width="50" height="40" viewBox="0 0 50 40" fill="none" xmlns="http://www.w3.org/2000/svg">
<rect x="0.5" y="0.5" width="48" height="38" rx="1" fill="var(--mw-icon-object-secondary, #FFFFFE)" stroke="var(--mw-icon-border-default-gray, #616161)"/>
<path d="M18.8424 20.312H20.4729C20.4401 20.8357 20.2929 21.3006 20.0312 21.7067C19.773 22.1129 19.4113 22.43 18.946 22.658C18.4843 22.886 17.9281 23 17.2773 23C16.7684 23 16.3121 22.9145 15.9086 22.7435C15.5051 22.5689 15.1597 22.3195 14.8725 21.9953C14.5889 21.6711 14.3726 21.2792 14.2236 20.8196C14.0745 20.3601 14 19.8452 14 19.2752V18.7355C14 18.1654 14.0763 17.6506 14.229 17.191C14.3854 16.7279 14.6071 16.3342 14.8943 16.01C15.1851 15.6858 15.5323 15.4364 15.9359 15.2619C16.3394 15.0873 16.7902 15 17.2882 15C17.9499 15 18.5079 15.1176 18.9623 15.3527C19.4204 15.5878 19.7749 15.912 20.0257 16.3253C20.2802 16.7386 20.4329 17.2089 20.4838 17.7361H18.8478C18.8297 17.4226 18.766 17.1572 18.657 16.9399C18.5479 16.719 18.3825 16.5533 18.1607 16.4429C17.9426 16.3289 17.6518 16.2719 17.2882 16.2719C17.0156 16.2719 16.7775 16.3218 16.5739 16.4215C16.3703 16.5213 16.1994 16.6727 16.0613 16.8758C15.9231 17.0788 15.8195 17.3353 15.7505 17.6453C15.685 17.9517 15.6523 18.3115 15.6523 18.7248V19.2752C15.6523 19.6778 15.6832 20.0323 15.745 20.3387C15.8068 20.6415 15.9013 20.898 16.0286 21.1082C16.1594 21.3149 16.3267 21.4716 16.5303 21.5785C16.7375 21.6818 16.9865 21.7335 17.2773 21.7335C17.6191 21.7335 17.9008 21.68 18.1226 21.5731C18.3443 21.4663 18.5134 21.3077 18.6297 21.0975C18.7497 20.8873 18.8206 20.6255 18.8424 20.312Z" fill="var(--mw-icon-object-primary, #616160)"/>
<path d="M23.9847 22.8931H22.256L22.2669 21.6426H23.9847C24.4137 21.6426 24.7754 21.5482 25.0699 21.3594C25.3643 21.167 25.5861 20.8873 25.7351 20.5204C25.8878 20.1534 25.9642 19.7099 25.9642 19.1897V18.8103C25.9642 18.4113 25.9205 18.0603 25.8333 17.7575C25.7497 17.4547 25.6243 17.2 25.457 16.9933C25.2898 16.7867 25.0844 16.6317 24.8408 16.5284C24.5972 16.4215 24.3173 16.3681 24.001 16.3681H22.2233V15.1122H24.001C24.5318 15.1122 25.0171 15.2013 25.457 15.3794C25.9005 15.554 26.2841 15.8052 26.6076 16.1329C26.9312 16.4607 27.1802 16.8526 27.3547 17.3086C27.5328 17.7611 27.6219 18.2652 27.6219 18.821V19.1897C27.6219 19.7419 27.5328 20.246 27.3547 20.7021C27.1802 21.1581 26.9312 21.55 26.6076 21.8778C26.2877 22.202 25.9042 22.4531 25.457 22.6313C25.0135 22.8058 24.5227 22.8931 23.9847 22.8931ZM23.1831 15.1122V22.8931H21.5471V15.1122H23.1831Z" fill="var(--mw-icon-object-primary, #616160)"/>
<path d="M28.8107 15.1122H31.7717C32.3789 15.1122 32.9005 15.2013 33.3368 15.3794C33.7767 15.5576 34.1148 15.8212 34.3511 16.1703C34.5874 16.5195 34.7055 16.9488 34.7055 17.4582C34.7055 17.8751 34.6328 18.2331 34.4874 18.5324C34.3456 18.8281 34.1439 19.0757 33.8821 19.2752C33.624 19.4712 33.3204 19.6279 32.9714 19.7455L32.4534 20.0127H29.8795L29.8686 18.7622H31.7827C32.0699 18.7622 32.308 18.7123 32.497 18.6126C32.6861 18.5128 32.8278 18.3739 32.9224 18.1957C33.0205 18.0176 33.0696 17.811 33.0696 17.5758C33.0696 17.3264 33.0223 17.1109 32.9278 16.9292C32.8333 16.7475 32.6897 16.6086 32.497 16.5124C32.3043 16.4162 32.0626 16.3681 31.7717 16.3681H30.4466V22.8931H28.8107V15.1122ZM33.2495 22.8931L31.4391 19.4248L33.1677 19.4142L35 22.8183V22.8931H33.2495Z" fill="var(--mw-icon-object-primary, #616160)"/>
</svg>
