<svg width="50" height="40" viewBox="0 0 50 40" fill="none" xmlns="http://www.w3.org/2000/svg">
<rect x="0.5" y="0.5" width="48" height="38" rx="1" fill="var(--mw-icon-background-default-white, white)"/>
<path d="M0.5 4.5H48.5V37.5C48.5 38.0523 48.0523 38.5 47.5 38.5H1.5C0.947714 38.5 0.5 38.0523 0.5 37.5V4.5Z" fill="var(--mw-icon-background-default-white, white)" stroke="var(--mw-icon-border-default-gray, #616161)"/>
<path d="M0.5 1.5C0.5 0.947715 0.947715 0.5 1.5 0.5H47.5C48.0523 0.5 48.5 0.947715 48.5 1.5V4.5H0.5V1.5Z" fill="var(--mw-icon-background-default-selection, #B4DEFF)" stroke="var(--mw-icon-border-default-blue, #1656A7)"/>
<circle cx="21" cy="31" r="2" fill="#0072BD"/>
<circle cx="38" cy="21" r="2" fill="#0072BD"/>
<circle cx="32" cy="19" r="2" fill="#0072BD"/>
<circle cx="23" cy="24" r="2" fill="#0072BD"/>
<circle cx="12" cy="28" r="2" fill="#0072BD"/>
<path d="M8.5 33.5C10.6667 32.6667 17.1063 30.2575 19 29.5C21.5 28.5 34.5 24 39.5 16.5" stroke="#D95319" stroke-linecap="round"/>
<rect x="1" y="5" width="47" height="7" fill="#E6E6E6"/>
<path d="M1 12.5H48" stroke="#BFBFBF"/>
<rect x="4" y="6" width="5" height="5" fill="var(--mw-icon-background-default-dark-gray, #A6A6A6)"/>
<rect x="13" y="6" width="5" height="5" fill="var(--mw-icon-background-default-dark-gray, #A6A6A6)"/>
<rect x="22" y="6" width="5" height="5" fill="var(--mw-icon-background-default-dark-gray, #A6A6A6)"/>
<rect x="31" y="6" width="5" height="5" fill="var(--mw-icon-background-default-dark-gray, #A6A6A6)"/>
<rect x="40" y="6" width="5" height="5" fill="var(--mw-icon-background-default-dark-gray, #A6A6A6)"/>

</svg>
