<svg width="50" height="40" viewBox="0 0 50 40" fill="none" xmlns="http://www.w3.org/2000/svg">
<rect x="0.5" y="0.5" width="48" height="38" rx="1" fill="var(--mw-icon-object-secondary, #FFFFFE)" stroke="var(--mw-icon-border-default-gray, #616161)"/>
<path d="M9.92035 21.0237L11.3468 21.504C11.1281 22.3483 10.7636 22.9763 10.2533 23.3879C9.7464 23.796 9.10195 24 8.31999 24C7.35249 24 6.55728 23.65 5.93437 22.9499C5.31146 22.2463 5 21.2858 5 20.0686C5 18.781 5.31311 17.7819 5.93934 17.0712C6.56557 16.3571 7.38894 16 8.40946 16C9.30075 16 10.0247 16.2797 10.5814 16.8391C10.9127 17.1697 11.1612 17.6447 11.3269 18.2639L9.87065 18.6332C9.7845 18.2322 9.60393 17.9156 9.32892 17.6834C9.05722 17.4512 8.72588 17.3351 8.33491 17.3351C7.79483 17.3351 7.3558 17.5409 7.01784 17.9525C6.68319 18.3641 6.51587 19.0308 6.51587 19.9525C6.51587 20.9305 6.68153 21.6271 7.01287 22.0422C7.34421 22.4573 7.77495 22.6649 8.30508 22.6649C8.69606 22.6649 9.03237 22.533 9.31401 22.2691C9.59564 22.0053 9.79776 21.5901 9.92035 21.0237Z" fill="var(--mw-icon-object-primary, #616160)"/>
<path d="M13.9958 16.1319V18.9763C14.4464 18.4169 14.9848 18.1372 15.6111 18.1372C15.9325 18.1372 16.2224 18.2005 16.4808 18.3272C16.7393 18.4538 16.9331 18.6157 17.0623 18.8127C17.1949 19.0097 17.2843 19.2278 17.3307 19.467C17.3804 19.7062 17.4053 20.0774 17.4053 20.5805V23.8681H16.0087V20.9077C16.0087 20.3201 15.9822 19.9472 15.9291 19.7889C15.8761 19.6306 15.7817 19.5057 15.6459 19.4142C15.5133 19.3193 15.346 19.2718 15.1439 19.2718C14.9119 19.2718 14.7049 19.3316 14.5226 19.4512C14.3404 19.5708 14.2062 19.752 14.12 19.9947C14.0372 20.2339 13.9958 20.5893 13.9958 21.0607V23.8681H12.5992V16.1319H13.9958Z" fill="var(--mw-icon-object-primary, #616160)"/>
<path d="M19.8704 19.9736L18.603 19.7309C18.7455 19.1891 18.9907 18.788 19.3386 18.5277C19.6865 18.2674 20.2034 18.1372 20.8893 18.1372C21.5122 18.1372 21.976 18.2164 22.2809 18.3747C22.5857 18.5295 22.7994 18.7282 22.922 18.971C23.0479 19.2102 23.1109 19.6517 23.1109 20.2955L23.096 22.0264C23.096 22.5189 23.1175 22.883 23.1606 23.1187C23.207 23.3509 23.2914 23.6007 23.414 23.8681H22.0324C21.9959 23.7696 21.9512 23.6236 21.8982 23.4301C21.875 23.3421 21.8584 23.2841 21.8485 23.2559C21.6099 23.5022 21.3548 23.6869 21.0831 23.81C20.8114 23.9332 20.5215 23.9947 20.2133 23.9947C19.6699 23.9947 19.2409 23.8382 18.9261 23.5251C18.6146 23.212 18.4589 22.8162 18.4589 22.3377C18.4589 22.0211 18.5301 21.7397 18.6726 21.4934C18.8151 21.2436 19.0139 21.0537 19.269 20.9235C19.5275 20.7898 19.8986 20.6737 20.3823 20.5752C21.035 20.445 21.4873 20.3237 21.7391 20.2111V20.0633C21.7391 19.7784 21.6729 19.5761 21.5403 19.4565C21.4078 19.3333 21.1576 19.2718 20.7899 19.2718C20.5414 19.2718 20.3475 19.3245 20.2084 19.4301C20.0692 19.5321 19.9565 19.7133 19.8704 19.9736ZM21.7391 21.1768C21.5602 21.2401 21.2769 21.3157 20.8893 21.4037C20.5016 21.4916 20.2481 21.5778 20.1288 21.6623C19.9466 21.7995 19.8555 21.9736 19.8555 22.1847C19.8555 22.3923 19.9284 22.5717 20.0742 22.723C20.22 22.8742 20.4055 22.9499 20.6308 22.9499C20.8826 22.9499 21.1229 22.8619 21.3515 22.686C21.5205 22.5523 21.6315 22.3887 21.6845 22.1953C21.7209 22.0686 21.7391 21.8276 21.7391 21.4723V21.1768Z" fill="var(--mw-icon-object-primary, #616160)"/>
<path d="M29.2936 23.8681H27.897V21.0079C27.897 20.4028 27.8672 20.0123 27.8076 19.8364C27.7479 19.657 27.6502 19.518 27.5143 19.4195C27.3818 19.321 27.2211 19.2718 27.0322 19.2718C26.7904 19.2718 26.5733 19.3421 26.3812 19.4828C26.189 19.6236 26.0565 19.81 25.9836 20.0422C25.914 20.2744 25.8792 20.7036 25.8792 21.3298V23.8681H24.4826V18.2639H25.7798V19.0871C26.2403 18.4538 26.8202 18.1372 27.5193 18.1372C27.8275 18.1372 28.1091 18.197 28.3642 18.3166C28.6193 18.4327 28.8115 18.5822 28.9407 18.7652C29.0733 18.9481 29.1644 19.1557 29.2141 19.3879C29.2671 19.6201 29.2936 19.9525 29.2936 20.3852V23.8681Z" fill="var(--mw-icon-object-primary, #616160)"/>
<path d="M35.5161 23.8681H34.1195V21.0079C34.1195 20.4028 34.0897 20.0123 34.0301 19.8364C33.9704 19.657 33.8727 19.518 33.7368 19.4195C33.6043 19.321 33.4436 19.2718 33.2547 19.2718C33.0129 19.2718 32.7958 19.3421 32.6037 19.4828C32.4115 19.6236 32.279 19.81 32.2061 20.0422C32.1365 20.2744 32.1017 20.7036 32.1017 21.3298V23.8681H30.7051V18.2639H32.0023V19.0871C32.4629 18.4538 33.0427 18.1372 33.7418 18.1372C34.05 18.1372 34.3316 18.197 34.5867 18.3166C34.8419 18.4327 35.034 18.5822 35.1632 18.7652C35.2958 18.9481 35.3869 19.1557 35.4366 19.3879C35.4896 19.6201 35.5161 19.9525 35.5161 20.3852V23.8681Z" fill="var(--mw-icon-object-primary, #616160)"/>
<path d="M39.9941 22.0844L41.3858 22.3325C41.2068 22.8742 40.9235 23.2876 40.5359 23.5726C40.1515 23.854 39.6694 23.9947 39.0896 23.9947C38.1718 23.9947 37.4925 23.6763 37.0519 23.0396C36.704 22.5295 36.53 21.8857 36.53 21.1082C36.53 20.1794 36.7586 19.4529 37.2159 18.9288C37.6731 18.4011 38.2513 18.1372 38.9504 18.1372C39.7357 18.1372 40.3553 18.4134 40.8092 18.9657C41.2632 19.5145 41.4802 20.3571 41.4603 21.4934H37.9614C37.9713 21.9332 38.084 22.2762 38.2994 22.5224C38.5147 22.7652 38.7831 22.8865 39.1045 22.8865C39.3232 22.8865 39.5071 22.8232 39.6562 22.6966C39.8053 22.5699 39.9179 22.3659 39.9941 22.0844ZM40.0737 20.5858C40.0637 20.1566 39.9593 19.8311 39.7605 19.6095C39.5617 19.3843 39.3199 19.2718 39.0349 19.2718C38.7301 19.2718 38.4783 19.3896 38.2795 19.6253C38.0807 19.861 37.9829 20.1812 37.9862 20.5858H40.0737Z" fill="var(--mw-icon-object-primary, #616160)"/>
<path d="M42.6034 23.8681V16.1319H44V23.8681H42.6034Z" fill="var(--mw-icon-object-primary, #616160)"/>
</svg>
