<svg width="50" height="40" viewBox="0 0 50 40" fill="none" xmlns="http://www.w3.org/2000/svg">
<rect x="0.5" y="0.5" width="48" height="38" rx="1" fill="var(--mw-icon-background-default-white, #FFFFFF)"/>
<path d="M0.5 19.5H48.5" stroke="var(--mw-icon-background-default-dark-gray, #A6A6A6)" stroke-linecap="round" stroke-dasharray="3 3"/>
<path d="M0 35.5C9.26829 35.5 3 4.5 11.5854 4.5C20.1707 4.5 17.3415 35.5 23.1707 35.5C29 35.5 24.4268 4.5 28.9634 4.5C33.5 4.5 31 35.5 34.7561 35.5C38.5122 35.5 34.7561 4.5 37.6524 4.5C40.5488 4.5 38.4634 35.5 40.5488 35.5C42.6341 35.5 41 4.5 41.9969 4.5C42.9939 4.5 42.8902 35.5 43.4451 35.5C44 35.5 44.128 4.5 44.314 4.5C44.5 4.5 44.5 35.5 45.1829 35.5C45.8659 35.5 45.3659 4.5 45.6829 4.5C46 4.5 46 35.5 46.3415 35.5C46.6829 35.5 46.5 4.5 46.3415 4.5C46.1829 4.5 46.5 35.5 46.9207 35.5C47.3415 35.5 47 4.5 46.9207 4.5C46.8415 4.5 47 35.5 47.5 35.5C48 35.5 47 4.5 47.5 4.5C48 4.5 48.5 35.5 48.5 35.5" stroke="#0072BD"/>
<rect x="0.5" y="0.5" width="48" height="38" rx="1" stroke="var(--mw-icon-border-default-gray, #616161)"/>
</svg>
