<svg width="50" height="40" viewBox="0 0 50 40" fill="none" xmlns="http://www.w3.org/2000/svg">
<rect x="0.5" y="0.5" width="48" height="38" rx="1" fill="var(--mw-icon-background-default-white, #FFFFFF)"/>
<rect x="0.5" y="0.5" width="48" height="38" rx="1" stroke="var(--mw-icon-border-default-gray, #616161)"/>
<path d="M20 7C20.3705 7 20.6939 6.79854 20.8667 6.4992C20.5288 6.5917 19.8038 6.80529 19.6066 6.91963C19.7273 6.97136 19.8603 7 20 7Z" fill="#0072BD"/>
<path d="M23 7C23.5523 7 24 6.55228 24 6C23.4297 6.03775 22.2371 6.13803 22.0283 6.23711C22.1347 6.67494 22.5294 7 23 7Z" fill="#0072BD"/>
<path d="M25 6C25 6.55228 25.4477 7 26 7C26.4736 7 26.8703 6.67076 26.9737 6.22867C26.6393 6.1356 25.5185 6.03744 25 6Z" fill="#0072BD"/>
<path d="M28.1314 6.49577C28.3036 6.797 28.6281 7 29 7C29.1405 7 29.2742 6.97104 29.3955 6.91875C29.311 6.85376 28.5175 6.60968 28.1314 6.49577Z" fill="#0072BD"/>
<path d="M14 28C14.5523 28 15 27.5523 15 27C15 26.4477 14.5523 26 14 26C13.5622 26 13.19 26.2814 13.0546 26.6732L14 28Z" fill="#0072BD"/>
<path d="M17 10C17.5523 10 18 9.55228 18 9C18 8.56612 17.7237 8.19678 17.3374 8.05836C16.9854 8.27719 16.225 8.77187 16 9C16 9.55228 16.4477 10 17 10Z" fill="#0072BD"/>
<path d="M18 27C18 27.5523 17.5523 28 17 28C16.4477 28 16 27.5523 16 27C16 26.4477 16.4477 26 17 26C17.5523 26 18 26.4477 18 27Z" fill="#0072BD"/>
<path d="M17 29C16.4477 29 16 29.4477 16 30C16.4119 30.2964 17.2543 30.9002 17.3291 30.9446C17.7197 30.8085 18 30.437 18 30C18 29.4477 17.5523 29 17 29Z" fill="#0072BD"/>
<path d="M21 9C21 9.55228 20.5523 10 20 10C19.4477 10 19 9.55228 19 9C19 8.44772 19.4477 8 20 8C20.5523 8 21 8.44772 21 9Z" fill="#0072BD"/>
<path d="M21 27C21 27.5523 20.5523 28 20 28C19.4477 28 19 27.5523 19 27C19 26.4477 19.4477 26 20 26C20.5523 26 21 26.4477 21 27Z" fill="#0072BD"/>
<path d="M21 30C21 30.5523 20.5523 31 20 31C19.4477 31 19 30.5523 19 30C19 29.4477 19.4477 29 20 29C20.5523 29 21 29.4477 21 30Z" fill="#0072BD"/>
<path d="M20 32C19.8543 32 19.7158 32.0312 19.5909 32.0872C19.9657 32.22 20.746 32.4896 20.8698 32.5062C20.6978 32.2039 20.3727 32 20 32Z" fill="#0072BD"/>
<path d="M24 9C24 9.55228 23.5523 10 23 10C22.4477 10 22 9.55228 22 9C22 8.44772 22.4477 8 23 8C23.5523 8 24 8.44772 24 9Z" fill="#0072BD"/>
<path d="M24 27C24 27.5523 23.5523 28 23 28C22.4477 28 22 27.5523 22 27C22 26.4477 22.4477 26 23 26C23.5523 26 24 26.4477 24 27Z" fill="#0072BD"/>
<path d="M24 30C24 30.5523 23.5523 31 23 31C22.4477 31 22 30.5523 22 30C22 29.4477 22.4477 29 23 29C23.5523 29 24 29.4477 24 30Z" fill="#0072BD"/>
<path d="M24 33C24 32.4477 23.5523 32 23 32C22.5267 32 22.1302 32.3288 22.0265 32.7705C22.2726 32.8525 23.4447 32.9577 24 33Z" fill="#0072BD"/>
<path d="M27 9C27 9.55228 26.5523 10 26 10C25.4477 10 25 9.55228 25 9C25 8.44772 25.4477 8 26 8C26.5523 8 27 8.44772 27 9Z" fill="#0072BD"/>
<path d="M27 27C27 27.5523 26.5523 28 26 28C25.4477 28 25 27.5523 25 27C25 26.4477 25.4477 26 26 26C26.5523 26 27 26.4477 27 27Z" fill="#0072BD"/>
<path d="M27 30C27 30.5523 26.5523 31 26 31C25.4477 31 25 30.5523 25 30C25 29.4477 25.4477 29 26 29C26.5523 29 27 29.4477 27 30Z" fill="#0072BD"/>
<path d="M26 32C25.4477 32 25 32.4477 25 33C25.5591 32.9673 26.7372 32.8781 26.9764 32.7831C26.8773 32.3351 26.4778 32 26 32Z" fill="#0072BD"/>
<path d="M30 9C30 9.55228 29.5523 10 29 10C28.4477 10 28 9.55228 28 9C28 8.44772 28.4477 8 29 8C29.5523 8 30 8.44772 30 9Z" fill="#0072BD"/>
<path d="M30 27C30 27.5523 29.5523 28 29 28C28.4477 28 28 27.5523 28 27C28 26.4477 28.4477 26 29 26C29.5523 26 30 26.4477 30 27Z" fill="#0072BD"/>
<path d="M30 30C30 30.5523 29.5523 31 29 31C28.4477 31 28 30.5523 28 30C28 29.4477 28.4477 29 29 29C29.5523 29 30 29.4477 30 30Z" fill="#0072BD"/>
<path d="M29.4059 32.0858C29.2818 32.0306 29.1445 32 29 32C28.6252 32 28.2986 32.2062 28.1273 32.5113C28.2542 32.4954 29.0326 32.221 29.4059 32.0858Z" fill="#0072BD"/>
<path d="M32 10C32.5523 10 33 9.55228 33 9C32.7688 8.79063 32.0182 8.28282 31.6719 8.05509C31.2808 8.19089 31 8.56266 31 9C31 9.55228 31.4477 10 32 10Z" fill="#0072BD"/>
<path d="M33 27C33 27.5523 32.5523 28 32 28C31.4477 28 31 27.5523 31 27C31 26.4477 31.4477 26 32 26C32.5523 26 33 26.4477 33 27Z" fill="#0072BD"/>
<path d="M32 29C31.4477 29 31 29.4477 31 30C31 30.4369 31.2802 30.8084 31.6708 30.9445C31.7793 30.9002 32.6021 30.2964 33 30C33 29.4477 32.5523 29 32 29Z" fill="#0072BD"/>
<path d="M35 26C34.4477 26 34 26.4477 34 27C34 27.5445 34.4352 27.9873 34.9767 27.9997C35.0296 28.0027 35.6445 27.1166 35.9454 26.6732C35.81 26.2814 35.4378 26 35 26Z" fill="#0072BD"/>
<path d="M14 13C14.5523 13 15 12.5523 15 12C15 11.4477 14.5523 11 14 11C13.7042 11.3955 13.1012 12.2154 13.0562 12.3315C13.193 12.7208 13.5639 13 14 13Z" fill="#0072BD"/>
<path d="M18 12C18 12.5523 17.5523 13 17 13C16.4477 13 16 12.5523 16 12C16 11.4477 16.4477 11 17 11C17.5523 11 18 11.4477 18 12Z" fill="#0072BD"/>
<path d="M21 12C21 12.5523 20.5523 13 20 13C19.4477 13 19 12.5523 19 12C19 11.4477 19.4477 11 20 11C20.5523 11 21 11.4477 21 12Z" fill="#0072BD"/>
<path d="M24 12C24 12.5523 23.5523 13 23 13C22.4477 13 22 12.5523 22 12C22 11.4477 22.4477 11 23 11C23.5523 11 24 11.4477 24 12Z" fill="#0072BD"/>
<path d="M27 12C27 12.5523 26.5523 13 26 13C25.4477 13 25 12.5523 25 12C25 11.4477 25.4477 11 26 11C26.5523 11 27 11.4477 27 12Z" fill="#0072BD"/>
<path d="M30 12C30 12.5523 29.5523 13 29 13C28.4477 13 28 12.5523 28 12C28 11.4477 28.4477 11 29 11C29.5523 11 30 11.4477 30 12Z" fill="#0072BD"/>
<path d="M33 12C33 12.5523 32.5523 13 32 13C31.4477 13 31 12.5523 31 12C31 11.4477 31.4477 11 32 11C32.5523 11 33 11.4477 33 12Z" fill="#0072BD"/>
<path d="M34 12C34 12.5523 34.4477 13 35 13C35.4309 13 35.7982 12.7274 35.9388 12.3453C35.9148 12.2277 35.303 11.3994 35 11C34.4477 11 34 11.4477 34 12Z" fill="#0072BD"/>
<path d="M15 15C15 15.5523 14.5523 16 14 16C13.4477 16 13 15.5523 13 15C13 14.4477 13.4477 14 14 14C14.5523 14 15 14.4477 15 15Z" fill="#0072BD"/>
<path d="M18 15C18 15.5523 17.5523 16 17 16C16.4477 16 16 15.5523 16 15C16 14.4477 16.4477 14 17 14C17.5523 14 18 14.4477 18 15Z" fill="#0072BD"/>
<path d="M21 15C21 15.5523 20.5523 16 20 16C19.4477 16 19 15.5523 19 15C19 14.4477 19.4477 14 20 14C20.5523 14 21 14.4477 21 15Z" fill="#0072BD"/>
<path d="M24 15C24 15.5523 23.5523 16 23 16C22.4477 16 22 15.5523 22 15C22 14.4477 22.4477 14 23 14C23.5523 14 24 14.4477 24 15Z" fill="#0072BD"/>
<path d="M27 15C27 15.5523 26.5523 16 26 16C25.4477 16 25 15.5523 25 15C25 14.4477 25.4477 14 26 14C26.5523 14 27 14.4477 27 15Z" fill="#0072BD"/>
<path d="M30 15C30 15.5523 29.5523 16 29 16C28.4477 16 28 15.5523 28 15C28 14.4477 28.4477 14 29 14C29.5523 14 30 14.4477 30 15Z" fill="#0072BD"/>
<path d="M33 15C33 15.5523 32.5523 16 32 16C31.4477 16 31 15.5523 31 15C31 14.4477 31.4477 14 32 14C32.5523 14 33 14.4477 33 15Z" fill="#0072BD"/>
<path d="M36 15C36 15.5523 35.5523 16 35 16C34.4477 16 34 15.5523 34 15C34 14.4477 34.4477 14 35 14C35.5523 14 36 14.4477 36 15Z" fill="#0072BD"/>
<path d="M37.0816 24.4025C37.0291 24.2809 37 24.1469 37 24.0061C37 23.6315 37.2059 23.3051 37.5107 23.1338C37.4644 23.397 37.2054 24.0892 37.0816 24.4025Z" fill="#0072BD"/>
<path d="M11.6737 24.4025C11.7262 24.2809 11.7553 24.1469 11.7553 24.0061C11.7553 23.6315 11.5494 23.3051 11.2446 23.1338C11.2909 23.397 11.55 24.0892 11.6737 24.4025Z" fill="#0072BD"/>
<path d="M11 19C11.5523 19 12 18.5523 12 18C12 17.5284 11.6735 17.133 11.2343 17.0276C11.1562 17.5184 11 18.6 11 19Z" fill="#0072BD"/>
<path d="M15 18C15 18.5523 14.5523 19 14 19C13.4477 19 13 18.5523 13 18C13 17.4477 13.4477 17 14 17C14.5523 17 15 17.4477 15 18Z" fill="#0072BD"/>
<path d="M18 18C18 18.5523 17.5523 19 17 19C16.4477 19 16 18.5523 16 18C16 17.4477 16.4477 17 17 17C17.5523 17 18 17.4477 18 18Z" fill="#0072BD"/>
<path d="M21 18C21 18.5523 20.5523 19 20 19C19.4477 19 19 18.5523 19 18C19 17.4477 19.4477 17 20 17C20.5523 17 21 17.4477 21 18Z" fill="#0072BD"/>
<path d="M24 18C24 18.5523 23.5523 19 23 19C22.4477 19 22 18.5523 22 18C22 17.4477 22.4477 17 23 17C23.5523 17 24 17.4477 24 18Z" fill="#0072BD"/>
<path d="M27 18C27 18.5523 26.5523 19 26 19C25.4477 19 25 18.5523 25 18C25 17.4477 25.4477 17 26 17C26.5523 17 27 17.4477 27 18Z" fill="#0072BD"/>
<path d="M30 18C30 18.5523 29.5523 19 29 19C28.4477 19 28 18.5523 28 18C28 17.4477 28.4477 17 29 17C29.5523 17 30 17.4477 30 18Z" fill="#0072BD"/>
<path d="M33 18C33 18.5523 32.5523 19 32 19C31.4477 19 31 18.5523 31 18C31 17.4477 31.4477 17 32 17C32.5523 17 33 17.4477 33 18Z" fill="#0072BD"/>
<path d="M36 18C36 18.5523 35.5523 19 35 19C34.4477 19 34 18.5523 34 18C34 17.4477 34.4477 17 35 17C35.5523 17 36 17.4477 36 18Z" fill="#0072BD"/>
<path d="M37 18C37 18.5523 37.4477 19 38 19C37.964 18.4418 37.8681 17.2656 37.7722 17.0261C37.3297 17.1291 37 17.5261 37 18Z" fill="#0072BD"/>
<path d="M12 21C12 20.4477 11.5523 20 11 20C11.0358 20.5334 11.1314 21.6749 11.2277 21.974C11.6703 21.8709 12 21.474 12 21Z" fill="#0072BD"/>
<path d="M15 21C15 21.5523 14.5523 22 14 22C13.4477 22 13 21.5523 13 21C13 20.4477 13.4477 20 14 20C14.5523 20 15 20.4477 15 21Z" fill="#0072BD"/>
<path d="M18 21C18 21.5523 17.5523 22 17 22C16.4477 22 16 21.5523 16 21C16 20.4477 16.4477 20 17 20C17.5523 20 18 20.4477 18 21Z" fill="#0072BD"/>
<path d="M21 21C21 21.5523 20.5523 22 20 22C19.4477 22 19 21.5523 19 21C19 20.4477 19.4477 20 20 20C20.5523 20 21 20.4477 21 21Z" fill="#0072BD"/>
<path d="M24 21C24 21.5523 23.5523 22 23 22C22.4477 22 22 21.5523 22 21C22 20.4477 22.4477 20 23 20C23.5523 20 24 20.4477 24 21Z" fill="#0072BD"/>
<path d="M27 21C27 21.5523 26.5523 22 26 22C25.4477 22 25 21.5523 25 21C25 20.4477 25.4477 20 26 20C26.5523 20 27 20.4477 27 21Z" fill="#0072BD"/>
<path d="M30 21C30 21.5523 29.5523 22 29 22C28.4477 22 28 21.5523 28 21C28 20.4477 28.4477 20 29 20C29.5523 20 30 20.4477 30 21Z" fill="#0072BD"/>
<path d="M33 21C33 21.5523 32.5523 22 32 22C31.4477 22 31 21.5523 31 21C31 20.4477 31.4477 20 32 20C32.5523 20 33 20.4477 33 21Z" fill="#0072BD"/>
<path d="M36 21C36 21.5523 35.5523 22 35 22C34.4477 22 34 21.5523 34 21C34 20.4477 34.4477 20 35 20C35.5523 20 36 20.4477 36 21Z" fill="#0072BD"/>
<path d="M38 20C37.4477 20 37 20.4477 37 21C37 21.4739 37.3296 21.8707 37.772 21.9739C37.8573 21.7628 37.9596 20.57 38 20Z" fill="#0072BD"/>
<path d="M15 24C15 24.5523 14.5523 25 14 25C13.4477 25 13 24.5523 13 24C13 23.4477 13.4477 23 14 23C14.5523 23 15 23.4477 15 24Z" fill="#0072BD"/>
<path d="M18 24C18 24.5523 17.5523 25 17 25C16.4477 25 16 24.5523 16 24C16 23.4477 16.4477 23 17 23C17.5523 23 18 23.4477 18 24Z" fill="#0072BD"/>
<path d="M21 24C21 24.5523 20.5523 25 20 25C19.4477 25 19 24.5523 19 24C19 23.4477 19.4477 23 20 23C20.5523 23 21 23.4477 21 24Z" fill="#0072BD"/>
<path d="M24 24C24 24.5523 23.5523 25 23 25C22.4477 25 22 24.5523 22 24C22 23.4477 22.4477 23 23 23C23.5523 23 24 23.4477 24 24Z" fill="#0072BD"/>
<path d="M27 24C27 24.5523 26.5523 25 26 25C25.4477 25 25 24.5523 25 24C25 23.4477 25.4477 23 26 23C26.5523 23 27 23.4477 27 24Z" fill="#0072BD"/>
<path d="M30 24C30 24.5523 29.5523 25 29 25C28.4477 25 28 24.5523 28 24C28 23.4477 28.4477 23 29 23C29.5523 23 30 23.4477 30 24Z" fill="#0072BD"/>
<path d="M33 24C33 24.5523 32.5523 25 32 25C31.4477 25 31 24.5523 31 24C31 23.4477 31.4477 23 32 23C32.5523 23 33 23.4477 33 24Z" fill="#0072BD"/>
<path d="M36 24C36 24.5523 35.5523 25 35 25C34.4477 25 34 24.5523 34 24C34 23.4477 34.4477 23 35 23C35.5523 23 36 23.4477 36 24Z" fill="#0072BD"/>
<path d="M37.5051 15.8752C37.2034 15.7031 37 15.3783 37 15.0061C37 14.8629 37.0301 14.7267 37.0843 14.6036C37.1517 14.7122 37.393 15.4966 37.5051 15.8752Z" fill="#0072BD"/>
<path d="M11.2502 15.8752C11.5519 15.7031 11.7553 15.3783 11.7553 15.0061C11.7553 14.8629 11.7252 14.7267 11.671 14.6036C11.6036 14.7122 11.3624 15.4966 11.2502 15.8752Z" fill="#0072BD"/>
</svg>
