<svg width="50" height="40" viewBox="0 0 50 40" fill="none" xmlns="http://www.w3.org/2000/svg">
<path d="M5.5 27V12L24.5 1L43.5 12V27L24.5 38L5.5 27Z" fill="var(--mw-icon-background-default-white, #FFFFFF)"/>
<path d="M24.5 16.5001L24.5058 1.58374L43.0197 12.254V27.1226L24.5 16.5001Z" fill="var(--mw-icon-background-default-light-gray, #F5F5F5)"/>
<path d="M24.5 16.4999L24.4942 1.5835L5.98034 12.2674L5.98034 27.1224L24.5 16.4999Z" fill="#E6E6E6"/>
<path d="M43.5 27V11.959L24.5 1L5.5 11.97" stroke="#BFBFBF" stroke-linecap="round" stroke-linejoin="round"/>
<path d="M5.5 12V27.03L24.5 38L43.5 27.0352" stroke="var(--mw-icon-border-default-gray, #616161)" stroke-linecap="round" stroke-linejoin="round"/>
<path d="M11.8992 15.2324L12.775 14.5911C16.2086 12.5444 20.4805 11.4738 24.5001 11.5C26.254 11.5012 27.6774 11.7039 29.3832 12.1031C39.3561 14.4211 40.3423 20.3783 40.3818 20.6024L40.5001 21.4291L24.888 26.171L24.3357 24.3166L38.1726 20.1233C37.5809 18.7789 35.5374 15.7192 28.902 13.9807C27.4229 13.6069 26.0276 13.4904 24.5001 13.5C21.2192 13.5155 17.8567 14.1843 14.9052 15.5878L23.8287 25.0219L22.377 26.3277L11.8992 15.2324Z" fill="#EDB120" stroke="#745A26" stroke-linejoin="round"/>
<path d="M22.7476 27.2679L23.8443 25.6608L28.2784 28.0583C29.4145 27.0461 32.2316 25.2334 32.4938 22.5724C32.5494 20.4404 32.3205 17.4965 32.0024 15.3867L23.8995 25.0217L22.8186 23.3528L32.4938 11.4998C32.4938 11.4998 33 10.4998 33.5 13.4998C34 16.4998 34.5196 20.4998 34.5196 22.4998C34.5196 26.9998 29.1778 29.8972 28.9727 30.0595L28.2784 30.5L22.7476 27.2679Z" fill="#EDB120" stroke="#745A26" stroke-linejoin="round"/>
<path d="M23.625 18.4309C22.5283 18.4309 14.3702 20.2544 11.7902 20.888C10.5964 21.1811 8.44011 21.6401 8.47929 24.2456C8.51847 26.8512 10.1689 27.4998 11.4621 27.4998H23.4621V25.4998C23.4621 25.4998 12.4595 25.5057 11.5913 25.5057C11.2124 25.5057 10.5948 25.066 10.5 24.5C10.4089 23.9561 10.8293 23.2877 11.0264 23.1585C11.4256 22.832 13.8458 22.4093 14.3181 22.2958C17.553 21.5077 21.6131 20.6793 23.1911 20.4321L25.5581 22.7037L26.9151 21.3052L23.9801 18.4309H23.625Z" fill="#EDB120" stroke="#745A26" stroke-linejoin="round"/>
</svg>
