<svg width="50" height="40" viewBox="0 0 50 40" fill="none" xmlns="http://www.w3.org/2000/svg">
<path d="M41.5 5.5H8.5C7.94772 5.5 7.5 5.94772 7.5 6.5V33.5C7.5 34.0523 7.94772 34.5 8.5 34.5H41.5C42.0523 34.5 42.5 34.0523 42.5 33.5V6.5C42.5 5.94772 42.0523 5.5 41.5 5.5Z" fill="var(--mw-icon-background-default-light-gray, #F5F5F5)" stroke="var(--mw-icon-border-default-gray, #616161)"/>
<path d="M15 23L21.5 16.5L28.5 23.5L35 17" stroke="var(--mw-icon-background-default-dark-gray, #A6A6A6)" stroke-linecap="round" stroke-linejoin="round"/>
<rect x="40.875" y="11" width="5.25" height="4" fill="#BFBFBF"/>
<rect x="40.875" y="27" width="5.25" height="4" fill="#4852F4"/>
<rect x="40.875" y="7" width="5.25" height="4" fill="var(--mw-icon-background-default-medium-gray, #D9D9D9)"/>
<rect x="40.875" y="15" width="5.25" height="4" fill="var(--mw-icon-background-default-dark-gray, #A6A6A6)"/>
<rect x="40.875" y="23" width="5.25" height="4" fill="#7D7D7D"/>
<rect x="40.875" y="31" width="5.25" height="4" fill="#3E26A8"/>
<rect x="40.875" y="3" width="5.25" height="4" fill="#E6E6E6"/>
<rect x="40.875" y="19" width="5.25" height="4" fill="var(--mw-icon-border-disabled-gray, #888888)"/>
<path d="M46.5 2.5H40.5V35.5H46.5V2.5Z" stroke="var(--mw-icon-border-default-gray, #616161)"/>
<path d="M37.3536 26.6464C37.4473 26.5527 37.5745 26.5 37.7071 26.5H48C48.2761 26.5 48.5 26.7239 48.5 27V38C48.5 38.2761 48.2761 38.5 48 38.5H37.7071C37.5745 38.5 37.4473 38.4473 37.3536 38.3536L31.8536 32.8536C31.6583 32.6583 31.6583 32.3417 31.8536 32.1464L37.3536 26.6464Z" fill="var(--mw-icon-background-default-selection, #B4DEFF)" stroke="var(--mw-icon-glyph-content-dark-blue, #104280)"/>
<path d="M45.5 35.5L39.5 29.5" stroke="var(--mw-icon-glyph-content-dark-blue, #104280)" stroke-linecap="round"/>
<path d="M39.5 35.5L45.5 29.5" stroke="var(--mw-icon-glyph-content-dark-blue, #104280)" stroke-linecap="round"/>
</svg>
