<svg width="50" height="40" viewBox="0 0 50 40" fill="none" xmlns="http://www.w3.org/2000/svg">
<circle cx="24.5" cy="19.5" r="16" fill="var(--mw-icon-background-default-white, white)"/>
<circle cx="24.5" cy="19.5" r="7" stroke="var(--mw-icon-background-default-medium-gray, #D9D9D9)"/>
<path d="M24.5 3.5V35.5" stroke="var(--mw-icon-background-default-medium-gray, #D9D9D9)"/>
<path d="M32.5 5.64355L16.5 33.3564" stroke="var(--mw-icon-background-default-medium-gray, #D9D9D9)"/>
<path d="M38.3564 11.5L10.6436 27.5" stroke="var(--mw-icon-background-default-medium-gray, #D9D9D9)"/>
<path d="M16.5 5.64355L32.5 33.3564" stroke="var(--mw-icon-background-default-medium-gray, #D9D9D9)"/>
<path d="M10.6436 11.5L38.3564 27.5" stroke="var(--mw-icon-background-default-medium-gray, #D9D9D9)"/>
<path d="M8.5 19.5L40.5 19.5" stroke="var(--mw-icon-background-default-medium-gray, #D9D9D9)"/>
<circle cx="24.5" cy="19.5" r="16" stroke="var(--mw-icon-border-default-gray, #616161)"/>
<rect x="24" width="1" height="2" fill="var(--mw-icon-border-disabled-gray, #888888)"/>
<rect x="24" y="37" width="1" height="2" fill="var(--mw-icon-border-disabled-gray, #888888)"/>
<rect x="14.3169" y="2.86255" width="1" height="2" transform="rotate(-30 14.3169 2.86255)" fill="var(--mw-icon-border-disabled-gray, #888888)"/>
<rect x="32.8169" y="34.9055" width="1" height="2" transform="rotate(-30 32.8169 34.9055)" fill="var(--mw-icon-border-disabled-gray, #888888)"/>
<rect x="7.36255" y="10.1831" width="1" height="2" transform="rotate(-60 7.36255 10.1831)" fill="var(--mw-icon-border-disabled-gray, #888888)"/>
<rect x="39.4055" y="28.6831" width="1" height="2" transform="rotate(-60 39.4055 28.6831)" fill="var(--mw-icon-border-disabled-gray, #888888)"/>
<rect x="7" y="19" width="1" height="2" transform="rotate(90 7 19)" fill="var(--mw-icon-border-disabled-gray, #888888)"/>
<rect x="44" y="19" width="1" height="2" transform="rotate(90 44 19)" fill="var(--mw-icon-border-disabled-gray, #888888)"/>
<rect x="9.09448" y="27.8169" width="1" height="2" transform="rotate(60 9.09448 27.8169)" fill="var(--mw-icon-border-disabled-gray, #888888)"/>
<rect x="41.1375" y="9.31689" width="1" height="2" transform="rotate(60 41.1375 9.31689)" fill="var(--mw-icon-border-disabled-gray, #888888)"/>
<rect x="15.3169" y="34.4055" width="1" height="2" transform="rotate(30 15.3169 34.4055)" fill="var(--mw-icon-border-disabled-gray, #888888)"/>
<rect x="33.8169" y="2.36255" width="1" height="2" transform="rotate(30 33.8169 2.36255)" fill="var(--mw-icon-border-disabled-gray, #888888)"/>
<path d="M31 8.2417L18 30.7584" stroke="#0072BD"/>
<path d="M28.085 8.29076L32.25 6.07666L32.4151 10.7908L28.085 8.29076Z" fill="#0072BD"/>
<path d="M20.915 30.7092L16.75 32.9233L16.5849 28.2092L20.915 30.7092Z" fill="#0072BD"/>
<path d="M17.1387 15.25L31.8611 23.75" stroke="#0072BD"/>
<path d="M17.6208 18.415L15.4067 14.25L20.1208 14.0849L17.6208 18.415Z" fill="#0072BD"/>
<path d="M31.3792 20.585L33.5933 24.75L28.8792 24.9151L31.3792 20.585Z" fill="#0072BD"/>
<path d="M31.8613 15.25L17.1389 23.75" stroke="#0072BD"/>
<path d="M28.8792 14.085L33.5933 14.25L31.3792 18.4151L28.8792 14.085Z" fill="#0072BD"/>
<path d="M20.1208 24.915L15.4067 24.75L17.6208 20.5849L20.1208 24.915Z" fill="#0072BD"/>
<path d="M18 8.2417L31 30.7584" stroke="#0072BD"/>
<path d="M16.585 10.7908L16.75 6.07666L20.9151 8.29076L16.585 10.7908Z" fill="#0072BD"/>
<path d="M32.415 28.2092L32.25 32.9233L28.0849 30.7092L32.415 28.2092Z" fill="#0072BD"/>

</svg>
