<svg width="50" height="40" viewBox="0 0 50 40" fill="none" xmlns="http://www.w3.org/2000/svg">
<rect x="0.5" y="0.5" width="48" height="38" rx="1" fill="var(--mw-icon-background-default-white, #FFFFFF)"/>
<rect x="0.5" y="0.5" width="48" height="38" rx="1" stroke="var(--mw-icon-border-default-gray, #616161)"/>
<circle cx="1" cy="1" r="1" transform="matrix(1 0 0 -1 24 25)" fill="#0072BD"/>
<circle cx="1" cy="1" r="1" transform="matrix(1 0 0 -1 27 24)" fill="#0072BD"/>
<circle cx="1" cy="1" r="1" transform="matrix(1 0 0 -1 28 22)" fill="#0072BD"/>
<circle cx="25" cy="16" r="1" fill="#0072BD"/>
<circle cx="28" cy="17" r="1" fill="#0072BD"/>
<circle cx="29" cy="19" r="1" fill="#0072BD"/>
<circle cx="22" cy="23" r="1" transform="rotate(180 22 23)" fill="#0072BD"/>
<circle cx="21" cy="21" r="1" transform="rotate(180 21 21)" fill="#0072BD"/>
<circle cx="1" cy="1" r="1" transform="matrix(-1 0 0 1 23 16)" fill="#0072BD"/>
<circle cx="1" cy="1" r="1" transform="matrix(-1 0 0 1 22 18)" fill="#0072BD"/>
<path d="M17 20C17 19.4477 16.5523 19 16 19C15.4477 19 15 19.4477 15 20C15 20.5523 15.4477 21 16 21C16.5523 21 17 20.5523 17 20Z" fill="#0072BD"/>
<path d="M19 26C19 25.4477 18.5523 25 18 25C17.4477 25 17 25.4477 17 26C17 26.5523 17.4477 27 18 27C18.5523 27 19 26.5523 19 26Z" fill="#0072BD"/>
<path d="M26 29C26 29.5523 25.5523 30 25 30C24.4477 30 24 29.5523 24 29C24 28.4477 24.4477 28 25 28C25.5523 28 26 28.4477 26 29Z" fill="#0072BD"/>
<path d="M22 28C22 28.5523 21.5523 29 21 29C20.4477 29 20 28.5523 20 28C20 27.4477 20.4477 27 21 27C21.5523 27 22 27.4477 22 28Z" fill="#0072BD"/>
<path d="M18 23C18 23.5523 17.5523 24 17 24C16.4477 24 16 23.5523 16 23C16 22.4477 16.4477 22 17 22C17.5523 22 18 22.4477 18 23Z" fill="#0072BD"/>
<path d="M33 20C33 19.4477 33.4477 19 34 19C34.5523 19 35 19.4477 35 20C35 20.5523 34.5523 21 34 21C33.4477 21 33 20.5523 33 20Z" fill="#0072BD"/>
<path d="M31 26C31 25.4477 31.4477 25 32 25C32.5523 25 33 25.4477 33 26C33 26.5523 32.5523 27 32 27C31.4477 27 31 26.5523 31 26Z" fill="#0072BD"/>
<path d="M28 28C28 28.5523 28.4477 29 29 29C29.5523 29 30 28.5523 30 28C30 27.4477 29.5523 27 29 27C28.4477 27 28 27.4477 28 28Z" fill="#0072BD"/>
<path d="M32 23C32 23.5523 32.4477 24 33 24C33.5523 24 34 23.5523 34 23C34 22.4477 33.5523 22 33 22C32.4477 22 32 22.4477 32 23Z" fill="#0072BD"/>
<path d="M19 14C19 14.5523 18.5523 15 18 15C17.4477 15 17 14.5523 17 14C17 13.4477 17.4477 13 18 13C18.5523 13 19 13.4477 19 14Z" fill="#0072BD"/>
<path d="M26 11C26 10.4477 25.5523 10 25 10C24.4477 10 24 10.4477 24 11C24 11.5523 24.4477 12 25 12C25.5523 12 26 11.5523 26 11Z" fill="#0072BD"/>
<path d="M22 12C22 11.4477 21.5523 11 21 11C20.4477 11 20 11.4477 20 12C20 12.5523 20.4477 13 21 13C21.5523 13 22 12.5523 22 12Z" fill="#0072BD"/>
<path d="M18 17C18 16.4477 17.5523 16 17 16C16.4477 16 16 16.4477 16 17C16 17.5523 16.4477 18 17 18C17.5523 18 18 17.5523 18 17Z" fill="#0072BD"/>
<path d="M31 14C31 14.5523 31.4477 15 32 15C32.5523 15 33 14.5523 33 14C33 13.4477 32.5523 13 32 13C31.4477 13 31 13.4477 31 14Z" fill="#0072BD"/>
<path d="M28 12C28 11.4477 28.4477 11 29 11C29.5523 11 30 11.4477 30 12C30 12.5523 29.5523 13 29 13C28.4477 13 28 12.5523 28 12Z" fill="#0072BD"/>
<path d="M32 17C32 16.4477 32.4477 16 33 16C33.5523 16 34 16.4477 34 17C34 17.5523 33.5523 18 33 18C32.4477 18 32 17.5523 32 17Z" fill="#0072BD"/>
<path d="M26 7C26 7.55228 25.5523 8 25 8C24.4477 8 24 7.55228 24 7C24 6.44772 24.4477 6 25 6C25.5523 6 26 6.44772 26 7Z" fill="#0072BD"/>
<path d="M31 8C31 8.55228 30.5523 9 30 9C29.4477 9 29 8.55228 29 8C29 7.44772 29.4477 7 30 7C30.5523 7 31 7.44772 31 8Z" fill="#0072BD"/>
<path d="M35 11C35 11.5523 34.5523 12 34 12C33.4477 12 33 11.5523 33 11C33 10.4477 33.4477 10 34 10C34.5523 10 35 10.4477 35 11Z" fill="#0072BD"/>
<path d="M38 15C38 15.5523 37.5523 16 37 16C36.4477 16 36 15.5523 36 15C36 14.4477 36.4477 14 37 14C37.5523 14 38 14.4477 38 15Z" fill="#0072BD"/>
<path d="M19 8C19 8.55228 19.4477 9 20 9C20.5523 9 21 8.55228 21 8C21 7.44772 20.5523 7 20 7C19.4477 7 19 7.44772 19 8Z" fill="#0072BD"/>
<path d="M15 11C15 11.5523 15.4477 12 16 12C16.5523 12 17 11.5523 17 11C17 10.4477 16.5523 10 16 10C15.4477 10 15 10.4477 15 11Z" fill="#0072BD"/>
<path d="M12 15C12 15.5523 12.4477 16 13 16C13.5523 16 14 15.5523 14 15C14 14.4477 13.5523 14 13 14C12.4477 14 12 14.4477 12 15Z" fill="#0072BD"/>
<path d="M39 20C39 20.5523 38.5523 21 38 21C37.4477 21 37 20.5523 37 20C37 19.4477 37.4477 19 38 19C38.5523 19 39 19.4477 39 20Z" fill="#0072BD"/>
<path d="M13 20C13 20.5523 12.5523 21 12 21C11.4477 21 11 20.5523 11 20C11 19.4477 11.4477 19 12 19C12.5523 19 13 19.4477 13 20Z" fill="#0072BD"/>
<path d="M26 33C26 32.4477 25.5523 32 25 32C24.4477 32 24 32.4477 24 33C24 33.5523 24.4477 34 25 34C25.5523 34 26 33.5523 26 33Z" fill="#0072BD"/>
<path d="M31 32C31 31.4477 30.5523 31 30 31C29.4477 31 29 31.4477 29 32C29 32.5523 29.4477 33 30 33C30.5523 33 31 32.5523 31 32Z" fill="#0072BD"/>
<path d="M35 29C35 28.4477 34.5523 28 34 28C33.4477 28 33 28.4477 33 29C33 29.5523 33.4477 30 34 30C34.5523 30 35 29.5523 35 29Z" fill="#0072BD"/>
<path d="M38 25C38 24.4477 37.5523 24 37 24C36.4477 24 36 24.4477 36 25C36 25.5523 36.4477 26 37 26C37.5523 26 38 25.5523 38 25Z" fill="#0072BD"/>
<path d="M19 32C19 31.4477 19.4477 31 20 31C20.5523 31 21 31.4477 21 32C21 32.5523 20.5523 33 20 33C19.4477 33 19 32.5523 19 32Z" fill="#0072BD"/>
<path d="M15 29C15 28.4477 15.4477 28 16 28C16.5523 28 17 28.4477 17 29C17 29.5523 16.5523 30 16 30C15.4477 30 15 29.5523 15 29Z" fill="#0072BD"/>
<path d="M12 25C12 24.4477 12.4477 24 13 24C13.5523 24 14 24.4477 14 25C14 25.5523 13.5523 26 13 26C12.4477 26 12 25.5523 12 25Z" fill="#0072BD"/>
</svg>
