<svg width="50" height="41" viewBox="0 0 50 41" fill="none" xmlns="http://www.w3.org/2000/svg">
<path d="M1 5H48V38H1V5Z" fill="#FFD60A"/>
<path d="M9.85634 11.5C6.24274 11.5 2.62912 29.5 3.03064 38L3.03063 38.5H46.5C47.6046 38.5 48.5 37.6046 48.5 36.5V31.5L33.5456 26C12.6669 16.5 13.4699 11.5 9.85634 11.5Z" fill="#94EF84" stroke="var(--mw-icon-border-default-green, #008013)" stroke-linecap="square" stroke-linejoin="round"/>
<path d="M11.9999 22.5C5.59993 22.9 4.49993 34 5.3157 38.5184H46.4999C47.6045 38.5184 48.4999 37.6229 48.4999 36.5184V33C34.9999 30 18.3999 22.1 11.9999 22.5Z" fill="#1FCFBE" stroke="#027880" stroke-linecap="square" stroke-linejoin="round"/>
<path d="M11.5 28.5C7.06799 28.9924 5.99997 34 6.99997 38.5H46.5C47.6045 38.5 48.5 37.6045 48.5 36.5V35C44.5185 33 20.5 27.5 11.5 28.5Z" fill="#54B6FF" stroke="var(--mw-icon-border-default-blue, #1656A7)" stroke-linecap="square" stroke-linejoin="round"/>
<path d="M19.0356 35.5C17.4229 35.5 16.8854 37.3 17.0198 38.5H40C35.9684 36.7 21.0514 35.5 19.0356 35.5Z" fill="#0E00FF" stroke="black" stroke-linecap="square" stroke-linejoin="round"/>
<path d="M13 32C10.1347 32.4466 9 36.0805 9 38.5L46.535 38.5C46.8382 38.5 47.1346 38.4102 47.3869 38.242C47.8415 37.939 47.751 37.2485 47.231 37.081C35.7881 33.3964 20.3171 30.8594 13 32Z" fill="#6582FD" stroke="#0C02AF" stroke-linecap="square" stroke-linejoin="round"/>
<path d="M16.5 35C13.62 35.4712 12.1333 36.7328 12 38.5L43.5 38.5C35.4082 35.5 20.1 34.4109 16.5 35Z" fill="#0E00FF" stroke="#141A33" stroke-linecap="square" stroke-linejoin="round"/>
<path d="M48.4999 26.9803C37.4999 26.5 22.1358 17.6008 26.1918 8.74232C27.3297 6.25709 29.6751 5.0547 32.4999 4.5626C37.1706 4.56259 42.5624 4.51745 46.5319 4.54218C47.6243 4.54898 48.4999 5.43918 48.4999 6.53154V26.9803Z" fill="#FF453A" stroke="var(--mw-icon-border-default-red, #902622)" stroke-linecap="square" stroke-linejoin="round"/>
<path d="M37.851 11.3839C40.7999 10.1264 46.179 10.7774 48.5 12V22.9114C48.5 23.0861 47.517 23.121 43.5851 21.8635C36 19.4375 34.1648 12.9559 37.851 11.3839Z" fill="var(--mw-icon-border-default-red, #902622)" stroke="var(--mw-icon-glyph-content-dark-red, #610908)" stroke-linecap="square" stroke-linejoin="round"/>
<path d="M11.5 9C8.8 9 8 6.16667 8 4.5H19.5C17.75 6.16667 14.2 9 11.5 9Z" fill="#94EF84" stroke="var(--mw-icon-border-default-green, #008013)" stroke-linecap="square" stroke-linejoin="round"/>
<circle cx="12" cy="21" r="2.5" fill="#0E00FF" stroke="var(--mw-icon-background-default-white, white)"/>
<circle cx="22" cy="12" r="2.5" fill="#0E00FF" stroke="var(--mw-icon-background-default-white, white)"/>
<circle cx="24" cy="21" r="2.5" fill="#0E00FF" stroke="var(--mw-icon-background-default-white, white)"/>
<circle cx="32" cy="23" r="2.5" fill="#0E00FF" stroke="var(--mw-icon-background-default-white, white)"/>
<circle cx="26" cy="32" r="2.5" fill="#0E00FF" stroke="var(--mw-icon-background-default-white, white)"/>
<path d="M0.5 5.5C0.5 4.94772 0.947715 4.5 1.5 4.5H47.5C48.0523 4.5 48.5 4.94772 48.5 5.5V37.5C48.5 38.0523 48.0523 38.5 47.5 38.5H1.5C0.947714 38.5 0.5 38.0523 0.5 37.5V5.5Z" stroke="var(--mw-icon-border-default-gray, #616161)"/>
<circle cx="8" cy="4" r="2.5" fill="#0E00FF" stroke="var(--mw-icon-background-default-white, white)"/>
<circle cx="36" cy="4" r="2.5" fill="#0E00FF" stroke="var(--mw-icon-background-default-white, white)"/>
<circle cx="44" cy="6" r="2.5" fill="#0E00FF" stroke="var(--mw-icon-background-default-white, white)"/>
<circle cx="5" cy="37" r="2.5" fill="#0E00FF" stroke="var(--mw-icon-background-default-white, white)"/>
<circle cx="44" cy="34" r="2.5" fill="#0E00FF" stroke="var(--mw-icon-background-default-white, white)"/>

</svg>
