<svg width="50" height="41" viewBox="0 0 50 41" fill="none" xmlns="http://www.w3.org/2000/svg">
<path d="M5.5 27.5V12.5L24.5 1.5L43.5 12.5V27.5L24.5 38.5L5.5 27.5Z" fill="var(--mw-icon-background-default-white, white)"/>
<path d="M24.5 16.9999L24.5058 2.0835L43.0197 12.7538V27.6224L24.5 16.9999Z" fill="var(--mw-icon-background-default-light-gray, #F5F5F5)"/>
<path d="M24.5 16.9999L24.4942 2.0835L5.98034 12.7674L5.98034 27.6224L24.5 16.9999Z" fill="#E6E6E6"/>
<path d="M43.5 27.5V12.459L24.5 1.5L5.5 12.47" stroke="#BFBFBF" stroke-linecap="round" stroke-linejoin="round"/>
<path d="M5.5 12.5V27.53L24.5 38.5L43.5 27.5352" stroke="var(--mw-icon-border-default-gray, #616161)" stroke-linecap="round" stroke-linejoin="round"/>
<path d="M37.8965 27.9227C37.8965 28.1363 37.7502 28.4142 37.3328 28.6654C36.9251 28.9109 36.3297 29.0789 35.6453 29.0789C34.9609 29.0789 34.3654 28.9109 33.9577 28.6654C33.5403 28.4142 33.394 28.1363 33.394 27.9227C33.394 27.7092 33.5403 27.4313 33.9577 27.18C34.3654 26.9346 34.9609 26.7666 35.6453 26.7666C36.3297 26.7666 36.9251 26.9346 37.3328 27.18C37.7502 27.4313 37.8965 27.7092 37.8965 27.9227Z" stroke="#4852F4"/>
<path d="M26.4605 15.723C26.4605 15.9366 26.3142 16.2145 25.8968 16.4657C25.4891 16.7112 24.8936 16.8792 24.2092 16.8792C23.5248 16.8792 22.9294 16.7112 22.5217 16.4657C22.1043 16.2145 21.958 15.9366 21.958 15.723C21.958 15.5095 22.1043 15.2316 22.5217 14.9803C22.9294 14.7349 23.5248 14.5669 24.2092 14.5669C24.8936 14.5669 25.4891 14.7349 25.8968 14.9803C26.3142 15.2316 26.4605 15.5095 26.4605 15.723Z" stroke="#FEC338"/>
<path d="M38.7705 23.8838C38.7705 24.2425 38.5264 24.6519 37.9509 24.9984C37.3851 25.339 36.5712 25.5659 35.6455 25.5659C34.7198 25.5659 33.9059 25.339 33.3401 24.9984C32.7646 24.6519 32.5205 24.2425 32.5205 23.8838C32.5205 23.525 32.7646 23.1156 33.3401 22.7692C33.9059 22.4286 34.7198 22.2017 35.6455 22.2017C36.5712 22.2017 37.3851 22.4286 37.9509 22.7692C38.5264 23.1156 38.7705 23.525 38.7705 23.8838Z" stroke="#4852F4"/>
<path d="M11.4621 26.2431L17.8806 22.5331C17.8806 22.5331 21.0738 20.4507 22.5308 23.2461C23.096 24.3305 22.7611 25.3731 22.1394 26.2431" stroke="#12B1D6" stroke-linecap="round"/>
<path d="M22.6475 27.1802C22.6475 27.5389 22.4034 27.9483 21.8279 28.2948C21.262 28.6354 20.4481 28.8623 19.5225 28.8623C18.5968 28.8623 17.7829 28.6354 17.2171 28.2948C16.6415 27.9483 16.3975 27.5389 16.3975 27.1802C16.3975 26.8214 16.6415 26.412 17.2171 26.0655C17.7829 25.7249 18.5968 25.498 19.5225 25.498C20.4481 25.498 21.262 25.7249 21.8279 26.0655C22.4034 26.412 22.6475 26.8214 22.6475 27.1802Z" stroke="#4852F4"/>
<path d="M39.5273 10.0894L29.0393 16.1376C29.0393 16.1376 25.6393 17.8618 27.3317 20.5213C28.7587 22.7638 32.141 21.2246 33.1666 20.6867" stroke="#12B1D6" stroke-linecap="round"/>
<path d="M39.7705 18.7167C39.7705 19.2417 39.4145 19.8016 38.658 20.257C37.9112 20.7065 36.8473 21.0008 35.6455 21.0008C34.4437 21.0008 33.3798 20.7065 32.633 20.257C31.8765 19.8016 31.5205 19.2417 31.5205 18.7167C31.5205 18.1917 31.8765 17.6318 32.633 17.1764C33.3798 16.7269 34.4437 16.4326 35.6455 16.4326C36.8473 16.4326 37.9112 16.7269 38.658 17.1764C39.4145 17.6318 39.7705 18.1917 39.7705 18.7167Z" stroke="#4852F4"/>
<path d="M27.5426 12.3756C24.845 12.1431 22.3743 13.5361 21.2225 14.0637C20.0706 14.5912 18.954 15.4556 18.3036 16.7565C17.6531 18.0575 15.7 19.9842 13.9452 20.3381C12.1904 20.692 9.00543 19.9001 10.1913 16.7565C11.3772 13.613 16.7693 11.7356 21.9291 10.3388C25.9068 9.26198 28.4108 8.56172 30.1782 8.70126C31.9457 8.84079 34.3332 9.22636 33.9612 11.1663C33.5891 13.1063 30.2403 12.6082 27.5426 12.3756Z" stroke="#FEC338"/>
<path d="M16.6627 9.7743C17.9297 9.27685 19.1489 8.7982 21.67 8.83273C22.5843 8.84525 23.6987 8.26816 23.9935 9.1178C24.2119 9.74743 23.1603 10.8441 22.013 11.3661C20.8657 11.888 19.3289 12.3486 17.7862 12.5746C16.2434 12.8006 15.3132 12.5293 15.0737 11.8591C14.8459 11.2218 15.3788 10.2784 16.6503 9.77917L16.6627 9.7743Z" stroke="#F9FB15"/>
<path d="M17.9712 6.1711C18.9195 5.73299 19.5205 5.25065 20.5464 5.44773C21.1667 5.56691 21.8059 5.5678 21.9931 6.1711C22.1938 6.81765 21.5551 7.18063 21.0383 7.61786C20.0623 8.44357 19.0514 8.52589 18.2771 8.43822C17.5027 8.35056 16.4639 8.12421 16.5385 7.48855C16.6116 6.86489 17.4011 6.43446 17.9712 6.1711Z" stroke="#F9FB15"/>

</svg>
