<svg width="50" height="40" viewBox="0 0 50 40" fill="none" xmlns="http://www.w3.org/2000/svg">
<rect x="0.5" y="0.5" width="48" height="38" rx="1" fill="var(--mw-icon-background-default-white, white)"/>
<path d="M43.6789 24.7916C36.5656 27.8901 36.5 20 36.1791 15.9641C36 14.5 35 13.5 34.09 13.5H24.334C24.334 13.5 16.5 13.5 16.5 8.63018C16.5 2.92354 23.2895 2.5 23.2895 2.5H31.1444C39.3023 2.5 40.5453 12.5312 40.5453 12.5312C40.5453 12.5312 51.5129 21.3809 43.6789 24.7916Z" stroke="#EDB120"/>
<path d="M33.5 8C33.5 10.07 30.875 11.5 26.5 11.5C22.125 11.5 19.5 10.57 19.5 8.5C19.5 6.43 22.125 4.5 26.5 4.5C30.875 4.5 33.5 5.93 33.5 8Z" stroke="#D95319"/>
<path d="M26 9.5C28.4853 9.5 30.5 8.82843 30.5 8C30.5 7.17157 28.4853 6.5 26 6.5C23.5147 6.5 21.5 7.17157 21.5 8C21.5 8.82843 23.5147 9.5 26 9.5Z" stroke="#F57729"/>
<path d="M0.5 8.5L18.6818 14.8636C18.6818 14.8636 20.5 15.5 20.5 17C20.5 17.9835 20.181 18.6223 19.5909 19.4091C19.5909 19.4091 13.8545 26.6818 0.5 28.5" stroke="#35D2FA"/>
<path d="M14.0387 21.9125C16.0776 20.9017 17.0931 18.7968 16.3069 17.211C15.5208 15.6252 13.2306 15.159 11.1917 16.1698C9.15284 17.1806 8.13731 19.2855 8.92347 20.8713C9.70964 22.4571 11.9998 22.9233 14.0387 21.9125Z" stroke="var(--mw-icon-borderColor-light-blue, #268CDD)"/>
<path d="M19.6317 23.5329C20 24.5 20.7086 24.3717 23.1058 24.3717C25.5029 24.3717 27.8826 21.3855 27.4484 20.1776C26.8838 18.609 26.3714 18.5 23.9743 18.5C21.5772 18.5 18.8674 22.065 19.6317 23.5329Z" stroke="#EDB120"/>
<path d="M35.4955 31.2662C35.3225 28.5289 30.7051 26.1387 25.1861 26.5453C19.667 26.952 15.332 30.0166 15.505 32.7341C15.678 35.4516 20.2863 37.8616 25.8053 37.455C31.3244 37.0483 35.6594 33.9837 35.4955 31.2662Z" stroke="var(--mw-icon-borderColor-light-blue, #268CDD)"/>
<path d="M32.4953 31.0256C32.3654 29.1258 29.587 28.2891 25.7293 28.545C21.8715 28.8009 18.3736 30.0413 18.5035 32.01C18.6334 33.9788 22.3413 35.731 26.199 35.4751C30.0567 35.2191 32.6252 32.9944 32.4953 31.0256Z" stroke="var(--mw-icon-borderColor-light-blue, #268CDD)"/>
<path d="M28.4987 31.3245C28.4415 30.5273 27.0541 30.4396 25.4055 30.5273C23.7569 30.615 22.5 30.9339 22.5 31.7391C22.5 32.5442 23.9364 33.5965 25.585 33.4929C27.2336 33.3893 28.5476 32.1217 28.4987 31.3245Z" stroke="var(--mw-icon-borderColor-light-blue, #268CDD)"/>
<path d="M8.49989 38.5001C8.49989 38.5001 8.06931 34.6252 9.87753 32.6291C11.6858 30.633 21 26.0001 25.5 26.0001C34 25.5 39.0111 28.9556 48.4999 34.3065" stroke="#35D2FA"/>
<rect x="0.5" y="0.5" width="48" height="38" rx="1" stroke="var(--mw-icon-border-default-gray, #616161)"/>

</svg>
