<svg width="50" height="40" viewBox="0 0 50 40" fill="none" xmlns="http://www.w3.org/2000/svg">
<path d="M0.5 1.5C0.5 0.947716 0.947715 0.5 1.5 0.5H47.5C48.0523 0.5 48.5 0.947715 48.5 1.5V37.5C48.5 38.0523 48.0523 38.5 47.5 38.5H1.5C0.947714 38.5 0.5 38.0523 0.5 37.5V1.5Z" fill="#4DBEEE"/>
<path d="M32.2447 12.2074C32.4887 12.2072 32.7302 12.2571 32.9547 12.3543C33.1792 12.4514 33.3821 12.5936 33.5512 12.7725C33.7203 12.9514 33.8521 13.1632 33.9388 13.3952C34.0254 13.6272 34.065 13.8746 34.0552 14.1225C33.9104 17.5108 34.3902 23.9744 40.555 21.4148C47.3445 18.5973 37.8392 11.2866 37.8392 11.2866C37.8392 11.2866 36.762 3 29.6918 3H22.8842C22.8842 3 17 3.34988 17 8.06406C17 12.7782 23.7895 12.2074 23.7895 12.2074H32.2447Z" fill="var(--mw-icon-background-medium-blue, #83CAFF)"/>
<path d="M33 7.5C33 9.57 30.375 11 26 11C21.625 11 19 10.07 19 8C19 5.93 21.625 4 26 4C30.375 4 33 5.43 33 7.5Z" fill="#D95319"/>
<path d="M25.5 9C27.9853 9 30 8.32843 30 7.5C30 6.67157 27.9853 6 25.5 6C23.0147 6 21 6.67157 21 7.5C21 8.32843 23.0147 9 25.5 9Z" fill="#FE9043"/>
<path d="M1 8L19.1818 14.3636C19.1818 14.3636 21 15 21 16.1818C21 17.1653 20.681 18.1223 20.0909 18.9091C20.0909 18.9091 14.3545 26.1818 1 28" fill="var(--mw-icon-glyph-content-light-blue, #278CDD)"/>
<path d="M15.5326 20.9731C17.5715 19.9623 18.587 17.8573 17.8008 16.2715C17.0147 14.6857 14.7245 14.2196 12.6856 15.2304C10.6467 16.2411 9.63121 18.3461 10.4174 19.9319C11.2035 21.5177 13.4937 21.9838 15.5326 20.9731Z" fill="var(--mw-icon-glyph-content-dark-blue, #104280)"/>
<path d="M17.1481 26.8717C17.9884 28.5647 18.3597 27.8504 21.0565 27.8504C23.7532 27.8504 26.4305 24.3665 25.9419 22.9572C25.3068 21.1272 24.7303 21 22.0336 21C19.3368 21 16.2883 25.1591 17.1481 26.8717Z" fill="var(--mw-icon-background-medium-blue, #83CAFF)"/>
<path d="M40.9955 30.3329C40.8225 27.8445 36.2051 25.6715 30.6861 26.0412C25.167 26.4109 20.832 29.1969 21.005 31.6673C21.178 34.1378 25.7863 36.3287 31.3053 35.9591C36.8244 35.5894 41.1594 32.8034 40.9955 30.3329Z" fill="var(--mw-icon-glyph-content-light-blue, #278CDD)"/>
<path d="M36.996 30.1648C36.8846 28.5364 34.5031 27.8192 31.1965 28.0386C27.8899 28.258 24.8916 29.3211 25.003 31.0086C25.1144 32.6961 28.2925 34.198 31.5991 33.9786C34.9058 33.7592 37.1073 31.8524 36.996 30.1648Z" fill="var(--mw-icon-glyph-content-dark-blue, #104280)"/>
<path d="M33.9987 30.0994C33.9415 29.0364 32.5541 28.9195 30.9055 29.0364C29.2569 29.1534 28 29.5785 28 30.6521C28 31.7257 29.4364 33.1287 31.085 32.9905C32.7336 32.8524 34.0476 31.1623 33.9987 30.0994Z" fill="#141A33"/>
<rect x="0.5" y="0.5" width="48" height="38" rx="1" stroke="var(--mw-icon-border-default-gray, #616161)"/>

</svg>
