<svg width="50" height="40" viewBox="0 0 50 40" fill="none" xmlns="http://www.w3.org/2000/svg">
<rect x="0.5" y="0.5" width="48" height="38" rx="1" fill="var(--mw-icon-background-default-white, #FFFFFF)"/>
<path d="M3 8H7V19H3V8Z" fill="var(--mw-icon-glyph-content-light-blue, #278CDD)"/>
<path d="M42 27H46V38H42V27Z" fill="var(--mw-icon-glyph-content-light-blue, #278CDD)"/>
<path d="M8 4H12V19H8V4Z" fill="var(--mw-icon-glyph-content-light-blue, #278CDD)"/>
<path d="M37 23H41V38H37V23Z" fill="var(--mw-icon-glyph-content-light-blue, #278CDD)"/>
<path d="M13 7H17V20H13V7Z" fill="var(--mw-icon-glyph-content-light-blue, #278CDD)"/>
<path d="M32 26H36V39H32V26Z" fill="var(--mw-icon-glyph-content-light-blue, #278CDD)"/>
<path d="M18 12H22V19H18V12Z" fill="var(--mw-icon-glyph-content-light-blue, #278CDD)"/>
<path d="M27 31H31V38H27V31Z" fill="var(--mw-icon-glyph-content-light-blue, #278CDD)"/>
<path d="M1 38L24.5001 19.5001M24.5 0.5L48.5 19.5" stroke="#FF6929"/>
<path d="M1 19.5H48.0204M24.5 0.5L24.5 38.5" stroke="var(--mw-icon-glyph-content-gray, #616162)"/>
<path d="M4 33C4 33.5523 3.55228 34 3 34C2.44772 34 2 33.5523 2 33C2 32.4477 2.44772 32 3 32C3.55228 32 4 32.4477 4 33Z" fill="var(--mw-icon-glyph-content-light-blue, #278CDD)"/>
<path d="M8 34C8 34.5523 7.55228 35 7 35C6.44772 35 6 34.5523 6 34C6 33.4477 6.44772 33 7 33C7.55228 33 8 33.4477 8 34Z" fill="var(--mw-icon-glyph-content-light-blue, #278CDD)"/>
<path d="M8 31C8 31.5523 7.55228 32 7 32C6.44772 32 6 31.5523 6 31C6 30.4477 6.44772 30 7 30C7.55228 30 8 30.4477 8 31Z" fill="var(--mw-icon-glyph-content-light-blue, #278CDD)"/>
<path d="M10 29C10 29.5523 9.55228 30 9 30C8.44772 30 8 29.5523 8 29C8 28.4477 8.44772 28 9 28C9.55228 28 10 28.4477 10 29Z" fill="var(--mw-icon-glyph-content-light-blue, #278CDD)"/>
<path d="M12 32C12 32.5523 11.5523 33 11 33C10.4477 33 10 32.5523 10 32C10 31.4477 10.4477 31 11 31C11.5523 31 12 31.4477 12 32Z" fill="var(--mw-icon-glyph-content-light-blue, #278CDD)"/>
<path d="M12 35C12 35.5523 11.5523 36 11 36C10.4477 36 10 35.5523 10 35C10 34.4477 10.4477 34 11 34C11.5523 34 12 34.4477 12 35Z" fill="var(--mw-icon-glyph-content-light-blue, #278CDD)"/>
<path d="M15 33C15 33.5523 14.5523 34 14 34C13.4477 34 13 33.5523 13 33C13 32.4477 13.4477 32 14 32C14.5523 32 15 32.4477 15 33Z" fill="var(--mw-icon-glyph-content-light-blue, #278CDD)"/>
<path d="M19 32C19 32.5523 18.5523 33 18 33C17.4477 33 17 32.5523 17 32C17 31.4477 17.4477 31 18 31C18.5523 31 19 31.4477 19 32Z" fill="var(--mw-icon-glyph-content-light-blue, #278CDD)"/>
<path d="M21 34C21 34.5523 20.5523 35 20 35C19.4477 35 19 34.5523 19 34C19 33.4477 19.4477 33 20 33C20.5523 33 21 33.4477 21 34Z" fill="var(--mw-icon-glyph-content-light-blue, #278CDD)"/>
<path d="M29 4C29 4.55228 28.5523 5 28 5C27.4477 5 27 4.55228 27 4C27 3.44772 27.4477 3 28 3C28.5523 3 29 3.44772 29 4Z" fill="var(--mw-icon-glyph-content-light-blue, #278CDD)"/>
<path d="M29 6.5C29 7.05228 28.5523 7.5 28 7.5C27.4477 7.5 27 7.05228 27 6.5C27 5.94772 27.4477 5.5 28 5.5C28.5523 5.5 29 5.94772 29 6.5Z" fill="var(--mw-icon-glyph-content-light-blue, #278CDD)"/>
<path d="M35 7C35 7.55228 34.5523 8 34 8C33.4477 8 33 7.55228 33 7C33 6.44772 33.4477 6 34 6C34.5523 6 35 6.44772 35 7Z" fill="var(--mw-icon-glyph-content-light-blue, #278CDD)"/>
<path d="M38 9C38 9.55228 37.5523 10 37 10C36.4477 10 36 9.55228 36 9C36 8.44772 36.4477 8 37 8C37.5523 8 38 8.44772 38 9Z" fill="var(--mw-icon-glyph-content-light-blue, #278CDD)"/>
<path d="M40 10C40 10.5523 39.5523 11 39 11C38.4477 11 38 10.5523 38 10C38 9.44772 38.4477 9 39 9C39.5523 9 40 9.44772 40 10Z" fill="var(--mw-icon-glyph-content-light-blue, #278CDD)"/>
<path d="M42 15C42 15.5523 41.5523 16 41 16C40.4477 16 40 15.5523 40 15C40 14.4477 40.4477 14 41 14C41.5523 14 42 14.4477 42 15Z" fill="var(--mw-icon-glyph-content-light-blue, #278CDD)"/>
<path d="M45 14C45 14.5523 44.5523 15 44 15C43.4477 15 43 14.5523 43 14C43 13.4477 43.4477 13 44 13C44.5523 13 45 13.4477 45 14Z" fill="var(--mw-icon-glyph-content-light-blue, #278CDD)"/>
<path d="M35 4C35 4.55228 34.5523 5 34 5C33.4477 5 33 4.55228 33 4C33 3.44772 33.4477 3 34 3C34.5523 3 35 3.44772 35 4Z" fill="var(--mw-icon-glyph-content-light-blue, #278CDD)"/>
<path d="M38 6C38 6.55228 37.5523 7 37 7C36.4477 7 36 6.55228 36 6C36 5.44772 36.4477 5 37 5C37.5523 5 38 5.44772 38 6Z" fill="var(--mw-icon-glyph-content-light-blue, #278CDD)"/>
<path d="M42 7C42 7.55228 41.5523 8 41 8C40.4477 8 40 7.55228 40 7C40 6.44772 40.4477 6 41 6C41.5523 6 42 6.44772 42 7Z" fill="var(--mw-icon-glyph-content-light-blue, #278CDD)"/>
<path d="M32 6.5C32 7.05228 31.5523 7.5 31 7.5C30.4477 7.5 30 7.05228 30 6.5C30 5.94772 30.4477 5.5 31 5.5C31.5523 5.5 32 5.94772 32 6.5Z" fill="var(--mw-icon-glyph-content-light-blue, #278CDD)"/>
<path d="M34 10C34 10.5523 33.5523 11 33 11C32.4477 11 32 10.5523 32 10C32 9.44772 32.4477 9 33 9C33.5523 9 34 9.44772 34 10Z" fill="var(--mw-icon-glyph-content-light-blue, #278CDD)"/>
<path d="M36 13C36 13.5523 35.5523 14 35 14C34.4477 14 34 13.5523 34 13C34 12.4477 34.4477 12 35 12C35.5523 12 36 12.4477 36 13Z" fill="var(--mw-icon-glyph-content-light-blue, #278CDD)"/>
<path d="M16 29C16 29.5523 15.5523 30 15 30C14.4477 30 14 29.5523 14 29C14 28.4477 14.4477 28 15 28C15.5523 28 16 28.4477 16 29Z" fill="var(--mw-icon-glyph-content-light-blue, #278CDD)"/>
<path d="M14 28C14 28.5523 13.5523 29 13 29C12.4477 29 12 28.5523 12 28C12 27.4477 12.4477 27 13 27C13.5523 27 14 27.4477 14 28Z" fill="var(--mw-icon-glyph-content-light-blue, #278CDD)"/>
<path d="M14 25C14 25.5523 13.5523 26 13 26C12.4477 26 12 25.5523 12 25C12 24.4477 12.4477 24 13 24C13.5523 24 14 24.4477 14 25Z" fill="var(--mw-icon-glyph-content-light-blue, #278CDD)"/>
<path d="M19 26C19 26.5523 18.5523 27 18 27C17.4477 27 17 26.5523 17 26C17 25.4477 17.4477 25 18 25C18.5523 25 19 25.4477 19 26Z" fill="var(--mw-icon-glyph-content-light-blue, #278CDD)"/>
<path d="M22 25C22 25.5523 21.5523 26 21 26C20.4477 26 20 25.5523 20 25C20 24.4477 20.4477 24 21 24C21.5523 24 22 24.4477 22 25Z" fill="var(--mw-icon-glyph-content-light-blue, #278CDD)"/>
<path d="M21 22C21 22.5523 20.5523 23 20 23C19.4477 23 19 22.5523 19 22C19 21.4477 19.4477 21 20 21C20.5523 21 21 21.4477 21 22Z" fill="var(--mw-icon-glyph-content-light-blue, #278CDD)"/>
<rect x="0.5" y="0.5" width="48" height="38" rx="1" stroke="var(--mw-icon-border-default-gray, #616161)"/>
</svg>
