<svg width="50" height="40" viewBox="0 0 50 40" fill="none" xmlns="http://www.w3.org/2000/svg">
<rect x="0.5" y="0.5" width="48" height="38" rx="1" fill="var(--mw-icon-background-default-white, #FFFFFF)"/>
<rect x="0.5" y="0.5" width="48" height="38" rx="1" stroke="var(--mw-icon-border-default-gray, #616161)"/>
<path d="M42 14.4676C42 19.6964 37.8349 23.9352 32.697 23.9352C27.559 23.9352 23.3939 19.6964 23.3939 14.4676C23.3939 9.2388 27.559 5 32.697 5C37.8349 5 42 9.2388 42 14.4676Z" fill="#FFD60A"/>
<path d="M23.3939 14.4676C23.3939 19.6964 27.559 23.9352 32.697 23.9352C36.431 23.9352 39.6511 21.6964 41.1322 18.4659C36.0996 12.2773 36.2717 9.71375 34.6269 5.20399C34.0042 5.07031 33.3587 5 32.697 5C27.559 5 23.3939 9.2388 23.3939 14.4676Z" fill="#ABC739"/>
<path d="M23.3939 14.4676C23.3939 19.6964 27.559 23.9352 32.697 23.9352C36.1434 23.9352 39.1522 22.0279 40.7597 19.1939C33.9703 13.9015 34.7956 9.67702 33.761 5.06125C33.4118 5.02079 33.0568 5 32.697 5C27.559 5 23.3939 9.2388 23.3939 14.4676Z" fill="#37C897"/>
<path d="M23.3939 14.4676C23.3939 19.6964 27.559 23.9352 32.697 23.9352C35.6785 23.9352 38.3324 22.5079 40.035 20.2879C32.6175 16.4996 32.0523 8.5175 32.697 5C27.559 5 23.3939 9.2388 23.3939 14.4676Z" fill="#12B1D6"/>
<path d="M23.3939 14.4676C23.3939 19.6964 27.559 23.9352 32.697 23.9352C34.9339 23.9352 36.9864 23.1317 38.5911 21.7928C31.6534 17.1565 30.3866 8.82358 30.6204 5.23664C26.4821 6.19679 23.3939 9.96522 23.3939 14.4676Z" fill="#2E87F7"/>
<path d="M23.3939 14.4676C23.3939 19.6964 27.559 23.9352 32.697 23.9352C34.1896 23.9352 35.6 23.5775 36.8502 22.9417C30.4469 18.498 28.4069 12.8109 28.8312 5.85356C25.6229 7.34714 23.3939 10.6425 23.3939 14.4676Z" fill="#4852F4"/>
<path d="M23.3939 14.4676C23.3939 19.6964 27.559 23.9352 32.697 23.9352C33.4455 23.9352 34.1733 23.8452 34.8706 23.6753C28.2586 19.4333 26.3669 13.4095 26.5691 7.34382C24.6228 9.07916 23.3939 11.6274 23.3939 14.4676Z" fill="#3E26A8"/>
<path d="M42 14.4676C42 9.9337 38.8685 6.14435 34.6865 5.21718C36.2023 6.63934 40.9529 11.8126 41.1561 18.4139C41.698 17.2127 42 15.8759 42 14.4676Z" fill="#EDB120"/>
<path d="M42 14.4676C42 10.2132 39.2427 6.61439 35.4475 5.42075C37.0584 6.88402 40.5474 10.9123 41.7793 16.5275C41.9239 15.8644 42 15.175 42 14.4676Z" fill="#B3882A"/>
<path d="M42 14.4676C42 10.305 39.3603 6.76989 35.6915 5.50129C36.9117 6.02521 40.6019 10.2061 41.8512 16.164C41.949 15.6137 42 15.0466 42 14.4676Z" fill="#8B6606"/>
<path d="M36.9138 6.02627C39.9325 7.59112 42 10.7836 42 14.4676C41.3049 10.8701 38.7935 7.97351 36.9138 6.02627Z" fill="#674C06"/>
<path d="M25.9024 26.8566C23.0351 31.2028 17.2842 32.3068 13.0573 29.3225C8.83051 26.3382 7.72837 20.3957 10.5957 16.0495C13.4629 11.7033 19.2139 10.5993 23.4407 13.5836C27.6675 16.5679 28.7697 22.5104 25.9024 26.8566Z" fill="#FFD60A"/>
<path d="M26.3551 25.906C28.0558 21.6104 27.4046 16.4224 23.1935 13.4413C20.9078 11.8232 18.0293 11.5795 15.7047 12.2633C19.435 14.3361 24.1461 30.0002 19.8355 30.8516C22.9468 30.3748 25.7478 27.6186 26.3551 25.906Z" fill="#ABC739"/>
<path d="M25.8429 26.9353C28.7094 22.5795 27.6716 16.6501 23.4605 13.6689C21.7998 12.4932 19.8583 11.9573 17.9924 12.0032C19.9268 14.2457 23.6666 20.8155 23.2887 29.4638C24.2587 28.8009 25.1479 27.9914 25.8429 26.9353Z" fill="#37C897"/>
<path d="M25.8953 26.8532C28.7618 22.4974 27.6717 16.5496 23.4606 13.5684C22.1048 12.6086 20.5908 12.0733 19.0653 11.9341C20.759 14.657 24.3483 21.6491 25.1555 27.8347C25.419 27.5285 25.6663 27.2012 25.8953 26.8532Z" fill="#12B1D6"/>
<path d="M23.4606 13.5684C22.3053 12.7505 21.035 12.2408 19.7406 12.0219C21.66 14.0304 25.7005 19.5942 26.5069 25.781C28.5676 21.5659 27.3353 16.3114 23.4606 13.5684Z" fill="#2E87F7"/>
<path d="M21.0482 12.3467C21.8849 12.6231 22.698 13.0285 23.4606 13.5684C25.6485 15.1173 26.9936 17.4669 27.3795 19.9778C27.5211 20.8993 27.5335 21.8426 27.4109 22.7759C26.6915 18.7412 22.8694 14.142 21.0482 12.3467Z" fill="#4852F4"/>
<path d="M23.4606 13.5684C25.6485 15.1173 26.9936 17.4669 27.3795 19.9778C26.3929 18.1569 24.356 14.9461 23.4606 13.5684Z" fill="#3E26A8"/>
<path d="M13.0573 29.3225C17.2842 32.3068 23.0351 31.2028 25.9024 26.8566C18.4937 29.7393 11.9622 26.717 9.62249 24.8455C10.2771 26.6013 11.4378 28.1791 13.0573 29.3225Z" fill="#EDB120"/>
<path d="M13.0573 29.3225C17.2842 32.3068 23.0351 31.2028 25.9024 26.8566C20.736 30.5101 13.2846 28.2844 9.62249 24.8455C10.2771 26.6013 11.4378 28.1791 13.0573 29.3225Z" fill="#B3882A"/>
<path d="M13.0295 29.3225C17.2563 32.3068 23.0073 31.2028 25.8745 26.8566C19.3425 32.1695 13.2266 28.6944 9.59541 24.8476C10.2501 26.6026 11.4106 28.1795 13.0295 29.3225Z" fill="#8B6606"/>
<path d="M10.6519 26.8566C11.2824 27.7976 12.0877 28.6379 13.0573 29.3225C16.5481 31.7871 21.0783 31.4633 24.1653 28.8277C18.3636 32.0118 12.739 28.8404 10.6519 26.8566Z" fill="#745A26"/>
</svg>
