<svg width="50" height="40" viewBox="0 0 50 40" fill="none" xmlns="http://www.w3.org/2000/svg">
<rect x="0.5" y="0.5" width="48" height="38" rx="1" fill="var(--mw-icon-object-secondary, #FFFFFE)" stroke="var(--mw-icon-border-default-gray, #616161)"/>
<path d="M15.2801 20.312H17.058C17.0223 20.8357 16.8618 21.3006 16.5763 21.7067C16.2949 22.1129 15.9005 22.43 15.3931 22.658C14.8896 22.886 14.2831 23 13.5736 23C13.0186 23 12.5211 22.9145 12.0811 22.7435C11.6411 22.5689 11.2645 22.3195 10.9514 21.9953C10.6422 21.6711 10.4063 21.2792 10.2438 20.8196C10.0813 20.3601 10 19.8452 10 19.2752V18.7355C10 18.1654 10.0832 17.6506 10.2497 17.191C10.4202 16.7279 10.662 16.3342 10.9752 16.01C11.2923 15.6858 11.6708 15.4364 12.1109 15.2619C12.5509 15.0873 13.0424 15 13.5855 15C14.3069 15 14.9154 15.1176 15.4109 15.3527C15.9104 15.5878 16.2969 15.912 16.5704 16.3253C16.8479 16.7386 17.0144 17.2089 17.0699 17.7361H15.286C15.2662 17.4226 15.1969 17.1572 15.0779 16.9399C14.959 16.719 14.7787 16.5533 14.5368 16.4429C14.299 16.3289 13.9819 16.2719 13.5855 16.2719C13.2882 16.2719 13.0285 16.3218 12.8065 16.4215C12.5846 16.5213 12.3982 16.6727 12.2476 16.8758C12.097 17.0788 11.984 17.3353 11.9087 17.6453C11.8373 17.9517 11.8017 18.3115 11.8017 18.7248V19.2752C11.8017 19.6778 11.8354 20.0323 11.9027 20.3387C11.9701 20.6415 12.0732 20.898 12.2119 21.1082C12.3546 21.3149 12.537 21.4716 12.759 21.5785C12.9849 21.6818 13.2565 21.7335 13.5736 21.7335C13.9462 21.7335 14.2534 21.68 14.4952 21.5731C14.737 21.4663 14.9214 21.3077 15.0482 21.0975C15.179 20.8873 15.2563 20.6255 15.2801 20.312Z" fill="var(--mw-icon-object-primary, #616160)"/>
<path d="M21.9219 15.1122V22.8931H20.144V15.1122H21.9219ZM24.5857 15.1122V16.3681H17.5218V15.1122H24.5857Z" fill="var(--mw-icon-object-primary, #616160)"/>
<path d="M31.168 21.6426V22.8931H26.8095V21.6426H31.168ZM27.3863 15.1122V22.8931H25.6025V15.1122H27.3863Z" fill="var(--mw-icon-object-primary, #616160)"/>
<path d="M38 21.6426V22.8931H33.3918V21.6426H38ZM33.9745 15.1122V22.8931H32.1907V15.1122H33.9745ZM37.3994 18.2812V19.4997H33.3918V18.2812H37.3994ZM37.9941 15.1122V16.3681H33.3918V15.1122H37.9941Z" fill="var(--mw-icon-object-primary, #616160)"/>
</svg>
