<svg width="50" height="40" viewBox="0 0 50 40" fill="none" xmlns="http://www.w3.org/2000/svg">
<rect x="0.5" y="0.5" width="48" height="38" rx="1" fill="var(--mw-icon-background-default-white, #FFFFFF)"/>
<rect x="0.5" y="0.5" width="48" height="38" rx="1" stroke="var(--mw-icon-border-default-gray, #616161)"/>
<path d="M25.7897 4.02484C31.6311 4.19687 33.2 14.4392 30.9214 15.9706C30.9214 15.9706 30.4388 17.1073 30.4817 17.8659C30.5162 18.4769 30.9214 19.3699 30.9214 19.3699C34.2452 21.4205 32.3001 32.007 25.2766 32.007C17.7941 32.007 14.4999 24.6897 14.5 17.5646C14.5001 10.2279 17.6182 3.7842 25.7897 4.02484Z" fill="#37C897"/>
<path d="M31.7631 11.0385C32.1389 13.2813 31.8488 15.3472 30.9215 15.9705C30.9215 15.9705 30.4816 17.2021 30.4816 17.8658C30.4816 18.5296 30.9215 19.3698 30.9215 19.3698C32.3131 20.2283 32.7811 22.5831 32.3394 25.0308C27.4741 25.8322 16.7615 25.4946 16.7615 18.0357C16.7615 11.4458 27.8213 11.7426 31.7631 11.0385Z" fill="#12B1D6"/>
<path d="M31.7631 11.0385C32.1389 13.2813 31.8488 15.3472 30.9215 15.9705C30.9215 15.9705 30.4388 17.1072 30.4817 17.8658C30.5162 18.4768 30.9215 19.3698 30.9215 19.3698C32.3131 20.2283 32.7811 22.5831 32.3395 25.0308C27.4742 25.8322 18.9163 22.8 19.1308 18.3864C19.3024 14.8555 27.8213 11.7426 31.7631 11.0385Z" fill="#2E87F7"/>
<path d="M31.763 11.0385C32.1388 13.2813 31.8487 15.3472 30.9214 15.9705C30.9214 15.9705 30.4817 17.366 30.4817 17.8658C30.4817 18.3656 30.9214 19.3698 30.9214 19.3698C32.313 20.2283 32.781 22.5831 32.3394 25.0308C27.4719 23.6413 24.252 22.7181 24.4665 18.3045C24.6381 14.7736 26.8214 13.0421 31.763 11.0385Z" fill="#4852F4"/>
<path d="M31.7629 11.0385C32.1387 13.2813 29.0646 15.6243 28.1373 16.2476C28.1373 16.2476 27.0861 16.6175 27.0861 18.0587C27.0861 18.9934 28.1373 19.7951 28.1373 19.7951C29.5289 20.6536 32.7809 22.5831 32.3393 25.0308C27.4719 23.6413 24.2519 22.7181 24.4664 18.3045C24.638 14.7736 26.8213 13.0421 31.7629 11.0385Z" fill="#3E26A8"/>
<path d="M25.2765 32.007C19.4738 32.007 16.19 27.6063 15.0081 22.3073C16.5217 24.6416 22.11 28.4378 32.3539 24.9482C31.7645 28.3711 29.3926 32.007 25.2765 32.007Z" fill="#ABC739"/>
<path d="M14.5908 15.4478C15.1567 9.03401 18.4155 3.80768 25.7897 4.02484C29.1938 4.12509 31.1469 7.64531 31.7332 10.8685C30.3192 12.6273 25.2765 14.7073 20.3086 13.8199C16.3343 13.1099 14.8408 14.6093 14.5908 15.4478Z" fill="#ABC739"/>
<path d="M14.7063 14.4199C15.5206 8.48551 18.8137 3.8194 25.7897 4.02484C28.4936 4.10447 30.2821 6.34185 31.1973 8.87419C23.9753 14.931 15.7455 6.84695 14.7063 14.4199Z" fill="#FEC338"/>
<path d="M25.2766 32.007C20.6986 32.007 17.2369 29.0863 15.629 24.5045C19.2724 28.2252 27.9881 29.3022 31.9958 26.4716C30.3159 30.9334 27.462 32.007 25.2766 32.007Z" fill="#EDB120"/>
<path d="M25.2765 32.0069C21.3044 32.0069 18.1726 29.8081 16.363 26.2333C18.4366 27.9984 24.2995 30.8761 31.1625 28.266C29.4708 31.2326 27.1326 32.0069 25.2765 32.0069Z" fill="#B3882A"/>
<path d="M25.2766 32.0069C21.8644 32.0069 19.0724 30.3844 17.2059 27.6609C18.9704 29.2655 24.0342 31.9169 30.1731 29.6862C28.6291 31.4907 26.7921 32.0069 25.2766 32.0069Z" fill="#8B6606"/>
<path d="M25.2766 32.0069C22.4534 32.0069 20.0548 30.8961 18.2537 28.9701C19.3817 30.0741 23.1522 31.9508 29.2094 30.6261C27.9021 31.6776 26.4869 32.0069 25.2766 32.0069Z" fill="#745A26"/>
<path d="M24.7352 4.01832C20.1665 4.31018 17.2431 6.68107 15.7626 10.3983C17.1502 8.56572 21.8253 5.25291 29.9436 6.45243C28.9074 5.04535 27.5946 3.83565 24.7352 4.01832Z" fill="#F9FB15"/>
</svg>
