<svg width="50" height="40" viewBox="0 0 50 40" fill="none" xmlns="http://www.w3.org/2000/svg">
<rect x="0.5" y="0.5" width="48" height="38" rx="1" fill="var(--mw-icon-background-default-white, #FFFFFF)"/>
<rect x="0.5" y="0.5" width="48" height="38" rx="1" stroke="var(--mw-icon-border-default-gray, #616161)"/>
<path d="M30 8C30 7.44772 30.4477 7 31 7C31.5523 7 32 7.44772 32 8C32 8.55228 31.5523 9 31 9C30.4477 9 30 8.55228 30 8Z" fill="#0072BD"/>
<path d="M33 9C33 8.44772 33.4477 8 34 8V10C33.4477 10 33 9.55228 33 9Z" fill="#0072BD"/>
<path d="M27 7C27 6.44772 27.4477 6 28 6C28.5523 6 29 6.44772 29 7C29 7.55228 28.5523 8 28 8C27.4477 8 27 7.55228 27 7Z" fill="#0072BD"/>
<path d="M24 7C24 6.44772 24.4477 6 25 6C25.5523 6 26 6.44772 26 7C26 7.55228 25.5523 8 25 8C24.4477 8 24 7.55228 24 7Z" fill="#0072BD"/>
<path d="M21 7C21 6.44772 21.4477 6 22 6C22.5523 6 23 6.44772 23 7C23 7.55228 22.5523 8 22 8C21.4477 8 21 7.55228 21 7Z" fill="#0072BD"/>
<path d="M18 8C18 7.44772 18.4477 7 19 7C19.5523 7 20 7.44772 20 8C20 8.55228 19.5523 9 19 9C18.4477 9 18 8.55228 18 8Z" fill="#0072BD"/>
<path d="M17 9C17 8.44772 16.5523 8 16 8L16 10C16.5523 10 17 9.55228 17 9Z" fill="#0072BD"/>
<path d="M20.0159 10.9941C20.0159 11.5464 19.5682 11.9941 19.0159 11.9941C18.4636 11.9941 18.0159 11.5464 18.0159 10.9941C18.0159 10.4419 18.4636 9.99414 19.0159 9.99414C19.5682 9.99414 20.0159 10.4419 20.0159 10.9941Z" fill="#0072BD"/>
<path d="M23.0159 11.9941C23.0159 12.5464 22.5682 12.9941 22.0159 12.9941C21.4636 12.9941 21.0159 12.5464 21.0159 11.9941C21.0159 11.4419 21.4636 10.9941 22.0159 10.9941C22.5682 10.9941 23.0159 11.4419 23.0159 11.9941Z" fill="#0072BD"/>
<path d="M26.0159 11.9941C26.0159 12.5464 25.5682 12.9941 25.0159 12.9941C24.4636 12.9941 24.0159 12.5464 24.0159 11.9941C24.0159 11.4419 24.4636 10.9941 25.0159 10.9941C25.5682 10.9941 26.0159 11.4419 26.0159 11.9941Z" fill="#0072BD"/>
<path d="M29.0159 11.9941C29.0159 12.5464 28.5682 12.9941 28.0159 12.9941C27.4636 12.9941 27.0159 12.5464 27.0159 11.9941C27.0159 11.4419 27.4636 10.9941 28.0159 10.9941C28.5682 10.9941 29.0159 11.4419 29.0159 11.9941Z" fill="#0072BD"/>
<path d="M32.0159 10.9941C32.0159 11.5464 31.5682 11.9941 31.0159 11.9941C30.4636 11.9941 30.0159 11.5464 30.0159 10.9941C30.0159 10.4419 30.4636 9.99414 31.0159 9.99414C31.5682 9.99414 32.0159 10.4419 32.0159 10.9941Z" fill="#0072BD"/>
<path d="M33 24C33 23.4477 33.4477 23 34 23V25C33.4477 25 33 24.5523 33 24Z" fill="#0072BD"/>
<path d="M33 30C33 29.4477 33.4477 29 34 29V31C33.4477 31 33 30.5523 33 30Z" fill="#0072BD"/>
<path d="M33 27C33 26.4477 33.4477 26 34 26V28C33.4477 28 33 27.5523 33 27Z" fill="#0072BD"/>
<path d="M17 24C17 23.4477 16.5523 23 16 23L16 25C16.5523 25 17 24.5523 17 24Z" fill="#0072BD"/>
<path d="M17 30C17 29.4477 16.5523 29 16 29L16 31C16.5523 31 17 30.5523 17 30Z" fill="#0072BD"/>
<path d="M17 27C17 26.4477 16.5523 26 16 26L16 28C16.5523 28 17 27.5523 17 27Z" fill="#0072BD"/>
<path d="M20 26C20 26.5523 19.5523 27 19 27C18.4477 27 18 26.5523 18 26C18 25.4477 18.4477 25 19 25C19.5523 25 20 25.4477 20 26Z" fill="#0072BD"/>
<path d="M20 32C20 32.5523 19.5523 33 19 33C18.4477 33 18 32.5523 18 32C18 31.4477 18.4477 31 19 31C19.5523 31 20 31.4477 20 32Z" fill="#0072BD"/>
<path d="M20 29C20 29.5523 19.5523 30 19 30C18.4477 30 18 29.5523 18 29C18 28.4477 18.4477 28 19 28C19.5523 28 20 28.4477 20 29Z" fill="#0072BD"/>
<path d="M23 27C23 27.5523 22.5523 28 22 28C21.4477 28 21 27.5523 21 27C21 26.4477 21.4477 26 22 26C22.5523 26 23 26.4477 23 27Z" fill="#0072BD"/>
<path d="M23 33C23 33.5523 22.5523 34 22 34C21.4477 34 21 33.5523 21 33C21 32.4477 21.4477 32 22 32C22.5523 32 23 32.4477 23 33Z" fill="#0072BD"/>
<path d="M23 30C23 30.5523 22.5523 31 22 31C21.4477 31 21 30.5523 21 30C21 29.4477 21.4477 29 22 29C22.5523 29 23 29.4477 23 30Z" fill="#0072BD"/>
<path d="M26 27C26 27.5523 25.5523 28 25 28C24.4477 28 24 27.5523 24 27C24 26.4477 24.4477 26 25 26C25.5523 26 26 26.4477 26 27Z" fill="#0072BD"/>
<path d="M26 33C26 33.5523 25.5523 34 25 34C24.4477 34 24 33.5523 24 33C24 32.4477 24.4477 32 25 32C25.5523 32 26 32.4477 26 33Z" fill="#0072BD"/>
<path d="M26 30C26 30.5523 25.5523 31 25 31C24.4477 31 24 30.5523 24 30C24 29.4477 24.4477 29 25 29C25.5523 29 26 29.4477 26 30Z" fill="#0072BD"/>
<path d="M29 27C29 27.5523 28.5523 28 28 28C27.4477 28 27 27.5523 27 27C27 26.4477 27.4477 26 28 26C28.5523 26 29 26.4477 29 27Z" fill="#0072BD"/>
<path d="M29 33C29 33.5523 28.5523 34 28 34C27.4477 34 27 33.5523 27 33C27 32.4477 27.4477 32 28 32C28.5523 32 29 32.4477 29 33Z" fill="#0072BD"/>
<path d="M29 30C29 30.5523 28.5523 31 28 31C27.4477 31 27 30.5523 27 30C27 29.4477 27.4477 29 28 29C28.5523 29 29 29.4477 29 30Z" fill="#0072BD"/>
<path d="M32 26C32 26.5523 31.5523 27 31 27C30.4477 27 30 26.5523 30 26C30 25.4477 30.4477 25 31 25C31.5523 25 32 25.4477 32 26Z" fill="#0072BD"/>
<path d="M32 32C32 32.5523 31.5523 33 31 33C30.4477 33 30 32.5523 30 32C30 31.4477 30.4477 31 31 31C31.5523 31 32 31.4477 32 32Z" fill="#0072BD"/>
<path d="M32 29C32 29.5523 31.5523 30 31 30C30.4477 30 30 29.5523 30 29C30 28.4477 30.4477 28 31 28C31.5523 28 32 28.4477 32 29Z" fill="#0072BD"/>
<path d="M20.0159 13.9941C20.0159 14.5464 19.5682 14.9941 19.0159 14.9941C18.4636 14.9941 18.0159 14.5464 18.0159 13.9941C18.0159 13.4419 18.4636 12.9941 19.0159 12.9941C19.5682 12.9941 20.0159 13.4419 20.0159 13.9941Z" fill="#0072BD"/>
<path d="M17 12C17 11.4477 16.5523 11 16 11L16 13C16.5523 13 17 12.5523 17 12Z" fill="#0072BD"/>
<path d="M23.0159 14.9941C23.0159 15.5464 22.5682 15.9941 22.0159 15.9941C21.4636 15.9941 21.0159 15.5464 21.0159 14.9941C21.0159 14.4419 21.4636 13.9941 22.0159 13.9941C22.5682 13.9941 23.0159 14.4419 23.0159 14.9941Z" fill="#0072BD"/>
<path d="M26.0159 14.9941C26.0159 15.5464 25.5682 15.9941 25.0159 15.9941C24.4636 15.9941 24.0159 15.5464 24.0159 14.9941C24.0159 14.4419 24.4636 13.9941 25.0159 13.9941C25.5682 13.9941 26.0159 14.4419 26.0159 14.9941Z" fill="#0072BD"/>
<path d="M29.0159 14.9941C29.0159 15.5464 28.5682 15.9941 28.0159 15.9941C27.4636 15.9941 27.0159 15.5464 27.0159 14.9941C27.0159 14.4419 27.4636 13.9941 28.0159 13.9941C28.5682 13.9941 29.0159 14.4419 29.0159 14.9941Z" fill="#0072BD"/>
<path d="M32.0159 13.9941C32.0159 14.5464 31.5682 14.9941 31.0159 14.9941C30.4636 14.9941 30.0159 14.5464 30.0159 13.9941C30.0159 13.4419 30.4636 12.9941 31.0159 12.9941C31.5682 12.9941 32.0159 13.4419 32.0159 13.9941Z" fill="#0072BD"/>
<path d="M33 12C33 11.4477 33.4477 11 34 11V13C33.4477 13 33 12.5523 33 12Z" fill="#0072BD"/>
<path d="M20.0159 16.9941C20.0159 17.5464 19.5682 17.9941 19.0159 17.9941C18.4636 17.9941 18.0159 17.5464 18.0159 16.9941C18.0159 16.4419 18.4636 15.9941 19.0159 15.9941C19.5682 15.9941 20.0159 16.4419 20.0159 16.9941Z" fill="#0072BD"/>
<path d="M17 15C17 14.4477 16.5523 14 16 14L16 16C16.5523 16 17 15.5523 17 15Z" fill="#0072BD"/>
<path d="M23.0159 17.9941C23.0159 18.5464 22.5682 18.9941 22.0159 18.9941C21.4636 18.9941 21.0159 18.5464 21.0159 17.9941C21.0159 17.4419 21.4636 16.9941 22.0159 16.9941C22.5682 16.9941 23.0159 17.4419 23.0159 17.9941Z" fill="#0072BD"/>
<path d="M26.0159 17.9941C26.0159 18.5464 25.5682 18.9941 25.0159 18.9941C24.4636 18.9941 24.0159 18.5464 24.0159 17.9941C24.0159 17.4419 24.4636 16.9941 25.0159 16.9941C25.5682 16.9941 26.0159 17.4419 26.0159 17.9941Z" fill="#0072BD"/>
<path d="M29.0159 17.9941C29.0159 18.5464 28.5682 18.9941 28.0159 18.9941C27.4636 18.9941 27.0159 18.5464 27.0159 17.9941C27.0159 17.4419 27.4636 16.9941 28.0159 16.9941C28.5682 16.9941 29.0159 17.4419 29.0159 17.9941Z" fill="#0072BD"/>
<path d="M32.0159 16.9941C32.0159 17.5464 31.5682 17.9941 31.0159 17.9941C30.4636 17.9941 30.0159 17.5464 30.0159 16.9941C30.0159 16.4419 30.4636 15.9941 31.0159 15.9941C31.5682 15.9941 32.0159 16.4419 32.0159 16.9941Z" fill="#0072BD"/>
<path d="M33 15C33 14.4477 33.4477 14 34 14V16C33.4477 16 33 15.5523 33 15Z" fill="#0072BD"/>
<path d="M20.0159 19.9941C20.0159 20.5464 19.5682 20.9941 19.0159 20.9941C18.4636 20.9941 18.0159 20.5464 18.0159 19.9941C18.0159 19.4419 18.4636 18.9941 19.0159 18.9941C19.5682 18.9941 20.0159 19.4419 20.0159 19.9941Z" fill="#0072BD"/>
<path d="M17 18C17 17.4477 16.5523 17 16 17L16 19C16.5523 19 17 18.5523 17 18Z" fill="#0072BD"/>
<path d="M23.0159 20.9941C23.0159 21.5464 22.5682 21.9941 22.0159 21.9941C21.4636 21.9941 21.0159 21.5464 21.0159 20.9941C21.0159 20.4419 21.4636 19.9941 22.0159 19.9941C22.5682 19.9941 23.0159 20.4419 23.0159 20.9941Z" fill="#0072BD"/>
<path d="M26.0159 20.9941C26.0159 21.5464 25.5682 21.9941 25.0159 21.9941C24.4636 21.9941 24.0159 21.5464 24.0159 20.9941C24.0159 20.4419 24.4636 19.9941 25.0159 19.9941C25.5682 19.9941 26.0159 20.4419 26.0159 20.9941Z" fill="#0072BD"/>
<path d="M29.0159 20.9941C29.0159 21.5464 28.5682 21.9941 28.0159 21.9941C27.4636 21.9941 27.0159 21.5464 27.0159 20.9941C27.0159 20.4419 27.4636 19.9941 28.0159 19.9941C28.5682 19.9941 29.0159 20.4419 29.0159 20.9941Z" fill="#0072BD"/>
<path d="M32.0159 19.9941C32.0159 20.5464 31.5682 20.9941 31.0159 20.9941C30.4636 20.9941 30.0159 20.5464 30.0159 19.9941C30.0159 19.4419 30.4636 18.9941 31.0159 18.9941C31.5682 18.9941 32.0159 19.4419 32.0159 19.9941Z" fill="#0072BD"/>
<path d="M33 18C33 17.4477 33.4477 17 34 17V19C33.4477 19 33 18.5523 33 18Z" fill="#0072BD"/>
<path d="M20.0159 22.9941C20.0159 23.5464 19.5682 23.9941 19.0159 23.9941C18.4636 23.9941 18.0159 23.5464 18.0159 22.9941C18.0159 22.4419 18.4636 21.9941 19.0159 21.9941C19.5682 21.9941 20.0159 22.4419 20.0159 22.9941Z" fill="#0072BD"/>
<path d="M17 21C17 20.4477 16.5523 20 16 20L16 22C16.5523 22 17 21.5523 17 21Z" fill="#0072BD"/>
<path d="M23.0159 23.9941C23.0159 24.5464 22.5682 24.9941 22.0159 24.9941C21.4636 24.9941 21.0159 24.5464 21.0159 23.9941C21.0159 23.4419 21.4636 22.9941 22.0159 22.9941C22.5682 22.9941 23.0159 23.4419 23.0159 23.9941Z" fill="#0072BD"/>
<path d="M26.0159 23.9941C26.0159 24.5464 25.5682 24.9941 25.0159 24.9941C24.4636 24.9941 24.0159 24.5464 24.0159 23.9941C24.0159 23.4419 24.4636 22.9941 25.0159 22.9941C25.5682 22.9941 26.0159 23.4419 26.0159 23.9941Z" fill="#0072BD"/>
<path d="M29.0159 23.9941C29.0159 24.5464 28.5682 24.9941 28.0159 24.9941C27.4636 24.9941 27.0159 24.5464 27.0159 23.9941C27.0159 23.4419 27.4636 22.9941 28.0159 22.9941C28.5682 22.9941 29.0159 23.4419 29.0159 23.9941Z" fill="#0072BD"/>
<path d="M32.0159 22.9941C32.0159 23.5464 31.5682 23.9941 31.0159 23.9941C30.4636 23.9941 30.0159 23.5464 30.0159 22.9941C30.0159 22.4419 30.4636 21.9941 31.0159 21.9941C31.5682 21.9941 32.0159 22.4419 32.0159 22.9941Z" fill="#0072BD"/>
<path d="M33 21C33 20.4477 33.4477 20 34 20V22C33.4477 22 33 21.5523 33 21Z" fill="#0072BD"/>
</svg>
