<svg width="50" height="40" viewBox="0 0 50 40" fill="none" xmlns="http://www.w3.org/2000/svg">
<path d="M26.5 10.5C26.5 9.94772 26.9477 9.5 27.5 9.5H46.5C47.0523 9.5 47.5 9.94772 47.5 10.5V29.5C47.5 30.0523 47.0523 30.5 46.5 30.5H27.5C26.9477 30.5 26.5 30.0523 26.5 29.5V10.5Z" fill="#BFBFBF" stroke="var(--mw-icon-border-default-gray, #616161)"/>
<path d="M9.5 0.5H16.5V7.5H9.5V0.5Z" fill="var(--mw-icon-background-default-white, white)" stroke="var(--mw-icon-border-default-gray, #616161)" stroke-linejoin="round"/>
<path d="M9.5 32.5H16.5V39.5H9.5V32.5Z" fill="var(--mw-icon-background-default-white, white)" stroke="var(--mw-icon-border-default-gray, #616161)" stroke-linejoin="round"/>
<path d="M0.999998 10L0.999998 10.574C3.51825 10.7553 3.98832 11.2085 3.98832 13.3535L3.98832 26.5559C3.98832 28.8822 3.48467 29.2447 1 29.426L1 30L24 30L24 29.426C21.4146 29.2447 21.0117 28.9124 21.0117 26.5559L21.0117 13.6858C21.0117 11.0876 21.381 10.7251 24 10.574L24 10L14.6321 10L14.6657 10.574C17.1504 10.6949 17.5869 11.2085 17.5869 13.4139L17.5869 27.855C17.5869 28.6707 17.2511 28.852 16.3781 28.852L8.6219 28.852C7.6146 28.852 7.41314 28.5801 7.41314 27.7643L7.41314 13.7462C7.41314 11.2085 7.7489 10.7251 10.3679 10.574L10.3679 10L0.999998 10Z" fill="var(--mw-icon-object-primary, #616160)"/>

</svg>
