<svg width="50" height="40" viewBox="0 0 50 40" fill="none" xmlns="http://www.w3.org/2000/svg">
<path d="M26.5 10.5C26.5 9.94772 26.9477 9.5 27.5 9.5H46.5C47.0523 9.5 47.5 9.94772 47.5 10.5V29.5C47.5 30.0523 47.0523 30.5 46.5 30.5H27.5C26.9477 30.5 26.5 30.0523 26.5 29.5V10.5Z" fill="#BFBFBF" stroke="var(--mw-icon-border-default-gray, #616161)"/>
<path d="M9.5 0.5H16.5V7.5H9.5V0.5Z" fill="var(--mw-icon-background-default-white, white)" stroke="var(--mw-icon-border-default-gray, #616161)" stroke-linejoin="round"/>
<path d="M9.5 32.5H16.5V39.5H9.5V32.5Z" fill="var(--mw-icon-background-default-white, white)" stroke="var(--mw-icon-border-default-gray, #616161)" stroke-linejoin="round"/>
<path d="M24 30V29.426C21.4818 29.2447 21.0117 28.7915 21.0117 26.6465V13.4441C21.0117 11.1178 21.5153 10.7553 24 10.574V10H1V10.574C3.5854 10.7553 3.98832 11.0876 3.98832 13.4441V26.3142C3.98832 28.9124 3.61898 29.2749 1 29.426V30H10.3679L10.3343 29.426C7.84964 29.3051 7.41314 28.7915 7.41314 26.5861V12.145C7.41314 11.3293 7.74891 11.148 8.6219 11.148H16.3781C17.3854 11.148 17.5869 11.4199 17.5869 12.2357V26.2538C17.5869 28.7915 17.2511 29.2749 14.6321 29.426V30H24Z" fill="var(--mw-icon-object-primary, #616160)"/>

</svg>
