<svg width="50" height="40" viewBox="0 0 50 40" fill="none" xmlns="http://www.w3.org/2000/svg">
<rect x="0.5" y="0.5" width="48" height="38" rx="1" fill="var(--mw-icon-background-default-white, white)"/>
<rect x="1" y="1" width="47" height="7" fill="#E6E6E6"/>
<path d="M1 8.5H48" stroke="#BFBFBF"/>
<rect x="4" y="2" width="5" height="5" fill="var(--mw-icon-background-default-dark-gray, #A6A6A6)"/>
<rect x="13" y="2" width="5" height="5" fill="var(--mw-icon-background-default-dark-gray, #A6A6A6)"/>
<rect x="22" y="2" width="5" height="5" fill="var(--mw-icon-background-default-dark-gray, #A6A6A6)"/>
<rect x="31" y="2" width="5" height="5" fill="var(--mw-icon-background-default-dark-gray, #A6A6A6)"/>
<rect x="40" y="2" width="5" height="5" fill="var(--mw-icon-background-default-dark-gray, #A6A6A6)"/>
<path d="M1 28.5C2.88657 28.5 4.69461 23.9918 5.5 21C6.30539 18.0082 7.28116 10.5 7.5 10.5C7.71884 10.5 8.4743 19.7142 10.3582 24.9513C11.4924 28.1043 14.1493 34.5 20.5 34.5C21.2162 34.5 39.9574 34.5 48 34.5" stroke="#0072BD"/>
<path d="M24.1352 16.866V16.173H21.4292V16.866H24.1352Z" fill="var(--mw-icon-glyph-content-dark-gray, #333333)"/>
<path d="M26.8083 12.125C27.0833 12.037 27.3253 11.982 27.6223 11.982C28.7443 11.982 29.0633 13.005 29.0633 13.973C29.0633 14.237 29.0303 14.501 28.9863 14.743C28.7553 14.336 28.2823 14.215 27.9303 14.215C26.3243 14.215 25.1033 15.788 25.1033 17.339C25.1033 18.274 25.5213 19.121 26.5993 19.121C29.1733 19.121 29.8443 16.14 29.8443 14.512C29.8443 12.642 29.1623 11.652 27.7763 11.652C27.4023 11.652 27.0063 11.718 26.6983 11.905L26.8083 12.125ZM28.7003 15.491C28.7003 15.832 28.6343 16.206 28.5353 16.569C28.2273 17.691 27.5783 18.791 26.7313 18.791C26.0383 18.791 25.9943 18.131 25.9943 17.713C25.9943 16.184 26.9403 14.545 28.0293 14.545C28.3263 14.545 28.7003 14.776 28.7003 15.491Z" fill="var(--mw-icon-glyph-content-dark-gray, #333333)"/>
<path d="M25.1449 24.125C25.4199 24.037 25.6619 23.982 25.9589 23.982C27.0809 23.982 27.3999 25.005 27.3999 25.973C27.3999 26.237 27.3669 26.501 27.3229 26.743C27.0919 26.336 26.6189 26.215 26.2669 26.215C24.6609 26.215 23.4399 27.788 23.4399 29.339C23.4399 30.274 23.8579 31.121 24.9359 31.121C27.5099 31.121 28.1809 28.14 28.1809 26.512C28.1809 24.642 27.4989 23.652 26.1129 23.652C25.7389 23.652 25.3429 23.718 25.0349 23.905L25.1449 24.125ZM27.0369 27.491C27.0369 27.832 26.9709 28.206 26.8719 28.569C26.5639 29.691 25.9149 30.791 25.0679 30.791C24.3749 30.791 24.3309 30.131 24.3309 29.713C24.3309 28.184 25.2769 26.545 26.3659 26.545C26.6629 26.545 27.0369 26.776 27.0369 27.491Z" fill="var(--mw-icon-glyph-content-dark-gray, #333333)"/>
<path d="M33.9197 26.171V26.347C34.3817 26.347 34.8107 26.424 34.9427 26.941C34.9867 27.106 34.9977 27.414 34.9977 27.612C34.9977 28.316 34.8107 29.284 34.4697 29.922C34.2277 30.373 33.7987 30.89 33.1827 30.89C32.7207 30.89 32.4677 30.439 32.4677 29.966C32.4677 29.889 32.4677 29.812 32.4897 29.735C32.5997 29.57 32.7427 29.328 32.8307 29.174C33.0727 28.756 33.2927 28.063 33.2927 27.568C33.2927 27.271 33.1717 27.062 32.9077 27.062C32.5007 27.062 32.1707 27.59 32.0167 28.162C31.9287 28.492 31.8847 28.833 31.8847 29.108C31.8847 29.262 31.8957 29.504 31.9177 29.669C31.7087 30.274 31.0707 30.89 30.5757 30.89C30.2237 30.89 29.9487 30.615 29.9487 29.856C29.9487 28.943 30.3557 27.755 30.9057 27.062C31.3237 26.545 31.8187 26.347 32.3797 26.347V26.171H32.1817C30.6307 26.171 29.4977 27.348 29.1347 28.679C29.0577 28.976 29.0247 29.273 29.0247 29.57C29.0247 30.659 29.7397 31.121 30.4437 31.121C31.2247 31.121 31.6317 30.857 32.0607 30.34C32.2367 30.725 32.4567 31.121 33.3147 31.121C34.0187 31.121 34.8657 30.648 35.4487 29.559C35.7347 29.02 35.9217 28.459 35.9217 27.865C35.9217 27.337 35.7897 26.842 35.4267 26.534C35.1297 26.281 34.6787 26.171 34.1177 26.171H33.9197Z" fill="var(--mw-icon-glyph-content-dark-gray, #333333)"/>
<path d="M35.31 11.67H34.54L33.87 14.09H33.72C31.89 14.09 30.77 16.21 30.77 17.22C30.77 17.86 31.02 18.33 31.54 18.5C31.79 18.58 32.18 18.61 32.61 18.61L32.07 20.55H32.85L33.39 18.61C35.36 18.6 36.45 16.63 36.45 15.47C36.45 14.76 36.14 14.4 35.65 14.21C35.37 14.1 35.1 14.09 34.64 14.09L35.31 11.67ZM34.58 14.3C34.79 14.3 35.06 14.31 35.16 14.37C35.42 14.53 35.61 14.78 35.61 15.23C35.61 16.06 34.96 17.83 34.14 18.24C33.86 18.38 33.7 18.4 33.45 18.4L34.58 14.3ZM32.67 18.4C32.44 18.4 32.25 18.38 32.09 18.32C31.78 18.2 31.61 17.91 31.61 17.49C31.61 16.08 32.65 14.3 33.81 14.3L32.67 18.4Z" fill="var(--mw-icon-glyph-content-dark-gray, #333333)"/>
<path fill-rule="evenodd" clip-rule="evenodd" d="M21 21.5C21 21.2239 21.2239 21 21.5 21L36.5 21C36.7761 21 37 21.2239 37 21.5C37 21.7761 36.7761 22 36.5 22L21.5 22C21.2239 22 21 21.7761 21 21.5Z" fill="var(--mw-icon-glyph-content-dark-gray, #333333)"/>
<rect x="0.5" y="0.5" width="48" height="38" rx="1" stroke="var(--mw-icon-border-default-gray, #616161)"/>

</svg>
