<svg width="50" height="40" viewBox="0 0 50 40" fill="none" xmlns="http://www.w3.org/2000/svg">
<rect x="0.5" y="0.5" width="48" height="38" rx="1" fill="var(--mw-icon-background-default-white, white)"/>
<path d="M12.5 16.5V7C12.5 6.72386 12.7239 6.5 13 6.5H33C33.2761 6.5 33.5 6.72386 33.5 7V16.5M4.5 38V26C4.5 25.7239 4.72386 25.5 5 25.5H7.5M10.5 38V26C10.5 25.7239 10.2761 25.5 10 25.5H7.5M14.5 38V29C14.5 28.7239 14.7239 28.5 15 28.5H17.5M20.5 38V29C20.5 28.7239 20.2761 28.5 20 28.5H17.5M7.5 25.5V17C7.5 16.7239 7.72386 16.5 8 16.5H17C17.2761 16.5 17.5 16.7239 17.5 17V28.5M23.5 38V30C23.5 29.7239 23.7239 29.5 24 29.5H26.5M29.5 38V30C29.5 29.7239 29.2761 29.5 29 29.5H26.5M26.5 29.5V17C26.5 16.7239 26.7239 16.5 27 16.5H40C40.2761 16.5 40.5 16.7239 40.5 17V31.5M36.5 38V32C36.5 31.7239 36.7239 31.5 37 31.5H44C44.2761 31.5 44.5 31.7239 44.5 32V38" stroke="#0072BD" stroke-linecap="round" stroke-linejoin="round"/>
<rect x="0.5" y="0.5" width="48" height="38" rx="1" stroke="var(--mw-icon-border-default-gray, #616161)"/>

</svg>
