<svg width="50" height="40" viewBox="0 0 50 40" fill="none" xmlns="http://www.w3.org/2000/svg">
<path d="M28.5 12.5C28.5 11.9477 28.9477 11.5 29.5 11.5H43.5C44.0523 11.5 44.5 11.9477 44.5 12.5V26.5C44.5 27.0523 44.0523 27.5 43.5 27.5H29.5C28.9477 27.5 28.5 27.0523 28.5 26.5V12.5Z" fill="#BFBFBF" stroke="var(--mw-icon-border-default-gray, #616161)"/>
<path d="M15.5 21.5H25.5V35.5H15.5V21.5Z" fill="var(--mw-icon-background-default-white, white)" stroke="var(--mw-icon-border-default-gray, #616161)" stroke-linejoin="round"/>
<path d="M5 19.5C5 19.2239 5.22386 19 5.5 19H25.5C25.7761 19 26 19.2239 26 19.5V19.5C26 19.7761 25.7761 20 25.5 20H5.5C5.22386 20 5 19.7761 5 19.5V19.5Z" fill="var(--mw-icon-object-primary, #616160)"/>
<path d="M14 34.0245V33.7244C13.6703 33.7431 13.6509 33.7431 13.5539 33.7431C12.8556 33.7431 12.7004 33.5368 12.7004 32.6739V22.0375L12.6034 22C11.6724 22.3189 10.9935 22.5065 9.75216 22.8254V23.1255C9.90733 23.1068 10.0237 23.1068 10.1789 23.1068C10.8966 23.1068 11.0711 23.2944 11.0711 24.0635V26.9899C10.3341 26.3896 9.81034 26.1833 9.03448 26.1833C6.80388 26.1833 5 28.303 5 30.9668C5 33.368 6.43534 35 8.58836 35C9.67457 35 10.4116 34.6248 11.0711 33.7431V34.9437L11.1487 35L14 34.0245ZM11.0711 32.899C11.0711 33.0303 10.9547 33.2367 10.7802 33.4242C10.431 33.8182 9.94612 34.0245 9.34483 34.0245C7.71552 34.0245 6.6681 32.5238 6.6681 30.2165C6.6681 28.0967 7.61853 26.7085 9.09267 26.7085C10.1401 26.7085 11.0711 27.5902 11.0711 28.5844V32.899Z" fill="var(--mw-icon-object-primary, #616160)"/>
<path d="M20.5 16.0245V15.7244C20.1703 15.7431 20.1509 15.7431 20.0539 15.7431C19.3556 15.7431 19.2004 15.5368 19.2004 14.6739V4.03752L19.1034 4C18.1724 4.3189 17.4935 4.50649 16.2522 4.8254V5.12554C16.4073 5.10678 16.5237 5.10678 16.6789 5.10678C17.3966 5.10678 17.5711 5.29437 17.5711 6.06349V8.9899C16.8341 8.38961 16.3103 8.18326 15.5345 8.18326C13.3039 8.18326 11.5 10.303 11.5 12.9668C11.5 15.368 12.9353 17 15.0884 17C16.1746 17 16.9116 16.6248 17.5711 15.7431V16.9437L17.6487 17L20.5 16.0245ZM17.5711 14.899C17.5711 15.0303 17.4547 15.2367 17.2802 15.4242C16.931 15.8182 16.4461 16.0245 15.8448 16.0245C14.2155 16.0245 13.1681 14.5238 13.1681 12.2165C13.1681 10.0967 14.1185 8.70851 15.5927 8.70851C16.6401 8.70851 17.5711 9.59019 17.5711 10.5844V14.899Z" fill="var(--mw-icon-object-primary, #616160)"/>

</svg>
