<svg width="51" height="41" viewBox="0 0 51 41" fill="none" xmlns="http://www.w3.org/2000/svg">
<rect x="1.5" y="1.5" width="44" height="35" rx="1" fill="var(--mw-icon-background-default-white, white)"/>
<rect x="4" y="28" width="7" height="8" fill="#0072BD"/>
<path d="M20 4H27V36H20V4Z" fill="#0072BD"/>
<rect x="36" y="15" width="7" height="21" fill="#0072BD"/>
<rect x="12" y="12" width="7" height="24" fill="#D95319"/>
<rect x="28" y="10" width="7" height="26" fill="#D95319"/>
<rect x="1.4592" y="1.46155" width="44.0816" height="35.0769" rx="1" stroke="var(--mw-icon-border-default-gray, #616161)"/>
<rect x="37.5" y="27.5" width="13" height="13" rx="2" fill="var(--mw-icon-background-default-white, white)" stroke="var(--mw-icon-border-default-gray, #616161)"/>
<circle cx="40.5" cy="30.5" r="0.5" fill="var(--mw-icon-glyph-content-gray, #616162)"/>
<path d="M42.5 30.5H47.5" stroke="var(--mw-icon-glyph-content-gray, #616162)" stroke-linecap="round" stroke-linejoin="round"/>
<circle cx="40.5" cy="33.5" r="0.5" fill="var(--mw-icon-glyph-content-gray, #616162)"/>
<circle cx="40.5" cy="36.5" r="0.5" fill="var(--mw-icon-glyph-content-gray, #616162)"/>
<path d="M42.5 36.5H46.5" stroke="var(--mw-icon-glyph-content-gray, #616162)" stroke-linecap="round" stroke-linejoin="round"/>
<circle cx="40.5" cy="33.5" r="0.5" fill="var(--mw-icon-glyph-content-gray, #616162)"/>
<path d="M42.5 33.5H45.5" stroke="var(--mw-icon-glyph-content-gray, #616162)" stroke-linecap="round" stroke-linejoin="round"/>

</svg>
