<svg width="50" height="40" viewBox="0 0 50 40" fill="none" xmlns="http://www.w3.org/2000/svg">
<rect x="0.5" y="0.5" width="48" height="38" rx="1" fill="var(--mw-icon-object-secondary, #FFFFFE)" stroke="var(--mw-icon-border-default-gray, #616161)"/>
<path d="M16.7343 17H14.7952L14.8075 15.7143H16.7343C17.2156 15.7143 17.6213 15.6172 17.9516 15.4231C18.282 15.2253 18.5307 14.9377 18.6979 14.5604C18.8692 14.1832 18.9549 13.7271 18.9549 13.1923V12.8022C18.9549 12.3919 18.9059 12.0311 18.808 11.7198C18.7142 11.4084 18.5736 11.1465 18.386 10.9341C18.1984 10.7216 17.968 10.5623 17.6947 10.456C17.4215 10.3462 17.1075 10.2912 16.7527 10.2912H14.7585V9H16.7527C17.3481 9 17.8925 9.09158 18.386 9.27473C18.8835 9.45421 19.3137 9.71245 19.6767 10.0495C20.0396 10.3864 20.319 10.7894 20.5147 11.2582C20.7145 11.7234 20.8144 12.2418 20.8144 12.8132V13.1923C20.8144 13.7601 20.7145 14.2784 20.5147 14.7473C20.319 15.2161 20.0396 15.619 19.6767 15.956C19.3178 16.2894 18.8876 16.5476 18.386 16.7308C17.8884 16.9103 17.3379 17 16.7343 17ZM15.8351 9V17H14V9H15.8351Z" fill="var(--mw-icon-object-primary, #616160)"/>
<path d="M23.9831 9V17H22.148V9H23.9831ZM27.531 12.4176V13.7033H23.4815V12.4176H27.531ZM27.9592 9V10.2912H23.4815V9H27.9592Z" fill="var(--mw-icon-object-primary, #616160)"/>
<path d="M35 15.7143V17H30.2592V15.7143H35ZM30.8587 9V17H29.0236V9H30.8587ZM34.3822 12.2582V13.511H30.2592V12.2582H34.3822ZM34.9939 9V10.2912H30.2592V9H34.9939Z" fill="var(--mw-icon-object-primary, #616160)"/>
<path d="M18.3036 26.312H20.0893C20.0535 26.8357 19.8922 27.3006 19.6056 27.7067C19.3229 28.1129 18.9267 28.43 18.417 28.658C17.9114 28.886 17.3022 29 16.5895 29C16.032 29 15.5323 28.9145 15.0904 28.7435C14.6484 28.5689 14.2701 28.3195 13.9556 27.9953C13.645 27.6711 13.4081 27.2792 13.2449 26.8196C13.0816 26.3601 13 25.8452 13 25.2752V24.7355C13 24.1654 13.0836 23.6506 13.2508 23.191C13.4221 22.7279 13.6649 22.3342 13.9795 22.01C14.298 21.6858 14.6783 21.4364 15.1202 21.2619C15.5622 21.0873 16.0559 21 16.6014 21C17.3261 21 17.9372 21.1176 18.435 21.3527C18.9366 21.5878 19.3249 21.912 19.5996 22.3253C19.8783 22.7386 20.0455 23.2089 20.1013 23.7361H18.3095C18.2896 23.4226 18.2199 23.1572 18.1005 22.9399C17.981 22.719 17.7999 22.5533 17.557 22.4429C17.3181 22.3289 16.9996 22.2719 16.6014 22.2719C16.3028 22.2719 16.042 22.3218 15.819 22.4215C15.596 22.5213 15.4089 22.6727 15.2576 22.8758C15.1063 23.0788 14.9928 23.3353 14.9172 23.6453C14.8455 23.9517 14.8097 24.3115 14.8097 24.7248V25.2752C14.8097 25.6778 14.8435 26.0323 14.9112 26.3387C14.9789 26.6415 15.0824 26.898 15.2218 27.1082C15.3651 27.3149 15.5483 27.4716 15.7712 27.5785C15.9982 27.6818 16.2709 27.7335 16.5895 27.7335C16.9637 27.7335 17.2723 27.68 17.5152 27.5731C17.7581 27.4663 17.9432 27.3077 18.0706 27.0975C18.202 26.8873 18.2797 26.6255 18.3036 26.312Z" fill="var(--mw-icon-object-primary, #616160)"/>
<path d="M23.9356 28.8931H22.0423L22.0543 27.6426H23.9356C24.4054 27.6426 24.8016 27.5482 25.1241 27.3594C25.4466 27.167 25.6895 26.8873 25.8528 26.5204C26.02 26.1534 26.1036 25.7099 26.1036 25.1897V24.8103C26.1036 24.4113 26.0558 24.0603 25.9603 23.7575C25.8687 23.4547 25.7313 23.2 25.5482 22.9933C25.365 22.7867 25.14 22.6317 24.8733 22.5284C24.6065 22.4215 24.2999 22.3681 23.9535 22.3681H22.0065V21.1122H23.9535C24.5348 21.1122 25.0664 21.2013 25.5482 21.3794C26.0339 21.554 26.454 21.8052 26.8084 22.1329C27.1627 22.4607 27.4355 22.8526 27.6266 23.3086C27.8217 23.7611 27.9192 24.2652 27.9192 24.821V25.1897C27.9192 25.7419 27.8217 26.246 27.6266 26.7021C27.4355 27.1581 27.1627 27.55 26.8084 27.8778C26.458 28.202 26.0379 28.4531 25.5482 28.6313C25.0624 28.8058 24.5249 28.8931 23.9356 28.8931ZM23.0576 21.1122V28.8931H21.2659V21.1122H23.0576Z" fill="var(--mw-icon-object-primary, #616160)"/>
<path d="M29.2212 21.1122H32.4643C33.1292 21.1122 33.7006 21.2013 34.1784 21.3794C34.6602 21.5576 35.0305 21.8212 35.2893 22.1703C35.5481 22.5195 35.6775 22.9488 35.6775 23.4583C35.6775 23.8751 35.5979 24.2331 35.4386 24.5324C35.2833 24.8281 35.0623 25.0757 34.7756 25.2752C34.4929 25.4712 34.1605 25.6279 33.7782 25.7455L33.2109 26.0127H30.3918L30.3799 24.7622H32.4762C32.7908 24.7622 33.0516 24.7123 33.2586 24.6126C33.4657 24.5128 33.621 24.3739 33.7245 24.1957C33.832 24.0176 33.8857 23.811 33.8857 23.5758C33.8857 23.3264 33.834 23.1109 33.7305 22.9292C33.6269 22.7475 33.4697 22.6086 33.2586 22.5124C33.0476 22.4162 32.7828 22.3681 32.4643 22.3681H31.013V28.8931H29.2212V21.1122ZM34.0828 28.8931L32.1 25.4249L33.9933 25.4142L36 28.8183V28.8931H34.0828Z" fill="var(--mw-icon-object-primary, #616160)"/>
</svg>
