<svg width="50" height="40" viewBox="0 0 50 40" fill="none" xmlns="http://www.w3.org/2000/svg">
<path d="M5.5 27V12L24.5 1L43.5 12V27L24.5 38L5.5 27Z" fill="var(--mw-icon-background-default-white, #FFFFFF)"/>
<path d="M24.5 16.5001L24.5058 1.58374L43.0197 12.254V27.1226L24.5 16.5001Z" fill="var(--mw-icon-background-default-light-gray, #F5F5F5)"/>
<path d="M24.5 16.4999L24.4942 1.5835L5.98034 12.2674L5.98034 27.1224L24.5 16.4999Z" fill="#E6E6E6"/>
<path d="M43.5 27V11.959L24.5 1L5.5 11.97" stroke="#BFBFBF" stroke-linecap="round" stroke-linejoin="round"/>
<path d="M5.5 12V27.03L24.5 38L43.5 27.0352" stroke="var(--mw-icon-border-default-gray, #616161)" stroke-linecap="round" stroke-linejoin="round"/>
<path d="M29.5018 16.2724V20.929L25.5059 18.8053V13.6975L29.5018 11.3362L33.5001 13.5219V14.3517L35.5535 13.1676L39.2809 15.2864L33.5001 18.5884L29.5018 16.2724Z" fill="#EDB120"/>
<path d="M29.5018 15.9655V20.929L25.5059 18.8053V13.6975M29.5018 15.9655L33.5001 13.5219M29.5018 15.9655L25.5059 13.6975M29.5018 15.9655V16.2724L33.5001 18.5884M33.5001 13.5219L29.5018 11.3362L25.5059 13.6975M33.5001 13.5219V14.3517M33.5001 18.5884L39.2809 15.2864L35.5535 13.1676L33.5001 14.3517M33.5001 18.5884V14.3517" stroke="#745A26" stroke-linejoin="round"/>
<path d="M19.5141 26.6208L14.6903 29.3656L10.8271 27.1794L15.5182 24.4972V19.3894L19.5141 17.0281L23.5015 19.2378V20.0676L25.6001 18.7894L29.4816 20.9435L23.5015 24.4116L19.5141 22.2709V26.6208Z" fill="#EDB120"/>
<path d="M19.5141 26.6208L14.6903 29.3656L10.8271 27.1794L15.5182 24.4972M19.5141 26.6208V21.6574M19.5141 26.6208L15.5182 24.4972M19.5141 21.6574L23.5015 19.2378M19.5141 21.6574L15.5182 19.3894M19.5141 21.6574V22.2709L23.5015 24.4116M23.5015 19.2378L19.5141 17.0281L15.5182 19.3894M23.5015 19.2378V20.0676M23.5015 24.4116L29.4816 20.9435L25.6001 18.7894L23.5015 20.0676M23.5015 24.4116V20.0676M15.5182 19.3894V24.4972" stroke="#745A26" stroke-linejoin="round"/>
</svg>
