<svg width="51" height="41" viewBox="0 0 51 41" fill="none" xmlns="http://www.w3.org/2000/svg">
<path d="M6.01123 27.7523V12.7523L25.0112 1.75232L44.0112 12.7523V27.7523L25.0112 38.7523L6.01123 27.7523Z" fill="var(--mw-icon-background-default-white, #FFFFFF)"/>
<path d="M25.0112 17.2523L25.017 2.33594L43.5309 13.0062V27.8748L25.0112 17.2523Z" fill="var(--mw-icon-background-default-light-gray, #F5F5F5)"/>
<path d="M25.0112 17.2523L25.0054 2.33594L6.49157 13.0198L6.49157 27.8748L25.0112 17.2523Z" fill="#E6E6E6"/>
<path d="M44.0112 27.7523V12.7114L25.0112 1.75232L6.01123 12.7223" stroke="#BFBFBF" stroke-linecap="round" stroke-linejoin="round"/>
<path d="M6.01123 12.7523V27.7823L25.0112 38.7523L44.0112 27.7875" stroke="var(--mw-icon-border-default-gray, #616161)" stroke-linecap="round" stroke-linejoin="round"/>
<path d="M29 12.5C29 13.6046 26.5376 14.5 23.5 14.5C20.4624 14.5 18 13.6046 18 12.5C18 11.3954 20.4624 10.5 23.5 10.5C26.5376 10.5 29 11.3954 29 12.5ZM29 12.5C29 12.5 30 13.8431 30 15.5C30 17.1569 29 18.5 29 18.5M29 12.5C29 12.5 30 11.1569 30 9.5C30 7.84315 29 6.5 29 6.5M29 18.5C29 19.6046 26.5376 20.5 23.5 20.5C20.4624 20.5 18 19.6046 18 18.5C18 17.3954 20.4624 16.5 23.5 16.5C26.5376 16.5 29 17.3954 29 18.5ZM29 18.5C29 18.5 30 19.8431 30 21.5C30 23.1569 29 24.5 29 24.5M29 24.5C29 24.5 30 25.8431 30 27.5M29 24.5C29 25.6046 26.5376 26.5 23.5 26.5C20.4624 26.5 18 25.6046 18 24.5C18 23.3954 20.4624 22.5 23.5 22.5C26.5376 22.5 29 23.3954 29 24.5Z" stroke="#4A3A19" stroke-linecap="round"/>
</svg>
