<svg width="50" height="40" viewBox="0 0 50 40" fill="none" xmlns="http://www.w3.org/2000/svg">
<path d="M5.5 27V12L24.5 1L43.5 12V27L24.5 38L5.5 27Z" fill="var(--mw-icon-background-default-white, #FFFFFF)"/>
<path d="M24.5 16.5L24.5058 1.58362L43.0197 12.2539V27.1225L24.5 16.5Z" fill="var(--mw-icon-background-default-light-gray, #F5F5F5)"/>
<path d="M24.5 16.5L24.4942 1.58362L5.98034 12.2675L5.98034 27.1225L24.5 16.5Z" fill="#E6E6E6"/>
<path d="M43.5 27V11.959L24.5 1L5.5 11.97" stroke="#BFBFBF" stroke-linecap="round" stroke-linejoin="round"/>
<path d="M5.5 12V27.03L24.5 38L43.5 27.0352" stroke="var(--mw-icon-border-default-gray, #616161)" stroke-linecap="round" stroke-linejoin="round"/>
<path d="M28.2214 17.674C30.0836 18.4124 31.5172 19.2617 31.8677 19.7792C32.5056 20.7212 34.0603 22.1027 31.8677 24.6145C29.6751 27.1263 25.2499 27.7857 24.0938 28.0683C22.9377 28.3509 16.0478 28.2829 16.0478 26.7186C16.0478 25.7208 18.881 25.525 20.263 25.4309L29.5156 30.9569C32.4498 29.6758 33.0504 27.5136 32.984 26.5926C31.788 23.1388 29.7947 22.9504 27.004 21.7573C24.2134 20.5642 19.7924 20.9773 17.7732 21.098C15.5513 21.2307 15.0548 23.2263 18.4111 23.4528C21.7155 23.6758 25.0506 23.547 28.5189 22.1341C31.9873 20.7212 33.9806 18.1466 32.386 15.8859C30.7913 13.6253 29.3163 13.4997 26.4459 12.2752C24.1496 11.2956 20.4128 11.4484 18.8315 11.6472C19.6926 12.1496 26.4991 15.3731 29.7947 16.922L28.2214 17.674ZM28.2214 17.674C26.6944 17.0685 24.8793 16.5377 23.137 16.3255C19.27 15.8545 16.0478 16.3745 16.0478 17.5048C16.0478 18.6351 19.6687 19.2141 21.5822 19.0571C23.4958 18.9001 27.0866 18.1434 28.2214 17.674ZM17.0408 30.7097C19.9644 31.39 27.2751 31.1892 32.1866 26.5926C32.7049 25.9751 33.4305 24.3068 32.1866 22.5737C30.6319 20.4072 26.127 19.0571 25.2499 19.0571C24.3729 19.0571 16.5443 16.2418 16.0478 19.7341C16.0478 20.7319 16.5352 21.3805 23.137 21.2549C25.4094 21.0247 30.4405 19.8358 32.386 16.922C32.9707 16.0848 33.5182 13.9832 31.0305 12.2752L17.6355 16.5767C16.5192 16.1894 15.0548 14.7451 17.0408 14.2462C18.9425 13.7685 21.4361 13.7823 22.858 13.9079C24.8114 14.1486 29.3003 15.1449 31.6285 17.2046C32.4125 17.9686 33.6218 19.9488 32.1866 21.7573C30.3927 24.018 28.3595 24.5203 25.2499 25.5564C22.1404 26.5926 16.0478 26.3243 16.0478 24.723C16.0478 23.1217 22.0483 22.8876 22.858 23.1702C23.6676 23.4528 27.2034 23.6726 29.7947 25.2425L31.0305 26.153L17.0408 30.7097Z" stroke="#4A3A19" stroke-linejoin="round"/>
</svg>
