<svg width="50" height="40" viewBox="0 0 50 40" fill="none" xmlns="http://www.w3.org/2000/svg">
<path d="M5.5 27V12L24.5 1L43.5 12V27L24.5 38L5.5 27Z" fill="var(--mw-icon-background-default-white, #FFFFFF)"/>
<path d="M24.5 16.5001L24.5058 1.58374L43.0197 12.254V27.1226L24.5 16.5001Z" fill="var(--mw-icon-background-default-light-gray, #F5F5F5)"/>
<path d="M24.5 16.4999L24.4942 1.5835L5.98034 12.2674L5.98034 27.1224L24.5 16.4999Z" fill="#E6E6E6"/>
<path d="M43.5 27V11.959L24.5 1L5.5 11.97" stroke="#BFBFBF" stroke-linecap="round" stroke-linejoin="round"/>
<path d="M5.5 12V27.03L24.5 38L43.5 27.0352" stroke="var(--mw-icon-border-default-gray, #616161)" stroke-linecap="round" stroke-linejoin="round"/>
<path d="M34.0362 15.1697L34.0361 10.6309L36.5362 12.0893V16.5508L34.0362 15.1697Z" fill="#B3882A" stroke="#745A26" stroke-linejoin="round"/>
<path d="M36.5402 16.5934L34.0361 15.1697L13.5361 27.1697L16.0248 28.6226L36.5402 16.5934Z" fill="#B3882A" stroke="#745A26" stroke-linejoin="round"/>
<path d="M36.5176 12.0083L33.9862 10.4568L13.567 22.2436L16.0361 23.6697L36.5176 12.0083Z" fill="#EDB120" stroke="#745A26" stroke-linejoin="round"/>
<path d="M13.5361 27.1698L13.5362 22.2847L16.0361 23.7319V28.6137L13.5361 27.1698Z" fill="#EDB120" stroke="#745A26" stroke-linejoin="round"/>
</svg>
