<svg width="51" height="41" viewBox="0 0 51 41" fill="none" xmlns="http://www.w3.org/2000/svg">
<path d="M6.47607 27.5476V12.5476L25.4761 1.54761L44.4761 12.5476V27.5476L25.4761 38.5476L6.47607 27.5476Z" fill="var(--mw-icon-background-default-white, #FFFFFF)"/>
<path d="M25.4761 17.0477L25.4819 2.13135L43.9957 12.8016V27.6702L25.4761 17.0477Z" fill="var(--mw-icon-background-default-light-gray, #F5F5F5)"/>
<path d="M25.4761 17.0477L25.4703 2.13135L6.95641 12.8152L6.95642 27.6702L25.4761 17.0477Z" fill="#E6E6E6"/>
<path d="M44.4761 27.5476V12.5066L25.4761 1.54761L6.47607 12.5176" stroke="#BFBFBF" stroke-linecap="round" stroke-linejoin="round"/>
<path d="M6.47607 12.5476V27.5776L25.4761 38.5476L44.4761 27.5828" stroke="var(--mw-icon-border-default-gray, #616161)" stroke-linecap="round" stroke-linejoin="round"/>
<path d="M20.5 8.6408L23.5119 6.99998V25.6805L27.5 27.9794V20.4187L30.5 18.6015V24.9551V29.7806L27.5 31.5042L20.5 27.3922V8.6408Z" fill="#EDB120"/>
<path d="M23.5119 25.6805V6.99998L20.5 8.6408V27.3922M23.5119 25.6805L27.5 27.9794M23.5119 25.6805L20.5 27.3922M27.5 27.9794V20.4187L30.5 18.6015V24.9551V29.7806L27.5 31.5042M27.5 27.9794V31.5042M20.5 27.3922L27.5 31.5042" stroke="#745A26" stroke-linejoin="round"/>
</svg>
