<svg width="50" height="40" viewBox="0 0 50 40" fill="none" xmlns="http://www.w3.org/2000/svg">
<path d="M43.5 19.5C43.5 29.9934 34.9934 38.5 24.5 38.5C14.0066 38.5 5.5 29.9934 5.5 19.5C5.5 9.00659 14.0066 0.5 24.5 0.5C34.9934 0.5 43.5 9.00659 43.5 19.5ZM12.15 19.5C12.15 26.3207 17.6793 31.85 24.5 31.85C31.3207 31.85 36.85 26.3207 36.85 19.5C36.85 12.6793 31.3207 7.15 24.5 7.15C17.6793 7.15 12.15 12.6793 12.15 19.5Z" fill="#DD5400"/>
<path d="M43.5 19.5C43.5 15.5386 42.2618 11.6762 39.9586 8.45315C37.6553 5.23009 34.4023 2.80755 30.6544 1.52438C26.9066 0.241201 22.8514 0.161567 19.056 1.29662C15.2607 2.43166 11.915 4.72462 9.48705 7.85477C7.05906 10.9849 5.67017 14.7957 5.51465 18.7541C5.35912 22.7124 6.44474 26.6204 8.61966 29.9314C10.7946 33.2424 13.95 35.7908 17.6446 37.2201C21.3392 38.6495 25.3881 38.8882 29.2251 37.9031L27.5713 31.462C25.0773 32.1024 22.4455 31.9472 20.044 31.0181C17.6425 30.089 15.5915 28.4326 14.1778 26.2804C12.7641 24.1283 12.0584 21.5881 12.1595 19.0151C12.2606 16.4422 13.1634 13.9652 14.7416 11.9306C16.3198 9.896 18.4945 8.40558 20.9614 7.6678C23.4284 6.93002 26.0643 6.98178 28.5004 7.81585C30.9365 8.64991 33.051 10.2246 34.5481 12.3195C36.0452 14.4145 36.85 16.9251 36.85 19.5H43.5Z" fill="#EDB120"/>
<path d="M43.5 19.5C43.5 16.4007 42.7418 13.3484 41.2915 10.6093C39.8413 7.87026 37.743 5.52755 35.1796 3.78547C32.6162 2.04339 29.6656 0.954844 26.585 0.614742C23.5043 0.27464 20.3873 0.69331 17.5056 1.83425C14.624 2.97518 12.0651 4.80374 10.0523 7.16049C8.03944 9.51723 6.63368 12.3306 5.95758 15.3553C5.28149 18.38 5.35558 21.5241 6.17341 24.5136C6.99124 27.5031 8.52796 30.2471 10.6496 32.5064L15.4972 27.9542C14.1182 26.4856 13.1193 24.702 12.5877 22.7588C12.0561 20.8157 12.008 18.772 12.4474 16.8059C12.8869 14.8399 13.8006 13.0112 15.109 11.4793C16.4173 9.94743 18.0806 8.75887 19.9537 8.01726C21.8268 7.27565 23.8528 7.00352 25.8552 7.22458C27.8576 7.44565 29.7755 8.15321 31.4417 9.28556C33.1079 10.4179 34.4718 11.9407 35.4145 13.7211C36.3572 15.5015 36.85 17.4854 36.85 19.5H43.5Z" fill="#8516D1"/>
<path d="M43.5 19.5C43.5 14.7704 41.736 10.2109 38.553 6.71276C35.3699 3.21463 30.9966 1.02941 26.2881 0.584323C21.5795 0.139231 16.8742 1.46627 13.092 4.30599C9.30986 7.14572 6.72277 11.294 5.83654 15.9398L12.3688 17.1858C12.9448 14.1661 14.6264 11.4697 17.0848 9.62389C19.5432 7.77807 22.6017 6.9155 25.6622 7.20481C28.7228 7.49412 31.5655 8.91451 33.6344 11.1883C35.7034 13.4621 36.85 16.4258 36.85 19.5H43.5Z" fill="#3BAA32"/>
<path d="M43.5 19.5C43.5 15.8945 42.4741 12.3635 40.5422 9.31929C38.6103 6.27509 35.8521 3.84342 32.5898 2.30829C29.3275 0.773153 25.6957 0.197936 22.1187 0.649821C18.5416 1.10171 15.167 2.56204 12.3889 4.86025L16.6278 9.98416C18.4336 8.49032 20.6271 7.54111 22.9521 7.24738C25.2772 6.95366 27.6379 7.32755 29.7584 8.32539C31.8789 9.32322 33.6717 10.9038 34.9274 12.8825C36.1832 14.8613 36.85 17.1564 36.85 19.5H43.5Z" fill="#2FBEEF"/>
<path d="M43.5 19.5C43.5 16.6024 42.8373 13.7433 41.5625 11.1412C40.2878 8.53906 38.4348 6.26299 36.1452 4.48705C33.8557 2.71112 31.1903 1.48236 28.353 0.894767C25.5156 0.307177 22.5814 0.376324 19.7749 1.09692L21.4287 7.538C23.2529 7.06961 25.1601 7.02467 27.0044 7.4066C28.8487 7.78853 30.5812 8.58723 32.0694 9.74159C33.5576 10.8959 34.7621 12.3754 35.5906 14.0668C36.4192 15.7581 36.85 17.6166 36.85 19.5H43.5Z" fill="#D1048B"/>
<path d="M43.5 19.5C43.5 17.0049 43.0086 14.5342 42.0537 12.229C41.0989 9.92383 39.6993 7.82928 37.935 6.06497C36.1707 4.30066 34.0762 2.90113 31.771 1.94629C29.4658 0.991449 26.9951 0.5 24.5 0.5L24.5 7.15C26.1218 7.15 27.7278 7.46944 29.2261 8.09009C30.7245 8.71073 32.086 9.62043 33.2328 10.7672C34.3796 11.914 35.2893 13.2755 35.9099 14.7739C36.5306 16.2722 36.85 17.8782 36.85 19.5H43.5Z" fill="#1171BE"/>
<path d="M43.5 19.5C43.5 29.9934 34.9934 38.5 24.5 38.5C14.0066 38.5 5.5 29.9934 5.5 19.5C5.5 9.00659 14.0066 0.5 24.5 0.5C34.9934 0.5 43.5 9.00659 43.5 19.5ZM12.15 19.5C12.15 26.3207 17.6793 31.85 24.5 31.85C31.3207 31.85 36.85 26.3207 36.85 19.5C36.85 12.6793 31.3207 7.15 24.5 7.15C17.6793 7.15 12.15 12.6793 12.15 19.5Z" stroke="var(--mw-icon-object-primary, #616160)"/>
<path d="M43.5 19.5C43.5 15.5386 42.2618 11.6762 39.9586 8.45315C37.6553 5.23009 34.4023 2.80755 30.6544 1.52438C26.9066 0.241201 22.8514 0.161567 19.056 1.29662C15.2607 2.43166 11.915 4.72462 9.48705 7.85477C7.05906 10.9849 5.67017 14.7957 5.51465 18.7541C5.35912 22.7124 6.44474 26.6204 8.61966 29.9314C10.7946 33.2424 13.95 35.7908 17.6446 37.2201C21.3392 38.6495 25.3881 38.8882 29.2251 37.9031L27.5713 31.462C25.0773 32.1024 22.4455 31.9472 20.044 31.0181C17.6425 30.089 15.5915 28.4326 14.1778 26.2804C12.7641 24.1283 12.0584 21.5881 12.1595 19.0151C12.2606 16.4422 13.1634 13.9652 14.7416 11.9306C16.3198 9.896 18.4945 8.40558 20.9614 7.6678C23.4284 6.93002 26.0643 6.98178 28.5004 7.81585C30.9365 8.64991 33.051 10.2246 34.5481 12.3195C36.0452 14.4145 36.85 16.9251 36.85 19.5H43.5Z" stroke="var(--mw-icon-object-primary, #616160)" stroke-linejoin="round"/>
<path d="M43.5 19.5C43.5 16.4007 42.7418 13.3484 41.2915 10.6093C39.8413 7.87026 37.743 5.52755 35.1796 3.78547C32.6162 2.04339 29.6656 0.954844 26.585 0.614742C23.5043 0.27464 20.3873 0.69331 17.5056 1.83425C14.624 2.97518 12.0651 4.80374 10.0523 7.16049C8.03944 9.51723 6.63368 12.3306 5.95758 15.3553C5.28149 18.38 5.35558 21.5241 6.17341 24.5136C6.99124 27.5031 8.52796 30.2471 10.6496 32.5064L15.4972 27.9542C14.1182 26.4856 13.1193 24.702 12.5877 22.7588C12.0561 20.8157 12.008 18.772 12.4474 16.8059C12.8869 14.8399 13.8006 13.0112 15.109 11.4793C16.4173 9.94743 18.0806 8.75887 19.9537 8.01726C21.8268 7.27565 23.8528 7.00352 25.8552 7.22458C27.8576 7.44565 29.7755 8.15321 31.4417 9.28556C33.1079 10.4179 34.4718 11.9407 35.4145 13.7211C36.3572 15.5015 36.85 17.4854 36.85 19.5H43.5Z" stroke="var(--mw-icon-object-primary, #616160)" stroke-linejoin="round"/>
<path d="M43.5 19.5C43.5 14.7704 41.736 10.2109 38.553 6.71276C35.3699 3.21463 30.9966 1.02941 26.2881 0.584323C21.5795 0.139231 16.8742 1.46627 13.092 4.30599C9.30986 7.14572 6.72277 11.294 5.83654 15.9398L12.3688 17.1858C12.9448 14.1661 14.6264 11.4697 17.0848 9.62389C19.5432 7.77807 22.6017 6.9155 25.6622 7.20481C28.7228 7.49412 31.5655 8.91451 33.6344 11.1883C35.7034 13.4621 36.85 16.4258 36.85 19.5H43.5Z" stroke="var(--mw-icon-object-primary, #616160)" stroke-linejoin="round"/>
<path d="M43.5 19.5C43.5 15.8945 42.4741 12.3635 40.5422 9.31929C38.6103 6.27509 35.8521 3.84342 32.5898 2.30829C29.3275 0.773153 25.6957 0.197936 22.1187 0.649821C18.5416 1.10171 15.167 2.56204 12.3889 4.86025L16.6278 9.98416C18.4336 8.49032 20.6271 7.54111 22.9521 7.24738C25.2772 6.95366 27.6379 7.32755 29.7584 8.32539C31.8789 9.32322 33.6717 10.9038 34.9274 12.8825C36.1832 14.8613 36.85 17.1564 36.85 19.5H43.5Z" stroke="var(--mw-icon-object-primary, #616160)" stroke-linejoin="round"/>
<path d="M43.5 19.5C43.5 16.6024 42.8373 13.7433 41.5625 11.1412C40.2878 8.53906 38.4348 6.26299 36.1452 4.48705C33.8557 2.71112 31.1903 1.48236 28.353 0.894767C25.5156 0.307177 22.5814 0.376324 19.7749 1.09692L21.4287 7.538C23.2529 7.06961 25.1601 7.02467 27.0044 7.4066C28.8487 7.78853 30.5812 8.58723 32.0694 9.74159C33.5576 10.8959 34.7621 12.3754 35.5906 14.0668C36.4192 15.7581 36.85 17.6166 36.85 19.5H43.5Z" stroke="var(--mw-icon-object-primary, #616160)" stroke-linejoin="round"/>
<path d="M43.5 19.5C43.5 17.0049 43.0086 14.5342 42.0537 12.229C41.0989 9.92383 39.6993 7.82928 37.935 6.06497C36.1707 4.30066 34.0762 2.90113 31.771 1.94629C29.4658 0.991449 26.9951 0.5 24.5 0.5L24.5 7.15C26.1218 7.15 27.7278 7.46944 29.2261 8.09009C30.7245 8.71073 32.086 9.62043 33.2328 10.7672C34.3796 11.914 35.2893 13.2755 35.9099 14.7739C36.5306 16.2722 36.85 17.8782 36.85 19.5H43.5Z" stroke="var(--mw-icon-object-primary, #616160)" stroke-linejoin="round"/>
</svg>
