<svg width="51" height="41" viewBox="0 0 51 41" fill="none" xmlns="http://www.w3.org/2000/svg">
<path d="M6.48657 27.1252V12.1252L25.4866 1.12524L44.4866 12.1252V27.1252L25.4866 38.1252L6.48657 27.1252Z" fill="var(--mw-icon-background-default-white, #FFFFFF)"/>
<path d="M25.4866 16.6252L25.4924 1.70886L44.0062 12.3792V27.2477L25.4866 16.6252Z" fill="var(--mw-icon-background-default-light-gray, #F5F5F5)"/>
<path d="M25.4866 16.6252L25.4808 1.70886L6.96691 12.3927L6.96691 27.2477L25.4866 16.6252Z" fill="#E6E6E6"/>
<path d="M44.4866 27.1252V12.0843L25.4866 1.12524L6.48657 12.0952" stroke="#BFBFBF" stroke-linecap="round" stroke-linejoin="round"/>
<path d="M6.48657 12.1252V27.1552L25.4866 38.1252L44.4866 27.1604" stroke="var(--mw-icon-border-default-gray, #616161)" stroke-linecap="round" stroke-linejoin="round"/>
<path d="M9 22.5L25.5 13L42 22.5L25.5 32L9 22.5Z" fill="#EDB120" stroke="#745A26" stroke-linejoin="round"/>
<path d="M24.5184 26.9937L19.5 24.5576V15.3004L29.4108 9.5L34.5134 12.4298V21.1998L24.5184 26.9937Z" fill="var(--mw-icon-glyph-content-green, #008014)"/>
<path d="M24.5184 18.1305V26.9937M24.5184 18.1305L19.5 15.3004M24.5184 18.1305L34.5134 12.4298M24.5184 26.9937L19.5 24.5576V15.3004M24.5184 26.9937L34.5134 21.1998V12.4298M19.5 15.3004L29.4108 9.5L34.5134 12.4298" stroke="#013E0A" stroke-linejoin="round"/>
</svg>
