<svg width="50" height="40" viewBox="0 0 50 40" fill="none" xmlns="http://www.w3.org/2000/svg">
<path d="M0.5 1.5C0.5 0.947716 0.947715 0.5 1.5 0.5H47.5C48.0523 0.5 48.5 0.947715 48.5 1.5V37.5C48.5 38.0523 48.0523 38.5 47.5 38.5H1.5C0.947714 38.5 0.5 38.0523 0.5 37.5V1.5Z" fill="var(--mw-icon-background-default-white, #FFFFFF)"/>
<path d="M20 25V12.8824C20 11.0006 20.5021 9.71218 21.5063 9.017C22.5105 8.31584 23.6216 7.96525 24.8397 7.96525C26.0706 7.96525 27.1072 8.28288 27.9495 8.91812C28.7917 9.54737 29.2128 10.3684 29.2128 11.3812C29.2128 12.0404 28.9861 12.6217 28.5326 13.1251C28.079 13.6225 27.5154 13.9491 26.8416 14.105C27.93 14.2728 28.7269 14.7072 29.2323 15.4084C29.7441 16.1036 30 16.8797 30 17.7366C30 18.7914 29.6566 19.6963 28.9699 20.4514C28.2831 21.2065 27.3469 21.5841 26.1613 21.5841C24.7943 21.5841 23.6508 21.0477 22.7308 19.975V25H20ZM23.965 13.5296C24.7943 13.5177 25.4422 13.3349 25.9086 12.9813C26.3751 12.6277 26.6084 12.1782 26.6084 11.6329C26.6084 11.1355 26.4205 10.734 26.0447 10.4283C25.6754 10.1167 25.2284 9.96088 24.7036 9.96088C24.2501 9.96088 23.8614 10.0897 23.5374 10.3474C23.22 10.5991 23.0062 10.9257 22.896 11.3273C22.7859 11.7288 22.7308 12.3161 22.7308 13.0892V15.8039C22.7308 16.619 22.8053 17.2752 22.9543 17.7726C23.1098 18.264 23.4176 18.6895 23.8776 19.0491C24.3375 19.4086 24.8364 19.5884 25.3741 19.5884C25.8925 19.5884 26.3265 19.4116 26.6764 19.0581C27.0262 18.6985 27.2012 18.24 27.2012 17.6827C27.2012 16.8677 26.9355 16.2055 26.4043 15.6961C25.8795 15.1867 25.0664 14.932 23.965 14.932V13.5296Z" fill="var(--mw-icon-glyph-content-light-blue, #278CDD)"/>
<path d="M21.6151 6.65185L23.6559 4H26.1826L28.1943 6.65185H25.998L24.8707 5.31244L23.8211 6.65185H21.6151Z" fill="var(--mw-icon-glyph-content-light-blue, #278CDD)"/>
<path d="M10.6701 33.8123V34.9065H6.96557V33.8123H10.6701ZM7.43401 28.0982V34.9065H6V28.0982H7.43401ZM10.1873 30.8711V31.9372H6.96557V30.8711H10.1873ZM10.6653 28.0982V29.1971H6.96557V28.0982H10.6653Z" fill="var(--mw-icon-glyph-content-dark-gray, #333333)"/>
<path d="M17.0032 31.348V34.0461C16.8948 34.1739 16.7275 34.3126 16.5013 34.4623C16.275 34.6088 15.9835 34.735 15.6265 34.841C15.2696 34.947 14.8378 35 14.3312 35C13.8818 35 13.4723 34.9283 13.1027 34.7849C12.733 34.6384 12.4144 34.4248 12.1467 34.1443C11.8822 33.8637 11.6782 33.5208 11.5348 33.1156C11.3914 32.7072 11.3197 32.2411 11.3197 31.7174V31.2919C11.3197 30.7682 11.3882 30.3022 11.5253 29.8938C11.6655 29.4854 11.8647 29.1409 12.1228 28.8604C12.3809 28.5798 12.6884 28.3663 13.0453 28.2198C13.4022 28.0733 13.799 28 14.2355 28C14.841 28 15.3381 28.0966 15.7269 28.2899C16.1157 28.4801 16.4121 28.745 16.616 29.0848C16.8231 29.4215 16.9506 29.8081 16.9984 30.2445H15.6074C15.5724 30.0138 15.5054 29.8127 15.4067 29.6413C15.3079 29.4698 15.1661 29.3358 14.9812 29.2391C14.7996 29.1425 14.5638 29.0942 14.2738 29.0942C14.0348 29.0942 13.8213 29.1425 13.6333 29.2391C13.4484 29.3327 13.2923 29.4714 13.1648 29.6553C13.0374 29.8392 12.9402 30.0668 12.8732 30.338C12.8063 30.6092 12.7729 30.9241 12.7729 31.2826V31.7174C12.7729 32.0728 12.8079 32.3877 12.878 32.662C12.9481 32.9332 13.0517 33.1623 13.1887 33.3494C13.3289 33.5333 13.501 33.672 13.705 33.7655C13.9089 33.8591 14.1463 33.9058 14.4172 33.9058C14.6434 33.9058 14.8315 33.8871 14.9812 33.8497C15.1342 33.8123 15.2569 33.7671 15.3493 33.7141C15.4449 33.658 15.5182 33.605 15.5692 33.5551V32.3487H14.2595V31.348H17.0032Z" fill="var(--mw-icon-glyph-content-dark-gray, #333333)"/>
<path d="M20.9702 29.2625L19.0773 34.9065H17.5524L20.1384 28.0982H21.1088L20.9702 29.2625ZM22.5428 34.9065L20.6451 29.2625L20.4922 28.0982H21.4721L24.0724 34.9065H22.5428ZM22.4568 32.3721V33.4709H18.7809V32.3721H22.4568Z" fill="var(--mw-icon-glyph-content-dark-gray, #333333)"/>
<path d="M24.6981 28.0982H27.2937C27.8259 28.0982 28.2832 28.1761 28.6656 28.332C29.0512 28.4879 29.3475 28.7185 29.5547 29.024C29.7618 29.3295 29.8654 29.7052 29.8654 30.151C29.8654 30.5157 29.8016 30.829 29.6742 31.0908C29.5499 31.3496 29.373 31.5662 29.1436 31.7408C28.9173 31.9123 28.6512 32.0494 28.3453 32.1523L27.8912 32.3861H25.635L25.6255 31.2919H27.3033C27.555 31.2919 27.7637 31.2483 27.9294 31.161C28.0952 31.0737 28.2194 30.9521 28.3023 30.7963C28.3883 30.6404 28.4314 30.4596 28.4314 30.2538C28.4314 30.0356 28.3899 29.847 28.3071 29.688C28.2242 29.5291 28.0983 29.4075 27.9294 29.3233C27.7606 29.2391 27.5486 29.1971 27.2937 29.1971H26.1322V34.9065H24.6981V28.0982ZM28.5891 34.9065L27.0021 31.8717L28.5174 31.8624L30.1235 34.841V34.9065H28.5891Z" fill="var(--mw-icon-glyph-content-dark-gray, #333333)"/>
<path d="M34.9843 32.648H36.4136C36.3849 33.1062 36.2558 33.513 36.0264 33.8684C35.8001 34.2238 35.483 34.5012 35.0752 34.7007C34.6704 34.9002 34.1829 35 33.6125 35C33.1663 35 32.7664 34.9252 32.4127 34.7756C32.0589 34.6228 31.7562 34.4046 31.5045 34.1209C31.2559 33.8372 31.0663 33.4943 30.9356 33.0922C30.805 32.69 30.7397 32.2396 30.7397 31.7408V31.2685C30.7397 30.7698 30.8066 30.3193 30.9404 29.9172C31.0774 29.5119 31.2718 29.1674 31.5236 28.8838C31.7785 28.6001 32.0828 28.3819 32.4366 28.2291C32.7903 28.0764 33.1854 28 33.622 28C34.202 28 34.6912 28.1029 35.0895 28.3086C35.491 28.5144 35.8017 28.798 36.0216 29.1597C36.2447 29.5213 36.3785 29.9328 36.4231 30.3941H34.9891C34.9732 30.1198 34.9174 29.8876 34.8218 29.6974C34.7262 29.5041 34.5812 29.3592 34.3868 29.2625C34.1956 29.1628 33.9407 29.1129 33.622 29.1129C33.383 29.1129 33.1743 29.1565 32.9958 29.2438C32.8174 29.3311 32.6676 29.4636 32.5465 29.6413C32.4254 29.819 32.3346 30.0434 32.274 30.3146C32.2167 30.5827 32.188 30.8976 32.188 31.2592V31.7408C32.188 32.0931 32.2151 32.4033 32.2693 32.6713C32.3234 32.9363 32.4063 33.1608 32.5178 33.3447C32.6325 33.5255 32.7791 33.6627 32.9576 33.7562C33.1392 33.8466 33.3575 33.8918 33.6125 33.8918C33.912 33.8918 34.159 33.845 34.3534 33.7515C34.5478 33.658 34.6959 33.5193 34.7979 33.3353C34.9031 33.1514 34.9652 32.9223 34.9843 32.648Z" fill="var(--mw-icon-glyph-content-dark-gray, #333333)"/>
<path d="M41.9771 30.8711V31.9653H38.3442V30.8711H41.9771ZM38.7697 28.0982V34.9065H37.3357V28.0982H38.7697ZM43 28.0982V34.9065H41.5708V28.0982H43Z" fill="var(--mw-icon-glyph-content-dark-gray, #333333)"/>
<rect x="0.5" y="0.5" width="48" height="38" rx="1" stroke="var(--mw-icon-border-default-gray, #616161)"/>
</svg>
