<svg width="50" height="40" viewBox="0 0 50 40" fill="none" xmlns="http://www.w3.org/2000/svg">
<rect x="0.5" y="0.5" width="48" height="38" rx="1" fill="var(--mw-icon-background-default-white, white)"/>
<path d="M36.1894 0.962727C36.445 0.858107 36.5673 0.566127 36.4627 0.31057C36.3581 0.0550127 36.0661 -0.0673463 35.8106 0.0372731L36.1894 0.962727ZM27.381 12.6507L26.8821 12.6172L27.381 12.6507ZM14.8016 38.0411C14.5481 38.1507 14.4315 38.445 14.5411 38.6984C14.6507 38.9519 14.945 39.0685 15.1984 38.9589L14.8016 38.0411ZM35.8106 0.0372731C35.222 0.278201 34.4018 0.828434 33.5147 1.57383C32.6173 2.32786 31.6191 3.30914 30.6752 4.44356C28.7989 6.69853 27.0829 9.62464 26.8821 12.6172L27.8798 12.6842C28.06 10 29.6217 7.27316 31.4439 5.08316C32.3492 3.99509 33.3053 3.05587 34.158 2.33944C35.0209 1.61437 35.7462 1.14417 36.1894 0.962727L35.8106 0.0372731ZM26.8821 12.6172C26.7615 14.4132 26.8811 16.5581 26.8884 18.7583C26.8958 20.9859 26.7916 23.3312 26.2398 25.6496C25.1458 30.246 22.2778 34.8083 14.8016 38.0411L15.1984 38.9589C22.9603 35.6026 26.0447 30.7883 27.2126 25.8812C27.7917 23.4479 27.8959 21.0098 27.8884 18.755C27.8808 16.4728 27.7623 14.4361 27.8798 12.6842L26.8821 12.6172Z" fill="#0072BD"/>
<rect x="0.5" y="0.5" width="48" height="38" rx="1" stroke="var(--mw-icon-border-default-gray, #616161)"/>

</svg>
