<svg width="50" height="40" viewBox="0 0 50 40" fill="none" xmlns="http://www.w3.org/2000/svg">
<rect x="0.5" y="0.5" width="48" height="38" rx="1" fill="var(--mw-icon-background-default-white, #FFFFFF)"/>
<path d="M6.5 8.5L6.5 12.5L6.5 16.5" stroke="#0072BD" stroke-linecap="round"/>
<path d="M7.5625 8.5L5.5 8.5" stroke="#0072BD" stroke-linecap="round"/>
<path d="M7.5625 16.4688L5.5 16.4688" stroke="#0072BD" stroke-linecap="round"/>
<path d="M12.5 6.5L12.5 10.5L12.5 14.5" stroke="#0072BD" stroke-linecap="round"/>
<path d="M13.5 6.5L11.5 6.5" stroke="#0072BD" stroke-linecap="round"/>
<path d="M13.5 14.5L11.5 14.5" stroke="#0072BD" stroke-linecap="round"/>
<path d="M18.5 9.5L18.5 13.5L18.5 17.5" stroke="#0072BD" stroke-linecap="round"/>
<path d="M19.5 9.5L17.5 9.5" stroke="#0072BD" stroke-linecap="round"/>
<path d="M19.4395 17.5L17.5001 17.5" stroke="#0072BD" stroke-linecap="round"/>
<path d="M24.5005 16.5L24.5005 20.5L24.5005 24.5" stroke="#0072BD" stroke-linecap="round"/>
<path d="M25.5 16.5L23.5 16.5" stroke="#0072BD" stroke-linecap="round"/>
<path d="M25.5 24.5L23.5 24.5" stroke="#0072BD" stroke-linecap="round"/>
<path d="M30.5 22.5L30.5 26.5L30.5 30.5" stroke="#0072BD" stroke-linecap="round"/>
<path d="M31.5005 22.5L29.5005 22.5" stroke="#0072BD" stroke-linecap="round"/>
<path d="M31.5005 30.5L29.5005 30.5" stroke="#0072BD" stroke-linecap="round"/>
<path d="M36.5005 26.5L36.5005 30.5L36.5005 34.5" stroke="#0072BD" stroke-linecap="round"/>
<path d="M37.563 26.4844H35.5005" stroke="#0072BD" stroke-linecap="round"/>
<path d="M37.5 34.5L35.5 34.5" stroke="#0072BD" stroke-linecap="round"/>
<path d="M42.5 23.5L42.5 27.5L42.5 31.5" stroke="#0072BD" stroke-linecap="round"/>
<path d="M43.501 23.5H41.501" stroke="#0072BD" stroke-linecap="round"/>
<path d="M43.501 31.5L41.501 31.5" stroke="#0072BD" stroke-linecap="round"/>
<path d="M0.5 20C0.5 20 4.91103 10.5 12.0862 10.5C19.2614 10.5 28.4972 30.5 36.0862 30.5C43.6752 30.5 48.5 20 48.5 20" stroke="#0072BD" stroke-miterlimit="10"/>
<rect x="0.5" y="0.5" width="48" height="38" rx="1" stroke="var(--mw-icon-border-default-gray, #616161)"/>
</svg>
