<svg width="50" height="40" viewBox="0 0 50 40" fill="none" xmlns="http://www.w3.org/2000/svg">
<rect x="0.5" y="0.5" width="48" height="38" rx="1" fill="var(--mw-icon-background-default-white, #FFFFFF)"/>
<path d="M0.5 19.5L7.5 7.5L19 31.5L31 6.5L42 31.5L48.5 19.5" stroke="#0072BD" stroke-miterlimit="10" stroke-linejoin="round"/>
<path d="M10.5 7.5L7.5 7.5L4.5 7.5" stroke="#0072BD" stroke-linecap="round"/>
<path d="M10.5 8.5L10.5 6.5" stroke="#0072BD" stroke-linecap="round"/>
<path d="M4.5 8.5L4.5 6.5" stroke="#0072BD" stroke-linecap="round"/>
<path d="M34.5 6.5L31 6.5L27.5 6.5" stroke="#0072BD" stroke-linecap="round"/>
<path d="M34.5 7.5L34.5 5.5" stroke="#0072BD" stroke-linecap="round"/>
<path d="M27.5 7.5L27.5 5.5" stroke="#0072BD" stroke-linecap="round"/>
<path d="M14.5 16.5L12 16.5L9.5 16.5" stroke="#0072BD" stroke-linecap="round"/>
<path d="M14.5 17.5L14.5 15.5" stroke="#0072BD" stroke-linecap="round"/>
<path d="M9.5 17.5L9.5 15.5" stroke="#0072BD" stroke-linecap="round"/>
<path d="M22.5 31.5L19 31.5L15.5 31.5" stroke="#0072BD" stroke-linecap="round"/>
<path d="M22.5 32.5L22.5 30.5" stroke="#0072BD" stroke-linecap="round"/>
<path d="M15.5 32.5L15.5 30.5" stroke="#0072BD" stroke-linecap="round"/>
<path d="M44.5 31.5L42 31.5L39.5 31.5" stroke="#0072BD" stroke-linecap="round"/>
<path d="M44.5 32.5L44.5 30.5" stroke="#0072BD" stroke-linecap="round"/>
<path d="M39.5 32.5L39.5 30.5" stroke="#0072BD" stroke-linecap="round"/>
<path d="M28.5 20.5L24 20.5L19.5 20.5" stroke="#0072BD" stroke-linecap="round"/>
<path d="M28.5 21.5L28.5 19.5" stroke="#0072BD" stroke-linecap="round"/>
<path d="M19.5 21.5L19.5 19.5" stroke="#0072BD" stroke-linecap="round"/>
<path d="M38.5 17.5L36 17.5L33.5 17.5" stroke="#0072BD" stroke-linecap="round"/>
<path d="M38.5 18.5L38.5 16.5" stroke="#0072BD" stroke-linecap="round"/>
<path d="M33.5 18.5L33.5 16.5" stroke="#0072BD" stroke-linecap="round"/>
<rect x="0.5" y="0.5" width="48" height="38" rx="1" stroke="var(--mw-icon-border-default-gray, #616161)"/>
</svg>
