<svg width="50" height="40" viewBox="0 0 50 40" fill="none" xmlns="http://www.w3.org/2000/svg">
<path d="M0.499999 24.6543L0.499999 32.0253L2.07552 33.5L46.9245 33.5L48.5 32.0253L48.5 7.97471L46.9245 6.5L2.07552 6.5L0.5 7.97471L0.5 15.41C0.500076 15.4991 0.519958 15.5873 0.558384 15.6689C0.596809 15.7504 0.652942 15.8236 0.723209 15.8838L1.10163 16.2091C1.17177 16.2693 1.22778 16.3425 1.26609 16.4241C1.30439 16.5056 1.32417 16.5938 1.32416 16.6829L1.32416 23.3814C1.32417 23.4705 1.30439 23.5586 1.26609 23.6402C1.22778 23.7218 1.17177 23.795 1.10163 23.8552L0.723209 24.1805C0.652942 24.2407 0.596809 24.3139 0.558383 24.3954C0.519958 24.477 0.500076 24.5651 0.499999 24.6543Z" fill="black" stroke="var(--mw-icon-background-default-white, #FFFFFF)"/>
<path d="M4 8.5C4 8.22386 3.77614 8 3.5 8C3.22386 8 3 8.22386 3 8.5C3 8.77614 3.22386 9 3.5 9C3.77614 9 4 8.77614 4 8.5Z" fill="var(--mw-icon-border-default-gray, #616161)"/>
<path d="M7 8.5C7 8.22386 6.77614 8 6.5 8C6.22386 8 6 8.22386 6 8.5C6 8.77614 6.22386 9 6.5 9C6.77614 9 7 8.77614 7 8.5Z" fill="var(--mw-icon-border-default-gray, #616161)"/>
<path d="M10 8.5C10 8.22386 9.77614 8 9.5 8C9.22386 8 9 8.22386 9 8.5C9 8.77614 9.22386 9 9.5 9C9.77614 9 10 8.77614 10 8.5Z" fill="var(--mw-icon-border-default-gray, #616161)"/>
<path d="M13 8.5C13 8.22386 12.7761 8 12.5 8C12.2239 8 12 8.22386 12 8.5C12 8.77614 12.2239 9 12.5 9C12.7761 9 13 8.77614 13 8.5Z" fill="var(--mw-icon-border-default-gray, #616161)"/>
<path d="M16 8.5C16 8.22386 15.7761 8 15.5 8C15.2239 8 15 8.22386 15 8.5C15 8.77614 15.2239 9 15.5 9C15.7761 9 16 8.77614 16 8.5Z" fill="var(--mw-icon-border-default-gray, #616161)"/>
<path d="M19 8.5C19 8.22386 18.7761 8 18.5 8C18.2239 8 18 8.22386 18 8.5C18 8.77614 18.2239 9 18.5 9C18.7761 9 19 8.77614 19 8.5Z" fill="var(--mw-icon-border-default-gray, #616161)"/>
<path d="M22 8.5C22 8.22386 21.7761 8 21.5 8C21.2239 8 21 8.22386 21 8.5C21 8.77614 21.2239 9 21.5 9C21.7761 9 22 8.77614 22 8.5Z" fill="var(--mw-icon-border-default-gray, #616161)"/>
<path d="M25 8.5C25 8.22386 24.7761 8 24.5 8C24.2239 8 24 8.22386 24 8.5C24 8.77614 24.2239 9 24.5 9C24.7761 9 25 8.77614 25 8.5Z" fill="var(--mw-icon-border-default-gray, #616161)"/>
<path d="M28 8.5C28 8.22386 27.7761 8 27.5 8C27.2239 8 27 8.22386 27 8.5C27 8.77614 27.2239 9 27.5 9C27.7761 9 28 8.77614 28 8.5Z" fill="var(--mw-icon-border-default-gray, #616161)"/>
<path d="M31 8.5C31 8.22386 30.7761 8 30.5 8C30.2239 8 30 8.22386 30 8.5C30 8.77614 30.2239 9 30.5 9C30.7761 9 31 8.77614 31 8.5Z" fill="var(--mw-icon-border-default-gray, #616161)"/>
<path d="M34 8.5C34 8.22386 33.7761 8 33.5 8C33.2239 8 33 8.22386 33 8.5C33 8.77614 33.2239 9 33.5 9C33.7761 9 34 8.77614 34 8.5Z" fill="var(--mw-icon-border-default-gray, #616161)"/>
<path d="M37 8.5C37 8.22386 36.7761 8 36.5 8C36.2239 8 36 8.22386 36 8.5C36 8.77614 36.2239 9 36.5 9C36.7761 9 37 8.77614 37 8.5Z" fill="var(--mw-icon-border-default-gray, #616161)"/>
<path d="M40 8.5C40 8.22386 39.7761 8 39.5 8C39.2239 8 39 8.22386 39 8.5C39 8.77614 39.2239 9 39.5 9C39.7761 9 40 8.77614 40 8.5Z" fill="var(--mw-icon-border-default-gray, #616161)"/>
<path d="M43 8.5C43 8.22386 42.7761 8 42.5 8C42.2239 8 42 8.22386 42 8.5C42 8.77614 42.2239 9 42.5 9C42.7761 9 43 8.77614 43 8.5Z" fill="var(--mw-icon-border-default-gray, #616161)"/>
<path d="M46 8.5C46 8.22386 45.7761 8 45.5 8C45.2239 8 45 8.22386 45 8.5C45 8.77614 45.2239 9 45.5 9C45.7761 9 46 8.77614 46 8.5Z" fill="var(--mw-icon-border-default-gray, #616161)"/>
<path d="M4 31.5C4 31.2239 3.77614 31 3.5 31C3.22386 31 3 31.2239 3 31.5C3 31.7761 3.22386 32 3.5 32C3.77614 32 4 31.7761 4 31.5Z" fill="var(--mw-icon-border-default-gray, #616161)"/>
<path d="M7 31.5C7 31.2239 6.77614 31 6.5 31C6.22386 31 6 31.2239 6 31.5C6 31.7761 6.22386 32 6.5 32C6.77614 32 7 31.7761 7 31.5Z" fill="var(--mw-icon-border-default-gray, #616161)"/>
<path d="M10 31.5C10 31.2239 9.77614 31 9.5 31C9.22386 31 9 31.2239 9 31.5C9 31.7761 9.22386 32 9.5 32C9.77614 32 10 31.7761 10 31.5Z" fill="var(--mw-icon-border-default-gray, #616161)"/>
<path d="M13 31.5C13 31.2239 12.7761 31 12.5 31C12.2239 31 12 31.2239 12 31.5C12 31.7761 12.2239 32 12.5 32C12.7761 32 13 31.7761 13 31.5Z" fill="var(--mw-icon-border-default-gray, #616161)"/>
<path d="M16 31.5C16 31.2239 15.7761 31 15.5 31C15.2239 31 15 31.2239 15 31.5C15 31.7761 15.2239 32 15.5 32C15.7761 32 16 31.7761 16 31.5Z" fill="var(--mw-icon-border-default-gray, #616161)"/>
<path d="M19 31.5C19 31.2239 18.7761 31 18.5 31C18.2239 31 18 31.2239 18 31.5C18 31.7761 18.2239 32 18.5 32C18.7761 32 19 31.7761 19 31.5Z" fill="var(--mw-icon-border-default-gray, #616161)"/>
<path d="M22 31.5C22 31.2239 21.7761 31 21.5 31C21.2239 31 21 31.2239 21 31.5C21 31.7761 21.2239 32 21.5 32C21.7761 32 22 31.7761 22 31.5Z" fill="var(--mw-icon-border-default-gray, #616161)"/>
<path d="M25 31.5C25 31.2239 24.7761 31 24.5 31C24.2239 31 24 31.2239 24 31.5C24 31.7761 24.2239 32 24.5 32C24.7761 32 25 31.7761 25 31.5Z" fill="var(--mw-icon-border-default-gray, #616161)"/>
<path d="M28 31.5C28 31.2239 27.7761 31 27.5 31C27.2239 31 27 31.2239 27 31.5C27 31.7761 27.2239 32 27.5 32C27.7761 32 28 31.7761 28 31.5Z" fill="var(--mw-icon-border-default-gray, #616161)"/>
<path d="M31 31.5C31 31.2239 30.7761 31 30.5 31C30.2239 31 30 31.2239 30 31.5C30 31.7761 30.2239 32 30.5 32C30.7761 32 31 31.7761 31 31.5Z" fill="var(--mw-icon-border-default-gray, #616161)"/>
<path d="M34 31.5C34 31.2239 33.7761 31 33.5 31C33.2239 31 33 31.2239 33 31.5C33 31.7761 33.2239 32 33.5 32C33.7761 32 34 31.7761 34 31.5Z" fill="var(--mw-icon-border-default-gray, #616161)"/>
<path d="M37 31.5C37 31.2239 36.7761 31 36.5 31C36.2239 31 36 31.2239 36 31.5C36 31.7761 36.2239 32 36.5 32C36.7761 32 37 31.7761 37 31.5Z" fill="var(--mw-icon-border-default-gray, #616161)"/>
<path d="M40 31.5C40 31.2239 39.7761 31 39.5 31C39.2239 31 39 31.2239 39 31.5C39 31.7761 39.2239 32 39.5 32C39.7761 32 40 31.7761 40 31.5Z" fill="var(--mw-icon-border-default-gray, #616161)"/>
<path d="M43 31.5C43 31.2239 42.7761 31 42.5 31C42.2239 31 42 31.2239 42 31.5C42 31.7761 42.2239 32 42.5 32C42.7761 32 43 31.7761 43 31.5Z" fill="var(--mw-icon-border-default-gray, #616161)"/>
<path d="M46 31.5C46 31.2239 45.7761 31 45.5 31C45.2239 31 45 31.2239 45 31.5C45 31.7761 45.2239 32 45.5 32C45.7761 32 46 31.7761 46 31.5Z" fill="var(--mw-icon-border-default-gray, #616161)"/>
<path d="M4 17H0V23H4V17Z" fill="#B4B4B4"/>
<path d="M1 18V19H3V18H1Z" fill="#323232"/>
<path d="M1 21V22H3V21H1Z" fill="#323232"/>
<path d="M26 26.6455L26 13.3545L26.3871 13L41.6129 13L42 13.3545L42 26.6455L41.6129 27L26.3871 27L26 26.6455Z" fill="var(--mw-icon-background-default-light-gray, #F5F5F5)"/>
<path d="M27 14.5C27 14.7761 27.2239 15 27.5 15C27.7761 15 28 14.7761 28 14.5C28 14.2239 27.7761 14 27.5 14C27.2239 14 27 14.2239 27 14.5Z" fill="#414042"/>
<path d="M43 13.5H46.5V15.5H44.5V17.5H46.5V19.5H44.5V21.5H46.5V23.5M43 25.5H46.5V23.5M46.5 23.5H43" stroke="var(--mw-icon-background-default-light-gray, #F5F5F5)"/>
<path d="M43 23.5H42" stroke="#FE9043"/>
<path d="M43 25.5H42" stroke="#FE9043"/>
<path d="M48 11.5L24.8344 11.5L24.5 11.7698L24.5 28.2302L24.8344 28.5L48 28.5" stroke="#7D7D7D"/>
<path d="M24 13.5L25 13.5" stroke="white"/>
<path d="M25 13.5L26 13.5" stroke="#FFDB9A"/>
<path d="M24 15.5L25 15.5" stroke="white"/>
<path d="M25 15.5L26 15.5" stroke="#FFDB9A"/>
<path d="M24 17.5L25 17.5" stroke="white"/>
<path d="M25 17.5L26 17.5" stroke="#FFDB9A"/>
<path d="M24 19.5L25 19.5" stroke="white"/>
<path d="M25 19.5L26 19.5" stroke="#FFDB9A"/>
<path d="M24 21.5L25 21.5" stroke="white"/>
<path d="M25 21.5L26 21.5" stroke="#FFDB9A"/>
<path d="M24 23.5L25 23.5" stroke="white"/>
<path d="M25 23.5L26 23.5" stroke="#FFDB9A"/>
<path d="M24 25.5L25 25.5" stroke="white"/>
<path d="M25 25.5L26 25.5" stroke="#FFDB9A"/>
<path d="M37.5 11L37.5 12" stroke="white"/>
<path d="M37.5 12L37.5 13" stroke="#FFDB9A"/>
<path d="M39.5 11L39.5 12" stroke="white"/>
<path d="M39.5 12L39.5 13" stroke="#FFDB9A"/>
<path d="M35.5 11L35.5 12" stroke="white"/>
<path d="M35.5 12L35.5 13" stroke="#FFDB9A"/>
<path d="M33.5 11L33.5 12" stroke="white"/>
<path d="M33.5 12L33.5 13" stroke="#FFDB9A"/>
<path d="M31.5 11L31.5 12" stroke="white"/>
<path d="M31.5 12L31.5 13" stroke="#FFDB9A"/>
<path d="M29.5 11L29.5 12" stroke="white"/>
<path d="M29.5 12L29.5 13" stroke="#FFDB9A"/>
<path d="M27.5 11L27.5 12" stroke="white"/>
<path d="M27.5 12L27.5 13" stroke="#FFDB9A"/>
<path d="M37.5 29L37.5 28" stroke="white"/>
<path d="M37.5 28L37.5 27" stroke="#FFDB9A"/>
<path d="M39.5 29L39.5 28" stroke="white"/>
<path d="M39.5 28L39.5 27" stroke="#FFDB9A"/>
<path d="M35.5 29L35.5 28" stroke="white"/>
<path d="M35.5 28L35.5 27" stroke="#FFDB9A"/>
<path d="M33.5 29L33.5 28" stroke="white"/>
<path d="M33.5 28L33.5 27" stroke="#FFDB9A"/>
<path d="M31.5 29L31.5 28" stroke="white"/>
<path d="M31.5 28L31.5 27" stroke="#FFDB9A"/>
<path d="M29.5 29L29.5 28" stroke="white"/>
<path d="M29.5 28L29.5 27" stroke="#FFDB9A"/>
<path d="M27.5 29L27.5 28" stroke="white"/>
<path d="M27.5 28L27.5 27" stroke="#FFDB9A"/>
<path d="M5 29L6 29L6 26L5 26L5 29Z" fill="var(--mw-icon-background-default-light-gray, #F5F5F5)"/>
<path d="M6 28L6 27L5 27L5 28L6 28Z" fill="var(--mw-icon-border-default-gray, #616161)"/>
<path d="M5 14L6 14L6 11L5 11L5 14Z" fill="var(--mw-icon-background-default-light-gray, #F5F5F5)"/>
<path d="M6 13L6 12L5 12L5 13L6 13Z" fill="var(--mw-icon-border-default-gray, #616161)"/>
<rect x="9" y="11" width="2" height="2" fill="var(--mw-icon-background-default-light-gray, #F5F5F5)"/>
<rect x="8" y="13" width="1" height="2" fill="var(--mw-icon-background-default-light-gray, #F5F5F5)"/>
<rect x="9.5" y="13" width="1" height="2" fill="var(--mw-icon-background-default-light-gray, #F5F5F5)"/>
<rect x="11" y="13" width="1" height="2" fill="var(--mw-icon-background-default-light-gray, #F5F5F5)"/>
<rect x="8" y="12" width="4" height="2" fill="var(--mw-icon-border-default-gray, #616161)"/>
<path d="M15 17L18 17L18 16L15 16L15 17Z" fill="var(--mw-icon-border-disabled-gray, #888888)"/>
<path d="M16 17L17 17L17 16L16 16L16 17Z" fill="var(--mw-icon-background-default-light-gray, #F5F5F5)"/>
<path d="M15 29L18 29L18 28L15 28L15 29Z" fill="var(--mw-icon-border-disabled-gray, #888888)"/>
<path d="M16 29L17 29L17 28L16 28L16 29Z" fill="var(--mw-icon-background-default-white, #FFFFFF)"/>
<path d="M17.9857 11L15 11L15 15L17.9857 15L17.9857 11Z" fill="var(--mw-icon-background-default-light-gray, #F5F5F5)"/>
<path d="M15.0143 11.9769L15.0143 13.9769L18 13.9769L18 11.9769L15.0143 11.9769Z" fill="#FE9043"/>
<rect x="16" y="24" width="1" height="1" fill="var(--mw-icon-background-default-light-gray, #F5F5F5)"/>
<rect x="15" y="26" width="1" height="1" fill="var(--mw-icon-background-default-light-gray, #F5F5F5)"/>
<rect x="17" y="26" width="1" height="1" fill="var(--mw-icon-background-default-light-gray, #F5F5F5)"/>
<rect x="15" y="25" width="3" height="1" fill="var(--mw-icon-border-default-gray, #616161)"/>
<rect x="17" y="21" width="1" height="1" transform="rotate(180 17 21)" fill="var(--mw-icon-background-default-light-gray, #F5F5F5)"/>
<rect x="18" y="19" width="1" height="1" transform="rotate(180 18 19)" fill="var(--mw-icon-background-default-light-gray, #F5F5F5)"/>
<rect x="16" y="19" width="1" height="1" transform="rotate(180 16 19)" fill="var(--mw-icon-background-default-light-gray, #F5F5F5)"/>
<rect x="18" y="20" width="3" height="1" transform="rotate(180 18 20)" fill="var(--mw-icon-border-default-gray, #616161)"/>
</svg>
