<svg width="50" height="40" viewBox="0 0 50 40" fill="none" xmlns="http://www.w3.org/2000/svg">
<rect x="0.5" y="0.5" width="48" height="38" rx="1" fill="var(--mw-icon-background-default-white, #FFFFFF)"/>
<path d="M3 4C3 3.44771 3.44772 3 4 3H45C45.5523 3 46 3.44772 46 4V35C46 35.5523 45.5523 36 45 36H4C3.44772 36 3 35.5523 3 35V4Z" fill="#12B1D6"/>
<path d="M39 5V3H42V4L40 5H39Z" fill="#2E87F7"/>
<path d="M10 9.99999V6.99999L14 7.99999V9.99999H10Z" fill="#2E87F7"/>
<path d="M37.0182 8.96546L8.00012 3H6.67773L24.0817 7.07052L23.2272 8.30262L24.1466 10H26.0001L26.9048 8.96545L30.0001 9.00001V9.50001L28.5001 10L29.0001 11H30.5001L31.5018 10.2911V8.80598L32.8412 9.11922L32.0001 9.75V10.5L33.0001 11.25V12H34.0001L35.0001 11.25H37.0001V10.0248L46.0001 11.9737V10.2911L42.5001 9.77455V8.99998H41.6153V7.63978H42.5347L43.0001 6.99998V5.99998H38.0001V7.99998L40.0001 8.99998V9.40557L37.0182 8.96546Z" fill="#2E87F7"/>
<path d="M17.5001 9.83332L15.0001 8.49999L13.5001 11.1667L15.5001 11.7L15.9001 12.5H16.5001V11.1667L17.5001 9.83332Z" fill="#2E87F7"/>
<path d="M19.0001 3V4.5L33.0001 7V3H19.0001Z" fill="#2E87F7"/>
<path d="M10 11.6667V9H8L7 5H6V13L10 11.6667Z" fill="#2E87F7"/>
<path d="M21 12L21.8333 15H26V12H21Z" fill="#2E87F7"/>
<path d="M7 30V29H22V26H26V24H30V22H33V17H35V14L37.5561 13.0066L46 14L46 35C46 35.5523 45.5523 36 45 36H21.0323L21 31L20 32H12L7 30Z" fill="#2E87F7"/>
<path d="M14.9522 12.9539V15L12.0001 16V18.9178L18.0001 19V14L14.9522 12.9539Z" fill="#2E87F7"/>
<path d="M6.67763 22.5592L3 21.2336V28H5V26H8L9.5 27H12V22H8.5L6.67763 22.5592Z" fill="#2E87F7"/>
<path d="M35.25 5.17539V5.71925H35.8158L34.6842 6.26311V7.35083L35.25 7.89469H36.9474V6.80697H35.8158V6.26311L36.9474 5.71925V4.63153H36.3816L35.25 5.17539Z" fill="#37C897"/>
<path d="M38.9881 36V34H42V33.5L40 33V31H45L45.2927 30.631L44.3642 29H42V30.0345H38.9881L37.5 30.5H36L36.5 29.5L38.5 29L38.9881 28.2449L37 27.5L36.6239 28H35.0478V24.6656L33.4717 24.069L32.6836 25.2621H30.3194V26.4552H31.8956V27.6483H30.3194L27.9552 25.7621L26.3791 25.1656L24.803 26.3587H26.3791L27.1672 27.0518H25.9851L25.2484 27.35L26 28H29V30.5L27.9552 31H26L25.9851 30L26.5 29.5L25 28H23L24.5 29.5L23 30V31H24.0149L23.5 32.5L24.0149 33.0172V35H22L21.5 34.5L21 35H20L19.2865 34.2103H17.7104V34.8069H14.5582L14 34L10 34.0115V35H7V34.5L7.59704 34.0115V33H8L10 31.5V29.5L8 31H4L3 30.5V34.9999C3 35.5522 3.44772 35.9999 4 35.9999L38.9881 36Z" fill="#4852F4"/>
<path d="M13.1135 17H3V19.245L6.03725 20.5707H11.2747L13.1135 19.9078V17Z" fill="#4852F4"/>
<path d="M40 20V21H43V22H45V20H43L42 19H40V17H38L36 20L35.5 18H34V22H36L36.5 21L38 19H39V20H40Z" fill="#4852F4"/>
<rect x="0.5" y="0.5" width="48" height="38" rx="1" stroke="var(--mw-icon-border-default-gray, #616161)"/>
</svg>
