<svg width="50" height="40" viewBox="0 0 50 40" fill="none" xmlns="http://www.w3.org/2000/svg">
<path d="M35.5 0.5H14.5C13.9477 0.5 13.5 0.947715 13.5 1.5V7.5C13.5 8.05228 13.9477 8.5 14.5 8.5H18.5V13.3384C18.5 13.768 18.3617 14.1862 18.1055 14.5311L5.89451 30.9689C5.63833 31.3138 5.5 31.732 5.5 32.1616V37.5C5.5 38.6046 6.39543 39.5 7.5 39.5H43.5C44.6046 39.5 45.5 38.6046 45.5 37.5V31.8833C45.5 31.4228 45.3411 30.9764 45.0501 30.6195L31.9499 14.5518C31.6589 14.1949 31.5 13.7485 31.5 13.288V8.5H35.5C36.0523 8.5 36.5 8.05228 36.5 7.5V1.5C36.5 0.947715 36.0523 0.5 35.5 0.5Z" fill="var(--mw-icon-background-default-white, #FFFFFF)" stroke="var(--mw-icon-border-default-gray, #616161)" stroke-linecap="round" stroke-linejoin="round"/>
<path d="M20.4 17.8L8.4 33.8C7.41115 35.1185 8.35191 37 10 37H40.8387C42.5158 37 43.4481 35.0601 42.4005 33.7506L29.6005 17.7506C29.2209 17.2762 28.6463 17 28.0387 17H22C21.3705 17 20.7777 17.2964 20.4 17.8Z" fill="var(--mw-icon-borderColor-light-blue, #268CDD)"/>
<circle cx="27" cy="14" r="2" fill="var(--mw-icon-borderColor-light-blue, #268CDD)"/>
<circle cx="19.5" cy="26.5" r="2" fill="white"/>
</svg>
