<svg width="50" height="40" viewBox="0 0 50 40" fill="none" xmlns="http://www.w3.org/2000/svg">
<path d="M40.4971 0.5H8.5C7.94772 0.5 7.5 0.947715 7.5 1.5V7.95325C7.5 8.24718 7.62932 8.52623 7.85358 8.71623L12.7928 12.9009C13.2414 13.2809 13.5 13.839 13.5 14.4268V37.5C13.5 38.6046 14.3954 39.5 15.5 39.5H39.3946C40.4969 39.5 41.3914 38.608 41.3946 37.5057L41.4971 1.50285C41.4987 0.949454 41.0505 0.5 40.4971 0.5Z" fill="var(--mw-icon-background-default-white, #FFFFFF)" stroke="var(--mw-icon-border-default-gray, #616161)" stroke-linecap="round" stroke-linejoin="round"/>
<path d="M16 35.5V18C16 17.7239 16.2239 17.5 16.5 17.5H38.5C38.7761 17.5 39 17.7239 39 18V35.5C39 36.6046 38.1046 37.5 37 37.5H18C16.8954 37.5 16 36.6046 16 35.5Z" fill="#E6BFFF"/>
<circle cx="34" cy="13.5" r="2" fill="#E6BFFF"/>
<circle cx="22" cy="25.5" r="2" fill="white"/>
</svg>
