<svg width="50" height="40" viewBox="0 0 50 40" fill="none" xmlns="http://www.w3.org/2000/svg">
<circle cx="25.5" cy="19.5" r="16" fill="var(--mw-icon-background-default-white, #FFFFFF)"/>
<circle cx="25.5" cy="19.5" r="7" stroke="var(--mw-icon-background-default-medium-gray, #D9D9D9)"/>
<path d="M25.5 3.5V35.5" stroke="var(--mw-icon-background-default-medium-gray, #D9D9D9)"/>
<path d="M33.5 5.64355L17.5 33.3564" stroke="var(--mw-icon-background-default-medium-gray, #D9D9D9)"/>
<path d="M39.3564 11.5L11.6436 27.5" stroke="var(--mw-icon-background-default-medium-gray, #D9D9D9)"/>
<path d="M17.5 5.64355L33.5 33.3564" stroke="var(--mw-icon-background-default-medium-gray, #D9D9D9)"/>
<path d="M11.6436 11.5L39.3564 27.5" stroke="var(--mw-icon-background-default-medium-gray, #D9D9D9)"/>
<path d="M9.5 19.5L41.5 19.5" stroke="var(--mw-icon-background-default-medium-gray, #D9D9D9)"/>
<circle cx="25.5" cy="19.5" r="16" stroke="var(--mw-icon-border-default-gray, #616161)"/>
<rect x="25" width="1" height="2" fill="var(--mw-icon-border-disabled-gray, #888888)"/>
<rect x="25" y="37" width="1" height="2" fill="var(--mw-icon-border-disabled-gray, #888888)"/>
<rect x="15.317" y="2.8623" width="1" height="2" transform="rotate(-30 15.317 2.8623)" fill="var(--mw-icon-border-disabled-gray, #888888)"/>
<rect x="33.817" y="34.9053" width="1" height="2" transform="rotate(-30 33.817 34.9053)" fill="var(--mw-icon-border-disabled-gray, #888888)"/>
<rect x="8.36255" y="10.1831" width="1" height="2" transform="rotate(-60 8.36255 10.1831)" fill="var(--mw-icon-border-disabled-gray, #888888)"/>
<rect x="40.4055" y="28.6831" width="1" height="2" transform="rotate(-60 40.4055 28.6831)" fill="var(--mw-icon-border-disabled-gray, #888888)"/>
<rect x="8" y="19" width="1" height="2" transform="rotate(90 8 19)" fill="var(--mw-icon-border-disabled-gray, #888888)"/>
<rect x="45" y="19" width="1" height="2" transform="rotate(90 45 19)" fill="var(--mw-icon-border-disabled-gray, #888888)"/>
<rect x="10.0946" y="27.8169" width="1" height="2" transform="rotate(60 10.0946 27.8169)" fill="var(--mw-icon-border-disabled-gray, #888888)"/>
<rect x="42.1376" y="9.31689" width="1" height="2" transform="rotate(60 42.1376 9.31689)" fill="var(--mw-icon-border-disabled-gray, #888888)"/>
<rect x="16.317" y="34.4058" width="1" height="2" transform="rotate(30 16.317 34.4058)" fill="var(--mw-icon-border-disabled-gray, #888888)"/>
<rect x="34.817" y="2.36279" width="1" height="2" transform="rotate(30 34.817 2.36279)" fill="var(--mw-icon-border-disabled-gray, #888888)"/>
<path d="M38.4999 19.499C38.4999 24.1934 34.5 28.4506 29.4999 28.4506C25.2802 28.3197 20.5 24.1944 20.5 19.5C20.5 14.8056 24.2532 10.499 29.4999 10.499C34.7466 10.499 38.4999 14.8046 38.4999 19.499Z" fill="var(--mw-icon-background-red, #FF9D9A)"/>
<path d="M38.5022 19.505C38.5022 25.4959 33.698 28.6345 29.0022 28.4969C24.3064 28.3592 21.3786 23.4654 20.5 21.5002C19.3896 22.2045 18.3798 23.5002 16 23.5002C13.5 23.5002 11.5 21.5 11.5023 19.505M38.5022 19.5011C38.5022 13.5102 33.698 10.3716 29.0022 10.5092C24.3064 10.6469 21.3786 15.5407 20.5 17.5059C19.3896 16.8016 18.3798 15.5059 16 15.5059C13.5 15.5059 11.5 17.5 11.5023 19.5011" stroke="#0072BD" stroke-linejoin="round"/>
</svg>
