<svg width="50" height="40" viewBox="0 0 50 40" fill="none" xmlns="http://www.w3.org/2000/svg">
<rect x="0.5" y="0.5" width="48" height="38" rx="1" fill="var(--mw-icon-background-default-white, white)"/>
<path d="M0.5 19.5H48.5" stroke="#0072BD" stroke-linecap="round"/>
<path d="M2 32H7L4.5 35L2 32Z" fill="#0072BD"/>
<path d="M4.5 19.5V32.5" stroke="#0072BD" stroke-linecap="round"/>
<path d="M9.22192 31.3979L13.9818 29.8671L12.5204 33.4885L9.22192 31.3979Z" fill="#0072BD"/>
<path d="M7.5 19.5L11.7551 31.1084" stroke="#0072BD" stroke-linecap="round"/>
<path d="M16.3794 29.041L20.4152 26.0893L20.1683 29.9866L16.3794 29.041Z" fill="#0072BD"/>
<path d="M11.5 19.5L18.6923 27.9689" stroke="#0072BD" stroke-linecap="round"/>
<path d="M21.1223 26.1948L24.5408 22.546L25.0209 26.4215L21.1223 26.1948Z" fill="#0072BD"/>
<path d="M17.5 19.5L23.1963 24.7124" stroke="#0072BD" stroke-linecap="round"/>
<path d="M26.8115 24.7466L28.953 20.2284L30.5932 23.7723L26.8115 24.7466Z" fill="#0072BD"/>
<path d="M21.5 19.5L28.334 22.7016" stroke="#0072BD" stroke-linecap="round"/>
<path d="M33.6936 18.8276L31.2624 14.4585L35.0995 15.1844L33.6936 18.8276Z" fill="#0072BD"/>
<path d="M27.5 19.5L32.915 16.4002" stroke="#0072BD" stroke-linecap="round"/>
<path d="M39.6179 13.7632L35.0436 11.7444L38.542 10.0092L39.6179 13.7632Z" fill="#0072BD"/>
<path d="M34.5 19.5L37.5325 12.2965" stroke="#0072BD" stroke-linecap="round"/>
<path d="M43.9893 11.8804L39.521 9.63663L43.1014 8.07753L43.9893 11.8804Z" fill="#0072BD"/>
<path d="M37.0001 19.4999L41.9796 10.3115" stroke="#0072BD" stroke-linecap="round"/>
<path d="M47 7L42 7L44.5 4L47 7Z" fill="#0072BD"/>
<path d="M44.5 19.3882L44.5 5.50018" stroke="#0072BD" stroke-linecap="round"/>
<rect x="0.5" y="0.5" width="48" height="38" rx="1" stroke="var(--mw-icon-border-default-gray, #616161)"/>

</svg>
