<svg width="50" height="40" viewBox="0 0 50 40" fill="none" xmlns="http://www.w3.org/2000/svg">
<rect x="0.5" y="0.5" width="48" height="38" rx="1" fill="var(--mw-icon-object-secondary, #FFFFFE)" stroke="var(--mw-icon-border-default-gray, #616161)"/>
<path d="M16.7674 15V23H15V15H16.7674ZM20.1845 18.4176V19.7033H16.2843V18.4176H20.1845ZM20.5969 15V16.2912H16.2843V15H20.5969Z" fill="var(--mw-icon-object-primary, #616160)"/>
<path d="M23.3895 15V23H21.622V15H23.3895ZM26.8065 18.4176V19.7033H22.9064V18.4176H26.8065ZM27.2189 15V16.2912H22.9064V15H27.2189Z" fill="var(--mw-icon-object-primary, #616160)"/>
<path d="M34 21.7143V23H29.4341V21.7143H34ZM30.0115 15V23H28.244V15H30.0115ZM33.405 18.2582V19.511H29.4341V18.2582H33.405ZM33.9941 15V16.2912H29.4341V15H33.9941Z" fill="var(--mw-icon-object-primary, #616160)"/>
</svg>
