<svg width="50" height="40" viewBox="0 0 50 40" fill="none" xmlns="http://www.w3.org/2000/svg">
<rect x="0.5" y="0.5" width="48" height="38" rx="1" fill="var(--mw-icon-background-default-white, white)"/>
<rect x="1" y="1" width="47" height="7" fill="#E6E6E6"/>
<path d="M1 8.5H48" stroke="#BFBFBF"/>
<rect x="4" y="2" width="5" height="5" fill="var(--mw-icon-background-default-dark-gray, #A6A6A6)"/>
<rect x="13" y="2" width="5" height="5" fill="var(--mw-icon-background-default-dark-gray, #A6A6A6)"/>
<rect x="22" y="2" width="5" height="5" fill="var(--mw-icon-background-default-dark-gray, #A6A6A6)"/>
<rect x="31" y="2" width="5" height="5" fill="var(--mw-icon-background-default-dark-gray, #A6A6A6)"/>
<rect x="40" y="2" width="5" height="5" fill="var(--mw-icon-background-default-dark-gray, #A6A6A6)"/>
<path d="M13.5 23.5C13.5 29.5751 18.4249 34.5 24.5 34.5C30.5751 34.5 35.5 29.5751 35.5 23.5C35.5 17.4249 30.5751 12.5 24.5 12.5C18.4249 12.5 13.5 17.4249 13.5 23.5Z" fill="var(--mw-icon-background-default-white, white)" stroke="var(--mw-icon-glyph-content-light-blue, #278CDD)" stroke-linecap="round"/>
<path d="M23 29.5C23 30.3284 23.6716 31 24.5 31C25.3284 31 26 30.3284 26 29.5L23 29.5ZM26 22.5C26 21.6716 25.3284 21 24.5 21C23.6716 21 23 21.6716 23 22.5L26 22.5ZM26 29.5L26 22.5L23 22.5L23 29.5L26 29.5Z" fill="var(--mw-icon-glyph-content-blue, #1656A8)"/>
<circle cx="24.5" cy="17.5" r="1.5" transform="rotate(-180 24.5 17.5)" fill="var(--mw-icon-glyph-content-blue, #1656A8)"/>
<rect x="0.5" y="0.5" width="48" height="38" rx="1" stroke="var(--mw-icon-border-default-gray, #616161)"/>

</svg>
