<svg width="50" height="40" viewBox="0 0 50 40" fill="none" xmlns="http://www.w3.org/2000/svg">
<rect x="0.5" y="0.5" width="48" height="38" rx="1" fill="var(--mw-icon-background-default-white, white)"/>
<rect x="1" y="1" width="47" height="7" fill="#E6E6E6"/>
<path d="M1 8.5H48" stroke="#BFBFBF"/>
<rect x="4" y="2" width="5" height="5" fill="var(--mw-icon-background-default-dark-gray, #A6A6A6)"/>
<rect x="13" y="2" width="5" height="5" fill="var(--mw-icon-background-default-dark-gray, #A6A6A6)"/>
<rect x="22" y="2" width="5" height="5" fill="var(--mw-icon-background-default-dark-gray, #A6A6A6)"/>
<rect x="31" y="2" width="5" height="5" fill="var(--mw-icon-background-default-dark-gray, #A6A6A6)"/>
<rect x="40" y="2" width="5" height="5" fill="var(--mw-icon-background-default-dark-gray, #A6A6A6)"/>
<path d="M23.377 23.9004C23.377 24.8691 23.1543 25.6484 22.709 26.2383C22.2637 26.8242 21.666 27.1172 20.916 27.1172C20.1152 27.1172 19.4961 26.834 19.0586 26.2676L19.0059 27H18.0098V18H19.0938V21.3574C19.5312 20.8145 20.1348 20.543 20.9043 20.543C21.6738 20.543 22.2773 20.834 22.7148 21.416C23.1562 21.998 23.377 22.7949 23.377 23.8066V23.9004ZM22.293 23.7773C22.293 23.0391 22.1504 22.4688 21.8652 22.0664C21.5801 21.6641 21.1699 21.4629 20.6348 21.4629C19.9199 21.4629 19.4062 21.7949 19.0938 22.459V25.2012C19.4258 25.8652 19.9434 26.1973 20.6465 26.1973C21.166 26.1973 21.5703 25.9961 21.8594 25.5938C22.1484 25.1914 22.293 24.5859 22.293 23.7773ZM24.7129 28.6992L24.0977 28.2773C24.4648 27.7656 24.6562 27.2383 24.6719 26.6953V25.7168H25.7324V26.5664C25.7324 26.9609 25.6348 27.3555 25.4395 27.75C25.248 28.1445 25.0059 28.4609 24.7129 28.6992ZM31.0176 27C30.9551 26.875 30.9043 26.6523 30.8652 26.332C30.3613 26.8555 29.7598 27.1172 29.0605 27.1172C28.4355 27.1172 27.9219 26.9414 27.5195 26.5898C27.1211 26.2344 26.9219 25.7852 26.9219 25.2422C26.9219 24.582 27.1719 24.0703 27.6719 23.707C28.1758 23.3398 28.8828 23.1562 29.793 23.1562H30.8477V22.6582C30.8477 22.2793 30.7344 21.9785 30.5078 21.7559C30.2812 21.5293 29.9473 21.416 29.5059 21.416C29.1191 21.416 28.7949 21.5137 28.5332 21.709C28.2715 21.9043 28.1406 22.1406 28.1406 22.418H27.0508C27.0508 22.1016 27.1621 21.7969 27.3848 21.5039C27.6113 21.207 27.916 20.9727 28.2988 20.8008C28.6855 20.6289 29.1094 20.543 29.5703 20.543C30.3008 20.543 30.873 20.7266 31.2871 21.0938C31.7012 21.457 31.916 21.959 31.9316 22.5996V25.5176C31.9316 26.0996 32.0059 26.5625 32.1543 26.9062V27H31.0176ZM29.2188 26.1738C29.5586 26.1738 29.8809 26.0859 30.1855 25.9102C30.4902 25.7344 30.7109 25.5059 30.8477 25.2246V23.9238H29.998C28.6699 23.9238 28.0059 24.3125 28.0059 25.0898C28.0059 25.4297 28.1191 25.6953 28.3457 25.8867C28.5723 26.0781 28.8633 26.1738 29.2188 26.1738Z" fill="#0072BD"/>
<path fill-rule="evenodd" clip-rule="evenodd" d="M13 30V16H13.5H14H16V17H14V29H16V30H14H13.5H13Z" fill="#0072BD"/>
<path fill-rule="evenodd" clip-rule="evenodd" d="M36 30V16H35.5H35H33V17H35V29H33V30H35H35.5H36Z" fill="#0072BD"/>
<rect x="0.5" y="0.5" width="48" height="38" rx="1" stroke="var(--mw-icon-border-default-gray, #616161)"/>

</svg>
