<svg width="50" height="41" viewBox="0 0 50 41" fill="none" xmlns="http://www.w3.org/2000/svg">
<path d="M5.5 27.5V12.5L24.5 1.5L43.5 12.5V27.5L24.5 38.5L5.5 27.5Z" fill="var(--mw-icon-background-default-white, white)"/>
<path d="M24.5 16.9999L24.5058 2.0835L43.0197 12.7538V27.6224L24.5 16.9999Z" fill="var(--mw-icon-background-default-light-gray, #F5F5F5)"/>
<path d="M24.5 16.9999L24.4942 2.0835L5.98034 12.7674L5.98034 27.6224L24.5 16.9999Z" fill="#E6E6E6"/>
<path d="M43.5 27.5V12.459L24.5 1.5L5.5 12.47" stroke="#BFBFBF" stroke-linecap="round" stroke-linejoin="round"/>
<path d="M5.5 12.5V27.53L24.5 38.5L43.5 27.5352" stroke="var(--mw-icon-border-default-gray, #616161)" stroke-linecap="round" stroke-linejoin="round"/>
<path d="M12.5477 26.0172L11.5 19C11.5 19 13.5 25.5 24.5 25.5C35.5 25.5 37.5008 19 37.5008 19L36.232 26.0172C36.232 26.0172 34 31.5 24.5 31.5C15 31.5 12.5477 26.0172 12.5477 26.0172Z" fill="#4852F4"/>
<path d="M11.5 18.5L12.5 13.5C12.5 13.5 13.5 19.5 24.5 19.5C35.5 19.5 36.5 13.5 36.5 13.5L37.5 18.5C37.5 18.5 36 25.5 24.5 25.5C13 25.5 11.5 18.5 11.5 18.5Z" fill="#12B1D6"/>
<path d="M37.5 18C37.5 19.9614 36.1553 21.8256 33.791 23.2267C31.4377 24.6213 28.154 25.5 24.5 25.5C20.846 25.5 17.5623 24.6213 15.209 23.2267C12.8447 21.8256 11.5 19.9614 11.5 18C11.5 16.0386 12.8447 14.1744 15.209 12.7733C17.5623 11.3787 20.846 10.5 24.5 10.5C28.154 10.5 31.4377 11.3787 33.791 12.7733C36.1553 14.1744 37.5 16.0386 37.5 18Z" stroke="var(--mw-icon-border-default-gray, #616161)"/>
<path d="M30.2943 8.37392C28.2441 7.39761 24.5 6.5 24.5 6.5C24.5 6.5 20.4306 7.39761 18.3804 8.37392C16.3301 9.35023 14 11.5 14 11.5C14 11.5 17.6752 12.7029 19.7255 13.8745C21.7757 15.0461 24.5 17.5 24.5 17.5C24.5 17.5 27.2593 15.0461 29.3095 13.8745C31.3598 12.7029 35 11.5 35 11.5C35 11.5 32.3446 9.35023 30.2943 8.37392Z" fill="#F9FB15"/>
<path d="M22 5.5L24 6C24 6 20.0115 7.65158 18.5 8.48291C16.9885 9.31424 14 11.5 14 11.5C14 11.5 17.5701 12.8 19.6203 13.8739C21.6706 14.9478 24.5 17 24.5 17C24.5 17 27.1021 14.9478 29.1523 13.8739C31.2026 12.8 35 11.5 35 11.5C35 11.5 32.4526 9.55685 30.5 8.48291C28.5474 7.40897 25 6 25 6L26.5 5.5C26.5 5.5 31.0301 6.40338 32.9828 7.57495C34.9354 8.74652 36.5 11.5 36.5 11.5C36.5 11.5 36.5 14.9521 32.9828 17.3922C29.4655 19.8324 24.5 19.5 24.5 19.5C24.5 19.5 19.9548 19.5 15.9166 17.3922C11.8784 15.2844 12.5 11.5 12.5 11.5C12.5 11.5 14.0616 8.74652 15.9166 7.57495C17.7716 6.40338 22 5.5 22 5.5Z" fill="#ABC739"/>
<path d="M36.38 25.5C36.38 25.5 37.5 20.3755 37.5 18C37.5 15.6245 36.5 12.5 36.5 12.5C36.5 12.5 32.9188 9.57937 29.4584 7.90882C25.9979 6.23828 22 5.64062 22 5.64062" stroke="var(--mw-icon-border-default-gray, #616161)"/>
<path d="M12.62 25.5C12.62 25.5 11.5 20.3755 11.5 18C11.5 15.6245 12.5 12.5 12.5 12.5C12.5 12.5 16.7103 9.27566 19.5416 7.90882C22.3729 6.54199 27 5.64062 27 5.64062" stroke="var(--mw-icon-border-default-gray, #616161)"/>
<path d="M22 31.5C22 31.5 21 27.3754 21 25C21 22.6245 22 19.5 22 19.5C22 19.5 25.5996 16.0413 28.3947 14.4211C31.1899 12.801 36.3147 11.2026 36.3147 11.2026" stroke="var(--mw-icon-border-default-gray, #616161)"/>
<path d="M27.0047 31.5C27.0047 31.5 28.0047 27.3754 28.0047 25C28.0047 22.6245 27.0047 19.5 27.0047 19.5C27.0047 19.5 23.405 16.0413 20.6099 14.4211C17.8148 12.801 12.6899 11.2026 12.6899 11.2026" stroke="var(--mw-icon-border-default-gray, #616161)"/>
<path d="M33.1445 29.3061C33.1445 29.3061 34.3641 25.2629 34.37 22.9629C34.376 20.5972 33.1445 17.4076 33.1445 17.4076C33.1445 17.4076 28.7858 13.2294 25.4112 11.2915C22.0367 9.35358 15.8625 7.48291 15.8625 7.48291" stroke="var(--mw-icon-border-default-gray, #616161)"/>
<path d="M33.1445 29.3061C33.1445 29.3061 34.3641 25.2629 34.37 22.9629C34.376 20.5972 33.1445 17.4076 33.1445 17.4076C33.1445 17.4076 28.7858 13.2294 25.4112 11.2915C22.0367 9.35358 15.8625 7.48291 15.8625 7.48291" stroke="var(--mw-icon-border-default-gray, #616161)"/>
<path d="M15.8581 29.3061C15.8581 29.3061 14.6385 25.2629 14.6327 22.9629C14.6267 20.5972 15.8581 17.4076 15.8581 17.4076C15.8581 17.4076 20.2169 13.2294 23.5914 11.2915C26.966 9.35358 33.1401 7.48291 33.1401 7.48291" stroke="var(--mw-icon-border-default-gray, #616161)"/>
<path d="M36.5 12.5246C36.5 14.3586 35.2626 16.1036 33.081 17.4168C30.9091 18.7242 27.8765 19.5491 24.5 19.5491C21.1235 19.5491 18.0909 18.7242 15.919 17.4168C13.7374 16.1036 12.5 14.3586 12.5 12.5246C12.5 10.6905 13.7374 8.9455 15.919 7.63227C18.0909 6.32487 21.1235 5.5 24.5 5.5C27.8765 5.5 30.9091 6.32487 33.081 7.63227C35.2626 8.9455 36.5 10.6905 36.5 12.5246Z" stroke="var(--mw-icon-border-default-gray, #616161)"/>
<path d="M12.6201 25.5C12.6201 25.5 13.9787 31.5547 24.5001 31.5547C35.0216 31.5547 36.3801 25.5 36.3801 25.5" stroke="var(--mw-icon-border-default-gray, #616161)"/>

</svg>
