<svg width="50" height="40" viewBox="0 0 50 40" fill="none" xmlns="http://www.w3.org/2000/svg">
<rect x="0.5" y="0.5" width="48" height="38" rx="1" fill="var(--mw-icon-background-default-white, #FFFFFF)"/>
<path d="M0.5 25.5L3 35.5L4 15.9796L5 20.6735L6.5 13.6327L9 23.4898L11 9.40816L15.5 17.3878V8L19.5 11.7551L21.5 22.551L25 11.7551L26.5 20.6735L29 21.6122L34.5 15.5102L37 27.7143L38 17.8571L43.5 27.7143L46.5 13L48.5 21.6122" stroke="#0072BD" stroke-linecap="round" stroke-linejoin="round"/>
<path d="M0.5 31.5C6.5 20 12.5 8.50002 26.5 17.0001C38.7461 24.4353 44.5 19.5 48.5 15.5" stroke="#D95319" stroke-linecap="round" stroke-linejoin="round"/>
<line x1="28.5" y1="0.5" x2="28.5" y2="38.5" stroke="#77AC30" stroke-linecap="round"/>
<rect x="0.5" y="0.5" width="48" height="38" rx="1" stroke="var(--mw-icon-border-default-gray, #616161)"/>
</svg>
