<svg width="50" height="40" viewBox="0 0 50 40" fill="none" xmlns="http://www.w3.org/2000/svg">
<rect x="0.5" y="0.5" width="48" height="38" rx="1" fill="var(--mw-icon-background-default-white, white)"/>
<path d="M0.5 34C1.91509 30.3333 6 22.5 12 22.5C19.3113 22.5 25 34.5 33 34.5C37.2453 34.5 45.5 29.5 46 1" stroke="#D95319" stroke-linecap="round"/>
<rect x="14.8501" y="19.4167" width="16.3" height="13.5833" fill="var(--mw-icon-background-default-white, white)"/>
<path d="M18.3204 21.9325C18.932 21.7744 19.4913 21.648 19.9456 21.648C22.2874 21.648 22.6369 23.3391 22.6369 25.1408C22.6369 25.283 22.6194 25.4253 22.6019 25.5675V25.694H22.532C22.2175 24.967 21.0816 24.5876 20.2078 24.5876C17.4291 24.5876 15 26.7055 15 29.2184C15 30.9569 16.1709 32 18.268 32C22.2 32 24 27.7486 24 25.046C24 22.2644 22.7068 21 20.435 21C19.7359 21 18.8796 21.1739 18.3553 21.569L18.3204 21.9325ZM21.6233 27.2112C21.6233 29.2342 20.1728 31.3678 18.565 31.3678C17.5165 31.3678 17.0272 30.9411 17.0272 29.408C17.0272 27.6221 18.5301 25.2198 20.068 25.2198C20.8718 25.2198 21.6233 25.773 21.6233 27.2112Z" fill="var(--mw-icon-glyph-content-dark-gray, #333333)"/>
<path d="M25.1726 25.8272V26.1954C25.4317 26.1681 25.5272 26.1681 25.6499 26.1681C26.0862 26.1681 26.3044 26.4408 26.4271 27.109L26.8225 29.1816L26.2226 30.1497C25.9362 30.6133 25.8271 30.6951 25.5817 30.6951C25.2954 30.6951 25.1454 30.3951 24.7363 30.3951C24.2891 30.3951 24 30.6951 24 31.1723C24 31.6496 24.4819 32 25 32C25.6818 32 25.8408 31.7041 26.6453 30.3951L26.9725 29.8633C27.2725 31.4314 27.8182 32 28.5 32C29.1545 32 29.5223 31.5132 30.3541 30.3133L30.0678 30.1224C29.536 30.8042 29.3996 30.9269 29.1542 30.9269C28.8951 30.9269 28.7588 30.736 28.6497 30.2042L28.2133 28.0635C28.6497 27.2862 29.1542 26.7817 29.4678 26.7817C29.7814 26.7817 29.8905 27 30.2177 27C30.6268 27 31.0086 26.7272 31.0086 26.3318C31.0086 25.8954 30.6404 25.5 30.2177 25.5C29.5769 25.5 29.1269 25.8273 28.0634 27.3817C27.8452 26.2227 27.7591 25.8818 27.5 25.5L25.1726 25.8272Z" fill="var(--mw-icon-glyph-content-dark-gray, #333333)"/>
<path d="M18.3204 4.93247C18.932 4.77443 19.4913 4.64799 19.9456 4.64799C22.2874 4.64799 22.6369 6.33908 22.6369 8.1408C22.6369 8.28305 22.6194 8.42529 22.6019 8.56753V8.69397H22.532C22.2175 7.96695 21.0816 7.58764 20.2078 7.58764C17.4291 7.58764 15 9.70546 15 12.2184C15 13.9569 16.1709 15 18.268 15C22.2 15 24 10.7486 24 8.04598C24 5.26437 22.7068 4 20.435 4C19.7359 4 18.8796 4.17385 18.3553 4.56897L18.3204 4.93247ZM21.6233 10.2112C21.6233 12.2342 20.1728 14.3678 18.565 14.3678C17.5165 14.3678 17.0272 13.9411 17.0272 12.408C17.0272 10.6221 18.5301 8.21983 20.068 8.21983C20.8718 8.21983 21.6233 8.77299 21.6233 10.2112Z" fill="var(--mw-icon-glyph-content-dark-gray, #333333)"/>
<path d="M14.5 17.5H34.5" stroke="var(--mw-icon-glyph-content-dark-gray, #333333)" stroke-linecap="round"/>
<rect x="0.5" y="0.5" width="48" height="38" rx="1" stroke="var(--mw-icon-border-default-gray, #616161)"/>

</svg>
