<svg width="50" height="40" viewBox="0 0 50 40" fill="none" xmlns="http://www.w3.org/2000/svg">
<rect x="0.5" y="0.5" width="48" height="38" rx="1" fill="var(--mw-icon-background-default-white, #FFFFFF)"/>
<path d="M0.5 19.5H48.5" stroke="var(--mw-icon-background-default-dark-gray, #A6A6A6)" stroke-linecap="round" stroke-dasharray="3 3"/>
<path d="M0 35C4 35 3 4 7 4C11 4 10 35 14 35C18 35 17 4 21 4C25 4 24 35 28 35C32 35 30 4 32 4C34 4 34 35 36 35C38 35 38 4 40 4C42 4 42 35 44 35C46 35 44 4 46 4C48 4 47 35 48 35" stroke="#0072BD"/>
<rect x="0.5" y="0.5" width="48" height="38" rx="1" stroke="var(--mw-icon-border-default-gray, #616161)"/>
<circle cx="4" cy="19" r="1.5" fill="white" stroke="#0072BD" stroke-linecap="round" stroke-linejoin="round"/>
<circle cx="7" cy="4" r="1.5" fill="white" stroke="#0072BD" stroke-linecap="round" stroke-linejoin="round"/>
<circle cx="10" cy="19" r="1.5" fill="white" stroke="#0072BD" stroke-linecap="round" stroke-linejoin="round"/>
<circle cx="14" cy="34" r="1.5" fill="white" stroke="#0072BD" stroke-linecap="round" stroke-linejoin="round"/>
<circle cx="35.5" cy="34" r="1.5" fill="white" stroke="#0072BD" stroke-linecap="round" stroke-linejoin="round"/>
<circle cx="17" cy="19" r="1.5" fill="white" stroke="#0072BD" stroke-linecap="round" stroke-linejoin="round"/>
<circle cx="21" cy="4" r="1.5" fill="white" stroke="#0072BD" stroke-linecap="round" stroke-linejoin="round"/>
<circle cx="24" cy="19" r="1.5" fill="white" stroke="#0072BD" stroke-linecap="round" stroke-linejoin="round"/>
<circle cx="28" cy="34" r="1.5" fill="white" stroke="#0072BD" stroke-linecap="round" stroke-linejoin="round"/>
<circle cx="44" cy="34" r="1.5" fill="white" stroke="#0072BD" stroke-linecap="round" stroke-linejoin="round"/>
<circle cx="32" cy="4" r="1.5" fill="white" stroke="#0072BD" stroke-linecap="round" stroke-linejoin="round"/>
<circle cx="40" cy="4" r="1.5" fill="white" stroke="#0072BD" stroke-linecap="round" stroke-linejoin="round"/>
<circle cx="46" cy="4" r="1.5" fill="white" stroke="#0072BD" stroke-linecap="round" stroke-linejoin="round"/>
</svg>
