<svg width="50" height="40" viewBox="0 0 50 40" fill="none" xmlns="http://www.w3.org/2000/svg">
<rect x="0.5" y="0.5" width="48" height="38" rx="1" fill="var(--mw-icon-background-default-white, white)"/>
<rect x="1" y="1" width="47" height="7" fill="#E6E6E6"/>
<path d="M1 8.5H48" stroke="#BFBFBF"/>
<rect x="4" y="2" width="5" height="5" fill="var(--mw-icon-background-default-dark-gray, #A6A6A6)"/>
<rect x="13" y="2" width="5" height="5" fill="var(--mw-icon-background-default-dark-gray, #A6A6A6)"/>
<rect x="22" y="2" width="5" height="5" fill="var(--mw-icon-background-default-dark-gray, #A6A6A6)"/>
<rect x="31" y="2" width="5" height="5" fill="var(--mw-icon-background-default-dark-gray, #A6A6A6)"/>
<rect x="40" y="2" width="5" height="5" fill="var(--mw-icon-background-default-dark-gray, #A6A6A6)"/>
<path d="M1 18H14.6566C19.6358 18 23 22 23 29C23 28 23.2969 25.5 24.5 25.5C25.7031 25.5 26 27.5 26 33C26.0262 31.5 26 25.5 27.5 25.5C28.5 25.5 29 27.5 29 29C29 27.6875 29.594 25.5 30.5 25.5C31.406 25.5 32 28.5 32 30C32 28.5 32.2012 25.5 33.5 25.5C34.7988 25.5 34.9308 30 35 36C34.9366 30.5 35 25.5 36.5 25.5C37.7148 25.5 38 28.5 38 30C38 28.5 38.141 25.5 39.5 25.5C40.859 25.5 41 28.5 41 30C41 28.5 41.141 25.5 42.5 25.5C43.859 25.5 44.0587 29.358 44 31C43.946 29.2546 44.141 25.5 45.5 25.5C46.859 25.5 47 29.5 47 31.5C47 29.5 47.5 25.5 48.5 25.5" stroke="#0072BD" stroke-linecap="round" stroke-linejoin="round"/>
<path d="M1 12.5C7.15108 12.5 18.9128 12.5 20.7512 12.5C25.7595 12.5 29 15.284 29 23C28.9593 21.5562 29.5767 19.5 30.5 19.5C31.4233 19.5 32 21.2587 32 22C32 21.2342 32.5767 19.5 33.5 19.5C34.4233 19.5 35 21.668 35 22.5C35 21.668 35.5 19.5 36.5 19.5C37.5 19.5 38 21.5 38 22.5C38 21.5 38.5767 19.5 39.5 19.5C40.6541 19.5 41 22 41 23C41 22 41.5767 19.5 42.5 19.5C43.5 19.5 44 22 44 23.5C44 22 44.5767 19.5 45.5 19.5C46.4233 19.5 47 22.5 47 24C47 22.5 47.5 19.5 48.5 19.5" stroke="#D95319" stroke-linecap="round" stroke-linejoin="round"/>
<rect x="0.5" y="0.5" width="48" height="38" rx="1" stroke="var(--mw-icon-border-default-gray, #616161)"/>

</svg>
