<svg width="50" height="40" viewBox="0 0 50 40" fill="none" xmlns="http://www.w3.org/2000/svg">
<path d="M5.5 27V12L24.5 1L43.5 12V27L24.5 38L5.5 27Z" fill="var(--mw-icon-background-default-white, #FFFFFF)"/>
<path d="M24.5 16.5L24.5058 1.58362L43.0197 12.2539V27.1225L24.5 16.5Z" fill="var(--mw-icon-background-default-light-gray, #F5F5F5)"/>
<path d="M24.5 16.5L24.4942 1.58362L5.98034 12.2675L5.98034 27.1225L24.5 16.5Z" fill="#E6E6E6"/>
<path d="M43.5 27V11.959L24.5 1L5.5 11.97" stroke="#BFBFBF" stroke-linecap="round" stroke-linejoin="round"/>
<path d="M5.5 12V27.03L24.5 38L43.5 27.0352" stroke="var(--mw-icon-border-default-gray, #616161)" stroke-linecap="round" stroke-linejoin="round"/>
<path d="M40.5 20.3254L24.5 29.7186L8.5 20.4535L24.5 11.0835L40.5 20.3254Z" fill="#3AC831" stroke="#013E0A" stroke-linejoin="round"/>
<path d="M24.5 29.7186V34.0835L40.5 24.8848V20.3254L24.5 29.7186Z" fill="var(--mw-icon-glyph-content-dark-green, #02580E)" stroke="#013E0A" stroke-linejoin="round"/>
<path d="M8.5 24.892V20.4535L24.5 29.7186V34.0835L8.5 24.892Z" fill="var(--mw-icon-border-default-green, #008013)" stroke="#013E0A" stroke-linejoin="round"/>
<path d="M25.3931 17.4548L24.0874 16.6668L24.4003 15.7086L22.7818 15.8787L21.3994 15.0444L21.0857 16.033L19.416 16.1723L20.7984 17.0066L20.46 17.9493L18.8944 18.0894L17.5119 17.255L17.1453 18.2738L15.555 18.3679L16.9374 19.2023L16.5989 20.145L18.243 19.9903L19.5487 20.7783L19.2614 21.7519L17.5653 21.9062L18.8965 22.7097L18.5837 23.6678L20.2278 23.5131L21.559 24.3166L21.8983 23.3434L23.5424 23.1887L24.8224 23.9613L24.5352 24.9349L26.1537 24.7647L27.5105 25.5836L27.7184 24.6552L29.4675 24.4708L28.1106 23.6519L28.3962 22.7392L30.0147 22.5691L31.3715 23.388L31.6588 22.4144L33.3549 22.2601L31.9981 21.4412L32.3365 20.4985L30.6668 20.6377L29.3868 19.8652L29.6997 18.907L31.3437 18.7523L30.0125 17.9489L30.2989 17.0057L28.6813 17.1454L27.35 16.3419L27.0628 17.3155L25.3931 17.4548Z" fill="#EDB120" stroke="#4A3A19" stroke-linejoin="round"/>
<path d="M25.0704 20.7165C24.6948 20.9301 24.1078 20.9203 23.7589 20.7097C23.41 20.4991 23.4107 20.1551 23.7863 19.9415C24.1618 19.7279 24.7489 19.7377 25.0978 19.9483C25.4467 20.1589 25.446 20.503 25.0704 20.7165Z" fill="#EDB120" stroke="#4A3A19" stroke-linejoin="round"/>
</svg>
