<svg width="50" height="40" viewBox="0 0 50 40" fill="none" xmlns="http://www.w3.org/2000/svg">
<rect x="1" y="0.5" width="48" height="38" rx="1" fill="var(--mw-icon-background-default-white, #FFFFFF)"/>
<rect x="0.5" y="0.5" width="48" height="38" rx="1" stroke="var(--mw-icon-border-default-gray, #616161)"/>
<path fill-rule="evenodd" clip-rule="evenodd" d="M29.5048 16.0026L44.5 5.50001V32.4625L29.5165 21.991L35 19.0001L29.5048 16.0026ZM29.5 16.006L25.231 18.996L29.5 21.9795L29.5 16.006ZM35.5 26.0001L35.5 12L39.5 15.1111L39.4999 9.50001L44 12.4999L39.7692 15.3205L44.4999 19L39.7692 22.6795L44 25.4999L39.5 28.5L39.4999 22.889L35.5 26.0001Z" fill="#EDB120"/>
<path d="M44.5 5.50001H45C45 5.31355 44.8962 5.14258 44.7308 5.05649C44.5654 4.9704 44.3659 4.9835 44.2132 5.09047L44.5 5.50001ZM29.5048 16.0026L29.218 15.5931C29.0763 15.6924 28.996 15.8578 29.0056 16.0305C29.0153 16.2033 29.1135 16.3587 29.2654 16.4416L29.5048 16.0026ZM44.5 32.4625L44.2136 32.8724C44.3663 32.9791 44.5658 32.9921 44.7311 32.9059C44.8963 32.8198 45 32.6489 45 32.4625H44.5ZM29.5165 21.991L29.2771 21.5521C29.1251 21.6349 29.0268 21.7905 29.0173 21.9634C29.0077 22.1362 29.0882 22.3017 29.2301 22.4008L29.5165 21.991ZM35 19.0001L35.2394 19.439C35.4001 19.3514 35.5 19.183 35.5 19.0001C35.5 18.8171 35.4001 18.6487 35.2394 18.5611L35 19.0001ZM25.231 18.996L24.9442 18.5865C24.8105 18.6801 24.731 18.8331 24.731 18.9963C24.7311 19.1595 24.8109 19.3124 24.9446 19.4059L25.231 18.996ZM29.5 16.006L30 16.006C30 15.8196 29.8962 15.6486 29.7308 15.5625C29.5654 15.4764 29.3659 15.4895 29.2132 15.5965L29.5 16.006ZM29.5 21.9795L29.2136 22.3893C29.3663 22.4961 29.5658 22.509 29.7311 22.4229C29.8963 22.3367 30 22.1658 30 21.9795L29.5 21.9795ZM35.5 12L35.807 11.6053C35.6562 11.4881 35.4519 11.4669 35.2803 11.5508C35.1088 11.6347 35 11.809 35 12L35.5 12ZM35.5 26.0001L35 26.0001C35 26.191 35.1088 26.3653 35.2803 26.4492C35.4519 26.5331 35.6563 26.512 35.807 26.3947L35.5 26.0001ZM39.5 15.1111L39.193 15.5058C39.3437 15.623 39.5481 15.6442 39.7196 15.5603C39.8912 15.4764 40 15.3021 40 15.1111L39.5 15.1111ZM39.4999 9.50001L39.7772 9.08398C39.6238 8.9817 39.4265 8.97216 39.264 9.05917C39.1014 9.14618 38.9999 9.31562 38.9999 9.50001L39.4999 9.50001ZM44 12.4999L44.2773 12.916C44.4164 12.8232 44.5 12.6671 44.5 12.4999C44.4999 12.3328 44.4164 12.1766 44.2773 12.0839L44 12.4999ZM39.7692 15.3205L39.4919 14.9045C39.3581 14.9937 39.2754 15.1417 39.2695 15.3023C39.2637 15.4629 39.3354 15.6165 39.4622 15.7152L39.7692 15.3205ZM44.4999 19L44.8069 19.3947C44.9287 19.3 44.9999 19.1543 44.9999 19C44.9999 18.8457 44.9287 18.7001 44.8069 18.6054L44.4999 19ZM39.7692 22.6795L39.4623 22.2848C39.3354 22.3835 39.2637 22.5371 39.2696 22.6978C39.2754 22.8584 39.3582 23.0064 39.4919 23.0955L39.7692 22.6795ZM44 25.4999L44.2773 25.9159C44.4164 25.8232 44.5 25.6671 44.5 25.4999C44.5 25.3327 44.4164 25.1766 44.2773 25.0839L44 25.4999ZM39.5 28.5L39 28.5C39 28.6844 39.1015 28.8538 39.2641 28.9408C39.4267 29.0278 39.6239 29.0183 39.7774 28.916L39.5 28.5ZM39.4999 22.889L39.9999 22.8889C39.9999 22.698 39.8912 22.5237 39.7196 22.4398C39.5481 22.3559 39.3437 22.377 39.193 22.4943L39.4999 22.889ZM44.2132 5.09047L29.218 15.5931L29.7917 16.4122L44.7868 5.90955L44.2132 5.09047ZM45 32.4625V5.50001H44V32.4625H45ZM29.2301 22.4008L44.2136 32.8724L44.7864 32.0527L29.8029 21.5812L29.2301 22.4008ZM34.7606 18.5611L29.2771 21.5521L29.7559 22.43L35.2394 19.439L34.7606 18.5611ZM29.2654 16.4416L34.7606 19.439L35.2394 18.5611L29.7443 15.5637L29.2654 16.4416ZM25.5179 19.4056L29.7868 16.4156L29.2132 15.5965L24.9442 18.5865L25.5179 19.4056ZM29.7864 21.5696L25.5175 18.5862L24.9446 19.4059L29.2136 22.3893L29.7864 21.5696ZM29 16.006L29 21.9795L30 21.9795L30 16.006L29 16.006ZM35 12L35 26.0001L36 26.0001L36 12L35 12ZM39.8069 14.7164L35.807 11.6053L35.193 12.3946L39.193 15.5058L39.8069 14.7164ZM40 15.1111L39.9999 9.5L38.9999 9.50001L39 15.1111L40 15.1111ZM39.2226 9.91604L43.7226 12.916L44.2773 12.0839L39.7772 9.08398L39.2226 9.91604ZM43.7226 12.0839L39.4919 14.9045L40.0466 15.7366L44.2773 12.916L43.7226 12.0839ZM44.8069 18.6054L40.0762 14.9259L39.4622 15.7152L44.1929 19.3947L44.8069 18.6054ZM40.0762 23.0742L44.8069 19.3947L44.1929 18.6054L39.4623 22.2848L40.0762 23.0742ZM44.2773 25.0839L40.0466 22.2635L39.4919 23.0955L43.7226 25.9159L44.2773 25.0839ZM39.7774 28.916L44.2773 25.9159L43.7226 25.0839L39.2226 28.084L39.7774 28.916ZM38.9999 22.889L39 28.5L40 28.5L39.9999 22.8889L38.9999 22.889ZM35.807 26.3947L39.8069 23.2836L39.193 22.4943L35.193 25.6054L35.807 26.3947Z" fill="#745A26"/>
<path fill-rule="evenodd" clip-rule="evenodd" d="M20.4037 16.0893L5.5 6.03748L5.5 32L20.3928 21.9783L15 19L20.4037 16.0893ZM20.5 16.1543L24.769 19.0335L20.5 21.9062L20.5 16.1543ZM14.4998 25.5L14.5 12.5001L6.1183 19.3193L10.4908 22.5436L6.00001 25.5374L10.5 28.5375L10.5001 22.5505L14.4998 25.5ZM10.5001 9.53748L10.5 15.5375L6.00005 12.5374L10.5001 9.53748Z" fill="#EDB120"/>
<path d="M5.5 6.03749H5C5 5.85261 5.10202 5.68282 5.26526 5.59602C5.42849 5.50922 5.6263 5.51958 5.77958 5.62296L5.5 6.03749ZM20.4037 16.0893L20.6833 15.6748C20.8284 15.7727 20.9118 15.9393 20.9031 16.1142C20.8944 16.289 20.7949 16.4465 20.6408 16.5296L20.4037 16.0893ZM5.5 32L5.77914 32.4148C5.62584 32.518 5.42813 32.5282 5.26502 32.4413C5.10192 32.3545 5 32.1848 5 32H5.5ZM20.3928 21.9783L20.6345 21.5406C20.787 21.6248 20.8847 21.7823 20.8923 21.9564C20.9 22.1304 20.8165 22.2959 20.672 22.3931L20.3928 21.9783ZM15 19L14.7583 19.4377C14.5982 19.3492 14.4991 19.1803 14.5001 18.9974C14.501 18.8144 14.6018 18.6466 14.7629 18.5598L15 19ZM24.769 19.0335L25.0485 18.619C25.1864 18.712 25.269 18.8674 25.269 19.0338C25.2689 19.2001 25.1861 19.3555 25.0481 19.4483L24.769 19.0335ZM20.5 16.1543L20 16.1543C20 15.9694 20.102 15.7996 20.2653 15.7128C20.4285 15.626 20.6263 15.6364 20.7796 15.7398L20.5 16.1543ZM20.5 21.9062L20.7792 22.321C20.6258 22.4241 20.4281 22.4343 20.265 22.3475C20.1019 22.2607 20 22.0909 20 21.9062L20.5 21.9062ZM14.5 12.5001L14.1844 12.1122C14.3341 11.9904 14.5405 11.9657 14.7147 12.0485C14.889 12.1314 15 12.3071 15 12.5001L14.5 12.5001ZM14.4998 25.5L14.9998 25.5C14.9998 25.6887 14.8936 25.8613 14.7252 25.9463C14.5568 26.0314 14.3549 26.0144 14.2031 25.9024L14.4998 25.5ZM6.1183 19.3193L5.82155 19.7217C5.69711 19.6299 5.62212 19.4858 5.61845 19.3312C5.61477 19.1766 5.68281 19.029 5.80275 18.9314L6.1183 19.3193ZM10.4908 22.5436L10.7875 22.1412C10.9187 22.238 10.9945 22.3926 10.9906 22.5555C10.9868 22.7184 10.9037 22.8693 10.7681 22.9597L10.4908 22.5436ZM6.00001 25.5374L5.72265 25.9534C5.58356 25.8607 5.50001 25.7046 5.50001 25.5374C5.50001 25.3702 5.58357 25.2141 5.72267 25.1214L6.00001 25.5374ZM10.5 28.5375L11 28.5375C11 28.7219 10.8985 28.8913 10.7359 28.9783C10.5733 29.0653 10.3761 29.0558 10.2226 28.9535L10.5 28.5375ZM10.5001 22.5505L10.0001 22.5505C10.0001 22.3618 10.1063 22.1893 10.2746 22.1042C10.443 22.0192 10.645 22.0361 10.7968 22.1481L10.5001 22.5505ZM10.5 15.5375L11 15.5375C11 15.7219 10.8985 15.8914 10.736 15.9784C10.5734 16.0654 10.3761 16.0558 10.2227 15.9535L10.5 15.5375ZM10.5001 9.53749L10.2228 9.12146C10.3762 9.01918 10.5735 9.00964 10.736 9.09665C10.8986 9.18367 11.0001 9.3531 11.0001 9.53749L10.5001 9.53749ZM6.00005 12.5374L5.72269 12.9534C5.58359 12.8607 5.50005 12.7046 5.50005 12.5374C5.50005 12.3702 5.5836 12.2141 5.72271 12.1214L6.00005 12.5374ZM5.77958 5.62296L20.6833 15.6748L20.1241 16.5039L5.22042 6.45202L5.77958 5.62296ZM5 32L5 6.03749H6L6 32H5ZM20.672 22.3931L5.77914 32.4148L5.22086 31.5852L20.1137 21.5635L20.672 22.3931ZM15.2418 18.5623L20.6345 21.5406L20.1511 22.416L14.7583 19.4377L15.2418 18.5623ZM20.6408 16.5296L15.2372 19.4402L14.7629 18.5598L20.1666 15.6491L20.6408 16.5296ZM24.4894 19.448L20.2204 16.5688L20.7796 15.7398L25.0485 18.619L24.4894 19.448ZM20.2209 21.4913L24.4898 18.6187L25.0481 19.4483L20.7792 22.321L20.2209 21.4913ZM21 16.1543L21 21.9062L20 21.9062L20 16.1543L21 16.1543ZM15 12.5001L14.9998 25.5L13.9998 25.5L14 12.5001L15 12.5001ZM5.80275 18.9314L14.1844 12.1122L14.8155 12.8879L6.43386 19.7071L5.80275 18.9314ZM10.194 22.9461L5.82155 19.7217L6.41506 18.9169L10.7875 22.1412L10.194 22.9461ZM5.72267 25.1214L10.2134 22.1276L10.7681 22.9597L6.27735 25.9534L5.72267 25.1214ZM10.2226 28.9535L5.72265 25.9534L6.27737 25.1214L10.7774 28.1215L10.2226 28.9535ZM11.0001 22.5505L11 28.5375L10 28.5375L10.0001 22.5505L11.0001 22.5505ZM14.2031 25.9024L10.2033 22.9529L10.7968 22.1481L14.7966 25.0976L14.2031 25.9024ZM10 15.5375L10.0001 9.53748L11.0001 9.53749L11 15.5375L10 15.5375ZM6.27741 12.1214L10.7774 15.1215L10.2227 15.9535L5.72269 12.9534L6.27741 12.1214ZM10.7774 9.95352L6.27739 12.9535L5.72271 12.1214L10.2228 9.12146L10.7774 9.95352Z" fill="#745A26"/>
</svg>
