<svg width="50" height="41" viewBox="0 0 50 41" fill="none" xmlns="http://www.w3.org/2000/svg">
<path d="M5.5 27.0835V12.0835L24.5 1.0835L43.5 12.0835V27.0835L24.5 38.0835L5.5 27.0835Z" fill="var(--mw-icon-background-default-white, #FFFFFF)"/>
<path d="M24.5 16.5835L24.5058 1.66711L43.0197 12.3374V27.206L24.5 16.5835Z" fill="var(--mw-icon-background-default-light-gray, #F5F5F5)"/>
<path d="M24.5 16.5835L24.4942 1.66711L5.98034 12.351L5.98034 27.206L24.5 16.5835Z" fill="#E6E6E6"/>
<path d="M43.5 27.0835V12.0425L24.5 1.0835L5.5 12.0535" stroke="#BFBFBF" stroke-linecap="round" stroke-linejoin="round"/>
<path d="M5.5 12.0835V27.1135L24.5 38.0835L43.5 27.1187" stroke="var(--mw-icon-border-default-gray, #616161)" stroke-linecap="round" stroke-linejoin="round"/>
<path d="M40.5 21.3254L24.5 30.7186L8.5 21.4535L24.5 12.0835L40.5 21.3254Z" fill="#3AC831" stroke="#013E0A" stroke-linejoin="round"/>
<path d="M24.5 30.7186V35.0835L40.5 25.8848V21.3254L24.5 30.7186Z" fill="var(--mw-icon-glyph-content-dark-green, #02580E)" stroke="#013E0A" stroke-linejoin="round"/>
<path d="M8.5 25.892V21.4535L24.5 30.7186V35.0835L8.5 25.892Z" fill="var(--mw-icon-border-default-green, #008013)" stroke="#013E0A" stroke-linejoin="round"/>
<path fill-rule="evenodd" clip-rule="evenodd" d="M25.292 14.6097L36.1175 20.8593L26.2677 26.5653L21.8573 24.0191L18.3445 26.0471L16.3397 24.8897L19.8525 22.8618L15.4421 20.3157L25.292 14.6097ZM25.8991 16.6878L27.3127 17.5039L25.9101 18.3136L24.4965 17.4976L25.8991 16.6878ZM32.1288 20.9388L30.7152 20.1227L29.3126 20.9325L30.7261 21.7486L32.1288 20.9388ZM26.1454 22.8379L27.559 23.654L26.1563 24.4637L24.7427 23.6476L26.1454 22.8379ZM27.2369 20.6939L25.8233 19.8778L24.4207 20.6876L25.8342 21.5036L27.2369 20.6939ZM21.3293 19.4033L22.7429 20.2194L21.3403 21.0291L19.9267 20.2131L21.3293 19.4033Z" fill="#FEC04C" stroke="#4A3A19" stroke-linejoin="round"/>
</svg>
