<svg width="50" height="40" viewBox="0 0 50 40" fill="none" xmlns="http://www.w3.org/2000/svg">
<rect x="0.5" y="0.5" width="48" height="38" rx="1" fill="var(--mw-icon-background-default-white, white)"/>
<path d="M1 6C4.98851 6 11.2403 6.91748 16.5833 12.1538C21.9262 17.3902 24.5 25.3636 24.5 37C24.5 32.5394 25.3914 23.4649 28.5 23.4649C31.6086 23.4649 32.5 32.5394 32.5 37C32.4459 34.805 33.78 28.5 36.5 28.5C39.22 28.5 40.5 34.6977 40.5 37C40.5 35.3158 41.789 31.8246 44.1205 31.8246C46.452 31.8246 48 34.9283 48 38" stroke="#0072BD"/>
<path d="M0.5 6L24.5 31L28.5 13.5L32.5 24.5L36.5 15.5L40.5 26L44.0833 17.6667L48.5 26" stroke="#D95319"/>
<rect x="0.5" y="0.5" width="48" height="38" rx="1" stroke="var(--mw-icon-border-default-gray, #616161)"/>

</svg>
