<svg width="50" height="40" viewBox="0 0 50 40" fill="none" xmlns="http://www.w3.org/2000/svg">
<path d="M0.5 1.5C0.5 0.947716 0.947715 0.5 1.5 0.5H47.5C48.0523 0.5 48.5 0.947715 48.5 1.5V17.5C48.5 18.0523 48.0523 18.5 47.5 18.5H1.5C0.947714 18.5 0.5 18.0523 0.5 17.5V1.5Z" fill="var(--mw-icon-background-default-white, white)"/>
<path d="M0.5 21.5C0.5 20.9477 0.947715 20.5 1.5 20.5H47.5C48.0523 20.5 48.5 20.9477 48.5 21.5V37.5C48.5 38.0523 48.0523 38.5 47.5 38.5H1.5C0.947714 38.5 0.5 38.0523 0.5 37.5V21.5Z" fill="var(--mw-icon-background-default-white, white)"/>
<path d="M1 12.5C8 12.5 9.5 6.5 11.5 6.5C13.5 6.5 16.8846 14.5 20.5 14.5C24.1154 14.5 27 2.5 29.5 2.5C32 2.5 34.5 13.5 38.5 15.5C40.5 16.5 43 16.5 48 16.5" stroke="#0072BD"/>
<path d="M1 22.5C18.5705 22.5 19.7685 36.5 28.5537 36.5C36.3128 36.5 35.8466 29.4768 42.5 26.5C43.4694 26.0663 45.4968 25.5 48 25.5" stroke="#0072BD"/>
<path d="M0.5 1.5C0.5 0.947716 0.947715 0.5 1.5 0.5H47.5C48.0523 0.5 48.5 0.947715 48.5 1.5V17.5C48.5 18.0523 48.0523 18.5 47.5 18.5H1.5C0.947714 18.5 0.5 18.0523 0.5 17.5V1.5Z" stroke="var(--mw-icon-border-default-gray, #616161)"/>
<path d="M0.5 21.5C0.5 20.9477 0.947715 20.5 1.5 20.5H47.5C48.0523 20.5 48.5 20.9477 48.5 21.5V37.5C48.5 38.0523 48.0523 38.5 47.5 38.5H1.5C0.947714 38.5 0.5 38.0523 0.5 37.5V21.5Z" stroke="var(--mw-icon-border-default-gray, #616161)"/>

</svg>
