<svg width="50" height="40" viewBox="0 0 50 40" fill="none" xmlns="http://www.w3.org/2000/svg">
<rect x="0.5" y="0.5" width="48" height="38" rx="1" fill="var(--mw-icon-background-default-white, #FFFFFF)"/>
<path d="M18.5259 14.9322L18.3573 15.6915H20.5481L18.4296 25.6576C17.8759 28.2203 17.1055 29.5017 16.0944 29.5017C15.8055 29.5017 15.6129 29.3356 15.6129 29.122C15.6129 28.861 15.8296 28.7424 15.8296 28.4339C15.8296 27.9356 15.4685 27.5559 14.9148 27.5559C14.4093 27.5559 14 28.0068 14 28.5525C14 29.383 14.8185 30 15.9018 30C18.0925 30 19.7055 27.6746 20.7166 23.2847L22.4499 15.6915H25.0498L25.1943 14.9322H22.6184C23.3165 11.1831 24.2073 9.52203 25.5554 9.52203C25.8924 9.52203 26.085 9.64068 26.085 9.83051C26.085 10.0441 25.8443 10.1627 25.8443 10.5661C25.8443 11.1356 26.3017 11.4915 26.735 11.4915C27.2887 11.4915 27.7461 10.9932 27.7461 10.4712C27.7461 9.61695 26.8554 9 25.6758 9C24.2073 9 23.2202 9.80678 22.498 10.8271C21.7036 11.9424 21.2943 13.2475 20.7647 14.9322H18.5259Z" fill="var(--mw-icon-glyph-content-gray, #616162)"/>
<path d="M30.089 16.6644C29.7519 15.0508 29.463 14.6237 28.8612 14.6237C28.3075 14.6237 27.5131 14.7898 26.0446 15.3119L25.7798 15.4068L25.852 15.7864L26.2853 15.6678C26.7427 15.5492 27.0316 15.5017 27.2242 15.5017C27.826 15.5017 27.9945 15.6915 28.3316 17.1153L29.0056 20.0576L27.0316 22.8102C26.526 23.522 26.0686 23.9729 25.8038 23.9729C25.6594 23.9729 25.4187 23.9017 25.1779 23.7593C24.865 23.5932 24.6242 23.4983 24.4076 23.4983C23.9261 23.4983 23.5891 23.878 23.5891 24.3525C23.5891 24.9695 24.0465 25.3491 24.7927 25.3491C25.539 25.3491 26.0205 25.1356 27.0797 23.7356L29.1982 20.9119L29.8964 23.7356C30.1853 24.922 30.5464 25.3491 31.3167 25.3491C32.2315 25.3491 32.8574 24.7797 34.2537 22.6441L33.8926 22.4305C33.7 22.6678 33.6037 22.8102 33.3871 23.0949C32.8334 23.8068 32.5686 24.0441 32.2556 24.0441C31.9186 24.0441 31.7019 23.7356 31.5334 23.0712L30.763 19.8915C30.6186 19.322 30.5704 18.9898 30.5704 18.8237C31.6297 16.9966 32.4963 15.9525 32.9297 15.9525C33.5074 15.9525 33.7241 16.3559 34.1815 16.3559C34.663 16.3559 35 16 35 15.5017C35 14.9797 34.5907 14.6237 34.013 14.6237C32.9537 14.6237 32.063 15.478 30.3778 18.0169L30.089 16.6644Z" fill="var(--mw-icon-glyph-content-gray, #616162)"/>
<path fill-rule="evenodd" clip-rule="evenodd" d="M20.5481 15.6915L18.4296 25.6576C17.8759 28.2203 17.1055 29.5017 16.0944 29.5017C15.8055 29.5017 15.6129 29.3356 15.6129 29.122C15.6129 28.997 15.6627 28.9046 15.7145 28.8084C15.7708 28.7037 15.8296 28.5946 15.8296 28.4339C15.8296 27.9356 15.4685 27.5559 14.9148 27.5559C14.4093 27.5559 14 28.0068 14 28.5525C14 29.383 14.8185 30 15.9018 30C18.0925 30 19.7055 27.6746 20.7166 23.2847L22.4499 15.6915H25.0498L25.1943 14.9322H22.6184C22.6462 14.7831 22.6742 14.6373 22.7026 14.4947C23.3881 11.0535 24.2609 9.52203 25.5554 9.52203C25.8924 9.52203 26.085 9.64068 26.085 9.83051C26.085 9.92045 26.0423 9.99356 25.9929 10.0782C25.9249 10.1945 25.8443 10.3326 25.8443 10.5661C25.8443 11.1356 26.3017 11.4915 26.735 11.4915C27.2887 11.4915 27.7461 10.9932 27.7461 10.4712C27.7461 9.61695 26.8554 9 25.6758 9C24.2073 9 23.2202 9.80678 22.498 10.8271C21.7054 11.9398 21.2962 13.2415 20.7683 14.9207L20.7647 14.9322H18.5259L18.3573 15.6915H20.5481ZM26.5167 15.6104C26.8437 15.5336 27.0663 15.5017 27.2242 15.5017C27.826 15.5017 27.9945 15.6915 28.3316 17.1153L29.0056 20.0576L27.0316 22.8102C26.526 23.522 26.0686 23.9729 25.8038 23.9729C25.6594 23.9729 25.4187 23.9017 25.1779 23.7593C24.865 23.5932 24.6242 23.4983 24.4076 23.4983C23.9261 23.4983 23.5891 23.878 23.5891 24.3525C23.5891 24.9695 24.0465 25.3491 24.7927 25.3491C25.539 25.3491 26.0205 25.1356 27.0797 23.7356L29.1982 20.9119L29.8964 23.7356C30.1853 24.922 30.5464 25.3491 31.3167 25.3491C32.177 25.3491 32.7818 24.8455 34.012 23.0094C34.0471 22.9571 34.0826 22.9038 34.1187 22.8493C34.1519 22.7991 34.1856 22.748 34.2197 22.696C34.231 22.6788 34.2423 22.6615 34.2537 22.6441L33.8926 22.4305C33.8442 22.4901 33.802 22.5437 33.7623 22.5951C33.7013 22.6741 33.6466 22.7479 33.5856 22.83C33.5283 22.9072 33.4656 22.9917 33.3871 23.0949C32.8334 23.8068 32.5686 24.0441 32.2556 24.0441C31.9186 24.0441 31.7019 23.7356 31.5334 23.0712L30.763 19.8915C30.6186 19.322 30.5704 18.9898 30.5704 18.8237C31.6297 16.9966 32.4963 15.9525 32.9297 15.9525C33.2354 15.9525 33.44 16.0655 33.6327 16.1719C33.8041 16.2665 33.9661 16.3559 34.1815 16.3559C34.663 16.3559 35 16 35 15.5017C35 14.9797 34.5907 14.6237 34.013 14.6237C33.0272 14.6237 32.1874 15.3635 30.7175 17.5125C30.6079 17.6727 30.4948 17.8408 30.3778 18.0169L30.089 16.6644C29.7519 15.0508 29.463 14.6237 28.8612 14.6237C28.3533 14.6237 27.6429 14.7635 26.3954 15.1895C26.3255 15.2134 26.2539 15.2382 26.1805 15.2639L26.1752 15.2657C26.1323 15.2808 26.0887 15.2962 26.0446 15.3119L25.7798 15.4068L25.852 15.7864L26.2853 15.6678C26.3678 15.6464 26.4447 15.6273 26.5167 15.6104Z" fill="var(--mw-icon-glyph-content-gray, #616162)"/>
<rect x="0.5" y="0.5" width="48" height="38" rx="1" stroke="var(--mw-icon-border-default-gray, #616161)"/>
</svg>
