<svg width="50" height="40" viewBox="0 0 50 40" fill="none" xmlns="http://www.w3.org/2000/svg">
<rect x="0.5" y="0.5" width="48" height="38" rx="1" fill="var(--mw-icon-background-default-white, #FFFFFF)"/>
<path d="M20 25V12.8824C20 11.0006 20.5021 9.71218 21.5063 9.017C22.5105 8.31584 23.6216 7.96525 24.8397 7.96525C26.0706 7.96525 27.1072 8.28288 27.9495 8.91812C28.7917 9.54737 29.2128 10.3684 29.2128 11.3812C29.2128 12.0404 28.9861 12.6217 28.5326 13.1251C28.079 13.6225 27.5154 13.9491 26.8416 14.105C27.93 14.2728 28.7269 14.7072 29.2323 15.4084C29.7441 16.1036 30 16.8797 30 17.7366C30 18.7914 29.6566 19.6963 28.9699 20.4514C28.2831 21.2065 27.3469 21.5841 26.1613 21.5841C24.7943 21.5841 23.6508 21.0477 22.7308 19.975V25H20ZM23.965 13.5296C24.7943 13.5177 25.4422 13.3349 25.9086 12.9813C26.3751 12.6277 26.6084 12.1782 26.6084 11.6329C26.6084 11.1355 26.4205 10.734 26.0447 10.4283C25.6754 10.1167 25.2284 9.96088 24.7036 9.96088C24.2501 9.96088 23.8614 10.0897 23.5374 10.3474C23.22 10.5991 23.0062 10.9257 22.896 11.3273C22.7859 11.7288 22.7308 12.3161 22.7308 13.0892V15.8039C22.7308 16.619 22.8053 17.2752 22.9543 17.7726C23.1098 18.264 23.4176 18.6895 23.8776 19.0491C24.3375 19.4086 24.8364 19.5884 25.3741 19.5884C25.8925 19.5884 26.3265 19.4116 26.6764 19.0581C27.0262 18.6985 27.2012 18.24 27.2012 17.6827C27.2012 16.8677 26.9355 16.2055 26.4043 15.6961C25.8795 15.1867 25.0664 14.932 23.965 14.932V13.5296Z" fill="var(--mw-icon-glyph-content-light-blue, #278CDD)"/>
<path d="M21.6151 6.65185L23.6559 4H26.1826L28.1943 6.65185H25.998L24.8707 5.31244L23.8211 6.65185H21.6151Z" fill="var(--mw-icon-glyph-content-light-blue, #278CDD)"/>
<path d="M14.7408 31.348V34.0461C14.6314 34.1739 14.4624 34.3126 14.2339 34.4623C14.0053 34.6088 13.7108 34.735 13.3503 34.841C12.9898 34.947 12.5536 35 12.0418 35C11.588 35 11.1743 34.9283 10.8009 34.7849C10.4276 34.6384 10.1057 34.4248 9.83529 34.1443C9.56813 33.8637 9.36212 33.5208 9.21727 33.1156C9.07242 32.7072 9 32.2411 9 31.7174V31.2919C9 30.7682 9.06921 30.3022 9.20762 29.8938C9.34925 29.4854 9.55042 29.1409 9.81115 28.8604C10.0719 28.5798 10.3825 28.3663 10.743 28.2198C11.1035 28.0733 11.5043 28 11.9453 28C12.5568 28 13.059 28.0966 13.4517 28.2899C13.8444 28.4801 14.1437 28.745 14.3497 29.0848C14.559 29.4215 14.6877 29.8081 14.736 30.2445H13.331C13.2956 30.0138 13.228 29.8127 13.1282 29.6413C13.0284 29.4698 12.8852 29.3358 12.6985 29.2391C12.515 29.1425 12.2768 29.0942 11.9839 29.0942C11.7425 29.0942 11.5268 29.1425 11.3369 29.2391C11.1502 29.3327 10.9925 29.4714 10.8637 29.6553C10.735 29.8392 10.6368 30.0668 10.5692 30.338C10.5016 30.6092 10.4678 30.9241 10.4678 31.2826V31.7174C10.4678 32.0728 10.5032 32.3877 10.574 32.662C10.6448 32.9332 10.7494 33.1623 10.8879 33.3494C11.0295 33.5333 11.2033 33.672 11.4093 33.7655C11.6153 33.8591 11.8551 33.9058 12.1287 33.9058C12.3573 33.9058 12.5472 33.8871 12.6985 33.8497C12.853 33.8123 12.9769 33.7671 13.0702 33.7141C13.1668 33.658 13.2408 33.605 13.2923 33.5551V32.3487H11.9694V31.348H14.7408Z" fill="var(--mw-icon-glyph-content-dark-gray, #333333)"/>
<path d="M18.7478 29.2625L16.8358 34.9065H15.2956L17.9077 28.0982H18.8879L18.7478 29.2625ZM20.3363 34.9065L18.4195 29.2625L18.265 28.0982H19.2548L21.8814 34.9065H20.3363ZM20.2494 32.3721V33.4709H16.5365V32.3721H20.2494Z" fill="var(--mw-icon-glyph-content-dark-gray, #333333)"/>
<path d="M22.5134 28.0982H25.1352C25.6727 28.0982 26.1346 28.1761 26.5209 28.332C26.9104 28.4879 27.2097 28.7185 27.419 29.024C27.6282 29.3295 27.7328 29.7052 27.7328 30.151C27.7328 30.5157 27.6684 30.829 27.5397 31.0908C27.4141 31.3496 27.2355 31.5662 27.0037 31.7408C26.7752 31.9123 26.5064 32.0494 26.1974 32.1523L25.7387 32.3861H23.4598L23.4501 31.2919H25.1448C25.3991 31.2919 25.61 31.2483 25.7774 31.161C25.9447 31.0737 26.0703 30.9521 26.154 30.7963C26.2409 30.6404 26.2843 30.4596 26.2843 30.2538C26.2843 30.0356 26.2425 29.847 26.1588 29.688C26.0751 29.5291 25.948 29.4075 25.7774 29.3233C25.6068 29.2391 25.3927 29.1971 25.1352 29.1971H23.9619V34.9065H22.5134V28.0982ZM26.4437 34.9065L24.8407 31.8717L26.3712 31.8624L27.9935 34.841V34.9065H26.4437Z" fill="var(--mw-icon-glyph-content-dark-gray, #333333)"/>
<path d="M32.9034 32.648H34.3471C34.3181 33.1062 34.1878 33.513 33.956 33.8684C33.7275 34.2238 33.4072 34.5012 32.9952 34.7007C32.5864 34.9002 32.0939 35 31.5177 35C31.0671 35 30.6631 34.9252 30.3058 34.7756C29.9485 34.6228 29.6427 34.4046 29.3884 34.1209C29.1374 33.8372 28.9459 33.4943 28.8139 33.0922C28.6819 32.69 28.6159 32.2396 28.6159 31.7408V31.2685C28.6159 30.7698 28.6835 30.3193 28.8187 29.9172C28.9571 29.5119 29.1535 29.1674 29.4078 28.8838C29.6653 28.6001 29.9727 28.3819 30.33 28.2291C30.6873 28.0764 31.0864 28 31.5274 28C32.1132 28 32.6073 28.1029 33.0097 28.3086C33.4152 28.5144 33.7291 28.798 33.9512 29.1597C34.1765 29.5213 34.3117 29.9328 34.3567 30.3941H32.9083C32.8922 30.1198 32.8358 29.8876 32.7393 29.6974C32.6427 29.5041 32.4963 29.3592 32.2999 29.2625C32.1068 29.1628 31.8493 29.1129 31.5274 29.1129C31.286 29.1129 31.0751 29.1565 30.8949 29.2438C30.7146 29.3311 30.5633 29.4636 30.441 29.6413C30.3187 29.819 30.227 30.0434 30.1658 30.3146C30.1079 30.5827 30.0789 30.8976 30.0789 31.2592V31.7408C30.0789 32.0931 30.1063 32.4033 30.161 32.6713C30.2157 32.9363 30.2994 33.1608 30.412 33.3447C30.5279 33.5255 30.676 33.6627 30.8562 33.7562C31.0397 33.8466 31.2602 33.8918 31.5177 33.8918C31.8203 33.8918 32.0698 33.845 32.2661 33.7515C32.4625 33.658 32.6121 33.5193 32.7151 33.3353C32.8214 33.1514 32.8841 32.9223 32.9034 32.648Z" fill="var(--mw-icon-glyph-content-dark-gray, #333333)"/>
<path d="M39.9667 30.8711V31.9653H36.2973V30.8711H39.9667ZM36.727 28.0982V34.9065H35.2785V28.0982H36.727ZM41 28.0982V34.9065H39.5563V28.0982H41Z" fill="var(--mw-icon-glyph-content-dark-gray, #333333)"/>
<rect x="0.5" y="0.5" width="48" height="38" rx="1" stroke="var(--mw-icon-border-default-gray, #616161)"/>
</svg>
