<svg width="50" height="40" viewBox="0 0 50 40" fill="none" xmlns="http://www.w3.org/2000/svg">
<path d="M0.5 2.5C0.5 1.39543 1.39543 0.5 2.5 0.5H46.5C47.6046 0.5 48.5 1.39543 48.5 2.5V36.5C48.5 37.6046 47.6046 38.5 46.5 38.5H2.5C1.39543 38.5 0.5 37.6046 0.5 36.5V2.5Z" fill="var(--mw-icon-background-default-white, #FFFFFF)" stroke="var(--mw-icon-border-default-gray, #616161)"/>
<path d="M1 32.5C1 32.2239 1.22386 32 1.5 32H3.5C3.77614 32 4 32.2239 4 32.5C4 32.7761 3.77614 33 3.5 33H1.5C1.22386 33 1 32.7761 1 32.5Z" fill="var(--mw-icon-glyph-content-gray, #616162)"/>
<path d="M6 32.5C6 32.2239 6.22386 32 6.5 32H8.5C8.77614 32 9 32.2239 9 32.5C9 32.7761 8.77614 33 8.5 33H6.5C6.22386 33 6 32.7761 6 32.5Z" fill="var(--mw-icon-glyph-content-gray, #616162)"/>
<path d="M11 32.5C11 32.2239 11.2239 32 11.5 32H13.5C13.7761 32 14 32.2239 14 32.5C14 32.7761 13.7761 33 13.5 33H11.5C11.2239 33 11 32.7761 11 32.5Z" fill="var(--mw-icon-glyph-content-gray, #616162)"/>
<path d="M16 32.5C16 32.2239 16.2239 32 16.5 32H18.5C18.7761 32 19 32.2239 19 32.5C19 32.7761 18.7761 33 18.5 33H16.5C16.2239 33 16 32.7761 16 32.5Z" fill="var(--mw-icon-glyph-content-gray, #616162)"/>
<path d="M21 32.5C21 32.2239 21.2239 32 21.5 32H23.5C23.7761 32 24 32.2239 24 32.5C24 32.7761 23.7761 33 23.5 33H21.5C21.2239 33 21 32.7761 21 32.5Z" fill="var(--mw-icon-glyph-content-gray, #616162)"/>
<path d="M26 32.5C26 32.2239 26.2239 32 26.5 32H28.5C28.7761 32 29 32.2239 29 32.5C29 32.7761 28.7761 33 28.5 33H26.5C26.2239 33 26 32.7761 26 32.5Z" fill="var(--mw-icon-glyph-content-gray, #616162)"/>
<path d="M31 32.5C31 32.2239 31.2239 32 31.5 32H33.5C33.7761 32 34 32.2239 34 32.5C34 32.7761 33.7761 33 33.5 33H31.5C31.2239 33 31 32.7761 31 32.5Z" fill="var(--mw-icon-glyph-content-gray, #616162)"/>
<path d="M36 32.5C36 32.2239 36.2239 32 36.5 32H38.5C38.7761 32 39 32.2239 39 32.5C39 32.7761 38.7761 33 38.5 33H36.5C36.2239 33 36 32.7761 36 32.5Z" fill="var(--mw-icon-glyph-content-gray, #616162)"/>
<path d="M41 32.5C41 32.2239 41.2239 32 41.5 32H43.5C43.7761 32 44 32.2239 44 32.5C44 32.7761 43.7761 33 43.5 33H41.5C41.2239 33 41 32.7761 41 32.5Z" fill="var(--mw-icon-glyph-content-gray, #616162)"/>
<path d="M46 32.5C46 32.2239 46.2239 32 46.5 32H48.5C48.7761 32 49 32.2239 49 32.5C49 32.7761 48.7761 33 48.5 33H46.5C46.2239 33 46 32.7761 46 32.5Z" fill="var(--mw-icon-glyph-content-gray, #616162)"/>
<path d="M3 28C3 28 4.5 32 4.5 31.5C4.5 31 10.5 3.5 10.5 3.5L16.5 25.5L19.5 20.5L23.5 8.5L26.5 24.5L29.5 16.5L33.5 30.5L36.5 2L40.5 16.5L44.5 21.5" stroke="var(--mw-icon-glyph-content-light-blue, #278CDD)" stroke-linecap="round" stroke-linejoin="round"/>
</svg>
