<svg width="50" height="40" viewBox="0 0 50 40" fill="none" xmlns="http://www.w3.org/2000/svg">
<rect x="0.5" y="0.5" width="48" height="38" rx="1" fill="var(--mw-icon-background-default-white, #FFFFFF)"/>
<rect x="0.5" y="0.5" width="48" height="38" rx="1" stroke="var(--mw-icon-border-default-gray, #616161)"/>
<path d="M20 25V12.8824C20 11.0006 20.5021 9.71218 21.5063 9.017C22.5105 8.31584 23.6216 7.96525 24.8397 7.96525C26.0706 7.96525 27.1072 8.28288 27.9495 8.91812C28.7917 9.54737 29.2128 10.3684 29.2128 11.3812C29.2128 12.0404 28.9861 12.6217 28.5326 13.1251C28.079 13.6225 27.5154 13.9491 26.8416 14.105C27.93 14.2728 28.7269 14.7072 29.2323 15.4084C29.7441 16.1036 30 16.8797 30 17.7366C30 18.7914 29.6566 19.6963 28.9699 20.4514C28.2831 21.2065 27.3469 21.5841 26.1613 21.5841C24.7943 21.5841 23.6508 21.0477 22.7308 19.975V25H20ZM23.965 13.5296C24.7943 13.5177 25.4422 13.3349 25.9086 12.9813C26.3751 12.6277 26.6084 12.1782 26.6084 11.6329C26.6084 11.1355 26.4205 10.734 26.0447 10.4283C25.6754 10.1167 25.2284 9.96088 24.7036 9.96088C24.2501 9.96088 23.8614 10.0897 23.5374 10.3474C23.22 10.5991 23.0062 10.9257 22.896 11.3273C22.7859 11.7288 22.7308 12.3161 22.7308 13.0892V15.8039C22.7308 16.619 22.8053 17.2752 22.9543 17.7726C23.1098 18.264 23.4176 18.6895 23.8776 19.0491C24.3375 19.4086 24.8364 19.5884 25.3741 19.5884C25.8925 19.5884 26.3265 19.4116 26.6764 19.0581C27.0262 18.6985 27.2012 18.24 27.2012 17.6827C27.2012 16.8677 26.9355 16.2055 26.4043 15.6961C25.8795 15.1867 25.0664 14.932 23.965 14.932V13.5296Z" fill="var(--mw-icon-glyph-content-light-blue, #278CDD)"/>
<path d="M21.6151 6.65185L23.6559 4H26.1826L28.1943 6.65185H25.998L24.8707 5.31244L23.8211 6.65185H21.6151Z" fill="var(--mw-icon-glyph-content-light-blue, #278CDD)"/>
<path d="M21.7815 31.348V34.0461C21.6713 34.1739 21.5011 34.3126 21.2709 34.4623C21.0408 34.6088 20.7442 34.735 20.3811 34.841C20.018 34.947 19.5788 35 19.0634 35C18.6063 35 18.1897 34.9283 17.8137 34.7849C17.4377 34.6384 17.1135 34.4248 16.8412 34.1443C16.5722 33.8637 16.3647 33.5208 16.2188 33.1156C16.0729 32.7072 16 32.2411 16 31.7174V31.2919C16 30.7682 16.0697 30.3022 16.2091 29.8938C16.3517 29.4854 16.5543 29.1409 16.8169 28.8604C17.0795 28.5798 17.3923 28.3663 17.7554 28.2198C18.1184 28.0733 18.522 28 18.9661 28C19.582 28 20.0877 28.0966 20.4832 28.2899C20.8787 28.4801 21.1802 28.745 21.3876 29.0848C21.5983 29.4215 21.728 29.8081 21.7766 30.2445H20.3617C20.326 30.0138 20.2579 29.8127 20.1574 29.6413C20.0569 29.4698 19.9127 29.3358 19.7247 29.2391C19.5399 29.1425 19.3 29.0942 19.005 29.0942C18.7619 29.0942 18.5447 29.1425 18.3534 29.2391C18.1654 29.3327 18.0066 29.4714 17.8769 29.6553C17.7473 29.8392 17.6484 30.0668 17.5803 30.338C17.5122 30.6092 17.4782 30.9241 17.4782 31.2826V31.7174C17.4782 32.0728 17.5139 32.3877 17.5852 32.662C17.6565 32.9332 17.7618 33.1623 17.9012 33.3494C18.0439 33.5333 18.2189 33.672 18.4264 33.7655C18.6338 33.8591 18.8754 33.9058 19.1509 33.9058C19.3811 33.9058 19.5723 33.8871 19.7247 33.8497C19.8803 33.8123 20.0051 33.7671 20.0991 33.7141C20.1963 33.658 20.2709 33.605 20.3228 33.5551V32.3487H18.9904V31.348H21.7815Z" fill="var(--mw-icon-glyph-content-dark-gray, #333333)"/>
<path d="M25.8023 32.8163V28.0982H27.2562V32.8163C27.2562 33.2714 27.1525 33.6627 26.945 33.99C26.7375 34.3142 26.4539 34.5636 26.0941 34.7381C25.7375 34.9127 25.3355 35 24.8882 35C24.4246 35 24.0145 34.9252 23.658 34.7756C23.3014 34.6259 23.021 34.3968 22.8167 34.0882C22.6125 33.7764 22.5104 33.3821 22.5104 32.9051H23.974C23.974 33.1545 24.0097 33.3525 24.081 33.499C24.1555 33.6455 24.2609 33.7499 24.3971 33.8123C24.5332 33.8746 24.6969 33.9058 24.8882 33.9058C25.0729 33.9058 25.2334 33.8637 25.3695 33.7796C25.5057 33.6954 25.6111 33.5723 25.6856 33.4102C25.7634 33.2481 25.8023 33.0501 25.8023 32.8163Z" fill="var(--mw-icon-glyph-content-dark-gray, #333333)"/>
<path d="M28.4811 28.0982H31.1214C31.6628 28.0982 32.1279 28.1761 32.5169 28.332C32.9092 28.4879 33.2107 28.7185 33.4214 29.024C33.6321 29.3295 33.7374 29.7052 33.7374 30.151C33.7374 30.5157 33.6726 30.829 33.5429 31.0908C33.4165 31.3496 33.2366 31.5662 33.0032 31.7408C32.773 31.9123 32.5024 32.0494 32.1912 32.1523L31.7292 32.3861H29.4341L29.4244 31.2919H31.1311C31.3872 31.2919 31.5996 31.2483 31.7681 31.161C31.9367 31.0737 32.0631 30.9521 32.1474 30.7963C32.2349 30.6404 32.2787 30.4596 32.2787 30.2538C32.2787 30.0356 32.2365 29.847 32.1523 29.688C32.068 29.5291 31.9399 29.4075 31.7681 29.3233C31.5963 29.2391 31.3807 29.1971 31.1214 29.1971H29.9398V34.9065H28.4811V28.0982ZM32.4391 34.9065L30.8248 31.8717L32.3662 31.8624L34 34.841V34.9065H32.4391Z" fill="var(--mw-icon-glyph-content-dark-gray, #333333)"/>
</svg>
