<svg width="50" height="40" viewBox="0 0 50 40" fill="none" xmlns="http://www.w3.org/2000/svg">
<rect x="0.5" y="0.5" width="48" height="38" rx="1" fill="var(--mw-icon-background-default-white, white)"/>
<rect x="0.5" y="0.5" width="48" height="38" rx="1" stroke="var(--mw-icon-border-default-gray, #616161)"/>
<path d="M12.08 10.5L7.5 5L3 9.12L4.08 12.5L10.08 18.5L12.08 10.5Z" stroke="#0072BD" stroke-miterlimit="10"/>
<path d="M4 12.5L7.58008 10L9.58008 18" stroke="#0072BD" stroke-miterlimit="10"/>
<path d="M11.5801 10H7.58008L7.5 5.5" stroke="#0072BD" stroke-miterlimit="10"/>
<path d="M7.58008 10L3.58008 9" stroke="#0072BD" stroke-miterlimit="10"/>
<path d="M30 12L20 5L17 16L25 12H30Z" stroke="#0072BD" stroke-miterlimit="10"/>
<path d="M17.5 15.5C18.5 14.5 22.5 9.5 22.5 9.5L25.5 12" stroke="#0072BD" stroke-miterlimit="10"/>
<path d="M22.5 9.5L20 5" stroke="#0072BD" stroke-miterlimit="10"/>
<path d="M46 9L41 5L34 9L36 16L43.38 17.5L46 9Z" stroke="#0072BD" stroke-miterlimit="10"/>
<path d="M45.5 9L39.5 9.5L43.5 17.5" stroke="#0072BD" stroke-miterlimit="10"/>
<path d="M36 15.5L39.5 9.5H34.5" stroke="#0072BD" stroke-miterlimit="10"/>
<path d="M39.5 9.5L41 5" stroke="#0072BD" stroke-miterlimit="10"/>
<path d="M15 28.5L7.61538 22.9615L6.69231 27.5769L3 34.0385L10.8462 33.5769L15 28.5Z" stroke="#0072BD" stroke-miterlimit="10"/>
<path d="M10.8462 33.5769L9 28.0385L14.5385 28.5" stroke="#0072BD" stroke-miterlimit="10"/>
<path d="M3.92285 33.5769L8.99977 28.0384L6.69208 27.5769" stroke="#0072BD" stroke-miterlimit="10"/>
<path d="M8.99985 28.0385L7.61523 22.9615" stroke="#0072BD" stroke-miterlimit="10"/>
<path d="M31 28.4L25.4 22L19 26.8L20.304 32L26.2 34L31 28.4Z" stroke="#0072BD" stroke-miterlimit="10"/>
<path d="M25.75 34L24 28H30.5" stroke="#0072BD" stroke-miterlimit="10"/>
<path d="M20.4286 32L24 28L19 27" stroke="#0072BD" stroke-miterlimit="10"/>
<path d="M24 28L25.5 22.5" stroke="#0072BD" stroke-miterlimit="10"/>
<rect x="0.5" y="0.5" width="48" height="38" rx="1" stroke="var(--mw-icon-border-default-gray, #616161)"/>

</svg>
