<svg width="50" height="40" viewBox="0 0 50 40" fill="none" xmlns="http://www.w3.org/2000/svg">
<rect x="0.5" y="0.5" width="48" height="38" rx="1" fill="var(--mw-icon-background-default-white, white)"/>
<path d="M15.5 13.5L21.5 16.5M21.5 16.5L25.5 22.5M21.5 16.5L35.5 9.5M21.5 16.5L12.5 28.5M21.5 16.5L17.5 9.5M21.5 16.5L22.5 9.5M43.5 7.5L35.5 9.5M35.5 9.5L38.5 5.5M35.5 9.5L41.5 12.5M12.5 28.5L6.5 25.5M12.5 28.5L4.5 29.5M12.5 28.5L7.5 33.5M12.5 28.5V33.5" stroke="var(--mw-icon-background-default-selection, #B4DEFF)"/>
<path d="M8 25.5C8 26.3284 7.32843 27 6.5 27C5.67157 27 5 26.3284 5 25.5C5 24.6716 5.67157 24 6.5 24C7.32843 24 8 24.6716 8 25.5Z" fill="#0072BD"/>
<path d="M6 29.5C6 30.3284 5.32843 31 4.5 31C3.67157 31 3 30.3284 3 29.5C3 28.6716 3.67157 28 4.5 28C5.32843 28 6 28.6716 6 29.5Z" fill="#0072BD"/>
<path d="M9 33.5C9 34.3284 8.32843 35 7.5 35C6.67157 35 6 34.3284 6 33.5C6 32.6716 6.67157 32 7.5 32C8.32843 32 9 32.6716 9 33.5Z" fill="#0072BD"/>
<path d="M14 33.5C14 34.3284 13.3284 35 12.5 35C11.6716 35 11 34.3284 11 33.5C11 32.6716 11.6716 32 12.5 32C13.3284 32 14 32.6716 14 33.5Z" fill="#0072BD"/>
<path d="M14 28.5C14 29.3284 13.3284 30 12.5 30C11.6716 30 11 29.3284 11 28.5C11 27.6716 11.6716 27 12.5 27C13.3284 27 14 27.6716 14 28.5Z" fill="#0072BD"/>
<path d="M23 16.5C23 17.3284 22.3284 18 21.5 18C20.6716 18 20 17.3284 20 16.5C20 15.6716 20.6716 15 21.5 15C22.3284 15 23 15.6716 23 16.5Z" fill="#0072BD"/>
<path d="M17 13.5C17 14.3284 16.3284 15 15.5 15C14.6716 15 14 14.3284 14 13.5C14 12.6716 14.6716 12 15.5 12C16.3284 12 17 12.6716 17 13.5Z" fill="#0072BD"/>
<path d="M19 9.5C19 10.3284 18.3284 11 17.5 11C16.6716 11 16 10.3284 16 9.5C16 8.67157 16.6716 8 17.5 8C18.3284 8 19 8.67157 19 9.5Z" fill="#0072BD"/>
<path d="M24 9.5C24 10.3284 23.3284 11 22.5 11C21.6716 11 21 10.3284 21 9.5C21 8.67157 21.6716 8 22.5 8C23.3284 8 24 8.67157 24 9.5Z" fill="#0072BD"/>
<path d="M27 22.5C27 23.3284 26.3284 24 25.5 24C24.6716 24 24 23.3284 24 22.5C24 21.6716 24.6716 21 25.5 21C26.3284 21 27 21.6716 27 22.5Z" fill="#0072BD"/>
<path d="M37 9.5C37 10.3284 36.3284 11 35.5 11C34.6716 11 34 10.3284 34 9.5C34 8.67157 34.6716 8 35.5 8C36.3284 8 37 8.67157 37 9.5Z" fill="#0072BD"/>
<path d="M40 5.5C40 6.32843 39.3284 7 38.5 7C37.6716 7 37 6.32843 37 5.5C37 4.67157 37.6716 4 38.5 4C39.3284 4 40 4.67157 40 5.5Z" fill="#0072BD"/>
<path d="M45 7.5C45 8.32843 44.3284 9 43.5 9C42.6716 9 42 8.32843 42 7.5C42 6.67157 42.6716 6 43.5 6C44.3284 6 45 6.67157 45 7.5Z" fill="#0072BD"/>
<path d="M43 12.5C43 13.3284 42.3284 14 41.5 14C40.6716 14 40 13.3284 40 12.5C40 11.6716 40.6716 11 41.5 11C42.3284 11 43 11.6716 43 12.5Z" fill="#0072BD"/>
<rect x="0.5" y="0.5" width="48" height="38" rx="1" stroke="var(--mw-icon-border-default-gray, #616161)"/>

</svg>
