<svg width="50" height="40" viewBox="0 0 50 40" fill="none" xmlns="http://www.w3.org/2000/svg">
<path d="M45.5 27L25.5 38L5.5 27L5.50002 12.2617L25.5 0.5L45.5 12.2617V27Z" stroke="var(--mw-icon-glyph-disabled-gray, #888889)" stroke-linejoin="round"/>
<path d="M25.5 15.5V0.5L45.5 12.5V27L25.5 15.5Z" fill="var(--mw-icon-background-default-light-gray, #F5F5F5)"/>
<path d="M25.5 15.5V0.5L5.5 12.5V27L25.5 15.5Z" fill="var(--mw-icon-background-default-medium-gray, #D9D9D9)"/>
<path d="M5.5 26.5L25.5 15L45.5 26.5" stroke="var(--mw-icon-background-default-dark-gray, #A6A6A6)"/>
<path d="M5.5 21.5L25.5 10L45.5 21.5" stroke="var(--mw-icon-background-default-dark-gray, #A6A6A6)"/>
<path d="M5.5 16.5L25.5 5L45.5 16.5" stroke="var(--mw-icon-background-default-dark-gray, #A6A6A6)"/>
<path d="M45.5 27L25.5 38L5.5 27L5.50002 12.2617L25.5 0.5L45.5 12.2617V27Z" stroke="var(--mw-icon-border-default-gray, #616161)" stroke-linejoin="round"/>
</svg>
