<svg width="50" height="40" viewBox="0 0 50 40" fill="none" xmlns="http://www.w3.org/2000/svg">
<rect width="36" height="30" transform="translate(6 7)" fill="var(--mw-icon-background-default-white, #FFFFFF)"/>
<path d="M40.5 7.5H7.5C6.94772 7.5 6.5 7.94772 6.5 8.5V35.5C6.5 36.0523 6.94772 36.5 7.5 36.5H40.5C41.0523 36.5 41.5 36.0523 41.5 35.5V8.5C41.5 7.94772 41.0523 7.5 40.5 7.5Z" fill="var(--mw-icon-background-default-light-gray, #F5F5F5)" stroke="var(--mw-icon-border-default-gray, #616161)"/>
<path d="M27.5 8V36" stroke="var(--mw-icon-background-default-dark-gray, #A6A6A6)"/>
<path d="M34.5 8V36" stroke="var(--mw-icon-background-default-dark-gray, #A6A6A6)"/>
<path d="M20.5 8V36" stroke="var(--mw-icon-background-default-dark-gray, #A6A6A6)"/>
<path d="M13.5 8V36" stroke="var(--mw-icon-background-default-dark-gray, #A6A6A6)"/>
<path d="M7 31.5H41" stroke="var(--mw-icon-background-default-dark-gray, #A6A6A6)"/>
<path d="M7 25.5H41" stroke="var(--mw-icon-background-default-dark-gray, #A6A6A6)"/>
<path d="M7 13.5H41" stroke="var(--mw-icon-background-default-dark-gray, #A6A6A6)"/>
<path d="M7 19.5H41" stroke="var(--mw-icon-background-default-dark-gray, #A6A6A6)"/>
</svg>
