<svg width="50" height="40" viewBox="0 0 50 40" fill="none" xmlns="http://www.w3.org/2000/svg">
<rect x="0.5" y="0.5" width="48" height="38" rx="1" fill="var(--mw-icon-background-default-white, #FFFFFF)"/>
<path d="M1 28.5C2.88657 28.5 4.69461 23.9918 5.5 21C6.30539 18.0082 7.28116 10.5 7.5 10.5C7.71884 10.5 8.4743 19.7142 10.3582 24.9513C11.4924 28.1043 14.1493 34.5 20.5 34.5C21.2162 34.5 39.9574 34.5 48 34.5" stroke="#0072BD"/>
<line x1="24.5" y1="21.5" x2="38.5" y2="21.5" stroke="var(--mw-icon-glyph-content-dark-gray, #333333)" stroke-linecap="round"/>
<line x1="21" y1="15.5" x2="25" y2="15.5" stroke="var(--mw-icon-glyph-content-dark-gray, #333333)"/>
<path d="M28.6486 10.5L28.5286 10.26C28.8326 10.076 29.2246 9.98401 29.7046 9.98401C31.2086 9.98401 31.9606 11.024 31.9606 13.104C31.9606 13.496 31.9286 13.9 31.8646 14.316C31.8006 14.732 31.6846 15.172 31.5166 15.636C31.3486 16.1 31.1366 16.516 30.8806 16.884C30.6246 17.244 30.2846 17.544 29.8606 17.784C29.4366 18.016 28.9566 18.132 28.4206 18.132C27.8686 18.132 27.4566 17.948 27.1846 17.58C26.9206 17.212 26.7886 16.748 26.7886 16.188C26.7886 15.316 27.0886 14.532 27.6886 13.836C28.2966 13.132 29.0246 12.78 29.8726 12.78C30.4246 12.78 30.8086 12.972 31.0246 13.356C31.0806 13.044 31.1086 12.764 31.1086 12.516C31.1086 11.9 30.9846 11.384 30.7366 10.968C30.4966 10.552 30.0966 10.344 29.5366 10.344C29.2726 10.344 28.9766 10.396 28.6486 10.5ZM30.7126 14.172C30.7126 13.82 30.6366 13.56 30.4846 13.392C30.3406 13.224 30.1726 13.14 29.9806 13.14C29.3966 13.14 28.8806 13.504 28.4326 14.232C27.9846 14.952 27.7606 15.74 27.7606 16.596C27.7606 17.38 28.0286 17.772 28.5646 17.772C28.9966 17.772 29.3846 17.536 29.7286 17.064C30.0806 16.592 30.3486 16.02 30.5326 15.348C30.6526 14.908 30.7126 14.516 30.7126 14.172Z" fill="var(--mw-icon-glyph-content-dark-gray, #333333)"/>
<path d="M37.717 9.98401L37.057 12.72C37.745 12.72 38.305 12.868 38.737 13.164C39.177 13.452 39.397 13.924 39.397 14.58C39.397 15.524 39.077 16.34 38.437 17.028C37.757 17.764 36.853 18.132 35.725 18.132L35.149 20.196H34.177L34.729 18.132C34.049 18.132 33.497 17.956 33.073 17.604C32.649 17.252 32.437 16.744 32.437 16.08C32.437 15.2 32.773 14.416 33.445 13.728C34.109 13.056 34.929 12.72 35.905 12.72H36.097C36.353 11.704 36.565 10.792 36.733 9.98401H37.717ZM36.973 13.068L35.809 17.772C36.497 17.772 37.097 17.428 37.609 16.74C38.121 16.052 38.377 15.352 38.377 14.64C38.377 14.136 38.265 13.748 38.041 13.476C37.817 13.196 37.461 13.06 36.973 13.068ZM34.837 17.772L36.025 13.068C35.281 13.068 34.665 13.384 34.177 14.016C33.689 14.648 33.445 15.344 33.445 16.104C33.445 16.512 33.577 16.892 33.841 17.244C34.105 17.596 34.437 17.772 34.837 17.772Z" fill="var(--mw-icon-glyph-content-dark-gray, #333333)"/>
<path d="M26.9318 24.5L26.8118 24.26C27.1158 24.076 27.5078 23.984 27.9878 23.984C29.4918 23.984 30.2438 25.024 30.2438 27.104C30.2438 27.496 30.2118 27.9 30.1478 28.316C30.0838 28.732 29.9678 29.172 29.7998 29.636C29.6318 30.1 29.4198 30.516 29.1638 30.884C28.9078 31.244 28.5678 31.544 28.1438 31.784C27.7198 32.016 27.2398 32.132 26.7038 32.132C26.1518 32.132 25.7398 31.948 25.4678 31.58C25.2038 31.212 25.0718 30.748 25.0718 30.188C25.0718 29.316 25.3718 28.532 25.9718 27.836C26.5798 27.132 27.3078 26.78 28.1558 26.78C28.7078 26.78 29.0918 26.972 29.3078 27.356C29.3638 27.044 29.3918 26.764 29.3918 26.516C29.3918 25.9 29.2678 25.384 29.0198 24.968C28.7798 24.552 28.3798 24.344 27.8198 24.344C27.5558 24.344 27.2598 24.396 26.9318 24.5ZM28.9958 28.172C28.9958 27.82 28.9198 27.56 28.7678 27.392C28.6238 27.224 28.4558 27.14 28.2638 27.14C27.6798 27.14 27.1638 27.504 26.7158 28.232C26.2678 28.952 26.0438 29.74 26.0438 30.596C26.0438 31.38 26.3118 31.772 26.8478 31.772C27.2798 31.772 27.6678 31.536 28.0118 31.064C28.3638 30.592 28.6318 30.02 28.8158 29.348C28.9358 28.908 28.9958 28.516 28.9958 28.172Z" fill="var(--mw-icon-glyph-content-dark-gray, #333333)"/>
<path d="M35.8202 26.9L35.8922 26.708C37.4122 26.708 38.1722 27.352 38.1722 28.64C38.1722 29.6 37.8522 30.424 37.2122 31.112C36.5722 31.792 35.9122 32.132 35.2322 32.132C34.8802 32.132 34.5882 32.032 34.3562 31.832C34.1322 31.632 34.0082 31.376 33.9842 31.064C33.4002 31.776 32.7842 32.132 32.1362 32.132C31.7522 32.132 31.4282 32.024 31.1642 31.808C30.9082 31.592 30.7282 31.348 30.6242 31.076C30.5282 30.796 30.4802 30.504 30.4802 30.2C30.4802 29.216 30.8122 28.388 31.4762 27.716C32.1482 27.044 33.0082 26.708 34.0562 26.708H34.2482L34.2842 26.9C33.5402 26.9 32.8842 27.276 32.3162 28.028C31.7482 28.772 31.4642 29.648 31.4642 30.656C31.4642 30.952 31.5362 31.212 31.6802 31.436C31.8242 31.66 32.0242 31.772 32.2802 31.772C32.6082 31.772 32.9202 31.636 33.2162 31.364C33.5202 31.092 33.7162 30.808 33.8042 30.512C33.7802 30.336 33.7682 30.132 33.7682 29.9C33.7682 29.572 33.8002 29.248 33.8642 28.928C33.9362 28.608 34.0642 28.32 34.2482 28.064C34.4402 27.8 34.6682 27.668 34.9322 27.668C35.0442 27.668 35.1362 27.724 35.2082 27.836C35.2882 27.948 35.3282 28.08 35.3282 28.232C35.3282 28.888 35.0162 29.668 34.3922 30.572C34.3922 30.916 34.4562 31.204 34.5842 31.436C34.7202 31.66 34.9362 31.772 35.2322 31.772C35.5602 31.772 35.8842 31.568 36.2042 31.16C36.5242 30.752 36.7722 30.296 36.9482 29.792C37.1242 29.288 37.2122 28.856 37.2122 28.496C37.2122 27.944 37.1002 27.556 36.8762 27.332C36.6602 27.1 36.3082 26.956 35.8202 26.9Z" fill="var(--mw-icon-glyph-content-dark-gray, #333333)"/>
<rect x="0.5" y="0.5" width="48" height="38" rx="1" stroke="var(--mw-icon-border-default-gray, #616161)"/>
</svg>
