<svg width="50" height="40" viewBox="0 0 50 40" fill="none" xmlns="http://www.w3.org/2000/svg">
<rect x="0.5" y="0.5" width="48" height="38" rx="1" fill="var(--mw-icon-background-default-white, #FFFFFF)"/>
<rect x="1" y="1" width="47" height="7" fill="#E6E6E6"/>
<path d="M1 8.5H48" stroke="#BFBFBF"/>
<rect x="4" y="2" width="5" height="5" fill="var(--mw-icon-background-default-dark-gray, #A6A6A6)"/>
<rect x="13" y="2" width="5" height="5" fill="var(--mw-icon-background-default-dark-gray, #A6A6A6)"/>
<rect x="22" y="2" width="5" height="5" fill="var(--mw-icon-background-default-dark-gray, #A6A6A6)"/>
<rect x="31" y="2" width="5" height="5" fill="var(--mw-icon-background-default-dark-gray, #A6A6A6)"/>
<rect x="40" y="2" width="5" height="5" fill="var(--mw-icon-background-default-dark-gray, #A6A6A6)"/>
<path d="M1 28.5C2.88657 28.5 4.69461 23.9918 5.5 21C6.30539 18.0082 7.28116 10.5 7.5 10.5C7.71884 10.5 8.4743 19.7142 10.3582 24.9513C11.4924 28.1043 14.1493 34.5 20.5 34.5C21.2162 34.5 39.9574 34.5 48 34.5" stroke="#0072BD"/>
<line x1="21.5" y1="21.5" x2="36.5" y2="21.5" stroke="var(--mw-icon-glyph-content-dark-gray, #333333)" stroke-linecap="round"/>
<path d="M28.4956 10.5126L28.3783 10.2742C28.6754 10.0914 29.0585 10 29.5276 10C30.9975 10 31.7324 11.0331 31.7324 13.0992C31.7324 13.4885 31.7011 13.8898 31.6386 14.3031C31.576 14.7163 31.4627 15.1533 31.2985 15.6142C31.1343 16.0751 30.9271 16.4884 30.6769 16.8539C30.4267 17.2115 30.0944 17.5095 29.6801 17.7479C29.2657 17.9783 28.7966 18.0936 28.2728 18.0936C27.7333 18.0936 27.3307 17.9108 27.0648 17.5452C26.8068 17.1797 26.6778 16.7188 26.6778 16.1625C26.6778 15.2964 26.971 14.5176 27.5574 13.8263C28.1516 13.127 28.8631 12.7773 29.6918 12.7773C30.2313 12.7773 30.6066 12.968 30.8176 13.3495C30.8724 13.0396 30.8997 12.7614 30.8997 12.5151C30.8997 11.9032 30.7786 11.3906 30.5362 10.9774C30.3016 10.5642 29.9107 10.3576 29.3634 10.3576C29.1054 10.3576 28.8161 10.4092 28.4956 10.5126ZM30.5127 14.16C30.5127 13.8104 30.4385 13.5521 30.2899 13.3852C30.1492 13.2183 29.985 13.1349 29.7973 13.1349C29.2266 13.1349 28.7223 13.4965 28.2845 14.2196C27.8467 14.9348 27.6278 15.7175 27.6278 16.5678C27.6278 17.3466 27.8897 17.736 28.4135 17.736C28.8357 17.736 29.2149 17.5015 29.5511 17.0327C29.8951 16.5638 30.157 15.9957 30.3368 15.3282C30.4541 14.8911 30.5127 14.5017 30.5127 14.16Z" fill="var(--mw-icon-glyph-content-dark-gray, #333333)"/>
<path d="M37.3581 10L36.7131 12.7177C37.3855 12.7177 37.9328 12.8647 38.355 13.1588C38.785 13.4448 39 13.9137 39 14.5653C39 15.503 38.6873 16.3135 38.0618 16.9969C37.3972 17.728 36.5138 18.0936 35.4114 18.0936L34.8484 20.1438H33.8985L34.438 18.0936C33.7734 18.0936 33.234 17.9187 32.8196 17.5691C32.4052 17.2194 32.198 16.7148 32.198 16.0553C32.198 15.1811 32.5264 14.4024 33.1831 13.719C33.8321 13.0515 34.6334 12.7177 35.5873 12.7177H35.7749C36.0251 11.7085 36.2323 10.8026 36.3965 10H37.3581ZM36.631 13.0634L35.4935 17.736C36.1658 17.736 36.7522 17.3943 37.2526 16.7109C37.753 16.0275 38.0032 15.3321 38.0032 14.6249C38.0032 14.1243 37.8937 13.7388 37.6748 13.4687C37.4559 13.1905 37.108 13.0554 36.631 13.0634ZM34.5435 17.736L35.7046 13.0634C34.9774 13.0634 34.3754 13.3773 33.8985 14.0051C33.4216 14.6328 33.1831 15.3242 33.1831 16.0791C33.1831 16.4844 33.3121 16.8618 33.5701 17.2115C33.8281 17.5611 34.1526 17.736 34.5435 17.736Z" fill="var(--mw-icon-glyph-content-dark-gray, #333333)"/>
<path d="M26.8178 24.419L26.7005 24.1806C26.9976 23.9978 27.3807 23.9064 27.8498 23.9064C29.3197 23.9064 30.0546 24.9395 30.0546 27.0056C30.0546 27.395 30.0233 27.7963 29.9608 28.2095C29.8982 28.6227 29.7848 29.0598 29.6207 29.5207C29.4565 29.9816 29.2493 30.3948 28.9991 30.7603C28.7489 31.1179 28.4166 31.4159 28.0023 31.6543C27.5879 31.8848 27.1188 32 26.5949 32C26.0555 32 25.6528 31.8172 25.387 31.4517C25.129 31.0861 25 30.6252 25 30.069C25 29.2028 25.2932 28.4241 25.8796 27.7327C26.4738 27.0334 27.1852 26.6838 28.014 26.6838C28.5534 26.6838 28.9287 26.8745 29.1398 27.2559C29.1946 26.946 29.2219 26.6679 29.2219 26.4215C29.2219 25.8096 29.1007 25.2971 28.8584 24.8839C28.6238 24.4707 28.2329 24.264 27.6856 24.264C27.4276 24.264 27.1383 24.3157 26.8178 24.419ZM28.8349 28.0665C28.8349 27.7168 28.7606 27.4586 28.6121 27.2917C28.4714 27.1248 28.3072 27.0414 28.1195 27.0414C27.5488 27.0414 27.0445 27.4029 26.6067 28.1261C26.1688 28.8413 25.9499 29.624 25.9499 30.4743C25.9499 31.253 26.2118 31.6424 26.7357 31.6424C27.1579 31.6424 27.5371 31.408 27.8733 30.9391C28.2173 30.4703 28.4792 29.9021 28.659 29.2346C28.7763 28.7975 28.8349 28.4082 28.8349 28.0665Z" fill="var(--mw-icon-glyph-content-dark-gray, #333333)"/>
<path d="M35.5044 26.803L35.5748 26.6122C37.0603 26.6122 37.803 27.2519 37.803 28.5313C37.803 29.4849 37.4903 30.3034 36.8648 30.9868C36.2393 31.6623 35.5943 32 34.9298 32C34.5858 32 34.3004 31.9007 34.0736 31.702C33.8547 31.5033 33.7335 31.2491 33.7101 30.9391C33.1394 31.6464 32.5373 32 31.904 32C31.5288 32 31.2121 31.8927 30.9541 31.6782C30.7039 31.4636 30.528 31.2212 30.4264 30.9511C30.3326 30.6729 30.2856 30.3829 30.2856 30.0809C30.2856 29.1035 30.6101 28.281 31.259 27.6135C31.9158 26.946 32.7563 26.6122 33.7805 26.6122H33.9681L34.0033 26.803C33.2762 26.803 32.6351 27.1765 32.08 27.9234C31.5249 28.6625 31.2473 29.5326 31.2473 30.5339C31.2473 30.8279 31.3177 31.0861 31.4584 31.3087C31.5991 31.5312 31.7946 31.6424 32.0448 31.6424C32.3653 31.6424 32.6702 31.5073 32.9595 31.2371C33.2566 30.9669 33.4482 30.6848 33.5342 30.3908C33.5107 30.216 33.499 30.0134 33.499 29.7829C33.499 29.4571 33.5303 29.1353 33.5928 28.8174C33.6632 28.4995 33.7883 28.2135 33.9681 27.9592C34.1557 27.6969 34.3786 27.5658 34.6366 27.5658C34.746 27.5658 34.8359 27.6215 34.9063 27.7327C34.9845 27.844 35.0236 27.9751 35.0236 28.1261C35.0236 28.7777 34.7187 29.5525 34.1088 30.4504C34.1088 30.7921 34.1714 31.0782 34.2965 31.3087C34.4294 31.5312 34.6405 31.6424 34.9298 31.6424C35.2503 31.6424 35.567 31.4398 35.8797 31.0345C36.1924 30.6292 36.4348 30.1763 36.6068 29.6756C36.7788 29.175 36.8648 28.7459 36.8648 28.3883C36.8648 27.84 36.7553 27.4546 36.5364 27.2321C36.3253 27.0016 35.9813 26.8586 35.5044 26.803Z" fill="var(--mw-icon-glyph-content-dark-gray, #333333)"/>
<line x1="21" y1="15.5" x2="25" y2="15.5" stroke="var(--mw-icon-glyph-content-dark-gray, #333333)"/>
<rect x="0.5" y="0.5" width="48" height="38" rx="1" stroke="var(--mw-icon-border-default-gray, #616161)"/>
</svg>
