<svg width="50" height="40" viewBox="0 0 50 40" fill="none" xmlns="http://www.w3.org/2000/svg">
<rect x="0.5" y="0.5" width="48" height="38" rx="1" fill="var(--mw-icon-background-default-white, #FFFFFF)"/>
<path d="M3 4C3 3.44771 3.44772 3 4 3H45C45.5523 3 46 3.44772 46 4V35C46 35.5523 45.5523 36 45 36H4C3.44772 36 3 35.5523 3 35V4Z" fill="#2E87F7"/>
<path d="M10 10V7L14 8V10H10Z" fill="#4852F4"/>
<path d="M39 5V3H42V4L40 5H39Z" fill="#12B1D6"/>
<path d="M7 29V30L12 32H20L21 31L21.0323 36H45C45.5523 36 46 35.5523 46 35L46 14L37.5561 13.0066L35 14V17H33V22H30V24H26V26H22V29H7Z" fill="#ABC739"/>
<path d="M21.8333 15L21 12H26V15H21.8333Z" fill="#ABC739"/>
<path d="M6 13L10 11.6667V9H8L7 5H6V13Z" fill="#ABC739"/>
<path d="M14.9522 15V12.9539L18.0001 14V19L12.0001 18.9178V16L14.9522 15Z" fill="#ABC739"/>
<path d="M6.67763 22.5592L3 21.2336V28H5V26H8L9.5 27H12V22H8.5L6.67763 22.5592Z" fill="#FEC338"/>
<path d="M13.1135 17H3V19.245L6.03725 20.5707H11.2747L13.1135 19.9079V17Z" fill="#FEC338"/>
<path d="M19.0001 4.5V3H33.0001V7L19.0001 4.5Z" fill="#FEC338"/>
<path d="M43 6H38V8L40 9V10H42.5V9H41.6151V7.63979H42.5345L43 7V6Z" fill="#FEC338"/>
<path d="M31.5017 8.30262L24.1465 6.97696L23.2271 8.30262L24.1465 10H26L26.9047 8.96545L30 9V9.5L28.5 10L29 11H30.5L31.5017 10.2911V8.30262Z" fill="#FEC338"/>
<path d="M32 9.75L33 9H37V11.25H35L34 12H33V11.25L32 10.5V9.75Z" fill="#FEC338"/>
<path d="M38.9881 36V34H42V33.5L40 33V31H45L45.2927 30.6311L44.3642 29H42V30.0345H38.9881L37.5 30.5H36L36.5 29.5L38.5 29L38.9881 28.2449L37 27.5L36.6239 28H35.0478V24.6656L33.4717 24.0691L32.6836 25.2622H30.3194V26.4552H31.8956V27.6483H30.3194L27.9552 25.7622L26.3791 25.1656L24.803 26.3587H26.3791L27.1672 27.0518H25.9851L25.2484 27.3501L26 28H29V30.5L27.9552 31H26L25.9851 30L26.5 29.5L25 28H23L24.5 29.5L23 30V31H24.0149L23.5 32.5L24.0149 33.0173V35H22L21.5 34.5L21 35H20L19.2865 34.2103H17.7104V34.8069H14.5582L14 34L10 34.0115V35H7V34.5L7.59704 34.0115V33H8L10 31.5V29.5L8 31H4L3 30.5V35C3 35.5522 3.44772 36 4 36L38.9881 36Z" fill="#FEC338"/>
<path d="M40 20V21H43V22H45V20H43L42 19H40V17H38L36 20L35.5 18H34V22H36L36.5 21L38 19H39V20H40Z" fill="#FEC338"/>
<rect x="0.5" y="0.5" width="48" height="38" rx="1" stroke="var(--mw-icon-border-default-gray, #616161)"/>
</svg>
