<svg width="50" height="40" viewBox="0 0 50 40" fill="none" xmlns="http://www.w3.org/2000/svg">
<rect x="1" y="24" width="6" height="6" fill="var(--mw-icon-borderColor-light-blue, #268CDD)"/>
<path d="M1 3H7V9H1V3Z" fill="var(--mw-icon-background-lightest-blue, #E2F0FF)"/>
<path d="M1 10H7V16H1V10Z" fill="var(--mw-icon-background-medium-blue, #83CAFF)"/>
<rect x="35" y="10" width="7" height="6" fill="var(--mw-icon-background-lightest-blue, #E2F0FF)"/>
<rect x="43" y="31" width="6" height="6" fill="var(--mw-icon-background-lightest-blue, #E2F0FF)"/>
<rect x="36" y="24" width="6" height="6" fill="var(--mw-icon-background-lightest-blue, #E2F0FF)"/>
<rect x="29" y="3" width="13" height="6" fill="var(--mw-icon-background-medium-blue, #83CAFF)"/>
<rect x="8" y="17" width="6" height="6" fill="var(--mw-icon-background-default-selection, #B4DEFF)"/>
<rect x="8" y="3" width="6" height="6" fill="var(--mw-icon-borderColor-light-blue, #268CDD)"/>
<rect x="8" y="10" width="6" height="6" fill="#54B6FF"/>
<rect x="8" y="24" width="6" height="6" fill="#54B6FF"/>
<rect x="15" y="17" width="6" height="6" fill="#54B6FF"/>
<rect x="22" y="10" width="13" height="6" fill="#54B6FF"/>
<rect x="22" y="31" width="13" height="6" fill="#54B6FF"/>
<rect x="15" y="3" width="7" height="6" fill="var(--mw-icon-borderColor-light-blue, #268CDD)"/>
<rect x="15" y="10" width="6" height="6" fill="var(--mw-icon-borderColor-light-blue, #268CDD)"/>
<rect x="22" y="3" width="6" height="6" fill="var(--mw-icon-background-medium-blue, #83CAFF)"/>
<rect x="29" y="17" width="6" height="6" fill="var(--mw-icon-background-lightest-blue, #E2F0FF)"/>
<rect x="1" y="17" width="6" height="6" fill="#54B6FF"/>
<rect x="29" y="24" width="6" height="6" fill="var(--mw-icon-background-default-selection, #B4DEFF)"/>
<path d="M1 31H14V37H1V31Z" fill="var(--mw-icon-background-lightest-blue, #E2F0FF)"/>
<rect x="15" y="23" width="6" height="14" fill="var(--mw-icon-background-lightest-blue, #E2F0FF)"/>
<rect x="22" y="17" width="6" height="13" fill="var(--mw-icon-background-default-selection, #B4DEFF)"/>
<path d="M43 3H49V16H43V3Z" fill="var(--mw-icon-borderColor-light-blue, #268CDD)"/>
<rect x="43" y="17" width="6" height="6" fill="#54B6FF"/>
<path d="M43 24H49V30H43V24Z" fill="var(--mw-icon-background-default-selection, #B4DEFF)"/>
<rect x="36" y="31" width="6" height="6" fill="var(--mw-icon-background-default-selection, #B4DEFF)"/>
<rect x="36" y="17" width="6" height="6" fill="var(--mw-icon-background-default-selection, #B4DEFF)"/>
<path d="M0.5 9.5H49.5M49.5 16.5H0.5M0.5 23.5H49.5M42.5 37.5V2.5M28.5 37.5V2.5M21.5 37.5V2.5M14.5 37.5V2.5M7.5 37.5V2.5M0.5 30.5H49.5M35.5 37.5V2.5" stroke="var(--mw-icon-border-default-gray, #616161)"/>
<path d="M0.5 3.5C0.5 2.94772 0.947715 2.5 1.5 2.5H48.5C49.0523 2.5 49.5 2.94772 49.5 3.5V36.5C49.5 37.0523 49.0523 37.5 48.5 37.5H1.5C0.947715 37.5 0.5 37.0523 0.5 36.5V3.5Z" stroke="var(--mw-icon-border-default-gray, #616161)"/>

</svg>
