<svg width="51" height="41" viewBox="0 0 51 41" fill="none" xmlns="http://www.w3.org/2000/svg">
<path d="M5.55811 27.7523V12.7523L24.5581 1.75232L43.5581 12.7523V27.7523L24.5581 38.7523L5.55811 27.7523Z" fill="var(--mw-icon-background-default-white, #FFFFFF)"/>
<path d="M24.5581 17.2523L24.5639 2.33594L43.0778 13.0062V27.8748L24.5581 17.2523Z" fill="var(--mw-icon-background-default-light-gray, #F5F5F5)"/>
<path d="M24.5581 17.2523L24.5523 2.33594L6.03844 13.0198L6.03845 27.8748L24.5581 17.2523Z" fill="#E6E6E6"/>
<path d="M43.5581 27.7523V12.7114L24.5581 1.75232L5.55811 12.7223" stroke="#BFBFBF" stroke-linecap="round" stroke-linejoin="round"/>
<path d="M5.55811 12.7523V27.7823L24.5581 38.7523L43.5581 27.7875" stroke="var(--mw-icon-border-default-gray, #616161)" stroke-linecap="round" stroke-linejoin="round"/>
<path d="M32.9853 23.2574C37.6716 25.6005 37.6716 29.3995 32.9853 31.7426C28.299 34.0858 20.701 34.0858 16.0147 31.7426C11.3284 29.3995 11.3284 25.6005 16.0147 23.2574C20.701 20.9142 28.299 20.9142 32.9853 23.2574Z" fill="#EDB120" stroke="#745A26"/>
<path d="M29.5 13.5C29.5 14.6046 27.0376 15.5 24 15.5C20.9624 15.5 18.5 14.6046 18.5 13.5C18.5 12.3954 20.9624 11.5 24 11.5C27.0376 11.5 29.5 12.3954 29.5 13.5ZM29.5 13.5C29.5 13.5 30.5 14.8431 30.5 16.5C30.5 18.1569 29.5 19.5 29.5 19.5M29.5 13.5C29.5 13.5 30.5 12.1569 30.5 10.5C30.5 8.84315 29.5 7.5 29.5 7.5M29.5 19.5C29.5 20.6046 27.0376 21.5 24 21.5C20.9624 21.5 18.5 20.6046 18.5 19.5C18.5 18.3954 20.9624 17.5 24 17.5C27.0376 17.5 29.5 18.3954 29.5 19.5ZM29.5 19.5C29.5 19.5 30.5 20.8431 30.5 22.5C30.5 24.1569 29.5 25.5 29.5 25.5M29.5 25.5C29.5 25.5 30.5 26.8431 30.5 28.5M29.5 25.5C29.5 26.6046 27.0376 27.5 24 27.5C20.9624 27.5 18.5 26.6046 18.5 25.5C18.5 24.3954 20.9624 23.5 24 23.5C27.0376 23.5 29.5 24.3954 29.5 25.5Z" stroke="#745A26" stroke-linecap="round"/>
</svg>
