<svg width="50" height="40" viewBox="0 0 50 40" fill="none" xmlns="http://www.w3.org/2000/svg">
<rect x="0.5" y="0.5" width="48" height="38" rx="1" fill="var(--mw-icon-background-default-white, #FFFFFF)"/>
<rect x="0.5" y="0.5" width="48" height="38" rx="1" stroke="var(--mw-icon-border-default-gray, #616161)"/>
<path d="M18 8C18 8.55228 17.5523 9 17 9C16.4477 9 16 8.55228 16 8C16 7.44772 16.4477 7 17 7C17.5523 7 18 7.44772 18 8Z" fill="#0072BD"/>
<path d="M18 11C18 11.5523 17.5523 12 17 12C16.4477 12 16 11.5523 16 11C16 10.4477 16.4477 10 17 10C17.5523 10 18 10.4477 18 11Z" fill="#0072BD"/>
<path d="M18 14C18 14.5523 17.5523 15 17 15C16.4477 15 16 14.5523 16 14C16 13.4477 16.4477 13 17 13C17.5523 13 18 13.4477 18 14Z" fill="#0072BD"/>
<path d="M18 17C18 17.5523 17.5523 18 17 18C16.4477 18 16 17.5523 16 17C16 16.4477 16.4477 16 17 16C17.5523 16 18 16.4477 18 17Z" fill="#0072BD"/>
<path d="M18 20C18 20.5523 17.5523 21 17 21C16.4477 21 16 20.5523 16 20C16 19.4477 16.4477 19 17 19C17.5523 19 18 19.4477 18 20Z" fill="#0072BD"/>
<path d="M18 23C18 23.5523 17.5523 24 17 24C16.4477 24 16 23.5523 16 23C16 22.4477 16.4477 22 17 22C17.5523 22 18 22.4477 18 23Z" fill="#0072BD"/>
<path d="M18 26C18 26.5523 17.5523 27 17 27C16.4477 27 16 26.5523 16 26C16 25.4477 16.4477 25 17 25C17.5523 25 18 25.4477 18 26Z" fill="#0072BD"/>
<path d="M18 29C18 29.5523 17.5523 30 17 30C16.4477 30 16 29.5523 16 29C16 28.4477 16.4477 28 17 28C17.5523 28 18 28.4477 18 29Z" fill="#0072BD"/>
<path d="M18 32C18 32.5523 17.5523 33 17 33C16.4477 33 16 32.5523 16 32C16 31.4477 16.4477 31 17 31C17.5523 31 18 31.4477 18 32Z" fill="#0072BD"/>
<path d="M21 8C21 8.55228 20.5523 9 20 9C19.4477 9 19 8.55228 19 8C19 7.44772 19.4477 7 20 7C20.5523 7 21 7.44772 21 8Z" fill="#0072BD"/>
<path d="M21 11C21 11.5523 20.5523 12 20 12C19.4477 12 19 11.5523 19 11C19 10.4477 19.4477 10 20 10C20.5523 10 21 10.4477 21 11Z" fill="#0072BD"/>
<path d="M21 14C21 14.5523 20.5523 15 20 15C19.4477 15 19 14.5523 19 14C19 13.4477 19.4477 13 20 13C20.5523 13 21 13.4477 21 14Z" fill="#0072BD"/>
<path d="M21 17C21 17.5523 20.5523 18 20 18C19.4477 18 19 17.5523 19 17C19 16.4477 19.4477 16 20 16C20.5523 16 21 16.4477 21 17Z" fill="#0072BD"/>
<path d="M21 20C21 20.5523 20.5523 21 20 21C19.4477 21 19 20.5523 19 20C19 19.4477 19.4477 19 20 19C20.5523 19 21 19.4477 21 20Z" fill="#0072BD"/>
<path d="M21 23C21 23.5523 20.5523 24 20 24C19.4477 24 19 23.5523 19 23C19 22.4477 19.4477 22 20 22C20.5523 22 21 22.4477 21 23Z" fill="#0072BD"/>
<path d="M21 26C21 26.5523 20.5523 27 20 27C19.4477 27 19 26.5523 19 26C19 25.4477 19.4477 25 20 25C20.5523 25 21 25.4477 21 26Z" fill="#0072BD"/>
<path d="M21 29C21 29.5523 20.5523 30 20 30C19.4477 30 19 29.5523 19 29C19 28.4477 19.4477 28 20 28C20.5523 28 21 28.4477 21 29Z" fill="#0072BD"/>
<path d="M21 32C21 32.5523 20.5523 33 20 33C19.4477 33 19 32.5523 19 32C19 31.4477 19.4477 31 20 31C20.5523 31 21 31.4477 21 32Z" fill="#0072BD"/>
<path d="M24 8C24 8.55228 23.5523 9 23 9C22.4477 9 22 8.55228 22 8C22 7.44772 22.4477 7 23 7C23.5523 7 24 7.44772 24 8Z" fill="#0072BD"/>
<path d="M24 11C24 11.5523 23.5523 12 23 12C22.4477 12 22 11.5523 22 11C22 10.4477 22.4477 10 23 10C23.5523 10 24 10.4477 24 11Z" fill="#0072BD"/>
<path d="M24 14C24 14.5523 23.5523 15 23 15C22.4477 15 22 14.5523 22 14C22 13.4477 22.4477 13 23 13C23.5523 13 24 13.4477 24 14Z" fill="#0072BD"/>
<path d="M24 17C24 17.5523 23.5523 18 23 18C22.4477 18 22 17.5523 22 17C22 16.4477 22.4477 16 23 16C23.5523 16 24 16.4477 24 17Z" fill="#0072BD"/>
<path d="M24 20C24 20.5523 23.5523 21 23 21C22.4477 21 22 20.5523 22 20C22 19.4477 22.4477 19 23 19C23.5523 19 24 19.4477 24 20Z" fill="#0072BD"/>
<path d="M24 23C24 23.5523 23.5523 24 23 24C22.4477 24 22 23.5523 22 23C22 22.4477 22.4477 22 23 22C23.5523 22 24 22.4477 24 23Z" fill="#0072BD"/>
<path d="M24 26C24 26.5523 23.5523 27 23 27C22.4477 27 22 26.5523 22 26C22 25.4477 22.4477 25 23 25C23.5523 25 24 25.4477 24 26Z" fill="#0072BD"/>
<path d="M24 29C24 29.5523 23.5523 30 23 30C22.4477 30 22 29.5523 22 29C22 28.4477 22.4477 28 23 28C23.5523 28 24 28.4477 24 29Z" fill="#0072BD"/>
<path d="M24 32C24 32.5523 23.5523 33 23 33C22.4477 33 22 32.5523 22 32C22 31.4477 22.4477 31 23 31C23.5523 31 24 31.4477 24 32Z" fill="#0072BD"/>
<path d="M27 8C27 8.55228 26.5523 9 26 9C25.4477 9 25 8.55228 25 8C25 7.44772 25.4477 7 26 7C26.5523 7 27 7.44772 27 8Z" fill="#0072BD"/>
<path d="M27 11C27 11.5523 26.5523 12 26 12C25.4477 12 25 11.5523 25 11C25 10.4477 25.4477 10 26 10C26.5523 10 27 10.4477 27 11Z" fill="#0072BD"/>
<path d="M27 14C27 14.5523 26.5523 15 26 15C25.4477 15 25 14.5523 25 14C25 13.4477 25.4477 13 26 13C26.5523 13 27 13.4477 27 14Z" fill="#0072BD"/>
<path d="M27 17C27 17.5523 26.5523 18 26 18C25.4477 18 25 17.5523 25 17C25 16.4477 25.4477 16 26 16C26.5523 16 27 16.4477 27 17Z" fill="#0072BD"/>
<path d="M27 20C27 20.5523 26.5523 21 26 21C25.4477 21 25 20.5523 25 20C25 19.4477 25.4477 19 26 19C26.5523 19 27 19.4477 27 20Z" fill="#0072BD"/>
<path d="M27 23C27 23.5523 26.5523 24 26 24C25.4477 24 25 23.5523 25 23C25 22.4477 25.4477 22 26 22C26.5523 22 27 22.4477 27 23Z" fill="#0072BD"/>
<path d="M27 26C27 26.5523 26.5523 27 26 27C25.4477 27 25 26.5523 25 26C25 25.4477 25.4477 25 26 25C26.5523 25 27 25.4477 27 26Z" fill="#0072BD"/>
<path d="M27 29C27 29.5523 26.5523 30 26 30C25.4477 30 25 29.5523 25 29C25 28.4477 25.4477 28 26 28C26.5523 28 27 28.4477 27 29Z" fill="#0072BD"/>
<path d="M27 32C27 32.5523 26.5523 33 26 33C25.4477 33 25 32.5523 25 32C25 31.4477 25.4477 31 26 31C26.5523 31 27 31.4477 27 32Z" fill="#0072BD"/>
<path d="M30 8C30 8.55228 29.5523 9 29 9C28.4477 9 28 8.55228 28 8C28 7.44772 28.4477 7 29 7C29.5523 7 30 7.44772 30 8Z" fill="#0072BD"/>
<path d="M30 11C30 11.5523 29.5523 12 29 12C28.4477 12 28 11.5523 28 11C28 10.4477 28.4477 10 29 10C29.5523 10 30 10.4477 30 11Z" fill="#0072BD"/>
<path d="M30 14C30 14.5523 29.5523 15 29 15C28.4477 15 28 14.5523 28 14C28 13.4477 28.4477 13 29 13C29.5523 13 30 13.4477 30 14Z" fill="#0072BD"/>
<path d="M30 17C30 17.5523 29.5523 18 29 18C28.4477 18 28 17.5523 28 17C28 16.4477 28.4477 16 29 16C29.5523 16 30 16.4477 30 17Z" fill="#0072BD"/>
<path d="M30 20C30 20.5523 29.5523 21 29 21C28.4477 21 28 20.5523 28 20C28 19.4477 28.4477 19 29 19C29.5523 19 30 19.4477 30 20Z" fill="#0072BD"/>
<path d="M30 23C30 23.5523 29.5523 24 29 24C28.4477 24 28 23.5523 28 23C28 22.4477 28.4477 22 29 22C29.5523 22 30 22.4477 30 23Z" fill="#0072BD"/>
<path d="M30 26C30 26.5523 29.5523 27 29 27C28.4477 27 28 26.5523 28 26C28 25.4477 28.4477 25 29 25C29.5523 25 30 25.4477 30 26Z" fill="#0072BD"/>
<path d="M30 29C30 29.5523 29.5523 30 29 30C28.4477 30 28 29.5523 28 29C28 28.4477 28.4477 28 29 28C29.5523 28 30 28.4477 30 29Z" fill="#0072BD"/>
<path d="M30 32C30 32.5523 29.5523 33 29 33C28.4477 33 28 32.5523 28 32C28 31.4477 28.4477 31 29 31C29.5523 31 30 31.4477 30 32Z" fill="#0072BD"/>
<path d="M33 8C33 8.55228 32.5523 9 32 9C31.4477 9 31 8.55228 31 8C31 7.44772 31.4477 7 32 7C32.5523 7 33 7.44772 33 8Z" fill="#0072BD"/>
<path d="M33 11C33 11.5523 32.5523 12 32 12C31.4477 12 31 11.5523 31 11C31 10.4477 31.4477 10 32 10C32.5523 10 33 10.4477 33 11Z" fill="#0072BD"/>
<path d="M34 11C34 11.5523 34.4477 12 35 12C35.1821 12 35.3529 11.9513 35.5 11.8662L34.5 10.1338C34.2011 10.3067 34 10.6299 34 11Z" fill="#0072BD"/>
<path d="M14 12C14.5523 12 15 11.5523 15 11C15 10.6299 14.7989 10.3067 14.5 10.1338L13.5385 11.8874C13.6766 11.9593 13.8335 12 14 12Z" fill="#0072BD"/>
<path d="M33 14C33 14.5523 32.5523 15 32 15C31.4477 15 31 14.5523 31 14C31 13.4477 31.4477 13 32 13C32.5523 13 33 13.4477 33 14Z" fill="#0072BD"/>
<path d="M36 14C36 14.5523 35.5523 15 35 15C34.4477 15 34 14.5523 34 14C34 13.4477 34.4477 13 35 13C35.5523 13 36 13.4477 36 14Z" fill="#0072BD"/>
<path d="M15 14C15 14.5523 14.5523 15 14 15C13.4477 15 13 14.5523 13 14C13 13.4477 13.4477 13 14 13C14.5523 13 15 13.4477 15 14Z" fill="#0072BD"/>
<path d="M33 17C33 17.5523 32.5523 18 32 18C31.4477 18 31 17.5523 31 17C31 16.4477 31.4477 16 32 16C32.5523 16 33 16.4477 33 17Z" fill="#0072BD"/>
<path d="M36 17C36 17.5523 35.5523 18 35 18C34.4477 18 34 17.5523 34 17C34 16.4477 34.4477 16 35 16C35.5523 16 36 16.4477 36 17Z" fill="#0072BD"/>
<path d="M15 17C15 17.5523 14.5523 18 14 18C13.4477 18 13 17.5523 13 17C13 16.4477 13.4477 16 14 16C14.5523 16 15 16.4477 15 17Z" fill="#0072BD"/>
<path d="M37 16.9999C37 17.5522 37.4477 17.9999 38 17.9999C38.2806 17.9999 38.5341 17.8844 38.7157 17.6983L37.7717 16.0261C37.3294 16.1294 37 16.5262 37 16.9999Z" fill="#0072BD"/>
<path d="M11 17.9999C11.5523 17.9999 12 17.5522 12 16.9999C12 16.5313 11.6776 16.1379 11.2425 16.0295L10.2877 17.7018C10.4691 17.8859 10.7212 17.9999 11 17.9999Z" fill="#0072BD"/>
<path d="M33 20C33 20.5523 32.5523 21 32 21C31.4477 21 31 20.5523 31 20C31 19.4477 31.4477 19 32 19C32.5523 19 33 19.4477 33 20Z" fill="#0072BD"/>
<path d="M36 20C36 20.5523 35.5523 21 35 21C34.4477 21 34 20.5523 34 20C34 19.4477 34.4477 19 35 19C35.5523 19 36 19.4477 36 20Z" fill="#0072BD"/>
<path d="M15 20C15 20.5523 14.5523 21 14 21C13.4477 21 13 20.5523 13 20C13 19.4477 13.4477 19 14 19C14.5523 19 15 19.4477 15 20Z" fill="#0072BD"/>
<path d="M39 20C39 20.5523 38.5523 21 38 21C37.4477 21 37 20.5523 37 20C37 19.4477 37.4477 19 38 19C38.5523 19 39 19.4477 39 20Z" fill="#0072BD"/>
<path d="M12 20C12 20.5523 11.5523 21 11 21C10.4477 21 10 20.5523 10 20C10 19.4477 10.4477 19 11 19C11.5523 19 12 19.4477 12 20Z" fill="#0072BD"/>
<path d="M33 23C33 23.5523 32.5523 24 32 24C31.4477 24 31 23.5523 31 23C31 22.4477 31.4477 22 32 22C32.5523 22 33 22.4477 33 23Z" fill="#0072BD"/>
<path d="M36 23C36 23.5523 35.5523 24 35 24C34.4477 24 34 23.5523 34 23C34 22.4477 34.4477 22 35 22C35.5523 22 36 22.4477 36 23Z" fill="#0072BD"/>
<path d="M15 23C15 23.5523 14.5523 24 14 24C13.4477 24 13 23.5523 13 23C13 22.4477 13.4477 22 14 22C14.5523 22 15 22.4477 15 23Z" fill="#0072BD"/>
<path d="M38 22C37.4477 22 37 22.4477 37 23C37 23.4711 37.3258 23.8661 37.7643 23.9721L38.7112 22.297C38.5299 22.1136 38.2782 22 38 22Z" fill="#0072BD"/>
<path d="M12 23C12 22.4477 11.5523 22 11 22C10.7208 22 10.4683 22.1144 10.2869 22.299L11.2269 23.9741C11.6699 23.8714 12 23.4742 12 23Z" fill="#0072BD"/>
<path d="M33 26C33 26.5523 32.5523 27 32 27C31.4477 27 31 26.5523 31 26C31 25.4477 31.4477 25 32 25C32.5523 25 33 25.4477 33 26Z" fill="#0072BD"/>
<path d="M36 26C36 26.5523 35.5523 27 35 27C34.4477 27 34 26.5523 34 26C34 25.4477 34.4477 25 35 25C35.5523 25 36 25.4477 36 26Z" fill="#0072BD"/>
<path d="M15 26C15 26.5523 14.5523 27 14 27C13.4477 27 13 26.5523 13 26C13 25.4477 13.4477 25 14 25C14.5523 25 15 25.4477 15 26Z" fill="#0072BD"/>
<path d="M33 29C33 29.5523 32.5523 30 32 30C31.4477 30 31 29.5523 31 29C31 28.4477 31.4477 28 32 28C32.5523 28 33 28.4477 33 29Z" fill="#0072BD"/>
<path d="M35 28C34.4477 28 34 28.4477 34 29C34 29.3701 34.2011 29.6933 34.5 29.8662L35.4654 28.1147C35.3264 28.0414 35.168 28 35 28Z" fill="#0072BD"/>
<path d="M13.9654 28C14.5177 28 14.9654 28.4477 14.9654 29C14.9654 29.3701 14.7643 29.6933 14.4654 29.8662L13.5 28.1147C13.639 28.0414 13.7974 28 13.9654 28Z" fill="#0072BD"/>
<path d="M33 32C33 32.5523 32.5523 33 32 33C31.4477 33 31 32.5523 31 32C31 31.4477 31.4477 31 32 31C32.5523 31 33 31.4477 33 32Z" fill="#0072BD"/>
</svg>
