<svg width="50" height="40" viewBox="0 0 50 40" fill="none" xmlns="http://www.w3.org/2000/svg">
<path d="M43.5 27.1309L24.5016 38.1L5 27L5.00002 12.2617L24.5 1L43.5 11.9688V27.1309Z" fill="var(--mw-icon-background-default-white, white)"/>
<path d="M43.5 27V11.959L24.5 1L5.5 11.97" stroke="#BFBFBF" stroke-linecap="round" stroke-linejoin="round"/>
<path opacity="0.2" d="M24.5 16.5001L24.5058 1.58374L43.0197 12.254V27.1226L24.5 16.5001Z" fill="#BFBFBF"/>
<path opacity="0.4" d="M24.5 16.4999L24.4942 1.5835L5.98034 12.2674L5.98034 27.1224L24.5 16.4999Z" fill="#BFBFBF"/>
<path d="M5.5 12V27.03L24.5 38L43.5 27.0352" stroke="var(--mw-icon-border-default-gray, #616161)" stroke-linecap="round"/>
<path d="M19.4987 17.0869L14.5287 19.9613C14.5154 19.969 14.5154 19.9883 14.5287 19.996L19.4987 22.8663L24.4688 19.9927C24.4821 19.985 24.4821 19.9658 24.4688 19.9581L19.4987 17.0869Z" fill="var(--mw-icon-background-medium-blue, #83CAFF)" stroke="var(--mw-icon-glyph-content-dark-blue, #104280)" stroke-linejoin="round"/>
<path d="M14.5001 17.3604L9.5302 20.2348C9.51688 20.2425 9.51689 20.2617 9.53021 20.2694L14.5001 23.1397L19.4703 20.2662C19.4836 20.2585 19.4836 20.2392 19.4703 20.2315L14.5001 17.3604Z" fill="var(--mw-icon-background-medium-blue, #83CAFF)" stroke="var(--mw-icon-glyph-content-dark-blue, #104280)" stroke-linejoin="round"/>
<path d="M9.5 22.9501L13.97 25.5337C13.9834 25.5414 14.0001 25.5318 14.0001 25.5164L14.0001 22.8449L9.52999 20.2673C9.51666 20.2596 9.5 20.2692 9.5 20.2846V22.9501Z" fill="#54B6FF" stroke="var(--mw-icon-glyph-content-dark-blue, #104280)" stroke-linejoin="round"/>
<path d="M9.49991 22.8665L5.52996 25.1625C5.51664 25.1702 5.51664 25.1895 5.52997 25.1972L9.49991 27.4899L13.47 25.1946C13.4834 25.1869 13.4834 25.1676 13.47 25.1599L9.49991 22.8665Z" fill="var(--mw-icon-background-medium-blue, #83CAFF)" stroke="var(--mw-icon-glyph-content-dark-blue, #104280)" stroke-linejoin="round"/>
<path d="M5.5 27.0375L9.97004 29.6211C9.98338 29.6288 10.0001 29.6192 10.0001 29.6038L10.0001 27.7576L5.52999 25.18C5.51666 25.1723 5.5 25.1819 5.5 25.1973V27.0375Z" fill="#54B6FF" stroke="var(--mw-icon-glyph-content-dark-blue, #104280)" stroke-linejoin="round"/>
<path d="M14.5 25.3778L19.4695 28.25C19.4828 28.2577 19.4995 28.2481 19.4995 28.2327V24.2285L14.53 21.3629C14.5167 21.3552 14.5 21.3648 14.5 21.3802V25.3778Z" fill="#54B6FF" stroke="var(--mw-icon-glyph-content-dark-blue, #104280)" stroke-linejoin="round"/>
<path d="M19.4995 18.4504L24.4687 21.3245C24.4821 21.3322 24.4821 21.3514 24.4687 21.3591L19.4995 24.2291L14.53 21.3559C14.5166 21.3482 14.5166 21.3289 14.53 21.3212L19.4995 18.4504Z" fill="var(--mw-icon-background-medium-blue, #83CAFF)" stroke="var(--mw-icon-glyph-content-dark-blue, #104280)" stroke-linejoin="round"/>
<path d="M29.5017 17.1111L34.4709 19.9851C34.4843 19.9928 34.4843 20.0121 34.4709 20.0198L29.5017 22.8897L24.5322 20.0165C24.5188 20.0088 24.5188 19.9896 24.5322 19.9819L29.5017 17.1111Z" fill="var(--mw-icon-background-medium-blue, #83CAFF)" stroke="var(--mw-icon-glyph-content-dark-blue, #104280)" stroke-linejoin="round"/>
<path d="M9.49951 29.3434L14.4697 32.2161C14.4831 32.2238 14.4997 32.2141 14.4997 32.1987V29.251L9.5295 26.3849C9.51617 26.3772 9.49951 26.3868 9.49951 26.4022V29.3434Z" fill="#54B6FF" stroke="var(--mw-icon-glyph-content-dark-blue, #104280)" stroke-linejoin="round"/>
<path d="M14.4997 23.4719L19.4697 26.3464C19.483 26.3541 19.483 26.3733 19.4697 26.381L14.4997 29.2514L9.52947 26.3778C9.51615 26.3701 9.51615 26.3508 9.52948 26.3432L14.4997 23.4719Z" fill="var(--mw-icon-background-medium-blue, #83CAFF)" stroke="var(--mw-icon-glyph-content-dark-blue, #104280)" stroke-linejoin="round"/>
<path d="M34.5001 17.1104L39.47 19.9848C39.4834 19.9925 39.4834 20.0117 39.47 20.0194L34.5001 22.8897L29.53 20.0162C29.5166 20.0085 29.5166 19.9892 29.53 19.9815L34.5001 17.1104Z" fill="var(--mw-icon-background-medium-blue, #83CAFF)" stroke="var(--mw-icon-glyph-content-dark-blue, #104280)" stroke-linejoin="round"/>
<path d="M39.5 22.2633L34.5298 25.136C34.5165 25.1437 34.4998 25.1341 34.4998 25.1187L34.4998 22.8835L39.47 20.0175C39.4833 20.0098 39.5 20.0194 39.5 20.0348V22.2633Z" fill="#1171BE" stroke="var(--mw-icon-glyph-content-dark-blue, #104280)" stroke-linejoin="round"/>
<path d="M24.499 19.4984L29.4692 22.3711C29.4826 22.3788 29.4992 22.3692 29.4992 22.3538V18.349L24.529 15.4829C24.5157 15.4753 24.499 15.4849 24.499 15.5003V19.4984Z" fill="#54B6FF" stroke="var(--mw-icon-glyph-content-dark-blue, #104280)" stroke-linejoin="round"/>
<path d="M19.499 26.3695L24.4692 29.2422C24.4826 29.2499 24.4992 29.2403 24.4992 29.2249V13.0494L19.529 10.1833C19.5157 10.1757 19.499 10.1853 19.499 10.2007V26.3695Z" fill="#54B6FF" stroke="var(--mw-icon-glyph-content-dark-blue, #104280)" stroke-linejoin="round"/>
<path d="M24.4992 7.27026L29.4692 10.1447C29.4826 10.1524 29.4825 10.1717 29.4692 10.1794L24.4992 13.0497L19.529 10.1761C19.5157 10.1684 19.5157 10.1492 19.529 10.1415L24.4992 7.27026Z" fill="var(--mw-icon-background-medium-blue, #83CAFF)" stroke="var(--mw-icon-glyph-content-dark-blue, #104280)" stroke-linejoin="round"/>
<path d="M29.4995 28.2287L24.5293 31.1013C24.516 31.109 24.4993 31.0994 24.4993 31.084L24.4992 13.0469L29.4695 10.1808C29.4828 10.1731 29.4994 10.1828 29.4994 10.1982L29.4995 28.2287Z" fill="#1171BE" stroke="var(--mw-icon-glyph-content-dark-blue, #104280)" stroke-linejoin="round"/>
<path d="M14.5 32.2362L19.4702 35.1089C19.4835 35.1166 19.5002 35.107 19.5002 35.0916V28.0677L14.53 25.2016C14.5167 25.1939 14.5 25.2035 14.5 25.2189V32.2362Z" fill="#54B6FF" stroke="var(--mw-icon-glyph-content-dark-blue, #104280)" stroke-linejoin="round"/>
<path d="M29.4993 24.5277L34.4695 27.4004C34.4828 27.4081 34.4995 27.3985 34.4995 27.3831V22.8834L29.5293 20.0173C29.5159 20.0096 29.4993 20.0192 29.4993 20.0346V24.5277Z" fill="#54B6FF" stroke="var(--mw-icon-glyph-content-dark-blue, #104280)" stroke-linejoin="round"/>
<path d="M19.5002 22.2886L24.4702 25.163C24.4835 25.1707 24.4835 25.19 24.4702 25.1977L19.5002 28.068L14.53 25.1944C14.5166 25.1867 14.5166 25.1675 14.53 25.1598L19.5002 22.2886Z" fill="var(--mw-icon-background-medium-blue, #83CAFF)" stroke="var(--mw-icon-glyph-content-dark-blue, #104280)" stroke-linejoin="round"/>
<path d="M24.5005 29.2169L19.5303 32.0896C19.5169 32.0973 19.5003 32.0877 19.5003 32.0723L19.5003 28.0652L24.4705 25.1991C24.4838 25.1914 24.5005 25.201 24.5005 25.2164V29.2169Z" fill="#1171BE" stroke="var(--mw-icon-glyph-content-dark-blue, #104280)" stroke-linejoin="round"/>
<path d="M39.5001 22.1389L43.47 24.435C43.4834 24.4427 43.4834 24.4619 43.47 24.4696L39.5001 26.7624L35.53 24.467C35.5166 24.4593 35.5166 24.4401 35.53 24.4324L39.5001 22.1389Z" fill="var(--mw-icon-background-medium-blue, #83CAFF)" stroke="var(--mw-icon-glyph-content-dark-blue, #104280)" stroke-linejoin="round"/>
<path d="M43.4995 27.0348L38.5293 29.9075C38.516 29.9152 38.4993 29.9056 38.4993 29.8902L38.4993 27.3341L43.4695 24.468C43.4829 24.4603 43.4995 24.4699 43.4995 24.4853V27.0348Z" fill="#1171BE" stroke="var(--mw-icon-glyph-content-dark-blue, #104280)" stroke-linejoin="round"/>
<path d="M29.5007 29.3505L34.4709 32.2231C34.4843 32.2309 34.501 32.2212 34.501 32.2058V27.1979L29.5307 24.3318C29.5174 24.3242 29.5007 24.3338 29.5007 24.3492V29.3505Z" fill="#54B6FF" stroke="var(--mw-icon-glyph-content-dark-blue, #104280)" stroke-linejoin="round"/>
<path d="M34.5009 21.4211L39.4709 24.2956C39.4843 24.3033 39.4843 24.3225 39.4709 24.3302L34.5009 27.2006L29.5307 24.327C29.5174 24.3193 29.5174 24.3001 29.5307 24.2924L34.5009 21.4211Z" fill="var(--mw-icon-background-medium-blue, #83CAFF)" stroke="var(--mw-icon-glyph-content-dark-blue, #104280)" stroke-linejoin="round"/>
<path d="M39.5012 29.3493L34.531 32.2219C34.5177 32.2296 34.501 32.22 34.501 32.2046L34.501 27.1979L39.4712 24.3318C39.4846 24.3241 39.5012 24.3338 39.5012 24.3492V29.3493Z" fill="#1171BE" stroke="var(--mw-icon-glyph-content-dark-blue, #104280)" stroke-linejoin="round"/>
<path d="M24.5002 32.2301L29.4705 35.1028C29.4838 35.1105 29.5005 35.1009 29.5005 35.0855V32.0807L24.5302 29.2146C24.5169 29.2069 24.5002 29.2166 24.5002 29.232V32.2301Z" fill="#54B6FF" stroke="var(--mw-icon-glyph-content-dark-blue, #104280)" stroke-linejoin="round"/>
<path d="M29.5004 26.3015L34.4705 29.176C34.4838 29.1837 34.4838 29.2029 34.4704 29.2106L29.5004 32.081L24.5302 29.2074C24.5169 29.1997 24.5169 29.1804 24.5302 29.1727L29.5004 26.3015Z" fill="var(--mw-icon-background-medium-blue, #83CAFF)" stroke="var(--mw-icon-glyph-content-dark-blue, #104280)" stroke-linejoin="round"/>
<path d="M34.5007 32.2301L29.5305 35.1028C29.5172 35.1105 29.5005 35.1009 29.5005 35.0855L29.5005 32.0784L34.4707 29.2123C34.4841 29.2046 34.5007 29.2142 34.5007 29.2296V32.2301Z" fill="#1171BE" stroke="var(--mw-icon-glyph-content-dark-blue, #104280)" stroke-linejoin="round"/>
<path d="M19.5002 35.1122L24.4705 37.9849C24.4838 37.9926 24.5005 37.9829 24.5005 37.9675V32.9596L19.5302 30.0936C19.5169 30.0859 19.5002 30.0955 19.5002 30.1109V35.1122Z" fill="#54B6FF" stroke="var(--mw-icon-glyph-content-dark-blue, #104280)" stroke-linejoin="round"/>
<path d="M24.5004 27.1831L29.4705 30.0576C29.4838 30.0653 29.4838 30.0845 29.4704 30.0922L24.5004 32.9626L19.5302 30.089C19.5169 30.0813 19.5169 30.062 19.5302 30.0543L24.5004 27.1831Z" fill="var(--mw-icon-background-medium-blue, #83CAFF)" stroke="var(--mw-icon-glyph-content-dark-blue, #104280)" stroke-linejoin="round"/>
<path d="M29.5007 35.111L24.5305 37.9836C24.5172 37.9913 24.5005 37.9817 24.5005 37.9663L24.5005 32.9596L29.4707 30.0935C29.4841 30.0859 29.5007 30.0955 29.5007 30.1109V35.111Z" fill="#1171BE" stroke="var(--mw-icon-glyph-content-dark-blue, #104280)" stroke-linejoin="round"/>
<path d="M5.5 12V27.03L24.5 38L43.2496 27.1772" stroke="var(--mw-icon-border-default-gray, #616161)" stroke-linecap="round"/>

</svg>
