<svg width="50" height="41" viewBox="0 0 50 41" fill="none" xmlns="http://www.w3.org/2000/svg">
<path d="M5.5 27.5V12.5L24.5 1.5L43.5 12.5V27.5L24.5 38.5L5.5 27.5Z" fill="var(--mw-icon-background-default-white, white)"/>
<path d="M24.5 17L24.5058 2.08362L43.0197 12.7539V27.6225L24.5 17Z" fill="var(--mw-icon-background-default-light-gray, #F5F5F5)"/>
<path d="M24.5 17L24.4942 2.08362L5.98034 12.7675L5.98034 27.6225L24.5 17Z" fill="#E6E6E6"/>
<path d="M43.5 27.5V12.459L24.5 1.5L5.5 12.47" stroke="#BFBFBF" stroke-linecap="round" stroke-linejoin="round"/>
<path d="M5.5 12.5V27.53L24.5 38.5L43.5 27.5352" stroke="var(--mw-icon-border-default-gray, #616161)" stroke-linecap="round" stroke-linejoin="round"/>
<path d="M9.99997 21.2772L5.5301 23.8624C5.51678 23.8701 5.51678 23.8894 5.53011 23.8971L9.99997 26.4786L14.47 23.8941C14.4834 23.8864 14.4834 23.8672 14.47 23.8595L9.99997 21.2772Z" fill="var(--mw-icon-background-medium-blue, #83CAFF)" stroke="var(--mw-icon-glyph-content-dark-blue, #104280)" stroke-linejoin="round"/>
<path d="M5.5 27.5126L9.97004 30.0962C9.98338 30.1039 10.0001 30.0943 10.0001 30.0789L10.0001 26.4761L5.52999 23.8984C5.51666 23.8907 5.5 23.9003 5.5 23.9157V27.5126Z" fill="#54B6FF" stroke="var(--mw-icon-glyph-content-dark-blue, #104280)" stroke-linejoin="round"/>
<path d="M24.4985 12.797L28.9686 15.3805C28.9819 15.3883 28.9986 15.3786 28.9986 15.3632V11.7625L24.5285 9.18488C24.5152 9.17719 24.4985 9.18682 24.4985 9.20221V12.797Z" fill="#54B6FF" stroke="var(--mw-icon-glyph-content-dark-blue, #104280)" stroke-linejoin="round"/>
<path d="M19.4985 10.1132L24.4687 12.9858C24.4821 12.9935 24.4988 12.9839 24.4988 12.9685V8.96378L19.5285 6.09769C19.5152 6.09 19.4985 6.09962 19.4985 6.11501V10.1132Z" fill="#54B6FF" stroke="var(--mw-icon-glyph-content-dark-blue, #104280)" stroke-linejoin="round"/>
<path d="M24.4987 3.18469L29.4687 6.05916C29.4821 6.06686 29.4821 6.0861 29.4687 6.09379L24.4987 8.96415L19.5285 6.09055C19.5152 6.08285 19.5152 6.06362 19.5285 6.05592L24.4987 3.18469Z" fill="var(--mw-icon-background-medium-blue, #83CAFF)" stroke="var(--mw-icon-glyph-content-dark-blue, #104280)" stroke-linejoin="round"/>
<path d="M29.499 14.1088L24.5288 16.9815C24.5155 16.9892 24.4988 16.9796 24.4988 16.9642L24.4988 8.9614L29.469 6.09531C29.4824 6.08762 29.499 6.09725 29.499 6.11264V14.1088Z" fill="#1171BE" stroke="var(--mw-icon-glyph-content-dark-blue, #104280)" stroke-linejoin="round"/>
<path d="M14.4985 16.9693L19.4687 19.8419C19.4821 19.8496 19.4988 19.84 19.4988 19.8246V15.8199L14.5285 12.9538C14.5152 12.9461 14.4985 12.9557 14.4985 12.9711V16.9693Z" fill="#54B6FF" stroke="var(--mw-icon-glyph-content-dark-blue, #104280)" stroke-linejoin="round"/>
<path d="M19.4987 10.0408L24.4687 12.9152C24.4821 12.9229 24.4821 12.9422 24.4687 12.9499L19.4987 15.8202L14.5285 12.9466C14.5152 12.9389 14.5152 12.9197 14.5285 12.912L19.4987 10.0408Z" fill="var(--mw-icon-background-medium-blue, #83CAFF)" stroke="var(--mw-icon-glyph-content-dark-blue, #104280)" stroke-linejoin="round"/>
<path d="M24.499 18.9688L19.5288 21.8415C19.5155 21.8492 19.4988 21.8396 19.4988 21.8242L19.4988 15.8175L24.469 12.9514C24.4824 12.9437 24.499 12.9533 24.499 12.9687V18.9688Z" fill="#1171BE" stroke="var(--mw-icon-glyph-content-dark-blue, #104280)" stroke-linejoin="round"/>
<path d="M9.49951 29.84L14.4697 32.7126C14.4831 32.7203 14.4997 32.7107 14.4997 32.6953V22.6994L9.5295 19.8333C9.51617 19.8257 9.49951 19.8353 9.49951 19.8507V29.84Z" fill="#54B6FF" stroke="var(--mw-icon-glyph-content-dark-blue, #104280)" stroke-linejoin="round"/>
<path d="M14.4997 16.9204L19.4697 19.7949C19.483 19.8026 19.483 19.8218 19.4697 19.8295L14.4997 22.6999L9.52947 19.8263C9.51615 19.8186 9.51615 19.7993 9.52948 19.7916L14.4997 16.9204Z" fill="var(--mw-icon-background-medium-blue, #83CAFF)" stroke="var(--mw-icon-glyph-content-dark-blue, #104280)" stroke-linejoin="round"/>
<path d="M19.5 26.6343L14.5298 29.5069C14.5165 29.5147 14.4998 29.505 14.4998 29.4896L14.4998 22.6971L19.47 19.8311C19.4833 19.8234 19.5 19.833 19.5 19.8484V26.6343Z" fill="#1171BE" stroke="var(--mw-icon-glyph-content-dark-blue, #104280)" stroke-linejoin="round"/>
<path d="M29.499 15.6074L34.4692 18.4801C34.4826 18.4878 34.4992 18.4782 34.4992 18.4628V14.458L29.529 11.5919C29.5157 11.5843 29.499 11.5939 29.499 11.6093V15.6074Z" fill="#54B6FF" stroke="var(--mw-icon-glyph-content-dark-blue, #104280)" stroke-linejoin="round"/>
<path d="M34.4992 8.67896L39.4692 11.5534C39.4826 11.5611 39.4825 11.5804 39.4692 11.5881L34.4992 14.4584L29.529 11.5848C29.5157 11.5771 29.5157 11.5579 29.529 11.5502L34.4992 8.67896Z" fill="var(--mw-icon-background-medium-blue, #83CAFF)" stroke="var(--mw-icon-glyph-content-dark-blue, #104280)" stroke-linejoin="round"/>
<path d="M39.4995 23.6L34.5293 26.4726C34.516 26.4804 34.4993 26.4707 34.4993 26.4553L34.4993 14.4556L39.4695 11.5896C39.4829 11.5819 39.4995 11.5915 39.4995 11.6069V23.6Z" fill="#1171BE" stroke="var(--mw-icon-glyph-content-dark-blue, #104280)" stroke-linejoin="round"/>
<path d="M29.499 22.6823L33.9691 25.2659C33.9824 25.2736 33.9991 25.2639 33.9991 25.2485V21.6479L29.529 19.0702C29.5157 19.0625 29.499 19.0721 29.499 19.0875V22.6823Z" fill="#54B6FF" stroke="var(--mw-icon-glyph-content-dark-blue, #104280)" stroke-linejoin="round"/>
<path d="M24.499 19.9985L29.4692 22.8711C29.4826 22.8789 29.4992 22.8692 29.4992 22.8538V18.8491L24.529 15.983C24.5157 15.9753 24.499 15.9849 24.499 16.0003V19.9985Z" fill="#54B6FF" stroke="var(--mw-icon-glyph-content-dark-blue, #104280)" stroke-linejoin="round"/>
<path d="M29.4992 13.07L34.4692 15.9445C34.4826 15.9522 34.4825 15.9714 34.4692 15.9791L29.4992 18.8495L24.529 15.9759C24.5157 15.9682 24.5157 15.9489 24.529 15.9412L29.4992 13.07Z" fill="var(--mw-icon-background-medium-blue, #83CAFF)" stroke="var(--mw-icon-glyph-content-dark-blue, #104280)" stroke-linejoin="round"/>
<path d="M34.4995 23.9942L29.5293 26.8668C29.516 26.8745 29.4993 26.8649 29.4993 26.8495L29.4993 18.8467L34.4695 15.9806C34.4829 15.9729 34.4995 15.9826 34.4995 15.998V23.9942Z" fill="#1171BE" stroke="var(--mw-icon-glyph-content-dark-blue, #104280)" stroke-linejoin="round"/>
<path d="M19.499 24.8546L24.4692 27.7272C24.4826 27.7349 24.4992 27.7253 24.4992 27.7099V23.7052L19.529 20.8391C19.5157 20.8314 19.499 20.841 19.499 20.8564V24.8546Z" fill="#54B6FF" stroke="var(--mw-icon-glyph-content-dark-blue, #104280)" stroke-linejoin="round"/>
<path d="M24.4992 17.9261L29.4692 20.8006C29.4826 20.8083 29.4825 20.8275 29.4692 20.8352L24.4992 23.7055L19.529 20.8319C19.5157 20.8242 19.5157 20.805 19.529 20.7973L24.4992 17.9261Z" fill="var(--mw-icon-background-medium-blue, #83CAFF)" stroke="var(--mw-icon-glyph-content-dark-blue, #104280)" stroke-linejoin="round"/>
<path d="M29.4995 26.8542L24.5293 29.7269C24.516 29.7346 24.4993 29.7249 24.4993 29.7095L24.4993 23.7029L29.4695 20.8368C29.4829 20.8291 29.4995 20.8387 29.4995 20.8541V26.8542Z" fill="#1171BE" stroke="var(--mw-icon-glyph-content-dark-blue, #104280)" stroke-linejoin="round"/>
<path d="M14.5 32.73L19.4702 35.6027C19.4835 35.6104 19.5002 35.6007 19.5002 35.5853V29.5848L14.53 26.7187C14.5167 26.711 14.5 26.7206 14.5 26.736V32.73Z" fill="#54B6FF" stroke="var(--mw-icon-glyph-content-dark-blue, #104280)" stroke-linejoin="round"/>
<path d="M19.5002 23.8057L24.4702 26.6802C24.4835 26.6879 24.4835 26.7071 24.4702 26.7148L19.5002 29.5852L14.53 26.7116C14.5166 26.7039 14.5166 26.6846 14.53 26.677L19.5002 23.8057Z" fill="var(--mw-icon-background-medium-blue, #83CAFF)" stroke="var(--mw-icon-glyph-content-dark-blue, #104280)" stroke-linejoin="round"/>
<path d="M24.5005 30.7342L19.5303 33.6069C19.5169 33.6146 19.5003 33.6049 19.5003 33.5895L19.5003 29.5825L24.4705 26.7164C24.4838 26.7087 24.5005 26.7183 24.5005 26.7337V30.7342Z" fill="#1171BE" stroke="var(--mw-icon-glyph-content-dark-blue, #104280)" stroke-linejoin="round"/>
<path d="M39 22.3227L43.4699 24.9079C43.4832 24.9156 43.4832 24.9348 43.4699 24.9425L39 27.524L34.53 24.9396C34.5166 24.9319 34.5166 24.9127 34.53 24.905L39 22.3227Z" fill="var(--mw-icon-background-medium-blue, #83CAFF)" stroke="var(--mw-icon-glyph-content-dark-blue, #104280)" stroke-linejoin="round"/>
<path d="M43.5 27.56L39.03 30.1427C39.0166 30.1504 38.9999 30.1408 38.9999 30.1254L38.9999 27.5216L43.47 24.9439C43.4833 24.9362 43.5 24.9459 43.5 24.9613V27.56Z" fill="#1171BE" stroke="var(--mw-icon-glyph-content-dark-blue, #104280)" stroke-linejoin="round"/>
<path d="M29.5 26.8743L34.4702 29.747C34.4835 29.7547 34.5002 29.7451 34.5002 29.7297V25.7249L29.53 22.8589C29.5167 22.8512 29.5 22.8608 29.5 22.8762V26.8743Z" fill="#54B6FF" stroke="var(--mw-icon-glyph-content-dark-blue, #104280)" stroke-linejoin="round"/>
<path d="M34.5002 19.9459L39.4702 22.8203C39.4835 22.828 39.4835 22.8473 39.4702 22.855L34.5002 25.7253L29.53 22.8517C29.5166 22.844 29.5166 22.8248 29.53 22.8171L34.5002 19.9459Z" fill="var(--mw-icon-background-medium-blue, #83CAFF)" stroke="var(--mw-icon-glyph-content-dark-blue, #104280)" stroke-linejoin="round"/>
<path d="M39.5005 29.87L34.5303 32.7427C34.5169 32.7504 34.5003 32.7408 34.5003 32.7254L34.5003 25.7226L39.4705 22.8565C39.4838 22.8488 39.5005 22.8584 39.5005 22.8738V29.87Z" fill="#1171BE" stroke="var(--mw-icon-glyph-content-dark-blue, #104280)" stroke-linejoin="round"/>
<path d="M24.5 31.7304L29.4702 34.6031C29.4835 34.6108 29.5002 34.6012 29.5002 34.5858V30.581L24.53 27.7149C24.5167 27.7072 24.5 27.7169 24.5 27.7323V31.7304Z" fill="#54B6FF" stroke="var(--mw-icon-glyph-content-dark-blue, #104280)" stroke-linejoin="round"/>
<path d="M29.5002 24.8019L34.4702 27.6764C34.4835 27.6841 34.4835 27.7033 34.4702 27.711L29.5002 30.5814L24.53 27.7078C24.5166 27.7001 24.5166 27.6809 24.53 27.6732L29.5002 24.8019Z" fill="var(--mw-icon-background-medium-blue, #83CAFF)" stroke="var(--mw-icon-glyph-content-dark-blue, #104280)" stroke-linejoin="round"/>
<path d="M34.5005 32.73L29.5303 35.6027C29.5169 35.6104 29.5003 35.6007 29.5003 35.5853L29.5003 30.5787L34.4705 27.7126C34.4838 27.7049 34.5005 27.7145 34.5005 27.7299V32.73Z" fill="#1171BE" stroke="var(--mw-icon-glyph-content-dark-blue, #104280)" stroke-linejoin="round"/>
<path d="M19.501 35.61L24.4712 38.4827C24.4845 38.4904 24.5012 38.4807 24.5012 38.4653V35.4606L19.531 32.5945C19.5176 32.5868 19.501 32.5964 19.501 32.6118V35.61Z" fill="#54B6FF" stroke="var(--mw-icon-glyph-content-dark-blue, #104280)" stroke-linejoin="round"/>
<path d="M24.5012 29.6815L29.4712 32.556C29.4845 32.5637 29.4845 32.5829 29.4712 32.5906L24.5012 35.461L19.5309 32.5874C19.5176 32.5797 19.5176 32.5604 19.5309 32.5527L24.5012 29.6815Z" fill="var(--mw-icon-background-medium-blue, #83CAFF)" stroke="var(--mw-icon-glyph-content-dark-blue, #104280)" stroke-linejoin="round"/>
<path d="M29.5015 35.61L24.5313 38.4827C24.5179 38.4904 24.5012 38.4807 24.5012 38.4653L24.5012 35.4583L29.4715 32.5922C29.4848 32.5845 29.5015 32.5941 29.5015 32.6095V35.61Z" fill="#1171BE" stroke="var(--mw-icon-glyph-content-dark-blue, #104280)" stroke-linejoin="round"/>

</svg>
