<svg width="50" height="40" viewBox="0 0 50 40" fill="none" xmlns="http://www.w3.org/2000/svg">
<path d="M5.5 27V12L24.5 1L43.5 12V27L24.5 38L5.5 27Z" fill="var(--mw-icon-background-default-white, #FFFFFF)"/>
<path d="M24.5 16.5001L24.5058 1.58374L43.0197 12.254V27.1226L24.5 16.5001Z" fill="var(--mw-icon-background-default-light-gray, #F5F5F5)"/>
<path d="M24.5 16.4999L24.4942 1.5835L5.98034 12.2674L5.98034 27.1224L24.5 16.4999Z" fill="#E6E6E6"/>
<path d="M43.5 27V11.959L24.5 1L5.5 11.97" stroke="#BFBFBF" stroke-linecap="round" stroke-linejoin="round"/>
<path d="M5.5 12V27.03L24.5 38L43.5 27.0352" stroke="var(--mw-icon-border-default-gray, #616161)" stroke-linecap="round" stroke-linejoin="round"/>
<path d="M13.542 11.6462V15.1462L20.542 19.1462L25.542 30.6462L37.542 24.0178V11.3084L23.7332 13.4514L17.042 9.64624L13.542 11.6462Z" fill="#EDB120"/>
<path d="M37.542 11.3084L25.542 18.1462M37.542 11.3084V24.0178L25.542 30.6462M37.542 11.3084L23.7332 13.4514M25.542 18.1462L20.542 15.4421M25.542 18.1462V30.6462M20.542 15.4421L13.542 11.6462M20.542 15.4421L23.7332 13.4514M20.542 15.4421V19.1462M13.542 11.6462V15.1462L20.542 19.1462M13.542 11.6462L17.042 9.64624L23.7332 13.4514M20.542 19.1462L25.542 30.6462" stroke="#745A26" stroke-linejoin="round"/>
<path d="M26.042 29.9354L26.042 18.9075L37.0631 23.7327L26.042 29.9354Z" fill="#B3882A"/>
<path d="M25.6113 18.7275L37.4145 23.8781" stroke="#745A26"/>
<path d="M25.5626 23.216L25.5626 20.8033C30.8389 18.635 34.4494 23.5286 34.5404 25.6439L32.202 26.9705L25.5626 23.216Z" fill="#EDB120"/>
<path d="M25.5626 20.8033C29.7694 19.698 32.1189 24.7287 32.202 26.9705L25.5626 23.216L25.5626 20.8033Z" fill="#B3882A"/>
<path d="M25.5626 20.8033L25.5626 23.216L32.202 26.9705M25.5626 20.8033C30.8389 18.635 34.4494 23.5286 34.5404 25.6439L32.202 26.9705M25.5626 20.8033C29.7694 19.698 32.1189 24.7287 32.202 26.9705" stroke="#745A26" stroke-linecap="round" stroke-linejoin="round"/>
<path d="M26.3561 18.4136L26.3198 17.7291L31.2527 15.0575L33.7592 13.7371C33.1832 17.9598 29.9046 19.8195 26.3561 18.4136Z" fill="#EDB120"/>
<path d="M26.1792 17.8441L31.4996 14.9681C31.5329 18.2568 28.9591 18.9227 26.1792 17.8441Z" fill="#B3882A"/>
<path d="M26.3561 18.4136L26.3198 17.7291L31.2527 15.0575L33.7592 13.7371C33.1832 17.9598 29.9046 19.8195 26.3561 18.4136Z" stroke="#745A26" stroke-linejoin="round"/>
<path d="M26.1792 17.8441L31.4996 14.9681C31.5329 18.2568 28.9591 18.9227 26.1792 17.8441Z" stroke="#745A26" stroke-linejoin="round"/>
</svg>
