<svg width="50" height="40" viewBox="0 0 50 40" fill="none" xmlns="http://www.w3.org/2000/svg">
<path d="M5.5 27V12L24.5 1L43.5 12V27L24.5 38L5.5 27Z" fill="var(--mw-icon-background-default-white, #FFFFFF)"/>
<path d="M24.5 16.5001L24.5058 1.58374L43.0197 12.254V27.1226L24.5 16.5001Z" fill="var(--mw-icon-background-default-light-gray, #F5F5F5)"/>
<path d="M24.5 16.4999L24.4942 1.5835L5.98034 12.2674L5.98034 27.1224L24.5 16.4999Z" fill="#E6E6E6"/>
<path d="M43.5 27V11.959L24.5 1L5.5 11.97" stroke="#BFBFBF" stroke-linecap="round" stroke-linejoin="round"/>
<path d="M5.5 12V27.03L24.5 38L43.5 27.0352" stroke="var(--mw-icon-border-default-gray, #616161)" stroke-linecap="round" stroke-linejoin="round"/>
<path d="M14.9755 17.5092L13.0962 16.4075C12.1977 15.8808 11.4313 15.0681 11.4761 14.0275C11.5393 12.5602 12.2459 10.7385 13.9194 9.83796C14.8832 9.31931 16.0351 9.62428 16.9865 10.1653L18.8606 11.231L33.6013 12.8715C23.179 14.4693 21.6106 24.1833 22.5941 28.5108L14.9755 17.5092Z" fill="#EDB120"/>
<path d="M14.9755 17.5092L13.0962 16.4075C12.1977 15.8808 11.4313 15.0681 11.4761 14.0275C11.5393 12.5602 12.2459 10.7385 13.9194 9.83796C14.8832 9.31931 16.0351 9.62428 16.9865 10.1653L18.8606 11.231M14.9755 17.5092C14.6124 14.0229 17.408 11.7303 18.8606 11.231M14.9755 17.5092L22.5941 28.5108C21.6106 24.1833 23.179 14.4693 33.6013 12.8715L18.8606 11.231" stroke="#745A26"/>
<ellipse cx="29.6612" cy="21.8187" rx="6.65354" ry="10" transform="rotate(35.0306 29.6612 21.8187)" fill="#B3882A" stroke="#745A26"/>
</svg>
