<svg width="50" height="41" viewBox="0 0 50 41" fill="none" xmlns="http://www.w3.org/2000/svg">
<path d="M5.5 27.1279V12.1279L24.5 1.12793L43.5 12.1279V27.1279L24.5 38.1279L5.5 27.1279Z" fill="var(--mw-icon-background-default-white, #FFFFFF)"/>
<path d="M24.5 16.628L24.5058 1.71167L43.0197 12.382V27.2505L24.5 16.628Z" fill="var(--mw-icon-background-default-light-gray, #F5F5F5)"/>
<path d="M24.5 16.6278L24.4942 1.71143L5.98034 12.3953L5.98034 27.2503L24.5 16.6278Z" fill="#E6E6E6"/>
<path d="M43.5 27.1279V12.087L24.5 1.12793L5.5 12.0979" stroke="#BFBFBF" stroke-linecap="round" stroke-linejoin="round"/>
<path d="M5.5 12.1279V27.1579L24.5 38.1279L43.5 27.1631" stroke="var(--mw-icon-border-default-gray, #616161)" stroke-linecap="round" stroke-linejoin="round"/>
<path d="M13.5 13.6279V17.1279L20.5 21.1279L25.5 32.6279L37.5 25.9995V13.2901L23.6912 15.4331L17 11.6279L13.5 13.6279Z" fill="#EDB120"/>
<path d="M37.5 13.2901L25.5 20.1279M37.5 13.2901V25.9995L25.5 32.6279M37.5 13.2901L23.6912 15.4331M25.5 20.1279L20.5 17.4237M25.5 20.1279V32.6279M20.5 17.4237L13.5 13.6279M20.5 17.4237L23.6912 15.4331M20.5 17.4237V21.1279M13.5 13.6279V17.1279L20.5 21.1279M13.5 13.6279L17 11.6279L23.6912 15.4331M20.5 21.1279L25.5 32.6279" stroke="#745A26" stroke-linejoin="round"/>
<path d="M26 31.7838V20.1279L37.0211 25.7143L26 31.7838Z" fill="#B3882A"/>
<path d="M25.6952 20.3367L37.3724 25.8598" stroke="#745A26"/>
</svg>
