<svg width="51" height="41" viewBox="0 0 51 41" fill="none" xmlns="http://www.w3.org/2000/svg">
<path d="M6.5 27.5V12.5L25.5 1.5L44.5 12.5V27.5L25.5 38.5L6.5 27.5Z" fill="var(--mw-icon-background-default-white, #FFFFFF)"/>
<path d="M25.5 17.0001L25.5058 2.08374L44.0197 12.754V27.6226L25.5 17.0001Z" fill="var(--mw-icon-background-default-light-gray, #F5F5F5)"/>
<path d="M25.5 16.9999L25.4942 2.0835L6.98034 12.7674L6.98034 27.6224L25.5 16.9999Z" fill="#E6E6E6"/>
<path d="M44.5 27.5V12.459L25.5 1.5L6.5 12.47" stroke="#BFBFBF" stroke-linecap="round" stroke-linejoin="round"/>
<path d="M6.5 12.5V27.53L25.5 38.5L44.5 27.5352" stroke="var(--mw-icon-border-default-gray, #616161)" stroke-linecap="round" stroke-linejoin="round"/>
<path d="M14.5 13V16.5L21.5 20.5L26.5 32L38.5 25.3716V12.6622L24.6912 14.8052L18 11L14.5 13Z" fill="#EDB120"/>
<path d="M38.5 12.6622L26.5 19.5M38.5 12.6622V25.3716L26.5 32M38.5 12.6622L24.6912 14.8052M26.5 19.5L21.5 16.7958M26.5 19.5V32M21.5 16.7958L14.5 13M21.5 16.7958L24.6912 14.8052M21.5 16.7958V20.5M14.5 13V16.5L21.5 20.5M14.5 13L18 11L24.6912 14.8052M21.5 20.5L26.5 32" stroke="#745A26" stroke-linejoin="round"/>
<path d="M27 31.2891V19.5L38.0211 25.0864L27 31.2891Z" fill="#B3882A"/>
<path d="M26.6952 19.7087L38.3724 25.2319" stroke="#745A26"/>
<path d="M29.5 18V21L26.5 22.5" stroke="#745A26"/>
<path d="M32.5 16V22L26.5 25.5" stroke="#745A26"/>
<path d="M35.5 14.5V24L26.5 29" stroke="#745A26"/>
</svg>
