<svg width="50" height="41" viewBox="0 0 50 41" fill="none" xmlns="http://www.w3.org/2000/svg">
<path d="M5.5 27.6252V12.6252L24.5 1.62524L43.5 12.6252V27.6252L24.5 38.6252L5.5 27.6252Z" fill="var(--mw-icon-background-default-white, #FFFFFF)"/>
<path d="M24.5 17.1253L24.5058 2.20898L43.0197 12.8793V27.7478L24.5 17.1253Z" fill="var(--mw-icon-background-default-light-gray, #F5F5F5)"/>
<path d="M24.5 17.1253L24.4942 2.20898L5.98034 12.8929L5.98034 27.7478L24.5 17.1253Z" fill="#E6E6E6"/>
<path d="M43.5 27.6252V12.5843L24.5 1.62524L5.5 12.5952" stroke="#BFBFBF" stroke-linecap="round" stroke-linejoin="round"/>
<path d="M5.5 12.6252V27.6552L24.5 38.6252L43.5 27.6604" stroke="var(--mw-icon-border-default-gray, #616161)" stroke-linecap="round" stroke-linejoin="round"/>
<path d="M15.3882 11L19.3871 13.3043C19.3871 13.3043 23.188 12.7431 25.0906 12.7482C25.5982 12.7495 35.649 18.5332 35.649 18.5332C34.4478 17.8876 30.7745 18.8099 28.9899 22.1566C26.759 26.34 28.0296 29.7122 29.2129 30.4205C29.2129 30.4205 19.0664 24.81 18.7022 24.2254C17.4192 22.1659 16.0889 18.5332 16.0889 18.5332L12.1896 16.3073C11.556 14.6634 12.4828 11.3922 15.3882 11Z" fill="#EDB120"/>
<path d="M19.3871 13.3043L15.3882 11C12.4828 11.3922 11.556 14.6634 12.1896 16.3073L16.0889 18.5332M19.3871 13.3043C19.3871 13.3043 23.188 12.7431 25.0906 12.7482M19.3871 13.3043C18.2877 13.9311 16.0889 15.8544 16.0889 18.5332M25.0906 12.7482C25.5982 12.7495 35.649 18.5332 35.649 18.5332C34.4478 17.8876 30.7745 18.8099 28.9899 22.1566C26.759 26.34 28.0296 29.7122 29.2129 30.4205C29.2129 30.4205 19.0664 24.81 18.7022 24.2254M25.0906 12.7482C22.5441 13.6029 17.7014 17.0951 18.7022 24.2254M18.7022 24.2254C17.4192 22.1659 16.0889 18.5332 16.0889 18.5332" stroke="#745A26" stroke-linejoin="round"/>
<path d="M36.4271 26.214C35.6047 27.9492 34.3726 29.2742 33.0687 30.0243C31.7633 30.7754 30.4311 30.9305 29.3391 30.4325C28.2471 29.9345 27.5093 28.8355 27.2533 27.3723C26.9977 25.911 27.2364 24.133 28.0588 22.3977C28.8813 20.6625 30.1134 19.3375 31.4172 18.5874C32.7227 17.8363 34.0549 17.6812 35.1469 18.1792C36.2388 18.6772 36.9766 19.7762 37.2326 21.2394C37.4883 22.7007 37.2496 24.4788 36.4271 26.214Z" fill="#B3882A" stroke="#745A26"/>
</svg>
