<svg width="50" height="40" viewBox="0 0 50 40" fill="none" xmlns="http://www.w3.org/2000/svg">
<path d="M5.5 27V12L24.5 1L43.5 12V27L24.5 38L5.5 27Z" fill="var(--mw-icon-background-default-white, #FFFFFF)"/>
<path d="M24.5 16.5L24.5058 1.58362L43.0197 12.2539V27.1225L24.5 16.5Z" fill="var(--mw-icon-background-default-light-gray, #F5F5F5)"/>
<path d="M24.5 16.5L24.4942 1.58362L5.98034 12.2675L5.98034 27.1225L24.5 16.5Z" fill="#E6E6E6"/>
<path d="M43.5 27V11.959L24.5 1L5.5 11.97" stroke="#BFBFBF" stroke-linecap="round" stroke-linejoin="round"/>
<path d="M5.5 12V27.03L24.5 38L43.5 27.0352" stroke="var(--mw-icon-border-default-gray, #616161)" stroke-linecap="round" stroke-linejoin="round"/>
<path d="M22 13L31 7L40 13V19L31 25L22 19V13Z" fill="var(--mw-icon-background-light-yellow, #FFF5BC)"/>
<path d="M35 9C35 8.44772 34.5523 8 34 8C33.4477 8 33 8.44772 33 9C33 9.55228 33.4477 10 34 10C34.5523 10 35 9.55228 35 9Z" fill="var(--mw-icon-glyph-content-yellow, #674C07)"/>
<circle cx="1" cy="1" r="1" transform="matrix(1 0 0 -1 21 17)" fill="var(--mw-icon-glyph-content-yellow, #674C07)"/>
<circle cx="1" cy="1" r="1" transform="matrix(1 0 0 -1 21 14)" fill="var(--mw-icon-glyph-content-yellow, #674C07)"/>
<circle cx="1" cy="1" r="1" transform="matrix(1 0 0 -1 24 12)" fill="var(--mw-icon-glyph-content-yellow, #674C07)"/>
<circle cx="1" cy="1" r="1" transform="matrix(1 0 0 -1 27 10)" fill="var(--mw-icon-glyph-content-yellow, #674C07)"/>
<circle cx="1" cy="1" r="1" transform="matrix(1 0 0 -1 30 8)" fill="var(--mw-icon-glyph-content-yellow, #674C07)"/>
<circle cx="1" cy="1" r="1" transform="matrix(1 0 0 -1 27 18)" fill="var(--mw-icon-glyph-content-yellow, #674C07)"/>
<circle cx="1" cy="1" r="1" transform="matrix(1 0 0 -1 30 20)" fill="var(--mw-icon-glyph-content-yellow, #674C07)"/>
<circle cx="1" cy="1" r="1" transform="matrix(1 0 0 -1 33 18)" fill="var(--mw-icon-glyph-content-yellow, #674C07)"/>
<circle cx="1" cy="1" r="1" transform="matrix(1 0 0 -1 24 16)" fill="var(--mw-icon-glyph-content-yellow, #674C07)"/>
<circle cx="1" cy="1" r="1" transform="matrix(1 0 0 -1 36 12)" fill="var(--mw-icon-glyph-content-yellow, #674C07)"/>
<circle cx="1" cy="1" r="1" transform="matrix(1 0 0 -1 36 16)" fill="var(--mw-icon-glyph-content-yellow, #674C07)"/>
<circle cx="1" cy="1" r="1" transform="matrix(1 0 0 -1 24 22)" fill="var(--mw-icon-glyph-content-yellow, #674C07)"/>
<circle cx="1" cy="1" r="1" transform="matrix(1 0 0 -1 27 24)" fill="var(--mw-icon-glyph-content-yellow, #674C07)"/>
<circle cx="1" cy="1" r="1" transform="matrix(1 0 0 -1 30 23)" fill="var(--mw-icon-glyph-content-yellow, #674C07)"/>
<circle cx="1" cy="1" r="1" transform="matrix(1 0 0 -1 39 14)" fill="var(--mw-icon-glyph-content-yellow, #674C07)"/>
<circle cx="1" cy="1" r="1" transform="matrix(1 0 0 -1 39 17)" fill="var(--mw-icon-glyph-content-yellow, #674C07)"/>
<circle cx="1" cy="1" r="1" transform="matrix(1 0 0 -1 33 24)" fill="var(--mw-icon-glyph-content-yellow, #674C07)"/>
<circle cx="1" cy="1" r="1" transform="matrix(1 0 0 -1 36 22)" fill="var(--mw-icon-glyph-content-yellow, #674C07)"/>
<circle cx="1" cy="1" r="1" transform="matrix(1 0 0 -1 39 20)" fill="var(--mw-icon-glyph-content-yellow, #674C07)"/>
<circle cx="1" cy="1" r="1" transform="matrix(1 0 0 -1 21 20)" fill="var(--mw-icon-glyph-content-yellow, #674C07)"/>
<circle cx="1" cy="1" r="1" transform="matrix(1 0 0 -1 30 26)" fill="var(--mw-icon-glyph-content-yellow, #674C07)"/>
<path d="M10 20L19 14L28 20V26L19 32L10 26V20Z" fill="var(--mw-icon-background-light-yellow, #FFF5BC)"/>
<path d="M23 16C23 15.4477 22.5523 15 22 15C21.4477 15 21 15.4477 21 16C21 16.5523 21.4477 17 22 17C22.5523 17 23 16.5523 23 16Z" fill="var(--mw-icon-glyph-content-yellow, #674C07)"/>
<circle cx="1" cy="1" r="1" transform="matrix(1 0 0 -1 9 24)" fill="var(--mw-icon-glyph-content-yellow, #674C07)"/>
<circle cx="1" cy="1" r="1" transform="matrix(1 0 0 -1 9 21)" fill="var(--mw-icon-glyph-content-yellow, #674C07)"/>
<circle cx="1" cy="1" r="1" transform="matrix(1 0 0 -1 12 19)" fill="var(--mw-icon-glyph-content-yellow, #674C07)"/>
<circle cx="1" cy="1" r="1" transform="matrix(1 0 0 -1 15 17)" fill="var(--mw-icon-glyph-content-yellow, #674C07)"/>
<circle cx="1" cy="1" r="1" transform="matrix(1 0 0 -1 18 15)" fill="var(--mw-icon-glyph-content-yellow, #674C07)"/>
<circle cx="1" cy="1" r="1" transform="matrix(1 0 0 -1 15 25)" fill="var(--mw-icon-glyph-content-yellow, #674C07)"/>
<circle cx="1" cy="1" r="1" transform="matrix(1 0 0 -1 18 27)" fill="var(--mw-icon-glyph-content-yellow, #674C07)"/>
<circle cx="1" cy="1" r="1" transform="matrix(1 0 0 -1 21 25)" fill="var(--mw-icon-glyph-content-yellow, #674C07)"/>
<circle cx="1" cy="1" r="1" transform="matrix(1 0 0 -1 12 23)" fill="var(--mw-icon-glyph-content-yellow, #674C07)"/>
<circle cx="1" cy="1" r="1" transform="matrix(1 0 0 -1 24 19)" fill="var(--mw-icon-glyph-content-yellow, #674C07)"/>
<circle cx="1" cy="1" r="1" transform="matrix(1 0 0 -1 24 23)" fill="var(--mw-icon-glyph-content-yellow, #674C07)"/>
<circle cx="1" cy="1" r="1" transform="matrix(1 0 0 -1 12 29)" fill="var(--mw-icon-glyph-content-yellow, #674C07)"/>
<circle cx="1" cy="1" r="1" transform="matrix(1 0 0 -1 15 31)" fill="var(--mw-icon-glyph-content-yellow, #674C07)"/>
<circle cx="1" cy="1" r="1" transform="matrix(1 0 0 -1 18 30)" fill="var(--mw-icon-glyph-content-yellow, #674C07)"/>
<circle cx="1" cy="1" r="1" transform="matrix(1 0 0 -1 27 21)" fill="var(--mw-icon-glyph-content-yellow, #674C07)"/>
<circle cx="1" cy="1" r="1" transform="matrix(1 0 0 -1 27 24)" fill="var(--mw-icon-glyph-content-yellow, #674C07)"/>
<circle cx="1" cy="1" r="1" transform="matrix(1 0 0 -1 21 31)" fill="var(--mw-icon-glyph-content-yellow, #674C07)"/>
<circle cx="1" cy="1" r="1" transform="matrix(1 0 0 -1 24 29)" fill="var(--mw-icon-glyph-content-yellow, #674C07)"/>
<circle cx="1" cy="1" r="1" transform="matrix(1 0 0 -1 27 27)" fill="var(--mw-icon-glyph-content-yellow, #674C07)"/>
<circle cx="1" cy="1" r="1" transform="matrix(1 0 0 -1 9 27)" fill="var(--mw-icon-glyph-content-yellow, #674C07)"/>
<circle cx="1" cy="1" r="1" transform="matrix(1 0 0 -1 18 33)" fill="var(--mw-icon-glyph-content-yellow, #674C07)"/>
<path d="M24.5 25.5L36.5 18.5" stroke="var(--mw-icon-glyph-content-blue, #1656A8)"/>
<circle cx="24.5" cy="25.5" r="1" fill="white" stroke="var(--mw-icon-glyph-content-blue, #1656A8)"/>
<circle cx="36.5" cy="18.5" r="1" fill="white" stroke="var(--mw-icon-glyph-content-blue, #1656A8)"/>
</svg>
