<svg width="50" height="40" viewBox="0 0 50 40" fill="none" xmlns="http://www.w3.org/2000/svg">
<rect x="0.5" y="0.5" width="48" height="38" rx="1" fill="var(--mw-icon-background-default-white, #FFFFFF)"/>
<rect x="3" y="3" width="43" height="33" fill="var(--mw-icon-background-default-selection, #B4DEFF)"/>
<path d="M5 23.0435C4.13342 23.4783 3.43329 22.1739 3 21.3043V36H46V24C46 24 43 24.6957 41 23C39 21.3043 35.0798 16 33 16C30.9202 16 27.4443 21.1014 26 24C23.1114 18.9275 18.3329 10 14 10C9.23379 10 6.16264 22.4602 5 23.0435Z" fill="var(--mw-icon-glyph-content-green, #008014)"/>
<rect x="2" y="2" width="45" height="35" stroke="var(--mw-icon-background-default-white, #FFFFFF)" stroke-width="2" stroke-linecap="round" stroke-linejoin="round"/>
<circle cx="39" cy="9" r="3" fill="var(--mw-icon-object-secondary, #FFFFFE)"/>
<rect x="0.5" y="0.5" width="48" height="38" rx="1" stroke="var(--mw-icon-border-default-gray, #616161)"/>
</svg>
