<svg width="50" height="40" viewBox="0 0 50 40" fill="none" xmlns="http://www.w3.org/2000/svg">
<rect x="0.5" y="0.5" width="48" height="38" rx="1" fill="var(--mw-icon-background-default-white, #FFFFFF)"/>
<path d="M0.5 21.5C0.5 21.5 5.5 21 11 19C16.5 17 18 12.5 21.5 12.5C27 12.5 27 33.5 31 33.5C34 33.5 37 23.5 48 23.5" stroke="#D95319"/>
<path d="M1 28.5C2 28.5 10.5 28 16.9884 23.5C24.5 17.5 22.4655 4.5 25 4.5C27.5345 4.5 26 17.5 31.1161 22.9996C35.7678 28 46.9546 28.5 48 28.5" stroke="#0072BD"/>
<rect x="0.5" y="0.5" width="48" height="38" rx="1" stroke="var(--mw-icon-border-default-gray, #616161)"/>
</svg>
