<svg width="50" height="40" viewBox="0 0 50 40" fill="none" xmlns="http://www.w3.org/2000/svg">
<rect x="0.5" y="0.5" width="48" height="38" rx="1" fill="var(--mw-icon-background-default-white, #FFFFFF)"/>
<rect x="1" y="1" width="47" height="7" fill="#E6E6E6"/>
<rect x="4" y="2" width="5" height="5" fill="var(--mw-icon-background-default-dark-gray, #A6A6A6)"/>
<rect x="13" y="2" width="5" height="5" fill="var(--mw-icon-background-default-dark-gray, #A6A6A6)"/>
<rect x="22" y="2" width="5" height="5" fill="var(--mw-icon-background-default-dark-gray, #A6A6A6)"/>
<rect x="31" y="2" width="5" height="5" fill="var(--mw-icon-background-default-dark-gray, #A6A6A6)"/>
<rect x="40" y="2" width="5" height="5" fill="var(--mw-icon-background-default-dark-gray, #A6A6A6)"/>
<path d="M1 8.5H48" stroke="#BFBFBF"/>
<path d="M5 28.5C5 28.7761 5.22386 29 5.5 29C5.77614 29 6 28.7761 6 28.5H5ZM5.85355 10.1464C5.65829 9.95119 5.34171 9.95119 5.14645 10.1464L1.96447 13.3284C1.7692 13.5237 1.7692 13.8403 1.96447 14.0355C2.15973 14.2308 2.47631 14.2308 2.67157 14.0355L5.5 11.2071L8.32843 14.0355C8.52369 14.2308 8.84027 14.2308 9.03553 14.0355C9.2308 13.8403 9.2308 13.5237 9.03553 13.3284L5.85355 10.1464ZM6 28.5L6 10.5H5L5 28.5H6Z" fill="var(--mw-icon-glyph-content-dark-gray, #333333)"/>
<path d="M8.5 28.5L44.5 28.5" stroke="var(--mw-icon-border-default-gray, #616161)" stroke-linecap="round"/>
<circle cx="10.5" cy="18.5" r="2.5" fill="#0072BD"/>
<circle cx="16.5" cy="15.5" r="2.5" fill="#0072BD"/>
<circle cx="21.5" cy="21.5" r="2.5" fill="#0072BD"/>
<circle cx="26.5" cy="31.5" r="2.5" fill="#0072BD"/>
<circle cx="32.5" cy="34.5" r="2.5" fill="#0072BD"/>
<circle cx="38.5" cy="32.5" r="2.5" fill="#0072BD"/>
<circle cx="44.5" cy="28.5" r="2.5" fill="#0072BD"/>
<line x1="10.5" y1="19" x2="10.5" y2="28" stroke="#0072BD"/>
<line x1="16.5" y1="17" x2="16.5" y2="28" stroke="#0072BD"/>
<line x1="21.5" y1="23" x2="21.5" y2="28" stroke="#0072BD"/>
<line x1="32.5" y1="29" x2="32.5" y2="34" stroke="#0072BD"/>
<line x1="38.5" y1="29" x2="38.5" y2="32" stroke="#0072BD"/>
<rect x="0.5" y="0.5" width="48" height="38" rx="1" stroke="var(--mw-icon-border-default-gray, #616161)"/>
</svg>
