<svg width="50" height="40" viewBox="0 0 50 40" fill="none" xmlns="http://www.w3.org/2000/svg">
<rect x="0.5" y="0.5" width="48" height="38" rx="1" fill="var(--mw-icon-background-default-white, white)"/>
<path d="M0.5 31.5H48.5" stroke="var(--mw-icon-background-default-dark-gray, #A6A6A6)" stroke-linecap="round" stroke-dasharray="3 3"/>
<path d="M0.5 30.5C1.54167 21.3772 3.83333 3.5 5.5 3.5C7.16667 3.5 9.81521 28.0137 10.4167 31.0526C10.9375 33.6842 11.5833 36.5 14.5 36.5C17.4167 36.5 18.2292 33.6842 18.75 31.0526C19.073 29.4206 19.9167 25.5 22 25.5C24.0833 25.5 24.4792 29.4737 25 31.0526C25.4966 32.558 26.3333 35.5 28 35.5C30.0833 35.5 30.4375 31.5 32 31.5C33.25 31.5 43.2917 31.5 48.5 31.5" stroke="#0072BD"/>
<rect x="0.5" y="0.5" width="48" height="38" rx="1" stroke="var(--mw-icon-border-default-gray, #616161)"/>

</svg>
