<svg width="50" height="40" viewBox="0 0 50 40" fill="none" xmlns="http://www.w3.org/2000/svg">
<rect x="0.5" y="0.5" width="48" height="38" rx="1" fill="var(--mw-icon-background-default-white, #FFFFFF)"/>
<rect x="0.5" y="0.5" width="48" height="38" rx="1" stroke="var(--mw-icon-border-default-gray, #616161)"/>
<path d="M41.2333 33.8712C40.1667 36.2769 37.5 35.7957 37.5 33.8712C37.5 32.596 39.5267 31.5617 41.2333 33.8712Z" stroke="#0072BD"/>
<path d="M41.7667 33.8712C42.8333 36.2769 45.5 35.7957 45.5 33.8712C45.5 32.596 43.4733 31.5617 41.7667 33.8712Z" stroke="#0072BD"/>
<path d="M15.5 31C14.1193 31 13 29.8807 13 28.5C13 27.1193 14.1193 26 15.5 26C16.8807 26 18 27.1193 18 28.5C18 29.8807 16.8807 31 15.5 31Z" fill="#0072BD"/>
<path d="M24.5 31C23.1193 31 22 29.8807 22 28.5C22 27.1193 23.1193 26 24.5 26C25.8807 26 27 27.1193 27 28.5C27 29.8807 25.8807 31 24.5 31Z" fill="#0072BD"/>
<path d="M33.5 31C32.1193 31 31 29.8807 31 28.5C31 27.1193 32.1193 26 33.5 26C34.8807 26 36 27.1193 36 28.5C36 29.8807 34.8807 31 33.5 31Z" fill="#0072BD"/>
<path d="M15.5 22C14.1193 22 13 20.8807 13 19.5C13 18.1193 14.1193 17 15.5 17C16.8807 17 18 18.1193 18 19.5C18 20.8807 16.8807 22 15.5 22Z" fill="#0072BD"/>
<path d="M24.5 22C23.1193 22 22 20.8807 22 19.5C22 18.1193 23.1193 17 24.5 17C25.8807 17 27 18.1193 27 19.5C27 20.8807 25.8807 22 24.5 22Z" fill="#0072BD"/>
<path d="M33.5 22C32.1193 22 31 20.8807 31 19.5C31 18.1193 32.1193 17 33.5 17C34.8807 17 36 18.1193 36 19.5C36 20.8807 34.8807 22 33.5 22Z" fill="#0072BD"/>
<path d="M15.5 13C14.1193 13 13 11.8807 13 10.5C13 9.11929 14.1193 8 15.5 8C16.8807 8 18 9.11929 18 10.5C18 11.8807 16.8807 13 15.5 13Z" fill="#0072BD"/>
<path d="M24.5 13C23.1193 13 22 11.8807 22 10.5C22 9.11929 23.1193 8 24.5 8C25.8807 8 27 9.11929 27 10.5C27 11.8807 25.8807 13 24.5 13Z" fill="#0072BD"/>
<path d="M33.5 13C32.1193 13 31 11.8807 31 10.5C31 9.11929 32.1193 8 33.5 8C34.8807 8 36 9.11929 36 10.5C36 11.8807 34.8807 13 33.5 13Z" fill="#0072BD"/>
<path d="M20.5 15.5H28.5V23.5H20.5V15.5Z" stroke="#0072BD" stroke-linejoin="round"/>
<path d="M42 19.5C42 19.7761 41.7761 20 41.5 20C41.2239 20 41 19.7761 41 19.5C41 19.2239 41.2239 19 41.5 19C41.7761 19 42 19.2239 42 19.5Z" fill="var(--mw-icon-glyph-content-dark-gray, #333333)"/>
<path d="M44 19.5C44 19.7761 43.7761 20 43.5 20C43.2239 20 43 19.7761 43 19.5C43 19.2239 43.2239 19 43.5 19C43.7761 19 44 19.2239 44 19.5Z" fill="var(--mw-icon-glyph-content-dark-gray, #333333)"/>
<path d="M24.5 4C24.2239 4 24 3.77614 24 3.5C24 3.22386 24.2239 3 24.5 3C24.7761 3 25 3.22386 25 3.5C25 3.77614 24.7761 4 24.5 4Z" fill="var(--mw-icon-glyph-content-dark-gray, #333333)"/>
<path d="M46 19.5C46 19.7761 45.7761 20 45.5 20C45.2239 20 45 19.7761 45 19.5C45 19.2239 45.2239 19 45.5 19C45.7761 19 46 19.2239 46 19.5Z" fill="var(--mw-icon-glyph-content-dark-gray, #333333)"/>
<path d="M4 19.5C4 19.7761 3.77614 20 3.5 20C3.22386 20 3 19.7761 3 19.5C3 19.2239 3.22386 19 3.5 19C3.77614 19 4 19.2239 4 19.5Z" fill="var(--mw-icon-glyph-content-dark-gray, #333333)"/>
<path d="M6 19.5C6 19.7761 5.77614 20 5.5 20C5.22386 20 5 19.7761 5 19.5C5 19.2239 5.22386 19 5.5 19C5.77614 19 6 19.2239 6 19.5Z" fill="var(--mw-icon-glyph-content-dark-gray, #333333)"/>
<path d="M24.5 34C24.2239 34 24 33.7761 24 33.5C24 33.2239 24.2239 33 24.5 33C24.7761 33 25 33.2239 25 33.5C25 33.7761 24.7761 34 24.5 34Z" fill="var(--mw-icon-glyph-content-dark-gray, #333333)"/>
<path d="M8 19.5C8 19.7761 7.77614 20 7.5 20C7.22386 20 7 19.7761 7 19.5C7 19.2239 7.22386 19 7.5 19C7.77614 19 8 19.2239 8 19.5Z" fill="var(--mw-icon-glyph-content-dark-gray, #333333)"/>
<path d="M24.5 36C24.2239 36 24 35.7761 24 35.5C24 35.2239 24.2239 35 24.5 35C24.7761 35 25 35.2239 25 35.5C25 35.7761 24.7761 36 24.5 36Z" fill="var(--mw-icon-glyph-content-dark-gray, #333333)"/>
<path d="M24.5 6C24.2239 6 24 5.77614 24 5.5C24 5.22386 24.2239 5 24.5 5C24.7761 5 25 5.22386 25 5.5C25 5.77614 24.7761 6 24.5 6Z" fill="var(--mw-icon-glyph-content-dark-gray, #333333)"/>
</svg>
