<svg width="50" height="40" viewBox="0 0 50 40" fill="none" xmlns="http://www.w3.org/2000/svg">
<path d="M30.5 11.5C30.5 10.9477 30.9477 10.5 31.5 10.5H43.5C44.0523 10.5 44.5 10.9477 44.5 11.5V26.5C44.5 27.0523 44.0523 27.5 43.5 27.5H31.5C30.9477 27.5 30.5 27.0523 30.5 26.5V11.5Z" fill="var(--mw-icon-background-default-white, white)" stroke="var(--mw-icon-border-default-gray, #616161)"/>
<path d="M5.5 11.5C5.5 10.9477 5.94772 10.5 6.5 10.5H18.5C19.0523 10.5 19.5 10.9477 19.5 11.5V26.5C19.5 27.0523 19.0523 27.5 18.5 27.5H6.5C5.94772 27.5 5.5 27.0523 5.5 26.5V11.5Z" fill="#BFBFBF" stroke="var(--mw-icon-border-default-gray, #616161)"/>
<path d="M20.5 38.5L29.5 0.5" stroke="var(--mw-icon-object-primary, #616160)" stroke-linecap="round"/>

</svg>
