<svg width="50" height="40" viewBox="0 0 50 40" fill="none" xmlns="http://www.w3.org/2000/svg">
<path d="M-2.62268e-06 34L-2.44784e-06 32L3 32L3 6L-1.74846e-07 6L0 4L5 4L5 34L-2.62268e-06 34Z" fill="var(--mw-icon-object-primary, #616160)"/>
<path d="M50 4L50 6L47 6L47 32L50 32L50 34L45 34L45 4L50 4Z" fill="var(--mw-icon-object-primary, #616160)"/>
<path d="M7.5 12.5C7.5 11.9477 7.94772 11.5 8.5 11.5H21.5C22.0523 11.5 22.5 11.9477 22.5 12.5V25.5C22.5 26.0523 22.0523 26.5 21.5 26.5H8.5C7.94772 26.5 7.5 26.0523 7.5 25.5V12.5Z" fill="#BFBFBF" stroke="var(--mw-icon-border-default-gray, #616161)"/>
<path d="M27.5 12.5C27.5 11.9477 27.9477 11.5 28.5 11.5H41.5C42.0523 11.5 42.5 11.9477 42.5 12.5V25.5C42.5 26.0523 42.0523 26.5 41.5 26.5H28.5C27.9477 26.5 27.5 26.0523 27.5 25.5V12.5Z" fill="var(--mw-icon-background-default-white, white)" stroke="var(--mw-icon-border-default-gray, #616161)"/>
<path d="M24.8653 30L24 29.4828L24.2063 29.0573C24.4623 28.5248 24.5941 27.9945 24.6017 27.4664V26H26L25.9943 27.3093C25.9904 27.7938 25.8835 28.2826 25.6734 28.7758C25.4632 29.269 25.1939 29.677 24.8653 30Z" fill="var(--mw-icon-object-primary, #616160)"/>

</svg>
