<svg width="50" height="40" viewBox="0 0 50 40" fill="none" xmlns="http://www.w3.org/2000/svg">
<rect x="0.5" y="0.5" width="48" height="38" rx="1" fill="var(--mw-icon-background-default-white, white)"/>
<path d="M0.5 34C1.91509 30.3333 6 22.5 12 22.5C15.2478 22.5 18.1754 24.8679 21.1276 27.5M46 1C45.5 29.5 37.2453 34.5 33 34.5C31.2349 34.5 29.5823 33.9158 28 33.0053" stroke="#D95319" stroke-linecap="round"/>
<path d="M23 31.5C23 32.9999 22.5636 34 21.5 34C20.5182 34 20.1726 32.5 19 32.5C18.4819 32.5 18 32.8257 18 33.4529C18 34.4619 19.2183 35 20.5 35C23.718 35 25 32.8362 25 30V14C25 12.8819 25.191 11 26.5 11C27.4817 11 27.8274 12.5 29 12.5C29.5181 12.5 30 12.1272 30 11.5C30 10.491 28.7992 10 27.5175 10C23.945 10 23 12.7548 23 16V31.5Z" fill="var(--mw-icon-glyph-content-dark-gray, #333333)"/>
<rect x="0.5" y="0.5" width="48" height="38" rx="1" stroke="var(--mw-icon-border-default-gray, #616161)"/>

</svg>
