<svg width="50" height="40" viewBox="0 0 50 40" fill="none" xmlns="http://www.w3.org/2000/svg">
<path d="M23.5 10.5C23.5 9.94772 23.9477 9.5 24.5 9.5H43.5C44.0523 9.5 44.5 9.94772 44.5 10.5V29.5C44.5 30.0523 44.0523 30.5 43.5 30.5H24.5C23.9477 30.5 23.5 30.0523 23.5 29.5V10.5Z" fill="#BFBFBF" stroke="var(--mw-icon-border-default-gray, #616161)"/>
<path d="M12.371 33.1266C12.371 35.2882 11.8416 36.6638 10.2534 36.6638C8.78733 36.6638 8.38009 34.3057 6.62896 34.3057C5.8552 34.3057 5 34.8952 5 35.7991C5 37.2533 6.8733 38 8.78733 38C13.5928 38 15.7919 34.6987 15.7919 30.6114V7.73799C15.7919 6.12664 15.7919 3.33624 17.7466 3.33624C19.2127 3.33624 19.6199 5.69432 21.371 5.69432C22.1448 5.69432 23 5.1048 23 4.20087C23 2.74672 21.1267 2 19.2127 2C13.8778 2 12.371 5.89083 12.371 10.5677V33.1266Z" fill="var(--mw-icon-object-primary, #616160)"/>

</svg>
