<svg width="50" height="40" viewBox="0 0 50 40" fill="none" xmlns="http://www.w3.org/2000/svg">
<path d="M0.999997 34L0.999998 32L4 32L4 6L1 6L1 4L6 4L6 34L0.999997 34Z" fill="var(--mw-icon-object-primary, #616160)"/>
<path d="M44 34L44 32L47 32L47 6L44 6L44 4L49 4L49 34L44 34Z" fill="var(--mw-icon-object-primary, #616160)"/>
<path d="M8.5 12.5C8.5 11.9477 8.94772 11.5 9.5 11.5H22.5C23.0523 11.5 23.5 11.9477 23.5 12.5V25.5C23.5 26.0523 23.0523 26.5 22.5 26.5H9.5C8.94772 26.5 8.5 26.0523 8.5 25.5V12.5Z" fill="#BFBFBF" stroke="var(--mw-icon-border-default-gray, #616161)"/>
<path d="M28.5 12.5C28.5 11.9477 28.9477 11.5 29.5 11.5H42.5C43.0523 11.5 43.5 11.9477 43.5 12.5V25.5C43.5 26.0523 43.0523 26.5 42.5 26.5H29.5C28.9477 26.5 28.5 26.0523 28.5 25.5V12.5Z" fill="var(--mw-icon-background-default-white, white)" stroke="var(--mw-icon-border-default-gray, #616161)"/>
<path d="M25.8653 30L25 29.4828L25.2063 29.0573C25.4623 28.5248 25.5941 27.9945 25.6017 27.4664V26H27L26.9943 27.3093C26.9904 27.7938 26.8835 28.2826 26.6734 28.7758C26.4632 29.269 26.1939 29.677 25.8653 30Z" fill="var(--mw-icon-object-primary, #616160)"/>

</svg>
