<svg width="50" height="40" viewBox="0 0 50 40" fill="none" xmlns="http://www.w3.org/2000/svg">
<rect x="0.5" y="0.5" width="48" height="38" rx="1" fill="var(--mw-icon-background-default-white, white)"/>
<path d="M0.5 30.5H46.5" stroke="var(--mw-icon-background-default-dark-gray, #A6A6A6)" stroke-linecap="round" stroke-dasharray="3 3"/>
<path d="M1.5 9.5H47.5" stroke="var(--mw-icon-background-default-dark-gray, #A6A6A6)" stroke-linecap="round" stroke-dasharray="3 3"/>
<line x1="33.5" y1="1" x2="33.5" y2="38" stroke="var(--mw-icon-background-default-dark-gray, #A6A6A6)" stroke-linecap="round" stroke-dasharray="3 3"/>
<circle cx="6.5" cy="9.5" r="3" stroke="#0072BD"/>
<circle cx="43.5" cy="9.5" r="3" stroke="#0072BD"/>
<path d="M0 20.5H48" stroke="var(--mw-icon-border-default-gray, #616161)"/>
<circle cx="38.5" cy="30.5" r="3" stroke="#0072BD"/>
<path d="M30.5 2.5L25.5 7.49997" stroke="#0072BD" stroke-linecap="round"/>
<path d="M30.5 7.5L25.5 2.50003" stroke="#0072BD" stroke-linecap="round"/>
<path d="M23.5 27.5L18.5 32.5" stroke="#0072BD" stroke-linecap="round"/>
<path d="M23.5 32.5L18.5 27.5" stroke="#0072BD" stroke-linecap="round"/>
<path d="M13.5 31.5L8.5 36.5" stroke="#0072BD" stroke-linecap="round"/>
<path d="M13.5 36.5L8.5 31.5" stroke="#0072BD" stroke-linecap="round"/>
<path d="M13.5 22.5L8.5 27.5" stroke="#0072BD" stroke-linecap="round"/>
<path d="M13.5 27.5L8.5 22.5" stroke="#0072BD" stroke-linecap="round"/>
<path d="M30.5 12.5L25.5 17.5" stroke="#0072BD" stroke-linecap="round"/>
<path d="M30.5 17.5L25.5 12.5" stroke="#0072BD" stroke-linecap="round"/>
<rect x="0.5" y="0.5" width="48" height="38" rx="1" stroke="var(--mw-icon-border-default-gray, #616161)"/>

</svg>
