<svg width="50" height="40" viewBox="0 0 50 40" fill="none" xmlns="http://www.w3.org/2000/svg">
<rect x="0.5" y="0.5" width="48" height="38" rx="1" fill="var(--mw-icon-background-default-white, white)"/>
<path d="M7 19.5C7 19.7761 7.22386 20 7.5 20C7.77614 20 8 19.7761 8 19.5C8 19.2239 7.77614 19 7.5 19C7.22386 19 7 19.2239 7 19.5Z" fill="#7D7D7D"/>
<path d="M7 25.5C7 25.7761 7.22386 26 7.5 26C7.77614 26 8 25.7761 8 25.5C8 25.2239 7.77614 25 7.5 25C7.22386 25 7 25.2239 7 25.5Z" fill="#7D7D7D"/>
<path d="M7 31.5C7 31.7761 7.22386 32 7.5 32C7.77614 32 8 31.7761 8 31.5C8 31.2239 7.77614 31 7.5 31C7.22386 31 7 31.2239 7 31.5Z" fill="#7D7D7D"/>
<path d="M7 13.5C7 13.7761 7.22386 14 7.5 14C7.77614 14 8 13.7761 8 13.5C8 13.2239 7.77614 13 7.5 13C7.22386 13 7 13.2239 7 13.5Z" fill="#7D7D7D"/>
<path d="M15 19.5C15 19.7761 15.2239 20 15.5 20C15.7761 20 16 19.7761 16 19.5C16 19.2239 15.7761 19 15.5 19C15.2239 19 15 19.2239 15 19.5Z" fill="#7D7D7D"/>
<path d="M16.0625 24.9688H15.0625V25.9688H16.0625V24.9688Z" fill="#7D7D7D"/>
<path d="M15 31.5C15 31.7761 15.2239 32 15.5 32C15.7761 32 16 31.7761 16 31.5C16 31.2239 15.7761 31 15.5 31C15.2239 31 15 31.2239 15 31.5Z" fill="#7D7D7D"/>
<path d="M15 13.5C15 13.7761 15.2239 14 15.5 14C15.7761 14 16 13.7761 16 13.5C16 13.2239 15.7761 13 15.5 13C15.2239 13 15 13.2239 15 13.5Z" fill="#7D7D7D"/>
<path d="M3 4.5C3 4.77614 3.22386 5 3.5 5C3.77614 5 4 4.77614 4 4.5C4 4.22386 3.77614 4 3.5 4C3.22386 4 3 4.22386 3 4.5Z" fill="#7D7D7D"/>
<path d="M3 19.5C3 19.7761 3.22386 20 3.5 20C3.77614 20 4 19.7761 4 19.5C4 19.2239 3.77614 19 3.5 19C3.22386 19 3 19.2239 3 19.5Z" fill="#7D7D7D"/>
<path d="M3 22.5C3 22.7761 3.22386 23 3.5 23C3.77614 23 4 22.7761 4 22.5C4 22.2239 3.77614 22 3.5 22C3.22386 22 3 22.2239 3 22.5Z" fill="#7D7D7D"/>
<path d="M3 25.5C3 25.7761 3.22386 26 3.5 26C3.77614 26 4 25.7761 4 25.5C4 25.2239 3.77614 25 3.5 25C3.22386 25 3 25.2239 3 25.5Z" fill="#7D7D7D"/>
<path d="M3 28.5C3 28.7761 3.22386 29 3.5 29C3.77614 29 4 28.7761 4 28.5C4 28.2239 3.77614 28 3.5 28C3.22386 28 3 28.2239 3 28.5Z" fill="#7D7D7D"/>
<path d="M3 31.5C3 31.7761 3.22386 32 3.5 32C3.77614 32 4 31.7761 4 31.5C4 31.2239 3.77614 31 3.5 31C3.22386 31 3 31.2239 3 31.5Z" fill="#7D7D7D"/>
<path d="M3 34.5C3 34.7761 3.22386 35 3.5 35C3.77614 35 4 34.7761 4 34.5C4 34.2239 3.77614 34 3.5 34C3.22386 34 3 34.2239 3 34.5Z" fill="#7D7D7D"/>
<path d="M3 16.5C3 16.7761 3.22386 17 3.5 17C3.77614 17 4 16.7761 4 16.5C4 16.2239 3.77614 16 3.5 16C3.22386 16 3 16.2239 3 16.5Z" fill="#7D7D7D"/>
<path d="M11 4.5C11 4.77614 11.2239 5 11.5 5C11.7761 5 12 4.77614 12 4.5C12 4.22386 11.7761 4 11.5 4C11.2239 4 11 4.22386 11 4.5Z" fill="#7D7D7D"/>
<path d="M1 19.5C1 19.7761 1.22386 20 1.5 20C1.77614 20 2 19.7761 2 19.5C2 19.2239 1.77614 19 1.5 19C1.22386 19 1 19.2239 1 19.5Z" fill="#7D7D7D"/>
<path d="M11 22.5C11 22.7761 11.2239 23 11.5 23C11.7761 23 12 22.7761 12 22.5C12 22.2239 11.7761 22 11.5 22C11.2239 22 11 22.2239 11 22.5Z" fill="#7D7D7D"/>
<path d="M11 25.5C11 25.7761 11.2239 26 11.5 26C11.7761 26 12 25.7761 12 25.5C12 25.2239 11.7761 25 11.5 25C11.2239 25 11 25.2239 11 25.5Z" fill="#7D7D7D"/>
<path d="M11 28.5C11 28.7761 11.2239 29 11.5 29C11.7761 29 12 28.7761 12 28.5C12 28.2239 11.7761 28 11.5 28C11.2239 28 11 28.2239 11 28.5Z" fill="#7D7D7D"/>
<path d="M11 31.5C11 31.7761 11.2239 32 11.5 32C11.7761 32 12 31.7761 12 31.5C12 31.2239 11.7761 31 11.5 31C11.2239 31 11 31.2239 11 31.5Z" fill="#7D7D7D"/>
<path d="M11 34.5C11 34.7761 11.2239 35 11.5 35C11.7761 35 12 34.7761 12 34.5C12 34.2239 11.7761 34 11.5 34C11.2239 34 11 34.2239 11 34.5Z" fill="#7D7D7D"/>
<path d="M11 16.5C11 16.7761 11.2239 17 11.5 17C11.7761 17 12 16.7761 12 16.5C12 16.2239 11.7761 16 11.5 16C11.2239 16 11 16.2239 11 16.5Z" fill="#7D7D7D"/>
<path d="M31 19.5C31 19.7761 31.2239 20 31.5 20C31.7761 20 32 19.7761 32 19.5C32 19.2239 31.7761 19 31.5 19C31.2239 19 31 19.2239 31 19.5Z" fill="#7D7D7D"/>
<path d="M31 31.5C31 31.7761 31.2239 32 31.5 32C31.7761 32 32 31.7761 32 31.5C32 31.2239 31.7761 31 31.5 31C31.2239 31 31 31.2239 31 31.5Z" fill="#7D7D7D"/>
<path d="M27 4.5C27 4.77614 27.2239 5 27.5 5C27.7761 5 28 4.77614 28 4.5C28 4.22386 27.7761 4 27.5 4C27.2239 4 27 4.22386 27 4.5Z" fill="#7D7D7D"/>
<path d="M27 19.5C27 19.7761 27.2239 20 27.5 20C27.7761 20 28 19.7761 28 19.5C28 19.2239 27.7761 19 27.5 19C27.2239 19 27 19.2239 27 19.5Z" fill="#7D7D7D"/>
<path d="M27 22.5C27 22.7761 27.2239 23 27.5 23C27.7761 23 28 22.7761 28 22.5C28 22.2239 27.7761 22 27.5 22C27.2239 22 27 22.2239 27 22.5Z" fill="#7D7D7D"/>
<path d="M27 25.5C27 25.7761 27.2239 26 27.5 26C27.7761 26 28 25.7761 28 25.5C28 25.2239 27.7761 25 27.5 25C27.2239 25 27 25.2239 27 25.5Z" fill="#7D7D7D"/>
<path d="M27 28.5C27 28.7761 27.2239 29 27.5 29C27.7761 29 28 28.7761 28 28.5C28 28.2239 27.7761 28 27.5 28C27.2239 28 27 28.2239 27 28.5Z" fill="#7D7D7D"/>
<path d="M27 31.5C27 31.7761 27.2239 32 27.5 32C27.7761 32 28 31.7761 28 31.5C28 31.2239 27.7761 31 27.5 31C27.2239 31 27 31.2239 27 31.5Z" fill="#7D7D7D"/>
<path d="M27 34.5C27 34.7761 27.2239 35 27.5 35C27.7761 35 28 34.7761 28 34.5C28 34.2239 27.7761 34 27.5 34C27.2239 34 27 34.2239 27 34.5Z" fill="#7D7D7D"/>
<path d="M27 16.5C27 16.7761 27.2239 17 27.5 17C27.7761 17 28 16.7761 28 16.5C28 16.2239 27.7761 16 27.5 16C27.2239 16 27 16.2239 27 16.5Z" fill="#7D7D7D"/>
<path d="M39 19.4688C39 19.7449 39.2239 19.9688 39.5 19.9688C39.7761 19.9688 40 19.7449 40 19.4688C40 19.1926 39.7761 18.9688 39.5 18.9688C39.2239 18.9688 39 19.1926 39 19.4688Z" fill="#7D7D7D"/>
<path d="M39 13.4688C39 13.7449 39.2239 13.9688 39.5 13.9688C39.7761 13.9688 40 13.7449 40 13.4688C40 13.1926 39.7761 12.9688 39.5 12.9688C39.2239 12.9688 39 13.1926 39 13.4688Z" fill="#7D7D7D"/>
<path d="M35 4.5C35 4.77614 35.2239 5 35.5 5C35.7761 5 36 4.77614 36 4.5C36 4.22386 35.7761 4 35.5 4C35.2239 4 35 4.22386 35 4.5Z" fill="#7D7D7D"/>
<path d="M35 19.5C35 19.7761 35.2239 20 35.5 20C35.7761 20 36 19.7761 36 19.5C36 19.2239 35.7761 19 35.5 19C35.2239 19 35 19.2239 35 19.5Z" fill="#7D7D7D"/>
<path d="M35 22.5C35 22.7761 35.2239 23 35.5 23C35.7761 23 36 22.7761 36 22.5C36 22.2239 35.7761 22 35.5 22C35.2239 22 35 22.2239 35 22.5Z" fill="#7D7D7D"/>
<path d="M35 25.5C35 25.7761 35.2239 26 35.5 26C35.7761 26 36 25.7761 36 25.5C36 25.2239 35.7761 25 35.5 25C35.2239 25 35 25.2239 35 25.5Z" fill="#7D7D7D"/>
<path d="M35 28.5C35 28.7761 35.2239 29 35.5 29C35.7761 29 36 28.7761 36 28.5C36 28.2239 35.7761 28 35.5 28C35.2239 28 35 28.2239 35 28.5Z" fill="#7D7D7D"/>
<path d="M35 34.5C35 34.7761 35.2239 35 35.5 35C35.7761 35 36 34.7761 36 34.5C36 34.2239 35.7761 34 35.5 34C35.2239 34 35 34.2239 35 34.5Z" fill="#7D7D7D"/>
<path d="M35 16.5C35 16.7761 35.2239 17 35.5 17C35.7761 17 36 16.7761 36 16.5C36 16.2239 35.7761 16 35.5 16C35.2239 16 35 16.2239 35 16.5Z" fill="#7D7D7D"/>
<path d="M43 4.5C43 4.77614 43.2239 5 43.5 5C43.7761 5 44 4.77614 44 4.5C44 4.22386 43.7761 4 43.5 4C43.2239 4 43 4.22386 43 4.5Z" fill="#7D7D7D"/>
<path d="M43 34.5C43 34.7761 43.2239 35 43.5 35C43.7761 35 44 34.7761 44 34.5C44 34.2239 43.7761 34 43.5 34C43.2239 34 43 34.2239 43 34.5Z" fill="#7D7D7D"/>
<path d="M23.0625 31.4688C23.0625 31.7449 23.2864 31.9688 23.5625 31.9688C23.8386 31.9688 24.0625 31.7449 24.0625 31.4688C24.0625 31.1926 23.8386 30.9688 23.5625 30.9688C23.2864 30.9688 23.0625 31.1926 23.0625 31.4688Z" fill="#7D7D7D"/>
<path d="M19 4.5C19 4.77614 19.2239 5 19.5 5C19.7761 5 20 4.77614 20 4.5C20 4.22386 19.7761 4 19.5 4C19.2239 4 19 4.22386 19 4.5Z" fill="#7D7D7D"/>
<path d="M27 9.5C27 9.77614 27.2239 10 27.5 10C27.7761 10 28 9.77614 28 9.5C28 9.22386 27.7761 9 27.5 9C27.2239 9 27 9.22386 27 9.5Z" fill="#7D7D7D"/>
<path d="M35 9.5C35 9.77614 35.2239 10 35.5 10C35.7761 10 36 9.77614 36 9.5C36 9.22386 35.7761 9 35.5 9C35.2239 9 35 9.22386 35 9.5Z" fill="#7D7D7D"/>
<path d="M19 9.5C19 9.77614 19.2239 10 19.5 10C19.7761 10 20 9.77614 20 9.5C20 9.22386 19.7761 9 19.5 9C19.2239 9 19 9.22386 19 9.5Z" fill="#7D7D7D"/>
<path d="M19 19.5C19 19.7761 19.2239 20 19.5 20C19.7761 20 20 19.7761 20 19.5C20 19.2239 19.7761 19 19.5 19C19.2239 19 19 19.2239 19 19.5Z" fill="#7D7D7D"/>
<path d="M19 22.5C19 22.7761 19.2239 23 19.5 23C19.7761 23 20 22.7761 20 22.5C20 22.2239 19.7761 22 19.5 22C19.2239 22 19 22.2239 19 22.5Z" fill="#7D7D7D"/>
<path d="M20.041 25H19.041V26H20.041V25Z" fill="#7D7D7D"/>
<path d="M19 28.5C19 28.7761 19.2239 29 19.5 29C19.7761 29 20 28.7761 20 28.5C20 28.2239 19.7761 28 19.5 28C19.2239 28 19 28.2239 19 28.5Z" fill="#7D7D7D"/>
<path d="M19 31.5C19 31.7761 19.2239 32 19.5 32C19.7761 32 20 31.7761 20 31.5C20 31.2239 19.7761 31 19.5 31C19.2239 31 19 31.2239 19 31.5Z" fill="#7D7D7D"/>
<path d="M19 34.5C19 34.7761 19.2239 35 19.5 35C19.7761 35 20 34.7761 20 34.5C20 34.2239 19.7761 34 19.5 34C19.2239 34 19 34.2239 19 34.5Z" fill="#7D7D7D"/>
<path d="M19 16.5C19 16.7761 19.2239 17 19.5 17C19.7761 17 20 16.7761 20 16.5C20 16.2239 19.7761 16 19.5 16C19.2239 16 19 16.2239 19 16.5Z" fill="#7D7D7D"/>
<path d="M3.5 13.5V7.5H13.5V26" stroke="#0072BD" stroke-linecap="round" stroke-linejoin="round"/>
<path d="M43.5 7.5V31.5H33.5V25.5" stroke="#0072BD" stroke-linecap="round" stroke-linejoin="round"/>
<path d="M14 13.5V26H24V14H34V26" stroke="#0072BD" stroke-width="2" stroke-linejoin="round"/>
<rect x="0.5" y="0.5" width="48" height="38" rx="1" stroke="var(--mw-icon-border-default-gray, #616161)"/>

</svg>
