<svg width="50" height="40" viewBox="0 0 50 40" fill="none" xmlns="http://www.w3.org/2000/svg">
<path d="M5.5 27V12L24.5 1L43.5 12V27L24.5 38L5.5 27Z" fill="var(--mw-icon-background-default-white, #FFFFFF)"/>
<path d="M24.5 16.5L24.5058 1.58362L43.0197 12.2539V27.1225L24.5 16.5Z" fill="var(--mw-icon-background-default-light-gray, #F5F5F5)"/>
<path d="M24.5 16.5L24.4942 1.58362L5.98034 12.2675L5.98034 27.1225L24.5 16.5Z" fill="#E6E6E6"/>
<path d="M43.5 27V11.959L24.5 1L5.5 11.97" stroke="#BFBFBF" stroke-linecap="round" stroke-linejoin="round"/>
<path d="M5.5 12V27.03L24.5 38L43.5 27.0352" stroke="var(--mw-icon-border-default-gray, #616161)" stroke-linecap="round" stroke-linejoin="round"/>
<path d="M46.5 16.5H28.5C27.3954 16.5 26.5 17.3954 26.5 18.5V36.5C26.5 37.6046 27.3954 38.5 28.5 38.5H46.5C47.6046 38.5 48.5 37.6046 48.5 36.5V18.5C48.5 17.3954 47.6046 16.5 46.5 16.5Z" fill="white" stroke="var(--mw-icon-border-default-gray, #616161)" stroke-linecap="round"/>
<path d="M31.5 36V24.6385C31.5 24.5479 31.5246 24.459 31.5713 24.3812L34.3543 19.7428C34.4447 19.5921 34.6075 19.5 34.7831 19.5H39.2169C39.3925 19.5 39.5553 19.5921 39.6457 19.7428L42.4287 24.3812C42.4754 24.459 42.5 24.5479 42.5 24.6385V36C42.5 36.2762 42.2761 36.5 42 36.5H36.9444L32 36.5C31.7239 36.5 31.5 36.2761 31.5 36Z" fill="var(--mw-icon-background-default-selection, #B4DEFF)" stroke="var(--mw-icon-glyph-content-blue, #1656A8)" stroke-linejoin="round"/>
<path d="M38.2696 31.1374H35.7214L35.1883 33H34L36.4849 25H37.5105L40 33H38.8072L38.2696 31.1374ZM36.0422 30.0165H37.9488L36.9955 26.6978L36.0422 30.0165Z" fill="var(--mw-icon-glyph-content-blue, #1656A8)"/>
<path d="M38 22C38 22.5523 37.5523 23 37 23C36.4477 23 36 22.5523 36 22C36 21.4477 36.4477 21 37 21C37.5523 21 38 21.4477 38 22Z" fill="var(--mw-icon-glyph-content-blue, #1656A8)"/>
</svg>
