<svg width="50" height="40" viewBox="0 0 50 40" fill="none" xmlns="http://www.w3.org/2000/svg">
<path d="M5.5 27V12L24.5 1L43.5 12V27L24.5 38L5.5 27Z" fill="var(--mw-icon-background-default-white, #FFFFFF)"/>
<path d="M24.5 16.5L24.5058 1.58362L43.0197 12.2539V27.1225L24.5 16.5Z" fill="var(--mw-icon-background-default-light-gray, #F5F5F5)"/>
<path d="M24.5 16.5L24.4942 1.58362L5.98034 12.2675L5.98034 27.1225L24.5 16.5Z" fill="#E6E6E6"/>
<path d="M43.5 27V11.959L24.5 1L5.5 11.97" stroke="#BFBFBF" stroke-linecap="round" stroke-linejoin="round"/>
<path d="M5.5 12V27.03L24.5 38L43.5 27.0352" stroke="var(--mw-icon-border-default-gray, #616161)" stroke-linecap="round" stroke-linejoin="round"/>
<path d="M9.5 18.5L16.5 14.5L23.5 18.5V25.5L16.5 29.5L9.5 25.5V18.5Z" fill="var(--mw-icon-background-light-yellow, #FFF5BC)"/>
<path d="M9.5 18.5L16.5 14.5L23.5 18.5M9.5 18.5V25.5L16.5 29.5M9.5 18.5L16.5 22.5M16.5 29.5V22.5M16.5 29.5L23.5 25.5V18.5M16.5 22.5L23.5 18.5" stroke="var(--mw-icon-glyph-content-yellow, #674C07)" stroke-linejoin="round"/>
<path d="M25.5 16.5L32.5 12.5L39.5 16.5V23.5L32.5 27.5L25.5 23.5V16.5Z" fill="var(--mw-icon-background-light-yellow, #FFF5BC)"/>
<path d="M25.5 16.5L32.5 12.5L39.5 16.5M25.5 16.5V23.5L32.5 27.5M25.5 16.5L32.5 20.5M32.5 27.5V20.5M32.5 27.5L39.5 23.5V16.5M32.5 20.5L39.5 16.5" stroke="var(--mw-icon-glyph-content-yellow, #674C07)" stroke-linejoin="round"/>
<path d="M35.5 21C35.2239 21 35 21.2239 35 21.5C35 21.7761 35.2239 22 35.5 22V21ZM37.5 22C37.7761 22 38 21.7761 38 21.5C38 21.2239 37.7761 21 37.5 21V22ZM37 20.5C37 20.2239 36.7761 20 36.5 20C36.2239 20 36 20.2239 36 20.5H37ZM36 22.5C36 22.7761 36.2239 23 36.5 23C36.7761 23 37 22.7761 37 22.5H36ZM35.5 22H36.5V21H35.5V22ZM36.5 22H37.5V21H36.5V22ZM37 21.5V20.5H36V21.5H37ZM36 20.5V22.5H37V20.5H36Z" fill="var(--mw-icon-glyph-content-blue, #1656A8)"/>
<path d="M19.5 23C19.2239 23 19 23.2239 19 23.5C19 23.7761 19.2239 24 19.5 24V23ZM21.5 24C21.7761 24 22 23.7761 22 23.5C22 23.2239 21.7761 23 21.5 23V24ZM21 22.5C21 22.2239 20.7761 22 20.5 22C20.2239 22 20 22.2239 20 22.5H21ZM20 24.5C20 24.7761 20.2239 25 20.5 25C20.7761 25 21 24.7761 21 24.5H20ZM19.5 24H20.5V23H19.5V24ZM20.5 24H21.5V23H20.5V24ZM21 23.5V22.5H20V23.5H21ZM20 22.5V24.5H21V22.5H20Z" fill="var(--mw-icon-glyph-content-blue, #1656A8)"/>
<path d="M12.5 24C12.2239 24 12 24.2239 12 24.5C12 24.7761 12.2239 25 12.5 25V24ZM14.5 25C14.7761 25 15 24.7761 15 24.5C15 24.2239 14.7761 24 14.5 24V25ZM14 23.5C14 23.2239 13.7761 23 13.5 23C13.2239 23 13 23.2239 13 23.5H14ZM13 25.5C13 25.7761 13.2239 26 13.5 26C13.7761 26 14 25.7761 14 25.5H13ZM12.5 25H13.5V24H12.5V25ZM13.5 25H14.5V24H13.5V25ZM14 24.5V23.5H13V24.5H14ZM13 23.5V25.5H14V23.5H13Z" fill="var(--mw-icon-glyph-content-blue, #1656A8)"/>
<path d="M28.5 22C28.2239 22 28 22.2239 28 22.5C28 22.7761 28.2239 23 28.5 23V22ZM30.5 23C30.7761 23 31 22.7761 31 22.5C31 22.2239 30.7761 22 30.5 22V23ZM30 21.5C30 21.2239 29.7761 21 29.5 21C29.2239 21 29 21.2239 29 21.5H30ZM29 23.5C29 23.7761 29.2239 24 29.5 24C29.7761 24 30 23.7761 30 23.5H29ZM28.5 23H29.5V22H28.5V23ZM29.5 23H30.5V22H29.5V23ZM30 22.5V21.5H29V22.5H30ZM29 21.5V23.5H30V21.5H29Z" fill="var(--mw-icon-glyph-content-blue, #1656A8)"/>
</svg>
