<svg width="50" height="40" viewBox="0 0 50 40" fill="none" xmlns="http://www.w3.org/2000/svg">
<rect x="0.5" y="0.5" width="48" height="38" rx="1" fill="var(--mw-icon-background-default-white, #FFFFFF)"/>
<path d="M24 28.5C27.5899 28.5 30.5 27.272 30.5 25.7572V16.3191H17.5V25.7572C17.5 27.272 20.4101 28.5 24 28.5Z" fill="#BFBFBF" stroke="var(--mw-icon-border-default-gray, #616161)" stroke-linejoin="round"/>
<ellipse cx="24" cy="15.1667" rx="6.5" ry="2.66667" fill="var(--mw-icon-background-default-medium-gray, #D9D9D9)" stroke="var(--mw-icon-border-default-gray, #616161)" stroke-linejoin="round"/>
<path d="M17.5 15.2V25.7571C17.5 27.2719 20.4101 28.5 24 28.5C27.5899 28.5 30.5 27.2719 30.5 25.7571V15.2" stroke="var(--mw-icon-border-default-gray, #616161)" stroke-linejoin="round"/>
<path d="M17.5 16.0476V20.4238C17.5 21.9386 20.4101 23.1667 24 23.1667C27.5899 23.1667 30.5 21.9386 30.5 20.4238V16.0476" stroke="var(--mw-icon-border-default-gray, #616161)" stroke-linejoin="round"/>
<circle cx="13.5" cy="22.5" r="0.5" fill="#D1048B"/>
<circle cx="12.5" cy="23.5" r="0.5" fill="#D1048B"/>
<circle cx="11.5" cy="23.5" r="0.5" fill="#D1048B"/>
<circle cx="10.5" cy="24.5" r="0.5" fill="#D1048B"/>
<circle cx="9.5" cy="25.5" r="0.5" fill="#D1048B"/>
<circle cx="8.5" cy="25.5" r="0.5" fill="#D1048B"/>
<circle cx="7.5" cy="26.5" r="0.5" fill="#D1048B"/>
<circle cx="6.5" cy="26.5" r="0.5" fill="#D1048B"/>
<circle cx="5.5" cy="27.5" r="0.5" fill="#D1048B"/>
<circle cx="4.5" cy="27.5" r="0.5" fill="#D1048B"/>
<circle cx="3.5" cy="28.5" r="0.5" fill="#D1048B"/>
<circle cx="2.5" cy="28.5" r="0.5" fill="#D1048B"/>
<circle cx="1.5" cy="29.5" r="0.5" fill="#D1048B"/>
<circle cx="14.5" cy="22.5" r="0.5" fill="#D1048B"/>
<circle cx="12.5" cy="21.5" r="0.5" fill="#D1048B"/>
<circle cx="10.5" cy="20.5" r="0.5" fill="#D1048B"/>
<circle cx="11.5" cy="21.5" r="0.5" fill="#D1048B"/>
<circle cx="11.5" cy="20.5" r="0.5" fill="#D1048B"/>
<circle cx="9.5" cy="20.5" r="0.5" fill="#D1048B"/>
<circle cx="8.5" cy="19.5" r="0.5" fill="#D1048B"/>
<circle cx="7.5" cy="19.5" r="0.5" fill="#D1048B"/>
<circle cx="6.5" cy="18.5" r="0.5" fill="#D1048B"/>
<circle cx="5.5" cy="17.5" r="0.5" fill="#D1048B"/>
<circle cx="4.5" cy="17.5" r="0.5" fill="#D1048B"/>
<circle cx="3.5" cy="16.5" r="0.5" fill="#D1048B"/>
<circle cx="2.5" cy="16.5" r="0.5" fill="#D1048B"/>
<circle cx="2.5" cy="15.5" r="0.5" fill="#D1048B"/>
<circle cx="4.5" cy="31.5" r="0.5" fill="#D1048B"/>
<circle cx="27.5" cy="33.5" r="0.5" fill="#D1048B"/>
<circle cx="28.5" cy="32.5" r="0.5" fill="#D1048B"/>
<circle cx="29.5" cy="32.5" r="0.5" fill="#D1048B"/>
<circle cx="30.5" cy="31.5" r="0.5" fill="#D1048B"/>
<circle cx="30.5" cy="32.5" r="0.5" fill="#D1048B"/>
<circle cx="31.5" cy="30.5" r="0.5" fill="#D1048B"/>
<circle cx="31.5" cy="31.5" r="0.5" fill="#D1048B"/>
<circle cx="32.5" cy="30.5" r="0.5" fill="#D1048B"/>
<circle cx="33.5" cy="29.5" r="0.5" fill="#D1048B"/>
<circle cx="33.5" cy="30.5" r="0.5" fill="#D1048B"/>
<circle cx="34.5" cy="29.5" r="0.5" fill="#D1048B"/>
<circle cx="35.5" cy="28.5" r="0.5" fill="#D1048B"/>
<circle cx="35.5" cy="29.5" r="0.5" fill="#D1048B"/>
<circle cx="36.5" cy="28.5" r="0.5" fill="#D1048B"/>
<circle cx="36.5" cy="27.5" r="0.5" fill="#D1048B"/>
<circle cx="37.5" cy="27.5" r="0.5" fill="#D1048B"/>
<circle r="0.5" transform="matrix(1 0 0 -1 38.5 26.5)" fill="#D1048B"/>
<circle r="0.5" transform="matrix(1 0 0 -1 38.5 27.5)" fill="#D1048B"/>
<circle r="0.5" transform="matrix(1 0 0 -1 39.5 26.5)" fill="#D1048B"/>
<circle r="0.5" transform="matrix(1 0 0 -1 41.5 25.5)" fill="#D1048B"/>
<circle r="0.5" transform="matrix(1 0 0 -1 43.5 24.5)" fill="#D1048B"/>
<circle r="0.5" transform="matrix(1 0 0 -1 44.5 23.5)" fill="#D1048B"/>
<circle r="0.5" transform="matrix(1 0 0 -1 46.5 22.5)" fill="#D1048B"/>
<circle r="0.5" transform="matrix(1 0 0 -1 40.5 24.5)" fill="#D1048B"/>
<circle r="0.5" transform="matrix(1 0 0 -1 44.5 25.5)" fill="#D1048B"/>
<circle r="0.5" transform="matrix(1 0 0 -1 25.5 34.5)" fill="#D1048B"/>
<circle r="0.5" transform="matrix(1 0 0 -1 23.5 35.5)" fill="#D1048B"/>
<circle r="0.5" transform="matrix(1 0 0 -1 21.5 36.5)" fill="#D1048B"/>
<circle r="0.5" transform="matrix(1 0 0 -1 27.5 35.5)" fill="#D1048B"/>
<circle r="0.5" transform="matrix(1 0 0 -1 33.5 32.5)" fill="#D1048B"/>
<circle r="0.5" transform="matrix(1 0 0 -1 35.5 33.5)" fill="#D1048B"/>
<circle r="0.5" transform="matrix(1 0 0 -1 33.5 34.5)" fill="#D1048B"/>
<circle r="0.5" transform="matrix(1 0 0 -1 31.5 11.5)" fill="#D1048B"/>
<circle r="0.5" transform="matrix(1 0 0 -1 32.5 10.5)" fill="#D1048B"/>
<circle r="0.5" transform="matrix(1 0 0 -1 34.5 10.5)" fill="#D1048B"/>
<circle r="0.5" transform="matrix(1 0 0 -1 35.5 9.5)" fill="#D1048B"/>
<circle r="0.5" transform="matrix(1 0 0 -1 37.5 8.5)" fill="#D1048B"/>
<circle r="0.5" transform="matrix(1 0 0 -1 39.5 7.5)" fill="#D1048B"/>
<circle r="0.5" transform="matrix(1 0 0 -1 41.5 6.5)" fill="#D1048B"/>
<circle r="0.5" transform="matrix(1 0 0 -1 43.5 5.5)" fill="#D1048B"/>
<circle r="0.5" transform="matrix(1 0 0 -1 44.5 4.5)" fill="#D1048B"/>
<circle r="0.5" transform="matrix(1 0 0 -1 46.5 3.5)" fill="#D1048B"/>
<circle r="0.5" transform="matrix(1 0 0 -1 38.5 5.5)" fill="#D1048B"/>
<circle r="0.5" transform="matrix(1 0 0 -1 38.5 3.5)" fill="#D1048B"/>
<circle r="0.5" transform="matrix(1 0 0 -1 39.5 4.5)" fill="#D1048B"/>
<circle r="0.5" transform="matrix(1 0 0 -1 46.5 5.5)" fill="#D1048B"/>
<circle r="0.5" transform="matrix(1 0 0 -1 11.5 2.5)" fill="#D1048B"/>
<circle r="0.5" transform="matrix(1 0 0 -1 12.5 3.5)" fill="#D1048B"/>
<circle r="0.5" transform="matrix(1 0 0 -1 22.5 3.5)" fill="#D1048B"/>
<circle r="0.5" transform="matrix(1 0 0 -1 28.5 4.5)" fill="#D1048B"/>
<circle r="0.5" transform="matrix(1 0 0 -1 22.5 7.5)" fill="#D1048B"/>
<circle r="0.5" transform="matrix(1 0 0 -1 32.5 11.5)" fill="#D1048B"/>
<circle r="0.5" transform="matrix(1 0 0 -1 31.5 12.5)" fill="#D1048B"/>
<circle r="0.5" transform="matrix(1 0 0 -1 30.5 11.5)" fill="#D1048B"/>
<circle r="0.5" transform="matrix(1 0 0 -1 29.5 10.5)" fill="#D1048B"/>
<circle r="0.5" transform="matrix(1 0 0 -1 28.5 10.5)" fill="#D1048B"/>
<circle r="0.5" transform="matrix(1 0 0 -1 27.5 9.5)" fill="#D1048B"/>
<circle r="0.5" transform="matrix(1 0 0 -1 27.5 10.5)" fill="#D1048B"/>
<circle r="0.5" transform="matrix(1 0 0 -1 29.5 11.5)" fill="#D1048B"/>
<circle r="0.5" transform="matrix(1 0 0 -1 26.5 8.5)" fill="#D1048B"/>
<circle r="0.5" transform="matrix(1 0 0 -1 26.5 9.5)" fill="#D1048B"/>
<circle r="0.5" transform="matrix(1 0 0 -1 25.5 8.5)" fill="#D1048B"/>
<circle r="0.5" transform="matrix(1 0 0 -1 23.5 7.5)" fill="#D1048B"/>
<circle r="0.5" transform="matrix(1 0 0 -1 21.5 6.5)" fill="#D1048B"/>
<circle r="0.5" transform="matrix(1 0 0 -1 19.5 5.5)" fill="#D1048B"/>
<circle r="0.5" transform="matrix(1 0 0 -1 17.5 3.5)" fill="#D1048B"/>
<circle r="0.5" transform="matrix(1 0 0 -1 15.5 2.5)" fill="#D1048B"/>
<circle r="0.5" transform="matrix(1 0 0 -1 13.5 1.5)" fill="#D1048B"/>
<circle cx="2.5" cy="32.5" r="0.5" fill="#D1048B"/>
<circle cx="2.5" cy="30.5" r="0.5" fill="#D1048B"/>
<circle cx="1.5" cy="18.5" r="0.5" fill="#D1048B"/>
<circle cx="1.5" cy="13.5" r="0.5" fill="#D1048B"/>
<circle r="0.5" transform="matrix(1 0 0 -1 33.5 11.5)" fill="#FA8AD4"/>
<circle r="0.5" transform="matrix(1 0 0 -1 33.5 10.5)" fill="#FA8AD4"/>
<circle r="0.5" transform="matrix(1 0 0 -1 36.5 9.5)" fill="#FA8AD4"/>
<circle r="0.5" transform="matrix(1 0 0 -1 38.5 7.5)" fill="#FA8AD4"/>
<circle r="0.5" transform="matrix(1 0 0 -1 40.5 6.5)" fill="#FA8AD4"/>
<circle r="0.5" transform="matrix(1 0 0 -1 42.5 5.5)" fill="#FA8AD4"/>
<circle r="0.5" transform="matrix(1 0 0 -1 38.5 4.5)" fill="#FA8AD4"/>
<circle r="0.5" transform="matrix(1 0 0 -1 45.5 3.5)" fill="#FA8AD4"/>
<circle r="0.5" transform="matrix(1 0 0 -1 20.5 5.5)" fill="#FA8AD4"/>
<circle r="0.5" transform="matrix(1 0 0 -1 22.5 6.5)" fill="#FA8AD4"/>
<circle r="0.5" transform="matrix(1 0 0 -1 24.5 8.5)" fill="#FA8AD4"/>
<circle r="0.5" transform="matrix(1 0 0 -1 24.5 7.5)" fill="#FA8AD4"/>
<circle r="0.5" transform="matrix(1 0 0 -1 18.5 4.5)" fill="#FA8AD4"/>
<circle r="0.5" transform="matrix(1 0 0 -1 16.5 3.5)" fill="#FA8AD4"/>
<circle r="0.5" transform="matrix(1 0 0 -1 40.5 25.5)" fill="#FA8AD4"/>
<circle r="0.5" transform="matrix(1 0 0 -1 40.5 26.5)" fill="#FA8AD4"/>
<circle r="0.5" transform="matrix(1 0 0 -1 42.5 24.5)" fill="#FA8AD4"/>
<circle r="0.5" transform="matrix(1 0 0 -1 28.5 33.5)" fill="#FA8AD4"/>
<circle r="0.5" transform="matrix(1 0 0 -1 29.5 31.5)" fill="#FA8AD4"/>
<circle r="0.5" transform="matrix(1 0 0 -1 26.5 34.5)" fill="#FA8AD4"/>
<circle r="0.5" transform="matrix(1 0 0 -1 26.5 33.5)" fill="#FA8AD4"/>
<circle r="0.5" transform="matrix(1 0 0 -1 22.5 36.5)" fill="#FA8AD4"/>
<circle r="0.5" transform="matrix(1 0 0 -1 9.5 24.5)" fill="#FA8AD4"/>
<circle r="0.5" transform="matrix(1 0 0 -1 11.5 24.5)" fill="#FA8AD4"/>
<circle r="0.5" transform="matrix(1 0 0 -1 12.5 22.5)" fill="#FA8AD4"/>
<circle r="0.5" transform="matrix(1 0 0 -1 30.5 12.5)" fill="#FA8AD4"/>
<circle r="0.5" transform="matrix(1 0 0 -1 34.5 27.5)" fill="#FA8AD4"/>
<circle r="0.5" transform="matrix(1 0 0 -1 35.5 26.5)" fill="#FA8AD4"/>
<circle r="0.5" transform="matrix(1 0 0 -1 18.5 35.5)" fill="#FA8AD4"/>
<circle r="0.5" transform="matrix(1 0 0 -1 16.5 36.5)" fill="#FA8AD4"/>
<circle r="0.5" transform="matrix(1 0 0 -1 10.5 25.5)" fill="#FA8AD4"/>
<circle r="0.5" transform="matrix(1 0 0 -1 9.5 19.5)" fill="#FA8AD4"/>
<circle r="0.5" transform="matrix(1 0 0 -1 10.5 21.5)" fill="#FA8AD4"/>
<circle r="0.5" transform="matrix(1 0 0 -1 7.5 18.5)" fill="#FA8AD4"/>
<circle r="0.5" transform="matrix(1 0 0 -1 5.5 18.5)" fill="#FA8AD4"/>
<circle r="0.5" transform="matrix(1 0 0 -1 4.5 16.5)" fill="#FA8AD4"/>
<circle r="0.5" transform="matrix(1 0 0 -1 4.5 28.5)" fill="#FA8AD4"/>
<circle r="0.5" transform="matrix(1 0 0 -1 5.5 26.5)" fill="#FA8AD4"/>
<circle r="0.5" transform="matrix(1 0 0 -1 7.5 25.5)" fill="#FA8AD4"/>
<circle r="0.5" transform="matrix(1 0 0 -1 47.5 25.5)" fill="#FA8AD4"/>
<circle r="0.5" transform="matrix(1 0 0 -1 47.5 21.5)" fill="#FECDED"/>
<circle r="0.5" transform="matrix(1 0 0 -1 45.5 23.5)" fill="#FECDED"/>
<circle r="0.5" transform="matrix(1 0 0 -1 16.5 35.5)" fill="#FECDED"/>
<circle r="0.5" transform="matrix(1 0 0 -1 2.5 33.5)" fill="#FECDED"/>
<circle r="0.5" transform="matrix(1 0 0 -1 1.5 12.5)" fill="#FECDED"/>
<circle r="0.5" transform="matrix(1 0 0 -1 13.5 21.5)" fill="#FECDED"/>
<circle r="0.5" transform="matrix(1 0 0 -1 12.5 1.5)" fill="#FECDED"/>
<circle r="0.5" transform="matrix(1 0 0 -1 47.5 2.5)" fill="#FECDED"/>
<circle r="0.5" transform="matrix(1 0 0 -1 42.5 6.5)" fill="#FECDED"/>
<circle r="0.5" transform="matrix(1 0 0 -1 37.5 9.5)" fill="#FECDED"/>
<circle r="0.5" transform="matrix(1 0 0 -1 31.5 13.5)" fill="#FECDED"/>
<circle r="0.5" transform="matrix(1 0 0 -1 32.5 12.5)" fill="#FECDED"/>
<circle r="0.5" transform="matrix(1 0 0 -1 36.5 8.5)" fill="#FECDED"/>
<circle r="0.5" transform="matrix(1 0 0 -1 3.5 8.5)" fill="#FECDED"/>
<circle cx="2.5" cy="2.5" r="0.5" transform="rotate(-180 2.5 2.5)" fill="#FECDED"/>
<circle cx="3.5" cy="3.5" r="0.5" transform="rotate(-180 3.5 3.5)" fill="#FECDED"/>
<circle cx="2.5" cy="4.5" r="0.5" transform="rotate(-180 2.5 4.5)" fill="#FECDED"/>
<circle cx="46.5" cy="36.5" r="0.5" transform="rotate(-180 46.5 36.5)" fill="#FECDED"/>
<circle cx="45.5" cy="35.5" r="0.5" transform="rotate(-180 45.5 35.5)" fill="#FECDED"/>
<circle cx="46.5" cy="34.5" r="0.5" transform="rotate(-180 46.5 34.5)" fill="#FECDED"/>
<rect x="0.5" y="0.5" width="48" height="38" rx="1" stroke="var(--mw-icon-border-default-gray, #616161)"/>
</svg>
