<svg width="50" height="40" viewBox="0 0 50 40" fill="none" xmlns="http://www.w3.org/2000/svg">
<path d="M41.5 5.5H8.5C7.94772 5.5 7.5 5.94772 7.5 6.5V33.5C7.5 34.0523 7.94772 34.5 8.5 34.5H41.5C42.0523 34.5 42.5 34.0523 42.5 33.5V6.5C42.5 5.94772 42.0523 5.5 41.5 5.5Z" fill="var(--mw-icon-background-default-light-gray, #F5F5F5)" stroke="var(--mw-icon-border-default-gray, #616161)"/>
<path d="M15 23L21.5 16.5L28.5 23.5L35 17" stroke="var(--mw-icon-background-default-dark-gray, #A6A6A6)" stroke-linecap="round" stroke-linejoin="round"/>
<path d="M45.5 1.5H30.5V16.5H45.5V1.5Z" fill="var(--mw-icon-background-default-white, #FFFFFF)" stroke="var(--mw-icon-border-default-gray, #616161)"/>
<path d="M39 5.5H43M39 11.5H43" stroke="var(--mw-icon-glyph-content-gray, #616162)"/>
<rect x="33" y="4" width="4" height="4" fill="#0072BD"/>
<rect x="33" y="10" width="4" height="4" fill="#D95319"/>
</svg>
