<svg width="50" height="40" viewBox="0 0 50 40" fill="none" xmlns="http://www.w3.org/2000/svg">
<rect x="0.5" y="0.5" width="48" height="38" rx="1" fill="var(--mw-icon-background-default-white, #FFFFFF)"/>
<rect x="0.5" y="0.5" width="48" height="38" rx="1" stroke="var(--mw-icon-border-default-gray, #616161)"/>
<path d="M11 29C11 29.5523 10.5523 30 10 30C9.44772 30 9 29.5523 9 29C9 28.4477 9.44772 28 10 28C10.5523 28 11 28.4477 11 29Z" fill="#0072BD"/>
<path d="M16 26C16 26.5523 15.5523 27 15 27C14.4477 27 14 26.5523 14 26C14 25.4477 14.4477 25 15 25C15.5523 25 16 25.4477 16 26Z" fill="#0072BD"/>
<path d="M21 23C21 23.5523 20.5523 24 20 24C19.4477 24 19 23.5523 19 23C19 22.4477 19.4477 22 20 22C20.5523 22 21 22.4477 21 23Z" fill="#0072BD"/>
<path d="M26 20C26 20.5523 25.5523 21 25 21C24.4477 21 24 20.5523 24 20C24 19.4477 24.4477 19 25 19C25.5523 19 26 19.4477 26 20Z" fill="#0072BD"/>
<path d="M31 17C31 17.5523 30.5523 18 30 18C29.4477 18 29 17.5523 29 17C29 16.4477 29.4477 16 30 16C30.5523 16 31 16.4477 31 17Z" fill="#0072BD"/>
<path d="M36 14C36 14.5523 35.5523 15 35 15C34.4477 15 34 14.5523 34 14C34 13.4477 34.4477 13 35 13C35.5523 13 36 13.4477 36 14Z" fill="#0072BD"/>
<path d="M41 11C41 11.5523 40.5523 12 40 12C39.4477 12 39 11.5523 39 11C39 10.4477 39.4477 10 40 10C40.5523 10 41 10.4477 41 11Z" fill="#0072BD"/>
</svg>
