<svg width="50" height="40" viewBox="0 0 50 40" fill="none" xmlns="http://www.w3.org/2000/svg">
<rect x="0.5" y="0.5" width="48" height="38" rx="1" fill="var(--mw-icon-background-default-white, #FFFFFF)"/>
<path d="M33.5 15.5L42.3871 7.23792" stroke="#0072BD" stroke-linecap="round" stroke-linejoin="round" stroke-dasharray="2 2"/>
<path d="M40.8392 5.86086L45.0171 5.04944L43.8081 8.98368L40.8392 5.86086Z" fill="#0072BD"/>
<path d="M15.4414 17.4868L15.3867 16.9898C15.2428 17.0056 15.1129 17.083 15.0304 17.2019L15.4414 17.4868ZM33.5547 15.997C33.8292 15.9668 34.0272 15.7198 33.997 15.4453C33.9668 15.1708 33.7198 14.9728 33.4453 15.003L33.5547 15.997ZM8.5 27.5L8.56202 27.9962C8.70306 27.9785 8.82994 27.9017 8.91092 27.7849L8.5 27.5ZM15.496 17.9838L33.5547 15.997L33.4453 15.003L15.3867 16.9898L15.496 17.9838ZM15.0304 17.2019L8.08908 27.2152L8.91092 27.7849L15.8523 17.7716L15.0304 17.2019ZM8.43798 27.0039L0.437984 28.0039L0.562016 28.9961L8.56202 27.9962L8.43798 27.0039Z" fill="#0072BD"/>
<path d="M33.5 27.5L43.5001 19.5" stroke="#D95319" stroke-linecap="round" stroke-linejoin="round" stroke-dasharray="2 2"/>
<path d="M42.1018 17.8727L46.3307 17.3943L44.8143 21.2206L42.1018 17.8727Z" fill="#D95319"/>
<path d="M15.5 25.5L15.5552 25.0031C15.4176 24.9878 15.2798 25.0302 15.1746 25.1204L15.5 25.5ZM33.4448 27.9969C33.7192 28.0274 33.9664 27.8297 33.9969 27.5552C34.0274 27.2808 33.8297 27.0336 33.5552 27.0031L33.4448 27.9969ZM8.5 31.5L8.35086 31.9772C8.51529 32.0286 8.6946 31.9917 8.8254 31.8796L8.5 31.5ZM15.4448 25.9969L33.4448 27.9969L33.5552 27.0031L15.5552 25.0031L15.4448 25.9969ZM15.1746 25.1204L8.1746 31.1204L8.8254 31.8796L15.8254 25.8796L15.1746 25.1204ZM8.64914 31.0228L0.64914 28.5227L0.35086 29.4772L8.35086 31.9772L8.64914 31.0228Z" fill="#D95319"/>
<rect x="0.5" y="0.5" width="48" height="38" rx="1" stroke="var(--mw-icon-border-default-gray, #616161)"/>
</svg>
