<svg width="50" height="40" viewBox="0 0 50 40" fill="none" xmlns="http://www.w3.org/2000/svg">
<path d="M5.5 27V12L24.5 1L43.5 12V27L24.5 38L5.5 27Z" fill="var(--mw-icon-background-default-white, #FFFFFF)"/>
<path d="M24.5 16.5L24.5058 1.58362L43.0197 12.2539V27.1225L24.5 16.5Z" fill="var(--mw-icon-background-default-light-gray, #F5F5F5)"/>
<path d="M24.5 16.5L24.4942 1.58362L5.98034 12.2675L5.98034 27.1225L24.5 16.5Z" fill="#E6E6E6"/>
<path d="M14.5 29.5V20.5C12.8333 20.3333 8.5 20 8.5 16C8.5 12.5 14.5 7.5 22.5 7.5C32 7.5 34.5 8.79965 34.5 12C34.5 21.5 18.4161 22.0646 17.5 25.5" stroke="#0072BD" stroke-linecap="round" stroke-linejoin="round"/>
<path d="M43.5 27V11.959L24.5 1L5.5 11.97" stroke="#BFBFBF" stroke-linecap="round" stroke-linejoin="round"/>
<path d="M5.5 12V27.03L24.5 38L43.5 27.0352" stroke="var(--mw-icon-border-default-gray, #616161)" stroke-linecap="round" stroke-linejoin="round"/>
<path d="M46.5 16.5H28.5C27.3954 16.5 26.5 17.3954 26.5 18.5V36.5C26.5 37.6046 27.3954 38.5 28.5 38.5H46.5C47.6046 38.5 48.5 37.6046 48.5 36.5V18.5C48.5 17.3954 47.6046 16.5 46.5 16.5Z" fill="white" stroke="var(--mw-icon-border-default-gray, #616161)" stroke-linecap="round"/>
<path d="M43 24C43 26.8451 38 36 38 36C38 36 33 26.8451 33 24C33 21.1549 35.3175 19 38 19C40.6825 19 43 21.1549 43 24Z" fill="var(--mw-icon-glyph-content-gray, #616162)"/>
<circle cx="38" cy="24" r="3" fill="var(--mw-icon-background-default-light-gray, #F5F5F5)"/>
</svg>
