<svg width="50" height="40" viewBox="0 0 50 40" fill="none" xmlns="http://www.w3.org/2000/svg">
<path d="M0.5 1.5C0.5 0.947714 0.947715 0.5 1.5 0.5H39.5C40.0523 0.5 40.5 0.947715 40.5 1.5V32.5C40.5 33.0523 40.0523 33.5 39.5 33.5H1.5C0.947714 33.5 0.5 33.0523 0.5 32.5V1.5Z" fill="var(--mw-icon-background-default-white, #FFFFFF)"/>
<path d="M0.5 18.5C2.27114 12.6876 3.24267 7.5 5.5 7.5C9.34788 7.5 11.3326 28.5 15.5 28.5C19.2506 28.4912 21.594 7.5 25.4418 7.5C29.2967 7.5 31.2209 27.9485 35.3535 27.9485C37.5275 27.9485 38.7219 22.3212 40.5 16.5" stroke="#0072BD"/>
<path d="M0.5 1.5C0.5 0.947714 0.947715 0.5 1.5 0.5H39.5C40.0523 0.5 40.5 0.947715 40.5 1.5V32.5C40.5 33.0523 40.0523 33.5 39.5 33.5H1.5C0.947714 33.5 0.5 33.0523 0.5 32.5V1.5Z" stroke="var(--mw-icon-border-default-gray, #616161)" stroke-linejoin="round"/>
<path d="M46.5 16.5H28.5C27.3954 16.5 26.5 17.3954 26.5 18.5V36.5C26.5 37.6046 27.3954 38.5 28.5 38.5H46.5C47.6046 38.5 48.5 37.6046 48.5 36.5V18.5C48.5 17.3954 47.6046 16.5 46.5 16.5Z" fill="white" stroke="var(--mw-icon-border-default-gray, #616161)" stroke-linecap="round"/>
<path d="M43 24C43 26.8451 38 36 38 36C38 36 33 26.8451 33 24C33 21.1549 35.3175 19 38 19C40.6825 19 43 21.1549 43 24Z" fill="var(--mw-icon-glyph-content-gray, #616162)"/>
<circle cx="38" cy="24" r="3" fill="var(--mw-icon-background-default-light-gray, #F5F5F5)"/>
</svg>
