<svg width="50" height="40" viewBox="0 0 50 40" fill="none" xmlns="http://www.w3.org/2000/svg">
<rect x="0.5" y="0.5" width="48" height="38" rx="1" fill="var(--mw-icon-background-default-white, white)"/>
<rect x="1" y="1" width="47" height="7" fill="#E6E6E6"/>
<path d="M1 8.5H48" stroke="#BFBFBF"/>
<rect x="4" y="2" width="5" height="5" fill="var(--mw-icon-background-default-dark-gray, #A6A6A6)"/>
<rect x="13" y="2" width="5" height="5" fill="var(--mw-icon-background-default-dark-gray, #A6A6A6)"/>
<rect x="22" y="2" width="5" height="5" fill="var(--mw-icon-background-default-dark-gray, #A6A6A6)"/>
<rect x="31" y="2" width="5" height="5" fill="var(--mw-icon-background-default-dark-gray, #A6A6A6)"/>
<rect x="40" y="2" width="5" height="5" fill="var(--mw-icon-background-default-dark-gray, #A6A6A6)"/>
<path d="M1 9.5C4.59833 9.5 9.33636 10.3171 14.1566 14.9808C18.9769 19.6444 21.5 25.6364 21.5 36C21.5 32.0273 22.1955 25.5 25 25.5C27.8045 25.5 28.5 33.0273 28.5 37C28.4512 35.0451 29.546 29.5 32 29.5C34.454 29.5 35.5 34.9495 35.5 37C35.5 35.5 36.8966 32.5 39 32.5C41.1034 32.5 42.5 35.2643 42.5 38" stroke="#0072BD" stroke-linecap="round" stroke-linejoin="round"/>
<path d="M0.5 9.5L21.5 32L25 16L28.5 26L32 18L35.5 27.5L39 20L42.5 27.5" stroke="#D95319" stroke-linecap="round"/>
<rect x="0.5" y="0.5" width="48" height="38" rx="1" stroke="var(--mw-icon-border-default-gray, #616161)"/>

</svg>
