<svg width="50" height="40" viewBox="0 0 50 40" fill="none" xmlns="http://www.w3.org/2000/svg">
<rect x="0.5" y="0.5" width="48" height="38" rx="1" fill="var(--mw-icon-background-default-white, white)"/>
<rect x="3" y="4" width="43" height="31" fill="#3E26A8"/>
<path d="M11 5.5L9 4.5H3.5V34.5H21.5L23.5 33L24 34.5H45.5V17L44.5 15L43.5 14H42L41 12L42 10V8.5L41.5 7L40.5 5.5L38 5L29.5 4.5L28 6L26.5 7L25 4.5H15L13.5 5.5H11Z" fill="#4852F4" stroke="#4852F4" stroke-linejoin="round"/>
<path d="M9 7.5L5 4.5H3.5V32.5L4 33.5H7L8.5 34.5H18L20 33L22 32L23 30H24L25.5 32V34.5H43L41.5 33.5L42.5 33V31L44.5 30.5L44 29.5H41L42 28V25.5L39.5 24L40.5 23V22L43 21V19L40.5 18.5L38 15.5H34.5V14L36.5 12.5L37 9.5L36 7.5H34L33 9.5H31.5L31 6.5H30.5V7.5L30 9L29 10.5H27L23 8V4.5H17.5L17 7.5H9Z" fill="#12B1D6" stroke="#12B1D6" stroke-linejoin="round"/>
<path d="M4.5 8.5L3.5 7V30.5H5.5L6.5 29.5L7 28L8.5 28.5V30L9 31L9.5 32L11.5 32.5L13.5 33L16 33.5L17.5 31.5L18.5 31H21L21.5 29L21 27.5L22 26L20.5 24.5L19 23L20 22.5L22 24L24 25L25 24H26L25.5 25.5L24.5 26.5V28.5L26 30.5H29.5V31.5L28.5 32.5V34.5H32.5L34 34H35L35.5 34.5H39V34L37.5 32.5L38 31.5L40 31L39.5 30L39 29L36.5 28.5L37.5 28H39.5L40 27.5V26.5L39.5 25.5L37 25L35.5 24.5L37.5 23.5L39 22.5L39.5 20L38.5 18.5L36.5 17H35L33.5 19L33 18L33.5 16H31.5L29.5 17.5V16.5L30.5 14.5L33 13L34.5 12L35.5 10.5H34.5L33 11H32L31 10L30.5 11L29 13L27 14L25 13L23.5 12.5L22 9.5L21 4.5H19.5L21 7.5V9.5L20.5 10.5V12L19.5 14H18L17.5 12.5L17 11L16.5 10.5L15 10L14 12.5L13.5 14.5L13 13.5L12.5 11.5L10.5 11L10 13.5L8.5 14.5L7.5 13.5L8.5 13V11.5L7.5 11L5 10.5L6 9L4.5 8.5Z" fill="#37C897" stroke="#37C897" stroke-linejoin="round"/>
<path d="M4 10.5002L3.5 9.15576V28.0002V29.0002L4.5 29.5002L5 28.5002V27.5002V26.0002L5.5 25.0002L6.5 26.0002L7 27.0002L7.5 28.0002H9L10.5 27.5002L11 28.0002L10.5 28.5002V29.5002V31.0002L12.5 31.5002H14L15.5 32.0002L16.5 31.0002L17 30.5002L18 30.0002L20 29.5002L19.5 28.5002V27.5002L20.5 27.0002L21 26.0002L20 25.0002L18.5 24.0002L17 23.0002L16.5 21.5002H17.5L19.5 21.0002L20.5 22.5002L21.5 23.0002L23.5 24.0002H24.5L25 23.0002L26 22.0002L26.5 23.5002L26 25.0002V25.5002V26.5002L25.5 27.5002L26 28.5002L27 29.5002H28L29.5 29.0002L30.5 30.0002V31.0002L30 32.5002L30.5 34.5002L33 34.0002L34.5 33.0002L35.5 33.5002H36.5L37 32.5002V31.5002L37.5 31.0002L38 30.0002L36.5 29.0002L35.5 28.5002L35 27.5002L36.5 27.5002L38 26.5002L37 26.0002H35L34 25.5002L34.5 24.5002L36 23.5002V22.5002L36.5 21.5002L37.5 20.5002L36 20.0002V18.5002L35 19.0002L34 19.5002H32.5V19.0002L32 17.0002L30.5 17.5002L30 18.5002H29L28.5 18.0002V16.5002L29 15.5002L30.5 13.0002L28 14.5002H27L26 14.0002L25.5 14.5002H24.5L24 13.5002L23 13.0002L21.5 11.0002L21 13.5002L20.5 14.5002L19.5 15.0002H18.5L18 14.5002H17L16.5 13.5002L15.5 12.0002L14.5 15.0002L13.5 16.0002L13 15.5002L11.5 13.0002L10.5 14.5002V16.5002L9.5 17.0002L8 16.5002V15.0002L7 14.5002V12.5002H6L4 12.5002V10.5002Z" fill="#ABC739" stroke="#ABC739" stroke-linejoin="round"/>
<path d="M5 14L3.5 13.5V28L4 28V26.5L4.5 25.5L5 25L6.5 23.5L7 25.5L8 26L8.5 27H10L11.5 26L12 27V28V29V30L15 30.5L16.5 29.5L18 29V27.5L18.5 26.5L18 25.5L16.5 25V23.5L16 22.5L14.5 21L15 20L15.5 20H16.5L17 20.5H18.5L19.5 19L20 20L21 21.5L22 22.5L23.5 23L24.5 22.5V21H25.5H26.5L27.5 22.5L28 23.5L27 24.5V27L28 28H30L31.5 29V30V31V32L31 33H32.5L33.5 32.5L35 32.5L36 31.5L36.5 30.5L35.5 29.5L34.5 28.5V28L35 27L34.5 26.5L33 25.5L34 24.5L34.5 23L35 22.5L34.5 21.5L35 21L33.5 20.5H32L31.5 20L31 19L30 20H29.5H28.5L27.5 19.5L27 19V18L27.5 17L27 16.5L27.5 15.5L25.5 15.5H24.5H23.5L22.5 14L22 15.5L21 16.5L20.5 16L19.5 16.5H18.5H17.5L17 15.5L16 14.5L15 16.5H14L13.5 17.5L13 16.5L11.5 15.5L11 16.5L10.5 17.5H8L7.5 16.5L6.5 16L6 15L5 14Z" fill="#FEC338" stroke="#FEC338" stroke-linejoin="round"/>
<path d="M5 15L3.5 14.5V16V17L5 17.5V19V20V21L3.5 22.5V25L4.5 24L5.5 23L6.5 22.5H7.5L8 24L8.5 25H9.5L10.5 24.5H12L13 25.5V27L14 28.5L15 28L15.5 27L15 25.5V24L14.5 23L13.5 22V21V20L14.5 19H16L17.5 20L18.5 19L20.5 18.5L21 19V20L21.5 20.5L22 21L23 22L24.5 20.5L26 20L27.5 21.5L28.5 22.5L29 24L28.5 24.5V25.5L29.5 26.5H31H32L33 28L32.5 29V30V31L33.5 31.5H34.5V30.5V29.5L33.5 28.5L33 27.5L32.5 26L32 25L33 24V23L32.5 22H30.5L30 21H28L26 19V18L25.5 17L24.5 16.5H23L22.5 17L21.5 18H18.5L17 17.5L15 17L14.5 18L13 18.5H11L10 19H7L6 18L5 16.5V15Z" fill="#F9FB15" stroke="#F9FB15" stroke-linejoin="round"/>
<rect x="0.5" y="0.5" width="48" height="38" rx="1" stroke="var(--mw-icon-border-default-gray, #616161)"/>

</svg>
