<svg width="50" height="40" viewBox="0 0 50 40" fill="none" xmlns="http://www.w3.org/2000/svg">
<rect x="0.5" y="0.5" width="48" height="38" rx="1" fill="var(--mw-icon-background-default-white, white)"/>
<path d="M20.5 3H27.5L29 3.5L33.5 9H37L38.5 10.5V13L35.5 19.5L33.5 21.5L35.5 22.5V24.5V30L36 32L39 33.5L41.5 34.5L41 36L37.5 35.5L35 33.5L33.5 30.5L32 26.5H26.5L24 25.5L21.5 26.5V28L21 30L19.5 30.5L18 29.5L17.5 26.5V24L19.5 21L18 20H16.5L14.5 23.5L13.5 26L11.5 27.5L9 24L8 19.5L11 20.5L12 19.5L10 17L12.5 14.5L15.5 12.5L20.5 12L21.5 11L19 9.5V6.5L20.5 3Z" stroke="#BFBFBF" stroke-linejoin="round"/>
<circle cx="30.5" cy="12.5" r="1.5" fill="#D95319"/>
<circle cx="42.5" cy="9.5" r="1.5" fill="#D95319"/>
<circle cx="36.5" cy="4.5" r="1.5" fill="#D95319"/>
<circle cx="41.5" cy="4.5" r="1.5" fill="#D95319"/>
<circle cx="14.5" cy="7.5" r="1.5" fill="#D95319"/>
<circle cx="26.5" cy="19.5" r="1.5" fill="#D95319"/>
<circle cx="37.5" cy="21.5" r="1.5" fill="#D95319"/>
<circle cx="38.5" cy="25.5" r="1.5" fill="#D95319"/>
<circle cx="41.5" cy="30.5" r="1.5" fill="#D95319"/>
<circle cx="41.5" cy="14.5" r="1.5" fill="#D95319"/>
<circle cx="11.5" cy="11.5" r="1.5" fill="#D95319"/>
<circle cx="6.5" cy="12.5" r="1.5" fill="#D95319"/>
<circle cx="10.5" cy="29.5" r="1.5" fill="#D95319"/>
<circle cx="22.5" cy="29.5" r="1.5" fill="#D95319"/>
<circle cx="27.5" cy="31.5" r="1.5" fill="#D95319"/>
<circle cx="32" cy="30.5" r="1.5" fill="#D95319"/>
<rect x="0.5" y="0.5" width="48" height="38" rx="1" stroke="var(--mw-icon-border-default-gray, #616161)"/>

</svg>
