<svg width="50" height="40" viewBox="0 0 50 40" fill="none" xmlns="http://www.w3.org/2000/svg">
<rect x="0.5" y="0.5" width="48" height="38" rx="1" fill="var(--mw-icon-background-default-white, white)"/>
<path d="M16.5 6.5L15 12M15 6.5L13.5 12" stroke="#7E2F8E" stroke-width="0.5" stroke-linecap="round" stroke-linejoin="round"/>
<path d="M20 7.5L19 12.5" stroke="#7E2F8E" stroke-width="0.5" stroke-linecap="round" stroke-linejoin="round"/>
<path d="M19 7.5L18 12.5" stroke="#7E2F8E" stroke-width="0.5" stroke-linecap="round" stroke-linejoin="round"/>
<path d="M20.962 9.24709C21.0985 9.26809 21.2261 9.17448 21.2471 9.03801C21.2681 8.90155 21.1745 8.7739 21.038 8.75291L20.962 9.24709ZM14.462 8.24709L20.962 9.24709L21.038 8.75291L14.538 7.75291L14.462 8.24709Z" fill="#7E2F8E"/>
<path d="M21 10L14.5 9" stroke="#7E2F8E" stroke-width="0.5" stroke-linecap="round" stroke-linejoin="round"/>
<path d="M20.9646 11.2475C21.1013 11.267 21.228 11.172 21.2475 11.0354C21.267 10.8987 21.172 10.772 21.0354 10.7525L20.9646 11.2475ZM35.7466 19.0411C35.7693 18.9049 35.6773 18.7761 35.5411 18.7534C35.4049 18.7307 35.2761 18.8227 35.2534 18.9589L35.7466 19.0411ZM34.5 25L34.2533 24.9589L34.2525 24.9646L34.5 25ZM36.2491 18.9792C36.2377 18.8416 36.1168 18.7394 35.9792 18.7509C35.8416 18.7623 35.7394 18.8832 35.7509 19.0208L36.2491 18.9792ZM36.2509 25.0208C36.2623 25.1584 36.3832 25.2606 36.5208 25.2491C36.6584 25.2377 36.7606 25.1168 36.7491 24.9792L36.2509 25.0208ZM36.7236 18.8882C36.6619 18.7647 36.5117 18.7146 36.3882 18.7764C36.2647 18.8381 36.2146 18.9883 36.2764 19.1118L36.7236 18.8882ZM38.7764 24.1118C38.8381 24.2353 38.9883 24.2854 39.1118 24.2236C39.2353 24.1619 39.2854 24.0117 39.2236 23.8882L38.7764 24.1118ZM37.124 18.7829C37.0042 18.7144 36.8514 18.7561 36.7829 18.876C36.7144 18.9958 36.7561 19.1486 36.876 19.2171L37.124 18.7829ZM40.376 21.2171C40.4958 21.2856 40.6486 21.2439 40.7171 21.124C40.7856 21.0042 40.7439 20.8514 40.624 20.7829L40.376 21.2171ZM22.2321 30.4072C22.1808 30.279 22.0353 30.2166 21.9072 30.2679C21.779 30.3192 21.7166 30.4647 21.7679 30.5928L22.2321 30.4072ZM23 33L22.7679 33.0928C22.817 33.2157 22.9535 33.279 23.0791 33.2372L23 33ZM26 32L26.0791 32.2372C26.21 32.1935 26.2808 32.0519 26.2372 31.9209L26 32ZM25.7372 30.4209C25.6935 30.29 25.5519 30.2192 25.4209 30.2628C25.29 30.3065 25.2192 30.4481 25.2628 30.5791L25.7372 30.4209ZM24.2372 30.9209C24.1935 30.79 24.0519 30.7192 23.9209 30.7628C23.79 30.8065 23.7192 30.9481 23.7628 31.0791L24.2372 30.9209ZM15.2298 25.4015C15.1754 25.2746 15.0284 25.2158 14.9015 25.2702C14.7746 25.3246 14.7158 25.4716 14.7702 25.5985L15.2298 25.4015ZM16.2702 29.0985C16.3246 29.2254 16.4716 29.2842 16.5985 29.2298C16.7254 29.1754 16.7842 29.0284 16.7298 28.9015L16.2702 29.0985ZM16.7298 24.9015C16.6754 24.7746 16.5284 24.7158 16.4015 24.7702C16.2746 24.8246 16.2158 24.9716 16.2702 25.0985L16.7298 24.9015ZM17.7702 28.5985C17.8246 28.7254 17.9716 28.7842 18.0985 28.7298C18.2254 28.6754 18.2842 28.5284 18.2298 28.4015L17.7702 28.5985ZM20.2298 23.9015C20.1754 23.7746 20.0284 23.7158 19.9015 23.7702C19.7746 23.8246 19.7158 23.9716 19.7702 24.0985L20.2298 23.9015ZM21.2702 27.5985C21.3246 27.7254 21.4716 27.7842 21.5985 27.7298C21.7254 27.6754 21.7842 27.5284 21.7298 27.4015L21.2702 27.5985ZM22.2341 22.9122C22.1856 22.7829 22.0415 22.7174 21.9122 22.7659C21.7829 22.8144 21.7174 22.9585 21.7659 23.0878L22.2341 22.9122ZM23.2659 27.0878C23.3144 27.2171 23.4585 27.2826 23.5878 27.2341C23.7171 27.1856 23.7826 27.0415 23.7341 26.9122L23.2659 27.0878ZM9.40152 14.7298C9.52843 14.7842 9.6754 14.7254 9.72979 14.5985C9.78418 14.4716 9.72539 14.3246 9.59848 14.2702L9.40152 14.7298ZM6.09848 12.7702C5.97157 12.7158 5.8246 12.7746 5.77021 12.9015C5.71582 13.0284 5.77461 13.1754 5.90152 13.2298L6.09848 12.7702ZM6.26592 15.4122C6.21744 15.5415 6.28294 15.6856 6.41222 15.7341C6.5415 15.7826 6.6856 15.7171 6.73408 15.5878L6.26592 15.4122ZM8.23408 11.5878C8.28256 11.4585 8.21706 11.3144 8.08778 11.2659C7.9585 11.2174 7.8144 11.2829 7.76592 11.4122L8.23408 11.5878ZM4.77639 9.8882C4.71465 10.0117 4.7647 10.1619 4.8882 10.2236C5.01169 10.2854 5.16186 10.2353 5.22361 10.1118L4.77639 9.8882ZM6.72361 7.1118C6.78535 6.98831 6.7353 6.83814 6.6118 6.77639C6.48831 6.71465 6.33814 6.7647 6.27639 6.8882L6.72361 7.1118ZM12.3882 7.22361C12.5117 7.28535 12.6619 7.2353 12.7236 7.1118C12.7854 6.98831 12.7353 6.83814 12.6118 6.77639L12.3882 7.22361ZM11.5 6.5L11.6118 6.27639C11.5507 6.24586 11.4798 6.24163 11.4156 6.26469C11.3513 6.28774 11.2993 6.33608 11.2715 6.39847L11.5 6.5ZM9.27155 10.8985C9.21547 11.0246 9.27229 11.1724 9.39847 11.2285C9.52464 11.2845 9.67238 11.2277 9.72845 11.1015L9.27155 10.8985ZM11.883 8.22095C12.0051 8.28555 12.1563 8.239 12.2209 8.11697C12.2855 7.99495 12.239 7.84365 12.117 7.77905L11.883 8.22095ZM11.0556 7.5L10.8271 7.39847V7.39847L11.0556 7.5ZM11.4072 9.73212C11.5353 9.7834 11.6808 9.72104 11.7321 9.59285C11.7834 9.46465 11.721 9.31916 11.5928 9.26788L11.4072 9.73212ZM9 8.5L9.09285 8.26788C8.97213 8.21959 8.83454 8.2719 8.77639 8.3882L9 8.5ZM8.27639 9.3882C8.21465 9.51169 8.2647 9.66186 8.3882 9.72361C8.51169 9.78535 8.66186 9.7353 8.72361 9.6118L8.27639 9.3882ZM10.2236 6.6118C10.2854 6.48831 10.2353 6.33814 10.1118 6.27639C9.98831 6.21465 9.83814 6.2647 9.77639 6.3882L10.2236 6.6118ZM10.9072 7.73212C11.0353 7.7834 11.1808 7.72104 11.2321 7.59285C11.2834 7.46465 11.221 7.31916 11.0928 7.26788L10.9072 7.73212ZM35.75 14.5C35.75 14.6381 35.8619 14.75 36 14.75C36.1381 14.75 36.25 14.6381 36.25 14.5H35.75ZM36.25 10C36.25 9.86193 36.1381 9.75 36 9.75C35.8619 9.75 35.75 9.86193 35.75 10H36.25ZM36.2628 14.9209C36.2192 15.0519 36.29 15.1935 36.4209 15.2372C36.5519 15.2808 36.6935 15.21 36.7372 15.0791L36.2628 14.9209ZM38.2372 10.5791C38.2808 10.4481 38.21 10.3065 38.0791 10.2628C37.9481 10.2192 37.8065 10.29 37.7628 10.4209L38.2372 10.5791ZM36.788 15.3675C36.7148 15.4846 36.7504 15.6388 36.8675 15.712C36.9846 15.7852 37.1388 15.7496 37.212 15.6325L36.788 15.3675ZM39.712 11.6325C39.7852 11.5154 39.7496 11.3612 39.6325 11.288C39.5154 11.2148 39.3612 11.2504 39.288 11.3675L39.712 11.6325ZM32.8232 16.8232C32.7256 16.9209 32.7256 17.0791 32.8232 17.1768C32.9209 17.2744 33.0791 17.2744 33.1768 17.1768L32.8232 16.8232ZM35.6768 14.6768C35.7744 14.5791 35.7744 14.4209 35.6768 14.3232C35.5791 14.2256 35.4209 14.2256 35.3232 14.3232L35.6768 14.6768ZM27.4313 21.2596C27.2986 21.2976 27.2217 21.4359 27.2596 21.5687C27.2976 21.7014 27.4359 21.7783 27.5687 21.7404L27.4313 21.2596ZM31.0687 20.7404C31.2014 20.7024 31.2783 20.5641 31.2404 20.4313C31.2024 20.2986 31.0641 20.2217 30.9313 20.2596L31.0687 20.7404ZM29.75 17C29.75 16.8619 29.6381 16.75 29.5 16.75C29.3619 16.75 29.25 16.8619 29.25 17H29.75ZM28.25 17C28.25 16.8619 28.1381 16.75 28 16.75C27.8619 16.75 27.75 16.8619 27.75 17H28.25ZM28 21.3571L28.0687 21.5975L28 21.3571ZM26.4646 21.2475C26.6013 21.267 26.728 21.172 26.7475 21.0354C26.767 20.8987 26.672 20.772 26.5354 20.7525L26.4646 21.2475ZM26 20.9286L25.7526 20.8925C25.743 20.9582 25.76 21.0251 25.7998 21.0783C25.8396 21.1315 25.8989 21.1667 25.9646 21.1761L26 20.9286ZM26.7474 17.5361C26.7673 17.3995 26.6727 17.2725 26.5361 17.2526C26.3995 17.2327 26.2725 17.3273 26.2526 17.4639L26.7474 17.5361ZM42.7109 25.1342C42.785 25.0177 42.7507 24.8632 42.6342 24.7891C42.5177 24.715 42.3632 24.7493 42.2891 24.8658L42.7109 25.1342ZM44.2144 26.1286C44.2854 26.0102 44.247 25.8567 44.1286 25.7856C44.0102 25.7146 43.8567 25.753 43.7856 25.8714L44.2144 26.1286ZM42.2856 28.3714C42.2146 28.4898 42.253 28.6433 42.3714 28.7144C42.4898 28.7854 42.6433 28.747 42.7144 28.6286L42.2856 28.3714ZM33.7525 28.4646C33.733 28.6013 33.828 28.728 33.9646 28.7475C34.1013 28.767 34.228 28.672 34.2475 28.5354L33.7525 28.4646ZM26.2372 26.4209C26.1935 26.29 26.0519 26.2192 25.9209 26.2628C25.79 26.3065 25.7192 26.4481 25.7628 26.5791L26.2372 26.4209ZM26.7628 29.5791C26.8065 29.71 26.9481 29.7808 27.0791 29.7372C27.21 29.6935 27.2808 29.5519 27.2372 29.4209L26.7628 29.5791ZM24.4841 26.9122C24.4356 26.7829 24.2915 26.7174 24.1622 26.7659C24.0329 26.8144 23.9674 26.9585 24.0159 27.0878L24.4841 26.9122ZM24.7659 29.0878C24.8144 29.2171 24.9585 29.2826 25.0878 29.2341C25.2171 29.1856 25.2826 29.0415 25.2341 28.9122L24.7659 29.0878ZM12.7236 16.3882C12.6619 16.2647 12.5117 16.2146 12.3882 16.2764C12.2647 16.3381 12.2146 16.4883 12.2764 16.6118L12.7236 16.3882ZM13.2764 18.6118C13.3381 18.7353 13.4883 18.7854 13.6118 18.7236C13.7353 18.6619 13.7854 18.5117 13.7236 18.3882L13.2764 18.6118ZM14.2236 16.3882C14.1619 16.2647 14.0117 16.2146 13.8882 16.2764C13.7647 16.3381 13.7146 16.4883 13.7764 16.6118L14.2236 16.3882ZM14.7764 18.6118C14.8381 18.7353 14.9883 18.7854 15.1118 18.7236C15.2353 18.6619 15.2854 18.5117 15.2236 18.3882L14.7764 18.6118ZM25 18.25C24.8619 18.25 24.75 18.3619 24.75 18.5C24.75 18.6381 24.8619 18.75 25 18.75V18.25ZM31 18.75C31.1381 18.75 31.25 18.6381 31.25 18.5C31.25 18.3619 31.1381 18.25 31 18.25V18.75ZM24.5 19.75C24.3619 19.75 24.25 19.8619 24.25 20C24.25 20.1381 24.3619 20.25 24.5 20.25V19.75ZM31 20.25C31.1381 20.25 31.25 20.1381 31.25 20C31.25 19.8619 31.1381 19.75 31 19.75V20.25ZM39.2308 18.9038C39.1777 18.7764 39.0313 18.7161 38.9038 18.7692C38.7764 18.8223 38.7161 18.9687 38.7692 19.0962L39.2308 18.9038ZM39 22L39.1411 22.2064C39.181 22.1791 39.2122 22.1408 39.2308 22.0962L39 22ZM32.0158 23.2505C31.878 23.2418 31.7593 23.3464 31.7505 23.4842C31.7418 23.622 31.8464 23.7407 31.9842 23.7495L32.0158 23.2505ZM39.3613 14.208C39.4762 14.2846 39.6314 14.2536 39.708 14.1387C39.7846 14.0238 39.7536 13.8686 39.6387 13.792L39.3613 14.208ZM36.5 12L36.6387 11.792C36.5547 11.736 36.4453 11.736 36.3613 11.792L36.5 12ZM34.8613 12.792C34.7464 12.8686 34.7154 13.0238 34.792 13.1387C34.8686 13.2536 35.0238 13.2846 35.1387 13.208L34.8613 12.792ZM32.5164 21.2505C32.3787 21.2415 32.2596 21.3458 32.2505 21.4836C32.2415 21.6213 32.3458 21.7404 32.4836 21.7495L32.5164 21.2505ZM13.9646 10.2475L20.9646 11.2475L21.0354 10.7525L14.0354 9.75251L13.9646 10.2475ZM21.7679 30.5928L22.7679 33.0928L23.2321 32.9072L22.2321 30.4072L21.7679 30.5928ZM23.0791 33.2372L24.5791 32.7372L24.4209 32.2628L22.9209 32.7628L23.0791 33.2372ZM24.5791 32.7372L26.0791 32.2372L25.9209 31.7628L24.4209 32.2628L24.5791 32.7372ZM26.2372 31.9209L25.9872 31.1709L25.5128 31.3291L25.7628 32.0791L26.2372 31.9209ZM25.9872 31.1709L25.7372 30.4209L25.2628 30.5791L25.5128 31.3291L25.9872 31.1709ZM24.7372 32.4209L24.4872 31.6709L24.0128 31.8291L24.2628 32.5791L24.7372 32.4209ZM24.4872 31.6709L24.2372 30.9209L23.7628 31.0791L24.0128 31.8291L24.4872 31.6709ZM25.6709 31.0128L24.1709 31.5128L24.3291 31.9872L25.8291 31.4872L25.6709 31.0128ZM14.7702 25.5985L16.2702 29.0985L16.7298 28.9015L15.2298 25.4015L14.7702 25.5985ZM16.2702 25.0985L17.7702 28.5985L18.2298 28.4015L16.7298 24.9015L16.2702 25.0985ZM19.7702 24.0985L21.2702 27.5985L21.7298 27.4015L20.2298 23.9015L19.7702 24.0985ZM21.7659 23.0878L23.2659 27.0878L23.7341 26.9122L22.2341 22.9122L21.7659 23.0878ZM9.59848 14.2702L6.09848 12.7702L5.90152 13.2298L9.40152 14.7298L9.59848 14.2702ZM6.73408 15.5878L8.23408 11.5878L7.76592 11.4122L6.26592 15.4122L6.73408 15.5878ZM5.22361 10.1118L6.72361 7.1118L6.27639 6.8882L4.77639 9.8882L5.22361 10.1118ZM12.6118 6.77639L11.6118 6.27639L11.3882 6.72361L12.3882 7.22361L12.6118 6.77639ZM11.2715 6.39847L10.8271 7.39847L11.284 7.60153L11.7285 6.60153L11.2715 6.39847ZM10.8271 7.39847L9.27155 10.8985L9.72845 11.1015L11.284 7.60153L10.8271 7.39847ZM12.117 7.77905L11.1725 7.27905L10.9386 7.72095L11.883 8.22095L12.117 7.77905ZM11.5928 9.26788L9.09285 8.26788L8.90715 8.73212L11.4072 9.73212L11.5928 9.26788ZM8.77639 8.3882L8.27639 9.3882L8.72361 9.6118L9.22361 8.6118L8.77639 8.3882ZM8.72361 9.6118L9.97361 7.1118L9.52639 6.8882L8.27639 9.3882L8.72361 9.6118ZM9.97361 7.1118L10.2236 6.6118L9.77639 6.3882L9.52639 6.8882L9.97361 7.1118ZM11.0928 7.26788L9.84285 6.76788L9.65715 7.23212L10.9072 7.73212L11.0928 7.26788ZM36.25 14.5V10H35.75V14.5H36.25ZM36.7372 15.0791L38.2372 10.5791L37.7628 10.4209L36.2628 14.9209L36.7372 15.0791ZM37.212 15.6325L39.712 11.6325L39.288 11.3675L36.788 15.3675L37.212 15.6325ZM33.1768 17.1768L35.6768 14.6768L35.3232 14.3232L32.8232 16.8232L33.1768 17.1768ZM29.5687 21.169L31.0687 20.7404L30.9313 20.2596L29.4313 20.6882L29.5687 21.169ZM29.25 17V20.9286H29.75V17H29.25ZM27.5687 21.7404L28.0687 21.5975L27.9313 21.1168L27.4313 21.2596L27.5687 21.7404ZM28.0687 21.5975L29.5687 21.169L29.4313 20.6882L27.9313 21.1168L28.0687 21.5975ZM27.75 17V21.3571H28.25V17H27.75ZM26.5354 20.7525L26.0354 20.6811L25.9646 21.1761L26.4646 21.2475L26.5354 20.7525ZM26.2474 20.9646L26.7474 17.5361L26.2526 17.4639L25.7526 20.8925L26.2474 20.9646ZM42.2891 24.8658L38.7891 30.3658L39.2109 30.6342L42.7109 25.1342L42.2891 24.8658ZM43.7856 25.8714L42.2856 28.3714L42.7144 28.6286L44.2144 26.1286L43.7856 25.8714ZM34.2525 24.9646L33.7525 28.4646L34.2475 28.5354L34.7475 25.0354L34.2525 24.9646ZM25.7628 26.5791L26.7628 29.5791L27.2372 29.4209L26.2372 26.4209L25.7628 26.5791ZM24.0159 27.0878L24.7659 29.0878L25.2341 28.9122L24.4841 26.9122L24.0159 27.0878ZM12.2764 16.6118L13.2764 18.6118L13.7236 18.3882L12.7236 16.3882L12.2764 16.6118ZM13.7764 16.6118L14.7764 18.6118L15.2236 18.3882L14.2236 16.3882L13.7764 16.6118ZM25 18.75H31V18.25H25V18.75ZM24.5 20.25H31V19.75H24.5V20.25ZM35.2534 18.9589L34.7534 21.9589L35.2466 22.0411L35.7466 19.0411L35.2534 18.9589ZM34.7534 21.9589L34.2534 24.9589L34.7466 25.0411L35.2466 22.0411L34.7534 21.9589ZM39.501 20.7171L40.376 21.2171L40.624 20.7829L39.749 20.2829L39.501 20.7171ZM38.7692 19.0962L39.3942 20.5962L39.8558 20.4038L39.2308 18.9038L38.7692 19.0962ZM39.3942 20.4038L38.7692 21.9038L39.2308 22.0962L39.8558 20.5962L39.3942 20.4038ZM36.1491 23.8L36.2509 25.0208L36.7491 24.9792L36.6474 23.7585L36.1491 23.8ZM38.8589 21.7936L36.2571 23.5729L36.5394 23.9856L39.1411 22.2064L38.8589 21.7936ZM36.4141 23.5298L32.0158 23.2505L31.9842 23.7495L36.3824 24.0288L36.4141 23.5298ZM39.6387 13.792L36.6387 11.792L36.3613 12.208L39.3613 14.208L39.6387 13.792ZM36.3613 11.792L34.8613 12.792L35.1387 13.208L36.6387 12.208L36.3613 11.792ZM36.876 19.2171L37.751 19.7171L37.999 19.2829L37.124 18.7829L36.876 19.2171ZM37.751 19.7171L39.501 20.7171L39.749 20.2829L37.999 19.2829L37.751 19.7171ZM36.2764 19.1118L37.2407 21.0404L37.6879 20.8168L36.7236 18.8882L36.2764 19.1118ZM37.2407 21.0404L38.7764 24.1118L39.2236 23.8882L37.6879 20.8168L37.2407 21.0404ZM37.6347 19.4309L37.224 20.8595L37.7046 20.9976L38.1153 19.5691L37.6347 19.4309ZM35.7509 19.0208L35.9797 21.7663L36.4779 21.7248L36.2491 18.9792L35.7509 19.0208ZM35.9797 21.7663L36.1491 23.8L36.6474 23.7585L36.4779 21.7248L35.9797 21.7663ZM37.3264 20.72L36.0909 21.537L36.3667 21.9541L37.6022 21.1371L37.3264 20.72ZM36.2452 21.4961L32.5164 21.2505L32.4836 21.7495L36.2124 21.995L36.2452 21.4961Z" fill="#7E2F8E"/>
<path d="M6 6.99998L7.375 8.49998M11.5 13L9.4375 10.75L7.375 8.49998M11.5 13L15.6667 15.5M11.5 13L4.5 9.5M16.5 16H11.5M16.5 16L15.6667 15.5M16.5 16L19.7704 16.3847M25 17H31M25 17L24 22M25 17L19.7704 16.3847M25 17L28.2857 11M31 17H32.5L34 18M31 17V20L32.5 21.5M31 17V15L31.5 13.5M34 18L35 19L36.5 18.7692M34 18L33.5 20L32.5 21.5M41.5 18L40 18.2307M31.5 23L30.5 25L30 27.7392M31.5 23L32.5 23.5L32 25V26.5L31 32.5M31.5 23L32.5 21.5M29 32.5L30 27.7392M24 22L22.5 22.5689L18 24.2758M24 22L27 21L28.5 25M24 22L24.8154 24.2758M3 27L9.5 27.5L11.2835 26.8235M11.5 16L9 15.8214M11.5 16L7 18M3 21.5L7 18M4.5 15.5L7.375 8.49998M4.5 15.5L7 18M4.5 15.5L5.93067 15.6022L9 15.8214M9 15.8214L11.2835 10.5M13 6.49998L11.2835 10.5M15.6667 15.5L17 10L17.5 8L18 5.5M19.7704 16.3847L20.4293 13M19.7704 16.3847L9 20.7507M18 6.99998L21.5 7.49998L20.4293 13M20.4293 13L13.5 12L11.2835 10.5M20.4293 13L25.5 5.5M9.4375 27.7392V31M9.4375 31L8 33.5M9.4375 31L11.2835 31.5M11.2835 31.5V33.5M11.2835 31.5L13.2903 30.75M15.2971 30L13.5 26M15.2971 30L19.7704 28.3282M15.2971 30L13.2903 30.75M19.7704 28.3282L18 24.2758M19.7704 28.3282L24.2393 26.658L25.5 26.1869M18 24.2758L11.2835 26.8235M40 18.2307L39 17M40 18.2307L36.5 18.7692M40 18.2307L41 21L40 23.5M39 17L40.5 15.5L40 11.5L36.5 9.5L34.9375 10.75M39 17L37.6 16M31.5 13.5L34.9375 10.75M31.5 13.5L35.5 14.5M34.9375 10.75L32.5 7M35.5 14.5L36.5 18.7692M35.5 14.5L33 10.6111M35.5 14.5L37.6 16M40 23.5L37 25.5M40 23.5L45.2628 26.658M37 25.5L36 28.5L30 27.7392M37 25.5L44.5 30M37 25.5L28.5 25M28.5 25L26 26L25.5 26.1869M28.5 25L29 27L26.5 28L21.5 33.5M25.5 26.1869L24.8154 24.2758M33.5 28.5L33 31.5M33 31.5L28.5 30H3.5H3M33 31.5L34.9375 31.8785L42 30H44M45.5 30H44.5M44.5 30H44M7 18L9 20.7507M11.2835 26.8235L12 29L24.8154 24.2758M11.2835 26.8235L9 20.7507M40.5 33.5L44 30M13.2903 30.75L14.5 33.5M31 7.49998L33 10.6111M33 10.6111L30 12.5L28.2857 11M22 5.5L28.2857 11M45.5 8.49998L37.6 16" stroke="#7E2F8E" stroke-linecap="round" stroke-linejoin="round"/>
<rect x="0.5" y="0.5" width="48" height="38" rx="1" stroke="var(--mw-icon-border-default-gray, #616161)"/>

</svg>
