<svg width="50" height="40" viewBox="0 0 50 40" fill="none" xmlns="http://www.w3.org/2000/svg">
<rect x="0.5" y="0.5" width="48" height="38" rx="1" fill="var(--mw-icon-background-default-white, #FFFFFF)"/>
<path d="M48 7.5C47 7.5 44 7.5 42.5 7C40.1068 6.20227 38.5 4 38.5 1" stroke="#EDB120"/>
<path d="M0.500046 30.5C8.00004 31 7.50003 35 7.50003 38" stroke="#EDB120"/>
<path d="M44.5 17.5001C44.5 26.8798 36.9052 36.5 24.525 36.5C14.7345 36.5 6.5 19.3798 6.5 10.0001C6.5 0.620333 11.2346 1.05309 25 6.50006C35.0034 10.4584 44.5 8.12033 44.5 17.5001Z" stroke="#0072BD"/>
<path d="M34 21.0165C34 25.6087 28.7005 28.5 24.1818 28.5C19.6631 28.5 16 18.9568 16 14.3645C16 9.7723 20.9759 11.8814 25.8182 12.7015C30.7273 13.533 34 16.4243 34 21.0165Z" stroke="#D95319"/>
<path d="M38.5 21.5C38.5 27.9831 30.527 32.5 24 32.5C17.473 32.5 12 18.5272 12 12.044C12 5.56089 19.1874 8.5384 26.1818 9.69628C33.2727 10.8701 38.5 15.0169 38.5 21.5Z" stroke="#77AC30"/>
<path d="M25.5 18.5V22.5M23.5 20.5H27.5" stroke="var(--mw-icon-glyph-content-red, #902623)" stroke-linecap="round" stroke-linejoin="round"/>
<rect x="0.5" y="0.5" width="48" height="38" rx="1" stroke="var(--mw-icon-border-default-gray, #616161)"/>
</svg>
