<svg width="50" height="40" viewBox="0 0 50 40" fill="none" xmlns="http://www.w3.org/2000/svg">
<path d="M5.5 27.5V12.5L24.5 1.5L43.5 12.5V27.5L24.5 38.5L5.5 27.5Z" fill="var(--mw-icon-background-default-white, #FFFFFF)"/>
<path d="M24.5 17L24.5058 2.08362L43.0197 12.7539V27.6225L24.5 17Z" fill="var(--mw-icon-background-default-light-gray, #F5F5F5)"/>
<path d="M24.5 17L24.4942 2.08362L5.98035 12.7675L5.98035 27.6225L24.5 17Z" fill="var(--mw-icon-background-default-medium-gray, #D9D9D9)"/>
<path d="M43.5 27.5V12.459L24.5 1.5L5.5 12.47" stroke="var(--mw-icon-glyph-disabled-gray, #888889)" stroke-linecap="round" stroke-linejoin="round"/>
<path d="M5.5 12.5V27.53L24.5 38.5L43.5 27.5352" stroke="var(--mw-icon-glyph-content-mono, #616061)" stroke-linecap="round" stroke-linejoin="round"/>
<path d="M12 20H13L13.0039 25.95C13.0039 25.95 12.8984 25.9533 12.4492 25.7188C12 25.4842 12 25 12 25V20Z" fill="#745A27"/>
<path d="M13 20H15V25C15 25 15 25.668 14.2578 25.8906C13.5156 26.1133 13 25.9453 13 25.9453V20Z" fill="#4A3A18"/>
<path d="M18 16.5C18 18.9853 15.9853 21 13.5 21C11.0147 21 9 18.9853 9 16.5C9 14.0147 11.0147 12 13.5 12C15.9853 12 18 14.0147 18 16.5Z" fill="var(--mw-icon-glyph-content-green, #008014)"/>
<path d="M18.0001 16.5C18.0001 18.9853 15.9853 21 13.5 21C11.0148 21 15.7501 19.8355 15.7501 16.5C15.7501 12.0395 11.0148 12 13.5001 12C15.9853 12 18.0001 14.0147 18.0001 16.5Z" fill="#023E0A"/>
<path d="M35 24H36L36.0039 29.95C36.0039 29.95 35.8984 29.9533 35.4492 29.7188C35 29.4842 35 29 35 29V24Z" fill="#745A27"/>
<path d="M36 24H38V29C38 29 38 29.668 37.2578 29.8906C36.5156 30.1133 36 29.9453 36 29.9453V24Z" fill="#4A3A18"/>
<path d="M41 20.5C41 22.9853 38.9853 25 36.5 25C34.0147 25 32 22.9853 32 20.5C32 18.0147 34.0147 16 36.5 16C38.9853 16 41 18.0147 41 20.5Z" fill="var(--mw-icon-glyph-content-green, #008014)"/>
<path d="M41.0001 20.5C41.0001 22.9853 38.9853 25 36.5 25C34.0148 25 38.7501 23.8355 38.7501 20.5C38.7501 16.0395 34.0148 16 36.5001 16C38.9853 16 41.0001 18.0147 41.0001 20.5Z" fill="#023E0A"/>
<path d="M20 25L25 21.9987L25 25.0361L20 28V25Z" fill="var(--mw-icon-borderColor-light-blue, #268CDD)"/>
<path d="M18 23.8453L20 25L20 28.0032L18 26.8485L18 23.8453Z" fill="var(--mw-icon-background-medium-blue, #83CAFF)"/>
<path d="M23 20.8453L24.9999 22L20.0001 25L18.0002 23.8453L23 20.8453Z" fill="var(--mw-icon-background-default-selection, #B4DEFF)"/>
<path d="M29.9977 23.5373L31.9976 24.692L28 27L26.0001 25.8453L29.9977 23.5373Z" fill="var(--mw-icon-background-default-selection, #B4DEFF)"/>
<path d="M28 27L31.9993 24.691V26.691L28 29L28 27Z" fill="var(--mw-icon-borderColor-light-blue, #268CDD)"/>
<path d="M25.999 25.8447L28 27L28 29L25.999 27.8447V25.8447Z" fill="var(--mw-icon-background-medium-blue, #83CAFF)"/>
<path d="M23.0104 27.5406L25.0011 28.69L20.9999 31L19.0093 29.8507L23.0104 27.5406Z" fill="var(--mw-icon-background-default-selection, #B4DEFF)"/>
<path d="M20.9999 31L24.9999 28.6906L24.9999 30.6906L21 33L20.9999 31Z" fill="var(--mw-icon-borderColor-light-blue, #268CDD)"/>
<path d="M19 29.8453L20.9999 31L21 33L19 31.8453V29.8453Z" fill="var(--mw-icon-background-medium-blue, #83CAFF)"/>
<path d="M23 8H24L24.0039 18.95C24.0039 18.95 23.8984 18.9533 23.4492 18.7188C23 18.4842 23 18 23 18V8Z" fill="#F267C5"/>
<path d="M24 8H26V18C26 18 26 18.668 25.2578 18.8906C24.5156 19.1133 24 18.9453 24 18.9453V8Z" fill="#8D1FD7"/>
<ellipse cx="24.5" cy="8" rx="1.5" ry="1" fill="#E6BFFF"/>
<path d="M28 28H29L29.0039 33.95C29.0039 33.95 28.8984 33.9533 28.4492 33.7188C28 33.4842 28 33 28 33V28Z" fill="#F267C5"/>
<path d="M29 28H31V33C31 33 31 33.668 30.2578 33.8906C29.5156 34.1133 29 33.9453 29 33.9453V28Z" fill="#8D1FD7"/>
<ellipse cx="29.5" cy="28" rx="1.5" ry="1" fill="#E6BFFF"/>
</svg>
