<svg width="50" height="40" viewBox="0 0 50 40" fill="none" xmlns="http://www.w3.org/2000/svg">
<rect x="0.5" y="0.5" width="48" height="38" rx="1" fill="var(--mw-icon-background-default-white, white)"/>
<path d="M17 1H16V39H17V1Z" fill="var(--mw-icon-border-default-gray, #616161)"/>
<path d="M33 1H32V39H33V1Z" fill="var(--mw-icon-border-default-gray, #616161)"/>
<path d="M48 14V13H0V14H48Z" fill="var(--mw-icon-border-default-gray, #616161)"/>
<path d="M48 26V25H0V26H48Z" fill="var(--mw-icon-border-default-gray, #616161)"/>
<path d="M11 19H4V20H11V19Z" fill="#D95319"/>
<path d="M12 20H5V21H12V20Z" fill="#D95319"/>
<path d="M8 18H2V19H8V18Z" fill="#D95319"/>
<path d="M6 18V16H5V18H6Z" fill="#D95319"/>
<path d="M4 22V20H3V22H4Z" fill="#D95319"/>
<path d="M10 23V22H9V23H10Z" fill="#D95319"/>
<path d="M7 23V22H6V23H7Z" fill="#D95319"/>
<path d="M8 18V17H7V18H8Z" fill="#D95319"/>
<path d="M10 21H6V22H10V21Z" fill="#D95319"/>
<path d="M12 12H3V13H12V12Z" fill="#0072BD"/>
<path d="M11 11H4V12H11V11Z" fill="#0072BD"/>
<path d="M10 10H5V11H10V10Z" fill="#0072BD"/>
<path d="M10 9H5V10H10V9Z" fill="#0072BD"/>
<path d="M10 8H6V9H10V8Z" fill="#0072BD"/>
<path d="M8 4H7V8H8V4Z" fill="#0072BD"/>
<path d="M10 7H9V8H10V7Z" fill="#0072BD"/>
<path d="M7 7H6V8H7V7Z" fill="#0072BD"/>
<path d="M13 32H6V33H13V32Z" fill="#D95319"/>
<path d="M12 33H7V34H12V33Z" fill="#D95319"/>
<path d="M11 34H8V35H11V34Z" fill="#D95319"/>
<path d="M11 36H9V37H11V36Z" fill="#D95319"/>
<path d="M13 30H10V31H13V30Z" fill="#D95319"/>
<path d="M11 31H7V32H11V31Z" fill="#D95319"/>
<path d="M9 30H3V31H9V30Z" fill="#D95319"/>
<path d="M9 29H4V30H9V29Z" fill="#D95319"/>
<path d="M9 27H6V28H9V27Z" fill="#D95319"/>
<path d="M5 32H4V33H5V32Z" fill="#D95319"/>
<path d="M11 29H10V30H11V29Z" fill="#D95319"/>
<path d="M6 28H5V29H6V28Z" fill="#D95319"/>
<path d="M9 35H8V36H9V35Z" fill="#D95319"/>
<path d="M25 5H19V6H25V5Z" fill="#D95319"/>
<path d="M28 6H21V7H28V6Z" fill="#D95319"/>
<path d="M29 7H20V8H29V7Z" fill="#D95319"/>
<path d="M29 8H26V9H29V8Z" fill="#D95319"/>
<path d="M25 8H22V9H25V8Z" fill="#D95319"/>
<path d="M23 9H21V10H23V9Z" fill="#D95319"/>
<path d="M24 3H23V4H24V3Z" fill="#D95319"/>
<path d="M27 9H25V11H27V9Z" fill="#D95319"/>
<path d="M25 4H21V5H25V4Z" fill="#D95319"/>
<path d="M31 24H19V25H31V24Z" fill="#0072BD"/>
<path d="M28 23H20V24H28V23Z" fill="#0072BD"/>
<path d="M27 22H21V23H27V22Z" fill="#0072BD"/>
<path d="M27 21H21V22H27V21Z" fill="#0072BD"/>
<path d="M26 20H22V21H26V20Z" fill="#0072BD"/>
<path d="M24 15H23V19H24V15Z" fill="#0072BD"/>
<path d="M26 19H22V20H26V19Z" fill="#0072BD"/>
<path d="M23 18H22V19H23V18Z" fill="#0072BD"/>
<path d="M25 17H24V19H25V17Z" fill="#0072BD"/>
<path d="M26 32H21V33H26V32Z" fill="#D95319"/>
<path d="M25 31H20V32H25V31Z" fill="#D95319"/>
<path d="M27 29H23V30H27V29Z" fill="#D95319"/>
<path d="M28 27H25V28H28V27Z" fill="#D95319"/>
<path d="M25 28H23V29H25V28Z" fill="#D95319"/>
<path d="M23 34H21V35H23V34Z" fill="#D95319"/>
<path d="M29 29H28V30H29V29Z" fill="#D95319"/>
<path d="M25 34H24V35H25V34Z" fill="#D95319"/>
<path d="M22 35H21V36H22V35Z" fill="#D95319"/>
<path d="M21 36H19V37H21V36Z" fill="#D95319"/>
<path d="M26 33H21V34H26V33Z" fill="#D95319"/>
<path d="M28 30H22V31H28V30Z" fill="#D95319"/>
<path d="M44 19H36V20H44V19Z" fill="#D95319"/>
<path d="M45 20H37V21H45V20Z" fill="#D95319"/>
<path d="M42 21H35V22H42V21Z" fill="#D95319"/>
<path d="M44 18H42V19H44V18Z" fill="#D95319"/>
<path d="M43 17H41V18H43V17Z" fill="#D95319"/>
<path d="M45 16H43V17H45V16Z" fill="#D95319"/>
<path d="M47 19V17H46V19H47Z" fill="#D95319"/>
<path d="M46 20V19H45V20H46Z" fill="#D95319"/>
<path d="M41 23V22H40V23H41Z" fill="#D95319"/>
<path d="M35 23V22H34V23H35Z" fill="#D95319"/>
<path d="M40 18H38V19H40V18Z" fill="#D95319"/>
<path d="M47 37H34V38H47V37Z" fill="#0072BD"/>
<path d="M46 36H35V37H46V36Z" fill="#0072BD"/>
<path d="M44 35H37V36H44V35Z" fill="#0072BD"/>
<path d="M44 34H37V35H44V34Z" fill="#0072BD"/>
<path d="M43 31H37V34H43V31Z" fill="#0072BD"/>
<path d="M43 30H38V31H43V30Z" fill="#0072BD"/>
<path d="M42 29H38V30H42V29Z" fill="#0072BD"/>
<path d="M41 28H39V29H41V28Z" fill="#0072BD"/>
<path d="M40 27H39V28H40V27Z" fill="#0072BD"/>
<path d="M36 35H35V36H36V35Z" fill="#0072BD"/>
<path d="M44 7H37V8H44V7Z" fill="#D95319"/>
<path d="M43 5H36V6H43V5Z" fill="#D95319"/>
<path d="M41 6H38V7H41V6Z" fill="#D95319"/>
<path d="M44 6H42V7H44V6Z" fill="#D95319"/>
<path d="M43 4H41V5H43V4Z" fill="#D95319"/>
<path d="M47 8V6H46V8H47Z" fill="#D95319"/>
<path d="M40 10V8H39V10H40Z" fill="#D95319"/>
<path d="M35 5H34V6H35V5Z" fill="#D95319"/>
<path d="M39 3H38V4H39V3Z" fill="#D95319"/>
<path d="M40 4H37V5H40V4Z" fill="#D95319"/>
<path d="M46 8H42V9H46V8Z" fill="#D95319"/>
<path d="M44 9H42V10H44V9Z" fill="#D95319"/>
<path d="M37 6H35V7H37V6Z" fill="#D95319"/>
<rect x="0.5" y="0.5" width="48" height="38" rx="1" stroke="var(--mw-icon-border-default-gray, #616161)"/>

</svg>
