<svg width="50" height="40" viewBox="0 0 50 40" fill="none" xmlns="http://www.w3.org/2000/svg">
<path d="M8.5 30.5V8.5C8.5 7.94772 8.94772 7.5 9.5 7.5H41.5C42.0523 7.5 42.5 7.94772 42.5 8.5V13.7344C42.5 13.9085 42.5454 14.0795 42.6318 14.2306L44.3682 17.2694C44.4546 17.4205 44.5 17.5915 44.5 17.7656V30.5C44.5 31.0523 44.0523 31.5 43.5 31.5H9.5C8.94772 31.5 8.5 31.0523 8.5 30.5Z" fill="#00A3A3" stroke="#02555C"/>
<rect x="10" y="9" width="3" height="3" rx="0.5" fill="var(--mw-icon-background-default-medium-gray, #D9D9D9)"/>
<circle cx="11.5" cy="10.5" r="0.5" fill="var(--mw-icon-alert-red, #B7313C)"/>
<rect x="14" y="15" width="3" height="1" rx="0.5" fill="var(--mw-icon-background-default-medium-gray, #D9D9D9)"/>
<rect x="14" y="18" width="3" height="1" rx="0.5" fill="var(--mw-icon-background-default-medium-gray, #D9D9D9)"/>
<rect x="15" y="15" width="1" height="1" fill="var(--mw-icon-alert-red, #B7313C)"/>
<rect x="15" y="18" width="1" height="1" fill="#3AC831"/>
<path d="M29.4661 18.0757L29.2426 17.5L29.4661 16.9243C29.7799 16.116 30.7172 15.5 31.5961 15.5C32.6293 15.5 33.5 16.3768 33.5 17.5C33.5 18.6232 32.6293 19.5 31.5961 19.5C30.7172 19.5 29.7799 18.884 29.4661 18.0757ZM28.5339 16.9243L28.7574 17.5L28.5339 18.0757C28.2201 18.884 27.2828 19.5 26.4039 19.5C25.3707 19.5 24.5 18.6232 24.5 17.5C24.5 16.3768 25.3707 15.5 26.4039 15.5C27.2828 15.5 28.2201 16.116 28.5339 16.9243Z" stroke="var(--mw-icon-background-default-white, #FFFFFF)"/>
<path d="M41.5 27.5V29.5" stroke="var(--mw-icon-background-default-medium-gray, #D9D9D9)" stroke-linecap="round"/>
<path d="M40.5 28.5H42.5" stroke="var(--mw-icon-background-default-medium-gray, #D9D9D9)" stroke-linecap="round"/>
<path d="M15.5 27.5V29.5" stroke="var(--mw-icon-background-default-medium-gray, #D9D9D9)" stroke-linecap="round"/>
<path d="M14.5 28.5H16.5" stroke="var(--mw-icon-background-default-medium-gray, #D9D9D9)" stroke-linecap="round"/>
<path d="M15.5 9.5V11.5" stroke="var(--mw-icon-background-default-medium-gray, #D9D9D9)" stroke-linecap="round"/>
<path d="M14.5 10.5H16.5" stroke="var(--mw-icon-background-default-medium-gray, #D9D9D9)" stroke-linecap="round"/>
<path d="M41.5 16.5V18.5" stroke="var(--mw-icon-background-default-medium-gray, #D9D9D9)" stroke-linecap="round"/>
<path d="M40.5 17.5H42.5" stroke="var(--mw-icon-background-default-medium-gray, #D9D9D9)" stroke-linecap="round"/>
<rect x="28" y="9" width="11" height="3" rx="0.5" fill="var(--mw-icon-border-default-gray, #616161)"/>
<rect x="18" y="9" width="9" height="3" rx="0.5" fill="var(--mw-icon-border-default-gray, #616161)"/>
<rect x="31" y="10" width="1" height="1" fill="var(--mw-icon-glyph-content-dark-gray, #333333)"/>
<rect x="29" y="10" width="1" height="1" fill="var(--mw-icon-glyph-content-dark-gray, #333333)"/>
<rect x="21" y="10" width="1" height="1" fill="var(--mw-icon-glyph-content-dark-gray, #333333)"/>
<rect x="19" y="10" width="1" height="1" fill="var(--mw-icon-glyph-content-dark-gray, #333333)"/>
<rect x="25" y="10" width="1" height="1" fill="var(--mw-icon-glyph-content-dark-gray, #333333)"/>
<rect x="23" y="10" width="1" height="1" fill="var(--mw-icon-glyph-content-dark-gray, #333333)"/>
<rect x="18" y="27" width="9" height="3" rx="0.5" fill="var(--mw-icon-border-default-gray, #616161)"/>
<rect x="21" y="28" width="1" height="1" fill="var(--mw-icon-glyph-content-dark-gray, #333333)"/>
<rect x="19" y="28" width="1" height="1" fill="var(--mw-icon-glyph-content-dark-gray, #333333)"/>
<rect x="19" y="25" width="1" height="1" fill="var(--mw-icon-background-default-white, #FFFFFF)"/>
<rect x="21" y="25" width="1" height="1" fill="white"/>
<rect x="23" y="25" width="1" height="1" fill="white"/>
<rect x="25" y="25" width="1" height="1" fill="white"/>
<rect x="19" y="13" width="1" height="1" fill="white"/>
<rect x="21" y="13" width="1" height="1" fill="white"/>
<rect x="23" y="13" width="1" height="1" fill="white"/>
<rect x="25" y="13" width="1" height="1" fill="white"/>
<rect x="31" y="25" width="1" height="1" fill="white"/>
<rect x="33" y="25" width="1" height="1" fill="white"/>
<rect x="35" y="25" width="1" height="1" fill="white"/>
<rect x="37" y="25" width="1" height="1" fill="white"/>
<rect x="31" y="13" width="1" height="1" fill="white"/>
<rect x="29" y="13" width="1" height="1" fill="white"/>
<rect x="33" y="13" width="1" height="1" fill="white"/>
<rect x="35" y="13" width="1" height="1" fill="white"/>
<rect x="37" y="13" width="1" height="1" fill="white"/>
<rect x="25" y="28" width="1" height="1" fill="var(--mw-icon-glyph-content-dark-gray, #333333)"/>
<rect x="23" y="28" width="1" height="1" fill="var(--mw-icon-glyph-content-dark-gray, #333333)"/>
<rect x="30" y="27" width="9" height="3" rx="0.5" fill="var(--mw-icon-border-default-gray, #616161)"/>
<rect x="33" y="28" width="1" height="1" fill="var(--mw-icon-glyph-content-dark-gray, #333333)"/>
<rect x="31" y="28" width="1" height="1" fill="var(--mw-icon-glyph-content-dark-gray, #333333)"/>
<rect x="37" y="28" width="1" height="1" fill="var(--mw-icon-glyph-content-dark-gray, #333333)"/>
<rect x="35" y="28" width="1" height="1" fill="var(--mw-icon-glyph-content-dark-gray, #333333)"/>
<rect x="33" y="10" width="1" height="1" fill="var(--mw-icon-glyph-content-dark-gray, #333333)"/>
<rect x="35" y="10" width="1" height="1" fill="var(--mw-icon-glyph-content-dark-gray, #333333)"/>
<rect x="37" y="10" width="1" height="1" fill="var(--mw-icon-glyph-content-dark-gray, #333333)"/>
<rect x="6.5" y="14.5" width="6" height="5" rx="0.5" fill="var(--mw-icon-background-default-dark-gray, #A6A6A6)" stroke="var(--mw-icon-border-default-gray, #616161)"/>
<rect x="8" y="24" width="5" height="3" fill="var(--mw-icon-glyph-content-dark-gray, #333333)"/>
<rect x="18" y="21" width="21" height="3" rx="0.5" fill="var(--mw-icon-glyph-content-dark-gray, #333333)"/>
<rect x="6" y="28" width="5" height="2" transform="rotate(-90 6 28)" fill="var(--mw-icon-glyph-content-dark-gray, #333333)"/>
<rect x="10" y="13" width="1" height="1" fill="white"/>
<rect x="9" y="20" width="3" height="2" fill="#027880"/>
<rect x="10" y="20" width="1" height="1" fill="white"/>
</svg>
