<svg width="50" height="41" viewBox="0 0 50 41" fill="none" xmlns="http://www.w3.org/2000/svg">
<path d="M5.5 27.5V12.5L24.5 1.5L43.5 12.5V27.5L24.5 38.5L5.5 27.5Z" fill="var(--mw-icon-background-default-white, white)"/>
<path d="M24.5 16.9999L24.5058 2.0835L43.0197 12.7538V27.6224L24.5 16.9999Z" fill="var(--mw-icon-background-default-light-gray, #F5F5F5)"/>
<path d="M24.5 16.9999L24.4942 2.0835L5.98034 12.7674L5.98034 27.6224L24.5 16.9999Z" fill="#E6E6E6"/>
<path d="M43.5 27.5V12.459L24.5 1.5L5.5 12.47" stroke="#BFBFBF" stroke-linecap="round" stroke-linejoin="round"/>
<path d="M5.5 12.5V27.53L24.5 38.5L43.5 27.5352" stroke="var(--mw-icon-border-default-gray, #616161)" stroke-linecap="round" stroke-linejoin="round"/>
<path d="M25.0001 12.0001C25.0001 12.0001 24.6471 11.7223 24 11.9996M25.0001 12.0001L24 11.9996M25.0001 12.0001L26 11.5M24 11.9996C22.9701 12.441 23.0001 13.9999 23.0001 13.9999" stroke="#37C897"/>
<path d="M32.5713 14.9316C32.5713 14.9316 30.0889 15.3479 28.9275 17.246" stroke="#37C897"/>
<path d="M25.9006 15.3511C26.9759 13.9767 28.4105 13.3359 29.0894 13.0942" stroke="#37C897" stroke-linecap="round"/>
<path d="M37 22.7276C37 22.7276 36.4274 21.7899 35.6477 22.1472C34.868 22.5045 35.3092 29.4059 32.8048 29.4059C30.3003 29.4059 33.1736 23.8847 30.2852 19.3337C28.2874 16.1861 25.8949 16.4805 23.3949 14.206C20.8949 11.9314 20.2774 4.58002 17.6457 6.11522C15.0139 7.65042 15.1618 13.296 14.6275 14.8231C14.0931 16.3502 13 17 13 17" stroke="#F9FB15"/>
<path d="M23.395 14.2061C25.895 16.4806 28.2875 16.1862 30.2853 19.3337C30.5373 19.7308 30.7454 20.1352 30.9171 20.5428C32.7133 24.8061 30.519 29.4059 32.8049 29.4059C35.3094 29.4059 34.8681 22.5045 35.6478 22.1472C36.4275 21.7899 37.0001 22.7277 37.0001 22.7277" stroke="#ABC739"/>
<path d="M35.6027 16.6709C35.6027 16.6709 34.9378 16.9242 33.9863 17.5225C33.3487 17.9236 32.5823 18.4796 31.801 19.2182C29.8539 21.0591 30.6079 24.4778 30.231 25.9722" stroke="#3E26A8"/>
<path d="M37 22.7274C37 22.7274 36.4273 21.7896 35.6476 22.147C34.8679 22.5043 35.3092 29.4056 32.8048 29.4056C30.5188 29.4056 32.7132 24.8058 30.917 20.5425" stroke="#3E26A8"/>
<path d="M30.4999 26.5003C30.4999 26.5003 27.1245 24.4684 22.0011 21.3094C18.8009 19.3363 16.8697 18.1128 15.0916 17.7302C13.561 17.0549 14.1807 15.8335 14.1807 15.8335" stroke="#ABC739" stroke-linecap="round"/>
<path d="M15.5 10C15.5 10 18.8745 19.4391 23.8978 18.4211C24.9284 18.2123 24.675 17.5278 25.7228 17.4385C29.0302 17.1564 30.5 26.5 30.5 26.5" stroke="#F9FB15"/>
<path d="M30.5 26.5001C30.5 26.5001 29.0302 17.1566 25.7228 17.4386C24.6751 17.5279 24.9284 18.2124 23.8978 18.4213C21.8758 18.831 20.121 17.5465 18.7458 15.8652" stroke="#FEC338"/>
<path d="M30.5001 26.4999C30.5001 26.4999 29.5516 20.4702 27.4639 18.2446" stroke="#ABC739"/>
<path d="M13 20C15.5 18.5 16.0017 16.0036 16.978 13.0746C17.5638 11.3173 18.1069 9.59883 19.1595 9.35627C20.212 9.11371 21.4043 10.7357 21.4043 10.7357" stroke="#FEC338" stroke-linecap="round"/>
<path d="M9.67529 21.5597C9.67529 21.5597 11.2524 20.9919 12.9803 19.8198" stroke="#37C897"/>
<path d="M16.0386 21.1023C17.792 19.7385 17.999 18.2582 18.854 15.6931C19.367 14.1541 19.8427 12.3339 20.7644 12.1214C21.6862 11.909 22.6576 13.3165 22.6576 13.3165" stroke="#FEC338" stroke-linecap="round"/>
<path d="M12.4585 23.1234C12.4585 23.1234 13.7466 22.8638 15.5 21.5" stroke="#37C897"/>
<path d="M21.511 24.8519C22.998 23.6954 23.1735 23.3688 23.8986 21.1936C24.3337 19.8884 24.737 17.1947 25.5187 17.0145C26.3004 16.8344 27.5654 18.3899 27.5654 18.3899" stroke="#FEC338" stroke-linecap="round"/>
<path d="M18.4751 26.5657C18.4751 26.5657 20.0241 26.0081 21.5111 24.8516" stroke="#37C897"/>
<path d="M29.5479 22.2935C29.5479 22.2935 28.574 20.2695 27.7294 20.6592C26.8848 21.0489 26.6634 22.4423 26.272 23.6163C25.6198 25.5731 25.4619 25.9178 24.1242 26.9581C23.1824 27.6907 22.2129 28.1561 21.7217 28.3674" stroke="#ABC739"/>
<path d="M24.2214 26.8765C23.3127 27.6243 22.2389 28.1433 21.7417 28.3585" stroke="#37C897"/>
<path d="M18.6699 22.9697C20.2871 21.7119 20.478 21.0668 21.2666 18.7011C21.7397 17.2817 22.1257 14.4609 22.9759 14.265C23.826 14.0691 24.6683 15.2282 24.6683 15.2282" stroke="#FEC338" stroke-linecap="round"/>
<path d="M15.3682 24.834C15.3682 24.834 17.0527 24.2275 18.6699 22.9697" stroke="#37C897"/>
<path d="M30.5 26.5C30.5 26.5 30.8804 27.9723 31.2507 28.4108C31.4642 28.6637 31.7878 29.0827 32.1641 29.2773C32.4404 29.4203 33.0469 29.3828 33.0469 29.3828" stroke="#3E26A8"/>
<path d="M39.0001 18.5C39.0001 18.5 38.2412 18.7891 37.1847 19.4792C36.5895 19.868 35.8999 20.384 35.1984 21.0473C33.2513 22.8882 34.0053 26.3069 33.6283 27.8013C33.2514 29.2956 32.7292 29.3759 32.7292 29.3759" stroke="#3E26A8"/>
<path d="M39 18.5C39 18.5 38.2411 18.7891 37.1846 19.4792" stroke="#37C897"/>
<path d="M35.603 16.6709C35.603 16.6709 34.9381 16.9242 33.9866 17.5225" stroke="#37C897"/>
<path d="M39.5788 21.0002C39.5788 21.0002 36.2742 18.8352 31.1508 15.6762C29.5583 14.6943 26.1277 13.305 25.4277 12.6232C24.7277 11.9414 24.8699 11.6538 24.2344 11.5001C23.5988 11.3464 22.3875 11.7061 22.3875 11.7061" stroke="#37C897"/>
<path d="M27.5 28.5C27.5 28.5 24.1246 26.4682 19.0012 23.3092C13.8778 20.1502 10 18.5 10 18.5" stroke="#37C897"/>
<path d="M13.244 16.8676L7.5 20.1801L24.5 30.0001L41.5 20.1801L24.5 10.3701L22.1582 11.7212" stroke="#12B1D6" stroke-linejoin="round"/>

</svg>
