<svg width="50" height="40" viewBox="0 0 50 40" fill="none" xmlns="http://www.w3.org/2000/svg">
<rect x="0.5" y="0.5" width="48" height="38" rx="1" fill="var(--mw-icon-background-default-white, #FFFFFF)"/>
<rect x="0.5" y="0.5" width="48" height="38" rx="1" stroke="var(--mw-icon-border-default-gray, #616161)"/>
<path fill-rule="evenodd" clip-rule="evenodd" d="M7.00018 6.5C6.72404 6.5 6.50018 6.72385 6.50018 7L6.5 32C6.5 32.2761 6.72386 32.5 7 32.5H42C42.2761 32.5 42.5 32.2761 42.5 32V7C42.5 6.72386 42.2761 6.5 42 6.5H7.00018ZM15 16.5C14.7239 16.5 14.5 16.7239 14.5 17V22C14.5 22.2761 14.7239 22.5 15 22.5H34C34.2761 22.5 34.5 22.2761 34.5 22V17C34.5 16.7239 34.2761 16.5 34 16.5H15Z" fill="#EDB120" stroke="#745A26"/>
</svg>
