<svg width="50" height="40" viewBox="0 0 50 40" fill="none" xmlns="http://www.w3.org/2000/svg">
<rect x="0.5" y="0.5" width="48" height="38" rx="1" fill="var(--mw-icon-background-default-white, #FFFFFF)"/>
<path d="M48.5 1.50003C48.5 1.50003 35.9655 0.82224 31 7.01111C24.3793 15.2629 26.1552 33.5 24.5 33.5C22.8448 33.5 24.5 15.4489 17.8793 7.19711C12.9138 1.00824 0.5 1.5 0.5 1.5" stroke="#0072BD"/>
<rect x="0.5" y="0.5" width="48" height="38" rx="1" stroke="var(--mw-icon-border-default-gray, #616161)"/>
<path d="M19 23.5L14 20.6132V26.3868L19 23.5ZM6 24H14.5V23H6V24Z" fill="#0072BD"/>
<path d="M30 23.5L35 20.6132V26.3868L30 23.5ZM43 24H34.5V23H43V24Z" fill="#0072BD"/>
</svg>
