<svg width="50" height="40" viewBox="0 0 50 40" fill="none" xmlns="http://www.w3.org/2000/svg">
<path d="M0.5 1.5C0.5 0.947716 0.947715 0.5 1.5 0.5H47.5C48.0523 0.5 48.5 0.947715 48.5 1.5V37.5C48.5 38.0523 48.0523 38.5 47.5 38.5H1.5C0.947714 38.5 0.5 38.0523 0.5 37.5V1.5Z" fill="var(--mw-icon-background-default-white, #FFFFFF)"/>
<rect x="0.5" y="0.5" width="48" height="38" rx="1" stroke="var(--mw-icon-border-default-gray, #616161)"/>
<path d="M20 25V12.8824C20 11.0006 20.5021 9.71218 21.5063 9.017C22.5105 8.31584 23.6216 7.96525 24.8397 7.96525C26.0706 7.96525 27.1072 8.28288 27.9495 8.91812C28.7917 9.54737 29.2128 10.3684 29.2128 11.3812C29.2128 12.0404 28.9861 12.6217 28.5326 13.1251C28.079 13.6225 27.5154 13.9491 26.8416 14.105C27.93 14.2728 28.7269 14.7072 29.2323 15.4084C29.7441 16.1036 30 16.8797 30 17.7366C30 18.7914 29.6566 19.6963 28.9699 20.4514C28.2831 21.2065 27.3469 21.5841 26.1613 21.5841C24.7943 21.5841 23.6508 21.0477 22.7308 19.975V25H20ZM23.965 13.5296C24.7943 13.5177 25.4422 13.3349 25.9086 12.9813C26.3751 12.6277 26.6084 12.1782 26.6084 11.6329C26.6084 11.1355 26.4205 10.734 26.0447 10.4283C25.6754 10.1167 25.2284 9.96088 24.7036 9.96088C24.2501 9.96088 23.8614 10.0897 23.5374 10.3474C23.22 10.5991 23.0062 10.9257 22.896 11.3273C22.7859 11.7288 22.7308 12.3161 22.7308 13.0892V15.8039C22.7308 16.619 22.8053 17.2752 22.9543 17.7726C23.1098 18.264 23.4176 18.6895 23.8776 19.0491C24.3375 19.4086 24.8364 19.5884 25.3741 19.5884C25.8925 19.5884 26.3265 19.4116 26.6764 19.0581C27.0262 18.6985 27.2012 18.24 27.2012 17.6827C27.2012 16.8677 26.9355 16.2055 26.4043 15.6961C25.8795 15.1867 25.0664 14.932 23.965 14.932V13.5296Z" fill="var(--mw-icon-glyph-content-light-blue, #278CDD)"/>
<path d="M21.6151 6.65185L23.6559 4H26.1826L28.1943 6.65185H25.998L24.8707 5.31244L23.8211 6.65185H21.6151Z" fill="var(--mw-icon-glyph-content-light-blue, #278CDD)"/>
<path d="M15.6801 28H16.941L18.7976 33.1394L20.6543 28H21.9152L19.304 35H18.2913L15.6801 28ZM15 28H16.256L16.4843 33.0096V35H15V28ZM21.3393 28H22.6003V35H21.111V33.0096L21.3393 28Z" fill="var(--mw-icon-glyph-content-dark-gray, #333333)"/>
<path d="M28.5321 33.875V35H24.8933V33.875H28.5321ZM25.3748 28V35H23.8855V28H25.3748Z" fill="var(--mw-icon-glyph-content-dark-gray, #333333)"/>
<path d="M29.3656 28H32.0612C32.6139 28 33.0888 28.0801 33.4859 28.2404C33.8864 28.4006 34.1941 28.6378 34.4093 28.9519C34.6244 29.266 34.7319 29.6522 34.7319 30.1106C34.7319 30.4856 34.6657 30.8077 34.5334 31.0769C34.4043 31.3429 34.2206 31.5657 33.9823 31.7452C33.7474 31.9215 33.471 32.0625 33.1533 32.1683L32.6817 32.4087H30.3386L30.3286 31.2837H32.0711C32.3325 31.2837 32.5493 31.2388 32.7214 31.149C32.8935 31.0593 33.0226 30.9343 33.1086 30.774C33.198 30.6138 33.2427 30.4279 33.2427 30.2163C33.2427 29.992 33.1996 29.7981 33.1136 29.6346C33.0275 29.4712 32.8968 29.3462 32.7214 29.2596C32.546 29.1731 32.3259 29.1298 32.0612 29.1298H30.8549V35H29.3656V28ZM33.4065 35L31.7583 31.8798L33.332 31.8702L35 34.9327V35H33.4065Z" fill="var(--mw-icon-glyph-content-dark-gray, #333333)"/>
</svg>
