<svg width="50" height="40" viewBox="0 0 50 40" fill="none" xmlns="http://www.w3.org/2000/svg">
<rect x="0.5" y="0.5" width="48" height="38" rx="1" fill="var(--mw-icon-background-default-white, #FFFFFF)"/>
<path d="M3 4C3 3.44771 3.44772 3 4 3H45C45.5523 3 46 3.44772 46 4V35C46 35.5523 45.5523 36 45 36H4C3.44772 36 3 35.5523 3 35V4Z" fill="#2E87F7"/>
<path d="M4 31L3 30.5V35C3 35.5522 3.44772 36 4 36H14.0329L14 35.5V34.5L14.0329 34.0115H10V35H9.5H7V34.5L7.59704 34.0115V33H8L10 31.5V29.5L8 31H4Z" fill="#4852F4"/>
<path d="M39 3V5H40L42 4V3H39Z" fill="#12B1D6"/>
<path d="M34.9672 14.0954L37.7254 12.7697L46.0001 14.0954V35C46.0001 35.5523 45.5523 36 45 36C37.0107 35.9995 29.0215 36 21.0323 36L21 31L20 32H12L7 30V29H22V26H26V24H30V22H33V17H34.9672V14.0954Z" fill="#12B1D6"/>
<path d="M21.8333 15L21 12H26V15H21.8333Z" fill="#12B1D6"/>
<path d="M15 8.5L17.5 9.83333L16.5 11.1667V12.5H15.9L15.5 11.7L13.5 11.1667L15 8.5Z" fill="#12B1D6"/>
<path d="M6 13L10 11.6667V9H8L7 5H6V13Z" fill="#12B1D6"/>
<path d="M3 21.2336L6.67763 22.5592L8.5 22H12V27H9.5L8 26H5V28H3V21.2336Z" fill="#12B1D6"/>
<path d="M12 17H3V19.245L6.03725 20.5707H11.2747L13.1135 19.9079V18.933L18 19V14L14.9522 12.9539V15L12 16V17Z" fill="#12B1D6"/>
<path d="M37.0181 8.96546L8 3H6.67761L24.0816 7.07052L23.2271 8.30262L24.1465 10H26L26.9047 8.96545L30 9V9.5L28.5 10L29 11H30.5L31.5017 10.2911V8.80598L32.841 9.11922L32 9.75V10.5L33 11.25V12H34L35 11.25H37V10.0248L46 11.9737V10.2911L42.5 9.77455V9H41.6151V7.63979H42.5345L43 7V6H38V8L40 9V9.40557L37.0181 8.96546Z" fill="#12B1D6"/>
<path d="M19.0001 3V4.5L33.0001 7V3H19.0001Z" fill="#12B1D6"/>
<path d="M35.25 5.71925V5.17539L36.3816 4.63153H36.9474V5.71925L35.8158 6.26311V6.80697H36.9474V7.89469H35.25L34.6842 7.35083V6.26311L35.8158 5.71925H35.25Z" fill="#12B1D6"/>
<path d="M10 10V7L14 8V10H10Z" fill="#FEC338"/>
<path d="M40 20V21H43V22H45V20H43L42 19H40V17H38L36 20L35.5 18H34V22H36L36.5 21L38 19H39V20H40Z" fill="#FEC338"/>
<path d="M38.9881 36H13.7701L12 36V34H14L14.5582 34.8069H16.1343H17.7104V34.2104H19.2865L20 35H21L21.5 34.5L22 35H24.0149V33.0173L23.5 32.5L24.0149 31H23V30L24.5 29.5L23 28H25L26.5 29.5L25.9851 30L26 31H27.9552L29 30.5V28H26L25.2484 27.3501L25.9851 27.0518H27.1672L26.3791 26.3587H24.803L26.3791 25.1656L27.9552 25.7622L30.3194 27.6484H31.8956V26.4553H30.3194V25.2622H32.6836L33.4717 24.0691L35.0478 24.6656V28H36.6239L37 27.5L38.9881 28.2449L38.5 29L36.5 29.5L36 30.5H37.5L38.9881 30.0346H42V29H44.3642L45.2927 30.6311L45 31H40V33L42 33.5V34H38.9881V36Z" fill="#37C897"/>
<rect x="0.5" y="0.5" width="48" height="38" rx="1" stroke="var(--mw-icon-border-default-gray, #616161)"/>
</svg>
