<svg width="50" height="40" viewBox="0 0 50 40" fill="none" xmlns="http://www.w3.org/2000/svg">
<rect x="0.5" y="0.5" width="48" height="38" rx="1" fill="var(--mw-icon-background-default-white, #FFFFFF)" stroke="var(--mw-icon-border-default-gray, #616161)"/>
<path d="M18 12H17V11H20V12H19L19 27H20V28H17V27H18L18 12Z" fill="var(--mw-icon-glyph-content-dark-gray, #333333)"/>
<circle cx="18.5" cy="19.5" r="2" fill="#D95319" stroke="var(--mw-icon-glyph-content-dark-gray, #333333)"/>
<path fill-rule="evenodd" clip-rule="evenodd" d="M7 19H6V18H9V19H8L8 28L9 28V29H6V28L7 28L7 19Z" fill="var(--mw-icon-glyph-content-dark-gray, #333333)"/>
<path d="M29 10H28V9H31V10H30L30 29H31V30H28V29H29L29 10Z" fill="var(--mw-icon-glyph-content-dark-gray, #333333)"/>
<path d="M40 23H39V22H42V23H41V30H42V31H39V30H40V23Z" fill="var(--mw-icon-glyph-content-dark-gray, #333333)"/>
<circle cx="7.5" cy="23.5" r="2" fill="#D95319" stroke="var(--mw-icon-glyph-content-dark-gray, #333333)"/>
<circle cx="29.5" cy="18.5" r="2" fill="#D95319" stroke="var(--mw-icon-glyph-content-dark-gray, #333333)"/>
<circle cx="40.5" cy="26.5" r="2" fill="#D95319" stroke="var(--mw-icon-glyph-content-dark-gray, #333333)"/>
</svg>
