<svg width="50" height="40" viewBox="0 0 50 40" fill="none" xmlns="http://www.w3.org/2000/svg">
<path d="M5.5 27V12L24.5 1L43.5 12V27L24.5 38L5.5 27Z" fill="var(--mw-icon-background-default-white, #FFFFFF)"/>
<path d="M24.5 16.5L24.5058 1.58362L43.0197 12.2539V27.1225L24.5 16.5Z" fill="var(--mw-icon-background-default-light-gray, #F5F5F5)"/>
<path d="M24.5 16.5L24.4942 1.58362L5.98034 12.2675L5.98034 27.1225L24.5 16.5Z" fill="#E6E6E6"/>
<path d="M43.5 27V11.959L24.5 1L5.5 11.97" stroke="#BFBFBF" stroke-linecap="round" stroke-linejoin="round"/>
<path d="M5.5 12V27.03L24.5 38L43.5 27.0352" stroke="var(--mw-icon-border-default-gray, #616161)" stroke-linecap="round" stroke-linejoin="round"/>
<path d="M33.4853 20.0502L25 25M33.4853 29.9497L25 25M16.5148 29.9497L25 25M16.5148 20.0502L25 25M25 25L25 18M25 25L25 32M25 25H37M25 25L13 25" stroke="#745A26" stroke-width="2" stroke-linecap="round"/>
<path d="M24 10C24 9.44773 24.4477 9.00001 25 9.00001V9.00001C25.5523 9 26 9.44772 26 10V24.5C26 25.0523 25.5523 25.5 25 25.5V25.5C24.4477 25.5 24 25.0523 24 24.5V10Z" fill="#B3882A"/>
</svg>
