<svg width="51" height="40" viewBox="0 0 51 40" fill="none" xmlns="http://www.w3.org/2000/svg">
<path d="M5.5 27V12L24.5 1L43.5 12V27L24.5 38L5.5 27Z" fill="var(--mw-icon-background-default-white, #FFFFFF)"/>
<path d="M24.5 16.5L24.5058 1.58362L43.0197 12.2539V27.1225L24.5 16.5Z" fill="var(--mw-icon-background-default-light-gray, #F5F5F5)"/>
<path d="M24.5 16.5L24.4942 1.58362L5.98034 12.2675L5.98034 27.1225L24.5 16.5Z" fill="#E6E6E6"/>
<path d="M43.5 27V11.959L24.5 1L5.5 11.97" stroke="#BFBFBF" stroke-linecap="round" stroke-linejoin="round"/>
<path d="M5.5 12V27.03L24.5 38L43.5 27.0352" stroke="var(--mw-icon-border-default-gray, #616161)" stroke-linecap="round" stroke-linejoin="round"/>
<path d="M8 22.5L24.5 13L41 22.5L24.5 32L8 22.5Z" fill="#EDB120" stroke="#745A26" stroke-linejoin="round"/>
<path d="M22.5011 7.66162H26.4996V22.1302C26.4997 23.9567 22.4241 23.9567 22.5011 22.1302V7.66162Z" fill="#EDB120" stroke="#745A26" stroke-linejoin="round"/>
<ellipse cx="24.4998" cy="7.77169" rx="1.99984" ry="1.27169" fill="#EDB120" stroke="#745A26" stroke-linejoin="round"/>
</svg>
