<svg width="50" height="40" viewBox="0 0 50 40" fill="none" xmlns="http://www.w3.org/2000/svg">
<path d="M5.5 27V12L24.5 1L43.5 12V27L24.5 38L5.5 27Z" fill="var(--mw-icon-background-default-white, #FFFFFF)"/>
<path d="M24.5 16.5L24.5058 1.58362L43.0197 12.2539V27.1225L24.5 16.5Z" fill="var(--mw-icon-background-default-light-gray, #F5F5F5)"/>
<path d="M24.5 16.5L24.4942 1.58362L5.98034 12.2675L5.98034 27.1225L24.5 16.5Z" fill="#E6E6E6"/>
<path d="M43.5 27V11.959L24.5 1L5.5 11.97" stroke="#BFBFBF" stroke-linecap="round" stroke-linejoin="round"/>
<path d="M5.5 12V27.03L24.5 38L43.5 27.0352" stroke="var(--mw-icon-border-default-gray, #616161)" stroke-linecap="round" stroke-linejoin="round"/>
<path d="M34.5459 17.477C39.818 20.1131 39.818 24.3869 34.5459 27.023C29.2739 29.659 20.7261 29.659 15.4541 27.023C10.182 24.3869 10.182 20.1131 15.4541 17.477C20.7261 14.841 29.2739 14.841 34.5459 17.477Z" fill="#EDB120" stroke="#745A26"/>
<mask id="path-7-inside-1_20058_216056" fill="white">
<path fill-rule="evenodd" clip-rule="evenodd" d="M31 14.8986H19V21.4735C19 21.4736 19 21.4737 19 21.4738C19.0005 22.518 21.6586 23.9999 24.972 23.9999C28.2857 23.9999 31 22.5177 31 21.4735C31 21.4729 31 21.4722 31 21.4716V14.8986Z"/>
</mask>
<path fill-rule="evenodd" clip-rule="evenodd" d="M31 14.8986H19V21.4735C19 21.4736 19 21.4737 19 21.4738C19.0005 22.518 21.6586 23.9999 24.972 23.9999C28.2857 23.9999 31 22.5177 31 21.4735C31 21.4729 31 21.4722 31 21.4716V14.8986Z" fill="#EDB120"/>
<path d="M19 14.8986V13.8986H18V14.8986H19ZM31 14.8986H32V13.8986H31V14.8986ZM19 21.4738H18L18 21.4743L19 21.4738ZM31 21.4716H30L30 21.4747L31 21.4716ZM19 15.8986H31V13.8986H19V15.8986ZM20 21.4735V14.8986H18V21.4735H20ZM20 21.4738V21.4738C20 21.4738 20 21.4738 20 21.4738C20 21.4738 20 21.4738 20 21.4738V21.4738V21.4738C20 21.4738 20 21.4738 20 21.4738C20 21.4738 20 21.4738 20 21.4738V21.4738V21.4738C20 21.4738 20 21.4738 20 21.4738C20 21.4738 20 21.4738 20 21.4738V21.4738V21.4738C20 21.4738 20 21.4738 20 21.4738C20 21.4738 20 21.4738 20 21.4738V21.4738V21.4738C20 21.4738 20 21.4738 20 21.4738C20 21.4738 20 21.4738 20 21.4738V21.4738V21.4738C20 21.4738 20 21.4738 20 21.4738C20 21.4738 20 21.4738 20 21.4738V21.4738V21.4738C20 21.4738 20 21.4738 20 21.4738C20 21.4738 20 21.4738 20 21.4738V21.4738V21.4738C20 21.4738 20 21.4738 20 21.4738C20 21.4738 20 21.4738 20 21.4738V21.4738V21.4738C20 21.4738 20 21.4738 20 21.4738C20 21.4738 20 21.4738 20 21.4738V21.4738V21.4738C20 21.4738 20 21.4738 20 21.4738C20 21.4738 20 21.4738 20 21.4738V21.4738V21.4738C20 21.4738 20 21.4738 20 21.4738C20 21.4738 20 21.4738 20 21.4738C20 21.4738 20 21.4738 20 21.4738V21.4738C20 21.4738 20 21.4738 20 21.4738C20 21.4738 20 21.4738 20 21.4738C20 21.4738 20 21.4738 20 21.4738V21.4738C20 21.4738 20 21.4738 20 21.4738C20 21.4737 20 21.4737 20 21.4737C20 21.4737 20 21.4737 20 21.4737V21.4737C20 21.4737 20 21.4737 20 21.4737C20 21.4737 20 21.4737 20 21.4737C20 21.4737 20 21.4737 20 21.4737V21.4737C20 21.4737 20 21.4737 20 21.4737C20 21.4737 20 21.4737 20 21.4737C20 21.4737 20 21.4737 20 21.4737V21.4737C20 21.4737 20 21.4737 20 21.4737C20 21.4737 20 21.4737 20 21.4737C20 21.4737 20 21.4737 20 21.4737V21.4737C20 21.4737 20 21.4737 20 21.4737C20 21.4737 20 21.4737 20 21.4737C20 21.4737 20 21.4737 20 21.4737V21.4737C20 21.4737 20 21.4737 20 21.4737C20 21.4737 20 21.4737 20 21.4737C20 21.4737 20 21.4737 20 21.4737V21.4737C20 21.4737 20 21.4737 20 21.4737C20 21.4737 20 21.4737 20 21.4737C20 21.4737 20 21.4737 20 21.4737V21.4737C20 21.4737 20 21.4737 20 21.4737C20 21.4737 20 21.4737 20 21.4737C20 21.4737 20 21.4737 20 21.4737V21.4737C20 21.4737 20 21.4737 20 21.4737C20 21.4737 20 21.4737 20 21.4737C20 21.4737 20 21.4737 20 21.4737V21.4737V21.4737C20 21.4737 20 21.4737 20 21.4737C20 21.4737 20 21.4737 20 21.4737V21.4737V21.4737C20 21.4737 20 21.4737 20 21.4737C20 21.4737 20 21.4737 20 21.4737V21.4737V21.4737C20 21.4737 20 21.4737 20 21.4737C20 21.4737 20 21.4737 20 21.4737V21.4737V21.4737C20 21.4737 20 21.4737 20 21.4737C20 21.4737 20 21.4737 20 21.4737V21.4737V21.4737C20 21.4737 20 21.4737 20 21.4737C20 21.4737 20 21.4737 20 21.4737V21.4737V21.4737C20 21.4737 20 21.4737 20 21.4737C20 21.4737 20 21.4737 20 21.4737V21.4737V21.4737C20 21.4737 20 21.4737 20 21.4737C20 21.4737 20 21.4737 20 21.4737V21.4737V21.4737C20 21.4737 20 21.4737 20 21.4737C20 21.4737 20 21.4737 20 21.4737V21.4737V21.4737C20 21.4737 20 21.4737 20 21.4737C20 21.4737 20 21.4737 20 21.4737V21.4737V21.4737C20 21.4737 20 21.4737 20 21.4737C20 21.4737 20 21.4737 20 21.4737V21.4737V21.4737C20 21.4737 20 21.4737 20 21.4737C20 21.4737 20 21.4737 20 21.4737V21.4737V21.4737C20 21.4737 20 21.4737 20 21.4737C20 21.4737 20 21.4737 20 21.4737V21.4737V21.4737C20 21.4737 20 21.4737 20 21.4737C20 21.4737 20 21.4737 20 21.4737V21.4737V21.4737C20 21.4737 20 21.4737 20 21.4737C20 21.4737 20 21.4737 20 21.4737V21.4737V21.4737C20 21.4737 20 21.4737 20 21.4737C20 21.4737 20 21.4737 20 21.4737V21.4737V21.4737C20 21.4737 20 21.4737 20 21.4737C20 21.4737 20 21.4737 20 21.4737V21.4737V21.4737C20 21.4737 20 21.4737 20 21.4737C20 21.4737 20 21.4737 20 21.4737V21.4737V21.4737C20 21.4737 20 21.4737 20 21.4737C20 21.4737 20 21.4737 20 21.4737V21.4737V21.4737C20 21.4737 20 21.4737 20 21.4737C20 21.4737 20 21.4737 20 21.4737V21.4737V21.4737C20 21.4737 20 21.4737 20 21.4737C20 21.4737 20 21.4737 20 21.4737V21.4737V21.4737C20 21.4737 20 21.4737 20 21.4737C20 21.4737 20 21.4737 20 21.4737V21.4737V21.4737C20 21.4737 20 21.4737 20 21.4737C20 21.4737 20 21.4737 20 21.4737C20 21.4737 20 21.4737 20 21.4737V21.4737C20 21.4737 20 21.4737 20 21.4737C20 21.4737 20 21.4737 20 21.4737C20 21.4737 20 21.4737 20 21.4737V21.4737C20 21.4737 20 21.4737 20 21.4737C20 21.4737 20 21.4737 20 21.4737C20 21.4737 20 21.4737 20 21.4737V21.4737C20 21.4737 20 21.4737 20 21.4737C20 21.4737 20 21.4737 20 21.4737C20 21.4737 20 21.4737 20 21.4737V21.4737C20 21.4737 20 21.4737 20 21.4737C20 21.4737 20 21.4737 20 21.4737C20 21.4737 20 21.4737 20 21.4737V21.4737C20 21.4737 20 21.4737 20 21.4737C20 21.4737 20 21.4737 20 21.4737C20 21.4737 20 21.4737 20 21.4737V21.4737C20 21.4737 20 21.4737 20 21.4737C20 21.4737 20 21.4737 20 21.4737C20 21.4737 20 21.4737 20 21.4737V21.4737C20 21.4737 20 21.4737 20 21.4737C20 21.4737 20 21.4737 20 21.4737C20 21.4737 20 21.4737 20 21.4737V21.4737C20 21.4737 20 21.4737 20 21.4737C20 21.4737 20 21.4737 20 21.4737C20 21.4737 20 21.4737 20 21.4737V21.4737C20 21.4737 20 21.4737 20 21.4737C20 21.4737 20 21.4737 20 21.4737C20 21.4737 20 21.4737 20 21.4737V21.4737C20 21.4737 20 21.4737 20 21.4737C20 21.4737 20 21.4737 20 21.4737C20 21.4737 20 21.4737 20 21.4737V21.4737V21.4737C20 21.4737 20 21.4737 20 21.4737C20 21.4737 20 21.4737 20 21.4737V21.4736V21.4736C20 21.4736 20 21.4736 20 21.4736C20 21.4736 20 21.4736 20 21.4736V21.4736V21.4736C20 21.4736 20 21.4736 20 21.4736C20 21.4736 20 21.4736 20 21.4736V21.4736V21.4736C20 21.4736 20 21.4736 20 21.4736C20 21.4736 20 21.4736 20 21.4736V21.4736V21.4736C20 21.4736 20 21.4736 20 21.4736C20 21.4736 20 21.4736 20 21.4736V21.4736V21.4736C20 21.4736 20 21.4736 20 21.4736C20 21.4736 20 21.4736 20 21.4736V21.4736V21.4736C20 21.4736 20 21.4736 20 21.4736C20 21.4736 20 21.4736 20 21.4736V21.4736V21.4736C20 21.4736 20 21.4736 20 21.4736C20 21.4736 20 21.4736 20 21.4736V21.4736V21.4736C20 21.4736 20 21.4736 20 21.4736C20 21.4736 20 21.4736 20 21.4736V21.4736V21.4736C20 21.4736 20 21.4736 20 21.4736C20 21.4736 20 21.4736 20 21.4736V21.4736V21.4736C20 21.4736 20 21.4736 20 21.4736C20 21.4736 20 21.4736 20 21.4736V21.4736V21.4736C20 21.4736 20 21.4736 20 21.4736C20 21.4736 20 21.4736 20 21.4736V21.4736V21.4736C20 21.4736 20 21.4736 20 21.4736C20 21.4736 20 21.4736 20 21.4736V21.4736V21.4736C20 21.4736 20 21.4736 20 21.4736C20 21.4736 20 21.4736 20 21.4736V21.4736V21.4736C20 21.4736 20 21.4736 20 21.4736C20 21.4736 20 21.4736 20 21.4736V21.4736V21.4736C20 21.4736 20 21.4736 20 21.4736C20 21.4736 20 21.4736 20 21.4736V21.4736V21.4736C20 21.4736 20 21.4736 20 21.4736C20 21.4736 20 21.4736 20 21.4736V21.4736V21.4736C20 21.4736 20 21.4736 20 21.4736C20 21.4736 20 21.4736 20 21.4736V21.4736V21.4736C20 21.4736 20 21.4736 20 21.4736C20 21.4736 20 21.4736 20 21.4736V21.4736V21.4736C20 21.4736 20 21.4736 20 21.4736C20 21.4736 20 21.4736 20 21.4736V21.4736V21.4736C20 21.4736 20 21.4736 20 21.4736C20 21.4736 20 21.4736 20 21.4736V21.4736V21.4736C20 21.4736 20 21.4736 20 21.4736C20 21.4736 20 21.4736 20 21.4736C20 21.4736 20 21.4736 20 21.4736V21.4736C20 21.4736 20 21.4736 20 21.4736C20 21.4736 20 21.4736 20 21.4736C20 21.4736 20 21.4736 20 21.4736V21.4736C20 21.4736 20 21.4736 20 21.4736C20 21.4736 20 21.4736 20 21.4736C20 21.4736 20 21.4736 20 21.4736V21.4736C20 21.4736 20 21.4736 20 21.4736C20 21.4736 20 21.4736 20 21.4736C20 21.4736 20 21.4736 20 21.4736V21.4736C20 21.4736 20 21.4736 20 21.4736C20 21.4736 20 21.4736 20 21.4736C20 21.4736 20 21.4736 20 21.4736V21.4736C20 21.4736 20 21.4736 20 21.4736C20 21.4736 20 21.4736 20 21.4736C20 21.4736 20 21.4736 20 21.4736V21.4736C20 21.4736 20 21.4736 20 21.4736C20 21.4736 20 21.4736 20 21.4736C20 21.4736 20 21.4736 20 21.4736V21.4736C20 21.4736 20 21.4736 20 21.4736C20 21.4736 20 21.4736 20 21.4736C20 21.4736 20 21.4736 20 21.4736V21.4736C20 21.4736 20 21.4736 20 21.4736C20 21.4736 20 21.4736 20 21.4736C20 21.4736 20 21.4736 20 21.4736V21.4736C20 21.4736 20 21.4736 20 21.4736C20 21.4736 20 21.4736 20 21.4736C20 21.4736 20 21.4736 20 21.4736V21.4736C20 21.4736 20 21.4736 20 21.4736C20 21.4736 20 21.4736 20 21.4736C20 21.4736 20 21.4736 20 21.4736V21.4736V21.4736C20 21.4736 20 21.4736 20 21.4736C20 21.4736 20 21.4736 20 21.4736V21.4736V21.4736C20 21.4736 20 21.4736 20 21.4736C20 21.4736 20 21.4736 20 21.4736V21.4736V21.4736C20 21.4736 20 21.4736 20 21.4736C20 21.4736 20 21.4736 20 21.4736V21.4736V21.4736C20 21.4736 20 21.4736 20 21.4736C20 21.4736 20 21.4736 20 21.4736V21.4736V21.4736C20 21.4736 20 21.4736 20 21.4736C20 21.4736 20 21.4736 20 21.4736V21.4736V21.4736C20 21.4736 20 21.4736 20 21.4736C20 21.4736 20 21.4736 20 21.4736V21.4736V21.4736C20 21.4736 20 21.4736 20 21.4736C20 21.4736 20 21.4736 20 21.4736V21.4736V21.4736C20 21.4736 20 21.4736 20 21.4736C20 21.4736 20 21.4736 20 21.4736V21.4736V21.4736C20 21.4736 20 21.4736 20 21.4736C20 21.4736 20 21.4736 20 21.4736V21.4736V21.4736C20 21.4736 20 21.4736 20 21.4736C20 21.4736 20 21.4736 20 21.4736V21.4736V21.4736C20 21.4736 20 21.4736 20 21.4736C20 21.4736 20 21.4736 20 21.4735V21.4735V21.4735C20 21.4735 20 21.4735 20 21.4735C20 21.4735 20 21.4735 20 21.4735V21.4735V21.4735C20 21.4735 20 21.4735 20 21.4735C20 21.4735 20 21.4735 20 21.4735V21.4735V21.4735C20 21.4735 20 21.4735 20 21.4735C20 21.4735 20 21.4735 20 21.4735V21.4735V21.4735C20 21.4735 20 21.4735 20 21.4735C20 21.4735 20 21.4735 20 21.4735V21.4735V21.4735C20 21.4735 20 21.4735 20 21.4735C20 21.4735 20 21.4735 20 21.4735V21.4735V21.4735C20 21.4735 20 21.4735 20 21.4735C20 21.4735 20 21.4735 20 21.4735V21.4735V21.4735C20 21.4735 20 21.4735 20 21.4735C20 21.4735 20 21.4735 20 21.4735V21.4735V21.4735C20 21.4735 20 21.4735 20 21.4735C20 21.4735 20 21.4735 20 21.4735V21.4735V21.4735C20 21.4735 20 21.4735 20 21.4735C20 21.4735 20 21.4735 20 21.4735V21.4735V21.4735C20 21.4735 20 21.4735 20 21.4735C20 21.4735 20 21.4735 20 21.4735C20 21.4735 20 21.4735 20 21.4735V21.4735C20 21.4735 20 21.4735 20 21.4735C20 21.4735 20 21.4735 20 21.4735C20 21.4735 20 21.4735 20 21.4735V21.4735C20 21.4735 20 21.4735 20 21.4735C20 21.4735 20 21.4735 20 21.4735C20 21.4735 20 21.4735 20 21.4735V21.4735C20 21.4735 20 21.4735 20 21.4735C20 21.4735 20 21.4735 20 21.4735C20 21.4735 20 21.4735 20 21.4735V21.4735C20 21.4735 20 21.4735 20 21.4735C20 21.4735 20 21.4735 20 21.4735C20 21.4735 20 21.4735 20 21.4735V21.4735C20 21.4735 20 21.4735 20 21.4735C20 21.4735 20 21.4735 20 21.4735C20 21.4735 20 21.4735 20 21.4735V21.4735C20 21.4735 20 21.4735 20 21.4735C20 21.4735 20 21.4735 20 21.4735C20 21.4735 20 21.4735 20 21.4735V21.4735C20 21.4735 20 21.4735 20 21.4735C20 21.4735 20 21.4735 20 21.4735C20 21.4735 20 21.4735 20 21.4735V21.4735C20 21.4735 20 21.4735 20 21.4735C20 21.4735 20 21.4735 20 21.4735C20 21.4735 20 21.4735 20 21.4735V21.4735C20 21.4735 20 21.4735 20 21.4735C20 21.4735 20 21.4735 20 21.4735C20 21.4735 20 21.4735 20 21.4735V21.4735C20 21.4735 20 21.4735 20 21.4735C20 21.4735 20 21.4735 20 21.4735C20 21.4735 20 21.4735 20 21.4735V21.4735C20 21.4735 20 21.4735 20 21.4735C20 21.4735 20 21.4735 20 21.4735C20 21.4735 20 21.4735 20 21.4735V21.4735V21.4735C20 21.4735 20 21.4735 20 21.4735C20 21.4735 20 21.4735 20 21.4735V21.4735V21.4735C20 21.4735 20 21.4735 20 21.4735C20 21.4735 20 21.4735 20 21.4735V21.4735V21.4735C20 21.4735 20 21.4735 20 21.4735C20 21.4735 20 21.4735 20 21.4735V21.4735V21.4735C20 21.4735 20 21.4735 20 21.4735C20 21.4735 20 21.4735 20 21.4735V21.4735V21.4735C20 21.4735 20 21.4735 20 21.4735C20 21.4735 20 21.4735 20 21.4735V21.4735V21.4735C20 21.4735 20 21.4735 20 21.4735C20 21.4735 20 21.4735 20 21.4735V21.4735V21.4735C20 21.4735 20 21.4735 20 21.4735C20 21.4735 20 21.4735 20 21.4735V21.4735V21.4735C20 21.4735 20 21.4735 20 21.4735C20 21.4735 20 21.4735 20 21.4735V21.4735V21.4735C20 21.4735 20 21.4735 20 21.4735C20 21.4735 20 21.4735 20 21.4735V21.4735V21.4735C20 21.4735 20 21.4735 20 21.4735C20 21.4735 20 21.4735 20 21.4735V21.4735H18V21.4735C18 21.4735 18 21.4735 18 21.4735C18 21.4735 18 21.4735 18 21.4735V21.4735V21.4735C18 21.4735 18 21.4735 18 21.4735C18 21.4735 18 21.4735 18 21.4735V21.4735V21.4735C18 21.4735 18 21.4735 18 21.4735C18 21.4735 18 21.4735 18 21.4735V21.4735V21.4735C18 21.4735 18 21.4735 18 21.4735C18 21.4735 18 21.4735 18 21.4735V21.4735V21.4735C18 21.4735 18 21.4735 18 21.4735C18 21.4735 18 21.4735 18 21.4735V21.4735V21.4735C18 21.4735 18 21.4735 18 21.4735C18 21.4735 18 21.4735 18 21.4735V21.4735V21.4735C18 21.4735 18 21.4735 18 21.4735C18 21.4735 18 21.4735 18 21.4735V21.4735V21.4735C18 21.4735 18 21.4735 18 21.4735C18 21.4735 18 21.4735 18 21.4735V21.4735V21.4735C18 21.4735 18 21.4735 18 21.4735C18 21.4735 18 21.4735 18 21.4735V21.4735V21.4735C18 21.4735 18 21.4735 18 21.4735C18 21.4735 18 21.4735 18 21.4735V21.4735V21.4735C18 21.4735 18 21.4735 18 21.4735C18 21.4735 18 21.4735 18 21.4735C18 21.4735 18 21.4735 18 21.4735V21.4735C18 21.4735 18 21.4735 18 21.4735C18 21.4735 18 21.4735 18 21.4735C18 21.4735 18 21.4735 18 21.4735V21.4735C18 21.4735 18 21.4735 18 21.4735C18 21.4735 18 21.4735 18 21.4735C18 21.4735 18 21.4735 18 21.4735V21.4735C18 21.4735 18 21.4735 18 21.4735C18 21.4735 18 21.4735 18 21.4735C18 21.4735 18 21.4735 18 21.4735V21.4735C18 21.4735 18 21.4735 18 21.4735C18 21.4735 18 21.4735 18 21.4735C18 21.4735 18 21.4735 18 21.4735V21.4735C18 21.4735 18 21.4735 18 21.4735C18 21.4735 18 21.4735 18 21.4735C18 21.4735 18 21.4735 18 21.4735V21.4735C18 21.4735 18 21.4735 18 21.4735C18 21.4735 18 21.4735 18 21.4735C18 21.4735 18 21.4735 18 21.4735V21.4735C18 21.4735 18 21.4735 18 21.4735C18 21.4735 18 21.4735 18 21.4735C18 21.4735 18 21.4735 18 21.4735V21.4735C18 21.4735 18 21.4735 18 21.4735C18 21.4735 18 21.4735 18 21.4735C18 21.4735 18 21.4735 18 21.4735V21.4735C18 21.4735 18 21.4735 18 21.4735C18 21.4735 18 21.4735 18 21.4735C18 21.4735 18 21.4735 18 21.4735V21.4735C18 21.4735 18 21.4735 18 21.4735C18 21.4735 18 21.4735 18 21.4735C18 21.4735 18 21.4735 18 21.4735V21.4735C18 21.4735 18 21.4735 18 21.4735C18 21.4735 18 21.4735 18 21.4735C18 21.4735 18 21.4735 18 21.4735V21.4735V21.4735C18 21.4735 18 21.4735 18 21.4735C18 21.4735 18 21.4735 18 21.4735V21.4735V21.4735C18 21.4735 18 21.4735 18 21.4735C18 21.4735 18 21.4735 18 21.4735V21.4735V21.4735C18 21.4735 18 21.4735 18 21.4735C18 21.4735 18 21.4735 18 21.4735V21.4735V21.4735C18 21.4735 18 21.4735 18 21.4735C18 21.4735 18 21.4735 18 21.4735V21.4735V21.4735C18 21.4735 18 21.4735 18 21.4735C18 21.4735 18 21.4735 18 21.4735V21.4735V21.4735C18 21.4735 18 21.4735 18 21.4735C18 21.4735 18 21.4735 18 21.4735V21.4735V21.4735C18 21.4735 18 21.4735 18 21.4735C18 21.4735 18 21.4735 18 21.4735V21.4735V21.4735C18 21.4735 18 21.4735 18 21.4735C18 21.4735 18 21.4735 18 21.4735V21.4735V21.4735C18 21.4735 18 21.4735 18 21.4735C18 21.4735 18 21.4735 18 21.4735V21.4735V21.4735C18 21.4736 18 21.4736 18 21.4736C18 21.4736 18 21.4736 18 21.4736V21.4736V21.4736C18 21.4736 18 21.4736 18 21.4736C18 21.4736 18 21.4736 18 21.4736V21.4736V21.4736C18 21.4736 18 21.4736 18 21.4736C18 21.4736 18 21.4736 18 21.4736V21.4736V21.4736C18 21.4736 18 21.4736 18 21.4736C18 21.4736 18 21.4736 18 21.4736V21.4736V21.4736C18 21.4736 18 21.4736 18 21.4736C18 21.4736 18 21.4736 18 21.4736V21.4736V21.4736C18 21.4736 18 21.4736 18 21.4736C18 21.4736 18 21.4736 18 21.4736V21.4736V21.4736C18 21.4736 18 21.4736 18 21.4736C18 21.4736 18 21.4736 18 21.4736V21.4736V21.4736C18 21.4736 18 21.4736 18 21.4736C18 21.4736 18 21.4736 18 21.4736V21.4736V21.4736C18 21.4736 18 21.4736 18 21.4736C18 21.4736 18 21.4736 18 21.4736V21.4736V21.4736C18 21.4736 18 21.4736 18 21.4736C18 21.4736 18 21.4736 18 21.4736V21.4736V21.4736C18 21.4736 18 21.4736 18 21.4736C18 21.4736 18 21.4736 18 21.4736V21.4736V21.4736C18 21.4736 18 21.4736 18 21.4736C18 21.4736 18 21.4736 18 21.4736C18 21.4736 18 21.4736 18 21.4736V21.4736C18 21.4736 18 21.4736 18 21.4736C18 21.4736 18 21.4736 18 21.4736C18 21.4736 18 21.4736 18 21.4736V21.4736C18 21.4736 18 21.4736 18 21.4736C18 21.4736 18 21.4736 18 21.4736C18 21.4736 18 21.4736 18 21.4736V21.4736C18 21.4736 18 21.4736 18 21.4736C18 21.4736 18 21.4736 18 21.4736C18 21.4736 18 21.4736 18 21.4736V21.4736C18 21.4736 18 21.4736 18 21.4736C18 21.4736 18 21.4736 18 21.4736C18 21.4736 18 21.4736 18 21.4736V21.4736C18 21.4736 18 21.4736 18 21.4736C18 21.4736 18 21.4736 18 21.4736C18 21.4736 18 21.4736 18 21.4736V21.4736C18 21.4736 18 21.4736 18 21.4736C18 21.4736 18 21.4736 18 21.4736C18 21.4736 18 21.4736 18 21.4736V21.4736C18 21.4736 18 21.4736 18 21.4736C18 21.4736 18 21.4736 18 21.4736C18 21.4736 18 21.4736 18 21.4736V21.4736C18 21.4736 18 21.4736 18 21.4736C18 21.4736 18 21.4736 18 21.4736C18 21.4736 18 21.4736 18 21.4736V21.4736C18 21.4736 18 21.4736 18 21.4736C18 21.4736 18 21.4736 18 21.4736C18 21.4736 18 21.4736 18 21.4736V21.4736C18 21.4736 18 21.4736 18 21.4736C18 21.4736 18 21.4736 18 21.4736C18 21.4736 18 21.4736 18 21.4736V21.4736V21.4736C18 21.4736 18 21.4736 18 21.4736C18 21.4736 18 21.4736 18 21.4736V21.4736V21.4736C18 21.4736 18 21.4736 18 21.4736C18 21.4736 18 21.4736 18 21.4736V21.4736V21.4736C18 21.4736 18 21.4736 18 21.4736C18 21.4736 18 21.4736 18 21.4736V21.4736V21.4736C18 21.4736 18 21.4736 18 21.4736C18 21.4736 18 21.4736 18 21.4736V21.4736V21.4736C18 21.4736 18 21.4736 18 21.4736C18 21.4736 18 21.4736 18 21.4736V21.4736V21.4736C18 21.4736 18 21.4736 18 21.4736C18 21.4736 18 21.4736 18 21.4736V21.4736V21.4736C18 21.4736 18 21.4736 18 21.4736C18 21.4736 18 21.4736 18 21.4736V21.4736V21.4736C18 21.4736 18 21.4736 18 21.4736C18 21.4736 18 21.4736 18 21.4736V21.4736V21.4736C18 21.4736 18 21.4736 18 21.4736C18 21.4736 18 21.4736 18 21.4736V21.4736V21.4736C18 21.4736 18 21.4736 18 21.4736C18 21.4736 18 21.4736 18 21.4736V21.4736V21.4736C18 21.4736 18 21.4736 18 21.4736C18 21.4736 18 21.4736 18 21.4736V21.4736V21.4736C18 21.4736 18 21.4736 18 21.4736C18 21.4736 18 21.4736 18 21.4736V21.4736V21.4736C18 21.4736 18 21.4736 18 21.4736C18 21.4736 18 21.4736 18 21.4736V21.4736V21.4736C18 21.4736 18 21.4736 18 21.4736C18 21.4736 18 21.4736 18 21.4736V21.4736V21.4736C18 21.4736 18 21.4736 18 21.4736C18 21.4736 18 21.4736 18 21.4736V21.4736V21.4736C18 21.4736 18 21.4736 18 21.4736C18 21.4736 18 21.4736 18 21.4736V21.4736V21.4736C18 21.4736 18 21.4736 18 21.4736C18 21.4736 18 21.4736 18 21.4736V21.4736V21.4736C18 21.4736 18 21.4736 18 21.4736C18 21.4736 18 21.4736 18 21.4736V21.4736V21.4736C18 21.4736 18 21.4736 18 21.4736C18 21.4736 18 21.4736 18 21.4736V21.4736V21.4736C18 21.4736 18 21.4736 18 21.4736C18 21.4736 18 21.4736 18 21.4736V21.4736V21.4737C18 21.4737 18 21.4737 18 21.4737C18 21.4737 18 21.4737 18 21.4737V21.4737V21.4737C18 21.4737 18 21.4737 18 21.4737C18 21.4737 18 21.4737 18 21.4737C18 21.4737 18 21.4737 18 21.4737V21.4737C18 21.4737 18 21.4737 18 21.4737C18 21.4737 18 21.4737 18 21.4737C18 21.4737 18 21.4737 18 21.4737V21.4737C18 21.4737 18 21.4737 18 21.4737C18 21.4737 18 21.4737 18 21.4737C18 21.4737 18 21.4737 18 21.4737V21.4737C18 21.4737 18 21.4737 18 21.4737C18 21.4737 18 21.4737 18 21.4737C18 21.4737 18 21.4737 18 21.4737V21.4737C18 21.4737 18 21.4737 18 21.4737C18 21.4737 18 21.4737 18 21.4737C18 21.4737 18 21.4737 18 21.4737V21.4737C18 21.4737 18 21.4737 18 21.4737C18 21.4737 18 21.4737 18 21.4737C18 21.4737 18 21.4737 18 21.4737V21.4737C18 21.4737 18 21.4737 18 21.4737C18 21.4737 18 21.4737 18 21.4737C18 21.4737 18 21.4737 18 21.4737V21.4737C18 21.4737 18 21.4737 18 21.4737C18 21.4737 18 21.4737 18 21.4737C18 21.4737 18 21.4737 18 21.4737V21.4737C18 21.4737 18 21.4737 18 21.4737C18 21.4737 18 21.4737 18 21.4737C18 21.4737 18 21.4737 18 21.4737V21.4737C18 21.4737 18 21.4737 18 21.4737C18 21.4737 18 21.4737 18 21.4737C18 21.4737 18 21.4737 18 21.4737V21.4737C18 21.4737 18 21.4737 18 21.4737C18 21.4737 18 21.4737 18 21.4737C18 21.4737 18 21.4737 18 21.4737V21.4737V21.4737C18 21.4737 18 21.4737 18 21.4737C18 21.4737 18 21.4737 18 21.4737V21.4737V21.4737C18 21.4737 18 21.4737 18 21.4737C18 21.4737 18 21.4737 18 21.4737V21.4737V21.4737C18 21.4737 18 21.4737 18 21.4737C18 21.4737 18 21.4737 18 21.4737V21.4737V21.4737C18 21.4737 18 21.4737 18 21.4737C18 21.4737 18 21.4737 18 21.4737V21.4737V21.4737C18 21.4737 18 21.4737 18 21.4737C18 21.4737 18 21.4737 18 21.4737V21.4737V21.4737C18 21.4737 18 21.4737 18 21.4737C18 21.4737 18 21.4737 18 21.4737V21.4737V21.4737C18 21.4737 18 21.4737 18 21.4737C18 21.4737 18 21.4737 18 21.4737V21.4737V21.4737C18 21.4737 18 21.4737 18 21.4737C18 21.4737 18 21.4737 18 21.4737V21.4737V21.4737C18 21.4737 18 21.4737 18 21.4737C18 21.4737 18 21.4737 18 21.4737V21.4737V21.4737C18 21.4737 18 21.4737 18 21.4737C18 21.4737 18 21.4737 18 21.4737V21.4737V21.4737C18 21.4737 18 21.4737 18 21.4737C18 21.4737 18 21.4737 18 21.4737V21.4737V21.4737C18 21.4737 18 21.4737 18 21.4737C18 21.4737 18 21.4737 18 21.4737V21.4737V21.4737C18 21.4737 18 21.4737 18 21.4737C18 21.4737 18 21.4737 18 21.4737V21.4737V21.4737C18 21.4737 18 21.4737 18 21.4737C18 21.4737 18 21.4737 18 21.4737V21.4737V21.4737C18 21.4737 18 21.4737 18 21.4737C18 21.4737 18 21.4737 18 21.4737V21.4737V21.4737C18 21.4737 18 21.4737 18 21.4737C18 21.4737 18 21.4737 18 21.4737V21.4737V21.4737C18 21.4737 18 21.4737 18 21.4737C18 21.4737 18 21.4737 18 21.4737V21.4737V21.4737C18 21.4737 18 21.4737 18 21.4737C18 21.4737 18 21.4737 18 21.4737V21.4737V21.4737C18 21.4737 18 21.4737 18 21.4737C18 21.4737 18 21.4737 18 21.4737V21.4737V21.4737C18 21.4737 18 21.4737 18 21.4737C18 21.4737 18 21.4737 18 21.4737V21.4737V21.4737C18 21.4737 18 21.4737 18 21.4737C18 21.4737 18 21.4737 18 21.4737V21.4737V21.4737C18 21.4737 18 21.4737 18 21.4737C18 21.4737 18 21.4737 18 21.4737C18 21.4737 18 21.4737 18 21.4737V21.4737C18 21.4737 18 21.4737 18 21.4737C18 21.4737 18 21.4737 18 21.4737C18 21.4737 18 21.4737 18 21.4737V21.4737C18 21.4737 18 21.4737 18 21.4737C18 21.4737 18 21.4737 18 21.4737C18 21.4737 18 21.4737 18 21.4737V21.4737C18 21.4737 18 21.4737 18 21.4737C18 21.4737 18 21.4737 18 21.4737C18 21.4737 18 21.4737 18 21.4737V21.4737C18 21.4737 18 21.4737 18 21.4737C18 21.4737 18 21.4737 18 21.4737C18 21.4737 18 21.4737 18 21.4737V21.4737C18 21.4737 18 21.4737 18 21.4737C18 21.4737 18 21.4737 18 21.4737C18 21.4737 18 21.4737 18 21.4737V21.4737C18 21.4737 18 21.4737 18 21.4737C18 21.4737 18 21.4737 18 21.4737C18 21.4737 18 21.4737 18 21.4737V21.4737C18 21.4737 18 21.4737 18 21.4737C18 21.4737 18 21.4737 18 21.4737C18 21.4737 18 21.4737 18 21.4737V21.4737C18 21.4737 18 21.4737 18 21.4737C18 21.4737 18 21.4737 18 21.4738C18 21.4738 18 21.4738 18 21.4738V21.4738C18 21.4738 18 21.4738 18 21.4738C18 21.4738 18 21.4738 18 21.4738C18 21.4738 18 21.4738 18 21.4738V21.4738C18 21.4738 18 21.4738 18 21.4738C18 21.4738 18 21.4738 18 21.4738C18 21.4738 18 21.4738 18 21.4738V21.4738V21.4738C18 21.4738 18 21.4738 18 21.4738C18 21.4738 18 21.4738 18 21.4738V21.4738V21.4738C18 21.4738 18 21.4738 18 21.4738C18 21.4738 18 21.4738 18 21.4738V21.4738V21.4738C18 21.4738 18 21.4738 18 21.4738C18 21.4738 18 21.4738 18 21.4738V21.4738V21.4738C18 21.4738 18 21.4738 18 21.4738C18 21.4738 18 21.4738 18 21.4738V21.4738V21.4738C18 21.4738 18 21.4738 18 21.4738C18 21.4738 18 21.4738 18 21.4738V21.4738V21.4738C18 21.4738 18 21.4738 18 21.4738C18 21.4738 18 21.4738 18 21.4738V21.4738V21.4738C18 21.4738 18 21.4738 18 21.4738C18 21.4738 18 21.4738 18 21.4738V21.4738V21.4738C18 21.4738 18 21.4738 18 21.4738C18 21.4738 18 21.4738 18 21.4738V21.4738V21.4738C18 21.4738 18 21.4738 18 21.4738C18 21.4738 18 21.4738 18 21.4738V21.4738V21.4738C18 21.4738 18 21.4738 18 21.4738C18 21.4738 18 21.4738 18 21.4738V21.4738H20ZM24.972 22.9999C23.4558 22.9999 22.1072 22.6591 21.1649 22.2214C20.6909 22.0013 20.3557 21.7734 20.1559 21.5837C19.9265 21.3661 19.9999 21.3241 20 21.4733L18 21.4743C18.0003 22.1456 18.4062 22.6804 18.7789 23.0343C19.1812 23.4162 19.7177 23.7545 20.3225 24.0354C21.5377 24.5997 23.1748 24.9999 24.972 24.9999V22.9999ZM30 21.4735C30 21.3164 30.0788 21.3565 29.8418 21.5777C29.6369 21.769 29.294 21.9982 28.8119 22.2193C27.8532 22.6588 26.4887 22.9999 24.972 22.9999V24.9999C26.769 24.9999 28.4186 24.5998 29.6454 24.0373C30.2561 23.7573 30.7989 23.4202 31.2064 23.0399C31.5819 22.6894 32 22.1527 32 21.4735H30ZM30 21.4747C30 21.4743 30 21.4739 30 21.4735H32C32 21.4718 32 21.4702 32 21.4685L30 21.4747ZM30 14.8986V21.4716H32V14.8986H30Z" fill="#745A26" mask="url(#path-7-inside-1_20058_216056)"/>
<path d="M30.5 15.0214C30.5 15.1345 30.4444 15.3315 30.2452 15.5842C30.05 15.8317 29.7374 16.1049 29.2875 16.3599C28.3893 16.8691 26.9784 17.2853 25 17.2853C23.081 17.2853 21.6681 16.8701 20.7525 16.3584C20.2937 16.102 19.9694 15.827 19.7654 15.5773C19.5559 15.3211 19.5 15.1265 19.5 15.0214C19.5 14.4345 19.9562 13.8101 20.979 13.3041C21.9798 12.8091 23.3998 12.5 25 12.5C26.6002 12.5 28.0202 12.8091 29.021 13.3041C30.0438 13.8101 30.5 14.4345 30.5 15.0214Z" fill="#EDB120" stroke="#745A26"/>
</svg>
