<svg width="51" height="41" viewBox="0 0 51 41" fill="none" xmlns="http://www.w3.org/2000/svg">
<path d="M6 28V13L25 2L44 13V28L25 39L6 28Z" fill="var(--mw-icon-background-default-white, #FFFFFF)"/>
<path d="M25 17.5L25.0058 2.58362L43.5197 13.2539V28.1225L25 17.5Z" fill="var(--mw-icon-background-default-light-gray, #F5F5F5)"/>
<path d="M25 17.5L24.9942 2.58362L6.48034 13.2675L6.48034 28.1225L25 17.5Z" fill="#E6E6E6"/>
<path d="M44 28V12.959L25 2L6 12.97" stroke="#BFBFBF" stroke-linecap="round" stroke-linejoin="round"/>
<path d="M6 13V28.03L25 39L44 28.0352" stroke="var(--mw-icon-border-default-gray, #616161)" stroke-linecap="round" stroke-linejoin="round"/>
<path d="M8.5 23.5L25 14L41.5 23.5L25 33L8.5 23.5Z" fill="#EDB120" stroke="#745A26" stroke-linejoin="round"/>
<path d="M25 13L25 23.5" stroke="#745A26" stroke-linecap="round" stroke-linejoin="round"/>
<path d="M16.5 13.5L25 8.5L33.5 13.5L25 18.5L16.5 13.5Z" fill="#EDB120" stroke="#745A26" stroke-linejoin="round"/>
</svg>
