<svg width="50" height="40" viewBox="0 0 50 40" fill="none" xmlns="http://www.w3.org/2000/svg">
<path d="M15.5 7.5C15.5 6.94771 15.9477 6.5 16.5 6.5H33.5C34.0523 6.5 34.5 6.94772 34.5 7.5V32.5C34.5 33.0523 34.0523 33.5 33.5 33.5H16.5C15.9477 33.5 15.5 33.0523 15.5 32.5V7.5Z" fill="#BFBFBF" stroke="var(--mw-icon-border-default-gray, #616161)"/>
<path d="M37.5 27.5C37.5 26.9477 37.9477 26.5 38.5 26.5H47.5C48.0523 26.5 48.5 26.9477 48.5 27.5V38.5C48.5 39.0523 48.0523 39.5 47.5 39.5H38.5C37.9477 39.5 37.5 39.0523 37.5 38.5V27.5Z" fill="var(--mw-icon-background-default-white, white)" stroke="var(--mw-icon-border-default-gray, #616161)"/>
<path d="M37.5 1.5C37.5 0.947715 37.9477 0.5 38.5 0.5H47.5C48.0523 0.5 48.5 0.947715 48.5 1.5V12.5C48.5 13.0523 48.0523 13.5 47.5 13.5H38.5C37.9477 13.5 37.5 13.0523 37.5 12.5V1.5Z" fill="var(--mw-icon-background-default-white, white)" stroke="var(--mw-icon-border-default-gray, #616161)"/>
<path d="M1.5 27.5C1.5 26.9477 1.94772 26.5 2.5 26.5H11.5C12.0523 26.5 12.5 26.9477 12.5 27.5V38.5C12.5 39.0523 12.0523 39.5 11.5 39.5H2.5C1.94771 39.5 1.5 39.0523 1.5 38.5V27.5Z" fill="var(--mw-icon-background-default-white, white)" stroke="var(--mw-icon-border-default-gray, #616161)"/>
<path d="M1.5 1.5C1.5 0.947715 1.94772 0.5 2.5 0.5H11.5C12.0523 0.5 12.5 0.947715 12.5 1.5V12.5C12.5 13.0523 12.0523 13.5 11.5 13.5H2.5C1.94771 13.5 1.5 13.0523 1.5 12.5V1.5Z" fill="var(--mw-icon-background-default-white, white)" stroke="var(--mw-icon-border-default-gray, #616161)"/>

</svg>
