<svg width="50" height="40" viewBox="0 0 50 40" fill="none" xmlns="http://www.w3.org/2000/svg">
<path d="M5.5 27V12L24.5 1L43.5 12V27L24.5 38L5.5 27Z" fill="var(--mw-icon-background-default-white, #FFFFFF)"/>
<path d="M24.5 16.5L24.5058 1.58362L43.0197 12.2539V27.1225L24.5 16.5Z" fill="var(--mw-icon-background-default-light-gray, #F5F5F5)"/>
<path d="M24.5 16.5L24.4942 1.58362L5.98034 12.2675L5.98034 27.1225L24.5 16.5Z" fill="#E6E6E6"/>
<path d="M43.5 27V11.959L24.5 1L5.5 11.97" stroke="#BFBFBF" stroke-linecap="round" stroke-linejoin="round"/>
<path d="M5.5 12V27.03L24.5 38L43.5 27.0352" stroke="var(--mw-icon-border-default-gray, #616161)" stroke-linecap="round" stroke-linejoin="round"/>
<path d="M22.5 14.5L29.5 10.5L36.5 14.5V21.5L29.5 25.5L22.5 21.5V14.5Z" fill="var(--mw-icon-background-default-medium-gray, #D9D9D9)"/>
<path d="M22.5 14.5L29.5 10.5L36.5 14.5M22.5 14.5V21.5L29.5 25.5M22.5 14.5L29.5 18.5M29.5 25.5V18.5M29.5 25.5L36.5 21.5V14.5M29.5 18.5L36.5 14.5" stroke="var(--mw-icon-glyph-content-gray, #616162)" stroke-linejoin="round"/>
<path d="M12.5 20.5L19.5 16.5L26.5 20.5V27.5L19.5 31.5L12.5 27.5V20.5Z" fill="var(--mw-icon-background-light-yellow, #FFF5BC)"/>
<path d="M12.5 20.5L19.5 16.5L26.5 20.5M12.5 20.5V27.5L19.5 31.5M12.5 20.5L19.5 24.5M19.5 31.5V24.5M19.5 31.5L26.5 27.5V20.5M19.5 24.5L26.5 20.5" stroke="var(--mw-icon-glyph-content-yellow, #674C07)" stroke-linejoin="round"/>
<path d="M23.5 25.5L33.5 19.5" stroke="var(--mw-icon-glyph-content-blue, #1656A8)"/>
<circle cx="23.5" cy="25.5" r="1" fill="white" stroke="var(--mw-icon-glyph-content-blue, #1656A8)"/>
<circle cx="33.5" cy="19.5" r="1" fill="white" stroke="var(--mw-icon-glyph-content-blue, #1656A8)"/>
</svg>
