<svg width="50" height="40" viewBox="0 0 50 40" fill="none" xmlns="http://www.w3.org/2000/svg">
<path d="M3 6C3 5.44772 3.44772 5 4 5H9V34H4C3.44772 34 3 33.5523 3 33V6Z" fill="var(--mw-icon-glyph-content-dark-gray, #333333)"/>
<path d="M40 5H45C45.5523 5 46 5.44772 46 6V33C46 33.5523 45.5523 34 45 34H40V5Z" fill="var(--mw-icon-glyph-content-dark-gray, #333333)"/>
<path d="M7 9C7 9.55228 6.55228 10 6 10C5.44772 10 5 9.55228 5 9C5 8.44772 5.44772 8 6 8C6.55228 8 7 8.44772 7 9Z" fill="var(--mw-icon-background-default-white, #FFFFFF)"/>
<path d="M7 13C7 13.5523 6.55228 14 6 14C5.44772 14 5 13.5523 5 13C5 12.4477 5.44772 12 6 12C6.55228 12 7 12.4477 7 13Z" fill="white"/>
<path d="M7 17C7 17.5523 6.55228 18 6 18C5.44772 18 5 17.5523 5 17C5 16.4477 5.44772 16 6 16C6.55228 16 7 16.4477 7 17Z" fill="white"/>
<path d="M7 21C7 21.5523 6.55228 22 6 22C5.44772 22 5 21.5523 5 21C5 20.4477 5.44772 20 6 20C6.55228 20 7 20.4477 7 21Z" fill="white"/>
<path d="M7 25C7 25.5523 6.55228 26 6 26C5.44772 26 5 25.5523 5 25C5 24.4477 5.44772 24 6 24C6.55228 24 7 24.4477 7 25Z" fill="white"/>
<path d="M7 29C7 29.5523 6.55228 30 6 30C5.44772 30 5 29.5523 5 29C5 28.4477 5.44772 28 6 28C6.55228 28 7 28.4477 7 29Z" fill="white"/>
<path d="M44 9C44 9.55228 43.5523 10 43 10C42.4477 10 42 9.55228 42 9C42 8.44772 42.4477 8 43 8C43.5523 8 44 8.44772 44 9Z" fill="white"/>
<path d="M44 13C44 13.5523 43.5523 14 43 14C42.4477 14 42 13.5523 42 13C42 12.4477 42.4477 12 43 12C43.5523 12 44 12.4477 44 13Z" fill="white"/>
<path d="M44 17C44 17.5523 43.5523 18 43 18C42.4477 18 42 17.5523 42 17C42 16.4477 42.4477 16 43 16C43.5523 16 44 16.4477 44 17Z" fill="white"/>
<path d="M44 21C44 21.5523 43.5523 22 43 22C42.4477 22 42 21.5523 42 21C42 20.4477 42.4477 20 43 20C43.5523 20 44 20.4477 44 21Z" fill="white"/>
<path d="M44 25C44 25.5523 43.5523 26 43 26C42.4477 26 42 25.5523 42 25C42 24.4477 42.4477 24 43 24C43.5523 24 44 24.4477 44 25Z" fill="white"/>
<path d="M44 29C44 29.5523 43.5523 30 43 30C42.4477 30 42 29.5523 42 29C42 28.4477 42.4477 28 43 28C43.5523 28 44 28.4477 44 29Z" fill="white"/>
<rect x="9" y="1" width="31" height="37" rx="1" fill="var(--mw-icon-background-default-medium-gray, #D9D9D9)"/>
<path d="M11 11.6002C11 11.2879 11.2809 11.0508 11.5887 11.104C13.5556 11.4439 20.0279 12.5 24.5 12.5C28.9721 12.5 35.4444 11.4439 37.4113 11.104C37.7191 11.0508 38 11.2879 38 11.6002V27.3998C38 27.7121 37.7191 27.9492 37.4113 27.896C35.4444 27.5561 28.9721 26.5 24.5 26.5C20.0279 26.5 13.5556 27.5561 11.5887 27.896C11.2809 27.9492 11 27.7121 11 27.3998V11.6002Z" fill="var(--mw-icon-background-default-dark-gray, #A6A6A6)"/>
<path d="M11.5 1V8.169C11.5 8.6507 11.8412 9.06299 12.3158 9.14533C14.4861 9.52188 20.5079 10.5 24.5 10.5C28.4921 10.5 34.5139 9.52188 36.6842 9.14533C37.1588 9.06299 37.5 8.6507 37.5 8.169V1M11.5 38V30.831C11.5 30.3493 11.8412 29.937 12.3158 29.8547C14.4861 29.4781 20.5079 28.5 24.5 28.5C28.4921 28.5 34.5139 29.4781 36.6842 29.8547C37.1588 29.937 37.5 30.3493 37.5 30.831V38" stroke="var(--mw-icon-border-default-gray, #616161)"/>
<rect x="22" y="17" width="5" height="5" rx="0.5" fill="var(--mw-icon-glyph-content-blue, #1656A8)"/>
</svg>
