<svg width="50" height="40" viewBox="0 0 50 40" fill="none" xmlns="http://www.w3.org/2000/svg">
<rect x="0.5" y="0.5" width="48" height="38" rx="1" fill="var(--mw-icon-background-default-white, #FFFFFF)"/>
<path d="M3 4C3 3.44771 3.44772 3 4 3H45C45.5523 3 46 3.44772 46 4V35C46 35.5523 45.5523 36 45 36H4C3.44772 36 3 35.5523 3 35V4Z" fill="#37C897"/>
<path d="M20.0426 29H10.2553H7V30L12 32H20L21 31L21.0323 36H45C45.5523 36 46 35.5523 46 35V18.1282H43.2167H39.9543H38.6493L37.3443 19.503L36 17H33V22H30V24H26V26H22V29H20.0426Z" fill="#2E87F7"/>
<path d="M34.9672 14.0954L37.7254 12.7697L46.0001 14.0954V24.3947H42.3224L41.403 23.7319L42.3224 23.0691L41.403 21.7434H39.5642V23.0691H36.806L34.9672 21.7434L35.8866 20.4177L37.7254 21.0806V20.4177H41.403L42.3224 19.7549L41.403 19.0921H35.8866L34.9672 17.1036V14.0954Z" fill="#ABC739"/>
<path d="M37.0181 8.96546L8 3H6.67761L24.0816 7.07052L23.2271 8.30262L24.1465 10H26L26.9047 8.96545L30 9V9.5L28.5 10L29 11H30.5L31.5017 10.2911V8.80598L32.841 9.11922L32 9.75V10.5L33 11.25V12H34L35 11.25H37V10.0248L46 11.9737V10.2911L42.5 9.77455V9H41.6151V7.63979H42.5345L43 7V6H38V8L40 9V9.40557L37.0181 8.96546Z" fill="#4852F4"/>
<path d="M10 7V10H14V8L10 7Z" fill="#4852F4"/>
<path d="M4 36C3.44772 36 3 35.5522 3 35V30.5L4 31H8L10 29.5V31.5L8 33H7.59704V34.0115L7 34.5V35H10V34.0115H12V34H14L14.0079 34.0115H14.0329L14.0307 34.0444L14.5582 34.8069H17.7104V34.2103H19.2865L20 35H21L21.5 34.5L22 35H24.0149V33.0173L23.5 32.5L24.0149 31H23V30L24.5 29.5L23 28H25L26.5 29.5L25.9851 30L26 31H27.9552L29 30.5V28H26L25.2484 27.3501L25.9851 27.0518H27.1672L26.3791 26.3587H24.803L26.3791 25.1656L27.9552 25.7622L30.3194 27.6483H31.8956V26.4552H30.3194V25.2622H32.6836L33.4717 24.0691L35.0478 24.6656V28H36.6239L37 27.5L38.9881 28.2449L38.5 29L36.5 29.5L36 30.5H37.5L38.9881 30.0345H42V29H44.3642L45.2927 30.6311L45 31H40V33L42 33.5V34H38.9881V36L4 36Z" fill="#4852F4"/>
<path d="M6.67763 22.5592L3 21.2336V28H5V26H8L9.5 27H12V22H8.5L6.67763 22.5592Z" fill="#4852F4"/>
<path d="M3 17H13.1135V19.9079L11.2747 20.5707H6.03725L3 19.245V17Z" fill="#4852F4"/>
<path d="M39 3V5H40L42 4V3H39Z" fill="#FEC338"/>
<path d="M40 21V20H39V19H38L36.5 21L36 22H34V18H35.5L36 20L38 17H40V19H42L43 20H45V22H43V21H40Z" fill="#FEC338"/>
<path d="M21.8333 15L21 12H26V15H21.8333Z" fill="#FEC338"/>
<path d="M15 8.5L17.5 9.83333L16.5 11.1667V12.5H15.9L15.5 11.7L13.5 11.1667L15 8.5Z" fill="#FEC338"/>
<path d="M6 13L10 11.6667V9H8L7 5H6V13Z" fill="#FEC338"/>
<path d="M14.9522 12.9539V15L12 16V18.9178L18 19V14L14.9522 12.9539Z" fill="#FEC338"/>
<path d="M19.0001 4.5V3H33.0001V7L19.0001 4.5Z" fill="#FEC338"/>
<path d="M35.25 5.71925V5.17539L36.3816 4.63153H36.9474V5.71925L35.8158 6.26311V6.80697H36.9474V7.89469H35.25L34.6842 7.35083V6.26311L35.8158 5.71925H35.25Z" fill="#FEC338"/>
<path d="M31 31V32.5L33 33V31H31Z" fill="#12B1D6"/>
<path d="M33 30V30.75L34 31V30H33Z" fill="#12B1D6"/>
<path d="M36 34V35H37V34H36Z" fill="#12B1D6"/>
<rect x="0.5" y="0.5" width="48" height="38" rx="1" stroke="var(--mw-icon-border-default-gray, #616161)"/>
</svg>
