<svg width="50" height="40" viewBox="0 0 50 40" fill="none" xmlns="http://www.w3.org/2000/svg">
<path d="M7.5 25.5H18.5V36.5C18.5 37.0523 18.9477 37.5 19.5 37.5H29.5C30.0523 37.5 30.5 37.0523 30.5 36.5V25.5H41.5C42.0523 25.5 42.5 25.0523 42.5 24.5V14.5C42.5 13.9477 42.0523 13.5 41.5 13.5H30.5V2.5C30.5 1.94772 30.0523 1.5 29.5 1.5H19.5C18.9477 1.5 18.5 1.94772 18.5 2.5V13.5H7.5C6.94772 13.5 6.5 13.9477 6.5 14.5V24.5C6.5 25.0523 6.94772 25.5 7.5 25.5Z" fill="var(--mw-icon-background-medium-yellow, #FFEF91)" stroke="#674C06" stroke-linejoin="round"/>
</svg>
