<svg width="50" height="40" viewBox="0 0 50 40" fill="none" xmlns="http://www.w3.org/2000/svg">
<path d="M0.5 4.5H48.5V37.5C48.5 38.0523 48.0523 38.5 47.5 38.5H1.5C0.947714 38.5 0.5 38.0523 0.5 37.5V4.5Z" fill="var(--mw-icon-background-default-white, white)" stroke="var(--mw-icon-border-default-gray, #616161)"/>
<path d="M32 14V10C32 9.44772 32.4477 9 33 9H42C42.5523 9 43 9.44772 43 10V14C43 14.5523 42.5523 15 42 15H33C32.4477 15 32 14.5523 32 14Z" fill="var(--mw-icon-background-default-dark-gray, #A6A6A6)"/>
<path d="M19 14V10C19 9.44772 19.4477 9 20 9H29C29.5523 9 30 9.44772 30 10V14C30 14.5523 29.5523 15 29 15H20C19.4477 15 19 14.5523 19 14Z" fill="var(--mw-icon-background-default-dark-gray, #A6A6A6)"/>
<path d="M7 35V20H42V35H7Z" fill="var(--mw-icon-background-default-white, white)"/>
<path d="M6.5 35L14.5 22L18 25L20.5 22L23 24.5L25 22L28 24.5H32L33 21.5L42.5 27" stroke="#0072BD"/>
<path d="M6 14V10C6 9.44772 6.44771 9 7 9H16C16.5523 9 17 9.44772 17 10V14C17 14.5523 16.5523 15 16 15H7C6.44772 15 6 14.5523 6 14Z" fill="#77AC30"/>
<path d="M6.5 35.5V19.5H42.5V35.5H6.5Z" stroke="var(--mw-icon-border-default-gray, #616161)" stroke-linejoin="round"/>
<path d="M0.5 1.5C0.5 0.947715 0.947715 0.5 1.5 0.5H47.5C48.0523 0.5 48.5 0.947715 48.5 1.5V2.5V4.5H0.5V1.5Z" fill="var(--mw-icon-background-default-selection, #B4DEFF)" stroke="var(--mw-icon-border-default-blue, #1656A7)"/>

</svg>
