<svg width="50" height="40" viewBox="0 0 50 40" fill="none" xmlns="http://www.w3.org/2000/svg">
<rect x="0.5" y="0.5" width="48" height="38" rx="1" fill="var(--mw-icon-background-default-white, white)"/>
<path d="M48.5 37.5C48.5 38.0523 48.0523 38.5 47.5 38.5L1.49997 38.5C0.947689 38.5 0.499973 38.0523 0.499973 37.5L0.499997 7.5L48.5 7.5L48.5 37.5Z" fill="#E6E6E6" stroke="var(--mw-icon-border-default-gray, #616161)"/>
<path d="M0.5 1.5C0.5 0.947715 0.947715 0.5 1.5 0.5H47.5C48.0523 0.5 48.5 0.947715 48.5 1.5V7.5H0.5V1.5Z" fill="var(--mw-icon-background-default-selection, #B4DEFF)" stroke="var(--mw-icon-border-default-blue, #1656A7)"/>
<path d="M32 13.5H45" stroke="var(--mw-icon-border-default-gray, #616161)"/>
<path d="M32 17.5H45" stroke="var(--mw-icon-border-default-gray, #616161)"/>
<path d="M32 21.5H45" stroke="var(--mw-icon-border-default-gray, #616161)"/>
<path d="M32 25.5H42" stroke="var(--mw-icon-border-default-gray, #616161)"/>
<path d="M4.5 15.5L16.5 9.5L28.5 15.5V24.5L16.5 31.5L4.5 24.5V15.5Z" fill="var(--mw-icon-background-default-white, white)"/>
<path d="M19.65 23.2274C18.6338 23.2274 17.9707 23.8574 17.9707 24.6105C17.9707 26.0146 18.849 27.5917 19.4708 27.5917C20.0927 27.5917 20.5716 26.1411 21.557 24.0002C21.8704 23.3193 20.6662 23.2274 19.65 23.2274Z" fill="#3E26A8"/>
<path d="M12.7788 22.7018C11.7564 22.7018 11.0605 23.1023 11.0605 23.6464C11.6504 24.2974 12.5005 24.1398 13.1261 24.1398C13.7518 24.1398 14.2888 24.1149 14.6974 23.2601C14.5778 22.7529 13.8012 22.7018 12.7788 22.7018Z" fill="#3E26A8"/>
<path d="M22.8762 20.5533C23.1704 21.263 23.2017 22.5 23.2017 22.5L26.6998 20.4261L16.3479 14.4988L14.1934 15.815L18.6723 17.8439C18.6723 17.8439 19.952 17.7579 20.586 18.0811C21.0309 18.3079 21.2429 18.5125 21.609 18.8574C22.208 19.4217 22.5577 19.7851 22.8762 20.5533Z" fill="#12B1D6"/>
<path d="M22.1109 22.2332C22.3047 22.6777 22.4047 22.9444 22.2792 23.4077C22.2258 23.6049 21.5446 23.9085 21.5446 23.9085C21.5446 23.9085 21.3946 23.6339 20.8217 23.5135C20.3151 23.407 19.2667 23.3591 18.7371 23.6339C17.6856 24.1796 18.4713 24.9157 17.8159 24.6106C17.5201 24.4729 17.4974 24.3366 17.3817 24.0592C17.268 23.7865 17.232 23.5566 17.2461 23.2662C17.2769 22.6291 17.3497 22.3001 17.8159 21.8138C18.3796 21.2256 18.9738 21.0289 19.8452 21.0463C20.474 21.0588 20.8767 21.1197 21.3946 21.4354C21.8154 21.6919 21.9706 21.9114 22.1109 22.2332Z" fill="#4852F4"/>
<path d="M12.9169 21.6405C13.5568 21.6511 14.1447 21.7222 14.5949 22.0574C14.8319 22.2339 15.1188 22.7566 15.0516 22.9423C14.9915 23.1082 14.5949 23.2274 14.5949 23.2274C14.5949 23.2274 14.4423 22.9947 13.8594 22.8927C13.3439 22.8024 12.2772 22.7618 11.7383 22.9947C11.5638 23.0701 11.2664 23.3296 10.8522 23.1415C10.7049 23.0746 10.5937 22.5153 10.8522 22.2908C11.4258 21.7924 12.0303 21.6257 12.9169 21.6405Z" fill="#4852F4"/>
<path d="M21.2416 18.3831L20.5201 17.9927L19.5806 18.1238C19.1842 18.1983 18.3353 18.2191 18.277 18.2477C18.2188 18.2763 15.9858 17.7452 14.8559 17.4083C14.1115 17.6975 12.6148 18.2758 12.5825 18.2758C12.5501 18.2758 11.5011 18.0254 10.9806 17.9002L9.99439 18.2036L9.71387 19.729L10.8592 20.9498L11.0291 21.558L12.0728 20.9051C12.7119 20.9528 14.008 21.0482 14.0792 21.0482C14.1504 21.0482 14.6266 21.388 14.8559 21.558L17.4367 21.7726C17.8358 21.5997 18.6422 21.2539 18.6745 21.2539H20.689L21.3686 20.5832L22.0346 19.0736L21.2416 18.3831Z" fill="#37C897"/>
<path d="M21.7551 18.8066C21.7551 18.8066 22.647 19.647 22.9644 20.3618C23.2743 21.0596 23.3355 22.2815 23.3355 22.2815L21.6377 23.1934C21.6134 23.2292 21.5829 23.2228 21.5829 23.2228L21.6377 23.1934C21.674 23.1399 21.6965 22.9925 21.5829 22.5896C21.3502 21.7642 19.9511 21.6845 19.1808 21.7642C18.4105 21.844 17.4606 22.325 17.2839 23.116C17.1546 23.6947 17.4839 24.1092 17.4839 24.2871C17.2332 24.3539 16.4421 23.0827 16.5245 21.927C16.607 20.7713 19.2353 20.2821 19.4309 20.2576C19.7167 20.2218 20.5896 20.5009 20.9624 20.1622C21.3845 19.7788 21.7551 18.8066 21.7551 18.8066Z" fill="#2E87F7"/>
<path d="M10.3033 22.4111C10.4012 22.781 10.8205 23.1893 10.8205 23.1893C10.8205 23.1893 11.5552 22.013 12.3717 21.7927C12.9312 21.6418 13.708 21.6336 14.2311 21.9146C14.7679 22.2029 15.08 23.2274 15.08 23.2274C15.08 23.2274 15.161 22.54 15.1411 21.9146C15.1277 21.4919 15.0378 21.0805 14.9616 20.9936C14.7726 20.7781 14.4887 20.6651 14.1004 20.5388C13.712 20.4124 12.626 20.4202 12.12 20.4202C11.6141 20.4202 10.9214 20.5034 10.5004 21.2231C10.2286 21.6878 10.1604 21.8706 10.3033 22.4111Z" fill="#2E87F7"/>
<path d="M15.1136 21.9919C15.1136 21.3727 14.6394 21.1059 14.9669 20.6475C15.6233 20.3569 16.9943 19.9744 17.1905 20.6851C17.2646 20.9538 17.4603 21.0222 17.504 21.2873C17.572 21.6997 16.8136 21.6937 16.6416 22.0767C16.4018 22.6106 17.2131 23.8986 17.131 24.115C16.9107 24.3548 15.5216 23.8567 15.1573 23.1001C14.98 22.7319 15.1136 22.3883 15.1136 21.9919Z" fill="#37C897"/>
<path d="M18.5243 24.4949C19.3033 24.5859 20.1531 24.277 20.1531 24.277L16.0324 26.8643L5.60547 20.7502L10.328 17.9494C10.328 17.9494 9.79002 18.9712 9.85841 19.4925C9.94563 20.1574 10.7354 20.2586 10.7841 20.9272C10.822 21.4475 10.3066 21.6928 10.3943 22.2072C10.4918 22.7782 11.0044 23.0216 11.4797 23.3665C12.0721 23.7963 12.6032 23.9902 13.1368 23.9366L13.1413 23.9361C13.4879 23.9013 13.5329 23.8968 13.9999 23.6779C14.469 23.458 14.5831 22.9852 15.3224 22.7383C15.4546 22.6941 15.9362 22.8506 16.317 23.2231C16.6978 23.5956 16.599 23.5965 17.0347 23.9366C17.4708 24.277 17.7453 24.4039 18.5243 24.4949Z" fill="#12B1D6"/>
<path d="M21.7633 18.8171L21.5662 18.668C21.5662 18.668 21.367 19.2419 21.2601 19.5523C21.1533 19.8627 21.0508 20.1091 20.7258 20.2415C20.4007 20.3739 19.8675 20.1389 19.3497 20.1928C18.8585 20.244 18.4684 20.3679 18.0726 20.5143C17.6768 20.6606 17.2002 20.8141 17.2002 20.8141L17.4 21.0804C17.4 21.0804 17.5731 20.9809 17.9516 20.8349C18.3301 20.6888 18.8863 20.4588 19.5057 20.4104C19.8575 20.383 20.5788 20.5931 20.9083 20.4104C21.2379 20.2278 21.7633 18.8171 21.7633 18.8171Z" fill="#12B1D6"/>
<path d="M12.0513 20.5176C11.6567 20.5692 10.746 20.9723 10.746 20.9723L10.6973 20.7654C10.6973 20.7654 11.2673 20.507 11.7298 20.3889C12.1923 20.2709 13.1042 20.3089 13.8056 20.4369C14.507 20.5649 15.1556 20.8089 15.1556 20.8089L15.0615 21.0887C15.0615 21.0887 14.9227 20.9932 14.8413 20.9295C14.76 20.8657 14.2335 20.6568 13.7735 20.5881C13.3004 20.5176 12.6161 20.4436 12.0513 20.5176Z" fill="#12B1D6"/>
<path d="M17.1743 20.5881C17.1145 20.2519 17.0628 20.1558 16.9585 19.9088C16.8542 19.6618 16.5183 19.605 16.2338 19.6084C15.8627 19.6128 15.6846 19.4988 15.4539 19.7956C15.2232 20.0924 15.0293 20.6375 15.066 21.2397C15.0942 21.7029 15.2838 22.5235 15.5452 22.4995C15.8601 22.4704 16.131 21.0966 16.4669 20.965C16.8029 20.8334 17.139 21.2137 17.2081 21.1552C17.2773 21.0966 17.2342 20.9242 17.1743 20.5881Z" fill="#ABC739"/>
<path d="M16.3466 19.7993C16.5746 19.7602 16.9959 19.9855 16.943 19.7993C16.7994 19.294 16.5867 19.2157 16.2311 18.9936C16.1318 18.9316 16.0892 18.8525 15.9495 18.9068C15.8097 18.961 15.7035 19.3182 15.4233 19.6129C15.142 19.9086 15.3177 20.3494 15.5889 20.3494C15.8159 20.3494 15.7791 19.8966 16.3466 19.7993Z" fill="#FEC338"/>
<path d="M5.60547 20.523L16.1525 26.8643L26.6995 20.523L16.1525 14.4988L15.044 15.132L5.60547 20.523Z" stroke="#12B1D6" stroke-linejoin="round"/>
<path d="M19.8097 17.5358C19.5688 17.2773 19.4257 17.1686 19.231 16.9981C19.0364 16.8276 18.7571 16.7546 18.408 16.7574C17.9525 16.7611 17.3683 16.5968 17.1885 16.7389C17.0525 16.8463 15.6201 17.5377 15.8056 17.8359C15.8986 17.9854 16.8402 17.9643 17.3583 18.1206C17.8652 18.2736 18.4382 18.8808 18.7304 18.8626C19.117 18.8385 19.6848 18.3546 20.0971 18.2455C20.5095 18.1365 20.7902 18.2658 20.8751 18.2173C20.96 18.1688 20.0505 17.7942 19.8097 17.5358Z" fill="#ABC739"/>
<path d="M18.9294 16.8008C19.1526 16.9065 19.4724 17.1389 19.5271 17.2969C19.5994 17.5057 19.1525 17.2676 18.9085 17.3563C18.6686 17.4436 18.6058 18.1262 18.4566 18.1356C18.3073 18.1449 18.1854 17.7475 17.9445 17.6321C17.7285 17.5287 17.2961 17.6082 17.2511 17.4983C17.193 17.3563 17.4681 17.0411 17.6635 16.8707C17.8578 16.7012 18.0767 16.681 18.3128 16.681C18.5488 16.681 18.6552 16.6709 18.9294 16.8008Z" fill="#FEC338"/>
<path d="M16.1862 16.7031C16.4873 16.8715 17.1658 17.0116 17.2081 17.09C17.3834 17.4143 16.8565 17.6594 16.5313 17.8558C16.4276 17.9185 16.4247 17.998 16.3128 18.0174C15.7292 18.1189 14.9444 17.6902 14.3296 17.8558C13.7328 18.0166 12.9074 19.5014 12.2932 19.5856C11.5707 19.6845 11.656 18.2641 10.9261 18.248C10.6338 18.2416 10.262 18.7611 10.0804 18.5452C9.955 18.396 10.4607 17.8102 10.5574 17.6432C10.7474 17.315 11.217 16.7356 11.217 16.7356C11.8472 16.6572 13.1004 16.7894 13.1861 16.7356C13.2931 16.6684 15.3204 15.8645 15.4393 15.9723C15.5678 16.0888 15.8851 16.5348 16.1862 16.7031Z" fill="#ABC739"/>
<path d="M13.0308 14.6465C12.1352 15.0291 11.4859 16.1012 10.8727 17.5143C10.2595 18.9274 11.4236 17.4994 11.7709 17.4216C12.0872 17.3507 12.5221 17.9124 13.2138 17.9124C13.9055 17.9124 13.967 16.7818 14.5255 16.5394C15.084 16.297 15.8653 16.7773 15.7829 16.6018C15.0263 14.9898 14.2268 14.1356 13.0308 14.6465Z" fill="#FEC338"/>
<path d="M13.086 13.1527C12.2109 13.6827 11.8731 15.1498 11.5125 16.2197C11.1519 17.2896 12.0021 16.1713 12.2751 16.1116C12.5238 16.0573 12.4617 16.3133 13.0055 16.3133C13.5494 16.3133 13.4803 14.9702 13.9194 14.7845C14.3585 14.5987 15.1226 15.5099 15.0578 15.3754C14.463 14.1403 13.9611 12.6227 13.086 13.1527Z" fill="#F9FB15"/>
<path d="M4.5 15.5V24.6182L16.5814 31.5024L28.5 24.5" stroke="var(--mw-icon-border-default-gray, #616161)" stroke-linecap="round" stroke-linejoin="round"/>

</svg>
