<svg width="50" height="40" viewBox="0 0 50 40" fill="none" xmlns="http://www.w3.org/2000/svg">
<rect x="0.5" y="0.5" width="48" height="38" rx="1" fill="var(--mw-icon-background-default-white, #FFFFFF)"/>
<rect x="0.5" y="0.5" width="48" height="38" rx="1" stroke="var(--mw-icon-border-default-gray, #616161)"/>
<path d="M25 33C32.732 33 39 26.732 39 19C38.5008 15.8384 35 15.5 34.5 10.9674C33.5 5 27 5 25 5C17.268 5 11 11.268 11 19C11 26.732 17.268 33 25 33Z" fill="#F9FB15"/>
<path d="M25 33C18.658 33 13.3009 28.783 11.5798 23C22.4914 27.5667 35 23.5 38.6778 22C37.3045 28.2904 31.7022 33 25 33Z" fill="#FFD60A"/>
<path d="M25 32.9999C20.7038 32.9999 16.8596 31.0648 14.2914 28.0185C26.3401 30.4459 35.9742 26.9412 38.6779 22C37.3045 28.2903 31.7023 32.9999 25 32.9999Z" fill="#EDB120"/>
<path d="M15.8516 29.5977C18.3053 31.7176 21.5029 32.9999 25 32.9999C31.6755 32.9999 37.2597 28.3278 38.6612 22.0751C38.6686 22.0421 38.6758 22.0091 38.683 21.9761C35.9455 27.137 27.268 31.4631 15.8516 29.5977Z" fill="#B3882A"/>
<path d="M25.0001 32.9999C22.2637 32.9999 19.7107 32.2148 17.554 30.8577C29.5437 33.2176 36.4668 27.7087 38.6779 22C37.3045 28.2903 31.7023 32.9999 25.0001 32.9999Z" fill="#8B6606"/>
<path d="M34.4998 10.9674C33.4998 5 26.9998 5 24.9998 5C22.0312 5 19.2784 5.92396 17.0132 7.5C16.4998 11 25 22.5 38.6776 22C38.8886 21.0335 38.9998 20.0297 38.9998 19C38.5006 15.8384 34.9998 15.5 34.4998 10.9674Z" fill="#FEC338"/>
<path d="M34.5 10.9674C33.5 5 27 5 25 5C23.6667 10.5 31 19.5 39 19C38.5008 15.8384 35 15.5 34.5 10.9674Z" fill="#ABC739"/>
<path d="M34.5 10.9674C33.6841 6.09873 29.2072 5.20229 26.5 5.03723C26.8055 8.69148 29.6248 16.3 38.4582 17.5C37.3159 15.5725 34.9081 14.6674 34.5 10.9674Z" fill="#37C897"/>
<path d="M34.5 10.9673C33.8222 6.92249 30.6175 5.61932 28 5.19946C29.3243 8.13295 33.0256 14.3999 37.2364 15.9999C36.0965 14.8207 34.7908 13.6033 34.5 10.9673Z" fill="#12B1D6"/>
<path d="M34.5 10.9673C33.9481 7.67415 31.7212 6.19835 29.5 5.53699C30.7144 6.94754 33.4788 10.3149 34.8215 12.5C34.6745 12.0467 34.5632 11.5406 34.5 10.9673Z" fill="#2E87F7"/>
<path d="M31 6.12817C32.4278 6.85314 33.6871 8.04398 34.276 10.0001C33.2969 8.80006 31.684 6.9188 31 6.12817Z" fill="#4852F4"/>
</svg>
