<svg width="50" height="40" viewBox="0 0 50 40" fill="none" xmlns="http://www.w3.org/2000/svg">
<path d="M32.5 12.5C32.5 11.9477 32.9477 11.5 33.5 11.5H47.5C48.0523 11.5 48.5 11.9477 48.5 12.5V26.5C48.5 27.0523 48.0523 27.5 47.5 27.5H33.5C32.9477 27.5 32.5 27.0523 32.5 26.5V12.5Z" fill="#BFBFBF" stroke="var(--mw-icon-border-default-gray, #616161)"/>
<path d="M10.5 21.5H20.5V35.5H10.5V21.5Z" fill="var(--mw-icon-background-default-white, white)" stroke="var(--mw-icon-border-default-gray, #616161)" stroke-linejoin="round"/>
<path d="M22.5 21.5H28.5V28.5H22.5V21.5Z" fill="var(--mw-icon-background-default-white, white)" stroke="var(--mw-icon-border-default-gray, #616161)" stroke-linejoin="round"/>
<path d="M16.5 3.5H22.5V10.5H16.5V3.5Z" fill="var(--mw-icon-background-default-white, white)" stroke="var(--mw-icon-border-default-gray, #616161)" stroke-linejoin="round"/>
<path d="M1 19.5C1 19.2239 1.22386 19 1.5 19H29.5C29.7761 19 30 19.2239 30 19.5V19.5C30 19.7761 29.7761 20 29.5 20H1.5C1.22386 20 1 19.7761 1 19.5V19.5Z" fill="var(--mw-icon-object-primary, #616160)"/>
<path d="M9.87703 4.82327C10.3411 4.6701 10.7494 4.57438 11.2506 4.57438C13.1439 4.57438 13.6821 6.35493 13.6821 8.03976C13.6821 8.49926 13.6264 8.95876 13.5522 9.37997C13.1624 8.67158 12.3643 8.46097 11.7703 8.46097C9.06032 8.46097 7 11.1988 7 13.8984C7 15.5258 7.70534 17 9.52436 17C13.8677 17 15 11.8115 15 8.97791C15 5.72312 13.8492 4 11.5104 4C10.8794 4 10.2111 4.11487 9.69142 4.44035L9.87703 4.82327ZM13.0696 10.6819C13.0696 11.2754 12.9582 11.9264 12.7912 12.5582C12.2715 14.511 11.1763 16.4256 9.7471 16.4256C8.57773 16.4256 8.50348 15.2769 8.50348 14.5493C8.50348 11.8881 10.0998 9.03535 11.9374 9.03535C12.4385 9.03535 13.0696 9.43741 13.0696 10.6819Z" fill="var(--mw-icon-object-primary, #616160)"/>
<path d="M3.87703 22.8233C4.34107 22.6701 4.74942 22.5744 5.25058 22.5744C7.14385 22.5744 7.68213 24.3549 7.68213 26.0398C7.68213 26.4993 7.62645 26.9588 7.5522 27.38C7.16241 26.6716 6.36427 26.461 5.7703 26.461C3.06032 26.461 1 29.1988 1 31.8984C1 33.5258 1.70534 35 3.52436 35C7.86775 35 9 29.8115 9 26.9779C9 23.7231 7.84919 22 5.51044 22C4.87935 22 4.21114 22.1149 3.69142 22.4404L3.87703 22.8233ZM7.06961 28.6819C7.06961 29.2754 6.95824 29.9264 6.79118 30.5582C6.27146 32.511 5.17633 34.4256 3.7471 34.4256C2.57773 34.4256 2.50348 33.2769 2.50348 32.5493C2.50348 29.8881 4.09977 27.0353 5.93736 27.0353C6.43851 27.0353 7.06961 27.4374 7.06961 28.6819Z" fill="var(--mw-icon-object-primary, #616160)"/>

</svg>
