<svg width="50" height="40" viewBox="0 0 50 40" fill="none" xmlns="http://www.w3.org/2000/svg">
<rect x="0.5" y="0.5" width="48" height="38" rx="1" fill="var(--mw-icon-background-default-white, white)"/>
<path d="M0.5 19.5H48" stroke="var(--mw-icon-background-default-dark-gray, #A6A6A6)" stroke-linecap="round" stroke-dasharray="3 3"/>
<line x1="9.5" y1="1.5" x2="9.5" y2="38.5" stroke="var(--mw-icon-background-default-dark-gray, #A6A6A6)" stroke-linecap="round" stroke-dasharray="3 3"/>
<path d="M35 17.5C32.8 17.5 31.5 18.39 31.5 19.5C31.5 20.61 32.58 21.5 35 21.5C38.31 21.5 44.5 19 44.5 14C44.5 8.19 39.31 4.5 32.5 4.5C24 4.5 18.5 11.11 18.5 19.5C18.5 29.29 26 34.5 32.5 34.5C39.86 34.5 44.5 30.9 44.5 26C44.5 20 38.14 17.5 35 17.5Z" stroke="#0072BD"/>
<rect x="0.5" y="0.5" width="48" height="38" rx="1" stroke="var(--mw-icon-border-default-gray, #616161)"/>
<path d="M0.5 17V22M1 19.5H3" stroke="#D95319"/>

</svg>
