<svg width="50" height="40" viewBox="0 0 50 40" fill="none" xmlns="http://www.w3.org/2000/svg">
<rect x="4.5" y="2.5" width="41" height="35" rx="2" fill="var(--mw-icon-background-default-white, #FFFFFF)" stroke="var(--mw-icon-border-default-gray, #616161)" stroke-linejoin="round"/>
<path d="M0.5 16.5L3.5 19.5L0.5 22.5" stroke="var(--mw-icon-object-primary, #616160)" stroke-linecap="round" stroke-linejoin="round"/>
<path d="M46.5 16.5L49.5 19.5L46.5 22.5" stroke="var(--mw-icon-object-primary, #616160)" stroke-linecap="round" stroke-linejoin="round"/>
<path d="M9.5 12V23.25V34.5H39" stroke="var(--mw-icon-border-default-gray, #616161)" stroke-linecap="round" stroke-linejoin="round"/>
<path d="M9.5 34.5H15.6584C18.7186 34.5 21.6129 33.1089 23.5245 30.7193V30.7193C24.171 29.9113 24.6891 29.0084 25.0605 28.0426L28.8371 18.2237C29.2684 17.1022 30.0368 16.1421 31.0366 15.4756V15.4756C31.9908 14.8395 33.112 14.5 34.2588 14.5H38.5" stroke="var(--mw-icon-border-default-gray, #616161)" stroke-linecap="round" stroke-linejoin="round"/>
<path d="M18.8948 5.45998V9.68081H18.0341V6.42044L17 6.73867V6.08197L18.8022 5.45998H18.8948Z" fill="var(--mw-icon-glyph-content-dark-gray, #333333)"/>
<path d="M23.569 7.54581V8.19961H21.8805V7.54581H23.569Z" fill="var(--mw-icon-glyph-content-dark-gray, #333333)"/>
<path d="M27.2002 9.68081H26.2528L26.2588 9.00386H27.2002C27.4353 9.00386 27.6336 8.95275 27.795 8.85053C27.9564 8.74638 28.0779 8.59499 28.1596 8.39634C28.2433 8.19769 28.2851 7.95757 28.2851 7.67599V7.47059C28.2851 7.25458 28.2612 7.06461 28.2134 6.90068C28.1676 6.73674 28.0988 6.59884 28.0072 6.48698C27.9155 6.37512 27.8029 6.29122 27.6695 6.23529C27.536 6.17743 27.3825 6.14851 27.2092 6.14851H26.2349V5.46866H27.2092C27.5001 5.46866 27.7661 5.51688 28.0072 5.61331C28.2502 5.70781 28.4605 5.84378 28.6378 6.02122C28.8151 6.19865 28.9516 6.4108 29.0472 6.65767C29.1448 6.9026 29.1937 7.17551 29.1937 7.47637V7.67599C29.1937 7.97493 29.1448 8.24783 29.0472 8.4947C28.9516 8.74156 28.8151 8.95371 28.6378 9.13115C28.4624 9.30665 28.2522 9.44262 28.0072 9.53905C27.7641 9.63356 27.4951 9.68081 27.2002 9.68081ZM26.7609 5.46866V9.68081H25.8643V5.46866H26.7609Z" fill="var(--mw-icon-glyph-content-dark-gray, #333333)"/>
<path d="M33.1536 5.46866V9.68081H32.26V5.46866H33.1536ZM34.4925 5.46866V6.14851H30.942V5.46866H34.4925Z" fill="var(--mw-icon-glyph-content-dark-gray, #333333)"/>
<path d="M34.9886 8.03182V7.96818C34.9886 7.56123 35.0325 7.1919 35.1201 6.86017C35.2098 6.52845 35.3274 6.23722 35.4728 5.9865C35.6202 5.73385 35.7806 5.52459 35.954 5.35873C36.1273 5.19286 36.2997 5.07329 36.471 5L36.6354 5.43973C36.5218 5.52073 36.4102 5.63259 36.3007 5.77531C36.1911 5.9161 36.0915 6.08968 36.0018 6.29605C35.9141 6.50048 35.8434 6.74156 35.7896 7.01929C35.7358 7.29508 35.7089 7.60945 35.7089 7.96239V8.03761C35.7089 8.39055 35.7358 8.70588 35.7896 8.98361C35.8434 9.2594 35.9141 9.50048 36.0018 9.70685C36.0915 9.91514 36.1911 10.0906 36.3007 10.2334C36.4102 10.3761 36.5218 10.4889 36.6354 10.5718L36.471 11C36.2997 10.9267 36.1273 10.8071 35.954 10.6413C35.7806 10.4773 35.6202 10.269 35.4728 10.0164C35.3274 9.76567 35.2098 9.47445 35.1201 9.14272C35.0325 8.80906 34.9886 8.43877 34.9886 8.03182Z" fill="var(--mw-icon-glyph-content-dark-gray, #333333)"/>
<path d="M39.0024 8.93153V6.55063H39.8631V9.68081H39.0532L39.0024 8.93153ZM39.098 8.2893L39.3521 8.28351C39.3521 8.4918 39.3272 8.68563 39.2773 8.865C39.2275 9.04243 39.1528 9.19672 39.0532 9.32787C38.9536 9.45709 38.8281 9.55834 38.6766 9.63163C38.5252 9.70299 38.3469 9.73867 38.1417 9.73867C37.9843 9.73867 37.8388 9.71745 37.7053 9.67502C37.5738 9.63067 37.4603 9.5622 37.3646 9.46962C37.271 9.37512 37.1973 9.25458 37.1435 9.108C37.0917 8.9595 37.0658 8.7811 37.0658 8.57281V6.55063H37.9265V8.57859C37.9265 8.67117 37.9374 8.74928 37.9594 8.81292C37.9833 8.87657 38.0161 8.92864 38.058 8.96914C38.0998 9.00964 38.1486 9.03857 38.2044 9.05593C38.2622 9.07329 38.326 9.08197 38.3957 9.08197C38.573 9.08197 38.7125 9.04725 38.8141 8.97782C38.9177 8.90839 38.9904 8.81389 39.0323 8.69431C39.0761 8.57281 39.098 8.4378 39.098 8.2893Z" fill="var(--mw-icon-glyph-content-dark-gray, #333333)"/>
<path d="M42 7.96818V8.03182C42 8.42527 41.9542 8.78785 41.8625 9.11958C41.7709 9.44937 41.6493 9.74156 41.4979 9.99614C41.3485 10.2527 41.1841 10.4658 41.0048 10.6355C40.8275 10.8052 40.6501 10.9267 40.4728 11L40.3054 10.5718C40.419 10.4908 40.5296 10.379 40.6372 10.2363C40.7468 10.0935 40.8464 9.91803 40.936 9.70974C41.0257 9.50338 41.0964 9.26133 41.1482 8.98361C41.202 8.70588 41.2289 8.39055 41.2289 8.03761V7.96239C41.2289 7.60945 41.202 7.29412 41.1482 7.01639C41.0944 6.73867 41.0217 6.49662 40.9301 6.29026C40.8404 6.08197 40.7408 5.90743 40.6312 5.76663C40.5236 5.62392 40.415 5.51205 40.3054 5.43105L40.4728 5C40.6501 5.07329 40.8275 5.19576 41.0048 5.36741C41.1841 5.53713 41.3485 5.74928 41.4979 6.00386C41.6493 6.25844 41.7709 6.55159 41.8625 6.88332C41.9542 7.21311 42 7.57473 42 7.96818Z" fill="var(--mw-icon-glyph-content-dark-gray, #333333)"/>
</svg>
