<svg width="50" height="40" viewBox="0 0 50 40" fill="none" xmlns="http://www.w3.org/2000/svg">
<path d="M15.5 11.5C15.5 10.9477 15.9477 10.5 16.5 10.5H33.5C34.0523 10.5 34.5 10.9477 34.5 11.5V28.5C34.5 29.0523 34.0523 29.5 33.5 29.5H16.5C15.9477 29.5 15.5 29.0523 15.5 28.5V11.5Z" fill="#BFBFBF" stroke="var(--mw-icon-border-default-gray, #616161)"/>
<path d="M18.252 5.04C16.9512 5.04 15.9988 5.424 15.5807 6.096C15.1626 6.768 15.0232 7.392 15 9L15.2555 9C15.6736 7.344 16.3705 6.816 18.1127 6.816L22.0151 6.816C23.9663 6.816 24.547 6.36 24.9884 4.56C25.453 6.36 26.0569 6.816 27.9849 6.816L31.8873 6.816C33.6295 6.816 34.3264 7.344 34.7445 9L35 9C34.9768 7.416 34.8374 6.792 34.4193 6.096C34.0012 5.4 33.0952 5.04 31.7712 5.04L27.6365 5.04C26.0105 5.04 25.4762 4.608 24.9884 3C24.5238 4.608 23.9895 5.04 22.3635 5.04L18.252 5.04Z" fill="var(--mw-icon-object-primary, #616160)"/>

</svg>
