<svg width="50" height="40" viewBox="0 0 50 40" fill="none" xmlns="http://www.w3.org/2000/svg">
<path d="M15.5 11.5C15.5 10.9477 15.9477 10.5 16.5 10.5H33.5C34.0523 10.5 34.5 10.9477 34.5 11.5V28.5C34.5 29.0523 34.0523 29.5 33.5 29.5H16.5C15.9477 29.5 15.5 29.0523 15.5 28.5V11.5Z" fill="#BFBFBF" stroke="var(--mw-icon-border-default-gray, #616161)"/>
<path d="M29.4234 0.0229492C30.9528 1.74489 32.7411 3.46683 34.9999 4.38519V4.61479C32.7411 5.55611 30.9528 7.25509 29.3999 8.99999L28.9293 8.56376C29.4705 7.80611 30.1528 7.07142 30.8587 6.35968C31.0705 6.15305 31.1881 5.9005 31.1881 5.71683C31.1881 5.48723 30.9999 5.25764 30.5764 5.25764H19.3999L19.4234 3.74234H30.5999C30.8352 3.74234 31.2117 3.46683 31.2117 3.23723C31.2117 3.0306 31.1176 2.89285 30.8823 2.66326C30.1999 2.0204 29.4705 1.21683 28.9528 0.459174L29.4234 0.0229492Z" fill="var(--mw-icon-object-primary, #616160)"/>

</svg>
