<svg width="50" height="40" viewBox="0 0 50 40" fill="none" xmlns="http://www.w3.org/2000/svg">
<path d="M15.5 11.5C15.5 10.9477 15.9477 10.5 16.5 10.5H33.5C34.0523 10.5 34.5 10.9477 34.5 11.5V28.5C34.5 29.0523 34.0523 29.5 33.5 29.5H16.5C15.9477 29.5 15.5 29.0523 15.5 28.5V11.5Z" fill="#BFBFBF" stroke="var(--mw-icon-border-default-gray, #616161)"/>
<path d="M19.4235 3.74235H30.6L30.5765 5.25765H19.4C19.1647 5.25765 18.7882 5.53316 18.7882 5.76275C18.7882 5.96939 18.8824 6.10714 19.1176 6.33673C19.8 6.97959 20.5294 7.78316 21.0471 8.54082L20.5765 8.97704C19.0471 7.2551 17.2588 5.53316 15 4.6148V4.3852C17.2588 3.44388 19.0471 1.7449 20.6 0L21.0706 0.436225C20.5294 1.19388 19.8471 1.92857 19.1412 2.64031C18.9294 2.84694 18.8118 3.09949 18.8118 3.28316C18.8118 3.51275 19 3.74235 19.4235 3.74235Z" fill="var(--mw-icon-object-primary, #616160)"/>

</svg>
