<svg width="50" height="40" viewBox="0 0 50 40" fill="none" xmlns="http://www.w3.org/2000/svg">
<rect x="0.5" y="0.5" width="48" height="38" rx="1" fill="var(--mw-icon-background-default-white, white)"/>
<path d="M16.5 1L16.5 39" stroke="var(--mw-icon-background-default-dark-gray, #A6A6A6)"/>
<path d="M33.5 1L33.5 39" stroke="var(--mw-icon-background-default-dark-gray, #A6A6A6)"/>
<path d="M0.5 12.5L16.4194 16.4798C16.4728 16.4932 16.5236 16.5153 16.5698 16.5451L33.4057 27.439C33.4678 27.4792 33.538 27.5051 33.6113 27.5148L48.5 29.5M0.5 13.5L16.4348 18.4796C16.4781 18.4931 16.5193 18.5125 16.5573 18.5371L33.3911 29.4295C33.4625 29.4757 33.5446 29.503 33.6294 29.5086L48.5 30.5" stroke="#4DBEEE" stroke-linecap="round"/>
<path d="M0.5 11.5L16.3929 14.4799C16.4635 14.4931 16.5304 14.5214 16.5891 14.5629L33.4135 26.439C33.4705 26.4792 33.5354 26.5071 33.6038 26.5208L48.5 29.5" stroke="#0072BD" stroke-linecap="round"/>
<path d="M0.5 5.5L16.216 19.2515C16.3841 19.3986 16.6293 19.4163 16.8169 19.295L33.1606 8.71959C33.3586 8.5915 33.6191 8.6191 33.7858 8.78582L48.5 23.5" stroke="#EDB120" stroke-linecap="round"/>
<path d="M0.5 7.5L16.2356 20.7769C16.3947 20.9111 16.6203 20.9328 16.802 20.8313L33.1937 11.6711C33.3775 11.5684 33.606 11.5919 33.7651 11.7298L48.5 24.5" stroke="#EDB120" stroke-linecap="round"/>
<path d="M0.5 8.5L16.2466 22.7703C16.3994 22.9088 16.6215 22.9393 16.8059 22.847L33.2269 14.6365C33.3946 14.5527 33.595 14.5697 33.7462 14.6806L48.5 25.5" stroke="#D95319" stroke-linecap="round"/>
<rect x="0.5" y="0.5" width="48" height="38" rx="1" stroke="var(--mw-icon-border-default-gray, #616161)"/>

</svg>
