<svg width="50" height="40" viewBox="0 0 50 40" fill="none" xmlns="http://www.w3.org/2000/svg">
<rect x="0.5" y="0.5" width="48" height="38" rx="1" fill="var(--mw-icon-background-default-white, white)"/>
<path d="M0.5 32.5C0.5 32.5 26.5 0.5 45.5 0.5" stroke="#D95319" stroke-miterlimit="10"/>
<path d="M9.99999 25L10 38L4 38L4 25L9.99999 25Z" fill="#0072BD"/>
<path d="M28 31L28 38L22 38L22 31L28 31Z" fill="#0072BD"/>
<path d="M37 32L37 38L31 38L31 32L37 32Z" fill="#0072BD"/>
<path d="M46 34L46 38L40 38L40 34L46 34Z" fill="#0072BD"/>
<path d="M19 28L19 38L13 38L13 28L19 28Z" fill="#0072BD"/>
<rect x="0.5" y="0.5" width="48" height="38" rx="1" stroke="var(--mw-icon-border-default-gray, #616161)"/>

</svg>
