<svg width="50" height="41" viewBox="0 0 50 41" fill="none" xmlns="http://www.w3.org/2000/svg">
<path d="M5.5 27.5V12.5L24.5 1.5L43.5 12.5V27.5L24.5 38.5L5.5 27.5Z" fill="var(--mw-icon-background-default-white, #FFFFFF)"/>
<path d="M24.5 17L24.5058 2.08362L43.0197 12.7539V27.6225L24.5 17Z" fill="var(--mw-icon-background-default-light-gray, #F5F5F5)"/>
<path d="M24.5 17L24.4942 2.08362L5.98034 12.7675L5.98034 27.6225L24.5 17Z" fill="#E6E6E6"/>
<path d="M43.5 27.5V12.459L24.5 1.5L5.5 12.47" stroke="#BFBFBF" stroke-linecap="round" stroke-linejoin="round"/>
<path d="M5.5 12.5V27.53L24.5 38.5L43.5 27.5352" stroke="var(--mw-icon-border-default-gray, #616161)" stroke-linecap="round" stroke-linejoin="round"/>
<path d="M40.5 21.2419L24.5 30.6351L8.5 21.37L24.5 12L40.5 21.2419Z" fill="#3AC831" stroke="#013E0A" stroke-linejoin="round"/>
<path d="M24.5 30.6351V35L40.5 25.8013V21.2419L24.5 30.6351Z" fill="var(--mw-icon-glyph-content-dark-green, #02580E)" stroke="#013E0A" stroke-linejoin="round"/>
<path d="M8.5 25.8085V21.37L24.5 30.6351V35L8.5 25.8085Z" fill="var(--mw-icon-border-default-green, #008013)" stroke="#013E0A" stroke-linejoin="round"/>
<path d="M24.9822 28.2162L12.8433 21.0912L16.6683 18.8461L20.8211 21.2836L24.0193 19.4063L19.8665 16.9688L23.7044 14.7162L35.8433 21.8412L32.0054 24.0938L27.8526 21.6563L24.6544 23.5336L28.8072 25.9711L24.9822 28.2162Z" fill="#FEC04C" stroke="#4A3A19" stroke-linejoin="round"/>
</svg>
