<svg width="50" height="41" viewBox="0 0 50 41" fill="none" xmlns="http://www.w3.org/2000/svg">
<path d="M5.5 27.5835V12.5835L24.5 1.5835L43.5 12.5835V27.5835L24.5 38.5835L5.5 27.5835Z" fill="var(--mw-icon-background-default-white, #FFFFFF)"/>
<path d="M24.5 17.0835L24.5058 2.16711L43.0197 12.8374V27.706L24.5 17.0835Z" fill="var(--mw-icon-background-default-light-gray, #F5F5F5)"/>
<path d="M24.5 17.0835L24.4942 2.16711L5.98034 12.851L5.98034 27.706L24.5 17.0835Z" fill="#E6E6E6"/>
<path d="M43.5 27.5835V12.5425L24.5 1.5835L5.5 12.5535" stroke="#BFBFBF" stroke-linecap="round" stroke-linejoin="round"/>
<path d="M5.5 12.5835V27.6135L24.5 38.5835L43.5 27.6187" stroke="var(--mw-icon-border-default-gray, #616161)" stroke-linecap="round" stroke-linejoin="round"/>
<path d="M40.5 22.3254L24.5 31.7186L8.5 22.4535L24.5 13.0835L40.5 22.3254Z" fill="#3AC831" stroke="#013E0A" stroke-linejoin="round"/>
<path d="M24.5 31.7186V36.0835L40.5 26.8848V22.3254L24.5 31.7186Z" fill="var(--mw-icon-glyph-content-dark-green, #02580E)" stroke="#013E0A" stroke-linejoin="round"/>
<path d="M8.5 26.892V22.4535L24.5 31.7186V36.0835L8.5 26.892Z" fill="var(--mw-icon-border-default-green, #008013)" stroke="#013E0A" stroke-linejoin="round"/>
<path d="M35.75 22.5563L24.5177 16.0835L15.25 21.5514L26.25 28.0835L35.75 22.5563Z" fill="#FEC04C" stroke="#4A3A19" stroke-linejoin="round"/>
<path d="M24.3558 22.6178L18.1125 26.3656" stroke="var(--mw-icon-border-default-green, #008013)" stroke-width="1.5" stroke-linecap="round"/>
<path d="M24.3556 22.6415L18.0595 26.3656" stroke="#4A3A19" stroke-linecap="round"/>
</svg>
