<svg width="50" height="40" viewBox="0 0 50 40" fill="none" xmlns="http://www.w3.org/2000/svg">
<path d="M5.5 27V12L24.5 1L43.5 12V27L24.5 38L5.5 27Z" fill="var(--mw-icon-background-default-white, #FFFFFF)"/>
<path d="M24.5 16.5L24.5058 1.58362L43.0197 12.2539V27.1225L24.5 16.5Z" fill="var(--mw-icon-background-default-light-gray, #F5F5F5)"/>
<path d="M24.5 16.5L24.4942 1.58362L5.98034 12.2675L5.98034 27.1225L24.5 16.5Z" fill="#E6E6E6"/>
<path d="M43.5 27V11.959L24.5 1L5.5 11.97" stroke="#BFBFBF" stroke-linecap="round" stroke-linejoin="round"/>
<path d="M5.5 12V27.03L24.5 38L43.5 27.0352" stroke="var(--mw-icon-border-default-gray, #616161)" stroke-linecap="round" stroke-linejoin="round"/>
<path d="M40.5 21.3254L24.5 30.7186L8.5 21.4535L24.5 12.0835L40.5 21.3254Z" fill="#3AC831" stroke="#013E0A" stroke-linejoin="round"/>
<path d="M24.5 30.7186V35.0835L40.5 25.8848V21.3254L24.5 30.7186Z" fill="var(--mw-icon-glyph-content-dark-green, #02580E)" stroke="#013E0A" stroke-linejoin="round"/>
<path d="M8.5 25.892V21.4535L24.5 30.7186V35.0835L8.5 25.892Z" fill="var(--mw-icon-border-default-green, #008013)" stroke="#013E0A" stroke-linejoin="round"/>
<path d="M22.6322 15.1861L13.7717 20.3013L26.1395 27.4412L34.9999 22.326L31.8618 20.5144L25.9549 23.9245L24.2935 22.9654L27.9854 20.8341L25.0319 19.129L21.34 21.2604L19.6787 20.3013L25.5857 16.8912L22.6322 15.1861Z" fill="#FEC04C" stroke="#4A3A19" stroke-linejoin="round"/>
</svg>
