<svg width="50" height="40" viewBox="0 0 50 40" fill="none" xmlns="http://www.w3.org/2000/svg">
<path d="M25.5015 15.8031V4.62132C25.5015 4.62132 31.3715 4.41203 35.2495 5.82211C40.2606 7.64419 44.1397 12.0759 44.1397 12.0759L25.5015 15.8031Z" fill="#F9FB15"/>
<path d="M40.412 24.5004L25.5015 15.8034L44.1397 12.0762C44.1397 12.0762 44.9267 12.5733 45.3822 13.9398C45.8378 15.3063 45.3822 17.0459 45.3822 17.0459V23.258C45.3822 23.258 45.2717 25.4094 43.9051 27.2314C42.5384 29.0535 40.412 30.7125 40.412 30.7125V24.5004Z" fill="#FEC338"/>
<path d="M25.5015 34.4391V15.8027L40.412 24.4997V30.7118C40.412 30.7118 37.4319 32.2606 34.794 33.1524C31.5521 34.2483 25.5015 34.4391 25.5015 34.4391Z" fill="#ABC739"/>
<path d="M25.5181 34.5189V15.843L10.144 23.855V30.26C10.144 30.26 13.7412 32.4715 15.9515 33.1524C19.5581 34.2634 25.5181 34.5189 25.5181 34.5189Z" fill="#37C897"/>
<path d="M10.5913 23.8785L25.5175 15.843H5.62109V23.2573C5.62109 23.2573 5.77631 24.9827 6.86364 26.9846C7.95098 28.9865 10.5913 30.7119 10.5913 30.7119V23.8785Z" fill="#12B1D6"/>
<path d="M5.62109 15.8442H25.5175L9.34874 9.5918L6.24237 13.3191L5.62109 15.8442Z" fill="#2E87F7"/>
<path d="M25.5169 15.8432L25.5012 4.62109L17.5 5.5L25.5169 15.8432Z" fill="#3E26A8"/>
<path d="M9.3479 9.59067L25.5167 15.843L18.0457 5.24219L13.5 7L9.3479 9.59067Z" fill="#4852F4"/>
<path d="M25.5 4.5L25.4985 34.4334" stroke="var(--mw-icon-border-default-gray, #616161)"/>
<path d="M25.5 15.5L44 12" stroke="var(--mw-icon-border-default-gray, #616161)"/>
<path d="M25.5 15.5L40.5 24.5" stroke="var(--mw-icon-border-default-gray, #616161)"/>
<path d="M29.1042 28.5V33.9826" stroke="var(--mw-icon-border-default-gray, #616161)"/>
<path d="M21.5 28V34" stroke="var(--mw-icon-border-default-gray, #616161)"/>
<line x1="32.833" y1="27.6055" x2="32.833" y2="33.9826" stroke="var(--mw-icon-border-default-gray, #616161)"/>
<path d="M17.9216 27.5V33.3615" stroke="var(--mw-icon-border-default-gray, #616161)"/>
<path d="M36.5 26.5V32.5" stroke="var(--mw-icon-border-default-gray, #616161)"/>
<path d="M14.5 26.5V32.5" stroke="var(--mw-icon-border-default-gray, #616161)"/>
<path d="M10.5 24.5V30.5" stroke="var(--mw-icon-border-default-gray, #616161)"/>
<path d="M8.10254 22.5V28.3928" stroke="var(--mw-icon-border-default-gray, #616161)"/>
<path d="M40.5 24.5V30.5" stroke="var(--mw-icon-border-default-gray, #616161)"/>
<path d="M42.8945 22.5V28.2277" stroke="var(--mw-icon-border-default-gray, #616161)"/>
<ellipse cx="25.5" cy="16.4988" rx="20" ry="11.9988" stroke="var(--mw-icon-border-default-gray, #616161)"/>
<path d="M25.5 15.4999L10.5 24.5" stroke="var(--mw-icon-border-default-gray, #616161)"/>
<path d="M25.5 15.5L17.5 5.5" stroke="var(--mw-icon-border-default-gray, #616161)"/>
<path d="M25.5 15.5L9.34542 9.59061" stroke="var(--mw-icon-border-default-gray, #616161)"/>
<path d="M25.5 15.5L5.5 15.5" stroke="var(--mw-icon-border-default-gray, #616161)"/>
<path d="M45.5 16.5V23C45.5 23 45.5604 27.7282 39.2643 31.0935C36.3842 32.633 31.9196 34.5186 26.1294 34.5186C19.6965 34.5186 15.061 33.1338 12.0072 31.33C5.17387 27.2305 5.50004 23 5.50004 23V16.5" stroke="var(--mw-icon-border-default-gray, #616161)"/>

</svg>
