<svg width="50" height="40" viewBox="0 0 50 40" fill="none" xmlns="http://www.w3.org/2000/svg">
<path d="M24.5 0.5C24.5 0.5 28.5 0 34 3C39.5 6.5 41 10 41 10L24.5 19.5V0.5Z" fill="#F9FB15"/>
<path d="M39.5 30.5C39.5 30.5 43.5 27 43.5 19.5C43.5 14.5 41 10 41 10L24.5 19.5L39.5 30.5Z" fill="#FEC338"/>
<path d="M24.5 38.5C24.5 38.5 30 38.5 34 36C38.5 32.5 39.5 30.5 39.5 30.5L24.5 19.5V38.5Z" fill="#ABC739"/>
<path d="M24.5 38.5C24.5 38.5 18 38.5 13.5 34.5L24.5 19.5V38.5Z" fill="#12B1D6"/>
<path d="M13.5 34.5C11.5 34 7.5 29 6 24.5L24.5 19.5L13.5 34.5Z" fill="#ABC739"/>
<path d="M6.00006 24.5C4 14.5 9.00006 9 9.00006 9L24.5 19.5L6.00006 24.5Z" fill="#37C897"/>
<path d="M9 9.00024C10.2962 6.35783 14.5 3.50024 14.5 3.50024L24.5 19.5002L9 9.00024Z" fill="#12B1D6"/>
<path d="M14.5 3.5C16.1086 2.2303 19.5 1.5 19.5 1.5L24.5 19.5L14.5 3.5Z" fill="#2E87F7"/>
<path d="M19.5 0.999808C19.5 0.999808 22.1037 0.497944 24.5 0.500006V19.5L19.5 0.999808Z" fill="#4852F4"/>
<path d="M24.5 0.500001L24.5 19.5M24.5 38.5L24.5 19.5M24.5 19.5L41 10M24.5 19.5L39.5 30.5M24.5 19.5L13.5 34.5M24.5 19.5L6.5 24.5M24.5 19.5L19.5 1.5M24.5 19.5L14.5 3.5M24.5 19.5L9 9" stroke="var(--mw-icon-border-default-gray, #616161)"/>
<circle cx="24.5" cy="19.5" r="19" stroke="var(--mw-icon-border-default-gray, #616161)"/>

</svg>
