<svg width="50" height="40" viewBox="0 0 50 40" fill="none" xmlns="http://www.w3.org/2000/svg">
<path d="M5.5 27V12L24.5 1L43.5 12V27L24.5 38L5.5 27Z" fill="var(--mw-icon-background-default-white, #FFFFFF)"/>
<path d="M24.5 16.5001L24.5058 1.58374L43.0197 12.254V27.1226L24.5 16.5001Z" fill="var(--mw-icon-background-default-light-gray, #F5F5F5)"/>
<path d="M24.5 16.4999L24.4942 1.5835L5.98034 12.2674L5.98034 27.1224L24.5 16.4999Z" fill="#E6E6E6"/>
<path d="M43.5 27V11.959L24.5 1L5.5 11.97" stroke="#BFBFBF" stroke-linecap="round" stroke-linejoin="round"/>
<path d="M5.5 12V27.03L24.5 38L43.5 27.0352" stroke="var(--mw-icon-border-default-gray, #616161)" stroke-linecap="round" stroke-linejoin="round"/>
<path d="M8.5 21.8496L25 12.6992L41.5 21.8496L25 30.9999L8.5 21.8496Z" fill="#EDB120" stroke="#745A26" stroke-linejoin="round"/>
<path d="M14.5 16.8013L24.5145 11.1314L36.5395 17.985L26.5 23.8047V27.6662L14.5 20.6215V16.8013Z" fill="#EDB120"/>
<path d="M14.5 16.8013L24.5145 11.1314L36.5395 17.985L26.5 23.8047M14.5 16.8013L26.5 23.8047M14.5 16.8013V20.6215L26.5 27.6662V23.8047" stroke="#745A26" stroke-linejoin="round"/>
</svg>
