<svg width="50" height="41" viewBox="0 0 50 41" fill="none" xmlns="http://www.w3.org/2000/svg">
<path d="M25.5 15.6666V1.16663L45.5 13.1666V27.6666L25.5 15.6666Z" fill="var(--mw-icon-background-default-light-gray, #F5F5F5)"/>
<path d="M25.5 15.6666V1.16663L5.5 13.1666V27.6666L25.5 15.6666Z" fill="var(--mw-icon-background-default-medium-gray, #D9D9D9)"/>
<path d="M5.5 15.1666L25.5 3.16663L45.5 15.1666M5.5 21.1666L25.5 9.16663L45.5 21.1666M5.5 27.1666L25.5 15.1666L45.5 27.1666" stroke="#BFBFBF"/>
<path d="M5.5 18.1666L25.5 6.16663L45.5 18.1666M5.5 24.1666L25.5 12.1666L45.5 24.1666" stroke="var(--mw-icon-glyph-disabled-gray, #888889)"/>
<path d="M45.5 27.1666L25.5 39.1666L5.5 27.1666V13.1666L25.5 1.16663L45.5 13.1666V27.1666Z" stroke="var(--mw-icon-object-primary, #616160)" stroke-linejoin="round"/>
</svg>
