<svg width="50" height="40" viewBox="0 0 50 40" fill="none" xmlns="http://www.w3.org/2000/svg">
<rect x="0.5" y="0.5" width="48" height="38" rx="1" fill="var(--mw-icon-background-default-white, #FFFFFF)"/>
<path d="M1 38C1 38 4.21893 30.158 8.5 27.5C12.8638 24.7906 17.3277 28.496 21.5 25.5C26.0418 22.2387 22.6455 15.2745 27.5 12.5C30.9075 10.5525 33.8463 12.9333 37.5 11.5C42.8985 9.38227 48 1 48 1" stroke="#823400"/>
<path d="M26 19.5H29M27.5 21V18M15 29.5H18M16.5 31V28M11 23.5H14M12.5 25V22M18 23.5H21M19.5 25V22M10 31.5H13M11.5 33V30M4 26.5H7M5.5 28V25M31 14.5H34M32.5 16V13M33 9.5H36M34.5 11V8M41 5.5H44M42.5 7V4M40 14.5H43M41.5 16V13M44 10.5H47M45.5 12V9M20 17.5H23M21.5 19V16" stroke="var(--mw-icon-glyph-content-blue, #1656A8)"/>
<rect x="0.5" y="0.5" width="48" height="38" rx="1" stroke="var(--mw-icon-border-default-gray, #616161)"/>
</svg>
