<svg width="50" height="40" viewBox="0 0 50 40" fill="none" xmlns="http://www.w3.org/2000/svg">
<path d="M41.5 8.5H8.5C7.94772 8.5 7.5 8.94772 7.5 9.5V36.5C7.5 37.0523 7.94772 37.5 8.5 37.5H41.5C42.0523 37.5 42.5 37.0523 42.5 36.5V9.5C42.5 8.94772 42.0523 8.5 41.5 8.5Z" fill="var(--mw-icon-background-default-light-gray, #F5F5F5)" stroke="var(--mw-icon-border-default-gray, #616161)"/>
<path d="M36.5 34.5H32.5L34.5 32.5L36.5 30.5V34.5Z" fill="var(--mw-icon-glyph-content-dark-gray, #333333)"/>
<path d="M14.3536 11.6464C14.1583 11.4512 13.8417 11.4512 13.6464 11.6464C13.4512 11.8417 13.4512 12.1583 13.6464 12.3536L14.3536 11.6464ZM32.5 34.5L32.1464 34.1464L31.2929 35H32.5V34.5ZM36.5 34.5V35H37V34.5H36.5ZM36.5 30.5H37V29.2929L36.1464 30.1464L36.5 30.5ZM13.6464 12.3536L34.1464 32.8536L34.8536 32.1464L14.3536 11.6464L13.6464 12.3536ZM34.1464 32.8536L34.6464 33.3536L35.3536 32.6464L34.8536 32.1464L34.1464 32.8536ZM32.5 35H36.5V34H32.5V35ZM37 34.5V30.5H36V34.5H37ZM36.1464 30.1464L34.1464 32.1464L34.8536 32.8536L36.8536 30.8536L36.1464 30.1464ZM34.1464 32.1464L32.1464 34.1464L32.8536 34.8536L34.8536 32.8536L34.1464 32.1464Z" fill="var(--mw-icon-glyph-content-dark-gray, #333333)"/>

</svg>
