<svg width="50" height="40" viewBox="0 0 50 40" fill="none" xmlns="http://www.w3.org/2000/svg">
<path d="M41.5 8.5H8.5C7.94772 8.5 7.5 8.94772 7.5 9.5V36.5C7.5 37.0523 7.94772 37.5 8.5 37.5H41.5C42.0523 37.5 42.5 37.0523 42.5 36.5V9.5C42.5 8.94772 42.0523 8.5 41.5 8.5Z" fill="var(--mw-icon-background-default-light-gray, #F5F5F5)" stroke="var(--mw-icon-border-default-gray, #616161)"/>
<path d="M34.5 32.5L15.8684 13.8684L13.5 16V11.5H18.5L15.8684 13.8684L34.5 32.5L36.5 30.5V34.5H32.5L34.5 32.5Z" fill="var(--mw-icon-glyph-content-dark-gray, #333333)"/>
<path d="M15 13L35 33M32.5 34.5H36.5V30.5L32.5 34.5ZM13.5 11.5H18.5L13.5 16V11.5Z" stroke="var(--mw-icon-glyph-content-dark-gray, #333333)"/>

</svg>
