<svg width="50" height="41" viewBox="0 0 50 41" fill="none" xmlns="http://www.w3.org/2000/svg">
<path d="M40.3384 9.86752C39.621 10.2817 39.3752 11.1991 39.7894 11.9166C40.2036 12.634 41.121 12.8798 41.8384 12.4656C42.5559 12.0514 42.8017 11.134 42.3875 10.4166C41.9733 9.69912 41.0559 9.45331 40.3384 9.86752Z" fill="var(--mw-icon-background-default-dark-gray, #A6A6A6)"/>
<path d="M9.16153 27.8675C8.44409 28.2817 8.19827 29.1991 8.61249 29.9166C9.0267 30.634 9.94409 30.8798 10.6615 30.4656C11.379 30.0514 11.6248 29.134 11.2106 28.4166C10.7964 27.6991 9.87896 27.4533 9.16153 27.8675Z" fill="var(--mw-icon-background-default-dark-gray, #A6A6A6)"/>
<path d="M33.2009 3.82809C32.7867 4.54553 33.0325 5.46292 33.75 5.87713C34.4674 6.29134 35.3848 6.04553 35.799 5.32809C36.2132 4.61065 35.9674 3.69327 35.25 3.27905C34.5325 2.86484 33.6151 3.11065 33.2009 3.82809Z" fill="var(--mw-icon-background-default-dark-gray, #A6A6A6)"/>
<path d="M15.2009 35.005C14.7867 35.7224 15.0325 36.6398 15.75 37.054C16.4674 37.4683 17.3848 37.2224 17.799 36.505C18.2132 35.7876 17.9674 34.8702 17.25 34.456C16.5325 34.0418 15.6151 34.2876 15.2009 35.005Z" fill="var(--mw-icon-background-default-dark-gray, #A6A6A6)"/>
<path d="M15.201 5.32809C15.6152 6.04553 16.5326 6.29134 17.25 5.87713C17.9674 5.46292 18.2132 4.54553 17.799 3.82809C17.3848 3.11065 16.4674 2.86484 15.75 3.27905C15.0326 3.69327 14.7867 4.61065 15.201 5.32809Z" fill="var(--mw-icon-background-default-dark-gray, #A6A6A6)"/>
<path d="M33.201 36.505C33.6152 37.2224 34.5326 37.4683 35.25 37.054C35.9674 36.6398 36.2132 35.7224 35.799 35.005C35.3848 34.2876 34.4674 34.0418 33.75 34.456C33.0326 34.8702 32.7867 35.7876 33.201 36.505Z" fill="var(--mw-icon-background-default-dark-gray, #A6A6A6)"/>
<path d="M9.16153 12.4656C9.87896 12.8798 10.7964 12.634 11.2106 11.9166C11.6248 11.1991 11.379 10.2817 10.6615 9.86753C9.94409 9.45331 9.0267 9.69913 8.61249 10.4166C8.19827 11.134 8.44409 12.0514 9.16153 12.4656Z" fill="var(--mw-icon-background-default-dark-gray, #A6A6A6)"/>
<path d="M40.3384 30.4656C41.0559 30.8798 41.9733 30.634 42.3875 29.9166C42.8017 29.1991 42.5559 28.2817 41.8384 27.8675C41.121 27.4533 40.2036 27.6991 39.7894 28.4166C39.3752 29.134 39.621 30.0514 40.3384 30.4656Z" fill="var(--mw-icon-background-default-dark-gray, #A6A6A6)"/>
<path d="M24 2.16656C24 2.99499 24.6716 3.66656 25.5 3.66656C26.3284 3.66656 27 2.99499 27 2.16656C27 1.33814 26.3284 0.666565 25.5 0.666565C24.6716 0.666565 24 1.33814 24 2.16656Z" fill="var(--mw-icon-background-default-dark-gray, #A6A6A6)"/>
<path d="M24 38.1666C24 38.995 24.6716 39.6666 25.5 39.6666C26.3284 39.6666 27 38.995 27 38.1666C27 37.3381 26.3284 36.6666 25.5 36.6666C24.6716 36.6666 24 37.3381 24 38.1666Z" fill="var(--mw-icon-background-default-dark-gray, #A6A6A6)"/>
<path d="M43.5 18.6666C42.6716 18.6666 42 19.3381 42 20.1666C42 20.995 42.6716 21.6666 43.5 21.6666C44.3284 21.6666 45 20.995 45 20.1666C45 19.3381 44.3284 18.6666 43.5 18.6666Z" fill="var(--mw-icon-background-default-dark-gray, #A6A6A6)"/>
<path d="M7.5 18.6666C6.67157 18.6666 6 19.3381 6 20.1666C6 20.995 6.67157 21.6666 7.5 21.6666C8.32843 21.6666 9 20.995 9 20.1666C9 19.3381 8.32843 18.6666 7.5 18.6666Z" fill="var(--mw-icon-background-default-dark-gray, #A6A6A6)"/>
<path d="M25.5 4.16663V36.1666M17.5 6.31018L33.5 34.023M11.6436 12.1666L39.3564 28.1666M9.5 20.1666H41.5M11.6436 28.1666L39.3564 12.1666M17.5 34.0231L33.5 6.31026" stroke="var(--mw-icon-background-default-dark-gray, #A6A6A6)"/>
<path d="M29.5 20.1666C29.5 22.3758 27.7091 24.1666 25.5 24.1666C23.2909 24.1666 21.5 22.3758 21.5 20.1666C21.5 17.9575 23.2909 16.1666 25.5 16.1666C27.7091 16.1666 29.5 17.9575 29.5 20.1666Z" stroke="var(--mw-icon-object-primary, #616160)"/>
<path d="M35.5 20.1666C35.5 25.6895 31.0228 30.1666 25.5 30.1666C19.9772 30.1666 15.5 25.6895 15.5 20.1666C15.5 14.6438 19.9772 10.1666 25.5 10.1666C31.0228 10.1666 35.5 14.6438 35.5 20.1666Z" stroke="var(--mw-icon-object-primary, #616160)"/>
<circle cx="25.5" cy="20.1666" r="16" stroke="var(--mw-icon-object-primary, #616160)"/>
</svg>
