<svg width="50" height="40" viewBox="0 0 50 40" fill="none" xmlns="http://www.w3.org/2000/svg">
<circle cx="24.5" cy="19.5" r="16" fill="var(--mw-icon-background-default-white, #FFFFFF)"/>
<circle cx="24.5" cy="19.5" r="7" stroke="var(--mw-icon-background-default-medium-gray, #D9D9D9)"/>
<path d="M24.5 3.5V35.5" stroke="var(--mw-icon-background-default-medium-gray, #D9D9D9)"/>
<path d="M32.5 5.64355L16.5 33.3564" stroke="var(--mw-icon-background-default-medium-gray, #D9D9D9)"/>
<path d="M38.3564 11.5L10.6436 27.5" stroke="var(--mw-icon-background-default-medium-gray, #D9D9D9)"/>
<path d="M16.5 5.64355L32.5 33.3564" stroke="var(--mw-icon-background-default-medium-gray, #D9D9D9)"/>
<path d="M10.6436 11.5L38.3564 27.5" stroke="var(--mw-icon-background-default-medium-gray, #D9D9D9)"/>
<path d="M8.5 19.5L40.5 19.5" stroke="var(--mw-icon-background-default-medium-gray, #D9D9D9)"/>
<circle cx="24.5" cy="19.5" r="16" stroke="var(--mw-icon-border-default-gray, #616161)"/>
<rect x="24" width="1" height="2" fill="var(--mw-icon-border-disabled-gray, #888888)"/>
<rect x="24" y="37" width="1" height="2" fill="var(--mw-icon-border-disabled-gray, #888888)"/>
<rect x="14.3169" y="2.86255" width="1" height="2" transform="rotate(-30 14.3169 2.86255)" fill="var(--mw-icon-border-disabled-gray, #888888)"/>
<rect x="32.8169" y="34.9055" width="1" height="2" transform="rotate(-30 32.8169 34.9055)" fill="var(--mw-icon-border-disabled-gray, #888888)"/>
<rect x="7.3623" y="10.1831" width="1" height="2" transform="rotate(-60 7.3623 10.1831)" fill="var(--mw-icon-border-disabled-gray, #888888)"/>
<rect x="39.4053" y="28.6831" width="1" height="2" transform="rotate(-60 39.4053 28.6831)" fill="var(--mw-icon-border-disabled-gray, #888888)"/>
<rect x="7" y="19" width="1" height="2" transform="rotate(90 7 19)" fill="var(--mw-icon-border-disabled-gray, #888888)"/>
<rect x="44" y="19" width="1" height="2" transform="rotate(90 44 19)" fill="var(--mw-icon-border-disabled-gray, #888888)"/>
<rect x="9.09424" y="27.8169" width="1" height="2" transform="rotate(60 9.09424 27.8169)" fill="var(--mw-icon-border-disabled-gray, #888888)"/>
<rect x="41.1372" y="9.31689" width="1" height="2" transform="rotate(60 41.1372 9.31689)" fill="var(--mw-icon-border-disabled-gray, #888888)"/>
<rect x="15.3169" y="34.4055" width="1" height="2" transform="rotate(30 15.3169 34.4055)" fill="var(--mw-icon-border-disabled-gray, #888888)"/>
<rect x="33.8169" y="2.36255" width="1" height="2" transform="rotate(30 33.8169 2.36255)" fill="var(--mw-icon-border-disabled-gray, #888888)"/>
<path d="M27 11.5L27.5 9.5L30 11L31 10L33.5 12.5L34.5 11.5L36.5 15L37.5 14.5L38.5 19.5L37.5 24.5H36.5L34.5 27.5L33.5 26.5L31 29L30.5 28L27.5 29.5L26.5 27.5H24.5V11.5H27Z" fill="var(--mw-icon-background-default-selection, #B4DEFF)"/>
<path d="M24.5 19.5001L38.5 19.5M24.5 19.5001L37.5 14.5L38.5 19.5M24.5 19.5001L33.3889 12.3889M24.5 19.5001L31 10L33.3889 12.3889M24.5 19.5001L26.9 11.5M24.5 19.5001V11.5H26.9M24.5 19.5001L37.5 24.5001L38.5 19.5M24.5 19.5001L33.3889 26.6112M24.5 19.5001L31 29.0001L33.3889 26.6112M24.5 19.5001L26.9 27.5001M24.5 19.5001V27.5001H26.9M24.5 19.5001L36.6449 24.1712L34.5 27.5001L33.3889 26.6112M33.3889 12.3889L34.5 11.5L36.6449 14.8289M26.9 11.5L27.5 9.5L30.3959 10.8829M26.9 27.5001L27.5 29.5001L30.3959 28.1172" stroke="var(--mw-icon-glyph-content-dark-gray, #333333)" stroke-linejoin="round"/>
</svg>
