<svg width="50" height="40" viewBox="0 0 50 40" fill="none" xmlns="http://www.w3.org/2000/svg">
<rect x="0.5" y="0.5" width="48" height="38" rx="1" fill="var(--mw-icon-background-default-white, white)"/>
<rect x="1" y="1" width="47" height="7" fill="#E6E6E6"/>
<path d="M1 8.5H48" stroke="#BFBFBF"/>
<rect x="4" y="2" width="5" height="5" fill="var(--mw-icon-background-default-dark-gray, #A6A6A6)"/>
<rect x="13" y="2" width="5" height="5" fill="var(--mw-icon-background-default-dark-gray, #A6A6A6)"/>
<rect x="22" y="2" width="5" height="5" fill="var(--mw-icon-background-default-dark-gray, #A6A6A6)"/>
<rect x="31" y="2" width="5" height="5" fill="var(--mw-icon-background-default-dark-gray, #A6A6A6)"/>
<rect x="40" y="2" width="5" height="5" fill="var(--mw-icon-background-default-dark-gray, #A6A6A6)"/>
<line x1="24.5" y1="22" x2="24.5" y2="25" stroke="#0072BD"/>
<line x1="24.5" y1="16" x2="24.5" y2="19" stroke="#0072BD"/>
<line x1="24.5" y1="28" x2="24.5" y2="31" stroke="#0072BD"/>
<line x1="24.5" y1="34" x2="24.5" y2="37" stroke="#0072BD"/>
<line x1="24.5" y1="10" x2="24.5" y2="13" stroke="#0072BD"/>
<line x1="26" y1="23.5" x2="23" y2="23.5" stroke="#0072BD"/>
<line x1="32" y1="23.5" x2="29" y2="23.5" stroke="#0072BD"/>
<line x1="20" y1="23.5" x2="17" y2="23.5" stroke="#0072BD"/>
<line x1="14" y1="23.5" x2="11" y2="23.5" stroke="#0072BD"/>
<path d="M7.5 23.5L5 23.5" stroke="#0072BD"/>
<line x1="2" y1="23.5" x2="1" y2="23.5" stroke="#0072BD"/>
<line x1="38" y1="23.5" x2="35" y2="23.5" stroke="#0072BD"/>
<path d="M44 23.5L41.5 23.5" stroke="#0072BD"/>
<line x1="47" y1="23.5" x2="48" y2="23.5" stroke="#0072BD"/>
<circle cx="24.5" cy="23.5" r="11" stroke="#0072BD" stroke-dasharray="3 4"/>
<circle cx="43.5" cy="23.5" r="2" stroke="#0072BD"/>
<circle cx="5.5" cy="23.5" r="2" stroke="#0072BD"/>
<path d="M36.5 10.5L40.5 14.5" stroke="#0072BD" stroke-linecap="round"/>
<path d="M40.5 10.5L36.5 14.5" stroke="#0072BD" stroke-linecap="round"/>
<path d="M36.5 32.5L40.5 36.5" stroke="#0072BD" stroke-linecap="round"/>
<path d="M40.5 32.5L36.5 36.5" stroke="#0072BD" stroke-linecap="round"/>
<rect x="0.5" y="0.5" width="48" height="38" rx="1" stroke="var(--mw-icon-border-default-gray, #616161)"/>

</svg>
