<svg width="50" height="40" viewBox="0 0 50 40" fill="none" xmlns="http://www.w3.org/2000/svg">
<rect x="0.5" y="0.5" width="48" height="38" rx="1" fill="var(--mw-icon-background-default-white, white)"/>
<path d="M0.5 8C3.85538 8.42769 9.06099 9.06358 15.9286 9.44512C25.6658 9.98607 28.7161 9.44512 30.7956 11.9437C32.8752 14.4422 34.7985 29.6271 38.0476 33.0608C41.2968 36.4946 44.4287 37.1111 48 37.5" stroke="#0072BD"/>
<path d="M0.5 28.5C6.36509 28.5 5.63115 20.5 7.5 20.5C9.74503 20.5 10.1995 32.0376 14.9485 32.0376C18.3039 32.0376 19.6069 25.439 20.1767 21.8155C20.6543 18.7779 21.1298 10.5 23 10.5C24.6387 10.5 26.2956 18.3655 26.9186 21.8155C27.5415 25.2655 29.8771 34.3836 34.6289 36.625C37.8481 38.1435 43.7863 38 48 38" stroke="#D95319"/>
<path d="M1 36.9999C2 36.9999 14.6102 36.9999 17.5 34.4999C20.5076 31.898 19.7434 27.8887 21.5845 27.8887C23.4256 27.8887 23.3121 33.7343 27.2565 36.0835C28.8264 37.0186 31.9178 38.4887 35.3975 38.4887" stroke="#EDB120"/>
<rect x="0.5" y="0.5" width="48" height="38" rx="1" stroke="var(--mw-icon-border-default-gray, #616161)"/>

</svg>
