<svg width="50" height="40" viewBox="0 0 50 40" fill="none" xmlns="http://www.w3.org/2000/svg">
<rect x="0.5" y="0.5" width="48" height="38" rx="1" fill="var(--mw-icon-background-default-white, #FFFFFF)"/>
<path d="M12.5 6.5V32.5M20.5 6.5V32.5M28.5 6.5V32.5M36.5 6.5V32.5" stroke="#D95319"/>
<path d="M43.5 6.5H5.5V32.5H43.5V19V6.5Z" stroke="#EDB120" stroke-linejoin="round"/>
<path d="M18 6.5C18 7.32843 17.3284 8 16.5 8C15.6716 8 15 7.32843 15 6.5C15 5.67157 15.6716 5 16.5 5C17.3284 5 18 5.67157 18 6.5Z" fill="#FF453A"/>
<path d="M18 32.5C18 33.3284 17.3284 34 16.5 34C15.6716 34 15 33.3284 15 32.5C15 31.6716 15.6716 31 16.5 31C17.3284 31 18 31.6716 18 32.5Z" fill="#FF453A"/>
<path d="M34 6.5C34 7.32843 33.3284 8 32.5 8C31.6716 8 31 7.32843 31 6.5C31 5.67157 31.6716 5 32.5 5C33.3284 5 34 5.67157 34 6.5Z" fill="#FF453A"/>
<path d="M34 32.5C34 33.3284 33.3284 34 32.5 34C31.6716 34 31 33.3284 31 32.5C31 31.6716 31.6716 31 32.5 31C33.3284 31 34 31.6716 34 32.5Z" fill="#FF453A"/>
<path d="M34.5 14.5302V13.8884H33.6282V10H33.1068L30.5 13.9442V14.5302H32.8675V16H33.6282V14.5302H34.5ZM32.8675 13.8884H30.9701V13.8512L32.8333 11.014H32.8675V13.8884Z" fill="black"/>
<path d="M30.7805 24.3333C31.1338 23.8493 31.5182 23.5936 32.1416 23.5936C32.7857 23.5936 33.2013 23.9041 33.2013 24.4429C33.2013 25.1826 32.4636 25.6849 31.7571 25.6849H31.5597V26.032H31.7675C32.7649 26.032 33.6481 26.5708 33.6481 27.3836C33.6481 28.2785 33.0143 28.5434 32.3597 28.5434C32.1104 28.5434 31.9649 28.5068 31.5182 28.3059C31.1545 28.1416 31.0714 28.0959 30.9052 28.0959C30.6351 28.0959 30.5 28.3059 30.5 28.4977C30.5 28.7352 30.7286 29 31.6636 29C33.1805 29 34.5 28.3607 34.5 27.1096C34.5 26.2968 33.8039 25.8128 32.9727 25.5845V25.5571C33.6273 25.1918 34.0948 24.8539 34.0948 24.2237C34.0948 23.5297 33.4818 23 32.4221 23C31.5701 23 30.926 23.4201 30.5416 24.2146L30.7805 24.3333Z" fill="black"/>
<path d="M18.5 14.5093H18.2277C18.0117 15.0683 17.8897 15.264 17.392 15.264H16.0869L15.4296 15.2919V15.2453L16.669 14.0807C17.6643 13.0839 18.1995 12.441 18.1995 11.6118C18.1995 10.6335 17.4577 10 16.3967 10C15.4859 10 14.8474 10.5217 14.5563 11.4255L14.7817 11.5186C15.1291 10.8199 15.5423 10.6056 16.1526 10.6056C16.8756 10.6056 17.3263 11.0528 17.3263 11.7516C17.3263 12.7298 16.8568 13.3168 15.9272 14.2671L14.5 15.6832V16H18.1995L18.5 14.5093Z" fill="black"/>
<path d="M18.5 29V28.7371C17.4545 28.7371 17.0341 28.5681 17.0341 28.108V23H16.7045L14.5 23.5164V23.8263C14.8523 23.7324 15.4318 23.6761 15.6591 23.6761C15.9432 23.6761 16.0341 23.8075 16.0341 24.1362V28.108C16.0341 28.5775 15.6364 28.7371 14.5682 28.7371V29H18.5Z" fill="black"/>
<rect x="0.5" y="0.5" width="48" height="38" rx="1" stroke="var(--mw-icon-border-default-gray, #616161)"/>
</svg>
