<svg width="50" height="40" viewBox="0 0 50 40" fill="none" xmlns="http://www.w3.org/2000/svg">
<rect x="0.5" y="0.5" width="48" height="38" rx="1" fill="var(--mw-icon-background-default-white, white)"/>
<circle cx="12" cy="7" r="2" fill="#0072BD"/>
<circle cx="32" cy="10" r="2" fill="#0072BD"/>
<circle cx="46" cy="18" r="2" fill="#0072BD"/>
<circle cx="39" cy="19" r="2" fill="#0072BD"/>
<circle cx="24" cy="20" r="2" fill="#0072BD"/>
<circle cx="15" cy="22" r="2" fill="#0072BD"/>
<circle cx="5" cy="20" r="2" fill="#0072BD"/>
<circle cx="31" cy="29" r="2" fill="#0072BD"/>
<path d="M0.5 21.5C1.72034 19.9444 4.71864 17.5 8.94915 17.5C14.2373 17.5 17.8983 23.5 24.4068 23.5C30.9153 23.5 33.3051 17.5 39 17.5C43.5559 17.5 46.9153 20.7222 48 22.1667" stroke="#D95319" stroke-linecap="round"/>
<path d="M0.10661 12.1914C-0.0638345 12.4086 -0.0258797 12.7229 0.191384 12.8934C0.408647 13.0638 0.722946 13.0259 0.89339 12.8086L0.10661 12.1914ZM47.6002 13.4669C47.766 13.6877 48.0794 13.7323 48.3003 13.5665C48.5211 13.4007 48.5656 13.0872 48.3998 12.8664L47.6002 13.4669ZM1.65866 11.9693C1.8575 11.7777 1.86337 11.4612 1.67176 11.2623C1.48015 11.0635 1.16362 11.0576 0.964772 11.2492L1.65866 11.9693ZM2.95811 9.7118C2.72281 9.85633 2.64922 10.1642 2.79375 10.3995C2.93827 10.6348 3.24618 10.7084 3.48148 10.5639L2.95811 9.7118ZM5.56045 9.57422C5.82116 9.48321 5.95874 9.19808 5.86773 8.93737C5.77672 8.67665 5.4916 8.53908 5.23088 8.63008L5.56045 9.57422ZM7.68866 8.07007C7.41424 8.1008 7.21667 8.34817 7.2474 8.6226C7.27812 8.89703 7.5255 9.09459 7.79992 9.06386L7.68866 8.07007ZM10.2468 9.12816C10.5178 9.18117 10.7804 9.00445 10.8334 8.73344C10.8865 8.46244 10.7097 8.19977 10.4387 8.14676L10.2468 9.12816ZM13.1978 9.13351C12.9508 9.00996 12.6505 9.11001 12.5269 9.35697C12.4034 9.60394 12.5034 9.9043 12.7504 10.0278L13.1978 9.13351ZM15.1354 11.4083C15.3694 11.555 15.6779 11.4841 15.8245 11.2501C15.9712 11.0162 15.9003 10.7076 15.6663 10.561L15.1354 11.4083ZM18.0395 12.0201C17.8002 11.8822 17.4945 11.9643 17.3566 12.2036C17.2186 12.4428 17.3008 12.7486 17.54 12.8865L18.0395 12.0201ZM20.1213 14.1555C20.3784 14.2563 20.6685 14.1295 20.7692 13.8724C20.87 13.6153 20.7432 13.3252 20.4861 13.2245L20.1213 14.1555ZM23.074 13.9108C22.8003 13.874 22.5486 14.066 22.5118 14.3397C22.475 14.6134 22.6671 14.8651 22.9407 14.9019L23.074 13.9108ZM25.8107 14.9077C26.0844 14.871 26.2765 14.6194 26.2399 14.3457C26.2032 14.072 25.9516 13.8799 25.6779 13.9165L25.8107 14.9077ZM28.1234 13.2401C27.869 13.3476 27.75 13.641 27.8575 13.8954C27.965 14.1497 28.2583 14.2688 28.5127 14.1613L28.1234 13.2401ZM30.9394 12.8387C31.1708 12.688 31.2363 12.3783 31.0856 12.1469C30.9349 11.9155 30.6252 11.85 30.3938 12.0007L30.9394 12.8387ZM32.5825 10.4836C32.3559 10.6415 32.3003 10.9532 32.4582 11.1797C32.6161 11.4063 32.9278 11.4619 33.1543 11.304L32.5825 10.4836ZM35.3703 9.92802C35.6163 9.80253 35.714 9.5014 35.5885 9.25542C35.463 9.00943 35.1619 8.91175 34.9159 9.03724L35.3703 9.92802ZM37.5802 8.12108C37.3081 8.16818 37.1257 8.42694 37.1728 8.69904C37.2199 8.97113 37.4786 9.15353 37.7507 9.10643L37.5802 8.12108ZM40.2388 9.08388C40.5125 9.12097 40.7644 8.92922 40.8014 8.65558C40.8385 8.38194 40.6468 8.13004 40.3732 8.09294L40.2388 9.08388ZM43.0165 8.8039C42.7606 8.70014 42.469 8.82349 42.3652 9.0794C42.2615 9.33531 42.3848 9.62687 42.6407 9.73063L43.0165 8.8039ZM44.8483 10.9213C45.0766 11.0768 45.3876 11.0177 45.5431 10.7895C45.6985 10.5613 45.6395 10.2502 45.4112 10.0948L44.8483 10.9213ZM47.4954 11.8306C47.3016 11.6339 46.985 11.6317 46.7883 11.8255C46.5917 12.0194 46.5894 12.3359 46.7832 12.5326L47.4954 11.8306ZM0.89339 12.8086C1.09408 12.5528 1.34995 12.2668 1.65866 11.9693L0.964772 11.2492C0.625052 11.5766 0.337756 11.8967 0.10661 12.1914L0.89339 12.8086ZM3.48148 10.5639C4.09632 10.1863 4.79167 9.84257 5.56045 9.57422L5.23088 8.63008C4.38857 8.92411 3.62857 9.3 2.95811 9.7118L3.48148 10.5639ZM7.79992 9.06386C8.17123 9.02229 8.55445 9 8.94915 9V8C8.51672 8 8.09636 8.02443 7.68866 8.07007L7.79992 9.06386ZM8.94915 9C9.39139 9 9.82264 9.0452 10.2468 9.12816L10.4387 8.14676C9.95586 8.0523 9.46024 8 8.94915 8V9ZM12.7504 10.0278C13.5409 10.4233 14.3247 10.9004 15.1354 11.4083L15.6663 10.561C14.8534 10.0516 14.0346 9.55213 13.1978 9.13351L12.7504 10.0278ZM17.54 12.8865C18.356 13.3569 19.2111 13.7989 20.1213 14.1555L20.4861 13.2245C19.6379 12.8921 18.8297 12.4757 18.0395 12.0201L17.54 12.8865ZM22.9407 14.9019C23.4143 14.9656 23.9025 15 24.4068 15V14C23.9482 14 23.5046 13.9687 23.074 13.9108L22.9407 14.9019ZM24.4068 15C24.895 15 25.3621 14.9678 25.8107 14.9077L25.6779 13.9165C25.2735 13.9707 24.8507 14 24.4068 14V15ZM28.5127 14.1613C29.3884 13.7911 30.1868 13.3287 30.9394 12.8387L30.3938 12.0007C29.6698 12.472 28.9257 12.9011 28.1234 13.2401L28.5127 14.1613ZM33.1543 11.304C33.8916 10.7901 34.6137 10.314 35.3703 9.92802L34.9159 9.03724C34.0965 9.45525 33.329 9.96326 32.5825 10.4836L33.1543 11.304ZM37.7507 9.10643C38.1484 9.03758 38.5634 9 39 9V8C38.5054 8 38.0334 8.04263 37.5802 8.12108L37.7507 9.10643ZM39 9C39.424 9 39.8372 9.02943 40.2388 9.08388L40.3732 8.09294C39.9285 8.03266 39.4704 8 39 8V9ZM42.6407 9.73063C43.4549 10.0607 44.1951 10.4764 44.8483 10.9213L45.4112 10.0948C44.7078 9.61573 43.9053 9.16425 43.0165 8.8039L42.6407 9.73063ZM46.7832 12.5326C47.1339 12.8883 47.4083 13.2114 47.6002 13.4669L48.3998 12.8664C48.1782 12.5713 47.8739 12.2146 47.4954 11.8306L46.7832 12.5326Z" fill="#D95319"/>
<path d="M0.10661 30.1914C-0.0638345 30.4086 -0.0258797 30.7229 0.191384 30.8934C0.408647 31.0638 0.722946 31.0259 0.89339 30.8086L0.10661 30.1914ZM47.6002 31.4669C47.766 31.6877 48.0794 31.7323 48.3003 31.5665C48.5211 31.4007 48.5656 31.0872 48.3998 30.8664L47.6002 31.4669ZM1.65866 29.9693C1.8575 29.7777 1.86337 29.4612 1.67176 29.2623C1.48015 29.0635 1.16362 29.0576 0.964772 29.2492L1.65866 29.9693ZM2.95811 27.7118C2.72281 27.8563 2.64922 28.1642 2.79375 28.3995C2.93827 28.6348 3.24618 28.7084 3.48148 28.5639L2.95811 27.7118ZM5.56045 27.5742C5.82116 27.4832 5.95874 27.1981 5.86773 26.9374C5.77672 26.6767 5.4916 26.5391 5.23088 26.6301L5.56045 27.5742ZM7.68866 26.0701C7.41424 26.1008 7.21667 26.3482 7.2474 26.6226C7.27812 26.897 7.5255 27.0946 7.79992 27.0639L7.68866 26.0701ZM10.2468 27.1282C10.5178 27.1812 10.7804 27.0045 10.8334 26.7334C10.8865 26.4624 10.7097 26.1998 10.4387 26.1468L10.2468 27.1282ZM13.1978 27.1335C12.9508 27.01 12.6505 27.11 12.5269 27.357C12.4034 27.6039 12.5034 27.9043 12.7504 28.0278L13.1978 27.1335ZM15.1354 29.4083C15.3694 29.555 15.6779 29.4841 15.8245 29.2501C15.9712 29.0162 15.9003 28.7076 15.6663 28.561L15.1354 29.4083ZM18.0395 30.0201C17.8002 29.8822 17.4945 29.9643 17.3566 30.2036C17.2186 30.4428 17.3008 30.7486 17.54 30.8865L18.0395 30.0201ZM20.1213 32.1555C20.3784 32.2563 20.6685 32.1295 20.7692 31.8724C20.87 31.6153 20.7432 31.3252 20.4861 31.2245L20.1213 32.1555ZM23.074 31.9108C22.8003 31.874 22.5486 32.066 22.5118 32.3397C22.475 32.6134 22.6671 32.8651 22.9407 32.9019L23.074 31.9108ZM25.8107 32.9077C26.0844 32.871 26.2765 32.6194 26.2399 32.3457C26.2032 32.072 25.9516 31.8799 25.6779 31.9165L25.8107 32.9077ZM28.1234 31.2401C27.869 31.3476 27.75 31.641 27.8575 31.8954C27.965 32.1497 28.2583 32.2688 28.5127 32.1613L28.1234 31.2401ZM30.9394 30.8387C31.1708 30.688 31.2363 30.3783 31.0856 30.1469C30.9349 29.9155 30.6252 29.85 30.3938 30.0007L30.9394 30.8387ZM32.5825 28.4836C32.3559 28.6415 32.3003 28.9532 32.4582 29.1797C32.6161 29.4063 32.9278 29.4619 33.1543 29.304L32.5825 28.4836ZM35.3703 27.928C35.6163 27.8025 35.714 27.5014 35.5885 27.2554C35.463 27.0094 35.1619 26.9117 34.9159 27.0372L35.3703 27.928ZM37.5802 26.1211C37.3081 26.1682 37.1257 26.4269 37.1728 26.699C37.2199 26.9711 37.4786 27.1535 37.7507 27.1064L37.5802 26.1211ZM40.2388 27.0839C40.5125 27.121 40.7644 26.9292 40.8014 26.6556C40.8385 26.3819 40.6468 26.13 40.3732 26.0929L40.2388 27.0839ZM43.0165 26.8039C42.7606 26.7001 42.469 26.8235 42.3652 27.0794C42.2615 27.3353 42.3848 27.6269 42.6407 27.7306L43.0165 26.8039ZM44.8483 28.9213C45.0766 29.0768 45.3876 29.0177 45.5431 28.7895C45.6985 28.5613 45.6395 28.2502 45.4112 28.0948L44.8483 28.9213ZM47.4954 29.8306C47.3016 29.6339 46.985 29.6317 46.7883 29.8255C46.5917 30.0194 46.5894 30.3359 46.7832 30.5326L47.4954 29.8306ZM0.89339 30.8086C1.09408 30.5528 1.34995 30.2668 1.65866 29.9693L0.964772 29.2492C0.625052 29.5766 0.337756 29.8967 0.10661 30.1914L0.89339 30.8086ZM3.48148 28.5639C4.09632 28.1863 4.79167 27.8426 5.56045 27.5742L5.23088 26.6301C4.38857 26.9241 3.62857 27.3 2.95811 27.7118L3.48148 28.5639ZM7.79992 27.0639C8.17123 27.0223 8.55445 27 8.94915 27V26C8.51672 26 8.09636 26.0244 7.68866 26.0701L7.79992 27.0639ZM8.94915 27C9.39139 27 9.82264 27.0452 10.2468 27.1282L10.4387 26.1468C9.95586 26.0523 9.46024 26 8.94915 26V27ZM12.7504 28.0278C13.5409 28.4233 14.3247 28.9004 15.1354 29.4083L15.6663 28.561C14.8534 28.0516 14.0346 27.5521 13.1978 27.1335L12.7504 28.0278ZM17.54 30.8865C18.356 31.3569 19.2111 31.7989 20.1213 32.1555L20.4861 31.2245C19.6379 30.8921 18.8297 30.4757 18.0395 30.0201L17.54 30.8865ZM22.9407 32.9019C23.4143 32.9656 23.9025 33 24.4068 33V32C23.9482 32 23.5046 31.9687 23.074 31.9108L22.9407 32.9019ZM24.4068 33C24.895 33 25.3621 32.9678 25.8107 32.9077L25.6779 31.9165C25.2735 31.9707 24.8507 32 24.4068 32V33ZM28.5127 32.1613C29.3884 31.7911 30.1868 31.3287 30.9394 30.8387L30.3938 30.0007C29.6698 30.472 28.9257 30.9011 28.1234 31.2401L28.5127 32.1613ZM33.1543 29.304C33.8916 28.7901 34.6137 28.314 35.3703 27.928L34.9159 27.0372C34.0965 27.4553 33.329 27.9633 32.5825 28.4836L33.1543 29.304ZM37.7507 27.1064C38.1484 27.0376 38.5634 27 39 27V26C38.5054 26 38.0334 26.0426 37.5802 26.1211L37.7507 27.1064ZM39 27C39.424 27 39.8372 27.0294 40.2388 27.0839L40.3732 26.0929C39.9285 26.0327 39.4704 26 39 26V27ZM42.6407 27.7306C43.4549 28.0607 44.1951 28.4764 44.8483 28.9213L45.4112 28.0948C44.7078 27.6157 43.9053 27.1642 43.0165 26.8039L42.6407 27.7306ZM46.7832 30.5326C47.1339 30.8883 47.4083 31.2114 47.6002 31.4669L48.3998 30.8664C48.1782 30.5713 47.8739 30.2146 47.4954 29.8306L46.7832 30.5326Z" fill="#D95319"/>
<rect x="0.5" y="0.5" width="48" height="38" rx="1" stroke="var(--mw-icon-border-default-gray, #616161)"/>

</svg>
