<svg width="50" height="41" viewBox="0 0 50 41" fill="none" xmlns="http://www.w3.org/2000/svg">
<path d="M5.5 27.5V12.5L24.5 1.5L43.5 12.5V27.5L24.5 38.5L5.5 27.5Z" fill="var(--mw-icon-background-default-white, white)"/>
<path d="M24.5 17L24.5058 2.08363L43.0197 12.7539V27.6225L24.5 17Z" fill="var(--mw-icon-background-default-light-gray, #F5F5F5)"/>
<path d="M24.5 17L24.4942 2.08362L5.98034 12.7675L5.98034 27.6225L24.5 17Z" fill="#E6E6E6"/>
<path d="M43.5 27.5V12.459L24.5 1.5L5.5 12.47" stroke="#BFBFBF" stroke-linecap="round" stroke-linejoin="round"/>
<path d="M5.5 12.5V27.53L24.5 38.5L43.5 27.5352" stroke="var(--mw-icon-border-default-gray, #616161)" stroke-linecap="round" stroke-linejoin="round"/>
<path d="M17.8425 15.6169C17.2389 14.9288 16.4551 14.6418 15.5963 14.5852C14.9496 14.5506 14.3015 14.5528 13.655 14.5918C12.0667 14.6645 10.8757 13.9556 9.98972 12.6209C9.60478 12.0628 9.28146 11.4612 9.02588 10.8275C15.2053 10.8426 21.068 9.44659 26.7279 7C26.9641 7.40493 27.1804 7.77872 27.3985 8.1525C27.1795 8.19781 27.0003 8.35355 26.7569 8.35072C25.7451 8.34223 24.7903 8.81134 23.7703 8.75282C23.717 8.75282 23.6608 8.80002 23.6056 8.82456C22.268 9.42582 20.82 9.62876 19.4742 10.2668C18.5692 10.6982 17.6805 11.1598 16.8253 11.677C16.094 12.1197 16.1366 12.5511 16.9158 12.9041C17.4823 13.1618 18.1185 13.0872 18.714 13.0495C19.5991 12.9938 20.4815 12.8682 21.3639 12.7351C22.5947 12.5464 23.7875 12.2132 24.9975 11.9479C26.4287 11.621 27.8237 11.1411 29.1606 10.516C29.2855 10.4594 29.4158 10.4084 29.4321 10.2329C30.1787 10.6425 30.977 10.9247 31.7517 11.2711C32.5662 11.6298 33.3535 12.0433 33.9707 12.7238C34.9016 13.7439 35.6305 14.9454 36.1156 16.2597L35.5672 16.2899C35.4351 16.4343 35.6314 16.5947 35.4369 16.7429H34.7771C34.3083 17.3461 33.8151 17.6293 33.1571 17.6236C33.177 17.8029 33.1942 17.954 33.2114 18.105C31.6485 18.0512 30.0864 17.9587 28.5316 17.7869C27.2646 17.6462 25.9912 17.6925 24.7224 17.6151C23.0554 17.5207 21.382 17.5207 19.7114 17.5084C19.3666 17.5084 19.1684 17.414 18.9973 17.095C18.6977 16.54 18.343 16.0133 17.8425 15.6169Z" fill="#FEC338"/>
<path d="M15.7445 26.0167C14.8567 25.9516 13.9716 26.097 13.082 26.0347C12.0123 25.9601 11.148 25.491 10.4466 24.6707C9.86377 23.9883 9.41488 23.2143 9.01758 22.311C12.0267 22.2761 14.9563 21.9957 17.8451 21.3454C18.2939 21.7154 18.6638 22.1789 18.9311 22.7065C19.1809 23.2068 19.5266 23.3096 19.999 23.2049C21.3873 23.3587 22.7837 23.2049 24.1756 23.3408C25.0707 23.4267 25.9775 23.3814 26.8789 23.3955C27.7396 23.4814 28.5984 23.6296 29.4609 23.6409C30.9044 23.6608 32.3379 23.7891 33.7715 23.9392C33.7416 24.0931 33.8493 24.1724 33.9389 24.2488C35.0557 25.205 35.6105 26.5472 36.1951 27.8602C36.4929 28.5294 36.7155 29.2345 37.0006 30C36.1191 29.9056 35.3281 29.8112 34.5362 29.7414C32.7515 29.5752 30.9659 29.4393 29.1795 29.3006C26.5486 29.0976 23.9123 29.0788 21.2805 28.9362C21.2506 28.57 21.5339 28.4067 21.7502 28.2406C22.0119 28.0297 22.2542 27.7939 22.4742 27.5364C22.8181 27.1513 22.6869 26.4594 22.2389 26.2282C21.7249 25.9655 21.1614 25.8252 20.5891 25.8176C19.599 25.7968 18.6035 25.7543 17.6197 25.8346C16.9962 25.8874 16.3563 25.8176 15.7445 26.0167Z" fill="#3E26A8"/>
<path d="M33.7711 23.9355C32.3376 23.7854 30.904 23.657 29.4605 23.6372C28.599 23.6259 27.741 23.4777 26.8785 23.3918C26.8613 23.1416 26.9048 22.9491 27.2116 22.9793C27.2641 22.9793 27.3546 22.9566 27.3709 22.9179C27.5347 22.529 27.9428 22.446 28.2207 22.21C28.865 21.6512 29.4877 21.0868 29.932 20.3373C30.2768 19.7606 30.1257 19.299 29.5013 19.0649C28.7664 18.7893 28.0089 18.8157 27.2442 18.8252C26.3292 18.8279 25.4153 18.8884 24.5074 19.0064C23.4838 19.148 22.4566 19.2584 21.4304 19.4028C20.4946 19.535 19.5561 19.6266 18.6167 19.7228C17.604 19.8267 16.594 19.9626 15.5813 20.074C14.8572 20.1532 14.116 20.1334 13.3993 20.3156L13.2074 20.309L13.0771 20.2797C12.0273 20.3033 11.2173 19.7766 10.5186 19.0215C9.87696 18.3268 9.4326 17.4981 9 16.5674C12.0336 16.6098 14.9496 16.2332 17.842 15.6235C18.3424 16.0199 18.6972 16.5466 19.0004 17.1054C19.1705 17.4169 19.3714 17.5113 19.7144 17.5113C21.3851 17.5217 23.063 17.5188 24.7255 17.6179C25.9925 17.6944 27.2677 17.6491 28.5347 17.7897C30.0895 17.9615 31.6516 18.054 33.2145 18.1078C33.3756 18.2173 33.5666 18.1446 33.7367 18.2022C35.3784 19.8559 36.1893 21.9901 36.9803 24.2432L33.7711 23.9355Z" fill="#12B1D6"/>
<path d="M13.4028 20.3156C14.1196 20.1334 14.8581 20.1532 15.5848 20.0739C16.5975 19.9626 17.6075 19.8266 18.6202 19.7228C19.5596 19.6284 20.4981 19.534 21.4339 19.4028C22.4566 19.2584 23.4838 19.148 24.511 19.0064C25.418 18.8885 26.331 18.828 27.245 18.8252C28.0097 18.8157 28.7672 18.7893 29.5021 19.0649C30.1266 19.299 30.2777 19.7606 29.9329 20.3373C29.4804 21.0868 28.8659 21.6512 28.2215 22.21C27.9437 22.4497 27.5355 22.529 27.3717 22.9179C27.3554 22.9566 27.2649 22.984 27.2124 22.9793C26.9056 22.9491 26.8622 23.1416 26.8794 23.3918C25.9744 23.3776 25.0694 23.4229 24.1761 23.337C22.7842 23.2049 21.3878 23.3549 19.9995 23.2011C20.0212 23.1133 20.0167 22.9934 20.071 22.9415C20.3379 22.6876 20.6221 22.4535 20.8963 22.2091C21.0737 22.0488 21.1956 21.8322 21.2435 21.5926C21.2914 21.3531 21.2626 21.1037 21.1615 20.8829C21.1275 20.8029 21.0777 20.7312 21.0153 20.6727C20.9529 20.6141 20.8794 20.57 20.7995 20.5431C20.1805 20.3609 19.566 20.2004 18.9053 20.2354C18.0636 20.2797 17.2193 20.2448 16.3758 20.2542C16.202 20.2542 16.0138 20.1919 15.8545 20.3279C15.04 20.2174 14.221 20.3817 13.4028 20.3156Z" fill="#37C897"/>
<path d="M29.4345 10.2432C29.4164 10.4141 29.2861 10.4651 29.163 10.5264C27.8262 11.1515 26.4311 11.6314 25 11.9583C23.79 12.2235 22.5972 12.5605 21.3664 12.7455C20.484 12.8786 19.6016 13.0041 18.7165 13.0598C18.121 13.0976 17.4848 13.1722 16.9182 12.9145C16.1354 12.5586 16.0928 12.1273 16.8277 11.6874C17.683 11.1701 18.569 10.7086 19.4767 10.2772C20.8188 9.62876 22.2668 9.42582 23.6045 8.82739C23.6597 8.80285 23.7158 8.75282 23.7692 8.75565C24.7891 8.81418 25.7439 8.34506 26.7557 8.35355C26.9992 8.35355 27.1783 8.20064 27.3974 8.15533C27.9367 8.99918 28.5929 9.71749 29.4345 10.2432Z" fill="#FEC338"/>
<path d="M15.7441 26.0167C16.3559 25.8195 16.9958 25.8874 17.6193 25.8365C18.6031 25.7562 19.5986 25.7987 20.5887 25.8195C21.1612 25.825 21.7254 25.9634 22.2403 26.2244C22.6928 26.4557 22.8195 27.1475 22.4756 27.5326C22.2556 27.7902 22.0133 28.0259 21.7516 28.2368C21.5353 28.4029 21.252 28.5662 21.2819 28.9324C20.6828 28.9324 20.0828 28.9221 19.4846 28.9513C19.2239 28.9645 19.1578 28.7909 19.0592 28.6228C18.5786 27.8017 18.0257 27.055 17.2184 26.5463C16.7596 26.2565 16.2509 26.1451 15.7441 26.0167Z" fill="#4852F4"/>
<path d="M15.8579 20.3279C16.0163 20.1919 16.2054 20.2561 16.3792 20.2542C17.2227 20.2448 18.067 20.2797 18.9087 20.2354C19.5694 20.2004 20.1839 20.3609 20.8029 20.5431C20.8828 20.57 20.9563 20.6141 21.0187 20.6727C21.0811 20.7312 21.1309 20.8029 21.1649 20.8829C21.266 21.1037 21.2948 21.3531 21.2469 21.5926C21.199 21.8322 21.0771 22.0488 20.8997 22.2091C20.6282 22.4535 20.3413 22.6876 20.0744 22.9415C20.0201 22.9934 20.0246 23.1133 20.0029 23.2011C19.5305 23.3059 19.1884 23.2011 18.935 22.7027C18.6677 22.1752 18.2978 21.7116 17.8489 21.3416C17.3059 20.7394 16.6172 20.4591 15.8579 20.3279Z" fill="#37C897"/>
<path d="M33.7367 18.1994C33.5665 18.1456 33.3746 18.2182 33.2145 18.105C33.1973 17.954 33.1801 17.8029 33.1602 17.6236C33.8181 17.6293 34.3113 17.3461 34.7801 16.7429H35.4399C35.6345 16.5947 35.4399 16.4343 35.5702 16.2899L36.1186 16.2597C36.3867 16.7747 36.594 17.3218 36.7359 17.8888C36.4209 17.9143 36.1024 17.8369 35.8037 17.9398C35.7331 18.1173 35.8616 18.2324 35.8499 18.3702L33.7367 18.1994Z" fill="#FEC338"/>
<path d="M35.8497 18.3711C35.8614 18.2333 35.7329 18.1182 35.8035 17.9407C36.0986 17.8378 36.4207 17.9152 36.7357 17.8898L36.9837 18.4976C36.5547 18.4806 36.199 18.475 35.8497 18.3711Z" fill="#FEC338"/>
<path d="M13.0806 20.2797L13.2109 20.3088L13.0806 20.2797Z" fill="#3CC88F"/>

</svg>
