<svg width="50" height="40" viewBox="0 0 50 40" fill="none" xmlns="http://www.w3.org/2000/svg">
<rect x="0.5" y="0.5" width="48" height="38" rx="1" fill="var(--mw-icon-background-default-white, white)"/>
<path d="M2.43911 13.7414L2.18141 15.4028C2.13097 15.728 1.66967 15.7472 1.59248 15.4273C1.50903 15.0814 1 15.142 1 15.4977V38C1 38.5523 1.44772 39 2 39H47C47.5523 39 48 38.5523 48 38V24.3342H47.8047H47.4436C46.9605 24.3342 46.5465 23.9888 46.4598 23.5136L45.7723 19.744C45.7252 19.4858 45.5785 19.2564 45.3637 19.1054L44.4222 18.4434C43.9588 18.1176 43.3175 18.2414 43.0087 18.7163L40.2702 22.9277C40.0828 23.2158 39.7607 23.3875 39.417 23.3824L37.9896 23.3613C37.5809 23.3552 37.2097 23.5984 37.0521 23.9755L34.7857 29.3975C34.7506 29.4814 34.7042 29.5601 34.6479 29.6315L33.3668 31.2538L31.2419 33.7308L31.1092 33.937C30.6782 34.607 29.6749 34.5285 29.3533 33.7996L28.6084 32.1112C28.4317 31.7105 27.9535 31.5421 27.5647 31.7436C27.1733 31.9463 26.6922 31.7743 26.518 31.3694L25.7919 29.6812C25.5345 29.0826 24.7825 28.8862 24.2653 29.2824L23.9252 29.5428C23.6922 29.7212 23.3738 29.7393 23.1221 29.5883C22.9306 29.4734 22.8037 29.2757 22.7791 29.0537L22.3942 25.589C22.3251 24.9669 21.5451 24.7296 21.1413 25.2078C20.7889 25.6251 20.1173 25.5072 19.9282 24.9947L18.7557 21.8175C18.6357 21.4922 18.1703 21.5083 18.073 21.8411C18.029 21.9912 17.8931 22.0958 17.7367 22.0997L15.4602 22.1565C15.0854 22.1659 14.7474 22.384 14.5845 22.7216L14.3322 23.2445C14.0017 23.9293 13.0582 24.0094 12.6171 23.3901L12.502 23.2286C12.4485 23.1535 12.3849 23.0861 12.313 23.0285L11.0221 21.9937C10.6628 21.7058 10.1535 21.7003 9.78815 21.9805L9.75154 22.0085C9.17286 22.4522 8.32916 22.1473 8.16784 21.4362L6.48557 14.0201C6.44663 13.8485 6.36308 13.6902 6.24335 13.5611L6.12033 13.4286C5.77444 13.0558 5.18373 13.0587 4.8415 13.4348L4.75464 13.5303C4.46695 13.8464 3.97295 13.8567 3.67242 13.5527L3.51489 13.3934C3.14941 13.0237 2.51879 13.2277 2.43911 13.7414Z" fill="#EDB120"/>
<path d="M0.5 15.5L0.880141 15.6267C1.46636 15.8221 2.08774 15.4444 2.18413 14.834L2.40104 13.4605C2.49665 12.855 3.24022 12.6155 3.67119 13.0514V13.0514C3.97239 13.3561 4.46749 13.3458 4.75582 13.029L4.8415 12.9348C5.18373 12.5587 5.77444 12.5558 6.12033 12.9286L6.24335 13.0611C6.36308 13.1902 6.44663 13.3485 6.48557 13.5201L8.16784 20.9362C8.32916 21.6473 9.17286 21.9522 9.75154 21.5085L9.78815 21.4805C10.1535 21.2003 10.6628 21.2058 11.0221 21.4937L12.313 22.5285C12.3849 22.5861 12.4485 22.6535 12.502 22.7286L12.6171 22.8901C13.0582 23.5094 14.0017 23.4293 14.3322 22.7445L14.5845 22.2216C14.7474 21.884 15.0854 21.6659 15.4602 21.6565L17.7367 21.5997C17.8931 21.5958 18.029 21.4912 18.073 21.3411V21.3411C18.1703 21.0083 18.6357 20.9922 18.7557 21.3175L19.9282 24.4947C20.1173 25.0072 20.7889 25.1251 21.1413 24.7078V24.7078C21.5451 24.2296 22.3251 24.4669 22.3942 25.089L22.7791 28.5537C22.8037 28.7757 22.9306 28.9734 23.1221 29.0883V29.0883C23.3738 29.2393 23.6922 29.2212 23.9252 29.0428L24.2653 28.7824C24.7825 28.3862 25.5345 28.5826 25.7919 29.1812L26.518 30.8694C26.6922 31.2743 27.1733 31.4463 27.5647 31.2436V31.2436C27.9535 31.0421 28.4317 31.2105 28.6085 31.6112L29.3533 33.2996C29.6749 34.0285 30.6782 34.107 31.1092 33.437L31.2419 33.2308L33.3668 30.7538L34.6479 29.1315C34.7042 29.0601 34.7506 28.9814 34.7857 28.8975L37.0521 23.4755C37.2097 23.0984 37.5809 22.8552 37.9896 22.8613L39.417 22.8824C39.7607 22.8875 40.0828 22.7158 40.2702 22.4277L43.0087 18.2163C43.3175 17.7414 43.9587 17.6176 44.4222 17.9434L45.3637 18.6054C45.5785 18.7564 45.7252 18.9858 45.7723 19.244L46.4598 23.0136C46.5465 23.4888 46.9605 23.8342 47.4436 23.8342H48.4612" stroke="#0072BD"/>
<rect x="0.5" y="0.5" width="48" height="38" rx="1" stroke="var(--mw-icon-border-default-gray, #616161)"/>

</svg>
