<svg width="50" height="40" viewBox="0 0 50 40" fill="none" xmlns="http://www.w3.org/2000/svg">
<rect x="0.5" y="0.5" width="48" height="38" rx="1" fill="var(--mw-icon-background-default-white, white)"/>
<path d="M8.5 21C7.5069 21 6.2931 27.5 0.5 27.5V38H48.5C48.5 35.5 42.6138 36.5 35 36.5C25.4828 36.5 24.9828 17 22.5 17C20.0172 17 19.3103 32.5 16 32.5C12.6897 32.5 9.74138 21 8.5 21Z" fill="#EDB120"/>
<path d="M0 27.75C5.7931 27.75 7.69655 20.6667 8.68966 20.6667C9.93103 20.6667 12.8276 32.3333 16.1379 32.3333C19.4483 32.3333 19.8621 16.5 22.3448 16.5C24.8276 16.5 25.2414 36.5 34.7586 36.5C42.3724 36.5 46.7586 36.5 48 36.5" stroke="#0072BD"/>
<rect x="0.5" y="0.5" width="48" height="38" rx="1" stroke="var(--mw-icon-border-default-gray, #616161)"/>

</svg>
