<svg width="50" height="40" viewBox="0 0 50 40" fill="none" xmlns="http://www.w3.org/2000/svg">
<rect x="0.5" y="0.5" width="48" height="38" rx="1" fill="var(--mw-icon-object-secondary, #FFFFFE)" stroke="var(--mw-icon-border-default-gray, #616161)"/>
<path d="M18.3384 20.1484H16.154V18.8626H18.3384C18.676 18.8626 18.9507 18.8114 19.1627 18.7088C19.3747 18.6026 19.5297 18.456 19.6278 18.2692C19.726 18.0824 19.775 17.8718 19.775 17.6374C19.775 17.3993 19.726 17.1777 19.6278 16.9725C19.5297 16.7674 19.3747 16.6026 19.1627 16.478C18.9507 16.3535 18.676 16.2912 18.3384 16.2912H16.7663V23H15V15H18.3384C19.0096 15 19.5847 15.1136 20.0635 15.3407C20.5463 15.5641 20.9153 15.8736 21.1704 16.2692C21.4256 16.6648 21.5531 17.1172 21.5531 17.6264C21.5531 18.1429 21.4256 18.5897 21.1704 18.967C20.9153 19.3443 20.5463 19.6355 20.0635 19.8407C19.5847 20.0458 19.0096 20.1484 18.3384 20.1484Z" fill="var(--mw-icon-object-primary, #616160)"/>
<path d="M26.0102 18.9451V20.1868H22.6836V18.9451H26.0102Z" fill="var(--mw-icon-object-primary, #616160)"/>
<path d="M31.3623 15V23H29.6018V15H31.3623ZM34 15V16.2912H27.0053V15H34Z" fill="var(--mw-icon-object-primary, #616160)"/>
</svg>
