<svg width="50" height="40" viewBox="0 0 50 40" fill="none" xmlns="http://www.w3.org/2000/svg">
<rect x="0.5" y="0.5" width="48" height="38" rx="1" fill="var(--mw-icon-background-default-white, white)"/>
<path d="M10.094 24.7412L5.52536 26.7729L6.59069 23.0159L10.094 24.7412Z" fill="#0072BD"/>
<path d="M11.8064 34.5L7.3064 24.5" stroke="#0072BD" stroke-linecap="round"/>
<path d="M32.094 24.7412L27.5254 26.7729L28.5907 23.0159L32.094 24.7412Z" fill="#0072BD"/>
<path d="M33.8064 34.5L29.3064 24.5" stroke="#0072BD" stroke-linecap="round"/>
<path d="M21.094 24.7412L16.5254 26.7729L17.5907 23.0159L21.094 24.7412Z" fill="#0072BD"/>
<path d="M22.8064 34.5L18.3064 24.5" stroke="#0072BD" stroke-linecap="round"/>
<path d="M43.094 24.7412L38.5254 26.7729L39.5907 23.0159L43.094 24.7412Z" fill="#0072BD"/>
<path d="M44.8064 34.5L40.3064 24.5" stroke="#0072BD" stroke-linecap="round"/>
<path d="M44.4885 4.09424L42.3008 7.44293L41.7203 4.6747L44.4885 4.09424Z" fill="#0072BD"/>
<path d="M45.906 7.40918L42.9759 5.49489" stroke="#0072BD" stroke-width="0.7" stroke-linecap="round"/>
<path d="M33.4885 4.09424L31.3008 7.44293L30.7203 4.6747L33.4885 4.09424Z" fill="#0072BD"/>
<path d="M34.906 7.40918L31.9759 5.49489" stroke="#0072BD" stroke-width="0.7" stroke-linecap="round"/>
<path d="M22.4885 4.09424L20.3008 7.44293L19.7203 4.6747L22.4885 4.09424Z" fill="#0072BD"/>
<path d="M23.906 7.40918L20.9759 5.49489" stroke="#0072BD" stroke-width="0.7" stroke-linecap="round"/>
<path d="M11.4885 4.09424L9.30077 7.44293L8.7203 4.6747L11.4885 4.09424Z" fill="#0072BD"/>
<path d="M12.906 7.40918L9.9759 5.49489" stroke="#0072BD" stroke-width="0.7" stroke-linecap="round"/>
<path d="M44.3054 14.6016L41.1019 16.9969L41.506 14.1974L44.3054 14.6016Z" fill="#0072BD"/>
<path d="M45.3982 19.4033L42.4041 15.3989" stroke="#0072BD" stroke-width="0.7" stroke-linecap="round"/>
<path d="M22.3054 14.6016L19.1019 16.9969L19.506 14.1974L22.3054 14.6016Z" fill="#0072BD"/>
<path d="M23.3982 19.4033L20.4041 15.3989" stroke="#0072BD" stroke-width="0.7" stroke-linecap="round"/>
<path d="M33.3054 14.6016L30.1019 16.9969L30.506 14.1974L33.3054 14.6016Z" fill="#0072BD"/>
<path d="M34.3982 19.4033L31.4041 15.3989" stroke="#0072BD" stroke-width="0.7" stroke-linecap="round"/>
<path d="M11.3054 14.6016L8.10189 16.9969L8.50601 14.1974L11.3054 14.6016Z" fill="#0072BD"/>
<path d="M12.3982 19.4033L9.40408 15.3989" stroke="#0072BD" stroke-width="0.7" stroke-linecap="round"/>
<rect x="0.5" y="0.5" width="48" height="38" rx="1" stroke="var(--mw-icon-border-default-gray, #616161)"/>

</svg>
