<svg width="50" height="40" viewBox="0 0 50 40" fill="none" xmlns="http://www.w3.org/2000/svg">
<rect x="0.5" y="0.5" width="48" height="38" rx="1" fill="var(--mw-icon-background-default-white, #FFFFFF)"/>
<rect x="0.5" y="0.5" width="48" height="38" rx="1" stroke="var(--mw-icon-border-default-gray, #616161)"/>
<path d="M27.5 22.5V33.5C27.5 34.0523 27.0523 34.5 26.5 34.5L7.5 34.5C6.94772 34.5 6.5 34.0523 6.5 33.5L6.5 22.5L15.9042 30.5C16.256 30.7815 16.7527 30.7929 17.1171 30.5279L27.5 22.5Z" fill="white" stroke="var(--mw-icon-glyph-content-gray, #616162)" stroke-linejoin="round"/>
<path d="M17.6292 30.4906L27.5 22.5H6.5L16.3708 30.4906C16.7377 30.7877 17.2623 30.7877 17.6292 30.4906Z" fill="var(--mw-icon-background-default-medium-gray, #D9D9D9)"/>
<path d="M27.5 22.5L27.8146 22.8886C27.9792 22.7553 28.042 22.5328 27.9713 22.3331C27.9006 22.1335 27.7118 22 27.5 22V22.5ZM17.6292 30.4906L17.3146 30.102L17.3146 30.102L17.6292 30.4906ZM16.3708 30.4906L16.0562 30.8793L16.0562 30.8793L16.3708 30.4906ZM6.5 22.5V22C6.28819 22 6.09936 22.1335 6.02867 22.3331C5.95798 22.5328 6.02077 22.7553 6.1854 22.8886L6.5 22.5ZM27.1854 22.1114L17.3146 30.102L17.9438 30.8793L27.8146 22.8886L27.1854 22.1114ZM16.6854 30.102L6.8146 22.1114L6.1854 22.8886L16.0562 30.8793L16.6854 30.102ZM6.5 23H27.5V22H6.5V23ZM17.3146 30.102C17.1312 30.2505 16.8688 30.2505 16.6854 30.102L16.0562 30.8793C16.6065 31.3248 17.3935 31.3248 17.9438 30.8793L17.3146 30.102Z" fill="var(--mw-icon-glyph-content-gray, #616162)"/>
<path d="M26.5539 34.5H7.44614C7.1212 34.5 6.97165 34.0957 7.21836 33.8843L16.3492 26.0578C16.7237 25.7368 17.2763 25.7368 17.6508 26.0578L26.7816 33.8843C27.0284 34.0957 26.8788 34.5 26.5539 34.5Z" fill="white"/>
<path d="M26.7816 33.8843L27.107 33.5046L27.107 33.5046L26.7816 33.8843ZM17.6508 26.0578L17.9762 25.6782L17.9762 25.6782L17.6508 26.0578ZM16.3492 26.0578L16.0238 25.6782L16.0238 25.6782L16.3492 26.0578ZM7.21836 33.8843L7.54376 34.2639L7.54376 34.2639L7.21836 33.8843ZM7.44614 35H26.5539V34H7.44614V35ZM27.107 33.5046L17.9762 25.6782L17.3254 26.4374L26.4562 34.2639L27.107 33.5046ZM16.0238 25.6782L6.89297 33.5046L7.54376 34.2639L16.6746 26.4374L16.0238 25.6782ZM17.9762 25.6782C17.4145 25.1967 16.5855 25.1967 16.0238 25.6782L16.6746 26.4374C16.8618 26.277 17.1382 26.277 17.3254 26.4374L17.9762 25.6782ZM26.5539 35C27.343 35 27.7062 34.0182 27.107 33.5046L26.4562 34.2639C26.3505 34.1733 26.4146 34 26.5539 34V35ZM7.44614 34C7.5854 34 7.64949 34.1733 7.54376 34.2639L6.89297 33.5046C6.2938 34.0182 6.65699 35 7.44614 35V34Z" fill="var(--mw-icon-glyph-content-gray, #616162)"/>
<path d="M6.5 22.5H27.5L18.4467 13.0156C17.6588 12.1902 16.3412 12.1902 15.5533 13.0156L6.5 22.5Z" fill="var(--mw-icon-background-default-dark-gray, #A6A6A6)"/>
<path d="M27.5 22.5V23C27.7001 23 27.881 22.8807 27.9597 22.6967C28.0384 22.5127 27.9999 22.2995 27.8617 22.1548L27.5 22.5ZM6.5 22.5L6.13832 22.1548C6.00015 22.2995 5.96159 22.5127 6.04032 22.6967C6.11904 22.8807 6.29988 23 6.5 23V22.5ZM15.5533 13.0156L15.1916 12.6704L15.1916 12.6704L15.5533 13.0156ZM18.4467 13.0156L18.8084 12.6704L18.8084 12.6704L18.4467 13.0156ZM27.5 22H6.5V23H27.5V22ZM6.86168 22.8452L15.915 13.3608L15.1916 12.6704L6.13832 22.1548L6.86168 22.8452ZM18.085 13.3608L27.1383 22.8452L27.8617 22.1548L18.8084 12.6704L18.085 13.3608ZM15.915 13.3608C16.5059 12.7418 17.4941 12.7418 18.085 13.3608L18.8084 12.6704C17.8235 11.6386 16.1765 11.6386 15.1916 12.6704L15.915 13.3608Z" fill="var(--mw-icon-glyph-content-gray, #616162)"/>
<path d="M26.5 4.5H40.5C41.6046 4.5 42.5 5.39543 42.5 6.5V26.5C42.5 27.6046 41.6046 28.5 40.5 28.5H26.5C25.3954 28.5 24.5 27.6046 24.5 26.5V6.5C24.5 5.39543 25.3954 4.5 26.5 4.5Z" fill="white" stroke="var(--mw-icon-border-default-gray, #616161)" stroke-linecap="round"/>
<path d="M34.4545 10.5H29.5" stroke="#A709F5" stroke-linecap="round"/>
<path d="M31.5 7.5H26.5M31.5 19.5H26.5" stroke="var(--mw-icon-glyph-content-green, #008014)" stroke-linecap="round"/>
<path d="M34.5 22.5H29.5" stroke="var(--mw-icon-glyph-content-blue, #1656A8)" stroke-linecap="round"/>
<path d="M34.5 25.5H29.5" stroke="var(--mw-icon-glyph-content-blue, #1656A8)" stroke-linecap="round"/>
<path d="M38.5 13.5H35.7477H33.5" stroke="var(--mw-icon-glyph-content-gray, #616162)" stroke-linecap="round"/>
<path d="M38.5 16.5H35.7477H33.5" stroke="var(--mw-icon-glyph-content-gray, #616162)" stroke-linecap="round"/>
<path d="M31.5 16.5L29.5 16.5" stroke="#0E00FF" stroke-linecap="round"/>
<path d="M31.5 13.5L29.5 13.5" stroke="#0E00FF" stroke-linecap="round"/>
</svg>
