<svg width="51" height="40" viewBox="0 0 51 40" fill="none" xmlns="http://www.w3.org/2000/svg">
<path d="M6 27V12L25 1L44 12V27L25 38L6 27Z" fill="var(--mw-icon-background-default-white, #FFFFFF)"/>
<path d="M25 16.4999L25.0058 1.5835L43.5197 12.2538V27.1224L25 16.4999Z" fill="var(--mw-icon-background-default-light-gray, #F5F5F5)"/>
<path d="M25 16.4999L24.9942 1.5835L6.48034 12.2674L6.48034 27.1224L25 16.4999Z" fill="#E6E6E6"/>
<path d="M44 27V11.959L25 1L6 11.97" stroke="#BFBFBF" stroke-linecap="round" stroke-linejoin="round"/>
<path d="M6 12V27.03L25 38L44 27.0352" stroke="var(--mw-icon-border-default-gray, #616161)" stroke-linecap="round" stroke-linejoin="round"/>
<path d="M25.8756 8L14.7227 14.4151L20.4514 31L31.4589 24.2044L28.6256 15.6495L25.8756 8Z" fill="#FEC04C" stroke="#745A26" stroke-linejoin="round"/>
<path d="M35.2774 11.79L28.6803 15.6495L22.683 19.1691L20.5061 31L32.73 23.8876L35.2774 11.79Z" fill="#EDB120" stroke="#745A26" stroke-linejoin="round"/>
</svg>
