<svg width="51" height="40" viewBox="0 0 51 40" fill="none" xmlns="http://www.w3.org/2000/svg">
<path d="M6 27V12L25 1L44 12V27L25 38L6 27Z" fill="var(--mw-icon-background-default-white, #FFFFFF)"/>
<path d="M25 16.4999L25.0058 1.5835L43.5197 12.2538V27.1224L25 16.4999Z" fill="var(--mw-icon-background-default-light-gray, #F5F5F5)"/>
<path d="M25 16.4999L24.9942 1.5835L6.48034 12.2674L6.48034 27.1224L25 16.4999Z" fill="#E6E6E6"/>
<path d="M44 27V11.959L25 1L6 11.97" stroke="#BFBFBF" stroke-linecap="round" stroke-linejoin="round"/>
<path d="M6 12V27.03L25 38L44 27.0352" stroke="var(--mw-icon-border-default-gray, #616161)" stroke-linecap="round" stroke-linejoin="round"/>
<path d="M25.0122 29.4528C32.7442 29.4528 38.5 25.4219 38.5 21H11.5C11.5 25.4219 17.2802 29.4528 25.0122 29.4528Z" fill="#EDB120" stroke="#745A26"/>
<path d="M38.5049 20.5C38.5049 23.2614 32.4607 25.5 25.0049 25.5C17.549 25.5 11.4968 23.2614 11.4968 20.5C11.4968 17.7386 17.549 15.5 25.0049 15.5C32.4607 15.5 38.5049 17.7386 38.5049 20.5Z" fill="#FFDB9A" stroke="#745A26" stroke-linejoin="round"/>
</svg>
