<svg width="50" height="40" viewBox="0 0 50 40" fill="none" xmlns="http://www.w3.org/2000/svg">
<path d="M5.5 27V12L24.5 1L43.5 12V27L24.5 38L5.5 27Z" fill="var(--mw-icon-background-default-white, #FFFFFF)"/>
<path d="M24.5 16.4999L24.5058 1.5835L43.0197 12.2538V27.1224L24.5 16.4999Z" fill="var(--mw-icon-background-default-light-gray, #F5F5F5)"/>
<path d="M24.5 16.4999L24.4942 1.5835L5.98034 12.2674L5.98034 27.1224L24.5 16.4999Z" fill="#E6E6E6"/>
<path d="M43.5 27V11.959L24.5 1L5.5 11.97" stroke="#BFBFBF" stroke-linecap="round" stroke-linejoin="round"/>
<path d="M5.5 12V27.03L24.5 38L43.5 27.0352" stroke="var(--mw-icon-border-default-gray, #616161)" stroke-linecap="round" stroke-linejoin="round"/>
<path d="M38.51 18.0229C38.51 20.7167 37.3391 27.3362 29.895 30.2844C28.2318 30.9431 25.6532 30.8286 24.2588 29.7787C20.7032 27.6069 12.7614 23.1191 10.5996 21.7928C9.09961 20.8725 8.14702 17.4607 8.09961 16.7699L15.5939 20.9524C18.5713 20.4315 23.5166 15.7737 23.5166 9.30615L38.51 18.0229Z" fill="#EDB120"/>
<path d="M15.5939 20.9524C18.5713 20.4315 23.5166 15.7737 23.5166 9.30615L38.51 18.0229C38.51 20.7167 37.3391 27.3362 29.895 30.2844C28.2318 30.9431 25.6532 30.8286 24.2588 29.7787M24.2588 29.7787C23.0367 28.8584 22.8432 25.8302 22.5996 24.8623L8.09961 16.7699C8.14702 17.4607 9.09961 20.8725 10.5996 21.7928C12.7614 23.1191 20.7032 27.6069 24.2588 29.7787Z" stroke="#745A26" stroke-linejoin="round"/>
<path d="M22.1532 25.1655L8.8186 17.7275C9.02428 19.4069 10.1246 20.8315 10.7734 21.324C14.9291 23.7945 23.1891 28.7454 22.8691 28.3489C22.6094 28.0271 22.3008 25.7849 22.1532 25.1655Z" fill="#B3882A"/>
</svg>
