<svg width="50" height="40" viewBox="0 0 50 40" fill="none" xmlns="http://www.w3.org/2000/svg">
<path d="M5.5 27V12L24.5 1L43.5 12V27L24.5 38L5.5 27Z" fill="var(--mw-icon-background-default-white, #FFFFFF)"/>
<path d="M24.5 16.4999L24.5058 1.5835L43.0197 12.2538V27.1224L24.5 16.4999Z" fill="var(--mw-icon-background-default-light-gray, #F5F5F5)"/>
<path d="M24.5 16.4999L24.4942 1.5835L5.98034 12.2674L5.98034 27.1224L24.5 16.4999Z" fill="#E6E6E6"/>
<path d="M43.5 27V11.959L24.5 1L5.5 11.97" stroke="#BFBFBF" stroke-linecap="round" stroke-linejoin="round"/>
<path d="M5.5 12V27.03L24.5 38L43.5 27.0352" stroke="var(--mw-icon-border-default-gray, #616161)" stroke-linecap="round" stroke-linejoin="round"/>
<path d="M34.3995 13.8431C39.8668 16.9673 39.8668 22.0326 34.3995 25.1568C28.9322 28.281 20.0679 28.281 14.6005 25.1568C9.13322 22.0326 9.13322 16.9673 14.6005 13.8431C20.0679 10.719 28.9322 10.719 34.3995 13.8431Z" fill="#EDB120" stroke="#745A26"/>
</svg>
