<svg width="50" height="40" viewBox="0 0 50 40" fill="none" xmlns="http://www.w3.org/2000/svg">
<path d="M0.5 1.5C0.5 0.947716 0.947715 0.5 1.5 0.5H47.5C48.0523 0.5 48.5 0.947715 48.5 1.5V37.5C48.5 38.0523 48.0523 38.5 47.5 38.5H1.5C0.947714 38.5 0.5 38.0523 0.5 37.5V1.5Z" fill="var(--mw-icon-background-default-white, #FFFFFF)"/>
<rect x="0.5" y="0.5" width="48" height="38" rx="1" stroke="var(--mw-icon-border-default-gray, #616161)"/>
<path d="M20 25V12.8824C20 11.0006 20.5021 9.71218 21.5063 9.017C22.5105 8.31584 23.6216 7.96525 24.8397 7.96525C26.0706 7.96525 27.1072 8.28288 27.9495 8.91812C28.7917 9.54737 29.2128 10.3684 29.2128 11.3812C29.2128 12.0404 28.9861 12.6217 28.5326 13.1251C28.079 13.6225 27.5154 13.9491 26.8416 14.105C27.93 14.2728 28.7269 14.7072 29.2323 15.4084C29.7441 16.1036 30 16.8797 30 17.7366C30 18.7914 29.6566 19.6963 28.9699 20.4514C28.2831 21.2065 27.3469 21.5841 26.1613 21.5841C24.7943 21.5841 23.6508 21.0477 22.7308 19.975V25H20ZM23.965 13.5296C24.7943 13.5177 25.4422 13.3349 25.9086 12.9813C26.3751 12.6277 26.6084 12.1782 26.6084 11.6329C26.6084 11.1355 26.4205 10.734 26.0447 10.4283C25.6754 10.1167 25.2284 9.96088 24.7036 9.96088C24.2501 9.96088 23.8614 10.0897 23.5374 10.3474C23.22 10.5991 23.0062 10.9257 22.896 11.3273C22.7859 11.7288 22.7308 12.3161 22.7308 13.0892V15.8039C22.7308 16.619 22.8053 17.2752 22.9543 17.7726C23.1098 18.264 23.4176 18.6895 23.8776 19.0491C24.3375 19.4086 24.8364 19.5884 25.3741 19.5884C25.8925 19.5884 26.3265 19.4116 26.6764 19.0581C27.0262 18.6985 27.2012 18.24 27.2012 17.6827C27.2012 16.8677 26.9355 16.2055 26.4043 15.6961C25.8795 15.1867 25.0664 14.932 23.965 14.932V13.5296Z" fill="var(--mw-icon-glyph-content-light-blue, #278CDD)"/>
<path d="M21.6151 6.65185L23.6559 4H26.1826L28.1943 6.65185H25.998L24.8707 5.31244L23.8211 6.65185H21.6151Z" fill="var(--mw-icon-glyph-content-light-blue, #278CDD)"/>
<path d="M4 28H6.61699C7.15356 28 7.61462 28.0797 8.00018 28.2391C8.38896 28.3985 8.68777 28.6344 8.89661 28.9469C9.10546 29.2593 9.20988 29.6435 9.20988 30.0994C9.20988 30.4724 9.14562 30.7928 9.0171 31.0606C8.89179 31.3252 8.71347 31.5468 8.48213 31.7253C8.25401 31.9006 7.98573 32.0409 7.67728 32.1461L7.21942 32.3852H4.94462L4.93498 31.2662H6.62663C6.88045 31.2662 7.0909 31.2216 7.25798 31.1323C7.42506 31.043 7.55036 30.9187 7.6339 30.7593C7.72065 30.5999 7.76403 30.415 7.76403 30.2046C7.76403 29.9814 7.72226 29.7885 7.63872 29.6259C7.55518 29.4633 7.42827 29.339 7.25798 29.2529C7.08769 29.1668 6.87403 29.1238 6.61699 29.1238H5.44585V34.9628H4V28ZM7.92307 34.9628L6.323 31.8592L7.85078 31.8496L9.47013 34.8959V34.9628H7.92307Z" fill="var(--mw-icon-glyph-content-dark-gray, #333333)"/>
<path d="M12.143 35.0584C11.7382 35.0584 11.3751 34.9947 11.0538 34.8672C10.7325 34.7365 10.4594 34.5563 10.2345 34.3268C10.0128 34.0972 9.84252 33.831 9.72364 33.5282C9.60476 33.2221 9.54531 32.8969 9.54531 32.5526V32.3613C9.54531 31.9692 9.60154 31.6105 9.714 31.2853C9.82645 30.9601 9.9871 30.678 10.1959 30.4389C10.408 30.1998 10.665 30.0165 10.9671 29.8889C11.2691 29.7582 11.6097 29.6929 11.9888 29.6929C12.3583 29.6929 12.686 29.7535 12.972 29.8746C13.2579 29.9957 13.4973 30.1679 13.6901 30.3911C13.8861 30.6142 14.0339 30.882 14.1335 31.1945C14.2331 31.5037 14.2829 31.848 14.2829 32.2274V32.8013H10.1381V31.8831H12.919V31.7779C12.919 31.5866 12.8836 31.416 12.8129 31.2662C12.7455 31.1132 12.6426 30.992 12.5045 30.9028C12.3663 30.8135 12.1896 30.7689 11.9743 30.7689C11.7912 30.7689 11.6338 30.8087 11.502 30.8884C11.3703 30.9681 11.2627 31.0797 11.1791 31.2232C11.0988 31.3666 11.0378 31.5356 10.996 31.7301C10.9574 31.9214 10.9381 32.1318 10.9381 32.3613V32.5526C10.9381 32.7598 10.9671 32.9511 11.0249 33.1265C11.0859 33.3018 11.1711 33.4532 11.2803 33.5808C11.3928 33.7083 11.5277 33.8071 11.6852 33.8773C11.8458 33.9474 12.0274 33.9825 12.2298 33.9825C12.4804 33.9825 12.7133 33.9346 12.9286 33.839C13.1471 33.7402 13.335 33.5919 13.4925 33.3943L14.1672 34.1211C14.058 34.2774 13.9086 34.4272 13.719 34.5707C13.5326 34.7141 13.3077 34.8321 13.0443 34.9245C12.7808 35.0138 12.4804 35.0584 12.143 35.0584Z" fill="var(--mw-icon-glyph-content-dark-gray, #333333)"/>
<path d="M17.8811 29.7885H19.139V34.7906C19.139 35.2625 19.033 35.6626 18.8209 35.991C18.6121 36.3225 18.3197 36.5728 17.9438 36.7418C17.5679 36.9139 17.1309 37 16.6329 37C16.4144 37 16.183 36.9713 15.9389 36.9139C15.6979 36.8565 15.4665 36.7673 15.2449 36.6461C15.0264 36.525 14.8432 36.3719 14.6954 36.187L15.3075 35.3741C15.4682 35.559 15.6545 35.7024 15.8666 35.8045C16.0786 35.9097 16.3132 35.9623 16.5702 35.9623C16.8208 35.9623 17.0329 35.916 17.2064 35.8236C17.3799 35.7343 17.5132 35.602 17.6064 35.4267C17.6996 35.2545 17.7462 35.0457 17.7462 34.8002V30.9841L17.8811 29.7885ZM14.3725 32.4378V32.3374C14.3725 31.9421 14.4207 31.5834 14.5171 31.2614C14.6167 30.9362 14.7565 30.6573 14.9364 30.4245C15.1195 30.1918 15.3412 30.0117 15.6015 29.8842C15.8617 29.7566 16.1557 29.6929 16.4835 29.6929C16.8305 29.6929 17.1212 29.7566 17.3558 29.8842C17.5903 30.0117 17.7831 30.1934 17.9341 30.4293C18.0851 30.6621 18.2024 30.9378 18.286 31.2566C18.3727 31.5723 18.4402 31.9182 18.4884 32.2944V32.5143C18.4402 32.8746 18.3679 33.2094 18.2715 33.5186C18.1751 33.8278 18.0482 34.0988 17.8908 34.3316C17.7333 34.5611 17.5373 34.7396 17.3028 34.8672C17.0714 34.9947 16.7951 35.0584 16.4738 35.0584C16.1525 35.0584 15.8617 34.9931 15.6015 34.8624C15.3445 34.7317 15.1244 34.5484 14.9412 34.3124C14.7581 34.0765 14.6167 33.7991 14.5171 33.4803C14.4207 33.1615 14.3725 32.814 14.3725 32.4378ZM15.7605 32.3374V32.4378C15.7605 32.6514 15.7814 32.8507 15.8232 33.0356C15.865 33.2205 15.9292 33.3847 16.016 33.5282C16.1059 33.6684 16.2168 33.7784 16.3485 33.8581C16.4835 33.9346 16.6425 33.9729 16.8256 33.9729C17.0795 33.9729 17.2867 33.9203 17.4474 33.8151C17.608 33.7067 17.7285 33.5584 17.8088 33.3704C17.8892 33.1823 17.9357 32.9655 17.9486 32.72V32.0935C17.9422 31.8927 17.9149 31.7125 17.8667 31.5531C17.8185 31.3905 17.751 31.2519 17.6642 31.1371C17.5775 31.0223 17.465 30.933 17.3269 30.8693C17.1887 30.8055 17.0249 30.7736 16.8353 30.7736C16.6521 30.7736 16.4931 30.8151 16.3582 30.898C16.2264 30.9777 16.1156 31.0877 16.0256 31.2279C15.9389 31.3682 15.873 31.534 15.828 31.7253C15.783 31.9134 15.7605 32.1174 15.7605 32.3374Z" fill="var(--mw-icon-glyph-content-dark-gray, #333333)"/>
<path d="M22.665 29.1908L20.7564 34.9628H19.219L21.8264 28H22.8047L22.665 29.1908ZM24.2506 34.9628L22.3372 29.1908L22.183 28H23.171L25.7928 34.9628H24.2506ZM24.1638 32.3709V33.4947H20.4576V32.3709H24.1638Z" fill="var(--mw-icon-glyph-content-dark-gray, #333333)"/>
<path d="M25.9499 28H28.5669C29.1035 28 29.5645 28.0797 29.9501 28.2391C30.3389 28.3985 30.6377 28.6344 30.8465 28.9469C31.0554 29.2593 31.1598 29.6435 31.1598 30.0994C31.1598 30.4724 31.0955 30.7928 30.967 31.0606C30.8417 31.3252 30.6634 31.5468 30.4321 31.7253C30.2039 31.9006 29.9356 32.0409 29.6272 32.1461L29.1693 32.3852H26.8945L26.8849 31.2662H28.5765C28.8304 31.2662 29.0408 31.2216 29.2079 31.1323C29.375 31.043 29.5003 30.9187 29.5838 30.7593C29.6706 30.5999 29.714 30.415 29.714 30.2046C29.714 29.9814 29.6722 29.7885 29.5886 29.6259C29.5051 29.4633 29.3782 29.339 29.2079 29.2529C29.0376 29.1668 28.8239 29.1238 28.5669 29.1238H27.3958V34.9628H25.9499V28ZM29.873 34.9628L28.2729 31.8592L29.8007 31.8496L31.4201 34.8959V34.9628H29.873Z" fill="var(--mw-icon-glyph-content-dark-gray, #333333)"/>
<path d="M32.4399 28H33.664L35.4665 33.1121L37.269 28H38.4931L35.9581 34.9628H34.9749L32.4399 28ZM31.7796 28H32.9989L33.2206 32.983V34.9628H31.7796V28ZM37.9341 28H39.1582V34.9628H37.7124V32.983L37.9341 28Z" fill="var(--mw-icon-glyph-content-dark-gray, #333333)"/>
<path d="M42.8721 29.1908L40.9636 34.9628H39.4262L42.0336 28H43.0119L42.8721 29.1908ZM44.4578 34.9628L42.5444 29.1908L42.3902 28H43.3782L46 34.9628H44.4578ZM44.371 32.3709V33.4947H40.6648V32.3709H44.371Z" fill="var(--mw-icon-glyph-content-dark-gray, #333333)"/>
</svg>
