<svg width="50" height="40" viewBox="0 0 50 40" fill="none" xmlns="http://www.w3.org/2000/svg">
<rect x="0.5" y="0.5" width="48" height="38" rx="1" fill="var(--mw-icon-background-default-white, white)"/>
<path d="M3 19.5C3 19.7761 3.22386 20 3.5 20C3.77614 20 4 19.7761 4 19.5C4 19.2239 3.77614 19 3.5 19C3.22386 19 3 19.2239 3 19.5Z" fill="#7D7D7D"/>
<path d="M3 22.5C3 22.7761 3.22386 23 3.5 23C3.77614 23 4 22.7761 4 22.5C4 22.2239 3.77614 22 3.5 22C3.22386 22 3 22.2239 3 22.5Z" fill="#7D7D7D"/>
<path d="M3 25.5C3 25.7761 3.22386 26 3.5 26C3.77614 26 4 25.7761 4 25.5C4 25.2239 3.77614 25 3.5 25C3.22386 25 3 25.2239 3 25.5Z" fill="#7D7D7D"/>
<path d="M3 28.5C3 28.7761 3.22386 29 3.5 29C3.77614 29 4 28.7761 4 28.5C4 28.2239 3.77614 28 3.5 28C3.22386 28 3 28.2239 3 28.5Z" fill="#7D7D7D"/>
<path d="M3 31.5C3 31.7761 3.22386 32 3.5 32C3.77614 32 4 31.7761 4 31.5C4 31.2239 3.77614 31 3.5 31C3.22386 31 3 31.2239 3 31.5Z" fill="#7D7D7D"/>
<path d="M3 34.5C3 34.7761 3.22386 35 3.5 35C3.77614 35 4 34.7761 4 34.5C4 34.2239 3.77614 34 3.5 34C3.22386 34 3 34.2239 3 34.5Z" fill="#7D7D7D"/>
<path d="M3 16.5312C3 16.8074 3.22386 17.0312 3.5 17.0312C3.77614 17.0312 4 16.8074 4 16.5312C4 16.2551 3.77614 16.0312 3.5 16.0312C3.22386 16.0312 3 16.2551 3 16.5312Z" fill="#7D7D7D"/>
<path d="M3 10.5C3 10.7761 3.22386 11 3.5 11C3.77614 11 4 10.7761 4 10.5C4 10.2239 3.77614 10 3.5 10C3.22386 10 3 10.2239 3 10.5Z" fill="#7D7D7D"/>
<path d="M3 13.5C3 13.7761 3.22386 14 3.5 14C3.77614 14 4 13.7761 4 13.5C4 13.2239 3.77614 13 3.5 13C3.22386 13 3 13.2239 3 13.5Z" fill="#7D7D7D"/>
<path d="M3 7.5C3 7.77614 3.22386 8 3.5 8C3.77614 8 4 7.77614 4 7.5C4 7.22386 3.77614 7 3.5 7C3.22386 7 3 7.22386 3 7.5Z" fill="#7D7D7D"/>
<path d="M7 19.5C7 19.7761 7.22386 20 7.5 20C7.77614 20 8 19.7761 8 19.5C8 19.2239 7.77614 19 7.5 19C7.22386 19 7 19.2239 7 19.5Z" fill="#7D7D7D"/>
<path d="M7 25.5C7 25.7761 7.22386 26 7.5 26C7.77614 26 8 25.7761 8 25.5C8 25.2239 7.77614 25 7.5 25C7.22386 25 7 25.2239 7 25.5Z" fill="#7D7D7D"/>
<path d="M7 31.5C7 31.7761 7.22386 32 7.5 32C7.77614 32 8 31.7761 8 31.5C8 31.2239 7.77614 31 7.5 31C7.22386 31 7 31.2239 7 31.5Z" fill="#7D7D7D"/>
<path d="M7 13.5C7 13.7761 7.22386 14 7.5 14C7.77614 14 8 13.7761 8 13.5C8 13.2239 7.77614 13 7.5 13C7.22386 13 7 13.2239 7 13.5Z" fill="#7D7D7D"/>
<path d="M7 7.5C7 7.77614 7.22386 8 7.5 8C7.77614 8 8 7.77614 8 7.5C8 7.22386 7.77614 7 7.5 7C7.22386 7 7 7.22386 7 7.5Z" fill="#7D7D7D"/>
<path d="M3 4.5C3 4.77614 3.22386 5 3.5 5C3.77614 5 4 4.77614 4 4.5C4 4.22386 3.77614 4 3.5 4C3.22386 4 3 4.22386 3 4.5Z" fill="#7D7D7D"/>
<path d="M11 19.5C11 19.7761 11.2239 20 11.5 20C11.7761 20 12 19.7761 12 19.5C12 19.2239 11.7761 19 11.5 19C11.2239 19 11 19.2239 11 19.5Z" fill="#7D7D7D"/>
<path d="M11 22.5C11 22.7761 11.2239 23 11.5 23C11.7761 23 12 22.7761 12 22.5C12 22.2239 11.7761 22 11.5 22C11.2239 22 11 22.2239 11 22.5Z" fill="#7D7D7D"/>
<path d="M11 25.5C11 25.7761 11.2239 26 11.5 26C11.7761 26 12 25.7761 12 25.5C12 25.2239 11.7761 25 11.5 25C11.2239 25 11 25.2239 11 25.5Z" fill="#7D7D7D"/>
<path d="M11 28.5C11 28.7761 11.2239 29 11.5 29C11.7761 29 12 28.7761 12 28.5C12 28.2239 11.7761 28 11.5 28C11.2239 28 11 28.2239 11 28.5Z" fill="#7D7D7D"/>
<path d="M11 31.5C11 31.7761 11.2239 32 11.5 32C11.7761 32 12 31.7761 12 31.5C12 31.2239 11.7761 31 11.5 31C11.2239 31 11 31.2239 11 31.5Z" fill="#7D7D7D"/>
<path d="M11 34.5C11 34.7761 11.2239 35 11.5 35C11.7761 35 12 34.7761 12 34.5C12 34.2239 11.7761 34 11.5 34C11.2239 34 11 34.2239 11 34.5Z" fill="#7D7D7D"/>
<path d="M11 16.5C11 16.7761 11.2239 17 11.5 17C11.7761 17 12 16.7761 12 16.5C12 16.2239 11.7761 16 11.5 16C11.2239 16 11 16.2239 11 16.5Z" fill="#7D7D7D"/>
<path d="M11 10.5C11 10.7761 11.2239 11 11.5 11C11.7761 11 12 10.7761 12 10.5C12 10.2239 11.7761 10 11.5 10C11.2239 10 11 10.2239 11 10.5Z" fill="#7D7D7D"/>
<path d="M11 13.5C11 13.7761 11.2239 14 11.5 14C11.7761 14 12 13.7761 12 13.5C12 13.2239 11.7761 13 11.5 13C11.2239 13 11 13.2239 11 13.5Z" fill="#7D7D7D"/>
<path d="M11 7.53125C11 7.80739 11.2239 8.03125 11.5 8.03125C11.7761 8.03125 12 7.80739 12 7.53125C12 7.25511 11.7761 7.03125 11.5 7.03125C11.2239 7.03125 11 7.25511 11 7.53125Z" fill="#7D7D7D"/>
<path d="M15 19.5C15 19.7761 15.2239 20 15.5 20C15.7761 20 16 19.7761 16 19.5C16 19.2239 15.7761 19 15.5 19C15.2239 19 15 19.2239 15 19.5Z" fill="#7D7D7D"/>
<path d="M15 25.5C15 25.7761 15.2239 26 15.5 26C15.7761 26 16 25.7761 16 25.5C16 25.2239 15.7761 25 15.5 25C15.2239 25 15 25.2239 15 25.5Z" fill="#7D7D7D"/>
<path d="M15 31.5C15 31.7761 15.2239 32 15.5 32C15.7761 32 16 31.7761 16 31.5C16 31.2239 15.7761 31 15.5 31C15.2239 31 15 31.2239 15 31.5Z" fill="#7D7D7D"/>
<path d="M15 13.5C15 13.7761 15.2239 14 15.5 14C15.7761 14 16 13.7761 16 13.5C16 13.2239 15.7761 13 15.5 13C15.2239 13 15 13.2239 15 13.5Z" fill="#7D7D7D"/>
<path d="M15 7.5C15 7.77614 15.2239 8 15.5 8C15.7761 8 16 7.77614 16 7.5C16 7.22386 15.7761 7 15.5 7C15.2239 7 15 7.22386 15 7.5Z" fill="#7D7D7D"/>
<path d="M11 4.5C11 4.77614 11.2239 5 11.5 5C11.7761 5 12 4.77614 12 4.5C12 4.22386 11.7761 4 11.5 4C11.2239 4 11 4.22386 11 4.5Z" fill="#7D7D7D"/>
<path d="M27 19.5C27 19.7761 27.2239 20 27.5 20C27.7761 20 28 19.7761 28 19.5C28 19.2239 27.7761 19 27.5 19C27.2239 19 27 19.2239 27 19.5Z" fill="#7D7D7D"/>
<path d="M27 22.5C27 22.7761 27.2239 23 27.5 23C27.7761 23 28 22.7761 28 22.5C28 22.2239 27.7761 22 27.5 22C27.2239 22 27 22.2239 27 22.5Z" fill="#7D7D7D"/>
<path d="M27 25.5C27 25.7761 27.2239 26 27.5 26C27.7761 26 28 25.7761 28 25.5C28 25.2239 27.7761 25 27.5 25C27.2239 25 27 25.2239 27 25.5Z" fill="#7D7D7D"/>
<path d="M27 28.5C27 28.7761 27.2239 29 27.5 29C27.7761 29 28 28.7761 28 28.5C28 28.2239 27.7761 28 27.5 28C27.2239 28 27 28.2239 27 28.5Z" fill="#7D7D7D"/>
<path d="M27 31.5C27 31.7761 27.2239 32 27.5 32C27.7761 32 28 31.7761 28 31.5C28 31.2239 27.7761 31 27.5 31C27.2239 31 27 31.2239 27 31.5Z" fill="#7D7D7D"/>
<path d="M27 34.5C27 34.7761 27.2239 35 27.5 35C27.7761 35 28 34.7761 28 34.5C28 34.2239 27.7761 34 27.5 34C27.2239 34 27 34.2239 27 34.5Z" fill="#7D7D7D"/>
<path d="M27 16.5C27 16.7761 27.2239 17 27.5 17C27.7761 17 28 16.7761 28 16.5C28 16.2239 27.7761 16 27.5 16C27.2239 16 27 16.2239 27 16.5Z" fill="#7D7D7D"/>
<path d="M27 10.5C27 10.7761 27.2239 11 27.5 11C27.7761 11 28 10.7761 28 10.5C28 10.2239 27.7761 10 27.5 10C27.2239 10 27 10.2239 27 10.5Z" fill="#7D7D7D"/>
<path d="M27 13.5C27 13.7761 27.2239 14 27.5 14C27.7761 14 28 13.7761 28 13.5C28 13.2239 27.7761 13 27.5 13C27.2239 13 27 13.2239 27 13.5Z" fill="#7D7D7D"/>
<path d="M27 7.5C27 7.77614 27.2239 8 27.5 8C27.7761 8 28 7.77614 28 7.5C28 7.22386 27.7761 7 27.5 7C27.2239 7 27 7.22386 27 7.5Z" fill="#7D7D7D"/>
<path d="M31 19.5C31 19.7761 31.2239 20 31.5 20C31.7761 20 32 19.7761 32 19.5C32 19.2239 31.7761 19 31.5 19C31.2239 19 31 19.2239 31 19.5Z" fill="#7D7D7D"/>
<path d="M31 25.5C31 25.7761 31.2239 26 31.5 26C31.7761 26 32 25.7761 32 25.5C32 25.2239 31.7761 25 31.5 25C31.2239 25 31 25.2239 31 25.5Z" fill="#7D7D7D"/>
<path d="M31 31.5C31 31.7761 31.2239 32 31.5 32C31.7761 32 32 31.7761 32 31.5C32 31.2239 31.7761 31 31.5 31C31.2239 31 31 31.2239 31 31.5Z" fill="#7D7D7D"/>
<path d="M31 13.5C31 13.7761 31.2239 14 31.5 14C31.7761 14 32 13.7761 32 13.5C32 13.2239 31.7761 13 31.5 13C31.2239 13 31 13.2239 31 13.5Z" fill="#7D7D7D"/>
<path d="M31 7.5C31 7.77614 31.2239 8 31.5 8C31.7761 8 32 7.77614 32 7.5C32 7.22386 31.7761 7 31.5 7C31.2239 7 31 7.22386 31 7.5Z" fill="#7D7D7D"/>
<path d="M27 4.5C27 4.77614 27.2239 5 27.5 5C27.7761 5 28 4.77614 28 4.5C28 4.22386 27.7761 4 27.5 4C27.2239 4 27 4.22386 27 4.5Z" fill="#7D7D7D"/>
<path d="M35 19.5C35 19.7761 35.2239 20 35.5 20C35.7761 20 36 19.7761 36 19.5C36 19.2239 35.7761 19 35.5 19C35.2239 19 35 19.2239 35 19.5Z" fill="#7D7D7D"/>
<path d="M35 22.5C35 22.7761 35.2239 23 35.5 23C35.7761 23 36 22.7761 36 22.5C36 22.2239 35.7761 22 35.5 22C35.2239 22 35 22.2239 35 22.5Z" fill="#7D7D7D"/>
<path d="M35 25.5C35 25.7761 35.2239 26 35.5 26C35.7761 26 36 25.7761 36 25.5C36 25.2239 35.7761 25 35.5 25C35.2239 25 35 25.2239 35 25.5Z" fill="#7D7D7D"/>
<path d="M35 28.5C35 28.7761 35.2239 29 35.5 29C35.7761 29 36 28.7761 36 28.5C36 28.2239 35.7761 28 35.5 28C35.2239 28 35 28.2239 35 28.5Z" fill="#7D7D7D"/>
<path d="M35 31.5C35 31.7761 35.2239 32 35.5 32C35.7761 32 36 31.7761 36 31.5C36 31.2239 35.7761 31 35.5 31C35.2239 31 35 31.2239 35 31.5Z" fill="#7D7D7D"/>
<path d="M35 34.5C35 34.7761 35.2239 35 35.5 35C35.7761 35 36 34.7761 36 34.5C36 34.2239 35.7761 34 35.5 34C35.2239 34 35 34.2239 35 34.5Z" fill="#7D7D7D"/>
<path d="M35 16.5C35 16.7761 35.2239 17 35.5 17C35.7761 17 36 16.7761 36 16.5C36 16.2239 35.7761 16 35.5 16C35.2239 16 35 16.2239 35 16.5Z" fill="#7D7D7D"/>
<path d="M35 10.5C35 10.7761 35.2239 11 35.5 11C35.7761 11 36 10.7761 36 10.5C36 10.2239 35.7761 10 35.5 10C35.2239 10 35 10.2239 35 10.5Z" fill="#7D7D7D"/>
<path d="M35 13.5C35 13.7761 35.2239 14 35.5 14C35.7761 14 36 13.7761 36 13.5C36 13.2239 35.7761 13 35.5 13C35.2239 13 35 13.2239 35 13.5Z" fill="#7D7D7D"/>
<path d="M35 7.5C35 7.77614 35.2239 8 35.5 8C35.7761 8 36 7.77614 36 7.5C36 7.22386 35.7761 7 35.5 7C35.2239 7 35 7.22386 35 7.5Z" fill="#7D7D7D"/>
<path d="M39 19.5C39 19.7761 39.2239 20 39.5 20C39.7761 20 40 19.7761 40 19.5C40 19.2239 39.7761 19 39.5 19C39.2239 19 39 19.2239 39 19.5Z" fill="#7D7D7D"/>
<path d="M39 25.5C39 25.7761 39.2239 26 39.5 26C39.7761 26 40 25.7761 40 25.5C40 25.2239 39.7761 25 39.5 25C39.2239 25 39 25.2239 39 25.5Z" fill="#7D7D7D"/>
<path d="M39 31.5C39 31.7761 39.2239 32 39.5 32C39.7761 32 40 31.7761 40 31.5C40 31.2239 39.7761 31 39.5 31C39.2239 31 39 31.2239 39 31.5Z" fill="#7D7D7D"/>
<path d="M39 13.5C39 13.7761 39.2239 14 39.5 14C39.7761 14 40 13.7761 40 13.5C40 13.2239 39.7761 13 39.5 13C39.2239 13 39 13.2239 39 13.5Z" fill="#7D7D7D"/>
<path d="M39 7.5C39 7.77614 39.2239 8 39.5 8C39.7761 8 40 7.77614 40 7.5C40 7.22386 39.7761 7 39.5 7C39.2239 7 39 7.22386 39 7.5Z" fill="#7D7D7D"/>
<path d="M35 4.5C35 4.77614 35.2239 5 35.5 5C35.7761 5 36 4.77614 36 4.5C36 4.22386 35.7761 4 35.5 4C35.2239 4 35 4.22386 35 4.5Z" fill="#7D7D7D"/>
<path d="M43 19.5C43 19.7761 43.2239 20 43.5 20C43.7761 20 44 19.7761 44 19.5C44 19.2239 43.7761 19 43.5 19C43.2239 19 43 19.2239 43 19.5Z" fill="#7D7D7D"/>
<path d="M43 22.5C43 22.7761 43.2239 23 43.5 23C43.7761 23 44 22.7761 44 22.5C44 22.2239 43.7761 22 43.5 22C43.2239 22 43 22.2239 43 22.5Z" fill="#7D7D7D"/>
<path d="M43 25.5C43 25.7761 43.2239 26 43.5 26C43.7761 26 44 25.7761 44 25.5C44 25.2239 43.7761 25 43.5 25C43.2239 25 43 25.2239 43 25.5Z" fill="#7D7D7D"/>
<path d="M43 28.5C43 28.7761 43.2239 29 43.5 29C43.7761 29 44 28.7761 44 28.5C44 28.2239 43.7761 28 43.5 28C43.2239 28 43 28.2239 43 28.5Z" fill="#7D7D7D"/>
<path d="M43 31.5C43 31.7761 43.2239 32 43.5 32C43.7761 32 44 31.7761 44 31.5C44 31.2239 43.7761 31 43.5 31C43.2239 31 43 31.2239 43 31.5Z" fill="#7D7D7D"/>
<path d="M43 34.5C43 34.7761 43.2239 35 43.5 35C43.7761 35 44 34.7761 44 34.5C44 34.2239 43.7761 34 43.5 34C43.2239 34 43 34.2239 43 34.5Z" fill="#7D7D7D"/>
<path d="M43 16.5312C43 16.8074 43.2239 17.0312 43.5 17.0312C43.7761 17.0312 44 16.8074 44 16.5312C44 16.2551 43.7761 16.0312 43.5 16.0312C43.2239 16.0312 43 16.2551 43 16.5312Z" fill="#7D7D7D"/>
<path d="M43 10.5C43 10.7761 43.2239 11 43.5 11C43.7761 11 44 10.7761 44 10.5C44 10.2239 43.7761 10 43.5 10C43.2239 10 43 10.2239 43 10.5Z" fill="#7D7D7D"/>
<path d="M43 13.5C43 13.7761 43.2239 14 43.5 14C43.7761 14 44 13.7761 44 13.5C44 13.2239 43.7761 13 43.5 13C43.2239 13 43 13.2239 43 13.5Z" fill="#7D7D7D"/>
<path d="M43 7.5C43 7.77614 43.2239 8 43.5 8C43.7761 8 44 7.77614 44 7.5C44 7.22386 43.7761 7 43.5 7C43.2239 7 43 7.22386 43 7.5Z" fill="#7D7D7D"/>
<path d="M43 4.5C43 4.77614 43.2239 5 43.5 5C43.7761 5 44 4.77614 44 4.5C44 4.22386 43.7761 4 43.5 4C43.2239 4 43 4.22386 43 4.5Z" fill="#7D7D7D"/>
<path d="M19 19.5C19 19.7761 19.2239 20 19.5 20C19.7761 20 20 19.7761 20 19.5C20 19.2239 19.7761 19 19.5 19C19.2239 19 19 19.2239 19 19.5Z" fill="#7D7D7D"/>
<path d="M19 22.5C19 22.7761 19.2239 23 19.5 23C19.7761 23 20 22.7761 20 22.5C20 22.2239 19.7761 22 19.5 22C19.2239 22 19 22.2239 19 22.5Z" fill="#7D7D7D"/>
<path d="M19 25.5C19 25.7761 19.2239 26 19.5 26C19.7761 26 20 25.7761 20 25.5C20 25.2239 19.7761 25 19.5 25C19.2239 25 19 25.2239 19 25.5Z" fill="#7D7D7D"/>
<path d="M19 28.5C19 28.7761 19.2239 29 19.5 29C19.7761 29 20 28.7761 20 28.5C20 28.2239 19.7761 28 19.5 28C19.2239 28 19 28.2239 19 28.5Z" fill="#7D7D7D"/>
<path d="M19 31.5C19 31.7761 19.2239 32 19.5 32C19.7761 32 20 31.7761 20 31.5C20 31.2239 19.7761 31 19.5 31C19.2239 31 19 31.2239 19 31.5Z" fill="#7D7D7D"/>
<path d="M19 34.5C19 34.7761 19.2239 35 19.5 35C19.7761 35 20 34.7761 20 34.5C20 34.2239 19.7761 34 19.5 34C19.2239 34 19 34.2239 19 34.5Z" fill="#7D7D7D"/>
<path d="M19 16.5312C19 16.8074 19.2239 17.0312 19.5 17.0312C19.7761 17.0312 20 16.8074 20 16.5312C20 16.2551 19.7761 16.0312 19.5 16.0312C19.2239 16.0312 19 16.2551 19 16.5312Z" fill="#7D7D7D"/>
<path d="M19 10.5C19 10.7761 19.2239 11 19.5 11C19.7761 11 20 10.7761 20 10.5C20 10.2239 19.7761 10 19.5 10C19.2239 10 19 10.2239 19 10.5Z" fill="#7D7D7D"/>
<path d="M19 13.5C19 13.7761 19.2239 14 19.5 14C19.7761 14 20 13.7761 20 13.5C20 13.2239 19.7761 13 19.5 13C19.2239 13 19 13.2239 19 13.5Z" fill="#7D7D7D"/>
<path d="M19 7.5C19 7.77614 19.2239 8 19.5 8C19.7761 8 20 7.77614 20 7.5C20 7.22386 19.7761 7 19.5 7C19.2239 7 19 7.22386 19 7.5Z" fill="#7D7D7D"/>
<path d="M23 19.5C23 19.7761 23.2239 20 23.5 20C23.7761 20 24 19.7761 24 19.5C24 19.2239 23.7761 19 23.5 19C23.2239 19 23 19.2239 23 19.5Z" fill="#7D7D7D"/>
<path d="M23 25.5C23 25.7761 23.2239 26 23.5 26C23.7761 26 24 25.7761 24 25.5C24 25.2239 23.7761 25 23.5 25C23.2239 25 23 25.2239 23 25.5Z" fill="#7D7D7D"/>
<path d="M23 31.5C23 31.7761 23.2239 32 23.5 32C23.7761 32 24 31.7761 24 31.5C24 31.2239 23.7761 31 23.5 31C23.2239 31 23 31.2239 23 31.5Z" fill="#7D7D7D"/>
<path d="M23 13.5C23 13.7761 23.2239 14 23.5 14C23.7761 14 24 13.7761 24 13.5C24 13.2239 23.7761 13 23.5 13C23.2239 13 23 13.2239 23 13.5Z" fill="#7D7D7D"/>
<path d="M23 7.5C23 7.77614 23.2239 8 23.5 8C23.7761 8 24 7.77614 24 7.5C24 7.22386 23.7761 7 23.5 7C23.2239 7 23 7.22386 23 7.5Z" fill="#7D7D7D"/>
<path d="M19 4.5C19 4.77614 19.2239 5 19.5 5C19.7761 5 20 4.77614 20 4.5C20 4.22386 19.7761 4 19.5 4C19.2239 4 19 4.22386 19 4.5Z" fill="#7D7D7D"/>
<circle cx="5" cy="16" r="1.5" stroke="#0072BD"/>
<circle cx="9" cy="12" r="1.5" stroke="#0072BD"/>
<circle cx="13" cy="8" r="1.5" stroke="#0072BD"/>
<circle cx="37" cy="24" r="1.5" stroke="#0072BD"/>
<circle cx="41" cy="20" r="1.5" stroke="#0072BD"/>
<circle cx="45" cy="16" r="1.5" stroke="#0072BD"/>
<circle cx="17" cy="12" r="1.5" fill="#0072BD" stroke="#0072BD"/>
<circle cx="21" cy="16" r="1.5" fill="#0072BD" stroke="#0072BD"/>
<circle cx="25" cy="20" r="1.5" fill="#0072BD" stroke="#0072BD"/>
<circle cx="29" cy="24" r="1.5" fill="#0072BD" stroke="#0072BD"/>
<circle cx="33" cy="28" r="1.5" fill="#0072BD" stroke="#0072BD"/>
<rect x="0.5" y="0.5" width="48" height="38" rx="1" stroke="var(--mw-icon-border-default-gray, #616161)"/>

</svg>
