<svg width="50" height="41" viewBox="0 0 50 41" fill="none" xmlns="http://www.w3.org/2000/svg">
<path d="M5.5 27.5V12.5L24.5 1.5L43.5 12.5V27.5L24.5 38.5L5.5 27.5Z" fill="var(--mw-icon-background-default-white, white)"/>
<path d="M24.5 17L24.5058 2.08363L43.0197 12.7539V27.6225L24.5 17Z" fill="var(--mw-icon-background-default-light-gray, #F5F5F5)"/>
<path d="M24.5 17L24.4942 2.08362L5.98034 12.7675L5.98034 27.6225L24.5 17Z" fill="#E6E6E6"/>
<path d="M43.5 27.5V12.459L24.5 1.5L5.5 12.47" stroke="#BFBFBF" stroke-linecap="round" stroke-linejoin="round"/>
<path d="M5.5 12.5V27.53L24.5 38.5L43.5 27.5352" stroke="var(--mw-icon-border-default-gray, #616161)" stroke-linecap="round" stroke-linejoin="round"/>
<ellipse cx="29.5" cy="30.5" rx="1.5" ry="1.5" transform="rotate(-180 29.5 30.5)" fill="#0072BD"/>
<line x1="29.5" y1="29.75" x2="29.5" y2="25.75" stroke="#0072BD"/>
<path d="M7.5 20.18L24.5 30L41.5 20.18L24.5 10.37L7.5 20.18Z" fill="var(--mw-icon-background-default-medium-gray, #D9D9D9)" stroke="var(--mw-icon-border-default-gray, #616161)" stroke-linejoin="round"/>
<circle cx="36.5" cy="14.5" r="1.5" fill="#0072BD"/>
<path d="M36.5 15V21" stroke="#0072BD"/>
<circle cx="31.5" cy="19.5" r="1.5" fill="#0072BD"/>
<path d="M31.5 19.5V24" stroke="#0072BD"/>
<circle cx="26.5" cy="18.5" r="1.5" fill="#0072BD"/>
<path d="M26.5 17.9009V22" stroke="#0072BD"/>
<circle cx="22.5" cy="7.5" r="1.5" fill="#0072BD"/>
<path d="M22.5 7.5L22.5 14" stroke="#0072BD"/>
<circle cx="17.5" cy="11.5" r="1.5" fill="#0072BD"/>
<line x1="17.5" y1="12.7865" x2="17.5" y2="16.7865" stroke="#0072BD"/>
<circle cx="19.5" cy="18.5" r="1.5" fill="#0072BD"/>
<path d="M19.5 19.5387V24" stroke="#0072BD"/>
<circle cx="12.5" cy="15.5" r="1.5" fill="#0072BD"/>
<line x1="12.5" y1="15.5" x2="12.5" y2="19.5" stroke="#0072BD"/>

</svg>
