<svg width="50" height="40" viewBox="0 0 50 40" fill="none" xmlns="http://www.w3.org/2000/svg">
<path d="M5.5 27V12L24.5 1L43.5 12V27L24.5 38L5.5 27Z" fill="var(--mw-icon-background-default-white, #FFFFFF)"/>
<path d="M24.5 16.5L24.5058 1.58362L43.0197 12.2539V27.1225L24.5 16.5Z" fill="var(--mw-icon-background-default-light-gray, #F5F5F5)"/>
<path d="M24.5 16.5L24.4942 1.58362L5.98034 12.2675L5.98034 27.1225L24.5 16.5Z" fill="#E6E6E6"/>
<path d="M43.5 27V11.959L24.5 1L5.5 11.97" stroke="#BFBFBF" stroke-linecap="round" stroke-linejoin="round"/>
<path d="M5.5 12V27.03L24.5 38L43.5 27.0352" stroke="var(--mw-icon-border-default-gray, #616161)" stroke-linecap="round" stroke-linejoin="round"/>
<path d="M11.5 20.4382C16.1667 19.4678 24.3 19.0167 27.5 31.4382" stroke="#1171BE" stroke-linecap="round"/>
<path d="M20.5 12.5C25.1667 11.5117 33.5 13.6517 36.5 26.5" stroke="#8516D1" stroke-linecap="round"/>
<path d="M10.5 15.5C15.1667 14.505 29.5 15.564 31.5 28.5" stroke="#EDB120" stroke-linecap="round"/>
<path d="M20.5 9.57888C21.5 8.58684 23.8968 8.28732 26.5 8.64576C30.4702 9.19241 36.5673 11.8301 38.5 19.5" stroke="#DD5400" stroke-linecap="round"/>
</svg>
