<svg width="50" height="40" viewBox="0 0 50 40" fill="none" xmlns="http://www.w3.org/2000/svg">
<rect x="0.5" y="0.5" width="48" height="38" rx="1" fill="var(--mw-icon-background-default-white, #FFFFFF)"/>
<rect x="0.5" y="0.5" width="48" height="38" rx="1" stroke="var(--mw-icon-border-default-gray, #616161)"/>
<path d="M24.5 8.50009L24.5 15.5001L22.5 16.5001L25.5 17.5001L22.5 18.5001L25.5 19.5001L22.5 20.5L25.5 21.5L22.5 22.5L25.5 23.5L22.5 24.5L25.5 25.5L22.5 26.5001L24.5 27.5001L24.5 32.5001M24.5 8.50009L28.5 8.5L29.5 6.50006L30.5 9.5L31.5 6.5L32.5 9.49994L33.5 6.5L34.5 9.5L35.5 6.5L36.5 9.49994L37.5 6.5L38.5 8.49994L40.5 8.49991M24.5 8.50009L20.5 8.5L19.5 6.5L18.5 9.49994L17.5 6.5L16.5 9.5L15.5 6.5L14.5 9.49994L13.5 6.5L12.5 9.5L11.5 6.50006L10.3424 8.49994L8.5 8.49991M24.5 32.5001H8.5M24.5 32.5001H40.5" stroke="var(--mw-icon-glyph-content-gray, #616162)" stroke-linecap="round" stroke-linejoin="round"/>
</svg>
