<svg width="50" height="40" viewBox="0 0 50 40" fill="none" xmlns="http://www.w3.org/2000/svg">
<rect x="0.5" y="0.5" width="48" height="38" rx="1" fill="var(--mw-icon-background-default-white, #FFFFFF)"/>
<rect x="0.5" y="0.5" width="48" height="38" rx="1" stroke="var(--mw-icon-border-default-gray, #616161)"/>
<path d="M26.4976 9C26.7737 9.00135 26.9986 8.77858 27 8.50245C27.0013 8.22631 26.7786 8.00136 26.5024 8.00001L26.4976 9ZM22.5 8.5L22.5 9.00001L22.5024 9L22.5 8.5ZM24.5 8.49024L24.5016 7.99023L24.4976 7.99025L24.5 8.49024ZM22.5 17.9995C22.2239 17.9995 22 18.2233 22 18.4995C22 18.7756 22.2239 18.9995 22.5 18.9995V17.9995ZM26.5 18.9995C26.7761 18.9995 27 18.7756 27 18.4995C27 18.2233 26.7761 17.9995 26.5 17.9995V18.9995ZM22.5 19.9995C22.2239 19.9995 22 20.2233 22 20.4995C22 20.7756 22.2239 20.9995 22.5 20.9995V19.9995ZM26.5 20.9995C26.7761 20.9995 27 20.7756 27 20.4995C27 20.2233 26.7761 19.9995 26.5 19.9995V20.9995ZM8.5 31.9995C8.22386 31.9995 8 32.2233 8 32.4995C8 32.7756 8.22386 32.9995 8.5 32.9995V31.9995ZM8.5 8C8.22386 8 8 8.22386 8 8.5C8 8.77615 8.22386 9 8.5 9L8.5 8ZM12.5 8.5V9C12.7761 9 13 8.77614 13 8.5H12.5ZM20.5 8.5H20C20 8.77614 20.2239 9 20.5 9V8.5ZM38.5 32.9995C38.7761 32.9995 39 32.7756 39 32.4995C39 32.2233 38.7761 31.9995 38.5 31.9995V32.9995ZM40.5 8C40.2239 8 40 8.22386 40 8.5C40 8.77615 40.2239 9 40.5 9V8ZM41.5 9C41.7761 9 42 8.77615 42 8.5C42 8.22386 41.7761 8 41.5 8V9ZM40.5 31.9995C40.2239 31.9995 40 32.2233 40 32.4995C40 32.7756 40.2239 32.9995 40.5 32.9995V31.9995ZM41.5 32.9995C41.7761 32.9995 42 32.7756 42 32.4995C42 32.2233 41.7761 31.9995 41.5 31.9995V32.9995ZM18.5 4.50321L18.5016 4.00321H18.5V4.50321ZM14.5855 4.50001L14.5872 4.00001L14.5855 4.50001ZM17.5 10.1312H17H17.5ZM16.5 12.5032V12.0032V12.5032ZM15.5 10.1312H15H15.5ZM38.5 9C38.7761 9 39 8.77615 39 8.5C39 8.22386 38.7761 8 38.5 8V9ZM27.5 8.5L27.4984 9C27.6313 9.00043 27.7589 8.94795 27.853 8.85413C27.9471 8.76032 28 8.63289 28 8.5H27.5ZM35.5 8.5H35C35 8.77614 35.2239 9 35.5 9V8.5ZM33.5 4.50321L33.5016 4.00321H33.5V4.50321ZM29.5855 4.50001L29.5872 4.00001L29.5855 4.50001ZM32.5 10.1312H32H32.5ZM31.5 12.5032V12.0032V12.5032ZM30.5 10.1312H30H30.5ZM26.5024 8.00001L24.5024 7.99025L24.4976 8.99023L26.4976 9L26.5024 8.00001ZM24.4976 7.99025L22.4976 8.00001L22.5024 9L24.5024 8.99023L24.4976 7.99025ZM24 8.49024V18.4995H25V8.49024H24ZM24.5 17.9995H22.5V18.9995H24.5V17.9995ZM24.5 18.9995H26.5V17.9995H24.5V18.9995ZM24.5 19.9995H22.5V20.9995H24.5V19.9995ZM24.5 20.9995H26.5V19.9995H24.5V20.9995ZM24 20.4995V32.4995H25V20.4995H24ZM24.5 31.9995H8.5V32.9995H24.5V31.9995ZM8.5 9L12.5 9L12.5 8L8.5 8L8.5 9ZM20.5 9L22.5 9V8L20.5 8V9ZM24.5 32.9995H38.5V31.9995H24.5V32.9995ZM40.5 9H41.5V8H40.5V9ZM40.5 32.9995H41.5V31.9995H40.5V32.9995ZM18.4984 5.00321C18.8607 5.00436 19.1017 5.10652 19.2772 5.25415C19.4613 5.409 19.6119 5.64699 19.7269 5.97806C19.9624 6.65606 20 7.57264 20 8.5H21C21 7.58782 20.9699 6.50897 20.6715 5.64995C20.5196 5.21251 20.2867 4.79659 19.921 4.48892C19.5467 4.17402 19.0716 4.00503 18.5016 4.00321L18.4984 5.00321ZM13 8.5C13 7.75084 13.1204 6.81811 13.4121 6.09297C13.7116 5.34825 14.1076 4.99833 14.5837 5.00001L14.5872 4.00001C13.4779 3.9961 12.8311 4.85748 12.4843 5.71981C12.1296 6.60171 12 7.67177 12 8.5H13ZM14.5837 5.00001C14.8795 5.00105 15.1136 5.11495 15.3411 5.35722C15.5847 5.6165 15.8057 6.009 16.0368 6.53305L16.9518 6.12955C16.7102 5.58169 16.4341 5.06016 16.07 4.67258C15.69 4.26798 15.206 4.00219 14.5872 4.00001L14.5837 5.00001ZM16.0368 6.53305C16.3072 7.14615 16.5503 7.85614 16.7253 8.51631C16.9027 9.18551 17 9.76617 17 10.1312H18C18 9.63589 17.8764 8.95605 17.6919 8.26009C17.5051 7.55511 17.2454 6.7953 16.9518 6.12955L16.0368 6.53305ZM17 10.1312C17 10.8758 16.8797 11.3886 16.7337 11.6951C16.5762 12.0257 16.4569 12.0032 16.5 12.0032V13.0032C17.0366 13.0032 17.4173 12.5853 17.6365 12.1252C17.8671 11.6411 18 10.9679 18 10.1312H17ZM16.5 12.0032C16.5431 12.0032 16.4238 12.0257 16.2663 11.6951C16.1203 11.3886 16 10.8758 16 10.1312H15C15 10.9679 15.1329 11.6411 15.3635 12.1252C15.5827 12.5853 15.9634 13.0032 16.5 13.0032V12.0032ZM16 10.1312C16 9.26566 16.3915 7.75225 16.9486 6.54011L16.04 6.12249C15.4484 7.40956 15 9.07044 15 10.1312H16ZM16.9486 6.54011C17.1243 6.15775 17.3496 5.75607 17.6273 5.45617C17.9023 5.15913 18.1882 5.00321 18.5 5.00321V4.00321C17.8118 4.00321 17.2792 4.36028 16.8935 4.77675C16.5105 5.19037 16.2329 5.70273 16.04 6.12249L16.9486 6.54011ZM24.4984 8.99024L27.4984 9L27.5016 8.00001L24.5016 7.99024L24.4984 8.99024ZM35.5 9L38.5 9V8L35.5 8V9ZM33.4984 5.00321C33.8607 5.00436 34.1017 5.10652 34.2772 5.25415C34.4613 5.409 34.6119 5.64699 34.7269 5.97806C34.9624 6.65606 35 7.57264 35 8.5H36C36 7.58782 35.9699 6.50897 35.6715 5.64995C35.5196 5.21251 35.2867 4.79659 34.921 4.48892C34.5467 4.17402 34.0716 4.00503 33.5016 4.00321L33.4984 5.00321ZM28 8.5C28 7.75084 28.1204 6.81811 28.4121 6.09297C28.7116 5.34825 29.1076 4.99833 29.5837 5.00001L29.5872 4.00001C28.4779 3.9961 27.8311 4.85748 27.4843 5.71981C27.1296 6.60171 27 7.67177 27 8.5H28ZM29.5837 5.00001C29.8795 5.00105 30.1136 5.11495 30.3411 5.35722C30.5847 5.6165 30.8057 6.009 31.0368 6.53305L31.9518 6.12955C31.7102 5.58169 31.4341 5.06016 31.07 4.67258C30.69 4.26798 30.206 4.00219 29.5872 4.00001L29.5837 5.00001ZM31.0368 6.53305C31.3072 7.14615 31.5503 7.85614 31.7253 8.51631C31.9027 9.18551 32 9.76617 32 10.1312H33C33 9.63589 32.8764 8.95605 32.6919 8.26009C32.5051 7.55511 32.2454 6.7953 31.9518 6.12955L31.0368 6.53305ZM32 10.1312C32 10.8758 31.8797 11.3886 31.7337 11.6951C31.5762 12.0257 31.4569 12.0032 31.5 12.0032V13.0032C32.0366 13.0032 32.4173 12.5853 32.6365 12.1252C32.8671 11.6411 33 10.9679 33 10.1312H32ZM31.5 12.0032C31.5431 12.0032 31.4238 12.0257 31.2663 11.6951C31.1203 11.3886 31 10.8758 31 10.1312H30C30 10.9679 30.1329 11.6411 30.3635 12.1252C30.5827 12.5853 30.9634 13.0032 31.5 13.0032V12.0032ZM31 10.1312C31 9.26566 31.3915 7.75225 31.9486 6.54011L31.04 6.12249C30.4484 7.40956 30 9.07044 30 10.1312H31ZM31.9486 6.54011C32.1243 6.15775 32.3496 5.75607 32.6273 5.45617C32.9023 5.15913 33.1882 5.00321 33.5 5.00321V4.00321C32.8118 4.00321 32.2792 4.36028 31.8935 4.77675C31.5105 5.19037 31.2329 5.70273 31.04 6.12249L31.9486 6.54011Z" fill="var(--mw-icon-glyph-content-gray, #616162)"/>
</svg>
