<svg width="50" height="40" viewBox="0 0 50 40" fill="none" xmlns="http://www.w3.org/2000/svg">
<rect x="0.5" y="0.5" width="48" height="38" rx="1" fill="var(--mw-icon-background-default-white, #FFFFFF)"/>
<rect x="0.5" y="0.5" width="48" height="38" rx="1" stroke="var(--mw-icon-border-default-gray, #616161)"/>
<path d="M36.5 7.5C34 7.5 32.5 6 32.5 3.5" stroke="var(--mw-icon-glyph-content-dark-gray, #333333)" stroke-linecap="round"/>
<path d="M36.5 10.5C32 10.5 29.5 8 29.5 3.5" stroke="var(--mw-icon-glyph-content-dark-gray, #333333)" stroke-linecap="round"/>
<path d="M36.5 13.5C31 13.5 26.5 10 26.5 3.5" stroke="var(--mw-icon-glyph-content-dark-gray, #333333)" stroke-linecap="round"/>
<path d="M10 12.5V12C9.81866 12 9.65153 12.0982 9.56325 12.2566C9.47497 12.415 9.47937 12.6088 9.57476 12.763L10 12.5ZM27 12.5L27.4252 12.763C27.5206 12.6088 27.525 12.415 27.4368 12.2566C27.3485 12.0982 27.1813 12 27 12V12.5ZM18.5 26.2433L18.0748 26.5063L18.5 27.1939L18.9252 26.5063L18.5 26.2433ZM26.5748 12.237L18.0748 25.9803L18.9252 26.5063L27.4252 12.763L26.5748 12.237ZM18.9252 25.9803L10.4252 12.237L9.57476 12.763L18.0748 26.5063L18.9252 25.9803ZM10 13H18.5V12H10V13ZM18.5 13H27V12H18.5V13ZM18 12.5V38H19V12.5H18Z" fill="var(--mw-icon-glyph-content-gray, #616162)"/>
</svg>
