<svg width="50" height="40" viewBox="0 0 50 40" fill="none" xmlns="http://www.w3.org/2000/svg">
<rect x="0.5" y="0.5" width="48" height="38" rx="1" fill="var(--mw-icon-background-default-white, #FFFFFF)"/>
<rect x="0.5" y="0.5" width="48" height="38" rx="1" stroke="var(--mw-icon-border-default-gray, #616161)"/>
<path d="M8.50024 8C8.2241 8 8.00024 8.22386 8.00024 8.5C8.00024 8.77614 8.2241 9 8.50024 9V8ZM40.5002 9C40.7764 9 41.0002 8.77614 41.0002 8.5C41.0002 8.22386 40.7764 8 40.5002 8V9ZM20.5032 26.4194H20.0032L20.0032 26.421L20.5032 26.4194ZM25.5032 28.5L26.0032 28.5004C26.0033 28.3677 25.9506 28.2404 25.8569 28.1466C25.7631 28.0527 25.6359 28 25.5032 28V28.5ZM20.5 22.5049L20 22.5065V22.5067L20.5 22.5049ZM26.1312 25.5001V25.0001V25.5001ZM28.5032 24.4194H28.0032H28.5032ZM26.1312 23.5001V23.0001V23.5001ZM28.5032 20.5001H29.0032H28.5032ZM25.5032 12.5001V13.0001C25.7793 13.0001 26.0032 12.7763 26.0032 12.5001H25.5032ZM20.5 14.5856L20 14.5874L20.5 14.5856ZM26.1312 17.5001V17.0001V17.5001ZM28.5032 16.5001H28.0032H28.5032ZM26.1312 15.5001V15.0001V15.5001ZM14.5 13H14C14 13.1574 14.0741 13.3056 14.2 13.4L14.5 13ZM16.5 14.5L16.765 14.924C16.9048 14.8366 16.9926 14.6859 16.9995 14.5212C17.0065 14.3565 16.9319 14.1989 16.8 14.1L16.5 14.5ZM12.5 17L12.235 16.576C12.0888 16.6674 12 16.8276 12 17C12 17.1724 12.0888 17.3326 12.235 17.424L12.5 17ZM16.5 19.5L16.7641 19.9246C16.9107 19.8334 16.9998 19.6731 17 19.5005C17.0002 19.3279 16.9113 19.1675 16.765 19.076L16.5 19.5ZM12.5 21.9884L12.2359 21.5638C12.0895 21.6549 12.0004 21.8149 12 21.9873C11.9996 22.1597 12.0881 22.3201 12.2341 22.4118L12.5 21.9884ZM16.5 24.5L16.765 24.924C16.911 24.8327 16.9998 24.6727 17 24.5005C17.0002 24.3283 16.9117 24.1681 16.7659 24.0766L16.5 24.5ZM12.5 27L12.235 26.576C12.0952 26.6634 12.0074 26.8141 12.0005 26.9788C11.9935 27.1435 12.0681 27.3011 12.2 27.4L12.5 27ZM14.5 28.5H15C15 28.3426 14.9259 28.1944 14.8 28.1L14.5 28.5ZM32.4186 18C32.1425 18 31.9186 18.2239 31.9186 18.5C31.9186 18.7761 32.1425 19 32.4186 19V18ZM36.4651 19C36.7413 19 36.9651 18.7761 36.9651 18.5C36.9651 18.2239 36.7413 18 36.4651 18V19ZM32.4767 20C32.2006 20 31.9767 20.2239 31.9767 20.5C31.9767 20.7761 32.2006 21 32.4767 21V20ZM36.5233 21C36.7994 21 37.0233 20.7761 37.0233 20.5C37.0233 20.2239 36.7994 20 36.5233 20V21ZM8.5 32C8.22386 32 8 32.2239 8 32.5C8 32.7761 8.22386 33 8.5 33V32ZM40.5 33C40.7761 33 41 32.7761 41 32.5C41 32.2239 40.7761 32 40.5 32V33ZM8.50024 9H40.5002V8H8.50024V9ZM20.0032 26.421C20.0052 27.0503 20.2813 27.5447 20.7005 27.9087C21.1043 28.2592 21.6358 28.4869 22.18 28.6402C23.2693 28.947 24.5759 29 25.5032 29V28C24.5909 28 23.4005 27.945 22.4511 27.6776C21.9761 27.5438 21.6029 27.3679 21.3561 27.1536C21.1247 26.9526 21.0042 26.7208 21.0032 26.4178L20.0032 26.421ZM25.0032 28.4996L25 32.4996L26 32.5004L26.0032 28.5004L25.0032 28.4996ZM20 22.5067C20.0022 23.1254 20.268 23.6094 20.6726 23.9894C21.0602 24.3535 21.5817 24.6296 22.1295 24.8712L22.533 23.9562C22.009 23.7251 21.6165 23.5041 21.3572 23.2606C21.115 23.033 21.001 22.7989 21 22.5032L20 22.5067ZM22.1295 24.8712C22.7878 25.1615 23.5429 25.4406 24.2469 25.648C24.9382 25.8517 25.6258 26.0001 26.1312 26.0001V25.0001C25.7763 25.0001 25.2033 24.8873 24.5295 24.6888C23.8684 24.494 23.1537 24.2299 22.533 23.9562L22.1295 24.8712ZM26.1312 26.0001C26.9781 26.0001 27.6569 25.8437 28.1434 25.5871C28.6052 25.3436 29.0032 24.9408 29.0032 24.4194H28.0032C28.0032 24.3916 28.0058 24.5291 27.6769 24.7026C27.3728 24.863 26.8656 25.0001 26.1312 25.0001V26.0001ZM29.0032 24.4194C29.0032 23.8658 28.5627 23.5089 28.1059 23.3146C27.6252 23.1102 26.9578 23.0001 26.1312 23.0001V24.0001C26.8859 24.0001 27.4045 24.103 27.7145 24.2348C28.0484 24.3768 28.0032 24.4795 28.0032 24.4194H29.0032ZM26.1312 23.0001C25.0873 23.0001 23.4292 23.3588 22.1225 23.9594L22.5401 24.868C23.7326 24.3199 25.2488 24.0001 26.1312 24.0001V23.0001ZM22.1225 23.9594C21.7027 24.1523 21.1904 24.43 20.7768 24.813C20.3603 25.1986 20.0032 25.7312 20.0032 26.4194H21.0032C21.0032 26.1076 21.1591 25.8218 21.4562 25.5467C21.7561 25.269 22.1578 25.0438 22.5401 24.868L22.1225 23.9594ZM20.0032 18.5001C20.0032 19.0698 20.1217 19.593 20.4779 20.035C20.8255 20.4663 21.3489 20.7564 22.0233 20.9756L22.3324 20.0246C21.7446 19.8335 21.4307 19.6236 21.2565 19.4075C21.0909 19.2021 21.0032 18.9305 21.0032 18.5001H20.0032ZM22.0233 20.9756C23.2564 21.3765 24.4444 22.0001 26.1312 22.0001V21.0001C24.6553 21.0001 23.741 20.4825 22.3324 20.0246L22.0233 20.9756ZM26.1312 22.0001C26.9683 22.0001 27.6415 21.8664 28.1255 21.6355C28.5848 21.4164 29.0032 21.0359 29.0032 20.5001H28.0032C28.0032 20.4553 28.0263 20.5748 27.6949 20.733C27.3882 20.8793 26.8754 21.0001 26.1312 21.0001V22.0001ZM29.0032 20.5001C29.0032 19.9706 28.6027 19.5912 28.1397 19.3711C27.6594 19.1428 26.9872 19.0134 26.1385 19.0134V20.0134C26.9008 20.0134 27.4109 20.1319 27.7103 20.2742C28.0268 20.4247 28.0032 20.5387 28.0032 20.5001H29.0032ZM26.1385 19.0134C24.4216 19.0134 23.3548 19.5873 22.0218 20.0251L22.3339 20.9752C23.8243 20.4856 24.6335 20.0134 26.1385 20.0134V19.0134ZM22.0218 20.0251C20.9706 20.3704 19.9959 21.209 20 22.5065L21 22.5033C20.9978 21.8008 21.5163 21.2437 22.3339 20.9752L22.0218 20.0251ZM25.5032 12.0001C24.6774 12.0001 23.3739 12.1292 22.2614 12.4703C21.7072 12.6401 21.164 12.8734 20.7499 13.1968C20.3299 13.5247 19.9979 13.9848 20 14.5874L21 14.5838C20.9993 14.3937 21.0941 14.1967 21.3653 13.985C21.6423 13.7687 22.0544 13.5797 22.5545 13.4264C23.5507 13.121 24.7516 13.0001 25.5032 13.0001V12.0001ZM20 14.5874C20.0022 15.2061 20.268 15.6901 20.6726 16.0701C21.0602 16.4342 21.5817 16.7103 22.1296 16.9519L22.5331 16.0369C22.009 15.8058 21.6165 15.5848 21.3572 15.3412C21.115 15.1137 21.0011 14.8796 21 14.5838L20 14.5874ZM22.1296 16.9519C22.7953 17.2455 23.5551 17.5052 24.2601 17.6921C24.9561 17.8765 25.6359 18.0001 26.1312 18.0001V17.0001C25.7662 17.0001 25.1855 16.9028 24.5163 16.7254C23.8562 16.5505 23.1462 16.3073 22.5331 16.0369L22.1296 16.9519ZM26.1312 18.0001C26.9679 18.0001 27.6411 17.8672 28.1252 17.6366C28.5853 17.4174 29.0032 17.0368 29.0032 16.5001H28.0032C28.0032 16.457 28.0257 16.5763 27.6952 16.7338C27.3886 16.8798 26.8758 17.0001 26.1312 17.0001V18.0001ZM29.0032 16.5001C29.0032 15.9635 28.5853 15.5828 28.1252 15.3637C27.6411 15.1331 26.9679 15.0001 26.1312 15.0001V16.0001C26.8758 16.0001 27.3886 16.1204 27.6952 16.2665C28.0257 16.4239 28.0032 16.5433 28.0032 16.5001H29.0032ZM26.1312 15.0001C25.0704 15.0001 23.4096 15.4485 22.1225 16.0401L22.5401 16.9487C23.7523 16.3916 25.2657 16.0001 26.1312 16.0001V15.0001ZM22.1225 16.0401C21.7027 16.233 21.1904 16.5106 20.7768 16.8936C20.3603 17.2793 20.0032 17.8119 20.0032 18.5001H21.0032C21.0032 18.1883 21.1591 17.9024 21.4562 17.6274C21.7561 17.3497 22.1578 17.1245 22.5401 16.9487L22.1225 16.0401ZM25.0032 8.5V12.5001H26.0032V8.5H25.0032ZM14 8.5V13H15V8.5H14ZM14.2 13.4L16.2 14.9L16.8 14.1L14.8 12.6L14.2 13.4ZM16.235 14.076L12.235 16.576L12.765 17.424L16.765 14.924L16.235 14.076ZM12.235 17.424L16.235 19.924L16.765 19.076L12.765 16.576L12.235 17.424ZM16.2359 19.0754L12.2359 21.5638L12.7641 22.4129L16.7641 19.9246L16.2359 19.0754ZM12.2341 22.4118L16.2341 24.9234L16.7659 24.0766L12.7659 21.5649L12.2341 22.4118ZM16.235 24.076L12.235 26.576L12.765 27.424L16.765 24.924L16.235 24.076ZM12.2 27.4L14.2 28.9L14.8 28.1L12.8 26.6L12.2 27.4ZM14 28.5V32.5H15V28.5H14ZM34 8.5V18.5H35V8.5H34ZM34.5 18H32.4186V19H34.5V18ZM34.5 19H36.4651V18H34.5V19ZM32.4767 21H34.5V20H32.4767V21ZM34.5 21H36.5233V20H34.5V21ZM8.5 33H14.5V32H8.5V33ZM14.5 33H34.5V32H14.5V33ZM34.5 33H40.5V32H34.5V33ZM34 20.5V32.5H35V20.5H34Z" fill="var(--mw-icon-glyph-content-gray, #616162)"/>
</svg>
