<svg width="50" height="40" viewBox="0 0 50 40" fill="none" xmlns="http://www.w3.org/2000/svg">
<rect x="0.5" y="0.5" width="48" height="38" rx="1" fill="var(--mw-icon-background-default-white, #FFFFFF)"/>
<rect x="0.5" y="0.5" width="48" height="38" rx="1" stroke="var(--mw-icon-border-default-gray, #616161)"/>
<circle cx="20.5" cy="15.5" r="11" fill="white" stroke="var(--mw-icon-glyph-content-gray, #616162)"/>
<circle cx="23.5" cy="15.5" r="8" fill="white" stroke="var(--mw-icon-glyph-content-gray, #616162)"/>
<path d="M31.5 15.5C31.5 17.7091 29.4392 19.5 27.3261 19.5C25.213 19.5 23.5 17.7091 23.5 15.5C23.5 13.2909 25.213 11.5 27.3261 11.5C29.4392 11.5 31.5 13.2909 31.5 15.5Z" fill="white" stroke="var(--mw-icon-glyph-content-gray, #616162)"/>
<path d="M9.5 15.5H31.5M31.5 15.5C25.5 15.5 15.5 20 14.5 24.5M31.5 15.5C25.2176 15.5 15.7162 10.886 14.5 6.5" stroke="var(--mw-icon-glyph-content-gray, #616162)"/>
<path d="M22.5 19.5C22.5 18.3954 23.3954 17.5 24.5 17.5H37.5C38.6046 17.5 39.5 18.3954 39.5 19.5V32.5C39.5 33.6046 38.6046 34.5 37.5 34.5H24.5C23.3954 34.5 22.5 33.6046 22.5 32.5V19.5Z" fill="white"/>
<path d="M23 34L27.5 25.5H34.5L39 18" stroke="#1171BE" stroke-linecap="round" stroke-linejoin="round"/>
<path d="M22.5 18.5C22.5 17.9477 22.9477 17.5 23.5 17.5H38.5C39.0523 17.5 39.5 17.9477 39.5 18.5V33.5C39.5 34.0523 39.0523 34.5 38.5 34.5H23.5C22.9477 34.5 22.5 34.0523 22.5 33.5V18.5Z" stroke="var(--mw-icon-glyph-content-gray, #616162)"/>
</svg>
