<svg width="50" height="40" viewBox="0 0 50 40" fill="none" xmlns="http://www.w3.org/2000/svg">
<rect x="0.5" y="0.5" width="48" height="38" rx="1" fill="var(--mw-icon-background-default-white, #FFFFFF)"/>
<rect x="0.5" y="0.5" width="48" height="38" rx="1" stroke="var(--mw-icon-border-default-gray, #616161)"/>
<path d="M27.5 8.5H37.5V27.5H27.5M21.5 8.5H11.5V27.5H21.5" stroke="var(--mw-icon-glyph-content-gray, #616162)" stroke-linecap="round" stroke-linejoin="round"/>
<path d="M25.0018 19.0735C25.0018 18.8676 24.9704 18.6838 24.9077 18.5221C24.8498 18.3554 24.7412 18.2059 24.5819 18.0735C24.4275 17.9363 24.2078 17.8039 23.9231 17.6765C23.6431 17.5441 23.2811 17.4069 22.8371 17.2647C22.3448 17.1078 21.8863 16.9314 21.4615 16.7353C21.0368 16.5392 20.6627 16.3113 20.3394 16.0515C20.0208 15.7917 19.7722 15.4926 19.5937 15.1544C19.4151 14.8113 19.3258 14.4142 19.3258 13.9632C19.3258 13.5221 19.4175 13.1201 19.6009 12.7574C19.7891 12.3946 20.0546 12.0833 20.3973 11.8235C20.74 11.5588 21.143 11.3554 21.6063 11.2132C22.0745 11.0711 22.591 11 23.1557 11C23.9376 11 24.6133 11.1446 25.1828 11.4338C25.7572 11.723 26.2012 12.1152 26.5149 12.6103C26.8287 13.1054 26.9855 13.6618 26.9855 14.2794H25.0018C25.0018 13.9461 24.9318 13.652 24.7919 13.3971C24.6567 13.1422 24.4492 12.9412 24.1692 12.7941C23.8941 12.6471 23.5466 12.5735 23.1267 12.5735C22.7213 12.5735 22.3834 12.6348 22.1131 12.7574C21.8477 12.8799 21.6474 13.0466 21.5122 13.2574C21.3819 13.4681 21.3167 13.7034 21.3167 13.9632C21.3167 14.1593 21.3626 14.3358 21.4543 14.4926C21.546 14.6446 21.6836 14.7892 21.867 14.9265C22.0504 15.0588 22.2772 15.1838 22.5475 15.3015C22.8226 15.4142 23.1412 15.527 23.5032 15.6397C24.0824 15.8162 24.5891 16.0123 25.0235 16.2279C25.4627 16.4436 25.8271 16.6887 26.1167 16.9632C26.4112 17.2377 26.6308 17.5466 26.7756 17.8897C26.9252 18.2328 27 18.6225 27 19.0588C27 19.5196 26.9107 19.9314 26.7321 20.2941C26.5535 20.6569 26.2977 20.9657 25.9647 21.2206C25.6317 21.4755 25.2311 21.6691 24.7629 21.8015C24.2995 21.9338 23.7807 22 23.2063 22C22.6947 22 22.1879 21.9314 21.686 21.7941C21.1888 21.652 20.7376 21.4412 20.3321 21.1618C19.9267 20.8775 19.6033 20.5196 19.362 20.0882C19.1207 19.652 19 19.1422 19 18.5588H20.9982C20.9982 18.8971 21.0513 19.1863 21.1575 19.4265C21.2685 19.6618 21.4229 19.8554 21.6208 20.0074C21.8235 20.1544 22.06 20.2623 22.3303 20.3309C22.6006 20.3995 22.8926 20.4338 23.2063 20.4338C23.6118 20.4338 23.9448 20.3775 24.2054 20.2647C24.4709 20.1471 24.6688 19.9853 24.7991 19.7794C24.9342 19.5735 25.0018 19.3382 25.0018 19.0735Z" fill="var(--mw-icon-glyph-content-gray, #616162)"/>
<path d="M29.0278 19.5162V23.4224H28.0654V19.5162H29.0278ZM28 18.4946C28 18.3526 28.0484 18.2347 28.1453 18.1408C28.2446 18.0469 28.3777 18 28.5448 18C28.7119 18 28.8438 18.0469 28.9407 18.1408C29.04 18.2347 29.0896 18.3526 29.0896 18.4946C29.0896 18.6342 29.04 18.7509 28.9407 18.8448C28.8438 18.9386 28.7119 18.9856 28.5448 18.9856C28.3777 18.9856 28.2446 18.9386 28.1453 18.8448C28.0484 18.7509 28 18.6342 28 18.4946Z" fill="var(--mw-icon-glyph-content-gray, #616162)"/>
<path d="M29.9903 19.5162H30.9564V23.7112C30.9564 23.988 30.9056 24.2226 30.8039 24.4152C30.7046 24.6077 30.5605 24.7533 30.3717 24.852C30.1828 24.9507 29.9516 25 29.678 25C29.5932 25 29.5085 24.9952 29.4237 24.9856C29.339 24.9759 29.2554 24.9603 29.1731 24.9386L29.1768 24.2022C29.23 24.2118 29.2845 24.219 29.3402 24.2238C29.3959 24.231 29.4516 24.2347 29.5073 24.2347C29.6114 24.2347 29.6985 24.2166 29.7688 24.1805C29.8414 24.1444 29.8959 24.0878 29.9322 24.0108C29.9709 23.9338 29.9903 23.8339 29.9903 23.7112V19.5162ZM29.9104 18.4946C29.9104 18.3526 29.9588 18.2347 30.0557 18.1408C30.155 18.0469 30.2881 18 30.4552 18C30.6223 18 30.7542 18.0469 30.8511 18.1408C30.9504 18.2347 31 18.3526 31 18.4946C31 18.6342 30.9504 18.7509 30.8511 18.8448C30.7542 18.9386 30.6223 18.9856 30.4552 18.9856C30.2881 18.9856 30.155 18.9386 30.0557 18.8448C29.9588 18.7509 29.9104 18.6342 29.9104 18.4946Z" fill="var(--mw-icon-glyph-content-gray, #616162)"/>
</svg>
