<svg width="50" height="40" viewBox="0 0 50 40" fill="none" xmlns="http://www.w3.org/2000/svg">
<rect x="0.5" y="0.5" width="48" height="38" rx="1" fill="var(--mw-icon-background-default-white, #FFFFFF)"/>
<rect x="0.5" y="0.5" width="48" height="38" rx="1" stroke="var(--mw-icon-border-default-gray, #616161)"/>
<path d="M8.5 15.5V15C8.32021 15 8.15427 15.0965 8.06538 15.2528C7.97649 15.4091 7.97836 15.601 8.07025 15.7556L8.5 15.5ZM20.5 15.5L20.9297 15.7556C21.0216 15.601 21.0235 15.4091 20.9346 15.2528C20.8457 15.0965 20.6798 15 20.5 15V15.5ZM14.5 25.5889L14.0703 25.8445L14.5 26.5671L14.9297 25.8445L14.5 25.5889ZM14 37.5V38H15V37.5H14ZM20.0703 15.2444L14.0703 25.3333L14.9297 25.8445L20.9297 15.7556L20.0703 15.2444ZM14.9297 25.3333L8.92975 15.2444L8.07025 15.7556L14.0703 25.8445L14.9297 25.3333ZM8.5 16H14.5V15H8.5V16ZM14.5 16H20.5V15H14.5V16ZM14 15.5V37.5H15V15.5H14Z" fill="var(--mw-icon-glyph-content-gray, #616162)"/>
<path d="M29.5 15.5V15C29.3202 15 29.1543 15.0965 29.0654 15.2528C28.9765 15.4091 28.9784 15.601 29.0703 15.7556L29.5 15.5ZM41.5 15.5L41.9297 15.7556C42.0216 15.601 42.0235 15.4091 41.9346 15.2528C41.8457 15.0965 41.6798 15 41.5 15V15.5ZM35.5 25.5889L35.0703 25.8445L35.5 26.5671L35.9297 25.8445L35.5 25.5889ZM35 37.5V38H36V37.5H35ZM41.0703 15.2444L35.0703 25.3333L35.9297 25.8445L41.9297 15.7556L41.0703 15.2444ZM35.9297 25.3333L29.9297 15.2444L29.0703 15.7556L35.0703 25.8445L35.9297 25.3333ZM29.5 16H35.5V15H29.5V16ZM35.5 16H41.5V15H35.5V16ZM35 15.5V37.5H36V15.5H35Z" fill="var(--mw-icon-glyph-content-gray, #616162)"/>
<path d="M31.5 3.5C31.5 6 30 7.5 27.5 7.5" stroke="var(--mw-icon-glyph-content-dark-gray, #333333)" stroke-linecap="round"/>
<path d="M34.5 3.5C34.5 8 32 10.5 27.5 10.5" stroke="var(--mw-icon-glyph-content-dark-gray, #333333)" stroke-linecap="round"/>
<path d="M37.5 3.5C37.5 9.5 33.5 13.5 27.5 13.5" stroke="var(--mw-icon-glyph-content-dark-gray, #333333)" stroke-linecap="round"/>
<path d="M14.5 9.5C17 9.5 18.5 11 18.5 13.5" stroke="var(--mw-icon-glyph-content-dark-gray, #333333)" stroke-linecap="round"/>
<path d="M14.5 6.5C19 6.5 21.5 9 21.5 13.5" stroke="var(--mw-icon-glyph-content-dark-gray, #333333)" stroke-linecap="round"/>
<path d="M14.5 3.5C20.5 3.5 24.5 7.5 24.5 13.5" stroke="var(--mw-icon-glyph-content-dark-gray, #333333)" stroke-linecap="round"/>
</svg>
