<svg width="50" height="40" viewBox="0 0 50 40" fill="none" xmlns="http://www.w3.org/2000/svg">
<path d="M5.5 27V12L24.5 1L43.5 12V27L24.5 38L5.5 27Z" fill="var(--mw-icon-background-default-white, #FFFFFF)"/>
<path d="M24.5 16.5001L24.5058 1.58374L43.0197 12.254V27.1226L24.5 16.5001Z" fill="var(--mw-icon-background-default-light-gray, #F5F5F5)"/>
<path d="M24.5 16.4999L24.4942 1.5835L5.98034 12.2674L5.98034 27.1224L24.5 16.4999Z" fill="#E6E6E6"/>
<path d="M43.5 27V11.959L24.5 1L5.5 11.97" stroke="#BFBFBF" stroke-linecap="round" stroke-linejoin="round"/>
<path d="M5.5 12V27.03L24.5 38L43.5 27.0352" stroke="var(--mw-icon-border-default-gray, #616161)" stroke-linecap="round" stroke-linejoin="round"/>
<path d="M28.3629 13.9526L30.9326 15.4177L25.6616 31.5003L23.3333 30.1692L28.3629 13.9526Z" fill="#EDB120" stroke="#745A26" stroke-linejoin="round"/>
<path d="M16.7822 20.6504L19.3519 22.1154L25.6616 31.4999L23.3188 30.1695L16.7822 20.6504Z" fill="#B3882A" stroke="#745A26" stroke-linejoin="round"/>
<path d="M30.9326 15.3496L28.2703 13.787L22.0532 4.50007L24.7361 5.91853L30.9326 15.3496Z" fill="#B3882A" stroke="#745A26" stroke-linejoin="round"/>
<path d="M19.3519 22.0476L16.7822 20.5826L22.0532 4.49998L24.7788 5.96121L19.3519 22.0476Z" fill="#EDB120" stroke="#745A26" stroke-linejoin="round"/>
<circle cx="23.2822" cy="5" r="1.5" fill="var(--mw-icon-glyph-content-blue, #1656A8)"/>
</svg>
