<svg width="50" height="41" viewBox="0 0 50 41" fill="none" xmlns="http://www.w3.org/2000/svg">
<path d="M5.5 27.5V12.5L24.5 1.5L43.5 12.5V27.5L24.5 38.5L5.5 27.5Z" fill="var(--mw-icon-background-default-white, white)"/>
<path d="M24.5 16.9999L24.5058 2.0835L43.0197 12.7538V27.6224L24.5 16.9999Z" fill="var(--mw-icon-background-default-light-gray, #F5F5F5)"/>
<path d="M24.5 16.9999L24.4942 2.0835L5.98034 12.7674L5.98034 27.6224L24.5 16.9999Z" fill="#E6E6E6"/>
<path d="M43.5 27.5V12.459L24.5 1.5L5.5 12.47" stroke="#BFBFBF" stroke-linecap="round" stroke-linejoin="round"/>
<path d="M5.5 12.5V27.53L24.5 38.5L43.5 27.5352" stroke="var(--mw-icon-border-default-gray, #616161)" stroke-linecap="round" stroke-linejoin="round"/>
<path d="M7.5 20.1801L24.5 30.0001L41.5 20.1801L24.5 10.3701L7.5 20.1801Z" stroke="#ABC739" stroke-linejoin="round"/>
<path d="M22.115 12.3574C23.1008 13.6956 24.9918 16.1354 25.9713 16.6025C27.3493 17.2597 29.4983 14.5277 31.9701 15.4458C33.4476 15.9946 35.1823 19.7388 36.7859 20.5703C37.7783 21.0849 38.5819 21.3185 39.0503 21.4218" stroke="#F9FB15"/>
<path d="M36.5 22.9998C36.5 22.9998 31.8185 17.7028 29.6836 17.2908C27.5487 16.8788 26.0948 19.8417 24.2596 19.8417C22.4243 19.8417 23.1882 9.75542 21.8046 9.11684C20.421 8.47826 18.5 13.9998 18.5 13.9998" stroke="#FEC338"/>
<path d="M33.5 24.4996C33.5 24.4996 30.4081 19.6346 27.8781 19.145C25.3481 18.6553 23.9706 20.6735 22.5152 20.029C21.0598 19.3844 20.4578 11.9696 18.9893 11.5691C17.5208 11.1686 15.5 15.4996 15.5 15.4996" stroke="#37C897"/>
<path d="M30.5 26.5C30.5 26.5 26.4546 22.8786 24.3901 21.9643C22.3257 21.0501 16.8779 21.1572 15.5 20.5C14.1221 19.8428 12.5 17 12.5 17" stroke="#2E87F7"/>
<path d="M27.5 28.5C27.5 28.5 23.6662 25.9309 21.6294 24.7123C19.5926 23.4936 14.5173 21.923 13.1393 21.2658C11.7614 20.6086 10 19 10 19" stroke="#3E26A8"/>
<path d="M24.5 29.9997L41.5 20.1797" stroke="#ABC739" stroke-linejoin="round"/>
<path d="M36.5508 23.0391L24.5 30L7.5 20.18L18.6758 13.7305" stroke="#12B1D6" stroke-linejoin="round"/>
<path d="M30.4453 26.5625L24.5 30L7.5 20.18L12.6172 17.2344" stroke="#4852F4" stroke-linejoin="round"/>

</svg>
