<svg width="50" height="40" viewBox="0 0 50 40" fill="none" xmlns="http://www.w3.org/2000/svg">
<rect x="0.5" y="0.5" width="48" height="38" rx="1" fill="var(--mw-icon-background-default-white, white)"/>
<line x1="34.5" y1="1.5" x2="34.5" y2="38.5" stroke="var(--mw-icon-background-default-dark-gray, #A6A6A6)" stroke-linecap="round" stroke-dasharray="3 3"/>
<path d="M0.5 20.5H48.5" stroke="#0072BD"/>
<path d="M7.5 21C7.5 27.6274 9.96243 33 13 33C16.0376 33 18.5 27.6274 18.5 21" stroke="#0072BD"/>
<path d="M18.4956 20.5H7.50443C7.56363 17.1667 8.21193 14.1825 9.21134 12.0171C10.2801 9.70156 11.6557 8.5 13 8.5C14.3443 8.5 15.7199 9.70156 16.7887 12.0171C17.7881 14.1825 18.4364 17.1667 18.4956 20.5Z" stroke="#77AC30"/>
<path d="M21 13L16 18" stroke="#0072BD" stroke-linecap="round"/>
<path d="M21 18L16 13" stroke="#0072BD" stroke-linecap="round"/>
<circle cx="14.5" cy="9.5" r="2" fill="var(--mw-icon-background-default-white, white)" stroke="#0072BD"/>
<circle cx="14.5" cy="32.5" r="2" fill="var(--mw-icon-background-default-white, white)" stroke="#0072BD"/>
<path d="M18 26C18.3333 24.6667 18.5 23 18.5 20.5H29" stroke="#D95319"/>
<circle cx="28.5" cy="20.5" r="3" stroke="#0072BD"/>
<path d="M21 23L16 28" stroke="#0072BD" stroke-linecap="round"/>
<path d="M21 28L16 23" stroke="#0072BD" stroke-linecap="round"/>
<rect x="0.5" y="0.5" width="48" height="38" rx="1" stroke="var(--mw-icon-border-default-gray, #616161)"/>

</svg>
