<svg width="50" height="40" viewBox="0 0 50 40" fill="none" xmlns="http://www.w3.org/2000/svg">
<rect x="1" y="1" width="43" height="33" fill="var(--mw-icon-background-default-white, #FFFFFF)"/>
<path d="M1 28.5H45" stroke="var(--mw-icon-background-default-dark-gray, #A6A6A6)" stroke-linecap="round" stroke-dasharray="3 3"/>
<path d="M0.5 26.4091C1.45486 18.6685 3.55556 3.5 5.08333 3.5C6.61111 3.5 9.03894 24.2995 9.59028 26.878C10.0677 29.1108 10.6597 31.5 13.3333 31.5C16.0069 31.5 16.7517 29.1108 17.2292 26.878C17.5253 25.4932 18.2986 22.1667 20.2083 22.1667C22.1181 22.1667 22.4809 25.5383 22.9583 26.878C23.4135 28.1553 24.1806 30.6515 25.7083 30.6515C27.6181 30.6515 27.9427 27.2576 29.375 27.2576C30.5208 27.2576 39.7257 27.2576 44.5 27.2576" stroke="#0072BD"/>
<rect x="0.5" y="0.5" width="44" height="34" rx="2" stroke="var(--mw-icon-border-default-gray, #616161)"/>
<path d="M28.5 39.5V16.5L47.5 28L28.5 39.5Z" fill="var(--mw-icon-background-default-action, #CBFFBE)" stroke="var(--mw-icon-glyph-content-green, #008014)" stroke-linejoin="round"/>
</svg>
