<svg width="50" height="40" viewBox="0 0 50 40" fill="none" xmlns="http://www.w3.org/2000/svg">
<rect x="1" y="1" width="43" height="33" fill="var(--mw-icon-background-default-white, #FFFFFF)"/>
<path d="M1 17.5H44" stroke="var(--mw-icon-background-default-dark-gray, #A6A6A6)" stroke-linecap="round" stroke-dasharray="3 3"/>
<line x1="10.5" y1="0.5" x2="10.5" y2="33.5" stroke="var(--mw-icon-background-default-dark-gray, #A6A6A6)" stroke-linecap="round" stroke-dasharray="3 3"/>
<path d="M33 15.5C30.8 15.5 29.5 16.39 29.5 17.5C29.5 18.61 30.58 19.5 33 19.5C36.31 19.5 42.5 17 42.5 12C42.5 6.19 37.31 2.5 30.5 2.5C22 2.5 16.5 9.11 16.5 17.5C16.5 27.29 24 32.5 30.5 32.5C37.86 32.5 42.5 28.9 42.5 24C42.5 18 36.14 15.5 33 15.5Z" stroke="#1171BE"/>
<rect x="0.5" y="0.5" width="44" height="34" rx="2" stroke="var(--mw-icon-border-default-gray, #616161)"/>
<path d="M0.5 15V20M1 17.5H3" stroke="#FF453A"/>
<path d="M28.5 39.5V16.5L47.5 28L28.5 39.5Z" fill="var(--mw-icon-background-default-action, #CBFFBE)" stroke="var(--mw-icon-glyph-content-green, #008014)" stroke-linejoin="round"/>
</svg>
