<svg width="50" height="40" viewBox="0 0 50 40" fill="none" xmlns="http://www.w3.org/2000/svg">
<rect x="0.5" y="0.5" width="48" height="38" rx="1" fill="var(--mw-icon-object-secondary, #FFFFFE)" stroke="var(--mw-icon-border-default-gray, #616161)"/>
<path d="M18.9042 14.8556C18.9042 14.7166 18.8802 14.5918 18.8323 14.4813C18.7884 14.3672 18.7046 14.2638 18.5808 14.1711C18.4571 14.0749 18.2834 13.9804 18.0599 13.8877C17.8363 13.795 17.5469 13.6988 17.1916 13.5989C16.7964 13.4848 16.4212 13.3565 16.0659 13.2139C15.7146 13.0713 15.4032 12.9055 15.1317 12.7166C14.8643 12.5241 14.6527 12.3012 14.497 12.0481C14.3453 11.795 14.2695 11.5009 14.2695 11.1658C14.2695 10.8414 14.3493 10.5472 14.509 10.2834C14.6687 10.016 14.8922 9.78788 15.1796 9.59893C15.4671 9.40642 15.8064 9.25847 16.1976 9.15508C16.5928 9.05169 17.0259 9 17.497 9C18.1397 9 18.7006 9.10339 19.1796 9.31016C19.6587 9.51693 20.0299 9.80036 20.2934 10.1604C20.5609 10.5205 20.6946 10.9323 20.6946 11.3957H18.9102C18.9102 11.1676 18.8563 10.9679 18.7485 10.7968C18.6447 10.6221 18.485 10.4848 18.2695 10.385C18.0579 10.2852 17.7904 10.2353 17.4671 10.2353C17.1557 10.2353 16.8962 10.2781 16.6886 10.3636C16.481 10.4456 16.3253 10.5579 16.2216 10.7005C16.1178 10.8396 16.0659 10.9964 16.0659 11.1711C16.0659 11.303 16.1018 11.4225 16.1737 11.5294C16.2495 11.6364 16.3613 11.7362 16.509 11.8289C16.6567 11.9216 16.8383 12.0089 17.0539 12.0909C17.2695 12.1729 17.519 12.2531 17.8024 12.3316C18.2774 12.4599 18.6946 12.6043 19.0539 12.7647C19.4172 12.9251 19.7206 13.1052 19.9641 13.3048C20.2076 13.5045 20.3912 13.7308 20.515 13.984C20.6387 14.2371 20.7006 14.5241 20.7006 14.8449C20.7006 15.1836 20.6267 15.4866 20.479 15.754C20.3313 16.0214 20.1178 16.2478 19.8383 16.4332C19.5589 16.6185 19.2255 16.7594 18.8383 16.8556C18.4511 16.9519 18.018 17 17.5389 17C17.1078 17 16.6826 16.9501 16.2635 16.8503C15.8443 16.7469 15.4631 16.5918 15.1198 16.385C14.7804 16.1783 14.509 15.9144 14.3054 15.5936C14.1018 15.2727 14 14.893 14 14.4545H15.8024C15.8024 14.697 15.8443 14.902 15.9281 15.0695C16.012 15.2371 16.1297 15.3725 16.2814 15.4759C16.4371 15.5793 16.6208 15.6542 16.8323 15.7005C17.0479 15.7469 17.2834 15.7701 17.5389 15.7701C17.8503 15.7701 18.1058 15.7308 18.3054 15.6524C18.509 15.574 18.6587 15.4652 18.7545 15.3262C18.8543 15.1872 18.9042 15.0303 18.9042 14.8556Z" fill="var(--mw-icon-object-primary, #616160)"/>
<path d="M25.4671 10.4385L23.0958 16.893H21.1856L24.4251 9.10695H25.6407L25.4671 10.4385ZM27.4371 16.893L25.0599 10.4385L24.8683 9.10695H26.0958L29.3533 16.893H27.4371ZM27.3293 13.9947V15.2513H22.7246V13.9947H27.3293Z" fill="var(--mw-icon-object-primary, #616160)"/>
<path d="M33.3174 9.10695V16.893H31.5269V9.10695H33.3174ZM36 9.10695V10.3636H28.8862V9.10695H36Z" fill="var(--mw-icon-object-primary, #616160)"/>
<path d="M16.2192 22.3681L13.8824 29H12L15.1925 21H16.3904L16.2192 22.3681ZM18.1607 29L15.818 22.3681L15.6291 21H16.8389L20.049 29H18.1607ZM18.0545 26.022V27.3132H13.5166V26.022H18.0545Z" fill="var(--mw-icon-object-primary, #616160)"/>
<path d="M21.6541 21H23.153L25.36 26.8736L27.567 21H29.0658L25.9619 29H24.7581L21.6541 21ZM20.8457 21H22.3386L22.6101 26.7253V29H20.8457V21ZM28.3813 21H29.8802V29H28.1099V26.7253L28.3813 21Z" fill="var(--mw-icon-object-primary, #616160)"/>
<path d="M34.778 26.1484H32.5887V24.8626H34.778C35.1164 24.8626 35.3917 24.8114 35.6042 24.7088C35.8166 24.6026 35.972 24.456 36.0704 24.2692C36.1687 24.0824 36.2179 23.8718 36.2179 23.6374C36.2179 23.3993 36.1687 23.1777 36.0704 22.9725C35.972 22.7674 35.8166 22.6026 35.6042 22.478C35.3917 22.3535 35.1164 22.2912 34.778 22.2912H33.2025V29H31.4321V21H34.778C35.4507 21 36.0271 21.1136 36.507 21.3407C36.9909 21.5641 37.3607 21.8736 37.6164 22.2692C37.8721 22.6648 38 23.1172 38 23.6264C38 24.1429 37.8721 24.5897 37.6164 24.967C37.3607 25.3443 36.9909 25.6355 36.507 25.8407C36.0271 26.0458 35.4507 26.1484 34.778 26.1484Z" fill="var(--mw-icon-object-primary, #616160)"/>
</svg>
