<svg width="50" height="40" viewBox="0 0 50 40" fill="none" xmlns="http://www.w3.org/2000/svg">
<rect x="0.5" y="0.5" width="48" height="38" rx="1" fill="var(--mw-icon-background-default-white, #FFFFFF)"/>
<path d="M23 10.5C23 11.8807 21.8807 13 20.5 13C19.1193 13 18 11.8807 18 10.5C18 9.11929 19.1193 8 20.5 8C21.8807 8 23 9.11929 23 10.5Z" fill="#0072BD"/>
<path d="M29 18.5C29 19.8807 27.8807 21 26.5 21C25.1193 21 24 19.8807 24 18.5C24 17.1193 25.1193 16 26.5 16C27.8807 16 29 17.1193 29 18.5Z" fill="#0072BD"/>
<path d="M34 15.5C34 16.8807 32.8807 18 31.5 18C30.1193 18 29 16.8807 29 15.5C29 14.1193 30.1193 13 31.5 13C32.8807 13 34 14.1193 34 15.5Z" fill="#0072BD"/>
<path d="M10 15.5C10 16.8807 8.88071 18 7.5 18C6.11929 18 5 16.8807 5 15.5C5 14.1193 6.11929 13 7.5 13C8.88071 13 10 14.1193 10 15.5Z" fill="#D95319"/>
<path d="M24 27.5C24 28.8807 22.8807 30 21.5 30C20.1193 30 19 28.8807 19 27.5C19 26.1193 20.1193 25 21.5 25C22.8807 25 24 26.1193 24 27.5Z" fill="#D95319"/>
<path d="M24 32.5C24 33.8807 22.8807 35 21.5 35C20.1193 35 19 33.8807 19 32.5C19 31.1193 20.1193 30 21.5 30C22.8807 30 24 31.1193 24 32.5Z" fill="#D95319"/>
<path d="M31 25.5C31 26.8807 29.8807 28 28.5 28C27.1193 28 26 26.8807 26 25.5C26 24.1193 27.1193 23 28.5 23C29.8807 23 31 24.1193 31 25.5Z" fill="#D95319"/>
<path d="M40 29.5C40 30.8807 38.8807 32 37.5 32C36.1193 32 35 30.8807 35 29.5C35 28.1193 36.1193 27 37.5 27C38.8807 27 40 28.1193 40 29.5Z" fill="#D95319"/>
<path d="M14 10.5C14 11.8807 12.8807 13 11.5 13C10.1193 13 9 11.8807 9 10.5C9 9.11929 10.1193 8 11.5 8C12.8807 8 14 9.11929 14 10.5Z" fill="#D95319"/>
<path d="M39 7.5C39 8.88071 37.8807 10 36.5 10C35.1193 10 34 8.88071 34 7.5C34 6.11929 35.1193 5 36.5 5C37.8807 5 39 6.11929 39 7.5Z" fill="#D95319"/>
<path d="M44 9.5C44 10.8807 42.8807 12 41.5 12C40.1193 12 39 10.8807 39 9.5C39 8.11929 40.1193 7 41.5 7C42.8807 7 44 8.11929 44 9.5Z" fill="#D95319"/>
<rect x="0.5" y="0.5" width="48" height="38" rx="1" stroke="var(--mw-icon-border-default-gray, #616161)"/>
</svg>
