<svg width="50" height="40" viewBox="0 0 50 40" fill="none" xmlns="http://www.w3.org/2000/svg">
<rect x="0.5" y="0.5" width="48" height="38" rx="1" fill="var(--mw-icon-background-default-white, #FFFFFF)"/>
<path d="M2.5 15.5V4C2.5 3.72386 2.72386 3.5 3 3.5H6C6.27614 3.5 6.5 3.72386 6.5 4V8C6.5 8.27614 6.72386 8.5 7 8.5H13C13.2761 8.5 13.5 8.27614 13.5 8V4C13.5 3.72386 13.7239 3.5 14 3.5H22.5C22.7761 3.5 23 3.72386 23 4V15.5" stroke="#D95319" stroke-linecap="round"/>
<path d="M33.5 15.5V9C33.5 8.72386 33.2761 8.5 33 8.5H30C29.7239 8.5 29.5 8.27614 29.5 8V3C29.5 2.72386 29.2761 2.5 29 2.5H26C25.7239 2.5 25.5 2.72386 25.5 3V8C25.5 8.27614 25.2761 8.5 25 8.5H18C17.7239 8.5 17.5 8.72386 17.5 9V15.5" stroke="#0072BD" stroke-linecap="round"/>
<path d="M33.5 15.5H46C46.2761 15.5 46.5 15.7239 46.5 16V20C46.5 20.2761 46.2761 20.5 46 20.5H42C41.7239 20.5 41.5 20.7239 41.5 21V25C41.5 25.2761 41.2761 25.5 41 25.5H38C37.7239 25.5 37.5 25.7239 37.5 26V30C37.5 30.2761 37.2761 30.5 37 30.5H33.5" stroke="#0072BD" stroke-linecap="round"/>
<path d="M33.5 18.5H39C39.2761 18.5 39.5 18.7239 39.5 19V31C39.5 31.2761 39.7239 31.5 40 31.5H46C46.2761 31.5 46.5 31.7239 46.5 32V36C46.5 36.2761 46.2761 36.5 46 36.5H33.5" stroke="#D95319" stroke-linecap="round"/>
<path d="M2.5 36.5V15.5H33.5V36.5H2.5Z" stroke="var(--mw-icon-glyph-content-gray, #616162)" stroke-linecap="round"/>
<circle cx="6.5" cy="20.5" r="1.5" fill="#D95319"/>
<circle cx="20.5" cy="24.5" r="1.5" fill="#0072BD"/>
<circle cx="24.5" cy="21.5" r="1.5" fill="#0072BD"/>
<circle cx="25.5" cy="27.5" r="1.5" fill="#0072BD"/>
<circle cx="18.5" cy="18.5" r="1.5" fill="#0072BD"/>
<circle cx="28.5" cy="18.5" r="1.5" fill="#0072BD"/>
<circle cx="30.5" cy="24.5" r="1.5" fill="#0072BD"/>
<circle cx="5.5" cy="26.5" r="1.5" fill="#D95319"/>
<circle cx="15.5" cy="33.5" r="1.5" fill="#D95319"/>
<circle cx="13.5" cy="28.5" r="1.5" fill="#D95319"/>
<circle cx="6.5" cy="32.5" r="1.5" fill="#D95319"/>
<circle cx="13.5" cy="22.5" r="1.5" fill="#D95319"/>
<circle cx="21.5" cy="31.5" r="1.5" fill="#D95319"/>
<rect x="0.5" y="0.5" width="48" height="38" rx="1" stroke="var(--mw-icon-border-default-gray, #616161)"/>
</svg>
