<svg width="50" height="34" viewBox="0 0 50 34" fill="none" xmlns="http://www.w3.org/2000/svg">
<path d="M5.5 30.5H17.5V33C17.5 33.2761 17.2761 33.5 17 33.5H6C5.72386 33.5 5.5 33.2761 5.5 33V30.5Z" fill="var(--mw-icon-background-default-light-gray, #F5F5F5)"/>
<path d="M32.5 30.5H44.5V33C44.5 33.2761 44.2761 33.5 44 33.5H33C32.7239 33.5 32.5 33.2761 32.5 33V30.5Z" fill="var(--mw-icon-background-default-light-gray, #F5F5F5)"/>
<path d="M5.5 30.5H17.5V33C17.5 33.2761 17.2761 33.5 17 33.5H6C5.72386 33.5 5.5 33.2761 5.5 33V30.5Z" stroke="var(--mw-icon-border-default-gray, #616161)"/>
<path d="M32.5 30.5H44.5V33C44.5 33.2761 44.2761 33.5 44 33.5H33C32.7239 33.5 32.5 33.2761 32.5 33V30.5Z" stroke="var(--mw-icon-border-default-gray, #616161)"/>
<path d="M0.5 2.5C0.5 1.39543 1.39543 0.5 2.5 0.5H47.5C48.6046 0.5 49.5 1.39543 49.5 2.5V29.5C49.5 30.6046 48.6046 31.5 47.5 31.5H2.5C1.39543 31.5 0.5 30.6046 0.5 29.5V2.5Z" fill="var(--mw-icon-background-default-light-gray, #F5F5F5)" stroke="var(--mw-icon-border-default-gray, #616161)" stroke-linecap="round"/>
<path d="M45.5 26.5V5.5C45.5 4.94772 45.0523 4.5 44.5 4.5H32.5C31.9477 4.5 31.5 4.94772 31.5 5.5V26.5C31.5 27.0523 31.9477 27.5 32.5 27.5H44.5C45.0523 27.5 45.5 27.0523 45.5 26.5Z" fill="var(--mw-icon-background-default-medium-gray, #D9D9D9)" stroke="var(--mw-icon-border-default-gray, #616161)" stroke-linejoin="round"/>
<path d="M34 24.5C34 24.7761 33.7761 25 33.5 25C33.2239 25 33 24.7761 33 24.5C33 24.2239 33.2239 24 33.5 24C33.7761 24 34 24.2239 34 24.5Z" fill="var(--mw-icon-glyph-content-gray, #616162)"/>
<path d="M36 24.5C36 24.7761 35.7761 25 35.5 25C35.2239 25 35 24.7761 35 24.5C35 24.2239 35.2239 24 35.5 24C35.7761 24 36 24.2239 36 24.5Z" fill="var(--mw-icon-glyph-content-gray, #616162)"/>
<path d="M38 24.5C38 24.7761 37.7761 25 37.5 25C37.2239 25 37 24.7761 37 24.5C37 24.2239 37.2239 24 37.5 24C37.7761 24 38 24.2239 38 24.5Z" fill="var(--mw-icon-glyph-content-gray, #616162)"/>
<path d="M40 24.5C40 24.7761 39.7761 25 39.5 25C39.2239 25 39 24.7761 39 24.5C39 24.2239 39.2239 24 39.5 24C39.7761 24 40 24.2239 40 24.5Z" fill="var(--mw-icon-glyph-content-gray, #616162)"/>
<path d="M42 24.5C42 24.7761 41.7761 25 41.5 25C41.2239 25 41 24.7761 41 24.5C41 24.2239 41.2239 24 41.5 24C41.7761 24 42 24.2239 42 24.5Z" fill="var(--mw-icon-glyph-content-gray, #616162)"/>
<path d="M44 24.5C44 24.7761 43.7761 25 43.5 25C43.2239 25 43 24.7761 43 24.5C43 24.2239 43.2239 24 43.5 24C43.7761 24 44 24.2239 44 24.5Z" fill="var(--mw-icon-glyph-content-gray, #616162)"/>
<circle cx="42.5" cy="15.5" r="1.5" fill="var(--mw-icon-glyph-content-gray, #616162)"/>
<path d="M33 6H35V7H33V6Z" fill="var(--mw-icon-glyph-content-gray, #616162)"/>
<path d="M36 6H38V7H36V6Z" fill="var(--mw-icon-glyph-content-gray, #616162)"/>
<path d="M39 6H41V7H39V6Z" fill="var(--mw-icon-glyph-content-gray, #616162)"/>
<path d="M42 6H44V7H42V6Z" fill="var(--mw-icon-glyph-content-gray, #616162)"/>
<path d="M33 9H35V10H33V9Z" fill="var(--mw-icon-glyph-content-gray, #616162)"/>
<path d="M36 9H38V10H36V9Z" fill="var(--mw-icon-glyph-content-gray, #616162)"/>
<path d="M39 9H41V10H39V9Z" fill="var(--mw-icon-glyph-content-gray, #616162)"/>
<path d="M42 9H44V10H42V9Z" fill="var(--mw-icon-glyph-content-gray, #616162)"/>
<path d="M33 12H35V13H33V12Z" fill="var(--mw-icon-glyph-content-gray, #616162)"/>
<path d="M36 12H38V13H36V12Z" fill="var(--mw-icon-glyph-content-gray, #616162)"/>
<path d="M39 12H41V13H39V12Z" fill="var(--mw-icon-glyph-content-gray, #616162)"/>
<path d="M42 12H44V13H42V12Z" fill="var(--mw-icon-glyph-content-gray, #616162)"/>
<path d="M33 15H35V16H33V15Z" fill="var(--mw-icon-glyph-content-gray, #616162)"/>
<path d="M36 15H38V16H36V15Z" fill="var(--mw-icon-glyph-content-gray, #616162)"/>
<path d="M33 18H35V19H33V18Z" fill="var(--mw-icon-glyph-content-gray, #616162)"/>
<path d="M36 18H38V19H36V18Z" fill="var(--mw-icon-glyph-content-gray, #616162)"/>
<path d="M39 18H41V19H39V18Z" fill="var(--mw-icon-glyph-content-gray, #616162)"/>
<path d="M42 18H44V19H42V18Z" fill="var(--mw-icon-glyph-content-gray, #616162)"/>
<path d="M33 21H35V22H33V21Z" fill="var(--mw-icon-glyph-content-gray, #616162)"/>
<path d="M36 21H38V22H36V21Z" fill="var(--mw-icon-glyph-content-gray, #616162)"/>
<path d="M39 21H41V22H39V21Z" fill="var(--mw-icon-glyph-content-gray, #616162)"/>
<path d="M42 21H44V22H42V21Z" fill="var(--mw-icon-glyph-content-gray, #616162)"/>
<path d="M39 15H40V16H39V15Z" fill="var(--mw-icon-glyph-content-gray, #616162)"/>
<path d="M27.5 26.5V5.5C27.5 4.94772 27.0523 4.5 26.5 4.5H5.5C4.94772 4.5 4.5 4.94772 4.5 5.5V26.5C4.5 27.0523 4.94772 27.5 5.5 27.5H26.5C27.0523 27.5 27.5 27.0523 27.5 26.5Z" fill="var(--mw-icon-background-default-white, #FFFFFF)" stroke="var(--mw-icon-border-default-gray, #616161)" stroke-linejoin="round"/>
<path d="M5 11.5V11.5C6.08484 11.5 6.96428 12.3794 6.96428 13.4643V19.0268C6.96428 19.8404 7.62386 20.5 8.43749 20.5V20.5C9.25112 20.5 9.9107 19.8404 9.9107 19.0268V12.9732C9.9107 12.1596 10.5703 11.5 11.3839 11.5V11.5C12.1975 11.5 12.8571 12.1596 12.8571 12.9732V19.0268C12.8571 19.8404 13.5167 20.5 14.3303 20.5V20.5C15.144 20.5 15.8035 19.8404 15.8035 19.0268V15V12.9732C15.8035 12.1596 16.4631 11.5 17.2767 11.5V11.5C18.0904 11.5 18.75 12.1596 18.75 12.9732V19.0268C18.75 19.8404 19.4095 20.5 20.2232 20.5V20.5C21.0368 20.5 21.6964 19.8404 21.6964 19.0268V12.9732C21.6964 12.1596 22.3559 11.5 23.1696 11.5V11.5C23.9832 11.5 24.6428 12.1596 24.6428 12.9732V18.1428C24.6428 19.4446 25.6981 20.5 27 20.5V20.5" stroke="var(--mw-icon-glyph-content-light-blue, #278CDD)"/>
</svg>
