<svg width="50" height="40" viewBox="0 0 50 40" fill="none" xmlns="http://www.w3.org/2000/svg">
<path d="M5.5 27V12L24.5 1L43.5 12V27L24.5 38L5.5 27Z" fill="var(--mw-icon-background-default-white, #FFFFFF)"/>
<path d="M24.5 16.5001L24.5058 1.58374L43.0197 12.254V27.1226L24.5 16.5001Z" fill="var(--mw-icon-background-default-light-gray, #F5F5F5)"/>
<path d="M24.5 16.4999L24.4942 1.5835L5.98034 12.2674L5.98034 27.1224L24.5 16.4999Z" fill="#E6E6E6"/>
<path d="M43.5 27V11.959L24.5 1L5.5 11.97" stroke="#BFBFBF" stroke-linecap="round" stroke-linejoin="round"/>
<path d="M5.5 12V27.03L24.5 38L43.5 27.0352" stroke="var(--mw-icon-border-default-gray, #616161)" stroke-linecap="round" stroke-linejoin="round"/>
<path d="M21.5 9.5V13L19.5 11.5V14L21.5 15.5V18.5L19.5 17V20L21.5 21.5V24L19.5 22.5V25.5L21.5 27V29.5" stroke="#634D20" stroke-linecap="round" stroke-linejoin="round"/>
<path d="M27.5002 12.8126L23.5 10.5V28.1509L27.5002 30.5V12.8126Z" fill="#EDB120" stroke="#745A26" stroke-linejoin="round"/>
</svg>
