<svg width="50" height="40" viewBox="0 0 50 40" fill="none" xmlns="http://www.w3.org/2000/svg">
<rect x="0.5" y="0.5" width="48" height="38" rx="1" fill="var(--mw-icon-background-default-white, white)"/>
<path d="M48.5313 25H0.947998V26H48.5313V25Z" fill="var(--mw-icon-background-default-medium-gray, #D9D9D9)"/>
<path d="M48.5313 17H0.947998V18H48.5313V17Z" fill="var(--mw-icon-background-default-medium-gray, #D9D9D9)"/>
<path d="M48.5313 12H0.947998V13H48.5313V12Z" fill="var(--mw-icon-background-default-medium-gray, #D9D9D9)"/>
<path d="M48.5313 9H0.947998V10H48.5313V9Z" fill="var(--mw-icon-background-default-medium-gray, #D9D9D9)"/>
<path d="M48.5313 7H0.947998V8H48.5313V7Z" fill="var(--mw-icon-background-default-medium-gray, #D9D9D9)"/>
<path d="M48.5313 5H0.947998V6H48.5313V5Z" fill="var(--mw-icon-background-default-medium-gray, #D9D9D9)"/>
<path d="M0.5 9.5C0.5 9.5 3 4.5 5.5 4.5C10.5 4.5 15 33.5 17.1667 33.5C20 33.5 21.3333 4.5 29.6667 4.5C38 4.5 38.8333 33.5 41.3333 33.5C43.8333 33.5 44.6667 10.5 48 10.5" stroke="#0072BD" stroke-miterlimit="10"/>
<rect x="0.5" y="0.5" width="48" height="38" rx="1" stroke="var(--mw-icon-border-default-gray, #616161)"/>

</svg>
