<svg width="50" height="40" viewBox="0 0 50 40" fill="none" xmlns="http://www.w3.org/2000/svg">
<rect x="0.989746" y="0.987183" width="47.0204" height="37.0256" rx="1" fill="var(--mw-icon-background-default-white, #FFFFFF)"/>
<rect x="0.5" y="0.5" width="48" height="38" rx="1" stroke="var(--mw-icon-border-default-gray, #616161)"/>
<path d="M7 30C7 29.4477 7.44772 29 8 29H11C11.5523 29 12 29.4477 12 30C12 30.5523 11.5523 31 11 31H8C7.44772 31 7 30.5523 7 30Z" fill="var(--mw-icon-background-default-dark-gray, #A6A6A6)"/>
<path d="M13 30C13 29.4477 13.4477 29 14 29H15C15.5523 29 16 29.4477 16 30C16 30.5523 15.5523 31 15 31H14C13.4477 31 13 30.5523 13 30Z" fill="var(--mw-icon-background-default-dark-gray, #A6A6A6)"/>
<path d="M25 30C25 29.4477 25.4477 29 26 29H27C27.5523 29 28 29.4477 28 30C28 30.5523 27.5523 31 27 31H26C25.4477 31 25 30.5523 25 30Z" fill="var(--mw-icon-background-default-dark-gray, #A6A6A6)"/>
<path d="M29 30C29 29.4477 29.4477 29 30 29H32C32.5523 29 33 29.4477 33 30C33 30.5523 32.5523 31 32 31H30C29.4477 31 29 30.5523 29 30Z" fill="var(--mw-icon-background-default-dark-gray, #A6A6A6)"/>
<path d="M34 30C34 29.4477 34.4477 29 35 29H36C36.5523 29 37 29.4477 37 30C37 30.5523 36.5523 31 36 31H35C34.4477 31 34 30.5523 34 30Z" fill="var(--mw-icon-background-default-dark-gray, #A6A6A6)"/>
<path d="M38 30C38 29.4477 38.4477 29 39 29H40C40.5523 29 41 29.4477 41 30C41 30.5523 40.5523 31 40 31H39C38.4477 31 38 30.5523 38 30Z" fill="var(--mw-icon-background-default-dark-gray, #A6A6A6)"/>
<path d="M17 30C17 29.4477 17.4477 29 18 29H23C23.5523 29 24 29.4477 24 30C24 30.5523 23.5523 31 23 31H18C17.4477 31 17 30.5523 17 30Z" fill="var(--mw-icon-background-default-dark-gray, #A6A6A6)"/>
<path d="M20.5 6.5V11.5M20.5 11.5L14.5 14.5V21.5L9.5 23.5V27.5M20.5 11.5L26.5 14.5V27.5M20.5 11.5L39.5 14.5V27.5M26.5 16.5L35.5 18.5V22.5L30.5 23.5V27.5" stroke="var(--mw-icon-glyph-content-gray, #616162)" stroke-linecap="round"/>
<path d="M14.5 23V24M14.5 25V26M14.5 27V28M35.5 22V24M35.5 25V26M35.5 27V28M20.5 13V14M20.5 15V16M20.5 17V18M20.5 19V20M20.5 21V22M20.5 23V24M20.5 25V26M20.5 27V28" stroke="var(--mw-icon-glyph-content-gray, #616162)"/>
</svg>
