<svg width="50" height="40" viewBox="0 0 50 40" fill="none" xmlns="http://www.w3.org/2000/svg">
<path d="M35.5 14.7273L43.5 8.5V30.5L35.5 24.2727V14.7273Z" fill="var(--mw-icon-background-default-medium-gray, #D9D9D9)"/>
<path d="M43.5 8.5H47C47.2761 8.5 47.5 8.72386 47.5 9V30C47.5 30.2761 47.2761 30.5 47 30.5H43.5V8.5Z" fill="var(--mw-icon-background-default-medium-gray, #D9D9D9)"/>
<path d="M43.5 8.5L35.5 14.7273V24.2727L43.5 30.5M43.5 8.5V30.5M43.5 8.5H47C47.2761 8.5 47.5 8.72386 47.5 9V30C47.5 30.2761 47.2761 30.5 47 30.5H43.5" stroke="var(--mw-icon-border-default-gray, #616161)" stroke-linejoin="round"/>
<rect x="1.5" y="7.5" width="34" height="24" rx="2" fill="var(--mw-icon-background-default-medium-gray, #D9D9D9)" stroke="var(--mw-icon-border-default-gray, #616161)"/>
<rect x="24.5" y="11.5" width="5" height="5" rx="0.5" fill="var(--mw-icon-background-default-action, #CBFFBE)" stroke="var(--mw-icon-glyph-content-green, #008014)"/>
<rect x="5.5" y="20.5" width="24" height="7" rx="0.5" fill="var(--mw-icon-background-default-white, #FFFFFF)" stroke="var(--mw-icon-border-default-gray, #616161)"/>
</svg>
