<svg width="50" height="40" viewBox="0 0 50 40" fill="none" xmlns="http://www.w3.org/2000/svg">
<rect x="0.5" y="0.5" width="48" height="38" rx="1" fill="var(--mw-icon-background-default-white, white)"/>
<path d="M0.5 24.4153C4.23729 25.0489 12 28.1829 14.5 36.5C15.2582 39.0225 15.5004 37.4151 15.5426 34M48.5 13.777C37.2881 13.777 34.8305 2.92568 34 1.5C33.8525 1.24686 33.5188 3.34082 33.5 4.5C33.5 9.5 33.5 17 33.5 23C33.2982 25.3278 32.5759 27.0249 32 27.4757C30.5923 28.5776 19.8873 12.288 16.5 10C16.0579 9.70136 15.7116 10.5029 15.5426 12M15.5426 12C15.5255 17.5 15.5613 28 15.5426 34M15.5426 12V34" stroke="#0072BD"/>
<rect x="0.5" y="0.5" width="48" height="38" rx="1" stroke="var(--mw-icon-border-default-gray, #616161)"/>

</svg>
