<svg width="50" height="40" viewBox="0 0 50 40" fill="none" xmlns="http://www.w3.org/2000/svg">
<rect x="0.5" y="0.5" width="48" height="38" rx="1" fill="var(--mw-icon-background-default-white, #FFFFFF)"/>
<rect x="0.5" y="0.5" width="48" height="38" rx="1" stroke="var(--mw-icon-border-default-gray, #616161)"/>
<path d="M37.7323 17.2905C32.7849 22.2987 21.5575 32.1758 17.9898 30.3119C15.9424 28.9595 19.262 23.1668 37.7323 17.2905Z" fill="#ABC739"/>
<path d="M37.7323 17.2905C28.2594 20.3043 22.7717 23.2961 19.9493 25.6782C19.3511 26.4443 19.4486 30.3119 22.6086 29.4165C27.4698 26.9209 34.2009 20.8654 37.7323 17.2905Z" fill="#37C897"/>
<path d="M37.7323 17.2905C30.4827 19.597 25.5672 21.8905 22.3941 23.9078C22.0519 25.318 22.0212 28.1599 24.6354 28.246C29.2036 25.354 34.6705 20.3899 37.7323 17.2905Z" fill="#12B1D6"/>
<path d="M37.7323 17.2905C32.4333 18.9764 28.3813 20.6554 25.3453 22.2246C25.1479 23.7721 25.2675 26.7721 27.3248 26.3921C31.2018 23.528 35.2546 19.7987 37.7323 17.2905Z" fill="#2E87F7"/>
<path d="M29.3335 24.847C27.5716 25.0191 27.5982 22.3686 27.8317 21.0218C28.6688 20.6415 29.5652 20.2566 30.5239 19.8684C32.6187 19.0202 35.0111 18.1563 37.7324 17.2905C36.1826 18.8594 34.0165 20.906 31.6627 22.9198C30.9011 23.5714 30.1199 24.2196 29.3335 24.847Z" fill="#4852F4"/>
<path d="M37.7323 17.2905C35.0111 18.1563 32.6187 19.0202 30.5239 19.8684C30.2386 21.1342 30.0671 23.5165 31.6627 22.9198C34.0165 20.906 36.1825 18.8594 37.7323 17.2905Z" fill="#3E26A8"/>
<path d="M37.2485 17.0196C35.7986 21.0881 31.7249 30.9638 30.381 30.3881C28.9747 29.582 31.7658 26.0752 37.2485 17.0196Z" fill="#37C897"/>
<path d="M37.2485 17.0196C34.2523 21.9683 32.06 25.2599 30.9172 27.3592C30.9599 27.8397 31.2955 28.7064 32.296 28.3296C34.0308 25.3189 36.2553 19.8066 37.2485 17.0196Z" fill="#12B1D6"/>
<path d="M37.2485 17.0196C35.0573 20.6386 33.2961 23.3715 32.0608 25.3998C31.9801 25.8789 32.1075 26.7707 33.2632 26.5054C34.7866 23.4355 36.4328 19.3085 37.2485 17.0196Z" fill="#2E87F7"/>
<path d="M37.2485 17.0195C35.5628 19.8038 34.1315 22.0635 32.9984 23.8814C32.8769 24.4145 32.9164 25.3568 34.0461 24.8623C35.3223 22.0854 36.5715 18.9193 37.2485 17.0195Z" fill="#4852F4"/>
<path d="M37.2485 17.0196C36.1359 18.8574 35.1341 20.4666 34.2557 21.8711C34.2425 22.2208 34.3867 22.8454 35.0694 22.546C35.9589 20.4585 36.7554 18.4032 37.2485 17.0196Z" fill="#3E26A8"/>
<path d="M35.6331 16.8291C36.4508 20.3771 38.0555 29.2175 36.8771 29.3527C35.5533 29.3464 35.9059 25.6541 35.6331 16.8291Z" fill="#37C897"/>
<path d="M35.6332 16.8291C35.7822 21.6519 35.7445 24.9417 35.8957 26.9348C36.1391 27.2658 36.7554 27.7566 37.2739 27.0717C37.1228 24.1738 36.1933 19.2597 35.6332 16.8291Z" fill="#12B1D6"/>
<path d="M35.6332 16.8292C35.7422 20.3561 35.7513 23.0632 35.8075 25.0429C35.9655 25.4237 36.4502 26.0183 37.1249 25.3504C36.8024 22.4966 36.0933 18.8253 35.6332 16.8292Z" fill="#2E87F7"/>
<path d="M35.6332 16.8291C35.717 19.5425 35.7418 21.7707 35.7743 23.5557C35.9284 23.9923 36.3753 24.6598 36.93 23.8363C36.5685 21.2967 36.015 18.4859 35.6332 16.8291Z" fill="#4852F4"/>
<path d="M35.6333 16.8292C35.6886 18.6202 35.7182 20.1997 35.7413 21.58C35.888 21.8392 36.2652 22.233 36.6002 21.7349C36.2805 19.8546 35.9114 18.0358 35.6333 16.8292Z" fill="#3E26A8"/>
<path d="M37.7689 17.7017C34.7647 15.6174 28.7756 10.8868 30.0382 9.75796C31.2892 8.63955 35.6193 14.4901 37.7689 17.7017Z" fill="#37C897"/>
<path d="M30.8196 11.8629C32.4448 13.7528 35.7685 16.3139 37.7689 17.7016C36.3455 15.575 33.966 12.2913 32.1575 10.64C30.5061 9.98389 30.5775 11.1819 30.8196 11.8629Z" fill="#12B1D6"/>
<path d="M37.7689 17.7018C36.6428 16.0193 34.9182 13.6126 33.3515 11.863C32.783 11.6036 31.6972 11.4665 31.9018 12.9932C33.653 14.6784 36.1463 16.5761 37.7689 17.7018Z" fill="#2E87F7"/>
<path d="M32.9768 13.9764C32.8296 13.0128 33.7417 12.8391 34.2161 12.8727C34.51 13.2298 34.8046 13.6005 35.0952 13.9764C36.0986 15.2745 37.0543 16.6339 37.7689 17.7017C36.7403 16.988 35.3617 15.9641 34.0441 14.8808C33.6808 14.5821 33.3222 14.2789 32.9768 13.9764Z" fill="#4852F4"/>
<path d="M37.7688 17.7017C37.0542 16.634 36.0985 15.2746 35.0951 13.9765C34.6874 13.9604 33.9064 14.1187 34.044 14.8809C35.3616 15.9642 36.7402 16.9881 37.7688 17.7017Z" fill="#3E26A8"/>
<path d="M37.8004 17.4545C34.299 16.4398 27.1388 13.8709 27.9836 12.3956C28.8207 10.9339 34.7573 15.0966 37.8004 17.4545Z" fill="#4852F4"/>
<path d="M29.383 14.1421C31.5155 15.4142 35.469 16.7789 37.8004 17.4545C35.7853 15.8932 32.5016 13.5405 30.2698 12.5535C28.4981 12.4601 28.9404 13.5737 29.383 14.1421Z" fill="#3E26A8"/>
<path d="M37.7209 17.7452C35.73 14.658 33.4192 9.52712 34.3212 9.21257C35.4009 8.83603 36.945 13.9463 37.7209 17.7452Z" fill="#4852F4"/>
<path d="M34.3911 10.9805C34.9778 12.8287 36.4178 15.7247 37.7209 17.7453C37.2088 15.238 36.3621 12.1594 35.5351 10.4642C34.6501 9.78598 34.4037 10.5258 34.3911 10.9805Z" fill="#3E26A8"/>
<path d="M37.4478 17.1185C37.796 18.3589 38.7905 20.8338 39.7694 20.3304C40.9593 19.7186 38.8996 17.9137 37.4478 17.1185Z" fill="#4852F4"/>
<path d="M38.8349 20.0243C38.2135 19.3587 37.6831 17.9567 37.4478 17.1185C38.4138 17.6476 39.6489 18.6237 40.0168 19.398C39.6062 20.1042 39.0577 20.1098 38.8349 20.0243Z" fill="#3E26A8"/>
<path d="M17.5755 15.0111C17.731 13.6046 22.9533 12.45 37.7363 17.2915C31.1876 17.5101 17.3563 16.994 17.5755 15.0111Z" fill="#ABC739"/>
<path d="M37.7363 17.2915C29.8019 14.6929 24.6217 13.8217 21.5009 13.7897C20.3985 14.1264 18.6277 15.1149 20.3635 16.375C24.7072 17.2301 33.0703 17.4473 37.7363 17.2915Z" fill="#37C897"/>
<path d="M37.7363 17.2914C32.3856 15.5391 28.2875 14.5722 25.2288 14.1185C23.9367 14.4913 22.0285 15.5782 24.7317 16.9441C29.0545 17.3217 34.3621 17.4041 37.7363 17.2914Z" fill="#12B1D6"/>
<path d="M37.7362 17.2914C33.2218 15.8129 29.5989 14.8936 26.7397 14.3699C25.9282 14.7385 24.7031 15.7937 26.2947 17.0653C30.2775 17.3384 34.7593 17.3908 37.7362 17.2914Z" fill="#2E87F7"/>
<path d="M37.7363 17.2914C34.0178 16.0736 30.9042 15.2352 28.3241 14.6847C27.5799 15.0972 26.4781 16.1716 28.0241 17.1689C31.5258 17.3503 35.1841 17.3766 37.7363 17.2914Z" fill="#4852F4"/>
<path d="M37.7362 17.2914C35.1565 16.4465 32.8679 15.7842 30.8465 15.274C30.2747 15.6841 29.4024 16.6577 30.4876 17.2712C33.1745 17.3565 35.7802 17.3567 37.7362 17.2914Z" fill="#3E26A8"/>
<path d="M37.7324 17.2905C26.9087 16.4081 2.46168 18.8435 4.92068 26.4001C7.59888 34.6303 27.1992 24.2764 37.7324 17.2905Z" fill="#F9FB15"/>
<path d="M37.7324 17.2905C27.1992 24.2764 7.59888 34.6303 4.92068 26.4001C3.92006 23.3251 7.37467 21.0982 12.5537 19.5977C7.39145 21.4685 5.8763 24.536 7.02324 25.8858C9.20347 28.4518 21.2332 27.2878 37.7324 17.2905Z" fill="#FFD60A"/>
<path d="M13.864 19.2424C21.351 17.342 31.675 16.7967 37.7323 17.2905C32.2012 20.9589 24.1698 25.556 17.4014 27.9032C17.987 22.0535 15.2872 19.692 13.864 19.2424Z" fill="#FEC338"/>
<path d="M17.4015 18.4775C24.3529 17.2017 32.5839 16.8708 37.7324 17.2905C33.0567 20.3916 26.5944 24.1562 20.6187 26.6645C21.0412 21.8409 18.65 19.1967 17.4015 18.4775Z" fill="#ABC739"/>
<path d="M21.4058 17.8598C27.3226 17.1042 33.5463 16.9493 37.7323 17.2905C34.0653 19.7226 29.2994 22.5628 24.5311 24.885C24.3651 20.0678 22.3784 18.1943 21.4058 17.8598Z" fill="#37C897"/>
<path d="M24.5311 17.5174C29.4407 17.0652 34.2797 17.009 37.7323 17.2905C34.7795 19.2489 31.114 21.4721 27.3086 23.4762C27.2925 19.677 25.4502 17.9207 24.5311 17.5174Z" fill="#12B1D6"/>
<path d="M27.3086 17.3024C31.2268 17.056 34.9347 17.0624 37.7324 17.2905C35.4288 18.8183 32.6916 20.5072 29.7925 22.1275C29.8823 19.2481 28.174 17.711 27.3086 17.3024Z" fill="#2E87F7"/>
<path d="M29.7925 17.1785C32.7746 17.069 35.5344 17.1113 37.7323 17.2905C36.0053 18.4359 34.0345 19.6719 31.9345 20.9016C31.8278 18.5828 30.462 17.4533 29.7925 17.1785Z" fill="#4852F4"/>
<path d="M32.3796 17.1207C34.363 17.1062 36.1866 17.1645 37.7323 17.2905C36.6253 18.0247 35.4181 18.7961 34.1409 19.5793C33.9723 18.0801 32.8965 17.3156 32.3796 17.1207Z" fill="#3E26A8"/>
<path d="M36.7479 17.9946C32.0817 18.3029 21.8167 22.3046 23.5322 27.292C24.1629 28.9027 30.8298 27.5465 36.7479 17.9946Z" fill="#ABC739"/>
<path d="M25.0329 22.8534C27.8714 20.1023 33.5909 18.2032 36.7479 17.9947C32.9867 24.0652 28.9231 26.8254 26.2987 27.6177C27.4917 26.1434 26.5807 22.8581 25.0329 22.8534Z" fill="#37C897"/>
<path d="M26.5243 21.6496C29.5673 19.5591 34.0757 18.1713 36.7479 17.9947C33.5566 23.1455 30.1475 25.9132 27.5846 27.1175C28.771 25.7706 28.2032 22.7864 26.5243 21.6496Z" fill="#12B1D6"/>
<path d="M28.4622 20.5029C31.2677 19.0606 34.6006 18.1366 36.748 17.9947C34.2269 22.0639 31.5698 24.6456 29.3014 26.1443C30.1509 25.2779 29.8708 22.0453 28.4622 20.5029Z" fill="#2E87F7"/>
<path d="M30.4403 19.6014C32.7239 18.6804 35.0895 18.1043 36.7479 17.9947C34.9116 20.9586 33.0032 23.1333 31.2253 24.6752C31.7339 22.9773 31.838 21.0614 30.4403 19.6014Z" fill="#4852F4"/>
<path d="M32.3109 18.9273C33.9616 18.4008 35.5418 18.0744 36.7479 17.9947C35.4909 20.0235 34.2002 21.6826 32.9406 23.0221C33.3236 21.8076 33.7642 20.1596 32.3109 18.9273Z" fill="#3E26A8"/>
<path d="M37.0042 17.5945C35.2452 20.3908 30.423 27.1497 29.1275 26.6735C27.7876 26.0314 30.8404 23.7013 37.0042 17.5945Z" fill="#4852F4"/>
<path d="M37.0042 17.5944C33.6358 20.9317 31.1965 23.141 29.8955 24.5634C29.901 24.9047 30.1688 25.534 31.1953 25.32C33.1568 23.2851 35.7993 19.51 37.0042 17.5944Z" fill="#3E26A8"/>
<path d="M37.5702 17.1185C37.9203 18.4015 38.0519 21.7921 36.7068 21.7185C35.3617 21.6449 36.4218 18.1135 37.5702 17.1185Z" fill="#4852F4"/>
<path d="M37.5702 17.1185C36.8654 17.7291 36.1939 19.295 36.0912 20.4307C36.2787 20.7464 36.8543 21.2342 37.6569 20.6603C37.9246 19.5722 37.7908 17.927 37.5702 17.1185Z" fill="#3E26A8"/>
</svg>
