<svg width="50" height="40" viewBox="0 0 50 40" fill="none" xmlns="http://www.w3.org/2000/svg">
<path d="M43.5 27.1309L24.5016 38.1L5 27L5.00002 12.2617L24.5 1L43.5 11.9688V27.1309Z" fill="var(--mw-icon-background-default-white, white)"/>
<path d="M5.5 27V12L24.5 1L43.5 12V27L24.5 38L5.5 27Z" fill="var(--mw-icon-background-default-white, white)"/>
<path d="M24.5 16.4999L24.5058 1.5835L43.0197 12.2538V27.1224L24.5 16.4999Z" fill="var(--mw-icon-background-default-light-gray, #F5F5F5)"/>
<path d="M24.5 16.4999L24.4942 1.5835L5.98034 12.2674L5.98034 27.1224L24.5 16.4999Z" fill="#E6E6E6"/>
<path d="M43.5 27V11.959L24.5 1L5.5 11.97" stroke="#BFBFBF" stroke-linecap="round" stroke-linejoin="round"/>
<path d="M5.5 12V27.03L24.5 38L43.5 27.0352" stroke="var(--mw-icon-border-default-gray, #616161)" stroke-linecap="round" stroke-linejoin="round"/>
<path d="M15.6782 21.4954L33.6782 31.9003L33.6782 17.077L15.6782 6.67578V21.4954Z" fill="#12B1D6"/>
<path d="M15.6782 17.7905L29.1782 25.5942L29.1782 14.4767L15.6782 6.67578V17.7905Z" fill="#37C897"/>
<path d="M15.6782 14.1014L20.1782 16.7026L20.1782 12.9968L15.6782 10.3965V14.1014Z" fill="#ABC739"/>
<path d="M24.6782 19.2874L29.1782 21.8886L29.1782 18.1828L24.6782 15.5825V19.2874Z" fill="#ABC739"/>
<path d="M20.1782 20.3853L24.6782 22.9866L24.6782 11.8767L20.1782 9.27637V20.3853Z" fill="#ABC739"/>
<path d="M20.1782 16.6868L24.6782 19.2881L24.6782 15.5822L20.1782 12.9819V16.6868Z" fill="#F9FB15"/>

</svg>
