<svg width="50" height="41" viewBox="0 0 50 41" fill="none" xmlns="http://www.w3.org/2000/svg">
<rect x="0.5" y="0.62793" width="48" height="38" rx="1" fill="var(--mw-icon-background-default-white, #FFFFFF)"/>
<rect x="0.5" y="0.62793" width="48" height="38" rx="1" stroke="var(--mw-icon-border-default-gray, #616161)"/>
<path fill-rule="evenodd" clip-rule="evenodd" d="M42.5 9.62793H6.5V29.6279H42.5V9.62793ZM35.5367 21.6279H13.5V17.6279H35.5367V21.6279Z" fill="#EDB120"/>
<path d="M6.5 9.62793V9.12793C6.22386 9.12793 6 9.35179 6 9.62793H6.5ZM42.5 9.62793H43C43 9.35179 42.7761 9.12793 42.5 9.12793V9.62793ZM6.5 29.6279H6C6 29.9041 6.22386 30.1279 6.5 30.1279V29.6279ZM42.5 29.6279V30.1279C42.7761 30.1279 43 29.9041 43 29.6279H42.5ZM13.5 21.6279H13C13 21.9041 13.2239 22.1279 13.5 22.1279V21.6279ZM35.5367 21.6279V22.1279C35.8129 22.1279 36.0367 21.9041 36.0367 21.6279H35.5367ZM13.5 17.6279V17.1279C13.2239 17.1279 13 17.3518 13 17.6279H13.5ZM35.5367 17.6279H36.0367C36.0367 17.3518 35.8129 17.1279 35.5367 17.1279V17.6279ZM6.5 10.1279H42.5V9.12793H6.5V10.1279ZM7 29.6279V9.62793H6V29.6279H7ZM42.5 29.1279H6.5V30.1279H42.5V29.1279ZM42 9.62793V29.6279H43V9.62793H42ZM13.5 22.1279H35.5367V21.1279H13.5V22.1279ZM13 17.6279V21.6279H14V17.6279H13ZM35.5367 17.1279H13.5V18.1279H35.5367V17.1279ZM36.0367 21.6279V17.6279H35.0367V21.6279H36.0367Z" fill="#745A26"/>
</svg>
