<svg width="50" height="40" viewBox="0 0 50 40" fill="none" xmlns="http://www.w3.org/2000/svg">
<rect x="0.5" y="0.5" width="48" height="38" rx="1" fill="var(--mw-icon-background-default-white, white)"/>
<line x1="1" y1="19.5" x2="48" y2="19.5" stroke="#BFBFBF"/>
<path d="M48 38C47.1666 35.9425 44 31.5 38.8333 27.698C34.4115 24.4441 29.5501 21.5254 23.8333 21.5254C23 21.5254 21.3333 21.011 18.4166 24.6117C16.0833 27.4922 7.7222 31.9845 3.83331 33.8706L0.413086 35.7023" stroke="var(--mw-icon-borderColor-light-blue, #268CDD)"/>
<path d="M0.607422 16.5841C5.29595 16.2094 9.12831 15.3877 10.1802 14.9193C11.3824 14.607 14.4179 13.3266 16.9425 10.7033C20.0983 7.42419 19.6474 0.865973 21.4507 6.01886C22.8933 10.1412 24.1556 9.61027 24.6065 8.82953L25.5081 6.48731C25.9589 4.92583 27.0409 2.64606 27.7622 6.01886C28.6638 10.2349 29.1146 8.82953 30.0163 6.48731C30.9179 4.14509 30.9179 4.61353 31.3687 5.55042C31.8196 6.48731 32.2704 7.4242 32.7212 6.48731C33.172 5.55042 34.0737 4.61353 34.9753 4.14509C35.8769 3.67664 39.1474 3.5 40.4999 3.5C41.8524 3.5 48.4999 3.5 48.4999 3.5" stroke="var(--mw-icon-borderColor-light-blue, #268CDD)"/>
<rect x="0.5" y="0.5" width="48" height="38" rx="1" stroke="var(--mw-icon-border-default-gray, #616161)"/>

</svg>
