<svg width="50" height="40" viewBox="0 0 50 40" fill="none" xmlns="http://www.w3.org/2000/svg">
<rect x="0.5" y="0.5" width="48" height="38" rx="1" fill="var(--mw-icon-background-default-white, #FFFFFF)"/>
<rect x="0.5" y="0.5" width="48" height="38" rx="1" stroke="var(--mw-icon-border-default-gray, #616161)"/>
<path d="M24 9C24 9.55228 24.4477 10 25 10C25.5523 10 26 9.55228 26 9C26 8.44772 25.5523 8 25 8C24.4477 8 24 8.44772 24 9Z" fill="#0072BD"/>
<path d="M24.0039 12.0261C24.0039 12.5784 24.4516 13.0261 25.0039 13.0261C25.5562 13.0261 26.0039 12.5784 26.0039 12.0261C26.0039 11.4738 25.5562 11.0261 25.0039 11.0261C24.4516 11.0261 24.0039 11.4738 24.0039 12.0261Z" fill="#0072BD"/>
<path d="M23 12C23 12.5523 22.5523 13 22 13C21.4477 13 21 12.5523 21 12C21 11.4477 21.4477 11 22 11C22.5523 11 23 11.4477 23 12Z" fill="#0072BD"/>
<path d="M27.0039 12.0261C27.0039 12.5784 27.4516 13.0261 28.0039 13.0261C28.5562 13.0261 29.0039 12.5784 29.0039 12.0261C29.0039 11.4738 28.5562 11.0261 28.0039 11.0261C27.4516 11.0261 27.0039 11.4738 27.0039 12.0261Z" fill="#0072BD"/>
<path d="M23 15C23 15.5523 22.5523 16 22 16C21.4477 16 21 15.5523 21 15C21 14.4477 21.4477 14 22 14C22.5523 14 23 14.4477 23 15Z" fill="#0072BD"/>
<path d="M27 15C27 15.5523 27.4477 16 28 16C28.5523 16 29 15.5523 29 15C29 14.4477 28.5523 14 28 14C27.4477 14 27 14.4477 27 15Z" fill="#0072BD"/>
<path d="M23 18C23 18.5523 22.5523 19 22 19C21.4477 19 21 18.5523 21 18C21 17.4477 21.4477 17 22 17C22.5523 17 23 17.4477 23 18Z" fill="#0072BD"/>
<path d="M27 18C27 18.5523 27.4477 19 28 19C28.5523 19 29 18.5523 29 18C29 17.4477 28.5523 17 28 17C27.4477 17 27 17.4477 27 18Z" fill="#0072BD"/>
<path d="M23 21C23 21.5523 22.5523 22 22 22C21.4477 22 21 21.5523 21 21C21 20.4477 21.4477 20 22 20C22.5523 20 23 20.4477 23 21Z" fill="#0072BD"/>
<path d="M27 21C27 21.5523 27.4477 22 28 22C28.5523 22 29 21.5523 29 21C29 20.4477 28.5523 20 28 20C27.4477 20 27 20.4477 27 21Z" fill="#0072BD"/>
<path d="M23 24C23 24.5523 22.5523 25 22 25C21.4477 25 21 24.5523 21 24C21 23.4477 21.4477 23 22 23C22.5523 23 23 23.4477 23 24Z" fill="#0072BD"/>
<path d="M27 24C27 24.5523 27.4477 25 28 25C28.5523 25 29 24.5523 29 24C29 23.4477 28.5523 23 28 23C27.4477 23 27 23.4477 27 24Z" fill="#0072BD"/>
<path d="M23 27C23 27.5523 22.5523 28 22 28C21.4477 28 21 27.5523 21 27C21 26.4477 21.4477 26 22 26C22.5523 26 23 26.4477 23 27Z" fill="#0072BD"/>
<path d="M27 27C27 27.5523 27.4477 28 28 28C28.5523 28 29 27.5523 29 27C29 26.4477 28.5523 26 28 26C27.4477 26 27 26.4477 27 27Z" fill="#0072BD"/>
<path d="M23 30C23 30.5523 22.5523 31 22 31C21.4477 31 21 30.5523 21 30C21 29.4477 21.4477 29 22 29C22.5523 29 23 29.4477 23 30Z" fill="#0072BD"/>
<path d="M27 30C27 30.5523 27.4477 31 28 31C28.5523 31 29 30.5523 29 30C29 29.4477 28.5523 29 28 29C27.4477 29 27 29.4477 27 30Z" fill="#0072BD"/>
<path d="M20 11C20 11.5523 19.5523 12 19 12C18.4477 12 18 11.5523 18 11C18 10.4477 18.4477 10 19 10C19.5523 10 20 10.4477 20 11Z" fill="#0072BD"/>
<path d="M30.0039 11.0261C30.0039 11.5784 30.4516 12.0261 31.0039 12.0261C31.5562 12.0261 32.0039 11.5784 32.0039 11.0261C32.0039 10.4738 31.5562 10.0261 31.0039 10.0261C30.4516 10.0261 30.0039 10.4738 30.0039 11.0261Z" fill="#0072BD"/>
<path d="M20 14C20 14.5523 19.5523 15 19 15C18.4477 15 18 14.5523 18 14C18 13.4477 18.4477 13 19 13C19.5523 13 20 13.4477 20 14Z" fill="#0072BD"/>
<path d="M30 14C30 14.5523 30.4477 15 31 15C31.5523 15 32 14.5523 32 14C32 13.4477 31.5523 13 31 13C30.4477 13 30 13.4477 30 14Z" fill="#0072BD"/>
<path d="M20 17C20 17.5523 19.5523 18 19 18C18.4477 18 18 17.5523 18 17C18 16.4477 18.4477 16 19 16C19.5523 16 20 16.4477 20 17Z" fill="#0072BD"/>
<path d="M30 17C30 17.5523 30.4477 18 31 18C31.5523 18 32 17.5523 32 17C32 16.4477 31.5523 16 31 16C30.4477 16 30 16.4477 30 17Z" fill="#0072BD"/>
<path d="M20 20C20 20.5523 19.5523 21 19 21C18.4477 21 18 20.5523 18 20C18 19.4477 18.4477 19 19 19C19.5523 19 20 19.4477 20 20Z" fill="#0072BD"/>
<path d="M30 20C30 20.5523 30.4477 21 31 21C31.5523 21 32 20.5523 32 20C32 19.4477 31.5523 19 31 19C30.4477 19 30 19.4477 30 20Z" fill="#0072BD"/>
<path d="M20 23C20 23.5523 19.5523 24 19 24C18.4477 24 18 23.5523 18 23C18 22.4477 18.4477 22 19 22C19.5523 22 20 22.4477 20 23Z" fill="#0072BD"/>
<path d="M30 23C30 23.5523 30.4477 24 31 24C31.5523 24 32 23.5523 32 23C32 22.4477 31.5523 22 31 22C30.4477 22 30 22.4477 30 23Z" fill="#0072BD"/>
<path d="M20 26C20 26.5523 19.5523 27 19 27C18.4477 27 18 26.5523 18 26C18 25.4477 18.4477 25 19 25C19.5523 25 20 25.4477 20 26Z" fill="#0072BD"/>
<path d="M30 26C30 26.5523 30.4477 27 31 27C31.5523 27 32 26.5523 32 26C32 25.4477 31.5523 25 31 25C30.4477 25 30 25.4477 30 26Z" fill="#0072BD"/>
<path d="M20 29C20 29.5523 19.5523 30 19 30C18.4477 30 18 29.5523 18 29C18 28.4477 18.4477 28 19 28C19.5523 28 20 28.4477 20 29Z" fill="#0072BD"/>
<path d="M30 29C30 29.5523 30.4477 30 31 30C31.5523 30 32 29.5523 32 29C32 28.4477 31.5523 28 31 28C30.4477 28 30 28.4477 30 29Z" fill="#0072BD"/>
<path d="M35 13C35 13.5523 34.5523 14 34 14C33.4477 14 33 13.5523 33 13C33 12.4477 33.4477 12 34 12C34.5523 12 35 12.4477 35 13Z" fill="#0072BD"/>
<path d="M15 13C15 13.5523 15.4477 14 16 14C16.5523 14 17 13.5523 17 13C17 12.4477 16.5523 12 16 12C15.4477 12 15 12.4477 15 13Z" fill="#0072BD"/>
<path d="M17 16C17 16.5523 16.5523 17 16 17C15.4477 17 15 16.5523 15 16C15 15.4477 15.4477 15 16 15C16.5523 15 17 15.4477 17 16Z" fill="#0072BD"/>
<path d="M33 16C33 16.5523 33.4477 17 34 17C34.5523 17 35 16.5523 35 16C35 15.4477 34.5523 15 34 15C33.4477 15 33 15.4477 33 16Z" fill="#0072BD"/>
<path d="M17 19C17 19.5523 16.5523 20 16 20C15.4477 20 15 19.5523 15 19C15 18.4477 15.4477 18 16 18C16.5523 18 17 18.4477 17 19Z" fill="#0072BD"/>
<path d="M33 19C33 19.5523 33.4477 20 34 20C34.5523 20 35 19.5523 35 19C35 18.4477 34.5523 18 34 18C33.4477 18 33 18.4477 33 19Z" fill="#0072BD"/>
<path d="M17 22C17 22.5523 16.5523 23 16 23C15.4477 23 15 22.5523 15 22C15 21.4477 15.4477 21 16 21C16.5523 21 17 21.4477 17 22Z" fill="#0072BD"/>
<path d="M33 22C33 22.5523 33.4477 23 34 23C34.5523 23 35 22.5523 35 22C35 21.4477 34.5523 21 34 21C33.4477 21 33 21.4477 33 22Z" fill="#0072BD"/>
<path d="M17 25C17 25.5523 16.5523 26 16 26C15.4477 26 15 25.5523 15 25C15 24.4477 15.4477 24 16 24C16.5523 24 17 24.4477 17 25Z" fill="#0072BD"/>
<path d="M33 25C33 25.5523 33.4477 26 34 26C34.5523 26 35 25.5523 35 25C35 24.4477 34.5523 24 34 24C33.4477 24 33 24.4477 33 25Z" fill="#0072BD"/>
<path d="M17 28C17 28.5523 16.5523 29 16 29C15.4477 29 15 28.5523 15 28C15 27.4477 15.4477 27 16 27C16.5523 27 17 27.4477 17 28Z" fill="#0072BD"/>
<path d="M13.3274 25.9829C13.844 26.0198 14.2331 26.4665 14.1963 26.9805C14.1767 27.2557 14.0389 27.4945 13.8358 27.6512C13.495 27.1799 12.8139 26.2083 12.8157 26.0919C12.9671 26.0106 13.1429 25.9697 13.3274 25.9829Z" fill="#0072BD"/>
<path d="M36.687 25.9829C36.1704 26.0198 35.7813 26.4665 35.8181 26.9805C35.8377 27.2557 35.9755 27.4945 36.1786 27.6512C36.5194 27.1799 37.2005 26.2083 37.1987 26.0919C37.0473 26.0106 36.8715 25.9697 36.687 25.9829Z" fill="#0072BD"/>
<path d="M33 28C33 28.5523 33.4477 29 34 29C34.5523 29 35 28.5523 35 28C35 27.4477 34.5523 27 34 27C33.4477 27 33 27.4477 33 28Z" fill="#0072BD"/>
<path d="M14 15C14 15.5523 13.5523 16 13 16C12.4477 16 12 15.5523 12 15C12 14.4477 12.4477 14 13 14C13.5523 14 14 14.4477 14 15Z" fill="#0072BD"/>
<path d="M36 15C36 15.5523 36.4477 16 37 16C37.5523 16 38 15.5523 38 15C38 14.4477 37.5523 14 37 14C36.4477 14 36 14.4477 36 15Z" fill="#0072BD"/>
<path d="M14 18C14 18.5523 13.5523 19 13 19C12.4477 19 12 18.5523 12 18C12 17.4477 12.4477 17 13 17C13.5523 17 14 17.4477 14 18Z" fill="#0072BD"/>
<path d="M36 18C36 18.5523 36.4477 19 37 19C37.5523 19 38 18.5523 38 18C38 17.4477 37.5523 17 37 17C36.4477 17 36 17.4477 36 18Z" fill="#0072BD"/>
<path d="M14 21C14 21.5523 13.5523 22 13 22C12.4477 22 12 21.5523 12 21C12 20.4477 12.4477 20 13 20C13.5523 20 14 20.4477 14 21Z" fill="#0072BD"/>
<path d="M36 21C36 21.5523 36.4477 22 37 22C37.5523 22 38 21.5523 38 21C38 20.4477 37.5523 20 37 20C36.4477 20 36 20.4477 36 21Z" fill="#0072BD"/>
<path d="M14 24C14 24.5523 13.5523 25 13 25C12.4477 25 12 24.5523 12 24C12 23.4477 12.4477 23 13 23C13.5523 23 14 23.4477 14 24Z" fill="#0072BD"/>
<path d="M36 24C36 24.5523 36.4477 25 37 25C37.5523 25 38 24.5523 38 24C38 23.4477 37.5523 23 37 23C36.4477 23 36 23.4477 36 24Z" fill="#0072BD"/>
<path d="M24 15C24 15.5523 24.4477 16 25 16C25.5523 16 26 15.5523 26 15C26 14.4477 25.5523 14 25 14C24.4477 14 24 14.4477 24 15Z" fill="#0072BD"/>
<path d="M24 18C24 18.5523 24.4477 19 25 19C25.5523 19 26 18.5523 26 18C26 17.4477 25.5523 17 25 17C24.4477 17 24 17.4477 24 18Z" fill="#0072BD"/>
<path d="M24 21C24 21.5523 24.4477 22 25 22C25.5523 22 26 21.5523 26 21C26 20.4477 25.5523 20 25 20C24.4477 20 24 20.4477 24 21Z" fill="#0072BD"/>
<path d="M24 24C24 24.5523 24.4477 25 25 25C25.5523 25 26 24.5523 26 24C26 23.4477 25.5523 23 25 23C24.4477 23 24 23.4477 24 24Z" fill="#0072BD"/>
<path d="M24 27C24 27.5523 24.4477 28 25 28C25.5523 28 26 27.5523 26 27C26 26.4477 25.5523 26 25 26C24.4477 26 24 26.4477 24 27Z" fill="#0072BD"/>
<path d="M24 30C24 30.5523 24.4477 31 25 31C25.5523 31 26 30.5523 26 30C26 29.4477 25.5523 29 25 29C24.4477 29 24 29.4477 24 30Z" fill="#0072BD"/>
<path d="M23 8.5C23 9.05228 22.5523 9.5 22 9.5C21.4477 9.5 21 9.05228 21 8.5C21 7.94772 21.4477 7.5 22 7.5C22.5523 7.5 23 7.94772 23 8.5Z" fill="#0072BD"/>
<path d="M27 8.5C27 9.05228 27.4477 9.5 28 9.5C28.5523 9.5 29 9.05228 29 8.5C29 7.94772 28.5523 7.5 28 7.5C27.4477 7.5 27 7.94772 27 8.5Z" fill="#0072BD"/>
<path d="M24.9846 6.95745C24.479 6.95745 24.0669 6.55946 24.0475 6.06122C24.4827 6.0025 25.3174 5.95948 25.9217 6.06122C25.9022 6.55946 25.4901 6.95745 24.9846 6.95745Z" fill="#0072BD"/>
<path d="M23.1091 32.5503C23.1091 32.0349 22.6892 31.6172 22.1712 31.6172C21.6657 31.6172 21.2536 32.0152 21.2341 32.5134C21.5594 32.645 22.7244 32.8601 23.0476 32.8831C23.0873 32.7797 23.1091 32.6675 23.1091 32.5503Z" fill="#0072BD"/>
<path d="M26.8604 32.5245C26.8604 32.0092 27.2803 31.5914 27.7983 31.5914C28.3038 31.5914 28.7159 31.9894 28.7354 32.4877C28.41 32.6193 27.2451 32.8343 26.9219 32.8574C26.8822 32.754 26.8604 32.6418 26.8604 32.5245Z" fill="#0072BD"/>
<path d="M29.6446 32.0581C29.6446 31.5428 30.0645 31.125 30.5824 31.125C30.8833 31.125 31.1511 31.266 31.3228 31.4852C30.9214 31.702 30.0549 32.0909 29.6541 32.1914C29.6479 32.1479 29.6446 32.1033 29.6446 32.0581Z" fill="#0072BD"/>
<path d="M33.2701 30.1624C33.3281 30.1624 33.3849 30.1676 33.4399 30.1776C33.1491 30.3931 32.5337 30.8013 32.3526 30.9015C32.4423 30.4793 32.819 30.1624 33.2701 30.1624Z" fill="#0072BD"/>
<path d="M33.9942 11.0671C33.4419 11.0671 32.9942 10.6194 32.9942 10.0671C32.9942 9.59067 33.3274 9.19206 33.7735 9.09155C34.1506 9.37276 34.921 9.98744 34.9859 10.1966C34.9224 10.6877 34.5026 11.0671 33.9942 11.0671Z" fill="#0072BD"/>
<path d="M20.2956 32.0837C20.2956 31.5684 19.8757 31.1506 19.3577 31.1506C19.0568 31.1506 18.789 31.2916 18.6174 31.5108C19.0188 31.7276 19.8852 32.1165 20.2861 32.217C20.2923 32.1735 20.2956 32.129 20.2956 32.0837Z" fill="#0072BD"/>
<path d="M16.7418 30.2175C16.6838 30.2175 16.6271 30.2228 16.572 30.2328C16.8628 30.4483 17.4783 30.8565 17.6594 30.9567C17.5697 30.5344 17.1929 30.2175 16.7418 30.2175Z" fill="#0072BD"/>
<path d="M15.9942 11.0671C16.5465 11.0671 16.9942 10.6194 16.9942 10.0671C16.9942 9.5907 16.661 9.19209 16.2149 9.09158C15.8378 9.37279 15.0674 9.98747 15.0025 10.1966C15.066 10.6877 15.4858 11.0671 15.9942 11.0671Z" fill="#0072BD"/>
<path d="M13.7273 12.5316C14.2452 12.5316 14.6651 12.1139 14.6651 11.5985C14.6651 11.3226 14.5447 11.0746 14.3533 10.9038C13.9798 11.3496 13.2311 12.2702 13.2246 12.3864C13.3699 12.4784 13.5423 12.5316 13.7273 12.5316Z" fill="#0072BD"/>
<path d="M36.2176 12.4743C35.6996 12.4743 35.2797 12.0565 35.2797 11.5412C35.2797 11.2652 35.4001 11.0173 35.5915 10.8464C35.965 11.2922 36.7137 12.2129 36.7203 12.329C36.575 12.421 36.4025 12.4743 36.2176 12.4743Z" fill="#0072BD"/>
<path d="M24.9846 32.0349C25.4901 32.0349 25.9065 32.4576 25.926 32.9559C25.4827 32.9887 24.5192 33.0361 24.0356 32.9558C24.0551 32.4576 24.4791 32.0349 24.9846 32.0349Z" fill="#0072BD"/>
<path d="M19.3577 8.35706C19.8757 8.35706 20.2955 7.93931 20.2955 7.42398C20.2955 7.22208 20.2311 7.03516 20.1215 6.88247C19.5243 6.98665 18.754 7.42594 18.4434 7.63257C18.5386 8.04748 18.9118 8.35706 19.3577 8.35706Z" fill="#0072BD"/>
<path d="M30.6353 8.35706C30.1174 8.35706 29.6975 7.93931 29.6975 7.42398C29.6975 7.22208 29.7619 7.03516 29.8715 6.88247C30.4687 6.98665 31.2391 7.42594 31.5496 7.63257C31.4544 8.04748 31.0812 8.35706 30.6353 8.35706Z" fill="#0072BD"/>
</svg>
