<svg width="50" height="41" viewBox="0 0 50 41" fill="none" xmlns="http://www.w3.org/2000/svg">
<rect x="0.5" y="0.62793" width="48" height="38" rx="1" fill="var(--mw-icon-background-default-white, #FFFFFF)"/>
<rect x="0.5" y="0.62793" width="48" height="38" rx="1" stroke="var(--mw-icon-border-default-gray, #616161)"/>
<path d="M25 31.6279C18.4799 31.1317 14.5019 27.3211 14.5019 20.8696C14.5019 14.9143 18.9896 11.6519 22.6486 11.6519C25.9936 11.6519 28.5448 14.4284 28.5448 17.8694C28.5448 20.3655 27.7067 21.764 25.7006 21.764C23.6945 21.764 22.8109 19.5533 22.8109 19.5533C22.8109 19.5533 22.1946 23.4249 26.2071 23.4249C28.935 23.4249 31.4982 20.3237 31.4982 17.3461C31.4982 14.8648 29.6701 8.63525 22.6486 8.63525C15.1255 8.63525 11.5001 15.9068 11.5 20.8696C11.5 28.5024 16.9812 33.6279 23 33.6279C29.5198 33.6279 31.6763 30.7951 31.6763 30.7951C31.6763 30.7951 29.5139 31.6279 25 31.6279Z" fill="#EDB120" stroke="#745A26" stroke-linejoin="round"/>
<path d="M24 6.62793C30.5201 7.1242 34.4983 10.9533 34.4983 17.4048C34.4983 23.3601 30.0274 26.6226 26.3683 26.6226C23.0233 26.6226 20.4721 23.846 20.4721 20.405C20.4721 17.9089 21.3102 16.5104 23.3163 16.5104C25.3225 16.5104 26.206 18.7211 26.206 18.7211C26.206 18.7211 26.8224 14.8496 22.8099 14.8496C20.0819 14.8496 17.5187 17.9507 17.5187 20.9283C17.5187 23.4097 19.3468 29.6392 26.3683 29.6392C33.8915 29.6392 37.4999 22.3676 37.5 17.4048C37.5 9.77197 32.0188 4.62793 26 4.62793C19.4802 4.62793 17.3406 7.47935 17.3406 7.47935C17.3406 7.47935 19.4861 6.62793 24 6.62793Z" fill="#EDB120" stroke="#745A26" stroke-linejoin="round"/>
</svg>
