<svg width="50" height="40" viewBox="0 0 50 40" fill="none" xmlns="http://www.w3.org/2000/svg">
<rect x="0.5" y="0.5" width="48" height="38" rx="1" fill="var(--mw-icon-background-default-white, white)"/>
<circle cx="43" cy="31" r="1.5" stroke="#0072BD"/>
<circle cx="37" cy="31" r="1.5" stroke="#0072BD"/>
<circle cx="31" cy="31" r="1.5" stroke="#0072BD"/>
<circle cx="37" cy="25" r="1.5" stroke="#0072BD"/>
<circle cx="31" cy="25" r="1.5" stroke="#0072BD"/>
<circle cx="28" cy="19" r="1.5" stroke="#0072BD"/>
<circle cx="37" cy="19" r="1.5" stroke="#0072BD"/>
<circle cx="15" cy="19" r="1.5" stroke="#0072BD"/>
<circle cx="9" cy="25" r="1.5" stroke="#0072BD"/>
<circle cx="22" cy="19" r="1.5" stroke="#0072BD"/>
<circle cx="28" cy="13" r="1.5" stroke="#0072BD"/>
<circle cx="22" cy="13" r="1.5" stroke="#0072BD"/>
<circle cx="43" cy="7" r="1.5" stroke="#0072BD"/>
<circle cx="37" cy="7" r="1.5" stroke="#0072BD"/>
<circle cx="22" cy="7" r="1.5" stroke="#0072BD"/>
<circle cx="16" cy="6" r="1.5" stroke="#0072BD"/>
<circle cx="7" cy="9" r="1.5" stroke="#0072BD"/>
<circle cx="25" cy="31" r="1.5" stroke="#0072BD"/>
<rect x="0.5" y="0.5" width="48" height="38" rx="1" stroke="var(--mw-icon-border-default-gray, #616161)"/>

</svg>
