<svg width="50" height="40" viewBox="0 0 50 40" fill="none" xmlns="http://www.w3.org/2000/svg">
<path d="M26.5 13.5C26.5 12.9477 26.9477 12.5 27.5 12.5H44.5C45.0523 12.5 45.5 12.9477 45.5 13.5V34.5C45.5 35.0523 45.0523 35.5 44.5 35.5H27.5C26.9477 35.5 26.5 35.0523 26.5 34.5V13.5Z" fill="#BFBFBF" stroke="var(--mw-icon-border-default-gray, #616161)"/>
<path d="M46 4.5C46 4.22386 45.7761 4 45.5 4H24.604L13.9013 31.6883H13.7979L8.52409 17.7662H8.0329L4 20.987L4.31022 21.5065C4.87897 20.987 5.55112 20.7013 5.9906 20.7013C6.6369 20.7013 7.15394 21.0649 7.59342 22.2338L12.8155 36H13.6428L26 5H45.5C45.7761 5 46 4.77614 46 4.5Z" fill="var(--mw-icon-object-primary, #616160)"/>

</svg>
