<svg width="50" height="40" viewBox="0 0 50 40" fill="none" xmlns="http://www.w3.org/2000/svg">
<rect x="0.5" y="0.5" width="48" height="38" rx="1" fill="var(--mw-icon-background-default-white, #FFFFFF)"/>
<path d="M3 4C3 3.44771 3.44772 3 4 3H45C45.5523 3 46 3.44772 46 4V35C46 35.5523 45.5523 36 45 36H4C3.44772 36 3 35.5523 3 35V4Z" fill="#4852F4"/>
<path d="M8 3L37.0181 8.96546L40 9.40557V9L38 8V6H43V7L42.5345 7.63979H41.6151V9H42.5V9.77455L46 10.2911V11.9737L37 10.0248V11.25H35L34 12H33V11.25L32 10.5V9.75L32.841 9.11922L31.5017 8.80598V10.2911L30.5 11H29L28.5 10L30 9.5V9L26.9047 8.96545L26 10H24.1465L23.2271 8.30262L24.0816 7.07052L6.67761 3H8Z" fill="#37C897"/>
<path d="M7 29V30L12 32H20L21 31L21.0323 36H45C45.5523 36 46 35.5523 46 35V18.1282H38.6493L37.3443 18.503L36 17H33V22H30V24H26V26H22V29H7Z" fill="#37C897"/>
<path d="M6.67763 22.5592L3 21.2336V28H5V26H8L9.5 27H12V22H8.5L6.67763 22.5592Z" fill="#37C897"/>
<path d="M19.0001 4.5V3H33.0001V7L19.0001 4.5Z" fill="#37C897"/>
<path d="M39 5V3H42V4L40 5H39Z" fill="#12B1D6"/>
<path d="M34.9672 14.0954L37.7254 12.7697L46.0001 14.0954V24.3947H42.3224L41.403 23.7319L42.3224 23.0691L41.403 21.7434H39.5642V23.0691H36.806L34.9672 21.7434L35.8866 20.4177L37.7254 21.0806V20.4177H41.403L42.3224 19.7549L41.403 19.0921H35.8866L34.9672 17.1036V14.0954Z" fill="#12B1D6"/>
<path d="M21 12L21.8333 15H26V12H21Z" fill="#12B1D6"/>
<path d="M17.5 9.83333L15 8.5L13.5 11.1667L15.5 11.7L15.9 12.5H16.5V11.1667L17.5 9.83333Z" fill="#12B1D6"/>
<path d="M6 13V5H7L8 9H10V11.6667L6 13Z" fill="#12B1D6"/>
<path d="M14.9522 15V12.9539L18 14V19L12 18.9178V16L14.9522 15Z" fill="#12B1D6"/>
<path d="M35.25 5.71925V5.17539L36.3816 4.63153H36.9474V5.71925L35.8158 6.26311V6.80697H36.9474V7.89469H35.25L34.6842 7.35083V6.26311L35.8158 5.71925H35.25Z" fill="#12B1D6"/>
<path d="M13.1135 17H3V19.245L6.03725 20.5707H11.2747L13.1135 19.9078V17Z" fill="#F9FB15"/>
<path d="M40 20V21H43V22H45V20H43L42 19H40V17H38L36 20L35.5 18H34V22H36L36.5 21L38 19H39V20H40Z" fill="#FEC338"/>
<path d="M4 31L3 30.5V35C3 35.5522 3.44772 36 4 36L38.9881 36V34H42V33.5L40 33V31H45L45.2927 30.6311L44.3642 29H42V30.0345H38.9881L37.5 30.5H36L36.5 29.5L38.5 29L38.9881 28.2449L37 27.5L36.6239 28H35.0478V24.6656L33.4717 24.0691L32.6836 25.2622H30.3194V26.4552H31.8956V27.6483H30.3194L27.9552 25.7622L26.3791 25.1656L24.803 26.3587H26.3791L27.1672 27.0518H25.9851L25.2484 27.3501L26 28H29V30.5L27.9552 31H26L25.9851 30L26.5 29.5L25 28H23L24.5 29.5L23 30V31H24.0149L23.5 32.5L24.0149 33.0173V35H22L21.5 34.5L21 35H20L19.2865 34.2103H17.7104V34.8069H14.5582L14.0307 34.0444L14.0329 34.0115H14.0079L14 34H12V34.0115H10V35H7V34.5L7.59704 34.0115V33H8L10 31.5V29.5L8 31H4Z" fill="#FEC338"/>
<path d="M31 31V32.5L33 33V31H31Z" fill="#F9FB15"/>
<path d="M33 30V30.75L34 31V30H33Z" fill="#F9FB15"/>
<path d="M36 34V35H37V34H36Z" fill="#F9FB15"/>
<rect x="0.5" y="0.5" width="48" height="38" rx="1" stroke="var(--mw-icon-border-default-gray, #616161)"/>
</svg>
