<svg width="50" height="40" viewBox="0 0 50 40" fill="none" xmlns="http://www.w3.org/2000/svg">
<rect x="0.5" y="0.5" width="48" height="38" rx="1" fill="var(--mw-icon-background-default-white, #FFFFFF)"/>
<path d="M0.5 27.125C0.5 27.125 2.16609 21.5 5.49826 21.5C8.83044 21.5 13.8287 36.5 17.9939 36.5C22.1591 36.5 26.3244 21.5 30.4896 21.5C34.6548 21.5 38.82 36.5 42.9852 36.5C47.1505 36.5 48.5 29 48.5 29" stroke="#0072BD" stroke-miterlimit="10"/>
<path d="M48 19H1V20H48V19Z" fill="var(--mw-icon-background-default-dark-gray, #A6A6A6)"/>
<path d="M0.5 3.67188C4.12483 3.67188 9.91793 17.5 13.2283 17.5C16.5386 17.5 21.5041 2.5 24.8145 2.5C28.1248 2.5 33.0903 17.5 37.2283 17.5C41.3662 17.5 45.1897 3.4375 48.5 3.4375" stroke="#D95319" stroke-miterlimit="10"/>
<rect x="0.5" y="0.5" width="48" height="38" rx="1" stroke="var(--mw-icon-border-default-gray, #616161)"/>
</svg>
