<svg width="50" height="40" viewBox="0 0 50 40" fill="none" xmlns="http://www.w3.org/2000/svg">
<rect x="0.5" y="0.5" width="48" height="38" rx="1" fill="var(--mw-icon-background-default-white, #FFFFFF)"/>
<rect x="0.5" y="0.5" width="48" height="38" rx="1" stroke="var(--mw-icon-border-default-gray, #616161)"/>
<path d="M13.5747 21.1096C13.5747 20.7687 13.5217 20.4679 13.4159 20.2072C13.3166 19.9398 13.138 19.6992 12.88 19.4853C12.6285 19.2714 12.2779 19.0675 11.828 18.8737C11.3847 18.6798 10.8223 18.4826 10.1408 18.2821C9.42628 18.0682 8.78119 17.8309 8.20558 17.5702C7.62996 17.3028 7.13705 16.9987 6.72684 16.6578C6.31664 16.3168 6.00236 15.9258 5.78403 15.4846C5.56569 15.0434 5.45652 14.5388 5.45652 13.9706C5.45652 13.4024 5.57231 12.8777 5.80388 12.3964C6.03544 11.9151 6.36626 11.4973 6.79631 11.143C7.23299 10.7821 7.75236 10.5013 8.35444 10.3008C8.95652 10.1003 9.62807 10 10.3691 10C11.4542 10 12.3738 10.2106 13.1281 10.6317C13.8889 11.0461 14.4679 11.5909 14.8648 12.266C15.2618 12.9345 15.4603 13.6497 15.4603 14.4118H13.5548C13.5548 13.8636 13.439 13.379 13.2075 12.9579C12.9759 12.5301 12.6252 12.1959 12.1555 11.9552C11.6857 11.7079 11.0903 11.5842 10.3691 11.5842C9.68762 11.5842 9.12524 11.6878 8.68195 11.8951C8.23866 12.1023 7.90784 12.383 7.68951 12.7373C7.47779 13.0916 7.37193 13.496 7.37193 13.9505C7.37193 14.258 7.43478 14.5388 7.56049 14.7928C7.69282 15.0401 7.89461 15.2707 8.16588 15.4846C8.44376 15.6985 8.79442 15.8957 9.21786 16.0762C9.64792 16.2567 10.1607 16.4305 10.7561 16.5976C11.5766 16.8316 12.2845 17.0922 12.88 17.3797C13.4754 17.6671 13.965 17.9913 14.3488 18.3523C14.7391 18.7066 15.0269 19.111 15.2122 19.5655C15.4041 20.0134 15.5 20.5214 15.5 21.0896C15.5 21.6845 15.3809 22.2226 15.1427 22.7039C14.9045 23.1852 14.5638 23.5963 14.1205 23.9372C13.6772 24.2781 13.1446 24.5421 12.5227 24.7293C11.9074 24.9098 11.2193 25 10.4584 25C9.79017 25 9.13185 24.9064 8.48346 24.7193C7.84168 24.5321 7.25614 24.2513 6.72684 23.877C6.20416 23.5027 5.78403 23.0414 5.46645 22.4933C5.15548 21.9385 5 21.2968 5 20.5682H6.90548C6.90548 21.0695 7.00142 21.5007 7.19329 21.8616C7.38516 22.2159 7.6465 22.51 7.97732 22.744C8.31474 22.9779 8.69518 23.1517 9.11862 23.2654C9.54868 23.3723 9.99527 23.4258 10.4584 23.4258C11.1267 23.4258 11.6923 23.3322 12.1555 23.1451C12.6186 22.9579 12.9693 22.6905 13.2075 22.3429C13.4523 21.9953 13.5747 21.5842 13.5747 21.1096Z" fill="#0072BD"/>
<path d="M25.5747 21.1096C25.5747 20.7687 25.5217 20.4679 25.4159 20.2072C25.3166 19.9398 25.138 19.6992 24.88 19.4853C24.6285 19.2714 24.2779 19.0675 23.828 18.8737C23.3847 18.6798 22.8223 18.4826 22.1408 18.2821C21.4263 18.0682 20.7812 17.8309 20.2056 17.5702C19.63 17.3028 19.1371 16.9987 18.7268 16.6578C18.3166 16.3168 18.0024 15.9258 17.784 15.4846C17.5657 15.0434 17.4565 14.5388 17.4565 13.9706C17.4565 13.4024 17.5723 12.8777 17.8039 12.3964C18.0354 11.9151 18.3663 11.4973 18.7963 11.143C19.233 10.7821 19.7524 10.5013 20.3544 10.3008C20.9565 10.1003 21.6281 10 22.3691 10C23.4542 10 24.3738 10.2106 25.1281 10.6317C25.8889 11.0461 26.4679 11.5909 26.8648 12.266C27.2618 12.9345 27.4603 13.6497 27.4603 14.4118H25.5548C25.5548 13.8636 25.439 13.379 25.2075 12.9579C24.9759 12.5301 24.6252 12.1959 24.1555 11.9552C23.6857 11.7079 23.0903 11.5842 22.3691 11.5842C21.6876 11.5842 21.1252 11.6878 20.6819 11.8951C20.2387 12.1023 19.9078 12.383 19.6895 12.7373C19.4778 13.0916 19.3719 13.496 19.3719 13.9505C19.3719 14.258 19.4348 14.5388 19.5605 14.7928C19.6928 15.0401 19.8946 15.2707 20.1659 15.4846C20.4438 15.6985 20.7944 15.8957 21.2179 16.0762C21.6479 16.2567 22.1607 16.4305 22.7561 16.5976C23.5766 16.8316 24.2845 17.0922 24.88 17.3797C25.4754 17.6671 25.965 17.9913 26.3488 18.3523C26.7391 18.7066 27.0269 19.111 27.2122 19.5655C27.4041 20.0134 27.5 20.5214 27.5 21.0896C27.5 21.6845 27.3809 22.2226 27.1427 22.7039C26.9045 23.1852 26.5638 23.5963 26.1205 23.9372C25.6772 24.2781 25.1446 24.5421 24.5227 24.7293C23.9074 24.9098 23.2193 25 22.4584 25C21.7902 25 21.1319 24.9064 20.4835 24.7193C19.8417 24.5321 19.2561 24.2513 18.7268 23.877C18.2042 23.5027 17.784 23.0414 17.4664 22.4933C17.1555 21.9385 17 21.2968 17 20.5682H18.9055C18.9055 21.0695 19.0014 21.5007 19.1933 21.8616C19.3852 22.2159 19.6465 22.51 19.9773 22.744C20.3147 22.9779 20.6952 23.1517 21.1186 23.2654C21.5487 23.3723 21.9953 23.4258 22.4584 23.4258C23.1267 23.4258 23.6923 23.3322 24.1555 23.1451C24.6186 22.9579 24.9693 22.6905 25.2075 22.3429C25.4523 21.9953 25.5747 21.5842 25.5747 21.1096Z" fill="#0072BD"/>
<path d="M31.3043 22.8221V29H30V21.1452H31.2338L31.3043 22.8221ZM30.9941 24.775L30.4512 24.7532C30.4559 24.216 30.5335 23.7199 30.6839 23.265C30.8343 22.8052 31.0458 22.4059 31.3184 22.0672C31.5911 21.7284 31.9154 21.467 32.2914 21.2831C32.6722 21.0944 33.0928 21 33.5535 21C33.9295 21 34.2679 21.0532 34.5687 21.1597C34.8696 21.2613 35.1257 21.4259 35.3373 21.6534C35.5535 21.8808 35.718 22.176 35.8308 22.539C35.9436 22.8972 36 23.3351 36 23.853V29H34.6886V23.8385C34.6886 23.4271 34.6298 23.098 34.5123 22.8512C34.3948 22.5995 34.2233 22.418 33.9976 22.3067C33.772 22.1906 33.4947 22.1325 33.1657 22.1325C32.8414 22.1325 32.5452 22.2027 32.2773 22.343C32.0141 22.4834 31.7861 22.677 31.5934 22.9238C31.4054 23.1706 31.2573 23.4537 31.1492 23.7731C31.0458 24.0877 30.9941 24.4217 30.9941 24.775Z" fill="#0072BD"/>
<path d="M38.6878 21L40.4736 23.9131L42.282 21H43.9171L41.2497 24.9482L44 29H42.3875L40.5038 25.9982L38.62 29H37L39.7427 24.9482L37.0829 21H38.6878Z" fill="#0072BD"/>
</svg>
