<svg width="50" height="40" viewBox="0 0 50 40" fill="none" xmlns="http://www.w3.org/2000/svg">
<rect x="0.5" y="0.5" width="48" height="38" rx="1" fill="var(--mw-icon-background-default-white, white)"/>
<path d="M0.5 33.5L1.01075 25L3.56452 30L6.11828 16L8.16129 21L9.1828 13L11.7366 19L13.2688 15L16.3333 32.5L19.3978 24.5L20.9301 28.5L22.4624 20.5L24.5054 24.5L25.0161 17.5L27.5699 22V13L30.1237 16L29.1021 8L32.6774 12L34.7204 8.5V17L37.2742 13L39.3172 15.5L41.3602 6L43.4032 11L45.957 5L48 16" stroke="var(--mw-icon-glyph-disabled-gray, #888889)"/>
<path d="M0.5 33C2.12712 28.95 6.11356 20.85 9.04237 20.85C12.7034 20.85 13.1102 28.5 17.5847 28.5C22.0593 28.5 31.0085 6 39.1441 6C45.6525 6 48.0932 15.3 48.5 19.95" stroke="#0072BD"/>
<path d="M45.5 25V35.5H25" stroke="var(--mw-icon-border-default-gray, #616161)"/>
<path d="M27 33V28H28.8854C29.5385 28 30.0339 28.1168 30.3715 28.3503C30.7092 28.5815 30.878 28.9215 30.878 29.3702C30.878 29.6152 30.8102 29.8315 30.6747 30.0192C30.5391 30.2047 30.3506 30.3409 30.1091 30.4279C30.3851 30.492 30.602 30.6213 30.7597 30.8159C30.9199 31.0105 31 31.2486 31 31.5302C31 32.011 30.8349 32.375 30.5046 32.6223C30.1744 32.8695 29.7036 32.9954 29.0924 33H27ZM28.1091 30.8228V32.1724H29.0591C29.3204 32.1724 29.5237 32.1152 29.6691 32.0007C29.817 31.8839 29.8909 31.7237 29.8909 31.5199C29.8909 31.062 29.6359 30.8297 29.1257 30.8228H28.1091ZM28.1091 30.0948H28.9298C29.4892 30.0856 29.7689 29.8784 29.7689 29.4732C29.7689 29.2466 29.6975 29.084 29.5545 28.9856C29.414 28.8848 29.191 28.8345 28.8854 28.8345H28.1091V30.0948Z" fill="var(--mw-icon-glyph-content-gray, #616162)"/>
<path d="M36.9933 31.3122C36.9551 31.8358 36.76 32.248 36.4079 32.5488C36.058 32.8496 35.596 33 35.0219 33C34.3939 33 33.8994 32.7906 33.5383 32.3717C33.1794 31.9505 33 31.3734 33 30.6404V30.3429C33 29.875 33.083 29.4628 33.2489 29.1063C33.4149 28.7498 33.6515 28.4768 33.9588 28.2874C34.2683 28.0958 34.6271 28 35.0353 28C35.6005 28 36.0558 28.1504 36.4012 28.4512C36.7466 28.752 36.9462 29.1742 37 29.7179H35.9907C35.9661 29.4037 35.8775 29.1765 35.725 29.0361C35.5747 28.8935 35.3448 28.8222 35.0353 28.8222C34.6989 28.8222 34.4466 28.9425 34.2784 29.1832C34.1124 29.4216 34.0272 29.7926 34.0227 30.2961V30.6638C34.0227 31.1896 34.1023 31.574 34.2616 31.8168C34.423 32.0597 34.6765 32.1811 35.0219 32.1811C35.3336 32.1811 35.5657 32.111 35.7183 31.9706C35.873 31.828 35.9616 31.6085 35.984 31.3122H36.9933Z" fill="var(--mw-icon-glyph-content-gray, #616162)"/>
<path d="M39 33V28H40.6101C41.0701 28 41.481 28.0996 41.8428 28.2988C42.2069 28.4957 42.4909 28.7772 42.6945 29.1435C42.8982 29.5076 43 29.9219 43 30.3867V30.6168C43 31.0815 42.8994 31.4947 42.6981 31.8565C42.4993 32.2182 42.2177 32.4986 41.8535 32.6978C41.4894 32.897 41.0785 32.9977 40.6208 33H39ZM40.0782 28.8345V32.1724H40.5993C41.021 32.1724 41.3432 32.0408 41.566 31.7775C41.7889 31.5142 41.9027 31.1376 41.9075 30.6477V30.3832C41.9075 29.875 41.7972 29.4904 41.5768 29.2294C41.3564 28.9661 41.0341 28.8345 40.6101 28.8345H40.0782Z" fill="var(--mw-icon-glyph-content-gray, #616162)"/>
<path d="M31.4327 34L31 33.7414L31.1032 33.5286C31.2311 33.2624 31.297 32.9973 31.3009 32.7332V32H32L31.9971 32.6547C31.9952 32.8969 31.9417 33.1413 31.8367 33.3879C31.7316 33.6345 31.5969 33.8385 31.4327 34Z" fill="var(--mw-icon-glyph-content-gray, #616162)"/>
<path d="M37.4327 34L37 33.7414L37.1032 33.5286C37.2311 33.2624 37.297 32.9973 37.3009 32.7332V32H38L37.9971 32.6547C37.9952 32.8969 37.9417 33.1413 37.8367 33.3879C37.7316 33.6345 37.5969 33.8385 37.4327 34Z" fill="var(--mw-icon-glyph-content-gray, #616162)"/>
<rect x="0.5" y="0.5" width="48" height="38" rx="1" stroke="var(--mw-icon-border-default-gray, #616161)"/>

</svg>
