<svg width="50" height="40" viewBox="0 0 50 40" fill="none" xmlns="http://www.w3.org/2000/svg">
<path d="M26.5 10.5C26.5 9.94772 26.9477 9.5 27.5 9.5H46.5C47.0523 9.5 47.5 9.94772 47.5 10.5V29.5C47.5 30.0523 47.0523 30.5 46.5 30.5H27.5C26.9477 30.5 26.5 30.0523 26.5 29.5V10.5Z" fill="#BFBFBF" stroke="var(--mw-icon-border-default-gray, #616161)"/>
<path d="M9.5 32.5H16.5V39.5H9.5V32.5Z" fill="var(--mw-icon-background-default-white, white)" stroke="var(--mw-icon-border-default-gray, #616161)" stroke-linejoin="round"/>
<path d="M22 23.8369H21.314C20.8667 26.1329 20.0614 27.1299 17.7649 27.1299H8.5193L15.5877 18.9124L9.26491 11.148H15.4684C18.093 11.148 19.4947 11.7825 19.9421 14.864H20.6877V10H5V10.4532L12.9632 20.2115L5 29.5468V30H21.1649L22 23.8369Z" fill="var(--mw-icon-object-primary, #616160)"/>

</svg>
