<svg width="50" height="40" viewBox="0 0 50 40" fill="none" xmlns="http://www.w3.org/2000/svg">
<path d="M43.5 27V11.959L24.5 1L5.5 11.97" stroke="#BFBFBF" stroke-linecap="round" stroke-linejoin="round"/>
<path opacity="0.2" d="M24.5 16.5L24.5058 1.58362L43.0197 12.2539V27.1225L24.5 16.5Z" fill="#BFBFBF"/>
<path opacity="0.4" d="M24.5 16.5L24.4942 1.58362L5.98034 12.2675L5.98034 27.1225L24.5 16.5Z" fill="#BFBFBF"/>
<path d="M5.5 12V27.03L24.5 38L43.5 27.0352" stroke="var(--mw-icon-border-default-gray, #616161)" stroke-linecap="round"/>
<path d="M29.8555 23.9852C28.351 23.9852 27.3694 24.8877 27.3694 25.9667C27.3694 27.9783 28.6696 30.2377 29.5903 30.2377C30.5109 30.2377 31.2199 28.1594 32.6787 25.0924C33.1428 24.1168 31.3599 23.9852 29.8555 23.9852Z" fill="#3E26A8"/>
<path d="M34.5745 20.2218C35.0547 21.3493 35.3221 23.3088 35.3221 23.3088L41.2921 19.9104L24.3965 10.4935L21.1101 12.3474L28.4203 15.5706C28.4203 15.5706 30.2788 15.6713 31.3135 16.1847C32.0397 16.5451 32.3858 16.8701 32.9832 17.4181C33.9608 18.3146 34.0548 19.0014 34.5745 20.2218Z" fill="#12B1D6"/>
<path d="M33.6562 21.9873C33.9518 22.7538 34.1043 23.2137 33.9129 24.0126C33.8315 24.3526 32.7922 24.8762 32.7922 24.8762C32.7922 24.8762 32.5634 24.4027 31.6894 24.195C30.9165 24.0114 29.3171 23.9288 28.5091 24.4027C26.9049 25.3437 28.1036 26.6129 27.1037 26.0867C26.6525 25.8493 26.6179 25.6143 26.4413 25.136C26.2678 24.6658 26.213 24.2693 26.2344 23.7686C26.2814 22.67 26.3925 22.1027 27.1037 21.2641C27.9637 20.2499 28.8702 19.9106 30.1996 19.9407C31.159 19.9623 31.7732 20.0672 32.5634 20.6117C33.2054 21.054 33.4421 21.4325 33.6562 21.9873Z" fill="#4852F4"/>
<path d="M32.0928 16.6064L30.9736 15.9555L30.0854 15.6977C29.4403 15.8074 26.0233 13.4388 25.6731 13.5222C25.1368 13.65 24.2357 15.1403 22.3969 14.6445C21.1857 15.0701 19.7795 14.6445 19.7268 14.6445C19.6742 14.6445 16.4176 15.2535 15.5706 15.0692L12.4417 16.4695L11.3989 17.3486L12.1159 19.5173L17.3539 21.0485C18.3939 21.1188 21.0172 20.0027 21.1331 20.0027C21.2489 20.0027 23.0032 22.7838 23.3762 23.034L25.3062 24.4614C25.9557 24.2068 28.5582 20.3055 28.6109 20.3055H31.889C31.889 20.3055 34.7634 21.8107 35.1913 20.7109C35.2699 20.5089 34.4735 18.9546 34.2341 18.6282C33.93 18.2134 33.3833 17.6229 33.3833 17.6229L32.0928 16.6064Z" fill="#37C897"/>
<path d="M32.7611 19.142C33.5643 19.2575 34.3199 19.259 34.9898 20.291C35.502 21.08 35.7713 23.0305 35.7713 23.0305L33.5324 24.3107C33.4937 24.3724 33.443 24.3618 33.443 24.3618L33.5324 24.3107C33.5876 24.2227 33.6184 23.9878 33.443 23.3658C33.0768 22.0676 30.8753 21.9422 29.6631 22.0676C28.4509 22.193 26.9088 22.9214 26.6307 24.1656C26.4273 25.0759 26.6016 25.2279 26.6016 25.5078C26.3385 25.5779 25.4213 25.2168 25.049 24.3239C24.8629 23.8778 25.0057 23.1801 25.049 22.5744C25.1787 20.7566 28.4056 19.9226 29.2888 19.5849C30.5781 19.0919 31.9579 19.0266 32.7611 19.142Z" fill="#2E87F7"/>
<path d="M28.5949 26.1241C29.8414 26.2729 31.2012 25.7676 31.2012 25.7676L24.6076 30L7.9231 19.9982L11.8892 18.2158C11.8892 18.2158 12.2169 19.09 12.5711 19.09C13.027 19.2018 13.6734 18.3556 14.2711 18.5193C14.932 18.7002 15.7824 20.8289 16.7096 20.6523C17.6367 20.4757 18.7316 18.6519 19.5744 18.5193C20.9007 18.3105 20.7081 18.8953 21.5501 19.3286C22.3372 19.7337 24.0019 18.3278 24.5803 18.9621C25.2073 19.6499 24.0868 20.8785 24.0868 21.5017C24.0868 22.1249 24.3108 23.1207 25.063 24.0435C25.8152 24.9664 25.5143 24.6544 26.2114 25.2107C26.9092 25.7676 27.3484 25.9752 28.5949 26.1241Z" fill="#12B1D6"/>
<path d="M22.5942 11.4653L24.5 10.37L41.5 20.18L24.5 30L7.5 20.18L11.6464 17.7835" stroke="#12B1D6" stroke-linejoin="round"/>
<path d="M31.145 15.8678C30.6971 15.3192 30.4309 15.0884 30.0689 14.7264C29.7069 14.3644 29.1874 14.2095 28.5383 14.2154C27.6911 14.2231 26.6047 13.8743 26.2704 14.1759C26.0174 14.4041 23.3535 15.872 23.6985 16.5051C23.8714 16.8225 25.6226 16.7775 26.586 17.1095C27.5289 17.4343 28.5945 18.7234 29.1378 18.6848C29.8567 18.6337 30.9128 17.6063 31.6796 17.3747C32.4464 17.1431 32.9162 17.4777 33.0741 17.3747C33.232 17.2717 31.5929 16.4165 31.145 15.8678Z" fill="#ABC739"/>
<path d="M29.0547 13.8924C29.5229 14.0678 30.0034 14.5356 30.1183 14.7979C30.2701 15.1444 29.5668 14.6505 29.0547 14.7979C28.5512 14.9427 28.4194 16.0757 28.1062 16.0913C27.7929 16.1069 27.537 15.4471 27.0314 15.2556C26.5782 15.084 25.6706 15.216 25.5761 15.0335C25.4542 14.7979 26.0316 14.2746 26.4417 13.9918C26.8496 13.7105 27.3089 13.6769 27.8044 13.6769C28.2998 13.6769 28.4791 13.6769 29.0547 13.8924Z" fill="#FEC338"/>
<path d="M24.0205 12.6868C24.5701 13.013 25.6887 13.3563 25.7661 13.5083C26.0861 14.1367 25.1241 14.6116 24.5305 14.9923C24.3411 15.1138 24.3359 15.2678 24.1316 15.3055C23.0662 15.502 21.6334 14.6713 20.5111 14.9923C19.4217 15.3039 17.9148 18.1812 16.7936 18.3442C15.4747 18.536 15.6303 15.7834 14.298 15.7523C13.7644 15.7399 12.6329 17.4822 12.3014 17.0638C12.0725 16.7747 13.2814 14.7132 13.458 14.3895C13.8048 13.7536 14.298 12.9642 14.298 12.9642C15.4484 12.8122 18.2673 12.9258 18.4236 12.8216C18.6189 12.6913 22.4524 11.3062 22.7455 11.3062C22.9799 11.3062 23.4709 12.3607 24.0205 12.6868Z" fill="#ABC739"/>
<path d="M18.0132 8.55718C16.2848 9.25028 15.0316 11.1924 13.8483 13.7522C12.6649 16.3121 14.9115 13.7253 15.5817 13.5843C16.192 13.4559 17.0314 14.4734 18.3663 14.4734C19.7012 14.4734 19.8199 12.4253 20.8976 11.9862C21.9754 11.5471 23.4832 12.417 23.3243 12.0992C21.8642 9.17906 20.3212 7.63163 18.0132 8.55718Z" fill="#FEC338"/>
<path d="M18.0735 5.64984C16.4738 6.58305 15.8562 9.16631 15.197 11.0502C14.5377 12.9341 16.092 10.965 16.5911 10.86C17.0457 10.7643 16.9321 11.2151 17.9263 11.2151C18.9206 11.2151 18.7944 8.85014 19.5971 8.52311C20.3998 8.19608 21.7966 9.80041 21.6782 9.56367C20.5907 7.38877 19.6733 4.71662 18.0735 5.64984Z" fill="#F9FB15"/>
<line x1="22.8892" y1="19.3536" x2="19.3537" y2="22.8891" stroke="black"/>
<line x1="19.3536" y1="19.3536" x2="22.8891" y2="22.8891" stroke="black"/>
<line x1="32.3035" y1="13.7677" x2="28.768" y2="17.3033" stroke="black"/>
<line x1="28.7679" y1="13.7678" x2="32.3034" y2="17.3033" stroke="black"/>
<line x1="20.3035" y1="26.7677" x2="16.768" y2="30.3033" stroke="black"/>
<line x1="16.7679" y1="26.7678" x2="20.3034" y2="30.3033" stroke="black"/>
<line x1="15.3035" y1="14.7677" x2="11.768" y2="18.3033" stroke="black"/>
<line x1="11.7679" y1="14.7678" x2="15.3034" y2="18.3033" stroke="black"/>

</svg>
