<svg width="50" height="40" viewBox="0 0 50 40" fill="none" xmlns="http://www.w3.org/2000/svg">
<path d="M43.5 27V11.959L24.5 1L5.5 11.97" stroke="#BFBFBF" stroke-linecap="round" stroke-linejoin="round"/>
<path opacity="0.2" d="M24.5 16.5L24.5058 1.58362L43.0197 12.2539V27.1225L24.5 16.5Z" fill="#BFBFBF"/>
<path opacity="0.4" d="M24.5 16.5L24.4942 1.58362L5.98034 12.2675L5.98034 27.1225L24.5 16.5Z" fill="#BFBFBF"/>
<path d="M5.5 12V27.03L24.5 38L43.5 27.0352" stroke="var(--mw-icon-border-default-gray, #616161)" stroke-linecap="round"/>
<path d="M23 6L21 8.5L17.8482 11.6518C17.6169 11.8831 17.3582 12.0851 17.0778 12.2533L15 13.5L13.6623 14.5033C13.2254 14.831 12.8602 15.2446 12.5893 15.7188L11.1407 18.2539C11.0479 18.4162 10.9228 18.5579 10.7732 18.6701L9.8129 19.3903C9.43942 19.6704 9.49129 20.2456 9.90885 20.4544C9.96922 20.4846 10.0243 20.5243 10.0721 20.5721L10.7199 21.2199C10.9062 21.4062 11.0736 21.6104 11.2197 21.8296L11.6157 22.4235C11.87 22.805 12.0568 23.2274 12.168 23.6722L12.8935 26.574C12.9643 26.8572 13.0658 27.1317 13.1964 27.3927L13.4791 27.9582C13.8193 28.6386 14.3465 29.2079 14.9988 29.5993L22.2585 33.9551C23.3304 34.5983 24.6696 34.5983 25.7415 33.9551C26.2388 33.6567 26.6511 33.2355 26.9389 32.732L28.0315 30.8199C28.3396 30.2807 28.769 29.8207 29.2857 29.4762L30 29L32 27.5L34.6916 25.5775C35.2225 25.1982 35.6525 24.6949 35.9443 24.1114L36.3105 23.379C36.4365 23.127 36.5887 22.8891 36.7647 22.6691L38.4165 20.6043C38.4715 20.5356 38.5408 20.4796 38.6195 20.4402C39.024 20.238 39.0743 19.6807 38.7125 19.4094L37.6915 18.6436C37.5647 18.5486 37.4551 18.4327 37.3672 18.3009L36.8843 17.5765C36.63 17.195 36.4432 16.7726 36.332 16.3278L35.6959 13.7836C35.5666 13.2664 35.3352 12.7803 35.0153 12.3538L34.4701 11.6268C34.1597 11.2129 33.7718 10.8631 33.3281 10.5969L25.2127 5.72761C24.5 5.29999 23.5877 5.41229 23 6Z" fill="#F9FB15"/>
<path d="M24.9102 8.51199L30.9846 11.9289C31.585 12.2666 32.3367 12.1633 32.8238 11.6762L32.8713 11.6287C32.9565 11.5435 33.055 11.4725 33.1628 11.4186C33.6476 11.1762 34.2364 11.3152 34.5616 11.7488L35.2078 12.6103C35.4006 12.8675 35.5402 13.1607 35.6181 13.4725L36.332 16.3278C36.4432 16.7726 36.63 17.195 36.8843 17.5765L37.3672 18.3009C37.4551 18.4327 37.5647 18.5486 37.6915 18.6436L38.7125 19.4094C39.0743 19.6807 39.024 20.238 38.6195 20.4402C38.5408 20.4796 38.4715 20.5356 38.4165 20.6043L36.7647 22.6691C36.5887 22.8891 36.4365 23.127 36.3105 23.379L35.9443 24.1114C35.6525 24.6949 35.2225 25.1982 34.6916 25.5775L32 27.5L30 29L29.2857 29.4762C28.769 29.8207 28.3396 30.2807 28.0315 30.8199L26.9389 32.732C26.6511 33.2355 26.2388 33.6567 25.7415 33.9551C24.6696 34.5983 23.3304 34.5983 22.2585 33.9551L14.9988 29.5993C14.3465 29.2079 13.8193 28.6386 13.4791 27.9582L13.1964 27.3927C13.0658 27.1317 12.9643 26.8572 12.8935 26.574L12.168 23.6722C12.0568 23.2274 11.87 22.805 11.6157 22.4235L11.2197 21.8296C11.0736 21.6104 10.9062 21.4062 10.7199 21.2199L10.0721 20.5721C10.0243 20.5243 9.96922 20.4846 9.90885 20.4544C9.49129 20.2456 9.43942 19.6704 9.8129 19.3903L10.7732 18.6701C10.9228 18.5579 11.0479 18.4162 11.1407 18.2539L12.5893 15.7188C12.8602 15.2446 13.2254 14.831 13.6623 14.5033L15 13.5L17.0778 12.2533C17.3582 12.0851 17.6169 11.8831 17.8482 11.6518L20.2577 9.24228C20.6836 8.81636 21.3579 8.76844 21.8398 9.12984L22.0466 9.28495C22.543 9.65727 23.2555 9.48909 23.533 8.93406C23.7871 8.42572 24.4148 8.23335 24.9102 8.51199Z" fill="#FEC338"/>
<path d="M31.3176 13.8648L31.3504 13.7992C31.6021 13.2958 32.3304 13.3261 32.5395 13.8487C32.7345 14.3363 33.3965 14.4052 33.6878 13.9682L33.8471 13.7293C33.9462 13.5807 34.092 13.4693 34.2615 13.4128L34.3617 13.3794C34.9757 13.1748 35.634 13.5361 35.791 14.1641L36.3618 16.4471C36.4532 16.813 36.6069 17.1604 36.8161 17.4742L37.3672 18.3009C37.4551 18.4327 37.5647 18.5486 37.6915 18.6436L38.7125 19.4094C39.0743 19.6807 39.024 20.238 38.6195 20.4402C38.5408 20.4796 38.4715 20.5356 38.4165 20.6043L36.7647 22.6691C36.5887 22.8891 36.4365 23.127 36.3105 23.379L35.9443 24.1114C35.6525 24.6949 35.2225 25.1982 34.6916 25.5775L32 27.5L30 29L29.2857 29.4762C28.769 29.8207 28.3396 30.2807 28.0315 30.8199L26.9389 32.732C26.6511 33.2355 26.2388 33.6567 25.7415 33.9551C24.6696 34.5983 23.3304 34.5983 22.2585 33.9551L14.9988 29.5993C14.3465 29.2079 13.8193 28.6386 13.4791 27.9582L13.1964 27.3927C13.0658 27.1317 12.9643 26.8572 12.8935 26.574L12.168 23.6722C12.0568 23.2274 11.87 22.805 11.6157 22.4235L11.2197 21.8296C11.0736 21.6104 10.9062 21.4062 10.7199 21.2199L10.0721 20.5721C10.0243 20.5243 9.96922 20.4846 9.90885 20.4544C9.49129 20.2456 9.43942 19.6704 9.8129 19.3903L10.7732 18.6701C10.9228 18.5579 11.0479 18.4162 11.1407 18.2539L12.5893 15.7188C12.8602 15.2446 13.2254 14.831 13.6623 14.5033L15 13.5L16.9536 12.3278C17.2939 12.1237 17.715 12.1075 18.0699 12.285C18.3453 12.4227 18.6641 12.4453 18.9561 12.348L19.6613 12.1129C19.8782 12.0406 20.1149 12.0574 20.3194 12.1597L20.4026 12.2013C20.7439 12.3719 21.1588 12.2618 21.3705 11.9443L21.5346 11.6981C21.756 11.366 22.244 11.366 22.4654 11.6981C22.7036 12.0554 23.239 12.0221 23.431 11.6379L23.6034 11.2933C23.814 10.8721 24.3461 10.7307 24.738 10.992L25.5 11.5L30.3766 14.1599C30.7172 14.3458 31.1441 14.2119 31.3176 13.8648Z" fill="#ABC739"/>
<path d="M10.7732 18.6701L9.8129 19.3903C9.43942 19.6704 9.49129 20.2456 9.90885 20.4544C9.96922 20.4846 10.0243 20.5243 10.0721 20.5721L10.7199 21.2199C10.9062 21.4062 11.0736 21.6104 11.2197 21.8296L11.6157 22.4235C11.87 22.805 12.0568 23.2274 12.168 23.6722L12.8935 26.574C12.9643 26.8572 13.0658 27.1317 13.1964 27.3927L13.4791 27.9582C13.8193 28.6386 14.3465 29.2079 14.9988 29.5993L22.2585 33.9551C23.3304 34.5983 24.6696 34.5983 25.7415 33.9551C26.2388 33.6567 26.6511 33.2355 26.9389 32.732L28.0315 30.8199C28.3396 30.2807 28.769 29.8207 29.2857 29.4762L30 29L32 27.5L34.6916 25.5775C35.2225 25.1982 35.6525 24.6949 35.9443 24.1114L36.3105 23.379C36.4365 23.127 36.5887 22.8891 36.7647 22.6691L38.4165 20.6043C38.4715 20.5356 38.5408 20.4796 38.6195 20.4402C39.024 20.238 39.0743 19.6807 38.7125 19.4094L37.6915 18.6436C37.5647 18.5486 37.4551 18.4327 37.3672 18.3009L36.8161 17.4742C36.6069 17.1604 36.4532 16.813 36.3618 16.4471L35.791 14.1641C35.634 13.5361 34.9757 13.1748 34.3617 13.3794C34.1273 13.4576 33.9256 13.6116 33.7885 13.8172L33 15L32.6021 15.7958C32.3688 16.2624 31.6937 16.2343 31.5 15.75C31.3063 15.2657 30.6312 15.2376 30.3979 15.7042L29.9764 16.5472C29.7161 17.0678 29.0758 17.2686 28.5648 16.9899L24.3619 14.6974C24.1263 14.5689 23.9357 14.3713 23.8156 14.1313L23.5903 13.6806C23.2999 13.0998 22.5258 12.9742 22.0666 13.4334C22.0223 13.4777 21.9737 13.5175 21.9216 13.5523L18.0301 16.1466C17.7219 16.3521 17.3115 16.3115 17.0495 16.0495C16.746 15.746 16.254 15.746 15.9505 16.0495L15.9384 16.0616C15.6808 16.3192 15.2808 16.3685 14.9683 16.181L14.417 15.8502C13.6393 15.3836 12.6301 15.6473 12.1802 16.4347L11.1407 18.2539C11.0479 18.4162 10.9228 18.5579 10.7732 18.6701Z" fill="#37C897"/>
<path d="M22.4113 19.1645L24.1929 19.8771C24.3967 19.9587 24.589 20.0667 24.7646 20.1985C25.7604 20.9453 27.1537 20.8463 28.0339 19.9661L28.3344 19.6656C28.4441 19.5559 28.5354 19.4293 28.6047 19.2906L29.0257 18.4487C29.259 17.982 29.881 17.881 30.25 18.25C30.619 18.619 31.241 18.518 31.4743 18.0513L32.02 16.96C32.3677 16.2647 33.3884 16.3596 33.602 17.1071L33.7685 17.6898C33.8724 18.0533 34.3285 18.1715 34.5958 17.9042C34.8091 17.6909 35.162 17.7159 35.343 17.9573L36.0157 18.8543C36.2713 19.1951 36.7695 19.2305 37.0707 18.9293C37.317 18.683 37.707 18.6553 37.9857 18.8643L38.7125 19.4094C39.0743 19.6807 39.024 20.238 38.6195 20.4402C38.5408 20.4796 38.4715 20.5356 38.4165 20.6043L36.7647 22.6691C36.5887 22.8891 36.4365 23.127 36.3105 23.379L35.9443 24.1114C35.6525 24.6949 35.2225 25.1982 34.6916 25.5775L32 27.5L30 29L29.2857 29.4762C28.769 29.8207 28.3396 30.2807 28.0315 30.8199L26.9389 32.732C26.6511 33.2355 26.2388 33.6567 25.7415 33.9551C24.6696 34.5983 23.3304 34.5983 22.2585 33.9551L14.9988 29.5993C14.3465 29.2079 13.8193 28.6386 13.4791 27.9582L13.1964 27.3927C13.0658 27.1317 12.9643 26.8572 12.8935 26.574L12.168 23.6722C12.0568 23.2274 11.87 22.805 11.6157 22.4235L11.0523 21.5784C11.0175 21.5263 10.9777 21.4777 10.9334 21.4334L10.7078 21.2078C10.3596 20.8596 10.4548 20.2726 10.8953 20.0524C10.9646 20.0177 11.028 19.972 11.0828 19.9172L11.4648 19.5352C11.776 19.224 12.2636 19.1757 12.6298 19.4199L12.762 19.508C13.1539 19.7693 13.686 19.6279 13.8966 19.2067L14.069 18.8621C14.261 18.4779 14.7964 18.4446 15.0346 18.8019C15.256 19.134 15.744 19.134 15.9654 18.8019L16.5 18L16.5767 17.8849C16.9678 17.2983 17.8563 17.3909 18.1182 18.0454C18.3184 18.5461 18.9192 18.7485 19.3816 18.471L19.8797 18.1722C20.5068 17.7959 21.319 17.9785 21.7247 18.5871L21.7543 18.6315C21.9143 18.8715 22.1434 19.0574 22.4113 19.1645Z" fill="#12B1D6"/>
<path d="M17.0766 19.7299L16.9586 19.3757C16.7719 18.8158 16.023 18.7155 15.6956 19.2065L15.5 19.5L14.9751 20.5499C14.6637 21.1725 14.1953 21.7031 13.6161 22.0892L13 22.5C12.4157 22.7921 12.1127 23.4509 12.2712 24.0847L12.8935 26.574C12.9643 26.8572 13.0658 27.1317 13.1964 27.3927L13.4791 27.9582C13.8193 28.6386 14.3465 29.2079 14.9988 29.5993L22.2585 33.9551C23.3304 34.5983 24.6696 34.5983 25.7415 33.9551C26.2388 33.6567 26.6511 33.2355 26.9389 32.732L28.0315 30.8199C28.3396 30.2807 28.769 29.8207 29.2857 29.4762L30 29L32 27.5L35.1615 25.2418C35.3838 25.083 35.5639 24.8723 35.686 24.628C36.1242 23.7516 35.7198 22.6879 34.8101 22.324L34.2871 22.1149C34.1001 22.04 33.9402 21.9103 33.8285 21.7427L33.4232 21.1348C33.2219 20.8328 32.7781 20.8328 32.5768 21.1348C32.3421 21.4869 31.805 21.415 31.6712 21.0135L31.4675 20.4025C31.2635 19.7904 30.4666 19.64 30.0535 20.1357L28.6527 21.8167C28.5513 21.9385 28.4359 22.048 28.3091 22.1431L26.6316 23.4013C26.5441 23.467 26.4507 23.5246 26.3528 23.5736C25.8185 23.8407 25.1873 23.8295 24.6629 23.5434L20.2599 21.1417C20.0886 21.0483 19.9394 20.9192 19.8224 20.7632L19.0384 19.7178C18.791 19.388 18.2831 19.4338 18.0987 19.8025C17.8778 20.2444 17.2329 20.1986 17.0766 19.7299Z" fill="#2E87F7"/>
<path d="M14.64 21.22L14.5895 21.3211C14.5308 21.4383 14.4426 21.5382 14.3336 21.611L13 22.5C12.4157 22.7921 12.1127 23.4509 12.2712 24.0847L12.8935 26.574C12.9643 26.8572 13.0658 27.1317 13.1964 27.3927L13.4791 27.9582C13.8193 28.6386 14.3465 29.2079 14.9988 29.5993L22.2585 33.9551C23.3304 34.5983 24.6696 34.5983 25.7415 33.9551C26.2388 33.6567 26.6511 33.2355 26.9389 32.732L28.0315 30.8199C28.3396 30.2807 28.769 29.8207 29.2857 29.4762L30 29L30.5642 28.5768C31.2821 28.0384 31.2821 26.9616 30.5642 26.4232C30.2109 26.1581 29.75 26.0833 29.3309 26.223L29.0125 26.3292C28.6984 26.4339 28.3521 26.3521 28.118 26.118L27.8974 25.8974C27.6779 25.6779 27.3221 25.6779 27.1026 25.8974C26.8174 26.1827 26.3333 26.0833 26.1835 25.7087L26.0399 25.3497C25.8032 24.7579 25.0102 24.6531 24.6278 25.1629L24.5045 25.3273C24.2179 25.7095 23.6886 25.8132 23.2789 25.5674L19.2126 23.1276C19.0722 23.0433 18.9495 22.9326 18.8512 22.8017L18.09 21.7867C17.8313 21.4418 17.2949 21.5128 17.1348 21.9131C16.9356 22.4109 16.2155 22.362 16.0855 21.8419L15.9664 21.3657C15.8062 20.7249 14.9353 20.6293 14.64 21.22Z" fill="#4852F4"/>
<path d="M14.9988 29.5993L22.2585 33.9551C23.3304 34.5983 24.6696 34.5983 25.7415 33.9551C26.2388 33.6567 26.6511 33.2355 26.9389 32.732L27.727 31.3528C28.1742 30.5702 27.9955 29.5796 27.303 29.0025L26.435 28.2792C25.9575 27.8812 25.2337 28.0326 24.9557 28.5886C24.7082 29.0836 24.0957 29.269 23.6153 28.9944L17.7553 25.6459C17.5888 25.5508 17.4543 25.4085 17.3685 25.237C17.0107 24.5213 15.9893 24.5213 15.6315 25.237L15.5598 25.3803C15.5202 25.4596 15.4681 25.5319 15.4054 25.5946C14.9814 26.0186 14.261 25.8626 14.0504 25.3011L13.228 23.1079C13.1061 22.783 12.7297 22.6352 12.4193 22.7903C12.1743 22.9128 12.0473 23.1891 12.1137 23.4548L12.8935 26.574C12.9643 26.8572 13.0658 27.1317 13.1964 27.3927L13.4791 27.9582C13.8193 28.6386 14.3465 29.2079 14.9988 29.5993Z" fill="#3E26A8"/>
</svg>
