<svg width="50" height="40" viewBox="0 0 50 40" fill="none" xmlns="http://www.w3.org/2000/svg">
<path d="M0.5 2.5C0.5 1.39543 1.39543 0.5 2.5 0.5H47.5C48.6046 0.5 49.5 1.39543 49.5 2.5V37.5C49.5 38.6046 48.6046 39.5 47.5 39.5H2.5C1.39543 39.5 0.5 38.6046 0.5 37.5V2.5Z" fill="var(--mw-icon-background-default-light-gray, #F5F5F5)" stroke="var(--mw-icon-border-default-gray, #616161)" stroke-linecap="round" stroke-linejoin="round"/>
<path d="M44.5 8H5.5V20.5H11.5V26.5H17.5V31.5H32.5V26.5H38.5V20.5H44.5V8Z" fill="var(--mw-icon-background-default-dark-gray, #A6A6A6)"/>
<path d="M5.5 8V20.5H11.5V26.5H17.5V31.5H32.5V26.5H38.5V20.5H44.5V8" stroke="var(--mw-icon-glyph-content-dark-gray, #333333)" stroke-linejoin="round"/>
<path d="M8 8H12V16C12 16.5523 11.5523 17 11 17H9C8.44772 17 8 16.5523 8 16V8Z" fill="var(--mw-icon-background-medium-yellow, #FFEF91)"/>
<path d="M14 8H18V16C18 16.5523 17.5523 17 17 17H15C14.4477 17 14 16.5523 14 16V8Z" fill="var(--mw-icon-background-medium-yellow, #FFEF91)"/>
<path d="M20 8H24V16C24 16.5523 23.5523 17 23 17H21C20.4477 17 20 16.5523 20 16V8Z" fill="var(--mw-icon-background-medium-yellow, #FFEF91)"/>
<path d="M26 8H30V16C30 16.5523 29.5523 17 29 17H27C26.4477 17 26 16.5523 26 16V8Z" fill="var(--mw-icon-background-medium-yellow, #FFEF91)"/>
<path d="M32 8H36V16C36 16.5523 35.5523 17 35 17H33C32.4477 17 32 16.5523 32 16V8Z" fill="var(--mw-icon-background-medium-yellow, #FFEF91)"/>
<path d="M38 8H42V16C42 16.5523 41.5523 17 41 17H39C38.4477 17 38 16.5523 38 16V8Z" fill="var(--mw-icon-background-medium-yellow, #FFEF91)"/>
</svg>
