<svg width="50" height="40" viewBox="0 0 50 40" fill="none" xmlns="http://www.w3.org/2000/svg">
<path d="M41.5 8.5H8.5C7.94772 8.5 7.5 8.94772 7.5 9.5V36.5C7.5 37.0523 7.94772 37.5 8.5 37.5H41.5C42.0523 37.5 42.5 37.0523 42.5 36.5V9.5C42.5 8.94772 42.0523 8.5 41.5 8.5Z" fill="var(--mw-icon-background-default-light-gray, #F5F5F5)" stroke="var(--mw-icon-border-default-gray, #616161)"/>
<path d="M13.5 15.5C13.5 14.9477 13.9477 14.5 14.5 14.5H35.5C36.0523 14.5 36.5 14.9477 36.5 15.5V30.5C36.5 31.0523 36.0523 31.5 35.5 31.5H14.5C13.9477 31.5 13.5 31.0523 13.5 30.5V15.5Z" stroke="var(--mw-icon-glyph-content-dark-gray, #333333)"/>
<path d="M26 27H25V21H22V20H29V21H26V27Z" fill="var(--mw-icon-glyph-content-dark-gray, #333333)"/>
</svg>
