<svg width="50" height="40" viewBox="0 0 50 40" fill="none" xmlns="http://www.w3.org/2000/svg">
<rect x="0.5" y="0.5" width="48" height="38" rx="1" fill="var(--mw-icon-background-default-white, white)"/>
<path d="M5.5 30.5L14.5 23.5L21.5 29.5L31.5 25.5L42 17.5" stroke="#0072BD"/>
<circle cx="21.5" cy="29.5" r="1.5" fill="#0072BD"/>
<circle cx="14.5" cy="23.5" r="1.5" fill="#0072BD"/>
<circle cx="5.5" cy="30.5" r="1.5" fill="#0072BD"/>
<circle cx="31.5" cy="25.5" r="1.5" fill="#0072BD"/>
<path d="M45.3287 14.7845L43.4264 19.4034L40.3775 15.4465L45.3287 14.7845Z" fill="#0072BD"/>
<line x1="1" y1="20.826" x2="2" y2="20.826" stroke="var(--mw-icon-background-default-white, white)"/>
<path d="M5.5 17.5L15.5 10.5L21.5 15.5L31.5 12.5L42 7.5" stroke="#D95319"/>
<circle cx="5.5" cy="17.5" r="1.5" fill="#D95319"/>
<circle cx="15.5" cy="10.5" r="1.5" fill="#D95319"/>
<circle cx="21.5" cy="15.5" r="1.5" fill="#D95319"/>
<circle cx="31.5" cy="12.5" r="1.5" fill="#D95319"/>
<path d="M45.6228 5.57807L42.8752 9.74984L40.6362 5.28449L45.6228 5.57807Z" fill="#D95319"/>
<rect x="0.5" y="0.5" width="48" height="38" rx="1" stroke="var(--mw-icon-border-default-gray, #616161)"/>

</svg>
