<svg width="50" height="40" viewBox="0 0 50 40" fill="none" xmlns="http://www.w3.org/2000/svg">
<path d="M0.5 1.5C0.5 0.947714 0.947715 0.5 1.5 0.5H39.5C40.0523 0.5 40.5 0.947715 40.5 1.5V32.5C40.5 33.0523 40.0523 33.5 39.5 33.5H1.5C0.947714 33.5 0.5 33.0523 0.5 32.5V1.5Z" fill="var(--mw-icon-background-default-white, #FFFFFF)"/>
<path d="M0.5 1.5C0.5 0.947714 0.947715 0.5 1.5 0.5H39.5C40.0523 0.5 40.5 0.947715 40.5 1.5V32.5C40.5 33.0523 40.0523 33.5 39.5 33.5H1.5C0.947714 33.5 0.5 33.0523 0.5 32.5V1.5Z" stroke="var(--mw-icon-border-default-gray, #616161)" stroke-linejoin="round"/>
<path d="M46.5 16.5H28.5C27.3954 16.5 26.5 17.3954 26.5 18.5V36.5C26.5 37.6046 27.3954 38.5 28.5 38.5H46.5C47.6046 38.5 48.5 37.6046 48.5 36.5V18.5C48.5 17.3954 47.6046 16.5 46.5 16.5Z" fill="white" stroke="var(--mw-icon-border-default-gray, #616161)" stroke-linecap="round"/>
<path d="M29.5 30V22.5811C29.5 22.5274 29.5087 22.474 29.5257 22.423L30.386 19.8419C30.4541 19.6377 30.6452 19.5 30.8604 19.5H35.1396C35.3548 19.5 35.5459 19.6377 35.614 19.8419L36.4743 22.423C36.4913 22.474 36.5 22.5274 36.5 22.5811V30C36.5 30.2761 36.2761 30.5 36 30.5H30C29.7239 30.5 29.5 30.2761 29.5 30Z" fill="var(--mw-icon-background-default-selection, #B4DEFF)" stroke="var(--mw-icon-glyph-content-blue, #1656A8)" stroke-linejoin="round"/>
<path d="M31.5 28.5L33 24.5L34.5 28.5M32 27.5H34" stroke="var(--mw-icon-glyph-content-blue, #1656A8)" stroke-linecap="round" stroke-linejoin="round"/>
<mask id="path-6-inside-1_17578_196876" fill="white">
<path d="M34 22C34 22.5523 33.5523 23 33 23C32.4477 23 32 22.5523 32 22C32 21.4477 32.4477 21 33 21C33.5523 21 34 21.4477 34 22Z"/>
</mask>
<path d="M34 22C34 22.5523 33.5523 23 33 23C32.4477 23 32 22.5523 32 22C32 21.4477 32.4477 21 33 21C33.5523 21 34 21.4477 34 22Z" stroke="var(--mw-icon-glyph-content-blue, #1656A8)" stroke-width="2" mask="url(#path-6-inside-1_17578_196876)"/>
<circle cx="40.5" cy="30.5" r="6" fill="white" stroke="var(--mw-icon-border-default-gray, #616161)"/>
<path d="M40.5 26C41.24 26 41.9686 26.1825 42.6213 26.5314C43.2739 26.8802 43.8305 27.3846 44.2416 27.9999C44.6528 28.6152 44.9058 29.3225 44.9783 30.0589C45.0509 30.7954 44.9407 31.5384 44.6575 32.2221C44.3743 32.9058 43.9268 33.5091 43.3548 33.9785C42.7827 34.448 42.1037 34.7692 41.3779 34.9135C40.6521 35.0579 39.9019 35.0211 39.1937 34.8062C38.4856 34.5914 37.8413 34.2053 37.318 33.682L40.5 30.5L40.5 26Z" fill="var(--mw-icon-background-default-selection, #B4DEFF)"/>
<path d="M40.5 26.5V30.4998L37.5 33.5" stroke="var(--mw-icon-glyph-content-gray, #616162)" stroke-linecap="round" stroke-linejoin="round"/>
</svg>
