<svg width="50" height="40" viewBox="0 0 50 40" fill="none" xmlns="http://www.w3.org/2000/svg">
<path d="M42.5243 8.63044C42.6738 8.19515 43.1479 7.96345 43.5831 8.11293L45.9476 8.92487C46.3829 9.07434 46.6146 9.54838 46.4651 9.98367L44.8413 14.7126C44.6918 15.1479 44.2177 15.3796 43.7825 15.2301L41.418 14.4182C40.9827 14.2687 40.751 13.7947 40.9005 13.3594L41.1711 12.5712L40.383 12.3006C40.2335 12.7359 39.7594 12.9676 39.3241 12.8181L38.536 12.5475L32.5818 29.887L29.4291 28.8044L35.3833 11.4649L34.5952 11.1942C34.1599 11.0448 33.9282 10.5707 34.0777 10.1354L34.3483 9.34727L33.1545 8.93731C32.4969 8.7115 31.8064 8.62751 31.1265 8.68262C30.726 8.71509 30.3292 8.79584 29.945 8.92431C29.7375 8.9937 29.5337 9.077 29.335 9.17414L29.0781 9.29971L29.2848 8.69761C29.4893 8.10208 29.8153 7.57005 30.2312 7.12745C30.9068 6.40833 31.8196 5.92534 32.8336 5.7898C33.1599 5.74619 33.4889 5.73979 33.8145 5.76998C34.1589 5.80191 34.4995 5.87478 34.8288 5.98787L40.948 8.08915C41.3833 8.23862 41.615 8.71267 41.4655 9.14795L42.2537 9.4186L42.5243 8.63044Z" fill="var(--mw-icon-background-default-medium-gray, #D9D9D9)" stroke="var(--mw-icon-border-default-gray, #616161)" stroke-linejoin="round"/>
<path d="M30.3285 22.5931C30.5078 22.0708 33.1336 15.8027 33.6559 15.9821L36.9662 17.1188C37.4886 17.2982 35.8673 23.9111 35.688 24.4335L32.3861 34.049C32.2067 34.5714 31.6379 34.8494 31.1155 34.6701L27.6476 33.4792C27.1253 33.2998 26.8472 32.731 27.0266 32.2086L30.3285 22.5931Z" fill="var(--mw-icon-background-default-dark-gray, #A6A6A6)" stroke="var(--mw-icon-border-default-gray, #616161)"/>
<path d="M21.5791 19.0226C21.4628 18.4827 21.8062 17.9507 22.3461 17.8344L26.9082 16.852C27.4481 16.7357 27.98 17.0791 28.0963 17.619L31.1841 31.9569C31.3004 32.4968 30.957 33.0288 30.4171 33.1451L25.855 34.1276C25.3151 34.2438 24.7832 33.9004 24.6669 33.3605L21.5791 19.0226Z" fill="var(--mw-icon-background-default-dark-gray, #A6A6A6)" stroke="var(--mw-icon-border-default-gray, #616161)"/>
<path d="M20.1907 4.6596L21.2586 1.70181L23.4493 3.95782L26.7477 19.2733L23.4891 19.9751L20.1907 4.6596Z" fill="var(--mw-icon-background-default-medium-gray, #D9D9D9)" stroke="var(--mw-icon-border-default-gray, #616161)" stroke-linejoin="round"/>
<path d="M20.1489 5.38857L21.9574 4.99908M23.5704 4.6517L21.9574 4.99908M21.9574 4.99908L21.3258 2.06632" stroke="var(--mw-icon-border-default-gray, #616161)"/>
<path d="M4.38457 13.6626C3.28367 12.1543 3.47092 10.0509 4.69241 8.43045L7.07698 11.6974L8.92888 11.4076L9.76939 9.73221L7.38482 6.46525C9.30051 5.79587 11.3609 6.25872 12.4618 7.767C13.3977 9.0492 13.4026 10.7615 12.6327 12.2415L26.3343 31.0134L22.2957 33.9612L8.59406 15.1894C6.94974 15.4715 5.32045 14.9448 4.38457 13.6626Z" fill="var(--mw-icon-background-default-medium-gray, #D9D9D9)" stroke="var(--mw-icon-border-default-gray, #616161)" stroke-linejoin="round"/>
<path d="M5.5 22.5H44.5V34.5C44.5 36.1569 43.1569 37.5 41.5 37.5H8.5C6.84315 37.5 5.5 36.1569 5.5 34.5V22.5Z" fill="#FF453A" stroke="var(--mw-icon-border-default-red, #902622)"/>
<rect x="2.5" y="21.5" width="45" height="4" rx="1" fill="#B7312C" stroke="var(--mw-icon-glyph-content-red, #902623)"/>
</svg>
