<svg width="50" height="40" viewBox="0 0 50 40" fill="none" xmlns="http://www.w3.org/2000/svg">
<rect x="0.5" y="0.5" width="48" height="38" rx="1" fill="var(--mw-icon-background-default-white, #FFFFFF)"/>
<path d="M0.5 33L9.5 22.5L18.5 26.5L27.5 22.5L36.5 27.5L45.5 21.5" stroke="#0072BD"/>
<circle cx="9.5" cy="22.5" r="1.5" fill="#0072BD"/>
<circle cx="18.5" cy="26.5" r="1.5" fill="#0072BD"/>
<circle cx="27.5" cy="22.5" r="1.5" fill="#0072BD"/>
<circle cx="36.5" cy="27.5" r="1.5" fill="#0072BD"/>
<circle cx="45.5" cy="21.5" r="1.5" fill="#0072BD"/>
<path d="M0.5 19.5L9.5 10.5L18.5 16.5L27.5 7.5L36.5 12.5L45.5 5.5" stroke="#D95319"/>
<circle cx="18.5" cy="16.5" r="1.5" fill="#D95319"/>
<circle cx="9.5" cy="10.5" r="1.5" fill="#D95319"/>
<circle cx="27.5" cy="7.5" r="1.5" fill="#D95319"/>
<circle cx="36.5" cy="12.5" r="1.5" fill="#D95319"/>
<circle cx="45.5" cy="5.5" r="1.5" fill="#D95319"/>
<rect x="0.5" y="0.5" width="48" height="38" rx="1" stroke="var(--mw-icon-border-default-gray, #616161)"/>
</svg>
