<svg width="50" height="40" viewBox="0 0 50 40" fill="none" xmlns="http://www.w3.org/2000/svg">
<path d="M0.5 2.5C0.5 1.39543 1.39543 0.5 2.5 0.5H46.5C47.6046 0.5 48.5 1.39543 48.5 2.5V36.5C48.5 37.6046 47.6046 38.5 46.5 38.5H2.5C1.39543 38.5 0.5 37.6046 0.5 36.5V2.5Z" fill="var(--mw-icon-background-default-white, #FFFFFF)" stroke="var(--mw-icon-border-default-gray, #616161)"/>
<path d="M1 19.5C1 19.2239 1.22386 19 1.5 19H3.5C3.77614 19 4 19.2239 4 19.5C4 19.7761 3.77614 20 3.5 20H1.5C1.22386 20 1 19.7761 1 19.5Z" fill="var(--mw-icon-glyph-content-gray, #616162)"/>
<path d="M6 19.5C6 19.2239 6.22386 19 6.5 19H8.5C8.77614 19 9 19.2239 9 19.5C9 19.7761 8.77614 20 8.5 20H6.5C6.22386 20 6 19.7761 6 19.5Z" fill="var(--mw-icon-glyph-content-gray, #616162)"/>
<path d="M11 19.5C11 19.2239 11.2239 19 11.5 19H13.5C13.7761 19 14 19.2239 14 19.5C14 19.7761 13.7761 20 13.5 20H11.5C11.2239 20 11 19.7761 11 19.5Z" fill="var(--mw-icon-glyph-content-gray, #616162)"/>
<path d="M16 19.5C16 19.2239 16.2239 19 16.5 19H18.5C18.7761 19 19 19.2239 19 19.5C19 19.7761 18.7761 20 18.5 20H16.5C16.2239 20 16 19.7761 16 19.5Z" fill="var(--mw-icon-glyph-content-gray, #616162)"/>
<path d="M21 19.5C21 19.2239 21.2239 19 21.5 19H23.5C23.7761 19 24 19.2239 24 19.5C24 19.7761 23.7761 20 23.5 20H21.5C21.2239 20 21 19.7761 21 19.5Z" fill="var(--mw-icon-glyph-content-gray, #616162)"/>
<path d="M26 19.5C26 19.2239 26.2239 19 26.5 19H28.5C28.7761 19 29 19.2239 29 19.5C29 19.7761 28.7761 20 28.5 20H26.5C26.2239 20 26 19.7761 26 19.5Z" fill="var(--mw-icon-glyph-content-gray, #616162)"/>
<path d="M31 19.5C31 19.2239 31.2239 19 31.5 19H33.5C33.7761 19 34 19.2239 34 19.5C34 19.7761 33.7761 20 33.5 20H31.5C31.2239 20 31 19.7761 31 19.5Z" fill="var(--mw-icon-glyph-content-gray, #616162)"/>
<path d="M36 19.5C36 19.2239 36.2239 19 36.5 19H38.5C38.7761 19 39 19.2239 39 19.5C39 19.7761 38.7761 20 38.5 20H36.5C36.2239 20 36 19.7761 36 19.5Z" fill="var(--mw-icon-glyph-content-gray, #616162)"/>
<path d="M41 19.5C41 19.2239 41.2239 19 41.5 19H43.5C43.7761 19 44 19.2239 44 19.5C44 19.7761 43.7761 20 43.5 20H41.5C41.2239 20 41 19.7761 41 19.5Z" fill="var(--mw-icon-glyph-content-gray, #616162)"/>
<path d="M46 19.5C46 19.2239 46.2239 19 46.5 19H48.5C48.7761 19 49 19.2239 49 19.5C49 19.7761 48.7761 20 48.5 20H46.5C46.2239 20 46 19.7761 46 19.5Z" fill="var(--mw-icon-glyph-content-gray, #616162)"/>
<path d="M2.5 19.5L7.5 3.5L13.5 19.5L19.5 35.5L25.5 19.5L31.5 3.5L36.5 19.5L42 35.5L47.5 19.5" stroke="var(--mw-icon-glyph-content-light-blue, #278CDD)" stroke-linecap="round" stroke-linejoin="round"/>
</svg>
