<svg width="50" height="40" viewBox="0 0 50 40" fill="none" xmlns="http://www.w3.org/2000/svg">
<rect x="1" y="0.5" width="48" height="38" rx="1" fill="var(--mw-icon-background-default-white, #FFFFFF)"/>
<path d="M30.3007 7.51263C25.7936 7.51263 23.1983 31.4771 18.8051 31.4874C13.9237 31.4874 11.7027 7.54338 7.19559 7.54338C4.55152 7.54338 2.57458 15.7434 0.5 22.5494" stroke="#0072BD"/>
<path d="M48.5244 16.4199C46.4417 23.2361 44.4566 31.4566 41.9101 31.4566C37.0695 31.4566 34.8159 7.51263 30.3007 7.51263" stroke="#0072BD"/>
<rect x="0.5" y="0.5" width="48" height="38" rx="1" stroke="var(--mw-icon-border-default-gray, #616161)"/>
<path d="M1 31.5C2.96196 31.4652 4.92391 27.4651 6.88587 19.5C10.827 3.5 14.7681 3.5 18.7092 19.5C22.6504 35.5 26.5915 35.5 30.5326 19.5C34.4737 3.5 38.4149 3.5 42.356 19.5C44.404 27.8144 46.452 31.8082 48.5 31.4815" stroke="#D95319"/>
</svg>
