<svg width="50" height="40" viewBox="0 0 50 40" fill="none" xmlns="http://www.w3.org/2000/svg">
<path d="M0.5 1.5C0.5 0.947716 0.947715 0.5 1.5 0.5H47.5C48.0523 0.5 48.5 0.947715 48.5 1.5V37.5C48.5 38.0523 48.0523 38.5 47.5 38.5H1.5C0.947714 38.5 0.5 38.0523 0.5 37.5V1.5Z" fill="var(--mw-icon-background-default-white, #FFFFFF)"/>
<path d="M0.5 27C0.5 27 6.48495 18.5453 12.5 18.5C18.9049 18.4518 25.5 27.5 25.5 27.5C25.5 27.5 30.5 35.5 36.5 35.5C42.3252 35.5 48.5 26.5 48.5 26.5" stroke="#D95319"/>
<path d="M0.5 18.5C0.5 18.5 4.5 5.49999 8.5 5.5C12.5 5.50001 14.6056 17.4751 15.5 21.5C16.5 26 19 34.5 22.5 34.5C26 34.5 28 25 28.5 21.5C29 18 30.5 9.5 33.5 9.5C36.5 9.5 37.6172 17.9686 38.5 21.5C39.3828 25.0314 41 27.5 43.5 27.5C47 27.5 48.5 17.5 48.5 17.5" stroke="#0072BD"/>
<rect x="0.5" y="0.5" width="48" height="38" rx="1" stroke="var(--mw-icon-border-default-gray, #616161)"/>
</svg>
