<svg width="50" height="40" viewBox="0 0 50 40" fill="none" xmlns="http://www.w3.org/2000/svg">
<path d="M0.5 1.5C0.5 0.947716 0.947715 0.5 1.5 0.5H47.5C48.0523 0.5 48.5 0.947715 48.5 1.5V37.5C48.5 38.0523 48.0523 38.5 47.5 38.5H1.5C0.947714 38.5 0.5 38.0523 0.5 37.5V1.5Z" fill="var(--mw-icon-background-default-white, #FFFFFF)"/>
<rect x="0.5" y="0.5" width="48" height="38" rx="1" stroke="var(--mw-icon-border-default-gray, #616161)"/>
<path d="M20 25V12.8824C20 11.0006 20.5021 9.71218 21.5063 9.017C22.5105 8.31584 23.6216 7.96525 24.8397 7.96525C26.0706 7.96525 27.1072 8.28288 27.9495 8.91812C28.7917 9.54737 29.2128 10.3684 29.2128 11.3812C29.2128 12.0404 28.9861 12.6217 28.5326 13.1251C28.079 13.6225 27.5154 13.9491 26.8416 14.105C27.93 14.2728 28.7269 14.7072 29.2323 15.4084C29.7441 16.1036 30 16.8797 30 17.7366C30 18.7914 29.6566 19.6963 28.9699 20.4514C28.2831 21.2065 27.3469 21.5841 26.1613 21.5841C24.7943 21.5841 23.6508 21.0477 22.7308 19.975V25H20ZM23.965 13.5296C24.7943 13.5177 25.4422 13.3349 25.9086 12.9813C26.3751 12.6277 26.6084 12.1782 26.6084 11.6329C26.6084 11.1355 26.4205 10.734 26.0447 10.4283C25.6754 10.1167 25.2284 9.96088 24.7036 9.96088C24.2501 9.96088 23.8614 10.0897 23.5374 10.3474C23.22 10.5991 23.0062 10.9257 22.896 11.3273C22.7859 11.7288 22.7308 12.3161 22.7308 13.0892V15.8039C22.7308 16.619 22.8053 17.2752 22.9543 17.7726C23.1098 18.264 23.4176 18.6895 23.8776 19.0491C24.3375 19.4086 24.8364 19.5884 25.3741 19.5884C25.8925 19.5884 26.3265 19.4116 26.6764 19.0581C27.0262 18.6985 27.2012 18.24 27.2012 17.6827C27.2012 16.8677 26.9355 16.2055 26.4043 15.6961C25.8795 15.1867 25.0664 14.932 23.965 14.932V13.5296Z" fill="var(--mw-icon-glyph-content-light-blue, #278CDD)"/>
<path d="M21.6151 6.65185L23.6559 4H26.1826L28.1943 6.65185H25.998L24.8707 5.31244L23.8211 6.65185H21.6151Z" fill="var(--mw-icon-glyph-content-light-blue, #278CDD)"/>
<path d="M18.1599 33.5385L19.8326 28H21.4613L18.9889 35H17.9161L18.1599 33.5385ZM16.619 28L18.2867 33.5385L18.5403 35H17.4577L15 28H16.619Z" fill="var(--mw-icon-glyph-content-dark-gray, #333333)"/>
<path d="M24.1414 29.1971L22.2103 35H20.6547L23.2929 28H24.2828L24.1414 29.1971ZM25.7458 35L23.8098 29.1971L23.6538 28H24.6534L27.3062 35H25.7458ZM25.658 32.3942V33.524H21.908V32.3942H25.658Z" fill="var(--mw-icon-glyph-content-dark-gray, #333333)"/>
<path d="M27.4652 28H30.1131C30.656 28 31.1226 28.0801 31.5127 28.2404C31.906 28.4006 32.2084 28.6378 32.4197 28.9519C32.631 29.266 32.7367 29.6522 32.7367 30.1106C32.7367 30.4856 32.6717 30.8077 32.5416 31.0769C32.4148 31.3429 32.2344 31.5657 32.0003 31.7452C31.7695 31.9215 31.498 32.0625 31.186 32.1683L30.7227 32.4087H28.421L28.4112 31.2837H30.1229C30.3797 31.2837 30.5927 31.2388 30.7617 31.149C30.9308 31.0593 31.0575 30.9343 31.1421 30.774C31.2298 30.6138 31.2737 30.4279 31.2737 30.2163C31.2737 29.992 31.2315 29.7981 31.1469 29.6346C31.0624 29.4712 30.934 29.3462 30.7617 29.2596C30.5894 29.1731 30.3732 29.1298 30.1131 29.1298H28.9282V35H27.4652V28ZM31.4347 35L29.8157 31.8798L31.3615 31.8702L33 34.9327V35H31.4347Z" fill="var(--mw-icon-glyph-content-dark-gray, #333333)"/>
</svg>
