<svg width="50" height="40" viewBox="0 0 50 40" fill="none" xmlns="http://www.w3.org/2000/svg">
<path d="M42.5 4.5H5.5C4.94772 4.5 4.5 4.94772 4.5 5.5V35.5C4.5 36.0523 4.94772 36.5 5.5 36.5H42.5C43.0523 36.5 43.5 36.0523 43.5 35.5V5.5C43.5 4.94772 43.0523 4.5 42.5 4.5Z" fill="var(--mw-icon-background-default-medium-gray, #D9D9D9)" stroke="var(--mw-icon-border-default-gray, #616161)"/>
<path d="M40.5 2.5H3.5C2.94772 2.5 2.5 2.94772 2.5 3.5V33.5C2.5 34.0523 2.94772 34.5 3.5 34.5H40.5C41.0523 34.5 41.5 34.0523 41.5 33.5V3.5C41.5 2.94772 41.0523 2.5 40.5 2.5Z" fill="var(--mw-icon-background-default-medium-gray, #D9D9D9)" stroke="var(--mw-icon-border-default-gray, #616161)"/>
<path d="M38.5 0.5H1.5C0.947715 0.5 0.5 0.947715 0.5 1.5V31.5C0.5 32.0523 0.947715 32.5 1.5 32.5H38.5C39.0523 32.5 39.5 32.0523 39.5 31.5V1.5C39.5 0.947715 39.0523 0.5 38.5 0.5Z" fill="var(--mw-icon-background-default-white, #FFFFFF)" stroke="var(--mw-icon-border-default-gray, #616161)"/>
<path d="M0.5 19.0252C2.18473 13.356 4.08765 6.5 6.23485 6.5C9.89502 6.5 11.4465 26.5 15.4106 26.5C18.9783 26.4915 21.0405 6.5 24.7007 6.5C28.3675 6.5 30.1976 26.4447 34.1287 26.4447C36.1966 26.4447 37.8087 19.5972 39.5 13.9195" stroke="#0072BD"/>
<path d="M38.5 0.5H1.5C0.947715 0.5 0.5 0.947715 0.5 1.5V31.5C0.5 32.0523 0.947715 32.5 1.5 32.5H38.5C39.0523 32.5 39.5 32.0523 39.5 31.5V1.5C39.5 0.947715 39.0523 0.5 38.5 0.5Z" stroke="var(--mw-icon-border-default-gray, #616161)"/>
<path d="M46.5 16.5H28.5C27.3954 16.5 26.5 17.3954 26.5 18.5V36.5C26.5 37.6046 27.3954 38.5 28.5 38.5H46.5C47.6046 38.5 48.5 37.6046 48.5 36.5V18.5C48.5 17.3954 47.6046 16.5 46.5 16.5Z" fill="white" stroke="var(--mw-icon-border-default-gray, #616161)" stroke-linecap="round"/>
<circle cx="37.5" cy="27.5" r="9" fill="var(--mw-icon-background-default-light-gray, #F5F5F5)" stroke="var(--mw-icon-glyph-content-gray, #616162)"/>
<path d="M32 27.5H30.5C30.5 23.634 33.634 20.5 37.5 20.5C41.366 20.5 44.5 23.634 44.5 27.5H43" stroke="var(--mw-icon-glyph-content-dark-gray, #333333)" stroke-linecap="round" stroke-linejoin="round"/>
<circle cx="37" cy="28" r="1.5" stroke="var(--mw-icon-glyph-content-dark-gray, #333333)"/>
<path d="M40.8536 24.8536C41.0488 24.6583 41.0488 24.3417 40.8536 24.1464C40.6583 23.9512 40.3417 23.9512 40.1464 24.1464L40.8536 24.8536ZM38.3536 27.3536L39.6036 26.1036L38.8964 25.3964L37.6464 26.6464L38.3536 27.3536ZM39.6036 26.1036L40.8536 24.8536L40.1464 24.1464L38.8964 25.3964L39.6036 26.1036Z" fill="var(--mw-icon-glyph-content-dark-gray, #333333)"/>
</svg>
