<svg width="51" height="40" viewBox="0 0 51 40" fill="none" xmlns="http://www.w3.org/2000/svg">
<rect x="1.35718" y="0.5" width="48" height="38" rx="1" fill="var(--mw-icon-background-default-white, #FFFFFF)"/>
<path d="M45.3572 34.5C45.3572 35.0523 44.9095 35.5 44.3572 35.5L6.35717 35.5C5.80489 35.5 5.35718 35.0523 5.35718 34.5L5.35718 29.5L45.3572 29.5L45.3572 34.5Z" fill="var(--mw-icon-background-default-light-gray, #F5F5F5)" stroke="var(--mw-icon-glyph-content-gray, #616162)"/>
<path d="M5.35718 24.5C5.35718 23.9477 5.80489 23.5 6.35718 23.5H44.3572C44.9095 23.5 45.3572 23.9477 45.3572 24.5V29.5H5.35718V24.5Z" fill="var(--mw-icon-background-default-medium-gray, #D9D9D9)" stroke="var(--mw-icon-glyph-content-gray, #616162)"/>
<path d="M18.3572 24V36M32.3572 24V36" stroke="var(--mw-icon-glyph-content-gray, #616162)"/>
<path d="M25.3572 16L20.8572 21H23.8572V23H26.8572V21H29.8572L25.3572 16Z" fill="var(--mw-icon-glyph-content-light-blue, #278CDD)"/>
<path d="M45.3572 14.5C45.3572 15.0523 44.9095 15.5 44.3572 15.5L6.35717 15.5C5.80489 15.5 5.35718 15.0523 5.35718 14.5L5.35718 9.5L45.3572 9.5L45.3572 14.5Z" fill="var(--mw-icon-background-default-light-gray, #F5F5F5)" stroke="var(--mw-icon-glyph-content-gray, #616162)"/>
<path d="M5.35718 4.5C5.35718 3.94772 5.80489 3.5 6.35718 3.5H44.3572C44.9095 3.5 45.3572 3.94772 45.3572 4.5V9.5H5.35718V4.5Z" fill="var(--mw-icon-background-default-medium-gray, #D9D9D9)" stroke="var(--mw-icon-glyph-content-gray, #616162)"/>
<path d="M18.3572 4V16M32.3572 4V16" stroke="var(--mw-icon-glyph-content-gray, #616162)"/>
<rect x="1.35718" y="0.5" width="48" height="38" rx="1" stroke="var(--mw-icon-border-default-gray, #616161)"/>
</svg>
