<svg width="50" height="40" viewBox="0 0 50 40" fill="none" xmlns="http://www.w3.org/2000/svg">
<rect x="0.5" y="0.5" width="48" height="38" rx="1" fill="var(--mw-icon-object-secondary, #FFFFFE)" stroke="var(--mw-icon-border-default-gray, #616161)"/>
<path d="M16.5296 21.2685L18.3979 15.1122H20.2172L17.4556 22.8931H16.2573L16.5296 21.2685ZM14.8084 15.1122L16.6713 21.2685L16.9545 22.8931H15.7453L13 15.1122H14.8084Z" fill="var(--mw-icon-object-primary, #616160)"/>
<path d="M27.0449 18.8263V21.9098C26.9214 22.0559 26.7307 22.2144 26.4729 22.3854C26.2151 22.5529 25.8828 22.6972 25.4761 22.8183C25.0694 22.9394 24.5774 23 24 23C23.488 23 23.0214 22.9181 22.6001 22.7542C22.1789 22.5867 21.8158 22.3427 21.5107 22.022C21.2093 21.7014 20.9769 21.3095 20.8135 20.8464C20.6501 20.3796 20.5684 19.847 20.5684 19.2485V18.7622C20.5684 18.1637 20.6465 17.631 20.8026 17.1643C20.9624 16.6976 21.1894 16.3039 21.4835 15.9833C21.7776 15.6627 22.1281 15.4186 22.5348 15.2512C22.9415 15.0837 23.3936 15 23.8911 15C24.581 15 25.1475 15.1104 25.5905 15.3313C26.0335 15.5487 26.3712 15.8515 26.6037 16.2398C26.8397 16.6246 26.9849 17.0664 27.0394 17.5651H25.4543C25.4144 17.3015 25.3381 17.0717 25.2256 16.8758C25.113 16.6798 24.9514 16.5266 24.7408 16.4162C24.5338 16.3057 24.2651 16.2505 23.9346 16.2505C23.6623 16.2505 23.419 16.3057 23.2047 16.4162C22.9941 16.523 22.8162 16.6816 22.6709 16.8918C22.5257 17.102 22.4149 17.3621 22.3387 17.672C22.2624 17.982 22.2243 18.3418 22.2243 18.7515V19.2485C22.2243 19.6546 22.2642 20.0145 22.3441 20.328C22.424 20.6379 22.542 20.8998 22.6982 21.1136C22.858 21.3238 23.054 21.4823 23.2864 21.5892C23.5189 21.6961 23.7894 21.7495 24.098 21.7495C24.3559 21.7495 24.5701 21.7281 24.7408 21.6854C24.9151 21.6426 25.0549 21.591 25.1602 21.5304C25.2691 21.4663 25.3527 21.4057 25.4108 21.3487V19.9699H23.9183V18.8263H27.0449Z" fill="var(--mw-icon-object-primary, #616160)"/>
<path d="M31.4649 16.4429L29.3079 22.8931H27.5703L30.5171 15.1122H31.6229L31.4649 16.4429ZM33.257 22.8931L31.0945 16.4429L30.9202 15.1122H32.0368L35 22.8931H33.257ZM33.1589 19.9967V21.2525H28.9702V19.9967H33.1589Z" fill="var(--mw-icon-object-primary, #616160)"/>
</svg>
