<svg width="50" height="40" viewBox="0 0 50 40" fill="none" xmlns="http://www.w3.org/2000/svg">
<path d="M0.5 5.5C0.5 4.39543 1.39543 3.5 2.5 3.5H47.5C48.6046 3.5 49.5 4.39543 49.5 5.5V34.5C49.5 35.6046 48.6046 36.5 47.5 36.5H2.5C1.39543 36.5 0.5 35.6046 0.5 34.5V5.5Z" fill="var(--mw-icon-background-default-light-gray, #F5F5F5)" stroke="var(--mw-icon-border-default-gray, #616161)" stroke-linecap="round" stroke-linejoin="round"/>
<path d="M39.5 29.5001C39.5 30.6047 38.6046 31.5001 37.5 31.5001C36.3954 31.5001 35.5 30.6047 35.5 29.5001C35.5 28.3956 36.3954 27.5001 37.5 27.5001C38.6046 27.5001 39.5 28.3956 39.5 29.5001Z" fill="var(--mw-icon-background-default-medium-gray, #D9D9D9)"/>
<path d="M46.5 29.5001C46.5 30.6047 45.6046 31.5001 44.5 31.5001C43.3954 31.5001 42.5 30.6047 42.5 29.5001C42.5 28.3956 43.3954 27.5001 44.5 27.5001C45.6046 27.5001 46.5 28.3956 46.5 29.5001Z" fill="var(--mw-icon-background-default-medium-gray, #D9D9D9)"/>
<path d="M39.5 29.5001C39.5 30.6047 38.6046 31.5001 37.5 31.5001C36.3954 31.5001 35.5 30.6047 35.5 29.5001C35.5 28.3956 36.3954 27.5001 37.5 27.5001C38.6046 27.5001 39.5 28.3956 39.5 29.5001Z" stroke="var(--mw-icon-glyph-content-dark-gray, #333333)" stroke-linejoin="round"/>
<path d="M46.5 29.5001C46.5 30.6047 45.6046 31.5001 44.5 31.5001C43.3954 31.5001 42.5 30.6047 42.5 29.5001C42.5 28.3956 43.3954 27.5001 44.5 27.5001C45.6046 27.5001 46.5 28.3956 46.5 29.5001Z" stroke="var(--mw-icon-glyph-content-dark-gray, #333333)" stroke-linejoin="round"/>
<path d="M46.5 24.5V8.5H35.5V24.5H46.5Z" fill="var(--mw-icon-background-default-dark-gray, #A6A6A6)" stroke="var(--mw-icon-glyph-content-dark-gray, #333333)" stroke-linejoin="round"/>
<path d="M37 10.0001H39.002V11.0001H37V10.0001Z" fill="var(--mw-icon-background-default-light-gray, #F5F5F5)"/>
<path d="M39.999 10.0001H42.001V11.0001H39.999V10.0001Z" fill="var(--mw-icon-background-default-light-gray, #F5F5F5)"/>
<path d="M42.998 10.0001H45V11.0001H42.998V10.0001Z" fill="var(--mw-icon-background-default-light-gray, #F5F5F5)"/>
<path d="M37 13.0001H39.002V14.0001H37V13.0001Z" fill="var(--mw-icon-background-default-light-gray, #F5F5F5)"/>
<path d="M39.9991 13.0001H42.0011V14.0001H39.9991V13.0001Z" fill="var(--mw-icon-background-default-light-gray, #F5F5F5)"/>
<path d="M42.998 13.0001H45V14.0001H42.998V13.0001Z" fill="var(--mw-icon-background-default-light-gray, #F5F5F5)"/>
<path d="M37 19.0001H39.002V20.0001H37V19.0001Z" fill="var(--mw-icon-background-default-light-gray, #F5F5F5)"/>
<path d="M39.9991 19.0001H42.0011V20.0001H39.9991V19.0001Z" fill="var(--mw-icon-background-default-light-gray, #F5F5F5)"/>
<path d="M42.998 19.0001H45V20.0001H42.998V19.0001Z" fill="var(--mw-icon-background-default-light-gray, #F5F5F5)"/>
<path d="M37 22.0001H39.002V23.0001H37V22.0001Z" fill="var(--mw-icon-background-default-light-gray, #F5F5F5)"/>
<path d="M39.9991 22.0001H42.0011V23.0001H39.9991V22.0001Z" fill="var(--mw-icon-background-default-light-gray, #F5F5F5)"/>
<path d="M42.998 22.0001H45V23.0001H42.998V22.0001Z" fill="var(--mw-icon-background-default-light-gray, #F5F5F5)"/>
<path d="M37 16.0001H39.002V17.0001H37V16.0001Z" fill="var(--mw-icon-background-default-light-gray, #F5F5F5)"/>
<path d="M39.9991 16.0001H42.0011V17.0001H39.9991V16.0001Z" fill="var(--mw-icon-background-default-light-gray, #F5F5F5)"/>
<path d="M42.998 16.0001H45V17.0001H42.998V16.0001Z" fill="var(--mw-icon-background-default-light-gray, #F5F5F5)"/>
<path d="M31.5 31.5V8.5H3.5V31.5H31.5Z" fill="#00A3A3" stroke="#02555C" stroke-linejoin="round"/>
<path d="M4 13.5V13.5C4.82843 13.5 5.5 14.1716 5.5 15V20C5.5 20.8284 6.17157 21.5 7 21.5V21.5C7.82843 21.5 8.5 20.8284 8.5 20V15C8.5 14.1716 9.17157 13.5 10 13.5V13.5C10.8284 13.5 11.5 14.1716 11.5 15V20C11.5 20.8284 12.1716 21.5 13 21.5V21.5C13.8284 21.5 14.5 20.8284 14.5 20V16.6001V15C14.5 14.1716 15.1716 13.5 16 13.5V13.5C16.8284 13.5 17.5 14.1716 17.5 15V20C17.5 20.8284 18.1716 21.5 19 21.5V21.5C19.8284 21.5 20.5 20.8284 20.5 20V15C20.5 14.1716 21.1716 13.5 22 13.5V13.5C22.8284 13.5 23.5 14.1716 23.5 15V20C23.5 20.8284 24.1716 21.5 25 21.5V21.5V21.5C25.8284 21.5 26.5 20.8284 26.5 20V15C26.5 14.1716 27.1716 13.5 28 13.5V13.5C28.8284 13.5 29.5 14.1716 29.5 15V20C29.5 20.8284 30.1716 21.5 31 21.5V21.5" stroke="var(--mw-icon-background-medium-yellow, #FFEF91)" stroke-linejoin="round"/>
</svg>
