<svg width="50" height="40" viewBox="0 0 50 40" fill="none" xmlns="http://www.w3.org/2000/svg">
<path d="M5.5 27V12L24.5 1L43.5 12V27L24.5 38L5.5 27Z" fill="var(--mw-icon-background-default-white, #FFFFFF)"/>
<path d="M24.5 16.5001L24.5058 1.58374L43.0197 12.254V27.1226L24.5 16.5001Z" fill="var(--mw-icon-background-default-light-gray, #F5F5F5)"/>
<path d="M24.5 16.4999L24.4942 1.5835L5.98034 12.2674L5.98034 27.1224L24.5 16.4999Z" fill="#E6E6E6"/>
<path d="M43.5 27V11.959L24.5 1L5.5 11.97" stroke="#BFBFBF" stroke-linecap="round" stroke-linejoin="round"/>
<path d="M5.5 12V27.03L24.5 38L43.5 27.0352" stroke="var(--mw-icon-border-default-gray, #616161)" stroke-linecap="round" stroke-linejoin="round"/>
<path d="M38.251 16.134L31.5299 19.8825V21.0991L38.251 24.8146V16.134Z" fill="#B3882A"/>
<path d="M24.0207 17.2029L9.95557 25.0402L24.0207 33.5001L38.4982 25.328L24.0207 17.2029Z" fill="#B3882A" stroke="#745A26" stroke-linejoin="round"/>
<path d="M32.5 28.5L29.5 30.21L24 26.7393L20 24.2603V20.4021L23 18.4021L25.375 19.8666L27.75 21.3312L32.5 24.2603V28.5Z" fill="#EDB120"/>
<path d="M29.5 25.9021V30.21M29.5 25.9021L20 20.4021M29.5 25.9021L32.5 24.2603M29.5 30.21L32.5 28.5V24.2603M29.5 30.21L24 26.7393L20 24.2603V20.4021M32.5 24.2603L27.75 21.3312L25.375 19.8666L23 18.4021L20 20.4021" stroke="#745A26" stroke-linejoin="round"/>
<path d="M9.5 15.8316L24.0636 7.5L38.4993 15.6387L23.5 23.6443V33.1848L9.5 24.7561V15.8316Z" fill="#EDB120"/>
<path d="M9.5 15.8316L24.0636 7.5L38.4993 15.6387M9.5 15.8316L23.5 23.6443M9.5 15.8316V24.7561L23.5 33.1848V23.6443M38.4993 15.6387V25.3356M38.4993 15.6387L23.5 23.6443" stroke="#745A26" stroke-linejoin="round"/>
<path d="M32.5 22.7235L29.5 24.2791L26.098 22.2846L29.5 20.3662L19.0734 14.2397L21.8031 12.6909L32.5 18.8065V22.7235Z" fill="#EDB120"/>
<path d="M29.5 20.3662V24.2791M29.5 20.3662L19.0734 14.2397L21.8031 12.6909L32.5 18.8065M29.5 20.3662L32.5 18.8065M29.5 20.3662L26.098 22.2846L29.5 24.2791M29.5 24.2791L32.5 22.7235V18.8065" stroke="#745A26" stroke-linejoin="round"/>
</svg>
