<svg width="50" height="40" viewBox="0 0 50 40" fill="none" xmlns="http://www.w3.org/2000/svg">
<path d="M15.5 11.5C15.5 10.9477 15.9477 10.5 16.5 10.5H33.5C34.0523 10.5 34.5 10.9477 34.5 11.5V28.5C34.5 29.0523 34.0523 29.5 33.5 29.5H16.5C15.9477 29.5 15.5 29.0523 15.5 28.5V11.5Z" fill="#BFBFBF" stroke="var(--mw-icon-border-default-gray, #616161)"/>
<path d="M33.2424 5C32.2121 6.04717 31.4242 6.4434 30.0303 6.4434C28.8182 6.4434 27.9697 6.27358 25.3636 5.65094C23.9091 5.31132 22.4545 5.14151 21.1212 5.14151C18.0909 5.14151 15.9091 6.16038 15 8H16.7576C17.4242 7.12264 18.4545 6.69811 19.8485 6.69811C20.9394 6.69811 21.4242 6.81132 23.7273 7.32075C26.2121 7.88679 27.1212 8 28.6364 8C31.9697 8 33.7273 7.15094 35 5H33.2424Z" fill="var(--mw-icon-object-primary, #616160)"/>

</svg>
