<svg width="50" height="40" viewBox="0 0 50 40" fill="none" xmlns="http://www.w3.org/2000/svg">
<rect x="8.5" y="20.5" width="36" height="18" rx="1" fill="#00A3A3" stroke="#02555C"/>
<rect x="5.5" y="26.5" width="7" height="6" rx="0.5" fill="var(--mw-icon-background-default-dark-gray, #A6A6A6)" stroke="var(--mw-icon-border-default-gray, #616161)"/>
<path d="M10.5 28.5V30.5M7.5 28.5H8.5M7.5 30.5H8.5" stroke="var(--mw-icon-glyph-content-dark-gray, #333333)" stroke-linecap="round"/>
<path d="M11.5 22.5V24.5M10.5 23.5H12.5M11.5 34.5V36.5M10.5 35.5H12.5M41.5 34.5V36.5M40.5 35.5H42.5M41.5 22.5V24.5M40.5 23.5H42.5" stroke="var(--mw-icon-background-default-medium-gray, #D9D9D9)" stroke-linecap="round"/>
<path d="M15 22.5C15 22.2239 15.2239 22 15.5 22H37.5C37.7761 22 38 22.2239 38 22.5V24.5C38 24.7761 37.7761 25 37.5 25H15.5C15.2239 25 15 24.7761 15 24.5V22.5Z" fill="var(--mw-icon-border-default-gray, #616161)"/>
<path d="M15 34.5C15 34.2239 15.2239 34 15.5 34H37.5C37.7761 34 38 34.2239 38 34.5V36.5C38 36.7761 37.7761 37 37.5 37H15.5C15.2239 37 15 36.7761 15 36.5V34.5Z" fill="var(--mw-icon-border-default-gray, #616161)"/>
<path d="M18 23H19V24H18V23Z" fill="var(--mw-icon-glyph-content-dark-gray, #333333)"/>
<path d="M16 23H17V24H16V23Z" fill="var(--mw-icon-glyph-content-dark-gray, #333333)"/>
<path d="M20 23H21V24H20V23Z" fill="var(--mw-icon-glyph-content-dark-gray, #333333)"/>
<path d="M22 23H23V24H22V23Z" fill="var(--mw-icon-glyph-content-dark-gray, #333333)"/>
<path d="M24 23H25V24H24V23Z" fill="var(--mw-icon-glyph-content-dark-gray, #333333)"/>
<path d="M26 23H27V24H26V23Z" fill="var(--mw-icon-glyph-content-dark-gray, #333333)"/>
<path d="M28 23H29V24H28V23Z" fill="var(--mw-icon-glyph-content-dark-gray, #333333)"/>
<path d="M30 23H31V24H30V23Z" fill="var(--mw-icon-glyph-content-dark-gray, #333333)"/>
<path d="M32 23H33V24H32V23Z" fill="var(--mw-icon-glyph-content-dark-gray, #333333)"/>
<path d="M34 23H35V24H34V23Z" fill="var(--mw-icon-glyph-content-dark-gray, #333333)"/>
<path d="M36 23H37V24H36V23Z" fill="var(--mw-icon-glyph-content-dark-gray, #333333)"/>
<path d="M16 35H17V36H16V35Z" fill="var(--mw-icon-glyph-content-dark-gray, #333333)"/>
<path d="M18 35H19V36H18V35Z" fill="var(--mw-icon-glyph-content-dark-gray, #333333)"/>
<path d="M20 35H21V36H20V35Z" fill="var(--mw-icon-glyph-content-dark-gray, #333333)"/>
<path d="M22 35H23V36H22V35Z" fill="var(--mw-icon-glyph-content-dark-gray, #333333)"/>
<path d="M24 35H25V36H24V35Z" fill="var(--mw-icon-glyph-content-dark-gray, #333333)"/>
<path d="M26 35H27V36H26V35Z" fill="var(--mw-icon-glyph-content-dark-gray, #333333)"/>
<path d="M28 35H29V36H28V35Z" fill="var(--mw-icon-glyph-content-dark-gray, #333333)"/>
<path d="M30 35H31V36H30V35Z" fill="var(--mw-icon-glyph-content-dark-gray, #333333)"/>
<path d="M32 35H33V36H32V35Z" fill="var(--mw-icon-glyph-content-dark-gray, #333333)"/>
<path d="M34 35H35V36H34V35Z" fill="var(--mw-icon-glyph-content-dark-gray, #333333)"/>
<path d="M36 35H37V36H36V35Z" fill="var(--mw-icon-glyph-content-dark-gray, #333333)"/>
<rect x="35" y="27" width="3" height="5" rx="0.5" fill="var(--mw-icon-background-default-medium-gray, #D9D9D9)"/>
<circle cx="36.5" cy="29.5" r="0.5" fill="#B7312C"/>
<path d="M28.4661 30.0757L28.2426 29.5L28.4661 28.9243C28.7799 28.116 29.7172 27.5 30.5961 27.5C31.6293 27.5 32.5 28.3768 32.5 29.5C32.5 30.6232 31.6293 31.5 30.5961 31.5C29.7172 31.5 28.7799 30.884 28.4661 30.0757ZM27.5339 28.9243L27.7574 29.5L27.5339 30.0757C27.2201 30.884 26.2828 31.5 25.4039 31.5C24.3707 31.5 23.5 30.6232 23.5 29.5C23.5 28.3768 24.3707 27.5 25.4039 27.5C26.2828 27.5 27.2201 28.116 27.5339 28.9243Z" stroke="var(--mw-icon-background-default-white, #FFFFFF)"/>
<rect x="15" y="29.5355" width="5" height="5" rx="0.5" transform="rotate(-45 15 29.5355)" fill="var(--mw-icon-glyph-content-dark-gray, #333333)"/>
<path d="M40 28.5C40 28.2239 40.2239 28 40.5 28H42.5C42.7761 28 43 28.2239 43 28.5C43 28.7761 42.7761 29 42.5 29H40.5C40.2239 29 40 28.7761 40 28.5Z" fill="var(--mw-icon-background-default-medium-gray, #D9D9D9)"/>
<path d="M40 30.5C40 30.2239 40.2239 30 40.5 30H42.5C42.7761 30 43 30.2239 43 30.5C43 30.7761 42.7761 31 42.5 31H40.5C40.2239 31 40 30.7761 40 30.5Z" fill="var(--mw-icon-background-default-medium-gray, #D9D9D9)"/>
<path d="M41 28H42V29H41V28Z" fill="#B7312C"/>
<path d="M41 30H42V31H41V30Z" fill="#3AC831"/>
<path d="M12.353 6.29881C12.155 6.48863 12.1555 6.80312 12.3485 6.99799L13.9761 8.64138C14.1717 8.83889 14.4904 8.83824 14.6922 8.6471C17.6173 5.8769 21.4821 4.32839 25.505 4.32839C29.5276 4.32839 33.3921 5.87662 36.3171 8.64634C36.5192 8.83777 36.8385 8.83807 37.034 8.63984L38.6531 6.99798C38.8453 6.803 38.8454 6.48909 38.6478 6.29955C35.1045 2.90143 30.3993 1 25.5 1C20.601 1 15.8962 2.90115 12.353 6.29881Z" fill="#00A3A3"/>
<path d="M21.3059 15.3844C21.1325 15.1935 21.1313 14.9004 21.3176 14.7221C22.4735 13.6151 23.958 13 25.5 13C27.042 13 28.5265 13.6151 29.6824 14.7221C29.8687 14.9004 29.8675 15.1935 29.6941 15.3844L25.87 19.5928C25.6717 19.8111 25.3283 19.8111 25.13 19.5928L21.3059 15.3844Z" fill="#00A3A3"/>
<path d="M16.3885 10.3854C16.1734 10.5741 16.1739 10.9054 16.3813 11.1026L18.0334 12.6729C18.2263 12.8562 18.5281 12.8552 18.7298 12.6815C20.5783 11.089 22.9885 10.2012 25.4949 10.2012C28.0016 10.2012 30.4121 11.0892 32.2608 12.6822C32.4621 12.8557 32.7633 12.8569 32.9563 12.6743L34.6171 11.1025C34.8252 10.9056 34.8261 10.5736 34.6107 10.3847C32.1342 8.21264 28.8829 7 25.5 7C22.1168 7 18.8651 8.21291 16.3885 10.3854Z" fill="#00A3A3"/>
</svg>
