<svg width="50" height="40" viewBox="0 0 50 40" fill="none" xmlns="http://www.w3.org/2000/svg">
<rect x="0.5" y="0.5" width="48" height="38" rx="1" fill="var(--mw-icon-background-default-white, white)"/>
<path d="M0.5 4.5H48.5V37.5C48.5 38.0523 48.0523 38.5 47.5 38.5H1.5C0.947714 38.5 0.5 38.0523 0.5 37.5V4.5Z" fill="var(--mw-icon-background-default-white, white)" stroke="var(--mw-icon-border-default-gray, #616161)"/>
<path d="M0.5 1.5C0.5 0.947715 0.947715 0.5 1.5 0.5H47.5C48.0523 0.5 48.5 0.947715 48.5 1.5V4.5H0.5V1.5Z" fill="var(--mw-icon-background-default-selection, #B4DEFF)" stroke="var(--mw-icon-border-default-blue, #1656A7)"/>
<rect x="1" y="5" width="47" height="7" fill="#E6E6E6"/>
<path d="M1 12.5H48" stroke="#BFBFBF"/>
<rect x="4" y="6" width="5" height="5" fill="var(--mw-icon-background-default-dark-gray, #A6A6A6)"/>
<rect x="13" y="6" width="5" height="5" fill="var(--mw-icon-background-default-dark-gray, #A6A6A6)"/>
<rect x="22" y="6" width="5" height="5" fill="var(--mw-icon-background-default-dark-gray, #A6A6A6)"/>
<rect x="31" y="6" width="5" height="5" fill="var(--mw-icon-background-default-dark-gray, #A6A6A6)"/>
<rect x="40" y="6" width="5" height="5" fill="var(--mw-icon-background-default-dark-gray, #A6A6A6)"/>
<path d="M26.5 16.5C29.5 16.5 29.5 18.5 29.5 29.5C29.5 26.5 30 24.5 31 24.5C32 24.5 32.5 27.3333 32.5 29.5C32.6667 27.5 32.5 24.5 34 24.5C35.5 24.5 35.5 28 35.5 31.5C35.5 29.5 35 24.5 37 24.5C39 24.5 38.5 30.1667 38.5 32.5C38.5 30.5 38 24.5 40 24.5C42 24.5 41.5 31.3333 41.5 33.5C41.5 31.5 41 24.5 43 24.5C45 24.5 44.5 32.3333 44.5 34.5" stroke="#0072BD" stroke-linecap="round" stroke-linejoin="round"/>
<path d="M3.5 30.5C4.5 30.5 6.3 30.1 7.5 26.5C9 22 9 16.5 12 16.5C15 16.5 15.5 23 16.5 26.5C17.5 30 19 30.5 20.5 30.5" stroke="#0072BD" stroke-linecap="round"/>
<path d="M23.5 13V37.5" stroke="#BFBFBF" stroke-linecap="square"/>

</svg>
