<svg width="50" height="40" viewBox="0 0 50 40" fill="none" xmlns="http://www.w3.org/2000/svg">
<rect x="0.5" y="0.5" width="48" height="38" rx="1" fill="var(--mw-icon-background-default-white, white)"/>
<path d="M24.5 18V21M24.5 12V15M24.5 24V27M24.5 30V33M24.5 6V9M24.5 0V3M24.5 36V39" stroke="#0072BD"/>
<path d="M26 19.5L23 19.5M32 19.5L29 19.5M20 19.5L17 19.5M14 19.5L11 19.5M7.5 19.5L5 19.5M2 19.5L1 19.5M38 19.5L35 19.5M44 19.5L41.5 19.5M47 19.5L48 19.5" stroke="#0072BD"/>
<circle cx="24.5" cy="19.5" r="11" stroke="#0072BD" stroke-dasharray="3 4"/>
<circle cx="43.5" cy="19.5" r="2" stroke="#0072BD"/>
<circle cx="5.5" cy="19.5" r="2" stroke="#0072BD"/>
<path d="M36.707 7L38.3749 8.66789M38.3749 8.66789L39.9999 10.2929M38.3749 8.66789L40.0428 7M38.3749 8.66789L36.7499 10.2929" stroke="#0072BD" stroke-linecap="round"/>
<path d="M36.707 29L39.9999 32.2929M40.0428 29L36.7499 32.2929" stroke="#0072BD" stroke-linecap="round"/>
<rect x="0.5" y="0.5" width="48" height="38" rx="1" stroke="var(--mw-icon-border-default-gray, #616161)"/>

</svg>
