<svg id="Layer_1" data-name="Layer 1" xmlns="http://www.w3.org/2000/svg" viewBox="0 0 16 16">
  <path d="M1,.5H15a.47.47,0,0,1,.5.5V15a.47.47,0,0,1-.5.5H1A.47.47,0,0,1,.5,15V1A.47.47,0,0,1,1,.5Z" style="fill:#fff;stroke:#3659a8;stroke-miterlimit:10"/>
  <rect x="1" y="1" width="14" height="3" style="fill:#807f80"/>
  <line x1="1" y1="4.5" x2="15" y2="4.5" style="fill:none;stroke:#3659a8;stroke-miterlimit:10"/>
  <line x1="8.07" y1="6" x2="8.07" y2="9.25" style="fill:none;stroke:#3659a8;stroke-linecap:round;stroke-miterlimit:10"/>
  <path d="M10.5,7.31a3.58,3.58,0,1,1-5.06.17h0a1.37,1.37,0,0,1,.17-.17" style="fill:none;stroke:#3659a8;stroke-linecap:round;stroke-miterlimit:10"/>
</svg>
