<svg id="Layer_1" data-name="Layer 1" xmlns="http://www.w3.org/2000/svg" viewBox="0 0 16 16">
  <path d="M1,.5H15a.47.47,0,0,1,.5.5V15a.47.47,0,0,1-.5.5H1A.47.47,0,0,1,.5,15V1A.47.47,0,0,1,1,.5Z" style="fill:#fff;stroke:#595959;stroke-miterlimit:10"/>
  <line x1="8" y1="7.95" x2="8" y2="11.95" style="fill:none;stroke:#595959;stroke-linecap:round;stroke-miterlimit:10"/>
  <rect x="1" y="1" width="14" height="3" style="fill:#807f80"/><line x1="1" y1="4.5" x2="15" y2="4.5" style="fill:none;stroke:#595959;stroke-miterlimit:10"/>
  <path d="M8,6.35A3.6,3.6,0,1,1,4.4,10,3.6,3.6,0,0,1,8,6.35H8m0-.9A4.5,4.5,0,1,0,12.5,10,4.5,4.5,0,0,0,8,5.45Z" style="fill:#595959"/>
</svg>
