<svg xmlns="http://www.w3.org/2000/svg" xmlns:xlink="http://www.w3.org/1999/xlink" viewBox="0 0 24 24"><defs><style>.cls-1{fill:none;}.cls-2{fill:url(#Blue_Frame_4);}.cls-3{fill:url(#radial-gradient);}.cls-4{fill:#fff;}.cls-5{opacity:0.5;}.cls-6{fill:url(#linear-gradient);}</style><linearGradient id="Blue_Frame_4" x1="12" y1="23" x2="12" y2="1" gradientUnits="userSpaceOnUse"><stop offset="0.09" stop-color="#143253"/><stop offset="0.99" stop-color="#609abd"/></linearGradient><radialGradient id="radial-gradient" cx="45.23" cy="23.65" r="17.73" gradientTransform="translate(-47.94 -25.21) scale(1.2)" gradientUnits="userSpaceOnUse"><stop offset="0.23" stop-color="#fff"/><stop offset="0.64" stop-color="#d9e3e6"/><stop offset="0.89" stop-color="#92a6b6"/><stop offset="1" stop-color="#3f72a9"/></radialGradient><linearGradient id="linear-gradient" x1="8.34" y1="8" x2="15.61" y2="15.27" gradientUnits="userSpaceOnUse"><stop offset="0" stop-color="#2e394a"/><stop offset="0.39" stop-color="#3f4c60"/><stop offset="0.99" stop-color="#5485ac"/></linearGradient></defs><g id="Layer_2" data-name="Layer 2"><g id="help"><g id="help_24"><rect class="cls-1" width="24" height="24"/><path class="cls-2" d="M12,23A11,11,0,1,1,23,12,11,11,0,0,1,12,23Z"/><path class="cls-3" d="M12,22A10,10,0,1,1,22,12,10,10,0,0,1,12,22Z"/><path class="cls-4" d="M12,3.27a10,10,0,0,1,10,9.36c0-.21,0-.42,0-.63A10,10,0,0,0,2,12c0,.21,0,.42,0,.63A10,10,0,0,1,12,3.27Z"/><g class="cls-5"><path class="cls-4" d="M13,18.88H11v-2h2Zm1.66-6a4.29,4.29,0,0,1-1.69.83v2.07h-1.9V12.69a3,3,0,0,0,2.15-.63,2.62,2.62,0,0,0,.64-1.48A1.93,1.93,0,0,0,12,8.84c-.9,0-1.83.38-2.06,2H8.06A3.89,3.89,0,0,1,11.92,7a3.63,3.63,0,0,1,3.75,3.43A3.06,3.06,0,0,1,14.66,12.92Z"/></g><path class="cls-6" d="M13,17.88H11v-2h2Zm1.66-6a4.29,4.29,0,0,1-1.69.83v2.07h-1.9V11.69a3,3,0,0,0,2.15-.63,2.62,2.62,0,0,0,.64-1.48A1.93,1.93,0,0,0,12,7.84c-.9,0-1.83.38-2.06,2H8.06A3.89,3.89,0,0,1,11.92,6a3.63,3.63,0,0,1,3.75,3.43A3.06,3.06,0,0,1,14.66,11.92Z"/></g></g></g></svg>