<svg xmlns="http://www.w3.org/2000/svg" xmlns:xlink="http://www.w3.org/1999/xlink" viewBox="0 0 16 16"><defs><style>.cls-1{opacity:0.75;fill:url(#linear-gradient);}.cls-2{fill:url(#linear-gradient-2);}.cls-3{fill:url(#linear-gradient-3);}.cls-4{fill:url(#radial-gradient);}.cls-5,.cls-7{fill:#fff;}.cls-5{opacity:0.9;}.cls-6{opacity:0.8;}.cls-8{fill:url(#linear-gradient-4);}.cls-9{fill:none;}</style><linearGradient id="linear-gradient" y1="7.5" x2="16" y2="7.5" gradientUnits="userSpaceOnUse"><stop offset="0" stop-color="#fbae14"/><stop offset="1" stop-color="#fbae14"/></linearGradient><linearGradient id="linear-gradient-2" x1="8" y1="13" x2="8" y2="2" gradientUnits="userSpaceOnUse"><stop offset="0" stop-color="#623000"/><stop offset="0.38" stop-color="#9d4500"/><stop offset="1" stop-color="#cc9033"/></linearGradient><linearGradient id="linear-gradient-3" x1="8" y1="14" x2="8" xlink:href="#linear-gradient-2"/><radialGradient id="radial-gradient" cx="-68.8" cy="6.16" r="12.33" gradientTransform="translate(68.99 -1.96) scale(0.92 1)" gradientUnits="userSpaceOnUse"><stop offset="0.02" stop-color="#fcf8d9"/><stop offset="0.8" stop-color="#f5e844"/></radialGradient><linearGradient id="linear-gradient-4" x1="8.16" y1="6" x2="8.16" y2="11.92" gradientUnits="userSpaceOnUse"><stop offset="0.27" stop-color="#2e2e2e"/><stop offset="0.6"/></linearGradient></defs><g id="Layer_2" data-name="Layer 2"><g id="Icons"><g id="highlightIndicator_16"><path class="cls-1" d="M1.83,15a1.78,1.78,0,0,1-1.6-.84A1.93,1.93,0,0,1,.3,12.21L6.41,1.06A1.83,1.83,0,0,1,8,0,1.85,1.85,0,0,1,9.59,1.06L15.7,12.21a2,2,0,0,1,.07,1.95,1.78,1.78,0,0,1-1.6.84Z"/><path class="cls-2" d="M13.78,11.89,8.61,2.46A.74.74,0,0,0,8,2a.72.72,0,0,0-.6.46L2.22,11.89c-.33.61-.08,1.11.56,1.11H13.22C13.86,13,14.11,12.5,13.78,11.89Z"/><path class="cls-3" d="M14.3,12.79,8.66,2.5A.81.81,0,0,0,8,2a.81.81,0,0,0-.66.5L1.7,12.79c-.36.67-.09,1.21.6,1.21H13.69C14.39,14,14.66,13.46,14.3,12.79Z"/><polygon class="cls-4" points="2.67 13 8 3.27 13.33 13 2.67 13"/><polygon class="cls-5" points="8 4.54 12.63 13 13.33 13 8 3.27 2.67 13 3.37 13 8 4.54"/><g class="cls-6"><path class="cls-7" d="M8.79,10H7.52L7.31,7H9ZM9,11.23H7.31v1.69H9Z"/></g><path class="cls-8" d="M8.79,9H7.52L7.31,6H9ZM9,10.23H7.31v1.69H9Z"/><rect class="cls-9" width="16" height="16"/></g></g></g></svg>