<svg id="Layer_1" data-name="Layer 1" xmlns="http://www.w3.org/2000/svg" xmlns:xlink="http://www.w3.org/1999/xlink" viewBox="0 0 24 24"><defs><style>.cls-1{fill:#c3c3c3;}.cls-2{fill:#d6d6d6;}.cls-3{fill:#b5b5b5;}.cls-4{fill:none;}.cls-5{fill:url(#linear-gradient);}.cls-6{fill:url(#linear-gradient-2);}.cls-7{fill:url(#linear-gradient-3);}</style><linearGradient id="linear-gradient" x1="-52.12" y1="68.12" x2="-52.12" y2="73.16" gradientTransform="translate(6.98 -82.88) rotate(-45)" gradientUnits="userSpaceOnUse"><stop offset="0.04" stop-color="#919191"/><stop offset="0.99" stop-color="#2a2a2a"/></linearGradient><linearGradient id="linear-gradient-2" x1="-75.09" y1="69" x2="-78.24" y2="72.15" gradientTransform="translate(6.98 -82.88) rotate(-45)" gradientUnits="userSpaceOnUse"><stop offset="0.06" stop-color="#595959"/><stop offset="0.98"/></linearGradient><linearGradient id="linear-gradient-3" x1="-65.16" y1="68.12" x2="-65.16" y2="73.16" gradientTransform="translate(6.98 -82.88) rotate(-45)" gradientUnits="userSpaceOnUse"><stop offset="0.06" stop-color="#909090"/><stop offset="0.91" stop-color="#323232"/></linearGradient></defs><rect class="cls-1" x="17.18" y="2.6" width="5.04" height="3.6" transform="translate(2.66 15.21) rotate(-45)"/><rect class="cls-2" x="0.69" y="11.62" width="19.98" height="3.6" transform="translate(-6.36 11.48) rotate(-45)"/><polygon class="cls-3" points="4.88 21.75 0.98 23.13 2.34 19.21 4.88 21.75"/><rect class="cls-4" x="17.96" y="4.15" width="1.26" height="2.52" transform="translate(1.62 14.72) rotate(-44.98)"/><polygon class="cls-5" points="20.23 0.23 16.36 4.07 17.26 4.96 19.17 3.05 20.95 4.83 19.04 6.75 19.93 7.64 23.77 3.77 20.23 0.23"/><rect class="cls-4" x="0.73" y="12.33" width="19.36" height="2.52" transform="translate(-6.56 11.35) rotate(-45.02)"/><polygon class="cls-6" points="1.63 22.53 2.68 19.54 1.78 18.65 0 24 5.35 22.22 4.46 21.32 1.63 22.53"/><polygon class="cls-7" points="1.78 18.65 2.68 19.54 16.36 5.86 18.15 7.64 4.46 21.32 5.35 22.22 19.93 7.64 19.04 6.75 17.26 4.96 16.36 4.07 1.78 18.65"/></svg>