<?xml version="1.0" encoding="UTF-8"?>
<!-- Created with Inkscape (http://www.inkscape.org/) -->
<svg
    width="26.56mm" 
    height="26.694mm" 
    version="1.1" 
    viewBox="0 0 26.56 26.694" 
    xml:space="preserve" 
    xmlns="http://www.w3.org/2000/svg">
    <g 
        transform="matrix(.70985 0 0 .75168 -64.235 -60.515)">
        <g 
            transform="matrix(.26023 0 0 .24897 76.542 44.344)">
            <rect 
            x="77.79" 
            y="165.18" 
            width="58.063" 
            height="46.194" 
            rx="12.496" 
            ry="12.973" 
            fill="none" 
            stroke="#000" 
            stroke-width="2.5464"/>
            <rect 
            x="117.56" 
            y="217.33" 
            width="58.063" 
            height="46.194" 
            rx="12.496" 
            ry="12.973" 
            fill="none" 
            stroke="#000" 
            stroke-width="2.5464"/>
            <path 
            d="m142.34 176.03-0.0625 2s4.2146 0.12552 8.4062 2.2812 8.2812 6.1631 8.2812 14.406v13.75h2v-13.75c0-8.9294-4.7278-13.766-9.375-16.156s-9.25-2.5312-9.25-2.5312z" 
            color="#000000" 
            style="text-decoration-line:none;text-indent:0;text-transform:none"/>
            <path d="m92.719 221.31v13.75c0 8.9294 4.7279 13.798 9.375 16.188s9.2812 2.5 9.2812 2.5l0.0312-2s-4.2146-0.12552-8.4062-2.2812c-4.1917-2.1557-8.2812-6.1631-8.2812-14.406v-13.75h-2z" 
            color="#000000" 
            style="text-decoration-line:none;text-indent:0;text-transform:none"/>
            <path 
            transform="translate(76.643,164.29)" 
            d="m17.125 51.969-6.6562 18.031c1.834-0.89885 4.1137-1.4375 6.5625-1.4375 2.637 0 5.0351 0.62842 6.9375 1.6562z"/>
            <path d="m160.04 212.26-6.6562-18.031c1.834 0.89885 4.1137 1.4375 6.5625 1.4375 2.637 0 5.0351-0.62842 6.9375-1.6562z"/>
        </g>
    </g>
</svg>