<svg width="229" height="90" viewBox="0 0 229 90" fill="none" xmlns="http://www.w3.org/2000/svg">
<g clip-path="url(#clip0_5185_23558)">
<rect x="0.5" y="0.5" width="228" height="89" fill="#FEFEFE" stroke="#C5C5C5"/>
<path d="M219.5 9.5H89.5V79.5H219.5V9.5Z" fill="#F5F5F5" stroke="#D9D9D9"/>
<path d="M78.5 9.5H9.5V79.5H78.5V9.5Z" fill="#F5F5F5" stroke="#D9D9D9"/>
<rect x="15.5" y="57.5" width="20" height="3" fill="#A6A6A6" stroke="#D9D9D9"/>
<rect x="39.5" y="58.5" width="33" height="1" fill="#D9D9D9" stroke="#A6A6A6"/>
<rect x="48.5" y="55.5" width="3" height="7" rx="1.5" fill="#FDFDFD" stroke="#616161"/>
<rect x="15.5" y="42.5" width="20" height="3" fill="#A6A6A6" stroke="#D9D9D9"/>
<rect x="39.5" y="40.5" width="33" height="7" fill="#FEFEFE" stroke="#A6A6A6"/>
<rect x="15.5" y="27.5" width="20" height="3" fill="#A6A6A6" stroke="#D9D9D9"/>
<rect x="39.5" y="25.5" width="33" height="7" fill="#FEFEFE" stroke="#A6A6A6"/>
<rect x="96.5" y="23.5" width="116" height="50" fill="white" stroke="#A6A6A6"/>
<mask id="mask0_5185_23558" style="mask-type:alpha" maskUnits="userSpaceOnUse" x="97" y="23" width="115" height="51">
<rect x="97.5" y="23.5" width="114" height="50" fill="#FEFEFE" stroke="#BDBDBD"/>
</mask>
<g mask="url(#mask0_5185_23558)">
<path d="M178.45 32C159.023 32 147.837 63.9863 128.9 64C107.86 64 98.2871 32.041 78.86 32.041C67.4633 32.041 58.9421 42.9859 50 52.0701" stroke="#616162"/>
<path d="M257 43.8888C248.023 52.9867 239.467 63.959 228.491 63.959C207.626 63.959 197.913 32 178.45 32" stroke="#616162"/>
</g>
<rect x="128.5" y="16.5" width="52" height="3" fill="#A6A6A6" stroke="#616161"/>
</g>
<defs>
<clipPath id="clip0_5185_23558">
<rect width="229" height="90" fill="white"/>
</clipPath>
</defs>
</svg>
