<svg width="229" height="90" viewBox="0 0 229 90" fill="none" xmlns="http://www.w3.org/2000/svg">
<g clip-path="url(#clip0_1_97)">
<mask id="mask0_1_97" style="mask-type:luminance" maskUnits="userSpaceOnUse" x="0" y="0" width="229" height="90">
<path d="M229 0H0V90H229V0Z" fill="white"/>
</mask>
<g mask="url(#mask0_1_97)">
<path d="M228.5 0.5H0.5V89.5H228.5V0.5Z" fill="#616161" stroke="#A6A6A6"/>
<path d="M219.5 9.5H89.5V79.5H219.5V9.5Z" fill="#333333" stroke="#A6A6A6"/>
<path d="M78.5 9.5H9.5V79.5H78.5V9.5Z" fill="#333333" stroke="#A6A6A6"/>
<path d="M35.5 57.5H15.5V60.5H35.5V57.5Z" fill="#A6A6A6" stroke="#D9D9D9"/>
<path d="M72.5 58.5H39.5V59.5H72.5V58.5Z" fill="#A6A6A6" stroke="#A6A6A6"/>
<path d="M51.5 57C51.5 56.1716 50.8284 55.5 50 55.5C49.1716 55.5 48.5 56.1716 48.5 57V61C48.5 61.8284 49.1716 62.5 50 62.5C50.8284 62.5 51.5 61.8284 51.5 61V57Z" fill="white" stroke="#7D7D7D"/>
<path d="M35.5 42.5H15.5V45.5H35.5V42.5Z" fill="#A6A6A6" stroke="#D9D9D9"/>
<path d="M72.5 40.5H39.5V47.5H72.5V40.5Z" fill="#212121" stroke="#A6A6A6"/>
<path d="M35.5 27.5H15.5V30.5H35.5V27.5Z" fill="#A6A6A6" stroke="#D9D9D9"/>
<path d="M72.5 25.5H39.5V32.5H72.5V25.5Z" fill="#212121" stroke="#A6A6A6"/>
<path d="M212.5 23.5H96.5V73.5H212.5V23.5Z" fill="#212121" stroke="#BFBFBF"/>
<mask id="mask1_1_97" style="mask-type:alpha" maskUnits="userSpaceOnUse" x="97" y="23" width="115" height="51">
<path d="M211.5 23.5H97.5V73.5H211.5V23.5Z" fill="#333333" stroke="#BDBDBD"/>
</mask>
<g mask="url(#mask1_1_97)">
<path d="M178.45 32C159.023 32 147.837 63.9863 128.9 64C107.86 64 98.2871 32.041 78.86 32.041C67.4633 32.041 58.9421 42.9859 50 52.0701" stroke="white"/>
<path d="M257 43.8888C248.023 52.9867 239.467 63.959 228.491 63.959C207.626 63.959 197.913 32 178.45 32" stroke="white"/>
</g>
<path d="M180.5 16.5H128.5V19.5H180.5V16.5Z" fill="#A6A6A6" stroke="#D9D9D9"/>
</g>
</g>
<defs>
<clipPath id="clip0_1_97">
<rect width="229" height="90" fill="white"/>
</clipPath>
</defs>
</svg>
