<svg width="500" height="300" viewBox="0 0 500 300" fill="none" xmlns="http://www.w3.org/2000/svg">
<rect width="500" height="300" fill="white"/>
<rect width="500" height="300" fill="#F0F0F0"/>
<rect x="100" y="50" width="300" height="200" fill="white"/>
<path d="M100 50L100 250" stroke="black" stroke-width="2"/>
<path d="M400 250L100 250" stroke="black" stroke-width="2"/>
<rect x="145" y="19.5" width="210" height="17" fill="#BDBDBD"/>
<rect x="216" y="268.5" width="68" height="17" fill="#BDBDBD"/>
<rect x="48.5" y="184" width="68" height="17" transform="rotate(-90 48.5 184)" fill="#BDBDBD"/>
<rect x="100" y="147.5" width="5" height="5" fill="black"/>
<rect x="100" y="50" width="5" height="5" fill="black"/>
<rect x="159.1" y="245" width="5" height="5" fill="black"/>
<rect x="100" y="245" width="5" height="5" fill="black"/>
<rect x="218.2" y="245" width="5" height="5" fill="black"/>
<rect x="277.3" y="245" width="5" height="5" fill="black"/>
<rect x="336.4" y="245" width="5" height="5" fill="black"/>
<rect x="395.5" y="245" width="5" height="5" fill="black"/>
</svg>
