<svg width="24" height="24" viewBox="0 0 24 24" fill="none" xmlns="http://www.w3.org/2000/svg">
<path d="M0.5 21.5V2.5C0.5 1.39543 1.39543 0.5 2.5 0.5H21.5C22.6046 0.5 23.5 1.39543 23.5 2.5V21.5C23.5 22.6046 22.6046 23.5 21.5 23.5H2.5C1.39543 23.5 0.5 22.6046 0.5 21.5Z" fill="#B4DEFF" stroke="#616161" stroke-linecap="square"/>
<path fill-rule="evenodd" clip-rule="evenodd" d="M12.6774 11.3225C11.837 10.4821 10.4744 10.4821 9.63398 11.3225L5.69408 15.2624C4.85365 16.1029 4.85365 17.4655 5.69408 18.3059C6.5345 19.1463 7.8971 19.1463 8.73753 18.3059L10.4261 16.6174C10.829 16.2144 11.4824 16.2144 11.8854 16.6174C12.2883 17.0203 12.2883 17.6737 11.8854 18.0767L10.1968 19.7652C8.55045 21.4116 5.88115 21.4116 4.23478 19.7652C2.58841 18.1188 2.58841 15.4495 4.23478 13.8031L8.17469 9.86321C9.82106 8.21683 12.4904 8.21683 14.1367 9.86321C14.5397 10.2662 14.5397 10.9195 14.1367 11.3225C13.7338 11.7255 13.0804 11.7255 12.6774 11.3225Z" fill="#616162"/>
<path fill-rule="evenodd" clip-rule="evenodd" d="M11.3226 12.6775C12.163 13.5179 13.5256 13.5179 14.366 12.6775L18.3059 8.73756C19.1463 7.89713 19.1463 6.53452 18.3059 5.69409C17.4655 4.85366 16.1029 4.85366 15.2625 5.69409L13.5739 7.38263C13.171 7.78561 12.5176 7.78561 12.1146 7.38263C11.7117 6.97965 11.7117 6.3263 12.1146 5.92332L13.8032 4.23479C15.4495 2.5884 18.1188 2.5884 19.7652 4.23479C21.4116 5.88117 21.4116 8.55048 19.7652 10.1969L15.8253 14.1368C14.1789 15.7832 11.5096 15.7832 9.86327 14.1368C9.46029 13.7338 9.46029 13.0805 9.86327 12.6775C10.2662 12.2745 10.9196 12.2745 11.3226 12.6775Z" fill="#616162"/>
</svg>
