<svg width="16" height="16" viewBox="0 0 24 24" fill="none" xmlns="http://www.w3.org/2000/svg">
<path d="M16.5 21L16.5 1C16.5 0.723858 16.7239 0.5 17 0.5L23 0.5C23.2761 0.5 23.5 0.723858 23.5 1L23.5 21C23.5 21.2761 23.2761 21.5 23 21.5H17C16.7239 21.5 16.5 21.2761 16.5 21Z" fill="#CBFFBE"/>
<path d="M16.5 21H16H16.5ZM16.5 1H17H16.5ZM17 0.5V1V0.5ZM23 0.5V0V0.5ZM23.5 1H24H23.5ZM23.5 21H23H23.5ZM23 21.5V22V21.5ZM17 21.5V21V21.5ZM17.5 14H17V15H17.5V14ZM22.5 15H23V14H22.5V15ZM17.5 7H17V8H17.5V7ZM22.5 8H23V7H22.5V8ZM17 21L17 1H16L16 21H17ZM17 1H17V1.78814e-07C16.4477 2.08616e-07 16 0.447714 16 1H17ZM17 1L23 1V0L17 1.78814e-07V1ZM23 1V1H24C24 0.447717 23.5523 0 23 0V1ZM23 1L23 21H24L24 1H23ZM23 21V22C23.5523 22 24 21.5523 24 21H23ZM23 21H17V22H23V21ZM17 21H17H16C16 21.5523 16.4477 22 17 22V21ZM17.5 15H22.5V14H17.5V15ZM17.5 8H22.5V7H17.5V8Z" fill="#008013"/>
<path d="M0.500001 23L0.5 6C0.5 5.72386 0.723858 5.5 1 5.5L12 5.5C12.2761 5.5 12.5 5.72386 12.5 6L12.5 23C12.5 23.2761 12.2761 23.5 12 23.5H1C0.723858 23.5 0.500001 23.2761 0.500001 23Z" fill="#F5F5F5"/>
<path d="M0.500001 23H1H0.500001ZM0.5 6H0H0.5ZM1 5.5V6V5.5ZM12 5.5V5V5.5ZM12.5 6H12H12.5ZM12.5 23H13H12.5ZM12 23.5V24V23.5ZM1 23.5V23V23.5ZM1.5 17H0.999999V18H1.5V17ZM11.5 18H12V17H11.5V18ZM1.5 11H1L1 12H1.5V11ZM11.5 12H12V11H11.5V12ZM7 6.5V6L6 6V6.5H7ZM6 22.5V23H7V22.5H6ZM1 23L1 6H0L5.36442e-07 23H1ZM1 6H1V5C0.447717 5 0 5.44771 0 6H1ZM1 6L12 6V5L1 5V6ZM12 6V6H13C13 5.44772 12.5523 5 12 5V6ZM12 6L12 23H13L13 6H12ZM12 23V24C12.5523 24 13 23.5523 13 23H12ZM12 23H1V24H12V23ZM1 23H5.36442e-07C5.66244e-07 23.5523 0.447716 24 1 24V23ZM1.5 18H11.5V17H1.5V18ZM1.5 12L6.5 12V11L1.5 11V12ZM6.5 12L11.5 12V11L6.5 11V12ZM6 6.5L6 11.5H7L7 6.5H6ZM6 11.5L6 22.5H7L7 11.5H6Z" fill="#888888"/>
</svg>
