<svg width="16" height="16" viewBox="0 0 24 24" fill="none" xmlns="http://www.w3.org/2000/svg">
<path d="M23.5 23L23.5 6C23.5 5.72386 23.2761 5.5 23 5.5L12 5.5C11.7239 5.5 11.5 5.72386 11.5 6L11.5 23C11.5 23.2761 11.7239 23.5 12 23.5L23 23.5C23.2761 23.5 23.5 23.2761 23.5 23Z" fill="#F5F5F5"/>
<path d="M23.5 23H24H23.5ZM23.5 6L23 6L23.5 6ZM23 5.5V6V5.5ZM12 5.5L12 5L12 5.5ZM11.5 6L12 6L11.5 6ZM11.5 23H11H11.5ZM12 23.5L12 23L12 23.5ZM23 23.5V24V23.5ZM22.5 18H23V17H22.5V18ZM12.5 17H12L12 18H12.5L12.5 17ZM22.5 12H23V11H22.5V12ZM12.5 11H12L12 12H12.5L12.5 11ZM18 6.5V6H17V6.5H18ZM17 22.5V23H18V22.5H17ZM24 23L24 6L23 6L23 23H24ZM24 6C24 5.44772 23.5523 5 23 5V6L24 6ZM23 5L12 5L12 6L23 6V5ZM12 5C11.4477 5 11 5.44772 11 6L12 6V6L12 5ZM11 6L11 23H12L12 6L11 6ZM11 23C11 23.5523 11.4477 24 12 24L12 23H11ZM12 24L23 24V23L12 23L12 24ZM23 24C23.5523 24 24 23.5523 24 23H23V24ZM22.5 17L12.5 17L12.5 18L22.5 18V17ZM22.5 11H17.5V12H22.5V11ZM17.5 11L12.5 11L12.5 12L17.5 12V11ZM17 6.5V11.5H18V6.5H17ZM17 11.5L17 22.5H18L18 11.5H17Z" fill="#888888"/>
<path d="M7.5 21L7.5 1C7.5 0.723858 7.27614 0.500001 7 0.500001L1 0.5C0.72386 0.5 0.500002 0.723858 0.500002 1L0.5 21C0.5 21.2761 0.723858 21.5 1 21.5H7C7.27614 21.5 7.5 21.2761 7.5 21Z" fill="#CBFFBE"/>
<path d="M7.5 21H7H7.5ZM7.5 1L8 1L7.5 1ZM7 0.500001V1V0.500001ZM1 0.5L1 0L1 0.5ZM0.500002 1L1 1L0.500002 1ZM0.5 21H0H0.5ZM1 21.5L1 22H1V21.5ZM7 21.5V21V21.5ZM6.5 15H7V14H6.5V15ZM1.5 14H1V15H1.5V14ZM6.5 8H7V7H6.5V8ZM1.5 7H1L1 8H1.5V7ZM8 21L8 1L7 1L7 21H8ZM8 1C8 0.447715 7.55228 7.7486e-07 7 7.15256e-07V1H7L8 1ZM7 7.15256e-07L1 0L1 1L7 1V7.15256e-07ZM1 0C0.447717 -5.96046e-08 2.44379e-06 0.447717 2.38419e-06 1L1 1V1L1 0ZM2.38419e-06 1L0 21H1L1 1L2.38419e-06 1ZM0 21C-5.96046e-08 21.5523 0.447715 22 1 22L1 21H0ZM1 22H7V21H1V22ZM7 22C7.55228 22 8 21.5523 8 21H7V22ZM6.5 14H1.5V15H6.5V14ZM6.5 7L1.5 7V8L6.5 8V7Z" fill="#008013"/>
</svg>
