<svg width="16" height="16" viewBox="0 0 24 24" fill="none" xmlns="http://www.w3.org/2000/svg">
<path d="M17.5 14.5L1.5 14.5C0.947716 14.5 0.5 14.0523 0.5 13.5L0.5 9.5C0.5 8.94772 0.947716 8.5 1.5 8.5L17.5 8.5C18.0523 8.5 18.5 8.94772 18.5 9.5V13.5C18.5 14.0523 18.0523 14.5 17.5 14.5Z" fill="white"/>
<path d="M17.5 14.5V14V14.5ZM1.5 14.5V15V14.5ZM0.5 13.5H1H0.5ZM0.5 9.5H0H0.5ZM1.5 8.5V9V8.5ZM17.5 8.5V9V8.5ZM18.5 9.5H19V9.5L18.5 9.5ZM18.5 13.5H18H18.5ZM12 13.5V14H13V13.5H12ZM13 9.5V9H12V9.5H13ZM6 13.5V14H7V13.5H6ZM7 9.5V9L6 9V9.5L7 9.5ZM17.5 14L1.5 14V15L17.5 15V14ZM1.5 14C1.22386 14 1 13.7761 1 13.5H2.98023e-07C3.57628e-07 14.3284 0.671573 15 1.5 15V14ZM1 13.5L1 9.5H0L2.98023e-07 13.5H1ZM1 9.5C1 9.22386 1.22386 9 1.5 9V8C0.671573 8 -5.96046e-08 8.67157 0 9.5H1ZM1.5 9L17.5 9V8L1.5 8V9ZM17.5 9C17.7761 9 18 9.22386 18 9.5L19 9.5C19 8.67157 18.3284 8 17.5 8V9ZM18 9.5V13.5H19V9.5H18ZM18 13.5C18 13.7761 17.7761 14 17.5 14V15C18.3284 15 19 14.3284 19 13.5H18ZM13 13.5V9.5H12V13.5H13ZM7 13.5L7 9.5L6 9.5L6 13.5H7Z" fill="#616161"/>
<rect x="11.5" y="23.5" width="12" height="12" rx="1" transform="rotate(-90 11.5 23.5)" fill="#FF9D9A" stroke="#902622"/>
<path d="M20.1465 20.8536C20.3417 21.0488 20.6583 21.0488 20.8536 20.8536C21.0488 20.6583 21.0488 20.3417 20.8536 20.1464L20.1465 20.8536ZM14.8536 14.1464C14.6583 13.9512 14.3417 13.9512 14.1465 14.1464C13.9512 14.3417 13.9512 14.6583 14.1465 14.8536L14.8536 14.1464ZM14.1464 20.1464C13.9512 20.3417 13.9512 20.6583 14.1464 20.8536C14.3417 21.0488 14.6583 21.0488 14.8536 20.8536L14.1464 20.1464ZM20.8536 14.8536C21.0488 14.6583 21.0488 14.3417 20.8536 14.1464C20.6583 13.9512 20.3417 13.9512 20.1464 14.1464L20.8536 14.8536ZM20.8536 20.1464L14.8536 14.1464L14.1465 14.8536L20.1465 20.8536L20.8536 20.1464ZM14.8536 20.8536L20.8536 14.8536L20.1464 14.1464L14.1464 20.1464L14.8536 20.8536Z" fill="#610908"/>
</svg>
