<svg width="16" height="16" viewBox="0 0 24 24" fill="none" xmlns="http://www.w3.org/2000/svg">
<path d="M0.5 1L0.5 18C0.5 18.2761 0.723858 18.5 1 18.5L18 18.5C18.2761 18.5 18.5 18.2761 18.5 18L18.5 1C18.5 0.723858 18.2761 0.5 18 0.5L1 0.5C0.723858 0.5 0.5 0.723858 0.5 1Z" fill="white" stroke="#616161" stroke-linecap="round"/>
<path d="M6.5 17.5L6.5 1.5M12.5 17.5V12.5M12.5 12.5L12.5 6.5M12.5 12.5H17.5M12.5 12.5L1.5 12.5M12.5 6.5V1.5M12.5 6.5H17.5M12.5 6.5L1.5 6.5" stroke="#616161" stroke-linecap="square"/>
<path d="M21.5 15.5L18.5 12.5L20.5 10.5L23.5 13.5L21.5 15.5Z" fill="#FF9D9A" stroke="#902622" stroke-linejoin="round"/>
<path d="M21.5 15.5L13.5 23.5H10.5V20.5L18.5 12.5L21.5 15.5Z" fill="#FFE864" stroke="#674C06" stroke-linejoin="round"/>
</svg>
