<svg width="480" height="150" viewBox="0 0 480 150" fill="none" xmlns="http://www.w3.org/2000/svg">
<path d="M21.2007 49.2964C21.0952 50.1987 20.7612 50.896 20.1987 51.3882C19.6401 51.8765 18.896 52.1206 17.9663 52.1206C16.9585 52.1206 16.1499 51.7593 15.5405 51.0366C14.9351 50.314 14.6323 49.3472 14.6323 48.1362V47.3159C14.6323 46.5229 14.7729 45.8257 15.0542 45.2241C15.3394 44.6226 15.7417 44.1616 16.2612 43.8413C16.7808 43.5171 17.3823 43.355 18.0659 43.355C18.9722 43.355 19.6987 43.6089 20.2456 44.1167C20.7925 44.6206 21.1108 45.3198 21.2007 46.2144H20.0698C19.9722 45.5347 19.7593 45.0425 19.4312 44.7378C19.1069 44.4331 18.6519 44.2808 18.0659 44.2808C17.3472 44.2808 16.7827 44.5464 16.3726 45.0776C15.9663 45.6089 15.7632 46.3647 15.7632 47.3452V48.1714C15.7632 49.0972 15.9565 49.8335 16.3433 50.3804C16.73 50.9272 17.271 51.2007 17.9663 51.2007C18.5913 51.2007 19.0698 51.0601 19.4019 50.7788C19.7378 50.4937 19.9604 49.9995 20.0698 49.2964H21.2007ZM22.2847 48.7749C22.2847 48.1538 22.4058 47.5952 22.6479 47.0991C22.894 46.603 23.2339 46.2202 23.6675 45.9507C24.105 45.6812 24.603 45.5464 25.1616 45.5464C26.0249 45.5464 26.7222 45.8452 27.2534 46.4429C27.7886 47.0405 28.0562 47.8354 28.0562 48.8276V48.9038C28.0562 49.521 27.937 50.0757 27.6987 50.5679C27.4644 51.0562 27.1265 51.437 26.6851 51.7104C26.2476 51.9839 25.7437 52.1206 25.1733 52.1206C24.314 52.1206 23.6167 51.8218 23.0815 51.2241C22.5503 50.6265 22.2847 49.8354 22.2847 48.8511V48.7749ZM23.3745 48.9038C23.3745 49.6069 23.5366 50.1714 23.8608 50.5972C24.189 51.0229 24.6265 51.2358 25.1733 51.2358C25.7241 51.2358 26.1616 51.021 26.4858 50.5913C26.8101 50.1577 26.9722 49.5522 26.9722 48.7749C26.9722 48.0796 26.8062 47.5171 26.4741 47.0874C26.146 46.6538 25.7085 46.437 25.1616 46.437C24.6265 46.437 24.1948 46.6499 23.8667 47.0757C23.5386 47.5015 23.3745 48.1108 23.3745 48.9038ZM30.4351 45.6636L30.4644 46.3667C30.9292 45.8198 31.5562 45.5464 32.3452 45.5464C33.2319 45.5464 33.8354 45.8862 34.1558 46.5659C34.3667 46.2612 34.6401 46.0151 34.9761 45.8276C35.3159 45.6401 35.7163 45.5464 36.1772 45.5464C37.5679 45.5464 38.2749 46.2827 38.2983 47.7554V52.0034H37.2144V47.8198C37.2144 47.3667 37.1108 47.0288 36.9038 46.8062C36.6968 46.5796 36.3491 46.4663 35.8608 46.4663C35.4585 46.4663 35.1245 46.5874 34.8589 46.8296C34.5933 47.0679 34.439 47.3901 34.396 47.7964V52.0034H33.3062V47.8491C33.3062 46.9272 32.855 46.4663 31.9526 46.4663C31.2417 46.4663 30.7554 46.769 30.4937 47.3745V52.0034H29.4097V45.6636H30.4351ZM45.2944 48.9038C45.2944 49.8687 45.0737 50.646 44.6323 51.2358C44.1909 51.8257 43.5933 52.1206 42.8394 52.1206C42.0698 52.1206 41.4644 51.8765 41.0229 51.3882V54.4409H39.939V45.6636H40.9292L40.9819 46.3667C41.4233 45.8198 42.0366 45.5464 42.8218 45.5464C43.5835 45.5464 44.1851 45.8335 44.6265 46.4077C45.0718 46.9819 45.2944 47.7808 45.2944 48.8042V48.9038ZM44.2104 48.7808C44.2104 48.0659 44.0581 47.5015 43.7534 47.0874C43.4487 46.6733 43.0308 46.4663 42.4995 46.4663C41.8433 46.4663 41.3511 46.7573 41.0229 47.3394V50.3687C41.3472 50.9468 41.8433 51.2358 42.5112 51.2358C43.0308 51.2358 43.4429 51.0308 43.7476 50.6206C44.0562 50.2065 44.2104 49.5933 44.2104 48.7808ZM46.3901 48.7749C46.3901 48.1538 46.5112 47.5952 46.7534 47.0991C46.9995 46.603 47.3394 46.2202 47.7729 45.9507C48.2104 45.6812 48.7085 45.5464 49.2671 45.5464C50.1304 45.5464 50.8276 45.8452 51.3589 46.4429C51.894 47.0405 52.1616 47.8354 52.1616 48.8276V48.9038C52.1616 49.521 52.0425 50.0757 51.8042 50.5679C51.5698 51.0562 51.2319 51.437 50.7905 51.7104C50.353 51.9839 49.8491 52.1206 49.2788 52.1206C48.4194 52.1206 47.7222 51.8218 47.187 51.2241C46.6558 50.6265 46.3901 49.8354 46.3901 48.8511V48.7749ZM47.48 48.9038C47.48 49.6069 47.6421 50.1714 47.9663 50.5972C48.2944 51.0229 48.7319 51.2358 49.2788 51.2358C49.8296 51.2358 50.2671 51.021 50.5913 50.5913C50.9155 50.1577 51.0776 49.5522 51.0776 48.7749C51.0776 48.0796 50.9116 47.5171 50.5796 47.0874C50.2515 46.6538 49.814 46.437 49.2671 46.437C48.7319 46.437 48.3003 46.6499 47.9722 47.0757C47.644 47.5015 47.48 48.1108 47.48 48.9038ZM54.5464 45.6636L54.5815 46.4604C55.0659 45.8511 55.6987 45.5464 56.48 45.5464C57.8198 45.5464 58.4956 46.3022 58.5073 47.814V52.0034H57.4233V47.8081C57.4194 47.3511 57.314 47.0132 57.1069 46.7944C56.9038 46.5757 56.5854 46.4663 56.1519 46.4663C55.8003 46.4663 55.4917 46.5601 55.2261 46.7476C54.9604 46.9351 54.7534 47.1812 54.605 47.4858V52.0034H53.521V45.6636H54.5464ZM62.7729 52.1206C61.9136 52.1206 61.2144 51.8394 60.6753 51.2769C60.1362 50.7104 59.8667 49.9546 59.8667 49.0093V48.8101C59.8667 48.1812 59.9858 47.6206 60.2241 47.1284C60.4663 46.6323 60.8022 46.2456 61.2319 45.9683C61.6655 45.687 62.1343 45.5464 62.6382 45.5464C63.4624 45.5464 64.103 45.8179 64.5601 46.3608C65.0171 46.9038 65.2456 47.6812 65.2456 48.6929V49.144H60.9507C60.9663 49.769 61.1479 50.2749 61.4956 50.6616C61.8472 51.0444 62.2925 51.2358 62.8315 51.2358C63.2144 51.2358 63.5386 51.1577 63.8042 51.0015C64.0698 50.8452 64.3022 50.6382 64.5015 50.3804L65.1636 50.896C64.6323 51.7124 63.8354 52.1206 62.7729 52.1206ZM62.6382 46.437C62.2007 46.437 61.8335 46.5972 61.5366 46.9175C61.2397 47.2339 61.0562 47.6792 60.9858 48.2534H64.1616V48.1714C64.1304 47.6206 63.9819 47.1948 63.7163 46.894C63.4507 46.5894 63.0913 46.437 62.6382 46.437ZM67.5308 45.6636L67.5659 46.4604C68.0503 45.8511 68.6831 45.5464 69.4644 45.5464C70.8042 45.5464 71.48 46.3022 71.4917 47.814V52.0034H70.4077V47.8081C70.4038 47.3511 70.2983 47.0132 70.0913 46.7944C69.8882 46.5757 69.5698 46.4663 69.1362 46.4663C68.7847 46.4663 68.4761 46.5601 68.2104 46.7476C67.9448 46.9351 67.7378 47.1812 67.5894 47.4858V52.0034H66.5054V45.6636H67.5308ZM74.5972 44.1284V45.6636H75.7808V46.5015H74.5972V50.4331C74.5972 50.687 74.6499 50.8784 74.7554 51.0073C74.8608 51.1323 75.0405 51.1948 75.2944 51.1948C75.4194 51.1948 75.5913 51.1714 75.8101 51.1245V52.0034C75.5249 52.0815 75.2476 52.1206 74.978 52.1206C74.4937 52.1206 74.1284 51.9741 73.8823 51.6812C73.6362 51.3882 73.5132 50.9722 73.5132 50.4331V46.5015H72.3589V45.6636H73.5132V44.1284H74.5972Z" fill="black"/>
<rect x="13.9351" y="58.9998" width="130" height="32" rx="10" fill="#FBEEC2" stroke="#BB9595"/>
<path d="M53.5425 78.6643V73.7356C53.5425 73.5214 53.5334 73.3459 53.5151 73.2092C53.5015 73.0725 53.4764 72.9654 53.4399 72.8879C53.408 72.8059 53.3647 72.7489 53.3101 72.717C53.2599 72.6851 53.1961 72.6692 53.1187 72.6692C53.0275 72.6692 52.9432 72.6965 52.8657 72.7512C52.7882 72.8059 52.7039 72.8948 52.6128 73.0178C52.5262 73.1409 52.4282 73.3049 52.3188 73.51C52.214 73.7105 52.0887 73.9589 51.9429 74.2551V78.6643H50.856V73.8655C50.856 73.6148 50.8468 73.412 50.8286 73.2571C50.8149 73.1021 50.7899 72.9814 50.7534 72.8948C50.7215 72.8082 50.6782 72.7489 50.6235 72.717C50.5688 72.6851 50.5028 72.6692 50.4253 72.6692C50.3433 72.6692 50.2658 72.692 50.1929 72.7375C50.12 72.7831 50.0379 72.8652 49.9468 72.9836C49.8602 73.1021 49.7622 73.2639 49.6528 73.469C49.5435 73.6741 49.4136 73.9361 49.2632 74.2551V78.6643H48.1694V71.801H49.0786L49.1333 73.1067C49.2518 72.8469 49.3657 72.6259 49.4751 72.4436C49.589 72.2613 49.7052 72.1155 49.8237 72.0061C49.9422 71.8922 50.0675 71.8101 50.1997 71.76C50.3364 71.7053 50.4868 71.678 50.6509 71.678C51.02 71.678 51.3003 71.7987 51.4917 72.0403C51.6831 72.2818 51.7788 72.6555 51.7788 73.1614C51.8882 72.9244 51.9953 72.7148 52.1001 72.5325C52.2049 72.3456 52.3166 72.1907 52.4351 72.0676C52.5581 71.94 52.6925 71.8443 52.8384 71.7805C52.9842 71.7122 53.1528 71.678 53.3442 71.678C54.2056 71.678 54.6362 72.3411 54.6362 73.6672V78.6643H53.5425ZM62.4497 71.801L60.1118 77.9397C59.8703 78.564 59.6196 79.1018 59.3599 79.553C59.1047 80.0042 58.8244 80.3733 58.519 80.6604C58.2137 80.9521 57.8787 81.1663 57.5142 81.303C57.1496 81.4397 56.7417 81.5081 56.2905 81.5081C56.172 81.5081 56.0649 81.5058 55.9692 81.5012C55.8735 81.4967 55.7687 81.4898 55.6548 81.4807V80.4006C55.755 80.4143 55.8644 80.4257 55.9829 80.4348C56.1014 80.4485 56.2267 80.4553 56.3589 80.4553C56.5776 80.4553 56.7804 80.4234 56.9673 80.3596C57.1587 80.2958 57.3387 80.191 57.5073 80.0452C57.6759 79.9039 57.8377 79.7193 57.9927 79.4915C58.1476 79.2636 58.298 78.9879 58.4438 78.6643L55.7026 71.801H57.0562L58.7925 76.3401L59.1411 77.4065L59.5376 76.3127L61.144 71.801H62.4497ZM69.4019 78.6643H64.3228V69.7297H69.4019V70.7551H65.5396V73.5237H69.2515V74.5491H65.5396V77.6252H69.4019V78.6643ZM71.0972 71.801H72.4507L74.1323 76.3401L74.4946 77.4475L74.8706 76.3127L76.5386 71.801H77.8442L75.1509 78.6643H73.7837L71.0972 71.801ZM85.2339 74.8704C85.2339 75.039 85.2316 75.1803 85.2271 75.2942C85.2225 75.4081 85.2157 75.5152 85.2065 75.6155H80.3872C80.3872 76.3173 80.5832 76.8573 80.9751 77.2356C81.367 77.6093 81.9321 77.7961 82.6704 77.7961C82.8709 77.7961 83.0715 77.7893 83.272 77.7756C83.4725 77.7574 83.6662 77.7346 83.853 77.7073C84.0399 77.6799 84.2176 77.6503 84.3862 77.6184C84.5594 77.5819 84.7189 77.5432 84.8647 77.5022V78.4797C84.5412 78.5709 84.1743 78.6438 83.7642 78.6985C83.3586 78.7577 82.937 78.7874 82.4995 78.7874C81.9116 78.7874 81.4058 78.7076 80.9819 78.5481C80.5581 78.3886 80.2095 78.1584 79.936 77.8577C79.6672 77.5523 79.4666 77.1809 79.3345 76.7434C79.2069 76.3014 79.1431 75.8023 79.1431 75.2463C79.1431 74.7633 79.2114 74.3075 79.3481 73.8792C79.4894 73.4462 79.6922 73.068 79.9565 72.7444C80.2254 72.4163 80.5535 72.1565 80.9409 71.9651C81.3283 71.7737 81.7681 71.678 82.2603 71.678C82.7388 71.678 83.1626 71.7532 83.5317 71.9036C83.9009 72.054 84.2108 72.2681 84.4614 72.5461C84.7166 72.8196 84.908 73.1545 85.0356 73.551C85.1678 73.943 85.2339 74.3827 85.2339 74.8704ZM83.9966 74.6995C84.0103 74.3941 83.9806 74.1161 83.9077 73.8655C83.8348 73.6103 83.7209 73.3915 83.5659 73.2092C83.4155 73.0269 83.2264 72.8857 82.9985 72.7854C82.7707 72.6806 82.5063 72.6282 82.2056 72.6282C81.9458 72.6282 81.7088 72.6783 81.4946 72.7786C81.2804 72.8788 81.0959 73.0201 80.9409 73.2024C80.786 73.3847 80.6606 73.6034 80.5649 73.8586C80.4692 74.1139 80.41 74.3941 80.3872 74.6995H83.9966ZM87.1343 71.801H88.1938L88.2417 72.9084C88.4422 72.6715 88.6359 72.4755 88.8228 72.3206C89.0096 72.1611 89.1919 72.0334 89.3696 71.9377C89.5519 71.842 89.7365 71.776 89.9233 71.7395C90.1102 71.6985 90.3039 71.678 90.5044 71.678C91.2108 71.678 91.744 71.8876 92.104 72.3069C92.4686 72.7216 92.6509 73.3482 92.6509 74.1868V78.6643H91.4614V74.2825C91.4614 73.7447 91.3612 73.3482 91.1606 73.093C90.9601 72.8333 90.6616 72.7034 90.2651 72.7034C90.1193 72.7034 89.9757 72.7262 89.8345 72.7717C89.6978 72.8127 89.5542 72.8879 89.4038 72.9973C89.2534 73.1021 89.0894 73.2457 88.9116 73.428C88.7384 73.6103 88.5425 73.8381 88.3237 74.1116V78.6643H87.1343V71.801ZM100.362 78.5686C100.093 78.637 99.8149 78.6848 99.5278 78.7122C99.2407 78.7441 98.9491 78.76 98.6528 78.76C97.7915 78.76 97.1489 78.5663 96.7251 78.179C96.3013 77.787 96.0894 77.1877 96.0894 76.3811V72.7991H94.1685V71.801H96.0894V69.9143L97.2788 69.6067V71.801H100.362V72.7991H97.2788V76.2854C97.2788 76.7776 97.4087 77.1467 97.6685 77.3928C97.9328 77.6344 98.3201 77.7551 98.8306 77.7551C99.0493 77.7551 99.2886 77.7392 99.5483 77.7073C99.8081 77.6708 100.079 77.6161 100.362 77.5432V78.5686Z" fill="black"/>
<path d="M35.7738 78.8243L32.3196 78.8643L33.9324 74.5943H30.7576L33.4371 67.6643H40.5613L38.4406 71.6843H41.6281L39.3041 76.6643H42.8345L35.6214 83.6643L35.7738 78.8243Z" fill="#C1272D"/>
<path d="M40.9678 77.5041H37.6406L39.863 73.1241H36.5231L38.7581 68.7441H34.1102L32.0784 73.9941H35.4183L33.7293 78.1941L37.3485 78.1641L35.5072 82.7541L40.9678 77.5041Z" fill="url(#paint0_linear_88:336)"/>
<path opacity="0.5" d="M39.0123 68.6643H33.9326V69.6643H39.0123V68.6643Z" fill="white"/>
<path opacity="0.5" d="M40.2819 72.6643H36.4722V73.6643H40.2819V72.6643Z" fill="white"/>
<path opacity="0.5" d="M41.5519 77.6643H37.7422V78.6643H41.5519V77.6643Z" fill="white"/>
<path d="M310.086 76.0607C310.672 75.4749 310.672 74.5251 310.086 73.9393L300.54 64.3934C299.954 63.8076 299.005 63.8076 298.419 64.3934C297.833 64.9792 297.833 65.9289 298.419 66.5147L306.904 75L298.419 83.4853C297.833 84.0711 297.833 85.0208 298.419 85.6066C299.005 86.1924 299.954 86.1924 300.54 85.6066L310.086 76.0607ZM151.285 76.5H309.025V73.5H151.285V76.5Z" fill="black"/>
<path d="M154.567 53.0393H155.476L155.517 53.9885C155.688 53.7854 155.854 53.6174 156.015 53.4846C156.175 53.3479 156.331 53.2385 156.483 53.1565C156.64 53.0745 156.798 53.0178 156.958 52.9866C157.118 52.9514 157.284 52.9338 157.456 52.9338C158.062 52.9338 158.519 53.1135 158.827 53.4729C159.14 53.8284 159.296 54.3655 159.296 55.0842V58.9221H158.276V55.1663C158.276 54.7053 158.19 54.3655 158.019 54.1467C157.847 53.9241 157.591 53.8127 157.251 53.8127C157.126 53.8127 157.003 53.8323 156.882 53.8713C156.765 53.9065 156.642 53.9709 156.513 54.0647C156.384 54.1545 156.243 54.2776 156.091 54.4338C155.942 54.5901 155.774 54.7854 155.587 55.0198V58.9221H154.567V53.0393ZM166.286 55.9338C166.286 56.3909 166.222 56.8108 166.093 57.1936C165.964 57.5725 165.778 57.8987 165.536 58.1721C165.294 58.4417 164.999 58.6526 164.651 58.8049C164.304 58.9534 163.909 59.0276 163.468 59.0276C163.046 59.0276 162.667 58.9631 162.331 58.8342C161.999 58.7014 161.716 58.5081 161.481 58.2542C161.251 58.0002 161.073 57.6858 160.948 57.3108C160.827 56.9358 160.767 56.5042 160.767 56.0159C160.767 55.5588 160.831 55.1428 160.96 54.7678C161.089 54.3889 161.274 54.0647 161.517 53.7952C161.759 53.5217 162.054 53.3108 162.401 53.1624C162.749 53.01 163.144 52.9338 163.585 52.9338C164.007 52.9338 164.384 53.0002 164.716 53.1331C165.052 53.262 165.335 53.4534 165.565 53.7073C165.8 53.9573 165.978 54.2698 166.099 54.6448C166.224 55.0198 166.286 55.4495 166.286 55.9338ZM165.243 55.9807C165.243 55.6174 165.202 55.301 165.12 55.0315C165.042 54.7581 164.929 54.5315 164.78 54.3518C164.632 54.1682 164.45 54.0315 164.235 53.9417C164.024 53.8479 163.788 53.801 163.526 53.801C163.222 53.801 162.96 53.8616 162.741 53.9827C162.526 54.0999 162.349 54.2581 162.208 54.4573C162.071 54.6565 161.97 54.8889 161.903 55.1545C161.841 55.4163 161.81 55.6917 161.81 55.9807C161.81 56.344 161.849 56.6624 161.927 56.9358C162.009 57.2092 162.124 57.4377 162.272 57.6213C162.421 57.801 162.601 57.9377 162.812 58.0315C163.022 58.1213 163.261 58.1663 163.526 58.1663C163.831 58.1663 164.091 58.1077 164.306 57.9905C164.524 57.8694 164.702 57.7092 164.839 57.51C164.979 57.3108 165.081 57.0803 165.144 56.8186C165.21 56.553 165.243 56.2737 165.243 55.9807ZM172.503 58.8401C172.272 58.8987 172.034 58.9397 171.788 58.9631C171.542 58.9905 171.292 59.0042 171.038 59.0042C170.3 59.0042 169.749 58.8381 169.386 58.5061C169.022 58.1702 168.841 57.6565 168.841 56.9651V53.8948H167.194V53.0393H168.841V51.4221L169.86 51.1584V53.0393H172.503V53.8948H169.86V56.8831C169.86 57.3049 169.972 57.6213 170.194 57.8323C170.421 58.0393 170.753 58.1428 171.19 58.1428C171.378 58.1428 171.583 58.1292 171.806 58.1018C172.028 58.0706 172.261 58.0237 172.503 57.9612V58.8401ZM176.364 53.8831H174.624V53.0393H177.396V58.0725H179.147V58.9221H174.431V58.0725H176.364V53.8831ZM176.722 50.5725C176.835 50.5725 176.94 50.594 177.038 50.637C177.136 50.676 177.22 50.7327 177.29 50.8069C177.364 50.8811 177.421 50.967 177.46 51.0647C177.503 51.1584 177.524 51.262 177.524 51.3752C177.524 51.4846 177.503 51.5881 177.46 51.6858C177.421 51.7834 177.364 51.8694 177.29 51.9436C177.22 52.0178 177.136 52.0764 177.038 52.1194C176.94 52.1584 176.835 52.178 176.722 52.178C176.608 52.178 176.503 52.1584 176.405 52.1194C176.308 52.0764 176.222 52.0178 176.147 51.9436C176.077 51.8694 176.021 51.7834 175.978 51.6858C175.938 51.5881 175.919 51.4846 175.919 51.3752C175.919 51.262 175.938 51.1584 175.978 51.0647C176.021 50.967 176.077 50.8811 176.147 50.8069C176.222 50.7327 176.308 50.676 176.405 50.637C176.503 50.594 176.608 50.5725 176.722 50.5725ZM186.179 51.592C185.644 51.4788 185.183 51.4221 184.796 51.4221C183.878 51.4221 183.419 51.9026 183.419 52.8635V53.8948H185.997V54.7444H183.419V58.9221H182.382V54.7444H180.489V53.8948H182.382V52.9221C182.382 51.3557 183.198 50.5725 184.831 50.5725C185.237 50.5725 185.687 50.6194 186.179 50.7131V51.592ZM192.788 53.0393L190.784 58.301C190.577 58.8362 190.362 59.2971 190.14 59.6838C189.921 60.0706 189.681 60.387 189.419 60.6331C189.157 60.8831 188.87 61.0667 188.558 61.1838C188.245 61.301 187.896 61.3596 187.509 61.3596C187.407 61.3596 187.315 61.3577 187.233 61.3538C187.151 61.3499 187.062 61.344 186.964 61.3362V60.4104C187.05 60.4221 187.144 60.4319 187.245 60.4397C187.347 60.4514 187.454 60.4573 187.567 60.4573C187.755 60.4573 187.929 60.4299 188.089 60.3752C188.253 60.3206 188.407 60.2307 188.552 60.1057C188.696 59.9846 188.835 59.8264 188.968 59.6311C189.101 59.4358 189.229 59.1995 189.354 58.9221L187.005 53.0393H188.165L189.653 56.9299L189.952 57.844L190.292 56.9065L191.669 53.0393H192.788ZM197.675 61.3831C195.874 59.7151 194.974 57.8713 194.974 55.8518C194.974 55.3792 195.021 54.9084 195.114 54.4397C195.212 53.967 195.366 53.4944 195.577 53.0217C195.792 52.5491 196.073 52.0764 196.421 51.6038C196.772 51.1311 197.198 50.6624 197.698 50.1975L198.29 50.801C196.774 52.2971 196.017 53.9553 196.017 55.7756C196.017 56.6819 196.208 57.553 196.591 58.3889C196.974 59.2249 197.54 60.0139 198.29 60.7561L197.675 61.3831ZM205.321 58.7053C205.056 58.8069 204.782 58.8811 204.501 58.928C204.224 58.9788 203.937 59.0042 203.64 59.0042C202.71 59.0042 201.993 58.7522 201.489 58.2483C200.989 57.7444 200.739 57.0081 200.739 56.0393C200.739 55.5745 200.812 55.1526 200.956 54.7737C201.101 54.3948 201.304 54.0706 201.565 53.801C201.827 53.5315 202.14 53.3245 202.503 53.1799C202.866 53.0315 203.267 52.9573 203.704 52.9573C204.009 52.9573 204.294 52.9788 204.56 53.0217C204.825 53.0647 205.079 53.135 205.321 53.2327V54.2053C205.067 54.0725 204.808 53.9768 204.542 53.9182C204.28 53.8557 204.009 53.8245 203.728 53.8245C203.466 53.8245 203.218 53.8752 202.983 53.9768C202.753 54.0745 202.55 54.217 202.374 54.4045C202.198 54.592 202.06 54.8206 201.958 55.0901C201.856 55.3596 201.806 55.6643 201.806 56.0042C201.806 56.7151 201.978 57.2483 202.321 57.6038C202.669 57.9553 203.149 58.1311 203.763 58.1311C204.04 58.1311 204.308 58.0999 204.565 58.0374C204.827 57.9749 205.079 57.8811 205.321 57.7561V58.7053ZM212.47 55.9338C212.47 56.3909 212.405 56.8108 212.276 57.1936C212.147 57.5725 211.962 57.8987 211.72 58.1721C211.478 58.4417 211.183 58.6526 210.835 58.8049C210.487 58.9534 210.093 59.0276 209.651 59.0276C209.229 59.0276 208.851 58.9631 208.515 58.8342C208.183 58.7014 207.899 58.5081 207.665 58.2542C207.435 58.0002 207.257 57.6858 207.132 57.3108C207.011 56.9358 206.95 56.5042 206.95 56.0159C206.95 55.5588 207.015 55.1428 207.144 54.7678C207.272 54.3889 207.458 54.0647 207.7 53.7952C207.942 53.5217 208.237 53.3108 208.585 53.1624C208.933 53.01 209.327 52.9338 209.769 52.9338C210.19 52.9338 210.567 53.0002 210.899 53.1331C211.235 53.262 211.519 53.4534 211.749 53.7073C211.983 53.9573 212.161 54.2698 212.282 54.6448C212.407 55.0198 212.47 55.4495 212.47 55.9338ZM211.427 55.9807C211.427 55.6174 211.386 55.301 211.304 55.0315C211.226 54.7581 211.112 54.5315 210.964 54.3518C210.815 54.1682 210.634 54.0315 210.419 53.9417C210.208 53.8479 209.972 53.801 209.71 53.801C209.405 53.801 209.144 53.8616 208.925 53.9827C208.71 54.0999 208.532 54.2581 208.392 54.4573C208.255 54.6565 208.153 54.8889 208.087 55.1545C208.024 55.4163 207.993 55.6917 207.993 55.9807C207.993 56.344 208.032 56.6624 208.11 56.9358C208.192 57.2092 208.308 57.4377 208.456 57.6213C208.604 57.801 208.784 57.9377 208.995 58.0315C209.206 58.1213 209.444 58.1663 209.71 58.1663C210.015 58.1663 210.274 58.1077 210.489 57.9905C210.708 57.8694 210.886 57.7092 211.022 57.51C211.163 57.3108 211.265 57.0803 211.327 56.8186C211.394 56.553 211.427 56.2737 211.427 55.9807ZM218.142 58.9221V54.6975C218.142 54.5139 218.134 54.3635 218.118 54.2463C218.106 54.1292 218.085 54.0374 218.054 53.9709C218.026 53.9006 217.989 53.8518 217.942 53.8245C217.899 53.7971 217.845 53.7834 217.778 53.7834C217.7 53.7834 217.628 53.8069 217.562 53.8538C217.495 53.9006 217.423 53.9768 217.345 54.0823C217.271 54.1877 217.187 54.3284 217.093 54.5042C217.003 54.676 216.896 54.8889 216.771 55.1428V58.9221H215.839V54.8088C215.839 54.594 215.831 54.4202 215.815 54.2874C215.804 54.1545 215.782 54.051 215.751 53.9768C215.724 53.9026 215.687 53.8518 215.64 53.8245C215.593 53.7971 215.536 53.7834 215.47 53.7834C215.399 53.7834 215.333 53.803 215.271 53.842C215.208 53.8811 215.138 53.9514 215.06 54.053C214.985 54.1545 214.901 54.2932 214.808 54.469C214.714 54.6448 214.603 54.8694 214.474 55.1428V58.9221H213.536V53.0393H214.315L214.362 54.1584C214.464 53.9358 214.562 53.7463 214.655 53.5901C214.753 53.4338 214.853 53.3088 214.954 53.2151C215.056 53.1174 215.163 53.0471 215.276 53.0042C215.394 52.9573 215.522 52.9338 215.663 52.9338C215.979 52.9338 216.22 53.0374 216.384 53.2444C216.548 53.4514 216.63 53.7717 216.63 54.2053C216.724 54.0022 216.815 53.8225 216.905 53.6663C216.995 53.5061 217.091 53.3733 217.192 53.2678C217.298 53.1584 217.413 53.0764 217.538 53.0217C217.663 52.9631 217.808 52.9338 217.972 52.9338C218.71 52.9338 219.079 53.5022 219.079 54.6389V58.9221H218.142ZM225.571 55.8752C225.571 56.3987 225.497 56.8557 225.349 57.2463C225.204 57.637 225.003 57.9612 224.745 58.219C224.487 58.4768 224.183 58.6702 223.831 58.7991C223.479 58.928 223.099 58.9924 222.688 58.9924C222.501 58.9924 222.313 58.9827 222.126 58.9631C221.942 58.9436 221.755 58.9104 221.563 58.8635V61.3245H220.544V53.0393H221.452L221.517 54.0237C221.81 53.6213 222.122 53.3401 222.454 53.1799C222.786 53.0159 223.146 52.9338 223.532 52.9338C223.868 52.9338 224.163 53.0042 224.417 53.1448C224.671 53.2854 224.884 53.4846 225.056 53.7424C225.228 53.9963 225.356 54.3049 225.442 54.6682C225.528 55.0276 225.571 55.4299 225.571 55.8752ZM224.528 55.9221C224.528 55.6135 224.505 55.3303 224.458 55.0725C224.415 54.8147 224.345 54.594 224.247 54.4104C224.149 54.2268 224.024 54.0842 223.872 53.9827C223.72 53.8772 223.538 53.8245 223.327 53.8245C223.198 53.8245 223.067 53.8459 222.935 53.8889C222.802 53.928 222.663 53.9963 222.519 54.094C222.378 54.1877 222.228 54.3147 222.067 54.4749C221.911 54.6311 221.743 54.8264 221.563 55.0608V57.9143C221.751 57.9924 221.948 58.0549 222.155 58.1018C222.362 58.1448 222.565 58.1663 222.765 58.1663C223.315 58.1663 223.747 57.9807 224.06 57.6096C224.372 57.2346 224.528 56.6721 224.528 55.9221ZM227.599 60.1233C227.798 60.1311 227.991 60.1135 228.179 60.0706C228.366 60.0276 228.53 59.9631 228.671 59.8772C228.815 59.7952 228.931 59.6917 229.017 59.5667C229.103 59.4417 229.146 59.2991 229.146 59.1389C229.146 58.9749 229.116 58.842 229.058 58.7405C229.003 58.6389 228.94 58.5452 228.87 58.4592C228.8 58.3733 228.735 58.2815 228.677 58.1838C228.622 58.0862 228.595 57.9553 228.595 57.7913C228.595 57.7092 228.61 57.6233 228.642 57.5334C228.673 57.4436 228.72 57.3616 228.782 57.2874C228.849 57.2131 228.931 57.1526 229.028 57.1057C229.13 57.0588 229.249 57.0354 229.386 57.0354C229.522 57.0354 229.653 57.0647 229.778 57.1233C229.907 57.178 230.019 57.2639 230.112 57.3811C230.21 57.4983 230.286 57.6448 230.341 57.8206C230.399 57.9963 230.429 58.2034 230.429 58.4417C230.429 58.7659 230.368 59.0764 230.247 59.3733C230.13 59.6741 229.952 59.9397 229.714 60.1702C229.479 60.4006 229.185 60.5842 228.829 60.7209C228.478 60.8577 228.067 60.926 227.599 60.926V60.1233ZM300.917 50.1975C302.718 51.8655 303.618 53.7209 303.618 55.7639C303.618 56.1858 303.575 56.6233 303.489 57.0764C303.403 57.5295 303.257 57.9944 303.05 58.4709C302.843 58.9436 302.563 59.4241 302.212 59.9124C301.864 60.4006 301.425 60.8909 300.894 61.3831L300.302 60.7795C301.063 60.0256 301.632 59.2385 302.007 58.4182C302.382 57.5979 302.569 56.7385 302.569 55.8401C302.569 53.9807 301.813 52.3088 300.302 50.8245L300.917 50.1975Z" fill="black"/>
<path d="M243.372 50.6428L243.202 53.3909H242.194L242.03 50.6428H243.372Z" fill="#BA0EF6"/>
<path d="M251.13 58.9221V54.6975C251.13 54.5139 251.122 54.3635 251.106 54.2463C251.095 54.1292 251.073 54.0374 251.042 53.9709C251.015 53.9006 250.978 53.8518 250.931 53.8245C250.888 53.7971 250.833 53.7834 250.767 53.7834C250.688 53.7834 250.616 53.8069 250.55 53.8538C250.483 53.9006 250.411 53.9768 250.333 54.0823C250.259 54.1877 250.175 54.3284 250.081 54.5042C249.991 54.676 249.884 54.8889 249.759 55.1428V58.9221H248.827V54.8088C248.827 54.594 248.819 54.4202 248.804 54.2874C248.792 54.1545 248.771 54.051 248.739 53.9768C248.712 53.9026 248.675 53.8518 248.628 53.8245C248.581 53.7971 248.524 53.7834 248.458 53.7834C248.388 53.7834 248.321 53.803 248.259 53.842C248.196 53.8811 248.126 53.9514 248.048 54.053C247.974 54.1545 247.89 54.2932 247.796 54.469C247.702 54.6448 247.591 54.8694 247.462 55.1428V58.9221H246.524V53.0393H247.304L247.351 54.1584C247.452 53.9358 247.55 53.7463 247.644 53.5901C247.741 53.4338 247.841 53.3088 247.942 53.2151C248.044 53.1174 248.151 53.0471 248.265 53.0042C248.382 52.9573 248.511 52.9338 248.651 52.9338C248.968 52.9338 249.208 53.0374 249.372 53.2444C249.536 53.4514 249.618 53.7717 249.618 54.2053C249.712 54.0022 249.804 53.8225 249.894 53.6663C249.983 53.5061 250.079 53.3733 250.181 53.2678C250.286 53.1584 250.401 53.0764 250.526 53.0217C250.651 52.9631 250.796 52.9338 250.96 52.9338C251.698 52.9338 252.067 53.5022 252.067 54.6389V58.9221H251.13ZM258.765 53.0393L256.761 58.301C256.554 58.8362 256.339 59.2971 256.116 59.6838C255.897 60.0706 255.657 60.387 255.396 60.6331C255.134 60.8831 254.847 61.0667 254.534 61.1838C254.222 61.301 253.872 61.3596 253.485 61.3596C253.384 61.3596 253.292 61.3577 253.21 61.3538C253.128 61.3499 253.038 61.344 252.94 61.3362V60.4104C253.026 60.4221 253.12 60.4319 253.222 60.4397C253.323 60.4514 253.431 60.4573 253.544 60.4573C253.731 60.4573 253.905 60.4299 254.065 60.3752C254.229 60.3206 254.384 60.2307 254.528 60.1057C254.673 59.9846 254.812 59.8264 254.944 59.6311C255.077 59.4358 255.206 59.1995 255.331 58.9221L252.981 53.0393H254.142L255.63 56.9299L255.929 57.844L256.269 56.9065L257.646 53.0393H258.765ZM264.724 58.9221H260.37V51.2639H264.724V52.1428H261.413V54.5159H264.595V55.3948H261.413V58.0315H264.724V58.9221ZM266.177 53.0393H267.337L268.778 56.9299L269.089 57.8792L269.411 56.9065L270.841 53.0393H271.96L269.651 58.9221H268.479L266.177 53.0393ZM278.294 55.6702C278.294 55.8147 278.292 55.9358 278.288 56.0334C278.284 56.1311 278.278 56.2229 278.271 56.3088H274.14C274.14 56.9104 274.308 57.3733 274.644 57.6975C274.979 58.0178 275.464 58.178 276.097 58.178C276.269 58.178 276.44 58.1721 276.612 58.1604C276.784 58.1448 276.95 58.1252 277.11 58.1018C277.271 58.0784 277.423 58.053 277.567 58.0256C277.716 57.9944 277.853 57.9612 277.978 57.926V58.7639C277.7 58.842 277.386 58.9045 277.034 58.9514C276.687 59.0022 276.325 59.0276 275.95 59.0276C275.446 59.0276 275.013 58.9592 274.649 58.8225C274.286 58.6858 273.987 58.4885 273.753 58.2307C273.522 57.969 273.351 57.6506 273.237 57.2756C273.128 56.8967 273.073 56.469 273.073 55.9924C273.073 55.5784 273.132 55.1877 273.249 54.8206C273.37 54.4495 273.544 54.1252 273.771 53.8479C274.001 53.5667 274.282 53.344 274.614 53.1799C274.946 53.0159 275.323 52.9338 275.745 52.9338C276.155 52.9338 276.519 52.9983 276.835 53.1272C277.151 53.2561 277.417 53.4397 277.632 53.678C277.851 53.9124 278.015 54.1995 278.124 54.5393C278.237 54.8752 278.294 55.2522 278.294 55.6702ZM277.233 55.5237C277.245 55.262 277.22 55.0237 277.157 54.8088C277.095 54.5901 276.997 54.4026 276.864 54.2463C276.735 54.0901 276.573 53.969 276.378 53.8831C276.183 53.7932 275.956 53.7483 275.698 53.7483C275.476 53.7483 275.272 53.7913 275.089 53.8772C274.905 53.9631 274.747 54.0842 274.614 54.2405C274.481 54.3967 274.374 54.5842 274.292 54.803C274.21 55.0217 274.159 55.262 274.14 55.5237H277.233ZM279.923 53.0393H280.831L280.872 53.9885C281.044 53.7854 281.21 53.6174 281.37 53.4846C281.53 53.3479 281.687 53.2385 281.839 53.1565C281.995 53.0745 282.153 53.0178 282.313 52.9866C282.474 52.9514 282.64 52.9338 282.812 52.9338C283.417 52.9338 283.874 53.1135 284.183 53.4729C284.495 53.8284 284.651 54.3655 284.651 55.0842V58.9221H283.632V55.1663C283.632 54.7053 283.546 54.3655 283.374 54.1467C283.202 53.9241 282.946 53.8127 282.606 53.8127C282.481 53.8127 282.358 53.8323 282.237 53.8713C282.12 53.9065 281.997 53.9709 281.868 54.0647C281.739 54.1545 281.599 54.2776 281.446 54.4338C281.298 54.5901 281.13 54.7854 280.942 55.0198V58.9221H279.923V53.0393ZM291.261 58.8401C291.03 58.8987 290.792 58.9397 290.546 58.9631C290.3 58.9905 290.05 59.0042 289.796 59.0042C289.058 59.0042 288.507 58.8381 288.144 58.5061C287.78 58.1702 287.599 57.6565 287.599 56.9651V53.8948H285.952V53.0393H287.599V51.4221L288.618 51.1584V53.0393H291.261V53.8948H288.618V56.8831C288.618 57.3049 288.729 57.6213 288.952 57.8323C289.179 58.0393 289.511 58.1428 289.948 58.1428C290.136 58.1428 290.341 58.1292 290.563 58.1018C290.786 58.0706 291.019 58.0237 291.261 57.9612V58.8401ZM296.153 50.6428L295.983 53.3909H294.976L294.812 50.6428H296.153Z" fill="#BA0EF7"/>
<rect x="317.875" y="27.1853" width="149.189" height="95.6293" fill="#E3E3E3" stroke="#616161" stroke-width="3"/>
<rect x="317.875" y="27.1853" width="149.189" height="19.2854" fill="#79ABCA" stroke="#616161" stroke-width="3"/>
<rect x="327.47" y="62.9221" width="130" height="32" rx="10" fill="#FBEEC2" stroke="#BB9595"/>
<path d="M373.65 81.5864V76.6577C373.65 76.4435 373.641 76.2681 373.623 76.1313C373.609 75.9946 373.584 75.8875 373.548 75.8101C373.516 75.728 373.473 75.6711 373.418 75.6392C373.368 75.6073 373.304 75.5913 373.227 75.5913C373.135 75.5913 373.051 75.6187 372.974 75.6733C372.896 75.728 372.812 75.8169 372.721 75.9399C372.634 76.063 372.536 76.2271 372.427 76.4321C372.322 76.6326 372.197 76.881 372.051 77.1772V81.5864H370.964V76.7876C370.964 76.5369 370.955 76.3341 370.937 76.1792C370.923 76.0243 370.898 75.9035 370.861 75.8169C370.829 75.7303 370.786 75.6711 370.731 75.6392C370.677 75.6073 370.611 75.5913 370.533 75.5913C370.451 75.5913 370.374 75.6141 370.301 75.6597C370.228 75.7052 370.146 75.7873 370.055 75.9058C369.968 76.0243 369.87 76.186 369.761 76.3911C369.651 76.5962 369.521 76.8582 369.371 77.1772V81.5864H368.277V74.7231H369.187L369.241 76.0288C369.36 75.769 369.474 75.548 369.583 75.3657C369.697 75.1834 369.813 75.0376 369.932 74.9282C370.05 74.8143 370.175 74.7323 370.308 74.6821C370.444 74.6274 370.595 74.6001 370.759 74.6001C371.128 74.6001 371.408 74.7209 371.6 74.9624C371.791 75.2039 371.887 75.5776 371.887 76.0835C371.996 75.8465 372.103 75.6369 372.208 75.4546C372.313 75.2677 372.424 75.1128 372.543 74.9897C372.666 74.8621 372.8 74.7664 372.946 74.7026C373.092 74.6343 373.261 74.6001 373.452 74.6001C374.313 74.6001 374.744 75.2632 374.744 76.5894V81.5864H373.65ZM382.558 74.7231L380.22 80.8618C379.978 81.4862 379.728 82.0239 379.468 82.4751C379.213 82.9263 378.932 83.2954 378.627 83.5825C378.322 83.8742 377.987 84.0884 377.622 84.2251C377.257 84.3618 376.85 84.4302 376.398 84.4302C376.28 84.4302 376.173 84.4279 376.077 84.4233C375.981 84.4188 375.877 84.4119 375.763 84.4028V83.3228C375.863 83.3364 375.972 83.3478 376.091 83.3569C376.209 83.3706 376.335 83.3774 376.467 83.3774C376.686 83.3774 376.888 83.3455 377.075 83.2817C377.267 83.2179 377.447 83.1131 377.615 82.9673C377.784 82.826 377.946 82.6414 378.101 82.4136C378.256 82.1857 378.406 81.91 378.552 81.5864L375.811 74.7231H377.164L378.9 79.2622L379.249 80.3286L379.646 79.2349L381.252 74.7231H382.558ZM389.51 81.5864H384.431V72.6519H389.51V73.6772H385.647V76.4458H389.359V77.4712H385.647V80.5474H389.51V81.5864ZM391.205 74.7231H392.559L394.24 79.2622L394.603 80.3696L394.979 79.2349L396.646 74.7231H397.952L395.259 81.5864H393.892L391.205 74.7231ZM405.342 77.7925C405.342 77.9611 405.34 78.1024 405.335 78.2163C405.33 78.3302 405.324 78.4373 405.314 78.5376H400.495C400.495 79.2394 400.691 79.7795 401.083 80.1577C401.475 80.5314 402.04 80.7183 402.778 80.7183C402.979 80.7183 403.179 80.7114 403.38 80.6978C403.58 80.6795 403.774 80.6567 403.961 80.6294C404.148 80.6021 404.326 80.5724 404.494 80.5405C404.667 80.5041 404.827 80.4653 404.973 80.4243V81.4019C404.649 81.493 404.282 81.5659 403.872 81.6206C403.466 81.6799 403.045 81.7095 402.607 81.7095C402.02 81.7095 401.514 81.6297 401.09 81.4702C400.666 81.3107 400.317 81.0806 400.044 80.7798C399.775 80.4744 399.575 80.103 399.442 79.6655C399.315 79.2235 399.251 78.7244 399.251 78.1685C399.251 77.6854 399.319 77.2297 399.456 76.8013C399.597 76.3683 399.8 75.9901 400.064 75.6665C400.333 75.3384 400.661 75.0786 401.049 74.8872C401.436 74.6958 401.876 74.6001 402.368 74.6001C402.847 74.6001 403.271 74.6753 403.64 74.8257C404.009 74.9761 404.319 75.1903 404.569 75.4683C404.825 75.7417 405.016 76.0767 405.144 76.4731C405.276 76.8651 405.342 77.3049 405.342 77.7925ZM404.104 77.6216C404.118 77.3162 404.089 77.0382 404.016 76.7876C403.943 76.5324 403.829 76.3136 403.674 76.1313C403.523 75.9491 403.334 75.8078 403.106 75.7075C402.879 75.6027 402.614 75.5503 402.313 75.5503C402.054 75.5503 401.817 75.6004 401.603 75.7007C401.388 75.8009 401.204 75.9422 401.049 76.1245C400.894 76.3068 400.769 76.5256 400.673 76.7808C400.577 77.036 400.518 77.3162 400.495 77.6216H404.104ZM407.242 74.7231H408.302L408.35 75.8306C408.55 75.5936 408.744 75.3976 408.931 75.2427C409.118 75.0832 409.3 74.9556 409.478 74.8599C409.66 74.7642 409.844 74.6981 410.031 74.6616C410.218 74.6206 410.412 74.6001 410.612 74.6001C411.319 74.6001 411.852 74.8097 412.212 75.229C412.576 75.6437 412.759 76.2703 412.759 77.1089V81.5864H411.569V77.2046C411.569 76.6668 411.469 76.2703 411.269 76.0151C411.068 75.7554 410.77 75.6255 410.373 75.6255C410.227 75.6255 410.084 75.6483 409.942 75.6938C409.806 75.7349 409.662 75.8101 409.512 75.9194C409.361 76.0243 409.197 76.1678 409.02 76.3501C408.846 76.5324 408.65 76.7603 408.432 77.0337V81.5864H407.242V74.7231ZM420.47 81.4907C420.201 81.5591 419.923 81.6069 419.636 81.6343C419.349 81.6662 419.057 81.6821 418.761 81.6821C417.899 81.6821 417.257 81.4884 416.833 81.1011C416.409 80.7091 416.197 80.1099 416.197 79.3032V75.7212H414.276V74.7231H416.197V72.8364L417.387 72.5288V74.7231H420.47V75.7212H417.387V79.2075C417.387 79.6997 417.517 80.0688 417.776 80.3149C418.041 80.5565 418.428 80.6772 418.938 80.6772C419.157 80.6772 419.396 80.6613 419.656 80.6294C419.916 80.5929 420.187 80.5382 420.47 80.4653V81.4907ZM427.982 73.6909H424.188V76.5894H427.784V77.6079H424.188V81.5864H422.944V72.6519H427.982V73.6909ZM435.666 81.3335C435.356 81.452 435.037 81.5386 434.709 81.5933C434.385 81.6525 434.05 81.6821 433.704 81.6821C432.619 81.6821 431.783 81.3882 431.195 80.8003C430.612 80.2124 430.32 79.3534 430.32 78.2231C430.32 77.6808 430.405 77.1886 430.573 76.7466C430.742 76.3045 430.979 75.9263 431.284 75.6118C431.59 75.2974 431.954 75.0558 432.378 74.8872C432.802 74.714 433.269 74.6274 433.779 74.6274C434.135 74.6274 434.467 74.6525 434.777 74.7026C435.087 74.7528 435.383 74.8348 435.666 74.9487V76.0835C435.37 75.9285 435.067 75.8169 434.757 75.7485C434.451 75.6756 434.135 75.6392 433.807 75.6392C433.501 75.6392 433.212 75.6984 432.938 75.8169C432.67 75.9308 432.433 76.0972 432.228 76.3159C432.022 76.5347 431.861 76.8013 431.742 77.1157C431.624 77.4302 431.564 77.7856 431.564 78.1821C431.564 79.0116 431.765 79.6336 432.166 80.0483C432.572 80.4585 433.132 80.6636 433.848 80.6636C434.171 80.6636 434.483 80.6271 434.784 80.5542C435.09 80.4813 435.383 80.3719 435.666 80.2261V81.3335ZM438.031 74.7231H439.091L439.139 75.8306C439.339 75.5936 439.533 75.3976 439.72 75.2427C439.907 75.0832 440.089 74.9556 440.267 74.8599C440.449 74.7642 440.633 74.6981 440.82 74.6616C441.007 74.6206 441.201 74.6001 441.401 74.6001C442.108 74.6001 442.641 74.8097 443.001 75.229C443.366 75.6437 443.548 76.2703 443.548 77.1089V81.5864H442.358V77.2046C442.358 76.6668 442.258 76.2703 442.058 76.0151C441.857 75.7554 441.559 75.6255 441.162 75.6255C441.016 75.6255 440.873 75.6483 440.731 75.6938C440.595 75.7349 440.451 75.8101 440.301 75.9194C440.15 76.0243 439.986 76.1678 439.809 76.3501C439.635 76.5324 439.439 76.7603 439.221 77.0337V81.5864H438.031V74.7231Z" fill="black"/>
<path d="M352.323 70.2478H348.617C344.012 70.2478 340.278 73.9812 340.278 78.5866C340.278 83.192 344.012 86.9253 348.617 86.9253H352.323C356.929 86.9253 360.662 83.192 360.662 78.5866C360.662 73.9812 356.929 70.2478 352.323 70.2478Z" fill="#5F7EC2"/>
<path style="mix-blend-mode:overlay" d="M352.323 70.2478H348.617C344.012 70.2478 340.278 73.9812 340.278 78.5866C340.278 83.192 344.012 86.9253 348.617 86.9253H352.323C356.929 86.9253 360.662 83.192 360.662 78.5866C360.662 73.9812 356.929 70.2478 352.323 70.2478Z" fill="url(#paint1_linear_88:336)"/>
<g style="mix-blend-mode:overlay" opacity="0.5">
<g style="mix-blend-mode:overlay" opacity="0.5">
<path d="M352.323 71.1743C354.289 71.1743 356.174 71.9553 357.564 73.3453C358.955 74.7354 359.735 76.6207 359.735 78.5866C359.735 80.5524 358.955 82.4378 357.564 83.8278C356.174 85.2179 354.289 85.9988 352.323 85.9988H348.617C346.651 85.9988 344.766 85.2179 343.376 83.8278C341.986 82.4378 341.205 80.5524 341.205 78.5866C341.205 76.6207 341.986 74.7354 343.376 73.3453C344.766 71.9553 346.651 71.1743 348.617 71.1743H352.323ZM352.323 70.2478C352.323 70.2478 352.323 70.2478 352.323 70.2478H348.617C346.406 70.2478 344.285 71.1263 342.721 72.6902C341.157 74.254 340.278 76.375 340.278 78.5866C340.278 78.5866 340.278 78.5866 340.278 78.5866V78.5866C340.278 78.5866 340.278 78.5866 340.278 78.5866C340.278 80.7982 341.157 82.9192 342.721 84.483C344.285 86.0468 346.406 86.9253 348.617 86.9253H352.323C354.535 86.9253 356.656 86.0468 358.22 84.483C359.783 82.9192 360.662 80.7982 360.662 78.5866L-nan -nanL-nan -nanL360.662 78.5866C360.662 76.375 359.783 74.254 358.22 72.6902C356.656 71.1263 354.535 70.2478 352.323 70.2478C352.323 70.2478 352.323 70.2478 352.323 70.2478V70.2478Z" fill="#231F20"/>
</g>
</g>
<path d="M347.691 80.9028V76.2702C347.691 76.0143 347.483 75.8069 347.227 75.8069C346.972 75.8069 346.764 76.0143 346.764 76.2701V80.9028C346.764 81.1587 346.972 81.3661 347.227 81.3661C347.483 81.3661 347.691 81.1587 347.691 80.9028Z" fill="white"/>
<path d="M351.86 74.8804H348.154C347.898 74.8804 347.69 75.0878 347.69 75.3436C347.69 75.5995 347.898 75.8069 348.154 75.8069H351.86C352.116 75.8069 352.323 75.5995 352.323 75.3436C352.323 75.0878 352.116 74.8804 351.86 74.8804Z" fill="white"/>
<path d="M351.86 81.3662H348.154C347.898 81.3662 347.69 81.5736 347.69 81.8295C347.69 82.0853 347.898 82.2927 348.154 82.2927H351.86C352.116 82.2927 352.323 82.0853 352.323 81.8295C352.323 81.5736 352.116 81.3662 351.86 81.3662Z" fill="white"/>
<g style="mix-blend-mode:multiply" opacity="0.15">
<g style="mix-blend-mode:multiply" opacity="0.15">
<path d="M348.617 80.9028V76.2702C348.617 76.0143 348.41 75.8069 348.154 75.8069C347.898 75.8069 347.69 76.0143 347.69 76.2701V80.9028C347.69 81.1587 347.898 81.3661 348.154 81.3661C348.41 81.3661 348.617 81.1587 348.617 80.9028Z" fill="black"/>
</g>
<g style="mix-blend-mode:multiply" opacity="0.15">
<path d="M352.786 74.8804H349.08C348.824 74.8804 348.617 75.0878 348.617 75.3436C348.617 75.5995 348.824 75.8069 349.08 75.8069H352.786C353.042 75.8069 353.25 75.5995 353.25 75.3436C353.25 75.0878 353.042 74.8804 352.786 74.8804Z" fill="black"/>
</g>
<g style="mix-blend-mode:multiply" opacity="0.15">
<path d="M352.786 81.3662H349.08C348.824 81.3662 348.617 81.5736 348.617 81.8295C348.617 82.0853 348.824 82.2927 349.08 82.2927H352.786C353.042 82.2927 353.25 82.0853 353.25 81.8295C353.25 81.5736 353.042 81.3662 352.786 81.3662Z" fill="black"/>
</g>
<g style="mix-blend-mode:multiply" opacity="0.15">
<path d="M353.25 80.903C353.25 81.1588 353.457 81.3662 353.713 81.3662C353.969 81.3662 354.176 81.1588 354.176 80.903C354.176 80.6471 353.969 80.4397 353.713 80.4397C353.457 80.4397 353.25 80.6471 353.25 80.903Z" fill="black"/>
</g>
<g style="mix-blend-mode:multiply" opacity="0.15">
<path d="M353.25 76.2701C353.25 76.526 353.457 76.7334 353.713 76.7334C353.969 76.7334 354.176 76.526 354.176 76.2701C354.176 76.0143 353.969 75.8069 353.713 75.8069C353.457 75.8069 353.25 76.0143 353.25 76.2701Z" fill="black"/>
</g>
</g>
<path d="M352.323 80.903C352.323 81.1588 352.531 81.3662 352.787 81.3662C353.042 81.3662 353.25 81.1588 353.25 80.903C353.25 80.6471 353.042 80.4397 352.787 80.4397C352.531 80.4397 352.323 80.6471 352.323 80.903Z" fill="white"/>
<path d="M352.323 76.2704C352.323 76.5262 352.531 76.7337 352.787 76.7337C353.042 76.7337 353.25 76.5262 353.25 76.2704C353.25 76.0145 353.042 75.8071 352.787 75.8071C352.531 75.8071 352.323 76.0145 352.323 76.2704Z" fill="white"/>
<path d="M330.604 37.863H328.036L327.548 39.3279H325.99L328.637 32.2185H329.994L332.655 39.3279H331.098L330.604 37.863ZM328.432 36.6765H330.209L329.315 34.0154L328.432 36.6765ZM337.748 36.7351C337.748 37.5489 337.562 38.2016 337.191 38.6931C336.824 39.1814 336.326 39.4255 335.697 39.4255C335.163 39.4255 334.732 39.24 334.403 38.8689V41.3591H332.992V34.0447H334.301L334.35 34.5623C334.691 34.1521 335.137 33.947 335.688 33.947C336.339 33.947 336.845 34.1879 337.206 34.6697C337.567 35.1514 337.748 35.8155 337.748 36.6619V36.7351ZM336.337 36.6326C336.337 36.141 336.249 35.7618 336.073 35.4949C335.901 35.2279 335.648 35.0945 335.316 35.0945C334.874 35.0945 334.569 35.2638 334.403 35.6023V37.7654C334.576 38.1137 334.883 38.2878 335.326 38.2878C336 38.2878 336.337 37.7361 336.337 36.6326ZM343.383 36.7351C343.383 37.5489 343.197 38.2016 342.826 38.6931C342.458 39.1814 341.96 39.4255 341.332 39.4255C340.798 39.4255 340.367 39.24 340.038 38.8689V41.3591H338.627V34.0447H339.936L339.984 34.5623C340.326 34.1521 340.772 33.947 341.322 33.947C341.973 33.947 342.479 34.1879 342.841 34.6697C343.202 35.1514 343.383 35.8155 343.383 36.6619V36.7351ZM341.972 36.6326C341.972 36.141 341.884 35.7618 341.708 35.4949C341.535 35.2279 341.283 35.0945 340.951 35.0945C340.508 35.0945 340.204 35.2638 340.038 35.6023V37.7654C340.211 38.1137 340.518 38.2878 340.961 38.2878C341.635 38.2878 341.972 37.7361 341.972 36.6326Z" fill="black"/>
<defs>
<linearGradient id="paint0_linear_88:336" x1="36.5231" y1="70.2941" x2="36.5231" y2="78.3541" gradientUnits="userSpaceOnUse">
<stop stop-color="#FCD721"/>
<stop offset="1" stop-color="#FBB03B"/>
</linearGradient>
<linearGradient id="paint1_linear_88:336" x1="343.651" y1="71.7673" x2="357.289" y2="85.4058" gradientUnits="userSpaceOnUse">
<stop offset="0.28" stop-color="#999999"/>
<stop offset="0.85" stop-color="#4D4D4D"/>
</linearGradient>
</defs>
</svg>
