<svg width="300" height="200" viewBox="0 0 300 200" fill="none" xmlns="http://www.w3.org/2000/svg">
<rect x="21.0449" y="14.8252" width="100" height="22" rx="5" fill="#FBEEC2" stroke="#BB9595"/>
<path d="M42.8472 28.6066L40.532 28.6333L41.613 25.7841H39.4851L41.2811 21.1599H46.056L44.6346 23.8423H46.771L45.2134 27.1653H47.5796L42.745 31.8362L42.8472 28.6066Z" fill="#C1272D"/>
<path d="M46.3285 27.7259H44.0984L45.588 24.8032H43.3494L44.8475 21.8806H41.7322L40.3704 25.3838H42.6089L41.4769 28.1863L43.9027 28.1663L42.6685 31.229L46.3285 27.7259Z" fill="url(#paint0_linear_89:615)"/>
<path opacity="0.5" d="M45.0174 21.8271H41.6128V22.4944H45.0174V21.8271Z" fill="white"/>
<path opacity="0.5" d="M45.8687 24.4963H43.3152V25.1636H45.8687V24.4963Z" fill="white"/>
<path opacity="0.5" d="M46.7197 27.8328H44.1663V28.5H46.7197V27.8328Z" fill="white"/>
<path d="M56.2725 29.8142V25.5896C56.2725 25.406 56.2646 25.2556 56.249 25.1384C56.2373 25.0212 56.2158 24.9294 56.1846 24.863C56.1572 24.7927 56.1201 24.7439 56.0732 24.7166C56.0303 24.6892 55.9756 24.6755 55.9092 24.6755C55.8311 24.6755 55.7588 24.699 55.6924 24.7458C55.626 24.7927 55.5537 24.8689 55.4756 24.9744C55.4014 25.0798 55.3174 25.2205 55.2236 25.3962C55.1338 25.5681 55.0264 25.781 54.9014 26.0349V29.8142H53.9697V25.7009C53.9697 25.4861 53.9619 25.3123 53.9463 25.1794C53.9346 25.0466 53.9131 24.9431 53.8818 24.8689C53.8545 24.7947 53.8174 24.7439 53.7705 24.7166C53.7236 24.6892 53.667 24.6755 53.6006 24.6755C53.5303 24.6755 53.4639 24.6951 53.4014 24.7341C53.3389 24.7732 53.2686 24.8435 53.1904 24.9451C53.1162 25.0466 53.0322 25.1853 52.9385 25.3611C52.8447 25.5369 52.7334 25.7615 52.6045 26.0349V29.8142H51.667V23.9314H52.4463L52.4932 25.0505C52.5947 24.8279 52.6924 24.6384 52.7861 24.4822C52.8838 24.3259 52.9834 24.2009 53.085 24.1072C53.1865 24.0095 53.2939 23.9392 53.4072 23.8962C53.5244 23.8494 53.6533 23.8259 53.7939 23.8259C54.1104 23.8259 54.3506 23.9294 54.5146 24.1365C54.6787 24.3435 54.7607 24.6638 54.7607 25.0974C54.8545 24.8943 54.9463 24.7146 55.0361 24.5583C55.126 24.3982 55.2217 24.2654 55.3232 24.1599C55.4287 24.0505 55.5439 23.9685 55.6689 23.9138C55.7939 23.8552 55.9385 23.8259 56.1025 23.8259C56.8408 23.8259 57.21 24.3943 57.21 25.531V29.8142H56.2725ZM63.9072 23.9314L61.9033 29.1931C61.6963 29.7283 61.4814 30.1892 61.2588 30.5759C61.04 30.9626 60.7998 31.2791 60.5381 31.5251C60.2764 31.7751 59.9893 31.9587 59.6768 32.0759C59.3643 32.1931 59.0146 32.2517 58.6279 32.2517C58.5264 32.2517 58.4346 32.2498 58.3525 32.2458C58.2705 32.2419 58.1807 32.2361 58.083 32.2283V31.3025C58.1689 31.3142 58.2627 31.324 58.3643 31.3318C58.4658 31.3435 58.5732 31.3494 58.6865 31.3494C58.874 31.3494 59.0479 31.322 59.208 31.2673C59.3721 31.2126 59.5264 31.1228 59.6709 30.9978C59.8154 30.8767 59.9541 30.7185 60.0869 30.5232C60.2197 30.3279 60.3486 30.0916 60.4736 29.8142L58.124 23.9314H59.2842L60.7725 27.822L61.0713 28.7361L61.4111 27.7986L62.7881 23.9314H63.9072ZM69.8662 29.8142H65.5127V22.156H69.8662V23.0349H66.5557V25.408H69.7373V26.2869H66.5557V28.9236H69.8662V29.8142ZM71.3193 23.9314H72.4795L73.9209 27.822L74.2314 28.7712L74.5537 27.7986L75.9834 23.9314H77.1025L74.7939 29.8142H73.6221L71.3193 23.9314ZM83.4365 26.5623C83.4365 26.7068 83.4346 26.8279 83.4307 26.9255C83.4268 27.0232 83.4209 27.115 83.4131 27.2009H79.2822C79.2822 27.8025 79.4502 28.2654 79.7861 28.5896C80.1221 28.9099 80.6064 29.0701 81.2393 29.0701C81.4111 29.0701 81.583 29.0642 81.7549 29.0525C81.9268 29.0369 82.0928 29.0173 82.2529 28.9939C82.4131 28.9705 82.5654 28.9451 82.71 28.9177C82.8584 28.8865 82.9951 28.8533 83.1201 28.8181V29.656C82.8428 29.7341 82.5283 29.7966 82.1768 29.8435C81.8291 29.8943 81.4678 29.9197 81.0928 29.9197C80.5889 29.9197 80.1553 29.8513 79.792 29.7146C79.4287 29.5779 79.1299 29.3806 78.8955 29.1228C78.665 28.8611 78.4932 28.5427 78.3799 28.1677C78.2705 27.7888 78.2158 27.3611 78.2158 26.8845C78.2158 26.4705 78.2744 26.0798 78.3916 25.7126C78.5127 25.3416 78.6865 25.0173 78.9131 24.74C79.1436 24.4587 79.4248 24.2361 79.7568 24.072C80.0889 23.908 80.4658 23.8259 80.8877 23.8259C81.2979 23.8259 81.6611 23.8904 81.9775 24.0193C82.2939 24.1482 82.5596 24.3318 82.7744 24.5701C82.9932 24.8044 83.1572 25.0916 83.2666 25.4314C83.3799 25.7673 83.4365 26.1443 83.4365 26.5623ZM82.376 26.4158C82.3877 26.1541 82.3623 25.9158 82.2998 25.7009C82.2373 25.4822 82.1396 25.2947 82.0068 25.1384C81.8779 24.9822 81.7158 24.8611 81.5205 24.7751C81.3252 24.6853 81.0986 24.6404 80.8408 24.6404C80.6182 24.6404 80.415 24.6833 80.2314 24.7693C80.0479 24.8552 79.8896 24.9763 79.7568 25.1326C79.624 25.2888 79.5166 25.4763 79.4346 25.6951C79.3525 25.9138 79.3018 26.1541 79.2822 26.4158H82.376ZM85.0654 23.9314H85.9736L86.0146 24.8806C86.1865 24.6775 86.3525 24.5095 86.5127 24.3767C86.6729 24.24 86.8291 24.1306 86.9814 24.0486C87.1377 23.9666 87.2959 23.9099 87.4561 23.8787C87.6162 23.8435 87.7822 23.8259 87.9541 23.8259C88.5596 23.8259 89.0166 24.0056 89.3252 24.365C89.6377 24.7205 89.7939 25.2576 89.7939 25.9763V29.8142H88.7744V26.0583C88.7744 25.5974 88.6885 25.2576 88.5166 25.0388C88.3447 24.8162 88.0889 24.7048 87.749 24.7048C87.624 24.7048 87.501 24.7244 87.3799 24.7634C87.2627 24.7986 87.1396 24.863 87.0107 24.9568C86.8818 25.0466 86.7412 25.1697 86.5889 25.3259C86.4404 25.4822 86.2725 25.6775 86.085 25.9119V29.8142H85.0654V23.9314ZM96.4033 29.7322C96.1729 29.7908 95.9346 29.8318 95.6885 29.8552C95.4424 29.8826 95.1924 29.8962 94.9385 29.8962C94.2002 29.8962 93.6494 29.7302 93.2861 29.3982C92.9229 29.0623 92.7412 28.5486 92.7412 27.8572V24.7869H91.0947V23.9314H92.7412V22.3142L93.7607 22.0505V23.9314H96.4033V24.7869H93.7607V27.7751C93.7607 28.197 93.8721 28.5134 94.0947 28.7244C94.3213 28.9314 94.6533 29.0349 95.0908 29.0349C95.2783 29.0349 95.4834 29.0212 95.7061 28.9939C95.9287 28.9626 96.1611 28.9158 96.4033 28.8533V29.7322Z" fill="black"/>
<path d="M159.606 158.529C160.192 157.944 160.192 156.994 159.606 156.408L150.06 146.862C149.474 146.276 148.525 146.276 147.939 146.862C147.353 147.448 147.353 148.398 147.939 148.983L156.424 157.469L147.939 165.954C147.353 166.54 147.353 167.49 147.939 168.075C148.525 168.661 149.474 168.661 150.06 168.075L159.606 158.529ZM71.0449 158.969L158.545 158.969L158.545 155.969L71.0449 155.969L71.0449 158.969Z" fill="black"/>
<path d="M71.0449 36.8252L71.0449 158.875" stroke="black" stroke-width="3"/>
<path d="M85.9824 79.4045H86.8906L86.9316 80.3538C87.1035 80.1506 87.2695 79.9827 87.4297 79.8499C87.5898 79.7131 87.7461 79.6038 87.8984 79.5217C88.0547 79.4397 88.2129 79.3831 88.373 79.3518C88.5332 79.3167 88.6992 79.2991 88.8711 79.2991C89.4766 79.2991 89.9336 79.4788 90.2422 79.8381C90.5547 80.1936 90.7109 80.7307 90.7109 81.4495V85.2874H89.6914V81.5315C89.6914 81.0706 89.6055 80.7307 89.4336 80.512C89.2617 80.2893 89.0059 80.178 88.666 80.178C88.541 80.178 88.418 80.1975 88.2969 80.2366C88.1797 80.2717 88.0566 80.3362 87.9277 80.4299C87.7988 80.5198 87.6582 80.6428 87.5059 80.7991C87.3574 80.9553 87.1895 81.1506 87.002 81.385V85.2874H85.9824V79.4045ZM97.7012 82.2991C97.7012 82.7561 97.6367 83.176 97.5078 83.5588C97.3789 83.9377 97.1934 84.2639 96.9512 84.5374C96.709 84.8069 96.4141 85.0178 96.0664 85.1702C95.7188 85.3186 95.3242 85.3928 94.8828 85.3928C94.4609 85.3928 94.082 85.3284 93.7461 85.1995C93.4141 85.0667 93.1309 84.8733 92.8965 84.6194C92.666 84.3655 92.4883 84.051 92.3633 83.676C92.2422 83.301 92.1816 82.8694 92.1816 82.3811C92.1816 81.9241 92.2461 81.5081 92.375 81.1331C92.5039 80.7542 92.6895 80.4299 92.9316 80.1604C93.1738 79.887 93.4688 79.676 93.8164 79.5276C94.1641 79.3752 94.5586 79.2991 95 79.2991C95.4219 79.2991 95.7988 79.3655 96.1309 79.4983C96.4668 79.6272 96.75 79.8186 96.9805 80.0725C97.2148 80.3225 97.3926 80.635 97.5137 81.01C97.6387 81.385 97.7012 81.8147 97.7012 82.2991ZM96.6582 82.3459C96.6582 81.9827 96.6172 81.6663 96.5352 81.3967C96.457 81.1233 96.3438 80.8967 96.1953 80.717C96.0469 80.5334 95.8652 80.3967 95.6504 80.3069C95.4395 80.2131 95.2031 80.1663 94.9414 80.1663C94.6367 80.1663 94.375 80.2268 94.1562 80.3479C93.9414 80.4651 93.7637 80.6233 93.623 80.8225C93.4863 81.0217 93.3848 81.2542 93.3184 81.5198C93.2559 81.7815 93.2246 82.0569 93.2246 82.3459C93.2246 82.7092 93.2637 83.0276 93.3418 83.301C93.4238 83.5745 93.5391 83.803 93.6875 83.9866C93.8359 84.1663 94.0156 84.303 94.2266 84.3967C94.4375 84.4866 94.6758 84.5315 94.9414 84.5315C95.2461 84.5315 95.5059 84.4729 95.7207 84.3557C95.9395 84.2346 96.1172 84.0745 96.2539 83.8752C96.3945 83.676 96.4961 83.4456 96.5586 83.1838C96.625 82.9182 96.6582 82.6389 96.6582 82.3459ZM103.918 85.2053C103.688 85.2639 103.449 85.3049 103.203 85.3284C102.957 85.3557 102.707 85.3694 102.453 85.3694C101.715 85.3694 101.164 85.2034 100.801 84.8713C100.438 84.5354 100.256 84.0217 100.256 83.3303V80.26H98.6094V79.4045H100.256V77.7874L101.275 77.5237V79.4045H103.918V80.26H101.275V83.2483C101.275 83.6702 101.387 83.9866 101.609 84.1975C101.836 84.4045 102.168 84.5081 102.605 84.5081C102.793 84.5081 102.998 84.4944 103.221 84.467C103.443 84.4358 103.676 84.3889 103.918 84.3264V85.2053ZM107.779 80.2483H106.039V79.4045H108.811V84.4377H110.562V85.2874H105.846V84.4377H107.779V80.2483ZM108.137 76.9377C108.25 76.9377 108.355 76.9592 108.453 77.0022C108.551 77.0413 108.635 77.0979 108.705 77.1721C108.779 77.2463 108.836 77.3323 108.875 77.4299C108.918 77.5237 108.939 77.6272 108.939 77.7405C108.939 77.8499 108.918 77.9534 108.875 78.051C108.836 78.1487 108.779 78.2346 108.705 78.3088C108.635 78.3831 108.551 78.4417 108.453 78.4846C108.355 78.5237 108.25 78.5432 108.137 78.5432C108.023 78.5432 107.918 78.5237 107.82 78.4846C107.723 78.4417 107.637 78.3831 107.562 78.3088C107.492 78.2346 107.436 78.1487 107.393 78.051C107.354 77.9534 107.334 77.8499 107.334 77.7405C107.334 77.6272 107.354 77.5237 107.393 77.4299C107.436 77.3323 107.492 77.2463 107.562 77.1721C107.637 77.0979 107.723 77.0413 107.82 77.0022C107.918 76.9592 108.023 76.9377 108.137 76.9377ZM117.594 77.9573C117.059 77.844 116.598 77.7874 116.211 77.7874C115.293 77.7874 114.834 78.2678 114.834 79.2288V80.26H117.412V81.1096H114.834V85.2874H113.797V81.1096H111.904V80.26H113.797V79.2874C113.797 77.7209 114.613 76.9377 116.246 76.9377C116.652 76.9377 117.102 76.9846 117.594 77.0784V77.9573ZM124.203 79.4045L122.199 84.6663C121.992 85.2014 121.777 85.6624 121.555 86.0491C121.336 86.4358 121.096 86.7522 120.834 86.9983C120.572 87.2483 120.285 87.4319 119.973 87.5491C119.66 87.6663 119.311 87.7249 118.924 87.7249C118.822 87.7249 118.73 87.7229 118.648 87.719C118.566 87.7151 118.477 87.7092 118.379 87.7014V86.7756C118.465 86.7874 118.559 86.7971 118.66 86.8049C118.762 86.8167 118.869 86.8225 118.982 86.8225C119.17 86.8225 119.344 86.7952 119.504 86.7405C119.668 86.6858 119.822 86.5959 119.967 86.4709C120.111 86.3499 120.25 86.1917 120.383 85.9963C120.516 85.801 120.645 85.5647 120.77 85.2874L118.42 79.4045H119.58L121.068 83.2952L121.367 84.2092L121.707 83.2717L123.084 79.4045H124.203ZM129.09 87.7483C127.289 86.0803 126.389 84.2366 126.389 82.217C126.389 81.7444 126.436 81.2737 126.529 80.8049C126.627 80.3323 126.781 79.8596 126.992 79.387C127.207 78.9143 127.488 78.4417 127.836 77.969C128.188 77.4963 128.613 77.0276 129.113 76.5627L129.705 77.1663C128.189 78.6624 127.432 80.3206 127.432 82.1409C127.432 83.0471 127.623 83.9182 128.006 84.7542C128.389 85.5901 128.955 86.3792 129.705 87.1213L129.09 87.7483ZM136.736 85.0706C136.471 85.1721 136.197 85.2463 135.916 85.2932C135.639 85.344 135.352 85.3694 135.055 85.3694C134.125 85.3694 133.408 85.1174 132.904 84.6135C132.404 84.1096 132.154 83.3733 132.154 82.4045C132.154 81.9397 132.227 81.5178 132.371 81.1389C132.516 80.76 132.719 80.4358 132.98 80.1663C133.242 79.8967 133.555 79.6897 133.918 79.5452C134.281 79.3967 134.682 79.3225 135.119 79.3225C135.424 79.3225 135.709 79.344 135.975 79.387C136.24 79.4299 136.494 79.5002 136.736 79.5979V80.5706C136.482 80.4377 136.223 80.342 135.957 80.2834C135.695 80.2209 135.424 80.1897 135.143 80.1897C134.881 80.1897 134.633 80.2405 134.398 80.342C134.168 80.4397 133.965 80.5823 133.789 80.7698C133.613 80.9573 133.475 81.1858 133.373 81.4553C133.271 81.7249 133.221 82.0295 133.221 82.3694C133.221 83.0803 133.393 83.6135 133.736 83.969C134.084 84.3206 134.564 84.4963 135.178 84.4963C135.455 84.4963 135.723 84.4651 135.98 84.4026C136.242 84.3401 136.494 84.2463 136.736 84.1213V85.0706ZM143.885 82.2991C143.885 82.7561 143.82 83.176 143.691 83.5588C143.562 83.9377 143.377 84.2639 143.135 84.5374C142.893 84.8069 142.598 85.0178 142.25 85.1702C141.902 85.3186 141.508 85.3928 141.066 85.3928C140.645 85.3928 140.266 85.3284 139.93 85.1995C139.598 85.0667 139.314 84.8733 139.08 84.6194C138.85 84.3655 138.672 84.051 138.547 83.676C138.426 83.301 138.365 82.8694 138.365 82.3811C138.365 81.9241 138.43 81.5081 138.559 81.1331C138.688 80.7542 138.873 80.4299 139.115 80.1604C139.357 79.887 139.652 79.676 140 79.5276C140.348 79.3752 140.742 79.2991 141.184 79.2991C141.605 79.2991 141.982 79.3655 142.314 79.4983C142.65 79.6272 142.934 79.8186 143.164 80.0725C143.398 80.3225 143.576 80.635 143.697 81.01C143.822 81.385 143.885 81.8147 143.885 82.2991ZM142.842 82.3459C142.842 81.9827 142.801 81.6663 142.719 81.3967C142.641 81.1233 142.527 80.8967 142.379 80.717C142.23 80.5334 142.049 80.3967 141.834 80.3069C141.623 80.2131 141.387 80.1663 141.125 80.1663C140.82 80.1663 140.559 80.2268 140.34 80.3479C140.125 80.4651 139.947 80.6233 139.807 80.8225C139.67 81.0217 139.568 81.2542 139.502 81.5198C139.439 81.7815 139.408 82.0569 139.408 82.3459C139.408 82.7092 139.447 83.0276 139.525 83.301C139.607 83.5745 139.723 83.803 139.871 83.9866C140.02 84.1663 140.199 84.303 140.41 84.3967C140.621 84.4866 140.859 84.5315 141.125 84.5315C141.43 84.5315 141.689 84.4729 141.904 84.3557C142.123 84.2346 142.301 84.0745 142.438 83.8752C142.578 83.676 142.68 83.4456 142.742 83.1838C142.809 82.9182 142.842 82.6389 142.842 82.3459ZM149.557 85.2874V81.0627C149.557 80.8792 149.549 80.7288 149.533 80.6116C149.521 80.4944 149.5 80.4026 149.469 80.3362C149.441 80.2659 149.404 80.217 149.357 80.1897C149.314 80.1624 149.26 80.1487 149.193 80.1487C149.115 80.1487 149.043 80.1721 148.977 80.219C148.91 80.2659 148.838 80.342 148.76 80.4475C148.686 80.553 148.602 80.6936 148.508 80.8694C148.418 81.0413 148.311 81.2542 148.186 81.5081V85.2874H147.254V81.1741C147.254 80.9592 147.246 80.7854 147.23 80.6526C147.219 80.5198 147.197 80.4163 147.166 80.342C147.139 80.2678 147.102 80.217 147.055 80.1897C147.008 80.1624 146.951 80.1487 146.885 80.1487C146.814 80.1487 146.748 80.1682 146.686 80.2073C146.623 80.2463 146.553 80.3167 146.475 80.4182C146.4 80.5198 146.316 80.6584 146.223 80.8342C146.129 81.01 146.018 81.2346 145.889 81.5081V85.2874H144.951V79.4045H145.73L145.777 80.5237C145.879 80.301 145.977 80.1116 146.07 79.9553C146.168 79.7991 146.268 79.6741 146.369 79.5803C146.471 79.4827 146.578 79.4124 146.691 79.3694C146.809 79.3225 146.938 79.2991 147.078 79.2991C147.395 79.2991 147.635 79.4026 147.799 79.6096C147.963 79.8167 148.045 80.137 148.045 80.5706C148.139 80.3674 148.23 80.1877 148.32 80.0315C148.41 79.8713 148.506 79.7385 148.607 79.6331C148.713 79.5237 148.828 79.4417 148.953 79.387C149.078 79.3284 149.223 79.2991 149.387 79.2991C150.125 79.2991 150.494 79.8674 150.494 81.0042V85.2874H149.557ZM156.986 82.2405C156.986 82.7639 156.912 83.2209 156.764 83.6116C156.619 84.0022 156.418 84.3264 156.16 84.5842C155.902 84.842 155.598 85.0354 155.246 85.1643C154.895 85.2932 154.514 85.3577 154.104 85.3577C153.916 85.3577 153.729 85.3479 153.541 85.3284C153.357 85.3088 153.17 85.2756 152.979 85.2288V87.6897H151.959V79.4045H152.867L152.932 80.3889C153.225 79.9866 153.537 79.7053 153.869 79.5452C154.201 79.3811 154.561 79.2991 154.947 79.2991C155.283 79.2991 155.578 79.3694 155.832 79.51C156.086 79.6506 156.299 79.8499 156.471 80.1077C156.643 80.3616 156.771 80.6702 156.857 81.0334C156.943 81.3928 156.986 81.7952 156.986 82.2405ZM155.943 82.2874C155.943 81.9788 155.92 81.6956 155.873 81.4377C155.83 81.1799 155.76 80.9592 155.662 80.7756C155.564 80.592 155.439 80.4495 155.287 80.3479C155.135 80.2424 154.953 80.1897 154.742 80.1897C154.613 80.1897 154.482 80.2112 154.35 80.2542C154.217 80.2932 154.078 80.3616 153.934 80.4592C153.793 80.553 153.643 80.6799 153.482 80.8401C153.326 80.9963 153.158 81.1917 152.979 81.426V84.2795C153.166 84.3577 153.363 84.4202 153.57 84.467C153.777 84.51 153.98 84.5315 154.18 84.5315C154.73 84.5315 155.162 84.3459 155.475 83.9749C155.787 83.5999 155.943 83.0374 155.943 82.2874ZM159.014 86.4885C159.213 86.4963 159.406 86.4788 159.594 86.4358C159.781 86.3928 159.945 86.3284 160.086 86.2424C160.23 86.1604 160.346 86.0569 160.432 85.9319C160.518 85.8069 160.561 85.6643 160.561 85.5042C160.561 85.3401 160.531 85.2073 160.473 85.1057C160.418 85.0042 160.355 84.9104 160.285 84.8245C160.215 84.7385 160.15 84.6467 160.092 84.5491C160.037 84.4514 160.01 84.3206 160.01 84.1565C160.01 84.0745 160.025 83.9885 160.057 83.8987C160.088 83.8088 160.135 83.7268 160.197 83.6526C160.264 83.5784 160.346 83.5178 160.443 83.4709C160.545 83.4241 160.664 83.4006 160.801 83.4006C160.938 83.4006 161.068 83.4299 161.193 83.4885C161.322 83.5432 161.434 83.6292 161.527 83.7463C161.625 83.8635 161.701 84.01 161.756 84.1858C161.814 84.3616 161.844 84.5686 161.844 84.8069C161.844 85.1311 161.783 85.4417 161.662 85.7385C161.545 86.0393 161.367 86.3049 161.129 86.5354C160.895 86.7659 160.6 86.9495 160.244 87.0862C159.893 87.2229 159.482 87.2913 159.014 87.2913V86.4885ZM232.332 76.5627C234.133 78.2307 235.033 80.0862 235.033 82.1292C235.033 82.551 234.99 82.9885 234.904 83.4417C234.818 83.8948 234.672 84.3596 234.465 84.8362C234.258 85.3088 233.979 85.7893 233.627 86.2776C233.279 86.7659 232.84 87.2561 232.309 87.7483L231.717 87.1448C232.479 86.3909 233.047 85.6038 233.422 84.7834C233.797 83.9631 233.984 83.1038 233.984 82.2053C233.984 80.3459 233.229 78.6741 231.717 77.1897L232.332 76.5627Z" fill="black"/>
<path d="M174.787 77.0081L174.617 79.7561H173.609L173.445 77.0081H174.787Z" fill="#BA0EF6"/>
<path d="M182.545 85.2874V81.0627C182.545 80.8792 182.537 80.7288 182.521 80.6116C182.51 80.4944 182.488 80.4026 182.457 80.3362C182.43 80.2659 182.393 80.217 182.346 80.1897C182.303 80.1624 182.248 80.1487 182.182 80.1487C182.104 80.1487 182.031 80.1721 181.965 80.219C181.898 80.2659 181.826 80.342 181.748 80.4475C181.674 80.553 181.59 80.6936 181.496 80.8694C181.406 81.0413 181.299 81.2542 181.174 81.5081V85.2874H180.242V81.1741C180.242 80.9592 180.234 80.7854 180.219 80.6526C180.207 80.5198 180.186 80.4163 180.154 80.342C180.127 80.2678 180.09 80.217 180.043 80.1897C179.996 80.1624 179.939 80.1487 179.873 80.1487C179.803 80.1487 179.736 80.1682 179.674 80.2073C179.611 80.2463 179.541 80.3167 179.463 80.4182C179.389 80.5198 179.305 80.6584 179.211 80.8342C179.117 81.01 179.006 81.2346 178.877 81.5081V85.2874H177.939V79.4045H178.719L178.766 80.5237C178.867 80.301 178.965 80.1116 179.059 79.9553C179.156 79.7991 179.256 79.6741 179.357 79.5803C179.459 79.4827 179.566 79.4124 179.68 79.3694C179.797 79.3225 179.926 79.2991 180.066 79.2991C180.383 79.2991 180.623 79.4026 180.787 79.6096C180.951 79.8167 181.033 80.137 181.033 80.5706C181.127 80.3674 181.219 80.1877 181.309 80.0315C181.398 79.8713 181.494 79.7385 181.596 79.6331C181.701 79.5237 181.816 79.4417 181.941 79.387C182.066 79.3284 182.211 79.2991 182.375 79.2991C183.113 79.2991 183.482 79.8674 183.482 81.0042V85.2874H182.545ZM190.18 79.4045L188.176 84.6663C187.969 85.2014 187.754 85.6624 187.531 86.0491C187.312 86.4358 187.072 86.7522 186.811 86.9983C186.549 87.2483 186.262 87.4319 185.949 87.5491C185.637 87.6663 185.287 87.7249 184.9 87.7249C184.799 87.7249 184.707 87.7229 184.625 87.719C184.543 87.7151 184.453 87.7092 184.355 87.7014V86.7756C184.441 86.7874 184.535 86.7971 184.637 86.8049C184.738 86.8167 184.846 86.8225 184.959 86.8225C185.146 86.8225 185.32 86.7952 185.48 86.7405C185.645 86.6858 185.799 86.5959 185.943 86.4709C186.088 86.3499 186.227 86.1917 186.359 85.9963C186.492 85.801 186.621 85.5647 186.746 85.2874L184.396 79.4045H185.557L187.045 83.2952L187.344 84.2092L187.684 83.2717L189.061 79.4045H190.18ZM196.139 85.2874H191.785V77.6292H196.139V78.5081H192.828V80.8811H196.01V81.76H192.828V84.3967H196.139V85.2874ZM197.592 79.4045H198.752L200.193 83.2952L200.504 84.2444L200.826 83.2717L202.256 79.4045H203.375L201.066 85.2874H199.895L197.592 79.4045ZM209.709 82.0354C209.709 82.1799 209.707 82.301 209.703 82.3987C209.699 82.4963 209.693 82.5881 209.686 82.6741H205.555C205.555 83.2756 205.723 83.7385 206.059 84.0627C206.395 84.3831 206.879 84.5432 207.512 84.5432C207.684 84.5432 207.855 84.5374 208.027 84.5256C208.199 84.51 208.365 84.4905 208.525 84.467C208.686 84.4436 208.838 84.4182 208.982 84.3909C209.131 84.3596 209.268 84.3264 209.393 84.2913V85.1292C209.115 85.2073 208.801 85.2698 208.449 85.3167C208.102 85.3674 207.74 85.3928 207.365 85.3928C206.861 85.3928 206.428 85.3245 206.064 85.1877C205.701 85.051 205.402 84.8538 205.168 84.5959C204.938 84.3342 204.766 84.0159 204.652 83.6409C204.543 83.262 204.488 82.8342 204.488 82.3577C204.488 81.9436 204.547 81.553 204.664 81.1858C204.785 80.8147 204.959 80.4905 205.186 80.2131C205.416 79.9319 205.697 79.7092 206.029 79.5452C206.361 79.3811 206.738 79.2991 207.16 79.2991C207.57 79.2991 207.934 79.3635 208.25 79.4924C208.566 79.6213 208.832 79.8049 209.047 80.0432C209.266 80.2776 209.43 80.5647 209.539 80.9045C209.652 81.2405 209.709 81.6174 209.709 82.0354ZM208.648 81.8889C208.66 81.6272 208.635 81.3889 208.572 81.1741C208.51 80.9553 208.412 80.7678 208.279 80.6116C208.15 80.4553 207.988 80.3342 207.793 80.2483C207.598 80.1584 207.371 80.1135 207.113 80.1135C206.891 80.1135 206.688 80.1565 206.504 80.2424C206.32 80.3284 206.162 80.4495 206.029 80.6057C205.896 80.762 205.789 80.9495 205.707 81.1682C205.625 81.387 205.574 81.6272 205.555 81.8889H208.648ZM211.338 79.4045H212.246L212.287 80.3538C212.459 80.1506 212.625 79.9827 212.785 79.8499C212.945 79.7131 213.102 79.6038 213.254 79.5217C213.41 79.4397 213.568 79.3831 213.729 79.3518C213.889 79.3167 214.055 79.2991 214.227 79.2991C214.832 79.2991 215.289 79.4788 215.598 79.8381C215.91 80.1936 216.066 80.7307 216.066 81.4495V85.2874H215.047V81.5315C215.047 81.0706 214.961 80.7307 214.789 80.512C214.617 80.2893 214.361 80.178 214.021 80.178C213.896 80.178 213.773 80.1975 213.652 80.2366C213.535 80.2717 213.412 80.3362 213.283 80.4299C213.154 80.5198 213.014 80.6428 212.861 80.7991C212.713 80.9553 212.545 81.1506 212.357 81.385V85.2874H211.338V79.4045ZM222.676 85.2053C222.445 85.2639 222.207 85.3049 221.961 85.3284C221.715 85.3557 221.465 85.3694 221.211 85.3694C220.473 85.3694 219.922 85.2034 219.559 84.8713C219.195 84.5354 219.014 84.0217 219.014 83.3303V80.26H217.367V79.4045H219.014V77.7874L220.033 77.5237V79.4045H222.676V80.26H220.033V83.2483C220.033 83.6702 220.145 83.9866 220.367 84.1975C220.594 84.4045 220.926 84.5081 221.363 84.5081C221.551 84.5081 221.756 84.4944 221.979 84.467C222.201 84.4358 222.434 84.3889 222.676 84.3264V85.2053ZM227.568 77.0081L227.398 79.7561H226.391L226.227 77.0081H227.568Z" fill="#BA0EF7"/>
<rect x="166.295" y="116.226" width="111.16" height="67.4495" fill="#E3E3E3" stroke="#616161" stroke-width="3"/>
<rect x="166.295" y="116.226" width="111.16" height="12.9182" fill="#79ABCA" stroke="#616161" stroke-width="3"/>
<path d="M176.729 123.677H174.417L173.978 124.995H172.576L174.958 118.597H176.179L178.574 124.995H177.172L176.729 123.677ZM174.773 122.609H176.373L175.568 120.214L174.773 122.609ZM183.158 122.662C183.158 123.394 182.991 123.981 182.657 124.424C182.326 124.863 181.877 125.083 181.312 125.083C180.832 125.083 180.443 124.916 180.147 124.582V126.823H178.877V120.24H180.055L180.099 120.706C180.407 120.337 180.808 120.152 181.303 120.152C181.889 120.152 182.345 120.369 182.67 120.803C182.995 121.236 183.158 121.834 183.158 122.596V122.662ZM181.888 122.569C181.888 122.127 181.809 121.786 181.65 121.545C181.495 121.305 181.268 121.185 180.969 121.185C180.571 121.185 180.297 121.337 180.147 121.642V123.589C180.303 123.902 180.58 124.059 180.978 124.059C181.584 124.059 181.888 123.562 181.888 122.569ZM188.229 122.662C188.229 123.394 188.062 123.981 187.728 124.424C187.397 124.863 186.949 125.083 186.383 125.083C185.903 125.083 185.515 124.916 185.219 124.582V126.823H183.949V120.24H185.126L185.17 120.706C185.478 120.337 185.879 120.152 186.375 120.152C186.96 120.152 187.416 120.369 187.741 120.803C188.066 121.236 188.229 121.834 188.229 122.596V122.662ZM186.959 122.569C186.959 122.127 186.88 121.786 186.722 121.545C186.566 121.305 186.339 121.185 186.041 121.185C185.642 121.185 185.368 121.337 185.219 121.642V123.589C185.374 123.902 185.651 124.059 186.049 124.059C186.656 124.059 186.959 123.562 186.959 122.569Z" fill="black"/>
<rect x="175.875" y="146.469" width="92" height="22" rx="5" fill="#FBEEC2" stroke="#BB9595"/>
<path d="M188.93 152.133H186.547C183.587 152.133 181.188 154.522 181.188 157.469C181.188 160.416 183.587 162.805 186.547 162.805H188.93C191.89 162.805 194.29 160.416 194.29 157.469C194.29 154.522 191.89 152.133 188.93 152.133Z" fill="#5F7EC2"/>
<path style="mix-blend-mode:overlay" d="M188.93 152.133H186.547C183.587 152.133 181.188 154.522 181.188 157.469C181.188 160.416 183.587 162.805 186.547 162.805H188.93C191.89 162.805 194.29 160.416 194.29 157.469C194.29 154.522 191.89 152.133 188.93 152.133Z" fill="url(#paint1_linear_89:615)"/>
<g style="mix-blend-mode:overlay" opacity="0.5">
<g style="mix-blend-mode:overlay" opacity="0.5">
<path d="M188.93 152.726C190.193 152.726 191.405 153.225 192.299 154.115C193.192 155.004 193.694 156.211 193.694 157.469C193.694 158.727 193.192 159.933 192.299 160.823C191.405 161.712 190.193 162.212 188.93 162.212H186.547C185.284 162.212 184.072 161.712 183.179 160.823C182.285 159.933 181.783 158.727 181.783 157.469C181.783 156.211 182.285 155.004 183.179 154.115C184.072 153.225 185.284 152.726 186.547 152.726H188.93ZM188.93 152.133C188.93 152.133 188.93 152.133 188.93 152.133H186.547C185.126 152.133 183.763 152.695 182.757 153.696C181.752 154.696 181.188 156.054 181.188 157.469C181.188 157.469 181.188 157.469 181.188 157.469V157.469C181.188 157.469 181.188 157.469 181.188 157.469C181.188 158.884 181.752 160.241 182.757 161.242C183.763 162.243 185.126 162.805 186.547 162.805H188.93C190.351 162.805 191.714 162.243 192.72 161.242C193.725 160.241 194.29 158.884 194.29 157.469L-nan -nanL-nan -nanL194.29 157.469C194.29 156.054 193.725 154.696 192.72 153.696C191.714 152.695 190.351 152.133 188.93 152.133C188.93 152.133 188.93 152.133 188.93 152.133V152.133Z" fill="#231F20"/>
</g>
</g>
<path d="M185.952 158.95V155.988C185.952 155.823 185.818 155.69 185.654 155.69C185.49 155.69 185.356 155.823 185.356 155.988V158.95C185.356 159.114 185.49 159.247 185.654 159.247C185.818 159.247 185.952 159.114 185.952 158.95Z" fill="white"/>
<path d="M188.633 155.097H186.248C186.084 155.097 185.951 155.23 185.951 155.393C185.951 155.557 186.084 155.69 186.248 155.69H188.633C188.796 155.69 188.929 155.557 188.929 155.393C188.929 155.23 188.796 155.097 188.633 155.097Z" fill="white"/>
<path d="M188.633 159.247H186.248C186.084 159.247 185.951 159.38 185.951 159.544C185.951 159.707 186.084 159.84 186.248 159.84H188.633C188.796 159.84 188.929 159.707 188.929 159.544C188.929 159.38 188.796 159.247 188.633 159.247Z" fill="white"/>
<g style="mix-blend-mode:multiply" opacity="0.15">
<g style="mix-blend-mode:multiply" opacity="0.15">
<path d="M186.547 158.95V155.988C186.547 155.824 186.414 155.69 186.25 155.69C186.085 155.69 185.952 155.824 185.952 155.988V158.95C185.952 159.114 186.085 159.248 186.25 159.248C186.414 159.248 186.547 159.114 186.547 158.95Z" fill="black"/>
</g>
<g style="mix-blend-mode:multiply" opacity="0.15">
<path d="M189.229 155.097H186.844C186.68 155.097 186.547 155.23 186.547 155.394C186.547 155.557 186.68 155.69 186.844 155.69H189.229C189.392 155.69 189.525 155.557 189.525 155.394C189.525 155.23 189.392 155.097 189.229 155.097Z" fill="black"/>
</g>
<g style="mix-blend-mode:multiply" opacity="0.15">
<path d="M189.229 159.248H186.844C186.68 159.248 186.547 159.381 186.547 159.544C186.547 159.708 186.68 159.841 186.844 159.841H189.229C189.392 159.841 189.525 159.708 189.525 159.544C189.525 159.381 189.392 159.248 189.229 159.248Z" fill="black"/>
</g>
<g style="mix-blend-mode:multiply" opacity="0.15">
<path d="M189.525 158.951C189.525 159.115 189.659 159.248 189.823 159.248C189.987 159.248 190.121 159.115 190.121 158.951C190.121 158.788 189.987 158.655 189.823 158.655C189.659 158.655 189.525 158.788 189.525 158.951Z" fill="black"/>
</g>
<g style="mix-blend-mode:multiply" opacity="0.15">
<path d="M189.525 155.987C189.525 156.15 189.659 156.283 189.823 156.283C189.987 156.283 190.121 156.15 190.121 155.987C190.121 155.823 189.987 155.69 189.823 155.69C189.659 155.69 189.525 155.823 189.525 155.987Z" fill="black"/>
</g>
</g>
<path d="M188.93 158.951C188.93 159.115 189.064 159.248 189.227 159.248C189.391 159.248 189.525 159.115 189.525 158.951C189.525 158.788 189.391 158.655 189.227 158.655C189.064 158.655 188.93 158.788 188.93 158.951Z" fill="white"/>
<path d="M188.93 155.987C188.93 156.15 189.064 156.283 189.227 156.283C189.391 156.283 189.525 156.15 189.525 155.987C189.525 155.823 189.391 155.69 189.227 155.69C189.064 155.69 188.93 155.823 188.93 155.987Z" fill="white"/>
<path d="M201.928 160.469V156.244C201.928 156.061 201.92 155.91 201.904 155.793C201.893 155.676 201.871 155.584 201.84 155.518C201.812 155.447 201.775 155.398 201.729 155.371C201.686 155.344 201.631 155.33 201.564 155.33C201.486 155.33 201.414 155.354 201.348 155.4C201.281 155.447 201.209 155.523 201.131 155.629C201.057 155.734 200.973 155.875 200.879 156.051C200.789 156.223 200.682 156.436 200.557 156.689V160.469H199.625V156.355C199.625 156.141 199.617 155.967 199.602 155.834C199.59 155.701 199.568 155.598 199.537 155.523C199.51 155.449 199.473 155.398 199.426 155.371C199.379 155.344 199.322 155.33 199.256 155.33C199.186 155.33 199.119 155.35 199.057 155.389C198.994 155.428 198.924 155.498 198.846 155.6C198.771 155.701 198.688 155.84 198.594 156.016C198.5 156.191 198.389 156.416 198.26 156.689V160.469H197.322V154.586H198.102L198.148 155.705C198.25 155.482 198.348 155.293 198.441 155.137C198.539 154.98 198.639 154.855 198.74 154.762C198.842 154.664 198.949 154.594 199.062 154.551C199.18 154.504 199.309 154.48 199.449 154.48C199.766 154.48 200.006 154.584 200.17 154.791C200.334 154.998 200.416 155.318 200.416 155.752C200.51 155.549 200.602 155.369 200.691 155.213C200.781 155.053 200.877 154.92 200.979 154.814C201.084 154.705 201.199 154.623 201.324 154.568C201.449 154.51 201.594 154.48 201.758 154.48C202.496 154.48 202.865 155.049 202.865 156.186V160.469H201.928ZM209.562 154.586L207.559 159.848C207.352 160.383 207.137 160.844 206.914 161.23C206.695 161.617 206.455 161.934 206.193 162.18C205.932 162.43 205.645 162.613 205.332 162.73C205.02 162.848 204.67 162.906 204.283 162.906C204.182 162.906 204.09 162.904 204.008 162.9C203.926 162.896 203.836 162.891 203.738 162.883V161.957C203.824 161.969 203.918 161.979 204.02 161.986C204.121 161.998 204.229 162.004 204.342 162.004C204.529 162.004 204.703 161.977 204.863 161.922C205.027 161.867 205.182 161.777 205.326 161.652C205.471 161.531 205.609 161.373 205.742 161.178C205.875 160.982 206.004 160.746 206.129 160.469L203.779 154.586H204.939L206.428 158.477L206.727 159.391L207.066 158.453L208.443 154.586H209.562ZM215.521 160.469H211.168V152.811H215.521V153.689H212.211V156.062H215.393V156.941H212.211V159.578H215.521V160.469ZM216.975 154.586H218.135L219.576 158.477L219.887 159.426L220.209 158.453L221.639 154.586H222.758L220.449 160.469H219.277L216.975 154.586ZM229.092 157.217C229.092 157.361 229.09 157.482 229.086 157.58C229.082 157.678 229.076 157.77 229.068 157.855H224.938C224.938 158.457 225.105 158.92 225.441 159.244C225.777 159.564 226.262 159.725 226.895 159.725C227.066 159.725 227.238 159.719 227.41 159.707C227.582 159.691 227.748 159.672 227.908 159.648C228.068 159.625 228.221 159.6 228.365 159.572C228.514 159.541 228.65 159.508 228.775 159.473V160.311C228.498 160.389 228.184 160.451 227.832 160.498C227.484 160.549 227.123 160.574 226.748 160.574C226.244 160.574 225.811 160.506 225.447 160.369C225.084 160.232 224.785 160.035 224.551 159.777C224.32 159.516 224.148 159.197 224.035 158.822C223.926 158.443 223.871 158.016 223.871 157.539C223.871 157.125 223.93 156.734 224.047 156.367C224.168 155.996 224.342 155.672 224.568 155.395C224.799 155.113 225.08 154.891 225.412 154.727C225.744 154.562 226.121 154.48 226.543 154.48C226.953 154.48 227.316 154.545 227.633 154.674C227.949 154.803 228.215 154.986 228.43 155.225C228.648 155.459 228.812 155.746 228.922 156.086C229.035 156.422 229.092 156.799 229.092 157.217ZM228.031 157.07C228.043 156.809 228.018 156.57 227.955 156.355C227.893 156.137 227.795 155.949 227.662 155.793C227.533 155.637 227.371 155.516 227.176 155.43C226.98 155.34 226.754 155.295 226.496 155.295C226.273 155.295 226.07 155.338 225.887 155.424C225.703 155.51 225.545 155.631 225.412 155.787C225.279 155.943 225.172 156.131 225.09 156.35C225.008 156.568 224.957 156.809 224.938 157.07H228.031ZM230.721 154.586H231.629L231.67 155.535C231.842 155.332 232.008 155.164 232.168 155.031C232.328 154.895 232.484 154.785 232.637 154.703C232.793 154.621 232.951 154.564 233.111 154.533C233.271 154.498 233.438 154.48 233.609 154.48C234.215 154.48 234.672 154.66 234.98 155.02C235.293 155.375 235.449 155.912 235.449 156.631V160.469H234.43V156.713C234.43 156.252 234.344 155.912 234.172 155.693C234 155.471 233.744 155.359 233.404 155.359C233.279 155.359 233.156 155.379 233.035 155.418C232.918 155.453 232.795 155.518 232.666 155.611C232.537 155.701 232.396 155.824 232.244 155.98C232.096 156.137 231.928 156.332 231.74 156.566V160.469H230.721V154.586ZM242.059 160.387C241.828 160.445 241.59 160.486 241.344 160.51C241.098 160.537 240.848 160.551 240.594 160.551C239.855 160.551 239.305 160.385 238.941 160.053C238.578 159.717 238.396 159.203 238.396 158.512V155.441H236.75V154.586H238.396V152.969L239.416 152.705V154.586H242.059V155.441H239.416V158.43C239.416 158.852 239.527 159.168 239.75 159.379C239.977 159.586 240.309 159.689 240.746 159.689C240.934 159.689 241.139 159.676 241.361 159.648C241.584 159.617 241.816 159.57 242.059 159.508V160.387ZM248.498 153.701H245.246V156.186H248.328V157.059H245.246V160.469H244.18V152.811H248.498V153.701ZM255.084 160.252C254.818 160.354 254.545 160.428 254.264 160.475C253.986 160.525 253.699 160.551 253.402 160.551C252.473 160.551 251.756 160.299 251.252 159.795C250.752 159.291 250.502 158.555 250.502 157.586C250.502 157.121 250.574 156.699 250.719 156.32C250.863 155.941 251.066 155.617 251.328 155.348C251.59 155.078 251.902 154.871 252.266 154.727C252.629 154.578 253.029 154.504 253.467 154.504C253.771 154.504 254.057 154.525 254.322 154.568C254.588 154.611 254.842 154.682 255.084 154.779V155.752C254.83 155.619 254.57 155.523 254.305 155.465C254.043 155.402 253.771 155.371 253.49 155.371C253.229 155.371 252.98 155.422 252.746 155.523C252.516 155.621 252.312 155.764 252.137 155.951C251.961 156.139 251.822 156.367 251.721 156.637C251.619 156.906 251.568 157.211 251.568 157.551C251.568 158.262 251.74 158.795 252.084 159.15C252.432 159.502 252.912 159.678 253.525 159.678C253.803 159.678 254.07 159.646 254.328 159.584C254.59 159.521 254.842 159.428 255.084 159.303V160.252ZM257.111 154.586H258.02L258.061 155.535C258.232 155.332 258.398 155.164 258.559 155.031C258.719 154.895 258.875 154.785 259.027 154.703C259.184 154.621 259.342 154.564 259.502 154.533C259.662 154.498 259.828 154.48 260 154.48C260.605 154.48 261.062 154.66 261.371 155.02C261.684 155.375 261.84 155.912 261.84 156.631V160.469H260.82V156.713C260.82 156.252 260.734 155.912 260.562 155.693C260.391 155.471 260.135 155.359 259.795 155.359C259.67 155.359 259.547 155.379 259.426 155.418C259.309 155.453 259.186 155.518 259.057 155.611C258.928 155.701 258.787 155.824 258.635 155.98C258.486 156.137 258.318 156.332 258.131 156.566V160.469H257.111V154.586Z" fill="black"/>
<defs>
<linearGradient id="paint0_linear_89:615" x1="43.3494" y1="22.9149" x2="43.3494" y2="28.293" gradientUnits="userSpaceOnUse">
<stop stop-color="#FCD721"/>
<stop offset="1" stop-color="#FBB03B"/>
</linearGradient>
<linearGradient id="paint1_linear_89:615" x1="183.355" y1="153.105" x2="192.083" y2="161.872" gradientUnits="userSpaceOnUse">
<stop offset="0.28" stop-color="#999999"/>
<stop offset="0.85" stop-color="#4D4D4D"/>
</linearGradient>
</defs>
</svg>
