<svg width="20" height="20" viewBox="0 0 20 20" fill="none" xmlns="http://www.w3.org/2000/svg">
<rect x="0.5" y="0.5" width="19" height="19" rx="2" fill="white" stroke="#616161"/>
<path d="M11 8.5H9C8.72386 8.5 8.5 8.72386 8.5 9V11C8.5 11.2761 8.72386 11.5 9 11.5H11C11.2761 11.5 11.5 11.2761 11.5 11V9C11.5 8.72386 11.2761 8.5 11 8.5Z" stroke="#888889" stroke-linecap="square"/>
<path d="M6.25 2.5H2.5M2.5 2.5V6.25M2.5 2.5L7.1875 7.1875M13.75 2.5H17.5M17.5 2.5V6.25M17.5 2.5L12.8125 7.1875M7.1875 12.8125L2.5 17.5M2.5 17.5V13.75M2.5 17.5H6.25M12.8125 12.8125L17.5 17.5M17.5 17.5V13.75M17.5 17.5H13.75" stroke="#616162" stroke-linecap="round" stroke-linejoin="round"/>
</svg>
