<svg width="16" height="16" viewBox="0 0 24 24" fill="none" xmlns="http://www.w3.org/2000/svg">
<path d="M21 16.5L1 16.5C0.723858 16.5 0.5 16.7239 0.5 17L0.5 23C0.5 23.2761 0.723858 23.5 1 23.5L21 23.5C21.2761 23.5 21.5 23.2761 21.5 23V17C21.5 16.7239 21.2761 16.5 21 16.5Z" fill="#CBFFBE"/>
<path d="M21 16.5V17V16.5ZM1 16.5L1 16L1 16.5ZM0.5 17L1 17L0.5 17ZM0.5 23H0H0.5ZM1 23.5L1 24L1 23.5ZM21 23.5V23V23.5ZM21.5 23H22H21.5ZM21.5 17L21 17V17H21.5ZM15 17.5V17H14V17.5H15ZM14 22.5V23H15V22.5H14ZM8 17.5V17L7 17V17.5L8 17.5ZM7 22.5V23H8V22.5H7ZM21 16L1 16L1 17L21 17V16ZM1 16C0.447715 16 5.06639e-07 16.4477 4.47035e-07 17L1 17L1 17L1 16ZM4.47035e-07 17L0 23H1L1 17L4.47035e-07 17ZM0 23C-5.96046e-08 23.5523 0.447717 24 1 24L1 23H1H0ZM1 24L21 24V23L1 23L1 24ZM21 24C21.5523 24 22 23.5523 22 23H21V24ZM22 23V17H21V23H22ZM22 17C22 16.4477 21.5523 16 21 16V17V17L22 17ZM14 17.5V22.5H15V17.5H14ZM7 17.5L7 22.5H8L8 17.5L7 17.5Z" fill="#008013"/>
<path d="M23 0.500001L6 0.5C5.72386 0.5 5.5 0.723858 5.5 1L5.5 12C5.5 12.2761 5.72386 12.5 6 12.5L23 12.5C23.2761 12.5 23.5 12.2761 23.5 12V1C23.5 0.723859 23.2761 0.500001 23 0.500001Z" fill="#F5F5F5"/>
<path d="M23 0.500001V1V0.500001ZM6 0.5L6 0L6 0.5ZM5.5 1L6 1L5.5 1ZM5.5 12H5H5.5ZM6 12.5V13V12.5ZM23 12.5V12V12.5ZM23.5 12H24H23.5ZM23.5 1L23 1V1H23.5ZM18 1.5V1L17 1V1.5L18 1.5ZM17 11.5V12H18V11.5H17ZM12 1.5V1H11V1.5H12ZM11 11.5V12H12V11.5H11ZM6.5 6H6V7H6.5V6ZM22.5 7H23V6H22.5V7ZM23 1.2815e-06L6 0L6 1L23 1V1.2815e-06ZM6 0C5.44772 -5.96046e-08 5 0.447716 5 1L6 1V1L6 0ZM5 1L5 12H6L6 1L5 1ZM5 12C5 12.5523 5.44772 13 6 13L6 12H6H5ZM6 13L23 13V12L6 12V13ZM23 13C23.5523 13 24 12.5523 24 12H23V13ZM24 12V1H23V12H24ZM24 1C24 0.447716 23.5523 1.3113e-06 23 1.2815e-06V1V1L24 1ZM17 1.5L17 11.5H18L18 1.5L17 1.5ZM11 1.5V6.5H12V1.5H11ZM11 6.5L11 11.5H12L12 6.5H11ZM6.5 7H11.5V6H6.5V7ZM11.5 7L22.5 7V6L11.5 6V7Z" fill="#888888"/>
</svg>
