<svg width="229" height="90" viewBox="0 0 229 90" fill="none" xmlns="http://www.w3.org/2000/svg">
<g clip-path="url(#clip0_9_32)">
<mask id="mask0_9_32" style="mask-type:luminance" maskUnits="userSpaceOnUse" x="0" y="0" width="229" height="90">
<path d="M229 0H0V90H229V0Z" fill="white"/>
</mask>
<g mask="url(#mask0_9_32)">
<path d="M229 0H0V90H229V0Z" fill="#616161"/>
<path d="M218.5 10.5H10.5V79.5H218.5V10.5Z" fill="#212121" stroke="#A6A6A6"/>
<path d="M207.5 70.5C207.5 69.9477 207.948 69.5 208.5 69.5H220.5C221.052 69.5 221.5 69.9477 221.5 70.5V82.5C221.5 83.0523 221.052 83.5 220.5 83.5H208.5C207.948 83.5 207.5 83.0523 207.5 82.5V70.5Z" fill="white" stroke="#A6A6A6"/>
<path d="M213.5 74H213V75H213.5V74ZM217.5 74.5H218C218 74.2239 217.776 74 217.5 74V74.5ZM217 78V78.5H218V78H217ZM213.5 75H217.5V74H213.5V75ZM217 74.5V78H218V74.5H217Z" fill="#888889"/>
<path d="M215.5 78C215.5 77.7239 215.724 77.5 216 77.5H219C219.276 77.5 219.5 77.7239 219.5 78V81C219.5 81.2761 219.276 81.5 219 81.5H216C215.724 81.5 215.5 81.2761 215.5 81V78Z" fill="#FF9D9A" stroke="#902623"/>
<path d="M209.5 77.5V71.5L214.5 74.5L209.5 77.5Z" fill="#B4DEFF" stroke="#1656A8" stroke-linejoin="round"/>
</g>
<path d="M228.5 0.5H0.5V89.5H228.5V0.5Z" stroke="#A6A6A6"/>
</g>
<defs>
<clipPath id="clip0_9_32">
<rect width="229" height="90" fill="white"/>
</clipPath>
</defs>
</svg>
