<svg width="306" height="186" viewBox="0 0 306 186" fill="none" xmlns="http://www.w3.org/2000/svg">
<rect width="306" height="186" fill="#212121"/>
<rect x="47" y="25" width="233" height="117" fill="black"/>
<path d="M47 25V142.5H281" stroke="white"/>
<path d="M46.5 24.5H49.5" stroke="white"/>
<path d="M47 83.5H50" stroke="white"/>
<path d="M93.5 140V143" stroke="white"/>
<path d="M140 140V143" stroke="white"/>
<path d="M187.5 140V143" stroke="white"/>
<path d="M234.5 140V143" stroke="white"/>
<path d="M280.5 140V143" stroke="white"/>
<path d="M159.289 8.64355V10.3003H156.489V18H154.521V10.3003H151.709V8.64355H159.289ZM161.923 11.0811V18H160.088V11.0811H161.923ZM161.923 8.58643V10.2559H160.088V8.58643H161.923ZM166.849 16.7114V18.0635L165.992 18.0952C165.137 18.1248 164.553 17.9767 164.24 17.6509C164.037 17.4435 163.935 17.124 163.935 16.6924V12.4331H162.97V11.1445H163.935V9.21484H165.725V11.1445H166.849V12.4331H165.725V16.0894C165.725 16.3729 165.761 16.5506 165.833 16.6226C165.905 16.6903 166.125 16.7241 166.493 16.7241C166.548 16.7241 166.605 16.7241 166.665 16.7241C166.728 16.7199 166.789 16.7157 166.849 16.7114ZM168.048 8.64355H169.857V18H168.048V8.64355ZM177.551 15.9688C177.504 16.3792 177.291 16.7961 176.91 17.2192C176.317 17.8921 175.488 18.2285 174.421 18.2285C173.541 18.2285 172.765 17.945 172.092 17.3779C171.419 16.8109 171.083 15.8883 171.083 14.6104C171.083 13.4128 171.385 12.4945 171.99 11.8555C172.6 11.2165 173.389 10.897 174.358 10.897C174.933 10.897 175.452 11.0049 175.913 11.2207C176.374 11.4365 176.755 11.7772 177.056 12.2427C177.326 12.6532 177.502 13.1292 177.583 13.6709C177.629 13.9883 177.648 14.4453 177.64 15.042H172.904C172.93 15.736 173.148 16.2227 173.558 16.502C173.808 16.6755 174.108 16.7622 174.459 16.7622C174.832 16.7622 175.134 16.6564 175.367 16.4448C175.494 16.3306 175.606 16.1719 175.704 15.9688H177.551ZM175.761 13.8486C175.731 13.3704 175.585 13.0086 175.323 12.7632C175.065 12.5135 174.743 12.3887 174.358 12.3887C173.939 12.3887 173.613 12.5199 173.38 12.7822C173.152 13.0446 173.008 13.4001 172.949 13.8486H175.761Z" fill="white"/>
<path d="M7.95801 87.7129V86.127L12.7842 83.2422L7.95801 80.3574V78.7646L13.9531 82.5586H18V83.9189H13.9531L7.95801 87.7129Z" fill="white"/>
<path d="M161.428 177H159.787L163.383 171.853L160.013 166.958H161.715L164.278 170.8L166.821 166.958H168.441L165.071 171.853L168.605 177H166.917L164.21 172.871L161.428 177Z" fill="white"/>
<path d="M36.6484 22.5586V21.75C37.4102 21.6758 37.9414 21.5527 38.2422 21.3809C38.543 21.2051 38.7676 20.793 38.916 20.1445H39.748V28.5H38.623V22.5586H36.6484Z" fill="white"/>
<path d="M28.7461 79.1094C29.832 79.1094 30.6172 79.5566 31.1016 80.4512C31.4766 81.1426 31.6641 82.0898 31.6641 83.293C31.6641 84.4336 31.4941 85.377 31.1543 86.123C30.6621 87.1934 29.8574 87.7285 28.7402 87.7285C27.7324 87.7285 26.9824 87.291 26.4902 86.416C26.0801 85.6855 25.875 84.7051 25.875 83.4746C25.875 82.5215 25.998 81.7031 26.2441 81.0195C26.7051 79.7461 27.5391 79.1094 28.7461 79.1094ZM28.7344 86.7676C29.2812 86.7676 29.7168 86.5254 30.041 86.041C30.3652 85.5566 30.5273 84.6543 30.5273 83.334C30.5273 82.3809 30.4102 81.5977 30.1758 80.9844C29.9414 80.3672 29.4863 80.0586 28.8105 80.0586C28.1895 80.0586 27.7344 80.3516 27.4453 80.9375C27.1602 81.5195 27.0176 82.3789 27.0176 83.5156C27.0176 84.3711 27.1094 85.0586 27.293 85.5781C27.5742 86.3711 28.0547 86.7676 28.7344 86.7676ZM33.2051 86.2227H34.4297V87.5H33.2051V86.2227ZM37.002 85.3613C37.0723 85.9629 37.3516 86.3789 37.8398 86.6094C38.0898 86.7266 38.3789 86.7852 38.707 86.7852C39.332 86.7852 39.7949 86.5859 40.0957 86.1875C40.3965 85.7891 40.5469 85.3477 40.5469 84.8633C40.5469 84.2773 40.3672 83.8242 40.0078 83.5039C39.6523 83.1836 39.2246 83.0234 38.7246 83.0234C38.3613 83.0234 38.0488 83.0938 37.7871 83.2344C37.5293 83.375 37.3086 83.5703 37.125 83.8203L36.2109 83.7676L36.8496 79.25H41.209V80.2695H37.6406L37.2832 82.6016C37.4785 82.4531 37.6641 82.3418 37.8398 82.2676C38.1523 82.1387 38.5137 82.0742 38.9238 82.0742C39.6934 82.0742 40.3457 82.3223 40.8809 82.8184C41.416 83.3145 41.6836 83.9434 41.6836 84.7051C41.6836 85.498 41.4375 86.1973 40.9453 86.8027C40.457 87.4082 39.6758 87.7109 38.6016 87.7109C37.918 87.7109 37.3125 87.5195 36.7852 87.1367C36.2617 86.75 35.9688 86.1582 35.9062 85.3613H37.002Z" fill="white"/>
<path d="M38.7461 139.109C39.832 139.109 40.6172 139.557 41.1016 140.451C41.4766 141.143 41.6641 142.09 41.6641 143.293C41.6641 144.434 41.4941 145.377 41.1543 146.123C40.6621 147.193 39.8574 147.729 38.7402 147.729C37.7324 147.729 36.9824 147.291 36.4902 146.416C36.0801 145.686 35.875 144.705 35.875 143.475C35.875 142.521 35.998 141.703 36.2441 141.02C36.7051 139.746 37.5391 139.109 38.7461 139.109ZM38.7344 146.768C39.2812 146.768 39.7168 146.525 40.041 146.041C40.3652 145.557 40.5273 144.654 40.5273 143.334C40.5273 142.381 40.4102 141.598 40.1758 140.984C39.9414 140.367 39.4863 140.059 38.8105 140.059C38.1895 140.059 37.7344 140.352 37.4453 140.938C37.1602 141.52 37.0176 142.379 37.0176 143.516C37.0176 144.371 37.1094 145.059 37.293 145.578C37.5742 146.371 38.0547 146.768 38.7344 146.768Z" fill="white"/>
<path d="M46.7461 150.609C47.832 150.609 48.6172 151.057 49.1016 151.951C49.4766 152.643 49.6641 153.59 49.6641 154.793C49.6641 155.934 49.4941 156.877 49.1543 157.623C48.6621 158.693 47.8574 159.229 46.7402 159.229C45.7324 159.229 44.9824 158.791 44.4902 157.916C44.0801 157.186 43.875 156.205 43.875 154.975C43.875 154.021 43.998 153.203 44.2441 152.52C44.7051 151.246 45.5391 150.609 46.7461 150.609ZM46.7344 158.268C47.2812 158.268 47.7168 158.025 48.041 157.541C48.3652 157.057 48.5273 156.154 48.5273 154.834C48.5273 153.881 48.4102 153.098 48.1758 152.484C47.9414 151.867 47.4863 151.559 46.8105 151.559C46.1895 151.559 45.7344 151.852 45.4453 152.438C45.1602 153.02 45.0176 153.879 45.0176 155.016C45.0176 155.871 45.1094 156.559 45.293 157.078C45.5742 157.871 46.0547 158.268 46.7344 158.268Z" fill="white"/>
<path d="M88.2461 150.609C89.332 150.609 90.1172 151.057 90.6016 151.951C90.9766 152.643 91.1641 153.59 91.1641 154.793C91.1641 155.934 90.9941 156.877 90.6543 157.623C90.1621 158.693 89.3574 159.229 88.2402 159.229C87.2324 159.229 86.4824 158.791 85.9902 157.916C85.5801 157.186 85.375 156.205 85.375 154.975C85.375 154.021 85.498 153.203 85.7441 152.52C86.2051 151.246 87.0391 150.609 88.2461 150.609ZM88.2344 158.268C88.7812 158.268 89.2168 158.025 89.541 157.541C89.8652 157.057 90.0273 156.154 90.0273 154.834C90.0273 153.881 89.9102 153.098 89.6758 152.484C89.4414 151.867 88.9863 151.559 88.3105 151.559C87.6895 151.559 87.2344 151.852 86.9453 152.438C86.6602 153.02 86.5176 153.879 86.5176 155.016C86.5176 155.871 86.6094 156.559 86.793 157.078C87.0742 157.871 87.5547 158.268 88.2344 158.268ZM92.7051 157.723H93.9297V159H92.7051V157.723ZM95.3945 159C95.4336 158.277 95.582 157.648 95.8398 157.113C96.1016 156.578 96.6094 156.092 97.3633 155.654L98.4883 155.004C98.9922 154.711 99.3457 154.461 99.5488 154.254C99.8691 153.93 100.029 153.559 100.029 153.141C100.029 152.652 99.8828 152.266 99.5898 151.98C99.2969 151.691 98.9062 151.547 98.418 151.547C97.6953 151.547 97.1953 151.82 96.918 152.367C96.7695 152.66 96.6875 153.066 96.6719 153.586H95.5996C95.6113 152.855 95.7461 152.26 96.0039 151.799C96.4609 150.986 97.2676 150.58 98.4238 150.58C99.3848 150.58 100.086 150.84 100.527 151.359C100.973 151.879 101.195 152.457 101.195 153.094C101.195 153.766 100.959 154.34 100.486 154.816C100.213 155.094 99.7227 155.43 99.0156 155.824L98.2129 156.27C97.8301 156.48 97.5293 156.682 97.3105 156.873C96.9199 157.213 96.6738 157.59 96.5723 158.004H101.154V159H95.3945Z" fill="white"/>
<path d="M136.246 150.609C137.332 150.609 138.117 151.057 138.602 151.951C138.977 152.643 139.164 153.59 139.164 154.793C139.164 155.934 138.994 156.877 138.654 157.623C138.162 158.693 137.357 159.229 136.24 159.229C135.232 159.229 134.482 158.791 133.99 157.916C133.58 157.186 133.375 156.205 133.375 154.975C133.375 154.021 133.498 153.203 133.744 152.52C134.205 151.246 135.039 150.609 136.246 150.609ZM136.234 158.268C136.781 158.268 137.217 158.025 137.541 157.541C137.865 157.057 138.027 156.154 138.027 154.834C138.027 153.881 137.91 153.098 137.676 152.484C137.441 151.867 136.986 151.559 136.311 151.559C135.689 151.559 135.234 151.852 134.945 152.438C134.66 153.02 134.518 153.879 134.518 155.016C134.518 155.871 134.609 156.559 134.793 157.078C135.074 157.871 135.555 158.268 136.234 158.268ZM140.705 157.723H141.93V159H140.705V157.723ZM146.986 156.029V152.227L144.297 156.029H146.986ZM147.004 159V156.949H143.324V155.918L147.168 150.586H148.059V156.029H149.295V156.949H148.059V159H147.004Z" fill="white"/>
<path d="M182.246 150.609C183.332 150.609 184.117 151.057 184.602 151.951C184.977 152.643 185.164 153.59 185.164 154.793C185.164 155.934 184.994 156.877 184.654 157.623C184.162 158.693 183.357 159.229 182.24 159.229C181.232 159.229 180.482 158.791 179.99 157.916C179.58 157.186 179.375 156.205 179.375 154.975C179.375 154.021 179.498 153.203 179.744 152.52C180.205 151.246 181.039 150.609 182.246 150.609ZM182.234 158.268C182.781 158.268 183.217 158.025 183.541 157.541C183.865 157.057 184.027 156.154 184.027 154.834C184.027 153.881 183.91 153.098 183.676 152.484C183.441 151.867 182.986 151.559 182.311 151.559C181.689 151.559 181.234 151.852 180.945 152.438C180.66 153.02 180.518 153.879 180.518 155.016C180.518 155.871 180.609 156.559 180.793 157.078C181.074 157.871 181.555 158.268 182.234 158.268ZM186.705 157.723H187.93V159H186.705V157.723ZM192.529 150.574C193.467 150.574 194.119 150.818 194.486 151.307C194.857 151.791 195.043 152.291 195.043 152.807H194C193.938 152.475 193.838 152.215 193.701 152.027C193.447 151.676 193.062 151.5 192.547 151.5C191.957 151.5 191.488 151.773 191.141 152.32C190.793 152.863 190.6 153.643 190.561 154.658C190.803 154.303 191.107 154.037 191.475 153.861C191.811 153.705 192.186 153.627 192.6 153.627C193.303 153.627 193.916 153.852 194.439 154.301C194.963 154.75 195.225 155.42 195.225 156.311C195.225 157.072 194.977 157.748 194.48 158.338C193.984 158.924 193.277 159.217 192.359 159.217C191.574 159.217 190.896 158.92 190.326 158.326C189.756 157.729 189.471 156.725 189.471 155.314C189.471 154.271 189.598 153.387 189.852 152.66C190.34 151.27 191.232 150.574 192.529 150.574ZM192.453 158.279C193.008 158.279 193.422 158.094 193.695 157.723C193.973 157.348 194.111 156.906 194.111 156.398C194.111 155.969 193.988 155.561 193.742 155.174C193.496 154.783 193.049 154.588 192.4 154.588C191.947 154.588 191.549 154.738 191.205 155.039C190.865 155.34 190.695 155.793 190.695 156.398C190.695 156.93 190.85 157.377 191.158 157.74C191.471 158.1 191.902 158.279 192.453 158.279Z" fill="white"/>
<path d="M230.246 150.609C231.332 150.609 232.117 151.057 232.602 151.951C232.977 152.643 233.164 153.59 233.164 154.793C233.164 155.934 232.994 156.877 232.654 157.623C232.162 158.693 231.357 159.229 230.24 159.229C229.232 159.229 228.482 158.791 227.99 157.916C227.58 157.186 227.375 156.205 227.375 154.975C227.375 154.021 227.498 153.203 227.744 152.52C228.205 151.246 229.039 150.609 230.246 150.609ZM230.234 158.268C230.781 158.268 231.217 158.025 231.541 157.541C231.865 157.057 232.027 156.154 232.027 154.834C232.027 153.881 231.91 153.098 231.676 152.484C231.441 151.867 230.986 151.559 230.311 151.559C229.689 151.559 229.234 151.852 228.945 152.438C228.66 153.02 228.518 153.879 228.518 155.016C228.518 155.871 228.609 156.559 228.793 157.078C229.074 157.871 229.555 158.268 230.234 158.268ZM234.705 157.723H235.93V159H234.705V157.723ZM240.283 154.125C240.748 154.125 241.111 153.996 241.373 153.738C241.635 153.477 241.766 153.166 241.766 152.807C241.766 152.494 241.641 152.207 241.391 151.945C241.141 151.684 240.76 151.553 240.248 151.553C239.74 151.553 239.373 151.684 239.146 151.945C238.92 152.207 238.807 152.514 238.807 152.865C238.807 153.26 238.953 153.568 239.246 153.791C239.539 154.014 239.885 154.125 240.283 154.125ZM240.348 158.279C240.836 158.279 241.24 158.148 241.561 157.887C241.885 157.621 242.047 157.227 242.047 156.703C242.047 156.16 241.881 155.748 241.549 155.467C241.217 155.186 240.791 155.045 240.271 155.045C239.768 155.045 239.355 155.189 239.035 155.479C238.719 155.764 238.561 156.16 238.561 156.668C238.561 157.105 238.705 157.484 238.994 157.805C239.287 158.121 239.738 158.279 240.348 158.279ZM238.848 154.529C238.555 154.404 238.326 154.258 238.162 154.09C237.854 153.777 237.699 153.371 237.699 152.871C237.699 152.246 237.926 151.709 238.379 151.26C238.832 150.811 239.475 150.586 240.307 150.586C241.111 150.586 241.742 150.799 242.199 151.225C242.656 151.646 242.885 152.141 242.885 152.707C242.885 153.23 242.752 153.654 242.486 153.979C242.338 154.162 242.107 154.342 241.795 154.518C242.143 154.678 242.416 154.861 242.615 155.068C242.986 155.459 243.172 155.967 243.172 156.592C243.172 157.33 242.924 157.957 242.428 158.473C241.932 158.984 241.23 159.24 240.324 159.24C239.508 159.24 238.816 159.02 238.25 158.578C237.688 158.133 237.406 157.488 237.406 156.645C237.406 156.148 237.527 155.721 237.77 155.361C238.012 154.998 238.371 154.721 238.848 154.529Z" fill="white"/>
<path d="M279.148 153.059V152.25C279.91 152.176 280.441 152.053 280.742 151.881C281.043 151.705 281.268 151.293 281.416 150.645H282.248V159H281.123V153.059H279.148Z" fill="white"/>
</svg>
