<svg xmlns="http://www.w3.org/2000/svg" xmlns:xlink="http://www.w3.org/1999/xlink" viewBox="0 0 24 24"><defs><style>.cls-1{isolation:isolate;}.cls-2{fill:url(#linear-gradient);}.cls-3{fill:none;}.cls-4{fill:url(#radial-gradient);}.cls-5,.cls-7{fill:#fff;}.cls-5,.cls-6{opacity:0.7;}.cls-5{mix-blend-mode:screen;}.cls-8{fill:url(#linear-gradient-2);}</style><linearGradient id="linear-gradient" x1="12" y1="22" x2="12" y2="1" gradientUnits="userSpaceOnUse"><stop offset="0" stop-color="#613311"/><stop offset="0.38" stop-color="#9b4722"/><stop offset="1" stop-color="#cb8f32"/></linearGradient><radialGradient id="radial-gradient" cx="78.63" cy="4.54" r="27.65" gradientTransform="translate(-65.52 -0.02) scale(0.95 0.99)" gradientUnits="userSpaceOnUse"><stop offset="0.16" stop-color="#fff"/><stop offset="0.53" stop-color="#faec7e"/><stop offset="0.78" stop-color="#eebf2e"/><stop offset="0.94" stop-color="#a96b28"/></radialGradient><linearGradient id="linear-gradient-2" x1="12" y1="7.04" x2="12" y2="19.47" gradientUnits="userSpaceOnUse"><stop offset="0.15" stop-color="#4d4e4e"/><stop offset="1"/></linearGradient></defs><g class="cls-1"><g id="Layer_2" data-name="Layer 2"><g id="warningYellow"><g id="warningYellow_24"><path class="cls-2" d="M12,1a1.49,1.49,0,0,0-1.22.87L.3,19.9C-.38,21.06.13,22,1.42,22H22.58c1.29,0,1.8-.94,1.12-2.1l-10.47-18A1.53,1.53,0,0,0,12,1Z"/><rect class="cls-3" width="24" height="24"/><path class="cls-4" d="M1.24,21,1,21s.06-.12.12-.21L11.78,2.59A.67.67,0,0,1,12,2.3s.08.08.2.28L22.89,20.77A1.1,1.1,0,0,1,23,21H1.24Z"/><path class="cls-5" d="M2,21l9.8-16.71A.67.67,0,0,1,12,4s.08.08.2.28L22,21h1a1.1,1.1,0,0,0-.11-.22L12.23,2.58c-.12-.2-.22-.27-.2-.28a.67.67,0,0,0-.25.29L1.12,20.77c-.06.09-.09.17-.12.21l.24,0Z"/><g class="cls-6"><path class="cls-7" d="M12.8,15.92H11.2L10.8,8h2.4Zm-2.3,3A1.5,1.5,0,1,0,12,17.44,1.5,1.5,0,0,0,10.5,19Z"/></g><path class="cls-8" d="M12.8,14.92H11.2L10.8,7h2.4Zm-2.3,3A1.5,1.5,0,1,0,12,16.44,1.5,1.5,0,0,0,10.5,18Z"/></g></g></g></g></svg>