<svg width="16" height="16" viewBox="0 0 16 16" fill="none" xmlns="http://www.w3.org/2000/svg">
<path fill-rule="evenodd" clip-rule="evenodd" d="M12.5972 4.81709C12.9877 4.42657 12.9877 3.7934 12.5972 3.40288C12.2067 3.01235 11.5735 3.01235 11.183 3.40288L8.00011 6.58577L4.81721 3.40288C4.42669 3.01235 3.79352 3.01235 3.403 3.40288C3.01248 3.7934 3.01248 4.42657 3.403 4.81709L6.58589 7.99999L3.403 11.1829C3.01248 11.5734 3.01248 12.2066 3.403 12.5971C3.79352 12.9876 4.42669 12.9876 4.81721 12.5971L8.00011 9.4142L11.183 12.5971C11.5735 12.9876 12.2067 12.9876 12.5972 12.5971C12.9877 12.2066 12.9877 11.5734 12.5972 11.1829L9.41432 7.99999L12.5972 4.81709Z" fill="#FF00FF"/>
</svg>
