<?xml version="1.0" encoding="iso-8859-1"?>
<!-- Generator: Adobe Illustrator 19.1.0, SVG Export Plug-In . SVG Version: 6.00 Build 0)  -->
<svg version="1.1" xmlns="http://www.w3.org/2000/svg" xmlns:xlink="http://www.w3.org/1999/xlink" x="0px" y="0px"
	 viewBox="0 0 12 12" style="enable-background:new 0 0 12 12;" xml:space="preserve">
<g id="BG_x2B_Header">
	<g id="BG">
	</g>
	<g id="Header">
		<g id="Right-ID">
		</g>
	</g>
</g>
<g id="Titles">
</g>
<g id="Content">
	<g id="Window">
	</g>
	<g id="Footer">
	</g>
	<g id="Toolstrip">
		<g id="Layer_53">
		</g>
	</g>
	<g id="Target">
		<g id="Rows">
		</g>
		<g id="connectors">
		</g>
		<g id="Icons_2_">
		</g>
		<g id="expanders">
		</g>
		<g id="Scroll">
		</g>
		<g id="Selection">
		</g>
		<g id="Content_1_">
			<g id="tree">
			</g>
		</g>
		<g id="Checks">
			<g id="cant-merge">
			</g>
		</g>
	</g>
	<g id="Info-panel">
		<g id="Layer_48">
		</g>
		<g id="Success">
			<g id="conflict_table_copy">
			</g>
			<g>
				<linearGradient id="SVGID_1_" gradientUnits="userSpaceOnUse" x1="5" y1="10" x2="5" y2="0">
					<stop  offset="0" style="stop-color:#E23D2D"/>
					<stop  offset="0.9949" style="stop-color:#CC3729"/>
				</linearGradient>
				<circle style="fill:url(#SVGID_1_);" cx="5" cy="5" r="5"/>
				<rect x="4" y="2" style="fill:#FFFFFF;" width="2" height="5"/>
				<g>
					
						<rect x="9.242" y="3.921" transform="matrix(0.7075 -0.7067 0.7067 0.7075 -0.7212 8.5202)" style="fill:#F1ABC2;" width="1.379" height="2.421"/>
					
						<rect x="4.623" y="6.472" transform="matrix(0.707 -0.7072 0.7072 0.707 -3.2712 7.4692)" style="fill:#FCD08E;" width="5.511" height="2.422"/>
					<polygon style="fill:#C1B49A;" points="6.287,10.487 3.658,11.416 4.574,8.775 					"/>
					<g>
						
							<rect x="9.051" y="4.676" transform="matrix(0.7071 0.7071 -0.7071 0.7071 6.5061 -5.5069)" style="fill:none;" width="1.699" height="0.849"/>
						
							<linearGradient id="SVGID_2_" gradientUnits="userSpaceOnUse" x1="-366.8611" y1="-463.9401" x2="-366.8611" y2="-460.5454" gradientTransform="matrix(0.7071 -0.7071 0.7071 0.7071 596.4593 72.2444)">
							<stop  offset="0.0429" style="stop-color:#E56691"/>
							<stop  offset="0.9939" style="stop-color:#6D0538"/>
						</linearGradient>
						<polygon style="fill:url(#SVGID_2_);" points="9.6,3 8.4,4.199 9,4.8 9.6,4.199 10.801,5.4 10.2,6 10.801,6.6 12,5.4 						
							"/>
					</g>
					<g>
						
							<rect x="6.352" y="5.254" transform="matrix(0.7071 0.7071 -0.7071 0.7071 7.6242 -2.8068)" style="fill:none;" width="1.696" height="5.091"/>
						
							<linearGradient id="SVGID_3_" gradientUnits="userSpaceOnUse" x1="-373.3977" y1="-463.3432" x2="-375.5149" y2="-461.226" gradientTransform="matrix(0.7071 -0.7071 0.7071 0.7071 596.4593 72.2444)">
							<stop  offset="0.0613" style="stop-color:#58595B"/>
							<stop  offset="0.9755" style="stop-color:#000000"/>
						</linearGradient>
						<polygon style="fill:url(#SVGID_3_);" points="4.096,11.01 4.801,9 4.199,8.4 3,12 6.6,10.801 6,10.199 						"/>
						
							<linearGradient id="SVGID_5_" gradientUnits="userSpaceOnUse" x1="-370.6795" y1="-463.9401" x2="-370.6795" y2="-460.5454" gradientTransform="matrix(0.7071 -0.7071 0.7071 0.7071 596.4593 72.2444)">
							<stop  offset="0.0613" style="stop-color:#BF8649"/>
							<stop  offset="0.9141" style="stop-color:#4C2E04"/>
						</linearGradient>
						<polygon style="fill:url(#SVGID_5_);" points="4.199,8.4 4.801,9 8.4,5.4 9.6,6.6 6,10.199 6.6,10.801 10.801,6.6 10.2,6 
							9,4.8 8.4,4.199 						"/>
					</g>
				</g>
			</g>
		</g>
		<g id="Conflict" style="display:none;">
			<g id="conflict_table" style="display:inline;">
			</g>
		</g>
	</g>
	<g id="Sources">
		<g id="Theirs">
			<g id="Rows_copy" style="display:none;">
			</g>
			<g id="Content_copy">
				<g id="tree_copy_3">
				</g>
			</g>
		</g>
		<g id="Base">
			<g id="Content_copy_2">
				<g id="tree_copy_2">
				</g>
			</g>
		</g>
		<g id="Mine">
			<g id="Content_copy_3">
				<g id="tree_copy">
				</g>
			</g>
		</g>
		<g id="Details-file-panel">
		</g>
		<g id="Headers">
			<g id="Theirs-H">
			</g>
			<g id="Base-H">
			</g>
			<g id="Mine-H">
			</g>
			<g id="Target-H">
			</g>
			<g id="global">
				<g id="Scroll_copy">
				</g>
			</g>
		</g>
		<g id="dividers">
		</g>
	</g>
	<g id="Icons">
		<g id="Borders">
		</g>
		<g id="Icons_1_">
		</g>
	</g>
	<g id="Toolstrip-mock">
		<g id="Icons-01" style="display:none;">
		</g>
		<g id="cleanup">
		</g>
		<g id="New_Icons">
		</g>
	</g>
</g>
<g id="Layer_8">
</g>
<g id="stuff">
</g>
</svg>
