<svg xmlns="http://www.w3.org/2000/svg" xmlns:xlink="http://www.w3.org/1999/xlink" viewBox="0 0 24 24"><defs><style>.cls-1{fill:url(#linear-gradient);}.cls-2{opacity:0.5;}.cls-3{fill:#fff;}.cls-4{fill:url(#linear-gradient-2);}.cls-5{fill:none;}</style><linearGradient id="linear-gradient" x1="8521.38" y1="2109" x2="8521.38" y2="2087" gradientTransform="translate(8533.37 2110) rotate(180)" gradientUnits="userSpaceOnUse"><stop offset="0.13" stop-color="#f6c1b8"/><stop offset="0.89" stop-color="#e7453b"/></linearGradient><linearGradient id="linear-gradient-2" x1="5298.69" y1="-3199.69" x2="5320.69" y2="-3199.69" gradientTransform="translate(3211.69 5321.69) rotate(-90)" gradientUnits="userSpaceOnUse"><stop offset="0" stop-color="#771b1e"/><stop offset="0.25" stop-color="#a41e22"/><stop offset="0.99" stop-color="#e85a51"/></linearGradient></defs><g id="Layer_2" data-name="Layer 2"><g id="failed"><g id="failed_24"><path class="cls-1" d="M6,23l6-6,6,6,5-5-6-6,6-6L18,1,12,7,6,1,1,6l6,6L1,18l5,5Z"/><g class="cls-2"><polygon class="cls-3" points="6.02 4 12.02 10.01 18.01 4.02 21.5 7.51 23 6.01 18.01 1.02 12.02 7 6.02 1 1.01 6.01 2.51 7.51 6.02 4"/><rect class="cls-3" x="17.89" y="10.76" width="2.12" height="9.35" transform="translate(-5.37 17.9) rotate(-44.95)"/><polygon class="cls-3" points="9.24 12.87 7.74 11.37 1 17.99 2.5 19.49 9.24 12.87"/></g><path class="cls-4" d="M2.41,6,6,2.41,11.3,7.7l.71.71.71-.71L18,2.43,21.59,6l-5.3,5.3-.71.7.71.71L21.57,18,18,21.59,12.71,16.3l-.7-.7-.71.7L6,21.59,2.41,18l5.3-5.29.7-.7-.7-.71L2.41,6M1,6l6,6L1,18l5,5,6-6,6,6,5-5-6-6,6-6L18,1,12,7,6,1,1,6Z"/><rect class="cls-5" width="24" height="24"/></g></g></g></svg>