<svg xmlns="http://www.w3.org/2000/svg" xmlns:xlink="http://www.w3.org/1999/xlink" viewBox="0 0 23 24"><defs><style>.cls-1{fill:none;}.cls-2{isolation:isolate;}.cls-3{opacity:0.9;fill:url(#Paper_Frame);}.cls-4{fill:url(#linear-gradient);}.cls-24,.cls-5{mix-blend-mode:screen;}.cls-5{fill:url(#linear-gradient-2);}.cls-6{fill:#787878;}.cls-7{fill:#f9d22b;}.cls-8{fill:#ffc438;}.cls-9{fill:#e9b94f;}.cls-10{fill:#b8bc64;}.cls-11{fill:#7cbf7b;}.cls-12{fill:#15b8b4;}.cls-13{fill:#09abbd;}.cls-14{fill:#307ec1;}.cls-15{fill:#353086;}.cls-16{fill:#39b79c;}.cls-17{clip-path:url(#clip-path);}.cls-18{fill:#aebd68;}.cls-19{fill:#f3ea18;}.cls-20{fill:#3e55a5;}.cls-21{fill:#e6b0ad;}.cls-22{opacity:0.4;mix-blend-mode:multiply;}.cls-23{fill:#b86d90;}.cls-24{opacity:0.36;}.cls-25{fill:url(#linear-gradient-3);}.cls-26{fill:url(#linear-gradient-4);}.cls-27{fill:#fff;opacity:0.3;}.cls-28{fill:url(#linear-gradient-5);}</style><linearGradient id="Paper_Frame" x1="1067.01" y1="182" x2="1067.01" y2="204" gradientTransform="translate(1078.01 204) rotate(180)" gradientUnits="userSpaceOnUse"><stop offset="0" stop-color="#404040"/><stop offset="0.88" stop-color="#a6a6a6"/></linearGradient><linearGradient id="linear-gradient" x1="42.64" y1="10.18" x2="61.1" y2="28.36" gradientTransform="translate(-45.19 -10.2) scale(1.08 1.1)" gradientUnits="userSpaceOnUse"><stop offset="0.51" stop-color="#fff"/><stop offset="0.77" stop-color="#e8e8e8"/><stop offset="1" stop-color="#d9d9d9"/></linearGradient><linearGradient id="linear-gradient-2" x1="11" y1="1" x2="11" y2="21" gradientUnits="userSpaceOnUse"><stop offset="0.25" stop-color="#fff"/><stop offset="1" stop-color="#010101"/></linearGradient><clipPath id="clip-path"><rect class="cls-1" x="10" y="6" width="9" height="9"/></clipPath><linearGradient id="linear-gradient-3" x1="5.33" y1="15" x2="22" y2="15" gradientUnits="userSpaceOnUse"><stop offset="0.09" stop-color="#7a7a7a"/><stop offset="0.96" stop-color="#fff"/></linearGradient><linearGradient id="linear-gradient-4" x1="10.69" y1="12.46" x2="16.88" y2="23.17" gradientUnits="userSpaceOnUse"><stop offset="0.1" stop-color="#bb6382"/><stop offset="0.88" stop-color="#70344b"/></linearGradient><linearGradient id="linear-gradient-5" x1="10.5" y1="23" x2="10.5" y2="19" gradientUnits="userSpaceOnUse"><stop offset="0.09" stop-color="#e6b0ad"/><stop offset="0.9" stop-color="#f5dede"/></linearGradient></defs><g class="cls-2"><g id="Layer_2" data-name="Layer 2"><g id="Icons"><g id="clearAllOutput_24"><rect class="cls-3" width="22" height="22"/><rect class="cls-4" x="1" y="1" width="20" height="20"/><path class="cls-5" d="M1,1V21H21V1ZM20,20.17H2V1.83H20Z"/><rect class="cls-6" x="3" y="7" width="5" height="1"/><rect class="cls-6" x="3" y="10" width="5" height="1"/><rect class="cls-6" x="3" y="13" width="5" height="1"/><rect class="cls-7" x="10" y="8" width="1.29" height="1.4"/><rect class="cls-7" x="11.29" y="8" width="1.29" height="1.4"/><rect class="cls-8" x="12.57" y="8" width="1.29" height="1.4"/><rect class="cls-9" x="13.86" y="8" width="1.29" height="1.4"/><rect class="cls-10" x="15.14" y="8" width="1.29" height="1.4"/><rect class="cls-11" x="16.43" y="8" width="1.29" height="1.4"/><rect class="cls-12" x="17.71" y="8" width="1.29" height="1.4"/><rect class="cls-7" x="10" y="9.4" width="1.29" height="1.4"/><rect class="cls-8" x="11.29" y="9.4" width="1.29" height="1.4"/><rect class="cls-9" x="12.57" y="9.4" width="1.29" height="1.4"/><rect class="cls-10" x="13.86" y="9.4" width="1.29" height="1.4"/><rect class="cls-11" x="15.14" y="9.4" width="1.29" height="1.4"/><rect class="cls-12" x="16.43" y="9.4" width="1.29" height="1.4"/><rect class="cls-13" x="17.71" y="9.4" width="1.29" height="1.4"/><rect class="cls-8" x="10" y="10.8" width="1.29" height="1.4"/><rect class="cls-9" x="11.29" y="10.8" width="1.29" height="1.4"/><rect class="cls-10" x="12.57" y="10.8" width="1.29" height="1.4"/><rect class="cls-11" x="13.86" y="10.8" width="1.29" height="1.4"/><rect class="cls-12" x="15.14" y="10.8" width="1.29" height="1.4"/><rect class="cls-13" x="16.43" y="10.8" width="1.29" height="1.4"/><rect class="cls-14" x="17.71" y="10.8" width="1.29" height="1.4"/><rect class="cls-9" x="10" y="12.2" width="1.29" height="1.4"/><rect class="cls-10" x="11.29" y="12.2" width="1.29" height="1.4"/><rect class="cls-11" x="12.57" y="12.2" width="1.29" height="1.4"/><rect class="cls-12" x="13.86" y="12.2" width="1.29" height="1.4"/><rect class="cls-13" x="15.14" y="12.2" width="1.29" height="1.4"/><rect class="cls-14" x="16.43" y="12.2" width="1.29" height="1.4"/><rect class="cls-15" x="17.71" y="12.2" width="1.29" height="1.4"/><rect class="cls-10" x="10" y="13.6" width="1.29" height="1.4"/><rect class="cls-11" x="11.29" y="13.6" width="1.29" height="1.4"/><rect class="cls-12" x="12.57" y="13.6" width="1.29" height="1.4"/><rect class="cls-13" x="13.86" y="13.6" width="1.29" height="1.4"/><rect class="cls-14" x="15.14" y="13.6" width="1.29" height="1.4"/><rect class="cls-15" x="16.43" y="13.6" width="1.29" height="1.4"/><rect class="cls-15" x="17.71" y="13.6" width="1.29" height="1.4"/><rect class="cls-16" x="10" y="6" width="9" height="9"/><g class="cls-17"><ellipse class="cls-11" cx="12.44" cy="13.54" rx="3.74" ry="4.21" transform="translate(-5.93 12.76) rotate(-45)"/><ellipse class="cls-18" cx="12.44" cy="13.54" rx="2.8" ry="3.27" transform="translate(-5.93 12.76) rotate(-45)"/><ellipse class="cls-8" cx="12.44" cy="13.54" rx="1.87" ry="2.34" transform="translate(-5.93 12.76) rotate(-45)"/><ellipse class="cls-19" cx="12.44" cy="13.54" rx="0.93" ry="1.4" transform="translate(-5.93 12.76) rotate(-45)"/><ellipse class="cls-13" cx="16.15" cy="8.85" rx="2.62" ry="3.06" transform="translate(-1.53 14.01) rotate(-45)"/><ellipse class="cls-14" cx="16.15" cy="8.85" rx="1.75" ry="2.19" transform="translate(-1.53 14.01) rotate(-45)"/><ellipse class="cls-20" cx="16.15" cy="8.85" rx="0.87" ry="1.31" transform="translate(-1.53 14.01) rotate(-45)"/></g><polygon class="cls-21" points="23 17 23 12.63 20.83 11 12.88 11.58 5 19 5 24 16 24 23 17"/><g class="cls-22"><polygon class="cls-23" points="15.83 18.29 15.96 23.58 22.71 17.04 22.58 12.29 22.04 11.83 15.83 18.29"/></g><g class="cls-24"><polygon class="cls-25" points="15.83 18.29 5.33 18.42 12.88 11.58 22 11.63 15.83 18.29"/></g><polygon class="cls-1" points="15.71 17.99 21.73 11.7 13.03 11.7 6.05 17.99 15.71 17.99"/><rect class="cls-1" x="5.7" y="18.59" width="9.83" height="4.71"/><polygon class="cls-1" points="16.13 18.41 16.13 22.88 22.3 16.71 22.3 11.97 16.13 18.41"/><path class="cls-26" d="M14.46,11a4.15,4.15,0,0,0-2.73.93L5.9,17.19A3.11,3.11,0,0,0,5,19v5h9.62A3.82,3.82,0,0,0,17,23l6-6V13a2,2,0,0,0-2-2ZM13,11.71h8.7L16.68,17a3.24,3.24,0,0,1-2.6,1h-8ZM5.7,18.59h7.72s2.11.12,2.11,1.91v2.8H5.7ZM16,22.88v-2.8a4.87,4.87,0,0,1,1.12-2.79L22.17,12v4.74Z"/><path class="cls-27" d="M20.62,11.75,15,17H7.17l-1,1h7.66a5.08,5.08,0,0,0,2.63-.78l5.27-5.51Z"/><polygon class="cls-28" points="15 23 6 23 6 19 14.04 19 15 19.58 15 23"/></g></g></g></g></svg>