<svg width="22" height="32" viewBox="0 0 22 32" fill="none" xmlns="http://www.w3.org/2000/svg">
<path fill-rule="evenodd" clip-rule="evenodd" d="M14.6909 1.52066V10.8551C18.8518 12.393 21.8182 16.3956 21.8182 21.0909C21.8182 27.1158 16.934 32 10.9091 32C4.88417 32 0 27.1158 0 21.0909C0 16.5057 2.82877 12.5812 6.83636 10.9675V1.52066H5.09091V0H16V1.52066H14.6909ZM7.6084 10.6901V5.7252V0.760332H13.9021V5.67892V10.5975L13.9029 10.5977V11.3564C18.0651 12.6349 21.0909 16.5095 21.0909 21.0909C21.0909 26.7142 16.5324 31.2727 10.9091 31.2727C5.28582 31.2727 0.727273 26.7142 0.727273 21.0909C0.727273 16.621 3.60758 12.8239 7.61341 11.4543V10.6885C7.61175 10.689 7.61006 10.6895 7.6084 10.6901Z" fill="url(#paint0_linear_132_282)"/>
<path d="M10.9091 31.2727C16.5324 31.2727 21.0909 26.7142 21.0909 21.0909C21.0909 19.2364 20.5951 17.4976 19.7288 16H2.08943C1.22311 17.4976 0.72728 19.2364 0.72728 21.0909C0.72728 26.7142 5.28583 31.2727 10.9091 31.2727Z" fill="url(#paint1_linear_132_282)"/>
<g style="mix-blend-mode:multiply">
<path d="M9.45455 13.0909C10.2579 13.0909 10.9091 12.4397 10.9091 11.6363C10.9091 10.833 10.2579 10.1818 9.45455 10.1818C8.6512 10.1818 8 10.833 8 11.6363C8 12.4397 8.6512 13.0909 9.45455 13.0909Z" fill="url(#paint2_linear_132_282)"/>
</g>
<g style="mix-blend-mode:multiply">
<path d="M13.8182 24.7273C14.6215 24.7273 15.2727 24.0761 15.2727 23.2728C15.2727 22.4694 14.6215 21.8182 13.8182 21.8182C13.0148 21.8182 12.3636 22.4694 12.3636 23.2728C12.3636 24.0761 13.0148 24.7273 13.8182 24.7273Z" fill="url(#paint3_linear_132_282)"/>
</g>
<g style="mix-blend-mode:multiply">
<path d="M11.6363 9.45452C12.8414 9.45452 13.8182 8.47772 13.8182 7.2727C13.8182 6.06772 12.8414 5.09088 11.6363 5.09088C10.4313 5.09088 9.45451 6.06772 9.45451 7.2727C9.45451 8.47772 10.4313 9.45452 11.6363 9.45452Z" fill="url(#paint4_linear_132_282)"/>
</g>
<g style="mix-blend-mode:multiply">
<path d="M8.72726 23.2728C9.93228 23.2728 10.9091 22.296 10.9091 21.0909C10.9091 19.886 9.93228 18.9091 8.72726 18.9091C7.52224 18.9091 6.54544 19.886 6.54544 21.0909C6.54544 22.296 7.52224 23.2728 8.72726 23.2728Z" fill="url(#paint5_linear_132_282)"/>
</g>
<g style="mix-blend-mode:multiply" opacity="0.6">
<path d="M11.2727 18.1818C12.2768 18.1818 13.0909 17.3678 13.0909 16.3637C13.0909 15.3595 12.2768 14.5455 11.2727 14.5455C10.2685 14.5455 9.45451 15.3595 9.45451 16.3637C9.45451 17.3678 10.2685 18.1818 11.2727 18.1818Z" fill="url(#paint6_linear_132_282)"/>
</g>
<g style="mix-blend-mode:multiply" opacity="0.6">
<path d="M10.5455 28.3635C11.5496 28.3635 12.3636 27.5495 12.3636 26.5454C12.3636 25.5412 11.5496 24.7272 10.5455 24.7272C9.54132 24.7272 8.72728 25.5412 8.72728 26.5454C8.72728 27.5495 9.54132 28.3635 10.5455 28.3635Z" fill="url(#paint7_linear_132_282)"/>
</g>
<defs>
<linearGradient id="paint0_linear_132_282" x1="10.9091" y1="0" x2="10.9091" y2="32" gradientUnits="userSpaceOnUse">
<stop stop-color="#666666"/>
<stop offset="1" stop-color="#1D1D1D"/>
</linearGradient>
<linearGradient id="paint1_linear_132_282" x1="10.9091" y1="16" x2="10.9091" y2="31.2727" gradientUnits="userSpaceOnUse">
<stop stop-color="#EF733F"/>
<stop offset="1" stop-color="#FFC098"/>
</linearGradient>
<linearGradient id="paint2_linear_132_282" x1="9.45455" y1="10.1818" x2="9.45455" y2="13.0909" gradientUnits="userSpaceOnUse">
<stop stop-color="#EF733F"/>
<stop offset="1" stop-color="#FFC098"/>
</linearGradient>
<linearGradient id="paint3_linear_132_282" x1="13.8182" y1="21.8182" x2="13.8182" y2="24.7273" gradientUnits="userSpaceOnUse">
<stop stop-color="#EF733F"/>
<stop offset="1" stop-color="#FFC098"/>
</linearGradient>
<linearGradient id="paint4_linear_132_282" x1="11.6363" y1="5.09088" x2="11.6363" y2="9.45452" gradientUnits="userSpaceOnUse">
<stop stop-color="#EF733F"/>
<stop offset="1" stop-color="#FFC098"/>
</linearGradient>
<linearGradient id="paint5_linear_132_282" x1="8.72726" y1="18.9091" x2="8.72726" y2="23.2728" gradientUnits="userSpaceOnUse">
<stop stop-color="#EF733F"/>
<stop offset="1" stop-color="#FFC098"/>
</linearGradient>
<linearGradient id="paint6_linear_132_282" x1="11.2727" y1="14.5455" x2="11.2727" y2="18.1818" gradientUnits="userSpaceOnUse">
<stop stop-color="#EF733F"/>
<stop offset="1" stop-color="#FFC098"/>
</linearGradient>
<linearGradient id="paint7_linear_132_282" x1="10.5455" y1="24.7272" x2="10.5455" y2="28.3635" gradientUnits="userSpaceOnUse">
<stop stop-color="#EF733F"/>
<stop offset="1" stop-color="#FFC098"/>
</linearGradient>
</defs>
</svg>
