<svg width="32" height="32" viewBox="0 0 32 32" fill="none" xmlns="http://www.w3.org/2000/svg">
<path d="M1 15.5C1 7.49187 7.49187 1 15.5 1C23.5081 1 30 7.49187 30 15.5C30 23.5081 23.5081 30 15.5 30C7.49187 30 1 23.5081 1 15.5Z" fill="var(--mw-icon-object-primary, #616160)"/>
<path d="M13.7093 18.6774C13.7093 17.6048 13.85 16.75 14.1314 16.1129C14.4128 15.4758 14.9671 14.7782 15.7942 14.0202C16.6298 13.254 17.1585 12.7097 17.3802 12.3871C17.7213 11.8952 17.8919 11.3629 17.8919 10.7903C17.8919 10.0323 17.6915 9.45565 17.2907 9.06048C16.8984 8.65726 16.3186 8.45565 15.5512 8.45565C14.8178 8.45565 14.2252 8.65323 13.7733 9.04839C13.3298 9.43548 13.1081 9.96371 13.1081 10.6331H10C10.0171 9.20565 10.5287 8.07661 11.5349 7.24597C12.5496 6.41532 13.8884 6 15.5512 6C17.2651 6 18.5996 6.41129 19.5547 7.23387C20.5182 8.05645 21 9.20565 21 10.6815C21 11.996 20.3519 13.2903 19.0558 14.5645L17.4826 16.0282C16.9198 16.6331 16.6298 17.5161 16.6128 18.6774H13.7093ZM13.4919 22.4395C13.4919 21.9637 13.6496 21.5806 13.9651 21.2903C14.2806 20.9919 14.707 20.8427 15.2442 20.8427C15.7899 20.8427 16.2205 20.996 16.536 21.3024C16.8516 21.6008 17.0093 21.9798 17.0093 22.4395C17.0093 22.8831 16.8558 23.254 16.5488 23.5524C16.2419 23.8508 15.807 24 15.2442 24C14.6814 24 14.2465 23.8508 13.9395 23.5524C13.6411 23.254 13.4919 22.8831 13.4919 22.4395Z" fill="var(--mw-icon-object-secondary, #FFFFFE)"/>
</svg>
