<svg width="32" height="32" viewBox="0 0 32 32" fill="none" xmlns="http://www.w3.org/2000/svg">
<path d="M1 15.5C1 7.49187 7.49187 1 15.5 1C23.5081 1 30 7.49187 30 15.5C30 23.5081 23.5081 30 15.5 30C7.49187 30 1 23.5081 1 15.5Z" fill="var(--mw-icon-glyph-content-light-blue, #278CDD)"/>
<path d="M14 14.5C14 13.6716 14.6716 13 15.5 13C16.3284 13 17 13.6716 17 14.5L17 22.5C17 23.3284 16.3284 24 15.5 24C14.6716 24 14 23.3284 14 22.5L14 14.5Z" fill="var(--mw-icon-background-default-white, #FFFFFF)"/>
<path d="M14 8.5C14 7.67157 14.6716 7 15.5 7C16.3284 7 17 7.67157 17 8.5C17 9.32843 16.3284 10 15.5 10C14.6716 10 14 9.32843 14 8.5Z" fill="white"/>
</svg>
