<svg width="32" height="32" viewBox="0 0 32 32" fill="none" xmlns="http://www.w3.org/2000/svg">
<path d="M4 29L4 2" stroke="var(--mw-icon-background-default-dark-gray, #A6A6A6)" stroke-width="2" stroke-linecap="round"/>
<path d="M10 29L10 7" stroke="var(--mw-icon-background-default-dark-gray, #A6A6A6)" stroke-width="2" stroke-linecap="round"/>
<path d="M16 29V13" stroke="var(--mw-icon-background-default-dark-gray, #A6A6A6)" stroke-width="2" stroke-linecap="round"/>
<path d="M22 29V18" stroke="var(--mw-icon-background-default-dark-gray, #A6A6A6)" stroke-width="2" stroke-linecap="round"/>
<path d="M28 29V23" stroke="var(--mw-icon-background-default-dark-gray, #A6A6A6)" stroke-width="2" stroke-linecap="round"/>
<path d="M1 29H31" stroke="var(--mw-icon-background-default-dark-gray, #A6A6A6)" stroke-width="2" stroke-linecap="round"/>
<path d="M4 5C5.10457 5 6 4.10457 6 3C6 1.89543 5.10457 1 4 1C2.89543 1 2 1.89543 2 3C2 4.10457 2.89543 5 4 5Z" fill="var(--mw-icon-object-primary, #616160)"/>
<path d="M10 20C11.1046 20 12 19.1046 12 18C12 16.8954 11.1046 16 10 16C8.89543 16 8 16.8954 8 18C8 19.1046 8.89543 20 10 20Z" fill="var(--mw-icon-object-primary, #616160)"/>
<path d="M16 24C17.1046 24 18 23.1046 18 22C18 20.8954 17.1046 20 16 20C14.8954 20 14 20.8954 14 22C14 23.1046 14.8954 24 16 24Z" fill="var(--mw-icon-object-primary, #616160)"/>
<path d="M22 28C23.1046 28 24 27.1046 24 26C24 24.8954 23.1046 24 22 24C20.8954 24 20 24.8954 20 26C20 27.1046 20.8954 28 22 28Z" fill="var(--mw-icon-object-primary, #616160)"/>
<path d="M28 31C29.1046 31 30 30.1046 30 29C30 27.8954 29.1046 27 28 27C26.8954 27 26 27.8954 26 29C26 30.1046 26.8954 31 28 31Z" fill="var(--mw-icon-object-primary, #616160)"/>
</svg>
