<svg width="32" height="32" viewBox="0 0 32 32" fill="none" xmlns="http://www.w3.org/2000/svg">
<path d="M2 16H30" stroke="var(--mw-icon-background-default-dark-gray, #A6A6A6)" stroke-width="2" stroke-linecap="round"/>
<path d="M16 30V2" stroke="var(--mw-icon-background-default-dark-gray, #A6A6A6)" stroke-width="2" stroke-linecap="round"/>
<path d="M30 2C15.4716 2 17 27.5 2 26" stroke="var(--mw-icon-object-primary, #616160)" stroke-width="2" stroke-linecap="round" stroke-linejoin="round"/>
<path fill-rule="evenodd" clip-rule="evenodd" d="M6.59534 9.21191H6.7705V8.06934H6.59534V9.21191ZM9.77832 5.80859L7.47851 8.27441V9.21191H12.3418V8.11328H9.29492L10.5303 6.72656C10.7679 6.48568 10.9844 6.25293 11.1797 6.02832C11.375 5.80371 11.541 5.58236 11.6777 5.36426C11.8177 5.1429 11.9251 4.92155 12 4.7002C12.0749 4.47559 12.1123 4.24609 12.1123 4.01172C12.1123 3.59505 12.0228 3.23698 11.8437 2.9375C11.668 2.63477 11.4075 2.40365 11.0625 2.24414C10.7207 2.08138 10.3008 2 9.80273 2C9.29817 2 8.86198 2.10579 8.49414 2.31738C8.1263 2.52572 7.84147 2.80729 7.63965 3.16211C7.58763 3.25271 7.54233 3.34569 7.50372 3.44104C7.39251 3.7157 7.33691 4.0101 7.33691 4.32422H8.74804C8.74804 4.08984 8.78711 3.87988 8.86523 3.69434C8.94661 3.50879 9.0638 3.36393 9.21679 3.25977C9.37304 3.1556 9.55859 3.10352 9.77343 3.10352C9.97526 3.10352 10.1445 3.14583 10.2812 3.23047C10.4212 3.3151 10.527 3.43555 10.5986 3.5918C10.6702 3.74479 10.7061 3.92871 10.7061 4.14355C10.7061 4.28678 10.6751 4.43815 10.6133 4.59766C10.5547 4.75391 10.4587 4.93132 10.3252 5.12988C10.1917 5.3252 10.0094 5.55143 9.77832 5.80859ZM6.76562 2.92758V3.25H6.63214C6.6704 3.14062 6.71488 3.03309 6.76562 2.92758Z" fill="var(--mw-icon-object-primary, #616160)"/>
<path fill-rule="evenodd" clip-rule="evenodd" d="M7.65368 8.0866L7.47852 8.27441V9.21191H7.65368V8.0866ZM6.77051 9.21191V8.06934H3.46484V6.11133H6.27734V4.99805H3.46484V3.25H6.76562V2.10254H2V9.21191H6.77051ZM7.34395 4.13318C7.36748 3.81783 7.45006 3.52344 7.59168 3.25C7.60698 3.22046 7.62297 3.19116 7.63965 3.16211C7.64268 3.15678 7.64573 3.15146 7.6488 3.14617V4.13318H7.34395Z" fill="var(--mw-icon-object-primary, #616160)"/>
</svg>
