<svg width="32" height="32" viewBox="0 0 32 32" fill="none" xmlns="http://www.w3.org/2000/svg">
<path d="M4 29L4 2" stroke="var(--mw-icon-background-default-dark-gray, #A6A6A6)" stroke-width="2" stroke-linecap="round"/>
<path d="M10 29L10 7" stroke="var(--mw-icon-background-default-dark-gray, #A6A6A6)" stroke-width="2" stroke-linecap="round"/>
<path d="M16 29V13" stroke="var(--mw-icon-background-default-dark-gray, #A6A6A6)" stroke-width="2" stroke-linecap="round"/>
<path d="M22 29V18" stroke="var(--mw-icon-background-default-dark-gray, #A6A6A6)" stroke-width="2" stroke-linecap="round"/>
<path d="M28 29V23" stroke="var(--mw-icon-background-default-dark-gray, #A6A6A6)" stroke-width="2" stroke-linecap="round"/>
<path d="M1 29H31" stroke="var(--mw-icon-background-default-dark-gray, #A6A6A6)" stroke-width="2" stroke-linecap="round"/>
<path d="M4 5C5.10457 5 6 4.10457 6 3C6 1.89543 5.10457 1 4 1C2.89543 1 2 1.89543 2 3C2 4.10457 2.89543 5 4 5Z" fill="var(--mw-icon-object-primary, #616160)"/>
<path d="M10 31C11.1046 31 12 30.1046 12 29C12 27.8954 11.1046 27 10 27C8.89543 27 8 27.8954 8 29C8 30.1046 8.89543 31 10 31Z" fill="var(--mw-icon-object-primary, #616160)"/>
<path d="M16 31C17.1046 31 18 30.1046 18 29C18 27.8954 17.1046 27 16 27C14.8954 27 14 27.8954 14 29C14 30.1046 14.8954 31 16 31Z" fill="var(--mw-icon-object-primary, #616160)"/>
<path d="M22 31C23.1046 31 24 30.1046 24 29C24 27.8954 23.1046 27 22 27C20.8954 27 20 27.8954 20 29C20 30.1046 20.8954 31 22 31Z" fill="var(--mw-icon-object-primary, #616160)"/>
<path d="M28 31C29.1046 31 30 30.1046 30 29C30 27.8954 29.1046 27 28 27C26.8954 27 26 27.8954 26 29C26 30.1046 26.8954 31 28 31Z" fill="var(--mw-icon-object-primary, #616160)"/>
</svg>
