<svg width="32" height="32" viewBox="0 0 32 32" fill="none" xmlns="http://www.w3.org/2000/svg">
<path d="M1 15.5C1 7.49187 7.49187 1 15.5 1C23.5081 1 30 7.49187 30 15.5C30 23.5081 23.5081 30 15.5 30C7.49187 30 1 23.5081 1 15.5Z" fill="#3BAA32"/>
<path fill-rule="evenodd" clip-rule="evenodd" d="M24.5607 9.43934C25.1464 10.0251 25.1464 10.9749 24.5607 11.5607L13.5607 22.5607C12.9749 23.1464 12.0251 23.1464 11.4393 22.5607L6.43934 17.5607C5.85355 16.9749 5.85355 16.0251 6.43934 15.4393C7.02513 14.8536 7.97487 14.8536 8.56066 15.4393L12.5 19.3787L22.4393 9.43934C23.0251 8.85355 23.9749 8.85355 24.5607 9.43934Z" fill="var(--mw-icon-background-default-white, #FFFFFF)"/>
</svg>
