<svg width="32" height="32" viewBox="0 0 32 32" fill="none" xmlns="http://www.w3.org/2000/svg">
<path d="M28.954 30H2.04598C0.504306 30 -0.481969 28.3781 0.242383 27.034L13.6964 2.06977C14.4651 0.643409 16.5349 0.64341 17.3036 2.06977L30.7576 27.034C31.482 28.3781 30.4957 30 28.954 30Z" fill="var(--mw-icon-object-primary, #616160)"/>
<path d="M17 18.5C17 19.3284 16.3284 20 15.5 20C14.6716 20 14 19.3284 14 18.5L14 10.5C14 9.67157 14.6716 9 15.5 9C16.3284 9 17 9.67157 17 10.5L17 18.5Z" fill="var(--mw-icon-object-secondary, #FFFFFE)"/>
<path d="M17 24.5C17 25.3284 16.3284 26 15.5 26C14.6716 26 14 25.3284 14 24.5C14 23.6716 14.6716 23 15.5 23C16.3284 23 17 23.6716 17 24.5Z" fill="var(--mw-icon-object-secondary, #FFFFFE)"/>
</svg>
