<svg xmlns="http://www.w3.org/2000/svg" xmlns:xlink="http://www.w3.org/1999/xlink" viewBox="0 0 16 16"><defs><style>.cls-1{isolation:isolate;}.cls-2{fill:url(#linear-gradient);}.cls-3{opacity:0.2;mix-blend-mode:multiply;}.cls-4{fill:url(#linear-gradient-2);}.cls-5{fill:url(#linear-gradient-3);}.cls-6{fill:url(#linear-gradient-4);}.cls-7{fill:url(#linear-gradient-5);}.cls-8{fill:#fff;}.cls-9{fill:url(#linear-gradient-6);}</style><linearGradient id="linear-gradient" x1="7" y1="13" x2="7" y2="1" gradientUnits="userSpaceOnUse"><stop offset="0.04" stop-color="#263658"/><stop offset="0.99" stop-color="#40668c"/></linearGradient><linearGradient id="linear-gradient-2" x1="1.5" y1="3" x2="1.5" y2="0" xlink:href="#linear-gradient"/><linearGradient id="linear-gradient-3" x1="12.5" y1="3" x2="12.5" y2="0" xlink:href="#linear-gradient"/><linearGradient id="linear-gradient-4" x1="12.5" y1="15" x2="12.5" y2="12" xlink:href="#linear-gradient"/><linearGradient id="linear-gradient-5" x1="1.5" y1="14" x2="1.5" y2="11" xlink:href="#linear-gradient"/><linearGradient id="linear-gradient-6" x1="11.5" y1="16" x2="11.5" y2="7" xlink:href="#linear-gradient"/></defs><g class="cls-1"><g id="Layer_2" data-name="Layer 2"><g id="Icons"><g id="addToGroup_16"><path class="cls-2" d="M12,2V12H2V2M13,1H1V13H13V1Z"/><g class="cls-3"><path d="M8,6v4H4V6ZM6,5H3v6H9V5Z"/></g><g class="cls-3"><path d="M10,4V8H6V4ZM8,3H5V9h6V3Z"/></g><rect class="cls-4" width="3" height="3"/><rect class="cls-5" x="11" width="3" height="3"/><rect class="cls-6" x="11" y="12" width="3" height="3"/><rect class="cls-7" y="11" width="3" height="3"/><rect class="cls-8" x="1" y="1" width="1" height="1"/><rect class="cls-8" x="12" y="1" width="1" height="1"/><rect class="cls-8" x="1" y="12" width="1" height="1"/><rect class="cls-8" x="12" y="13" width="1" height="1"/><circle class="cls-9" cx="11.5" cy="11.5" r="4.5"/><rect class="cls-8" x="9" y="11" width="5" height="1"/><rect class="cls-8" x="11" y="9" width="1" height="5"/></g></g></g></g></svg>