<?xml version="1.0" encoding="UTF-8"?>
<!-- Copyright 2023 The MathWorks, Inc. -->
<svg xmlns="http://www.w3.org/2000/svg" 
     xmlns:d="http://www.mathworks.com/blockgraphics"
     version="1.1"
     width="150"
     height="80"
     viewBox="0 0 150 80"
     id="Layer_1">
<defs>
</defs>
<title>GetTransform ROS_041423</title>
<g transform="matrix(1 0 0 1 0 0)"  >
<g style=""   >
</g>
</g>
<g transform="matrix(0.59 0 0 0.59 96.65 42.41)"  >
<g style=""   >
		<g transform="matrix(1 0 0 1 21.06 2.81)" id="Layer_1"  >
<line style="stroke: rgb(198,198,198); stroke-width: 0.75; stroke-dasharray: none; stroke-linecap: round; stroke-dashoffset: 0; stroke-linejoin: round; stroke-miterlimit: 4; fill: none; fill-rule: nonzero; opacity: 1;"  x1="-3.5" y1="0" x2="3.5" y2="0" />
</g>
		<g transform="matrix(1 0 0 1 25.52 2.81)" id="Layer_1"  >
<polygon style="stroke: none; stroke-width: 1; stroke-dasharray: none; stroke-linecap: butt; stroke-dashoffset: 0; stroke-linejoin: miter; stroke-miterlimit: 4; fill: rgb(198,198,198); fill-rule: nonzero; opacity: 1;"  points="-1.46,1.69 1.45,0 -1.46,-1.68 -1.46,1.69 " />
</g>
		<g transform="matrix(1 0 0 1 19.2 3.49)" id="Layer_1"  >
<path style="stroke: rgb(198,198,198); stroke-width: 1; stroke-dasharray: none; stroke-linecap: round; stroke-dashoffset: 0; stroke-linejoin: round; stroke-miterlimit: 4; fill: none; fill-rule: nonzero; opacity: 1;"  transform=" translate(-94.2, -33.49)" d="M 85.9 46.85 c 9.77 -2.46 16.6 -8.13 16.6 -14.72 c 0 -4.8 -3.61 -9.1 -9.34 -12" stroke-linecap="round" />
</g>
		<g transform="matrix(1 0 0 1 14.65 3.48)" id="Layer_1"  >
<path style="stroke: rgb(51,51,51); stroke-width: 1; stroke-dasharray: none; stroke-linecap: round; stroke-dashoffset: 0; stroke-linejoin: round; stroke-miterlimit: 4; fill: none; fill-rule: nonzero; opacity: 1;"  transform=" translate(-89.65, -33.48)" d="M 93.16 20.1 a 36.4 36.4 0 0 1 -2.64 18.27 a 40.62 40.62 0 0 1 -4.62 8.48" stroke-linecap="round" />
</g>
		<g transform="matrix(1 0 0 1 3.63 -16.63)" id="Layer_1"  >
<path style="stroke: rgb(51,51,51); stroke-width: 1; stroke-dasharray: none; stroke-linecap: round; stroke-dashoffset: 0; stroke-linejoin: round; stroke-miterlimit: 4; fill: none; fill-rule: nonzero; opacity: 1;"  transform=" translate(-78.63, -13.37)" d="M 93.16 20.1 C 92.32 14 89.48 9.25 84.93 7.43 c -6.6 -2.66 -14.87 1.64 -20.83 10" stroke-linecap="round" />
</g>
		<g transform="matrix(1 0 0 1 -2.1 16.85)" id="Layer_1"  >
<path style="stroke: rgb(198,198,198); stroke-width: 1; stroke-dasharray: none; stroke-linecap: round; stroke-dashoffset: 0; stroke-linejoin: round; stroke-miterlimit: 4; fill: none; fill-rule: nonzero; opacity: 1;"  transform=" translate(-72.9, -46.85)" d="M 85.9 46.85 A 44.91 44.91 0 0 1 75 48.16 a 42.63 42.63 0 0 1 -15.1 -2.63" stroke-linecap="round" />
</g>
		<g transform="matrix(1 0 0 1 -3.63 20.89)" id="Layer_1"  >
<path style="stroke: rgb(51,51,51); stroke-width: 1; stroke-dasharray: none; stroke-linecap: round; stroke-dashoffset: 0; stroke-linejoin: round; stroke-miterlimit: 4; fill: none; fill-rule: nonzero; opacity: 1;"  transform=" translate(-71.37, -50.89)" d="M 56.84 44.16 c 0.84 6.09 3.68 10.84 8.23 12.67 c 6.6 2.66 14.87 -1.64 20.83 -10" stroke-linecap="round" />
</g>
		<g transform="matrix(1 0 0 1 -19.2 0.77)" id="Layer_1"  >
<path style="stroke: rgb(198,198,198); stroke-width: 1; stroke-dasharray: none; stroke-linecap: round; stroke-dashoffset: 0; stroke-linejoin: round; stroke-miterlimit: 4; fill: none; fill-rule: nonzero; opacity: 1;"  transform=" translate(-55.8, -30.77)" d="M 64.1 17.41 c -9.77 2.46 -16.6 8.12 -16.6 14.72 c 0 4.79 3.61 9.09 9.34 12" stroke-linecap="round" />
</g>
		<g transform="matrix(1 0 0 1 -16.63 14.84)" id="Layer_1"  >
<path style="stroke: rgb(198,198,198); stroke-width: 1; stroke-dasharray: none; stroke-linecap: round; stroke-dashoffset: 0; stroke-linejoin: round; stroke-miterlimit: 4; fill: none; fill-rule: nonzero; opacity: 1;"  transform=" translate(-58.37, -44.84)" d="M 59.9 45.53 a 31.78 31.78 0 0 1 -3.06 -1.37" stroke-linecap="round" />
</g>
		<g transform="matrix(1 0 0 1 1.36 3.92)" id="Layer_1"  >
<line style="stroke: rgb(117,117,117); stroke-width: 1; stroke-dasharray: 2 2; stroke-linecap: round; stroke-dashoffset: 0; stroke-linejoin: round; stroke-miterlimit: 4; fill: none; fill-rule: nonzero; opacity: 1;"  x1="-12.265" y1="-16.509999999999998" x2="12.265" y2="16.509999999999998" />
</g>
		<g transform="matrix(1 0 0 1 13.51 20.72)" id="Layer_1"  >
<polygon style="stroke: none; stroke-width: 1; stroke-dasharray: none; stroke-linecap: butt; stroke-dashoffset: 0; stroke-linejoin: miter; stroke-miterlimit: 4; fill: rgb(117,117,117); fill-rule: nonzero; opacity: 1;"  points="-1.6,0.34 1.6,1.73 1.2,-1.74 -1.6,0.34 " />
</g>
		<g transform="matrix(1 0 0 1 0.56 -11.19)" id="Layer_1"  >
<line style="stroke: rgb(198,198,198); stroke-width: 0.75; stroke-dasharray: none; stroke-linecap: round; stroke-dashoffset: 0; stroke-linejoin: round; stroke-miterlimit: 4; fill: none; fill-rule: nonzero; opacity: 1;"  x1="0" y1="14.000000000000002" x2="0" y2="-14.000000000000002" />
</g>
		<g transform="matrix(1 0 0 1 0.56 -26.16)" id="Layer_1"  >
<polygon style="stroke: none; stroke-width: 1; stroke-dasharray: none; stroke-linecap: butt; stroke-dashoffset: 0; stroke-linejoin: miter; stroke-miterlimit: 4; fill: rgb(198,198,198); fill-rule: nonzero; opacity: 1;"  points="1.68,1.46 0,-1.45 -1.68,1.46 1.68,1.46 " />
</g>
		<g transform="matrix(1 0 0 1 -3.31 8.81)" id="Layer_1"  >
<line style="stroke: rgb(198,198,198); stroke-width: 0.75; stroke-dasharray: none; stroke-linecap: round; stroke-dashoffset: 0; stroke-linejoin: round; stroke-miterlimit: 4; fill: none; fill-rule: nonzero; opacity: 1;"  x1="3.865000000000002" y1="-6" x2="-3.865000000000002" y2="6" />
</g>
		<g transform="matrix(1 0 0 1 -6.98 15.17)" id="Layer_1"  >
<polygon style="stroke: none; stroke-width: 1; stroke-dasharray: none; stroke-linecap: butt; stroke-dashoffset: 0; stroke-linejoin: miter; stroke-miterlimit: 4; fill: rgb(198,198,198); fill-rule: nonzero; opacity: 1;"  points="-1.33,-1.68 -1.5,1.68 1.5,0.14 -1.33,-1.68 " />
</g>
		<g transform="matrix(1 0 0 1 7.12 3.94)" id="Layer_1"  >
<line style="stroke: rgb(51,51,51); stroke-width: 0.75; stroke-dasharray: none; stroke-linecap: round; stroke-dashoffset: 0; stroke-linejoin: round; stroke-miterlimit: 4; fill: none; fill-rule: nonzero; opacity: 1;"  x1="6.560000000000002" y1="1.129999999999999" x2="-6.560000000000002" y2="-1.129999999999999" />
</g>
		<g transform="matrix(1 0 0 1 14.49 4.98)" id="Layer_1"  >
<polygon style="stroke: none; stroke-width: 1; stroke-dasharray: none; stroke-linecap: butt; stroke-dashoffset: 0; stroke-linejoin: miter; stroke-miterlimit: 4; fill: rgb(51,51,51); fill-rule: nonzero; opacity: 1;"  points="-1.01,-1.66 1.58,0.5 -1.58,1.66 -1.01,-1.66 " />
</g>
		<g transform="matrix(1 0 0 1 -5.95 -8.3)" id="Layer_1"  >
<polyline style="stroke: rgb(51,51,51); stroke-width: 0.75; stroke-dasharray: none; stroke-linecap: round; stroke-dashoffset: 0; stroke-linejoin: round; stroke-miterlimit: 4; fill: none; fill-rule: nonzero; opacity: 1;"  points="15.55,-11.11 6.53,11.1 -15.55,-2.98 " />
</g>
		<g transform="matrix(1 0 0 1 9.4 -19.99)" id="Layer_1"  >
<polygon style="stroke: none; stroke-width: 1; stroke-dasharray: none; stroke-linecap: butt; stroke-dashoffset: 0; stroke-linejoin: miter; stroke-miterlimit: 4; fill: rgb(51,51,51); fill-rule: nonzero; opacity: 1;"  points="-1.56,0.4 1.1,-1.67 1.56,1.67 -1.56,0.4 " />
</g>
		<g transform="matrix(1 0 0 1 -21.86 -11.1)" id="Layer_1"  >
<polygon style="stroke: none; stroke-width: 1; stroke-dasharray: none; stroke-linecap: butt; stroke-dashoffset: 0; stroke-linejoin: miter; stroke-miterlimit: 4; fill: rgb(51,51,51); fill-rule: nonzero; opacity: 1;"  points="1.68,-1.34 -1.68,-1.49 -0.13,1.49 1.68,-1.34 " />
</g>
</g>
</g>
<g transform="matrix(1 0 0 1 64 51)"  >
<path style="stroke: rgb(0,0,0); stroke-width: 1; stroke-dasharray: none; stroke-linecap: round; stroke-dashoffset: 0; stroke-linejoin: round; stroke-miterlimit: 10; fill: none; fill-rule: nonzero; opacity: 1;"  transform=" translate(-64, -51)" d="M 63.999 51 L 64.001 51" stroke-linecap="round" />
</g>
<g transform="matrix(1 0 0 1 75 40)"  >
<g style=""   >
		<g transform="matrix(1 0 0 1 -8.81 3.97)" id="Layer_1"  >
<line style="stroke: rgb(51,51,51); stroke-width: 2; stroke-dasharray: none; stroke-linecap: butt; stroke-dashoffset: 0; stroke-linejoin: miter; stroke-miterlimit: 10; fill: none; fill-rule: nonzero; opacity: 1;"  x1="7.524999999999999" y1="0" x2="-7.524999999999999" y2="0" />
</g>
		<g transform="matrix(1 0 0 1 0.72 3.97)" id="Layer_1"  >
<polygon style="stroke: none; stroke-width: 1; stroke-dasharray: none; stroke-linecap: butt; stroke-dashoffset: 0; stroke-linejoin: miter; stroke-miterlimit: 4; fill: rgb(51,51,51); fill-rule: nonzero; opacity: 1;"  points="-3.02,-3.49 3.02,0 -3.02,3.49 -3.02,-3.49 " />
</g>
		<g transform="matrix(1 0 0 1 -26.37 2)" id="Layer_1"  >
<path style="stroke: none; stroke-width: 1; stroke-dasharray: none; stroke-linecap: butt; stroke-dashoffset: 0; stroke-linejoin: miter; stroke-miterlimit: 4; fill: rgb(255,255,255); fill-rule: nonzero; opacity: 1;"  transform=" translate(-33.63, -32)" d="M 16 41 a 0.5 0.5 0 0 1 -0.38 -0.18 a 3.3 3.3 0 0 1 2.51 -5.46 h 0 A 4.49 4.49 0 0 1 22.67 31 a 4.28 4.28 0 0 1 1.13 0.15 a 6.18 6.18 0 0 1 -0.06 -0.85 A 7.27 7.27 0 0 1 31 23 a 7.19 7.19 0 0 1 6.35 3.78 a 3.08 3.08 0 0 1 0.5 0 A 3.5 3.5 0 0 1 41.14 29 a 6.76 6.76 0 0 1 0.92 -0.06 a 7.27 7.27 0 0 1 7.26 7.26 s 0 0.05 0 0.08 a 3.61 3.61 0 0 1 3.12 3.57 a 3.68 3.68 0 0 1 -0.08 0.75 a 0.5 0.5 0 0 1 -0.49 0.4 Z" stroke-linecap="round" />
</g>
		<g transform="matrix(1 0 0 1 -26.38 2.05)" id="Layer_1"  >
<path style="stroke: none; stroke-width: 1; stroke-dasharray: none; stroke-linecap: butt; stroke-dashoffset: 0; stroke-linejoin: miter; stroke-miterlimit: 4; fill: rgb(51,51,51); fill-rule: nonzero; opacity: 1;"  transform=" translate(-33.62, -32.05)" d="M 31 23.53 a 6.74 6.74 0 0 1 6.08 3.85 a 3 3 0 0 1 3.7 2.23 a 6.73 6.73 0 0 1 8 6.63 c 0 0.19 0 0.36 -0.05 0.54 h 0.05 a 3.11 3.11 0 0 1 3 3.76 H 16 a 2.8 2.8 0 0 1 2.13 -4.63 a 2.83 2.83 0 0 1 0.57 0.06 a 3.93 3.93 0 0 1 0 -0.48 a 4 4 0 0 1 4 -4 a 3.94 3.94 0 0 1 1.8 0.45 A 6.68 6.68 0 0 1 31 23.53 m 0 -1 a 7.77 7.77 0 0 0 -7.76 7.76 q 0 0.12 0 0.23 a 4.74 4.74 0 0 0 -0.58 0 a 5 5 0 0 0 -5 4.44 a 3.8 3.8 0 0 0 -2.44 6.26 a 1 1 0 0 0 0.76 0.35 H 51.86 a 1 1 0 0 0 1 -0.79 a 4.11 4.11 0 0 0 -3 -4.85 a 7.77 7.77 0 0 0 -7.75 -7.42 l -0.61 0 a 4 4 0 0 0 -3.6 -2.24 h -0.23 A 7.68 7.68 0 0 0 31 22.53 Z" stroke-linecap="round" />
</g>
		<g transform="matrix(1 0 0 1 -26.36 6.38)" style="" id="Layer_1"  >
		<text xml:space="preserve" font-family="Helvetica, Helvetica" font-size="8" font-style="normal" font-weight="normal" style="stroke: none; stroke-width: 1; stroke-dasharray: none; stroke-linecap: butt; stroke-dashoffset: 0; stroke-linejoin: miter; stroke-miterlimit: 4; fill: rgb(51,51,51); fill-rule: nonzero; opacity: 1; white-space: pre;" ><tspan x="-8.67" y="2.51" >ROS</tspan></text>
</g>
</g>
</g>
</svg>