<?xml version="1.0" encoding="utf-8"?>
<!-- Copyright 2022 The MathWorks, Inc. -->
<svg xmlns="http://www.w3.org/2000/svg"
     xmlns:d="https://www.mathworks.com/blockgraphics"
     d:options="PreserveAspect:On;Resize:FitToBlock;Frame:Adaptive;Rotate:Off"
     id="Layer_1"
     version="1.1"
     viewBox="-8 -4 50 40"
     height="60"
     width="110">
   <defs>
      <style>.cls-1{font-size:6.5px;font-family:Helvetica;}</style>
   </defs>
   <g style="isolation:isolate">
      <g data-name="Layer 1" id="a41e8e05-9e76-4183-8fcb-c1b5d3e7c2a0">
         <path d="M27.41,25.19a1,1,0,0,0,0-1.41,1,1,0,0,0-1.41,0l-1,1a1,1,0,0,0,1.41,1.41Z"
               fill="#a6a6a6"
               stroke="#333"
               stroke-linecap="round"
               stroke-linejoin="round"
               stroke-width="0.75"/>
         <polygon fill="#fff"
                  points="18.51 7.98 9.25 7.98 9.25 27.67 24.5 27.67 24.5 13.97 18.51 13.97 18.51 7.98"
                  stroke="#333"
                  stroke-linecap="round"
                  stroke-linejoin="round"
                  stroke-width="0.75"/>
         <path d="M19.39,15.51V14.22h4.86l-4.41,1.6A.33.33,0,0,1,19.39,15.51Z" fill="#333"
               opacity="0.25"
               style="mix-blend-mode:multiply"/>
         <line fill="#fff" stroke="gray" stroke-linejoin="round" stroke-width="0.75"
               x1="11.98"
               x2="21.35"
               y1="16.37"
               y2="16.37"/>
         <line fill="#fff" stroke="gray" stroke-linejoin="round" stroke-width="0.75"
               x1="11.98"
               x2="21.35"
               y1="19.19"
               y2="19.19"/>
         <line fill="#fff" stroke="gray" stroke-linejoin="round" stroke-width="0.75"
               x1="11.98"
               x2="21.35"
               y1="22"
               y2="22"/>
         <line fill="#fff" stroke="gray" stroke-linejoin="round" stroke-width="0.75"
               x1="11.98"
               x2="19.48"
               y1="24.81"
               y2="24.81"/>
         <rect fill="gray" height="3.07" width="7.62" x="10.88" y="10.11"/>
         <polygon fill="#fff" points="18.51 13.97 24.5 13.97 18.51 7.98 18.51 13.97"
                  stroke="#333"
                  stroke-linecap="round"
                  stroke-linejoin="bevel"
                  stroke-width="0.75"/>
         <rect fill="#e6e6e6" height="6.06" stroke="#333" stroke-linecap="round"
               stroke-linejoin="round"
               stroke-width="0.75"
               transform="translate(26.17 -9.22) rotate(45)"
               width="2"
               x="23.21"
               y="23.95"/>
         <polygon fill="#fff" points="20.68 30.52 21.38 28.39 22.8 29.81 20.68 30.52"
                  stroke="#333"
                  stroke-linecap="round"
                  stroke-linejoin="round"
                  stroke-width="0.75"/>
         <polyline fill="none" points="4.24 7.51 4.24 11.65 6.73 11.65" stroke="#333"
                   stroke-linecap="round"
                   stroke-linejoin="round"
                   stroke-width="0.75"/>
         <polygon fill="#333" points="6.29 13.14 8.88 11.65 6.29 10.15 6.29 13.14"/>
         <text class="cls-1" transform="translate(6 4.72)">ROS 2</text>
      </g>
   </g>
</svg>