<?xml-stylesheet href="defaultstyles.css" type="text/css"?>
<svg xmlns="http://www.w3.org/2000/svg" xmlns:d="http://www.mathworks.com/blockgraphics" xmlns:xlink="http://www.w3.org/1999/xlink" version="1.1" id="svg_3" width="100" height="60" viewBox="0 0 100 60" fill="none">
	<g id="layer_2" title="layer_0" ie-ports="left:1,top:0,right:4,bottom:0">
		<rect id="rect_4" fill="white" stroke="#333333" x="18.5" y="14.5" width="47" height="26" rx="3.5" ry="0"/>
		<path id="path_5" fill="#BFBFBF" stroke="#333333" stroke-linecap="round" d=" M 46,40.5 H 38 C 37.72,40.5 37.51,40.73 37.41,40.99 C 36.72,42.86 32.25,44.08 30.89,44.41 C 30.659999999999997,44.47 30.5,44.67 30.5,44.9 V 46.5 H 53.5 V 44.9 C 53.5,44.67 53.34,44.47 53.11,44.41 C 51.75,44.08 47.28,42.86 46.59,40.99 C 46.49,40.73 46.28,40.5 46,40.5 Z"/>
		<ellipse id="ellipse_6" fill="white" stroke="#808080" cx="27.5" cy="27.59" rx="5" ry="5"/>
		<ellipse id="ellipse_7" fill="white" stroke="#808080" cx="27.5" cy="27.59" rx="3.04" ry="3.04"/>
		<ellipse id="ellipse_8" fill="white" stroke="#808080" cx="27.5" cy="27.59" rx="1.07" ry="1.07"/>
		<path id="path_9" stroke="#333333" d=" M 27.5,27.590000000000003 L 30.25,24.45"/>
		<path id="path_10" fill="white" stroke="#333333" d=" M 30.049999999999997,23.07 L 30.25,24.45 H 31.630000000000003 L 33,22.88 L 31.43,23.07 L 31.229999999999997,21.5 L 30.049999999999997,23.07 Z"/>
		<rect id="rect_11" stroke="#ABABAB" x="37.5" y="22.5" width="24" height="9" rx="0" ry="0"/>
		<rect id="rect_12" stroke="#ABABAB" x="37.5" y="22.5" width="4" height="9" rx="0" ry="0"/>
		<rect id="rect_13" stroke="#ABABAB" x="41.5" y="22.5" width="4" height="9" rx="0" ry="0"/>
		<rect id="rect_14" stroke="#ABABAB" x="45.5" y="22.5" width="4" height="9" rx="0" ry="0"/>
		<rect id="rect_15" stroke="#ABABAB" x="49.5" y="22.5" width="4" height="9" rx="0" ry="0"/>
		<rect id="rect_16" stroke="#ABABAB" x="49.5" y="22.5" width="4" height="9" rx="0" ry="0"/>
		<rect id="rect_17" stroke="#ABABAB" x="57.5" y="22.5" width="4" height="9" rx="0" ry="0"/>
		<line id="line_18" stroke="#ABABAB" x1="38" y1="25.5" x2="62" y2="25.5"/>
		<line id="line_19" stroke="#ABABAB" x1="38" y1="25.5" x2="62" y2="25.5"/>
		<line id="line_20" stroke="#ABABAB" x1="38" y1="25.5" x2="62" y2="25.5"/>
		<line id="line_21" stroke="#ABABAB" x1="38" y1="28.5" x2="62" y2="28.5"/>
		<line id="line_22" stroke="#ABABAB" x1="38" y1="28.5" x2="62" y2="28.5"/>
		<line id="line_23" stroke="#ABABAB" x1="38" y1="28.5" x2="62" y2="28.5"/>
		<path id="path_24" stroke="#4D4D4D" stroke-linecap="square" d=" M 37.5,28.5 H 41.5 L 45.5,23.5 V 31 L 49.5,28.5 H 53.5 L 57.5,23.5 V 30.5 L 61,28.5 H 61.5"/>
		<path id="path_25" fill="#333333" d=" M 30.759999999999998,4.92 C 31.229999999999997,4.92 31.61,4.83 31.880000000000003,4.640000000000001 C 32.16,4.449999999999999 32.3,4.1 32.3,3.6099999999999994 C 32.3,3.08 32.11,2.7200000000000006 31.72,2.5199999999999996 C 31.509999999999998,2.42 31.240000000000002,2.369999999999999 30.89,2.369999999999999 H 28.42 V 4.92 H 30.759999999999998 Z M 27.409999999999997,1.5 H 30.869999999999997 C 31.439999999999998,1.5 31.9,1.5899999999999999 32.27,1.75 C 32.97,2.0700000000000003 33.33,2.66 33.33,3.51 C 33.33,3.960000000000001 33.23,4.33 33.05,4.609999999999999 C 32.86,4.9 32.61,5.119999999999999 32.27,5.300000000000001 C 32.56,5.41 32.78,5.57 32.93,5.76 C 33.08,5.960000000000001 33.16,6.27 33.18,6.699999999999999 L 33.21,7.699999999999999 C 33.22,7.99 33.25,8.2 33.28,8.34 C 33.35,8.58 33.45,8.73 33.61,8.8 V 8.96 H 32.37 C 32.34,8.9 32.31,8.82 32.29,8.71 C 32.27,8.61 32.25,8.42 32.24,8.13 L 32.18,6.880000000000001 C 32.15,6.390000000000001 31.97,6.07 31.630000000000003,5.9 C 31.439999999999998,5.8100000000000005 31.14,5.76 30.729999999999997,5.76 H 28.42 V 8.96 H 27.409999999999997 V 1.5 Z M 38.03,1.3000000000000007 C 39.34,1.3000000000000007 40.32,1.7200000000000006 40.95,2.5700000000000003 C 41.45,3.2300000000000004 41.69,4.07 41.69,5.1 C 41.69,6.220000000000001 41.41,7.140000000000001 40.85,7.880000000000001 C 40.18,8.75 39.24,9.18 38.01,9.18 C 36.86,9.18 35.96,8.8 35.3,8.04 C 34.71,7.3100000000000005 34.42,6.390000000000001 34.42,5.27 C 34.42,4.26 34.67,3.4000000000000004 35.17,2.6799999999999997 C 35.82,1.7599999999999998 36.77,1.3000000000000007 38.03,1.3000000000000007 Z M 38.13,8.28 C 39.02,8.28 39.66,7.960000000000001 40.06,7.32 C 40.46,6.68 40.66,5.949999999999999 40.66,5.119999999999999 C 40.66,4.24 40.43,3.539999999999999 39.97,3 C 39.51,2.4700000000000006 38.88,2.1999999999999993 38.09,2.1999999999999993 C 37.32,2.1999999999999993 36.69,2.460000000000001 36.2,3 C 35.71,3.5199999999999996 35.47,4.300000000000001 35.47,5.34 C 35.47,6.16 35.68,6.859999999999999 36.09,7.43 C 36.51,7.99 37.19,8.28 38.13,8.28 Z M 43.56,6.5600000000000005 C 43.59,6.98 43.69,7.32 43.86,7.59 C 44.2,8.08 44.79,8.33 45.63,8.33 C 46.01,8.33 46.36,8.27 46.67,8.17 C 47.27,7.960000000000001 47.57,7.58 47.57,7.039999999999999 C 47.57,6.630000000000001 47.45,6.34 47.19,6.17 C 46.94,6 46.53,5.85 45.98,5.73 L 44.97,5.5 C 44.31,5.35 43.85,5.1899999999999995 43.57,5.01 C 43.1,4.699999999999999 42.86,4.23 42.86,3.6099999999999994 C 42.86,2.9399999999999995 43.09,2.3900000000000006 43.56,1.9600000000000009 C 44.02,1.5299999999999994 44.68,1.3200000000000003 45.53,1.3200000000000003 C 46.31,1.3200000000000003 46.97,1.5 47.52,1.8800000000000008 C 48.07,2.26 48.34,2.8599999999999994 48.34,3.6899999999999995 H 47.39 C 47.34,3.289999999999999 47.23,2.99 47.07,2.7699999999999996 C 46.76,2.380000000000001 46.24,2.1899999999999995 45.5,2.1899999999999995 C 44.9,2.1899999999999995 44.47,2.3100000000000005 44.21,2.5600000000000005 C 43.95,2.8100000000000005 43.82,3.1099999999999994 43.82,3.4399999999999995 C 43.82,3.8000000000000007 43.97,4.07 44.28,4.24 C 44.48,4.35 44.93,4.48 45.63,4.65 L 46.68,4.890000000000001 C 47.18,5 47.57,5.16 47.85,5.359999999999999 C 48.32,5.710000000000001 48.56,6.210000000000001 48.56,6.880000000000001 C 48.56,7.699999999999999 48.26,8.29 47.66,8.65 C 47.06,9 46.36,9.18 45.56,9.18 C 44.64,9.18 43.91,8.94 43.38,8.47 C 42.86,8 42.6,7.359999999999999 42.61,6.5600000000000005 H 43.56 Z M 52.27,8.96 C 52.3,8.34 52.43,7.789999999999999 52.65,7.33 C 52.88,6.859999999999999 53.32,6.4399999999999995 53.97,6.0600000000000005 L 54.95,5.5 C 55.38,5.25 55.69,5.029999999999999 55.87,4.85 C 56.14,4.57 56.28,4.25 56.28,3.880000000000001 C 56.28,3.460000000000001 56.16,3.130000000000001 55.9,2.880000000000001 C 55.65,2.630000000000001 55.31,2.5 54.89,2.5 C 54.26,2.5 53.83,2.74 53.59,3.210000000000001 C 53.46,3.4700000000000006 53.39,3.8200000000000003 53.37,4.27 H 52.44 C 52.45,3.6400000000000006 52.57,3.119999999999999 52.79,2.7200000000000006 C 53.19,2.0199999999999996 53.89,1.67 54.89,1.67 C 55.72,1.67 56.33,1.8900000000000006 56.709999999999994,2.34 C 57.099999999999994,2.789999999999999 57.290000000000006,3.289999999999999 57.290000000000006,3.84 C 57.290000000000006,4.43 57.09,4.92 56.68000000000001,5.34 C 56.44,5.58 56.019999999999996,5.869999999999999 55.4,6.210000000000001 L 54.71,6.6 C 54.38,6.779999999999999 54.12,6.949999999999999 53.93,7.119999999999999 C 53.59,7.41 53.38,7.74 53.29,8.1 H 57.260000000000005 V 8.96 H 52.27 Z"/>
	</g>
</svg>
