<?xml-stylesheet href="defaultstyles.css" type="text/css"?>
<svg xmlns="http://www.w3.org/2000/svg" xmlns:d="http://www.mathworks.com/blockgraphics" xmlns:xlink="http://www.w3.org/1999/xlink" version="1.1" id="svg_3" width="100" height="60" viewBox="0 0 100 60" fill="none">
	<g id="layer_3" title="layer_0" ie-ports="left:2,top:0,right:2,bottom:0">
		<path id="path_4" fill="#F2F2F2" stroke="#333333" d=" M 26.5,27.23 V 42.5 C 26.5,42.78 26.72,43 27,43 H 52 C 52.28,43 52.5,42.78 52.5,42.5 V 27.23 C 52.5,27.08 52.44,26.95 52.32,26.85 L 39.82,16.27 C 39.64,16.12 39.36,16.12 39.18,16.27 L 26.68,26.85 C 26.56,26.95 26.5,27.08 26.5,27.23 Z"/>
		<path id="path_5" fill="#D9D9D9" d=" M 51.14,26.5 H 27.86 L 39.5,16.66 L 51.14,26.5 Z"/>
		<path id="path_6" fill="#B3B3B3" stroke="#333333" d=" M 51.13,27 H 27.86 C 27.4,27 27.19,27.58 27.54,27.88 L 39.18,37.73 C 39.36,37.88 39.64,37.88 39.82,37.73 L 51.46,27.88 C 51.81,27.58 51.6,27 51.13,27 Z"/>
		<path id="path_7" stroke="#333333" stroke-linecap="round" d=" M 27,42.5 L 35.5,35"/>
		<path id="path_8" stroke="#333333" stroke-linecap="round" d=" M 52,42.5 L 43.5,35"/>
		<path id="path_9" fill="white" stroke="#333333" d=" M 29.5,12.5 V 29.27 C 29.5,29.42 29.560000000000002,29.55 29.68,29.65 L 39.18,37.72 C 39.36,37.88 39.64,37.88 39.82,37.72 L 49.32,29.65 C 49.44,29.55 49.5,29.42 49.5,29.27 V 18.21 C 49.5,18.07 49.45,17.95 49.35,17.85 L 43.65,12.15 C 43.55,12.05 43.43,12 43.29,12 H 30 C 29.72,12 29.5,12.22 29.5,12.5 Z"/>
		<ellipse id="ellipse_10" fill="white" stroke="#808080" cx="39.5" cy="26.09" rx="5" ry="5"/>
		<ellipse id="ellipse_11" fill="white" stroke="#808080" cx="39.5" cy="26.09" rx="3.04" ry="3.04"/>
		<ellipse id="ellipse_12" fill="white" stroke="#808080" cx="39.5" cy="26.09" rx="1.07" ry="1.07"/>
		<path id="path_13" stroke="#333333" d=" M 39.5,26.09 L 42.25,22.95"/>
		<path id="path_14" fill="white" stroke="#333333" d=" M 42.05,21.57 L 42.25,22.95 H 43.63 L 45,21.38 L 43.43,21.57 L 43.23,20 L 42.05,21.57 Z"/>
		<path id="path_15" stroke="#333333" d=" M 43.5,12 V 17.5 C 43.5,17.78 43.72,18 44,18 H 49"/>
		<ellipse id="ellipse_16" fill="white" stroke="#333333" cx="56" cy="42.5" rx="9.5" ry="9.5"/>
		<path id="path_17" stroke="#333333" d=" M 54.56,42.4 L 50.4,39 H 61.61 L 61.14,39.77 L 60.760000000000005,39.06 L 54.56,42.4 Z M 55.04,43.27 L 60.94,40.1 L 55.8,48.55 L 55.04,43.27 Z"/>
		<path id="path_18" fill="#333333" d=" M 28.259999999999998,3.96 C 28.729999999999997,3.96 29.11,3.86 29.380000000000003,3.67 C 29.659999999999997,3.48 29.799999999999997,3.14 29.799999999999997,2.65 C 29.799999999999997,2.12 29.61,1.75 29.22,1.56 C 29.009999999999998,1.46 28.740000000000002,1.41 28.39,1.41 H 25.92 V 3.96 H 28.259999999999998 Z M 24.91,0.54 H 28.369999999999997 C 28.939999999999998,0.54 29.4,0.62 29.770000000000003,0.79 C 30.47,1.11 30.83,1.69 30.83,2.55 C 30.83,3 30.729999999999997,3.36 30.549999999999997,3.65 C 30.36,3.93 30.11,4.16 29.770000000000003,4.33 C 30.060000000000002,4.45 30.28,4.61 30.43,4.8 C 30.58,4.99 30.659999999999997,5.31 30.68,5.74 L 30.71,6.74 C 30.72,7.03 30.75,7.24 30.78,7.38 C 30.85,7.61 30.950000000000003,7.76 31.11,7.83 V 8 H 29.869999999999997 C 29.840000000000003,7.94 29.810000000000002,7.85 29.79,7.75 C 29.770000000000003,7.65 29.75,7.45 29.740000000000002,7.16 L 29.68,5.92 C 29.65,5.43 29.47,5.1 29.130000000000003,4.94 C 28.939999999999998,4.85 28.64,4.8 28.229999999999997,4.8 H 25.92 V 8 H 24.91 V 0.54 Z M 35.53,0.3400000000000001 C 36.84,0.3400000000000001 37.82,0.76 38.45,1.61 C 38.95,2.27 39.19,3.11 39.19,4.14 C 39.19,5.25 38.91,6.18 38.35,6.92 C 37.68,7.79 36.74,8.22 35.51,8.22 C 34.36,8.22 33.46,7.84 32.8,7.08 C 32.21,6.35 31.92,5.43 31.92,4.31 C 31.92,3.3 32.17,2.44 32.67,1.72 C 33.32,0.8 34.27,0.3400000000000001 35.53,0.3400000000000001 Z M 35.63,7.31 C 36.52,7.31 37.16,7 37.56,6.36 C 37.96,5.72 38.16,4.99 38.16,4.16 C 38.16,3.28 37.93,2.57 37.47,2.04 C 37.01,1.5 36.38,1.24 35.59,1.24 C 34.82,1.24 34.19,1.5 33.7,2.03 C 33.21,2.56 32.97,3.34 32.97,4.37 C 32.97,5.2 33.18,5.9 33.59,6.47 C 34.01,7.03 34.69,7.31 35.63,7.31 Z M 41.06,5.59 C 41.09,6.02 41.19,6.36 41.36,6.62 C 41.7,7.12 42.29,7.37 43.13,7.37 C 43.51,7.37 43.86,7.31 44.17,7.2 C 44.77,6.99 45.07,6.62 45.07,6.08 C 45.07,5.67 44.95,5.38 44.69,5.21 C 44.44,5.04 44.03,4.89 43.48,4.77 L 42.47,4.54 C 41.81,4.39 41.35,4.22 41.07,4.04 C 40.6,3.73 40.36,3.27 40.36,2.65 C 40.36,1.98 40.59,1.43 41.06,1 C 41.52,0.57 42.18,0.35 43.03,0.35 C 43.81,0.35 44.47,0.54 45.02,0.92 C 45.57,1.3 45.84,1.9 45.84,2.73 H 44.89 C 44.84,2.33 44.73,2.02 44.57,1.81 C 44.26,1.42 43.74,1.23 43,1.23 C 42.4,1.23 41.97,1.35 41.71,1.6 C 41.45,1.85 41.32,2.14 41.32,2.47 C 41.32,2.84 41.47,3.11 41.78,3.28 C 41.98,3.39 42.43,3.52 43.13,3.68 L 44.18,3.92 C 44.68,4.04 45.07,4.19 45.35,4.39 C 45.82,4.74 46.06,5.25 46.06,5.91 C 46.06,6.74 45.76,7.33 45.16,7.69 C 44.56,8.04 43.86,8.22 43.06,8.22 C 42.14,8.22 41.41,7.98 40.88,7.51 C 40.36,7.04 40.1,6.4 40.11,5.59 H 41.06 Z M 49.77,8 C 49.8,7.37 49.93,6.83 50.15,6.36 C 50.38,5.9 50.82,5.48 51.47,5.1 L 52.45,4.54 C 52.88,4.28 53.19,4.07 53.37,3.89 C 53.64,3.61 53.78,3.28 53.78,2.92 C 53.78,2.5 53.66,2.16 53.4,1.92 C 53.15,1.67 52.81,1.54 52.39,1.54 C 51.76,1.54 51.33,1.78 51.09,2.25 C 50.96,2.51 50.89,2.86 50.87,3.31 H 49.94 C 49.95,2.67 50.07,2.16 50.29,1.76 C 50.69,1.05 51.39,0.7 52.39,0.7 C 53.22,0.7 53.83,0.93 54.21,1.38 C 54.6,1.83 54.79,2.33 54.79,2.88 C 54.79,3.46 54.59,3.96 54.18,4.37 C 53.94,4.61 53.52,4.91 52.9,5.25 L 52.21,5.63 C 51.88,5.82 51.62,5.99 51.43,6.16 C 51.09,6.45 50.88,6.78 50.79,7.14 H 54.76 V 8 H 49.77 Z"/>
	</g>
</svg>
