<?xml-stylesheet href="defaultstyles.css" type="text/css"?>
<svg xmlns="http://www.w3.org/2000/svg" xmlns:d="http://www.mathworks.com/blockgraphics" xmlns:xlink="http://www.w3.org/1999/xlink" version="1.1" id="svg_4" width="110" height="60" d:options="PreserveAspect:On;ScalingOnResizeMax:2.0;Rotate:Off;Resize:FitToBlock;Frame:Adaptive" fill="none">
	<g id="part_3" title="part_0">
		<path id="path_5" fill="#F2F2F2" stroke="#333333" d=" M 42.5,31.73 V 47 C 42.5,47.28 42.72,47.5 43,47.5 H 68 C 68.28,47.5 68.5,47.28 68.5,47 V 31.73 C 68.5,31.58 68.44,31.45 68.32,31.35 L 55.82,20.77 C 55.64,20.62 55.36,20.62 55.18,20.77 L 42.68,31.35 C 42.56,31.45 42.5,31.58 42.5,31.73 Z"/>
		<path id="path_6" fill="#D9D9D9" d=" M 67.14,31 H 43.86 L 55.5,21.16 L 67.14,31 Z"/>
		<path id="path_7" fill="#B3B3B3" stroke="#333333" d=" M 67.14,31.5 H 43.87 C 43.4,31.5 43.19,32.08 43.54,32.38 L 55.18,42.23 C 55.36,42.38 55.64,42.38 55.82,42.23 L 67.46,32.38 C 67.81,32.08 67.6,31.5 67.14,31.5 Z"/>
		<path id="path_8" stroke="#333333" stroke-linecap="round" d=" M 43,47 L 51.5,39.5"/>
		<path id="path_9" stroke="#333333" stroke-linecap="round" d=" M 68,47 L 59.5,39.5"/>
		<path id="path_10" fill="white" stroke="#333333" d=" M 45.5,17 V 33.77 C 45.5,33.92 45.56,34.05 45.68,34.15 L 55.18,42.22 C 55.36,42.38 55.64,42.38 55.82,42.22 L 65.32,34.15 C 65.44,34.05 65.5,33.92 65.5,33.77 V 22.71 C 65.5,22.57 65.45,22.45 65.35,22.35 L 59.65,16.65 C 59.55,16.55 59.43,16.5 59.29,16.5 H 46 C 45.72,16.5 45.5,16.72 45.5,17 Z"/>
		<rect id="rect_11" stroke="#808080" x="48.5" y="24.5" width="6" height="6" rx="0" ry="0"/>
		<path id="path_12" stroke="#4D4D4D" stroke-linecap="round" d=" M 57.5,26.5 L 62.5,26.5"/>
		<path id="path_13" stroke="#4D4D4D" stroke-linecap="round" d=" M 57.5,28.5 H 61.5"/>
		<path id="path_14" stroke="#333333" d=" M 59.5,16.5 V 22 C 59.5,22.28 59.72,22.5 60,22.5 H 65"/>
		<path id="path_15" fill="#333333" d=" M 43.76,7.46 C 44.23,7.46 44.61,7.36 44.88,7.17 C 45.16,6.98 45.3,6.64 45.3,6.15 C 45.3,5.62 45.11,5.25 44.72,5.06 C 44.51,4.96 44.24,4.91 43.89,4.91 H 41.42 V 7.46 H 43.76 Z M 40.41,4.04 H 43.87 C 44.44,4.04 44.9,4.12 45.27,4.29 C 45.97,4.61 46.33,5.19 46.33,6.05 C 46.33,6.5 46.23,6.86 46.05,7.15 C 45.86,7.43 45.61,7.66 45.27,7.83 C 45.56,7.95 45.78,8.11 45.93,8.3 C 46.08,8.49 46.16,8.81 46.18,9.24 L 46.21,10.24 C 46.22,10.53 46.25,10.74 46.28,10.88 C 46.35,11.11 46.45,11.26 46.61,11.33 V 11.5 H 45.37 C 45.34,11.44 45.31,11.35 45.29,11.25 C 45.27,11.15 45.25,10.95 45.24,10.66 L 45.18,9.42 C 45.15,8.93 44.97,8.6 44.63,8.44 C 44.44,8.35 44.14,8.3 43.73,8.3 H 41.42 V 11.5 H 40.41 V 4.04 Z M 51.03,3.84 C 52.34,3.84 53.32,4.26 53.95,5.11 C 54.45,5.77 54.69,6.61 54.69,7.64 C 54.69,8.75 54.41,9.68 53.85,10.42 C 53.18,11.29 52.24,11.72 51.01,11.72 C 49.86,11.72 48.96,11.34 48.3,10.58 C 47.71,9.85 47.42,8.93 47.42,7.81 C 47.42,6.8 47.67,5.94 48.17,5.22 C 48.82,4.3 49.77,3.84 51.03,3.84 Z M 51.13,10.81 C 52.02,10.81 52.66,10.5 53.06,9.86 C 53.46,9.22 53.66,8.49 53.66,7.66 C 53.66,6.78 53.43,6.07 52.97,5.54 C 52.51,5 51.88,4.74 51.09,4.74 C 50.32,4.74 49.69,5 49.2,5.53 C 48.71,6.06 48.47,6.84 48.47,7.87 C 48.47,8.7 48.68,9.4 49.09,9.97 C 49.51,10.53 50.19,10.81 51.13,10.81 Z M 56.56,9.09 C 56.59,9.52 56.69,9.86 56.86,10.12 C 57.2,10.62 57.79,10.87 58.63,10.87 C 59.01,10.87 59.36,10.81 59.67,10.7 C 60.27,10.49 60.57,10.12 60.57,9.58 C 60.57,9.17 60.45,8.88 60.19,8.71 C 59.94,8.54 59.53,8.39 58.98,8.27 L 57.97,8.04 C 57.31,7.89 56.85,7.72 56.57,7.54 C 56.1,7.23 55.86,6.77 55.86,6.15 C 55.86,5.48 56.09,4.93 56.56,4.5 C 57.02,4.07 57.68,3.85 58.53,3.85 C 59.31,3.85 59.97,4.04 60.52,4.42 C 61.07,4.8 61.34,5.4 61.34,6.23 H 60.39 C 60.34,5.83 60.23,5.52 60.07,5.31 C 59.76,4.92 59.24,4.73 58.5,4.73 C 57.9,4.73 57.47,4.85 57.21,5.1 C 56.95,5.35 56.82,5.64 56.82,5.97 C 56.82,6.34 56.97,6.61 57.28,6.78 C 57.48,6.89 57.93,7.02 58.63,7.18 L 59.68,7.42 C 60.18,7.54 60.57,7.69 60.85,7.89 C 61.32,8.24 61.56,8.75 61.56,9.41 C 61.56,10.24 61.26,10.83 60.66,11.19 C 60.06,11.54 59.36,11.72 58.56,11.72 C 57.64,11.72 56.91,11.48 56.38,11.01 C 55.86,10.54 55.6,9.9 55.61,9.09 H 56.56 Z M 65.27,11.5 C 65.3,10.87 65.43,10.33 65.65,9.86 C 65.88,9.4 66.32,8.98 66.97,8.6 L 67.95,8.04 C 68.38,7.78 68.69,7.57 68.87,7.39 C 69.14,7.11 69.28,6.78 69.28,6.42 C 69.28,6 69.16,5.66 68.9,5.42 C 68.65,5.17 68.31,5.04 67.89,5.04 C 67.26,5.04 66.83,5.28 66.59,5.75 C 66.46,6.01 66.39,6.36 66.37,6.81 H 65.44 C 65.45,6.17 65.57,5.66 65.79,5.26 C 66.19,4.55 66.89,4.2 67.89,4.2 C 68.72,4.2 69.33,4.43 69.71,4.88 C 70.1,5.33 70.29,5.83 70.29,6.38 C 70.29,6.96 70.09,7.46 69.68,7.87 C 69.44,8.11 69.02,8.41 68.4,8.75 L 67.71,9.13 C 67.38,9.32 67.12,9.49 66.93,9.66 C 66.59,9.95 66.38,10.28 66.29,10.64 H 70.26 V 11.5 H 65.27 Z"/>
		<ellipse id="ellipse_16" fill="white" stroke="#333333" transform="matrix(0.8660254038,0.5,-0.5,0.8660254038,21.95706006,-13.9448637287)" cx="37" cy="34" rx="9.5" ry="9.5"/>
		<path id="path_17" stroke="#333333" d=" M 35.8,33.19 L 33.9,28.17 L 43.61,33.77 L 42.82,34.2 L 42.84,33.4 L 35.8,33.19 Z M 35.78,34.19 L 42.48,34.39 L 33.8,39.14 L 35.78,34.19 Z"/>
	</g>
</svg>
