<?xml-stylesheet href="defaultstyles.css" type="text/css"?>
<svg xmlns="http://www.w3.org/2000/svg" xmlns:d="http://www.mathworks.com/blockgraphics" xmlns:xlink="http://www.w3.org/1999/xlink" version="1.1" id="svg_19" width="110" height="60" d:options="PreserveAspect:On;ScalingOnResizeMax:2.0;Rotate:Off;Resize:FitToBlock;Frame:Adaptive" fill="none">
	<g id="part_18" title="part_0">
		<path id="path_20" fill="#F2F2F2" stroke="#333333" d=" M 38.5,31.73 V 47 C 38.5,47.28 38.72,47.5 39,47.5 H 64 C 64.28,47.5 64.5,47.28 64.5,47 V 31.73 C 64.5,31.58 64.44,31.45 64.32,31.35 L 51.82,20.77 C 51.64,20.62 51.36,20.62 51.18,20.77 L 38.68,31.35 C 38.56,31.45 38.5,31.58 38.5,31.73 Z"/>
		<path id="path_21" fill="#D9D9D9" d=" M 63.14,31 H 39.86 L 51.5,21.16 L 63.14,31 Z"/>
		<path id="path_22" fill="#B3B3B3" stroke="#333333" d=" M 63.13,31.5 H 39.86 C 39.4,31.5 39.19,32.08 39.54,32.38 L 51.18,42.23 C 51.36,42.38 51.64,42.38 51.82,42.23 L 63.46,32.38 C 63.81,32.08 63.6,31.5 63.13,31.5 Z"/>
		<path id="path_23" stroke="#333333" stroke-linecap="round" d=" M 39,47 L 47.5,39.5"/>
		<path id="path_24" stroke="#333333" stroke-linecap="round" d=" M 64,47 L 55.5,39.5"/>
		<path id="path_25" fill="white" stroke="#333333" d=" M 41.5,17 V 33.77 C 41.5,33.92 41.56,34.05 41.68,34.15 L 51.18,42.22 C 51.36,42.38 51.64,42.38 51.82,42.22 L 61.32,34.15 C 61.44,34.05 61.5,33.92 61.5,33.77 V 22.71 C 61.5,22.57 61.45,22.45 61.35,22.35 L 55.65,16.65 C 55.55,16.55 55.43,16.5 55.29,16.5 H 42 C 41.72,16.5 41.5,16.72 41.5,17 Z"/>
		<rect id="rect_26" stroke="#808080" x="44.5" y="24.5" width="6" height="6" rx="0" ry="0"/>
		<path id="path_27" stroke="#333333" stroke-width="1.5" d=" M 46,25.7 L 48.67,28.5 L 54,22.5"/>
		<path id="path_28" stroke="#4D4D4D" stroke-linecap="round" d=" M 53.5,26.5 L 58.5,26.5"/>
		<path id="path_29" stroke="#4D4D4D" stroke-linecap="round" d=" M 53.5,28.5 H 57.5"/>
		<path id="path_30" stroke="#333333" d=" M 55.5,16.5 V 22 C 55.5,22.28 55.72,22.5 56,22.5 H 61"/>
		<ellipse id="ellipse_31" fill="white" stroke="#333333" cx="68" cy="47" rx="9.5" ry="9.5"/>
		<path id="path_32" stroke="#333333" d=" M 66.56,46.9 L 62.4,43.5 H 73.61 L 73.14,44.27 L 72.76,43.56 L 66.56,46.9 Z M 67.04,47.77 L 72.94,44.6 L 67.8,53.05 L 67.04,47.77 Z"/>
		<path id="path_33" fill="#333333" d=" M 40.26,6.96 C 40.73,6.96 41.11,6.86 41.38,6.67 C 41.66,6.48 41.8,6.14 41.8,5.65 C 41.8,5.12 41.61,4.75 41.22,4.56 C 41.01,4.46 40.74,4.41 40.39,4.41 H 37.92 V 6.96 H 40.26 Z M 36.91,3.54 H 40.37 C 40.94,3.54 41.4,3.62 41.77,3.79 C 42.47,4.11 42.83,4.69 42.83,5.55 C 42.83,6 42.73,6.36 42.55,6.65 C 42.36,6.93 42.11,7.16 41.77,7.33 C 42.06,7.45 42.28,7.61 42.43,7.8 C 42.58,7.99 42.66,8.31 42.68,8.74 L 42.71,9.74 C 42.72,10.03 42.75,10.24 42.78,10.38 C 42.85,10.61 42.95,10.76 43.11,10.83 V 11 H 41.87 C 41.84,10.94 41.81,10.85 41.79,10.75 C 41.77,10.65 41.75,10.45 41.74,10.16 L 41.68,8.92 C 41.65,8.43 41.47,8.1 41.13,7.94 C 40.94,7.85 40.64,7.8 40.23,7.8 H 37.92 V 11 H 36.91 V 3.54 Z M 47.53,3.34 C 48.84,3.34 49.82,3.76 50.45,4.61 C 50.95,5.27 51.19,6.11 51.19,7.14 C 51.19,8.25 50.91,9.18 50.35,9.92 C 49.68,10.79 48.74,11.22 47.51,11.22 C 46.36,11.22 45.46,10.84 44.8,10.08 C 44.21,9.35 43.92,8.43 43.92,7.31 C 43.92,6.3 44.17,5.44 44.67,4.72 C 45.32,3.8 46.27,3.34 47.53,3.34 Z M 47.63,10.31 C 48.52,10.31 49.16,10 49.56,9.36 C 49.96,8.72 50.16,7.99 50.16,7.16 C 50.16,6.28 49.93,5.57 49.47,5.04 C 49.01,4.5 48.38,4.24 47.59,4.24 C 46.82,4.24 46.19,4.5 45.7,5.03 C 45.21,5.56 44.97,6.34 44.97,7.37 C 44.97,8.2 45.18,8.9 45.59,9.47 C 46.01,10.03 46.69,10.31 47.63,10.31 Z M 53.06,8.59 C 53.09,9.02 53.19,9.36 53.36,9.62 C 53.7,10.12 54.29,10.37 55.13,10.37 C 55.51,10.37 55.86,10.31 56.17,10.2 C 56.77,9.99 57.07,9.62 57.07,9.08 C 57.07,8.67 56.95,8.38 56.69,8.21 C 56.44,8.04 56.03,7.89 55.48,7.77 L 54.47,7.54 C 53.81,7.39 53.35,7.22 53.07,7.04 C 52.6,6.73 52.36,6.27 52.36,5.65 C 52.36,4.98 52.59,4.43 53.06,4 C 53.52,3.57 54.18,3.35 55.03,3.35 C 55.81,3.35 56.47,3.54 57.02,3.92 C 57.57,4.3 57.84,4.9 57.84,5.73 H 56.89 C 56.84,5.33 56.73,5.02 56.57,4.81 C 56.26,4.42 55.74,4.23 55,4.23 C 54.4,4.23 53.97,4.35 53.71,4.6 C 53.45,4.85 53.32,5.14 53.32,5.47 C 53.32,5.84 53.47,6.11 53.78,6.28 C 53.98,6.39 54.43,6.52 55.13,6.68 L 56.18,6.92 C 56.68,7.04 57.07,7.19 57.35,7.39 C 57.82,7.74 58.06,8.25 58.06,8.91 C 58.06,9.74 57.76,10.33 57.16,10.69 C 56.56,11.04 55.86,11.22 55.06,11.22 C 54.14,11.22 53.41,10.98 52.88,10.51 C 52.36,10.04 52.1,9.4 52.11,8.59 H 53.06 Z M 61.77,11 C 61.8,10.37 61.93,9.83 62.15,9.36 C 62.38,8.9 62.82,8.48 63.47,8.1 L 64.45,7.54 C 64.88,7.28 65.19,7.07 65.37,6.89 C 65.64,6.61 65.78,6.28 65.78,5.92 C 65.78,5.5 65.66,5.16 65.4,4.92 C 65.15,4.67 64.81,4.54 64.39,4.54 C 63.76,4.54 63.33,4.78 63.09,5.25 C 62.96,5.51 62.89,5.86 62.87,6.31 H 61.94 C 61.95,5.67 62.07,5.16 62.29,4.76 C 62.69,4.05 63.39,3.7 64.39,3.7 C 65.22,3.7 65.83,3.93 66.21,4.38 C 66.6,4.83 66.79,5.33 66.79,5.88 C 66.79,6.46 66.59,6.96 66.18,7.37 C 65.94,7.61 65.52,7.91 64.9,8.25 L 64.21,8.63 C 63.88,8.82 63.62,8.99 63.43,9.16 C 63.09,9.45 62.88,9.78 62.79,10.14 H 66.76 V 11 H 61.77 Z"/>
	</g>
</svg>
