<svg width="100" height="60" viewBox="0 0 100 60" fill="none" xmlns="http://www.w3.org/2000/svg">
<path d="M30.5 31.7319V47C30.5 47.2761 30.7239 47.5 31 47.5H56C56.2761 47.5 56.5 47.2761 56.5 47V31.7319C56.5 31.5848 56.4352 31.4452 56.323 31.3502L43.823 20.7733C43.6365 20.6155 43.3635 20.6155 43.177 20.7733L30.677 31.3502C30.5648 31.4452 30.5 31.5848 30.5 31.7319Z" fill="#F2F2F2" stroke="#333333"/>
<path d="M55.1367 31H31.8633L43.4961 21.1562L55.1367 31Z" fill="#D9D9D9"/>
<path d="M55.135 31.5H31.865C31.3992 31.5 31.1864 32.0808 31.542 32.3817L43.177 42.2267C43.3635 42.3845 43.6365 42.3845 43.823 42.2267L55.458 32.3817C55.8136 32.0808 55.6008 31.5 55.135 31.5Z" fill="#B3B3B3" stroke="#333333"/>
<path d="M31 47L39.5 39.5" stroke="#333333" stroke-linecap="round"/>
<path d="M56 47L47.5 39.5" stroke="#333333" stroke-linecap="round"/>
<path d="M33.5 17V33.7688C33.5 33.9155 33.5644 34.0548 33.6762 34.1497L43.1762 42.2247C43.3629 42.3835 43.6371 42.3835 43.8238 42.2247L53.3238 34.1497C53.4356 34.0548 53.5 33.9155 53.5 33.7688V22.7071C53.5 22.5745 53.4473 22.4473 53.3536 22.3536L47.6464 16.6464C47.5527 16.5527 47.4255 16.5 47.2929 16.5H34C33.7239 16.5 33.5 16.7239 33.5 17Z" fill="white" stroke="#333333"/>
<path d="M47.5 16.5V22C47.5 22.2761 47.7239 22.5 48 22.5H53" stroke="#333333"/>
<circle cx="43.5" cy="30.5892" r="4.99999" fill="white" stroke="#808080"/>
<circle cx="43.5" cy="30.5892" r="3.03571" fill="white" stroke="#808080"/>
<circle cx="43.5" cy="30.5892" r="1.07143" fill="white" stroke="#808080"/>
<path d="M43.5 30.5893L46.25 27.4464" stroke="#333333"/>
<path d="M46.0536 26.0714L46.25 27.4464H47.625L49 25.875L47.4286 26.0714L47.2321 24.5L46.0536 26.0714Z" fill="white" stroke="#333333"/>
<circle cx="60" cy="47" r="9.5" fill="white" stroke="#333333"/>
<path d="M56.5 50.5L63.5 43.5" stroke="#333333" stroke-linecap="round"/>
<path d="M63.5 50.5L56.5 43.5" stroke="#333333" stroke-linecap="round"/>
<path d="M32.2605 6.95781C32.7345 6.95781 33.1086 6.86302 33.3828 6.67344C33.6604 6.48385 33.7992 6.14193 33.7992 5.64766C33.7992 5.11615 33.6063 4.75391 33.2203 4.56094C33.0138 4.45937 32.7379 4.40859 32.3926 4.40859H29.9246V6.95781H32.2605ZM28.9141 3.54023H32.3672C32.9359 3.54023 33.4048 3.62318 33.7738 3.78906C34.4746 4.10729 34.825 4.69466 34.825 5.55117C34.825 5.99805 34.7319 6.36367 34.5457 6.64805C34.3629 6.93242 34.1056 7.16094 33.7738 7.33359C34.065 7.45208 34.2833 7.60781 34.4289 7.80078C34.5779 7.99375 34.6608 8.3069 34.6777 8.74023L34.7133 9.74062C34.7234 10.025 34.7471 10.2366 34.7844 10.3754C34.8453 10.6124 34.9536 10.7647 35.1094 10.8324V11H33.8703C33.8365 10.9357 33.8094 10.8527 33.7891 10.7512C33.7688 10.6496 33.7518 10.4533 33.7383 10.1621L33.6773 8.91797C33.6536 8.43047 33.4725 8.10378 33.134 7.93789C32.941 7.84648 32.638 7.80078 32.225 7.80078H29.9246V11H28.9141V3.54023ZM39.5273 3.33711C40.8443 3.33711 41.8193 3.76029 42.4523 4.60664C42.9466 5.2668 43.1938 6.11146 43.1938 7.14062C43.1938 8.25443 42.9111 9.18034 42.3457 9.91836C41.6822 10.785 40.7359 11.2184 39.507 11.2184C38.3594 11.2184 37.4572 10.8392 36.8004 10.0809C36.2147 9.34961 35.9219 8.42539 35.9219 7.3082C35.9219 6.29935 36.1724 5.43607 36.6734 4.71836C37.3167 3.79753 38.268 3.33711 39.5273 3.33711ZM39.6289 10.3145C40.5193 10.3145 41.1625 9.99622 41.5586 9.35977C41.9581 8.71992 42.1578 7.98529 42.1578 7.15586C42.1578 6.27904 41.9276 5.57318 41.4672 5.03828C41.0102 4.50339 40.3839 4.23594 39.5883 4.23594C38.8164 4.23594 38.1867 4.50169 37.6992 5.0332C37.2117 5.56133 36.968 6.34167 36.968 7.37422C36.968 8.20026 37.1762 8.89766 37.5926 9.46641C38.0124 10.0318 38.6911 10.3145 39.6289 10.3145ZM45.0625 8.59297C45.0862 9.01615 45.1861 9.35977 45.3621 9.62383C45.6973 10.1181 46.288 10.3652 47.1344 10.3652C47.5135 10.3652 47.8589 10.3111 48.1703 10.2027C48.7729 9.99284 49.0742 9.61706 49.0742 9.07539C49.0742 8.66914 48.9473 8.37969 48.6934 8.20703C48.4361 8.03776 48.0332 7.89049 47.4848 7.76523L46.4742 7.53672C45.8141 7.38776 45.3469 7.22357 45.0727 7.04414C44.5987 6.73268 44.3617 6.26719 44.3617 5.64766C44.3617 4.97734 44.5936 4.42721 45.0574 3.99727C45.5212 3.56732 46.178 3.35234 47.0277 3.35234C47.8098 3.35234 48.4733 3.54193 49.0184 3.92109C49.5668 4.29687 49.841 4.89948 49.841 5.72891H48.8914C48.8406 5.32943 48.7323 5.02305 48.5664 4.80977C48.2583 4.42044 47.7353 4.22578 46.9973 4.22578C46.4014 4.22578 45.9732 4.35104 45.7125 4.60156C45.4518 4.85208 45.3215 5.14323 45.3215 5.475C45.3215 5.84062 45.4738 6.10807 45.7785 6.27734C45.9783 6.38568 46.4302 6.52109 47.1344 6.68359L48.1805 6.92227C48.6849 7.03737 49.0742 7.19479 49.3484 7.39453C49.8224 7.74323 50.0594 8.24935 50.0594 8.91289C50.0594 9.73893 49.7581 10.3297 49.1555 10.6852C48.5563 11.0406 47.8589 11.2184 47.0633 11.2184C46.1357 11.2184 45.4095 10.9814 44.8848 10.5074C44.36 10.0368 44.1027 9.3987 44.1129 8.59297H45.0625ZM53.7664 11C53.8003 10.3737 53.9289 9.82865 54.1523 9.36484C54.3792 8.90104 54.8193 8.47956 55.4727 8.10039L56.4477 7.53672C56.8844 7.28281 57.1908 7.06615 57.3668 6.88672C57.6444 6.60573 57.7832 6.28411 57.7832 5.92187C57.7832 5.4987 57.6563 5.16354 57.4023 4.91641C57.1484 4.66589 56.8099 4.54062 56.3867 4.54062C55.7604 4.54062 55.3271 4.7776 55.0867 5.25156C54.9581 5.50547 54.887 5.85755 54.8734 6.30781H53.9441C53.9543 5.67474 54.0711 5.15846 54.2945 4.75898C54.6906 4.05482 55.3897 3.70273 56.3918 3.70273C57.2246 3.70273 57.8323 3.92786 58.2148 4.37812C58.6008 4.82839 58.7938 5.32943 58.7938 5.88125C58.7938 6.46354 58.5889 6.9612 58.1793 7.37422C57.9423 7.61458 57.5175 7.90573 56.9047 8.24766L56.209 8.63359C55.8772 8.81641 55.6165 8.99076 55.427 9.15664C55.0884 9.45117 54.8751 9.77786 54.7871 10.1367H58.7582V11H53.7664Z" fill="#333333"/>
</svg>
