<?xml version="1.0" encoding="UTF-8"?>
<!-- Copyright 2023 The MathWorks, Inc. -->
<svg xmlns="http://www.w3.org/2000/svg" 
     xmlns:d="http://www.mathworks.com/blockgraphics"
     version="1.1"
     width="150"
     height="80"
     viewBox="0 0 150 80"
     id="Layer_1">
<defs>
</defs>
<title>ApplyTransform ROS 2_041423</title>
<g transform="matrix(1 0 0 1 0 0)"  >
<g style=""   >
</g>
</g>
<g transform="matrix(0.75 0 0 0.75 62 68)">
<text styple="fill:#333;font-size:8px;font-family:Helvetica, Helvetica;">ROS 2</text>
</g>
<g transform="matrix(1 0 0 1 75 40)"  >
<g style=""   >
		<g transform="matrix(1 0 0 1 -13.21 -3.92)"  >
<polygon style="stroke: none; stroke-width: 1; stroke-dasharray: none; stroke-linecap: butt; stroke-dashoffset: 0; stroke-linejoin: miter; stroke-miterlimit: 4; fill: rgb(51,51,51); fill-rule: nonzero; opacity: 1;"  points="0.7,-0.49 0.43,0.49 -0.7,-0.49 0.7,-0.49 " />
</g>
		<g transform="matrix(1 0 0 1 -5.49 2.84)"  >
<path style="stroke: none; stroke-width: 1; stroke-dasharray: none; stroke-linecap: butt; stroke-dashoffset: 0; stroke-linejoin: miter; stroke-miterlimit: 4; fill: rgb(51,51,51); fill-rule: nonzero; opacity: 1;"  transform=" translate(-77.5, -37.84)" d="M 77.59 37.92 l -0.17 -0.15 a 0.51 0.51 0 0 1 0.16 0.13 S 77.59 37.91 77.59 37.92 Z" stroke-linecap="round" />
</g>
		<g transform="matrix(1 0 0 1 9.7 -4.38)"  >
<polygon style="stroke: none; stroke-width: 1; stroke-dasharray: none; stroke-linecap: butt; stroke-dashoffset: 0; stroke-linejoin: miter; stroke-miterlimit: 4; fill: rgb(51,51,51); fill-rule: nonzero; opacity: 1;"  points="0.04,-0.04 -0.03,0.04 -0.02,-0.04 0.04,-0.04 " />
</g>
		<g transform="matrix(1 0 0 1 -2.06 7.45)"  >
<path style="stroke: none; stroke-width: 1; stroke-dasharray: none; stroke-linecap: butt; stroke-dashoffset: 0; stroke-linejoin: miter; stroke-miterlimit: 4; fill: rgb(242,242,242); fill-rule: nonzero; opacity: 1;"  transform=" translate(-80.94, -42.45)" d="M 92.87 46 H 69 l 6.24 -5.38 l 0.45 -0.39 l 0.46 -0.4 l 1.09 -0.94 l 2.08 1.79 l 1.32 1.14 a 0.49 0.49 0 0 0 0.32 0.12 a 0.5 0.5 0 0 0 0.33 -0.12 l 0.08 -0.07 l 0.46 -0.4 l 2.86 -2.46 l 4.29 3.71 l 0.84 0.72 Z" stroke-linecap="round" />
</g>
		<g transform="matrix(1 0 0 1 -13.21 -3.92)"  >
<polygon style="stroke: none; stroke-width: 1; stroke-dasharray: none; stroke-linecap: butt; stroke-dashoffset: 0; stroke-linejoin: miter; stroke-miterlimit: 4; fill: rgb(179,179,179); fill-rule: nonzero; opacity: 1;"  points="0.7,-0.49 0.43,0.49 -0.7,-0.49 0.7,-0.49 " />
</g>
		<g transform="matrix(1 0 0 1 -5.49 2.84)"  >
<path style="stroke: none; stroke-width: 1; stroke-dasharray: none; stroke-linecap: butt; stroke-dashoffset: 0; stroke-linejoin: miter; stroke-miterlimit: 4; fill: rgb(51,51,51); fill-rule: nonzero; opacity: 1;"  transform=" translate(-77.5, -37.84)" d="M 77.59 37.92 l -0.17 -0.15 a 0.51 0.51 0 0 1 0.16 0.13 S 77.59 37.91 77.59 37.92 Z" stroke-linecap="round" />
</g>
		<g transform="matrix(1 0 0 1 9.7 -4.38)"  >
<polygon style="stroke: none; stroke-width: 1; stroke-dasharray: none; stroke-linecap: butt; stroke-dashoffset: 0; stroke-linejoin: miter; stroke-miterlimit: 4; fill: rgb(51,51,51); fill-rule: nonzero; opacity: 1;"  points="0.04,-0.04 -0.03,0.04 -0.02,-0.04 0.04,-0.04 " />
</g>
		<g transform="matrix(1 0 0 1 -5.49 2.84)"  >
<path style="stroke: none; stroke-width: 1; stroke-dasharray: none; stroke-linecap: butt; stroke-dashoffset: 0; stroke-linejoin: miter; stroke-miterlimit: 4; fill: rgb(51,51,51); fill-rule: nonzero; opacity: 1;"  transform=" translate(-77.5, -37.84)" d="M 77.59 37.92 l -0.17 -0.15 a 0.51 0.51 0 0 1 0.16 0.13 S 77.59 37.91 77.59 37.92 Z" stroke-linecap="round" />
</g>
		<g transform="matrix(1 0 0 1 -12.74 -6.21)"  >
<polygon style="stroke: none; stroke-width: 1; stroke-dasharray: none; stroke-linecap: butt; stroke-dashoffset: 0; stroke-linejoin: miter; stroke-miterlimit: 4; fill: rgb(217,217,217); fill-rule: nonzero; opacity: 1;"  points="0.92,-0.8 0.5,0.79 -0.92,0.79 0.92,-0.8 " />
</g>
		<g transform="matrix(1 0 0 1 9.45 -5.42)"  >
<polygon style="stroke: none; stroke-width: 1; stroke-dasharray: none; stroke-linecap: butt; stroke-dashoffset: 0; stroke-linejoin: miter; stroke-miterlimit: 4; fill: rgb(51,51,51); fill-rule: nonzero; opacity: 1;"  points="0.02,0.02 -0.03,0.02 -0.02,-0.02 0.02,0.02 " />
</g>
		<g transform="matrix(1 0 0 1 -2.07 1.64)"  >
<path style="stroke: none; stroke-width: 1; stroke-dasharray: none; stroke-linecap: butt; stroke-dashoffset: 0; stroke-linejoin: miter; stroke-miterlimit: 4; fill: rgb(51,51,51); fill-rule: nonzero; opacity: 1;"  transform=" translate(-80.93, -36.64)" d="M 94.21 29.76 l 0 0 l 0 0 l -0.6 -0.51 l -0.1 0.39 l 0 0.14 h 0 l -0.09 0.34 h 0 l -0.13 0.12 l -0.45 0.38 l -0.07 0.07 l -0.67 0.57 L 80.91 40.78 l -3.32 -2.86 l -0.17 -0.15 h 0 L 71.07 32.3 l -0.43 -0.37 l -0.42 -0.36 l -1.13 -1 h 1.4 l 0.1 -0.38 l 0 -0.12 l 0.14 -0.5 H 69.34 L 71.19 28 h 0 l 0.23 -0.85 l 0.23 -0.86 l -4 3.43 l 0 0 l 0 0 a 1 1 0 0 0 -0.44 0.83 V 46 a 1 1 0 0 0 1 1 H 93.65 a 1 1 0 0 0 1 -1 V 30.59 A 1 1 0 0 0 94.21 29.76 Z m -26 1.36 l 1.76 1.52 l 0.42 0.36 l 0.42 0.36 l 5.65 4.87 l -1.49 1.29 l -0.46 0.39 L 74 40.3 l -5.84 5 Z M 69 46 l 6.24 -5.38 l 0.45 -0.39 l 0.46 -0.4 l 1.09 -0.94 l 2.08 1.79 l 1.32 1.14 a 0.49 0.49 0 0 0 0.32 0.12 a 0.5 0.5 0 0 0 0.33 -0.12 l 0.08 -0.07 l 0.46 -0.4 l 2.86 -2.46 l 4.29 3.71 l 0.84 0.72 L 92.87 46 Z m 24.7 -0.66 l -3.6 -3.1 l -0.41 -0.36 l -0.42 -0.36 L 85.4 38.23 L 91.53 33 l 0.66 -0.58 l 0.67 -0.57 l 0.79 -0.68 Z" stroke-linecap="round" />
</g>
		<g transform="matrix(1 0 0 1 6.53 3.23)"  >
<polygon style="stroke: none; stroke-width: 1; stroke-dasharray: none; stroke-linecap: butt; stroke-dashoffset: 0; stroke-linejoin: miter; stroke-miterlimit: 4; fill: rgb(242,242,242); fill-rule: nonzero; opacity: 1;"  points="4.13,-7.11 4.13,7.11 0.52,4.01 0.11,3.65 -0.31,3.29 -4.13,0 2,-5.28 2.66,-5.86 3.33,-6.43 4.13,-7.11 " />
</g>
		<g transform="matrix(1 0 0 1 -10.7 3.23)"  >
<polygon style="stroke: none; stroke-width: 1; stroke-dasharray: none; stroke-linecap: butt; stroke-dashoffset: 0; stroke-linejoin: miter; stroke-miterlimit: 4; fill: rgb(242,242,242); fill-rule: nonzero; opacity: 1;"  points="4.13,0 2.63,1.29 2.17,1.68 1.71,2.07 -4.13,7.11 -4.13,-7.11 -2.37,-5.59 -1.95,-5.23 -1.53,-4.87 4.13,0 " />
</g>
		<g transform="matrix(1 0 0 1 6.66 -12.98)"  >
<polygon style="stroke: none; stroke-width: 1; stroke-dasharray: none; stroke-linecap: butt; stroke-dashoffset: 0; stroke-linejoin: miter; stroke-miterlimit: 4; fill: rgb(242,242,242); fill-rule: nonzero; opacity: 1;"  points="3.06,3.88 -3.06,2.24 -1.42,-3.88 3.06,3.88 " />
</g>
		<g transform="matrix(1 0 0 1 -0.89 -7.55)"  >
<path style="stroke: none; stroke-width: 1; stroke-dasharray: none; stroke-linecap: butt; stroke-dashoffset: 0; stroke-linejoin: miter; stroke-miterlimit: 4; fill: rgb(255,255,255); fill-rule: nonzero; opacity: 1;"  transform=" translate(-82.1, -27.45)" d="M 93.14 27 l -0.4 1.43 l -0.15 0.53 h 0 l -0.14 0.54 v 0 l -0.13 0.5 l 0 0.12 l -0.1 0.38 l -0.17 0.64 L 80.91 40.78 l -3.32 -2.86 s 0 0 0 0 a 0.51 0.51 0 0 0 -0.16 -0.13 h 0 L 71.07 32.3 l 0.46 -1.71 l 0.1 -0.38 l 0 -0.12 l 0.14 -0.5 l 0.74 -2.76 l 0.23 -0.85 h 0 l 0.23 -0.85 l -0.7 2.67 L 76 14.11 L 87.46 17.2 l -2 7.28 a 0.55 0.55 0 0 0 0 0.38 a 0.53 0.53 0 0 0 0.31 0.24 Z" stroke-linecap="round" />
</g>
		<g transform="matrix(1 0 0 1 -5.49 2.84)"  >
<path style="stroke: none; stroke-width: 1; stroke-dasharray: none; stroke-linecap: butt; stroke-dashoffset: 0; stroke-linejoin: miter; stroke-miterlimit: 4; fill: rgb(242,242,242); fill-rule: nonzero; opacity: 1;"  transform=" translate(-77.5, -37.84)" d="M 77.59 37.92 l -0.17 -0.15 a 0.51 0.51 0 0 1 0.16 0.13 S 77.59 37.91 77.59 37.92 Z" stroke-linecap="round" />
</g>
		<g transform="matrix(1 0 0 1 9.45 -5.42)"  >
<polygon style="stroke: none; stroke-width: 1; stroke-dasharray: none; stroke-linecap: butt; stroke-dashoffset: 0; stroke-linejoin: miter; stroke-miterlimit: 4; fill: rgb(242,242,242); fill-rule: nonzero; opacity: 1;"  points="0.02,0.02 -0.03,0.02 -0.02,-0.02 0.02,0.02 " />
</g>
		<g transform="matrix(1 0 0 1 9.59 -4.91)"  >
<path style="stroke: none; stroke-width: 1; stroke-dasharray: none; stroke-linecap: butt; stroke-dashoffset: 0; stroke-linejoin: miter; stroke-miterlimit: 4; fill: rgb(51,51,51); fill-rule: nonzero; opacity: 1;"  transform=" translate(-92.59, -30.09)" d="M 92.44 29.56 v 0 h 0 Z m 0.23 1 v 0.07 l 0.07 -0.07 Z" stroke-linecap="round" />
</g>
		<g transform="matrix(1 0 0 1 6.66 -12.98)"  >
<polygon style="stroke: none; stroke-width: 1; stroke-dasharray: none; stroke-linecap: butt; stroke-dashoffset: 0; stroke-linejoin: miter; stroke-miterlimit: 4; fill: rgb(255,255,255); fill-rule: nonzero; opacity: 1;"  points="3.06,3.88 -3.06,2.24 -1.42,-3.88 3.06,3.88 " />
</g>
		<g transform="matrix(1 0 0 1 -0.76 -12.36)"  >
<path style="stroke: none; stroke-width: 1; stroke-dasharray: none; stroke-linecap: butt; stroke-dashoffset: 0; stroke-linejoin: miter; stroke-miterlimit: 4; fill: rgb(51,51,51); fill-rule: nonzero; opacity: 1;"  transform=" translate(-82.24, -22.63)" d="M 94.19 26.45 L 88.51 16.6 a 0.64 0.64 0 0 0 -0.13 -0.15 a 0.56 0.56 0 0 0 -0.17 -0.09 h 0 L 75.76 13 a 0.44 0.44 0 0 0 -0.37 0 a 0.48 0.48 0 0 0 -0.24 0.3 L 71.65 26.28 l -0.23 0.86 l -0.23 0.85 h 0 l -0.43 1.59 l -0.14 0.5 l 0 0.12 l -0.1 0.38 l -0.27 1 l 0.42 0.36 l 0.43 0.37 l 0.46 -1.71 l 0.1 -0.38 l 0 -0.12 l 0.14 -0.5 l 0.74 -2.76 l 0.23 -0.85 h 0 l 0.23 -0.85 l -0.7 2.67 L 76 14.11 L 87.46 17.2 l -2 7.28 a 0.55 0.55 0 0 0 0 0.38 a 0.53 0.53 0 0 0 0.31 0.24 L 93.14 27 l -0.4 1.43 l -0.15 0.53 h 0 l -0.14 0.54 l 0 0 h 0 l -0.13 0.5 l 0 0.12 l -0.1 0.38 l -0.17 0.64 l 0.67 -0.57 v -0.07 h 0.06 l 0.45 -0.38 l 0.13 -0.12 h 0 l 0.09 -0.34 h 0 l 0 -0.14 l 0.1 -0.39 h 0 l 0.64 -2.28 v 0 l 0 -0.06 A 0.47 0.47 0 0 0 94.19 26.45 Z M 86.6 24.26 l 1.64 -6.12 l 4.48 7.76 Z" stroke-linecap="round" />
</g>
		<g transform="matrix(1 0 0 1 6.79 -8.66)"  >
<path style="stroke: none; stroke-width: 1; stroke-dasharray: none; stroke-linecap: butt; stroke-dashoffset: 0; stroke-linejoin: miter; stroke-miterlimit: 4; fill: rgb(230,230,230); fill-rule: nonzero; opacity: 1;"  transform=" translate(-89.79, -26.34)" d="M 86.44 27 l 0.4 -1.66 L 93.14 27 l -6.38 0.34 A 0.3 0.3 0 0 1 86.44 27 Z" stroke-linecap="round" />
</g>
		<g transform="matrix(1 0 0 1 -3.33 -14.86)"  >
<path style="stroke: none; stroke-width: 1; stroke-dasharray: none; stroke-linecap: butt; stroke-dashoffset: 0; stroke-linejoin: miter; stroke-miterlimit: 4; fill: rgb(128,128,128); fill-rule: nonzero; opacity: 1;"  transform=" translate(-79.68, -20.14)" d="M 82.69 21.47 l -0.13 0 l -6.08 -1.64 a 0.5 0.5 0 0 1 0.26 -1 l 6.08 1.64 a 0.5 0.5 0 0 1 -0.13 1 Z" stroke-linecap="round" />
</g>
		<g transform="matrix(1 0 0 1 -4.12 -12.53)"  >
<path style="stroke: none; stroke-width: 1; stroke-dasharray: none; stroke-linecap: butt; stroke-dashoffset: 0; stroke-linejoin: miter; stroke-miterlimit: 4; fill: rgb(128,128,128); fill-rule: nonzero; opacity: 1;"  transform=" translate(-78.89, -22.47)" d="M 81.75 23.76 l -0.13 0 l -5.78 -1.56 a 0.5 0.5 0 0 1 0.26 -1 l 5.78 1.56 a 0.5 0.5 0 0 1 -0.13 1 Z" stroke-linecap="round" />
</g>
		<g transform="matrix(1 0 0 1 -0.16 -8.91)"  >
<path style="stroke: none; stroke-width: 1; stroke-dasharray: none; stroke-linecap: butt; stroke-dashoffset: 0; stroke-linejoin: miter; stroke-miterlimit: 4; fill: rgb(128,128,128); fill-rule: nonzero; opacity: 1;"  transform=" translate(-82.85, -26.09)" d="M 90.32 28.6 l -0.13 0 l -15 -4 a 0.5 0.5 0 1 1 0.26 -1 l 15 4 a 0.5 0.5 0 0 1 -0.13 1 Z" stroke-linecap="round" />
</g>
		<g transform="matrix(1 0 0 1 -2.08 -6.89)"  >
<path style="stroke: none; stroke-width: 1; stroke-dasharray: none; stroke-linecap: butt; stroke-dashoffset: 0; stroke-linejoin: miter; stroke-miterlimit: 4; fill: rgb(128,128,128); fill-rule: nonzero; opacity: 1;"  transform=" translate(-80.92, -28.11)" d="M 87.1 30.28 l -0.13 0 L 74.56 26.93 a 0.5 0.5 0 1 1 0.26 -1 L 87.23 29.3 a 0.5 0.5 0 0 1 -0.13 1 Z" stroke-linecap="round" />
</g>
		<g transform="matrix(1 0 0 1 -2.11 -4.35)"  >
<path style="stroke: none; stroke-width: 1; stroke-dasharray: none; stroke-linecap: butt; stroke-dashoffset: 0; stroke-linejoin: miter; stroke-miterlimit: 4; fill: rgb(128,128,128); fill-rule: nonzero; opacity: 1;"  transform=" translate(-80.89, -30.65)" d="M 87.73 33 l -0.13 0 L 73.87 29.31 a 0.5 0.5 0 1 1 0.26 -1 L 87.86 32 a 0.5 0.5 0 0 1 -0.13 1 Z" stroke-linecap="round" />
</g>
		<g transform="matrix(1 0 0 1 -3.13 4.57)"  >
<polygon style="stroke: none; stroke-width: 1; stroke-dasharray: none; stroke-linecap: butt; stroke-dashoffset: 0; stroke-linejoin: miter; stroke-miterlimit: 4; fill: none; fill-rule: nonzero; opacity: 1;"  points="1.04,1.93 3.42,-0.1 -3.42,-1.93 1.04,1.93 " />
</g>
		<g transform="matrix(1 0 0 1 -2.56 -1.94)"  >
<path style="stroke: none; stroke-width: 1; stroke-dasharray: none; stroke-linecap: butt; stroke-dashoffset: 0; stroke-linejoin: miter; stroke-miterlimit: 4; fill: rgb(128,128,128); fill-rule: nonzero; opacity: 1;"  transform=" translate(-80.45, -33.07)" d="M 88.06 34.63 L 73.48 30.71 a 0.5 0.5 0 1 0 -0.26 1 l 13.92 3.73 Z" stroke-linecap="round" />
</g>
		<g transform="matrix(1 0 0 1 4.33 5.23)"  >
<path style="stroke: none; stroke-width: 1; stroke-dasharray: none; stroke-linecap: butt; stroke-dashoffset: 0; stroke-linejoin: miter; stroke-miterlimit: 4; fill: rgb(51,51,51); fill-rule: nonzero; opacity: 1;"  transform=" translate(-87.33, -40.23)" d="M 87.1 40.46 a 0.5 0.5 0 0 0 0.45 -0.36 a 0.48 0.48 0 0 0 0 -0.1 Z" stroke-linecap="round" />
</g>
</g>
</g>
<g transform="matrix(1 0 0 1 64 51)"  >
<path style="stroke: rgb(0,0,0); stroke-width: 1; stroke-dasharray: none; stroke-linecap: round; stroke-dashoffset: 0; stroke-linejoin: round; stroke-miterlimit: 10; fill: none; fill-rule: nonzero; opacity: 1;"  transform=" translate(-64, -51)" d="M 63.999 51 L 64.001 51" stroke-linecap="round" />
</g>
<g transform="matrix(0.45 0 0 0.45 93.89 46.36)"  >
<g style=""   >
		<g transform="matrix(1 0 0 1 21.07 2.81)"  >
<line style="stroke: rgb(198,198,198); stroke-width: 0.75; stroke-dasharray: none; stroke-linecap: round; stroke-dashoffset: 0; stroke-linejoin: round; stroke-miterlimit: 4; fill: none; fill-rule: nonzero; opacity: 1;"  x1="-3.5" y1="0" x2="3.5" y2="0" />
</g>
		<g transform="matrix(1 0 0 1 25.53 2.82)"  >
<polygon style="stroke: none; stroke-width: 1; stroke-dasharray: none; stroke-linecap: butt; stroke-dashoffset: 0; stroke-linejoin: miter; stroke-miterlimit: 4; fill: rgb(198,198,198); fill-rule: nonzero; opacity: 1;"  points="-1.46,1.69 1.45,0 -1.46,-1.68 -1.46,1.69 " />
</g>
		<g transform="matrix(1 0 0 1 19.2 3.49)"  >
<path style="stroke: rgb(198,198,198); stroke-width: 1; stroke-dasharray: none; stroke-linecap: round; stroke-dashoffset: 0; stroke-linejoin: round; stroke-miterlimit: 4; fill: none; fill-rule: nonzero; opacity: 1;"  transform=" translate(-94.2, -33.49)" d="M 85.9 46.85 c 9.77 -2.46 16.6 -8.13 16.6 -14.72 c 0 -4.8 -3.61 -9.1 -9.34 -12" stroke-linecap="round" />
</g>
		<g transform="matrix(1 0 0 1 14.65 3.48)"  >
<path style="stroke: rgb(51,51,51); stroke-width: 1; stroke-dasharray: none; stroke-linecap: round; stroke-dashoffset: 0; stroke-linejoin: round; stroke-miterlimit: 4; fill: none; fill-rule: nonzero; opacity: 1;"  transform=" translate(-89.65, -33.48)" d="M 93.16 20.1 a 36.4 36.4 0 0 1 -2.64 18.27 a 40.62 40.62 0 0 1 -4.62 8.48" stroke-linecap="round" />
</g>
		<g transform="matrix(1 0 0 1 3.63 -16.62)"  >
<path style="stroke: rgb(51,51,51); stroke-width: 1; stroke-dasharray: none; stroke-linecap: round; stroke-dashoffset: 0; stroke-linejoin: round; stroke-miterlimit: 4; fill: none; fill-rule: nonzero; opacity: 1;"  transform=" translate(-78.63, -13.37)" d="M 93.16 20.1 C 92.32 14 89.48 9.25 84.93 7.43 c -6.6 -2.66 -14.87 1.64 -20.83 10" stroke-linecap="round" />
</g>
		<g transform="matrix(1 0 0 1 -2.1 16.85)"  >
<path style="stroke: rgb(198,198,198); stroke-width: 1; stroke-dasharray: none; stroke-linecap: round; stroke-dashoffset: 0; stroke-linejoin: round; stroke-miterlimit: 4; fill: none; fill-rule: nonzero; opacity: 1;"  transform=" translate(-72.9, -46.85)" d="M 85.9 46.85 A 44.91 44.91 0 0 1 75 48.16 a 42.63 42.63 0 0 1 -15.1 -2.63" stroke-linecap="round" />
</g>
		<g transform="matrix(1 0 0 1 -3.63 20.89)"  >
<path style="stroke: rgb(51,51,51); stroke-width: 1; stroke-dasharray: none; stroke-linecap: round; stroke-dashoffset: 0; stroke-linejoin: round; stroke-miterlimit: 4; fill: none; fill-rule: nonzero; opacity: 1;"  transform=" translate(-71.37, -50.89)" d="M 56.84 44.16 c 0.84 6.09 3.68 10.84 8.23 12.67 c 6.6 2.66 14.87 -1.64 20.83 -10" stroke-linecap="round" />
</g>
		<g transform="matrix(1 0 0 1 -19.2 0.77)"  >
<path style="stroke: rgb(198,198,198); stroke-width: 1; stroke-dasharray: none; stroke-linecap: round; stroke-dashoffset: 0; stroke-linejoin: round; stroke-miterlimit: 4; fill: none; fill-rule: nonzero; opacity: 1;"  transform=" translate(-55.8, -30.77)" d="M 64.1 17.41 c -9.77 2.46 -16.6 8.12 -16.6 14.72 c 0 4.79 3.61 9.09 9.34 12" stroke-linecap="round" />
</g>
		<g transform="matrix(1 0 0 1 -16.63 14.84)"  >
<path style="stroke: rgb(198,198,198); stroke-width: 1; stroke-dasharray: none; stroke-linecap: round; stroke-dashoffset: 0; stroke-linejoin: round; stroke-miterlimit: 4; fill: none; fill-rule: nonzero; opacity: 1;"  transform=" translate(-58.37, -44.84)" d="M 59.9 45.53 a 31.78 31.78 0 0 1 -3.06 -1.37" stroke-linecap="round" />
</g>
		<g transform="matrix(1 0 0 1 1.36 3.92)"  >
<line style="stroke: rgb(117,117,117); stroke-width: 1; stroke-dasharray: 2 2; stroke-linecap: round; stroke-dashoffset: 0; stroke-linejoin: round; stroke-miterlimit: 4; fill: none; fill-rule: nonzero; opacity: 1;"  x1="-12.265" y1="-16.509999999999998" x2="12.265" y2="16.509999999999998" />
</g>
		<g transform="matrix(1 0 0 1 13.51 20.72)"  >
<polygon style="stroke: none; stroke-width: 1; stroke-dasharray: none; stroke-linecap: butt; stroke-dashoffset: 0; stroke-linejoin: miter; stroke-miterlimit: 4; fill: rgb(117,117,117); fill-rule: nonzero; opacity: 1;"  points="-1.6,0.34 1.6,1.73 1.2,-1.74 -1.6,0.34 " />
</g>
		<g transform="matrix(1 0 0 1 0.56 -11.18)"  >
<line style="stroke: rgb(198,198,198); stroke-width: 0.75; stroke-dasharray: none; stroke-linecap: round; stroke-dashoffset: 0; stroke-linejoin: round; stroke-miterlimit: 4; fill: none; fill-rule: nonzero; opacity: 1;"  x1="0" y1="14.000000000000002" x2="0" y2="-14.000000000000002" />
</g>
		<g transform="matrix(1 0 0 1 0.56 -26.16)"  >
<polygon style="stroke: none; stroke-width: 1; stroke-dasharray: none; stroke-linecap: butt; stroke-dashoffset: 0; stroke-linejoin: miter; stroke-miterlimit: 4; fill: rgb(198,198,198); fill-rule: nonzero; opacity: 1;"  points="1.68,1.46 0,-1.45 -1.68,1.46 1.68,1.46 " />
</g>
		<g transform="matrix(1 0 0 1 -3.31 8.81)"  >
<line style="stroke: rgb(198,198,198); stroke-width: 0.75; stroke-dasharray: none; stroke-linecap: round; stroke-dashoffset: 0; stroke-linejoin: round; stroke-miterlimit: 4; fill: none; fill-rule: nonzero; opacity: 1;"  x1="3.865000000000002" y1="-6" x2="-3.865000000000002" y2="6" />
</g>
		<g transform="matrix(1 0 0 1 -6.98 15.17)"  >
<polygon style="stroke: none; stroke-width: 1; stroke-dasharray: none; stroke-linecap: butt; stroke-dashoffset: 0; stroke-linejoin: miter; stroke-miterlimit: 4; fill: rgb(198,198,198); fill-rule: nonzero; opacity: 1;"  points="-1.33,-1.68 -1.5,1.68 1.5,0.14 -1.33,-1.68 " />
</g>
		<g transform="matrix(1 0 0 1 7.13 3.94)"  >
<line style="stroke: rgb(51,51,51); stroke-width: 0.75; stroke-dasharray: none; stroke-linecap: round; stroke-dashoffset: 0; stroke-linejoin: round; stroke-miterlimit: 4; fill: none; fill-rule: nonzero; opacity: 1;"  x1="6.560000000000002" y1="1.129999999999999" x2="-6.560000000000002" y2="-1.129999999999999" />
</g>
		<g transform="matrix(1 0 0 1 14.49 4.98)"  >
<polygon style="stroke: none; stroke-width: 1; stroke-dasharray: none; stroke-linecap: butt; stroke-dashoffset: 0; stroke-linejoin: miter; stroke-miterlimit: 4; fill: rgb(51,51,51); fill-rule: nonzero; opacity: 1;"  points="-1.01,-1.66 1.58,0.5 -1.58,1.66 -1.01,-1.66 " />
</g>
		<g transform="matrix(1 0 0 1 -5.96 -8.3)"  >
<polyline style="stroke: rgb(51,51,51); stroke-width: 0.75; stroke-dasharray: none; stroke-linecap: round; stroke-dashoffset: 0; stroke-linejoin: round; stroke-miterlimit: 4; fill: none; fill-rule: nonzero; opacity: 1;"  points="15.55,-11.11 6.53,11.1 -15.55,-2.98 " />
</g>
		<g transform="matrix(1 0 0 1 9.4 -19.99)"  >
<polygon style="stroke: none; stroke-width: 1; stroke-dasharray: none; stroke-linecap: butt; stroke-dashoffset: 0; stroke-linejoin: miter; stroke-miterlimit: 4; fill: rgb(51,51,51); fill-rule: nonzero; opacity: 1;"  points="-1.56,0.4 1.1,-1.67 1.56,1.67 -1.56,0.4 " />
</g>
		<g transform="matrix(1 0 0 1 -21.86 -11.1)"  >
<polygon style="stroke: none; stroke-width: 1; stroke-dasharray: none; stroke-linecap: butt; stroke-dashoffset: 0; stroke-linejoin: miter; stroke-miterlimit: 4; fill: rgb(51,51,51); fill-rule: nonzero; opacity: 1;"  points="1.68,-1.34 -1.68,-1.49 -0.13,1.49 1.68,-1.34 " />
</g>
</g>
</g>
</svg>
