<?xml version="1.0" encoding="utf-8"?>
<!-- Generator: Adobe Illustrator 25.2.2, SVG Export Plug-In . SVG Version: 6.00 Build 0)  -->
<svg version="1.1" id="Layer_1" xmlns="http://www.w3.org/2000/svg" xmlns:xlink="http://www.w3.org/1999/xlink" x="0px" y="0px"
	 viewBox="0 0 16 16" style="enable-background:new 0 0 16 16;" xml:space="preserve">
<style type="text/css">
	.st0{fill:#C3DFED;}
	.st1{fill:#0093FF;}
	.st2{fill:none;stroke:#0093FF;stroke-miterlimit:10;}
</style>
<rect class="st0" width="16" height="16"/>
<path class="st1" d="M9.1,7l1.7-5h0.7l1.7,5h-0.8L12,6h-1.7L9.8,7H9.1z M10.6,4.6L10.4,5h1.4l-0.2-0.4c-0.1-0.2-0.2-0.5-0.2-0.8
	S11.2,3.3,11.1,3l0,0l-0.2,0.8L10.6,4.6z"/>
<line class="st2" x1="9.5" y1="10.5" x2="13.5" y2="10.5"/>
<path class="st2" d="M4.8,8.5h2.3c1.3,0,2.3,0.9,2.3,2l0,0c0,1.1-1.1,2-2.3,2H4.8c-1.3,0-2.3-0.9-2.3-2l0,0C2.5,9.4,3.6,8.5,4.8,8.5
	z"/>
</svg>
