<svg xmlns="http://www.w3.org/2000/svg" xmlns:xlink="http://www.w3.org/1999/xlink" viewBox="0 0 16 16"><defs><radialGradient id="radial-gradient" cx="9.88" cy="9.48" r="7.95" gradientUnits="userSpaceOnUse"><stop offset="0.01" stop-color="#fff"/><stop offset="0.52" stop-color="#b7e060"/><stop offset="1" stop-color="#4ea43f"/></radialGradient><linearGradient id="linear-gradient" x1="12" y1="16" x2="12" y2="8" gradientUnits="userSpaceOnUse"><stop offset="0.01" stop-color="#154814"/><stop offset="0.58" stop-color="#528e39"/><stop offset="1" stop-color="#71b542"/></linearGradient></defs><title>add_signal_16</title><g id="Layer_2" data-name="Layer 2"><g id="Content"><polygon points="6 7 6 6 16 6 16 5 6 5 6 4 3 4 3 5 0 5 0 6 3 6 3 7 4 7 4 11 4 12 5 12 12 12 12 11 5 11 5 7 6 7" style="fill:#4d4d4d"/><polygon points="10.47 15.54 10.47 13.63 8.5 13.63 8.5 10.54 10.47 10.54 10.47 8.5 13.52 8.5 13.52 10.54 15.5 10.54 15.5 13.58 13.51 13.58 13.51 15.54 10.47 15.54" style="fill:url(#radial-gradient)"/><path d="M13,11h2v2H13v2H11V13H9V11h2V9h2ZM10,8v2H8v4h2v2h4V14h2V10H14V8Z" style="fill:url(#linear-gradient)"/><rect width="16" height="16" style="fill:#a97c50;opacity:0"/></g></g></svg>