<?xml version="1.0" encoding="utf-8"?>
<!-- Generator: Adobe Illustrator 15.1.0, SVG Export Plug-In . SVG Version: 6.00 Build 0)  -->
<!DOCTYPE svg PUBLIC "-//W3C//DTD SVG 1.1//EN" "http://www.w3.org/Graphics/SVG/1.1/DTD/svg11.dtd">
<svg version="1.1" id="Layer_1" xmlns="http://www.w3.org/2000/svg" xmlns:xlink="http://www.w3.org/1999/xlink" x="0px" y="0px"
	 width="14px" height="14px" viewBox="0 0 14 14" enable-background="new 0 0 14 14" xml:space="preserve">
<linearGradient id="SVGID_1_" gradientUnits="userSpaceOnUse" x1="7.0005" y1="13.9492" x2="7.0005" y2="-0.0498">
	<stop  offset="0.0368" style="stop-color:#273558"/>
	<stop  offset="0.9939" style="stop-color:#42668D"/>
</linearGradient>
<path fill="url(#SVGID_1_)" d="M14,10.949c0,1.658-1.343,3-3,3H3c-1.657,0-3-1.342-3-3v-8c0-1.657,1.343-3,3-3h8
	c1.657,0,3,1.343,3,3V10.949z"/>
<linearGradient id="SVGID_2_" gradientUnits="userSpaceOnUse" x1="6.9995" y1="-2.8721" x2="6.9995" y2="13.0394">
	<stop  offset="0.2883" style="stop-color:#FFFFFF"/>
	<stop  offset="0.6258" style="stop-color:#EBD479"/>
	<stop  offset="0.7117" style="stop-color:#F4E395"/>
	<stop  offset="0.9141" style="stop-color:#FFEED6"/>
</linearGradient>
<path fill="url(#SVGID_2_)" d="M11,0.95H3c-1.104,0-2,0.896-2,2v1v7c0,1.105,0.896,2,2,2h8c1.104,0,2-0.895,2-2v-7v-1
	C13,1.845,12.104,0.95,11,0.95z"/>
<g>
	<linearGradient id="SVGID_3_" gradientUnits="userSpaceOnUse" x1="7.0161" y1="11.9492" x2="7.0161" y2="2.4707">
		<stop  offset="0.0368" style="stop-color:#273558"/>
		<stop  offset="0.9939" style="stop-color:#42668D"/>
	</linearGradient>
	<path fill="url(#SVGID_3_)" d="M4.29,3.588C5.02,2.843,5.947,2.47,7.074,2.47c1.507,0,2.609,0.5,3.306,1.499
		C10.766,4.53,10.972,5.093,11,5.659H9.108c-0.12-0.434-0.275-0.762-0.464-0.983C8.308,4.283,7.808,4.086,7.146,4.086
		c-0.675,0-1.207,0.277-1.596,0.832c-0.39,0.555-0.584,1.34-0.584,2.355c0,1.017,0.205,1.777,0.616,2.283s0.934,0.758,1.565,0.758
		c0.649,0,1.145-0.217,1.484-0.65C8.821,9.432,8.977,9.08,9.102,8.613h1.88c-0.161,0.986-0.576,1.791-1.242,2.408
		c-0.667,0.619-1.521,0.928-2.562,0.928c-1.288,0-2.302-0.418-3.038-1.252C3.4,9.857,3.032,8.707,3.032,7.244
		C3.032,5.663,3.452,4.444,4.29,3.588z"/>
</g>
</svg>
