<?xml version="1.0" encoding="utf-8"?>
<!-- Generator: Adobe Illustrator 15.1.0, SVG Export Plug-In . SVG Version: 6.00 Build 0)  -->
<!DOCTYPE svg PUBLIC "-//W3C//DTD SVG 1.1//EN" "http://www.w3.org/Graphics/SVG/1.1/DTD/svg11.dtd">
<svg version="1.1" id="Layer_1" xmlns="http://www.w3.org/2000/svg" xmlns:xlink="http://www.w3.org/1999/xlink" x="0px" y="0px"
	 width="14px" height="14px" viewBox="0 0 14 14" enable-background="new 0 0 14 14" xml:space="preserve">
<radialGradient id="SVGID_1_" cx="0.6562" cy="0.6562" r="18.4076" gradientUnits="userSpaceOnUse">
	<stop  offset="0.3754" style="stop-color:#FFFFFF"/>
	<stop  offset="0.7864" style="stop-color:#CCCCCC"/>
</radialGradient>
<rect fill="url(#SVGID_1_)" width="14" height="14"/>
<linearGradient id="SVGID_2_" gradientUnits="userSpaceOnUse" x1="6.9995" y1="0" x2="6.9995" y2="14.0005">
	<stop  offset="0.2761" style="stop-color:#999999"/>
	<stop  offset="0.8466" style="stop-color:#4D4D4D"/>
</linearGradient>
<path fill="url(#SVGID_2_)" d="M13,13H1V0.999h12V13z M14,0H0v14h14V0L14,0z"/>
<g>
	<g>
		<path fill="#176508" d="M5.57,3.325c0.397,0.424,0.6,0.934,0.6,1.529c0,0.595-0.203,1.104-0.6,1.525
			C5.17,6.801,4.69,7.013,4.122,7.013c-0.564,0-1.043-0.212-1.441-0.634c-0.4-0.422-0.599-0.93-0.599-1.525
			c0-0.596,0.199-1.105,0.599-1.529c0.397-0.423,0.877-0.636,1.441-0.636C4.69,2.689,5.17,2.901,5.57,3.325z M4.979,5.756
			c0.238-0.251,0.354-0.552,0.354-0.902c0-0.351-0.117-0.651-0.354-0.902c-0.236-0.251-0.52-0.377-0.858-0.377
			c-0.332,0-0.616,0.125-0.853,0.373c-0.236,0.248-0.354,0.55-0.354,0.906c0,0.35,0.118,0.651,0.354,0.902
			c0.237,0.25,0.521,0.375,0.853,0.375C4.459,6.131,4.744,6.007,4.979,5.756z M9.029,2.46h1.045l-5.086,9.08H3.926L9.029,2.46z
			 M11.319,7.616c0.4,0.421,0.599,0.931,0.599,1.527c0,0.597-0.198,1.106-0.599,1.527c-0.396,0.421-0.878,0.635-1.442,0.635
			c-0.566,0-1.048-0.214-1.446-0.635c-0.397-0.421-0.599-0.931-0.599-1.527c0-0.596,0.201-1.105,0.599-1.527
			c0.398-0.424,0.88-0.634,1.446-0.634C10.441,6.981,10.923,7.192,11.319,7.616z M10.73,10.047c0.236-0.249,0.355-0.552,0.355-0.904
			s-0.119-0.654-0.355-0.904c-0.235-0.25-0.521-0.376-0.854-0.376c-0.335,0-0.622,0.126-0.857,0.376
			C8.782,8.488,8.667,8.79,8.667,9.143s0.115,0.655,0.353,0.904c0.235,0.251,0.522,0.377,0.857,0.377
			C10.21,10.424,10.495,10.298,10.73,10.047z"/>
	</g>
</g>
</svg>
