<svg xmlns="http://www.w3.org/2000/svg" xmlns:xlink="http://www.w3.org/1999/xlink" version="1.1" width="15" height="15" enable-background="new 0 0 512 512" xml:space="preserve"><rect id="backgroundrect" width="100%" height="100%" x="0" y="0" fill="none" stroke="none" class=""/>


<g class="currentLayer">
<title>Layer 1</title>
<path d="M11.096501205052832,10.255736437573344 v-1.3308726495630645 l-1.2078057486144083,-0.44356215555231354 c-0.105193341960652,-0.4062883377460788 -0.24631998480343809,-0.7899740706885777 -0.4548820762447165,-1.1426789680518665 l0.012101888898128106,-0.0015639364114504012 l0.5748583409516972,-1.1972677961277305 l-0.9383618468702392,-0.940931170974765 l-1.1959645157848553,0.5696824561614208 l-0.0011543340179752965,0.0016756461551254303 c-0.3527048973632901,-0.20856209144127832 -0.7357203718437376,-0.34093813769618697 -1.1420831827522664,-0.4460197699131643 L6.299908231134457,4.104439402107904 h-1.3307981764006152 l-0.44359939213353844,1.2198331643500864 c-0.4063628109085291,0.10504439563575181 -0.7898995975261272,0.2522406012182144 -1.1426044948894165,0.4609516389843928 l-0.0017873558988004607,-0.009234672143802377 l-1.1971188498028305,-0.5734061142839212 l-0.940931170974765,0.9390693419135147 l0.5696824561614208,1.1961879352722051 l0.0018618290612504773,0.0014522266677753732 c-0.20871103776617844,0.3526676607820654 -0.4155230098898815,0.7359437913310881 -0.5205674055256321,1.1422321290771669 L5.551115123125783e-17,8.924863788010281 v1.3308726495630645 l1.2940829073127555,0.44359939213353844 c0.10504439563575181,0.4064372840709788 0.28947718244322385,0.7898251243636771 0.49822545679062735,1.1426044948894165 l0.009271908725027379,0.0016756461551254303 l-0.5640224958152187,1.1970443766403804 l0.9436866779854156,0.9411173538808902 l1.1985710764706061,-0.5696452195801965 l0.002420377779625621,-0.001712882736350441 c0.35277937052574027,0.20841314511637846 0.7366140497931377,0.403123228341953 1.1429768607016668,0.5083538068838298 L4.969110054733845,15.200940607160735 h1.3307981764006152 l0.4436738652959886,-1.2821299647395277 c0.4063628109085291,-0.10523057854187697 0.7897506512012269,-0.2835193294472223 1.1424555485645165,-0.4920814208885008 l0.0018618290612504773,-0.0065164017143766705 l1.1971933229652807,0.5656981419703444 l0.9408566978123151,-0.9430536561045912 l-0.5696824561614208,-1.198347656983256 l-0.001712882736350441,-0.002271431454725581 c0.20856209144127832,-0.35274213394451537 0.3289851951229596,-0.7363906303057888 0.4341785370836112,-1.1427162046330916 L11.096501205052832,10.255736437573344 zM5.634564997805985,11.808352928331345 c-1.2249718125591376,0 -2.218034197248916,-0.9928017286212035 -2.218034197248916,-2.217996960667691 c0,-1.2249345759779124 0.9930623846897785,-2.218108670411366 2.218034197248916,-2.218108670411366 c1.2251207588840378,0 2.218034197248916,0.9931740944334536 2.218034197248916,2.218108670411366 C7.852599195054907,10.815551199710134 6.859685756690029,11.808352928331345 5.634564997805985,11.808352928331345 z" id="svg_1" class="" stroke-dasharray="none" fill="#000000" fill-opacity="1" stroke="none"/>
<path d="M15.350333771035464,2.2143105391264157 l-0.2910038822734498,-0.7025053413910295 l-0.7532960381819422,0.03768342019970969 c-0.14421727908446197,-0.191619446983899 -0.31222873357170483,-0.35910958933399206 -0.49960321029595267,-0.4997149200396279 l0.0014149900865503637,-0.0016011729926754122 l0.0394707760985101,-0.7565728573297437 l-0.7022446853224545,-0.2912645383420244 L12.637537119049849,0.5628681617972476 l-0.00029789264980007666,0.0011543340179752965 c-0.23194666445058426,-0.03287990122168344 -0.4698884184783953,-0.034741730282933876 -0.7070482043004811,-0.000930914530625239 L11.422693656583913,-6.661338147750939e-16 l-0.7025425779722544,0.2910038822734498 l0.03928459319238507,0.7566473304921942 c-0.19184286647124923,0.14421727908446197 -0.3584765674531669,0.3136064870770305 -0.4990818981588027,0.5012043832886282 l-0.0014149900865503637,-0.0007819682057252003 l-0.7565356207485184,-0.038912227380134994 l-0.2904080969738495,0.7020212658351047 l0.5623840862413185,0.507013289959729 l0.0014149900865503637,0.0007819682057252003 c-0.027219940875481973,0.2172754514479306 -0.03853986156788483,0.47134064514617047 -0.004952465302926271,0.7089100333617315 l-0.5662939272699445,0.5087261726960803 l0.29089217252977445,0.7026542877159295 l0.7601475691273443,-0.040438927210360416 c0.14403109617833693,0.1915449738214492 0.3154683161382809,0.35795525531601674 0.5025076636315033,0.4984116396967524 l0.00048407555592512493,0.000930914530625239 l-0.03835367866175984,0.7563494378423938 l0.7696056607584972,0.2910038822734498 L12.064652316903079,5.582843386484452 v-0.0012288071804253153 c0.14894632490003826,0.027219940875481973 0.40282533569215334,0.03481620344538395 0.6402085410015892,0.0014894632490003834 l0.47398444241314625,0.5627936886347947 l0.6858978261646764,-0.2909294091109995 l-0.04788624345536229,-0.756796276817094 c0.1915449738214492,-0.1442917522469119 0.3545294898433159,-0.3136809602394807 0.49513482054895147,-0.5010554369637282 l-0.0008564413681752202,0.00040960239347510527 l0.7554185233117675,0.03898670054258496 l0.2905198067175243,-0.7024308682285799 l-0.563054344703368,-0.5073111826095296 l-0.0012288071804253153,-0.0007074950432751808 c0.03265648173433338,-0.23168600838200923 0.031725567203708165,-0.46843619181061985 -0.0018618290612504773,-0.7057449239576056 L15.350333771035464,2.2143105391264157 zM12.768870541030457,4.243741452470662 c-0.6463898134849408,0.26773101900781826 -1.3878073822561048,-0.0392101200299351 -1.6556128744263727,-0.6859350627459009 c-0.2679544384951685,-0.6465759963910658 0.03898670054258496,-1.3878818554185544 0.685711643258551,-1.6557245841700476 c0.6468366524596407,-0.2678054921702687 1.3879563285810042,0.0392101200299351 1.6559480036573984,0.6857861164210008 C13.722536622784174,3.234704574435355 13.415446537421522,3.975861487137943 12.768870541030457,4.243741452470662 z" id="svg_2" class="" stroke-dasharray="none" fill="#000000" fill-opacity="1" stroke="none"/>
</g></svg>
