<?xml version="1.0" encoding="utf-8"?>
<!-- Generator: Adobe Illustrator 15.1.0, SVG Export Plug-In . SVG Version: 6.00 Build 0)  -->
<!DOCTYPE svg PUBLIC "-//W3C//DTD SVG 1.1//EN" "http://www.w3.org/Graphics/SVG/1.1/DTD/svg11.dtd">
<svg version="1.1" id="Layer_1" xmlns="http://www.w3.org/2000/svg" xmlns:xlink="http://www.w3.org/1999/xlink" x="0px" y="0px"
	 width="14px" height="14px" viewBox="0 0 14 14" enable-background="new 0 0 14 14" xml:space="preserve">
<g>
	<linearGradient id="SVGID_1_" gradientUnits="userSpaceOnUse" x1="1.9897" y1="9.5" x2="13.9474" y2="9.5">
		<stop  offset="0" style="stop-color:#C2C3C5"/>
		<stop  offset="0.1043" style="stop-color:#DCDCDC"/>
		<stop  offset="0.2331" style="stop-color:#ABABAB"/>
		<stop  offset="1" style="stop-color:#81848A"/>
	</linearGradient>
	<rect x="1" y="5" fill="url(#SVGID_1_)" width="10" height="9"/>
	
		<linearGradient id="SVGID_2_" gradientUnits="userSpaceOnUse" x1="-127.8086" y1="-72.3096" x2="-116.45" y2="-60.951" gradientTransform="matrix(-1 0 0 -1 -118 -59)">
		<stop  offset="0" style="stop-color:#808080"/>
		<stop  offset="0.1779" style="stop-color:#858585;stop-opacity:0.8221"/>
		<stop  offset="0.3857" style="stop-color:#939393;stop-opacity:0.6143"/>
		<stop  offset="0.6084" style="stop-color:#AAAAAA;stop-opacity:0.3916"/>
		<stop  offset="0.8401" style="stop-color:#CBCBCB;stop-opacity:0.1599"/>
		<stop  offset="1" style="stop-color:#E6E6E6;stop-opacity:0"/>
	</linearGradient>
	<rect x="1" y="5" opacity="0.8" fill="url(#SVGID_2_)" width="10" height="9"/>
	<g>
		<g>
			<g>
				<g>
					<linearGradient id="SVGID_3_" gradientUnits="userSpaceOnUse" x1="-3.2812" y1="3.7188" x2="10.3915" y2="17.3915">
						<stop  offset="0" style="stop-color:#BFBFBF"/>
						<stop  offset="0.9387" style="stop-color:#333333"/>
					</linearGradient>
					<rect y="2" fill="url(#SVGID_3_)" width="1" height="11"/>
					<linearGradient id="SVGID_4_" gradientUnits="userSpaceOnUse" x1="1.2905" y1="-2.7095" x2="14.9619" y2="10.9619">
						<stop  offset="0" style="stop-color:#BFBFBF"/>
						<stop  offset="0.9387" style="stop-color:#333333"/>
					</linearGradient>
					<rect x="11" y="2" fill="url(#SVGID_4_)" width="1" height="11"/>
					<linearGradient id="SVGID_5_" gradientUnits="userSpaceOnUse" x1="-0.9951" y1="6.5049" x2="8.5729" y2="16.0729">
						<stop  offset="0" style="stop-color:#BFBFBF"/>
						<stop  offset="0.9387" style="stop-color:#333333"/>
					</linearGradient>
					<rect x="2" y="13" fill="url(#SVGID_5_)" width="8" height="1"/>
					<linearGradient id="SVGID_6_" gradientUnits="userSpaceOnUse" x1="3.1201" y1="-2.3799" x2="14.1627" y2="8.6627">
						<stop  offset="0" style="stop-color:#BFBFBF"/>
						<stop  offset="0.9387" style="stop-color:#333333"/>
					</linearGradient>
					<rect x="2" fill="url(#SVGID_6_)" width="8" height="1"/>
				</g>
				<g>
					<linearGradient id="SVGID_7_" gradientUnits="userSpaceOnUse" x1="1.0435" y1="0.5435" x2="12.0844" y2="11.5844">
						<stop  offset="0" style="stop-color:#BFBFBF"/>
						<stop  offset="0.9387" style="stop-color:#333333"/>
					</linearGradient>
					<rect x="2" y="5" fill="url(#SVGID_7_)" width="8" height="1"/>
					<linearGradient id="SVGID_8_" gradientUnits="userSpaceOnUse" x1="-1.9131" y1="1.0869" x2="14.0476" y2="17.0476">
						<stop  offset="0" style="stop-color:#BFBFBF"/>
						<stop  offset="0.9387" style="stop-color:#333333"/>
					</linearGradient>
					<rect x="1" y="4" fill="url(#SVGID_8_)" width="1" height="1"/>
					<linearGradient id="SVGID_9_" gradientUnits="userSpaceOnUse" x1="0.5962" y1="-5.4038" x2="16.5349" y2="10.5349">
						<stop  offset="0" style="stop-color:#BFBFBF"/>
						<stop  offset="0.9387" style="stop-color:#333333"/>
					</linearGradient>
					<rect x="10" y="4" fill="url(#SVGID_9_)" width="1" height="1"/>
					<linearGradient id="SVGID_10_" gradientUnits="userSpaceOnUse" x1="-1.9106" y1="-1.9106" x2="14.0391" y2="14.0391">
						<stop  offset="0" style="stop-color:#BFBFBF"/>
						<stop  offset="0.9387" style="stop-color:#333333"/>
					</linearGradient>
					<rect x="1" y="1" fill="url(#SVGID_10_)" width="1" height="1"/>
					<linearGradient id="SVGID_11_" gradientUnits="userSpaceOnUse" x1="0.5962" y1="-8.4038" x2="16.5349" y2="7.5349">
						<stop  offset="0" style="stop-color:#BFBFBF"/>
						<stop  offset="0.9387" style="stop-color:#333333"/>
					</linearGradient>
					<rect x="10" y="1" fill="url(#SVGID_11_)" width="1" height="1"/>
				</g>
				<g>
					<linearGradient id="SVGID_12_" gradientUnits="userSpaceOnUse" x1="0.0054" y1="2.5054" x2="11.0463" y2="13.5463">
						<stop  offset="0" style="stop-color:#BFBFBF"/>
						<stop  offset="0.9387" style="stop-color:#333333"/>
					</linearGradient>
					<rect x="2" y="8" fill="url(#SVGID_12_)" width="8" height="1"/>
					<linearGradient id="SVGID_13_" gradientUnits="userSpaceOnUse" x1="-3.4102" y1="2.5898" x2="12.5395" y2="18.5395">
						<stop  offset="0" style="stop-color:#BFBFBF"/>
						<stop  offset="0.9387" style="stop-color:#333333"/>
					</linearGradient>
					<rect x="1" y="7" fill="url(#SVGID_13_)" width="1" height="1"/>
					<linearGradient id="SVGID_14_" gradientUnits="userSpaceOnUse" x1="-0.9033" y1="-3.9033" x2="15.0354" y2="12.0354">
						<stop  offset="0" style="stop-color:#BFBFBF"/>
						<stop  offset="0.9387" style="stop-color:#333333"/>
					</linearGradient>
					<rect x="10" y="7" fill="url(#SVGID_14_)" width="1" height="1"/>
				</g>
				<g>
					<linearGradient id="SVGID_15_" gradientUnits="userSpaceOnUse" x1="-1.0337" y1="4.4663" x2="10.0072" y2="15.5072">
						<stop  offset="0" style="stop-color:#BFBFBF"/>
						<stop  offset="0.9387" style="stop-color:#333333"/>
					</linearGradient>
					<rect x="2" y="11" fill="url(#SVGID_15_)" width="8" height="1"/>
					<linearGradient id="SVGID_16_" gradientUnits="userSpaceOnUse" x1="-4.9102" y1="4.0898" x2="11.0395" y2="20.0395">
						<stop  offset="0" style="stop-color:#BFBFBF"/>
						<stop  offset="0.9387" style="stop-color:#333333"/>
					</linearGradient>
					<rect x="1" y="10" fill="url(#SVGID_16_)" width="1" height="1"/>
					<linearGradient id="SVGID_17_" gradientUnits="userSpaceOnUse" x1="-4.9106" y1="7.0894" x2="11.0391" y2="23.0391">
						<stop  offset="0" style="stop-color:#BFBFBF"/>
						<stop  offset="0.9387" style="stop-color:#333333"/>
					</linearGradient>
					<rect x="1" y="13" fill="url(#SVGID_17_)" width="1" height="1"/>
					<linearGradient id="SVGID_18_" gradientUnits="userSpaceOnUse" x1="-2.4023" y1="-2.4023" x2="13.5364" y2="13.5364">
						<stop  offset="0" style="stop-color:#BFBFBF"/>
						<stop  offset="0.9387" style="stop-color:#333333"/>
					</linearGradient>
					<rect x="10" y="10" fill="url(#SVGID_18_)" width="1" height="1"/>
					<linearGradient id="SVGID_19_" gradientUnits="userSpaceOnUse" x1="-2.4028" y1="0.5972" x2="13.5359" y2="16.5359">
						<stop  offset="0" style="stop-color:#BFBFBF"/>
						<stop  offset="0.9387" style="stop-color:#333333"/>
					</linearGradient>
					<rect x="10" y="13" fill="url(#SVGID_19_)" width="1" height="1"/>
				</g>
			</g>
		</g>
	</g>
	
		<radialGradient id="SVGID_20_" cx="4.0659" cy="1.4551" r="5.017" gradientTransform="matrix(0.1053 0.9944 -1.5713 0.1663 5.9243 -2.8303)" gradientUnits="userSpaceOnUse">
		<stop  offset="0.0245" style="stop-color:#EEEEEE"/>
		<stop  offset="0.5494" style="stop-color:#E3E3E3"/>
		<stop  offset="1" style="stop-color:#B2B5B5"/>
	</radialGradient>
	<polygon fill="url(#SVGID_20_)" points="10,2 10,1 2,1 2,2 1,2 1,4 2,4 2,5 10,5 10,4 11,4 11,2 	"/>
	<g>
		<linearGradient id="SVGID_21_" gradientUnits="userSpaceOnUse" x1="8" y1="14" x2="8" y2="8">
			<stop  offset="0.092" style="stop-color:#143253"/>
			<stop  offset="0.9939" style="stop-color:#609ABD"/>
		</linearGradient>
		<polygon fill="url(#SVGID_21_)" points="14,14 8,13 8,13 2,14 2,8 14,8 		"/>
	</g>
	<linearGradient id="SVGID_22_" gradientUnits="userSpaceOnUse" x1="3" y1="9.5" x2="8" y2="9.5">
		<stop  offset="0" style="stop-color:#B2B5B5"/>
		<stop  offset="0.2775" style="stop-color:#EEEEEE"/>
		<stop  offset="0.7052" style="stop-color:#E3E3E3"/>
		<stop  offset="1" style="stop-color:#B2B5B5"/>
	</linearGradient>
	<path fill="url(#SVGID_22_)" d="M8,12c0,0-1.209-1-2-1s-1.354,2-2,2s-1-1-1-1V7c0,0,0.604,1,1,1s1.229-2,2-2s2,1,2,1V12z"/>
	
		<linearGradient id="SVGID_23_" gradientUnits="userSpaceOnUse" x1="-400" y1="9.5" x2="-395" y2="9.5" gradientTransform="matrix(-1 0 0 1 -387 0)">
		<stop  offset="0" style="stop-color:#B2B5B5"/>
		<stop  offset="0.2775" style="stop-color:#EEEEEE"/>
		<stop  offset="0.7052" style="stop-color:#E3E3E3"/>
		<stop  offset="1" style="stop-color:#B2B5B5"/>
	</linearGradient>
	<path fill="url(#SVGID_23_)" d="M8,12c0,0,1.209-1,2-1s1.354,2,2,2s1-1,1-1V7c0,0-0.604,1-1,1s-1.229-2-2-2S8,7,8,7V12z"/>
	<path opacity="0.6" fill="#FFFFFF" d="M8,12c0,0-1.209-1-2-1s-1.354,2-2,2s-1-1-1-1V7c0,0,0.604,1,1,1s1.229-2,2-2s2,1,2,1V12z"/>
	<path opacity="0.6" fill="#FFFFFF" d="M8,12c0,0,1.209-1,2-1s1.354,2,2,2s1-1,1-1V7c0,0-0.604,1-1,1s-1.229-2-2-2S8,7,8,7V12z"/>
</g>
</svg>
