<svg width="14" height="14" viewBox="0 0 14 14" fill="none" xmlns="http://www.w3.org/2000/svg">
<path d="M8 13C10.7614 13 13 10.7614 13 8C13 5.23858 10.7614 3 8 3C5.23858 3 3 5.23858 3 8C3 10.7614 5.23858 13 8 13Z" fill="url(#paint0_linear_159:574)"/>
<path d="M6.99967 11.7916C9.64604 11.7916 11.7913 9.64628 11.7913 6.99992C11.7913 4.35355 9.64604 2.20825 6.99967 2.20825C4.35331 2.20825 2.20801 4.35355 2.20801 6.99992C2.20801 9.64628 4.35331 11.7916 6.99967 11.7916Z" fill="url(#paint1_radial_159:574)"/>
<path d="M7 2.41667C7.9065 2.41667 8.79264 2.68547 9.54636 3.1891C10.3001 3.69272 10.8875 4.40854 11.2344 5.24603C11.5813 6.08353 11.6721 7.00508 11.4953 7.89416C11.3184 8.78324 10.8819 9.59991 10.2409 10.2409C9.59992 10.8819 8.78324 11.3184 7.89416 11.4953C7.00509 11.6721 6.08353 11.5813 5.24604 11.2344C4.40854 10.8875 3.69272 10.3001 3.1891 9.54636C2.68548 8.79264 2.41667 7.9065 2.41667 7C2.41667 5.78442 2.89955 4.61864 3.7591 3.75909C4.61864 2.89955 5.78443 2.41667 7 2.41667V2.41667ZM7 2C6.01109 2 5.0444 2.29324 4.22215 2.84265C3.3999 3.39206 2.75904 4.17295 2.3806 5.08658C2.00217 6.00021 1.90315 7.00555 2.09608 7.97545C2.289 8.94536 2.76521 9.83627 3.46447 10.5355C4.16373 11.2348 5.05465 11.711 6.02455 11.9039C6.99445 12.0969 7.99979 11.9978 8.91342 11.6194C9.82705 11.241 10.6079 10.6001 11.1573 9.77785C11.7068 8.9556 12 7.98891 12 7C12 5.67392 11.4732 4.40215 10.5355 3.46447C9.59785 2.52678 8.32608 2 7 2V2Z" fill="#8B1C1E"/>
<path opacity="0.4" d="M7.00032 3.66663C8.09673 3.66341 9.15743 4.05622 9.98729 4.77278C10.8172 5.48934 11.3604 6.48145 11.517 7.56663C11.5542 7.36157 11.5765 7.15408 11.5837 6.94579C11.5809 6.34722 11.4601 5.75506 11.2282 5.20326C10.9962 4.65145 10.6576 4.15084 10.2319 3.7301C9.80609 3.30936 9.30149 2.97677 8.74696 2.75138C8.19244 2.52599 7.59889 2.41223 7.00032 2.41663C6.40191 2.41278 5.80861 2.52692 5.25433 2.7525C4.70005 2.97809 4.19567 3.3107 3.77001 3.73133C3.34435 4.15196 3.00576 4.65236 2.7736 5.20391C2.54144 5.75547 2.42026 6.34738 2.41699 6.94579C2.42433 7.15269 2.44661 7.35878 2.48366 7.56246C2.6412 6.47805 3.1848 5.48692 4.01457 4.7712C4.84434 4.05549 5.90453 3.66327 7.00032 3.66663V3.66663Z" fill="white"/>
<defs>
<linearGradient id="paint0_linear_159:574" x1="2.14441e-07" y1="5" x2="16.5" y2="5" gradientUnits="userSpaceOnUse">
<stop offset="0.427756" stop-color="#676767"/>
<stop offset="0.787093" stop-color="white"/>
</linearGradient>
<radialGradient id="paint1_radial_159:574" cx="0" cy="0" r="1" gradientUnits="userSpaceOnUse" gradientTransform="translate(4.92051 4.44158) scale(8.05833)">
<stop offset="0.35" stop-color="#F2ADB0"/>
<stop offset="0.95" stop-color="#C03D3B"/>
</radialGradient>
</defs>
</svg>
