<?xml version="1.0" encoding="utf-8"?>
<!-- Generator: Adobe Illustrator 17.1.0, SVG Export Plug-In . SVG Version: 6.00 Build 0)  -->
<!DOCTYPE svg PUBLIC "-//W3C//DTD SVG 1.1//EN" "http://www.w3.org/Graphics/SVG/1.1/DTD/svg11.dtd">
<svg version="1.1" id="HarnessBadge" xmlns="http://www.w3.org/2000/svg" xmlns:xlink="http://www.w3.org/1999/xlink" x="0px"
	 y="0px" width="14px" height="14px" viewBox="0 0 14 14" enable-background="new 0 0 14 14" xml:space="preserve">
<radialGradient id="bgGradient_2_" cx="-279.1388" cy="-286.2815" r="2.004100e-04" gradientTransform="matrix(73466.8203 0 0 73466.8203 20507442 21032196)" gradientUnits="userSpaceOnUse">
	<stop  offset="0.3754" style="stop-color:#FFFFFF"/>
	<stop  offset="0.7864" style="stop-color:#CCCCCC"/>
</radialGradient>
<rect id="bgGradient_1_" x="1" y="1" fill="url(#bgGradient_2_)" width="12" height="12"/>
<path id="block" d="M13,6h-3V4H4v1H1v1h3v2H1v1h3v1h6V7h3V6z M9,9H5V8V6V5h4v1v1V9z"/>
<g id="highlight">
	<rect x="1" y="6" fill="#FFFFFF" width="3" height="1"/>
	<rect x="1" y="9" fill="#FFFFFF" width="3" height="1"/>
	<rect x="10" y="7" fill="#FFFFFF" width="3" height="1"/>
	<rect x="4" y="10" fill="#FFFFFF" width="6" height="1"/>
</g>
<path id="border" fill="#B3B3B3" d="M0,0v14h14V0H0z M13,13H1V1h12V13z"/>
</svg>
