<?xml version="1.0" encoding="utf-8"?>
<!-- Generator: Adobe Illustrator 14.0.0, SVG Export Plug-In . SVG Version: 6.00 Build 43363)  -->
<!DOCTYPE svg PUBLIC "-//W3C//DTD SVG 1.1//EN" "http://www.w3.org/Graphics/SVG/1.1/DTD/svg11.dtd">
<svg version="1.1" id="Layer_1" xmlns="http://www.w3.org/2000/svg" xmlns:xlink="http://www.w3.org/1999/xlink" x="0px" y="0px"
	 width="14px" height="14px" viewBox="0 0 14 14" enable-background="new 0 0 14 14" xml:space="preserve">
<g>
	<image overflow="visible" width="109" height="85" xlink:href="66F7DCF.png"  transform="matrix(0.24 0 0 0.24 -6 -2.0938)">
	</image>
	<g>
		<path fill="#C7DBF2" d="M0.774,11.396c0.216-3.376,1.927-6.726,6.197-6.74c5.108,0,6.108,4.251,6.256,6.74H0.774z"/>
		<path fill="#0E75BC" d="M7.002,3.906v1.5c3.917,0,5.105,2.832,5.408,5.24H1.606c0.397-2.736,1.952-5.229,5.368-5.24L7.002,3.906
			 M7.002,3.906c-0.011,0-0.022,0-0.033,0C2.359,3.922,0,7.613,0,12.146h14C14,7.623,11.931,3.906,7.002,3.906L7.002,3.906z"/>
	</g>
</g>
<ellipse cx="7.406" cy="9.803" rx="1.656" ry="1.614"/>
<polygon points="7.42,8.795 6.234,9.767 4.369,6.79 4.867,6.382 "/>
</svg>
