<?xml version="1.0" encoding="UTF-8" standalone="no"?>
<!-- Generator: Adobe Illustrator 14.0.0, SVG Export Plug-In . SVG Version: 6.00 Build 43363)  -->

<svg
   xmlns:dc="http://purl.org/dc/elements/1.1/"
   xmlns:cc="http://creativecommons.org/ns#"
   xmlns:rdf="http://www.w3.org/1999/02/22-rdf-syntax-ns#"
   xmlns:svg="http://www.w3.org/2000/svg"
   xmlns="http://www.w3.org/2000/svg"
   xmlns:sodipodi="http://sodipodi.sourceforge.net/DTD/sodipodi-0.dtd"
   xmlns:inkscape="http://www.inkscape.org/namespaces/inkscape"
   version="1.1"
   id="Layer_1"
   x="0px"
   y="0px"
   width="14px"
   height="14px"
   viewBox="0 0 14 14"
   enable-background="new 0 0 14 14"
   xml:space="preserve"
   inkscape:version="0.48.2 r9819"
   sodipodi:docname="InvalidSVG.svg"><metadata
   id="metadata5229"><rdf:RDF><cc:Work
       rdf:about=""><dc:format>image/svg+xml</dc:format><dc:type
         rdf:resource="http://purl.org/dc/dcmitype/StillImage" /><dc:title /></cc:Work></rdf:RDF></metadata><defs
   id="defs5227" /><sodipodi:namedview
   pagecolor="#ffffff"
   bordercolor="#666666"
   borderopacity="1"
   objecttolerance="10"
   gridtolerance="10"
   guidetolerance="10"
   inkscape:pageopacity="0"
   inkscape:pageshadow="2"
   inkscape:window-width="905"
   inkscape:window-height="678"
   id="namedview5225"
   showgrid="false"
   inkscape:zoom="33.714286"
   inkscape:cx="8.3073416"
   inkscape:cy="5.9329404"
   inkscape:window-x="800"
   inkscape:window-y="560"
   inkscape:window-maximized="0"
   inkscape:current-layer="Layer_1"
   showguides="true"
   inkscape:guide-bbox="true" />



<rect
   style="fill:none;stroke:#ff0000;stroke-width:0.80685854;stroke-opacity:1"
   id="rect2993"
   width="13.193142"
   height="13.193141"
   x="0.46275112"
   y="0.46275145" /><g
   style="font-size:14.74534988px;font-style:normal;font-weight:normal;line-height:125%;letter-spacing:0px;word-spacing:0px;fill:#ff0000;fill-opacity:1;stroke:none;font-family:Sans"
   id="text2997"><path
     d="M 6.6902342,9.8320269 C 6.6854309,9.6592327 6.6830309,9.529635 6.6830343,9.4432335 6.6830309,8.9344457 6.7550296,8.4952536 6.8990306,8.1256559 7.0046251,7.8472652 7.1750221,7.5664702 7.410222,7.2832702 7.5830147,7.076879 7.8938092,6.7756844 8.3426061,6.3796855 8.791393,5.9836987 9.0829878,5.6681043 9.2173913,5.4329016 9.351783,5.1977128 9.4189818,4.9409174 9.4189879,4.6625146 9.4189818,4.1585315 9.2221853,3.7157394 8.8285979,3.3341372 8.4349994,2.9525531 7.9526081,2.7617565 7.3814224,2.7617469 6.8294283,2.7617565 6.3686365,2.9345534 5.9990459,3.2801381 5.6294498,3.625741 5.3870542,4.1657313 5.2718582,4.9001106 L 3.9398808,4.7417133 C 4.059878,3.7577387 4.4162716,3.0041522 5.0090627,2.4809516 5.6018503,1.957771 6.3854362,1.6961757 7.3598228,1.696165 8.3918002,1.6961757 9.2149854,1.9769706 9.8293809,2.5385507 10.443763,3.1001505 10.750958,3.7793383 10.750965,4.5761161 10.750958,5.0369157 10.64296,5.461708 10.426971,5.8504945 10.210968,6.2392941 9.7885751,6.7120856 9.1597923,7.2688704 8.737394,7.6432689 8.461399,7.9192639 8.3318063,8.0968564 8.2022036,8.2744575 8.1062053,8.4784539 8.0438112,8.708846 7.9814076,8.9392456 7.9454082,9.3136389 7.935813,9.8320269 z m -0.079199,2.5991561 0,-1.475975 1.475975,0 0,1.475975 z"
     style=""
     id="path3002" /></g></svg>