<?xml version="1.0" encoding="utf-8"?>
<!-- Generator: Adobe Illustrator 14.0.0, SVG Export Plug-In . SVG Version: 6.00 Build 43363)  -->
<!DOCTYPE svg PUBLIC "-//W3C//DTD SVG 1.1//EN" "http://www.w3.org/Graphics/SVG/1.1/DTD/svg11.dtd">
<svg version="1.1" id="Layer_1" xmlns="http://www.w3.org/2000/svg" xmlns:xlink="http://www.w3.org/1999/xlink" x="0px" y="0px"
	 width="14px" height="14px" viewBox="0 0 14 14" enable-background="new 0 0 14 14" xml:space="preserve">
<g>
	<path fill="#999999" d="M4.232,12.242C3.904,12.57,3.465,12.75,2.996,12.75s-0.909-0.18-1.237-0.508
		c-0.682-0.682-0.681-1.791,0-2.474L4.79,6.737L3.906,5.854L0.875,8.885c-1.166,1.167-1.166,3.075,0,4.241
		C1.458,13.709,2.227,14,2.996,14c0.769,0,1.538-0.291,2.121-0.874l3.031-3.031L7.264,9.211L4.232,12.242z"/>
	<path fill="#999999" d="M9.769,1.759c0.328-0.328,0.768-0.508,1.236-0.508c0.47,0,0.909,0.181,1.237,0.508
		c0.682,0.683,0.682,1.792,0,2.474L9.211,7.263l0.885,0.883l3.03-3.03c1.166-1.166,1.166-3.074,0-4.241
		C12.543,0.292,11.774,0,11.005,0c-0.769,0-1.537,0.292-2.12,0.875L5.854,3.906L6.738,4.79L9.769,1.759z"/>
	
		<rect x="1.793" y="1.086" transform="matrix(0.7071 -0.7071 0.7071 0.7071 -1.0355 2.5)" fill="#999999" width="1.414" height="2.828"/>
	
		<rect x="10.793" y="10.086" transform="matrix(-0.7071 0.7071 -0.7071 -0.7071 27.7635 11.5)" fill="#999999" width="1.414" height="2.828"/>
</g>
</svg>
