<?xml version="1.0" encoding="utf-8"?>
<!-- Generator: Adobe Illustrator 14.0.0, SVG Export Plug-In . SVG Version: 6.00 Build 43363)  -->
<!DOCTYPE svg PUBLIC "-//W3C//DTD SVG 1.1//EN" "http://www.w3.org/Graphics/SVG/1.1/DTD/svg11.dtd">
<svg version="1.1" id="Layer_1" xmlns="http://www.w3.org/2000/svg" xmlns:xlink="http://www.w3.org/1999/xlink" x="0px" y="0px"
	 width="14px" height="14px" viewBox="0 0 14 14" enable-background="new 0 0 14 14" xml:space="preserve">
<g>
	<linearGradient id="SVGID_1_" gradientUnits="userSpaceOnUse" x1="6.9995" y1="0" x2="6.9995" y2="14.0005">
		<stop  offset="0.1411" style="stop-color:#5C5C5C"/>
		<stop  offset="0.9325" style="stop-color:#313131"/>
	</linearGradient>
	<rect fill="url(#SVGID_1_)" width="14" height="14"/>
</g>
<g>
	<path fill="#FFFFFF" d="M8.394,5.604c-0.419-0.419-0.95-0.651-1.499-0.719c-0.105-0.013-0.211-0.03-0.317-0.03
		c-0.653,0-1.305,0.247-1.804,0.737C4.77,5.598,4.764,5.6,4.76,5.604l-3.01,3.01c-1,1.001-1,2.636,0,3.636
		C2.25,12.75,2.908,13,3.566,13c0.659,0,1.318-0.25,1.818-0.75l1.479-1.48c0,0-0.676,0.168-1.328-0.085l-0.857,0.858
		C4.383,11.838,3.988,12,3.566,12c-0.421,0-0.814-0.162-1.109-0.457c-0.612-0.612-0.612-1.609,0-2.222L4.28,7.498l1.187-1.187
		C5.471,6.307,5.477,6.304,5.481,6.3c0.293-0.285,0.681-0.444,1.096-0.444c0.421,0,0.815,0.162,1.109,0.456l0.001,0.001L8.394,5.604
		L8.394,5.604z"/>
	<path fill="#FFFFFF" d="M12.25,1.75C11.75,1.25,11.091,1,10.432,1C9.773,1,9.114,1.25,8.614,1.75L7.059,3.309
		c0,0,0.441-0.215,1.379,0.035l0.884-0.887C9.616,2.162,10.011,2,10.432,2c0.422,0,0.816,0.162,1.111,0.457
		c0.612,0.612,0.612,1.609,0,2.222L9.719,6.502L8.512,7.706c-0.003,0.003-0.006,0.005-0.01,0.008
		c-0.291,0.288-0.682,0.448-1.1,0.448c-0.42,0-0.813-0.162-1.109-0.457L5.586,8.412c0.418,0.419,0.951,0.652,1.5,0.72
		c0.105,0.013,0.21,0.03,0.316,0.03c0.655,0,1.311-0.248,1.809-0.742C9.214,8.417,9.217,8.415,9.22,8.412l3.03-3.026
		C13.25,4.386,13.25,2.751,12.25,1.75z"/>
</g>
</svg>
