<?xml version="1.0" encoding="utf-8"?>
<!-- Generator: Adobe Illustrator 15.1.0, SVG Export Plug-In . SVG Version: 6.00 Build 0)  -->
<!DOCTYPE svg PUBLIC "-//W3C//DTD SVG 1.1//EN" "http://www.w3.org/Graphics/SVG/1.1/DTD/svg11.dtd">
<svg version="1.1" id="Layer_1" xmlns="http://www.w3.org/2000/svg" xmlns:xlink="http://www.w3.org/1999/xlink" x="0px" y="0px"
	 width="18px" height="14px" viewBox="0 0 18 14" enable-background="new 0 0 18 14" xml:space="preserve">
<g>
	<polygon points="16,5 15,5 15,0 16,0 16,5 	"/>
</g>
<polygon points="18,5 15.499,8 13,5 "/>
<rect x="8" y="6" width="1" height="5"/>
<rect x="6" y="8" width="5" height="1"/>
<g>
	<polygon points="3,5 4,5 4,13 3,13 3,5 	"/>
</g>
<polygon points="1,5 3.501,2 6,5 "/>
<path d="M15.438,8c-1.414,0-2.562,1.147-2.562,2.562s1.148,2.562,2.562,2.562S18,11.978,18,10.562S16.852,8,15.438,8z
	 M15.438,12.562c-1.104,0-2-0.896-2-2s0.896-2,2-2s2,0.896,2,2S16.542,12.562,15.438,12.562z"/>
<circle stroke="#000000" stroke-miterlimit="10" cx="3.576" cy="13" r="1"/>
</svg>
