<?xml version="1.0" encoding="utf-8"?>
<!-- Generator: Adobe Illustrator 15.1.0, SVG Export Plug-In . SVG Version: 6.00 Build 0)  -->
<!DOCTYPE svg PUBLIC "-//W3C//DTD SVG 1.1//EN" "http://www.w3.org/Graphics/SVG/1.1/DTD/svg11.dtd">
<svg version="1.1" id="Layer_1" xmlns="http://www.w3.org/2000/svg" xmlns:xlink="http://www.w3.org/1999/xlink" x="0px" y="0px"
	 width="14px" height="14px" viewBox="0 0 14 14" enable-background="new 0 0 14 14" xml:space="preserve">
<rect y="11" width="14" height="1"/>
<rect y="13" width="14" height="1"/>
<g>
	<polygon points="3,4.75 4,4.75 4,11.584 3,11.584 	"/>
</g>
<polygon points="1,6 3.501,3 6,6 "/>
<g>
	<polygon points="11,9 10,9 10,3 11,3 	"/>
</g>
<polygon points="13,8 10.499,11 8,8 "/>
<rect y="11" fill="#333333" width="14" height="1"/>
<rect y="13" fill="#333333" width="14" height="1"/>
<g>
	<polygon fill="#333333" points="3,5.75 4,5.75 4,11.584 3,11.584 	"/>
</g>
<polygon fill="#333333" points="1,6 3.501,3 6,6 "/>
<g>
	<polygon fill="#333333" points="11,8 10,8 10,3 11,3 	"/>
</g>
<polygon fill="#333333" points="13,8 10.5,11 8,8 "/>
</svg>
