<?xml version="1.0" encoding="utf-8"?>
<!-- Generator: Adobe Illustrator 15.1.0, SVG Export Plug-In . SVG Version: 6.00 Build 0)  -->
<!DOCTYPE svg PUBLIC "-//W3C//DTD SVG 1.1//EN" "http://www.w3.org/Graphics/SVG/1.1/DTD/svg11.dtd">
<svg version="1.1" id="Layer_1" xmlns="http://www.w3.org/2000/svg" xmlns:xlink="http://www.w3.org/1999/xlink" x="0px" y="0px"
	 width="14px" height="14px" viewBox="0 0 14 14" enable-background="new 0 0 14 14" xml:space="preserve">
<g>
	
		<radialGradient id="SVGID_1_" cx="783.6182" cy="-84.668" r="10.9017" gradientTransform="matrix(0.8964 0.8946 0.7568 -0.7552 -635.4224 -761.3909)" gradientUnits="userSpaceOnUse">
		<stop  offset="0.0061" style="stop-color:#F4E4A2"/>
		<stop  offset="0.5437" style="stop-color:#F5E844"/>
		<stop  offset="0.8795" style="stop-color:#F7BD1E"/>
	</radialGradient>
	<path fill="url(#SVGID_1_)" d="M1.795,12.684c-0.218,0-0.379-0.062-0.443-0.168c-0.062-0.111-0.042-0.281,0.064-0.47L7.17,1.609
		c0.102-0.184,0.227-0.293,0.334-0.293c0.107,0,0.23,0.109,0.333,0.293l5.747,10.434c0.104,0.191,0.127,0.361,0.062,0.473
		c-0.064,0.106-0.227,0.168-0.442,0.168H1.795z"/>
	
		<linearGradient id="SVGID_2_" gradientUnits="userSpaceOnUse" x1="295.999" y1="-365.5" x2="295.999" y2="-377.5005" gradientTransform="matrix(1 0 0 -1 -288.5 -364.5)">
		<stop  offset="0" style="stop-color:#AE8D35"/>
		<stop  offset="0.2091" style="stop-color:#A58130"/>
		<stop  offset="0.5857" style="stop-color:#8B6222"/>
		<stop  offset="1" style="stop-color:#6A380F"/>
	</linearGradient>
	<path fill="url(#SVGID_2_)" d="M7.505,2c0.017,0.022,5.494,10.1,5.494,10.1H2 M7.505,1C7.284,1,7.062,1.152,6.893,1.457
		L1.139,11.891C0.802,12.5,1.099,13,1.795,13h11.409c0.696,0,0.991-0.5,0.657-1.109L8.114,1.457C7.948,1.152,7.727,1,7.505,1
		L7.505,1z"/>
</g>
<g>
	<g>
		<polygon points="7.999,8.99 7,8.99 7,5 7.999,5 		"/>
	</g>
	<g>
		<rect x="7" y="10" width="1" height="1"/>
	</g>
</g>
<g>
	<linearGradient id="SVGID_3_" gradientUnits="userSpaceOnUse" x1="7.0005" y1="13" x2="7.0005" y2="4.882812e-04">
		<stop  offset="0" style="stop-color:#623000"/>
		<stop  offset="0.3804" style="stop-color:#9D4500"/>
		<stop  offset="1" style="stop-color:#CC9033"/>
	</linearGradient>
	<path fill="url(#SVGID_3_)" d="M13.825,11.693L7.715,0.539C7.519,0.18,7.259,0,6.999,0C6.74,0,6.479,0.18,6.284,0.539l-6.11,11.154
		C-0.22,12.412,0.077,13,0.828,13h12.341C13.924,13,14.219,12.412,13.825,11.693z"/>
	
		<radialGradient id="SVGID_4_" cx="-89.3071" cy="5.0776" r="13.3052" gradientTransform="matrix(0.9161 0 0 1.0048 86.623 -2.5707)" gradientUnits="userSpaceOnUse">
		<stop  offset="0.0245" style="stop-color:#FCF8D9"/>
		<stop  offset="0.7978" style="stop-color:#F5E844"/>
	</radialGradient>
	<polygon fill="url(#SVGID_4_)" points="1.25,12 7,1.5 12.75,12 	"/>
	<polygon opacity="0.9" fill="#FFFFFF" points="7,2.868 12,12 12.75,12 7,1.5 1.25,12 2,12 	"/>
	<g>
		<g opacity="0.8">
			<path fill="#FFFFFF" d="M7.75,9h-1.5L6,5h2L7.75,9z M8,10H6v2h2V10z"/>
		</g>
		<g>
			<linearGradient id="SVGID_5_" gradientUnits="userSpaceOnUse" x1="6.9995" y1="4" x2="6.9995" y2="11.0005">
				<stop  offset="0.2699" style="stop-color:#2E2E2E"/>
				<stop  offset="0.6012" style="stop-color:#000000"/>
			</linearGradient>
			<path fill="url(#SVGID_5_)" d="M7.75,8h-1.5L6,4h2L7.75,8z M8,9H6v2h2V9z"/>
		</g>
	</g>
</g>
</svg>
