<?xml version="1.0" encoding="utf-8"?>
<!-- Generator: Adobe Illustrator 15.1.0, SVG Export Plug-In . SVG Version: 6.00 Build 0)  -->
<!DOCTYPE svg PUBLIC "-//W3C//DTD SVG 1.1//EN" "http://www.w3.org/Graphics/SVG/1.1/DTD/svg11.dtd">
<svg version="1.1" id="Layer_1" xmlns="http://www.w3.org/2000/svg" xmlns:xlink="http://www.w3.org/1999/xlink" x="0px" y="0px"
	 width="14px" height="14px" viewBox="0 0 14 14" enable-background="new 0 0 14 14" xml:space="preserve">
<g>
	
		<radialGradient id="SVGID_1_" cx="306.166" cy="-375.6982" r="12.9311" gradientTransform="matrix(1 0 0 -1 -299 -374)" gradientUnits="userSpaceOnUse">
		<stop  offset="0.4583" style="stop-color:#F2F2F2"/>
		<stop  offset="0.9127" style="stop-color:#939393"/>
	</radialGradient>
	<path fill="url(#SVGID_1_)" d="M6.497,12.591C6.037,12.323,2,9.922,2,8V2.519l1.096,0.105c0.193,0.019,0.393,0.029,0.599,0.029
		c1.033,0,1.963-0.263,2.763-0.78L7,1.521l0.543,0.352c0.8,0.518,1.729,0.78,2.764,0.78c0.205,0,0.404-0.011,0.598-0.029L12,2.519V8
		c0,1.922-4.037,4.323-4.497,4.591L7,12.883L6.497,12.591z"/>
</g>
<g>
	<g>
		
			<linearGradient id="SVGID_2_" gradientUnits="userSpaceOnUse" x1="306" y1="-374" x2="306" y2="-388.0005" gradientTransform="matrix(1 0 0 -1 -299 -374)">
			<stop  offset="0.2761" style="stop-color:#777777"/>
			<stop  offset="0.8466" style="stop-color:#000000"/>
		</linearGradient>
		<path fill="url(#SVGID_2_)" d="M7,0C4.75,3,1,1,1,1s0,0,0,7c0,3,6,6,6,6s6-3,6-6c0-7,0-7,0-7S9.25,3,7,0z M12,8
			c0,1.922-4.037,4.323-4.497,4.591L7,12.883l-0.503-0.292C6.037,12.323,2,9.922,2,8V2.519l1.096,0.105
			c0.193,0.019,0.393,0.029,0.599,0.029c1.033,0,1.963-0.263,2.763-0.78L7,1.521l0.543,0.352c0.8,0.518,1.729,0.78,2.764,0.78
			c0.205,0,0.404-0.011,0.598-0.029L12,2.519V8z"/>
	</g>
</g>
<g>
	
		<radialGradient id="SVGID_3_" cx="306.166" cy="-375.6982" r="12.9311" gradientTransform="matrix(1 0 0 -1 -299 -374)" gradientUnits="userSpaceOnUse">
		<stop  offset="0.4583" style="stop-color:#F2F2F2"/>
		<stop  offset="0.9127" style="stop-color:#939393"/>
	</radialGradient>
	<path fill="url(#SVGID_3_)" d="M6.497,12.592C6.037,12.324,2,9.922,2,8V2.52l1.096,0.104c0.193,0.019,0.394,0.028,0.6,0.028
		c1.033,0,1.963-0.262,2.763-0.779L7,1.522l0.543,0.352c0.8,0.518,1.729,0.779,2.764,0.779c0.205,0,0.404-0.01,0.598-0.028L12,2.52
		V8c0,1.922-4.037,4.324-4.497,4.592L7,12.883L6.497,12.592z"/>
</g>
<g>
	<g>
		
			<linearGradient id="SVGID_4_" gradientUnits="userSpaceOnUse" x1="306" y1="-374.0005" x2="306" y2="-388.0005" gradientTransform="matrix(1 0 0 -1 -299 -374)">
			<stop  offset="0.1411" style="stop-color:#808080"/>
			<stop  offset="0.7225" style="stop-color:#4D4D4D"/>
			<stop  offset="1" style="stop-color:#1A1A1A"/>
		</linearGradient>
		<path fill="url(#SVGID_4_)" d="M7,0C4.75,3,1,1,1,1s0,0,0,7c0,3,6,6,6,6s6-3,6-6c0-7,0-7,0-7S9.25,3,7,0z M12,8
			c0,1.922-4.037,4.324-4.497,4.592L7,12.883l-0.503-0.291C6.037,12.324,2,9.922,2,8V2.52l1.096,0.104
			c0.193,0.019,0.394,0.028,0.6,0.028c1.033,0,1.963-0.262,2.763-0.779L7,1.522l0.543,0.352c0.8,0.518,1.729,0.779,2.764,0.779
			c0.205,0,0.404-0.01,0.598-0.028L12,2.52V8z"/>
	</g>
</g>
</svg>
