<?xml version="1.0" encoding="utf-8"?>
<!-- Generator: Adobe Illustrator 14.0.0, SVG Export Plug-In . SVG Version: 6.00 Build 43363)  -->
<!DOCTYPE svg PUBLIC "-//W3C//DTD SVG 1.1//EN" "http://www.w3.org/Graphics/SVG/1.1/DTD/svg11.dtd">
<svg version="1.1" id="Layer_1" xmlns="http://www.w3.org/2000/svg" xmlns:xlink="http://www.w3.org/1999/xlink" x="0px" y="0px"
	 width="14px" height="14px" viewBox="0 0 14 14" enable-background="new 0 0 14 14" xml:space="preserve">
<g>
	<radialGradient id="SVGID_1_" cx="1.583" cy="1.3125" r="18.6365" gradientUnits="userSpaceOnUse">
		<stop  offset="0.2788" style="stop-color:#FFFFFF"/>
		<stop  offset="0.3707" style="stop-color:#F9FBFD"/>
		<stop  offset="0.4942" style="stop-color:#E8F1F9"/>
		<stop  offset="0.6358" style="stop-color:#CCDFF1"/>
		<stop  offset="0.7907" style="stop-color:#A5C7E7"/>
		<stop  offset="0.9546" style="stop-color:#73A9DA"/>
		<stop  offset="0.9877" style="stop-color:#68A2D7"/>
	</radialGradient>
	<rect x="0.5" y="0.5" fill="url(#SVGID_1_)" width="13" height="13"/>
	<linearGradient id="SVGID_2_" gradientUnits="userSpaceOnUse" x1="6.9995" y1="0" x2="6.9995" y2="14.0005">
		<stop  offset="0.0123" style="stop-color:#5E9AC6"/>
		<stop  offset="0.8528" style="stop-color:#0B3F6F"/>
	</linearGradient>
	<path fill="url(#SVGID_2_)" d="M13,1v12H1V0.99L13,1 M14,0H0v14h14V0L14,0z"/>
</g>
<g>
	<radialGradient id="SVGID_3_" cx="2.6875" cy="1.1875" r="10.4096" gradientUnits="userSpaceOnUse">
		<stop  offset="0.3754" style="stop-color:#FFFFFF"/>
		<stop  offset="0.8479" style="stop-color:#CCCCCC"/>
	</radialGradient>
	<path fill="url(#SVGID_3_)" d="M3,8.5C2.725,8.5,2.5,8.275,2.5,8V3c0-0.275,0.225-0.5,0.5-0.5h8c0.275,0,0.5,0.225,0.5,0.5v5
		c0,0.275-0.225,0.5-0.5,0.5H3z"/>
	<path fill="#0071BC" d="M11,3v5H3V2.99L11,3 M11,2H3C2.45,2,2,2.45,2,3v5c0,0.55,0.45,1,1,1h8c0.55,0,1-0.45,1-1V3
		C12,2.45,11.55,2,11,2L11,2z"/>
</g>
</svg>
