<?xml version="1.0" encoding="utf-8"?>
<!-- Generator: Adobe Illustrator 15.1.0, SVG Export Plug-In . SVG Version: 6.00 Build 0)  -->
<!DOCTYPE svg PUBLIC "-//W3C//DTD SVG 1.1//EN" "http://www.w3.org/Graphics/SVG/1.1/DTD/svg11.dtd">
<svg version="1.1" id="Layer_1" xmlns="http://www.w3.org/2000/svg" xmlns:xlink="http://www.w3.org/1999/xlink" x="0px" y="0px"
	 width="14px" height="14px" viewBox="0 0 14 14" enable-background="new 0 0 14 14" xml:space="preserve">
<path fill="#0F6808" d="M14,5c0,1.657-1.343,3-3,3H3C1.343,8,0,6.657,0,5V3c0-1.657,1.343-3,3-3h8c1.657,0,3,1.343,3,3V5z"/>
<path fill="#FDFAF5" d="M13,5c0,1.104-0.896,2-2,2H3C1.896,7,1,6.104,1,5V3c0-1.104,0.896-2,2-2h8c1.104,0,2,0.896,2,2V5z"/>
<linearGradient id="SVGID_1_" gradientUnits="userSpaceOnUse" x1="23" y1="-10" x2="33" y2="-10" gradientTransform="matrix(-4.371139e-08 1 1 4.371139e-08 18.9995 -18.9995)">
	<stop  offset="0" style="stop-color:#6CAE40"/>
	<stop  offset="0.589" style="stop-color:#2D6A2D"/>
	<stop  offset="1" style="stop-color:#195C19"/>
</linearGradient>
<path fill="url(#SVGID_1_)" d="M10,11.931C5,12,4,11,4,4h0.816c0,6,1.184,8,5.184,7V9l4,2.496L10,14V11.931z"/>
</svg>
