<?xml version="1.0" encoding="utf-8"?>
<!-- Generator: Adobe Illustrator 15.1.0, SVG Export Plug-In . SVG Version: 6.00 Build 0)  -->
<!DOCTYPE svg PUBLIC "-//W3C//DTD SVG 1.1//EN" "http://www.w3.org/Graphics/SVG/1.1/DTD/svg11.dtd">
<svg version="1.1" id="Layer_1" xmlns="http://www.w3.org/2000/svg" xmlns:xlink="http://www.w3.org/1999/xlink" x="0px" y="0px"
	 width="14px" height="14px" viewBox="0 0 14 14" enable-background="new 0 0 14 14" xml:space="preserve">
<linearGradient id="SVGID_1_" gradientUnits="userSpaceOnUse" x1="7.0005" y1="14" x2="7.0005" y2="9.765625e-04">
	<stop  offset="0.1043" style="stop-color:#0B3F6F"/>
	<stop  offset="0.4529" style="stop-color:#185991"/>
	<stop  offset="1" style="stop-color:#3088CD"/>
</linearGradient>
<rect x="0" y="0" fill="url(#SVGID_1_)" width="14" height="14"/>
<g>
	<rect x="7" y="3" fill="#FFFFFF" width="1" height="3"/>
	<rect x="8" y="2" fill="#FFFFFF" width="1" height="1"/>
	<rect x="7" y="8" fill="#FFFFFF" width="1" height="3"/>
	<rect x="8" y="11" fill="#FFFFFF" width="1" height="1"/>
	<rect x="6" y="6" fill="#FFFFFF" width="1" height="2"/>
</g>
<g>
	<rect x="11" y="3" fill="#FFFFFF" width="1" height="3"/>
	<rect x="10" y="2" fill="#FFFFFF" width="1" height="1"/>
	<rect x="11" y="8" fill="#FFFFFF" width="1" height="3"/>
	<rect x="10" y="11" fill="#FFFFFF" width="1" height="1"/>
	<rect x="12" y="6" fill="#FFFFFF" width="1" height="2"/>
</g>
<g>
	<polygon fill="#FFFFFF" points="2.583,12 2,12 4.417,2 5,2 	"/>
</g>
</svg>
