<svg xmlns="http://www.w3.org/2000/svg" xmlns:xlink="http://www.w3.org/1999/xlink" width="16" height="16" viewBox="0 0 16 16">
<!-- Copyright 2020 The MathWorks, Inc. -->
  <defs>
    <radialGradient id="radial-gradient" cx="0.083" cy="0.063" r="1.227" gradientUnits="objectBoundingBox">
      <stop offset="0.375" stop-color="#fff"/>
      <stop offset="0.786" stop-color="#ccc"/>
    </radialGradient>
    <clipPath id="clip-Icon_simcodegen6_1">
      <rect width="16" height="16"/>
    </clipPath>
  </defs>
  <g id="Icon_simcodegen6_1" clip-path="url(#clip-Icon_simcodegen6_1)">
    <g id="Group_142" data-name="Group 142" transform="translate(-1330 -32)">
      <g id="variant_expr_mode" transform="translate(1330 32)">
        <path id="Path_54" data-name="Path 54" d="M9,1V9H1V1H9m1-1H0V10H10V0Z" fill="#4d4d4d"/>
        <rect id="Rectangle_257" data-name="Rectangle 257" width="8" height="8" transform="translate(1 1)" fill="url(#radial-gradient)"/>
        <path id="Path_55" data-name="Path 55" d="M13,5v8H5V5h8m1-1H4V14H14V4Z" fill="#4d4d4d"/>
        <rect id="Rectangle_258" data-name="Rectangle 258" width="8" height="8" transform="translate(5 5)" fill="url(#radial-gradient)"/>
      </g>
      <path id="Path_53" data-name="Path 53" d="M1209.962-168.3l4.038-5.773" transform="translate(116.604 -22.312) rotate(11)" fill="none" stroke="#4d4d4d" stroke-width="1"/>
      <g id="Group_140" data-name="Group 140" transform="translate(1176 10)">
        <g id="Rectangle_273" data-name="Rectangle 273" transform="translate(164 23)" fill="#fff" stroke="#000" stroke-width="1">
          <rect width="4" height="2" stroke="none"/>
          <rect x="0.5" y="0.5" width="3" height="1" fill="none"/>
        </g>
        <g id="Rectangle_274" data-name="Rectangle 274" transform="translate(166 22)" fill="#fff" stroke="#000" stroke-width="1">
          <rect width="1" height="4" stroke="none"/>
          <rect x="0.5" y="0.5" height="3" fill="none"/>
        </g>
      </g>
      <g id="Group_141" data-name="Group 141" transform="translate(1498 68) rotate(180)">
        <g id="Rectangle_273-2" data-name="Rectangle 273" transform="translate(164 23)" fill="#fff" stroke="#000" stroke-width="1">
          <rect width="4" height="2" stroke="none"/>
          <rect x="0.5" y="0.5" width="3" height="1" fill="none"/>
        </g>
        <g id="Rectangle_274-2" data-name="Rectangle 274" transform="translate(166 22)" fill="#fff" stroke="#000" stroke-width="1">
          <rect width="1" height="4" stroke="none"/>
          <rect x="0.5" y="0.5" height="3" fill="none"/>
        </g>
      </g>
    </g>
  </g>
</svg>
