<?xml version="1.0" encoding="iso-8859-1"?>
<!-- Generator: Adobe Illustrator 19.2.1, SVG Export Plug-In . SVG Version: 6.00 Build 0)  -->
<!-- Copyright 2018 The MathWorks, Inc. -->
<svg version="1.1" xmlns="http://www.w3.org/2000/svg" xmlns:xlink="http://www.w3.org/1999/xlink" x="0px" y="0px"
	 viewBox="0 0 14 14" style="enable-background:new 0 0 14 14;" xml:space="preserve">
<g id="variant_x5F_gpc_x5F_on_x5F_propogat_x5F_on_x5F_16">
	<g>
		<path style="fill:#4D4D4D;" d="M9,0.999V9H1V0.999H9 M10,0H0v10h10V0L10,0z"/>
		<radialGradient id="SVGID_1_" cx="1.6665" cy="1.5" r="9.8165" gradientUnits="userSpaceOnUse">
			<stop  offset="0.3754" style="stop-color:#FFFFFF"/>
			<stop  offset="0.7864" style="stop-color:#CCCCCC"/>
		</radialGradient>
		<rect x="1" y="1" style="fill:url(#SVGID_1_);" width="8" height="8"/>
		<path style="fill:#4D4D4D;" d="M13,4.999V13H5V4.999H13 M14,4H4v10h10V4L14,4z"/>
		<radialGradient id="SVGID_2_" cx="5.6665" cy="5.5" r="9.8165" gradientUnits="userSpaceOnUse">
			<stop  offset="0.3754" style="stop-color:#FFFFFF"/>
			<stop  offset="0.7864" style="stop-color:#CCCCCC"/>
		</radialGradient>
		<rect x="5" y="5" style="fill:url(#SVGID_2_);" width="8" height="8"/>
		
			<rect x="8.5" y="4.5" transform="matrix(6.548344e-11 1 -1 6.548344e-11 16.5 -1.5)" style="fill:#4D4D4D;" width="1" height="6"/>
		<rect x="8.5" y="7.5" transform="matrix(6.548344e-11 1 -1 6.548344e-11 19.5 1.5)" style="fill:#4D4D4D;" width="1" height="6"/>
		<rect x="10" y="1" style="fill:#202020;" width="2" height="2"/>
		<rect x="12" style="fill:#202020;" width="1" height="4"/>
		<rect x="1" y="10" style="fill:#202020;" width="1" height="4"/>
		<rect x="13" y="1" style="fill:#202020;" width="1" height="2"/>
		<rect y="11" style="fill:#202020;" width="1" height="2"/>
		<rect x="2" y="11" style="fill:#202020;" width="2" height="2"/>
	</g>
</g>
<g id="Layer_1">
</g>
</svg>
