<svg xmlns="http://www.w3.org/2000/svg" xmlns:xlink="http://www.w3.org/1999/xlink" width="16" height="16" viewBox="0 0 16 16">
  <defs>
    <radialGradient id="radial-gradient" cx="0.083" cy="0.063" r="1.227" gradientUnits="objectBoundingBox">
      <stop offset="0.375" stop-color="#fff"/>
      <stop offset="0.786" stop-color="#ccc"/>
    </radialGradient>
    <clipPath id="clip-StartupVariant_5_PropOn">
      <rect width="16" height="16"/>
    </clipPath>
  </defs>
  <g id="StartupVariant_5_PropOn" clip-path="url(#clip-StartupVariant_5_PropOn)">
    <rect width="16" height="16" fill="#fff"/>
    <g id="Group_299" data-name="Group 299" transform="translate(-1)">
      <g id="variant_expr_mode" transform="translate(1)">
        <path id="Path_68" data-name="Path 68" d="M9,1V9H1V1H9m1-1H0V10H10V0Z" fill="#4d4d4d"/>
        <rect id="Rectangle_295" data-name="Rectangle 295" width="8" height="8" transform="translate(1 1)" fill="url(#radial-gradient)"/>
        <path id="Path_69" data-name="Path 69" d="M13,5v8H5V5h8m1-1H4V14H14V4Z" fill="#4d4d4d"/>
        <rect id="Rectangle_296" data-name="Rectangle 296" width="8" height="8" transform="translate(5 5)" fill="url(#radial-gradient)"/>
        <path id="Path_163" data-name="Path 163" d="M13,5v8H5V5h8m1-1H4V14H14V4Z" fill="#4d4d4d"/>
      </g>
      <text id="s" transform="translate(7.5 12)" font-size="11" font-family="ArialMT, Arial"><tspan x="0" y="0">s</tspan></text>
    </g>
    <g id="Group_308" data-name="Group 308">
      <rect id="Rectangle_531" data-name="Rectangle 531" width="2" height="2" transform="translate(10 1)" fill="#202020"/>
      <rect id="Rectangle_532" data-name="Rectangle 532" width="1" height="4" transform="translate(12)" fill="#202020"/>
      <rect id="Rectangle_533" data-name="Rectangle 533" width="1" height="2" transform="translate(13 1)" fill="#202020"/>
    </g>
    <g id="Group_309" data-name="Group 309">
      <g id="Group_300" data-name="Group 300">
        <rect id="Rectangle_536" data-name="Rectangle 536" width="2" height="2" transform="translate(4 13) rotate(180)" fill="#202020"/>
        <rect id="Rectangle_535" data-name="Rectangle 535" width="1" height="4" transform="translate(2 14) rotate(180)" fill="#202020"/>
        <rect id="Rectangle_534" data-name="Rectangle 534" width="1" height="2" transform="translate(1 13) rotate(180)" fill="#202020"/>
      </g>
    </g>
  </g>
</svg>
