<svg width="16" height="16" viewBox="0 0 16 16" fill="none" xmlns="http://www.w3.org/2000/svg">
<ellipse cx="8" cy="4" rx="6" ry="3" fill="#C4C4C4" stroke="#212121"/>
<path d="M14 12.1481C14 13.7232 11.3137 15 8 15C4.68629 15 2 13.7232 2 12.1481V8.07407V4C2 5.57503 4.68629 6.85185 8 6.85185C11.3137 6.85185 14 5.57503 14 4V8.07407V12.1481Z" fill="white"/>
<path d="M14 8.07407C14 9.64911 11.3137 10.9259 8 10.9259C4.68629 10.9259 2 9.64911 2 8.07407M14 12.1481C14 13.7232 11.3137 15 8 15C4.68629 15 2 13.7232 2 12.1481V4C2 5.57503 4.68629 6.85185 8 6.85185C11.3137 6.85185 14 5.57503 14 4V12.1481Z" stroke="#212121"/>
</svg>
