<svg width="21" height="16" viewBox="0 0 21 16" fill="none" xmlns="http://www.w3.org/2000/svg">
<path d="M10.5 1L3.5 5V10.5L10.5 14.5L17.5 10.5V5L10.5 1Z" fill="var(--mw-icon-background-default-white, white)"/>
<path d="M10.502 6.497L10.5041 1L17.3268 4.93223V10.4116L10.502 6.497Z" fill="var(--mw-icon-background-default-light-gray, #F5F5F5)"/>
<path d="M10.502 6.497L10.4998 1L3.67706 4.93724L3.67706 10.4116L10.502 6.497Z" fill="#E6E6E6"/>
<path d="M17.5038 10.2722V5.06089L10.5019 1.02225L3.5 5" stroke="var(--mw-icon-background-default-dark-gray, #A6A6A6)" stroke-linecap="round" stroke-linejoin="round"/>
<path d="M3.5 5V10.3281L10.5 14.3697L17.5 10.33" stroke="var(--mw-icon-border-default-gray, #616161)" stroke-linecap="round" stroke-linejoin="round"/>
<path d="M6.82495 3.5C6.82495 3.5 6.62649 3.61497 6.50749 3.6991C6.39254 3.78036 6.22591 3.92177 6.22591 3.92177C6.22591 3.92177 5.5 4.52652 5.5 5.31045C5.5 8.90245 15.5 9.8421 15.5 6.85109C15.5 4.26469 5.5 4.11354 5.5 7.42882C5.5 10.7441 15.5 11.5575 15.5 8.96946C15.5 6.68786 8.21851 7.42101 7.21875 7.9208C6.99949 8.03041 6.87073 8.07507 6.6079 8.26533" stroke="#0072BD"/>

</svg>
