<svg width="20" height="16" viewBox="0 0 20 16" fill="none" xmlns="http://www.w3.org/2000/svg">
<rect x="0.5" y="0.5" width="18" height="14" stroke="var(--mw-icon-object-primary, #616160)" stroke-linejoin="round"/>
<path d="M2 2.5H3.5V5.5M3.5 5.5H2M3.5 5.5H5" stroke="var(--mw-icon-object-primary, #616160)"/>
<path d="M1 7.5H18" stroke="var(--mw-icon-object-primary, #616160)"/>
<path d="M11 5.5H8.5V5L10.5 3.5V2.5H8.5V3.5" stroke="var(--mw-icon-object-primary, #616160)" stroke-linejoin="round"/>
<path d="M14 2.5H16.5L15 4L16.5 5.5H14" stroke="var(--mw-icon-object-primary, #616160)" stroke-linejoin="round"/>
<path d="M6.5 1V15" stroke="var(--mw-icon-object-primary, #616160)"/>
<path d="M12.5 1V15" stroke="var(--mw-icon-object-primary, #616160)"/>
<path d="M2.5 9V11.5H4.5M4.5 11.5V9M4.5 11.5V13" stroke="var(--mw-icon-object-primary, #616160)"/>
<path d="M11 9.5H8.5V10.5L10.5 11V12.5H8" stroke="var(--mw-icon-object-primary, #616160)" stroke-linejoin="round"/>
<path d="M17 9.5H14.5V12.5H16.5V11.5V11H15" stroke="var(--mw-icon-object-primary, #616160)" stroke-linejoin="round"/>
</svg>
