<svg width="20" height="16" viewBox="0 0 20 16" fill="none" xmlns="http://www.w3.org/2000/svg">
<path d="M0.500122 1.5C0.500122 0.947716 0.947837 0.5 1.50012 0.5H17.5001C18.0524 0.5 18.5001 0.947715 18.5001 1.5V13.5C18.5001 14.0523 18.0524 14.5 17.5001 14.5H1.50012C0.947838 14.5 0.500122 14.0523 0.500122 13.5V1.5Z" fill="var(--mw-icon-glyph-content-light-blue, #278CDD)" stroke="var(--mw-icon-border-default-blue, #1656A7)"/>
<path d="M9.50012 9.5H11.0001L13.1876 8.5H14.5001M9.50012 11.5H11.0001L13.1876 12.5H14.5001" stroke="var(--mw-icon-background-medium-blue, #83CAFF)" stroke-linejoin="round"/>
<path d="M14.0001 8.375C14.0001 8.16789 14.168 8 14.3751 8H15.6251C15.8322 8 16.0001 8.16789 16.0001 8.375V9.625C16.0001 9.83211 15.8322 10 15.6251 10H14.3751C14.168 10 14.0001 9.83211 14.0001 9.625V8.375Z" fill="var(--mw-icon-glyph-content-dark-gray, #333333)"/>
<path d="M14.0001 11.375C14.0001 11.1679 14.168 11 14.3751 11H15.6251C15.8322 11 16.0001 11.1679 16.0001 11.375V12.625C16.0001 12.8321 15.8322 13 15.6251 13H14.3751C14.168 13 14.0001 12.8321 14.0001 12.625V11.375Z" fill="var(--mw-icon-glyph-content-dark-gray, #333333)"/>
<path d="M9.12512 10C9.05609 10 9.00012 9.94404 9.00012 9.875L9.00012 9.125C9.00012 9.05596 9.05609 9 9.12512 9H9.87512C9.94416 9 10.0001 9.05596 10.0001 9.125V9.875C10.0001 9.94404 9.94416 10 9.87512 10H9.12512Z" fill="var(--mw-icon-background-default-light-gray, #F5F5F5)"/>
<path d="M9.12512 12C9.05609 12 9.00012 11.944 9.00012 11.875L9.00012 11.125C9.00012 11.056 9.05609 11 9.12512 11H9.87512C9.94416 11 10.0001 11.056 10.0001 11.125V11.875C10.0001 11.944 9.94416 12 9.87512 12H9.12512Z" fill="var(--mw-icon-background-default-light-gray, #F5F5F5)"/>
<path d="M3.00012 8.2C3.00012 8.08954 3.08967 8 3.20012 8H7.80012C7.91058 8 8.00012 8.08954 8.00012 8.2V12.8C8.00012 12.9105 7.91058 13 7.80012 13H3.20012C3.08966 13 3.00012 12.9105 3.00012 12.8V8.2Z" fill="var(--mw-icon-glyph-content-dark-gray, #333333)"/>
<path d="M4.00012 9.2C4.00012 9.08954 4.08967 9 4.20012 9H6.80012C6.91058 9 7.00012 9.08954 7.00012 9.2V11.8C7.00012 11.9105 6.91058 12 6.80012 12H4.20012C4.08967 12 4.00012 11.9105 4.00012 11.8V9.2Z" fill="#EDB120"/>
<path d="M11.0001 3.2C11.0001 3.08954 11.0897 3 11.2001 3H14.8001C14.9106 3 15.0001 3.08954 15.0001 3.2V6.8C15.0001 6.91046 14.9106 7 14.8001 7H11.2001C11.0897 7 11.0001 6.91046 11.0001 6.8V3.2Z" fill="var(--mw-icon-glyph-content-dark-gray, #333333)"/>
<path d="M12.0001 4.2C12.0001 4.08954 12.0897 4 12.2001 4H13.8001C13.9106 4 14.0001 4.08954 14.0001 4.2V5.8C14.0001 5.91046 13.9106 6 13.8001 6H12.2001C12.0897 6 12.0001 5.91046 12.0001 5.8V4.2Z" fill="#EDB120"/>
<path d="M3.00012 4H4.00012L4.00012 5H3.00012L3.00012 4Z" fill="var(--mw-icon-background-medium-blue, #83CAFF)"/>
<path d="M3.00012 5H4.00012V5.78571C4.00012 5.90406 3.88819 6 3.75012 6H3.25012C3.11205 6 3.00012 5.90406 3.00012 5.78571L3.00012 5Z" fill="var(--mw-icon-glyph-content-dark-gray, #333333)"/>
<path d="M3.00012 3.21429C3.00012 3.09594 3.11205 3 3.25012 3H3.75012C3.88819 3 4.00012 3.09594 4.00012 3.21429L4.00012 4H3.00012V3.21429Z" fill="var(--mw-icon-background-default-light-gray, #F5F5F5)"/>
<path d="M5.00012 4H6.00012L6.00012 5H5.00012V4Z" fill="var(--mw-icon-background-medium-blue, #83CAFF)"/>
<path d="M5.00012 5H6.00012V5.78571C6.00012 5.90406 5.88819 6 5.75012 6H5.25012C5.11205 6 5.00012 5.90406 5.00012 5.78571V5Z" fill="var(--mw-icon-glyph-content-dark-gray, #333333)"/>
<path d="M5.00012 3.21429C5.00012 3.09594 5.11205 3 5.25012 3H5.75012C5.88819 3 6.00012 3.09594 6.00012 3.21429L6.00012 4H5.00012V3.21429Z" fill="var(--mw-icon-background-default-light-gray, #F5F5F5)"/>
<path d="M7.00012 4H8.00012V5H7.00012V4Z" fill="var(--mw-icon-background-medium-blue, #83CAFF)"/>
<path d="M7.00012 5H8.00012V5.78571C8.00012 5.90406 7.88819 6 7.75012 6H7.25012C7.11205 6 7.00012 5.90406 7.00012 5.78571V5Z" fill="var(--mw-icon-glyph-content-dark-gray, #333333)"/>
<path d="M7.00012 3.21429C7.00012 3.09594 7.11205 3 7.25012 3H7.75012C7.88819 3 8.00012 3.09594 8.00012 3.21429V4H7.00012V3.21429Z" fill="var(--mw-icon-background-default-light-gray, #F5F5F5)"/>
<path d="M4.00012 0H6.00012V0.8C6.00012 0.910457 5.91058 1 5.80012 1H4.20012C4.08967 1 4.00012 0.910457 4.00012 0.8V0Z" fill="var(--mw-icon-background-default-white, #FFFFFF)"/>
<path d="M15.0001 15H17.0001V14.2C17.0001 14.0895 16.9106 14 16.8001 14H15.2001C15.0897 14 15.0001 14.0895 15.0001 14.2V15Z" fill="white"/>
<path d="M4.00012 15H6.00012V14.2C6.00012 14.0895 5.91058 14 5.80012 14H4.20012C4.08967 14 4.00012 14.0895 4.00012 14.2V15Z" fill="white"/>
<path d="M1.00012 12H1.90637C1.95815 12 2.00012 12.042 2.00012 12.0938V12.9062C2.00012 12.958 1.95815 13 1.90637 13H1.00012V12Z" fill="var(--mw-icon-background-light-yellow, #FFF5BC)"/>
<path d="M1.00012 8H1.90637C1.95815 8 2.00012 8.04197 2.00012 8.09375V8.90625C2.00012 8.95803 1.95815 9 1.90637 9H1.00012V8Z" fill="var(--mw-icon-background-light-yellow, #FFF5BC)"/>
<path d="M1.00012 5H1.90637C1.95815 5 2.00012 5.04197 2.00012 5.09375V5.90625C2.00012 5.95803 1.95815 6 1.90637 6H1.00012V5Z" fill="var(--mw-icon-background-light-yellow, #FFF5BC)"/>
<path d="M1.00012 10H1.90637C1.95815 10 2.00012 10.042 2.00012 10.0938V10.9062C2.00012 10.958 1.95815 11 1.90637 11H1.00012V10Z" fill="var(--mw-icon-background-light-yellow, #FFF5BC)"/>
<path d="M1.00012 3H1.90637C1.95815 3 2.00012 3.04197 2.00012 3.09375V3.90625C2.00012 3.95803 1.95815 4 1.90637 4H1.00012V3Z" fill="var(--mw-icon-background-light-yellow, #FFF5BC)"/>
<path d="M13.0001 1V1.90625C13.0001 1.95803 12.9581 2 12.9064 2H12.0939C12.0421 2 12.0001 1.95803 12.0001 1.90625V1L13.0001 1Z" fill="var(--mw-icon-background-light-yellow, #FFF5BC)"/>
<path d="M15.0001 1V1.90625C15.0001 1.95803 14.9581 2 14.9064 2H14.0939C14.0421 2 14.0001 1.95803 14.0001 1.90625V1L15.0001 1Z" fill="var(--mw-icon-background-light-yellow, #FFF5BC)"/>
<path d="M10.0001 1V1.90625C10.0001 1.95803 9.95815 2 9.90637 2H9.09387C9.0421 2 9.00012 1.95803 9.00012 1.90625V1L10.0001 1Z" fill="var(--mw-icon-background-light-yellow, #FFF5BC)"/>
<path d="M17.0001 1V1.90625C17.0001 1.95803 16.9581 2 16.9064 2H16.0939C16.0421 2 16.0001 1.95803 16.0001 1.90625V1L17.0001 1Z" fill="var(--mw-icon-background-light-yellow, #FFF5BC)"/>
<path d="M18.0001 7H17.0939C17.0421 7 17.0001 6.95803 17.0001 6.90625V6.09375C17.0001 6.04197 17.0421 6 17.0939 6H18.0001V7Z" fill="var(--mw-icon-background-light-yellow, #FFF5BC)"/>
<path d="M18.0001 9H17.0939C17.0421 9 17.0001 8.95803 17.0001 8.90625V8.09375C17.0001 8.04197 17.0421 8 17.0939 8H18.0001V9Z" fill="var(--mw-icon-background-light-yellow, #FFF5BC)"/>
<path d="M18.0001 11H17.0939C17.0421 11 17.0001 10.958 17.0001 10.9062V10.0938C17.0001 10.042 17.0421 10 17.0939 10H18.0001V11Z" fill="var(--mw-icon-background-light-yellow, #FFF5BC)"/>
<path d="M18.0001 5H17.0939C17.0421 5 17.0001 4.95803 17.0001 4.90625V4.09375C17.0001 4.04197 17.0421 4 17.0939 4H18.0001V5Z" fill="var(--mw-icon-background-light-yellow, #FFF5BC)"/>
<path d="M10.0001 14V13.0938C10.0001 13.042 9.95815 13 9.90637 13H9.09387C9.0421 13 9.00012 13.042 9.00012 13.0938V14L10.0001 14Z" fill="var(--mw-icon-background-light-yellow, #FFF5BC)"/>
<path d="M12.0001 14V13.0938C12.0001 13.042 11.9581 13 11.9064 13H11.0939C11.0421 13 11.0001 13.042 11.0001 13.0938V14H12.0001Z" fill="var(--mw-icon-background-light-yellow, #FFF5BC)"/>
</svg>
