<svg width="20" height="16" viewBox="0 0 20 16" fill="none" xmlns="http://www.w3.org/2000/svg">
<rect x="0.5" y="0.5" width="18" height="14" fill="var(--mw-icon-object-secondary, #FFFFFE)" stroke="var(--mw-icon-border-default-gray, #616161)" stroke-linejoin="round"/>
<path d="M6 10L6 6L7 6L7 10H6Z" fill="var(--mw-icon-object-primary, #616160)"/>
<path d="M5 6L5 5L6 5V6H5Z" fill="var(--mw-icon-object-primary, #616160)"/>
<path d="M4 10L4 6L5 6L5 10H4Z" fill="var(--mw-icon-object-primary, #616160)"/>
<path d="M8 5H9V10H8V5Z" fill="var(--mw-icon-object-primary, #616160)"/>
<path d="M9 9H11V10H9V9Z" fill="var(--mw-icon-object-primary, #616160)"/>
<path d="M10 7H11V9H10V7Z" fill="var(--mw-icon-object-primary, #616160)"/>
<path d="M9 5H11V6H9V5Z" fill="var(--mw-icon-object-primary, #616160)"/>
<path d="M9 7H10V8L9 7Z" fill="var(--mw-icon-object-primary, #616160)"/>
<path d="M12 5H13V10H12V5Z" fill="var(--mw-icon-object-primary, #616160)"/>
<path d="M13 9H15V10H13V9Z" fill="var(--mw-icon-object-primary, #616160)"/>
<path d="M13 5H15V6H13V5Z" fill="var(--mw-icon-object-primary, #616160)"/>
<rect x="5" y="8" width="1" height="1" fill="var(--mw-icon-object-primary, #616160)"/>
</svg>
