<svg width="20" height="16" viewBox="0 0 20 16" fill="none" xmlns="http://www.w3.org/2000/svg">
<rect x="0.5" y="0.5" width="18" height="14" fill="var(--mw-icon-background-default-white, #FFFFFF)"/>
<rect x="0.5" y="0.5" width="18" height="14" stroke="var(--mw-icon-border-default-gray, #616161)" stroke-linejoin="round"/>
<path d="M4 3.5C4 3.77614 3.77614 4 3.5 4C3.22386 4 3 3.77614 3 3.5C3 3.22386 3.22386 3 3.5 3C3.77614 3 4 3.22386 4 3.5Z" fill="#0072BD"/>
<path d="M4 5.5C4 5.77614 3.77614 6 3.5 6C3.22386 6 3 5.77614 3 5.5C3 5.22386 3.22386 5 3.5 5C3.77614 5 4 5.22386 4 5.5Z" fill="#0072BD"/>
<path d="M4 7.5C4 7.77614 3.77614 8 3.5 8C3.22386 8 3 7.77614 3 7.5C3 7.22386 3.22386 7 3.5 7C3.77614 7 4 7.22386 4 7.5Z" fill="#0072BD"/>
<path d="M4 9.5C4 9.77614 3.77614 10 3.5 10C3.22386 10 3 9.77614 3 9.5C3 9.22386 3.22386 9 3.5 9C3.77614 9 4 9.22386 4 9.5Z" fill="#0072BD"/>
<path d="M4 11.5C4 11.7761 3.77614 12 3.5 12C3.22386 12 3 11.7761 3 11.5C3 11.2239 3.22386 11 3.5 11C3.77614 11 4 11.2239 4 11.5Z" fill="#0072BD"/>
<path d="M6 5.5C6 5.77614 5.77614 6 5.5 6C5.22386 6 5 5.77614 5 5.5C5 5.22386 5.22386 5 5.5 5C5.77614 5 6 5.22386 6 5.5Z" fill="#0072BD"/>
<path d="M6 7.5C6 7.77614 5.77614 8 5.5 8C5.22386 8 5 7.77614 5 7.5C5 7.22386 5.22386 7 5.5 7C5.77614 7 6 7.22386 6 7.5Z" fill="#0072BD"/>
<path d="M6 11.5C6 11.7761 5.77614 12 5.5 12C5.22386 12 5 11.7761 5 11.5C5 11.2239 5.22386 11 5.5 11C5.77614 11 6 11.2239 6 11.5Z" fill="#0072BD"/>
<path d="M8 5.5C8 5.77614 7.77614 6 7.5 6C7.22386 6 7 5.77614 7 5.5C7 5.22386 7.22386 5 7.5 5C7.77614 5 8 5.22386 8 5.5Z" fill="#0072BD"/>
<path d="M8 7.5C8 7.77614 7.77614 8 7.5 8C7.22386 8 7 7.77614 7 7.5C7 7.22386 7.22386 7 7.5 7C7.77614 7 8 7.22386 8 7.5Z" fill="#0072BD"/>
<path d="M8 9.5C8 9.77614 7.77614 10 7.5 10C7.22386 10 7 9.77614 7 9.5C7 9.22386 7.22386 9 7.5 9C7.77614 9 8 9.22386 8 9.5Z" fill="#0072BD"/>
<path d="M8 11.5C8 11.7761 7.77614 12 7.5 12C7.22386 12 7 11.7761 7 11.5C7 11.2239 7.22386 11 7.5 11C7.77614 11 8 11.2239 8 11.5Z" fill="#0072BD"/>
<path d="M10 3.5C10 3.77614 9.77614 4 9.5 4C9.22386 4 9 3.77614 9 3.5C9 3.22386 9.22386 3 9.5 3C9.77614 3 10 3.22386 10 3.5Z" fill="#0072BD"/>
<path d="M10 5.5C10 5.77614 9.77614 6 9.5 6C9.22386 6 9 5.77614 9 5.5C9 5.22386 9.22386 5 9.5 5C9.77614 5 10 5.22386 10 5.5Z" fill="#0072BD"/>
<path d="M10 7.5C10 7.77614 9.77614 8 9.5 8C9.22386 8 9 7.77614 9 7.5C9 7.22386 9.22386 7 9.5 7C9.77614 7 10 7.22386 10 7.5Z" fill="#0072BD"/>
<path d="M10 9.5C10 9.77614 9.77614 10 9.5 10C9.22386 10 9 9.77614 9 9.5C9 9.22386 9.22386 9 9.5 9C9.77614 9 10 9.22386 10 9.5Z" fill="#0072BD"/>
<path d="M10 11.5C10 11.7761 9.77614 12 9.5 12C9.22386 12 9 11.7761 9 11.5C9 11.2239 9.22386 11 9.5 11C9.77614 11 10 11.2239 10 11.5Z" fill="#0072BD"/>
<path d="M12 3.5C12 3.77614 11.7761 4 11.5 4C11.2239 4 11 3.77614 11 3.5C11 3.22386 11.2239 3 11.5 3C11.7761 3 12 3.22386 12 3.5Z" fill="#0072BD"/>
<path d="M12 7.5C12 7.77614 11.7761 8 11.5 8C11.2239 8 11 7.77614 11 7.5C11 7.22386 11.2239 7 11.5 7C11.7761 7 12 7.22386 12 7.5Z" fill="#0072BD"/>
<path d="M12 9.5C12 9.77614 11.7761 10 11.5 10C11.2239 10 11 9.77614 11 9.5C11 9.22386 11.2239 9 11.5 9C11.7761 9 12 9.22386 12 9.5Z" fill="#0072BD"/>
<path d="M14 3.5C14 3.77614 13.7761 4 13.5 4C13.2239 4 13 3.77614 13 3.5C13 3.22386 13.2239 3 13.5 3C13.7761 3 14 3.22386 14 3.5Z" fill="#0072BD"/>
<path d="M14 7.5C14 7.77614 13.7761 8 13.5 8C13.2239 8 13 7.77614 13 7.5C13 7.22386 13.2239 7 13.5 7C13.7761 7 14 7.22386 14 7.5Z" fill="#0072BD"/>
<path d="M14 9.5C14 9.77614 13.7761 10 13.5 10C13.2239 10 13 9.77614 13 9.5C13 9.22386 13.2239 9 13.5 9C13.7761 9 14 9.22386 14 9.5Z" fill="#0072BD"/>
<path d="M14 11.5C14 11.7761 13.7761 12 13.5 12C13.2239 12 13 11.7761 13 11.5C13 11.2239 13.2239 11 13.5 11C13.7761 11 14 11.2239 14 11.5Z" fill="#0072BD"/>
<path d="M16 3.5C16 3.77614 15.7761 4 15.5 4C15.2239 4 15 3.77614 15 3.5C15 3.22386 15.2239 3 15.5 3C15.7761 3 16 3.22386 16 3.5Z" fill="#0072BD"/>
<path d="M16 5.5C16 5.77614 15.7761 6 15.5 6C15.2239 6 15 5.77614 15 5.5C15 5.22386 15.2239 5 15.5 5C15.7761 5 16 5.22386 16 5.5Z" fill="#0072BD"/>
<path d="M16 7.5C16 7.77614 15.7761 8 15.5 8C15.2239 8 15 7.77614 15 7.5C15 7.22386 15.2239 7 15.5 7C15.7761 7 16 7.22386 16 7.5Z" fill="#0072BD"/>
<path d="M16 11.5C16 11.7761 15.7761 12 15.5 12C15.2239 12 15 11.7761 15 11.5C15 11.2239 15.2239 11 15.5 11C15.7761 11 16 11.2239 16 11.5Z" fill="#0072BD"/>
</svg>
