<svg width="20" height="16" viewBox="0 0 20 16" fill="none" xmlns="http://www.w3.org/2000/svg">
<rect x="0.500488" y="0.5" width="18" height="14" fill="var(--mw-icon-background-default-white, #FFFFFF)"/>
<line x1="0.000488281" y1="7.5" x2="2.00049" y2="7.5" stroke="var(--mw-icon-background-default-dark-gray, #A6A6A6)"/>
<line x1="4.00049" y1="7.5" x2="6.00049" y2="7.5" stroke="var(--mw-icon-background-default-dark-gray, #A6A6A6)"/>
<line x1="8.00049" y1="7.5" x2="10.0005" y2="7.5" stroke="var(--mw-icon-background-default-dark-gray, #A6A6A6)"/>
<line x1="12.0005" y1="7.5" x2="14.0005" y2="7.5" stroke="var(--mw-icon-background-default-dark-gray, #A6A6A6)"/>
<line x1="16.0005" y1="7.5" x2="18.0005" y2="7.5" stroke="var(--mw-icon-background-default-dark-gray, #A6A6A6)"/>
<path d="M0.500488 11.5C0.500488 11.5 2.45049 4.5 3.50049 4.5C4.32549 4.5 5.52549 9.5 6.50049 9.5C7.40049 9.5 8.41299 5.5 9.50049 5.5C10.588 5.5 11.6755 12.5 12.5005 12.5C13.3255 12.5 14.188 2.5 15.5005 2.5C16.813 2.5 17.263 10.5 18.5005 10.5" stroke="#0072BD"/>
<rect x="0.500488" y="0.5" width="18" height="14" stroke="var(--mw-icon-border-default-gray, #616161)" stroke-linejoin="round"/>
</svg>
