<svg width="20" height="16" viewBox="0 0 20 16" fill="none" xmlns="http://www.w3.org/2000/svg">
<rect x="0.5" y="0.547607" width="18" height="14" fill="var(--mw-icon-background-default-white, #FFFFFF)"/>
<rect x="0.5" y="0.5" width="18" height="14" stroke="var(--mw-icon-border-default-gray, #616161)" stroke-linejoin="round"/>
<path d="M6 3.5C6 4.32843 5.32843 5 4.5 5C3.67157 5 3 4.32843 3 3.5C3 2.67157 3.67157 2 4.5 2C5.32843 2 6 2.67157 6 3.5Z" fill="#0072BD"/>
<path d="M16 7.5C16 8.32843 15.3284 9 14.5 9C13.6716 9 13 8.32843 13 7.5C13 6.67157 13.6716 6 14.5 6C15.3284 6 16 6.67157 16 7.5Z" fill="#0072BD"/>
<path d="M6 11.5C6 12.3284 5.32843 13 4.5 13C3.67157 13 3 12.3284 3 11.5C3 10.6716 3.67157 10 4.5 10C5.32843 10 6 10.6716 6 11.5Z" fill="#0072BD"/>
<path d="M16 11.5C16 12.3284 15.3284 13 14.5 13C13.6716 13 13 12.3284 13 11.5C13 10.6716 13.6716 10 14.5 10C15.3284 10 16 10.6716 16 11.5Z" fill="#0072BD"/>
<path d="M11 7.5C11 8.32843 10.3284 9 9.5 9C8.67157 9 8 8.32843 8 7.5C8 6.67157 8.67157 6 9.5 6C10.3284 6 11 6.67157 11 7.5Z" fill="#0072BD"/>
<path d="M11 3.5C11 4.32843 10.3284 5 9.5 5C8.67157 5 8 4.32843 8 3.5C8 2.67157 8.67157 2 9.5 2C10.3284 2 11 2.67157 11 3.5Z" fill="#0072BD"/>
<path d="M6 7.5C6 8.32843 5.32843 9 4.5 9C3.67157 9 3 8.32843 3 7.5C3 6.67157 3.67157 6 4.5 6C5.32843 6 6 6.67157 6 7.5Z" fill="#0072BD"/>
</svg>
