<svg width="20" height="16" viewBox="0 0 20 16" fill="none" xmlns="http://www.w3.org/2000/svg">
<rect x="0.5" y="0.5" width="18" height="14" fill="var(--mw-icon-background-default-white, #FFFFFF)"/>
<path d="M8 9V4.9608C8 4.33355 8.15063 3.90406 8.4519 3.67233C8.75316 3.43861 9.08649 3.32175 9.45189 3.32175C9.82119 3.32175 10.1322 3.42763 10.3848 3.63937C10.6375 3.84912 10.7638 4.1228 10.7638 4.4604C10.7638 4.68014 10.6958 4.87391 10.5598 5.04171C10.4237 5.20751 10.2546 5.31638 10.0525 5.36832C10.379 5.42425 10.6181 5.56908 10.7697 5.8028C10.9232 6.03453 11 6.29322 11 6.57888C11 6.93046 10.897 7.2321 10.691 7.4838C10.4849 7.7355 10.2041 7.86135 9.8484 7.86135C9.43829 7.86135 9.09524 7.68257 8.81924 7.32499V9H8ZM9.1895 5.17655C9.43829 5.17255 9.63265 5.11162 9.77259 4.99376C9.91254 4.8759 9.98251 4.72608 9.98251 4.5443C9.98251 4.37849 9.92614 4.24465 9.81341 4.14278C9.70262 4.0389 9.56851 3.98696 9.41108 3.98696C9.27502 3.98696 9.15841 4.02991 9.06122 4.11581C8.96599 4.19971 8.90185 4.30858 8.8688 4.44242C8.83576 4.57626 8.81924 4.77203 8.81924 5.02972V5.93464C8.81924 6.20632 8.84159 6.42506 8.8863 6.59086C8.93294 6.75467 9.02527 6.8965 9.16327 7.01636C9.30126 7.13622 9.45092 7.19614 9.61224 7.19614C9.76774 7.19614 9.89796 7.13721 10.0029 7.01935C10.1079 6.8995 10.1603 6.74668 10.1603 6.5609C10.1603 6.28922 10.0807 6.06849 9.92128 5.89869C9.76385 5.72889 9.51992 5.64399 9.1895 5.64399V5.17655Z" fill="var(--mw-icon-glyph-content-light-blue, #278CDD)"/>
<path d="M8.48453 2.88395L9.09677 2H9.85479L10.4583 2.88395H9.79939L9.4612 2.43748L9.14633 2.88395H8.48453Z" fill="var(--mw-icon-glyph-content-light-blue, #278CDD)"/>
<rect x="0.5" y="0.5" width="18" height="14" stroke="var(--mw-icon-border-default-gray, #616161)" stroke-linejoin="round"/>
<path d="M10.5 12.5V10.5H12L11 11.5H11.5L12.5 12.5" stroke="var(--mw-icon-glyph-content-dark-gray, #333333)" stroke-linecap="round" stroke-linejoin="round"/>
<path d="M6.5 12.5L7.5 10.5L8.5 12.5" stroke="var(--mw-icon-glyph-content-dark-gray, #333333)" stroke-linecap="round" stroke-linejoin="round"/>
</svg>
