<svg width="20" height="16" viewBox="0 0 20 16" fill="none" xmlns="http://www.w3.org/2000/svg">
<rect x="10" width="1" height="15" fill="var(--mw-icon-border-disabled-gray, #888888)"/>
<rect x="6.31699" y="1.25482" width="1" height="15" transform="rotate(-30 6.31699 1.25482)" fill="var(--mw-icon-border-disabled-gray, #888888)"/>
<rect x="3.75482" y="4.18304" width="1" height="15" transform="rotate(-60 3.75482 4.18304)" fill="var(--mw-icon-border-disabled-gray, #888888)"/>
<rect x="18" y="7.00006" width="1" height="15" transform="rotate(90 18 7.00006)" fill="var(--mw-icon-border-disabled-gray, #888888)"/>
<rect x="16.7452" y="3.31708" width="1" height="15" transform="rotate(60 16.7452 3.31708)" fill="var(--mw-icon-border-disabled-gray, #888888)"/>
<rect x="13.817" y="0.754883" width="1" height="15" transform="rotate(30 13.817 0.754883)" fill="var(--mw-icon-border-disabled-gray, #888888)"/>
<circle cx="10.5" cy="7.5" r="6" fill="var(--mw-icon-background-default-white, #FFFFFF)"/>
<path d="M10.5001 1.5V13.5" stroke="var(--mw-icon-background-default-medium-gray, #D9D9D9)"/>
<path d="M16.5 7.5L4.5 7.5" stroke="var(--mw-icon-background-default-medium-gray, #D9D9D9)"/>
<path d="M7.5 2.30383L13.5 12.6961" stroke="var(--mw-icon-background-default-medium-gray, #D9D9D9)"/>
<path d="M5.30383 4.5L15.6961 10.5" stroke="var(--mw-icon-background-default-medium-gray, #D9D9D9)"/>
<path d="M15.6963 4.5L5.30395 10.5" stroke="var(--mw-icon-background-default-medium-gray, #D9D9D9)"/>
<path d="M13.5001 2.30383L7.50012 12.6961" stroke="var(--mw-icon-background-default-medium-gray, #D9D9D9)"/>
<circle cx="10.5" cy="7.5" r="6" stroke="var(--mw-icon-border-default-gray, #616161)"/>
<path d="M7.50292 6.16622C7.42955 7.67253 8.75689 8.55755 9.50016 8.8333C8.35393 10.0666 9.24133 11.551 10.5014 11.4987C12.1111 11.4318 12.2821 9.38997 11.5001 8.78038C12.1551 8.5201 13.4527 7.70546 13.4986 6.31435C13.5444 4.92324 12.4983 3.5 10.5014 3.5C9.16986 3.5 7.59463 4.28334 7.50292 6.16622Z" stroke="#0072BD" stroke-linejoin="round"/>
</svg>
