<svg width="20" height="16" viewBox="0 0 20 16" fill="none" xmlns="http://www.w3.org/2000/svg">
<path d="M9.5 1L2.5 5V10.5L9.5 14.5L16.5 10.5V5L9.5 1Z" fill="var(--mw-icon-background-default-white, white)"/>
<path d="M9.50195 6.497L9.50409 1L16.3268 4.93223V10.4116L9.50195 6.497Z" fill="var(--mw-icon-background-default-light-gray, #F5F5F5)"/>
<path d="M9.50195 6.497L9.49981 1L2.67706 4.93724L2.67706 10.4116L9.50195 6.497Z" fill="#E6E6E6"/>
<path d="M16.5038 10.2722V5.06086L9.5019 1.02222L2.5 4.99997" stroke="var(--mw-icon-background-default-dark-gray, #A6A6A6)" stroke-linecap="round" stroke-linejoin="round"/>
<path d="M2.5 5V10.3281L9.5 14.3697L16.5 10.33" stroke="var(--mw-icon-border-default-gray, #616161)" stroke-linecap="round" stroke-linejoin="round"/>
<path d="M11.3824 2.13904L14.4723 3.93051C14.4856 3.93823 14.4856 3.95744 14.4723 3.96513L11.5047 5.67902L8.41467 3.88807C8.40136 3.88036 8.40138 3.86114 8.41469 3.85345L11.3824 2.13904Z" fill="#FE9043" stroke="#823400"/>
<path d="M14.5024 6.93196L11.5348 8.65311C11.5215 8.66085 11.5048 8.65123 11.5048 8.63581L11.5048 5.67522L14.4725 3.9639C14.4858 3.95621 14.5024 3.96584 14.5024 3.98123L14.5024 6.93196Z" fill="#C04C0B" stroke="#823400"/>
<path d="M8.49423 3.80164L13.4702 6.67698C13.4835 6.68468 13.4835 6.70392 13.4702 6.71161L10.5026 8.42546L5.52656 5.55065C5.51323 5.54295 5.51323 5.52372 5.52656 5.51602L8.49423 3.80164Z" fill="#94EF84" stroke="var(--mw-icon-glyph-content-dark-green, #02580E)"/>
<path d="M13.5005 9.67842L10.5329 11.3996C10.5195 11.4073 10.5028 11.3977 10.5028 11.3823L10.5028 8.42168L13.4705 6.71036C13.4838 6.70267 13.5005 6.7123 13.5005 6.72769L13.5005 9.67842Z" fill="var(--mw-icon-glyph-content-green, #008014)" stroke="var(--mw-icon-glyph-content-dark-green, #02580E)"/>
<path d="M5.10693 8.33218L10.473 11.4061C10.4863 11.4137 10.5029 11.4041 10.5029 11.3887V8.42528L6.60769 6.17183C5.94102 5.78616 5.10693 6.26723 5.10693 7.03742V8.33218Z" fill="#3AC831" stroke="var(--mw-icon-glyph-content-dark-green, #02580E)"/>
<path d="M5.50156 5.53125L8.46914 7.24918C8.48245 7.25689 8.48244 7.27611 8.46912 7.28381L5.50156 8.99769L2.53385 7.28027C2.52053 7.27257 2.52054 7.25334 2.53386 7.24564L5.50156 5.53125Z" fill="var(--mw-icon-background-medium-blue, #83CAFF)" stroke="var(--mw-icon-glyph-content-dark-blue, #104280)"/>
<path d="M2.50293 10.2776L5.47168 11.9782C5.48501 11.9858 5.50162 11.9762 5.50162 11.9609V8.99743L2.533 7.26658C2.51967 7.25881 2.50293 7.26842 2.50293 7.28386V10.2776Z" fill="#54B6FF" stroke="var(--mw-icon-glyph-content-dark-blue, #104280)"/>
<path d="M8.49951 10.2506L5.53188 11.9717C5.51854 11.9794 5.50184 11.9698 5.50184 11.9544L5.50184 8.99382L8.46952 7.28251C8.48285 7.27482 8.49951 7.28444 8.49951 7.29983L8.49951 10.2506Z" fill="#1171BE" stroke="var(--mw-icon-glyph-content-dark-blue, #104280)"/>

</svg>
