<svg width="21" height="16" viewBox="0 0 21 16" fill="none" xmlns="http://www.w3.org/2000/svg">
<path d="M10.5 1L3.5 5V10.5L10.5 14.5L17.5 10.5V5L10.5 1Z" fill="var(--mw-icon-background-default-white, white)"/>
<path d="M10.502 6.497L10.5041 1L17.3268 4.93223V10.4116L10.502 6.497Z" fill="var(--mw-icon-background-default-light-gray, #F5F5F5)"/>
<path d="M10.502 6.497L10.4998 1L3.67706 4.93724L3.67706 10.4116L10.502 6.497Z" fill="#E6E6E6"/>
<path d="M17.5038 10.2722V5.06086L10.5019 1.02222L3.5 4.99997" stroke="var(--mw-icon-background-default-dark-gray, #A6A6A6)" stroke-linecap="round" stroke-linejoin="round"/>
<path d="M3.5 5V10.3281L10.5 14.3697L17.5 10.33" stroke="var(--mw-icon-border-default-gray, #616161)" stroke-linecap="round" stroke-linejoin="round"/>
<path d="M17.5017 7.98027L14.5017 9.71472V6.96564L17.4717 5.25299C17.4851 5.2453 17.5017 5.25492 17.5017 5.27032V7.98027Z" fill="#C04C0B" stroke="#823400" stroke-linejoin="round"/>
<path d="M14.5029 3.50195L17.4728 5.21962C17.4861 5.22732 17.4861 5.24655 17.4728 5.25425L14.5029 6.96945L11.5329 5.25231C11.5196 5.24461 11.5196 5.22537 11.5329 5.21768L14.5029 3.50195Z" fill="#FE9043" stroke="#823400" stroke-linejoin="round"/>
<path d="M14.5017 9.70494L11.5323 11.4217C11.5189 11.4294 11.5023 11.4198 11.5023 11.4044V5.2032L14.4717 3.49086C14.4851 3.48317 14.5017 3.4928 14.5017 3.50819L14.5017 9.70494Z" fill="var(--mw-icon-glyph-content-green, #008014)" stroke="var(--mw-icon-glyph-content-dark-green, #02580E)" stroke-linejoin="round"/>
<path d="M8.50269 8.97069L11.4721 10.6875C11.4855 10.6952 11.5021 10.6856 11.5021 10.6702V5.2039L8.53268 3.49156C8.51934 3.48387 8.50269 3.49349 8.50269 3.50888V8.97069Z" fill="#3AC831" stroke="var(--mw-icon-glyph-content-dark-green, #02580E)" stroke-linejoin="round"/>
<path d="M11.5009 1.74121L14.4702 3.45857C14.4836 3.46627 14.4836 3.4855 14.4702 3.4932L11.5009 5.2081L8.53142 3.49126C8.5181 3.48356 8.51811 3.46433 8.53143 3.45663L11.5009 1.74121Z" fill="#94EF84" stroke="var(--mw-icon-glyph-content-dark-green, #02580E)" stroke-linejoin="round"/>
<path d="M5.50269 11.4262L8.47266 13.1433C8.48599 13.151 8.50267 13.1414 8.50267 13.126V8.93105L5.53268 7.2184C5.51934 7.21071 5.50269 7.22034 5.50269 7.23573V11.4262Z" fill="#54B6FF" stroke="var(--mw-icon-glyph-content-dark-blue, #104280)" stroke-linejoin="round"/>
<path d="M8.50265 5.46387L11.4725 7.18153C11.4858 7.18923 11.4858 7.20847 11.4725 7.21616L8.50265 8.93136L5.53265 7.21422C5.51932 7.20652 5.51933 7.18729 5.53265 7.17959L8.50265 5.46387Z" fill="var(--mw-icon-background-medium-blue, #83CAFF)" stroke="var(--mw-icon-glyph-content-dark-blue, #104280)" stroke-linejoin="round"/>
<path d="M11.5027 11.4478L8.53272 13.1649C8.51938 13.1726 8.50271 13.163 8.50271 13.1476L8.5027 8.92964L11.4727 7.21699C11.486 7.2093 11.5027 7.21893 11.5027 7.23432V11.4478Z" fill="#1171BE" stroke="var(--mw-icon-glyph-content-dark-blue, #104280)" stroke-linejoin="round"/>

</svg>
