<svg width="20" height="16" viewBox="0 0 20 16" fill="none" xmlns="http://www.w3.org/2000/svg">
<rect x="0.5" y="0.5" width="18" height="14" fill="var(--mw-icon-background-default-white, white)"/>
<path d="M4 11L4 14L2 14L2 11L4 11Z" fill="#D95319"/>
<path d="M6 9L6 14L4 14L4 9L6 9Z" fill="#0072BD"/>
<path d="M10 8L10 14L8 14L8 8L10 8Z" fill="#D95319"/>
<path d="M12 6L12 14L10 14L10 6L12 6Z" fill="#0072BD"/>
<path d="M16 5L16 14L14 14L14 5L16 5Z" fill="#D95319"/>
<path d="M18 3L18 14L16 14L16 3L18 3Z" fill="#0072BD"/>
<rect x="0.5" y="0.5" width="18" height="14" stroke="var(--mw-icon-border-default-gray, #616161)" stroke-linejoin="round"/>

</svg>
