<svg width="20" height="16" viewBox="0 0 20 16" fill="none" xmlns="http://www.w3.org/2000/svg">
<rect x="0.5" y="0.5" width="18" height="14" fill="var(--mw-icon-background-default-white, white)"/>
<path d="M13 10L13 14L16 14L16 10L13 10Z" fill="#D95319"/>
<path d="M13 2L13 10L16 10L16 2L13 2Z" fill="#0072BD"/>
<path d="M3 13L3 14L6 14L6 13L3 13Z" fill="#D95319"/>
<path d="M3 9L3 13L6 13L6 9L3 9Z" fill="#0072BD"/>
<path d="M8 12L8 14L11 13.9999L11 12L8 12Z" fill="#D95319"/>
<path d="M8 4.99988L8 11.9999L11 11.9999L11 4.99988L8 4.99988Z" fill="#0072BD"/>
<rect x="0.5" y="0.5" width="18" height="14" stroke="var(--mw-icon-border-default-gray, #616161)" stroke-linejoin="round"/>

</svg>
