<svg width="20" height="17" viewBox="0 0 20 17" fill="none" xmlns="http://www.w3.org/2000/svg">
<path d="M9.5 1.54761L2.5 5.54761V11.0476L9.5 15.0476L16.5 11.0476V5.54761L9.5 1.54761Z" fill="var(--mw-icon-background-default-white, #FFFFFF)"/>
<path d="M9.50195 7.04461L9.50409 1.54761L16.3268 5.47984V10.9592L9.50195 7.04461Z" fill="var(--mw-icon-background-default-light-gray, #F5F5F5)"/>
<path d="M9.50195 7.04461L9.49981 1.54761L2.67706 5.48485L2.67706 10.9592L9.50195 7.04461Z" fill="#E6E6E6"/>
<path d="M16.5038 10.8198V5.60847L9.5019 1.56982L2.5 5.54758" stroke="var(--mw-icon-background-default-dark-gray, #A6A6A6)" stroke-linecap="round" stroke-linejoin="round"/>
<path d="M2.5 5.54761V10.8757L9.5 14.9173L16.5 10.8776" stroke="var(--mw-icon-border-default-gray, #616161)" stroke-linecap="round" stroke-linejoin="round"/>
<path d="M9.50297 8.10596L5.19092 10.9415M9.50297 8.10596V12.3778M9.50297 8.10596L13.809 10.9415" stroke="#4A3A19" stroke-width="0.998822" stroke-linecap="round" stroke-linejoin="round"/>
<path d="M9.50307 8.10606L13.8091 5.67495M9.50307 8.10606L9.50005 5.67495M9.50307 8.10606L5.19102 5.67495M9.50307 8.10606L7.58492 4.71739M9.50307 8.10606L11.4152 4.71739M9.50307 8.10606L8.06371 10.4628M9.50307 8.10606L10.9364 10.4628" stroke="#4A3A19" stroke-width="0.998822" stroke-linecap="round" stroke-linejoin="round"/>
</svg>
