<svg width="20" height="16" viewBox="0 0 20 16" fill="none" xmlns="http://www.w3.org/2000/svg">
<path d="M9.5 1L2.5 5V10.5L9.5 14.5L16.5 10.5V5L9.5 1Z" fill="var(--mw-icon-background-default-white, #FFFFFF)"/>
<path d="M9.50195 6.497L9.50409 1L16.3268 4.93223V10.4116L9.50195 6.497Z" fill="var(--mw-icon-background-default-light-gray, #F5F5F5)"/>
<path d="M9.50195 6.497L9.49981 1L2.67706 4.93724L2.67706 10.4116L9.50195 6.497Z" fill="#E6E6E6"/>
<path d="M16.5038 10.2722V5.06086L9.5019 1.02222L2.5 4.99997" stroke="var(--mw-icon-background-default-dark-gray, #A6A6A6)" stroke-linecap="round" stroke-linejoin="round"/>
<path d="M2.5 5V10.3281L9.5 14.3697L16.5 10.33" stroke="var(--mw-icon-border-default-gray, #616161)" stroke-linecap="round" stroke-linejoin="round"/>
<path d="M6.5 6C6.5 6 8.57859 7 9.5 7C10.4214 7 12.5 6 12.5 6L9.45265 8.53845L6.5 6Z" fill="#EDB120" stroke="#745A26" stroke-linejoin="round"/>
<path d="M11.6213 4.93934C12.7929 5.52513 12.7929 6.47487 11.6213 7.06066C10.4497 7.64645 8.55025 7.64645 7.37868 7.06066C6.20711 6.47487 6.20711 5.52513 7.37868 4.93934C8.55025 4.35355 10.4497 4.35355 11.6213 4.93934Z" fill="#EDB120" stroke="#745A26"/>
<path d="M6.5 10.5L9.50451 8.53845L12.5 10.5C12.1677 10.9456 11 11.4986 9.50451 11.4986C8 11.5 6.65206 10.8603 6.5 10.5Z" fill="#EDB120" stroke="#745A26" stroke-linejoin="round"/>
</svg>
