<svg width="20" height="16" viewBox="0 0 20 16" fill="none" xmlns="http://www.w3.org/2000/svg">
<path d="M7.5 2.5H11.5V6.5H7.5V2.5Z" fill="#BFBFBF" stroke="var(--mw-icon-border-default-gray, #616161)" stroke-linejoin="round"/>
<path d="M7.5 8.5H11.5V12.5H7.5V8.5Z" fill="var(--mw-icon-background-default-white, white)" stroke="var(--mw-icon-border-default-gray, #616161)" stroke-linejoin="round"/>
<path d="M13 2.20633C14.6992 3.67644 14.9922 5.15944 14.9922 7.57093C14.9922 10.0727 14.6641 11.2849 13 12.7937L13.1055 13C14.9687 11.7491 16 9.91794 16 7.53224C16 5.33998 14.9336 3.1864 13.1406 2L13 2.20633Z" fill="var(--mw-icon-object-primary, #616160)"/>
<path d="M6 12.7937C4.30078 11.3236 4.00781 9.84056 4.00781 7.42907C4.00781 4.92731 4.33594 3.71512 6 2.20633L5.89453 2C4.03125 3.25088 3 5.08206 3 7.46776C3 9.66002 4.06641 11.8136 5.85938 13L6 12.7937Z" fill="var(--mw-icon-object-primary, #616160)"/>

</svg>
