<svg width="20" height="16" viewBox="0 0 20 16" fill="none" xmlns="http://www.w3.org/2000/svg">
<path d="M9.5 1L2.5 5V10.5L9.5 14.5L16.5 10.5V5L9.5 1Z" fill="var(--mw-icon-background-default-white, #FFFFFF)"/>
<path d="M9.50195 6.497L9.50409 1L16.3268 4.93223V10.4116L9.50195 6.497Z" fill="var(--mw-icon-background-default-light-gray, #F5F5F5)"/>
<path d="M9.50195 6.497L9.49981 1L2.67706 4.93724L2.67706 10.4116L9.50195 6.497Z" fill="#E6E6E6"/>
<path d="M16.5038 10.2722V5.06086L9.5019 1.02222L2.5 4.99997" stroke="var(--mw-icon-background-default-dark-gray, #A6A6A6)" stroke-linecap="round" stroke-linejoin="round"/>
<path d="M2.5 5V10.3281L9.5 14.3697L16.5 10.33" stroke="var(--mw-icon-border-default-gray, #616161)" stroke-linecap="round" stroke-linejoin="round"/>
<path d="M11.9692 5.72783L12.6321 6.1019L11.3196 9.96817L10.7399 9.64954L11.9692 5.72783Z" fill="#EDB120"/>
<path d="M9.10864 7.35461L9.74849 7.70533L11.3196 9.96817L10.7363 9.64962L9.10864 7.35461Z" fill="#B3882A"/>
<path d="M12.6321 6.1019L11.9692 5.72783L10.4211 3.50464L11.0891 3.8442L12.6321 6.1019Z" fill="#B3882A"/>
<path d="M9.74849 7.70533L9.10864 7.35461L10.4211 3.50464L11.0998 3.85442L9.74849 7.70533Z" fill="#EDB120"/>
<path d="M12.6321 6.1019L11.9692 5.72783M12.6321 6.1019L11.3196 9.96817M12.6321 6.1019L11.0891 3.8442L10.4211 3.50464M11.9692 5.72783L10.7399 9.64954L11.3196 9.96817M11.9692 5.72783L10.4211 3.50464M11.3196 9.96817L10.7363 9.64962L9.10864 7.35461M11.3196 9.96817L9.74849 7.70533M9.74849 7.70533L9.10864 7.35461M9.74849 7.70533L11.0998 3.85442L10.4211 3.50464M9.10864 7.35461L10.4211 3.50464" stroke="#745A26" stroke-linejoin="round"/>
<path d="M9.74905 7.71875L9.08614 7.34468L7.53809 5.12149L8.20613 5.46105L9.74905 7.71875Z" fill="#B3882A" stroke="#745A26" stroke-linejoin="round"/>
<path d="M6.86697 9.31445L6.229 8.96077L7.53817 5.12141L8.21683 5.47121L6.86697 9.31445Z" fill="#EDB120" stroke="#745A26" stroke-linejoin="round"/>
<path d="M9.10893 7.35181L9.74878 7.70252L8.43631 11.5525L7.85657 11.2339L9.10893 7.35181Z" fill="#EDB120" stroke="#745A26" stroke-linejoin="round"/>
<path d="M6.22556 8.95508L6.86541 9.3058L8.43652 11.5523L7.85316 11.2338L6.22556 8.95508Z" fill="#B3882A" stroke="#745A26" stroke-linejoin="round"/>
</svg>
