<svg width="20" height="16" viewBox="0 0 20 16" fill="none" xmlns="http://www.w3.org/2000/svg">
<rect x="0.5" y="0.5" width="18" height="14" fill="var(--mw-icon-background-default-white, white)"/>
<path d="M1 4.7C2.28966 4.7 4.82207 4.78 5.57241 4.7C6.51034 4.6 7.56552 3.8 8.97241 2C9.44138 3 10.5014 5.46722 13.4276 5.8C15.1862 6 17.531 6 18 6" stroke="#EDB120" stroke-width="3" stroke-linejoin="round"/>
<line x1="1" y1="7.5" x2="18" y2="7.5" stroke="var(--mw-icon-background-default-dark-gray, #A6A6A6)"/>
<path d="M1 8.5C2.39068 8.5 5.54608 8.5 7.04226 9.16667C8.91248 10 11.0979 12.5 14.6944 12.5C17.5717 12.5 17.0797 12.5 18 12.5" stroke="#EDB120" stroke-width="3"/>
<path d="M1 8.5C2.39068 8.5 5.54608 8.5 7.04226 9.16667C8.91248 10 11.0979 12.5 14.6944 12.5C17.5717 12.5 17.0556 12.5 18 12.5" stroke="#0072BD"/>
<path d="M1 4.7C2.28966 4.7 4.82207 4.78 5.57241 4.7C6.51034 4.6 7.56552 3.8 8.97241 2C9.44138 3 10.5014 5.46722 13.4276 5.8C15.1862 6 17.531 6 18 6" stroke="#0072BD"/>
<rect x="0.5" y="0.5" width="18" height="14" stroke="var(--mw-icon-border-default-gray, #616161)" stroke-linejoin="round"/>

</svg>
