<svg width="20" height="16" viewBox="0 0 20 16" fill="none" xmlns="http://www.w3.org/2000/svg">
<rect x="0.5" y="0.5" width="18" height="14" fill="var(--mw-icon-background-default-white, white)"/>
<path d="M2.5 6.5H4.5M7.5 8.5H9.5M12.5 6.5H14.5" stroke="#D95319" stroke-linecap="square"/>
<path d="M2.5 12.5H3.5H4.5M7.5 12.5H9.5M14.5 12.5H12.5M2.5 2.5H4.5M7.5 4.5H9.5M12.5 2.5H14.5M3.5 10.5V10" stroke="var(--mw-icon-glyph-content-dark-gray, #333333)" stroke-linecap="square"/>
<path d="M8.5 9.5V10.5M13.5 9.5V10.5" stroke="var(--mw-icon-glyph-content-dark-gray, #333333)" stroke-linecap="square"/>
<path d="M2.5 4.5H4.5V9.5H2.5V4.5Z" stroke="#0072BD"/>
<path d="M7.5 6.5H9.5V9.5H7.5V6.5Z" stroke="#0072BD"/>
<path d="M12.5 4.5H14.5V9.5H12.5L12.5 4.5Z" stroke="#0072BD"/>
<rect x="0.5" y="0.5" width="18" height="14" stroke="var(--mw-icon-border-default-gray, #616161)" stroke-linejoin="round"/>

</svg>
