<svg width="20" height="16" viewBox="0 0 20 16" fill="none" xmlns="http://www.w3.org/2000/svg">
<path d="M9.5 1L2.5 5V10.5L9.5 14.5L16.5 10.5V5L9.5 1Z" fill="var(--mw-icon-background-default-white, white)"/>
<path d="M9.50195 6.497L9.50409 1L16.3268 4.93223V10.4116L9.50195 6.497Z" fill="var(--mw-icon-background-default-light-gray, #F5F5F5)"/>
<path d="M9.50195 6.497L9.49981 1L2.67706 4.93724L2.67706 10.4116L9.50195 6.497Z" fill="#E6E6E6"/>
<path d="M16.5038 10.2722V5.06086L9.5019 1.02222L2.5 4.99997" stroke="var(--mw-icon-background-default-dark-gray, #A6A6A6)" stroke-linecap="round" stroke-linejoin="round"/>
<path d="M2.5 5V10.3281L9.5 14.3697L16.5 10.33" stroke="var(--mw-icon-border-default-gray, #616161)" stroke-linecap="round" stroke-linejoin="round"/>
<path d="M12.5 11C13.8807 11 15 9.88071 15 8.5C15 7.11929 13.8807 6 12.5 6C11.1193 6 10 7.11929 10 8.5C10 9.88071 11.1193 11 12.5 11Z" fill="#0072BD"/>
<path d="M8.5 6C9.32843 6 10 5.32843 10 4.5C10 3.67157 9.32843 3 8.5 3C7.67157 3 7 3.67157 7 4.5C7 5.32843 7.67157 6 8.5 6Z" fill="#0072BD"/>
<path d="M5 7C5.55228 7 6 6.55228 6 6C6 5.44772 5.55228 5 5 5C4.44772 5 4 5.44772 4 6C4 6.55228 4.44772 7 5 7Z" fill="#0072BD"/>
<path d="M13 5C13.5523 5 14 4.55228 14 4C14 3.44772 13.5523 3 13 3C12.4477 3 12 3.44772 12 4C12 4.55228 12.4477 5 13 5Z" fill="#0072BD"/>
<path d="M7.5 12C8.32843 12 9 11.3284 9 10.5C9 9.67157 8.32843 9 7.5 9C6.67157 9 6 9.67157 6 10.5C6 11.3284 6.67157 12 7.5 12Z" fill="#0072BD"/>

</svg>
