<svg width="20" height="16" viewBox="0 0 20 16" fill="none" xmlns="http://www.w3.org/2000/svg">
<path d="M5.5 1.5H10.5V6.5H5.5V1.5Z" fill="#BFBFBF" stroke="var(--mw-icon-border-default-gray, #616161)" stroke-linejoin="round"/>
<path d="M12.5 1.5H17.5V6.5H12.5V1.5Z" fill="var(--mw-icon-background-default-white, white)" stroke="var(--mw-icon-border-default-gray, #616161)" stroke-linejoin="round"/>
<path d="M12.5 8.5H17.5V13.5H12.5V8.5Z" fill="var(--mw-icon-background-default-white, white)" stroke="var(--mw-icon-border-default-gray, #616161)" stroke-linejoin="round"/>
<path d="M5.5 8.5H10.5V13.5H5.5V8.5Z" fill="var(--mw-icon-background-default-white, white)" stroke="var(--mw-icon-border-default-gray, #616161)" stroke-linejoin="round"/>
<path d="M2.36 12.561C2.36 13.5366 2.616 14.2509 3.064 14.5645C3.512 14.878 3.928 14.9826 5 15L5 14.8084C3.896 14.4948 3.544 13.9721 3.544 12.6655L3.544 9.73868C3.544 8.27526 3.24 7.83972 2.04 7.50871C3.24 7.16028 3.544 6.70732 3.544 5.26133L3.544 2.3345C3.544 1.02788 3.896 0.505228 5 0.191639L5 0C3.944 0.0174218 3.528 0.121952 3.064 0.43554C2.6 0.74913 2.36 1.42857 2.36 2.4216L2.36 5.52265C2.36 6.74216 2.072 7.14286 1 7.50871C2.072 7.85714 2.36 8.25784 2.36 9.47735L2.36 12.561Z" fill="var(--mw-icon-object-primary, #616160)"/>

</svg>
