<svg width="20" height="16" viewBox="0 0 20 16" fill="none" xmlns="http://www.w3.org/2000/svg">
<path d="M9.5 1L2.5 5V10.5L9.5 14.5L16.5 10.5V5L9.5 1Z" fill="var(--mw-icon-background-default-white, #FFFFFF)"/>
<path d="M9.50195 6.497L9.50409 1L16.3268 4.93223V10.4116L9.50195 6.497Z" fill="var(--mw-icon-background-default-light-gray, #F5F5F5)"/>
<path d="M9.50195 6.497L9.49981 1L2.67706 4.93724L2.67706 10.4116L9.50195 6.497Z" fill="#E6E6E6"/>
<path d="M16.5038 10.2725V5.0611L9.5019 1.02246L2.5 5.00022" stroke="var(--mw-icon-background-default-dark-gray, #A6A6A6)" stroke-linecap="round" stroke-linejoin="round"/>
<path d="M2.5 5V10.3281L9.5 14.3697L16.5 10.33" stroke="var(--mw-icon-border-default-gray, #616161)" stroke-linecap="round" stroke-linejoin="round"/>
<path d="M6.5022 9.50722L6.50224 7.00879H13.5024V9.51897C13.5024 9.91108 12.7653 11.5102 9.9681 11.5102C7.17088 11.5102 6.5022 9.8195 6.5022 9.50722Z" fill="#EDB120" stroke="#745A26"/>
<path d="M7.52734 5.08846C6.16048 5.88869 6.16048 7.18612 7.52734 7.98636C8.8942 8.78659 11.1103 8.78659 12.4772 7.98636C13.844 7.18612 13.844 5.88869 12.4772 5.08846C11.1103 4.28822 8.8942 4.28822 7.52734 5.08846Z" fill="#EDB120" stroke="#745A26"/>
<path d="M10.0028 7.07666C9.25125 7.07664 8.6027 7.29452 7.89392 7.63508C9.4296 8.37704 11.1596 8.23098 12.0764 7.68206C11.5295 7.33579 10.6322 7.07668 10.0028 7.07666Z" fill="#FFDB9A"/>
<path d="M12.5272 8.12594C10.8101 7.29328 9.26094 7.27386 7.65369 8.12595" stroke="#745A26"/>
</svg>
