<svg width="20" height="16" viewBox="0 0 20 16" fill="none" xmlns="http://www.w3.org/2000/svg">
<path d="M9.5 1L2.5 5V10.5L9.5 14.5L16.5 10.5V5L9.5 1Z" fill="var(--mw-icon-background-default-white, #FFFFFF)"/>
<path d="M9.50195 6.497L9.50409 1L16.3268 4.93223V10.4116L9.50195 6.497Z" fill="var(--mw-icon-background-default-light-gray, #F5F5F5)"/>
<path d="M9.50195 6.497L9.49981 1L2.67706 4.93724L2.67706 10.4116L9.50195 6.497Z" fill="#E6E6E6"/>
<path d="M16.5038 10.2725V5.0611L9.5019 1.02246L2.5 5.00022" stroke="var(--mw-icon-background-default-dark-gray, #A6A6A6)" stroke-linecap="round" stroke-linejoin="round"/>
<path d="M2.5 5V10.3281L9.5 14.3697L16.5 10.33" stroke="var(--mw-icon-border-default-gray, #616161)" stroke-linecap="round" stroke-linejoin="round"/>
<path d="M9.48513 12L4.5 9.28723L4.50002 6.39362L9.48513 3.5L14.4998 6.39362V9.28723L9.48513 12Z" fill="#EDB120"/>
<path d="M9.48513 12L4.5 9.28723L4.50002 6.39362M9.48513 12L14.4998 9.28723V6.39362M9.48513 12V9.28723M9.48513 6.39362V3.5M9.48513 6.39362L6.99257 7.84043M9.48513 6.39362L11.9777 7.84043M4.50002 6.39362L9.48513 3.5M4.50002 6.39362L9.48513 9.28723M9.48513 3.5L14.4998 6.39362M14.4998 6.39362L11.9777 7.84043M9.48513 9.28723L11.9777 7.84043" stroke="#745A26"/>
<path d="M9.48541 6.89697L7.93677 7.88031L9.48541 8.76941L11.0486 7.88031L9.48541 6.89697Z" fill="#FFDB9A"/>
</svg>
