<svg width="20" height="16" viewBox="0 0 20 16" fill="none" xmlns="http://www.w3.org/2000/svg">
<rect x="0.5" y="0.5" width="18" height="14" fill="var(--mw-icon-object-secondary, #FFFFFE)" stroke="var(--mw-icon-border-default-gray, #616161)" stroke-linejoin="round"/>
<path d="M4 5H5V10H4V5Z" fill="var(--mw-icon-object-primary, #616160)"/>
<path d="M5 9H7V10H5V9Z" fill="var(--mw-icon-object-primary, #616160)"/>
<path d="M5 5H7V6H5V5Z" fill="var(--mw-icon-object-primary, #616160)"/>
<path d="M12 5H13V10H12V5Z" fill="var(--mw-icon-object-primary, #616160)"/>
<path d="M13 5H15V6H13V5Z" fill="var(--mw-icon-object-primary, #616160)"/>
<path d="M14 5H15V8H14V5Z" fill="var(--mw-icon-object-primary, #616160)"/>
<path d="M12 7H14V8H12V7Z" fill="var(--mw-icon-object-primary, #616160)"/>
<path d="M14 9H15V10H14V9Z" fill="var(--mw-icon-object-primary, #616160)"/>
<path d="M13 8H14V9H13V8Z" fill="var(--mw-icon-object-primary, #616160)"/>
<path d="M10 6H11V9H10V6Z" fill="var(--mw-icon-object-primary, #616160)"/>
<path d="M8 5H9V10H8V5Z" fill="var(--mw-icon-object-primary, #616160)"/>
<path d="M9 5H10V6H9V5Z" fill="var(--mw-icon-object-primary, #616160)"/>
<path d="M9 9H10V10H9V9Z" fill="var(--mw-icon-object-primary, #616160)"/>
</svg>
