<svg width="20" height="16" viewBox="0 0 20 16" fill="none" xmlns="http://www.w3.org/2000/svg">
<rect x="0.5" y="0.5" width="18" height="14" fill="var(--mw-icon-background-default-white, white)"/>
<path d="M1 3H18V5H1V3Z" fill="#BFBFBF"/>
<path d="M0.5 2.5H18.5V14.5H0.5V2.5Z" fill="var(--mw-icon-background-default-white, white)"/>
<path d="M0.5 2.5V2H0V2.5H0.5ZM18.5 2.5H19V2H18.5V2.5ZM18.5 14.5V15C18.7761 15 19 14.7761 19 14.5H18.5ZM0.5 14.5H0C0 14.7761 0.223858 15 0.5 15L0.5 14.5ZM0.5 3H18.5V2H0.5V3ZM18 2.5V14.5H19V2.5H18ZM18.5 14H0.5V15H18.5V14ZM1 14.5V2.5H0V14.5H1Z" fill="var(--mw-icon-border-default-gray, #616161)"/>
<path d="M0.5 0.5H18.5V2.5H0.5V0.5Z" fill="var(--mw-icon-background-default-selection, #B4DEFF)"/>
<path d="M0.5 0.5V0C0.223858 0 0 0.223858 0 0.5L0.5 0.5ZM18.5 0.5H19C19 0.223858 18.7761 0 18.5 0V0.5ZM18.5 2.5V3H19V2.5H18.5ZM0.5 2.5H0V3H0.5V2.5ZM0.5 1H18.5V0H0.5V1ZM18 0.5V2.5H19V0.5H18ZM18.5 2H0.5V3H18.5V2ZM1 2.5V0.5H0V2.5H1Z" fill="var(--mw-icon-border-default-blue, #1656A7)"/>
<circle cx="4" cy="9" r="1" fill="#0072BD"/>
<circle cx="8" cy="9" r="1" fill="#0072BD"/>
<circle cx="12" cy="7" r="1" fill="#0072BD"/>
<circle cx="15" cy="9" r="1" fill="#0072BD"/>
<circle cx="9" cy="12" r="1" fill="#0072BD"/>
<path d="M3.50012 11.5C4.28291 11.2724 7.00012 11 7.79278 10.8835C8.72777 10.7461 13.5756 9.87529 15.5001 7.50001" stroke="#D95319" stroke-linecap="round"/>

</svg>
