<svg width="20" height="16" viewBox="0 0 20 16" fill="none" xmlns="http://www.w3.org/2000/svg">
<rect x="0.500488" y="0.5" width="18" height="14" fill="var(--mw-icon-background-default-white, #FFFFFF)"/>
<line x1="0.000488281" y1="7.5" x2="2.00049" y2="7.5" stroke="var(--mw-icon-background-default-dark-gray, #A6A6A6)"/>
<line x1="4.00049" y1="7.5" x2="6.00049" y2="7.5" stroke="var(--mw-icon-background-default-dark-gray, #A6A6A6)"/>
<line x1="8.00049" y1="7.5" x2="10.0005" y2="7.5" stroke="var(--mw-icon-background-default-dark-gray, #A6A6A6)"/>
<line x1="12.0005" y1="7.5" x2="14.0005" y2="7.5" stroke="var(--mw-icon-background-default-dark-gray, #A6A6A6)"/>
<line x1="16.0005" y1="7.5" x2="18.0005" y2="7.5" stroke="var(--mw-icon-background-default-dark-gray, #A6A6A6)"/>
<path d="M0.000488281 12.5C3.44027 12.5 1.11389 2.5 4.30021 2.5C7.48653 2.5 6.43649 12.5 8.59993 12.5C10.7634 12.5 9.06611 2.5 10.7498 2.5C12.4335 2.5 11.5056 12.5 12.8997 12.5C14.2937 12.5 12.8997 2.5 13.9746 2.5C15.0495 2.5 14.2756 12.5 15.0495 12.5C15.8235 12.5 15.217 2.5 15.587 2.5C15.957 2.5 15.9185 12.5 16.1245 12.5C16.3304 12.5 16.3779 2.5 16.4469 2.5C16.516 2.5 16.516 12.5 16.7694 12.5C17.0229 12.5 16.8373 2.5 16.955 2.5C17.0727 2.5 17.0727 12.5 17.1994 12.5C17.3261 12.5 17.2582 2.5 17.1994 2.5C17.1405 2.5 17.2582 12.5 17.4144 12.5C17.5705 12.5 17.4438 2.5 17.4144 2.5C17.3849 2.5 17.4438 12.5 17.6294 12.5C17.8149 12.5 17.4438 2.5 17.6294 2.5C17.8149 2.5 18.0005 12.5 18.0005 12.5" stroke="#0072BD"/>
<rect x="0.500488" y="0.5" width="18" height="14" stroke="var(--mw-icon-border-default-gray, #616161)" stroke-linejoin="round"/>
</svg>
