<svg width="20" height="16" viewBox="0 0 20 16" fill="none" xmlns="http://www.w3.org/2000/svg">
<rect x="0.5" y="0.547607" width="18" height="14" fill="var(--mw-icon-background-default-white, #FFFFFF)"/>
<rect x="0.5" y="0.5" width="18" height="14" stroke="var(--mw-icon-border-default-gray, #616161)" stroke-linejoin="round"/>
<path d="M11 3.5C11 4.32843 10.3284 5 9.5 5C8.67157 5 8 4.32843 8 3.5C8 2.67157 8.67157 2 9.5 2C10.3284 2 11 2.67157 11 3.5Z" fill="#0072BD"/>
<path d="M16 5.5C16 6.32843 15.3284 7 14.5 7C13.6716 7 13 6.32843 13 5.5C13 4.67157 13.6716 4 14.5 4C15.3284 4 16 4.67157 16 5.5Z" fill="#0072BD"/>
<path d="M16 9.5C16 10.3284 15.3284 11 14.5 11C13.6716 11 13 10.3284 13 9.5C13 8.67157 13.6716 8 14.5 8C15.3284 8 16 8.67157 16 9.5Z" fill="#0072BD"/>
<path d="M11 11.5C11 12.3284 10.3284 13 9.5 13C8.67157 13 8 12.3284 8 11.5C8 10.6716 8.67157 10 9.5 10C10.3284 10 11 10.6716 11 11.5Z" fill="#0072BD"/>
<path d="M6 9.5C6 10.3284 5.32843 11 4.5 11C3.67157 11 3 10.3284 3 9.5C3 8.67157 3.67157 8 4.5 8C5.32843 8 6 8.67157 6 9.5Z" fill="#0072BD"/>
<path d="M6 5.5C6 6.32843 5.32843 7 4.5 7C3.67157 7 3 6.32843 3 5.5C3 4.67157 3.67157 4 4.5 4C5.32843 4 6 4.67157 6 5.5Z" fill="#0072BD"/>
</svg>
