<svg width="21" height="16" viewBox="0 0 21 16" fill="none" xmlns="http://www.w3.org/2000/svg">
<path d="M10 1L3 5V10.5L10 14.5L17 10.5V5L10 1Z" fill="var(--mw-icon-background-default-white, #FFFFFF)"/>
<path d="M10.002 6.497L10.0041 1L16.8268 4.93223V10.4116L10.002 6.497Z" fill="var(--mw-icon-background-default-light-gray, #F5F5F5)"/>
<path d="M10.002 6.497L9.99981 1L3.17706 4.93724L3.17706 10.4116L10.002 6.497Z" fill="#E6E6E6"/>
<path d="M17.0038 10.2722V5.06086L10.0019 1.02222L3 4.99997" stroke="var(--mw-icon-background-default-dark-gray, #A6A6A6)" stroke-linecap="round" stroke-linejoin="round"/>
<path d="M3 5V10.3281L10 14.3697L17 10.33" stroke="var(--mw-icon-border-default-gray, #616161)" stroke-linecap="round" stroke-linejoin="round"/>
<path d="M6.18774 5.25604L6.45758 5.04023C7.51551 4.35146 8.73183 3.99133 9.97031 4.00016C10.5107 4.00056 11.0492 4.06863 11.5747 4.20297C14.6475 4.98302 14.9513 6.98775 14.9635 7.06316L14.9999 7.34137L10.4978 8.76887L10.3277 8.14483L14.2828 6.90195C14.1005 6.44952 13.4709 5.41985 11.4264 4.83481C10.9707 4.70904 10.5017 4.64698 10.0311 4.6502C9.02019 4.65543 8.0233 4.90334 7.11394 5.37565L9.86334 8.55045L9.41605 8.98988L6.18774 5.25604Z" fill="#745A26"/>
<path d="M9.9247 8.88438L10.3725 8.44242L11.4838 9.73147C11.8991 9.48731 12.9102 8.82043 13.1848 7.986C13.36 7.29228 13.4792 6.58391 13.541 5.86876L9.59285 8.77085L9.39354 8.14146L13.8863 4.94273L14.0177 5.24416C14.2517 5.75394 13.8933 7.79298 13.756 8.2102C13.3216 9.52832 11.6162 10.4026 11.5427 10.4399L11.3423 10.5411L9.9247 8.88438Z" fill="#745A26"/>
<path d="M5.82243 8.92487C5.70705 8.90936 5.59599 8.86793 5.49654 8.80327C5.39709 8.73862 5.3115 8.65222 5.2454 8.54974C5.22317 8.51238 5.19762 8.47741 5.16909 8.44532C5.12325 8.40021 5.09155 8.34106 5.07833 8.27599C5.06511 8.21092 5.07103 8.14311 5.09526 8.08188C5.14516 7.78168 5.28428 7.50694 5.49195 7.29849C5.69963 7.09004 5.96478 6.959 6.24801 6.92483C7.06106 6.81778 9.62514 6.53939 9.96052 6.58384L10.0691 6.59823L10.8576 7.67727L10.3895 8.08939L9.75188 7.23468C9.25993 7.25331 7.49142 7.42757 6.47224 7.5597C6.3235 7.57845 6.18496 7.64977 6.07857 7.76235C5.97218 7.87494 5.90401 8.02237 5.88485 8.18129C5.87822 8.20927 5.87704 8.23843 5.88139 8.26694C5.88573 8.29546 5.89551 8.32273 5.91011 8.34706C5.9248 8.36964 5.94378 8.38866 5.9658 8.40287C5.98783 8.41707 6.0124 8.42615 6.0379 8.42949L10.3895 8.92487L10.3309 9.44103L5.82243 8.92487Z" fill="#745A26"/>
</svg>
