<svg width="20" height="16" viewBox="0 0 20 16" fill="none" xmlns="http://www.w3.org/2000/svg">
<rect x="0.500122" y="0.5" width="18" height="14" fill="var(--mw-icon-background-default-white, #FFFFFF)"/>
<circle cx="2.50012" cy="3.5" r="1.5" fill="#1171BE"/>
<circle cx="9.50012" cy="3.5" r="1.5" fill="#1171BE"/>
<path fill-rule="evenodd" clip-rule="evenodd" d="M5.06078 4.35355L4.70723 4L4.00012 4.70711L4.35368 5.06066L5.00012 5.70711L4.35368 6.35355L4.00012 6.70711L4.70723 7.41421L5.06078 7.06066L5.70723 6.41421L6.35368 7.06066L6.70723 7.41421L7.41434 6.70711L7.06078 6.35355L6.41434 5.70711L7.06078 5.06066L7.41434 4.70711L6.70723 4L6.35368 4.35355L5.70723 5L5.06078 4.35355Z" fill="var(--mw-icon-glyph-content-dark-gray, #333333)"/>
<circle cx="4.50012" cy="11.5" r="1.5" fill="#1171BE"/>
<circle cx="16.5001" cy="8.5" r="1.5" fill="#DD5400"/>
<circle cx="14.5001" cy="5.5" r="1.5" fill="#DD5400"/>
<circle cx="9.50012" cy="10.5" r="1.5" fill="#DD5400"/>
<path fill-rule="evenodd" clip-rule="evenodd" d="M13.0608 9.85355L12.7072 9.5L12.0001 10.2071L12.3537 10.5607L13.0001 11.2071L12.3537 11.8536L12.0001 12.2071L12.7072 12.9142L13.0608 12.5607L13.7072 11.9142L14.3537 12.5607L14.7072 12.9142L15.4143 12.2071L15.0608 11.8536L14.4143 11.2071L15.0608 10.5607L15.4143 10.2071L14.7072 9.5L14.3537 9.85355L13.7072 10.5L13.0608 9.85355Z" fill="var(--mw-icon-glyph-content-dark-gray, #333333)"/>
<rect x="0.500122" y="0.5" width="18" height="14" stroke="var(--mw-icon-border-default-gray, #616161)" stroke-linejoin="round"/>
</svg>
