<svg width="20" height="16" viewBox="0 0 20 16" fill="none" xmlns="http://www.w3.org/2000/svg">
<rect x="0.5" y="0.5" width="18" height="14" fill="var(--mw-icon-background-default-white, #FFFFFF)"/>
<rect x="0.5" y="0.5" width="18" height="14" stroke="var(--mw-icon-border-default-gray, #616161)" stroke-linejoin="round"/>
<path d="M5 7.5C5 7.77614 4.77614 8 4.5 8C4.22386 8 4 7.77614 4 7.5C4 7.22386 4.22386 7 4.5 7C4.77614 7 5 7.22386 5 7.5Z" fill="#0072BD"/>
<path d="M14 7.5C14 7.77614 14.2239 8 14.5 8C14.7761 8 15 7.77614 15 7.5C15 7.22386 14.7761 7 14.5 7C14.2239 7 14 7.22386 14 7.5Z" fill="#0072BD"/>
<path d="M6 4.5C6 4.77614 5.77614 5 5.5 5C5.22386 5 5 4.77614 5 4.5C5 4.22386 5.22386 4 5.5 4C5.77614 4 6 4.22386 6 4.5Z" fill="#0072BD"/>
<path d="M13 4.5C13 4.77614 13.2239 5 13.5 5C13.7761 5 14 4.77614 14 4.5C14 4.22386 13.7761 4 13.5 4C13.2239 4 13 4.22386 13 4.5Z" fill="#0072BD"/>
<path d="M9 4.5C9 4.77614 9.22386 5 9.5 5C9.77614 5 10 4.77614 10 4.5C10 4.22386 9.77614 4 9.5 4C9.22386 4 9 4.22386 9 4.5Z" fill="#0072BD"/>
<path d="M11 5.5C11 5.77614 11.2239 6 11.5 6C11.7761 6 12 5.77614 12 5.5C12 5.22386 11.7761 5 11.5 5C11.2239 5 11 5.22386 11 5.5Z" fill="#0072BD"/>
<path d="M12 7.5C12 7.77614 12.2239 8 12.5 8C12.7761 8 13 7.77614 13 7.5C13 7.22386 12.7761 7 12.5 7C12.2239 7 12 7.22386 12 7.5Z" fill="#0072BD"/>
<path d="M11 9.5C11 9.77614 11.2239 10 11.5 10C11.7761 10 12 9.77614 12 9.5C12 9.22386 11.7761 9 11.5 9C11.2239 9 11 9.22386 11 9.5Z" fill="#0072BD"/>
<path d="M9 10.5C9 10.7761 9.22386 11 9.5 11C9.77614 11 10 10.7761 10 10.5C10 10.2239 9.77614 10 9.5 10C9.22386 10 9 10.2239 9 10.5Z" fill="#0072BD"/>
<path d="M7 9.5C7 9.77614 7.22386 10 7.5 10C7.77614 10 8 9.77614 8 9.5C8 9.22386 7.77614 9 7.5 9C7.22386 9 7 9.22386 7 9.5Z" fill="#0072BD"/>
<path d="M6 7.5C6 7.77614 6.22386 8 6.5 8C6.77614 8 7 7.77614 7 7.5C7 7.22386 6.77614 7 6.5 7C6.22386 7 6 7.22386 6 7.5Z" fill="#0072BD"/>
<path d="M7 5.5C7 5.77614 7.22386 6 7.5 6C7.77614 6 8 5.77614 8 5.5C8 5.22386 7.77614 5 7.5 5C7.22386 5 7 5.22386 7 5.5Z" fill="#0072BD"/>
<path d="M10 2.5C10 2.77614 9.77614 3 9.5 3C9.22386 3 9 2.77614 9 2.5C9 2.22386 9.22386 2 9.5 2C9.77614 2 10 2.22386 10 2.5Z" fill="#0072BD"/>
<path d="M6 10.5C6 10.2239 5.77614 10 5.5 10C5.22386 10 5 10.2239 5 10.5C5 10.7761 5.22386 11 5.5 11C5.77614 11 6 10.7761 6 10.5Z" fill="#0072BD"/>
<path d="M13 10.5C13 10.2239 13.2239 10 13.5 10C13.7761 10 14 10.2239 14 10.5C14 10.7761 13.7761 11 13.5 11C13.2239 11 13 10.7761 13 10.5Z" fill="#0072BD"/>
<path d="M10 12.5C10 12.2239 9.77614 12 9.5 12C9.22386 12 9 12.2239 9 12.5C9 12.7761 9.22386 13 9.5 13C9.77614 13 10 12.7761 10 12.5Z" fill="#0072BD"/>
</svg>
