<svg width="20" height="16" viewBox="0 0 20 16" fill="none" xmlns="http://www.w3.org/2000/svg">
<rect x="0.5" y="0.5" width="18" height="14" fill="var(--mw-icon-background-default-white, white)"/>
<path d="M1.5 3H1V4H1.5V3ZM18.5 4H19V3H18.5V4ZM1.5 4H18.5V3H1.5V4Z" fill="#D95319"/>
<path d="M1.5 11H1V12H1.5V11ZM18.5 12H19V11H18.5V12ZM1.5 12H18.5V11H1.5V12Z" fill="#D95319"/>
<path d="M1.5 7H1V8H1.5V7ZM18.5 8H19V7H18.5V8ZM1.5 8H18.5V7H1.5V8Z" fill="#77AC30"/>
<circle cx="16" cy="10" r="1" fill="#0072BD"/>
<circle cx="5" cy="6" r="1" fill="#0072BD"/>
<circle cx="4" cy="12" r="1.5" fill="var(--mw-icon-background-default-white, white)"/>
<circle cx="12" cy="4" r="1.5" fill="var(--mw-icon-background-default-white, white)"/>
<circle cx="4" cy="12" r="1" fill="#0072BD"/>
<circle cx="12" cy="4" r="1" fill="#0072BD"/>
<path d="M4 12C4.8 7.2 5 6 5 6L12 4L16 10" stroke="#0072BD"/>
<circle cx="12" cy="4" r="2" stroke="#D95319"/>
<circle cx="4" cy="12" r="2" stroke="#D95319"/>
<rect x="0.5" y="0.5" width="18" height="14" stroke="var(--mw-icon-border-default-gray, #616161)" stroke-linejoin="round"/>

</svg>
