<svg width="20" height="16" viewBox="0 0 20 16" fill="none" xmlns="http://www.w3.org/2000/svg">
<rect x="0.5" y="0.5" width="18" height="14" fill="var(--mw-icon-background-default-white, white)"/>
<path d="M0.99989 4.5C2.22211 4.5 3.50011 4.5 4.5 4.5C5.5 4.5 6.49989 6 6.49989 7.5C6.49989 8.74808 3.38451 10.3423 1.95403 11.1306C1.54209 11.3576 1.47024 11.5 0.999889 11.5V11.5" stroke="#35D2FA"/>
<path d="M8.5 14.5C8.5 13.5 9 12.8889 9.5 12C9.75 11.5556 10.69 10.5 12 10.5C13 10.5 14.5 10.5 15.5 10.5C16 10.5 17.5 11.0556 18.5 11.5" stroke="#35D2FA"/>
<path d="M3 8.5C3.82843 8.5 4.5 8.05228 4.5 7.5C4.5 6.94772 3.82843 6.5 3 6.5C2.17157 6.5 1.5 6.94772 1.5 7.5C1.5 8.05228 2.17157 8.5 3 8.5Z" stroke="var(--mw-icon-borderColor-light-blue, #268CDD)"/>
<path d="M7.5 11.5C8.05228 11.5 8.5 11.0523 8.5 10.5C8.5 9.94772 8.05228 9.5 7.5 9.5C6.94772 9.5 6.5 9.94772 6.5 10.5C6.5 11.0523 6.94772 11.5 7.5 11.5Z" stroke="#EDB120"/>
<path d="M13.5 13.5C14.3284 13.5 15 13.0523 15 12.5C15 11.9477 14.3284 11.5 13.5 11.5C12.6716 11.5 12 11.9477 12 12.5C12 13.0523 12.6716 13.5 13.5 13.5Z" stroke="var(--mw-icon-borderColor-light-blue, #268CDD)"/>
<path d="M16.5 5.5H15.5V3.5C15.5 3.23478 15.3946 2.98043 15.2071 2.79289C15.0196 2.60536 14.7652 2.5 14.5 2.5H9.5C9.23478 2.5 8.98043 2.60536 8.79289 2.79289C8.60536 2.98043 8.5 3.23478 8.5 3.5V5.5C8.5 5.76522 8.60536 6.01957 8.79289 6.20711C8.98043 6.39464 9.23478 6.5 9.5 6.5H13.5V7.5C13.5 7.76522 13.6054 8.01957 13.7929 8.20711C13.9804 8.39464 14.2348 8.5 14.5 8.5H16.5C16.7652 8.5 17.0196 8.39464 17.2071 8.20711C17.3946 8.01957 17.5 7.76522 17.5 7.5V6.5C17.5 6.23478 17.3946 5.98043 17.2071 5.79289C17.0196 5.60536 16.7652 5.5 16.5 5.5Z" stroke="#EDB120" stroke-linejoin="round"/>
<path d="M12.5 3.5H11.5C10.9477 3.5 10.5 3.94772 10.5 4.5C10.5 5.05228 10.9477 5.5 11.5 5.5H12.5C13.0523 5.5 13.5 5.05228 13.5 4.5C13.5 3.94772 13.0523 3.5 12.5 3.5Z" stroke="#D95319"/>
<rect x="0.5" y="0.5" width="18" height="14" stroke="var(--mw-icon-border-default-gray, #616161)" stroke-linejoin="round"/>

</svg>
