<svg width="20" height="16" viewBox="0 0 20 16" fill="none" xmlns="http://www.w3.org/2000/svg">
<rect x="0.5" y="0.5" width="18" height="14" fill="var(--mw-icon-background-default-white, white)"/>
<line x1="7.5" y1="4.5" x2="8.5" y2="4.5" stroke="#D95319" stroke-linecap="square"/>
<line x1="15.5" y1="4.5" x2="16.5" y2="4.5" stroke="#D95319" stroke-linecap="square"/>
<line x1="3.5" y1="4.5" x2="4.5" y2="4.5" stroke="#D95319" stroke-linecap="square"/>
<line x1="11.5" y1="4.5" x2="12.5" y2="4.5" stroke="#D95319" stroke-linecap="square"/>
<line x1="8.5" y1="13.5" x2="9.5" y2="13.5" stroke="#D95319" stroke-linecap="square"/>
<line x1="16.5" y1="13.5" x2="17.5" y2="13.5" stroke="#D95319" stroke-linecap="square"/>
<line x1="4.5" y1="13.5" x2="5.5" y2="13.5" stroke="#D95319" stroke-linecap="square"/>
<line x1="12.5" y1="13.5" x2="13.5" y2="13.5" stroke="#D95319" stroke-linecap="square"/>
<line x1="0.5" y1="13.5" x2="1.5" y2="13.5" stroke="#D95319" stroke-linecap="square"/>
<line x1="1" y1="8.5" x2="19" y2="8.5" stroke="#0072BD"/>
<line x1="2.5" y1="9" x2="2.5" y2="5" stroke="#0072BD"/>
<line x1="5.5" y1="9" x2="5.5" y2="2" stroke="#0072BD"/>
<line x1="8.5" y1="11" x2="8.5" y2="8" stroke="#0072BD"/>
<line x1="10.5" y1="8" x2="10.5" y2="6" stroke="#0072BD"/>
<line x1="16.5" y1="8" x2="16.5" y2="6" stroke="#0072BD"/>
<circle cx="5.5" cy="2.5" r="1.5" fill="#0072BD"/>
<circle cx="8.5" cy="11.5" r="1.5" fill="#0072BD"/>
<circle cx="13.5" cy="8.5" r="1.5" fill="#0072BD"/>
<circle cx="16.5" cy="5.5" r="1.5" fill="#0072BD"/>
<circle cx="10.5" cy="5.5" r="1.5" fill="#0072BD"/>
<circle cx="2.5" cy="4.5" r="1.5" fill="#0072BD"/>
<rect x="0.5" y="0.5" width="18" height="14" stroke="var(--mw-icon-border-default-gray, #616161)" stroke-linejoin="round"/>

</svg>
