<svg width="20" height="16" viewBox="0 0 20 16" fill="none" xmlns="http://www.w3.org/2000/svg">
<rect x="0.620117" y="0.5" width="18" height="14" fill="var(--mw-icon-background-default-white, #FFFFFF)"/>
<path d="M0.620117 14.5L9.62 7.49997M9.62012 0.5L18.6201 7.5" stroke="#FF6929"/>
<path d="M0.720215 7.5H18.2202M9.5 1L9.5 15" stroke="var(--mw-icon-glyph-content-gray, #616162)"/>
<path d="M3 2H5V7H3V2Z" fill="var(--mw-icon-glyph-content-light-blue, #278CDD)"/>
<path d="M14 9H16V14H14V9Z" fill="var(--mw-icon-glyph-content-light-blue, #278CDD)"/>
<path d="M6 4H8V7H6V4Z" fill="var(--mw-icon-glyph-content-light-blue, #278CDD)"/>
<path d="M11 11H13V14H11V11Z" fill="var(--mw-icon-glyph-content-light-blue, #278CDD)"/>
<path d="M3 11.5C3 11.7761 2.77614 12 2.5 12C2.22386 12 2 11.7761 2 11.5C2 11.2239 2.22386 11 2.5 11C2.77614 11 3 11.2239 3 11.5Z" fill="var(--mw-icon-glyph-content-light-blue, #278CDD)"/>
<path d="M4 13.5C4 13.7761 3.77614 14 3.5 14C3.22386 14 3 13.7761 3 13.5C3 13.2239 3.22386 13 3.5 13C3.77614 13 4 13.2239 4 13.5Z" fill="var(--mw-icon-glyph-content-light-blue, #278CDD)"/>
<path d="M12 2.5C12 2.77614 11.7761 3 11.5 3C11.2239 3 11 2.77614 11 2.5C11 2.22386 11.2239 2 11.5 2C11.7761 2 12 2.22386 12 2.5Z" fill="var(--mw-icon-glyph-content-light-blue, #278CDD)"/>
<path d="M14 2.5C14 2.77614 13.7761 3 13.5 3C13.2239 3 13 2.77614 13 2.5C13 2.22386 13.2239 2 13.5 2C13.7761 2 14 2.22386 14 2.5Z" fill="var(--mw-icon-glyph-content-light-blue, #278CDD)"/>
<path d="M15 3.5C15 3.77614 14.7761 4 14.5 4C14.2239 4 14 3.77614 14 3.5C14 3.22386 14.2239 3 14.5 3C14.7761 3 15 3.22386 15 3.5Z" fill="var(--mw-icon-glyph-content-light-blue, #278CDD)"/>
<path d="M13 4.5C13 4.77614 12.7761 5 12.5 5C12.2239 5 12 4.77614 12 4.5C12 4.22386 12.2239 4 12.5 4C12.7761 4 13 4.22386 13 4.5Z" fill="var(--mw-icon-glyph-content-light-blue, #278CDD)"/>
<path d="M16 4.5C16 4.77614 15.7761 5 15.5 5C15.2239 5 15 4.77614 15 4.5C15 4.22386 15.2239 4 15.5 4C15.7761 4 16 4.22386 16 4.5Z" fill="var(--mw-icon-glyph-content-light-blue, #278CDD)"/>
<path d="M16 2.5C16 2.77614 15.7761 3 15.5 3C15.2239 3 15 2.77614 15 2.5C15 2.22386 15.2239 2 15.5 2C15.7761 2 16 2.22386 16 2.5Z" fill="var(--mw-icon-glyph-content-light-blue, #278CDD)"/>
<path d="M16 6.5C16 6.77614 15.7761 7 15.5 7C15.2239 7 15 6.77614 15 6.5C15 6.22386 15.2239 6 15.5 6C15.7761 6 16 6.22386 16 6.5Z" fill="var(--mw-icon-glyph-content-light-blue, #278CDD)"/>
<path d="M17 5.5C17 5.77614 16.7761 6 16.5 6C16.2239 6 16 5.77614 16 5.5C16 5.22386 16.2239 5 16.5 5C16.7761 5 17 5.22386 17 5.5Z" fill="var(--mw-icon-glyph-content-light-blue, #278CDD)"/>
<path d="M14 5.5C14 5.77614 13.7761 6 13.5 6C13.2239 6 13 5.77614 13 5.5C13 5.22386 13.2239 5 13.5 5C13.7761 5 14 5.22386 14 5.5Z" fill="var(--mw-icon-glyph-content-light-blue, #278CDD)"/>
<path d="M4 9.5C4 9.77614 3.77614 10 3.5 10C3.22386 10 3 9.77614 3 9.5C3 9.22386 3.22386 9 3.5 9C3.77614 9 4 9.22386 4 9.5Z" fill="var(--mw-icon-glyph-content-light-blue, #278CDD)"/>
<path d="M5 12.5C5 12.7761 4.77614 13 4.5 13C4.22386 13 4 12.7761 4 12.5C4 12.2239 4.22386 12 4.5 12C4.77614 12 5 12.2239 5 12.5Z" fill="var(--mw-icon-glyph-content-light-blue, #278CDD)"/>
<path d="M5.12012 10.5C5.12012 10.7761 4.89626 11 4.62012 11C4.34397 11 4.12012 10.7761 4.12012 10.5C4.12012 10.2239 4.34397 10 4.62012 10C4.89626 10 5.12012 10.2239 5.12012 10.5Z" fill="var(--mw-icon-glyph-content-light-blue, #278CDD)"/>
<path d="M7 11.5C7 11.7761 6.77614 12 6.5 12C6.22386 12 6 11.7761 6 11.5C6 11.2239 6.22386 11 6.5 11C6.77614 11 7 11.2239 7 11.5Z" fill="var(--mw-icon-glyph-content-light-blue, #278CDD)"/>
<path d="M8.12012 9.5C8.12012 9.77614 7.89626 10 7.62012 10C7.34398 10 7.12012 9.77614 7.12012 9.5C7.12012 9.22386 7.34398 9 7.62012 9C7.89626 9 8.12012 9.22386 8.12012 9.5Z" fill="var(--mw-icon-glyph-content-light-blue, #278CDD)"/>
<path d="M6 9.5C6 9.77614 5.77614 10 5.5 10C5.22386 10 5 9.77614 5 9.5C5 9.22386 5.22386 9 5.5 9C5.77614 9 6 9.22386 6 9.5Z" fill="var(--mw-icon-glyph-content-light-blue, #278CDD)"/>
<rect x="0.5" y="0.5" width="18" height="14" stroke="var(--mw-icon-border-default-gray, #616161)" stroke-linejoin="round"/>
</svg>
