<svg width="20" height="16" viewBox="0 0 20 16" fill="none" xmlns="http://www.w3.org/2000/svg">
<path d="M18.5 0.5H0.5V14.5H18.5V0.5Z" fill="var(--mw-icon-background-default-white, #FFFFFF)" stroke="var(--mw-icon-border-default-gray, #616161)" stroke-linejoin="round"/>
<path d="M1 2.5C3.5 2.5 3.5 6.5 3.5 7.5C3.5 8.5 3.5 12.5 5.5 12.5C7.5 12.5 7.5 8.5 7.5 7.5C7.5 6.5 7.5 2.5 9.5 2.5C11.5 2.5 11.5 6.5 11.5 7.5C11.5 8.5 11.5 12.5 13.5 12.5C15.5 12.5 15.5 8.5 15.5 7.5C15.5 6.5 15.5 2.5 18 2.5" stroke="var(--mw-icon-glyph-content-light-blue, #278CDD)" stroke-linejoin="round"/>
<path d="M1.5 7.5H17.5" stroke="var(--mw-icon-glyph-content-gray, #616162)" stroke-linecap="round" stroke-linejoin="round" stroke-dasharray="2 2"/>
</svg>
