<svg width="20" height="17" viewBox="0 0 20 17" fill="none" xmlns="http://www.w3.org/2000/svg">
<rect x="0.5" y="1.5" width="18" height="14" fill="var(--mw-icon-background-default-white, #FFFFFF)"/>
<rect x="0.5" y="1" width="18" height="14" stroke="var(--mw-icon-border-default-gray, #616161)" stroke-linejoin="round"/>
<path d="M9.21384 2.50233C11.1594 2.5638 11.6819 6.22325 10.923 6.7704C10.923 6.7704 10.7954 7.14005 10.7964 7.38443C10.7975 7.62361 10.923 7.98493 10.923 7.98493C12.0301 8.71756 11.3822 12.5 9.04292 12.5C6.55076 12.5 5.45358 9.88563 5.45361 7.33991C5.45365 4.7186 6.49219 2.41635 9.21384 2.50233Z" fill="#FFD60A"/>
<path d="M11.418 8.94739C11.6207 10.3178 10.8197 12.5 9.04288 12.5C7.85906 12.5 6.99001 11.9101 6.40381 11.0178C8.62049 11.9232 10.6703 10.0148 11.418 8.94739Z" fill="#FEC04C"/>
<path d="M9.04291 12.5001C7.85801 12.5001 6.98844 11.9091 6.40222 11.0155C7.42629 11.5832 9.86297 11.963 11.4171 8.94116C11.6232 10.3112 10.8225 12.5001 9.04291 12.5001Z" fill="#EDB120"/>
<path d="M11.3988 8.83411C11.6649 10.1938 10.8696 12.5 9.043 12.5C7.85202 12.5 6.97962 11.9029 6.39331 11.0016C9.02387 12.9109 10.8263 10.3521 11.3988 8.83411Z" fill="#B3882A"/>
<path d="M11.361 8.67322C11.7279 10.0025 10.9438 12.4999 9.04299 12.4999C7.87063 12.4999 7.00698 11.9214 6.42102 11.0436C10.3439 13.8144 10.9785 9.3408 11.361 8.67322Z" fill="#8B6606"/>
<path d="M9.21378 2.50233C11.1594 2.5638 11.6819 6.22325 10.923 6.77039C10.923 6.77039 10.7953 7.14005 10.7964 7.38443C10.7975 7.62361 10.923 7.98492 10.923 7.98492C11.471 8.34759 11.5889 9.45762 11.2846 10.4862C6.45696 9.90714 6.01681 5.7754 6.40019 3.78192C7.0025 2.96248 7.91712 2.46137 9.21378 2.50233Z" fill="#F9FB15"/>
<path d="M9.21375 2.50233C11.1593 2.5638 11.6819 6.22325 10.9229 6.77039C10.9229 6.77039 10.7953 7.14005 10.7964 7.38443C10.7974 7.62361 10.9229 7.98492 10.9229 7.98492C11.4604 8.34058 11.5889 9.38984 11.3065 10.4013C10.5948 10.4198 9.40341 10.1373 8.80164 9.65922C8.04942 9.0616 6.39088 6.77039 8.08482 5.76752C9.43997 4.96522 8.64947 3.33621 8.08482 2.62199C8.42359 2.53156 8.79914 2.48924 9.21375 2.50233Z" fill="#FEC338"/>
<path d="M10.5919 3.36084C11.3666 4.49075 11.4161 6.41479 10.9229 6.77038C10.9229 6.77038 10.7953 7.14003 10.7964 7.38439C10.7975 7.62358 10.9229 7.98491 10.9229 7.98491C11.4592 8.33981 11.5873 9.50412 11.285 10.4873C10.4819 10.4263 9.59059 10.2249 9.24562 9.73041C8.64596 9.05504 8.76021 7.67248 8.82626 6.95582C8.96774 5.42067 10.7748 4.82901 10.5919 3.36084Z" fill="#ABC739"/>
<path d="M11.1845 4.89636C11.3371 5.73997 11.2463 6.53739 10.9231 6.77039C10.9231 6.77039 10.7954 7.14006 10.7965 7.38444C10.7976 7.62362 10.9231 7.98492 10.9231 7.98492C11.3373 8.25905 11.5201 8.92553 11.432 9.73032C9.0227 7.74147 10.2631 5.679 11.1845 4.89636Z" fill="#2E87F7"/>
<path d="M10.7965 7.38442C10.7954 7.14004 10.9231 6.77037 10.9231 6.77037C11.1711 6.59156 11.2823 6.08035 11.2516 5.47095C10.6689 6.14477 9.78463 7.9849 11.4109 8.85103C11.3379 8.45709 11.1724 8.14991 10.9231 7.9849C10.9231 7.9849 10.7976 7.6236 10.7965 7.38442Z" fill="#4852F4"/>
<path d="M10.7964 7.38447C10.7953 7.14009 10.923 6.77043 10.923 6.77043C11.0916 6.64889 11.1969 6.37379 11.2375 6.01868C10.7806 6.50807 10.1468 7.66882 11.2666 8.39663C11.1805 8.21989 11.0655 8.07922 10.923 7.98495C10.923 7.98495 10.7975 7.62365 10.7964 7.38447Z" fill="#3E26A8"/>
</svg>
