<svg width="20" height="16" viewBox="0 0 20 16" fill="none" xmlns="http://www.w3.org/2000/svg">
<rect x="0.5" y="0.5" width="18" height="14" fill="var(--mw-icon-background-default-white, white)"/>
<path d="M9.5 1V14" stroke="#BFBFBF"/>
<path d="M15.5 1V14" stroke="#BFBFBF"/>
<path d="M3.5 1V14" stroke="#BFBFBF"/>
<path d="M18 10.5L1 10.5" stroke="#BFBFBF"/>
<path d="M18 4.5L1 4.5" stroke="#BFBFBF"/>
<path d="M0.5 3L1.23205 3.89162C1.43504 4.13885 1.80915 4.15123 2.02803 3.91796V3.91796C2.28648 3.64253 2.74187 3.71818 2.89738 4.06238L4.14805 6.83065C4.43032 7.45543 5.13249 7.7736 5.78835 7.5739L6.23927 7.4366C6.60593 7.32495 7.0001 7.49037 7.17727 7.83024V7.83024C7.42268 8.30102 8.05136 8.40431 8.4345 8.03681L8.62586 7.85326C8.98854 7.50539 9.55369 7.48255 9.94326 7.80003L11.4568 9.03351C11.7244 9.25155 12.1239 9.17592 12.2932 8.87515V8.87515C12.5324 8.45029 13.1635 8.51669 13.3091 8.98203L13.5216 9.66154C13.5483 9.74696 13.5882 9.82772 13.6397 9.90091L14.0861 10.5352C14.2784 10.8085 14.6943 10.7721 14.8363 10.4695V10.4695C14.9782 10.1669 15.3942 10.1306 15.5865 10.4039L16.3687 11.5156C16.8681 12.2255 17.9271 12.2047 18.3982 11.4757L18.5 11.3183" stroke="#0072BD"/>
<rect x="0.5" y="0.5" width="18" height="14" stroke="var(--mw-icon-border-default-gray, #616161)" stroke-linejoin="round"/>

</svg>
