<svg width="20" height="16" viewBox="0 0 20 16" fill="none" xmlns="http://www.w3.org/2000/svg">
<rect x="0.5" y="0.5" width="18" height="14" fill="var(--mw-icon-object-secondary, #FFFFFE)" stroke="var(--mw-icon-border-default-gray, #616161)" stroke-linejoin="round"/>
<path d="M2 5H3V10H2V5Z" fill="var(--mw-icon-object-primary, #616160)"/>
<path d="M3 9H5V10H3V9Z" fill="var(--mw-icon-object-primary, #616160)"/>
<path d="M3 5H5V6H3V5Z" fill="var(--mw-icon-object-primary, #616160)"/>
<path fill-rule="evenodd" clip-rule="evenodd" d="M7 5H6V6H7L7 10H8L8 6H9V5H8H7Z" fill="var(--mw-icon-object-primary, #616160)"/>
<path d="M10 5H11V10H10V5Z" fill="var(--mw-icon-object-primary, #616160)"/>
<path d="M11 9H13V10H11V9Z" fill="var(--mw-icon-object-primary, #616160)"/>
<path fill-rule="evenodd" clip-rule="evenodd" d="M14 5H15H17V6H15V7H16V8H15V9H17V10H15H14V5Z" fill="var(--mw-icon-object-primary, #616160)"/>
</svg>
