<svg width="20" height="16" viewBox="0 0 20 16" fill="none" xmlns="http://www.w3.org/2000/svg">
<rect x="0.5" y="0.547607" width="18" height="14" fill="var(--mw-icon-background-default-white, #FFFFFF)"/>
<rect x="0.5" y="0.5" width="18" height="14" stroke="var(--mw-icon-border-default-gray, #616161)" stroke-linejoin="round"/>
<path d="M3.25 9H15.75C15.8881 9 16 8.88807 16 8.75V6.25C16 6.11193 15.8881 6 15.75 6H3.25C3.11193 6 3 6.11193 3 6.25V8.75C3 8.88807 3.11193 9 3.25 9Z" fill="var(--mw-icon-glyph-content-dark-blue, #104280)"/>
<path d="M11.2104 6H9.15791L7.78949 9H9.842L11.2104 6Z" fill="#E11B14"/>
<path d="M11.2104 9L12.5789 6H11.2104L9.84202 9H11.2104Z" fill="#FF6929"/>
<path d="M7.7895 6L6.42108 9H7.7895L9.15792 6H7.7895Z" fill="#FF6929"/>
<path d="M13.263 6L11.8946 9H11.2104L12.5789 6H13.263Z" fill="#FFD60A"/>
<path d="M5.73663 9L7.10505 6H7.78951L6.42109 9H5.73663Z" fill="#FFD60A"/>
<path d="M13.9472 6L12.5788 9H11.8946L13.263 6H13.9472Z" fill="#ABC739"/>
<path d="M5.05243 9L6.42085 6H7.10502L5.7366 9H5.05243Z" fill="#ABC739"/>
<path d="M13.9472 9L15.3156 6H13.9472L12.5787 9H13.9472Z" fill="#35D2FA"/>
<path d="M5.0525 6L3.68408 9H5.0525L6.42092 6H5.0525Z" fill="#35D2FA"/>
</svg>
