<svg width="20" height="16" viewBox="0 0 20 16" fill="none" xmlns="http://www.w3.org/2000/svg">
<rect x="0.5" y="0.5" width="18" height="14" fill="var(--mw-icon-background-default-white, #FFFFFF)"/>
<rect x="0.5" y="0.5" width="18" height="14" stroke="var(--mw-icon-border-default-gray, #616161)" stroke-linejoin="round"/>
<path d="M12.0499 3.86817C13.9406 5.084 14.5371 7.79642 13.1391 9.97044C11.7411 12.1445 9.07273 12.6539 7.18201 11.4381C5.29128 10.2223 4.20676 7.59755 5.60477 5.42352C7.00279 3.2495 10.1591 2.65233 12.0499 3.86817Z" fill="#F9FB15"/>
<path d="M13.1391 9.97044C14.5371 7.79642 13.9406 5.084 12.0499 3.86817C16.8977 11.6548 5.67626 11.6371 4.97845 7.30114C4.87207 8.94798 5.81688 10.5603 7.18201 11.4381C9.07273 12.6539 11.7411 12.1445 13.1391 9.97044Z" fill="#FFD60A"/>
<path d="M13.1391 9.97044C14.5371 7.79642 13.9406 5.084 12.0499 3.86817C16.8977 11.6548 5.67626 11.6371 4.97845 7.30114C4.87207 8.94798 5.81688 10.5603 7.18201 11.4381C9.07273 12.6539 11.7411 12.1445 13.1391 9.97044Z" fill="#EDB120"/>
<path d="M13.1391 9.97044C14.5371 7.79642 13.9406 5.084 12.0499 3.86817C17.5803 10.9603 6.15887 13.4065 4.97845 7.30114C4.87207 8.94798 5.81688 10.5603 7.18201 11.4381C9.07273 12.6539 11.7411 12.1445 13.1391 9.97044Z" fill="#B3882A"/>
<path d="M13.1391 9.97044C14.5371 7.79642 13.9406 5.084 12.0499 3.86817C18.0113 10.286 6.3905 14.9297 4.97845 7.30114C4.87207 8.94798 5.81688 10.5603 7.18201 11.4381C9.07273 12.6539 11.7411 12.1445 13.1391 9.97044Z" fill="#8B6606"/>
<path d="M13.1391 9.97044C14.5371 7.79642 13.9406 5.084 12.0499 3.86817C18.3789 10.1098 6.03217 15.7457 4.97845 7.30114C4.87207 8.94798 5.81688 10.5603 7.18201 11.4381C9.07273 12.6539 11.7411 12.1445 13.1391 9.97044Z" fill="#745A26"/>
<path d="M10.257 3.94517C10.51 4.43873 9.75467 5.33607 8.56981 5.94943C7.38496 6.56279 6.21931 6.6599 5.96625 6.16633C5.7132 5.67276 6.46857 4.77542 7.65342 4.16206C8.83827 3.54871 10.0039 3.4516 10.257 3.94517Z" fill="#ABC739"/>
<path d="M10.2945 3.92579C10.5533 4.43052 9.78577 5.34558 8.58024 5.96964C7.3747 6.59371 6.18764 6.69045 5.92887 6.18573C5.67009 5.681 6.43759 4.76594 7.64313 4.14187C8.84866 3.51781 10.0357 3.42107 10.2945 3.92579Z" fill="#FEC338"/>
<path d="M9.98463 4.08623C10.2081 4.522 9.55065 5.30934 8.51626 5.8448C7.48188 6.38027 6.46223 6.46108 6.23881 6.02531C6.01539 5.58954 6.6728 4.80219 7.70718 4.26673C8.74156 3.73127 9.76121 3.65045 9.98463 4.08623Z" fill="#37C897"/>
<path d="M9.69634 4.24292C9.88102 4.60314 9.33759 5.25398 8.48254 5.69661C7.62749 6.13924 6.78462 6.20604 6.59993 5.84582C6.41525 5.4856 6.95868 4.83476 7.81373 4.39213C8.66878 3.9495 9.51165 3.8827 9.69634 4.24292Z" fill="#12B1D6"/>
<path d="M9.32046 4.43762C9.46031 4.71039 9.04881 5.20321 8.40136 5.53838C7.7539 5.87354 7.11567 5.92413 6.97582 5.65136C6.83597 5.3786 7.24747 4.88577 7.89492 4.55061C8.54238 4.21544 9.18061 4.16486 9.32046 4.43762Z" fill="#2E87F7"/>
<path d="M8.83198 4.69044C8.91357 4.84956 8.67351 5.13705 8.29581 5.33258C7.91812 5.5281 7.54579 5.55761 7.46421 5.39849C7.38263 5.23937 7.62268 4.95187 8.00038 4.75635C8.37808 4.56083 8.7504 4.53132 8.83198 4.69044Z" fill="#4852F4"/>
<path d="M8.34407 4.94331C8.36747 4.98894 8.29883 5.07127 8.19077 5.12721C8.0827 5.18315 7.97614 5.19151 7.95274 5.14589C7.92935 5.10026 7.99799 5.01792 8.10605 4.96198C8.21411 4.90604 8.32068 4.89768 8.34407 4.94331Z" fill="#3E26A8"/>
</svg>
