<svg width="20" height="16" viewBox="0 0 20 16" fill="none" xmlns="http://www.w3.org/2000/svg">
<path d="M11.5 4.5H19.5V11.5H11.5V4.5Z" fill="#BFBFBF" stroke="var(--mw-icon-border-default-gray, #616161)" stroke-linejoin="round"/>
<path d="M8.5 0.5H10.5V2.5H8.5V0.5Z" fill="var(--mw-icon-background-default-white, white)" stroke="var(--mw-icon-border-default-gray, #616161)" stroke-linejoin="round"/>
<path d="M5.5 13.5H7.5V15.5H5.5V13.5Z" fill="var(--mw-icon-background-default-white, white)" stroke="var(--mw-icon-border-default-gray, #616161)" stroke-linejoin="round"/>
<path d="M2.86652 13.1048C2.86652 13.9454 2.66063 14.4803 2.04299 14.4803C1.47285 14.4803 1.31448 13.5633 0.633484 13.5633C0.332579 13.5633 0 13.7926 0 14.1441C0 14.7096 0.728507 15 1.47285 15C3.34163 15 4.19683 13.7162 4.19683 12.1266V3.23144C4.19683 2.6048 4.19683 1.51965 4.95701 1.51965C5.52715 1.51965 5.68552 2.43668 6.36652 2.43668C6.66742 2.43668 7 2.20742 7 1.8559C7 1.29039 6.27149 1 5.52715 1C3.45249 1 2.86652 2.5131 2.86652 4.33188V13.1048Z" fill="var(--mw-icon-object-primary, #616160)"/>
<circle cx="3.5" cy="8" r="1.5" stroke="var(--mw-icon-object-primary, #616160)"/>

</svg>
