<svg width="20" height="16" viewBox="0 0 20 16" fill="none" xmlns="http://www.w3.org/2000/svg">
<path d="M13.5 4.49976H17.5V10.4998H13.5V4.49976Z" fill="#BFBFBF" stroke="var(--mw-icon-border-default-gray, #616161)" stroke-linejoin="round"/>
<path d="M7.5 9.49976H11.5V14.4998H7.5V9.49976Z" fill="var(--mw-icon-background-default-white, white)" stroke="var(--mw-icon-border-default-gray, #616161)" stroke-linejoin="round"/>
<path d="M9 5.54954V5.41101C8.85345 5.41967 8.84483 5.41967 8.80172 5.41967C8.49138 5.41967 8.42241 5.32443 8.42241 4.92616V0.0170715L8.37931 -0.000244141C7.96552 0.146942 7.66379 0.233522 7.11207 0.380708V0.519237C7.18103 0.510579 7.23276 0.510578 7.30172 0.510578C7.62069 0.510578 7.69828 0.597158 7.69828 0.952137V2.30279C7.37069 2.02573 7.13793 1.93049 6.7931 1.93049C5.80172 1.93049 5 2.90885 5 4.13828C5 5.24651 5.63793 5.99976 6.59483 5.99976C7.07759 5.99976 7.40517 5.8266 7.69828 5.41967V5.97378L7.73276 5.99976L9 5.54954ZM7.69828 5.03006C7.69828 5.09067 7.64655 5.1859 7.56897 5.27248C7.41379 5.4543 7.19828 5.54954 6.93103 5.54954C6.2069 5.54954 5.74138 4.8569 5.74138 3.79196C5.74138 2.81361 6.16379 2.17292 6.81897 2.17292C7.28448 2.17292 7.69828 2.57984 7.69828 3.03872V5.03006Z" fill="var(--mw-icon-object-primary, #616160)"/>
<path d="M6 14.5495V14.411C5.85345 14.4197 5.84483 14.4197 5.80172 14.4197C5.49138 14.4197 5.42241 14.3244 5.42241 13.9262V9.01707L5.37931 8.99976C4.96552 9.14694 4.66379 9.23352 4.11207 9.38071V9.51924C4.18103 9.51058 4.23276 9.51058 4.30172 9.51058C4.62069 9.51058 4.69828 9.59716 4.69828 9.95214V11.3028C4.37069 11.0257 4.13793 10.9305 3.7931 10.9305C2.80172 10.9305 2 11.9088 2 13.1383C2 14.2465 2.63793 14.9998 3.59483 14.9998C4.07759 14.9998 4.40517 14.8266 4.69828 14.4197V14.9738L4.73276 14.9998L6 14.5495ZM4.69828 14.0301C4.69828 14.0907 4.64655 14.1859 4.56897 14.2725C4.41379 14.4543 4.19828 14.5495 3.93103 14.5495C3.2069 14.5495 2.74138 13.8569 2.74138 12.792C2.74138 11.8136 3.16379 11.1729 3.81897 11.1729C4.28448 11.1729 4.69828 11.5798 4.69828 12.0387V14.0301Z" fill="var(--mw-icon-object-primary, #616160)"/>
<path d="M2 7.49976C2 7.22361 2.22386 6.99976 2.5 6.99976H11.5C11.7761 6.99976 12 7.22361 12 7.49976C12 7.7759 11.7761 7.99976 11.5 7.99976H2.5C2.22386 7.99976 2 7.7759 2 7.49976Z" fill="var(--mw-icon-object-primary, #616160)"/>

</svg>
