<svg width="20" height="16" viewBox="0 0 20 16" fill="none" xmlns="http://www.w3.org/2000/svg">
<rect x="0.5" y="0.5" width="18" height="14" fill="var(--mw-icon-object-secondary, #FFFFFE)" stroke="var(--mw-icon-border-default-gray, #616161)" stroke-linejoin="round"/>
<path d="M6 3H7V6H6V3Z" fill="var(--mw-icon-object-primary, #616160)"/>
<path d="M4 2H5V7H4V2Z" fill="var(--mw-icon-object-primary, #616160)"/>
<path d="M5 2H6V3H5V2Z" fill="var(--mw-icon-object-primary, #616160)"/>
<path d="M5 6H6V7H5V6Z" fill="var(--mw-icon-object-primary, #616160)"/>
<path d="M8 2H9V4H10V5H9V7H8V2Z" fill="var(--mw-icon-object-primary, #616160)"/>
<path d="M9 2H11V3H9V2Z" fill="var(--mw-icon-object-primary, #616160)"/>
<path d="M12 2H15V3H13V4H14V5H13V6H15V7H12V2Z" fill="var(--mw-icon-object-primary, #616160)"/>
<path d="M4 8H5V13H4V8Z" fill="var(--mw-icon-object-primary, #616160)"/>
<path d="M5 12H7V13H5V12Z" fill="var(--mw-icon-object-primary, #616160)"/>
<path d="M5 8H7V9H5V8Z" fill="var(--mw-icon-object-primary, #616160)"/>
<path d="M12 8H13V13H12V8Z" fill="var(--mw-icon-object-primary, #616160)"/>
<path d="M13 8H15V9H13V8Z" fill="var(--mw-icon-object-primary, #616160)"/>
<path d="M14 8H15V11H14V8Z" fill="var(--mw-icon-object-primary, #616160)"/>
<path d="M12 10H14V11H12V10Z" fill="var(--mw-icon-object-primary, #616160)"/>
<path d="M14 12H15V13H14V12Z" fill="var(--mw-icon-object-primary, #616160)"/>
<path d="M13 11H14V12H13V11Z" fill="var(--mw-icon-object-primary, #616160)"/>
<path d="M10 9H11V12H10V9Z" fill="var(--mw-icon-object-primary, #616160)"/>
<path d="M8 8H9V13H8V8Z" fill="var(--mw-icon-object-primary, #616160)"/>
<path d="M9 8H10V9H9V8Z" fill="var(--mw-icon-object-primary, #616160)"/>
<path d="M9 12H10V13H9V12Z" fill="var(--mw-icon-object-primary, #616160)"/>
</svg>
