<svg width="20" height="16" viewBox="0 0 20 16" fill="none" xmlns="http://www.w3.org/2000/svg">
<path d="M9.5 1L2.5 5V10.5L9.5 14.5L16.5 10.5V5L9.5 1Z" fill="var(--mw-icon-background-default-white, #FFFFFF)"/>
<path d="M9.50195 6.497L9.50409 1L16.3268 4.93223V10.4116L9.50195 6.497Z" fill="var(--mw-icon-background-default-light-gray, #F5F5F5)"/>
<path d="M9.50195 6.497L9.49981 1L2.67706 4.93724L2.67706 10.4116L9.50195 6.497Z" fill="#E6E6E6"/>
<path d="M16.5038 10.2722V5.06086L9.5019 1.02222L2.5 4.99997" stroke="var(--mw-icon-background-default-dark-gray, #A6A6A6)" stroke-linecap="round" stroke-linejoin="round"/>
<path d="M2.5 5V10.3281L9.5 14.3697L16.5 10.33" stroke="var(--mw-icon-border-default-gray, #616161)" stroke-linecap="round" stroke-linejoin="round"/>
<path d="M13.0052 7.98323L11.5139 7.28873L5.51245 10.6573L6.92434 11.5008L13.0052 7.98323Z" fill="#B3882A"/>
<path d="M11.5139 7.28873V3.91382L13.0053 4.70353V7.98207L11.5139 7.28873Z" fill="#B3882A"/>
<path d="M13.0053 4.70353L11.5139 3.91382L5.51245 7.28863L6.92434 8.13221L13.0053 4.70353Z" fill="#EDB120"/>
<path d="M5.51245 10.6588V7.29L6.92434 8.13221V11.5008L5.51245 10.6588Z" fill="#EDB120"/>
<path d="M11.5139 7.28873L13.0052 7.98323L6.92434 11.5008M11.5139 7.28873L5.51245 10.6573L6.92434 11.5008M11.5139 7.28873V3.91382M11.5139 7.28873L13.0053 7.98207V4.70353M6.92434 11.5008L5.51245 10.6588V7.29L6.92434 8.13221M6.92434 11.5008V8.13221M11.5139 3.91382L13.0053 4.70353M11.5139 3.91382L5.51245 7.28863L6.92434 8.13221M13.0053 4.70353L6.92434 8.13221" stroke="#745A26" stroke-linejoin="round"/>
</svg>
