<svg width="20" height="17" viewBox="0 0 20 17" fill="none" xmlns="http://www.w3.org/2000/svg">
<path d="M9.5 1.5L2.5 5.5V11L9.5 15L16.5 11V5.5L9.5 1.5Z" fill="var(--mw-icon-background-default-white, #FFFFFF)"/>
<path d="M9.50195 6.997L9.50409 1.5L16.3268 5.43223V10.9116L9.50195 6.997Z" fill="var(--mw-icon-background-default-light-gray, #F5F5F5)"/>
<path d="M9.50195 6.997L9.49981 1.5L2.67706 5.43724L2.67706 10.9116L9.50195 6.997Z" fill="#E6E6E6"/>
<path d="M16.5038 10.7722V5.56086L9.5019 1.52222L2.5 5.49997" stroke="var(--mw-icon-background-default-dark-gray, #A6A6A6)" stroke-linecap="round" stroke-linejoin="round"/>
<path d="M2.5 5.5V10.8281L9.5 14.8697L16.5 10.83" stroke="var(--mw-icon-border-default-gray, #616161)" stroke-linecap="round" stroke-linejoin="round"/>
<path d="M13.103 8.48275C12.9634 7.41278 8.42895 6.45355 7.34917 6.74704C5.87723 7.14712 5.1973 8.79074 8.18349 9.29741C11.1697 9.80408 13.1777 9.0551 13.103 8.48275Z" stroke="#4A3A19"/>
<path d="M12.5857 9.10499C11.7342 8.59078 9.71338 7.43123 7.14677 8.82764C3.93852 10.5732 9.49157 13.0484 12.5857 11.2168C15.6799 9.38519 6.63606 10.7598 6.63606 10.7598" stroke="#4A3A19" stroke-linejoin="round"/>
<path d="M11.6466 7.68121L6.23806 4.83208C6.98189 4.31003 9.91522 3.89766 12.3486 4.99241C15.3904 6.36085 10.6332 9.26717 6.23805 7.6811L13.3648 4.70569L11.6466 7.68121Z" stroke="#4A3A19" stroke-linejoin="round"/>
</svg>
