<svg width="20" height="16" viewBox="0 0 20 16" fill="none" xmlns="http://www.w3.org/2000/svg">
<path d="M9.5 1L2.5 5V10.5L9.5 14.5L16.5 10.5V5L9.5 1Z" fill="var(--mw-icon-background-default-white, #FFFFFF)"/>
<path d="M9.50195 6.497L9.50409 1L16.3268 4.93223V10.4116L9.50195 6.497Z" fill="var(--mw-icon-background-default-light-gray, #F5F5F5)"/>
<path d="M9.50195 6.497L9.49981 1L2.67706 4.93724L2.67706 10.4116L9.50195 6.497Z" fill="#E6E6E6"/>
<path d="M16.5038 10.2722V5.06086L9.5019 1.02222L2.5 4.99997" stroke="var(--mw-icon-background-default-dark-gray, #A6A6A6)" stroke-linecap="round" stroke-linejoin="round"/>
<path d="M2.5 5V10.3281L9.5 14.3697L16.5 10.33" stroke="var(--mw-icon-border-default-gray, #616161)" stroke-linecap="round" stroke-linejoin="round"/>
<path d="M9.49901 9.73897L7.18897 11.0952L5.16553 9.95744L7.5116 8.63697V6.12237L9.63568 4.90454L11.5042 5.8829V6.25759L12.2971 5.80944L14.1655 6.92339L11.5042 8.4826L9.49901 7.31153V9.73897Z" fill="#EDB120"/>
<path d="M9.49901 9.73897L7.18897 11.0952L5.16553 9.95744L7.5116 8.63697M9.49901 9.73897V7.14333M9.49901 9.73897L7.5116 8.63697M9.49901 7.14333L11.5042 5.8829M9.49901 7.14333L7.5116 6.12237M9.49901 7.14333V7.31153L11.5042 8.4826M11.5042 5.8829L9.63568 4.90454L7.5116 6.12237M11.5042 5.8829V6.25759M11.5042 8.4826L14.1655 6.92339L12.2971 5.80944L11.5042 6.25759M11.5042 8.4826V6.25759M7.5116 6.12237V8.63697" stroke="#745A26" stroke-linejoin="round"/>
</svg>
