<svg width="20" height="17" viewBox="0 0 20 17" fill="none" xmlns="http://www.w3.org/2000/svg">
<path d="M9.5 1.69214L2.5 5.69214V11.1921L9.5 15.1921L16.5 11.1921V5.69214L9.5 1.69214Z" fill="var(--mw-icon-background-default-white, #FFFFFF)"/>
<path d="M9.50195 7.18914L9.50409 1.69214L16.3268 5.62437V11.1038L9.50195 7.18914Z" fill="var(--mw-icon-background-default-light-gray, #F5F5F5)"/>
<path d="M9.50195 7.18914L9.49981 1.69214L2.67706 5.62938L2.67706 11.1038L9.50195 7.18914Z" fill="#E6E6E6"/>
<path d="M16.5038 10.9644V5.753L9.5019 1.71436L2.5 5.69211" stroke="var(--mw-icon-background-default-dark-gray, #A6A6A6)" stroke-linecap="round" stroke-linejoin="round"/>
<path d="M2.5 5.69214V11.0203L9.5 15.0619L16.5 11.0221" stroke="var(--mw-icon-border-default-gray, #616161)" stroke-linecap="round" stroke-linejoin="round"/>
<path d="M8.17153 4L7 4.66792L9.40307 12L10.5515 10.974L8.17153 4Z" fill="#EDB120" stroke="#745A26" stroke-linejoin="round"/>
<path d="M13.4512 7.05371L12.2797 7.72163L9.40308 12L10.5515 10.974L13.4512 7.05371Z" fill="#B3882A" stroke="#745A26" stroke-linejoin="round"/>
</svg>
