<svg width="20" height="16" viewBox="0 0 20 16" fill="none" xmlns="http://www.w3.org/2000/svg">
<path d="M9.5 1L2.5 5V10.5L9.5 14.5L16.5 10.5V5L9.5 1Z" fill="var(--mw-icon-background-default-white, #FFFFFF)"/>
<path d="M9.50195 6.497L9.50409 1L16.3268 4.93223V10.4116L9.50195 6.497Z" fill="var(--mw-icon-background-default-light-gray, #F5F5F5)"/>
<path d="M9.50195 6.497L9.49981 1L2.67706 4.93724L2.67706 10.4116L9.50195 6.497Z" fill="#E6E6E6"/>
<path d="M16.5038 10.2722V5.06086L9.5019 1.02222L2.5 4.99997" stroke="var(--mw-icon-background-default-dark-gray, #A6A6A6)" stroke-linecap="round" stroke-linejoin="round"/>
<path d="M2.5 5V10.3281L9.5 14.3697L16.5 10.33" stroke="var(--mw-icon-border-default-gray, #616161)" stroke-linecap="round" stroke-linejoin="round"/>
<path d="M9.5232 7.41691L7.5 6.91333V11.2556L9.5232 12.5V7.41691Z" fill="#EDB120" stroke="#745A26" stroke-linejoin="round"/>
<path fill-rule="evenodd" clip-rule="evenodd" d="M10 10.043C12.2091 10.043 14 9.1412 14 8.02872C14 6.91625 12.2091 6.0144 10 6.0144C7.79086 6.0144 6 6.91625 6 8.02872C6 9.1412 7.79086 10.043 10 10.043ZM10 8.7234C10.9665 8.7234 11.75 8.38521 11.75 7.96803C11.75 7.55085 10.9665 7.21266 10 7.21266C9.0335 7.21266 8.25 7.55085 8.25 7.96803C8.25 8.38521 9.0335 8.7234 10 8.7234Z" fill="#EDB120"/>
<path d="M13.5 8.02872C13.5 8.29542 13.2729 8.6694 12.6035 9.00649C11.9631 9.32903 11.0433 9.54304 10 9.54304V10.543C11.1659 10.543 12.2461 10.3061 13.0533 9.89963C13.8316 9.50769 14.5 8.8745 14.5 8.02872H13.5ZM10 6.5144C11.0433 6.5144 11.9631 6.72842 12.6035 7.05096C13.2729 7.38805 13.5 7.76202 13.5 8.02872H14.5C14.5 7.18295 13.8316 6.54976 13.0533 6.15781C12.2461 5.75131 11.1659 5.5144 10 5.5144V6.5144ZM6.5 8.02872C6.5 7.76202 6.72707 7.38805 7.39646 7.05096C8.03694 6.72842 8.95672 6.5144 10 6.5144V5.5144C8.83414 5.5144 7.75392 5.75131 6.94669 6.15781C6.16836 6.54976 5.5 7.18295 5.5 8.02872H6.5ZM10 9.54304C8.95672 9.54304 8.03694 9.32903 7.39646 9.00649C6.72707 8.6694 6.5 8.29542 6.5 8.02872H5.5C5.5 8.8745 6.16836 9.50769 6.94669 9.89963C7.75392 10.3061 8.83414 10.543 10 10.543V9.54304ZM11.25 7.96803C11.25 7.90451 11.2819 7.88497 11.2554 7.9121C11.2266 7.94148 11.1604 7.99084 11.0393 8.04309C10.7988 8.14688 10.4317 8.2234 10 8.2234V9.2234C10.5347 9.2234 11.0427 9.13081 11.4356 8.96121C11.6312 8.87678 11.8213 8.76337 11.9696 8.612C12.1201 8.45838 12.25 8.24013 12.25 7.96803H11.25ZM10 7.71266C10.4317 7.71266 10.7988 7.78917 11.0393 7.89296C11.1604 7.94522 11.2266 7.99458 11.2554 8.02395C11.2819 8.05108 11.25 8.03154 11.25 7.96803H12.25C12.25 7.69592 12.1201 7.47767 11.9696 7.32406C11.8213 7.17269 11.6312 7.05928 11.4356 6.97484C11.0427 6.80524 10.5347 6.71266 10 6.71266V7.71266ZM8.75 7.96803C8.75 8.03154 8.71806 8.05108 8.74465 8.02395C8.77343 7.99458 8.83965 7.94522 8.96071 7.89296C9.20117 7.78917 9.56825 7.71266 10 7.71266V6.71266C9.46525 6.71266 8.95733 6.80524 8.56441 6.97484C8.36879 7.05928 8.17873 7.17269 8.0304 7.32406C7.87988 7.47767 7.75 7.69592 7.75 7.96803H8.75ZM10 8.2234C9.56825 8.2234 9.20117 8.14688 8.96071 8.04309C8.83965 7.99084 8.77343 7.94148 8.74465 7.9121C8.71806 7.88497 8.75 7.90451 8.75 7.96803H7.75C7.75 8.24013 7.87988 8.45838 8.0304 8.612C8.17873 8.76337 8.36879 8.87678 8.56441 8.96121C8.95733 9.13081 9.46525 9.2234 10 9.2234V8.2234Z" fill="#745A26"/>
<path d="M9.5 4.52236L7.5 3.36597V6.13031L9.5 7.47307V4.52236Z" fill="#EDB120" stroke="#745A26" stroke-linejoin="round"/>
</svg>
