<svg width="21" height="17" viewBox="0 0 21 17" fill="none" xmlns="http://www.w3.org/2000/svg">
<path d="M10.4761 1.54761L3.47607 5.54761V11.0476L10.4761 15.0476L17.4761 11.0476V5.54761L10.4761 1.54761Z" fill="var(--mw-icon-background-default-white, #FFFFFF)"/>
<path d="M10.478 7.04461L10.4802 1.54761L17.3029 5.47984V10.9592L10.478 7.04461Z" fill="var(--mw-icon-background-default-light-gray, #F5F5F5)"/>
<path d="M10.478 7.04461L10.4759 1.54761L3.65313 5.48485L3.65313 10.9592L10.478 7.04461Z" fill="#E6E6E6"/>
<path d="M17.4799 10.8198V5.60847L10.478 1.56982L3.47607 5.54758" stroke="var(--mw-icon-background-default-dark-gray, #A6A6A6)" stroke-linecap="round" stroke-linejoin="round"/>
<path d="M3.47607 5.54761V10.8757L10.4761 14.9173L17.4761 10.8776" stroke="var(--mw-icon-border-default-gray, #616161)" stroke-linecap="round" stroke-linejoin="round"/>
<path d="M7.5 4.63238L9.5 3.5V9.63238L11.5 10.6874V8.65607L13.5 7.78024V9.63238V11.6324L11.5 12.817L7.5 10.5499V4.63238Z" fill="#EDB120"/>
<path d="M9.5 9.63238V3.5L7.5 4.63238V10.5499M9.5 9.63238L11.5 10.6874M9.5 9.63238L7.5 10.5499M11.5 10.6874V8.65607L13.5 7.78024V9.63238V11.6324L11.5 12.817M11.5 10.6874V12.817M7.5 10.5499L11.5 12.817" stroke="#745A26" stroke-linejoin="round"/>
</svg>
