<svg width="20" height="16" viewBox="0 0 20 16" fill="none" xmlns="http://www.w3.org/2000/svg">
<path d="M10.5 5.5C9.5 4 8.02166 3.5 6.49999 3.5C4.97832 3.5 3.5 4 2.5 5.5" stroke="var(--mw-icon-background-default-dark-gray, #A6A6A6)" stroke-linecap="round"/>
<path d="M11 12.4687C11.9335 11.411 12.5 10.0217 12.5 8.5C12.5 5.18629 9.81371 2.5 6.5 2.5C3.18629 2.5 0.5 5.18629 0.5 8.5C0.5 10.0217 1.06645 11.411 2 12.4687" stroke="var(--mw-icon-glyph-content-gray, #616162)" stroke-linecap="round"/>
<path d="M12 11.4C12 11.1791 11.8209 11 11.6 11H11.2C11.0895 11 11 11.0895 11 11.2V14.8C11 14.9105 11.0895 15 11.2 15H11.6C11.8209 15 12 14.8209 12 14.6V11.4Z" fill="var(--mw-icon-glyph-content-gray, #616162)"/>
<path d="M1 11.4C1 11.1791 1.17909 11 1.4 11H1.8C1.91046 11 2 11.0895 2 11.2V14.8C2 14.9105 1.91046 15 1.8 15H1.4C1.17909 15 1 14.8209 1 14.6V11.4Z" fill="var(--mw-icon-glyph-content-gray, #616162)"/>
<path d="M11 10.4C11 10.1791 10.8209 10 10.6 10H8.8C8.35817 10 8 10.3582 8 10.8V15.2C8 15.6418 8.35817 16 8.8 16H10.6C10.8209 16 11 15.8209 11 15.6V10.4Z" fill="var(--mw-icon-background-default-dark-gray, #A6A6A6)"/>
<path d="M2 10.4C2 10.1791 2.17909 10 2.4 10H4.2C4.64183 10 5 10.3582 5 10.8V15.2C5 15.6418 4.64183 16 4.2 16H2.4C2.17909 16 2 15.8209 2 15.6V10.4Z" fill="var(--mw-icon-background-default-dark-gray, #A6A6A6)"/>
<path d="M11.5 0.9C11.5 0.679086 11.6791 0.5 11.9 0.5H19.1C19.3209 0.5 19.5 0.679086 19.5 0.9V8.1C19.5 8.32091 19.3209 8.5 19.1 8.5H11.9C11.6791 8.5 11.5 8.32091 11.5 8.1V0.9Z" fill="var(--mw-icon-background-default-white, #FFFFFF)" stroke="var(--mw-icon-border-default-blue, #1656A7)"/>
<path d="M14 2.83614C14 2.73837 14.0707 2.65493 14.1671 2.63886L17.7671 2.0389C17.889 2.01859 18 2.1126 18 2.23618V6.00001C18 5.99999 18 6.00004 18 6.00001C18 6.5523 17.5523 7.00008 17 7.00008C16.4477 7.00008 16 6.55237 16 6.00008C16 5.4478 16.4477 5.00008 17 5.00008V3.50013L15 3.83344V6.00001C15 6.5523 14.5523 7.00008 14 7.00008C13.4477 7.00008 13 6.55237 13 6.00008C13 5.4478 13.4477 5.00008 14 5.00008V2.83614Z" fill="var(--mw-icon-glyph-content-blue, #1656A8)"/>
</svg>
