<svg width="20" height="17" viewBox="0 0 20 17" fill="none" xmlns="http://www.w3.org/2000/svg">
<path d="M9.5 1.5L2.5 5.5V11L9.5 15L16.5 11V5.5L9.5 1.5Z" fill="var(--mw-icon-background-default-white, #FFFFFF)"/>
<path d="M9.50195 6.997L9.50409 1.5L16.3268 5.43223V10.9116L9.50195 6.997Z" fill="var(--mw-icon-background-default-light-gray, #F5F5F5)"/>
<path d="M9.50195 6.997L9.49981 1.5L2.67706 5.43724L2.67706 10.9116L9.50195 6.997Z" fill="#E6E6E6"/>
<path d="M16.5038 10.7722V5.56086L9.5019 1.52222L2.5 5.49997" stroke="var(--mw-icon-background-default-dark-gray, #A6A6A6)" stroke-linecap="round" stroke-linejoin="round"/>
<path d="M2.5 5.5V10.8281L9.5 14.8697L16.5 10.83" stroke="var(--mw-icon-border-default-gray, #616161)" stroke-linecap="round" stroke-linejoin="round"/>
<path d="M6.01036 10.353L9.50244 6.61169L12.9859 10.353C13.1445 11.1013 11.9611 11.919 9.50244 11.9967C7.53553 12.0588 5.85184 11.2509 6.01036 10.353Z" fill="#EDB120" stroke="#745A26" stroke-linejoin="round"/>
<path d="M11.6999 5.43163C12.9149 6.00714 12.9149 6.94022 11.6999 7.51572C10.485 8.09123 8.5151 8.09123 7.30014 7.51572C6.08517 6.94022 6.08517 6.00714 7.30014 5.43163C8.5151 4.85612 10.485 4.85612 11.6999 5.43163Z" fill="#EDB120" stroke="#745A26"/>
</svg>
