<svg width="21" height="16" viewBox="0 0 21 16" fill="none" xmlns="http://www.w3.org/2000/svg">
<path d="M10 1L3 5V10.5L10 14.5L17 10.5V5L10 1Z" fill="var(--mw-icon-background-default-white, #FFFFFF)"/>
<path d="M10.002 6.497L10.0041 1L16.8268 4.93223V10.4116L10.002 6.497Z" fill="var(--mw-icon-background-default-light-gray, #F5F5F5)"/>
<path d="M10.002 6.497L9.99981 1L3.17706 4.93724L3.17706 10.4116L10.002 6.497Z" fill="#E6E6E6"/>
<path d="M17.0038 10.2722V5.06086L10.0019 1.02222L3 4.99997" stroke="var(--mw-icon-background-default-dark-gray, #A6A6A6)" stroke-linecap="round" stroke-linejoin="round"/>
<path d="M3 5V10.3281L10 14.3697L17 10.33" stroke="var(--mw-icon-border-default-gray, #616161)" stroke-linecap="round" stroke-linejoin="round"/>
<path d="M4.5 8.75L10 5.5L15.5 8.75L10 12L4.5 8.75Z" fill="#EDB120" stroke="#745A26" stroke-linejoin="round"/>
<path d="M9.01123 9.66021L7.01318 8.50019V4.92078L9.97364 3.21558L12.0112 4.36637V7.95724L9.01123 9.66021Z" fill="var(--mw-icon-border-default-green, #008013)"/>
<path d="M9.01123 6.14861V9.66021M9.01123 6.14861L7.01318 4.92078M9.01123 6.14861L12.0112 4.36637M9.01123 9.66021L7.01318 8.50019V4.92078M9.01123 9.66021L12.0112 7.95724V4.36637M7.01318 4.92078L9.97364 3.21558L12.0112 4.36637" stroke="var(--mw-icon-glyph-content-dark-green, #02580E)" stroke-linejoin="round"/>
</svg>
