<svg width="20" height="16" viewBox="0 0 20 16" fill="none" xmlns="http://www.w3.org/2000/svg">
<path d="M15.5005 3.5C15.5005 4.05228 15.0528 4.5 14.5005 4.5C13.9482 4.5 13.5005 4.05228 13.5005 3.5C13.5005 2.94772 13.9482 2.5 14.5005 2.5C15.0528 2.5 15.5005 2.94772 15.5005 3.5Z" stroke="var(--mw-icon-object-primary, #616160)"/>
<path d="M15.5005 11.5C15.5005 12.0523 15.0528 12.5 14.5005 12.5C13.9482 12.5 13.5005 12.0523 13.5005 11.5C13.5005 10.9477 13.9482 10.5 14.5005 10.5C15.0528 10.5 15.5005 10.9477 15.5005 11.5Z" stroke="var(--mw-icon-object-primary, #616160)"/>
<path d="M5.50049 11.5C5.50049 12.0523 5.05277 12.5 4.50049 12.5C3.9482 12.5 3.50049 12.0523 3.50049 11.5C3.50049 10.9477 3.9482 10.5 4.50049 10.5C5.05277 10.5 5.50049 10.9477 5.50049 11.5Z" stroke="var(--mw-icon-object-primary, #616160)"/>
<path d="M5.50049 3.5C5.50049 4.05228 5.05277 4.5 4.50049 4.5C3.9482 4.5 3.50049 4.05228 3.50049 3.5C3.50049 2.94772 3.9482 2.5 4.50049 2.5C5.05277 2.5 5.50049 2.94772 5.50049 3.5Z" stroke="var(--mw-icon-object-primary, #616160)"/>
<path d="M10.5005 10.5L13.5005 11.5M11.5005 8.5L14.0005 10.5M7.50049 8.5L5.00049 10.5M8.50049 10.5L5.50049 11.5M14.0005 4.5L11.5005 6.5M7.50049 6.5L5.00049 4.5M13.5005 3.5L10.5005 4.5M8.50049 4.5L5.50049 3.5" stroke="var(--mw-icon-object-primary, #616160)" stroke-linecap="round" stroke-linejoin="bevel"/>
<path d="M12.1297 2.58616L13.1594 3.27264C13.3578 3.40485 13.6218 3.3787 13.7903 3.21017L14.2107 2.78986C14.3792 2.62133 14.4053 2.35727 14.2731 2.15895L13.5866 1.12923C13.5305 1.04507 13.4502 0.979903 13.3563 0.942338L12.0837 0.433302C11.6756 0.27004 11.2705 0.67508 11.4338 1.08324L11.9428 2.35583C11.9804 2.44974 12.0456 2.53005 12.1297 2.58616Z" fill="var(--mw-icon-object-primary, #616160)"/>
<path d="M16.8713 4.41387L15.8416 3.72739C15.6432 3.59518 15.3792 3.62133 15.2107 3.78986L14.7903 4.21017C14.6218 4.3787 14.5957 4.64276 14.7279 4.84107L15.4144 5.8708C15.4705 5.95496 15.5508 6.02012 15.6447 6.05769L16.9173 6.56672C17.3254 6.72999 17.7305 6.32495 17.5672 5.91679L17.0582 4.6442C17.0206 4.55029 16.9554 4.46998 16.8713 4.41387Z" fill="var(--mw-icon-object-primary, #616160)"/>
<path d="M2.12971 10.5862L3.15944 11.2726C3.35775 11.4048 3.62181 11.3787 3.79035 11.2102L4.21066 10.7899C4.37919 10.6213 4.40534 10.3573 4.27313 10.159L3.58664 9.12923C3.53054 9.04507 3.45023 8.9799 3.35631 8.94234L2.08372 8.4333C1.67557 8.27004 1.27053 8.67508 1.43379 9.08324L1.94283 10.3558C1.98039 10.4497 2.04556 10.53 2.12971 10.5862Z" fill="var(--mw-icon-object-primary, #616160)"/>
<path d="M6.87129 12.4139L5.84156 11.7274C5.64325 11.5952 5.37919 11.6213 5.21066 11.7899L4.79035 12.2102C4.62181 12.3787 4.59567 12.6428 4.72787 12.8411L5.41436 13.8708C5.47047 13.955 5.55078 14.0201 5.64469 14.0577L6.91728 14.5667C7.32543 14.73 7.73047 14.3249 7.56721 13.9168L7.05818 12.6442C7.02061 12.5503 6.95545 12.47 6.87129 12.4139Z" fill="var(--mw-icon-object-primary, #616160)"/>
<path d="M3.58664 5.8708L4.27313 4.84107C4.40534 4.64276 4.37919 4.3787 4.21066 4.21017L3.79035 3.78986C3.62181 3.62133 3.35775 3.59518 3.15944 3.72739L2.12971 4.41387C2.04556 4.46998 1.98039 4.55029 1.94283 4.6442L1.43379 5.91679C1.27053 6.32495 1.67557 6.72999 2.08372 6.56672L3.35631 6.05769C3.45023 6.02012 3.53054 5.95496 3.58664 5.8708Z" fill="var(--mw-icon-object-primary, #616160)"/>
<path d="M13.5866 13.8708L14.2731 12.8411C14.4053 12.6428 14.3792 12.3787 14.2107 12.2102L13.7903 11.7899C13.6218 11.6213 13.3578 11.5952 13.1594 11.7274L12.1297 12.4139C12.0456 12.47 11.9804 12.5503 11.9428 12.6442L11.4338 13.9168C11.2705 14.3249 11.6756 14.73 12.0837 14.5667L13.3563 14.0577C13.4502 14.0201 13.5305 13.955 13.5866 13.8708Z" fill="var(--mw-icon-object-primary, #616160)"/>
<path d="M15.4144 9.12923L14.7279 10.159C14.5957 10.3573 14.6218 10.6213 14.7903 10.7899L15.2107 11.2102C15.3792 11.3787 15.6432 11.4048 15.8416 11.2726L16.8713 10.5862C16.9554 10.53 17.0206 10.4497 17.0582 10.3558L17.5672 9.08324C17.7305 8.67508 17.3254 8.27004 16.9173 8.4333L15.6447 8.94234C15.5508 8.9799 15.4705 9.04507 15.4144 9.12923Z" fill="var(--mw-icon-object-primary, #616160)"/>
<path d="M5.41436 1.12923L4.72787 2.15895C4.59567 2.35727 4.62181 2.62133 4.79035 2.78986L5.21066 3.21017C5.37919 3.3787 5.64325 3.40485 5.84156 3.27264L6.87129 2.58616C6.95545 2.53005 7.02061 2.44974 7.05818 2.35583L7.56721 1.08324C7.73047 0.67508 7.32543 0.27004 6.91728 0.433302L5.64469 0.942338C5.55078 0.979903 5.47047 1.04507 5.41436 1.12923Z" fill="var(--mw-icon-object-primary, #616160)"/>
<path d="M7.50049 5.5C7.50049 4.94772 7.9482 4.5 8.50049 4.5H10.5005C11.0528 4.5 11.5005 4.94772 11.5005 5.5V10.5H7.50049V5.5Z" fill="var(--mw-icon-glyph-content-dark-gray, #333333)" stroke="var(--mw-icon-object-primary, #616160)"/>
<path d="M9.00049 9H10.0005V10H9.00049V9Z" fill="var(--mw-icon-object-primary, #616160)"/>
</svg>
