<svg width="20" height="16" viewBox="0 0 20 16" fill="none" xmlns="http://www.w3.org/2000/svg">
<path d="M15.5006 3.5C15.5006 4.05228 15.0529 4.5 14.5006 4.5C13.9483 4.5 13.5006 4.05228 13.5006 3.5C13.5006 2.94772 13.9483 2.5 14.5006 2.5C15.0529 2.5 15.5006 2.94772 15.5006 3.5Z" stroke="var(--mw-icon-object-primary, #616160)"/>
<path d="M15.5006 3.5C15.5006 4.05228 15.0529 4.5 14.5006 4.5C13.9483 4.5 13.5006 4.05228 13.5006 3.5C13.5006 2.94772 13.9483 2.5 14.5006 2.5C15.0529 2.5 15.5006 2.94772 15.5006 3.5Z" stroke="var(--mw-icon-object-primary, #616160)"/>
<path d="M15.5006 11.5C15.5006 12.0523 15.0529 12.5 14.5006 12.5C13.9483 12.5 13.5006 12.0523 13.5006 11.5C13.5006 10.9477 13.9483 10.5 14.5006 10.5C15.0529 10.5 15.5006 10.9477 15.5006 11.5Z" stroke="var(--mw-icon-object-primary, #616160)"/>
<path d="M5.50061 11.5C5.50061 12.0523 5.0529 12.5 4.50061 12.5C3.94833 12.5 3.50061 12.0523 3.50061 11.5C3.50061 10.9477 3.94833 10.5 4.50061 10.5C5.0529 10.5 5.50061 10.9477 5.50061 11.5Z" stroke="var(--mw-icon-object-primary, #616160)"/>
<path d="M5.50061 3.5C5.50061 4.05228 5.0529 4.5 4.50061 4.5C3.94833 4.5 3.50061 4.05228 3.50061 3.5C3.50061 2.94772 3.94833 2.5 4.50061 2.5C5.0529 2.5 5.50061 2.94772 5.50061 3.5Z" stroke="var(--mw-icon-object-primary, #616160)"/>
<path d="M10.5006 10.5L13.5006 11.5M11.5006 8.5L14.0006 10.5M7.50061 8.5L5.00061 10.5M8.50061 10.5L5.50061 11.5M14.0006 4.5L11.5006 6.5M7.50061 6.5L5.00061 4.5M13.5006 3.5L10.5006 4.5M8.50061 4.5L5.50061 3.5" stroke="var(--mw-icon-object-primary, #616160)" stroke-linecap="round" stroke-linejoin="bevel"/>
<path d="M12.1298 2.58616L13.1596 3.27264C13.3579 3.40485 13.6219 3.3787 13.7905 3.21017L14.2108 2.78986C14.3793 2.62133 14.4055 2.35727 14.2733 2.15895L13.5868 1.12923C13.5307 1.04507 13.4503 0.979903 13.3564 0.942338L12.0838 0.433302C11.6757 0.27004 11.2707 0.67508 11.4339 1.08324L11.9429 2.35583C11.9805 2.44974 12.0457 2.53005 12.1298 2.58616Z" fill="var(--mw-icon-object-primary, #616160)"/>
<path d="M16.8714 4.41387L15.8417 3.72739C15.6434 3.59518 15.3793 3.62133 15.2108 3.78986L14.7905 4.21017C14.6219 4.3787 14.5958 4.64276 14.728 4.84107L15.4145 5.8708C15.4706 5.95496 15.5509 6.02012 15.6448 6.05769L16.9174 6.56672C17.3256 6.72999 17.7306 6.32495 17.5673 5.91679L17.0583 4.6442C17.0207 4.55029 16.9556 4.46998 16.8714 4.41387Z" fill="var(--mw-icon-object-primary, #616160)"/>
<path d="M2.12984 10.5862L3.15956 11.2726C3.35788 11.4048 3.62194 11.3787 3.79047 11.2102L4.21078 10.7899C4.37931 10.6213 4.40546 10.3573 4.27325 10.159L3.58677 9.12923C3.53066 9.04507 3.45035 8.9799 3.35644 8.94234L2.08385 8.4333C1.67569 8.27004 1.27065 8.67508 1.43391 9.08324L1.94295 10.3558C1.98051 10.4497 2.04568 10.53 2.12984 10.5862Z" fill="var(--mw-icon-object-primary, #616160)"/>
<path d="M6.87141 12.4139L5.84168 11.7274C5.64337 11.5952 5.37931 11.6213 5.21078 11.7899L4.79047 12.2102C4.62194 12.3787 4.59579 12.6428 4.728 12.8411L5.41448 13.8708C5.47059 13.955 5.5509 14.0201 5.64481 14.0577L6.9174 14.5667C7.32556 14.73 7.7306 14.3249 7.56733 13.9168L7.0583 12.6442C7.02073 12.5503 6.95557 12.47 6.87141 12.4139Z" fill="var(--mw-icon-object-primary, #616160)"/>
<path d="M3.58677 5.8708L4.27325 4.84107C4.40546 4.64276 4.37931 4.3787 4.21078 4.21017L3.79047 3.78986C3.62194 3.62133 3.35788 3.59518 3.15956 3.72739L2.12984 4.41387C2.04568 4.46998 1.98051 4.55029 1.94295 4.6442L1.43391 5.91679C1.27065 6.32495 1.67569 6.72999 2.08385 6.56672L3.35644 6.05769C3.45035 6.02012 3.53066 5.95496 3.58677 5.8708Z" fill="var(--mw-icon-object-primary, #616160)"/>
<path d="M13.5868 13.8708L14.2733 12.8411C14.4055 12.6428 14.3793 12.3787 14.2108 12.2102L13.7905 11.7899C13.6219 11.6213 13.3579 11.5952 13.1596 11.7274L12.1298 12.4139C12.0457 12.47 11.9805 12.5503 11.9429 12.6442L11.4339 13.9168C11.2706 14.3249 11.6757 14.73 12.0838 14.5667L13.3564 14.0577C13.4503 14.0201 13.5307 13.955 13.5868 13.8708Z" fill="var(--mw-icon-object-primary, #616160)"/>
<path d="M15.4145 9.12923L14.728 10.159C14.5958 10.3573 14.6219 10.6213 14.7905 10.7899L15.2108 11.2102C15.3793 11.3787 15.6434 11.4048 15.8417 11.2726L16.8714 10.5862C16.9556 10.53 17.0207 10.4497 17.0583 10.3558L17.5673 9.08324C17.7306 8.67508 17.3256 8.27004 16.9174 8.4333L15.6448 8.94234C15.5509 8.9799 15.4706 9.04507 15.4145 9.12923Z" fill="var(--mw-icon-object-primary, #616160)"/>
<path d="M5.41448 1.12923L4.728 2.15895C4.59579 2.35727 4.62194 2.62133 4.79047 2.78986L5.21078 3.21017C5.37931 3.3787 5.64337 3.40485 5.84168 3.27264L6.87141 2.58616C6.95557 2.53005 7.02073 2.44974 7.0583 2.35583L7.56733 1.08324C7.7306 0.67508 7.32556 0.27004 6.9174 0.433302L5.64481 0.942338C5.5509 0.979903 5.47059 1.04507 5.41448 1.12923Z" fill="var(--mw-icon-object-primary, #616160)"/>
<path d="M7.50061 5.5C7.50061 4.94772 7.94833 4.5 8.50061 4.5H10.5006C11.0529 4.5 11.5006 4.94772 11.5006 5.5V10.5H7.50061V5.5Z" fill="var(--mw-icon-background-default-medium-gray, #D9D9D9)" stroke="var(--mw-icon-object-primary, #616160)"/>
<path d="M9.00061 9H10.0006V10H9.00061V9Z" fill="var(--mw-icon-object-primary, #616160)"/>
</svg>
