<svg width="20" height="16" viewBox="0 0 20 16" fill="none" xmlns="http://www.w3.org/2000/svg">
<rect x="0.5" y="0.5" width="18" height="14" fill="var(--mw-icon-background-default-white, white)"/>
<path d="M16.5 1H17V0H16.5V1ZM4 14H3.5V15H4V14ZM16.5 0C15.5758 0 14.462 0.554437 13.4841 1.40632C12.4886 2.27346 11.5608 3.50992 11.0291 4.9985L11.9709 5.33484C12.4392 4.02342 13.2614 2.92654 14.1409 2.16035C15.038 1.3789 15.9242 1 16.5 1V0ZM11.0291 4.9985C10.7555 5.7646 10.656 6.77131 10.5351 7.74461C10.41 8.75126 10.259 9.77659 9.90732 10.7065C9.55976 11.6256 9.02275 12.4328 8.13192 13.0174C7.23623 13.6052 5.93395 14 4 14V15C6.06605 15 7.57627 14.5781 8.68058 13.8534C9.78975 13.1255 10.4402 12.1244 10.8427 11.0602C11.241 10.0067 11.4025 8.87374 11.5274 7.86789C11.6565 6.82869 11.7445 5.96873 11.9709 5.33484L11.0291 4.9985Z" fill="#0072BD"/>
<rect x="0.5" y="0.5" width="18" height="14" stroke="var(--mw-icon-border-default-gray, #616161)" stroke-linejoin="round"/>

</svg>
