<svg width="20" height="16" viewBox="0 0 20 16" fill="none" xmlns="http://www.w3.org/2000/svg">
<rect x="0.5" y="0.5" width="18" height="14" fill="var(--mw-icon-background-default-white, #FFFFFF)"/>
<path d="M0.5 11.5L4.5 3.5L9.5 14.5L14.5 3.5L18.5 10.5" stroke="#0072BD" stroke-miterlimit="10" stroke-linejoin="round"/>
<path d="M6.5 3.5L5 3.5L2.5 3.5" stroke="#0072BD" stroke-linecap="round"/>
<path d="M6.5 4.5L6.5 2.5" stroke="#0072BD" stroke-linecap="square"/>
<path d="M2.5 4.5L2.5 2.5" stroke="#0072BD" stroke-linecap="square"/>
<path d="M8 7.5L6.5 7.5L5 7.5" stroke="#0072BD" stroke-linecap="round"/>
<path d="M8.5 8.5V6.5" stroke="#0072BD" stroke-linecap="square"/>
<path d="M4.5 8.5L4.5 6.5" stroke="#0072BD" stroke-linecap="square"/>
<path d="M13.5 10.5L13 10.5L10 10.5" stroke="#0072BD" stroke-linecap="round"/>
<path d="M9.5 11.5L9.5 9.50001" stroke="#0072BD" stroke-linecap="square"/>
<path d="M13.5 11.5L13.5 9.50001" stroke="#0072BD" stroke-linecap="square"/>
<path d="M16.5 3.5L16 3.5L13 3.5" stroke="#0072BD" stroke-linecap="round"/>
<path d="M12.5 4.5L12.5 2.50001" stroke="#0072BD" stroke-linecap="square"/>
<path d="M16.5 4.5L16.5 2.50001" stroke="#0072BD" stroke-linecap="square"/>
<rect x="0.5" y="0.5" width="18" height="14" stroke="var(--mw-icon-border-default-gray, #616161)" stroke-linejoin="round"/>
</svg>
