<svg width="20" height="16" viewBox="0 0 20 16" fill="none" xmlns="http://www.w3.org/2000/svg">
<rect x="0.5" y="0.5" width="18" height="14" fill="var(--mw-icon-background-default-white, #FFFFFF)"/>
<path d="M15.5 6.5L15.5 12.5" stroke="#0072BD" stroke-linecap="round"/>
<path d="M16.5 6.5L14.5 6.5" stroke="#0072BD" stroke-linecap="square"/>
<path d="M16.5 12.5L14.5 12.5" stroke="#0072BD" stroke-linecap="square"/>
<path d="M9.5 2.5L9.5 8.5" stroke="#0072BD" stroke-linecap="round"/>
<path d="M10.5 2.5L8.5 2.5" stroke="#0072BD" stroke-linecap="square"/>
<path d="M10.5 8.5L8.5 8.5" stroke="#0072BD" stroke-linecap="square"/>
<path d="M3.5 3.5L3.5 9.5" stroke="#0072BD" stroke-linecap="round"/>
<path d="M4.5 3.5L2.5 3.5" stroke="#0072BD" stroke-linecap="square"/>
<path d="M4.5 9.5L2.5 9.5" stroke="#0072BD" stroke-linecap="square"/>
<path d="M0.48584 8.86627C0.48584 8.86627 4.08178 5.57944 8.99999 5.5C12.7777 5.5 18.3917 12.3473 18.3917 12.3473" stroke="#0072BD" stroke-miterlimit="10"/>
<rect x="0.5" y="0.5" width="18" height="14" stroke="var(--mw-icon-border-default-gray, #616161)" stroke-linejoin="round"/>
</svg>
