<svg width="20" height="16" viewBox="0 0 20 16" fill="none" xmlns="http://www.w3.org/2000/svg">
<path d="M13 1.5H6C5.72386 1.5 5.5 1.72386 5.5 2V3C5.5 3.27614 5.72386 3.5 6 3.5H7.5V4.77646C7.5 4.92367 7.4675 5.06906 7.40482 5.20226L4.84193 10.6484C4.2177 11.9749 5.18553 13.5 6.65156 13.5H12.3484C13.8145 13.5 14.7823 11.9749 14.1581 10.6484L11.5952 5.20226C11.5325 5.06906 11.5 4.92367 11.5 4.77646V3.5H13C13.2761 3.5 13.5 3.27614 13.5 3V2C13.5 1.72386 13.2761 1.5 13 1.5Z" fill="var(--mw-icon-background-default-white, #FFFFFF)" stroke="var(--mw-icon-border-default-gray, #616161)" stroke-linecap="round" stroke-linejoin="round"/>
<path d="M8.3618 6.27639L5.8618 11.2764C5.69558 11.6088 5.93733 12 6.30902 12H12.691C13.0627 12 13.3044 11.6088 13.1382 11.2764L10.6382 6.27639C10.5535 6.107 10.3804 6 10.191 6H8.80902C8.61963 6 8.4465 6.107 8.3618 6.27639Z" fill="var(--mw-icon-borderColor-light-blue, #268CDD)"/>
</svg>
