<svg width="20" height="16" viewBox="0 0 20 16" fill="none" xmlns="http://www.w3.org/2000/svg">
<path d="M14.0001 1.5H6.00012C5.72398 1.5 5.50012 1.72386 5.50012 2V3C5.50012 3.27614 5.72398 3.5 6.00012 3.5H7.00012C7.27626 3.5 7.50012 3.72386 7.50012 4V12.5C7.50012 13.0523 7.94784 13.5 8.50012 13.5H13.5001C14.0524 13.5 14.5001 13.0523 14.5001 12.5V2C14.5001 1.72386 14.2763 1.5 14.0001 1.5Z" fill="var(--mw-icon-background-default-white, #FFFFFF)" stroke="var(--mw-icon-border-default-gray, #616161)" stroke-linecap="round" stroke-linejoin="round"/>
<path d="M9.00012 6.5V11.5C9.00012 11.7761 9.22398 12 9.50012 12H12.5001C12.7763 12 13.0001 11.7761 13.0001 11.5V6.5C13.0001 6.22386 12.7763 6 12.5001 6H9.50012C9.22398 6 9.00012 6.22386 9.00012 6.5Z" fill="#E6BFFF"/>
</svg>
