<svg width="20" height="16" viewBox="0 0 20 16" fill="none" xmlns="http://www.w3.org/2000/svg">
<path fill-rule="evenodd" clip-rule="evenodd" d="M6.00012 1.5H13.0001C13.2763 1.5 13.5001 1.72386 13.5001 2V3C13.5001 3.27614 13.2763 3.5 13.0001 3.5H11.5001V4.96776C12.9818 5.70411 14.0001 7.23314 14.0001 9C14.0001 11.4853 11.9854 13.5 9.50012 13.5C7.01484 13.5 5.00012 11.4853 5.00012 9C5.00012 7.23314 6.0184 5.70411 7.50012 4.96776V3.5H6.00012C5.72398 3.5 5.50012 3.27614 5.50012 3V2C5.50012 1.72386 5.72398 1.5 6.00012 1.5Z" fill="var(--mw-icon-background-default-white, #FFFFFF)"/>
<path d="M11.5001 3.5V3H11.0001V3.5H11.5001ZM11.5001 4.96776H11.0001V5.27762L11.2776 5.41552L11.5001 4.96776ZM7.50012 4.96776L7.72264 5.41552L8.00012 5.27762V4.96776H7.50012ZM7.50012 3.5H8.00012V3H7.50012V3.5ZM13.0001 1H6.00012V2H13.0001V1ZM14.0001 2C14.0001 1.44772 13.5524 1 13.0001 1V2H14.0001ZM14.0001 3V2H13.0001V3H14.0001ZM13.0001 4C13.5524 4 14.0001 3.55228 14.0001 3H13.0001V4ZM11.5001 4H13.0001V3H11.5001V4ZM12.0001 4.96776V3.5H11.0001V4.96776H12.0001ZM11.2776 5.41552C12.5959 6.07065 13.5001 7.43019 13.5001 9H14.5001C14.5001 7.03609 13.3678 5.33757 11.7226 4.52L11.2776 5.41552ZM13.5001 9C13.5001 11.2091 11.7093 13 9.50012 13V14C12.2615 14 14.5001 11.7614 14.5001 9H13.5001ZM9.50012 13C7.29098 13 5.50012 11.2091 5.50012 9H4.50012C4.50012 11.7614 6.7387 14 9.50012 14V13ZM5.50012 9C5.50012 7.43019 6.40434 6.07065 7.72264 5.41552L7.27761 4.52C5.63246 5.33757 4.50012 7.03609 4.50012 9H5.50012ZM7.00012 3.5V4.96776H8.00012V3.5H7.00012ZM6.00012 4H7.50012V3H6.00012V4ZM5.00012 3C5.00012 3.55228 5.44784 4 6.00012 4V3H5.00012ZM5.00012 2V3H6.00012V2H5.00012ZM6.00012 1C5.44784 1 5.00012 1.44772 5.00012 2H6.00012V1Z" fill="var(--mw-icon-border-default-gray, #616161)"/>
<path d="M12.5001 9C12.5001 10.6569 11.157 12 9.50012 12C7.84327 12 6.50012 10.6569 6.50012 9C6.50012 7.34315 7.00012 6 9.50012 6C12.0001 6 12.5001 7.34315 12.5001 9Z" fill="#FFAB66"/>
</svg>
