<svg width="20" height="16" viewBox="0 0 20 16" fill="none" xmlns="http://www.w3.org/2000/svg">
<rect x="10" width="1" height="15" fill="var(--mw-icon-border-disabled-gray, #888888)"/>
<rect x="6.31702" y="1.25488" width="1" height="15" transform="rotate(-30 6.31702 1.25488)" fill="var(--mw-icon-border-disabled-gray, #888888)"/>
<rect x="3.75476" y="4.18311" width="1" height="15" transform="rotate(-60 3.75476 4.18311)" fill="var(--mw-icon-border-disabled-gray, #888888)"/>
<rect x="18" y="7" width="1" height="15" transform="rotate(90 18 7)" fill="var(--mw-icon-border-disabled-gray, #888888)"/>
<rect x="16.7452" y="3.31689" width="1" height="15" transform="rotate(60 16.7452 3.31689)" fill="var(--mw-icon-border-disabled-gray, #888888)"/>
<rect x="13.817" y="0.754883" width="1" height="15" transform="rotate(30 13.817 0.754883)" fill="var(--mw-icon-border-disabled-gray, #888888)"/>
<circle cx="10.5" cy="7.5" r="6" fill="var(--mw-icon-background-default-white, #FFFFFF)"/>
<path d="M10.5001 1.5V13.5" stroke="var(--mw-icon-background-default-medium-gray, #D9D9D9)"/>
<path d="M16.5 7.5L4.5 7.5" stroke="var(--mw-icon-background-default-medium-gray, #D9D9D9)"/>
<path d="M7.5 2.30371L13.5 12.696" stroke="var(--mw-icon-background-default-medium-gray, #D9D9D9)"/>
<path d="M5.30383 4.5L15.6961 10.5" stroke="var(--mw-icon-background-default-medium-gray, #D9D9D9)"/>
<path d="M15.6963 4.5L5.30398 10.5" stroke="var(--mw-icon-background-default-medium-gray, #D9D9D9)"/>
<path d="M13.5001 2.30371L7.50012 12.696" stroke="var(--mw-icon-background-default-medium-gray, #D9D9D9)"/>
<circle cx="10.5" cy="7.5" r="6" stroke="var(--mw-icon-border-default-gray, #616161)"/>
<path d="M11.9142 4.63502C13.0976 4.60945 14.1958 5.37207 14.2499 7.87691C14.132 9.95423 12.9157 10.9051 11.9606 10.9258C11.0223 10.9461 9.16953 10.3712 9.27656 7.59776C9.38879 4.68976 10.6266 4.66285 11.9142 4.63502Z" fill="var(--mw-icon-background-red, #FF9D9A)"/>
<path d="M9.44707 6.50008L9.10668 6.86633C9.22906 6.98007 9.40015 7.02517 9.56269 6.98653C9.72523 6.9479 9.85774 6.83064 9.91585 6.674L9.44707 6.50008ZM11.8338 4.50292L11.8095 5.00233L11.8338 4.50292ZM9.5 8.5L9.96466 8.31537C9.89847 8.14879 9.74817 8.03038 9.57073 8.00503C9.39328 7.97967 9.21584 8.05124 9.10565 8.19262L9.5 8.5ZM6.50135 7.50138L6.00178 7.52214L6.00178 7.52214L6.50135 7.50138ZM8 9L7.93633 9.49593L8 9ZM8 6L7.95589 5.50195L8 6ZM9.91585 6.674C10.049 6.31519 10.2427 5.87196 10.5507 5.5297C10.8431 5.20469 11.2327 4.97423 11.8095 5.00233L11.8581 4.00351C10.9286 3.95823 10.2627 4.35472 9.80729 4.86082C9.36742 5.34966 9.12093 5.94171 8.97829 6.32617L9.91585 6.674ZM11.8095 5.00233C12.5986 5.04077 13.1294 5.38172 13.4738 5.8383C13.8288 6.30908 14 6.92503 14 7.50138L15 7.50138C15 6.74621 14.7795 5.90879 14.2722 5.23615C13.7541 4.5493 12.9518 4.05679 11.8581 4.00351L11.8095 5.00233ZM14 7.50138C14 9.209 12.8175 10.0356 11.7021 9.99882L11.6692 10.9983C13.336 11.0533 15 9.78752 15 7.50138L14 7.50138ZM11.7021 9.99882C11.1838 9.98173 10.8271 9.73988 10.5544 9.40947C10.2699 9.06471 10.0955 8.64456 9.96466 8.31537L9.03534 8.68463C9.1648 9.01045 9.38761 9.56664 9.78311 10.0459C10.1904 10.5396 10.7964 10.9695 11.6692 10.9983L11.7021 9.99882ZM9.10565 8.19262C9.04431 8.2713 8.91365 8.36905 8.71238 8.43799C8.51642 8.50511 8.28706 8.53275 8.06367 8.50407L7.93633 9.49593C8.31872 9.54502 8.70233 9.49846 9.03641 9.38403C9.36518 9.27143 9.68163 9.08029 9.89435 8.80738L9.10565 8.19262ZM8.06367 8.50407C7.48083 8.42925 7.02451 8.04837 7.00092 7.48062L6.00178 7.52214C6.05183 8.72651 7.03576 9.38031 7.93633 9.49593L8.06367 8.50407ZM7.00092 7.48062C6.9817 7.01832 7.40092 6.55501 8.04411 6.49805L7.95589 5.50195C6.93602 5.59228 5.95445 6.38314 6.00178 7.52214L7.00092 7.48062ZM8.04411 6.49805C8.39723 6.46678 8.77266 6.55589 9.10668 6.86633L9.78746 6.13384C9.22219 5.60847 8.55702 5.44871 7.95589 5.50195L8.04411 6.49805Z" fill="#0072BD"/>
</svg>
