<svg width="20" height="16" viewBox="0 0 20 16" fill="none" xmlns="http://www.w3.org/2000/svg">
<rect x="0.5" y="0.5" width="18" height="14" fill="var(--mw-icon-background-default-white, white)"/>
<path d="M1 1H18V3H1V1Z" fill="#BFBFBF"/>
<path d="M4.87207 5.83203H4.21924V11.5469H4.87207V12.0664H3.5835V5.3125H4.87207V5.83203ZM8.55322 9.19189C8.55322 9.757 8.42334 10.2116 8.16357 10.5557C7.90381 10.8975 7.55518 11.0684 7.11768 11.0684C6.65055 11.0684 6.28939 10.9032 6.03418 10.5728L6.00342 11H5.42236V5.75H6.05469V7.7085C6.3099 7.39176 6.66195 7.2334 7.11084 7.2334C7.55973 7.2334 7.91178 7.40316 8.16699 7.74268C8.42448 8.08219 8.55322 8.54704 8.55322 9.13721V9.19189ZM7.9209 9.12012C7.9209 8.68945 7.83773 8.35677 7.67139 8.12207C7.50505 7.88737 7.26579 7.77002 6.95361 7.77002C6.53662 7.77002 6.23698 7.9637 6.05469 8.35107V9.95068C6.24837 10.3381 6.55029 10.5317 6.96045 10.5317C7.26351 10.5317 7.49935 10.4144 7.66797 10.1797C7.83659 9.94499 7.9209 9.5918 7.9209 9.12012ZM9.33252 11.9912L8.97363 11.7451C9.18783 11.4466 9.29948 11.139 9.30859 10.8223V10.2515H9.92725V10.7471C9.92725 10.9772 9.87028 11.2074 9.75635 11.4375C9.64469 11.6676 9.50342 11.8522 9.33252 11.9912ZM13.0103 11C12.9738 10.9271 12.9442 10.7972 12.9214 10.6104C12.6274 10.9157 12.2765 11.0684 11.8687 11.0684C11.5041 11.0684 11.2044 10.9658 10.9697 10.7607C10.7373 10.5534 10.6211 10.2913 10.6211 9.97461C10.6211 9.58952 10.7669 9.29102 11.0586 9.0791C11.3525 8.86491 11.765 8.75781 12.2959 8.75781H12.9111V8.46729C12.9111 8.24626 12.8451 8.0708 12.7129 7.94092C12.5807 7.80876 12.3859 7.74268 12.1284 7.74268C11.9028 7.74268 11.7137 7.79964 11.561 7.91357C11.4084 8.02751 11.332 8.16536 11.332 8.32715H10.6963C10.6963 8.14258 10.7612 7.96484 10.8911 7.79395C11.0233 7.62077 11.201 7.48405 11.4243 7.38379C11.6499 7.28353 11.8971 7.2334 12.166 7.2334C12.5921 7.2334 12.9259 7.34049 13.1675 7.55469C13.409 7.7666 13.5343 8.05941 13.5435 8.43311V10.1353C13.5435 10.4748 13.5868 10.7448 13.6733 10.9453V11H13.0103ZM11.9609 10.5181C12.1592 10.5181 12.3472 10.4668 12.5249 10.3643C12.7026 10.2617 12.8314 10.1284 12.9111 9.96436V9.20557H12.4155C11.6408 9.20557 11.2534 9.43229 11.2534 9.88574C11.2534 10.084 11.3195 10.2389 11.4517 10.3506C11.5838 10.4622 11.7536 10.5181 11.9609 10.5181ZM14.0869 5.3125H15.3789V12.0664H14.0869V11.5469H14.7466V5.83203H14.0869V5.3125Z" fill="#0072BD"/>
<rect x="0.5" y="0.5" width="18" height="14" stroke="var(--mw-icon-border-default-gray, #616161)" stroke-linejoin="round"/>

</svg>
