<svg width="20" height="16" viewBox="0 0 20 16" fill="none" xmlns="http://www.w3.org/2000/svg">
<rect x="0.5" y="0.5" width="18" height="14" fill="var(--mw-icon-background-default-white, #FFFFFF)"/>
<path d="M8.41508 9.30887C8.41508 9.85214 8.27341 10.2892 7.99006 10.6199C7.70671 10.9485 7.32643 11.1128 6.84921 11.1128C6.33969 11.1128 5.94573 10.954 5.66736 10.6364L5.6338 11.0471H5V6H5.68973V7.8828C5.9681 7.57831 6.35211 7.42607 6.84176 7.42607C7.3314 7.42607 7.71541 7.58927 7.99379 7.91566C8.27465 8.24206 8.41508 8.68894 8.41508 9.2563V9.30887ZM7.72535 9.23987C7.72535 8.82585 7.63463 8.50602 7.45319 8.28039C7.27175 8.05476 7.01077 7.94195 6.67026 7.94195C6.21541 7.94195 5.88857 8.12815 5.68973 8.50055V10.0383C5.90099 10.4107 6.23032 10.5969 6.67771 10.5969C7.00829 10.5969 7.26553 10.4841 7.44946 10.2585C7.63339 10.0329 7.72535 9.69332 7.72535 9.23987Z" fill="#0072BD"/>
<path d="M9.26512 12L8.87365 11.7634C9.10729 11.4765 9.22908 11.1807 9.23902 10.8762V10.3275H9.91384V10.8039C9.91384 11.0252 9.8517 11.2464 9.72742 11.4677C9.60563 11.6889 9.45153 11.8664 9.26512 12Z" fill="#0072BD"/>
<path d="M13.2767 11.0471C13.237 10.977 13.2046 10.8521 13.1798 10.6725C12.8592 10.966 12.4764 11.1128 12.0315 11.1128C11.6338 11.1128 11.307 11.0142 11.051 10.8171C10.7974 10.6177 10.6707 10.3658 10.6707 10.0613C10.6707 9.69113 10.8297 9.40416 11.1479 9.20044C11.4685 8.99452 11.9184 8.89157 12.4975 8.89157H13.1686V8.61227C13.1686 8.39978 13.0965 8.23111 12.9524 8.10624C12.8082 7.97919 12.5957 7.91566 12.3148 7.91566C12.0688 7.91566 11.8625 7.97043 11.6959 8.07996C11.5294 8.18949 11.4461 8.32202 11.4461 8.47755H10.7527C10.7527 8.30011 10.8235 8.12924 10.9652 7.96495C11.1094 7.79847 11.3032 7.66703 11.5468 7.57065C11.7929 7.47426 12.0626 7.42607 12.3558 7.42607C12.8206 7.42607 13.1848 7.52903 13.4482 7.73494C13.7117 7.93866 13.8484 8.22015 13.8583 8.57941V10.2158C13.8583 10.5422 13.9056 10.8018 14 10.9945V11.0471H13.2767ZM12.1321 10.5838C12.3484 10.5838 12.5534 10.5345 12.7473 10.4359C12.9412 10.3373 13.0816 10.2092 13.1686 10.0515V9.32202H12.628C11.7829 9.32202 11.3604 9.53998 11.3604 9.9759C11.3604 10.1665 11.4325 10.3154 11.5766 10.4228C11.7208 10.5301 11.906 10.5838 12.1321 10.5838Z" fill="#0072BD"/>
<path d="M4 5.5H2.5V11.5H4M15 5.5H16.5V11.5H15" stroke="#0072BD"/>
<rect x="0.5" y="0.5" width="18" height="14" stroke="var(--mw-icon-border-default-gray, #616161)" stroke-linejoin="round"/>
</svg>
