<svg width="20" height="16" viewBox="0 0 20 16" fill="none" xmlns="http://www.w3.org/2000/svg">
<rect x="0.500793" y="0.5" width="18" height="14" fill="var(--mw-icon-background-default-white, #FFFFFF)"/>
<rect x="0.500793" y="0.5" width="18" height="14" stroke="var(--mw-icon-border-default-gray, #616161)" stroke-linejoin="round"/>
<path d="M6.50079 4C6.22465 4 6.00079 4.22386 6.00079 4.5C6.00079 4.77614 6.22465 5 6.50079 5V4ZM12.5008 5C12.7769 5 13.0008 4.77614 13.0008 4.5C13.0008 4.22386 12.7769 4 12.5008 4V5ZM12.0008 9.5V10H13.0008V9.5H12.0008ZM13.0008 5V4.5H12.0008V5H13.0008ZM6.50079 5H12.5008V4H6.50079V5ZM13.0008 9.5V5H12.0008V9.5H13.0008Z" fill="var(--mw-icon-glyph-disabled-gray, #888889)"/>
<path d="M9.41256 4.32073C9.53021 4.40041 9.53021 4.59959 9.41256 4.67927L6.7655 6.47196C6.64785 6.55163 6.50079 6.45204 6.50079 6.29269L6.50079 2.70731C6.50079 2.54796 6.64785 2.44837 6.7655 2.52804L9.41256 4.32073Z" fill="var(--mw-icon-background-default-selection, #B4DEFF)" stroke="var(--mw-icon-glyph-content-blue, #1656A8)" stroke-linejoin="round"/>
<rect x="10.5008" y="6.5" width="4" height="4" rx="1" fill="var(--mw-icon-background-red, #FF9D9A)" stroke="var(--mw-icon-glyph-content-red, #902623)"/>
<path d="M8.00079 11L9.50079 12.5" stroke="var(--mw-icon-object-primary, #616160)" stroke-linecap="round" stroke-linejoin="round"/>
<rect x="4.50079" y="7" width="4" height="4" rx="2" stroke="var(--mw-icon-object-primary, #616160)"/>
</svg>
