<svg width="20" height="16" viewBox="0 0 20 16" fill="none" xmlns="http://www.w3.org/2000/svg">
<rect x="0.5" y="0.5" width="18" height="14" fill="var(--mw-icon-background-default-white, white)"/>
<path d="M1 1H18V3H1V1Z" fill="#BFBFBF"/>
<path d="M0.5 7.5H2.5C4 7.5 5.5 8.5 5.5 12C5.46778 11 6 10.5 6.5 10.5C7 10.5 7.5 11.5 7.5 13C7.51159 12.3333 8 10.5 8.5 10.5C8.95914 10.5 9.5 11 9.5 12C9.5 11 10 10.5 10.5 10.5C11 10.5 11.5 11.3333 11.5 12C11.5 11.3333 12 10.5 12.5 10.5C13 10.5 13.4694 11.3333 13.5 14C13.4697 11.3576 14 10.5 14.5 10.5C15 10.5 15.5 11 15.5 12C15.5 11 15.8992 10.5 16.5 10.5C17 10.5 17.5 11 17.5 12" stroke="#0072BD"/>
<path d="M0.5 4.5C3.21943 4.5 4.91936 4.5 5.73212 4.5C7.94631 4.5 9.5 5.64524 9.5 9C9.48199 8.37228 10 7.5 10.5 7.5C11 7.5 11.5 8.67768 11.5 9C11.5 8.66703 12 7.5 12.5 7.5C13 7.5 13.5 8.63827 13.5 9C13.5 8.63827 13.818 7.5 14.5 7.5C15.182 7.5 15.5 8.56522 15.5 9C15.5 8.56522 15.8502 7.5 16.5 7.5C17.1498 7.5 17.5 8.56522 17.5 9" stroke="#D95319"/>
<rect x="0.5" y="0.5" width="18" height="14" stroke="var(--mw-icon-border-default-gray, #616161)" stroke-linejoin="round"/>

</svg>
