<svg width="21" height="18" viewBox="0 0 21 18" fill="none" xmlns="http://www.w3.org/2000/svg">
<path d="M10.25 1.89136L3.25 5.89136V11.3914L10.25 15.3914L17.25 11.3914V5.89136L10.25 1.89136Z" fill="var(--mw-icon-background-default-white, #FFFFFF)"/>
<path d="M10.252 7.38836L10.2541 1.89136L17.0768 5.82359V11.303L10.252 7.38836Z" fill="var(--mw-icon-background-default-light-gray, #F5F5F5)"/>
<path d="M10.252 7.38836L10.2498 1.89136L3.42706 5.8286L3.42706 11.303L10.252 7.38836Z" fill="#E6E6E6"/>
<path d="M17.2538 11.1636V5.95222L10.2519 1.91357L3.25 5.89133" stroke="var(--mw-icon-background-default-dark-gray, #A6A6A6)" stroke-linecap="round" stroke-linejoin="round"/>
<path d="M3.25 5.89136V11.2195L10.25 15.2611L17.25 11.2214" stroke="var(--mw-icon-border-default-gray, #616161)" stroke-linecap="round" stroke-linejoin="round"/>
<path d="M5 9.7745V8.08941L10.3189 5.08472L15.5 8.08947V9.94426L10.3308 13L5 9.7745Z" fill="#3AC831"/>
<path d="M10.3308 11.0332V12.9999L15.5 9.94425V8.08862L10.3308 11.0332Z" fill="var(--mw-icon-glyph-content-dark-green, #02580E)"/>
<path d="M5 9.77454V8.10669L10.3308 11.0351V13L5 9.77454Z" fill="var(--mw-icon-border-default-green, #008013)"/>
<path d="M10.5086 7.50359L10.1078 7.26171L10.1907 6.97505L9.70704 7.01983L9.2827 6.76373L9.19985 7.05955L8.70042 7.09485L9.12475 7.35096L9.03395 7.63288L8.56576 7.66884L8.14143 7.41273L8.04304 7.71738L7.56691 7.73944L7.99124 7.99555L7.90043 8.27747L8.392 8.23743L8.79276 8.4793L8.71767 8.77071L8.21048 8.81043L8.6191 9.05705L8.53615 9.34372L9.02772 9.30367L9.43633 9.55029L9.52705 9.25921L10.0186 9.21917L10.4115 9.4563L10.3364 9.74771L10.8201 9.70292L11.2366 9.95429L11.2884 9.67612L11.8111 9.62758L11.3947 9.37621L11.4699 9.10312L11.9536 9.05833L12.3701 9.3097L12.4452 9.01829L12.9524 8.97857L12.5359 8.72721L12.6267 8.44529L12.1273 8.48059L11.7344 8.24345L11.8174 7.95679L12.3089 7.91674L11.9003 7.67012L11.9755 7.38787L11.4917 7.4235L11.0831 7.17688L11.008 7.46829L10.5086 7.50359Z" fill="#EDB120"/>
<ellipse cx="0.384019" cy="0.372535" rx="0.384019" ry="0.372535" transform="matrix(0.854831 0.515932 -0.870612 0.495088 10.2478 7.98083)" fill="#4A3A19"/>
</svg>
