<svg width="20" height="16" viewBox="0 0 20 16" fill="none" xmlns="http://www.w3.org/2000/svg">
<path d="M0.5 0.5H19.5V15.5H0.5V0.5Z" fill="var(--mw-icon-background-default-white, #FFFFFF)"/>
<path d="M0.5 0.5H19.5V15.5H0.5V0.5Z" stroke="var(--mw-icon-border-default-gray, #616161)" stroke-linejoin="round"/>
<path d="M10 8L12 9V7L10 8Z" fill="#EDB120"/>
<path d="M12 7L14 8V6L12 7Z" fill="#EDB120"/>
<path d="M14 6L16 7V5L14 6Z" fill="#EDB120"/>
<path d="M16 5L18 6V4L16 5Z" fill="#EDB120"/>
<path d="M12 9L14 10V8L12 9Z" fill="#EDB120"/>
<path d="M14 8L16 9V7L14 8Z" fill="#EDB120"/>
<path d="M16 7L18 8V6L16 7Z" fill="#EDB120"/>
<path d="M14 10L16 11V9L14 10Z" fill="#EDB120"/>
<path d="M16 9L18 10V8L16 9Z" fill="#EDB120"/>
<path d="M16 11L18 12V10L16 11Z" fill="#EDB120"/>
<path d="M10 8L8 9V7L10 8Z" fill="#EDB120"/>
<path d="M8 7L6 8V6L8 7Z" fill="#EDB120"/>
<path d="M6 6L4 7V5L6 6Z" fill="#EDB120"/>
<path d="M4 5L2 6L2 4L4 5Z" fill="#EDB120"/>
<path d="M8 9L6 10V8L8 9Z" fill="#EDB120"/>
<path d="M6 8L4 9V7L6 8Z" fill="#EDB120"/>
<path d="M4 7L2 8V6L4 7Z" fill="#EDB120"/>
<path d="M6 10L4 11V9L6 10Z" fill="#EDB120"/>
<path d="M4 9L2 10V8L4 9Z" fill="#EDB120"/>
<path d="M4 11L2 12V10L4 11Z" fill="#EDB120"/>
</svg>
