<svg width="21" height="17" viewBox="0 0 21 17" fill="none" xmlns="http://www.w3.org/2000/svg">
<path d="M10.5 1.89136L3.5 5.89136V11.3914L10.5 15.3914L17.5 11.3914V5.89136L10.5 1.89136Z" fill="var(--mw-icon-background-default-white, #FFFFFF)"/>
<path d="M10.502 7.38836L10.5041 1.89136L17.3268 5.82359V11.303L10.502 7.38836Z" fill="var(--mw-icon-background-default-light-gray, #F5F5F5)"/>
<path d="M10.502 7.38836L10.4998 1.89136L3.67706 5.8286L3.67706 11.303L10.502 7.38836Z" fill="#E6E6E6"/>
<path d="M17.5038 11.1636V5.95222L10.5019 1.91357L3.5 5.89133" stroke="var(--mw-icon-background-default-dark-gray, #A6A6A6)" stroke-linecap="round" stroke-linejoin="round"/>
<path d="M3.5 5.89136V11.2195L10.5 15.2611L17.5 11.2214" stroke="var(--mw-icon-border-default-gray, #616161)" stroke-linecap="round" stroke-linejoin="round"/>
<path d="M5.22754 9.42921V7.80128L10.5583 4.65466L15.9139 7.7899V9.50248L10.5583 12.6547L5.22754 9.42921Z" fill="#3AC831"/>
<path d="M10.5583 10.918V12.6547L15.9181 9.51596V7.78137L10.5583 10.918Z" fill="var(--mw-icon-glyph-content-dark-green, #02580E)"/>
<path d="M5.22754 9.42926V7.80835L10.5583 10.9184V12.6547L5.22754 9.42926Z" fill="var(--mw-icon-border-default-green, #008013)"/>
<path d="M12.5526 6.73952L14.0096 7.60362L12.543 8.47342L11.4292 7.81289L10.7452 8.21856L11.8589 8.87908L10.3924 9.74888L8.93538 8.88477L10.1527 8.16281L9.66871 7.87576L8.45137 8.59775L6.99438 7.73364L8.46097 6.86384L9.53853 7.50292L10.2225 7.09725L9.145 6.45818L10.6116 5.58838L12.0686 6.45249L10.8834 7.15541L11.3673 7.44245L12.5526 6.73952Z" fill="#FEC04C"/>
</svg>
