<svg width="21" height="17" viewBox="0 0 21 17" fill="none" xmlns="http://www.w3.org/2000/svg">
<path d="M10 1.5835L3 5.5835V11.0835L10 15.0835L17 11.0835V5.5835L10 1.5835Z" fill="var(--mw-icon-background-default-white, #FFFFFF)"/>
<path d="M10.002 7.0805L10.0041 1.5835L16.8268 5.51573V10.9951L10.002 7.0805Z" fill="var(--mw-icon-background-default-light-gray, #F5F5F5)"/>
<path d="M10.002 7.0805L9.99981 1.5835L3.17706 5.52074L3.17706 10.9951L10.002 7.0805Z" fill="#E6E6E6"/>
<path d="M17.0038 10.8557V5.64436L10.0019 1.60571L3 5.58347" stroke="var(--mw-icon-background-default-dark-gray, #A6A6A6)" stroke-linecap="round" stroke-linejoin="round"/>
<path d="M3 5.5835V10.9116L10 14.9532L17 10.9135" stroke="var(--mw-icon-border-default-gray, #616161)" stroke-linecap="round" stroke-linejoin="round"/>
<path d="M5 9.2745V7.58941L10.3189 4.58472L15.5 7.58947V9.44426L10.3308 12.5L5 9.2745Z" fill="#3AC831"/>
<path d="M10.3308 10.5332V12.4999L15.5 9.44425V7.58862L10.3308 10.5332Z" fill="var(--mw-icon-glyph-content-dark-green, #02580E)"/>
<path d="M5 9.27454V7.60669L10.3308 10.5351V12.5L5 9.27454Z" fill="var(--mw-icon-border-default-green, #008013)"/>
<path fill-rule="evenodd" clip-rule="evenodd" d="M10.5173 5.96912L13.4973 7.86662L10.5237 9.51546L9.28113 8.80542L8.19617 9.4254L7.57493 9.0704L8.65988 8.45042L7.41746 7.74047L10.5173 5.96912ZM10.7497 7.6893L10.3769 7.47626L10.0048 7.68887L10.3776 7.90191L10.7497 7.6893ZM12.2387 7.47732L12.6115 7.69037L12.2395 7.90297L11.8667 7.68993L12.2387 7.47732ZM10.8908 6.62537L10.518 6.41233L10.1459 6.62494L10.5188 6.83798L10.8908 6.62537ZM8.65841 7.59298L9.03123 7.80602L8.65917 8.01863L8.28634 7.80559L8.65841 7.59298ZM10.8946 8.75323L10.5218 8.54019L10.1498 8.7528L10.5226 8.96584L10.8946 8.75323Z" fill="#EDB120"/>
</svg>
