<svg width="20" height="16" viewBox="0 0 20 16" fill="none" xmlns="http://www.w3.org/2000/svg">
<rect x="0.5" y="0.5" width="18" height="14" fill="var(--mw-icon-background-default-white, #FFFFFF)"/>
<rect x="0.5" y="0.5" width="18" height="14" stroke="var(--mw-icon-border-default-gray, #616161)" stroke-linejoin="round"/>
<path d="M14.8588 4.19766C10.88 12.0425 5.7895 12.4287 4.98732 10.8906C4.89697 10.689 4.84664 10.4532 4.84155 10.1928C4.80395 8.26943 7.23605 5.00589 14.2441 4.25592C14.4452 4.2344 14.6501 4.21495 14.8588 4.19766Z" fill="#F9FB15"/>
<path d="M4.84144 10.1928C4.84653 10.4531 4.89686 10.6889 4.98722 10.8906C5.77326 12.3977 10.6768 12.0572 14.6173 4.66195C7.94959 11.9279 2.10364 11.4907 6.78977 6.88396C4.98185 8.32086 4.83366 9.79477 4.84144 10.1928Z" fill="#FFD60A"/>
<path d="M14.8588 4.19743C10.9122 4.52442 8.33101 5.62424 6.77866 6.88097C8.00006 6.99994 10.4249 8.03489 9.77074 10.4704C11.4051 9.38096 13.2256 7.41756 14.8588 4.19743Z" fill="#FEC338"/>
<path d="M14.8588 4.19753C11.0698 4.51145 8.53939 5.5377 6.96962 6.73125C9.50006 6.5 11.0001 8 10.3859 10.0247C11.8532 8.87539 13.4279 7.0188 14.8588 4.19753Z" fill="#ABC739"/>
<path d="M14.8587 4.19754C11.6549 4.46298 9.35094 5.23772 7.7667 6.19225C10.4116 6.19225 11.5 7.49994 11.105 9.41062C12.3586 8.24974 13.6592 6.5626 14.8587 4.19754Z" fill="#37C897"/>
<path d="M14.8587 4.19752C12.2482 4.4138 10.2351 4.96822 8.72198 5.68253C11 6 12 7.5 11.7845 8.7329C12.8228 7.62147 13.8747 6.13758 14.8587 4.19752Z" fill="#12B1D6"/>
<path d="M14.8587 4.19764C12.5679 4.38744 10.7371 4.83762 9.30054 5.42775C11.4999 5.50006 12.4999 7.00006 12.2387 8.22355C13.1277 7.17977 14.018 5.8552 14.8587 4.19764Z" fill="#2E87F7"/>
<path d="M14.8587 4.19765C12.9183 4.35841 11.308 4.70599 9.98775 5.16719C11.9006 5.16719 13 6.50006 12.9237 7.36209C13.5822 6.47681 14.2341 5.42913 14.8587 4.19765Z" fill="#4852F4"/>
<path d="M14.8588 4.19764C13.3404 4.32345 12.024 4.56366 10.8907 4.88319C12.5 5.00006 13.5 5.50006 13.5201 6.51174C13.9749 5.82481 14.4235 5.05586 14.8588 4.19764Z" fill="#3E26A8"/>
</svg>
