<svg width="20" height="16" viewBox="0 0 20 16" fill="none" xmlns="http://www.w3.org/2000/svg">
<rect x="0.5" y="0.5" width="18" height="14" fill="var(--mw-icon-background-default-white, white)"/>
<path d="M7.79725 6.23437L5.63058 6.375L4.23773 4.6875V3.70312L3.77344 3H10.1187L10.2734 3.42187L7.48773 4.40625L7.79725 6.23437Z" fill="var(--mw-icon-border-disabled-gray, #888888)" stroke="var(--mw-icon-border-disabled-gray, #888888)" stroke-width="0.5" stroke-linejoin="round"/>
<path d="M15.5358 3H10.1191H7.0239L6.86914 12H15.5358V3Z" fill="#7D7D7D" stroke="#7D7D7D" stroke-width="0.5" stroke-linecap="round" stroke-linejoin="round"/>
<path d="M3 7.07812V3H3.92857L4.08333 12H3V7.07812Z" fill="var(--mw-icon-border-disabled-gray, #888888)" stroke="var(--mw-icon-border-disabled-gray, #888888)" stroke-width="0.5" stroke-linecap="round" stroke-linejoin="round"/>
<path d="M14.9167 3.5625L15.5357 3H16V12H15.5357V11.7187L14.9167 11.1562H14.4524L13.0595 10.3125L12.75 9.75L13.5238 9.04687L14.2976 7.78125L14.4524 6.51562L15.0714 4.82812L14.9167 3.5625Z" fill="var(--mw-icon-border-default-gray, #616161)"/>
<path d="M3.77381 3L4.08333 3.70312V4.6875L6.55952 7.78125L7.64286 9.60937L7.33333 10.1719L6.86905 11.0156V12H3.77381L3.92857 10.5937L3.61905 9.75L3.15476 8.625L3.77381 7.5L3.92857 6.375L4.2381 5.8125L3 5.39062L3.15476 3.84375L3 3H3.77381Z" fill="var(--mw-icon-border-default-gray, #616161)"/>
<path d="M6.71429 4.82812L6.86905 4.6875L7.33333 4.54687H7.95238H8.41667H8.72619L9.03571 4.82812L9.34524 5.25L9.65476 5.67187H9.96429H10.5833V5.53125V5.25V4.96875V4.6875V4.40625L10.7381 4.26562V3.98437V3.5625L10.5833 3.42187L10.4286 3.5625L10.2738 3.70312L9.80952 3.84375H9.34524H9.03571H8.72619L8.41667 3.98437H8.10714L7.64286 4.125H7.33333L6.86905 4.26562L6.55952 4.40625L6.25 4.54687V4.6875L6.40476 4.82812H6.71429Z" fill="var(--mw-icon-border-default-gray, #616161)"/>
<path d="M4.08333 4.6875V3.70312L3.77381 3H3L3.15476 3.84375L3 5.39062L4.2381 5.8125M4.08333 4.6875L4.2381 5.8125M4.08333 4.6875L6.55952 7.78125L7.64286 9.60937L7.33333 10.1719L6.86905 11.0156V12H3.77381L3.92857 10.5937L3.61905 9.75L3.15476 8.625L3.77381 7.5L3.92857 6.375L4.2381 5.8125M15.5357 3L14.9167 3.5625L15.0714 4.82812L14.4524 6.51562L14.2976 7.78125L13.5238 9.04687L12.75 9.75L13.0595 10.3125L14.4524 11.1562H14.9167L15.5357 11.7187V12H16V3H15.5357ZM6.86905 4.6875L6.71429 4.82812H6.40476L6.25 4.6875V4.54687L6.55952 4.40625L6.86905 4.26562L7.33333 4.125H7.64286L8.10714 3.98437H8.41667L8.72619 3.84375H9.03571H9.34524H9.80952L10.2738 3.70312L10.4286 3.5625L10.5833 3.42187L10.7381 3.5625V3.98437V4.26562L10.5833 4.40625V4.6875V4.96875V5.25V5.53125V5.67187H9.96429H9.65476L9.34524 5.25L9.03571 4.82812L8.72619 4.54687H8.41667H7.95238H7.33333L6.86905 4.6875Z" stroke="var(--mw-icon-border-default-gray, #616161)" stroke-width="0.5" stroke-linejoin="round"/>
<path d="M10.7383 4.26562L10.8931 3.5625L11.6669 3.42188C12.028 3.51562 12.7829 3.57735 13.0598 3.70312C13.3693 3.84375 13.7304 3.89062 13.9883 3.98438L14.4526 4.26562L14.2979 5.10938L14.1431 5.67188L13.8336 6.375L13.524 7.35938L12.905 8.34375L12.1312 8.20312L11.9764 7.92188L11.8217 8.20312V8.76562V9.32812V9.75L11.3574 9.89062L10.7383 9.75L10.4288 9.60938L10.274 9.1875L10.1193 8.625V8.20312C10.1193 8.15625 10.1502 8.03438 10.274 7.92188L10.5836 7.64062L11.0479 7.5L11.6669 7.64062L11.0479 6.9375L10.7383 5.25V4.26562Z" fill="var(--mw-icon-background-default-dark-gray, #A6A6A6)"/>
<path d="M7.48833 10.3125L7.33357 10.875L7.48833 11.4375V11.7188L7.95261 11.8594H8.4169H8.88118H9.19071L9.50023 11.7188L9.80976 11.2969V11.0156L9.96452 10.875L9.80976 10.5938L9.50023 10.3125L9.19071 10.1719H8.88118L8.4169 10.0312H8.10738H7.64309L7.48833 10.3125Z" fill="var(--mw-icon-background-default-dark-gray, #A6A6A6)"/>
<path d="M6.71452 5.8125V4.82812H6.55976L5.94071 4.96875L5.47642 4.6875L5.01214 4.82812L4.54785 4.96875L4.70261 5.25L4.85738 5.67188L5.01214 6.23438V6.79688L5.47642 6.65625L5.94071 6.51562H6.71452L7.02404 6.09375L6.71452 5.8125Z" fill="var(--mw-icon-background-default-dark-gray, #A6A6A6)"/>
<path d="M11.6669 7.64062L11.0479 6.9375L10.7383 5.25V4.26562L10.8931 3.5625L11.6669 3.42188C12.028 3.51563 12.7829 3.57735 13.0598 3.70312C13.3693 3.84375 13.7304 3.89062 13.9883 3.98438L14.4526 4.26562L14.2979 5.10938L14.1431 5.67188L13.8336 6.375L13.524 7.35938L12.905 8.34375L12.1312 8.20312L11.9764 7.92188L11.8217 8.20312M11.6669 7.64062L11.0479 7.5L10.5836 7.64062C10.532 7.6875 10.3979 7.80937 10.274 7.92188C10.1502 8.03438 10.1193 8.15625 10.1193 8.20312V8.625L10.274 9.1875L10.4288 9.60938L10.7383 9.75L11.3574 9.89062L11.8217 9.75V9.32812V8.76562V8.20312M11.6669 7.64062L11.8217 8.20312M7.33357 10.875L7.48833 10.3125L7.64309 10.0312H8.10738H8.4169L8.88118 10.1719H9.19071L9.50023 10.3125L9.80976 10.5938L9.96452 10.875L9.80976 11.0156V11.2969L9.50023 11.7188L9.19071 11.8594H8.88118H8.4169H7.95261L7.48833 11.7188V11.4375L7.33357 10.875ZM6.71452 4.82812V5.8125L7.02404 6.09375L6.71452 6.51562H5.94071L5.47642 6.65625L5.01214 6.79688V6.23438L4.85738 5.67188L4.70261 5.25L4.54785 4.96875L5.01214 4.82812L5.47642 4.6875L5.94071 4.96875L6.55976 4.82812H6.71452Z" stroke="var(--mw-icon-background-default-dark-gray, #A6A6A6)" stroke-width="0.5" stroke-linecap="round" stroke-linejoin="round"/>
<path d="M11.3863 4.87304C11.3335 4.85703 11.2776 4.8869 11.2616 4.93976C11.2456 4.99262 11.2755 5.04845 11.3283 5.06446L11.3863 4.87304ZM13.6498 5.76758C13.7026 5.78359 13.7585 5.75372 13.7745 5.70086C13.7905 5.64801 13.7606 5.59218 13.7077 5.57617L13.6498 5.76758ZM11.5435 6.28005C11.491 6.26272 11.4345 6.29119 11.4171 6.34363C11.3998 6.39607 11.4283 6.45262 11.4807 6.46995L11.5435 6.28005ZM13.1831 7.03245C13.2355 7.04978 13.2921 7.02131 13.3094 6.96887C13.3267 6.91643 13.2983 6.85988 13.2458 6.84255L13.1831 7.03245ZM14.2373 4.72085C14.2557 4.66878 14.2285 4.61164 14.1764 4.59322C14.1243 4.57481 14.0672 4.60208 14.0488 4.65415L14.2373 4.72085ZM12.6559 8.59165C12.6375 8.64372 12.6648 8.70086 12.7168 8.71927C12.7689 8.73769 12.826 8.71042 12.8445 8.65835L12.6559 8.59165ZM7.79781 10.3125L7.81411 10.2138C7.76164 10.2052 7.71157 10.2391 7.70014 10.291L7.79781 10.3125ZM9.50019 10.5937L9.59785 10.6152C9.60375 10.5884 9.59837 10.5604 9.58299 10.5377C9.5676 10.515 9.54356 10.4996 9.51649 10.4951L9.50019 10.5937ZM9.34542 11.2969L9.44197 11.3234L9.44309 11.3184L9.34542 11.2969ZM8.41685 10.4148L8.43315 10.3161H8.43315L8.41685 10.4148ZM8.01003 11.6957C7.99728 11.7494 8.0305 11.8033 8.08423 11.816C8.13797 11.8288 8.19187 11.7956 8.20463 11.7418L8.01003 11.6957ZM8.51983 11.7867C8.50586 11.8401 8.53785 11.8947 8.59128 11.9087C8.64472 11.9227 8.69936 11.8907 8.71333 11.8372L8.51983 11.7867ZM12.7105 6.77096L12.6791 6.86591L12.7105 6.77096ZM12.0251 6.54451L11.9937 6.63946L12.0251 6.54451ZM12.8455 4.29594C12.8622 4.24332 12.8331 4.18708 12.7805 4.17033C12.7279 4.15359 12.6716 4.18268 12.6549 4.23531L12.8455 4.29594ZM11.8887 5.1297L11.9177 5.03399L11.8887 5.1297ZM11.8216 5.10937L11.7926 5.20508L11.8216 5.10937ZM12.2265 4.155C12.2431 4.10231 12.2138 4.04617 12.1611 4.0296C12.1084 4.01304 12.0523 4.04232 12.0357 4.095L12.2265 4.155ZM11.3573 8.02187C11.4126 8.02187 11.4573 7.9771 11.4573 7.92187C11.4573 7.86665 11.4126 7.82187 11.3573 7.82187V8.02187ZM10.7383 7.92187V7.82187C10.6831 7.82187 10.6383 7.86665 10.6383 7.92187H10.7383ZM10.7383 9.32812H10.6383C10.6383 9.38335 10.6831 9.42812 10.7383 9.42812V9.32812ZM11.3573 9.42812C11.4126 9.42812 11.4573 9.38335 11.4573 9.32812C11.4573 9.2729 11.4126 9.22812 11.3573 9.22812V9.42812ZM11.3573 9.00625C11.4126 9.00625 11.4573 8.96148 11.4573 8.90625C11.4573 8.85102 11.4126 8.80625 11.3573 8.80625V9.00625ZM11.3573 8.51406C11.4126 8.51406 11.4573 8.46929 11.4573 8.41406C11.4573 8.35883 11.4126 8.31406 11.3573 8.31406V8.51406ZM7.48828 11.7187L7.39062 11.6973C7.38442 11.7254 7.39069 11.7549 7.40783 11.7781C7.42496 11.8014 7.45129 11.816 7.48005 11.8184L7.48828 11.7187ZM9.19066 11.8594L9.18243 11.959C9.23036 11.963 9.27432 11.9323 9.28708 11.8859L9.19066 11.8594ZM14.0488 4.65415L12.6559 8.59165L12.8445 8.65835L14.2373 4.72085L14.0488 4.65415ZM7.74071 11.0371L7.89547 10.334L7.70014 10.291L7.54538 10.9941L7.74071 11.0371ZM9.40252 10.5723L9.24776 11.2754L9.44309 11.3184L9.59785 10.6152L9.40252 10.5723ZM7.78151 10.4112L8.40055 10.5134L8.43315 10.3161L7.81411 10.2138L7.78151 10.4112ZM8.31956 10.3917L8.01003 11.6957L8.20463 11.7418L8.51415 10.4379L8.31956 10.3917ZM8.40055 10.5134L8.94222 10.6029L8.97482 10.4056L8.43315 10.3161L8.40055 10.5134ZM8.94222 10.6029L9.48389 10.6924L9.51649 10.4951L8.97482 10.4056L8.94222 10.6029ZM8.86177 10.479L8.51983 11.7867L8.71333 11.8372L9.05527 10.5296L8.86177 10.479ZM12.6791 6.86591L13.1831 7.03245L13.2458 6.84255L12.7418 6.67601L12.6791 6.86591ZM12.805 6.80349L13.6186 4.43878L13.4294 4.37372L12.6159 6.73843L12.805 6.80349ZM11.4807 6.46995L11.9937 6.63946L12.0565 6.44956L11.5435 6.28005L11.4807 6.46995ZM11.9937 6.63946L12.6791 6.86591L12.7418 6.67601L12.0565 6.44956L11.9937 6.63946ZM12.1204 6.57483L12.8455 4.29594L12.6549 4.23531L11.9298 6.51419L12.1204 6.57483ZM11.8597 5.2254L13.6498 5.76758L13.7077 5.57617L11.9177 5.03399L11.8597 5.2254ZM11.3283 5.06446L11.7926 5.20508L11.8506 5.01367L11.3863 4.87304L11.3283 5.06446ZM11.7926 5.20508L11.8597 5.2254L11.9177 5.03399L11.8506 5.01367L11.7926 5.20508ZM11.917 5.13937L12.2265 4.155L12.0357 4.095L11.7262 5.07938L11.917 5.13937ZM11.3573 7.82187H10.7383V8.02187H11.3573V7.82187ZM10.7383 9.42812H11.3573V9.22812H10.7383V9.42812ZM10.6383 8.90625V9.32812H10.8383V8.90625H10.6383ZM10.7383 9.00625H11.3573V8.80625H10.7383V9.00625ZM10.6383 7.92187V8.41406H10.8383V7.92187H10.6383ZM10.6383 8.41406V8.90625H10.8383V8.41406H10.6383ZM10.7383 8.51406H11.3573V8.31406H10.7383V8.51406ZM7.54538 10.9941L7.39062 11.6973L7.58594 11.7402L7.74071 11.0371L7.54538 10.9941ZM7.48005 11.8184L9.18243 11.959L9.19889 11.7597L7.49651 11.6191L7.48005 11.8184ZM9.28708 11.8859L9.44184 11.3234L9.24901 11.2703L9.09424 11.8328L9.28708 11.8859Z" fill="#BFBFBF"/>
<path d="M14.4092 10.2261C14.5094 10.2284 14.5646 10.2906 14.6379 10.3424C14.713 10.3955 14.7737 10.429 14.8572 10.4724C15.0095 10.5515 15.1472 10.6322 15.2817 10.7273C15.3476 10.7738 15.4041 10.8192 15.4596 10.8727C15.5283 10.9388 15.55 11.0386 15.6253 11.107C15.7088 11.1829 15.8978 11.2349 16.0002 11.2969" stroke="var(--mw-icon-glyph-content-dark-gray, #333333)" stroke-width="0.5" stroke-linecap="round"/>
<path d="M4.95529 6.85462C4.99539 6.75017 4.96128 6.5943 4.93458 6.48514C4.91547 6.407 4.9214 6.32659 4.9214 6.24652C4.9214 6.14197 4.92308 5.98783 4.82916 5.91468C4.79096 5.88493 4.7681 5.7298 4.74821 5.68461C4.72939 5.64184 4.7453 5.59936 4.73127 5.55632C4.71916 5.5192 4.68894 5.48368 4.6748 5.44514C4.64286 5.35807 4.61851 5.27214 4.57314 5.19198C4.53399 5.1228 4.53161 5.03993 4.49031 4.9756C4.4316 4.88414 4.48908 4.68766 4.49784 4.58816C4.50467 4.51059 4.55085 4.43229 4.56655 4.35382C4.58038 4.28473 4.58255 4.21794 4.58255 4.14513C4.58255 4.02853 4.5873 3.91098 4.58255 3.79447C4.58021 3.737 4.52692 3.70558 4.49784 3.65934C4.48264 3.63517 4.25146 3.00599 4.23828 3" stroke="var(--mw-icon-glyph-content-dark-gray, #333333)" stroke-width="0.5" stroke-linecap="round"/>
<path d="M11.3574 11.0156C11.5301 11.0156 12.1653 11.0266 12.3338 11.0266C12.3809 11.0266 12.5764 10.9787 12.5973 10.9565C12.6637 10.8861 12.838 10.8363 12.9353 10.8111C13.0927 10.7702 13.2264 10.7495 13.3927 10.7495C13.5811 10.7495 13.7669 10.7084 13.9311 10.6178C14.1045 10.5221 14.2542 10.411 14.3754 10.2569C14.4077 10.2158 14.4199 10.1746 14.4271 10.1252C14.4349 10.0725 14.477 10.0249 14.477 9.97121C14.477 9.87399 14.477 9.77678 14.477 9.67956C14.477 9.52597 14.4933 9.36404 14.4638 9.21344C14.4219 8.99924 14.4505 8.72127 14.5241 8.52067C14.5517 8.4454 14.5968 8.37582 14.6455 8.30942C14.6976 8.23845 14.7282 8.15171 14.7989 8.09389C14.8326 8.06632 14.8274 8.01581 14.8592 7.98699C14.8833 7.96505 14.9047 7.94176 14.926 7.916C14.9849 7.84465 15.0503 7.7771 15.1124 7.70817C15.1674 7.64702 15.2454 7.55833 15.2771 7.48922C15.2909 7.45907 15.3409 7.42764 15.3618 7.39343C15.3863 7.35327 15.409 7.32725 15.4296 7.28567C15.4717 7.20048 15.533 7.12424 15.5745 7.03935C15.6107 6.96547 15.5952 6.85995 15.5952 6.78106C15.5952 6.59518 15.5952 6.4093 15.5952 6.22342C15.5952 6.01224 15.5444 5.80684 15.5444 5.59908C15.5444 5.52327 15.5275 5.45538 15.5275 5.38013C15.5275 5.27905 15.5603 5.21781 15.6084 5.13039C15.6708 5.01705 15.923 4.79283 16.0003 4.6875" stroke="var(--mw-icon-glyph-content-dark-gray, #333333)" stroke-width="0.5" stroke-linecap="round"/>
<path fill-rule="evenodd" clip-rule="evenodd" d="M6.90611 4.54688H8.48186L8.81953 4.64915L9.83251 5.77415H10.6204L10.9581 6.08097V6.59233L10.2827 7.92187L9.83251 8.33097L10.2827 8.53551V8.9446V10.0696L10.3953 10.4787L11.0706 10.7855L11.6334 10.9901L11.5208 11.2969L10.7329 11.1946L10.1702 10.7855L9.83251 10.1719L9.49485 9.35369H8.25676L7.69398 9.14915L7.13121 9.35369V9.66051L6.90611 10.3125H6.681L6.34334 9.96733L6.23078 9.35369V8.84233L6.56844 8.33097L6.34334 8.22869L6.09481 8.33097L5.78528 8.48437L5.55546 8.43632L5.321 8.33097L5.16623 8.0625L5.47576 7.78125L5.55546 7.57141L4.88013 7.5L4.76758 7.13348L5.10524 6.89915L5.78057 6.49006L6.24957 6.375L6.40433 6.09375L6.56844 5.87642V5.26278L6.90611 4.54688ZM8.99961 6.49999V5.99999L9.80916 6.45499V7.21875L9.15723 7.20595L8.88059 6.79688L8.99961 6.49999ZM7.02344 7.35936L7.33297 7.64061V8.02414L7.43202 8.34373L7.48773 8.62498L7.86345 8.84232L8.4163 8.90623L8.93214 8.84232L9.34487 8.62498V8.20311L8.93214 8.02414L9.03535 7.78123V7.35936L8.72582 6.93748L8.25682 6.84482H7.69405L7.33297 7.07811L7.02344 7.35936Z" fill="var(--mw-icon-glyph-content-dark-gray, #333333)"/>
<path d="M8.48186 4.54688L8.55433 4.30761C8.53084 4.30049 8.50642 4.29688 8.48186 4.29688V4.54688ZM6.90611 4.54688V4.29688C6.80934 4.29688 6.72127 4.35271 6.67999 4.44023L6.90611 4.54688ZM8.81953 4.64915L9.00531 4.48186C8.97481 4.44799 8.93562 4.4231 8.892 4.40988L8.81953 4.64915ZM9.83251 5.77415L9.64673 5.94143C9.69414 5.99408 9.76166 6.02415 9.83251 6.02415V5.77415ZM10.6204 5.77415L10.7885 5.58912C10.7425 5.54731 10.6826 5.52415 10.6204 5.52415V5.77415ZM10.9581 6.08097H11.2081C11.2081 6.01051 11.1783 5.94332 11.1262 5.89594L10.9581 6.08097ZM10.9581 6.59233L11.1809 6.70555C11.1988 6.67047 11.2081 6.63168 11.2081 6.59233H10.9581ZM10.2827 7.92187L10.4509 8.1069C10.4733 8.08649 10.4919 8.06215 10.5056 8.03509L10.2827 7.92187ZM9.83251 8.33097L9.66439 8.14594C9.60213 8.20251 9.5725 8.2866 9.58553 8.3697C9.59857 8.4528 9.65252 8.52378 9.7291 8.55858L9.83251 8.33097ZM10.2827 8.53551H10.5327C10.5327 8.43746 10.4754 8.34846 10.3861 8.3079L10.2827 8.53551ZM10.2827 10.0696H10.0327C10.0327 10.092 10.0357 10.1143 10.0417 10.1359L10.2827 10.0696ZM10.3953 10.4787L10.1542 10.545C10.1739 10.6165 10.2243 10.6756 10.2919 10.7063L10.3953 10.4787ZM11.0706 10.7855L10.9672 11.0131C10.9731 11.0158 10.9791 11.0183 10.9852 11.0205L11.0706 10.7855ZM11.6334 10.9901L11.8681 11.0762C11.891 11.0138 11.8881 10.9449 11.8601 10.8846C11.8321 10.8244 11.7812 10.7778 11.7188 10.7551L11.6334 10.9901ZM11.5208 11.2969L11.4886 11.5448C11.6045 11.5598 11.7153 11.4926 11.7555 11.383L11.5208 11.2969ZM10.7329 11.1946L10.5859 11.3968C10.6198 11.4214 10.6593 11.4371 10.7008 11.4425L10.7329 11.1946ZM10.1702 10.7855L9.95115 10.906C9.96886 10.9382 9.99346 10.9661 10.0232 10.9877L10.1702 10.7855ZM9.83251 10.1719L9.60142 10.2672C9.60497 10.2758 9.609 10.2842 9.61348 10.2924L9.83251 10.1719ZM9.49485 9.35369L9.72594 9.25832C9.68733 9.16474 9.59608 9.10369 9.49485 9.10369V9.35369ZM8.25676 9.35369L8.17136 9.58865C8.19873 9.5986 8.22763 9.60369 8.25676 9.60369V9.35369ZM7.69398 9.14915L7.77938 8.91419C7.72422 8.89413 7.66375 8.89413 7.60859 8.91419L7.69398 9.14915ZM7.13121 9.35369L7.04581 9.11873C6.947 9.15465 6.88121 9.24855 6.88121 9.35369H7.13121ZM7.13121 9.66051L7.36753 9.7421C7.37659 9.71585 7.38121 9.68828 7.38121 9.66051H7.13121ZM6.90611 10.3125V10.5625C7.01273 10.5625 7.10762 10.4949 7.14242 10.3941L6.90611 10.3125ZM6.681 10.3125L6.50229 10.4873C6.54932 10.5354 6.61374 10.5625 6.681 10.5625V10.3125ZM6.34334 9.96733L6.09744 10.0124C6.10642 10.0614 6.12981 10.1066 6.16463 10.1422L6.34334 9.96733ZM6.23078 9.35369H5.98078C5.98078 9.36882 5.98215 9.38392 5.98488 9.3988L6.23078 9.35369ZM6.23078 8.84233L6.02216 8.70457C5.99517 8.74545 5.98078 8.79335 5.98078 8.84233H6.23078ZM6.56844 8.33097L6.77707 8.46872C6.81737 8.40769 6.82892 8.33207 6.80868 8.26179C6.78844 8.1915 6.73844 8.13361 6.67185 8.10336L6.56844 8.33097ZM6.34334 8.22869L6.44675 8.00108C6.3839 7.97253 6.31204 7.97123 6.2482 7.9975L6.34334 8.22869ZM6.09481 8.33097L5.99967 8.09978C5.99429 8.10199 5.98899 8.10439 5.98379 8.10697L6.09481 8.33097ZM5.78528 8.48437L5.73412 8.72908C5.78897 8.74055 5.84609 8.73326 5.8963 8.70837L5.78528 8.48437ZM5.55546 8.43632L5.45299 8.66436C5.46944 8.67175 5.48664 8.67734 5.50429 8.68103L5.55546 8.43632ZM5.321 8.33097L5.10441 8.45582C5.13066 8.50136 5.17059 8.53746 5.21853 8.559L5.321 8.33097ZM5.16623 8.0625L4.99811 7.87747C4.91111 7.95653 4.89094 8.08551 4.94964 8.18736L5.16623 8.0625ZM5.47576 7.78125L5.64388 7.96627C5.67302 7.9398 5.69549 7.90682 5.70947 7.87002L5.47576 7.78125ZM5.55546 7.57141L5.78917 7.66018C5.8167 7.58769 5.80904 7.50653 5.76843 7.44048C5.72782 7.37442 5.65886 7.33095 5.58175 7.3228L5.55546 7.57141ZM4.88013 7.5L4.64115 7.57339C4.67055 7.66913 4.75425 7.73808 4.85384 7.74861L4.88013 7.5ZM4.76758 7.13348L4.62504 6.92809C4.53565 6.99013 4.49665 7.10286 4.52859 7.20687L4.76758 7.13348ZM5.10524 6.89915L4.97571 6.68532C4.97129 6.688 4.96695 6.69081 4.9627 6.69376L5.10524 6.89915ZM5.78057 6.49006L5.721 6.24726C5.69634 6.25331 5.67275 6.26308 5.65104 6.27623L5.78057 6.49006ZM6.24957 6.375L6.30913 6.6178C6.37705 6.60114 6.43488 6.55679 6.4686 6.49552L6.24957 6.375ZM6.40433 6.09375L6.20482 5.94309C6.1976 5.95266 6.19108 5.96273 6.1853 5.97323L6.40433 6.09375ZM6.56844 5.87642L6.76795 6.02708C6.80072 5.98369 6.81844 5.93079 6.81844 5.87642H6.56844ZM6.56844 5.26278L6.34233 5.15614C6.3266 5.18949 6.31844 5.22591 6.31844 5.26278H6.56844ZM8.99961 5.99999L9.12209 5.78205C9.04468 5.73854 8.95 5.73936 8.87336 5.78421C8.79671 5.82905 8.74961 5.91119 8.74961 5.99999H8.99961ZM8.99961 6.49999L9.23165 6.59301C9.24351 6.56343 9.24961 6.53186 9.24961 6.49999H8.99961ZM9.80916 6.45499H10.0592C10.0592 6.36464 10.0104 6.28132 9.93165 6.23705L9.80916 6.45499ZM9.80916 7.21875L9.80425 7.4687C9.87139 7.47002 9.93624 7.44427 9.98419 7.39725C10.0321 7.35024 10.0592 7.2859 10.0592 7.21875H9.80916ZM9.15723 7.20595L8.95014 7.346C8.99567 7.41332 9.07107 7.45431 9.15233 7.45591L9.15723 7.20595ZM8.88059 6.79688L8.64854 6.70385C8.61766 6.78087 8.62701 6.86819 8.6735 6.93692L8.88059 6.79688ZM7.33297 7.64061H7.58297C7.58297 7.57015 7.55324 7.50296 7.50109 7.45558L7.33297 7.64061ZM7.02344 7.35936L6.85532 7.17433C6.80317 7.22171 6.77344 7.2889 6.77344 7.35936C6.77344 7.42981 6.80317 7.497 6.85532 7.54438L7.02344 7.35936ZM7.33297 8.02414H7.08297C7.08297 8.04923 7.08675 8.07419 7.09417 8.09815L7.33297 8.02414ZM7.43202 8.34373L7.67726 8.29516C7.67556 8.28657 7.67341 8.27808 7.67082 8.26972L7.43202 8.34373ZM7.48773 8.62498L7.24249 8.67355C7.25648 8.74417 7.30023 8.80534 7.36255 8.84138L7.48773 8.62498ZM7.86345 8.84232L7.73827 9.05872C7.7679 9.07587 7.80074 9.08674 7.83474 9.09067L7.86345 8.84232ZM8.4163 8.90623L8.38759 9.15458C8.40735 9.15686 8.4273 9.15678 8.44704 9.15433L8.4163 8.90623ZM8.93214 8.84232L8.96288 9.09043C8.99285 9.08671 9.02191 9.0776 9.04863 9.06353L8.93214 8.84232ZM9.34487 8.62498L9.46136 8.84618C9.54347 8.80295 9.59487 8.71778 9.59487 8.62498H9.34487ZM9.34487 8.20311H9.59487C9.59487 8.10349 9.53573 8.01337 9.44433 7.97374L9.34487 8.20311ZM8.93214 8.02414L8.70205 7.92638C8.64834 8.0528 8.70667 8.19886 8.83269 8.25351L8.93214 8.02414ZM9.03535 7.78123L9.26544 7.87899C9.27858 7.84807 9.28535 7.81482 9.28535 7.78123H9.03535ZM9.03535 7.35936H9.28535C9.28535 7.30616 9.26838 7.25436 9.23692 7.21147L9.03535 7.35936ZM8.72582 6.93748L8.92739 6.78959C8.89035 6.73911 8.83571 6.70436 8.77428 6.69222L8.72582 6.93748ZM8.25682 6.84482L8.30528 6.59956C8.28932 6.59641 8.27309 6.59482 8.25682 6.59482V6.84482ZM7.69405 6.84482V6.59482C7.64592 6.59482 7.59881 6.60871 7.55838 6.63483L7.69405 6.84482ZM7.33297 7.07811L7.1973 6.86812C7.18582 6.87554 7.17496 6.88389 7.16484 6.89308L7.33297 7.07811ZM8.48186 4.29688H6.90611V4.79688H8.48186V4.29688ZM8.892 4.40988L8.55433 4.30761L8.40939 4.78614L8.74706 4.88841L8.892 4.40988ZM10.0183 5.60686L9.00531 4.48186L8.63374 4.81643L9.64673 5.94143L10.0183 5.60686ZM10.6204 5.52415H9.83251V6.02415H10.6204V5.52415ZM11.1262 5.89594L10.7885 5.58912L10.4523 5.95917L10.7899 6.26599L11.1262 5.89594ZM11.2081 6.59233V6.08097H10.7081V6.59233H11.2081ZM10.5056 8.03509L11.1809 6.70555L10.7352 6.47911L10.0598 7.80866L10.5056 8.03509ZM10.0006 8.51599L10.4509 8.1069L10.1146 7.73685L9.66439 8.14594L10.0006 8.51599ZM10.3861 8.3079L9.93592 8.10336L9.7291 8.55858L10.1793 8.76312L10.3861 8.3079ZM10.5327 8.9446V8.53551H10.0327V8.9446H10.5327ZM10.5327 10.0696V8.9446H10.0327V10.0696H10.5327ZM10.6363 10.4124L10.5238 10.0033L10.0417 10.1359L10.1542 10.545L10.6363 10.4124ZM11.174 10.5579L10.4987 10.2511L10.2919 10.7063L10.9672 11.0131L11.174 10.5579ZM11.7188 10.7551L11.156 10.5505L10.9852 11.0205L11.548 11.225L11.7188 10.7551ZM11.7555 11.383L11.8681 11.0762L11.3987 10.904L11.2861 11.2108L11.7555 11.383ZM10.7008 11.4425L11.4886 11.5448L11.553 11.049L10.7651 10.9467L10.7008 11.4425ZM10.0232 10.9877L10.5859 11.3968L10.8799 10.9924L10.3172 10.5833L10.0232 10.9877ZM9.61348 10.2924L9.95115 10.906L10.3892 10.665L10.0515 10.0514L9.61348 10.2924ZM9.26376 9.44906L9.60142 10.2672L10.0636 10.0765L9.72594 9.25832L9.26376 9.44906ZM8.25676 9.60369H9.49485V9.10369H8.25676V9.60369ZM7.60859 9.38411L8.17136 9.58865L8.34216 9.11873L7.77938 8.91419L7.60859 9.38411ZM7.21661 9.58865L7.77938 9.38411L7.60859 8.91419L7.04581 9.11873L7.21661 9.58865ZM7.38121 9.66051V9.35369H6.88121V9.66051H7.38121ZM7.14242 10.3941L7.36753 9.7421L6.8949 9.57892L6.6698 10.2309L7.14242 10.3941ZM6.681 10.5625H6.90611V10.0625H6.681V10.5625ZM6.16463 10.1422L6.50229 10.4873L6.85971 10.1377L6.52205 9.79251L6.16463 10.1422ZM5.98488 9.3988L6.09744 10.0124L6.58923 9.92223L6.47668 9.30859L5.98488 9.3988ZM5.98078 8.84233V9.35369H6.48078V8.84233H5.98078ZM6.35982 8.19321L6.02216 8.70457L6.4394 8.98009L6.77707 8.46872L6.35982 8.19321ZM6.23993 8.4563L6.46503 8.55858L6.67185 8.10336L6.44675 8.00108L6.23993 8.4563ZM6.18994 8.56216L6.43847 8.45988L6.2482 7.9975L5.99967 8.09978L6.18994 8.56216ZM5.8963 8.70837L6.20582 8.55496L5.98379 8.10697L5.67426 8.26038L5.8963 8.70837ZM5.50429 8.68103L5.73412 8.72908L5.83645 8.23967L5.60662 8.19161L5.50429 8.68103ZM5.21853 8.559L5.45299 8.66436L5.65792 8.20829L5.42346 8.10293L5.21853 8.559ZM4.94964 8.18736L5.10441 8.45582L5.53758 8.20611L5.38282 7.93764L4.94964 8.18736ZM5.30763 7.59622L4.99811 7.87747L5.33436 8.24752L5.64388 7.96627L5.30763 7.59622ZM5.32175 7.48264L5.24205 7.69248L5.70947 7.87002L5.78917 7.66018L5.32175 7.48264ZM4.85384 7.74861L5.52917 7.82002L5.58175 7.3228L4.90642 7.25139L4.85384 7.74861ZM4.52859 7.20687L4.64115 7.57339L5.11912 7.42661L5.00656 7.06009L4.52859 7.20687ZM4.9627 6.69376L4.62504 6.92809L4.91011 7.33887L5.24778 7.10453L4.9627 6.69376ZM5.65104 6.27623L4.97571 6.68532L5.23477 7.11297L5.9101 6.70388L5.65104 6.27623ZM6.19 6.1322L5.721 6.24726L5.84013 6.73286L6.30913 6.6178L6.19 6.1322ZM6.1853 5.97323L6.03054 6.25448L6.4686 6.49552L6.62336 6.21427L6.1853 5.97323ZM6.36894 5.72576L6.20482 5.94309L6.60384 6.24441L6.76795 6.02708L6.36894 5.72576ZM6.31844 5.26278V5.87642H6.81844V5.26278H6.31844ZM6.67999 4.44023L6.34233 5.15614L6.79456 5.36943L7.13222 4.65352L6.67999 4.44023ZM8.74961 5.99999V6.49999H9.24961V5.99999H8.74961ZM9.93165 6.23705L9.12209 5.78205L8.87712 6.21792L9.68667 6.67292L9.93165 6.23705ZM10.0592 7.21875V6.45499H9.55916V7.21875H10.0592ZM9.15233 7.45591L9.80425 7.4687L9.81406 6.9688L9.16214 6.956L9.15233 7.45591ZM8.6735 6.93692L8.95014 7.346L9.36432 7.06591L9.08768 6.65683L8.6735 6.93692ZM8.76756 6.40696L8.64854 6.70385L9.11263 6.8899L9.23165 6.59301L8.76756 6.40696ZM7.50109 7.45558L7.19157 7.17433L6.85532 7.54438L7.16484 7.82563L7.50109 7.45558ZM7.58297 8.02414V7.64061H7.08297V8.02414H7.58297ZM7.67082 8.26972L7.57176 7.95013L7.09417 8.09815L7.19323 8.41774L7.67082 8.26972ZM7.73297 8.57641L7.67726 8.29516L7.18679 8.3923L7.24249 8.67355L7.73297 8.57641ZM7.98863 8.62592L7.61291 8.40858L7.36255 8.84138L7.73827 9.05872L7.98863 8.62592ZM8.44501 8.65788L7.89216 8.59398L7.83474 9.09067L8.38759 9.15458L8.44501 8.65788ZM8.90141 8.59422L8.38556 8.65813L8.44704 9.15433L8.96288 9.09043L8.90141 8.59422ZM9.22839 8.40378L8.81566 8.62112L9.04863 9.06353L9.46136 8.84618L9.22839 8.40378ZM9.09487 8.20311V8.62498H9.59487V8.20311H9.09487ZM8.83269 8.25351L9.24542 8.43247L9.44433 7.97374L9.0316 7.79478L8.83269 8.25351ZM8.80526 7.68347L8.70205 7.92638L9.16224 8.1219L9.26544 7.87899L8.80526 7.68347ZM8.78535 7.35936V7.78123H9.28535V7.35936H8.78535ZM8.52426 7.08537L8.83378 7.50724L9.23692 7.21147L8.92739 6.78959L8.52426 7.08537ZM8.20836 7.09008L8.67737 7.18274L8.77428 6.69222L8.30528 6.59956L8.20836 7.09008ZM7.69405 7.09482H8.25682V6.59482H7.69405V7.09482ZM7.46864 7.28809L7.82972 7.0548L7.55838 6.63483L7.1973 6.86812L7.46864 7.28809ZM7.19157 7.54438L7.50109 7.26313L7.16484 6.89308L6.85532 7.17433L7.19157 7.54438Z" fill="var(--mw-icon-glyph-content-dark-gray, #333333)"/>
<path d="M16 5.25L11.3571 3.84375L11.4059 6.23438M11.5119 11.4375L6.09524 10.875H3M11.5119 11.4375L12.131 12M11.5119 11.4375L11.4059 6.23438M11.4059 6.23438L14.6071 12" stroke="#BFBFBF" stroke-width="0.5" stroke-linecap="round" stroke-linejoin="round"/>
<rect x="0.5" y="0.5" width="18" height="14" stroke="var(--mw-icon-border-default-gray, #616161)" stroke-linejoin="round"/>

</svg>
