<svg width="20" height="16" viewBox="0 0 20 16" fill="none" xmlns="http://www.w3.org/2000/svg">
<rect x="0.5" y="0.5" width="18" height="14" fill="var(--mw-icon-background-default-white, white)"/>
<path d="M9.19491 2.5L10.6186 2.71154L10.2119 3.55769L10.6186 3.76923L11.4322 4.40384H12.0424V3.34615L12.6525 2.5L12.8559 3.34615L13.2627 3.55769L13.4661 3.98077L13.6695 5.25L14.2797 5.67307L14.6864 6.51923L15.5 7.78846V8.84615L13.8729 11.8077L13.0593 12.0192H12.2458L11.4322 11.8077L11.0254 10.9615L10.6186 10.3269L10.0085 10.5385L9.60169 9.6923L8.78814 9.48076L7.36441 9.90384L6.55085 10.5385H5.73729L5.12712 10.9615L4.31356 10.75L4.51695 10.1154L3.5 8V6.51923L5.73729 5.25L5.94068 4.40384L7.36441 3.13462L7.97458 3.55769L9.19491 2.5Z" fill="#F9FB15" stroke="var(--mw-icon-glyph-content-gray, #616162)" stroke-linejoin="round"/>
<path d="M13.6692 13.5001L13.4658 12.6539L14.8895 12.4424L14.4828 13.5001H13.6692Z" fill="#F9FB15" stroke="var(--mw-icon-glyph-content-gray, #616162)" stroke-linejoin="round"/>
<path d="M7.5 3.5V7.5M7.5 9.5V7.5M7.5 7.5H11.5V11.5" stroke="var(--mw-icon-glyph-content-gray, #616162)"/>
<path d="M11.5 10L14 11.5" stroke="var(--mw-icon-glyph-content-gray, #616162)"/>
<path d="M10.5 7.5V4" stroke="var(--mw-icon-glyph-content-gray, #616162)"/>
<path d="M12 8.5H14L15 9" stroke="var(--mw-icon-glyph-content-gray, #616162)"/>
<rect x="0.5" y="0.5" width="18" height="14" stroke="var(--mw-icon-border-default-gray, #616161)" stroke-linejoin="round"/>

</svg>
