<svg width="20" height="16" viewBox="0 0 20 16" fill="none" xmlns="http://www.w3.org/2000/svg">
<rect x="0.5" y="0.5" width="18" height="14" fill="var(--mw-icon-background-default-white, white)"/>
<path d="M7.42 6.98018L4.93833 4L2.5 6.23242L3.0852 8.06388L6.3363 11.315L7.42 6.98018Z" stroke="#0072BD" stroke-miterlimit="10"/>
<path d="M3.04199 8.06385L4.98186 6.70923L6.06556 11.044" stroke="#0072BD" stroke-miterlimit="10"/>
<path d="M7.14927 6.70926H4.98187L4.93848 4.27094" stroke="#0072BD" stroke-miterlimit="10"/>
<path d="M4.98185 6.70927L2.81445 6.16742" stroke="#0072BD" stroke-miterlimit="10"/>
<path d="M16 8.76923L10.6154 5L9 10.9231L13.3077 8.76923H16Z" stroke="#0072BD" stroke-miterlimit="10"/>
<path d="M9.26904 10.6539C9.8075 10.1154 11.9614 7.4231 11.9614 7.4231L13.5767 8.76925" stroke="#0072BD" stroke-miterlimit="10"/>
<path d="M11.9614 7.42308L10.6152 5" stroke="#0072BD" stroke-miterlimit="10"/>
<rect x="0.5" y="0.5" width="18" height="14" stroke="var(--mw-icon-border-default-gray, #616161)" stroke-linejoin="round"/>

</svg>
