<svg width="20" height="16" viewBox="0 0 20 16" fill="none" xmlns="http://www.w3.org/2000/svg">
<rect x="0.5" y="0.5" width="18" height="14" rx="1" fill="var(--mw-icon-background-default-white, #FFFFFF)"/>
<rect x="2" y="5" width="2" height="2" rx="0.5" fill="#D95319"/>
<rect x="2" y="8" width="2" height="2" rx="0.5" fill="#0072BD"/>
<rect x="2" y="11" width="2" height="2" rx="0.5" fill="#D95319"/>
<rect x="2" y="2" width="2" height="2" rx="0.5" fill="#0072BD"/>
<rect x="14" y="10" width="2" height="2" rx="0.5" transform="rotate(-180 14 10)" fill="#D95319"/>
<rect x="14" y="7" width="2" height="2" rx="0.5" transform="rotate(-180 14 7)" fill="#0072BD"/>
<path d="M5.5 7.5H8.5" stroke="var(--mw-icon-glyph-content-gray, #616162)" stroke-linecap="square"/>
<rect x="0.5" y="0.5" width="18" height="14" rx="1" stroke="var(--mw-icon-border-default-gray, #616161)"/>
<path d="M8 10V5L11 7.5L8 10Z" fill="var(--mw-icon-glyph-content-gray, #616162)"/>
<rect x="15" y="4" width="2" height="1" fill="var(--mw-icon-glyph-content-gray, #616162)"/>
<rect x="15" y="8" width="2" height="1" fill="var(--mw-icon-glyph-content-gray, #616162)"/>
<path d="M16 5H17L16 6H15L16 5Z" fill="var(--mw-icon-glyph-content-gray, #616162)"/>
<path d="M16 9H17L16 10H15L16 9Z" fill="var(--mw-icon-glyph-content-gray, #616162)"/>
<rect x="15" y="6" width="2" height="1" fill="var(--mw-icon-glyph-content-gray, #616162)"/>
<rect x="15" y="10" width="2" height="1" fill="var(--mw-icon-glyph-content-gray, #616162)"/>
</svg>
