<svg width="20" height="16" viewBox="0 0 20 16" fill="none" xmlns="http://www.w3.org/2000/svg">
<path d="M0.5 0.5H18.5V14.5H0.5V0.5Z" fill="var(--mw-icon-background-default-white, #FFFFFF)"/>
<path d="M1 1H18V3H1V1Z" fill="#BFBFBF"/>
<path d="M9.14221 5.57595V5.31013H8V5.57595H9.14221Z" fill="var(--mw-icon-glyph-content-dark-gray, #333333)"/>
<path d="M10.4516 3.74895C10.6141 3.70675 10.7627 3.673 10.8834 3.673C11.5056 3.673 11.5985 4.12447 11.5985 4.60549C11.5985 4.64346 11.5938 4.68143 11.5892 4.71941V4.75316H11.5706C11.487 4.55907 11.1852 4.45781 10.9531 4.45781C10.2148 4.45781 9.56942 5.02321 9.56942 5.69409C9.56942 6.15823 9.88051 6.43671 10.4377 6.43671C11.4824 6.43671 11.9606 5.30169 11.9606 4.58017C11.9606 3.83755 11.617 3.5 11.0134 3.5C10.8277 3.5 10.6002 3.54641 10.4609 3.6519L10.4516 3.74895ZM11.3292 5.15823C11.3292 5.69831 10.9438 6.26793 10.5166 6.26793C10.238 6.26793 10.108 6.15401 10.108 5.74473C10.108 5.26793 10.5073 4.62658 10.9159 4.62658C11.1295 4.62658 11.3292 4.77426 11.3292 5.15823Z" fill="var(--mw-icon-glyph-content-dark-gray, #333333)"/>
<path d="M14.336 3.50422H13.7928L13.5606 4.44515C13.0313 4.44515 12.5624 4.68143 12.3116 5.11181C12.2188 5.27637 12.163 5.45781 12.163 5.64346C12.163 6.12869 12.5484 6.40295 13.0592 6.43671L12.8502 7.25949H13.3935L13.5978 6.43671C14.1503 6.40717 14.6285 6.15401 14.8653 5.69409C14.9536 5.52532 15 5.34388 15 5.15823C15 4.67722 14.5914 4.44515 14.0992 4.44515L14.336 3.50422ZM14.0621 4.6097C14.35 4.6519 14.4614 4.95992 14.4614 5.19198C14.4614 5.26793 14.4568 5.34388 14.4382 5.41561C14.3592 5.74895 14.0342 6.1962 13.6442 6.26793L14.0621 4.6097ZM13.1056 6.26793C12.7992 6.20886 12.7016 5.90506 12.7016 5.65612C12.7016 5.24684 13.0452 4.67722 13.5235 4.6097L13.1056 6.26793Z" fill="var(--mw-icon-glyph-content-dark-gray, #333333)"/>
<path d="M9.66944 8.81224C9.83195 8.77004 9.98053 8.73629 10.1013 8.73629C10.7234 8.73629 10.8163 9.18776 10.8163 9.66878C10.8163 9.70675 10.8117 9.74473 10.807 9.7827V9.81646H10.7884C10.7049 9.62236 10.4031 9.5211 10.1709 9.5211C9.43264 9.5211 8.78725 10.0865 8.78725 10.7574C8.78725 11.2215 9.09834 11.5 9.65551 11.5C10.7002 11.5 11.1785 10.365 11.1785 9.64346C11.1785 8.90084 10.8349 8.56329 10.2313 8.56329C10.0455 8.56329 9.81802 8.6097 9.67873 8.71519L9.66944 8.81224ZM10.547 10.2215C10.547 10.7616 10.1616 11.3312 9.73445 11.3312C9.45586 11.3312 9.32585 11.2173 9.32585 10.808C9.32585 10.3312 9.72516 9.68987 10.1338 9.68987C10.3473 9.68987 10.547 9.83755 10.547 10.2215Z" fill="var(--mw-icon-glyph-content-dark-gray, #333333)"/>
<path d="M13.2242 9.50844L13.1871 9.673C13.5631 9.673 13.7257 9.90506 13.7257 10.289C13.7257 10.6477 13.4842 11.3312 13.1546 11.3312C13.006 11.3312 12.8481 11.2257 12.8481 11.019C12.8481 10.9979 12.8527 10.9641 12.8574 10.943C13.006 10.7405 13.201 10.4494 13.201 10.1878C13.201 10.0401 13.1546 9.88819 12.9595 9.88819C12.6067 9.88819 12.4627 10.3017 12.4627 10.597C12.4627 10.7194 12.4813 10.8333 12.5092 10.9515C12.4256 11.2046 12.2399 11.3312 12.0959 11.3312C11.9288 11.3312 11.8173 11.1245 11.8173 10.9219C11.8173 10.5253 11.9706 10.0992 12.2677 9.87131C12.407 9.76582 12.5927 9.673 12.7877 9.673L12.8342 9.50844H12.6856C12.3652 9.50844 12.1098 9.58861 11.8823 9.73207C11.5202 9.95992 11.2787 10.3734 11.2787 10.7574C11.2787 11.1456 11.4877 11.5 11.9798 11.5C12.2352 11.5 12.4627 11.4241 12.6485 11.2257C12.7274 11.3819 12.8667 11.5 13.1313 11.5C13.6932 11.5 14.2643 10.9093 14.2643 10.2553C14.2643 9.82911 13.9439 9.50844 13.4053 9.50844H13.2242Z" fill="var(--mw-icon-glyph-content-dark-gray, #333333)"/>
<path d="M1 9.82788C1.54255 9.82788 2.19672 8.57342 2.59304 7.53058C2.98936 6.48773 3.27207 4.5 3.35122 4.5C3.43038 4.5 3.54988 6.77257 4.38488 9.00481C4.91926 10.4334 5.70134 12.5 8.05319 12.5C8.31226 12.5 15.091 12.5 18 12.5" stroke="#0072BD"/>
<line x1="8" y1="7.5" x2="15" y2="7.5" stroke="var(--mw-icon-glyph-content-gray, #616162)"/>
<path d="M0.5 0.5H18.5V14.5H0.5V0.5Z" stroke="var(--mw-icon-border-default-gray, #616161)" stroke-linejoin="round"/>
</svg>
