<svg width="20" height="16" viewBox="0 0 20 16" fill="none" xmlns="http://www.w3.org/2000/svg">
<rect x="1" y="6" width="6" height="2" fill="var(--mw-icon-background-medium-blue, #83CAFF)"/>
<rect x="3" y="10" width="4" height="2" fill="var(--mw-icon-background-medium-blue, #83CAFF)"/>
<rect x="3" y="12" width="2" height="2" fill="var(--mw-icon-background-medium-blue, #83CAFF)"/>
<rect x="7" y="6" width="2" height="2" fill="#54B6FF"/>
<rect x="11" y="6" width="4" height="4" fill="#54B6FF"/>
<rect x="5" y="8" width="2" height="2" fill="#54B6FF"/>
<rect x="5" y="12" width="2" height="2" fill="#54B6FF"/>
<rect x="7" y="10" width="2" height="4" fill="#54B6FF"/>
<rect x="13" y="2" width="2" height="2" fill="#54B6FF"/>
<rect x="13" y="12" width="2" height="2" fill="#54B6FF"/>
<rect x="9" y="4" width="2" height="2" fill="#54B6FF"/>
<rect x="17" y="2" width="2" height="2" fill="#54B6FF"/>
<rect x="11" y="2" width="2" height="2" fill="var(--mw-icon-background-medium-blue, #83CAFF)"/>
<rect x="13" y="4" width="4" height="2" fill="var(--mw-icon-background-medium-blue, #83CAFF)"/>
<rect x="13" y="10" width="4" height="2" fill="var(--mw-icon-background-medium-blue, #83CAFF)"/>
<rect x="15" y="12" width="4" height="2" fill="var(--mw-icon-background-medium-blue, #83CAFF)"/>
<rect x="7" y="2" width="2" height="2" fill="#54B6FF"/>
<rect x="7" y="4" width="2" height="2" fill="var(--mw-icon-borderColor-light-blue, #268CDD)"/>
<rect x="9" y="2" width="2" height="2" fill="var(--mw-icon-borderColor-light-blue, #268CDD)"/>
<rect x="15" y="2" width="2" height="2" fill="var(--mw-icon-borderColor-light-blue, #268CDD)"/>
<rect x="11" y="4" width="2" height="2" fill="var(--mw-icon-borderColor-light-blue, #268CDD)"/>
<rect x="7" y="8" width="2" height="2" fill="var(--mw-icon-borderColor-light-blue, #268CDD)"/>
<rect x="9" y="10" width="4" height="4" fill="var(--mw-icon-borderColor-light-blue, #268CDD)"/>
<rect x="9" y="6" width="2" height="4" fill="var(--mw-icon-borderColor-light-blue, #268CDD)"/>
<rect x="1" y="4" width="6" height="2" fill="var(--mw-icon-background-default-selection, #B4DEFF)"/>
<rect x="13" y="6" width="6" height="2" fill="var(--mw-icon-background-default-selection, #B4DEFF)"/>
<rect x="17" y="8" width="2" height="4" fill="var(--mw-icon-background-default-selection, #B4DEFF)"/>
<rect x="1" y="2" width="2" height="2" fill="var(--mw-icon-background-lightest-blue, #E2F0FF)"/>
<rect x="17" y="4" width="2" height="2" fill="var(--mw-icon-background-lightest-blue, #E2F0FF)"/>
<rect x="15" y="8" width="2" height="2" fill="var(--mw-icon-background-lightest-blue, #E2F0FF)"/>
<rect x="1" y="8" width="4" height="2" fill="var(--mw-icon-background-lightest-blue, #E2F0FF)"/>
<rect x="1" y="10" width="2" height="4" fill="var(--mw-icon-background-lightest-blue, #E2F0FF)"/>
<rect x="3" y="2" width="2" height="2" fill="var(--mw-icon-background-default-selection, #B4DEFF)"/>
<rect x="5" y="2" width="2" height="2" fill="var(--mw-icon-background-medium-blue, #83CAFF)"/>
<path d="M0.5 1.5H19.5V14.5H0.5V1.5Z" stroke="var(--mw-icon-border-default-gray, #616161)" stroke-linejoin="round"/>

</svg>
