<svg width="20" height="16" viewBox="0 0 20 16" fill="none" xmlns="http://www.w3.org/2000/svg">
<rect x="0.5" y="0.5" width="18" height="14" fill="var(--mw-icon-background-default-white, #FFFFFF)"/>
<rect x="0.5" y="0.5" width="18" height="14" stroke="var(--mw-icon-border-default-gray, #616161)" stroke-linejoin="round"/>
<path d="M4.49998 7C4.77612 7 4.99998 7.22386 4.99998 7.5C4.99998 7.77614 4.77612 8 4.49998 8C4.45042 8 4.40255 7.99279 4.35736 7.97937L4.01367 7.38329C4.06624 7.16344 4.26402 7 4.49998 7Z" fill="#0072BD"/>
<path d="M14.5 7C14.2239 7 14 7.22386 14 7.5C14 7.77614 14.2239 8 14.5 8C14.5496 8 14.5974 7.99279 14.6426 7.97937L14.9863 7.38329C14.9338 7.16344 14.736 7 14.5 7Z" fill="#0072BD"/>
<path d="M8 11.5C8 11.2239 7.77614 11 7.5 11C7.22386 11 7 11.2239 7 11.5C7 11.7761 7.22386 12 7.5 12C7.77614 12 8 11.7761 8 11.5Z" fill="#0072BD"/>
<path d="M9 11.5C9 11.2239 9.22386 11 9.5 11C9.77614 11 10 11.2239 10 11.5C10 11.7761 9.77614 12 9.5 12C9.22386 12 9 11.7761 9 11.5Z" fill="#0072BD"/>
<path d="M9 9.5C9 9.22386 8.77614 9 8.5 9C8.22386 9 8 9.22386 8 9.5C8 9.77614 8.22386 10 8.5 10C8.77614 10 9 9.77614 9 9.5Z" fill="#0072BD"/>
<path d="M10 9.5C10 9.22386 10.2239 9 10.5 9C10.7761 9 11 9.22386 11 9.5C11 9.77614 10.7761 10 10.5 10C10.2239 10 10 9.77614 10 9.5Z" fill="#0072BD"/>
<path d="M12 9.5C12 9.22386 12.2239 9 12.5 9C12.7761 9 13 9.22386 13 9.5C13 9.77614 12.7761 10 12.5 10C12.2239 10 12 9.77614 12 9.5Z" fill="#0072BD"/>
<path d="M11 11.5C11 11.2239 11.2239 11 11.5 11C11.7761 11 12 11.2239 12 11.5C12 11.7761 11.7761 12 11.5 12C11.2239 12 11 11.7761 11 11.5Z" fill="#0072BD"/>
<path d="M9 7.5C9 7.22386 8.77614 7 8.5 7C8.22386 7 8 7.22386 8 7.5C8 7.77614 8.22386 8 8.5 8C8.77614 8 9 7.77614 9 7.5Z" fill="#0072BD"/>
<path d="M7 7.5C7 7.22386 6.77614 7 6.5 7C6.22386 7 6 7.22386 6 7.5C6 7.77614 6.22386 8 6.5 8C6.77614 8 7 7.77614 7 7.5Z" fill="#0072BD"/>
<path d="M10 7.5C10 7.22386 10.2239 7 10.5 7C10.7761 7 11 7.22386 11 7.5C11 7.77614 10.7761 8 10.5 8C10.2239 8 10 7.77614 10 7.5Z" fill="#0072BD"/>
<path d="M7 9.5C7 9.22386 6.77614 9 6.5 9C6.22386 9 6 9.22386 6 9.5C6 9.77614 6.22386 10 6.5 10C6.77614 10 7 9.77614 7 9.5Z" fill="#0072BD"/>
<path d="M12 7.5C12 7.22386 12.2239 7 12.5 7C12.7761 7 13 7.22386 13 7.5C13 7.77614 12.7761 8 12.5 8C12.2239 8 12 7.77614 12 7.5Z" fill="#0072BD"/>
<path d="M9 5.5C9 5.22386 8.77614 5 8.5 5C8.22386 5 8 5.22386 8 5.5C8 5.77614 8.22386 6 8.5 6C8.77614 6 9 5.77614 9 5.5Z" fill="#0072BD"/>
<path d="M10 5.5C10 5.22386 10.2239 5 10.5 5C10.7761 5 11 5.22386 11 5.5C11 5.77614 10.7761 6 10.5 6C10.2239 6 10 5.77614 10 5.5Z" fill="#0072BD"/>
<path d="M7 5.5C7 5.22386 6.77614 5 6.5 5C6.22386 5 6 5.22386 6 5.5C6 5.77614 6.22386 6 6.5 6C6.77614 6 7 5.77614 7 5.5Z" fill="#0072BD"/>
<path d="M12 5.5C12 5.22386 12.2239 5 12.5 5C12.7761 5 13 5.22386 13 5.5C13 5.77614 12.7761 6 12.5 6C12.2239 6 12 5.77614 12 5.5Z" fill="#0072BD"/>
<path d="M4.99998 7.5C4.99998 7.22386 4.77612 7 4.49998 7C4.22383 7 4 7.22386 4 7.5C4 7.77614 4.22383 8 4.49998 8C4.77612 8 4.99998 7.77614 4.99998 7.5Z" fill="#0072BD"/>
<path d="M14 7.5C14 7.22386 14.2239 7 14.5 7C14.7762 7 15 7.22386 15 7.5C15 7.77614 14.7762 8 14.5 8C14.2239 8 14 7.77614 14 7.5Z" fill="#0072BD"/>
<path d="M8 3.5C8 3.22386 7.77614 3 7.5 3C7.22386 3 7 3.22386 7 3.5C7 3.77614 7.22386 4 7.5 4C7.77614 4 8 3.77614 8 3.5Z" fill="#0072BD"/>
<path d="M9 3.5C9 3.22386 9.22386 3 9.5 3C9.77614 3 10 3.22386 10 3.5C10 3.77614 9.77614 4 9.5 4C9.22386 4 9 3.77614 9 3.5Z" fill="#0072BD"/>
<path d="M11 3.5C11 3.22386 11.2239 3 11.5 3C11.7761 3 12 3.22386 12 3.5C12 3.77614 11.7761 4 11.5 4C11.2239 4 11 3.77614 11 3.5Z" fill="#0072BD"/>
</svg>
