<svg width="21" height="16" viewBox="0 0 21 16" fill="none" xmlns="http://www.w3.org/2000/svg">
<path d="M18 10.31L10.5 14.5L3 10.3113L3.00001 4.74971L10.5 0.5L18 4.75V10.31Z" fill="var(--mw-icon-background-default-white, white)"/>
<path d="M10.5 1L3.5 5V10.5L10.5 14.5L17.5 10.5V5L10.5 1Z" fill="var(--mw-icon-background-default-white, white)"/>
<path d="M10.502 6.497L10.5041 1L17.3268 4.93223V10.4116L10.502 6.497Z" fill="var(--mw-icon-background-default-light-gray, #F5F5F5)"/>
<path d="M10.502 6.497L10.4998 1L3.67706 4.93724L3.67706 10.4116L10.502 6.497Z" fill="#E6E6E6"/>
<path d="M17.5038 10.2722V5.06086L10.5019 1.02222L3.5 4.99997" stroke="var(--mw-icon-background-default-dark-gray, #A6A6A6)" stroke-linecap="round" stroke-linejoin="round"/>
<path d="M3.5 5V10.3281L10.5 14.3697L17.5 10.33" stroke="var(--mw-icon-border-default-gray, #616161)" stroke-linecap="round" stroke-linejoin="round"/>
<path d="M11.499 6.27348L14.1701 7.81834C14.1835 7.82605 14.2001 7.81642 14.2001 7.80102V5.65216L11.529 4.11083C11.5157 4.10313 11.499 4.11276 11.499 4.12815V6.27348Z" fill="#54B6FF" stroke="var(--mw-icon-glyph-content-dark-blue, #104280)" stroke-linejoin="round"/>
<path d="M5.49658 10.8518L8.46794 12.5645C8.48128 12.5722 8.49793 12.5626 8.49793 12.5472L8.49794 9.2276L5.52659 7.51303C5.51326 7.50534 5.4966 7.51496 5.4966 7.53035L5.49658 10.8518Z" fill="#54B6FF" stroke="var(--mw-icon-glyph-content-dark-blue, #104280)" stroke-linejoin="round"/>
<path d="M8.49791 5.76001L11.4692 7.47962C11.4825 7.48732 11.4825 7.50655 11.4692 7.51424L8.49792 9.23139L5.52652 7.5123C5.5132 7.5046 5.5132 7.48538 5.52652 7.47768L8.49791 5.76001Z" fill="var(--mw-icon-background-medium-blue, #83CAFF)" stroke="var(--mw-icon-glyph-content-dark-blue, #104280)" stroke-linejoin="round"/>
<path d="M11.4995 8.77929L8.52818 10.4978C8.51484 10.5055 8.49816 10.4959 8.49816 10.4805L8.49816 6.88646L11.4695 5.17189C11.4828 5.1642 11.4995 5.17382 11.4995 5.18921V8.77929Z" fill="#1171BE" stroke="var(--mw-icon-glyph-content-dark-blue, #104280)" stroke-linejoin="round"/>
<path d="M17.5029 7.99997L14.5317 9.71269C14.5183 9.72038 14.5017 9.71076 14.5017 9.69537L14.5017 7.9853L17.4729 6.27073C17.4863 6.26304 17.5029 6.27266 17.5029 6.28805L17.5029 7.99997Z" fill="#1171BE" stroke="var(--mw-icon-glyph-content-dark-blue, #104280)" stroke-linejoin="round"/>
<path d="M14.5017 4.52856L17.4729 6.24817C17.4862 6.25588 17.4862 6.2751 17.4729 6.2828L14.5017 7.99994L11.5304 6.28086C11.5171 6.27315 11.5171 6.25393 11.5304 6.24623L14.5017 4.52856Z" fill="var(--mw-icon-background-medium-blue, #83CAFF)" stroke="var(--mw-icon-glyph-content-dark-blue, #104280)" stroke-linejoin="round"/>
<path d="M8.50146 8.17479L11.4727 9.89328C11.4861 9.901 11.5027 9.89137 11.5027 9.87597L11.5028 5.05779L8.53149 3.34322C8.51816 3.33553 8.50149 3.34515 8.50149 3.36055L8.50146 8.17479Z" fill="#54B6FF" stroke="var(--mw-icon-glyph-content-dark-blue, #104280)" stroke-linejoin="round"/>
<path d="M14.5039 9.72997L11.5327 11.4526C11.5193 11.4603 11.5026 11.4507 11.5026 11.4353L11.5026 5.07861L14.4739 3.36404C14.4872 3.35635 14.5039 3.36597 14.5039 3.38137V9.72997Z" fill="#1171BE" stroke="var(--mw-icon-glyph-content-dark-blue, #104280)" stroke-linejoin="round"/>
<path d="M11.5022 1.60889L14.4734 3.32849C14.4867 3.3362 14.4867 3.35542 14.4734 3.36312L11.5022 5.08027L8.53091 3.36118C8.5176 3.35348 8.5176 3.33425 8.53092 3.32655L11.5022 1.60889Z" fill="var(--mw-icon-background-medium-blue, #83CAFF)" stroke="var(--mw-icon-glyph-content-dark-blue, #104280)" stroke-linejoin="round"/>
<path d="M5.5 11.4275L8.47125 13.146C8.48459 13.1537 8.50127 13.1441 8.50127 13.1287V11.459L5.53 9.74446C5.51666 9.73676 5.5 9.74638 5.5 9.76178V11.4275Z" fill="#54B6FF" stroke="var(--mw-icon-glyph-content-dark-blue, #104280)" stroke-linejoin="round"/>
<path d="M11.5024 11.4404L8.53121 13.163C8.51787 13.1707 8.50118 13.1611 8.50118 13.1457L8.50118 11.397L11.4724 9.68242C11.4858 9.67473 11.5024 9.68435 11.5024 9.69974V11.4404Z" fill="#1171BE" stroke="var(--mw-icon-glyph-content-dark-blue, #104280)" stroke-linejoin="round"/>
<path d="M8.50125 8L11.4724 9.71961C11.4857 9.72731 11.4857 9.74654 11.4724 9.75423L8.50125 11.4714L5.52993 9.75229C5.51662 9.74459 5.51662 9.72537 5.52994 9.71767L8.50125 8Z" fill="var(--mw-icon-background-medium-blue, #83CAFF)" stroke="var(--mw-icon-glyph-content-dark-blue, #104280)" stroke-linejoin="round"/>
<path d="M3.5 4.92114V10.2743L10.5 14.3159L17.4078 10.3285" stroke="var(--mw-icon-border-default-gray, #616161)" stroke-linecap="round" stroke-linejoin="round"/>

</svg>
