<svg width="21" height="16" viewBox="0 0 21 16" fill="none" xmlns="http://www.w3.org/2000/svg">
<path d="M10.5 1L3.5 5V10.5L10.5 14.5L17.5 10.5V5L10.5 1Z" fill="var(--mw-icon-background-default-white, white)"/>
<path d="M10.502 6.497L10.5041 1L17.3268 4.93223V10.4116L10.502 6.497Z" fill="var(--mw-icon-background-default-light-gray, #F5F5F5)"/>
<path d="M10.502 6.497L10.4998 1L3.67706 4.93724L3.67706 10.4116L10.502 6.497Z" fill="#E6E6E6"/>
<path d="M17.5038 10.2722V5.06086L10.5019 1.02222L3.5 4.99997" stroke="var(--mw-icon-background-default-dark-gray, #A6A6A6)" stroke-linecap="round" stroke-linejoin="round"/>
<path d="M3.5 5V10.3281L10.5 14.3697L17.5 10.33" stroke="var(--mw-icon-border-default-gray, #616161)" stroke-linecap="round" stroke-linejoin="round"/>
<path d="M11.499 6.2736L14.1701 7.81846C14.1835 7.82617 14.2001 7.81655 14.2001 7.80114V5.65228L11.529 4.11095C11.5157 4.10326 11.499 4.11288 11.499 4.12827V6.2736Z" fill="#54B6FF" stroke="var(--mw-icon-glyph-content-dark-blue, #104280)" stroke-linejoin="round"/>
<path d="M5.49658 8.23002L8.46794 9.94274C8.48128 9.95042 8.49793 9.9408 8.49793 9.92541V6.88794L5.52658 5.17337C5.51324 5.16568 5.49658 5.1753 5.49658 5.19069V8.23002Z" fill="#54B6FF" stroke="var(--mw-icon-glyph-content-dark-blue, #104280)" stroke-linejoin="round"/>
<path d="M8.49791 3.41681L11.4692 5.13642C11.4825 5.14412 11.4825 5.16335 11.4692 5.17104L8.49792 6.88819L5.52652 5.1691C5.5132 5.1614 5.5132 5.14217 5.52652 5.13448L8.49791 3.41681Z" fill="var(--mw-icon-background-medium-blue, #83CAFF)" stroke="var(--mw-icon-glyph-content-dark-blue, #104280)" stroke-linejoin="round"/>
<path d="M11.4995 8.77935L8.52818 10.4978C8.51484 10.5056 8.49816 10.4959 8.49816 10.4805L8.49816 6.88652L11.4695 5.17195C11.4828 5.16426 11.4995 5.17388 11.4995 5.18927V8.77935Z" fill="#1171BE" stroke="var(--mw-icon-glyph-content-dark-blue, #104280)" stroke-linejoin="round"/>
<path d="M14.5017 3.34454L17.4729 5.06415C17.4862 5.07186 17.4862 5.09108 17.4729 5.09878L14.5017 6.81592L11.5304 5.09684C11.5171 5.08913 11.5171 5.06991 11.5304 5.06221L14.5017 3.34454Z" fill="var(--mw-icon-background-medium-blue, #83CAFF)" stroke="var(--mw-icon-glyph-content-dark-blue, #104280)" stroke-linejoin="round"/>
<path d="M17.5029 7.99997L14.5317 9.71269C14.5183 9.72038 14.5017 9.71076 14.5017 9.69537L14.5017 6.81428L17.4729 5.09971C17.4863 5.09202 17.5029 5.10164 17.5029 5.11703L17.5029 7.99997Z" fill="#1171BE" stroke="var(--mw-icon-glyph-content-dark-blue, #104280)" stroke-linejoin="round"/>
<path d="M8.50146 7.28362L11.4727 9.00211C11.4861 9.00982 11.5027 9.0002 11.5027 8.9848V6.59324L8.53146 4.87867C8.51813 4.87098 8.50146 4.8806 8.50146 4.89599V7.28362Z" fill="#54B6FF" stroke="var(--mw-icon-glyph-content-dark-blue, #104280)" stroke-linejoin="round"/>
<path d="M11.5027 3.12207L14.4739 4.84168C14.4872 4.84938 14.4872 4.86861 14.4739 4.8763L11.5027 6.59345L8.5314 4.87436C8.51808 4.86666 8.51809 4.84744 8.5314 4.83974L11.5027 3.12207Z" fill="var(--mw-icon-background-medium-blue, #83CAFF)" stroke="var(--mw-icon-glyph-content-dark-blue, #104280)" stroke-linejoin="round"/>
<path d="M14.5039 9.72997L11.5327 11.4526C11.5193 11.4603 11.5026 11.4507 11.5026 11.4353L11.5026 6.59178L14.4739 4.87721C14.4872 4.86951 14.5039 4.87914 14.5039 4.89453V9.72997Z" fill="#1171BE" stroke="var(--mw-icon-glyph-content-dark-blue, #104280)" stroke-linejoin="round"/>
<path d="M5.5 11.4773L8.47125 13.1958C8.48459 13.2035 8.50127 13.1939 8.50127 13.1785V10.7326L5.53 9.01804C5.51666 9.01034 5.5 9.01997 5.5 9.03536V11.4773Z" fill="#54B6FF" stroke="var(--mw-icon-glyph-content-dark-blue, #104280)" stroke-linejoin="round"/>
<path d="M8.50125 7.26147L11.4724 8.98108C11.4857 8.98879 11.4857 9.00801 11.4724 9.01571L8.50125 10.7329L5.52993 9.01377C5.51662 9.00606 5.51662 8.98684 5.52994 8.97914L8.50125 7.26147Z" fill="var(--mw-icon-background-medium-blue, #83CAFF)" stroke="var(--mw-icon-glyph-content-dark-blue, #104280)" stroke-linejoin="round"/>
<path d="M11.5024 11.47L8.53121 13.1926C8.51787 13.2003 8.50118 13.1907 8.50118 13.1753L8.50118 10.7312L11.4724 9.01665C11.4858 9.00896 11.5024 9.01858 11.5024 9.03397V11.47Z" fill="#1171BE" stroke="var(--mw-icon-glyph-content-dark-blue, #104280)" stroke-linejoin="round"/>

</svg>
