<svg width="20" height="16" viewBox="0 0 20 16" fill="none" xmlns="http://www.w3.org/2000/svg">
<path d="M9.5 1L2.5 5V10.5L9.5 14.5L16.5 10.5V5L9.5 1Z" fill="var(--mw-icon-background-default-white, #FFFFFF)"/>
<path d="M9.50195 6.497L9.50409 1L16.3268 4.93223V10.4116L9.50195 6.497Z" fill="var(--mw-icon-background-default-light-gray, #F5F5F5)"/>
<path d="M9.50195 6.497L9.49981 1L2.67706 4.93724L2.67706 10.4116L9.50195 6.497Z" fill="#E6E6E6"/>
<path d="M16.5038 10.2722V5.06086L9.5019 1.02222L2.5 4.99997" stroke="var(--mw-icon-background-default-dark-gray, #A6A6A6)" stroke-linecap="round" stroke-linejoin="round"/>
<path d="M2.5 5V10.3281L9.5 14.3697L16.5 10.33" stroke="var(--mw-icon-border-default-gray, #616161)" stroke-linecap="round" stroke-linejoin="round"/>
<path d="M6.99019 4.5L8.15885 5.18394C8.15885 5.18394 9.69318 5.3688 10.2492 5.37029C10.3976 5.37068 12.8973 6.96613 12.8973 6.96613C12.5463 6.77449 11.4868 6.81805 10.9652 7.81138C10.3133 9.05304 10.6846 10.0539 11.0304 10.2642C11.0304 10.2642 8.48864 8.95033 8.38221 8.77682C8.00725 8.16556 7.19498 6.73593 7.19498 6.73593L6.05542 6.07526C5.87023 5.58732 6.14109 4.61641 6.99019 4.5Z" fill="#EDB120"/>
<path d="M8.15885 5.18394L6.99019 4.5C6.14109 4.61641 5.87023 5.58732 6.05542 6.07526L7.19498 6.73593M8.15885 5.18394C8.15885 5.18394 9.69318 5.3688 10.2492 5.37029M8.15885 5.18394C7.83756 5.36998 7.19498 5.94083 7.19498 6.73593M10.2492 5.37029C10.3976 5.37068 12.8973 6.96613 12.8973 6.96613C12.5463 6.77449 11.4868 6.81805 10.9652 7.81138C10.3133 9.05304 10.6846 10.0539 11.0304 10.2642C11.0304 10.2642 8.48864 8.95033 8.38221 8.77682M10.2492 5.37029C9.505 5.62399 8.08972 6.66048 8.38221 8.77682M8.38221 8.77682C8.00725 8.16556 7.19498 6.73593 7.19498 6.73593" stroke="#745A26" stroke-linejoin="round"/>
<path d="M13.0164 9.08292C12.7694 9.61221 12.4061 10.0026 12.0421 10.2166C11.6758 10.4319 11.3569 10.4471 11.128 10.3411C10.899 10.2351 10.7051 9.98233 10.6343 9.56462C10.5639 9.14942 10.6294 8.62107 10.8764 8.09178C11.1234 7.56249 11.4867 7.17205 11.8507 6.95806C12.217 6.74276 12.5359 6.72755 12.7649 6.83359C12.9938 6.93963 13.1877 7.19236 13.2585 7.61008C13.3289 8.02527 13.2634 8.55362 13.0164 9.08292Z" fill="#B3882A" stroke="#745A26"/>
</svg>
