<svg width="20" height="18" viewBox="0 0 20 18" fill="none" xmlns="http://www.w3.org/2000/svg">
<path d="M9.5 1.87549L2.5 5.87549V11.3755L9.5 15.3755L16.5 11.3755V5.87549L9.5 1.87549Z" fill="var(--mw-icon-background-default-white, #FFFFFF)"/>
<path d="M9.50195 7.37249L9.50409 1.87549L16.3268 5.80772V11.2871L9.50195 7.37249Z" fill="var(--mw-icon-background-default-light-gray, #F5F5F5)"/>
<path d="M9.50195 7.37249L9.49981 1.87549L2.67706 5.81273L2.67706 11.2871L9.50195 7.37249Z" fill="#E6E6E6"/>
<path d="M16.5038 11.1477V5.93635L9.5019 1.89771L2.5 5.87546" stroke="var(--mw-icon-background-default-dark-gray, #A6A6A6)" stroke-linecap="round" stroke-linejoin="round"/>
<path d="M2.5 5.87549V11.2036L9.5 15.2452L16.5 11.2055" stroke="var(--mw-icon-border-default-gray, #616161)" stroke-linecap="round" stroke-linejoin="round"/>
<path d="M5.49646 5.76261V6.92928L7.82979 8.26261L9.49646 12.0959L13.4965 9.88648V5.65L8.89351 6.36434L6.66313 5.09595L5.49646 5.76261Z" fill="#EDB120"/>
<path d="M13.4965 5.65L9.49646 7.92928M13.4965 5.65V9.88648L9.49646 12.0959M13.4965 5.65L8.89351 6.36434M9.49646 7.92928L7.82979 7.02788M9.49646 7.92928V12.0959M7.82979 7.02788L5.49646 5.76261M7.82979 7.02788L8.89351 6.36434M7.82979 7.02788V8.26261M5.49646 5.76261V6.92928L7.82979 8.26261M5.49646 5.76261L6.66313 5.09595L8.89351 6.36434M7.82979 8.26261L9.49646 12.0959" stroke="#745A26" stroke-linejoin="round"/>
<path d="M9.99329 11.2543V8.74648L12.4454 9.90057L9.99329 11.2543Z" fill="#B3882A"/>
<path d="M9.56152 7.99878L13.4539 9.83982" stroke="#745A26"/>
</svg>
