<svg width="20" height="17" viewBox="0 0 20 17" fill="none" xmlns="http://www.w3.org/2000/svg">
<path d="M9.5 1L2.5 5V10.5L9.5 14.5L16.5 10.5V5L9.5 1Z" fill="var(--mw-icon-background-default-white, #FFFFFF)"/>
<path d="M9.50195 6.497L9.50409 1L16.3268 4.93223V10.4116L9.50195 6.497Z" fill="var(--mw-icon-background-default-light-gray, #F5F5F5)"/>
<path d="M9.50195 6.497L9.49981 1L2.67706 4.93724L2.67706 10.4116L9.50195 6.497Z" fill="#E6E6E6"/>
<path d="M16.5038 10.2722V5.06086L9.5019 1.02222L2.5 4.99997" stroke="var(--mw-icon-background-default-dark-gray, #A6A6A6)" stroke-linecap="round" stroke-linejoin="round"/>
<path d="M2.5 5V10.3281L9.5 14.3697L16.5 10.33" stroke="var(--mw-icon-border-default-gray, #616161)" stroke-linecap="round" stroke-linejoin="round"/>
<path d="M5.49829 5.24699V6.41366L7.83162 7.74699L9.49829 11.5803L13.4983 9.37085V5.13438L8.89534 5.84871L6.66496 4.58032L5.49829 5.24699Z" fill="#EDB120"/>
<path d="M13.4983 5.13438L9.49829 7.41366M13.4983 5.13438V9.37085L9.49829 11.5803M13.4983 5.13438L8.89534 5.84871M9.49829 7.41366L7.83162 6.51226M9.49829 7.41366V11.5803M7.83162 6.51226L5.49829 5.24699M7.83162 6.51226L8.89534 5.84871M7.83162 6.51226V7.74699M5.49829 5.24699V6.41366L7.83162 7.74699M5.49829 5.24699L6.66496 4.58032L8.89534 5.84871M7.83162 7.74699L9.49829 11.5803" stroke="#745A26" stroke-linejoin="round"/>
<path d="M9.98423 10.7356L9.98421 8.24047L12.4794 9.3967L9.98423 10.7356Z" fill="#B3882A"/>
<path d="M9.56335 7.48315L13.4558 9.3242" stroke="#745A26"/>
<path d="M11.8972 6.08447V8.63175L9.43652 9.97922" stroke="#745A26"/>
</svg>
