<svg width="20" height="16" viewBox="0 0 20 16" fill="none" xmlns="http://www.w3.org/2000/svg">
<path d="M9.5 1L2.5 5V10.5L9.5 14.5L16.5 10.5V5L9.5 1Z" fill="var(--mw-icon-background-default-white, #FFFFFF)"/>
<path d="M9.50195 6.497L9.50409 1L16.3268 4.93223V10.4116L9.50195 6.497Z" fill="var(--mw-icon-background-default-light-gray, #F5F5F5)"/>
<path d="M9.50195 6.497L9.49981 1L2.67706 4.93724L2.67706 10.4116L9.50195 6.497Z" fill="#E6E6E6"/>
<path d="M16.5038 10.2722V5.06086L9.5019 1.02222L2.5 4.99997" stroke="var(--mw-icon-background-default-dark-gray, #A6A6A6)" stroke-linecap="round" stroke-linejoin="round"/>
<path d="M2.5 5V10.3281L9.5 14.3697L16.5 10.33" stroke="var(--mw-icon-border-default-gray, #616161)" stroke-linecap="round" stroke-linejoin="round"/>
<circle cx="0.5" cy="0.5" r="0.5" transform="matrix(1 0 0 -1 7 7)" fill="var(--mw-icon-glyph-content-yellow, #674C07)"/>
<circle cx="0.5" cy="0.5" r="0.5" transform="matrix(1 0 0 -1 6 8)" fill="var(--mw-icon-glyph-content-yellow, #674C07)"/>
<circle cx="0.5" cy="0.5" r="0.5" transform="matrix(1 0 0 -1 8 10)" fill="var(--mw-icon-background-light-yellow, #FFF5BC)"/>
<circle cx="0.5" cy="0.5" r="0.5" transform="matrix(1 0 0 -1 6 9)" fill="var(--mw-icon-background-light-yellow, #FFF5BC)"/>
<circle cx="0.5" cy="0.5" r="0.5" transform="matrix(1 0 0 -1 9 9)" fill="var(--mw-icon-glyph-content-yellow, #674C07)"/>
<circle cx="0.5" cy="0.5" r="0.5" transform="matrix(1 0 0 -1 8 8)" fill="var(--mw-icon-glyph-content-yellow, #674C07)"/>
<circle cx="0.5" cy="0.5" r="0.5" transform="matrix(1 0 0 -1 6 11)" fill="var(--mw-icon-glyph-content-yellow, #674C07)"/>
<circle cx="0.5" cy="0.5" r="0.5" transform="matrix(1 0 0 -1 7 12)" fill="var(--mw-icon-glyph-content-yellow, #674C07)"/>
<circle cx="0.5" cy="0.5" r="0.5" transform="matrix(1 0 0 -1 8 11)" fill="var(--mw-icon-glyph-content-yellow, #674C07)"/>
<circle cx="0.5" cy="0.5" r="0.5" transform="matrix(1 0 0 -1 5 9)" fill="var(--mw-icon-glyph-content-yellow, #674C07)"/>
<circle cx="0.5" cy="0.5" r="0.5" transform="matrix(1 0 0 -1 7 8)" fill="var(--mw-icon-background-light-yellow, #FFF5BC)"/>
<circle cx="0.5" cy="0.5" r="0.5" transform="matrix(1 0 0 -1 8 9)" fill="var(--mw-icon-background-light-yellow, #FFF5BC)"/>
<circle cx="0.5" cy="0.5" r="0.5" transform="matrix(1 0 0 -1 6 10)" fill="var(--mw-icon-background-light-yellow, #FFF5BC)"/>
<circle cx="0.5" cy="0.5" r="0.5" transform="matrix(1 0 0 -1 7 9)" fill="var(--mw-icon-background-light-yellow, #FFF5BC)"/>
<circle cx="0.5" cy="0.5" r="0.5" transform="matrix(1 0 0 -1 5 10)" fill="var(--mw-icon-glyph-content-yellow, #674C07)"/>
<circle cx="0.5" cy="0.5" r="0.5" transform="matrix(1 0 0 -1 9 10)" fill="var(--mw-icon-glyph-content-yellow, #674C07)"/>
<circle cx="0.5" cy="0.5" r="0.5" transform="matrix(1 0 0 -1 7 10)" fill="var(--mw-icon-glyph-content-yellow, #674C07)"/>
<circle cx="0.5" cy="0.5" r="0.5" transform="matrix(1 0 0 -1 7 11)" fill="var(--mw-icon-glyph-content-yellow, #674C07)"/>
<circle cx="0.5" cy="0.5" r="0.5" transform="matrix(1 0 0 -1 11 4)" fill="var(--mw-icon-glyph-content-yellow, #674C07)"/>
<circle cx="0.5" cy="0.5" r="0.5" transform="matrix(1 0 0 -1 10 5)" fill="var(--mw-icon-glyph-content-yellow, #674C07)"/>
<circle cx="0.5" cy="0.5" r="0.5" transform="matrix(1 0 0 -1 12 7)" fill="var(--mw-icon-background-light-yellow, #FFF5BC)"/>
<circle cx="0.5" cy="0.5" r="0.5" transform="matrix(1 0 0 -1 10 6)" fill="var(--mw-icon-background-light-yellow, #FFF5BC)"/>
<circle cx="0.5" cy="0.5" r="0.5" transform="matrix(1 0 0 -1 13 6)" fill="var(--mw-icon-glyph-content-yellow, #674C07)"/>
<circle cx="0.5" cy="0.5" r="0.5" transform="matrix(1 0 0 -1 12 5)" fill="var(--mw-icon-glyph-content-yellow, #674C07)"/>
<circle cx="0.5" cy="0.5" r="0.5" transform="matrix(1 0 0 -1 10 8)" fill="var(--mw-icon-glyph-content-yellow, #674C07)"/>
<circle cx="0.5" cy="0.5" r="0.5" transform="matrix(1 0 0 -1 11 9)" fill="var(--mw-icon-glyph-content-yellow, #674C07)"/>
<circle cx="0.5" cy="0.5" r="0.5" transform="matrix(1 0 0 -1 12 8)" fill="var(--mw-icon-glyph-content-yellow, #674C07)"/>
<circle cx="0.5" cy="0.5" r="0.5" transform="matrix(1 0 0 -1 9 6)" fill="var(--mw-icon-glyph-content-yellow, #674C07)"/>
<circle cx="0.5" cy="0.5" r="0.5" transform="matrix(1 0 0 -1 11 5)" fill="var(--mw-icon-background-light-yellow, #FFF5BC)"/>
<circle cx="0.5" cy="0.5" r="0.5" transform="matrix(1 0 0 -1 12 6)" fill="var(--mw-icon-background-light-yellow, #FFF5BC)"/>
<circle cx="0.5" cy="0.5" r="0.5" transform="matrix(1 0 0 -1 10 7)" fill="var(--mw-icon-background-light-yellow, #FFF5BC)"/>
<circle cx="0.5" cy="0.5" r="0.5" transform="matrix(1 0 0 -1 11 6)" fill="var(--mw-icon-background-light-yellow, #FFF5BC)"/>
<circle cx="0.5" cy="0.5" r="0.5" transform="matrix(1 0 0 -1 9 7)" fill="var(--mw-icon-glyph-content-yellow, #674C07)"/>
<circle cx="0.5" cy="0.5" r="0.5" transform="matrix(1 0 0 -1 13 7)" fill="var(--mw-icon-glyph-content-yellow, #674C07)"/>
<circle cx="0.5" cy="0.5" r="0.5" transform="matrix(1 0 0 -1 11 7)" fill="var(--mw-icon-glyph-content-yellow, #674C07)"/>
<circle cx="0.5" cy="0.5" r="0.5" transform="matrix(1 0 0 -1 11 8)" fill="var(--mw-icon-glyph-content-yellow, #674C07)"/>
<circle cx="8.5" cy="9.5" r="0.5" fill="var(--mw-icon-glyph-content-blue, #1656A8)"/>
<circle cx="12.5" cy="6.5" r="0.5" fill="var(--mw-icon-glyph-content-blue, #1656A8)"/>
</svg>
