<svg width="20" height="16" viewBox="0 0 20 16" fill="none" xmlns="http://www.w3.org/2000/svg">
<path d="M0.5 0.5H18.5V6.5H0.5V0.5Z" fill="var(--mw-icon-background-default-white, white)"/>
<path d="M0.5 8.5H18.5V14.5H0.5V8.5Z" fill="var(--mw-icon-background-default-white, white)"/>
<path d="M1 12.5H2.5V13.5H4.5V11.5H6.5V12.5H8.5V10.5H10.5V9.5H12.5V13.5H14.5V11.5H16.5V12.5H18" stroke="#D95319"/>
<path d="M0.5 2.5L3.5 5L4.78947 2.375L5.5 4.5L7.1579 2.375L9.05263 3.5L10.4737 5L12.3684 3.125L14.2632 4.25L15 4.5L16.1579 2.375L18.5 1.5" stroke="#0072BD"/>
<path d="M0.5 0.5H18.5V6.5H0.5V0.5Z" stroke="var(--mw-icon-border-default-gray, #616161)" stroke-linejoin="round"/>
<path d="M0.5 8.5H18.5V14.5H0.5V8.5Z" stroke="var(--mw-icon-border-default-gray, #616161)" stroke-linejoin="round"/>

</svg>
