<svg width="20" height="16" viewBox="0 0 20 16" fill="none" xmlns="http://www.w3.org/2000/svg">
<path d="M0.911133 2.73749H18.3588V6.00582H0.911133V2.73749Z" fill="#4A2B49"/>
<path d="M16.0135 13.4685C15.9407 13.5164 15.8678 13.5403 15.7949 13.5881C15.965 13.8273 16.1107 14.0426 16.2807 14.2818C16.3536 14.2818 16.4265 14.2818 16.5236 14.3057C16.5965 14.21 18.159 14.3775 18.2319 14.2818C18.2562 14.0665 16.2321 13.923 16.5236 13.5881C16.4508 13.5164 16.3727 13.3839 16.2998 13.3121C16.2026 13.3361 16.1107 13.4207 16.0135 13.4685Z" fill="#4D2B48"/>
<path d="M18.306 3.47035C18.306 3.47035 18.1756 3.82913 18.0785 3.87697C18.0299 3.90089 17.957 3.92481 17.9084 3.94873C17.2769 4.164 16.5725 4.164 16.0381 4.61846C16.1352 4.71414 16.2081 4.80982 16.3053 4.90549C16.5482 5.21644 16.7668 5.52739 17.0097 5.83834C17.1797 5.81442 17.3255 5.81442 17.4955 5.7905C17.5441 5.71874 17.5927 5.62307 17.6412 5.55131C17.6655 5.50347 17.6898 5.45563 17.7141 5.43171C17.8356 5.21644 17.957 5.00117 18.1999 4.90549C18.4428 4.52279 18.0828 4.90549 18.4229 4.90549C18.1557 4.92941 18.6901 4.90549 18.4229 4.90549C18.18 4.88157 18.6415 5.02509 18.4229 4.90549C18.35 4.90549 18.4958 4.90549 18.4229 4.90549C18.4229 6.00577 18.4229 3.80521 18.4229 4.90549C18.1314 4.69022 18.6217 3.58994 18.306 3.47035C18.4517 3.51818 18.1845 3.42251 18.306 3.47035C18.5732 3.5421 18.0388 3.39859 18.306 3.47035C18.4031 3.49426 18.2088 3.47035 18.306 3.47035C18.4031 3.56602 18.1845 3.39859 18.306 3.47035Z" fill="#3F213E"/>
<path d="M18.3746 9.21094C18.004 9.29708 17.5677 9.73187 17.2157 10.0784C17.1429 10.485 16.3092 10.5315 16.6007 11.0338C16.7221 11.2251 16.9632 11.3495 17.1819 11.4212C17.4005 11.493 17.6354 11.4708 17.8783 11.4947C17.9026 11.423 17.957 11.3397 17.9813 11.268C17.9813 11.2441 17.9813 11.2441 18.0056 11.2201C17.9327 11.1723 17.8841 11.1005 17.8356 11.0527C17.7384 10.9331 17.6898 10.8135 17.6655 10.7178C17.6655 10.6939 17.6655 10.67 17.6655 10.6461C17.6655 10.5982 17.6655 10.5504 17.6898 10.5026C17.7627 10.3351 17.9327 10.2155 18.2485 10.1438L18.3746 9.21094Z" fill="#A00F19"/>
<path d="M18.3259 13.7564C18.079 13.7198 17.8199 13.6235 17.5441 13.4446C17.3255 13.3011 16.864 13.5403 16.5239 13.5882C16.2324 13.923 16.7911 13.8513 16.7668 14.0426C16.9611 14.0905 17.1797 14.0665 17.3983 14.0665C17.617 14.0665 17.8113 14.0905 18.0056 14.2579C18.1513 14.2818 18.2201 14.2989 18.2201 14.2989L18.3259 13.7564Z" fill="#CEB09A"/>
<path d="M0.906301 2.80818L0.90625 5.26434C0.90625 5.26434 1.12492 5.09691 1.22208 5.02515C1.99936 4.54677 2.92201 4.66254 3.82075 4.7343C4.06365 4.7343 4.28807 4.71769 4.50668 4.71769C4.65242 4.74161 4.70188 4.76319 4.79905 4.85887C4.87192 4.93062 4.88641 4.98188 4.95928 5.07756C5.27506 5.07756 5.65093 5.08033 5.991 5.08033C6.08816 4.86505 6.17495 4.64882 6.27212 4.45747C5.78631 3.95517 5.25426 3.44649 4.76845 2.94419C4.18549 3.23122 3.62681 3.63784 2.94668 3.13554C2.48517 2.80068 1.36782 2.75284 1.36782 2.75284C0.906404 2.80818 0.906335 2.81084 0.906301 2.80818C0.906267 2.80553 0.906267 2.80553 0.906301 2.80818Z" fill="#432543"/>
<path d="M6.24864 4.47498C6.15148 4.69026 6.07861 4.90553 5.98145 5.09688C6.29722 5.14472 6.54012 5.31215 6.71015 5.55134C7.17167 5.6231 7.63318 5.69486 8.0947 5.76662C8.31331 5.35999 8.48334 4.90553 8.89628 4.6185C8.87199 4.40323 8.79911 4.30755 8.70195 4.23579C8.65337 4.21187 8.62908 4.18796 8.5805 4.18796C8.38618 4.14012 8.11899 4.21188 7.90038 4.18796C8.14328 4.54674 8.0806 4.81851 7.64337 4.98594C6.98754 5.24905 6.68781 4.8047 6.42062 4.37415C6.39633 4.39807 6.38728 4.39634 6.36299 4.42026C6.29012 4.42026 6.27293 4.45107 6.24864 4.47498Z" fill="#D5B594"/>
<path d="M8.87287 4.61844C8.45993 4.90547 8.31419 5.35993 8.07129 5.76656C8.16845 5.79048 8.24132 5.79048 8.33848 5.8144C8.50851 5.88615 8.65426 5.95791 8.82429 6.02967C8.87287 5.45561 9.48012 5.5752 9.7959 5.33601C9.94164 4.97723 10.306 4.64236 10.0631 4.1879C9.82019 4.30749 9.60158 4.49884 9.33438 4.59452C9.18864 4.64236 9.0429 4.66628 8.87287 4.61844Z" fill="#867D0E"/>
<path d="M7.63444 5.00113C8.07166 4.8337 8.17842 4.5673 7.91122 4.18459C7.61974 3.92148 7.33656 3.74034 7.09365 3.76426C6.9722 3.76426 6.83286 3.82909 6.7357 3.92477C6.71141 3.94869 6.66282 3.99653 6.63853 4.04437C6.56566 4.14004 6.49279 4.23572 6.41992 4.37923C6.71141 4.80978 6.9786 5.24032 7.63444 5.00113Z" fill="#DEC5AF"/>
<path d="M10.0621 4.18791C10.305 4.64237 9.94066 4.95332 9.79492 5.33602C9.8435 5.57521 10.0008 5.91845 10.2437 5.67925C10.608 5.29655 11.1919 5.05011 11.2647 4.45213C11.0947 4.2847 10.9359 4.05743 10.7659 3.89C10.693 3.89 10.6407 3.89273 10.5678 3.91665C10.3735 3.94057 10.2079 4.04439 10.0621 4.18791Z" fill="#A39B1E"/>
<path d="M13.6827 3.47038C13.6827 3.51822 13.6827 3.56605 13.6827 3.58997C13.6584 3.66173 13.6287 3.70389 13.5801 3.75173C13.5558 3.77565 13.4774 3.8413 13.4288 3.86522C13.3074 3.9609 13.1969 4.02052 13.124 4.14011C13.1483 4.21187 13.1254 4.329 13.1497 4.40076C13.7812 5.09441 14.4357 4.54674 15.0672 4.3793L15.1401 4.35538C15.1158 4.28363 15.0915 4.21187 15.0915 4.14011C14.8486 3.90092 14.6057 3.68565 14.3628 3.44646C14.3385 3.44646 14.3142 3.44646 14.29 3.44646C14.1685 3.42254 14.0471 3.42254 13.9013 3.39862C13.8284 3.44646 13.7556 3.47038 13.6827 3.47038Z" fill="#AAA323"/>
<path d="M14.3574 3.445C14.5861 3.72163 14.8457 3.92754 15.0886 4.16673C15.2343 3.90362 15.4553 3.68559 15.5282 3.42248C15.5525 3.37464 15.5525 3.30289 15.5525 3.25505C15.5525 3.11153 15.4796 2.9441 15.3096 2.75275C15.261 2.80058 15.2124 2.87234 15.1638 2.9441C15.1395 2.99194 15.1152 3.01586 15.0909 3.06369C15.0667 3.08761 15.0667 3.11153 15.0424 3.13545C15.0181 3.15937 14.9938 3.20721 14.9695 3.23113C14.9452 3.25505 14.9209 3.30289 14.8723 3.3268C14.848 3.35072 14.8238 3.37464 14.7752 3.39856L14.7509 3.42248C14.678 3.49424 14.5517 3.49284 14.3574 3.445Z" fill="#655332"/>
<path d="M14.8241 4.78593C14.4841 5.02512 13.8525 4.8816 13.6582 5.33607H13.6825C13.7068 5.33607 13.7311 5.35999 13.7554 5.35999C14.3383 5.45566 14.9456 4.8816 15.5286 5.33607C15.65 5.52742 15.82 5.55134 16.0387 5.57526C16.2271 5.54118 16.2856 5.34422 16.3099 5.20071C16.3099 5.12895 16.3351 5.09254 16.3058 4.97728C16.3058 4.95336 16.3058 4.90552 16.3058 4.8816C16.2087 4.78593 16.1358 4.69025 16.0387 4.59457C15.7472 4.45106 15.483 4.30698 15.143 4.35481L15.0367 4.38145C15.0124 4.5728 14.9456 4.71417 14.8241 4.78593Z" fill="#7F6A07"/>
<path d="M15.9652 6.19718C15.9166 6.2211 15.868 6.24501 15.8438 6.26893C16.0338 6.4099 15.9195 6.60867 15.9438 6.80002C15.9438 6.82394 15.9663 6.94811 15.9906 6.97203C16.0149 6.99595 16.0258 7.0155 16.0501 7.03942C16.1958 6.94374 16.3761 6.84605 16.5219 6.75037C16.5462 6.36766 16.7911 6.2211 17.0583 6.1015C17.2283 6.02974 17.3791 5.98154 17.4763 5.86195L17.4871 5.82293C17.4871 5.79902 17.4712 5.76663 17.4712 5.76663C17.3012 5.79055 17.1554 5.79055 16.9854 5.81447C16.7425 5.88623 16.5239 5.95798 16.281 6.02974C16.1838 6.07758 16.0867 6.14934 15.9652 6.19718Z" fill="#AE5F29"/>
<path d="M17.4717 5.86226C17.7389 5.86226 17.9818 5.83834 18.249 5.83834C18.249 5.83834 18.2898 5.32429 18.4195 5.12568C18.4195 5.12568 18.3743 4.92298 18.2043 4.85123C17.9371 4.9469 17.7875 5.1686 17.6903 5.38388C17.666 5.43171 17.6417 5.47955 17.6174 5.50347C17.5688 5.59915 17.5203 5.6709 17.4717 5.74266V5.7905C17.496 5.83834 17.4717 5.86226 17.4717 5.86226Z" fill="#695D17"/>
<path d="M16.3053 4.97726C16.3053 5.04902 16.3053 5.09686 16.281 5.16861C16.2567 5.33605 16.2081 5.47956 16.0381 5.57524C16.111 5.71875 16.2275 5.88697 16.3003 6.03048C16.5432 5.95872 16.7525 5.8859 16.9954 5.81414C16.7525 5.50319 16.5239 5.16861 16.281 4.85767C16.3053 4.9055 16.3053 4.95334 16.3053 4.97726Z" fill="#4B2535"/>
<path d="M1.43913 14.4552C1.48771 14.4312 1.81899 14.2393 1.84328 14.2154C1.86757 14.1915 1.91517 14.0269 1.91517 14.003C1.93946 13.9313 1.91844 13.9185 1.91844 13.8228C1.5298 13.8228 1.09975 13.7555 0.905432 13.3728C0.516788 13.7555 1.31844 13.74 0.759766 13.7878L1.43913 14.4552Z" fill="#8E1016"/>
<path d="M2.39898 14.21L2.3868 14.0426C2.21677 13.9708 2.07103 13.923 1.901 13.8512C1.901 13.9469 1.901 14.0187 1.87671 14.1143C1.85242 14.1622 1.82812 14.21 1.82812 14.21H2.39898Z" fill="#825595"/>
<path d="M15.7957 10.1677C15.6256 10.1916 15.4799 10.2394 15.3342 10.2873C15.3099 10.4308 15.2613 10.5025 15.2127 10.5743C15.1641 10.6461 15.067 10.6939 14.9941 10.7178C14.9455 10.7417 14.8726 10.7417 14.8241 10.7657C14.6297 10.7896 14.4354 10.8135 14.2897 10.8852C14.2897 10.8852 14.2897 10.8852 14.2654 10.8852C14.2411 10.8852 14.2168 10.9092 14.1925 10.9092C14.1682 10.9331 14.1439 10.9331 14.1196 10.957C14.0954 11.244 13.9982 11.4115 13.8767 11.5071C13.8525 11.5071 13.8525 11.5311 13.8282 11.5311C13.8039 11.555 13.7796 11.555 13.7553 11.5789C13.731 11.6028 13.6824 11.6028 13.6581 11.6267C13.6096 11.6267 13.5853 11.6507 13.5367 11.6507C13.3424 11.6985 13.1237 11.6985 12.9294 11.6985C12.8566 11.8659 12.7594 12.0094 12.6865 12.1769C12.7351 12.2726 12.808 12.4639 12.8323 12.4639C14.0954 12.153 15.2856 13.2532 16.573 12.6553C16.7916 12.5117 17.0345 12.3443 17.2531 12.2008C17.4717 11.9616 17.6903 11.7224 17.8846 11.4832C17.6417 11.4832 17.3988 11.4593 17.1559 11.3876C16.9373 11.3158 16.743 11.2201 16.6215 11.0288C16.3301 10.5265 17.1559 10.4786 17.2288 10.072C16.743 10.0002 16.2815 10.0481 15.7957 10.1677Z" fill="#B21E24"/>
<path d="M18.3694 8.6369C18.2722 8.6369 18.3217 8.6369 18.2002 8.6369C17.8602 8.94785 17.4229 9.06745 17.01 9.09136C15.9898 9.11528 14.9696 9.01961 14.0709 9.71326C13.8523 9.8807 13.6337 9.68934 13.415 9.59367C13.415 9.83286 13.415 10.072 13.415 10.3112C14.0466 10.3112 14.6781 10.3112 15.3097 10.3112C15.4554 10.2634 15.6255 10.2156 15.7712 10.1916C16.257 10.096 16.7185 10.0481 17.2286 10.072C17.8365 9.4493 18.4206 9.42908 18.4206 9.42908L18.3694 8.6369Z" fill="#BD191F"/>
<path d="M17.252 12.177C17.321 12.5489 17.7229 12.8819 18.3639 13.1288V10.9489C18.319 10.9338 18.2723 10.9205 18.2236 10.9092C18.1507 11.0288 18.0535 11.1245 17.9807 11.2441C17.9807 11.268 17.9807 11.268 17.9564 11.2919C17.9321 11.3637 17.9078 11.4115 17.8835 11.4833C17.6892 11.6986 17.4706 11.9378 17.252 12.177Z" fill="#FBF8F5"/>
<path d="M17.987 11.2318C18.0599 11.1123 18.1538 11.0263 18.2267 10.9067C18.2267 10.9067 18.3455 10.2917 18.4184 10.0765C18.4184 10.0765 18.4184 10.0765 18.1757 10.1199C17.86 10.1917 17.6899 10.3113 17.6171 10.4787C17.5928 10.5265 17.5928 10.5744 17.5928 10.6222C17.5928 10.6461 17.5928 10.67 17.5928 10.694C17.6171 10.8136 17.6656 10.9092 17.7628 11.0288C17.86 11.1006 17.9141 11.184 17.987 11.2318Z" fill="#800914"/>
<path d="M17.253 12.1769C17.0344 12.3204 16.7915 12.4878 16.5729 12.6314C16.4514 12.7749 16.3382 12.9536 16.2168 13.0971C16.2411 13.1688 16.2708 13.2421 16.2951 13.3139C16.368 13.3857 16.4497 13.5235 16.5225 13.5952C16.8626 13.5474 17.1792 13.3986 17.3979 13.5421C17.6858 13.7288 18.2706 13.8024 18.3563 13.7728L18.4013 13.1441C18.4013 13.1441 17.5816 12.8173 17.253 12.1769Z" fill="#DEC0A9"/>
<path d="M16.5475 6.72332C17.5493 6.34157 17.7614 7.60928 18.3444 6.34157V7.86576C17.5428 7.86576 17.349 7.704 16.5475 7.704C16.4746 7.68008 16.3774 7.68008 16.3046 7.65616L16.0859 7.01035C16.2317 6.91467 16.4017 6.81899 16.5475 6.72332Z" fill="#D84F10"/>
<path d="M1.51175 5.83877C1.68178 5.81485 1.83346 5.83877 1.93062 5.83877C2.26855 6.09289 2.1668 6.42564 2.10495 6.74399C2.42073 6.74399 2.75132 6.74726 3.0671 6.74726C3.11568 6.69942 3.16426 6.62767 3.18855 6.57983C3.23713 6.50807 3.33262 6.3839 3.3812 6.31214C3.28404 6.21646 3.19443 6.15314 3.09727 6.05746C2.90294 5.72259 2.77828 5.34303 2.34105 5.27128C2.26818 5.27128 2.17216 5.24913 2.09929 5.24913C2.60938 4.62723 3.29124 5.13563 3.83099 4.71209C2.93225 4.61641 2.09506 4.45351 1.31777 4.95582C1.19632 5.02757 1.00732 5.14792 0.910156 5.2436C0.934447 5.57846 1.14739 5.86269 1.51175 5.83877Z" fill="#757918"/>
<path d="M3.35867 5.47961C3.5287 5.40785 3.69874 5.64704 3.84448 5.83839C3.94164 5.95799 4.06309 6.07758 4.16025 6.07758C4.20883 6.07758 4.23312 6.07758 4.2817 6.02975C4.5246 6.02975 4.74322 6.02975 4.98612 6.02975C4.91325 5.76664 4.76955 5.55758 4.62381 5.31838C4.57523 5.24663 4.55533 5.17422 4.53104 5.10246C4.50675 5.05462 4.47602 4.95339 4.47602 4.88163C4.47602 4.80987 4.47602 4.76203 4.50031 4.69028C4.25741 4.69028 4.01451 4.7142 3.7959 4.7142C3.31009 5.07298 2.58138 4.64244 2.07129 5.26434C2.14416 5.26434 2.21703 5.26434 2.26561 5.28825C2.70284 5.36001 2.87287 5.7188 3.06719 6.05367C3.16435 5.69488 3.26151 5.52745 3.35867 5.47961Z" fill="#848217"/>
<path d="M1.48889 6.34066C1.7075 6.46025 1.92611 6.67553 2.12043 6.74728C2.21759 6.34066 2.36333 5.91011 1.92611 5.81444C1.82895 5.79052 1.7075 5.79052 1.53747 5.81444C1.17311 5.83836 0.910769 5.24637 0.910769 5.24637C0.646447 5.85803 0.881377 7.01039 0.881377 7.01039C1.00283 6.22106 1.22169 6.19714 1.48889 6.34066Z" fill="#636D16"/>
<path d="M4.49988 4.69028C4.47559 4.76203 4.47559 4.83379 4.47559 4.88163C4.47559 4.95339 4.49988 5.00122 4.49988 5.07298C4.52417 5.16866 4.57275 5.24042 4.59704 5.31217C4.71849 5.55136 4.91281 5.76664 4.98568 6.02975C5.15571 6.02975 5.30146 6.02975 5.47149 6.02975C5.66581 5.79056 5.66581 5.64704 5.59294 5.52745C5.54436 5.47961 5.49578 5.43177 5.42291 5.38393C5.37433 5.36001 5.32575 5.33609 5.27717 5.31217C5.15571 5.24042 5.03426 5.16866 4.98568 5.07298C4.9371 4.97731 4.86423 4.90555 4.79136 4.83379C4.74278 4.76203 4.62133 4.7142 4.49988 4.69028Z" fill="#5F6D19"/>
<path d="M5.2964 5.33777C5.34498 5.36169 5.39681 5.38306 5.4454 5.40698C5.51827 5.45482 5.55424 5.528 5.60282 5.57584C5.67569 5.69544 5.64534 5.79341 5.45102 6.0326C5.45102 6.10436 5.43134 6.24874 5.43134 6.3205C5.60137 6.24874 5.8123 6.14312 5.98234 6.07136C6.00663 5.66473 6.25331 5.59998 6.61767 5.64782C6.64196 5.6239 6.69458 5.57485 6.71887 5.55093C6.54884 5.28782 6.29849 5.12078 6.00701 5.07294C5.69124 5.07294 5.32444 5.07199 4.98438 5.07199C5.03296 5.16767 5.17495 5.26602 5.2964 5.33777Z" fill="#515A1B"/>
<path d="M11.2806 4.32975C11.7421 4.40151 12.1768 4.1162 12.6383 4.09228C12.6383 4.09228 12.6383 4.09228 12.6626 4.09228C12.7354 4.09228 12.8083 4.09228 12.8812 4.09228C12.954 4.09228 13.0269 4.1162 13.1241 4.14012C13.1969 4.02052 13.3427 3.94877 13.4641 3.85309C13.4884 3.82917 13.5127 3.80525 13.5613 3.78133C13.6099 3.7335 13.6585 3.66174 13.6827 3.58998C13.6827 3.54214 13.707 3.51822 13.6827 3.47039C13.0026 3.18336 12.4197 3.37471 11.8367 3.58998C11.7152 3.63782 11.5938 3.68566 11.4966 3.7335C11.448 3.75741 11.3752 3.78133 11.3266 3.80525C11.1566 3.85309 10.923 3.85896 10.7529 3.88288C10.923 4.05032 11.108 4.30755 11.278 4.47499C11.2537 4.40323 11.2806 4.40069 11.2806 4.32975Z" fill="#452941"/>
<path d="M6.61328 5.62309C6.66186 5.67093 6.68615 5.71876 6.71044 5.79052C7.09909 5.93404 7.28667 6.25127 7.57815 6.51438C7.67532 6.61006 7.77898 6.689 7.87614 6.76076C7.94901 6.76076 8.04641 6.74729 8.11928 6.74729C8.19215 6.60377 8.26502 6.46026 8.3136 6.29282C8.36218 6.14931 8.41623 5.93481 8.35141 5.81422C8.25424 5.7903 8.19215 5.79052 8.09499 5.7666C7.63347 5.69485 7.17196 5.62309 6.71044 5.55133C6.66186 5.57525 6.63757 5.59917 6.61328 5.62309Z" fill="#706119"/>
<path d="M9.33431 6.4842C9.86869 6.50812 10.2088 5.95798 10.7431 6.05366C10.8403 5.74271 11.1561 5.59919 11.399 5.40784C11.4476 5.36 11.498 5.36372 11.5466 5.31588C11.5952 5.26805 11.6176 5.19257 11.6419 5.14473C11.6662 5.09689 11.706 4.97978 11.7303 4.90803C11.5845 4.69275 11.4233 4.52283 11.2775 4.33148C11.2775 4.37932 11.2532 4.42716 11.2532 4.475C11.1804 5.07297 10.5731 5.28825 10.233 5.67095C10.0144 5.91014 9.86547 5.5604 9.7926 5.3212C9.47683 5.58431 8.87013 5.4222 8.81836 6.02875C8.89123 6.02875 8.96995 6.07758 9.01853 6.07758C9.21286 6.12541 9.31002 6.24501 9.33431 6.4842Z" fill="#999219"/>
<path d="M8.30328 6.29119C8.2547 6.43471 8.19271 6.60375 8.11984 6.74726C8.4164 7.08183 8.07167 7.40381 8.09596 7.69084C8.33887 7.54733 8.58136 7.36916 8.84855 7.22564C8.82426 6.86686 9.01858 6.62767 9.33435 6.48415C9.31006 6.26888 9.24406 6.1351 9.07403 6.08726C9.02545 6.06334 8.89839 6.02697 8.82552 6.02697C8.65549 5.95521 8.52554 5.88771 8.35551 5.81595C8.40409 5.95946 8.35186 6.14768 8.30328 6.29119Z" fill="#9B7615"/>
<path d="M12.9981 5.74139C13.1681 5.81315 13.39 5.76873 13.6572 5.6013C13.6572 5.52954 13.6734 5.41679 13.6734 5.32112C13.8373 4.93808 14.4633 5.04073 14.8277 4.80154C14.9492 4.72978 15.0183 4.59454 15.0426 4.37927C14.411 4.54671 13.7795 5.04901 13.1479 4.37927C12.9779 4.61846 12.8321 4.85765 12.6621 5.09685C12.7107 5.40779 12.828 5.66963 12.9981 5.74139Z" fill="#8D8717"/>
<path d="M12.8207 4.06029C12.8207 4.06029 12.4668 4.08157 12.4425 4.08157C11.981 4.12941 11.6646 4.3636 11.2666 4.32813C11.4123 4.54341 11.5682 4.71418 11.714 4.90554C11.884 4.95337 11.9083 5.07297 11.9326 5.19257C11.9326 5.2404 11.9671 5.33259 11.9671 5.35651C12.1372 5.28475 12.2671 5.2332 12.4371 5.16145C12.51 5.13753 12.6344 5.12598 12.7073 5.12598C12.8773 4.88679 12.9838 4.63471 13.1539 4.39552C13.1296 4.32376 13.1511 4.19064 13.1268 4.11889C13.054 4.11889 12.8936 4.08421 12.8207 4.06029Z" fill="#402637"/>
<path d="M13.6338 6.26889C13.9496 6.29281 14.1553 6.13045 14.3739 5.96302C14.4468 5.91518 14.5343 5.86012 14.6314 5.81229C14.9472 5.64485 15.2413 5.51158 15.5571 5.34415C14.961 4.8247 14.3625 5.43172 13.7795 5.33604C13.7552 5.33604 13.731 5.31212 13.7067 5.31212L13.6662 5.33347C13.6662 5.40523 13.6581 5.45564 13.6581 5.55131C13.6338 5.81442 13.6338 6.05362 13.6338 6.26889Z" fill="#6B6407"/>
<path d="M16.0619 5.57524C15.8676 5.57524 15.6733 5.5274 15.5518 5.33604C15.236 5.50348 14.9203 5.64699 14.6045 5.81443C14.6774 5.88618 14.7745 5.98186 14.8474 6.05362C15.0328 6.30532 15.2117 6.38848 15.3818 6.55592C15.5275 6.46024 15.6976 6.36456 15.8433 6.29281C15.8919 6.26889 15.9405 6.24497 15.9647 6.22105C16.0862 6.14929 16.1834 6.10145 16.3048 6.0297C16.2319 5.86226 16.1348 5.71875 16.0619 5.57524Z" fill="#704C06"/>
<path d="M16.5244 6.74727C17.3503 6.74727 17.8723 7.5823 18.431 6.31458C18.3581 6.14715 18.3219 6.00578 18.249 5.83834C18.3948 5.81442 18.1033 5.83834 18.249 5.83834C17.9818 5.83834 17.7389 5.86226 17.4717 5.86226C17.3746 5.98186 17.1381 6.04745 16.9924 6.11921C16.7252 6.23881 16.5244 6.36456 16.5244 6.74727Z" fill="#FA6711"/>
<path d="M15.844 6.26891C15.6983 6.36458 15.5282 6.46026 15.3825 6.53202C15.3582 6.60377 15.3339 6.67553 15.2853 6.72337C15.2125 6.96256 15.0424 7.10608 14.8238 7.20175C14.7995 7.27351 14.7861 7.37283 14.7861 7.42066C14.8347 7.4685 14.9059 7.51646 14.9302 7.5643C14.9788 7.61214 15.0419 7.64414 15.0905 7.69198C15.2362 7.69198 15.4201 7.7168 15.5659 7.7168C15.8088 7.7168 16.0757 7.65297 16.3186 7.65297C16.2458 7.43769 16.1664 7.2263 16.0935 7.01103C16.0449 6.98711 15.9897 6.96256 15.9897 6.93864C15.9897 6.91472 15.9655 6.86688 15.9655 6.84296C15.9169 6.65161 16.1112 6.41242 15.844 6.26891Z" fill="#E85714"/>
<path d="M2.37949 14.0578C2.52524 13.9142 2.75702 13.6776 2.90276 13.5102C2.82989 13.271 2.73793 13.0578 2.66506 12.8186C2.20354 12.6272 1.55205 12.9874 1.11483 12.5807C1.04196 12.8199 0.931393 13.1525 0.882812 13.3916C1.07713 13.7743 1.51047 13.8615 1.89912 13.8615C2.06915 13.9332 2.20946 13.986 2.37949 14.0578Z" fill="#664D17"/>
<path d="M0.928894 13.3729C0.92845 13.3743 1.1395 12.8405 1.18808 12.6013C1.06663 12.5057 0.867188 12.3922 0.867188 12.3922C0.867188 12.3922 0.92845 13.3743 0.928894 13.3729Z" fill="#D5421D"/>
<path d="M2.30477 14.383L4.33006 14.2818C4.08716 14.3057 4.57296 14.234 4.33006 14.2818C4.33006 14.2818 4.62154 14.2101 4.743 14.0665C4.03858 14.1622 3.40869 14.0789 2.89859 13.5048C2.75285 13.6484 2.55687 13.8513 2.41113 14.0187C2.38684 14.0426 2.38684 14.0426 2.36255 14.0665C2.26539 14.3536 2.30477 14.383 2.30477 14.383Z" fill="#43253F"/>
<path d="M10.0728 14.3375L11.6424 14.3161C11.6424 14.3161 11.277 14.0187 11.277 13.8512C11.1555 13.8512 11.0341 13.8512 10.9126 13.8512C10.6454 13.8512 10.2956 13.8345 10.0284 13.8106C10.0041 13.8823 9.96582 14.0051 9.96582 14.0768C9.96582 14.2443 10.0728 14.3375 10.0728 14.3375Z" fill="#6B4274"/>
<path d="M12.3034 12.4122C12.2548 12.4601 12.2207 12.5178 12.2002 12.5835C12.3702 12.9184 12.5403 13.2293 12.7103 13.5642C12.856 13.5642 13.0018 13.5642 13.1718 13.5642C13.9248 13.2772 14.7021 13.2772 15.4794 13.2293C15.7466 13.2054 15.9646 13.1884 16.2318 13.1167C16.3931 12.9437 16.4718 12.7614 16.5933 12.6179C15.3059 13.2159 14.1121 12.1328 12.849 12.4437C12.8247 12.4437 12.7589 12.2726 12.7103 12.1769C12.6374 12.1769 12.5475 12.1918 12.4746 12.1918C12.4017 12.2636 12.352 12.3405 12.3034 12.4122Z" fill="#740B15"/>
<path d="M12.9049 9.33051C12.9049 9.64146 13.2206 10.072 13.0749 10.3112C13.002 10.4308 12.832 10.5026 12.4676 10.5026C12.4676 10.9092 12.4434 11.3158 12.4434 11.7224C12.4434 11.8659 12.4562 12.0501 12.4805 12.1937C12.5534 12.1937 12.639 12.1881 12.7119 12.1881C12.7848 12.0207 12.9214 11.8033 12.9943 11.6358C13.14 11.3249 13.3511 11.148 13.6426 10.9567C13.5697 10.7414 13.4878 10.4547 13.415 10.2394C13.415 10.0002 13.415 9.76106 13.415 9.52187C13.3907 9.45011 13.3907 9.37835 13.3907 9.30659C13.2449 9.35443 13.0749 9.35443 12.9049 9.33051Z" fill="#78541E"/>
<path d="M13.6328 10.9571C13.8028 10.9571 13.9729 10.981 14.1186 10.981C14.1429 10.9571 14.1672 10.9331 14.1915 10.9331C14.2158 10.9092 14.2401 10.9092 14.2643 10.9092C14.2643 10.9092 14.2643 10.9092 14.2886 10.9092C14.4587 10.8375 14.653 10.8136 14.823 10.7896C14.8959 10.7896 14.9445 10.7657 14.9931 10.7418C15.0659 10.7179 15.1631 10.67 15.2117 10.5983C15.2602 10.5265 15.3574 10.3991 15.3817 10.2795C14.7501 10.2795 14.07 10.3113 13.4385 10.3113C13.4871 10.5026 13.5599 10.7179 13.6328 10.9571Z" fill="#A1181C"/>
<path d="M14.1191 10.9809C13.949 10.9809 13.779 10.957 13.6333 10.957C13.3418 11.1484 13.0989 11.3637 12.9531 11.6985C13.1474 11.6985 13.3661 11.6985 13.5604 11.6746C13.609 11.6746 13.6333 11.6507 13.6818 11.6507C13.7304 11.6507 13.7547 11.6268 13.779 11.6028C13.8033 11.5789 13.8276 11.5789 13.8519 11.555C13.8762 11.555 13.8762 11.5311 13.9004 11.5311C13.9976 11.4354 14.0948 11.268 14.1191 10.9809Z" fill="#D73733"/>
<path d="M15.3338 8.63692C15.0181 8.73259 14.7266 8.90003 14.4108 9.01962C14.095 9.13922 13.7793 9.21098 13.4149 9.1153C13.4149 9.21098 13.3906 9.28273 13.3906 9.37841C13.3906 9.45017 13.3906 9.52192 13.4149 9.59368C13.6335 9.68936 13.8127 9.92909 14.1503 9.69993C15.0248 9.00627 15.9897 9.13922 17.0099 9.09138C17.4228 9.09138 17.86 8.94787 18.2001 8.63692C17.9572 8.63692 17.7143 8.63692 17.4714 8.63692C16.767 8.63692 16.0383 8.63692 15.3338 8.63692Z" fill="#DE3433"/>
<path d="M17.471 8.6369C17.7139 8.6369 17.9568 8.6369 18.1997 8.6369C18.1025 8.6369 18.2969 8.6369 18.1997 8.6369C18.2726 8.6369 18.3272 8.6369 18.3758 8.6369C18.3272 8.6369 18.4001 8.6369 18.3758 8.6369V7.70405C17.5742 7.70405 17.325 7.6974 16.5234 7.6974C16.8392 8.00835 17.5661 7.89247 17.471 8.6369Z" fill="#E3352D"/>
<path d="M15.455 13.2294C14.6777 13.3011 13.9005 13.2772 13.1475 13.5642C13.3175 13.5642 13.4632 13.5881 13.6333 13.5881C14.362 13.5881 15.0664 13.5881 15.7951 13.5881C15.868 13.5403 15.9408 13.5164 16.0137 13.4685C16.1109 13.4207 16.208 13.3729 16.3052 13.325C16.2809 13.2533 16.2566 13.1815 16.2323 13.1098C15.9894 13.1576 15.7222 13.2054 15.455 13.2294Z" fill="#530C15"/>
<path d="M13.1719 13.5642C13.9249 13.2772 14.7022 13.2772 15.4794 13.2294C14.7022 13.3011 13.9006 13.2772 13.1719 13.5642Z" fill="#530C15"/>
<path d="M13.6582 13.5882C13.6582 13.6599 10.9629 14.1622 10.9629 14.234C11.3758 14.4732 14.5083 14.1861 14.9455 14.234C15.1642 14.2579 15.3828 14.2818 15.6257 14.2818C15.8686 14.2818 16.0872 14.2818 16.3058 14.2579C16.1358 14.0187 15.99 13.8034 15.82 13.5642C15.0913 13.5882 14.3626 13.5882 13.6582 13.5882Z" fill="#593255"/>
<path d="M15.5525 7.70407C15.6739 7.91934 15.6982 8.08678 15.6011 8.20637C15.5525 8.25421 15.5039 8.30205 15.431 8.34988C15.3824 8.3738 15.3582 8.39772 15.3096 8.39772C15.3096 8.46948 15.3096 8.54124 15.3096 8.63691C16.0383 8.63691 16.7427 8.63691 17.4714 8.63691C17.6171 7.84758 16.8514 8.01016 16.5599 7.69921C16.487 7.67529 16.3897 7.66816 16.3168 7.64424C16.0739 7.64424 15.7954 7.68015 15.5525 7.70407Z" fill="#EA3F38"/>
<path d="M1.42696 8.19245C1.42696 8.16853 1.39128 8.13459 1.39128 8.11067C1.31841 7.91931 1.3427 7.68012 1.29412 7.46485C1.26983 7.39309 1.24554 7.29742 1.22125 7.24958C1.17267 7.1539 1.07551 7.08214 0.95406 7.01039C1.05122 6.98647 0.856899 7.01039 0.95406 7.01039C0.711158 7.44093 0.859031 7.92308 0.859031 8.40146C1.10193 8.40146 0.978351 8.44553 1.22125 8.44553C1.24554 8.32594 1.35409 8.2642 1.42696 8.19245Z" fill="#636008"/>
<path d="M0.833008 9.16309C0.833008 9.16309 1.05157 8.8043 1.14873 8.61295C1.14873 8.54119 1.14873 8.46943 1.17302 8.39767C0.930119 8.39767 1.09372 8.39767 0.850821 8.39767L0.833008 9.16309Z" fill="#7B4108"/>
<path d="M2.38761 7.72797C2.6548 7.53662 2.82483 7.29743 2.94628 7.03432C2.99486 6.93864 3.04543 6.83421 3.06972 6.73853C2.75395 6.73853 2.42125 6.72746 2.10548 6.72746C1.91116 6.6557 1.67571 6.43452 1.48139 6.31492C1.2142 6.17141 0.977044 6.2444 0.879883 7.00981C1.00133 7.08157 1.12451 7.12999 1.1731 7.22567C1.22168 7.29743 1.24597 7.36918 1.24597 7.44094C1.29455 7.65621 1.27026 7.8954 1.34313 8.08676C1.34313 8.11068 1.40469 8.18151 1.40469 8.20543C1.76904 8.06191 2.04754 7.87149 2.38761 7.72797Z" fill="#5B5F10"/>
<path d="M2.94539 7.0104C2.82394 7.29743 2.65391 7.53662 2.38672 7.70405C2.53246 7.77581 2.70249 7.84757 2.84823 7.91933C3.04256 7.96716 3.21259 7.96716 3.35833 7.94324C3.40691 7.94324 3.45549 7.91933 3.50407 7.89541C3.57694 7.87149 3.6741 7.82365 3.72268 7.77581C3.74697 7.75189 3.79555 7.72797 3.81984 7.68013C3.89271 7.60838 3.94129 7.56054 3.98987 7.48878C4.03846 7.41702 4.08704 7.34527 4.13562 7.27351C4.25707 7.08216 4.37852 6.8908 4.54855 6.72337C4.45139 6.57985 4.37852 6.41242 4.28136 6.26891C3.96558 6.29282 3.6741 6.29282 3.35833 6.31674C3.30975 6.3885 3.23688 6.48418 3.1883 6.55594C3.13972 6.60377 3.09114 6.67553 3.06685 6.72337C3.01827 6.84297 2.99397 6.93864 2.94539 7.0104Z" fill="#A43135"/>
<path d="M4.28189 6.26891C4.28189 6.19715 4.28189 6.12539 4.28189 6.02971C4.23331 6.05363 4.20902 6.07755 4.16044 6.07755C4.06328 6.07755 3.94532 5.92237 3.84816 5.80277C3.67813 5.61142 3.50194 5.38504 3.3562 5.4568C3.25904 5.50464 3.16454 5.69485 3.06738 6.05363C3.16454 6.14931 3.2617 6.22107 3.35887 6.31674C3.67464 6.29282 3.96612 6.29282 4.28189 6.26891Z" fill="#A0981D"/>
<path d="M5.47866 6.0215C5.30862 6.0215 5.16235 6.01318 4.99232 6.01318C4.74941 6.01318 4.51829 6.02428 4.27539 6.02428C4.27539 6.09604 4.28185 6.19714 4.28185 6.29282C4.37901 6.43633 4.45189 6.60376 4.54905 6.74728C4.69479 6.81904 4.84053 6.91471 4.98627 6.98647C4.98627 6.7712 5.07889 6.65603 5.20035 6.53644C5.24893 6.4886 5.27366 6.43202 5.34653 6.38419C5.37082 6.36027 5.43649 6.33159 5.46078 6.33159C5.48507 6.23591 5.47866 6.09326 5.47866 6.0215Z" fill="#5E5F26"/>
<path d="M5.98202 6.43632C5.93344 6.81903 5.69054 7.12998 5.52051 7.46484C5.66625 7.46484 5.81199 7.44092 5.95773 7.44092C6.17634 7.27349 6.2978 7.10606 6.39496 6.89079C6.46783 6.74727 6.49212 6.60376 6.5407 6.46024C6.58928 6.24497 6.63786 6.00578 6.71073 5.79051C6.68644 5.71875 6.66215 5.67091 6.61357 5.62307C6.24922 5.55132 6.00631 5.62307 5.95773 6.05362C5.98202 6.17321 5.98202 6.31673 5.98202 6.43632Z" fill="#32260D"/>
<path d="M5.35497 6.32061C5.2821 6.36845 5.25355 6.43633 5.20497 6.48416C5.08352 6.60376 4.97265 6.75211 4.97265 6.94347C4.97265 7.01522 5.01065 7.12998 5.03494 7.22566C5.03494 7.29741 5.03494 7.36917 5.05923 7.46485C5.22926 7.48877 5.39929 7.51269 5.54503 7.51269V7.48877C5.73935 7.1539 5.95797 6.81903 6.00655 6.46024C6.03084 6.34065 6.03084 6.19713 5.98226 6.05362C5.81222 6.12538 5.66838 6.19072 5.49834 6.26248C5.44976 6.26248 5.37926 6.29669 5.35497 6.32061Z" fill="#444C16"/>
<path d="M6.71101 5.79053C6.63814 6.0058 6.58956 6.24499 6.54098 6.46026C6.4924 6.60378 6.46811 6.74729 6.39524 6.89081C6.29808 7.10608 6.11905 7.3008 5.90044 7.44432C5.94902 7.44432 6.07946 7.46487 6.15233 7.46487C6.29808 7.46487 6.46811 7.41703 6.61385 7.36919C6.63814 7.36919 6.68672 7.34527 6.71101 7.34527C6.78388 7.32135 6.83246 7.32135 6.90533 7.32135C7.09965 7.29743 7.26968 7.32135 7.43972 7.46487C7.60975 7.22567 7.75549 6.98648 7.92552 6.77121C7.82836 6.69945 7.7312 6.60378 7.63404 6.53202C7.31827 6.24499 7.09965 5.93404 6.71101 5.79053Z" fill="#8A2E25"/>
<path d="M8.11925 6.74728C8.04638 6.74728 7.97351 6.74728 7.90064 6.74728C7.7306 6.98648 7.58486 7.22567 7.41483 7.44094C7.39054 7.5127 7.36523 7.63537 7.36523 7.70713C7.60814 7.70713 7.87485 7.70697 8.11776 7.68305L8.11925 7.63229C8.07067 7.34526 8.53218 7.05823 8.11925 6.74728Z" fill="#927C1E"/>
<path d="M10.4762 7.27347C10.5005 7.27347 10.5491 7.27347 10.5734 7.24955C10.6462 7.24955 10.7191 7.22563 10.792 7.22563C10.962 7.20171 11.132 7.15387 11.2535 6.98644C11.4235 6.79509 11.6178 6.74725 11.8122 6.74725C11.885 6.74725 11.9579 6.74725 12.0551 6.74725C12.1036 6.74725 12.1522 6.74725 12.2008 6.74725C12.2737 6.74725 12.3465 6.74725 12.4194 6.74725C12.4194 6.74725 12.4194 6.72333 12.4437 6.72333C12.468 6.69941 12.4923 6.67549 12.5166 6.65157C12.7838 6.3167 12.468 5.98184 12.3465 5.64697C12.298 5.47954 12.298 5.3121 12.4437 5.14467C12.2737 5.21643 12.1279 5.26426 11.9579 5.33602C11.6907 5.79048 11.2535 5.95792 10.7434 6.02968C10.1847 5.934 9.84465 6.48414 9.33455 6.46022C9.01878 6.62765 8.80278 6.87521 8.82707 7.234C9.14284 7.234 9.45025 7.26168 9.76602 7.26168C10.0089 7.30952 10.2576 7.27347 10.4762 7.27347Z" fill="#505A1B"/>
<path d="M10.7412 6.02868C11.2513 5.95693 11.7144 5.79055 11.9816 5.33608C11.9816 5.28824 11.9573 5.26433 11.9573 5.21649C11.933 5.09689 11.8847 4.92392 11.7119 4.90086C11.6876 4.97262 11.701 5.03658 11.6524 5.10834C11.6281 5.15618 11.593 5.21649 11.5687 5.26433C11.5201 5.31216 11.4715 5.36 11.4229 5.38392C11.1557 5.57527 10.8384 5.71773 10.7412 6.02868Z" fill="#868010"/>
<path d="M8.11947 7.65621V7.68013C7.94944 7.91933 7.77941 8.15852 7.60938 8.37379C7.68225 8.37379 7.75512 8.39771 7.8037 8.39771C7.85228 8.39771 7.89797 8.41884 7.94655 8.41884C8.35949 8.10789 8.79045 7.95832 9.27625 7.9344C9.44628 7.91048 9.63191 7.91878 9.80195 7.9427C9.80195 7.72743 9.7955 7.46486 9.7955 7.24959C9.47972 7.24959 9.14504 7.22009 8.82927 7.22009C8.58637 7.36361 8.36237 7.5127 8.11947 7.65621Z" fill="#FCB703"/>
<path d="M12.4436 5.14468C12.2979 5.31211 12.2979 5.47954 12.3464 5.64698C12.4436 5.98185 12.7837 6.31671 12.5165 6.65158C12.4922 6.6755 12.4679 6.69942 12.4436 6.72334C12.4436 6.72334 12.4436 6.74726 12.4193 6.74726C12.5408 6.91469 12.5408 7.0582 12.5165 7.22564C12.4922 7.39307 12.4436 7.53659 12.4436 7.70402C12.6865 7.70402 12.9051 7.70402 13.148 7.70402C13.1723 7.6801 13.2209 7.65618 13.2452 7.65618C13.2695 7.63226 13.2938 7.63226 13.3423 7.60834C13.6095 7.48875 13.8767 7.46483 14.1682 7.44091C14.3868 7.44091 14.5811 7.41699 14.7998 7.41699C14.7998 7.34523 14.824 7.27348 14.824 7.22564C14.2411 7.15388 13.9496 6.72334 13.6581 6.29279C13.6581 6.0536 13.6581 5.81441 13.6581 5.59914C13.3666 5.76657 13.148 5.81441 13.0023 5.71874C12.8322 5.64698 12.7594 5.43171 12.7108 5.12076C12.6136 5.12076 12.5408 5.12076 12.4436 5.14468Z" fill="#59651C"/>
<path d="M14.3624 5.95794C14.1438 6.12538 13.9603 6.28854 13.6445 6.26463C13.8714 6.7381 14.2167 7.1539 14.7997 7.22566C15.0183 7.12998 15.2194 6.98793 15.2923 6.74874C15.0008 6.74874 14.661 6.77414 14.5395 6.41536C14.4667 6.224 14.6908 6.18128 14.8601 6.05715C14.7872 5.98539 14.6898 5.87887 14.617 5.80711C14.5684 5.83103 14.4596 5.88619 14.3624 5.95794Z" fill="#55510D"/>
<path d="M14.8478 6.05362C14.6777 6.1493 14.4591 6.24497 14.532 6.43633C14.6534 6.79511 14.9935 6.74727 15.285 6.74727C15.3336 6.67552 15.3579 6.62768 15.3822 6.55592C15.1878 6.38849 15.0178 6.22105 14.8478 6.05362Z" fill="#433207"/>
<path d="M14.1682 7.43493C13.901 7.45885 13.6294 7.45806 13.3622 7.57766C13.3379 7.60158 13.2862 7.60348 13.2376 7.6274C13.2133 7.65132 13.1718 7.68008 13.1475 7.704C13.3175 8.54117 13.7061 8.70861 14.1677 8.66077C14.2162 8.66077 14.2793 8.65288 14.3521 8.65288C14.4493 8.62896 14.5553 8.60491 14.6525 8.58099C14.8711 8.50923 15.1139 8.44808 15.3325 8.40024C15.3811 8.37632 15.4055 8.37354 15.4307 8.34982C15.5036 8.30198 15.5522 8.25414 15.6008 8.20631C15.6979 8.06279 15.6736 7.89536 15.5522 7.704C15.4065 7.704 15.2364 7.68009 15.0907 7.68009C14.8235 8.49333 14.2891 8.08671 13.8276 7.99103C14.1919 7.56049 14.6535 7.72792 15.0907 7.68009C15.0421 7.63225 14.9692 7.58441 14.9207 7.53657C14.8721 7.48873 14.8235 7.46481 14.7992 7.41697C14.568 7.39409 14.3625 7.43493 14.1682 7.43493Z" fill="#FC5355"/>
<rect x="3.49707" y="13.5826" width="2.97033" height="0.75957" fill="#502D4E"/>
<path d="M2.86269 12.2548C2.91127 12.207 3.00503 12.1688 3.1022 12.1448C3.1022 12.0731 3.1166 11.9781 3.1166 11.9303C3.01944 11.8346 2.87277 11.7942 2.72703 11.7702C2.62987 11.7463 2.53271 11.7463 2.43555 11.7224C1.90116 11.6985 1.31026 11.8072 1.16452 10.994C1.09165 10.994 1.00508 11.0153 0.932213 11.0153C0.932213 11.087 0.90526 11.1723 0.880969 11.2201C0.856679 11.6267 0.783808 12.0094 0.710938 12.4161C0.856679 12.4878 1.00242 12.5596 1.14816 12.6074C1.58539 13.038 2.18239 12.6415 2.6682 12.8329C2.6682 12.7611 2.69881 12.6794 2.69881 12.6077C2.7231 12.4642 2.74124 12.3265 2.86269 12.2548Z" fill="#B62920"/>
<path d="M4.50036 13.7556C4.40319 13.7077 4.30887 13.6139 4.26029 13.4943C3.82306 13.4465 3.43158 13.3968 3.35871 12.8706C3.26155 12.6314 3.18868 12.3922 3.09152 12.1291C2.99436 12.153 2.8972 12.1769 2.84862 12.2248C2.72717 12.3204 2.70288 12.44 2.67859 12.5836C2.67859 12.6553 2.6543 12.7271 2.6543 12.7988C2.72717 13.038 2.82433 13.2772 2.8972 13.5164C3.40729 14.1144 4.0583 14.1769 4.76271 14.0813C4.787 14.0095 4.79184 13.8752 4.81613 13.7795C4.69468 13.8273 4.57323 13.8034 4.50036 13.7556Z" fill="#CB963A"/>
<path d="M0.969929 11.0152C0.953753 11.0218 1.42838 10.1929 1.59841 9.73841C1.64699 9.64273 1.69386 9.46078 1.69386 9.34119C1.45095 9.41294 1.19666 9.52192 0.953753 9.59368C0.905173 9.97638 0.785156 10.1916 0.785156 10.1916C0.785156 10.1916 0.824187 11.1109 0.969929 11.0152Z" fill="#8D8D0E"/>
<path d="M1.69821 9.35022C1.74679 9.27846 1.76061 9.25542 1.80919 9.20758C1.95494 9.1119 2.13202 9.15064 2.30206 9.2224C2.32635 9.1028 2.36331 8.97172 2.3876 8.85212C2.21757 8.78036 2.04754 8.68469 1.90179 8.61293C1.65889 8.61293 1.35624 8.60548 1.13762 8.60548C1.04046 8.79684 0.956375 8.86816 0.859214 9.05952C0.834923 9.10736 0.778197 9.23953 0.753906 9.28736C0.802487 9.38304 0.902824 9.53052 0.951404 9.60227C1.17002 9.53052 1.4553 9.44589 1.69821 9.35022Z" fill="#781F0D"/>
<path d="M6.22479 13.8274C6.03046 13.7317 5.86043 13.636 5.66611 13.5403C5.59324 13.5403 5.52037 13.5403 5.4475 13.5403C5.32605 13.8513 5.01027 13.7317 4.79166 13.8034C4.76737 13.8752 4.76737 13.947 4.74308 14.0426C4.62163 14.1861 4.47589 14.234 4.33015 14.2579C4.08724 14.3057 3.82005 14.234 3.57715 14.2579C3.77147 14.4253 3.96579 14.4971 4.1844 14.4971C4.4516 14.521 4.74308 14.4493 5.01027 14.4971C5.08314 14.4253 5.15601 14.3536 5.22889 14.3057C5.4475 14.1383 5.71469 14.0426 6.00617 14.0426C6.07904 13.9948 6.15191 13.8991 6.22479 13.8274Z" fill="#3E2132"/>
<path d="M7.14746 14.0905C7.14746 14.234 7.14746 14.3775 7.14746 14.521C7.77901 14.521 8.43484 14.521 9.06639 14.521C9.06639 14.3775 9.07184 14.2009 9.07184 14.0573C8.4403 14.0334 7.8033 14.0665 7.14746 14.0905Z" fill="#7F5091"/>
<path d="M6.75873 14.0426C6.63728 14.0187 6.51583 13.9947 6.41867 13.8512H6.32151L6.20523 13.826C6.13236 13.8977 6.05432 13.9947 5.98145 14.0665C6.08634 14.6103 6.73444 14.2635 7.14738 14.3592C7.14738 14.2157 7.14738 14.2339 7.14738 14.0904C7.02593 14.0426 6.90448 14.0426 6.75873 14.0426Z" fill="#88589F"/>
<path d="M10.083 14.0069C9.7672 14.0308 9.36265 14.0362 9.04688 14.0601C9.04688 14.2037 9.058 14.2342 9.058 14.3778C9.80089 14.417 9.86379 14.4189 10.083 14.3964C10.0587 14.229 10.083 14.1743 10.083 14.0069Z" fill="#754A83"/>
<path d="M11.3255 13.8274C11.3741 13.8274 11.4227 13.8034 11.4713 13.8034C11.4713 13.7795 11.4713 13.7556 11.4713 13.7317C11.4713 13.6838 11.4713 13.6599 11.4713 13.6121C11.4713 13.5642 11.4713 13.5164 11.4713 13.4446C11.4713 13.3968 11.4713 13.3729 11.4713 13.3251C10.6697 13.2772 9.84381 13.4925 9.06653 13.0859C8.67788 13.1576 8.26495 13.2294 7.8763 13.3251C7.48766 13.2772 7.07473 13.3968 6.68608 13.349C6.51605 13.3251 6.34602 13.2533 6.17599 13.1098C5.98166 13.1576 5.83592 13.2772 5.73876 13.4207C5.71447 13.4686 5.66589 13.5164 5.6416 13.5882C5.83592 13.6838 6.00596 13.7795 6.20028 13.8752H6.29744H6.3946C7.60911 13.2772 8.82362 13.7078 10.0624 13.8513C10.3296 13.8513 10.5968 13.8513 10.864 13.8752C10.9855 13.8752 11.1069 13.8752 11.2284 13.8752C11.2769 13.8513 11.3012 13.8274 11.3255 13.8274Z" fill="#2A3117"/>
<path d="M6.41992 13.8513C6.51708 13.9948 6.63853 14.0187 6.75999 14.0426C6.88144 14.0666 7.02718 14.0426 7.14863 14.0905C7.78018 14.0905 8.43601 14.0905 9.06756 14.0666C9.38333 14.0426 9.69911 14.0426 10.0149 14.0187C10.0149 13.947 10.0392 13.8752 10.0635 13.8274C8.87324 13.6599 7.63443 13.2533 6.41992 13.8513Z" fill="#2A2020"/>
<path d="M13.3911 13.8273C13.0025 13.8273 12.5896 13.8273 12.2009 13.8273C12.2009 14.0187 12.1523 14.1861 11.958 14.2818C12.3709 14.4731 12.8186 14.5166 13.183 14.3491C13.353 14.2774 13.538 14.2837 13.6838 14.0446C13.6109 13.9728 13.4883 13.8991 13.3911 13.8273Z" fill="#784D88"/>
<path d="M12.2002 13.8274C11.9573 13.8274 11.7144 13.8034 11.4715 13.8034C11.423 13.8034 11.3744 13.8274 11.3258 13.8274C11.3015 13.8274 11.2772 13.8274 11.2529 13.8513C11.2529 14.0187 11.3258 14.1144 11.3987 14.1861C11.5444 14.2818 11.7387 14.2818 11.9573 14.2818C12.1517 14.1861 12.2002 14.0187 12.2002 13.8274Z" fill="#835697"/>
<path d="M11.4531 13.6077C11.4531 13.6555 11.4639 13.7567 11.4639 13.8045C11.4639 13.7806 11.4639 13.8284 11.4639 13.8045C11.7068 13.8045 11.9821 13.8273 12.2251 13.8273C12.6137 13.8273 13.0266 13.8273 13.4153 13.8273C13.4881 13.8273 13.5853 13.8273 13.6582 13.8034C13.6582 13.7317 13.6582 13.6599 13.6582 13.5882C13.4881 13.5882 13.3424 13.5642 13.1724 13.5642C13.0266 13.5642 12.8809 13.5642 12.7109 13.5642C12.2979 13.5642 11.8661 13.5838 11.4531 13.6077Z" fill="#442947"/>
<path d="M11.6902 11.8935C11.6416 11.8696 11.4209 11.8286 11.3723 11.8286C11.4209 11.8286 11.3237 11.8286 11.3723 11.8286C11.2023 11.8047 11.01 11.866 10.8156 11.8899C10.6456 11.9138 10.4756 11.9377 10.2812 11.9377C10.2812 12.0095 10.2812 12.1051 10.2812 12.1769C10.2812 12.2487 10.2812 12.3443 10.2812 12.4161C10.8642 12.3443 11.4229 12.5118 11.9573 12.6553C12.0301 12.6553 12.103 12.6314 12.1759 12.6074C12.2245 12.5596 12.2488 12.4879 12.2973 12.44C12.3459 12.3683 12.4298 12.2692 12.4784 12.1975C12.4784 12.054 12.4745 11.8814 12.4502 11.7379C12.2316 11.7618 11.9331 11.8217 11.6902 11.8935Z" fill="#64531C"/>
<path d="M12.7105 13.5643C12.5404 13.2294 12.3704 12.9184 12.2004 12.5836C12.1275 12.6075 12.0546 12.6314 11.9818 12.6314C11.8117 12.8706 11.6417 13.0859 11.4717 13.3251C11.4717 13.3729 11.4717 13.3968 11.4717 13.4447C11.4717 13.4925 11.4717 13.5403 11.4717 13.6121C11.9089 13.5882 12.2975 13.5643 12.7105 13.5643Z" fill="#28160E"/>
<path d="M11.9821 10.5504C11.7878 10.5504 11.7222 10.2179 11.6493 10.0026C11.6007 9.88302 11.5629 9.83238 11.4963 9.80888C11.302 10.2155 10.7919 10.4308 10.7676 10.9331C11.0105 11.1244 11.3748 11.1962 11.5692 11.4593C11.6663 11.5789 11.7149 11.7224 11.6906 11.9138C11.9335 11.8659 12.2007 11.7942 12.4436 11.7463C12.4436 11.3397 12.4679 10.9331 12.4679 10.5265C12.4436 10.4547 12.4193 10.359 12.4193 10.2873C12.2007 10.4786 12.0793 10.5504 11.9821 10.5504Z" fill="#C53F19"/>
<path d="M12.918 8.35696C12.6751 8.5244 12.3864 8.69014 12.1435 8.85757C12.3864 9.00109 12.6419 9.15318 12.8848 9.29669C12.8848 9.29669 12.905 9.33056 12.905 9.35448C13.075 9.35448 13.2208 9.3784 13.3908 9.3784C13.3908 9.28272 13.4151 9.21096 13.4151 9.11529C13.4151 9.04353 13.4272 8.92601 13.4029 8.85426C13.33 8.63898 13.1366 8.45264 12.918 8.35696Z" fill="#C02D1C"/>
<path d="M12.9023 9.30038C12.5865 9.4439 12.4918 9.68932 12.4432 9.97635C12.4189 10.072 12.4053 10.196 12.4053 10.2917C12.4296 10.3634 12.4215 10.4317 12.4557 10.5133C12.8201 10.5133 12.9969 10.4494 13.0698 10.3537C13.2398 10.1145 12.929 9.64148 12.9047 9.33053C12.9047 9.33053 12.9023 9.3243 12.9023 9.30038Z" fill="#86692A"/>
<path d="M15.3507 8.66635C15.3507 8.59459 15.3341 8.49339 15.3341 8.39771C15.1155 8.44555 14.8969 8.51731 14.6783 8.56515C14.5568 8.58906 14.4597 8.61298 14.3625 8.6369C14.3139 8.6369 14.241 8.66082 14.1925 8.66082C13.7309 8.70866 13.3423 8.54123 13.1723 7.70406C12.9294 7.70406 12.7108 7.70406 12.4679 7.70406C12.4679 7.77581 12.4365 7.88396 12.4365 7.95572C12.5823 8.09923 12.7858 8.25987 12.9315 8.40338C13.1502 8.49906 13.318 8.6369 13.3666 8.85217C13.3909 8.92393 13.4206 9.04697 13.4206 9.14264C13.7849 9.23832 14.0995 9.16788 14.4153 9.04828C14.7068 8.92869 15.035 8.76203 15.3507 8.66635Z" fill="#EE433F"/>
<path d="M2.41105 8.39769C2.48392 8.39769 2.53251 8.39769 2.60538 8.39769C2.67825 8.25418 2.78702 8.06008 2.85989 7.91657C2.71415 7.84481 2.5391 7.77519 2.39336 7.70343C2.07759 7.84694 1.73093 8.0389 1.41515 8.18242C1.34228 8.25418 1.26941 8.32593 1.17225 8.39769C1.14429 8.47036 1.1292 8.49814 1.14796 8.61296C1.39086 8.61296 1.6593 8.63152 1.87791 8.63152C2.04794 8.46408 2.19244 8.39769 2.41105 8.39769Z" fill="#9C272D"/>
<path d="M2.84794 7.91926C2.77507 8.06278 2.65783 8.26195 2.58496 8.40547C2.9736 8.47722 3.30602 8.37333 3.67037 8.27765C3.79182 8.25373 3.93079 8.18857 4.05224 8.16465C4.27086 7.78195 4.61031 7.50487 5.07183 7.45703C5.07183 7.38528 5.05097 7.29337 5.02668 7.1977C5.02668 7.12594 5.00978 7.03425 4.98549 6.93858C4.83974 6.86682 4.694 6.77114 4.54826 6.69939C4.40252 6.86682 4.28107 7.05817 4.13533 7.24953C4.08675 7.32128 4.03817 7.39304 3.98959 7.4648C3.94101 7.53655 3.86814 7.60831 3.81955 7.65615C3.79526 7.68007 3.74668 7.70399 3.72239 7.75183C3.64952 7.79967 3.57665 7.8475 3.50378 7.87142C3.4552 7.89534 3.40662 7.89534 3.35804 7.91926C3.2123 7.9671 3.04227 7.9671 2.84794 7.91926Z" fill="#951F29"/>
<path d="M5.87404 8.44246C5.92262 8.46638 5.99852 8.51301 6.0471 8.53693C6.14426 8.58477 6.30753 8.62231 6.42898 8.64622C6.74475 8.33528 7.05378 8.03097 7.36955 7.72002C7.39384 7.64827 7.41846 7.51762 7.41846 7.44587C7.24843 7.30235 7.02672 7.29738 6.85669 7.29738C6.78382 7.29738 6.73524 7.3213 6.66237 7.3213C6.63808 7.3213 6.5895 7.34522 6.56521 7.34522C6.41947 7.39305 6.24944 7.41697 6.10369 7.44089C6.03082 7.44089 5.98224 7.44089 5.90937 7.41697C5.76363 7.41697 5.7188 7.43846 5.57305 7.43846L5.51662 7.47921C5.41946 7.62272 5.27783 7.72792 5.18066 7.87144C5.44786 8.11063 5.60685 8.29895 5.87404 8.44246Z" fill="#EC4946"/>
<path d="M4.03906 8.15854C4.03906 8.23029 4.03906 8.32597 4.03906 8.39773C4.16051 8.39773 4.30626 8.37381 4.42771 8.37381C4.37913 8.54124 4.33055 8.70868 4.28197 8.87611C4.37913 8.92395 4.50058 8.97179 4.59774 9.01962C4.91351 9.16314 5.22929 9.30665 5.25358 9.7372C5.39932 9.66544 5.51394 9.60632 5.65968 9.53457C5.68397 9.17578 5.4479 9.01962 5.20499 8.82827C5.1807 8.80435 5.13212 8.78043 5.10783 8.75651C4.74348 8.46949 4.52487 8.1107 5.22929 7.89543C5.32645 7.75191 5.42361 7.63232 5.52077 7.4888C5.35074 7.46488 5.1807 7.44096 5.03496 7.44096C4.54916 7.4888 4.25767 7.77583 4.03906 8.15854Z" fill="#7E0F13"/>
<path d="M8.12024 7.68016C7.87734 7.68016 7.61014 7.68016 7.36724 7.70408C7.05147 8.01503 6.73569 8.32598 6.41992 8.63692L6.44421 8.68476C6.66282 8.66084 6.83286 8.70868 6.9786 8.90003C7.19721 8.7326 7.39153 8.56517 7.61014 8.39773C7.78017 8.13462 7.95021 7.91935 8.12024 7.68016Z" fill="#CB8218"/>
<path d="M11.5204 8.11066C11.5933 8.13458 11.6662 8.13458 11.739 8.1585C11.8848 8.13458 12.0548 8.11066 12.2005 8.08674C11.9334 7.68011 11.8653 7.1068 11.226 7.00395C11.1045 7.14747 10.989 7.18574 10.819 7.20965C10.7461 7.20965 10.7082 7.2398 10.6353 7.2398C10.611 7.2398 10.4813 7.23184 10.457 7.25576C10.5542 7.37536 10.6946 7.56052 10.7917 7.68011C11.1075 7.70403 11.3504 7.82363 11.5204 8.11066Z" fill="#86801A"/>
<path d="M11.2207 7.00727C11.828 7.12686 11.9375 7.66509 12.1804 8.07172C12.3219 8.03856 12.3757 8.00871 12.4676 7.94325C12.4676 7.87149 12.4734 7.84291 12.4676 7.72798C12.4676 7.56055 12.5162 7.41703 12.5405 7.2496C12.5648 7.08216 12.5881 6.86974 12.4666 6.7023C12.3938 6.7023 12.2444 6.7254 12.2107 6.73203C12.1621 6.73203 11.8787 6.73203 11.8302 6.73203C11.9273 6.73203 11.7573 6.73203 11.8302 6.73203C11.6116 6.70811 11.3907 6.81591 11.2207 7.00727Z" fill="#787519"/>
<path d="M9.79577 7.89539C9.79577 7.96714 9.79577 8.06282 9.79577 8.13458C9.86865 8.13458 9.96581 8.1585 10.0387 8.1585C10.2573 8.13458 10.3549 8.15726 10.5731 7.94323C10.6459 7.87147 10.7188 7.75187 10.7674 7.63228C10.6702 7.51268 10.5731 7.36917 10.4516 7.24957C10.233 7.24957 9.9901 7.24957 9.77148 7.24957C9.79577 7.46484 9.79577 7.68012 9.79577 7.89539Z" fill="#F9D02C"/>
<path d="M6.97839 8.8761C6.97839 9.18705 6.9541 9.498 6.9541 9.80894C7.197 10.0721 7.48849 10.1677 7.80426 10.2395C7.99858 10.2634 8.1929 10.2873 8.38723 10.3112C8.38723 10.2395 8.36294 10.1677 8.36294 10.096C8.36294 9.3784 8.87303 9.06745 9.38313 8.73258C9.62603 8.56515 9.90304 8.36336 10.0731 8.14809C10.0002 8.14809 9.86754 8.11288 9.79466 8.11288C9.38173 8.16072 9.14353 8.54547 8.82775 8.7129C8.43911 8.90426 8.01836 9.08424 7.94549 8.39058C7.89691 8.39058 7.93044 8.38688 7.85284 8.39772C7.77997 8.39772 7.67052 8.37021 7.62194 8.37021C7.35474 8.53764 7.17271 8.70867 6.97839 8.8761Z" fill="#FEC909"/>
<path d="M7.92578 8.42158C7.99865 9.11524 8.46017 8.92388 8.82452 8.73253C9.16458 8.5651 9.39534 8.17422 9.80827 8.1503C9.80827 8.07855 9.79984 7.98677 9.79984 7.91501C9.6298 7.89109 9.43178 7.89536 9.26174 7.91928C8.80023 7.9432 8.33872 8.11063 7.92578 8.42158Z" fill="#FEE26D"/>
<path d="M13.8271 7.99111C14.2887 8.08678 14.823 8.49341 15.0902 7.68016C14.653 7.728 14.1672 7.56056 13.8271 7.99111Z" fill="#F87376"/>
<path d="M3.35885 11.4593C2.87305 10.957 1.90144 11.2919 1.60995 10.4787C1.46421 10.6461 1.29418 10.8135 1.14844 10.981C1.29418 11.7942 1.89706 11.7086 2.43145 11.7325C2.52861 11.7325 2.63715 11.7605 2.73431 11.7844C2.88005 11.8083 3.01714 11.8684 3.1143 11.9641C3.18717 11.9402 3.28974 11.9158 3.36261 11.8918C3.36261 11.7722 3.35885 11.6029 3.35885 11.4593Z" fill="#EC5541"/>
<path d="M1.1612 11.0029C1.30694 10.8354 1.46206 10.6631 1.6078 10.4957C1.77783 10.4239 1.9492 10.3351 2.11923 10.2634C2.14352 10.0481 2.26578 9.90463 2.43581 9.83287C2.48439 9.80895 2.55726 9.80895 2.63013 9.80895C2.53297 9.6176 2.43581 9.42625 2.33865 9.23489C2.16862 9.13922 1.97429 9.09138 1.82855 9.18705C1.77997 9.21097 1.73139 9.25881 1.68281 9.35449C1.68281 9.47408 1.65852 9.59368 1.60994 9.68936C1.43991 10.1438 0.978392 10.5026 0.954102 11.0288C1.00268 11.0049 1.08832 11.0268 1.1612 11.0029Z" fill="#A8951A"/>
<path d="M4.28202 11.9138C3.96625 11.9138 3.65047 11.8899 3.35899 11.8899C3.28612 11.9138 3.18896 11.9377 3.11609 11.9616C3.0918 12.0334 3.0918 12.1052 3.0918 12.153C3.18896 12.3922 3.26183 12.6314 3.35899 12.8945C3.40757 12.8467 3.45615 12.7988 3.50473 12.7749C3.60189 12.7031 3.72334 12.6314 3.8205 12.5596C4.0877 12.4161 4.40347 12.3444 4.76782 12.464C4.76782 12.464 4.79211 12.44 4.79211 12.4161L4.8164 12.3683C4.62208 12.2008 4.45205 12.0573 4.28202 11.9138Z" fill="#D6B33A"/>
<path d="M4.7438 12.44C4.37944 12.3204 4.08796 12.3922 3.79648 12.5357C3.67502 12.6074 3.57786 12.6792 3.4807 12.7509C3.43212 12.7988 3.38354 12.8227 3.33496 12.8705C3.40783 13.3968 3.84506 13.4685 4.25799 13.5403C4.40373 13.3728 4.57376 13.2293 4.71951 13.0619C4.7438 12.8705 4.7438 12.6553 4.7438 12.44Z" fill="#837129"/>
<path d="M4.25684 13.5403C4.30542 13.636 4.40258 13.7077 4.47545 13.7556C4.54832 13.8034 4.66977 13.8273 4.76693 13.8273C5.00983 13.7795 5.33754 13.8807 5.45899 13.5458C5.21609 13.3784 4.95816 13.1981 4.71526 13.0546C4.59381 13.1981 4.34969 13.3401 4.25684 13.5403Z" fill="#E3AA3A"/>
<path d="M3.55286 8.87611C3.72289 8.70868 3.89292 8.54124 4.03866 8.39773C4.03866 8.32597 4.03866 8.2303 4.03866 8.15854C3.91721 8.18246 3.79576 8.20638 3.67431 8.25421C3.30995 8.34989 2.96989 8.46949 2.58125 8.39773C2.50838 8.39773 2.43551 8.39773 2.38692 8.39773C2.1926 8.39773 1.99828 8.44557 1.85254 8.63692C2.02257 8.70868 2.1926 8.80435 2.33834 8.87611C2.62983 8.90003 2.92131 8.92395 3.23708 8.92395C3.35853 8.90003 3.4557 8.90003 3.55286 8.87611Z" fill="#83121B"/>
<path d="M2.60581 9.80896C2.6301 9.80896 2.65563 9.80774 2.70421 9.80774C2.92282 9.73598 3.1402 9.64153 3.35881 9.56977C3.33452 9.3545 3.31023 9.13922 3.26165 8.92395C2.97017 8.90003 2.67868 8.87611 2.36291 8.87611C2.33862 8.99571 2.31433 9.11531 2.29004 9.2349C2.41149 9.42625 2.50865 9.61761 2.60581 9.80896Z" fill="#9C8D1E"/>
<path d="M5.76403 13.3968C5.86119 13.2533 5.99704 13.1627 6.19136 13.1148C6.21565 13.0909 6.28052 13.0678 6.30481 13.0439C6.42626 12.9004 6.54893 12.7441 6.67038 12.6006C6.42748 12.4571 6.20126 12.2726 5.95836 12.1291C5.86119 12.5357 5.66687 12.6553 5.44826 12.6314C5.42397 12.6314 5.39968 12.6075 5.3511 12.6075C5.30252 12.5836 5.27823 12.5836 5.22965 12.5596C5.15678 12.5118 5.08391 12.464 4.98674 12.3922C4.91387 12.3922 4.841 12.3683 4.76813 12.3444C4.76813 12.3444 4.76813 12.3683 4.74384 12.3922V12.44C4.74384 12.6553 4.71289 12.872 4.71289 13.0634C4.95579 13.2308 5.21192 13.4022 5.45483 13.5457C5.5277 13.5457 5.61829 13.5403 5.69116 13.5403C5.71545 13.4925 5.73974 13.4446 5.76403 13.3968Z" fill="#D69D33"/>
<path d="M11.9815 12.6314C11.4228 12.4879 10.8739 12.3337 10.291 12.4055C10.0966 12.9795 9.38875 12.7016 9.06641 13.0935C9.84369 13.5001 10.6941 13.2772 11.4957 13.325C11.6414 13.1098 11.8114 12.8706 11.9815 12.6314Z" fill="#3A451C"/>
<path d="M9.84434 12.0095C9.74718 11.9616 9.62573 11.9377 9.52857 11.8899C9.47999 11.8899 9.4557 11.9138 9.40712 11.9138C9.38283 11.9138 9.35854 11.9138 9.30995 11.9377C9.26137 12.0573 9.21279 12.153 9.16421 12.2487C9.09134 12.3683 8.99418 12.4879 8.87273 12.5596C8.79986 12.6075 8.75128 12.6553 8.67841 12.7031C8.58125 12.751 8.4598 12.7988 8.33834 12.8467C8.16831 12.8467 8.02257 12.8706 7.85254 12.8706C7.85254 13.0141 7.88901 13.1912 7.88901 13.3347C8.27765 13.2629 8.6853 13.1892 9.07394 13.0935C9.38972 12.7108 10.097 12.9884 10.2913 12.4143C10.2913 12.3426 10.2816 12.2008 10.2816 12.1291C10.1358 12.1052 9.99008 12.0573 9.84434 12.0095Z" fill="#69733E"/>
<path d="M7.89397 13.3365C7.89397 13.193 7.87636 13.038 7.87636 12.8945C7.70632 12.751 7.39498 13.0306 7.20066 13.0067C7.1035 12.9828 7.01245 12.8788 6.98816 12.6396C6.891 12.6157 6.75586 12.6041 6.65861 12.6024C6.53716 12.7459 6.41894 12.8945 6.29749 13.038C6.2732 13.0619 6.19128 13.0927 6.16699 13.1166C6.33702 13.2601 6.4697 13.3321 6.66402 13.356C7.02837 13.4278 7.50373 13.3214 7.89397 13.3365Z" fill="#596125"/>
<path d="M10.767 10.9331C10.5483 10.9331 10.3054 10.9331 10.0868 10.9571C10.0625 11.2919 9.94105 11.7045 10.2811 11.9676C10.4511 11.9676 10.621 11.9286 10.8154 11.9047C10.9854 11.8807 11.1556 11.8181 11.3499 11.8421H11.3742C11.4228 11.8421 11.4714 11.8421 11.52 11.866C11.5685 11.8899 11.6414 11.8899 11.69 11.9138C11.7143 11.6985 11.6657 11.555 11.5685 11.4594C11.3571 11.1711 11.0524 11.1155 10.767 10.9331Z" fill="#5C4707"/>
<path d="M10.0877 10.9571C10.0634 10.9092 10.0391 10.8614 9.99053 10.8375C9.86908 10.7418 9.72334 10.7179 9.5776 10.694C9.40757 10.7179 9.26183 10.7418 9.0918 10.7896C9.0918 10.9331 9.0918 11.0767 9.0918 11.2202C9.28612 11.3398 9.45615 11.4833 9.50473 11.6986C9.52902 11.7703 9.52902 11.8421 9.52902 11.9377C9.62618 11.9856 9.74763 12.0095 9.84479 12.0573C9.99053 12.1052 10.1363 12.153 10.282 12.2009C10.282 12.1291 10.282 12.0334 10.282 11.9617C9.94195 11.6507 10.0634 11.2919 10.0877 10.9571Z" fill="#53571F"/>
<path d="M10.4516 9.80888C10.2816 9.92848 10.1358 10.072 9.99008 10.2155C9.84434 10.359 9.6986 10.5265 9.57715 10.6939C9.72289 10.7178 9.86863 10.7417 9.99008 10.8374C10.0387 10.8613 10.063 10.9092 10.0872 10.957C10.3059 10.957 10.5488 10.957 10.7674 10.9331C10.7917 10.4308 11.3018 10.2155 11.4961 9.80888C11.4961 9.56969 11.4961 9.3305 11.4961 9.09131C11.1317 9.3305 10.7917 9.54577 10.4516 9.80888Z" fill="#F37504"/>
<path d="M11.4961 9.09138C11.4961 9.33057 11.4961 9.56976 11.4961 9.80895C11.569 9.83287 11.6175 9.92855 11.6661 10.0481C11.739 10.2634 11.7876 10.5504 11.9819 10.5504C12.0791 10.5504 12.2248 10.4787 12.4191 10.2873C12.4191 10.1917 12.4434 10.096 12.4434 10.0003C12.492 9.71328 12.6134 9.47409 12.9049 9.30665C12.662 9.16314 12.4504 8.9846 12.2075 8.84109C12.0374 8.84109 11.869 8.83784 11.699 8.83784C11.6504 8.9096 11.569 9.01963 11.4961 9.09138Z" fill="#C02517"/>
<path d="M12.4677 7.94324C12.3706 7.99108 12.2977 8.03891 12.2005 8.06283C12.0548 8.08675 11.8848 8.11067 11.739 8.13459C11.7147 8.37378 11.7147 8.61297 11.6904 8.85216C11.8605 8.85216 12.0305 8.85216 12.2005 8.85216C12.4434 8.68473 12.6863 8.54121 12.9292 8.37378C12.7835 8.23027 12.6135 8.08675 12.4677 7.94324Z" fill="#E84426"/>
<path d="M5.65044 9.55234C5.72331 9.57626 5.8605 9.56976 5.95766 9.56976C6.12769 9.28274 6.29772 8.97179 6.44346 8.68476L6.41917 8.63692C6.29772 8.613 6.17627 8.58908 6.07911 8.54124C6.03053 8.51732 5.98195 8.49341 5.93337 8.46949C5.69047 8.32597 5.44717 8.08012 5.22856 7.88876C4.52414 8.10404 4.67174 8.44823 5.15608 8.80435C5.18037 8.82827 5.22895 8.85219 5.25324 8.87611C5.47185 9.01963 5.65044 9.19355 5.65044 9.55234Z" fill="#D93330"/>
<path d="M4.76751 9.80896C4.91325 9.88072 5.05899 9.95247 5.20473 10.0242C5.22902 9.92855 5.23993 9.88734 5.25613 9.75611C5.23184 9.30165 4.91325 9.13922 4.59748 9.01963C4.50032 8.97179 4.37886 8.92395 4.2817 8.87611C4.11167 8.97179 3.96593 9.04355 3.7959 9.13922C3.89306 9.66544 4.35457 9.7372 4.76751 9.80896Z" fill="#614A1A"/>
<path d="M3.79661 9.13914C3.96665 9.04347 4.11239 8.97171 4.28242 8.87603C4.331 8.7086 4.37958 8.54117 4.42816 8.37373C4.30671 8.37373 4.16097 8.39765 4.03952 8.39765C3.86948 8.56509 3.69945 8.73252 3.55371 8.87603C3.62658 8.97171 3.72374 9.04347 3.79661 9.13914Z" fill="#620A10"/>
<path d="M5.18457 10.0612C5.50034 10.0612 5.90967 10.0505 6.22544 10.0505C6.15257 9.88308 6.02999 9.73207 5.95712 9.56463C5.88425 9.56463 5.72565 9.52562 5.65278 9.52562C5.50704 9.59738 5.39514 9.65779 5.2494 9.72955C5.2494 9.82522 5.20886 9.96548 5.18457 10.0612Z" fill="#C8504F"/>
<path d="M6.44381 8.68467C6.27378 8.9717 6.12804 9.28264 5.95801 9.56967C6.03088 9.73711 6.12804 9.88062 6.20091 10.0481H6.2252C6.44381 9.9763 6.66242 9.88062 6.88104 9.80886C6.88104 9.80886 6.90533 9.80886 6.92962 9.80886H6.95391C6.95391 9.49792 6.9782 9.18697 6.9782 8.87602C6.83246 8.70859 6.63813 8.66075 6.44381 8.68467Z" fill="#B33309"/>
<path d="M8.82141 10.5347C8.89428 10.5347 9.02406 10.5347 9.09693 10.5347C9.04835 9.88889 9.47012 9.61231 9.95592 9.27744C10.4903 8.91865 11.2707 8.82373 11.5136 8.08224C11.3436 7.81913 11.0827 7.6801 10.7669 7.63226C10.7183 7.75186 10.6455 7.84753 10.5726 7.94321C10.4269 8.08673 10.2706 8.14208 10.052 8.14208C9.88197 8.35735 9.60098 8.54119 9.35808 8.70862C8.84799 9.04349 8.33789 9.35444 8.33789 10.072C8.33789 10.1438 8.33789 10.2155 8.36218 10.2873C8.50792 10.4786 8.62709 10.5347 8.82141 10.5347Z" fill="#FEBC02"/>
<path d="M9.96506 9.23488C9.47926 9.54583 9.04203 9.83285 9.09061 10.5026C9.09061 10.5983 9.09031 10.6998 9.1146 10.7955C9.28463 10.7715 9.41098 10.7404 9.58101 10.6926C9.70246 10.5252 9.8679 10.3352 10.0136 10.1916C10.1594 10.0481 10.3249 9.92201 10.4706 9.80242C10.8107 9.53931 11.1588 9.3447 11.4989 9.10551C11.5718 9.03375 11.6277 8.93078 11.7006 8.85902C11.7249 8.61983 11.7513 8.37076 11.7756 8.13157C11.7027 8.10765 11.569 8.10557 11.4961 8.08165C11.2289 8.84706 10.4994 8.90001 9.96506 9.23488Z" fill="#FDA504"/>
<path d="M6.95295 9.80046C6.92866 9.80046 6.88273 9.78627 6.88273 9.78627C6.85844 10.0255 6.95416 10.2394 7.07561 10.4069C7.22135 10.5982 7.39138 10.7656 7.43996 10.9809C7.92577 11.1005 8.38728 11.1962 8.87309 11.3158C8.94596 11.2919 9.01883 11.2679 9.11599 11.2201C9.11599 11.0766 9.11599 10.9331 9.11599 10.7896C9.11599 10.6939 9.11599 10.6221 9.0917 10.5265C9.01883 10.5265 8.97025 10.5265 8.89738 10.5265C8.70306 10.5265 8.52494 10.4919 8.3792 10.3005C8.18487 10.2766 7.96486 10.2464 7.77054 10.2225C7.45476 10.1507 7.19585 10.0636 6.95295 9.80046Z" fill="#EC9505"/>
<path d="M4.96228 11.3876C4.88941 11.268 4.81654 11.1244 4.71938 11.0049C4.33074 10.6939 4.57364 10.383 4.71938 10.072C4.47648 10.0481 4.25787 10.0242 4.01496 10.0242C3.94209 10.0242 3.87603 10.0152 3.80316 10.0152C3.60883 10.0391 3.40771 10.072 3.28626 10.2873C3.45629 10.3351 3.6749 10.2873 3.79635 10.383C3.84493 10.4069 3.86922 10.4547 3.86922 10.5265C3.89351 10.7657 3.60203 10.7657 3.432 10.7657C3.04335 10.7417 2.5174 10.9225 2.37166 10.3006C2.27449 10.2767 2.22211 10.2589 2.12494 10.235C1.95491 10.3067 1.75597 10.4308 1.58594 10.5026C1.87742 11.3158 2.83013 11.0188 3.31594 11.4972C3.85032 11.4972 4.45578 11.5139 4.99016 11.5139C5.03874 11.466 4.98657 11.4115 4.96228 11.3876Z" fill="#FC6859"/>
<path d="M3.35883 11.8898C3.6746 11.8898 4.0031 11.932 4.29458 11.932C4.61036 11.9081 4.95596 12.0215 4.98628 11.5071C4.45189 11.5071 3.89141 11.4898 3.35703 11.4898C3.33274 11.6094 3.35883 11.7463 3.35883 11.8898Z" fill="#FEED9A"/>
<path d="M2.12012 10.2394C2.21728 10.2633 2.29015 10.2873 2.38731 10.3112C2.70308 10.2873 2.99457 10.2633 3.31034 10.2633C3.45608 10.072 3.6504 10.0481 3.84473 10.0242C3.9176 10.0242 4.02149 10.0539 4.07007 10.03C3.85145 9.88651 3.57753 9.7132 3.35892 9.56969C3.14031 9.64144 2.9217 9.7132 2.70308 9.78496C2.67879 9.78496 2.6545 9.80888 2.60592 9.80888C2.53305 9.80888 2.48802 9.80403 2.4116 9.8328C2.24157 9.90455 2.14441 10.0242 2.12012 10.2394Z" fill="#C26E25"/>
<path d="M5.13239 12.3683C5.18097 12.3444 5.25384 12.3444 5.27813 12.2965C5.351 12.2487 5.39958 12.2009 5.42387 12.1291C5.49674 11.9856 5.49674 11.8182 5.49674 11.6507C5.32671 11.5551 5.13239 11.4594 4.96235 11.3876C4.98664 11.4115 4.98664 11.4594 4.98664 11.5072C4.96235 11.9617 4.598 11.9138 4.28223 11.9138C4.45226 12.0574 4.62229 12.2009 4.76803 12.3444C4.8409 12.3683 4.87543 12.3864 4.97325 12.3938C5.04612 12.3938 5.08381 12.3922 5.13239 12.3683Z" fill="#FCE871"/>
<path d="M3.79504 9.13921C3.75151 9.01661 3.65599 8.93586 3.55883 8.86411C3.46167 8.88802 3.33544 8.89339 3.23828 8.9173C3.26257 9.13258 3.28495 9.3784 3.33353 9.59367C3.55214 9.73718 3.79504 9.8807 4.01366 10.0242C4.25656 10.0481 4.47517 10.0721 4.71807 10.0721C4.71807 10.0003 4.76717 9.87571 4.76717 9.80395C4.37853 9.70828 3.89221 9.66543 3.79504 9.13921Z" fill="#794723"/>
<path d="M6.97737 12.6553C7.05024 12.5835 7.1474 12.5357 7.24456 12.5118C7.34172 12.4878 7.43888 12.4639 7.53604 12.44C7.73037 12.4161 7.92469 12.4161 8.11901 12.3922C8.11901 12.3204 8.11901 12.2247 8.11901 12.153C7.82753 12.0334 7.53604 11.9138 7.24456 11.7942C6.97737 11.6746 6.71018 11.5789 6.44298 11.4593C6.24866 11.4832 6.10292 11.555 6.03005 11.6746C5.98147 11.7463 5.95718 11.842 5.93289 11.9616C5.9203 12.0565 5.92219 12.075 5.95718 12.153C6.20008 12.2965 6.41869 12.4639 6.6616 12.6074C6.78305 12.6074 6.88021 12.6314 6.97737 12.6553Z" fill="#85141B"/>
<path d="M5.95801 12.153C6.20091 12.2965 6.41952 12.4639 6.66242 12.6074C6.44381 12.44 6.20091 12.2965 5.95801 12.153Z" fill="#85141B"/>
<path d="M5.95853 12.153C5.93424 12.0812 5.93424 12.0334 5.93424 11.9616C5.7885 11.866 5.64276 11.7703 5.49702 11.6507C5.49702 11.8181 5.47273 12.0095 5.42415 12.1291C5.39986 12.2008 5.35128 12.2487 5.27841 12.2965C5.22983 12.3204 5.18125 12.3444 5.13267 12.3683C5.08408 12.3683 5.02025 12.39 4.97167 12.39C5.04454 12.4618 5.14714 12.5348 5.22001 12.5827C5.19572 12.5827 5.26859 12.6066 5.22001 12.5827C5.2443 12.5827 5.42351 12.642 5.47209 12.642C5.6907 12.6898 5.86137 12.5596 5.95853 12.153Z" fill="#F1C457"/>
<path d="M8.87178 12.0095C9.01752 12.0095 9.18755 12.0095 9.33329 11.9617C9.35758 11.9617 9.38187 11.9617 9.43045 11.9378C9.47903 11.9378 9.50332 11.9138 9.5519 11.9138C9.5519 11.8182 9.5519 11.7464 9.52761 11.6746C9.47903 11.4594 9.309 11.3398 9.11468 11.1963C9.04181 11.2202 8.96894 11.2441 8.87178 11.2919C8.41026 11.8182 7.97304 11.866 7.5601 11.6029C7.41436 11.5072 7.29291 11.3876 7.14717 11.2202C6.70994 10.9092 6.27272 10.6461 6.22414 10.0481H6.19985C5.88408 10.0481 5.5134 10.0169 5.19763 10.0169C5.05189 9.9451 4.90937 9.87049 4.76363 9.79874C4.76363 9.87049 4.70968 10.0036 4.70968 10.0754C4.53965 10.3863 4.29849 10.699 4.71143 11.0099C5.44013 10.6033 5.98318 10.8364 6.42041 11.4583C6.6876 11.5779 6.94142 11.6684 7.20861 11.788C7.50009 11.9076 7.80503 12.0352 8.09651 12.1548C8.29084 11.9874 8.60458 12.0095 8.87178 12.0095Z" fill="#A7222A"/>
<path d="M7.8775 12.8945C8.04753 12.8945 8.16885 12.8772 8.34353 12.863C8.34353 12.6717 8.31472 12.5118 8.14469 12.3922C7.95037 12.3922 7.72209 12.3754 7.52776 12.4233C7.4306 12.4472 7.3548 12.4738 7.25764 12.4977C7.16048 12.5216 7.07568 12.5882 6.97852 12.636C7.00281 12.8752 7.10021 12.9902 7.19737 13.0141C7.3917 13.0619 7.68318 12.751 7.8775 12.8945Z" fill="#7B9163"/>
<path d="M8.33763 12.8705C8.45908 12.8227 8.55624 12.7988 8.67769 12.727C8.75056 12.6792 8.82343 12.6313 8.87201 12.5835C8.99347 12.4878 9.09063 12.3921 9.1635 12.2725C9.23637 12.1769 9.28495 12.0812 9.30924 11.9616C9.1635 12.0094 9.01776 12.0094 8.84772 12.0094C8.58053 12.0094 8.33763 11.9855 8.09473 12.1529C8.09473 12.2247 8.09473 12.3204 8.09473 12.3921C8.28905 12.5117 8.36192 12.6552 8.33763 12.8705Z" fill="#776B45"/>
<path d="M7.07529 10.383C6.95384 10.2155 6.85668 10.0242 6.88097 9.78497C6.66235 9.85673 6.43834 9.96635 6.21973 10.0381C6.24402 10.6361 6.69011 10.9029 7.12734 11.2138C7.2245 11.1421 7.34248 11.0288 7.43964 10.957C7.39106 10.7417 7.22103 10.5743 7.07529 10.383Z" fill="#E15E13"/>
<path d="M8.87652 11.2989C8.39071 11.1793 7.90131 11.0766 7.41551 10.957C7.31835 11.0288 7.22118 11.1245 7.12402 11.1962C7.26977 11.3637 7.39122 11.4833 7.53696 11.5789C7.97418 11.8899 8.4393 11.8251 8.87652 11.2989Z" fill="#E25A5E"/>
<path d="M6.44338 11.4594C6.00616 10.8614 5.4937 10.552 4.71484 11.0044C4.78771 11.124 4.84913 11.2646 4.94629 11.3842C5.11632 11.4799 5.3312 11.5848 5.50123 11.6565C5.67053 11.8195 5.79004 11.8555 5.93578 11.9751C5.96007 11.8555 6.00616 11.7464 6.05474 11.6746C6.17468 11.5528 6.24805 11.4972 6.44338 11.4594Z" fill="#9D251F"/>
<path d="M2.36328 10.3112C2.50902 10.9331 3.01771 10.7546 3.43064 10.7785C3.60067 10.7785 3.91786 10.7657 3.86928 10.5025C3.86928 10.4308 3.8207 10.383 3.79641 10.359C3.67495 10.2634 3.45634 10.2873 3.28631 10.2634C2.99045 10.2598 2.95095 10.2394 2.36328 10.3112Z" fill="#FE8179"/>
<path d="M1 1H18V3H1V1Z" fill="#BFBFBF"/>
<path d="M4.5 4.5H14.5V12.5H4.5V4.5Z" stroke="var(--mw-icon-background-default-white, white)"/>
<path d="M13.5 3.5H15.5V5.5H13.5V3.5Z" fill="#0E00FF" stroke="var(--mw-icon-background-default-white, white)" stroke-linejoin="round"/>
<path d="M3.5 3.5H5.5V5.5H3.5V3.5Z" fill="#0E00FF" stroke="var(--mw-icon-background-default-white, white)" stroke-linejoin="round"/>
<path d="M13.5 11.5H15.5V13.5H13.5V11.5Z" fill="#0E00FF" stroke="var(--mw-icon-background-default-white, white)" stroke-linejoin="round"/>
<path d="M3.5 11.5H5.5V13.5H3.5V11.5Z" fill="#0E00FF" stroke="var(--mw-icon-background-default-white, white)" stroke-linejoin="round"/>
<rect x="0.5" y="0.5" width="18" height="14" stroke="var(--mw-icon-border-default-gray, #616161)" stroke-linejoin="round"/>

</svg>
