<svg width="20" height="16" viewBox="0 0 20 16" fill="none" xmlns="http://www.w3.org/2000/svg">
<rect x="0.5" y="0.5" width="18" height="14" fill="var(--mw-icon-background-default-white, white)"/>
<line x1="1" y1="11.5" x2="3" y2="11.5" stroke="var(--mw-icon-background-default-dark-gray, #A6A6A6)"/>
<line x1="5" y1="11.5" x2="7" y2="11.5" stroke="var(--mw-icon-background-default-dark-gray, #A6A6A6)"/>
<line x1="9" y1="11.5" x2="11" y2="11.5" stroke="var(--mw-icon-background-default-dark-gray, #A6A6A6)"/>
<line x1="13" y1="11.5" x2="15" y2="11.5" stroke="var(--mw-icon-background-default-dark-gray, #A6A6A6)"/>
<line x1="17" y1="11.5" x2="19" y2="11.5" stroke="var(--mw-icon-background-default-dark-gray, #A6A6A6)"/>
<path d="M0.5 11.125C0.878947 8.41667 1.5 2.5 2.5 2.5C4.75538 2.5 2.39193 13.5 6 13.5C7.88129 13.5 7 9.5 8.55263 9.5C10 9.5 9.5 12.5 11 12.5C12 12.5 12 11.5 12.5 11.5C12.9547 11.5 16.6053 11.5 18.5 11.5" stroke="#0072BD"/>
<rect x="0.5" y="0.5" width="18" height="14" stroke="var(--mw-icon-border-default-gray, #616161)" stroke-linejoin="round"/>

</svg>
