<svg width="20" height="16" viewBox="0 0 20 16" fill="none" xmlns="http://www.w3.org/2000/svg">
<rect x="0.5" y="0.5" width="18" height="14" fill="var(--mw-icon-background-default-white, #FFFFFF)"/>
<circle cx="2.5" cy="4.5" r="1" fill="#0072BD"/>
<circle cx="5.5" cy="2.5" r="1" fill="#0072BD"/>
<path d="M9.5 4.5C9.5 5.05228 9.05228 5.5 8.5 5.5C7.94772 5.5 7.5 5.05228 7.5 4.5C7.5 3.94772 7.94772 3.5 8.5 3.5C9.05228 3.5 9.5 3.94772 9.5 4.5Z" fill="#0072BD"/>
<circle cx="10.5" cy="10.5" r="1" fill="#0072BD"/>
<circle cx="13.5" cy="11.5" r="1" fill="#0072BD"/>
<line x1="5.5" y1="3" x2="5.5" y2="9" stroke="#0072BD"/>
<line x1="8.5" y1="5" x2="8.5" y2="8" stroke="#0072BD"/>
<line x1="2.5" y1="5" x2="2.5" y2="8" stroke="#0072BD"/>
<line x1="10.5" y1="8" x2="10.5" y2="10" stroke="#0072BD"/>
<line x1="13.5" y1="8" x2="13.5" y2="11" stroke="#0072BD"/>
<line x1="1" y1="8.5" x2="18" y2="8.5" stroke="var(--mw-icon-border-default-gray, #616161)"/>
<circle cx="16.5" cy="9.5" r="1" fill="#0072BD"/>
<rect x="0.5" y="0.5" width="18" height="14" stroke="var(--mw-icon-border-default-gray, #616161)" stroke-linejoin="round"/>
</svg>
