<svg width="20" height="16" viewBox="0 0 20 16" fill="none" xmlns="http://www.w3.org/2000/svg">
<rect x="0.5" y="0.547607" width="18" height="14" fill="var(--mw-icon-background-default-white, #FFFFFF)"/>
<rect x="0.5" y="0.5" width="18" height="14" stroke="var(--mw-icon-border-default-gray, #616161)" stroke-linejoin="round"/>
<path d="M14.5 11.4141C13.9667 13.0179 12.5 12.6972 12.5 11.4141C12.5 10.564 13.6467 9.87445 14.5 11.4141ZM14.5 11.4141C15.0333 13.0179 16.5 12.6972 16.5 11.4141C16.5 10.564 15.3533 9.87445 14.5 11.4141Z" stroke="#0072BD"/>
<path d="M4.5 4.5H8.5V8.5H4.5V4.5Z" stroke="#0072BD" stroke-linejoin="round"/>
<path d="M3 2.5C3 2.77614 2.77614 3 2.5 3C2.22386 3 2 2.77614 2 2.5C2 2.22386 2.22386 2 2.5 2C2.77614 2 3 2.22386 3 2.5Z" fill="#0072BD"/>
<path d="M3 6.5C3 6.77614 2.77614 7 2.5 7C2.22386 7 2 6.77614 2 6.5C2 6.22386 2.22386 6 2.5 6C2.77614 6 3 6.22386 3 6.5Z" fill="#0072BD"/>
<path d="M3 10.5C3 10.7761 2.77614 11 2.5 11C2.22386 11 2 10.7761 2 10.5C2 10.2239 2.22386 10 2.5 10C2.77614 10 3 10.2239 3 10.5Z" fill="#0072BD"/>
<path d="M7 2.5C7 2.77614 6.77614 3 6.5 3C6.22386 3 6 2.77614 6 2.5C6 2.22386 6.22386 2 6.5 2C6.77614 2 7 2.22386 7 2.5Z" fill="#0072BD"/>
<path d="M7 6.5C7 6.77614 6.77614 7 6.5 7C6.22386 7 6 6.77614 6 6.5C6 6.22386 6.22386 6 6.5 6C6.77614 6 7 6.22386 7 6.5Z" fill="#0072BD"/>
<path d="M7.0088 10.5C7.0088 10.7761 6.78495 11 6.5088 11C6.23266 11 6.0088 10.7761 6.0088 10.5C6.0088 10.2239 6.23266 10 6.5088 10C6.78495 10 7.0088 10.2239 7.0088 10.5Z" fill="#0072BD"/>
<path d="M11 2.5C11 2.77614 10.7761 3 10.5 3C10.2239 3 10 2.77614 10 2.5C10 2.22386 10.2239 2 10.5 2C10.7761 2 11 2.22386 11 2.5Z" fill="#0072BD"/>
<path d="M11 6.5C11 6.77614 10.7761 7 10.5 7C10.2239 7 10 6.77614 10 6.5C10 6.22386 10.2239 6 10.5 6C10.7761 6 11 6.22386 11 6.5Z" fill="#0072BD"/>
<path d="M11 10.5C11 10.7761 10.7761 11 10.5 11C10.2239 11 10 10.7761 10 10.5C10 10.2239 10.2239 10 10.5 10C10.7761 10 11 10.2239 11 10.5Z" fill="#0072BD"/>
</svg>
