<svg width="20" height="16" viewBox="0 0 20 16" fill="none" xmlns="http://www.w3.org/2000/svg">
<path d="M16.9749 10.0251C16.6499 9.70012 16.264 9.44231 15.8394 9.26642C15.4148 9.09053 14.9596 9 14.5 9C14.0404 9 13.5852 9.09053 13.1606 9.26642C12.736 9.44231 12.3501 9.70012 12.0251 10.0251C11.7001 10.3501 11.4423 10.736 11.2664 11.1606C11.0905 11.5852 11 12.0404 11 12.5C11 12.9596 11.0905 13.4148 11.2664 13.8394C11.4423 14.264 11.7001 14.6499 12.0251 14.9749L14.5 12.5L16.9749 10.0251Z" fill="var(--mw-icon-border-default-blue, #1656A7)"/>
<path d="M12.0251 14.9749C12.3501 15.2999 12.736 15.5577 13.1606 15.7336C13.5852 15.9095 14.0404 16 14.5 16C14.9596 16 15.4148 15.9095 15.8394 15.7336C16.264 15.5577 16.6499 15.2999 16.9749 14.9749C17.2999 14.6499 17.5577 14.264 17.7336 13.8394C17.9095 13.4148 18 12.9596 18 12.5C18 12.0404 17.9095 11.5852 17.7336 11.1606C17.5577 10.736 17.2999 10.3501 16.9749 10.0251L14.5 12.5L12.0251 14.9749Z" fill="var(--mw-icon-border-default-gray, #616161)"/>
<path d="M12.7322 14.2678C12.9644 14.4999 13.24 14.6841 13.5433 14.8097C13.8466 14.9353 14.1717 15 14.5 15C14.8283 15 15.1534 14.9353 15.4567 14.8097C15.76 14.6841 16.0356 14.4999 16.2678 14.2678C16.4999 14.0356 16.6841 13.76 16.8097 13.4567C16.9353 13.1534 17 12.8283 17 12.5C17 12.1717 16.9353 11.8466 16.8097 11.5433C16.6841 11.24 16.4999 10.9644 16.2678 10.7322L14.5 12.5L12.7322 14.2678Z" fill="var(--mw-icon-background-default-medium-gray, #D9D9D9)"/>
<path d="M16.2678 10.7322C16.0356 10.5001 15.76 10.3159 15.4567 10.1903C15.1534 10.0647 14.8283 10 14.5 10C14.1717 10 13.8466 10.0647 13.5433 10.1903C13.24 10.3159 12.9644 10.5001 12.7322 10.7322C12.5001 10.9644 12.3159 11.24 12.1903 11.5433C12.0647 11.8466 12 12.1717 12 12.5C12 12.8283 12.0647 13.1534 12.1903 13.4567C12.3159 13.76 12.5001 14.0356 12.7322 14.2678L14.5 12.5L16.2678 10.7322Z" fill="var(--mw-icon-background-medium-blue, #83CAFF)"/>
<path d="M7.49993 0.5V1.5M7.49997 9.5V10.5M12.5 5.5H11.5M3.5 5.5H2.5M11.0354 1.96438L10.3283 2.67149M4.67157 8.32843L3.96447 9.03553M11.0355 9.03553L10.3284 8.32843M4.67157 2.67157L3.96447 1.96447" stroke="#674C06" stroke-linecap="square"/>
<rect x="5.5" y="3.5" width="4" height="4" rx="2" fill="var(--mw-icon-background-default-highlight, #FFE864)" stroke="#674C06"/>
</svg>
