<svg width="20" height="16" viewBox="0 0 20 16" fill="none" xmlns="http://www.w3.org/2000/svg">
<path d="M4.5 4.5H8.5V10.5H4.5V4.5Z" fill="#BFBFBF" stroke="var(--mw-icon-border-default-gray, #616161)" stroke-linejoin="round"/>
<path d="M12.5 4.5H16.5V10.5H12.5V4.5Z" fill="var(--mw-icon-background-default-white, white)" stroke="var(--mw-icon-border-default-gray, #616161)" stroke-linejoin="round"/>
<path d="M3 2L1 2L1 3L2 3L2 12L0.999999 12L0.999999 13L3 13L3 2Z" fill="var(--mw-icon-object-primary, #616160)"/>
<path d="M19 2L17 2L17 3L18 3L18 12L17 12L17 13L19 13L19 2Z" fill="var(--mw-icon-object-primary, #616160)"/>
<path d="M10.4327 12L10 11.7414L10.1032 11.5286C10.2311 11.2624 10.297 10.9973 10.3009 10.7332V10H11L10.9971 10.6547C10.9952 10.8969 10.9417 11.1413 10.8367 11.3879C10.7316 11.6345 10.5969 11.8385 10.4327 12Z" fill="var(--mw-icon-object-primary, #616160)"/>

</svg>
