<svg width="20" height="16" viewBox="0 0 20 16" fill="none" xmlns="http://www.w3.org/2000/svg">
<path d="M3.5 4.5H7.5V10.5H3.5V4.5Z" fill="#BFBFBF" stroke="var(--mw-icon-border-default-gray, #616161)" stroke-linejoin="round"/>
<path d="M11.5 4.5H15.5V10.5H11.5V4.5Z" fill="var(--mw-icon-background-default-white, white)" stroke="var(--mw-icon-border-default-gray, #616161)" stroke-linejoin="round"/>
<path d="M1 13H3V12H2V3H3V2H1V13Z" fill="var(--mw-icon-object-primary, #616160)"/>
<path d="M9.43266 12L9 11.7414L9.10315 11.5286C9.23114 11.2624 9.29704 10.9973 9.30086 10.7332V10H10L9.99713 10.6547C9.99522 10.8969 9.94174 11.1413 9.83668 11.3879C9.73161 11.6345 9.59694 11.8385 9.43266 12Z" fill="var(--mw-icon-object-primary, #616160)"/>
<path d="M16 2.20633C17.6992 3.67644 17.9922 5.15944 17.9922 7.57093C17.9922 10.0727 17.6641 11.2849 16 12.7937L16.1055 13C17.9687 11.7491 19 9.91794 19 7.53224C19 5.33998 17.9336 3.1864 16.1406 2L16 2.20633Z" fill="var(--mw-icon-object-primary, #616160)"/>

</svg>
