<svg width="20" height="16" viewBox="0 0 20 16" fill="none" xmlns="http://www.w3.org/2000/svg">
<rect x="0.5" y="0.5" width="18" height="14" fill="var(--mw-icon-background-default-white, white)"/>
<path d="M0.5 12.5C0.971698 11.1667 2.5 8.5 4.5 8.5C5.20102 8.5 5.85728 8.83095 6.5 9.30247M16.5 1C16.3333 11.3636 12.9151 12.5 11.5 12.5C11.1547 12.5 10.8223 12.4329 10.5 12.3162" stroke="#D95319" stroke-linecap="round"/>
<path d="M8 11.32C8 12.0399 7.78178 12.52 7.25 12.52C6.75912 12.52 6.58632 11.8 6 11.8C5.74093 11.8 5.5 11.9563 5.5 12.2574C5.5 12.7417 6.10914 13 6.75 13C8.35898 13 9 11.9614 9 10.6V3.92C9 3.38331 9.0955 2.48 9.75 2.48C10.2409 2.48 10.4137 3.2 11 3.2C11.2591 3.2 11.5 3.02107 11.5 2.72C11.5 2.23567 10.8996 2 10.2588 2C8.47252 2 8 3.32229 8 4.88V11.32Z" fill="var(--mw-icon-glyph-content-dark-gray, #333333)"/>
<rect x="0.5" y="0.5" width="18" height="14" stroke="var(--mw-icon-border-default-gray, #616161)" stroke-linejoin="round"/>

</svg>
