<svg width="20" height="16" viewBox="0 0 20 16" fill="none" xmlns="http://www.w3.org/2000/svg">
<path d="M9.5 4.5H17.5V11.5H9.5V4.5Z" fill="#BFBFBF" stroke="var(--mw-icon-border-default-gray, #616161)" stroke-linejoin="round"/>
<path d="M4.86652 13.1048C4.86652 13.9454 4.66063 14.4803 4.04299 14.4803C3.47285 14.4803 3.31448 13.5633 2.63348 13.5633C2.33258 13.5633 2 13.7926 2 14.1441C2 14.7096 2.72851 15 3.47285 15C5.34163 15 6.19683 13.7162 6.19683 12.1266V3.23144C6.19683 2.6048 6.19683 1.51965 6.95701 1.51965C7.52715 1.51965 7.68552 2.43668 8.36652 2.43668C8.66742 2.43668 9 2.20742 9 1.8559C9 1.29039 8.27149 1 7.52715 1C5.45249 1 4.86652 2.5131 4.86652 4.33188V13.1048Z" fill="var(--mw-icon-object-primary, #616160)"/>

</svg>
