<svg width="20" height="16" viewBox="0 0 20 16" fill="none" xmlns="http://www.w3.org/2000/svg">
<path d="M9.5 1L2.5 5V10.5L9.5 14.5L16.5 10.5V5L9.5 1Z" fill="var(--mw-icon-background-default-white, #FFFFFF)"/>
<path d="M9.50195 6.497L9.50409 1L16.3268 4.93223V10.4116L9.50195 6.497Z" fill="var(--mw-icon-background-default-light-gray, #F5F5F5)"/>
<path d="M9.50195 6.497L9.49981 1L2.67706 4.93724L2.67706 10.4116L9.50195 6.497Z" fill="#E6E6E6"/>
<path d="M16.5038 10.2722V5.06086L9.5019 1.02222L2.5 4.99997" stroke="var(--mw-icon-background-default-dark-gray, #A6A6A6)" stroke-linecap="round" stroke-linejoin="round"/>
<path d="M2.5 5V10.3281L9.5 14.3697L16.5 10.33" stroke="var(--mw-icon-border-default-gray, #616161)" stroke-linecap="round" stroke-linejoin="round"/>
<path d="M9.5 6.5L12.5 5.5L15.5 6.5V9.5L12.5 10.5L9.5 9.5V6.5Z" fill="var(--mw-icon-background-light-yellow, #FFF5BC)"/>
<path d="M9.5 6.5L12.5 5.5L15.5 6.5M9.5 6.5V9.5L12.5 10.5M9.5 6.5L12.5 7.5M12.5 10.5V7.5M12.5 10.5L15.5 9.5V6.5M12.5 7.5L15.5 6.5" stroke="var(--mw-icon-glyph-content-yellow, #674C07)" stroke-linejoin="round"/>
<path d="M3.5 6.5L6.5 5.5L9.5 6.5V9.5L6.5 10.5L3.5 9.5V6.5Z" fill="var(--mw-icon-background-light-yellow, #FFF5BC)"/>
<path d="M3.5 6.5L6.5 5.5L9.5 6.5M3.5 6.5V9.5L6.5 10.5M3.5 6.5L6.5 7.5M6.5 10.5V7.5M6.5 10.5L9.5 9.5V6.5M6.5 7.5L9.5 6.5" stroke="var(--mw-icon-glyph-content-yellow, #674C07)" stroke-linejoin="round"/>
<circle cx="7.5" cy="8.5" r="0.5" fill="var(--mw-icon-glyph-content-blue, #1656A8)"/>
<circle cx="4.5" cy="8.5" r="0.5" fill="var(--mw-icon-glyph-content-green, #008014)"/>
<circle cx="10.5" cy="8.5" r="0.5" fill="var(--mw-icon-glyph-content-green, #008014)"/>
<circle cx="13.5" cy="8.5" r="0.5" fill="var(--mw-icon-glyph-content-blue, #1656A8)"/>
</svg>
