<svg width="20" height="16" viewBox="0 0 20 16" fill="none" xmlns="http://www.w3.org/2000/svg">
<path d="M17.5 2.5H2.5V13.5H17.5V2.5Z" fill="var(--mw-icon-background-default-light-gray, #F5F5F5)" stroke="var(--mw-icon-border-default-gray, #616161)" stroke-linejoin="round"/>
<path d="M5.5 9.5L8.5 6.5L11.5 9.5L14.5 6.5" stroke="var(--mw-icon-background-default-dark-gray, #A6A6A6)"/>
<path d="M19.5 0.5H11.5V8.5H19.5V0.5Z" fill="var(--mw-icon-background-default-white, #FFFFFF)" stroke="var(--mw-icon-border-default-gray, #616161)"/>
<path d="M16 2.5H18M16 5.5H18" stroke="var(--mw-icon-border-disabled-gray, #888888)"/>
<rect x="13" y="2" width="2" height="2" fill="var(--mw-icon-border-disabled-gray, #888888)"/>
<rect x="13" y="5" width="2" height="2" fill="var(--mw-icon-border-disabled-gray, #888888)"/>
<path d="M12.3536 7.64645C12.4473 7.55268 12.5745 7.5 12.7071 7.5H19C19.2761 7.5 19.5 7.72386 19.5 8V15C19.5 15.2761 19.2761 15.5 19 15.5H12.7071C12.5745 15.5 12.4473 15.4473 12.3536 15.3536L8.85355 11.8536C8.65829 11.6583 8.65829 11.3417 8.85355 11.1464L12.3536 7.64645Z" fill="var(--mw-icon-background-default-selection, #B4DEFF)" stroke="var(--mw-icon-glyph-content-dark-blue, #104280)"/>
<path d="M17.5 13.5L13.5 9.5" stroke="var(--mw-icon-glyph-content-dark-blue, #104280)" stroke-linecap="square"/>
<path d="M13.5 13.5L17.5 9.5" stroke="var(--mw-icon-glyph-content-dark-blue, #104280)" stroke-linecap="square"/>
</svg>
