<svg width="20" height="16" viewBox="0 0 20 16" fill="none" xmlns="http://www.w3.org/2000/svg">
<rect x="0.5" y="0.547607" width="18" height="14" fill="var(--mw-icon-background-default-white, #FFFFFF)"/>
<rect x="0.5" y="0.5" width="18" height="14" stroke="var(--mw-icon-border-default-gray, #616161)" stroke-linejoin="round"/>
<path d="M9 7.5C9 8.32843 8.32843 9 7.5 9C6.67157 9 6 8.32843 6 7.5C6 6.67157 6.67157 6 7.5 6C8.32843 6 9 6.67157 9 7.5Z" fill="#0072BD"/>
<path d="M5 7.5C5 8.32843 4.32843 9 3.5 9C2.67157 9 2 8.32843 2 7.5C2 6.67157 2.67157 6 3.5 6C4.32843 6 5 6.67157 5 7.5Z" fill="#0072BD"/>
<path d="M13 7.5C13 8.32843 12.3284 9 11.5 9C10.6716 9 10 8.32843 10 7.5C10 6.67157 10.6716 6 11.5 6C12.3284 6 13 6.67157 13 7.5Z" fill="#0072BD"/>
<path d="M17 7.5C17 8.32843 16.3284 9 15.5 9C14.6716 9 14 8.32843 14 7.5C14 6.67157 14.6716 6 15.5 6C16.3284 6 17 6.67157 17 7.5Z" fill="#0072BD"/>
</svg>
