<svg width="21" height="17" viewBox="0 0 21 17" fill="none" xmlns="http://www.w3.org/2000/svg">
<rect x="3.5" y="3.5" width="16" height="11" fill="var(--mw-icon-background-default-medium-gray, #D9D9D9)"/>
<rect x="3.5" y="3.5" width="16" height="11" stroke="var(--mw-icon-border-default-gray, #616161)" stroke-linejoin="round"/>
<rect x="1.5" y="1.5" width="16" height="11" fill="var(--mw-icon-background-default-white, white)"/>
<path d="M17.5 7C14.8333 2.33333 12.1667 2.33333 9.5 7C6.83334 11.6667 4.16667 11.6667 1.5 7" stroke="#0072BD" stroke-linecap="round"/>
<rect x="1.44736" y="1.40002" width="16.1053" height="11.2" stroke="var(--mw-icon-border-default-gray, #616161)" stroke-linejoin="round"/>
<path d="M10.5 7.5C10.5 6.94772 10.9477 6.5 11.5 6.5H19.5C20.0523 6.5 20.5 6.94772 20.5 7.5V15.5C20.5 16.0523 20.0523 16.5 19.5 16.5H11.5C10.9477 16.5 10.5 16.0523 10.5 15.5V7.5Z" fill="var(--mw-icon-background-default-white, white)" stroke="var(--mw-icon-border-default-gray, #616161)"/>
<path fill-rule="evenodd" clip-rule="evenodd" d="M15.7634 11.2365C15.4366 10.9097 14.9067 10.9097 14.5799 11.2365L13.0477 12.7687C12.7209 13.0956 12.7209 13.6255 13.0477 13.9523C13.3745 14.2791 13.9044 14.2791 14.2313 13.9523L14.8879 13.2956C15.0446 13.1389 15.2987 13.1389 15.4554 13.2956C15.6121 13.4524 15.6121 13.7064 15.4554 13.8632L14.7988 14.5198C14.1585 15.1601 13.1204 15.1601 12.4802 14.5198C11.8399 13.8795 11.8399 12.8415 12.4802 12.2012L14.0124 10.669C14.6526 10.0288 15.6907 10.0288 16.331 10.669C16.4877 10.8257 16.4877 11.0798 16.331 11.2365C16.1742 11.3932 15.9202 11.3932 15.7634 11.2365Z" fill="var(--mw-icon-glyph-content-gray, #616162)"/>
<path fill-rule="evenodd" clip-rule="evenodd" d="M15.2366 11.7635C15.5634 12.0903 16.0933 12.0903 16.4201 11.7635L17.9523 10.2313C18.2791 9.90444 18.2791 9.37454 17.9523 9.0477C17.6255 8.72087 17.0956 8.72087 16.7687 9.0477L16.1121 9.70436C15.9554 9.86107 15.7013 9.86107 15.5446 9.70436C15.3879 9.54764 15.3879 9.29356 15.5446 9.13685L16.2012 8.48019C16.8415 7.83994 17.8796 7.83994 18.5198 8.48019C19.1601 9.12045 19.1601 10.1585 18.5198 10.7988L16.9876 12.331C16.3474 12.9712 15.3093 12.9712 14.669 12.331C14.5123 12.1743 14.5123 11.9202 14.669 11.7635C14.8258 11.6068 15.0798 11.6068 15.2366 11.7635Z" fill="var(--mw-icon-glyph-content-gray, #616162)"/>

</svg>
