<svg width="20" height="16" viewBox="0 0 20 16" fill="none" xmlns="http://www.w3.org/2000/svg">
<path d="M9.50061 1L2.50061 5V10.5L9.50061 14.5L16.5006 10.5V5L9.50061 1Z" fill="var(--mw-icon-background-default-white, #FFFFFF)"/>
<path d="M9.50256 6.497L9.50471 1L16.3275 4.93223V10.4116L9.50256 6.497Z" fill="var(--mw-icon-background-default-light-gray, #F5F5F5)"/>
<path d="M9.50256 6.497L9.50042 1L2.67767 4.93724L2.67767 10.4116L9.50256 6.497Z" fill="#E6E6E6"/>
<path d="M16.5044 10.2722V5.06086L9.50251 1.02222L2.50061 4.99997" stroke="var(--mw-icon-background-default-dark-gray, #A6A6A6)" stroke-linecap="round" stroke-linejoin="round"/>
<path d="M2.50061 5V10.3281L9.50061 14.3697L16.5006 10.33" stroke="var(--mw-icon-border-default-gray, #616161)" stroke-linecap="round" stroke-linejoin="round"/>
<path d="M15.5006 10.6212C15.5006 11.7927 13.5006 15.5 13.5006 15.5C13.5006 15.5 11.5006 11.7927 11.5006 10.6212C11.5006 9.4497 12.396 8.5 13.5006 8.5C14.6052 8.5 15.5006 9.4497 15.5006 10.6212Z" fill="var(--mw-icon-border-default-gray, #616161)"/>
<circle cx="13.5006" cy="10.5" r="1" fill="var(--mw-icon-background-default-light-gray, #F5F5F5)"/>
<path d="M6.50061 10.5V8.5C5.83394 8.33333 4.50061 7.8 4.50061 7C4.50061 6 5.00061 4.5 9.50061 4.5C13.1006 4.5 13.5006 5.5 12.5006 6.5L9.50061 9.5" stroke="#0072BD" stroke-linecap="square" stroke-linejoin="round"/>
</svg>
