<svg width="20" height="16" viewBox="0 0 20 16" fill="none" xmlns="http://www.w3.org/2000/svg">
<path d="M0.500366 0.5H15.5004V11.5H0.500366V0.5Z" fill="var(--mw-icon-background-default-white, #FFFFFF)"/>
<path d="M12.2861 7.1V6" stroke="black" stroke-linecap="square" stroke-linejoin="round"/>
<path d="M0.500366 9.5C2.00037 9.51659 2.00037 2.5 3.50037 2.5C5.00037 2.5 5.07736 9.5 6.50037 9.5C8.00037 9.5 8.00037 2.5 9.50037 2.5C11.0004 2.5 11.0004 9.51659 12.5004 9.5" stroke="#0072BD"/>
<path d="M0.500366 0.5H15.5004V11.5H0.500366V0.5Z" stroke="var(--mw-icon-border-default-gray, #616161)" stroke-linejoin="round"/>
<path d="M18.0004 14.5C18.2765 14.5 18.5004 14.2761 18.5004 14L18.5004 5C18.5004 4.72386 18.2765 4.5 18.0004 4.5L9.00036 4.5C8.72422 4.5 8.50036 4.72386 8.50036 5L8.50037 14C8.50037 14.2761 8.72422 14.5 9.00037 14.5L18.0004 14.5Z" fill="white" stroke="var(--mw-icon-border-default-gray, #616161)" stroke-linejoin="round"/>
<path d="M15.5004 8.12121C15.5004 9.29273 13.5004 13 13.5004 13C13.5004 13 11.5004 9.29273 11.5004 8.12121C11.5004 6.9497 12.3958 6 13.5004 6C14.6049 6 15.5004 6.9497 15.5004 8.12121Z" fill="var(--mw-icon-glyph-content-gray, #616162)"/>
<circle cx="13.5004" cy="8" r="1" fill="var(--mw-icon-background-default-light-gray, #F5F5F5)"/>
</svg>
