<svg width="20" height="16" viewBox="0 0 20 16" fill="none" xmlns="http://www.w3.org/2000/svg">
<rect x="0.5" y="0.5" width="18" height="14" fill="var(--mw-icon-background-default-white, #FFFFFF)"/>
<rect x="0.5" y="0.5" width="18" height="14" stroke="var(--mw-icon-border-default-gray, #616161)" stroke-linejoin="round"/>
<path fill-rule="evenodd" clip-rule="evenodd" d="M9.5 12.5C12.2614 12.5 14.5 10.2614 14.5 7.5C14.5 4.73858 12.2614 2.5 9.5 2.5C6.73858 2.5 4.5 4.73858 4.5 7.5C4.5 10.2614 6.73858 12.5 9.5 12.5ZM9.5 10.5C11.1569 10.5 12.5 9.15685 12.5 7.5C12.5 5.84315 11.1569 4.5 9.5 4.5C7.84315 4.5 6.5 5.84315 6.5 7.5C6.5 9.15685 7.84315 10.5 9.5 10.5Z" fill="#EDB120" stroke="#745A26"/>
</svg>
