<svg width="20" height="16" viewBox="0 0 20 16" fill="none" xmlns="http://www.w3.org/2000/svg">
<rect x="0.5" y="0.5" width="18" height="14" fill="var(--mw-icon-background-default-white, white)"/>
<path d="M1 1H18V3H1V1Z" fill="#BFBFBF"/>
<path d="M1 3.5C1.51109 3.5 2.97727 3.78671 4.6988 5.42308C6.42032 7.05944 7.5 10.3636 7.5 14C7.5 12.6061 7.99839 9.31818 9 9.31818C10.0016 9.31818 10.5 12.6061 10.5 14C10.4826 13.3141 11 10.5 12 10.5C13 10.5 13.5 13.2805 13.5 14C13.5 12.9599 14.2488 11.5 15 11.5C15.7512 11.5 16.5 13.0401 16.5 14" stroke="#0072BD"/>
<path d="M0.5 3.5L7.5 11.5L9 5L10.5 8.5L12 5.5L13.5 9L15 6.5L16.5 9.5" stroke="#D95319"/>
<rect x="0.5" y="0.5" width="18" height="14" stroke="var(--mw-icon-border-default-gray, #616161)" stroke-linejoin="round"/>

</svg>
