<svg width="20" height="16" viewBox="0 0 20 16" fill="none" xmlns="http://www.w3.org/2000/svg">
<rect x="0.5" y="0.5" width="18" height="14" fill="var(--mw-icon-background-default-white, white)"/>
<path d="M9.5 1V14" stroke="#BFBFBF"/>
<path d="M15.5 1V14" stroke="#BFBFBF"/>
<path d="M3.5 1V14" stroke="#BFBFBF"/>
<path d="M18 10.5L1 10.5" stroke="#BFBFBF"/>
<path d="M18 4.5L1 4.5" stroke="#BFBFBF"/>
<path d="M0 4.50003C2.99272 4.50003 3.44838 10.1668 3.5 12C3.7094 9.12679 5.62051 4.50001 6.5 4.50001C7.37949 4.50001 9.5 8.75496 9.5 12C9.44765 9.12679 11.1179 4.50001 12.5 4.50001C13.8821 4.50001 15.3953 11 15.5 15C15.5 11 17.5 4.5 18.5 4.5" stroke="#0072BD"/>
<rect x="0.5" y="0.5" width="18" height="14" stroke="var(--mw-icon-border-default-gray, #616161)" stroke-linejoin="round"/>

</svg>
