<svg width="20" height="16" viewBox="0 0 20 16" fill="none" xmlns="http://www.w3.org/2000/svg">
<rect x="0.5" y="0.5" width="18" height="14" fill="var(--mw-icon-background-default-white, white)"/>
<rect x="3" y="3" width="13" height="9" fill="#3E26A8"/>
<path d="M5.5 3.5H4.5L3.5 3.5V11.5L8.5 11.5H9H9.5L15.5 11.5V7V6L15.2442 5.90324H14.7907L14.4884 5.32259L14.7907 4.74195V4.30647L14.6395 3.87098L14.5 3.5H13.5H12H11H10.5H10H9.5H6.5H6H5.5Z" fill="#4852F4" stroke="#4852F4" stroke-linejoin="round"/>
<path d="M4.81395 4.01614L3.5 3.5V11.5H4.5L5 11.493L7.5 11.5L8.13954 11.4194L8.74419 11.129L9.04651 10.5484H9.34884L9.80233 11.129V11.493L15 11.5L14.6069 11.4194H14.9419V10.8387L15.3954 10.6896V10.4032H14.4884L14.7907 9.96775V9.24195L14.0349 8.80646L14.3372 8.51614V8.22582L15.093 7.93549V7.35485L14.3372 7.20969L13.5814 6.33872H12.5233V5.90324L13.1279 5.46775L13.2791 4.59679L12.9767 4.01614H12.3721L12.0698 4.59679H11.6163L11.4651 3.72582H11.314V4.01614L11.1628 4.45162L10.8605 4.88711H10.2558L9.04651 4.1613L9 3.5H7.5L7.23256 4.01614H4.81395Z" fill="#12B1D6" stroke="#12B1D6" stroke-linejoin="round"/>
<path d="M3.60465 4.25666L3.5 4V10.6936H3.75581L4.05814 10.4032L4.2093 9.96775L4.66279 10.1129V10.5484L4.81395 10.8387L4.96512 11.129L5.56977 11.2742L6.17442 11.4194L7 11.5L7.38372 10.9839L7.68605 10.8387H8.44186L8.59302 10.2581L8.44186 9.82259L8.74419 9.38711L8.2907 8.95162L7.83721 8.51614L8.13954 8.37098L8.74419 8.80646L9.34884 9.09679L9.65116 8.80646H9.95349L9.80233 9.24195L9.5 9.53227V10.1129L9.95349 10.6936H11.0116V10.9839L10.7093 11.2742V11.5H12H12.5H12.8256H13H13.5H13.7326L13.4302 11.2742L13.5814 10.9839L14.186 10.8387L14.0349 10.5484L13.8837 10.2581L13.1279 10.1129L13.4302 9.96775H14.0349L14.186 9.82259V9.53227L14.0349 9.24195L13.2791 9.09679L12.8256 8.95162L13.4302 8.6613L13.8837 8.37098L14.0349 7.64517L13.7326 7.20969L13.1279 6.7742H12.6744L12.2209 7.35485L12.0698 7.06453L12.2209 6.48388H11.6163L11.0116 6.91937V6.62904L11.314 6.0484L12.0698 5.61291L12.5233 5.32259L12.8256 4.88711H12.5233L12.0698 5.03227H11.7674L11.4651 4.74195L11.314 5.03227L10.8605 5.61291L10.2558 5.90324L9.65116 5.61291L9.19767 5.46775L8.74419 4.59679L8.5 3.5H8L8.44186 4.01614V4.59679L8.2907 4.88711V5.32259L7.98837 5.90324H7.53488L7.38372 5.46775L7.23256 5.03227L7.0814 4.88711L6.62791 4.74195L6.32558 5.46775L6.17442 6.0484L6.02326 5.75808L5.87209 5.17743L5.26744 5.03227L5.11628 5.75808L4.66279 6.0484L4.36047 5.75808L4.66279 5.61291V5.17743L4.36047 5.03227L3.60465 4.88711L3.90698 4.45162L3.60465 4.25666Z" fill="#37C897" stroke="#37C897" stroke-linejoin="round"/>
<path d="M3.5 4.76233L4 5.00004V5.46778H4.2093V6.04843L4.51163 6.1936V6.62908L4.96512 6.77424L5.26744 6.62908V6.04843L5.56977 5.61295L6.02326 6.33876L6.17442 6.48392L6.47674 6.1936L6.77907 5.32262L7.0814 5.75811L7.23256 6.04843H7.53488L7.68605 6.1936H7.98837L8.2907 6.04843L8.44186 5.75811L8.59302 5.0323L9.04651 5.61295L9.34884 5.75811L9.5 6.04843H9.80233L9.95349 5.90327L10.2558 6.04843H10.5581L11.314 5.61295L10.8605 6.33876L10.7093 6.62908V7.06456L10.8605 7.20972H11.1628L11.314 6.9194L11.7674 6.77424L11.9186 7.35489V7.50005H12.3721L12.6744 7.35489L12.9767 7.20972V7.64521L13.4302 7.79037L13.1279 8.08069L12.9767 8.37101V8.66134L12.5233 8.95166L12.3721 9.24198L12.6744 9.38714H13.2791L13.5814 9.5323L13.1279 9.82262L12.6744 9.82263L12.8256 10.113L13.1279 10.2581L13.5814 10.5484L13.4302 10.8388L13.2791 10.9839V11.2742L13.1279 11.5001H12.8256H12.5233H12H11.5L11.1628 11.2742L11.314 10.8388V10.5484L11.0116 10.2581L10.5581 10.4033H10.2558L9.95349 10.113L9.80233 9.82263L9.95349 9.53231V9.24198V9.09682L10.1047 8.66134L9.95349 8.22585L9.65116 8.51618L9.5 8.80649H9.19767L8.59302 8.51618L8.2907 8.37101L7.98837 7.93553L7.38372 8.08069H7.0814L7.23256 8.51618L7.68605 8.8065L8.13953 9.09682L8.44186 9.38714L8.2907 9.67747L7.98837 9.82263V10.113L8.13953 10.4033L7.53488 10.5484L7.23256 10.6936L7.0814 10.8388L6.77907 11.1291L6.32558 10.9839H5.87209L5.26744 10.8388V10.4033V10.113L5.41861 9.96779L5.26744 9.82263L4.81395 9.96779H4.36047L4.2093 9.67747L4.05814 9.38714L3.75581 9.09682L3.60465 9.38714V9.82263V10.113L3.5 10.5484V10.3139V10V4.76233Z" fill="#ABC739"/>
<path d="M3.5 4.76233L4 5.00004V5.50004L3.90698 5.46778H4.2093V6.04843L4.51163 6.1936V6.62908L4.96512 6.77424L5.26744 6.62908V6.04843L5.56977 5.61295L6.02326 6.33876L6.17442 6.48392L6.47674 6.1936L6.77907 5.32262L7.0814 5.75811L7.23256 6.04843H7.53488L7.68605 6.1936H7.98837L8.2907 6.04843L8.44186 5.75811L8.59302 5.0323L9.04651 5.61295L9.34884 5.75811L9.5 6.04843H9.80233L9.95349 5.90327L10.2558 6.04843H10.5581L11.314 5.61295L10.8605 6.33876L10.7093 6.62908V7.06456L10.8605 7.20972H11.1628L11.314 6.9194L11.7674 6.77424L11.9186 7.35489V7.50005H12.3721L12.6744 7.35489L12.9767 7.20972V7.64521L13.4302 7.79037L13.1279 8.08069L12.9767 8.37101V8.66134L12.5233 8.95166L12.3721 9.24198L12.6744 9.38714H13.2791L13.5814 9.5323L13.1279 9.82262L12.6744 9.82263L12.8256 10.113L13.1279 10.2581L13.5814 10.5484L13.4302 10.8388L13.2791 10.9839V11.2742L13.1279 11.5001H12.8256H12.5233H12H11.5L11.1628 11.2742L11.314 10.8388V10.5484L11.0116 10.2581L10.5581 10.4033H10.2558L9.95349 10.113L9.80233 9.82263L9.95349 9.53231V9.24198V9.09682L10.1047 8.66134L9.95349 8.22585L9.65116 8.51618L9.5 8.80649H9.19767L8.59302 8.51618L8.2907 8.37101L7.98837 7.93553L7.38372 8.08069H7.0814L7.23256 8.51618L7.68605 8.8065L8.13953 9.09682L8.44186 9.38714L8.2907 9.67747L7.98837 9.82263V10.113L8.13953 10.4033L7.53488 10.5484L7.23256 10.6936L7.0814 10.8388L6.77907 11.1291L6.32558 10.9839H5.87209L5.26744 10.8388V10.4033V10.113L5.41861 9.96779L5.26744 9.82263L4.81395 9.96779H4.36047L4.2093 9.67747L4.05814 9.38714L3.75581 9.09682L3.60465 9.38714V9.82263V10.113L3.5 10.5484V10.3139L3.5 10V4.76233Z" stroke="#ABC739" stroke-linejoin="round"/>
<path d="M3.5 6.26091V5.99998V5.5L3.90698 6.19352L4.05814 6.48384L4.36047 6.629L4.51163 6.91933H5.26744L5.41861 6.629L5.56977 6.33868L6.02326 6.629L6.17442 6.91933L6.32558 6.629H6.62791L6.93023 6.04836L7.23256 6.33868L7.38372 6.629H7.68605H7.98837L8.2907 6.48384L8.44186 6.629L8.74419 6.33868L8.89535 5.9032L9.19768 6.33868H9.5H9.80233L10.407 6.33868L10.2558 6.629L10.407 6.77417L10.2558 7.06449V7.35481L10.407 7.49997L10.7093 7.64513H11.0116H11.1628L11.4651 7.35481L11.6163 7.64513L11.7674 7.79029H12.2209L12.6744 7.93546L12.5233 8.08062L12.6744 8.37094L12.5233 8.5161L12.3721 8.95159L12.0698 9.24191L12.5233 9.53223L12.6744 9.67739L12.5233 9.96771V10.1129L12.8256 10.4032L13.1279 10.6935L12.9767 10.9838L12.6744 11.2742L12.2209 11.2742L11.9186 11.4193H11.4651L11.6163 11.129V10.8387V10.5484V10.258L11.1628 9.96771H10.5581L10.2558 9.67739V8.95159L10.5581 8.66126L10.407 8.37094L10.1047 7.93546H9.80233H9.5V8.37094L9.19768 8.5161L8.74419 8.37094L8.44186 8.08062L8.13954 7.64513L7.98837 7.35481L7.68605 7.79029H7.23256L7.0814 7.64513H6.77907L6.62791 7.64514L6.47675 7.93546L6.93023 8.37094L7.0814 8.66126V9.09675L7.53489 9.24191L7.68605 9.53223L7.53489 9.82256V10.258L7.0814 10.4032L6.62791 10.6935L5.72093 10.5484V10.258V9.96771V9.67739L5.56977 9.38707L5.11628 9.67739H4.66279L4.51163 9.38707L4.2093 9.24191L4.05814 8.66126L3.60465 9.09675L3.5 9.49998L3.60465 9.58776L3.5 9.99998V9.49998V6.26091Z" fill="#FEC338"/>
<path d="M3.5 6.26091L3.5 5.99998L3.5 5.5L3.90698 6.19352L4.05814 6.48384L4.36047 6.629L4.51163 6.91933H5.26744L5.41861 6.629L5.56977 6.33868L6.02326 6.629L6.17442 6.91933L6.32558 6.629H6.62791L6.93023 6.04836L7.23256 6.33868L7.38372 6.629H7.68605H7.98837L8.2907 6.48384L8.44186 6.629L8.74419 6.33868L8.89535 5.9032L9.19768 6.33868H9.5H9.80233L10.407 6.33868L10.2558 6.629L10.407 6.77417L10.2558 7.06449V7.35481L10.407 7.49997L10.7093 7.64513H11.0116H11.1628L11.4651 7.35481L11.6163 7.64513L11.7674 7.79029H12.2209L12.6744 7.93546L12.5233 8.08062L12.6744 8.37094L12.5233 8.5161L12.3721 8.95159L12.0698 9.24191L12.5233 9.53223L12.6744 9.67739L12.5233 9.96771V10.1129L12.8256 10.4032L13.1279 10.6935L12.9767 10.9838L12.6744 11.2742L12.2209 11.2742L11.9186 11.4193H11.4651L11.6163 11.129V10.8387V10.5484V10.258L11.1628 9.96771H10.5581L10.2558 9.67739V8.95159L10.5581 8.66126L10.407 8.37094L10.1047 7.93546H9.80233H9.5V8.37094L9.19768 8.5161L8.74419 8.37094L8.44186 8.08062L8.13954 7.64513L7.98837 7.35481L7.68605 7.79029H7.23256L7.0814 7.64513H6.77907L6.62791 7.64514L6.47675 7.93546L6.93023 8.37094L7.0814 8.66126V9.09675L7.53489 9.24191L7.68605 9.53223L7.53489 9.82256V10.258L7.0814 10.4032L6.62791 10.6935L5.72093 10.5484V10.258V9.96771V9.67739L5.56977 9.38707L5.11628 9.67739H4.66279L4.51163 9.38707L4.2093 9.24191L4.05814 8.66126L3.60465 9.09675L3.5 9.49998L3.60465 9.58776L3.5 9.99998V6.26091Z" stroke="#FEC338" stroke-linejoin="round"/>
<path d="M3.85741 6.7742L3.4999 6.5L3.33447 6.7742L3.60455 6.91937V7.35485V7.64517V7.9355V8.42051V8.67579L3.33447 8.80646L3.85741 8.95162L3.75571 8.51614L4.05804 8.37098H4.36036L4.51152 8.80646L4.4999 9L4.96501 9.09679L5.26734 8.95162H5.72083L6.11246 9.09679V9.31786L5.9999 9.5L6.49561 9.82259L6.77897 9.67743L6.6278 9.24195V8.80646L6.47664 8.51614L6.17431 8.22582V7.9355V7.64517L6.47664 7.35485H6.93013L7.38362 7.64517L7.68594 7.35485L8.29059 7.20969L8.44176 7.35485V7.64517L8.59292 7.79033L8.74408 7.9355L9.04641 8.08066L9.4999 7.79033L9.95338 7.64517L10.4069 8.08066L10.7092 8.37098L10.8604 8.80646H10.9999L10.8604 9.09679L11.1627 9.38711L11.465 9.53227H11.7673L12.0697 9.96775L11.9185 10.2581V10.5484L12.0697 10.4727L12.2208 10.5484L12.5232 10.9839V10.6936L12.3633 10.2581L12.2208 10.1129L12.0697 9.82259L11.9185 9.38711L11.4999 9V8.5L11.9185 8.42051L11.7673 8.22582H11.3138L11.1627 8.02187L10.558 7.9355L9.95338 7.35485V7.06453L9.80222 6.7742H9.43857H9.04641L8.88341 6.91937L8.59292 7.06453H7.68594L7.23245 6.91937L6.6278 6.7742L6.47664 7.06453L6.02315 7.20969H5.4185L5.11618 7.35485H4.2092L3.90687 7.06453L3.85741 6.7742Z" fill="#F9FB15" stroke="#F9FB15" stroke-width="0.5" stroke-linejoin="round"/>
<rect x="0.5" y="0.5" width="18" height="14" stroke="var(--mw-icon-border-default-gray, #616161)" stroke-linejoin="round"/>

</svg>
