<svg width="20" height="16" viewBox="0 0 20 16" fill="none" xmlns="http://www.w3.org/2000/svg">
<rect x="0.5" y="0.5" width="18" height="14" fill="var(--mw-icon-background-default-white, white)"/>
<path d="M10.403 2.5L10.5633 2.02638C10.5116 2.00891 10.4575 2 10.403 2V2.5ZM8.10448 2.5V2C7.90348 2 7.72202 2.12036 7.64384 2.30553L8.10448 2.5ZM10.8955 2.66667L11.2848 2.3529C11.2252 2.27894 11.1458 2.2235 11.0558 2.19305L10.8955 2.66667ZM12.3731 4.5L11.9838 4.81376C12.0788 4.93153 12.2219 5 12.3731 5V4.5ZM13.5224 4.5L13.8786 4.14911C13.7846 4.05372 13.6563 4 13.5224 4V4.5ZM14.0149 5H14.5149C14.5149 4.86869 14.4633 4.74266 14.3711 4.64911L14.0149 5ZM14.0149 5.83333L14.4701 6.04027C14.4996 5.97529 14.5149 5.90472 14.5149 5.83333H14.0149ZM13.0299 8L13.3861 8.35088C13.4272 8.30908 13.4607 8.26036 13.485 8.20694L13.0299 8ZM12.3731 8.66667L12.0169 8.31578C11.905 8.42943 11.854 8.58967 11.8797 8.74712C11.9053 8.90457 12.0046 9.04032 12.1468 9.11252L12.3731 8.66667ZM13.0299 9H13.5299C13.5299 8.8117 13.4241 8.63937 13.2562 8.55415L13.0299 9ZM13.0299 11.5H12.5299C12.5299 11.5403 12.5347 11.5804 12.5444 11.6196L13.0299 11.5ZM13.194 12.1667L12.7085 12.2862C12.7433 12.4275 12.838 12.5467 12.9677 12.6125L13.194 12.1667ZM14.1791 12.6667L13.9528 13.1125C13.9653 13.1189 13.978 13.1247 13.991 13.1299L14.1791 12.6667ZM15 13L15.475 13.156C15.5571 12.9062 15.4317 12.6356 15.1881 12.5367L15 13ZM14.8358 13.5L14.7641 13.9948C15.0044 14.0297 15.2351 13.8868 15.3109 13.656L14.8358 13.5ZM13.6866 13.3333L13.3714 13.7215C13.4414 13.7783 13.5255 13.8152 13.6148 13.8282L13.6866 13.3333ZM12.8657 12.6667L12.4171 12.8876C12.449 12.9523 12.4945 13.0093 12.5505 13.0548L12.8657 12.6667ZM12.3731 11.6667L11.9041 11.8399C11.9101 11.8562 11.9169 11.8721 11.9246 11.8876L12.3731 11.6667ZM11.8806 10.3333L12.3496 10.1601C12.2771 9.96372 12.0899 9.83333 11.8806 9.83333V10.3333ZM10.0746 10.3333L9.88651 10.7966C9.94626 10.8209 10.0101 10.8333 10.0746 10.8333V10.3333ZM9.25373 10L9.44184 9.53674C9.32122 9.48775 9.18624 9.48775 9.06562 9.53674L9.25373 10ZM8.43284 10.3333L8.24472 9.87007C8.05617 9.94663 7.93284 10.1298 7.93284 10.3333H8.43284ZM8.43284 10.8333L8.91833 10.9529C8.92797 10.9138 8.93284 10.8736 8.93284 10.8333H8.43284ZM8.26866 11.5L8.42892 11.9736C8.59068 11.9189 8.71332 11.7854 8.75415 11.6196L8.26866 11.5ZM7.77612 11.6667L7.49588 12.0808C7.62534 12.1684 7.78832 12.1904 7.93638 12.1403L7.77612 11.6667ZM7.28358 11.3333L6.79019 11.4143C6.81245 11.5499 6.88954 11.6704 7.00334 11.7474L7.28358 11.3333ZM7.1194 10.3333H6.6194C6.6194 10.3605 6.62161 10.3876 6.62601 10.4143L7.1194 10.3333ZM7.1194 9.5L6.70147 9.22554C6.64793 9.30706 6.6194 9.40247 6.6194 9.5H7.1194ZM7.77612 8.5L8.19405 8.77446C8.34415 8.54591 8.28281 8.23917 8.05636 8.08592L7.77612 8.5ZM7.28358 8.16667L7.56382 7.75258C7.48109 7.69659 7.38348 7.66667 7.28358 7.66667V8.16667ZM6.79104 8.16667V7.66667C6.61046 7.66667 6.44391 7.76404 6.35533 7.9214L6.79104 8.16667ZM6.13433 9.33333L5.69862 9.08807C5.68738 9.10803 5.67753 9.12873 5.66914 9.15003L6.13433 9.33333ZM5.80597 10.1667L6.10886 10.5645C6.18154 10.5091 6.23767 10.435 6.27116 10.35L5.80597 10.1667ZM5.14925 10.6667L4.74034 10.9544C4.81852 11.0655 4.93856 11.14 5.07283 11.1608C5.2071 11.1816 5.34404 11.1468 5.45214 11.0645L5.14925 10.6667ZM4.32836 9.5L3.83992 9.60692C3.85414 9.67188 3.88118 9.73334 3.91944 9.78772L4.32836 9.5ZM4 8L4.16027 7.52638C3.98952 7.4686 3.80089 7.50721 3.66656 7.62742C3.53224 7.74763 3.47302 7.93083 3.51157 8.10692L4 8ZM4.98507 8.33333L4.82481 8.80695C5.00626 8.86835 5.20685 8.82069 5.34128 8.68422L4.98507 8.33333ZM5.31343 8L5.66963 8.35088C5.84644 8.1714 5.86209 7.8884 5.70614 7.69052L5.31343 8ZM4.65672 7.16667L4.30051 6.81578C4.12371 6.99527 4.10806 7.27826 4.26401 7.47615L4.65672 7.16667ZM5.47761 6.33333L5.19737 5.91925C5.17003 5.93776 5.14458 5.95893 5.12141 5.98245L5.47761 6.33333ZM6.46269 5.66667L6.41219 5.16922C6.32989 5.17758 6.25095 5.20622 6.18245 5.25258L6.46269 5.66667ZM8.10448 5.5L8.15498 5.99744C8.27083 5.98568 8.37895 5.93385 8.46068 5.85089L8.10448 5.5ZM8.43284 5.16667L8.78904 5.51755C8.89621 5.40875 8.94779 5.25693 8.92906 5.10536C8.91034 4.95379 8.82337 4.81909 8.69293 4.73964L8.43284 5.16667ZM7.61194 4.66667H7.11194C7.11194 4.84111 7.20286 5.00295 7.35184 5.09369L7.61194 4.66667ZM7.61194 3.66667L7.15131 3.4722C7.12533 3.53374 7.11194 3.59987 7.11194 3.66667H7.61194ZM12.1028 5.66652H12.6028C12.6028 5.43411 12.4426 5.23235 12.2163 5.17958L12.1028 5.66652ZM11.3879 5.49985L11.5015 5.01291C11.3132 4.96902 11.1166 5.03756 10.9964 5.18893C10.8762 5.3403 10.854 5.54738 10.9394 5.72078L11.3879 5.49985ZM12.1028 6.83319V7.33319C12.3789 7.33319 12.6028 7.10933 12.6028 6.83319H12.1028ZM11.3879 6.83319L10.9394 7.05411C11.0235 7.22497 11.1975 7.33319 11.3879 7.33319V6.83319ZM11.0596 6.16652L10.7793 5.75243C10.5725 5.89238 10.5007 6.16344 10.611 6.38744L11.0596 6.16652ZM11.5521 5.83319L11.8323 6.24727C12.0391 6.10732 12.111 5.83626 12.0007 5.61226L11.5521 5.83319ZM8.43262 7.00005L8.0941 6.63208C7.90614 6.80499 7.87871 7.09175 8.03047 7.29716L8.43262 7.00005ZM9.25351 6.24486V5.74486C9.12811 5.74486 9.00728 5.79198 8.91499 5.87689L9.25351 6.24486ZM8.92515 7.66672L9.41855 7.58571C9.4057 7.50746 9.37443 7.43339 9.3273 7.36961L8.92515 7.66672ZM9.08933 8.66672L8.59594 8.74772C8.60599 8.80893 8.62734 8.86773 8.6589 8.92113L9.08933 8.66672ZM9.58187 9.50005L9.15143 9.75446C9.2414 9.90667 9.40506 10.0001 9.58187 10.0001V9.50005ZM10.4028 9.50005V10.0001C10.5027 10.0001 10.6003 9.97013 10.683 9.91414L10.4028 9.50005ZM11.3878 8.83338L11.6681 9.24747C11.8749 9.10752 11.9467 8.83646 11.8364 8.61246L11.3878 8.83338ZM11.0595 8.16672H10.5595C10.5595 8.24333 10.5771 8.31892 10.6109 8.38764L11.0595 8.16672ZM11.0595 7.16672H11.5595C11.5595 7.02836 11.5022 6.89618 11.4011 6.80164L11.0595 7.16672ZM10.0744 6.24486L10.4161 5.87979C10.3234 5.79309 10.2013 5.74486 10.0744 5.74486V6.24486ZM10.403 2H8.10448V3H10.403V2ZM11.0558 2.19305L10.5633 2.02638L10.2427 2.97362L10.7353 3.14029L11.0558 2.19305ZM12.7624 4.18624L11.2848 2.3529L10.5062 2.98043L11.9838 4.81376L12.7624 4.18624ZM13.5224 4H12.3731V5H13.5224V4ZM14.3711 4.64911L13.8786 4.14911L13.1662 4.85089L13.6587 5.35089L14.3711 4.64911ZM14.5149 5.83333V5H13.5149V5.83333H14.5149ZM13.485 8.20694L14.4701 6.04027L13.5598 5.62639L12.5747 7.79306L13.485 8.20694ZM12.7293 9.01755L13.3861 8.35088L12.6736 7.64912L12.0169 8.31578L12.7293 9.01755ZM13.2562 8.55415L12.5994 8.22081L12.1468 9.11252L12.8035 9.44585L13.2562 8.55415ZM13.5299 9.66667V9H12.5299V9.66667H13.5299ZM13.5299 11.5V9.66667H12.5299V11.5H13.5299ZM13.6795 12.0471L13.5153 11.3804L12.5444 11.6196L12.7085 12.2862L13.6795 12.0471ZM14.4054 12.2208L13.4203 11.7208L12.9677 12.6125L13.9528 13.1125L14.4054 12.2208ZM15.1881 12.5367L14.3672 12.2034L13.991 13.1299L14.8119 13.4633L15.1881 12.5367ZM15.3109 13.656L15.475 13.156L14.525 12.844L14.3608 13.344L15.3109 13.656ZM13.6148 13.8282L14.7641 13.9948L14.9076 13.0052L13.7583 12.8385L13.6148 13.8282ZM12.5505 13.0548L13.3714 13.7215L14.0018 12.9452L13.1809 12.2785L12.5505 13.0548ZM11.9246 11.8876L12.4171 12.8876L13.3142 12.4457L12.8217 11.4457L11.9246 11.8876ZM11.4116 10.5066L11.9041 11.8399L12.8422 11.4934L12.3496 10.1601L11.4116 10.5066ZM10.0746 10.8333H11.8806V9.83333H10.0746V10.8333ZM9.06562 10.4633L9.88651 10.7966L10.2627 9.87007L9.44184 9.53674L9.06562 10.4633ZM8.62095 10.7966L9.44184 10.4633L9.06562 9.53674L8.24472 9.87007L8.62095 10.7966ZM8.93284 10.8333V10.3333H7.93284V10.8333H8.93284ZM8.75415 11.6196L8.91833 10.9529L7.94734 10.7138L7.78316 11.3804L8.75415 11.6196ZM7.93638 12.1403L8.42892 11.9736L8.10839 11.0264L7.61585 11.193L7.93638 12.1403ZM7.00334 11.7474L7.49588 12.0808L8.05636 11.2526L7.56382 10.9192L7.00334 11.7474ZM6.62601 10.4143L6.79019 11.4143L7.77698 11.2523L7.6128 10.2523L6.62601 10.4143ZM6.6194 9.5V10.3333H7.6194V9.5H6.6194ZM7.35818 8.22554L6.70147 9.22554L7.53734 9.77446L8.19405 8.77446L7.35818 8.22554ZM7.00334 8.58075L7.49588 8.91408L8.05636 8.08592L7.56382 7.75258L7.00334 8.58075ZM6.79104 8.66667H7.28358V7.66667H6.79104V8.66667ZM6.57004 9.5786L7.22676 8.41193L6.35533 7.9214L5.69862 9.08807L6.57004 9.5786ZM6.27116 10.35L6.59952 9.51663L5.66914 9.15003L5.34078 9.98337L6.27116 10.35ZM5.45214 11.0645L6.10886 10.5645L5.50308 9.76885L4.84637 10.2688L5.45214 11.0645ZM3.91944 9.78772L4.74034 10.9544L5.55817 10.3789L4.73728 9.21228L3.91944 9.78772ZM3.51157 8.10692L3.83992 9.60692L4.81679 9.39308L4.48843 7.89308L3.51157 8.10692ZM5.14534 7.85971L4.16027 7.52638L3.83973 8.47362L4.82481 8.80695L5.14534 7.85971ZM4.95723 7.64912L4.62887 7.98245L5.34128 8.68422L5.66963 8.35088L4.95723 7.64912ZM4.26401 7.47615L4.92072 8.30948L5.70614 7.69052L5.04943 6.85719L4.26401 7.47615ZM5.12141 5.98245L4.30051 6.81578L5.01292 7.51755L5.83381 6.68422L5.12141 5.98245ZM6.18245 5.25258L5.19737 5.91925L5.75785 6.74742L6.74293 6.08075L6.18245 5.25258ZM8.05398 5.00256L6.41219 5.16922L6.51318 6.16411L8.15498 5.99744L8.05398 5.00256ZM8.07663 4.81578L7.74828 5.14911L8.46068 5.85089L8.78904 5.51755L8.07663 4.81578ZM7.35184 5.09369L8.17274 5.59369L8.69293 4.73964L7.87204 4.23964L7.35184 5.09369ZM7.11194 3.66667V4.66667H8.11194V3.66667H7.11194ZM7.64384 2.30553L7.15131 3.4722L8.07257 3.86113L8.56511 2.69447L7.64384 2.30553ZM12.2163 5.17958L11.5015 5.01291L11.2744 5.98679L11.9892 6.15346L12.2163 5.17958ZM12.6028 6.83319V5.66652H11.6028V6.83319H12.6028ZM11.3879 7.33319H12.1028V6.33319H11.3879V7.33319ZM10.611 6.38744L10.9394 7.05411L11.8365 6.61226L11.5081 5.94559L10.611 6.38744ZM11.2719 5.4191L10.7793 5.75243L11.3398 6.5806L11.8323 6.24727L11.2719 5.4191ZM10.9394 5.72078L11.1036 6.05411L12.0007 5.61226L11.8365 5.27893L10.9394 5.72078ZM8.77114 7.36802L9.59203 6.61283L8.91499 5.87689L8.0941 6.63208L8.77114 7.36802ZM9.3273 7.36961L8.83477 6.70294L8.03047 7.29716L8.523 7.96383L9.3273 7.36961ZM9.58273 8.58571L9.41855 7.58571L8.43176 7.74772L8.59594 8.74772L9.58273 8.58571ZM10.0123 9.24564L9.51977 8.41231L8.6589 8.92113L9.15143 9.75446L10.0123 9.24564ZM10.4028 9.00005H9.58187V10.0001H10.4028V9.00005ZM11.1076 8.4193L10.1225 9.08597L10.683 9.91414L11.6681 9.24747L11.1076 8.4193ZM10.6109 8.38764L10.9393 9.05431L11.8364 8.61246L11.508 7.94579L10.6109 8.38764ZM10.5595 7.16672V8.16672H11.5595V7.16672H10.5595ZM9.73276 6.60993L10.7178 7.53179L11.4011 6.80164L10.4161 5.87979L9.73276 6.60993ZM9.25351 6.74486H10.0744V5.74486H9.25351V6.74486Z" fill="#2E87F7"/>
<rect x="0.5" y="0.5" width="18" height="14" stroke="var(--mw-icon-border-default-gray, #616161)" stroke-linejoin="round"/>

</svg>
