<svg width="20" height="16" viewBox="0 0 20 16" fill="none" xmlns="http://www.w3.org/2000/svg">
<rect x="0.5" y="0.5" width="18" height="14" fill="var(--mw-icon-background-default-white, white)"/>
<path d="M10 1H9V14H10V1Z" fill="var(--mw-icon-border-default-gray, #616161)"/>
<path d="M18 8V7H1V8H18Z" fill="var(--mw-icon-border-default-gray, #616161)"/>
<path d="M15 3H13V5H15V3Z" fill="#E84700"/>
<path d="M15 2H14V4H15V2Z" fill="#E84700"/>
<path d="M17 4H15V6H17V4Z" fill="#E84700"/>
<path d="M6 9H2V10H6V9Z" fill="#E84700"/>
<path d="M6 10H3V11H6V10Z" fill="#E84700"/>
<path d="M8 11H5V13H8V11Z" fill="#E84700"/>
<path d="M17 13H12V14H17V13Z" fill="#0072BD"/>
<path d="M14 9H13V10H14V9Z" fill="#0072BD"/>
<path d="M16 10H13V13H16V10Z" fill="#0072BD"/>
<path d="M8 6H3V7H8V6Z" fill="#0072BD"/>
<path d="M7 5H4V6H7V5Z" fill="#0072BD"/>
<path d="M7 4H4V5H7V4Z" fill="#0072BD"/>
<path d="M6 3H4V4H6V3Z" fill="#0072BD"/>
<path d="M6 2H5V3H6V2Z" fill="#0072BD"/>
<rect x="0.5" y="0.5" width="18" height="14" stroke="var(--mw-icon-border-default-gray, #616161)" stroke-linejoin="round"/>

</svg>
