<svg width="20" height="16" viewBox="0 0 20 16" fill="none" xmlns="http://www.w3.org/2000/svg">
<rect x="0.5" y="0.5" width="18" height="14" fill="var(--mw-icon-background-default-white, #FFFFFF)"/>
<path d="M2 2.5C2 2.22386 2.22386 2 2.5 2H16.5C16.7761 2 17 2.22386 17 2.5V12.5C17 12.7761 16.7761 13 16.5 13H2.5C2.22386 13 2 12.7761 2 12.5V2.5Z" fill="#4852F4"/>
<path d="M14.5581 2V2.66667H14.907L15.6046 2.33333V2H14.5581Z" fill="#12B1D6"/>
<path d="M14.1135 5.25657L13.1513 5.69845V6.66666H12.4651V8.33333H11.4186V8.99999H10.0232V9.66666H8.6279V10.6667H3.39535V11L3.92619 11.2029L3.74418 11.3333H2.34884L2 11.1667V12.6666C2 12.8507 2.15618 13 2.34884 13H5.84868L5.8372 12.8333V12.5L5.84868 12.3371H4.44186V12.6667H3.39535V12.5L3.60362 12.3371V12H3.74418L4.44186 11.5V11.4L5.13953 11.6667H7.93022L8.27906 11.3333L8.29032 13H16.6511C16.8438 13 17 12.8508 17 12.6667L17 5.69845L14.1135 5.25657Z" fill="#12B1D6"/>
<path d="M8.56976 6L8.27906 5H10.0232V6H8.56976Z" fill="#12B1D6"/>
<path d="M6.18604 3.83333L7.05813 4.27778L6.7093 4.72222V5.16666H6.5L6.36046 4.9L5.66279 4.72222L6.18604 3.83333Z" fill="#12B1D6"/>
<path d="M3.04651 5.33333L4.44186 4.88889V4H3.74418L3.39535 2.66667H3.04651V5.33333Z" fill="#12B1D6"/>
<path d="M2 8.07785L3.28289 8.51974L3.9186 8.33333H5.13953V9.99999H4.26744L3.74418 9.66666H2.69767V10.3333H2V8.07785Z" fill="#12B1D6"/>
<path d="M5.13953 6.66667H2V7.41501L3.0595 7.85689H4.88651L5.52796 7.63595V7.31101L7.23255 7.33333V5.66666L6.16936 5.31797V6L5.13953 6.33333V6.66667Z" fill="#12B1D6"/>
<path d="M13.8668 3.98848L3.74418 2H3.28289L9.35403 3.35684L9.05594 3.76754L9.37666 4.33333H10.0232L10.3388 3.98848L11.4186 4V4.16666L10.8953 4.33333L11.0698 4.66666H11.593L11.9424 4.43037V3.93532L12.4096 4.03974L12.1163 4.25V4.5L12.4651 4.75V5H12.8139L13.1628 4.75H13.8604V4.3416L17 4.99122V4.43037L15.7791 4.25818V4H15.4704V3.5466H15.7911L15.9535 3.33333V3H14.2093V3.66666L14.907 4V4.13519L13.8668 3.98848Z" fill="#12B1D6"/>
<path d="M7.58143 2V2.5L12.4651 3.33333V2H7.58143Z" fill="#12B1D6"/>
<path d="M13.25 2.90642V2.72513L13.6447 2.54384H13.8421V2.90642L13.4474 3.0877V3.26899H13.8421V3.63156H13.25L13.0526 3.45027V3.0877L13.4474 2.90642H13.25Z" fill="#12B1D6"/>
<path d="M14.9069 7.66662V7.99996H15.9534V8.33329H16.651V7.66662H15.9534L15.6045 7.33329H14.9069V6.66663H14.2092L13.5115 7.66662L13.3371 6.99996H12.8138V8.33329H13.5115L13.6859 7.99996L14.2092 7.33329H14.558V7.66662H14.9069Z" fill="#FEC338"/>
<path d="M14.5539 13H5.75688L5.1394 13V12.3333H5.83708L6.03178 12.6023H6.5816H7.13141V12.4034H7.68122L7.9301 12.6667H8.27893L8.45335 12.5L8.62777 12.6667H9.33065V12.0057L9.15103 11.8333L9.33065 11.3333H8.97661V11L9.49986 10.8333L8.97661 10.3333H9.67428L10.1975 10.8333L10.0179 11L10.0231 11.3333H10.7052L11.0696 11.1667V10.3333H10.0231L9.76093 10.1167L10.0179 10.0173H10.4303L10.1554 9.78622H9.60556L10.1554 9.38853L10.7052 9.58737L11.5299 10.2161H12.0797V9.8184H11.5299V9.42071H12.3546L12.6295 9.02301L13.1793 9.22186V10.3333H13.7291L13.8603 10.1667L14.5539 10.4149L14.3836 10.6667L13.6859 10.8333L13.5115 11.1667H14.0347L14.5539 11.0115H15.6045V10.6667H16.4292L16.7531 11.2103L16.651 11.3333H14.9068V12L15.6045 12.1667V12.3333H14.5539V13Z" fill="#2E87F7"/>
<rect x="0.5" y="0.5" width="18" height="14" stroke="var(--mw-icon-border-default-gray, #616161)" stroke-linejoin="round"/>
</svg>
