<svg width="20" height="16" viewBox="0 0 20 16" fill="none" xmlns="http://www.w3.org/2000/svg">
<path d="M14.9091 2.5H5C4.72386 2.5 4.5 2.72386 4.5 3V12C4.5 12.2761 4.72386 12.5 5 12.5H16C16.2761 12.5 16.5 12.2761 16.5 12V6.4375C16.5 6.31661 16.4562 6.19981 16.3767 6.10873L15.5324 5.14127C15.4529 5.05019 15.4091 4.93339 15.4091 4.8125V3C15.4091 2.72386 15.1852 2.5 14.9091 2.5Z" fill="#00A3A3" stroke="#02555C" stroke-linecap="round"/>
<rect x="3.5" y="4.5" width="2" height="2" fill="var(--mw-icon-background-default-dark-gray, #A6A6A6)" stroke="var(--mw-icon-border-default-gray, #616161)"/>
<rect x="3" y="9" width="3" height="2" fill="var(--mw-icon-glyph-content-dark-gray, #333333)"/>
<rect x="7" y="10" width="3" height="1" fill="var(--mw-icon-glyph-content-gray, #616162)"/>
<rect x="11" y="10" width="3" height="1" fill="var(--mw-icon-glyph-content-gray, #616162)"/>
<rect x="7" y="4" width="3" height="1" fill="var(--mw-icon-glyph-content-gray, #616162)"/>
<rect x="11" y="4" width="3" height="1" fill="var(--mw-icon-glyph-content-gray, #616162)"/>
<path d="M10.5 7.5C10.5 8.05228 10.0523 8.5 9.5 8.5C8.94772 8.5 8.5 8.05228 8.5 7.5C8.5 6.94772 8.94772 6.5 9.5 6.5C10.0523 6.5 10.5 6.94772 10.5 7.5ZM10.5 7.5C10.5 8.05228 10.9477 8.5 11.5 8.5C12.0523 8.5 12.5 8.05228 12.5 7.5C12.5 6.94772 12.0523 6.5 11.5 6.5C10.9477 6.5 10.5 6.94772 10.5 7.5Z" stroke="var(--mw-icon-background-default-white, #FFFFFF)"/>
</svg>
