<svg width="21" height="16" viewBox="0 0 21 16" fill="none" xmlns="http://www.w3.org/2000/svg">
<path d="M10.5 1L3.5 5V10.5L10.5 14.5L17.5 10.5V5L10.5 1Z" fill="var(--mw-icon-background-default-white, white)"/>
<path d="M10.502 6.497L10.5041 1L17.3268 4.93223V10.4116L10.502 6.497Z" fill="var(--mw-icon-background-default-light-gray, #F5F5F5)"/>
<path d="M10.502 6.497L10.4998 1L3.67706 4.93724L3.67706 10.4116L10.502 6.497Z" fill="#E6E6E6"/>
<path d="M17.5038 10.2725V5.0611L10.5019 1.02246L3.5 5.00022" stroke="var(--mw-icon-background-default-dark-gray, #A6A6A6)" stroke-linecap="round" stroke-linejoin="round"/>
<path d="M3.5 5V10.3281L10.5 14.3697L17.5 10.33" stroke="var(--mw-icon-border-default-gray, #616161)" stroke-linecap="round" stroke-linejoin="round"/>
<path d="M11.1453 13.2043C11.1453 13.2043 10.7227 12.5425 10.7227 11.8515C10.7227 11.1605 11.001 10.8956 11.3371 10.4485C11.9519 9.6305 12.8806 10.0664 13.8991 9.88838C14.7352 9.74223 15.4292 10.1083 15.6257 10.237C15.8221 10.3657 15.9077 10.4896 15.9077 10.4896" stroke="#2E87F7"/>
<mask id="path-7-inside-1_4186_24417" fill="var(--mw-icon-background-default-white, white)">
<ellipse cx="13.0604" cy="10.901" rx="1.20539" ry="0.602697"/>
</mask>
<path d="M13.2658 10.901C13.2658 10.6974 13.3519 10.5556 13.4076 10.4898C13.4578 10.4304 13.4912 10.4199 13.4655 10.4328C13.4135 10.4588 13.2717 10.5037 13.0604 10.5037V12.5037C13.5148 12.5037 13.9757 12.4138 14.3599 12.2216C14.6844 12.0594 15.2658 11.6503 15.2658 10.901H13.2658ZM13.0604 10.5037C12.8491 10.5037 12.7073 10.4588 12.6552 10.4328C12.6295 10.4199 12.663 10.4304 12.7132 10.4898C12.7689 10.5556 12.855 10.6974 12.855 10.901H10.855C10.855 11.6503 11.4364 12.0594 11.7608 12.2216C12.1451 12.4138 12.6059 12.5037 13.0604 12.5037V10.5037ZM12.855 10.901C12.855 11.1047 12.7689 11.2465 12.7132 11.3123C12.663 11.3716 12.6295 11.3822 12.6552 11.3693C12.7073 11.3433 12.8491 11.2983 13.0604 11.2983V9.29834C12.6059 9.29834 12.1451 9.38831 11.7608 9.58044C11.4364 9.74266 10.855 10.1518 10.855 10.901H12.855ZM13.0604 11.2983C13.2717 11.2983 13.4135 11.3433 13.4655 11.3693C13.4912 11.3822 13.4578 11.3716 13.4076 11.3123C13.3519 11.2465 13.2658 11.1047 13.2658 10.901H15.2658C15.2658 10.1518 14.6844 9.74266 14.3599 9.58044C13.9757 9.38831 13.5148 9.29834 13.0604 9.29834V11.2983Z" fill="#4852F4" mask="url(#path-7-inside-1_4186_24417)"/>
<path d="M14.5048 8.17655C14.5048 8.17655 14.3197 7.8735 14.0677 7.98897C13.8158 8.10445 13.9584 10.3348 13.149 10.3348C12.3396 10.3348 13.2682 8.5505 12.3347 7.0797C11.6891 6.06247 10.9158 6.15762 10.1079 5.42254C9.29994 4.68746 9.10039 2.31162 8.24985 2.80777C7.39932 3.30392 7.44714 5.12847 7.27444 5.62199C7.10173 6.11551 6.70751 6.33416 6.70751 6.33416" stroke="#F9FB15"/>
<path d="M10.1072 5.42236C10.9151 6.15744 11.6883 6.06229 12.334 7.07953C12.4154 7.20785 12.4827 7.33856 12.5382 7.47026C13.1187 8.8481 12.4095 10.3347 13.1483 10.3347C13.9577 10.3347 13.815 8.10427 14.067 7.9888C14.319 7.87332 14.5041 8.17638 14.5041 8.17638" stroke="#ABC739"/>
<path d="M14.5042 8.17633C14.5042 8.17633 14.3192 7.87327 14.0672 7.98875C13.8152 8.10422 13.9578 10.3346 13.1484 10.3346C12.4097 10.3346 13.1188 8.84805 12.5383 7.47021" stroke="#3E26A8"/>
<path d="M12.4036 9.39551C12.4036 9.39551 12.5267 9.87194 12.6465 10.0139C12.7156 10.0957 12.8203 10.2313 12.9421 10.2943C13.0315 10.3405 13.2278 10.3284 13.2278 10.3284" stroke="#3E26A8"/>
<path d="M7.73633 8.86695C7.73633 8.86695 8.71201 7.48018 9.69194 7.15353C10.3621 6.93015 11.0296 7.52747 11.6885 7.15353C12.3474 6.7796 12.8394 5.53125 12.8394 5.53125" stroke="#37C897"/>
<path d="M6.85801 6.21368L5.00635 7.24843L10.5004 10.4802L15.9945 7.24843L10.5004 4.17822L10.1205 4.39052" stroke="#12B1D6" stroke-linejoin="round"/>

</svg>
