<svg width="21" height="16" viewBox="0 0 21 16" fill="none" xmlns="http://www.w3.org/2000/svg">
<path d="M10.5 1L3.5 5V10.5L10.5 14.5L17.5 10.5V5L10.5 1Z" fill="var(--mw-icon-background-default-white, white)"/>
<path d="M10.502 6.497L10.5041 1L17.3268 4.93223V10.4116L10.502 6.497Z" fill="var(--mw-icon-background-default-light-gray, #F5F5F5)"/>
<path d="M10.502 6.497L10.4998 1L3.67706 4.93724L3.67706 10.4116L10.502 6.497Z" fill="#E6E6E6"/>
<path d="M17.5038 10.2725V5.0611L10.5019 1.02246L3.5 5.00022" stroke="var(--mw-icon-background-default-dark-gray, #A6A6A6)" stroke-linecap="round" stroke-linejoin="round"/>
<path d="M3.5 5V10.3281L10.5 14.3697L17.5 10.33" stroke="var(--mw-icon-border-default-gray, #616161)" stroke-linecap="round" stroke-linejoin="round"/>
<path d="M14.5048 9.17655C14.5048 9.17655 14.3197 8.8735 14.0677 8.98897C13.8158 9.10445 13.9584 11.3348 13.149 11.3348C12.3396 11.3348 13.2682 9.5505 12.3347 8.0797C11.6891 7.06247 10.9158 7.15762 10.1079 6.42254C9.29994 5.68746 9.10039 3.31162 8.24985 3.80777C7.39932 4.30392 7.44714 6.12847 7.27444 6.62199C7.10173 7.11551 6.70751 7.33416 6.70751 7.33416" stroke="#F9FB15"/>
<path d="M10.1072 6.42236C10.9151 7.15744 11.6883 7.06229 12.334 8.07953C12.4154 8.20785 12.4827 8.33856 12.5382 8.47026C13.1187 9.8481 12.4095 11.3347 13.1483 11.3347C13.9577 11.3347 13.815 9.10427 14.067 8.9888C14.319 8.87332 14.5041 9.17638 14.5041 9.17638" stroke="#ABC739"/>
<path d="M14.5042 9.17633C14.5042 9.17633 14.3192 8.87327 14.0672 8.98875C13.8152 9.10422 13.9578 11.3346 13.1484 11.3346C12.4097 11.3346 13.1188 9.84805 12.5383 8.47021" stroke="#3E26A8"/>
<path d="M12.4036 10.3955C12.4036 10.3955 12.5267 10.8719 12.6465 11.0139C12.7156 11.0957 12.8203 11.2313 12.9421 11.2943C13.0315 11.3405 13.2278 11.3284 13.2278 11.3284" stroke="#3E26A8"/>
<path d="M7.73633 9.86695C7.73633 9.86695 8.71201 8.48018 9.69194 8.15353C10.3621 7.93015 11.0296 8.52747 11.6885 8.15353C12.3474 7.7796 12.8394 6.53125 12.8394 6.53125" stroke="#37C897"/>
<path d="M6.85801 7.21368L5.00635 8.24843L10.5004 11.4802L15.9945 8.24843L10.5004 5.17822L10.1205 5.39052" stroke="#12B1D6" stroke-linejoin="round"/>

</svg>
