<svg width="20" height="16" viewBox="0 0 20 16" fill="none" xmlns="http://www.w3.org/2000/svg">
<rect x="0.5" y="0.5" width="18" height="14" fill="var(--mw-icon-background-default-white, #FFFFFF)"/>
<path d="M2 2.5C2 2.22386 2.22386 2 2.5 2H16.5C16.7761 2 17 2.22386 17 2.5V12.5C17 12.7761 16.7761 13 16.5 13H2.5C2.22386 13 2 12.7761 2 12.5V2.5Z" fill="#2E87F7"/>
<path d="M2.34884 11.3333L2 11.1666V12.5C2 12.7761 2.22386 13 2.5 13H5.84868L5.8372 12.8333V12.5L5.84868 12.3371H4.44186V12.6666H4.26744H3.39535V12.5L3.60362 12.3371V12H3.74418L4.44186 11.5V10.8333L3.74418 11.3333H2.34884Z" fill="#4852F4"/>
<path d="M14.5581 2V2.66667H14.907L15.6046 2.33333V2H14.5581Z" fill="#12B1D6"/>
<path d="M13.1513 5.69845L14.1135 5.25657L17 5.69845V12.5C17 12.7761 16.7761 13 16.5 13C13.7634 12.9998 11.0269 13 8.29032 13L8.27906 11.3333L7.93022 11.6667H5.13953L3.39535 11V10.6667H8.6279V9.66666H10.0232V8.99999H11.4186V8.33333H12.4651V6.66666H13.1513V5.69845Z" fill="#12B1D6"/>
<path d="M8.56976 6L8.27906 5H10.0232V6H8.56976Z" fill="#12B1D6"/>
<path d="M6.18604 3.83333L7.05813 4.27778L6.7093 4.72222V5.16666H6.5L6.36046 4.9L5.66279 4.72222L6.18604 3.83333Z" fill="#12B1D6"/>
<path d="M3.04651 5.33333L4.44186 4.88889V4H3.74418L3.39535 2.66667H3.04651V5.33333Z" fill="#12B1D6"/>
<path d="M2 8.07785L3.28289 8.51974L3.9186 8.33333H5.13953V9.99999H4.26744L3.74418 9.66666H2.69767V10.3333H2V8.07785Z" fill="#12B1D6"/>
<path d="M5.13953 6.66667H2V7.41501L3.0595 7.85689H4.88651L5.52796 7.63595V7.31101L7.23255 7.33333V5.66666L6.16936 5.31797V6L5.13953 6.33333V6.66667Z" fill="#12B1D6"/>
<path d="M13.8668 3.98848L3.74418 2H3.28289L9.35403 3.35684L9.05594 3.76754L9.37666 4.33333H10.0232L10.3388 3.98848L11.4186 4V4.16666L10.8953 4.33333L11.0698 4.66666H11.593L11.9424 4.43037V3.93532L12.4096 4.03974L12.1163 4.25V4.5L12.4651 4.75V5H12.8139L13.1628 4.75H13.8604V4.3416L17 4.99122V4.43037L15.7791 4.25818V4H15.4704V3.5466H15.7911L15.9535 3.33333V3H14.2093V3.66666L14.907 4V4.13519L13.8668 3.98848Z" fill="#12B1D6"/>
<path d="M7.58143 2V2.5L12.4651 3.33333V2H7.58143Z" fill="#12B1D6"/>
<path d="M13.25 2.90642V2.72513L13.6447 2.54384H13.8421V2.90642L13.4474 3.0877V3.26899H13.8421V3.63156H13.25L13.0526 3.45027V3.0877L13.4474 2.90642H13.25Z" fill="#12B1D6"/>
<path d="M4.44189 4.33331V3.33331L5.83724 3.66665V4.33331H4.44189Z" fill="#FEC338"/>
<path d="M14.907 7.66664V7.99998H15.9535V8.33331H16.6512V7.66664H15.9535L15.6047 7.33331H14.907V6.66665H14.2093L13.5117 7.66664L13.3372 6.99998H12.814V8.33331H13.5117L13.6861 7.99998L14.2093 7.33331H14.5582V7.66664H14.907Z" fill="#FEC338"/>
<path d="M14.554 13H5.757L5.13953 13V12.3333H5.8372L6.03191 12.6023H6.58172H7.13153V12.4034H7.68134L7.93022 12.6667H8.27906L8.45348 12.5L8.62789 12.6667H9.33077V12.0057L9.15115 11.8333L9.33077 11.3333H8.97673V11L9.49999 10.8333L8.97673 10.3333H9.6744L10.1977 10.8333L10.018 11L10.0232 11.3333H10.7053L11.0698 11.1667V10.3333H10.0232L9.76106 10.1167L10.018 10.0173H10.4304L10.1555 9.78622H9.60568L10.1555 9.38853L10.7053 9.58737L11.53 10.2161H12.0798V9.8184H11.53V9.42071H12.3547L12.6296 9.02301L13.1795 9.22186V10.3333H13.7293L13.8604 10.1667L14.554 10.4149L14.3837 10.6667L13.686 10.8333L13.5116 11.1667H14.0349L14.554 11.0115H15.6046V10.6667H16.4293L16.7532 11.2103L16.6511 11.3333H14.907V12L15.6046 12.1667V12.3333H14.554V13Z" fill="#37C897"/>
<rect x="0.5" y="0.5" width="18" height="14" stroke="var(--mw-icon-border-default-gray, #616161)" stroke-linejoin="round"/>
</svg>
