<svg width="20" height="16" viewBox="0 0 20 16" fill="none" xmlns="http://www.w3.org/2000/svg">
<path d="M14.5001 2.5H17.5001V6.5H14.5001V2.5Z" fill="var(--mw-icon-glyph-content-green, #008014)"/>
<path d="M14.5001 8.5H17.5001V12.5H14.5001V8.5Z" fill="var(--mw-icon-glyph-content-green, #008014)"/>
<path d="M14.5001 2.5H17.5001V6.5H14.5001V2.5Z" stroke="#013E0A" stroke-linejoin="round"/>
<path d="M14.5001 8.5H17.5001V12.5H14.5001V8.5Z" stroke="#013E0A" stroke-linejoin="round"/>
<path d="M6.50012 0.5H14.5001V14.5H6.50012V0.5Z" fill="var(--mw-icon-background-default-medium-gray, #D9D9D9)"/>
<path d="M6.50012 0.5V0H6.00012V0.5H6.50012ZM14.5001 0.5H15.0001C15.0001 0.223858 14.7763 0 14.5001 0V0.5ZM14.5001 14.5V15C14.7763 15 15.0001 14.7761 15.0001 14.5H14.5001ZM6.50012 14.5H6.00012V15H6.50012V14.5ZM6.50012 1H14.5001V0H6.50012V1ZM14.0001 0.5V14.5H15.0001V0.5H14.0001ZM14.5001 14H6.50012V15H14.5001V14ZM7.00012 14.5V0.5H6.00012V14.5H7.00012Z" fill="var(--mw-icon-border-default-gray, #616161)"/>
<path d="M1.50012 1.5C1.50012 0.947716 1.94784 0.5 2.50012 0.5H6.50012V14.5H2.50012C1.94784 14.5 1.50012 14.0523 1.50012 13.5V1.5Z" fill="var(--mw-icon-background-default-dark-gray, #A6A6A6)" stroke="var(--mw-icon-border-default-gray, #616161)"/>
<path d="M8.00012 8.5C8.00012 8.22386 8.22398 8 8.50012 8H9.50012C9.77626 8 10.0001 8.22386 10.0001 8.5V9.5C10.0001 9.77614 9.77626 10 9.50012 10H8.50012C8.22398 10 8.00012 9.77614 8.00012 9.5V8.5Z" fill="var(--mw-icon-glyph-content-gray, #616162)"/>
<path d="M11.0001 8.5C11.0001 8.22386 11.224 8 11.5001 8H12.5001C12.7763 8 13.0001 8.22386 13.0001 8.5V9.5C13.0001 9.77614 12.7763 10 12.5001 10H11.5001C11.224 10 11.0001 9.77614 11.0001 9.5V8.5Z" fill="var(--mw-icon-glyph-content-gray, #616162)"/>
<path d="M8.00012 3.5C8.00012 3.22386 8.22398 3 8.50012 3H9.50012C9.77626 3 10.0001 3.22386 10.0001 3.5V4.5C10.0001 4.77614 9.77626 5 9.50012 5H8.50012C8.22398 5 8.00012 4.77614 8.00012 4.5V3.5Z" fill="var(--mw-icon-glyph-content-gray, #616162)"/>
<path d="M11.0001 3.5C11.0001 3.22386 11.224 3 11.5001 3H12.5001C12.7763 3 13.0001 3.22386 13.0001 3.5V4.5C13.0001 4.77614 12.7763 5 12.5001 5H11.5001C11.224 5 11.0001 4.77614 11.0001 4.5V3.5Z" fill="var(--mw-icon-glyph-content-gray, #616162)"/>
<path d="M3.50012 3.5H4.50012M3.50012 5.5H4.50012M3.50012 11.5H4.50012M8.50012 11.5H9.50012M11.5001 11.5H12.5001M11.5001 6.5H12.5001M8.50012 6.5H9.50012M3.50012 7.5H4.50012" stroke="var(--mw-icon-glyph-content-gray, #616162)" stroke-linecap="square"/>
</svg>
