<svg width="22" height="17" viewBox="0 0 22 17" fill="none" xmlns="http://www.w3.org/2000/svg">
<path d="M11.25 1.5L4.25 5.5V11L11.25 15L18.25 11V5.5L11.25 1.5Z" fill="var(--mw-icon-background-default-white, #FFFFFF)"/>
<path d="M11.252 6.997L11.2541 1.5L18.0768 5.43223V10.9116L11.252 6.997Z" fill="var(--mw-icon-background-default-light-gray, #F5F5F5)"/>
<path d="M11.252 6.997L11.2498 1.5L4.42706 5.43724L4.42706 10.9116L11.252 6.997Z" fill="#E6E6E6"/>
<path d="M18.2538 10.7722V5.56086L11.2519 1.52222L4.25 5.49997" stroke="var(--mw-icon-background-default-dark-gray, #A6A6A6)" stroke-linecap="round" stroke-linejoin="round"/>
<path d="M4.25 5.5V10.8281L11.25 14.8697L18.25 10.83" stroke="var(--mw-icon-border-default-gray, #616161)" stroke-linecap="round" stroke-linejoin="round"/>
<path d="M14.25 7.5L11.25 9.49832M14.25 11.5L11.25 9.49832M8.25 11.5L11.25 9.49832M8.25 7.5L11.25 9.49832M11.25 9.49832L11.25 6.5M11.25 9.49832V12.5M11.25 9.49832H15.25M11.25 9.49832L7.25 9.49831" stroke="#745A26" stroke-linecap="square"/>
<path d="M11.2499 9.50005L11.25 4.5" stroke="#B3882A" stroke-linecap="round"/>
</svg>
