<svg width="20" height="16" viewBox="0 0 20 16" fill="none" xmlns="http://www.w3.org/2000/svg">
<path d="M9.5 1L2.5 5V10.5L9.5 14.5L16.5 10.5V5L9.5 1Z" fill="var(--mw-icon-background-default-white, #FFFFFF)"/>
<path d="M9.50195 6.497L9.50409 1L16.3268 4.93223V10.4116L9.50195 6.497Z" fill="var(--mw-icon-background-default-light-gray, #F5F5F5)"/>
<path d="M9.50195 6.497L9.49981 1L2.67706 4.93724L2.67706 10.4116L9.50195 6.497Z" fill="#E6E6E6"/>
<path d="M16.5038 10.2722V5.06086L9.5019 1.02222L2.5 4.99997" stroke="var(--mw-icon-background-default-dark-gray, #A6A6A6)" stroke-linecap="round" stroke-linejoin="round"/>
<path d="M2.5 5V10.3281L9.5 14.3697L16.5 10.33" stroke="var(--mw-icon-border-default-gray, #616161)" stroke-linecap="round" stroke-linejoin="round"/>
<path d="M4.5 8.74999L9.5 6L14.5 8.74999L9.5 11.5L4.5 8.74999Z" fill="#EDB120" stroke="#745A26" stroke-linejoin="round"/>
<path d="M8.5 3.90918H10.5V8.54162C10.5 9.17875 8.5 9.09562 8.5 8.63496V3.90918Z" fill="#EDB120" stroke="#745A26" stroke-linejoin="round"/>
<path d="M10.5 3.90921C10.5 4.52445 10.0523 4.83933 9.5 4.83933C8.94772 4.83933 8.5 4.52445 8.5 3.90921C8.5 3.29397 8.94772 3 9.5 3C10.0523 3 10.5 3.29397 10.5 3.90921Z" fill="#EDB120" stroke="#745A26" stroke-linejoin="round"/>
</svg>
