<svg width="20" height="16" viewBox="0 0 20 16" fill="none" xmlns="http://www.w3.org/2000/svg">
<path d="M9.5 1L2.5 5V10.5L9.5 14.5L16.5 10.5V5L9.5 1Z" fill="var(--mw-icon-background-default-white, #FFFFFF)"/>
<path d="M9.50195 6.497L9.50409 1L16.3268 4.93223V10.4116L9.50195 6.497Z" fill="var(--mw-icon-background-default-light-gray, #F5F5F5)"/>
<path d="M9.50195 6.497L9.49981 1L2.67706 4.93724L2.67706 10.4116L9.50195 6.497Z" fill="#E6E6E6"/>
<path d="M16.5038 10.2722V5.06086L9.5019 1.02222L2.5 4.99997" stroke="var(--mw-icon-background-default-dark-gray, #A6A6A6)" stroke-linecap="round" stroke-linejoin="round"/>
<path d="M2.5 5V10.3281L9.5 14.3697L16.5 10.33" stroke="var(--mw-icon-border-default-gray, #616161)" stroke-linecap="round" stroke-linejoin="round"/>
<path d="M13.0355 6.93953C14.9882 7.87339 14.9882 9.38749 13.0355 10.3213C11.0829 11.2552 7.91709 11.2552 5.96447 10.3213C4.01184 9.38749 4.01184 7.87339 5.96447 6.93953C7.91709 6.00567 11.0829 6.00567 13.0355 6.93953Z" fill="#EDB120" stroke="#745A26"/>
<mask id="path-7-inside-1_20058_216070" fill="white">
<path fill-rule="evenodd" clip-rule="evenodd" d="M12 6.20776H7V8.94724C7 8.94731 7 8.94737 7 8.94744C7.00033 9.38253 8.10784 9.9999 9.48834 9.9999C10.8691 9.9999 12 9.38235 12 8.94724C12 8.94701 12 8.94678 12 8.94655V6.20776Z"/>
</mask>
<path fill-rule="evenodd" clip-rule="evenodd" d="M12 6.20776H7V8.94724C7 8.94731 7 8.94737 7 8.94744C7.00033 9.38253 8.10784 9.9999 9.48834 9.9999C10.8691 9.9999 12 9.38235 12 8.94724C12 8.94701 12 8.94678 12 8.94655V6.20776Z" fill="#EDB120"/>
<path d="M7 6.20776V5.20776H6V6.20776H7ZM12 6.20776H13V5.20776H12V6.20776ZM7 8.94744H6L6 8.94821L7 8.94744ZM7 7.20776H12V5.20776H7V7.20776ZM8 8.94724V6.20776H6V8.94724H8ZM8 8.94744C8 8.94744 8 8.94744 8 8.94744V8.94744C8 8.94744 8 8.94744 8 8.94744V8.94744C8 8.94744 8 8.94744 8 8.94744C8 8.94744 8 8.94744 8 8.94744V8.94744C8 8.94744 8 8.94744 8 8.94744C8 8.94744 8 8.94744 8 8.94744V8.94744C8 8.94743 8 8.94743 8 8.94743V8.94743C8 8.94743 8 8.94743 8 8.94743C8 8.94743 8 8.94743 8 8.94743V8.94743C8 8.94743 8 8.94743 8 8.94743V8.94743C8 8.94743 8 8.94743 8 8.94743C8 8.94743 8 8.94743 8 8.94743V8.94743C8 8.94743 8 8.94743 8 8.94743V8.94743C8 8.94743 8 8.94743 8 8.94743C8 8.94743 8 8.94743 8 8.94743V8.94743C8 8.94743 8 8.94743 8 8.94743C8 8.94743 8 8.94743 8 8.94743V8.94743C8 8.94743 8 8.94743 8 8.94743V8.94743C8 8.94743 8 8.94743 8 8.94743C8 8.94743 8 8.94743 8 8.94743V8.94743C8 8.94743 8 8.94743 8 8.94743V8.94743C8 8.94743 8 8.94743 8 8.94743C8 8.94742 8 8.94742 8 8.94742V8.94742C8 8.94742 8 8.94742 8 8.94742V8.94742C8 8.94742 8 8.94742 8 8.94742C8 8.94742 8 8.94742 8 8.94742V8.94742C8 8.94742 8 8.94742 8 8.94742C8 8.94742 8 8.94742 8 8.94742V8.94742C8 8.94742 8 8.94742 8 8.94742V8.94742C8 8.94742 8 8.94742 8 8.94742C8 8.94742 8 8.94742 8 8.94742V8.94742C8 8.94742 8 8.94742 8 8.94742V8.94742C8 8.94742 8 8.94742 8 8.94742C8 8.94742 8 8.94742 8 8.94742V8.94742C8 8.94742 8 8.94742 8 8.94742V8.94742C8 8.94742 8 8.94742 8 8.94742C8 8.94742 8 8.94742 8 8.94742V8.94742C8 8.94742 8 8.94742 8 8.94742C8 8.94742 8 8.94741 8 8.94741V8.94741C8 8.94741 8 8.94741 8 8.94741V8.94741C8 8.94741 8 8.94741 8 8.94741C8 8.94741 8 8.94741 8 8.94741V8.94741C8 8.94741 8 8.94741 8 8.94741V8.94741C8 8.94741 8 8.94741 8 8.94741C8 8.94741 8 8.94741 8 8.94741V8.94741C8 8.94741 8 8.94741 8 8.94741V8.94741C8 8.94741 8 8.94741 8 8.94741C8 8.94741 8 8.94741 8 8.94741V8.94741C8 8.94741 8 8.94741 8 8.94741C8 8.94741 8 8.94741 8 8.94741V8.94741C8 8.94741 8 8.94741 8 8.94741V8.94741C8 8.94741 8 8.94741 8 8.94741C8 8.94741 8 8.94741 8 8.94741V8.94741C8 8.94741 8 8.94741 8 8.94741V8.9474C8 8.9474 8 8.9474 8 8.9474C8 8.9474 8 8.9474 8 8.9474V8.9474C8 8.9474 8 8.9474 8 8.9474V8.9474C8 8.9474 8 8.9474 8 8.9474C8 8.9474 8 8.9474 8 8.9474V8.9474C8 8.9474 8 8.9474 8 8.9474C8 8.9474 8 8.9474 8 8.9474V8.9474C8 8.9474 8 8.9474 8 8.9474V8.9474C8 8.9474 8 8.9474 8 8.9474C8 8.9474 8 8.9474 8 8.9474V8.9474C8 8.9474 8 8.9474 8 8.9474V8.9474C8 8.9474 8 8.9474 8 8.9474C8 8.9474 8 8.9474 8 8.9474V8.9474C8 8.9474 8 8.9474 8 8.9474V8.9474C8 8.9474 8 8.9474 8 8.9474C8 8.9474 8 8.9474 8 8.9474V8.94739C8 8.94739 8 8.94739 8 8.94739C8 8.94739 8 8.94739 8 8.94739V8.94739C8 8.94739 8 8.94739 8 8.94739V8.94739C8 8.94739 8 8.94739 8 8.94739C8 8.94739 8 8.94739 8 8.94739V8.94739C8 8.94739 8 8.94739 8 8.94739V8.94739C8 8.94739 8 8.94739 8 8.94739C8 8.94739 8 8.94739 8 8.94739V8.94739C8 8.94739 8 8.94739 8 8.94739V8.94739C8 8.94739 8 8.94739 8 8.94739C8 8.94739 8 8.94739 8 8.94739V8.94739C8 8.94739 8 8.94739 8 8.94739C8 8.94739 8 8.94739 8 8.94739V8.94739C8 8.94739 8 8.94739 8 8.94739V8.94739C8 8.94739 8 8.94739 8 8.94739C8 8.94739 8 8.94739 8 8.94739V8.94738C8 8.94738 8 8.94738 8 8.94738V8.94738C8 8.94738 8 8.94738 8 8.94738C8 8.94738 8 8.94738 8 8.94738V8.94738C8 8.94738 8 8.94738 8 8.94738V8.94738C8 8.94738 8 8.94738 8 8.94738C8 8.94738 8 8.94738 8 8.94738V8.94738C8 8.94738 8 8.94738 8 8.94738C8 8.94738 8 8.94738 8 8.94738V8.94738C8 8.94738 8 8.94738 8 8.94738V8.94738C8 8.94738 8 8.94738 8 8.94738C8 8.94738 8 8.94738 8 8.94738V8.94738C8 8.94738 8 8.94738 8 8.94738V8.94738C8 8.94738 8 8.94738 8 8.94738C8 8.94738 8 8.94738 8 8.94738V8.94738C8 8.94738 8 8.94738 8 8.94738V8.94738C8 8.94738 8 8.94737 8 8.94737C8 8.94737 8 8.94737 8 8.94737V8.94737C8 8.94737 8 8.94737 8 8.94737C8 8.94737 8 8.94737 8 8.94737V8.94737C8 8.94737 8 8.94737 8 8.94737V8.94737C8 8.94737 8 8.94737 8 8.94737C8 8.94737 8 8.94737 8 8.94737V8.94737C8 8.94737 8 8.94737 8 8.94737V8.94737C8 8.94737 8 8.94737 8 8.94737C8 8.94737 8 8.94737 8 8.94737V8.94737C8 8.94737 8 8.94737 8 8.94737V8.94737C8 8.94737 8 8.94737 8 8.94737C8 8.94737 8 8.94737 8 8.94737V8.94737C8 8.94737 8 8.94737 8 8.94737C8 8.94737 8 8.94737 8 8.94737V8.94737C8 8.94737 8 8.94737 8 8.94737V8.94737C8 8.94737 8 8.94737 8 8.94736C8 8.94736 8 8.94736 8 8.94736V8.94736C8 8.94736 8 8.94736 8 8.94736V8.94736C8 8.94736 8 8.94736 8 8.94736C8 8.94736 8 8.94736 8 8.94736V8.94736C8 8.94736 8 8.94736 8 8.94736V8.94736C8 8.94736 8 8.94736 8 8.94736C8 8.94736 8 8.94736 8 8.94736V8.94736C8 8.94736 8 8.94736 8 8.94736C8 8.94736 8 8.94736 8 8.94736V8.94736C8 8.94736 8 8.94736 8 8.94736V8.94736C8 8.94736 8 8.94736 8 8.94736C8 8.94736 8 8.94736 8 8.94736V8.94736C8 8.94736 8 8.94736 8 8.94736V8.94736C8 8.94736 8 8.94736 8 8.94736C8 8.94736 8 8.94736 8 8.94736V8.94736C8 8.94736 8 8.94736 8 8.94735V8.94735C8 8.94735 8 8.94735 8 8.94735C8 8.94735 8 8.94735 8 8.94735V8.94735C8 8.94735 8 8.94735 8 8.94735C8 8.94735 8 8.94735 8 8.94735V8.94735C8 8.94735 8 8.94735 8 8.94735V8.94735C8 8.94735 8 8.94735 8 8.94735C8 8.94735 8 8.94735 8 8.94735V8.94735C8 8.94735 8 8.94735 8 8.94735V8.94735C8 8.94735 8 8.94735 8 8.94735C8 8.94735 8 8.94735 8 8.94735V8.94735C8 8.94735 8 8.94735 8 8.94735V8.94735C8 8.94735 8 8.94735 8 8.94735C8 8.94735 8 8.94735 8 8.94735V8.94735C8 8.94735 8 8.94735 8 8.94735C8 8.94735 8 8.94735 8 8.94735V8.94735C8 8.94735 8 8.94735 8 8.94734V8.94734C8 8.94734 8 8.94734 8 8.94734C8 8.94734 8 8.94734 8 8.94734V8.94734C8 8.94734 8 8.94734 8 8.94734V8.94734C8 8.94734 8 8.94734 8 8.94734C8 8.94734 8 8.94734 8 8.94734V8.94734C8 8.94734 8 8.94734 8 8.94734C8 8.94734 8 8.94734 8 8.94734V8.94734C8 8.94734 8 8.94734 8 8.94734V8.94734C8 8.94734 8 8.94734 8 8.94734C8 8.94734 8 8.94734 8 8.94734V8.94734C8 8.94734 8 8.94734 8 8.94734V8.94734C8 8.94734 8 8.94734 8 8.94734C8 8.94734 8 8.94734 8 8.94734V8.94734C8 8.94734 8 8.94734 8 8.94734V8.94734C8 8.94734 8 8.94734 8 8.94734C8 8.94734 8 8.94734 8 8.94733V8.94733C8 8.94733 8 8.94733 8 8.94733C8 8.94733 8 8.94733 8 8.94733V8.94733C8 8.94733 8 8.94733 8 8.94733V8.94733C8 8.94733 8 8.94733 8 8.94733C8 8.94733 8 8.94733 8 8.94733V8.94733C8 8.94733 8 8.94733 8 8.94733V8.94733C8 8.94733 8 8.94733 8 8.94733C8 8.94733 8 8.94733 8 8.94733V8.94733C8 8.94733 8 8.94733 8 8.94733V8.94733C8 8.94733 8 8.94733 8 8.94733C8 8.94733 8 8.94733 8 8.94733V8.94733C8 8.94733 8 8.94733 8 8.94733C8 8.94733 8 8.94733 8 8.94733V8.94733C8 8.94733 8 8.94733 8 8.94733V8.94733C8 8.94733 8 8.94733 8 8.94733C8 8.94733 8 8.94732 8 8.94732V8.94732C8 8.94732 8 8.94732 8 8.94732V8.94732C8 8.94732 8 8.94732 8 8.94732C8 8.94732 8 8.94732 8 8.94732V8.94732C8 8.94732 8 8.94732 8 8.94732V8.94732C8 8.94732 8 8.94732 8 8.94732C8 8.94732 8 8.94732 8 8.94732V8.94732C8 8.94732 8 8.94732 8 8.94732C8 8.94732 8 8.94732 8 8.94732V8.94732C8 8.94732 8 8.94732 8 8.94732V8.94732C8 8.94732 8 8.94732 8 8.94732C8 8.94732 8 8.94732 8 8.94732V8.94732C8 8.94732 8 8.94732 8 8.94732V8.94732C8 8.94732 8 8.94732 8 8.94732C8 8.94732 8 8.94732 8 8.94732V8.94732C8 8.94732 8 8.94732 8 8.94732V8.94731C8 8.94731 8 8.94731 8 8.94731C8 8.94731 8 8.94731 8 8.94731V8.94731C8 8.94731 8 8.94731 8 8.94731C8 8.94731 8 8.94731 8 8.94731V8.94731C8 8.94731 8 8.94731 8 8.94731V8.94731C8 8.94731 8 8.94731 8 8.94731C8 8.94731 8 8.94731 8 8.94731V8.94731C8 8.94731 8 8.94731 8 8.94731V8.94731C8 8.94731 8 8.94731 8 8.94731C8 8.94731 8 8.94731 8 8.94731V8.94731C8 8.94731 8 8.94731 8 8.94731V8.94731C8 8.94731 8 8.94731 8 8.94731C8 8.94731 8 8.94731 8 8.94731V8.94731C8 8.94731 8 8.94731 8 8.94731C8 8.94731 8 8.94731 8 8.94731V8.94731C8 8.94731 8 8.94731 8 8.94731V8.9473C8 8.9473 8 8.9473 8 8.9473C8 8.9473 8 8.9473 8 8.9473V8.9473C8 8.9473 8 8.9473 8 8.9473V8.9473C8 8.9473 8 8.9473 8 8.9473C8 8.9473 8 8.9473 8 8.9473V8.9473C8 8.9473 8 8.9473 8 8.9473V8.9473C8 8.9473 8 8.9473 8 8.9473C8 8.9473 8 8.9473 8 8.9473V8.9473C8 8.9473 8 8.9473 8 8.9473C8 8.9473 8 8.9473 8 8.9473V8.9473C8 8.9473 8 8.9473 8 8.9473V8.9473C8 8.9473 8 8.9473 8 8.9473C8 8.9473 8 8.9473 8 8.9473V8.9473C8 8.9473 8 8.9473 8 8.9473V8.9473C8 8.9473 8 8.9473 8 8.9473C8 8.9473 8 8.9473 8 8.9473V8.94729C8 8.94729 8 8.94729 8 8.94729V8.94729C8 8.94729 8 8.94729 8 8.94729C8 8.94729 8 8.94729 8 8.94729V8.94729C8 8.94729 8 8.94729 8 8.94729C8 8.94729 8 8.94729 8 8.94729V8.94729C8 8.94729 8 8.94729 8 8.94729V8.94729C8 8.94729 8 8.94729 8 8.94729C8 8.94729 8 8.94729 8 8.94729V8.94729C8 8.94729 8 8.94729 8 8.94729V8.94729C8 8.94729 8 8.94729 8 8.94729C8 8.94729 8 8.94729 8 8.94729V8.94729C8 8.94729 8 8.94729 8 8.94729V8.94729C8 8.94729 8 8.94729 8 8.94729C8 8.94729 8 8.94729 8 8.94729V8.94729C8 8.94729 8 8.94729 8 8.94729C8 8.94729 8 8.94729 8 8.94729V8.94728C8 8.94728 8 8.94728 8 8.94728V8.94728C8 8.94728 8 8.94728 8 8.94728C8 8.94728 8 8.94728 8 8.94728V8.94728C8 8.94728 8 8.94728 8 8.94728V8.94728C8 8.94728 8 8.94728 8 8.94728C8 8.94728 8 8.94728 8 8.94728V8.94728C8 8.94728 8 8.94728 8 8.94728V8.94728C8 8.94728 8 8.94728 8 8.94728C8 8.94728 8 8.94728 8 8.94728V8.94728C8 8.94728 8 8.94728 8 8.94728C8 8.94728 8 8.94728 8 8.94728V8.94728C8 8.94728 8 8.94728 8 8.94728V8.94728C8 8.94728 8 8.94728 8 8.94728C8 8.94728 8 8.94728 8 8.94728V8.94728C8 8.94728 8 8.94728 8 8.94728V8.94728C8 8.94728 8 8.94728 8 8.94727C8 8.94727 8 8.94727 8 8.94727V8.94727C8 8.94727 8 8.94727 8 8.94727V8.94727C8 8.94727 8 8.94727 8 8.94727C8 8.94727 8 8.94727 8 8.94727V8.94727C8 8.94727 8 8.94727 8 8.94727C8 8.94727 8 8.94727 8 8.94727V8.94727C8 8.94727 8 8.94727 8 8.94727V8.94727C8 8.94727 8 8.94727 8 8.94727C8 8.94727 8 8.94727 8 8.94727V8.94727C8 8.94727 8 8.94727 8 8.94727V8.94727C8 8.94727 8 8.94727 8 8.94727C8 8.94727 8 8.94727 8 8.94727V8.94727C8 8.94727 8 8.94727 8 8.94727V8.94727C8 8.94727 8 8.94727 8 8.94727C8 8.94727 8 8.94727 8 8.94727V8.94727C8 8.94727 8 8.94727 8 8.94726C8 8.94726 8 8.94726 8 8.94726V8.94726C8 8.94726 8 8.94726 8 8.94726V8.94726C8 8.94726 8 8.94726 8 8.94726C8 8.94726 8 8.94726 8 8.94726V8.94726C8 8.94726 8 8.94726 8 8.94726V8.94726C8 8.94726 8 8.94726 8 8.94726C8 8.94726 8 8.94726 8 8.94726V8.94726C8 8.94726 8 8.94726 8 8.94726V8.94726C8 8.94726 8 8.94726 8 8.94726C8 8.94726 8 8.94726 8 8.94726V8.94726C8 8.94726 8 8.94726 8 8.94726C8 8.94726 8 8.94726 8 8.94726V8.94726C8 8.94726 8 8.94726 8 8.94726V8.94726C8 8.94726 8 8.94726 8 8.94726C8 8.94726 8 8.94726 8 8.94726V8.94726C8 8.94726 8 8.94726 8 8.94725V8.94725C8 8.94725 8 8.94725 8 8.94725C8 8.94725 8 8.94725 8 8.94725V8.94725C8 8.94725 8 8.94725 8 8.94725V8.94725C8 8.94725 8 8.94725 8 8.94725C8 8.94725 8 8.94725 8 8.94725V8.94725C8 8.94725 8 8.94725 8 8.94725C8 8.94725 8 8.94725 8 8.94725V8.94725C8 8.94725 8 8.94725 8 8.94725V8.94725C8 8.94725 8 8.94725 8 8.94725C8 8.94725 8 8.94725 8 8.94725V8.94725C8 8.94725 8 8.94725 8 8.94725V8.94725C8 8.94725 8 8.94725 8 8.94725C8 8.94725 8 8.94725 8 8.94725V8.94725C8 8.94725 8 8.94725 8 8.94725V8.94725C8 8.94725 8 8.94725 8 8.94725C8 8.94725 8 8.94725 8 8.94724V8.94724C8 8.94724 8 8.94724 8 8.94724C8 8.94724 8 8.94724 8 8.94724V8.94724C8 8.94724 8 8.94724 8 8.94724V8.94724C8 8.94724 8 8.94724 8 8.94724H6C6 8.94724 6 8.94724 6 8.94724V8.94724C6 8.94724 6 8.94724 6 8.94724V8.94724C6 8.94724 6 8.94724 6 8.94724C6 8.94724 6 8.94724 6 8.94724V8.94724C6 8.94725 6 8.94725 6 8.94725C6 8.94725 6 8.94725 6 8.94725V8.94725C6 8.94725 6 8.94725 6 8.94725V8.94725C6 8.94725 6 8.94725 6 8.94725C6 8.94725 6 8.94725 6 8.94725V8.94725C6 8.94725 6 8.94725 6 8.94725V8.94725C6 8.94725 6 8.94725 6 8.94725C6 8.94725 6 8.94725 6 8.94725V8.94725C6 8.94725 6 8.94725 6 8.94725V8.94725C6 8.94725 6 8.94725 6 8.94725C6 8.94725 6 8.94725 6 8.94725V8.94725C6 8.94725 6 8.94725 6 8.94725C6 8.94725 6 8.94725 6 8.94725V8.94725C6 8.94725 6 8.94725 6 8.94725V8.94725C6 8.94725 6 8.94725 6 8.94725C6 8.94725 6 8.94725 6 8.94725V8.94725C6 8.94726 6 8.94726 6 8.94726V8.94726C6 8.94726 6 8.94726 6 8.94726C6 8.94726 6 8.94726 6 8.94726V8.94726C6 8.94726 6 8.94726 6 8.94726V8.94726C6 8.94726 6 8.94726 6 8.94726C6 8.94726 6 8.94726 6 8.94726V8.94726C6 8.94726 6 8.94726 6 8.94726C6 8.94726 6 8.94726 6 8.94726V8.94726C6 8.94726 6 8.94726 6 8.94726V8.94726C6 8.94726 6 8.94726 6 8.94726C6 8.94726 6 8.94726 6 8.94726V8.94726C6 8.94726 6 8.94726 6 8.94726V8.94726C6 8.94726 6 8.94726 6 8.94726C6 8.94726 6 8.94726 6 8.94726V8.94726C6 8.94726 6 8.94726 6 8.94726V8.94726C6 8.94726 6 8.94726 6 8.94726C6 8.94727 6 8.94727 6 8.94727V8.94727C6 8.94727 6 8.94727 6 8.94727C6 8.94727 6 8.94727 6 8.94727V8.94727C6 8.94727 6 8.94727 6 8.94727V8.94727C6 8.94727 6 8.94727 6 8.94727C6 8.94727 6 8.94727 6 8.94727V8.94727C6 8.94727 6 8.94727 6 8.94727V8.94727C6 8.94727 6 8.94727 6 8.94727C6 8.94727 6 8.94727 6 8.94727V8.94727C6 8.94727 6 8.94727 6 8.94727V8.94727C6 8.94727 6 8.94727 6 8.94727C6 8.94727 6 8.94727 6 8.94727V8.94727C6 8.94727 6 8.94727 6 8.94727C6 8.94727 6 8.94727 6 8.94727V8.94727C6 8.94727 6 8.94727 6 8.94727V8.94727C6 8.94727 6 8.94727 6 8.94727C6 8.94728 6 8.94728 6 8.94728V8.94728C6 8.94728 6 8.94728 6 8.94728V8.94728C6 8.94728 6 8.94728 6 8.94728C6 8.94728 6 8.94728 6 8.94728V8.94728C6 8.94728 6 8.94728 6 8.94728V8.94728C6 8.94728 6 8.94728 6 8.94728C6 8.94728 6 8.94728 6 8.94728V8.94728C6 8.94728 6 8.94728 6 8.94728C6 8.94728 6 8.94728 6 8.94728V8.94728C6 8.94728 6 8.94728 6 8.94728V8.94728C6 8.94728 6 8.94728 6 8.94728C6 8.94728 6 8.94728 6 8.94728V8.94728C6 8.94728 6 8.94728 6 8.94728V8.94728C6 8.94728 6 8.94728 6 8.94728C6 8.94728 6 8.94728 6 8.94728V8.94728C6 8.94728 6 8.94728 6 8.94728V8.94729C6 8.94729 6 8.94729 6 8.94729C6 8.94729 6 8.94729 6 8.94729V8.94729C6 8.94729 6 8.94729 6 8.94729C6 8.94729 6 8.94729 6 8.94729V8.94729C6 8.94729 6 8.94729 6 8.94729V8.94729C6 8.94729 6 8.94729 6 8.94729C6 8.94729 6 8.94729 6 8.94729V8.94729C6 8.94729 6 8.94729 6 8.94729V8.94729C6 8.94729 6 8.94729 6 8.94729C6 8.94729 6 8.94729 6 8.94729V8.94729C6 8.94729 6 8.94729 6 8.94729V8.94729C6 8.94729 6 8.94729 6 8.94729C6 8.94729 6 8.94729 6 8.94729V8.94729C6 8.94729 6 8.94729 6 8.94729C6 8.94729 6 8.94729 6 8.94729V8.94729C6 8.94729 6 8.94729 6 8.94729V8.9473C6 8.9473 6 8.9473 6 8.9473C6 8.9473 6 8.9473 6 8.9473V8.9473C6 8.9473 6 8.9473 6 8.9473V8.9473C6 8.9473 6 8.9473 6 8.9473C6 8.9473 6 8.9473 6 8.9473V8.9473C6 8.9473 6 8.9473 6 8.9473V8.9473C6 8.9473 6 8.9473 6 8.9473C6 8.9473 6 8.9473 6 8.9473V8.9473C6 8.9473 6 8.9473 6 8.9473C6 8.9473 6 8.9473 6 8.9473V8.9473C6 8.9473 6 8.9473 6 8.9473V8.9473C6 8.9473 6 8.9473 6 8.9473C6 8.9473 6 8.9473 6 8.9473V8.9473C6 8.9473 6 8.9473 6 8.9473V8.9473C6 8.9473 6 8.9473 6 8.9473C6 8.9473 6 8.9473 6 8.9473V8.94731C6 8.94731 6 8.94731 6 8.94731V8.94731C6 8.94731 6 8.94731 6 8.94731C6 8.94731 6 8.94731 6 8.94731V8.94731C6 8.94731 6 8.94731 6 8.94731C6 8.94731 6 8.94731 6 8.94731V8.94731C6 8.94731 6 8.94731 6 8.94731V8.94731C6 8.94731 6 8.94731 6 8.94731C6 8.94731 6 8.94731 6 8.94731V8.94731C6 8.94731 6 8.94731 6 8.94731V8.94731C6 8.94731 6 8.94731 6 8.94731C6 8.94731 6 8.94731 6 8.94731V8.94731C6 8.94731 6 8.94731 6 8.94731V8.94731C6 8.94731 6 8.94731 6 8.94731C6 8.94731 6 8.94731 6 8.94731V8.94731C6 8.94731 6 8.94731 6 8.94731C6 8.94731 6 8.94731 6 8.94731V8.94732C6 8.94732 6 8.94732 6 8.94732V8.94732C6 8.94732 6 8.94732 6 8.94732C6 8.94732 6 8.94732 6 8.94732V8.94732C6 8.94732 6 8.94732 6 8.94732V8.94732C6 8.94732 6 8.94732 6 8.94732C6 8.94732 6 8.94732 6 8.94732V8.94732C6 8.94732 6 8.94732 6 8.94732V8.94732C6 8.94732 6 8.94732 6 8.94732C6 8.94732 6 8.94732 6 8.94732V8.94732C6 8.94732 6 8.94732 6 8.94732C6 8.94732 6 8.94732 6 8.94732V8.94732C6 8.94732 6 8.94732 6 8.94732V8.94732C6 8.94732 6 8.94732 6 8.94732C6 8.94732 6 8.94732 6 8.94732V8.94732C6 8.94732 6 8.94732 6 8.94732V8.94732C6 8.94732 6 8.94733 6 8.94733C6 8.94733 6 8.94733 6 8.94733V8.94733C6 8.94733 6 8.94733 6 8.94733V8.94733C6 8.94733 6 8.94733 6 8.94733C6 8.94733 6 8.94733 6 8.94733V8.94733C6 8.94733 6 8.94733 6 8.94733C6 8.94733 6 8.94733 6 8.94733V8.94733C6 8.94733 6 8.94733 6 8.94733V8.94733C6 8.94733 6 8.94733 6 8.94733C6 8.94733 6 8.94733 6 8.94733V8.94733C6 8.94733 6 8.94733 6 8.94733V8.94733C6 8.94733 6 8.94733 6 8.94733C6 8.94733 6 8.94733 6 8.94733V8.94733C6 8.94733 6 8.94733 6 8.94733V8.94733C6 8.94733 6 8.94733 6 8.94733C6 8.94733 6 8.94733 6 8.94733V8.94733C6 8.94734 6 8.94734 6 8.94734C6 8.94734 6 8.94734 6 8.94734V8.94734C6 8.94734 6 8.94734 6 8.94734V8.94734C6 8.94734 6 8.94734 6 8.94734C6 8.94734 6 8.94734 6 8.94734V8.94734C6 8.94734 6 8.94734 6 8.94734V8.94734C6 8.94734 6 8.94734 6 8.94734C6 8.94734 6 8.94734 6 8.94734V8.94734C6 8.94734 6 8.94734 6 8.94734V8.94734C6 8.94734 6 8.94734 6 8.94734C6 8.94734 6 8.94734 6 8.94734V8.94734C6 8.94734 6 8.94734 6 8.94734C6 8.94734 6 8.94734 6 8.94734V8.94734C6 8.94734 6 8.94734 6 8.94734V8.94734C6 8.94734 6 8.94734 6 8.94734C6 8.94734 6 8.94734 6 8.94734V8.94734C6 8.94735 6 8.94735 6 8.94735V8.94735C6 8.94735 6 8.94735 6 8.94735C6 8.94735 6 8.94735 6 8.94735V8.94735C6 8.94735 6 8.94735 6 8.94735C6 8.94735 6 8.94735 6 8.94735V8.94735C6 8.94735 6 8.94735 6 8.94735V8.94735C6 8.94735 6 8.94735 6 8.94735C6 8.94735 6 8.94735 6 8.94735V8.94735C6 8.94735 6 8.94735 6 8.94735V8.94735C6 8.94735 6 8.94735 6 8.94735C6 8.94735 6 8.94735 6 8.94735V8.94735C6 8.94735 6 8.94735 6 8.94735V8.94735C6 8.94735 6 8.94735 6 8.94735C6 8.94735 6 8.94735 6 8.94735V8.94735C6 8.94735 6 8.94735 6 8.94735C6 8.94735 6 8.94735 6 8.94735V8.94735C6 8.94736 6 8.94736 6 8.94736V8.94736C6 8.94736 6 8.94736 6 8.94736C6 8.94736 6 8.94736 6 8.94736V8.94736C6 8.94736 6 8.94736 6 8.94736V8.94736C6 8.94736 6 8.94736 6 8.94736C6 8.94736 6 8.94736 6 8.94736V8.94736C6 8.94736 6 8.94736 6 8.94736V8.94736C6 8.94736 6 8.94736 6 8.94736C6 8.94736 6 8.94736 6 8.94736V8.94736C6 8.94736 6 8.94736 6 8.94736C6 8.94736 6 8.94736 6 8.94736V8.94736C6 8.94736 6 8.94736 6 8.94736V8.94736C6 8.94736 6 8.94736 6 8.94736C6 8.94736 6 8.94736 6 8.94736V8.94736C6 8.94736 6 8.94736 6 8.94736V8.94736C6 8.94736 6 8.94736 6 8.94736C6 8.94737 6 8.94737 6 8.94737V8.94737C6 8.94737 6 8.94737 6 8.94737V8.94737C6 8.94737 6 8.94737 6 8.94737C6 8.94737 6 8.94737 6 8.94737V8.94737C6 8.94737 6 8.94737 6 8.94737C6 8.94737 6 8.94737 6 8.94737V8.94737C6 8.94737 6 8.94737 6 8.94737V8.94737C6 8.94737 6 8.94737 6 8.94737C6 8.94737 6 8.94737 6 8.94737V8.94737C6 8.94737 6 8.94737 6 8.94737V8.94737C6 8.94737 6 8.94737 6 8.94737C6 8.94737 6 8.94737 6 8.94737V8.94737C6 8.94737 6 8.94737 6 8.94737V8.94737C6 8.94737 6 8.94737 6 8.94737C6 8.94737 6 8.94737 6 8.94737V8.94737C6 8.94737 6 8.94737 6 8.94737C6 8.94737 6 8.94738 6 8.94738V8.94738C6 8.94738 6 8.94738 6 8.94738V8.94738C6 8.94738 6 8.94738 6 8.94738C6 8.94738 6 8.94738 6 8.94738V8.94738C6 8.94738 6 8.94738 6 8.94738V8.94738C6 8.94738 6 8.94738 6 8.94738C6 8.94738 6 8.94738 6 8.94738V8.94738C6 8.94738 6 8.94738 6 8.94738V8.94738C6 8.94738 6 8.94738 6 8.94738C6 8.94738 6 8.94738 6 8.94738V8.94738C6 8.94738 6 8.94738 6 8.94738C6 8.94738 6 8.94738 6 8.94738V8.94738C6 8.94738 6 8.94738 6 8.94738V8.94738C6 8.94738 6 8.94738 6 8.94738C6 8.94738 6 8.94738 6 8.94738V8.94738C6 8.94738 6 8.94738 6 8.94738V8.94739C6 8.94739 6 8.94739 6 8.94739C6 8.94739 6 8.94739 6 8.94739V8.94739C6 8.94739 6 8.94739 6 8.94739V8.94739C6 8.94739 6 8.94739 6 8.94739C6 8.94739 6 8.94739 6 8.94739V8.94739C6 8.94739 6 8.94739 6 8.94739C6 8.94739 6 8.94739 6 8.94739V8.94739C6 8.94739 6 8.94739 6 8.94739V8.94739C6 8.94739 6 8.94739 6 8.94739C6 8.94739 6 8.94739 6 8.94739V8.94739C6 8.94739 6 8.94739 6 8.94739V8.94739C6 8.94739 6 8.94739 6 8.94739C6 8.94739 6 8.94739 6 8.94739V8.94739C6 8.94739 6 8.94739 6 8.94739V8.94739C6 8.94739 6 8.94739 6 8.94739C6 8.94739 6 8.94739 6 8.94739V8.9474C6 8.9474 6 8.9474 6 8.9474C6 8.9474 6 8.9474 6 8.9474V8.9474C6 8.9474 6 8.9474 6 8.9474V8.9474C6 8.9474 6 8.9474 6 8.9474C6 8.9474 6 8.9474 6 8.9474V8.9474C6 8.9474 6 8.9474 6 8.9474V8.9474C6 8.9474 6 8.9474 6 8.9474C6 8.9474 6 8.9474 6 8.9474V8.9474C6 8.9474 6 8.9474 6 8.9474V8.9474C6 8.9474 6 8.9474 6 8.9474C6 8.9474 6 8.9474 6 8.9474V8.9474C6 8.9474 6 8.9474 6 8.9474C6 8.9474 6 8.9474 6 8.9474V8.9474C6 8.9474 6 8.9474 6 8.9474V8.9474C6 8.9474 6 8.9474 6 8.9474C6 8.9474 6 8.9474 6 8.9474V8.94741C6 8.94741 6 8.94741 6 8.94741V8.94741C6 8.94741 6 8.94741 6 8.94741C6 8.94741 6 8.94741 6 8.94741V8.94741C6 8.94741 6 8.94741 6 8.94741V8.94741C6 8.94741 6 8.94741 6 8.94741C6 8.94741 6 8.94741 6 8.94741V8.94741C6 8.94741 6 8.94741 6 8.94741C6 8.94741 6 8.94741 6 8.94741V8.94741C6 8.94741 6 8.94741 6 8.94741V8.94741C6 8.94741 6 8.94741 6 8.94741C6 8.94741 6 8.94741 6 8.94741V8.94741C6 8.94741 6 8.94741 6 8.94741V8.94741C6 8.94741 6 8.94741 6 8.94741C6 8.94741 6 8.94741 6 8.94741V8.94741C6 8.94741 6 8.94741 6 8.94741V8.94741C6 8.94741 6 8.94742 6 8.94742C6 8.94742 6 8.94742 6 8.94742V8.94742C6 8.94742 6 8.94742 6 8.94742C6 8.94742 6 8.94742 6 8.94742V8.94742C6 8.94742 6 8.94742 6 8.94742V8.94742C6 8.94742 6 8.94742 6 8.94742C6 8.94742 6 8.94742 6 8.94742V8.94742C6 8.94742 6 8.94742 6 8.94742V8.94742C6 8.94742 6 8.94742 6 8.94742C6 8.94742 6 8.94742 6 8.94742V8.94742C6 8.94742 6 8.94742 6 8.94742V8.94742C6 8.94742 6 8.94742 6 8.94742C6 8.94742 6 8.94742 6 8.94742V8.94742C6 8.94742 6 8.94742 6 8.94742C6 8.94742 6 8.94742 6 8.94742V8.94742C6 8.94742 6 8.94742 6 8.94742V8.94742C6 8.94742 6 8.94742 6 8.94743C6 8.94743 6 8.94743 6 8.94743V8.94743C6 8.94743 6 8.94743 6 8.94743V8.94743C6 8.94743 6 8.94743 6 8.94743C6 8.94743 6 8.94743 6 8.94743V8.94743C6 8.94743 6 8.94743 6 8.94743V8.94743C6 8.94743 6 8.94743 6 8.94743C6 8.94743 6 8.94743 6 8.94743V8.94743C6 8.94743 6 8.94743 6 8.94743C6 8.94743 6 8.94743 6 8.94743V8.94743C6 8.94743 6 8.94743 6 8.94743V8.94743C6 8.94743 6 8.94743 6 8.94743C6 8.94743 6 8.94743 6 8.94743V8.94743C6 8.94743 6 8.94743 6 8.94743V8.94743C6 8.94743 6 8.94743 6 8.94743C6 8.94743 6 8.94743 6 8.94743V8.94743C6 8.94743 6 8.94743 6 8.94744V8.94744C6 8.94744 6 8.94744 6 8.94744C6 8.94744 6 8.94744 6 8.94744V8.94744C6 8.94744 6 8.94744 6 8.94744C6 8.94744 6 8.94744 6 8.94744V8.94744C6 8.94744 6 8.94744 6 8.94744V8.94744C6 8.94744 6 8.94744 6 8.94744H8ZM9.48834 8.9999C8.93858 8.9999 8.46086 8.87524 8.14779 8.72985C7.98847 8.65587 7.90744 8.5931 7.88323 8.57012C7.82949 8.51912 7.99977 8.64532 8 8.94667L6 8.94821C6.0004 9.46711 6.30924 9.83363 6.5064 10.0208C6.73308 10.2359 7.01527 10.4091 7.30543 10.5438C7.89132 10.8159 8.6576 10.9999 9.48834 10.9999V8.9999ZM11 8.94724C11 8.63787 11.1778 8.50974 11.1194 8.56419C11.0931 8.58877 11.0086 8.6528 10.8451 8.72774C10.5239 8.87503 10.0385 8.9999 9.48834 8.9999V10.9999C10.3189 10.9999 11.0893 10.816 11.6787 10.5457C11.9706 10.4119 12.2551 10.24 12.484 10.0264C12.6809 9.84266 13 9.47417 13 8.94724H11ZM11 8.94655L11 8.94724H13L13 8.94655H11ZM11 6.20776V8.94655H13V6.20776H11Z" fill="#745A26" mask="url(#path-7-inside-1_20058_216070)"/>
<path d="M11.4994 6.2449C11.4953 6.25482 11.4841 6.27771 11.4564 6.31283C11.403 6.3806 11.3041 6.47135 11.1426 6.56291C10.8211 6.74518 10.2852 6.91052 9.5 6.91052C8.74101 6.91052 8.20312 6.74617 7.8725 6.56141C7.7062 6.46847 7.60188 6.3759 7.54473 6.30598C7.51826 6.27358 7.50618 6.25174 7.50106 6.24089C7.51072 6.15524 7.59194 5.98387 7.95392 5.80481C8.32131 5.62308 8.86631 5.5 9.5 5.5C10.1337 5.5 10.6787 5.62308 11.0461 5.80481C11.4138 5.98671 11.4918 6.16068 11.4994 6.2449Z" fill="#EDB120" stroke="#745A26"/>
</svg>
