<svg width="21" height="16" viewBox="0 0 21 16" fill="none" xmlns="http://www.w3.org/2000/svg">
<path d="M10.5 1L3.5 5V10.5L10.5 14.5L17.5 10.5V5L10.5 1Z" fill="var(--mw-icon-background-default-white, #FFFFFF)"/>
<path d="M10.502 6.497L10.5041 1L17.3268 4.93223V10.4116L10.502 6.497Z" fill="var(--mw-icon-background-default-light-gray, #F5F5F5)"/>
<path d="M10.502 6.497L10.4998 1L3.67706 4.93724L3.67706 10.4116L10.502 6.497Z" fill="#E6E6E6"/>
<path d="M17.5038 10.2722V5.06086L10.5019 1.02222L3.5 4.99997" stroke="var(--mw-icon-background-default-dark-gray, #A6A6A6)" stroke-linecap="round" stroke-linejoin="round"/>
<path d="M3.5 5V10.3281L10.5 14.3697L17.5 10.33" stroke="var(--mw-icon-border-default-gray, #616161)" stroke-linecap="round" stroke-linejoin="round"/>
<path d="M5.5 8.66937L10.5 5.91937L15.5 8.66937L10.5 11.4194L5.5 8.66937Z" fill="#EDB120" stroke="#745A26" stroke-linejoin="round"/>
<path d="M11 6C11 5.72386 10.7761 5.5 10.5 5.5C10.2239 5.5 10 5.72386 10 6L11 6ZM10 8.5L10 9L11 9L11 8.5L10 8.5ZM10 6L10 8.5L11 8.5L11 6L10 6Z" fill="#745A26"/>
<path d="M8.09106 5.08089L10.6802 3.5L13.2693 5.08089L10.6802 6.66177L8.09106 5.08089Z" fill="#EDB120" stroke="#745A26" stroke-linejoin="round"/>
</svg>
