<svg width="20" height="16" viewBox="0 0 20 16" fill="none" xmlns="http://www.w3.org/2000/svg">
<rect x="0.5" y="0.5" width="18" height="14" fill="var(--mw-icon-background-default-white, #FFFFFF)"/>
<path d="M2 2.5C2 2.22386 2.22386 2 2.5 2H16.5C16.7761 2 17 2.22386 17 2.5V12.5C17 12.7761 16.7761 13 16.5 13H2.5C2.22386 13 2 12.7761 2 12.5V2.5Z" fill="#37C897"/>
<path d="M3.04651 5.33329V2.66663H3.39535L3.74418 3.99996H4.44186V4.88885L3.04651 5.33329Z" fill="#12B1D6"/>
<path d="M13.1513 5.69842L14.1135 5.25653L17 5.69842L17 12.6666C17 12.8507 16.8438 13 16.6511 13H8.29032L8.27906 11.3333L7.93022 11.6666H5.13953L3.39535 11V10.6666H8.6279V9.66663H10.0232V8.99996H11.4186V8.33329H12.4651V6.66663H13.1513V5.69842Z" fill="#12B1D6"/>
<path d="M14.907 7.66668V8.00001H15.9535V8.33334H16.6512V7.66668H15.9535L15.6047 7.33334H14.907V6.66668H14.2093L13.5116 7.66668L13.3372 7.00001H12.814V8.33334H13.5116L13.6861 8.00001L14.2093 7.33334H14.5581V7.66668H14.907Z" fill="#4852F4"/>
<path d="M3.74418 2L13.8668 3.98849L14.907 4.13519V4L14.2093 3.66667V3H15.9535V3.33333L15.7911 3.5466H15.4704V4H15.7791V4.25818L17 4.43037V4.99123L13.8605 4.3416V4.75H13.1628L12.8139 5H12.4651V4.75L12.1163 4.5V4.25L12.4097 4.03974L11.9425 3.93533V4.43037L11.593 4.66667H11.0698L10.8953 4.33333L11.4186 4.16667V4L10.3388 3.98848L10.0232 4.33333H9.37666L9.05594 3.76754L9.35403 3.35684L3.28289 2H3.74418Z" fill="#4852F4"/>
<path d="M6.18604 3.83333L7.05813 4.27778L6.7093 4.72222V5.16667H6.5L6.36046 4.9L5.66279 4.72222L6.18604 3.83333Z" fill="#4852F4"/>
<path d="M8.56976 6L8.27906 5H10.0232V6H8.56976Z" fill="#4852F4"/>
<path d="M14.554 13V12.3333H15.6046V12.1667L14.907 12V11.3333H16.6511L16.7532 11.2104L16.4294 10.6667H15.6046V11.0115H14.554L14.0349 11.1667H13.5116L13.686 10.8333L14.3837 10.6667L14.554 10.415L13.8605 10.1667L13.7293 10.3333H13.1795V9.22187L12.6296 9.02302L12.3547 9.42072H11.53V9.81841H12.0798V10.2161H11.53L10.7053 9.58738L10.1555 9.38854L9.60569 9.78623H10.1555L10.4304 10.0173H10.018L9.76106 10.1167L10.0232 10.3333H11.0698V11.1667L10.7053 11.3333H10.0232L10.018 11L10.1977 10.8333L9.67441 10.3333H8.97674L9.49999 10.8333L8.97674 11V11.3333H9.33078L9.15115 11.8333L9.33078 12.0057V12.6667H8.6279L8.45348 12.5L8.27906 12.6667H7.93023L7.68135 12.4034H7.13154V12.6023H6.03191L5.83721 12.3333L4.44186 12.3372V12.6667H3.39535V12.5L3.60362 12.3372V12H3.74418L4.44186 11.5V10.8333L3.74418 11.3333H2.34884L2 11.1667V12.6667C2 12.8508 2.15618 13 2.34884 13L14.554 13Z" fill="#4852F4"/>
<path d="M3.28289 8.51975L2 8.07786V10.3333H2.69767V9.66667H3.74418L4.26744 10H5.13953V8.33333H3.9186L3.28289 8.51975Z" fill="#4852F4"/>
<path d="M2 6.66668H5.13953V6.33333L6.16937 6V5.31797L7.23255 5.66667V7.33333L5.52796 7.31102V7.63596L4.88651 7.8569H3.0595L2 7.41502V6.66668Z" fill="#4852F4"/>
<path d="M7.58143 2.5V2H12.4651V3.33333L7.58143 2.5Z" fill="#4852F4"/>
<path d="M14.5582 2.66667V2H15.6047V2.33333L14.907 2.66667H14.5582Z" fill="#FEC338"/>
<path d="M4.44189 4.33333V3.33333L5.83724 3.66667V4.33333H4.44189Z" fill="#FEC338"/>
<path d="M13.25 2.90642V2.72513L13.6448 2.54384H13.8421V2.90642L13.4474 3.0877V3.26899H13.8421V3.63156H13.25L13.0527 3.45028V3.0877L13.4474 2.90642H13.25Z" fill="#FEC338"/>
<rect x="0.5" y="0.5" width="18" height="14" stroke="var(--mw-icon-border-default-gray, #616161)" stroke-linejoin="round"/>
</svg>
