<svg width="20" height="16" viewBox="0 0 20 16" fill="none" xmlns="http://www.w3.org/2000/svg">
<path d="M3.00012 2H0.400122C0.179208 2 0.00012207 2.17909 0.00012207 2.4V12.6C0.00012207 12.8209 0.179208 13 0.400122 13H3.00012V2Z" fill="var(--mw-icon-glyph-content-dark-gray, #333333)"/>
<path d="M16.0001 2H18.6001C18.821 2 19.0001 2.17909 19.0001 2.4V12.6C19.0001 12.8209 18.821 13 18.6001 13H16.0001V2Z" fill="var(--mw-icon-glyph-content-dark-gray, #333333)"/>
<path d="M18.0001 3.5C18.0001 3.77614 17.7763 4 17.5001 4C17.224 4 17.0001 3.77614 17.0001 3.5C17.0001 3.22386 17.224 3 17.5001 3C17.7763 3 18.0001 3.22386 18.0001 3.5Z" fill="var(--mw-icon-background-default-white, #FFFFFF)"/>
<path d="M18.0001 5.5C18.0001 5.77614 17.7763 6 17.5001 6C17.224 6 17.0001 5.77614 17.0001 5.5C17.0001 5.22386 17.224 5 17.5001 5C17.7763 5 18.0001 5.22386 18.0001 5.5Z" fill="white"/>
<path d="M18.0001 7.5C18.0001 7.77614 17.7763 8 17.5001 8C17.224 8 17.0001 7.77614 17.0001 7.5C17.0001 7.22386 17.224 7 17.5001 7C17.7763 7 18.0001 7.22386 18.0001 7.5Z" fill="white"/>
<path d="M18.0001 9.5C18.0001 9.77614 17.7763 10 17.5001 10C17.224 10 17.0001 9.77614 17.0001 9.5C17.0001 9.22386 17.224 9 17.5001 9C17.7763 9 18.0001 9.22386 18.0001 9.5Z" fill="white"/>
<path d="M18.0001 11.5C18.0001 11.7761 17.7763 12 17.5001 12C17.224 12 17.0001 11.7761 17.0001 11.5C17.0001 11.2239 17.224 11 17.5001 11C17.7763 11 18.0001 11.2239 18.0001 11.5Z" fill="white"/>
<path d="M2.00012 3.5C2.00012 3.77614 1.77626 4 1.50012 4C1.22398 4 1.00012 3.77614 1.00012 3.5C1.00012 3.22386 1.22398 3 1.50012 3C1.77626 3 2.00012 3.22386 2.00012 3.5Z" fill="white"/>
<path d="M2.00012 5.5C2.00012 5.77614 1.77626 6 1.50012 6C1.22398 6 1.00012 5.77614 1.00012 5.5C1.00012 5.22386 1.22398 5 1.50012 5C1.77626 5 2.00012 5.22386 2.00012 5.5Z" fill="white"/>
<path d="M2.00012 7.5C2.00012 7.77614 1.77626 8 1.50012 8C1.22398 8 1.00012 7.77614 1.00012 7.5C1.00012 7.22386 1.22398 7 1.50012 7C1.77626 7 2.00012 7.22386 2.00012 7.5Z" fill="white"/>
<path d="M2.00012 9.5C2.00012 9.77614 1.77626 10 1.50012 10C1.22398 10 1.00012 9.77614 1.00012 9.5C1.00012 9.22386 1.22398 9 1.50012 9C1.77626 9 2.00012 9.22386 2.00012 9.5Z" fill="white"/>
<path d="M2.00012 11.5C2.00012 11.7761 1.77626 12 1.50012 12C1.22398 12 1.00012 11.7761 1.00012 11.5C1.00012 11.2239 1.22398 11 1.50012 11C1.77626 11 2.00012 11.2239 2.00012 11.5Z" fill="white"/>
<rect x="3.00012" width="13" height="15" rx="0.4" fill="var(--mw-icon-background-default-medium-gray, #D9D9D9)"/>
<path d="M4.00012 4.26891C4.00012 4.13491 4.12785 4.03772 4.25683 4.0741C5.07771 4.3056 7.69075 5 9.50012 5C11.3095 5 13.9225 4.3056 14.7434 4.0741C14.8724 4.03772 15.0001 4.13491 15.0001 4.26891V10.7311C15.0001 10.8651 14.8724 10.9623 14.7434 10.9259C13.9225 10.6944 11.3095 10 9.50012 10C7.69075 10 5.07771 10.6944 4.25683 10.9259C4.12785 10.9623 4.00012 10.8651 4.00012 10.7311V4.26891Z" fill="var(--mw-icon-background-default-dark-gray, #A6A6A6)"/>
<path d="M4.50012 15V12.7775C4.50012 12.6106 4.60385 12.4616 4.76188 12.4079C5.49026 12.1605 7.61148 11.5 9.50012 11.5C11.3888 11.5 13.51 12.1605 14.2384 12.4079C14.3964 12.4616 14.5001 12.6106 14.5001 12.7775V15M4.50012 0V2.22246C4.50012 2.38936 4.60385 2.53843 4.76188 2.59211C5.49026 2.83953 7.61148 3.5 9.50012 3.5C11.3888 3.5 13.51 2.83953 14.2384 2.59211C14.3964 2.53843 14.5001 2.38936 14.5001 2.22246V0" stroke="var(--mw-icon-border-default-gray, #616161)"/>
<rect x="8.00012" y="6" width="3" height="3" rx="0.2" fill="var(--mw-icon-glyph-content-blue, #1656A8)"/>
</svg>
