<svg width="20" height="16" viewBox="0 0 20 16" fill="none" xmlns="http://www.w3.org/2000/svg">
<rect x="0.5" y="0.5" width="18" height="14" fill="var(--mw-icon-background-default-white, #FFFFFF)"/>
<path d="M2 2.5C2 2.22386 2.22386 2 2.5 2H16.5C16.7761 2 17 2.22386 17 2.5V12.5C17 12.7761 16.7761 13 16.5 13H2.5C2.22386 13 2 12.7761 2 12.5V2.5Z" fill="#2E87F7"/>
<path d="M3.74418 2L13.8668 3.98849L14.907 4.13519V4L14.2093 3.66667V3H15.9535V3.33333L15.7911 3.5466H15.4704V4H15.7791V4.25818L17 4.43037V4.99123L13.8605 4.3416V4.75H13.1628L12.8139 5H12.4651V4.75L12.1163 4.5V4.25L12.4097 4.03974L11.9425 3.93533V4.43037L11.593 4.66667H11.0698L10.8953 4.33333L11.4186 4.16667V4L10.3388 3.98848L10.0232 4.33333H9.37666L9.05594 3.76754L9.35403 3.35684L3.28289 2H3.74418Z" fill="#37C897"/>
<path d="M3.04651 5.33333V2.66667H3.39535L3.74418 4H4.44186V4.88889L3.04651 5.33333Z" fill="#37C897"/>
<path d="M7.05813 4.27778L6.18604 3.83333L5.66279 4.72222L6.36046 4.9L6.5 5.16667H6.7093V4.72222L7.05813 4.27778Z" fill="#37C897"/>
<path d="M8.27906 5L8.56976 6H10.0232V5H8.27906Z" fill="#37C897"/>
<path fill-rule="evenodd" clip-rule="evenodd" d="M14.1135 5.25657L13.1513 5.69846V6.66667H12.4651V8.33333H11.4186V9H10.0232V9.66667H8.6279V10.6667H3.39535V11L3.92619 11.2029L3.74418 11.3333H2.34884L2 11.1667V12.6667C2 12.8507 2.15618 13 2.34884 13H5.84868L5.83721 12.8333V12.5L5.84868 12.3372H4.44186V12.6667H3.39535V12.5L3.60362 12.3372V12H3.74418L4.44186 11.5V11.4L5.13953 11.6667H7.93023L8.27906 11.3333L8.29032 13H16.6511C16.8438 13 17 12.8508 17 12.6667L17 5.69846L14.1135 5.25657Z" fill="#37C897"/>
<path d="M3.28289 8.51975L2 8.07786V10.3333H2.69767V9.66667H3.74418L4.26744 10H5.13953V8.33333H3.9186L3.28289 8.51975Z" fill="#37C897"/>
<path d="M2 6.66668H5.13953V6.33333L6.16937 6V5.31797L7.23255 5.66667V7.33333L5.52796 7.31102V7.63596L4.88651 7.8569H3.0595L2 7.41502V6.66668Z" fill="#37C897"/>
<path d="M7.58143 2.5V2H12.4651V3.33333L7.58143 2.5Z" fill="#37C897"/>
<path d="M14.907 7.66669V8.00002H15.9535V8.33335H16.6511V7.66669H15.9535L15.6046 7.33335H14.907V6.66669H14.2093L13.5116 7.66669L13.3372 7.00002H12.8139V8.33335H13.5116L13.686 8.00002L14.2093 7.33335H14.5581V7.66669H14.907Z" fill="#ABC739"/>
<path d="M14.554 13L5.13953 13V12.3334H5.8372L6.03191 12.6023H7.13153V12.4035H7.68134L7.93022 12.6667H8.27906L8.45348 12.5L8.62789 12.6667H9.33078V12.0058L9.15115 11.8334L9.33078 11.3334H8.97673V11L9.49999 10.8334L8.97673 10.3334H9.67441L10.1977 10.8334L10.018 11L10.0232 11.3334H10.7053L11.0698 11.1667V10.3334H10.0232L9.76106 10.1167L10.018 10.0173H10.4304L10.1555 9.78625H9.60568L10.1555 9.38856L10.7053 9.5874L11.53 10.2161H12.0798V9.81844H11.53V9.42074H12.3547L12.6296 9.02304L13.1795 9.22189V10.3334H13.7293L13.8604 10.1667L14.554 10.415L14.3837 10.6667L13.686 10.8334L13.5116 11.1667H14.0349L14.554 11.0115H15.6046V10.6667H16.4293L16.7532 11.2104L16.6511 11.3334H14.907V12L15.6046 12.1667V12.3334H14.554V13Z" fill="#ABC739"/>
<path d="M12.4651 11V11.25L12.814 11.3333V11H12.4651Z" fill="#F9FB15"/>
<path d="M13.5116 12.3333V12.6667H13.8605V12.3333H13.5116Z" fill="#F9FB15"/>
<path d="M11.7675 11.3333V11.8333L12.4651 12V11.3333H11.7675Z" fill="#F9FB15"/>
<path d="M4.44189 4.33331V3.33331L5.83724 3.66665V4.33331H4.44189Z" fill="#4852F4"/>
<rect x="0.5" y="0.5" width="18" height="14" stroke="var(--mw-icon-border-default-gray, #616161)" stroke-linejoin="round"/>
</svg>
