<svg width="20" height="16" viewBox="0 0 20 16" fill="none" xmlns="http://www.w3.org/2000/svg">
<rect x="0.5" y="0.5" width="18" height="14" fill="var(--mw-icon-background-default-white, #FFFFFF)"/>
<path d="M2 2.5C2 2.22386 2.22386 2 2.5 2H16.5C16.7761 2 17 2.22386 17 2.5V12.5C17 12.7761 16.7761 13 16.5 13H2.5C2.22386 13 2 12.7761 2 12.5V2.5Z" fill="#2E87F7"/>
<path d="M4.44189 4.33331V3.33331L5.83724 3.66665V4.33331H4.44189Z" fill="#4852F4"/>
<path d="M15.9534 3H14.2092V3.66667L14.9069 4V4.33333H15.779V4H15.4703V3.76754V3.5466H15.791L15.9534 3.33333V3Z" fill="#F9FB15"/>
<path d="M13.8667 3.98848L3.74413 2H3.28284L12.4096 4.03974L12.1162 4.25V4.5L12.4651 4.75V5H12.8139L13.1627 4.75H13.8604V4.3416L16.9999 4.99122V4.43037L13.8667 3.98848Z" fill="#ABC739"/>
<path d="M8.56971 6L8.27901 5H10.0232V6H8.56971Z" fill="#ABC739"/>
<path d="M14.1134 5.25657L13.1513 5.69845V6.66666H12.4651V8.33333H11.4185V8.99999H10.0232V9.66666H8.62785V10.6667H3.3953V11L5.13948 11.6667H7.93018L8.27901 11.3333L8.29027 13L16.653 13C16.8457 13 16.9999 12.8507 16.9999 12.6667L17 5.69845L14.1134 5.25657Z" fill="#ABC739"/>
<path d="M6.16931 5.31797V6L5.13948 6.33333V7.30592L7.2325 7.33333V5.66666L6.16931 5.31797Z" fill="#ABC739"/>
<path d="M14.5581 2.66667V2H15.6046V2.33333L14.907 2.66667H14.5581Z" fill="#FEC338"/>
<path d="M14.907 7.66666V7.99999H15.9535V8.33333H16.6511V7.66666H15.9535L15.6046 7.33333H14.907V6.66666H14.2093L13.5116 7.66666L13.3372 6.99999H12.8139V8.33333H13.5116L13.686 7.99999L14.2093 7.33333H14.5581V7.66666H14.907Z" fill="#FEC338"/>
<path d="M2.34884 11.3333L2 11.1667V12.6666C2 12.8507 2.15618 13 2.34884 13L14.554 13V12.3333H15.6046V12.1667L14.907 12V11.3333H16.6511L16.7532 11.2103L16.4293 10.6667H15.6046V11.0115H14.554L14.0349 11.1667H13.5116L13.686 10.8333L14.3837 10.6667L14.554 10.415L13.8604 10.1667L13.7293 10.3333H13.1795V9.22186L12.6296 9.02301L12.3547 9.42071H11.53V9.81841H12.0798V10.2161H11.53L10.7053 9.58738L10.1555 9.38853L9.60568 9.78622H10.1555L10.4304 10.0173H10.018L9.76106 10.1167L10.0232 10.3333H11.0698V11.1667L10.7053 11.3333H10.0232L10.018 11L10.1977 10.8333L9.67441 10.3333H8.97674L9.49999 10.8333L8.97674 11V11.3333H9.33078L9.15115 11.8333L9.33078 12.0057V12.6667H8.6279L8.45348 12.5L8.27906 12.6667H7.93022L7.68135 12.4034H7.13153V12.6023H6.03191L5.84791 12.3481L5.84868 12.3371H5.83997L5.8372 12.3333H5.13953V12.3371H4.44186V12.6667H3.39535V12.5L3.60362 12.3371V12H3.74418L4.44186 11.5V10.8333L3.74418 11.3333H2.34884Z" fill="#FEC338"/>
<path d="M6.18604 3.83333L7.05813 4.27778L6.7093 4.72222V5.16666H6.5L6.36046 4.9L5.66279 4.72222L6.18604 3.83333Z" fill="#FEC338"/>
<path d="M3.04651 5.33333L4.44186 4.88889V4H3.74418L3.39535 2.66667H3.04651V5.33333Z" fill="#FEC338"/>
<path d="M2 8.07785L3.28289 8.51974L3.9186 8.33333H5.13953V9.99999H4.26744L3.74418 9.66666H2.69767V10.3333H2V8.07785Z" fill="#FEC338"/>
<path d="M5.52796 6.66667H2V7.41501L3.0595 7.85689H4.88651L5.52796 7.63595V6.66667Z" fill="#FEC338"/>
<path d="M7.58143 2V2.5L12.4651 3.33333V2H7.58143Z" fill="#FEC338"/>
<path d="M11.9424 3.76754L9.37666 3.32565L9.05594 3.76754L9.37666 4.33333H10.0232L10.3388 3.98848L11.4186 4V4.16666L10.8953 4.33333L11.0698 4.66666H11.593L11.9424 4.43037V3.76754Z" fill="#FEC338"/>
<path d="M13.25 2.90642V2.72513L13.6447 2.54384H13.8421V2.90642L13.4474 3.0877V3.26899H13.8421V3.63156H13.25L13.0526 3.45027V3.0877L13.4474 2.90642H13.25Z" fill="#FEC338"/>
<path d="M11.7675 11V11.5L12.4651 11.6667V11H11.7675Z" fill="#F9FB15"/>
<path d="M12.4651 10.6667V10.9167L12.814 11V10.6667H12.4651Z" fill="#F9FB15"/>
<path d="M13.5116 12V12.3334H13.8605V12H13.5116Z" fill="#F9FB15"/>
<rect x="0.5" y="0.5" width="18" height="14" stroke="var(--mw-icon-border-default-gray, #616161)" stroke-linejoin="round"/>
</svg>
