<svg width="20" height="16" viewBox="0 0 20 16" fill="none" xmlns="http://www.w3.org/2000/svg">
<path d="M0.5 2.5H18.5V14.5H0.5V2.5Z" fill="var(--mw-icon-background-default-white, white)" stroke="var(--mw-icon-border-default-gray, #616161)" stroke-linejoin="round"/>
<path d="M2 6V4H6V6H2Z" fill="#77AC30"/>
<path d="M13 6V4H17V6H13Z" fill="var(--mw-icon-background-default-dark-gray, #A6A6A6)"/>
<path d="M7 6V4H12V6H7Z" fill="var(--mw-icon-background-default-dark-gray, #A6A6A6)"/>
<path d="M3 12V8H16V12H3Z" fill="var(--mw-icon-background-default-white, white)"/>
<path d="M2.5 12.5L4.13043 9.5H5.26087L6.3913 10.5L7.52174 9.5H8.65217L9.78261 10.5H10.913L12.0435 9.5L13.1739 10.5L14.3043 9.5H16" stroke="#0072BD"/>
<path d="M2.5 12.5V7.5H16.5V12.5H2.5Z" stroke="var(--mw-icon-border-default-gray, #616161)"/>
<path d="M0.5 0.5H18.5V2.5H0.5V0.5Z" fill="var(--mw-icon-background-default-selection, #B4DEFF)" stroke="var(--mw-icon-border-default-blue, #1656A7)" stroke-linejoin="round"/>

</svg>
