<svg width="20" height="16" viewBox="0 0 20 16" fill="none" xmlns="http://www.w3.org/2000/svg">
<path d="M9.5 1L2.5 5V10.5L9.5 14.5L16.5 10.5V5L9.5 1Z" fill="var(--mw-icon-background-default-white, #FFFFFF)"/>
<path d="M9.50195 6.497L9.50409 1L16.3268 4.93223V10.4116L9.50195 6.497Z" fill="var(--mw-icon-background-default-light-gray, #F5F5F5)"/>
<path d="M9.50195 6.497L9.49981 1L2.67706 4.93724L2.67706 10.4116L9.50195 6.497Z" fill="#E6E6E6"/>
<path d="M16.5038 10.2722V5.06086L9.5019 1.02222L2.5 4.99997" stroke="var(--mw-icon-background-default-dark-gray, #A6A6A6)" stroke-linecap="round" stroke-linejoin="round"/>
<path d="M2.5 5V10.3281L9.5 14.3697L16.5 10.33" stroke="var(--mw-icon-border-default-gray, #616161)" stroke-linecap="round" stroke-linejoin="round"/>
<path d="M11.5 7.5C12.3965 6.23886 12.2504 4.5 13.5 4.5C14.7496 4.5 14.5 6.9375 14.5 8.5C14.5 9.67188 14.1661 10.5 12.5 10.5C10.8339 10.5 9.5 10.2812 9.5 9.5C9.5 8.71875 11.0488 8.13466 11.5 7.5Z" fill="var(--mw-icon-background-light-yellow, #FFF5BC)" stroke="var(--mw-icon-glyph-content-yellow, #674C07)" stroke-linejoin="round"/>
<ellipse cx="13.5" cy="7" rx="0.5" ry="1" fill="white"/>
<circle cx="12.5" cy="8.5" r="0.5" fill="var(--mw-icon-glyph-content-blue, #1656A8)"/>
<path d="M6.5 7.5C7.39651 6.23886 8.25043 5.5 9.5 5.5C10.7496 5.5 10.5 7.9375 10.5 9.5C10.5 10.6719 10.1661 11.5 8.5 11.5C6.8339 11.5 5.5 11.2812 5.5 10.5C5.5 9.71875 6.04884 8.13466 6.5 7.5Z" fill="var(--mw-icon-background-light-yellow, #FFF5BC)" stroke="var(--mw-icon-glyph-content-yellow, #674C07)" stroke-linejoin="round"/>
<ellipse cx="9.5" cy="8" rx="0.5" ry="1" fill="white"/>
<circle cx="8.5" cy="9.5" r="0.5" fill="var(--mw-icon-glyph-content-blue, #1656A8)"/>
</svg>
