<svg width="20" height="16" viewBox="0 0 20 16" fill="none" xmlns="http://www.w3.org/2000/svg">
<rect x="0.5" y="0.5" width="18" height="14" fill="var(--mw-icon-background-default-white, #FFFFFF)"/>
<rect x="0.5" y="0.5" width="18" height="14" stroke="var(--mw-icon-border-default-gray, #616161)" stroke-linejoin="round"/>
<path d="M9.5 12C7.01472 12 5 9.98528 5 7.5C5.16046 6.48378 6.28571 6.375 6.44643 4.91809C6.76786 3 8.85714 3 9.5 3C11.9853 3 14 5.01472 14 7.5C14 9.98528 11.9853 12 9.5 12Z" fill="#F9FB15"/>
<path d="M6.44644 4.91809C6.76787 3 8.85716 3 9.50001 3C10.4542 3 11.339 3.29699 12.0671 3.80357C12.2321 4.92857 12.3929 8.14286 5.10357 8.46429C5.03575 8.15364 5.00001 7.83099 5.00001 7.5C5.16047 6.48378 6.28573 6.375 6.44644 4.91809Z" fill="#FEC338"/>
<path d="M6.4464 4.91809C6.76783 3 8.85711 3 9.49997 3C9.92854 4.76786 7.57139 7.66071 4.99997 7.5C5.16043 6.48378 6.28569 6.375 6.4464 4.91809Z" fill="#ABC739"/>
<path d="M6.44639 4.91808C6.70864 3.35316 8.14766 3.06502 9.01782 3.01196C8.91963 4.18654 8.01341 6.63213 5.1741 7.01785C5.54128 6.39831 6.3152 6.10736 6.44639 4.91808Z" fill="#37C897"/>
<path d="M6.44648 4.91803C6.66435 3.61792 7.69444 3.19904 8.53577 3.06409C8.1101 4.00699 6.9204 6.02137 5.56691 6.53566C5.93333 6.15664 6.35302 5.76531 6.44648 4.91803Z" fill="#12B1D6"/>
<path d="M6.44645 4.91808C6.62383 3.85955 7.33962 3.38519 8.05359 3.17261C7.66326 3.626 6.77469 4.70837 6.34309 5.41071C6.39037 5.26502 6.42612 5.10233 6.44645 4.91808Z" fill="#2E87F7"/>
<path d="M7.57141 3.36267C7.11247 3.5957 6.70771 3.97847 6.5184 4.60721C6.83313 4.22149 7.35154 3.6168 7.57141 3.36267Z" fill="#4852F4"/>
<path d="M14 7.50005C14 9.98533 11.9853 12.0001 9.5 12.0001C7.46149 12.0001 5.73956 10.6446 5.18635 8.78577C10.9464 11.1965 13.1964 8.46434 12.6493 4.28577C13.4828 5.10253 14 6.2409 14 7.50005Z" fill="#FFD60A"/>
<path d="M14 7.50004C14 9.98532 11.9853 12 9.5 12C8.11907 12 6.88342 11.378 6.05795 10.3989C12.4634 11.6893 13.2171 7.32404 13.4239 5.29553C13.7908 5.94704 14 6.6991 14 7.50004Z" fill="#EDB120"/>
<path d="M14 7.49992C14 9.9852 11.9853 11.9999 9.5 11.9999C8.37593 11.9999 7.34812 11.5878 6.55944 10.9063C12.2377 11.8342 13.6602 7.87857 13.6616 5.78479C13.8797 6.31338 14 6.8926 14 7.49992Z" fill="#B3882A"/>
<path d="M14 7.50002C14 9.9853 11.9853 12 9.5 12C8.62045 12 7.79984 11.7477 7.10661 11.3115C12.5092 12.3748 13.8598 8.46755 13.8598 6.38098C13.9513 6.73876 14 7.1137 14 7.50002Z" fill="#8B6606"/>
</svg>
