<svg width="20" height="16" viewBox="0 0 20 16" fill="none" xmlns="http://www.w3.org/2000/svg">
<rect x="0.5" y="0.5" width="18" height="14" fill="var(--mw-icon-background-default-white, white)"/>
<line x1="4.5" y1="13" x2="4.5" y2="15" stroke="var(--mw-icon-background-default-dark-gray, #A6A6A6)"/>
<line x1="1" y1="7.5" x2="3" y2="7.5" stroke="var(--mw-icon-background-default-dark-gray, #A6A6A6)"/>
<line x1="5" y1="7.5" x2="7" y2="7.5" stroke="var(--mw-icon-background-default-dark-gray, #A6A6A6)"/>
<line x1="9" y1="7.5" x2="11" y2="7.5" stroke="var(--mw-icon-background-default-dark-gray, #A6A6A6)"/>
<line x1="13" y1="7.5" x2="15" y2="7.5" stroke="var(--mw-icon-background-default-dark-gray, #A6A6A6)"/>
<line x1="17" y1="7.5" x2="19" y2="7.5" stroke="var(--mw-icon-background-default-dark-gray, #A6A6A6)"/>
<line x1="4.5" y1="1" x2="4.5" y2="3" stroke="var(--mw-icon-background-default-dark-gray, #A6A6A6)"/>
<line x1="4.5" y1="5" x2="4.5" y2="7" stroke="var(--mw-icon-background-default-dark-gray, #A6A6A6)"/>
<line x1="4.5" y1="9" x2="4.5" y2="11" stroke="var(--mw-icon-background-default-dark-gray, #A6A6A6)"/>
<path d="M13.5 6.5C12.73 6.5 12.5 7.12 12.5 7.5C12.5 7.88 12.66 8.5 13.5 8.5C14.65 8.5 16.5 7.13 16.5 5.5C16.5 3.5 14.87 2.5 12.5 2.5C10 2.5 7.5 4 7.5 7.5C7.5 11 10 12.5 12.5 12.5C15.06 12.5 16.5 11.15 16.5 9.5C16.5 7.85 14.59 6.5 13.5 6.5Z" stroke="#0072BD"/>
<rect x="0.5" y="0.5" width="18" height="14" stroke="var(--mw-icon-border-default-gray, #616161)" stroke-linejoin="round"/>
<path d="M0.5 6V7.5M0.5 9V7.5M0.5 7.5H3" stroke="#D95319"/>

</svg>
