<svg width="20" height="16" viewBox="0 0 20 16" fill="none" xmlns="http://www.w3.org/2000/svg">
<rect x="0.5" y="0.5" width="18" height="14" fill="var(--mw-icon-background-default-white, #FFFFFF)"/>
<path d="M2 2.5C2 2.22386 2.22386 2 2.5 2H16.5C16.7761 2 17 2.22386 17 2.5V12.5C17 12.7761 16.7761 13 16.5 13H2.5C2.22386 13 2 12.7761 2 12.5V2.5Z" fill="#2E87F7"/>
<path d="M14.1134 5.5899L13.1513 6.03179V6.66666H12.4651V8.33333H11.4185V8.99999H10.0232V9.66666H8.62785V10.6667H3.3953V11L5.13948 11.6667H7.93018L8.27901 11.3333L8.29027 13H16.6511C16.8438 13 16.9999 12.8508 16.9999 12.6667L17 6.03179L14.1134 5.5899Z" fill="#ABC739"/>
<path d="M8.56971 5.99999L8.27901 4.99999H10.0232V5.99999H8.56971Z" fill="#ABC739"/>
<path d="M6.16933 6V5.31797L7.23252 5.66667V7.33333L5.1395 7.30593V6.33333L6.16933 6Z" fill="#ABC739"/>
<path d="M13.8667 3.98848L3.74413 2H3.28284L12.5098 4.06213L16.9999 4.99122V4.43037L13.8667 3.98848Z" fill="#ABC739"/>
<path d="M12.1162 4.25L12.4651 4H13.8604V4.75H13.1627L12.8139 5H12.4651V4.75L12.1162 4.5V4.25Z" fill="#ABC739"/>
<path d="M3.28289 8.51974L2 8.07785V10.3333H2.69767V9.66666H3.74418L4.26744 9.99999H5.13953V8.33333H3.9186L3.28289 8.51974Z" fill="#FEC338"/>
<path d="M5.52796 6.66667H2V7.41501L3.0595 7.85689H4.88651L5.52796 7.63595V6.66667Z" fill="#FEC338"/>
<path d="M14.554 13V12.3333H15.6046V12.1667L14.907 12V11.3333H16.6511L16.7532 11.2103L16.4293 10.6667H15.6046V11.0115H14.554L14.0349 11.1667H13.5116L13.686 10.8333L14.3837 10.6667L14.554 10.415L13.8604 10.1667L13.7293 10.3333H13.1795V9.22186L12.6296 9.02301L12.3547 9.42071H11.53V9.81841H12.0798V10.2161H11.53L10.7053 9.58738L10.1555 9.38853L9.60568 9.78622H10.1555L10.4304 10.0173H10.018L9.76106 10.1167L10.0232 10.3333H11.0698V11.1667L10.7053 11.3333H10.0232L10.018 11L10.1977 10.8333L9.67441 10.3333H8.97674L9.49999 10.8333L8.97674 11V11.3333H9.33078L9.15115 11.8333L9.33078 12.0057V12.6667H8.6279L8.45348 12.5L8.27906 12.6667H7.93022L7.68135 12.4034H7.13153V12.6023H6.03191L5.8372 12.3333L4.44186 12.3371V12.6667H3.39535V12.5L3.60362 12.3371V12H3.74418L4.44186 11.5V10.8333L3.74418 11.3333H2.34884L2 11.1667V12.6666C2 12.8507 2.15618 13 2.34884 13L14.554 13Z" fill="#FEC338"/>
<path d="M14.907 7.66666V7.99999H15.9535V8.33333H16.6511V7.66666H15.9535L15.6046 7.33333H14.907V6.66666H14.2093L13.5116 7.66666L13.3372 6.99999H12.8139V8.33333H13.5116L13.686 7.99999L14.2093 7.33333H14.5581V7.66666H14.907Z" fill="#FEC338"/>
<path d="M14.5581 2.66667V2H15.6046V2.33333L14.907 2.66667H14.5581Z" fill="#FEC338"/>
<path d="M7.05813 4.27777L6.18604 3.83333L5.66279 4.72222L6.36046 4.89999L6.5 5.16666H6.7093V4.72222L7.05813 4.27777Z" fill="#FEC338"/>
<path d="M3.04651 5.33333L4.44186 4.88888V3.99999H3.74418L3.39535 2.66666H3.04651V5.33333Z" fill="#FEC338"/>
<path d="M3.28289 8.51974L2 8.07785V10.3333H2.69767V9.66666H3.74418L4.26744 9.99999H5.13953V8.33333H3.9186L3.28289 8.51974Z" fill="#FEC338"/>
<path d="M5.52796 6.66667H2V7.41501L3.0595 7.85689H4.88651L5.52796 7.63595V6.66667Z" fill="#FEC338"/>
<path d="M7.58143 2.5V2H12.4651V3.33333L7.58143 2.5Z" fill="#FEC338"/>
<path d="M11.9424 3.76754L9.37666 3.32565L9.05594 3.76754L9.37666 4.33333H10.0232L10.3388 3.98848L11.4186 4V4.16666L10.8953 4.33333L11.0698 4.66666H11.593L11.9424 4.43037V3.76754Z" fill="#FEC338"/>
<path d="M13.25 2.72513V2.90642H13.4474L13.0526 3.0877V3.45027L13.25 3.63156H13.8421V3.26899H13.4474V3.0877L13.8421 2.90642V2.54384H13.6447L13.25 2.72513Z" fill="#FEC338"/>
<path d="M4.44189 4.33331V3.33331L5.83724 3.66665V4.33331H4.44189Z" fill="#4852F4"/>
<path d="M15.9535 3H14.2093V3.66667L14.907 4V4.33333H15.7791V4H15.4704V3.5466H15.7911L15.9535 3.33333V3Z" fill="#F9FB15"/>
<path d="M11.7675 11.3333V11.8333L12.4651 12V11.3333H11.7675Z" fill="#F9FB15"/>
<path d="M12.4651 11V11.25L12.814 11.3333V11H12.4651Z" fill="#F9FB15"/>
<path d="M13.5116 12.3333V12.6667H13.8605V12.3333H13.5116Z" fill="#F9FB15"/>
<rect x="0.5" y="0.5" width="18" height="14" stroke="var(--mw-icon-border-default-gray, #616161)" stroke-linejoin="round"/>
</svg>
