<svg width="20" height="16" viewBox="0 0 20 16" fill="none" xmlns="http://www.w3.org/2000/svg">
<path d="M6.5 4.5H13.5V11.5H6.5V4.5Z" fill="#BFBFBF" stroke="var(--mw-icon-border-default-gray, #616161)" stroke-linejoin="round"/>
<path d="M7.30081 1.68C6.78049 1.68 6.39954 1.808 6.23229 2.032C6.06504 2.256 6.00929 2.464 6 3L6.10221 3C6.26945 2.448 6.5482 2.272 7.24506 2.272L8.80604 2.272C9.58653 2.272 9.81882 2.12 9.99535 1.52C10.1812 2.12 10.4228 2.272 11.194 2.272L12.7549 2.272C13.4518 2.272 13.7305 2.448 13.8978 3L14 3C13.9907 2.472 13.935 2.264 13.7677 2.032C13.6005 1.8 13.2381 1.68 12.7085 1.68L11.0546 1.68C10.4042 1.68 10.1905 1.536 9.99535 1C9.80952 1.536 9.59582 1.68 8.94541 1.68L7.30081 1.68Z" fill="var(--mw-icon-object-primary, #616160)"/>

</svg>
