<svg width="20" height="16" viewBox="0 0 20 16" fill="none" xmlns="http://www.w3.org/2000/svg">
<path d="M7.76941 1.24745H12.24L12.2306 1.75255H7.76C7.66588 1.75255 7.51529 1.84439 7.51529 1.92092C7.51529 1.9898 7.55294 2.03571 7.64706 2.11224C7.92 2.32653 8.21176 2.59439 8.41882 2.84694L8.23059 2.99235C7.61882 2.41837 6.90353 1.84439 6 1.53827V1.46173C6.90353 1.14796 7.61882 0.581633 8.24 0L8.42823 0.145408C8.21176 0.397959 7.93882 0.642857 7.65647 0.880102C7.57176 0.94898 7.52471 1.03316 7.52471 1.09439C7.52471 1.17092 7.6 1.24745 7.76941 1.24745Z" fill="var(--mw-icon-object-primary, #616160)"/>
<path d="M6.5 4.5H13.5V11.5H6.5V4.5Z" fill="#BFBFBF" stroke="var(--mw-icon-border-default-gray, #616161)" stroke-linejoin="round"/>

</svg>
