<svg width="20" height="21" viewBox="0 0 20 21" fill="none" xmlns="http://www.w3.org/2000/svg">
<path d="M0.500122 0.5H18.5001V14.5H0.500122V0.5Z" fill="var(--mw-icon-background-default-white, #FFFFFF)"/>
<path d="M0.00012207 7H18.0001V21H0.00012207V7Z" fill="white"/>
<path d="M1.00012 3.5H12.0001M1.00012 11.5H18.0001" stroke="#FF6929"/>
<path d="M1.00012 7.5H18.0001" stroke="var(--mw-icon-glyph-content-gray, #616162)"/>
<path d="M11.0001 7.5C11.0001 8.32843 10.3285 9 9.50012 9C8.67169 9 8.00012 8.32843 8.00012 7.5C8.00012 6.67157 8.67169 6 9.50012 6C10.3285 6 11.0001 6.67157 11.0001 7.5Z" fill="#139FFF"/>
<path d="M16.0001 10.5C16.0001 11.3284 15.3285 12 14.5001 12C13.6717 12 13.0001 11.3284 13.0001 10.5C13.0001 9.67157 13.6717 9 14.5001 9C15.3285 9 16.0001 9.67157 16.0001 10.5Z" fill="#139FFF"/>
<path d="M6.00012 3.5C6.00012 4.32843 5.32855 5 4.50012 5C3.67169 5 3.00012 4.32843 3.00012 3.5C3.00012 2.67157 3.67169 2 4.50012 2C5.32855 2 6.00012 2.67157 6.00012 3.5Z" fill="#139FFF"/>
<path d="M4.50012 4V7M14.5001 8V11" stroke="#139FFF"/>
<path d="M15.5284 4.57418H14.5284V3.93132H15.5284C15.683 3.93132 15.8087 3.90568 15.9058 3.8544C16.0028 3.80128 16.0738 3.72802 16.1187 3.63462C16.1636 3.54121 16.1861 3.4359 16.1861 3.31868C16.1861 3.19963 16.1636 3.08883 16.1187 2.98626C16.0738 2.8837 16.0028 2.80128 15.9058 2.73901C15.8087 2.67674 15.683 2.6456 15.5284 2.6456H14.8087V6H14.0001V2H15.5284C15.8357 2 16.099 2.05678 16.3182 2.17033C16.5392 2.28205 16.7081 2.43681 16.8249 2.63462C16.9417 2.83242 17.0001 3.05861 17.0001 3.31319C17.0001 3.57143 16.9417 3.79487 16.8249 3.98352C16.7081 4.17216 16.5392 4.31777 16.3182 4.42033C16.099 4.52289 15.8357 4.57418 15.5284 4.57418Z" fill="var(--mw-icon-glyph-content-dark-gray, #333333)"/>
<rect x="0.500122" y="0.5" width="18" height="14" stroke="var(--mw-icon-border-default-gray, #616161)" stroke-linejoin="round"/>
</svg>
