<svg width="20" height="16" viewBox="0 0 20 16" fill="none" xmlns="http://www.w3.org/2000/svg">
<rect x="0.5" y="0.5" width="18" height="14" fill="var(--mw-icon-background-default-white, white)"/>
<path d="M1.5 4.5L6.5 9.5L10.5 5.44737L15.5 10.5L17.5 8.60526" stroke="#D95319" stroke-linecap="square"/>
<path d="M1.85355 7.14645L1.5 6.79289L0.792893 7.5L1.14645 7.85355L1.85355 7.14645ZM6.5 12.5L6.14645 12.8536L6.50232 13.2094L6.85586 12.8512L6.5 12.5ZM10.5 8.44737L10.8554 8.09567L10.4995 7.73606L10.1441 8.09613L10.5 8.44737ZM15.5 13.5L15.1446 13.8517L15.4887 14.1994L15.8439 13.863L15.5 13.5ZM17.8439 11.9682L18.2068 11.6244L17.5191 10.8984L17.1561 11.2423L17.8439 11.9682ZM1.14645 7.85355L1.45895 8.16605L2.16605 7.45895L1.85355 7.14645L1.14645 7.85355ZM2.08395 8.79105L2.70895 9.41605L3.41605 8.70895L2.79105 8.08395L2.08395 8.79105ZM3.33395 10.0411L3.95895 10.6661L4.66605 9.95895L4.04105 9.33395L3.33395 10.0411ZM4.58395 11.2911L5.20895 11.9161L5.91605 11.2089L5.29105 10.5839L4.58395 11.2911ZM5.83395 12.5411L6.14645 12.8536L6.85355 12.1464L6.54105 11.8339L5.83395 12.5411ZM6.85586 12.8512L7.18919 12.5135L6.47748 11.811L6.14414 12.1488L6.85586 12.8512ZM7.85586 11.8381L8.52252 11.1626L7.81081 10.4602L7.14414 11.1356L7.85586 11.8381ZM9.18919 10.4872L9.85586 9.81176L9.14414 9.10929L8.47748 9.78473L9.18919 10.4872ZM10.5225 9.13632L10.8559 8.7986L10.1441 8.09613L9.81081 8.43385L10.5225 9.13632ZM10.1446 8.79907L10.4571 9.11486L11.1679 8.41146L10.8554 8.09567L10.1446 8.79907ZM11.0821 9.74643L11.7071 10.378L12.4179 9.67462L11.7929 9.04304L11.0821 9.74643ZM12.3321 11.0096L12.9571 11.6412L13.6679 10.9378L13.0429 10.3062L12.3321 11.0096ZM13.5821 12.2728L14.2071 12.9043L14.9179 12.2009L14.2929 11.5694L13.5821 12.2728ZM14.8321 13.5359L15.1446 13.8517L15.8554 13.1483L15.5429 12.8325L14.8321 13.5359ZM15.8439 13.863L16.3439 13.3893L15.6561 12.6633L15.1561 13.137L15.8439 13.863ZM17.3439 12.4419L17.8439 11.9682L17.1561 11.2423L16.6561 11.716L17.3439 12.4419Z" fill="#D95319"/>
<path d="M1.85355 1.14645L1.5 0.792893L0.792893 1.5L1.14645 1.85355L1.85355 1.14645ZM6.5 6.5L6.14645 6.85355L6.5 7.20711L6.85355 6.85355L6.5 6.5ZM10.5 2.5L10.8536 2.14645L10.5 1.79289L10.1464 2.14645L10.5 2.5ZM15.5 7.5L15.1464 7.85355L15.5 8.20711L15.8536 7.85355L15.5 7.5ZM17.8536 5.85355L18.2071 5.5L17.5 4.79289L17.1464 5.14645L17.8536 5.85355ZM1.14645 1.85355L1.45895 2.16605L2.16605 1.45895L1.85355 1.14645L1.14645 1.85355ZM2.08395 2.79105L2.70895 3.41605L3.41605 2.70895L2.79105 2.08395L2.08395 2.79105ZM3.33395 4.04105L3.95895 4.66605L4.66605 3.95895L4.04105 3.33395L3.33395 4.04105ZM4.58395 5.29105L5.20895 5.91605L5.91605 5.20895L5.29105 4.58395L4.58395 5.29105ZM5.83395 6.54105L6.14645 6.85355L6.85355 6.14645L6.54105 5.83395L5.83395 6.54105ZM6.85355 6.85355L7.18689 6.52022L6.47978 5.81311L6.14645 6.14645L6.85355 6.85355ZM7.85355 5.85355L8.52022 5.18689L7.81311 4.47978L7.14645 5.14645L7.85355 5.85355ZM9.18689 4.52022L9.85355 3.85355L9.14645 3.14645L8.47978 3.81311L9.18689 4.52022ZM10.5202 3.18689L10.8536 2.85355L10.1464 2.14645L9.81311 2.47978L10.5202 3.18689ZM10.1464 2.85355L10.4589 3.16605L11.1661 2.45895L10.8536 2.14645L10.1464 2.85355ZM11.0839 3.79105L11.7089 4.41605L12.4161 3.70895L11.7911 3.08395L11.0839 3.79105ZM12.3339 5.04105L12.9589 5.66605L13.6661 4.95895L13.0411 4.33395L12.3339 5.04105ZM13.5839 6.29105L14.2089 6.91605L14.9161 6.20895L14.2911 5.58395L13.5839 6.29105ZM14.8339 7.54105L15.1464 7.85355L15.8536 7.14645L15.5411 6.83395L14.8339 7.54105ZM15.8536 7.85355L16.3536 7.35355L15.6464 6.64645L15.1464 7.14645L15.8536 7.85355ZM17.3536 6.35355L17.8536 5.85355L17.1464 5.14645L16.6464 5.64645L17.3536 6.35355Z" fill="#D95319"/>
<rect x="0.5" y="0.5" width="18" height="14" stroke="var(--mw-icon-border-default-gray, #616161)" stroke-linejoin="round"/>

</svg>
