<svg width="20" height="16" viewBox="0 0 20 16" fill="none" xmlns="http://www.w3.org/2000/svg">
<rect x="0.5" y="0.5" width="18" height="14" fill="var(--mw-icon-background-default-white, white)"/>
<path d="M6.5 1V14M12.5 14V1" stroke="var(--mw-icon-background-default-dark-gray, #A6A6A6)"/>
<path d="M1 5.5L6.5 7L12.5 12.5L18 13.0556M1 5.94444L6.5 8.5L12.5 13.5H18" stroke="#4DBEEE" stroke-linecap="square"/>
<path d="M1 5.5H6.5L12.5 11.5L18 12.5" stroke="#0072BD" stroke-linecap="square"/>
<path d="M0.5 2.5L6.5 8.5L12.5 3.5L18 9.5" stroke="#EDB120" stroke-linecap="round"/>
<path d="M1 3.5L6.5 9.5L12.5 5.5L18 10.5" stroke="#EDB120" stroke-linecap="square"/>
<path d="M1 4L6.5 10.5L12.5 6.5L18 11" stroke="#D95319" stroke-linecap="square"/>
<rect x="0.5" y="0.5" width="18" height="14" stroke="var(--mw-icon-border-default-gray, #616161)" stroke-linejoin="round"/>

</svg>
