<svg width="20" height="16" viewBox="0 0 20 16" fill="none" xmlns="http://www.w3.org/2000/svg">
<path d="M6.5 4.5H12.5V10.5H6.5V4.5Z" fill="#BFBFBF" stroke="var(--mw-icon-border-default-gray, #616161)" stroke-linejoin="round"/>
<path d="M14 2.20633C15.6992 3.67644 15.9922 5.15944 15.9922 7.57093C15.9922 10.0727 15.6641 11.2849 14 12.7937L14.1055 13C15.9687 11.7491 17 9.91794 17 7.53224C17 5.33998 15.9336 3.1864 14.1406 2L14 2.20633Z" fill="var(--mw-icon-object-primary, #616160)"/>
<path d="M5 12.7937C3.30078 11.3236 3.00781 9.84056 3.00781 7.42907C3.00781 4.92731 3.33594 3.71512 5 2.20633L4.89453 2C3.03125 3.25088 2 5.08206 2 7.46776C2 9.66002 3.06641 11.8136 4.85938 13L5 12.7937Z" fill="var(--mw-icon-object-primary, #616160)"/>

</svg>
