<svg width="21" height="16" viewBox="0 0 21 16" fill="none" xmlns="http://www.w3.org/2000/svg">
<path d="M10.5 1L3.5 5V10.5L10.5 14.5L17.5 10.5V5L10.5 1Z" fill="var(--mw-icon-background-default-white, #FFFFFF)"/>
<path d="M10.502 6.497L10.5041 1L17.3268 4.93223V10.4116L10.502 6.497Z" fill="var(--mw-icon-background-default-light-gray, #F5F5F5)"/>
<path d="M10.502 6.497L10.4998 1L3.67706 4.93724L3.67706 10.4116L10.502 6.497Z" fill="#E6E6E6"/>
<path d="M17.5038 10.2722V5.06086L10.5019 1.02222L3.5 4.99997" stroke="var(--mw-icon-background-default-dark-gray, #A6A6A6)" stroke-linecap="round" stroke-linejoin="round"/>
<path d="M3.5 5V10.3281L10.5 14.3697L17.5 10.33" stroke="var(--mw-icon-border-default-gray, #616161)" stroke-linecap="round" stroke-linejoin="round"/>
<path d="M5.22754 8.92921V7.30128L10.5583 4.15466L15.9139 7.2899V9.00248L10.5583 12.1547L5.22754 8.92921Z" fill="#3AC831"/>
<path d="M10.5583 10.418V12.1547L15.9181 9.01596V7.28137L10.5583 10.418Z" fill="var(--mw-icon-glyph-content-dark-green, #02580E)"/>
<path d="M5.22754 8.92926V7.30835L10.5583 10.4184V12.1547L5.22754 8.92926Z" fill="var(--mw-icon-border-default-green, #008013)"/>
<path d="M10.2643 5.51411L7.58789 7.01367L11.3237 9.10681L14.0001 7.60725L13.0522 7.07615L11.2679 8.07586L10.7661 7.79469L11.8813 7.16988L10.9891 6.67002L9.87397 7.29484L9.37215 7.01367L11.1564 6.01396L10.2643 5.51411Z" fill="#FEC04C"/>
</svg>
