<svg width="21" height="17" viewBox="0 0 21 17" fill="none" xmlns="http://www.w3.org/2000/svg">
<path d="M10.5 1.5L3.5 5.5V11L10.5 15L17.5 11V5.5L10.5 1.5Z" fill="var(--mw-icon-background-default-white, #FFFFFF)"/>
<path d="M10.502 6.997L10.5041 1.5L17.3268 5.43223V10.9116L10.502 6.997Z" fill="var(--mw-icon-background-default-light-gray, #F5F5F5)"/>
<path d="M10.502 6.997L10.4998 1.5L3.67706 5.43724L3.67706 10.9116L10.502 6.997Z" fill="#E6E6E6"/>
<path d="M17.5038 10.7722V5.56086L10.5019 1.52222L3.5 5.49997" stroke="var(--mw-icon-background-default-dark-gray, #A6A6A6)" stroke-linecap="round" stroke-linejoin="round"/>
<path d="M3.5 5.5V10.8281L10.5 14.8697L17.5 10.83" stroke="var(--mw-icon-border-default-gray, #616161)" stroke-linecap="round" stroke-linejoin="round"/>
<path d="M5.22754 9.42921V7.80128L10.5583 4.65466L15.9139 7.7899V9.50248L10.5583 12.6547L5.22754 9.42921Z" fill="#3AC831"/>
<path d="M10.5583 10.918V12.6547L15.9181 9.51596V7.78137L10.5583 10.918Z" fill="var(--mw-icon-glyph-content-dark-green, #02580E)"/>
<path d="M5.22754 9.42926V7.80835L10.5583 10.9184V12.6547L5.22754 9.42926Z" fill="var(--mw-icon-border-default-green, #008013)"/>
<path d="M7.59453 7.48996L10.6271 9.25929L11.4723 8.80269L10.5752 8.29885L11.1494 7.98744L11.7236 7.67604L12.6021 8.19634L13.4428 7.72546L10.3268 5.98047L9.4276 6.43651L10.5086 7.04212L9.47862 7.61994L8.42384 7.04212L7.59453 7.48996Z" fill="#FEC04C"/>
</svg>
