<svg width="21" height="16" viewBox="0 0 21 16" fill="none" xmlns="http://www.w3.org/2000/svg">
<path d="M10.5 1L3.5 5V10.5L10.5 14.5L17.5 10.5V5L10.5 1Z" fill="var(--mw-icon-background-default-white, #FFFFFF)"/>
<path d="M10.502 6.497L10.5041 1L17.3268 4.93223V10.4116L10.502 6.497Z" fill="var(--mw-icon-background-default-light-gray, #F5F5F5)"/>
<path d="M10.502 6.497L10.4998 1L3.67706 4.93724L3.67706 10.4116L10.502 6.497Z" fill="#E6E6E6"/>
<path d="M17.5038 10.2722V5.06086L10.5019 1.02222L3.5 4.99997" stroke="var(--mw-icon-background-default-dark-gray, #A6A6A6)" stroke-linecap="round" stroke-linejoin="round"/>
<path d="M3.5 5V10.3281L10.5 14.3697L17.5 10.33" stroke="var(--mw-icon-border-default-gray, #616161)" stroke-linecap="round" stroke-linejoin="round"/>
<path d="M5 8.77454V7.14662L10.3308 4L15.6864 7.13523V8.84782L10.3308 12L5 8.77454Z" fill="#3AC831"/>
<path d="M10.3308 10.2633V12L15.6906 8.8613V7.12671L10.3308 10.2633Z" fill="var(--mw-icon-glyph-content-dark-green, #02580E)"/>
<path d="M5 8.7746V7.15369L10.3308 10.2638V12.0001L5 8.7746Z" fill="var(--mw-icon-border-default-green, #008013)"/>
<path d="M13.3875 6.6816L11.075 5.34534L7.11235 7.63731L9.36815 8.98533L13.3875 6.6816Z" fill="#FEC04C"/>
</svg>
