<svg width="21" height="16" viewBox="0 0 21 16" fill="none" xmlns="http://www.w3.org/2000/svg">
<path d="M10.5 1L3.5 5V10.5L10.5 14.5L17.5 10.5V5L10.5 1Z" fill="var(--mw-icon-background-default-white, #FFFFFF)"/>
<path d="M10.502 6.497L10.5041 1L17.3268 4.93223V10.4116L10.502 6.497Z" fill="var(--mw-icon-background-default-light-gray, #F5F5F5)"/>
<path d="M10.502 6.497L10.4998 1L3.67706 4.93724L3.67706 10.4116L10.502 6.497Z" fill="#E6E6E6"/>
<path d="M17.5038 10.2722V5.06086L10.5019 1.02222L3.5 4.99997" stroke="var(--mw-icon-background-default-dark-gray, #A6A6A6)" stroke-linecap="round" stroke-linejoin="round"/>
<path d="M3.5 5V10.3281L10.5 14.3697L17.5 10.33" stroke="var(--mw-icon-border-default-gray, #616161)" stroke-linecap="round" stroke-linejoin="round"/>
<path d="M5 9.27454V7.64662L10.3308 4.5L15.6864 7.63523V9.34782L10.3308 12.5L5 9.27454Z" fill="#3AC831"/>
<path d="M10.3308 10.7633V12.5L15.6906 9.3613V7.62671L10.3308 10.7633Z" fill="var(--mw-icon-glyph-content-dark-green, #02580E)"/>
<path d="M5 9.2746V7.65369L10.3308 10.7638V12.5001L5 9.2746Z" fill="var(--mw-icon-border-default-green, #008013)"/>
<ellipse cx="10.25" cy="7.54504" rx="2.5" ry="1" fill="#FEC04C"/>
</svg>
