<svg width="20" height="16" viewBox="0 0 20 16" fill="none" xmlns="http://www.w3.org/2000/svg">
<rect x="0.5" y="0.5" width="18" height="14" fill="var(--mw-icon-background-default-white, #FFFFFF)"/>
<path d="M9 7H10V12H9V7Z" fill="#0072BD"/>
<path d="M12 10H14V11H12V10Z" fill="#0072BD"/>
<path d="M13 11H15V12H13V11Z" fill="#0072BD"/>
<path d="M15 12H17V13H15V12Z" fill="#0072BD"/>
<path d="M16 13H18V14H16V13Z" fill="#0072BD"/>
<path d="M10 9H13V10H10V9Z" fill="#0072BD"/>
<path d="M8 9H9V11H8V9Z" fill="#0072BD"/>
<path d="M6 10H7V12H6V10Z" fill="#0072BD"/>
<path d="M5 4H6V10H5V4Z" fill="#0072BD"/>
<path d="M4 7H5V12H4V7Z" fill="#0072BD"/>
<path d="M3 10H4V13H3V10Z" fill="#0072BD"/>
<path d="M2 12H3V14H2V12Z" fill="#0072BD"/>
<path d="M1 11H2V14H1V11Z" fill="#0072BD"/>
<path d="M7 6H8V11H7V6Z" fill="#0072BD"/>
<rect x="0.5" y="0.5" width="18" height="14" stroke="var(--mw-icon-border-default-gray, #616161)" stroke-linejoin="round"/>
</svg>
