<svg width="20" height="16" viewBox="0 0 20 16" fill="none" xmlns="http://www.w3.org/2000/svg">
<path d="M0.5 0.5H18.5V14.5H0.5V0.5Z" fill="var(--mw-icon-background-default-white, #FFFFFF)"/>
<path d="M1 9.82788C1.54255 9.82788 2.19672 8.57342 2.59304 7.53058C2.98936 6.48773 3.27207 4.5 3.35122 4.5C3.43038 4.5 3.54988 6.77257 4.38488 9.00481C4.91926 10.4334 5.70134 12.5 8.05319 12.5C8.31226 12.5 15.091 12.5 18 12.5" stroke="#0072BD"/>
<path d="M10.2961 5.07282H9V4.80686H10.2961V5.07282Z" fill="var(--mw-icon-glyph-content-dark-gray, #333333)"/>
<path d="M13.2466 3L12.9779 3.94143C13.2729 3.94143 13.517 4.00334 13.7102 4.12718C13.9034 4.2482 14 4.4241 14 4.65488C14 4.84063 13.9491 5.01935 13.8472 5.19103C13.7172 5.41618 13.5241 5.59349 13.2677 5.72296C13.0148 5.8496 12.7285 5.91997 12.4089 5.93404L12.177 6.75726H11.5606L11.7977 5.93404C11.4956 5.91715 11.2498 5.83975 11.0601 5.70185C10.8739 5.56113 10.7808 5.37397 10.7808 5.14037C10.7808 4.96025 10.837 4.78294 10.9494 4.60844C11.0899 4.39455 11.2849 4.2299 11.5343 4.11451C11.7837 3.99912 12.0611 3.94143 12.3667 3.94143L12.6301 3H13.2466ZM12.9357 4.10607L12.4616 5.76517C12.6688 5.7314 12.8585 5.62726 13.0306 5.45277C13.2027 5.27546 13.3133 5.09534 13.3625 4.9124C13.3801 4.8533 13.3888 4.77872 13.3888 4.68865C13.3888 4.55356 13.3502 4.42832 13.2729 4.31293C13.1992 4.19472 13.0868 4.12577 12.9357 4.10607ZM11.8504 5.76517L12.3246 4.10607C12.0682 4.13703 11.8486 4.26508 11.666 4.49024C11.4833 4.71258 11.392 4.93351 11.392 5.15303C11.392 5.29938 11.4289 5.43166 11.5027 5.54987C11.5764 5.66526 11.6923 5.73703 11.8504 5.76517Z" fill="var(--mw-icon-glyph-content-dark-gray, #333333)"/>
<path d="M11.985 9.00739H12.1904C12.489 9.00739 12.7261 9.07775 12.9017 9.21847C13.0773 9.35638 13.1651 9.53509 13.1651 9.75462C13.1651 10.0783 13.0317 10.3668 12.7647 10.6201C12.4978 10.8734 12.2027 11 11.8796 11C11.6197 11 11.437 10.9085 11.3317 10.7256C11.1385 10.9085 10.8856 11 10.573 11C10.3095 11 10.1111 10.9296 9.9776 10.7889C9.84413 10.6454 9.7774 10.4681 9.7774 10.257C9.7774 10.0656 9.84062 9.87564 9.96707 9.68707C10.0935 9.49569 10.2586 9.34371 10.4623 9.23113C10.7293 9.08197 11.0331 9.00739 11.3738 9.00739H11.5424L11.4897 9.17203C11.293 9.17203 11.0963 9.23817 10.8996 9.37045C10.738 9.48021 10.6116 9.63078 10.5203 9.82216C10.4325 10.0135 10.3886 10.2134 10.3886 10.4216C10.3886 10.5286 10.4184 10.6243 10.4781 10.7087C10.5378 10.7903 10.6134 10.8311 10.7047 10.8311C10.7925 10.8311 10.8803 10.7974 10.9681 10.7298C11.0594 10.6623 11.1279 10.5694 11.1736 10.4512C11.1385 10.3189 11.1209 10.2007 11.1209 10.0966C11.1209 9.92208 11.1683 9.76025 11.2632 9.61108C11.3615 9.46192 11.502 9.38734 11.6847 9.38734C11.8673 9.38734 11.9586 9.48725 11.9586 9.68707C11.9586 9.87845 11.8287 10.1303 11.5687 10.4427C11.5617 10.4709 11.5582 10.4962 11.5582 10.5187C11.5582 10.6172 11.5933 10.6946 11.6636 10.7509C11.7338 10.8044 11.8146 10.8311 11.9059 10.8311C12.0218 10.8311 12.1307 10.7692 12.2326 10.6454C12.338 10.5187 12.417 10.3766 12.4697 10.219C12.5259 10.0586 12.554 9.91504 12.554 9.78839C12.554 9.37748 12.3503 9.17203 11.9428 9.17203L11.985 9.00739Z" fill="var(--mw-icon-glyph-content-dark-gray, #333333)"/>
<line x1="8" y1="7.5" x2="15" y2="7.5" stroke="var(--mw-icon-glyph-content-gray, #616162)"/>
<path d="M0.5 0.5H18.5V14.5H0.5V0.5Z" stroke="var(--mw-icon-border-default-gray, #616161)" stroke-linejoin="round"/>
</svg>
