<svg width="20" height="16" viewBox="0 0 20 16" fill="none" xmlns="http://www.w3.org/2000/svg">
<circle cx="9.5" cy="7.5" r="7" fill="#DD5400"/>
<path d="M16.5 7.5C16.5 6.04053 16.0438 4.61755 15.1953 3.43011C14.3467 2.24267 13.1482 1.35015 11.7674 0.877402C10.3866 0.404653 8.89261 0.375314 7.49433 0.79349C6.09604 1.21167 4.86344 2.05644 3.96891 3.20965C3.07439 4.36286 2.5627 5.76683 2.5054 7.22518C2.4481 8.68353 2.84806 10.1233 3.64935 11.3432C4.45063 12.563 5.61316 13.5019 6.97432 14.0285C8.33549 14.5551 9.82721 14.643 11.2408 14.2801L9.5 7.5H16.5Z" fill="#EDB120"/>
<path d="M16.5 7.5C16.5 6.35814 16.2207 5.23362 15.6864 4.22449C15.1521 3.21536 14.379 2.35225 13.4346 1.71044C12.4902 1.06862 11.4031 0.667574 10.2681 0.542273C9.13318 0.416973 7.9848 0.571219 6.92313 0.991564C5.86146 1.41191 4.91873 2.08559 4.17716 2.95386C3.43558 3.82214 2.91767 4.85864 2.66858 5.973C2.41949 7.08735 2.44679 8.24573 2.7481 9.34711C3.0494 10.4485 3.61557 11.4595 4.39722 12.2918L9.5 7.5L16.5 7.5Z" fill="#8516D1"/>
<path d="M16.5 7.5C16.5 5.75753 15.8501 4.0777 14.6774 2.78891C13.5047 1.50013 11.8935 0.695047 10.1588 0.531066C8.42402 0.367085 6.69049 0.855992 5.29706 1.90221C3.90363 2.94842 2.9505 4.47672 2.62399 6.18833L9.5 7.5H16.5Z" fill="#3BAA32"/>
<path d="M16.5 7.5C16.5 6.17167 16.1221 4.87076 15.4103 3.74921C14.6985 2.62767 13.6824 1.73179 12.4805 1.16621C11.2785 0.600635 9.94052 0.388713 8.62267 0.555197C7.30481 0.721681 6.06153 1.2597 5.03803 2.10641L9.5 7.5H16.5Z" fill="#2FBEEF"/>
<path d="M16.5 7.5C16.5 6.58075 16.3189 5.6705 15.9672 4.82122C15.6154 3.97194 15.0998 3.20026 14.4497 2.55025C13.7997 1.90024 13.0281 1.38463 12.1788 1.03284C11.3295 0.68106 10.4193 0.5 9.5 0.5L9.5 7.5H16.5Z" fill="#1171BE"/>
<circle cx="9.5" cy="7.5" r="7" stroke="var(--mw-icon-object-primary, #616160)"/>
<path d="M16.5 7.5C16.5 6.04053 16.0438 4.61755 15.1953 3.43011C14.3467 2.24267 13.1482 1.35015 11.7674 0.877402C10.3866 0.404653 8.89261 0.375314 7.49433 0.79349C6.09604 1.21167 4.86344 2.05644 3.96891 3.20965C3.07439 4.36286 2.5627 5.76683 2.5054 7.22518C2.4481 8.68353 2.84806 10.1233 3.64935 11.3432C4.45063 12.563 5.61316 13.5019 6.97432 14.0285C8.33549 14.5551 9.82721 14.643 11.2408 14.2801L9.5 7.5H16.5Z" stroke="var(--mw-icon-object-primary, #616160)" stroke-linejoin="round"/>
<path d="M16.5 7.5C16.5 6.35814 16.2207 5.23362 15.6864 4.22449C15.1521 3.21536 14.379 2.35225 13.4346 1.71044C12.4902 1.06862 11.4031 0.667574 10.2681 0.542273C9.13318 0.416973 7.9848 0.571219 6.92313 0.991564C5.86146 1.41191 4.91873 2.08559 4.17716 2.95386C3.43558 3.82214 2.91767 4.85864 2.66858 5.973C2.41949 7.08735 2.44679 8.24573 2.7481 9.34711C3.0494 10.4485 3.61557 11.4595 4.39722 12.2918L9.5 7.5L16.5 7.5Z" stroke="var(--mw-icon-object-primary, #616160)" stroke-linejoin="round"/>
<path d="M16.5 7.5C16.5 5.75753 15.8501 4.0777 14.6774 2.78891C13.5047 1.50013 11.8935 0.695047 10.1588 0.531066C8.42402 0.367085 6.69049 0.855992 5.29706 1.90221C3.90363 2.94842 2.9505 4.47672 2.62399 6.18833L9.5 7.5H16.5Z" stroke="var(--mw-icon-object-primary, #616160)" stroke-linejoin="round"/>
<path d="M16.5 7.5C16.5 6.17167 16.1221 4.87076 15.4103 3.74921C14.6985 2.62767 13.6824 1.73179 12.4805 1.16621C11.2785 0.600635 9.94052 0.388713 8.62267 0.555197C7.30481 0.721681 6.06153 1.2597 5.03803 2.10641L9.5 7.5H16.5Z" stroke="var(--mw-icon-object-primary, #616160)" stroke-linejoin="round"/>
<path d="M16.5 7.5C16.5 6.58075 16.3189 5.6705 15.9672 4.82122C15.6154 3.97194 15.0998 3.20026 14.4497 2.55025C13.7997 1.90024 13.0281 1.38463 12.1788 1.03284C11.3295 0.68106 10.4193 0.5 9.5 0.5L9.5 7.5H16.5Z" stroke="var(--mw-icon-object-primary, #616160)" stroke-linejoin="round"/>
</svg>
