<svg width="21" height="16" viewBox="0 0 21 16" fill="none" xmlns="http://www.w3.org/2000/svg">
<path d="M10 1L3 5V10.5L10 14.5L17 10.5V5L10 1Z" fill="var(--mw-icon-background-default-white, #FFFFFF)"/>
<path d="M10.002 6.497L10.0041 1L16.8268 4.93223V10.4116L10.002 6.497Z" fill="var(--mw-icon-background-default-light-gray, #F5F5F5)"/>
<path d="M10.002 6.497L9.99981 1L3.17706 4.93724L3.17706 10.4116L10.002 6.497Z" fill="#E6E6E6"/>
<path d="M17.0038 10.2722V5.06086L10.0019 1.02222L3 4.99997" stroke="var(--mw-icon-background-default-dark-gray, #A6A6A6)" stroke-linecap="round" stroke-linejoin="round"/>
<path d="M3 5V10.3281L10 14.3697L17 10.33" stroke="var(--mw-icon-border-default-gray, #616161)" stroke-linecap="round" stroke-linejoin="round"/>
<path d="M4.5 8.46178L10.25 5.42358L16 8.46178L10.25 11.5L4.5 8.46178Z" fill="#EDB120" stroke="#745A26" stroke-linejoin="round"/>
<path d="M6.5 6.06505L10.5 4L14.5 6.21351L10.8636 8.23529V10L8.5874 8.82301L6.5 7.72811V6.06505Z" fill="#EDB120"/>
<path d="M6.5 6.06505L10.5 4L14.5 6.21351L10.8636 8.23529M6.5 6.06505L10.8636 8.23529M6.5 6.06505V7.72811L8.5874 8.82301L10.8636 10V8.23529" stroke="#745A26" stroke-linejoin="round"/>
</svg>
