<svg width="20" height="16" viewBox="0 0 20 16" fill="none" xmlns="http://www.w3.org/2000/svg">
<path d="M18.5 0.5H0.5V14.5H18.5V0.5Z" fill="var(--mw-icon-background-default-light-gray, #F5F5F5)"/>
<path d="M14.5 1V14" stroke="var(--mw-icon-background-default-medium-gray, #D9D9D9)"/>
<path d="M9.5 1V14" stroke="var(--mw-icon-background-default-medium-gray, #D9D9D9)"/>
<path d="M4.5 1V14" stroke="var(--mw-icon-background-default-medium-gray, #D9D9D9)"/>
<path d="M1 11.5H18" stroke="var(--mw-icon-background-default-medium-gray, #D9D9D9)"/>
<path d="M1 3.5H18" stroke="var(--mw-icon-background-default-medium-gray, #D9D9D9)"/>
<path d="M1 7.5H18" stroke="var(--mw-icon-background-default-medium-gray, #D9D9D9)"/>
<path d="M0.5 1.5C0.5 0.947716 0.947715 0.5 1.5 0.5H17.5C18.0523 0.5 18.5 0.947715 18.5 1.5V13.5C18.5 14.0523 18.0523 14.5 17.5 14.5H1.5C0.947716 14.5 0.5 14.0523 0.5 13.5V1.5Z" stroke="var(--mw-icon-border-default-gray, #616161)"/>
<path d="M10.8499 6.69303C10.9446 6.57124 11.0902 6.5 11.2445 6.5H19C19.2761 6.5 19.5 6.72386 19.5 7V15C19.5 15.2761 19.2761 15.5 19 15.5H11.2445C11.0902 15.5 10.9446 15.4288 10.8499 15.307L7.73875 11.307C7.59832 11.1264 7.59832 10.8736 7.73875 10.693L10.8499 6.69303Z" fill="var(--mw-icon-background-default-selection, #B4DEFF)" stroke="var(--mw-icon-glyph-content-dark-blue, #104280)"/>
<path d="M17 13L13 9" stroke="var(--mw-icon-glyph-content-dark-blue, #104280)" stroke-linecap="round"/>
<path d="M13 13L17 9" stroke="var(--mw-icon-glyph-content-dark-blue, #104280)" stroke-linecap="round"/>

</svg>
