<svg width="20" height="16" viewBox="0 0 20 16" fill="none" xmlns="http://www.w3.org/2000/svg">
<path d="M0.5 1.5C0.5 0.947716 0.947715 0.5 1.5 0.5H17.5C18.0523 0.5 18.5 0.947715 18.5 1.5V13.5C18.5 14.0523 18.0523 14.5 17.5 14.5H1.5C0.947716 14.5 0.5 14.0523 0.5 13.5V1.5Z" fill="var(--mw-icon-background-default-light-gray, #F5F5F5)" stroke="var(--mw-icon-object-primary, #616160)"/>
<path d="M15.5 1V14M9.5 1V14M3.5 1V14M1 5.5H18M1 9.5H18" stroke="#BFBFBF"/>
<path d="M12.5 1V14M6.5 1V14M1 11.5H18M1 3.5H18M1 7.5H18" stroke="var(--mw-icon-glyph-disabled-gray, #888889)"/>
</svg>
