<svg width="20" height="16" viewBox="0 0 20 16" fill="none" xmlns="http://www.w3.org/2000/svg">
<path d="M11.5529 13.7956L8.44711 2.20447M14.2427 12.2426L5.75738 3.75737M15.7956 6.44711L4.20447 9.55294M14.2427 3.75738L5.75738 12.2427M11.5529 2.20448L8.44711 13.7956M15.7956 9.553L4.20448 6.44717" stroke="#BFBFBF"/>
<path d="M10 14V2M13 13.1961L7 2.80383M16 8H4M15.1962 5L4.80385 11M13 2.80386L7 13.1962M15.1962 11.0001L4.80385 5.00006" stroke="var(--mw-icon-object-primary, #616160)"/>
<circle cx="10" cy="8" r="6.5" stroke="var(--mw-icon-object-primary, #616160)"/>
<path d="M10.5 0.5C10.5 0.776142 10.2761 1 10 1C9.72386 1 9.5 0.776142 9.5 0.5C9.5 0.223858 9.72386 0 10 0C10.2761 0 10.5 0.223858 10.5 0.5Z" fill="var(--mw-icon-background-default-dark-gray, #A6A6A6)"/>
<path d="M10.5 15.5C10.5 15.7761 10.2761 16 10 16C9.72386 16 9.5 15.7761 9.5 15.5C9.5 15.2239 9.72386 15 10 15C10.2761 15 10.5 15.2239 10.5 15.5Z" fill="var(--mw-icon-background-default-dark-gray, #A6A6A6)"/>
<path d="M3 8C3 8.27614 2.77614 8.5 2.5 8.5C2.22386 8.5 2 8.27614 2 8C2 7.72386 2.22386 7.5 2.5 7.5C2.77614 7.5 3 7.72386 3 8Z" fill="var(--mw-icon-background-default-dark-gray, #A6A6A6)"/>
<path d="M18 8C18 8.27614 17.7761 8.5 17.5 8.5C17.2239 8.5 17 8.27614 17 8C17 7.72386 17.2239 7.5 17.5 7.5C17.7761 7.5 18 7.72386 18 8Z" fill="var(--mw-icon-background-default-dark-gray, #A6A6A6)"/>
<path d="M6.68301 1.25479C6.82108 1.49394 6.73914 1.79973 6.5 1.9378C6.26085 2.07587 5.95506 1.99394 5.81699 1.75479C5.67892 1.51564 5.76085 1.20985 6 1.07178C6.23915 0.933706 6.54494 1.01564 6.68301 1.25479Z" fill="var(--mw-icon-background-default-dark-gray, #A6A6A6)"/>
<path d="M14.183 14.2452C14.3211 14.4844 14.2391 14.7901 14 14.9282C13.7609 15.0663 13.4551 14.9844 13.317 14.7452C13.1789 14.5061 13.2609 14.2003 13.5 14.0622C13.7391 13.9241 14.0449 14.0061 14.183 14.2452Z" fill="var(--mw-icon-background-default-dark-gray, #A6A6A6)"/>
<path d="M3.93782 11.5C4.07589 11.7392 3.99395 12.045 3.75481 12.183C3.51566 12.3211 3.20986 12.2392 3.07179 12C2.93372 11.7609 3.01566 11.4551 3.25481 11.317C3.49395 11.1789 3.79975 11.2609 3.93782 11.5Z" fill="var(--mw-icon-background-default-dark-gray, #A6A6A6)"/>
<path d="M16.9282 4.00003C17.0663 4.23918 16.9843 4.54497 16.7452 4.68304C16.506 4.82111 16.2003 4.73918 16.0622 4.50003C15.9241 4.26088 16.006 3.95509 16.2452 3.81702C16.4843 3.67895 16.7901 3.76088 16.9282 4.00003Z" fill="var(--mw-icon-background-default-dark-gray, #A6A6A6)"/>
<path d="M3.75481 3.81696C3.99395 3.95503 4.07589 4.26082 3.93782 4.49997C3.79975 4.73912 3.49395 4.82105 3.25481 4.68298C3.01566 4.54491 2.93372 4.23912 3.07179 3.99997C3.20986 3.76082 3.51566 3.67889 3.75481 3.81696Z" fill="var(--mw-icon-background-default-dark-gray, #A6A6A6)"/>
<path d="M16.7452 11.317C16.9843 11.455 17.0663 11.7608 16.9282 12C16.7901 12.2391 16.4843 12.3211 16.2452 12.183C16.006 12.0449 15.9241 11.7391 16.0622 11.5C16.2003 11.2608 16.506 11.1789 16.7452 11.317Z" fill="var(--mw-icon-background-default-dark-gray, #A6A6A6)"/>
<path d="M6.5 14.0621C6.73914 14.2002 6.82108 14.506 6.68301 14.7451C6.54494 14.9843 6.23915 15.0662 6 14.9282C5.76085 14.7901 5.67892 14.4843 5.81699 14.2451C5.95506 14.006 6.26085 13.9241 6.5 14.0621Z" fill="var(--mw-icon-background-default-dark-gray, #A6A6A6)"/>
<path d="M14 1.07178C14.2391 1.20985 14.3211 1.51565 14.183 1.75479C14.0449 1.99394 13.7391 2.07588 13.5 1.93781C13.2609 1.79973 13.1789 1.49394 13.317 1.25479C13.4551 1.01565 13.7609 0.933709 14 1.07178Z" fill="var(--mw-icon-background-default-dark-gray, #A6A6A6)"/>
</svg>
