<svg width="20" height="16" viewBox="0 0 20 16" fill="none" xmlns="http://www.w3.org/2000/svg">
<rect x="9" width="1" height="15" fill="var(--mw-icon-border-disabled-gray, #888888)"/>
<rect x="5.31689" y="1.25476" width="1" height="15" transform="rotate(-30 5.31689 1.25476)" fill="var(--mw-icon-border-disabled-gray, #888888)"/>
<rect x="2.75488" y="4.18298" width="1" height="15" transform="rotate(-60 2.75488 4.18298)" fill="var(--mw-icon-border-disabled-gray, #888888)"/>
<rect x="17" y="7" width="1" height="15" transform="rotate(90 17 7)" fill="var(--mw-icon-border-disabled-gray, #888888)"/>
<rect x="15.7451" y="3.31702" width="1" height="15" transform="rotate(60 15.7451 3.31702)" fill="var(--mw-icon-border-disabled-gray, #888888)"/>
<rect x="12.8169" y="0.754883" width="1" height="15" transform="rotate(30 12.8169 0.754883)" fill="var(--mw-icon-border-disabled-gray, #888888)"/>
<circle cx="9.5" cy="7.5" r="6" fill="var(--mw-icon-background-default-white, white)"/>
<path d="M9.5 1.5V13.5" stroke="var(--mw-icon-background-default-medium-gray, #D9D9D9)"/>
<path d="M15.5 7.5L3.5 7.5" stroke="var(--mw-icon-background-default-medium-gray, #D9D9D9)"/>
<path d="M6.5 2.30383L12.5 12.6961" stroke="var(--mw-icon-background-default-medium-gray, #D9D9D9)"/>
<path d="M4.30396 4.5L14.6963 10.5" stroke="var(--mw-icon-background-default-medium-gray, #D9D9D9)"/>
<path d="M14.6963 4.5L4.30398 10.5" stroke="var(--mw-icon-background-default-medium-gray, #D9D9D9)"/>
<path d="M12.5002 2.30383L6.50024 12.6961" stroke="var(--mw-icon-background-default-medium-gray, #D9D9D9)"/>
<circle cx="9.5" cy="7.5" r="6" stroke="var(--mw-icon-border-default-gray, #616161)"/>
<path d="M8 11C8.55228 11 9 10.5523 9 10C9 9.44772 8.55228 9 8 9C7.44772 9 7 9.44772 7 10C7 10.5523 7.44772 11 8 11Z" fill="#0072BD"/>
<path d="M6.5 6C6.77614 6 7 5.77614 7 5.5C7 5.22386 6.77614 5 6.5 5C6.22386 5 6 5.22386 6 5.5C6 5.77614 6.22386 6 6.5 6Z" fill="#0072BD"/>
<path d="M11 12C11.5523 12 12 11.5523 12 11C12 10.4477 11.5523 10 11 10C10.4477 10 10 10.4477 10 11C10 11.5523 10.4477 12 11 12Z" fill="#0072BD"/>
<path d="M12.5 8C13.3284 8 14 7.32843 14 6.5C14 5.67157 13.3284 5 12.5 5C11.6716 5 11 5.67157 11 6.5C11 7.32843 11.6716 8 12.5 8Z" fill="#0072BD"/>

</svg>
