<svg width="20" height="16" viewBox="0 0 20 16" fill="none" xmlns="http://www.w3.org/2000/svg">
<rect x="9" width="1" height="15" fill="var(--mw-icon-border-disabled-gray, #888888)"/>
<rect x="5.31689" y="1.25488" width="1" height="15" transform="rotate(-30 5.31689 1.25488)" fill="var(--mw-icon-border-disabled-gray, #888888)"/>
<rect x="2.75488" y="4.18311" width="1" height="15" transform="rotate(-60 2.75488 4.18311)" fill="var(--mw-icon-border-disabled-gray, #888888)"/>
<rect x="17" y="7" width="1" height="15" transform="rotate(90 17 7)" fill="var(--mw-icon-border-disabled-gray, #888888)"/>
<rect x="15.7451" y="3.31714" width="1" height="15" transform="rotate(60 15.7451 3.31714)" fill="var(--mw-icon-border-disabled-gray, #888888)"/>
<rect x="12.8169" y="0.754883" width="1" height="15" transform="rotate(30 12.8169 0.754883)" fill="var(--mw-icon-border-disabled-gray, #888888)"/>
<circle cx="9.5" cy="7.5" r="6" fill="var(--mw-icon-background-default-white, white)"/>
<path d="M9.5 1.5V13.5" stroke="var(--mw-icon-background-default-medium-gray, #D9D9D9)"/>
<path d="M15.5 7.5L3.5 7.5" stroke="var(--mw-icon-background-default-medium-gray, #D9D9D9)"/>
<path d="M6.5 2.30396L12.5 12.6963" stroke="var(--mw-icon-background-default-medium-gray, #D9D9D9)"/>
<path d="M4.30396 4.5L14.6963 10.5" stroke="var(--mw-icon-background-default-medium-gray, #D9D9D9)"/>
<path d="M14.6963 4.5L4.30398 10.5" stroke="var(--mw-icon-background-default-medium-gray, #D9D9D9)"/>
<path d="M12.5002 2.30396L6.50024 12.6963" stroke="var(--mw-icon-background-default-medium-gray, #D9D9D9)"/>
<circle cx="9.5" cy="7.5" r="6" stroke="var(--mw-icon-border-default-gray, #616161)"/>
<path d="M9.5 6.16667V7.5H8.16667L7.40885 6.9587C7.13675 6.76434 6.88117 6.54784 6.64472 6.31139L6.33333 6C5.8731 5.53976 5.8731 4.79357 6.33333 4.33333C6.79357 3.8731 7.53976 3.8731 8 4.33333L8.31139 4.64472C8.54784 4.88117 8.76434 5.13675 8.9587 5.40885L9.5 6.16667Z" stroke="#0072BD"/>
<path d="M8.16667 7.5L9.5 7.5L9.5 8.83333L8.9587 9.59115C8.76434 9.86325 8.54784 10.1188 8.31139 10.3553L8 10.6667C7.53976 11.1269 6.79357 11.1269 6.33333 10.6667C5.8731 10.2064 5.8731 9.46024 6.33333 9L6.64472 8.68861C6.88117 8.45216 7.13675 8.23566 7.40885 8.0413L8.16667 7.5Z" stroke="#0072BD"/>
<path d="M9.5 8.83333L9.5 7.5L10.8333 7.5L11.5912 8.0413C11.8633 8.23566 12.1188 8.45216 12.3553 8.68861L12.6667 9C13.1269 9.46024 13.1269 10.2064 12.6667 10.6667C12.2064 11.1269 11.4602 11.1269 11 10.6667L10.6886 10.3553C10.4522 10.1188 10.2357 9.86325 10.0413 9.59115L9.5 8.83333Z" stroke="#0072BD"/>
<path d="M10.8333 7.5L9.5 7.5L9.5 6.16667L10.0413 5.40885C10.2357 5.13675 10.4522 4.88117 10.6886 4.64472L11 4.33333C11.4602 3.8731 12.2064 3.8731 12.6667 4.33333C13.1269 4.79357 13.1269 5.53976 12.6667 6L12.3553 6.31139C12.1188 6.54784 11.8633 6.76434 11.5912 6.9587L10.8333 7.5Z" stroke="#0072BD"/>

</svg>
