<svg width="20" height="16" viewBox="0 0 20 16" fill="none" xmlns="http://www.w3.org/2000/svg">
<rect x="0.5" y="0.547852" width="18" height="14" fill="var(--mw-icon-background-default-white, #FFFFFF)"/>
<rect x="0.5" y="0.5" width="18" height="14" stroke="var(--mw-icon-border-default-gray, #616161)" stroke-linejoin="round"/>
<path d="M9.49829 2.5L9.49829 12.5004" stroke="var(--mw-icon-border-default-gray, #616161)" stroke-linecap="square"/>
<path d="M15.5 7.49316L3.49989 7.49316" stroke="var(--mw-icon-border-default-gray, #616161)" stroke-linecap="square"/>
<path d="M11.4853 9.48535C13.8284 7.14221 14.7782 4.29296 13.6066 3.12139C12.435 1.94982 9.58579 2.89956 7.24264 5.24271C4.8995 7.58586 3.94975 10.4351 5.12132 11.6067C6.29289 12.7782 9.14214 11.8285 11.4853 9.48535Z" stroke="var(--mw-icon-border-default-gray, #616161)" stroke-miterlimit="10" stroke-linecap="round"/>
<path d="M5.68677 4.486L8.18677 4.10303L7.74276 6.60303L5.68677 4.486Z" fill="var(--mw-icon-border-default-gray, #616161)"/>
<path d="M12.7295 10.3407L10.2004 10.6522L10.8708 8.19428L12.7295 10.3407Z" fill="var(--mw-icon-border-default-gray, #616161)"/>
</svg>
