<svg width="20" height="16" viewBox="0 0 20 16" fill="none" xmlns="http://www.w3.org/2000/svg">
<rect x="0.5" y="0.5" width="18" height="14" fill="var(--mw-icon-background-default-white, white)"/>
<path d="M1 1H18V3H1V1Z" fill="#BFBFBF"/>
<line x1="9.5" y1="7" x2="9.5" y2="10" stroke="#0072BD"/>
<path d="M9.5 3L9.5 6" stroke="#0072BD"/>
<path d="M9.5 11V14" stroke="#0072BD"/>
<line x1="11" y1="8.5" x2="8" y2="8.5" stroke="#0072BD"/>
<line x1="14" y1="8.5" x2="12" y2="8.5" stroke="#0072BD"/>
<line x1="7" y1="8.5" x2="5" y2="8.5" stroke="#0072BD"/>
<circle cx="9.4997" cy="8.5" r="4" transform="rotate(-45 9.4997 8.5)" stroke="#0072BD" stroke-dasharray="3 3"/>
<circle cx="16.5" cy="8.5" r="1" stroke="#0072BD"/>
<circle cx="2.5" cy="8.5" r="1" stroke="#0072BD"/>
<rect x="15.25" y="4.25" width="0.5" height="0.5" fill="#0072BD" stroke="#0072BD" stroke-width="0.5"/>
<rect x="14.25" y="3.25" width="0.5" height="0.5" fill="#0072BD" stroke="#0072BD" stroke-width="0.5"/>
<rect x="16.25" y="5.25" width="0.5" height="0.5" fill="#0072BD" stroke="#0072BD" stroke-width="0.5"/>
<rect x="16.25" y="3.25" width="0.5" height="0.5" fill="#0072BD" stroke="#0072BD" stroke-width="0.5"/>
<rect x="14.25" y="5.25" width="0.5" height="0.5" fill="#0072BD" stroke="#0072BD" stroke-width="0.5"/>
<rect x="15.25" y="12.25" width="0.5" height="0.5" fill="#0072BD" stroke="#0072BD" stroke-width="0.5"/>
<rect x="14.25" y="11.25" width="0.5" height="0.5" fill="#0072BD" stroke="#0072BD" stroke-width="0.5"/>
<rect x="16.25" y="13.25" width="0.5" height="0.5" fill="#0072BD" stroke="#0072BD" stroke-width="0.5"/>
<rect x="16.25" y="11.25" width="0.5" height="0.5" fill="#0072BD" stroke="#0072BD" stroke-width="0.5"/>
<rect x="14.25" y="13.25" width="0.5" height="0.5" fill="#0072BD" stroke="#0072BD" stroke-width="0.5"/>
<rect x="0.5" y="0.5" width="18" height="14" stroke="var(--mw-icon-border-default-gray, #616161)" stroke-linejoin="round"/>

</svg>
