<svg width="20" height="16" viewBox="0 0 20 16" fill="none" xmlns="http://www.w3.org/2000/svg">
<rect x="0.5" y="0.547607" width="18" height="14" fill="var(--mw-icon-background-default-white, #FFFFFF)"/>
<path d="M10.5 2.5V12.5M14.5 2.5V6.5V12.5M4.5 12.5V2.5M8.5 2.5V7.5V12.5" stroke="#D95319"/>
<path d="M16.5 2.5H2.5V12.5H16.5V7.30769V2.5Z" stroke="#EDB120" stroke-linejoin="round"/>
<path d="M7.5 2.5C7.5 3.05228 7.05228 3.5 6.5 3.5C5.94772 3.5 5.5 3.05228 5.5 2.5C5.5 1.94772 5.94772 1.5 6.5 1.5C7.05228 1.5 7.5 1.94772 7.5 2.5Z" fill="#FF453A"/>
<path d="M7.5 12.5C7.5 13.0523 7.05228 13.5 6.5 13.5C5.94772 13.5 5.5 13.0523 5.5 12.5C5.5 11.9477 5.94772 11.5 6.5 11.5C7.05228 11.5 7.5 11.9477 7.5 12.5Z" fill="#FF453A"/>
<path d="M13.5 2.5C13.5 3.05228 13.0523 3.5 12.5 3.5C11.9477 3.5 11.5 3.05228 11.5 2.5C11.5 1.94772 11.9477 1.5 12.5 1.5C13.0523 1.5 13.5 1.94772 13.5 2.5Z" fill="#FF453A"/>
<path d="M13.5 12.5C13.5 13.0523 13.0523 13.5 12.5 13.5C11.9477 13.5 11.5 13.0523 11.5 12.5C11.5 11.9477 11.9477 11.5 12.5 11.5C13.0523 11.5 13.5 11.9477 13.5 12.5Z" fill="#FF453A"/>
<path d="M7.255 11.0038V10.9039C6.86034 10.9039 6.70161 10.8397 6.70161 10.6648V8.72382H6.57721L5.745 8.92006V9.03781C5.87798 9.00213 6.09676 8.98072 6.18255 8.98072C6.2898 8.98072 6.32411 9.03067 6.32411 9.15555V10.6648C6.32411 10.8433 6.17397 10.9039 5.77073 10.9039V11.0038H7.255Z" fill="black"/>
<path d="M11.8128 9.23048C11.9462 9.04656 12.0913 8.94939 12.3266 8.94939C12.5698 8.94939 12.7267 9.06738 12.7267 9.27213C12.7267 9.55322 12.4482 9.74409 12.1815 9.74409H12.107V9.87596H12.1854C12.562 9.87596 12.8953 10.0807 12.8953 10.3896C12.8953 10.7297 12.6561 10.8303 12.409 10.8303C12.3149 10.8303 12.26 10.8164 12.0913 10.7401C11.954 10.6776 11.9227 10.6603 11.8599 10.6603C11.7579 10.6603 11.7069 10.7401 11.7069 10.8129C11.7069 10.9032 11.7932 11.0038 12.1462 11.0038C12.7188 11.0038 13.2169 10.7609 13.2169 10.2855C13.2169 9.9766 12.9542 9.79267 12.6404 9.70592V9.69551C12.8875 9.55669 13.064 9.42829 13.064 9.18884C13.064 8.92509 12.8326 8.72382 12.4325 8.72382C12.1109 8.72382 11.8677 8.88345 11.7226 9.18537L11.8128 9.23048Z" fill="black"/>
<path d="M7.25432 5.68312H7.15158C7.07009 5.8957 7.02403 5.9701 6.83625 5.9701H6.34377L6.09575 5.98073V5.96302L6.56343 5.52014C6.93899 5.14103 7.14095 4.89656 7.14095 4.58124C7.14095 4.20922 6.86105 3.96829 6.46069 3.96829C6.11701 3.96829 5.87609 4.1667 5.76625 4.51037L5.85129 4.54581C5.98238 4.28008 6.13827 4.19859 6.36857 4.19859C6.64138 4.19859 6.81145 4.36865 6.81145 4.63438C6.81145 5.0064 6.63429 5.22961 6.28353 5.591L5.745 6.12954V6.25H7.14095L7.25432 5.68312Z" fill="black"/>
<path d="M13.2169 5.72274V5.47883H12.8878V4.00125H12.691L11.7069 5.50004V5.72274H12.6007V6.28125H12.8878V5.72274H13.2169ZM12.6007 5.47883H11.8844V5.46469L12.5878 4.38655H12.6007V5.47883Z" fill="black"/>
<rect x="0.5" y="0.5" width="18" height="14" stroke="var(--mw-icon-border-default-gray, #616161)" stroke-linejoin="round"/>
</svg>
