<svg width="20" height="16" viewBox="0 0 20 16" fill="none" xmlns="http://www.w3.org/2000/svg">
<rect x="0.5" y="0.5" width="18" height="14" fill="var(--mw-icon-background-default-white, white)"/>
<path d="M9 7H10V12H9V7Z" fill="#0072BD"/>
<path d="M12 10H14V11H12V10Z" fill="#0072BD"/>
<path d="M13 11H15V12H13V11Z" fill="#0072BD"/>
<path d="M15 12H17V13H15V12Z" fill="#0072BD"/>
<path d="M16 13H18V14H16V13Z" fill="#0072BD"/>
<path d="M10 9H13V10H10V9Z" fill="#0072BD"/>
<path d="M8 9H9V11H8V9Z" fill="#0072BD"/>
<path d="M6 10H7V12H6V10Z" fill="#0072BD"/>
<path d="M5 4H6V10H5V4Z" fill="#0072BD"/>
<path d="M4 7H5V12H4V7Z" fill="#0072BD"/>
<path d="M3 10H4V13H3V10Z" fill="#0072BD"/>
<path d="M2 12H3V14H2V12Z" fill="#0072BD"/>
<path d="M1 11H2V14H1V11Z" fill="#0072BD"/>
<path d="M7 6H8V11H7V6Z" fill="#0072BD"/>
<rect x="0.5" y="0.5" width="18" height="14" stroke="var(--mw-icon-border-default-gray, #616161)" stroke-linejoin="round"/>
<path d="M8.75876 3.12846C8.75876 3.45784 8.69014 3.722 8.55291 3.92095C8.41688 4.11858 8.2327 4.21739 8.00036 4.21739C7.80294 4.21739 7.64343 4.14229 7.52185 3.99209V5H7V2.03953H7.48393L7.50199 2.24901C7.62839 2.083 7.79331 2 7.99675 2C8.23751 2 8.4247 2.0975 8.55832 2.29249C8.69195 2.48748 8.75876 2.75626 8.75876 3.09881V3.12846ZM8.23691 3.08696C8.23691 2.88801 8.20441 2.73452 8.1394 2.62648C8.0756 2.51845 7.9823 2.46443 7.85952 2.46443C7.6958 2.46443 7.58324 2.53294 7.52185 2.66996V3.54545C7.58565 3.68643 7.69941 3.75692 7.86313 3.75692C8.11231 3.75692 8.23691 3.5336 8.23691 3.08696Z" fill="var(--mw-icon-glyph-content-gray, #616162)"/>
<path d="M9.00253 3.08893C9.00253 2.87681 9.03985 2.68775 9.11448 2.52174C9.18912 2.35573 9.29626 2.22727 9.4359 2.13636C9.57674 2.04545 9.73986 2 9.92524 2C10.1889 2 10.4038 2.08827 10.5699 2.26482C10.7372 2.44137 10.8305 2.68116 10.8498 2.98419L10.8534 3.13043C10.8534 3.4585 10.7697 3.722 10.6024 3.92095C10.4351 4.11858 10.2105 4.21739 9.92886 4.21739C9.64717 4.21739 9.42205 4.11858 9.25352 3.92095C9.08619 3.72332 9.00253 3.45455 9.00253 3.11462V3.08893ZM9.52438 3.13043C9.52438 3.33333 9.55929 3.4888 9.62911 3.59684C9.69893 3.70356 9.79884 3.75692 9.92886 3.75692C10.0553 3.75692 10.154 3.70422 10.225 3.59881C10.296 3.49209 10.3315 3.32213 10.3315 3.08893C10.3315 2.88999 10.296 2.73584 10.225 2.62648C10.154 2.51713 10.0541 2.46245 9.92524 2.46245C9.79764 2.46245 9.69893 2.51713 9.62911 2.62648C9.55929 2.73452 9.52438 2.9025 9.52438 3.13043Z" fill="var(--mw-icon-glyph-content-gray, #616162)"/>
<path d="M12.874 3.40119L13.1304 2.03953H13.6342L13.1358 4.17787H12.6988L12.3286 2.83202L11.9585 4.17787H11.5233L11.0249 2.03953H11.5287L11.7833 3.39921L12.1408 2.03953H12.5182L12.874 3.40119Z" fill="var(--mw-icon-glyph-content-gray, #616162)"/>
<path d="M14.7934 4.21739C14.5069 4.21739 14.2734 4.12121 14.0928 3.92885C13.9134 3.7365 13.8238 3.48024 13.8238 3.16008V3.10474C13.8238 2.88999 13.8617 2.69829 13.9375 2.52964C14.0134 2.35968 14.1205 2.22925 14.2589 2.13834C14.3986 2.04611 14.5575 2 14.7356 2C15.0029 2 15.213 2.09223 15.3658 2.27668C15.5199 2.46113 15.597 2.72266 15.597 3.06126V3.29447H14.3528C14.3697 3.43412 14.4202 3.54611 14.5045 3.63043C14.59 3.71476 14.6977 3.75692 14.8277 3.75692C15.0288 3.75692 15.1859 3.67721 15.299 3.51779L15.5554 3.83202C15.4772 3.95323 15.3713 4.04809 15.2376 4.1166C15.104 4.18379 14.9559 4.21739 14.7934 4.21739ZM14.7338 2.46245C14.6303 2.46245 14.546 2.50066 14.481 2.57708C14.4172 2.65349 14.3763 2.76285 14.3583 2.90514H15.0841V2.85968C15.0817 2.7332 15.0504 2.6357 14.9902 2.56719C14.9301 2.49736 14.8446 2.46245 14.7338 2.46245Z" fill="var(--mw-icon-glyph-content-gray, #616162)"/>
<path d="M16.9928 2.5751C16.9218 2.56456 16.8592 2.55929 16.805 2.55929C16.6076 2.55929 16.4782 2.63241 16.4168 2.77866V4.17787H15.8949V2.03953H16.3879L16.4023 2.29447C16.507 2.09816 16.6521 2 16.8375 2C16.8953 2 16.9494 2.00856 17 2.02569L16.9928 2.5751Z" fill="var(--mw-icon-glyph-content-gray, #616162)"/>

</svg>
