<svg width="21" height="16" viewBox="0 0 21 16" fill="none" xmlns="http://www.w3.org/2000/svg">
<path d="M10.5 1L3.5 5V10.5L10.5 14.5L17.5 10.5V5L10.5 1Z" fill="var(--mw-icon-background-default-white, white)"/>
<path d="M10.502 6.497L10.5041 1L17.3268 4.93223V10.4116L10.502 6.497Z" fill="var(--mw-icon-background-default-light-gray, #F5F5F5)"/>
<path d="M10.502 6.497L10.4998 1L3.67706 4.93724L3.67706 10.4116L10.502 6.497Z" fill="#E6E6E6"/>
<path d="M17.5038 10.2722V5.06089L10.5019 1.02225L3.5 5" stroke="var(--mw-icon-background-default-dark-gray, #A6A6A6)" stroke-linecap="round" stroke-linejoin="round"/>
<path d="M3.5 5V10.3281L10.5 14.3697L17.5 10.33" stroke="var(--mw-icon-border-default-gray, #616161)" stroke-linecap="round" stroke-linejoin="round"/>
<path d="M8.47388 5.37182C8.23674 5.10256 7.92884 4.99027 7.59144 4.96811C7.33738 4.95457 7.08279 4.95543 6.82882 4.9707C6.20485 4.99914 5.73697 4.72176 5.3889 4.19949C5.23768 3.98111 5.11066 3.7457 5.01025 3.49772C7.43785 3.50363 9.74101 2.95736 11.9645 2C12.0573 2.15845 12.1423 2.30472 12.228 2.45098C12.1419 2.46871 12.0715 2.52965 11.9759 2.52854C11.5784 2.52522 11.2033 2.70879 10.8026 2.68589C10.7817 2.68589 10.7596 2.70435 10.7379 2.71396C10.2124 2.94924 9.64359 3.02865 9.11491 3.27833C8.75937 3.44712 8.41024 3.62774 8.07426 3.83014C7.78698 4.00337 7.80369 4.17216 8.10981 4.3103C8.33238 4.41113 8.58232 4.38195 8.81626 4.36718C9.16397 4.34539 9.51062 4.29626 9.85726 4.24418C10.3408 4.17031 10.8094 4.03993 11.2847 3.93614C11.847 3.80821 12.395 3.62045 12.9202 3.37584C12.9693 3.35368 13.0205 3.33373 13.0269 3.26503C13.3202 3.42533 13.6338 3.53577 13.9381 3.67132C14.2581 3.81167 14.5674 3.97345 14.8099 4.23975C15.1756 4.63892 15.4619 5.10909 15.6525 5.62334L15.437 5.63516C15.3851 5.69167 15.4623 5.75446 15.3858 5.81245H15.1267C14.9425 6.04847 14.7487 6.15927 14.4902 6.15706C14.4981 6.22724 14.5048 6.28633 14.5116 6.34543C13.8976 6.32437 13.2839 6.28818 12.6731 6.22096C12.1754 6.16592 11.6751 6.18402 11.1767 6.15373C10.5218 6.1168 9.86438 6.1168 9.20806 6.112C9.0726 6.112 8.99474 6.07506 8.92754 5.95022C8.80986 5.73304 8.67049 5.52694 8.47388 5.37182Z" fill="#FEC338"/>
<path d="M7.64953 9.44133C7.30075 9.41584 6.95304 9.47272 6.60354 9.44835C6.1833 9.41917 5.84377 9.2356 5.56823 8.91463C5.33926 8.64759 5.16292 8.34472 5.00684 7.99125C6.18899 7.97758 7.33986 7.86789 8.47473 7.6134C8.65105 7.75818 8.79636 7.93958 8.90137 8.14601C8.9995 8.34177 9.13531 8.38203 9.3209 8.34103C9.86629 8.40123 10.4149 8.34103 10.9617 8.39421C11.3133 8.42782 11.6696 8.4101 12.0237 8.41564C12.3618 8.44925 12.6992 8.50724 13.038 8.51167C13.6051 8.51942 14.1683 8.56966 14.7314 8.62838C14.7197 8.68859 14.762 8.71961 14.7972 8.74953C15.2359 9.12368 15.4539 9.6489 15.6836 10.1627C15.8005 10.4245 15.888 10.7004 16 11C15.6537 10.9631 15.343 10.9261 15.0319 10.8988C14.3307 10.8338 13.6293 10.7806 12.9275 10.7263C11.8939 10.6469 10.8582 10.6395 9.82434 10.5837C9.81261 10.4404 9.92389 10.3765 10.0089 10.3115C10.1117 10.229 10.2069 10.1368 10.2933 10.036C10.4284 9.88529 10.3768 9.61455 10.2009 9.52406C9.99894 9.42126 9.77755 9.36638 9.55271 9.36339C9.16375 9.35527 8.77267 9.33865 8.3862 9.37004C8.14123 9.39073 7.88987 9.36339 7.64953 9.44133Z" fill="#3E26A8"/>
<path d="M14.7314 8.62692C14.1682 8.56819 13.605 8.51796 13.0379 8.5102C12.6995 8.50577 12.3624 8.44778 12.0236 8.41417C12.0168 8.31629 12.0339 8.24095 12.1544 8.25277C12.1751 8.25277 12.2106 8.2439 12.217 8.22876C12.2814 8.07658 12.4417 8.04408 12.5509 7.95174C12.804 7.73309 13.0486 7.51221 13.2232 7.21895C13.3586 6.99328 13.2993 6.81266 13.0539 6.72106C12.7652 6.61321 12.4677 6.62355 12.1672 6.62725C11.8078 6.62832 11.4488 6.652 11.0921 6.69816C10.69 6.75357 10.2865 6.79678 9.88328 6.85329C9.51565 6.905 9.14696 6.94083 8.77792 6.9785C8.38007 7.01913 7.9833 7.07232 7.58545 7.1159C7.30102 7.14693 7.00984 7.13917 6.72826 7.21045L6.65288 7.20787L6.60169 7.19642C6.18927 7.20565 5.87106 6.99955 5.59659 6.70407C5.34451 6.43223 5.16995 6.10794 5 5.74376C6.19175 5.76038 7.33729 5.61301 8.47358 5.3744C8.67019 5.52953 8.80956 5.73563 8.92866 5.95429C8.99551 6.07617 9.07443 6.11311 9.20918 6.11311C9.8655 6.11717 10.5247 6.11606 11.1778 6.15485C11.6755 6.18476 12.1765 6.16703 12.6742 6.22207C13.285 6.28929 13.8987 6.32549 14.5127 6.34654C14.576 6.38938 14.651 6.36094 14.7178 6.38348C15.3628 7.03058 15.6813 7.86568 15.9921 8.74733L14.7314 8.62692Z" fill="#12B1D6"/>
<path d="M6.72949 7.21045C7.01108 7.13916 7.30119 7.14692 7.58669 7.11589C7.98453 7.07231 8.38131 7.01912 8.77915 6.97849C9.1482 6.94156 9.51689 6.90462 9.88451 6.85328C10.2863 6.79677 10.6898 6.75356 11.0933 6.69815C11.4497 6.65204 11.8083 6.62835 12.1674 6.62724C12.4678 6.62354 12.7654 6.6132 13.0541 6.72105C13.2994 6.81265 13.3588 6.99327 13.2233 7.21894C13.0456 7.51221 12.8042 7.73308 12.551 7.95174C12.4419 8.04555 12.2815 8.07658 12.2172 8.22875C12.2108 8.24389 12.1752 8.2546 12.1546 8.25276C12.0341 8.24094 12.017 8.31629 12.0238 8.41416C11.6682 8.40862 11.3127 8.42635 10.9618 8.39274C10.415 8.34103 9.86638 8.39976 9.32099 8.33956C9.32952 8.30521 9.32774 8.2583 9.34908 8.23798C9.45396 8.13863 9.5656 8.04703 9.67332 7.95137C9.74299 7.88865 9.79091 7.80391 9.80973 7.71016C9.82854 7.61642 9.81722 7.51884 9.7775 7.43243C9.76413 7.40112 9.74455 7.37309 9.72005 7.35017C9.69554 7.32726 9.66666 7.30998 9.63528 7.29946C9.3921 7.22817 9.15069 7.16538 8.89115 7.17905C8.5605 7.19641 8.22878 7.18274 7.89743 7.18644C7.82916 7.18644 7.75521 7.16206 7.69264 7.21525C7.37266 7.17203 7.0509 7.2363 6.72949 7.21045Z" fill="#37C897"/>
<path d="M13.0285 3.26909C13.0214 3.33595 12.9702 3.35589 12.9218 3.3799C12.3966 3.62451 11.8486 3.81227 11.2864 3.94021C10.811 4.04399 10.3424 4.17585 9.85888 4.24825C9.51223 4.30033 9.16558 4.34945 8.81787 4.37124C8.58393 4.38601 8.33399 4.41519 8.11142 4.31436C7.80388 4.17511 7.78717 4.00632 8.07587 3.8342C8.41185 3.6318 8.75992 3.45118 9.11652 3.28239C9.64378 3.02865 10.2126 2.94924 10.7381 2.71507C10.7598 2.70546 10.7818 2.68589 10.8028 2.687C11.2035 2.7099 11.5786 2.52633 11.9761 2.52965C12.0717 2.52965 12.1421 2.46982 12.2282 2.45209C12.4401 2.78229 12.6978 3.06337 13.0285 3.26909Z" fill="#FEC338"/>
<path d="M7.6499 9.44133C7.89024 9.36414 8.14161 9.39073 8.38657 9.37078C8.77304 9.33939 9.16413 9.35601 9.55308 9.36414C9.778 9.36632 9.99963 9.42044 10.2019 9.52259C10.3797 9.61308 10.4295 9.88381 10.2944 10.0345C10.208 10.1353 10.1127 10.2275 10.0099 10.31C9.92497 10.3751 9.81369 10.439 9.82542 10.5823C9.59006 10.5823 9.35434 10.5782 9.11933 10.5896C9.01693 10.5948 8.99098 10.5269 8.95223 10.4611C8.76344 10.1398 8.54621 9.84762 8.22907 9.64854C8.04881 9.53515 7.849 9.49156 7.6499 9.44133Z" fill="#4852F4"/>
<path d="M7.69434 7.21525C7.75655 7.16206 7.83086 7.18718 7.89912 7.18644C8.23048 7.18275 8.5622 7.19641 8.89285 7.17905C9.15239 7.16539 9.39379 7.22818 9.63698 7.29946C9.66836 7.30998 9.69724 7.32727 9.72175 7.35018C9.74625 7.37309 9.76583 7.40112 9.7792 7.43243C9.81892 7.51885 9.83024 7.61642 9.81142 7.71017C9.79261 7.80391 9.74469 7.88865 9.67502 7.95137C9.56836 8.04703 9.45566 8.13863 9.35077 8.23799C9.32944 8.2583 9.33122 8.30521 9.32269 8.33956C9.1371 8.38056 9.00271 8.33956 8.90316 8.14454C8.79815 7.93811 8.65284 7.75671 8.47651 7.61194C8.26319 7.37629 7.99263 7.26659 7.69434 7.21525Z" fill="#37C897"/>
<path d="M14.7177 6.38237C14.6508 6.36132 14.5755 6.38976 14.5125 6.34544C14.5058 6.28634 14.499 6.22724 14.4912 6.15707C14.7497 6.15928 14.9435 6.04848 15.1276 5.81246H15.3868C15.4632 5.75447 15.3868 5.69168 15.438 5.63517L15.6535 5.62335C15.7588 5.8249 15.8402 6.03896 15.8959 6.26085C15.7722 6.27083 15.6471 6.24054 15.5297 6.2808C15.502 6.35024 15.5525 6.3953 15.5479 6.44922L14.7177 6.38237Z" fill="#FEC338"/>
<path d="M15.5479 6.44959C15.5525 6.39566 15.5022 6.3506 15.5298 6.28116C15.6455 6.24091 15.7718 6.27119 15.8953 6.26122L15.9925 6.49908C15.8244 6.49243 15.6849 6.49022 15.5479 6.44959Z" fill="#FEC338"/>
<path d="M6.60303 7.19641L6.65412 7.2078L6.60303 7.19641Z" fill="#3CC88F"/>

</svg>
