<svg width="20" height="16" viewBox="0 0 20 16" fill="none" xmlns="http://www.w3.org/2000/svg">
<rect x="0.5" y="0.5" width="18" height="14" fill="var(--mw-icon-background-default-white, white)"/>
<circle cx="6" cy="3" r="1" fill="#0072BD"/>
<circle cx="13" cy="4" r="1" fill="#0072BD"/>
<circle cx="18" cy="7" r="1" fill="#0072BD"/>
<circle cx="15" cy="8" r="1" fill="#0072BD"/>
<circle cx="13" cy="11" r="1" fill="#0072BD"/>
<circle cx="10" cy="7" r="1" fill="#0072BD"/>
<circle cx="6" cy="9" r="1" fill="#0072BD"/>
<circle cx="2" cy="9" r="1" fill="#0072BD"/>
<path d="M0.5 8.5C0.932203 8.05556 2.6892 7 4.1875 7C6.06038 7 7.372 9 9.67708 9C11.9822 9 12.7956 7.28571 14.8125 7.28571C16.4261 7.28571 18.1158 8.0873 18.5 8.5" stroke="#D95319" stroke-linecap="round"/>
<path d="M0.115927 10.6799C-0.0608798 10.892 -0.0322553 11.2073 0.179862 11.3841C0.39198 11.5609 0.707265 11.5323 0.884073 11.3201L0.115927 10.6799ZM18.1092 11.3119C18.2814 11.5277 18.596 11.5631 18.8118 11.3908C19.0277 11.2186 19.0631 10.904 18.8908 10.6881L18.1092 11.3119ZM1.54818 10.7682C1.78026 10.6186 1.84708 10.3091 1.69743 10.077C1.54778 9.84496 1.23833 9.77814 1.00625 9.92779L1.54818 10.7682ZM3.06239 9.10598C2.79127 9.15839 2.61396 9.42066 2.66636 9.69178C2.71876 9.96291 2.98103 10.1402 3.25216 10.0878L3.06239 9.10598ZM5.37706 10.3103C5.62702 10.4276 5.9248 10.3202 6.04217 10.0702C6.15954 9.82024 6.05206 9.52246 5.8021 9.40509L5.37706 10.3103ZM8.37149 10.7637C8.11224 10.6686 7.82498 10.8017 7.72989 11.0609C7.63479 11.3202 7.76786 11.6074 8.02711 11.7025L8.37149 10.7637ZM11.1511 11.7642C11.4138 11.6792 11.558 11.3974 11.473 11.1346C11.388 10.8719 11.1061 10.7278 10.8434 10.8127L11.1511 11.7642ZM13.2882 9.6312C13.0312 9.73231 12.9048 10.0226 13.006 10.2796C13.1071 10.5365 13.3973 10.6629 13.6543 10.5618L13.2882 9.6312ZM15.7195 10.4052C15.9925 10.4468 16.2475 10.2592 16.2892 9.98622C16.3308 9.71323 16.1432 9.4582 15.8702 9.41659L15.7195 10.4052ZM17.8913 10.0063C17.6403 9.8913 17.3435 10.0016 17.2285 10.2526C17.1135 10.5037 17.2237 10.8004 17.4748 10.9154L17.8913 10.0063ZM0.884073 11.3201C0.995603 11.1863 1.21918 10.9804 1.54818 10.7682L1.00625 9.92779C0.613308 10.1812 0.306657 10.451 0.115927 10.6799L0.884073 11.3201ZM3.25216 10.0878C3.53945 10.0323 3.84605 10 4.16949 10V9C3.77925 9 3.40909 9.03897 3.06239 9.10598L3.25216 10.0878ZM4.16949 10C4.5752 10 4.96332 10.116 5.37706 10.3103L5.8021 9.40509C5.31148 9.17471 4.77357 9 4.16949 9V10ZM8.02711 11.7025C8.5133 11.8809 9.04707 12 9.64407 12V11C9.1847 11 8.768 10.9091 8.37149 10.7637L8.02711 11.7025ZM9.64407 12C10.2142 12 10.7075 11.9077 11.1511 11.7642L10.8434 10.8127C10.4911 10.9267 10.1016 11 9.64407 11V12ZM13.6543 10.5618C14.0084 10.4224 14.3792 10.3333 14.8125 10.3333V9.33333C14.2314 9.33333 13.736 9.455 13.2882 9.6312L13.6543 10.5618ZM14.8125 10.3333C15.1123 10.3333 15.4183 10.3593 15.7195 10.4052L15.8702 9.41659C15.5257 9.36408 15.169 9.33333 14.8125 9.33333V10.3333ZM17.4748 10.9154C17.8536 11.089 18.0529 11.2413 18.1092 11.3119L18.8908 10.6881C18.6798 10.4237 18.2956 10.1916 17.8913 10.0063L17.4748 10.9154Z" fill="#D95319"/>
<path d="M0.115927 5.67986C-0.0608798 5.89198 -0.0322553 6.20727 0.179862 6.38407C0.39198 6.56088 0.707265 6.53226 0.884073 6.32014L0.115927 5.67986ZM18.1092 6.31185C18.2814 6.5277 18.596 6.56306 18.8118 6.39083C19.0277 6.2186 19.0631 5.904 18.8908 5.68815L18.1092 6.31185ZM1.55431 5.81735C1.79193 5.67668 1.87053 5.37001 1.72986 5.13238C1.58919 4.89475 1.28252 4.81615 1.0449 4.95682L1.55431 5.81735ZM3.05292 4.13917C2.78414 4.2025 2.61758 4.47172 2.68091 4.74051C2.74423 5.00929 3.01346 5.17585 3.28225 5.11252L3.05292 4.13917ZM5.33867 5.30418C5.58722 5.42451 5.88625 5.32056 6.00657 5.07201C6.1269 4.82346 6.02295 4.52443 5.7744 4.40411L5.33867 5.30418ZM8.26236 5.76956C8.00366 5.67296 7.71564 5.80436 7.61903 6.06305C7.52243 6.32174 7.65383 6.60977 7.91252 6.70637L8.26236 5.76956ZM11.0376 6.76033C11.3008 6.67664 11.4463 6.39547 11.3626 6.13231C11.2789 5.86916 10.9977 5.72367 10.7346 5.80735L11.0376 6.76033ZM13.2591 4.63357C13.0013 4.73236 12.8723 5.02148 12.9711 5.27935C13.0699 5.53722 13.359 5.66618 13.6169 5.56739L13.2591 4.63357ZM15.7195 5.40518C15.9925 5.44679 16.2475 5.25921 16.2892 4.98622C16.3308 4.71323 16.1432 4.4582 15.8702 4.41659L15.7195 5.40518ZM17.8913 5.00633C17.6403 4.8913 17.3435 5.00158 17.2285 5.25262C17.1135 5.50367 17.2237 5.80043 17.4748 5.91545L17.8913 5.00633ZM0.884073 6.32014C0.971894 6.21478 1.19868 6.02787 1.55431 5.81735L1.0449 4.95682C0.656864 5.18653 0.313464 5.44288 0.115927 5.67986L0.884073 6.32014ZM3.28225 5.11252C3.58793 5.0405 3.88816 5 4.16949 5V4C3.79512 4 3.41661 4.05349 3.05292 4.13917L3.28225 5.11252ZM4.16949 5C4.57161 5 4.94577 5.11398 5.33867 5.30418L5.7744 4.40411C5.29803 4.1735 4.77155 4 4.16949 4V5ZM7.91252 6.70637C8.38576 6.88309 8.90865 7 9.5 7V6C9.04561 6 8.64136 5.91109 8.26236 5.76956L7.91252 6.70637ZM9.5 7C10.0768 7 10.581 6.90553 11.0376 6.76033L10.7346 5.80735C10.3651 5.92486 9.96313 6 9.5 6V7ZM13.6169 5.56739C13.9907 5.42419 14.375 5.33333 14.8125 5.33333V4.33333C14.2271 4.33333 13.7206 4.45681 13.2591 4.63357L13.6169 5.56739ZM14.8125 5.33333C15.1123 5.33333 15.4183 5.35927 15.7195 5.40518L15.8702 4.41659C15.5257 4.36408 15.169 4.33333 14.8125 4.33333V5.33333ZM17.4748 5.91545C17.8536 6.08902 18.0529 6.24129 18.1092 6.31185L18.8908 5.68815C18.6798 5.42366 18.2956 5.19156 17.8913 5.00633L17.4748 5.91545Z" fill="#D95319"/>
<rect x="0.5" y="0.5" width="18" height="14" stroke="var(--mw-icon-border-default-gray, #616161)" stroke-linejoin="round"/>

</svg>
