<svg width="20" height="16" viewBox="0 0 20 16" fill="none" xmlns="http://www.w3.org/2000/svg">
<rect x="0.5" y="0.5" width="18" height="14" fill="var(--mw-icon-background-default-white, white)"/>
<circle cx="6" cy="3" r="1" fill="#0072BD"/>
<circle cx="13" cy="3" r="1" fill="#0072BD"/>
<circle cx="18" cy="7" r="1" fill="#0072BD"/>
<circle cx="15" cy="8" r="1" fill="#0072BD"/>
<circle cx="13" cy="12" r="1" fill="#0072BD"/>
<circle cx="10" cy="6" r="1" fill="#0072BD"/>
<circle cx="6" cy="9" r="1" fill="#0072BD"/>
<circle cx="2" cy="9" r="1" fill="#0072BD"/>
<path d="M0.5 8.5C0.932203 8.05556 2.6892 7 4.1875 7C6.06038 7 7.372 9 9.67708 9C11.9822 9 12.7956 7.28571 14.8125 7.28571C16.4261 7.28571 18.1158 8.0873 18.5 8.5" stroke="#D95319" stroke-linecap="round"/>
<path d="M0.115927 11.6799C-0.0608798 11.892 -0.0322553 12.2073 0.179862 12.3841C0.39198 12.5609 0.707265 12.5323 0.884073 12.3201L0.115927 11.6799ZM18.1092 12.3119C18.2814 12.5277 18.596 12.5631 18.8118 12.3908C19.0277 12.2186 19.0631 11.904 18.8908 11.6881L18.1092 12.3119ZM1.54556 11.754C1.77602 11.6019 1.83952 11.2917 1.68739 11.0613C1.53526 10.8308 1.22511 10.7673 0.994655 10.9195L1.54556 11.754ZM3.06479 10.0985C2.79313 10.1481 2.61309 10.4085 2.66266 10.6801C2.71223 10.9518 2.97264 11.1318 3.24429 11.0823L3.06479 10.0985ZM5.38772 11.2951C5.63894 11.4097 5.93553 11.299 6.05016 11.0478C6.16479 10.7966 6.05406 10.5 5.80283 10.3853L5.38772 11.2951ZM8.37554 11.7606C8.11703 11.6635 7.82875 11.7943 7.73165 12.0529C7.63455 12.3114 7.7654 12.5996 8.0239 12.6967L8.37554 11.7606ZM11.1511 12.7642C11.4138 12.6792 11.558 12.3974 11.473 12.1346C11.388 11.8719 11.1061 11.7278 10.8434 11.8127L11.1511 12.7642ZM13.2882 10.6312C13.0312 10.7323 12.9048 11.0226 13.006 11.2796C13.1071 11.5365 13.3973 11.6629 13.6543 11.5618L13.2882 10.6312ZM15.7195 11.4052C15.9925 11.4468 16.2475 11.2592 16.2892 10.9862C16.3308 10.7132 16.1432 10.4582 15.8702 10.4166L15.7195 11.4052ZM17.8913 11.0063C17.6403 10.8913 17.3435 11.0016 17.2285 11.2526C17.1135 11.5037 17.2237 11.8004 17.4748 11.9154L17.8913 11.0063ZM0.884073 12.3201C1.00317 12.1773 1.22389 11.9664 1.54556 11.754L0.994655 10.9195C0.600265 11.1798 0.303966 11.4543 0.115927 11.6799L0.884073 12.3201ZM3.24429 11.0823C3.52902 11.0303 3.83756 11 4.16949 11V10C3.77637 10 3.40776 10.0359 3.06479 10.0985L3.24429 11.0823ZM4.16949 11C4.59416 11 4.986 11.1118 5.38772 11.2951L5.80283 10.3853C5.31564 10.163 4.77962 10 4.16949 10V11ZM8.0239 12.6967C8.50786 12.8785 9.04125 13 9.64407 13V12C9.18091 12 8.76696 11.9076 8.37554 11.7606L8.0239 12.6967ZM9.64407 13C10.2142 13 10.7075 12.9077 11.1511 12.7642L10.8434 11.8127C10.4911 11.9267 10.1016 12 9.64407 12V13ZM13.6543 11.5618C14.0084 11.4224 14.3792 11.3333 14.8125 11.3333V10.3333C14.2314 10.3333 13.736 10.455 13.2882 10.6312L13.6543 11.5618ZM14.8125 11.3333C15.1123 11.3333 15.4183 11.3593 15.7195 11.4052L15.8702 10.4166C15.5257 10.3641 15.169 10.3333 14.8125 10.3333V11.3333ZM17.4748 11.9154C17.8536 12.089 18.0529 12.2413 18.1092 12.3119L18.8908 11.6881C18.6798 11.4237 18.2956 11.1916 17.8913 11.0063L17.4748 11.9154Z" fill="#D95319"/>
<path d="M0.115927 4.67986C-0.0608798 4.89198 -0.0322553 5.20727 0.179862 5.38407C0.39198 5.56088 0.707265 5.53226 0.884073 5.32014L0.115927 4.67986ZM18.1092 5.31185C18.2814 5.5277 18.596 5.56306 18.8118 5.39083C19.0277 5.2186 19.0631 4.904 18.8908 4.68815L18.1092 5.31185ZM1.55431 4.81735C1.79193 4.67668 1.87053 4.37001 1.72986 4.13238C1.58919 3.89475 1.28252 3.81615 1.0449 3.95682L1.55431 4.81735ZM3.05292 3.13917C2.78414 3.2025 2.61758 3.47172 2.68091 3.74051C2.74423 4.00929 3.01346 4.17585 3.28225 4.11252L3.05292 3.13917ZM5.33867 4.30418C5.58722 4.42451 5.88625 4.32056 6.00657 4.07201C6.1269 3.82346 6.02295 3.52443 5.7744 3.40411L5.33867 4.30418ZM8.26236 4.76956C8.00366 4.67296 7.71564 4.80436 7.61903 5.06305C7.52243 5.32174 7.65383 5.60977 7.91252 5.70637L8.26236 4.76956ZM11.0376 5.76033C11.3008 5.67664 11.4463 5.39547 11.3626 5.13231C11.2789 4.86916 10.9977 4.72367 10.7346 4.80735L11.0376 5.76033ZM13.2591 3.63357C13.0013 3.73236 12.8723 4.02148 12.9711 4.27935C13.0699 4.53722 13.359 4.66618 13.6169 4.56739L13.2591 3.63357ZM15.7195 4.40518C15.9925 4.44679 16.2475 4.25921 16.2892 3.98622C16.3308 3.71323 16.1432 3.4582 15.8702 3.41659L15.7195 4.40518ZM17.8913 4.00633C17.6403 3.8913 17.3435 4.00158 17.2285 4.25262C17.1135 4.50367 17.2237 4.80043 17.4748 4.91545L17.8913 4.00633ZM0.884073 5.32014C0.971894 5.21478 1.19868 5.02787 1.55431 4.81735L1.0449 3.95682C0.656864 4.18653 0.313464 4.44288 0.115927 4.67986L0.884073 5.32014ZM3.28225 4.11252C3.58793 4.0405 3.88816 4 4.16949 4V3C3.79512 3 3.41661 3.05349 3.05292 3.13917L3.28225 4.11252ZM4.16949 4C4.57161 4 4.94577 4.11398 5.33867 4.30418L5.7744 3.40411C5.29803 3.1735 4.77155 3 4.16949 3V4ZM7.91252 5.70637C8.38576 5.88309 8.90865 6 9.5 6V5C9.04561 5 8.64136 4.91109 8.26236 4.76956L7.91252 5.70637ZM9.5 6C10.0768 6 10.581 5.90553 11.0376 5.76033L10.7346 4.80735C10.3651 4.92486 9.96313 5 9.5 5V6ZM13.6169 4.56739C13.9907 4.42419 14.375 4.33333 14.8125 4.33333V3.33333C14.2271 3.33333 13.7206 3.45681 13.2591 3.63357L13.6169 4.56739ZM14.8125 4.33333C15.1123 4.33333 15.4183 4.35927 15.7195 4.40518L15.8702 3.41659C15.5257 3.36408 15.169 3.33333 14.8125 3.33333V4.33333ZM17.4748 4.91545C17.8536 5.08902 18.0529 5.24129 18.1092 5.31185L18.8908 4.68815C18.6798 4.42366 18.2956 4.19156 17.8913 4.00633L17.4748 4.91545Z" fill="#D95319"/>
<rect x="0.5" y="0.5" width="18" height="14" stroke="var(--mw-icon-border-default-gray, #616161)" stroke-linejoin="round"/>

</svg>
