<svg width="20" height="16" viewBox="0 0 20 16" fill="none" xmlns="http://www.w3.org/2000/svg">
<path d="M10.5 4.5H18.5V11.5H10.5V4.5Z" fill="#BFBFBF" stroke="var(--mw-icon-border-default-gray, #616161)" stroke-linejoin="round"/>
<path d="M3.5 13.5H5.5V15.5H3.5V13.5Z" fill="var(--mw-icon-background-default-white, white)" stroke="var(--mw-icon-border-default-gray, #616161)" stroke-linejoin="round"/>
<path d="M9 12V11.7704C8.0146 11.6979 7.83066 11.5166 7.83066 10.6586V5.37764C7.83066 4.44713 8.02774 4.30212 9 4.22961V4H0V4.22961C1.01168 4.30212 1.16934 4.43505 1.16934 5.37764V10.5257C1.16934 11.565 1.02482 11.71 0 11.7704V12H3.66569L3.65255 11.7704C2.68029 11.7221 2.50949 11.5166 2.50949 10.6344V4.85801C2.50949 4.53172 2.64088 4.45921 2.98248 4.45921H6.01752C6.41168 4.45921 6.49051 4.56798 6.49051 4.89426V10.5015C6.49051 11.5166 6.35912 11.71 5.33431 11.7704V12H9Z" fill="var(--mw-icon-object-primary, #616160)"/>

</svg>
