<svg width="20" height="16" viewBox="0 0 20 16" fill="none" xmlns="http://www.w3.org/2000/svg">
<rect x="0.5" y="0.5" width="18" height="14" fill="var(--mw-icon-background-default-white, white)"/>
<path d="M18.5 14.5H0.5V9L3 6.5H8L13.5 10.5L18.5 11.5V14.5Z" fill="#EDB120"/>
<path d="M1 7.90053C1.5313 7.90053 2.39301 7.56003 3 6.96866C3.63269 6.35226 4 5.48398 4 5.50024C4 5.5321 4.88727 7.00029 6 7.00024C7.11273 7.0002 7.5 5.50024 7.5 5.50024C8.46666 8.61955 11.1277 11.1577 18 11.1577" stroke="#D95319" stroke-width="2" stroke-linejoin="round"/>
<path d="M1 6.77344C2.08511 6.77344 3.53192 5.83333 4.35304 3C4.61702 4.33333 4.96133 5.59646 6.07407 5.59642C7.1868 5.59638 7.80993 3.46735 7.80993 3.46735C8.41489 6.66667 10.9141 10 18 10" stroke="#0072BD" stroke-linejoin="round"/>
<rect x="0.5" y="0.5" width="18" height="14" stroke="var(--mw-icon-border-default-gray, #616161)" stroke-linejoin="round"/>

</svg>
