<svg width="20" height="16" viewBox="0 0 20 16" fill="none" xmlns="http://www.w3.org/2000/svg">
<rect x="0.5" y="0.5" width="18" height="14" fill="var(--mw-icon-background-default-white, white)"/>
<path d="M2.0877 4.79009L1.19109 5.71776C1.11261 5.79896 0.994878 5.82864 0.88728 5.79436C0.695651 5.7333 0.5 5.87631 0.5 6.07743V14.5H18.5V9.04113C18.5 8.83108 18.3297 8.66079 18.1197 8.66079C17.9371 8.66079 17.7803 8.53107 17.7461 8.35174L17.5165 7.14849C17.4824 6.96997 17.3784 6.81249 17.2275 6.71112C16.9168 6.50226 16.4957 6.58362 16.2851 6.89321L15.4557 8.11233C15.362 8.25011 15.2353 8.36229 15.0872 8.43866L14.3032 8.84295C14.1066 8.9443 13.9492 9.10794 13.8556 9.30827L12.8278 11.5069C12.6463 11.895 12.1859 12.064 11.7965 11.8855C11.6068 11.7986 11.4599 11.6392 11.3886 11.4431L11.2192 10.9772C11.1011 10.6525 10.731 10.4978 10.417 10.6417C10.1716 10.7542 9.88115 10.6862 9.71115 10.4766L7.83328 8.16028C7.48798 7.73437 6.86412 7.66593 6.4347 8.00685L5.92539 8.41121C5.64639 8.6327 5.2395 8.57965 5.02663 8.29401C4.9918 8.24726 4.95066 8.20557 4.90438 8.17012L4.45205 7.82354C4.31414 7.71789 4.12307 7.71585 3.98295 7.81855C3.7572 7.984 3.4358 7.86571 3.37118 7.59339L2.74895 4.97145C2.73268 4.90289 2.69818 4.84001 2.6491 4.78946C2.49536 4.63111 2.24108 4.63139 2.0877 4.79009Z" fill="#EDB120"/>
<path d="M0.5 5.4729H0.612948C0.899131 5.4729 1.1716 5.35029 1.3614 5.13609L2.08005 4.32505C2.2333 4.1521 2.50319 4.1518 2.65683 4.32441V4.32441C2.70093 4.37395 2.7315 4.43403 2.7456 4.49885L3.37875 7.40896C3.43793 7.681 3.76232 7.79614 3.97977 7.6223V7.6223C4.11918 7.51085 4.3178 7.51301 4.45475 7.62747L4.90811 8.00635C4.95191 8.04296 4.99046 8.08543 5.02266 8.13256V8.13256C5.23202 8.43898 5.66159 8.49465 5.94213 8.25171L6.39543 7.85916C6.83511 7.47841 7.5057 7.55178 7.85265 8.01857L9.71924 10.5299C9.88166 10.7484 10.1774 10.8189 10.421 10.6972V10.6972C10.7266 10.5444 11.0967 10.6977 11.2047 11.0218L11.4007 11.6097C11.4643 11.8005 11.601 11.9582 11.7809 12.0481V12.0481C12.171 12.2432 12.6449 12.0696 12.8167 11.6686L13.8665 9.21918C13.9531 9.01714 14.1038 8.84926 14.2954 8.7415L15.09 8.2946C15.2362 8.21234 15.3594 8.09458 15.4483 7.95219L16.2847 6.61095C16.4904 6.28119 16.9331 6.19592 17.2465 6.4257V6.4257C17.3856 6.52766 17.4798 6.67947 17.5096 6.84935L17.6853 7.85387C17.7545 8.24967 18.0982 8.53845 18.5 8.53845V8.53845" stroke="#0072BD"/>
<path d="M12.8623 4.05943C12.8623 4.40096 12.7897 4.67486 12.6444 4.88115C12.5003 5.08607 12.3053 5.18852 12.0593 5.18852C11.8502 5.18852 11.6813 5.11066 11.5526 4.95492V6H11V2.93033H11.5124L11.5315 3.14754C11.6654 2.97541 11.84 2.88934 12.0554 2.88934C12.3104 2.88934 12.5086 2.99044 12.6501 3.19262C12.7916 3.39481 12.8623 3.6735 12.8623 4.02869V4.05943ZM12.3098 4.01639C12.3098 3.81011 12.2753 3.65096 12.2065 3.53893C12.1389 3.42691 12.0402 3.3709 11.9101 3.3709C11.7368 3.3709 11.6176 3.44194 11.5526 3.58402V4.4918C11.6201 4.63798 11.7406 4.71107 11.914 4.71107C12.1778 4.71107 12.3098 4.47951 12.3098 4.01639Z" fill="var(--mw-icon-glyph-content-gray, #616162)"/>
<path d="M14.327 4.53484C14.327 4.46243 14.2932 4.40574 14.2256 4.36475C14.1593 4.3224 14.0523 4.28484 13.9044 4.25205C13.4124 4.14139 13.1663 3.91735 13.1663 3.57992C13.1663 3.3832 13.2422 3.21926 13.3939 3.08811C13.5468 2.9556 13.7463 2.88934 13.9924 2.88934C14.2549 2.88934 14.4646 2.9556 14.6214 3.08811C14.7795 3.22063 14.8585 3.39276 14.8585 3.60451H14.3059C14.3059 3.51981 14.2804 3.45014 14.2294 3.39549C14.1785 3.33948 14.0988 3.31148 13.9904 3.31148C13.8974 3.31148 13.8254 3.33402 13.7744 3.3791C13.7234 3.42418 13.6979 3.48156 13.6979 3.55123C13.6979 3.6168 13.7266 3.67008 13.7839 3.71107C13.8426 3.75068 13.9407 3.78552 14.0784 3.81557C14.2161 3.84426 14.3321 3.87705 14.4264 3.91393C14.7183 4.02869 14.8642 4.22746 14.8642 4.51025C14.8642 4.71243 14.7833 4.87637 14.6214 5.00205C14.4595 5.12637 14.2505 5.18852 13.9943 5.18852C13.8209 5.18852 13.6667 5.15574 13.5315 5.09016C13.3977 5.02322 13.2925 4.93238 13.2161 4.81762C13.1396 4.7015 13.1013 4.5765 13.1013 4.44262H13.6252C13.6303 4.54781 13.6667 4.62842 13.7342 4.68443C13.8018 4.74044 13.8923 4.76844 14.0057 4.76844C14.1115 4.76844 14.1912 4.74727 14.2447 4.70492C14.2996 4.6612 14.327 4.60451 14.327 4.53484Z" fill="var(--mw-icon-glyph-content-gray, #616162)"/>
<path d="M15.1358 4.02254C15.1358 3.67691 15.2078 3.40164 15.3518 3.19672C15.4971 2.9918 15.6953 2.88934 15.9465 2.88934C16.1479 2.88934 16.3142 2.96995 16.4455 3.13115V2H17V5.14754H16.501L16.4742 4.91189C16.3365 5.09631 16.1593 5.18852 15.9426 5.18852C15.6992 5.18852 15.5035 5.08607 15.3556 4.88115C15.2091 4.67486 15.1358 4.38866 15.1358 4.02254ZM15.6883 4.06557C15.6883 4.27322 15.7221 4.43238 15.7897 4.54303C15.8572 4.65369 15.9554 4.70902 16.0841 4.70902C16.2549 4.70902 16.3754 4.63183 16.4455 4.47746V3.60246C16.3767 3.44809 16.2575 3.3709 16.088 3.3709C15.8215 3.3709 15.6883 3.60246 15.6883 4.06557Z" fill="var(--mw-icon-glyph-content-gray, #616162)"/>
<rect x="0.5" y="0.5" width="18" height="14" stroke="var(--mw-icon-border-default-gray, #616161)" stroke-linejoin="round"/>

</svg>
