<svg width="20" height="16" viewBox="0 0 20 16" fill="none" xmlns="http://www.w3.org/2000/svg">
<rect x="0.5" y="0.5" width="18" height="14" fill="var(--mw-icon-background-default-white, #FFFFFF)"/>
<path d="M0.5 5.4729H0.612948C0.899131 5.4729 1.1716 5.35029 1.3614 5.13609L2.08005 4.32505C2.2333 4.1521 2.50319 4.1518 2.65683 4.32441V4.32441C2.70093 4.37395 2.7315 4.43403 2.7456 4.49885L3.37875 7.40896C3.43793 7.681 3.76232 7.79614 3.97977 7.6223V7.6223C4.11918 7.51085 4.3178 7.51301 4.45475 7.62747L4.90811 8.00635C4.95191 8.04296 4.99046 8.08543 5.02266 8.13256V8.13256C5.23202 8.43898 5.66159 8.49465 5.94213 8.25171L6.39543 7.85916C6.83511 7.47841 7.5057 7.55178 7.85265 8.01857L9.71924 10.5299C9.88166 10.7484 10.1774 10.8189 10.421 10.6972V10.6972C10.7266 10.5444 11.0967 10.6977 11.2047 11.0218L11.4007 11.6097C11.4643 11.8005 11.601 11.9582 11.7809 12.0481V12.0481C12.171 12.2432 12.6449 12.0696 12.8167 11.6686L13.8665 9.21918C13.9531 9.01714 14.1038 8.84926 14.2954 8.7415L15.09 8.2946C15.2362 8.21234 15.3594 8.09458 15.4483 7.95219L16.2847 6.61095C16.4904 6.28119 16.9331 6.19592 17.2465 6.4257V6.4257C17.3856 6.52766 17.4798 6.67947 17.5096 6.84935L17.6853 7.85387C17.7545 8.24967 18.0982 8.53845 18.5 8.53845V8.53845" stroke="#0072BD"/>
<path d="M10 1H18V14H10V1Z" fill="#37C897"/>
<path d="M11 4H17V5H11V4Z" fill="#ABC739"/>
<path d="M11 10H16V11H12V10H11Z" fill="#ABC739"/>
<path d="M11 5H17V6H12V5H11Z" fill="#ABC739"/>
<path d="M11 11H16V12H11V11Z" fill="#ABC739"/>
<path d="M13 3H18V4H13V3Z" fill="#ABC739"/>
<path d="M11 9H17V10H11V9Z" fill="#ABC739"/>
<path d="M12 6H17V7H11V6H12Z" fill="#ABC739"/>
<path d="M11 12H14.5945V13H11V12Z" fill="#ABC739"/>
<path d="M12 7H16V8H12V7Z" fill="#ABC739"/>
<path d="M11 13H14.0202V14H11V13Z" fill="#ABC739"/>
<path d="M12 7H16V8H12V7Z" fill="#ABC739"/>
<path d="M12 8H16V9H11V8H12Z" fill="#ABC739"/>
<path d="M12 2H18V3H12V2Z" fill="#ABC739"/>
<path d="M14 1H18V2H12H14V1Z" fill="#ABC739"/>
<path fill-rule="evenodd" clip-rule="evenodd" d="M18 1C18 1.42188 18 1.5 18 2C14.9503 5.53373 14.0136 11.3701 13.5 14.5H11.5C11.9858 11.5396 13.0849 5.26259 16 1H18Z" fill="#FEC338"/>
<path d="M12.2972 14.5C12.822 11.3018 14.1806 4.34619 17.5 0.5" stroke="#F9FB15"/>
<rect x="0.5" y="0.5" width="18" height="14" stroke="var(--mw-icon-border-default-gray, #616161)" stroke-linejoin="round"/>
</svg>
