<svg width="20" height="16" viewBox="0 0 20 16" fill="none" xmlns="http://www.w3.org/2000/svg">
<rect x="0.500275" y="0.5" width="18" height="14" fill="var(--mw-icon-background-default-white, #FFFFFF)"/>
<path fill-rule="evenodd" clip-rule="evenodd" d="M12.0003 14C6.47743 14 2.00027 11.0898 2.00027 7.49997C2.00027 3.91012 6.47743 0.999969 12.0003 0.999969V14Z" fill="#FFD19E"/>
<path d="M12.5003 14.5C6.42514 14.5 1.50027 11.0899 1.50027 7.5C1.50027 3.91015 6.42514 0.5 12.5003 0.5" stroke="#D95319"/>
<line x1="0.000274658" y1="7.5" x2="2.00027" y2="7.5" stroke="var(--mw-icon-background-default-dark-gray, #A6A6A6)"/>
<line x1="4.00027" y1="7.5" x2="6.00027" y2="7.5" stroke="var(--mw-icon-background-default-dark-gray, #A6A6A6)"/>
<line x1="8.00027" y1="7.5" x2="10.0003" y2="7.5" stroke="var(--mw-icon-background-default-dark-gray, #A6A6A6)"/>
<line x1="12.0003" y1="7.5" x2="14.0003" y2="7.5" stroke="var(--mw-icon-background-default-dark-gray, #A6A6A6)"/>
<line x1="16.0003" y1="7.5" x2="18.0003" y2="7.5" stroke="var(--mw-icon-background-default-dark-gray, #A6A6A6)"/>
<line x1="12.5003" y1="1" x2="12.5003" y2="3" stroke="var(--mw-icon-background-default-dark-gray, #A6A6A6)"/>
<line x1="12.5003" y1="5" x2="12.5003" y2="7" stroke="var(--mw-icon-background-default-dark-gray, #A6A6A6)"/>
<line x1="12.5003" y1="9" x2="12.5003" y2="11" stroke="var(--mw-icon-background-default-dark-gray, #A6A6A6)"/>
<line x1="12.5003" y1="13" x2="12.5003" y2="15" stroke="var(--mw-icon-background-default-dark-gray, #A6A6A6)"/>
<path d="M4.00027 6H3.00027V7H4.00027V6Z" fill="#0072BD"/>
<path d="M5.00027 7H4.00027V8H5.00027V7Z" fill="#0072BD"/>
<path d="M6.00027 6H5.00027V7H6.00027V6Z" fill="#0072BD"/>
<path d="M4.00027 8H3.00027V9H4.00027V8Z" fill="#0072BD"/>
<path d="M6.00027 8H5.00027V9H6.00027V8Z" fill="#0072BD"/>
<path d="M8.00027 3H7.00027V4H8.00027V3Z" fill="#0072BD"/>
<path d="M9.00027 4H8.00027V5H9.00027V4Z" fill="#0072BD"/>
<path d="M10.0003 3H9.00027V4H10.0003V3Z" fill="#0072BD"/>
<path d="M8.00027 5H7.00027V6H8.00027V5Z" fill="#0072BD"/>
<path d="M10.0003 5H9.00027V6H10.0003V5Z" fill="#0072BD"/>
<path d="M8.00027 9H7.00027V10H8.00027V9Z" fill="#0072BD"/>
<path d="M9.00027 10H8.00027V11H9.00027V10Z" fill="#0072BD"/>
<path d="M10.0003 9H9.00027V10H10.0003V9Z" fill="#0072BD"/>
<path d="M8.00027 11H7.00027V12H8.00027V11Z" fill="#0072BD"/>
<path d="M10.0003 11H9.00027V12H10.0003V11Z" fill="#0072BD"/>
<rect x="0.500275" y="0.5" width="18" height="14" stroke="var(--mw-icon-border-default-gray, #616161)" stroke-linejoin="round"/>
</svg>
