<svg width="21" height="16" viewBox="0 0 21 16" fill="none" xmlns="http://www.w3.org/2000/svg">
<path d="M10.5 1L3.5 5V10.5L10.5 14.5L17.5 10.5V5L10.5 1Z" fill="var(--mw-icon-background-default-white, white)"/>
<path d="M10.502 6.497L10.5041 1L17.3268 4.93223V10.4116L10.502 6.497Z" fill="var(--mw-icon-background-default-light-gray, #F5F5F5)"/>
<path d="M10.502 6.497L10.4998 1L3.67706 4.93724L3.67706 10.4116L10.502 6.497Z" fill="#E6E6E6"/>
<path d="M17.5038 10.2725V5.0611L10.5019 1.02246L3.5 5.00022" stroke="var(--mw-icon-background-default-dark-gray, #A6A6A6)" stroke-linecap="round" stroke-linejoin="round"/>
<path d="M3.5 5V10.3281L10.5 14.3697L17.5 10.33" stroke="var(--mw-icon-border-default-gray, #616161)" stroke-linecap="round" stroke-linejoin="round"/>
<path d="M10.5 4C10.7881 3.83167 10.8149 4.01816 11.1375 3.91308C13.102 3.27319 14.6261 3.70357 15.7802 4.54329M7 9C7.54653 7.31351 7.88095 6.46415 9.00715 5.29478" stroke="#0072BD" stroke-linecap="square"/>
<path d="M5.58716 7.66943L6.49225 9.88188L9.02874 9.08773" stroke="#0072BD"/>
<path d="M10.6504 2.67383L10.19 4.34418L12.9616 5.10548" stroke="#0072BD"/>

</svg>
