<svg width="20" height="16" viewBox="0 0 20 16" fill="none" xmlns="http://www.w3.org/2000/svg">
<rect x="0.500488" y="2.5" width="17" height="11" rx="1" fill="var(--mw-icon-glyph-content-green, #008014)"/>
<path d="M2.00049 13.5L6.00049 9.5H7.00049L8.50049 11.5H11.5005L13.0005 9.5V8.5H11.0005H17.0005M7.50049 6.5V4.5M9.50049 6.5V4.5" stroke="#3AC831" stroke-linecap="round" stroke-linejoin="round"/>
<rect x="0.500488" y="2.5" width="17" height="11" rx="1" stroke="#013E0A"/>
<path d="M4.00049 4H12.0005V5H4.00049V4Z" fill="var(--mw-icon-glyph-content-dark-gray, #333333)"/>
<path d="M2.00049 8H3.00049V10H2.00049V8Z" fill="var(--mw-icon-glyph-content-dark-gray, #333333)"/>
<path d="M11.0005 12H12.0005V14H11.0005V12Z" fill="var(--mw-icon-glyph-content-dark-gray, #333333)"/>
<path d="M12.0005 8H14.0005V10H12.0005V8Z" fill="var(--mw-icon-glyph-content-dark-gray, #333333)"/>
<rect x="7.50049" y="6.5" width="3" height="3" fill="#BFBFBF" stroke="#7D7D7D" stroke-linejoin="round"/>
<rect x="4.00049" y="6" width="2" height="2" fill="var(--mw-icon-background-default-medium-gray, #D9D9D9)"/>
<path d="M15.0005 4H19.0005V6H15.0005V4Z" fill="#BFBFBF"/>
<path d="M16.0005 7H19.0005V9H16.0005V7Z" fill="#BFBFBF"/>
<path d="M16.0005 10H19.0005V12H16.0005V10Z" fill="#BFBFBF"/>
<path d="M4.00049 12H6.00049V14H4.00049V12Z" fill="#BFBFBF"/>
<path d="M7.00049 12H8.00049V13H7.00049V12Z" fill="#BFBFBF"/>
<path d="M9.00049 12H10.0005V13H9.00049V12Z" fill="#BFBFBF"/>
<path d="M3.00049 4.5C3.00049 4.77614 2.77663 5 2.50049 5C2.22435 5 2.00049 4.77614 2.00049 4.5C2.00049 4.22386 2.22435 4 2.50049 4C2.77663 4 3.00049 4.22386 3.00049 4.5Z" fill="#FFD60A"/>
<path d="M3.00049 11.5C3.00049 11.7761 2.77663 12 2.50049 12C2.22435 12 2.00049 11.7761 2.00049 11.5C2.00049 11.2239 2.22435 11 2.50049 11C2.77663 11 3.00049 11.2239 3.00049 11.5Z" fill="#FFD60A"/>
<path d="M14.0005 11.5C14.0005 11.7761 13.7766 12 13.5005 12C13.2243 12 13.0005 11.7761 13.0005 11.5C13.0005 11.2239 13.2243 11 13.5005 11C13.7766 11 14.0005 11.2239 14.0005 11.5Z" fill="#FFD60A"/>
<path d="M14.0005 4.5C14.0005 4.77614 13.7766 5 13.5005 5C13.2243 5 13.0005 4.77614 13.0005 4.5C13.0005 4.22386 13.2243 4 13.5005 4C13.7766 4 14.0005 4.22386 14.0005 4.5Z" fill="#FFD60A"/>
<path d="M7.00049 13H8.00049V14H7.00049V13Z" fill="#FFD60A"/>
<path d="M9.00049 13H10.0005V14H9.00049V13Z" fill="#FFD60A"/>
</svg>
