<svg width="20" height="16" viewBox="0 0 20 16" fill="none" xmlns="http://www.w3.org/2000/svg">
<rect x="0.5" y="0.547607" width="18" height="14" fill="var(--mw-icon-background-default-white, #FFFFFF)"/>
<rect x="0.5" y="0.5" width="18" height="14" stroke="var(--mw-icon-border-default-gray, #616161)" stroke-linejoin="round"/>
<path d="M5 3.5C5 4.32843 4.32843 5 3.5 5C2.67157 5 2 4.32843 2 3.5C2 2.67157 2.67157 2 3.5 2C4.32843 2 5 2.67157 5 3.5Z" fill="#0072BD"/>
<path d="M17 3.5C17 4.32843 16.3284 5 15.5 5C14.6716 5 14 4.32843 14 3.5C14 2.67157 14.6716 2 15.5 2C16.3284 2 17 2.67157 17 3.5Z" fill="#0072BD"/>
<path d="M17 11.5C17 12.3284 16.3284 13 15.5 13C14.6716 13 14 12.3284 14 11.5C14 10.6716 14.6716 10 15.5 10C16.3284 10 17 10.6716 17 11.5Z" fill="#0072BD"/>
<path d="M5 11.5C5 12.3284 4.32843 13 3.5 13C2.67157 13 2 12.3284 2 11.5C2 10.6716 2.67157 10 3.5 10C4.32843 10 5 10.6716 5 11.5Z" fill="#0072BD"/>
</svg>
