<svg width="20" height="16" viewBox="0 0 20 16" fill="none" xmlns="http://www.w3.org/2000/svg">
<path d="M9.5 1L2.5 5V10.5L9.5 14.5L16.5 10.5V5L9.5 1Z" fill="var(--mw-icon-background-default-white, #FFFFFF)"/>
<path d="M9.50195 6.497L9.50409 1L16.3268 4.93223V10.4116L9.50195 6.497Z" fill="var(--mw-icon-background-default-light-gray, #F5F5F5)"/>
<path d="M9.50195 6.497L9.49981 1L2.67706 4.93724L2.67706 10.4116L9.50195 6.497Z" fill="#E6E6E6"/>
<path d="M16.5038 10.2725V5.0611L9.5019 1.02246L2.5 5.00022" stroke="var(--mw-icon-background-default-dark-gray, #A6A6A6)" stroke-linecap="round" stroke-linejoin="round"/>
<path d="M2.5 5V10.3281L9.5 14.3697L16.5 10.33" stroke="var(--mw-icon-border-default-gray, #616161)" stroke-linecap="round" stroke-linejoin="round"/>
<path d="M13.9603 7.21045C13.6721 9.01633 11.8465 10.4999 9.5 10.4999C7.15353 10.4999 5.32787 9.01633 5.03971 7.21045H13.9603Z" fill="#EDB120" stroke="#745A26"/>
<ellipse cx="9.49264" cy="6.48367" rx="4.53903" ry="1.98367" fill="#FFDB9A" stroke="#745A26" stroke-linejoin="round"/>
</svg>
