<svg width="20" height="16" viewBox="0 0 20 16" fill="none" xmlns="http://www.w3.org/2000/svg">
<path d="M9.5 1L2.5 5V10.5L9.5 14.5L16.5 10.5V5L9.5 1Z" fill="var(--mw-icon-background-default-white, #FFFFFF)"/>
<path d="M9.50195 6.497L9.50409 1L16.3268 4.93223V10.4116L9.50195 6.497Z" fill="var(--mw-icon-background-default-light-gray, #F5F5F5)"/>
<path d="M9.50195 6.497L9.49981 1L2.67706 4.93724L2.67706 10.4116L9.50195 6.497Z" fill="#E6E6E6"/>
<path d="M16.5038 10.2725V5.0611L9.5019 1.02246L2.5 5.00022" stroke="var(--mw-icon-background-default-dark-gray, #A6A6A6)" stroke-linecap="round" stroke-linejoin="round"/>
<path d="M2.5 5V10.3281L9.5 14.3697L16.5 10.33" stroke="var(--mw-icon-border-default-gray, #616161)" stroke-linecap="round" stroke-linejoin="round"/>
<path d="M14.6592 6.77533C14.437 7.6417 13.5203 10.1133 11.7425 10.7477C10.7951 11.0857 10.095 11.0825 9.65922 10.7477C8.5481 10.0552 5.83474 8.42291 5.15918 8C4.48362 7.57709 4.67403 6.4229 4.65922 6.20264L6.79952 7.55265C6.87621 7.54015 7.33053 7.41102 7.5481 7.34801C8.70366 7.0134 9.88884 5.01321 10.2592 4L14.6592 6.77533Z" fill="#EDB120"/>
<path d="M6.79952 7.55265L4.65922 6.20264C4.67403 6.4229 4.48362 7.57709 5.15918 8C5.83474 8.42291 8.5481 10.0552 9.65922 10.7477M6.79952 7.55265L9.05922 8.97797C9.13533 9.28661 9.2773 10.4542 9.65922 10.7477M6.79952 7.55265C6.87621 7.54015 7.33053 7.41102 7.5481 7.34801C8.70366 7.0134 9.88884 5.01321 10.2592 4L14.6592 6.77533C14.437 7.6417 13.5203 10.1133 11.7425 10.7477C10.7951 11.0857 10.095 11.0825 9.65922 10.7477" stroke="#745A26" stroke-linejoin="round"/>
<path d="M5.375 7.55859C5.21094 7.38672 5.15234 7.09766 5.15234 7.09766L8.66787 9.21422V9.57285C8.66787 9.57285 5.43552 7.622 5.375 7.55859Z" fill="#B3882A"/>
</svg>
