<svg width="21" height="16" viewBox="0 0 21 16" fill="none" xmlns="http://www.w3.org/2000/svg">
<path d="M10.5 1L3.5 5V10.5L10.5 14.5L17.5 10.5V5L10.5 1Z" fill="var(--mw-icon-background-default-white, white)"/>
<path d="M10.502 6.497L10.5041 1L17.3268 4.93223V10.4116L10.502 6.497Z" fill="var(--mw-icon-background-default-light-gray, #F5F5F5)"/>
<path d="M10.502 6.497L10.4998 1L3.67706 4.93724L3.67706 10.4116L10.502 6.497Z" fill="#E6E6E6"/>
<path d="M17.5038 10.2722V5.06089L10.5019 1.02225L3.5 5" stroke="var(--mw-icon-background-default-dark-gray, #A6A6A6)" stroke-linecap="round" stroke-linejoin="round"/>
<path d="M3.5 5V10.3281L10.5 14.3697L17.5 10.33" stroke="var(--mw-icon-border-default-gray, #616161)" stroke-linecap="round" stroke-linejoin="round"/>
<path d="M5.5 8.79412L10.5 11.7353L15.5 8.79412L10.5 6L5.5 8.79412Z" fill="var(--mw-icon-background-default-medium-gray, #D9D9D9)" stroke="var(--mw-icon-border-default-gray, #616161)" stroke-linejoin="round"/>
<circle cx="7.5" cy="6.5" r="1.5" fill="#0072BD"/>
<path d="M7.5 6.50937L7.5 9" stroke="#0072BD"/>
<circle cx="12.5" cy="6.5" r="1.5" fill="#0072BD"/>
<path d="M12.5 6.50937L12.5 10" stroke="#0072BD"/>
<circle cx="10.5" cy="3.5" r="1.5" fill="#0072BD"/>
<path d="M10.5 4L10.5 9" stroke="#0072BD"/>

</svg>
