<svg width="20" height="16" viewBox="0 0 20 16" fill="none" xmlns="http://www.w3.org/2000/svg">
<path d="M9.5 1L2.5 5V10.5L9.5 14.5L16.5 10.5V5L9.5 1Z" fill="var(--mw-icon-background-default-white, #FFFFFF)"/>
<path d="M9.50195 6.497L9.50409 1L16.3268 4.93223V10.4116L9.50195 6.497Z" fill="white"/>
<path d="M9.50195 6.497L9.49981 1L2.67706 4.93724L2.67706 10.4116L9.50195 6.497Z" fill="#E6E6E6"/>
<path d="M16.5038 10.2722V5.06086L9.5019 1.02222L2.5 4.99997" stroke="var(--mw-icon-background-default-dark-gray, #A6A6A6)" stroke-linecap="round" stroke-linejoin="round"/>
<path d="M2.5 5V10.3281L9.5 14.3697L16.5 10.33" stroke="var(--mw-icon-border-default-gray, #616161)" stroke-linecap="round" stroke-linejoin="round"/>
<path d="M4.5 8.61829C5.95833 8.29481 8.5 8.3595 9.5 12.5" stroke="#1171BE" stroke-linecap="round"/>
<path d="M4.5 6.56556C5.98485 6.28125 10.8636 6.80397 11.5 10.5" stroke="#EDB120" stroke-linecap="round"/>
<path d="M8.5 5.57938C9.95833 5.2264 12.5625 5.91132 13.5 10.5" stroke="#8516D1" stroke-linecap="round"/>
<path d="M7.5 3.89232C7.83333 3.53158 8.63226 3.42266 9.5 3.553C10.8234 3.75179 13.8558 4.71095 14.5 7.5" stroke="#DD5400" stroke-linecap="round"/>
</svg>
