<svg width="20" height="16" viewBox="0 0 20 16" fill="none" xmlns="http://www.w3.org/2000/svg">
<rect x="0.5" y="0.5" width="18" height="14" fill="var(--mw-icon-background-default-white, #FFFFFF)"/>
<rect x="0.5" y="0.5" width="18" height="14" stroke="var(--mw-icon-border-default-gray, #616161)" stroke-linejoin="round"/>
<path d="M4.5 7.51205C4.5 6 6 5.5 7 5.5C8 5.5 8.9255 5.77649 9.5 7.5C10 9 11 9.5 12 9.5C13 9.5 14.5 9 14.5 7.51205" stroke="var(--mw-icon-glyph-content-gray, #616162)" stroke-linecap="square"/>
<path d="M4.5 10.512C4.5 9 6 8.5 7 8.5C8 8.5 8.9255 8.77649 9.5 10.5C10 12 11 12.5 12 12.5C13 12.5 14.5 12 14.5 10.512" stroke="var(--mw-icon-glyph-content-gray, #616162)" stroke-linecap="square"/>
<path d="M4.5 4.51205C4.5 3 6 2.5 7 2.5C8 2.5 8.9255 2.77649 9.5 4.5C10 6 11 6.5 12 6.5C13 6.5 14.5 6 14.5 4.51205" stroke="var(--mw-icon-glyph-content-gray, #616162)" stroke-linecap="square"/>
</svg>
