<svg width="20" height="16" viewBox="0 0 20 16" fill="none" xmlns="http://www.w3.org/2000/svg">
<rect x="0.5" y="0.5" width="18" height="14" fill="var(--mw-icon-background-default-white, #FFFFFF)"/>
<rect x="0.5" y="0.5" width="18" height="14" stroke="var(--mw-icon-border-default-gray, #616161)" stroke-linejoin="round"/>
<path d="M3.00002 3.5L5.5 3.5L6 2.5L7 4.52632L8 2.5L9 4.5L10 2.5L11 4.5L11.5 3.5L15.5 3.5L15.5 7.5L15.5 7.50244L12.5 7.50244C12.5 6.80563 12 5.50006 11 5.5C10.3674 5.49996 9.84085 5.74003 9.43671 6.0988M9.43671 6.0988C9.01603 5.74306 8.51123 5.49994 8 5.49994C6.5 5.49994 6.49998 6.9225 6.49998 7.50001L3.5 7.49989L3.5 11.5L8.5 11.5M9.43671 6.0988C10.061 6.62668 10.5 7.40253 10.5 7.99994C10.5 8.99994 9.92328 9.49994 9.5 9.49994C9.07672 9.49994 8.5 8.99999 8.5 8.10408C8.5 7.44168 8.8307 6.63679 9.43671 6.0988ZM8.5 11.5L8.49999 13M8.5 11.5L8.49998 10M10.5 10L10.5 11.5M10.5 11.5L10.5 13M10.5 11.5L16 11.5" stroke="var(--mw-icon-glyph-content-gray, #616162)" stroke-linejoin="round"/>
</svg>
