<svg width="20" height="16" viewBox="0 0 20 16" fill="none" xmlns="http://www.w3.org/2000/svg">
<rect x="0.5" y="0.5" width="18" height="14" fill="var(--mw-icon-background-default-white, #FFFFFF)"/>
<rect x="0.5" y="0.5" width="18" height="14" stroke="var(--mw-icon-border-default-gray, #616161)" stroke-linejoin="round"/>
<path d="M3.5 7.5V7C3.32176 7 3.15701 7.09488 3.06754 7.24904C2.97808 7.40319 2.97745 7.59332 3.06588 7.74807L3.5 7.5ZM7.5 7.5L7.93412 7.74807C8.02255 7.59332 8.02192 7.40319 7.93246 7.24904C7.84299 7.09488 7.67824 7 7.5 7V7.5ZM5.5 11L5.06588 11.2481L5.5 12.0078L5.93412 11.2481L5.5 11ZM7.06588 7.25193L5.06588 10.7519L5.93412 11.2481L7.93412 7.74807L7.06588 7.25193ZM5.93412 10.7519L3.93412 7.25193L3.06588 7.74807L5.06588 11.2481L5.93412 10.7519ZM3.5 8H5.5V7H3.5V8ZM5.5 8H7.5V7H5.5V8ZM5 7.5V13H6V7.5H5Z" fill="var(--mw-icon-glyph-content-gray, #616162)"/>
<path d="M5 4.5C6.14285 4.5 6.5 5 6.5 6" stroke="var(--mw-icon-glyph-content-dark-gray, #333333)"/>
<path d="M8.5 4.5C8.5 4.23736 8.44827 3.97728 8.34776 3.73463C8.24725 3.49198 8.09993 3.2715 7.91421 3.08579C7.7285 2.90007 7.50802 2.75275 7.26537 2.65224C7.02272 2.55173 6.76264 2.5 6.5 2.5" stroke="var(--mw-icon-glyph-content-gray, #616162)" stroke-linecap="square"/>
<path d="M11.5 7.5V7C11.3218 7 11.157 7.09488 11.0675 7.24904C10.9781 7.40319 10.9774 7.59332 11.0659 7.74807L11.5 7.5ZM15.5 7.5L15.9341 7.74807C16.0226 7.59332 16.0219 7.40319 15.9325 7.24904C15.843 7.09488 15.6782 7 15.5 7V7.5ZM13.5 11L13.0659 11.2481L13.5 12.0078L13.9341 11.2481L13.5 11ZM15.0659 7.25193L13.0659 10.7519L13.9341 11.2481L15.9341 7.74807L15.0659 7.25193ZM13.9341 10.7519L11.9341 7.25193L11.0659 7.74807L13.0659 11.2481L13.9341 10.7519ZM11.5 8H13.5V7H11.5V8ZM13.5 8H15.5V7H13.5V8ZM13 7.5V13H14V7.5H13Z" fill="var(--mw-icon-glyph-content-gray, #616162)"/>
<path d="M11 3.5C12.1429 3.5 12.5 3 12.5 2" stroke="var(--mw-icon-glyph-content-dark-gray, #333333)"/>
<path d="M14.5 3.5C14.5 3.76264 14.4483 4.02272 14.3478 4.26537C14.2472 4.50802 14.0999 4.7285 13.9142 4.91421C13.7285 5.09993 13.508 5.24725 13.2654 5.34776C13.0227 5.44827 12.7626 5.5 12.5 5.5" stroke="var(--mw-icon-glyph-content-gray, #616162)" stroke-linecap="square"/>
</svg>
