<svg width="20" height="16" viewBox="0 0 20 16" fill="none" xmlns="http://www.w3.org/2000/svg">
<path d="M9.5 1L2.5 5V10.5L9.5 14.5L16.5 10.5V5L9.5 1Z" fill="var(--mw-icon-background-default-white, #FFFFFF)"/>
<path d="M9.50195 6.497L9.50409 1L16.3268 4.93223V10.4116L9.50195 6.497Z" fill="var(--mw-icon-background-default-light-gray, #F5F5F5)"/>
<path d="M9.50195 6.497L9.49981 1L2.67706 4.93724L2.67706 10.4116L9.50195 6.497Z" fill="#E6E6E6"/>
<path d="M16.5038 10.2722V5.06086L9.5019 1.02222L2.5 4.99997" stroke="var(--mw-icon-background-default-dark-gray, #A6A6A6)" stroke-linecap="round" stroke-linejoin="round"/>
<path d="M2.5 5V10.3281L9.5 14.3697L16.5 10.33" stroke="var(--mw-icon-border-default-gray, #616161)" stroke-linecap="round" stroke-linejoin="round"/>
<path d="M11.2213 6.08324L12.2021 6.64242L10.1903 12.7807L9.1566 12.1105L11.2213 6.08324Z" fill="#EDB120"/>
<path d="M6.8017 8.63952L7.78248 9.19869L10.1903 12.7807L9.1566 12.1105L6.8017 8.63952Z" fill="#EDB120"/>
<path d="M7.7823 9.1975L6.80151 8.63833L8.81333 2.5L9.86746 3.1278L7.7823 9.1975Z" fill="#EDB120"/>
<path d="M12.2023 6.64094L11.2216 6.08176L8.81333 2.5L9.86746 3.1278L12.2023 6.64094Z" fill="#EDB120"/>
<path d="M10.1903 12.7807L9.1566 12.1105M10.1903 12.7807L12.2021 6.64242L11.2213 6.08324L9.1566 12.1105M10.1903 12.7807L7.78248 9.19869L6.8017 8.63952L9.1566 12.1105M8.81333 2.5L9.86746 3.1278M8.81333 2.5L6.80151 8.63833L7.7823 9.1975L9.86746 3.1278M8.81333 2.5L11.2216 6.08176L12.2023 6.64094L9.86746 3.1278" stroke="#745A26" stroke-linejoin="round"/>
<circle cx="9.5" cy="2.5" r="0.5" fill="var(--mw-icon-glyph-content-blue, #1656A8)"/>
</svg>
