<svg width="21" height="16" viewBox="0 0 21 16" fill="none" xmlns="http://www.w3.org/2000/svg">
<path d="M10.5 1L3.5 5V10.5L10.5 14.5L17.5 10.5V5L10.5 1Z" fill="var(--mw-icon-background-default-white, white)"/>
<path d="M10.502 6.497L10.5041 1L17.3268 4.93223V10.4116L10.502 6.497Z" fill="var(--mw-icon-background-default-light-gray, #F5F5F5)"/>
<path d="M10.502 6.497L10.4998 1L3.67706 4.93724L3.67706 10.4116L10.502 6.497Z" fill="#E6E6E6"/>
<path d="M17.5038 10.2725V5.0611L10.5019 1.02246L3.5 5.00022" stroke="var(--mw-icon-background-default-dark-gray, #A6A6A6)" stroke-linecap="round" stroke-linejoin="round"/>
<path d="M3.5 5V10.3281L10.5 14.3697L17.5 10.33" stroke="var(--mw-icon-border-default-gray, #616161)" stroke-linecap="round" stroke-linejoin="round"/>
<path d="M4.95996 7.71718L10.454 10.949L15.9481 7.71718L10.454 4.64697L4.95996 7.71718Z" stroke="#FEC338" stroke-linejoin="round"/>
<path d="M14.3385 8.67567C14.3385 8.67567 13.3392 7.10341 12.5216 6.94516C11.7039 6.7869 11.2891 7.73204 10.8188 7.52374C10.3484 7.31544 10.5132 3.59677 9.70518 3.50274C8.89714 3.40871 8.52124 5.76706 8.52124 5.76706" stroke="#37C897"/>
<path d="M12.2582 9.74205C12.2582 9.74205 11.0191 8.91177 10.3609 8.51793C9.70262 8.12408 8.0624 7.61649 7.61708 7.40411C7.17176 7.19172 6.44092 6.51025 6.44092 6.51025" stroke="#3E26A8"/>
<path d="M10.4541 10.9486L15.9482 7.7168" stroke="#FEC338" stroke-linejoin="round"/>
<path d="M13.4029 9.21015L10.454 10.9482L4.95996 7.71637L7.92576 6.06542" stroke="#4852F4" stroke-linejoin="round"/>

</svg>
