<svg width="21" height="16" viewBox="0 0 21 16" fill="none" xmlns="http://www.w3.org/2000/svg">
<rect x="0.642822" y="0.5" width="18" height="14" rx="1" fill="var(--mw-icon-background-default-white, #FFFFFF)"/>
<circle cx="7.54277" cy="7.79998" r="4.8" transform="rotate(180 7.54277 7.79998)" fill="var(--mw-icon-background-default-light-gray, #F5F5F5)" stroke="var(--mw-icon-glyph-content-gray, #616162)"/>
<circle cx="12.3428" cy="7.79998" r="4.8" transform="rotate(180 12.3428 7.79998)" fill="var(--mw-icon-background-default-selection, #B4DEFF)" stroke="var(--mw-icon-glyph-content-blue, #1656A8)"/>
<path fill-rule="evenodd" clip-rule="evenodd" d="M9.94277 3.64213C8.50804 4.47207 7.54276 6.0233 7.54276 7.79998C7.54276 9.57666 8.50804 11.1279 9.94277 11.9578C11.3775 11.1279 12.3428 9.57666 12.3428 7.79998C12.3428 6.0233 11.3775 4.47207 9.94277 3.64213Z" fill="var(--mw-icon-background-default-selection, #B4DEFF)"/>
<path d="M9.94277 3.64213L10.1931 3.20933L9.94277 3.0645L9.6924 3.20933L9.94277 3.64213ZM9.94277 11.9578L9.69241 12.3906L9.94277 12.5355L10.1931 12.3906L9.94277 11.9578ZM8.04276 7.79998C8.04276 6.209 8.90655 4.81918 10.1931 4.07493L9.6924 3.20933C8.10953 4.12497 7.04276 5.8376 7.04276 7.79998L8.04276 7.79998ZM10.1931 11.525C8.90655 10.7808 8.04276 9.39096 8.04276 7.79998L7.04276 7.79998C7.04276 9.76236 8.10953 11.475 9.69241 12.3906L10.1931 11.525ZM11.8428 7.79998C11.8428 9.39096 10.979 10.7808 9.69241 11.525L10.1931 12.3906C11.776 11.475 12.8428 9.76236 12.8428 7.79998L11.8428 7.79998ZM9.6924 4.07493C10.979 4.81918 11.8428 6.209 11.8428 7.79998L12.8428 7.79998C12.8428 5.8376 11.776 4.12497 10.1931 3.20933L9.6924 4.07493Z" fill="var(--mw-icon-glyph-content-blue, #1656A8)"/>
<rect x="0.642822" y="0.5" width="18" height="14" rx="1" stroke="var(--mw-icon-border-default-gray, #616161)"/>
</svg>
