<svg width="20" height="16" viewBox="0 0 20 16" fill="none" xmlns="http://www.w3.org/2000/svg">
<rect x="0.5" y="0.5" width="18" height="14" fill="var(--mw-icon-background-default-white, white)"/>
<path d="M3.49986 8C3.49986 10.7614 4.39529 13 5.49986 13C6.18985 13 6.79823 12.1265 7.15771 10.7977" stroke="#0072BD"/>
<path d="M7.5 8C7.5 4.68629 6.60457 2 5.5 2C4.39543 2 3.5 4.68629 3.5 8" stroke="#77AC30"/>
<circle cx="6.5" cy="3.5" r="1" fill="var(--mw-icon-background-default-white, white)" stroke="#0072BD"/>
<path d="M19 7.5C17.8324 7.5 6.51351 7.5 1 7.5" stroke="#0072BD"/>
<path d="M14 7.5H7.5C7.5 8.5 7.5 10 7 11" stroke="#D95319"/>
<circle cx="6.5" cy="11.5" r="1" fill="var(--mw-icon-background-default-white, white)" stroke="#0072BD"/>
<circle cx="13.5" cy="7.5" r="2" stroke="#0072BD"/>
<rect x="0.5" y="0.5" width="18" height="14" stroke="var(--mw-icon-border-default-gray, #616161)" stroke-linejoin="round"/>

</svg>
