<svg width="20" height="16" viewBox="0 0 20 16" fill="none" xmlns="http://www.w3.org/2000/svg">
<rect x="0.5" y="0.5" width="18" height="14" fill="var(--mw-icon-object-secondary, #FFFFFE)" stroke="var(--mw-icon-border-default-gray, #616161)" stroke-linejoin="round"/>
<path d="M12 8H15V9H13V10H14V9H15V11H13V13H12V9V8Z" fill="var(--mw-icon-object-primary, #616160)"/>
<path d="M12 2H15V3H14V7H13V3H12V2Z" fill="var(--mw-icon-object-primary, #616160)"/>
<path d="M6 13L6 9L7 9L7 13H6Z" fill="var(--mw-icon-object-primary, #616160)"/>
<path d="M5 9L5 8L6 8V9H5Z" fill="var(--mw-icon-object-primary, #616160)"/>
<path d="M4 13L4 9L5 9L5 13H4Z" fill="var(--mw-icon-object-primary, #616160)"/>
<path d="M6 13L6 9L7 9L7 13H6Z" fill="var(--mw-icon-object-primary, #616160)"/>
<path d="M5 9L5 8L6 8V9H5Z" fill="var(--mw-icon-object-primary, #616160)"/>
<path d="M4 13L4 9L5 9L5 13H4Z" fill="var(--mw-icon-object-primary, #616160)"/>
<rect x="4" y="11" width="3" height="1" fill="var(--mw-icon-object-primary, #616160)"/>
<path d="M4 2H7V3H4V2Z" fill="var(--mw-icon-object-primary, #616160)"/>
<path d="M4 2H5V4H4V2Z" fill="var(--mw-icon-object-primary, #616160)"/>
<path d="M6 4H7V6H6V4Z" fill="var(--mw-icon-object-primary, #616160)"/>
<path d="M4 4H7V5H4V4Z" fill="var(--mw-icon-object-primary, #616160)"/>
<path d="M4 6H7V7H4V6Z" fill="var(--mw-icon-object-primary, #616160)"/>
<path fill-rule="evenodd" clip-rule="evenodd" d="M9 3L9 2H10V3H9ZM9 5L9 3L8 3V5V6V7H9V6H10V7H11V6V5L11 3L10 3L10 5H9Z" fill="var(--mw-icon-object-primary, #616160)"/>
<path d="M8 8H9V9.5H10V8H11V13H10V11.5H9V13H8V8Z" fill="var(--mw-icon-object-primary, #616160)"/>
</svg>
