<svg width="20" height="16" viewBox="0 0 20 16" fill="none" xmlns="http://www.w3.org/2000/svg">
<rect x="0.5" y="0.5" width="18" height="14" fill="var(--mw-icon-background-default-white, #FFFFFF)"/>
<path d="M12 5.5C12 6.32843 11.3284 7 10.5 7C9.67157 7 9 6.32843 9 5.5C9 4.67157 9.67157 4 10.5 4C11.3284 4 12 4.67157 12 5.5Z" fill="#0072BD"/>
<path d="M16 7.5C16 8.32843 15.3284 9 14.5 9C13.6716 9 13 8.32843 13 7.5C13 6.67157 13.6716 6 14.5 6C15.3284 6 16 6.67157 16 7.5Z" fill="#0072BD"/>
<path d="M17 11.5C17 12.3284 16.3284 13 15.5 13C14.6716 13 14 12.3284 14 11.5C14 10.6716 14.6716 10 15.5 10C16.3284 10 17 10.6716 17 11.5Z" fill="#0072BD"/>
<path d="M6 7.5C6 8.32843 5.32843 9 4.5 9C3.67157 9 3 8.32843 3 7.5C3 6.67157 3.67157 6 4.5 6C5.32843 6 6 6.67157 6 7.5Z" fill="#D95319"/>
<path d="M7 3.5C7 4.32843 6.32843 5 5.5 5C4.67157 5 4 4.32843 4 3.5C4 2.67157 4.67157 2 5.5 2C6.32843 2 7 2.67157 7 3.5Z" fill="#D95319"/>
<path d="M18 3.5C18 4.32843 17.3284 5 16.5 5C15.6716 5 15 4.32843 15 3.5C15 2.67157 15.6716 2 16.5 2C17.3284 2 18 2.67157 18 3.5Z" fill="#D95319"/>
<path d="M10 9.5C10 10.3284 9.32843 11 8.5 11C7.67157 11 7 10.3284 7 9.5C7 8.67157 7.67157 8 8.5 8C9.32843 8 10 8.67157 10 9.5Z" fill="#D95319"/>
<path d="M10 12.5C10 13.3284 9.32843 14 8.5 14C7.67157 14 7 13.3284 7 12.5C7 11.6716 7.67157 11 8.5 11C9.32843 11 10 11.6716 10 12.5Z" fill="#D95319"/>
<rect x="0.5" y="0.5" width="18" height="14" stroke="var(--mw-icon-border-default-gray, #616161)" stroke-linejoin="round"/>
</svg>
