<svg width="20" height="16" viewBox="0 0 20 16" fill="none" xmlns="http://www.w3.org/2000/svg">
<rect x="0.5" y="0.5" width="18" height="14" fill="var(--mw-icon-background-default-white, white)"/>
<rect x="0.5" y="0.5" width="18" height="14" fill="var(--mw-icon-background-default-white, white)"/>
<path d="M0.5 12.5C0.971698 11.1667 2.5 8.5 4.5 8.5C8 8.5 9.5 13.5 13 13.5C15.2604 13.5 17.3333 11.3636 17.5 1" stroke="#D95319" stroke-linecap="round"/>
<path d="M5 0H14V15H5V0Z" fill="var(--mw-icon-background-default-white, white)"/>
<path d="M6 7.5H13" stroke="var(--mw-icon-glyph-disabled-gray, #888889)"/>
<rect x="11" y="12" width="1" height="1" fill="var(--mw-icon-glyph-content-dark-gray, #333333)"/>
<rect x="10" y="13" width="1" height="1" fill="var(--mw-icon-glyph-content-dark-gray, #333333)"/>
<rect x="10" y="11" width="1" height="1" fill="var(--mw-icon-glyph-content-dark-gray, #333333)"/>
<rect x="12" y="11" width="1" height="1" fill="var(--mw-icon-glyph-content-dark-gray, #333333)"/>
<rect x="12" y="13" width="1" height="1" fill="var(--mw-icon-glyph-content-dark-gray, #333333)"/>
<rect x="7" y="1" width="1" height="1" fill="var(--mw-icon-glyph-content-dark-gray, #333333)"/>
<rect x="8" y="2" width="1" height="2" fill="var(--mw-icon-glyph-content-dark-gray, #333333)"/>
<rect x="8" y="3" width="1" height="3" fill="var(--mw-icon-glyph-content-dark-gray, #333333)"/>
<rect x="7" y="5" width="1" height="1" fill="var(--mw-icon-glyph-content-dark-gray, #333333)"/>
<rect x="6" y="4" width="1" height="2" fill="var(--mw-icon-glyph-content-dark-gray, #333333)"/>
<rect x="6" y="3" width="2" height="1" fill="var(--mw-icon-glyph-content-dark-gray, #333333)"/>
<rect x="7" y="9" width="1" height="1" fill="var(--mw-icon-glyph-content-dark-gray, #333333)"/>
<rect x="8" y="10" width="1" height="2" fill="var(--mw-icon-glyph-content-dark-gray, #333333)"/>
<rect x="8" y="11" width="1" height="3" fill="var(--mw-icon-glyph-content-dark-gray, #333333)"/>
<rect x="7" y="13" width="1" height="1" fill="var(--mw-icon-glyph-content-dark-gray, #333333)"/>
<rect x="6" y="12" width="1" height="2" fill="var(--mw-icon-glyph-content-dark-gray, #333333)"/>
<rect x="6" y="11" width="2" height="1" fill="var(--mw-icon-glyph-content-dark-gray, #333333)"/>
<rect x="0.5" y="0.5" width="18" height="14" stroke="var(--mw-icon-border-default-gray, #616161)" stroke-linejoin="round"/>
<path d="M11 1.5L12 2L11 3.5L10 3L11 1.5Z" fill="var(--mw-icon-glyph-disabled-gray, #888889)"/>
<rect x="10" y="1" width="2" height="1" fill="var(--mw-icon-glyph-content-dark-gray, #333333)"/>
<rect x="10" y="3" width="2" height="1" fill="var(--mw-icon-glyph-content-dark-gray, #333333)"/>
<path d="M14 8.5L15 9L14 10.5L13 10L14 8.5Z" fill="var(--mw-icon-glyph-disabled-gray, #888889)"/>
<rect x="13" y="8" width="2" height="1" fill="var(--mw-icon-glyph-content-dark-gray, #333333)"/>
<rect x="13" y="10" width="2" height="1" fill="var(--mw-icon-glyph-content-dark-gray, #333333)"/>
<rect x="0.5" y="0.5" width="18" height="14" stroke="var(--mw-icon-border-default-gray, #616161)" stroke-linejoin="round"/>

</svg>
