<svg width="20" height="16" viewBox="0 0 20 16" fill="none" xmlns="http://www.w3.org/2000/svg">
<rect x="0.5" y="0.5" width="18" height="14" fill="var(--mw-icon-background-default-white, white)"/>
<path d="M10 14L10 1L9 1L9 14L10 14Z" fill="var(--mw-icon-background-default-medium-gray, #D9D9D9)"/>
<path d="M13 14L13 1L12 1L12 14H13Z" fill="var(--mw-icon-background-default-medium-gray, #D9D9D9)"/>
<path d="M15 14L15 1L14 1L14 14H15Z" fill="var(--mw-icon-background-default-medium-gray, #D9D9D9)"/>
<path d="M17 14L17 1L16 1L16 14H17Z" fill="var(--mw-icon-background-default-medium-gray, #D9D9D9)"/>
<path d="M5 14L5 1L4 1L4 14H5Z" fill="var(--mw-icon-background-default-medium-gray, #D9D9D9)"/>
<path d="M0.5 3.5C4 3.5 6.5 12.5 9.5 12.5C12 12.5 12.5 2.5 13.5 2.5C14.5 2.5 15.5 12.5 16.5 12.5C17.5 12.5 18.5 7.5 18.5 7.5" stroke="#0072BD" stroke-miterlimit="10"/>
<rect x="0.5" y="0.5" width="18" height="14" stroke="var(--mw-icon-border-default-gray, #616161)" stroke-linejoin="round"/>

</svg>
