<svg width="20" height="16" viewBox="0 0 20 16" fill="none" xmlns="http://www.w3.org/2000/svg">
<rect x="0.5" y="0.5" width="18" height="14" fill="var(--mw-icon-background-default-white, white)"/>
<path d="M18 10H1V11H18V10Z" fill="var(--mw-icon-background-default-medium-gray, #D9D9D9)"/>
<path d="M18 7H1V8H18V7Z" fill="var(--mw-icon-background-default-medium-gray, #D9D9D9)"/>
<path d="M18 5H1V6H18V5Z" fill="var(--mw-icon-background-default-medium-gray, #D9D9D9)"/>
<path d="M18 3H1V4H18V3Z" fill="var(--mw-icon-background-default-medium-gray, #D9D9D9)"/>
<path d="M0.53125 4.49671C0.53125 4.49671 1 2.5 2.52796 2.5C4.5 2.5 6.5 12.5 7.5 12.5C8.16557 12.5 9.17215 2.5 12.5 2.5C15.8279 2.5 15.5016 12.5 16.5 12.5C17.4984 12.5 17.1689 4.5 18.5 4.5" stroke="#0072BD" stroke-miterlimit="10"/>
<rect x="0.5" y="0.5" width="18" height="14" stroke="var(--mw-icon-border-default-gray, #616161)" stroke-linejoin="round"/>

</svg>
