<svg width="20" height="16" viewBox="0 0 20 16" fill="none" xmlns="http://www.w3.org/2000/svg">
<rect x="0.5" y="0.5" width="18" height="14" fill="var(--mw-icon-background-default-white, white)"/>
<path d="M0.5 8.50001C2 8.50001 5.11458 9.74701 6 12.5C6.26854 13.335 6.48505 12.1304 6.5 11M18.5 5.50001C14.5291 5.50001 13.1587 1.47888 12.8646 1.00697C12.8124 0.923182 12.5067 2.61632 12.5 3.00002C12.5 4.65505 12.5 6.01398 12.5 8.00001C12.4285 8.77055 12.204 9.3508 12 9.50001C11.5014 9.86477 8.19966 4.25734 7 3.50001C6.84341 3.40116 6.55983 4.00446 6.5 4.50001M6.5 4.50001C6.49395 6.32055 6.5066 9.01398 6.5 11M6.5 4.50001V11" stroke="#0072BD"/>
<rect x="0.5" y="0.5" width="18" height="14" stroke="var(--mw-icon-border-default-gray, #616161)" stroke-linejoin="round"/>

</svg>
