<svg width="20" height="16" viewBox="0 0 20 16" fill="none" xmlns="http://www.w3.org/2000/svg">
<rect x="0.5" y="0.5" width="18" height="14" fill="var(--mw-icon-background-default-white, #FFFFFF)"/>
<rect x="0.5" y="0.5" width="18" height="14" stroke="var(--mw-icon-border-default-gray, #616161)" stroke-linejoin="round"/>
<path d="M14.7255 6.39856C12.9587 8.43458 8.94913 12.45 7.67504 11.6922C6.94388 11.1424 8.12939 8.78749 14.7255 6.39856Z" fill="#ABC739"/>
<path d="M14.7255 6.39856C11.3425 7.62378 9.38272 8.84004 8.37479 9.80844C8.16115 10.1199 8.19596 11.6922 9.32446 11.3282C11.0605 10.3136 13.4643 7.85186 14.7255 6.39856Z" fill="#37C897"/>
<path d="M14.7256 6.39856C12.1366 7.33621 10.3811 8.26862 9.24795 9.0887C9.12576 9.66199 9.11478 10.8173 10.0484 10.8523C11.6798 9.67664 13.6321 7.65857 14.7256 6.39856Z" fill="#12B1D6"/>
<path d="M14.7256 6.39856C12.8332 7.08393 11.3862 7.76649 10.3019 8.40444C10.2314 9.03355 10.2741 10.2532 11.0089 10.0987C12.3934 8.93431 13.8407 7.41821 14.7256 6.39856Z" fill="#2E87F7"/>
<path d="M11.726 9.47053C11.0968 9.54048 11.1063 8.46296 11.1897 7.91546C11.4886 7.76087 11.8088 7.60439 12.1512 7.44657C12.8993 7.10175 13.7536 6.75052 14.7255 6.39856C14.172 7.03635 13.3984 7.86838 12.5578 8.68707C12.2859 8.95196 12.0069 9.21546 11.726 9.47053Z" fill="#4852F4"/>
<path d="M14.7255 6.39856C13.7537 6.75052 12.8993 7.10175 12.1512 7.44657C12.0493 7.96113 11.9881 8.92962 12.5579 8.68707C13.3985 7.86838 14.172 7.03635 14.7255 6.39856Z" fill="#3E26A8"/>
<path d="M14.5527 6.28837C14.035 7.94234 12.5801 11.9572 12.1002 11.7231C11.598 11.3954 12.5947 9.9698 14.5527 6.28837Z" fill="#37C897"/>
<path d="M14.5528 6.28836C13.4828 8.3002 12.6998 9.63835 12.2917 10.4918C12.307 10.6871 12.4268 11.0395 12.7841 10.8863C13.4037 9.66232 14.1981 7.4214 14.5528 6.28836Z" fill="#12B1D6"/>
<path d="M14.5527 6.28839C13.7702 7.75967 13.1412 8.87065 12.7001 9.69525C12.6712 9.89002 12.7167 10.2526 13.1295 10.1447C13.6735 8.89669 14.2614 7.21892 14.5527 6.28839Z" fill="#2E87F7"/>
<path d="M14.5528 6.28838C13.9508 7.42028 13.4397 8.33893 13.035 9.07799C12.9916 9.29468 13.0057 9.67779 13.4092 9.47673C13.8649 8.34783 14.311 7.06071 14.5528 6.28838Z" fill="#4852F4"/>
<path d="M14.5527 6.28832C14.1553 7.03543 13.7976 7.68963 13.4839 8.26061C13.4792 8.40279 13.5307 8.65671 13.7745 8.53497C14.0921 7.68636 14.3766 6.85081 14.5527 6.28832Z" fill="#3E26A8"/>
<path d="M13.9759 6.21086C14.2679 7.65327 14.841 11.2472 14.4202 11.3022C13.9474 11.2996 14.0733 9.79857 13.9759 6.21086Z" fill="#37C897"/>
<path d="M13.9759 6.21095C14.0291 8.17156 14.0157 9.509 14.0697 10.3193C14.1566 10.4538 14.3767 10.6534 14.5619 10.3749C14.5079 9.19681 14.176 7.19905 13.9759 6.21095Z" fill="#12B1D6"/>
<path d="M13.9759 6.21088C14.0148 7.6447 14.0181 8.74523 14.0382 9.55004C14.0946 9.70485 14.2677 9.94658 14.5086 9.67504C14.3935 8.51487 14.1402 7.02237 13.9759 6.21088Z" fill="#2E87F7"/>
<path d="M13.976 6.21092C14.0059 7.314 14.0147 8.21982 14.0264 8.94548C14.0814 9.12301 14.241 9.39436 14.4391 9.05956C14.31 8.02714 14.1123 6.88446 13.976 6.21092Z" fill="#4852F4"/>
<path d="M13.976 6.21082C13.9957 6.93891 14.0063 7.58106 14.0145 8.14218C14.0669 8.24755 14.2016 8.40764 14.3213 8.20515C14.2071 7.44075 14.0753 6.70136 13.976 6.21082Z" fill="#3E26A8"/>
<path d="M14.7386 6.56562C13.6657 5.71831 11.5269 3.79513 11.9778 3.33623C12.4246 2.88155 13.971 5.26001 14.7386 6.56562Z" fill="#37C897"/>
<path d="M12.2568 4.1919C12.8372 4.9602 14.0242 6.00137 14.7386 6.56555C14.2302 5.701 13.3805 4.36604 12.7346 3.69476C12.1449 3.42801 12.1704 3.91504 12.2568 4.1919Z" fill="#12B1D6"/>
<path d="M14.7386 6.56557C14.3364 5.8816 13.7206 4.90319 13.161 4.19192C12.958 4.08646 12.5703 4.0307 12.6433 4.65136C13.2687 5.33646 14.1591 6.10794 14.7386 6.56557Z" fill="#2E87F7"/>
<path d="M13.0272 5.05121C12.9746 4.65944 13.3003 4.58884 13.4697 4.60251C13.5747 4.74766 13.6799 4.89839 13.7837 5.05121C14.142 5.57891 14.4833 6.13157 14.7385 6.56564C14.3712 6.27552 13.8789 5.85927 13.4083 5.41886C13.2786 5.29743 13.1505 5.17417 13.0272 5.05121Z" fill="#4852F4"/>
<path d="M14.7385 6.56565C14.4833 6.13157 14.142 5.57892 13.7837 5.05122C13.6381 5.04466 13.3592 5.10901 13.4083 5.41887C13.8789 5.85928 14.3712 6.27553 14.7385 6.56565Z" fill="#3E26A8"/>
<path d="M14.6332 6.41141C13.3684 6.04184 10.7755 5.08567 11.058 4.47688C11.338 3.87369 13.5145 5.4913 14.6332 6.41141Z" fill="#37C897"/>
<path d="M11.5812 5.16866C12.3601 5.65916 13.7911 6.16531 14.6333 6.41139C13.8925 5.80211 12.6879 4.887 11.8772 4.51338C11.2428 4.49681 11.4155 4.94333 11.5812 5.16866Z" fill="#12B1D6"/>
<path d="M14.6332 6.41142C14.0471 5.9294 13.1708 5.25596 12.4289 4.81066C12.2063 4.79217 11.8257 4.89344 12.0839 5.44641C12.8795 5.84109 13.9501 6.21181 14.6332 6.41142Z" fill="#2E87F7"/>
<path d="M12.5659 5.66916C12.3969 5.32267 12.6807 5.12751 12.8437 5.07323C12.9865 5.16776 13.1312 5.26742 13.2751 5.36961C13.7724 5.72246 14.2612 6.10546 14.6331 6.41137C14.2001 6.28483 13.6113 6.08952 13.0356 5.86293C12.8768 5.80045 12.7191 5.7356 12.5659 5.66916Z" fill="#4852F4"/>
<path d="M14.6332 6.41141C14.2613 6.10551 13.7725 5.72251 13.2753 5.36965C13.1368 5.42116 12.8949 5.59192 13.0357 5.86297C13.6114 6.08956 14.2002 6.28487 14.6332 6.41141Z" fill="#3E26A8"/>
<path d="M14.7214 6.58334C14.0104 5.32828 13.1851 3.24238 13.5073 3.11451C13.8928 2.96143 14.4443 5.03892 14.7214 6.58334Z" fill="#4852F4"/>
<path d="M13.5323 3.83325C13.7418 4.5846 14.2561 5.76195 14.7215 6.58339C14.5386 5.56407 14.2362 4.31254 13.9409 3.62335C13.6248 3.34764 13.5368 3.64841 13.5323 3.83325Z" fill="#3E26A8"/>
<path d="M14.6239 6.32861C14.7483 6.83287 15.1034 7.83898 15.453 7.63436C15.8779 7.38563 15.1424 6.65189 14.6239 6.32861Z" fill="#4852F4"/>
<path d="M15.1193 7.50993C14.8974 7.23931 14.7079 6.66937 14.6239 6.32861C14.9689 6.54371 15.41 6.94052 15.5414 7.25528C15.3947 7.54241 15.1989 7.54468 15.1193 7.50993Z" fill="#3E26A8"/>
<path d="M7.5271 5.47186C7.58262 4.9001 9.44761 4.43069 14.7269 6.39893C12.3883 6.48781 7.44881 6.27801 7.5271 5.47186Z" fill="#ABC739"/>
<path d="M14.7269 6.39892C11.8934 5.34252 10.0434 4.98834 8.92889 4.9753C8.53521 5.11219 7.90283 5.51405 8.52272 6.02634C10.074 6.37394 13.0606 6.46225 14.7269 6.39892Z" fill="#37C897"/>
<path d="M14.727 6.39885C12.8162 5.68646 11.3527 5.2934 10.2603 5.10896C9.7989 5.26049 9.11743 5.70236 10.0828 6.25764C11.6266 6.41115 13.522 6.44464 14.727 6.39885Z" fill="#12B1D6"/>
<path d="M14.7269 6.39901C13.1147 5.79795 11.8209 5.42421 10.7999 5.2113C10.5101 5.36116 10.0725 5.79012 10.6409 6.30709C12.0633 6.41809 13.6638 6.43941 14.7269 6.39901Z" fill="#2E87F7"/>
<path d="M14.7269 6.39892C13.3989 5.90383 12.287 5.56297 11.3655 5.33919C11.0998 5.50689 10.7063 5.94366 11.2584 6.34912C12.509 6.42283 13.8154 6.43355 14.7269 6.39892Z" fill="#4852F4"/>
<path d="M14.7269 6.39898C13.8056 6.0555 12.9883 5.78626 12.2664 5.57885C12.0622 5.74556 11.7507 6.14134 12.1382 6.39075C13.0978 6.42543 14.0284 6.42552 14.7269 6.39898Z" fill="#3E26A8"/>
<path d="M14.7256 6.39854C10.8602 6.03979 2.12965 7.02986 3.00782 10.1019C3.96426 13.4478 10.964 9.23853 14.7256 6.39854Z" fill="#F9FB15"/>
<path d="M14.7256 6.39856C10.964 9.23856 3.96426 13.4478 3.00782 10.1019C2.65047 8.85184 3.88419 7.94651 5.73372 7.33651C3.89018 8.09706 3.34909 9.3441 3.75869 9.89285C4.53729 10.936 8.83338 10.4628 14.7256 6.39856Z" fill="#FFD60A"/>
<path d="M6.20166 7.19204C8.87544 6.41944 12.5623 6.19777 14.7255 6.39854C12.7503 7.88987 9.88208 9.75876 7.46494 10.713C7.67408 8.33485 6.7099 7.3748 6.20166 7.19204Z" fill="#FEC338"/>
<path d="M7.46497 6.88107C9.94745 6.36244 12.8869 6.22789 14.7256 6.39854C13.0558 7.65921 10.7479 9.18969 8.61389 10.2094C8.7648 8.24844 7.91082 7.17345 7.46497 6.88107Z" fill="#ABC739"/>
<path d="M8.89502 6.62995C11.0081 6.3228 13.2307 6.2598 14.7256 6.39854C13.416 7.38725 11.714 8.54191 10.0111 9.48597C9.95185 7.52758 9.24236 6.76596 8.89502 6.62995Z" fill="#37C897"/>
<path d="M10.0111 6.49077C11.7644 6.30691 13.4925 6.2841 14.7255 6.39854C13.671 7.1947 12.362 8.09847 11.003 8.91323C10.9972 7.36874 10.3393 6.65472 10.0111 6.49077Z" fill="#12B1D6"/>
<path d="M11.0031 6.40336C12.4023 6.3032 13.7265 6.30581 14.7256 6.39854C13.9029 7.01963 12.9254 7.70622 11.8901 8.36494C11.9222 7.19437 11.3121 6.56949 11.0031 6.40336Z" fill="#2E87F7"/>
<path d="M11.8901 6.35299C12.9551 6.30846 13.9407 6.32569 14.7256 6.39854C14.1089 6.86418 13.4051 7.36664 12.6551 7.86657C12.617 6.92388 12.1293 6.46473 11.8901 6.35299Z" fill="#4852F4"/>
<path d="M12.8141 6.3295C13.5224 6.32358 14.1736 6.34731 14.7256 6.39854C14.3303 6.69702 13.8992 7.01062 13.4431 7.32899C13.3829 6.71951 12.9987 6.40872 12.8141 6.3295Z" fill="#3E26A8"/>
<path d="M14.374 6.68488C12.7076 6.81021 9.04173 8.43702 9.65438 10.4646C9.87961 11.1194 12.2605 10.5681 14.374 6.68488Z" fill="#ABC739"/>
<path d="M10.1903 8.66002C11.204 7.5416 13.2465 6.76957 14.3739 6.68478C13.0307 9.15266 11.5795 10.2748 10.6423 10.5969C11.0684 9.99751 10.743 8.66193 10.1903 8.66002Z" fill="#37C897"/>
<path d="M10.7229 8.17074C11.8096 7.32086 13.4196 6.75667 14.374 6.6849C13.2343 8.77889 12.0168 9.90402 11.1016 10.3936C11.5252 9.84606 11.3225 8.63289 10.7229 8.17074Z" fill="#12B1D6"/>
<path d="M11.415 7.7045C12.4169 7.11817 13.6071 6.74253 14.374 6.68486C13.4736 8.3391 12.5248 9.38869 11.7147 9.99795C12.018 9.64571 11.918 8.33156 11.415 7.7045Z" fill="#2E87F7"/>
<path d="M12.1214 7.33805C12.937 6.96361 13.7818 6.72942 14.374 6.68488C13.7182 7.88979 13.0367 8.7739 12.4018 9.40074C12.5834 8.71046 12.6206 7.93159 12.1214 7.33805Z" fill="#4852F4"/>
<path d="M12.7895 7.06398C13.379 6.84996 13.9433 6.71724 14.374 6.68485C13.9251 7.50964 13.4642 8.18411 13.0143 8.72864C13.1511 8.23491 13.3085 7.56496 12.7895 7.06398Z" fill="#3E26A8"/>
<path d="M14.4656 6.52203C13.8374 7.65883 12.1153 10.4065 11.6527 10.2129C11.1742 9.9519 12.2644 9.00464 14.4656 6.52203Z" fill="#4852F4"/>
<path d="M14.4655 6.5221C13.2626 7.8788 12.3915 8.77698 11.9269 9.35522C11.9288 9.49399 12.0245 9.74979 12.391 9.66282C13.0915 8.83555 14.0352 7.30084 14.4655 6.5221Z" fill="#3E26A8"/>
<path d="M14.6677 6.32861C14.7927 6.85019 14.8397 8.22858 14.3593 8.19867C13.879 8.16875 14.2575 6.7331 14.6677 6.32861Z" fill="#4852F4"/>
<path d="M14.6675 6.32861C14.4158 6.57684 14.176 7.21343 14.1393 7.67514C14.2062 7.80345 14.4118 8.00176 14.6984 7.76848C14.794 7.32613 14.7462 6.65727 14.6675 6.32861Z" fill="#3E26A8"/>
</svg>
