<svg width="20" height="16" viewBox="0 0 20 16" fill="none" xmlns="http://www.w3.org/2000/svg">
<rect x="0.500549" y="0.5" width="18" height="14" fill="var(--mw-icon-background-default-white, #FFFFFF)"/>
<line x1="0.000549316" y1="7.5" x2="2.00055" y2="7.5" stroke="var(--mw-icon-background-default-dark-gray, #A6A6A6)"/>
<line x1="4.00055" y1="7.5" x2="6.00055" y2="7.5" stroke="var(--mw-icon-background-default-dark-gray, #A6A6A6)"/>
<line x1="8.00055" y1="7.5" x2="10.0005" y2="7.5" stroke="var(--mw-icon-background-default-dark-gray, #A6A6A6)"/>
<line x1="12.0005" y1="7.5" x2="14.0005" y2="7.5" stroke="var(--mw-icon-background-default-dark-gray, #A6A6A6)"/>
<line x1="16.0005" y1="7.5" x2="18.0005" y2="7.5" stroke="var(--mw-icon-background-default-dark-gray, #A6A6A6)"/>
<path d="M1.00055 12.5C2.41722 12.5 2.06305 2.5 3.47972 2.5C4.89638 2.5 4.54222 12.5 5.95888 12.5C7.37555 12.5 7.02138 2.5 8.43805 2.5C9.85472 2.5 9.50055 12.5 10.9172 12.5C12.3339 12.5 11.6255 2.5 12.3339 2.5C13.0422 2.5 13.0422 12.5 13.7505 12.5C14.4589 12.5 14.4589 2.5 15.1672 2.5C15.8755 2.5 15.8755 12.5 16.5839 12.5C17.2922 12.5 16.5839 2.5 17.2922 2.5C18.0005 2.5 17.6464 12.5 18.0005 12.5" stroke="#0072BD"/>
<rect x="0.500549" y="0.5" width="18" height="14" stroke="var(--mw-icon-border-default-gray, #616161)" stroke-linejoin="round"/>
</svg>
