<svg width="21" height="16" viewBox="0 0 21 16" fill="none" xmlns="http://www.w3.org/2000/svg">
<path d="M10.5 1L3.5 5V10.5L10.5 14.5L17.5 10.5V5L10.5 1Z" fill="var(--mw-icon-background-default-white, white)"/>
<path d="M10.502 6.497L10.5041 1L17.3268 4.93223V10.4116L10.502 6.497Z" fill="var(--mw-icon-background-default-light-gray, #F5F5F5)"/>
<path d="M10.502 6.497L10.4998 1L3.67706 4.93724L3.67706 10.4116L10.502 6.497Z" fill="#E6E6E6"/>
<path d="M17.5038 10.2725V5.0611L10.5019 1.02246L3.5 5.00022" stroke="var(--mw-icon-background-default-dark-gray, #A6A6A6)" stroke-linecap="round" stroke-linejoin="round"/>
<path d="M3.5 5V10.3281L10.5 14.3697L17.5 10.33" stroke="var(--mw-icon-border-default-gray, #616161)" stroke-linecap="round" stroke-linejoin="round"/>
<path d="M7.20312 7.91917L13.9994 11.8477L13.9994 6.25091L7.20312 2.32373V7.91917Z" fill="#12B1D6"/>
<path d="M7.20312 6.52031L12.3003 9.46672L12.3003 5.26911L7.20312 2.32373V6.52031Z" fill="#37C897"/>
<path d="M7.20312 5.12738L8.90218 6.10951L8.90218 4.71031L7.20312 3.72852V5.12738Z" fill="#ABC739"/>
<path d="M10.6011 7.08538L12.3001 8.06752L12.3001 6.66832L10.6011 5.68652V7.08538Z" fill="#ABC739"/>
<path d="M8.90234 7.50006L10.6014 8.4822L10.6014 4.28746L8.90234 3.30566V7.50006Z" fill="#ABC739"/>
<path d="M8.90234 6.10345L10.6014 7.08559L10.6014 5.68638L8.90234 4.70459V6.10345Z" fill="#F9FB15"/>

</svg>
