<svg width="20" height="16" viewBox="0 0 20 16" fill="none" xmlns="http://www.w3.org/2000/svg">
<path d="M4.50024 5C4.50024 4.72386 4.7241 4.5 5.00024 4.5H16.0002C16.2764 4.5 16.5002 4.72386 16.5002 5V10C16.5002 10.2761 16.2764 10.5 16.0002 10.5H5.00024C4.7241 10.5 4.50024 10.2761 4.50024 10V5Z" fill="#00A3A3" stroke="#02555C"/>
<rect x="3.50024" y="6.5" width="2" height="2" fill="var(--mw-icon-background-default-dark-gray, #A6A6A6)" stroke="var(--mw-icon-border-default-gray, #616161)" stroke-linejoin="round"/>
<path d="M6.58606 7.50003L8.00027 6.08582L9.41449 7.50003L8.00027 8.91424L6.58606 7.50003Z" fill="var(--mw-icon-glyph-content-dark-gray, #333333)"/>
<path d="M12.5002 7.5C12.5002 8.05228 12.0525 8.5 11.5002 8.5C10.948 8.5 10.5002 8.05228 10.5002 7.5C10.5002 6.94772 10.948 6.5 11.5002 6.5C12.0525 6.5 12.5002 6.94772 12.5002 7.5ZM12.5002 7.5C12.5002 8.05228 12.948 8.5 13.5002 8.5C14.0525 8.5 14.5002 8.05228 14.5002 7.5C14.5002 6.94772 14.0525 6.5 13.5002 6.5C12.948 6.5 12.5002 6.94772 12.5002 7.5Z" stroke="var(--mw-icon-background-default-white, #FFFFFF)"/>
</svg>
