<svg width="20" height="17" viewBox="0 0 20 17" fill="none" xmlns="http://www.w3.org/2000/svg">
<rect x="0.5" y="0.62793" width="18" height="14" fill="var(--mw-icon-background-default-white, #FFFFFF)"/>
<rect x="0.5" y="0.62793" width="18" height="14" stroke="var(--mw-icon-border-default-gray, #616161)" stroke-linejoin="round"/>
<path d="M9.64965 7.67831C9.48688 7.52486 9.01627 7.52544 8.88531 8.19683C8.88706 9.01215 9.45539 9.43786 10.7059 9.04522C11.4446 8.71366 12.647 7.56246 11.5466 5.61018C11.1049 4.90508 9.65115 3.78365 7.37002 4.93868C6.74602 5.28962 5.49474 6.49209 5.48165 8.49442C5.46857 10.4968 7.23969 11.8657 8.12688 12.2999C8.8895 12.6681 11.008 13.0188 13.381 11.4753" stroke="#745A26" stroke-width="0.998822" stroke-linejoin="round"/>
<path d="M9.40257 7.71369C9.55669 7.85835 10.2189 8.01824 10.2926 7.15825C10.4422 6.22458 9.19845 6.04482 8.41271 6.41438C7.68482 6.75673 6.48321 7.90814 7.49988 9.77503C7.91016 10.4481 9.29354 11.498 11.5448 10.3134C12.1616 9.95534 13.4122 8.75278 13.4802 6.80685C13.5483 4.86092 11.8629 3.57918 11.0117 3.18154C10.28 2.84455 8.22854 2.56171 5.87717 4.12632" stroke="#745A26" stroke-width="0.998822" stroke-linejoin="round"/>
</svg>
