<svg width="20" height="17" viewBox="0 0 20 17" fill="none" xmlns="http://www.w3.org/2000/svg">
<rect x="0.5" y="0.62793" width="18" height="14" fill="var(--mw-icon-background-default-white, #FFFFFF)"/>
<rect x="0.5" y="0.62793" width="18" height="14" stroke="var(--mw-icon-border-default-gray, #616161)" stroke-linejoin="round"/>
<path d="M9.93981 12.3928C7.43981 12.2031 5.84616 10.6623 5.84616 8.19674C5.84616 5.92088 7.76924 4.78295 8.92309 4.78295C9.88458 4.78295 11.2308 5.35192 11.2308 6.48985C11.2308 7.24847 11.0384 8.3864 10.2692 8.3864C9.50001 8.3864 8.97833 7.65139 8.97833 7.65139C8.97833 7.65139 9.11535 9.14502 10.6539 9.14502C11.6154 9.14502 12.3846 7.81743 12.3846 6.6795C12.3846 5.73125 11.6153 3.64502 8.92309 3.64502C6.03847 3.64502 4.50003 6.32381 4.5 8.22036C4.5 11.1373 6.61528 13.1278 8.92309 13.1278C11.423 13.1278 12.4398 12.0135 12.4398 12.0135C12.4398 12.0135 11.6706 12.3928 9.93981 12.3928Z" fill="#745A26"/>
<path d="M9.11537 2.8867C11.6154 3.07636 13.1539 4.46988 13.1539 6.9354C13.1539 9.21126 11.293 10.4729 10.1392 10.4729C9.17769 10.4729 7.76926 9.33498 7.76926 8.19705C7.76926 7.43843 8.15392 6.67981 8.92311 6.67981C9.69234 6.67981 10.077 7.43843 10.077 7.43843C10.077 7.43843 10.2693 5.92119 8.7308 5.92119C7.7693 5.92119 6.61541 7.24877 6.61541 8.3867C6.61541 9.33495 7.44693 11.6108 10.1392 11.6108C13.0238 11.6108 14.5 8.83195 14.5 6.9354C14.5 4.01844 12.3847 2.12808 10.0769 2.12808C7.57701 2.12808 6.67769 3.14229 6.67769 3.14229C6.67769 3.14229 7.3846 2.8867 9.11537 2.8867Z" fill="#745A26"/>
</svg>
