<svg width="20" height="16" viewBox="0 0 20 16" fill="none" xmlns="http://www.w3.org/2000/svg">
<rect x="0.5" y="0.5" width="18" height="14" fill="var(--mw-icon-background-default-white, white)"/>
<path d="M11 5.5H10V14H11V5.5Z" fill="#0072BD"/>
<path d="M8 9.5H7V14H8V9.5Z" fill="#0072BD"/>
<path d="M14 10.5H13V14H14V10.5Z" fill="#0072BD"/>
<path d="M11.5 4.5C11.5 5.05228 11.0523 5.5 10.5 5.5C9.94772 5.5 9.5 5.05228 9.5 4.5C9.5 3.94772 9.94772 3.5 10.5 3.5C11.0523 3.5 11.5 3.94772 11.5 4.5Z" stroke="#0072BD"/>
<path d="M14.5 9.5C14.5 10.0523 14.0523 10.5 13.5 10.5C12.9477 10.5 12.5 10.0523 12.5 9.5C12.5 8.94772 12.9477 8.5 13.5 8.5C14.0523 8.5 14.5 8.94772 14.5 9.5Z" stroke="#0072BD"/>
<path d="M8.5 8.5C8.5 9.05228 8.05228 9.5 7.5 9.5C6.94772 9.5 6.5 9.05228 6.5 8.5C6.5 7.94772 6.94772 7.5 7.5 7.5C8.05228 7.5 8.5 7.94772 8.5 8.5Z" stroke="#0072BD"/>
<rect x="0.5" y="0.5" width="18" height="14" stroke="var(--mw-icon-border-default-gray, #616161)" stroke-linejoin="round"/>

</svg>
