<svg width="21" height="16" viewBox="0 0 21 16" fill="none" xmlns="http://www.w3.org/2000/svg">
<path d="M10.5 1L3.5 5V10.5L10.5 14.5L17.5 10.5V5L10.5 1Z" fill="var(--mw-icon-background-default-white, white)"/>
<path d="M10.502 6.497L10.5041 1L17.3268 4.93223V10.4116L10.502 6.497Z" fill="var(--mw-icon-background-default-light-gray, #F5F5F5)"/>
<path d="M10.502 6.497L10.4998 1L3.67706 4.93724L3.67706 10.4116L10.502 6.497Z" fill="#E6E6E6"/>
<path d="M17.5038 10.2725V5.0611L10.5019 1.02246L3.5 5.00022" stroke="var(--mw-icon-background-default-dark-gray, #A6A6A6)" stroke-linecap="round" stroke-linejoin="round"/>
<path d="M3.5 5V10.3281L10.5 14.3697L17.5 10.33" stroke="var(--mw-icon-border-default-gray, #616161)" stroke-linecap="round" stroke-linejoin="round"/>
<path d="M14.5 3.59038C14.5 3.59038 6.30726 2.92711 5.80458 5.1941C5.30189 7.4611 8.97954 5.19411 9.6966 7.08987C10.4137 8.98564 4.5 8.42146 4.5 8.42146" stroke="#0072BD" stroke-miterlimit="10" stroke-linecap="square"/>
<path d="M16.4999 7.80176C15.3618 9.37865 13.6653 10.2196 10.926 9.95003" stroke="#0072BD" stroke-miterlimit="10" stroke-linecap="square"/>

</svg>
