<svg width="20" height="16" viewBox="0 0 20 16" fill="none" xmlns="http://www.w3.org/2000/svg">
<rect x="0.5" y="0.5" width="18" height="14" fill="var(--mw-icon-background-default-white, white)"/>
<path d="M0.5 11.5C2.5 10.1667 6.5 9 8 14.5M0.5 6.49999C1.33333 5.33332 3.9 3.69999 7.5 6.49999C11.1 9.29999 13.1667 12.6667 14 14.5M0.5 2.49998C2.16667 1.66665 6.6 1.29999 11 6.49999C15.4 11.7 17.5 12 18.5 11.5M12.5 0.5C12.8333 2.66667 14.5 6.5 18.5 6" stroke="#0072BD"/>
<path d="M9.72657 10.4722L11.7469 8.99999L11.6166 10.9507L9.72657 10.4722Z" fill="#0072BD"/>
<path d="M9.2234 6.47222L11.2438 4.99999L11.1134 6.9507L9.2234 6.47222Z" fill="#0072BD"/>
<path d="M13.7266 5.47222L15.7469 3.99999L15.6166 5.9507L13.7266 5.47222Z" fill="#0072BD"/>
<rect x="0.5" y="0.5" width="18" height="14" stroke="var(--mw-icon-border-default-gray, #616161)" stroke-linejoin="round"/>

</svg>
