<svg width="20" height="16" viewBox="0 0 20 16" fill="none" xmlns="http://www.w3.org/2000/svg">
<rect x="0.5" y="0.5" width="18" height="14" fill="var(--mw-icon-background-default-white, white)"/>
<path d="M18 4.5H1" stroke="#BFBFBF"/>
<path d="M1 5.5H1.93821C1.97608 5.5 2.0107 5.47861 2.02764 5.44474L2.39226 4.71585C2.43212 4.63618 2.5484 4.64446 2.57657 4.72897L2.94908 5.8465C2.97259 5.91702 3.06209 5.93815 3.11466 5.88559L4.41399 4.58625C4.45861 4.54163 4.5329 4.54899 4.56791 4.60149L5.43258 5.89851C5.46759 5.95101 5.54188 5.95837 5.5865 5.91375L7.40666 4.09358C7.45359 4.04665 7.53238 4.05762 7.56471 4.11558L8.69984 6.15089C8.73857 6.22033 8.83891 6.21899 8.87578 6.14855L10.0002 4L10.1211 3.75818C10.2155 3.56937 10.5 3.63652 10.5 3.84758V6.4C10.5 6.45523 10.5448 6.5 10.6 6.5H18" stroke="#0072BD"/>
<path d="M18 10.5H1" stroke="#BFBFBF"/>
<path d="M0.5 11.5L2.23317 10.2193C2.28565 10.1806 2.36061 10.2016 2.38521 10.2621L3.35846 12.6524C3.3971 12.7473 3.53648 12.7296 3.55018 12.628L3.99535 9.32783C4.00859 9.22973 4.14104 9.20843 4.18437 9.29743L5.37019 11.7333C5.4121 11.8194 5.53938 11.8031 5.55816 11.7092L5.98392 9.58039C5.99327 9.53365 6.03431 9.5 6.08198 9.5H7.43462C7.47434 9.5 7.51029 9.5235 7.52623 9.55989L8.59952 12.0108C8.6341 12.0898 8.7457 12.0909 8.78189 12.0127L9.89528 9.60516C9.90559 9.58286 9.91993 9.56266 9.93756 9.54555L10.1608 9.32906C10.2876 9.20603 10.5 9.29591 10.5 9.47262V12.4C10.5 12.4552 10.5448 12.5 10.6 12.5H18" stroke="#0072BD"/>
<rect x="0.5" y="0.5" width="18" height="14" stroke="var(--mw-icon-border-default-gray, #616161)" stroke-linejoin="round"/>

</svg>
