<svg width="21" height="16" viewBox="0 0 21 16" fill="none" xmlns="http://www.w3.org/2000/svg">
<path d="M10.5 1L3.5 5V10.5L10.5 14.5L17.5 10.5V5L10.5 1Z" fill="var(--mw-icon-background-default-white, white)"/>
<path d="M10.502 6.497L10.5041 1L17.3268 4.93223V10.4116L10.502 6.497Z" fill="var(--mw-icon-background-default-light-gray, #F5F5F5)"/>
<path d="M10.502 6.497L10.4998 1L3.67706 4.93724L3.67706 10.4116L10.502 6.497Z" fill="#E6E6E6"/>
<path d="M17.5038 10.2725V5.0611L10.5019 1.02246L3.5 5.00022" stroke="var(--mw-icon-background-default-dark-gray, #A6A6A6)" stroke-linecap="round" stroke-linejoin="round"/>
<path d="M3.5 5V10.3281L10.5 14.3697L17.5 10.33" stroke="var(--mw-icon-border-default-gray, #616161)" stroke-linecap="round" stroke-linejoin="round"/>
<path d="M15.0067 9.27285C15.0067 9.27285 13.937 8.70559 13.0402 8.86235C11.9479 9.0533 10.9518 8.58575 10.2923 9.46311C9.93189 9.94266 9.6333 10.2751 9.6333 11.0163C9.6333 11.3055 9.75857 11.4777 9.9269 11.6319C10.0952 11.7861 10.4259 12.0158 10.4259 12.0158" stroke="#2E87F7"/>
<mask id="path-7-inside-1_11988_32935" fill="var(--mw-icon-background-default-white, white)">
<ellipse cx="12.1405" cy="9.94819" rx="1.29287" ry="0.646435"/>
</mask>
<path d="M12.4334 9.94819C12.4334 9.75059 12.5171 9.61457 12.5683 9.55397C12.6141 9.49986 12.6412 9.49404 12.6075 9.51086C12.5397 9.54479 12.376 9.59463 12.1405 9.59463V11.5946C12.6191 11.5946 13.1019 11.4998 13.5019 11.2997C13.8422 11.1296 14.4334 10.7095 14.4334 9.94819H12.4334ZM12.1405 9.59463C11.9051 9.59463 11.7414 9.54479 11.6735 9.51086C11.6399 9.49404 11.6669 9.49986 11.7127 9.55397C11.764 9.61457 11.8477 9.75059 11.8477 9.94819H9.84766C9.84766 10.7095 10.4388 11.1296 10.7791 11.2997C11.1792 11.4998 11.6619 11.5946 12.1405 11.5946V9.59463ZM11.8477 9.94819C11.8477 10.1458 11.764 10.2818 11.7127 10.3424C11.6669 10.3965 11.6399 10.4023 11.6735 10.3855C11.7414 10.3516 11.9051 10.3018 12.1405 10.3018V8.30176C11.6619 8.30176 11.1792 8.39663 10.7791 8.59667C10.4388 8.7668 9.84766 9.18686 9.84766 9.94819H11.8477ZM12.1405 10.3018C12.376 10.3018 12.5397 10.3516 12.6075 10.3855C12.6412 10.4023 12.6141 10.3965 12.5683 10.3424C12.5171 10.2818 12.4334 10.1458 12.4334 9.94819H14.4334C14.4334 9.18686 13.8422 8.7668 13.5019 8.59667C13.1019 8.39663 12.6191 8.30176 12.1405 8.30176V10.3018Z" fill="#4852F4" mask="url(#path-7-inside-1_11988_32935)"/>
<path d="M12.1149 8.00781C11.6332 8.00781 11.3189 8.2968 11.3188 8.64229C11.3188 9.28641 11.7352 10.0099 12.03 10.0099C12.3248 10.0099 12.5518 9.34439 13.0189 8.36232C13.1675 8.04994 12.5966 8.00781 12.1149 8.00781Z" fill="#3E26A8"/>
<path d="M13.6258 6.80299C13.7795 7.16402 13.8651 7.79145 13.8651 7.79145L15.7767 6.70328L10.3668 3.68799L9.31445 4.2816L11.6552 5.31368C11.6552 5.31368 12.2503 5.34591 12.5816 5.51031C12.8141 5.6257 12.9249 5.72978 13.1162 5.90523C13.4293 6.1923 13.4594 6.41222 13.6258 6.80299Z" fill="#12B1D6"/>
<path d="M13.332 7.36833C13.4266 7.61375 13.4755 7.76102 13.4142 8.01683C13.3881 8.12568 13.0553 8.29335 13.0553 8.29335C13.0553 8.29335 12.9821 8.14173 12.7022 8.07523C12.4547 8.01642 11.9426 7.98997 11.6839 8.14173C11.1702 8.44303 11.554 8.84945 11.2339 8.68096C11.0894 8.60493 11.0783 8.52968 11.0218 8.37653C10.9662 8.22598 10.9486 8.09902 10.9555 7.93869C10.9706 7.58694 11.0062 7.40528 11.2339 7.13675C11.5092 6.812 11.7995 6.70337 12.2252 6.71298C12.5324 6.71992 12.7291 6.75352 12.9821 6.92785C13.1876 7.06947 13.2634 7.19067 13.332 7.36833Z" fill="#4852F4"/>
<path d="M12.8313 5.64499L12.4729 5.43655L12.1885 5.354C11.9819 5.38913 10.8878 4.63071 10.7757 4.65743C10.604 4.69833 10.3154 5.17555 9.72664 5.01676C9.33882 5.15306 8.88854 5.01676 8.87168 5.01676C8.85482 5.01676 7.81205 5.21179 7.54085 5.15277L6.53896 5.60114L6.20508 5.88263L6.43465 6.57704L8.11185 7.06736C8.44488 7.08984 9.28486 6.73247 9.32195 6.73247C9.35905 6.73247 9.92078 7.623 10.0402 7.70309L10.6582 8.16015C10.8662 8.07865 11.6995 6.82943 11.7164 6.82943H12.766C12.766 6.82943 13.6864 7.31139 13.8234 6.95926C13.8486 6.89456 13.5936 6.39687 13.5169 6.29235C13.4195 6.15954 13.2445 5.97046 13.2445 5.97046L12.8313 5.64499Z" fill="#37C897"/>
<path d="M13.0452 6.45714C13.3023 6.49411 13.5443 6.49459 13.7588 6.82504C13.9228 7.07769 14.009 7.70223 14.009 7.70223L13.2921 8.11214C13.2797 8.1319 13.2635 8.12852 13.2635 8.12852L13.2921 8.11214C13.3098 8.08397 13.3197 8.00876 13.2635 7.80959C13.1463 7.3939 12.4413 7.35375 12.0532 7.3939C11.665 7.43406 11.1712 7.66728 11.0822 8.06569C11.0171 8.35718 11.0729 8.40584 11.0729 8.49547C10.9886 8.5179 10.6949 8.40229 10.5757 8.11639C10.5162 7.97354 10.5619 7.75013 10.5757 7.55619C10.6173 6.97412 11.6505 6.70707 11.9333 6.59894C12.3462 6.44109 12.788 6.42017 13.0452 6.45714Z" fill="#2E87F7"/>
<path d="M11.7109 8.69289C12.1101 8.74055 12.5455 8.57876 12.5455 8.57876L10.4342 9.93397L5.0918 6.7314L6.36176 6.16065C6.36176 6.16065 6.46668 6.44058 6.58008 6.44058C6.72606 6.47637 6.93305 6.20543 7.12442 6.25783C7.33605 6.31578 7.60837 6.99737 7.90524 6.94082C8.20211 6.88428 8.55269 6.3003 8.82257 6.25782C9.24722 6.19099 9.18556 6.37822 9.45516 6.51698C9.7072 6.6467 10.2403 6.19651 10.4254 6.39962C10.6262 6.61985 10.2674 7.01325 10.2674 7.21279C10.2674 7.41234 10.3391 7.73121 10.58 8.02671C10.8209 8.3222 10.7245 8.22229 10.9477 8.40044C11.1712 8.57876 11.3118 8.64522 11.7109 8.69289Z" fill="#12B1D6"/>
<path d="M9.78971 3.99914L10.4 3.64844L15.8434 6.78961L10.4 9.93398L4.95654 6.78961L6.28423 6.02225" stroke="#12B1D6" stroke-linejoin="round"/>
<path d="M12.528 5.40877C12.3846 5.23309 12.2994 5.1592 12.1834 5.04329C12.0675 4.92737 11.9012 4.87776 11.6933 4.87966C11.4221 4.88214 11.0742 4.77046 10.9672 4.86703C10.8862 4.94007 10.0332 5.41009 10.1436 5.61283C10.199 5.71445 10.7598 5.70006 11.0682 5.80635C11.3701 5.91037 11.7113 6.32312 11.8853 6.31076C12.1155 6.2944 12.4537 5.96542 12.6992 5.89127C12.9447 5.81712 13.0952 5.92426 13.1457 5.89127C13.1963 5.85828 12.6714 5.58445 12.528 5.40877Z" fill="#ABC739"/>
<path d="M11.8584 4.77605C12.0083 4.83221 12.1622 4.982 12.199 5.06597C12.2476 5.17694 12.0224 5.01879 11.8584 5.06597C11.6972 5.11235 11.655 5.47514 11.5547 5.48012C11.4544 5.48511 11.3724 5.27387 11.2106 5.21255C11.0654 5.15758 10.7748 5.19987 10.7446 5.14142C10.7055 5.06597 10.8904 4.89841 11.0217 4.80787C11.1523 4.71781 11.2994 4.70703 11.458 4.70703C11.6167 4.70703 11.6741 4.70703 11.8584 4.77605Z" fill="#FEC338"/>
<path d="M10.2465 4.38985C10.4225 4.49428 10.7807 4.60421 10.8054 4.65287C10.9079 4.85411 10.5999 5.00616 10.4098 5.12807C10.3492 5.16696 10.3475 5.21627 10.2821 5.22834C9.94095 5.29127 9.48217 5.02527 9.12281 5.12807C8.77399 5.22785 8.29147 6.14915 7.93245 6.20136C7.51015 6.26277 7.55998 5.38137 7.13335 5.37142C6.96249 5.36744 6.60019 5.92533 6.49407 5.79136C6.42075 5.6988 6.80786 5.03871 6.8644 4.93505C6.97545 4.73143 7.13335 4.47865 7.13335 4.47865C7.50174 4.42999 8.40433 4.46636 8.45437 4.43299C8.51693 4.39129 9.74441 3.94775 9.83825 3.94775C9.91331 3.94775 10.0705 4.28541 10.2465 4.38985Z" fill="#ABC739"/>
<path d="M8.32285 3.06759C7.76942 3.28952 7.36816 3.91137 6.98925 4.73105C6.61034 5.55072 7.3297 4.72242 7.54429 4.67727C7.73972 4.63615 8.0085 4.96195 8.43594 4.96195C8.86338 4.96195 8.90136 4.30616 9.24646 4.16557C9.59156 4.02497 10.0744 4.30352 10.0235 4.20175C9.55595 3.26672 9.06188 2.77123 8.32285 3.06759Z" fill="#FEC338"/>
<path d="M8.34205 2.13691C7.8298 2.43573 7.63207 3.26289 7.42098 3.86611C7.20989 4.46933 7.70756 3.83883 7.86739 3.8052C8.01294 3.77458 7.97657 3.91891 8.29492 3.91891C8.61327 3.91891 8.57286 3.16165 8.82989 3.05694C9.08692 2.95222 9.53417 3.46593 9.49627 3.39013C9.14806 2.69372 8.85429 1.83809 8.34205 2.13691Z" fill="#F9FB15"/>

</svg>
