<svg width="20" height="16" viewBox="0 0 20 16" fill="none" xmlns="http://www.w3.org/2000/svg">
<path d="M9.5 1L2.5 5V10.5L9.5 14.5L16.5 10.5V5L9.5 1Z" fill="var(--mw-icon-background-default-white, white)"/>
<path d="M9.50195 6.497L9.50409 1L16.3268 4.93223V10.4116L9.50195 6.497Z" fill="var(--mw-icon-background-default-light-gray, #F5F5F5)"/>
<path d="M9.50195 6.497L9.49981 1L2.67706 4.93724L2.67706 10.4116L9.50195 6.497Z" fill="#E6E6E6"/>
<path d="M16.5038 10.2722V5.06086L9.5019 1.02222L2.5 4.99997" stroke="var(--mw-icon-background-default-dark-gray, #A6A6A6)" stroke-linecap="round" stroke-linejoin="round"/>
<path d="M2.5 5V10.3281L9.5 14.3697L16.5 10.33" stroke="var(--mw-icon-border-default-gray, #616161)" stroke-linecap="round" stroke-linejoin="round"/>
<circle cx="12" cy="3" r="1" fill="#0072BD"/>
<circle cx="12" cy="4" r="1" fill="#0072BD"/>
<circle cx="7" cy="6" r="1" fill="#0072BD"/>
<circle cx="12.5" cy="5.5" r="1" stroke="#0072BD"/>
<circle cx="11.5" cy="7.5" r="1" stroke="#0072BD"/>
<circle cx="13.5" cy="9.5" r="1" stroke="#0072BD"/>
<circle cx="10.5" cy="6.5" r="1" stroke="#0072BD"/>
<circle cx="7.5" cy="8.5" r="1" stroke="#0072BD"/>
<circle cx="8.5" cy="11.5" r="1" stroke="#0072BD"/>
<circle cx="5.5" cy="8.5" r="1" stroke="#0072BD"/>
<circle cx="7.5" cy="10.5" r="1" stroke="#0072BD"/>

</svg>
