<svg width="20" height="16" viewBox="0 0 20 16" fill="none" xmlns="http://www.w3.org/2000/svg">
<rect x="0.5" y="0.5" width="18" height="14" fill="var(--mw-icon-background-default-white, #FFFFFF)"/>
<path d="M0.5 9.50004C0.5 9.50004 2.24436 6.51761 4.5 6.50001C6.90183 6.48127 8.5 8.50006 9.5 9.50004C10.5 10.5 12.5081 12.4898 14.5 12.5C16.6844 12.5111 18.5 9.30559 18.5 9.30559" stroke="#D95319"/>
<path d="M0.5 8C0.5 8 2 3.5 3.5 3.5C5 3.5 5.5 6 6 8C6.5 10 7.33708 11.5 8.5 11.5C9.66292 11.5 10.5 9.5 11 8C11.5 6.5 12.3371 4.5 13.5 4.5C14.6629 4.5 15.1604 5.82081 15.5 6.5C16 7.5 16.5 8.5 17.5 8.5C18.5 8.5 18.5 8 18.5 8" stroke="#0072BD"/>
<rect x="0.5" y="0.5" width="18" height="14" stroke="var(--mw-icon-border-default-gray, #616161)" stroke-linejoin="round"/>
</svg>
