<svg width="20" height="16" viewBox="0 0 20 16" fill="none" xmlns="http://www.w3.org/2000/svg">
<path d="M0.5 2.5C0.5 1.39543 1.39543 0.5 2.5 0.5H16.5C17.6046 0.5 18.5 1.39543 18.5 2.5V13.5C18.5 14.6046 17.6046 15.5 16.5 15.5H2.5C1.39543 15.5 0.5 14.6046 0.5 13.5V2.5Z" fill="var(--mw-icon-background-default-light-gray, #F5F5F5)" stroke="var(--mw-icon-border-default-gray, #616161)" stroke-linecap="round" stroke-linejoin="round"/>
<path d="M4 5H15V7H4V5Z" fill="var(--mw-icon-background-medium-yellow, #FFEF91)"/>
<path d="M17 8V3H15.0032V6.75C15.0032 6.88807 14.8913 7 14.7532 7H14.25C14.1119 7 14 6.88807 14 6.75V3H13V6.75C13 6.88807 12.8881 7 12.75 7H12.25C12.1119 7 12 6.88807 12 6.75V3H11V6.75C11 6.88807 10.8881 7 10.75 7H10.25C10.1119 7 10 6.88807 10 6.75V3H9V6.75C9 6.88807 8.88807 7 8.75 7H8.25C8.11193 7 8 6.88807 8 6.75V3H7V6.75C7 6.88807 6.88807 7 6.75 7H6.25C6.11193 7 6 6.88807 6 6.75V3H5V6.75C5 6.88807 4.88807 7 4.75 7H4.25C4.11193 7 4 6.88807 4 6.75V3H3V8H17Z" fill="var(--mw-icon-background-default-dark-gray, #A6A6A6)"/>
<path d="M12.5 12.5V8.5H6.5V12.5H12.5Z" fill="var(--mw-icon-background-default-light-gray, #F5F5F5)" stroke="var(--mw-icon-glyph-content-dark-gray, #333333)" stroke-linejoin="round"/>
<path d="M16.5 8.5H12.5V11.5H16.5V8.5Z" fill="var(--mw-icon-background-default-medium-gray, #D9D9D9)"/>
<path d="M6.5 8.5H2.5V11.5H6.5V8.5Z" fill="var(--mw-icon-background-default-medium-gray, #D9D9D9)"/>
<path d="M16.5 8.5H12.5V11.5H16.5V8.5ZM16.5 8.5V3M2.5 8.5H6.5V11.5H2.5V8.5ZM2.5 8.5V3" stroke="var(--mw-icon-glyph-content-dark-gray, #333333)" stroke-linejoin="round"/>
</svg>
