<svg width="20" height="16" viewBox="0 0 20 16" fill="none" xmlns="http://www.w3.org/2000/svg">
<rect x="0.500122" y="0.5" width="18" height="14" fill="var(--mw-icon-background-default-white, #FFFFFF)"/>
<line x1="0.00012207" y1="7.5" x2="2.00012" y2="7.5" stroke="var(--mw-icon-background-default-dark-gray, #A6A6A6)"/>
<line x1="4.00012" y1="7.5" x2="6.00012" y2="7.5" stroke="var(--mw-icon-background-default-dark-gray, #A6A6A6)"/>
<line x1="8.00012" y1="7.5" x2="10.0001" y2="7.5" stroke="var(--mw-icon-background-default-dark-gray, #A6A6A6)"/>
<line x1="12.0001" y1="7.5" x2="14.0001" y2="7.5" stroke="var(--mw-icon-background-default-dark-gray, #A6A6A6)"/>
<line x1="16.0001" y1="7.5" x2="18.0001" y2="7.5" stroke="var(--mw-icon-background-default-dark-gray, #A6A6A6)"/>
<line x1="12.5001" y1="1" x2="12.5001" y2="3" stroke="var(--mw-icon-background-default-dark-gray, #A6A6A6)"/>
<line x1="12.5001" y1="5" x2="12.5001" y2="7" stroke="var(--mw-icon-background-default-dark-gray, #A6A6A6)"/>
<line x1="12.5001" y1="9" x2="12.5001" y2="11" stroke="var(--mw-icon-background-default-dark-gray, #A6A6A6)"/>
<line x1="12.5001" y1="13" x2="12.5001" y2="15" stroke="var(--mw-icon-background-default-dark-gray, #A6A6A6)"/>
<path d="M4.00012 6H3.00012V7H4.00012V6Z" fill="#0072BD"/>
<path d="M5.00012 7H4.00012V8H5.00012V7Z" fill="#0072BD"/>
<path d="M6.00012 6H5.00012V7H6.00012V6Z" fill="#0072BD"/>
<path d="M4.00012 8H3.00012V9H4.00012V8Z" fill="#0072BD"/>
<path d="M6.00012 8H5.00012V9H6.00012V8Z" fill="#0072BD"/>
<path d="M8.00012 2H7.00012V3H8.00012V2Z" fill="#0072BD"/>
<path d="M9.00012 3H8.00012V4H9.00012V3Z" fill="#0072BD"/>
<path d="M10.0001 2H9.00012V3H10.0001V2Z" fill="#0072BD"/>
<path d="M8.00012 4H7.00012V5H8.00012V4Z" fill="#0072BD"/>
<path d="M10.0001 4H9.00012V5H10.0001V4Z" fill="#0072BD"/>
<path d="M8.00012 10H7.00012V11H8.00012V10Z" fill="#0072BD"/>
<path d="M9.00012 11H8.00012V12H9.00012V11Z" fill="#0072BD"/>
<path d="M10.0001 10H9.00012V11H10.0001V10Z" fill="#0072BD"/>
<path d="M8.00012 12H7.00012V13H8.00012V12Z" fill="#0072BD"/>
<path d="M10.0001 12H9.00012V13H10.0001V12Z" fill="#0072BD"/>
<rect x="0.500122" y="0.5" width="18" height="14" stroke="var(--mw-icon-border-default-gray, #616161)" stroke-linejoin="round"/>
</svg>
