<svg width="20" height="16" viewBox="0 0 20 16" fill="none" xmlns="http://www.w3.org/2000/svg">
<rect x="0.5" y="0.5" width="18" height="14" fill="var(--mw-icon-object-secondary, #FFFFFE)" stroke="var(--mw-icon-border-default-gray, #616161)" stroke-linejoin="round"/>
<rect x="14" y="8" width="1" height="1" transform="rotate(90 14 8)" fill="var(--mw-icon-object-primary, #616160)"/>
<rect x="13" y="8" width="1" height="1" transform="rotate(90 13 8)" fill="var(--mw-icon-object-primary, #616160)"/>
<path fill-rule="evenodd" clip-rule="evenodd" d="M5 5L5 8H4V5H5ZM6 8L6 10H5L5 8H6ZM6 8V5H7L7 8H6Z" fill="var(--mw-icon-object-primary, #616160)"/>
<path d="M14 10L14 6L15 6L15 10H14Z" fill="var(--mw-icon-object-primary, #616160)"/>
<path d="M13 6L13 5L14 5V6H13Z" fill="var(--mw-icon-object-primary, #616160)"/>
<path d="M12 10L12 6L13 6L13 10H12Z" fill="var(--mw-icon-object-primary, #616160)"/>
<path d="M8 5H9V10H8V5Z" fill="var(--mw-icon-object-primary, #616160)"/>
<path d="M9 9H11V10H9V9Z" fill="var(--mw-icon-object-primary, #616160)"/>
<path d="M10 7H11V9H10V7Z" fill="var(--mw-icon-object-primary, #616160)"/>
<path d="M9 5H11V6H9V5Z" fill="var(--mw-icon-object-primary, #616160)"/>
<path d="M9 7H10V8L9 7Z" fill="var(--mw-icon-object-primary, #616160)"/>
</svg>
