<svg width="20" height="17" viewBox="0 0 20 17" fill="none" xmlns="http://www.w3.org/2000/svg">
<path d="M9.5 1.99023L2.5 5.99023V11.4902L9.5 15.4902L16.5 11.4902V5.99023L9.5 1.99023Z" fill="var(--mw-icon-background-default-white, #FFFFFF)"/>
<path d="M9.50195 7.48724L9.50409 1.99023L16.3268 5.92247V11.4019L9.50195 7.48724Z" fill="var(--mw-icon-background-default-light-gray, #F5F5F5)"/>
<path d="M9.50195 7.48724L9.49981 1.99023L2.67706 5.92747L2.67706 11.4019L9.50195 7.48724Z" fill="#E6E6E6"/>
<path d="M16.5038 11.2625V6.05109L9.5019 2.01245L2.5 5.99021" stroke="var(--mw-icon-background-default-dark-gray, #A6A6A6)" stroke-linecap="round" stroke-linejoin="round"/>
<path d="M2.5 5.99023V11.3184L9.5 15.3599L16.5 11.3202" stroke="var(--mw-icon-border-default-gray, #616161)" stroke-linecap="round" stroke-linejoin="round"/>
<path d="M4.50195 10.1246V7.65598L9.56632 4.61165L14.502 7.48084V10.1246L9.48927 12.8945L4.50195 10.1246Z" fill="#EDB120"/>
<path d="M4.50195 7.65598V10.1246L9.48927 12.8945M4.50195 7.65598L9.56632 4.61165L14.502 7.48084M4.50195 7.65598L9.48927 10.3667M14.502 7.48084L9.48927 10.3667M14.502 7.48084V10.1246L9.48927 12.8945M9.48927 10.3667V12.8945" stroke="#745A26" stroke-linejoin="round"/>
<path d="M13.7432 9.99787L9.99222 12.0488L9.99223 10.6621L12.2037 9.3822L13.7432 9.99787Z" fill="#B3882A"/>
<path d="M12.375 8.89453L14.502 10.0318" stroke="#745A26"/>
</svg>
