<svg width="20" height="16" viewBox="0 0 20 16" fill="none" xmlns="http://www.w3.org/2000/svg">
<path d="M9.5 1L2.5 5V10.5L9.5 14.5L16.5 10.5V5L9.5 1Z" fill="var(--mw-icon-background-default-white, #FFFFFF)"/>
<path d="M9.50195 6.497L9.50409 1L16.3268 4.93223V10.4116L9.50195 6.497Z" fill="var(--mw-icon-background-default-light-gray, #F5F5F5)"/>
<path d="M9.50195 6.497L9.49981 1L2.67706 4.93724L2.67706 10.4116L9.50195 6.497Z" fill="#E6E6E6"/>
<path d="M16.5038 10.2722V5.06086L9.5019 1.02222L2.5 4.99997" stroke="var(--mw-icon-background-default-dark-gray, #A6A6A6)" stroke-linecap="round" stroke-linejoin="round"/>
<path d="M2.5 5V10.3281L9.5 14.3697L16.5 10.33" stroke="var(--mw-icon-border-default-gray, #616161)" stroke-linecap="round" stroke-linejoin="round"/>
<path d="M14.5 9.5L9.5 12.5L4.5 9.5V6H14.5V9.5Z" fill="#B3882A"/>
<path d="M14.5 9.5L9.5 12.5L4.5 9.5V6H14.5V9.5ZM14.5 9.5L11.5 7.5L7 8.5L11.5 11" stroke="#745A26" stroke-linejoin="round"/>
<path d="M4.50818 5.96965L9.45073 3L14.5 5.96965L11.6778 7.59406L9.5 8.76761V12.3877L4.50818 9.41815V5.96965Z" fill="#EDB120"/>
<path d="M4.50818 5.96965L4.25067 5.54106C4.10021 5.63146 4.00818 5.79413 4.00818 5.96965H4.50818ZM9.45073 3L9.70421 2.56901C9.5463 2.47614 9.35025 2.47706 9.19322 2.57141L9.45073 3ZM14.5 5.96965H15C15 5.79245 14.9062 5.62849 14.7535 5.53866L14.5 5.96965ZM9.5 12.3877L9.24437 12.8174C9.3989 12.9093 9.59088 12.9112 9.74717 12.8223C9.90346 12.7334 10 12.5675 10 12.3877H9.5ZM4.50818 9.41815H4.00818C4.00818 9.59445 4.10103 9.75772 4.25255 9.84786L4.50818 9.41815ZM11.6778 7.59406L11.915 8.03439L11.9272 8.0274L11.6778 7.59406ZM14 9.41815C14 9.69429 14.2239 9.91815 14.5 9.91815C14.7761 9.91815 15 9.69429 15 9.41815H14ZM4.76569 6.39824L9.70824 3.42859L9.19322 2.57141L4.25067 5.54106L4.76569 6.39824ZM9.19726 3.43099L14.2465 6.40063L14.7535 5.53866L9.70421 2.56901L9.19726 3.43099ZM9.74447 8.33145L4.75265 5.53349L4.26371 6.40581L9.25553 9.20377L9.74447 8.33145ZM9 8.76761V12.3877H10V8.76761H9ZM4.00818 5.96965V9.41815H5.00818V5.96965H4.00818ZM9.75563 11.958L4.76381 8.98843L4.25255 9.84786L9.24437 12.8174L9.75563 11.958ZM14.2506 5.5363L11.4283 7.16071L11.9272 8.0274L14.7494 6.40299L14.2506 5.5363ZM11.4406 7.1539L9.26281 8.32745L9.73719 9.20777L11.9149 8.03422L11.4406 7.1539ZM14 5.96965V9.41815H15V5.96965H14Z" fill="#745A26"/>
<path d="M11.5002 11.0182L11.4886 7.68826L7.90601 5.58395L9.37146 4.71729L12.9607 6.93054L13.0002 10.2492L11.5002 11.0182Z" fill="#EDB120"/>
<path d="M11.5002 11.0182L11.0002 11.02C11.0008 11.1938 11.0917 11.3549 11.2402 11.4453C11.3887 11.5357 11.5736 11.5425 11.7283 11.4631L11.5002 11.0182ZM13.0002 10.2492L13.2283 10.6941L13.5038 10.5529L13.5002 10.2432L13.0002 10.2492ZM12.9607 6.93054L13.4606 6.92459L13.4574 6.6494L13.2231 6.50495L12.9607 6.93054ZM9.37146 4.71729L9.6339 4.29169L9.37686 4.1332L9.11694 4.28691L9.37146 4.71729ZM7.90601 5.58395L7.65149 5.15358L6.92128 5.58542L7.65277 6.01508L7.90601 5.58395ZM10.9886 7.69001L11.0002 11.02L12.0002 11.0165L11.9885 7.68651L10.9886 7.69001ZM11.7283 11.4631L13.2283 10.6941L12.7721 9.80426L11.2721 10.5733L11.7283 11.4631ZM13.5002 10.2432L13.4606 6.92459L12.4607 6.93649L12.5002 10.2552L13.5002 10.2432ZM13.2231 6.50495L9.6339 4.29169L9.10903 5.14288L12.6982 7.35613L13.2231 6.50495ZM9.11694 4.28691L7.65149 5.15358L8.16053 6.01432L9.62598 5.14766L9.11694 4.28691ZM7.65277 6.01508L11.2353 8.11939L11.7418 7.25713L8.15924 5.15282L7.65277 6.01508ZM11.7174 8.13283L13.1895 7.37511L12.7319 6.48598L11.2597 7.24369L11.7174 8.13283Z" fill="#745A26"/>
</svg>
