<svg width="20" height="16" viewBox="0 0 20 16" fill="none" xmlns="http://www.w3.org/2000/svg">
<path d="M6.5 4.5H13.5V11.5H6.5V4.5Z" fill="#BFBFBF" stroke="var(--mw-icon-border-default-gray, #616161)" stroke-linejoin="round"/>
<path d="M13.297 1C12.8848 1.69811 12.5697 1.96226 12.0121 1.96226C11.5273 1.96226 11.1879 1.84906 10.1455 1.43396C9.56364 1.20755 8.98182 1.09434 8.44849 1.09434C7.23636 1.09434 6.36364 1.77359 6 3H6.70303C6.9697 2.41509 7.38182 2.13208 7.93939 2.13208C8.37576 2.13208 8.5697 2.20755 9.49091 2.54717C10.4848 2.92453 10.8485 3 11.4545 3C12.7879 3 13.4909 2.43396 14 1H13.297Z" fill="var(--mw-icon-object-primary, #616160)"/>

</svg>
