<svg width="20" height="16" viewBox="0 0 20 16" fill="none" xmlns="http://www.w3.org/2000/svg">
<path d="M4.50012 8C4.50012 7.72386 4.72398 7.5 5.00012 7.5H16.0001C16.2763 7.5 16.5001 7.72386 16.5001 8V13C16.5001 13.2761 16.2763 13.5 16.0001 13.5H5.00012C4.72398 13.5 4.50012 13.2761 4.50012 13V8Z" fill="#00A3A3" stroke="#02555C"/>
<rect x="3.50012" y="9.5" width="2" height="2" fill="var(--mw-icon-background-default-dark-gray, #A6A6A6)" stroke="var(--mw-icon-border-default-gray, #616161)" stroke-linejoin="round"/>
<path d="M6.58594 10.5L8.00015 9.08582L9.41436 10.5L8.00015 11.9142L6.58594 10.5Z" fill="var(--mw-icon-glyph-content-dark-gray, #333333)"/>
<path d="M12.5001 10.5C12.5001 11.0523 12.0524 11.5 11.5001 11.5C10.9478 11.5 10.5001 11.0523 10.5001 10.5C10.5001 9.94772 10.9478 9.5 11.5001 9.5C12.0524 9.5 12.5001 9.94772 12.5001 10.5ZM12.5001 10.5C12.5001 11.0523 12.9478 11.5 13.5001 11.5C14.0524 11.5 14.5001 11.0523 14.5001 10.5C14.5001 9.94772 14.0524 9.5 13.5001 9.5C12.9478 9.5 12.5001 9.94772 12.5001 10.5Z" stroke="var(--mw-icon-background-default-white, #FFFFFF)"/>
<rect x="9.00012" y="5" width="2" height="1" rx="0.1" fill="#00A3A3"/>
<rect x="12.0001" y="4" width="1" height="1" rx="0.1" fill="#00A3A3"/>
<rect x="13.0001" y="2" width="1" height="1" rx="0.1" fill="#00A3A3"/>
<rect x="14.0001" y="3" width="1" height="1" rx="0.1" fill="#00A3A3"/>
<rect x="7.00012" y="4" width="1" height="1" rx="0.1" fill="#00A3A3"/>
<rect x="6.00012" y="2" width="1" height="1" rx="0.1" fill="#00A3A3"/>
<rect x="5.00012" y="3" width="1" height="1" rx="0.1" fill="#00A3A3"/>
<rect x="8.00012" y="3" width="4" height="1" rx="0.1" fill="#00A3A3"/>
<rect x="7.00012" y="1" width="6" height="1" rx="0.1" fill="#00A3A3"/>
</svg>
