<svg width="20" height="16" viewBox="0 0 20 16" fill="none" xmlns="http://www.w3.org/2000/svg">
<rect x="0.5" y="0.5" width="18" height="14" fill="var(--mw-icon-background-default-white, white)"/>
<circle cx="9.5" cy="7.5" r="6" stroke="var(--mw-icon-glyph-content-gray, #616162)"/>
<path fill-rule="evenodd" clip-rule="evenodd" d="M9 9.5V5.5C9 4.11929 10.1193 3 11.5 3C12.8807 3 14 4.11929 14 5.5V9.5C14 10.8807 12.8807 12 11.5 12C10.1193 12 9 10.8807 9 9.5Z" fill="#EDB120"/>
<circle cx="6.5" cy="7.5" r="1" stroke="#0072BD"/>
<path d="M11 4H10V5H11V4Z" fill="#0072BD"/>
<path d="M12 5H11V6H12V5Z" fill="#0072BD"/>
<path d="M13 4H12V5H13V4Z" fill="#0072BD"/>
<path d="M11 6H10V7H11V6Z" fill="#0072BD"/>
<path d="M13 6H12V7H13V6Z" fill="#0072BD"/>
<path d="M11 8H10V9H11V8Z" fill="#0072BD"/>
<path d="M12 9H11V10H12V9Z" fill="#0072BD"/>
<path d="M13 8H12V9H13V8Z" fill="#0072BD"/>
<path d="M11 10H10V11H11V10Z" fill="#0072BD"/>
<path d="M13 10H12V11H13V10Z" fill="#0072BD"/>
<rect x="0.5" y="0.5" width="18" height="14" stroke="var(--mw-icon-border-default-gray, #616161)" stroke-linejoin="round"/>

</svg>
