<svg width="20" height="16" viewBox="0 0 20 16" fill="none" xmlns="http://www.w3.org/2000/svg">
<rect x="0.5" y="0.5" width="18" height="14" fill="var(--mw-icon-background-default-white, white)"/>
<path d="M9.5 5.99969L9.5 8.99969M9.5 1.99969L9.5 4.99969M9.5 9.99969L9.5 12.9997" stroke="#0072BD"/>
<path d="M11 7.4997L8 7.49969M14 7.4997H12M7 7.4997H5" stroke="#0072BD"/>
<path d="M12.3284 4.67157C13.8905 6.23367 13.8905 8.76633 12.3284 10.3284C10.7663 11.8905 8.23367 11.8905 6.67157 10.3284C5.10948 8.76633 5.10948 6.23367 6.67157 4.67157C8.23367 3.10948 10.7663 3.10948 12.3284 4.67157Z" stroke="#0072BD" stroke-dasharray="3 3"/>
<circle cx="16.5" cy="7.49969" r="1" stroke="#0072BD"/>
<circle cx="2.5" cy="7.49969" r="1" stroke="#0072BD"/>
<mask id="path-7-inside-1_8434_29171" fill="var(--mw-icon-background-default-white, white)">
<path d="M15 2.99969H16V3.99969H15V2.99969Z"/>
<path d="M14 1.99969H15V2.99969H14V1.99969Z"/>
<path d="M16 3.99969H17V4.99969H16V3.99969Z"/>
<path d="M16 1.99969H17V2.99969H16V1.99969Z"/>
<path d="M14 3.99969H15V4.99969H14V3.99969Z"/>
</mask>
<path d="M15 2.99969H16V3.99969H15V2.99969Z" fill="#0072BD"/>
<path d="M14 1.99969H15V2.99969H14V1.99969Z" fill="#0072BD"/>
<path d="M16 3.99969H17V4.99969H16V3.99969Z" fill="#0072BD"/>
<path d="M16 1.99969H17V2.99969H16V1.99969Z" fill="#0072BD"/>
<path d="M14 3.99969H15V4.99969H14V3.99969Z" fill="#0072BD"/>
<path d="M14 1.99969V0.999695H13V1.99969H14ZM15 1.99969H16V0.999695H15V1.99969ZM14 2.99969H13V3.99969H14V2.99969ZM17 3.99969H18V2.99969H17V3.99969ZM17 4.99969V5.99969H18V4.99969H17ZM16 4.99969H15V5.99969H16V4.99969ZM16 1.99969V0.999695H15V1.99969H16ZM17 1.99969H18V0.999695H17V1.99969ZM17 2.99969V3.99969H18V2.99969H17ZM14 3.99969V2.99969H13V3.99969H14ZM15 4.99969V5.99969H16V4.99969H15ZM14 4.99969H13V5.99969H14V4.99969ZM15 3.99969H16V1.99969H15V3.99969ZM15 2.99969V3.99969H17V2.99969H15ZM16 2.99969H15V4.99969H16V2.99969ZM16 3.99969V2.99969H14V3.99969H16ZM14 2.99969H15V0.999695H14V2.99969ZM14 1.99969V2.99969H16V1.99969H14ZM15 1.99969H14V3.99969H15V1.99969ZM15 2.99969V1.99969H13V2.99969H15ZM16 4.99969H17V2.99969H16V4.99969ZM16 3.99969V4.99969H18V3.99969H16ZM17 3.99969H16V5.99969H17V3.99969ZM17 4.99969V3.99969H15V4.99969H17ZM16 2.99969H17V0.999695H16V2.99969ZM16 1.99969V2.99969H18V1.99969H16ZM17 1.99969H16V3.99969H17V1.99969ZM17 2.99969V1.99969H15V2.99969H17ZM14 4.99969H15V2.99969H14V4.99969ZM14 3.99969V4.99969H16V3.99969H14ZM15 3.99969H14V5.99969H15V3.99969ZM15 4.99969V3.99969H13V4.99969H15Z" fill="#0072BD" mask="url(#path-7-inside-1_8434_29171)"/>
<mask id="path-9-inside-2_8434_29171" fill="var(--mw-icon-background-default-white, white)">
<path d="M15 10.9997H16V11.9997H15V10.9997Z"/>
<path d="M14 9.99969H15V10.9997H14V9.99969Z"/>
<path d="M16 11.9997H17V12.9997H16V11.9997Z"/>
<path d="M16 9.99969H17V10.9997H16V9.99969Z"/>
<path d="M14 11.9997H15V12.9997H14V11.9997Z"/>
</mask>
<path d="M15 10.9997H16V11.9997H15V10.9997Z" fill="#0072BD"/>
<path d="M14 9.99969H15V10.9997H14V9.99969Z" fill="#0072BD"/>
<path d="M16 11.9997H17V12.9997H16V11.9997Z" fill="#0072BD"/>
<path d="M16 9.99969H17V10.9997H16V9.99969Z" fill="#0072BD"/>
<path d="M14 11.9997H15V12.9997H14V11.9997Z" fill="#0072BD"/>
<path d="M14 9.99969V8.99969H13V9.99969H14ZM15 9.99969H16V8.99969H15V9.99969ZM14 10.9997H13V11.9997H14V10.9997ZM17 11.9997H18V10.9997H17V11.9997ZM17 12.9997V13.9997H18V12.9997H17ZM16 12.9997H15V13.9997H16V12.9997ZM16 9.99969V8.99969H15V9.99969H16ZM17 9.99969H18V8.99969H17V9.99969ZM17 10.9997V11.9997H18V10.9997H17ZM14 11.9997V10.9997H13V11.9997H14ZM15 12.9997V13.9997H16V12.9997H15ZM14 12.9997H13V13.9997H14V12.9997ZM15 11.9997H16V9.99969H15V11.9997ZM15 10.9997V11.9997H17V10.9997H15ZM16 10.9997H15V12.9997H16V10.9997ZM16 11.9997V10.9997H14V11.9997H16ZM14 10.9997H15V8.99969H14V10.9997ZM14 9.99969V10.9997H16V9.99969H14ZM15 9.99969H14V11.9997H15V9.99969ZM15 10.9997V9.99969H13V10.9997H15ZM16 12.9997H17V10.9997H16V12.9997ZM16 11.9997V12.9997H18V11.9997H16ZM17 11.9997H16V13.9997H17V11.9997ZM17 12.9997V11.9997H15V12.9997H17ZM16 10.9997H17V8.99969H16V10.9997ZM16 9.99969V10.9997H18V9.99969H16ZM17 9.99969H16V11.9997H17V9.99969ZM17 10.9997V9.99969H15V10.9997H17ZM14 12.9997H15V10.9997H14V12.9997ZM14 11.9997V12.9997H16V11.9997H14ZM15 11.9997H14V13.9997H15V11.9997ZM15 12.9997V11.9997H13V12.9997H15Z" fill="#0072BD" mask="url(#path-9-inside-2_8434_29171)"/>
<rect x="0.5" y="0.5" width="18" height="14" stroke="var(--mw-icon-border-default-gray, #616161)" stroke-linejoin="round"/>

</svg>
