<svg width="16" height="16" viewBox="1 1 14 14" fill="none" xmlns="http://www.w3.org/2000/svg">
<path d="M10.5 10.5H5.5V9C5.5 8.72386 5.72386 8.5 6 8.5H10C10.2761 8.5 10.5 8.72386 10.5 9V10.5Z" stroke="#000000" stroke-linecap="round"/>
<path d="M13.9485 14.5H2.00001C1.72386 14.5 1.5 14.2761 1.50001 14L1.50007 11C1.50008 10.7239 1.72393 10.5 2.00007 10.5H13.9926C14.2716 10.5 14.4966 10.7284 14.4925 11.0074L14.4484 14.0074C14.4444 14.2806 14.2217 14.5 13.9485 14.5Z" stroke="#000000" stroke-linecap="round"/>
<circle cx="11.5" cy="12.5" r="0.5" fill="#000000"/>
<path d="M12.5 6.5L14.5 3.5L10.5 3.5L12.5 6.5Z" fill="#000000"/>
<path d="M12.5 1.5V4.5" stroke="#000000" stroke-linecap="square"/>
<path d="M3.5 1L5.5 4L1.5 4L3.5 1Z" fill="#000000"/>
<path d="M3.5 6V3" stroke="#000000" stroke-linecap="square"/>
</svg>
