<?xml version="1.0" encoding="utf-8"?>
<!-- Generator: Adobe Illustrator 22.1.0, SVG Export Plug-In . SVG Version: 6.00 Build 0)  -->
<svg version="1.1" id="Layer_1" xmlns:dc="http://purl.org/dc/elements/1.1/" xmlns:xl="http://www.w3.org/1999/xlink"
	 xmlns="http://www.w3.org/2000/svg" xmlns:xlink="http://www.w3.org/1999/xlink" x="0px" y="0px" viewBox="0 0 16 16"
	 style="enable-background:new 0 0 16 16;" xml:space="preserve">
<style type="text/css">
	.st0{fill:#4db3ff;stroke:#d9efff;stroke-miterlimit:10;}
	.st1{fill:#4db3ff;stroke:#d9efff;stroke-miterlimit:10;}
	.st2{fill:#4db3ff;stroke:#d9efff;stroke-linecap:round;stroke-linejoin:round;}
</style>
<title>Layer 1</title>
<path class="st0" d="M1,0.5h14c0.3,0,0.5,0.2,0.5,0.5v14c0,0.3-0.2,0.5-0.5,0.5H1c-0.3,0-0.5-0.2-0.5-0.5V1C0.5,0.7,0.7,0.5,1,0.5z"
	/>
<line class="st1" x1="0" y1="3" x2="16" y2="3"/>
<path class="st2" d="M4,5.5h4C8.5,5.5,8.5,6,8.5,6v4c0,0.5-0.5,0.5-0.5,0.5H4c-0.5,0-0.5-0.5-0.5-0.5V6L4,5.5z"/>
<path class="st2" d="M8,8.5h4c0.5,0,0.5,0.5,0.5,0.5v4c0,0.5-0.5,0.5-0.5,0.5H8c-0.5,0-0.5-0.5-0.5-0.5V9L8,8.5z"/>
</svg>
