<svg width="16" height="15" viewBox="0 0 24 25" fill="none" xmlns="http://www.w3.org/2000/svg">
<path d="M5.39551 12V2.39583C5.39551 1.84354 5.84322 1.39583 6.39551 1.39583H21.8122C22.3645 1.39583 22.8122 1.84354 22.8122 2.39583V17.8125C22.8122 18.3648 22.3645 18.8125 21.8122 18.8125H15" stroke="#888889" stroke-linecap="round" stroke-dasharray="2 2"/>
<path d="M13 8L20 4L16 11L13 8Z" fill="#616161" stroke="#616161" stroke-linejoin="round"/>
<path d="M13 24.5L1 24.5C0.723858 24.5 0.5 24.2761 0.5 24L0.499999 16.5L13.5 16.5L13.5 24C13.5 24.2761 13.2761 24.5 13 24.5Z" fill="white" stroke="#616161" stroke-linecap="round"/>
<path d="M13.5 16.5L0.5 16.5L0.5 14C0.5 13.7239 0.723858 13.5 1 13.5L13 13.5C13.2761 13.5 13.5 13.7239 13.5 14L13.5 16.5Z" fill="#B4DEFF" stroke="#1656A7" stroke-linecap="round"/>
</svg>
