<svg width="12" height="14" viewBox="0 0 12 14" fill="none" xmlns="http://www.w3.org/2000/svg">
<path d="M6.25 5.75C7.63071 5.75 8.75 6.86929 8.75 8.25C8.75 9.63071 7.63071 10.75 6.25 10.75C4.86929 10.75 3.75 9.63071 3.75 8.25C3.75 7.97386 3.52614 7.75 3.25 7.75H2.25C1.97386 7.75 1.75 7.97386 1.75 8.25C1.75 10.7353 3.76472 12.75 6.25 12.75C8.73528 12.75 10.75 10.7353 10.75 8.25C10.75 5.76472 8.73528 3.75 6.25 3.75H5.75L5.75 1.5L1.25 4.75L5.75 8L5.75 5.75H6.25Z" fill="#D9D9D9" stroke="#616161"/>
</svg>
