<svg id="Layer_1" data-name="Layer 1" xmlns="http://www.w3.org/2000/svg" xmlns:xlink="http://www.w3.org/1999/xlink" viewBox="0 0 24 24"><defs><style>.cls-1{fill:#5d3e1f;}.cls-2{fill:url(#radial-gradient);}.cls-3{fill:url(#linear-gradient);}.cls-4{fill:url(#radial-gradient-2);}.cls-5{fill:#010101;}.cls-6{fill:none;}</style><radialGradient id="radial-gradient" cx="13.09" cy="13.69" r="10.43" gradientTransform="translate(16.52 -4.28) rotate(56.52) scale(1 0.93)" gradientUnits="userSpaceOnUse"><stop offset="0.51" stop-color="#d7e0e7"/><stop offset="0.77" stop-color="#fff"/></radialGradient><linearGradient id="linear-gradient" x1="11.22" y1="2.99" x2="11.22" y2="19.39" gradientUnits="userSpaceOnUse"><stop offset="0.01" stop-color="#6099c5"/><stop offset="0.85" stop-color="#18416f"/></linearGradient><radialGradient id="radial-gradient-2" cx="13.66" cy="13.88" r="4.49" gradientUnits="userSpaceOnUse"><stop offset="0.01" stop-color="#fff"/><stop offset="0.39" stop-color="#fff"/><stop offset="0.63" stop-color="#fff"/></radialGradient></defs><g id="zoomInColor_16"><path class="cls-1" d="M21.35,22.44a1.11,1.11,0,0,1-.79-.33L9.72,11.27a1.11,1.11,0,0,1,0-1.58,1.12,1.12,0,0,1,1.59,0L22.14,20.52a1.12,1.12,0,0,1,0,1.59,1.09,1.09,0,0,1-.79.33Z"/><path class="cls-2" d="M4.52,11.19a6.71,6.71,0,1,0,6.7-6.7A6.71,6.71,0,0,0,4.52,11.19Z"/><path class="cls-3" d="M11.22,4.63a6.56,6.56,0,1,1-6.56,6.56,6.56,6.56,0,0,1,6.56-6.56m0-1.64a8.2,8.2,0,1,0,8.2,8.2A8.21,8.21,0,0,0,11.22,3Z"/><path class="cls-4" d="M11.32,16.94c2.63,0,5.44-2.1,5.44-5H15.7c-2.69,0-4.32,1.25-4.32,3.8Z"/><polygon class="cls-5" points="12 14.96 10.5 14.96 10.5 7.48 12 7.48 12 14.96 12 14.96"/><polygon class="cls-5" points="14.99 11.97 7.51 11.97 7.51 10.47 14.99 10.47 14.99 11.97 14.99 11.97"/><rect class="cls-6" x="0.03" width="23.93" height="23.93"/></g></svg>