<svg width="14" height="14" viewBox="0 0 14 14" fill="none" xmlns="http://www.w3.org/2000/svg">
<circle cx="7" cy="7" r="7" fill="var(--mw-icon-object-primary, #616160)"/>
<path d="M6 3.5C6 3.22386 6.22386 3 6.5 3H7.5C7.77614 3 8 3.22386 8 3.5V7.5C8 7.77614 7.77614 8 7.5 8H6.5C6.22386 8 6 7.77614 6 7.5V3.5Z" fill="var(--mw-icon-object-secondary, #FFFFFE)"/>
<path d="M6 10C6 9.44772 6.44772 9 7 9C7.55228 9 8 9.44772 8 10C8 10.5523 7.55228 11 7 11C6.44772 11 6 10.5523 6 10Z" fill="var(--mw-icon-object-secondary, #FFFFFE)"/>
</svg>
