<svg width="14" height="14" viewBox="0 0 14 14" fill="none" xmlns="http://www.w3.org/2000/svg">
<path d="M0 7C0 3.13401 3.13401 0 7 0C10.866 0 14 3.13401 14 7C14 10.866 10.866 14 7 14C3.13401 14 0 10.866 0 7Z" fill="var(--mw-icon-object-primary, #616160)"/>
<path d="M6.02326 9.04301C6.02326 8.44713 6.1 7.97222 6.25349 7.61828C6.40698 7.26434 6.7093 6.87679 7.16047 6.45565C7.61628 6.03002 7.90465 5.7276 8.02558 5.54839C8.21163 5.27509 8.30465 4.97939 8.30465 4.66129C8.30465 4.24014 8.19535 3.9198 7.97674 3.70027C7.76279 3.47625 7.44651 3.36425 7.02791 3.36425C6.62791 3.36425 6.30465 3.47401 6.05814 3.69355C5.81628 3.9086 5.69535 4.20206 5.69535 4.57392H4C4.0093 3.78091 4.28837 3.15367 4.83721 2.6922C5.3907 2.23073 6.12093 2 7.02791 2C7.96279 2 8.6907 2.22849 9.21163 2.68548C9.73721 3.14247 10 3.78091 10 4.60081C10 5.33109 9.64651 6.05018 8.93954 6.75806L8.0814 7.57124C7.77442 7.90726 7.61628 8.39785 7.60698 9.04301H6.02326ZM5.90465 11.1331C5.90465 10.8687 5.9907 10.6559 6.16279 10.4946C6.33488 10.3289 6.56744 10.246 6.86047 10.246C7.15814 10.246 7.39302 10.3311 7.56512 10.5013C7.73721 10.6671 7.82326 10.8777 7.82326 11.1331C7.82326 11.3795 7.73954 11.5856 7.57209 11.7513C7.40465 11.9171 7.16744 12 6.86047 12C6.55349 12 6.31628 11.9171 6.14884 11.7513C5.98605 11.5856 5.90465 11.3795 5.90465 11.1331Z" fill="var(--mw-icon-object-secondary, #FFFFFE)"/>
</svg>
