<svg width="14" height="14" viewBox="0 0 14 14" fill="none" xmlns="http://www.w3.org/2000/svg">
<path d="M0 7C0 3.13401 3.13401 0 7 0C10.866 0 14 3.13401 14 7C14 10.866 10.866 14 7 14C3.13401 14 0 10.866 0 7Z" fill="var(--mw-icon-object-primary, #616160)"/>
<path d="M8 10.5C8 10.7761 7.77614 11 7.5 11H6.5C6.22386 11 6 10.7761 6 10.5V6.5C6 6.22386 6.22386 6 6.5 6H7.5C7.77614 6 8 6.22386 8 6.5V10.5Z" fill="var(--mw-icon-object-secondary, #FFFFFE)"/>
<path d="M8 4C8 4.55228 7.55228 5 7 5C6.44772 5 6 4.55228 6 4C6 3.44772 6.44772 3 7 3C7.55228 3 8 3.44772 8 4Z" fill="var(--mw-icon-object-secondary, #FFFFFE)"/>
</svg>
