<svg width="14" height="14" viewBox="0 0 14 14" fill="none" xmlns="http://www.w3.org/2000/svg">
<path fill-rule="evenodd" clip-rule="evenodd" d="M6.19513 0.511655C6.53935 -0.17055 7.46065 -0.170553 7.80487 0.511655L13.8905 12.5728C14.2164 13.2186 13.7757 14 13.0856 14H0.914354C0.224303 14 -0.216372 13.2186 0.109486 12.5728L6.19513 0.511655Z" fill="var(--mw-icon-object-primary, #616160)"/>
<path d="M6 4.5C6 4.22386 6.22386 4 6.5 4H7.5C7.77614 4 8 4.22386 8 4.5V8.5C8 8.77614 7.77614 9 7.5 9H6.5C6.22386 9 6 8.77614 6 8.5V4.5Z" fill="var(--mw-icon-object-secondary, #FFFFFE)"/>
<path d="M6 11C6 10.4477 6.44772 10 7 10C7.55228 10 8 10.4477 8 11C8 11.5523 7.55228 12 7 12C6.44772 12 6 11.5523 6 11Z" fill="var(--mw-icon-object-secondary, #FFFFFE)"/>
</svg>
