<svg width="8" height="8" viewBox="0 0 8 8" fill="none" xmlns="http://www.w3.org/2000/svg">
<path d="M0.5 2.47703L2.47703 0.5H5.27297L7.25 2.47703V5.27297L5.27297 7.25H2.47703L0.5 5.27297V2.47703Z" fill="#E11B14" stroke="#E11B14"/>
<path d="M4.25 4.375C4.25 4.58211 4.08211 4.75 3.875 4.75C3.66789 4.75 3.5 4.58211 3.5 4.375L3.5 1.875C3.5 1.66789 3.66789 1.5 3.875 1.5C4.08211 1.5 4.25 1.66789 4.25 1.875L4.25 4.375Z" fill="var(--mw-icon-background-default-white, #FFFFFF)"/>
<path d="M4.25 5.875C4.25 6.08211 4.08211 6.25 3.875 6.25C3.66789 6.25 3.5 6.08211 3.5 5.875C3.5 5.66789 3.66789 5.5 3.875 5.5C4.08211 5.5 4.25 5.66789 4.25 5.875Z" fill="white"/>
</svg>
