<svg width="8" height="8" viewBox="0 0 8 8" fill="none" xmlns="http://www.w3.org/2000/svg">
<path d="M7.88696 1.81661C8.15406 1.49014 7.92178 1 7.49998 1H3.49999C3.07339 1 2.84273 1.49988 3.11956 1.82446L4.99999 3.99998L5.99999 4L7.88696 1.81661Z" fill="var(--mw-icon-object-primary, #616160)"/>
<path d="M5.50001 5.99998C5.22387 5.99998 5.00001 5.77612 5.00001 5.49998L4.99999 3.99998L5.99999 4L6.00001 5.49998C6.00001 5.77612 5.77616 5.99998 5.50001 5.99998Z" fill="var(--mw-icon-object-primary, #616160)"/>
<path d="M2 8.00006L4 6.00006H0L2 8.00006Z" fill="var(--mw-icon-object-primary, #616160)"/>
<path d="M1 5.00011L3 4.98351V6.00011H1V5.00011Z" fill="var(--mw-icon-object-primary, #616160)"/>
<path d="M1 3H3V4H1V3Z" fill="var(--mw-icon-object-primary, #616160)"/>
</svg>
