<svg width="8" height="8" viewBox="0 0 8 8" fill="none" xmlns="http://www.w3.org/2000/svg">
<path d="M0.25 3.875C0.25 1.87297 1.87297 0.25 3.875 0.25C5.87703 0.25 7.5 1.87297 7.5 3.875C7.5 5.87703 5.87703 7.5 3.875 7.5C1.87297 7.5 0.25 5.87703 0.25 3.875Z" fill="var(--mw-icon-glyph-content-light-blue, #278CDD)"/>
<path d="M3.5 3.625C3.5 3.41789 3.66789 3.25 3.875 3.25C4.08211 3.25 4.25 3.41789 4.25 3.625L4.25 5.625C4.25 5.83211 4.08211 6 3.875 6C3.66789 6 3.5 5.83211 3.5 5.625L3.5 3.625Z" fill="var(--mw-icon-background-default-white, #FFFFFF)"/>
<path d="M3.5 2.125C3.5 1.91789 3.66789 1.75 3.875 1.75C4.08211 1.75 4.25 1.91789 4.25 2.125C4.25 2.33211 4.08211 2.5 3.875 2.5C3.66789 2.5 3.5 2.33211 3.5 2.125Z" fill="white"/>
</svg>
