<svg width="8" height="8" viewBox="0 0 8 8" fill="none" xmlns="http://www.w3.org/2000/svg">
<path d="M5 2L2 4L5 6" stroke="var(--mw-icon-object-primary, #616160)" stroke-width="0.5" stroke-linejoin="round"/>
<path d="M6 2C6 2.55228 5.55228 3 5 3C4.44772 3 4 2.55228 4 2C4 1.44772 4.44772 1 5 1C5.55228 1 6 1.44772 6 2Z" fill="var(--mw-icon-object-primary, #616160)"/>
<path d="M6 6C6 6.55228 5.55228 7 5 7C4.44772 7 4 6.55228 4 6C4 5.44772 4.44772 5 5 5C5.55228 5 6 5.44772 6 6Z" fill="var(--mw-icon-object-primary, #616160)"/>
<path d="M3 4C3 4.55228 2.55228 5 2 5C1.44772 5 1 4.55228 1 4C1 3.44772 1.44772 3 2 3C2.55228 3 3 3.44772 3 4Z" fill="var(--mw-icon-object-primary, #616160)"/>
</svg>
