<?xml version="1.0" encoding="utf-8"?>
<svg xmlns="http://www.w3.org/2000/svg"
     xmlns:d="http://www.mathworks.com/blockgraphics"
     d:options="PreserveAspect:On;Resize:FitToBlock;Frame:Adaptive;Rotate:Off"
     fill="none"
     viewBox = "7 10 150 80"
     height="60"
     version="1.1"
     width="110">
   <path d="M41.5 31.5H46.5L54.5 32.5L61.5 35.5H74.5L81.5 53.5L69.5 72.5H104.5"
         stroke="#D9D9D9"
         stroke-dasharray="2 2"
         stroke-linecap="round"
         stroke-linejoin="round"/>
   <path d="M73.5 48.5C73.5 72.5 74.5 72.5 92.5 72.5" stroke="#A6A6A6"/>
   <path d="M41.5 30.5L55.8737 30.7396C64.8468 30.8891 74 37 73.5 46.5" stroke="black"
         stroke-linecap="round"
         stroke-linejoin="round"/>
   <path d="M94 72.5L90 75L91.5 72.5L90 70L94 72.5Z" fill="#616161"/>
   <path d="M83.5 72.5L78.5 74.5L80.5 72L79.5 69.5L83.5 72.5Z" fill="#616161"/>
   <path d="M88.9497 72.4495L84.9497 75L86.4497 72.4495L84.9497 70L88.9497 72.4495Z"
         fill="#616161"/>
   <path d="M73.5 55L71 51L73.5 52.5L76 51L73.5 55Z" fill="#616161"/>
   <path d="M73.5 49L69 42C69 42 71.4302 44.8 73.5 44.8C75.5698 44.8 78 42 78 42L73.5 49Z"
         fill="white"
         stroke="black"/>
   <path d="M73.673 60L71 56L73.673 57.5L76 56L73.673 60Z" fill="#616161"/>
   <path d="M74.5 66L71.5 61.5L74 63L76 61L74.5 66Z" fill="#616161"/>
   <path d="M77 70L73 69L75.5 68.5L77 66V70Z" fill="#616161"/>
   <path d="M104.5 68.5L105.286 70.9184H107.829L105.771 72.4131L106.557 74.8316L104.5 73.3369L102.443 74.8316L103.229 72.4131L101.171 70.9184H103.714L104.5 68.5Z"
         fill="#A6A6A6"/>
   <ellipse cx="87" cy="63" fill="#7D7D7D" rx="7" ry="4" transform="rotate(10.1177 87 63)"/>
   <rect fill="#888888" height="10" rx="2" width="33" x="64" y="18"/>
   <path d="M91.8244 32.8541C92.5254 32.3448 93.4746 32.3448 94.1756 32.8541L103.237 39.4377C103.938 39.947 104.231 40.8497 103.964 41.6738L100.502 52.3262C100.235 53.1503 99.4668 53.7082 98.6003 53.7082H87.3997C86.5332 53.7082 85.7653 53.1503 85.4975 52.3262L82.0364 41.6738C81.7686 40.8497 82.0619 39.947 82.7629 39.4377L91.8244 32.8541Z"
         fill="#7D7D7D"/>
   <path d="M60.584 54.3512C61.5703 53.8539 62.7729 54.2504 63.2702 55.2367L68.4866 65.5838C68.9839 66.5701 68.5874 67.7727 67.6011 68.27L57.2541 73.4864C56.2678 73.9837 55.0651 73.5872 54.5678 72.6009L49.3514 62.2539C48.8541 61.2675 49.2506 60.0649 50.2369 59.5676L60.584 54.3512Z"
         fill="#7D7D7D"/>
   <circle cx="58" cy="43" fill="#7D7D7D" r="7"/>
</svg>