<svg id="Layer_1" data-name="Layer 1" xmlns="http://www.w3.org/2000/svg" xmlns:xlink="http://www.w3.org/1999/xlink" viewBox="0 0 24 24"><defs><style>.cls-1{fill:#fff;}.cls-2{fill:#e6e6e6;}.cls-3{fill:#77ac30;}.cls-4{fill:#7e2f8e;}.cls-5{fill:#666;}.cls-6{fill:none;stroke:#32a1da;stroke-miterlimit:10;}.cls-7{fill:url(#linear-gradient);}</style><linearGradient id="linear-gradient" x1="12" x2="12" y2="24" gradientUnits="userSpaceOnUse"><stop offset="0.28" stop-color="#999"/><stop offset="0.85" stop-color="#4d4d4d"/></linearGradient></defs><rect class="cls-1" x="0.53" y="0.7" width="22.96" height="10.3"/><rect class="cls-2" x="0.87" y="11.92" width="22.26" height="11.12"/><rect class="cls-3" x="3" y="13" width="6" height="1"/><rect class="cls-4" x="3" y="15" width="10" height="1"/><rect class="cls-5" x="3" y="17" width="17" height="1"/><rect class="cls-4" x="3" y="19" width="5" height="1"/><rect class="cls-5" x="3" y="21" width="11" height="1"/><path class="cls-6" d="M.51,8.59S2,3.05,6.26,2.56,12.47,9.9,16.71,9.42s7-4.83,7-4.83"/><path class="cls-7" d="M22,0H2A2,2,0,0,0,0,2V22a2,2,0,0,0,2,2H22a2,2,0,0,0,2-2V2A2,2,0,0,0,22,0Zm1,22a1,1,0,0,1-1,1H2a1,1,0,0,1-1-1V12H23Zm0-11H1V2A1,1,0,0,1,2,1H22a1,1,0,0,1,1,1Z"/><circle class="cls-3" cx="20.5" cy="14.5" r="1.5"/></svg>