<svg width="16" height="13" viewBox="0 0 16 13" fill="none" xmlns="http://www.w3.org/2000/svg">
<path d="M16 1H7L6.74 0H0L2 13H16V1Z" fill="url(#paint0_linear_224_7527)"/>
<path d="M1 1H5.5L6.3 4H13L15 12H2.5L1 1Z" fill="url(#paint1_radial_224_7527)"/>
<path d="M13 4H6V5H13V4Z" fill="white"/>
<path d="M6.13 2H1.13L1 1H6L6.13 2Z" fill="white"/>
<path d="M14 3H7V2H15V7L14 3Z" fill="url(#paint2_linear_224_7527)"/>
<path opacity="0.4" d="M15 2H7V3H15V2Z" fill="white"/>
<defs>
<linearGradient id="paint0_linear_224_7527" x1="8" y1="13" x2="8" y2="0" gradientUnits="userSpaceOnUse">
<stop stop-color="#47390F"/>
<stop offset="0.77" stop-color="#B28A3F"/>
</linearGradient>
<radialGradient id="paint1_radial_224_7527" cx="0" cy="0" r="1" gradientUnits="userSpaceOnUse" gradientTransform="translate(0.880001 0.509999) scale(20.92)">
<stop offset="0.21" stop-color="white"/>
<stop offset="0.28" stop-color="#FFFEF9"/>
<stop offset="0.38" stop-color="#FEFCE8"/>
<stop offset="0.49" stop-color="#FEF7CC"/>
<stop offset="0.61" stop-color="#FDF2A5"/>
<stop offset="0.68" stop-color="#FCEE8D"/>
<stop offset="0.97" stop-color="#D2AC7C"/>
</radialGradient>
<linearGradient id="paint2_linear_224_7527" x1="15.25" y1="6.75" x2="8.75" y2="0.25" gradientUnits="userSpaceOnUse">
<stop offset="0.07" stop-color="#DDC487"/>
<stop offset="0.97" stop-color="#C4A185"/>
</linearGradient>
</defs>
</svg>
