<svg xmlns="http://www.w3.org/2000/svg" xmlns:xlink="http://www.w3.org/1999/xlink" viewBox="0 0 24 24"><defs><style>.cls-1{isolation:isolate;}.cls-2{fill:#ed1c24;opacity:0;}.cls-3{opacity:0.9;fill:url(#Paper_Frame);}.cls-10,.cls-4{fill:#fff;}.cls-5{opacity:0.2;mix-blend-mode:multiply;fill:url(#linear-gradient);}.cls-6{opacity:0.6;}.cls-7{fill:url(#linear-gradient-2);}.cls-8{fill:url(#New_Gradient_Swatch_10);}.cls-9{fill:url(#Blue_Frame);}.cls-10{opacity:0.5;}</style><linearGradient id="Paper_Frame" x1="16" y1="20" x2="16" gradientUnits="userSpaceOnUse"><stop offset="0" stop-color="#404040"/><stop offset="0.88" stop-color="#a6a6a6"/></linearGradient><linearGradient id="linear-gradient" x1="21.5" y1="7" x2="21.5" y2="5" gradientUnits="userSpaceOnUse"><stop offset="0" stop-color="#e6e6e6"/><stop offset="1" stop-color="#4d4d4d"/></linearGradient><linearGradient id="linear-gradient-2" x1="16" y1="5" x2="16" y2="16" gradientUnits="userSpaceOnUse"><stop offset="0" stop-color="#bcbec0"/><stop offset="1" stop-color="#808285"/></linearGradient><linearGradient id="New_Gradient_Swatch_10" x1="7" y1="4" x2="7" y2="17" gradientUnits="userSpaceOnUse"><stop offset="0.12" stop-color="#d9f1fd"/><stop offset="0.99" stop-color="#5e9ac6"/></linearGradient><linearGradient id="Blue_Frame" x1="7" y1="17" x2="7" y2="4" gradientUnits="userSpaceOnUse"><stop offset="0.09" stop-color="#143253"/><stop offset="0.99" stop-color="#609abd"/></linearGradient></defs><title>go_to_file_24</title><g class="cls-1"><g id="Layer_2" data-name="Layer 2"><g id="Content"><rect class="cls-2" width="24" height="24"/><path class="cls-3" d="M24,4,20,0H8V20H24Z"/><polygon class="cls-4" points="23 4 20 1 20 4 23 4"/><polygon class="cls-4" points="9 19 9 1 19 1 19 5 23 5 23 19 9 19"/><polygon class="cls-5" points="23 5.67 23 5 20 5 20 7 23 5.67"/><g class="cls-6"><path class="cls-4" d="M21,9H11V8H21ZM17,6H11V7h6Zm4,4H11v1H21Zm0,2H11v1H21Zm0,2H11v1H21Zm-5,2H11v1h5Z"/></g><path class="cls-7" d="M21,8H11V7H21ZM17,5H11V6h6Zm4,4H11v1H21Zm0,2H11v1H21Zm0,2H11v1H21Zm-5,2H11v1h5Z"/><polygon class="cls-8" points="6 13 0 13 0 8 6 8 6 4 14 10.5 6 17 6 13"/><path class="cls-9" d="M7,6.1l5.41,4.4L7,14.9V12H1V9H7V6.1M6,4V8H0v5H6v4l8-6.5L6,4Z"/><rect class="cls-10" x="1" y="9" width="6" height="1"/><polygon class="cls-10" points="11 11 7 8 7 7 11 10 11 11"/></g></g></g></svg>