<svg width="16" height="16" viewBox="0 0 24 24" fill="none" xmlns="http://www.w3.org/2000/svg">
<path d="M0.5 3.5H15.5V11.5C15.5 12.0523 15.0523 12.5 14.5 12.5H1.5C0.947715 12.5 0.5 12.0523 0.5 11.5V3.5Z" fill="#D9D9D9" stroke="#888888" stroke-linecap="round"/>
<path d="M14.5 0.5H1.5C0.947715 0.5 0.5 0.947715 0.5 1.5V3.5H15.5V1.5C15.5 0.947715 15.0523 0.5 14.5 0.5Z" fill="#D9D9D9" stroke="#888888"/>
<path d="M3.5 13.5H18.5V21.5C18.5 22.0523 18.0523 22.5 17.5 22.5H4.5C3.94772 22.5 3.5 22.0523 3.5 21.5V13.5Z" fill="#D9D9D9" stroke="#888888" stroke-linecap="round"/>
<path d="M17.5 10.5H4.5C3.94772 10.5 3.5 10.9477 3.5 11.5V13.5H18.5V11.5C18.5 10.9477 18.0523 10.5 17.5 10.5Z" fill="#D9D9D9" stroke="#888888"/>
<path d="M7.5 8.5H22.5V16.5C22.5 17.0523 22.0523 17.5 21.5 17.5H8.5C7.94772 17.5 7.5 17.0523 7.5 16.5V8.5Z" fill="white" stroke="#616161" stroke-linecap="round"/>
<path d="M21.5 5.5H8.5C7.94772 5.5 7.5 5.94772 7.5 6.5V8.5H22.5V6.5C22.5 5.94772 22.0523 5.5 21.5 5.5Z" fill="#B4DEFF" stroke="#1656A7"/>
</svg>
