<?xml version="1.0" encoding="utf-8"?>
<!-- Generator: Adobe Illustrator 21.1.0, SVG Export Plug-In . SVG Version: 6.00 Build 0)  -->
<svg version="1.1" id="Layer_1" xmlns="http://www.w3.org/2000/svg" xmlns:xlink="http://www.w3.org/1999/xlink" x="0px" y="0px"
	 viewBox="0 0 169.6 25.4" style="enable-background:new 0 0 169.6 25.4;" xml:space="preserve">
<style type="text/css">
	.st0{fill:#FFFFFF;}
</style>
<g>
	<path class="st0" d="M2.4,22.4L5.4,3l6.9,15.5l7-15.5l2.8,19.4h-2.1L18.4,9.6l-6.1,13.6l-6-13.6L4.4,22.4H2.4z"/>
	<path class="st0" d="M36.1,17.2h-7.7l-2.2,5.2h-2.2l8.3-19.3l8.1,19.3h-2.2L36.1,17.2z M35.3,15.3l-3-7.4l-3.1,7.4H35.3z"/>
	<path class="st0" d="M46,6v16.4h-2V6h-4.4V4h10.7V6H46z"/>
	<path class="st0" d="M55,4v16.4h5v1.9h-7V4H55z"/>
	<path class="st0" d="M72.4,17.2h-7.7l-2.2,5.2h-2.2l8.3-19.3l8.1,19.3h-2.2L72.4,17.2z M71.7,15.3l-3-7.4l-3.1,7.4H71.7z"/>
	<path class="st0" d="M82.4,4c1,0,2.8,0.1,4.1,1.2c0.6,0.4,1.6,1.6,1.6,3.8c0,0.9-0.2,2.5-1.8,3.6c2.5,0.6,3.4,2.9,3.4,4.6
		s-0.9,3.2-1.8,4c-1.4,1.2-3.1,1.2-4.3,1.2h-4.5V4H82.4z M81.2,12.1h1.5c1.1,0,3.5-0.2,3.5-3.1c0-3-2.9-3.1-3.5-3.1h-1.6V12.1z
		 M81.2,20.5h2.3c1.2,0,2.3-0.1,3.2-0.8c0.7-0.5,1.2-1.4,1.2-2.5c0-1.5-0.8-2.3-1.5-2.7c-0.7-0.4-1.6-0.6-3.1-0.6h-2.1V20.5z"/>
	<path class="st0" d="M98.5,13.2c0-5.5,4.2-9.5,9.4-9.5s9.4,4,9.4,9.5c0,5.5-4.2,9.5-9.4,9.5C102.7,22.7,98.5,18.7,98.5,13.2z
		 M100.6,13.2c0,4.2,3.3,7.6,7.3,7.6c4,0,7.3-3.4,7.3-7.6s-3.3-7.6-7.3-7.6C103.8,5.7,100.6,9,100.6,13.2z"/>
	<path class="st0" d="M120.3,11h1.9v1.3c0.4-0.5,1.3-1.6,3.2-1.6c1.3,0,2.5,0.6,3.2,1.6c0.6,0.9,0.6,1.8,0.6,3.1v7.1h-1.9v-7
		c0-0.7-0.1-1.5-0.5-2.1c-0.4-0.5-1-0.8-1.8-0.8c-0.7,0-1.4,0.2-2,0.9c-0.8,0.9-0.8,2.3-0.8,3.1v6h-1.9V11z"/>
	<path class="st0" d="M134.8,2.3v20.1h-1.9V2.3H134.8z"/>
	<path class="st0" d="M139.3,5.3c0.8,0,1.4,0.6,1.4,1.4c0,0.8-0.6,1.4-1.4,1.4s-1.4-0.6-1.4-1.4C137.9,5.9,138.6,5.3,139.3,5.3z
		 M140.3,11v11.4h-1.9V11H140.3z"/>
	<path class="st0" d="M143.8,11h1.9v1.3c0.4-0.5,1.3-1.6,3.2-1.6c1.3,0,2.5,0.6,3.2,1.6c0.6,0.9,0.6,1.8,0.6,3.1v7.1h-1.9v-7
		c0-0.7-0.1-1.5-0.5-2.1c-0.4-0.5-1-0.8-1.8-0.8c-0.7,0-1.4,0.2-2,0.9c-0.8,0.9-0.8,2.3-0.8,3.1v6h-1.9V11z"/>
	<path class="st0" d="M166.3,19.5c-0.3,0.6-0.8,1.3-1.4,1.8c-1,0.9-2.3,1.4-3.7,1.4c-2.7,0-5.5-1.7-5.5-6c0-3.4,2.1-6.1,5.4-6.1
		c2.2,0,3.6,1.1,4.2,2.1c0.7,1,1.1,2.8,1.1,4.3h-8.7c0,2.4,1.6,3.9,3.6,3.9c0.9,0,1.6-0.3,2.3-0.8c0.5-0.4,0.9-1,1.2-1.6L166.3,19.5
		z M164.4,15.4c-0.3-1.8-1.6-3-3.3-3s-3,1.3-3.3,3H164.4z"/>
</g>
</svg>
