<svg width="15" height="16" viewBox="0 0 15 16" fill="none" xmlns="http://www.w3.org/2000/svg">
<path fill-rule="evenodd" clip-rule="evenodd" d="M7.50001 0.528109C6.00001 0.499999 6.00001 1.00055 6.00001 1.50104C6.00001 1.78383 5.73143 1.93018 5.28874 2.17141C4.94796 2.3571 4.50402 2.59901 4 3.00264C2.48052 4.21948 2.62339 6.54569 2.74467 8.52036C2.82294 9.79461 2.89221 10.9225 2.5 11.5114L2 12.0119L0.5 13.5135H5.5C6.50001 14.5 7.33335 14.5145 7.50001 14.5145C7.66668 14.5145 8.50001 14.5 9.50003 13.5135H14.5L13 12.0119L12.5 11.5114C12.1078 10.9225 12.1771 9.79461 12.2554 8.52036C12.3766 6.54569 12.5195 4.21948 11 3.00264C10.496 2.59901 10.0521 2.3571 9.71129 2.17141C9.2686 1.93018 9.00001 1.78383 9.00001 1.50104C9.00001 1.00055 9.00001 0.499999 7.50001 0.528109Z" fill="white"/>
<path d="M7.50001 0.528109L7.49065 1.02802C7.49689 1.02814 7.50314 1.02814 7.50938 1.02802L7.50001 0.528109ZM5.28874 2.17141L5.52798 2.61046L5.52798 2.61046L5.28874 2.17141ZM4 3.00264L3.68746 2.61236L3.68746 2.61236L4 3.00264ZM2.74467 8.52036L2.24561 8.55101L2.24561 8.55101L2.74467 8.52036ZM2.5 11.5114L2.85372 11.8648C2.87699 11.8415 2.89791 11.8159 2.91616 11.7885L2.5 11.5114ZM2 12.0119L1.64628 11.6585L1.64626 11.6585L2 12.0119ZM0.5 13.5135L0.146261 13.1601C0.00337073 13.3031 -0.0393107 13.5181 0.0381106 13.7049C0.115532 13.8917 0.297817 14.0135 0.5 14.0135L0.5 13.5135ZM5.5 13.5135L5.85115 13.1575C5.75758 13.0652 5.63143 13.0135 5.5 13.0135V13.5135ZM9.50003 13.5135V13.0135C9.36859 13.0135 9.24245 13.0652 9.14888 13.1575L9.50003 13.5135ZM14.5 13.5135V14.0135C14.7022 14.0135 14.8845 13.8917 14.9619 13.7049C15.0393 13.5181 14.9967 13.3031 14.8538 13.1601L14.5 13.5135ZM13 12.0119L13.3538 11.6585L13.3538 11.6585L13 12.0119ZM12.5 11.5114L12.0839 11.7885C12.1021 11.8159 12.123 11.8415 12.1463 11.8648L12.5 11.5114ZM12.2554 8.52036L11.7563 8.48971L11.7563 8.48971L12.2554 8.52036ZM11 3.00264L11.3126 2.61236L11.3126 2.61236L11 3.00264ZM9.71129 2.17141L9.95053 1.73236L9.95053 1.73236L9.71129 2.17141ZM6.50001 1.50104C6.50001 1.20777 6.52386 1.18684 6.5379 1.17304C6.56875 1.14273 6.75475 1.01423 7.49065 1.02802L7.50938 0.0281964C6.74528 0.0138774 6.18127 0.121595 5.83713 0.459657C5.47617 0.81423 5.50001 1.29382 5.50001 1.50104H6.50001ZM5.52798 2.61046C5.73215 2.49921 5.96154 2.37674 6.13052 2.23589C6.32255 2.07583 6.50001 1.84027 6.50001 1.50104H5.50001C5.50001 1.48669 5.50494 1.4646 5.51498 1.44668C5.52189 1.43436 5.52159 1.44161 5.49025 1.46774C5.45826 1.49441 5.40871 1.52868 5.33083 1.57506C5.25323 1.62127 5.16247 1.6708 5.0495 1.73236L5.52798 2.61046ZM4.31254 3.39292C4.77974 3.01878 5.19037 2.79442 5.52798 2.61046L5.0495 1.73236C4.70556 1.91978 4.2283 2.17924 3.68746 2.61236L4.31254 3.39292ZM3.24373 8.48971C3.18243 7.49156 3.12145 6.46872 3.2521 5.54753C3.38178 4.63315 3.69103 3.89065 4.31254 3.39292L3.68746 2.61236C2.78949 3.33148 2.41044 4.36049 2.262 5.40711C2.11454 6.4469 2.18564 7.57449 2.24561 8.55101L3.24373 8.48971ZM2.91616 11.7885C3.19218 11.3741 3.27562 10.827 3.29831 10.2941C3.32157 9.74796 3.28239 9.11915 3.24373 8.48971L2.24561 8.55101C2.28522 9.19582 2.31981 9.76806 2.29922 10.2516C2.27805 10.7485 2.20002 11.0598 2.08384 11.2342L2.91616 11.7885ZM2.35372 12.3653L2.85372 11.8648L2.14628 11.158L1.64628 11.6585L2.35372 12.3653ZM0.853739 13.8668L2.35374 12.3652L1.64626 11.6585L0.146261 13.1601L0.853739 13.8668ZM5.5 13.0135H0.5V14.0135H5.5V13.0135ZM7.50001 14.0145C7.43045 14.0145 6.73571 14.0302 5.85115 13.1575L5.14885 13.8694C6.26432 14.9698 7.23625 15.0145 7.50001 15.0145V14.0145ZM7.50001 15.0145C7.76378 15.0145 8.73571 14.9698 9.85118 13.8694L9.14888 13.1575C8.26432 14.0302 7.56958 14.0145 7.50001 14.0145V15.0145ZM9.50003 14.0135H14.5V13.0135H9.50003V14.0135ZM14.8538 13.1601L13.3538 11.6585L12.6463 12.3652L14.1463 13.8668L14.8538 13.1601ZM13.3538 11.6585L12.8538 11.158L12.1463 11.8648L12.6463 12.3653L13.3538 11.6585ZM12.9162 11.2342C12.8 11.0598 12.722 10.7485 12.7008 10.2516C12.6802 9.76806 12.7148 9.19582 12.7544 8.55101L11.7563 8.48971C11.7176 9.11915 11.6785 9.74796 11.7017 10.2941C11.7244 10.827 11.8078 11.3741 12.0839 11.7885L12.9162 11.2342ZM12.7544 8.55101C12.8144 7.57449 12.8855 6.4469 12.738 5.40711C12.5896 4.36049 12.2105 3.33148 11.3126 2.61236L10.6875 3.39292C11.309 3.89065 11.6183 4.63315 11.7479 5.54753C11.8786 6.46872 11.8176 7.49156 11.7563 8.48971L12.7544 8.55101ZM11.3126 2.61236C10.7717 2.17924 10.2945 1.91978 9.95053 1.73236L9.47205 2.61046C9.80966 2.79442 10.2203 3.01878 10.6875 3.39292L11.3126 2.61236ZM9.95053 1.73236C9.83756 1.6708 9.7468 1.62127 9.6692 1.57506C9.59132 1.52868 9.54177 1.49441 9.50978 1.46774C9.47844 1.44161 9.47814 1.43436 9.48505 1.44668C9.49509 1.4646 9.50001 1.48669 9.50001 1.50104H8.50001C8.50001 1.84027 8.67748 2.07583 8.86951 2.23589C9.03849 2.37674 9.26788 2.49921 9.47205 2.61046L9.95053 1.73236ZM9.50001 1.50104C9.50001 1.29382 9.52386 0.81423 9.1629 0.459657C8.81875 0.121595 8.25475 0.0138774 7.49065 0.0281964L7.50938 1.02802C8.24528 1.01423 8.43127 1.14273 8.46213 1.17304C8.47617 1.18684 8.50001 1.20777 8.50001 1.50104H9.50001Z" fill="#616161"/>
</svg>
