<svg width="12" height="12" viewBox="0 0 12 12" fill="none" xmlns="http://www.w3.org/2000/svg">
<path d="M6 5.625H5.625V6V9.91147L5.5 10.1615L5.375 9.91147V6V5.625H5H2.5C2.43096 5.625 2.375 5.56904 2.375 5.5V5.39039C2.375 5.33303 2.41404 5.28303 2.46968 5.26912L3.33349 5.05317C3.94559 4.90014 4.375 4.35017 4.375 3.71922V1.5C4.375 1.01675 3.98325 0.625 3.5 0.625C3.43096 0.625 3.375 0.569036 3.375 0.5C3.375 0.430965 3.43096 0.375 3.5 0.375H7.5C7.56904 0.375 7.625 0.430964 7.625 0.5C7.625 0.569036 7.56904 0.625 7.5 0.625C7.01675 0.625 6.625 1.01675 6.625 1.5V3.71922C6.625 4.35017 7.05441 4.90014 7.66651 5.05317L8.53032 5.26912C8.58596 5.28303 8.625 5.33303 8.625 5.39039V5.5C8.625 5.56904 8.56904 5.625 8.5 5.625H6Z" fill="none" stroke="#616161"/>
</svg>
