<svg width="16" height="16" viewBox="0 0 23 23" fill="none" xmlns="http://www.w3.org/2000/svg">
<path d="M8.5 22.5H20.5C21.6046 22.5 22.5 21.6046 22.5 20.5V4.5H8.5V22.5Z" fill="#F5F5F5" stroke="#888888"/>
<path d="M0.5 20.5C0.5 21.6046 1.39543 22.5 2.5 22.5H8.5V4.5H0.5L0.5 20.5Z" fill="white" stroke="#616162"/>
<path d="M0.5 2.5C0.5 1.39543 1.39543 0.5 2.5 0.5H20.5C21.6046 0.5 22.5 1.39543 22.5 2.5V4.5H0.5V2.5Z" fill="#B4DEFF" stroke="#1656A8"/>
<path d="M2.50001 7.5H6.50001M2.5 9.5H5.50001M2.5 11.5H4.5M2.5 13.5H5.50001M2.5 16.5H6.5M2.50001 18.5H5.50001" stroke="#616162" stroke-linecap="round"/>
</svg>
