<?xml version="1.0" encoding="utf-8"?>
<!-- Generator: Adobe Illustrator 21.0.1, SVG Export Plug-In . SVG Version: 6.00 Build 0)  -->
<!DOCTYPE svg PUBLIC "-//W3C//DTD SVG 1.1//EN" "http://www.w3.org/Graphics/SVG/1.1/DTD/svg11.dtd">
<svg version="1.1" id="svg-icon" xmlns="http://www.w3.org/2000/svg" xmlns:xlink="http://www.w3.org/1999/xlink" x="0px" y="0px"
	 width="102" height="102" viewBox="0 0 136 136" style="enable-background:new 0 0 136 136;" xml:space="preserve">
	<title>Embedded Systems</title>
<style type="text/css">
.icon-shape{fill:#212121;}
</style>
<g id="svg-icon">
	<path class="icon-shape" d="M42.5,103.5v4.6c0,1.9,1.6,3.6,3.6,3.6h1.2c2.1,0,3.6-1.7,3.6-3.6v-3.6h-3.4C45.8,104.4,44.1,104.1,42.5,103.5
	L42.5,103.5z"/>
<path class="icon-shape" d="M57.1,108.1c0,1.9,1.6,3.6,3.6,3.6h1.2c2.1,0,3.6-1.7,3.6-3.6v-3.6h-8.5L57.1,108.1L57.1,108.1z"/>
<path class="icon-shape" d="M71.6,108.1c0,1.9,1.6,3.6,3.6,3.6h1.2c2.1,0,3.6-1.7,3.6-3.6v-3.6h-8.5L71.6,108.1L71.6,108.1z"/>
<path class="icon-shape" d="M86.2,104.4v3.6c0,1.9,1.6,3.6,3.6,3.6h1.2c2.1,0,3.6-1.7,3.6-3.6v-4.6c-1.6,0.6-3.3,1-5.1,1H86.2L86.2,104.4z"
	/>
<path class="icon-shape" d="M34,87.4h-3.6c-2.1,0-3.6,1.6-3.6,3.6v1.2c0,1.9,1.6,3.6,3.6,3.6H35c-0.6-1.6-1-3.3-1-5.1V87.4L34,87.4z"/>
<path class="icon-shape" d="M30.4,81.4H34v-8.5h-3.6c-2.1,0-3.6,1.6-3.6,3.6v1.2C26.7,79.7,28.3,81.4,30.4,81.4L30.4,81.4z"/>
<path class="icon-shape" d="M30.4,66.8H34v-8.5h-3.6c-2.1,0-3.6,1.6-3.6,3.6v1.2C26.7,65.1,28.3,66.8,30.4,66.8L30.4,66.8z"/>
<path class="icon-shape" d="M26.7,47.4v1.2c0,1.9,1.6,3.6,3.6,3.6H34v-3.4c0-1.8,0.4-3.5,1-5.1h-4.6C28.3,43.7,26.7,45.3,26.7,47.4
	L26.7,47.4z"/>
<path class="icon-shape" d="M106.9,87.4h-3.6v3.4c0,1.8-0.4,3.5-1,5.1h4.6c2.1,0,3.6-1.7,3.6-3.6v-1.2C110.5,89,108.9,87.4,106.9,87.4
	L106.9,87.4z"/>
<path class="icon-shape" d="M106.9,72.9h-3.6v8.5h3.6c2.1,0,3.6-1.7,3.6-3.6v-1.2C110.5,74.4,108.9,72.9,106.9,72.9L106.9,72.9z"/>
<path class="icon-shape" d="M106.9,58.3h-3.6v8.5h3.6c2.1,0,3.6-1.7,3.6-3.6v-1.2C110.5,59.9,108.9,58.3,106.9,58.3L106.9,58.3z"/>
<path class="icon-shape" d="M106.9,43.7h-4.6c0.6,1.6,1,3.3,1,5.1v3.4h3.6c2.1,0,3.6-1.7,3.6-3.6v-1.2C110.5,45.3,108.9,43.7,106.9,43.7
	L106.9,43.7z"/>
<path class="icon-shape" d="M51,35.2v-3.6c0-2.1-1.6-3.6-3.6-3.6h-1.2c-2.1,0-3.6,1.6-3.6,3.6v4.6c1.6-0.6,3.3-1,5.1-1H51L51,35.2z"/>
<path class="icon-shape" d="M65.6,31.6c0-2.1-1.6-3.6-3.6-3.6h-1.2c-2.1,0-3.6,1.6-3.6,3.6v3.6h8.5L65.6,31.6L65.6,31.6z"/>
<path class="icon-shape" d="M80.1,31.6c0-2.1-1.6-3.6-3.6-3.6h-1.2c-2.1,0-3.6,1.6-3.6,3.6v3.6h8.5L80.1,31.6L80.1,31.6z"/>
<path class="icon-shape" d="M94.7,36.2v-4.6c0-2.1-1.6-3.6-3.6-3.6h-1.2c-2.1,0-3.6,1.6-3.6,3.6v3.6h3.4C91.4,35.2,93.1,35.6,94.7,36.2
	L94.7,36.2z"/>
<path class="icon-shape" d="M94.7,40.3c-1.5-0.9-3.3-1.5-5.1-1.5h-42c-1.8,0-3.6,0.5-5.1,1.5c-1.5,0.8-2.6,2.1-3.4,3.4
	c-0.8,1.5-1.5,3.3-1.5,5.1v42c0,1.8,0.5,3.6,1.5,5.1c0.9,1.5,2.1,2.5,3.4,3.4c1.5,0.8,3.3,1.5,5.1,1.5h42c1.8,0,3.6-0.5,5.1-1.5
	c1.5-0.8,2.5-2.1,3.4-3.4c0.8-1.5,1.5-3.3,1.5-5.1v-42c0-1.8-0.5-3.6-1.5-5.1C97.3,42.3,96.2,41.2,94.7,40.3L94.7,40.3z M95.9,52.2
	v38.6c0,1.3-0.5,2.7-1.2,3.6c-0.4,0.6-0.8,1-1.5,1.5c-1.1,0.7-2.3,1.2-3.6,1.2h-42c-1.3,0-2.7-0.5-3.6-1.2c-0.6-0.4-1-0.8-1.5-1.5
	c-0.7-1.1-1.2-2.3-1.2-3.6v-42c0-1.3,0.5-2.7,1.2-3.6c0.4-0.6,0.9-1,1.5-1.5c1.1-0.7,2.3-1.2,3.6-1.2h42c1.3,0,2.7,0.5,3.6,1.2
	c0.6,0.4,1,0.9,1.5,1.5c0.7,1.1,1.2,2.3,1.2,3.6V52.2L95.9,52.2z"/>
<path class="icon-shape" d="M89.6,46.1h-42c-1.5,0-2.7,1.2-2.7,2.7v42c0,1.5,1.2,2.7,2.7,2.7h42c1.5,0,2.7-1.2,2.7-2.7v-42
	C92.3,47.4,91.1,46.1,89.6,46.1L89.6,46.1z M57.1,87.4c-2.7,0-4.9-2.2-4.9-4.9c0-0.4,0.1-0.9,0.1-1.2c0.5-2.1,2.4-3.6,4.7-3.6
	s4.1,1.6,4.7,3.6c0.1,0.4,0.1,0.9,0.1,1.2C61.9,85.2,59.7,87.4,57.1,87.4L57.1,87.4z"/>
</g>
</svg>
