<?xml version="1.0" encoding="utf-8"?>
<!-- Generator: Adobe Illustrator 22.1.0, SVG Export Plug-In . SVG Version: 6.00 Build 0)  -->
<svg version="1.1" id="Layer_1" xmlns:dc="http://purl.org/dc/elements/1.1/" xmlns:xl="http://www.w3.org/1999/xlink"
	 xmlns="http://www.w3.org/2000/svg" xmlns:xlink="http://www.w3.org/1999/xlink" x="0px" y="0px" viewBox="0 0 16 16"
	 style="enable-background:new 0 0 16 16;" xml:space="preserve">
<style type="text/css">
    .st0{fill:#999;}
    .st1{fill:#4d4d4d;}
    .st2{fill:#333;}
</style>
<title>component_nvm_16</title>
<path class="st0" d="M5,4H7V2H5ZM5,14H7V12H5ZM1,14H3V12H1ZM1,4H3V2H1ZM9,4h2V2H9Zm4-2V4h2V2Zm0,12h2V12H13ZM9,14h2V12H9Z"/>
<path class="st1" d="M0,4v8H16V9.5a1.5,1.5,0,0,1,0-3V4Z"/>
<circle class="st2" cx="11" cy="8" r="2"/>
<circle class="st2" cx="4" cy="8" r="2"/>
</svg>
