<?xml version="1.0" encoding="utf-8"?>
<!-- Generator: Adobe Illustrator 22.1.0, SVG Export Plug-In . SVG Version: 6.00 Build 0)  -->
<svg version="1.1" id="Layer_1" xmlns:dc="http://purl.org/dc/elements/1.1/" xmlns:xl="http://www.w3.org/1999/xlink"
	 xmlns="http://www.w3.org/2000/svg" xmlns:xlink="http://www.w3.org/1999/xlink" x="0px" y="0px" viewBox="0 0 16 16"
	 style="enable-background:new 0 0 16 16;" xml:space="preserve">
<style type="text/css">
	.st0{fill:#FFFFFF;stroke:#3659A8;stroke-miterlimit:10;}
	.st1{fill:none;stroke:#808080;stroke-linecap:round;stroke-linejoin:round;}
	.st2{fill:#807F80;}
</style>
<title>Layer 1</title>
<path class="st0" d="M1,0.5h14c0.3,0,0.5,0.2,0.5,0.5v14c0,0.3-0.2,0.5-0.5,0.5H1c-0.3,0-0.5-0.2-0.5-0.5V1C0.5,0.7,0.7,0.5,1,0.5z"
	/>
<path class="st1" d="M6.8,4.5h2.3c0.3,0,0.3,0.3,0.3,0.3v2.3c0,0.3-0.3,0.3-0.3,0.3H6.8c-0.3,0-0.3-0.3-0.3-0.3V4.8L6.8,4.5z"/>
<rect x="1" y="1" class="st2" width="14" height="2"/>
<path class="st1" d="M2.8,10.5h2.3c0.3,0,0.3,0.3,0.3,0.3v2.3c0,0.3-0.3,0.3-0.3,0.3H2.8c-0.3,0-0.3-0.3-0.3-0.3v-2.3L2.8,10.5z"/>
<path class="st1" d="M10.8,10.5h2.3c0.3,0,0.3,0.3,0.3,0.3v2.3c0,0.3-0.3,0.3-0.3,0.3h-2.3c-0.3,0-0.3-0.3-0.3-0.3v-2.3L10.8,10.5z"
	/>
</svg>
