<?xml version="1.0" encoding="utf-8"?>
<!-- Generator: Adobe Illustrator 22.1.0, SVG Export Plug-In . SVG Version: 6.00 Build 0)  -->
<svg version="1.1" id="Layer_1" xmlns="http://www.w3.org/2000/svg" xmlns:xlink="http://www.w3.org/1999/xlink" x="0px" y="0px"
	 viewBox="0 0 10 10" style="enable-background:new 0 0 10 10;" xml:space="preserve">
<style type="text/css">
	.st0{display:none;fill:#FFFFFF;stroke:#FFFFFF;}
	.st1{display:none;}
	.st2{display:inline;fill:#676767;}
	.st3{display:inline;}
	.st4{fill:url(#SVGID_1_);}
	.st5{fill:url(#SVGID_2_);}
	.st6{display:inline;fill:url(#SVGID_3_);}
	.st7{display:inline;fill:url(#SVGID_4_);}
	.st8{fill:#27AAE1;}
</style>
<polygon class="st0" points="5.3,4.6 5.3,4.5 5.3,1.7 3.6,1.7 0.1,0 0.1,1.7 -1,1.7 -1,2.3 0.1,2.3 0.1,4 3.6,2.3 4.7,2.3 4.7,4.6 
	3.6,4.6 3.6,8 7,8 7,4.6 "/>
<g class="st1">
	<polygon class="st2" points="5.3,5.1 4.7,5.1 4.7,2.3 -1,2.3 -1,1.7 5.3,1.7 5.3,4.5 	"/>
</g>
<g class="st1">
	<g class="st3">
		<g>
			
				<radialGradient id="SVGID_1_" cx="-44.3274" cy="-78.9342" r="4.3334" gradientTransform="matrix(0.9343 0 0 0.7778 41.7938 62.0712)" gradientUnits="userSpaceOnUse">
				<stop  offset="0.2945" style="stop-color:#74C8EB"/>
				<stop  offset="0.6782" style="stop-color:#118EBB"/>
			</radialGradient>
			<polygon class="st4" points="0.4,0.4 3.6,2 0.4,3.5 			"/>
			<linearGradient id="SVGID_2_" gradientUnits="userSpaceOnUse" x1="2.1429" y1="0" x2="2.1429" y2="4">
				<stop  offset="0" style="stop-color:#3588C8"/>
				<stop  offset="0.5954" style="stop-color:#1F5485"/>
				<stop  offset="0.8957" style="stop-color:#16406F"/>
			</linearGradient>
			<path class="st5" d="M0.7,0.7L3.2,2L0.7,3.3V0.7 M0.1,0v4l4-2L0.1,0L0.1,0z"/>
		</g>
	</g>
</g>
<g class="st1">
	<radialGradient id="SVGID_3_" cx="4.2678" cy="5.0562" r="3.8258" gradientUnits="userSpaceOnUse">
		<stop  offset="7.361960e-02" style="stop-color:#E5A689"/>
		<stop  offset="0.3916" style="stop-color:#E26B30"/>
		<stop  offset="0.6311" style="stop-color:#D34D28"/>
		<stop  offset="0.7077" style="stop-color:#CE4227"/>
	</radialGradient>
	<rect x="3.9" y="4.9" class="st6" width="2.9" height="2.9"/>
	<linearGradient id="SVGID_4_" gradientUnits="userSpaceOnUse" x1="5.2857" y1="4.5938" x2="5.2857" y2="8">
		<stop  offset="0" style="stop-color:#A33122"/>
		<stop  offset="0.1874" style="stop-color:#993120"/>
		<stop  offset="0.5248" style="stop-color:#7F311B"/>
		<stop  offset="0.9711" style="stop-color:#592A0F"/>
		<stop  offset="1" style="stop-color:#56290E"/>
	</linearGradient>
	<path class="st7" d="M6.4,5.1v2.3H4.1V5.1L6.4,5.1 M3.6,4.6V8H7V4.6H3.6z"/>
</g>
<g>
	<path class="st8" d="M9.4,0.6C9,0.2,8.4,0,7.9,0C7.3,0,6.8,0.2,6.3,0.6L4.9,2.1c0,0,0.7,0,1,0.2l1-1C7.2,1,7.5,0.9,7.9,0.9
		c0.3,0,0.6,0.1,0.9,0.4c0.5,0.5,0.5,1.3,0,1.8L7.1,4.7L6.2,5.6l0,0C5.9,5.8,5.6,6,5.3,6C4.9,6,4.6,5.8,4.4,5.6L3.8,6.2
		c0.3,0.3,0.7,0.5,1.2,0.6c0.1,0,0.2,0,0.3,0c0.5,0,1.1-0.2,1.5-0.6l0,0l2.6-2.6C10.2,2.8,10.2,1.5,9.4,0.6z"/>
	<path class="st8" d="M2.9,5.3l0.9-0.9l0,0C4.1,4.2,4.4,4,4.7,4c0.3,0,0.6,0.1,0.9,0.4l0.6-0.6C5.9,3.4,5.5,3.2,5.1,3.2
		c-0.1,0-0.2,0-0.3,0c-0.5,0-1.1,0.2-1.5,0.6l0,0L0.6,6.3c-0.8,0.8-0.8,2.2,0,3C1,9.8,1.6,10,2.1,10c0.5,0,1.1-0.2,1.5-0.6l1.4-1.4
		c0,0-0.6,0-1-0.2l-1,1C2.8,9,2.5,9.1,2.1,9.1C1.8,9.1,1.5,9,1.3,8.7C0.8,8.3,0.8,7.5,1.3,7L2.9,5.3z"/>
</g>
</svg>
