<svg xmlns="http://www.w3.org/2000/svg" width="20" height="20" viewBox="0 0 20 20" fill="none">
<path fill-rule="evenodd" clip-rule="evenodd" d="M10.5 0.5V0.499512H10.4993C4.97663 0.499512 0.499634 4.75281 0.499634 9.99951C0.499634 15.2462 4.97663 19.4995 10.4993 19.4995H10.5V16C14.9732 15.9995 18.5992 12.5299 18.5992 8.25C18.5992 3.97009 14.9732 0.500482 10.5 0.5Z" fill="var(--mw-sidebar-icon-fill, #ffffff)"/>
<path d="M10.5 0.499512H11V-0.000488281H10.5V0.499512ZM10.5 0.5H10V0.999946L10.5 1L10.5 0.5ZM10.5 19.4995V19.9995H11V19.4995H10.5ZM10.5 16L10.5 15.5L10 15.5001V16H10.5ZM10 0.499512V0.5H11V0.499512H10ZM10.4993 0.999512H10.5V-0.000488281H10.4993V0.999512ZM0.999634 9.99951C0.999634 5.05279 5.22831 0.999512 10.4993 0.999512V-0.000488281C4.72494 -0.000488281 -0.000366211 4.45282 -0.000366211 9.99951H0.999634ZM10.4993 18.9995C5.22831 18.9995 0.999634 14.9462 0.999634 9.99951H-0.000366211C-0.000366211 15.5462 4.72494 19.9995 10.4993 19.9995V18.9995ZM10.5 18.9995H10.4993V19.9995H10.5V18.9995ZM10 16V19.4995H11V16H10ZM18.0992 8.25C18.0992 12.2332 14.7181 15.4995 10.5 15.5L10.5001 16.5C15.2283 16.4995 19.0992 12.8266 19.0992 8.25H18.0992ZM10.5 1C14.7181 1.00045 18.0992 4.2668 18.0992 8.25H19.0992C19.0992 3.67338 15.2283 0.000509262 10.5001 2.98023e-08L10.5 1Z" fill="var(--mw-sidebar-icon-stroke, #616161)"/>
<path d="M11.3124 3.5069C11.3769 3.33278 11.6231 3.33278 11.6876 3.5069L12.6835 6.19834C12.7038 6.25309 12.7469 6.29625 12.8017 6.31651L15.4931 7.31243C15.6672 7.37686 15.6672 7.62314 15.4931 7.68757L12.8017 8.68349C12.7469 8.70375 12.7038 8.74691 12.6835 8.80166L11.6876 11.4931C11.6231 11.6672 11.3769 11.6672 11.3124 11.4931L10.3165 8.80166C10.2962 8.74691 10.2531 8.70375 10.1983 8.68349L7.5069 7.68757C7.33278 7.62314 7.33278 7.37686 7.5069 7.31243L10.1983 6.31651C10.2531 6.29625 10.2962 6.25309 10.3165 6.19834L11.3124 3.5069Z" fill="var(--mw-sidebar-icon-stroke, #616161)"/>
<path d="M5.81243 9.0069C5.87686 8.83278 6.12314 8.83278 6.18757 9.0069L6.77836 10.6035C6.79861 10.6582 6.84178 10.7014 6.89652 10.7216L8.4931 11.3124C8.66722 11.3769 8.66722 11.6231 8.4931 11.6876L6.89652 12.2784C6.84178 12.2986 6.79861 12.3418 6.77836 12.3965L6.18757 13.9931C6.12314 14.1672 5.87686 14.1672 5.81243 13.9931L5.22164 12.3965C5.20139 12.3418 5.15822 12.2986 5.10348 12.2784L3.5069 11.6876C3.33278 11.6231 3.33278 11.3769 3.5069 11.3124L5.10348 10.7216C5.15822 10.7014 5.20139 10.6582 5.22164 10.6035L5.81243 9.0069Z" fill="var(--mw-sidebar-icon-stroke, #616161)"/>
</svg>