<svg width="20" height="20" viewBox="0 0 20 20" fill="none" xmlns="http://www.w3.org/2000/svg">
<path d="M7.5 0.5H1.5C0.947715 0.5 0.5 0.947715 0.5 1.5V7.5C0.5 8.05228 0.947715 8.5 1.5 8.5H7.5C8.05228 8.5 8.5 8.05228 8.5 7.5V1.5C8.5 0.947715 8.05228 0.5 7.5 0.5Z" fill="var(--mw-sidebar-icon-fill, #ffffff)"/>
<path d="M17.5 10.5H11.5C10.9477 10.5 10.5 10.9477 10.5 11.5V17.5C10.5 18.0523 10.9477 18.5 11.5 18.5H17.5C18.0523 18.5 18.5 18.0523 18.5 17.5V11.5C18.5 10.9477 18.0523 10.5 17.5 10.5Z" fill="var(--mw-sidebar-icon-fill, #ffffff)"/>
<path d="M7.32845 17.3284C8.89054 15.7663 8.89051 13.2337 7.3284 11.6716C5.76629 10.1095 3.23363 10.1095 1.67155 11.6716C0.109463 13.2337 0.109488 15.7663 1.6716 17.3284C3.23371 18.8905 5.76637 18.8905 7.32845 17.3284Z" fill="var(--mw-sidebar-icon-fill, #ffffff)"/>
<path d="M17.3285 7.32843C18.8905 5.76633 18.8905 3.23367 17.3284 1.67157C15.7663 0.109476 13.2336 0.109476 11.6715 1.67157C10.1095 3.23367 10.1095 5.76633 11.6716 7.32843C13.2337 8.89052 15.7664 8.89052 17.3285 7.32843Z" fill="var(--mw-sidebar-icon-fill, #ffffff)"/>
<path d="M7.5 0.5H1.5C0.947715 0.5 0.5 0.947715 0.5 1.5V7.5C0.5 8.05228 0.947715 8.5 1.5 8.5H7.5C8.05228 8.5 8.5 8.05228 8.5 7.5V1.5C8.5 0.947715 8.05228 0.5 7.5 0.5Z" stroke="var(--mw-sidebar-icon-stroke, #616161)"/>
<path d="M17.5 10.5H11.5C10.9477 10.5 10.5 10.9477 10.5 11.5V17.5C10.5 18.0523 10.9477 18.5 11.5 18.5H17.5C18.0523 18.5 18.5 18.0523 18.5 17.5V11.5C18.5 10.9477 18.0523 10.5 17.5 10.5Z" stroke="var(--mw-sidebar-icon-stroke, #616161)"/>
<path d="M7.32845 17.3284C8.89054 15.7663 8.89051 13.2337 7.3284 11.6716C5.76629 10.1095 3.23363 10.1095 1.67155 11.6716C0.109463 13.2337 0.109488 15.7663 1.6716 17.3284C3.23371 18.8905 5.76637 18.8905 7.32845 17.3284Z" stroke="var(--mw-sidebar-icon-stroke, #616161)"/>
<path d="M17.3285 7.32843C18.8905 5.76633 18.8905 3.23367 17.3284 1.67157C15.7663 0.109476 13.2336 0.109476 11.6715 1.67157C10.1095 3.23367 10.1095 5.76633 11.6716 7.32843C13.2337 8.89052 15.7664 8.89052 17.3285 7.32843Z" stroke="var(--mw-sidebar-icon-stroke, #616161)"/>
</svg>
