<svg width="20" height="20" viewBox="0 0 20 20" fill="none" xmlns="http://www.w3.org/2000/svg">
<path d="M0.5 2.5H16.5V12.5C16.5 13.0523 16.0523 13.5 15.5 13.5H1.5C0.947715 13.5 0.5 13.0523 0.5 12.5V2.5Z" fill="var(--mw-sidebar-icon-fill, #ffffff)" stroke="var(--mw-sidebar-icon-stroke, #616161)"/>
<path d="M0.5 1.5C0.5 0.947715 0.947715 0.5 1.5 0.5H15.5C16.0523 0.5 16.5 0.947715 16.5 1.5V2.5H0.5V1.5Z" fill="var(--mw-sidebar-icon-fill, #ffffff)" stroke="var(--mw-sidebar-icon-stroke, #616161)"/>
<path d="M2.5 4.5L5 6.5L2.5 8.5M5.5 4.5L8 6.5L5.5 8.5" stroke="var(--mw-sidebar-icon-stroke, #616161)" stroke-linecap="round" stroke-linejoin="round"/>
<path d="M17.7427 17.7426C20.0858 15.3995 20.0858 11.6005 17.7426 9.25736C15.3994 6.91421 11.6004 6.91421 9.25732 9.25736C6.9142 11.6005 6.91423 15.3995 9.2574 17.7426C11.6006 20.0858 15.3996 20.0858 17.7427 17.7426Z" fill="var(--mw-sidebar-icon-fill, #ffffff)" stroke="var(--mw-sidebar-icon-stroke, #616161)"/>
<path d="M13.5 10.5V13.5L16 16" stroke="var(--mw-sidebar-icon-stroke, #616161)" stroke-linecap="round" stroke-linejoin="round"/>
</svg>
