<svg xmlns="http://www.w3.org/2000/svg" width="20" height="20" viewBox="0 0 20 20" fill="none">
<path d="M17.5 3.5H1.5V15.5H17.5V3.5Z" fill="var(--mw-sidebar-icon-fill, #ffffff)" stroke="var(--mw-sidebar-icon-stroke, #616161)" stroke-linejoin="round"/>
<path d="M4.5 8.5H14.5L11.5 5.5M14.5 10.5L4.5 10.5L7.5 13.5" stroke="var(--mw-sidebar-icon-stroke, #616161)" stroke-linecap="round" stroke-linejoin="round"/>
<path d="M19.6 15H0.4C0.179086 15 0 15.1791 0 15.4C0 16.2837 0.716345 17 1.6 17H18.4C19.2837 17 20 16.2837 20 15.4C20 15.1791 19.8209 15 19.6 15Z" fill="var(--mw-sidebar-icon-stroke, #616161)"/>
<path d="M7 15H13V15.5C13 15.7761 12.7761 16 12.5 16H7.5C7.22386 16 7 15.7761 7 15.5V15Z" fill="var(--mw-icon-background-default-dark-gray, #A6A6A6)"/>
</svg>