<svg width="20" height="20" viewBox="0 0 20 20" fill="none" xmlns="http://www.w3.org/2000/svg">
<path d="M10.7929 4.79289C10.6054 4.60536 10.351 4.5 10.0858 4.5H3.5C2.94772 4.5 2.5 4.94772 2.5 5.5V17.5C2.5 18.0523 2.94771 18.5 3.5 18.5H12.5C13.0523 18.5 13.5 18.0523 13.5 17.5V7.91421C13.5 7.649 13.3946 7.39464 13.2071 7.20711L10.7929 4.79289Z" fill="var(--mw-sidebar-icon-fill, #ffffff)" stroke="var(--mw-sidebar-icon-stroke, #616161)" stroke-linecap="round"/>
<path d="M12.7929 2.79289C12.6054 2.60536 12.351 2.5 12.0858 2.5H5.5C4.94772 2.5 4.5 2.94772 4.5 3.5V15.5C4.5 16.0523 4.94771 16.5 5.5 16.5H14.5C15.0523 16.5 15.5 16.0523 15.5 15.5V5.91421C15.5 5.649 15.3946 5.39464 15.2071 5.20711L12.7929 2.79289Z" fill="var(--mw-sidebar-icon-fill, #ffffff)" stroke="var(--mw-sidebar-icon-stroke, #616161)" stroke-linecap="round"/>
<path d="M14.7929 0.792893C14.6054 0.605357 14.351 0.5 14.0858 0.5H7.5C6.94772 0.5 6.5 0.947716 6.5 1.5V13.5C6.5 14.0523 6.94771 14.5 7.5 14.5H16.5C17.0523 14.5 17.5 14.0523 17.5 13.5V3.91421C17.5 3.649 17.3946 3.39464 17.2071 3.20711L14.7929 0.792893Z" fill="var(--mw-sidebar-icon-fill, #ffffff)" stroke="var(--mw-sidebar-icon-stroke, #616161)" stroke-linecap="round"/>
<path d="M8.5 3.5H11.5M10.5 5.5H13.5M12.5 7.5H15.5M10.5 9.5H13.5M8.5 11.5H11.5" stroke="var(--mw-sidebar-icon-stroke, #616161)" stroke-linecap="round"/>
</svg>
