<svg width="20" height="20" viewBox="0 0 20 20" fill="none" xmlns="http://www.w3.org/2000/svg">
<path d="M9.79289 0.792893C9.60536 0.605357 9.351 0.5 9.08579 0.5H2.5C1.94772 0.5 1.5 0.947716 1.5 1.5V13.5C1.5 14.0523 1.94771 14.5 2.5 14.5H11.5C12.0523 14.5 12.5 14.0523 12.5 13.5V3.91421C12.5 3.649 12.3946 3.39464 12.2071 3.20711L9.79289 0.792893Z" fill="var(--mw-sidebar-icon-fill, #ffffff)" stroke="var(--mw-sidebar-icon-stroke, #616161)" stroke-linecap="round"/>
<path d="M3.5 3.5H6.5M5.5 5.5H8.5M7.5 7.5H10.5M5.5 9.5H8.5M3.5 11.5H6.5" stroke="var(--mw-sidebar-icon-stroke, #616161)" stroke-linecap="round"/>
<path d="M8.96745 19.2284L13.9136 14.2822L12.9937 13.3623L8.04753 18.3085C7.79902 18.557 7.79902 18.96 8.04754 19.2085L8.06749 19.2284C8.31601 19.4769 8.71893 19.4769 8.96745 19.2284Z" fill="var(--mw-sidebar-icon-fill, #ffffff)" stroke="var(--mw-sidebar-icon-stroke, #616161)"/>
<path d="M11.6715 9.67157C10.1095 11.2337 10.1095 13.7663 11.6716 15.3284C13.2337 16.8905 15.7664 16.8905 17.3285 15.3284C18.8905 13.7663 18.8905 11.2337 17.3284 9.67157C15.7663 8.10948 13.2336 8.10948 11.6715 9.67157Z" fill="var(--mw-sidebar-icon-fill, #ffffff)" stroke="var(--mw-sidebar-icon-stroke, #616161)"/>
</svg>
