<svg width="20" height="20" viewBox="0 0 20 20" fill="none" xmlns="http://www.w3.org/2000/svg">
<path d="M17 0.5H2C1.17157 0.5 0.5 1.17157 0.5 2V17C0.5 17.8284 1.17157 18.5 2 18.5H17C17.8284 18.5 18.5 17.8284 18.5 17V2C18.5 1.17157 17.8284 0.5 17 0.5Z" fill="var(--mw-sidebar-icon-fill, #ffffff)" stroke="var(--mw-sidebar-icon-stroke, #616161)"/>
<path d="M14 4.5H5C4.72386 4.5 4.5 4.72386 4.5 5V14C4.5 14.2761 4.72386 14.5 5 14.5H14C14.2761 14.5 14.5 14.2761 14.5 14V5C14.5 4.72386 14.2761 4.5 14 4.5Z" fill="var(--mw-sidebar-icon-fill, #ffffff)" stroke="var(--mw-sidebar-icon-stroke, #616161)"/>
</svg>
