<svg width="20" height="20" viewBox="0 0 20 20" fill="none" xmlns="http://www.w3.org/2000/svg">
<path d="M1.5 5.5H18.5V16.5C18.5 17.0523 18.0523 17.5 17.5 17.5H2.5C1.94772 17.5 1.5 17.0523 1.5 16.5V5.5Z" fill="var(--mw-sidebar-icon-fill, #ffffff)" stroke="var(--mw-sidebar-icon-stroke, #616161)"/>
<path d="M7.5 7.5H12.5" stroke="var(--mw-sidebar-icon-stroke, #616161)" stroke-linecap="round"/>
<path d="M0.5 2C0.5 1.72386 0.723858 1.5 1 1.5H19C19.2761 1.5 19.5 1.72386 19.5 2V5.5H0.5V2Z" fill="var(--mw-sidebar-icon-fill, #ffffff)"/>
<path d="M19.5 5.5V6C19.7761 6 20 5.77614 20 5.5H19.5ZM0.5 5.5H0C0 5.77614 0.223858 6 0.5 6L0.5 5.5ZM1 2H19V1H1V2ZM19 2V5.5H20V2H19ZM19.5 5H0.5V6H19.5V5ZM1 5.5V2H0V5.5H1ZM19 2H20C20 1.44771 19.5523 1 19 1V2ZM1 1C0.447715 1 0 1.44772 0 2H1V1Z" fill="var(--mw-sidebar-icon-stroke, #616161)"/>
</svg>
