<svg xmlns="http://www.w3.org/2000/svg" width="20" height="20" viewBox="0 0 20 20" fill="none">
<path d="M1.5 4.5H15.5V13.5C15.5 14.0523 15.0523 14.5 14.5 14.5H2.5C1.94772 14.5 1.5 14.0523 1.5 13.5V4.5Z" fill="var(--mw-sidebar-icon-fill, #ffffff)" stroke="var(--mw-sidebar-icon-stroke, #616161)"/>
<path d="M6.5 6.49997H10.5" stroke="var(--mw-sidebar-icon-stroke, #616161)" stroke-linecap="round"/>
<path d="M0.5 2C0.5 1.72386 0.723858 1.5 1 1.5H16C16.2761 1.5 16.5 1.72386 16.5 2V4.5H0.5V2Z" fill="var(--mw-sidebar-icon-fill, #ffffff)" stroke="var(--mw-sidebar-icon-stroke, #616161)" stroke-linejoin="round"/>
<path d="M13.5 7.5L19.5 18.5H7.5L13.5 7.5Z" fill="var(--mw-sidebar-icon-fill, #ffffff)" stroke="var(--mw-sidebar-icon-stroke, #616161)" stroke-linecap="square" stroke-linejoin="round"/>
<path fill-rule="evenodd" clip-rule="evenodd" d="M13.5 11C13.7761 11 14 11.2239 14 11.5V14.5C14 14.7761 13.7761 15 13.5 15C13.2239 15 13 14.7761 13 14.5V11.5C13 11.2239 13.2239 11 13.5 11Z" fill="var(--mw-sidebar-icon-stroke, #616161)"/>
<path d="M14 16.5C14 16.7761 13.7761 17 13.5 17C13.2239 17 13 16.7761 13 16.5C13 16.2239 13.2239 16 13.5 16C13.7761 16 14 16.2239 14 16.5Z" fill="var(--mw-sidebar-icon-stroke, #616161)"/>
</svg>