<svg width="20" height="20" viewBox="0 0 20 20" fill="none" xmlns="http://www.w3.org/2000/svg">
<path d="M0.5 16.5V2.5C0.5 1.39543 1.39543 0.5 2.5 0.5H16.5C17.6046 0.5 18.5 1.39543 18.5 2.5V16.5C18.5 17.6046 17.6046 18.5 16.5 18.5H2.5C1.39543 18.5 0.5 17.6046 0.5 16.5Z" fill="var(--mw-sidebar-icon-fill, #ffffff)" stroke="var(--mw-sidebar-icon-stroke, #616161)" stroke-linecap="round"/>
<path d="M9.5 4.5H15.5M9.5 9.5H15.5M9.5 14.5H15.5" stroke="var(--mw-sidebar-icon-stroke, #616161)" stroke-linecap="round" stroke-linejoin="round"/>
<path d="M3.5 4.5L4.35714 5.5L6.5 3.5M3.5 9.5L4.35714 10.5L6.5 8.5M3.5 12.5L5 14M5 14L6.5 15.5M5 14L6.5 12.5M5 14L3.5 15.5" stroke="var(--mw-sidebar-icon-stroke, #616161)" stroke-linecap="round" stroke-linejoin="round"/>
</svg>
