<svg width="12" height="12" viewBox="0 0 12 12" fill="none" xmlns="http://www.w3.org/2000/svg">
<path d="M3.51472 2.37331e-08L8.48528 0L12 3.51472V8.48528L8.48528 12H3.51472L2.37331e-08 8.48528L0 3.51472L3.51472 2.37331e-08Z" fill="var(--mw-icon-object-primary, #616160)"/>
<path d="M5 2.5C5 2.22386 5.22386 2 5.5 2L6.5 2C6.77614 2 7 2.22386 7 2.5L7 6.5C7 6.77614 6.77614 7 6.5 7H5.5C5.22386 7 5 6.77614 5 6.5L5 2.5Z" fill="var(--mw-icon-object-secondary, #FFFFFE)"/>
<path d="M7 9C7 9.55228 6.55228 10 6 10C5.44772 10 5 9.55228 5 9C5 8.44772 5.44772 8 6 8C6.55228 8 7 8.44772 7 9Z" fill="var(--mw-icon-object-secondary, #FFFFFE)"/>
</svg>
