<svg width="12" height="12" viewBox="0 0 12 12" fill="none" xmlns="http://www.w3.org/2000/svg">
<path d="M10.8775 1.8646C11.1573 1.52563 10.9268 1 10.4984 1H5.50162C5.07323 1 4.84271 1.52554 5.12241 1.86454L6.9984 4H9.00098L10.8775 1.8646Z" fill="var(--mw-icon-object-primary, #616160)"/>
<path d="M7.27515 7.42106C7.10554 7.33247 6.9984 7.15135 6.9984 6.95324L6.9984 4H9.00098L9.00101 7.47628C9.00101 7.8651 8.60934 8.11799 8.27646 7.94411L7.27515 7.42106Z" fill="var(--mw-icon-object-primary, #616160)"/>
<path d="M3 11L5 7.99999H1L3 11Z" fill="var(--mw-icon-object-primary, #616160)"/>
<path d="M2 6.00005H4V8.00005H2V6.00005Z" fill="var(--mw-icon-object-primary, #616160)"/>
<path d="M2 4H4V5H2V4Z" fill="var(--mw-icon-object-primary, #616160)"/>
</svg>
