<svg width="12" height="12" viewBox="0 0 12 12" fill="none" xmlns="http://www.w3.org/2000/svg">
<path d="M0.5 1C0.5 0.723858 0.723858 0.5 1 0.5H10C10.2761 0.5 10.5 0.723858 10.5 1V10C10.5 10.2761 10.2761 10.5 10 10.5H1C0.723858 10.5 0.5 10.2761 0.5 10V1Z" stroke="var(--mw-icon-object-primary, #616160)"/>
<path d="M6 5H5V6H6V5Z" fill="var(--mw-icon-glyph-disabled-gray, #888889)"/>
<path d="M2 2H4L3.35355 2.64645L4.70706 3.99995L3.99995 4.70706L2.64645 3.35355L2 4V2Z" fill="var(--mw-icon-object-primary, #616160)"/>
<path d="M7 2H9V4L8.35351 3.35351L6.99995 4.70706L6.29285 3.99995L7.6464 2.6464L7 2Z" fill="var(--mw-icon-object-primary, #616160)"/>
<path d="M7 9H9V7L8.35355 7.64645L6.99995 6.29285L6.29285 6.99995L7.64645 8.35355L7 9Z" fill="var(--mw-icon-object-primary, #616160)"/>
<path d="M4 9H2V7L2.6464 7.6464L3.99995 6.29285L4.70706 6.99995L3.35351 8.35351L4 9Z" fill="var(--mw-icon-object-primary, #616160)"/>
</svg>
