<svg width="12" height="12" viewBox="0 0 12 12" fill="none" xmlns="http://www.w3.org/2000/svg">
<path d="M0 6C0 2.68629 2.68629 0 6 0C9.31371 0 12 2.68629 12 6C12 9.31371 9.31371 12 6 12C2.68629 12 0 9.31371 0 6Z" fill="var(--mw-icon-object-primary, #616160)"/>
<path d="M5.18605 7.63441C5.18605 7.15771 5.25 6.77778 5.37791 6.49462C5.50581 6.21147 5.75775 5.90143 6.13372 5.56452C6.51357 5.22401 6.75388 4.98208 6.85465 4.83871C7.00969 4.62007 7.08721 4.38351 7.08721 4.12903C7.08721 3.79211 6.99612 3.53584 6.81395 3.36022C6.63566 3.181 6.37209 3.0914 6.02326 3.0914C5.68992 3.0914 5.42054 3.17921 5.21512 3.35484C5.01357 3.52688 4.91279 3.76165 4.91279 4.05914H3.5C3.50775 3.42473 3.74031 2.92294 4.19767 2.55376C4.65891 2.18459 5.26744 2 6.02326 2C6.80233 2 7.40891 2.1828 7.84302 2.54839C8.28101 2.91398 8.5 3.42473 8.5 4.08065C8.5 4.66487 8.20543 5.24014 7.61628 5.80645L6.90116 6.45699C6.64535 6.72581 6.51357 7.11828 6.50581 7.63441H5.18605ZM5.08721 9.30645C5.08721 9.09498 5.15891 8.92473 5.30233 8.7957C5.44574 8.66308 5.63953 8.59677 5.88372 8.59677C6.13178 8.59677 6.32752 8.66487 6.47093 8.80107C6.61434 8.93369 6.68605 9.10215 6.68605 9.30645C6.68605 9.50358 6.61628 9.66846 6.47674 9.80107C6.33721 9.93369 6.13953 10 5.88372 10C5.62791 10 5.43023 9.93369 5.2907 9.80107C5.15504 9.66846 5.08721 9.50358 5.08721 9.30645Z" fill="var(--mw-icon-object-secondary, #FFFFFE)"/>
</svg>
