<svg width="12" height="12" viewBox="0 0 12 12" fill="none" xmlns="http://www.w3.org/2000/svg">
<path d="M0 6C0 2.68629 2.68629 0 6 0C9.31371 0 12 2.68629 12 6C12 9.31371 9.31371 12 6 12C2.68629 12 0 9.31371 0 6Z" fill="var(--mw-icon-object-primary, #616160)"/>
<path d="M7 9.5C7 9.77614 6.77614 10 6.5 10H5.5C5.22386 10 5 9.77614 5 9.5V5.5C5 5.22386 5.22386 5 5.5 5H6.5C6.77614 5 7 5.22386 7 5.5V9.5Z" fill="var(--mw-icon-object-secondary, #FFFFFE)"/>
<path d="M5 3C5 2.44772 5.44772 2 6 2C6.55228 2 7 2.44772 7 3C7 3.55228 6.55228 4 6 4C5.44772 4 5 3.55228 5 3Z" fill="var(--mw-icon-object-secondary, #FFFFFE)"/>
</svg>
