<svg width="12" height="12" viewBox="0 0 12 12" fill="none" xmlns="http://www.w3.org/2000/svg">
<path d="M8.75 1C8.88807 1 9 1.11193 9 1.25V1.75C9 1.88807 8.88807 2 8.75 2L3.25 2C3.11193 2 3 1.88807 3 1.75L3 1.25C3 1.11193 3.11193 1 3.25 1L8.75 1Z" fill="var(--mw-icon-object-primary, #616160)"/>
<path d="M8.75 3C8.88807 3 9 3.11193 9 3.25V3.75C9 3.88807 8.88807 4 8.75 4L3.25 4C3.11193 4 3 3.88807 3 3.75L3 3.25C3 3.11193 3.11193 3 3.25 3L8.75 3Z" fill="var(--mw-icon-object-primary, #616160)"/>
<path d="M8.75 5C8.88807 5 9 5.11193 9 5.25V5.75C9 5.88807 8.88807 6 8.75 6L3.25 6C3.11193 6 3 5.88807 3 5.75L3 5.25C3 5.11193 3.11193 5 3.25 5L8.75 5Z" fill="var(--mw-icon-object-primary, #616160)"/>
<path d="M8.75 7C8.88807 7 9 7.11193 9 7.25V7.75C9 7.88807 8.88807 8 8.75 8L3.25 8C3.11193 8 3 7.88807 3 7.75L3 7.25C3 7.11193 3.11193 7 3.25 7L8.75 7Z" fill="var(--mw-icon-object-primary, #616160)"/>
<path d="M8.75 9C8.88807 9 9 9.11193 9 9.25V9.75C9 9.88807 8.88807 10 8.75 10H3.25C3.11193 10 3 9.88807 3 9.75L3 9.25C3 9.11193 3.11193 9 3.25 9H8.75Z" fill="var(--mw-icon-object-primary, #616160)"/>
</svg>
