<svg width="12" height="12" viewBox="0 0 12 12" fill="none" xmlns="http://www.w3.org/2000/svg">
<path d="M4.5 9C4.22386 9 4 8.77614 4 8.5L4 3.5C4 3.22386 4.22386 3 4.5 3C4.77614 3 5 3.22386 5 3.5L5 8.5C5 8.77614 4.77614 9 4.5 9Z" fill="var(--mw-icon-object-primary, #616160)"/>
<path d="M7.5 9C7.22386 9 7 8.77614 7 8.5L7 3.5C7 3.22386 7.22386 3 7.5 3C7.77614 3 8 3.22386 8 3.5L8 8.5C8 8.77614 7.77614 9 7.5 9Z" fill="var(--mw-icon-object-primary, #616160)"/>
<circle cx="6" cy="6" r="5.5" stroke="var(--mw-icon-object-primary, #616160)"/>
</svg>
