<svg width="12" height="12" viewBox="0 0 12 12" fill="none" xmlns="http://www.w3.org/2000/svg">
<path d="M8.66667 2C8.85076 2 9 2.14924 9 2.33333L8.99998 9.66667C8.99998 9.85076 8.85075 10 8.66665 10L7.33333 10C7.14924 10 7 9.85076 7 9.66667L7.00002 2.33333C7.00002 2.14924 7.14925 2 7.33335 2L8.66667 2Z" fill="var(--mw-icon-object-primary, #616160)"/>
<path d="M4.66667 2C4.85076 2 5 2.14924 5 2.33333L4.99998 9.66667C4.99998 9.85076 4.85075 10 4.66665 10L3.33333 10C3.14924 10 3 9.85076 3 9.66667L3.00002 2.33333C3.00002 2.14924 3.14925 2 3.33335 2L4.66667 2Z" fill="var(--mw-icon-object-primary, #616160)"/>
</svg>
