<svg width="12" height="12" viewBox="0 0 12 12" fill="none" xmlns="http://www.w3.org/2000/svg">
<path d="M3 0.5C3 0.223858 3.22386 0 3.5 0H7.5C7.77614 0 8 0.223858 8 0.5C8 0.776142 7.77614 1 7.5 1C7.22386 1 7 1.22386 7 1.5V3.71922C7 4.17809 7.3123 4.57807 7.75746 4.68937L8.62127 4.90532C8.84385 4.96096 9 5.16095 9 5.39039V5.5C9 5.77614 8.77614 6 8.5 6H6V10L5.5 11L5 10V6H2.5C2.22386 6 2 5.77614 2 5.5V5.39039C2 5.16095 2.15615 4.96096 2.37873 4.90532L3.24254 4.68937C3.6877 4.57807 4 4.17809 4 3.71922V1.5C4 1.22386 3.77614 1 3.5 1C3.22386 1 3 0.776142 3 0.5Z" fill="var(--mw-icon-object-primary, #616160)"/>
</svg>
