<svg width="12" height="12" viewBox="0 0 12 12" fill="none" xmlns="http://www.w3.org/2000/svg">
<path d="M0.5 1C0.5 0.723858 0.723858 0.5 1 0.5H10C10.2761 0.5 10.5 0.723858 10.5 1V10C10.5 10.2761 10.2761 10.5 10 10.5H1C0.723858 10.5 0.5 10.2761 0.5 10V1Z" stroke="var(--mw-icon-object-primary, #616160)"/>
<path d="M6 5H5V6H6V5Z" fill="var(--mw-icon-glyph-disabled-gray, #888889)"/>
<path d="M3.00008 6.00008H5.00008V8.00008L4.35363 7.35363L3.00008 8.70718L2.29297 8.00008L3.64652 6.64652L3.00008 6.00008Z" fill="var(--mw-icon-object-primary, #616160)"/>
<path d="M6.00008 8.00008L6.64652 7.35363L8.00008 8.70718L8.70718 8.00008L7.35363 6.64652L8.00008 6.00008H6.00008V8.00008Z" fill="var(--mw-icon-object-primary, #616160)"/>
<path d="M7.35363 4.35363L8.70718 3.00008L8.00008 2.29297L6.64652 3.64652L6.00008 3.00008V5.00008H8.00008L7.35363 4.35363Z" fill="var(--mw-icon-object-primary, #616160)"/>
<path d="M3.00008 2.29297L4.35363 3.64652L5.00008 3.00008V5.00008H3.00008L3.64652 4.35363L2.29297 3.00008L3.00008 2.29297Z" fill="var(--mw-icon-object-primary, #616160)"/>
</svg>
