<svg width="12" height="12" viewBox="0 0 12 12" fill="none" xmlns="http://www.w3.org/2000/svg">
<path d="M8.5 2.5L3.5 5.5L8.5 8.5" stroke="var(--mw-icon-object-primary, #616160)" stroke-width="0.75" stroke-linejoin="round"/>
<path d="M10 2.5C10 3.32843 9.32843 4 8.5 4C7.67157 4 7 3.32843 7 2.5C7 1.67157 7.67157 1 8.5 1C9.32843 1 10 1.67157 10 2.5Z" fill="var(--mw-icon-object-primary, #616160)"/>
<path d="M5 5.5C5 6.32843 4.32843 7 3.5 7C2.67157 7 2 6.32843 2 5.5C2 4.67157 2.67157 4 3.5 4C4.32843 4 5 4.67157 5 5.5Z" fill="var(--mw-icon-object-primary, #616160)"/>
<path d="M10 8.5C10 9.32843 9.32843 10 8.5 10C7.67157 10 7 9.32843 7 8.5C7 7.67157 7.67157 7 8.5 7C9.32843 7 10 7.67157 10 8.5Z" fill="var(--mw-icon-object-primary, #616160)"/>
</svg>
