<svg width="12" height="12" viewBox="0 0 12 12" fill="none" xmlns="http://www.w3.org/2000/svg">
<path fill-rule="evenodd" clip-rule="evenodd" d="M5.50002 2C2.75001 2 0 4.62508 0 5.5001C0.000857328 6.376 2.75047 8.9998 5.50005 8.9998C8.25008 8.9998 11 6.37513 11 5.49966C10.9991 4.6242 8.24957 2 5.50002 2ZM5.5 8C6.88071 8 8 6.88071 8 5.5C8 4.11929 6.88071 3 5.5 3C4.11929 3 3 4.11929 3 5.5C3 6.88071 4.11929 8 5.5 8Z" fill="var(--mw-icon-object-primary, #616160)"/>
<path d="M7 5.5C7 6.32843 6.32843 7 5.5 7C4.67157 7 4 6.32843 4 5.5C4 4.67157 4.67157 4 5.5 4C6.32843 4 7 4.67157 7 5.5Z" fill="var(--mw-icon-object-primary, #616160)"/>
</svg>
