<svg width="12" height="12" viewBox="0 0 12 12" fill="none" xmlns="http://www.w3.org/2000/svg">
<path d="M8.33333 2C8.14924 2 8 2.14924 8 2.33333L8.00002 9.66667C8.00002 9.85076 8.14925 10 8.33335 10L9.66667 10C9.85076 10 10 9.85076 10 9.66667L9.99998 2.33333C9.99998 2.14924 9.85075 2 9.66665 2L8.33333 2Z" fill="var(--mw-icon-object-primary, #616160)"/>
<path d="M2.63283 2.06095C2.36233 1.90177 2 2.07293 2 2.35989L2 9.64011C2 9.92707 2.36233 10.0982 2.63283 9.93905L8.81875 6.29895C9.06042 6.15673 9.06042 5.84327 8.81874 5.70106L2.63283 2.06095Z" fill="var(--mw-icon-object-primary, #616160)"/>
</svg>
