<svg width="12" height="12" viewBox="0 0 12 12" fill="none" xmlns="http://www.w3.org/2000/svg">
<path d="M11.6667 2C11.8508 2 12 2.14924 12 2.33333L12 9.66667C12 9.85076 11.8507 10 11.6667 10L10.3333 10C10.1492 10 10 9.85076 10 9.66667L10 2.33333C10 2.14924 10.1493 2 10.3333 2L11.6667 2Z" fill="var(--mw-icon-object-primary, #616160)"/>
<path d="M5.54243 9.93905C5.31057 10.0982 5 9.92707 5 9.64011L5 2.35989C5 2.07293 5.31057 1.90177 5.54243 2.06095L10.8446 5.70106C11.0518 5.84327 11.0518 6.15673 10.8446 6.29894L5.54243 9.93905Z" fill="var(--mw-icon-object-primary, #616160)"/>
<path d="M0.542425 9.93905C0.310566 10.0982 6.37562e-09 9.92707 3.14625e-08 9.64011L1.91082e-07 2.35989C2.16169e-07 2.07293 0.310567 1.90177 0.542426 2.06095L5.84464 5.70106C6.05179 5.84327 6.05179 6.15673 5.84464 6.29894L0.542425 9.93905Z" fill="var(--mw-icon-object-primary, #616160)"/>
</svg>
