<svg width="12" height="12" viewBox="0 0 12 12" fill="none" xmlns="http://www.w3.org/2000/svg">
<path d="M9.36717 2.06095C9.63767 1.90177 10 2.07293 10 2.35989L10 9.64011C10 9.92707 9.63767 10.0982 9.36717 9.93905L3.18125 6.29895C2.93958 6.15673 2.93958 5.84327 3.18126 5.70106L9.36717 2.06095Z" fill="var(--mw-icon-object-primary, #616160)"/>
<path d="M3.66667 2C3.85076 2 4 2.14924 4 2.33333L3.99998 9.66667C3.99998 9.85076 3.85075 10 3.66665 10L2.33333 10C2.14924 10 2 9.85076 2 9.66667L2.00002 2.33333C2.00002 2.14924 2.14925 2 2.33335 2L3.66667 2Z" fill="var(--mw-icon-object-primary, #616160)"/>
</svg>
