<svg width="12" height="12" viewBox="0 0 12 12" fill="none" xmlns="http://www.w3.org/2000/svg">
<path d="M6.84273 10.9719L8.49976 7.5V1.5H5.06387C3.71102 1.5 2.52343 2.40478 2.18756 3.71528C1.85319 5.01991 1.49976 6.48202 1.49976 6.83333C1.49976 7.56971 2.09671 8.16667 2.83309 8.16667H5.31794L5.08096 10.4283C5.07578 10.4777 5.0744 10.5275 5.07684 10.5771L5.07884 10.6177C5.10308 11.1118 5.51076 11.5 6.00546 11.5C6.363 11.5 6.68873 11.2945 6.84273 10.9719Z" stroke="var(--mw-icon-object-primary, #616160)" stroke-linejoin="round"/>
<path d="M11.4998 7C11.4998 7.27614 11.2759 7.5 10.9998 7.5H8.49976V1.5H10.9998C11.2759 1.5 11.4998 1.72386 11.4998 2V7Z" stroke="var(--mw-icon-object-primary, #616160)"/>
</svg>
