<svg width="12" height="12" viewBox="0 0 12 12" fill="none" xmlns="http://www.w3.org/2000/svg">
<path d="M0 11H12" stroke="var(--mw-icon-background-default-dark-gray, #A6A6A6)" stroke-miterlimit="10"/>
<path d="M1.5 1V11" stroke="var(--mw-icon-background-default-dark-gray, #A6A6A6)" stroke-miterlimit="10"/>
<path d="M4.5 2V11" stroke="var(--mw-icon-background-default-dark-gray, #A6A6A6)" stroke-miterlimit="10"/>
<path d="M7.5 6V11" stroke="var(--mw-icon-background-default-dark-gray, #A6A6A6)" stroke-miterlimit="10"/>
<path d="M10.5 8V11" stroke="var(--mw-icon-background-default-dark-gray, #A6A6A6)" stroke-miterlimit="10"/>
<path d="M1.5 2C2.05228 2 2.5 1.55228 2.5 1C2.5 0.447715 2.05228 0 1.5 0C0.947715 0 0.5 0.447715 0.5 1C0.5 1.55228 0.947715 2 1.5 2Z" fill="var(--mw-icon-object-primary, #616160)"/>
<path d="M4.5 6C5.05228 6 5.5 5.55228 5.5 5C5.5 4.44772 5.05228 4 4.5 4C3.94772 4 3.5 4.44772 3.5 5C3.5 5.55228 3.94772 6 4.5 6Z" fill="var(--mw-icon-object-primary, #616160)"/>
<path d="M7.5 9.5C8.05228 9.5 8.5 9.05228 8.5 8.5C8.5 7.94772 8.05228 7.5 7.5 7.5C6.94772 7.5 6.5 7.94772 6.5 8.5C6.5 9.05228 6.94772 9.5 7.5 9.5Z" fill="var(--mw-icon-object-primary, #616160)"/>
<path d="M10.5 11.5C11.0523 11.5 11.5 11.0523 11.5 10.5C11.5 9.94771 11.0523 9.5 10.5 9.5C9.94771 9.5 9.5 9.94771 9.5 10.5C9.5 11.0523 9.94771 11.5 10.5 11.5Z" fill="var(--mw-icon-object-primary, #616160)"/>
</svg>
