<svg width="12" height="12" viewBox="0 0 12 12" fill="none" xmlns="http://www.w3.org/2000/svg">
<path d="M0 1.5C0 1.22386 0.223858 1 0.5 1L4.5 1C4.77614 1 5 1.22386 5 1.5V2H4.5C4.22386 2 4 2.22386 4 2.5V4.88197C4 5.26074 4.214 5.607 4.55279 5.77639L4.72361 5.8618C4.893 5.9465 5 6.11963 5 6.30902V6.5C5 6.77614 4.77614 7 4.5 7H3V10L2.5 11L2 10V7H0.5C0.223858 7 0 6.77614 0 6.5L0 6.30902C0 6.11963 0.107001 5.9465 0.276393 5.8618L0.447214 5.77639C0.785998 5.607 1 5.26074 1 4.88197L1 2.5C1 2.22386 0.776142 2 0.5 2H0L0 1.5Z" fill="var(--mw-icon-glyph-disabled-gray, #888889)"/>
<path d="M6 5L8 7L10 9M6 9L10 5M11.5 7C11.5 8.933 9.933 10.5 8 10.5C6.067 10.5 4.5 8.933 4.5 7C4.5 5.067 6.067 3.5 8 3.5C9.933 3.5 11.5 5.067 11.5 7Z" stroke="var(--mw-icon-object-primary, #616160)" stroke-linecap="square"/>
</svg>
