<svg width="12" height="12" viewBox="0 0 12 12" fill="none" xmlns="http://www.w3.org/2000/svg">
<path d="M0 6C0 2.68629 2.68629 0 6 0C9.31371 0 12 2.68629 12 6C12 9.31371 9.31371 12 6 12C2.68629 12 0 9.31371 0 6Z" fill="#3BAA32"/>
<path fill-rule="evenodd" clip-rule="evenodd" d="M9.70711 3.79289C10.0976 4.18342 10.0976 4.81658 9.70711 5.20711L5.70711 9.20711C5.31658 9.59763 4.68342 9.59763 4.29289 9.20711L2.29289 7.20711C1.90237 6.81658 1.90237 6.18342 2.29289 5.79289C2.68342 5.40237 3.31658 5.40237 3.70711 5.79289L5 7.08579L8.29289 3.79289C8.68342 3.40237 9.31658 3.40237 9.70711 3.79289Z" fill="var(--mw-icon-background-default-white, #FFFFFF)"/>
</svg>
