<svg width="12" height="12" viewBox="0 0 12 12" fill="none" xmlns="http://www.w3.org/2000/svg">
<path fill-rule="evenodd" clip-rule="evenodd" d="M6 0C6.18599 0 6.35661 0.107727 6.44292 0.279649L11.9429 11.2362C12.0241 11.3979 12.0184 11.5922 11.9278 11.7484C11.8372 11.9046 11.675 12 11.5 12H0.5C0.325032 12 0.162792 11.9046 0.0722142 11.7484C-0.0183639 11.5922 -0.024102 11.3979 0.0570845 11.2362L5.55708 0.279649C5.64339 0.107727 5.81401 0 6 0Z" fill="var(--mw-icon-object-primary, #616160)"/>
<path d="M5 3.5C5 3.22386 5.22386 3 5.5 3L6.5 3C6.77614 3 7 3.22386 7 3.5L7 7.5C7 7.77614 6.77614 8 6.5 8H5.5C5.22386 8 5 7.77614 5 7.5L5 3.5Z" fill="var(--mw-icon-object-secondary, #FFFFFE)"/>
<path d="M7 10C7 10.5523 6.55228 11 6 11C5.44772 11 5 10.5523 5 10C5 9.44772 5.44772 9 6 9C6.55228 9 7 9.44772 7 10Z" fill="var(--mw-icon-object-secondary, #FFFFFE)"/>
</svg>
