<?xml version="1.0" encoding="utf-8"?>
<svg xmlns="http://www.w3.org/2000/svg"
     xmlns:d="http://www.mathworks.com/blockgraphics"
     d:options="PreserveAspect:On;Resize:FitToBlock;Frame:Adaptive;Rotate:Off"
     fill="none"
     height="60"
     version="1.1"
     viewBox = "7 10 150 80"
     width="110">
   <rect fill="white" height="100" width="150"/>
   <path d="M95 32.5C100.799 32.5 105.5 27.799 105.5 22C105.5 16.201 100.799 11.5 95 11.5C89.201 11.5 84.5 16.201 84.5 22C84.5 27.799 89.201 32.5 95 32.5Z"
         stroke="#888888"/>
   <path d="M56 32.5C61.799 32.5 66.5 27.799 66.5 22C66.5 16.201 61.799 11.5 56 11.5C50.201 11.5 45.5 16.201 45.5 22C45.5 27.799 50.201 32.5 56 32.5Z"
         stroke="#888888"/>
   <path d="M56.19 13.5C51.4 13.5 47.5 17.39 47.5 22.18C47.5 26.97 51.4 30.5 56.19 30.5C60.98 30.5 64.5 26.97 64.5 22.18C64.5 17.39 60.97 13.5 56.19 13.5ZM56.19 29.5C52 29.5 48.5 26.37 48.5 22.18C48.5 17.99 52 14.5 56.19 14.5C60.38 14.5 63.5 17.99 63.5 22.18C63.5 26.37 60.37 29.5 56.19 29.5Z"
         fill="#333333"/>
   <path d="M60.3898 16.37C59.7698 15.93 59.0998 15.59 58.3998 15.36C57.6798 15.13 56.9298 15.01 56.1898 15.01C55.4498 15.01 54.6998 15.13 53.9898 15.36C53.9698 15.37 53.9298 15.38 53.9098 15.39C53.2298 15.61 52.5898 15.94 51.9898 16.37C51.3798 16.82 50.8598 17.35 50.3998 17.96C50.3798 17.98 50.3698 18.02 50.3598 18.04C49.9498 18.61 49.6298 19.23 49.4198 19.88C49.4098 19.9 49.3998 19.94 49.3898 19.96C49.1598 20.68 49.0398 21.41 49.0398 22.16C49.0398 22.91 49.1598 23.66 49.3898 24.37C49.3998 24.4 49.4098 24.43 49.4198 24.45C49.6398 25.13 49.9698 25.77 50.3998 26.37C50.4598 26.44 50.5398 26.48 50.6298 26.48C50.6898 26.48 50.7398 26.46 50.7798 26.42L51.3198 26.03L51.7598 25.71C51.8398 25.65 51.8698 25.58 51.8698 25.49C51.8698 25.43 51.8598 25.38 51.8098 25.32C51.7198 25.2 51.5498 25.17 51.4398 25.26L50.9998 25.57L50.6898 25.8C50.3998 25.37 50.1698 24.92 49.9998 24.44L50.3598 24.32C50.4998 24.28 50.5798 24.12 50.5398 23.98C50.4998 23.84 50.3398 23.75 50.1998 23.8L49.8298 23.92C49.6998 23.42 49.6098 22.92 49.5898 22.41H50.5198C50.6698 22.41 50.7998 22.29 50.7998 22.13C50.7998 21.99 50.6798 21.85 50.5198 21.85H49.5898C49.6098 21.34 49.6998 20.85 49.8298 20.35L50.1998 20.47C50.2598 20.49 50.3098 20.48 50.3698 20.47C50.4298 20.45 50.4698 20.41 50.5098 20.37C50.5198 20.35 50.5298 20.33 50.5398 20.29C50.5798 20.15 50.5098 19.99 50.3598 19.94L49.9998 19.83C50.1798 19.36 50.4098 18.9 50.6898 18.47L50.9998 18.7C51.0598 18.73 51.1098 18.74 51.1698 18.74C51.2098 18.74 51.2598 18.73 51.2898 18.72C51.1998 18.76 51.0898 18.76 50.9998 18.7L51.4398 19.01C51.4398 19.01 51.5398 19.07 51.5898 19.07C51.6798 19.07 51.7598 19.03 51.8098 18.96C51.8498 18.9 51.8698 18.85 51.8698 18.79C51.8698 18.7 51.8398 18.62 51.7598 18.57L51.3498 18.27L51.3198 18.25L51.0098 18.02C51.3298 17.62 51.6798 17.27 52.0798 16.95L52.3098 17.26C52.3998 17.39 52.5698 17.41 52.6998 17.33C52.8198 17.24 52.8498 17.07 52.7698 16.94L52.5398 16.63C52.9698 16.34 53.4198 16.11 53.8998 15.94L54.0098 16.3C54.0098 16.3 54.0198 16.33 54.0298 16.34L54.1798 16.8C54.2098 16.92 54.3198 17 54.4298 17C54.4598 17 54.4898 16.99 54.5198 16.98C54.6398 16.95 54.7098 16.84 54.7098 16.73C54.7098 16.7 54.7098 16.66 54.6998 16.64L54.5298 16.13L54.4098 15.76C54.9098 15.63 55.3998 15.54 55.9098 15.52V15.92C55.9098 16.06 56.0398 16.2 56.1898 16.2C56.3398 16.2 56.4698 16.07 56.4698 15.92V15.52C56.9798 15.54 57.4798 15.63 57.9798 15.76L57.8598 16.13L57.8398 16.22L57.6998 16.64C57.6998 16.64 57.6898 16.7 57.6898 16.73C57.6898 16.84 57.7598 16.95 57.8798 16.98C57.8998 16.99 57.9398 17 57.9698 17C58.0798 17 58.1898 16.92 58.2198 16.8L58.3898 16.29L58.5098 15.93C58.9798 16.11 59.4398 16.34 59.8698 16.62L59.6398 16.93C59.5498 17.05 59.5798 17.23 59.7098 17.32C59.7498 17.35 59.8098 17.38 59.8598 17.38C59.9498 17.38 60.0398 17.34 60.0898 17.26L60.3098 16.95C60.7098 17.27 61.0698 17.62 61.3898 18.02L61.0698 18.25L60.6398 18.57C60.5598 18.63 60.5298 18.7 60.5298 18.79C60.5298 18.85 60.5398 18.9 60.5698 18.96C60.6298 19.03 60.7098 19.07 60.7998 19.07C60.8598 19.07 60.9098 19.05 60.9498 19.01L61.3898 18.7L61.6998 18.47C61.9898 18.89 62.2198 19.35 62.3898 19.83L62.0298 19.94C61.8898 20 61.7998 20.15 61.8498 20.29C61.8598 20.31 61.8698 20.35 61.8798 20.37C61.9098 20.41 61.9698 20.45 62.0198 20.47C62.0398 20.48 62.0798 20.48 62.0998 20.48C62.1298 20.48 62.1698 20.48 62.1898 20.47L62.5598 20.35C62.6898 20.85 62.7698 21.34 62.7898 21.85H61.8598C61.7198 21.85 61.5798 21.98 61.5798 22.13C61.5798 22.28 61.7098 22.41 61.8598 22.41H62.7898C62.7698 22.92 62.6898 23.42 62.5598 23.92L62.1898 23.8C62.0498 23.74 61.8898 23.83 61.8498 23.98C61.7898 24.12 61.8798 24.28 62.0298 24.32L62.3898 24.44C62.2098 24.91 61.9798 25.37 61.6998 25.8L61.3898 25.57L60.9498 25.26C60.8298 25.16 60.6598 25.19 60.5598 25.32C60.5298 25.38 60.5198 25.43 60.5198 25.49C60.5198 25.57 60.5498 25.66 60.6298 25.71L61.0598 26.03L61.5998 26.42C61.6598 26.45 61.7098 26.48 61.7698 26.48C61.8598 26.48 61.9398 26.44 61.9898 26.37C62.4398 25.75 62.7798 25.08 63.0098 24.38C63.2398 23.66 63.3598 22.91 63.3598 22.17C63.3598 21.43 63.2398 20.68 63.0098 19.97C62.9998 19.95 62.9898 19.91 62.9798 19.89C62.7698 19.23 62.4498 18.62 62.0298 18.05C62.0198 18.03 61.9998 17.99 61.9898 17.97C61.5498 17.36 61.0198 16.82 60.4098 16.38L60.3898 16.37Z"
         fill="#333333"/>
   <path d="M75.5 41.5L73.5 36.5H77.5L75.5 41.5Z" fill="#888888" stroke="#888888"
         stroke-linejoin="round"/>
   <path d="M75.5 22.5V36" stroke="#888888" stroke-linecap="round"
         stroke-linejoin="round"/>
   <path d="M84 22.5H67" stroke="#888888" stroke-linecap="round" stroke-linejoin="round"/>
   <circle cx="56" cy="22" r="1" stroke="#333333"/>
   <path d="M56.6464 20.6464L56.2929 21L57 21.7071L57.3536 21.3536L56.6464 20.6464ZM59.3536 19.3536C59.5488 19.1583 59.5488 18.8417 59.3536 18.6464C59.1583 18.4512 58.8417 18.4512 58.6464 18.6464L59.3536 19.3536ZM57.3536 21.3536L59.3536 19.3536L58.6464 18.6464L56.6464 20.6464L57.3536 21.3536Z"
         fill="#333333"/>
   <rect fill="#F2F2F2" height="36" rx="2" width="60" x="45.5" y="42.5"/>
   <rect height="36" rx="2" stroke="#333333" stroke-linejoin="round" width="60" x="45.5"
         y="42.5"/>
   <path d="M75 71C80.799 71 85.5 66.299 85.5 60.5C85.5 54.701 80.799 50 75 50C69.201 50 64.5 54.701 64.5 60.5C64.5 66.299 69.201 71 75 71Z"
         stroke="#888888"/>
   <path d="M75 67C78.5899 67 81.5 64.0899 81.5 60.5C81.5 56.9101 78.5899 54 75 54C71.4101 54 68.5 56.9101 68.5 60.5C68.5 64.0899 71.4101 67 75 67Z"
         stroke="#333333"/>
   <path d="M76.1576 59.1975L76.1938 59.3062L76.3025 59.3424L77.0291 59.5846L77.2239 59.6495L79.7753 60.5L77.1869 61.3628L76.99 61.4284L76.3025 61.6576L76.1938 61.6938L76.1576 61.8025L75.9033 62.5654L75.837 62.7643L75 65.2753L74.133 62.6744L74.0678 62.4787L73.8424 61.8025L73.8062 61.6938L73.6975 61.6576L73.01 61.4284L72.8193 61.3649L70.2247 60.5L72.815 59.6365L73.01 59.5716L73.6975 59.3424L73.8062 59.3062L73.8424 59.1975L74.0716 58.51L74.1365 58.315L75 55.7247L75.8628 58.3131L75.9284 58.51L76.1576 59.1975ZM76.5562 62.0562L76.9381 61.9289L77.391 62.9412L76.4044 62.5115L76.5562 62.0562ZM73.5678 62.428L72.597 62.8695L73.0557 61.9268L73.4438 62.0562L73.5678 62.428ZM73.4438 58.9438L73.06 59.0718L72.6249 58.1249L73.5718 58.56L73.4438 58.9438ZM76.4289 58.5619L77.4245 58.1165L76.9792 59.0848L76.5562 58.9438L76.4289 58.5619Z"
         fill="#333333"
         stroke="#333333"
         stroke-width="0.458333"/>
   <circle cx="75" cy="60.5" fill="#F2F2F2" r="1.5"/>
   <circle cx="75" cy="60.5" fill="#333333" r="0.5" stroke="#333333" stroke-width="0.5"/>
   <path d="M66.4999 78.5H83.4999V78.9689C83.4999 80.9862 85.002 82.6878 87.0038 82.938L90.6239 83.3905C91.1244 83.4531 91.4999 83.8785 91.4999 84.3828V85.5H58.5V84.3828C58.5 83.8785 58.8755 83.4531 59.376 83.3905L62.996 82.938C64.9978 82.6878 66.4999 80.9862 66.4999 78.9689V78.5Z"
         fill="#BFBFBF"
         stroke="#333333"
         stroke-linejoin="round"/>
   <path d="M95 29C98.5899 29 101.5 26.0899 101.5 22.5C101.5 18.9101 98.5899 16 95 16C91.4101 16 88.5 18.9101 88.5 22.5C88.5 26.0899 91.4101 29 95 29Z"
         stroke="#333333"/>
   <path d="M95 16C95.5523 16 96 15.5523 96 15C96 14.4477 95.5523 14 95 14C94.4477 14 94 14.4477 94 15C94 15.5523 94.4477 16 95 16Z"
         stroke="#333333"/>
   <path clip-rule="evenodd"
         d="M99 18.5L95.5355 21.0984C95.3692 21.0348 95.1886 21 95 21C94.1716 21 93.5 21.6716 93.5 22.5C93.5 22.6886 93.5348 22.8692 93.5984 23.0355L91 26.5L94.4645 23.9016C94.6308 23.9652 94.8114 24 95 24C95.8284 24 96.5 23.3284 96.5 22.5C96.5 22.3114 96.4652 22.1308 96.4016 21.9645L99 18.5ZM95 22C94.7239 22 94.5 22.2239 94.5 22.5C94.5 22.7761 94.7239 23 95 23C95.2761 23 95.5 22.7761 95.5 22.5C95.5 22.2239 95.2761 22 95 22Z"
         fill="#333333"
         fill-rule="evenodd"/>
</svg>