<?xml version="1.0" encoding="utf-8"?>
<svg xmlns="http://www.w3.org/2000/svg"
     xmlns:d="http://www.mathworks.com/blockgraphics"
     d:options="PreserveAspect:On;Resize:FitToBlock;Frame:Adaptive;Rotate:Off"
     height="107"
     version="1.1"
     width="265">
   <defs>
      <style>.cls-1{isolation:isolate;}.cls-2{fill:none;}.cls-3{fill:#fff;}.cls-4{fill:gray;}.cls-5{fill:#333;}.cls-6{fill:#bfbfbf;}.cls-7{fill:#f2f2f2;}.cls-8{fill:#737373;}.cls-9{fill:#b3b3b3;mix-blend-mode:multiply;}</style>
   </defs>
   <title>Multisensor Positioning 265x107px</title>
   <g class="cls-1">
      <g data-name="Layer 1" id="Layer_1">
         <path class="cls-2" d="M40.76,21.75l-.56.19.37-.66Z"/>
         <path class="cls-2" d="M43,68.38A1.42,1.42,0,1,1,41.63,67,1.41,1.41,0,0,1,43,68.38Z"/>
         <path class="cls-2"
               d="M39.2,22.88c-.19.44-.38.9-.54,1.37a16.36,16.36,0,0,0-1,5.66l-.19,0c-1.72-.28-2.81-1-3.08-1.91s.33-2.1,1.66-3.22A12.85,12.85,0,0,1,39.2,22.88Z"/>
         <path class="cls-2"
               d="M47.32,21.4a15.72,15.72,0,0,1-.94,5.54,16.33,16.33,0,0,1-.75,1.81c-.42.17-.85.32-1.3.46l-.67-1.66c2-.46,3.34-1.53,3.17-2.54s-2.15-1.7-4.4-1.33l-.32.07-.68-1.68.3-.09a17.21,17.21,0,0,1,4.47-.64A10.1,10.1,0,0,1,47.32,21.4Z"/>
         <path class="cls-2"
               d="M41.57,62.65A18.58,18.58,0,1,0,60.15,81.23,18.59,18.59,0,0,0,41.57,62.65Zm.06,33.67a13,13,0,0,1-1.43-26,2.39,2.39,0,0,1-1-1.93,2.42,2.42,0,1,1,3.85,1.93,13,13,0,0,1-1.43,26Z"/>
         <path class="cls-2"
               d="M46.32,28.47c.19-.44.37-.9.53-1.37a16.27,16.27,0,0,0,1-5.65c1.74.25,3,.91,3.26,1.93C51.53,25,49.47,27.06,46.32,28.47Z"/>
         <path class="cls-2"
               d="M47.3,20.71v.16a16.48,16.48,0,0,0-5.7.63l-.36.1-.34-.85c1.31-2,2.85-3.33,4.13-3.33a1.54,1.54,0,0,1,.56.1C46.52,17.84,47.13,19,47.3,20.71Z"/>
         <path class="cls-2"
               d="M46.15,35.05a10,10,0,0,1-7.48-18.46l1.66,4.1a16.7,16.7,0,0,0-.83,1.52,13.84,13.84,0,0,0-3.74,2.17c-1.49,1.25-2.14,2.58-1.82,3.73s1.56,2,3.48,2.28l.28,0c0,.09,0,.19,0,.27.19,1.95.91,3.23,2,3.62a2.1,2.1,0,0,0,.74.13c1.35,0,2.87-1.14,4.2-3Z"/>
         <path class="cls-2"
               d="M43.85,29.36l-.07,0a16,16,0,0,1-5.59.57,15.67,15.67,0,0,1,.94-5.53,16.5,16.5,0,0,1,.75-1.82c.35-.14.7-.27,1.07-.39l.66,1.64c-1.83.49-3.09,1.53-2.94,2.5s2.16,1.7,4.41,1.33l.08,0Z"/>
         <path class="cls-2"
               d="M52.17,29a9.93,9.93,0,0,1-5.55,5.91L45,30.92a16.38,16.38,0,0,0,1-1.77c3.75-1.52,6.11-3.91,5.56-5.91-.35-1.25-1.77-2-3.77-2.31v-.27c-.19-1.94-.92-3.22-2-3.62-1.55-.53-3.48.75-5.09,3.13L39.13,16.4a10,10,0,0,1,3.63-.69,9.81,9.81,0,0,1,3.27.55A10,10,0,0,1,52.17,29Z"/>
         <path class="cls-2"
               d="M223.43,7.2A18.58,18.58,0,1,0,242,25.77,18.59,18.59,0,0,0,223.43,7.2ZM224.2,37s-8-8-8-14.21a8,8,0,0,1,16,0C232.18,29,224.2,37,224.2,37Z"/>
         <path class="cls-2"
               d="M44.45,30.84c-1.48,2.2-3.23,3.45-4.53,3-.94-.32-1.54-1.46-1.71-3.19,0-.06,0-.12,0-.17.35,0,.71.05,1.09.05a17.67,17.67,0,0,0,4.62-.67l.13,0Z"/>
         <path class="cls-2"
               d="M45.3,29.41c-.16.32-.34.63-.52.92l-.26-.65C44.78,29.59,45.05,29.51,45.3,29.41Z"/>
         <path class="cls-2"
               d="M41.57,7.2A18.58,18.58,0,1,0,60.15,25.77,18.59,18.59,0,0,0,41.57,7.2ZM53.12,29.28A10.94,10.94,0,0,1,47,35.79L47.88,38a1.09,1.09,0,0,1,.26,0,1.4,1.4,0,1,1-.72.23L46.53,36a11,11,0,0,1-3.79.68A10.75,10.75,0,0,1,39.15,36a11,11,0,0,1-.85-20.37l-.94-2.3a1.07,1.07,0,0,1-.32.07,1.35,1.35,0,1,1,1.35-1.35,1.3,1.3,0,0,1-.57,1.07l.94,2.32a10.95,10.95,0,0,1,14.36,13.8Z"/>
         <path class="cls-2"
               d="M223.43,62.65A18.58,18.58,0,1,0,242,81.23,18.59,18.59,0,0,0,223.43,62.65Zm0,34.31a15.77,15.77,0,1,1,15.76-15.77A15.78,15.78,0,0,1,223.43,97Z"/>
         <path class="cls-3"
               d="M227.77,22.65a3.57,3.57,0,1,1-3.57-3.57A3.57,3.57,0,0,1,227.77,22.65Z"/>
         <path class="cls-4"
               d="M224.7,61.72v-5.3A3.42,3.42,0,0,0,223,53.5a3.42,3.42,0,0,0,1.66-2.92v-5.3a19.17,19.17,0,1,0-1.27.07l.27,0v5.25A2.42,2.42,0,0,1,221.28,53h-29V51L188,53.46v.08L192.24,56V54h29a2.42,2.42,0,0,1,2.42,2.42v5.25l-.27,0a20,20,0,1,0,1.27.07Zm-1.27-17.37A18.58,18.58,0,1,1,242,25.77,18.6,18.6,0,0,1,223.43,44.35Zm0,55.45A18.58,18.58,0,1,1,242,81.23,18.59,18.59,0,0,1,223.43,99.8Z"/>
         <path class="cls-5"
               d="M224.2,14.77a8,8,0,0,0-8,8c0,6.24,8,14.21,8,14.21s8-8,8-14.21A8,8,0,0,0,224.2,14.77Zm0,11.46a3.58,3.58,0,1,1,3.57-3.58A3.57,3.57,0,0,1,224.2,26.23Z"/>
         <path class="cls-6"
               d="M162.59,97.79v1.7H102.41v-1.7a1.46,1.46,0,0,1,.43-1,1.43,1.43,0,0,1,1-.43,15.44,15.44,0,0,0,14.59-9.73h28.06a15.44,15.44,0,0,0,14.59,9.73A1.47,1.47,0,0,1,162.59,97.79Z"/>
         <path class="cls-7"
               d="M187,63.12V84.59a1,1,0,0,1-1,1H79a1,1,0,0,1-1-1V80.72a.47.47,0,0,0,.17,0,.51.51,0,0,0,.45-.29c.14-.3,12.48-26.68,21.52-31.63l14.49,23a.49.49,0,0,0,.42.24h8a.51.51,0,0,0,.45-.29l3.67-8a14.17,14.17,0,0,0,7.16-.11c7.64-2.07,12.14-12.12,16.1-21,.83-1.84,1.64-3.65,2.46-5.36L170.6,77.72a.5.5,0,0,0,.46.29h8.31a.49.49,0,0,0,.45-.27Z"/>
         <path class="cls-7"
               d="M103.1,48a4.66,4.66,0,0,0-2,.37l14.28,22.65h7.39l3.47-7.53c-4.69-1.48-8.61-5.12-12.2-8.48S106.79,48.31,103.1,48Z"/>
         <path class="cls-7"
               d="M99.63,48C90.86,53,80,75.32,78,79.44V69.67a.51.51,0,0,0,.17,0,.49.49,0,0,0,.47-.34l8.81-26.09h9.18Z"/>
         <path class="cls-7"
               d="M187,44.94V61.86a.49.49,0,0,0-.61.24L179.06,77h-7.68L153.46,36.17c2.52-5.05,5.19-8.94,8.6-9.32,4.53-.52,8,3.81,11.64,8.38s7.62,9.51,13.11,9.74A.58.58,0,0,0,187,44.94Z"/>
         <path class="cls-7"
               d="M141.79,32.09l-14.2,30.8a13.34,13.34,0,0,0,6.47-.17c7.18-1.94,11.58-11.76,15.45-20.43,1-2.12,1.89-4.21,2.85-6.15l-1.78-4Z"/>
         <path class="cls-7"
               d="M187,18.89V44a.7.7,0,0,0-.14,0c-5-.21-8.77-4.86-12.38-9.37-3.83-4.79-7.43-9.31-12.54-8.74-3.67.41-6.44,4.17-9,9.12l-1.58-3.59a.5.5,0,0,0-.45-.3h-9.44a.51.51,0,0,0-.45.29L126.6,62.63c-4.47-1.35-8.25-4.86-11.93-8.31-3.84-3.59-7.46-7-11.49-7.28h-.33a6,6,0,0,0-2.32.55l-3.2-5.08a.52.52,0,0,0-.43-.23H87.1a.51.51,0,0,0-.48.34L78,68.13V18.89a1,1,0,0,1,1-1H186A1,1,0,0,1,187,18.89Z"/>
         <path class="cls-8"
               d="M141.79,32.09h8.79l1.78,4c.19-.39.38-.78.58-1.16l-1.58-3.59a.5.5,0,0,0-.45-.3h-9.44a.51.51,0,0,0-.45.29L126.6,62.63c.33.1.66.18,1,.26Z"/>
         <path class="cls-8"
               d="M100.53,47.58a9.44,9.44,0,0,0-.9.45l-3-4.76H87.45L78.64,69.36a.49.49,0,0,1-.47.34.51.51,0,0,1-.17,0V68.13l8.62-25.52a.51.51,0,0,1,.48-.34h9.8a.52.52,0,0,1,.43.23Z"/>
         <path class="cls-8"
               d="M187,61.86v1.26l-7.18,14.62a.49.49,0,0,1-.45.27h-8.31a.5.5,0,0,1-.46-.29L152.88,37.34c.19-.4.39-.79.58-1.17L171.38,77h7.68l7.33-14.91A.49.49,0,0,1,187,61.86Z"/>
         <path class="cls-8"
               d="M127.16,63.8l-3.67,8a.51.51,0,0,1-.45.29h-8a.49.49,0,0,1-.42-.24l-14.49-23a8.25,8.25,0,0,1,.91-.43l14.28,22.65h7.39l3.47-7.53C126.51,63.63,126.83,63.72,127.16,63.8Z"/>
         <path class="cls-7"
               d="M100.14,48.84c-9,4.95-21.38,31.33-21.52,31.63a.51.51,0,0,1-.45.29.47.47,0,0,1-.17,0V79.44C80,75.32,90.86,53,99.63,48Z"/>
         <path class="cls-9"
               d="M100.14,48.84c-9,4.95-21.38,31.33-21.52,31.63a.51.51,0,0,1-.45.29.47.47,0,0,1-.17,0V79.44C80,75.32,90.86,53,99.63,48Z"/>
         <path class="cls-7"
               d="M152.88,37.34c-.82,1.71-1.63,3.52-2.46,5.36-4,8.87-8.46,18.92-16.1,21a14.17,14.17,0,0,1-7.16.11l.43-.91a13.34,13.34,0,0,0,6.47-.17c7.18-1.94,11.58-11.76,15.45-20.43,1-2.12,1.89-4.21,2.85-6.15Z"/>
         <path class="cls-9"
               d="M152.88,37.34c-.82,1.71-1.63,3.52-2.46,5.36-4,8.87-8.46,18.92-16.1,21a14.17,14.17,0,0,1-7.16.11l.43-.91a13.34,13.34,0,0,0,6.47-.17c7.18-1.94,11.58-11.76,15.45-20.43,1-2.12,1.89-4.21,2.85-6.15Z"/>
         <path class="cls-7"
               d="M187,44v.94a.58.58,0,0,1-.19,0c-5.49-.23-9.36-5.06-13.11-9.74s-7.11-8.9-11.64-8.38c-3.41.38-6.08,4.27-8.6,9.32L152.94,35c2.56-4.95,5.33-8.71,9-9.12,5.11-.57,8.71,3.95,12.54,8.74,3.61,4.51,7.34,9.16,12.38,9.37A.7.7,0,0,1,187,44Z"/>
         <path class="cls-9"
               d="M187,44v.94a.58.58,0,0,1-.19,0c-5.49-.23-9.36-5.06-13.11-9.74s-7.11-8.9-11.64-8.38c-3.41.38-6.08,4.27-8.6,9.32L152.94,35c2.56-4.95,5.33-8.71,9-9.12,5.11-.57,8.71,3.95,12.54,8.74,3.61,4.51,7.34,9.16,12.38,9.37A.7.7,0,0,1,187,44Z"/>
         <path class="cls-7"
               d="M103.1,48c3.69.27,7.18,3.54,10.89,7s7.51,7,12.2,8.48l.41-.9c-4.47-1.35-8.25-4.86-11.93-8.31-3.84-3.59-7.46-7-11.49-7.28h-.33a6,6,0,0,0-2.32.55l.52.83A4.66,4.66,0,0,1,103.1,48Z"/>
         <path class="cls-9"
               d="M103.1,48c3.69.27,7.18,3.54,10.89,7s7.51,7,12.2,8.48l.41-.9c-4.47-1.35-8.25-4.86-11.93-8.31-3.84-3.59-7.46-7-11.49-7.28h-.33a6,6,0,0,0-2.32.55l.52.83A4.66,4.66,0,0,1,103.1,48Z"/>
         <path class="cls-8"
               d="M126.6,62.63l-.41.9c.32.1.64.19,1,.27l.43-.91C127.26,62.81,126.93,62.73,126.6,62.63Z"/>
         <path class="cls-9"
               d="M126.6,62.63l-.41.9c.32.1.64.19,1,.27l.43-.91C127.26,62.81,126.93,62.73,126.6,62.63Z"/>
         <path class="cls-8"
               d="M152.94,35c-.2.38-.39.77-.58,1.16l.52,1.2c.19-.4.39-.79.58-1.17Z"/>
         <path class="cls-9"
               d="M152.94,35c-.2.38-.39.77-.58,1.16l.52,1.2c.19-.4.39-.79.58-1.17Z"/>
         <path class="cls-8"
               d="M100.53,47.58a9.44,9.44,0,0,0-.9.45l.51.81a8.25,8.25,0,0,1,.91-.43Z"/>
         <path class="cls-9"
               d="M100.53,47.58a9.44,9.44,0,0,0-.9.45l.51.81a8.25,8.25,0,0,1,.91-.43Z"/>
         <path class="cls-5"
               d="M188,18.89a2,2,0,0,0-2-2H79a2,2,0,0,0-2,2V53.46l.08,0-.08,0V84.59a2,2,0,0,0,.34,1.12,2,2,0,0,0,1.66.88h38.39a14.51,14.51,0,0,1-13.51,8.73,2.46,2.46,0,0,0-2.47,2.47v2.7h62.18v-2.7a2.07,2.07,0,0,0-.05-.5,2.43,2.43,0,0,0-1.92-1.92,2.07,2.07,0,0,0-.5-.05A15.15,15.15,0,0,1,153,93a13.75,13.75,0,0,1-5.39-6.38H186a2,2,0,0,0,1.66-.88,2,2,0,0,0,.34-1.12V53.54l-.08,0,.08,0ZM161.12,96.32a1.47,1.47,0,0,1,1.47,1.47v1.7H102.41v-1.7a1.46,1.46,0,0,1,.43-1,1.43,1.43,0,0,1,1-.43,15.44,15.44,0,0,0,14.59-9.73h28.06A15.44,15.44,0,0,0,161.12,96.32ZM187,84.59a1,1,0,0,1-1,1H79a1,1,0,0,1-1-1V18.89a1,1,0,0,1,1-1H186a1,1,0,0,1,1,1Z"/>
         <polygon class="cls-5" points="77.08 53.5 77 53.54 77 53.46 77.08 53.5"/>
         <polygon class="cls-5" points="188 53.46 188 53.54 187.92 53.5 188 53.46"/>
         <path class="cls-5"
               d="M46.36,15.31a10.9,10.9,0,0,0-7.6.17l-.94-2.32a1.3,1.3,0,0,0,.57-1.07A1.35,1.35,0,1,0,37,13.44a1.07,1.07,0,0,0,.32-.07l.94,2.3A11,11,0,0,0,39.15,36a10.75,10.75,0,0,0,3.59.61A11,11,0,0,0,46.53,36l.89,2.18a1.32,1.32,0,1,0,.72-.23,1.09,1.09,0,0,0-.26,0L47,35.79a11,11,0,0,0-.63-20.48ZM39.48,35.1a10,10,0,0,1-.81-18.51l1.66,4.1a16.7,16.7,0,0,0-.83,1.52,13.84,13.84,0,0,0-3.74,2.17c-1.49,1.25-2.14,2.58-1.82,3.73s1.56,2,3.48,2.28l.28,0c0,.09,0,.19,0,.27.19,1.95.91,3.23,2,3.62a2.1,2.1,0,0,0,.74.13c1.35,0,2.87-1.14,4.2-3l1.46,3.63A10,10,0,0,1,39.48,35.1Zm6.9-8.16a16.33,16.33,0,0,1-.75,1.81c-.42.17-.85.32-1.3.46l-.67-1.66c2-.46,3.34-1.53,3.17-2.54s-2.15-1.7-4.4-1.33l-.32.07-.68-1.68.3-.09a17.21,17.21,0,0,1,4.47-.64,10.1,10.1,0,0,1,1.12.06A15.72,15.72,0,0,1,46.38,26.94Zm1.44-5.49c1.74.25,3,.91,3.26,1.93.45,1.6-1.61,3.68-4.76,5.09.19-.44.37-.9.53-1.37A16.27,16.27,0,0,0,47.82,21.45Zm-2.52,8c-.16.32-.34.63-.52.92l-.26-.65C44.78,29.59,45.05,29.51,45.3,29.41Zm-.85,1.43c-1.48,2.2-3.23,3.45-4.53,3-.94-.32-1.54-1.46-1.71-3.19,0-.06,0-.12,0-.17.35,0,.71.05,1.09.05a17.67,17.67,0,0,0,4.62-.67l.13,0Zm2.85-10a16.48,16.48,0,0,0-5.7.63l-.36.1-.34-.85c1.31-2,2.85-3.33,4.13-3.33a1.54,1.54,0,0,1,.56.1c.93.32,1.54,1.46,1.71,3.19ZM41,22.21l.66,1.64c-1.83.49-3.09,1.53-2.94,2.5s2.16,1.7,4.41,1.33l.08,0,.69,1.7-.07,0a16,16,0,0,1-5.59.57,15.67,15.67,0,0,1,.94-5.53,16.5,16.5,0,0,1,.75-1.82C40.23,22.46,40.58,22.33,41,22.21Zm-3.26,7.7-.19,0c-1.72-.28-2.81-1-3.08-1.91s.33-2.1,1.66-3.22a12.85,12.85,0,0,1,3.12-1.88c-.19.44-.38.9-.54,1.37A16.36,16.36,0,0,0,37.69,29.91Zm2.51-8,.37-.66.19.47Zm12,7a9.93,9.93,0,0,1-5.55,5.91L45,30.92a16.38,16.38,0,0,0,1-1.77c3.75-1.52,6.11-3.91,5.56-5.91-.35-1.25-1.77-2-3.77-2.31v-.27c-.19-1.94-.92-3.22-2-3.62-1.55-.53-3.48.75-5.09,3.13L39.13,16.4a10,10,0,0,1,3.63-.69,9.81,9.81,0,0,1,3.27.55A10,10,0,0,1,52.17,29Z"/>
         <path class="cls-4"
               d="M72.76,51v2H44.49a2.42,2.42,0,0,1-2.42-2.42V45.32a19.57,19.57,0,1,0-1,0v5.26a3.42,3.42,0,0,0,1.67,2.92,3.42,3.42,0,0,0-1.67,2.92v5.26a19.58,19.58,0,1,0,1,0V56.42A2.42,2.42,0,0,1,44.49,54H72.76v2L77,53.54v-.08ZM41.57,44.35A18.58,18.58,0,1,1,60.15,25.77,18.6,18.6,0,0,1,41.57,44.35ZM60.15,81.23A18.58,18.58,0,1,1,41.57,62.65,18.59,18.59,0,0,1,60.15,81.23Z"/>
         <path class="cls-7"
               d="M41.63,71.23a12,12,0,1,0,12,12A12.06,12.06,0,0,0,41.63,71.23Zm2.69,11.36a2.73,2.73,0,0,1-2.7,3.24H41.4L35.87,91.2l3.25-7a2.77,2.77,0,0,1,.24-2.65,2.73,2.73,0,0,1,2.49-1.17L47.38,75l-3.25,7A3,3,0,0,1,44.32,82.59Z"/>
         <path class="cls-5"
               d="M43.06,70.31a2.42,2.42,0,1,0-2.86,0,13,13,0,1,0,2.86,0ZM41.63,67a1.41,1.41,0,1,1-1.42,1.41A1.41,1.41,0,0,1,41.63,67Zm0,28.35a12,12,0,1,1,12-12A12.05,12.05,0,0,1,41.63,95.32Z"/>
         <path class="cls-5"
               d="M44.13,82l3.25-7-5.53,5.39a2.73,2.73,0,0,0-2.49,1.17,2.77,2.77,0,0,0-.24,2.65l-3.25,7,5.53-5.38h.22a2.73,2.73,0,0,0,2.7-3.24A3,3,0,0,0,44.13,82Zm-1.07,2.09a1.74,1.74,0,1,1-2.87-2,1.68,1.68,0,0,1,1.12-.73,1.66,1.66,0,0,1,.32,0,1.72,1.72,0,0,1,1,.3A1.75,1.75,0,0,1,43.06,84.08Z"/>
         <path class="cls-7"
               d="M43.06,84.08a1.74,1.74,0,1,1-2.87-2,1.68,1.68,0,0,1,1.12-.73,1.66,1.66,0,0,1,.32,0,1.72,1.72,0,0,1,1,.3A1.75,1.75,0,0,1,43.06,84.08Z"/>
         <path class="cls-7"
               d="M223.43,66.43a14.77,14.77,0,1,0,14.76,14.76A14.78,14.78,0,0,0,223.43,66.43Zm6.24,8.93L225.1,80a1.86,1.86,0,0,1,.25.64,2,2,0,0,1-.31,1.47,2,2,0,0,1-1.25.82l-.37,0a2,2,0,0,1-.35-3.88,1.94,1.94,0,0,1,1.31.23L229,74.66a.5.5,0,0,1,.72.7Zm4.39,13.5a.26.26,0,0,1-.2.11.25.25,0,0,1-.15,0l-1-.74-.81-.59a.25.25,0,0,1-.1-.2.28.28,0,0,1,0-.15.25.25,0,0,1,.35,0l.82.59.81.59a12.89,12.89,0,0,0,1.58-3.09l-1-.31a.25.25,0,0,1-.16-.31.25.25,0,0,1,.32-.16l.95.31a12.54,12.54,0,0,0,.55-3.43h-2a.25.25,0,0,1-.25-.25.25.25,0,0,1,.25-.25h2a12.53,12.53,0,0,0-.55-3.42l-.95.31h-.08a.15.15,0,0,1-.07,0l-.05,0a.25.25,0,0,1-.12-.13.25.25,0,0,1,.16-.31l1-.31a12.89,12.89,0,0,0-1.58-3.09l-.81.59-.82.59a.19.19,0,0,1-.14,0,.25.25,0,0,1-.21-.1.26.26,0,0,1,0-.15.25.25,0,0,1,.1-.2l.81-.59.81-.59a12.87,12.87,0,0,0-2.44-2.45l-.59.81a.26.26,0,0,1-.19.1h0a.24.24,0,0,1-.14,0,.25.25,0,0,1-.06-.35l.59-.81a12.14,12.14,0,0,0-3.08-1.58l-.31.95-.31,1a.26.26,0,0,1-.24.17h-.08a.26.26,0,0,1-.17-.24.25.25,0,0,1,0-.08l.31-1,.31-1a12.4,12.4,0,0,0-3.42-.54v1a.25.25,0,0,1-.5,0v-1a12.4,12.4,0,0,0-3.42.54l.31,1,.31,1a.25.25,0,0,1,0,.08.26.26,0,0,1-.17.24h-.08a.27.27,0,0,1-.24-.17l-.31-1-.31-.95a12.14,12.14,0,0,0-3.08,1.58l.59.81a.25.25,0,0,1-.06.35.24.24,0,0,1-.14,0h0a.25.25,0,0,1-.18-.1l-.59-.81a12.64,12.64,0,0,0-2.45,2.45l.81.59.81.59a.25.25,0,0,1,.1.2.26.26,0,0,1,0,.15.25.25,0,0,1-.21.1.19.19,0,0,1-.14,0l-.74-.55s0,0,0,0h0l0,0h0L213,73.9A12.89,12.89,0,0,0,211.46,77l1,.31a.25.25,0,0,1,.16.31.35.35,0,0,1-.05.08l-.06,0-.06,0a.15.15,0,0,1-.07,0h-.08l-.95-.31a12.93,12.93,0,0,0-.55,3.42h2a.25.25,0,0,1,.25.25.25.25,0,0,1-.25.25h-2a12.93,12.93,0,0,0,.55,3.43l.95-.31a.25.25,0,0,1,.32.16.25.25,0,0,1-.16.31l-1,.31A12.89,12.89,0,0,0,213,88.37l.81-.59h0l.81-.59a.24.24,0,0,1,.35,0,.28.28,0,0,1,0,.15.25.25,0,0,1-.1.2l-.81.59-1,.74a.24.24,0,0,1-.14,0,.26.26,0,0,1-.21-.11,13.07,13.07,0,0,1-1.87-3.66.24.24,0,0,1,0-.08,10.23,10.23,0,0,1-.37-1.42c0-.18-.07-.37-.1-.55q-.07-.5-.12-1c0-.34,0-.68,0-1s0-.69,0-1,.07-.65.12-1,.06-.37.1-.55.08-.41.14-.61.14-.54.23-.81a.24.24,0,0,1,0-.08,13.07,13.07,0,0,1,1.87-3.66,13.39,13.39,0,0,1,2.91-2.91l.07,0a8,8,0,0,1,.8-.54,8.46,8.46,0,0,1,.77-.44l.16-.09c.2-.1.4-.2.6-.28l0,0,.32-.14c.29-.12.59-.23.89-.33a13.07,13.07,0,0,1,8.14,0c.3.1.6.2.89.32a11.7,11.7,0,0,1,1.13.54,8.46,8.46,0,0,1,.77.44,6,6,0,0,1,.62.41l.18.13.07,0a13.13,13.13,0,0,1,2.91,18.36Z"/>
         <path class="cls-5"
               d="M223.43,65.43a15.77,15.77,0,1,0,15.76,15.76A15.78,15.78,0,0,0,223.43,65.43Zm0,30.53a14.77,14.77,0,1,1,14.76-14.77A14.78,14.78,0,0,1,223.43,96Z"/>
         <path class="cls-5"
               d="M229.66,74.65a.51.51,0,0,0-.71,0l-4.57,4.69a1.94,1.94,0,0,0-1.31-.23,2,2,0,0,0,.35,3.88l.37,0a2,2,0,0,0,1.25-.82,2,2,0,0,0,.31-1.47,1.86,1.86,0,0,0-.25-.64l4.57-4.68A.51.51,0,0,0,229.66,74.65Zm-5.45,6.93a.91.91,0,0,1-.61.4.93.93,0,0,1-.72-.15.9.9,0,0,1-.39-.61.92.92,0,0,1,.15-.72,1,1,0,0,1,.61-.4h.18a.69.69,0,0,1,.2,0,.89.89,0,0,1,.34.13l.11.12a1,1,0,0,1,.27.45s0,0,0,.05A1,1,0,0,1,224.21,81.58Z"/>
         <path class="cls-7"
               d="M224.37,80.87a1,1,0,0,1-.16.71.91.91,0,0,1-.61.4.93.93,0,0,1-.72-.15.9.9,0,0,1-.39-.61.92.92,0,0,1,.15-.72,1,1,0,0,1,.61-.4h.18a.69.69,0,0,1,.2,0,.89.89,0,0,1,.34.13l.11.12a1,1,0,0,1,.27.45S224.36,80.85,224.37,80.87Z"/>
         <path class="cls-5" d="M216.72,71.92a.24.24,0,0,1-.14,0h0A.29.29,0,0,0,216.72,71.92Z"/>
         <path class="cls-5" d="M234.52,77.78h0a.15.15,0,0,1-.07,0Z"/>
         <path class="cls-5" d="M230.28,72h0a.24.24,0,0,1-.14,0A.29.29,0,0,0,230.28,72Z"/>
         <path class="cls-5" d="M212.41,77.76a.15.15,0,0,1-.07,0h0Z"/>
         <polygon class="cls-5" points="232.99 74.49 232.99 74.49 232.99 74.49 232.99 74.49"/>
         <polygon class="cls-5" points="232.69 74.09 232.69 74.09 232.69 74.09 232.69 74.09"/>
         <path class="cls-5" d="M232.88,74.53h-.06S232.86,74.53,232.88,74.53Z"/>
         <path class="cls-5" d="M214.67,75.08l-.79-.57h0s0,0,0,0Z"/>
         <polygon class="cls-5" points="214.15 74.09 214.15 74.09 214.15 74.09 214.15 74.09"/>
         <path class="cls-5" d="M214,74.53h-.09s0,0,0,0A.21.21,0,0,0,214,74.53Z"/>
         <path class="cls-5"
               d="M235.93,77.07a13.19,13.19,0,0,0-4.78-6.57l-.07,0-.18-.13c-.2-.15-.41-.28-.62-.41a8.46,8.46,0,0,0-.77-.44,11.7,11.7,0,0,0-1.13-.54l-.89-.32a13.07,13.07,0,0,0-8.14,0c-.3.1-.6.21-.89.33l-.32.14,0,0-.6.28-.16.09a8.46,8.46,0,0,0-.77.44,8,8,0,0,0-.8.54l-.07,0a13.39,13.39,0,0,0-2.91,2.91,13.07,13.07,0,0,0-1.87,3.66.24.24,0,0,0,0,.08c-.09.27-.16.54-.23.81s-.1.41-.14.61-.07.37-.1.55-.09.66-.12,1,0,.69,0,1,0,.69,0,1,.07.66.12,1c0,.18.06.37.1.55a10.23,10.23,0,0,0,.37,1.42.24.24,0,0,0,0,.08,13.07,13.07,0,0,0,1.87,3.66A.26.26,0,0,0,213,89a.24.24,0,0,0,.14,0l1-.74.81-.59a.25.25,0,0,0,.1-.2.28.28,0,0,0,0-.15.24.24,0,0,0-.35,0l-.81.59h0l-.81.59a12.89,12.89,0,0,1-1.58-3.09l1-.31a.25.25,0,0,0,.16-.31.25.25,0,0,0-.32-.16l-.95.31a12.93,12.93,0,0,1-.55-3.43h2a.25.25,0,0,0,.25-.25.25.25,0,0,0-.25-.25h-2a12.93,12.93,0,0,1,.55-3.42l.95.31h.06l.09,0,.06,0,.06,0a.35.35,0,0,0,.05-.08.25.25,0,0,0-.16-.31l-1-.31A12.89,12.89,0,0,1,213,73.9l.81.59h0l0,0h0a.21.21,0,0,0,.11,0h-.09l.74.55a.19.19,0,0,0,.14,0A.25.25,0,0,0,215,75a.26.26,0,0,0,0-.15.25.25,0,0,0-.1-.2l-.81-.59-.81-.59a12.64,12.64,0,0,1,2.45-2.45l.59.81a.25.25,0,0,0,.18.1.29.29,0,0,0,.16,0,.25.25,0,0,0,.06-.35l-.59-.81a12.14,12.14,0,0,1,3.08-1.58l.31.95.31,1a.27.27,0,0,0,.24.17h.08a.26.26,0,0,0,.17-.24.25.25,0,0,0,0-.08l-.31-1-.31-1a12.4,12.4,0,0,1,3.42-.54v1a.25.25,0,0,0,.5,0v-1a12.4,12.4,0,0,1,3.42.54l-.31,1-.31,1a.25.25,0,0,0,0,.08.26.26,0,0,0,.17.24h.08a.26.26,0,0,0,.24-.17l.31-1,.31-.95a12.14,12.14,0,0,1,3.08,1.58l-.59.81a.25.25,0,0,0,.06.35.29.29,0,0,0,.16,0,.26.26,0,0,0,.19-.1l.59-.81a12.87,12.87,0,0,1,2.44,2.45l-.81.59-.81.59a.25.25,0,0,0-.1.2.26.26,0,0,0,0,.15.25.25,0,0,0,.21.1.19.19,0,0,0,.14,0l.82-.59.81-.59A12.89,12.89,0,0,1,235.38,77l-1,.31a.25.25,0,0,0-.16.31.25.25,0,0,0,.12.13l.05,0,.09,0h.06l.95-.31a12.53,12.53,0,0,1,.55,3.42h-2a.25.25,0,0,0-.25.25.25.25,0,0,0,.25.25h2a12.54,12.54,0,0,1-.55,3.43l-.95-.31a.25.25,0,0,0-.32.16.25.25,0,0,0,.16.31l1,.31a12.89,12.89,0,0,1-1.58,3.09l-.81-.59-.82-.59a.25.25,0,0,0-.35,0,.28.28,0,0,0,0,.15.25.25,0,0,0,.1.2l.81.59,1,.74a.25.25,0,0,0,.15,0,.26.26,0,0,0,.2-.11,13.08,13.08,0,0,0,1.87-11.79Zm-3.09-2.53h0s0,0,.06,0Z"/>
      </g>
   </g>
</svg>
