<?xml version="1.0" encoding="iso-8859-1"?>
<!-- Generator: Adobe Illustrator 19.2.0, SVG Export Plug-In . SVG Version: 6.00 Build 0)  -->
<svg version="1.1" xmlns="http://www.w3.org/2000/svg" xmlns:xlink="http://www.w3.org/1999/xlink" x="0px" y="0px"
	 viewBox="0 0 16 16" style="enable-background:new 0 0 16 16;" xml:space="preserve">
<g id="Layer_1">
</g>
<g id="Content">
</g>
<g id="Layer_14">
	<g id="icon-borders" style="display:none;">
		<rect style="display:inline;fill:#D9EFFF;" width="16" height="16"/>
	</g>
	<g id="icon-borders_copy" style="display:none;">
	</g>
	<g id="Icons_1_">
		<g>
			<g id="XMLID_86_">
				<rect id="XMLID_90_" x="9" y="8" style="fill:#0093FF;" width="5" height="4"/>
				<path id="XMLID_87_" style="fill:#0093FF;" d="M8,11v2h6V8H8v2l-3,0.01V8H4v3H8z M9,9h4v3.01L9,12V9z"/>
			</g>
			<g id="XMLID_66_" style="opacity:0.5;">
				<path id="XMLID_83_" style="fill:#0093FF;" d="M3,7V5h3v2H3z M4,8h1c1.1,0,1.99-1,1.99-2H7c0-1-0.9-2-2-2H4C2.9,4,2,4.9,2,6l0,0
					C2,7.1,2.9,8,4,8L4,8z"/>
			</g>
			<g id="XMLID_62_">
				<rect id="XMLID_65_" x="4" y="3" style="opacity:0.35;fill:#0093FF;" width="1" height="1"/>
				<rect id="XMLID_64_" y="5" style="opacity:0.5;fill:#0093FF;" width="2" height="1"/>
				<rect id="XMLID_63_" x="14" y="10" style="fill:#0093FF;" width="2" height="1"/>
			</g>
		</g>
	</g>
</g>
</svg>
