<?xml version="1.0" encoding="iso-8859-1"?>
<!-- Generator: Adobe Illustrator 19.1.0, SVG Export Plug-In . SVG Version: 6.00 Build 0)  -->
<svg version="1.1" xmlns="http://www.w3.org/2000/svg" xmlns:xlink="http://www.w3.org/1999/xlink" x="0px" y="0px"
	 viewBox="0 0 16 16" style="enable-background:new 0 0 16 16;" xml:space="preserve">
<g id="BG_x2B_Header">
	<g id="BG">
	</g>
	<g id="Header">
		<g id="Right-ID">
		</g>
	</g>
</g>
<g id="Titles">
</g>
<g id="Content">
	<g id="borders" style="display:none;">
		<rect style="display:inline;opacity:0.7;fill:#D1D3D4;" width="16" height="16"/>
	</g>
	<g id="Icons">
		<g>
			<path style="fill:#0093FF;" d="M8,5c1.654,0,3,1.346,3,3s-1.346,3-3,3S5,9.654,5,8S6.346,5,8,5 M8,4C5.791,4,4,5.791,4,8
				s1.791,4,4,4s4-1.791,4-4S10.209,4,8,4L8,4z"/>
		</g>
		<g>
			<path style="fill:#0093FF;" d="M8,11.5c-0.316,0-0.629-0.044-0.93-0.129C9.037,10.89,10.5,9.112,10.5,7
				c0-0.619-0.125-1.216-0.363-1.767C10.974,5.877,11.5,6.885,11.5,8C11.5,9.93,9.93,11.5,8,11.5z"/>
			<path style="fill:#0093FF;" d="M10.968,7.564C10.989,7.707,11,7.852,11,8c0,1.139-0.638,2.131-1.575,2.639
				C10.265,9.848,10.832,8.771,10.968,7.564 M8.707,4.071C9.497,4.802,10,5.839,10,7c0,2.209-1.791,4-4,4
				c-0.242,0-0.477-0.03-0.707-0.071C6.006,11.588,6.952,12,8,12c2.209,0,4-1.791,4-4C12,6.033,10.578,4.406,8.707,4.071
				L8.707,4.071z"/>
		</g>
	</g>
</g>
</svg>
