<?xml version="1.0" encoding="iso-8859-1"?>
<!-- Generator: Adobe Illustrator 19.1.0, SVG Export Plug-In . SVG Version: 6.00 Build 0)  -->
<svg version="1.1" xmlns="http://www.w3.org/2000/svg" xmlns:xlink="http://www.w3.org/1999/xlink" x="0px" y="0px"
	 viewBox="0 0 16 16" style="enable-background:new 0 0 16 16;" xml:space="preserve">
<g id="BG_x2B_Header">
	<g id="BG">
	</g>
	<g id="Header">
		<g id="Right-ID">
		</g>
	</g>
</g>
<g id="Titles">
</g>
<g id="Content">
	<g id="borders" style="display:none;">
		<rect style="display:inline;opacity:0.7;fill:#D1D3D4;" width="16" height="16"/>
	</g>
	<g id="Icons">
		<g>
			<path style="fill:#0093FF;" d="M2.784,4.659c0-0.878,0.174-1.624,0.521-2.238c0.348-0.615,0.851-0.923,1.51-0.923
				c0.606,0,1.108,0.275,1.506,0.826s0.597,1.359,0.597,2.428c0,1.039-0.201,1.84-0.604,2.401C5.912,7.716,5.416,7.996,4.827,7.996
				c-0.584,0-1.07-0.276-1.46-0.83C2.979,6.613,2.784,5.777,2.784,4.659z M4.848,2.538c-0.295,0-0.54,0.162-0.735,0.486
				S3.819,3.943,3.819,4.811c0,0.788,0.099,1.343,0.296,1.664c0.198,0.321,0.442,0.482,0.732,0.482c0.299,0,0.546-0.162,0.741-0.486
				s0.293-0.917,0.293-1.778c0-0.793-0.099-1.351-0.296-1.673C5.388,2.698,5.142,2.538,4.848,2.538z M4.854,14.453L10.14,1.498
				h0.963L5.836,14.453H4.854z M9.032,11.115c0-0.883,0.174-1.631,0.521-2.242c0.348-0.612,0.853-0.919,1.517-0.919
				c0.606,0,1.108,0.275,1.506,0.826s0.597,1.36,0.597,2.428c0,1.04-0.201,1.84-0.604,2.402c-0.401,0.562-0.899,0.843-1.492,0.843
				c-0.585,0-1.071-0.278-1.46-0.835C9.227,13.063,9.032,12.229,9.032,11.115z M11.103,8.994c-0.3,0-0.547,0.162-0.742,0.486
				s-0.293,0.92-0.293,1.786c0,0.782,0.099,1.336,0.297,1.66c0.197,0.324,0.441,0.486,0.731,0.486c0.303,0,0.553-0.162,0.748-0.486
				s0.293-0.917,0.293-1.777c0-0.794-0.099-1.352-0.297-1.673C11.643,9.155,11.396,8.994,11.103,8.994z"/>
		</g>
	</g>
</g>
</svg>
