<?xml version="1.0"?>
<svg width="16" height="16" xmlns="http://www.w3.org/2000/svg" xmlns:svg="http://www.w3.org/2000/svg">
 <g>
  <title>Layer 1</title>
  <g id="BG_x2B_Header">
   <g id="BG"/>
   <g id="Header">
    <g id="Right-ID"/>
   </g>
  </g>
  <g id="Titles"/>
  <g stroke="null" display="none" id="borders">
   <rect stroke="null" id="svg_1" opacity="0.7" fill="#D1D3D4" height="16" width="16"/>
  </g>
  <g stroke="null" id="svg_2">
   <rect stroke="null" id="svg_3" fill="#0093FF" height="1" width="12" y="3.036066" x="1.031676"/>
   <rect stroke="null" id="svg_6" fill="#0093FF" height="1" width="1" y="6.036066" x="4.031676"/>
   <rect stroke="null" id="svg_7" fill="#0093FF" height="1" width="1" y="4.036066" x="4.031676"/>
   <rect stroke="null" id="svg_8" fill="#0093FF" height="1" width="1" y="6.013169" x="6.031676"/>
   <rect stroke="null" id="svg_9" fill="#0093FF" height="1" width="1" y="6.013169" x="8.031676"/>
   <rect stroke="null" id="svg_10" fill="#0093FF" height="1" width="1" y="6.013169" x="10.031676"/>
   <rect stroke="null" id="svg_11" fill="#0093FF" height="1" width="1" y="6.013169" x="12.031676"/>
   <polygon stroke="null" id="svg_12" fill="#0093FF" points="14.031676352024078,3.536069631576538 11.031676352024078,6.036069869995117 11.031676352024078,1.0360679626464844 "/>
   <rect id="svg_42" stroke="null" fill="#0093FF" height="1" width="12" y="10.03654" x="1.031676"/>
   <rect id="svg_43" stroke="null" fill="#0093FF" height="1" width="1" y="13.03654" x="4.031676"/>
   <rect id="svg_44" stroke="null" fill="#0093FF" height="1" width="1" y="11.03654" x="4.031676"/>
   <rect id="svg_45" stroke="null" fill="#0093FF" height="1" width="1" y="13.013643" x="6.031676"/>
   <rect id="svg_46" stroke="null" fill="#0093FF" height="1" width="1" y="13.013643" x="8.031676"/>
   <rect id="svg_47" stroke="null" fill="#0093FF" height="1" width="1" y="13.013643" x="10.031676"/>
   <rect id="svg_48" stroke="null" fill="#0093FF" height="1" width="1" y="13.013643" x="12.031676"/>
   <polygon id="svg_49" stroke="null" fill="#0093FF" points="14.03167724609375,10.536531507968903 11.03167724609375,13.036532461643219 11.03167724609375,8.036530554294586 "/>
  </g>
 </g>
</svg>