<?xml version="1.0" encoding="iso-8859-1"?>
<!-- Generator: Adobe Illustrator 19.1.0, SVG Export Plug-In . SVG Version: 6.00 Build 0)  -->
<svg version="1.1" xmlns="http://www.w3.org/2000/svg" xmlns:xlink="http://www.w3.org/1999/xlink" x="0px" y="0px"
	 viewBox="0 0 16 16" style="enable-background:new 0 0 16 16;" xml:space="preserve">
<g id="BG_x2B_Header">
	<g id="BG">
	</g>
	<g id="Header">
		<g id="Right-ID">
		</g>
	</g>
</g>
<g id="Titles">
</g>
<g id="Content">
	<g id="borders" style="display:none;">
		<rect style="display:inline;opacity:0.7;fill:#D1D3D4;" width="16" height="16"/>
	</g>
	<g id="Icons">
	</g>
	<g id="Simulink-marquee">
		<g id="Layer_11">
		</g>
		<g>
			<g>
				<polygon style="fill:#0093FF;" points="6,11 6,11 10,11 10,11 10,11 10,11 12,11 12,9 10,9 10,9 10,10 6,10 6,9 6,9 4,9 4,11 
					6,11 				"/>
				<g>
					<rect x="5" y="1" style="fill:#0093FF;" width="1" height="4"/>
				</g>
				<path style="fill:#0093FF;" d="M14,6v8H2V6H14 M13,5H3C1.895,5,1,5.896,1,7v6c0,1.104,0.895,2,2,2h10c1.104,0,2-0.896,2-2V7
					C15,5.896,14.104,5,13,5L13,5z"/>
				<polygon style="fill:#0093FF;" points="5.5,5 8,2 3,2 				"/>
			</g>
		</g>
	</g>
</g>
<g id="Specs">
</g>
</svg>
