<?xml-stylesheet href="defaultstyles.css" type="text/css"?>
<svg xmlns="http://www.w3.org/2000/svg" xmlns:d="http://www.mathworks.com/blockgraphics" xmlns:xlink="http://www.w3.org/1999/xlink" version="1.1" id="svg_3" width="16" height="16" d:options="PreserveAspect:On;ScalingOnResizeMax:2.0;Rotate:Off;Resize:FitToBlock">
	<g id="layer_4" title="layer_0">
		<g id="Simulink-marquee">
			<g id="Layer_11"/>
			<g id="group_10">
				<path id="path_9" style="fill:#0093FF;" d=" M 7.879999999999999,11.420000000000002 L 6.222495126705654,11.420000000000002 L 5.672504873294347,10.829972299168977 L 5.672504873294347,4.910027700831025 L 2.357495126705652,4.910027700831025 L 2.357495126705652,10.829972299168977 L 1.8075048732943482,11.420000000000002 L 0.15,11.420000000000002 L 0.6999902534113055,10.829972299168977 L 1.8075048732943482,10.829972299168977 L 1.8075048732943482,4.910027700831025 L 2.357495126705652,4.32 L 5.672504873294347,4.32 L 6.222495126705654,4.910027700831025 L 6.222495126705654,10.829972299168977 L 7.3300097465886935,10.829972299168977 L 7.879999999999999,11.420000000000002 Z"/>
			</g>
		</g>
		<g id="Simulink-marquee_23">
			<g id="Layer_22"/>
			<g id="group_21">
				<g id="group_20">
					<path id="path_15" style="fill:#0093FF;" d=" M 10.160967741935483,7.28 L 11.54,9.039999999999997 L 8.79,9.039999999999997 L 10.160967741935483,7.28 Z"/>
					<rect id="rect_16" style="fill:#0093FF;" x="9.89" y="9.05" width="0.56" height="1.76" rx="0" ry="0"/>
					<g id="group_19">
						<path id="path_17" style="fill:#0093FF;" d=" M 15.409653333333335,10.823278008298754 L 14.300866666666668,10.823278008298754 L 14.300866666666668,4.926721991701245 L 13.750519999999998,4.34 L 10.440346666666667,4.34 L 9.89,4.926721991701245 L 9.89,6.109944674965422 L 9.89,6.696666666666667 L 10.440346666666667,6.696666666666667 L 10.440346666666667,4.926721991701245 L 13.750519999999998,4.926721991701245 L 13.750519999999998,10.823278008298754 L 14.300866666666668,11.409999999999997 L 15.960000000000004,11.409999999999997 L 15.409653333333335,10.823278008298754 Z"/>
						<path id="path_18" style="fill:#0093FF;" d=" M 8.24,11.41 L 9.892014652014653,11.41 L 10.44,10.83 L 8.78798534798535,10.83 L 8.24,11.41 Z"/>
					</g>
				</g>
			</g>
		</g>
	</g>
</svg>
