<svg width="16" height="16" viewBox="0 0 16 16" fill="none" xmlns="http://www.w3.org/2000/svg">
<path d="M4 13H1L2 12H4V3L5 2H12L13 3V7.5V12H15L16 13H13L12 12V3H5V12L4 13Z" fill="#0093FF"/>
<path d="M6.07764 8.02344H7.7251C8.0988 8.02344 8.41439 8.0804 8.67188 8.19434C8.93164 8.30827 9.12874 8.47689 9.26318 8.7002C9.3999 8.92122 9.46826 9.19352 9.46826 9.51709C9.46826 9.74495 9.42155 9.95345 9.32812 10.1426C9.23698 10.3294 9.10482 10.4889 8.93164 10.6211C8.76074 10.751 8.55566 10.8478 8.31641 10.9116L8.13184 10.9834H6.5835L6.57666 10.4468H7.74561C7.98258 10.4468 8.17969 10.4058 8.33691 10.3237C8.49414 10.2394 8.61263 10.1266 8.69238 9.98535C8.77214 9.84408 8.81201 9.68799 8.81201 9.51709C8.81201 9.32568 8.77441 9.1582 8.69922 9.01465C8.62402 8.87109 8.50553 8.76058 8.34375 8.68311C8.18424 8.60335 7.97803 8.56348 7.7251 8.56348H6.7373V13H6.07764V8.02344ZM8.98633 13L7.77637 10.7441L8.46338 10.7407L9.69043 12.959V13H8.98633Z" fill="#0093FF"/>
</svg>
