<?xml version="1.0" encoding="iso-8859-1"?>
<!-- Generator: Adobe Illustrator 19.2.0, SVG Export Plug-In . SVG Version: 6.00 Build 0)  -->
<svg version="1.1" xmlns="http://www.w3.org/2000/svg" xmlns:xlink="http://www.w3.org/1999/xlink" x="0px" y="0px"
	 viewBox="0 0 16 16" style="enable-background:new 0 0 16 16;" xml:space="preserve">
<g id="Layer_1">
</g>
<g id="Content">
</g>
<g id="Layer_14">
	<g id="icon-borders" style="display:none;">
		<rect style="display:inline;fill:#D9EFFF;" width="16" height="16"/>
	</g>
	<g id="icon-borders_copy" style="display:none;">
		<rect style="display:inline;fill:#D9EFFF;" width="16" height="16"/>
	</g>
	<g id="Icons_1_">
		<g>
			<g id="XMLID_57_">
				<rect id="XMLID_61_" x="9" y="10" style="fill:#0093FF;" width="5" height="4"/>
				<path id="XMLID_58_" style="fill:#0093FF;" d="M8,13v2h6v-5H8v2l-3,0.01V10H4v3H8z M9,11h4v3.01L9,14V11z"/>
			</g>
			<g id="XMLID_53_" style="opacity:0.5;">
				<path id="XMLID_54_" style="fill:#0093FF;" d="M3,9V7h3v2H3z M4,10h1c1.1,0,1.99-1,1.99-2H7c0-1-0.9-2-2-2H4C2.9,6,2,6.9,2,8
					l0,0C2,9.1,2.9,10,4,10L4,10z"/>
			</g>
			<g id="XMLID_49_">
				<rect id="XMLID_52_" x="4" y="5" style="opacity:0.35;fill:#0093FF;" width="1" height="1"/>
				<rect id="XMLID_51_" y="7" style="opacity:0.5;fill:#0093FF;" width="2" height="1"/>
				<rect id="XMLID_50_" x="14" y="12" style="fill:#0093FF;" width="2" height="1"/>
			</g>
			<g id="XMLID_2_">
				<rect id="XMLID_35_" x="2" y="1" style="fill:#0093FF;" width="1" height="1"/>
				<rect id="XMLID_34_" x="4" y="1" style="fill:#0093FF;" width="1" height="1"/>
				<rect id="XMLID_33_" x="6" y="1" style="fill:#0093FF;" width="1" height="1"/>
				<rect id="XMLID_32_" x="8" y="1" style="fill:#0093FF;" width="1" height="1"/>
				
					<rect id="XMLID_31_" x="9" y="0" transform="matrix(-1 9.094935e-011 -9.094935e-011 -1 19 3)" style="fill:#0093FF;" width="1" height="3"/>
				
					<rect id="XMLID_30_" x="10" y="1" transform="matrix(-1 8.913036e-011 -8.913036e-011 -1 21 3)" style="fill:#0093FF;" width="1" height="1"/>
			</g>
		</g>
	</g>
</g>
</svg>
