<svg xmlns="http://www.w3.org/2000/svg" viewBox="0 0 16 16">
  <g id="Icons">
  <rect style="fill:#0093FF;" x="7" width="3" height="1"/>
  <rect style="fill:#0093FF;" x="8" y="2" width="1" height="1"/>
  <rect style="fill:#0093FF;" x="5" y="7" width="1" height="1"/>
  <rect style="fill:#0093FF;" x="11" y="7" width="1" height="1"/>
  <rect style="fill:#0093FF;" x="6" y="13" width="1" height="3"/>
  <rect style="fill:#0093FF;" x="2" y="15" width="2" height="1"/>
  <rect style="fill:#0093FF;" x="8" y="15" width="1" height="1"/>
  <rect style="fill:#0093FF;" x="8" y="11" width="1" height="5"/>
  <rect style="fill:#0093FF;" x="10" y="12" width="1" height="4"/>
  <rect style="fill:#0093FF;" x="10" y="15" width="1" height="1"/>
  <rect style="fill:#0093FF;" x="6" y="15" width="1" height="1"/>
  <rect style="fill:#0093FF;" x="4" y="8" width="1" height="7"/>
  <rect style="fill:#0093FF;" x="12" y="8" width="1" height="7"/>
  <rect style="fill:#0093FF;" x="5" y="9" width="7" height="1"/>
  <rect style="fill:#0093FF;" x="4" y="14" width="8" height="2"/>
  <rect style="fill:#0093FF;" x="6" y="1" width="1" height="6"/>
  <rect style="fill:#0093FF;" x="10" y="1" width="1" height="6"/>
  </g>
</svg>