<?xml version="1.0" encoding="iso-8859-1"?>
<!-- Generator: Adobe Illustrator 19.1.0, SVG Export Plug-In . SVG Version: 6.00 Build 0)  -->
<svg version="1.1" xmlns="http://www.w3.org/2000/svg" xmlns:xlink="http://www.w3.org/1999/xlink" x="0px" y="0px"
	 viewBox="0 0 16 16" style="enable-background:new 0 0 16 16;" xml:space="preserve">
<g id="BG_x2B_Header">
	<g id="BG">
	</g>
	<g id="Header">
		<g id="Right-ID">
		</g>
	</g>
</g>
<g id="Titles">
</g>
<g id="Content">
	<g id="borders" style="display:none;">
		<rect style="display:inline;opacity:0.7;fill:#D1D3D4;" width="16" height="16"/>
	</g>
	<g id="Icons">
	</g>
	<g id="Simulink-marquee">
		<g id="Layer_11">
		</g>
		<g>
			<g>
				<path style="fill:#0093FF;" d="M3.779,5.479C3.886,4.54,4.113,3.608,4.603,2.993C5.106,2.361,5.761,2,6.239,2
					c0.419,0,0.755,0.308,0.76,0.519C7.015,2.718,6.852,2.94,6.74,3.041C6.638,3.115,6.53,3.127,6.438,3.029
					C6.165,2.741,5.901,2.596,5.65,2.596c-0.443,0-0.769,0.592-0.948,2.884h1.355l-0.21,0.398L4.658,5.999
					c-0.12,1.365-0.185,2.082-0.352,3.456c-0.252,2.13-0.623,3.059-1.227,3.763C2.598,13.802,2.109,14,1.798,14
					c-0.347,0-0.776-0.26-0.797-0.53c-0.013-0.164,0.128-0.374,0.294-0.522c0.089-0.087,0.152-0.074,0.228,0
					c0.195,0.186,0.566,0.311,0.781,0.311c0.202,0,0.375-0.102,0.494-0.252C2.94,12.825,3.175,12.303,3.393,9.9
					c0.145-1.698,0.231-2.711,0.33-3.925H2.74L2.693,5.829l0.331-0.35H3.779z"/>
				<g>
					<path style="fill:#0093FF;" d="M10.506,14c-0.422-0.783-0.779-1.699-1.068-2.748C9.146,10.204,9,9.117,9,7.994
						c0-0.991,0.109-1.94,0.328-2.848C9.582,4.093,9.975,3.045,10.506,2h0.549c-0.342,0.866-0.568,1.483-0.678,1.853
						c-0.174,0.574-0.311,1.174-0.408,1.798C9.846,6.43,9.785,7.213,9.785,7.999c0,2.003,0.422,4.002,1.269,6.001H10.506z"/>
				</g>
				<g>
					<g>
						<path style="fill:#0093FF;" d="M13.549,14H13c0.847-1.999,1.269-3.998,1.269-6.001c0-0.782-0.062-1.559-0.183-2.329
							c-0.095-0.624-0.23-1.223-0.402-1.797C13.573,3.499,13.345,2.874,13,2h0.549c0.53,1.045,0.924,2.093,1.179,3.147
							c0.218,0.907,0.327,1.856,0.327,2.848c0,1.123-0.146,2.21-0.439,3.258C14.321,12.301,13.966,13.217,13.549,14z"/>
					</g>
				</g>
			</g>
		</g>
	</g>
</g>
<g id="Specs">
</g>
</svg>
