<svg id="svg" version="1.1" width="400" height="400" xmlns="http://www.w3.org/2000/svg" xmlns:xlink="http://www.w3.org/1999/xlink" style="display: block;"><g id="svgg"><path id="path0" d="M16.500 12.676 C 16.885 12.776,17.203 13.070,17.206 13.329 C 17.211 13.675,17.290 13.679,17.506 13.346 C 17.668 13.097,18.160 12.803,18.600 12.693 C 19.040 12.583,18.590 12.493,17.600 12.493 C 16.610 12.493,16.115 12.575,16.500 12.676 M382.200 12.693 C 382.640 12.803,383.090 13.032,383.200 13.202 C 383.310 13.372,383.632 13.261,383.916 12.956 C 384.350 12.488,384.191 12.407,382.916 12.446 C 382.038 12.473,381.737 12.577,382.200 12.693 M13.621 13.761 C 13.338 14.289,13.204 14.964,13.322 15.261 C 13.465 15.621,13.547 15.560,13.568 15.076 C 13.586 14.678,13.744 14.442,13.919 14.550 C 14.095 14.658,14.500 14.562,14.819 14.336 C 15.288 14.004,15.261 13.970,14.679 14.158 C 14.257 14.294,14.060 14.227,14.203 13.995 C 14.337 13.778,14.707 13.600,15.024 13.600 C 15.341 13.600,15.600 13.420,15.600 13.200 C 15.600 12.404,14.123 12.823,13.621 13.761 M385.200 13.200 C 385.200 13.420,385.380 13.600,385.600 13.600 C 385.820 13.600,385.955 13.825,385.900 14.100 C 385.845 14.375,386.101 14.550,386.469 14.490 C 386.837 14.429,387.220 14.698,387.322 15.090 C 387.479 15.693,387.514 15.678,387.554 14.989 C 387.579 14.543,387.238 13.868,386.795 13.489 C 385.897 12.720,385.200 12.594,385.200 13.200 M12.400 17.400 C 12.400 18.170,12.559 18.800,12.753 18.800 C 13.215 18.800,13.606 17.281,13.330 16.561 C 12.929 15.516,12.400 15.993,12.400 17.400 M387.456 16.600 C 387.329 16.929,387.388 17.604,387.587 18.100 C 387.902 18.881,387.953 18.802,387.975 17.500 C 388.002 15.909,387.833 15.617,387.456 16.600 M122.687 115.022 C 122.089 115.620,121.600 116.430,121.600 116.822 C 121.600 117.954,118.576 120.787,115.909 122.152 C 112.342 123.979,113.558 132.790,117.600 134.409 C 118.370 134.718,119.349 135.292,119.775 135.685 C 120.202 136.078,120.668 136.400,120.811 136.400 C 120.955 136.400,121.309 137.120,121.600 137.999 C 122.263 140.007,123.788 141.690,125.600 142.412 C 126.370 142.719,127.349 143.292,127.775 143.685 C 128.202 144.078,128.668 144.400,128.811 144.400 C 128.955 144.400,129.309 145.120,129.600 145.999 C 130.263 148.007,131.788 149.690,133.600 150.412 C 134.370 150.719,135.349 151.292,135.775 151.685 C 136.202 152.078,136.668 152.400,136.811 152.400 C 136.955 152.400,137.309 153.120,137.600 153.999 C 138.263 156.007,139.788 157.690,141.600 158.412 C 142.370 158.719,143.349 159.292,143.775 159.685 C 144.202 160.078,144.668 160.400,144.811 160.400 C 144.955 160.400,145.309 161.120,145.600 161.999 C 146.263 164.007,147.788 165.690,149.600 166.412 C 150.370 166.719,151.349 167.292,151.775 167.685 C 152.202 168.078,152.668 168.400,152.811 168.400 C 152.955 168.400,153.309 169.120,153.600 169.999 C 154.298 172.115,155.854 173.776,157.700 174.375 C 158.525 174.643,159.200 174.998,159.200 175.163 C 159.200 175.329,159.605 175.682,160.100 175.948 C 160.966 176.412,162.000 178.077,162.000 179.008 C 162.000 179.876,164.217 181.893,165.700 182.375 C 166.525 182.643,167.200 182.998,167.200 183.163 C 167.200 183.329,167.605 183.682,168.100 183.948 C 168.966 184.412,170.000 186.077,170.000 187.008 C 170.000 187.794,172.152 189.835,173.591 190.413 C 177.817 192.112,179.031 196.244,177.771 204.645 C 177.565 206.022,175.410 208.800,174.549 208.800 C 174.247 208.800,174.000 208.968,174.000 209.173 C 174.000 209.378,173.595 209.666,173.100 209.813 C 172.052 210.124,169.600 212.607,169.600 213.358 C 169.600 214.094,167.202 216.800,166.549 216.800 C 166.247 216.800,166.000 216.968,166.000 217.173 C 166.000 217.378,165.595 217.666,165.100 217.813 C 164.052 218.124,161.600 220.607,161.600 221.358 C 161.600 222.094,159.202 224.800,158.549 224.800 C 158.247 224.800,158.000 224.968,158.000 225.173 C 158.000 225.378,157.595 225.666,157.100 225.813 C 156.052 226.124,153.600 228.607,153.600 229.358 C 153.600 230.094,151.202 232.800,150.549 232.800 C 150.247 232.800,150.000 232.968,150.000 233.173 C 150.000 233.378,149.595 233.666,149.100 233.813 C 148.052 234.124,145.600 236.607,145.600 237.358 C 145.600 238.094,143.202 240.800,142.549 240.800 C 142.247 240.800,142.000 240.968,142.000 241.173 C 142.000 241.378,141.595 241.666,141.100 241.813 C 140.052 242.124,137.600 244.607,137.600 245.358 C 137.600 246.094,135.202 248.800,134.549 248.800 C 134.247 248.800,134.000 248.968,134.000 249.173 C 134.000 249.378,133.595 249.666,133.100 249.813 C 132.052 250.124,129.600 252.607,129.600 253.358 C 129.600 254.094,127.202 256.800,126.549 256.800 C 126.247 256.800,126.000 256.968,126.000 257.173 C 126.000 257.378,125.595 257.666,125.100 257.813 C 124.052 258.124,121.600 260.607,121.600 261.358 C 121.600 262.094,119.202 264.800,118.549 264.800 C 118.247 264.800,118.000 264.968,118.000 265.173 C 118.000 265.378,117.595 265.671,117.100 265.823 C 113.012 267.079,112.625 278.400,116.670 278.400 C 116.930 278.400,117.381 278.625,117.671 278.900 C 117.962 279.175,118.695 279.655,119.300 279.968 C 119.905 280.280,120.400 280.685,120.400 280.868 C 120.400 281.050,120.760 281.560,121.200 282.000 C 121.640 282.440,122.005 283.115,122.011 283.500 C 122.017 283.885,122.537 284.705,123.166 285.321 L 124.310 286.443 128.395 286.161 C 132.688 285.866,134.000 285.252,134.000 283.540 C 134.000 283.150,134.331 282.509,134.736 282.116 C 135.141 281.722,135.592 281.068,135.738 280.662 C 135.884 280.256,136.351 279.833,136.774 279.723 C 137.198 279.612,137.641 279.269,137.760 278.961 C 137.878 278.652,138.242 278.400,138.569 278.400 C 139.819 278.400,141.153 277.449,141.862 276.053 C 142.268 275.254,142.710 274.510,142.844 274.400 C 142.978 274.290,143.388 273.615,143.754 272.900 C 144.121 272.185,144.686 271.600,145.010 271.600 C 145.335 271.600,145.600 271.444,145.600 271.254 C 145.600 271.064,146.371 270.614,147.314 270.254 C 149.006 269.608,150.400 267.975,150.400 266.638 C 150.400 266.287,150.580 266.000,150.800 266.000 C 151.020 266.000,151.200 265.760,151.200 265.466 C 151.200 264.650,153.530 262.755,155.050 262.335 C 156.686 261.883,157.976 260.591,158.277 259.100 C 158.400 258.495,158.658 258.000,158.850 258.000 C 159.043 258.000,159.200 257.760,159.200 257.466 C 159.200 256.650,161.530 254.755,163.050 254.335 C 164.686 253.883,165.976 252.591,166.277 251.100 C 166.400 250.495,166.658 250.000,166.850 250.000 C 167.043 250.000,167.200 249.760,167.200 249.466 C 167.200 248.650,169.530 246.755,171.050 246.335 C 172.686 245.883,173.976 244.591,174.277 243.100 C 174.400 242.495,174.658 242.000,174.850 242.000 C 175.043 242.000,175.200 241.760,175.200 241.466 C 175.200 240.650,177.530 238.755,179.050 238.335 C 180.686 237.883,181.976 236.591,182.277 235.100 C 182.400 234.495,182.658 234.000,182.850 234.000 C 183.043 234.000,183.200 233.760,183.200 233.466 C 183.200 232.650,185.530 230.755,187.050 230.335 C 188.686 229.883,189.976 228.591,190.277 227.100 C 190.400 226.495,190.662 226.000,190.860 226.000 C 191.058 226.000,191.398 225.533,191.615 224.961 C 191.832 224.390,192.367 223.829,192.805 223.715 C 193.242 223.600,193.600 223.365,193.600 223.192 C 193.600 221.202,205.613 221.635,207.695 223.700 C 208.083 224.085,208.551 224.400,208.736 224.400 C 208.921 224.400,209.309 225.120,209.600 225.999 C 210.298 228.115,211.854 229.776,213.700 230.375 C 214.525 230.643,215.200 230.998,215.200 231.163 C 215.200 231.329,215.605 231.682,216.100 231.948 C 216.966 232.412,218.000 234.077,218.000 235.008 C 218.000 235.872,220.215 237.893,221.686 238.370 C 223.658 239.011,225.430 240.721,225.906 242.444 C 226.413 244.279,227.845 245.766,229.686 246.367 C 231.660 247.012,233.431 248.723,233.906 250.444 C 234.413 252.279,235.845 253.766,237.686 254.367 C 239.660 255.012,241.431 256.723,241.906 258.444 C 242.413 260.279,243.845 261.766,245.686 262.367 C 247.660 263.012,249.431 264.723,249.906 266.444 C 250.384 268.174,251.772 269.676,253.562 270.399 C 255.317 271.107,257.098 272.858,257.819 274.584 C 258.576 276.395,259.892 277.725,261.600 278.407 C 262.370 278.715,263.234 279.195,263.520 279.474 C 263.806 279.754,264.256 280.121,264.520 280.291 C 265.132 280.685,266.000 282.228,266.000 282.923 C 266.000 285.817,275.163 287.776,277.402 285.360 C 277.951 284.768,278.400 284.032,278.400 283.725 C 278.400 283.418,278.760 282.780,279.200 282.308 C 279.640 281.836,280.000 281.213,280.000 280.925 C 280.000 280.636,280.236 280.400,280.525 280.400 C 280.813 280.400,281.398 280.078,281.825 279.685 C 282.251 279.292,283.176 278.734,283.881 278.445 C 287.839 276.820,287.486 266.790,283.434 265.773 C 282.865 265.630,282.400 265.392,282.400 265.243 C 282.400 265.094,281.883 264.667,281.252 264.294 C 280.620 263.921,279.862 263.027,279.567 262.308 C 279.271 261.589,278.708 260.651,278.315 260.225 C 277.922 259.798,277.600 259.300,277.600 259.118 C 277.600 258.936,276.925 258.475,276.100 258.094 C 275.275 257.712,274.251 257.085,273.825 256.700 C 273.398 256.315,272.900 256.000,272.718 256.000 C 272.536 256.000,272.075 255.325,271.694 254.500 C 271.312 253.675,270.685 252.651,270.300 252.225 C 269.915 251.798,269.600 251.300,269.600 251.118 C 269.600 250.936,268.925 250.475,268.100 250.094 C 267.275 249.712,266.251 249.085,265.825 248.700 C 265.398 248.315,264.900 248.000,264.718 248.000 C 264.536 248.000,264.075 247.325,263.694 246.500 C 263.312 245.675,262.685 244.651,262.300 244.225 C 261.915 243.798,261.600 243.300,261.600 243.118 C 261.600 242.936,260.925 242.475,260.100 242.094 C 259.275 241.712,258.251 241.085,257.825 240.700 C 257.398 240.315,256.900 240.000,256.718 240.000 C 256.536 240.000,256.075 239.325,255.694 238.500 C 255.312 237.675,254.685 236.651,254.300 236.225 C 253.915 235.798,253.600 235.300,253.600 235.118 C 253.600 234.936,252.925 234.475,252.100 234.094 C 251.275 233.712,250.251 233.085,249.825 232.700 C 249.398 232.315,248.900 232.000,248.718 232.000 C 248.536 232.000,248.075 231.325,247.694 230.500 C 247.312 229.675,246.685 228.651,246.300 228.225 C 245.915 227.798,245.600 227.300,245.600 227.118 C 245.600 226.936,244.925 226.475,244.100 226.094 C 243.275 225.712,242.251 225.085,241.825 224.700 C 241.398 224.315,240.900 224.000,240.718 224.000 C 240.536 224.000,240.075 223.325,239.694 222.500 C 239.312 221.675,238.685 220.651,238.300 220.225 C 237.915 219.798,237.600 219.300,237.600 219.118 C 237.600 218.936,236.925 218.475,236.100 218.094 C 235.275 217.712,234.251 217.085,233.825 216.700 C 233.398 216.315,232.900 216.000,232.718 216.000 C 232.536 216.000,232.075 215.325,231.694 214.500 C 231.312 213.675,230.685 212.651,230.300 212.225 C 229.915 211.798,229.600 211.300,229.600 211.118 C 229.600 210.936,228.925 210.475,228.100 210.094 C 227.275 209.712,226.251 209.085,225.825 208.700 C 225.398 208.315,224.900 208.000,224.718 208.000 C 224.536 208.000,224.075 207.325,223.694 206.500 C 223.312 205.675,222.874 204.905,222.721 204.789 C 222.043 204.278,222.179 194.966,222.874 194.270 C 223.244 193.899,223.662 193.236,223.801 192.798 C 223.940 192.359,224.317 192.000,224.640 192.000 C 224.962 192.000,225.321 191.750,225.438 191.445 C 225.555 191.139,226.411 190.599,227.340 190.244 C 229.007 189.608,230.400 187.966,230.400 186.638 C 230.400 186.287,230.584 186.000,230.810 186.000 C 231.035 186.000,231.393 185.545,231.604 184.990 C 231.815 184.434,232.306 183.860,232.694 183.715 C 233.082 183.569,233.580 183.235,233.800 182.973 C 234.020 182.711,234.690 182.382,235.289 182.243 C 236.661 181.924,237.988 180.529,238.277 179.100 C 238.400 178.495,238.662 178.000,238.860 178.000 C 239.058 178.000,239.393 177.545,239.604 176.990 C 239.815 176.434,240.306 175.860,240.694 175.715 C 241.082 175.569,241.580 175.235,241.800 174.973 C 242.020 174.711,242.690 174.382,243.289 174.243 C 244.661 173.924,245.988 172.529,246.277 171.100 C 246.400 170.495,246.662 170.000,246.860 170.000 C 247.058 170.000,247.393 169.545,247.604 168.990 C 247.815 168.434,248.306 167.860,248.694 167.715 C 249.082 167.569,249.580 167.235,249.800 166.973 C 250.020 166.711,250.690 166.382,251.289 166.243 C 252.661 165.924,253.988 164.529,254.277 163.100 C 254.400 162.495,254.662 162.000,254.860 162.000 C 255.058 162.000,255.393 161.545,255.604 160.990 C 255.815 160.434,256.306 159.863,256.694 159.720 C 257.082 159.577,257.544 159.222,257.720 158.930 C 257.896 158.639,258.292 158.400,258.601 158.400 C 259.821 158.400,261.160 157.436,261.862 156.053 C 262.268 155.254,262.724 154.506,262.875 154.392 C 263.026 154.277,263.343 153.675,263.580 153.053 C 263.816 152.431,264.367 151.829,264.805 151.715 C 265.242 151.600,265.600 151.372,265.600 151.208 C 265.600 151.043,266.384 150.609,267.343 150.243 C 268.633 149.751,269.283 149.190,269.843 148.089 C 270.259 147.270,270.724 146.506,270.875 146.392 C 271.026 146.277,271.343 145.675,271.580 145.053 C 271.816 144.431,272.367 143.829,272.805 143.715 C 273.242 143.600,273.600 143.372,273.600 143.208 C 273.600 143.043,274.384 142.609,275.343 142.243 C 276.633 141.751,277.283 141.190,277.843 140.089 C 278.259 139.270,278.724 138.506,278.875 138.392 C 279.026 138.277,279.343 137.675,279.580 137.053 C 279.816 136.431,280.367 135.829,280.805 135.715 C 281.242 135.600,281.600 135.362,281.600 135.184 C 281.600 135.007,282.239 134.651,283.019 134.394 C 286.954 133.095,287.926 122.771,284.202 121.836 C 283.651 121.698,283.200 121.408,283.200 121.192 C 283.200 120.977,282.964 120.800,282.676 120.800 C 281.895 120.800,279.624 118.435,279.348 117.335 C 278.204 112.778,266.000 112.438,266.000 116.964 C 266.000 117.314,265.671 117.929,265.269 118.331 C 264.868 118.732,264.417 119.379,264.267 119.769 C 264.118 120.158,263.637 120.570,263.198 120.685 C 262.759 120.799,262.400 121.040,262.400 121.220 C 262.400 121.399,261.995 121.669,261.500 121.819 C 260.308 122.180,258.523 124.131,257.799 125.864 C 257.191 127.319,255.758 128.764,254.900 128.787 C 254.625 128.794,254.400 128.977,254.400 129.192 C 254.400 129.408,253.905 129.699,253.300 129.840 C 252.018 130.136,249.603 132.536,249.593 133.522 C 249.585 134.394,246.480 137.399,245.190 137.785 C 243.964 138.151,241.602 140.605,241.593 141.522 C 241.585 142.394,238.480 145.399,237.190 145.785 C 235.964 146.151,233.602 148.605,233.593 149.522 C 233.585 150.394,230.480 153.399,229.190 153.785 C 227.964 154.151,225.602 156.605,225.593 157.522 C 225.585 158.394,222.480 161.399,221.190 161.785 C 219.964 162.151,217.602 164.605,217.593 165.522 C 217.585 166.394,214.480 169.399,213.190 169.785 C 212.070 170.119,209.600 172.578,209.600 173.358 C 209.600 173.985,207.245 176.800,206.721 176.800 C 206.513 176.800,206.059 177.084,205.712 177.431 C 204.697 178.446,195.366 178.102,194.032 177.000 C 192.323 175.588,191.200 174.298,191.200 173.746 C 191.200 173.222,190.504 172.225,189.110 170.750 C 188.731 170.349,187.940 169.900,187.354 169.753 C 186.162 169.453,183.200 166.604,183.200 165.756 C 183.200 165.223,182.511 164.231,181.110 162.750 C 180.731 162.349,179.940 161.900,179.354 161.753 C 178.162 161.453,175.200 158.604,175.200 157.756 C 175.200 157.223,174.511 156.231,173.110 154.750 C 172.731 154.349,171.940 153.900,171.354 153.753 C 170.162 153.453,167.200 150.604,167.200 149.756 C 167.200 149.223,166.511 148.231,165.110 146.750 C 164.731 146.349,163.940 145.900,163.354 145.753 C 162.024 145.419,159.200 142.563,159.200 141.552 C 159.200 141.138,159.059 140.800,158.886 140.800 C 158.714 140.800,158.261 140.273,157.881 139.629 C 157.460 138.917,156.604 138.268,155.695 137.973 C 154.873 137.705,154.056 137.242,153.880 136.943 C 153.704 136.645,153.308 136.400,152.999 136.400 C 152.690 136.400,152.139 135.770,151.773 135.000 C 151.408 134.230,150.949 133.600,150.754 133.600 C 150.559 133.600,150.400 133.324,150.400 132.986 C 150.400 131.845,149.143 130.443,147.690 129.964 C 146.163 129.460,145.652 129.128,144.262 127.738 C 143.126 126.602,142.745 126.062,141.859 124.330 C 141.428 123.488,140.510 122.572,139.665 122.141 C 138.866 121.733,137.972 121.175,137.678 120.900 C 137.383 120.625,136.984 120.400,136.790 120.400 C 136.596 120.400,136.139 119.770,135.773 119.000 C 135.408 118.230,134.949 117.600,134.754 117.600 C 134.559 117.600,134.396 117.285,134.391 116.900 C 134.354 113.992,125.187 112.522,122.687 115.022 M12.400 383.000 C 12.400 384.407,12.929 384.884,13.330 383.839 C 13.606 383.119,13.215 381.600,12.753 381.600 C 12.559 381.600,12.400 382.230,12.400 383.000 M387.466 382.470 C 387.341 382.948,387.404 383.623,387.607 383.970 C 387.879 384.435,387.979 384.208,387.988 383.100 C 388.002 381.413,387.804 381.175,387.466 382.470 M13.259 385.400 C 13.241 385.840,13.465 386.515,13.757 386.900 C 14.328 387.652,15.600 387.859,15.600 387.200 C 15.600 386.980,15.341 386.800,15.024 386.800 C 14.707 386.800,14.337 386.622,14.203 386.405 C 14.060 386.173,14.257 386.106,14.679 386.242 C 15.261 386.430,15.288 386.396,14.819 386.064 C 14.500 385.838,14.108 385.733,13.949 385.831 C 13.791 385.929,13.578 385.693,13.477 385.305 C 13.321 384.709,13.288 384.724,13.259 385.400 M387.246 385.318 C 387.217 385.767,386.938 385.991,386.500 385.918 C 386.109 385.852,385.844 386.021,385.900 386.300 C 385.955 386.575,385.820 386.800,385.600 386.800 C 385.380 386.800,385.200 386.980,385.200 387.200 C 385.200 387.834,385.962 387.667,386.853 386.836 C 387.324 386.398,387.592 385.760,387.483 385.336 C 387.305 384.649,387.290 384.647,387.246 385.318 M17.206 387.071 C 17.203 387.330,16.885 387.624,16.500 387.724 C 16.115 387.825,16.610 387.907,17.600 387.907 C 18.590 387.907,19.040 387.817,18.600 387.707 C 18.160 387.597,17.668 387.303,17.506 387.054 C 17.290 386.721,17.211 386.725,17.206 387.071 M383.200 387.106 C 383.200 387.347,382.795 387.622,382.300 387.718 C 381.789 387.816,382.092 387.912,383.000 387.939 C 383.880 387.966,384.420 387.853,384.200 387.689 C 383.980 387.525,383.665 387.228,383.500 387.029 C 383.329 386.822,383.200 386.855,383.200 387.106 " stroke="none" fill="#36404d" fill-rule="evenodd"></path><path id="path1" d="M13.700 12.665 C 13.425 12.776,13.200 13.122,13.200 13.433 C 13.200 13.745,13.020 14.000,12.800 14.000 C 12.580 14.000,12.400 14.360,12.400 14.800 C 12.400 15.781,13.195 15.879,13.213 14.900 C 13.230 13.947,14.054 12.935,15.010 12.693 C 15.788 12.496,15.787 12.493,15.000 12.478 C 14.560 12.470,13.975 12.554,13.700 12.665 M385.582 12.658 C 386.426 13.040,387.484 14.107,387.705 14.800 C 387.811 15.130,387.828 14.873,387.744 14.229 C 387.559 12.811,387.662 12.917,386.199 12.630 C 385.540 12.501,385.262 12.514,385.582 12.658 M12.400 385.600 C 12.400 386.040,12.580 386.400,12.800 386.400 C 13.020 386.400,13.200 386.667,13.200 386.992 C 13.200 387.602,15.042 388.291,15.485 387.848 C 15.622 387.712,15.408 387.600,15.011 387.600 C 14.168 387.600,13.231 386.505,13.213 385.500 C 13.195 384.521,12.400 384.619,12.400 385.600 M387.600 385.444 C 387.600 386.263,386.315 387.600,385.529 387.600 C 385.275 387.600,385.165 387.699,385.286 387.819 C 385.407 387.940,385.966 387.923,386.529 387.782 C 387.517 387.534,388.440 385.506,387.838 384.905 C 387.707 384.774,387.600 385.017,387.600 385.444 " stroke="none" fill="#0000ff" fill-rule="evenodd"></path><path id="path2" d="M18.600 12.692 C 18.160 12.802,17.668 13.097,17.506 13.346 C 17.296 13.671,17.211 13.658,17.206 13.300 C 17.203 13.025,16.840 12.800,16.400 12.800 C 15.960 12.800,15.600 12.980,15.600 13.200 C 15.600 13.420,15.352 13.600,15.049 13.600 C 14.113 13.600,13.513 14.710,13.380 16.688 C 13.309 17.730,13.060 18.647,12.826 18.725 C 12.227 18.924,12.291 21.889,12.900 22.135 C 13.300 22.296,13.300 22.343,12.900 22.368 C 12.164 22.415,12.164 377.838,12.900 378.135 C 13.300 378.296,13.300 378.343,12.900 378.368 C 12.281 378.408,12.213 381.471,12.826 381.675 C 13.060 381.753,13.309 382.670,13.380 383.712 C 13.513 385.690,14.113 386.800,15.049 386.800 C 15.352 386.800,15.600 386.980,15.600 387.200 C 15.600 387.420,15.960 387.600,16.400 387.600 C 16.840 387.600,17.203 387.375,17.206 387.100 C 17.210 386.768,17.340 386.802,17.592 387.200 C 17.928 387.732,38.676 387.800,200.400 387.800 C 362.124 387.800,382.872 387.732,383.208 387.200 C 383.460 386.802,383.590 386.768,383.594 387.100 C 383.603 387.881,384.743 387.688,385.717 386.741 C 386.203 386.269,386.347 386.027,386.038 386.203 C 385.670 386.413,385.571 386.370,385.751 386.079 C 385.902 385.835,386.290 385.736,386.613 385.860 C 386.942 385.986,387.225 385.847,387.256 385.543 C 387.287 385.244,387.409 384.280,387.527 383.400 C 387.809 381.308,387.809 19.092,387.527 17.000 C 387.409 16.120,387.287 15.156,387.256 14.857 C 387.225 14.553,386.942 14.414,386.613 14.540 C 386.290 14.664,385.902 14.565,385.751 14.321 C 385.571 14.030,385.670 13.987,386.038 14.197 C 386.347 14.373,386.203 14.131,385.717 13.659 C 384.743 12.712,383.603 12.519,383.594 13.300 C 383.590 13.632,383.460 13.598,383.208 13.200 C 382.836 12.611,20.937 12.107,18.600 12.692 M365.566 30.975 C 368.012 33.193,369.168 34.392,369.554 35.115 C 370.192 36.305,370.192 364.095,369.554 365.285 C 369.168 366.008,368.012 367.207,365.566 369.425 C 364.584 370.317,35.687 370.291,35.345 369.400 C 35.218 369.070,34.898 368.800,34.633 368.800 C 33.979 368.800,31.693 366.522,31.390 365.569 C 31.256 365.146,30.978 364.800,30.773 364.800 C 30.543 364.800,30.400 301.738,30.400 200.200 C 30.400 98.662,30.543 35.600,30.773 35.600 C 30.978 35.600,31.256 35.254,31.390 34.831 C 31.693 33.878,33.979 31.600,34.633 31.600 C 34.898 31.600,35.218 31.330,35.345 31.000 C 35.687 30.109,364.584 30.083,365.566 30.975 M123.024 108.405 C 122.377 108.607,121.693 109.048,121.504 109.386 C 121.315 109.724,120.963 110.000,120.723 110.000 C 120.125 110.000,117.610 112.485,117.604 113.080 C 117.602 113.344,117.371 113.704,117.090 113.880 C 116.810 114.056,116.266 114.695,115.881 115.300 C 115.496 115.905,114.910 116.400,114.578 116.400 C 114.246 116.400,113.871 116.670,113.745 117.000 C 113.618 117.330,113.286 117.600,113.007 117.600 C 112.404 117.600,109.603 120.790,109.601 121.480 C 109.601 121.744,109.285 122.137,108.900 122.352 C 108.114 122.792,108.029 129.670,108.807 129.933 C 109.023 130.007,109.200 130.597,109.200 131.246 C 109.200 132.722,110.095 134.906,111.176 136.066 C 111.629 136.553,112.002 137.052,112.005 137.175 C 112.007 137.299,112.772 137.759,113.705 138.197 C 114.637 138.636,115.638 139.221,115.929 139.497 C 116.219 139.774,116.610 140.000,116.798 140.000 C 116.985 140.000,117.340 140.611,117.586 141.358 C 117.832 142.104,118.476 143.229,119.017 143.858 C 119.557 144.486,120.001 145.090,120.004 145.200 C 120.007 145.310,120.772 145.759,121.705 146.197 C 122.637 146.636,123.638 147.221,123.929 147.497 C 124.219 147.774,124.610 148.000,124.798 148.000 C 124.985 148.000,125.340 148.611,125.586 149.358 C 125.832 150.104,126.476 151.229,127.017 151.858 C 127.557 152.486,128.001 153.090,128.004 153.200 C 128.007 153.310,128.772 153.759,129.705 154.197 C 130.637 154.636,131.638 155.221,131.929 155.497 C 132.219 155.774,132.610 156.000,132.798 156.000 C 132.985 156.000,133.340 156.611,133.586 157.358 C 133.832 158.104,134.476 159.229,135.017 159.858 C 135.557 160.486,136.001 161.090,136.004 161.200 C 136.007 161.310,136.772 161.759,137.705 162.197 C 138.637 162.636,139.638 163.221,139.929 163.497 C 140.219 163.774,140.610 164.000,140.798 164.000 C 140.985 164.000,141.340 164.611,141.586 165.358 C 141.832 166.104,142.476 167.229,143.017 167.858 C 143.557 168.486,144.001 169.090,144.004 169.200 C 144.007 169.310,144.772 169.759,145.705 170.197 C 146.637 170.636,147.638 171.221,147.929 171.497 C 148.219 171.774,148.610 172.000,148.798 172.000 C 148.985 172.000,149.340 172.612,149.586 173.359 C 149.833 174.106,150.403 175.141,150.853 175.659 C 151.302 176.177,151.789 176.780,151.935 177.000 C 152.267 177.501,154.580 178.800,155.141 178.800 C 155.860 178.800,157.464 180.553,157.727 181.626 C 157.865 182.191,158.359 183.091,158.824 183.626 C 159.289 184.162,159.789 184.780,159.935 185.000 C 160.267 185.501,162.580 186.800,163.141 186.800 C 163.860 186.800,165.464 188.553,165.727 189.626 C 165.865 190.191,166.359 191.091,166.824 191.626 C 167.289 192.162,167.789 192.780,167.935 193.000 C 168.273 193.510,170.585 194.800,171.162 194.800 C 172.228 194.800,173.200 196.422,173.200 198.200 C 173.200 199.190,173.020 200.000,172.800 200.000 C 172.580 200.000,172.400 200.987,172.400 202.192 C 172.400 204.197,172.315 204.406,171.400 204.636 C 170.850 204.774,170.400 205.035,170.400 205.216 C 170.400 205.398,169.995 205.672,169.500 205.826 C 168.250 206.214,166.281 208.326,165.607 210.000 C 164.991 211.533,163.783 212.800,162.939 212.800 C 162.642 212.800,162.400 212.968,162.400 213.173 C 162.400 213.378,161.995 213.672,161.500 213.826 C 160.250 214.214,158.281 216.326,157.607 218.000 C 156.991 219.533,155.783 220.800,154.939 220.800 C 154.642 220.800,154.400 220.968,154.400 221.173 C 154.400 221.378,153.995 221.672,153.500 221.826 C 152.250 222.214,150.281 224.326,149.607 226.000 C 148.991 227.533,147.783 228.800,146.939 228.800 C 146.642 228.800,146.400 228.968,146.400 229.173 C 146.400 229.378,145.995 229.672,145.500 229.826 C 144.250 230.214,142.281 232.326,141.607 234.000 C 140.991 235.533,139.783 236.800,138.939 236.800 C 138.642 236.800,138.400 236.968,138.400 237.173 C 138.400 237.378,137.995 237.672,137.500 237.826 C 136.250 238.214,134.281 240.326,133.607 242.000 C 132.991 243.533,131.783 244.800,130.939 244.800 C 130.642 244.800,130.400 244.968,130.400 245.173 C 130.400 245.378,129.995 245.672,129.500 245.826 C 128.250 246.214,126.281 248.326,125.607 250.000 C 124.991 251.533,123.783 252.800,122.939 252.800 C 122.642 252.800,122.400 252.968,122.400 253.173 C 122.400 253.378,121.995 253.672,121.500 253.826 C 120.250 254.214,118.281 256.326,117.607 258.000 C 116.991 259.533,115.783 260.800,114.939 260.800 C 114.642 260.800,114.400 260.968,114.400 261.173 C 114.400 261.378,113.995 261.672,113.500 261.826 C 112.250 262.214,110.281 264.326,109.608 266.000 C 109.299 266.770,108.886 267.509,108.692 267.643 C 107.942 268.157,108.132 277.614,108.900 278.046 C 109.285 278.263,109.600 278.632,109.600 278.867 C 109.600 279.515,112.478 282.248,113.500 282.570 C 113.995 282.726,114.400 283.022,114.400 283.227 C 114.400 283.432,114.642 283.600,114.939 283.600 C 115.786 283.600,116.993 284.870,117.599 286.400 C 118.074 287.598,119.420 289.114,122.000 291.358 C 123.349 292.530,132.248 292.209,133.515 290.942 C 133.813 290.644,134.313 290.400,134.625 290.400 C 134.938 290.400,135.418 290.040,135.693 289.600 C 135.968 289.160,136.406 288.800,136.667 288.800 C 136.928 288.800,137.460 288.080,137.848 287.200 C 138.236 286.320,138.699 285.600,138.877 285.600 C 139.055 285.600,139.206 285.375,139.213 285.100 C 139.238 284.175,140.724 282.795,141.963 282.547 C 143.190 282.302,146.000 280.010,146.000 279.255 C 146.000 279.036,146.227 278.619,146.505 278.329 C 146.782 278.038,147.228 277.305,147.496 276.700 C 147.764 276.095,148.257 275.600,148.591 275.600 C 148.926 275.600,149.200 275.438,149.200 275.239 C 149.200 275.041,149.715 274.699,150.345 274.479 C 151.732 273.996,153.808 272.036,154.182 270.858 C 154.331 270.386,154.622 270.000,154.827 270.000 C 155.032 270.000,155.206 269.685,155.213 269.300 C 155.233 268.244,156.476 266.968,157.811 266.633 C 158.465 266.469,159.720 265.551,160.600 264.593 C 162.904 262.085,163.198 261.693,163.213 261.117 C 163.236 260.223,164.574 258.943,165.811 258.633 C 166.465 258.469,167.720 257.551,168.600 256.593 C 170.904 254.085,171.198 253.693,171.213 253.117 C 171.236 252.223,172.574 250.943,173.811 250.633 C 174.465 250.469,175.720 249.551,176.600 248.593 C 178.904 246.085,179.198 245.693,179.213 245.117 C 179.236 244.223,180.574 242.943,181.811 242.633 C 182.465 242.469,183.720 241.551,184.600 240.593 C 186.904 238.085,187.198 237.693,187.213 237.117 C 187.236 236.223,188.574 234.943,189.811 234.633 C 190.465 234.469,191.720 233.551,192.600 232.593 C 194.924 230.064,195.200 229.692,195.200 229.097 C 195.200 227.899,196.178 227.600,200.106 227.600 C 204.546 227.600,205.397 227.887,205.718 229.491 C 205.841 230.107,206.331 231.058,206.806 231.605 C 207.281 232.152,207.789 232.780,207.935 233.000 C 208.267 233.501,210.580 234.800,211.141 234.800 C 211.877 234.800,213.467 236.564,213.742 237.685 C 214.070 239.026,217.347 242.321,218.686 242.657 C 220.019 242.992,221.419 244.370,221.735 245.657 C 222.054 246.962,225.411 250.337,226.714 250.664 C 228.021 250.993,229.422 252.380,229.735 253.657 C 230.054 254.962,233.411 258.337,234.714 258.664 C 236.021 258.993,237.422 260.380,237.735 261.657 C 238.054 262.962,241.411 266.337,242.714 266.664 C 244.027 266.994,245.422 268.381,245.738 269.672 C 245.883 270.262,246.238 270.982,246.527 271.272 C 246.817 271.562,247.359 272.267,247.732 272.838 C 248.105 273.408,249.128 274.112,250.005 274.402 C 250.882 274.691,251.600 275.067,251.600 275.237 C 251.600 275.407,251.937 275.653,252.350 275.784 C 252.765 275.916,253.409 276.831,253.792 277.835 C 254.691 280.190,257.504 282.800,259.141 282.800 C 259.860 282.800,261.464 284.553,261.726 285.625 C 261.864 286.188,262.432 287.178,262.988 287.825 C 263.544 288.471,264.001 289.090,264.004 289.200 C 264.007 289.310,264.772 289.757,265.705 290.194 C 266.637 290.631,267.490 291.105,267.600 291.248 C 268.393 292.281,277.884 292.368,278.276 291.347 C 278.391 291.046,278.706 290.800,278.976 290.800 C 279.637 290.800,282.400 288.003,282.400 287.333 C 282.400 287.040,282.566 286.800,282.769 286.800 C 282.972 286.800,283.346 286.170,283.600 285.400 C 283.854 284.630,284.305 284.000,284.602 284.000 C 284.900 284.000,285.389 283.754,285.690 283.453 C 285.991 283.152,286.599 282.791,287.040 282.651 C 288.403 282.218,291.043 279.376,291.770 277.558 C 292.815 274.946,292.033 265.600,290.769 265.600 C 290.566 265.600,290.400 265.364,290.400 265.076 C 290.400 264.361,288.136 262.097,287.088 261.764 C 286.620 261.616,285.991 261.248,285.690 260.947 C 285.389 260.646,284.900 260.400,284.602 260.400 C 284.305 260.400,283.854 259.770,283.600 259.000 C 283.346 258.230,282.972 257.600,282.769 257.600 C 282.566 257.600,282.400 257.364,282.400 257.076 C 282.400 256.361,280.136 254.097,279.088 253.764 C 278.620 253.616,277.991 253.248,277.690 252.947 C 277.389 252.646,276.900 252.400,276.602 252.400 C 276.305 252.400,275.854 251.770,275.600 251.000 C 275.346 250.230,274.972 249.600,274.769 249.600 C 274.566 249.600,274.400 249.364,274.400 249.076 C 274.400 248.361,272.136 246.097,271.088 245.764 C 270.620 245.616,269.991 245.248,269.690 244.947 C 269.389 244.646,268.900 244.400,268.602 244.400 C 268.305 244.400,267.854 243.770,267.600 243.000 C 267.346 242.230,266.972 241.600,266.769 241.600 C 266.566 241.600,266.400 241.364,266.400 241.076 C 266.400 240.361,264.136 238.097,263.088 237.764 C 262.620 237.616,261.991 237.248,261.690 236.947 C 261.389 236.646,260.900 236.400,260.602 236.400 C 260.305 236.400,259.854 235.770,259.600 235.000 C 259.346 234.230,258.972 233.600,258.769 233.600 C 258.566 233.600,258.400 233.364,258.400 233.076 C 258.400 232.361,256.136 230.097,255.088 229.764 C 254.620 229.616,253.991 229.248,253.690 228.947 C 253.389 228.646,252.900 228.400,252.602 228.400 C 252.305 228.400,251.854 227.770,251.600 227.000 C 251.346 226.230,250.972 225.600,250.769 225.600 C 250.566 225.600,250.400 225.364,250.400 225.076 C 250.400 224.361,248.136 222.097,247.088 221.764 C 246.620 221.616,245.991 221.248,245.690 220.947 C 245.389 220.646,244.900 220.400,244.602 220.400 C 244.305 220.400,243.854 219.770,243.600 219.000 C 243.346 218.230,242.972 217.600,242.769 217.600 C 242.566 217.600,242.400 217.364,242.400 217.076 C 242.400 216.361,240.136 214.097,239.088 213.764 C 238.620 213.616,237.991 213.248,237.690 212.947 C 237.389 212.646,236.900 212.400,236.602 212.400 C 236.305 212.400,235.854 211.770,235.600 211.000 C 235.346 210.230,234.972 209.600,234.769 209.600 C 234.566 209.600,234.400 209.364,234.400 209.076 C 234.400 208.361,232.136 206.097,231.088 205.764 C 230.620 205.616,229.991 205.248,229.690 204.947 C 229.389 204.646,228.909 204.400,228.623 204.400 C 228.250 204.400,228.024 203.278,227.822 200.441 C 227.501 195.905,227.814 194.999,229.832 194.620 C 231.265 194.351,233.754 192.206,234.176 190.875 C 234.329 190.394,234.622 190.000,234.827 190.000 C 235.032 190.000,235.206 189.685,235.213 189.300 C 235.234 188.211,236.524 186.924,237.896 186.623 C 239.322 186.310,241.765 184.170,242.176 182.875 C 242.329 182.394,242.622 182.000,242.827 182.000 C 243.032 182.000,243.206 181.685,243.213 181.300 C 243.234 180.211,244.524 178.924,245.896 178.623 C 247.322 178.310,249.765 176.170,250.176 174.875 C 250.329 174.394,250.622 174.000,250.827 174.000 C 251.032 174.000,251.206 173.685,251.213 173.300 C 251.234 172.211,252.524 170.924,253.896 170.623 C 255.322 170.310,257.765 168.170,258.176 166.875 C 258.329 166.394,258.622 166.000,258.827 166.000 C 259.032 166.000,259.206 165.685,259.213 165.300 C 259.234 164.211,260.524 162.924,261.896 162.623 C 263.143 162.349,266.000 160.005,266.000 159.255 C 266.000 159.036,266.227 158.619,266.505 158.329 C 266.782 158.038,267.228 157.305,267.496 156.700 C 267.764 156.095,268.257 155.600,268.591 155.600 C 268.926 155.600,269.200 155.438,269.200 155.239 C 269.200 155.041,269.715 154.699,270.345 154.479 C 271.557 154.057,274.000 151.893,274.000 151.242 C 274.000 151.030,274.227 150.619,274.505 150.329 C 274.782 150.038,275.228 149.305,275.496 148.700 C 275.764 148.095,276.257 147.600,276.591 147.600 C 276.926 147.600,277.200 147.438,277.200 147.239 C 277.200 147.041,277.715 146.699,278.345 146.479 C 279.557 146.057,282.000 143.893,282.000 143.242 C 282.000 143.030,282.227 142.619,282.505 142.329 C 282.782 142.038,283.228 141.305,283.496 140.700 C 283.764 140.095,284.257 139.600,284.591 139.600 C 284.926 139.600,285.200 139.438,285.200 139.239 C 285.200 139.041,285.715 138.699,286.345 138.479 C 287.557 138.057,290.000 135.893,290.000 135.242 C 290.000 135.030,290.296 134.561,290.658 134.199 C 291.793 133.064,292.554 124.801,291.716 122.707 C 291.115 121.206,290.777 120.708,289.060 118.800 C 288.287 117.940,287.123 117.036,285.736 116.217 C 285.073 115.825,284.186 114.860,283.765 114.071 C 283.087 112.800,281.921 111.524,279.573 109.479 C 277.937 108.055,268.154 107.845,267.667 109.223 C 267.593 109.430,267.299 109.600,267.012 109.600 C 265.570 109.600,261.919 112.762,261.376 114.480 C 261.080 115.417,259.749 116.800,259.143 116.800 C 257.753 116.800,254.073 121.091,253.398 123.499 C 253.258 124.000,252.716 124.506,252.173 124.642 C 251.638 124.777,251.200 125.028,251.200 125.200 C 251.200 125.372,250.758 125.624,250.217 125.760 C 249.676 125.896,248.750 126.455,248.159 127.003 C 247.567 127.552,246.957 128.000,246.802 128.000 C 246.648 128.000,246.184 128.765,245.773 129.700 C 244.967 131.529,243.805 132.800,242.939 132.800 C 242.642 132.800,242.400 132.950,242.400 133.132 C 242.400 133.315,241.905 133.716,241.300 134.024 C 239.832 134.770,238.187 136.576,237.557 138.133 C 236.983 139.550,235.756 140.800,234.939 140.800 C 234.642 140.800,234.400 140.950,234.400 141.132 C 234.400 141.315,233.905 141.716,233.300 142.024 C 231.832 142.770,230.187 144.576,229.557 146.133 C 228.983 147.550,227.756 148.800,226.939 148.800 C 226.642 148.800,226.400 148.950,226.400 149.132 C 226.400 149.315,225.905 149.716,225.300 150.024 C 223.832 150.770,222.187 152.576,221.557 154.133 C 220.983 155.550,219.756 156.800,218.939 156.800 C 218.642 156.800,218.400 156.950,218.400 157.132 C 218.400 157.315,217.905 157.716,217.300 158.024 C 215.832 158.770,214.187 160.576,213.557 162.133 C 212.983 163.550,211.756 164.800,210.939 164.800 C 210.642 164.800,210.400 164.968,210.400 165.173 C 210.400 165.378,209.995 165.672,209.500 165.826 C 208.253 166.213,206.283 168.323,205.602 170.000 C 204.673 172.289,204.417 172.400,200.060 172.400 L 196.062 172.400 195.600 171.000 C 195.346 170.230,195.013 169.600,194.860 169.600 C 194.707 169.600,194.262 169.006,193.871 168.280 C 193.480 167.555,192.494 166.610,191.680 166.181 C 190.866 165.753,189.962 165.176,189.671 164.901 C 189.381 164.625,188.900 164.400,188.602 164.400 C 188.305 164.400,187.854 163.770,187.600 163.000 C 187.346 162.230,187.013 161.600,186.860 161.600 C 186.707 161.600,186.262 161.006,185.871 160.280 C 185.480 159.555,184.494 158.610,183.680 158.181 C 182.866 157.753,181.962 157.176,181.671 156.901 C 181.381 156.625,180.900 156.400,180.602 156.400 C 180.305 156.400,179.854 155.770,179.600 155.000 C 179.346 154.230,179.013 153.600,178.860 153.600 C 178.707 153.600,178.262 153.006,177.871 152.280 C 177.480 151.555,176.494 150.610,175.680 150.181 C 174.866 149.753,173.962 149.176,173.671 148.901 C 173.381 148.625,172.900 148.400,172.602 148.400 C 172.305 148.400,171.854 147.770,171.600 147.000 C 171.346 146.230,171.013 145.600,170.860 145.600 C 170.707 145.600,170.262 145.006,169.871 144.280 C 169.480 143.555,168.494 142.610,167.680 142.181 C 166.866 141.753,165.962 141.176,165.671 140.901 C 165.381 140.625,164.900 140.400,164.602 140.400 C 164.305 140.400,163.854 139.770,163.600 139.000 C 163.346 138.230,163.013 137.600,162.860 137.600 C 162.707 137.600,162.262 137.006,161.871 136.280 C 161.480 135.555,160.494 134.610,159.680 134.181 C 158.866 133.753,157.962 133.176,157.671 132.901 C 157.381 132.625,156.903 132.400,156.611 132.400 C 156.318 132.400,155.880 131.831,155.637 131.134 C 155.090 129.566,151.613 126.119,150.227 125.771 C 149.662 125.629,149.200 125.353,149.200 125.157 C 149.200 124.960,148.926 124.800,148.591 124.800 C 148.257 124.800,147.764 124.305,147.496 123.700 C 147.228 123.095,146.782 122.362,146.505 122.071 C 146.227 121.781,146.000 121.352,146.000 121.118 C 146.000 120.515,143.101 117.601,142.500 117.600 C 142.225 117.600,142.000 117.423,142.000 117.208 C 142.000 116.992,141.562 116.705,141.026 116.571 C 140.412 116.417,139.895 115.873,139.624 115.098 C 139.136 113.698,135.521 110.000,134.641 110.000 C 134.320 110.000,133.812 109.755,133.513 109.456 C 133.213 109.156,131.715 108.789,130.184 108.639 C 128.653 108.489,126.680 108.293,125.800 108.203 C 124.920 108.112,123.671 108.203,123.024 108.405 M133.615 115.200 C 134.037 115.750,134.386 116.515,134.391 116.900 C 134.396 117.285,134.559 117.600,134.754 117.600 C 134.949 117.600,135.408 118.230,135.773 119.000 C 136.139 119.770,136.596 120.400,136.790 120.400 C 136.984 120.400,137.383 120.625,137.678 120.900 C 137.972 121.175,138.866 121.733,139.665 122.141 C 140.510 122.572,141.428 123.488,141.859 124.330 C 142.745 126.062,143.126 126.602,144.262 127.738 C 145.652 129.128,146.163 129.460,147.690 129.964 C 149.143 130.443,150.400 131.845,150.400 132.986 C 150.400 133.324,150.559 133.600,150.754 133.600 C 150.949 133.600,151.408 134.230,151.773 135.000 C 152.139 135.770,152.690 136.400,152.999 136.400 C 153.308 136.400,153.704 136.645,153.880 136.943 C 154.056 137.242,154.873 137.705,155.695 137.973 C 156.604 138.268,157.460 138.917,157.881 139.629 C 158.261 140.273,158.714 140.800,158.886 140.800 C 159.059 140.800,159.200 141.138,159.200 141.552 C 159.200 142.563,162.024 145.419,163.354 145.753 C 163.940 145.900,164.731 146.349,165.110 146.750 C 166.511 148.231,167.200 149.223,167.200 149.756 C 167.200 150.604,170.162 153.453,171.354 153.753 C 171.940 153.900,172.731 154.349,173.110 154.750 C 174.511 156.231,175.200 157.223,175.200 157.756 C 175.200 158.604,178.162 161.453,179.354 161.753 C 179.940 161.900,180.731 162.349,181.110 162.750 C 182.511 164.231,183.200 165.223,183.200 165.756 C 183.200 166.604,186.162 169.453,187.354 169.753 C 187.940 169.900,188.731 170.349,189.110 170.750 C 190.504 172.225,191.200 173.222,191.200 173.746 C 191.200 174.298,192.323 175.588,194.032 177.000 C 195.366 178.102,204.697 178.446,205.712 177.431 C 206.059 177.084,206.513 176.800,206.721 176.800 C 207.245 176.800,209.600 173.985,209.600 173.358 C 209.600 172.578,212.070 170.119,213.190 169.785 C 214.480 169.399,217.585 166.394,217.593 165.522 C 217.602 164.605,219.964 162.151,221.190 161.785 C 222.480 161.399,225.585 158.394,225.593 157.522 C 225.602 156.605,227.964 154.151,229.190 153.785 C 230.480 153.399,233.585 150.394,233.593 149.522 C 233.602 148.605,235.964 146.151,237.190 145.785 C 238.480 145.399,241.585 142.394,241.593 141.522 C 241.602 140.605,243.964 138.151,245.190 137.785 C 246.480 137.399,249.585 134.394,249.593 133.522 C 249.603 132.536,252.018 130.136,253.300 129.840 C 253.905 129.699,254.400 129.408,254.400 129.192 C 254.400 128.977,254.625 128.794,254.900 128.787 C 255.758 128.764,257.191 127.319,257.799 125.864 C 258.523 124.131,260.308 122.180,261.500 121.819 C 261.995 121.669,262.400 121.399,262.400 121.220 C 262.400 121.040,262.759 120.799,263.198 120.685 C 263.637 120.570,264.118 120.158,264.267 119.769 C 264.417 119.379,264.868 118.732,265.269 118.331 C 265.671 117.929,266.000 117.314,266.000 116.964 C 266.000 112.438,278.204 112.778,279.348 117.335 C 279.624 118.435,281.895 120.800,282.676 120.800 C 282.964 120.800,283.200 120.977,283.200 121.192 C 283.200 121.408,283.651 121.698,284.202 121.836 C 287.926 122.771,286.954 133.095,283.019 134.394 C 282.239 134.651,281.600 135.007,281.600 135.184 C 281.600 135.362,281.242 135.600,280.805 135.715 C 280.367 135.829,279.816 136.431,279.580 137.053 C 279.343 137.675,279.026 138.277,278.875 138.392 C 278.724 138.506,278.259 139.270,277.843 140.089 C 277.283 141.190,276.633 141.751,275.343 142.243 C 274.384 142.609,273.600 143.043,273.600 143.208 C 273.600 143.372,273.242 143.600,272.805 143.715 C 272.367 143.829,271.816 144.431,271.580 145.053 C 271.343 145.675,271.026 146.277,270.875 146.392 C 270.724 146.506,270.259 147.270,269.843 148.089 C 269.283 149.190,268.633 149.751,267.343 150.243 C 266.384 150.609,265.600 151.043,265.600 151.208 C 265.600 151.372,265.242 151.600,264.805 151.715 C 264.367 151.829,263.816 152.431,263.580 153.053 C 263.343 153.675,263.026 154.277,262.875 154.392 C 262.724 154.506,262.268 155.254,261.862 156.053 C 261.160 157.436,259.821 158.400,258.601 158.400 C 258.292 158.400,257.896 158.639,257.720 158.930 C 257.544 159.222,257.082 159.577,256.694 159.720 C 256.306 159.863,255.815 160.434,255.604 160.990 C 255.393 161.545,255.058 162.000,254.860 162.000 C 254.662 162.000,254.400 162.495,254.277 163.100 C 253.988 164.529,252.661 165.924,251.289 166.243 C 250.690 166.382,250.020 166.711,249.800 166.973 C 249.580 167.235,249.082 167.569,248.694 167.715 C 248.306 167.860,247.815 168.434,247.604 168.990 C 247.393 169.545,247.058 170.000,246.860 170.000 C 246.662 170.000,246.400 170.495,246.277 171.100 C 245.988 172.529,244.661 173.924,243.289 174.243 C 242.690 174.382,242.020 174.711,241.800 174.973 C 241.580 175.235,241.082 175.569,240.694 175.715 C 240.306 175.860,239.815 176.434,239.604 176.990 C 239.393 177.545,239.058 178.000,238.860 178.000 C 238.662 178.000,238.400 178.495,238.277 179.100 C 237.988 180.529,236.661 181.924,235.289 182.243 C 234.690 182.382,234.020 182.711,233.800 182.973 C 233.580 183.235,233.082 183.569,232.694 183.715 C 232.306 183.860,231.815 184.434,231.604 184.990 C 231.393 185.545,231.035 186.000,230.810 186.000 C 230.584 186.000,230.400 186.287,230.400 186.638 C 230.400 187.966,229.007 189.608,227.340 190.244 C 226.411 190.599,225.555 191.139,225.438 191.445 C 225.321 191.750,224.962 192.000,224.640 192.000 C 224.317 192.000,223.940 192.359,223.801 192.798 C 223.662 193.236,223.244 193.899,222.874 194.270 C 222.179 194.966,222.043 204.278,222.721 204.789 C 222.874 204.905,223.312 205.675,223.694 206.500 C 224.075 207.325,224.536 208.000,224.718 208.000 C 224.900 208.000,225.398 208.315,225.825 208.700 C 226.251 209.085,227.275 209.712,228.100 210.094 C 228.925 210.475,229.600 210.936,229.600 211.118 C 229.600 211.300,229.915 211.798,230.300 212.225 C 230.685 212.651,231.312 213.675,231.694 214.500 C 232.075 215.325,232.536 216.000,232.718 216.000 C 232.900 216.000,233.398 216.315,233.825 216.700 C 234.251 217.085,235.275 217.712,236.100 218.094 C 236.925 218.475,237.600 218.936,237.600 219.118 C 237.600 219.300,237.915 219.798,238.300 220.225 C 238.685 220.651,239.312 221.675,239.694 222.500 C 240.075 223.325,240.536 224.000,240.718 224.000 C 240.900 224.000,241.398 224.315,241.825 224.700 C 242.251 225.085,243.275 225.712,244.100 226.094 C 244.925 226.475,245.600 226.936,245.600 227.118 C 245.600 227.300,245.915 227.798,246.300 228.225 C 246.685 228.651,247.312 229.675,247.694 230.500 C 248.075 231.325,248.536 232.000,248.718 232.000 C 248.900 232.000,249.398 232.315,249.825 232.700 C 250.251 233.085,251.275 233.712,252.100 234.094 C 252.925 234.475,253.600 234.936,253.600 235.118 C 253.600 235.300,253.915 235.798,254.300 236.225 C 254.685 236.651,255.312 237.675,255.694 238.500 C 256.075 239.325,256.536 240.000,256.718 240.000 C 256.900 240.000,257.398 240.315,257.825 240.700 C 258.251 241.085,259.275 241.712,260.100 242.094 C 260.925 242.475,261.600 242.936,261.600 243.118 C 261.600 243.300,261.915 243.798,262.300 244.225 C 262.685 244.651,263.312 245.675,263.694 246.500 C 264.075 247.325,264.536 248.000,264.718 248.000 C 264.900 248.000,265.398 248.315,265.825 248.700 C 266.251 249.085,267.275 249.712,268.100 250.094 C 268.925 250.475,269.600 250.936,269.600 251.118 C 269.600 251.300,269.915 251.798,270.300 252.225 C 270.685 252.651,271.312 253.675,271.694 254.500 C 272.075 255.325,272.536 256.000,272.718 256.000 C 272.900 256.000,273.398 256.315,273.825 256.700 C 274.251 257.085,275.275 257.712,276.100 258.094 C 276.925 258.475,277.600 258.936,277.600 259.118 C 277.600 259.300,277.922 259.798,278.315 260.225 C 278.708 260.651,279.271 261.589,279.567 262.308 C 279.862 263.027,280.620 263.921,281.252 264.294 C 281.883 264.667,282.400 265.094,282.400 265.243 C 282.400 265.392,282.865 265.630,283.434 265.773 C 287.486 266.790,287.839 276.820,283.881 278.445 C 283.176 278.734,282.251 279.292,281.825 279.685 C 281.398 280.078,280.813 280.400,280.525 280.400 C 280.236 280.400,280.000 280.636,280.000 280.925 C 280.000 281.213,279.640 281.836,279.200 282.308 C 278.760 282.780,278.400 283.418,278.400 283.725 C 278.400 284.032,277.951 284.768,277.402 285.360 C 275.163 287.776,266.000 285.817,266.000 282.923 C 266.000 282.228,265.132 280.685,264.520 280.291 C 264.256 280.121,263.806 279.754,263.520 279.474 C 263.234 279.195,262.370 278.715,261.600 278.407 C 259.892 277.725,258.576 276.395,257.819 274.584 C 257.098 272.858,255.317 271.107,253.562 270.399 C 251.772 269.676,250.384 268.174,249.906 266.444 C 249.431 264.723,247.660 263.012,245.686 262.367 C 243.845 261.766,242.413 260.279,241.906 258.444 C 241.431 256.723,239.660 255.012,237.686 254.367 C 235.845 253.766,234.413 252.279,233.906 250.444 C 233.431 248.723,231.660 247.012,229.686 246.367 C 227.845 245.766,226.413 244.279,225.906 242.444 C 225.430 240.721,223.658 239.011,221.686 238.370 C 220.215 237.893,218.000 235.872,218.000 235.008 C 218.000 234.077,216.966 232.412,216.100 231.948 C 215.605 231.682,215.200 231.329,215.200 231.163 C 215.200 230.998,214.525 230.643,213.700 230.375 C 211.854 229.776,210.298 228.115,209.600 225.999 C 209.309 225.120,208.921 224.400,208.736 224.400 C 208.551 224.400,208.083 224.085,207.695 223.700 C 205.613 221.635,193.600 221.202,193.600 223.192 C 193.600 223.365,193.242 223.600,192.805 223.715 C 192.367 223.829,191.832 224.390,191.615 224.961 C 191.398 225.533,191.058 226.000,190.860 226.000 C 190.662 226.000,190.400 226.495,190.277 227.100 C 189.976 228.591,188.686 229.883,187.050 230.335 C 185.530 230.755,183.200 232.650,183.200 233.466 C 183.200 233.760,183.043 234.000,182.850 234.000 C 182.658 234.000,182.400 234.495,182.277 235.100 C 181.976 236.591,180.686 237.883,179.050 238.335 C 177.530 238.755,175.200 240.650,175.200 241.466 C 175.200 241.760,175.043 242.000,174.850 242.000 C 174.658 242.000,174.400 242.495,174.277 243.100 C 173.976 244.591,172.686 245.883,171.050 246.335 C 169.530 246.755,167.200 248.650,167.200 249.466 C 167.200 249.760,167.043 250.000,166.850 250.000 C 166.658 250.000,166.400 250.495,166.277 251.100 C 165.976 252.591,164.686 253.883,163.050 254.335 C 161.530 254.755,159.200 256.650,159.200 257.466 C 159.200 257.760,159.043 258.000,158.850 258.000 C 158.658 258.000,158.400 258.495,158.277 259.100 C 157.976 260.591,156.686 261.883,155.050 262.335 C 153.530 262.755,151.200 264.650,151.200 265.466 C 151.200 265.760,151.020 266.000,150.800 266.000 C 150.580 266.000,150.400 266.287,150.400 266.638 C 150.400 267.975,149.006 269.608,147.314 270.254 C 146.371 270.614,145.600 271.064,145.600 271.254 C 145.600 271.444,145.335 271.600,145.010 271.600 C 144.686 271.600,144.121 272.185,143.754 272.900 C 143.388 273.615,142.978 274.290,142.844 274.400 C 142.710 274.510,142.268 275.254,141.862 276.053 C 141.153 277.449,139.819 278.400,138.569 278.400 C 138.242 278.400,137.878 278.652,137.760 278.961 C 137.641 279.269,137.198 279.612,136.774 279.723 C 136.351 279.833,135.884 280.256,135.738 280.662 C 135.592 281.068,135.141 281.722,134.736 282.116 C 134.331 282.509,134.000 283.150,134.000 283.540 C 134.000 285.252,132.688 285.866,128.395 286.161 L 124.310 286.443 123.166 285.321 C 122.537 284.705,122.017 283.885,122.011 283.500 C 122.005 283.115,121.640 282.440,121.200 282.000 C 120.760 281.560,120.400 281.050,120.400 280.868 C 120.400 280.685,119.905 280.280,119.300 279.968 C 118.695 279.655,117.962 279.175,117.671 278.900 C 117.381 278.625,116.930 278.400,116.670 278.400 C 112.625 278.400,113.012 267.079,117.100 265.823 C 117.595 265.671,118.000 265.378,118.000 265.173 C 118.000 264.968,118.247 264.800,118.549 264.800 C 119.202 264.800,121.600 262.094,121.600 261.358 C 121.600 260.607,124.052 258.124,125.100 257.813 C 125.595 257.666,126.000 257.378,126.000 257.173 C 126.000 256.968,126.247 256.800,126.549 256.800 C 127.202 256.800,129.600 254.094,129.600 253.358 C 129.600 252.607,132.052 250.124,133.100 249.813 C 133.595 249.666,134.000 249.378,134.000 249.173 C 134.000 248.968,134.247 248.800,134.549 248.800 C 135.202 248.800,137.600 246.094,137.600 245.358 C 137.600 244.607,140.052 242.124,141.100 241.813 C 141.595 241.666,142.000 241.378,142.000 241.173 C 142.000 240.968,142.247 240.800,142.549 240.800 C 143.202 240.800,145.600 238.094,145.600 237.358 C 145.600 236.607,148.052 234.124,149.100 233.813 C 149.595 233.666,150.000 233.378,150.000 233.173 C 150.000 232.968,150.247 232.800,150.549 232.800 C 151.202 232.800,153.600 230.094,153.600 229.358 C 153.600 228.607,156.052 226.124,157.100 225.813 C 157.595 225.666,158.000 225.378,158.000 225.173 C 158.000 224.968,158.247 224.800,158.549 224.800 C 159.202 224.800,161.600 222.094,161.600 221.358 C 161.600 220.607,164.052 218.124,165.100 217.813 C 165.595 217.666,166.000 217.378,166.000 217.173 C 166.000 216.968,166.247 216.800,166.549 216.800 C 167.202 216.800,169.600 214.094,169.600 213.358 C 169.600 212.607,172.052 210.124,173.100 209.813 C 173.595 209.666,174.000 209.378,174.000 209.173 C 174.000 208.968,174.247 208.800,174.549 208.800 C 175.410 208.800,177.565 206.022,177.771 204.645 C 179.031 196.244,177.817 192.112,173.591 190.413 C 172.152 189.835,170.000 187.794,170.000 187.008 C 170.000 186.077,168.966 184.412,168.100 183.948 C 167.605 183.682,167.200 183.329,167.200 183.163 C 167.200 182.998,166.525 182.643,165.700 182.375 C 164.217 181.893,162.000 179.876,162.000 179.008 C 162.000 178.077,160.966 176.412,160.100 175.948 C 159.605 175.682,159.200 175.329,159.200 175.163 C 159.200 174.998,158.525 174.643,157.700 174.375 C 155.854 173.776,154.298 172.115,153.600 169.999 C 153.309 169.120,152.955 168.400,152.811 168.400 C 152.668 168.400,152.202 168.078,151.775 167.685 C 151.349 167.292,150.370 166.719,149.600 166.412 C 147.788 165.690,146.263 164.007,145.600 161.999 C 145.309 161.120,144.955 160.400,144.811 160.400 C 144.668 160.400,144.202 160.078,143.775 159.685 C 143.349 159.292,142.370 158.719,141.600 158.412 C 139.788 157.690,138.263 156.007,137.600 153.999 C 137.309 153.120,136.955 152.400,136.811 152.400 C 136.668 152.400,136.202 152.078,135.775 151.685 C 135.349 151.292,134.370 150.719,133.600 150.412 C 131.788 149.690,130.263 148.007,129.600 145.999 C 129.309 145.120,128.955 144.400,128.811 144.400 C 128.668 144.400,128.202 144.078,127.775 143.685 C 127.349 143.292,126.370 142.719,125.600 142.412 C 123.788 141.690,122.263 140.007,121.600 137.999 C 121.309 137.120,120.955 136.400,120.811 136.400 C 120.668 136.400,120.202 136.078,119.775 135.685 C 119.349 135.292,118.370 134.718,117.600 134.409 C 113.558 132.790,112.342 123.979,115.909 122.152 C 118.576 120.787,121.600 117.954,121.600 116.822 C 121.600 113.918,131.595 112.569,133.615 115.200 " stroke="none" fill="#6b8cbd" fill-rule="evenodd"></path><path id="path3" d="M35.345 31.000 C 35.218 31.330,34.898 31.600,34.633 31.600 C 33.979 31.600,31.693 33.878,31.390 34.831 C 31.256 35.254,30.978 35.600,30.773 35.600 C 30.543 35.600,30.400 98.662,30.400 200.200 C 30.400 301.738,30.543 364.800,30.773 364.800 C 30.978 364.800,31.256 365.146,31.390 365.569 C 31.693 366.522,33.979 368.800,34.633 368.800 C 34.898 368.800,35.218 369.070,35.345 369.400 C 35.687 370.291,364.584 370.317,365.566 369.425 C 368.012 367.207,369.168 366.008,369.554 365.285 C 370.192 364.095,370.192 36.305,369.554 35.115 C 369.168 34.392,368.012 33.193,365.566 30.975 C 364.584 30.083,35.687 30.109,35.345 31.000 M130.184 108.639 C 131.715 108.789,133.213 109.156,133.513 109.456 C 133.812 109.755,134.320 110.000,134.641 110.000 C 135.521 110.000,139.136 113.698,139.624 115.098 C 139.895 115.873,140.412 116.417,141.026 116.571 C 141.562 116.705,142.000 116.992,142.000 117.208 C 142.000 117.423,142.225 117.600,142.500 117.600 C 143.101 117.601,146.000 120.515,146.000 121.118 C 146.000 121.352,146.227 121.781,146.505 122.071 C 146.782 122.362,147.228 123.095,147.496 123.700 C 147.764 124.305,148.257 124.800,148.591 124.800 C 148.926 124.800,149.200 124.960,149.200 125.157 C 149.200 125.353,149.662 125.629,150.227 125.771 C 151.613 126.119,155.090 129.566,155.637 131.134 C 155.880 131.831,156.318 132.400,156.611 132.400 C 156.903 132.400,157.381 132.625,157.671 132.901 C 157.962 133.176,158.866 133.753,159.680 134.181 C 160.494 134.610,161.480 135.555,161.871 136.280 C 162.262 137.006,162.707 137.600,162.860 137.600 C 163.013 137.600,163.346 138.230,163.600 139.000 C 163.854 139.770,164.305 140.400,164.602 140.400 C 164.900 140.400,165.381 140.625,165.671 140.901 C 165.962 141.176,166.866 141.753,167.680 142.181 C 168.494 142.610,169.480 143.555,169.871 144.280 C 170.262 145.006,170.707 145.600,170.860 145.600 C 171.013 145.600,171.346 146.230,171.600 147.000 C 171.854 147.770,172.305 148.400,172.602 148.400 C 172.900 148.400,173.381 148.625,173.671 148.901 C 173.962 149.176,174.866 149.753,175.680 150.181 C 176.494 150.610,177.480 151.555,177.871 152.280 C 178.262 153.006,178.707 153.600,178.860 153.600 C 179.013 153.600,179.346 154.230,179.600 155.000 C 179.854 155.770,180.305 156.400,180.602 156.400 C 180.900 156.400,181.381 156.625,181.671 156.901 C 181.962 157.176,182.866 157.753,183.680 158.181 C 184.494 158.610,185.480 159.555,185.871 160.280 C 186.262 161.006,186.707 161.600,186.860 161.600 C 187.013 161.600,187.346 162.230,187.600 163.000 C 187.854 163.770,188.305 164.400,188.602 164.400 C 188.900 164.400,189.381 164.625,189.671 164.901 C 189.962 165.176,190.866 165.753,191.680 166.181 C 192.494 166.610,193.480 167.555,193.871 168.280 C 194.262 169.006,194.707 169.600,194.860 169.600 C 195.013 169.600,195.346 170.230,195.600 171.000 L 196.062 172.400 200.060 172.400 C 204.417 172.400,204.673 172.289,205.602 170.000 C 206.283 168.323,208.253 166.213,209.500 165.826 C 209.995 165.672,210.400 165.378,210.400 165.173 C 210.400 164.968,210.642 164.800,210.939 164.800 C 211.756 164.800,212.983 163.550,213.557 162.133 C 214.187 160.576,215.832 158.770,217.300 158.024 C 217.905 157.716,218.400 157.315,218.400 157.132 C 218.400 156.950,218.642 156.800,218.939 156.800 C 219.756 156.800,220.983 155.550,221.557 154.133 C 222.187 152.576,223.832 150.770,225.300 150.024 C 225.905 149.716,226.400 149.315,226.400 149.132 C 226.400 148.950,226.642 148.800,226.939 148.800 C 227.756 148.800,228.983 147.550,229.557 146.133 C 230.187 144.576,231.832 142.770,233.300 142.024 C 233.905 141.716,234.400 141.315,234.400 141.132 C 234.400 140.950,234.642 140.800,234.939 140.800 C 235.756 140.800,236.983 139.550,237.557 138.133 C 238.187 136.576,239.832 134.770,241.300 134.024 C 241.905 133.716,242.400 133.315,242.400 133.132 C 242.400 132.950,242.642 132.800,242.939 132.800 C 243.805 132.800,244.967 131.529,245.773 129.700 C 246.184 128.765,246.648 128.000,246.802 128.000 C 246.957 128.000,247.567 127.552,248.159 127.003 C 248.750 126.455,249.676 125.896,250.217 125.760 C 250.758 125.624,251.200 125.372,251.200 125.200 C 251.200 125.028,251.638 124.777,252.173 124.642 C 252.716 124.506,253.258 124.000,253.398 123.499 C 254.073 121.091,257.753 116.800,259.143 116.800 C 259.749 116.800,261.080 115.417,261.376 114.480 C 261.919 112.762,265.570 109.600,267.012 109.600 C 267.299 109.600,267.593 109.430,267.667 109.223 C 268.154 107.845,277.937 108.055,279.573 109.479 C 281.921 111.524,283.087 112.800,283.765 114.071 C 284.186 114.860,285.073 115.825,285.736 116.217 C 287.123 117.036,288.287 117.940,289.060 118.800 C 290.777 120.708,291.115 121.206,291.716 122.707 C 292.554 124.801,291.793 133.064,290.658 134.199 C 290.296 134.561,290.000 135.030,290.000 135.242 C 290.000 135.893,287.557 138.057,286.345 138.479 C 285.715 138.699,285.200 139.041,285.200 139.239 C 285.200 139.438,284.926 139.600,284.591 139.600 C 284.257 139.600,283.764 140.095,283.496 140.700 C 283.228 141.305,282.782 142.038,282.505 142.329 C 282.227 142.619,282.000 143.030,282.000 143.242 C 282.000 143.893,279.557 146.057,278.345 146.479 C 277.715 146.699,277.200 147.041,277.200 147.239 C 277.200 147.438,276.926 147.600,276.591 147.600 C 276.257 147.600,275.764 148.095,275.496 148.700 C 275.228 149.305,274.782 150.038,274.505 150.329 C 274.227 150.619,274.000 151.030,274.000 151.242 C 274.000 151.893,271.557 154.057,270.345 154.479 C 269.715 154.699,269.200 155.041,269.200 155.239 C 269.200 155.438,268.926 155.600,268.591 155.600 C 268.257 155.600,267.764 156.095,267.496 156.700 C 267.228 157.305,266.782 158.038,266.505 158.329 C 266.227 158.619,266.000 159.036,266.000 159.255 C 266.000 160.005,263.143 162.349,261.896 162.623 C 260.524 162.924,259.234 164.211,259.213 165.300 C 259.206 165.685,259.032 166.000,258.827 166.000 C 258.622 166.000,258.329 166.394,258.176 166.875 C 257.765 168.170,255.322 170.310,253.896 170.623 C 252.524 170.924,251.234 172.211,251.213 173.300 C 251.206 173.685,251.032 174.000,250.827 174.000 C 250.622 174.000,250.329 174.394,250.176 174.875 C 249.765 176.170,247.322 178.310,245.896 178.623 C 244.524 178.924,243.234 180.211,243.213 181.300 C 243.206 181.685,243.032 182.000,242.827 182.000 C 242.622 182.000,242.329 182.394,242.176 182.875 C 241.765 184.170,239.322 186.310,237.896 186.623 C 236.524 186.924,235.234 188.211,235.213 189.300 C 235.206 189.685,235.032 190.000,234.827 190.000 C 234.622 190.000,234.329 190.394,234.176 190.875 C 233.754 192.206,231.265 194.351,229.832 194.620 C 227.814 194.999,227.501 195.905,227.822 200.441 C 228.024 203.278,228.250 204.400,228.623 204.400 C 228.909 204.400,229.389 204.646,229.690 204.947 C 229.991 205.248,230.620 205.616,231.088 205.764 C 232.136 206.097,234.400 208.361,234.400 209.076 C 234.400 209.364,234.566 209.600,234.769 209.600 C 234.972 209.600,235.346 210.230,235.600 211.000 C 235.854 211.770,236.305 212.400,236.602 212.400 C 236.900 212.400,237.389 212.646,237.690 212.947 C 237.991 213.248,238.620 213.616,239.088 213.764 C 240.136 214.097,242.400 216.361,242.400 217.076 C 242.400 217.364,242.566 217.600,242.769 217.600 C 242.972 217.600,243.346 218.230,243.600 219.000 C 243.854 219.770,244.305 220.400,244.602 220.400 C 244.900 220.400,245.389 220.646,245.690 220.947 C 245.991 221.248,246.620 221.616,247.088 221.764 C 248.136 222.097,250.400 224.361,250.400 225.076 C 250.400 225.364,250.566 225.600,250.769 225.600 C 250.972 225.600,251.346 226.230,251.600 227.000 C 251.854 227.770,252.305 228.400,252.602 228.400 C 252.900 228.400,253.389 228.646,253.690 228.947 C 253.991 229.248,254.620 229.616,255.088 229.764 C 256.136 230.097,258.400 232.361,258.400 233.076 C 258.400 233.364,258.566 233.600,258.769 233.600 C 258.972 233.600,259.346 234.230,259.600 235.000 C 259.854 235.770,260.305 236.400,260.602 236.400 C 260.900 236.400,261.389 236.646,261.690 236.947 C 261.991 237.248,262.620 237.616,263.088 237.764 C 264.136 238.097,266.400 240.361,266.400 241.076 C 266.400 241.364,266.566 241.600,266.769 241.600 C 266.972 241.600,267.346 242.230,267.600 243.000 C 267.854 243.770,268.305 244.400,268.602 244.400 C 268.900 244.400,269.389 244.646,269.690 244.947 C 269.991 245.248,270.620 245.616,271.088 245.764 C 272.136 246.097,274.400 248.361,274.400 249.076 C 274.400 249.364,274.566 249.600,274.769 249.600 C 274.972 249.600,275.346 250.230,275.600 251.000 C 275.854 251.770,276.305 252.400,276.602 252.400 C 276.900 252.400,277.389 252.646,277.690 252.947 C 277.991 253.248,278.620 253.616,279.088 253.764 C 280.136 254.097,282.400 256.361,282.400 257.076 C 282.400 257.364,282.566 257.600,282.769 257.600 C 282.972 257.600,283.346 258.230,283.600 259.000 C 283.854 259.770,284.305 260.400,284.602 260.400 C 284.900 260.400,285.389 260.646,285.690 260.947 C 285.991 261.248,286.620 261.616,287.088 261.764 C 288.136 262.097,290.400 264.361,290.400 265.076 C 290.400 265.364,290.566 265.600,290.769 265.600 C 292.033 265.600,292.815 274.946,291.770 277.558 C 291.043 279.376,288.403 282.218,287.040 282.651 C 286.599 282.791,285.991 283.152,285.690 283.453 C 285.389 283.754,284.900 284.000,284.602 284.000 C 284.305 284.000,283.854 284.630,283.600 285.400 C 283.346 286.170,282.972 286.800,282.769 286.800 C 282.566 286.800,282.400 287.040,282.400 287.333 C 282.400 288.003,279.637 290.800,278.976 290.800 C 278.706 290.800,278.391 291.046,278.276 291.347 C 277.884 292.368,268.393 292.281,267.600 291.248 C 267.490 291.105,266.637 290.631,265.705 290.194 C 264.772 289.757,264.007 289.310,264.004 289.200 C 264.001 289.090,263.544 288.471,262.988 287.825 C 262.432 287.178,261.864 286.188,261.726 285.625 C 261.464 284.553,259.860 282.800,259.141 282.800 C 257.504 282.800,254.691 280.190,253.792 277.835 C 253.409 276.831,252.765 275.916,252.350 275.784 C 251.937 275.653,251.600 275.407,251.600 275.237 C 251.600 275.067,250.882 274.691,250.005 274.402 C 249.128 274.112,248.105 273.408,247.732 272.838 C 247.359 272.267,246.817 271.562,246.527 271.272 C 246.238 270.982,245.883 270.262,245.738 269.672 C 245.422 268.381,244.027 266.994,242.714 266.664 C 241.411 266.337,238.054 262.962,237.735 261.657 C 237.422 260.380,236.021 258.993,234.714 258.664 C 233.411 258.337,230.054 254.962,229.735 253.657 C 229.422 252.380,228.021 250.993,226.714 250.664 C 225.411 250.337,222.054 246.962,221.735 245.657 C 221.419 244.370,220.019 242.992,218.686 242.657 C 217.347 242.321,214.070 239.026,213.742 237.685 C 213.467 236.564,211.877 234.800,211.141 234.800 C 210.580 234.800,208.267 233.501,207.935 233.000 C 207.789 232.780,207.281 232.152,206.806 231.605 C 206.331 231.058,205.841 230.107,205.718 229.491 C 205.213 226.965,195.200 226.590,195.200 229.097 C 195.200 229.692,194.924 230.064,192.600 232.593 C 191.720 233.551,190.465 234.469,189.811 234.633 C 188.574 234.943,187.236 236.223,187.213 237.117 C 187.198 237.693,186.904 238.085,184.600 240.593 C 183.720 241.551,182.465 242.469,181.811 242.633 C 180.574 242.943,179.236 244.223,179.213 245.117 C 179.198 245.693,178.904 246.085,176.600 248.593 C 175.720 249.551,174.465 250.469,173.811 250.633 C 172.574 250.943,171.236 252.223,171.213 253.117 C 171.198 253.693,170.904 254.085,168.600 256.593 C 167.720 257.551,166.465 258.469,165.811 258.633 C 164.574 258.943,163.236 260.223,163.213 261.117 C 163.198 261.693,162.904 262.085,160.600 264.593 C 159.720 265.551,158.465 266.469,157.811 266.633 C 156.476 266.968,155.233 268.244,155.213 269.300 C 155.206 269.685,155.032 270.000,154.827 270.000 C 154.622 270.000,154.331 270.386,154.182 270.858 C 153.808 272.036,151.732 273.996,150.345 274.479 C 149.715 274.699,149.200 275.041,149.200 275.239 C 149.200 275.438,148.926 275.600,148.591 275.600 C 148.257 275.600,147.764 276.095,147.496 276.700 C 147.228 277.305,146.782 278.038,146.505 278.329 C 146.227 278.619,146.000 279.036,146.000 279.255 C 146.000 280.010,143.190 282.302,141.963 282.547 C 140.724 282.795,139.238 284.175,139.213 285.100 C 139.206 285.375,139.055 285.600,138.877 285.600 C 138.699 285.600,138.236 286.320,137.848 287.200 C 137.460 288.080,136.928 288.800,136.667 288.800 C 136.406 288.800,135.968 289.160,135.693 289.600 C 135.418 290.040,134.938 290.400,134.625 290.400 C 134.313 290.400,133.813 290.644,133.515 290.942 C 132.248 292.209,123.349 292.530,122.000 291.358 C 119.420 289.114,118.074 287.598,117.599 286.400 C 116.993 284.870,115.786 283.600,114.939 283.600 C 114.642 283.600,114.400 283.432,114.400 283.227 C 114.400 283.022,113.995 282.726,113.500 282.570 C 112.478 282.248,109.600 279.515,109.600 278.867 C 109.600 278.632,109.285 278.263,108.900 278.046 C 108.132 277.614,107.942 268.157,108.692 267.643 C 108.886 267.509,109.299 266.770,109.608 266.000 C 110.281 264.326,112.250 262.214,113.500 261.826 C 113.995 261.672,114.400 261.378,114.400 261.173 C 114.400 260.968,114.642 260.800,114.939 260.800 C 115.783 260.800,116.991 259.533,117.607 258.000 C 118.281 256.326,120.250 254.214,121.500 253.826 C 121.995 253.672,122.400 253.378,122.400 253.173 C 122.400 252.968,122.642 252.800,122.939 252.800 C 123.783 252.800,124.991 251.533,125.607 250.000 C 126.281 248.326,128.250 246.214,129.500 245.826 C 129.995 245.672,130.400 245.378,130.400 245.173 C 130.400 244.968,130.642 244.800,130.939 244.800 C 131.783 244.800,132.991 243.533,133.607 242.000 C 134.281 240.326,136.250 238.214,137.500 237.826 C 137.995 237.672,138.400 237.378,138.400 237.173 C 138.400 236.968,138.642 236.800,138.939 236.800 C 139.783 236.800,140.991 235.533,141.607 234.000 C 142.281 232.326,144.250 230.214,145.500 229.826 C 145.995 229.672,146.400 229.378,146.400 229.173 C 146.400 228.968,146.642 228.800,146.939 228.800 C 147.783 228.800,148.991 227.533,149.607 226.000 C 150.281 224.326,152.250 222.214,153.500 221.826 C 153.995 221.672,154.400 221.378,154.400 221.173 C 154.400 220.968,154.642 220.800,154.939 220.800 C 155.783 220.800,156.991 219.533,157.607 218.000 C 158.281 216.326,160.250 214.214,161.500 213.826 C 161.995 213.672,162.400 213.378,162.400 213.173 C 162.400 212.968,162.642 212.800,162.939 212.800 C 163.783 212.800,164.991 211.533,165.607 210.000 C 166.281 208.326,168.250 206.214,169.500 205.826 C 169.995 205.672,170.400 205.398,170.400 205.216 C 170.400 205.035,170.850 204.774,171.400 204.636 C 172.315 204.406,172.400 204.197,172.400 202.192 C 172.400 200.987,172.580 200.000,172.800 200.000 C 173.020 200.000,173.200 199.190,173.200 198.200 C 173.200 196.422,172.228 194.800,171.162 194.800 C 170.585 194.800,168.273 193.510,167.935 193.000 C 167.789 192.780,167.289 192.162,166.824 191.626 C 166.359 191.091,165.865 190.191,165.727 189.626 C 165.464 188.553,163.860 186.800,163.141 186.800 C 162.580 186.800,160.267 185.501,159.935 185.000 C 159.789 184.780,159.289 184.162,158.824 183.626 C 158.359 183.091,157.865 182.191,157.727 181.626 C 157.464 180.553,155.860 178.800,155.141 178.800 C 154.580 178.800,152.267 177.501,151.935 177.000 C 151.789 176.780,151.302 176.177,150.853 175.659 C 150.403 175.141,149.833 174.106,149.586 173.359 C 149.340 172.612,148.985 172.000,148.798 172.000 C 148.610 172.000,148.219 171.774,147.929 171.497 C 147.638 171.221,146.637 170.636,145.705 170.197 C 144.772 169.759,144.007 169.310,144.004 169.200 C 144.001 169.090,143.557 168.486,143.017 167.858 C 142.476 167.229,141.832 166.104,141.586 165.358 C 141.340 164.611,140.985 164.000,140.798 164.000 C 140.610 164.000,140.219 163.774,139.929 163.497 C 139.638 163.221,138.637 162.636,137.705 162.197 C 136.772 161.759,136.007 161.310,136.004 161.200 C 136.001 161.090,135.557 160.486,135.017 159.858 C 134.476 159.229,133.832 158.104,133.586 157.358 C 133.340 156.611,132.985 156.000,132.798 156.000 C 132.610 156.000,132.219 155.774,131.929 155.497 C 131.638 155.221,130.637 154.636,129.705 154.197 C 128.772 153.759,128.007 153.310,128.004 153.200 C 128.001 153.090,127.557 152.486,127.017 151.858 C 126.476 151.229,125.832 150.104,125.586 149.358 C 125.340 148.611,124.985 148.000,124.798 148.000 C 124.610 148.000,124.219 147.774,123.929 147.497 C 123.638 147.221,122.637 146.636,121.705 146.197 C 120.772 145.759,120.007 145.310,120.004 145.200 C 120.001 145.090,119.557 144.486,119.017 143.858 C 118.476 143.229,117.832 142.104,117.586 141.358 C 117.340 140.611,116.985 140.000,116.798 140.000 C 116.610 140.000,116.219 139.774,115.929 139.497 C 115.638 139.221,114.637 138.636,113.705 138.197 C 112.772 137.759,112.007 137.299,112.005 137.175 C 112.002 137.052,111.629 136.553,111.176 136.066 C 110.095 134.906,109.200 132.722,109.200 131.246 C 109.200 130.597,109.023 130.007,108.807 129.933 C 108.029 129.670,108.114 122.792,108.900 122.352 C 109.285 122.137,109.601 121.744,109.601 121.480 C 109.603 120.790,112.404 117.600,113.007 117.600 C 113.286 117.600,113.618 117.330,113.745 117.000 C 113.871 116.670,114.246 116.400,114.578 116.400 C 114.910 116.400,115.496 115.905,115.881 115.300 C 116.266 114.695,116.810 114.056,117.090 113.880 C 117.371 113.704,117.602 113.344,117.604 113.080 C 117.610 112.485,120.125 110.000,120.723 110.000 C 120.963 110.000,121.315 109.724,121.504 109.386 C 121.981 108.534,123.895 108.007,125.800 108.203 C 126.680 108.293,128.653 108.489,130.184 108.639 " stroke="none" fill="#c2e8ff" fill-rule="evenodd"></path></g></svg>