<?xml version="1.0" encoding="UTF-8"?>
<!-- Generator: Adobe Illustrator 25.0.0, SVG Export Plug-In . SVG Version: 6.00 Build 0)  -->
<svg overflow="visible" version="1.2" viewBox="0 0 63.4 63.6" xml:space="preserve" xmlns="http://www.w3.org/2000/svg">
<rect y=".1" width="63.4" height="63.4" fill="#595959" fill-opacity="0"/><g fill="#fff">
<rect x="3.9" y="18.083" width="11" height="5"/><rect x="17.9" y="18.083" width="5" height="5"/><rect x="33.9" y="18.083" width="5" height="5"/><rect x="41.9" y="18.083" width="5" height="5"/><rect x="49.9" y="18.083" width="10" height="5"/><rect x="44.9" y="32.083" width="15" height="5"/><rect x="44.9" y="39.083" width="15" height="5"/><rect x="3.9" y="39.083" width="13" height="5"/><rect x="3.9" y="32.083" width="5" height="5"/><rect x="11.9" y="32.083" width="5" height="5"/><rect x="3.9" y="25.083" width="7" height="5"/><rect x="13.9" y="25.083" width="5" height="5"/><rect x="21.9" y="25.083" width="5" height="5"/><rect x="37.9" y="25.083" width="5" height="5"/><rect x="45.9" y="25.083" width="5" height="5"/><rect x="53.9" y="25.083" width="6" height="5"/><path d="m39.6 56.083h-17.3c-1.8 0-3.3-1.5-3.3-3.3v-17.4c0-1.8 1.5-3.3 3.3-3.3h17.3c1.8 0 3.3 1.5 3.3 3.3v17.3c0 1.9-1.5 3.4-3.3 3.4z"/></g><text transform="scale(1.0042 .99583)" x="23.721754" y="52.950314" font-family="ArialRoundedMTBold" font-size="23.741px" stroke-width="1.653">?</text><rect x="18.9" y="32.083" width="24" height="24" fill="none"/><g fill="#fff"><rect x="25.9" y="18.083" width="5" height="5"/><rect x="29.9" y="25.083" width="5" height="5"/>
<polygon transform="matrix(.44885 0 0 .64045 23.529 -.64044)" points="31.8 26.1 0.4 26.1 16.1 10.5"/></g></svg>
