<svg width="24" height="24" viewBox="0 0 24 24" fill="none" xmlns="http://www.w3.org/2000/svg">
<path d="M0.5 1.63839C0.5 1.00968 1.12487 0.5 1.89568 0.5H21.1043C21.8751 0.5 22.5 1.00968 22.5 1.63839V21.3616C22.5 21.9903 21.8751 22.5 21.1043 22.5H1.89568C1.12486 22.5 0.5 21.9903 0.5 21.3616V1.63839Z" fill="var(--mw-icon-background-default-selection, #B4DEFF)" stroke="var(--mw-icon-border-default-blue, #1656A7)" stroke-linejoin="round"/>
<path d="M11 14.9743V17H3V15.6743L6.65795 11.8687C7.01743 11.4516 7.30161 11.0891 7.5105 10.7813C7.71939 10.4735 7.86755 10.1954 7.95499 9.94719C8.04729 9.69397 8.09344 9.45317 8.09344 9.22478C8.09344 8.89212 8.03515 8.60167 7.91856 8.35342C7.80197 8.1002 7.63195 7.90408 7.40849 7.76506C7.18988 7.62604 6.92027 7.55653 6.59966 7.55653C6.24503 7.55653 5.94142 7.64094 5.68881 7.80975C5.44106 7.9736 5.25161 8.20199 5.12045 8.49492C4.99414 8.78786 4.93099 9.62266 4.93099 10H3C3 9.35951 3.14574 8.27646 3.43721 7.75017C3.72868 7.21891 4.14645 6.7944 4.69053 6.47664C5.2346 6.15888 5.8807 6 6.6288 6C7.35748 6 7.97442 6.12413 8.47964 6.37238C8.98486 6.61566 9.36862 6.96321 9.63095 7.41503C9.89327 7.86685 10.0244 8.40555 10.0244 9.03114C10.0244 9.3787 9.96857 9.72128 9.85684 10.0589C9.74511 10.3965 9.58723 10.7317 9.3832 11.0643C9.18403 11.392 8.94599 11.7247 8.6691 12.0623C8.3922 12.3999 8.08373 12.745 7.74368 13.0975L5.67424 14.9743H11Z" fill="var(--mw-icon-glyph-content-blue, #1656A8)"/>
<path d="M15.1543 17H12.8663L12.8808 15.3913H15.1543C15.7713 15.3913 16.2886 15.2523 16.7064 14.9743C17.1242 14.6913 17.4399 14.1302 17.6537 13.6039C17.8674 13.0727 17.9743 12.4371 17.9743 11.6974V11.1388C17.9743 10.5678 17.9136 10.0639 17.7921 9.62695C17.6707 9.19002 17.4909 8.82261 17.2529 8.52471C17.0197 8.22681 16.7307 8.0009 16.3858 7.84699C16.0409 7.69307 15.6449 7.61611 15.198 7.61611H12.8225V6H15.198C15.9073 6 16.5534 6.12164 17.1363 6.36493C17.7241 6.60821 18.2317 6.95825 18.6592 7.41503C19.0916 7.86685 19.4219 8.40803 19.6502 9.03859C19.8834 9.66915 20 10.3742 20 11.1537V11.6974C20 12.4719 19.8834 13.1769 19.6502 13.8125C19.4219 14.443 19.0916 15.1406 18.6592 15.5924C18.2317 16.0442 17.7217 16.3918 17.129 16.6351C16.5364 16.8784 15.8781 17 15.1543 17ZM14.0103 6V17H12V6H14.0103Z" fill="var(--mw-icon-glyph-content-blue, #1656A8)"/>
</svg>
