<svg width="24" height="24" viewBox="0 0 24 24" fill="none" xmlns="http://www.w3.org/2000/svg">
<path d="M0.5 18.5V4.5C0.5 2.29086 2.29086 0.5 4.5 0.5H18.5C20.7091 0.5 22.5 2.29086 22.5 4.5V18.5C22.5 20.7091 20.7091 22.5 18.5 22.5H4.5C2.29086 22.5 0.5 20.7091 0.5 18.5Z" fill="var(--mw-icon-background-default-white, white)"/>
<path d="M6.18111 12.634L6.52776 2.73593L13.1557 10.0955C13.026 10.2444 12.8424 10.4382 12.6017 10.6537C12.044 11.1528 11.1818 11.7661 9.97442 12.2056C8.76701 12.645 7.71227 12.7294 6.9643 12.7055C6.64143 12.6952 6.37614 12.6647 6.18111 12.634Z" fill="#FFAB66" stroke="#823400"/>
<circle cx="6.5" cy="16.5" r="4" fill="#FA8AD4" stroke="#6E0149"/>
<path d="M20.1791 12.3496L19.7869 7.8667L15.5001 10.5003L15.8923 14.9832L20.1791 12.3496Z" fill="#7DA9FF" stroke="#141A33" stroke-linecap="round" stroke-linejoin="round"/>
<path d="M11.2132 13.1338L10.821 8.65088L15.5 10.5001L15.8922 14.983L11.2132 13.1338Z" fill="#6582FD" stroke="#141A33" stroke-linecap="round" stroke-linejoin="round"/>
<path d="M19.7868 7.86644L15.1078 6.0172L10.821 8.65084L15.5 10.5001L19.7868 7.86644Z" fill="#A3C8FF" stroke="#141A33" stroke-linecap="round" stroke-linejoin="round"/>
<path d="M0.5 18.5V4.5C0.5 2.29086 2.29086 0.5 4.5 0.5H18.5C20.7091 0.5 22.5 2.29086 22.5 4.5V18.5C22.5 20.7091 20.7091 22.5 18.5 22.5H4.5C2.29086 22.5 0.5 20.7091 0.5 18.5Z" stroke="var(--mw-icon-border-default-gray, #616161)" stroke-linecap="round"/>

</svg>
