<svg width="24" height="24" viewBox="0 0 24 24" fill="none" xmlns="http://www.w3.org/2000/svg">
<path d="M0.5 17.5V10.5L7.5 6.5L14.5 10.5L7.5 14.5L14.5 17.5L7.5 21.5L0.5 17.5Z" fill="var(--mw-icon-background-light-yellow, #FFF5BC)"/>
<path d="M0.5 10.5V17.5L7.5 21.5M0.5 10.5L7.5 14.5M0.5 10.5L7.5 6.5L14.5 10.5L7.5 14.5M7.5 21.5V14.5M7.5 21.5L14.5 17.5L7.5 14.5" stroke="#674C06" stroke-linejoin="round"/>
<path d="M16.5 16.5V9.5L9.5 5.5L16.5 1.5L20 3.5L23.5 5.5V12.5L16.5 16.5Z" fill="var(--mw-icon-background-default-medium-gray, #D9D9D9)"/>
<path d="M16.5 9.5V16.5L23.5 12.5V5.5M16.5 9.5L23.5 5.5M16.5 9.5L9.5 5.5L16.5 1.5L20 3.5L23.5 5.5" stroke="var(--mw-icon-border-default-gray, #616161)" stroke-linejoin="round"/>
<path d="M22.5 18.5L14.5 22.5" stroke="var(--mw-icon-object-primary, #616160)" stroke-linecap="round"/>
<path d="M17.5 23.5L12.5 23.5L15.5 19.5L17.5 23.5Z" fill="var(--mw-icon-object-primary, #616160)"/>
</svg>
