<svg width="24" height="24" viewBox="0 0 24 24" fill="none" xmlns="http://www.w3.org/2000/svg">
<path d="M0.5 18.5V4.5C0.5 2.29086 2.29086 0.5 4.5 0.5H18.5C20.7091 0.5 22.5 2.29086 22.5 4.5V18.5C22.5 20.7091 20.7091 22.5 18.5 22.5H4.5C2.29086 22.5 0.5 20.7091 0.5 18.5Z" fill="var(--mw-icon-background-default-white, #FFFFFF)"/>
<path d="M3.5179 4.48535C3.5161 3.93306 3.96235 3.48389 4.51464 3.48209L18.5146 3.43645C19.0668 3.43465 19.516 3.8809 19.5178 4.43318L19.5635 18.4331C19.5653 18.9854 19.119 19.4346 18.5667 19.4364L4.5668 19.482C4.01452 19.4838 3.56534 19.0376 3.56354 18.4853L3.5179 4.48535Z" fill="var(--mw-icon-background-default-medium-gray, #D9D9D9)" stroke="var(--mw-icon-glyph-content-dark-gray, #333333)" stroke-linejoin="round"/>
<path d="M17.0407 11.4412C17.0506 14.4787 14.5962 16.9492 11.5586 16.9591C8.52106 16.969 6.05062 14.5146 6.04071 11.477C6.03081 8.43947 8.4852 5.96902 11.5228 5.95912C14.5603 5.94922 17.0308 8.40361 17.0407 11.4412Z" fill="var(--mw-icon-background-default-dark-gray, #A6A6A6)" stroke="var(--mw-icon-glyph-content-dark-gray, #333333)" stroke-linejoin="round"/>
<path d="M15.5407 11.4461C15.5479 13.6552 13.7629 15.4519 11.5537 15.4591C9.3446 15.4663 7.54791 13.6813 7.5407 11.4721C7.5335 9.26302 9.31852 7.46633 11.5276 7.45913C13.7368 7.45193 15.5335 9.23694 15.5407 11.4461Z" fill="var(--mw-icon-glyph-content-dark-gray, #333333)"/>
<circle cx="10.5342" cy="10.4655" r="1" transform="rotate(-0.186793 10.5342 10.4655)" fill="var(--mw-icon-background-default-medium-gray, #D9D9D9)"/>
<circle cx="17.0227" cy="5.94791" r="1" transform="rotate(-0.186793 17.0227 5.94791)" fill="var(--mw-icon-glyph-content-red, #902623)"/>
<path d="M0.5 18.5V4.5C0.5 2.29086 2.29086 0.5 4.5 0.5H18.5C20.7091 0.5 22.5 2.29086 22.5 4.5V18.5C22.5 20.7091 20.7091 22.5 18.5 22.5H4.5C2.29086 22.5 0.5 20.7091 0.5 18.5Z" stroke="var(--mw-icon-border-default-gray, #616161)" stroke-linecap="round"/>
</svg>
