<svg width="24" height="24" viewBox="0 0 24 24" fill="none" xmlns="http://www.w3.org/2000/svg">
<path d="M0.5 1C0.5 0.723857 0.723858 0.5 1 0.5H7.08579C7.351 0.5 7.60536 0.605357 7.79289 0.792893L9.20711 2.20711C9.39464 2.39464 9.649 2.5 9.91421 2.5H18C18.2761 2.5 18.5 2.72386 18.5 3V6.9026V14C18.5 14.2761 18.2761 14.5 18 14.5H1C0.723858 14.5 0.5 14.2761 0.5 14V1Z" fill="var(--mw-icon-background-light-yellow, #FFF5BC)" stroke="#674C06"/>
<rect width="12" height="12" rx="6" transform="matrix(-1 0 0 1 23.5 11.5)" fill="var(--mw-icon-background-default-action, #CBFFBE)" stroke="var(--mw-icon-border-default-green, #008013)"/>
<path d="M21.3182 17.9999C21.5943 17.9999 21.8182 17.776 21.8182 17.4999C21.8182 17.2237 21.5943 16.9999 21.3182 16.9999V17.9999ZM13.6818 16.9999C13.4057 16.9999 13.1818 17.2237 13.1818 17.4999C13.1818 17.776 13.4057 17.9999 13.6818 17.9999V16.9999ZM18 13.6816C18 13.4055 17.7762 13.1816 17.5 13.1816C17.2239 13.1816 17 13.4055 17 13.6816H18ZM17 21.318C17 21.5941 17.2239 21.818 17.5 21.818C17.7762 21.818 18 21.5941 18 21.318H17ZM21.3182 16.9999H13.6818V17.9999H21.3182V16.9999ZM17 13.6816V21.318H18V13.6816H17Z" fill="var(--mw-icon-glyph-content-dark-green, #02580E)"/>
</svg>
