<svg width="24" height="24" viewBox="0 0 24 24" fill="none" xmlns="http://www.w3.org/2000/svg">
<path d="M0.5 2.5C0.5 1.39543 1.39543 0.5 2.5 0.5H16.5C17.6046 0.5 18.5 1.39543 18.5 2.5V16.5C18.5 17.6046 17.6046 18.5 16.5 18.5H2.5C1.39543 18.5 0.5 17.6046 0.5 16.5V2.5Z" fill="var(--mw-icon-background-default-white, #FFFFFF)" stroke="var(--mw-icon-border-default-gray, #616161)"/>
<path d="M13.5 6.5C13.5 6.5 12 4.5 8.5 4.5C5 4.5 3.5 7.5 3.5 9.5C3.5 11.5 4.5 11.5 5.5 11.5C5.5 11.5 9 11.5 10.5 11.5C12 11.5 13.5 12 13.5 13.5C13.5 15 9.5 15.5 9.5 15.5" stroke="var(--mw-icon-glyph-content-gray, #616162)" stroke-linecap="round" stroke-linejoin="round"/>
<path d="M7 5.5C7 6.32843 6.32843 7 5.5 7C4.67157 7 4 6.32843 4 5.5C4 4.67157 4.67157 4 5.5 4C6.32843 4 7 4.67157 7 5.5Z" fill="var(--mw-icon-glyph-content-light-blue, #278CDD)"/>
<path d="M7 11.5C7 12.3284 6.32843 13 5.5 13C4.67157 13 4 12.3284 4 11.5C4 10.6716 4.67157 10 5.5 10C6.32843 10 7 10.6716 7 11.5Z" fill="var(--mw-icon-glyph-content-light-blue, #278CDD)"/>
<path d="M14 11.5C14 12.3284 13.3284 13 12.5 13C11.6716 13 11 12.3284 11 11.5C11 10.6716 11.6716 10 12.5 10C13.3284 10 14 10.6716 14 11.5Z" fill="var(--mw-icon-glyph-content-light-blue, #278CDD)"/>
<path d="M15 6.5C15 7.32843 14.3284 8 13.5 8C12.6716 8 12 7.32843 12 6.5C12 5.67157 12.6716 5 13.5 5C14.3284 5 15 5.67157 15 6.5Z" fill="var(--mw-icon-glyph-content-light-blue, #278CDD)"/>
<rect width="12" height="12" rx="6" transform="matrix(-1 0 0 1 23.5 11.5)" fill="var(--mw-icon-background-default-action, #CBFFBE)" stroke="var(--mw-icon-glyph-content-green, #008014)"/>
<path d="M21.3182 17.4999H13.6818M17.5 13.6816V21.318" stroke="var(--mw-icon-glyph-content-dark-green, #02580E)" stroke-linecap="round"/>
</svg>
