<svg width="24" height="24" viewBox="0 0 24 24" fill="none" xmlns="http://www.w3.org/2000/svg">
<path d="M0.5 4.5C0.5 2.29086 2.29086 0.5 4.5 0.5H17.5C19.7091 0.5 21.5 2.29086 21.5 4.5V13.5C21.5 15.7091 19.7091 17.5 17.5 17.5H4.5C2.29086 17.5 0.5 15.7091 0.5 13.5V4.5Z" fill="var(--mw-icon-background-red, #FF9D9A)" stroke="var(--mw-icon-border-default-red, #902622)"/>
<rect width="12" height="12" rx="6" transform="matrix(-1 0 0 1 23.5 11.5)" fill="var(--mw-icon-background-default-action, #CBFFBE)" stroke="var(--mw-icon-border-default-green, #008013)"/>
<path d="M21.3182 17.9999C21.5944 17.9999 21.8182 17.776 21.8182 17.4999C21.8182 17.2237 21.5944 16.9999 21.3182 16.9999V17.9999ZM13.6819 16.9999C13.4057 16.9999 13.1819 17.2237 13.1819 17.4999C13.1819 17.776 13.4057 17.9999 13.6819 17.9999V16.9999ZM18.0001 13.6816C18.0001 13.4055 17.7762 13.1816 17.5001 13.1816C17.2239 13.1816 17.0001 13.4055 17.0001 13.6816H18.0001ZM17.0001 21.318C17.0001 21.5941 17.2239 21.818 17.5001 21.818C17.7762 21.818 18.0001 21.5941 18.0001 21.318H17.0001ZM21.3182 16.9999H13.6819V17.9999H21.3182V16.9999ZM17.0001 13.6816V21.318H18.0001V13.6816H17.0001Z" fill="var(--mw-icon-glyph-content-dark-green, #02580E)"/>
<path d="M6.15247 10.1243V14H4V3H8.07534C8.85979 3 9.54858 3.1511 10.1417 3.4533C10.7396 3.75549 11.1988 4.18613 11.5193 4.74519C11.8398 5.29922 12 5.93132 12 6.64148C12 7.71932 11.6484 8.57051 10.9453 9.19506C10.2469 9.81456 9.27833 10.1243 8.03946 10.1243H6.15247ZM6.15247 8.28846H8.07534C8.64454 8.28846 9.07743 8.14744 9.37399 7.86538C9.67534 7.58333 9.82601 7.1804 9.82601 6.65659C9.82601 6.11767 9.67534 5.68201 9.37399 5.34959C9.07265 5.01717 8.6565 4.84592 8.12556 4.83585H6.15247V8.28846Z" fill="var(--mw-icon-glyph-content-dark-red, #610908)"/>
</svg>
