<svg width="24" height="24" viewBox="0 0 24 24" fill="none" xmlns="http://www.w3.org/2000/svg">
<path d="M0.5 4.5C0.5 2.29086 2.29086 0.5 4.5 0.5H17.5C19.7091 0.5 21.5 2.29086 21.5 4.5V13.5C21.5 15.7091 19.7091 17.5 17.5 17.5H4.5C2.29086 17.5 0.5 15.7091 0.5 13.5V4.5Z" fill="var(--mw-icon-background-default-selection, #B4DEFF)" stroke="var(--mw-icon-border-default-blue, #1656A7)"/>
<path d="M11 15V13.3599H5.50869V9.62637H10.2099V8.01099H5.50869V4.64835H10.9609V3H3.54529V15H11Z" fill="var(--mw-icon-glyph-content-blue, #1656A8)"/>
<path d="M11.5 17.5C11.5 20.8137 14.1863 23.5 17.5 23.5C20.8137 23.5 23.5 20.8137 23.5 17.5C23.5 14.1863 20.8137 11.5 17.5 11.5C14.1863 11.5 11.5 14.1863 11.5 17.5Z" fill="var(--mw-icon-background-default-action, #CBFFBE)" stroke="var(--mw-icon-glyph-content-green, #008014)"/>
<path d="M21.3182 17.4999H13.6818M17.5 13.6816V21.318" stroke="var(--mw-icon-glyph-content-dark-green, #02580E)" stroke-linecap="round"/>
</svg>
