<svg width="24" height="24" viewBox="0 0 24 24" fill="none" xmlns="http://www.w3.org/2000/svg">
<path d="M16.5 0.5H2.5C1.39543 0.5 0.5 1.39543 0.5 2.5V16.5C0.5 17.6046 1.39543 18.5 2.5 18.5H16.5C17.6046 18.5 18.5 17.6046 18.5 16.5V2.5C18.5 1.39543 17.6046 0.5 16.5 0.5Z" fill="var(--mw-icon-background-default-white, #FFFFFF)" stroke="var(--mw-icon-border-default-gray, #616161)" stroke-linecap="round"/>
<path fill-rule="evenodd" clip-rule="evenodd" d="M10.0808 13.2163C10.2102 12.9938 10.4664 12.9346 10.6614 13.078C10.6798 13.0905 10.6973 13.1045 10.7138 13.1199L16.8107 18.0787C17.0077 18.2388 17.0593 18.5545 16.9259 18.7837C16.829 18.9503 16.6611 19.0254 16.5009 18.9924H10.4374C10.1958 18.9924 10 18.7691 10 18.4937V13.5063C10 13.4057 10.0262 13.3119 10.0712 13.2336C10.0742 13.2278 10.0774 13.222 10.0808 13.2163Z" fill="var(--mw-icon-glyph-content-gray, #616162)"/>
<path fill-rule="evenodd" clip-rule="evenodd" d="M8.91948 13.216C8.79109 12.9957 8.5384 12.9357 8.34408 13.0741C8.32243 13.0884 8.30195 13.1047 8.28285 13.1228L2.20749 18.0693C2.08295 18.1572 2 18.3144 2 18.4937C2 18.5943 2.02617 18.6881 2.07119 18.7665C2.07432 18.7723 2.07757 18.7782 2.08095 18.784C2.17793 18.9504 2.34585 19.0253 2.50595 18.9924H8.5625C8.80412 18.9924 9 18.7691 9 18.4937V13.5063C9 13.4101 8.97609 13.3202 8.93467 13.244C8.9299 13.2346 8.92484 13.2252 8.91948 13.216Z" fill="var(--mw-icon-glyph-content-gray, #616162)"/>
<path d="M9.17592 2.28799C9.19536 2.12374 9.3346 2 9.5 2C9.6654 2 9.80464 2.12374 9.82408 2.28799L10.1889 5.37094C11.0201 5.71905 11.6786 6.69032 11.9346 8H16.9379C16.9722 8 17 8.02783 17 8.06217C17 8.07667 16.995 8.09075 16.9856 8.10184C16.6299 8.52346 16.16 8.83473 15.6315 8.99846C15.2785 9.06667 14.9247 9.13087 14.5703 9.19107C14.6546 9.42446 14.7036 9.70339 14.7036 10.0062C14.7251 10.2546 14.6482 10.5015 14.4894 10.6944C14.3782 10.8294 14.233 10.9305 14.0704 10.9884C13.9308 11.0382 13.7763 11.0382 13.6367 10.9884C13.4741 10.9305 13.3289 10.8294 13.2177 10.6944C13.0589 10.5015 12.982 10.2546 13.0035 10.0062C13.0035 9.79633 13.0262 9.59952 13.0671 9.42178C12.7268 9.46848 12.3859 9.5115 12.0446 9.55085C11.9987 10.1405 11.756 10.7015 11.3503 11.1418C10.8722 11.6606 10.2067 11.9692 9.50017 12C8.79359 11.9692 8.12817 11.6606 7.65005 11.1418C7.24431 10.7015 7.00161 10.1405 6.95572 9.55088C6.51293 9.49984 6.07091 9.4426 5.62976 9.37919C5.67716 9.56788 5.70356 9.77943 5.70356 10.0062C5.72507 10.2546 5.64824 10.5015 5.48945 10.6944C5.37825 10.8294 5.23301 10.9305 5.07045 10.9884C4.9308 11.0382 4.77631 11.0382 4.63666 10.9884C4.4741 10.9305 4.32886 10.8294 4.21766 10.6944C4.05887 10.5015 3.98204 10.2546 4.00355 10.0062C4.00355 9.68255 4.05949 9.38617 4.15474 9.14353C3.89229 9.09737 3.6302 9.04902 3.36851 8.99846C2.84008 8.83473 2.37015 8.52346 2.01441 8.10184C2.00506 8.09075 2 8.07667 2 8.06217C2 8.02783 2.02783 8 2.06217 8H7.06572C7.32168 6.69051 7.98002 5.71932 8.81109 5.37109L9.17592 2.28799Z" fill="var(--mw-icon-glyph-content-gray, #616162)"/>
<rect width="12" height="12" rx="6" transform="matrix(-1 0 0 1 23.5 11.5)" fill="var(--mw-icon-background-default-action, #CBFFBE)" stroke="var(--mw-icon-border-default-green, #008013)"/>
<path d="M21.3182 17.4999H13.6818M17.5 13.6816V21.318" stroke="var(--mw-icon-glyph-content-dark-green, #02580E)" stroke-linecap="round"/>
</svg>
