<svg width="25" height="24" viewBox="0 0 25 24" fill="none" xmlns="http://www.w3.org/2000/svg">
<path d="M15 0.5H3C1.89543 0.5 1 1.39543 1 2.5V16.5C1 17.6046 1.89543 18.5 3 18.5H15C16.1046 18.5 17 17.6046 17 16.5V2.5C17 1.39543 16.1046 0.5 15 0.5Z" fill="var(--mw-icon-background-default-white, #FFFFFF)" stroke="var(--mw-icon-border-default-gray, #616161)" stroke-linecap="round"/>
<path d="M10 9.5H14M7 6.5H11M4 3.5H8M7 12.5H11M4 15.5H8" stroke="var(--mw-icon-glyph-content-gray, #616162)" stroke-linecap="round"/>
<rect width="12" height="12" rx="6" transform="matrix(-1 0 0 1 24 11.5)" fill="var(--mw-icon-background-default-action, #CBFFBE)" stroke="var(--mw-icon-border-default-green, #008013)"/>
<path d="M21.8182 17.9999C22.0943 17.9999 22.3182 17.776 22.3182 17.4999C22.3182 17.2237 22.0943 16.9999 21.8182 16.9999V17.9999ZM14.1818 16.9999C13.9057 16.9999 13.6818 17.2237 13.6818 17.4999C13.6818 17.776 13.9057 17.9999 14.1818 17.9999V16.9999ZM18.5 13.6816C18.5 13.4055 18.2762 13.1816 18 13.1816C17.7239 13.1816 17.5 13.4055 17.5 13.6816H18.5ZM17.5 21.318C17.5 21.5941 17.7239 21.818 18 21.818C18.2762 21.818 18.5 21.5941 18.5 21.318H17.5ZM21.8182 16.9999H14.1818V17.9999H21.8182V16.9999ZM17.5 13.6816V21.318H18.5V13.6816H17.5Z" fill="var(--mw-icon-glyph-content-dark-green, #02580E)"/>
</svg>
