<svg width="24" height="24" viewBox="0 0 24 24" fill="none" xmlns="http://www.w3.org/2000/svg">
<path d="M0.5 19.5V2.5C0.5 1.94772 0.947715 1.5 1.5 1.5H16.5C17.0523 1.5 17.5 1.94771 17.5 2.5V19.5C17.5 20.0523 17.0523 20.5 16.5 20.5H1.5C0.947715 20.5 0.5 20.0523 0.5 19.5Z" fill="var(--mw-icon-background-default-white, #FFFFFF)" stroke="var(--mw-icon-border-default-gray, #616161)"/>
<path d="M4.5 4V1C4.5 0.723858 4.72386 0.5 5 0.5H13C13.2761 0.5 13.5 0.723858 13.5 1V4C13.5 4.27614 13.2761 4.5 13 4.5H5C4.72386 4.5 4.5 4.27614 4.5 4Z" fill="var(--mw-icon-background-default-medium-gray, #D9D9D9)" stroke="var(--mw-icon-border-default-gray, #616161)"/>
<rect width="12" height="12" rx="6" transform="matrix(-1 0 0 1 23.5 11.5)" fill="var(--mw-icon-background-default-action, #CBFFBE)" stroke="var(--mw-icon-glyph-content-green, #008014)"/>
<path d="M21.3182 17.4999H13.6819M17.5001 13.6816V21.318" stroke="var(--mw-icon-glyph-content-dark-green, #02580E)" stroke-linecap="round"/>
<path d="M9.5 8.5L3.5 14.5M3.5 8.5L9.5 14.5" stroke="var(--mw-icon-glyph-content-gray, #616162)" stroke-linecap="round" stroke-linejoin="round"/>
</svg>
