<svg width="24" height="24" viewBox="0 0 24 24" fill="none" xmlns="http://www.w3.org/2000/svg">
<path d="M0.5 4.5C0.5 3.39543 1.39543 2.5 2.5 2.5H16.5C17.6046 2.5 18.5 3.39543 18.5 4.5V12.5C18.5 13.6046 17.6046 14.5 16.5 14.5H2.5C1.39543 14.5 0.5 13.6046 0.5 12.5V4.5Z" fill="var(--mw-icon-background-default-white, #FFFFFF)" stroke="var(--mw-icon-border-default-gray, #616161)" stroke-linejoin="round"/>
<path fill-rule="evenodd" clip-rule="evenodd" d="M4.87303 5H6.1218L9 12H7.40352L6.73657 10.3036H4.25938L3.60202 12H2L4.87303 5ZM5.49807 7.13356L4.73218 9.09821H6.26706L5.49807 7.13356Z" fill="#823400"/>
<path d="M10.5 5.5H16.5M10.5 8.5H16.5M10.5 11.5H16.5" stroke="var(--mw-icon-glyph-content-gray, #616162)" stroke-linecap="round"/>
<rect width="12" height="12" rx="6" transform="matrix(-1 0 0 1 23.5 11.5)" fill="var(--mw-icon-background-default-action, #CBFFBE)" stroke="var(--mw-icon-glyph-content-green, #008014)"/>
<path d="M21.3182 17.4999H13.6819M17.5001 13.6816V21.318" stroke="var(--mw-icon-glyph-content-dark-green, #02580E)" stroke-linecap="round"/>
</svg>
