<svg width="24" height="24" viewBox="0 0 24 24" fill="none" xmlns="http://www.w3.org/2000/svg">
<path d="M16.5 0.5H2.5C1.39543 0.5 0.5 1.39543 0.5 2.5V16.5C0.5 17.6046 1.39543 18.5 2.5 18.5H16.5C17.6046 18.5 18.5 17.6046 18.5 16.5V2.5C18.5 1.39543 17.6046 0.5 16.5 0.5Z" fill="var(--mw-icon-background-default-white, #FFFFFF)" stroke="var(--mw-icon-border-default-gray, #616161)" stroke-linecap="round"/>
<path d="M13 11.5C12.1159 12.6383 10.7502 13.5 9.49999 13.5C8.24974 13.5 6.88404 12.6383 5.99999 11.5M14.5001 13C13.174 14.7075 11.3754 15.5 9.5 15.5C7.62464 15.5 5.8262 14.7075 4.50012 13" stroke="var(--mw-icon-glyph-content-gray, #616162)" stroke-linecap="round"/>
<path d="M15.3199 10H8L3.47144 9.37687C3.0829 9.32137 2.76276 9.04371 2.65286 8.66692L2 6C2.11869 6 2.36656 6 2.58581 6C2.85103 6 3.10536 6.10536 3.29289 6.29289L4.70711 7.70711C4.89464 7.89464 5.149 8 5.41421 8H7.97159L4.45002 5H5.81232C5.96328 5 6.11229 5.03418 6.24816 5.09998L12 8H15.3335C16.254 8 17 8.40827 17 9C17 9.59173 16.254 10 15.3335 10C15.329 10 15.3245 10 15.3199 10Z" fill="var(--mw-icon-glyph-content-gray, #616162)"/>
<rect width="12" height="12" rx="6" transform="matrix(-1 0 0 1 23.5 11.5)" fill="var(--mw-icon-background-default-action, #CBFFBE)" stroke="var(--mw-icon-border-default-green, #008013)"/>
<path d="M21.3182 17.4999H13.6818M17.5 13.6816V21.318" stroke="var(--mw-icon-glyph-content-dark-green, #02580E)" stroke-linecap="round"/>
</svg>
