<svg width="24" height="24" viewBox="0 0 24 24" fill="none" xmlns="http://www.w3.org/2000/svg">
<path d="M16.5 0.5H2.5C1.39543 0.5 0.5 1.39543 0.5 2.5V16.5C0.5 17.6046 1.39543 18.5 2.5 18.5H16.5C17.6046 18.5 18.5 17.6046 18.5 16.5V2.5C18.5 1.39543 17.6046 0.5 16.5 0.5Z" fill="var(--mw-icon-background-brown, #DC996C)" stroke="var(--mw-icon-border-default-brown, #5F1B08)"/>
<path d="M2.5 13.3521V6.07942L9.5 9.71578V16.9885L2.5 13.3521Z" fill="var(--mw-icon-glyph-content-brown, #5F1B18)"/>
<path d="M16.5 13.3521V6.07942L9.5 9.71578V16.9885L16.5 13.3521Z" fill="var(--mw-icon-glyph-content-brown, #5F1B18)"/>
<path d="M16.5 6.07942L9.5 2.44308L2.5 6.07942L9.5 9.71578L16.5 6.07942Z" fill="var(--mw-icon-glyph-content-brown, #5F1B18)"/>
<path d="M2.5 6.07942V13.3521L9.5 16.9885M2.5 6.07942L9.5 9.71578M2.5 6.07942L9.5 2.44308L16.5 6.07942M9.5 9.71578V16.9885M9.5 9.71578L16.5 6.07942M9.5 16.9885L16.5 13.3521V6.07942" stroke="var(--mw-icon-background-brown, #DC996C)" stroke-linecap="round" stroke-linejoin="round"/>
<rect x="9.3125" y="9.3125" width="13.75" height="13.75" rx="6.875" fill="var(--mw-icon-background-default-action, #CBFFBE)" stroke="var(--mw-icon-border-default-green, #008013)"/>
<path d="M11.1875 16.1875H21.1875M16.1875 11.1875V21.1875" stroke="var(--mw-icon-glyph-content-dark-green, #02580E)" stroke-linecap="round"/>
</svg>
