<svg width="24" height="24" viewBox="0 0 24 24" fill="none" xmlns="http://www.w3.org/2000/svg">
<path d="M0.5 4.5C0.5 2.29086 2.29086 0.5 4.5 0.5H17.5C19.7091 0.5 21.5 2.29086 21.5 4.5V13.5C21.5 15.7091 19.7091 17.5 17.5 17.5H4.5C2.29086 17.5 0.5 15.7091 0.5 13.5V4.5Z" fill="#FFAB66" stroke="#A24302"/>
<rect width="12" height="12" rx="6" transform="matrix(-1 0 0 1 23.5 11.5)" fill="var(--mw-icon-background-default-action, #CBFFBE)" stroke="var(--mw-icon-border-default-green, #008013)"/>
<path d="M21.3182 17.9999C21.5944 17.9999 21.8182 17.776 21.8182 17.4999C21.8182 17.2237 21.5944 16.9999 21.3182 16.9999V17.9999ZM13.6819 16.9999C13.4057 16.9999 13.1819 17.2237 13.1819 17.4999C13.1819 17.776 13.4057 17.9999 13.6819 17.9999V16.9999ZM18.0001 13.6816C18.0001 13.4055 17.7762 13.1816 17.5001 13.1816C17.2239 13.1816 17.0001 13.4055 17.0001 13.6816H18.0001ZM17.0001 21.318C17.0001 21.5941 17.2239 21.818 17.5001 21.818C17.7762 21.818 18.0001 21.5941 18.0001 21.318H17.0001ZM21.3182 16.9999H13.6819V17.9999H21.3182V16.9999ZM17.0001 13.6816V21.318H18.0001V13.6816H17.0001Z" fill="var(--mw-icon-glyph-content-dark-green, #02580E)"/>
<path d="M8.84423 11.0441C8.84423 10.6275 8.70099 10.3088 8.4145 10.0882C8.12802 9.86275 7.61235 9.62745 6.8675 9.38235C6.12265 9.13235 5.53298 8.88726 5.09848 8.64706C3.91435 7.9902 3.32229 7.10539 3.32229 5.99265C3.32229 5.41422 3.47986 4.89951 3.79499 4.44853C4.11489 3.99265 4.57087 3.63725 5.16294 3.38235C5.75977 3.12745 6.42823 3 7.16831 3C7.91316 3 8.57684 3.13971 9.15936 3.41912C9.74187 3.69363 10.1931 4.08333 10.513 4.58824C10.8377 5.09314 11 5.66667 11 6.30882H8.85139C8.85139 5.81863 8.70099 5.43873 8.40018 5.16912C8.09937 4.89461 7.67681 4.75735 7.1325 4.75735C6.60728 4.75735 6.19905 4.87255 5.90779 5.10294C5.61653 5.32843 5.4709 5.62745 5.4709 6C5.4709 6.34804 5.64041 6.63971 5.97941 6.875C6.32319 7.11029 6.82692 7.33088 7.4906 7.53676C8.71292 7.91422 9.6034 8.38235 10.162 8.94118C10.7207 9.5 11 10.1961 11 11.0294C11 11.9559 10.6586 12.6838 9.97583 13.2132C9.29305 13.7377 8.37392 14 7.21844 14C6.41629 14 5.68577 13.8505 5.02686 13.5515C4.36795 13.2475 3.86422 12.8333 3.51567 12.3088C3.17189 11.7843 3 11.1765 3 10.4853H5.15577C5.15577 11.6667 5.84333 12.2574 7.21844 12.2574C7.72933 12.2574 8.12802 12.152 8.4145 11.9412C8.70099 11.7255 8.84423 11.4265 8.84423 11.0441Z" fill="#823400"/>
</svg>
