<svg width="24" height="24" viewBox="0 0 24 24" fill="none" xmlns="http://www.w3.org/2000/svg">
<path d="M1.5 0.5H17.5C18.0523 0.5 18.5 0.947716 18.5 1.5V17.5C18.5 18.0523 18.0523 18.5 17.5 18.5H1.5C0.947716 18.5 0.5 18.0523 0.5 17.5V1.5C0.5 0.947715 0.947716 0.5 1.5 0.5Z" fill="var(--mw-icon-background-default-white, #FFFFFF)"/>
<path d="M12 17C12 17.5523 11.5523 18 11 18V15H12V17Z" fill="var(--mw-icon-glyph-content-dark-red, #610908)"/>
<path d="M11 18H10V15H11V18Z" fill="var(--mw-icon-border-default-red, #902622)"/>
<path d="M10 18H9V15H10V18Z" fill="#FF453A"/>
<path d="M9 18H8.00001V15H9V18Z" fill="#F57729"/>
<path d="M8.00001 18H7V15H8.00001V18Z" fill="#FFD60A"/>
<path d="M7 18H6V15H7V18Z" fill="#3AC831"/>
<path d="M6 18H5V15H6V18Z" fill="#1FCFBE"/>
<path d="M5 18H4V15H5V18Z" fill="#35D2FA"/>
<path d="M4 18H3V15H4V18Z" fill="var(--mw-icon-borderColor-light-blue, #268CDD)"/>
<path d="M3 18H2V15H3V18Z" fill="#0E00FF"/>
<path d="M2 18C1.44772 18 1 17.5523 1 17V15H2V18Z" fill="#08036F"/>
<path d="M0.5 10.5C0.5 10.5 1.5 7.5 5 7.5C8.5 7.5 10.5 13.5 13.5 13.5C16.5 13.5 18.5 10.5 18.5 10.5" stroke="#D95319"/>
<path d="M0.5 7.5C0.5 7.5 1 2.5 3 2.5C5.5 2.5 6 13.5 8.5 13.5C11 13.5 10.5 3.5 12.5 3.5C14 3.5 14 11.5 16.5 11.5C18 11.5 18.5 7.5 18.5 7.5" stroke="#0072BD"/>
<path d="M2.5 0.5H16.5C17.6046 0.5 18.5 1.39543 18.5 2.5V16.5C18.5 17.6046 17.6046 18.5 16.5 18.5H2.5C1.39543 18.5 0.5 17.6046 0.5 16.5V2.5C0.5 1.39543 1.39543 0.5 2.5 0.5Z" stroke="var(--mw-icon-border-default-gray, #616161)" stroke-linecap="round"/>
<rect width="12" height="12" rx="6" transform="matrix(-1 0 0 1 23.5 11.5)" fill="var(--mw-icon-background-default-action, #CBFFBE)" stroke="var(--mw-icon-border-default-green, #008013)"/>
<path d="M21.3182 17.4999H13.6818M17.5 13.6816V21.318" stroke="var(--mw-icon-glyph-content-dark-green, #02580E)" stroke-linecap="round"/>
</svg>
