<svg width="24" height="24" viewBox="0 0 24 24" fill="none" xmlns="http://www.w3.org/2000/svg">
<path d="M14.5 17.5L14.5 1.5C14.5 0.947715 14.0523 0.5 13.5 0.5L9.5 0.5C8.94772 0.5 8.5 0.947716 8.5 1.5L8.5 17.5C8.5 18.0523 8.94772 18.5 9.5 18.5H13.5C14.0523 18.5 14.5 18.0523 14.5 17.5Z" fill="var(--mw-icon-background-default-white, #FFFFFF)"/>
<path d="M14.5 17.5H15H14.5ZM14.5 1.5H14H14.5ZM13.5 0.5V1.19209e-07V0.5ZM9.5 0.5V1V0.5ZM8.5 1.5H9H8.5ZM8.5 17.5H8H8.5ZM9.5 18.5V19V18.5ZM13.5 18.5V18V18.5ZM13.5 13H14V12H13.5V13ZM9.5 12H9V13H9.5V12ZM13.5 7H14V6H13.5V7ZM9.5 6H9V7H9.5V6ZM15 17.5L15 1.5H14L14 17.5H15ZM15 1.5C15 0.671573 14.3284 1.49012e-07 13.5 1.19209e-07V1C13.7761 1 14 1.22386 14 1.5H15ZM13.5 1.19209e-07L9.5 0V1L13.5 1V1.19209e-07ZM9.5 0C8.67157 0 8 0.671574 8 1.5H9C9 1.22386 9.22386 1 9.5 1V0ZM8 1.5L8 17.5H9L9 1.5H8ZM8 17.5C8 18.3284 8.67157 19 9.5 19V18C9.22386 18 9 17.7761 9 17.5H8ZM9.5 19H13.5V18H9.5V19ZM13.5 19C14.3284 19 15 18.3284 15 17.5H14C14 17.7761 13.7761 18 13.5 18V19ZM13.5 12H9.5V13H13.5V12ZM13.5 6H9.5V7H13.5V6Z" fill="var(--mw-icon-border-default-gray, #616161)"/>
<rect width="12" height="12" rx="6" transform="matrix(-1 0 0 1 23.5 11.5)" fill="var(--mw-icon-background-default-action, #CBFFBE)" stroke="var(--mw-icon-border-default-green, #008013)"/>
<path d="M21.318 17.9999C21.5941 17.9999 21.818 17.776 21.818 17.4999C21.818 17.2237 21.5941 16.9999 21.318 16.9999V17.9999ZM13.6816 16.9999C13.4055 16.9999 13.1816 17.2237 13.1816 17.4999C13.1816 17.776 13.4055 17.9999 13.6816 17.9999V16.9999ZM17.9998 13.6816C17.9998 13.4055 17.776 13.1816 17.4998 13.1816C17.2237 13.1816 16.9998 13.4055 16.9998 13.6816H17.9998ZM16.9998 21.318C16.9998 21.5941 17.2237 21.818 17.4998 21.818C17.776 21.818 17.9998 21.5941 17.9998 21.318H16.9998ZM21.318 16.9999H13.6816V17.9999H21.318V16.9999ZM16.9998 13.6816V21.318H17.9998V13.6816H16.9998Z" fill="var(--mw-icon-glyph-content-dark-green, #02580E)"/>
</svg>
