<svg width="24" height="24" viewBox="0 0 24 24" fill="none" xmlns="http://www.w3.org/2000/svg">
<path d="M16.5 0.5H2.5C1.39543 0.5 0.5 1.39543 0.5 2.5V16.5C0.5 17.6046 1.39543 18.5 2.5 18.5H16.5C17.6046 18.5 18.5 17.6046 18.5 16.5V2.5C18.5 1.39543 17.6046 0.5 16.5 0.5Z" fill="var(--mw-icon-background-default-white, #FFFFFF)" stroke="var(--mw-icon-border-default-gray, #616161)" stroke-linecap="round"/>
<path d="M14 9.5C15.3807 9.5 16.5 8.38071 16.5 7C16.5 5.61929 15.3807 4.5 14 4.5C12.6193 4.5 11.5 5.61929 11.5 7C11.5 8.38071 12.6193 9.5 14 9.5Z" fill="var(--mw-icon-glyph-content-gray, #616162)" stroke="var(--mw-icon-glyph-content-gray, #616162)"/>
<path d="M4.90909 15.5C3.02631 15.5 1.5 13.9502 1.5 12.0385C1.5 10.1267 3.02631 8.57692 4.90909 8.57692C5.3464 8.57692 5.76446 8.66052 6.14865 8.81285C6.90573 7.4332 8.3569 6.5 10.0227 6.5C12.3633 6.5 14.2801 8.34239 14.4433 10.6768C15.6052 10.8398 16.5 11.8523 16.5 13.0769C16.5 14.4151 15.4316 15.5 14.1136 15.5H4.90909Z" fill="var(--mw-icon-glyph-content-gray, #616162)" stroke="var(--mw-icon-background-default-white, #FFFFFF)"/>
<rect width="12" height="12" rx="6" transform="matrix(-1 0 0 1 23.5 11.5)" fill="var(--mw-icon-background-default-action, #CBFFBE)" stroke="var(--mw-icon-border-default-green, #008013)"/>
<path d="M21.3182 17.4999H13.6818M17.5 13.6816V21.318" stroke="var(--mw-icon-glyph-content-dark-green, #02580E)" stroke-linecap="round"/>
</svg>
