<svg width="24" height="24" viewBox="0 0 24 24" fill="none" xmlns="http://www.w3.org/2000/svg">
<rect x="0.5" y="0.5" width="18" height="18" rx="2" fill="var(--mw-icon-background-default-white, #FFFFFF)"/>
<path d="M0.5 16.5C0.5 16.5 0.714373 15.7122 1.45946 14.5946C2.43243 13.1351 4.37838 11.6757 6.32432 11.6757C9.24324 11.6757 9.24324 11.6757 12.1622 11.6757C14.1081 11.6757 16.0154 8.74094 17.027 6.32432C18 4 18.5 2.5 18.5 2.5" stroke="var(--mw-icon-glyph-content-light-blue, #278CDD)" stroke-linecap="round" stroke-linejoin="round"/>
<path d="M3 8.50001C3 7.67158 3.67157 7.00001 4.5 7.00001C5.32843 7.00001 6 7.67158 6 8.50001C6 9.32843 5.32843 10 4.5 10C3.67157 10 3 9.32843 3 8.50001Z" fill="var(--mw-icon-glyph-content-dark-gray, #333333)"/>
<path d="M6 14.5C6 13.6716 6.67157 13 7.5 13C8.32843 13 9 13.6716 9 14.5C9 15.3284 8.32843 16 7.5 16C6.67157 16 6 15.3284 6 14.5Z" fill="var(--mw-icon-glyph-content-dark-gray, #333333)"/>
<path d="M13 4.50001C13 3.67158 13.6716 3.00001 14.5 3.00001C15.3284 3.00001 16 3.67158 16 4.50001C16 5.32843 15.3284 6.00001 14.5 6.00001C13.6716 6.00001 13 5.32843 13 4.50001Z" fill="var(--mw-icon-glyph-content-dark-gray, #333333)"/>
<path d="M9 9.50001C9 8.67158 9.67157 8.00001 10.5 8.00001C11.3284 8.00001 12 8.67158 12 9.50001C12 10.3284 11.3284 11 10.5 11C9.67157 11 9 10.3284 9 9.50001Z" fill="var(--mw-icon-glyph-content-dark-gray, #333333)"/>
<rect x="0.5" y="0.5" width="18" height="18" rx="2" stroke="var(--mw-icon-border-default-gray, #616161)"/>
<rect width="12" height="12" rx="6" transform="matrix(-1 0 0 1 23.5 11.5)" fill="var(--mw-icon-background-default-action, #CBFFBE)" stroke="var(--mw-icon-border-default-green, #008013)"/>
<path d="M21.3182 17.4999H13.6818M17.5 13.6816V21.318" stroke="var(--mw-icon-glyph-content-dark-green, #02580E)" stroke-linecap="round"/>
</svg>
