<svg width="24" height="24" viewBox="0 0 24 24" fill="none" xmlns="http://www.w3.org/2000/svg">
<path d="M16.5 0.5H2.5C1.39543 0.5 0.5 1.39543 0.5 2.5V16.5C0.5 17.6046 1.39543 18.5 2.5 18.5H16.5C17.6046 18.5 18.5 17.6046 18.5 16.5V2.5C18.5 1.39543 17.6046 0.5 16.5 0.5Z" fill="var(--mw-icon-background-default-white, #FFFFFF)" stroke="var(--mw-icon-border-default-gray, #616161)" stroke-linecap="round"/>
<circle cx="9.5" cy="9.5" r="0.5" fill="var(--mw-icon-glyph-content-gray, #616162)"/>
<path d="M12.5 9.5C12.5 11.1569 11.1569 12.5 9.5 12.5C7.84315 12.5 6.5 11.1569 6.5 9.5C6.5 7.84315 7.84315 6.5 9.5 6.5C11.1569 6.5 12.5 7.84315 12.5 9.5Z" fill="white"/>
<path d="M12.5 9.5C12.5 11.1569 11.1569 12.5 9.5 12.5C7.84315 12.5 6.5 11.1569 6.5 9.5C6.5 7.84315 7.84315 6.5 9.5 6.5C11.1569 6.5 12.5 7.84315 12.5 9.5Z" stroke="var(--mw-icon-glyph-content-gray, #616162)"/>
<path d="M15.5 9.5C15.5 12.8137 12.8137 15.5 9.5 15.5C6.18629 15.5 3.5 12.8137 3.5 9.5C3.5 6.18629 6.18629 3.5 9.5 3.5C12.8137 3.5 15.5 6.18629 15.5 9.5Z" stroke="var(--mw-icon-glyph-content-gray, #616162)"/>
<path d="M9.5 2.5V7.5M9.5 11.5V16.5M11.5 9.5H16.5M2.5 9.5H7.5" stroke="var(--mw-icon-glyph-content-gray, #616162)" stroke-linecap="round"/>
<rect width="12" height="12" rx="6" transform="matrix(-1 0 0 1 23.5 11.5)" fill="var(--mw-icon-background-default-action, #CBFFBE)" stroke="var(--mw-icon-border-default-green, #008013)"/>
<path d="M21.3182 17.4999H13.6818M17.5 13.6816V21.318" stroke="var(--mw-icon-glyph-content-dark-green, #02580E)" stroke-linecap="round"/>
</svg>
