<svg width="24" height="24" viewBox="0 0 24 24" fill="none" xmlns="http://www.w3.org/2000/svg">
<path d="M0.5 16.5V2.5C0.5 1.39543 1.39543 0.5 2.5 0.5H16.5C17.6046 0.5 18.5 1.39543 18.5 2.5V16.5C18.5 17.6046 17.6046 18.5 16.5 18.5H2.5C1.39543 18.5 0.5 17.6046 0.5 16.5Z" fill="var(--mw-icon-glyph-content-gray, #616162)"/>
<path d="M0.0524789 14.4723C2.53001 14.7269 5.87545 15.0438 8.35299 14.7892C9.80813 14.6993 11.2753 14.7435 12.7118 14.9204C14.1227 15.0191 16.3773 15.0738 17.6233 14.7892C17.8339 14.7411 18.7786 14.8733 18.9129 14.8473C19.0517 14.8204 18.8086 14.1228 18.9107 13.9617C19.1116 13.6448 18.9107 12.8346 18.9107 12.8346C18.0148 12.6518 16.761 12.3412 16.0696 11.925C15.3782 11.5088 14.8358 10.9974 14.4813 10.4275C14.2413 10.0733 14.0214 9.73879 13.8015 9.39772C13.8814 9.24686 13.9414 9.12224 13.9814 9.05665C14.7312 7.86948 16.8313 6.55113 18.8907 6.2363V5.27869L18.9107 5.23277V4.10351C18.1745 4.07737 17.012 4.38876 16.2908 4.28828C14.6612 4.05216 14.7512 3.88163 12.4818 4.10463C10.8387 4.33622 9.14552 4.37177 7.48323 4.20958C6.28324 3.94182 4.98482 3.93034 3.77426 4.17678C2.9221 4.33069 2.03748 4.39271 1.15499 4.36043C0.905064 4.10463 0.254548 4.28941 0.0546042 4.12543L0.485181 6.46586C1.14766 6.64279 1.74571 6.90953 2.24016 7.24862C2.7346 7.58771 2.95123 8.08912 3.35438 8.43355C3.77426 8.79227 4.12131 9.02559 4.34125 9.36666C4.34125 9.87722 4.34125 9.87722 3.9128 10.3878C3.05304 11.752 2.46393 12.2312 0.0546042 12.4804V13.9617C0.0546042 13.9617 -0.0668259 14.5269 0.0524789 14.4723ZM16.9206 13.7398L16.6207 13.7922C14.9664 14.0111 13.2584 13.9842 11.6221 13.7135C10.9723 13.6151 10.1918 13.484 9.77189 13.438C11.0115 13.0314 12.3419 11.9492 13.1017 10.657C13.9225 11.8938 15.2431 12.9598 16.9206 13.7398ZM13.7415 5.16719C14.3513 5.2131 15.2711 5.25245 16.2108 5.26557C15.5066 5.72994 14.8799 6.24225 14.3413 6.79381C13.8717 7.25432 13.4477 7.73411 13.0717 8.23022C12.2619 6.98402 11.4821 5.86899 10.4824 5.3574C11.5439 5.17116 12.6465 5.10681 13.7415 5.16719ZM9.18276 6.13679C10.2325 6.13679 11.3422 7.88916 12.3219 9.39772V9.43051C12.0433 10.1314 11.5871 10.7966 10.9723 11.3982C10.5336 11.8612 9.8926 12.2269 9.13277 12.4476C7.70317 12.4476 6.71418 11.0768 5.62448 9.39772C7.58393 6.40683 8.81286 6.13679 9.18276 6.13679ZM2.48462 5.57384C3.21738 5.25261 4.07305 5.07306 4.95394 5.05568C5.72372 5.1016 6.81342 5.25901 7.82313 5.37051C6.82341 5.84932 5.82369 6.87252 4.82397 8.33517C4.78468 8.28667 4.75126 8.23623 4.724 8.18431C4.07904 7.27832 3.33044 6.40567 2.48462 5.57384ZM3.74497 12.1514C4.32461 11.555 4.82626 10.9274 5.24455 10.2755C6.31425 11.8365 6.9439 12.7501 7.92241 13.5889C6.66 13.7502 6.27558 13.8662 4.99392 13.9365C4.08273 13.9086 2.75245 13.7914 1.89409 13.5889C2.18401 13.2478 2.9345 12.8871 3.30439 12.5263L3.74497 12.1514Z" fill="#64D413"/>
<path d="M9 6C9.55229 6 10 5.55228 10 5C10 4.44772 9.55229 4 9 4C8.44772 4 8 4.44772 8 5C8 5.55228 8.44772 6 9 6Z" fill="#FF13A6"/>
<path d="M5 10C5.55229 10 6 9.55228 6 9C6 8.44772 5.55229 8 5 8C4.44772 8 4 8.44772 4 9C4 9.55228 4.44772 10 5 10Z" fill="#FF13A6"/>
<path d="M13 10C13.5523 10 14 9.55228 14 9C14 8.44772 13.5523 8 13 8C12.4477 8 12 8.44772 12 9C12 9.55228 12.4477 10 13 10Z" fill="#FF13A6"/>
<path d="M9 15C9.55229 15 10 14.5523 10 14C10 13.4477 9.55229 13 9 13C8.44772 13 8 13.4477 8 14C8 14.5523 8.44772 15 9 15Z" fill="#FF13A6"/>
<path d="M17 6C17.5523 6 18 5.55228 18 5C18 4.44772 17.5523 4 17 4C16.4477 4 16 4.44772 16 5C16 5.55228 16.4477 6 17 6Z" fill="#FF13A6"/>
<path d="M17 15C17.5523 15 18 14.5523 18 14C18 13.4477 17.5523 13 17 13C16.4477 13 16 13.4477 16 14C16 14.5523 16.4477 15 17 15Z" fill="#FF13A6"/>
<path d="M2 6C2.55229 6 3 5.55228 3 5C3 4.44772 2.55229 4 2 4C1.44772 4 1 4.44772 1 5C1 5.55228 1.44772 6 2 6Z" fill="#FF13A6"/>
<path d="M2 15C2.55229 15 3 14.5523 3 14C3 13.4477 2.55229 13 2 13C1.44772 13 1 13.4477 1 14C1 14.5523 1.44772 15 2 15Z" fill="#FF13A6"/>
<path d="M0.5 16.5V2.5C0.5 1.39543 1.39543 0.5 2.5 0.5H16.5C17.6046 0.5 18.5 1.39543 18.5 2.5V16.5C18.5 17.6046 17.6046 18.5 16.5 18.5H2.5C1.39543 18.5 0.5 17.6046 0.5 16.5Z" stroke="var(--mw-icon-border-default-gray, #616161)" stroke-linecap="round"/>
<rect width="12" height="12" rx="6" transform="matrix(-1 0 0 1 23.5 11.5)" fill="var(--mw-icon-background-default-action, #CBFFBE)" stroke="var(--mw-icon-border-default-green, #008013)"/>
<path d="M21.3182 17.9999C21.5944 17.9999 21.8182 17.776 21.8182 17.4999C21.8182 17.2237 21.5944 16.9999 21.3182 16.9999V17.9999ZM13.6819 16.9999C13.4057 16.9999 13.1819 17.2237 13.1819 17.4999C13.1819 17.776 13.4057 17.9999 13.6819 17.9999V16.9999ZM18.0001 13.6816C18.0001 13.4055 17.7762 13.1816 17.5001 13.1816C17.2239 13.1816 17.0001 13.4055 17.0001 13.6816H18.0001ZM17.0001 21.318C17.0001 21.5941 17.2239 21.818 17.5001 21.818C17.7762 21.818 18.0001 21.5941 18.0001 21.318H17.0001ZM21.3182 16.9999H13.6819V17.9999H21.3182V16.9999ZM17.0001 13.6816V21.318H18.0001V13.6816H17.0001Z" fill="var(--mw-icon-glyph-content-dark-green, #02580E)"/>
</svg>
