<svg width="24" height="24" viewBox="0 0 24 24" fill="none" xmlns="http://www.w3.org/2000/svg">
<rect x="1" y="0.5" width="17" height="18" rx="2" fill="var(--mw-icon-background-default-white, #FFFFFF)"/>
<rect x="1" y="6" width="5" height="9" fill="var(--mw-icon-background-medium-yellow, #FFEF91)"/>
<rect x="6" y="4" width="12" height="6" fill="var(--mw-icon-background-medium-yellow, #FFEF91)"/>
<rect x="6" y="3" width="12" height="1" fill="#674C06"/>
<rect x="6" y="10" width="12" height="1" fill="#674C06"/>
<rect x="1" y="5" width="5" height="1" fill="#674C06"/>
<rect x="1" y="15" width="5" height="1" fill="#674C06"/>
<path d="M0.5 13.5C0.5 12 2 6.5 5.5 6.5C9 6.5 9 10.5 18.5 8.5" stroke="#DD5400" stroke-linecap="round"/>
<path d="M0.5 15.5C4.5 7.5 4.5 6.5 18.5 6.5" stroke="#1171BE"/>
<rect x="0.5" y="0.5" width="18" height="18" rx="2" stroke="var(--mw-icon-border-default-gray, #616161)"/>
<rect width="12" height="12" rx="6" transform="matrix(-1 0 0 1 23.5 11.5)" fill="var(--mw-icon-background-default-action, #CBFFBE)" stroke="var(--mw-icon-glyph-content-green, #008014)"/>
<path d="M21.3182 17.4999H13.6819M17.5001 13.6816V21.318" stroke="var(--mw-icon-glyph-content-dark-green, #02580E)" stroke-linecap="round"/>
</svg>
