<svg width="24" height="24" viewBox="0 0 24 24" fill="none" xmlns="http://www.w3.org/2000/svg">
<path d="M2.5 17V5.63849C2.5 5.54787 2.52463 5.45895 2.57125 5.38124L5.35435 0.742752C5.44471 0.592149 5.60746 0.5 5.7831 0.5H10.2169C10.3925 0.5 10.5553 0.59215 10.6457 0.742752L13.4287 5.38124C13.4754 5.45895 13.5 5.54787 13.5 5.63849V17C13.5 17.2762 13.2761 17.5 13 17.5H7.94444L3 17.5C2.72386 17.5 2.5 17.2761 2.5 17Z" fill="var(--mw-icon-background-default-selection, #B4DEFF)" stroke="var(--mw-icon-border-default-blue, #1656A7)" stroke-linejoin="round"/>
<path d="M9 3C9 3.55228 8.55228 4 8 4C7.44772 4 7 3.55228 7 3C7 2.44772 7.44772 2 8 2C8.55228 2 9 2.44772 9 3Z" fill="var(--mw-icon-glyph-content-blue, #1656A8)"/>
<rect width="12" height="12" rx="6" transform="matrix(-1 0 0 1 21.5 11.5)" fill="var(--mw-icon-background-default-action, #CBFFBE)" stroke="var(--mw-icon-border-default-green, #008013)"/>
<path d="M19.3182 17.4999H11.6818M15.5 13.6816V21.318" stroke="var(--mw-icon-glyph-content-dark-green, #02580E)" stroke-linecap="round"/>
</svg>
