<svg width="24" height="24" viewBox="0 0 24 24" fill="none" xmlns="http://www.w3.org/2000/svg">
<path d="M18.5 9.5C18.5 14.4706 14.4706 18.5 9.5 18.5C4.52944 18.5 0.5 14.4706 0.5 9.5C0.5 4.52944 4.52944 0.5 9.5 0.5C14.4706 0.5 18.5 4.52944 18.5 9.5Z" stroke="var(--mw-icon-object-primary, #616160)"/>
<path d="M9.5 15.5C9.5 18.8137 12.1863 21.5 15.5 21.5C18.8137 21.5 21.5 18.8137 21.5 15.5C21.5 12.1863 18.8137 9.5 15.5 9.5C12.1863 9.5 9.5 12.1863 9.5 15.5Z" fill="var(--mw-icon-background-default-action, #CBFFBE)" stroke="var(--mw-icon-glyph-content-green, #008014)"/>
<path d="M19.3182 15.4999H11.6819M15.5001 11.6816V19.318" stroke="var(--mw-icon-glyph-content-dark-green, #02580E)" stroke-linecap="round"/>
</svg>
