<svg width="24" height="24" viewBox="0 0 24 24" fill="none" xmlns="http://www.w3.org/2000/svg">
<path d="M22.5 19.6428V13.9285L17 16.7856V22.4999L22.5 19.6428Z" fill="var(--mw-icon-background-red, #FF9D9A)" stroke="var(--mw-icon-border-default-red, #902622)" stroke-linecap="round" stroke-linejoin="round"/>
<path d="M11.5 19.6428V13.9285L17 16.7856V22.4999L11.5 19.6428Z" fill="var(--mw-icon-background-red, #FF9D9A)" stroke="var(--mw-icon-border-default-red, #902622)" stroke-linecap="round" stroke-linejoin="round"/>
<path d="M22.5 13.9286L17 11.0714L11.5 13.9286L17 16.7857L22.5 13.9286Z" fill="var(--mw-icon-background-red, #FF9D9A)" stroke="var(--mw-icon-border-default-red, #902622)" stroke-linecap="round" stroke-linejoin="round"/>
<path d="M11.5 19.6428V13.9285L6 16.7856V22.4999L11.5 19.6428Z" fill="var(--mw-icon-background-default-action, #CBFFBE)" stroke="var(--mw-icon-border-default-green, #008013)" stroke-linecap="round" stroke-linejoin="round"/>
<path d="M0.5 19.6428V13.9285L6 16.7856V22.4999L0.5 19.6428Z" fill="var(--mw-icon-background-default-action, #CBFFBE)" stroke="var(--mw-icon-border-default-green, #008013)" stroke-linecap="round" stroke-linejoin="round"/>
<path d="M11.5 13.9286L6 11.0714L0.5 13.9286L6 16.7857L11.5 13.9286Z" fill="var(--mw-icon-background-default-action, #CBFFBE)" stroke="var(--mw-icon-border-default-green, #008013)" stroke-linecap="round" stroke-linejoin="round"/>
<path d="M17 11.0714V5.35712L11.5 8.21426V13.9285L17 11.0714Z" fill="var(--mw-icon-background-medium-blue, #83CAFF)" stroke="var(--mw-icon-border-default-blue, #1656A7)" stroke-linecap="round" stroke-linejoin="round"/>
<path d="M6 11.0714V5.35712L11.5 8.21426V13.9285L6 11.0714Z" fill="var(--mw-icon-background-medium-blue, #83CAFF)" stroke="var(--mw-icon-border-default-blue, #1656A7)" stroke-linecap="round" stroke-linejoin="round"/>
<path d="M17 5.35714L11.5 2.5L6 5.35714L11.5 8.21429L17 5.35714Z" fill="var(--mw-icon-background-medium-blue, #83CAFF)" stroke="var(--mw-icon-border-default-blue, #1656A7)" stroke-linecap="round" stroke-linejoin="round"/>
</svg>
