<svg width="24" height="24" viewBox="0 0 24 24" fill="none" xmlns="http://www.w3.org/2000/svg">
<path d="M0.5 2.5C0.5 1.39543 1.39543 0.5 2.5 0.5H20.5C21.6046 0.5 22.5 1.39543 22.5 2.5V11.5V20.5C22.5 21.6046 21.6046 22.5 20.5 22.5H11.5H2.5C1.39543 22.5 0.5 21.6046 0.5 20.5V11.5V2.5Z" fill="var(--mw-icon-background-medium-blue, #83CAFF)" stroke="var(--mw-icon-object-primary, #616160)"/>
<path d="M4.5 11.5C4.5 15.366 7.63401 18.5 11.5 18.5C15.366 18.5 18.5 15.366 18.5 11.5C18.5 7.63401 15.366 4.5 11.5 4.5C7.63401 4.5 4.5 7.63401 4.5 11.5Z" fill="var(--mw-icon-background-default-action, #CBFFBE)" stroke="var(--mw-icon-glyph-content-green, #008014)"/>
<path d="M15.5 11.4999H7.5M11.5 7.50002V15.5" stroke="var(--mw-icon-glyph-content-green, #008014)" stroke-linecap="round"/>
</svg>
