<svg width="24" height="24" viewBox="0 0 24 24" fill="none" xmlns="http://www.w3.org/2000/svg">
<path d="M4.5 0.5H18.5V14.4998H4.5V0.5Z" fill="var(--mw-icon-background-default-white, #FFFFFF)" stroke="var(--mw-icon-border-default-gray, #616161)" stroke-linejoin="round"/>
<path d="M0.5 4.5L3.5 7.5L0.5 10.5M19.5 4.5L22.5 7.5L19.5 10.5" stroke="var(--mw-icon-object-primary, #616160)" stroke-linecap="round" stroke-linejoin="round"/>
<path d="M22.5 23.5C23.0523 23.5 23.5 23.0523 23.5 22.5L23.5 13.5C23.5 12.9477 23.0523 12.5 22.5 12.5L13.5 12.5C12.9477 12.5 12.5 12.9477 12.5 13.5L12.5 22.5C12.5 23.0523 12.9477 23.5 13.5 23.5L22.5 23.5Z" fill="white" stroke="var(--mw-icon-border-default-gray, #616161)"/>
<path d="M19.6928 20.1374H16.2952L15.5843 22H14L17.3133 14H18.6807L22 22H20.4096L19.6928 20.1374ZM16.7229 19.0165H19.2651L17.994 15.6978L16.7229 19.0165Z" fill="var(--mw-icon-glyph-content-gray, #616162)"/>
</svg>
