<svg width="24" height="24" viewBox="0 0 24 24" fill="none" xmlns="http://www.w3.org/2000/svg">
<circle cx="11.5" cy="11.5" r="11" fill="var(--mw-icon-glyph-content-dark-gray, #333333)"/>
<path d="M11.5 4C10.6716 4 10 4.67157 10 5.5V9L4.68378 10.7721C4.27544 10.9082 4.00001 11.2903 4.00001 11.7208L4 12.7049C4 12.8594 4.13872 12.9769 4.2911 12.9515L10 12V15.7143L7.30305 16.8701C7.11921 16.9489 7.00001 17.1297 7.00001 17.3297V17.7207C7.00001 17.8697 7.12953 17.9856 7.27762 17.9692L10.4161 17.6204C10.4161 17.6204 10.9076 18.6719 10.9092 18.6761C10.9819 18.8696 11.1676 19 11.3772 19H11.6229C11.8324 19 12.0181 18.8696 12.0908 18.6761C12.0924 18.6719 12.5839 17.6204 12.5839 17.6204L15.7224 17.9692C15.8705 17.9856 16 17.8697 16 17.7207V17.3297C16 17.1297 15.8808 16.9489 15.697 16.8701L13 15.7143V11.9349L18.7063 12.9479C18.8595 12.9751 19 12.8573 19 12.7017L19 11.7208C19 11.2903 18.7246 10.9082 18.3162 10.7721L13 9V5.5C13 4.67157 12.3284 4 11.5 4Z" fill="var(--mw-icon-background-default-white, #FFFFFF)"/>
<path d="M4.07538 4.07544L5 5M18 18L18.9246 18.9247M4.07538 18.9247L5 18M18 5L18.9246 4.07544" stroke="var(--mw-icon-background-default-dark-gray, #A6A6A6)" stroke-linecap="round"/>
<path d="M11.5 1V2.5M11.5 20.5V22M1 11.5H2.5M20.5 11.5H22" stroke="var(--mw-icon-background-default-highlight, #FFE864)" stroke-linecap="round"/>
<circle cx="11.5" cy="11.5" r="11" stroke="var(--mw-icon-glyph-disabled-gray, #888889)"/>
</svg>
