<svg width="24" height="24" viewBox="0 0 24 24" fill="none" xmlns="http://www.w3.org/2000/svg">
<circle cx="11.5" cy="11.5" r="11" fill="var(--mw-icon-glyph-content-dark-gray, #333333)" stroke="var(--mw-icon-glyph-disabled-gray, #888889)"/>
<path d="M20.5 11.5H18.5M4.5 11.5H2.5M11.5 20.5V18.5" stroke="var(--mw-icon-background-default-white, #FFFFFF)" stroke-linecap="round"/>
<path d="M3.96242 6.58215C3.2384 7.69187 2.76834 8.94777 2.58581 10.2602C2.40328 11.5726 2.51278 12.9091 2.9065 14.1742" stroke="#E11B14" stroke-linecap="round"/>
<path d="M2.94269 14.2878C3.32568 15.4634 3.94678 16.5475 4.76726 17.4724C5.58775 18.3974 6.59 19.1433 7.71152 19.6638" stroke="var(--mw-icon-background-default-highlight, #FFE864)" stroke-linecap="round"/>
<path d="M11.5 2.5C12.8497 2.5 14.1822 2.80357 15.3987 3.38824C16.6152 3.9729 17.6846 4.82369 18.5277 5.87762C19.3709 6.93155 19.9663 8.16163 20.2697 9.47678C20.5731 10.7919 20.5768 12.1585 20.2806 13.4753C19.9844 14.7921 19.3957 16.0254 18.5583 17.0839C17.7209 18.1424 16.6562 18.9991 15.4429 19.5904C14.2296 20.1817 12.8989 20.4925 11.5492 20.4999C10.1995 20.5072 8.86543 20.2109 7.64575 19.6329" stroke="#3BAA32" stroke-linecap="round"/>
<path d="M11.5 13.5V11.5" stroke="var(--mw-icon-background-default-dark-gray, #A6A6A6)" stroke-linecap="round"/>
<path d="M11.5 11.5V4.5" stroke="white" stroke-linecap="round"/>
<circle cx="11.5" cy="11.5" r="1" transform="rotate(-180 11.5 11.5)" fill="var(--mw-icon-glyph-content-dark-gray, #333333)" stroke="var(--mw-icon-background-default-dark-gray, #A6A6A6)"/>
</svg>
