<svg width="24" height="24" viewBox="0 0 24 24" fill="none" xmlns="http://www.w3.org/2000/svg">
<path fill-rule="evenodd" clip-rule="evenodd" d="M12.5 23.499V19.499C18.0229 19.4988 22.5 15.2456 22.5 9.99902C22.5 4.75244 18.0229 0.499226 12.5 0.499023C5.8728 0.499023 0.5 5.64775 0.5 11.999C0.5 18.3503 5.8728 23.499 12.5 23.499Z" fill="var(--mw-icon-glyph-content-light-blue, #278CDD)"/>
<path d="M12.5 23.499V23.999C12.7761 23.999 13 23.7752 13 23.499H12.5ZM12.5 19.499L12.5 18.999C12.2238 18.999 12 19.2229 12 19.499H12.5ZM12.5 0.499023L12.5 -0.000976562H12.5V0.499023ZM13 23.499V19.499H12V23.499H13ZM12.5 19.999C18.2745 19.9988 23 15.5456 23 9.99902H22C22 14.9456 17.7712 18.9988 12.5 18.999L12.5 19.999ZM23 9.99902C23 4.45243 18.2745 -0.000764638 12.5 -0.000976562L12.5 0.999023C17.7712 0.999217 22 5.05245 22 9.99902H23ZM12.5 -0.000976562C5.61693 -0.000976562 0 5.35176 0 11.999H1C1 5.94374 6.12867 0.999023 12.5 0.999023V-0.000976562ZM0 11.999C0 18.6463 5.61693 23.999 12.5 23.999V22.999C6.12867 22.999 1 18.0543 1 11.999H0Z" fill="var(--mw-icon-glyph-content-light-blue, #278CDD)"/>
<path d="M14.3166 3.12417C14.3778 2.9578 14.6217 2.9578 14.6829 3.12417L15.9138 6.46703C15.9328 6.51859 15.9741 6.55958 16.0271 6.57926L19.3753 7.82438C19.5413 7.88611 19.5413 8.11267 19.3753 8.1744L16.0271 9.41952C15.9741 9.4392 15.9328 9.48019 15.9138 9.53175L14.6829 12.8746C14.6217 13.041 14.3778 13.041 14.3166 12.8746L13.0857 9.53175C13.0667 9.48019 13.0254 9.4392 12.9725 9.41952L9.62424 8.1744C9.45826 8.11267 9.45826 7.88611 9.62424 7.82438L12.9725 6.57926C13.0254 6.55958 13.0667 6.51859 13.0857 6.46703L14.3166 3.12417Z" fill="var(--mw-icon-background-default-white, #FFFFFF)"/>
<path d="M7.31873 11.1229C7.37927 10.9582 7.62025 10.9582 7.68078 11.1229L8.5079 13.374C8.52666 13.425 8.56754 13.4656 8.61983 13.4851L10.8767 14.3261C11.0408 14.3872 11.0408 14.6116 10.8767 14.6727L8.61983 15.5137C8.56754 15.5332 8.52666 15.5738 8.5079 15.6248L7.68078 17.8758C7.62025 18.0406 7.37927 18.0406 7.31873 17.8758L6.49161 15.6248C6.47286 15.5738 6.43197 15.5332 6.37969 15.5137L4.12277 14.6727C3.95875 14.6116 3.95875 14.3872 4.12277 14.3261L6.37969 13.4851C6.43197 13.4656 6.47286 13.425 6.49161 13.374L7.31873 11.1229Z" fill="white"/>
</svg>
