<svg width="24" height="24" viewBox="0 0 24 24" fill="none" xmlns="http://www.w3.org/2000/svg">
<path d="M20.5 0.5H2.5C1.39543 0.5 0.5 1.39543 0.5 2.5V20.5C0.5 21.6046 1.39543 22.5 2.5 22.5H20.5C21.6046 22.5 22.5 21.6046 22.5 20.5V2.5C22.5 1.39543 21.6046 0.5 20.5 0.5Z" fill="var(--mw-icon-background-default-white, #FFFFFF)" stroke="var(--mw-icon-border-default-gray, #616161)" stroke-linecap="round"/>
<path d="M7.22059 7.11765L13.8382 10.6471C14.2727 10.8788 14.7569 11 15.2493 11H18H19.5C20.3284 11 21 11.6716 21 12.5C21 13.3284 20.3284 14 19.5 14H18H10.0353C9.67896 14 9.32312 13.9728 8.97091 13.9186L4.31378 13.2021C3.51781 13.0797 2.87294 12.4917 2.67761 11.7104L2 9H2.82461C2.93815 9 3.0483 9.03864 3.13696 9.10957L4.95217 10.5617C5.3068 10.8454 5.74742 11 6.20156 11H9.5L5 7H6.75C6.91414 7 7.07576 7.0404 7.22059 7.11765Z" fill="var(--mw-icon-glyph-content-gray, #616162)"/>
</svg>
