<svg width="24" height="24" viewBox="0 0 24 24" fill="none" xmlns="http://www.w3.org/2000/svg">
<path d="M13.5 6.5L15.5 0.5L17.5 6.5L23.5 8.5L17.5 10.5L15.5 16.5L13.5 10.5L7.5 8.5L13.5 6.5Z" fill="var(--mw-icon-object-primary, #616160)"/>
<path d="M4 17L5.5 13.5L7 17L10.5 18.5L7 20L5.5 23.5L4 20L0.5 18.5L4 17Z" fill="var(--mw-icon-object-primary, #616160)"/>
<path d="M13.5 6.5L15.5 0.5L17.5 6.5L23.5 8.5L17.5 10.5L15.5 16.5L13.5 10.5L7.5 8.5L13.5 6.5Z" stroke="var(--mw-icon-object-primary, #616160)" stroke-linejoin="round"/>
<path d="M4 17L5.5 13.5L7 17L10.5 18.5L7 20L5.5 23.5L4 20L0.5 18.5L4 17Z" stroke="var(--mw-icon-object-primary, #616160)" stroke-linejoin="round"/>
</svg>
