<svg width="24" height="24" viewBox="0 0 24 24" fill="none" xmlns="http://www.w3.org/2000/svg">
<path d="M18.5 9.5C18.5 14.4706 14.4706 18.5 9.5 18.5C4.52944 18.5 0.5 14.4706 0.5 9.5C0.5 4.52944 4.52944 0.5 9.5 0.5C14.4706 0.5 18.5 4.52944 18.5 9.5ZM5 9.5C5 11.9853 7.01472 14 9.5 14C11.9853 14 14 11.9853 14 9.5C14 7.01472 11.9853 5 9.5 5C7.01472 5 5 7.01472 5 9.5Z" fill="var(--mw-icon-background-default-white, #FFFFFF)"/>
<circle cx="9.5" cy="9.5" r="9" stroke="var(--mw-icon-border-default-gray, #616161)"/>
<circle cx="9.5" cy="9.5" r="5" stroke="var(--mw-icon-border-default-gray, #616161)"/>
<path d="M18 9.5C18 10.3284 17.3284 11 16.5 11C15.6716 11 15 10.3284 15 9.5C15 8.67157 15.6716 8 16.5 8C17.3284 8 18 8.67157 18 9.5Z" fill="var(--mw-icon-glyph-content-dark-gray, #333333)"/>
<path d="M11 2.5C11 3.32843 10.3284 4 9.5 4C8.67157 4 8 3.32843 8 2.5C8 1.67157 8.67157 1 9.5 1C10.3284 1 11 1.67157 11 2.5Z" fill="var(--mw-icon-glyph-content-dark-gray, #333333)"/>
<path d="M11 16.5C11 17.3284 10.3284 18 9.5 18C8.67157 18 8 17.3284 8 16.5C8 15.6716 8.67157 15 9.5 15C10.3284 15 11 15.6716 11 16.5Z" fill="var(--mw-icon-glyph-content-dark-gray, #333333)"/>
<path d="M16 14.5C16 15.3284 15.3284 16 14.5 16C13.6716 16 13 15.3284 13 14.5C13 13.6716 13.6716 13 14.5 13C15.3284 13 16 13.6716 16 14.5Z" fill="var(--mw-icon-glyph-content-dark-gray, #333333)"/>
<path d="M16 4.5C16 5.32843 15.3284 6 14.5 6C13.6716 6 13 5.32843 13 4.5C13 3.67157 13.6716 3 14.5 3C15.3284 3 16 3.67157 16 4.5Z" fill="var(--mw-icon-glyph-content-dark-gray, #333333)"/>
<path d="M6 14.5C6 15.3284 5.32843 16 4.5 16C3.67157 16 3 15.3284 3 14.5C3 13.6716 3.67157 13 4.5 13C5.32843 13 6 13.6716 6 14.5Z" fill="var(--mw-icon-glyph-content-dark-gray, #333333)"/>
<path d="M6 4.5C6 5.32843 5.32843 6 4.5 6C3.67157 6 3 5.32843 3 4.5C3 3.67157 3.67157 3 4.5 3C5.32843 3 6 3.67157 6 4.5Z" fill="var(--mw-icon-glyph-content-dark-gray, #333333)"/>
<path d="M4 9.5C4 10.3284 3.32843 11 2.5 11C1.67157 11 1 10.3284 1 9.5C1 8.67157 1.67157 8 2.5 8C3.32843 8 4 8.67157 4 9.5Z" fill="var(--mw-icon-glyph-content-dark-gray, #333333)"/>
<path d="M14.0147 10.5L18.9853 10.5L22.5 14.0147V18.9853L18.9853 22.5H14.0147L10.5 18.9853L10.5 14.0147L14.0147 10.5Z" fill="var(--mw-icon-alert-red, #B7313C)" stroke="var(--mw-icon-border-default-red, #902622)" stroke-linejoin="round"/>
<path d="M17 19.5C17 19.7761 16.7761 20 16.5 20C16.2239 20 16 19.7761 16 19.5C16 19.2239 16.2239 19 16.5 19C16.7761 19 17 19.2239 17 19.5Z" fill="white"/>
<path fill-rule="evenodd" clip-rule="evenodd" d="M16.5 13C16.7761 13 17 13.2239 17 13.5V17.5C17 17.7761 16.7761 18 16.5 18C16.2239 18 16 17.7761 16 17.5V13.5C16 13.2239 16.2239 13 16.5 13Z" fill="white"/>
</svg>
