<svg width="24" height="24" viewBox="0 0 24 24" fill="none" xmlns="http://www.w3.org/2000/svg">
<path d="M0.5 2.5C0.5 1.39543 1.39543 0.5 2.5 0.5H16.5C17.6046 0.5 18.5 1.39543 18.5 2.5V16.5C18.5 17.6046 17.6046 18.5 16.5 18.5H2.5C1.39543 18.5 0.5 17.6046 0.5 16.5V2.5Z" fill="var(--mw-icon-background-default-white, #FFFFFF)" stroke="var(--mw-icon-border-default-gray, #616161)" stroke-linejoin="round"/>
<path d="M18.3839 1.03068C18.049 0.853727 17.6959 0.706631 17.3281 0.592938L17.3087 0.5H13.6913L13.6719 0.592938C13.3041 0.706632 12.951 0.415979 12.6161 0.592938L11.8061 0.5H9.47917L8.57891 1.40026L10.0307 3.61612C9.85373 3.95102 9.70663 4.30414 9.59294 4.67193L7 5.21212V7.78788L9.59294 8.32808C9.70663 8.69586 9.85372 9.04897 10.0307 9.38387L8.5789 11.5997L10.4002 13.4211L12.6161 11.9693C12.951 12.1463 13.3041 12.2934 13.6719 12.4071L14.2121 15H16.7879L17.3281 12.4071C17.6959 12.2934 18.049 12.1463 18.3839 11.9693L18.5 12.0454V8.1589C17.9625 8.96725 17.0435 9.5 16 9.5C14.3431 9.5 13 8.15685 13 6.5C13 4.84315 14.3431 3.5 16 3.5C17.0435 3.5 17.9625 4.03275 18.5 4.8411V0.954613L18.3839 1.03068Z" fill="var(--mw-icon-glyph-content-gray, #616162)"/>
<path fill-rule="evenodd" clip-rule="evenodd" d="M8.69238 18.5L8.79258 18.3998L7.68241 16.7053C7.81774 16.4492 7.93022 16.1792 8.01717 15.8979L10 15.4848V13.5152L8.01717 13.1021C7.93022 12.8208 7.81774 12.5508 7.68242 12.2947L8.79259 10.6002L7.3998 9.20741L5.70533 10.3176C5.44923 10.1823 5.17919 10.0698 4.89794 9.98283L4.48485 8H2.51515L2.10206 9.98284C1.82081 10.0698 1.55077 10.1823 1.29466 10.3176L0.5 9.79695V17C0.5 17.8284 1.17157 18.5 2 18.5H8.69238ZM5 14.5C5 15.3284 4.32843 16 3.5 16C2.67157 16 2 15.3284 2 14.5C2 13.6716 2.67157 13 3.5 13C4.32843 13 5 13.6716 5 14.5Z" fill="var(--mw-icon-glyph-content-gray, #616162)"/>
<path d="M14.0147 10.5L18.9853 10.5L22.5 14.0147V18.9853L18.9853 22.5H14.0147L10.5 18.9853L10.5 14.0147L14.0147 10.5Z" fill="var(--mw-icon-alert-red, #B7313C)" stroke="var(--mw-icon-border-default-red, #902622)" stroke-linejoin="round"/>
<path d="M17 19.5C17 19.7761 16.7761 20 16.5 20C16.2239 20 16 19.7761 16 19.5C16 19.2239 16.2239 19 16.5 19C16.7761 19 17 19.2239 17 19.5Z" fill="white"/>
<path fill-rule="evenodd" clip-rule="evenodd" d="M16.5 13C16.7761 13 17 13.2239 17 13.5V17.5C17 17.7761 16.7761 18 16.5 18C16.2239 18 16 17.7761 16 17.5V13.5C16 13.2239 16.2239 13 16.5 13Z" fill="white"/>
</svg>
