<svg width="24" height="24" viewBox="0 0 24 24" fill="none" xmlns="http://www.w3.org/2000/svg">
<path d="M11.5 6.5V8.5M11.5 8.5H15.5V10.5M11.5 8.5V7.5M11.5 8.5H7.5V10.5" stroke="var(--mw-icon-glyph-disabled-gray, #888889)" stroke-linecap="square" stroke-linejoin="round"/>
<path d="M18.5 15.5V11.5H12.5V15.5H18.5Z" fill="var(--mw-icon-background-medium-yellow, #FFEF91)"/>
<path d="M10.5 15.5V11.5H4.5V15.5H10.5Z" fill="var(--mw-icon-background-medium-yellow, #FFEF91)"/>
<path d="M6.5 22.5V18.5H0.5V22.5H6.5Z" fill="var(--mw-icon-background-medium-yellow, #FFEF91)"/>
<path d="M14.5 22.5V18.5H8.5V22.5H14.5Z" fill="var(--mw-icon-background-medium-yellow, #FFEF91)"/>
<path d="M22.5 22.5V18.5H16.5V22.5H22.5Z" fill="var(--mw-icon-background-medium-yellow, #FFEF91)"/>
<path d="M18.5 15.5V11.5H12.5V15.5H18.5Z" stroke="#674C06" stroke-linecap="square" stroke-linejoin="round"/>
<path d="M10.5 15.5V11.5H4.5V15.5H10.5Z" stroke="#674C06" stroke-linecap="square" stroke-linejoin="round"/>
<path d="M6.5 22.5V18.5H0.5V22.5H6.5Z" stroke="#674C06" stroke-linecap="square" stroke-linejoin="round"/>
<path d="M14.5 22.5V18.5H8.5V22.5H14.5Z" stroke="#674C06" stroke-linecap="square" stroke-linejoin="round"/>
<path d="M22.5 22.5V18.5H16.5V22.5H22.5Z" stroke="#674C06" stroke-linecap="square" stroke-linejoin="round"/>
<path d="M14.5 5.5V1.5H8.5V5.5H14.5Z" fill="var(--mw-icon-background-default-medium-gray, #D9D9D9)" stroke="var(--mw-icon-glyph-disabled-gray, #888889)" stroke-linecap="square" stroke-linejoin="round"/>
</svg>
