<svg width="24" height="24" viewBox="0 0 24 24" fill="none" xmlns="http://www.w3.org/2000/svg">
<path d="M1.5 4.5H17.5V14.5C17.5 15.0523 17.0523 15.5 16.5 15.5H2.5C1.94772 15.5 1.5 15.0523 1.5 14.5V4.5Z" fill="#F5FAFF" stroke="var(--mw-icon-border-default-blue, #1656A7)"/>
<path d="M7.5 6.49997H11.5" stroke="var(--mw-icon-glyph-content-blue, #1656A8)" stroke-linecap="round"/>
<path d="M0.5 1C0.5 0.723858 0.723858 0.5 1 0.5H18C18.2761 0.5 18.5 0.723858 18.5 1V4.5H0.5V1Z" fill="#F5FAFF" stroke="var(--mw-icon-border-default-blue, #1656A7)" stroke-linejoin="round"/>
<path d="M23.5 13.5C23.5 12.9477 23.0523 12.5 22.5 12.5H13.5C12.9477 12.5 12.5 12.9477 12.5 13.5V22.5C12.5 23.0523 12.9477 23.5 13.5 23.5H22.5C23.0523 23.5 23.5 23.0523 23.5 22.5V13.5Z" fill="var(--mw-icon-background-default-action, #CBFFBE)" stroke="var(--mw-icon-glyph-content-green, #008014)"/>
<path d="M16 19H22V20H16V19Z" fill="var(--mw-icon-glyph-content-dark-green, #02580E)"/>
<path d="M16 21H21V22H16V21Z" fill="var(--mw-icon-glyph-content-dark-green, #02580E)"/>
<path d="M14 19H15V20H14V19Z" fill="var(--mw-icon-glyph-content-dark-green, #02580E)"/>
<path d="M14 21H15V22H14V21Z" fill="var(--mw-icon-glyph-content-dark-green, #02580E)"/>
<path d="M16 16L17.5 17.5L20.5 14.5" stroke="var(--mw-icon-glyph-content-dark-green, #02580E)" stroke-linecap="round" stroke-linejoin="round"/>
</svg>
