<svg width="24" height="24" viewBox="0 0 24 24" fill="none" xmlns="http://www.w3.org/2000/svg">
<path d="M0.5 18.5V4.5C0.5 2.29086 2.29086 0.5 4.5 0.5H18.5C20.7091 0.5 22.5 2.29086 22.5 4.5V18.5C22.5 20.7091 20.7091 22.5 18.5 22.5H4.5C2.29086 22.5 0.5 20.7091 0.5 18.5Z" fill="#E6E6E6"/>
<path d="M3.5 12.5V4.5C3.5 3.94772 3.94772 3.5 4.5 3.5H18.5C19.0523 3.5 19.5 3.94772 19.5 4.5V12.5C19.5 13.0523 19.0523 13.5 18.5 13.5H4.5C3.94772 13.5 3.5 13.0523 3.5 12.5Z" fill="#00A3A3"/>
<circle cx="5" cy="18" r="1.5" fill="var(--mw-icon-background-default-dark-gray, #A6A6A6)" stroke="var(--mw-icon-border-default-gray, #616161)" stroke-linejoin="round"/>
<circle cx="18" cy="18" r="1.5" fill="var(--mw-icon-background-default-dark-gray, #A6A6A6)" stroke="var(--mw-icon-border-default-gray, #616161)" stroke-linejoin="round"/>
<path d="M3.5 9.10486C4.56667 7.73791 5.63333 7.73791 6.7 9.10486C7.60969 10.4906 9.17636 11.351 9.9 9.10486C11.5 2.55691 12.0333 6.41252 13.1 9.10486C14.7114 13.0878 15.2448 11.3992 16.3 9.10486C17.3667 6.81056 18.4333 6.81056 19.5 9.10486" stroke="var(--mw-icon-background-default-white, white)"/>
<path d="M3.5 12.5V4.5C3.5 3.94772 3.94772 3.5 4.5 3.5H18.5C19.0523 3.5 19.5 3.94772 19.5 4.5V12.5C19.5 13.0523 19.0523 13.5 18.5 13.5H4.5C3.94772 13.5 3.5 13.0523 3.5 12.5Z" stroke="#02555C" stroke-linecap="round"/>
<path d="M0.5 18.5V4.5C0.5 2.29086 2.29086 0.5 4.5 0.5H18.5C20.7091 0.5 22.5 2.29086 22.5 4.5V18.5C22.5 20.7091 20.7091 22.5 18.5 22.5H4.5C2.29086 22.5 0.5 20.7091 0.5 18.5Z" stroke="var(--mw-icon-border-default-gray, #616161)" stroke-linecap="round"/>

</svg>
