<svg width="24" height="24" viewBox="0 0 24 24" fill="none" xmlns="http://www.w3.org/2000/svg">
<path d="M10 6.5V6H9V6.5H10ZM14.5 7.5H15C15 7.22386 14.7761 7 14.5 7V7.5ZM14 9.5V10H15V9.5H14ZM10 5.5V5H9V5.5H10ZM4.5 7.5V7C4.22386 7 4 7.22386 4 7.5H4.5ZM4 9.5V10H5V9.5H4ZM9 6.5V7.5H10V6.5H9ZM9.5 8H14.5V7H9.5V8ZM14 7.5V9.5H15V7.5H14ZM9 5.5V7.5H10V5.5H9ZM9.5 7H4.5V8H9.5V7ZM4 7.5V9.5H5V7.5H4Z" fill="var(--mw-icon-glyph-disabled-gray, #888889)"/>
<path d="M18.5 14.5V10.5H10.5V14.5H18.5Z" fill="var(--mw-icon-background-medium-yellow, #FFEF91)"/>
<path d="M8.5 14.5V10.5H0.5V14.5H8.5Z" fill="var(--mw-icon-background-medium-yellow, #FFEF91)"/>
<path d="M18.5 14.5V10.5H10.5V14.5H18.5Z" stroke="#674C06" stroke-linecap="square" stroke-linejoin="round"/>
<path d="M8.5 14.5V10.5H0.5V14.5H8.5Z" stroke="#674C06" stroke-linecap="square" stroke-linejoin="round"/>
<path d="M13.5 4.5V0.5H5.5V4.5H13.5Z" fill="var(--mw-icon-background-default-selection, #B4DEFF)" stroke="var(--mw-icon-border-default-blue, #1656A7)" stroke-linecap="square" stroke-linejoin="round"/>
<path d="M23.5 13.5C23.5 12.9477 23.0523 12.5 22.5 12.5H13.5C12.9477 12.5 12.5 12.9477 12.5 13.5V22.5C12.5 23.0523 12.9477 23.5 13.5 23.5H22.5C23.0523 23.5 23.5 23.0523 23.5 22.5V13.5Z" fill="var(--mw-icon-background-default-white, #FFFFFF)" stroke="var(--mw-icon-border-default-gray, #616161)"/>
<path d="M14 20H16V22H14V20Z" fill="#0072BD"/>
<path d="M18 14H20V22H18V14Z" fill="#0072BD"/>
<path d="M16 16H18V22H16V16Z" fill="#D95319"/>
<path d="M20 18H22V22H20V18Z" fill="#D95319"/>
</svg>
