<svg width="24" height="24" viewBox="0 0 24 24" fill="none" xmlns="http://www.w3.org/2000/svg">
<path d="M0.5 2.5C0.5 1.39543 1.39543 0.5 2.5 0.5H20.5C21.6046 0.5 22.5 1.39543 22.5 2.5V20.5C22.5 21.6046 21.6046 22.5 20.5 22.5H2.5C1.39543 22.5 0.5 21.6046 0.5 20.5V2.5Z" fill="var(--mw-icon-background-default-white, #FFFFFF)" stroke="var(--mw-icon-border-default-gray, #616161)"/>
<path d="M5.5 17.5L11.5 5.5L17.5 17.5" stroke="var(--mw-icon-glyph-content-yellow, #674C07)" stroke-linecap="square" stroke-linejoin="round"/>
<path d="M17.737 8.67793C17.151 9.82818 16.2582 10.794 15.1575 11.4685C14.0568 12.143 12.791 12.5 11.5 12.5C10.209 12.5 8.94323 12.143 7.84251 11.4685C6.74179 10.794 5.84904 9.82818 5.26295 8.67793" stroke="var(--mw-icon-glyph-content-yellow, #674C07)" stroke-linecap="round" stroke-dasharray="1.5 1.5"/>
<path d="M13.5 5.5C13.5 6.60457 12.6046 7.5 11.5 7.5C10.3954 7.5 9.5 6.60457 9.5 5.5C9.5 4.39543 10.3954 3.5 11.5 3.5C12.6046 3.5 13.5 4.39543 13.5 5.5Z" fill="var(--mw-icon-background-medium-yellow, #FFEF91)"/>
<path d="M7.5 17.5C7.5 18.6046 6.60457 19.5 5.5 19.5C4.39543 19.5 3.5 18.6046 3.5 17.5C3.5 16.3954 4.39543 15.5 5.5 15.5C6.60457 15.5 7.5 16.3954 7.5 17.5Z" fill="var(--mw-icon-background-medium-yellow, #FFEF91)"/>
<path d="M19.5 17.5C19.5 18.6046 18.6046 19.5 17.5 19.5C16.3954 19.5 15.5 18.6046 15.5 17.5C15.5 16.3954 16.3954 15.5 17.5 15.5C18.6046 15.5 19.5 16.3954 19.5 17.5Z" fill="var(--mw-icon-background-medium-yellow, #FFEF91)"/>
<path d="M13.5 5.5C13.5 6.60457 12.6046 7.5 11.5 7.5C10.3954 7.5 9.5 6.60457 9.5 5.5C9.5 4.39543 10.3954 3.5 11.5 3.5C12.6046 3.5 13.5 4.39543 13.5 5.5Z" stroke="var(--mw-icon-glyph-content-yellow, #674C07)"/>
<path d="M7.5 17.5C7.5 18.6046 6.60457 19.5 5.5 19.5C4.39543 19.5 3.5 18.6046 3.5 17.5C3.5 16.3954 4.39543 15.5 5.5 15.5C6.60457 15.5 7.5 16.3954 7.5 17.5Z" stroke="var(--mw-icon-glyph-content-yellow, #674C07)"/>
<path d="M19.5 17.5C19.5 18.6046 18.6046 19.5 17.5 19.5C16.3954 19.5 15.5 18.6046 15.5 17.5C15.5 16.3954 16.3954 15.5 17.5 15.5C18.6046 15.5 19.5 16.3954 19.5 17.5Z" stroke="var(--mw-icon-glyph-content-yellow, #674C07)"/>
</svg>
