<svg width="24" height="24" viewBox="0 0 24 24" fill="none" xmlns="http://www.w3.org/2000/svg">
<path d="M20.5 0.5H2.5C1.39543 0.5 0.5 1.39543 0.5 2.5V20.5C0.5 21.6046 1.39543 22.5 2.5 22.5H20.5C21.6046 22.5 22.5 21.6046 22.5 20.5V2.5C22.5 1.39543 21.6046 0.5 20.5 0.5Z" fill="var(--mw-icon-background-default-white, #FFFFFF)" stroke="var(--mw-icon-border-default-gray, #616161)" stroke-linecap="round"/>
<path d="M4.5 18.5V2.5C13.0333 2.5 20.5 9.43333 20.5 18.5H4.5Z" fill="var(--mw-icon-background-lightest-blue, #E2F0FF)" stroke="var(--mw-icon-borderColor-light-blue, #268CDD)" stroke-linejoin="round"/>
<path d="M5.02081 22V18" stroke="var(--mw-icon-glyph-disabled-gray, #888889)" stroke-width="2"/>
<path d="M11 7.02081L8.02081 10V13L10.0208 15H13.0208L16 12.0208" stroke="var(--mw-icon-glyph-content-dark-gray, #333333)" stroke-width="2"/>
<path d="M5 18L9 14" stroke="var(--mw-icon-glyph-content-dark-gray, #333333)" stroke-width="2"/>
<circle cx="5" cy="18" r="1.5" fill="white" stroke="var(--mw-icon-glyph-disabled-gray, #888889)"/>
</svg>
