<svg width="24" height="24" viewBox="0 0 24 24" fill="none" xmlns="http://www.w3.org/2000/svg">
<path d="M7.5 3.5L7.5 22.5C7.5 23.0523 7.94772 23.5 8.5 23.5L22.5 23.5C23.0523 23.5 23.5 23.0523 23.5 22.5L23.5 7.41421C23.5 7.149 23.3946 6.89464 23.2071 6.70711L19.2929 2.79289C19.1054 2.60536 18.851 2.5 18.5858 2.5L8.5 2.5C7.94771 2.5 7.5 2.94772 7.5 3.5Z" fill="var(--mw-icon-background-default-white, #FFFFFF)" stroke="var(--mw-icon-border-default-gray, #616161)"/>
<path d="M12.5 19.5H21.5V21.5H12.5V19.5Z" fill="var(--mw-icon-background-default-light-gray, #F5F5F5)"/>
<path d="M19.5 19.5V21.5M12.5 19.5H21.5V21.5H12.5V19.5Z" stroke="var(--mw-icon-glyph-content-gray, #616162)" stroke-linecap="round" stroke-linejoin="round"/>
<circle cx="10" cy="20" r="1" fill="var(--mw-icon-glyph-content-green, #008014)"/>
<path d="M21.5 10.5C21.5 10.5 20.5 10.5002 18.5 10.5C16.6044 10.5324 16 14.4998 13.5 14.4998C11.5 14.4998 9.5 12.4998 9.5 12.4998" stroke="#1171BE" stroke-linecap="round"/>
<path d="M9.5 17.5H21.5V7.5H9.5V17.5Z" stroke="var(--mw-icon-glyph-content-gray, #616162)" stroke-linejoin="round"/>
<path fill-rule="evenodd" clip-rule="evenodd" d="M8.96601 1.32589C8.72184 1.60672 8.49866 2.12253 8.35968 3.0799C8.30406 3.46305 8.13948 3.89555 7.93725 4.31921C7.732 4.7492 7.47392 5.19866 7.20969 5.62228C6.68111 6.46972 6.11289 7.23762 5.8536 7.57847C5.61766 7.88862 5.13488 8.33502 4.66329 8.74396C4.35914 9.0077 4.04385 9.2692 3.77094 9.49011C3.8819 9.5624 3.98938 9.63287 4.09209 9.70079C4.76197 10.1438 5.25801 10.8547 5.64147 11.5203C5.83576 11.8576 6.00857 12.1969 6.1624 12.4999L6.16984 12.5145C6.24998 12.6723 6.32395 12.818 6.39359 12.95C6.57808 12.845 6.80428 12.6808 7.05485 12.4501C7.45096 12.0855 8.39104 10.9488 8.95964 10.1637C9.29286 9.70357 9.75318 9.34686 10.2165 9.10511C10.6755 8.86557 11.1739 8.72009 11.5999 8.72009C11.9528 8.72009 12.3702 8.87771 12.7149 9.03956C12.1771 7.47793 11.4519 5.3286 11.2027 4.42861C11.014 3.74688 10.6879 2.81948 10.3225 2.0704C10.1389 1.69387 9.95463 1.38186 9.78414 1.17064C9.69893 1.06508 9.62814 0.998551 9.57493 0.961336C9.54952 0.943565 9.53372 0.936302 9.52673 0.933594C9.47535 0.93728 9.36575 0.973442 9.19443 1.11243C9.17251 1.13022 9.15039 1.14902 9.12812 1.16877L9.1304 1.17182C9.11551 1.18294 9.10064 1.19473 9.08581 1.20724C9.04625 1.24409 9.00626 1.28376 8.96601 1.32589Z" fill="#F57729"/>
<path fill-rule="evenodd" clip-rule="evenodd" d="M3.00298 8.99514C3.30974 8.75096 3.71234 8.42132 4.09522 8.0893C4.29052 7.91995 4.47448 7.75523 4.63574 7.60407L3.78346 6.98623C3.7814 6.98733 3.77937 6.98842 3.77738 6.98948C3.69356 7.03425 3.58891 7.08517 3.47179 7.13948C3.23665 7.24853 2.93299 7.37969 2.60582 7.51635C2.23011 7.67328 1.81856 7.83947 1.43555 7.99084C1.74616 8.19237 2.10536 8.4217 2.4755 8.65802C2.6502 8.76956 2.82737 8.88268 3.00298 8.99514ZM4.44592 6.39603L5.2308 6.965C5.50461 6.60134 6.00699 5.91256 6.47407 5.16373C6.72837 4.75603 6.96844 4.33648 7.15484 3.94598C7.1883 3.87588 7.21961 3.80758 7.2487 3.74121C7.19128 3.80807 7.13286 3.87438 7.07443 3.93912C6.75787 4.28987 6.3893 4.65209 6.11481 4.83298C5.65387 5.13675 5.3012 5.3833 5.07799 5.68C4.9317 5.87446 4.6779 6.15309 4.44592 6.39603Z" fill="#068CFC"/>
<path d="M0.5 7.88905L0.322231 7.42172C0.149021 7.48761 0.0264605 7.64389 0.00376408 7.82781C-0.0189323 8.01174 0.0619589 8.19313 0.213954 8.29915L0.5 7.88905ZM3.7193 6.51469L4.0668 6.8742L4.0668 6.8742L3.7193 6.51469ZM4.73113 5.41942L4.33158 5.11883L4.33158 5.11883L4.73113 5.41942ZM7.49056 2.69299L7.05439 2.44856L7.05439 2.44856L7.49056 2.69299ZM9.14969 1.17219C9.36709 1.00192 9.40529 0.687647 9.23501 0.470251C9.06474 0.252855 8.75047 0.214655 8.53307 0.38493L9.14969 1.17219ZM0.677769 8.35638C1.21008 8.15389 1.97498 7.85179 2.63094 7.57779C2.95841 7.44101 3.26298 7.30947 3.49926 7.19989C3.61688 7.14535 3.72281 7.09384 3.80822 7.04821C3.87205 7.01412 3.98596 6.95233 4.0668 6.8742L3.3718 6.15519C3.40767 6.12052 3.42025 6.12173 3.33706 6.16616C3.27546 6.19907 3.18867 6.24163 3.07855 6.2927C2.85937 6.39434 2.56837 6.5202 2.24551 6.65505C1.60081 6.92434 0.845997 7.22248 0.322231 7.42172L0.677769 8.35638ZM4.0668 6.8742C4.29244 6.65609 4.87339 6.06202 5.13069 5.72001L4.33158 5.11883C4.12603 5.39205 3.59584 5.93863 3.3718 6.15519L4.0668 6.8742ZM5.13069 5.72001C5.34579 5.43409 5.68825 5.19349 6.15092 4.88858L5.60065 4.0536C5.16395 4.34139 4.66827 4.67128 4.33158 5.11883L5.13069 5.72001ZM6.15092 4.88858C6.43305 4.70265 6.80643 4.33486 7.12334 3.98372C7.44279 3.62977 7.76537 3.22538 7.92674 2.93743L7.05439 2.44856C6.95003 2.63477 6.69007 2.97125 6.38098 3.31372C6.06935 3.659 5.7682 3.94317 5.60065 4.0536L6.15092 4.88858ZM3.5511 9.20323C3.01414 8.84812 2.47647 8.52519 1.99807 8.23777C1.51336 7.94656 1.09945 7.69756 0.786046 7.47896L0.213954 8.29915C0.56145 8.54153 1.00864 8.80992 1.48307 9.09496C1.96382 9.3838 2.48334 9.69599 2.99948 10.0373L3.5511 9.20323ZM3.45648 6.83196L4.84642 7.83956L5.43335 7.02992L4.04341 6.02232L3.45648 6.83196ZM7.92674 2.93743C8.04186 2.73201 8.20294 2.4104 8.42783 2.05225C8.65359 1.69272 8.90345 1.36506 9.14969 1.17219L8.53307 0.38493C8.14608 0.68804 7.82171 1.13705 7.58095 1.52048C7.33933 1.90527 7.14162 2.29289 7.05439 2.44856L7.92674 2.93743Z" fill="#004A88"/>
<path d="M11.6195 4.31305C11.2312 2.91031 10.3618 0.5 9.51757 0.5C8.67331 0.5 8.23395 1.54645 7.92996 3.01775C7.66935 4.27907 6.01884 6.64448 5.50784 7.31622C5.09903 7.85361 3.7159 8.98897 3.07544 9.48947L3.85222 10.0623C5.01732 10.8328 5.6714 12.6109 6.20285 13.5C6.50945 13.421 6.91826 13.1641 7.34751 12.769C7.77675 12.3739 8.73744 11.2082 9.30977 10.4179C9.8821 9.62765 10.9246 9.15348 11.5991 9.15348C12.1387 9.15348 13.0912 9.70668 13.5 9.98327C13.0026 8.56078 11.9302 5.43524 11.6195 4.31305Z" stroke="#923800" stroke-linejoin="round"/>
</svg>
