<svg width="24" height="24" viewBox="0 0 24 24" fill="none" xmlns="http://www.w3.org/2000/svg">
<path d="M0.5 20V4C0.5 2.067 2.067 0.5 4 0.5H20C21.933 0.5 23.5 2.067 23.5 4V20C23.5 21.933 21.933 23.5 20 23.5H4C2.067 23.5 0.5 21.933 0.5 20Z" fill="var(--mw-icon-background-default-white, #FFFFFF)" stroke="var(--mw-icon-border-default-gray, #616161)" stroke-linecap="round"/>
<path d="M12.5 18.0117C12.5 17.2425 13.1857 16.5 14.0122 16.5H18.0033C18.8299 16.5 19.5 17.2425 19.5 18.0117C19.5 18.781 18.8299 19.5 18.0033 19.5H14.0122C13.1857 19.5 12.5 18.781 12.5 18.0117Z" fill="var(--mw-icon-background-medium-blue, #83CAFF)" stroke="var(--mw-icon-glyph-content-blue, #1656A8)"/>
<circle cx="6" cy="18" r="1.5" fill="var(--mw-icon-background-medium-blue, #83CAFF)" stroke="var(--mw-icon-glyph-content-blue, #1656A8)"/>
<path d="M12 3.5C7.37038 3.5 3.5 6.79724 3.5 11V12.5C3.5 13.0523 3.94772 13.5 4.5 13.5H19.5C20.0523 13.5 20.5 13.0523 20.5 12.5V11C20.5 6.79724 16.6296 3.5 12 3.5Z" fill="var(--mw-icon-background-default-selection, #B4DEFF)" stroke="var(--mw-icon-glyph-content-blue, #1656A8)"/>
<path d="M12 11L9.5 7.5" stroke="var(--mw-icon-glyph-content-red, #902623)" stroke-linecap="round"/>
<path d="M10.5 11.5C10.5 10.3954 11.0532 9.5 12 9.5C12.9468 9.5 13.5 10.3954 13.5 11.5C13.5 11.5 12.9468 11.5 12 11.5C11.0532 11.5 10.5 11.5 10.5 11.5Z" fill="var(--mw-icon-background-default-dark-gray, #A6A6A6)" stroke="var(--mw-icon-glyph-content-gray, #616162)" stroke-linejoin="round"/>
<path d="M6.5 10.5H6C6 10.7761 6.22386 11 6.5 11V10.5ZM8.5 11C8.77614 11 9 10.7761 9 10.5C9 10.2239 8.77614 10 8.5 10V11ZM15.5 10C15.2239 10 15 10.2239 15 10.5C15 10.7761 15.2239 11 15.5 11V10ZM17.5 10.5V11C17.7761 11 18 10.7761 18 10.5H17.5ZM14.1464 8.14645C13.9512 8.34171 13.9512 8.65829 14.1464 8.85355C14.3417 9.04882 14.6583 9.04882 14.8536 8.85355L14.1464 8.14645ZM12 7.5C12 7.77614 12.2239 8 12.5 8C12.7761 8 13 7.77614 13 7.5H12ZM7 10.5C7 8.04256 8.93374 6 12 6V5C8.43884 5 6 7.43459 6 10.5H7ZM6.5 11H8.5V10H6.5V11ZM15.5 11H17.5V10H15.5V11ZM15.6762 7.38096C16.6017 8.1677 17 9.24972 17 10.5H18C18 9.02483 17.5202 7.63605 16.3238 6.61904L15.6762 7.38096ZM15.6464 6.64645L14.1464 8.14645L14.8536 8.85355L16.3536 7.35355L15.6464 6.64645ZM12 6C12.1569 6 12.3123 6.00539 12.4657 6.01594L12.5343 5.01829C12.358 5.00617 12.1798 5 12 5V6ZM12.4657 6.01594C13.8151 6.10871 14.7588 6.60112 15.6762 7.38096L16.3238 6.61904C15.2818 5.73324 14.1421 5.12882 12.5343 5.01829L12.4657 6.01594ZM12 5.51711V7.5H13V5.51711H12Z" fill="var(--mw-icon-glyph-content-blue, #1656A8)"/>
</svg>
