<svg width="24" height="24" viewBox="0 0 24 24" fill="none" xmlns="http://www.w3.org/2000/svg">
<path d="M0.5 2.5C0.5 1.39543 1.39543 0.500001 2.5 0.500001H8.5C9.60457 0.500001 10.5 1.39543 10.5 2.5V8.5C10.5 9.60457 9.60457 10.5 8.5 10.5H2.5C1.39543 10.5 0.5 9.60457 0.5 8.5V2.5Z" fill="var(--mw-sidebar-icon-fill, #ffffff)"/>
<path d="M12.5 14.5C12.5 13.3954 13.3954 12.5 14.5 12.5H20.5C21.6046 12.5 22.5 13.3954 22.5 14.5V20.5C22.5 21.6046 21.6046 22.5 20.5 22.5H14.5C13.3954 22.5 12.5 21.6046 12.5 20.5V14.5Z" fill="var(--mw-sidebar-icon-fill, #ffffff)"/>
<path d="M21.0356 9.03553C22.9882 7.08291 22.9881 3.91709 21.0355 1.96447C19.0829 0.0118446 15.917 0.0118446 13.9644 1.96447C12.0118 3.91709 12.0119 7.08291 13.9645 9.03553C15.9171 10.9882 19.083 10.9882 21.0356 9.03553Z" fill="var(--mw-sidebar-icon-fill, #ffffff)"/>
<path d="M9.03557 21.0355C10.9882 19.0829 10.9881 15.9171 9.0355 13.9645C7.08286 12.0118 3.91703 12.0118 1.96443 13.9645C0.0118293 15.9171 0.0118601 19.0829 1.9645 21.0355C3.91714 22.9882 7.08296 22.9882 9.03557 21.0355Z" fill="var(--mw-sidebar-icon-fill, #ffffff)"/>
<path d="M0.5 2.5C0.5 1.39543 1.39543 0.500001 2.5 0.500001H8.5C9.60457 0.500001 10.5 1.39543 10.5 2.5V8.5C10.5 9.60457 9.60457 10.5 8.5 10.5H2.5C1.39543 10.5 0.5 9.60457 0.5 8.5V2.5Z" stroke="var(--mw-sidebar-icon-stroke, #616161)"/>
<path d="M12.5 14.5C12.5 13.3954 13.3954 12.5 14.5 12.5H20.5C21.6046 12.5 22.5 13.3954 22.5 14.5V20.5C22.5 21.6046 21.6046 22.5 20.5 22.5H14.5C13.3954 22.5 12.5 21.6046 12.5 20.5V14.5Z" stroke="var(--mw-sidebar-icon-stroke, #616161)"/>
<path d="M21.0356 9.03553C22.9882 7.08291 22.9881 3.91709 21.0355 1.96447C19.0829 0.0118446 15.917 0.0118446 13.9644 1.96447C12.0118 3.91709 12.0119 7.08291 13.9645 9.03553C15.9171 10.9882 19.083 10.9882 21.0356 9.03553Z" stroke="var(--mw-sidebar-icon-stroke, #616161)"/>
<path d="M9.03557 21.0355C10.9882 19.0829 10.9881 15.9171 9.0355 13.9645C7.08286 12.0118 3.91703 12.0118 1.96443 13.9645C0.0118293 15.9171 0.0118601 19.0829 1.9645 21.0355C3.91714 22.9882 7.08296 22.9882 9.03557 21.0355Z" stroke="var(--mw-sidebar-icon-stroke, #616161)"/>
</svg>
