<svg width="24" height="24" viewBox="0 0 24 24" fill="none" xmlns="http://www.w3.org/2000/svg">
<path d="M0.5 2.5C0.5 1.39543 1.39543 0.5 2.5 0.5H16.5C17.6046 0.5 18.5 1.39543 18.5 2.5V16.5C18.5 17.6046 17.6046 18.5 16.5 18.5H2.5C1.39543 18.5 0.5 17.6046 0.5 16.5V2.5Z" fill="var(--mw-icon-background-default-white, #FFFFFF)"/>
<path d="M0.5 12.4862C2.5 12.5 5.5 3.5 5.5 3.5C5.5 3.5 7.5 12.5 10.5 12.5C13.5 12.5 14.5 5.5 14.5 5.5C14.5 5.5 15 12.5 18.5 12.4862" stroke="#0072BD" stroke-miterlimit="1" stroke-linecap="round" stroke-linejoin="round"/>
<path d="M0.5 2.5C0.5 1.39543 1.39543 0.5 2.5 0.5H16.5C17.6046 0.5 18.5 1.39543 18.5 2.5V16.5C18.5 17.6046 17.6046 18.5 16.5 18.5H2.5C1.39543 18.5 0.5 17.6046 0.5 16.5V2.5Z" stroke="var(--mw-icon-border-default-gray, #616161)" stroke-linejoin="round"/>
<path d="M9.5 11.5C9.5 10.3954 10.3954 9.5 11.5 9.5H21.5C22.6046 9.5 23.5 10.3954 23.5 11.5V21.5C23.5 22.6046 22.6046 23.5 21.5 23.5H11.5C10.3954 23.5 9.5 22.6046 9.5 21.5V11.5Z" fill="white" stroke="var(--mw-icon-border-default-gray, #616161)"/>
<path d="M13.986 14.0261L12.3322 19H11L13.2593 13H14.1071L13.986 14.0261ZM15.3599 19L13.702 14.0261L13.5683 13H14.4244L16.6963 19H15.3599ZM15.2847 16.7665V17.7349H12.0733V16.7665H15.2847Z" fill="var(--mw-icon-glyph-content-dark-gray, #333333)"/>
<path d="M17.2601 13H19.5277C19.9927 13 20.3922 13.0687 20.7263 13.206C21.0631 13.3434 21.3221 13.5467 21.503 13.8159C21.684 14.0852 21.7745 14.4162 21.7745 14.8091C21.7745 15.1305 21.7188 15.4066 21.6074 15.6374C21.4989 15.8654 21.3443 16.0563 21.1439 16.2102C20.9462 16.3613 20.7137 16.4821 20.4465 16.5728L20.0497 16.7788H18.0786L18.0702 15.8146H19.5361C19.756 15.8146 19.9384 15.7761 20.0831 15.6992C20.2279 15.6223 20.3365 15.5151 20.4089 15.3777C20.4841 15.2404 20.5216 15.081 20.5216 14.8997C20.5216 14.7074 20.4854 14.5412 20.4131 14.4011C20.3407 14.261 20.2307 14.1538 20.0831 14.0797C19.9356 14.0055 19.7504 13.9684 19.5277 13.9684H18.5129V19H17.2601V13ZM20.6595 19L19.273 16.3255L20.5968 16.3173L22 18.9423V19H20.6595Z" fill="var(--mw-icon-glyph-content-dark-gray, #333333)"/>
</svg>
