<svg width="24" height="24" viewBox="0 0 24 24" fill="none" xmlns="http://www.w3.org/2000/svg">
<path d="M0.5 1.5C0.5 0.947715 0.947715 0.5 1.5 0.5H17.5C18.0523 0.5 18.5 0.947715 18.5 1.5V8.5C18.5 9.05228 18.0523 9.5 17.5 9.5H1.5C0.947716 9.5 0.5 9.05228 0.5 8.5V1.5Z" fill="var(--mw-icon-background-default-light-gray, #F5F5F5)" stroke="var(--mw-icon-border-default-gray, #616161)" stroke-linejoin="round"/>
<path d="M16.5 3.5V6.5M8.5 4V6C8.5 6.27614 8.72386 6.5 9 6.5H10C10.2761 6.5 10.5 6.27614 10.5 6V4C10.5 3.72386 10.2761 3.5 10 3.5H9C8.72386 3.5 8.5 3.72386 8.5 4ZM12.5 4V6C12.5 6.27614 12.7239 6.5 13 6.5H14C14.2761 6.5 14.5 6.27614 14.5 6V4C14.5 3.72386 14.2761 3.5 14 3.5H13C12.7239 3.5 12.5 3.72386 12.5 4Z" stroke="var(--mw-icon-glyph-content-gray, #616162)" stroke-linecap="round" stroke-linejoin="round"/>
<path d="M5 6.5C5 6.77614 4.77614 7 4.5 7C4.22386 7 4 6.77614 4 6.5C4 6.22386 4.22386 6 4.5 6C4.77614 6 5 6.22386 5 6.5Z" fill="var(--mw-icon-glyph-content-gray, #616162)"/>
<path d="M7 6.5C7 6.77614 6.77614 7 6.5 7C6.22386 7 6 6.77614 6 6.5C6 6.22386 6.22386 6 6.5 6C6.77614 6 7 6.22386 7 6.5Z" fill="var(--mw-icon-glyph-content-gray, #616162)"/>
<path d="M3 6.5C3 6.77614 2.77614 7 2.5 7C2.22386 7 2 6.77614 2 6.5C2 6.22386 2.22386 6 2.5 6C2.77614 6 3 6.22386 3 6.5Z" fill="var(--mw-icon-glyph-content-gray, #616162)"/>
<path d="M8.5 18.5V13.5L14.5 13.5V9.5L22.5 16L14.5 22.5L14.5 18.5H8.5Z" fill="var(--mw-icon-background-default-action, #CBFFBE)"/>
<path d="M8.5 18.5V13.5L14.5 13.5V9.5L22.5 16L14.5 22.5L14.5 18.5H8.5Z" stroke="var(--mw-icon-border-default-green, #008013)"/>
</svg>
