<svg width="24" height="24" viewBox="0 0 24 24" fill="none" xmlns="http://www.w3.org/2000/svg">
<path d="M5.5 1.5C5.5 0.947715 5.94772 0.5 6.5 0.5H22.5C23.0523 0.5 23.5 0.947715 23.5 1.5V8.5C23.5 9.05228 23.0523 9.5 22.5 9.5H6.5C5.94772 9.5 5.5 9.05228 5.5 8.5V1.5Z" fill="var(--mw-icon-background-default-light-gray, #F5F5F5)" stroke="var(--mw-icon-border-default-gray, #616161)" stroke-linejoin="round"/>
<path d="M15.5 6V4C15.5 3.72386 15.2761 3.5 15 3.5H14C13.7239 3.5 13.5 3.72386 13.5 4V6C13.5 6.27614 13.7239 6.5 14 6.5H15C15.2761 6.5 15.5 6.27614 15.5 6Z" stroke="var(--mw-icon-glyph-content-gray, #616162)" stroke-linecap="round" stroke-linejoin="round"/>
<path d="M11.5 6V4C11.5 3.72386 11.2761 3.5 11 3.5H10C9.72386 3.5 9.5 3.72386 9.5 4V6C9.5 6.27614 9.72386 6.5 10 6.5H11C11.2761 6.5 11.5 6.27614 11.5 6Z" stroke="var(--mw-icon-glyph-content-gray, #616162)" stroke-linecap="round" stroke-linejoin="round"/>
<path d="M7.5 3.5V6.5" stroke="var(--mw-icon-glyph-content-gray, #616162)" stroke-linecap="round" stroke-linejoin="round"/>
<path d="M19 6.5C19 6.77614 19.2239 7 19.5 7C19.7761 7 20 6.77614 20 6.5C20 6.22386 19.7761 6 19.5 6C19.2239 6 19 6.22386 19 6.5Z" fill="var(--mw-icon-glyph-content-gray, #616162)"/>
<path d="M17 6.5C17 6.77614 17.2239 7 17.5 7C17.7761 7 18 6.77614 18 6.5C18 6.22386 17.7761 6 17.5 6C17.2239 6 17 6.22386 17 6.5Z" fill="var(--mw-icon-glyph-content-gray, #616162)"/>
<path d="M21 6.5C21 6.77614 21.2239 7 21.5 7C21.7761 7 22 6.77614 22 6.5C22 6.22386 21.7761 6 21.5 6C21.2239 6 21 6.22386 21 6.5Z" fill="var(--mw-icon-glyph-content-gray, #616162)"/>
<path d="M16 18V13L10 13V9L2 15.5L10 22L10 18H16Z" fill="var(--mw-icon-background-default-action, #CBFFBE)"/>
<path d="M16 18V13L10 13V9L2 15.5L10 22L10 18H16Z" stroke="var(--mw-icon-border-default-green, #008013)"/>
</svg>
