<svg width="24" height="24" viewBox="0 0 24 24" fill="none" xmlns="http://www.w3.org/2000/svg">
<path d="M0.5 2.5C0.5 1.39543 1.39543 0.5 2.5 0.5H16.5C17.6046 0.5 18.5 1.39543 18.5 2.5V16.5C18.5 17.6046 17.6046 18.5 16.5 18.5H2.5C1.39543 18.5 0.5 17.6046 0.5 16.5V2.5Z" fill="var(--mw-icon-background-default-white, #FFFFFF)" stroke="var(--mw-icon-border-default-gray, #616161)"/>
<path d="M2.5 6C2.22386 6 2 6.22386 2 6.5C2 6.77614 2.22386 7 2.5 7V6ZM13.5 7C13.7761 7 14 6.77614 14 6.5C14 6.22386 13.7761 6 13.5 6V7ZM13 11.5V12H14V11.5H13ZM14 7V6.5H13V7H14ZM2.5 7H13.5V6H2.5V7ZM14 11.5V7H13V11.5H14Z" fill="var(--mw-icon-glyph-disabled-gray, #888889)"/>
<path d="M9.32353 6.14146C9.55882 6.30081 9.55882 6.69919 9.32353 6.85854L4.02941 10.4439C3.79412 10.6033 3.5 10.4041 3.5 10.0854L3.5 2.91462C3.5 2.59592 3.79412 2.39673 4.02941 2.55608L9.32353 6.14146Z" fill="var(--mw-icon-background-default-selection, #B4DEFF)" stroke="var(--mw-icon-glyph-content-blue, #1656A8)" stroke-linejoin="round"/>
<rect x="10.5" y="10.5" width="6" height="6" rx="1" fill="var(--mw-icon-background-red, #FF9D9A)" stroke="var(--mw-icon-glyph-content-red, #902623)"/>
<path d="M13.5 23.5H18.5V19.5H22.5L16 10.5L9.5 19.5H13.5V23.5Z" fill="var(--mw-icon-background-default-action, #CBFFBE)"/>
<path d="M13.5 23.5H18.5V19.5H22.5L16 10.5L9.5 19.5H13.5V23.5Z" stroke="var(--mw-icon-glyph-content-green, #008014)"/>
</svg>
