<svg width="24" height="24" viewBox="0 0 24 24" fill="none" xmlns="http://www.w3.org/2000/svg">
<rect x="0.5" y="0.5" width="22" height="22" rx="2" fill="var(--mw-icon-background-default-white, #FFFFFF)" stroke="var(--mw-icon-border-default-gray, #616161)"/>
<path d="M8 15H6.70108V8.86264L5 9.58791V8.25824L7.93066 7H8V15Z" fill="var(--mw-icon-glyph-content-gray, #616162)"/>
<path d="M12 13C12 13.5523 11.5523 14 11 14C10.4477 14 10 13.5523 10 13C10 12.4477 10.4477 12 11 12C11.5523 12 12 12.4477 12 13Z" fill="var(--mw-icon-glyph-content-gray, #616162)"/>
<path d="M12 9C12 9.55228 11.5523 10 11 10C10.4477 10 10 9.55228 10 9C10 8.44772 10.4477 8 11 8C11.5523 8 12 8.44772 12 9Z" fill="var(--mw-icon-glyph-content-gray, #616162)"/>
<path d="M18 15H13.1466V13.9702L15.4487 11.2276C15.6279 11.0108 15.7794 10.8139 15.9032 10.6369C16.027 10.4598 16.1264 10.299 16.2014 10.1545C16.2796 10.0063 16.335 9.86902 16.3675 9.74255C16.4034 9.61608 16.4213 9.49323 16.4213 9.37398C16.4213 9.19693 16.3985 9.03975 16.3529 8.90244C16.3073 8.76513 16.2421 8.6495 16.1574 8.55556C16.0759 8.45799 15.9765 8.38392 15.8592 8.33333C15.7452 8.28275 15.6181 8.25745 15.478 8.25745C15.1033 8.25745 14.8231 8.37308 14.6373 8.60434C14.4549 8.83559 14.3636 9.15899 14.3636 9.57453H13C13 9.22403 13.0603 8.89341 13.1808 8.58266C13.3014 8.26829 13.4708 7.99368 13.6891 7.75881C13.9107 7.52394 14.1763 7.33966 14.4858 7.20596C14.7986 7.06865 15.144 7 15.522 7C15.8837 7 16.203 7.05601 16.48 7.16802C16.7602 7.28004 16.9932 7.43722 17.1789 7.63957C17.3679 7.84192 17.5112 8.08582 17.609 8.37127C17.7067 8.65312 17.7556 8.96567 17.7556 9.30894C17.7556 9.56911 17.7181 9.81843 17.6432 10.0569C17.5715 10.2918 17.4673 10.5248 17.3304 10.7561C17.1968 10.9874 17.0355 11.224 16.8465 11.4661C16.6575 11.7046 16.4474 11.9557 16.216 12.2195L14.8768 13.7913H18V15Z" fill="var(--mw-icon-glyph-content-gray, #616162)"/>
</svg>
