<svg width="24" height="24" viewBox="0 0 24 24" fill="none" xmlns="http://www.w3.org/2000/svg">
<rect x="0.5" y="0.5" width="22" height="22" rx="2" fill="var(--mw-icon-background-default-white, #FFFFFF)" stroke="var(--mw-icon-border-default-gray, #616161)"/>
<path d="M17 15H15.7011V8.86264L14 9.58791V8.25824L16.9307 7H17V15Z" fill="var(--mw-icon-glyph-content-gray, #616162)"/>
<path d="M13 13C13 13.5523 12.5523 14 12 14C11.4477 14 11 13.5523 11 13C11 12.4477 11.4477 12 12 12C12.5523 12 13 12.4477 13 13Z" fill="var(--mw-icon-glyph-content-gray, #616162)"/>
<path d="M13 9C13 9.55228 12.5523 10 12 10C11.4477 10 11 9.55228 11 9C11 8.44772 11.4477 8 12 8C12.5523 8 13 8.44772 13 9Z" fill="var(--mw-icon-glyph-content-gray, #616162)"/>
<path d="M10 15H5.14663V13.9702L7.44868 11.2276C7.62789 11.0108 7.77941 10.8139 7.90323 10.6369C8.02704 10.4598 8.12643 10.299 8.20137 10.1545C8.27957 10.0063 8.33496 9.86902 8.36755 9.74255C8.40339 9.61608 8.42131 9.49323 8.42131 9.37398C8.42131 9.19693 8.3985 9.03975 8.35288 8.90244C8.30727 8.76513 8.2421 8.6495 8.15738 8.55556C8.07592 8.45799 7.97654 8.38392 7.85924 8.33333C7.74519 8.28275 7.61812 8.25745 7.47801 8.25745C7.10329 8.25745 6.82307 8.37308 6.63734 8.60434C6.45487 8.83559 6.36364 9.15899 6.36364 9.57453H5C5 9.22403 5.06028 8.89341 5.18084 8.58266C5.3014 8.26829 5.47084 7.99368 5.68915 7.75881C5.91072 7.52394 6.17628 7.33966 6.48583 7.20596C6.79863 7.06865 7.14402 7 7.52199 7C7.88368 7 8.203 7.05601 8.47996 7.16802C8.76018 7.28004 8.99316 7.43722 9.17889 7.63957C9.36787 7.84192 9.51124 8.08582 9.60899 8.37127C9.70674 8.65312 9.75562 8.96567 9.75562 9.30894C9.75562 9.56911 9.71815 9.81843 9.64321 10.0569C9.57152 10.2918 9.46725 10.5248 9.3304 10.7561C9.19681 10.9874 9.03552 11.224 8.84653 11.4661C8.65754 11.7046 8.44738 11.9557 8.21603 12.2195L6.87683 13.7913H10V15Z" fill="var(--mw-icon-glyph-content-gray, #616162)"/>
</svg>
