<svg width="24" height="24" viewBox="0 0 24 24" fill="none" xmlns="http://www.w3.org/2000/svg">
<rect x="0.5" y="0.5" width="22" height="22" rx="2" fill="var(--mw-icon-background-default-white, #FFFFFF)" stroke="var(--mw-icon-border-default-gray, #616161)"/>
<path d="M13 13C13 13.5523 12.5523 14 12 14C11.4477 14 11 13.5523 11 13C11 12.4477 11.4477 12 12 12C12.5523 12 13 12.4477 13 13Z" fill="var(--mw-icon-glyph-content-gray, #616162)"/>
<path d="M13 9C13 9.55228 12.5523 10 12 10C11.4477 10 11 9.55228 11 9C11 8.44772 11.4477 8 12 8C12.5523 8 13 8.44772 13 9Z" fill="var(--mw-icon-glyph-content-gray, #616162)"/>
<path d="M9 15H7.70108V8.86264L6 9.58791V8.25824L8.93066 7H9V15Z" fill="var(--mw-icon-glyph-content-gray, #616162)"/>
<path d="M17 15H15.7011V8.86264L14 9.58791V8.25824L16.9307 7H17V15Z" fill="var(--mw-icon-glyph-content-gray, #616162)"/>
</svg>
