<svg width="24" height="24" viewBox="0 0 24 24" fill="none" xmlns="http://www.w3.org/2000/svg">
<path d="M0.5 18.5V4.5C0.5 2.29086 2.29086 0.5 4.5 0.5H18.5C20.7091 0.5 22.5 2.29086 22.5 4.5V18.5C22.5 20.7091 20.7091 22.5 18.5 22.5H4.5C2.29086 22.5 0.5 20.7091 0.5 18.5Z" fill="#00A3A3"/>
<path d="M4 18V19H20V18H4Z" fill="var(--mw-icon-background-default-white, white)"/>
<path d="M4 12V13L20 13V12L4 12Z" fill="var(--mw-icon-background-default-white, white)"/>
<path d="M19 8.5V6.38C19 4.79 18.1 3.5 17 3.5C15.9 3.5 15 4.79 15 6.38V8.5" stroke="var(--mw-icon-background-default-white, white)" stroke-miterlimit="10"/>
<path d="M20 8V7C20 6.44772 19.5523 6 19 6C18.4477 6 18 6.44772 18 7V8C18 8.55228 18.4477 9 19 9C19.5523 9 20 8.55228 20 8Z" fill="var(--mw-icon-background-default-white, white)"/>
<path d="M16 8V7C16 6.44772 15.5523 6 15 6C14.4477 6 14 6.44772 14 7V8C14 8.55228 14.4477 9 15 9C15.5523 9 16 8.55228 16 8Z" fill="var(--mw-icon-background-default-white, white)"/>
<rect x="7" y="10" width="2" height="5" rx="0.5" fill="var(--mw-icon-background-default-white, white)"/>
<rect x="14" y="16" width="2" height="5" rx="0.5" fill="var(--mw-icon-background-default-white, white)"/>
<path d="M0.5 18.5V4.5C0.5 2.29086 2.29086 0.5 4.5 0.5H18.5C20.7091 0.5 22.5 2.29086 22.5 4.5V18.5C22.5 20.7091 20.7091 22.5 18.5 22.5H4.5C2.29086 22.5 0.5 20.7091 0.5 18.5Z" stroke="#02555C" stroke-linecap="round"/>

</svg>
