<svg width="24" height="24" viewBox="0 0 24 24" fill="none" xmlns="http://www.w3.org/2000/svg">
<path d="M1.5 17V5.63849C1.5 5.54787 1.52463 5.45895 1.57125 5.38124L4.35435 0.742752C4.44471 0.592149 4.60746 0.5 4.7831 0.5H9.2169C9.39254 0.5 9.55529 0.59215 9.64565 0.742752L12.4287 5.38124C12.4754 5.45895 12.5 5.54787 12.5 5.63849V17C12.5 17.2762 12.2761 17.5 12 17.5H6.94444L2 17.5C1.72386 17.5 1.5 17.2761 1.5 17Z" fill="var(--mw-icon-background-default-selection, #B4DEFF)" stroke="var(--mw-icon-border-default-blue, #1656A7)" stroke-linejoin="round"/>
<path d="M8.26958 12.1374H5.72139L5.18825 14H4L6.48494 6H7.51054L10 14H8.80723L8.26958 12.1374ZM6.04217 11.0165H7.9488L6.99548 7.6978L6.04217 11.0165Z" fill="var(--mw-icon-glyph-content-blue, #1656A8)"/>
<path d="M8 3C8 3.55228 7.55228 4 7 4C6.44772 4 6 3.55228 6 3C6 2.44772 6.44772 2 7 2C7.55228 2 8 2.44772 8 3Z" fill="var(--mw-icon-glyph-content-blue, #1656A8)"/>
<path fill-rule="evenodd" clip-rule="evenodd" d="M18.5357 13.6393C18.2993 13.5144 18.05 13.4106 17.7904 13.3303L17.4091 11.5H15.5909L15.2096 13.3303C14.95 13.4106 14.7007 13.5144 14.4643 13.6393L12.9002 12.6145L11.6145 13.9002L12.6393 15.4643C12.5144 15.7007 12.4106 15.95 12.3303 16.2096L10.5 16.5909V18.4091L12.3303 18.7904C12.4106 19.05 12.5144 19.2993 12.6393 19.5357L11.6145 21.0998L12.9002 22.3855L14.4643 21.3607C14.7007 21.4856 14.95 21.5894 15.2096 21.6697L15.5909 23.5H17.4091L17.7904 21.6697C18.05 21.5894 18.2993 21.4856 18.5357 21.3607L20.0998 22.3855L21.3855 21.0998L20.3607 19.5357C20.4856 19.2993 20.5894 19.05 20.6697 18.7904L22.5 18.4091V16.5909L20.6697 16.2096C20.5894 15.95 20.4856 15.7007 20.3607 15.4643L21.3855 13.9002L20.0998 12.6145L18.5357 13.6393Z" fill="var(--mw-icon-background-default-medium-gray, #D9D9D9)" stroke="var(--mw-icon-border-default-gray, #616161)" stroke-linejoin="round"/>
<path d="M19 17.5C19 18.8807 17.8807 20 16.5 20C15.1193 20 14 18.8807 14 17.5C14 16.1193 15.1193 15 16.5 15C17.8807 15 19 16.1193 19 17.5Z" fill="var(--mw-icon-background-default-dark-gray, #A6A6A6)"/>
<path d="M18 17.5C18 18.3284 17.3284 19 16.5 19C15.6716 19 15 18.3284 15 17.5C15 16.6716 15.6716 16 16.5 16C17.3284 16 18 16.6716 18 17.5Z" fill="var(--mw-icon-glyph-content-gray, #616162)"/>
</svg>
