<svg width="24" height="24" viewBox="0 0 24 24" fill="none" xmlns="http://www.w3.org/2000/svg">
<path d="M21.5 2.5H2.5" stroke="#FF453A" stroke-linecap="round"/>
<path d="M20 5V0L24 2.5L20 5Z" fill="#FF453A"/>
<path d="M2.5 22V2.5" stroke="#3AC831" stroke-linecap="round" stroke-linejoin="round"/>
<path d="M5 20L0 20L2.5 24L5 20Z" fill="#3AC831"/>
<path d="M19.5 9.89011L21.2615 7H22.9424L20.4095 10.967L23 15H21.3018L19.5 12.0659L17.6924 15H16L18.5962 10.967L16.0576 7H17.7385L19.5 9.89011Z" fill="var(--mw-icon-object-primary, #616160)"/>
<path d="M9.50284 18.7912L11.4078 15H13L10.225 20.0549V23H8.78067V20.0549L6 15H7.59789L9.50284 18.7912Z" fill="var(--mw-icon-object-primary, #616160)"/>
</svg>
