<svg width="24" height="24" viewBox="0 0 24 24" fill="none" xmlns="http://www.w3.org/2000/svg">
<path d="M17 21.0263L6 1.97375" stroke="var(--mw-icon-glyph-disabled-gray, #888889)" stroke-linecap="round"/>
<path d="M21.0254 17L1.97283 6" stroke="var(--mw-icon-glyph-disabled-gray, #888889)" stroke-linecap="round"/>
<path d="M22.5 11.5L0.499999 11.5" stroke="var(--mw-icon-glyph-disabled-gray, #888889)" stroke-linecap="round"/>
<path d="M1.97266 17L21.0252 6" stroke="var(--mw-icon-glyph-disabled-gray, #888889)" stroke-linecap="round"/>
<path d="M6 21.0263L17 1.97375" stroke="var(--mw-icon-glyph-disabled-gray, #888889)" stroke-linecap="round"/>
<path d="M11.5 0.5L11.5 22.5" stroke="var(--mw-icon-glyph-disabled-gray, #888889)" stroke-linecap="round"/>
<circle cx="11.5" cy="11.5" r="10" fill="var(--mw-icon-background-default-white, #FFFFFF)"/>
<path d="M11.5 2L11.5 21M21 11.5L2 11.5M3.27271 16.25L19.7272 6.75M19.7272 16.25L3.27269 6.75M6.75 19.7273L16.25 3.27277M16.2499 19.7273L6.74988 3.27277" stroke="var(--mw-icon-background-default-medium-gray, #D9D9D9)" stroke-linecap="round"/>
<circle cx="11.5" cy="11.5" r="5" stroke="var(--mw-icon-background-default-medium-gray, #D9D9D9)"/>
<circle cx="11.5" cy="11.5" r="10" stroke="var(--mw-icon-border-default-gray, #616161)"/>
<path d="M9.49988 14.5L9.89518 14.8062C9.9892 14.6848 10.0222 14.5269 9.98477 14.378C9.94731 14.2291 9.8435 14.1057 9.70323 14.0432L9.49988 14.5ZM5.49988 9L5.99947 9.02028L5.49988 9ZM13.4999 14.5L13.2847 14.0487C13.1355 14.1198 13.031 14.2602 13.0058 14.4235C12.9805 14.5869 13.0376 14.7522 13.1583 14.8652L13.4999 14.5ZM11.502 19.4973L11.5269 19.9967L11.5269 19.9967L11.502 19.4973ZM9.70323 14.0432C9.13515 13.7903 8.16353 13.2052 7.35638 12.3333C6.5521 11.4644 5.94546 10.3507 5.99947 9.02028L5.00029 8.97972C4.93201 10.6619 5.70596 12.0224 6.62254 13.0126C7.53625 13.9996 8.62578 14.6582 9.29653 14.9568L9.70323 14.0432ZM5.99947 9.02028C6.06876 7.31336 6.91992 6.0686 8.02632 5.23764C9.146 4.3967 10.5035 4 11.502 4L11.502 3C10.2813 3 8.71413 3.47042 7.42578 4.43804C6.12414 5.41564 5.08386 6.92088 5.00029 8.97972L5.99947 9.02028ZM11.502 4C14.5925 4 17.0677 6.52728 17.0001 8.98626L17.9997 9.01374C18.085 5.90828 15.0681 3 11.502 3L11.502 4ZM17.0001 8.98626C16.9664 10.2124 16.3212 11.3485 15.5067 12.2662C14.6925 13.1835 13.7642 13.82 13.2847 14.0487L13.7151 14.9513C14.3273 14.6594 15.3608 13.937 16.2546 12.93C17.148 11.9234 17.9569 10.5698 17.9997 9.01374L17.0001 8.98626ZM13.1583 14.8652C13.3807 15.0732 13.5499 15.4152 13.6214 15.8563C13.6921 16.2931 13.6598 16.7903 13.5173 17.2608C13.2322 18.2027 12.5481 18.9445 11.4771 18.9979L11.5269 19.9967C13.139 19.9163 14.1055 18.7691 14.4744 17.5506C14.659 16.9408 14.7046 16.29 14.6085 15.6964C14.5131 15.1071 14.2708 14.5364 13.8414 14.1348L13.1583 14.8652ZM11.4771 18.9979C9.83119 19.08 8.22932 16.957 9.89518 14.8062L9.10458 14.1938C6.94954 16.9762 8.97254 20.1241 11.5269 19.9967L11.4771 18.9979Z" fill="#0072BD"/>
</svg>
