<svg width="24" height="24" viewBox="0 0 24 24" fill="none" xmlns="http://www.w3.org/2000/svg">
<rect x="0.5" y="0.5" width="16" height="16" rx="2" fill="var(--mw-icon-background-medium-yellow, #FFEF91)" stroke="#674C06"/>
<rect x="2.5" y="2.5" width="5" height="5" rx="1" stroke="var(--mw-icon-glyph-content-yellow, #674C07)"/>
<rect x="9.5" y="2.5" width="5" height="5" rx="1" stroke="var(--mw-icon-glyph-content-yellow, #674C07)"/>
<rect x="2.5" y="9.5" width="5" height="5" rx="1" stroke="var(--mw-icon-glyph-content-yellow, #674C07)"/>
<path d="M9.5 11.8441C9.5 10.2734 10.7734 9 12.3441 9H16.5381H20.7321C22.2608 9 23.5 10.2392 23.5 11.7679V21.2321C23.5 22.7608 22.2608 24 20.7321 24H16.5381H12.3441C10.7734 24 9.5 22.7266 9.5 21.1559V11.8441Z" fill="var(--mw-icon-background-default-white, #FFFFFF)"/>
<path d="M12 9.5H11.5C10.3954 9.5 9.5 10.3954 9.5 11.5V21.5C9.5 22.6046 10.3954 23.5 11.5 23.5H12" stroke="var(--mw-icon-glyph-content-blue, #1656A8)"/>
<path d="M21 23.5H21.5C22.6046 23.5 23.5 22.5598 23.5 21.4L23.5 11.6C23.5 10.4402 22.6046 9.5 21.5 9.5L21 9.5" stroke="var(--mw-icon-glyph-content-blue, #1656A8)"/>
<path d="M12.5 11V15" stroke="var(--mw-icon-glyph-content-blue, #1656A8)"/>
<path d="M20.5 11V15" stroke="var(--mw-icon-glyph-content-blue, #1656A8)"/>
<path d="M16.5 18V22" stroke="var(--mw-icon-glyph-content-blue, #1656A8)"/>
<ellipse cx="16.5" cy="13" rx="1" ry="1.5" stroke="var(--mw-icon-glyph-content-blue, #1656A8)"/>
<ellipse cx="20.5" cy="20.0625" rx="1" ry="1.5" stroke="var(--mw-icon-glyph-content-blue, #1656A8)"/>
<ellipse cx="12.5" cy="20.0625" rx="1" ry="1.5" stroke="var(--mw-icon-glyph-content-blue, #1656A8)"/>
</svg>
