<svg width="24" height="24" viewBox="0 0 24 24" fill="none" xmlns="http://www.w3.org/2000/svg">
<path d="M17 17.5H7L7.5 16.5H16.5L17 17.5Z" stroke="var(--mw-icon-border-default-gray, #616161)" stroke-linecap="round" stroke-linejoin="round"/>
<path d="M1.50146 10.5001L0.501465 18.5001L6.5 18.5L7.5 16.5H16.5L17.5 18.5L23.5015 18.5001L22.5015 10.5001H1.50146Z" fill="var(--mw-icon-background-default-light-gray, #F5F5F5)" stroke="var(--mw-icon-border-default-gray, #616161)" stroke-linejoin="round"/>
<path d="M22.5 10.5H1.5V3.5H22.5V10.5Z" fill="var(--mw-icon-background-default-medium-gray, #D9D9D9)" stroke="var(--mw-icon-border-default-gray, #616161)" stroke-linecap="round" stroke-linejoin="round"/>
<path d="M5 9.25C5 9.11193 5.11193 9 5.25 9H7.75C7.88807 9 8 9.11193 8 9.25V10H5V9.25Z" fill="var(--mw-icon-glyph-disabled-gray, #888889)"/>
<path d="M16 9.25C16 9.11193 16.1119 9 16.25 9H18.75C18.8881 9 19 9.11193 19 9.25V10H16V9.25Z" fill="var(--mw-icon-glyph-disabled-gray, #888889)"/>
</svg>
