<svg width="24" height="24" viewBox="0 0 24 24" fill="none" xmlns="http://www.w3.org/2000/svg">
<path d="M0.5 20.5V2.5C0.5 1.39543 1.39543 0.5 2.5 0.5H20.5C21.6046 0.5 22.5 1.39543 22.5 2.5V20.5C22.5 21.6046 21.6046 22.5 20.5 22.5H2.5C1.39543 22.5 0.5 21.6046 0.5 20.5Z" fill="var(--mw-icon-background-default-white, #FFFFFF)" stroke="var(--mw-icon-border-default-gray, #616161)" stroke-linecap="round"/>
<path d="M1 4H19V7H1V4Z" fill="#1171BE"/>
<path d="M1 12H11V15H1V12Z" fill="#1171BE"/>
<path d="M16 8H1V11H16V8Z" fill="#1171BE"/>
<path d="M4 16H1V19H4V16Z" fill="#1171BE"/>
<path d="M1 4H11V7H1V4Z" fill="#DD5400"/>
<path d="M1 8H6V11H1V8Z" fill="#DD5400"/>
<path d="M1 12H4V15H1V12Z" fill="#DD5400"/>
</svg>
