<svg width="24" height="24" viewBox="0 0 24 24" fill="none" xmlns="http://www.w3.org/2000/svg">
<path d="M0.5 21.5V1.5C0.5 0.947715 0.947716 0.5 1.5 0.5H21.5C22.0523 0.5 22.5 0.947716 22.5 1.5V21.5C22.5 22.0523 22.0523 22.5 21.5 22.5H1.5C0.947715 22.5 0.5 22.0523 0.5 21.5Z" fill="var(--mw-icon-background-default-white, #FFFFFF)" stroke="var(--mw-icon-border-default-gray, #616161)" stroke-linecap="square"/>
<path d="M19.5 3.5V4C19.5 12.5604 12.5604 19.5 4 19.5H3.5" stroke="#0072BD" stroke-linecap="round"/>
<path d="M8 15.5C8 16.6046 7.10457 17.5 6 17.5C4.89543 17.5 4 16.6046 4 15.5C4 14.3954 4.89543 13.5 6 13.5C7.10457 13.5 8 14.3954 8 15.5Z" fill="white"/>
<path d="M20.5 16.5C20.5 17.6046 19.6046 18.5 18.5 18.5C17.3954 18.5 16.5 17.6046 16.5 16.5C16.5 15.3954 17.3954 14.5 18.5 14.5C19.6046 14.5 20.5 15.3954 20.5 16.5Z" fill="white"/>
<path d="M17.5 6.5C17.5 7.60457 16.6046 8.5 15.5 8.5C14.3954 8.5 13.5 7.60457 13.5 6.5C13.5 5.39543 14.3954 4.5 15.5 4.5C16.6046 4.5 17.5 5.39543 17.5 6.5Z" fill="white"/>
<path d="M8 15.5C8 16.6046 7.10457 17.5 6 17.5C4.89543 17.5 4 16.6046 4 15.5C4 14.3954 4.89543 13.5 6 13.5C7.10457 13.5 8 14.3954 8 15.5Z" stroke="var(--mw-icon-glyph-content-gray, #616162)"/>
<path d="M20.5 16.5C20.5 17.6046 19.6046 18.5 18.5 18.5C17.3954 18.5 16.5 17.6046 16.5 16.5C16.5 15.3954 17.3954 14.5 18.5 14.5C19.6046 14.5 20.5 15.3954 20.5 16.5Z" stroke="var(--mw-icon-glyph-content-gray, #616162)"/>
<path d="M17.5 6.5C17.5 7.60457 16.6046 8.5 15.5 8.5C14.3954 8.5 13.5 7.60457 13.5 6.5C13.5 5.39543 14.3954 4.5 15.5 4.5C16.6046 4.5 17.5 5.39543 17.5 6.5Z" stroke="var(--mw-icon-glyph-content-gray, #616162)"/>
</svg>
