<svg width="24" height="24" viewBox="0 0 24 24" fill="none" xmlns="http://www.w3.org/2000/svg">
<path d="M17.5 7.5C17.5 8.27754 16.1569 8.5 14.5 8.5C12.8431 8.5 11.5 8.27754 11.5 7.5V1.83333C11.5 1.0558 12.8431 0.5 14.5 0.5C16.1569 0.5 17.5 1.0558 17.5 1.83333V7.5Z" fill="var(--mw-icon-background-default-medium-gray, #D9D9D9)" stroke="var(--mw-icon-border-default-gray, #616161)" stroke-miterlimit="5.01585"/>
<ellipse cx="14.5" cy="1.5" rx="3" ry="1" fill="var(--mw-icon-background-default-medium-gray, #D9D9D9)" stroke="var(--mw-icon-border-default-gray, #616161)"/>
<path d="M21.5 15.5C21.5 16.2775 20.1569 16.5 18.5 16.5C16.8431 16.5 15.5 16.2775 15.5 15.5V9.83333C15.5 9.0558 16.8431 8.5 18.5 8.5C20.1569 8.5 21.5 9.0558 21.5 9.83333V15.5Z" fill="var(--mw-icon-background-default-medium-gray, #D9D9D9)" stroke="var(--mw-icon-border-default-gray, #616161)" stroke-miterlimit="5.01585"/>
<path d="M21.5 9.5C21.5 10.2775 20.1569 10.5 18.5 10.5C16.8431 10.5 15.5 10.2775 15.5 9.5V3.83333C15.5 3.0558 16.8431 2.5 18.5 2.5C20.1569 2.5 21.5 3.0558 21.5 3.83333V9.5Z" fill="var(--mw-icon-background-default-medium-gray, #D9D9D9)" stroke="var(--mw-icon-border-default-gray, #616161)" stroke-miterlimit="5.01585"/>
<ellipse cx="18.5" cy="3.5" rx="3" ry="1" fill="var(--mw-icon-background-default-medium-gray, #D9D9D9)" stroke="var(--mw-icon-border-default-gray, #616161)"/>
<path d="M15.5 9.5C15.5 10.2775 14.1569 10.5 12.5 10.5C10.8431 10.5 9.5 10.2775 9.5 9.5V3.83333C9.5 3.0558 10.8431 2.5 12.5 2.5C14.1569 2.5 15.5 3.0558 15.5 3.83333V9.5Z" fill="var(--mw-icon-background-default-medium-gray, #D9D9D9)" stroke="var(--mw-icon-border-default-gray, #616161)" stroke-miterlimit="5.01585"/>
<ellipse cx="12.5" cy="3.5" rx="3" ry="1" fill="var(--mw-icon-background-default-medium-gray, #D9D9D9)" stroke="var(--mw-icon-border-default-gray, #616161)"/>
<path d="M19.5 17.5C19.5 18.2775 18.1569 18.5 16.5 18.5C14.8431 18.5 13.5 18.2775 13.5 17.5V11.8333C13.5 11.0558 14.8431 10.5 16.5 10.5C18.1569 10.5 19.5 11.0558 19.5 11.8333V17.5Z" fill="var(--mw-icon-background-default-medium-gray, #D9D9D9)" stroke="var(--mw-icon-border-default-gray, #616161)" stroke-miterlimit="5.01585"/>
<path d="M19.5 11.5C19.5 12.2775 18.1569 12.5 16.5 12.5C14.8431 12.5 13.5 12.2775 13.5 11.5V5.83333C13.5 5.0558 14.8431 4.5 16.5 4.5C18.1569 4.5 19.5 5.0558 19.5 5.83333V11.5Z" fill="var(--mw-icon-background-default-medium-gray, #D9D9D9)" stroke="var(--mw-icon-border-default-gray, #616161)" stroke-miterlimit="5.01585"/>
<ellipse cx="16.5" cy="5.5" rx="3" ry="1" fill="var(--mw-icon-background-default-medium-gray, #D9D9D9)" stroke="var(--mw-icon-border-default-gray, #616161)"/>
<path d="M9.5 10.5C9.5 11.2775 8.15685 11.5 6.5 11.5C4.84315 11.5 3.5 11.2775 3.5 10.5V4.83333C3.5 4.0558 4.84315 3.5 6.5 3.5C8.15685 3.5 9.5 4.0558 9.5 4.83333V10.5Z" fill="var(--mw-icon-background-default-medium-gray, #D9D9D9)" stroke="var(--mw-icon-border-default-gray, #616161)" stroke-miterlimit="5.01585"/>
<ellipse cx="6.5" cy="4.5" rx="3" ry="1" fill="var(--mw-icon-background-default-medium-gray, #D9D9D9)" stroke="var(--mw-icon-border-default-gray, #616161)"/>
<path d="M7.5 18.5C7.5 19.2775 6.15685 19.5 4.5 19.5C2.84315 19.5 1.5 19.2775 1.5 18.5V12.8333C1.5 12.0558 2.84315 11.5 4.5 11.5C6.15685 11.5 7.5 12.0558 7.5 12.8333V18.5Z" fill="var(--mw-icon-background-default-medium-gray, #D9D9D9)" stroke="var(--mw-icon-border-default-gray, #616161)" stroke-miterlimit="5.01585"/>
<path d="M7.5 12.5C7.5 13.2775 6.15685 13.5 4.5 13.5C2.84315 13.5 1.5 13.2775 1.5 12.5V6.83333C1.5 6.0558 2.84315 5.5 4.5 5.5C6.15685 5.5 7.5 6.0558 7.5 6.83333V12.5Z" fill="var(--mw-icon-background-default-medium-gray, #D9D9D9)" stroke="var(--mw-icon-border-default-gray, #616161)" stroke-miterlimit="5.01585"/>
<ellipse cx="4.5" cy="6.5" rx="3" ry="1" fill="var(--mw-icon-background-default-medium-gray, #D9D9D9)" stroke="var(--mw-icon-border-default-gray, #616161)"/>
<path d="M13.5 18.5C13.5 19.2775 12.1569 19.5 10.5 19.5C8.84315 19.5 7.5 19.2775 7.5 18.5V12.8333C7.5 12.0558 8.84315 11.5 10.5 11.5C12.1569 11.5 13.5 12.0558 13.5 12.8333V18.5Z" fill="var(--mw-icon-background-default-medium-gray, #D9D9D9)" stroke="var(--mw-icon-border-default-gray, #616161)" stroke-miterlimit="5.01585"/>
<path d="M13.5 12.5C13.5 13.2775 12.1569 13.5 10.5 13.5C8.84315 13.5 7.5 13.2775 7.5 12.5V6.83333C7.5 6.0558 8.84315 5.5 10.5 5.5C12.1569 5.5 13.5 6.0558 13.5 6.83333V12.5Z" fill="var(--mw-icon-background-default-medium-gray, #D9D9D9)" stroke="var(--mw-icon-border-default-gray, #616161)" stroke-miterlimit="5.01585"/>
<ellipse cx="10.5" cy="6.5" rx="3" ry="1" fill="var(--mw-icon-background-default-medium-gray, #D9D9D9)" stroke="var(--mw-icon-border-default-gray, #616161)"/>
<path d="M11.5 20.5C11.5 21.2775 10.1569 21.5 8.5 21.5C6.84315 21.5 5.5 21.2775 5.5 20.5V14.8333C5.5 14.0558 6.84315 13.5 8.5 13.5C10.1569 13.5 11.5 14.0558 11.5 14.8333V20.5Z" fill="var(--mw-icon-background-default-medium-gray, #D9D9D9)" stroke="var(--mw-icon-border-default-gray, #616161)" stroke-miterlimit="5.01585"/>
<path d="M11.5 14.5C11.5 15.2775 10.1569 15.5 8.5 15.5C6.84315 15.5 5.5 15.2775 5.5 14.5V8.83333C5.5 8.0558 6.84315 7.5 8.5 7.5C10.1569 7.5 11.5 8.0558 11.5 8.83333V14.5Z" fill="var(--mw-icon-background-default-medium-gray, #D9D9D9)" stroke="var(--mw-icon-border-default-gray, #616161)" stroke-miterlimit="5.01585"/>
<ellipse cx="8.5" cy="8.5" rx="3" ry="1" fill="var(--mw-icon-background-default-medium-gray, #D9D9D9)" stroke="var(--mw-icon-border-default-gray, #616161)"/>
</svg>
