<svg width="24" height="24" viewBox="0 0 24 24" fill="none" xmlns="http://www.w3.org/2000/svg">
<path d="M0.5 7.5C0.5 6.39543 1.39543 5.5 2.5 5.5H16.5C17.6046 5.5 18.5 6.39543 18.5 7.5V15.5C18.5 16.6046 17.6046 17.5 16.5 17.5H2.5C1.39543 17.5 0.5 16.6046 0.5 15.5V7.5Z" fill="var(--mw-icon-background-default-selection, #B4DEFF)" stroke="var(--mw-icon-glyph-content-blue, #1656A8)"/>
<path d="M3 9.25C3 9.11193 3.11193 9 3.25 9H3.75C3.88807 9 4 9.11193 4 9.25V9.75C4 9.88807 3.88807 10 3.75 10H3.25C3.11193 10 3 9.88807 3 9.75V9.25Z" fill="var(--mw-icon-glyph-content-blue, #1656A8)"/>
<path d="M15 9.25C15 9.11193 15.1119 9 15.25 9H15.75C15.8881 9 16 9.11193 16 9.25V9.75C16 9.88807 15.8881 10 15.75 10H15.25C15.1119 10 15 9.88807 15 9.75V9.25Z" fill="var(--mw-icon-glyph-content-blue, #1656A8)"/>
<path d="M13 9.25C13 9.11193 13.1119 9 13.25 9H13.75C13.8881 9 14 9.11193 14 9.25V9.75C14 9.88807 13.8881 10 13.75 10H13.25C13.1119 10 13 9.88807 13 9.75V9.25Z" fill="var(--mw-icon-glyph-content-blue, #1656A8)"/>
<path d="M11 9.25C11 9.11193 11.1119 9 11.25 9H11.75C11.8881 9 12 9.11193 12 9.25V9.75C12 9.88807 11.8881 10 11.75 10H11.25C11.1119 10 11 9.88807 11 9.75V9.25Z" fill="var(--mw-icon-glyph-content-blue, #1656A8)"/>
<path d="M9 9.25C9 9.11193 9.11193 9 9.25 9H9.75C9.88807 9 10 9.11193 10 9.25V9.75C10 9.88807 9.88807 10 9.75 10H9.25C9.11193 10 9 9.88807 9 9.75V9.25Z" fill="var(--mw-icon-glyph-content-blue, #1656A8)"/>
<path d="M7 9.25C7 9.11193 7.11193 9 7.25 9H7.75C7.88807 9 8 9.11193 8 9.25V9.75C8 9.88807 7.88807 10 7.75 10H7.25C7.11193 10 7 9.88807 7 9.75V9.25Z" fill="var(--mw-icon-glyph-content-blue, #1656A8)"/>
<path d="M5 9.25C5 9.11193 5.11193 9 5.25 9H5.75C5.88807 9 6 9.11193 6 9.25V9.75C6 9.88807 5.88807 10 5.75 10H5.25C5.11193 10 5 9.88807 5 9.75V9.25Z" fill="var(--mw-icon-glyph-content-blue, #1656A8)"/>
<path d="M3 13.25C3 13.1119 3.11193 13 3.25 13H3.75C3.88807 13 4 13.1119 4 13.25V13.75C4 13.8881 3.88807 14 3.75 14H3.25C3.11193 14 3 13.8881 3 13.75V13.25Z" fill="var(--mw-icon-glyph-content-blue, #1656A8)"/>
<path d="M15 13.25C15 13.1119 15.1119 13 15.25 13H15.75C15.8881 13 16 13.1119 16 13.25V13.75C16 13.8881 15.8881 14 15.75 14H15.25C15.1119 14 15 13.8881 15 13.75V13.25Z" fill="var(--mw-icon-glyph-content-blue, #1656A8)"/>
<path d="M13 13.25C13 13.1119 13.1119 13 13.25 13H13.75C13.8881 13 14 13.1119 14 13.25V13.75C14 13.8881 13.8881 14 13.75 14H13.25C13.1119 14 13 13.8881 13 13.75V13.25Z" fill="var(--mw-icon-glyph-content-blue, #1656A8)"/>
<path d="M11 13.25C11 13.1119 11.1119 13 11.25 13H11.75C11.8881 13 12 13.1119 12 13.25V13.75C12 13.8881 11.8881 14 11.75 14H11.25C11.1119 14 11 13.8881 11 13.75V13.25Z" fill="var(--mw-icon-glyph-content-blue, #1656A8)"/>
<path d="M7 13.25C7 13.1119 7.11193 13 7.25 13H7.75C7.88807 13 8 13.1119 8 13.25V13.75C8 13.8881 7.88807 14 7.75 14H7.25C7.11193 14 7 13.8881 7 13.75V13.25Z" fill="var(--mw-icon-glyph-content-blue, #1656A8)"/>
<path d="M5 13.25C5 13.1119 5.11193 13 5.25 13H5.75C5.88807 13 6 13.1119 6 13.25V13.75C6 13.8881 5.88807 14 5.75 14H5.25C5.11193 14 5 13.8881 5 13.75V13.25Z" fill="var(--mw-icon-glyph-content-blue, #1656A8)"/>
<path d="M3 11.25C3 11.1119 3.11193 11 3.25 11H3.75C3.88807 11 4 11.1119 4 11.25V11.75C4 11.8881 3.88807 12 3.75 12H3.25C3.11193 12 3 11.8881 3 11.75V11.25Z" fill="var(--mw-icon-glyph-content-blue, #1656A8)"/>
<path d="M15 11.25C15 11.1119 15.1119 11 15.25 11H15.75C15.8881 11 16 11.1119 16 11.25V11.75C16 11.8881 15.8881 12 15.75 12H15.25C15.1119 12 15 11.8881 15 11.75V11.25Z" fill="var(--mw-icon-glyph-content-blue, #1656A8)"/>
<path d="M13 11.25C13 11.1119 13.1119 11 13.25 11H13.75C13.8881 11 14 11.1119 14 11.25V11.75C14 11.8881 13.8881 12 13.75 12H13.25C13.1119 12 13 11.8881 13 11.75V11.25Z" fill="var(--mw-icon-glyph-content-blue, #1656A8)"/>
<path d="M9 11.25C9 11.1119 9.11193 11 9.25 11H9.75C9.88807 11 10 11.1119 10 11.25V11.75C10 11.8881 9.88807 12 9.75 12H9.25C9.11193 12 9 11.8881 9 11.75V11.25Z" fill="var(--mw-icon-glyph-content-blue, #1656A8)"/>
<path d="M7 11.25C7 11.1119 7.11193 11 7.25 11H7.75C7.88807 11 8 11.1119 8 11.25V11.75C8 11.8881 7.88807 12 7.75 12H7.25C7.11193 12 7 11.8881 7 11.75V11.25Z" fill="var(--mw-icon-glyph-content-blue, #1656A8)"/>
<path d="M5 11.25C5 11.1119 5.11193 11 5.25 11H5.75C5.88807 11 6 11.1119 6 11.25V11.75C6 11.8881 5.88807 12 5.75 12H5.25C5.11193 12 5 11.8881 5 11.75V11.25Z" fill="var(--mw-icon-glyph-content-blue, #1656A8)"/>
<path fill-rule="evenodd" clip-rule="evenodd" d="M3 2V0H4V2H3Z" fill="var(--mw-icon-glyph-content-blue, #1656A8)"/>
<path d="M3.5 5L1 2H6L3.5 5Z" fill="var(--mw-icon-glyph-content-blue, #1656A8)"/>
<path fill-rule="evenodd" clip-rule="evenodd" d="M9 2V0H10V2H9Z" fill="var(--mw-icon-glyph-content-blue, #1656A8)"/>
<path d="M9.5 5L7 2H12L9.5 5Z" fill="var(--mw-icon-glyph-content-blue, #1656A8)"/>
<path d="M15.5 0V2Z" fill="var(--mw-icon-glyph-content-blue, #1656A8)"/>
<path fill-rule="evenodd" clip-rule="evenodd" d="M15 2V0H16V2H15Z" fill="var(--mw-icon-glyph-content-blue, #1656A8)"/>
<path d="M15.5 5L13 2H18L15.5 5Z" fill="var(--mw-icon-glyph-content-blue, #1656A8)"/>
<path d="M9.5 12.5C9.5 11.3954 10.3954 10.5 11.5 10.5H21.5C22.6046 10.5 23.5 11.3954 23.5 12.5V21.5C23.5 22.6046 22.6046 23.5 21.5 23.5H11.5C10.3954 23.5 9.5 22.6046 9.5 21.5V12.5Z" fill="var(--mw-icon-background-default-white, #FFFFFF)" stroke="var(--mw-icon-border-default-blue, #1656A7)"/>
<path d="M16.5 12.5V15.5M12.5 18.5V21.5M20.5 18.5V21.5M13.5 13V15C13.5 15.2761 13.2761 15.5 13 15.5H12C11.7239 15.5 11.5 15.2761 11.5 15V13C11.5 12.7239 11.7239 12.5 12 12.5H13C13.2761 12.5 13.5 12.7239 13.5 13ZM17.5 19V21C17.5 21.2761 17.2761 21.5 17 21.5H16C15.7239 21.5 15.5 21.2761 15.5 21V19C15.5 18.7239 15.7239 18.5 16 18.5H17C17.2761 18.5 17.5 18.7239 17.5 19ZM21.5 13V15C21.5 15.2761 21.2761 15.5 21 15.5H20C19.7239 15.5 19.5 15.2761 19.5 15V13C19.5 12.7239 19.7239 12.5 20 12.5H21C21.2761 12.5 21.5 12.7239 21.5 13Z" stroke="var(--mw-icon-glyph-content-blue, #1656A8)" stroke-linecap="square"/>
</svg>
