<svg width="24" height="24" viewBox="0 0 24 24" fill="none" xmlns="http://www.w3.org/2000/svg">
<rect x="0.5" y="0.5" width="22" height="22" rx="2" fill="var(--mw-icon-background-default-white, #FFFFFF)" stroke="var(--mw-icon-border-default-gray, #616161)"/>
<path d="M11.5 14.5L15 11.5L11.5 8.5V10.5H8.5V12.5H11.5V14.5Z" fill="var(--mw-icon-background-default-medium-gray, #D9D9D9)" stroke="var(--mw-icon-glyph-disabled-gray, #888889)"/>
<path d="M5.5 9C5.5 9.82843 4.82843 10.5 4 10.5C3.17157 10.5 2.5 9.82843 2.5 9C2.5 8.17157 3.17157 7.5 4 7.5C4.82843 7.5 5.5 8.17157 5.5 9Z" fill="var(--mw-icon-background-default-dark-gray, #A6A6A6)" stroke="#7D7D7D"/>
<path d="M5.5 19C5.5 19.8284 4.82843 20.5 4 20.5C3.17157 20.5 2.5 19.8284 2.5 19C2.5 18.1716 3.17157 17.5 4 17.5C4.82843 17.5 5.5 18.1716 5.5 19Z" fill="var(--mw-icon-background-default-dark-gray, #A6A6A6)" stroke="#7D7D7D"/>
<path d="M5.5 4C5.5 4.82843 4.82843 5.5 4 5.5C3.17157 5.5 2.5 4.82843 2.5 4C2.5 3.17157 3.17157 2.5 4 2.5C4.82843 2.5 5.5 3.17157 5.5 4Z" fill="var(--mw-icon-background-default-medium-gray, #D9D9D9)" stroke="var(--mw-icon-glyph-disabled-gray, #888889)"/>
<path d="M5.5 14C5.5 14.8284 4.82843 15.5 4 15.5C3.17157 15.5 2.5 14.8284 2.5 14C2.5 13.1716 3.17157 12.5 4 12.5C4.82843 12.5 5.5 13.1716 5.5 14Z" fill="var(--mw-icon-background-default-medium-gray, #D9D9D9)" stroke="var(--mw-icon-glyph-disabled-gray, #888889)"/>
<path d="M20.5 2.5H17.5V10.5H20.5V2.5Z" fill="var(--mw-icon-background-default-medium-gray, #D9D9D9)" stroke="var(--mw-icon-glyph-disabled-gray, #888889)" stroke-linejoin="round"/>
<path d="M20.5 12.5H17.5V20.5H20.5V12.5Z" fill="var(--mw-icon-background-default-dark-gray, #A6A6A6)" stroke="#7D7D7D" stroke-linejoin="round"/>
<path d="M17.5 6.5H20.5" stroke="var(--mw-icon-glyph-disabled-gray, #888889)"/>
<path d="M17.5 16.5H20.5" stroke="#7D7D7D"/>
</svg>
