<svg width="24" height="24" viewBox="0 0 24 24" fill="none" xmlns="http://www.w3.org/2000/svg">
<path d="M0.5 18.5V4.5C0.5 2.29086 2.29086 0.5 4.5 0.5H18.5C20.7091 0.5 22.5 2.29086 22.5 4.5V18.5C22.5 20.7091 20.7091 22.5 18.5 22.5H4.5C2.29086 22.5 0.5 20.7091 0.5 18.5Z" fill="#00A3A3"/>
<path d="M0.5 11.7303C2.99294 6.36448 4.58378 6.59024 5.58096 9.96526C6.07955 13.566 7.57531 18.2021 8.47739 13.0517C9.91753 -1.8683 12.5129 2.3721 12.4661 9.45087C12.5841 17.2837 14.5511 23.5682 15.4723 17.6877C16.4244 10.9461 16.1877 4.15387 18.7173 10.3831C19.5151 12.3521 21.1601 13.2782 22.5 11.7922" stroke="var(--mw-icon-background-default-white, white)"/>
<path d="M0.5 18.5V4.5C0.5 2.29086 2.29086 0.5 4.5 0.5H18.5C20.7091 0.5 22.5 2.29086 22.5 4.5V18.5C22.5 20.7091 20.7091 22.5 18.5 22.5H4.5C2.29086 22.5 0.5 20.7091 0.5 18.5Z" stroke="#02555C" stroke-linecap="round"/>

</svg>
