<svg width="24" height="24" viewBox="0 0 24 24" fill="none" xmlns="http://www.w3.org/2000/svg">
<path d="M5.5 0.5H18.5V8.5H5.5V0.5Z" fill="var(--mw-icon-background-default-white, #FFFFFF)" stroke="var(--mw-icon-border-default-gray, #616161)" stroke-linejoin="round"/>
<path d="M19.8536 2.14645C19.6583 1.95118 19.3417 1.95118 19.1464 2.14645C18.9512 2.34171 18.9512 2.65829 19.1464 2.85355L19.8536 2.14645ZM21.5 4.5L21.8536 4.85355C22.0488 4.65829 22.0488 4.34171 21.8536 4.14645L21.5 4.5ZM19.1464 6.14645C18.9512 6.34171 18.9512 6.65829 19.1464 6.85355C19.3417 7.04882 19.6583 7.04882 19.8536 6.85355L19.1464 6.14645ZM19.1464 2.85355L21.1464 4.85355L21.8536 4.14645L19.8536 2.14645L19.1464 2.85355ZM21.1464 4.14645L19.1464 6.14645L19.8536 6.85355L21.8536 4.85355L21.1464 4.14645Z" fill="var(--mw-icon-border-default-gray, #616161)"/>
<path d="M2.85355 2.14645C2.65829 1.95118 2.34171 1.95118 2.14645 2.14645C1.95118 2.34171 1.95118 2.65829 2.14645 2.85355L2.85355 2.14645ZM4.5 4.5L4.85355 4.85355C5.04882 4.65829 5.04882 4.34171 4.85355 4.14645L4.5 4.5ZM2.14645 6.14645C1.95118 6.34171 1.95118 6.65829 2.14645 6.85355C2.34171 7.04882 2.65829 7.04882 2.85355 6.85355L2.14645 6.14645ZM2.14645 2.85355L4.14645 4.85355L4.85355 4.14645L2.85355 2.14645L2.14645 2.85355ZM4.14645 4.14645L2.14645 6.14645L2.85355 6.85355L4.85355 4.85355L4.14645 4.14645Z" fill="var(--mw-icon-border-default-gray, #616161)"/>
<path d="M5.5 15.5H18.5V23.5H5.5V15.5Z" fill="white" stroke="var(--mw-icon-border-disabled-gray, #888888)" stroke-linejoin="round"/>
<path d="M19.8536 17.1464C19.6583 16.9512 19.3417 16.9512 19.1464 17.1464C18.9512 17.3417 18.9512 17.6583 19.1464 17.8536L19.8536 17.1464ZM21.5 19.5L21.8536 19.8536C22.0488 19.6583 22.0488 19.3417 21.8536 19.1464L21.5 19.5ZM19.1464 21.1464C18.9512 21.3417 18.9512 21.6583 19.1464 21.8536C19.3417 22.0488 19.6583 22.0488 19.8536 21.8536L19.1464 21.1464ZM19.1464 17.8536L21.1464 19.8536L21.8536 19.1464L19.8536 17.1464L19.1464 17.8536ZM21.1464 19.1464L19.1464 21.1464L19.8536 21.8536L21.8536 19.8536L21.1464 19.1464Z" fill="var(--mw-icon-border-disabled-gray, #888888)"/>
<path d="M2.85355 17.1464C2.65829 16.9512 2.34171 16.9512 2.14645 17.1464C1.95118 17.3417 1.95118 17.6583 2.14645 17.8536L2.85355 17.1464ZM4.5 19.5L4.85355 19.8536C5.04882 19.6583 5.04882 19.3417 4.85355 19.1464L4.5 19.5ZM2.14645 21.1464C1.95118 21.3417 1.95118 21.6583 2.14645 21.8536C2.34171 22.0488 2.65829 22.0488 2.85355 21.8536L2.14645 21.1464ZM2.14645 17.8536L4.14645 19.8536L4.85355 19.1464L2.85355 17.1464L2.14645 17.8536ZM4.14645 19.1464L2.14645 21.1464L2.85355 21.8536L4.85355 19.8536L4.14645 19.1464Z" fill="var(--mw-icon-border-disabled-gray, #888888)"/>
<path d="M15.5 13.5L12 18.5L8.5 13.5L10.5 13.5L10.5 5.5L13.5 5.5L13.5 13.5L15.5 13.5Z" fill="var(--mw-icon-background-default-selection, #B4DEFF)" stroke="var(--mw-icon-border-default-blue, #1656A7)"/>
</svg>
