<svg width="24" height="25" viewBox="0 0 24 25" fill="none" xmlns="http://www.w3.org/2000/svg">
<path d="M0.5 13.5L3.5 21.5H7.00758C7.33462 21.5 7.66044 21.5401 7.97772 21.6194L11.5 22.5H12.5H18.5L22.5 13.5L18.5 12.5V7.5H20.5L19.5 5.5H3.5L2.5 7.5H4.5V12.5L0.5 13.5Z" fill="#F5FAFF"/>
<path d="M4.5 12.5V7.5H18.5V12.5L22.5 13.5L18.5 23.5H15.5L11.5 22.5V11.5L4.5 12.5Z" fill="var(--mw-icon-background-medium-blue, #83CAFF)"/>
<path d="M18.5 12.5V7.5H20.5L19.5 5.5H3.5L2.5 7.5H4.50004L4.5 12.5" stroke="var(--mw-icon-glyph-content-blue, #1656A8)" stroke-linejoin="round"/>
<path d="M6.5 3.5V5.5H16.5V3.5H6.5Z" fill="var(--mw-icon-background-default-selection, #B4DEFF)" stroke="var(--mw-icon-glyph-content-blue, #1656A8)" stroke-linecap="square" stroke-linejoin="round"/>
<path d="M12.5 0.5V3.5H14.5V0.5H12.5Z" fill="var(--mw-icon-background-medium-blue, #83CAFF)"/>
<path d="M8.5 0.5V3.5H10.5V0.5H8.5Z" fill="var(--mw-icon-background-medium-blue, #83CAFF)"/>
<path d="M12.5 0.5V3.5H14.5V0.5H12.5Z" stroke="var(--mw-icon-glyph-content-blue, #1656A8)" stroke-linecap="square" stroke-linejoin="round"/>
<path d="M8.5 0.5V3.5H10.5V0.5H8.5Z" stroke="var(--mw-icon-glyph-content-blue, #1656A8)" stroke-linecap="square" stroke-linejoin="round"/>
<path d="M11.5 11.5V22.5359M11.5 11.5L0.5 13.5L3.5 21.5M11.5 11.5L22.5 13.5L18.5 23.5" stroke="var(--mw-icon-glyph-content-blue, #1656A8)" stroke-linejoin="round"/>
<path d="M6 9.5C6 9.22386 6.22386 9 6.5 9H8.5C8.77614 9 9 9.22386 9 9.5V9.5C9 9.77614 8.77614 10 8.5 10H6.5C6.22386 10 6 9.77614 6 9.5V9.5Z" fill="var(--mw-icon-glyph-content-light-blue, #278CDD)"/>
<path d="M10 9.5C10 9.22386 10.2239 9 10.5 9H12.5C12.7761 9 13 9.22386 13 9.5V9.5C13 9.77614 12.7761 10 12.5 10H10.5C10.2239 10 10 9.77614 10 9.5V9.5Z" fill="var(--mw-icon-glyph-content-light-blue, #278CDD)"/>
<path d="M14 9.5C14 9.22386 14.2239 9 14.5 9H16.5C16.7761 9 17 9.22386 17 9.5V9.5C17 9.77614 16.7761 10 16.5 10H14.5C14.2239 10 14 9.77614 14 9.5V9.5Z" fill="var(--mw-icon-glyph-content-light-blue, #278CDD)"/>
<path d="M4.5 7.5H18.5" stroke="var(--mw-icon-glyph-content-blue, #1656A8)" stroke-linecap="square" stroke-linejoin="round"/>
<path d="M1.5 22.5C3.16667 21.8333 7 20.5 11.5 22.5C13.1667 23.1666 17 24.5 21.5 22.5" stroke="var(--mw-icon-object-primary, #616160)" stroke-linecap="round" stroke-linejoin="round"/>
</svg>
