<svg width="24" height="24" viewBox="0 0 24 24" fill="none" xmlns="http://www.w3.org/2000/svg">
<rect x="0.5" y="0.5" width="22" height="22" rx="2" fill="var(--mw-icon-background-default-white, #FFFFFF)"/>
<rect x="13" y="1" width="9" height="8" fill="var(--mw-icon-background-medium-yellow, #FFEF91)"/>
<path d="M1.5 9.5H3.5" stroke="var(--mw-icon-background-default-dark-gray, #A6A6A6)" stroke-linecap="round" stroke-linejoin="round"/>
<path d="M5.5 9.5H7.5" stroke="var(--mw-icon-background-default-dark-gray, #A6A6A6)" stroke-linecap="round" stroke-linejoin="round"/>
<path d="M9.5 9.5H11.5" stroke="var(--mw-icon-background-default-dark-gray, #A6A6A6)" stroke-linecap="round" stroke-linejoin="round"/>
<path d="M13.5 9.5H15.5" stroke="var(--mw-icon-background-default-dark-gray, #A6A6A6)" stroke-linecap="round" stroke-linejoin="round"/>
<path d="M17.5 9.5H19.5" stroke="var(--mw-icon-background-default-dark-gray, #A6A6A6)" stroke-linecap="round" stroke-linejoin="round"/>
<path d="M21.5 9.5H22.5" stroke="var(--mw-icon-background-default-dark-gray, #A6A6A6)" stroke-linecap="round" stroke-linejoin="round"/>
<path d="M1.5 13.5H21.5" stroke="var(--mw-icon-background-default-dark-gray, #A6A6A6)" stroke-linecap="square" stroke-linejoin="round"/>
<path d="M0.5 9.5C6.5 9.5 6 9 7.5 6.5C10.0432 11.0497 12.0828 12.2047 16.5 12.5H22.5" stroke="#1171BE" stroke-linecap="square" stroke-linejoin="round"/>
<rect x="1" y="1" width="5" height="2" fill="var(--mw-icon-background-medium-yellow, #FFEF91)"/>
<rect x="6" y="1" width="7" height="4" fill="var(--mw-icon-background-medium-yellow, #FFEF91)"/>
<rect x="1" y="3" width="5" height="1" fill="var(--mw-icon-glyph-content-yellow, #674C07)"/>
<rect x="6" y="5" width="7" height="1" fill="var(--mw-icon-glyph-content-yellow, #674C07)"/>
<path d="M1 15.5H7.36641C8.06959 15.5 8.7122 15.8764 9.11795 16.4507C12.1666 20.7658 16.3568 21.5 21.5 21.5" stroke="#1171BE" stroke-linecap="square" stroke-linejoin="round"/>
<rect x="0.5" y="0.5" width="22" height="22" rx="2" stroke="var(--mw-icon-border-default-gray, #616161)"/>
</svg>
