<svg width="24" height="24" viewBox="0 0 24 24" fill="none" xmlns="http://www.w3.org/2000/svg">
<rect x="0.5" y="0.5" width="22" height="22" rx="2" fill="var(--mw-icon-background-default-white, #FFFFFF)"/>
<path d="M1.5 11.5H21.5" stroke="var(--mw-icon-glyph-content-gray, #616162)" stroke-linecap="square" stroke-linejoin="round"/>
<path d="M0.5 6.5C6.5 6.5 13 6.5 14.5 1.5C16.5 9.5 18 10.5 22.5 10.5" stroke="#1171BE" stroke-linecap="square" stroke-linejoin="round"/>
<path d="M1.5 12.5H4.83203C8.34793 12.5 11.4398 14.4664 13.5939 17.2451C15.6084 19.8439 17.8878 21.5 21.5 21.5" stroke="#1171BE" stroke-linecap="square" stroke-linejoin="round"/>
<rect x="0.5" y="0.5" width="22" height="22" rx="2" stroke="var(--mw-icon-border-default-gray, #616161)"/>
<circle cx="15.5" cy="5.5" r="1" fill="white" stroke="#DD5400"/>
<circle cx="15.5" cy="18.5" r="1" fill="white" stroke="#DD5400"/>
<path d="M9.5 4.5L10.5 5.5M10.5 5.5L11.5 6.5M10.5 5.5L11.5 4.5M10.5 5.5L9.5 6.5" stroke="#DD5400" stroke-linecap="round"/>
<path d="M9.5 13.5L10.5 14.5M10.5 14.5L11.5 15.5M10.5 14.5L11.5 13.5M10.5 14.5L9.5 15.5" stroke="#DD5400" stroke-linecap="round"/>
</svg>
