<svg width="24" height="24" viewBox="0 0 24 24" fill="none" xmlns="http://www.w3.org/2000/svg">
<path d="M21.5 0.5H2.5C1.39543 0.5 0.5 1.39543 0.5 2.5V21.5C0.5 22.6046 1.39543 23.5 2.5 23.5H21.5C22.6046 23.5 23.5 22.6046 23.5 21.5V2.5C23.5 1.39543 22.6046 0.5 21.5 0.5Z" fill="var(--mw-icon-background-default-white, #FFFFFF)" stroke="var(--mw-icon-border-default-gray, #616161)" stroke-linecap="round"/>
<path d="M6.5 11.5V4.5H13C14.933 4.5 16.5 6.067 16.5 8C16.5 9.933 14.933 11.5 13 11.5H6.5ZM6.5 11.5V19.5H13.5C15.7091 19.5 17.5 17.7091 17.5 15.5C17.5 13.2909 15.7091 11.5 13.5 11.5H6.5Z" stroke="var(--mw-icon-glyph-content-gray, #616162)" stroke-width="3"/>
</svg>
