<svg width="50" height="40" viewBox="0 0 50 40" fill="none" xmlns="http://www.w3.org/2000/svg">
<rect x="0.5" y="0.5" width="48" height="38" rx="1" fill="var(--mw-icon-background-default-white, #FFFFFF)"/>
<rect x="0.5" y="0.5" width="48" height="38" rx="1" stroke="var(--mw-icon-border-default-gray, #616161)"/>
<path d="M41 25.5C41 25.2239 40.7761 25 40.5 25C40.2239 25 40 25.2239 40 25.5L41 25.5ZM40 30.5C40 30.7761 40.2239 31 40.5 31C40.7761 31 41 30.7761 41 30.5L40 30.5ZM41 6.5C41 6.22386 40.7761 6 40.5 6C40.2239 6 40 6.22386 40 6.5H41ZM40 10.5C40 10.7761 40.2239 11 40.5 11C40.7761 11 41 10.7761 41 10.5H40ZM38.5 6C38.2239 6 38 6.22386 38 6.5C38 6.77614 38.2239 7 38.5 7V6ZM42.5 7C42.7761 7 43 6.77614 43 6.5C43 6.22386 42.7761 6 42.5 6V7ZM38.5 30C38.2239 30 38 30.2239 38 30.5C38 30.7761 38.2239 31 38.5 31V30ZM42.5 31C42.7761 31 43 30.7761 43 30.5C43 30.2239 42.7761 30 42.5 30V31ZM40 25.5L40 30.5L41 30.5L41 25.5L40 25.5ZM40 6.5V10.5H41V6.5H40ZM38.5 7H42.5V6H38.5V7ZM38.5 31H42.5V30H38.5V31Z" fill="var(--mw-icon-glyph-content-gray, #616162)"/>
<rect x="37.5" y="10.5" width="6" height="15" rx="0.5" fill="#FFD19E" stroke="#C04C0B" stroke-linejoin="round"/>
<path d="M43 15.5H38" stroke="#C04C0B"/>
<path d="M30.5 28.5V33.5M30.5 13V16M28.5 12.5H32.5M28.5 33.5H32.5" stroke="var(--mw-icon-glyph-content-gray, #616162)" stroke-linecap="round" stroke-linejoin="round"/>
<rect x="27.5" y="16.5" width="6" height="12" rx="0.5" fill="var(--mw-icon-background-default-selection, #B4DEFF)" stroke="var(--mw-icon-glyph-content-blue, #1656A8)" stroke-linejoin="round"/>
<path d="M33 20.5H28" stroke="var(--mw-icon-glyph-content-blue, #1656A8)"/>
<circle cx="30.5" cy="7.5" r="2" stroke="var(--mw-icon-border-default-blue, #1656A7)"/>
<path d="M18.5 20.5L18.5 25.5M18.5 4.5L18.5 8.5M16.5 4.5H20.5M16.5 25.5H20.5" stroke="var(--mw-icon-glyph-content-gray, #616162)" stroke-linecap="round" stroke-linejoin="round"/>
<rect x="15.5" y="8.5" width="6" height="12" rx="0.5" fill="#FFD19E" stroke="#C04C0B" stroke-linejoin="round"/>
<path d="M21.125 12.5H15.875" stroke="#C04C0B"/>
<circle cx="18.5" cy="30.5" r="2" stroke="#C04C0B"/>
<path d="M8.5 27L8.5 32M8.5 8.5L8.5 12.5M6.5 8.5L10.5 8.5M6.5 32.5H10.5" stroke="var(--mw-icon-glyph-content-gray, #616162)" stroke-linecap="round" stroke-linejoin="round"/>
<rect x="5.5" y="12.5" width="6" height="15" rx="0.5" fill="var(--mw-icon-background-default-selection, #B4DEFF)" stroke="var(--mw-icon-glyph-content-blue, #1656A8)" stroke-linejoin="round"/>
<path d="M11.125 17.5H5.875" stroke="var(--mw-icon-glyph-content-blue, #1656A8)"/>
</svg>
