<svg width="24" height="24" viewBox="0 0 24 24" fill="none" xmlns="http://www.w3.org/2000/svg">
<path d="M21.5 0.5H8.5V23.5H21.5C22.6046 23.5 23.5 22.6046 23.5 21.5V2.5C23.5 1.39543 22.6046 0.5 21.5 0.5Z" fill="var(--mw-icon-background-default-white, #FFFFFF)" stroke="var(--mw-icon-border-default-gray, #616161)" stroke-linecap="round"/>
<path d="M8.5 0.5H2.5C1.39543 0.5 0.5 1.39543 0.5 2.5V21.5C0.5 22.6046 1.39543 23.5 2.5 23.5H8.5V0.5Z" fill="var(--mw-icon-background-default-medium-gray, #D9D9D9)" stroke="var(--mw-icon-border-default-gray, #616161)" stroke-linecap="round"/>
<path d="M13.5 6.5H17.5M13.5 15.5H17.5" stroke="var(--mw-icon-glyph-content-red, #902623)" stroke-linecap="round"/>
<path d="M11.5 3.5H15.5M11.5 18.5H15.5M11.5 12.5H15.5M15.5 9.5H19.5" stroke="var(--mw-icon-glyph-content-gray, #616162)" stroke-linecap="round"/>
<path d="M6.5 6.5C6.5 7.60457 5.60457 8.5 4.5 8.5C3.39543 8.5 2.5 7.60457 2.5 6.5C2.5 5.39543 3.39543 4.5 4.5 4.5C5.60457 4.5 6.5 5.39543 6.5 6.5Z" fill="var(--mw-icon-background-red, #FF9D9A)"/>
<path d="M6.5 15.5C6.5 16.6046 5.60457 17.5 4.5 17.5C3.39543 17.5 2.5 16.6046 2.5 15.5C2.5 14.3954 3.39543 13.5 4.5 13.5C5.60457 13.5 6.5 14.3954 6.5 15.5Z" fill="var(--mw-icon-background-red, #FF9D9A)"/>
<path d="M6.5 6.5C6.5 7.60457 5.60457 8.5 4.5 8.5C3.39543 8.5 2.5 7.60457 2.5 6.5C2.5 5.39543 3.39543 4.5 4.5 4.5C5.60457 4.5 6.5 5.39543 6.5 6.5Z" stroke="var(--mw-icon-glyph-content-red, #902623)"/>
<path d="M6.5 15.5C6.5 16.6046 5.60457 17.5 4.5 17.5C3.39543 17.5 2.5 16.6046 2.5 15.5C2.5 14.3954 3.39543 13.5 4.5 13.5C5.60457 13.5 6.5 14.3954 6.5 15.5Z" stroke="var(--mw-icon-glyph-content-red, #902623)"/>
</svg>
