<svg width="24" height="24" viewBox="0 0 24 24" fill="none" xmlns="http://www.w3.org/2000/svg">
<path d="M14.5 21.5V15.5C14.5 14.9477 14.9477 14.5 15.5 14.5H21.5C22.0523 14.5 22.5 14.9477 22.5 15.5V21.5C22.5 22.0523 22.0523 22.5 21.5 22.5H15.5C14.9477 22.5 14.5 22.0523 14.5 21.5Z" fill="var(--mw-icon-background-default-medium-gray, #D9D9D9)" stroke="var(--mw-icon-border-disabled-gray, #888888)"/>
<path d="M0.5 7.5V1.5C0.5 0.947715 0.947715 0.5 1.5 0.5H7.5C8.05228 0.5 8.5 0.947715 8.5 1.5V7.5C8.5 8.05228 8.05228 8.5 7.5 8.5H1.5C0.947715 8.5 0.5 8.05228 0.5 7.5Z" fill="var(--mw-icon-background-default-medium-gray, #D9D9D9)" stroke="var(--mw-icon-border-disabled-gray, #888888)"/>
<path d="M5.5 16.5V6.5C5.5 5.94772 5.94772 5.5 6.5 5.5H16.5C17.0523 5.5 17.5 5.94772 17.5 6.5V16.5C17.5 17.0523 17.0523 17.5 16.5 17.5H6.5C5.94772 17.5 5.5 17.0523 5.5 16.5Z" fill="var(--mw-icon-background-medium-yellow, #FFEF91)" stroke="#674C06"/>
</svg>
