<svg width="24" height="24" viewBox="0 0 24 24" fill="none" xmlns="http://www.w3.org/2000/svg">
<path d="M0.5 11.5V1.5C0.5 0.947715 0.947715 0.5 1.5 0.5H11.5C12.0523 0.5 12.5 0.947715 12.5 1.5V11.5C12.5 12.0523 12.0523 12.5 11.5 12.5H1.5C0.947715 12.5 0.5 12.0523 0.5 11.5Z" fill="var(--mw-icon-background-default-medium-gray, #D9D9D9)" stroke="var(--mw-icon-border-disabled-gray, #888888)"/>
<path d="M8.5 21.5V9.5C8.5 8.94772 8.94772 8.5 9.5 8.5H21.5C22.0523 8.5 22.5 8.94772 22.5 9.5V21.5C22.5 22.0523 22.0523 22.5 21.5 22.5H9.5C8.94772 22.5 8.5 22.0523 8.5 21.5Z" fill="var(--mw-icon-background-medium-yellow, #FFEF91)" stroke="#674C06"/>
</svg>
