<svg width="24" height="24" viewBox="0 0 24 24" fill="none" xmlns="http://www.w3.org/2000/svg">
<path d="M3.50538 8.5H6.50008L15.5 17.5V20.4982C15.5 21.6035 14.5994 22.5131 13.5025 22.3777C7.30858 21.6131 2.43479 17.3019 1.62 10.5029C1.48832 9.40409 2.39872 8.5 3.50538 8.5Z" fill="var(--mw-icon-background-default-white, #FFFFFF)"/>
<path d="M6.50008 8.5L6.85364 8.14645C6.75987 8.05268 6.63269 8 6.50008 8V8.5ZM15.5 17.5H16C16 17.3674 15.9474 17.2402 15.8536 17.1464L15.5 17.5ZM13.5025 22.3777L13.5637 21.8814L13.5637 21.8814L13.5025 22.3777ZM1.62 10.5029L2.11645 10.4434L1.62 10.5029ZM3.22269 15.084C2.99292 15.2372 2.93083 15.5476 3.08401 15.7774C3.23719 16.0071 3.54762 16.0692 3.77739 15.916L3.22269 15.084ZM6.77739 13.916C7.00715 13.7628 7.06924 13.4524 6.91606 13.2226C6.76288 12.9929 6.45245 12.9308 6.22269 13.084L6.77739 13.916ZM8.1096 19.6877L7.79725 20.0781L8.57812 20.7028L8.89047 20.3123L8.1096 19.6877ZM10.8905 17.8123C11.063 17.5967 11.028 17.2821 10.8124 17.1096C10.5968 16.9371 10.2821 16.972 10.1096 17.1877L10.8905 17.8123ZM3.50538 9H6.50008V8H3.50538V9ZM6.14653 8.85355L15.1465 17.8536L15.8536 17.1464L6.85364 8.14645L6.14653 8.85355ZM15 17.5V20.4982H16V17.5H15ZM15 20.4982C15 21.3463 14.3211 21.9749 13.5637 21.8814L13.4412 22.8739C14.8777 23.0512 16 21.8606 16 20.4982H15ZM13.5637 21.8814C7.58184 21.143 2.90197 16.9982 2.11645 10.4434L1.12355 10.5624C1.9676 17.6056 7.03531 22.0831 13.4412 22.8739L13.5637 21.8814ZM2.11645 10.4434C2.02515 9.68151 2.65743 9 3.50538 9V8C2.14002 8 0.9515 9.12668 1.12355 10.5624L2.11645 10.4434ZM3.77739 15.916L6.77739 13.916L6.22269 13.084L3.22269 15.084L3.77739 15.916ZM8.89047 20.3123L10.8905 17.8123L10.1096 17.1877L8.1096 19.6877L8.89047 20.3123Z" fill="var(--mw-icon-border-default-gray, #616161)"/>
<path d="M18.5857 2.41422L12.5 8.5H6.5L15.5 17.5V11.5L21.5857 5.41421C22.3668 4.63316 22.3668 3.36684 21.5857 2.58579L21.4142 2.41422C20.6331 1.63317 19.3668 1.63317 18.5857 2.41422Z" fill="var(--mw-icon-background-medium-yellow, #FFEF91)" stroke="#674C06" stroke-linejoin="round"/>
</svg>
