<svg width="24" height="24" viewBox="0 0 24 24" fill="none" xmlns="http://www.w3.org/2000/svg">
<path d="M21.5 5.5L9.5 17.5L7.5 15.5L19.5 3.5C20.0523 2.94772 20.9477 2.94772 21.5 3.5C22.0523 4.05228 22.0523 4.94772 21.5 5.5Z" stroke="var(--mw-icon-object-primary, #616160)" stroke-linejoin="round"/>
<path d="M2.74318 18.5H1.5C2.09719 20.2916 3.7738 21.5 5.66228 21.5H6.19995C8.02252 21.5 9.5 20.0225 9.5 18.2V17.9853C9.5 17.6746 9.37657 17.3766 9.15685 17.1569L7.92596 15.926C7.65322 15.6532 7.28331 15.5 6.89761 15.5C6.06297 15.5 5.32087 16.0374 5.05694 16.8292C4.72517 17.8245 3.79234 18.5 2.74318 18.5Z" stroke="var(--mw-icon-object-primary, #616160)" stroke-linejoin="round"/>
</svg>
