<svg width="24" height="24" viewBox="0 0 24 24" fill="none" xmlns="http://www.w3.org/2000/svg">
<path d="M0.5 19.5V2.5C0.5 1.94772 0.947715 1.5 1.5 1.5H16.5C17.0523 1.5 17.5 1.94771 17.5 2.5V19.5C17.5 20.0523 17.0523 20.5 16.5 20.5H1.5C0.947715 20.5 0.5 20.0523 0.5 19.5Z" fill="var(--mw-icon-background-default-white, #FFFFFF)" stroke="var(--mw-icon-border-default-gray, #616161)"/>
<path d="M4.5 4V1C4.5 0.723858 4.72386 0.5 5 0.5H13C13.2761 0.5 13.5 0.723858 13.5 1V4C13.5 4.27614 13.2761 4.5 13 4.5H5C4.72386 4.5 4.5 4.27614 4.5 4Z" fill="var(--mw-icon-background-default-medium-gray, #D9D9D9)" stroke="var(--mw-icon-border-default-gray, #616161)"/>
<path d="M1 12H17V15H1V12Z" fill="var(--mw-icon-background-default-action, #CBFFBE)"/>
<path d="M11.5 13.5H7.5" stroke="var(--mw-icon-glyph-content-dark-green, #02580E)" stroke-linecap="round" stroke-linejoin="round"/>
<path d="M1 9H17V12H1V9Z" fill="var(--mw-icon-background-red, #FF9D9A)"/>
<path d="M9.5 10.5H5.5" stroke="var(--mw-icon-glyph-content-dark-red, #610908)" stroke-linecap="round" stroke-linejoin="round"/>
<path d="M7.5 7.5H3.5M9.5 16.5H7.5H5.5" stroke="var(--mw-icon-glyph-disabled-gray, #888889)" stroke-linecap="round" stroke-linejoin="round"/>
<path d="M10.5 18.5C10.5 17.3954 11.3954 16.5 12.5 16.5H21.5C22.6046 16.5 23.5 17.3954 23.5 18.5V21.5C23.5 22.6046 22.6046 23.5 21.5 23.5H17H12.5C11.3954 23.5 10.5 22.6046 10.5 21.5V18.5Z" fill="var(--mw-icon-background-default-selection, #B4DEFF)" stroke="var(--mw-icon-border-default-blue, #1656A7)"/>
<rect x="20" y="19" width="2" height="2" rx="0.5" fill="var(--mw-icon-glyph-content-blue, #1656A8)"/>
<rect x="12" y="19" width="2" height="2" rx="0.5" fill="var(--mw-icon-glyph-content-blue, #1656A8)"/>
<rect x="16" y="19" width="2" height="2" rx="0.5" fill="var(--mw-icon-glyph-content-blue, #1656A8)"/>
<path d="M22 12H24L21 16L18 12H20V9H22V12Z" fill="var(--mw-icon-glyph-content-blue, #1656A8)"/>
</svg>
