<svg width="24" height="24" viewBox="0 0 24 24" fill="none" xmlns="http://www.w3.org/2000/svg">
<path d="M0.5 19.5V2.5C0.5 1.94772 0.947715 1.5 1.5 1.5H16.5C17.0523 1.5 17.5 1.94771 17.5 2.5V19.5C17.5 20.0523 17.0523 20.5 16.5 20.5H1.5C0.947715 20.5 0.5 20.0523 0.5 19.5Z" fill="var(--mw-icon-background-default-white, #FFFFFF)" stroke="var(--mw-icon-border-default-gray, #616161)"/>
<path d="M4.5 4V1C4.5 0.723858 4.72386 0.5 5 0.5H13C13.2761 0.5 13.5 0.723858 13.5 1V4C13.5 4.27614 13.2761 4.5 13 4.5H5C4.72386 4.5 4.5 4.27614 4.5 4Z" fill="var(--mw-icon-background-default-medium-gray, #D9D9D9)" stroke="var(--mw-icon-border-default-gray, #616161)"/>
<path d="M10.5 18.5C10.5 17.3954 11.3954 16.5 12.5 16.5H21.5C22.6046 16.5 23.5 17.3954 23.5 18.5V21.5C23.5 22.6046 22.6046 23.5 21.5 23.5H17H12.5C11.3954 23.5 10.5 22.6046 10.5 21.5V18.5Z" fill="var(--mw-icon-background-default-selection, #B4DEFF)" stroke="var(--mw-icon-border-default-blue, #1656A7)"/>
<rect x="20" y="19" width="2" height="2" rx="0.5" fill="var(--mw-icon-glyph-content-blue, #1656A8)"/>
<rect x="12" y="19" width="2" height="2" rx="0.5" fill="var(--mw-icon-glyph-content-blue, #1656A8)"/>
<rect x="16" y="19" width="2" height="2" rx="0.5" fill="var(--mw-icon-glyph-content-blue, #1656A8)"/>
<path d="M22 12H24L21 16L18 12H20V9H22V12Z" fill="var(--mw-icon-glyph-content-blue, #1656A8)"/>
<path d="M9.5 7.5H3.5C2.94772 7.5 2.5 7.94772 2.5 8.5V14.5C2.5 15.0523 2.94772 15.5 3.5 15.5H9.5V7.5Z" fill="var(--mw-icon-background-default-medium-gray, #D9D9D9)" stroke="var(--mw-icon-glyph-content-gray, #616162)" stroke-linecap="round"/>
<path d="M14.5 7.5H8.5V15.5H14.5C15.0523 15.5 15.5 15.0523 15.5 14.5V8.5C15.5 7.94772 15.0523 7.5 14.5 7.5Z" fill="white" stroke="var(--mw-icon-glyph-content-gray, #616162)" stroke-linecap="round"/>
<path d="M11.5 11.5H13.5" stroke="var(--mw-icon-glyph-content-red, #902623)" stroke-linecap="round"/>
<path d="M10.5 9.5H12.5" stroke="var(--mw-icon-glyph-content-gray, #616162)" stroke-linecap="round"/>
<path d="M10.5 13.5H12.5" stroke="var(--mw-icon-glyph-content-gray, #616162)" stroke-linecap="round"/>
<path d="M6.5 11.5C6.5 12.0523 6.05228 12.5 5.5 12.5C4.94772 12.5 4.5 12.0523 4.5 11.5C4.5 10.9477 4.94772 10.5 5.5 10.5C6.05228 10.5 6.5 10.9477 6.5 11.5Z" fill="var(--mw-icon-background-red, #FF9D9A)" stroke="var(--mw-icon-glyph-content-red, #902623)"/>
</svg>
