<svg width="24" height="24" viewBox="0 0 24 24" fill="none" xmlns="http://www.w3.org/2000/svg">
<path d="M18.5 0.5C20.7091 0.5 22.5 2.29086 22.5 4.5V18.5C22.5 20.7091 20.7091 22.5 18.5 22.5H4.5C2.29086 22.5 0.5 20.7091 0.5 18.5V4.5C0.5 2.29086 2.29086 0.5 4.5 0.5H18.5Z" fill="var(--mw-icon-background-default-white, #FFFFFF)" stroke="var(--mw-icon-border-default-blue, #1656A7)"/>
<path d="M16.5 10.5V12.5" stroke="var(--mw-icon-glyph-content-gray, #616162)" stroke-linecap="square"/>
<path d="M19.5 18.5V14.5C19.5 13.9477 19.0523 13.5 18.5 13.5H4.5C3.94772 13.5 3.5 13.9477 3.5 14.5V18.5C3.5 19.0523 3.94772 19.5 4.5 19.5H18.5C19.0523 19.5 19.5 19.0523 19.5 18.5Z" fill="var(--mw-icon-background-medium-blue, #83CAFF)" stroke="var(--mw-icon-glyph-content-dark-blue, #104280)" stroke-linecap="square" stroke-linejoin="round"/>
<path d="M19.5 3.5H13.5V6.5H19.5V3.5Z" fill="var(--mw-icon-background-medium-blue, #83CAFF)"/>
<path d="M19.5 6.5H13.5V9.5H19.5V6.5Z" fill="var(--mw-icon-background-medium-blue, #83CAFF)"/>
<path d="M13.5 6.5V3.5H19.5V6.5M13.5 6.5H19.5M13.5 6.5V9.5H19.5V6.5" stroke="var(--mw-icon-glyph-content-dark-blue, #104280)" stroke-linecap="square" stroke-linejoin="round"/>
<path d="M10.5 6.5H12.5" stroke="var(--mw-icon-glyph-content-gray, #616162)" stroke-linecap="square"/>
<path d="M9.5 9.5V3.5H3.5V9.5H9.5Z" fill="var(--mw-icon-background-medium-blue, #83CAFF)" stroke="var(--mw-icon-glyph-content-dark-blue, #104280)" stroke-linecap="square" stroke-linejoin="round"/>
<path d="M6 16C6 15.4477 6.44772 15 7 15H8C8.55228 15 9 15.4477 9 16V17C9 17.5523 8.55228 18 8 18H7C6.44772 18 6 17.5523 6 17V16Z" fill="var(--mw-icon-glyph-content-dark-blue, #104280)"/>
<path d="M10 16C10 15.4477 10.4477 15 11 15H12C12.5523 15 13 15.4477 13 16V17C13 17.5523 12.5523 18 12 18H11C10.4477 18 10 17.5523 10 17V16Z" fill="var(--mw-icon-glyph-content-dark-blue, #104280)"/>
<path d="M14 16C14 15.4477 14.4477 15 15 15H16C16.5523 15 17 15.4477 17 16V17C17 17.5523 16.5523 18 16 18H15C14.4477 18 14 17.5523 14 17V16Z" fill="var(--mw-icon-glyph-content-dark-blue, #104280)"/>
</svg>
