<svg width="24" height="24" viewBox="0 0 24 24" fill="none" xmlns="http://www.w3.org/2000/svg">
<path d="M21.5 0.5H2.5C1.39543 0.5 0.5 1.39543 0.5 2.5V21.5C0.5 22.6046 1.39543 23.5 2.5 23.5H21.5C22.6046 23.5 23.5 22.6046 23.5 21.5V2.5C23.5 1.39543 22.6046 0.5 21.5 0.5Z" fill="var(--mw-icon-background-default-white, #FFFFFF)" stroke="var(--mw-icon-border-default-gray, #616161)" stroke-linecap="round"/>
<path d="M8.5 5.5H20.5M8.5 11.5001H20.5M8.5 17.5H20.5" stroke="var(--mw-icon-glyph-content-gray, #616162)" stroke-linecap="round"/>
<mask id="path-3-inside-1_14848_33330" fill="white">
<path d="M3 5.5C3 4.67157 3.67157 4 4.5 4C5.32843 4 6 4.67157 6 5.5C6 6.32843 5.32843 7 4.5 7C3.67157 7 3 6.32843 3 5.5Z"/>
<path d="M3 11.5001C3 10.6716 3.67157 10.0001 4.5 10.0001C5.32843 10.0001 6 10.6716 6 11.5001C6 12.3285 5.32843 13.0001 4.5 13.0001C3.67157 13.0001 3 12.3285 3 11.5001Z"/>
<path d="M3 17.5C3 16.6716 3.67157 16 4.5 16C5.32843 16 6 16.6716 6 17.5C6 18.3284 5.32843 19 4.5 19C3.67157 19 3 18.3284 3 17.5Z"/>
</mask>
<path d="M3 5.5C3 4.67157 3.67157 4 4.5 4C5.32843 4 6 4.67157 6 5.5C6 6.32843 5.32843 7 4.5 7C3.67157 7 3 6.32843 3 5.5Z" fill="var(--mw-icon-glyph-content-gray, #616162)"/>
<path d="M3 11.5001C3 10.6716 3.67157 10.0001 4.5 10.0001C5.32843 10.0001 6 10.6716 6 11.5001C6 12.3285 5.32843 13.0001 4.5 13.0001C3.67157 13.0001 3 12.3285 3 11.5001Z" fill="var(--mw-icon-glyph-content-gray, #616162)"/>
<path d="M3 17.5C3 16.6716 3.67157 16 4.5 16C5.32843 16 6 16.6716 6 17.5C6 18.3284 5.32843 19 4.5 19C3.67157 19 3 18.3284 3 17.5Z" fill="var(--mw-icon-glyph-content-gray, #616162)"/>
<path d="M3 5.5C3 4.67157 3.67157 4 4.5 4C5.32843 4 6 4.67157 6 5.5C6 6.32843 5.32843 7 4.5 7C3.67157 7 3 6.32843 3 5.5Z" stroke="var(--mw-icon-glyph-content-gray, #616162)" stroke-width="2" mask="url(#path-3-inside-1_14848_33330)"/>
<path d="M3 11.5001C3 10.6716 3.67157 10.0001 4.5 10.0001C5.32843 10.0001 6 10.6716 6 11.5001C6 12.3285 5.32843 13.0001 4.5 13.0001C3.67157 13.0001 3 12.3285 3 11.5001Z" stroke="var(--mw-icon-glyph-content-gray, #616162)" stroke-width="2" mask="url(#path-3-inside-1_14848_33330)"/>
<path d="M3 17.5C3 16.6716 3.67157 16 4.5 16C5.32843 16 6 16.6716 6 17.5C6 18.3284 5.32843 19 4.5 19C3.67157 19 3 18.3284 3 17.5Z" stroke="var(--mw-icon-glyph-content-gray, #616162)" stroke-width="2" mask="url(#path-3-inside-1_14848_33330)"/>
</svg>
