<svg width="24" height="24" viewBox="0 0 24 24" fill="none" xmlns="http://www.w3.org/2000/svg">
<path d="M0.5 18.5V4.5C0.5 2.29086 2.29086 0.5 4.5 0.5H18.5C20.7091 0.5 22.5 2.29086 22.5 4.5V18.5C22.5 20.7091 20.7091 22.5 18.5 22.5H4.5C2.29086 22.5 0.5 20.7091 0.5 18.5Z" fill="var(--mw-icon-background-default-white, white)"/>
<path d="M1.5 1.5L4 1V4H1L1.5 1.5Z" fill="var(--mw-icon-background-default-dark-gray, #A6A6A6)"/>
<path d="M1 7H4V10H1V7Z" fill="var(--mw-icon-background-default-dark-gray, #A6A6A6)"/>
<path d="M1 13H4V16H1V13Z" fill="var(--mw-icon-background-default-dark-gray, #A6A6A6)"/>
<path d="M1 19H4V22L1.5 21.5L1 19Z" fill="var(--mw-icon-background-default-dark-gray, #A6A6A6)"/>
<path d="M7 1H10V4H7V1Z" fill="var(--mw-icon-background-default-dark-gray, #A6A6A6)"/>
<path d="M7 19H10V22H7V19Z" fill="var(--mw-icon-background-default-dark-gray, #A6A6A6)"/>
<path d="M13 1H16V4H13V1Z" fill="var(--mw-icon-background-default-dark-gray, #A6A6A6)"/>
<path d="M13 19H16V22H13V19Z" fill="var(--mw-icon-background-default-dark-gray, #A6A6A6)"/>
<path d="M19 1L21.5 1.5L22 4H19V1Z" fill="var(--mw-icon-background-default-dark-gray, #A6A6A6)"/>
<path d="M19 7H22V10H19V7Z" fill="var(--mw-icon-background-default-dark-gray, #A6A6A6)"/>
<path d="M19 13H22V16H19V13Z" fill="var(--mw-icon-background-default-dark-gray, #A6A6A6)"/>
<path d="M19 19H22L21.5 21.5L19 22V19Z" fill="var(--mw-icon-background-default-dark-gray, #A6A6A6)"/>
<path d="M4 16H7V19H4V16Z" fill="var(--mw-icon-background-default-dark-gray, #A6A6A6)"/>
<path d="M16 16H19V19H16V16Z" fill="var(--mw-icon-background-default-dark-gray, #A6A6A6)"/>
<path d="M16 4H19V7H16V4Z" fill="var(--mw-icon-background-default-dark-gray, #A6A6A6)"/>
<path d="M4 4H7V7H4V4Z" fill="var(--mw-icon-background-default-dark-gray, #A6A6A6)"/>
<path d="M3.5 4.5C3.5 3.94772 3.94772 3.5 4.5 3.5H18.5C19.0523 3.5 19.5 3.94772 19.5 4.5V18.5C19.5 19.0523 19.0523 19.5 18.5 19.5H4.5C3.94772 19.5 3.5 19.0523 3.5 18.5L3.5 4.5Z" fill="var(--mw-icon-background-default-medium-gray, #D9D9D9)" stroke="var(--mw-icon-glyph-content-dark-gray, #333333)" stroke-linejoin="round"/>
<path d="M17.5 11.5C17.5 14.8137 14.8137 17.5 11.5 17.5C8.18629 17.5 5.5 14.8137 5.5 11.5C5.5 8.18629 8.18629 5.5 11.5 5.5C14.8137 5.5 17.5 8.18629 17.5 11.5Z" fill="var(--mw-icon-background-default-dark-gray, #A6A6A6)" stroke="var(--mw-icon-glyph-content-dark-gray, #333333)" stroke-linejoin="round"/>
<path d="M16 11.5C16 13.9853 13.9853 16 11.5 16C9.01472 16 7 13.9853 7 11.5C7 9.01472 9.01472 7 11.5 7C13.9853 7 16 9.01472 16 11.5Z" fill="var(--mw-icon-glyph-content-dark-gray, #333333)"/>
<circle cx="10" cy="10" r="1" fill="var(--mw-icon-background-default-medium-gray, #D9D9D9)"/>
<path d="M18 6C18 6.55228 17.5523 7 17 7C16.4477 7 16 6.55228 16 6C16 5.44772 16.4477 5 17 5C17.5523 5 18 5.44772 18 6Z" fill="var(--mw-icon-border-default-gray, #616161)"/>
<path d="M0.5 18.5V4.5C0.5 2.29086 2.29086 0.5 4.5 0.5H18.5C20.7091 0.5 22.5 2.29086 22.5 4.5V18.5C22.5 20.7091 20.7091 22.5 18.5 22.5H4.5C2.29086 22.5 0.5 20.7091 0.5 18.5Z" stroke="var(--mw-icon-border-default-gray, #616161)" stroke-linecap="round"/>

</svg>
