<svg width="24" height="24" viewBox="0 0 24 24" fill="none" xmlns="http://www.w3.org/2000/svg">
<path d="M0.5 2.5C0.5 1.39543 1.39543 0.5 2.5 0.5H20.5C21.6046 0.5 22.5 1.39543 22.5 2.5V20.5C22.5 21.6046 21.6046 22.5 20.5 22.5H2.5C1.39543 22.5 0.5 21.6046 0.5 20.5L0.5 2.5Z" fill="var(--mw-icon-background-default-medium-gray, #D9D9D9)" stroke="var(--mw-icon-border-default-gray, #616161)" stroke-linejoin="round"/>
<circle cx="19.5" cy="3.5" r="1" fill="var(--mw-icon-background-default-light-gray, #F5F5F5)" stroke="var(--mw-icon-glyph-content-dark-gray, #333333)" stroke-linejoin="round"/>
<path d="M20.5 11.5C20.5 16.4706 16.4706 20.5 11.5 20.5C6.52944 20.5 2.5 16.4706 2.5 11.5C2.5 6.52944 6.52944 2.5 11.5 2.5C16.4706 2.5 20.5 6.52944 20.5 11.5Z" fill="var(--mw-icon-background-default-dark-gray, #A6A6A6)" stroke="var(--mw-icon-glyph-content-dark-gray, #333333)" stroke-linejoin="round"/>
<path d="M18 11.5C18 15.0899 15.0899 18 11.5 18C7.91015 18 5 15.0899 5 11.5C5 7.91015 7.91015 5 11.5 5C15.0899 5 18 7.91015 18 11.5Z" fill="var(--mw-icon-glyph-content-dark-gray, #333333)"/>
<circle cx="8.5" cy="8.5" r="1.5" fill="var(--mw-icon-background-default-light-gray, #F5F5F5)"/>
</svg>
