<svg width="24" height="24" viewBox="0 0 24 24" fill="none" xmlns="http://www.w3.org/2000/svg">
<path d="M0 18H5V21C5 21.5523 4.55228 22 4 22H1C0.447715 22 0 21.5523 0 21V18Z" fill="var(--mw-icon-glyph-disabled-gray, #888889)"/>
<path d="M19 18H24V21C24 21.5523 23.5523 22 23 22H20C19.4477 22 19 21.5523 19 21V18Z" fill="var(--mw-icon-glyph-disabled-gray, #888889)"/>
<path d="M18.7457 2.5H5.2543C4.80782 2.5 4.41543 2.79598 4.29278 3.22528L2.5 9.5H21.5L19.7072 3.22528C19.5846 2.79598 19.1922 2.5 18.7457 2.5Z" fill="var(--mw-icon-background-default-white, #FFFFFF)" stroke="var(--mw-icon-glyph-content-blue, #1656A8)" stroke-linejoin="round"/>
<path d="M23.5 18.5H0.5V11.5C0.5 10.3954 1.39543 9.5 2.5 9.5H21.5C22.6046 9.5 23.5 10.3954 23.5 11.5V18.5Z" fill="var(--mw-icon-background-medium-blue, #83CAFF)" stroke="var(--mw-icon-glyph-content-blue, #1656A8)" stroke-linejoin="round"/>
<path d="M6 13C6 14.1046 5.10457 15 4 15C2.89543 15 2 14.1046 2 13C2 11.8954 2.89543 11 4 11C5.10457 11 6 11.8954 6 13Z" fill="white"/>
<path d="M22 13C22 14.1046 21.1046 15 20 15C18.8954 15 18 14.1046 18 13C18 11.8954 18.8954 11 20 11C21.1046 11 22 11.8954 22 13Z" fill="white"/>
<rect x="1" y="16" width="22" height="2" fill="var(--mw-icon-glyph-content-light-blue, #278CDD)"/>
<path d="M7 14C7 13.4477 7.44772 13 8 13H16C16.5523 13 17 13.4477 17 14V14C17 14.5523 16.5523 15 16 15H8C7.44772 15 7 14.5523 7 14V14Z" fill="var(--mw-icon-glyph-content-light-blue, #278CDD)"/>
</svg>
