<svg width="24" height="24" viewBox="0 0 24 24" fill="none" xmlns="http://www.w3.org/2000/svg">
<path d="M7.5 2.5L7.5 21.5C7.5 22.0523 7.94772 22.5 8.5 22.5L22.5 22.5C23.0523 22.5 23.5 22.0523 23.5 21.5L23.5 6.41421C23.5 6.149 23.3946 5.89464 23.2071 5.70711L19.2929 1.79289C19.1054 1.60536 18.851 1.5 18.5858 1.5L8.5 1.5C7.94771 1.5 7.5 1.94772 7.5 2.5Z" fill="var(--mw-icon-background-default-white, #FFFFFF)" stroke="var(--mw-icon-border-default-gray, #616161)"/>
<path d="M16.5129 12.8906H17.6863C17.6658 13.3623 17.5691 13.7622 17.3962 14.0903C17.2263 14.4155 16.9817 14.6631 16.6624 14.833C16.3459 15.0029 15.9607 15.0879 15.5066 15.0879C15.1609 15.0879 14.8518 15.0278 14.5793 14.9077C14.3069 14.7847 14.0754 14.6074 13.885 14.376C13.6975 14.1445 13.554 13.8604 13.4543 13.5234C13.3577 13.1836 13.3093 12.7954 13.3093 12.3589V11.2471C13.3093 10.8105 13.3606 10.4224 13.4631 10.0825C13.5657 9.74268 13.7122 9.45557 13.9026 9.22119C14.0959 8.98682 14.3303 8.80957 14.6057 8.68945C14.8811 8.56934 15.1917 8.50928 15.5374 8.50928C15.9944 8.50928 16.3767 8.5957 16.6843 8.76855C16.9919 8.94141 17.2292 9.19482 17.3962 9.52881C17.5632 9.85986 17.6614 10.2642 17.6907 10.7417H16.5173C16.5056 10.4312 16.4675 10.1851 16.4031 10.0034C16.3386 9.81885 16.2375 9.68701 16.0999 9.60791C15.9622 9.52881 15.7747 9.48926 15.5374 9.48926C15.3528 9.48926 15.1931 9.52295 15.0583 9.59033C14.9236 9.65771 14.8137 9.76318 14.7288 9.90674C14.6438 10.0474 14.5808 10.2275 14.5398 10.4473C14.4988 10.667 14.4783 10.9307 14.4783 11.2383V12.3589C14.4783 12.6548 14.4958 12.9126 14.531 13.1323C14.5662 13.3521 14.6218 13.5352 14.698 13.6816C14.7771 13.8252 14.8826 13.9336 15.0144 14.0068C15.1462 14.0771 15.3103 14.1123 15.5066 14.1123C15.7439 14.1123 15.9329 14.0771 16.0735 14.0068C16.2141 13.9336 16.3181 13.8091 16.3855 13.6333C16.4558 13.4546 16.4983 13.207 16.5129 12.8906Z" fill="var(--mw-icon-glyph-content-gray, #616162)"/>
</svg>
