<svg width="24" height="24" viewBox="0 0 24 24" fill="none" xmlns="http://www.w3.org/2000/svg">
<path d="M0.5 2.5C0.5 1.39543 1.39543 0.5 2.5 0.5H20.5C21.6046 0.5 22.5 1.39543 22.5 2.5V20.5C22.5 21.6046 21.6046 22.5 20.5 22.5H2.5C1.39543 22.5 0.5 21.6046 0.5 20.5V2.5Z" fill="var(--mw-icon-background-default-white, #FFFFFF)" stroke="var(--mw-icon-border-default-gray, #616161)" stroke-linejoin="round"/>
<rect x="9" y="1" width="5" height="21" fill="var(--mw-icon-background-default-highlight, #FFE864)"/>
<path d="M1 16.5H2.5L3.5 19.5L4.5 16.5H5.5L7.5 5.5L8.5 7.5L9.5 4.5L10.5 8.5L11.5 4.5L12.5 8.5L13.5 4.5L14.5 7.5L15.5 5.5L17.5 16.5H18.5L19.5 19.5L20.5 16.5H22" stroke="#0072BD" stroke-linejoin="round"/>
<path d="M8.5 1V22" stroke="var(--mw-icon-glyph-content-yellow, #674C07)" stroke-linejoin="round"/>
<path d="M14.5 1V22" stroke="var(--mw-icon-glyph-content-yellow, #674C07)" stroke-linejoin="round"/>
</svg>
