<svg width="24" height="24" viewBox="0 0 24 24" fill="none" xmlns="http://www.w3.org/2000/svg">
<path d="M2.5 21.5V13.5C2.5 12.9477 2.94772 12.5 3.5 12.5H7.5C8.05228 12.5 8.5 12.9477 8.5 13.5V21.5C8.5 22.0523 8.05228 22.5 7.5 22.5H3.5C2.94772 22.5 2.5 22.0523 2.5 21.5Z" fill="var(--mw-icon-background-default-selection, #B4DEFF)" stroke="var(--mw-icon-border-default-blue, #1656A7)" stroke-linejoin="round"/>
<path d="M15.5 2.5L15.5 10.5C15.5 11.0523 15.9477 11.5 16.5 11.5L20.5 11.5C21.0523 11.5 21.5 11.0523 21.5 10.5L21.5 2.5C21.5 1.94771 21.0523 1.5 20.5 1.5L16.5 1.5C15.9477 1.5 15.5 1.94772 15.5 2.5Z" fill="var(--mw-icon-background-light-yellow, #FFF5BC)" stroke="#674C06" stroke-linejoin="round"/>
<path d="M11 4L15 6.5L11 9L11 4Z" fill="var(--mw-icon-object-primary, #616160)"/>
<path d="M11 4L15 6.5L11 9L11 4Z" fill="var(--mw-icon-object-primary, #616160)"/>
<path d="M13 20L9 17.5L13 15L13 20Z" fill="var(--mw-icon-object-primary, #616160)"/>
<path d="M13 20L9 17.5L13 15L13 20Z" fill="var(--mw-icon-object-primary, #616160)"/>
<path d="M11 6.5H3.5M20.5 17.5H13" stroke="var(--mw-icon-object-primary, #616160)" stroke-linecap="round"/>
</svg>
