<svg width="24" height="24" viewBox="0 0 24 24" fill="none" xmlns="http://www.w3.org/2000/svg">
<rect x="0.5" y="0.5" width="22" height="22" rx="2" fill="var(--mw-icon-glyph-content-green, #008014)"/>
<path d="M7.5 0.5H15.5L20.5 22.5H2.5L7.5 0.5Z" fill="var(--mw-icon-glyph-disabled-gray, #888889)" stroke="var(--mw-icon-background-default-medium-gray, #D9D9D9)"/>
<path d="M11 1H12L12.5 4H10.5L11 1Z" fill="var(--mw-icon-background-default-white, #FFFFFF)"/>
<path d="M9 18H14L15 22H8L9 18Z" fill="white"/>
<path d="M8.57651 6.88639C8.62931 6.66009 8.83106 6.5 9.06343 6.5H13.9366C14.1689 6.5 14.3707 6.66009 14.4235 6.88639L15.5 11.5V16C15.5 16.2761 15.2761 16.5 15 16.5H12H8C7.72386 16.5 7.5 16.2761 7.5 16V11.5L8.57651 6.88639Z" fill="var(--mw-icon-background-medium-blue, #83CAFF)" stroke="var(--mw-icon-border-default-blue, #1656A7)"/>
<path d="M8 11.5L15 11.5" stroke="var(--mw-icon-border-default-blue, #1656A7)"/>
<rect x="0.5" y="0.5" width="22" height="22" rx="2" stroke="var(--mw-icon-border-default-gray, #616161)"/>
</svg>
