<svg width="24" height="24" viewBox="0 0 24 24" fill="none" xmlns="http://www.w3.org/2000/svg">
<path d="M2.5 4.5C2.5 3.39543 3.39543 2.5 4.5 2.5H16.5C17.6046 2.5 18.5 3.39543 18.5 4.5V16.5C18.5 17.6046 17.6046 18.5 16.5 18.5H4.5C3.39543 18.5 2.5 17.6046 2.5 16.5V4.5Z" fill="var(--mw-icon-background-default-medium-gray, #D9D9D9)" stroke="var(--mw-icon-border-default-gray, #616161)" stroke-linejoin="round"/>
<path d="M0.5 2.5C0.5 1.39543 1.39543 0.5 2.5 0.5H14.5C15.6046 0.5 16.5 1.39543 16.5 2.5V14.5C16.5 15.6046 15.6046 16.5 14.5 16.5H2.5C1.39543 16.5 0.5 15.6046 0.5 14.5V2.5Z" fill="var(--mw-icon-background-default-white, #FFFFFF)"/>
<path d="M0.5 2.5C0.5 1.39543 1.39543 0.5 2.5 0.5H14.5C15.6046 0.5 16.5 1.39543 16.5 2.5V14.5C16.5 15.6046 15.6046 16.5 14.5 16.5H2.5C1.39543 16.5 0.5 15.6046 0.5 14.5V2.5Z" stroke="var(--mw-icon-border-default-gray, #616161)" stroke-linejoin="round"/>
<rect width="12" height="12" rx="6" transform="matrix(-1 0 0 1 22.5 10.5)" fill="var(--mw-icon-background-default-action, #CBFFBE)" stroke="var(--mw-icon-border-default-green, #008013)"/>
<path d="M13.5 16.5L15.5 18.5L19.5 14.5" stroke="var(--mw-icon-glyph-content-green, #008014)" stroke-linecap="round" stroke-linejoin="round"/>
</svg>
