<svg width="24" height="24" viewBox="0 0 24 24" fill="none" xmlns="http://www.w3.org/2000/svg">
<path d="M0.5 2C0.5 1.72386 0.723858 1.5 1 1.5H7.08579C7.351 1.5 7.60536 1.60536 7.79289 1.79289L9.20711 3.20711C9.39464 3.39464 9.649 3.5 9.91421 3.5H18C18.2761 3.5 18.5 3.72386 18.5 4V7.9026V15C18.5 15.2761 18.2761 15.5 18 15.5H1C0.723858 15.5 0.5 15.2761 0.5 15V2Z" fill="var(--mw-icon-background-light-yellow, #FFF5BC)" stroke="#674C06"/>
<rect width="12" height="12" rx="6" transform="matrix(-1 0 0 1 23.5 10.5)" fill="var(--mw-icon-background-default-action, #CBFFBE)" stroke="var(--mw-icon-border-default-green, #008013)"/>
<path d="M14.5 16.5L16.5 18.5L20.5 14.5" stroke="var(--mw-icon-glyph-content-green, #008014)" stroke-linecap="round" stroke-linejoin="round"/>
</svg>
