<svg width="24" height="24" viewBox="0 0 24 24" fill="none" xmlns="http://www.w3.org/2000/svg">
<path d="M16.5 4.5L8.5 0.5L0.5 4.5V12.5L8.5 16.5L16.5 12.5V4.5Z" fill="var(--mw-icon-background-default-selection, #B4DEFF)"/>
<path d="M12.0555 10.2778V6.72222L8.49999 4.94444L4.94443 6.72222V10.2778L8.49999 12.0556L12.0555 10.2778Z" fill="var(--mw-icon-background-lightest-blue, #E2F0FF)"/>
<path d="M0.5 4.5L8.5 0.5L16.5 4.5M0.5 4.5V12.5L8.5 16.5M0.5 4.5L4.94444 6.72222M8.5 16.5L16.5 12.5V4.5M8.5 16.5C8.5 16.5 8.5 14.3893 8.5 12.0556M8.5 8.5L4.94444 6.72222M8.5 8.5C8.5 9.56865 8.5 10.8423 8.5 12.0556M8.5 8.5C9.64348 7.92826 10.9056 7.2972 12.0556 6.72222M16.5 4.5C16.5 4.5 14.4813 5.50936 12.0556 6.72222M4.94444 6.72222V10.2778L8.5 12.0556M4.94444 6.72222L8.5 4.94444L12.0556 6.72222M8.5 12.0556L12.0556 10.2778V6.72222" stroke="var(--mw-icon-border-default-blue, #1656A7)" stroke-linejoin="round"/>
<rect width="12" height="12" rx="6" transform="matrix(-1 0 0 1 23.5 11.5)" fill="var(--mw-icon-background-default-action, #CBFFBE)" stroke="var(--mw-icon-border-default-green, #008013)"/>
<path d="M14.5 17.5L16.5 19.5L20.5 15.5" stroke="var(--mw-icon-glyph-content-green, #008014)" stroke-linecap="round" stroke-linejoin="round"/>
</svg>
