<svg width="24" height="24" viewBox="0 0 24 24" fill="none" xmlns="http://www.w3.org/2000/svg">
<path d="M16.5 12.5V4.5L8.5 8.5V16.5L16.5 12.5Z" fill="var(--mw-icon-background-default-action, #CBFFBE)"/>
<path d="M16.5 4.5L8.5 0.5V8.5L16.5 4.5Z" fill="var(--mw-icon-background-medium-yellow, #FFEF91)"/>
<path d="M0.5 4.5L8.5 0.5V16.5L0.5 12.5V4.5Z" fill="var(--mw-icon-background-default-medium-gray, #D9D9D9)"/>
<path d="M8.5 0.5L0.5 4.5M0.5 4.5V12.5L8.5 16.5V8.5L0.5 4.5Z" stroke="var(--mw-icon-border-default-gray, #616161)" stroke-linecap="round" stroke-linejoin="round"/>
<path d="M8.5 0.5L16.5 4.5" stroke="#674C06" stroke-linecap="round" stroke-linejoin="round"/>
<path d="M16.5 12.5V4.5L8.5 8.5V16.5L16.5 12.5Z" stroke="var(--mw-icon-border-default-green, #008013)" stroke-linecap="round" stroke-linejoin="round"/>
<rect width="12" height="12" rx="6" transform="matrix(-1 0 0 1 23.5 11.5)" fill="var(--mw-icon-background-default-action, #CBFFBE)" stroke="var(--mw-icon-border-default-green, #008013)"/>
<path d="M14.5 17.5L16.5 19.5L20.5 15.5" stroke="var(--mw-icon-glyph-content-green, #008014)" stroke-linecap="round" stroke-linejoin="round"/>
</svg>
