<svg width="24" height="24" viewBox="0 0 24 24" fill="none" xmlns="http://www.w3.org/2000/svg">
<path d="M10.5 11.5C10.5 10.9477 10.9477 10.5 11.5 10.5H17.5C18.0523 10.5 18.5 10.9477 18.5 11.5V17.5C18.5 18.0523 18.0523 18.5 17.5 18.5H11.5C10.9477 18.5 10.5 18.0523 10.5 17.5V11.5Z" fill="var(--mw-icon-background-default-white, #FFFFFF)" stroke="var(--mw-icon-border-default-gray, #616161)" stroke-linejoin="round"/>
<rect x="14" y="16" width="1" height="1" fill="var(--mw-icon-glyph-content-light-blue, #278CDD)"/>
<path d="M12 14H13V15H12V14Z" fill="var(--mw-icon-background-medium-blue, #83CAFF)"/>
<path d="M13 13H16V14H13V13Z" fill="var(--mw-icon-background-medium-blue, #83CAFF)"/>
<path d="M16 14H17V15H16V14Z" fill="var(--mw-icon-background-medium-blue, #83CAFF)"/>
<path d="M13 15H14V16H13V15Z" fill="var(--mw-icon-background-medium-blue, #83CAFF)"/>
<path d="M15 15H16V16H15V15Z" fill="var(--mw-icon-background-medium-blue, #83CAFF)"/>
<path d="M14 14H15V15H14V14Z" fill="var(--mw-icon-background-medium-blue, #83CAFF)"/>
<path d="M12 12H17V13H12V12Z" fill="var(--mw-icon-glyph-content-light-blue, #278CDD)"/>
<path d="M12 13V14H11V13H12Z" fill="var(--mw-icon-glyph-content-light-blue, #278CDD)"/>
<path d="M17 13V14H18V13H17Z" fill="var(--mw-icon-glyph-content-light-blue, #278CDD)"/>
<path d="M0.5 11.5C0.5 10.9477 0.947715 10.5 1.5 10.5H7.5C8.05228 10.5 8.5 10.9477 8.5 11.5V17.5C8.5 18.0523 8.05228 18.5 7.5 18.5H1.5C0.947715 18.5 0.5 18.0523 0.5 17.5V11.5Z" fill="white" stroke="var(--mw-icon-border-default-gray, #616161)" stroke-linejoin="round"/>
<path d="M1.5 16.5H4.5V12.5H7.5" stroke="var(--mw-icon-glyph-content-light-blue, #278CDD)" stroke-linecap="square" stroke-linejoin="round"/>
<path d="M10.5 1.5C10.5 0.947715 10.9477 0.5 11.5 0.5H17.5C18.0523 0.5 18.5 0.947715 18.5 1.5V7.5C18.5 8.05228 18.0523 8.5 17.5 8.5H11.5C10.9477 8.5 10.5 8.05228 10.5 7.5V1.5Z" fill="white" stroke="var(--mw-icon-border-default-gray, #616161)" stroke-linejoin="round"/>
<path d="M12.5 3.5V4.5V5.5H13.2857L14.5 6.5V2.5L13.2857 3.5H12.5Z" stroke="var(--mw-icon-glyph-content-light-blue, #278CDD)" stroke-linejoin="round"/>
<path d="M0.5 1.5C0.5 0.947715 0.947715 0.5 1.5 0.5H7.5C8.05228 0.5 8.5 0.947715 8.5 1.5V7.5C8.5 8.05228 8.05228 8.5 7.5 8.5H1.5C0.947715 8.5 0.5 8.05228 0.5 7.5V1.5Z" fill="white" stroke="var(--mw-icon-border-default-gray, #616161)" stroke-linejoin="round"/>
<circle cx="4.5" cy="4.5" r="2.5" fill="var(--mw-icon-glyph-content-light-blue, #278CDD)"/>
<circle cx="3.5" cy="3.5" r="0.5" fill="white"/>
<rect width="12" height="12" rx="6" transform="matrix(-1 0 0 1 23.5 11.5)" fill="var(--mw-icon-background-default-action, #CBFFBE)" stroke="var(--mw-icon-glyph-content-green, #008014)"/>
<path d="M14.5 17.5L16.5 19.5L20.5 15.5" stroke="var(--mw-icon-glyph-content-green, #008014)" stroke-linecap="round" stroke-linejoin="round"/>
<path d="M16.5 2.5C17.1229 2.83884 17.5001 3.67799 17.5001 4.43699C17.5001 5.19599 17.1229 6.16116 16.5 6.5" stroke="var(--mw-icon-glyph-content-light-blue, #278CDD)" stroke-linecap="round"/>
</svg>
