<svg width="24" height="24" viewBox="0 0 24 24" fill="none" xmlns="http://www.w3.org/2000/svg">
<path d="M0.5 4.5L8.5 0.5L16.5 4.5V12.5L8.5 16.5L0.5 12.5V4.5Z" fill="var(--mw-icon-background-default-selection, #B4DEFF)"/>
<path d="M0.5 4.5L8.5 0.5L16.5 4.5M0.5 4.5V12.5L8.5 16.5M0.5 4.5C0.5 4.5 4.94444 6.72222 8.5 8.5M8.5 16.5C8.5 16.5 8.5 11.6242 8.5 8.5M8.5 16.5L16.5 12.5V4.5M8.5 8.5C12.0556 6.72222 16.5 4.5 16.5 4.5" stroke="var(--mw-icon-border-default-blue, #1656A7)" stroke-linejoin="round"/>
<rect width="12" height="12" rx="6" transform="matrix(-1 0 0 1 23.5 11.5)" fill="var(--mw-icon-background-default-action, #CBFFBE)" stroke="var(--mw-icon-border-default-green, #008013)"/>
<path d="M14.5 17.5L16.5 19.5L20.5 15.5" stroke="var(--mw-icon-glyph-content-green, #008014)" stroke-linecap="round" stroke-linejoin="round"/>
</svg>
