<svg width="24" height="24" viewBox="0 0 24 24" fill="none" xmlns="http://www.w3.org/2000/svg">
<path d="M0.5 14.5V2.5C0.5 1.39543 1.39543 0.5 2.5 0.5H14.5C15.6046 0.5 16.5 1.39543 16.5 2.5V14.5C16.5 15.6046 15.6046 16.5 14.5 16.5H2.5C1.39543 16.5 0.5 15.6046 0.5 14.5Z" fill="var(--mw-icon-background-default-white, #FFFFFF)" stroke="var(--mw-icon-border-default-gray, #616161)" stroke-linejoin="round"/>
<path d="M14.5 2.5H2.5L7.5 8.5H9.5L14.5 2.5Z" fill="white" stroke="var(--mw-icon-border-default-gray, #616161)" stroke-linejoin="round"/>
<path d="M7.5 12.5V8.5H9.5V14.5L7.5 12.5Z" fill="var(--mw-icon-background-default-medium-gray, #D9D9D9)" stroke="var(--mw-icon-border-default-gray, #616161)" stroke-linejoin="round"/>
<rect width="12" height="12" rx="6" transform="matrix(-1 0 0 1 23.5 11.5)" fill="var(--mw-icon-background-default-action, #CBFFBE)" stroke="var(--mw-icon-border-default-green, #008013)"/>
<path d="M14.5 17.5L16.5 19.5L20.5 15.5" stroke="var(--mw-icon-glyph-content-green, #008014)" stroke-linecap="round" stroke-linejoin="round"/>
</svg>
