<svg width="24" height="24" viewBox="0 0 24 24" fill="none" xmlns="http://www.w3.org/2000/svg">
<path d="M3.5 3.5H18.5L18.5 17.4999C18.5 18.0522 18.0523 18.4999 17.5 18.4999L3.5 18.5V3.5Z" fill="var(--mw-icon-background-default-white, #FFFFFF)" stroke="var(--mw-icon-border-default-gray, #616161)"/>
<path d="M3.5 0.5H17.5C18.0523 0.5 18.5 0.947715 18.5 1.5L18.5 3.5H3.5V0.5Z" fill="var(--mw-icon-background-default-selection, #B4DEFF)"/>
<path d="M1.5 18.5C0.947716 18.5 0.500001 18.0523 0.500001 17.5L0.5 1.50001C0.5 0.947729 0.947711 0.500017 1.49999 0.500013L3.5 0.5L3.5 18.5H1.5Z" fill="var(--mw-icon-background-default-selection, #B4DEFF)"/>
<path d="M3.5 0.5H17.5C18.0523 0.5 18.5 0.947715 18.5 1.5L18.5 3.5H3.5V0.5ZM3.5 0.5L1.49999 0.500013C0.947711 0.500017 0.5 0.947729 0.5 1.50001L0.500001 17.5C0.500001 18.0523 0.947716 18.5 1.5 18.5H3.5L3.5 0.5Z" stroke="var(--mw-icon-border-default-blue, #1656A7)"/>
<path d="M4.5 8.5H17.5M8.50001 4.5L8.50001 17.5M13.5 4.5L13.5 17.5M4.5 13.5H17.5" stroke="var(--mw-icon-border-default-gray, #616161)" stroke-linecap="square" stroke-linejoin="round"/>
<path d="M8.5 3V1M13.5 3V1M3 3.5H1M3 8.5H1M3 13.5H1" stroke="var(--mw-icon-border-default-blue, #1656A7)"/>
<rect width="12" height="12" rx="6" transform="matrix(-1 0 0 1 22.5 10.5)" fill="var(--mw-icon-background-default-action, #CBFFBE)" stroke="var(--mw-icon-border-default-green, #008013)"/>
<path d="M13.5 16.5L15.5 18.5L19.5 14.5" stroke="var(--mw-icon-glyph-content-green, #008014)" stroke-linecap="round" stroke-linejoin="round"/>
</svg>
