<svg width="24" height="24" viewBox="0 0 24 24" fill="none" xmlns="http://www.w3.org/2000/svg">
<path d="M0.5 1.5C0.5 0.947715 0.947715 0.5 1.5 0.5H16.5C17.0523 0.5 17.5 0.947715 17.5 1.5V16.5C17.5 17.0523 17.0523 17.5 16.5 17.5H1.5C0.947715 17.5 0.5 17.0523 0.5 16.5V1.5Z" fill="var(--mw-icon-background-default-white, #FFFFFF)" stroke="var(--mw-icon-border-default-green, #008013)" stroke-linejoin="round"/>
<path d="M3.5 3.5H14.5V14.5H3.5V3.5Z" stroke="var(--mw-icon-border-default-green, #008013)" stroke-linejoin="round"/>
<path d="M4 4H9V9H4V4Z" fill="#FFD60A"/>
<path d="M9 9H14V14H9V9Z" fill="#FFD60A"/>
<path d="M14 9L9 9L9 4L14 4L14 9Z" fill="#3AC831"/>
<path d="M9 14L4 14L4 9L9 9L9 14Z" fill="#3AC831"/>
<rect x="9.5" y="9.5" width="14" height="14" rx="1" fill="var(--mw-icon-background-lightest-blue, #E2F0FF)" stroke="var(--mw-icon-border-default-blue, #1656A7)"/>
<path d="M11.5 16.5C11.5 15.9477 11.9477 15.5 12.5 15.5H20.5C21.0523 15.5 21.5 15.9477 21.5 16.5V20.5C21.5 21.0523 21.0523 21.5 20.5 21.5H12.5C11.9477 21.5 11.5 21.0523 11.5 20.5V16.5Z" fill="var(--mw-icon-background-default-selection, #B4DEFF)" stroke="var(--mw-icon-border-default-blue, #1656A7)"/>
<rect x="13" y="17" width="1" height="1" fill="var(--mw-icon-glyph-content-blue, #1656A8)"/>
<rect x="15" y="17" width="1" height="1" fill="var(--mw-icon-glyph-content-blue, #1656A8)"/>
<rect x="17" y="17" width="1" height="1" fill="var(--mw-icon-glyph-content-blue, #1656A8)"/>
<rect x="19" y="17" width="1" height="1" fill="var(--mw-icon-glyph-content-blue, #1656A8)"/>
<rect x="13" y="19" width="1" height="1" fill="var(--mw-icon-glyph-content-blue, #1656A8)"/>
<rect x="15" y="19" width="1" height="1" fill="var(--mw-icon-glyph-content-blue, #1656A8)"/>
<rect x="17" y="19" width="1" height="1" fill="var(--mw-icon-glyph-content-blue, #1656A8)"/>
<rect x="19" y="19" width="1" height="1" fill="var(--mw-icon-glyph-content-blue, #1656A8)"/>
<path d="M12.5 11V14" stroke="var(--mw-icon-glyph-content-blue, #1656A8)"/>
<path d="M13 13.5L12.5 14.1667L12 13.5H13Z" fill="var(--mw-icon-glyph-content-blue, #1656A8)" stroke="var(--mw-icon-glyph-content-blue, #1656A8)"/>
<path d="M16.5 11V14" stroke="var(--mw-icon-glyph-content-blue, #1656A8)"/>
<path d="M17 13.5L16.5 14.1667L16 13.5H17Z" fill="var(--mw-icon-glyph-content-blue, #1656A8)" stroke="var(--mw-icon-glyph-content-blue, #1656A8)"/>
<path d="M20.5 11V14" stroke="var(--mw-icon-glyph-content-blue, #1656A8)"/>
<path d="M21 13.5L20.5 14.1667L20 13.5H21Z" fill="var(--mw-icon-glyph-content-blue, #1656A8)" stroke="var(--mw-icon-glyph-content-blue, #1656A8)"/>
</svg>
