<svg width="24" height="24" viewBox="0 0 24 24" fill="none" xmlns="http://www.w3.org/2000/svg">
<path d="M8.5 6.5H9.5M9.5 6.5V3.5H10.5M9.5 6.5V9.5H10.5" stroke="var(--mw-icon-object-primary, #616160)" stroke-linecap="square" stroke-linejoin="round"/>
<path d="M7.5 4.5H0.5L0.5 8.5H7.5V4.5Z" fill="var(--mw-icon-background-default-medium-gray, #D9D9D9)" stroke="var(--mw-icon-border-default-gray, #616161)" stroke-linecap="square" stroke-linejoin="round"/>
<line x1="1" y1="7.59999" x2="7" y2="7.59999" stroke="var(--mw-icon-glyph-disabled-gray, #888889)"/>
<path d="M18.5 1.5L11.5 1.5V5.5H18.5V1.5Z" fill="var(--mw-icon-background-default-medium-gray, #D9D9D9)" stroke="var(--mw-icon-border-default-gray, #616161)" stroke-linecap="square" stroke-linejoin="round"/>
<line x1="12" y1="4.5" x2="18" y2="4.5" stroke="var(--mw-icon-glyph-disabled-gray, #888889)"/>
<path d="M18.5 7.5H11.5V11.5H18.5V7.5Z" fill="var(--mw-icon-background-default-medium-gray, #D9D9D9)" stroke="var(--mw-icon-border-default-gray, #616161)" stroke-linecap="square" stroke-linejoin="round"/>
<line x1="12" y1="10.5" x2="18" y2="10.5" stroke="var(--mw-icon-glyph-disabled-gray, #888889)"/>
<rect width="12" height="12" rx="6" transform="matrix(-1 0 0 1 23.5 9.5)" fill="var(--mw-icon-background-default-action, #CBFFBE)" stroke="var(--mw-icon-border-default-green, #008013)"/>
<path d="M14.5 15.5L16.5 17.5L20.5 13.5" stroke="var(--mw-icon-glyph-content-green, #008014)" stroke-linecap="round" stroke-linejoin="round"/>
</svg>
