<svg width="24" height="24" viewBox="0 0 24 24" fill="none" xmlns="http://www.w3.org/2000/svg">
<path d="M0.5 2.5C0.5 1.39543 1.39543 0.5 2.5 0.5H21.5C22.6046 0.5 23.5 1.39543 23.5 2.5V21.5C23.5 22.6046 22.6046 23.5 21.5 23.5H2.5C1.39543 23.5 0.5 22.6046 0.5 21.5V2.5Z" fill="var(--mw-icon-background-default-light-gray, #F5F5F5)" stroke="var(--mw-icon-border-default-gray, #616161)"/>
<path d="M8.5 4.5H16.5M8.5 6.5H13.5M11.5 11.5H19.5M11.5 13.5H16.5M11.5 19.5H20.5" stroke="var(--mw-icon-background-default-dark-gray, #A6A6A6)" stroke-linecap="round"/>
<path d="M4.5 7V12.5M7 19.5H5.5C4.94772 19.5 4.5 19.0523 4.5 18.5V12.5M4.5 12.5H7" stroke="var(--mw-icon-background-default-dark-gray, #A6A6A6)"/>
<path d="M7.5 11.75C7.5 11.6119 7.61193 11.5 7.75 11.5H9.25C9.38807 11.5 9.5 11.6119 9.5 11.75V13.25C9.5 13.3881 9.38807 13.5 9.25 13.5H7.75C7.61193 13.5 7.5 13.3881 7.5 13.25V11.75Z" fill="var(--mw-icon-background-default-dark-gray, #A6A6A6)"/>
<path d="M7.5 18.75C7.5 18.6119 7.61193 18.5 7.75 18.5H9.25C9.38807 18.5 9.5 18.6119 9.5 18.75V20.25C9.5 20.3881 9.38807 20.5 9.25 20.5H7.75C7.61193 20.5 7.5 20.3881 7.5 20.25V18.75Z" fill="var(--mw-icon-background-default-dark-gray, #A6A6A6)"/>
<path d="M7.5 11.75C7.5 11.6119 7.61193 11.5 7.75 11.5H9.25C9.38807 11.5 9.5 11.6119 9.5 11.75V13.25C9.5 13.3881 9.38807 13.5 9.25 13.5H7.75C7.61193 13.5 7.5 13.3881 7.5 13.25V11.75Z" stroke="var(--mw-icon-glyph-content-gray, #616162)" stroke-linejoin="round"/>
<path d="M7.5 18.75C7.5 18.6119 7.61193 18.5 7.75 18.5H9.25C9.38807 18.5 9.5 18.6119 9.5 18.75V20.25C9.5 20.3881 9.38807 20.5 9.25 20.5H7.75C7.61193 20.5 7.5 20.3881 7.5 20.25V18.75Z" stroke="var(--mw-icon-glyph-content-gray, #616162)" stroke-linejoin="round"/>
<path d="M3.5 4.75C3.5 4.61193 3.61193 4.5 3.75 4.5H5.25C5.38807 4.5 5.5 4.61193 5.5 4.75V6.25C5.5 6.38807 5.38807 6.5 5.25 6.5H3.75C3.61193 6.5 3.5 6.38807 3.5 6.25V4.75Z" stroke="var(--mw-icon-background-default-medium-gray, #D9D9D9)" stroke-linejoin="round"/>
<path d="M3 4L4.5 5.5L7.5 2.5" stroke="var(--mw-icon-glyph-content-green, #008014)" stroke-linecap="round" stroke-linejoin="round"/>
</svg>
