<svg width="24" height="24" viewBox="0 0 24 24" fill="none" xmlns="http://www.w3.org/2000/svg">
<path d="M0.5 2.5C0.5 1.39543 1.39543 0.5 2.5 0.5H21.5C22.6046 0.5 23.5 1.39543 23.5 2.5V20.5C23.5 21.6046 22.6046 22.5 21.5 22.5H2.5C1.39543 22.5 0.5 21.6046 0.5 20.5V2.5Z" fill="var(--mw-icon-background-default-white, #FFFFFF)" stroke="var(--mw-icon-border-default-gray, #616161)"/>
<circle cx="12" cy="3" r="1" fill="#0072BD"/>
<circle cx="1" cy="1" r="1" transform="matrix(-1 0 0 1 8 4)" fill="#0072BD"/>
<circle cx="1" cy="1" r="1" transform="matrix(-1 0 0 1 5 8)" fill="#0072BD"/>
<circle cx="17" cy="5" r="1" fill="#0072BD"/>
<circle cx="20" cy="9" r="1" fill="#0072BD"/>
<circle cx="7" cy="18" r="1" transform="rotate(-180 7 18)" fill="#0072BD"/>
<circle cx="4" cy="14" r="1" transform="rotate(-180 4 14)" fill="#0072BD"/>
<circle cx="12" cy="20" r="1" transform="rotate(-180 12 20)" fill="#0072BD"/>
<circle cx="1" cy="1" r="1" transform="matrix(1 0 0 -1 16 19)" fill="#0072BD"/>
<circle cx="1" cy="1" r="1" transform="matrix(1 0 0 -1 19 15)" fill="#0072BD"/>
</svg>
