<svg width="24" height="24" viewBox="0 0 24 24" fill="none" xmlns="http://www.w3.org/2000/svg">
<path d="M22.5 11.5C22.5 17.5751 17.5751 22.5 11.5 22.5C5.42487 22.5 0.5 17.5751 0.5 11.5C0.5 5.42487 5.42487 0.5 11.5 0.5C17.5751 0.5 22.5 5.42487 22.5 11.5Z" fill="var(--mw-icon-background-default-medium-gray, #D9D9D9)" stroke="var(--mw-icon-border-default-gray, #616161)"/>
<path d="M11.5 4.5L10.9962 4.8359C9.36853 5.92098 7.45615 6.5 5.5 6.5V6.5V11.8056C5.5 13.5194 6.22266 15.164 7.57331 16.219C8.96153 17.3033 10.6795 18.5 11.5 18.5C12.3205 18.5 14.0385 17.3033 15.4267 16.219C16.7773 15.164 17.5 13.5194 17.5 11.8056V6.5V6.5C15.5438 6.5 13.6315 5.92098 12.0038 4.8359L11.5 4.5Z" stroke="var(--mw-icon-glyph-content-gray, #616162)" stroke-linejoin="round"/>
<path d="M11.5 4.5L11.0573 4.78778C9.36916 5.88505 7.48036 6.63693 5.5 7V10L17.5 10.025V7C15.5196 6.63693 13.6308 5.88505 11.9427 4.78778L11.5 4.5Z" fill="var(--mw-icon-glyph-content-gray, #616162)"/>
<path d="M17.5 6V8M5.5 6V8" stroke="var(--mw-icon-glyph-content-gray, #616162)"/>
</svg>
