<svg width="24" height="24" viewBox="0 0 24 24" fill="none" xmlns="http://www.w3.org/2000/svg">
<rect x="0.5" y="0.5" width="22" height="22" rx="2" fill="var(--mw-icon-background-default-selection, #B4DEFF)" stroke="var(--mw-icon-border-default-blue, #1656A7)"/>
<path d="M12.9748 12.6399H14.9865C14.9462 13.2946 14.7645 13.8758 14.4415 14.3834C14.1231 14.8911 13.6768 15.2875 13.1026 15.5725C12.5329 15.8575 11.8467 16 11.0437 16C10.4158 16 9.85282 15.8931 9.35492 15.6794C8.85702 15.4611 8.43089 15.1494 8.07653 14.7442C7.72666 14.3389 7.45977 13.849 7.27586 13.2745C7.09195 12.7001 7 12.0566 7 11.344V10.6693C7 9.9568 7.0942 9.31329 7.28259 8.73881C7.47547 8.15988 7.74909 7.66778 8.10345 7.26253C8.46229 6.85727 8.89066 6.54554 9.38856 6.32732C9.88646 6.10911 10.4427 6 11.0572 6C11.8736 6 12.5621 6.14696 13.1228 6.44088C13.688 6.7348 14.1253 7.14006 14.4348 7.65665C14.7488 8.17324 14.9372 8.76108 15 9.42017H12.9815C12.9591 9.02828 12.8806 8.6965 12.746 8.42485C12.6114 8.14874 12.4073 7.94166 12.1337 7.80361C11.8646 7.6611 11.5057 7.58985 11.0572 7.58985C10.7208 7.58985 10.427 7.65219 10.1758 7.77689C9.92459 7.90158 9.71377 8.09085 9.54331 8.34469C9.37286 8.59853 9.24502 8.91917 9.1598 9.30661C9.07906 9.6896 9.03869 10.1394 9.03869 10.656V11.344C9.03869 11.8472 9.07682 12.2904 9.15307 12.6733C9.22932 13.0519 9.34595 13.3725 9.50294 13.6353C9.66442 13.8936 9.87076 14.0895 10.122 14.2231C10.3776 14.3523 10.6849 14.4168 11.0437 14.4168C11.4654 14.4168 11.813 14.35 12.0866 14.2164C12.3602 14.0828 12.5688 13.8847 12.7124 13.6219C12.8604 13.3592 12.9479 13.0318 12.9748 12.6399Z" fill="var(--mw-icon-glyph-content-blue, #1656A8)"/>
</svg>
