<svg width="24" height="24" viewBox="0 0 24 24" fill="none" xmlns="http://www.w3.org/2000/svg">
<rect x="0.5" y="0.5" width="23" height="23" rx="4" fill="var(--mw-icon-background-default-white, #FFFFFF)" stroke="var(--mw-icon-border-default-gray, #616161)"/>
<path d="M6.5 12.5L6 12.5C6 12.7761 6.22386 13 6.5 13L6.5 12.5ZM16.5 12.5H17C17 12.2239 16.7761 12 16.5 12L16.5 12.5ZM10.5 7H15.5V6H10.5V7ZM6 9L6 12.5L7 12.5L7 9L6 9ZM6.5 13L16.5 13L16.5 12L6.5 12L6.5 13ZM16 12.5V16H17V12.5H16Z" fill="var(--mw-icon-glyph-content-gray, #616162)"/>
<rect x="13.5" y="15.5" width="6" height="6" rx="1" fill="white" stroke="var(--mw-icon-glyph-content-gray, #616162)"/>
<path d="M13.5 16.5C13.5 15.9477 13.9477 15.5 14.5 15.5H18.5C19.0523 15.5 19.5 15.9477 19.5 16.5V17.5H13.5V16.5Z" fill="var(--mw-icon-background-default-medium-gray, #D9D9D9)" stroke="var(--mw-icon-glyph-content-gray, #616162)"/>
<rect x="15.5" y="3.5" width="6" height="6" rx="1" fill="white" stroke="var(--mw-icon-glyph-content-gray, #616162)"/>
<path d="M15.5 4.5C15.5 3.94772 15.9477 3.5 16.5 3.5H20.5C21.0523 3.5 21.5 3.94772 21.5 4.5V5.5H15.5V4.5Z" fill="var(--mw-icon-background-default-medium-gray, #D9D9D9)" stroke="var(--mw-icon-glyph-content-gray, #616162)"/>
<path d="M2.5 3.5C2.5 2.94772 2.94772 2.5 3.5 2.5H9.5C10.0523 2.5 10.5 2.94772 10.5 3.5V8.5C10.5 9.05228 10.0523 9.5 9.5 9.5H3.5C2.94772 9.5 2.5 9.05228 2.5 8.5V3.5Z" fill="white" stroke="var(--mw-icon-glyph-content-gray, #616162)"/>
<path d="M2.5 3.5C2.5 2.94772 2.94772 2.5 3.5 2.5H9.5C10.0523 2.5 10.5 2.94772 10.5 3.5V4.5H2.5V3.5Z" fill="var(--mw-icon-background-default-medium-gray, #D9D9D9)" stroke="var(--mw-icon-glyph-content-gray, #616162)"/>
</svg>
