<svg width="25" height="24" viewBox="0 0 25 24" fill="none" xmlns="http://www.w3.org/2000/svg">
<path d="M1.5 18.5V4.5C1.5 2.29086 3.29086 0.5 5.5 0.5H19.5C21.7091 0.5 23.5 2.29086 23.5 4.5V18.5C23.5 20.7091 21.7091 22.5 19.5 22.5H5.5C3.29086 22.5 1.5 20.7091 1.5 18.5Z" fill="var(--mw-icon-background-default-white, white)"/>
<path d="M14 22.5C14 22.5 20 12.8307 16 8.96297C12.5048 5.58332 3.66482 11.0631 1.48938 12.5" stroke="#FF453A" stroke-linecap="round"/>
<path d="M14 11V11.5C14 11.7761 13.7761 12 13.5 12V12C13.2239 12 13 11.7761 13 11.5V11H12.5C12.2239 11 12 10.7761 12 10.5V10.5C12 10.2239 12.2239 10 12.5 10H14.5C14.7761 10 15 10.2239 15 10.5V10.5C15 10.7761 14.7761 11 14.5 11H14Z" fill="#FF453A"/>
<path d="M20 10V9.5C20 9.22386 20.2239 9 20.5 9V9C20.7761 9 21 9.22386 21 9.5V10H21.5C21.7761 10 22 10.2239 22 10.5V10.5C22 10.7761 21.7761 11 21.5 11H19.5C19.2239 11 19 10.7761 19 10.5V10.5C19 10.2239 19.2239 10 19.5 10H20Z" fill="var(--mw-icon-glyph-content-dark-blue, #104280)"/>
<path d="M17 6V5.5C17 5.22386 17.2239 5 17.5 5V5C17.7761 5 18 5.22386 18 5.5V6H18.5C18.7761 6 19 6.22386 19 6.5V6.5C19 6.77614 18.7761 7 18.5 7H16.5C16.2239 7 16 6.77614 16 6.5V6.5C16 6.22386 16.2239 6 16.5 6H17Z" fill="var(--mw-icon-glyph-content-dark-blue, #104280)"/>
<path d="M12 3V2.5C12 2.22386 12.2239 2 12.5 2V2C12.7761 2 13 2.22386 13 2.5V3H13.5C13.7761 3 14 3.22386 14 3.5V3.5C14 3.77614 13.7761 4 13.5 4L11.5 4C11.2239 4 11 3.77614 11 3.5V3.5C11 3.22386 11.2239 3 11.5 3H12Z" fill="var(--mw-icon-glyph-content-dark-blue, #104280)"/>
<path d="M20 4V3.5C20 3.22386 20.2239 3 20.5 3V3C20.7761 3 21 3.22386 21 3.5V4H21.5C21.7761 4 22 4.22386 22 4.5V4.5C22 4.77614 21.7761 5 21.5 5H19.5C19.2239 5 19 4.77614 19 4.5V4.5C19 4.22386 19.2239 4 19.5 4H20Z" fill="var(--mw-icon-glyph-content-dark-blue, #104280)"/>
<path d="M13 14V14.5C13 14.7761 12.7761 15 12.5 15V15C12.2239 15 12 14.7761 12 14.5V14H11.5C11.2239 14 11 13.7761 11 13.5V13.5C11 13.2239 11.2239 13 11.5 13H13.5C13.7761 13 14 13.2239 14 13.5V13.5C14 13.7761 13.7761 14 13.5 14H13Z" fill="#FF453A"/>
<path d="M9 13V13.5C9 13.7761 8.77614 14 8.5 14V14C8.22386 14 8 13.7761 8 13.5V13H7.5C7.22386 13 7 12.7761 7 12.5V12.5C7 12.2239 7.22386 12 7.5 12H9.5C9.77614 12 10 12.2239 10 12.5V12.5C10 12.7761 9.77614 13 9.5 13H9Z" fill="#FF453A"/>
<path d="M5 15.5V16C5 16.2761 4.77614 16.5 4.5 16.5V16.5C4.22386 16.5 4 16.2761 4 16V15.5H3.5C3.22386 15.5 3 15.2761 3 15V15C3 14.7239 3.22386 14.5 3.5 14.5H5.5C5.77614 14.5 6 14.7239 6 15V15C6 15.2761 5.77614 15.5 5.5 15.5H5Z" fill="#FF453A"/>
<path d="M8 19V19.5C8 19.7761 7.77614 20 7.5 20V20C7.22386 20 7 19.7761 7 19.5V19H6.5C6.22386 19 6 18.7761 6 18.5V18.5C6 18.2239 6.22386 18 6.5 18H8.5C8.77614 18 9 18.2239 9 18.5V18.5C9 18.7761 8.77614 19 8.5 19H8Z" fill="#FF453A"/>
<path d="M13 18V18.5C13 18.7761 12.7761 19 12.5 19V19C12.2239 19 12 18.7761 12 18.5V18H11.5C11.2239 18 11 17.7761 11 17.5V17.5C11 17.2239 11.2239 17 11.5 17H13.5C13.7761 17 14 17.2239 14 17.5V17.5C14 17.7761 13.7761 18 13.5 18H13Z" fill="#FF453A"/>
<path d="M1.5 18.5V4.5C1.5 2.29086 3.29086 0.5 5.5 0.5H19.5C21.7091 0.5 23.5 2.29086 23.5 4.5V18.5C23.5 20.7091 21.7091 22.5 19.5 22.5H5.5C3.29086 22.5 1.5 20.7091 1.5 18.5Z" stroke="#B7312C" stroke-linecap="round"/>

</svg>
