<svg width="24" height="24" viewBox="0 0 24 24" fill="none" xmlns="http://www.w3.org/2000/svg">
<rect width="24" height="24" rx="4" fill="var(--mw-icon-background-default-white, #FFFFFF)"/>
<path d="M5.5 12.5H5C5 12.7761 5.22386 13 5.5 13L5.5 12.5ZM15.5 12.5H16C16 12.2239 15.7761 12 15.5 12V12.5ZM10.5 6H14.5V5H10.5V6ZM5 9L5 12.5H6L6 9H5ZM5.5 13L15.5 13V12L5.5 12L5.5 13ZM15 12.5V16H16V12.5H15Z" fill="var(--mw-icon-object-primary, #616160)"/>
<path d="M12.5 17.5H19.5V20.5C19.5 21.0523 19.0523 21.5 18.5 21.5H13.5C12.9477 21.5 12.5 21.0523 12.5 20.5V17.5Z" fill="white" stroke="var(--mw-icon-border-default-gray, #616161)"/>
<path d="M12.5 16.5C12.5 15.9477 12.9477 15.5 13.5 15.5H18.5C19.0523 15.5 19.5 15.9477 19.5 16.5V17.5H12.5V16.5Z" fill="var(--mw-icon-background-default-medium-gray, #D9D9D9)" stroke="var(--mw-icon-border-default-gray, #616161)"/>
<path d="M14.5 4.5H21.5V7.5C21.5 8.05228 21.0523 8.5 20.5 8.5H15.5C14.9477 8.5 14.5 8.05228 14.5 7.5V4.5Z" fill="white" stroke="var(--mw-icon-border-default-gray, #616161)"/>
<path d="M14.5 3.5C14.5 2.94772 14.9477 2.5 15.5 2.5H20.5C21.0523 2.5 21.5 2.94772 21.5 3.5V4.5H14.5V3.5Z" fill="var(--mw-icon-background-default-medium-gray, #D9D9D9)" stroke="var(--mw-icon-border-default-gray, #616161)"/>
<path d="M1.5 3.5H10.5V8.5C10.5 9.05228 10.0523 9.5 9.5 9.5H2.5C1.94772 9.5 1.5 9.05228 1.5 8.5V3.5Z" fill="white" stroke="var(--mw-icon-border-default-gray, #616161)"/>
<path d="M1.5 2.5C1.5 1.94772 1.94772 1.5 2.5 1.5H9.5C10.0523 1.5 10.5 1.94772 10.5 2.5V3.5H1.5V2.5Z" fill="var(--mw-icon-background-default-medium-gray, #D9D9D9)" stroke="var(--mw-icon-border-default-gray, #616161)"/>
</svg>
