<svg width="24" height="24" viewBox="0 0 24 24" fill="none" xmlns="http://www.w3.org/2000/svg">
<path d="M0.5 2.5C0.5 1.39543 1.39543 0.5 2.5 0.5H18.5C19.6046 0.5 20.5 1.39543 20.5 2.5V18.5C20.5 19.6046 19.6046 20.5 18.5 20.5H10.5H2.5C1.39543 20.5 0.5 19.6046 0.5 18.5V10.5V2.5Z" stroke="var(--mw-icon-object-primary, #616160)" stroke-linecap="round" stroke-dasharray="4 4"/>
<path d="M13.3499 13.6877C13.4448 13.569 13.5884 13.5 13.7403 13.5H23C23.2761 13.5 23.5 13.7239 23.5 14V23C23.5 23.2761 23.2761 23.5 23 23.5H13.7403C13.5884 23.5 13.4448 23.431 13.3499 23.3123L9.74988 18.8123C9.60379 18.6297 9.60379 18.3703 9.74988 18.1877L13.3499 13.6877Z" fill="var(--mw-icon-background-default-selection, #B4DEFF)" stroke="var(--mw-icon-border-default-blue, #1656A7)"/>
<path d="M20.5 20.5L16.5 16.5M16.5 20.5L20.5 16.5" stroke="var(--mw-icon-glyph-content-blue, #1656A8)" stroke-linecap="round"/>
</svg>
