<svg width="24" height="24" viewBox="0 0 24 24" fill="none" xmlns="http://www.w3.org/2000/svg">
<path d="M0.5 18.5V4.5C0.5 2.29086 2.29086 0.5 4.5 0.5H18.5C20.7091 0.5 22.5 2.29086 22.5 4.5V18.5C22.5 20.7091 20.7091 22.5 18.5 22.5H4.5C2.29086 22.5 0.5 20.7091 0.5 18.5Z" fill="var(--mw-icon-background-default-white, #FFFFFF)"/>
<path fill-rule="evenodd" clip-rule="evenodd" d="M2.5 4H0.5V3H2.5C4.433 3 6 4.567 6 6.5V8.5C6 9.88071 7.11929 11 8.5 11H10V12H8.5C6.567 12 5 10.433 5 8.5V6.5C5 5.11929 3.88071 4 2.5 4Z" fill="#0072BD"/>
<path fill-rule="evenodd" clip-rule="evenodd" d="M15.5 12H13V11H15.5C17.433 11 19 12.567 19 14.5V16.5C19 17.8807 20.1193 19 21.5 19H22.5V20H21.5C19.567 20 18 18.433 18 16.5V14.5C18 13.1193 16.8807 12 15.5 12Z" fill="#0072BD"/>
<path d="M0.5 18.5V4.5C0.5 2.29086 2.29086 0.5 4.5 0.5H18.5C20.7091 0.5 22.5 2.29086 22.5 4.5V18.5C22.5 20.7091 20.7091 22.5 18.5 22.5H4.5C2.29086 22.5 0.5 20.7091 0.5 18.5Z" stroke="#B7312C" stroke-linecap="round"/>
</svg>
