<svg width="24" height="24" viewBox="0 0 24 24" fill="none" xmlns="http://www.w3.org/2000/svg">
<path d="M17.5 0.5H1.5C0.947715 0.5 0.5 0.947716 0.5 1.5V17.5C0.5 18.0523 0.947716 18.5 1.5 18.5H17.5C18.0523 18.5 18.5 18.0523 18.5 17.5V1.5C18.5 0.947715 18.0523 0.5 17.5 0.5Z" fill="var(--mw-icon-background-default-white, #FFFFFF)" stroke="var(--mw-icon-border-default-gray, #616161)" stroke-linecap="round"/>
<path d="M2 5.01603C2 4.13427 2.32246 3.41283 2.96737 2.8517C3.61229 2.2839 4.45827 2 5.50531 2C6.56753 2 7.4173 2.2839 8.05463 2.8517C8.69954 3.41283 9.022 4.15097 9.022 5.06613V5.78758C9.022 6.66266 8.69954 7.38076 8.05463 7.94188C7.4173 8.50301 6.57511 8.78357 5.52807 8.78357C4.50379 8.78357 3.65781 8.50969 2.99014 7.96192C2.33005 7.40748 2 6.66266 2 5.72745V5.01603ZM3.93475 5.78758C3.93475 6.2485 4.07891 6.62258 4.36722 6.90982C4.66313 7.19038 5.05008 7.33066 5.52807 7.33066C5.99848 7.33066 6.37785 7.19038 6.66616 6.90982C6.95448 6.62258 7.09863 6.23514 7.09863 5.74749V5.01603C7.09863 4.55511 6.95068 4.18103 6.65478 3.89379C6.36646 3.60655 5.98331 3.46293 5.50531 3.46293C5.02731 3.46293 4.64416 3.60989 4.35584 3.90381C4.07511 4.19105 3.93475 4.57181 3.93475 5.04609V5.78758ZM9.96662 13.2224C9.96662 12.3273 10.2967 11.6025 10.9568 11.0481C11.6168 10.4937 12.459 10.2164 13.4833 10.2164C14.5152 10.2164 15.3574 10.4937 16.0099 11.0481C16.67 11.6025 17 12.3507 17 13.2926V14.004C17 14.8724 16.6813 15.5905 16.044 16.1583C15.4143 16.7194 14.5683 17 13.5061 17C12.4439 17 11.5865 16.7228 10.934 16.1683C10.2891 15.6072 9.96662 14.8691 9.96662 13.9539V13.2224ZM11.9014 14.004C11.9014 14.4582 12.0493 14.8323 12.3452 15.1263C12.6487 15.4135 13.0357 15.5571 13.5061 15.5571C13.9917 15.5571 14.371 15.4202 14.6442 15.1463C14.9249 14.8657 15.0653 14.4749 15.0653 13.9739V13.2224C15.0653 12.7548 14.9173 12.3808 14.6214 12.1002C14.3255 11.8196 13.9461 11.6794 13.4833 11.6794C13.0129 11.6794 12.6297 11.8196 12.3338 12.1002C12.0455 12.3808 11.9014 12.7682 11.9014 13.2625V14.004ZM6.09712 15.7074L4.67451 14.986L12.7663 3.58317L14.1889 4.30461L6.09712 15.7074Z" fill="var(--mw-icon-glyph-content-green, #008014)"/>
<path d="M13.3499 13.6877C13.4448 13.569 13.5884 13.5 13.7403 13.5H23C23.2761 13.5 23.5 13.7239 23.5 14V23C23.5 23.2761 23.2761 23.5 23 23.5H13.7403C13.5884 23.5 13.4448 23.431 13.3499 23.3123L9.74988 18.8123C9.60379 18.6297 9.60379 18.3703 9.74988 18.1877L13.3499 13.6877Z" fill="var(--mw-icon-background-default-selection, #B4DEFF)" stroke="var(--mw-icon-border-default-blue, #1656A7)"/>
<path d="M20.1464 20.8536C20.3417 21.0488 20.6583 21.0488 20.8536 20.8536C21.0488 20.6583 21.0488 20.3417 20.8536 20.1464L20.1464 20.8536ZM16.8536 16.1464C16.6583 15.9512 16.3417 15.9512 16.1464 16.1464C15.9512 16.3417 15.9512 16.6583 16.1464 16.8536L16.8536 16.1464ZM16.1464 20.1464C15.9512 20.3417 15.9512 20.6583 16.1464 20.8536C16.3417 21.0488 16.6583 21.0488 16.8536 20.8536L16.1464 20.1464ZM20.8536 16.8536C21.0488 16.6583 21.0488 16.3417 20.8536 16.1464C20.6583 15.9512 20.3417 15.9512 20.1464 16.1464L20.8536 16.8536ZM20.8536 20.1464L16.8536 16.1464L16.1464 16.8536L20.1464 20.8536L20.8536 20.1464ZM16.8536 20.8536L20.8536 16.8536L20.1464 16.1464L16.1464 20.1464L16.8536 20.8536Z" fill="var(--mw-icon-border-default-blue, #1656A7)"/>
</svg>
