<svg width="24" height="24" viewBox="0 0 24 24" fill="none" xmlns="http://www.w3.org/2000/svg">
<path d="M21.5 0.5H12.5V22.5H21.5C22.0523 22.5 22.5 22.0523 22.5 21.5V1.5C22.5 0.947715 22.0523 0.5 21.5 0.5Z" fill="var(--mw-icon-glyph-content-gray, #616162)" stroke="var(--mw-icon-border-default-gray, #616161)" stroke-linecap="round"/>
<path d="M0.5 1.5V21.5C0.5 22.0523 0.947715 22.5 1.5 22.5H10.5V0.5H1.5C0.947715 0.5 0.5 0.947716 0.5 1.5Z" fill="var(--mw-icon-glyph-content-gray, #616162)" stroke="var(--mw-icon-border-default-gray, #616161)" stroke-linecap="round"/>
<circle cx="3" cy="3" r="2" fill="var(--mw-icon-background-medium-yellow, #FFEF91)"/>
<path d="M10 5C9.73736 5 9.47728 4.94827 9.23463 4.84776C8.99198 4.74725 8.7715 4.59993 8.58579 4.41421C8.40007 4.2285 8.25275 4.00802 8.15224 3.76537C8.05173 3.52272 8 3.26264 8 3C8 2.73736 8.05173 2.47728 8.15224 2.23463C8.25275 1.99198 8.40007 1.7715 8.58579 1.58579C8.7715 1.40007 8.99198 1.25275 9.23463 1.15224C9.47728 1.05173 9.73736 1 10 1L10 5Z" fill="var(--mw-icon-background-medium-yellow, #FFEF91)"/>
<path d="M7 22C7 21.606 7.0776 21.2159 7.22836 20.8519C7.37913 20.488 7.6001 20.1573 7.87868 19.8787C8.15726 19.6001 8.48797 19.3791 8.85195 19.2284C9.21593 19.0776 9.60603 19 10 19L10 22H7Z" fill="var(--mw-icon-background-medium-yellow, #FFEF91)"/>
<path d="M2.5 22C3.32843 22 4 21.3284 4 20.5C4 19.6716 3.32843 19 2.5 19C1.67157 19 1 19.6716 1 20.5C1 21.3284 1.67157 22 2.5 22Z" fill="var(--mw-icon-background-medium-yellow, #FFEF91)"/>
<ellipse cx="5.5" cy="12" rx="3.5" ry="6" fill="var(--mw-icon-background-medium-yellow, #FFEF91)"/>
<ellipse cx="17.5" cy="12" rx="3.5" ry="6" fill="var(--mw-icon-background-medium-yellow, #FFEF91)"/>
</svg>
