<svg width="24" height="24" viewBox="0 0 24 24" fill="none" xmlns="http://www.w3.org/2000/svg">
<path d="M6.5 17.5L6.5 0.5L16.5 0.5C17.0523 0.5 17.5 0.947715 17.5 1.5L17.5 16.5C17.5 17.0523 17.0523 17.5 16.5 17.5L6.5 17.5Z" fill="var(--mw-icon-background-default-white, #FFFFFF)" stroke="var(--mw-icon-border-default-gray, #616161)"/>
<path d="M1.5 17.5C0.947715 17.5 0.5 17.0523 0.5 16.5L0.499999 1.5C0.499999 0.947715 0.947715 0.5 1.5 0.5L6.5 0.5L6.5 17.5L1.5 17.5Z" fill="var(--mw-icon-background-default-medium-gray, #D9D9D9)" stroke="var(--mw-icon-border-default-gray, #616161)"/>
<path d="M11.5 6C11.2239 6 11 6.22386 11 6.5C11 6.77614 11.2239 7 11.5 7V6ZM14.5 7C14.7761 7 15 6.77614 15 6.5C15 6.22386 14.7761 6 14.5 6V7ZM8.5 12C8.22386 12 8 12.2239 8 12.5C8 12.7761 8.22386 13 8.5 13V12ZM11.5 13C11.7761 13 12 12.7761 12 12.5C12 12.2239 11.7761 12 11.5 12V13ZM11.5 7H14.5V6H11.5V7ZM8.5 13H11.5V12H8.5V13Z" fill="var(--mw-icon-glyph-content-gray, #616162)"/>
<path d="M8.5 3C8.22386 3 8 3.22386 8 3.5C8 3.77614 8.22386 4 8.5 4V3ZM11.5 4C11.7761 4 12 3.77614 12 3.5C12 3.22386 11.7761 3 11.5 3V4ZM8.5 9C8.22386 9 8 9.22386 8 9.5C8 9.77614 8.22386 10 8.5 10V9ZM11.5 10C11.7761 10 12 9.77614 12 9.5C12 9.22386 11.7761 9 11.5 9V10ZM8.5 4H11.5V3H8.5V4ZM8.5 10H11.5V9H8.5V10Z" fill="var(--mw-icon-glyph-content-red, #902623)"/>
<path d="M5 3.5C5 4.32843 4.32843 5 3.5 5C2.67157 5 2 4.32843 2 3.5C2 2.67157 2.67157 2 3.5 2C4.32843 2 5 2.67157 5 3.5Z" fill="var(--mw-icon-glyph-content-red, #902623)"/>
<path d="M5 9.5C5 10.3284 4.32843 11 3.5 11C2.67157 11 2 10.3284 2 9.5C2 8.67157 2.67157 8 3.5 8C4.32843 8 5 8.67157 5 9.5Z" fill="var(--mw-icon-glyph-content-red, #902623)"/>
<path d="M13.3499 13.6877C13.4448 13.569 13.5884 13.5 13.7403 13.5H23C23.2761 13.5 23.5 13.7239 23.5 14V23C23.5 23.2761 23.2761 23.5 23 23.5H13.7403C13.5884 23.5 13.4448 23.431 13.3499 23.3123L9.74988 18.8123C9.60379 18.6297 9.60379 18.3703 9.74988 18.1877L13.3499 13.6877Z" fill="var(--mw-icon-background-default-selection, #B4DEFF)" stroke="var(--mw-icon-border-default-blue, #1656A7)"/>
<path d="M20.1464 20.8536C20.3417 21.0488 20.6583 21.0488 20.8536 20.8536C21.0488 20.6583 21.0488 20.3417 20.8536 20.1464L20.1464 20.8536ZM16.8536 16.1464C16.6583 15.9512 16.3417 15.9512 16.1464 16.1464C15.9512 16.3417 15.9512 16.6583 16.1464 16.8536L16.8536 16.1464ZM16.1464 20.1464C15.9512 20.3417 15.9512 20.6583 16.1464 20.8536C16.3417 21.0488 16.6583 21.0488 16.8536 20.8536L16.1464 20.1464ZM20.8536 16.8536C21.0488 16.6583 21.0488 16.3417 20.8536 16.1464C20.6583 15.9512 20.3417 15.9512 20.1464 16.1464L20.8536 16.8536ZM20.8536 20.1464L16.8536 16.1464L16.1464 16.8536L20.1464 20.8536L20.8536 20.1464ZM16.8536 20.8536L20.8536 16.8536L20.1464 16.1464L16.1464 20.1464L16.8536 20.8536Z" fill="var(--mw-icon-border-default-blue, #1656A7)"/>
</svg>
