<svg width="24" height="24" viewBox="0 0 24 24" fill="none" xmlns="http://www.w3.org/2000/svg">
<path d="M8.5 11.6743C8.5 11.0258 7.97424 10.5 7.32569 10.5H1.67431C1.02576 10.5 0.5 11.0258 0.5 11.6743V17.3257C0.5 17.9742 1.02576 18.5 1.67431 18.5H7.32569C7.97424 18.5 8.5 17.9742 8.5 17.3257V11.6743Z" stroke="var(--mw-icon-border-default-gray, #616161)"/>
<path d="M18.5 11.6743C18.5 11.0258 17.9742 10.5 17.3257 10.5H11.6743C11.0258 10.5 10.5 11.0258 10.5 11.6743V17.3257C10.5 17.9742 11.0258 18.5 11.6743 18.5H17.3257C17.9742 18.5 18.5 17.9742 18.5 17.3257V11.6743Z" stroke="var(--mw-icon-border-default-gray, #616161)"/>
<path d="M18.5 1.67431C18.5 1.02576 17.9742 0.5 17.3257 0.5H11.6743C11.0258 0.5 10.5 1.02576 10.5 1.67431V7.32569C10.5 7.97424 11.0258 8.5 11.6743 8.5H17.3257C17.9742 8.5 18.5 7.97424 18.5 7.32569V1.67431Z" stroke="var(--mw-icon-border-default-gray, #616161)"/>
<path d="M8.5 1.67431C8.5 1.02576 7.97424 0.5 7.32569 0.5H1.67431C1.02576 0.5 0.5 1.02576 0.5 1.67431V7.32569C0.5 7.97424 1.02576 8.5 1.67431 8.5H7.32569C7.97424 8.5 8.5 7.97424 8.5 7.32569V1.67431Z" stroke="var(--mw-icon-border-default-gray, #616161)"/>
<path d="M13.3499 13.6877C13.4448 13.569 13.5884 13.5 13.7403 13.5H23C23.2761 13.5 23.5 13.7239 23.5 14V23C23.5 23.2761 23.2761 23.5 23 23.5H13.7403C13.5884 23.5 13.4448 23.431 13.3499 23.3123L9.74988 18.8123C9.60379 18.6297 9.60379 18.3703 9.74988 18.1877L13.3499 13.6877Z" fill="var(--mw-icon-background-default-selection, #B4DEFF)" stroke="var(--mw-icon-border-default-blue, #1656A7)"/>
<path d="M20.5 20.5L16.5 16.5M16.5 20.5L20.5 16.5" stroke="var(--mw-icon-border-default-blue, #1656A7)" stroke-linecap="round"/>
</svg>
