<svg width="24" height="24" viewBox="0 0 24 24" fill="none" xmlns="http://www.w3.org/2000/svg">
<path d="M20 3.5H1C0.723858 3.5 0.5 3.72386 0.5 4V10C0.5 10.2761 0.723857 10.5 1 10.5H20C20.2761 10.5 20.5 10.2761 20.5 10V4C20.5 3.72386 20.2761 3.5 20 3.5Z" fill="var(--mw-icon-background-light-yellow, #FFF5BC)" stroke="#674C06" stroke-linejoin="round"/>
<path d="M2.5 9V10M4.5 7V10M6.5 9V10M8.5 7V10M10.5 9V10M12.5 7V10M14.5 9V10M16.5 7V10M18.5 9V10" stroke="var(--mw-icon-glyph-content-yellow, #674C07)"/>
<path d="M13.3499 9.68765C13.4448 9.56905 13.5884 9.5 13.7403 9.5H23C23.2761 9.5 23.5 9.72386 23.5 10V19C23.5 19.2761 23.2761 19.5 23 19.5H13.7403C13.5884 19.5 13.4448 19.431 13.3499 19.3123L9.74988 14.8123C9.60379 14.6297 9.60379 14.3703 9.74988 14.1877L13.3499 9.68765Z" fill="var(--mw-icon-background-default-selection, #B4DEFF)" stroke="var(--mw-icon-border-default-blue, #1656A7)"/>
<path d="M20.5 16.5L16.5 12.5M16.5 16.5L20.5 12.5" stroke="var(--mw-icon-border-default-blue, #1656A7)" stroke-linecap="round"/>
</svg>
