<svg width="24" height="24" viewBox="0 0 24 24" fill="none" xmlns="http://www.w3.org/2000/svg">
<path d="M0.5 2.5C0.5 1.39543 1.39543 0.5 2.5 0.5H16.5C17.6046 0.5 18.5 1.39543 18.5 2.5V16.5C18.5 17.6046 17.6046 18.5 16.5 18.5H2.5C1.39543 18.5 0.5 17.6046 0.5 16.5V2.5Z" fill="var(--mw-icon-background-default-white, #FFFFFF)"/>
<path d="M0.5 9.5C3.36364 16.8333 6.63636 16.8333 9.5 9.5C12.3636 2.16667 15.6364 2.16667 18.5 9.5" stroke="var(--mw-icon-glyph-content-light-blue, #278CDD)" stroke-linecap="round" stroke-linejoin="round"/>
<path d="M0.5 2.5C0.5 1.39543 1.39543 0.5 2.5 0.5H16.5C17.6046 0.5 18.5 1.39543 18.5 2.5V16.5C18.5 17.6046 17.6046 18.5 16.5 18.5H2.5C1.39543 18.5 0.5 17.6046 0.5 16.5V2.5Z" stroke="var(--mw-icon-border-default-gray, #616161)" stroke-linejoin="round"/>
<path d="M13.3499 13.6877C13.4448 13.569 13.5884 13.5 13.7403 13.5H23C23.2761 13.5 23.5 13.7239 23.5 14V23C23.5 23.2761 23.2761 23.5 23 23.5H13.7403C13.5884 23.5 13.4448 23.431 13.3499 23.3123L9.74988 18.8123C9.60379 18.6297 9.60379 18.3703 9.74988 18.1877L13.3499 13.6877Z" fill="var(--mw-icon-background-default-selection, #B4DEFF)" stroke="var(--mw-icon-border-default-blue, #1656A7)"/>
<path d="M20.1464 20.8536C20.3417 21.0488 20.6583 21.0488 20.8536 20.8536C21.0488 20.6583 21.0488 20.3417 20.8536 20.1464L20.1464 20.8536ZM16.8536 16.1464C16.6583 15.9512 16.3417 15.9512 16.1464 16.1464C15.9512 16.3417 15.9512 16.6583 16.1464 16.8536L16.8536 16.1464ZM16.1464 20.1464C15.9512 20.3417 15.9512 20.6583 16.1464 20.8536C16.3417 21.0488 16.6583 21.0488 16.8536 20.8536L16.1464 20.1464ZM20.8536 16.8536C21.0488 16.6583 21.0488 16.3417 20.8536 16.1464C20.6583 15.9512 20.3417 15.9512 20.1464 16.1464L20.8536 16.8536ZM20.8536 20.1464L16.8536 16.1464L16.1464 16.8536L20.1464 20.8536L20.8536 20.1464ZM16.8536 20.8536L20.8536 16.8536L20.1464 16.1464L16.1464 20.1464L16.8536 20.8536Z" fill="var(--mw-icon-glyph-content-blue, #1656A8)"/>
</svg>
