<svg width="24" height="24" viewBox="0 0 24 24" fill="none" xmlns="http://www.w3.org/2000/svg">
<path d="M18.5 17.5L1.5 17.5C0.947715 17.5 0.5 17.0523 0.5 16.5L0.499999 4.5L19.5 4.5L19.5 16.5C19.5 17.0523 19.0523 17.5 18.5 17.5Z" fill="var(--mw-icon-background-default-white, #FFFFFF)" stroke="var(--mw-icon-border-default-gray, #616161)" stroke-linecap="round"/>
<path d="M19.5 4.5L0.5 4.5L0.5 1.5C0.5 0.947717 0.947715 0.500002 1.5 0.500002L18.5 0.500001C19.0523 0.500001 19.5 0.947715 19.5 1.5L19.5 4.5Z" fill="white" stroke="var(--mw-icon-border-default-gray, #616161)" stroke-linecap="round"/>
<path d="M13.3499 13.6877C13.4448 13.569 13.5884 13.5 13.7403 13.5H23C23.2761 13.5 23.5 13.7239 23.5 14V23C23.5 23.2761 23.2761 23.5 23 23.5H13.7403C13.5884 23.5 13.4448 23.431 13.3499 23.3123L9.74988 18.8123C9.60379 18.6297 9.60379 18.3703 9.74988 18.1877L13.3499 13.6877Z" fill="var(--mw-icon-background-default-selection, #B4DEFF)" stroke="var(--mw-icon-border-default-blue, #1656A7)"/>
<path d="M20.5 20.5L16.5 16.5M16.5 20.5L20.5 16.5" stroke="var(--mw-icon-border-default-blue, #1656A7)" stroke-linecap="round"/>
<path d="M8 6L5 6V10H2.5L6.5 15L10.5 10H8L8 6Z" fill="var(--mw-icon-glyph-content-gray, #616162)"/>
</svg>
