<svg width="24" height="24" viewBox="0 0 24 24" fill="none" xmlns="http://www.w3.org/2000/svg">
<rect x="0.5" y="0.5" width="18" height="18" rx="2" fill="var(--mw-icon-background-default-white, #FFFFFF)" stroke="var(--mw-icon-border-default-gray, #616161)"/>
<path d="M3.85355 3.14645C3.65829 2.95118 3.34171 2.95118 3.14645 3.14645C2.95118 3.34171 2.95118 3.65829 3.14645 3.85355L3.85355 3.14645ZM6 6L6.35355 6.35355C6.54882 6.15829 6.54882 5.84171 6.35355 5.64645L6 6ZM3.14645 8.14645C2.95118 8.34171 2.95118 8.65829 3.14645 8.85355C3.34171 9.04882 3.65829 9.04882 3.85355 8.85355L3.14645 8.14645ZM6.85355 3.14645C6.65829 2.95118 6.34171 2.95118 6.14645 3.14645C5.95118 3.34171 5.95118 3.65829 6.14645 3.85355L6.85355 3.14645ZM9 6L9.35355 6.35355C9.54882 6.15829 9.54882 5.84171 9.35355 5.64645L9 6ZM6.14645 8.14645C5.95118 8.34171 5.95118 8.65829 6.14645 8.85355C6.34171 9.04882 6.65829 9.04882 6.85355 8.85355L6.14645 8.14645ZM3.14645 3.85355L5.64645 6.35355L6.35355 5.64645L3.85355 3.14645L3.14645 3.85355ZM5.64645 5.64645L3.14645 8.14645L3.85355 8.85355L6.35355 6.35355L5.64645 5.64645ZM6.14645 3.85355L8.64645 6.35355L9.35355 5.64645L6.85355 3.14645L6.14645 3.85355ZM8.64645 5.64645L6.14645 8.14645L6.85355 8.85355L9.35355 6.35355L8.64645 5.64645Z" fill="var(--mw-icon-glyph-content-gray, #616162)"/>
<path d="M13.3499 13.6877C13.4448 13.569 13.5884 13.5 13.7403 13.5H23C23.2761 13.5 23.5 13.7239 23.5 14V23C23.5 23.2761 23.2761 23.5 23 23.5H13.7403C13.5884 23.5 13.4448 23.431 13.3499 23.3123L9.74988 18.8123C9.60379 18.6297 9.60379 18.3703 9.74988 18.1877L13.3499 13.6877Z" fill="var(--mw-icon-background-default-selection, #B4DEFF)" stroke="var(--mw-icon-border-default-blue, #1656A7)"/>
<path d="M20.1464 20.8536C20.3417 21.0488 20.6583 21.0488 20.8536 20.8536C21.0488 20.6583 21.0488 20.3417 20.8536 20.1464L20.1464 20.8536ZM16.8536 16.1464C16.6583 15.9512 16.3417 15.9512 16.1464 16.1464C15.9512 16.3417 15.9512 16.6583 16.1464 16.8536L16.8536 16.1464ZM16.1464 20.1464C15.9512 20.3417 15.9512 20.6583 16.1464 20.8536C16.3417 21.0488 16.6583 21.0488 16.8536 20.8536L16.1464 20.1464ZM20.8536 16.8536C21.0488 16.6583 21.0488 16.3417 20.8536 16.1464C20.6583 15.9512 20.3417 15.9512 20.1464 16.1464L20.8536 16.8536ZM20.8536 20.1464L16.8536 16.1464L16.1464 16.8536L20.1464 20.8536L20.8536 20.1464ZM16.8536 20.8536L20.8536 16.8536L20.1464 16.1464L16.1464 20.1464L16.8536 20.8536Z" fill="var(--mw-icon-border-default-blue, #1656A7)"/>
</svg>
