<svg width="24" height="24" viewBox="0 0 24 24" fill="none" xmlns="http://www.w3.org/2000/svg">
<path d="M1 9L1 22H22V9L1 9Z" fill="var(--mw-icon-background-default-white, #FFFFFF)"/>
<path d="M1 1V8H11.5H22V1H11.5H1Z" fill="white"/>
<path d="M0.5 13.2427C0.736209 12.197 0.972419 11.2828 1.20863 10.5M22.5 15.398C20.7218 21.5308 19.1063 20.7663 17.4069 13.2427C17.1707 12.197 16.9345 11.2828 16.6982 10.5M5.427 10.5C5.66321 11.2828 5.89942 12.197 6.13563 13.2427C8.01417 21.5594 9.89271 21.5594 11.7713 13.2427C12.0075 12.197 12.2437 11.2828 12.4799 10.5" stroke="#0072BD"/>
<path d="M1 10V11H22V10H1Z" fill="var(--mw-icon-glyph-content-gray, #616162)"/>
<path d="M12 10H11V4H12V10Z" fill="var(--mw-icon-glyph-content-gray, #616162)"/>
<path d="M9 4L11.5 1L14 4H9Z" fill="var(--mw-icon-glyph-content-gray, #616162)"/>
<path d="M0.5 2.5C0.5 1.39543 1.39543 0.5 2.5 0.5H20.5C21.6046 0.5 22.5 1.39543 22.5 2.5V20.5C22.5 21.6046 21.6046 22.5 20.5 22.5H2.5C1.39543 22.5 0.5 21.6046 0.5 20.5V2.5Z" stroke="var(--mw-icon-border-default-gray, #616161)" stroke-linejoin="round"/>
</svg>
