<svg width="24" height="24" viewBox="0 0 24 24" fill="none" xmlns="http://www.w3.org/2000/svg">
<path d="M0.5 4.5V1.5C0.5 0.947715 0.947715 0.5 1.5 0.5H15.5C16.0523 0.5 16.5 0.947715 16.5 1.5V4.5C16.5 5.05228 16.0523 5.5 15.5 5.5H1.5C0.947715 5.5 0.5 5.05228 0.5 4.5Z" fill="var(--mw-icon-background-default-light-gray, #F5F5F5)"/>
<path d="M0.5 9.5V6.5C0.5 5.94772 0.947715 5.5 1.5 5.5H15.5C16.0523 5.5 16.5 5.94772 16.5 6.5V9.5C16.5 10.0523 16.0523 10.5 15.5 10.5H1.5C0.947715 10.5 0.5 10.0523 0.5 9.5Z" fill="var(--mw-icon-background-default-light-gray, #F5F5F5)"/>
<path d="M0.5 14.5V11.5C0.5 10.9477 0.947715 10.5 1.5 10.5H15.5C16.0523 10.5 16.5 10.9477 16.5 11.5V14.5C16.5 15.0523 16.0523 15.5 15.5 15.5H1.5C0.947715 15.5 0.5 15.0523 0.5 14.5Z" fill="var(--mw-icon-background-default-light-gray, #F5F5F5)"/>
<path d="M15.5 5.5C16.0523 5.5 16.5 5.05228 16.5 4.5V1.5C16.5 0.947715 16.0523 0.5 15.5 0.5H1.5C0.947715 0.5 0.5 0.947715 0.5 1.5V4.5C0.5 5.05228 0.947715 5.5 1.5 5.5M15.5 5.5H1.5M15.5 5.5C16.0523 5.5 16.5 5.94772 16.5 6.5V9.5C16.5 10.0523 16.0523 10.5 15.5 10.5M1.5 5.5C0.947715 5.5 0.5 5.94772 0.5 6.5V9.5C0.5 10.0523 0.947715 10.5 1.5 10.5M15.5 10.5H1.5M15.5 10.5C16.0523 10.5 16.5 10.9477 16.5 11.5V14.5C16.5 15.0523 16.0523 15.5 15.5 15.5H1.5C0.947715 15.5 0.5 15.0523 0.5 14.5V11.5C0.5 10.9477 0.947715 10.5 1.5 10.5" stroke="var(--mw-icon-border-default-gray, #616161)"/>
<path d="M15 3C15 3.55228 14.5523 4 14 4C13.4477 4 13 3.55228 13 3C13 2.44772 13.4477 2 14 2C14.5523 2 15 2.44772 15 3Z" fill="var(--mw-icon-glyph-content-green, #008014)"/>
<path d="M12 3.5C12 3.77614 11.7761 4 11.5 4C11.2239 4 11 3.77614 11 3.5C11 3.22386 11.2239 3 11.5 3C11.7761 3 12 3.22386 12 3.5Z" fill="var(--mw-icon-border-default-gray, #616161)"/>
<path d="M10 3.5C10 3.77614 9.77614 4 9.5 4C9.22386 4 9 3.77614 9 3.5C9 3.22386 9.22386 3 9.5 3C9.77614 3 10 3.22386 10 3.5Z" fill="var(--mw-icon-border-default-gray, #616161)"/>
<path d="M15 8C15 8.55228 14.5523 9 14 9C13.4477 9 13 8.55228 13 8C13 7.44772 13.4477 7 14 7C14.5523 7 15 7.44772 15 8Z" fill="var(--mw-icon-glyph-content-green, #008014)"/>
<path d="M12 8.5C12 8.77614 11.7761 9 11.5 9C11.2239 9 11 8.77614 11 8.5C11 8.22386 11.2239 8 11.5 8C11.7761 8 12 8.22386 12 8.5Z" fill="var(--mw-icon-border-default-gray, #616161)"/>
<path d="M10 8.5C10 8.77614 9.77614 9 9.5 9C9.22386 9 9 8.77614 9 8.5C9 8.22386 9.22386 8 9.5 8C9.77614 8 10 8.22386 10 8.5Z" fill="var(--mw-icon-border-default-gray, #616161)"/>
<path d="M15 13C15 13.5523 14.5523 14 14 14C13.4477 14 13 13.5523 13 13C13 12.4477 13.4477 12 14 12C14.5523 12 15 12.4477 15 13Z" fill="var(--mw-icon-glyph-content-green, #008014)"/>
<path d="M12 13.5C12 13.7761 11.7761 14 11.5 14C11.2239 14 11 13.7761 11 13.5C11 13.2239 11.2239 13 11.5 13C11.7761 13 12 13.2239 12 13.5Z" fill="var(--mw-icon-border-default-gray, #616161)"/>
<path d="M10 13.5C10 13.7761 9.77614 14 9.5 14C9.22386 14 9 13.7761 9 13.5C9 13.2239 9.22386 13 9.5 13C9.77614 13 10 13.2239 10 13.5Z" fill="var(--mw-icon-border-default-gray, #616161)"/>
<path d="M9.59091 23.5C7.33157 23.5 5.5 21.6058 5.5 19.2692C5.5 16.9326 7.33157 15.0385 9.59091 15.0385C10.1157 15.0385 10.6174 15.1406 11.0784 15.3268C11.9869 13.6406 13.7283 12.5 15.7273 12.5C18.536 12.5 20.8361 14.7518 21.0319 17.605C22.4263 17.8042 23.5 19.0417 23.5 20.5385C23.5 22.1741 22.2179 23.5 20.6364 23.5H9.59091Z" fill="var(--mw-icon-background-default-white, #FFFFFF)" stroke="var(--mw-icon-border-default-gray, #616161)"/>
</svg>
