<svg width="24" height="24" viewBox="0 0 24 24" fill="none" xmlns="http://www.w3.org/2000/svg">
<rect x="0.5" y="0.5" width="22" height="22" rx="2" fill="var(--mw-icon-background-default-white, #FFFFFF)"/>
<path d="M18.5 16.5C18.5 17.3284 17.8284 18 17 18C16.1716 18 15.5 17.3284 15.5 16.5C15.5 15.6716 16.1716 15 17 15C17.8284 15 18.5 15.6716 18.5 16.5Z" fill="#D95319"/>
<path d="M18.5 21.5C18.5 22.3284 17.8284 23 17 23C16.1716 23 15.5 22.3284 15.5 21.5C15.5 20.6716 16.1716 20 17 20C17.8284 20 18.5 20.6716 18.5 21.5Z" fill="#D95319"/>
<path d="M12.5 21.5C12.5 22.3284 11.8284 23 11 23C10.1716 23 9.5 22.3284 9.5 21.5C9.5 20.6716 10.1716 20 11 20C11.8284 20 12.5 20.6716 12.5 21.5Z" fill="#D95319"/>
<path d="M18.5 11.5C18.5 12.3284 17.8284 13 17 13C16.1716 13 15.5 12.3284 15.5 11.5C15.5 10.6716 16.1716 10 17 10C17.8284 10 18.5 10.6716 18.5 11.5Z" fill="#D95319"/>
<path d="M23 13C23 13.8284 22.3284 14.5 21.5 14.5C20.6716 14.5 20 13.8284 20 13C20 12.1716 20.6716 11.5 21.5 11.5C22.3284 11.5 23 12.1716 23 13Z" fill="#D95319"/>
<path d="M23 18.5C23 19.3284 22.3284 20 21.5 20C20.6716 20 20 19.3284 20 18.5C20 17.6716 20.6716 17 21.5 17C22.3284 17 23 17.6716 23 18.5Z" fill="#D95319"/>
<path d="M7 1.5C7 2.32843 6.32843 3 5.5 3C4.67157 3 4 2.32843 4 1.5C4 0.671573 4.67157 0 5.5 0C6.32843 0 7 0.671573 7 1.5Z" fill="#0072BD"/>
<path d="M6 6.5C6 7.32843 5.32843 8 4.5 8C3.67157 8 3 7.32843 3 6.5C3 5.67157 3.67157 5 4.5 5C5.32843 5 6 5.67157 6 6.5Z" fill="#0072BD"/>
<path d="M9 10.5C9 11.3284 8.32843 12 7.5 12C6.67157 12 6 11.3284 6 10.5C6 9.67157 6.67157 9 7.5 9C8.32843 9 9 9.67157 9 10.5Z" fill="#0072BD"/>
<path d="M3 10.5C3 11.3284 2.32843 12 1.5 12C0.671573 12 0 11.3284 0 10.5C0 9.67157 0.671573 9 1.5 9C2.32843 9 3 9.67157 3 10.5Z" fill="#0072BD"/>
<path d="M3 2.5C3 3.32843 2.32843 4 1.5 4C0.671573 4 0 3.32843 0 2.5C0 1.67157 0.671573 1 1.5 1C2.32843 1 3 1.67157 3 2.5Z" fill="#0072BD"/>
<path d="M13 1.5C13 2.32843 12.3284 3 11.5 3C10.6716 3 10 2.32843 10 1.5C10 0.671573 10.6716 0 11.5 0C12.3284 0 13 0.671573 13 1.5Z" fill="#0072BD"/>
<path d="M11 5.5C11 6.32843 10.3284 7 9.5 7C8.67157 7 8 6.32843 8 5.5C8 4.67157 8.67157 4 9.5 4C10.3284 4 11 4.67157 11 5.5Z" fill="#0072BD"/>
<rect x="0.5" y="0.5" width="22" height="22" rx="2" stroke="var(--mw-icon-border-default-gray, #616161)"/>
</svg>
