<svg width="24" height="24" viewBox="0 0 24 24" fill="none" xmlns="http://www.w3.org/2000/svg">
<path d="M0.5 1.5C0.5 0.947715 0.947715 0.5 1.5 0.5H10.5C11.0523 0.5 11.5 0.947715 11.5 1.5V10.5C11.5 11.0523 11.0523 11.5 10.5 11.5H1.5C0.947715 11.5 0.5 11.0523 0.5 10.5V1.5Z" fill="var(--mw-icon-background-default-white, #FFFFFF)" stroke="var(--mw-icon-border-default-gray, #616161)"/>
<path d="M4 4C4 4.55228 3.55228 5 3 5C2.44772 5 2 4.55228 2 4C2 3.44772 2.44772 3 3 3C3.55228 3 4 3.44772 4 4Z" fill="#1171BE"/>
<path d="M5 8C5 8.55228 4.55228 9 4 9C3.44772 9 3 8.55228 3 8C3 7.44772 3.44772 7 4 7C4.55228 7 5 7.44772 5 8Z" fill="#1171BE"/>
<path d="M10 4C10 4.55228 9.55228 5 9 5C8.44772 5 8 4.55228 8 4C8 3.44772 8.44772 3 9 3C9.55228 3 10 3.44772 10 4Z" fill="#1171BE"/>
<path d="M9 9C9 9.55228 8.55228 10 8 10C7.44772 10 7 9.55228 7 9C7 8.44772 7.44772 8 8 8C8.55228 8 9 8.44772 9 9Z" fill="#1171BE"/>
<path d="M7 6C7 6.55228 6.55228 7 6 7C5.44772 7 5 6.55228 5 6C5 5.44772 5.44772 5 6 5C6.55228 5 7 5.44772 7 6Z" fill="#1171BE"/>
<path d="M7 3C7 3.55228 6.55228 4 6 4C5.44772 4 5 3.55228 5 3C5 2.44772 5.44772 2 6 2C6.55228 2 7 2.44772 7 3Z" fill="#1171BE"/>
<path d="M5 16C5 16.5523 4.55228 17 4 17C3.44772 17 3 16.5523 3 16C3 15.4477 3.44772 15 4 15C4.55228 15 5 15.4477 5 16Z" fill="#3BAA32"/>
<path d="M5 22C5 22.5523 4.55228 23 4 23C3.44772 23 3 22.5523 3 22C3 21.4477 3.44772 21 4 21C4.55228 21 5 21.4477 5 22Z" fill="#3BAA32"/>
<path d="M9 17C9 17.5523 8.55228 18 8 18C7.44772 18 7 17.5523 7 17C7 16.4477 7.44772 16 8 16C8.55228 16 9 16.4477 9 17Z" fill="#3BAA32"/>
<path d="M9 20C9 20.5523 8.55228 21 8 21C7.44772 21 7 20.5523 7 20C7 19.4477 7.44772 19 8 19C8.55228 19 9 19.4477 9 20Z" fill="#3BAA32"/>
<path d="M6 19C6 19.5523 5.55228 20 5 20C4.44772 20 4 19.5523 4 19C4 18.4477 4.44772 18 5 18C5.55228 18 6 18.4477 6 19Z" fill="#3BAA32"/>
<path d="M3 19C3 19.5523 2.55228 20 2 20C1.44772 20 1 19.5523 1 19C1 18.4477 1.44772 18 2 18C2.55228 18 3 18.4477 3 19Z" fill="#3BAA32"/>
<path d="M17 15C17 15.5523 16.5523 16 16 16C15.4477 16 15 15.5523 15 15C15 14.4477 15.4477 14 16 14C16.5523 14 17 14.4477 17 15Z" fill="#8516D1"/>
<path d="M18 19C18 19.5523 17.5523 20 17 20C16.4477 20 16 19.5523 16 19C16 18.4477 16.4477 18 17 18C17.5523 18 18 18.4477 18 19Z" fill="#8516D1"/>
<path d="M23 16C23 16.5523 22.5523 17 22 17C21.4477 17 21 16.5523 21 16C21 15.4477 21.4477 15 22 15C22.5523 15 23 15.4477 23 16Z" fill="#8516D1"/>
<path d="M22 20C22 20.5523 21.5523 21 21 21C20.4477 21 20 20.5523 20 20C20 19.4477 20.4477 19 21 19C21.5523 19 22 19.4477 22 20Z" fill="#8516D1"/>
<path d="M20 17C20 17.5523 19.5523 18 19 18C18.4477 18 18 17.5523 18 17C18 16.4477 18.4477 16 19 16C19.5523 16 20 16.4477 20 17Z" fill="#8516D1"/>
<path d="M20 14C20 14.5523 19.5523 15 19 15C18.4477 15 18 14.5523 18 14C18 13.4477 18.4477 13 19 13C19.5523 13 20 13.4477 20 14Z" fill="#8516D1"/>
<path d="M17 5C17 5.55228 16.5523 6 16 6C15.4477 6 15 5.55228 15 5C15 4.44772 15.4477 4 16 4C16.5523 4 17 4.44772 17 5Z" fill="#DD5400"/>
<path d="M19 8C19 8.55228 18.5523 9 18 9C17.4477 9 17 8.55228 17 8C17 7.44772 17.4477 7 18 7C18.5523 7 19 7.44772 19 8Z" fill="#DD5400"/>
<path d="M19 2C19 2.55228 18.5523 3 18 3C17.4477 3 17 2.55228 17 2C17 1.44772 17.4477 1 18 1C18.5523 1 19 1.44772 19 2Z" fill="#DD5400"/>
<path d="M23 2C23 2.55228 22.5523 3 22 3C21.4477 3 21 2.55228 21 2C21 1.44772 21.4477 1 22 1C22.5523 1 23 1.44772 23 2Z" fill="#DD5400"/>
<path d="M20 5C20 5.55228 19.5523 6 19 6C18.4477 6 18 5.55228 18 5C18 4.44772 18.4477 4 19 4C19.5523 4 20 4.44772 20 5Z" fill="#DD5400"/>
<path d="M23 5C23 5.55228 22.5523 6 22 6C21.4477 6 21 5.55228 21 5C21 4.44772 21.4477 4 22 4C22.5523 4 23 4.44772 23 5Z" fill="#DD5400"/>
</svg>
