<svg width="24" height="24" viewBox="0 0 24 24" fill="none" xmlns="http://www.w3.org/2000/svg">
<path d="M10.6716 0.5H2.5C1.39543 0.5 0.5 1.39543 0.5 2.5V18.5C0.5 19.6046 1.39543 20.5 2.5 20.5H13.5C14.6046 20.5 15.5 19.6046 15.5 18.5V5.32843C15.5 4.79799 15.2893 4.28929 14.9142 3.91421L12.0858 1.08579C11.7107 0.710714 11.202 0.5 10.6716 0.5Z" fill="var(--mw-icon-background-default-white, #FFFFFF)" stroke="var(--mw-icon-border-default-gray, #616161)" stroke-linecap="round"/>
<rect width="12" height="12" rx="6" transform="matrix(-1 0 0 1 23.5 11.5)" fill="var(--mw-icon-background-default-action, #CBFFBE)" stroke="var(--mw-icon-border-default-green, #008013)"/>
<path d="M14.5 17.5L16.5 19.5L20.5 15.5" stroke="var(--mw-icon-glyph-content-green, #008014)" stroke-linecap="round" stroke-linejoin="round"/>
<path d="M9.5 10.5H13.5M6.5 7.5H10.5M3.5 4.5H7.5M6.5 13.5H10.5M3.5 16.5H7.5" stroke="var(--mw-icon-glyph-content-gray, #616162)" stroke-linecap="round"/>
</svg>
