<svg width="24" height="24" viewBox="0 0 24 24" fill="none" xmlns="http://www.w3.org/2000/svg">
<path d="M2.5 3.5V22.5C2.5 23.0523 2.94772 23.5 3.5 23.5H22.5C23.0523 23.5 23.5 23.0523 23.5 22.5V3.5C23.5 2.94772 23.0523 2.5 22.5 2.5H3.5C2.94772 2.5 2.5 2.94772 2.5 3.5Z" fill="var(--mw-icon-background-default-medium-gray, #D9D9D9)" stroke="var(--mw-icon-border-disabled-gray, #888888)" stroke-linecap="square"/>
<path d="M0.5 20.5V8.5H21.5V20.5C21.5 21.0523 21.0523 21.5 20.5 21.5H1.5C0.947715 21.5 0.5 21.0523 0.5 20.5Z" fill="var(--mw-icon-background-default-medium-gray, #D9D9D9)" stroke="var(--mw-icon-border-disabled-gray, #888888)" stroke-linecap="square"/>
<path d="M0.5 8.5V1.5C0.5 0.947715 0.947715 0.5 1.5 0.5H20.5C21.0523 0.5 21.5 0.947715 21.5 1.5V8.5H0.5Z" fill="var(--mw-icon-background-default-white, #FFFFFF)" stroke="var(--mw-icon-border-default-gray, #616161)" stroke-linecap="square"/>
<path d="M13.5 21.5L8.5 21.5L8.5 18.5L4.5 18.5L11 10L17.5 18.5L13.5 18.5L13.5 21.5Z" fill="var(--mw-icon-background-default-action, #CBFFBE)" stroke="var(--mw-icon-border-default-green, #008013)"/>
<path d="M8.5 4.5H17.5" stroke="var(--mw-icon-glyph-content-gray, #616162)" stroke-linecap="round"/>
<path d="M3 2L3 7L6 4.5L3 2Z" fill="var(--mw-icon-glyph-content-green, #008014)"/>
</svg>
