<svg width="24" height="24" viewBox="0 0 24 24" fill="none" xmlns="http://www.w3.org/2000/svg">
<path d="M3.5 22.5V4.5C3.5 3.94772 3.94772 3.5 4.5 3.5H22.5C23.0523 3.5 23.5 3.94772 23.5 4.5V22.5C23.5 23.0523 23.0523 23.5 22.5 23.5H4.5C3.94772 23.5 3.5 23.0523 3.5 22.5Z" fill="var(--mw-icon-background-default-medium-gray, #D9D9D9)" stroke="var(--mw-icon-border-default-gray, #616161)" stroke-linecap="square"/>
<path d="M0.5 20.5V1.5C0.5 0.947715 0.947715 0.5 1.5 0.5H20.5C21.0523 0.5 21.5 0.947715 21.5 1.5V20.5C21.5 21.0523 21.0523 21.5 20.5 21.5H1.5C0.947715 21.5 0.5 21.0523 0.5 20.5Z" fill="var(--mw-icon-background-default-white, #FFFFFF)" stroke="var(--mw-icon-border-default-gray, #616161)" stroke-linecap="square"/>
<path d="M9.5 5.5L14.5 5.5L14.5 10.5L18.5 10.5L12 19L5.5 10.5L9.5 10.5L9.5 5.5Z" fill="var(--mw-icon-background-default-action, #CBFFBE)" stroke="var(--mw-icon-border-default-green, #008013)"/>
<path d="M8.5 3.5H15.5" stroke="var(--mw-icon-glyph-content-gray, #616162)" stroke-linecap="round"/>
<path d="M7 3L2 3L4.5 6L7 3Z" fill="var(--mw-icon-glyph-content-green, #008014)"/>
</svg>
