<svg width="24" height="24" viewBox="0 0 24 24" fill="none" xmlns="http://www.w3.org/2000/svg">
<path d="M0.5 3.5H20.5V14.5C20.5 15.0523 20.0523 15.5 19.5 15.5H1.5C0.947716 15.5 0.5 15.0523 0.5 14.5V3.5Z" fill="var(--mw-icon-background-default-white, #FFFFFF)" stroke="var(--mw-icon-border-default-gray, #616161)"/>
<path d="M0.5 1.5C0.5 0.947715 0.947715 0.5 1.5 0.5H19.5C20.0523 0.5 20.5 0.947715 20.5 1.5V3.5H0.5V1.5Z" fill="var(--mw-icon-background-default-selection, #B4DEFF)" stroke="var(--mw-icon-border-default-blue, #1656A7)"/>
<path d="M6.5 9.5H14.5M6.5 12.5H16.5" stroke="var(--mw-icon-glyph-content-gray, #616162)" stroke-linecap="round"/>
<path d="M6.5 6.5H17.5M3.5 6.5H4.5" stroke="var(--mw-icon-glyph-content-red, #902623)" stroke-linecap="round"/>
<rect width="12" height="12" rx="6" transform="matrix(-1 0 0 1 23.5 11.5)" fill="var(--mw-icon-background-default-action, #CBFFBE)" stroke="var(--mw-icon-border-default-green, #008013)"/>
<path d="M14.5 17.5L16.5 19.5L20.5 15.5" stroke="var(--mw-icon-glyph-content-green, #008014)" stroke-linecap="round" stroke-linejoin="round"/>
</svg>
