<svg width="24" height="24" viewBox="0 0 24 24" fill="none" xmlns="http://www.w3.org/2000/svg">
<path d="M0.5 18.5V4.5C0.5 2.29086 2.29086 0.5 4.5 0.5H18.5C20.7091 0.5 22.5 2.29086 22.5 4.5V18.5C22.5 20.7091 20.7091 22.5 18.5 22.5H4.5C2.29086 22.5 0.5 20.7091 0.5 18.5Z" fill="var(--mw-icon-background-default-white, white)"/>
<path d="M1 18.5V4.5C1 2.29086 2.79086 0.5 5 0.5H9V22.5H5C2.79086 22.5 1 20.7091 1 18.5Z" fill="#E6E6E6"/>
<path d="M0.5 18.5V4.5C0.5 2.29086 2.29086 0.5 4.5 0.5H18.5C20.7091 0.5 22.5 2.29086 22.5 4.5V18.5C22.5 20.7091 20.7091 22.5 18.5 22.5H4.5C2.29086 22.5 0.5 20.7091 0.5 18.5Z" stroke="#B7312C" stroke-linecap="round"/>
<circle cx="5" cy="5" r="2" fill="var(--mw-icon-glyph-content-green, #008014)"/>
<circle cx="5" cy="11" r="2" fill="#EDB120"/>
<circle cx="5" cy="17" r="2" fill="#B7312C"/>
<path d="M17.5 20.5L14.5 20.5L14.5 16.5L12 16.5L16 12L20 16.5L17.5 16.5L17.5 20.5Z" fill="var(--mw-icon-background-default-action, #CBFFBE)" stroke="var(--mw-icon-glyph-content-green, #008014)"/>
<path d="M13 5L11.5 6.5L13 8M18 5L19.5 6.5L18 8M16 3.5L15 9.5" stroke="var(--mw-icon-glyph-content-gray, #616162)" stroke-linecap="round" stroke-linejoin="round"/>

</svg>
