<svg width="24" height="25" viewBox="0 0 24 25" fill="none" xmlns="http://www.w3.org/2000/svg">
<path d="M16.5 0.5H2.5C1.39543 0.5 0.5 1.39543 0.5 2.5V16.5C0.5 17.6046 1.39543 18.5 2.5 18.5H16.5C17.6046 18.5 18.5 17.6046 18.5 16.5V2.5C18.5 1.39543 17.6046 0.5 16.5 0.5Z" fill="var(--mw-icon-background-default-white, #FFFFFF)" stroke="var(--mw-icon-border-default-gray, #616161)"/>
<path d="M4.02081 18V14" stroke="var(--mw-icon-glyph-content-dark-gray, #333333)" stroke-width="2"/>
<path d="M10 3.02081L7.02081 6V9L9.02081 11H12.0208L15 8.02081" stroke="var(--mw-icon-glyph-content-dark-gray, #333333)" stroke-width="2"/>
<path d="M4 14L8 10" stroke="var(--mw-icon-glyph-content-dark-gray, #333333)" stroke-width="2"/>
<circle cx="4" cy="14" r="1.5" fill="white" stroke="var(--mw-icon-glyph-content-dark-gray, #333333)"/>
<path fill-rule="evenodd" clip-rule="evenodd" d="M11.5 15.136L9.63605 17L11.5 18.864V21.5H14.136L16 23.364L17.864 21.5H20.5V18.864L22.364 17L20.5 15.136V12.5H17.864L16 10.636L14.136 12.5H11.5V15.136Z" fill="var(--mw-icon-background-red, #FF9D9A)"/>
<path d="M9.63605 17L9.28249 16.6464L8.92894 17L9.28249 17.3536L9.63605 17ZM11.5 15.136L11.8536 15.4896L12 15.3431V15.136H11.5ZM11.5 18.864H12V18.6569L11.8536 18.5104L11.5 18.864ZM11.5 21.5H11V22H11.5V21.5ZM14.136 21.5L14.4896 21.1464L14.3432 21H14.136V21.5ZM16 23.364L15.6465 23.7175L16 24.0711L16.3536 23.7175L16 23.364ZM17.864 21.5V21H17.6569L17.5104 21.1464L17.864 21.5ZM20.5 21.5V22H21V21.5H20.5ZM20.5 18.864L20.1465 18.5104L20 18.6569V18.864H20.5ZM22.364 17L22.7175 17.3536L23.0711 17L22.7175 16.6464L22.364 17ZM20.5 15.136H20V15.3431L20.1465 15.4896L20.5 15.136ZM20.5 12.5H21V12H20.5V12.5ZM17.864 12.5L17.5104 12.8536L17.6569 13H17.864V12.5ZM16 10.636L16.3536 10.2825L16 9.92893L15.6465 10.2825L16 10.636ZM14.136 12.5V13H14.3432L14.4896 12.8536L14.136 12.5ZM11.5 12.5V12H11V12.5H11.5ZM9.9896 17.3536L11.8536 15.4896L11.1465 14.7825L9.28249 16.6464L9.9896 17.3536ZM11.8536 18.5104L9.9896 16.6464L9.28249 17.3536L11.1465 19.2175L11.8536 18.5104ZM12 21.5V18.864H11V21.5H12ZM14.136 21H11.5V22H14.136V21ZM16.3536 23.0104L14.4896 21.1464L13.7825 21.8536L15.6465 23.7175L16.3536 23.0104ZM17.5104 21.1464L15.6465 23.0104L16.3536 23.7175L18.2175 21.8536L17.5104 21.1464ZM20.5 21H17.864V22H20.5V21ZM20 18.864V21.5H21V18.864H20ZM22.0104 16.6464L20.1465 18.5104L20.8536 19.2175L22.7175 17.3536L22.0104 16.6464ZM20.1465 15.4896L22.0104 17.3536L22.7175 16.6464L20.8536 14.7825L20.1465 15.4896ZM20 12.5V15.136H21V12.5H20ZM17.864 13H20.5V12H17.864V13ZM15.6465 10.9896L17.5104 12.8536L18.2175 12.1464L16.3536 10.2825L15.6465 10.9896ZM14.4896 12.8536L16.3536 10.9896L15.6465 10.2825L13.7825 12.1464L14.4896 12.8536ZM11.5 13H14.136V12H11.5V13ZM12 15.136V12.5H11V15.136H12Z" fill="var(--mw-icon-border-default-red, #902622)"/>
<path d="M17 20C17 20.5523 16.5523 21 16 21C15.4477 21 15 20.5523 15 20C15 19.4477 15.4477 19 16 19C16.5523 19 17 19.4477 17 20Z" fill="var(--mw-icon-glyph-content-dark-red, #610908)"/>
<path fill-rule="evenodd" clip-rule="evenodd" d="M16 13C16.5523 13 17 13.4477 17 14V17C17 17.5523 16.5523 18 16 18C15.4477 18 15 17.5523 15 17V14C15 13.4477 15.4477 13 16 13Z" fill="var(--mw-icon-glyph-content-dark-red, #610908)"/>
</svg>
