<svg width="24" height="24" viewBox="0 0 24 24" fill="none" xmlns="http://www.w3.org/2000/svg">
<path d="M4.5 8.99999L1 12L4.5 15V19.4999H8.99991L12 23L15.0001 19.4999H19.5V15L23 12L19.5 9V4.5L15 4.49997L12 0.999998L9 4.5L4.5 4.49991V8.99999Z" fill="var(--mw-icon-background-red, #FF9D9A)" stroke="var(--mw-icon-border-default-red, #902622)" stroke-linejoin="round"/>
<path d="M13 16C13 16.5523 12.5523 17 12 17C11.4477 17 11 16.5523 11 16C11 15.4477 11.4477 15 12 15C12.5523 15 13 15.4477 13 16Z" fill="var(--mw-icon-glyph-content-dark-red, #610908)"/>
<path fill-rule="evenodd" clip-rule="evenodd" d="M12 7C12.5523 7 13 7.44772 13 8V13C13 13.5523 12.5523 14 12 14C11.4477 14 11 13.5523 11 13V8C11 7.44772 11.4477 7 12 7Z" fill="var(--mw-icon-glyph-content-dark-red, #610908)"/>
</svg>
