<svg width="24" height="24" viewBox="0 0 24 24" fill="none" xmlns="http://www.w3.org/2000/svg">
<path d="M0.499958 2.49999C0.499963 1.39543 1.39539 0.5 2.49996 0.5H20.5C21.6045 0.5 22.5 1.39543 22.5 2.5V20.5C22.5 21.6046 21.6045 22.5 20.5 22.5H2.49989C1.39532 22.5 0.499882 21.6046 0.499886 20.5L0.499958 2.49999Z" fill="var(--mw-icon-background-default-white, #FFFFFF)" stroke="var(--mw-icon-border-default-gray, #616161)"/>
<path d="M19.5 3.5H3.5V6.5H19.5V3.5Z" fill="var(--mw-icon-glyph-content-gray, #616162)" stroke="var(--mw-icon-glyph-content-gray, #616162)" stroke-linejoin="round"/>
<path d="M17 6L16 4L18 4L17 6Z" fill="white"/>
<path d="M17.8536 11.8536L18.2071 11.5L17.5 10.7929L17.1464 11.1464L17.8536 11.8536ZM16.1464 12.1464L15.7929 12.5L16.5 13.2071L16.8536 12.8536L16.1464 12.1464ZM16.8536 11.1464L16.5 10.7929L15.7929 11.5L16.1464 11.8536L16.8536 11.1464ZM17.1464 12.8536L17.5 13.2071L18.2071 12.5L17.8536 12.1464L17.1464 12.8536ZM4.50626 18.5938L4.50939 19.0938L4.50626 18.5938ZM18.5063 18.5062L18.5031 18.0062L18.5063 18.5062ZM5.5 12C5.22386 12 5 12.2239 5 12.5C5 12.7761 5.22386 13 5.5 13V12ZM13.5 13C13.7761 13 14 12.7761 14 12.5C14 12.2239 13.7761 12 13.5 12V13ZM5.5 15C5.22386 15 5 15.2239 5 15.5C5 15.7761 5.22386 16 5.5 16V15ZM13.5 16C13.7761 16 14 15.7761 14 15.5C14 15.2239 13.7761 15 13.5 15V16ZM17.1464 11.1464L16.6464 11.6464L17.3536 12.3536L17.8536 11.8536L17.1464 11.1464ZM16.6464 11.6464L16.1464 12.1464L16.8536 12.8536L17.3536 12.3536L16.6464 11.6464ZM16.1464 11.8536L16.6464 12.3536L17.3536 11.6464L16.8536 11.1464L16.1464 11.8536ZM16.6464 12.3536L17.1464 12.8536L17.8536 12.1464L17.3536 11.6464L16.6464 12.3536ZM4.5 10H18.5V9H4.5V10ZM19 10.5V17.5062H20V10.5H19ZM18.5031 18.0062L4.50313 18.0938L4.50939 19.0938L18.5094 19.0062L18.5031 18.0062ZM4 17.5939V10.5H3V17.5939H4ZM4.50313 18.0938C4.22577 18.0956 4 17.8712 4 17.5939H3C3 18.4259 3.67731 19.099 4.50939 19.0938L4.50313 18.0938ZM19 17.5062C19 17.7812 18.778 18.0045 18.5031 18.0062L18.5094 19.0062C19.3341 19.001 20 18.331 20 17.5062H19ZM18.5 10C18.7761 10 19 10.2239 19 10.5H20C20 9.67157 19.3284 9 18.5 9V10ZM4.5 9C3.67157 9 3 9.67157 3 10.5H4C4 10.2239 4.22386 10 4.5 10V9ZM5.5 13H13.5V12H5.5V13ZM5.5 16H13.5V15H5.5V16Z" fill="var(--mw-icon-glyph-content-gray, #616162)"/>
</svg>
