<svg width="24" height="24" viewBox="0 0 24 24" fill="none" xmlns="http://www.w3.org/2000/svg">
<path d="M21.5 0.5H2.5C1.39543 0.5 0.5 1.39543 0.5 2.5V21.5C0.5 22.6046 1.39543 23.5 2.5 23.5H21.5C22.6046 23.5 23.5 22.6046 23.5 21.5V2.5C23.5 1.39543 22.6046 0.5 21.5 0.5Z" fill="var(--mw-icon-background-default-white, #FFFFFF)" stroke="var(--mw-icon-border-default-gray, #616161)" stroke-linecap="round"/>
<path d="M21 20C21 20.5523 20.5523 21 20 21L18 21L18 3L20 3C20.5523 3 21 3.44771 21 4L21 20Z" fill="#F57729"/>
<path d="M15 3H18V21H15V3Z" fill="#FFD60A"/>
<path d="M12 3H15V21H12V3Z" fill="#3AC831"/>
<path d="M9 3H12V21H9V3Z" fill="var(--mw-icon-borderColor-light-blue, #268CDD)"/>
<path d="M6 3H9V21H6V3Z" fill="#C05CFB"/>
<path d="M3 4C3 3.44772 3.44772 3 4 3H6V21H4C3.44772 21 3 20.5523 3 20V4Z" fill="#F267C5"/>
</svg>
