<svg width="24" height="24" viewBox="0 0 24 24" fill="none" xmlns="http://www.w3.org/2000/svg">
<path d="M0.5 2.5C0.5 1.39543 1.39543 0.5 2.5 0.5H20.5C21.6046 0.5 22.5 1.39543 22.5 2.5V20.5C22.5 21.6046 21.6046 22.5 20.5 22.5H2.5C1.39543 22.5 0.5 21.6046 0.5 20.5V2.5Z" fill="var(--mw-icon-background-default-white, #FFFFFF)"/>
<path d="M22.5 15.5C20.5 12.5 20.5 4.5 20.5 4.5C20.5 4.5 20 12 19.5 13.5L17.5 19.5L15.5 13.5C15 12 14.5 4.5 14.5 4.5C14.5 4.5 14 12 13.5 13.5L11.5 19.5L9.5 13.5C9 12 8.50591 4.541 8.5 4.5C8.5 4.5 8 12 7.5 13.5L5.5 19.5L3.5 13.5C3 12 2.5 4.50001 2.5 4.50001C2.5 4.50001 2.5 12.5 0.5 15.5V20.5017C0.5 21.6062 1.39543 22.5 2.5 22.5H20.5C21.6046 22.5 22.5 21.6046 22.5 20.5V15.5Z" fill="#2FBEEF" stroke="#1171BE" stroke-linejoin="round"/>
<path d="M0.5 2.5C0.5 1.39543 1.39543 0.5 2.5 0.5H20.5C21.6046 0.5 22.5 1.39543 22.5 2.5V20.5C22.5 21.6046 21.6046 22.5 20.5 22.5H2.5C1.39543 22.5 0.5 21.6046 0.5 20.5V2.5Z" stroke="var(--mw-icon-border-default-gray, #616161)" stroke-linejoin="round"/>
</svg>
