<svg width="24" height="24" viewBox="0 0 24 24" fill="none" xmlns="http://www.w3.org/2000/svg">
<path d="M21.5 0.5H2.5C1.39543 0.5 0.5 1.39543 0.5 2.5V21.5C0.5 22.6046 1.39543 23.5 2.5 23.5H21.5C22.6046 23.5 23.5 22.6046 23.5 21.5V2.5C23.5 1.39543 22.6046 0.5 21.5 0.5Z" fill="var(--mw-icon-background-default-white, #FFFFFF)" stroke="var(--mw-icon-border-default-gray, #616161)" stroke-linecap="round"/>
<path d="M3 6.61924C3 5.56112 3.38695 4.69539 4.16085 4.02204C4.93475 3.34068 5.94992 3 7.20637 3C8.48103 3 9.50076 3.34068 10.2656 4.02204C11.0395 4.69539 11.4264 5.58116 11.4264 6.67936V7.54509C11.4264 8.59519 11.0395 9.45691 10.2656 10.1303C9.50076 10.8036 8.49014 11.1403 7.23369 11.1403C6.00455 11.1403 4.98938 10.8116 4.18816 10.1543C3.39605 9.48898 3 8.59519 3 7.47295V6.61924ZM5.3217 7.54509C5.3217 8.0982 5.49469 8.54709 5.84067 8.89178C6.19575 9.22846 6.66009 9.39679 7.23369 9.39679C7.79818 9.39679 8.25341 9.22846 8.59939 8.89178C8.94537 8.54709 9.11836 8.08216 9.11836 7.49699V6.61924C9.11836 6.06613 8.94082 5.61723 8.58574 5.27255C8.23976 4.92786 7.77997 4.75551 7.20637 4.75551C6.63278 4.75551 6.17299 4.93186 5.82701 5.28457C5.49014 5.62926 5.3217 6.08617 5.3217 6.65531V7.54509ZM12.5599 16.4669C12.5599 15.3928 12.956 14.523 13.7481 13.8577C14.5402 13.1924 15.5508 12.8597 16.78 12.8597C18.0182 12.8597 19.0288 13.1924 19.8118 13.8577C20.6039 14.523 21 15.4208 21 16.5511V17.4048C21 18.4469 20.6176 19.3086 19.8528 19.99C19.0971 20.6633 18.0819 21 16.8073 21C15.5326 21 14.5038 20.6673 13.7208 20.002C12.9469 19.3287 12.5599 18.4429 12.5599 17.3447V16.4669ZM14.8816 17.4048C14.8816 17.9499 15.0592 18.3988 15.4143 18.7515C15.7785 19.0962 16.2428 19.2685 16.8073 19.2685C17.39 19.2685 17.8452 19.1042 18.173 18.7756C18.5099 18.4389 18.6783 17.9699 18.6783 17.3687V16.4669C18.6783 15.9058 18.5008 15.4569 18.1457 15.1202C17.7906 14.7836 17.3354 14.6152 16.78 14.6152C16.2155 14.6152 15.7557 14.7836 15.4006 15.1202C15.0546 15.4569 14.8816 15.9218 14.8816 16.515V17.4048ZM7.91654 19.4489L6.20941 18.5832L15.9196 4.8998L17.6267 5.76553L7.91654 19.4489Z" fill="var(--mw-icon-glyph-content-green, #008014)"/>
</svg>
