<svg width="24" height="24" viewBox="0 0 24 24" fill="none" xmlns="http://www.w3.org/2000/svg">
<path fill-rule="evenodd" clip-rule="evenodd" d="M10.5 14.5C15.4706 14.5 19.5 11.366 19.5 7.5C19.5 3.63401 15.4706 0.5 10.5 0.5C5.52944 0.5 1.5 3.63401 1.5 7.5C1.5 9.54281 2.62506 11.3812 4.41955 12.6609L2.5 16.5L6.839 13.8966C7.95745 14.2844 9.19636 14.5 10.5 14.5Z" fill="var(--mw-sidebar-icon-fill, #ffffff)"/>
<path d="M4.41955 12.6609L4.86676 12.8845C4.97686 12.6643 4.91029 12.3967 4.70985 12.2538L4.41955 12.6609ZM2.5 16.5L2.05279 16.2764C1.95337 16.4752 1.99717 16.7158 2.16028 16.8669C2.32338 17.0179 2.56663 17.0431 2.75725 16.9287L2.5 16.5ZM6.839 13.8966L7.00281 13.4242C6.86291 13.3757 6.70872 13.3917 6.58175 13.4679L6.839 13.8966ZM19 7.5C19 10.9802 15.3186 14 10.5 14V15C15.6225 15 20 11.7518 20 7.5H19ZM10.5 1C15.3186 1 19 4.01981 19 7.5H20C20 3.2482 15.6225 0 10.5 0V1ZM2 7.5C2 4.01981 5.68136 1 10.5 1V0C5.37752 0 1 3.2482 1 7.5H2ZM4.70985 12.2538C3.01608 11.046 2 9.34667 2 7.5H1C1 9.73894 2.23405 11.7165 4.12925 13.068L4.70985 12.2538ZM2.94721 16.7236L4.86676 12.8845L3.97234 12.4373L2.05279 16.2764L2.94721 16.7236ZM6.58175 13.4679L2.24275 16.0713L2.75725 16.9287L7.09625 14.3253L6.58175 13.4679ZM10.5 14C9.25125 14 8.06777 13.7935 7.00281 13.4242L6.67519 14.369C7.84714 14.7754 9.14147 15 10.5 15V14Z" fill="var(--mw-sidebar-icon-stroke, #616161)"/>
<path d="M22.5 11.5H10.5C9.94772 11.5 9.5 11.9477 9.5 12.5V22.5C9.5 23.0523 9.94772 23.5 10.5 23.5H22.5C23.0523 23.5 23.5 23.0523 23.5 22.5V12.5C23.5 11.9477 23.0523 11.5 22.5 11.5Z" fill="var(--mw-sidebar-icon-fill, #ffffff)" stroke="var(--mw-sidebar-icon-stroke, #616161)"/>
<path d="M14.5 14.5H20.5M14.5 17.5H18.5M14.5 20.5H20.5" stroke="var(--mw-sidebar-icon-stroke, #616161)" stroke-linecap="round" stroke-linejoin="round"/>
<path d="M13 14.5C13 14.7761 12.7761 15 12.5 15C12.2239 15 12 14.7761 12 14.5C12 14.2239 12.2239 14 12.5 14C12.7761 14 13 14.2239 13 14.5Z" fill="var(--mw-sidebar-icon-stroke, #616161)"/>
<path d="M13 17.5C13 17.7761 12.7761 18 12.5 18C12.2239 18 12 17.7761 12 17.5C12 17.2239 12.2239 17 12.5 17C12.7761 17 13 17.2239 13 17.5Z" fill="var(--mw-sidebar-icon-stroke, #616161)"/>
<path d="M13 20.5C13 20.7761 12.7761 21 12.5 21C12.2239 21 12 20.7761 12 20.5C12 20.2239 12.2239 20 12.5 20C12.7761 20 13 20.2239 13 20.5Z" fill="var(--mw-sidebar-icon-stroke, #616161)"/>
</svg>
