<svg width="24" height="24" viewBox="0 0 24 24" fill="none" xmlns="http://www.w3.org/2000/svg">
<path d="M0.5 2.5H18.5V14.5C18.5 15.0523 18.0523 15.5 17.5 15.5H1.5C0.947716 15.5 0.5 15.0523 0.5 14.5V2.5Z" fill="var(--mw-sidebar-icon-fill, #ffffff)" stroke="var(--mw-sidebar-icon-stroke, #616161)"/>
<path d="M2.5 4.5L5 6.5L2.5 8.5M5.5 4.5L8 6.5L5.5 8.5" stroke="var(--mw-sidebar-icon-stroke, #616161)" stroke-linecap="round" stroke-linejoin="round"/>
<path d="M18.5 1.5V2.5H0.5V1.5C0.5 0.947715 0.947716 0.5 1.5 0.5H17.5C18.0523 0.5 18.5 0.947715 18.5 1.5Z" fill="var(--mw-sidebar-icon-fill, #ffffff)" stroke="var(--mw-sidebar-icon-stroke, #616161)" stroke-linecap="round"/>
<path d="M21.4498 21.4497C24.1834 18.7161 24.1834 14.2839 21.4497 11.5503C18.716 8.81658 14.2838 8.81658 11.5502 11.5503C8.81656 14.2839 8.8166 18.7161 11.5503 21.4497C14.284 24.1834 18.7162 24.1834 21.4498 21.4497Z" fill="var(--mw-sidebar-icon-fill, #ffffff)" stroke="var(--mw-sidebar-icon-stroke, #616161)"/>
<path d="M16.5 12.5V16.5L19.5 19.5" stroke="var(--mw-sidebar-icon-stroke, #616161)" stroke-linecap="round" stroke-linejoin="round"/>
</svg>
