<svg width="24" height="24" viewBox="0 0 24 24" fill="none" xmlns="http://www.w3.org/2000/svg">
<path d="M0.5 2.5C0.5 1.39543 1.39543 0.5 2.5 0.5H20.5C21.6046 0.5 22.5 1.39543 22.5 2.5V20.5C22.5 21.6046 21.6046 22.5 20.5 22.5H2.5C1.39543 22.5 0.5 21.6046 0.5 20.5V2.5Z" fill="var(--mw-icon-background-default-white, #FFFFFF)"/>
<path d="M20.987 19.4841L19.0028 21L18.9768 18.0029L20.987 19.4841Z" fill="var(--mw-icon-glyph-content-gray, #616162)"/>
<path d="M3.49796 2L4.99592 3.99819H2L3.49796 2Z" fill="var(--mw-icon-glyph-content-gray, #616162)"/>
<path d="M7.5 20C7.5 18.5 8 17.5 6 16.5" stroke="var(--mw-icon-glyph-content-gray, #616162)"/>
<path d="M3.99731 18.9846L14.5 8.50002" stroke="#DD5400" stroke-linejoin="round"/>
<path d="M4 8.5H14.5V14V19.5" stroke="#1171BE" stroke-linejoin="round"/>
<path d="M3.5 4V19.5H19.5" stroke="var(--mw-icon-glyph-content-gray, #616162)" stroke-linecap="round" stroke-linejoin="round"/>
<rect x="6" y="4" width="1" height="3" fill="black"/>
<rect x="6" y="2" width="1" height="1" fill="black"/>
<rect x="16" y="15" width="1" height="3" fill="black"/>
<rect x="17" y="15" width="1" height="1" fill="black"/>
<path d="M12.5 17.5C12.5 17.5 11.0523 15.5 10.5 15.5C9.94772 15.5 9.5 15.9477 9.5 16.5C9.5 17.0523 9.94772 17.5 10.5 17.5C11.0523 17.5 12.5 15.5 12.5 15.5" stroke="black" stroke-linecap="round"/>
<path d="M0.5 2.5C0.5 1.39543 1.39543 0.5 2.5 0.5H20.5C21.6046 0.5 22.5 1.39543 22.5 2.5V20.5C22.5 21.6046 21.6046 22.5 20.5 22.5H2.5C1.39543 22.5 0.5 21.6046 0.5 20.5V2.5Z" stroke="var(--mw-icon-border-default-gray, #616161)"/>
</svg>
