<svg width="24" height="24" viewBox="0 0 24 24" fill="none" xmlns="http://www.w3.org/2000/svg">
<path d="M0.5 18.5V4.5C0.5 2.29086 2.29086 0.5 4.5 0.5H18.5C20.7091 0.5 22.5 2.29086 22.5 4.5V18.5C22.5 20.7091 20.7091 22.5 18.5 22.5H4.5C2.29086 22.5 0.5 20.7091 0.5 18.5Z" fill="#FFD19E"/>
<path d="M0.5 18.5V4.5C0.5 2.29086 2.29086 0.5 4.5 0.5H18.5C20.7091 0.5 22.5 2.29086 22.5 4.5V18.5C22.5 20.7091 20.7091 22.5 18.5 22.5H4.5C2.29086 22.5 0.5 20.7091 0.5 18.5Z" stroke="#A24302" stroke-linecap="round"/>
<path d="M3.5 16.5L3.5 18.5M5.5 16.5V18.5" stroke="#823400" stroke-linecap="round" stroke-linejoin="round"/>
<path d="M1 4.5H22" stroke="#A24302"/>
<path d="M11.5 4.5V1" stroke="#A24302"/>
<path d="M6.48879 11.984H7.66351C7.63994 12.3768 7.53386 12.7255 7.34527 13.0301C7.15931 13.3347 6.8987 13.5725 6.56344 13.7435C6.2308 13.9145 5.83006 14 5.36122 14C4.99453 14 4.66582 13.9359 4.37509 13.8076C4.08435 13.6767 3.83553 13.4896 3.62861 13.2465C3.42431 13.0033 3.26847 12.7094 3.16108 12.3647C3.05369 12.02 3 11.6339 3 11.2064V10.8016C3 10.3741 3.055 9.98798 3.16501 9.64329C3.27764 9.29593 3.43741 9.00067 3.64433 8.75752C3.85386 8.51436 4.104 8.32732 4.39473 8.19639C4.68546 8.06546 5.01025 8 5.36908 8C5.84577 8 6.24782 8.08818 6.57523 8.26453C6.90525 8.44088 7.16062 8.68403 7.34135 8.99399C7.52469 9.30394 7.6347 9.65665 7.67137 10.0521H6.49272C6.47962 9.81697 6.43379 9.6179 6.35521 9.45491C6.27664 9.28925 6.15746 9.165 5.99769 9.08216C5.84054 8.99666 5.631 8.95391 5.36908 8.95391C5.17264 8.95391 5.00108 8.99132 4.8544 9.06613C4.70773 9.14095 4.58462 9.25451 4.48509 9.40681C4.38556 9.55912 4.31092 9.7515 4.26115 9.98397C4.21401 10.2138 4.19043 10.4836 4.19043 10.7936V11.2064C4.19043 11.5084 4.2127 11.7742 4.25722 12.004C4.30175 12.2311 4.36985 12.4235 4.46152 12.5812C4.55581 12.7361 4.6763 12.8537 4.82297 12.9339C4.97227 13.0114 5.15168 13.0501 5.36122 13.0501C5.60743 13.0501 5.81042 13.01 5.97019 12.9299C6.12996 12.8497 6.25175 12.7308 6.33557 12.5731C6.422 12.4155 6.47308 12.2191 6.48879 11.984Z" fill="#823400"/>
<path d="M13.1364 10.8657V11.1423C13.1364 11.5858 13.0774 11.984 12.9596 12.3367C12.8417 12.6894 12.6754 12.99 12.4606 13.2385C12.2458 13.4843 11.9891 13.6727 11.6905 13.8036C11.3946 13.9345 11.0659 14 10.7044 14C10.3456 14 10.0169 13.9345 9.71828 13.8036C9.42231 13.6727 9.16563 13.4843 8.94823 13.2385C8.73084 12.99 8.5619 12.6894 8.44141 12.3367C8.32355 11.984 8.26462 11.5858 8.26462 11.1423V10.8657C8.26462 10.4195 8.32355 10.0214 8.44141 9.67134C8.55928 9.31864 8.7256 9.01804 8.94037 8.76954C9.15777 8.52104 9.41445 8.33133 9.71042 8.2004C10.009 8.06947 10.3377 8.00401 10.6966 8.00401C11.058 8.00401 11.3867 8.06947 11.6827 8.2004C11.9813 8.33133 12.238 8.52104 12.4527 8.76954C12.6701 9.01804 12.8378 9.31864 12.9556 9.67134C13.0761 10.0214 13.1364 10.4195 13.1364 10.8657ZM11.9459 11.1423V10.8577C11.9459 10.5478 11.9184 10.2752 11.8634 10.0401C11.8084 9.80494 11.7272 9.60721 11.6198 9.44689C11.5124 9.28657 11.3815 9.16633 11.2269 9.08617C11.0724 9.00334 10.8956 8.96192 10.6966 8.96192C10.4975 8.96192 10.3207 9.00334 10.1662 9.08617C10.0143 9.16633 9.8846 9.28657 9.77721 9.44689C9.67244 9.60721 9.59256 9.80494 9.53755 10.0401C9.48255 10.2752 9.45505 10.5478 9.45505 10.8577V11.1423C9.45505 11.4496 9.48255 11.7221 9.53755 11.9599C9.59256 12.1951 9.67375 12.3941 9.78114 12.5571C9.88853 12.7174 10.0195 12.839 10.174 12.9218C10.3286 13.0047 10.5054 13.0461 10.7044 13.0461C10.9035 13.0461 11.0803 13.0047 11.2348 12.9218C11.3893 12.839 11.519 12.7174 11.6238 12.5571C11.7285 12.3941 11.8084 12.1951 11.8634 11.9599C11.9184 11.7221 11.9459 11.4496 11.9459 11.1423Z" fill="#823400"/>
<path d="M14.5232 8.08417H15.5211L16.9905 12.3687L18.4599 8.08417H19.4578L17.3913 13.9198H16.5898L14.5232 8.08417ZM13.985 8.08417H14.979L15.1597 12.2605V13.9198H13.985V8.08417ZM19.0021 8.08417H20V13.9198H18.8214V12.2605L19.0021 8.08417Z" fill="#823400"/>
</svg>
