<svg width="24" height="24" viewBox="0 0 24 24" fill="none" xmlns="http://www.w3.org/2000/svg">
<path d="M18.5 15.5C18.5 17.0815 14.4706 18.5 9.5 18.5C4.52944 18.5 0.5 17.0815 0.5 15.5V3.5C0.5 1.91846 4.52944 0.5 9.5 0.5C14.4706 0.5 18.5 1.91846 18.5 3.5V15.5Z" fill="var(--mw-icon-background-default-selection, #B4DEFF)" stroke="var(--mw-icon-border-default-blue, #1656A7)"/>
<path d="M18.5 7.5C18.5 9.08154 14.4706 10.5 9.5 10.5C4.52944 10.5 0.5 9.08154 0.5 7.5M18.5 11.5C18.5 13.0815 14.4706 14.5 9.5 14.5C4.52944 14.5 0.5 13.0815 0.5 11.5" stroke="var(--mw-icon-border-default-blue, #1656A7)" stroke-linecap="round"/>
<path d="M18.5 3.5C18.5 5.08154 14.4706 6.5 9.5 6.5C4.52944 6.5 0.5 5.08154 0.5 3.5C0.5 1.91846 4.52944 0.5 9.5 0.5C14.4706 0.5 18.5 1.91846 18.5 3.5Z" fill="var(--mw-icon-background-medium-blue, #83CAFF)" stroke="var(--mw-icon-border-default-blue, #1656A7)"/>
<path d="M16 3C16 4.05436 13.0899 5 9.5 5C5.91015 5 3 4.05436 3 3C3 1.94564 5.91015 1 9.5 1C13.0899 1 16 1.94564 16 3Z" fill="#C9E7FF"/>
<path d="M3 7.5C3 7.77614 2.77614 8 2.5 8C2.22386 8 2 7.77614 2 7.5C2 7.22386 2.22386 7 2.5 7C2.77614 7 3 7.22386 3 7.5Z" fill="var(--mw-icon-background-default-white, #FFFFFF)"/>
<path d="M3 11.5C3 11.7761 2.77614 12 2.5 12C2.22386 12 2 11.7761 2 11.5C2 11.2239 2.22386 11 2.5 11C2.77614 11 3 11.2239 3 11.5Z" fill="white"/>
<path d="M3 15.5C3 15.7761 2.77614 16 2.5 16C2.22386 16 2 15.7761 2 15.5C2 15.2239 2.22386 15 2.5 15C2.77614 15 3 15.2239 3 15.5Z" fill="white"/>
<path d="M5 8C5 8.27614 4.77614 8.5 4.5 8.5C4.22386 8.5 4 8.27614 4 8C4 7.72386 4.22386 7.5 4.5 7.5C4.77614 7.5 5 7.72386 5 8Z" fill="white"/>
<path d="M5 12C5 12.2761 4.77614 12.5 4.5 12.5C4.22386 12.5 4 12.2761 4 12C4 11.7239 4.22386 11.5 4.5 11.5C4.77614 11.5 5 11.7239 5 12Z" fill="white"/>
<path d="M5 16C5 16.2761 4.77614 16.5 4.5 16.5C4.22386 16.5 4 16.2761 4 16C4 15.7239 4.22386 15.5 4.5 15.5C4.77614 15.5 5 15.7239 5 16Z" fill="white"/>
<path d="M7 8.5C7 8.77614 6.77614 9 6.5 9C6.22386 9 6 8.77614 6 8.5C6 8.22386 6.22386 8 6.5 8C6.77614 8 7 8.22386 7 8.5Z" fill="white"/>
<path d="M7 12.5C7 12.7761 6.77614 13 6.5 13C6.22386 13 6 12.7761 6 12.5C6 12.2239 6.22386 12 6.5 12C6.77614 12 7 12.2239 7 12.5Z" fill="white"/>
<path d="M7 16.5C7 16.7761 6.77614 17 6.5 17C6.22386 17 6 16.7761 6 16.5C6 16.2239 6.22386 16 6.5 16C6.77614 16 7 16.2239 7 16.5Z" fill="white"/>
<path fill-rule="evenodd" clip-rule="evenodd" d="M17.875 10.9959C17.5992 10.8501 17.3084 10.729 17.0055 10.6354L16.5606 8.5H14.4394L13.9945 10.6354C13.6916 10.729 13.4008 10.8501 13.125 10.9959L11.3002 9.80029L9.80028 11.3002L10.9959 13.125C10.8501 13.4008 10.729 13.6916 10.6354 13.9945L8.5 14.4394V16.5606L10.6354 17.0055C10.729 17.3084 10.8501 17.5992 10.9959 17.875L9.80027 19.6998L11.3002 21.1997L13.125 20.0041C13.4008 20.1499 13.6916 20.271 13.9945 20.3646L14.4394 22.5H16.5606L17.0055 20.3646C17.3084 20.271 17.5992 20.1499 17.875 20.0041L19.6998 21.1997L21.1997 19.6998L20.0041 17.875C20.1499 17.5992 20.271 17.3084 20.3646 17.0055L22.5 16.5606V14.4394L20.3646 13.9945C20.271 13.6916 20.1499 13.4008 20.0041 13.125L21.1997 11.3002L19.6998 9.80029L17.875 10.9959Z" fill="var(--mw-icon-background-default-medium-gray, #D9D9D9)" stroke="var(--mw-icon-border-default-gray, #616161)" stroke-linejoin="round"/>
<path d="M19 15.5C19 17.433 17.433 19 15.5 19C13.567 19 12 17.433 12 15.5C12 13.567 13.567 12 15.5 12C17.433 12 19 13.567 19 15.5Z" fill="var(--mw-icon-background-default-dark-gray, #A6A6A6)"/>
<path d="M17 15.5C17 16.3284 16.3284 17 15.5 17C14.6716 17 14 16.3284 14 15.5C14 14.6716 14.6716 14 15.5 14C16.3284 14 17 14.6716 17 15.5Z" fill="var(--mw-icon-glyph-content-gray, #616162)"/>
</svg>
