<svg width="24" height="24" viewBox="0 0 24 24" fill="none" xmlns="http://www.w3.org/2000/svg">
<path d="M16.2687 2.4942L19.9599 6.18545L7.20138 18.944L3.51013 15.2528L16.2687 2.4942Z" fill="var(--mw-icon-background-default-action, #CBFFBE)" stroke="var(--mw-icon-border-default-green, #008013)" stroke-linejoin="round"/>
<path d="M0.5 0.5H11.5V9.5H0.5V0.5Z" fill="var(--mw-icon-background-default-white, #FFFFFF)"/>
<path d="M0.5 0.5V0C0.223858 0 0 0.223858 0 0.5L0.5 0.5ZM11.5 0.5H12C12 0.223858 11.7761 0 11.5 0V0.5ZM11.5 9.5V10C11.7761 10 12 9.77614 12 9.5H11.5ZM0.5 9.5H0C0 9.77614 0.223858 10 0.5 10L0.5 9.5ZM5 10C5 9.72386 4.77614 9.5 4.5 9.5C4.22386 9.5 4 9.72386 4 10H5ZM2.5 12C2.22386 12 2 12.2239 2 12.5C2 12.7761 2.22386 13 2.5 13V12ZM9.5 13C9.77614 13 10 12.7761 10 12.5C10 12.2239 9.77614 12 9.5 12V13ZM8 10C8 9.72386 7.77614 9.5 7.5 9.5C7.22386 9.5 7 9.72386 7 10H8ZM0.5 1H11.5V0H0.5V1ZM11 0.5V9.5H12V0.5H11ZM11.5 9H0.5V10H11.5V9ZM1 9.5V0.5H0V9.5H1ZM4 10V12.5H5V10H4ZM4.5 12H2.5V13H4.5V12ZM4.5 13H7.5V12H4.5V13ZM7.5 13H9.5V12H7.5V13ZM8 12.5V10H7V12.5H8Z" fill="var(--mw-icon-border-default-gray, #616161)"/>
<path d="M11.5 9.5H22.5V18.5H11.5V9.5Z" fill="white"/>
<path d="M11.5 9.5V9C11.2239 9 11 9.22386 11 9.5H11.5ZM22.5 9.5H23C23 9.22386 22.7761 9 22.5 9V9.5ZM22.5 18.5V19C22.7761 19 23 18.7761 23 18.5H22.5ZM11.5 18.5H11C11 18.7761 11.2239 19 11.5 19V18.5ZM16 19C16 18.7239 15.7761 18.5 15.5 18.5C15.2239 18.5 15 18.7239 15 19H16ZM13.5 21C13.2239 21 13 21.2239 13 21.5C13 21.7761 13.2239 22 13.5 22V21ZM20.5 22C20.7761 22 21 21.7761 21 21.5C21 21.2239 20.7761 21 20.5 21V22ZM19 19C19 18.7239 18.7761 18.5 18.5 18.5C18.2239 18.5 18 18.7239 18 19H19ZM11.5 10H22.5V9H11.5V10ZM22 9.5V18.5H23V9.5H22ZM22.5 18H11.5V19H22.5V18ZM12 18.5V9.5H11V18.5H12ZM15 19V21.5H16V19H15ZM15.5 21H13.5V22H15.5V21ZM15.5 22H18.5V21H15.5V22ZM18.5 22H20.5V21H18.5V22ZM19 21.5V19H18V21.5H19Z" fill="var(--mw-icon-border-default-gray, #616161)"/>
</svg>
