<svg xmlns="http://www.w3.org/2000/svg" width="24" height="24" viewBox="0 0 24 24" fill="none">
<path d="M21.5 4.5H2.5V18.5H21.5V4.5Z" fill="var(--mw-sidebar-icon-fill, #ffffff)" stroke="var(--mw-sidebar-icon-stroke, #616161)" stroke-linejoin="round"/>
<path d="M5.5 10.5H18.5L15.5 7.5M18.5 12.5L5.5 12.5L8.5 15.5" stroke="var(--mw-sidebar-icon-stroke, #616161)" stroke-linecap="round" stroke-linejoin="round"/>
<path d="M23.6 18H0.4C0.179086 18 0 18.1791 0 18.4C0 19.2837 0.716344 20 1.6 20H22.4C23.2837 20 24 19.2837 24 18.4C24 18.1791 23.8209 18 23.6 18Z" fill="var(--mw-sidebar-icon-stroke, #616161)"/>
<path d="M8 18H16L15.4393 18.5607C15.158 18.842 14.7765 19 14.3787 19H9.62132C9.2235 19 8.84196 18.842 8.56066 18.5607L8 18Z" fill="var(--mw-icon-background-default-dark-gray, #A6A6A6)"/>
</svg>