<svg width="24" height="24" viewBox="0 0 24 24" fill="none" xmlns="http://www.w3.org/2000/svg">
<path d="M0.5 18.5V4.5C0.5 2.29086 2.29086 0.5 4.5 0.5H18.5C20.7091 0.5 22.5 2.29086 22.5 4.5V18.5C22.5 20.7091 20.7091 22.5 18.5 22.5H4.5C2.29086 22.5 0.5 20.7091 0.5 18.5Z" fill="var(--mw-icon-background-default-white, #FFFFFF)"/>
<path d="M3.5 6.50001C2.26507 6.50714 0.5 7.50001 0.5 7.50001V16.5C0.5 16.5 2.26507 15.5071 3.5 15.5C6.00053 15.4856 6.00541 19.3271 8.5 19.5C11.8058 19.7291 11.1942 13.2709 14.5 13.5C16.9946 13.6729 16.9995 17.5145 19.5 17.5C20.7349 17.4929 22.5 16.5 22.5 16.5V7.50001C22.5 7.50001 20.7349 8.49287 19.5 8.50001C16.9995 8.51446 16.9946 4.6729 14.5 4.50001C11.1942 4.27089 11.8058 10.7291 8.5 10.5C6.00541 10.3271 6.00053 6.48555 3.5 6.50001Z" fill="var(--mw-icon-background-default-selection, #B4DEFF)" stroke="#823400"/>
<path d="M0.5 18.5V4.5C0.5 2.29086 2.29086 0.5 4.5 0.5H18.5C20.7091 0.5 22.5 2.29086 22.5 4.5V18.5C22.5 20.7091 20.7091 22.5 18.5 22.5H4.5C2.29086 22.5 0.5 20.7091 0.5 18.5Z" stroke="#B7312C" stroke-linecap="round"/>
</svg>
