<svg width="24" height="24" viewBox="0 0 24 24" fill="none" xmlns="http://www.w3.org/2000/svg">
<path fill-rule="evenodd" clip-rule="evenodd" d="M3.5 10C2.67157 10 2 10.6716 2 11.5C2 12.3284 2.67157 13 3.5 13C4.32843 13 5 12.3284 5 11.5C5 10.6716 4.32843 10 3.5 10ZM3.5 9C4.70948 9 5.71836 9.85888 5.94999 11H17.05C17.2816 9.85888 18.2905 9 19.5 9C20.8807 9 22 10.1193 22 11.5C22 12.8807 20.8807 14 19.5 14C18.2905 14 17.2816 13.1411 17.05 12H5.94999C5.71836 13.1411 4.70948 14 3.5 14C2.11929 14 1 12.8807 1 11.5C1 10.1193 2.11929 9 3.5 9ZM18 11.5C18 12.3284 18.6716 13 19.5 13C20.3284 13 21 12.3284 21 11.5C21 10.6716 20.3284 10 19.5 10C18.6716 10 18 10.6716 18 11.5Z" fill="var(--mw-icon-object-primary, #616160)"/>
</svg>
