<svg width="24" height="24" viewBox="0 0 24 24" fill="none" xmlns="http://www.w3.org/2000/svg">
<path d="M0.5 2.5C0.5 1.39543 1.39543 0.5 2.5 0.5H20.5C21.6046 0.5 22.5 1.39543 22.5 2.5V20.5C22.5 21.6046 21.6046 22.5 20.5 22.5H2.5C1.39543 22.5 0.5 21.6046 0.5 20.5V2.5Z" fill="#4852F4"/>
<path d="M0.5 4.49999V22L21 22.5C21.1667 17.6667 21.6683 6.66832 19 3.99999C15.5 0.500005 8.5 4.49999 0.5 4.49999Z" fill="#2E87F7"/>
<path d="M0.5 8V22L18 22C19 22 20.5 8.5 17 6C14.2 4 5 8.00001 0.5 8Z" fill="#12B1D6"/>
<path d="M1 12V22C5.16667 22.1667 13.6 22.4145 14 22.0727C14.5 21.6453 17.5 11.5 14 9C11.2 7 4.16667 10.1667 1 12Z" fill="#ABC739"/>
<path d="M12.9999 13C14.0696 15.2448 12.5106 20.3271 9.00006 22C5.48948 23.6729 2.2197 22.9805 0.999976 20C-0.192523 17.0861 1.48935 14.6729 4.99993 13C8.51051 11.3271 11.9302 10.7553 12.9999 13Z" fill="#FEC338"/>
<path d="M10 15C10.594 16.2464 9.2436 18.9309 7.00004 20C4.75647 21.0691 2.59399 20.2464 2.00003 19C1.40607 17.7536 2.75647 16.0691 5.00004 15C7.2436 13.9309 9.40608 13.7536 10 15Z" fill="#F9FB15"/>
<path d="M9 6.5C9 5.67157 9.67157 5 10.5 5C11.3284 5 12 5.67157 12 6.5C12 7.32843 11.3284 8 10.5 8C9.67157 8 9 7.32843 9 6.5Z" fill="var(--mw-icon-glyph-content-dark-gray, #333333)"/>
<path d="M4 12.5C4 11.6716 4.67157 11 5.5 11C6.32843 11 7 11.6716 7 12.5C7 13.3284 6.32843 14 5.5 14C4.67157 14 4 13.3284 4 12.5Z" fill="var(--mw-icon-glyph-content-dark-gray, #333333)"/>
<path d="M11 12.5C11 11.6716 11.6716 11 12.5 11C13.3284 11 14 11.6716 14 12.5C14 13.3284 13.3284 14 12.5 14C11.6716 14 11 13.3284 11 12.5Z" fill="var(--mw-icon-glyph-content-dark-gray, #333333)"/>
<rect x="0.5" y="0.5" width="22" height="22" rx="2" stroke="var(--mw-icon-border-default-gray, #616161)"/>
</svg>
