<svg width="24" height="24" viewBox="0 0 24 24" fill="none" xmlns="http://www.w3.org/2000/svg">
<path d="M0.5 1.5C0.5 0.947715 0.947715 0.5 1.5 0.5H11.5C12.0523 0.5 12.5 0.947715 12.5 1.5V6.5V10.5V21.5C12.5 22.0523 12.0523 22.5 11.5 22.5H1.5C0.947715 22.5 0.5 22.0523 0.5 21.5V10.5V6.5V1.5Z" fill="var(--mw-icon-background-default-light-gray, #F5F5F5)"/>
<path d="M12.5 6.5V1.5C12.5 0.947715 12.0523 0.5 11.5 0.5H1.5C0.947715 0.5 0.5 0.947715 0.5 1.5V6.5M12.5 6.5H0.5M12.5 6.5V10.5M0.5 6.5V10.5M0.5 10.5V21.5C0.5 22.0523 0.947715 22.5 1.5 22.5H11.5C12.0523 22.5 12.5 22.0523 12.5 21.5V10.5M0.5 10.5H12.5" stroke="var(--mw-icon-glyph-disabled-gray, #888889)"/>
<path d="M12.5 6.5H23.5V16.5H12.5V6.5Z" fill="var(--mw-icon-background-default-medium-gray, #D9D9D9)"/>
<path d="M0.5 6.5V6H0V6.5H0.5ZM0.5 10.5H0V11H0.5V10.5ZM12.5 10.5V11H13V10.5H12.5ZM23.5 6.5H24C24 6.22386 23.7761 6 23.5 6V6.5ZM23.5 16.5V17C23.7761 17 24 16.7761 24 16.5H23.5ZM12.5 16.5H12C12 16.7761 12.2239 17 12.5 17V16.5ZM12.5 6H0.5V7H12.5V6ZM1 10.5V6.5H0V10.5H1ZM12 6.5V10.5H13V6.5H12ZM0.5 11H12.5V10H0.5V11ZM12.5 7H23.5V6H12.5V7ZM23 6.5V16.5H24V6.5H23ZM23.5 16H12.5V17H23.5V16ZM13 16.5V6.5H12V16.5H13Z" fill="var(--mw-icon-border-default-gray, #616161)"/>
<rect x="1" y="7" width="11" height="3" fill="var(--mw-icon-background-default-medium-gray, #D9D9D9)"/>
<path d="M14 8.5H22M14 10.5H20M14 12.5H21M14 14.5H17M2 8.5H8M10 8.5H11" stroke="var(--mw-icon-glyph-content-gray, #616162)"/>
<path d="M2 4.5H11M2 2.5H10M2 14.5H11M2 12.5H8M2 18.5H9M2 16.5H7M2 20.5H7" stroke="var(--mw-icon-glyph-disabled-gray, #888889)"/>
</svg>
