<svg width="24" height="24" viewBox="0 0 24 24" fill="none" xmlns="http://www.w3.org/2000/svg">
<path d="M20.5 0.5H2.5C1.39543 0.5 0.5 1.39543 0.5 2.5V20.5C0.5 21.6046 1.39543 22.5 2.5 22.5H20.5C21.6046 22.5 22.5 21.6046 22.5 20.5V2.5C22.5 1.39543 21.6046 0.5 20.5 0.5Z" fill="var(--mw-icon-background-default-white, #FFFFFF)" stroke="var(--mw-icon-border-default-gray, #616161)" stroke-linecap="round"/>
<path d="M11.5 16.5C7.96367 16.5 4.81109 20.1767 2.50002 17.5C0.83622 15.573 2.00002 13.5459 2.00002 11C2.00002 8.45409 0.83622 6.42702 2.50002 4.5C4.81109 1.82331 7.96367 5.5 11.5 5.5C15.0364 5.5 18.1889 1.82331 20.5 4.5C22.1638 6.42702 21 8.45409 21 11C21 13.5459 22.1638 15.573 20.5 17.5C18.1889 20.1767 15.0364 16.5 11.5 16.5Z" stroke="#3E26A8" stroke-linejoin="round"/>
<path d="M11.4999 15.5C8.35143 15.5 5.53287 18.9042 3.49994 16.5C2.10738 14.8531 2.99994 13.1567 2.99994 11C2.99994 8.84325 2.10738 7.14689 3.49994 5.49999C5.53287 3.09577 8.35143 6.49999 11.4999 6.49999C14.6484 6.49999 17.467 3.09577 19.4999 5.49999C20.8925 7.14689 19.9999 8.84325 19.9999 11C19.9999 13.1567 20.8925 14.8531 19.4999 16.5C17.467 18.9042 14.6484 15.5 11.4999 15.5Z" stroke="#4852F4" stroke-linejoin="round"/>
<path d="M11.5 14.8636C8.7305 14.8636 6.21957 17.6395 4.49996 15.5C3.39225 14.1218 3.99996 12.7682 3.99996 11C3.99996 9.23183 3.39225 7.8782 4.49996 6.5C6.21957 4.36046 8.7305 7.13637 11.5 7.13637C14.2694 7.13637 16.7803 4.36046 18.5 6.5C19.6077 7.8782 19 9.23183 19 11C19 12.7682 19.6077 14.1218 18.5 15.5C16.7803 17.6395 14.2694 14.8636 11.5 14.8636Z" stroke="#2E87F7" stroke-linejoin="round"/>
<path d="M11.5 14.2273C9.15444 14.2273 6.91608 16.3699 5.5 14.5C4.66643 13.3993 5 12.3668 5 11C5 9.63315 4.66643 8.60068 5.5 7.49999C6.91608 5.63012 9.15444 7.77271 11.5 7.77271C13.8456 7.77271 16.0839 5.63012 17.5 7.49999C18.3336 8.60068 18 9.63315 18 11C18 12.3668 18.3336 13.3993 17.5 14.5C16.0839 16.3699 13.8456 14.2273 11.5 14.2273Z" stroke="#12B1D6" stroke-linejoin="round"/>
<path d="M11.5 13.0909C9.54088 13.0909 7.67366 15.0687 6.50002 13.5C5.90357 12.7028 6.00002 11.9956 6.00002 11C6.00002 10.0043 5.90357 9.29721 6.50002 8.49999C7.67366 6.93129 9.54088 8.90908 11.5 8.90908C13.4592 8.90908 15.3264 6.93129 16.5 8.49999C17.0965 9.29721 17 10.0043 17 11C17 11.9956 17.0965 12.7028 16.5 13.5C15.3264 15.0687 13.4592 13.0909 11.5 13.0909Z" stroke="#ABC739" stroke-linejoin="round"/>
<path d="M11.5 12.4545C9.9378 12.4545 8.44012 13.7477 7.5 12.5C7.12841 12.0069 7 11.6175 7 11C7 10.3825 7.12841 9.99314 7.5 9.5C8.44012 8.25235 9.9378 9.54545 11.5 9.54545C13.0622 9.54545 14.5599 8.25235 15.5 9.5C15.8716 9.99314 16 10.3825 16 11C16 11.6175 15.8716 12.0069 15.5 12.5C14.5599 13.7477 13.0622 12.4545 11.5 12.4545Z" stroke="#FEC338" stroke-linejoin="round"/>
<path d="M11.1001 11.4661C10.4545 11.6816 9.18564 12.0044 8.5 11.5C8.27756 11.3364 8 11.2762 8 11C8 10.7239 8.27756 10.6636 8.5 10.5C9.44548 9.80453 10.3263 10.6818 11.5 10.6818C12.6737 10.6818 13.5545 9.80453 14.5 10.5C14.7224 10.6636 15 10.7239 15 11C15 11.2762 14.7224 11.3364 14.5 11.5C13.8144 12.0044 12.5455 11.6816 11.8999 11.4661C11.6411 11.3798 11.3589 11.3798 11.1001 11.4661Z" stroke="#F9FB15" stroke-linejoin="round"/>
</svg>
