<svg width="24" height="24" viewBox="0 0 24 24" fill="none" xmlns="http://www.w3.org/2000/svg">
<path d="M0.5 18.5V4.5C0.5 2.29086 2.29086 0.5 4.5 0.5H18.5C20.7091 0.5 22.5 2.29086 22.5 4.5V18.5C22.5 20.7091 20.7091 22.5 18.5 22.5H4.5C2.29086 22.5 0.5 20.7091 0.5 18.5Z" fill="#00A9E0"/>
<rect x="10.5" y="5.5" width="6" height="6" rx="1" fill="var(--mw-icon-background-default-white, white)" stroke="black"/>
<path d="M6.5 8.5H4.5C3.94772 8.5 3.5 8.94772 3.5 9.5V16.5C3.5 17.0523 3.94772 17.5 4.5 17.5H18.5C19.0523 17.5 19.5 17.0523 19.5 16.5V9.5C19.5 8.94772 19.0523 8.5 18.5 8.5H18H17.5" stroke="black" stroke-linecap="square" stroke-linejoin="round"/>
<path d="M6 11V6L10 8.5L6 11Z" fill="black"/>
<path d="M0.5 18.5V4.5C0.5 2.29086 2.29086 0.5 4.5 0.5H18.5C20.7091 0.5 22.5 2.29086 22.5 4.5V18.5C22.5 20.7091 20.7091 22.5 18.5 22.5H4.5C2.29086 22.5 0.5 20.7091 0.5 18.5Z" stroke="#245474" stroke-linecap="round"/>

</svg>
