<svg width="24" height="24" viewBox="0 0 24 24" fill="none" xmlns="http://www.w3.org/2000/svg">
<rect x="0.5" y="0.5" width="22" height="22" rx="2" fill="#2FBEEF"/>
<path d="M1 5C1 5 4.85714 8.38727 7.42857 8.38727C8.11056 8.38727 8.76461 8.65459 9.24685 9.13042C9.72908 9.60625 10 10.2516 10 10.9245C10 12.3333 7.78398 13.7804 6.20131 14.6728C4.61864 15.5652 2.82268 16.0231 1 15.9991V5Z" fill="var(--mw-icon-glyph-content-light-blue, #278CDD)"/>
<path d="M15 21C18.3137 21 21 19.6569 21 18C21 16.3431 18.3137 15 15 15C11.6863 15 9 16.3431 9 18C9 19.6569 11.6863 21 15 21Z" fill="var(--mw-icon-glyph-content-light-blue, #278CDD)"/>
<path d="M12 18C12 19.1046 13.3431 20 15 20C16.6569 20 18 19.1046 18 18C18 16.8954 16.6569 16 15 16C13.3431 16 12 16.8954 12 18Z" fill="var(--mw-icon-glyph-content-dark-blue, #104280)"/>
<path d="M14 18C14 18.5523 14.6716 19 15.5 19C16.3284 19 17 18.5523 17 18C17 17.4477 16.3284 17 15.5 17C14.6716 17 14 17.4477 14 18Z" fill="#141A33"/>
<path d="M7.55636 12.5111C8.312 11.7054 8.43473 10.5929 7.83049 10.0262C7.22625 9.45942 6.12384 9.65311 5.3682 10.4588C4.61257 11.2644 4.48984 12.377 5.09408 12.9437C5.69832 13.5104 6.80072 13.3167 7.55636 12.5111Z" fill="var(--mw-icon-glyph-content-dark-blue, #104280)"/>
<rect x="0.5" y="0.5" width="22" height="22" rx="2" stroke="var(--mw-icon-border-default-gray, #616161)"/>
<path d="M14.795 7.33059C14.9358 7.33047 15.0751 7.3594 15.2046 7.41562C15.3342 7.47185 15.4512 7.55421 15.5488 7.65777C15.6463 7.76133 15.7224 7.88395 15.7724 8.01826C15.8223 8.15257 15.8452 8.2958 15.8395 8.43935C15.756 10.401 16.0328 14.1431 19.5894 12.6612C23.5065 11.03 18.0226 6.79753 18.0226 6.79753C18.0226 6.79753 17.4011 2 13.3222 2H9.39475C9.39475 2 6 2.20256 6 4.93182C6 7.66109 9.91702 7.33059 9.91702 7.33059H14.795Z" fill="var(--mw-icon-background-medium-blue, #83CAFF)"/>
<path d="M15 5C15 6.18286 13.6875 7 11.5 7C9.3125 7 8 6.46857 8 5.28571C8 4.10286 9.3125 3 11.5 3C13.6875 3 15 3.81714 15 5Z" fill="#D95319"/>
<path d="M12.5 6C13.3284 6 14 5.55228 14 5C14 4.44772 13.3284 4 12.5 4C11.6716 4 11 4.44772 11 5C11 5.55228 11.6716 6 12.5 6Z" fill="#FE9043"/>
</svg>
