<svg width="24" height="24" viewBox="0 0 24 24" fill="none" xmlns="http://www.w3.org/2000/svg">
<path d="M0.5 18.5V4.5C0.5 2.29086 2.29086 0.5 4.5 0.5H18.5C20.7091 0.5 22.5 2.29086 22.5 4.5V18.5C22.5 20.7091 20.7091 22.5 18.5 22.5H4.5C2.29086 22.5 0.5 20.7091 0.5 18.5Z" fill="#00A9E0"/>
<path d="M6.5 5.5H4.5C3.94772 5.5 3.5 5.94772 3.5 6.5V11.5C3.5 12.0523 3.94772 12.5 4.5 12.5H18.5C19.0523 12.5 19.5 12.0523 19.5 11.5V6.5C19.5 5.94772 19.0523 5.5 18.5 5.5H18H17.5" stroke="black" stroke-linecap="square" stroke-linejoin="round"/>
<path d="M6 8V3L10 5.5L6 8Z" fill="black"/>
<rect x="10.5" y="2.5" width="6" height="6" rx="1" fill="var(--mw-icon-background-default-white, white)" stroke="black"/>
<path d="M17 14.5L7.5 20V9L17 14.5Z" fill="var(--mw-icon-background-default-white, white)" stroke="black" stroke-linejoin="round"/>
<path d="M0.5 18.5V4.5C0.5 2.29086 2.29086 0.5 4.5 0.5H18.5C20.7091 0.5 22.5 2.29086 22.5 4.5V18.5C22.5 20.7091 20.7091 22.5 18.5 22.5H4.5C2.29086 22.5 0.5 20.7091 0.5 18.5Z" stroke="#245474" stroke-linecap="round"/>

</svg>
