<svg width="24" height="24" viewBox="0 0 24 24" fill="none" xmlns="http://www.w3.org/2000/svg">
<path d="M0.5 18.5V4.5C0.5 2.29086 2.29086 0.5 4.5 0.5H18.5C20.7091 0.5 22.5 2.29086 22.5 4.5V18.5C22.5 20.7091 20.7091 22.5 18.5 22.5H4.5C2.29086 22.5 0.5 20.7091 0.5 18.5Z" fill="#00A9E0"/>
<path d="M6.02093 10H4.99651V4.02146H3V3H8.01744V4.02146H6.02093V10Z" fill="var(--mw-icon-background-default-white, #FFFFFF)"/>
<path d="M6.98779 10L7 9H8L7.99302 8.00954H6.99302V6.00954L9 6V7.02146L8 7.01192V8H9V10H6.98779Z" fill="white"/>
<path d="M12.0244 10H11V6.02146H10V5H12.0244V10Z" fill="white"/>
<path d="M6.02171 20H4.9969V14.0215H3V13H8.01861V14.0215H6.02171V20Z" fill="white"/>
<path d="M12 20H10V16.9873H11V16.0215H10V15L12 15V18L11.0248 18.0087V18.9746L12 18.9658V20Z" fill="white"/>
<path d="M7 20L7.01221 19H8.01221L8.00523 18.0095H7.00523V16.0095L9.01221 16V17.0215L8.01221 17.0119V18H9.01221V20H7Z" fill="white"/>
<path d="M17 14L17 19L13 16.5L17 14Z" fill="#232B33"/>
<path d="M16.1667 16.5H18.5C19.0523 16.5 19.5 16.0523 19.5 15.5V8.5C19.5 7.94772 19.0523 7.5 18.5 7.5H14" stroke="#232B33"/>
<path d="M0.5 18.5V4.5C0.5 2.29086 2.29086 0.5 4.5 0.5H18.5C20.7091 0.5 22.5 2.29086 22.5 4.5V18.5C22.5 20.7091 20.7091 22.5 18.5 22.5H4.5C2.29086 22.5 0.5 20.7091 0.5 18.5Z" stroke="#245474" stroke-linecap="round"/>
</svg>
