<svg width="24" height="24" viewBox="0 0 24 24" fill="none" xmlns="http://www.w3.org/2000/svg">
<path d="M1 23H23V12V1H1V12V23Z" fill="var(--mw-icon-background-default-white, #FFFFFF)"/>
<rect x="2" y="2" width="11" height="11" rx="0.5" fill="var(--mw-icon-background-default-medium-gray, #D9D9D9)"/>
<path d="M0.5 20.5L7.5 5.5L14.5 16.5L18.5 12.5L23.5 20.5" stroke="var(--mw-icon-glyph-content-gray, #616162)" stroke-linejoin="round"/>
<path d="M2 5H3V7H2V5Z" fill="var(--mw-icon-glyph-content-gray, #616162)"/>
<path d="M2 8H3V10H2V8Z" fill="var(--mw-icon-glyph-content-gray, #616162)"/>
<path d="M12 5H13V7H12V5Z" fill="var(--mw-icon-glyph-content-gray, #616162)"/>
<path d="M12 8H13V10H12V8Z" fill="var(--mw-icon-glyph-content-gray, #616162)"/>
<path d="M12 2H13V4H12V2Z" fill="var(--mw-icon-glyph-content-gray, #616162)"/>
<path d="M12 11H13V13H12V11Z" fill="var(--mw-icon-glyph-content-gray, #616162)"/>
<path d="M2 2H3V4H2V2Z" fill="var(--mw-icon-glyph-content-gray, #616162)"/>
<path d="M2 11H3V13H2V11Z" fill="var(--mw-icon-glyph-content-gray, #616162)"/>
<path d="M5 12H7V13H5V12Z" fill="var(--mw-icon-glyph-content-gray, #616162)"/>
<path d="M8 12H10V13H8V12Z" fill="var(--mw-icon-glyph-content-gray, #616162)"/>
<path d="M5 2H7V3H5V2Z" fill="var(--mw-icon-glyph-content-gray, #616162)"/>
<path d="M8 2H10V3H8V2Z" fill="var(--mw-icon-glyph-content-gray, #616162)"/>
<path d="M11 2H13V3H11V2Z" fill="var(--mw-icon-glyph-content-gray, #616162)"/>
<path d="M11 12H13V13H11V12Z" fill="var(--mw-icon-glyph-content-gray, #616162)"/>
<path d="M2 2H4V3H2V2Z" fill="var(--mw-icon-glyph-content-gray, #616162)"/>
<path d="M2 12H4V13H2V12Z" fill="var(--mw-icon-glyph-content-gray, #616162)"/>
<path d="M18 8V10L22 7L18 4V6H14V8H18Z" fill="var(--mw-icon-glyph-content-gray, #616162)"/>
<path d="M0.5 2.5C0.5 1.39543 1.39543 0.5 2.5 0.5H21.5C22.6046 0.5 23.5 1.39543 23.5 2.5V21.5C23.5 22.6046 22.6046 23.5 21.5 23.5H2.5C1.39543 23.5 0.5 22.6046 0.5 21.5V2.5Z" stroke="var(--mw-icon-border-default-gray, #616161)" stroke-linejoin="round"/>
</svg>
