<svg width="24" height="24" viewBox="0 0 24 24" fill="none" xmlns="http://www.w3.org/2000/svg">
<path d="M1 23H23V12V1H1V12V23Z" fill="var(--mw-icon-background-default-white, #FFFFFF)"/>
<rect x="2" y="2" width="11" height="20" rx="0.5" fill="var(--mw-icon-background-light-yellow, #FFF5BC)"/>
<path d="M23.5 19.4545C22.3534 19.8026 21.1667 18.1511 20.4 14.5C19 7.83336 16.2 7.83336 14.8 14.5C13.4 21.1666 10.6 21.1666 9.2 14.5C7.8 7.83336 5 7.83332 3.6 14.5C2.83327 18.1511 1.64662 19.8026 0.5 19.4546" stroke="var(--mw-icon-glyph-content-yellow, #674C07)" stroke-linecap="round" stroke-linejoin="round"/>
<path d="M2 20H3V21H2V20Z" fill="var(--mw-icon-glyph-content-yellow, #674C07)"/>
<path d="M2 21H3V22H2V21Z" fill="var(--mw-icon-glyph-content-yellow, #674C07)"/>
<path d="M3 21H4V22H3V21Z" fill="var(--mw-icon-glyph-content-yellow, #674C07)"/>
<path d="M13 20H12V21H13V20Z" fill="var(--mw-icon-glyph-content-yellow, #674C07)"/>
<path d="M13 21H12V22H13V21Z" fill="var(--mw-icon-glyph-content-yellow, #674C07)"/>
<path d="M12 21H11V22H12V21Z" fill="var(--mw-icon-glyph-content-yellow, #674C07)"/>
<path d="M5 21H7V22H5V21Z" fill="var(--mw-icon-glyph-content-yellow, #674C07)"/>
<path d="M2 17H3V19H2V17Z" fill="var(--mw-icon-glyph-content-yellow, #674C07)"/>
<path d="M2 14H3V16H2V14Z" fill="var(--mw-icon-glyph-content-yellow, #674C07)"/>
<path d="M2 11H3V13H2V11Z" fill="var(--mw-icon-glyph-content-yellow, #674C07)"/>
<path d="M2 8H3V10H2V8Z" fill="var(--mw-icon-glyph-content-yellow, #674C07)"/>
<path d="M2 5H3V7H2V5Z" fill="var(--mw-icon-glyph-content-yellow, #674C07)"/>
<path d="M12 17H13V19H12V17Z" fill="var(--mw-icon-glyph-content-yellow, #674C07)"/>
<path d="M12 14H13V16H12V14Z" fill="var(--mw-icon-glyph-content-yellow, #674C07)"/>
<path d="M12 11H13V13H12V11Z" fill="var(--mw-icon-glyph-content-yellow, #674C07)"/>
<path d="M12 8H13V10H12V8Z" fill="var(--mw-icon-glyph-content-yellow, #674C07)"/>
<path d="M12 5H13V7H12V5Z" fill="var(--mw-icon-glyph-content-yellow, #674C07)"/>
<path d="M8 21H10V22H8V21Z" fill="var(--mw-icon-glyph-content-yellow, #674C07)"/>
<path d="M13 4H12V3H13V4Z" fill="var(--mw-icon-glyph-content-yellow, #674C07)"/>
<path d="M13 3H12V2H13V3Z" fill="var(--mw-icon-glyph-content-yellow, #674C07)"/>
<path d="M12 3H11V2H12V3Z" fill="var(--mw-icon-glyph-content-yellow, #674C07)"/>
<path d="M2 4H3V3H2V4Z" fill="var(--mw-icon-glyph-content-yellow, #674C07)"/>
<path d="M2 3H3V2H2V3Z" fill="var(--mw-icon-glyph-content-yellow, #674C07)"/>
<path d="M3 3H4V2H3V3Z" fill="var(--mw-icon-glyph-content-yellow, #674C07)"/>
<path d="M10 3H8V2H10V3Z" fill="var(--mw-icon-glyph-content-yellow, #674C07)"/>
<path d="M7 3H5V2H7V3Z" fill="var(--mw-icon-glyph-content-yellow, #674C07)"/>
<path d="M18 6V8L22 5L18 2V4H14V6H18Z" fill="var(--mw-icon-glyph-content-yellow, #674C07)"/>
<path d="M0.5 2.5C0.5 1.39543 1.39543 0.5 2.5 0.5H21.5C22.6046 0.5 23.5 1.39543 23.5 2.5V21.5C23.5 22.6046 22.6046 23.5 21.5 23.5H2.5C1.39543 23.5 0.5 22.6046 0.5 21.5V2.5Z" stroke="var(--mw-icon-border-default-gray, #616161)" stroke-linejoin="round"/>
</svg>
