<svg width="24" height="24" viewBox="0 0 24 24" fill="none" xmlns="http://www.w3.org/2000/svg">
<path d="M20.5 0.5H2.5C1.39543 0.5 0.5 1.39543 0.5 2.5V20.5C0.5 21.6046 1.39543 22.5 2.5 22.5H20.5C21.6046 22.5 22.5 21.6046 22.5 20.5V2.5C22.5 1.39543 21.6046 0.5 20.5 0.5Z" fill="var(--mw-icon-background-default-white, #FFFFFF)" stroke="var(--mw-icon-border-default-gray, #616161)" stroke-linejoin="round"/>
<path d="M13.6579 7.33333C12.7162 7.24778 11.8759 7.62889 11.6842 8.5C11.6842 8.76444 13.0193 8.88889 14.0526 8.88889C15.086 8.88889 15.6316 8.49222 15.6316 8.32111C15.6316 8.14222 15.1579 7.42667 13.6579 7.33333ZM7.34211 7.33333C5.84211 7.42667 5.36842 8.06444 5.36842 8.32111C5.36842 8.5 6.0057 8.88889 6.94737 8.88889C7.88904 8.88889 9.31579 8.76444 9.31579 8.5C9.12412 7.62889 8.18377 7.24778 7.34211 7.33333ZM14.625 12C13.0333 12 12 10.4444 10.5 10.4444C9 10.4444 7.875 12 6.375 12C4.40833 12 3 10.3356 3 7.36444C3 5.52889 3.56667 5 6.09167 5C8.61666 5 9.28333 5.77778 10.5 5.77778C11.7167 5.77778 12.4667 5 14.9083 5C17.35 5 18 5.61444 18 7.36444C18 10.3356 16.5917 12 14.625 12Z" fill="var(--mw-icon-glyph-disabled-gray, #888889)"/>
<path d="M15.6579 12.3333C14.7162 12.2478 13.8759 12.6289 13.6842 13.5C13.6842 13.7644 15.0193 13.8889 16.0526 13.8889C17.086 13.8889 17.6316 13.4922 17.6316 13.3211C17.6316 13.1422 17.1579 12.4267 15.6579 12.3333ZM9.34211 12.3333C7.84211 12.4267 7.36842 13.0644 7.36842 13.3211C7.36842 13.5 8.0057 13.8889 8.94737 13.8889C9.88904 13.8889 11.3158 13.7644 11.3158 13.5C11.1241 12.6289 10.1838 12.2478 9.34211 12.3333ZM16.625 17C15.0333 17 14 15.4444 12.5 15.4444C11 15.4444 9.875 17 8.375 17C6.40833 17 5 15.3356 5 12.3644C5 10.5289 5.56667 10 8.09167 10C10.6167 10 11.2833 10.7778 12.5 10.7778C13.7167 10.7778 14.4667 10 16.9083 10C19.35 10 20 10.6144 20 12.3644C20 15.3356 18.5917 17 16.625 17Z" fill="var(--mw-icon-glyph-content-dark-gray, #333333)"/>
</svg>
