<svg width="24" height="24" viewBox="0 0 24 24" fill="none" xmlns="http://www.w3.org/2000/svg">
<path d="M8.5 11.6743C8.5 11.0258 7.97424 10.5 7.32569 10.5H1.67431C1.02576 10.5 0.5 11.0258 0.5 11.6743V17.3257C0.5 17.9742 1.02576 18.5 1.67431 18.5H7.32569C7.97424 18.5 8.5 17.9742 8.5 17.3257V11.6743Z" stroke="var(--mw-icon-border-default-gray, #616161)"/>
<path d="M18.5 1.67431C18.5 1.02576 17.9742 0.5 17.3257 0.5H11.6743C11.0258 0.5 10.5 1.02576 10.5 1.67431V7.32569C10.5 7.97424 11.0258 8.5 11.6743 8.5H17.3257C17.9742 8.5 18.5 7.97424 18.5 7.32569V1.67431Z" stroke="var(--mw-icon-border-default-gray, #616161)"/>
<path d="M8.5 1.5C8.5 0.947715 8.05229 0.5 7.5 0.5H1.5C0.947715 0.5 0.5 0.947715 0.5 1.5V7.5C0.5 8.05228 0.947715 8.5 1.5 8.5H7.5C8.05229 8.5 8.5 8.05228 8.5 7.5V1.5Z" fill="var(--mw-icon-background-default-selection, #B4DEFF)" stroke="var(--mw-icon-borderColor-light-blue, #268CDD)"/>
<path d="M9.5 18.5V10.5C9.5 9.94772 9.94772 9.5 10.5 9.5H18.5C19.0523 9.5 19.5 9.94772 19.5 10.5V18.5C19.5 19.0523 19.0523 19.5 18.5 19.5H10.5C9.94772 19.5 9.5 19.0523 9.5 18.5Z" fill="var(--mw-icon-background-default-medium-gray, #D9D9D9)" stroke="var(--mw-icon-border-disabled-gray, #888888)"/>
<path d="M13.5 22.5V14.5C13.5 13.9477 13.9477 13.5 14.5 13.5H22.5C23.0523 13.5 23.5 13.9477 23.5 14.5V22.5C23.5 23.0523 23.0523 23.5 22.5 23.5H14.5C13.9477 23.5 13.5 23.0523 13.5 22.5Z" fill="var(--mw-icon-background-default-white, #FFFFFF)" stroke="var(--mw-icon-border-default-gray, #616161)"/>
</svg>
