<svg width="24" height="24" viewBox="0 0 24 24" fill="none" xmlns="http://www.w3.org/2000/svg">
<rect x="0.5" y="0.5" width="22" height="22" rx="2" fill="var(--mw-icon-background-default-white, #FFFFFF)" stroke="var(--mw-icon-border-default-gray, #616161)"/>
<path d="M1 22L11.5 11.5M11.5 0.5L22.5 11.5" stroke="#FF6929"/>
<path d="M7 6H10V11H7V6Z" fill="var(--mw-icon-glyph-content-light-blue, #278CDD)"/>
<path d="M3 3H6V11H3V3Z" fill="var(--mw-icon-glyph-content-light-blue, #278CDD)"/>
<path d="M17 14H20V22H17V14Z" fill="var(--mw-icon-glyph-content-light-blue, #278CDD)"/>
<path d="M13 17H16V22H13V17Z" fill="var(--mw-icon-glyph-content-light-blue, #278CDD)"/>
<path d="M3 3H6V11H3V3Z" fill="var(--mw-icon-glyph-content-light-blue, #278CDD)"/>
<path d="M9 16.5C9 16.7761 8.77614 17 8.5 17C8.22386 17 8 16.7761 8 16.5C8 16.2239 8.22386 16 8.5 16C8.77614 16 9 16.2239 9 16.5Z" fill="var(--mw-icon-glyph-content-light-blue, #278CDD)"/>
<path d="M3 17.5C3 17.7761 2.77614 18 2.5 18C2.22386 18 2 17.7761 2 17.5C2 17.2239 2.22386 17 2.5 17C2.77614 17 3 17.2239 3 17.5Z" fill="var(--mw-icon-glyph-content-light-blue, #278CDD)"/>
<path d="M5 17.5C5 17.7761 4.77614 18 4.5 18C4.22386 18 4 17.7761 4 17.5C4 17.2239 4.22386 17 4.5 17C4.77614 17 5 17.2239 5 17.5Z" fill="var(--mw-icon-glyph-content-light-blue, #278CDD)"/>
<path d="M6 16.5C6 16.7761 5.77614 17 5.5 17C5.22386 17 5 16.7761 5 16.5C5 16.2239 5.22386 16 5.5 16C5.77614 16 6 16.2239 6 16.5Z" fill="var(--mw-icon-glyph-content-light-blue, #278CDD)"/>
<path d="M9 18.5C9 18.7761 8.77614 19 8.5 19C8.22386 19 8 18.7761 8 18.5C8 18.2239 8.22386 18 8.5 18C8.77614 18 9 18.2239 9 18.5Z" fill="var(--mw-icon-glyph-content-light-blue, #278CDD)"/>
<path d="M7 17.5C7 17.2239 6.77614 17 6.5 17C6.22386 17 6 17.2239 6 17.5C6 17.7761 6.22386 18 6.5 18C6.77614 18 7 17.7761 7 17.5Z" fill="var(--mw-icon-glyph-content-light-blue, #278CDD)"/>
<path d="M9 16.5C9 16.7761 8.77614 17 8.5 17C8.22386 17 8 16.7761 8 16.5C8 16.2239 8.22386 16 8.5 16C8.77614 16 9 16.2239 9 16.5Z" fill="var(--mw-icon-glyph-content-light-blue, #278CDD)"/>
<path d="M8 14.5C8 14.7761 7.77614 15 7.5 15C7.22386 15 7 14.7761 7 14.5C7 14.2239 7.22386 14 7.5 14C7.77614 14 8 14.2239 8 14.5Z" fill="var(--mw-icon-glyph-content-light-blue, #278CDD)"/>
<path d="M4 15.5C4 15.7761 3.77614 16 3.5 16C3.22386 16 3 15.7761 3 15.5C3 15.2239 3.22386 15 3.5 15C3.77614 15 4 15.2239 4 15.5Z" fill="var(--mw-icon-glyph-content-light-blue, #278CDD)"/>
<path d="M6.5 15C6.5 15.2761 6.27614 15.5 6 15.5C5.72386 15.5 5.5 15.2761 5.5 15C5.5 14.7239 5.72386 14.5 6 14.5C6.27614 14.5 6.5 14.7239 6.5 15Z" fill="var(--mw-icon-glyph-content-light-blue, #278CDD)"/>
<path d="M7 19.5C7 19.7761 6.77614 20 6.5 20C6.22386 20 6 19.7761 6 19.5C6 19.2239 6.22386 19 6.5 19C6.77614 19 7 19.2239 7 19.5Z" fill="var(--mw-icon-glyph-content-light-blue, #278CDD)"/>
<path d="M17 2.5C17 2.77614 16.7761 3 16.5 3C16.2239 3 16 2.77614 16 2.5C16 2.22386 16.2239 2 16.5 2C16.7761 2 17 2.22386 17 2.5Z" fill="var(--mw-icon-glyph-content-light-blue, #278CDD)"/>
<path d="M17 4.5C17 4.77614 16.7761 5 16.5 5C16.2239 5 16 4.77614 16 4.5C16 4.22386 16.2239 4 16.5 4C16.7761 4 17 4.22386 17 4.5Z" fill="var(--mw-icon-glyph-content-light-blue, #278CDD)"/>
<path d="M17 6.5C17 6.77614 16.7761 7 16.5 7C16.2239 7 16 6.77614 16 6.5C16 6.22386 16.2239 6 16.5 6C16.7761 6 17 6.22386 17 6.5Z" fill="var(--mw-icon-glyph-content-light-blue, #278CDD)"/>
<path d="M18 5.5C18 5.77614 17.7761 6 17.5 6C17.2239 6 17 5.77614 17 5.5C17 5.22386 17.2239 5 17.5 5C17.7761 5 18 5.22386 18 5.5Z" fill="var(--mw-icon-glyph-content-light-blue, #278CDD)"/>
<path d="M20 4.5C20 4.77614 19.7761 5 19.5 5C19.2239 5 19 4.77614 19 4.5C19 4.22386 19.2239 4 19.5 4C19.7761 4 20 4.22386 20 4.5Z" fill="var(--mw-icon-glyph-content-light-blue, #278CDD)"/>
<path d="M19 7.5C19 7.77614 18.7761 8 18.5 8C18.2239 8 18 7.77614 18 7.5C18 7.22386 18.2239 7 18.5 7C18.7761 7 19 7.22386 19 7.5Z" fill="var(--mw-icon-glyph-content-light-blue, #278CDD)"/>
<path d="M17 8.5C17 8.77614 16.7761 9 16.5 9C16.2239 9 16 8.77614 16 8.5C16 8.22386 16.2239 8 16.5 8C16.7761 8 17 8.22386 17 8.5Z" fill="var(--mw-icon-glyph-content-light-blue, #278CDD)"/>
<path d="M16 5.5C16 5.77614 15.7761 6 15.5 6C15.2239 6 15 5.77614 15 5.5C15 5.22386 15.2239 5 15.5 5C15.7761 5 16 5.22386 16 5.5Z" fill="var(--mw-icon-glyph-content-light-blue, #278CDD)"/>
<path d="M21 7.5C21 7.77614 20.7761 8 20.5 8C20.2239 8 20 7.77614 20 7.5C20 7.22386 20.2239 7 20.5 7C20.7761 7 21 7.22386 21 7.5Z" fill="var(--mw-icon-glyph-content-light-blue, #278CDD)"/>
<path d="M20 6.5C20 6.77614 19.7761 7 19.5 7C19.2239 7 19 6.77614 19 6.5C19 6.22386 19.2239 6 19.5 6C19.7761 6 20 6.22386 20 6.5Z" fill="var(--mw-icon-glyph-content-light-blue, #278CDD)"/>
<path d="M20 9.5C20 9.77614 19.7761 10 19.5 10C19.2239 10 19 9.77614 19 9.5C19 9.22386 19.2239 9 19.5 9C19.7761 9 20 9.22386 20 9.5Z" fill="var(--mw-icon-glyph-content-light-blue, #278CDD)"/>
<path d="M15 7.5C15 7.77614 14.7761 8 14.5 8C14.2239 8 14 7.77614 14 7.5C14 7.22386 14.2239 7 14.5 7C14.7761 7 15 7.22386 15 7.5Z" fill="var(--mw-icon-glyph-content-light-blue, #278CDD)"/>
<path d="M14 3.5C14 3.77614 13.7761 4 13.5 4C13.2239 4 13 3.77614 13 3.5C13 3.22386 13.2239 3 13.5 3C13.7761 3 14 3.22386 14 3.5Z" fill="var(--mw-icon-glyph-content-light-blue, #278CDD)"/>
<path d="M5 19.5C5 19.7761 4.77614 20 4.5 20C4.22386 20 4 19.7761 4 19.5C4 19.2239 4.22386 19 4.5 19C4.77614 19 5 19.2239 5 19.5Z" fill="var(--mw-icon-glyph-content-light-blue, #278CDD)"/>
<path d="M10 15.5C10 15.7761 9.77614 16 9.5 16C9.22386 16 9 15.7761 9 15.5C9 15.2239 9.22386 15 9.5 15C9.77614 15 10 15.2239 10 15.5Z" fill="var(--mw-icon-glyph-content-light-blue, #278CDD)"/>
<path d="M3 19.5C3 19.7761 2.77614 20 2.5 20C2.22386 20 2 19.7761 2 19.5C2 19.2239 2.22386 19 2.5 19C2.77614 19 3 19.2239 3 19.5Z" fill="var(--mw-icon-glyph-content-light-blue, #278CDD)"/>
<path d="M9 13.5C9 13.7761 8.77614 14 8.5 14C8.22386 14 8 13.7761 8 13.5C8 13.2239 8.22386 13 8.5 13C8.77614 13 9 13.2239 9 13.5Z" fill="var(--mw-icon-glyph-content-light-blue, #278CDD)"/>
<path d="M1 11.5H11.5M11.5 11.5H22M11.5 11.5V1M11.5 11.5L11.5 22M2.5 22.5H20.5C21.6046 22.5 22.5 21.6046 22.5 20.5V2.5C22.5 1.39543 21.6046 0.5 20.5 0.5H2.5C1.39543 0.5 0.5 1.39543 0.5 2.5V20.5C0.5 21.6046 1.39543 22.5 2.5 22.5Z" stroke="var(--mw-icon-border-default-gray, #616161)"/>
</svg>
