<svg width="24" height="24" viewBox="0 0 24 24" fill="none" xmlns="http://www.w3.org/2000/svg">
<path d="M1 1H22V22H1V1Z" fill="var(--mw-icon-background-default-white, #FFFFFF)"/>
<line x1="0.5" y1="11.5" x2="22.5" y2="11.5" stroke="var(--mw-icon-border-default-gray, #616161)"/>
<path d="M0.5 17.5H22.5M0.5 5.5H22.5" stroke="#0072BD"/>
<path d="M2.5 4.5H3.5M3.5 4.5H4.5M3.5 4.5V3.5M3.5 4.5V11.5M6.5 7.5H7.5M7.5 7.5H8.5M7.5 7.5V6.5M7.5 7.5V11.5M14.5 15.5H15.5M15.5 15.5H16.5M15.5 15.5V11.5M15.5 15.5V16.5M18.5 17.5H19.5M19.5 17.5H20.5M19.5 17.5V11.5M19.5 17.5V18.5M10.5 11.5H11.5M11.5 11.5H12.5M11.5 11.5V10.5M11.5 11.5V12.5" stroke="#D95319" stroke-linecap="round"/>
<path d="M0.5 2.5C0.5 1.39543 1.39543 0.5 2.5 0.5H20.5C21.6046 0.5 22.5 1.39543 22.5 2.5V20.5C22.5 21.6046 21.6046 22.5 20.5 22.5H2.5C1.39543 22.5 0.5 21.6046 0.5 20.5V2.5Z" stroke="var(--mw-icon-border-default-gray, #616161)" stroke-linejoin="round"/>
</svg>
