<svg width="24" height="24" viewBox="0 0 24 24" fill="none" xmlns="http://www.w3.org/2000/svg">
<path d="M18.5 0.5H4.5C2.29086 0.5 0.5 2.29086 0.5 4.5V18.5C0.5 20.7091 2.29086 22.5 4.5 22.5H18.5C20.7091 22.5 22.5 20.7091 22.5 18.5V4.5C22.5 2.29086 20.7091 0.5 18.5 0.5Z" fill="var(--mw-icon-background-lightest-blue, #E2F0FF)" stroke="var(--mw-icon-border-default-blue, #1656A7)" stroke-linecap="round"/>
<path d="M9.27191 8.6885H10.4507C10.413 9.13458 10.2872 9.53231 10.0735 9.88168C9.85973 10.2279 9.55953 10.5009 9.17289 10.7005C8.78625 10.9002 8.31631 11 7.76306 11C7.3387 11 6.95678 10.9251 6.61729 10.7754C6.2778 10.6225 5.98703 10.4073 5.74499 10.1297C5.50295 9.84893 5.31749 9.51047 5.18861 9.11431C5.06287 8.71814 5 8.27518 5 7.78543V7.21925C5 6.7295 5.06444 6.28654 5.19332 5.89037C5.32534 5.49421 5.51395 5.15575 5.75914 4.875C6.00432 4.59113 6.29823 4.37433 6.64086 4.2246C6.98664 4.07487 7.37485 4 7.8055 4C8.35246 4 8.81454 4.09982 9.19175 4.29947C9.56896 4.49911 9.8613 4.77518 10.0688 5.12767C10.2794 5.48017 10.4083 5.88414 10.4554 6.33957H9.27662C9.24519 6.04635 9.17603 5.79523 9.06916 5.58623C8.96542 5.37723 8.81139 5.21814 8.60707 5.10896C8.40275 4.99666 8.13556 4.94051 7.8055 4.94051C7.53517 4.94051 7.29941 4.99042 7.09823 5.09024C6.89705 5.19006 6.72888 5.33668 6.59371 5.53008C6.45855 5.72348 6.35639 5.96212 6.28723 6.24599C6.22122 6.52674 6.18821 6.84804 6.18821 7.20989V7.78543C6.18821 8.12856 6.21807 8.44051 6.2778 8.72126C6.34067 8.99889 6.43497 9.23752 6.56071 9.43717C6.68959 9.63681 6.85305 9.79122 7.05108 9.9004C7.24912 10.0096 7.48644 10.0642 7.76306 10.0642C8.09941 10.0642 8.37132 10.0111 8.57878 9.90508C8.78939 9.79902 8.94813 9.64461 9.05501 9.44184C9.16503 9.23596 9.23733 8.98485 9.27191 8.6885Z" fill="var(--mw-icon-glyph-content-dark-blue, #104280)"/>
<path d="M17 7.31283V7.68717C17 8.20187 16.9324 8.66355 16.7972 9.07219C16.6621 9.48084 16.4688 9.82865 16.2173 10.1156C15.969 10.4026 15.6703 10.6225 15.3214 10.7754C14.9725 10.9251 14.5859 11 14.1615 11C13.7403 11 13.3552 10.9251 13.0063 10.7754C12.6605 10.6225 12.3603 10.4026 12.1057 10.1156C11.8511 9.82865 11.653 9.48084 11.5116 9.07219C11.3733 8.66355 11.3041 8.20187 11.3041 7.68717V7.31283C11.3041 6.79813 11.3733 6.33801 11.5116 5.93249C11.6499 5.52384 11.8448 5.17602 12.0963 4.88904C12.3509 4.59893 12.6511 4.37901 12.9969 4.22928C13.3458 4.07643 13.7308 4 14.1521 4C14.5764 4 14.9631 4.07643 15.312 4.22928C15.6609 4.37901 15.9611 4.59893 16.2126 4.88904C16.464 5.17602 16.6574 5.52384 16.7925 5.93249C16.9308 6.33801 17 6.79813 17 7.31283ZM15.8165 7.68717V7.30348C15.8165 6.92291 15.7788 6.58757 15.7033 6.29746C15.631 6.00423 15.5226 5.75936 15.378 5.56283C15.2365 5.36319 15.0621 5.21346 14.8546 5.11364C14.6472 5.0107 14.413 4.95922 14.1521 4.95922C13.8912 4.95922 13.6585 5.0107 13.4542 5.11364C13.2499 5.21346 13.0754 5.36319 12.9308 5.56283C12.7894 5.75936 12.6809 6.00423 12.6055 6.29746C12.5301 6.58757 12.4923 6.92291 12.4923 7.30348V7.68717C12.4923 8.06774 12.5301 8.40463 12.6055 8.69786C12.6809 8.99109 12.791 9.23908 12.9356 9.44184C13.0833 9.64149 13.2593 9.79278 13.4637 9.89572C13.668 9.99554 13.9006 10.0455 14.1615 10.0455C14.4255 10.0455 14.6597 9.99554 14.864 9.89572C15.0684 9.79278 15.2413 9.64149 15.3827 9.44184C15.5242 9.23908 15.631 8.99109 15.7033 8.69786C15.7788 8.40463 15.8165 8.06774 15.8165 7.68717Z" fill="var(--mw-icon-glyph-content-dark-blue, #104280)"/>
<path d="M7.71568 17.1517C7.71568 17.0114 7.69501 16.8866 7.65368 16.7774C7.61529 16.6682 7.54591 16.5684 7.44553 16.4779C7.34514 16.3875 7.20342 16.3001 7.02037 16.2159C6.84027 16.1286 6.60998 16.0397 6.3295 15.9492C6.02244 15.8494 5.739 15.7386 5.47919 15.617C5.22232 15.4922 4.99793 15.3487 4.80602 15.1865C4.61411 15.0212 4.46501 14.8324 4.35872 14.6203C4.25244 14.4051 4.19929 14.1571 4.19929 13.8763C4.19929 13.5987 4.25391 13.346 4.36315 13.1183C4.47535 12.8906 4.6333 12.6941 4.83702 12.5287C5.0437 12.3603 5.28727 12.2308 5.56776 12.1404C5.84824 12.0468 6.15825 12 6.49779 12C6.97608 12 7.38795 12.0936 7.73339 12.2807C8.08178 12.4679 8.34898 12.719 8.53499 13.0341C8.72394 13.3492 8.81842 13.697 8.81842 14.0775H7.71568C7.71568 13.8529 7.66991 13.6549 7.57839 13.4833C7.48981 13.3086 7.354 13.1713 7.17095 13.0715C6.99085 12.9717 6.76203 12.9218 6.4845 12.9218C6.22173 12.9218 6.00325 12.9639 5.82905 13.0481C5.65486 13.1324 5.52495 13.2462 5.43933 13.3897C5.35371 13.5332 5.31089 13.6954 5.31089 13.8763C5.31089 14.0042 5.33894 14.1212 5.39504 14.2273C5.45114 14.3302 5.53676 14.4269 5.6519 14.5174C5.76705 14.6047 5.91172 14.6874 6.08592 14.7654C6.26011 14.8434 6.46531 14.9182 6.70151 14.99C7.05875 15.1023 7.37024 15.227 7.63596 15.3643C7.90168 15.4984 8.12312 15.6513 8.30027 15.8229C8.47741 15.9944 8.61027 16.1894 8.69885 16.4078C8.78742 16.623 8.83171 16.8679 8.83171 17.1424C8.83171 17.4294 8.77709 17.6883 8.66785 17.9191C8.55861 18.1468 8.40213 18.3418 8.19841 18.504C7.99764 18.6631 7.75554 18.7863 7.4721 18.8737C7.19162 18.9579 6.87865 19 6.53322 19C6.22321 19 5.91763 18.9563 5.61647 18.869C5.31828 18.7816 5.04665 18.6491 4.80159 18.4713C4.55654 18.2903 4.36168 18.0657 4.21701 17.7975C4.07234 17.5261 4 17.2094 4 16.8476H5.1116C5.1116 17.0691 5.14703 17.2578 5.21789 17.4138C5.2917 17.5697 5.39356 17.6976 5.52347 17.7975C5.65338 17.8942 5.80396 17.9659 5.9752 18.0127C6.14939 18.0595 6.3354 18.0829 6.53322 18.0829C6.79303 18.0829 7.01004 18.0439 7.18423 17.9659C7.36138 17.8879 7.49424 17.7787 7.58282 17.6384C7.67139 17.498 7.71568 17.3358 7.71568 17.1517Z" fill="var(--mw-icon-glyph-content-dark-blue, #104280)"/>
<path d="M11.0018 12.0936V18.9064H9.89017V12.0936H11.0018Z" fill="var(--mw-icon-glyph-content-dark-blue, #104280)"/>
<path d="M12.8353 12.0936H13.8273L15.6918 17.3483L17.5518 12.0936H18.5438L16.0815 18.9064H15.2932L12.8353 12.0936ZM12.3835 12.0936H13.3268L13.4907 16.6417V18.9064H12.3835V12.0936ZM18.0523 12.0936H19V18.9064H17.8884V16.6417L18.0523 12.0936Z" fill="var(--mw-icon-glyph-content-dark-blue, #104280)"/>
</svg>
