<svg width="24" height="24" viewBox="0 0 24 24" fill="none" xmlns="http://www.w3.org/2000/svg">
<path d="M0.5 18.5V4.5C0.5 2.29086 2.29086 0.5 4.5 0.5H18.5C20.7091 0.5 22.5 2.29086 22.5 4.5V18.5C22.5 20.7091 20.7091 22.5 18.5 22.5H4.5C2.29086 22.5 0.5 20.7091 0.5 18.5Z" fill="var(--mw-icon-background-default-selection, #B4DEFF)"/>
<path d="M0.5 18.5V4.5C0.5 2.29086 2.29086 0.5 4.5 0.5H18.5C20.7091 0.5 22.5 2.29086 22.5 4.5V18.5C22.5 20.7091 20.7091 22.5 18.5 22.5H4.5C2.29086 22.5 0.5 20.7091 0.5 18.5Z" stroke="var(--mw-icon-border-default-blue, #1656A7)" stroke-linecap="round"/>
<path d="M3.5 16.5L3.5 18.5M5.5 16.5V18.5" stroke="var(--mw-icon-glyph-content-blue, #1656A8)" stroke-linecap="round" stroke-linejoin="round"/>
<path d="M1 4.5H22" stroke="var(--mw-icon-border-default-blue, #1656A7)"/>
<path d="M11.5 4.5V1" stroke="var(--mw-icon-border-default-blue, #1656A7)"/>
<path d="M12.4811 11.648H13.9899C13.9596 12.1062 13.8234 12.513 13.5812 12.8684C13.3423 13.2238 13.0076 13.5012 12.577 13.7007C12.1497 13.9002 11.635 14 11.0328 14C10.5618 14 10.1396 13.9252 9.76619 13.7756C9.39277 13.6228 9.07317 13.4046 8.8074 13.1209C8.545 12.8372 8.34483 12.4943 8.2069 12.0922C8.06897 11.69 8 11.2396 8 10.7408V10.2685C8 9.76976 8.07065 9.31931 8.21194 8.91717C8.3566 8.51191 8.56182 8.16745 8.82759 7.88377C9.09672 7.60009 9.418 7.38187 9.79142 7.22912C10.1648 7.07637 10.582 7 11.0429 7C11.6552 7 12.1716 7.10287 12.5921 7.30862C13.016 7.51436 13.344 7.79804 13.5761 8.15965C13.8116 8.52126 13.9529 8.93275 14 9.39412H12.4861C12.4693 9.1198 12.4104 8.88755 12.3095 8.69739C12.2086 8.50412 12.0555 8.35916 11.8503 8.26253C11.6484 8.16277 11.3793 8.11289 11.0429 8.11289C10.7906 8.11289 10.5702 8.15654 10.3818 8.24382C10.1934 8.33111 10.0353 8.46359 9.90749 8.64128C9.77965 8.81897 9.68377 9.04342 9.61985 9.31463C9.55929 9.58272 9.52902 9.89757 9.52902 10.2592V10.7408C9.52902 11.0931 9.55761 11.4033 9.6148 11.6713C9.67199 11.9363 9.75946 12.1608 9.87721 12.3447C9.99832 12.5255 10.1531 12.6627 10.3415 12.7562C10.5332 12.8466 10.7637 12.8918 11.0328 12.8918C11.349 12.8918 11.6098 12.845 11.815 12.7515C12.0202 12.658 12.1766 12.5193 12.2843 12.3353C12.3953 12.1514 12.4609 11.9223 12.4811 11.648Z" fill="var(--mw-icon-glyph-content-blue, #1656A8)"/>
</svg>
