<svg width="24" height="24" viewBox="0 0 24 24" fill="none" xmlns="http://www.w3.org/2000/svg">
<path d="M20.5 0.5H2.5C1.39543 0.5 0.5 1.39543 0.5 2.5V20.5C0.5 21.6046 1.39543 22.5 2.5 22.5H20.5C21.6046 22.5 22.5 21.6046 22.5 20.5V2.5C22.5 1.39543 21.6046 0.5 20.5 0.5Z" fill="var(--mw-icon-background-default-white, #FFFFFF)" stroke="var(--mw-icon-border-default-gray, #616161)" stroke-linecap="round"/>
<circle cx="19" cy="3" r="1" fill="var(--mw-icon-glyph-content-green, #008014)"/>
<circle cx="18" cy="5" r="1" fill="var(--mw-icon-glyph-content-green, #008014)"/>
<circle cx="20" cy="5" r="1" fill="var(--mw-icon-glyph-content-green, #008014)"/>
<circle cx="19" cy="7" r="1" fill="var(--mw-icon-glyph-content-green, #008014)"/>
<circle cx="17" cy="3" r="1" fill="var(--mw-icon-glyph-content-green, #008014)"/>
<circle cx="16" cy="5" r="1" fill="var(--mw-icon-glyph-content-green, #008014)"/>
<circle cx="17" cy="7" r="1" fill="var(--mw-icon-glyph-content-green, #008014)"/>
<path d="M13.5 9.5L9.5 13.5M9.5 13.5V10.5M9.5 13.5H12.5" stroke="var(--mw-icon-glyph-content-gray, #616162)" stroke-linecap="round" stroke-linejoin="round"/>
<circle cx="6" cy="16" r="1" fill="var(--mw-icon-glyph-content-light-blue, #278CDD)"/>
<circle cx="5" cy="18" r="1" fill="var(--mw-icon-glyph-content-light-blue, #278CDD)"/>
<circle cx="7" cy="18" r="1" fill="var(--mw-icon-glyph-content-light-blue, #278CDD)"/>
<circle cx="6" cy="20" r="1" fill="var(--mw-icon-glyph-content-light-blue, #278CDD)"/>
<circle cx="4" cy="16" r="1" fill="var(--mw-icon-glyph-content-light-blue, #278CDD)"/>
<circle cx="3" cy="18" r="1" fill="var(--mw-icon-glyph-content-light-blue, #278CDD)"/>
<circle cx="4" cy="20" r="1" fill="var(--mw-icon-glyph-content-light-blue, #278CDD)"/>
</svg>
