<svg width="24" height="24" viewBox="0 0 24 24" fill="none" xmlns="http://www.w3.org/2000/svg">
<path d="M11.5 0.5V22.5M0.5 11.5H22.5" stroke="#FECDED" stroke-linecap="round"/>
<rect x="8.5" y="8.5" width="6" height="6" rx="3" stroke="#FECDED"/>
<rect x="3.5" y="3.5" width="16" height="16" rx="8" stroke="#FECDED"/>
<rect x="0.5" y="0.5" width="22" height="22" rx="11" stroke="#FECDED"/>
<path d="M20.5 3.5H2.5C1.39543 3.5 0.5 4.39543 0.5 5.5V17.5C0.5 18.6046 1.39543 19.5 2.5 19.5H20.5C21.6046 19.5 22.5 18.6046 22.5 17.5V5.5C22.5 4.39543 21.6046 3.5 20.5 3.5Z" stroke="#F267C5" stroke-linecap="round"/>
<path d="M17.5 0.5H5.5C4.39543 0.5 3.5 1.39543 3.5 2.5V20.5C3.5 21.6046 4.39543 22.5 5.5 22.5H17.5C18.6046 22.5 19.5 21.6046 19.5 20.5V2.5C19.5 1.39543 18.6046 0.5 17.5 0.5Z" stroke="#F267C5" stroke-linecap="round"/>
<rect x="0.5" y="0.5" width="22" height="22" rx="2" stroke="#F267C5"/>
<path d="M0.5 18.5V4.5C0.5 2.29086 2.29086 0.5 4.5 0.5H18.5C20.7091 0.5 22.5 2.29086 22.5 4.5V18.5C22.5 20.7091 20.7091 22.5 18.5 22.5H4.5C2.29086 22.5 0.5 20.7091 0.5 18.5Z" fill="var(--mw-icon-background-default-white, #FFFFFF)"/>
<path d="M0.5 20.5V2.5C0.5 1.39543 1.39543 0.5 2.5 0.5H20.5C21.6046 0.5 22.5 1.39543 22.5 2.5V20.5C22.5 21.6046 21.6046 22.5 20.5 22.5H2.5C1.39543 22.5 0.5 21.6046 0.5 20.5Z" stroke="#B7312C" stroke-linecap="round"/>
<path d="M4 18C4.5 12.5 7.6 3.80002 18 5.00002" stroke="#0072BD"/>
<circle cx="6" cy="11" r="1.5" fill="white" stroke="#D95319"/>
<circle cx="11" cy="6" r="1.5" fill="white" stroke="#D95319"/>
<circle cx="18" cy="5" r="1.5" fill="white" stroke="#D95319"/>
<circle cx="4" cy="18" r="1.5" fill="white" stroke="#D95319"/>
<path d="M9.5 16.5H12.5V19.5H16.5V16.5H19.5V12.5H16.5V9.5H12.5V12.5H9.5V16.5Z" fill="var(--mw-icon-background-medium-yellow, #FFEF91)" stroke="#674C06"/>
</svg>
