<svg width="24" height="24" viewBox="0 0 24 24" fill="none" xmlns="http://www.w3.org/2000/svg">
<path d="M17 1H6V23H17V1Z" fill="var(--mw-icon-background-default-medium-gray, #D9D9D9)"/>
<path d="M17 22H22V11.5V1H17V11.5V22Z" fill="var(--mw-icon-background-default-white, #FFFFFF)"/>
<path d="M1 22H6V11.5V1H1V11.5V22Z" fill="white"/>
<path d="M6.5 13.5135C8.07892 18.887 9.65783 18.0492 11.2367 11C12.9912 3.16726 14.7456 3.0035 16.5 10.5087" stroke="#0072BD"/>
<path d="M17 1H16V23H17V1Z" fill="var(--mw-icon-glyph-content-gray, #616162)"/>
<path d="M6 23H7V1H6V23Z" fill="var(--mw-icon-glyph-content-gray, #616162)"/>
<path d="M19 11V12H17V11H19Z" fill="var(--mw-icon-glyph-content-gray, #616162)"/>
<path d="M19 9L22 11.5L19 14V9Z" fill="var(--mw-icon-glyph-content-gray, #616162)"/>
<path d="M6 11V12H4V11H6Z" fill="var(--mw-icon-glyph-content-gray, #616162)"/>
<path d="M4 14L1 11.5L4 9V14Z" fill="var(--mw-icon-glyph-content-gray, #616162)"/>
<path d="M0.5 2.5C0.5 1.39543 1.39543 0.5 2.5 0.5H20.5C21.6046 0.5 22.5 1.39543 22.5 2.5V20.5C22.5 21.6046 21.6046 22.5 20.5 22.5H2.5C1.39543 22.5 0.5 21.6046 0.5 20.5V2.5Z" stroke="var(--mw-icon-border-default-gray, #616161)" stroke-linejoin="round"/>
</svg>
