<svg width="24" height="24" viewBox="0 0 24 24" fill="none" xmlns="http://www.w3.org/2000/svg">
<path d="M9.5 17.5L0.999998 17.5C0.723857 17.5 0.5 17.2761 0.5 17V5.63849C0.5 5.54787 0.524629 5.45895 0.571254 5.38124L3.35435 0.742752C3.44471 0.592149 3.60746 0.5 3.7831 0.5H8.2169C8.39254 0.5 8.55529 0.59215 8.64565 0.742752L11.4287 5.38124C11.4754 5.45895 11.5 5.54787 11.5 5.63849V9.5" stroke="var(--mw-icon-object-primary, #616160)" stroke-linejoin="round"/>
<path d="M7.26958 12.1374H4.72139L4.18825 14H3L5.48494 6H6.51054L9 14H7.80723L7.26958 12.1374ZM5.04217 11.0165H6.9488L5.99548 7.6978L5.04217 11.0165Z" fill="var(--mw-icon-object-primary, #616160)"/>
<path d="M7 3C7 3.55228 6.55228 4 6 4C5.44772 4 5 3.55228 5 3C5 2.44772 5.44772 2 6 2C6.55228 2 7 2.44772 7 3Z" fill="var(--mw-icon-object-primary, #616160)"/>
<path d="M9.5 11.5C9.5 10.3954 10.3954 9.5 11.5 9.5H21.5C22.6046 9.5 23.5 10.3954 23.5 11.5V21.5C23.5 22.6046 22.6046 23.5 21.5 23.5H11.5C10.3954 23.5 9.5 22.6046 9.5 21.5V11.5Z" stroke="var(--mw-icon-object-primary, #616160)"/>
<path d="M17 16.5C17 16.7761 16.7761 17 16.5 17C16.2239 17 16 16.7761 16 16.5C16 16.2239 16.2239 16 16.5 16C16.7761 16 17 16.2239 17 16.5Z" fill="var(--mw-icon-object-primary, #616160)"/>
<path fill-rule="evenodd" clip-rule="evenodd" d="M16.5 11C16.7761 11 17 11.2239 17 11.5V14.5C17 14.7761 16.7761 15 16.5 15C16.2239 15 16 14.7761 16 14.5V11.5C16 11.2239 16.2239 11 16.5 11ZM11 16.5C11 16.2239 11.2239 16 11.5 16H14.5C14.7761 16 15 16.2239 15 16.5C15 16.7761 14.7761 17 14.5 17H11.5C11.2239 17 11 16.7761 11 16.5ZM18 16.5C18 16.2239 18.2239 16 18.5 16H21.5C21.7761 16 22 16.2239 22 16.5C22 16.7761 21.7761 17 21.5 17H18.5C18.2239 17 18 16.7761 18 16.5ZM16.5 18C16.7761 18 17 18.2239 17 18.5V21.5C17 21.7761 16.7761 22 16.5 22C16.2239 22 16 21.7761 16 21.5V18.5C16 18.2239 16.2239 18 16.5 18Z" fill="var(--mw-icon-object-primary, #616160)"/>
</svg>
