<svg width="24" height="24" viewBox="0 0 24 24" fill="none" xmlns="http://www.w3.org/2000/svg">
<path d="M13.8892 13.3901H15.895C15.8823 14.0841 15.7448 14.6724 15.4824 15.1548C15.2201 15.6372 14.8477 16.0033 14.3652 16.2529C13.8828 16.4984 13.3115 16.6211 12.6514 16.6211C12.1266 16.6211 11.6611 16.5322 11.2549 16.3545C10.8486 16.1725 10.5037 15.9102 10.2202 15.5674C9.94092 15.2246 9.72933 14.8035 9.58545 14.3042C9.4458 13.8048 9.37598 13.2336 9.37598 12.5903V11.1558C9.37598 10.5168 9.45215 9.94548 9.60449 9.44189C9.75684 8.93831 9.97266 8.51514 10.252 8.17236C10.5355 7.82536 10.8804 7.56299 11.2866 7.38525C11.6929 7.20752 12.1478 7.11865 12.6514 7.11865C13.3411 7.11865 13.9209 7.24772 14.3906 7.50586C14.8604 7.764 15.2222 8.13851 15.4761 8.62939C15.73 9.12028 15.8739 9.71484 15.9077 10.4131H13.8955C13.8997 9.98991 13.8617 9.65983 13.7812 9.42285C13.7051 9.18164 13.576 9.01237 13.394 8.91504C13.2121 8.81348 12.9645 8.7627 12.6514 8.7627C12.4271 8.7627 12.2345 8.80501 12.0737 8.88965C11.9129 8.97005 11.7839 9.10335 11.6865 9.28955C11.5892 9.47575 11.5173 9.72119 11.4707 10.0259C11.4242 10.3306 11.4009 10.703 11.4009 11.1431V12.5903C11.4009 13.0304 11.4199 13.4028 11.458 13.7075C11.4961 14.008 11.5617 14.2534 11.6548 14.4438C11.7479 14.63 11.8748 14.7655 12.0356 14.8501C12.1965 14.9347 12.4017 14.9771 12.6514 14.9771C12.9307 14.9771 13.1613 14.9347 13.3433 14.8501C13.5252 14.7612 13.6606 14.6025 13.7495 14.374C13.8426 14.1455 13.8892 13.8175 13.8892 13.3901Z" fill="var(--mw-icon-glyph-content-light-blue, #278CDD)"/>
<path fill-rule="evenodd" clip-rule="evenodd" d="M17.2471 15.78L17.5586 13.5779H16.5864V12.6218H17.6939L17.9021 11.1501H16.9248V10.1941H18.0374L18.3535 7.95972H19.3311L19.0149 10.1941H19.6541L19.9702 7.95972H20.9531L20.637 10.1941H21.6245V11.1501H20.5017L20.2935 12.6218H21.2808V13.5779H20.1582L19.8467 15.78H18.8638L19.1753 13.5779H18.5362L18.2246 15.78H17.2471ZM19.3106 12.6218H18.6714L18.8797 11.1501H19.5188L19.3106 12.6218Z" fill="var(--mw-icon-glyph-content-light-blue, #278CDD)"/>
</svg>
