<svg width="24" height="24" viewBox="0 0 24 24" fill="none" xmlns="http://www.w3.org/2000/svg">
<path d="M7.5 2.5L7.5 21.5C7.5 22.0523 7.94772 22.5 8.5 22.5L22.5 22.5C23.0523 22.5 23.5 22.0523 23.5 21.5L23.5 6.41421C23.5 6.149 23.3946 5.89464 23.2071 5.70711L19.2929 1.79289C19.1054 1.60536 18.851 1.5 18.5858 1.5L8.5 1.5C7.94771 1.5 7.5 1.94772 7.5 2.5Z" fill="var(--mw-icon-background-default-white, #FFFFFF)" stroke="var(--mw-icon-border-default-gray, #616161)"/>
<path d="M16.5239 15L17.4907 8.60156H18.2158L17.249 15H16.5239ZM17.9126 15L18.8794 8.60156H19.6045L18.6377 15H17.9126ZM20.0967 11.1548H16.2515V10.4297H20.0967V11.1548ZM19.8154 13.1982H15.9746V12.4731H19.8154V13.1982Z" fill="var(--mw-icon-glyph-content-gray, #616162)"/>
<path d="M14.1069 12.8906H15.2803C15.2598 13.3623 15.1631 13.7622 14.9902 14.0903C14.8203 14.4155 14.5757 14.6631 14.2563 14.833C13.9399 15.0029 13.5547 15.0879 13.1006 15.0879C12.7549 15.0879 12.4458 15.0278 12.1733 14.9077C11.9009 14.7847 11.6694 14.6074 11.479 14.376C11.2915 14.1445 11.1479 13.8604 11.0483 13.5234C10.9517 13.1836 10.9033 12.7954 10.9033 12.3589V11.2471C10.9033 10.8105 10.9546 10.4224 11.0571 10.0825C11.1597 9.74268 11.3062 9.45557 11.4966 9.22119C11.6899 8.98682 11.9243 8.80957 12.1997 8.68945C12.4751 8.56934 12.7856 8.50928 13.1313 8.50928C13.5884 8.50928 13.9707 8.5957 14.2783 8.76855C14.5859 8.94141 14.8232 9.19482 14.9902 9.52881C15.1572 9.85986 15.2554 10.2642 15.2847 10.7417H14.1113C14.0996 10.4312 14.0615 10.1851 13.9971 10.0034C13.9326 9.81885 13.8315 9.68701 13.6938 9.60791C13.5562 9.52881 13.3687 9.48926 13.1313 9.48926C12.9468 9.48926 12.7871 9.52295 12.6523 9.59033C12.5176 9.65771 12.4077 9.76318 12.3228 9.90674C12.2378 10.0474 12.1748 10.2275 12.1338 10.4473C12.0928 10.667 12.0723 10.9307 12.0723 11.2383V12.3589C12.0723 12.6548 12.0898 12.9126 12.125 13.1323C12.1602 13.3521 12.2158 13.5352 12.292 13.6816C12.3711 13.8252 12.4766 13.9336 12.6084 14.0068C12.7402 14.0771 12.9043 14.1123 13.1006 14.1123C13.3379 14.1123 13.5269 14.0771 13.6675 14.0068C13.8081 13.9336 13.9121 13.8091 13.9795 13.6333C14.0498 13.4546 14.0923 13.207 14.1069 12.8906Z" fill="var(--mw-icon-glyph-content-gray, #616162)"/>
</svg>
