<svg width="24" height="24" viewBox="0 0 24 24" fill="none" xmlns="http://www.w3.org/2000/svg">
<path d="M21.5 0.5H1.5C0.947715 0.5 0.5 0.947716 0.5 1.5V21.5C0.5 22.0523 0.947716 22.5 1.5 22.5H21.5C22.0523 22.5 22.5 22.0523 22.5 21.5V1.5C22.5 0.947715 22.0523 0.5 21.5 0.5Z" fill="var(--mw-icon-glyph-content-gray, #616162)" stroke="var(--mw-icon-border-disabled-gray, #888888)" stroke-linecap="round"/>
<path d="M8.5 17.5C9.27531 18.7374 9 22 9 22H15C15 22 14.7135 20.1668 15 18C15.3306 15.4999 17.5 10.5 17.5 10.5L18.5 8.5C19.5 6.5 19 5.5 18.5 5.5C18 5.5 17.5 6.50001 17.5 6.50001C17 8 15.3113 10.1201 15 10C14.5768 9.8367 15.3213 8.03617 16 6C16.5 4.5 16.0156 3.5 15.5 3.5C14.7753 3.5 14.6404 4.82887 14.5 5.5C14.0718 7.54755 12.7074 9.57389 12.5 9.50001C12.1618 9.37955 12.5 5.7742 12.5 3.5C12.5 2.5 12.1355 1.49992 11.5 1.5C10.7013 1.5001 10.5 2.5 10.5 3.5C10.5 6.12845 10.8256 9.50001 10.4375 9.50001C10.0354 9.50001 9 5 9 5C9 5 8.51559 3 8 3C7.45304 3 7 4 7.5 5.5C8 7 8.18479 13.1848 8 13C7.5 12.5 5.01559 9.00001 4.5 8.50001C4.5 8.50001 3.99332 8.02274 3.5 8.50001C3.00668 8.97728 3.5 9.50001 3.5 9.50001C3.5 9.50001 5.92713 13.3937 8.5 17.5Z" fill="var(--mw-icon-background-red, #FF9D9A)"/>
<path d="M18.5 6.5L14.5 15.5M10.5 15.5L8 4M12.5 15.5L15.5 4.5M11.5 15.5V2.5M8.5 15.5L4.5 9.5" stroke="var(--mw-icon-background-default-white, #FFFFFF)" stroke-linecap="round" stroke-linejoin="round" stroke-dasharray="2 2"/>
<path d="M9.5 21V19C9.5 18.7239 9.72386 18.5 10 18.5H11.5657C11.9651 18.5 12.2033 18.9451 11.9818 19.2773L10.6484 21.2774C10.5557 21.4164 10.3996 21.5 10.2324 21.5H10C9.72386 21.5 9.5 21.2761 9.5 21Z" fill="var(--mw-icon-background-default-white, #FFFFFF)"/>
<path d="M13.386 21.1581L12.7194 19.1581C12.6114 18.8343 12.8524 18.5 13.1937 18.5H14C14.2761 18.5 14.5 18.7239 14.5 19V21C14.5 21.2761 14.2761 21.5 14 21.5H13.8604C13.6452 21.5 13.4541 21.3623 13.386 21.1581Z" fill="white"/>
<path d="M9.85355 17.8536L9.35355 17.3536C9.03857 17.0386 9.26165 16.5 9.70711 16.5H14.2929C14.7383 16.5 14.9614 17.0386 14.6464 17.3536L14.1464 17.8536C14.0527 17.9473 13.9255 18 13.7929 18H10.2071C10.0745 18 9.94732 17.9473 9.85355 17.8536Z" fill="white"/>
</svg>
