<svg width="24" height="24" viewBox="0 0 24 24" fill="none" xmlns="http://www.w3.org/2000/svg">
<path d="M21.5 0.5H1.5C0.947715 0.5 0.5 0.947716 0.5 1.5V21.5C0.5 22.0523 0.947716 22.5 1.5 22.5H21.5C22.0523 22.5 22.5 22.0523 22.5 21.5V1.5C22.5 0.947715 22.0523 0.5 21.5 0.5Z" fill="var(--mw-icon-glyph-content-gray, #616162)" stroke="var(--mw-icon-border-disabled-gray, #888888)" stroke-linecap="round"/>
<path d="M11.5 2.5V9.5M11.5 9.5L8.5 12.5M11.5 9.5L14.5 12.5" stroke="var(--mw-icon-background-default-white, #FFFFFF)" stroke-linecap="round"/>
<path d="M14 18.2929V6.75827C14 6.39931 14.367 6.1573 14.697 6.2987L19.1818 8.22075C20.2848 8.69349 21 9.7781 21 10.9782V18.2929C21 18.7383 20.4614 18.9614 20.1464 18.6464L20.0456 18.5456C18.6397 17.1397 16.3603 17.1397 14.9544 18.5456L14.8536 18.6464C14.5386 18.9614 14 18.7383 14 18.2929Z" fill="var(--mw-icon-background-red, #FF9D9A)"/>
<path d="M2 18.2929V10.9782C2 9.7781 2.71519 8.69349 3.81824 8.22075L8.30304 6.2987C8.63297 6.1573 9 6.39931 9 6.75827V18.2929C9 18.7383 8.46143 18.9614 8.14645 18.6464L8.04558 18.5456C6.6397 17.1397 4.3603 17.1397 2.95442 18.5456L2.85355 18.6464C2.53857 18.9614 2 18.7383 2 18.2929Z" fill="var(--mw-icon-background-red, #FF9D9A)"/>
</svg>
