<svg width="24" height="24" viewBox="0 0 24 24" fill="none" xmlns="http://www.w3.org/2000/svg">
<path d="M0.5 2.5C0.5 1.39543 1.39543 0.5 2.5 0.5H20.5C21.6046 0.5 22.5 1.39543 22.5 2.5V20.5C22.5 21.6046 21.6046 22.5 20.5 22.5H2.5C1.39543 22.5 0.5 21.6046 0.5 20.5V2.5Z" fill="var(--mw-icon-background-default-white, #FFFFFF)" stroke="var(--mw-icon-border-default-gray, #616161)"/>
<path d="M3.32716 14H19.6728C19.8534 14 19.9998 13.8508 19.9998 13.6667V10.3333C19.9998 10.1492 19.8534 10 19.6728 10H3.32716C3.14661 10 3.00024 10.1492 3.00024 10.3333V13.6667C3.00024 13.8508 3.14661 14 3.32716 14Z" fill="var(--mw-icon-glyph-content-dark-blue, #104280)"/>
<path d="M13.9999 10H11.0001L9.00012 14H11.9999L13.9999 10Z" fill="#E11B14"/>
<path d="M13.9999 14L15.9999 10H13.9999L11.9999 14H13.9999Z" fill="#FF6929"/>
<path d="M9.00012 10L7.00012 14H9.00012L11.0001 10H9.00012Z" fill="#FF6929"/>
<path d="M16.9998 10L14.9998 14H13.9999L15.9999 10H16.9998Z" fill="#FFD60A"/>
<path d="M5.99976 14L7.99976 10H9.00012L7.00012 14H5.99976Z" fill="#FFD60A"/>
<path d="M17.9998 10L15.9998 14H14.9998L16.9998 10H17.9998Z" fill="#ABC739"/>
<path d="M4.99976 14L6.99976 10H7.99969L5.99969 14H4.99976Z" fill="#ABC739"/>
<path d="M17.7095 14L19.6202 10H17.7095L15.7988 14H17.7095Z" fill="#35D2FA"/>
<path d="M5.2901 10L3.37939 14H5.2901L7.2008 10H5.2901Z" fill="#35D2FA"/>
</svg>
