<svg width="24" height="24" viewBox="0 0 24 24" fill="none" xmlns="http://www.w3.org/2000/svg">
<path d="M0.5 18.5V4.5C0.5 2.29086 2.29086 0.5 4.5 0.5H18.5C20.7091 0.5 22.5 2.29086 22.5 4.5V18.5C22.5 20.7091 20.7091 22.5 18.5 22.5H4.5C2.29086 22.5 0.5 20.7091 0.5 18.5Z" fill="var(--mw-icon-background-default-white, white)"/>
<path d="M10 20C10.5523 20 11 19.5523 11 19C11 18.4477 10.5523 18 10 18C9.44772 18 9 18.4477 9 19C9 19.5523 9.44772 20 10 20Z" fill="var(--mw-icon-glyph-content-dark-blue, #104280)"/>
<path d="M17 17C17.5523 17 18 16.5523 18 16C18 15.4477 17.5523 15 17 15C16.4477 15 16 15.4477 16 16C16 16.5523 16.4477 17 17 17Z" fill="var(--mw-icon-glyph-content-dark-blue, #104280)"/>
<path d="M19 10C19.5523 10 20 9.55228 20 9C20 8.44772 19.5523 8 19 8C18.4477 8 18 8.44772 18 9C18 9.55228 18.4477 10 19 10Z" fill="var(--mw-icon-glyph-content-dark-blue, #104280)"/>
<path d="M11 12C11.5523 12 12 11.5523 12 11C12 10.4477 11.5523 10 11 10C10.4477 10 10 10.4477 10 11C10 11.5523 10.4477 12 11 12Z" fill="var(--mw-icon-glyph-content-dark-blue, #104280)"/>
<path d="M4 13C4.55228 13 5 12.5523 5 12C5 11.4477 4.55228 11 4 11C3.44772 11 3 11.4477 3 12C3 12.5523 3.44772 13 4 13Z" fill="var(--mw-icon-glyph-content-dark-blue, #104280)"/>
<path d="M15 5C15.5523 5 16 4.55228 16 4C16 3.44772 15.5523 3 15 3C14.4477 3 14 3.44772 14 4C14 4.55228 14.4477 5 15 5Z" fill="var(--mw-icon-glyph-content-dark-blue, #104280)"/>
<path d="M19 4C17.3413 7.48588 15.1482 10.6912 12.5 13.5C9.88512 16.0248 6.83632 18.0573 3.5 19.5" stroke="#FF453A" stroke-linecap="round"/>
<path d="M0.5 18.5V4.5C0.5 2.29086 2.29086 0.5 4.5 0.5H18.5C20.7091 0.5 22.5 2.29086 22.5 4.5V18.5C22.5 20.7091 20.7091 22.5 18.5 22.5H4.5C2.29086 22.5 0.5 20.7091 0.5 18.5Z" stroke="#B7312C" stroke-linecap="round"/>

</svg>
