<svg width="24" height="24" viewBox="0 0 24 24" fill="none" xmlns="http://www.w3.org/2000/svg">
<path d="M0.5 21.5V1.5C0.5 0.947715 0.947716 0.5 1.5 0.5H21.5C22.0523 0.5 22.5 0.947716 22.5 1.5V21.5C22.5 22.0523 22.0523 22.5 21.5 22.5H1.5C0.947715 22.5 0.5 22.0523 0.5 21.5Z" fill="var(--mw-icon-background-default-white, #FFFFFF)" stroke="var(--mw-icon-border-default-gray, #616161)"/>
<path fill-rule="evenodd" clip-rule="evenodd" d="M11.5 10.2638L4 3V4.16916C4 5.33725 4.02655 5.79225 4.76701 6.71429L9.96597 11.7495L6.72777 14.8857L8.64531 16L11.5 13.2352L14.3547 16L16.2722 14.8857L13.034 11.7495L18.233 6.71429C18.9734 5.79225 19 5.33725 19 4.16916V3L11.5 10.2638ZM11.5 12C11.7761 12 12 11.7761 12 11.5C12 11.2239 11.7761 11 11.5 11C11.2239 11 11 11.2239 11 11.5C11 11.7761 11.2239 12 11.5 12Z" fill="var(--mw-icon-glyph-content-gray, #616162)"/>
<path d="M8.5 17.5C8.5 19.1569 7.15685 20.5 5.5 20.5C3.84315 20.5 2.5 19.1569 2.5 17.5C2.5 15.8431 3.84315 14.5 5.5 14.5C7.15685 14.5 8.5 15.8431 8.5 17.5Z" stroke="var(--mw-icon-glyph-content-gray, #616162)"/>
<path d="M20.5 17.5C20.5 19.1569 19.1569 20.5 17.5 20.5C15.8431 20.5 14.5 19.1569 14.5 17.5C14.5 15.8431 15.8431 14.5 17.5 14.5C19.1569 14.5 20.5 15.8431 20.5 17.5Z" stroke="var(--mw-icon-glyph-content-gray, #616162)"/>
<path d="M11 7H12V9H11V7Z" fill="var(--mw-icon-glyph-disabled-gray, #888889)"/>
<path d="M11 1H12V3H11V1Z" fill="var(--mw-icon-glyph-disabled-gray, #888889)"/>
<path d="M11 4H12V6H11V4Z" fill="var(--mw-icon-glyph-disabled-gray, #888889)"/>
</svg>
