<svg width="24" height="24" viewBox="0 0 24 24" fill="none" xmlns="http://www.w3.org/2000/svg">
<path d="M0.5 5.5H22.5V21.5C22.5 22.6046 21.6046 23.5 20.5 23.5H2.5C1.39543 23.5 0.5 22.6046 0.5 21.5V5.5Z" fill="var(--mw-icon-background-default-white, #FFFFFF)" stroke="var(--mw-icon-border-default-gray, #616161)"/>
<path d="M0.5 2.5C0.5 1.39543 1.39543 0.5 2.5 0.5H20.5C21.6046 0.5 22.5 1.39543 22.5 2.5V5.5H0.5V2.5Z" fill="var(--mw-icon-background-default-selection, #B4DEFF)" stroke="var(--mw-icon-border-default-blue, #1656A7)"/>
<path d="M13.207 15.1699H14.959C14.9238 15.7441 14.7656 16.2539 14.4844 16.6992C14.207 17.1445 13.8184 17.4922 13.3184 17.7422C12.8223 17.9922 12.2246 18.1172 11.5254 18.1172C10.9785 18.1172 10.4883 18.0234 10.0547 17.8359C9.62109 17.6445 9.25 17.3711 8.94141 17.0156C8.63672 16.6602 8.4043 16.2305 8.24414 15.7266C8.08398 15.2227 8.00391 14.6582 8.00391 14.0332V13.4414C8.00391 12.8164 8.08594 12.252 8.25 11.748C8.41797 11.2402 8.65625 10.8086 8.96484 10.4531C9.27734 10.0977 9.65039 9.82422 10.084 9.63281C10.5176 9.44141 11.002 9.3457 11.5371 9.3457C12.248 9.3457 12.8477 9.47461 13.3359 9.73242C13.8281 9.99023 14.209 10.3457 14.4785 10.7988C14.752 11.252 14.916 11.7676 14.9707 12.3457H13.2129C13.1934 12.002 13.125 11.7109 13.0078 11.4727C12.8906 11.2305 12.7129 11.0488 12.4746 10.9277C12.2402 10.8027 11.9277 10.7402 11.5371 10.7402C11.2441 10.7402 10.9883 10.7949 10.7695 10.9043C10.5508 11.0137 10.3672 11.1797 10.2188 11.4023C10.0703 11.625 9.95898 11.9062 9.88477 12.2461C9.81445 12.582 9.7793 12.9766 9.7793 13.4297V14.0332C9.7793 14.4746 9.8125 14.8633 9.87891 15.1992C9.94531 15.5312 10.0469 15.8125 10.1836 16.043C10.3242 16.2695 10.5039 16.4414 10.7227 16.5586C10.9453 16.6719 11.2129 16.7285 11.5254 16.7285C11.8926 16.7285 12.1953 16.6699 12.4336 16.5527C12.6719 16.4355 12.8535 16.2617 12.9785 16.0312C13.1074 15.8008 13.1836 15.5137 13.207 15.1699Z" fill="var(--mw-icon-border-default-gray, #616161)"/>
</svg>
