<svg width="24" height="24" viewBox="0 0 24 24" fill="none" xmlns="http://www.w3.org/2000/svg">
<rect x="0.5" y="0.5" width="22" height="22" rx="2" fill="var(--mw-icon-background-default-white, #FFFFFF)"/>
<path d="M14.5 11.5L1 1H22V22H1L14.5 11.5Z" fill="var(--mw-icon-background-medium-yellow, #FFEF91)"/>
<path d="M1.5 1.5L14.5 11.5L1.5 21.5" stroke="var(--mw-icon-glyph-content-yellow, #674C07)" stroke-linecap="square" stroke-linejoin="round"/>
<rect x="0.5" y="0.5" width="22" height="22" rx="2" stroke="var(--mw-icon-border-default-gray, #616161)"/>
<path d="M5.5 10.5L6.5 11.5M6.5 11.5L7.5 12.5M6.5 11.5L7.5 10.5M6.5 11.5L5.5 12.5" stroke="#1171BE" stroke-linecap="round"/>
<path d="M15.5 4.5L16.5 5.5M16.5 5.5L17.5 6.5M16.5 5.5L17.5 4.5M16.5 5.5L15.5 6.5" stroke="#1171BE" stroke-linecap="round"/>
<path d="M15.5 16.5L16.5 17.5M16.5 17.5L17.5 18.5M16.5 17.5L17.5 16.5M16.5 17.5L15.5 18.5" stroke="#1171BE" stroke-linecap="round"/>
</svg>
