<svg width="24" height="24" viewBox="0 0 24 24" fill="none" xmlns="http://www.w3.org/2000/svg">
<path d="M0.5 2.5C0.5 1.39543 1.39543 0.5 2.5 0.5H20.5C21.6046 0.5 22.5 1.39543 22.5 2.5V20.5C22.5 21.6046 21.6046 22.5 20.5 22.5H2.5C1.39543 22.5 0.5 21.6046 0.5 20.5V2.5Z" fill="var(--mw-icon-background-lightest-blue, #E2F0FF)" stroke="var(--mw-icon-border-default-blue, #1656A7)" stroke-linejoin="round"/>
<path d="M14 6C14 5.44772 13.5523 5 13 5H10C9.44772 5 9 5.44772 9 6V22H14V6Z" fill="var(--mw-icon-glyph-content-light-blue, #278CDD)"/>
<path d="M8 11C8 10.4477 7.55228 10 7 10H4C3.44772 10 3 10.4477 3 11V22H8V11Z" fill="var(--mw-icon-glyph-content-blue, #1656A8)"/>
<path d="M20 15C20 14.4477 19.5523 14 19 14H16C15.4477 14 15 14.4477 15 15V22H20V15Z" fill="var(--mw-icon-glyph-content-blue, #1656A8)"/>
</svg>
