<svg width="24" height="24" viewBox="0 0 24 24" fill="none" xmlns="http://www.w3.org/2000/svg">
<path d="M1.5 4.5H17.5V14.5C17.5 15.0523 17.0523 15.5 16.5 15.5H2.5C1.94772 15.5 1.5 15.0523 1.5 14.5V4.5Z" fill="var(--mw-icon-background-light-yellow, #FFF5BC)" stroke="#674C06"/>
<path d="M7.5 6.49997H11.5" stroke="var(--mw-icon-glyph-content-yellow, #674C07)" stroke-linecap="round"/>
<path d="M0.5 1C0.5 0.723858 0.723858 0.5 1 0.5H18C18.2761 0.5 18.5 0.723858 18.5 1V4.5H0.5V1Z" fill="var(--mw-icon-background-light-yellow, #FFF5BC)" stroke="#674C06" stroke-linejoin="round"/>
<path d="M7.5 12.5V9.5C7.5 8.94772 7.94772 8.5 8.5 8.5H22.5C23.0523 8.5 23.5 8.94772 23.5 9.5V12.5C23.5 13.0523 23.0523 13.5 22.5 13.5H8.5C7.94772 13.5 7.5 13.0523 7.5 12.5Z" fill="var(--mw-icon-background-default-light-gray, #F5F5F5)"/>
<path d="M7.5 17.5V14.5C7.5 13.9477 7.94772 13.5 8.5 13.5H22.5C23.0523 13.5 23.5 13.9477 23.5 14.5V17.5C23.5 18.0523 23.0523 18.5 22.5 18.5H8.5C7.94772 18.5 7.5 18.0523 7.5 17.5Z" fill="var(--mw-icon-background-default-light-gray, #F5F5F5)"/>
<path d="M7.5 22.5V19.5C7.5 18.9477 7.94772 18.5 8.5 18.5H22.5C23.0523 18.5 23.5 18.9477 23.5 19.5V22.5C23.5 23.0523 23.0523 23.5 22.5 23.5H8.5C7.94772 23.5 7.5 23.0523 7.5 22.5Z" fill="var(--mw-icon-background-default-light-gray, #F5F5F5)"/>
<path d="M22.5 13.5C23.0523 13.5 23.5 13.0523 23.5 12.5V9.5C23.5 8.94772 23.0523 8.5 22.5 8.5H8.5C7.94772 8.5 7.5 8.94772 7.5 9.5V12.5C7.5 13.0523 7.94772 13.5 8.5 13.5M22.5 13.5H8.5M22.5 13.5C23.0523 13.5 23.5 13.9477 23.5 14.5V17.5C23.5 18.0523 23.0523 18.5 22.5 18.5M8.5 13.5C7.94772 13.5 7.5 13.9477 7.5 14.5V17.5C7.5 18.0523 7.94772 18.5 8.5 18.5M22.5 18.5H8.5M22.5 18.5C23.0523 18.5 23.5 18.9477 23.5 19.5V22.5C23.5 23.0523 23.0523 23.5 22.5 23.5H8.5C7.94772 23.5 7.5 23.0523 7.5 22.5V19.5C7.5 18.9477 7.94772 18.5 8.5 18.5" stroke="var(--mw-icon-border-default-gray, #616161)"/>
<path d="M22 11C22 11.5523 21.5523 12 21 12C20.4477 12 20 11.5523 20 11C20 10.4477 20.4477 10 21 10C21.5523 10 22 10.4477 22 11Z" fill="var(--mw-icon-glyph-content-green, #008014)"/>
<path d="M19 11.5C19 11.7761 18.7761 12 18.5 12C18.2239 12 18 11.7761 18 11.5C18 11.2239 18.2239 11 18.5 11C18.7761 11 19 11.2239 19 11.5Z" fill="var(--mw-icon-border-default-gray, #616161)"/>
<path d="M17 11.5C17 11.7761 16.7761 12 16.5 12C16.2239 12 16 11.7761 16 11.5C16 11.2239 16.2239 11 16.5 11C16.7761 11 17 11.2239 17 11.5Z" fill="var(--mw-icon-border-default-gray, #616161)"/>
<path d="M22 16C22 16.5523 21.5523 17 21 17C20.4477 17 20 16.5523 20 16C20 15.4477 20.4477 15 21 15C21.5523 15 22 15.4477 22 16Z" fill="var(--mw-icon-glyph-content-green, #008014)"/>
<path d="M19 16.5C19 16.7761 18.7761 17 18.5 17C18.2239 17 18 16.7761 18 16.5C18 16.2239 18.2239 16 18.5 16C18.7761 16 19 16.2239 19 16.5Z" fill="var(--mw-icon-border-default-gray, #616161)"/>
<path d="M17 16.5C17 16.7761 16.7761 17 16.5 17C16.2239 17 16 16.7761 16 16.5C16 16.2239 16.2239 16 16.5 16C16.7761 16 17 16.2239 17 16.5Z" fill="var(--mw-icon-border-default-gray, #616161)"/>
<path d="M22 21C22 21.5523 21.5523 22 21 22C20.4477 22 20 21.5523 20 21C20 20.4477 20.4477 20 21 20C21.5523 20 22 20.4477 22 21Z" fill="var(--mw-icon-glyph-content-green, #008014)"/>
<path d="M19 21.5C19 21.7761 18.7761 22 18.5 22C18.2239 22 18 21.7761 18 21.5C18 21.2239 18.2239 21 18.5 21C18.7761 21 19 21.2239 19 21.5Z" fill="var(--mw-icon-border-default-gray, #616161)"/>
<path d="M17 21.5C17 21.7761 16.7761 22 16.5 22C16.2239 22 16 21.7761 16 21.5C16 21.2239 16.2239 21 16.5 21C16.7761 21 17 21.2239 17 21.5Z" fill="var(--mw-icon-border-default-gray, #616161)"/>
</svg>
