<svg width="24" height="24" viewBox="0 0 24 24" fill="none" xmlns="http://www.w3.org/2000/svg">
<path d="M1.5 3C1.5 2.72386 1.72386 2.5 2 2.5H9.17758C9.48617 2.5 9.77748 2.64247 9.96693 2.88606L11.6997 5.11394C11.8892 5.35753 12.1805 5.5 12.4891 5.5H22C22.2761 5.5 22.5 5.72386 22.5 6V20C22.5 20.2761 22.2761 20.5 22 20.5H2C1.72386 20.5 1.5 20.2761 1.5 20V3Z" fill="var(--mw-icon-background-default-white, #FFFFFF)" stroke="var(--mw-icon-border-default-gray, #616161)"/>
<path fill-rule="evenodd" clip-rule="evenodd" d="M12 10H15V13H12V10ZM11 10H8V13H11V10ZM8 14V17H11V14H8ZM12 17H15V14H12V17ZM7 9H8H15H16V10V17V18H15H8H7V17V10V9Z" fill="var(--mw-icon-glyph-content-gray, #616162)"/>
</svg>
