<svg width="24" height="24" viewBox="0 0 24 24" fill="none" xmlns="http://www.w3.org/2000/svg">
<path d="M1.5 3C1.5 2.72386 1.72386 2.5 2 2.5H9.17758C9.48617 2.5 9.77748 2.64247 9.96693 2.88606L11.6997 5.11394C11.8892 5.35753 12.1805 5.5 12.4891 5.5H22C22.2761 5.5 22.5 5.72386 22.5 6V20C22.5 20.2761 22.2761 20.5 22 20.5H2C1.72386 20.5 1.5 20.2761 1.5 20V3Z" fill="var(--mw-icon-background-default-white, #FFFFFF)" stroke="var(--mw-icon-border-default-gray, #616161)"/>
<path fill-rule="evenodd" clip-rule="evenodd" d="M13.0753 9.52526C13.2917 9.59214 13.4994 9.67866 13.6964 9.78276L14.9998 8.92878L16.0712 10.0002L15.2172 11.3036C15.3213 11.5006 15.4079 11.7083 15.4747 11.9247L17 12.2424V13.7576L15.4747 14.0753C15.4079 14.2917 15.3213 14.4994 15.2172 14.6964L16.0712 15.9998L14.9998 17.0712L13.6964 16.2172C13.4994 16.3213 13.2917 16.4079 13.0753 16.4747L12.7576 18H11.2424L10.9247 16.4747C10.7083 16.4079 10.5006 16.3213 10.3036 16.2172L9.00014 17.0712L7.92877 15.9998L8.78275 14.6964C8.67866 14.4994 8.59213 14.2917 8.52526 14.0753L7 13.7576V12.2424L8.52526 11.9247C8.59214 11.7083 8.67866 11.5006 8.78275 11.3036L7.92877 10.0002L9.00014 8.92878L10.3036 9.78276C10.5006 9.67867 10.7083 9.59214 10.9247 9.52526L11.2424 8H12.7576L13.0753 9.52526ZM12 15C13.1046 15 14 14.1046 14 13C14 11.8954 13.1046 11 12 11C10.8954 11 10 11.8954 10 13C10 14.1046 10.8954 15 12 15Z" fill="var(--mw-icon-glyph-content-gray, #616162)"/>
</svg>
