<svg width="24" height="24" viewBox="0 0 24 24" fill="none" xmlns="http://www.w3.org/2000/svg">
<path d="M0.5 18.5V4.5C0.5 2.29086 2.29086 0.5 4.5 0.5H18.5C20.7091 0.5 22.5 2.29086 22.5 4.5V18.5C22.5 20.7091 20.7091 22.5 18.5 22.5H4.5C2.29086 22.5 0.5 20.7091 0.5 18.5Z" fill="var(--mw-icon-background-default-white, white)"/>
<path d="M11 12L10 15.875L8 11L7.00001 18.875L4.50001 12.875L3.00001 16.875L0.5 4" stroke="#D95319"/>
<path d="M22.375 9.40624C20.2769 9.40624 21.5451 16.4941 19.5 16.5C17.2277 16.5 16.0981 2.5 14 2.5C12.7692 2.5 11.9657 8.09662 11 12" stroke="#0072BD" stroke-linecap="round"/>
<path d="M0.5 18.5V4.5C0.5 2.29086 2.29086 0.5 4.5 0.5H18.5C20.7091 0.5 22.5 2.29086 22.5 4.5V18.5C22.5 20.7091 20.7091 22.5 18.5 22.5H4.5C2.29086 22.5 0.5 20.7091 0.5 18.5Z" stroke="#B7312C" stroke-linecap="round"/>

</svg>
