<svg width="24" height="24" viewBox="0 0 24 24" fill="none" xmlns="http://www.w3.org/2000/svg">
<path d="M0.5 18.5V4.5C0.5 2.29086 2.29086 0.5 4.5 0.5H18.5C20.7091 0.5 22.5 2.29086 22.5 4.5V18.5C22.5 20.7091 20.7091 22.5 18.5 22.5H4.5C2.29086 22.5 0.5 20.7091 0.5 18.5Z" fill="#FFD60A"/>
<path fill-rule="evenodd" clip-rule="evenodd" d="M18.5962 8.66371C19.8734 9.28424 20.508 10.0988 20.4999 10.9121V14.3264C20.508 15.1397 19.8734 15.9542 18.5962 16.5748C16.0578 17.808 11.9422 17.808 9.40381 16.5748C8.13511 15.9584 7.50051 15.1506 7.5 14.3427C7.5 14.3424 7.5 14.3421 7.5 14.3418L7.5 10.8977C7.49949 10.0892 8.13409 9.28058 9.40381 8.66371C11.9422 7.43046 16.0578 7.43046 18.5962 8.66371Z" fill="#BFBFBF"/>
<path d="M20.4999 10.9121L19.9999 10.9071V10.9121H20.4999ZM18.5962 8.66371L18.8147 8.21398V8.21398L18.5962 8.66371ZM20.4999 14.3264H19.9999L19.9999 14.3314L20.4999 14.3264ZM18.5962 16.5748L18.8147 17.0245L18.5962 16.5748ZM9.40381 16.5748L9.6223 16.125L9.40381 16.5748ZM7.5 14.3427L7 14.343L7.5 14.3427ZM7.5 14.3418H8H7.5ZM7.5 10.8977H8L8 10.8974L7.5 10.8977ZM9.40381 8.66371L9.6223 9.11344L9.40381 8.66371ZM20.9999 10.917C21.0109 9.814 20.1577 8.86646 18.8147 8.21398L18.3777 9.11344C19.5892 9.70202 20.0051 10.3835 19.9999 10.9071L20.9999 10.917ZM20.9999 14.3264V10.9121H19.9999V14.3264H20.9999ZM18.8147 17.0245C20.1577 16.372 21.0109 15.4244 20.9999 14.3214L19.9999 14.3314C20.0052 14.8549 19.5892 15.5364 18.3777 16.125L18.8147 17.0245ZM9.18531 17.0245C10.5407 17.683 12.2839 17.9997 14 17.9997C15.7161 17.9997 17.4593 17.683 18.8147 17.0245L18.3777 16.125C17.1947 16.6998 15.6109 16.9997 14 16.9997C12.3891 16.9997 10.8053 16.6998 9.6223 16.125L9.18531 17.0245ZM7 14.343C7.00069 15.4373 7.851 16.3762 9.18531 17.0245L9.6223 16.125C8.41922 15.5405 8.00033 14.8638 8 14.3424L7 14.343ZM7 14.3418C7 14.3419 7 14.3419 7 14.3421C7 14.3423 7 14.3427 7 14.343L8 14.3424L8 14.3418H7ZM8 14.3418V10.8977H7L7 14.3418H8ZM9.18531 8.21398C7.84997 8.86274 6.99931 9.80266 7 10.898L8 10.8974C7.99967 10.3757 8.41822 9.69843 9.6223 9.11344L9.18531 8.21398ZM18.8147 8.21398C17.4593 7.55547 15.7161 7.23877 14 7.23877C12.2839 7.23877 10.5407 7.55547 9.18531 8.21398L9.6223 9.11344C10.8053 8.53869 12.3891 8.23877 14 8.23877C15.6109 8.23877 17.1947 8.53869 18.3777 9.11344L18.8147 8.21398Z" fill="var(--mw-icon-border-default-gray, #616161)"/>
<path fill-rule="evenodd" clip-rule="evenodd" d="M18.5962 5.79213C19.8735 6.4127 20.5081 7.2273 20.4999 8.04066V11.4546C20.5081 12.268 19.8735 13.0826 18.5962 13.7032C16.0578 14.9364 11.9422 14.9364 9.40381 13.7032C8.13564 13.087 7.50103 12.2797 7.5 11.4721V8.02711H7.5C7.49897 7.21826 8.13357 6.40926 9.40381 5.79213C11.9422 4.55887 16.0578 4.55887 18.5962 5.79213Z" fill="#BFBFBF"/>
<path d="M20.4999 8.04066L19.9999 8.03563V8.04066H20.4999ZM18.5962 5.79213L18.8147 5.3424V5.3424L18.5962 5.79213ZM20.4999 11.4546H19.9999L19.9999 11.4597L20.4999 11.4546ZM18.5962 13.7032L18.3777 13.2534L18.5962 13.7032ZM9.40381 13.7032L9.6223 13.2534L9.40381 13.7032ZM7.5 11.4721H7L7 11.4728L7.5 11.4721ZM7.5 8.02711V7.52711C7.22386 7.52711 7 7.75096 7 8.02711H7.5ZM7.5 8.02711V8.52711C7.63272 8.52711 7.76 8.47434 7.85378 8.38043C7.94757 8.28653 8.00017 8.15919 8 8.02647L7.5 8.02711ZM9.40381 5.79213L9.6223 6.24186L9.40381 5.79213ZM20.9999 8.04569C21.011 6.94257 20.1578 5.99493 18.8147 5.3424L18.3777 6.24186C19.5893 6.83048 20.0052 7.51204 19.9999 8.03563L20.9999 8.04569ZM20.9999 11.4546V8.04066H19.9999V11.4546H20.9999ZM18.8147 14.1529C20.1578 13.5004 21.011 12.5527 20.9999 11.4496L19.9999 11.4597C20.0052 11.9832 19.5893 12.6648 18.3777 13.2534L18.8147 14.1529ZM9.18531 14.1529C10.5407 14.8114 12.2839 15.1281 14 15.1281C15.7161 15.1281 17.4593 14.8114 18.8147 14.1529L18.3777 13.2534C17.1947 13.8282 15.6109 14.1281 14 14.1281C12.3891 14.1281 10.8053 13.8282 9.6223 13.2534L9.18531 14.1529ZM7 11.4728C7.0014 12.5665 7.85154 13.5049 9.18531 14.1529L9.6223 13.2534C8.41974 12.6692 8.00067 11.9928 8 11.4715L7 11.4728ZM8 11.4721V8.02711H7V11.4721H8ZM7.5 8.52711H7.5V7.52711H7.5V8.52711ZM9.18531 5.3424C7.84943 5.99142 6.9986 6.93187 7 8.02775L8 8.02647C7.99934 7.50465 8.41771 6.8271 9.6223 6.24186L9.18531 5.3424ZM18.8147 5.3424C17.4593 4.68389 15.7161 4.36719 14 4.36719C12.2839 4.36719 10.5407 4.68389 9.18531 5.3424L9.6223 6.24186C10.8053 5.66711 12.3891 5.36719 14 5.36719C15.6109 5.36719 17.1947 5.66711 18.3777 6.24186L18.8147 5.3424Z" fill="var(--mw-icon-border-default-gray, #616161)"/>
<path fill-rule="evenodd" clip-rule="evenodd" d="M17.7632 4.86794C18.0948 5.02904 18.4018 5.15949 18.6785 5.26898L18.7894 5.15507L20.4999 5.72924V8.58474C20.508 9.39804 19.8734 10.2126 18.5962 10.8331C16.0578 12.0664 11.9422 12.0664 9.40381 10.8331C8.1346 10.2165 7.5 9.40829 7.5 8.6001V5.72924L8.86842 5.15507L9.08508 5.22325C9.29117 5.13396 9.51814 5.04212 9.75922 4.94457L9.75922 4.94457C10.2243 4.75639 10.7418 4.54698 11.2632 4.2937C13.8016 3.06044 15.2248 3.63469 17.7632 4.86794Z" fill="#BFBFBF"/>
<path d="M18.6785 5.26898L18.4946 5.73393C18.6823 5.80816 18.8961 5.76231 19.0369 5.61769L18.6785 5.26898ZM17.7632 4.86794L17.9817 4.41821V4.41821L17.7632 4.86794ZM18.7894 5.15507L18.9485 4.68106C18.7663 4.61989 18.5651 4.6686 18.4311 4.80636L18.7894 5.15507ZM20.4999 5.72924H20.9999C20.9999 5.51441 20.8627 5.3236 20.659 5.25523L20.4999 5.72924ZM20.4999 8.58474H19.9999L19.9999 8.58971L20.4999 8.58474ZM18.5962 10.8331L18.8147 11.2828L18.5962 10.8331ZM9.40381 10.8331L9.18531 11.2828L9.40381 10.8331ZM7.5 8.6001H8H7.5ZM7.5 5.72924L7.30655 5.26818C7.12083 5.3461 7 5.52784 7 5.72924H7.5ZM8.86842 5.15507L9.01851 4.67813C8.90572 4.64263 8.784 4.64826 8.67497 4.69401L8.86842 5.15507ZM9.08508 5.22325L8.93499 5.70019C9.04967 5.73628 9.17352 5.72984 9.28384 5.68204L9.08508 5.22325ZM9.75922 4.94457L9.6011 4.47023C9.59118 4.47354 9.58137 4.47716 9.57167 4.48108L9.75922 4.94457ZM9.75922 4.94457L9.91733 5.41892C9.92725 5.41561 9.93707 5.41199 9.94676 5.40807L9.75922 4.94457ZM11.2632 4.2937L11.4817 4.74343H11.4817L11.2632 4.2937ZM18.8625 4.80404C18.5945 4.69806 18.2995 4.57262 17.9817 4.41821L17.5447 5.31768C17.89 5.48547 18.209 5.62093 18.4946 5.73393L18.8625 4.80404ZM18.4311 4.80636L18.3202 4.92027L19.0369 5.61769L19.1477 5.50378L18.4311 4.80636ZM20.659 5.25523L18.9485 4.68106L18.6303 5.62908L20.3408 6.20325L20.659 5.25523ZM20.9999 8.58474V5.72924H19.9999V8.58474H20.9999ZM18.8147 11.2828C20.1577 10.6304 21.0109 9.6828 20.9999 8.57976L19.9999 8.58971C20.0052 9.11329 19.5892 9.79479 18.3777 10.3834L18.8147 11.2828ZM9.18531 11.2828C10.5407 11.9413 12.2839 12.258 14 12.258C15.7161 12.258 17.4593 11.9413 18.8147 11.2828L18.3777 10.3834C17.1947 10.9581 15.6109 11.258 14 11.258C12.3891 11.258 10.8053 10.9581 9.6223 10.3834L9.18531 11.2828ZM7 8.6001C7 9.69492 7.85048 10.6343 9.18531 11.2828L9.6223 10.3834C8.41872 9.79863 8 9.12166 8 8.6001H7ZM8 8.6001V5.72924H7V8.6001H8ZM7.69345 6.1903L9.06188 5.61613L8.67497 4.69401L7.30655 5.26818L7.69345 6.1903ZM8.71833 5.63201L8.93499 5.70019L9.23517 4.74631L9.01851 4.67813L8.71833 5.63201ZM9.57167 4.48108C9.33199 4.57806 9.09906 4.67228 8.88631 4.76445L9.28384 5.68204C9.48328 5.59564 9.7043 5.50617 9.94676 5.40807L9.57167 4.48108ZM9.6011 4.47023L9.6011 4.47023L9.91733 5.41892L9.91733 5.41892L9.6011 4.47023ZM11.0447 3.84396C10.5408 4.08875 10.0385 4.29218 9.57167 4.48108L9.94676 5.40807C10.4101 5.2206 10.9428 5.00521 11.4817 4.74343L11.0447 3.84396ZM17.9817 4.41821C16.7233 3.80688 15.6645 3.31754 14.5849 3.16105C13.4739 3.00001 12.3822 3.19415 11.0447 3.84396L11.4817 4.74343C12.6826 4.15999 13.5716 4.02462 14.4414 4.15071C15.3426 4.28134 16.2646 4.69576 17.5447 5.31768L17.9817 4.41821Z" fill="var(--mw-icon-border-default-gray, #616161)"/>
<path d="M18.5962 3.43195C21.1346 4.67455 21.1346 6.6892 18.5962 7.93179C16.0578 9.17439 11.9422 9.17439 9.40381 7.93179C6.8654 6.6892 6.8654 4.67455 9.40381 3.43195C11.9422 2.18935 16.0578 2.18935 18.5962 3.43195Z" fill="var(--mw-icon-background-default-medium-gray, #D9D9D9)" stroke="var(--mw-icon-border-default-gray, #616161)"/>
<path d="M0.5 18.5V4.5C0.5 2.29086 2.29086 0.5 4.5 0.5H18.5C20.7091 0.5 22.5 2.29086 22.5 4.5V18.5C22.5 20.7091 20.7091 22.5 18.5 22.5H4.5C2.29086 22.5 0.5 20.7091 0.5 18.5Z" stroke="var(--mw-icon-border-default-gray, #616161)" stroke-linecap="round"/>
<path d="M12 20.5L8.25 16.75L9.75 15.25L13.5 19C13.9142 19.4142 13.9142 20.0858 13.5 20.5C13.0858 20.9142 12.4142 20.9142 12 20.5Z" fill="var(--mw-icon-background-default-light-gray, #F5F5F5)" stroke="var(--mw-icon-border-default-gray, #616161)"/>
<path d="M10.182 10.818C11.9394 12.5754 11.9393 15.4246 10.182 17.182C8.42457 18.9393 5.57533 18.9393 3.81799 17.182C2.06065 15.4246 2.06067 12.5754 3.81805 10.818C5.57543 9.06066 8.42467 9.06066 10.182 10.818Z" fill="var(--mw-icon-background-default-white, white)" stroke="var(--mw-icon-border-default-gray, #616161)"/>

</svg>
