<svg width="24" height="24" viewBox="0 0 24 24" fill="none" xmlns="http://www.w3.org/2000/svg">
<path d="M0.5 21.5V16.5C0.5 15.9477 0.947715 15.5 1.5 15.5H22.5C23.0523 15.5 23.5 15.9477 23.5 16.5V21.5C23.5 22.0523 23.0523 22.5 22.5 22.5H1.5C0.947715 22.5 0.5 22.0523 0.5 21.5Z" fill="var(--mw-icon-background-default-light-gray, #F5F5F5)" stroke="var(--mw-icon-border-default-gray, #616161)"/>
<path d="M22 19.5C22 20.3284 21.3284 21 20.5 21C19.6716 21 19 20.3284 19 19.5C19 18.6716 19.6716 18 20.5 18C21.3284 18 22 18.6716 22 19.5Z" fill="var(--mw-icon-glyph-content-green, #008014)"/>
<path d="M18 20C18 20.5523 17.5523 21 17 21C16.4477 21 16 20.5523 16 20C16 19.4477 16.4477 19 17 19C17.5523 19 18 19.4477 18 20Z" fill="var(--mw-icon-glyph-content-gray, #616162)"/>
<path d="M15 20C15 20.5523 14.5523 21 14 21C13.4477 21 13 20.5523 13 20C13 19.4477 13.4477 19 14 19C14.5523 19 15 19.4477 15 20Z" fill="var(--mw-icon-glyph-content-gray, #616162)"/>
<path d="M0.5 14.5V9.5C0.5 8.94772 0.947715 8.5 1.5 8.5H22.5C23.0523 8.5 23.5 8.94772 23.5 9.5V14.5C23.5 15.0523 23.0523 15.5 22.5 15.5H1.5C0.947715 15.5 0.5 15.0523 0.5 14.5Z" fill="var(--mw-icon-background-default-light-gray, #F5F5F5)" stroke="var(--mw-icon-border-default-gray, #616161)"/>
<path d="M22 12.5C22 13.3284 21.3284 14 20.5 14C19.6716 14 19 13.3284 19 12.5C19 11.6716 19.6716 11 20.5 11C21.3284 11 22 11.6716 22 12.5Z" fill="var(--mw-icon-glyph-content-green, #008014)"/>
<path d="M18 13C18 13.5523 17.5523 14 17 14C16.4477 14 16 13.5523 16 13C16 12.4477 16.4477 12 17 12C17.5523 12 18 12.4477 18 13Z" fill="var(--mw-icon-glyph-content-gray, #616162)"/>
<path d="M15 13C15 13.5523 14.5523 14 14 14C13.4477 14 13 13.5523 13 13C13 12.4477 13.4477 12 14 12C14.5523 12 15 12.4477 15 13Z" fill="var(--mw-icon-glyph-content-gray, #616162)"/>
<path d="M0.5 7.5V2.5C0.5 1.94772 0.947715 1.5 1.5 1.5H22.5C23.0523 1.5 23.5 1.94772 23.5 2.5V7.5C23.5 8.05228 23.0523 8.5 22.5 8.5H1.5C0.947715 8.5 0.5 8.05228 0.5 7.5Z" fill="var(--mw-icon-background-default-light-gray, #F5F5F5)" stroke="var(--mw-icon-border-default-gray, #616161)"/>
<path d="M22 5.5C22 6.32843 21.3284 7 20.5 7C19.6716 7 19 6.32843 19 5.5C19 4.67157 19.6716 4 20.5 4C21.3284 4 22 4.67157 22 5.5Z" fill="var(--mw-icon-glyph-content-green, #008014)"/>
<path d="M18 6C18 6.55228 17.5523 7 17 7C16.4477 7 16 6.55228 16 6C16 5.44772 16.4477 5 17 5C17.5523 5 18 5.44772 18 6Z" fill="var(--mw-icon-glyph-content-gray, #616162)"/>
<path d="M15 6C15 6.55228 14.5523 7 14 7C13.4477 7 13 6.55228 13 6C13 5.44772 13.4477 5 14 5C14.5523 5 15 5.44772 15 6Z" fill="var(--mw-icon-glyph-content-gray, #616162)"/>
</svg>
