<svg width="24" height="24" viewBox="0 0 24 24" fill="none" xmlns="http://www.w3.org/2000/svg">
<path d="M0.5 5.5H22.5V21.5C22.5 22.6046 21.6046 23.5 20.5 23.5H2.5C1.39543 23.5 0.5 22.6046 0.5 21.5V5.5Z" fill="var(--mw-icon-background-default-white, #FFFFFF)" stroke="var(--mw-icon-border-default-gray, #616161)"/>
<path d="M0.5 2.5C0.5 1.39543 1.39543 0.5 2.5 0.5H20.5C21.6046 0.5 22.5 1.39543 22.5 2.5V5.5H0.5V2.5Z" fill="var(--mw-icon-background-default-selection, #B4DEFF)" stroke="var(--mw-icon-border-default-blue, #1656A7)"/>
<path fill-rule="evenodd" clip-rule="evenodd" d="M6.05616 9.80092C6.70645 9.26453 7.53114 9 8.50729 9C9.52464 9 10.3575 9.24679 10.9684 9.7652C11.5791 10.2835 11.8678 10.9929 11.8678 11.861C11.8678 12.3141 11.7047 12.7482 11.3904 13.1596C11.1811 13.4374 10.9197 13.6691 10.6079 13.8535C10.9734 14.0269 11.276 14.2579 11.5108 14.5472C11.8564 14.9672 12.0216 15.4725 12.0216 16.0499C12.0216 16.9323 11.7031 17.6583 11.0416 18.1997C10.3841 18.7378 9.53265 19 8.51428 19C7.49876 19 6.64675 18.7478 5.98445 18.2287C5.32366 17.7067 5 17.0185 5 16.19V15.9519H6.87124V16.19C6.87124 16.6274 7.02564 16.9533 7.31225 17.1935C7.59825 17.4332 7.98823 17.5625 8.51428 17.5625C9.08297 17.5625 9.47506 17.4287 9.73742 17.193C10.0034 16.9541 10.1573 16.5939 10.1573 16.0754C10.1573 15.5817 9.99249 15.238 9.70084 15.0063C9.40631 14.7724 8.96179 14.6346 8.32344 14.6264H7.06852V13.1889H8.32316C8.8784 13.1809 9.28095 13.049 9.56556 12.8174C9.84964 12.5862 10.0036 12.2682 10.0036 11.8355C10.0036 11.3238 9.86313 10.9844 9.6326 10.7736C9.40667 10.5669 9.05006 10.4439 8.50729 10.4439C8.01346 10.4439 7.64547 10.5709 7.37223 10.8094C7.10215 11.0451 6.9551 11.3658 6.9551 11.7973V12.0354H5.09085V11.7973C5.09085 11.0042 5.41103 10.3327 6.05616 9.80092ZM16.4553 9.08276H17V18.8727H15.1288V11.1372L12.5221 12.0094V10.4281L16.4553 9.08276Z" fill="var(--mw-icon-glyph-content-gray, #616162)"/>
</svg>
