<svg width="24" height="24" viewBox="0 0 24 24" fill="none" xmlns="http://www.w3.org/2000/svg">
<path d="M20.5 0.5H2.5C1.39543 0.5 0.5 1.39543 0.5 2.5V20.5C0.5 21.6046 1.39543 22.5 2.5 22.5H20.5C21.6046 22.5 22.5 21.6046 22.5 20.5V2.5C22.5 1.39543 21.6046 0.5 20.5 0.5Z" fill="var(--mw-icon-background-default-white, #FFFFFF)"/>
<path d="M8.5 4.5L2.5 10.5M20.5 16.5L16.5 20.5M10.5 4.5L22.5 16.5M16.5 12.5L10.5 18.5M12.5 8.5L6.5 14.5" stroke="var(--mw-icon-glyph-content-gray, #616162)" stroke-linecap="round"/>
<path d="M8.5 2.5H10.5V4.5H8.5V2.5Z" fill="white"/>
<path d="M4.5 6.5H6.5V8.5H4.5V6.5Z" fill="white"/>
<path d="M0.5 10.5H2.5V12.5H0.5V10.5Z" fill="white"/>
<path d="M4.5 14.5H6.5V16.5H4.5V14.5Z" fill="white"/>
<path d="M12.5 14.5H14.5V16.5H12.5V14.5Z" fill="white"/>
<path d="M8.5 18.5H10.5V20.5H8.5V18.5Z" fill="white"/>
<path d="M20.5 14.5H22.5V16.5H20.5V14.5Z" fill="white"/>
<path d="M16.5 18.5H18.5V20.5H16.5V18.5Z" fill="white"/>
<path d="M8.5 10.5H10.5V12.5H8.5V10.5Z" fill="white"/>
<path d="M16.5 10.5H18.5V12.5H16.5V10.5Z" fill="white"/>
<path d="M12.5 6.5H14.5V8.5H12.5V6.5Z" fill="white"/>
<path d="M8.5 2.5H10.5V4.5H8.5V2.5Z" stroke="var(--mw-icon-glyph-content-gray, #616162)" stroke-linejoin="round"/>
<path d="M4.5 6.5H6.5V8.5H4.5V6.5Z" stroke="var(--mw-icon-glyph-content-gray, #616162)" stroke-linejoin="round"/>
<path d="M0.5 10.5H2.5V12.5H0.5V10.5Z" stroke="var(--mw-icon-glyph-content-gray, #616162)" stroke-linejoin="round"/>
<path d="M4.5 14.5H6.5V16.5H4.5V14.5Z" stroke="var(--mw-icon-glyph-content-gray, #616162)" stroke-linejoin="round"/>
<path d="M12.5 14.5H14.5V16.5H12.5V14.5Z" stroke="var(--mw-icon-glyph-content-gray, #616162)" stroke-linejoin="round"/>
<path d="M8.5 18.5H10.5V20.5H8.5V18.5Z" stroke="var(--mw-icon-glyph-content-gray, #616162)" stroke-linejoin="round"/>
<path d="M20.5 14.5H22.5V16.5H20.5V14.5Z" stroke="var(--mw-icon-glyph-content-gray, #616162)" stroke-linejoin="round"/>
<path d="M16.5 18.5H18.5V20.5H16.5V18.5Z" stroke="var(--mw-icon-glyph-content-gray, #616162)" stroke-linejoin="round"/>
<path d="M8.5 10.5H10.5V12.5H8.5V10.5Z" stroke="var(--mw-icon-glyph-content-gray, #616162)" stroke-linejoin="round"/>
<path d="M16.5 10.5H18.5V12.5H16.5V10.5Z" stroke="var(--mw-icon-glyph-content-gray, #616162)" stroke-linejoin="round"/>
<path d="M12.5 6.5H14.5V8.5H12.5V6.5Z" stroke="var(--mw-icon-glyph-content-gray, #616162)" stroke-linejoin="round"/>
<path d="M20.5 0.5H2.5C1.39543 0.5 0.5 1.39543 0.5 2.5V20.5C0.5 21.6046 1.39543 22.5 2.5 22.5H20.5C21.6046 22.5 22.5 21.6046 22.5 20.5V2.5C22.5 1.39543 21.6046 0.5 20.5 0.5Z" stroke="var(--mw-icon-border-default-gray, #616161)" stroke-linecap="round"/>
</svg>
