<svg width="24" height="24" viewBox="0 0 24 24" fill="none" xmlns="http://www.w3.org/2000/svg">
<path d="M0.5 18.5V4.5C0.5 2.29086 2.29086 0.5 4.5 0.5H18.5C20.7091 0.5 22.5 2.29086 22.5 4.5V18.5C22.5 20.7091 20.7091 22.5 18.5 22.5H4.5C2.29086 22.5 0.5 20.7091 0.5 18.5Z" fill="var(--mw-icon-background-default-white, white)"/>
<path d="M7.5 3.5L11.5 11.5M7.5 3.5L4.5 11.5M7.5 3.5L18.5 11.5M11.5 11.5L14.5 3.5M11.5 11.5L18.5 19.5M11.5 11.5L4.5 19.5M14.5 3.5L18.5 11.5M14.5 3.5L4.5 11.5M18.5 11.5V19.5M18.5 11.5L11.5 19.5L4.5 11.5M18.5 11.5L4.5 19.5M18.5 19.5L4.5 11.5M4.5 19.5V11.5" stroke="#FF453A" stroke-linecap="round" stroke-linejoin="round"/>
<rect x="13" y="2" width="3" height="3" rx="1" fill="var(--mw-icon-glyph-content-dark-blue, #104280)"/>
<rect x="10" y="10" width="3" height="3" rx="1" fill="var(--mw-icon-glyph-content-dark-blue, #104280)"/>
<rect x="10" y="18" width="3" height="3" rx="1" fill="var(--mw-icon-glyph-content-dark-blue, #104280)"/>
<rect x="17" y="18" width="3" height="3" rx="1" fill="var(--mw-icon-glyph-content-dark-blue, #104280)"/>
<rect x="3" y="18" width="3" height="3" rx="1" fill="var(--mw-icon-glyph-content-dark-blue, #104280)"/>
<rect x="6" y="2" width="3" height="3" rx="1" fill="var(--mw-icon-glyph-content-dark-blue, #104280)"/>
<rect x="17" y="10" width="3" height="3" rx="1" fill="var(--mw-icon-glyph-content-dark-blue, #104280)"/>
<rect x="3" y="10" width="3" height="3" rx="1" fill="var(--mw-icon-glyph-content-dark-blue, #104280)"/>
<path d="M0.5 18.5V4.5C0.5 2.29086 2.29086 0.5 4.5 0.5H18.5C20.7091 0.5 22.5 2.29086 22.5 4.5V18.5C22.5 20.7091 20.7091 22.5 18.5 22.5H4.5C2.29086 22.5 0.5 20.7091 0.5 18.5Z" stroke="#B7312C" stroke-linecap="round"/>

</svg>
