<svg width="24" height="24" viewBox="0 0 24 24" fill="none" xmlns="http://www.w3.org/2000/svg">
<path d="M21.5 23.5H2.5C1.39543 23.5 0.5 22.6046 0.5 21.5V16.5V2.5C0.5 1.39543 1.39543 0.5 2.5 0.5H11.5H21.5C22.6046 0.5 23.5 1.39543 23.5 2.5V21.5C23.5 22.6046 22.6046 23.5 21.5 23.5Z" fill="var(--mw-icon-background-default-white, #FFFFFF)"/>
<path d="M11.5 0.5H21.5C22.6046 0.5 23.5 1.39543 23.5 2.5V21.5C23.5 22.6046 22.6046 23.5 21.5 23.5H2.5C1.39543 23.5 0.5 22.6046 0.5 21.5V16.5M11.5 0.5H2.5C1.39543 0.5 0.5 1.39543 0.5 2.5V16.5M11.5 0.5V15.5C11.5 16.0523 11.0523 16.5 10.5 16.5H0.5" stroke="var(--mw-icon-border-default-gray, #616161)" stroke-linecap="square"/>
<path d="M18.5 19C18.5 18.7239 18.7239 18.5 19 18.5H21C21.2761 18.5 21.5 18.7239 21.5 19V21C21.5 21.2761 21.2761 21.5 21 21.5H19C18.7239 21.5 18.5 21.2761 18.5 21V19Z" fill="var(--mw-icon-background-red, #FF9D9A)" stroke="var(--mw-icon-glyph-content-red, #902623)"/>
<path d="M13.5 19C13.5 18.7239 13.7239 18.5 14 18.5H16C16.2761 18.5 16.5 18.7239 16.5 19V21C16.5 21.2761 16.2761 21.5 16 21.5H14C13.7239 21.5 13.5 21.2761 13.5 21V19Z" fill="var(--mw-icon-background-default-action, #CBFFBE)" stroke="var(--mw-icon-glyph-content-green, #008014)"/>
<path d="M16 12.5H22M16 15.5H20" stroke="var(--mw-icon-glyph-content-gray, #616162)"/>
<path d="M13 15.5C13 15.2239 13.2239 15 13.5 15H14.5C14.7761 15 15 15.2239 15 15.5V16.5C15 16.7761 14.7761 17 14.5 17H13.5C13.2239 17 13 16.7761 13 16.5V15.5Z" fill="var(--mw-icon-glyph-disabled-gray, #888889)"/>
<path d="M13 12.5C13 12.2239 13.2239 12 13.5 12H14.5C14.7761 12 15 12.2239 15 12.5V13.5C15 13.7761 14.7761 14 14.5 14H13.5C13.2239 14 13 13.7761 13 13.5V12.5Z" fill="var(--mw-icon-glyph-content-light-blue, #278CDD)"/>
<path d="M13.5 8C13.5 7.72386 13.7239 7.5 14 7.5H21C21.2761 7.5 21.5 7.72386 21.5 8V10C21.5 10.2761 21.2761 10.5 21 10.5H14C13.7239 10.5 13.5 10.2761 13.5 10V8Z" fill="var(--mw-icon-background-default-light-gray, #F5F5F5)"/>
<path d="M13.5 3C13.5 2.72386 13.7239 2.5 14 2.5H21C21.2761 2.5 21.5 2.72386 21.5 3V5C21.5 5.27614 21.2761 5.5 21 5.5H14C13.7239 5.5 13.5 5.27614 13.5 5V3Z" fill="var(--mw-icon-background-default-light-gray, #F5F5F5)"/>
<path d="M13.5 8C13.5 7.72386 13.7239 7.5 14 7.5H21C21.2761 7.5 21.5 7.72386 21.5 8V10C21.5 10.2761 21.2761 10.5 21 10.5H14C13.7239 10.5 13.5 10.2761 13.5 10V8Z" stroke="var(--mw-icon-glyph-content-gray, #616162)"/>
<path d="M13.5 3C13.5 2.72386 13.7239 2.5 14 2.5H21C21.2761 2.5 21.5 2.72386 21.5 3V5C21.5 5.27614 21.2761 5.5 21 5.5H14C13.7239 5.5 13.5 5.27614 13.5 5V3Z" stroke="var(--mw-icon-glyph-content-gray, #616162)"/>
<path d="M2.5 19C2.5 18.7239 2.72386 18.5 3 18.5H11C11.2761 18.5 11.5 18.7239 11.5 19V21C11.5 21.2761 11.2761 21.5 11 21.5H3C2.72386 21.5 2.5 21.2761 2.5 21V19Z" fill="var(--mw-icon-background-default-light-gray, #F5F5F5)" stroke="var(--mw-icon-glyph-content-gray, #616162)"/>
<path d="M3 2.5H10M2 14.5H7M2 6.5H10M2 4.5H10M2 12.5H10M2 8.5H10M2 10.5H10" stroke="var(--mw-icon-glyph-content-gray, #616162)"/>
</svg>
