<svg width="24" height="24" viewBox="0 0 24 24" fill="none" xmlns="http://www.w3.org/2000/svg">
<path d="M4.5 5V12M4.5 8.5H13.5V12" stroke="var(--mw-icon-object-primary, #616160)" stroke-linejoin="round"/>
<path d="M0.500017 1C0.500018 0.723861 0.723875 0.500005 1.00002 0.500005L5.99998 0.5C6.27612 0.5 6.49998 0.723858 6.49998 1V4.00001C6.49998 4.27615 6.27612 4.50001 5.99998 4.50001H1C0.723859 4.50001 0.500001 4.27615 0.500002 4L0.500017 1Z" fill="var(--mw-icon-background-medium-blue, #83CAFF)" stroke="var(--mw-icon-border-default-blue, #1656A7)"/>
<path d="M0.500017 1C0.500018 0.723861 0.723875 0.500005 1.00002 0.500005L7.99998 0.5C8.27612 0.5 8.49998 0.723858 8.49998 1V4.00001C8.49998 4.27615 8.27612 4.50001 7.99998 4.50001H1C0.723859 4.50001 0.500001 4.27615 0.500002 4L0.500017 1Z" fill="var(--mw-icon-background-medium-blue, #83CAFF)"/>
<path d="M1.50002 13C1.50002 12.7239 1.72387 12.5 2.00002 12.5L6.99998 12.5C7.27612 12.5 7.49998 12.7239 7.49998 13V16C7.49998 16.2761 7.27612 16.5 6.99998 16.5H2C1.72386 16.5 1.5 16.2761 1.5 16L1.50002 13Z" fill="var(--mw-icon-background-medium-blue, #83CAFF)"/>
<path d="M9.50001 13C9.50002 12.7239 9.72387 12.5 10 12.5L15 12.5C15.2761 12.5 15.5 12.7239 15.5 13V16C15.5 16.2761 15.2761 16.5 15 16.5H10C9.72386 16.5 9.5 16.2761 9.5 16L9.50001 13Z" fill="var(--mw-icon-background-medium-blue, #83CAFF)"/>
<path d="M0.500017 1C0.500018 0.723861 0.723875 0.500005 1.00002 0.500005L7.99998 0.5C8.27612 0.5 8.49998 0.723858 8.49998 1V4.00001C8.49998 4.27615 8.27612 4.50001 7.99998 4.50001H1C0.723859 4.50001 0.500001 4.27615 0.500002 4L0.500017 1Z" stroke="var(--mw-icon-border-default-blue, #1656A7)"/>
<path d="M1.50002 13C1.50002 12.7239 1.72387 12.5 2.00002 12.5L6.99998 12.5C7.27612 12.5 7.49998 12.7239 7.49998 13V16C7.49998 16.2761 7.27612 16.5 6.99998 16.5H2C1.72386 16.5 1.5 16.2761 1.5 16L1.50002 13Z" stroke="var(--mw-icon-border-default-blue, #1656A7)"/>
<path d="M9.50001 13C9.50002 12.7239 9.72387 12.5 10 12.5L15 12.5C15.2761 12.5 15.5 12.7239 15.5 13V16C15.5 16.2761 15.2761 16.5 15 16.5H10C9.72386 16.5 9.5 16.2761 9.5 16L9.50001 13Z" stroke="var(--mw-icon-border-default-blue, #1656A7)"/>
<rect x="11.5" y="23.5" width="12" height="12" rx="1" transform="rotate(-90 11.5 23.5)" fill="var(--mw-icon-background-red, #FF9D9A)" stroke="var(--mw-icon-border-default-red, #902622)"/>
<path d="M20.5 20.5L14.5 14.5M14.5 20.5L20.5 14.5" stroke="var(--mw-icon-glyph-content-dark-red, #610908)" stroke-linecap="round"/>
</svg>
