<svg width="24" height="24" viewBox="0 0 24 24" fill="none" xmlns="http://www.w3.org/2000/svg">
<path d="M0.543192 2.4946C0.546167 1.39215 1.44072 0.5 2.54318 0.5H16.5C17.6046 0.5 18.5 1.39543 18.5 2.5V16.5C18.5 17.6046 17.6046 18.5 16.5 18.5H2.5054C1.39873 18.5 0.502425 17.6013 0.505412 16.4946L0.543192 2.4946Z" fill="var(--mw-icon-background-default-white, #FFFFFF)" stroke="var(--mw-icon-border-default-gray, #616161)"/>
<path d="M12.7065 7.33333C11.7648 7.24778 10.9245 7.62889 10.7328 8.5C10.7328 8.76444 12.0679 8.88889 13.1012 8.88889C14.1346 8.88889 14.6802 8.49222 14.6802 8.32111C14.6802 8.14222 14.2065 7.42667 12.7065 7.33333ZM6.39069 7.33333C4.89069 7.42667 4.417 8.06444 4.417 8.32111C4.417 8.5 5.05428 8.88889 5.99595 8.88889C6.93762 8.88889 8.36437 8.76444 8.36437 8.5C8.1727 7.62889 7.23236 7.24778 6.39069 7.33333ZM13.6736 12C12.0819 12 11.0486 10.4444 9.54858 10.4444C8.04858 10.4444 6.92358 12 5.42358 12C3.45692 12 2.04858 10.3356 2.04858 7.36444C2.04858 5.52889 2.61525 5 5.14025 5C7.66525 5 8.33192 5.77778 9.54858 5.77778C10.7652 5.77778 11.5152 5 13.9569 5C16.3986 5 17.0486 5.61444 17.0486 7.36444C17.0486 10.3356 15.6402 12 13.6736 12Z" fill="var(--mw-icon-glyph-content-dark-gray, #333333)"/>
<rect x="10.5" y="22.5" width="12" height="12" rx="1" transform="rotate(-90 10.5 22.5)" fill="var(--mw-icon-background-red, #FF9D9A)" stroke="var(--mw-icon-border-default-red, #902622)"/>
<path d="M19.5 19.5L13.5 13.5M13.5 19.5L19.5 13.5" stroke="var(--mw-icon-glyph-content-dark-red, #610908)" stroke-linecap="round"/>
</svg>
