<svg width="24" height="24" viewBox="0 0 24 24" fill="none" xmlns="http://www.w3.org/2000/svg">
<path d="M18.5 17.5L1.5 17.5C0.947715 17.5 0.5 17.0523 0.5 16.5L0.499999 4.5L19.5 4.5L19.5 16.5C19.5 17.0523 19.0523 17.5 18.5 17.5Z" fill="var(--mw-icon-background-default-white, #FFFFFF)" stroke="var(--mw-icon-border-default-gray, #616161)" stroke-linecap="round"/>
<path d="M19.5 4.5L0.5 4.5L0.5 1.5C0.5 0.947717 0.947715 0.500002 1.5 0.500002L18.5 0.500001C19.0523 0.500001 19.5 0.947715 19.5 1.5L19.5 4.5Z" fill="white" stroke="var(--mw-icon-border-default-gray, #616161)" stroke-linecap="round"/>
<rect x="11.5" y="23.5" width="12" height="12" rx="1" transform="rotate(-90 11.5 23.5)" fill="var(--mw-icon-background-red, #FF9D9A)" stroke="var(--mw-icon-border-default-red, #902622)"/>
<path d="M20.5 20.5L14.5 14.5M14.5 20.5L20.5 14.5" stroke="var(--mw-icon-glyph-content-dark-red, #610908)" stroke-linecap="round"/>
<path d="M8 6L5 6V10H2.5L6.5 15L10.5 10H8L8 6Z" fill="var(--mw-icon-glyph-content-gray, #616162)"/>
</svg>
