<svg width="24" height="24" viewBox="0 0 24 24" fill="none" xmlns="http://www.w3.org/2000/svg">
<path d="M18 0.500001L1 0.5C0.723858 0.5 0.5 0.723858 0.5 1L0.499999 18C0.499999 18.2761 0.723857 18.5 1 18.5L18 18.5C18.2761 18.5 18.5 18.2761 18.5 18L18.5 1C18.5 0.723859 18.2761 0.500001 18 0.500001Z" fill="var(--mw-icon-background-default-white, #FFFFFF)" stroke="var(--mw-icon-border-default-gray, #616161)" stroke-linecap="round"/>
<path d="M12 1.5V1L13 1V1.5L12 1.5ZM13 17.5V18H12V17.5H13ZM6 1.5V1H7V1.5H6ZM7 17.5V18H6V17.5H7ZM1.5 7H1V6H1.5V7ZM17.5 6H18V7H17.5V6ZM1.5 13H1V12H1.5V13ZM17.5 12H18L18 13H17.5L17.5 12ZM13 1.5L13 17.5H12L12 1.5L13 1.5ZM7 1.5V6.5H6V1.5H7ZM7 6.5L7 12.5H6L6 6.5H7ZM7 12.5V17.5H6V12.5H7ZM1.5 6H6.5V7H1.5V6ZM6.5 6H17.5V7H6.5V6ZM1.5 12H6.5V13H1.5V12ZM6.5 12L17.5 12L17.5 13L6.5 13V12Z" fill="var(--mw-icon-border-default-gray, #616161)"/>
<rect x="11.5" y="23.5" width="12" height="12" rx="1" transform="rotate(-90 11.5 23.5)" fill="var(--mw-icon-background-red, #FF9D9A)" stroke="var(--mw-icon-border-default-red, #902622)"/>
<path d="M20.1465 20.8536C20.3417 21.0488 20.6583 21.0488 20.8536 20.8536C21.0488 20.6583 21.0488 20.3417 20.8536 20.1464L20.1465 20.8536ZM14.8536 14.1464C14.6583 13.9512 14.3417 13.9512 14.1465 14.1464C13.9512 14.3417 13.9512 14.6583 14.1465 14.8536L14.8536 14.1464ZM14.1464 20.1464C13.9512 20.3417 13.9512 20.6583 14.1464 20.8536C14.3417 21.0488 14.6583 21.0488 14.8536 20.8536L14.1464 20.1464ZM20.8536 14.8536C21.0488 14.6583 21.0488 14.3417 20.8536 14.1464C20.6583 13.9512 20.3417 13.9512 20.1464 14.1464L20.8536 14.8536ZM20.8536 20.1464L14.8536 14.1464L14.1465 14.8536L20.1465 20.8536L20.8536 20.1464ZM14.8536 20.8536L20.8536 14.8536L20.1464 14.1464L14.1464 20.1464L14.8536 20.8536Z" fill="var(--mw-icon-glyph-content-dark-red, #610908)"/>
<path d="M0.5 1C0.5 0.723858 0.723858 0.5 1 0.5H6.5V6.5H0.5V1Z" fill="var(--mw-icon-background-red, #FF9D9A)" stroke="var(--mw-icon-border-default-red, #902622)"/>
</svg>
