<svg width="24" height="24" viewBox="0 0 24 24" fill="none" xmlns="http://www.w3.org/2000/svg">
<path d="M0.5 2C0.5 1.72386 0.723858 1.5 1 1.5H7.08579C7.351 1.5 7.60536 1.60536 7.79289 1.79289L9.20711 3.20711C9.39464 3.39464 9.649 3.5 9.91421 3.5H18C18.2761 3.5 18.5 3.72386 18.5 4V7.9026V15C18.5 15.2761 18.2761 15.5 18 15.5H1C0.723858 15.5 0.5 15.2761 0.5 15V2Z" fill="var(--mw-icon-background-light-yellow, #FFF5BC)" stroke="#674C06"/>
<rect x="11.5" y="22.5" width="12" height="12" rx="1" transform="rotate(-90 11.5 22.5)" fill="var(--mw-icon-background-red, #FF9D9A)" stroke="var(--mw-icon-border-default-red, #902622)"/>
<path d="M20.5 19.5L14.5 13.5M14.5 19.5L20.5 13.5" stroke="var(--mw-icon-glyph-content-dark-red, #610908)" stroke-linecap="round"/>
</svg>
