<svg width="24" height="24" viewBox="0 0 24 24" fill="none" xmlns="http://www.w3.org/2000/svg">
<g id="delete_group">
<rect id="Rectangle 1182" x="1.5" y="1.5" width="15" height="15" fill="var(--mw-icon-background-default-white, #FFFFFF)" stroke="var(--mw-icon-borderColor-light-blue, #268CDD)"/>
<rect id="Rectangle 1183" x="15.5" y="0.5" width="2" height="2" fill="white" stroke="var(--mw-icon-border-default-blue, #1656A7)"/>
<rect id="Rectangle 1184" x="0.5" y="0.5" width="2" height="2" fill="white" stroke="var(--mw-icon-border-default-blue, #1656A7)"/>
<rect id="Rectangle 1185" x="0.5" y="15.5" width="2" height="2" fill="white" stroke="var(--mw-icon-border-default-blue, #1656A7)"/>
<rect id="Rectangle 1186" x="13.5" y="13.5" width="2" height="2" fill="white" stroke="var(--mw-icon-border-default-blue, #1656A7)"/>
<path id="Vector 462" d="M13 4.5H8C7.72386 4.5 7.5 4.72386 7.5 5V10C7.5 10.2761 7.72386 10.5 8 10.5H13C13.2761 10.5 13.5 10.2761 13.5 10V5C13.5 4.72386 13.2761 4.5 13 4.5Z" stroke="var(--mw-icon-glyph-disabled-gray, #888889)" stroke-linecap="square"/>
<path id="Vector 463" d="M10 7.5H5C4.72386 7.5 4.5 7.72386 4.5 8V13C4.5 13.2761 4.72386 13.5 5 13.5H10C10.2761 13.5 10.5 13.2761 10.5 13V8C10.5 7.72386 10.2761 7.5 10 7.5Z" stroke="var(--mw-icon-glyph-disabled-gray, #888889)" stroke-linecap="square"/>
<rect id="Rectangle 981" x="9.5" y="9.5" width="14" height="14" rx="1" fill="var(--mw-icon-background-red, #FF9D9A)" stroke="var(--mw-icon-border-default-red, #902622)"/>
<path id="Vector 300" d="M20.5002 12.5L12.5002 20.5" stroke="var(--mw-icon-glyph-content-dark-red, #610908)" stroke-linecap="round"/>
<path id="Vector 299" d="M12.5002 12.5L20.5002 20.5" stroke="var(--mw-icon-glyph-content-dark-red, #610908)" stroke-linecap="round"/>
</g>
</svg>
