<svg width="24" height="24" viewBox="0 0 24 24" fill="none" xmlns="http://www.w3.org/2000/svg">
<path d="M18.5 17.5L3.5 17.5C2.94772 17.5 2.5 17.0523 2.5 16.5L2.5 3.5C2.5 2.94772 2.94771 2.5 3.5 2.5L18.5 2.5C19.0523 2.5 19.5 2.94772 19.5 3.5L19.5 16.5C19.5 17.0523 19.0523 17.5 18.5 17.5Z" fill="var(--mw-icon-background-default-medium-gray, #D9D9D9)" stroke="var(--mw-icon-border-default-gray, #616161)" stroke-linecap="round"/>
<path d="M16.5 15.5L1.5 15.5C0.947715 15.5 0.5 15.0523 0.5 14.5L0.499999 3.5L17.5 3.5L17.5 14.5C17.5 15.0523 17.0523 15.5 16.5 15.5Z" fill="var(--mw-icon-background-default-white, #FFFFFF)" stroke="var(--mw-icon-border-default-gray, #616161)" stroke-linecap="round"/>
<path d="M17.5 3.5L0.5 3.5L0.5 1.5C0.5 0.947717 0.947715 0.500002 1.5 0.500002L16.5 0.500001C17.0523 0.500001 17.5 0.947715 17.5 1.5L17.5 3.5Z" fill="white" stroke="var(--mw-icon-border-default-gray, #616161)" stroke-linecap="round"/>
<rect x="11.5" y="23.5" width="12" height="12" rx="1" transform="rotate(-90 11.5 23.5)" fill="var(--mw-icon-background-red, #FF9D9A)" stroke="var(--mw-icon-border-default-red, #902622)"/>
<path d="M20.1465 20.8536C20.3417 21.0488 20.6583 21.0488 20.8536 20.8536C21.0488 20.6583 21.0488 20.3417 20.8536 20.1464L20.1465 20.8536ZM14.8536 14.1464C14.6583 13.9512 14.3417 13.9512 14.1465 14.1464C13.9512 14.3417 13.9512 14.6583 14.1465 14.8536L14.8536 14.1464ZM14.1464 20.1464C13.9512 20.3417 13.9512 20.6583 14.1464 20.8536C14.3417 21.0488 14.6583 21.0488 14.8536 20.8536L14.1464 20.1464ZM20.8536 14.8536C21.0488 14.6583 21.0488 14.3417 20.8536 14.1464C20.6583 13.9512 20.3417 13.9512 20.1464 14.1464L20.8536 14.8536ZM20.8536 20.1464L14.8536 14.1464L14.1465 14.8536L20.1465 20.8536L20.8536 20.1464ZM14.8536 20.8536L20.8536 14.8536L20.1464 14.1464L14.1464 20.1464L14.8536 20.8536Z" fill="var(--mw-icon-glyph-content-dark-red, #610908)"/>
<path d="M5 14L8 14L8 10L10.5 10L6.5 5L2.5 10L5 10L5 14Z" fill="var(--mw-icon-glyph-content-gray, #616162)"/>
</svg>
