<svg width="24" height="24" viewBox="0 0 24 24" fill="none" xmlns="http://www.w3.org/2000/svg">
<path d="M3.5 1.5H15.5V13.5H3.5V1.5Z" fill="var(--mw-icon-background-default-white, #FFFFFF)" stroke="var(--mw-icon-border-default-gray, #616161)" stroke-linejoin="round"/>
<path d="M0.5 5L2.5 7L0.5 9M16.5 5L18.5 7L16.5 9" stroke="var(--mw-icon-object-primary, #616160)" stroke-linecap="round" stroke-linejoin="round"/>
<path d="M5 3H14V12H5V3Z" fill="var(--mw-icon-background-default-selection, #B4DEFF)"/>
<path d="M5.52941 8.88889C5.33596 9.03148 5.26471 9.27778 5 9.27778L5.00002 10.8333L5 12H14V9.27778C14 9.27778 13.7224 10.0383 13.4 9.27778C13.0776 8.51728 12.3113 6.9963 11.8471 6.9963C11.3828 6.9963 10.4224 8.89753 10.1 9.84815C9.45516 8.18457 8.34961 5 7.38235 5C6.31837 5 5.78895 8.69758 5.52941 8.88889Z" fill="var(--mw-icon-glyph-content-green, #008014)"/>
<circle cx="11" cy="5" r="1" fill="var(--mw-icon-object-secondary, #FFFFFE)"/>
<rect x="10.5" y="22.5" width="12" height="12" rx="1" transform="rotate(-90 10.5 22.5)" fill="var(--mw-icon-background-red, #FF9D9A)" stroke="var(--mw-icon-border-default-red, #902622)"/>
<path d="M19.5 19.5L13.5 13.5M13.5 19.5L19.5 13.5" stroke="var(--mw-icon-glyph-content-dark-red, #610908)" stroke-linecap="round"/>
</svg>
