<svg width="24" height="24" viewBox="0 0 24 24" fill="none" xmlns="http://www.w3.org/2000/svg">
<path d="M0.5 2.5C0.5 1.39543 1.39543 0.5 2.5 0.5H20.5C21.6046 0.5 22.5 1.39543 22.5 2.5V21.5C22.5 22.6046 21.6046 23.5 20.5 23.5H2.5C1.39543 23.5 0.5 22.6046 0.5 21.5V2.5Z" fill="var(--mw-icon-background-default-white, #FFFFFF)" stroke="var(--mw-icon-border-default-gray, #616161)"/>
<circle cx="17" cy="15" r="1" fill="var(--mw-icon-glyph-content-light-blue, #278CDD)"/>
<circle cx="15" cy="10" r="1" fill="var(--mw-icon-glyph-content-light-blue, #278CDD)"/>
<circle cx="15" cy="12" r="1" fill="var(--mw-icon-glyph-content-light-blue, #278CDD)"/>
<circle cx="15" cy="14" r="1" fill="var(--mw-icon-glyph-content-light-blue, #278CDD)"/>
<circle cx="17" cy="13" r="1" fill="var(--mw-icon-glyph-content-light-blue, #278CDD)"/>
<circle cx="17" cy="9" r="1" fill="var(--mw-icon-glyph-content-light-blue, #278CDD)"/>
<circle cx="17" cy="11" r="1" fill="var(--mw-icon-glyph-content-light-blue, #278CDD)"/>
<circle cx="19" cy="10" r="1" fill="var(--mw-icon-glyph-content-light-blue, #278CDD)"/>
<circle cx="19" cy="12" r="1" fill="var(--mw-icon-glyph-content-light-blue, #278CDD)"/>
<circle cx="19" cy="14" r="1" fill="var(--mw-icon-glyph-content-light-blue, #278CDD)"/>
<path d="M11.5 0.5L11.5 23" stroke="var(--mw-icon-border-default-gray, #616161)"/>
<circle cx="6" cy="15" r="1" fill="var(--mw-icon-glyph-content-light-blue, #278CDD)"/>
<circle cx="7" cy="19" r="1" fill="var(--mw-icon-glyph-content-light-blue, #278CDD)"/>
<circle cx="9" cy="17" r="1" fill="var(--mw-icon-glyph-content-light-blue, #278CDD)"/>
<circle cx="4" cy="10" r="1" fill="var(--mw-icon-glyph-content-light-blue, #278CDD)"/>
<circle cx="4" cy="12" r="1" fill="var(--mw-icon-glyph-content-light-blue, #278CDD)"/>
<circle cx="3" cy="4" r="1" fill="var(--mw-icon-glyph-content-light-blue, #278CDD)"/>
<circle cx="8" cy="6" r="1" fill="var(--mw-icon-glyph-content-light-blue, #278CDD)"/>
<circle cx="4" cy="14" r="1" fill="var(--mw-icon-glyph-content-light-blue, #278CDD)"/>
<circle cx="6" cy="13" r="1" fill="var(--mw-icon-glyph-content-light-blue, #278CDD)"/>
<circle cx="6" cy="9" r="1" fill="var(--mw-icon-glyph-content-light-blue, #278CDD)"/>
<circle cx="6" cy="11" r="1" fill="var(--mw-icon-glyph-content-light-blue, #278CDD)"/>
<circle cx="8" cy="10" r="1" fill="var(--mw-icon-glyph-content-light-blue, #278CDD)"/>
<circle cx="8" cy="12" r="1" fill="var(--mw-icon-glyph-content-light-blue, #278CDD)"/>
<circle cx="3" cy="17" r="1" fill="var(--mw-icon-glyph-content-light-blue, #278CDD)"/>
<circle cx="8" cy="14" r="1" fill="var(--mw-icon-glyph-content-light-blue, #278CDD)"/>
</svg>
