<svg width="24" height="24" viewBox="0 0 24 24" fill="none" xmlns="http://www.w3.org/2000/svg">
<g id="dependencyAnalyzerApp">
<g id="_appComponent">
<g id="_appBase/Border/L">
<path id="rectangle" d="M0.5 18.5V4.5C0.5 2.29086 2.29086 0.5 4.5 0.5H18.5C20.7091 0.5 22.5 2.29086 22.5 4.5V18.5C22.5 20.7091 20.7091 22.5 18.5 22.5H4.5C2.29086 22.5 0.5 20.7091 0.5 18.5Z" fill="var(--mw-icon-background-default-white, #FFFFFF)" stroke="#B7312C" stroke-linecap="round"/>
</g>
</g>
<path id="lines" d="M12 10.5V10H11V10.5H12ZM16.5 11.5H17C17 11.2239 16.7761 11 16.5 11V11.5ZM16 13.5V14H17V13.5H16ZM12 9.5V9H11V9.5H12ZM6.5 11.5V11C6.22386 11 6 11.2239 6 11.5H6.5ZM6 13.5V14H7V13.5H6ZM11 10.5V11.5H12V10.5H11ZM11.5 12H16.5V11H11.5V12ZM16 11.5V13.5H17V11.5H16ZM11 9.5V11.5H12V9.5H11ZM11.5 11H6.5V12H11.5V11ZM6 11.5V13.5H7V11.5H6Z" fill="var(--mw-icon-glyph-disabled-gray, #888889)"/>
<g id="yellow box">
<path d="M20.5 18.5V14.5H12.5V18.5H20.5Z" fill="var(--mw-icon-background-medium-yellow, #FFEF91)"/>
<path d="M10.5 18.5V14.5H2.5V18.5H10.5Z" fill="var(--mw-icon-background-medium-yellow, #FFEF91)"/>
<path d="M20.5 18.5V14.5H12.5V18.5H20.5Z" stroke="var(--mw-icon-glyph-content-yellow, #674C07)" stroke-linecap="square" stroke-linejoin="round"/>
<path d="M10.5 18.5V14.5H2.5V18.5H10.5Z" stroke="var(--mw-icon-glyph-content-yellow, #674C07)" stroke-linecap="square" stroke-linejoin="round"/>
</g>
<path id="blue box" d="M15.5 8.5V4.5H7.5V8.5H15.5Z" fill="var(--mw-icon-background-default-selection, #B4DEFF)" stroke="var(--mw-icon-glyph-content-blue, #1656A8)" stroke-linecap="square" stroke-linejoin="round"/>
</g>
</svg>
