<svg width="24" height="24" viewBox="0 0 24 24" fill="none" xmlns="http://www.w3.org/2000/svg">
<path d="M0.5 18.5V4.5C0.5 2.29086 2.29086 0.5 4.5 0.5H18.5C20.7091 0.5 22.5 2.29086 22.5 4.5V18.5C22.5 20.7091 20.7091 22.5 18.5 22.5H4.5C2.29086 22.5 0.5 20.7091 0.5 18.5Z" fill="var(--mw-icon-background-default-light-gray, #F5F5F5)"/>
<path d="M0.5 18.5V4.5C0.5 2.29086 2.29086 0.5 4.5 0.5H18.5C20.7091 0.5 22.5 2.29086 22.5 4.5V18.5C22.5 20.7091 20.7091 22.5 18.5 22.5H4.5C2.29086 22.5 0.5 20.7091 0.5 18.5Z" fill="var(--mw-icon-background-default-white, #FFFFFF)" stroke="var(--mw-icon-glyph-content-gray, #616162)" stroke-linecap="round"/>
<path d="M6.5 16.5L11.5 6.5" stroke="var(--mw-icon-glyph-content-dark-blue, #104280)"/>
<path d="M16.5 16.5L11.5 6.5" stroke="var(--mw-icon-glyph-content-dark-blue, #104280)" stroke-dasharray="1 1"/>
<circle cx="6.5" cy="16.5" r="3" fill="#54B6FF" stroke="var(--mw-icon-glyph-content-dark-blue, #104280)"/>
<circle cx="11.5" cy="6.5" r="3" fill="#54B6FF" stroke="var(--mw-icon-glyph-content-dark-blue, #104280)"/>
<circle cx="16.5" cy="16.5" r="3" fill="white" stroke="var(--mw-icon-glyph-content-dark-blue, #104280)" stroke-dasharray="1 1"/>
</svg>
