<svg width="24" height="24" viewBox="0 0 24 24" fill="none" xmlns="http://www.w3.org/2000/svg">
<path d="M18.5 1.5C18.5 0.947716 18.0523 0.5 17.5 0.5H1.5C0.947717 0.5 0.500002 0.947715 0.500002 1.5V17.5C0.500002 18.0523 0.947717 18.5 1.5 18.5H17.5C18.0523 18.5 18.5 18.0523 18.5 17.5V1.5Z" fill="var(--mw-icon-background-default-white, #FFFFFF)" stroke="var(--mw-icon-border-default-gray, #616161)"/>
<path d="M5 6H8V17H5V6Z" fill="#D95319"/>
<path d="M11 5H14V17H11V5Z" fill="#D95319"/>
<path d="M2 13H5V17H2V13Z" fill="#0072BD"/>
<path d="M8 2H11V17H8V2Z" fill="#0072BD"/>
<path d="M14 7H17V17H14V7Z" fill="#0072BD"/>
<rect x="10.5" y="10.5" width="13" height="13" rx="2" fill="white" stroke="var(--mw-icon-border-default-gray, #616161)"/>
<path d="M15.5 13C15.2239 13 15 13.2239 15 13.5C15 13.7761 15.2239 14 15.5 14V13ZM20.5 14C20.7761 14 21 13.7761 21 13.5C21 13.2239 20.7761 13 20.5 13V14ZM15.5 19C15.2239 19 15 19.2239 15 19.5C15 19.7761 15.2239 20 15.5 20V19ZM19.5 20C19.7761 20 20 19.7761 20 19.5C20 19.2239 19.7761 19 19.5 19V20ZM15.5 16C15.2239 16 15 16.2239 15 16.5C15 16.7761 15.2239 17 15.5 17V16ZM18.5 17C18.7761 17 19 16.7761 19 16.5C19 16.2239 18.7761 16 18.5 16V17ZM15.5 14H20.5V13H15.5V14ZM15.5 20H19.5V19H15.5V20ZM15.5 17H18.5V16H15.5V17Z" fill="var(--mw-icon-glyph-content-gray, #616162)"/>
<path d="M14 13.5C14 13.7761 13.7761 14 13.5 14C13.2239 14 13 13.7761 13 13.5C13 13.2239 13.2239 13 13.5 13C13.7761 13 14 13.2239 14 13.5Z" fill="var(--mw-icon-glyph-content-gray, #616162)"/>
<path d="M14 16.5C14 16.7761 13.7761 17 13.5 17C13.2239 17 13 16.7761 13 16.5C13 16.2239 13.2239 16 13.5 16C13.7761 16 14 16.2239 14 16.5Z" fill="var(--mw-icon-glyph-content-gray, #616162)"/>
<path d="M14 19.5C14 19.7761 13.7761 20 13.5 20C13.2239 20 13 19.7761 13 19.5C13 19.2239 13.2239 19 13.5 19C13.7761 19 14 19.2239 14 19.5Z" fill="var(--mw-icon-glyph-content-gray, #616162)"/>
</svg>
