<svg width="24" height="24" viewBox="0 0 24 24" fill="none" xmlns="http://www.w3.org/2000/svg">
<path d="M0.5 2.5C0.5 1.39543 1.39543 0.5 2.5 0.5H20.5C21.6046 0.5 22.5 1.39543 22.5 2.5V20.5C22.5 21.6046 21.6046 22.5 20.5 22.5H2.5C1.39543 22.5 0.5 21.6046 0.5 20.5V2.5Z" fill="var(--mw-icon-background-default-white, #FFFFFF)"/>
<path d="M0.5 10.5316L1.5 9.54489L2.5 10.5316V13.5961L3.5 14.5449L4.5 13.5961V10.7498L5.5 9.63977L6.5 10.5949V13.5961L7.5 14.5449L8.5 13.5949V10.5316L9.5 9.59488L10.5 10.5949V13.5949L11.5 14.5449L12.5 13.5V10.5L13.5 9.5L14.5 10.5949V13.5L15.5 14.5449L16.5 13.5V10.5L17.5 9.5L18.5 10.5V13.5L19.5 14.5L20.5 13.5V10.5L21.5 9.5L22.5 10.5316" stroke="#D95319" stroke-miterlimit="10" stroke-linecap="round" stroke-linejoin="round"/>
<path d="M0.5 17.0025L1.94033 15.6826L3.86077 20.5L5.78121 12.7921L7.70165 16.646L9.62208 9.90162L11.5425 12.7921L12.5027 7.01116L14.4232 7.97465L16.3436 3.1572L18.2641 7.97465L19.2243 2.19371L20.1845 4.12069L21.5 1.5" stroke="#0072BD" stroke-miterlimit="10" stroke-linecap="round" stroke-linejoin="round"/>
<path d="M0.5 2.5C0.5 1.39543 1.39543 0.5 2.5 0.5H20.5C21.6046 0.5 22.5 1.39543 22.5 2.5V20.5C22.5 21.6046 21.6046 22.5 20.5 22.5H2.5C1.39543 22.5 0.5 21.6046 0.5 20.5V2.5Z" stroke="var(--mw-icon-border-default-gray, #616161)" stroke-linejoin="round"/>
</svg>
