<svg width="24" height="24" viewBox="0 0 24 24" fill="none" xmlns="http://www.w3.org/2000/svg">
<path d="M0.5 18.5V4.5C0.5 2.29086 2.29086 0.5 4.5 0.5H18.5C20.7091 0.5 22.5 2.29086 22.5 4.5V18.5C22.5 20.7091 20.7091 22.5 18.5 22.5H4.5C2.29086 22.5 0.5 20.7091 0.5 18.5Z" fill="#00A9E0"/>
<path d="M22.3901 6C22.0349 5.39552 21.6078 5 21.084 5C18.6372 5 16.7631 17 15.1492 17C13.5354 17 14.5766 3 11.453 3C8.32948 3 7.87136 20 6.24711 20C4.62286 20 5.20593 6 2.43637 6C1.54911 6 0.903656 8.15882 0.5 10.0501" stroke="var(--mw-icon-background-default-white, white)"/>
<path d="M18.885 15.8386L22 19.3957L21.5 21.5L19.3628 22L15.8751 18.8669C14.9273 19.2411 13.8891 19.3174 12.8973 19.0859C11.9056 18.8544 11.0069 18.3258 10.3198 17.5699C9.63266 16.814 9.18941 15.8664 9.04848 14.8519C8.90755 13.8374 9.07557 12.8038 9.53037 11.8874L13.2665 15.7328L15.0629 15.0214L15.8177 13.2333L11.9956 9.50315C12.9003 9.06364 13.915 8.90694 14.909 9.0533C15.903 9.19965 16.8306 9.64234 17.5721 10.3242C18.3136 11.0061 18.835 11.8959 19.069 12.8789C19.3031 13.8618 19.2389 14.8927 18.885 15.8386Z" fill="var(--mw-icon-background-default-white, white)"/>
<path d="M22.5 19.4536L18.885 15.8386C19.2389 14.8927 19.3031 13.8618 19.069 12.8789C18.835 11.8959 18.3136 11.0061 17.5721 10.3242C16.8306 9.64234 15.903 9.19965 14.909 9.0533C13.915 8.90694 12.9003 9.06364 11.9956 9.50315L15.8177 13.2333L15.0629 15.0214L13.2665 15.7328L9.53037 11.8874C9.07557 12.8038 8.90755 13.8374 9.04848 14.8519C9.18941 15.8664 9.63266 16.814 10.3198 17.5699C11.0069 18.3258 11.9056 18.8544 12.8973 19.0859C13.8891 19.3174 14.9273 19.2411 15.8751 18.8669L19.5 22.4919" stroke="black" stroke-linejoin="round"/>
<path d="M0.5 18.5V4.5C0.5 2.29086 2.29086 0.5 4.5 0.5H18.5C20.7091 0.5 22.5 2.29086 22.5 4.5V18.5C22.5 20.7091 20.7091 22.5 18.5 22.5H4.5C2.29086 22.5 0.5 20.7091 0.5 18.5Z" stroke="#245474" stroke-linecap="round"/>

</svg>
