<svg width="24" height="24" viewBox="0 0 24 24" fill="none" xmlns="http://www.w3.org/2000/svg">
<circle cx="11.5" cy="11.5" r="8" fill="var(--mw-icon-object-primary, #616160)" stroke="var(--mw-icon-object-primary, #616160)"/>
<path d="M12 1.5C12 1.77614 11.7761 2 11.5 2C11.2239 2 11 1.77614 11 1.5C11 1.22386 11.2239 1 11.5 1C11.7761 1 12 1.22386 12 1.5Z" fill="var(--mw-icon-object-primary, #616160)"/>
<path d="M16 2.5C16 2.77614 15.7761 3 15.5 3C15.2239 3 15 2.77614 15 2.5C15 2.22386 15.2239 2 15.5 2C15.7761 2 16 2.22386 16 2.5Z" fill="var(--mw-icon-object-primary, #616160)"/>
<path d="M19 4.5C19 4.77614 18.7761 5 18.5 5C18.2239 5 18 4.77614 18 4.5C18 4.22386 18.2239 4 18.5 4C18.7761 4 19 4.22386 19 4.5Z" fill="var(--mw-icon-object-primary, #616160)"/>
<path d="M21 7.5C21 7.77614 20.7761 8 20.5 8C20.2239 8 20 7.77614 20 7.5C20 7.22386 20.2239 7 20.5 7C20.7761 7 21 7.22386 21 7.5Z" fill="var(--mw-icon-object-primary, #616160)"/>
<path d="M22 10.5C22 10.7761 21.7761 11 21.5 11C21.2239 11 21 10.7761 21 10.5C21 10.2239 21.2239 10 21.5 10C21.7761 10 22 10.2239 22 10.5Z" fill="var(--mw-icon-object-primary, #616160)"/>
<path d="M8 2.5C8 2.77614 7.77614 3 7.5 3C7.22386 3 7 2.77614 7 2.5C7 2.22386 7.22386 2 7.5 2C7.77614 2 8 2.22386 8 2.5Z" fill="var(--mw-icon-object-primary, #616160)"/>
<path d="M5 4.5C5 4.77614 4.77614 5 4.5 5C4.22386 5 4 4.77614 4 4.5C4 4.22386 4.22386 4 4.5 4C4.77614 4 5 4.22386 5 4.5Z" fill="var(--mw-icon-object-primary, #616160)"/>
<path d="M3 7.5C3 7.77614 2.77614 8 2.5 8C2.22386 8 2 7.77614 2 7.5C2 7.22386 2.22386 7 2.5 7C2.77614 7 3 7.22386 3 7.5Z" fill="var(--mw-icon-object-primary, #616160)"/>
<path d="M2 10.5C2 10.7761 1.77614 11 1.5 11C1.22386 11 1 10.7761 1 10.5C1 10.2239 1.22386 10 1.5 10C1.77614 10 2 10.2239 2 10.5Z" fill="var(--mw-icon-object-primary, #616160)"/>
<circle cx="11.5" cy="11.5" r="6" stroke="var(--mw-icon-object-secondary, #FFFFFE)"/>
<rect x="11" y="6" width="1" height="4" fill="var(--mw-icon-object-secondary, #FFFFFE)"/>
</svg>
