<svg width="24" height="24" viewBox="0 0 24 24" fill="none" xmlns="http://www.w3.org/2000/svg">
<path d="M0.5 18.5V4.5C0.5 2.29086 2.29086 0.5 4.5 0.5H18.5C20.7091 0.5 22.5 2.29086 22.5 4.5V18.5C22.5 20.7091 20.7091 22.5 18.5 22.5H4.5C2.29086 22.5 0.5 20.7091 0.5 18.5Z" fill="var(--mw-icon-background-default-white, white)"/>
<rect x="2.5" y="2.5" width="8" height="8" rx="1" fill="var(--mw-icon-background-default-selection, #B4DEFF)" stroke="var(--mw-icon-border-default-gray, #616161)"/>
<rect x="12.5" y="2.5" width="8" height="8" rx="1" fill="var(--mw-icon-background-default-selection, #B4DEFF)" stroke="var(--mw-icon-border-default-gray, #616161)"/>
<path d="M3 6.82659V9.5C3 9.77614 3.22386 10 3.5 10H9.5C9.77614 10 10 9.77614 10 9.5V6.73265C7.66667 6.73265 8.83333 10 7.66667 6.73265C5.9091 1.81043 3.83809 4.65164 3.03427 6.64618C3.01106 6.70377 3 6.76451 3 6.82659Z" fill="var(--mw-icon-glyph-content-green, #008014)"/>
<path d="M16.5 4.5C14.567 4.5 13 6.18629 13 9.5C13 9.77614 13.2239 10 13.5 10H19.5C19.7761 10 20 9.77614 20 9.5C20 6.18629 18.433 4.5 16.5 4.5Z" fill="var(--mw-icon-glyph-content-green, #008014)"/>
<rect width="8" height="8" rx="1" transform="matrix(-1 0 0 1 20.5 12.5)" fill="var(--mw-icon-background-default-selection, #B4DEFF)" stroke="var(--mw-icon-border-default-gray, #616161)"/>
<rect width="8" height="8" rx="1" transform="matrix(-1 0 0 1 10.5 12.5)" fill="var(--mw-icon-background-default-selection, #B4DEFF)" stroke="var(--mw-icon-border-default-gray, #616161)"/>
<path d="M20 16.8266V19.5C20 19.7761 19.7761 20 19.5 20H13.5C13.2239 20 13 19.7761 13 19.5V16.7326C15.3333 16.7326 14.1667 20 15.3333 16.7326C17.0909 11.8104 19.1619 14.6516 19.9657 16.6462C19.9889 16.7038 20 16.7645 20 16.8266Z" fill="var(--mw-icon-glyph-content-green, #008014)"/>
<path d="M6.5 14.5C8.433 14.5 10 16.1863 10 19.5C10 19.7761 9.77614 20 9.5 20H3.5C3.22386 20 3 19.7761 3 19.5C3 16.1863 4.567 14.5 6.5 14.5Z" fill="var(--mw-icon-glyph-content-green, #008014)"/>
<path d="M0.5 18.5V4.5C0.5 2.29086 2.29086 0.5 4.5 0.5H18.5C20.7091 0.5 22.5 2.29086 22.5 4.5V18.5C22.5 20.7091 20.7091 22.5 18.5 22.5H4.5C2.29086 22.5 0.5 20.7091 0.5 18.5Z" stroke="var(--mw-icon-border-default-gray, #616161)" stroke-linecap="round"/>

</svg>
