<svg width="24" height="24" viewBox="0 0 24 24" fill="none" xmlns="http://www.w3.org/2000/svg">
<path d="M0.5 2.5C0.5 1.39543 1.39543 0.5 2.5 0.5H20.5C21.6046 0.5 22.5 1.39543 22.5 2.5V20.5C22.5 21.6046 21.6046 22.5 20.5 22.5H2.5C1.39543 22.5 0.5 21.6046 0.5 20.5V2.5Z" fill="var(--mw-icon-background-default-white, #FFFFFF)"/>
<path d="M10.5 17.5C10.5 17.5 12.537 19.75 15.5 17.5C18.463 15.25 20.5 17.5 20.5 17.5" stroke="var(--mw-icon-glyph-content-blue, #1656A8)" stroke-linecap="round"/>
<path d="M12.5 11.5L11.5 12.5L13.5 12.5L12.5 11.5Z" fill="var(--mw-icon-glyph-disabled-gray, #888889)"/>
<path d="M12 15.5L12 16L13 16L13 15.5L12 15.5ZM13 12.5C13 12.2239 12.7761 12 12.5 12C12.2239 12 12 12.2239 12 12.5L13 12.5ZM12.5 11.5L12.8536 11.1464L12.5 10.7929L12.1464 11.1464L12.5 11.5ZM11.5 12.5L11.1464 12.1464L10.2929 13L11.5 13L11.5 12.5ZM13.5 12.5L13.5 13L14.7071 13L13.8536 12.1464L13.5 12.5ZM13 15.5L13 12.5L12 12.5L12 15.5L13 15.5ZM12.1464 11.1464L11.1464 12.1464L11.8536 12.8536L12.8536 11.8536L12.1464 11.1464ZM11.5 13L13.5 13L13.5 12L11.5 12L11.5 13ZM13.8536 12.1464L12.8536 11.1464L12.1464 11.8536L13.1464 12.8536L13.8536 12.1464Z" fill="var(--mw-icon-glyph-disabled-gray, #888889)"/>
<path d="M5.5 22.5L5.5 5.5L19.5 5.5" stroke="var(--mw-icon-glyph-disabled-gray, #888889)" stroke-linecap="round" stroke-linejoin="round"/>
<path d="M19.5 5.5L18.5 4.5L18.5 6.5L19.5 5.5Z" fill="var(--mw-icon-glyph-disabled-gray, #888889)" stroke="var(--mw-icon-glyph-disabled-gray, #888889)" stroke-linecap="round"/>
<circle cx="12.5" cy="5.5" r="3" fill="var(--mw-icon-background-default-selection, #B4DEFF)" stroke="var(--mw-icon-glyph-content-blue, #1656A8)"/>
<path d="M10.5 3.5L14.5 7.5M14.5 3.5L10.5 7.5" stroke="var(--mw-icon-glyph-content-blue, #1656A8)" stroke-linecap="round" stroke-linejoin="round"/>
<rect x="2.5" y="12.5" width="6" height="6" rx="1" fill="var(--mw-icon-background-red, #FF9D9A)" stroke="var(--mw-icon-glyph-content-red, #902623)"/>
<path d="M0.5 2.5C0.5 1.39543 1.39543 0.5 2.5 0.5H20.5C21.6046 0.5 22.5 1.39543 22.5 2.5V20.5C22.5 21.6046 21.6046 22.5 20.5 22.5H2.5C1.39543 22.5 0.5 21.6046 0.5 20.5V2.5Z" stroke="var(--mw-icon-border-default-gray, #616161)" stroke-linejoin="round"/>
</svg>
