<svg width="24" height="24" viewBox="0 0 24 24" fill="none" xmlns="http://www.w3.org/2000/svg">
<rect x="0.5" y="0.5" width="18" height="18" rx="2" fill="var(--mw-icon-background-default-light-gray, #F5F5F5)"/>
<path d="M3 3H8V13H3" stroke="#1171BE" stroke-width="2" stroke-linecap="square" stroke-linejoin="round"/>
<path d="M5 6H13V9.33333V16H10H5" stroke="#EDB120" stroke-width="2" stroke-linecap="square" stroke-linejoin="round"/>
<rect x="0.5" y="0.5" width="18" height="18" rx="2" stroke="var(--mw-icon-border-default-gray, #616161)"/>
<path d="M23.5 17.5C23.5 14.1863 20.8137 11.5 17.5 11.5C14.1863 11.5 11.5 14.1863 11.5 17.5C11.5 20.8137 14.1863 23.5 17.5 23.5C20.8137 23.5 23.5 20.8137 23.5 17.5Z" fill="var(--mw-icon-background-default-medium-gray, #D9D9D9)"/>
<path d="M23.5 17.5C23.5 14.1863 20.8137 11.5 17.5 11.5C14.1863 11.5 11.5 14.1863 11.5 17.5C11.5 20.8137 14.1863 23.5 17.5 23.5C20.8137 23.5 23.5 20.8137 23.5 17.5Z" stroke="var(--mw-icon-border-default-gray, #616161)"/>
<path d="M14.5 17.5H20.5" stroke="var(--mw-icon-glyph-content-gray, #616162)" stroke-linecap="round"/>
</svg>
