<svg width="24" height="24" viewBox="0 0 24 24" fill="none" xmlns="http://www.w3.org/2000/svg">
<path d="M18.5 3.5L15.5 6.5M13.5 2.5V5.5M19.5 8.5H16.5M4.5 19.5L7.5 16.5M9.5 20.5V17.5M3.5 14.5H6.5" stroke="#B7312C" stroke-linecap="round"/>
<path d="M0.5 0.5H11.5V9.5H0.5V0.5Z" fill="var(--mw-icon-background-default-white, #FFFFFF)"/>
<path d="M0.5 0.5V0C0.223858 0 0 0.223858 0 0.5L0.5 0.5ZM11.5 0.5H12C12 0.223858 11.7761 0 11.5 0V0.5ZM11.5 9.5V10C11.7761 10 12 9.77614 12 9.5H11.5ZM0.5 9.5H0C0 9.77614 0.223858 10 0.5 10L0.5 9.5ZM5 10C5 9.72386 4.77614 9.5 4.5 9.5C4.22386 9.5 4 9.72386 4 10H5ZM2.5 12C2.22386 12 2 12.2239 2 12.5C2 12.7761 2.22386 13 2.5 13V12ZM9.5 13C9.77614 13 10 12.7761 10 12.5C10 12.2239 9.77614 12 9.5 12V13ZM8 10C8 9.72386 7.77614 9.5 7.5 9.5C7.22386 9.5 7 9.72386 7 10H8ZM0.5 1H11.5V0H0.5V1ZM11 0.5V9.5H12V0.5H11ZM11.5 9H0.5V10H11.5V9ZM1 9.5V0.5H0V9.5H1ZM4 10V12.5H5V10H4ZM4.5 12H2.5V13H4.5V12ZM4.5 13H7.5V12H4.5V13ZM7.5 13H9.5V12H7.5V13ZM8 12.5V10H7V12.5H8Z" fill="var(--mw-icon-border-default-gray, #616161)"/>
<path d="M11.5 10.5H22.5V19.5H11.5V10.5Z" fill="white"/>
<path d="M11.5 10.5V10C11.2239 10 11 10.2239 11 10.5H11.5ZM22.5 10.5H23C23 10.2239 22.7761 10 22.5 10V10.5ZM22.5 19.5V20C22.7761 20 23 19.7761 23 19.5H22.5ZM11.5 19.5H11C11 19.7761 11.2239 20 11.5 20V19.5ZM16 20C16 19.7239 15.7761 19.5 15.5 19.5C15.2239 19.5 15 19.7239 15 20H16ZM13.5 22C13.2239 22 13 22.2239 13 22.5C13 22.7761 13.2239 23 13.5 23V22ZM20.5 23C20.7761 23 21 22.7761 21 22.5C21 22.2239 20.7761 22 20.5 22V23ZM19 20C19 19.7239 18.7761 19.5 18.5 19.5C18.2239 19.5 18 19.7239 18 20H19ZM11.5 11H22.5V10H11.5V11ZM22 10.5V19.5H23V10.5H22ZM22.5 19H11.5V20H22.5V19ZM12 19.5V10.5H11V19.5H12ZM15 20V22.5H16V20H15ZM15.5 22H13.5V23H15.5V22ZM15.5 23H18.5V22H15.5V23ZM18.5 23H20.5V22H18.5V23ZM19 22.5V20H18V22.5H19Z" fill="var(--mw-icon-border-default-gray, #616161)"/>
</svg>
