<svg width="24" height="24" viewBox="0 0 24 24" fill="none" xmlns="http://www.w3.org/2000/svg">
<rect x="0.5" y="0.5" width="22" height="22" rx="2" fill="var(--mw-icon-background-default-white, #FFFFFF)"/>
<path d="M3.5 19.5L13.5 12.5M13.5 12.5L19.5 3.5M13.5 12.5L19.5 19.5" stroke="var(--mw-icon-glyph-content-gray, #616162)" stroke-linecap="round" stroke-linejoin="round"/>
<path d="M2.5 5.5C2.5 4.94772 2.94772 4.5 3.5 4.5C4.05228 4.5 4.5 4.94772 4.5 5.5C4.5 6.05228 4.05228 6.5 3.5 6.5C2.94772 6.5 2.5 6.05228 2.5 5.5Z" fill="white"/>
<path d="M8.5 3.5C8.5 2.94772 8.94772 2.5 9.5 2.5C10.0523 2.5 10.5 2.94772 10.5 3.5C10.5 4.05228 10.0523 4.5 9.5 4.5C8.94772 4.5 8.5 4.05228 8.5 3.5Z" fill="white"/>
<path d="M9.5 7.5C9.5 6.94772 9.94772 6.5 10.5 6.5C11.0523 6.5 11.5 6.94772 11.5 7.5C11.5 8.05228 11.0523 8.5 10.5 8.5C9.94772 8.5 9.5 8.05228 9.5 7.5Z" fill="white"/>
<path d="M13.5 5.5C13.5 4.94772 13.9477 4.5 14.5 4.5C15.0523 4.5 15.5 4.94772 15.5 5.5C15.5 6.05228 15.0523 6.5 14.5 6.5C13.9477 6.5 13.5 6.05228 13.5 5.5Z" fill="white"/>
<path d="M3.5 10.5C3.5 9.94772 3.94772 9.5 4.5 9.5C5.05228 9.5 5.5 9.94772 5.5 10.5C5.5 11.0523 5.05228 11.5 4.5 11.5C3.94772 11.5 3.5 11.0523 3.5 10.5Z" fill="white"/>
<path d="M6.5 12.5C6.5 11.9477 6.94772 11.5 7.5 11.5C8.05228 11.5 8.5 11.9477 8.5 12.5C8.5 13.0523 8.05228 13.5 7.5 13.5C6.94772 13.5 6.5 13.0523 6.5 12.5Z" fill="white"/>
<path d="M2.5 5.5C2.5 4.94772 2.94772 4.5 3.5 4.5C4.05228 4.5 4.5 4.94772 4.5 5.5C4.5 6.05228 4.05228 6.5 3.5 6.5C2.94772 6.5 2.5 6.05228 2.5 5.5Z" stroke="#1171BE"/>
<path d="M8.5 3.5C8.5 2.94772 8.94772 2.5 9.5 2.5C10.0523 2.5 10.5 2.94772 10.5 3.5C10.5 4.05228 10.0523 4.5 9.5 4.5C8.94772 4.5 8.5 4.05228 8.5 3.5Z" stroke="#1171BE"/>
<path d="M9.5 7.5C9.5 6.94772 9.94772 6.5 10.5 6.5C11.0523 6.5 11.5 6.94772 11.5 7.5C11.5 8.05228 11.0523 8.5 10.5 8.5C9.94772 8.5 9.5 8.05228 9.5 7.5Z" stroke="#1171BE"/>
<path d="M13.5 5.5C13.5 4.94772 13.9477 4.5 14.5 4.5C15.0523 4.5 15.5 4.94772 15.5 5.5C15.5 6.05228 15.0523 6.5 14.5 6.5C13.9477 6.5 13.5 6.05228 13.5 5.5Z" stroke="#1171BE"/>
<path d="M3.5 10.5C3.5 9.94772 3.94772 9.5 4.5 9.5C5.05228 9.5 5.5 9.94772 5.5 10.5C5.5 11.0523 5.05228 11.5 4.5 11.5C3.94772 11.5 3.5 11.0523 3.5 10.5Z" stroke="#1171BE"/>
<path d="M6.5 12.5C6.5 11.9477 6.94772 11.5 7.5 11.5C8.05228 11.5 8.5 11.9477 8.5 12.5C8.5 13.0523 8.05228 13.5 7.5 13.5C6.94772 13.5 6.5 13.0523 6.5 12.5Z" stroke="#1171BE"/>
<path d="M9.5 19.5C9.5 18.9477 9.94772 18.5 10.5 18.5C11.0523 18.5 11.5 18.9477 11.5 19.5C11.5 20.0523 11.0523 20.5 10.5 20.5C9.94772 20.5 9.5 20.0523 9.5 19.5Z" fill="white"/>
<path d="M13.5 17.5C13.5 16.9477 13.9477 16.5 14.5 16.5C15.0523 16.5 15.5 16.9477 15.5 17.5C15.5 18.0523 15.0523 18.5 14.5 18.5C13.9477 18.5 13.5 18.0523 13.5 17.5Z" fill="white"/>
<path d="M18.5 14.5C18.5 13.9477 18.9477 13.5 19.5 13.5C20.0523 13.5 20.5 13.9477 20.5 14.5C20.5 15.0523 20.0523 15.5 19.5 15.5C18.9477 15.5 18.5 15.0523 18.5 14.5Z" fill="white"/>
<path d="M17.5 9.5C17.5 8.94772 17.9477 8.5 18.5 8.5C19.0523 8.5 19.5 8.94772 19.5 9.5C19.5 10.0523 19.0523 10.5 18.5 10.5C17.9477 10.5 17.5 10.0523 17.5 9.5Z" fill="white"/>
<path d="M9.5 19.5C9.5 18.9477 9.94772 18.5 10.5 18.5C11.0523 18.5 11.5 18.9477 11.5 19.5C11.5 20.0523 11.0523 20.5 10.5 20.5C9.94772 20.5 9.5 20.0523 9.5 19.5Z" stroke="#DD5400"/>
<path d="M13.5 17.5C13.5 16.9477 13.9477 16.5 14.5 16.5C15.0523 16.5 15.5 16.9477 15.5 17.5C15.5 18.0523 15.0523 18.5 14.5 18.5C13.9477 18.5 13.5 18.0523 13.5 17.5Z" stroke="#DD5400"/>
<path d="M18.5 14.5C18.5 13.9477 18.9477 13.5 19.5 13.5C20.0523 13.5 20.5 13.9477 20.5 14.5C20.5 15.0523 20.0523 15.5 19.5 15.5C18.9477 15.5 18.5 15.0523 18.5 14.5Z" stroke="#DD5400"/>
<path d="M17.5 9.5C17.5 8.94772 17.9477 8.5 18.5 8.5C19.0523 8.5 19.5 8.94772 19.5 9.5C19.5 10.0523 19.0523 10.5 18.5 10.5C17.9477 10.5 17.5 10.0523 17.5 9.5Z" stroke="#DD5400"/>
<rect x="0.5" y="0.5" width="22" height="22" rx="2" stroke="var(--mw-icon-border-default-gray, #616161)"/>
</svg>
