<svg width="24" height="24" viewBox="0 0 24 24" fill="none" xmlns="http://www.w3.org/2000/svg">
<path d="M10.5 13.9679C10.5 13.1572 9.8428 12.5 9.03211 12.5H1.96789C1.1572 12.5 0.5 13.1572 0.5 13.9679V21.0321C0.5 21.8428 1.1572 22.5 1.96789 22.5H9.03211C9.8428 22.5 10.5 21.8428 10.5 21.0321V13.9679Z" stroke="var(--mw-icon-border-default-gray, #616161)"/>
<path d="M22.5 13.9679C22.5 13.1572 21.8428 12.5 21.0321 12.5H13.9679C13.1572 12.5 12.5 13.1572 12.5 13.9679V21.0321C12.5 21.8428 13.1572 22.5 13.9679 22.5H21.0321C21.8428 22.5 22.5 21.8428 22.5 21.0321V13.9679Z" stroke="var(--mw-icon-border-default-gray, #616161)"/>
<path d="M22.5 1.96789C22.5 1.1572 21.8428 0.5 21.0321 0.5H13.9679C13.1572 0.5 12.5 1.1572 12.5 1.96789V9.03211C12.5 9.8428 13.1572 10.5 13.9679 10.5H21.0321C21.8428 10.5 22.5 9.8428 22.5 9.03211V1.96789Z" stroke="var(--mw-icon-border-default-gray, #616161)"/>
<path d="M10.5 1.96789C10.5 1.1572 9.8428 0.5 9.03211 0.5H1.96789C1.1572 0.5 0.5 1.1572 0.5 1.96789V9.03211C0.5 9.8428 1.1572 10.5 1.96789 10.5H9.03211C9.8428 10.5 10.5 9.8428 10.5 9.03211V1.96789Z" stroke="var(--mw-icon-border-default-gray, #616161)"/>
</svg>
