<svg width="24" height="24" viewBox="0 0 24 24" fill="none" xmlns="http://www.w3.org/2000/svg">
<rect x="1.5" y="0.5" width="20" height="20" rx="2" fill="var(--mw-icon-background-light-yellow, #FFF5BC)" stroke="var(--mw-icon-border-default-blue, #1656A7)"/>
<path d="M21 22C21.5523 22 22 22.4477 22 23C22 23.5523 21.5523 24 21 24C20.4477 24 20 23.5523 20 23C20 22.4477 20.4477 22 21 22Z" fill="var(--mw-icon-object-primary, #616160)"/>
<path d="M17 22C17.5523 22 18 22.4477 18 23C18 23.5523 17.5523 24 17 24C16.4477 24 16 23.5523 16 23C16 22.4477 16.4477 22 17 22Z" fill="var(--mw-icon-object-primary, #616160)"/>
<path d="M13 22C13.5523 22 14 22.4477 14 23C14 23.5523 13.5523 24 13 24C12.4477 24 12 23.5523 12 23C12 22.4477 12.4477 22 13 22Z" fill="var(--mw-icon-object-primary, #616160)"/>
<path d="M8.6229 17C7.00673 16.5527 6.19865 15.5231 6.19865 13.9111V12.5892C6.19865 11.6547 5.7991 11.1875 5 11.1875V9.81247C5.78114 9.81247 6.1807 9.37183 6.19865 8.49055V7.08227C6.19865 6.26299 6.40067 5.60092 6.80471 5.09607C7.20875 4.59121 7.81482 4.22586 8.6229 4L9 5.06949C8.65881 5.19349 8.40067 5.41049 8.22559 5.72049C8.05051 6.02606 7.95847 6.4512 7.9495 6.99591V8.3909C7.9495 9.39176 7.5477 10.0937 6.74411 10.4967C7.5477 10.9041 7.9495 11.6105 7.9495 12.6157V14.024C7.97194 15.0603 8.32211 15.6936 9 15.9239L8.6229 17Z" fill="var(--mw-icon-glyph-content-blue, #1656A8)"/>
<path d="M14.3771 4C15.9933 4.44728 16.8013 5.47692 16.8013 7.08891V8.41083C16.8013 9.34526 17.2009 9.81247 18 9.81247V11.1875C17.2189 11.1875 16.8193 11.6282 16.8013 12.5095V13.9177C16.8013 14.737 16.5993 15.3991 16.1953 15.9039C15.7912 16.4088 15.1852 16.7741 14.3771 17L14 15.9305C14.3412 15.8065 14.5993 15.5895 14.7744 15.2795C14.9495 14.9739 15.0415 14.5488 15.0505 14.0041V12.6091C15.0505 11.6082 15.4523 10.9063 16.2559 10.5033C15.4523 10.0959 15.0505 9.38954 15.0505 8.38426V6.97598C15.0281 5.9397 14.6779 5.30642 14 5.07614L14.3771 4Z" fill="var(--mw-icon-glyph-content-blue, #1656A8)"/>
</svg>
