<svg width="24" height="24" viewBox="0 0 24 24" fill="none" xmlns="http://www.w3.org/2000/svg">
<rect x="1.5" y="0.5" width="20" height="20" rx="2" fill="var(--mw-icon-background-light-yellow, #FFF5BC)" stroke="var(--mw-icon-border-default-blue, #1656A7)"/>
<path d="M21 22C21.5523 22 22 22.4477 22 23C22 23.5523 21.5523 24 21 24C20.4477 24 20 23.5523 20 23C20 22.4477 20.4477 22 21 22Z" fill="var(--mw-icon-object-primary, #616160)"/>
<path d="M17 22C17.5523 22 18 22.4477 18 23C18 23.5523 17.5523 24 17 24C16.4477 24 16 23.5523 16 23C16 22.4477 16.4477 22 17 22Z" fill="var(--mw-icon-object-primary, #616160)"/>
<path d="M13 22C13.5523 22 14 22.4477 14 23C14 23.5523 13.5523 24 13 24C12.4477 24 12 23.5523 12 23C12 22.4477 12.4477 22 13 22Z" fill="var(--mw-icon-object-primary, #616160)"/>
<path d="M1.5 2.5C1.5 1.39543 2.39543 0.5 3.5 0.5H19.8333C20.7538 0.5 21.5 1.24619 21.5 2.16667V3.5H1.5V2.5Z" fill="var(--mw-icon-background-default-selection, #B4DEFF)"/>
<path d="M3.5 20.5C2.39543 20.5 1.5 19.6046 1.5 18.5L1.5 2.5C1.5 1.39543 2.39543 0.5 3.5 0.5L4.5 0.5V20.5H3.5Z" fill="var(--mw-icon-background-default-selection, #B4DEFF)"/>
<path d="M1.5 2.5C1.5 1.39543 2.39543 0.5 3.5 0.5M1.5 2.5V3.5H21.5V2.16667C21.5 1.24619 20.7538 0.5 19.8333 0.5H3.5M1.5 2.5L1.5 18.5C1.5 19.6046 2.39543 20.5 3.5 20.5H4.5V0.5L3.5 0.5" stroke="var(--mw-icon-border-default-blue, #1656A7)"/>
<path d="M10.5001 1.50002V19.5M16.4996 1.50002V19.5M20.4999 9.49999H1.99988M20.4999 15.5H1.99988M3.49988 3.49998H2.49988" stroke="var(--mw-icon-border-default-blue, #1656A7)" stroke-linecap="square"/>
</svg>
