<svg width="24" height="24" viewBox="0 0 24 24" fill="none" xmlns="http://www.w3.org/2000/svg">
<path d="M20.5 0.5H2.5C1.39543 0.5 0.5 1.39543 0.5 2.5V20.5C0.5 21.6046 1.39543 22.5 2.5 22.5H20.5C21.6046 22.5 22.5 21.6046 22.5 20.5V2.5C22.5 1.39543 21.6046 0.5 20.5 0.5Z" fill="var(--mw-icon-background-default-white, #FFFFFF)" stroke="var(--mw-icon-border-default-gray, #616161)" stroke-linecap="round"/>
<circle cx="11.5" cy="11.5" r="9" fill="var(--mw-icon-background-lightest-blue, #E2F0FF)"/>
<path d="M19.1232 6.71605C20.2981 8.58823 20.743 10.8273 20.373 13.0064C20.0031 15.1855 18.8442 17.1523 17.1173 18.5318C15.3904 19.9113 13.2162 20.6071 11.0092 20.4866C8.8022 20.3661 6.71673 19.4376 5.15032 17.8782C3.58392 16.3188 2.64611 14.2375 2.51568 12.0311C2.38525 9.82466 3.07132 7.64738 4.44309 5.9143C5.81487 4.18121 7.77643 3.01352 9.95386 2.6338C12.1313 2.25409 14.3723 2.68891 16.2497 3.85538" stroke="var(--mw-icon-borderColor-light-blue, #268CDD)" stroke-linecap="round"/>
<circle cx="11.5" cy="11.5" r="1.5" fill="var(--mw-icon-glyph-content-red, #902623)"/>
<path d="M16.5 6.5L14.5 8.5" stroke="var(--mw-icon-glyph-content-blue, #1656A8)" stroke-linecap="square" stroke-linejoin="round"/>
<path d="M17.9975 5V7.99751L15 5H17.9975Z" fill="var(--mw-icon-glyph-content-blue, #1656A8)"/>
<path d="M13.0025 9.99751L13.0025 7L16 9.99751L13.0025 9.99751Z" fill="var(--mw-icon-glyph-content-blue, #1656A8)"/>
<path d="M5.02081 22V18" stroke="var(--mw-icon-glyph-disabled-gray, #888889)" stroke-width="2"/>
<path d="M11 7.02081L8.02081 10V13L10.0208 15H13.0208L16 12.0208" stroke="var(--mw-icon-glyph-content-dark-gray, #333333)" stroke-width="2"/>
<path d="M5 18L9 14" stroke="var(--mw-icon-glyph-content-dark-gray, #333333)" stroke-width="2"/>
<circle cx="5" cy="18" r="1.5" fill="white" stroke="var(--mw-icon-glyph-disabled-gray, #888889)"/>
</svg>
