<svg width="25" height="24" viewBox="0 0 25 24" fill="none" xmlns="http://www.w3.org/2000/svg">
<path d="M1.5 18.5V4.5C1.5 2.29086 3.29086 0.5 5.5 0.5H19.5C21.7091 0.5 23.5 2.29086 23.5 4.5V18.5C23.5 20.7091 21.7091 22.5 19.5 22.5H5.5C3.29086 22.5 1.5 20.7091 1.5 18.5Z" fill="var(--mw-icon-background-default-white, white)"/>
<path d="M1.5 18V15.7097C3.5 16.032 5 14.4205 7 10.875C10.6667 4.375 14.3333 4.375 18 10.875C20 14.4205 21.5 16.032 23.5 15.7097V18H1.5Z" fill="#FFCBCB"/>
<path d="M1.48858 15.75C3.32573 15.7568 5.16288 14.1318 7.00003 10.875C10.6667 4.375 14.3334 4.375 18 10.875C19.8372 14.1318 21.6743 15.7568 23.5115 15.75" stroke="#FF453A" stroke-linecap="round"/>
<path d="M5.5 2.5V20.5" stroke="var(--mw-icon-border-default-gray, #616161)" stroke-linecap="round"/>
<path d="M19.5 2.5V20.5" stroke="var(--mw-icon-border-default-gray, #616161)" stroke-linecap="round"/>
<path d="M12.5 2.5V20.5" stroke="var(--mw-icon-border-default-gray, #616161)" stroke-linecap="round"/>
<path d="M1.5 18.5V4.5C1.5 2.29086 3.29086 0.5 5.5 0.5H19.5C21.7091 0.5 23.5 2.29086 23.5 4.5V18.5C23.5 20.7091 21.7091 22.5 19.5 22.5H5.5C3.29086 22.5 1.5 20.7091 1.5 18.5Z" stroke="#B7312C" stroke-linecap="round"/>

</svg>
