<svg width="24" height="24" viewBox="0 0 24 24" fill="none" xmlns="http://www.w3.org/2000/svg">
<rect x="1.5" y="0.5" width="20" height="20" rx="2" fill="var(--mw-icon-background-light-yellow, #FFF5BC)" stroke="var(--mw-icon-border-default-blue, #1656A7)"/>
<path d="M21 22C21.5523 22 22 22.4477 22 23C22 23.5523 21.5523 24 21 24C20.4477 24 20 23.5523 20 23C20 22.4477 20.4477 22 21 22Z" fill="var(--mw-icon-object-primary, #616160)"/>
<path d="M17 22C17.5523 22 18 22.4477 18 23C18 23.5523 17.5523 24 17 24C16.4477 24 16 23.5523 16 23C16 22.4477 16.4477 22 17 22Z" fill="var(--mw-icon-object-primary, #616160)"/>
<path d="M13 22C13.5523 22 14 22.4477 14 23C14 23.5523 13.5523 24 13 24C12.4477 24 12 23.5523 12 23C12 22.4477 12.4477 22 13 22Z" fill="var(--mw-icon-object-primary, #616160)"/>
<path fill-rule="evenodd" clip-rule="evenodd" d="M6.12951 7.88102C6.82496 7.29098 7.70691 7 8.75086 7C9.83885 7 10.7296 7.27146 11.3828 7.84171C12.036 8.41185 12.3448 9.19214 12.3448 10.1471C12.3448 10.6456 12.1703 11.123 11.8341 11.5755C11.6104 11.8812 11.3308 12.136 10.9973 12.3389C11.3883 12.5296 11.7119 12.7836 11.9629 13.1019C12.3325 13.564 12.5092 14.1197 12.5092 14.7549C12.5092 15.7255 12.1685 16.5241 11.4611 17.1196C10.758 17.7116 9.84742 18 8.75833 18C7.67228 18 6.76111 17.7226 6.05281 17.1516C5.34613 16.5773 5 15.8204 5 14.909V14.6471H7.00119V14.909C7.00119 15.3902 7.16631 15.7486 7.47283 16.0128C7.77869 16.2765 8.19575 16.4188 8.75833 16.4188C9.36651 16.4188 9.78583 16.2715 10.0664 16.0123C10.3509 15.7495 10.5155 15.3533 10.5155 14.7829C10.5155 14.2399 10.3392 13.8618 10.0273 13.607C9.71231 13.3497 9.23691 13.1981 8.55423 13.1891H7.21217V11.6078H8.55394C9.14773 11.599 9.57824 11.454 9.88261 11.1992C10.1864 10.9449 10.3511 10.5951 10.3511 10.119C10.3511 9.55613 10.2008 9.18282 9.95431 8.95091C9.71269 8.72362 9.33131 8.58824 8.75086 8.58824C8.22272 8.58824 7.82918 8.72796 7.53696 8.99036C7.24813 9.24957 7.09087 9.60243 7.09087 10.077V10.3389H5.09716V10.077C5.09716 9.20467 5.43957 8.46596 6.12951 7.88102ZM17.2508 7.09104H17.8333V17.8599H15.8321V9.35097L13.0445 10.3104V8.57089L17.2508 7.09104Z" fill="var(--mw-icon-glyph-content-blue, #1656A8)"/>
<path d="M1.50024 2.5C1.50024 1.39543 2.39567 0.5 3.50024 0.5H19.8336C20.7541 0.5 21.5002 1.24619 21.5002 2.16667V4.5H1.50024V2.5Z" fill="var(--mw-icon-background-default-selection, #B4DEFF)" stroke="var(--mw-icon-border-default-blue, #1656A7)"/>
</svg>
