<svg width="24" height="24" viewBox="0 0 24 24" fill="none" xmlns="http://www.w3.org/2000/svg">
<path d="M0.5 2.5C0.5 1.39543 1.39543 0.5 2.5 0.5H20.5C21.6046 0.5 22.5 1.39543 22.5 2.5V20.5C22.5 21.6046 21.6046 22.5 20.5 22.5H2.5C1.39543 22.5 0.5 21.6046 0.5 20.5V2.5Z" fill="var(--mw-icon-background-default-white, #FFFFFF)" stroke="var(--mw-icon-border-default-gray, #616161)" stroke-linejoin="round"/>
<path d="M8 3.5C8 3.77614 8.22386 4 8.5 4H10.5C10.7761 4 11 3.77614 11 3.5V3.5C11 3.22386 10.7761 3 10.5 3H8.5C8.22386 3 8 3.22386 8 3.5V3.5Z" fill="#D95319"/>
<path d="M12 3.5C12 3.77614 12.2239 4 12.5 4H13.5C13.7761 4 14 3.77614 14 3.5V3.5C14 3.22386 13.7761 3 13.5 3H12.5C12.2239 3 12 3.22386 12 3.5V3.5Z" fill="#D95319"/>
<path d="M17 3.5C17 3.77614 16.7761 4 16.5 4H15.5C15.2239 4 15 3.77614 15 3.5V3.5C15 3.22386 15.2239 3 15.5 3H16.5C16.7761 3 17 3.22386 17 3.5V3.5Z" fill="#D95319"/>
<path d="M18 3.5C18 3.77614 18.2239 4 18.5 4H20.5C20.7761 4 21 3.77614 21 3.5V3.5C21 3.22386 20.7761 3 20.5 3H18.5C18.2239 3 18 3.22386 18 3.5V3.5Z" fill="#D95319"/>
<path d="M21 9.5C21 9.77614 20.7761 10 20.5 10H18.5C18.2239 10 18 9.77614 18 9.5V9.5C18 9.22386 18.2239 9 18.5 9H20.5C20.7761 9 21 9.22386 21 9.5V9.5Z" fill="#D95319"/>
<path d="M15 9.5C15 9.77614 15.2239 10 15.5 10H16.5C16.7761 10 17 9.77614 17 9.5V9.5C17 9.22386 16.7761 9 16.5 9H15.5C15.2239 9 15 9.22386 15 9.5V9.5Z" fill="#D95319"/>
<path d="M19.5 6C19.2239 6 19 5.77614 19 5.5V5.5C19 5.22386 19.2239 5 19.5 5V5C19.7761 5 20 5.22386 20 5.5V5.5C20 5.77614 19.7761 6 19.5 6V6Z" fill="#D95319"/>
<path d="M19.5 7C19.2239 7 19 7.22386 19 7.5V7.5C19 7.77614 19.2239 8 19.5 8V8C19.7761 8 20 7.77614 20 7.5V7.5C20 7.22386 19.7761 7 19.5 7V7Z" fill="#D95319"/>
<path d="M1 16.5H2.5L3.5 19.5L4.5 16.5H6L7.5 3.5L9.5 16.5H10.5L11.5 19.5L12.5 16.5H13.5L14.5 9.5L15.5 16.5H16.5L17.5 19.5L18.5 16.5H19.5L20.5 11.5L21.5 16.5H22" stroke="#0072BD" stroke-linejoin="round"/>
</svg>
