<svg width="24" height="24" viewBox="0 0 24 24" fill="none" xmlns="http://www.w3.org/2000/svg">
<rect x="1.5" y="0.5" width="20" height="20" rx="2" fill="var(--mw-icon-background-light-yellow, #FFF5BC)" stroke="var(--mw-icon-border-default-blue, #1656A7)"/>
<path d="M21 22C21.5523 22 22 22.4477 22 23C22 23.5523 21.5523 24 21 24C20.4477 24 20 23.5523 20 23C20 22.4477 20.4477 22 21 22Z" fill="var(--mw-icon-object-primary, #616160)"/>
<path d="M17 22C17.5523 22 18 22.4477 18 23C18 23.5523 17.5523 24 17 24C16.4477 24 16 23.5523 16 23C16 22.4477 16.4477 22 17 22Z" fill="var(--mw-icon-object-primary, #616160)"/>
<path d="M13 22C13.5523 22 14 22.4477 14 23C14 23.5523 13.5523 24 13 24C12.4477 24 12 23.5523 12 23C12 22.4477 12.4477 22 13 22Z" fill="var(--mw-icon-object-primary, #616160)"/>
<path d="M7.63792 14.2031C8.02989 14.2031 8.34836 14.09 8.59334 13.8638C8.83831 13.6375 8.9657 13.3368 8.9755 12.9614H10.9672C10.9623 13.527 10.8153 14.0463 10.5262 14.5193C10.2371 14.9871 9.84027 15.3522 9.33562 15.6144C8.83587 15.8715 8.28221 16 7.67467 16C6.53797 16 5.64135 15.6221 4.98481 14.8663C4.32827 14.1054 4 13.0566 4 11.7198V11.5733C4 10.2879 4.32582 9.26221 4.97746 8.49614C5.6291 7.73008 6.52327 7.34704 7.65997 7.34704C8.65458 7.34704 9.45076 7.64524 10.0485 8.24165C10.6512 8.8329 10.9574 9.62211 10.9672 10.6093H8.9755C8.9657 10.1774 8.83831 9.82776 8.59334 9.56041C8.34836 9.28792 8.02499 9.15167 7.62322 9.15167C7.12837 9.15167 6.75355 9.3419 6.49878 9.72236C6.2489 10.0977 6.12396 10.7095 6.12396 11.5578V11.7892C6.12396 12.6478 6.2489 13.2648 6.49878 13.6401C6.74865 14.0154 7.12837 14.2031 7.63792 14.2031Z" fill="var(--mw-icon-glyph-content-blue, #1656A8)"/>
<path d="M14.2523 8.41131C14.8158 7.7018 15.5238 7.34704 16.3763 7.34704C18.1009 7.34704 18.9755 8.39846 19 10.5013V15.8458H16.876V10.563C16.876 10.0848 16.7781 9.73265 16.5821 9.50643C16.3861 9.27506 16.0603 9.15938 15.6046 9.15938C14.9824 9.15938 14.5316 9.41131 14.2523 9.91517V15.8458H12.1284V4H14.2523V8.41131Z" fill="var(--mw-icon-glyph-content-blue, #1656A8)"/>
</svg>
