<svg width="24" height="24" viewBox="0 0 24 24" fill="none" xmlns="http://www.w3.org/2000/svg">
<path d="M0.5 18.5V4.5C0.5 2.29086 2.29086 0.5 4.5 0.5H18.5C20.7091 0.5 22.5 2.29086 22.5 4.5V18.5C22.5 20.7091 20.7091 22.5 18.5 22.5H4.5C2.29086 22.5 0.5 20.7091 0.5 18.5Z" fill="var(--mw-icon-background-default-selection, #B4DEFF)"/>
<path d="M0.5 18.5V4.5C0.5 3.39543 1.39543 2.5 2.5 2.5H15.5L20.5 7.5V20.5C20.5 21.6046 19.6046 22.5 18.5 22.5H4.5C2.29086 22.5 0.5 20.7091 0.5 18.5Z" fill="var(--mw-icon-background-default-white, white)"/>
<path d="M1.5 2H1V3H1.5V2ZM20 21.5V22H21V21.5H20ZM15.5 2.5L15.8536 2.14645C15.7598 2.05268 15.6326 2 15.5 2V2.5ZM20.5 7.5H21C21 7.36739 20.9473 7.24021 20.8536 7.14645L20.5 7.5ZM15.5 2H1.5V3H15.5V2ZM21 21.5V7.5H20V21.5H21ZM15.1464 2.85355L20.1464 7.85355L20.8536 7.14645L15.8536 2.14645L15.1464 2.85355ZM16 6.5V2.5H15V6.5H16ZM20.5 7H16.5V8H20.5V7ZM15 6.5C15 7.32843 15.6716 8 16.5 8V7C16.2239 7 16 6.77614 16 6.5H15Z" fill="var(--mw-icon-border-default-gray, #616161)"/>
<path fill-rule="evenodd" clip-rule="evenodd" d="M4.5 11.5L2.5 13.5L4.5 15.5V18.5H7.49996L9.5 20.5L11.5 18.5H14.5V15.5L16.5 13.5L14.5 11.5V8.49996H11.5L9.5 6.5L7.50004 8.49996H4.5V11.5Z" fill="#FFD60A"/>
<path d="M2.5 13.5L2.14645 13.1464L1.79289 13.5L2.14645 13.8536L2.5 13.5ZM4.5 11.5L4.85355 11.8536L5 11.7071V11.5H4.5ZM4.5 15.5H5V15.2929L4.85355 15.1464L4.5 15.5ZM4.5 18.5H4V19H4.5V18.5ZM7.49996 18.5L7.85351 18.1464L7.70707 18H7.49996V18.5ZM9.5 20.5L9.14645 20.8536L9.5 21.2071L9.85355 20.8536L9.5 20.5ZM11.5 18.5V18H11.2929L11.1465 18.1464L11.5 18.5ZM14.5 18.5V19H15V18.5H14.5ZM14.5 15.5L14.1464 15.1464L14 15.2929V15.5H14.5ZM16.5 13.5L16.8536 13.8536L17.2071 13.5L16.8536 13.1464L16.5 13.5ZM14.5 11.5H14V11.7071L14.1464 11.8536L14.5 11.5ZM14.5 8.49996H15V7.99996H14.5V8.49996ZM11.5 8.49996L11.1464 8.85351L11.2929 8.99996H11.5V8.49996ZM9.5 6.5L9.85355 6.14645L9.5 5.79289L9.14645 6.14645L9.5 6.5ZM7.50004 8.49996V8.99996H7.70715L7.85359 8.85351L7.50004 8.49996ZM4.5 8.49996V7.99996H4V8.49996H4.5ZM2.85355 13.8536L4.85355 11.8536L4.14645 11.1464L2.14645 13.1464L2.85355 13.8536ZM4.85355 15.1464L2.85355 13.1464L2.14645 13.8536L4.14645 15.8536L4.85355 15.1464ZM5 18.5V15.5H4V18.5H5ZM7.49996 18H4.5V19H7.49996V18ZM9.85355 20.1464L7.85351 18.1464L7.14641 18.8535L9.14645 20.8536L9.85355 20.1464ZM11.1465 18.1464L9.14645 20.1464L9.85355 20.8536L11.8536 18.8535L11.1465 18.1464ZM14.5 18H11.5V19H14.5V18ZM14 15.5V18.5H15V15.5H14ZM16.1464 13.1464L14.1464 15.1464L14.8536 15.8536L16.8536 13.8536L16.1464 13.1464ZM14.1464 11.8536L16.1464 13.8536L16.8536 13.1464L14.8536 11.1464L14.1464 11.8536ZM14 8.49996V11.5H15V8.49996H14ZM11.5 8.99996H14.5V7.99996H11.5V8.99996ZM9.14645 6.85355L11.1464 8.85351L11.8535 8.14641L9.85355 6.14645L9.14645 6.85355ZM7.85359 8.85351L9.85355 6.85355L9.14645 6.14645L7.14649 8.14641L7.85359 8.85351ZM4.5 8.99996H7.50004V7.99996H4.5V8.99996ZM5 11.5V8.49996H4V11.5H5Z" fill="#8B6606"/>
<path d="M6.5 13.5L8.5 15.5L12.5 11.5" stroke="#453304" stroke-linecap="round" stroke-linejoin="round"/>
<path d="M0.5 18.5V4.5C0.5 2.29086 2.29086 0.5 4.5 0.5H18.5C20.7091 0.5 22.5 2.29086 22.5 4.5V18.5C22.5 20.7091 20.7091 22.5 18.5 22.5H4.5C2.29086 22.5 0.5 20.7091 0.5 18.5Z" stroke="var(--mw-icon-borderColor-light-blue, #268CDD)" stroke-linecap="round"/>

</svg>
