<svg width="24" height="24" viewBox="0 0 24 24" fill="none" xmlns="http://www.w3.org/2000/svg">
<path d="M12.6716 0.5H2.5C1.39543 0.5 0.5 1.39543 0.5 2.5V20.5C0.5 21.6046 1.39543 22.5 2.5 22.5H16.5C17.6046 22.5 18.5 21.6046 18.5 20.5V6.32843C18.5 5.79799 18.2893 5.28929 17.9142 4.91421L14.0858 1.08579C13.7107 0.710714 13.202 0.5 12.6716 0.5Z" fill="var(--mw-icon-background-default-white, #FFFFFF)" stroke="var(--mw-icon-border-default-gray, #616161)" stroke-linecap="round"/>
<path d="M9.5 11.5H13.5V13.5M9.5 11.5V9.5M9.5 11.5H5.5V13.5" stroke="var(--mw-icon-glyph-content-gray, #616162)" stroke-linecap="square" stroke-linejoin="round"/>
<path d="M16.5 17.5V14.5H10.5V17.5H16.5Z" fill="var(--mw-icon-background-medium-blue, #83CAFF)"/>
<path d="M8.5 17.5V14.5H2.5V17.5H8.5Z" fill="var(--mw-icon-background-medium-blue, #83CAFF)"/>
<path d="M16.5 17.5V14.5H10.5V17.5H16.5Z" stroke="var(--mw-icon-glyph-content-blue, #1656A8)" stroke-linecap="square" stroke-linejoin="round"/>
<path d="M8.5 17.5V14.5H2.5V17.5H8.5Z" stroke="var(--mw-icon-glyph-content-blue, #1656A8)" stroke-linecap="square" stroke-linejoin="round"/>
<path d="M12.5 8.5V5.5H6.5V8.5H12.5Z" fill="var(--mw-icon-background-medium-blue, #83CAFF)" stroke="var(--mw-icon-glyph-content-blue, #1656A8)" stroke-linecap="square" stroke-linejoin="round"/>
</svg>
