<svg width="24" height="24" viewBox="0 0 24 24" fill="none" xmlns="http://www.w3.org/2000/svg">
<path d="M13.6716 0.5H2.5C1.39543 0.5 0.5 1.39543 0.5 2.5V21.5C0.5 22.6046 1.39543 23.5 2.5 23.5H17.5C18.6046 23.5 19.5 22.6046 19.5 21.5V6.32843C19.5 5.79799 19.2893 5.28929 18.9142 4.91421L15.0858 1.08579C14.7107 0.710714 14.202 0.5 13.6716 0.5Z" fill="var(--mw-icon-background-default-white, #FFFFFF)" stroke="var(--mw-icon-border-default-gray, #616161)" stroke-linecap="round"/>
<path d="M6.5 9V7C6.5 6.72386 6.72386 6.5 7 6.5H12C12.2761 6.5 12.5 6.72386 12.5 7V9C12.5 9.27614 12.2761 9.5 12 9.5H7C6.72386 9.5 6.5 9.27614 6.5 9Z" fill="var(--mw-icon-background-default-selection, #B4DEFF)" stroke="var(--mw-icon-glyph-content-blue, #1656A8)" stroke-linecap="square"/>
<path d="M9.5 10.5V12.5H5.5V14.5" stroke="var(--mw-icon-glyph-disabled-gray, #888889)" stroke-linecap="square" stroke-linejoin="round"/>
<path d="M9.5 12.5H13.5V14.5" stroke="var(--mw-icon-glyph-disabled-gray, #888889)" stroke-linecap="square" stroke-linejoin="round"/>
<path d="M9.5 12.5V14.5" stroke="var(--mw-icon-glyph-disabled-gray, #888889)" stroke-linecap="square" stroke-linejoin="round"/>
<path d="M3.5 18V16C3.5 15.7239 3.72386 15.5 4 15.5H7C7.27614 15.5 7.5 15.7239 7.5 16V18C7.5 18.2761 7.27614 18.5 7 18.5H4C3.72386 18.5 3.5 18.2761 3.5 18Z" fill="var(--mw-icon-background-default-selection, #B4DEFF)" stroke="var(--mw-icon-glyph-content-blue, #1656A8)" stroke-linecap="square"/>
<path d="M7.5 18.5V15.5H11.5V18.5H7.5Z" fill="var(--mw-icon-background-default-selection, #B4DEFF)" stroke="var(--mw-icon-glyph-content-blue, #1656A8)" stroke-linecap="square"/>
<path d="M11.5 18V16C11.5 15.7239 11.7239 15.5 12 15.5H15C15.2761 15.5 15.5 15.7239 15.5 16V18C15.5 18.2761 15.2761 18.5 15 18.5H12C11.7239 18.5 11.5 18.2761 11.5 18Z" fill="var(--mw-icon-background-default-selection, #B4DEFF)" stroke="var(--mw-icon-glyph-content-blue, #1656A8)" stroke-linecap="square"/>
</svg>
