<svg width="24" height="24" viewBox="0 0 24 24" fill="none" xmlns="http://www.w3.org/2000/svg">
<path d="M13.6716 0.5H2.5C1.39543 0.5 0.5 1.39543 0.5 2.5V21.5C0.5 22.6046 1.39543 23.5 2.5 23.5H17.5C18.6046 23.5 19.5 22.6046 19.5 21.5V6.32843C19.5 5.79799 19.2893 5.28929 18.9142 4.91421L15.0858 1.08579C14.7107 0.710714 14.202 0.5 13.6716 0.5Z" fill="var(--mw-icon-background-default-white, #FFFFFF)" stroke="var(--mw-icon-border-default-gray, #616161)" stroke-linecap="round"/>
<path d="M4.5 10V7C4.5 6.72386 4.72386 6.5 5 6.5H15C15.2761 6.5 15.5 6.72386 15.5 7V10C15.5 10.2761 15.2761 10.5 15 10.5H5C4.72386 10.5 4.5 10.2761 4.5 10Z" fill="var(--mw-icon-background-default-light-gray, #F5F5F5)"/>
<path d="M4.5 14V11C4.5 10.7239 4.72386 10.5 5 10.5H15C15.2761 10.5 15.5 10.7239 15.5 11V14C15.5 14.2761 15.2761 14.5 15 14.5H5C4.72386 14.5 4.5 14.2761 4.5 14Z" fill="var(--mw-icon-background-default-light-gray, #F5F5F5)"/>
<path d="M4.5 18V15C4.5 14.7239 4.72386 14.5 5 14.5H15C15.2761 14.5 15.5 14.7239 15.5 15V18C15.5 18.2761 15.2761 18.5 15 18.5H5C4.72386 18.5 4.5 18.2761 4.5 18Z" fill="var(--mw-icon-background-default-light-gray, #F5F5F5)"/>
<path d="M15 10.5C15.2761 10.5 15.5 10.2761 15.5 10V7C15.5 6.72386 15.2761 6.5 15 6.5H5C4.72386 6.5 4.5 6.72386 4.5 7V10C4.5 10.2761 4.72386 10.5 5 10.5M15 10.5H5M15 10.5C15.2761 10.5 15.5 10.7239 15.5 11V14C15.5 14.2761 15.2761 14.5 15 14.5M5 10.5C4.72386 10.5 4.5 10.7239 4.5 11V14C4.5 14.2761 4.72386 14.5 5 14.5M15 14.5H5M15 14.5C15.2761 14.5 15.5 14.7239 15.5 15V18C15.5 18.2761 15.2761 18.5 15 18.5H5C4.72386 18.5 4.5 18.2761 4.5 18V15C4.5 14.7239 4.72386 14.5 5 14.5" stroke="var(--mw-icon-border-default-gray, #616161)"/>
<path d="M13 8H14V9H13V8Z" fill="var(--mw-icon-glyph-content-green, #008014)"/>
<path d="M13 12H14V13H13V12Z" fill="var(--mw-icon-glyph-content-green, #008014)"/>
<path d="M13 16H14V17H13V16Z" fill="var(--mw-icon-glyph-content-green, #008014)"/>
</svg>
