<svg width="24" height="24" viewBox="0 0 24 24" fill="none" xmlns="http://www.w3.org/2000/svg">
<path d="M13.6716 0.5H2.5C1.39543 0.5 0.5 1.39543 0.5 2.5V21.5C0.5 22.6046 1.39543 23.5 2.5 23.5H17.5C18.6046 23.5 19.5 22.6046 19.5 21.5V6.32843C19.5 5.79799 19.2893 5.28929 18.9142 4.91421L15.0858 1.08579C14.7107 0.710714 14.202 0.5 13.6716 0.5Z" fill="var(--mw-icon-background-default-white, #FFFFFF)" stroke="var(--mw-icon-border-default-gray, #616161)" stroke-linecap="round"/>
<path d="M6.85355 9.85355C7.04882 9.65829 7.04882 9.34171 6.85355 9.14645C6.65829 8.95118 6.34171 8.95118 6.14645 9.14645L6.85355 9.85355ZM3.5 12.5L3.14645 12.1464C2.95118 12.3417 2.95118 12.6583 3.14645 12.8536L3.5 12.5ZM6.14645 15.8536C6.34171 16.0488 6.65829 16.0488 6.85355 15.8536C7.04882 15.6583 7.04882 15.3417 6.85355 15.1464L6.14645 15.8536ZM6.14645 9.14645L3.14645 12.1464L3.85355 12.8536L6.85355 9.85355L6.14645 9.14645ZM3.14645 12.8536L6.14645 15.8536L6.85355 15.1464L3.85355 12.1464L3.14645 12.8536Z" fill="var(--mw-icon-glyph-content-gray, #616162)"/>
<path d="M13.1464 15.1464C12.9512 15.3417 12.9512 15.6583 13.1464 15.8536C13.3417 16.0488 13.6583 16.0488 13.8536 15.8536L13.1464 15.1464ZM16.5 12.5L16.8536 12.8536C16.9473 12.7598 17 12.6326 17 12.5C17 12.3674 16.9473 12.2402 16.8536 12.1464L16.5 12.5ZM13.8536 9.14645C13.6583 8.95119 13.3417 8.95119 13.1464 9.14645C12.9512 9.34171 12.9512 9.65829 13.1464 9.85356L13.8536 9.14645ZM13.8536 15.8536L16.8536 12.8536L16.1464 12.1464L13.1464 15.1464L13.8536 15.8536ZM16.8536 12.1464L13.8536 9.14645L13.1464 9.85356L16.1464 12.8536L16.8536 12.1464Z" fill="var(--mw-icon-glyph-content-gray, #616162)"/>
<path d="M11.9682 8.67556C12.0651 8.417 11.9341 8.1288 11.6756 8.03184C11.417 7.93488 11.1288 8.06588 11.0318 8.32444L11.9682 8.67556ZM8.03184 16.3244C7.93488 16.583 8.06588 16.8712 8.32444 16.9682C8.583 17.0651 8.8712 16.9341 8.96816 16.6756L8.03184 16.3244ZM11.0318 8.32444L8.03184 16.3244L8.96816 16.6756L11.9682 8.67556L11.0318 8.32444Z" fill="var(--mw-icon-glyph-content-gray, #616162)"/>
</svg>
