<svg width="24" height="24" viewBox="0 0 24 24" fill="none" xmlns="http://www.w3.org/2000/svg">
<path d="M13.6716 0.5H2.5C1.39543 0.5 0.5 1.39543 0.5 2.5V21.5C0.5 22.6046 1.39543 23.5 2.5 23.5H17.5C18.6046 23.5 19.5 22.6046 19.5 21.5V6.32843C19.5 5.79799 19.2893 5.28929 18.9142 4.91421L15.0858 1.08579C14.7107 0.710714 14.202 0.5 13.6716 0.5Z" fill="var(--mw-icon-background-default-white, #FFFFFF)" stroke="var(--mw-icon-border-default-gray, #616161)" stroke-linecap="round"/>
<path d="M22.3325 14.7648L18.5085 8.13661C18.338 7.84479 18.0593 7.63191 17.7329 7.54411C17.4066 7.45631 17.0587 7.50066 16.7648 7.66754L10.1366 11.4915C9.84479 11.662 9.63191 11.9407 9.54411 12.2671C9.45631 12.5934 9.50066 12.9413 9.66754 13.2352L13.4915 19.8634C13.662 20.1552 13.9407 20.3681 14.2671 20.4559C14.5934 20.5437 14.9413 20.4993 15.2352 20.3325L21.8634 16.5085C22.1552 16.338 22.3681 16.0593 22.4559 15.7329C22.5437 15.4066 22.4993 15.0587 22.3325 14.7648Z" fill="var(--mw-icon-background-default-medium-gray, #D9D9D9)" stroke="var(--mw-icon-border-default-gray, #616161)"/>
</svg>
