<svg width="24" height="24" viewBox="0 0 24 24" fill="none" xmlns="http://www.w3.org/2000/svg">
<rect x="1.5" y="4.5" width="20" height="14" rx="1" fill="var(--mw-icon-background-default-white, #FFFFFF)" stroke="var(--mw-icon-border-default-gray, #616161)"/>
<path d="M15.5 11.5001H7.5M11.5 7.5V15.5" stroke="var(--mw-icon-glyph-content-gray, #616162)" stroke-linecap="round"/>
<path d="M20.5 5.5V3.5H22.5V5.5H20.5Z" fill="var(--mw-icon-background-default-selection, #B4DEFF)"/>
<path d="M0.5 5.5V3.5H2.5V5.5H0.5Z" fill="var(--mw-icon-background-default-selection, #B4DEFF)"/>
<path d="M0.5 19.5V17.5H2.5V19.5H0.5Z" fill="var(--mw-icon-background-default-selection, #B4DEFF)"/>
<path d="M20.5 19.5V17.5H22.5V19.5H20.5Z" fill="var(--mw-icon-background-default-selection, #B4DEFF)"/>
<path d="M20.5 5.5V3.5H22.5V5.5H20.5Z" stroke="var(--mw-icon-glyph-content-light-blue, #278CDD)" stroke-linecap="round" stroke-linejoin="round"/>
<path d="M0.5 5.5V3.5H2.5V5.5H0.5Z" stroke="var(--mw-icon-glyph-content-light-blue, #278CDD)" stroke-linecap="round" stroke-linejoin="round"/>
<path d="M0.5 19.5V17.5H2.5V19.5H0.5Z" stroke="var(--mw-icon-glyph-content-light-blue, #278CDD)" stroke-linecap="round" stroke-linejoin="round"/>
<path d="M20.5 19.5V17.5H22.5V19.5H20.5Z" stroke="var(--mw-icon-glyph-content-light-blue, #278CDD)" stroke-linecap="round" stroke-linejoin="round"/>
</svg>
