<svg width="24" height="24" viewBox="0 0 24 24" fill="none" xmlns="http://www.w3.org/2000/svg">
<path d="M14.5 4.5C19.5 4.5 23.5 7.5 23.5 10.5C23.5 13.5 18 12.5 16.5 14.5C15 16.5 14.5 19.5 9.5 19.5C7.58333 19.5 0.5 19.5 0.5 14.5C0.5 11.9059 5.07631 13.5395 7.5 9.5C9.41667 6.30556 10.5 4.5 14.5 4.5Z" fill="var(--mw-icon-background-medium-blue, #83CAFF)"/>
<path d="M11 11C11 11.5523 10.5523 12 9.99999 12C9.44771 12 8.99999 11.5523 8.99999 11C8.99999 10.4477 9.44771 10 9.99999 10C10.5523 10 11 10.4477 11 11Z" fill="#0072BD"/>
<path d="M13 10C13 10.5523 12.5523 11 12 11C11.4477 11 11 10.5523 11 10C11 9.44772 11.4477 9 12 9C12.5523 9 13 9.44772 13 10Z" fill="#0072BD"/>
<path d="M13 12C13 12.5523 12.5523 13 12 13C11.4477 13 11 12.5523 11 12C11 11.4477 11.4477 11 12 11C12.5523 11 13 11.4477 13 12Z" fill="#0072BD"/>
<path d="M13 14C13 14.5523 12.5523 15 12 15C11.4477 15 11 14.5523 11 14C11 13.4477 11.4477 13 12 13C12.5523 13 13 13.4477 13 14Z" fill="#0072BD"/>
<path d="M11 13C11 13.5523 10.5523 14 9.99999 14C9.44771 14 8.99999 13.5523 8.99999 13C8.99999 12.4477 9.44771 12 9.99999 12C10.5523 12 11 12.4477 11 13Z" fill="#0072BD"/>
<path d="M15 13C15 13.5523 14.5523 14 14 14C13.4477 14 13 13.5523 13 13C13 12.4477 13.4477 12 14 12C14.5523 12 15 12.4477 15 13Z" fill="#0072BD"/>
<path d="M15 11C15 11.5523 14.5523 12 14 12C13.4477 12 13 11.5523 13 11C13 10.4477 13.4477 10 14 10C14.5523 10 15 10.4477 15 11Z" fill="#0072BD"/>
<path d="M7 15C7 15.5523 6.55228 16 6 16C5.44772 16 5 15.5523 5 15C5 14.4477 5.44772 14 6 14C6.55228 14 7 14.4477 7 15Z" fill="var(--mw-icon-background-lightest-blue, #E2F0FF)"/>
<path d="M10 17C10 17.5523 9.55228 18 9 18C8.44772 18 8 17.5523 8 17C8 16.4477 8.44772 16 9 16C9.55228 16 10 16.4477 10 17Z" fill="var(--mw-icon-background-lightest-blue, #E2F0FF)"/>
<path d="M18 9C18 9.55228 17.5523 10 17 10C16.4477 10 16 9.55228 16 9C16 8.44772 16.4477 8 17 8C17.5523 8 18 8.44772 18 9Z" fill="var(--mw-icon-background-lightest-blue, #E2F0FF)"/>
<path d="M9.5 19.5C7.58333 19.5 0.5 19.5 0.5 14.5C0.5 11.9059 5.07631 13.5395 7.5 9.5C9.41667 6.30556 10.5 4.5 14.5 4.5C19.5 4.5 23.5 7.5 23.5 10.5C23.5 13.5 18 12.5 16.5 14.5" stroke="var(--mw-icon-object-primary, #616160)" stroke-linecap="round" stroke-linejoin="round"/>
</svg>
