<svg width="24" height="24" viewBox="0 0 24 24" fill="none" xmlns="http://www.w3.org/2000/svg">
<path d="M14.5 4.5C19.5 4.5 23.5 7.5 23.5 10.5C23.5 13.5 18 12.5 16.5 14.5C15 16.5 14.5 19.5 9.5 19.5C7.58333 19.5 0.5 19.5 0.5 14.5C0.5 11.9059 5.07631 13.5395 7.5 9.5C9.41667 6.30556 10.5 4.5 14.5 4.5Z" fill="var(--mw-icon-background-medium-blue, #83CAFF)"/>
<path d="M9.5 19.5C7.58333 19.5 0.5 19.5 0.5 14.5C0.5 11.9059 5.07631 13.5395 7.5 9.5C9.41667 6.30556 10.5 4.5 14.5 4.5C19.5 4.5 23.5 7.5 23.5 10.5C23.5 13.5 18 12.5 16.5 14.5" stroke="var(--mw-icon-object-primary, #616160)" stroke-linecap="round" stroke-linejoin="round"/>
</svg>
