<svg width="24" height="24" viewBox="0 0 24 24" fill="none" xmlns="http://www.w3.org/2000/svg">
<path d="M2.5 7.5C2.5 8.05228 2.05228 8.5 1.5 8.5C0.947715 8.5 0.5 8.05228 0.5 7.5C0.5 6.94772 0.947715 6.5 1.5 6.5C2.05228 6.5 2.5 6.94772 2.5 7.5ZM22.5 7.5C22.5 8.05228 22.0523 8.5 21.5 8.5C20.9477 8.5 20.5 8.05228 20.5 7.5C20.5 6.94772 20.9477 6.5 21.5 6.5C22.0523 6.5 22.5 6.94772 22.5 7.5Z" fill="var(--mw-icon-object-primary, #616160)" stroke="var(--mw-icon-object-primary, #616160)"/>
<path d="M1.5 7C1.22386 7 1 7.22386 1 7.5C1 7.77614 1.22386 8 1.5 8V7ZM1.5 8H9V7H1.5V8ZM9 8H14V7H9V8ZM14 8H21.5V7H14V8ZM4 14.5V13H3V14.5H4ZM4 13C4 10.2386 6.23858 8 9 8V7C5.68629 7 3 9.68629 3 13H4ZM20 14.5V13H19V14.5H20ZM20 13C20 9.68629 17.3137 7 14 7V8C16.7614 8 19 10.2386 19 13H20Z" fill="var(--mw-icon-object-primary, #616160)"/>
<rect x="17.5" y="14.5" width="4" height="4" rx="2" stroke="var(--mw-icon-object-primary, #616160)" stroke-linejoin="round"/>
<rect x="1.5" y="14.5" width="4" height="4" rx="2" stroke="var(--mw-icon-object-primary, #616160)" stroke-linejoin="round"/>
<rect x="9.5" y="5.5" width="4" height="4" rx="2" fill="var(--mw-icon-object-secondary, #FFFFFE)" stroke="var(--mw-icon-object-primary, #616160)" stroke-linejoin="round"/>
</svg>
