<svg width="24" height="24" viewBox="0 0 24 24" fill="none" xmlns="http://www.w3.org/2000/svg">
<path d="M0.5 18.5V4.5C0.5 2.29086 2.29086 0.5 4.5 0.5H18.5C20.7091 0.5 22.5 2.29086 22.5 4.5V18.5C22.5 20.7091 20.7091 22.5 18.5 22.5H4.5C2.29086 22.5 0.5 20.7091 0.5 18.5Z" fill="#3AC831"/>
<path d="M4.5 22.5V0.5H18.5V22.5H4.5Z" fill="var(--mw-icon-background-default-dark-gray, #A6A6A6)" stroke="var(--mw-icon-glyph-content-dark-green, #02580E)"/>
<path d="M17 20.3V15.7C17 15.3134 16.6866 15 16.3 15H14.7C14.3134 15 14 15.3134 14 15.7V20.3C14 20.6866 14.3134 21 14.7 21H16.3C16.6866 21 17 20.6866 17 20.3Z" fill="#0072BD"/>
<path d="M9 9.3V4.7C9 4.3134 8.6866 4 8.3 4H6.7C6.3134 4 6 4.3134 6 4.7V9.3C6 9.6866 6.3134 10 6.7 10H8.3C8.6866 10 9 9.6866 9 9.3Z" fill="#D95319"/>
<path d="M11 17H12V15H11V17Z" fill="var(--mw-icon-background-default-white, white)"/>
<path d="M11 21H12V19H11V21Z" fill="var(--mw-icon-background-default-white, white)"/>
<path d="M11 5H12V3H11V5Z" fill="var(--mw-icon-background-default-white, white)"/>
<path d="M11 9H12V7H11V9Z" fill="var(--mw-icon-background-default-white, white)"/>
<path d="M11 13H12V11H11V13Z" fill="var(--mw-icon-background-default-white, white)"/>
<circle r="0.5" transform="matrix(0 -1 -1 0 15.5 12.5)" fill="black" stroke="black"/>
<path d="M19.5095 8.45704C19.1328 7.7176 18.5589 7.09674 17.8512 6.66312C17.1436 6.2295 16.3299 6 15.5 6C14.6701 6 13.8564 6.2295 13.1488 6.66312C12.4412 7.09674 11.8672 7.7176 11.4905 8.45704" stroke="black" stroke-linecap="round"/>
<path d="M17.7275 10.365C17.5182 9.95422 17.1994 9.6093 16.8062 9.3684C16.4131 9.1275 15.9611 9 15.5 9C15.0389 9 14.5869 9.1275 14.1938 9.3684C13.8006 9.6093 13.4818 9.95422 13.2725 10.365" stroke="black" stroke-linecap="round"/>
<path d="M0.5 18.5V4.5C0.5 2.29086 2.29086 0.5 4.5 0.5H18.5C20.7091 0.5 22.5 2.29086 22.5 4.5V18.5C22.5 20.7091 20.7091 22.5 18.5 22.5H4.5C2.29086 22.5 0.5 20.7091 0.5 18.5Z" stroke="var(--mw-icon-border-disabled-gray, #888888)" stroke-linecap="round"/>

</svg>
