<svg width="24" height="24" viewBox="0 0 24 24" fill="none" xmlns="http://www.w3.org/2000/svg">
<path d="M0.5 4.5C0.5 2.29086 2.29086 0.5 4.5 0.5H18.5C20.7091 0.5 22.5 2.29086 22.5 4.5V18.5C22.5 20.7091 20.7091 22.5 18.5 22.5H4.5C2.29086 22.5 0.5 20.7091 0.5 18.5V4.5Z" fill="#00A3A3"/>
<path d="M1 6.5H22" stroke="var(--mw-icon-background-default-white, #FFFFFF)"/>
<path d="M11.5 6V1" stroke="white"/>
<path d="M13.5 6V3" stroke="white"/>
<path d="M9.5 6V3" stroke="white"/>
<path d="M15.5 7V9" stroke="white"/>
<path d="M7.5 7V9" stroke="white"/>
<path d="M17.5 6V5" stroke="white"/>
<path d="M5.5 6V5" stroke="white"/>
<path d="M19.5 7V8M3.5 7V8" stroke="white"/>
<path d="M0.5 10.5C0.5 10.5 1.09194 13.5 2.5 13.5C3.90806 13.5 3.09194 10.5 4.5 10.5C5.90806 10.5 5.09194 13.5 6.5 13.5C7.90806 13.5 7.09194 10.5 8.5 10.5C9.90806 10.5 9.09194 13.5 10.5 13.5C11.9081 13.5 11.0919 10.5 12.5 10.5C13.9081 10.5 13.0919 13.5 14.5 13.5C15.9081 13.5 15.0919 10.5 16.5 10.5C17.9081 10.5 17.0919 13.5 18.5 13.5C19.9081 13.5 19.0935 10.433 20.5 10.5C21.6033 10.5525 22.5 12.5 22.5 12.5" stroke="white" stroke-linejoin="round"/>
<path d="M15.5 20.5H15C15 20.7761 15.2239 21 15.5 21V20.5ZM16 16.5C16 16.2239 15.7761 16 15.5 16C15.2239 16 15 16.2239 15 16.5H16ZM18.5 21C18.7761 21 19 20.7761 19 20.5C19 20.2239 18.7761 20 18.5 20V21ZM16 20.5V16.5H15V20.5H16ZM15.5 21H18.5V20H15.5V21Z" fill="var(--mw-icon-background-default-white, #FFFFFF)"/>
<path d="M10.5 16.5V20.5H11.5C12.6046 20.5 13.5 19.6046 13.5 18.5C13.5 17.3954 12.6046 16.5 11.5 16.5H10.5Z" stroke="white" stroke-linecap="round" stroke-linejoin="round"/>
<path d="M5.5 18.5V16.5M5.5 18.5H8.5M5.5 18.5V20.5M8.5 18.5V16.5M8.5 18.5V20.5" stroke="white" stroke-linecap="round" stroke-linejoin="round"/>
<path d="M0.5 4.5C0.5 2.29086 2.29086 0.5 4.5 0.5H18.5C20.7091 0.5 22.5 2.29086 22.5 4.5V18.5C22.5 20.7091 20.7091 22.5 18.5 22.5H4.5C2.29086 22.5 0.5 20.7091 0.5 18.5V4.5Z" stroke="#02555C"/>
</svg>
