<svg width="24" height="24" viewBox="0 0 24 24" fill="none" xmlns="http://www.w3.org/2000/svg">
<rect x="0.5" y="0.5" width="15" height="15" rx="1" fill="var(--mw-icon-background-light-yellow, #FFF5BC)" stroke="var(--mw-icon-border-default-blue, #1656A7)"/>
<path d="M3 3H5V5H3V3Z" fill="var(--mw-icon-glyph-content-blue, #1656A8)"/>
<path d="M7 3H9V5H7V3Z" fill="var(--mw-icon-background-default-dark-gray, #A6A6A6)"/>
<path d="M11 3H13V5H11V3Z" fill="var(--mw-icon-background-default-dark-gray, #A6A6A6)"/>
<path d="M3 7H5V9H3V7Z" fill="var(--mw-icon-border-default-blue, #1656A7)"/>
<path d="M7 7H9V9H7V7Z" fill="var(--mw-icon-background-default-dark-gray, #A6A6A6)"/>
<path d="M11 7H13V9H11V7Z" fill="var(--mw-icon-background-default-dark-gray, #A6A6A6)"/>
<path d="M3 11H5V13H3V11Z" fill="var(--mw-icon-background-default-dark-gray, #A6A6A6)"/>
<path d="M7 11H9V13H7V11Z" fill="var(--mw-icon-background-default-dark-gray, #A6A6A6)"/>
<rect x="8.5" y="8.5" width="15" height="15" rx="1" fill="var(--mw-icon-background-light-yellow, #FFF5BC)" stroke="var(--mw-icon-border-default-blue, #1656A7)"/>
<path d="M11 11H13V13H11V11Z" fill="var(--mw-icon-glyph-content-blue, #1656A8)"/>
<path d="M11 15H13V17H11V15Z" fill="var(--mw-icon-glyph-content-blue, #1656A8)"/>
</svg>
