<svg width="24" height="24" viewBox="0 0 24 24" fill="none" xmlns="http://www.w3.org/2000/svg">
<path d="M0.5 18.5V4.5C0.5 2.29086 2.29086 0.5 4.5 0.5H18.5C20.7091 0.5 22.5 2.29086 22.5 4.5V18.5C22.5 20.7091 20.7091 22.5 18.5 22.5H4.5C2.29086 22.5 0.5 20.7091 0.5 18.5Z" fill="var(--mw-icon-background-default-white, white)"/>
<path d="M1 3.5H22" stroke="var(--mw-icon-background-default-medium-gray, #D9D9D9)" stroke-linecap="round"/>
<path d="M1 8.5H22" stroke="var(--mw-icon-background-default-medium-gray, #D9D9D9)" stroke-linecap="round"/>
<path d="M1 13.5H22" stroke="var(--mw-icon-background-default-medium-gray, #D9D9D9)" stroke-linecap="round"/>
<path d="M1 18.5H22" stroke="var(--mw-icon-background-default-medium-gray, #D9D9D9)" stroke-linecap="round"/>
<path d="M4.5 22L4.5 1" stroke="var(--mw-icon-background-default-medium-gray, #D9D9D9)" stroke-linecap="round"/>
<path d="M9.5 22L9.5 1" stroke="var(--mw-icon-background-default-medium-gray, #D9D9D9)" stroke-linecap="round"/>
<path d="M14.5 22.5L14.5 0.5" stroke="var(--mw-icon-background-default-medium-gray, #D9D9D9)" stroke-linecap="round"/>
<path d="M19.5 22V1" stroke="var(--mw-icon-background-default-medium-gray, #D9D9D9)" stroke-linecap="round"/>
<path d="M3 17.5C3 17.2239 2.77614 17 2.5 17C2.22386 17 2 17.2239 2 17.5H3ZM2.5 19.5H2C2 19.7761 2.22386 20 2.5 20V19.5ZM20.5 19.5V20C20.7761 20 21 19.7761 21 19.5H20.5ZM21 17.5C21 17.2239 20.7761 17 20.5 17C20.2239 17 20 17.2239 20 17.5H21ZM6 17.5C6 17.2239 5.77614 17 5.5 17C5.22386 17 5 17.2239 5 17.5H6ZM8 19.5C8 19.7761 8.22386 20 8.5 20C8.77614 20 9 19.7761 9 19.5H8ZM9 17.5C9 17.2239 8.77614 17 8.5 17C8.22386 17 8 17.2239 8 17.5H9ZM11 19.5C11 19.7761 11.2239 20 11.5 20C11.7761 20 12 19.7761 12 19.5H11ZM12 17.5C12 17.2239 11.7761 17 11.5 17C11.2239 17 11 17.2239 11 17.5H12ZM14 19.5C14 19.7761 14.2239 20 14.5 20C14.7761 20 15 19.7761 15 19.5H14ZM15 17.5C15 17.2239 14.7761 17 14.5 17C14.2239 17 14 17.2239 14 17.5H15ZM17 19.5C17 19.7761 17.2239 20 17.5 20C17.7761 20 18 19.7761 18 19.5H17ZM18 17.5C18 17.2239 17.7761 17 17.5 17C17.2239 17 17 17.2239 17 17.5H18ZM2 17.5V19.5H3V17.5H2ZM21 19.5V17.5H20V19.5H21ZM2.5 20H5.5V19H2.5V20ZM5.5 20H20.5V19H5.5V20ZM6 19.5V17.5H5V19.5H6ZM9 19.5V17.5H8V19.5H9ZM12 19.5V17.5H11V19.5H12ZM15 19.5V17.5H14V19.5H15ZM18 19.5V17.5H17V19.5H18Z" fill="var(--mw-icon-border-default-green, #008013)"/>
<path d="M2.5 15.5L4.5 7.5L5.5 14.5L9.5 4.5L11.5 10.5L13.5 5.5L15.5 14.5L18.5 2.5L20.5 6.5" stroke="var(--mw-icon-glyph-content-dark-blue, #104280)" stroke-linecap="round" stroke-linejoin="round"/>
<path d="M0.5 18.5V4.5C0.5 2.29086 2.29086 0.5 4.5 0.5H18.5C20.7091 0.5 22.5 2.29086 22.5 4.5V18.5C22.5 20.7091 20.7091 22.5 18.5 22.5H4.5C2.29086 22.5 0.5 20.7091 0.5 18.5Z" stroke="#3AC831" stroke-linecap="round"/>

</svg>
