<svg width="24" height="24" viewBox="0 0 24 24" fill="none" xmlns="http://www.w3.org/2000/svg">
<path d="M0.5 18.5V4.5C0.5 2.29086 2.29086 0.5 4.5 0.5H18.5C20.7091 0.5 22.5 2.29086 22.5 4.5V18.5C22.5 20.7091 20.7091 22.5 18.5 22.5H4.5C2.29086 22.5 0.5 20.7091 0.5 18.5Z" fill="#00A3A3"/>
<path d="M4.5 15V21" stroke="var(--mw-icon-background-default-white, white)"/>
<path d="M4 15.5H8" stroke="var(--mw-icon-background-default-white, white)"/>
<path d="M4 20.5H8M4 17.5H7" stroke="var(--mw-icon-background-default-white, white)"/>
<path d="M10.5 15V21" stroke="var(--mw-icon-background-default-white, white)"/>
<path d="M11 21C11.9283 21 12.8185 20.6839 13.4749 20.1213C14.1313 19.5587 14.5 18.7956 14.5 18C14.5 17.2044 14.1313 16.4413 13.4749 15.8787C12.8185 15.3161 11.9283 15 11 15L11 15.937C11.6383 15.937 12.2505 16.1544 12.7019 16.5412C13.1533 16.9281 13.4068 17.4529 13.4068 18C13.4068 18.5471 13.1533 19.0719 12.7019 19.4588C12.2505 19.8456 11.6383 20.063 11 20.063L11 21Z" fill="var(--mw-icon-background-default-white, white)"/>
<path d="M16.5 15V21" stroke="var(--mw-icon-background-default-white, white)"/>
<path d="M16 15.5H20" stroke="var(--mw-icon-background-default-white, white)"/>
<path d="M16 17.5H19" stroke="var(--mw-icon-background-default-white, white)"/>
<path d="M0.5 11C1.54762 9 2.59524 9 3.64286 11C4.69048 13 5.7381 13 6.78571 11C7.83333 9 8.88095 9 9.92857 11C10.9762 13 12.0238 13 13.0714 11C14.119 9 15.1667 9 16.2143 11C17.2619 13 18.3095 13 19.3571 11C20.4048 9 21.4524 9 22.5 11" stroke="var(--mw-icon-background-default-white, white)"/>
<path d="M6.5 9V4" stroke="var(--mw-icon-background-default-white, white)"/>
<path d="M17.5 9V4" stroke="var(--mw-icon-background-default-white, white)"/>
<path d="M16.5 4V1" stroke="var(--mw-icon-background-default-white, white)"/>
<path d="M5.5 4V1" stroke="var(--mw-icon-background-default-white, white)"/>
<path d="M4.5 6V3" stroke="var(--mw-icon-background-default-white, white)"/>
<path d="M15.5 6V3" stroke="var(--mw-icon-background-default-white, white)"/>
<path d="M1 4.5H22" stroke="var(--mw-icon-background-default-white, white)"/>
<path d="M0.5 18.5V4.5C0.5 2.29086 2.29086 0.5 4.5 0.5H18.5C20.7091 0.5 22.5 2.29086 22.5 4.5V18.5C22.5 20.7091 20.7091 22.5 18.5 22.5H4.5C2.29086 22.5 0.5 20.7091 0.5 18.5Z" stroke="#02555C" stroke-linecap="round"/>

</svg>
