<svg width="24" height="24" viewBox="0 0 24 24" fill="none" xmlns="http://www.w3.org/2000/svg">
<path d="M0.5 11.5H18.5V16.5C18.5 17.6046 17.6046 18.5 16.5 18.5H2.5C1.39543 18.5 0.5 17.6046 0.5 16.5V11.5Z" fill="var(--mw-icon-background-default-medium-gray, #D9D9D9)" stroke="var(--mw-icon-border-default-gray, #616161)"/>
<path d="M2 14C2 13.4477 2.44772 13 3 13V13C3.55228 13 4 13.4477 4 14V14C4 14.5523 3.55228 15 3 15V15C2.44772 15 2 14.5523 2 14V14Z" fill="var(--mw-icon-glyph-content-green, #008014)"/>
<path d="M6.5 13.5H14.5M6.5 15.5H11.5" stroke="var(--mw-icon-glyph-content-gray, #616162)" stroke-linecap="round"/>
<path d="M0.5 11.5002H18.5V1.50017C18.5 0.947883 18.0523 0.500168 17.5 0.500168H1.5C0.947716 0.500168 0.5 0.947883 0.5 1.50017V11.5002Z" fill="var(--mw-icon-background-default-white, #FFFFFF)"/>
<path d="M0.5 6.49112C3.53472 1.16973 6.46528 1.16957 9.5 6.49097C12 10.5241 15.4653 10.8039 18.5 5.48248" stroke="#1171BE" stroke-linecap="round"/>
<path d="M0.5 11.5H18.5V2.5C18.5 1.39543 17.6046 0.5 16.5 0.5H2.5C1.39543 0.5 0.5 1.39543 0.5 2.5V11.5Z" stroke="var(--mw-icon-border-default-gray, #616161)"/>
<path d="M21.5 15.5L18.5 12.5L20.5 10.5L23.5 13.5L21.5 15.5Z" fill="var(--mw-icon-background-red, #FF9D9A)" stroke="var(--mw-icon-border-default-red, #902622)" stroke-linejoin="round"/>
<path d="M21.5 15.5L13.5 23.5H10.5V20.5L18.5 12.5L21.5 15.5Z" fill="var(--mw-icon-background-default-highlight, #FFE864)" stroke="#674C06" stroke-linejoin="round"/>
</svg>
