<svg width="24" height="24" viewBox="0 0 24 24" fill="none" xmlns="http://www.w3.org/2000/svg">
<rect x="0.5" y="0.5" width="18" height="18" rx="2" fill="var(--mw-icon-background-default-white, #FFFFFF)" stroke="var(--mw-icon-border-default-gray, #616161)"/>
<path d="M5.30104 11.1377C5.30104 11.0067 5.28378 10.8897 5.24927 10.7868C5.21741 10.6807 5.15769 10.5856 5.07008 10.5013C4.98513 10.414 4.86435 10.3298 4.70772 10.2487C4.55376 10.1644 4.35466 10.0771 4.11043 9.98663C3.83966 9.88681 3.58747 9.77451 3.35386 9.64973C3.12025 9.52496 2.91452 9.3799 2.73666 9.21457C2.56145 9.04924 2.42474 8.85896 2.32652 8.64372C2.2283 8.42536 2.17919 8.17268 2.17919 7.8857C2.17919 7.60495 2.22963 7.34915 2.3305 7.11832C2.43403 6.88748 2.58004 6.68939 2.76852 6.52406C2.95699 6.35561 3.17866 6.22616 3.4335 6.1357C3.691 6.04523 3.97505 6 4.28564 6C4.71569 6 5.08734 6.09202 5.40058 6.27607C5.71649 6.46012 5.96071 6.70967 6.13326 7.02473C6.30581 7.33979 6.39209 7.69385 6.39209 8.0869H5.30104C5.30104 7.87478 5.26254 7.68761 5.18556 7.5254C5.11123 7.36319 4.99708 7.23529 4.84311 7.14171C4.6918 7.04813 4.50066 7.00134 4.26971 7.00134C4.04672 7.00134 3.8609 7.04033 3.71224 7.11832C3.56623 7.1963 3.45607 7.30236 3.38174 7.4365C3.31006 7.57063 3.27422 7.72037 3.27422 7.8857C3.27422 8.01047 3.29944 8.12277 3.34988 8.22259C3.40032 8.3193 3.47598 8.41132 3.57685 8.49866C3.67773 8.58289 3.8025 8.66243 3.95115 8.7373C4.10247 8.80905 4.27767 8.88079 4.47677 8.95254C4.79533 9.06484 5.07406 9.18962 5.31298 9.32687C5.55455 9.46413 5.75498 9.6201 5.91426 9.79479C6.07619 9.96947 6.19697 10.166 6.27661 10.3844C6.35891 10.6027 6.40005 10.8507 6.40005 11.1283C6.40005 11.4216 6.35094 11.6836 6.25272 11.9144C6.1545 12.1453 6.0138 12.3418 5.83063 12.504C5.64746 12.6662 5.42713 12.7894 5.16963 12.8737C4.91479 12.9579 4.62941 13 4.31351 13C4.03212 13 3.75338 12.9563 3.4773 12.869C3.20388 12.7785 2.95567 12.6444 2.73268 12.4666C2.50969 12.2857 2.33183 12.0579 2.1991 11.7834C2.06637 11.5058 2 11.1814 2 10.8102H3.09902C3.09902 11.0254 3.12822 11.2094 3.18662 11.3623C3.24768 11.512 3.33263 11.6352 3.44147 11.732C3.55296 11.8255 3.68304 11.8942 3.8317 11.9378C3.98036 11.9815 4.14096 12.0033 4.31351 12.0033C4.5365 12.0033 4.71967 11.9675 4.86302 11.8957C5.00903 11.8209 5.11787 11.7179 5.18954 11.5869C5.26387 11.4559 5.30104 11.3061 5.30104 11.1377Z" fill="var(--mw-icon-glyph-content-dark-gray, #333333)"/>
<path d="M11.9389 9.32687V9.67781C11.9389 10.1925 11.8805 10.6557 11.7637 11.0675C11.6469 11.4762 11.481 11.824 11.266 12.111C11.051 12.398 10.7948 12.6179 10.4975 12.7707C10.2002 12.9236 9.86966 13 9.50597 13C9.1476 13 8.81842 12.9236 8.51845 12.7707C8.22113 12.6179 7.96363 12.398 7.74595 12.111C7.52827 11.824 7.3597 11.4762 7.24024 11.0675C7.12079 10.6557 7.06106 10.1925 7.06106 9.67781V9.32687C7.06106 8.80905 7.12079 8.34581 7.24024 7.93717C7.3597 7.52852 7.52694 7.1807 7.74197 6.89372C7.95699 6.60361 8.21317 6.38213 8.51049 6.22928C8.81046 6.07643 9.13963 6 9.49801 6C9.86169 6 10.1922 6.07643 10.4895 6.22928C10.7868 6.38213 11.043 6.60361 11.258 6.89372C11.4757 7.1807 11.643 7.52852 11.7598 7.93717C11.8792 8.34581 11.9389 8.80905 11.9389 9.32687ZM10.832 9.67781V9.31751C10.832 8.9463 10.8028 8.62032 10.7444 8.33957C10.686 8.0557 10.5997 7.81707 10.4855 7.62366C10.3714 7.43026 10.2307 7.28521 10.0634 7.1885C9.8962 7.08868 9.70772 7.03877 9.49801 7.03877C9.28564 7.03877 9.09716 7.08868 8.93257 7.1885C8.77064 7.28521 8.6326 7.43026 8.51845 7.62366C8.4043 7.81707 8.3167 8.0557 8.25564 8.33957C8.19724 8.62032 8.16804 8.9463 8.16804 9.31751V9.67781C8.16804 10.0459 8.19724 10.3719 8.25564 10.6557C8.3167 10.9396 8.4043 11.1798 8.51845 11.3763C8.63525 11.5697 8.77595 11.7164 8.94054 11.8162C9.10512 11.916 9.2936 11.9659 9.50597 11.9659C9.71834 11.9659 9.90682 11.916 10.0714 11.8162C10.236 11.7164 10.374 11.5697 10.4855 11.3763C10.5997 11.1798 10.686 10.9396 10.7444 10.6557C10.8028 10.3719 10.832 10.0459 10.832 9.67781Z" fill="var(--mw-icon-glyph-content-dark-gray, #333333)"/>
<path d="M15.901 11.1377C15.901 11.0067 15.8837 10.8897 15.8492 10.7868C15.8174 10.6807 15.7576 10.5856 15.67 10.5013C15.5851 10.414 15.4643 10.3298 15.3077 10.2487C15.1537 10.1644 14.9546 10.0771 14.7104 9.98663C14.4396 9.88681 14.1874 9.77451 13.9538 9.64973C13.7202 9.52496 13.5145 9.3799 13.3366 9.21457C13.1614 9.04924 13.0247 8.85896 12.9265 8.64372C12.8282 8.42536 12.7791 8.17268 12.7791 7.8857C12.7791 7.60495 12.8296 7.34915 12.9304 7.11832C13.034 6.88748 13.18 6.68939 13.3685 6.52406C13.5569 6.35561 13.7786 6.22616 14.0334 6.1357C14.2909 6.04523 14.575 6 14.8856 6C15.3156 6 15.6873 6.09202 16.0005 6.27607C16.3164 6.46012 16.5607 6.70967 16.7332 7.02473C16.9058 7.33979 16.992 7.69385 16.992 8.0869H15.901C15.901 7.87478 15.8625 7.68761 15.7855 7.5254C15.7112 7.36319 15.597 7.23529 15.4431 7.14171C15.2917 7.04813 15.1006 7.00134 14.8697 7.00134C14.6467 7.00134 14.4608 7.04033 14.3122 7.11832C14.1662 7.1963 14.056 7.30236 13.9817 7.4365C13.91 7.57063 13.8742 7.72037 13.8742 7.8857C13.8742 8.01047 13.8994 8.12277 13.9498 8.22259C14.0003 8.3193 14.0759 8.41132 14.1768 8.49866C14.2777 8.58289 14.4024 8.66243 14.5511 8.7373C14.7024 8.80905 14.8776 8.88079 15.0767 8.95254C15.3953 9.06484 15.674 9.18962 15.9129 9.32687C16.1545 9.46413 16.3549 9.6201 16.5142 9.79479C16.6761 9.96947 16.7969 10.166 16.8766 10.3844C16.9589 10.6027 17 10.8507 17 11.1283C17 11.4216 16.9509 11.6836 16.8527 11.9144C16.7544 12.1453 16.6138 12.3418 16.4306 12.504C16.2474 12.6662 16.0271 12.7894 15.7696 12.8737C15.5147 12.9579 15.2294 13 14.9135 13C14.6321 13 14.3533 12.9563 14.0772 12.869C13.8038 12.7785 13.5556 12.6444 13.3326 12.4666C13.1096 12.2857 12.9318 12.0579 12.799 11.7834C12.6663 11.5058 12.5999 11.1814 12.5999 10.8102H13.699C13.699 11.0254 13.7282 11.2094 13.7866 11.3623C13.8476 11.512 13.9326 11.6352 14.0414 11.732C14.1529 11.8255 14.283 11.8942 14.4316 11.9378C14.5803 11.9815 14.7409 12.0033 14.9135 12.0033C15.1364 12.0033 15.3196 11.9675 15.463 11.8957C15.609 11.8209 15.7178 11.7179 15.7895 11.5869C15.8638 11.4559 15.901 11.3061 15.901 11.1377Z" fill="var(--mw-icon-glyph-content-dark-gray, #333333)"/>
<path d="M21.5 15.5L18.5 12.5L20.5 10.5L23.5 13.5L21.5 15.5Z" fill="var(--mw-icon-background-red, #FF9D9A)" stroke="var(--mw-icon-border-default-red, #902622)" stroke-linejoin="round"/>
<path d="M21.5 15.5L13.5 23.5H10.5V20.5L18.5 12.5L21.5 15.5Z" fill="var(--mw-icon-background-default-highlight, #FFE864)" stroke="#674C06" stroke-linejoin="round"/>
</svg>
