<svg width="24" height="23" viewBox="0 0 24 23" fill="none" xmlns="http://www.w3.org/2000/svg">
<path d="M0.5 2.5C0.5 1.39543 1.39543 0.5 2.5 0.5H16.5C17.6046 0.5 18.5 1.39543 18.5 2.5V16.5C18.5 17.6046 17.6046 18.5 16.5 18.5H2.5C1.39543 18.5 0.5 17.6046 0.5 16.5V2.5Z" fill="var(--mw-icon-background-default-white, #FFFFFF)"/>
<path d="M0.5 3.5H5.40909L13.5909 15.5H18.5" stroke="#0072BD"/>
<path d="M1 3.5H3M4 3.51515H4.5M4.5 3.51515H5M4.5 3.51515V3M4.5 3.51515V5M7 15.5H9M5 15.5H6M16 15.5H18M10 15.5H12M8 3.51515H10M5 3.5H7M4.5 6V8M4.5 10V12M4.5 14V16M13.5 10V12M13.5 14V16M13.5 7V9M13.5 4V6M11 3.5H14" stroke="#D95319"/>
<path d="M0.5 2.5C0.5 1.39543 1.39543 0.5 2.5 0.5H16.5C17.6046 0.5 18.5 1.39543 18.5 2.5V16.5C18.5 17.6046 17.6046 18.5 16.5 18.5H2.5C1.39543 18.5 0.5 17.6046 0.5 16.5V2.5Z" stroke="var(--mw-icon-border-default-gray, #616161)" stroke-linejoin="round"/>
<path d="M21.5 14.5L18.5 11.5L20.5 9.5L23.5 12.5L21.5 14.5Z" fill="var(--mw-icon-background-red, #FF9D9A)" stroke="var(--mw-icon-border-default-red, #902622)" stroke-linejoin="round"/>
<path d="M21.5 14.5L13.5 22.5H10.5V19.5L18.5 11.5L21.5 14.5Z" fill="var(--mw-icon-background-default-highlight, #FFE864)" stroke="#674C06" stroke-linejoin="round"/>
</svg>
