<svg width="24" height="24" viewBox="0 0 24 24" fill="none" xmlns="http://www.w3.org/2000/svg">
<path d="M21.5 15.5L18.5 12.5L20.5 10.5L23.5 13.5L21.5 15.5Z" fill="var(--mw-icon-background-red, #FF9D9A)" stroke="var(--mw-icon-border-default-red, #902622)" stroke-linejoin="round"/>
<path d="M21.5 15.5L13.5 23.5H10.5V20.5L18.5 12.5L21.5 15.5Z" fill="var(--mw-icon-background-default-highlight, #FFE864)" stroke="#674C06" stroke-linejoin="round"/>
<path d="M4.5 12.5C4.5 13.6046 3.60457 14.5 2.5 14.5C1.39543 14.5 0.5 13.6046 0.5 12.5C0.5 11.3954 1.39543 10.5 2.5 10.5C3.60457 10.5 4.5 11.3954 4.5 12.5Z" stroke="var(--mw-icon-object-primary, #616160)"/>
<path d="M10.5 12.5C10.5 13.6046 9.60457 14.5 8.5 14.5C7.39543 14.5 6.5 13.6046 6.5 12.5C6.5 11.3954 7.39543 10.5 8.5 10.5C9.60457 10.5 10.5 11.3954 10.5 12.5Z" stroke="var(--mw-icon-object-primary, #616160)"/>
<path d="M0 4L2.5 6.55871e-08L5 4H3V9H2V4H0Z" fill="var(--mw-icon-object-primary, #616160)"/>
<path d="M6 5L8.5 9L11 5H9V0L8 1.19248e-08L8 5H6Z" fill="var(--mw-icon-object-primary, #616160)"/>
</svg>
