<svg width="24" height="24" viewBox="0 0 24 24" fill="none" xmlns="http://www.w3.org/2000/svg">
<path d="M3.5 3.5H18.5L18.5 17.4999C18.5 18.0522 18.0523 18.4999 17.5 18.4999L3.5 18.5V3.5Z" fill="var(--mw-icon-background-default-white, #FFFFFF)" stroke="var(--mw-icon-border-default-gray, #616161)"/>
<path d="M3.5 0.5H17.5C18.0523 0.5 18.5 0.947715 18.5 1.5L18.5 3.5H3.5V0.5Z" fill="var(--mw-icon-background-default-selection, #B4DEFF)"/>
<path d="M1.5 18.5C0.947716 18.5 0.500001 18.0523 0.500001 17.5L0.5 1.50001C0.5 0.947729 0.947711 0.500017 1.49999 0.500013L3.5 0.5L3.5 18.5H1.5Z" fill="var(--mw-icon-background-default-selection, #B4DEFF)"/>
<path d="M3.5 0.5H17.5C18.0523 0.5 18.5 0.947715 18.5 1.5L18.5 3.5H3.5V0.5ZM3.5 0.5L1.49999 0.500013C0.947711 0.500017 0.5 0.947729 0.5 1.50001L0.500001 17.5C0.500001 18.0523 0.947716 18.5 1.5 18.5H3.5L3.5 0.5Z" stroke="var(--mw-icon-border-default-blue, #1656A7)"/>
<path d="M4.5 8H4V9H4.5V8ZM17.5 9H18V8H17.5V9ZM9.00001 4.5V4L8.00001 4V4.5L9.00001 4.5ZM8.00001 17.5V18H9.00001V17.5H8.00001ZM14 4.5V4L13 4V4.5L14 4.5ZM13 17.5V18H14V17.5H13ZM4.5 13H4V14H4.5V13ZM17.5 14H18V13H17.5V14ZM4.5 9H17.5V8H4.5V9ZM8.00001 4.5L8.00001 17.5H9.00001L9.00001 4.5L8.00001 4.5ZM13 4.5L13 17.5H14L14 4.5L13 4.5ZM4.5 14H17.5V13H4.5V14Z" fill="var(--mw-icon-border-default-gray, #616161)"/>
<path d="M8.5 3V1M13.5 3V1M3 3.5H1M3 8.5H1M3 13.5H1" stroke="var(--mw-icon-border-default-blue, #1656A7)"/>
<path d="M21.5 15.5L18.5 12.5L20.5 10.5L23.5 13.5L21.5 15.5Z" fill="var(--mw-icon-background-red, #FF9D9A)" stroke="var(--mw-icon-border-default-red, #902622)" stroke-linejoin="round"/>
<path d="M21.5 15.5L13.5 23.5H10.5V20.5L18.5 12.5L21.5 15.5Z" fill="var(--mw-icon-background-default-highlight, #FFE864)" stroke="#674C06" stroke-linejoin="round"/>
</svg>
