<svg width="24" height="24" viewBox="0 0 24 24" fill="none" xmlns="http://www.w3.org/2000/svg">
<path d="M0.5 2.5C0.5 1.39543 1.39543 0.5 2.5 0.5H16.5C17.6046 0.5 18.5 1.39543 18.5 2.5V16.5C18.5 17.6046 17.6046 18.5 16.5 18.5H2.5C1.39543 18.5 0.5 17.6046 0.5 16.5V2.5Z" fill="var(--mw-icon-background-default-white, #FFFFFF)" stroke="var(--mw-icon-border-default-gray, #616161)" stroke-linejoin="round"/>
<path d="M15.5 12.5V6.5L9.5 9.5V15.5L15.5 12.5Z" fill="var(--mw-icon-background-medium-yellow, #FFEF91)"/>
<path d="M3.5 12.5V6.5L9.5 9.5V15.5L3.5 12.5Z" fill="var(--mw-icon-background-medium-yellow, #FFEF91)"/>
<path d="M15.5 6.5L9.5 3.5L3.5 6.5L9.5 9.5L15.5 6.5Z" fill="var(--mw-icon-background-medium-yellow, #FFEF91)"/>
<path d="M15.5 6.5V12.5L9.5 15.5M15.5 6.5L9.5 9.5M15.5 6.5L9.5 3.5L3.5 6.5M9.5 9.5V15.5M9.5 9.5L3.5 6.5M9.5 15.5L3.5 12.5V6.5" stroke="var(--mw-icon-glyph-content-yellow, #674C07)" stroke-linecap="round" stroke-linejoin="round" stroke-dasharray="2 2"/>
<path d="M21.5 15.5L18.5 12.5L20.5 10.5L23.5 13.5L21.5 15.5Z" fill="var(--mw-icon-background-red, #FF9D9A)" stroke="var(--mw-icon-border-default-red, #902622)" stroke-linejoin="round"/>
<path d="M21.5 15.5L13.5 23.5H10.5V20.5L18.5 12.5L21.5 15.5Z" fill="var(--mw-icon-background-default-highlight, #FFE864)" stroke="#674C06" stroke-linejoin="round"/>
</svg>
