<svg width="24" height="24" viewBox="0 0 24 24" fill="none" xmlns="http://www.w3.org/2000/svg">
<path d="M8.5 12.5L0.5 8.5V12.5L8.5 16.5V12.5Z" fill="var(--mw-icon-background-red, #FF9D9A)" stroke="var(--mw-icon-border-default-red, #902622)" stroke-linejoin="round"/>
<path d="M8.5 12.5L16.5 8.5V12.5L8.5 16.5L4.5 14.5V10.5L8.5 12.5Z" fill="#FFAB66"/>
<path d="M8.5 12.5L16.5 8.5V12.5L8.5 16.5M8.5 12.5V16.5M8.5 12.5L4.5 10.5V14.5L8.5 16.5" stroke="#A24302" stroke-linejoin="round"/>
<path d="M0.5 4.5L4.5 2.5L12.5 6.5V10.5L8.5 12.5L4.5 10.5L0.5 8.5V4.5Z" fill="var(--mw-icon-background-default-action, #CBFFBE)"/>
<path d="M0.5 4.5L8.5 8.5M0.5 4.5L4.5 2.5L12.5 6.5M0.5 4.5V8.5L4.5 10.5L8.5 12.5M8.5 8.5C8.5 8.5 11.2219 7.13903 12.5 6.5M8.5 8.5C8.5 8.5 8.5 11.1586 8.5 12.5M12.5 6.5V10.5L8.5 12.5" stroke="var(--mw-icon-glyph-content-green, #008014)" stroke-linejoin="round"/>
<path d="M8.5 0.5L16.5 4.5V8.5L12.5 10.5V6.5L4.5 2.5L8.5 0.5Z" fill="var(--mw-icon-background-default-selection, #B4DEFF)"/>
<path d="M16.5 4.5L8.5 0.5L4.5 2.5L12.5 6.5M16.5 4.5L12.5 6.5M16.5 4.5V8.5L12.5 10.5V6.5" stroke="var(--mw-icon-border-default-blue, #1656A7)" stroke-linejoin="round"/>
<path d="M21.5 15.5L18.5 12.5L20.5 10.5L23.5 13.5L21.5 15.5Z" fill="var(--mw-icon-background-red, #FF9D9A)" stroke="var(--mw-icon-border-default-red, #902622)" stroke-linejoin="round"/>
<path d="M21.5 15.5L13.5 23.5H10.5V20.5L18.5 12.5L21.5 15.5Z" fill="var(--mw-icon-background-default-highlight, #FFE864)" stroke="#674C06" stroke-linejoin="round"/>
</svg>
