<svg width="24" height="24" viewBox="0 0 24 24" fill="none" xmlns="http://www.w3.org/2000/svg">
<path d="M0.5 2.5C0.5 1.25079 1 0.5 2 0.5H4H9.5H15H16.7382C18 0.5 18.5 1 18.5 2.5V16.5C18.5 17.5 18.5 18.5 17 18.5H15H9.5H4H2.5C0.5 18.5 0.5 17.5 0.5 16.5V2.5Z" fill="var(--mw-icon-background-light-yellow, #FFF5BC)"/>
<path d="M16.0001 18.5H17.0001C18.0001 18.5 18.5001 18.0494 18.5001 17V2C18.5001 1 17.5001 0.5 17.0001 0.5H16.0001" stroke="var(--mw-icon-border-default-blue, #1656A7)"/>
<path d="M3.00012 18.5H2.00012C1.00012 18.5 0.500122 18.0494 0.500122 17V2C0.500122 1 1.50012 0.5 2.00012 0.5H3.00012" stroke="var(--mw-icon-border-default-blue, #1656A7)"/>
<path d="M4.5 3V8" stroke="var(--mw-icon-glyph-content-blue, #1656A8)"/>
<path d="M14.5 3V8" stroke="var(--mw-icon-glyph-content-blue, #1656A8)"/>
<path d="M9.5 11V16" stroke="var(--mw-icon-glyph-content-blue, #1656A8)"/>
<path d="M10.5 5.5C10.5 6.11532 10.3493 6.64817 10.1319 7.01052C9.9085 7.38282 9.6696 7.5 9.5 7.5C9.3304 7.5 9.0915 7.38282 8.8681 7.01052C8.6507 6.64817 8.5 6.11532 8.5 5.5C8.5 4.88468 8.6507 4.35183 8.8681 3.98948C9.0915 3.61718 9.3304 3.5 9.5 3.5C9.6696 3.5 9.9085 3.61718 10.1319 3.98948C10.3493 4.35183 10.5 4.88468 10.5 5.5Z" stroke="var(--mw-icon-glyph-content-blue, #1656A8)"/>
<path d="M5.5 13.5C5.5 14.1153 5.34932 14.6482 5.13191 15.0105C4.90853 15.3828 4.66958 15.5 4.5 15.5C4.33042 15.5 4.09147 15.3828 3.86809 15.0105C3.65068 14.6482 3.5 14.1153 3.5 13.5C3.5 12.8847 3.65068 12.3518 3.86809 11.9895C4.09147 11.6172 4.33042 11.5 4.5 11.5C4.66958 11.5 4.90853 11.6172 5.13191 11.9895C5.34932 12.3518 5.5 12.8847 5.5 13.5Z" stroke="var(--mw-icon-glyph-content-blue, #1656A8)"/>
<path d="M15.5 13.5C15.5 14.1153 15.3493 14.6482 15.1319 15.0105C14.9085 15.3828 14.6696 15.5 14.5 15.5C14.3304 15.5 14.0915 15.3828 13.8681 15.0105C13.6507 14.6482 13.5 14.1153 13.5 13.5C13.5 12.8847 13.6507 12.3518 13.8681 11.9895C14.0915 11.6172 14.3304 11.5 14.5 11.5C14.6696 11.5 14.9085 11.6172 15.1319 11.9895C15.3493 12.3518 15.5 12.8847 15.5 13.5Z" stroke="var(--mw-icon-glyph-content-blue, #1656A8)"/>
<path d="M20.5 14.5L17.5 11.5L19.5 9.5L22.5 12.5L20.5 14.5Z" fill="var(--mw-icon-background-red, #FF9D9A)" stroke="var(--mw-icon-border-default-red, #902622)" stroke-linejoin="round"/>
<path d="M20.5 14.5L12.5 22.5H9.5V19.5L17.5 11.5L20.5 14.5Z" fill="var(--mw-icon-background-default-highlight, #FFE864)" stroke="#674C06" stroke-linejoin="round"/>
</svg>
