<svg width="24" height="24" viewBox="0 0 24 24" fill="none" xmlns="http://www.w3.org/2000/svg">
<path d="M9.5 12L9.14645 12.3536C9.24022 12.4473 9.36739 12.5 9.5 12.5C9.63261 12.5 9.75979 12.4473 9.85355 12.3536L9.5 12ZM11.3536 10.8536C11.5488 10.6583 11.5488 10.3417 11.3536 10.1464C11.1583 9.95118 10.8417 9.95118 10.6464 10.1464L11.3536 10.8536ZM8.35355 10.1464C8.15829 9.95118 7.84171 9.95118 7.64645 10.1464C7.45118 10.3417 7.45118 10.6583 7.64645 10.8536L8.35355 10.1464ZM9.5 7.5V7C9.22386 7 9 7.22386 9 7.5H9.5ZM9 4V6H10V4H9ZM12 8H14V7H12V8ZM9 10V12H10V10H9ZM10.6464 10.1464L9.14645 11.6464L9.85355 12.3536L11.3536 10.8536L10.6464 10.1464ZM9.85355 11.6464L8.35355 10.1464L7.64645 10.8536L9.14645 12.3536L9.85355 11.6464ZM10 9V7.5H9V9H10ZM9.5 8H11V7H9.5V8Z" fill="var(--mw-icon-glyph-disabled-gray, #888889)"/>
<rect x="1.5" y="5.5" width="4" height="4" rx="0.5" fill="var(--mw-icon-background-default-white, #FFFFFF)" stroke="var(--mw-icon-border-disabled-gray, #888888)"/>
<rect x="7.5" y="0.5" width="4" height="4" rx="0.5" fill="var(--mw-icon-background-default-medium-gray, #D9D9D9)" stroke="var(--mw-icon-border-disabled-gray, #888888)"/>
<rect x="13.5" y="5.5" width="4" height="4" rx="0.5" fill="white" stroke="var(--mw-icon-border-disabled-gray, #888888)"/>
<rect x="6.5" y="12.5" width="6" height="6" rx="0.5" fill="var(--mw-icon-background-default-dark-gray, #A6A6A6)" stroke="var(--mw-icon-border-default-gray, #616161)"/>
<path d="M21.5 15.5L18.5 12.5L20.5 10.5L23.5 13.5L21.5 15.5Z" fill="var(--mw-icon-background-red, #FF9D9A)" stroke="var(--mw-icon-border-default-red, #902622)" stroke-linejoin="round"/>
<path d="M21.5 15.5L13.5 23.5H10.5V20.5L18.5 12.5L21.5 15.5Z" fill="var(--mw-icon-background-default-highlight, #FFE864)" stroke="#674C06" stroke-linejoin="round"/>
</svg>
