<svg width="24" height="24" viewBox="0 0 24 24" fill="none" xmlns="http://www.w3.org/2000/svg">
<path d="M0.5 16.5C0.5 17.6046 1.39543 18.5 2.5 18.5L16.5 18.5C17.6046 18.5 18.5 17.6046 18.5 16.5L18.5 2.5C18.5 1.39543 17.6046 0.5 16.5 0.5L2.5 0.5C1.39543 0.5 0.5 1.39543 0.5 2.5L0.5 16.5Z" fill="var(--mw-icon-background-default-white, #FFFFFF)"/>
<path d="M0.5 8.93904C3.53472 15.0205 6.46528 15.0202 9.5 8.93881C12 4.32964 15.4653 4.0099 18.5 10.0913" stroke="#0072BD" stroke-linecap="round"/>
<path d="M0.5 16.5C0.5 17.6046 1.39543 18.5 2.5 18.5L16.5 18.5C17.6046 18.5 18.5 17.6046 18.5 16.5L18.5 2.5C18.5 1.39543 17.6046 0.5 16.5 0.5L2.5 0.5C1.39543 0.5 0.5 1.39543 0.5 2.5L0.5 16.5Z" stroke="var(--mw-icon-border-default-gray, #616161)" stroke-linejoin="round"/>
<path d="M21.5 15.5L18.5 12.5L20.5 10.5L23.5 13.5L21.5 15.5Z" fill="var(--mw-icon-background-red, #FF9D9A)" stroke="var(--mw-icon-border-default-red, #902622)" stroke-linejoin="round"/>
<path d="M21.5 15.5L13.5 23.5H10.5V20.5L18.5 12.5L21.5 15.5Z" fill="var(--mw-icon-background-default-highlight, #FFE864)" stroke="#674C06" stroke-linejoin="round"/>
</svg>
