<svg width="24" height="24" viewBox="0 0 24 24" fill="none" xmlns="http://www.w3.org/2000/svg">
<path d="M0.5 4.5C0.5 2.29086 2.29086 0.5 4.5 0.5H17.5C19.7091 0.5 21.5 2.29086 21.5 4.5V13.5C21.5 15.7091 19.7091 17.5 17.5 17.5H4.5C2.29086 17.5 0.5 15.7091 0.5 13.5V4.5Z" fill="var(--mw-icon-background-default-white, #FFFFFF)" stroke="var(--mw-icon-border-default-blue, #1656A7)"/>
<path d="M21.5 15.5L18.5 12.5L20.5 10.5L23.5 13.5L21.5 15.5Z" fill="var(--mw-icon-background-red, #FF9D9A)" stroke="var(--mw-icon-border-default-red, #902622)" stroke-linejoin="round"/>
<path d="M21.5 15.5L13.5 23.5H10.5V20.5L18.5 12.5L21.5 15.5Z" fill="var(--mw-icon-background-default-highlight, #FFE864)" stroke="#674C06" stroke-linejoin="round"/>
<path d="M9.34628 11.2984C9.34628 10.5457 9.43433 9.94624 9.61043 9.5C9.78653 9.05376 10.1077 8.61559 10.5738 8.18548C11.0451 7.75 11.3585 7.39785 11.5139 7.12903C11.6693 6.85484 11.7469 6.5672 11.7469 6.26613C11.7469 5.35753 11.343 4.90323 10.535 4.90323C10.1517 4.90323 9.84351 5.02688 9.61043 5.27419C9.38254 5.51613 9.26341 5.85215 9.25305 6.28226H7C7.01036 5.25538 7.32889 4.45161 7.9556 3.87097C8.5875 3.29032 9.44728 3 10.535 3C11.633 3 12.485 3.27688 13.091 3.83065C13.697 4.37903 14 5.15591 14 6.16129C14 6.61828 13.9016 7.05108 13.7048 7.45968C13.508 7.8629 13.1635 8.31183 12.6715 8.80645L12.0422 9.42742C11.6485 9.81989 11.4232 10.2796 11.3663 10.8065L11.3352 11.2984H9.34628ZM9.12098 13.7742C9.12098 13.414 9.23751 13.1183 9.47059 12.8871C9.70884 12.6505 10.0118 12.5323 10.3796 12.5323C10.7473 12.5323 11.0477 12.6505 11.2808 12.8871C11.5191 13.1183 11.6382 13.414 11.6382 13.7742C11.6382 14.129 11.5216 14.422 11.2886 14.6532C11.0607 14.8844 10.7577 15 10.3796 15C10.0015 15 9.69589 14.8844 9.46282 14.6532C9.23492 14.422 9.12098 14.129 9.12098 13.7742Z" fill="var(--mw-icon-glyph-content-blue, #1656A8)"/>
</svg>
