<svg width="24" height="24" viewBox="0 0 24 24" fill="none" xmlns="http://www.w3.org/2000/svg">
<path d="M6.5 17.5L6.5 0.5L16.5 0.5C17.0523 0.5 17.5 0.947715 17.5 1.5L17.5 16.5C17.5 17.0523 17.0523 17.5 16.5 17.5L6.5 17.5Z" fill="var(--mw-icon-background-default-white, #FFFFFF)" stroke="var(--mw-icon-border-default-gray, #616161)"/>
<path d="M1.5 17.5C0.947715 17.5 0.5 17.0523 0.5 16.5L0.499999 1.5C0.499999 0.947715 0.947715 0.5 1.5 0.5L6.5 0.5L6.5 17.5L1.5 17.5Z" fill="var(--mw-icon-background-default-medium-gray, #D9D9D9)" stroke="var(--mw-icon-border-default-gray, #616161)"/>
<path d="M11.5 6C11.2239 6 11 6.22386 11 6.5C11 6.77614 11.2239 7 11.5 7V6ZM14.5 7C14.7761 7 15 6.77614 15 6.5C15 6.22386 14.7761 6 14.5 6V7ZM8.5 12C8.22386 12 8 12.2239 8 12.5C8 12.7761 8.22386 13 8.5 13V12ZM11.5 13C11.7761 13 12 12.7761 12 12.5C12 12.2239 11.7761 12 11.5 12V13ZM11.5 7H14.5V6H11.5V7ZM8.5 13H11.5V12H8.5V13Z" fill="var(--mw-icon-glyph-content-gray, #616162)"/>
<path d="M8.5 3C8.22386 3 8 3.22386 8 3.5C8 3.77614 8.22386 4 8.5 4V3ZM11.5 4C11.7761 4 12 3.77614 12 3.5C12 3.22386 11.7761 3 11.5 3V4ZM8.5 9C8.22386 9 8 9.22386 8 9.5C8 9.77614 8.22386 10 8.5 10V9ZM11.5 10C11.7761 10 12 9.77614 12 9.5C12 9.22386 11.7761 9 11.5 9V10ZM8.5 4H11.5V3H8.5V4ZM8.5 10H11.5V9H8.5V10Z" fill="var(--mw-icon-glyph-content-red, #902623)"/>
<path d="M5 3.5C5 4.32843 4.32843 5 3.5 5C2.67157 5 2 4.32843 2 3.5C2 2.67157 2.67157 2 3.5 2C4.32843 2 5 2.67157 5 3.5Z" fill="var(--mw-icon-glyph-content-red, #902623)"/>
<path d="M5 9.5C5 10.3284 4.32843 11 3.5 11C2.67157 11 2 10.3284 2 9.5C2 8.67157 2.67157 8 3.5 8C4.32843 8 5 8.67157 5 9.5Z" fill="var(--mw-icon-glyph-content-red, #902623)"/>
<path d="M21.5 15.5L18.5 12.5L20.5 10.5L23.5 13.5L21.5 15.5Z" fill="var(--mw-icon-background-red, #FF9D9A)" stroke="var(--mw-icon-border-default-red, #902622)" stroke-linejoin="round"/>
<path d="M21.5 15.5L13.5 23.5H10.5V20.5L18.5 12.5L21.5 15.5Z" fill="var(--mw-icon-background-default-highlight, #FFE864)" stroke="#674C06" stroke-linejoin="round"/>
</svg>
