<svg width="24" height="24" viewBox="0 0 24 24" fill="none" xmlns="http://www.w3.org/2000/svg">
<rect x="0.5" y="0.5" width="18" height="18" rx="2" fill="var(--mw-icon-background-default-white, #FFFFFF)"/>
<path d="M0.5 10.5C4 10.5 8.5 6.5 9.5 6.5C10.5 6.5 13.5 9.5 14.5 10C15.5 10.5 17.5 11.5 17.5 18.5" stroke="#0072BD"/>
<path d="M0.5 10.5C6 10.5 8.25 2.5 9.5 2.5C10.75 2.5 11.3594 5.85938 14.5 9C17.6406 12.1406 17.5 16.5 17.5 18.5" stroke="#0072BD"/>
<path d="M0.5 10.5C14 10.5 17 9 17.5 18.5" stroke="#0072BD"/>
<rect x="0.5" y="0.5" width="18" height="18" rx="2" stroke="var(--mw-icon-border-default-gray, #616161)"/>
<path d="M21.5 15.5L18.5 12.5L20.5 10.5L23.5 13.5L21.5 15.5Z" fill="var(--mw-icon-background-red, #FF9D9A)" stroke="var(--mw-icon-border-default-red, #902622)" stroke-linejoin="round"/>
<path d="M21.5 15.5L13.5 23.5H10.5V20.5L18.5 12.5L21.5 15.5Z" fill="var(--mw-icon-background-default-highlight, #FFE864)" stroke="#674C06" stroke-linejoin="round"/>
</svg>
