<svg width="24" height="24" viewBox="0 0 24 24" fill="none" xmlns="http://www.w3.org/2000/svg">
<path d="M16.5 0.5H2.5C1.94772 0.5 1.5 0.947715 1.5 1.5V15.5C1.5 16.0523 1.94772 16.5 2.5 16.5H16.5C17.0523 16.5 17.5 16.0523 17.5 15.5V1.5C17.5 0.947715 17.0523 0.5 16.5 0.5Z" fill="var(--mw-icon-background-default-white, #FFFFFF)" stroke="var(--mw-icon-border-default-gray, #616161)" stroke-linecap="round"/>
<path fill-rule="evenodd" clip-rule="evenodd" d="M9.98926 8.01071C9.38228 7.40373 8.39818 7.40373 7.79121 8.01071L4.94572 10.8562C4.33875 11.4632 4.33875 12.4473 4.94572 13.0543C5.5527 13.6612 6.5368 13.6612 7.14377 13.0543L8.36327 11.8348C8.6543 11.5437 9.12617 11.5437 9.4172 11.8348C9.70824 12.1258 9.70824 12.5977 9.4172 12.8887L8.19771 14.1082C7.00866 15.2973 5.08083 15.2973 3.89179 14.1082C2.70274 12.9192 2.70274 10.9913 3.89179 9.80227L6.73727 6.95676C7.92632 5.76771 9.85415 5.76771 11.0432 6.95676C11.3342 7.2478 11.3342 7.71967 11.0432 8.01071C10.7522 8.30175 10.2803 8.30175 9.98926 8.01071Z" fill="var(--mw-icon-glyph-content-gray, #616162)"/>
<path fill-rule="evenodd" clip-rule="evenodd" d="M9.01074 8.98929C9.61772 9.59627 10.6018 9.59627 11.2088 8.98929L14.0543 6.14379C14.6613 5.53681 14.6613 4.55271 14.0543 3.94573C13.4473 3.33876 12.4632 3.33876 11.8562 3.94573L10.6367 5.16523C10.3457 5.45627 9.87384 5.45627 9.5828 5.16523C9.29176 4.87419 9.29176 4.40233 9.5828 4.11129L10.8023 2.89179C11.9913 1.70274 13.9192 1.70274 15.1082 2.89179C16.2973 4.08084 16.2973 6.00868 15.1082 7.19773L12.2627 10.0432C11.0737 11.2323 9.14585 11.2323 7.95681 10.0432C7.66577 9.7522 7.66577 9.28033 7.95681 8.98929C8.24784 8.69825 8.71971 8.69825 9.01074 8.98929Z" fill="var(--mw-icon-glyph-content-gray, #616162)"/>
<path d="M21.5 15.5L18.5 12.5L20.5 10.5L23.5 13.5L21.5 15.5Z" fill="var(--mw-icon-background-red, #FF9D9A)" stroke="var(--mw-icon-border-default-red, #902622)" stroke-linejoin="round"/>
<path d="M21.5 15.5L13.5 23.5H10.5V20.5L18.5 12.5L21.5 15.5Z" fill="var(--mw-icon-background-default-highlight, #FFE864)" stroke="#674C06" stroke-linejoin="round"/>
</svg>
