<svg width="24" height="24" viewBox="0 0 24 24" fill="none" xmlns="http://www.w3.org/2000/svg">
<path d="M2.5 17V5.63849C2.5 5.54787 2.52463 5.45895 2.57125 5.38124L5.35435 0.742752C5.44471 0.592149 5.60746 0.5 5.7831 0.5H10.2169C10.3925 0.5 10.5553 0.59215 10.6457 0.742752L13.4287 5.38124C13.4754 5.45895 13.5 5.54787 13.5 5.63849V17C13.5 17.2762 13.2761 17.5 13 17.5H7.94444L3 17.5C2.72386 17.5 2.5 17.2761 2.5 17Z" fill="var(--mw-icon-background-default-selection, #B4DEFF)" stroke="var(--mw-icon-border-default-blue, #1656A7)" stroke-linejoin="round"/>
<path d="M9.26958 12.1374H6.72139L6.18825 14H5L7.48494 6H8.51054L11 14H9.80723L9.26958 12.1374ZM7.04217 11.0165H8.9488L7.99548 7.6978L7.04217 11.0165Z" fill="var(--mw-icon-glyph-content-blue, #1656A8)"/>
<path d="M9 3C9 3.55228 8.55228 4 8 4C7.44772 4 7 3.55228 7 3C7 2.44772 7.44772 2 8 2C8.55228 2 9 2.44772 9 3Z" fill="var(--mw-icon-glyph-content-blue, #1656A8)"/>
<path d="M19.5 15.5L16.5 12.5L18.5 10.5L21.5 13.5L19.5 15.5Z" fill="var(--mw-icon-background-red, #FF9D9A)" stroke="var(--mw-icon-border-default-red, #902622)" stroke-linejoin="round"/>
<path d="M19.5 15.5L11.5 23.5H8.5V20.5L16.5 12.5L19.5 15.5Z" fill="var(--mw-icon-background-default-highlight, #FFE864)" stroke="#674C06" stroke-linejoin="round"/>
</svg>
