<svg width="24" height="24" viewBox="0 0 24 24" fill="none" xmlns="http://www.w3.org/2000/svg">
<path d="M16.5 12.5V4.5L8.5 8.5V16.5L16.5 12.5Z" fill="var(--mw-icon-background-default-action, #CBFFBE)"/>
<path d="M16.5 4.5L8.5 0.5V8.5L16.5 4.5Z" fill="var(--mw-icon-background-medium-yellow, #FFEF91)"/>
<path d="M0.5 4.5L8.5 0.5V16.5L0.5 12.5V4.5Z" fill="var(--mw-icon-background-default-medium-gray, #D9D9D9)"/>
<path d="M8.5 0.5L0.5 4.5M0.5 4.5V12.5L8.5 16.5V8.5L0.5 4.5Z" stroke="var(--mw-icon-border-default-gray, #616161)" stroke-linecap="round" stroke-linejoin="round"/>
<path d="M8.5 0.5L16.5 4.5" stroke="#674C06" stroke-linecap="round" stroke-linejoin="round"/>
<path d="M16.5 12.5V4.5L8.5 8.5V16.5L16.5 12.5Z" stroke="var(--mw-icon-glyph-content-green, #008014)" stroke-linecap="round" stroke-linejoin="round"/>
<path d="M21.5 15.5L18.5 12.5L20.5 10.5L23.5 13.5L21.5 15.5Z" fill="var(--mw-icon-background-red, #FF9D9A)" stroke="var(--mw-icon-border-default-red, #902622)" stroke-linejoin="round"/>
<path d="M21.5 15.5L13.5 23.5H10.5V20.5L18.5 12.5L21.5 15.5Z" fill="var(--mw-icon-background-default-highlight, #FFE864)" stroke="#674C06" stroke-linejoin="round"/>
</svg>
