<svg width="24" height="24" viewBox="0 0 24 24" fill="none" xmlns="http://www.w3.org/2000/svg">
<path d="M0 2C0 0.89543 0.895431 0 2 0H21C22.1046 0 23 0.895431 23 2V21C23 22.1046 22.1046 23 21 23H2C0.89543 23 0 22.1046 0 21V2Z" fill="var(--mw-icon-glyph-content-green, #008014)"/>
<path d="M8.5 7.5H14.5L22.5 14.5V21C22.5 21.8284 21.8284 22.5 21 22.5H2C1.17157 22.5 0.5 21.8284 0.5 21V14.5L8.5 7.5Z" fill="var(--mw-icon-glyph-disabled-gray, #888889)" stroke="var(--mw-icon-background-default-medium-gray, #D9D9D9)"/>
<path d="M11 10H12L12.5 13H10.5L11 10Z" fill="var(--mw-icon-background-default-white, #FFFFFF)"/>
<path d="M10 17H13L14 22H9L10 17Z" fill="white"/>
<path d="M1 8H22V1H1V8Z" fill="var(--mw-icon-background-medium-blue, #83CAFF)"/>
<path d="M0.5 2C0.5 1.17157 1.17157 0.5 2 0.5H21C21.8284 0.5 22.5 1.17157 22.5 2V21C22.5 21.8284 21.8284 22.5 21 22.5H2C1.17157 22.5 0.5 21.8284 0.5 21V2Z" stroke="var(--mw-icon-border-default-gray, #616161)"/>
</svg>
