<svg width="24" height="24" viewBox="0 0 24 24" fill="none" xmlns="http://www.w3.org/2000/svg">
<path d="M17 21.0263L6 1.97375" stroke="var(--mw-icon-glyph-disabled-gray, #888889)" stroke-linecap="round"/>
<path d="M21.0254 17L1.97283 6" stroke="var(--mw-icon-glyph-disabled-gray, #888889)" stroke-linecap="round"/>
<path d="M22.5 11.5L0.499999 11.5" stroke="var(--mw-icon-glyph-disabled-gray, #888889)" stroke-linecap="round"/>
<path d="M1.97266 17L21.0252 6" stroke="var(--mw-icon-glyph-disabled-gray, #888889)" stroke-linecap="round"/>
<path d="M6 21.0263L17 1.97375" stroke="var(--mw-icon-glyph-disabled-gray, #888889)" stroke-linecap="round"/>
<path d="M11.5 0.5L11.5 22.5" stroke="var(--mw-icon-glyph-disabled-gray, #888889)" stroke-linecap="round"/>
<circle cx="11.5" cy="11.5" r="10" fill="var(--mw-icon-background-default-white, #FFFFFF)"/>
<path d="M11.5 2L11.5 21M21 11.5L2 11.5M3.27271 16.25L19.7272 6.75M19.7272 16.25L3.27269 6.75M6.75 19.7273L16.25 3.27277M16.2499 19.7273L6.74988 3.27277" stroke="var(--mw-icon-background-default-medium-gray, #D9D9D9)" stroke-linecap="round"/>
<circle cx="11.5" cy="11.5" r="5" stroke="var(--mw-icon-background-default-medium-gray, #D9D9D9)"/>
<circle cx="11.5" cy="11.5" r="10" stroke="var(--mw-icon-border-default-gray, #616161)"/>
<path d="M19.5 11.5C19.5 15.0686 16.2128 18.5 11.5 18.5C6.78717 18.5 3.5 15.0686 3.5 11.5C3.5 7.93139 6.78717 4.5 11.5 4.5C16.2128 4.5 19.5 7.93139 19.5 11.5Z" stroke="#0072BD"/>
</svg>
