<svg width="24" height="24" viewBox="0 0 24 24" fill="none" xmlns="http://www.w3.org/2000/svg">
<path d="M0.5 2.5C0.5 1.39543 1.39543 0.5 2.5 0.5H20.5C21.6046 0.5 22.5 1.39543 22.5 2.5V20.5C22.5 21.6046 21.6046 22.5 20.5 22.5H2.5C1.39543 22.5 0.5 21.6046 0.5 20.5V2.5Z" fill="var(--mw-icon-background-default-white, #FFFFFF)" stroke="var(--mw-icon-border-default-gray, #616161)"/>
<path d="M5.5 5.5L19.5 17.5H7" stroke="var(--mw-icon-glyph-content-yellow, #674C07)" stroke-linejoin="round"/>
<path d="M5.5 5.5V17.5" stroke="var(--mw-icon-glyph-content-yellow, #674C07)" stroke-linecap="round" stroke-dasharray="2 2"/>
<path d="M7.5 5.5C7.5 6.60457 6.60457 7.5 5.5 7.5C4.39543 7.5 3.5 6.60457 3.5 5.5C3.5 4.39543 4.39543 3.5 5.5 3.5C6.60457 3.5 7.5 4.39543 7.5 5.5Z" fill="var(--mw-icon-background-medium-yellow, #FFEF91)"/>
<path d="M7.5 17.5C7.5 18.6046 6.60457 19.5 5.5 19.5C4.39543 19.5 3.5 18.6046 3.5 17.5C3.5 16.3954 4.39543 15.5 5.5 15.5C6.60457 15.5 7.5 16.3954 7.5 17.5Z" fill="var(--mw-icon-background-medium-yellow, #FFEF91)"/>
<path d="M7.5 5.5C7.5 6.60457 6.60457 7.5 5.5 7.5C4.39543 7.5 3.5 6.60457 3.5 5.5C3.5 4.39543 4.39543 3.5 5.5 3.5C6.60457 3.5 7.5 4.39543 7.5 5.5Z" stroke="var(--mw-icon-glyph-content-yellow, #674C07)"/>
<path d="M7.5 17.5C7.5 18.6046 6.60457 19.5 5.5 19.5C4.39543 19.5 3.5 18.6046 3.5 17.5C3.5 16.3954 4.39543 15.5 5.5 15.5C6.60457 15.5 7.5 16.3954 7.5 17.5Z" stroke="var(--mw-icon-glyph-content-yellow, #674C07)"/>
</svg>
