<svg width="24" height="24" viewBox="0 0 24 24" fill="none" xmlns="http://www.w3.org/2000/svg">
<path d="M0.5 18.5V4.5C0.5 2.29086 2.29086 0.5 4.5 0.5H18.5C20.7091 0.5 22.5 2.29086 22.5 4.5V18.5C22.5 20.7091 20.7091 22.5 18.5 22.5H4.5C2.29086 22.5 0.5 20.7091 0.5 18.5Z" fill="var(--mw-icon-border-default-green, #008013)"/>
<path d="M9.5 0.5V12.5L1.5 20.5" stroke="#3AC831" stroke-linecap="round"/>
<path d="M6.5 0.5V11.5L0.5 17.5" stroke="#3AC831" stroke-linecap="round"/>
<line x1="11" y1="7.5" x2="19" y2="7.5" stroke="#3AC831"/>
<line x1="11" y1="4.5" x2="19" y2="4.5" stroke="#3AC831"/>
<circle cx="18.5" cy="18.5" r="1" fill="var(--mw-icon-glyph-content-dark-gray, #333333)" stroke="#FFD60A"/>
<circle cx="4.5" cy="18.5" r="1" fill="var(--mw-icon-glyph-content-dark-gray, #333333)" stroke="#FFD60A"/>
<circle cx="18.5" cy="7.5" r="1" fill="var(--mw-icon-glyph-content-dark-gray, #333333)" stroke="#FFD60A"/>
<circle cx="18.5" cy="4.5" r="1" fill="var(--mw-icon-glyph-content-dark-gray, #333333)" stroke="#FFD60A"/>
<path d="M7 17.5C7 17.2239 7.22386 17 7.5 17C7.77614 17 8 17.2239 8 17.5V19.5C8 19.7761 7.77614 20 7.5 20C7.22386 20 7 19.7761 7 19.5V17.5Z" fill="#FFD60A"/>
<path d="M15 17.5C15 17.2239 15.2239 17 15.5 17C15.7761 17 16 17.2239 16 17.5V19.5C16 19.7761 15.7761 20 15.5 20C15.2239 20 15 19.7761 15 19.5V17.5Z" fill="#FFD60A"/>
<path d="M9 17.5C9 17.2239 9.22386 17 9.5 17H10.5C10.7761 17 11 17.2239 11 17.5V19.5C11 19.7761 10.7761 20 10.5 20H9.5C9.22386 20 9 19.7761 9 19.5V17.5Z" fill="#FFD60A"/>
<path d="M12 17.5C12 17.2239 12.2239 17 12.5 17H13.5C13.7761 17 14 17.2239 14 17.5V19.5C14 19.7761 13.7761 20 13.5 20H12.5C12.2239 20 12 19.7761 12 19.5V17.5Z" fill="#FFD60A"/>
<rect x="12.5" y="10.5" width="5" height="5" rx="0.5" fill="#7D7D7D" stroke="var(--mw-icon-glyph-content-dark-gray, #333333)"/>
<rect x="5.5" y="10.5" width="5" height="5" rx="0.5" fill="#7D7D7D" stroke="var(--mw-icon-glyph-content-dark-gray, #333333)"/>
<rect x="5.5" y="3.5" width="5" height="5" rx="0.5" fill="#7D7D7D" stroke="var(--mw-icon-glyph-content-dark-gray, #333333)"/>
<path d="M0.5 18.5V4.5C0.5 2.29086 2.29086 0.5 4.5 0.5H18.5C20.7091 0.5 22.5 2.29086 22.5 4.5V18.5C22.5 20.7091 20.7091 22.5 18.5 22.5H4.5C2.29086 22.5 0.5 20.7091 0.5 18.5Z" stroke="#013E0A" stroke-linecap="round"/>
</svg>
