<svg width="24" height="24" viewBox="0 0 24 24" fill="none" xmlns="http://www.w3.org/2000/svg">
<rect x="0.5" y="0.5" width="22" height="22" rx="2" fill="var(--mw-icon-background-default-white, #FFFFFF)"/>
<rect x="7.5" y="7.5" width="12" height="12" rx="2" fill="var(--mw-icon-background-default-medium-gray, #D9D9D9)" stroke="var(--mw-icon-glyph-content-gray, #616162)"/>
<rect x="7.5" y="7.5" width="12" height="12" rx="1" fill="var(--mw-icon-background-default-medium-gray, #D9D9D9)" stroke="var(--mw-icon-glyph-content-gray, #616162)"/>
<rect x="5.5" y="5.5" width="12" height="12" rx="2" fill="var(--mw-icon-background-default-medium-gray, #D9D9D9)" stroke="var(--mw-icon-glyph-content-gray, #616162)"/>
<rect x="5.5" y="5.5" width="12" height="12" rx="1" fill="var(--mw-icon-background-default-medium-gray, #D9D9D9)" stroke="var(--mw-icon-glyph-content-gray, #616162)"/>
<rect x="3.5" y="3.5" width="12" height="12" rx="2" fill="white"/>
<path d="M15.5 7.5H13C9.96243 7.5 7.5 9.96243 7.5 13V15.5" stroke="var(--mw-icon-glyph-content-gray, #616162)" stroke-linecap="round" stroke-linejoin="round"/>
<path d="M13.5 4.5C13.5 3.94772 13.9477 3.5 14.5 3.5C15.0523 3.5 15.5 3.94772 15.5 4.5C15.5 5.05228 15.0523 5.5 14.5 5.5C13.9477 5.5 13.5 5.05228 13.5 4.5Z" fill="white"/>
<path d="M12.5 10.5C12.5 9.94772 12.9477 9.5 13.5 9.5C14.0523 9.5 14.5 9.94772 14.5 10.5C14.5 11.0523 14.0523 11.5 13.5 11.5C12.9477 11.5 12.5 11.0523 12.5 10.5Z" fill="white"/>
<path d="M10.5 13.5C10.5 12.9477 10.9477 12.5 11.5 12.5C12.0523 12.5 12.5 12.9477 12.5 13.5C12.5 14.0523 12.0523 14.5 11.5 14.5C10.9477 14.5 10.5 14.0523 10.5 13.5Z" fill="white"/>
<path d="M13.5 4.5C13.5 3.94772 13.9477 3.5 14.5 3.5C15.0523 3.5 15.5 3.94772 15.5 4.5C15.5 5.05228 15.0523 5.5 14.5 5.5C13.9477 5.5 13.5 5.05228 13.5 4.5Z" stroke="#1171BE"/>
<path d="M12.5 10.5C12.5 9.94772 12.9477 9.5 13.5 9.5C14.0523 9.5 14.5 9.94772 14.5 10.5C14.5 11.0523 14.0523 11.5 13.5 11.5C12.9477 11.5 12.5 11.0523 12.5 10.5Z" stroke="#1171BE"/>
<path d="M10.5 13.5C10.5 12.9477 10.9477 12.5 11.5 12.5C12.0523 12.5 12.5 12.9477 12.5 13.5C12.5 14.0523 12.0523 14.5 11.5 14.5C10.9477 14.5 10.5 14.0523 10.5 13.5Z" stroke="#1171BE"/>
<path d="M4.5 4.5C4.5 3.94772 4.94772 3.5 5.5 3.5C6.05228 3.5 6.5 3.94772 6.5 4.5C6.5 5.05228 6.05228 5.5 5.5 5.5C4.94772 5.5 4.5 5.05228 4.5 4.5Z" fill="white"/>
<path d="M9.5 10.5C9.5 9.94772 9.94772 9.5 10.5 9.5C11.0523 9.5 11.5 9.94772 11.5 10.5C11.5 11.0523 11.0523 11.5 10.5 11.5C9.94772 11.5 9.5 11.0523 9.5 10.5Z" fill="white"/>
<path d="M3.5 11.5C3.5 10.9477 3.94772 10.5 4.5 10.5C5.05228 10.5 5.5 10.9477 5.5 11.5C5.5 12.0523 5.05228 12.5 4.5 12.5C3.94772 12.5 3.5 12.0523 3.5 11.5Z" fill="white"/>
<path d="M4.5 4.5C4.5 3.94772 4.94772 3.5 5.5 3.5C6.05228 3.5 6.5 3.94772 6.5 4.5C6.5 5.05228 6.05228 5.5 5.5 5.5C4.94772 5.5 4.5 5.05228 4.5 4.5Z" stroke="#DD5400"/>
<path d="M9.5 10.5C9.5 9.94772 9.94772 9.5 10.5 9.5C11.0523 9.5 11.5 9.94772 11.5 10.5C11.5 11.0523 11.0523 11.5 10.5 11.5C9.94772 11.5 9.5 11.0523 9.5 10.5Z" stroke="#DD5400"/>
<path d="M3.5 11.5C3.5 10.9477 3.94772 10.5 4.5 10.5C5.05228 10.5 5.5 10.9477 5.5 11.5C5.5 12.0523 5.05228 12.5 4.5 12.5C3.94772 12.5 3.5 12.0523 3.5 11.5Z" stroke="#DD5400"/>
<rect x="3.5" y="3.5" width="12" height="12" rx="1" stroke="var(--mw-icon-glyph-content-gray, #616162)"/>
<rect x="0.5" y="0.5" width="22" height="22" rx="2" stroke="var(--mw-icon-border-default-gray, #616161)"/>
</svg>
