<svg width="24" height="24" viewBox="0 0 24 24" fill="none" xmlns="http://www.w3.org/2000/svg">
<rect x="0.5" y="0.5" width="22" height="22" rx="2" fill="var(--mw-icon-background-default-white, #FFFFFF)"/>
<rect x="7.5" y="7.5" width="12" height="12" rx="2" fill="var(--mw-icon-background-default-medium-gray, #D9D9D9)" stroke="var(--mw-icon-glyph-content-gray, #616162)"/>
<rect x="7.5" y="7.5" width="12" height="12" rx="1" fill="var(--mw-icon-background-default-medium-gray, #D9D9D9)" stroke="var(--mw-icon-glyph-content-gray, #616162)"/>
<rect x="5.5" y="5.5" width="12" height="12" rx="2" fill="var(--mw-icon-background-default-medium-gray, #D9D9D9)" stroke="var(--mw-icon-glyph-content-gray, #616162)"/>
<rect x="5.5" y="5.5" width="12" height="12" rx="1" fill="var(--mw-icon-background-default-medium-gray, #D9D9D9)" stroke="var(--mw-icon-glyph-content-gray, #616162)"/>
<rect x="3.5" y="3.5" width="12" height="12" rx="2" fill="white"/>
<path d="M15.5 6.5L10.5 12.5M6.5 15.5L10.5 12.5M10.5 12.5L12.5 15.5" stroke="var(--mw-icon-glyph-content-gray, #616162)" stroke-linecap="round" stroke-linejoin="round"/>
<rect x="12.5" y="11.5" width="2" height="2" rx="1" fill="white" stroke="#DD5400"/>
<path d="M6.5 5.5C6.5 4.94772 6.94772 4.5 7.5 4.5C8.05228 4.5 8.5 4.94772 8.5 5.5C8.5 6.05228 8.05228 6.5 7.5 6.5C6.94772 6.5 6.5 6.05228 6.5 5.5Z" fill="white"/>
<path d="M11.5 6.5C11.5 5.94772 11.9477 5.5 12.5 5.5C13.0523 5.5 13.5 5.94772 13.5 6.5C13.5 7.05228 13.0523 7.5 12.5 7.5C11.9477 7.5 11.5 7.05228 11.5 6.5Z" fill="white"/>
<path d="M8.5 9.5C8.5 8.94772 8.94772 8.5 9.5 8.5C10.0523 8.5 10.5 8.94772 10.5 9.5C10.5 10.0523 10.0523 10.5 9.5 10.5C8.94772 10.5 8.5 10.0523 8.5 9.5Z" fill="white"/>
<path d="M5.5 12C5.5 11.4477 5.94772 11 6.5 11C7.05228 11 7.5 11.4477 7.5 12C7.5 12.5523 7.05228 13 6.5 13C5.94772 13 5.5 12.5523 5.5 12Z" fill="white"/>
<path d="M3.5 9C3.5 8.44772 3.94772 8 4.5 8C5.05228 8 5.5 8.44772 5.5 9C5.5 9.55228 5.05228 10 4.5 10C3.94772 10 3.5 9.55228 3.5 9Z" fill="white"/>
<path d="M6.5 5.5C6.5 4.94772 6.94772 4.5 7.5 4.5C8.05228 4.5 8.5 4.94772 8.5 5.5C8.5 6.05228 8.05228 6.5 7.5 6.5C6.94772 6.5 6.5 6.05228 6.5 5.5Z" stroke="#1171BE"/>
<path d="M11.5 6.5C11.5 5.94772 11.9477 5.5 12.5 5.5C13.0523 5.5 13.5 5.94772 13.5 6.5C13.5 7.05228 13.0523 7.5 12.5 7.5C11.9477 7.5 11.5 7.05228 11.5 6.5Z" stroke="#1171BE"/>
<path d="M8.5 9.5C8.5 8.94772 8.94772 8.5 9.5 8.5C10.0523 8.5 10.5 8.94772 10.5 9.5C10.5 10.0523 10.0523 10.5 9.5 10.5C8.94772 10.5 8.5 10.0523 8.5 9.5Z" stroke="#1171BE"/>
<path d="M5.5 12C5.5 11.4477 5.94772 11 6.5 11C7.05228 11 7.5 11.4477 7.5 12C7.5 12.5523 7.05228 13 6.5 13C5.94772 13 5.5 12.5523 5.5 12Z" stroke="#1171BE"/>
<path d="M3.5 9C3.5 8.44772 3.94772 8 4.5 8C5.05228 8 5.5 8.44772 5.5 9C5.5 9.55228 5.05228 10 4.5 10C3.94772 10 3.5 9.55228 3.5 9Z" stroke="#1171BE"/>
<rect x="3.5" y="3.5" width="12" height="12" rx="1" stroke="var(--mw-icon-glyph-content-gray, #616162)"/>
<rect x="0.5" y="0.5" width="22" height="22" rx="2" stroke="var(--mw-icon-border-default-gray, #616161)"/>
</svg>
