<svg width="24" height="24" viewBox="0 0 24 24" fill="none" xmlns="http://www.w3.org/2000/svg">
<path d="M1 1H22V22H1V1Z" fill="var(--mw-icon-background-default-white, #FFFFFF)"/>
<path fill-rule="evenodd" clip-rule="evenodd" d="M1 17.2775C1.12012 17.4217 1.24177 17.5607 1.365 17.6944C2.54889 18.9786 4.10382 19.9999 5.99998 19.9999C7.89615 19.9999 9.45108 18.9786 10.635 17.6944C11.8204 16.4084 12.8598 14.629 13.7904 12.5019C14.6098 10.629 15.3829 9.40845 16.0412 8.69438C16.3626 8.34572 16.6127 8.16617 16.776 8.07872C16.9238 7.99955 16.9906 7.99984 16.9995 7.99988C17.0085 7.99984 17.0762 7.99955 17.224 8.07872C17.3873 8.16617 17.6373 8.34572 17.9587 8.69438C18.6142 9.40534 19.3835 10.6184 20.1989 12.4775L23 19.2802V7.09182C22.5671 6.42249 22.1129 5.82382 21.635 5.30537C20.4511 4.02115 18.8962 2.99988 17 2.99988C15.1038 2.99988 13.5489 4.02115 12.365 5.30537C11.1795 6.59131 10.1402 8.37077 9.20959 10.4978C8.39018 12.3708 7.61703 13.5913 6.95875 14.3054C6.63733 14.654 6.38728 14.8336 6.22398 14.921C6.07618 15.0002 6.00936 14.9999 6.00043 14.9999C5.9915 14.9999 5.92379 15.0002 5.77599 14.921C5.61269 14.8336 5.36264 14.654 5.04122 14.3054C4.38581 13.5944 3.61652 12.3814 2.80109 10.5223L1 6.14821V17.2775Z" fill="var(--mw-icon-background-default-selection, #B4DEFF)"/>
<path d="M0.5 11.5C4 19.5 8 19.5 11.5 11.5C15 3.5 19 3.5 22.5 11.5" stroke="#0072BD" stroke-linecap="round" stroke-linejoin="round"/>
<path d="M0.5 2.5C0.5 1.39543 1.39543 0.5 2.5 0.5H20.5C21.6046 0.5 22.5 1.39543 22.5 2.5V20.5C22.5 21.6046 21.6046 22.5 20.5 22.5H2.5C1.39543 22.5 0.5 21.6046 0.5 20.5V2.5Z" stroke="var(--mw-icon-border-default-gray, #616161)" stroke-linejoin="round"/>
</svg>
