<svg width="24" height="24" viewBox="0 0 24 24" fill="none" xmlns="http://www.w3.org/2000/svg">
<rect x="3.5" y="3.5" width="18.4865" height="19" rx="2" fill="var(--mw-icon-background-default-medium-gray, #D9D9D9)"/>
<rect x="4.01367" y="3.5" width="18.4865" height="19" rx="2" fill="var(--mw-icon-background-default-medium-gray, #D9D9D9)" stroke="var(--mw-icon-border-default-gray, #616161)"/>
<rect x="0.5" y="0.5" width="19" height="19" rx="2" fill="var(--mw-icon-background-default-white, #FFFFFF)" stroke="var(--mw-icon-border-default-gray, #616161)"/>
<rect x="5.5" y="5.5" width="11" height="11" rx="1" fill="var(--mw-icon-background-default-medium-gray, #D9D9D9)" stroke="var(--mw-icon-glyph-content-gray, #616162)"/>
<rect x="4.5" y="4.5" width="11" height="11" rx="1" fill="var(--mw-icon-background-default-medium-gray, #D9D9D9)" stroke="var(--mw-icon-glyph-content-gray, #616162)"/>
<rect x="3.5" y="3.5" width="11" height="11" rx="2" fill="white"/>
<rect x="9.5" y="8.5" width="2" height="2" fill="white" stroke="var(--mw-icon-glyph-disabled-gray, #888889)" stroke-linejoin="round"/>
<rect x="6.5" y="11.5" width="2" height="2" fill="white" stroke="var(--mw-icon-background-default-dark-gray, #A6A6A6)" stroke-linejoin="round"/>
<path d="M14.5 11.5H12.5V13.5H13H14" stroke="var(--mw-icon-background-default-dark-gray, #A6A6A6)" stroke-linejoin="round"/>
<rect x="6.5" y="5.5" width="2" height="2" fill="white" stroke="var(--mw-icon-glyph-content-gray, #616162)" stroke-linejoin="round"/>
<rect x="3.5" y="8.5" width="2" height="2" fill="white" stroke="var(--mw-icon-glyph-disabled-gray, #888889)" stroke-linejoin="round"/>
<rect x="3.5" y="3.5" width="11" height="11" rx="1" stroke="var(--mw-icon-glyph-content-gray, #616162)" stroke-linejoin="round"/>
<rect x="0.5" y="0.5" width="19" height="19" rx="2" stroke="var(--mw-icon-border-default-gray, #616161)"/>
</svg>
