<svg width="24" height="24" viewBox="0 0 24 24" fill="none" xmlns="http://www.w3.org/2000/svg">
<rect x="0.5" y="1" width="22" height="22" rx="2" fill="var(--mw-icon-background-default-white, #FFFFFF)"/>
<rect x="7.5" y="7.5" width="12" height="12" rx="2" fill="var(--mw-icon-background-default-medium-gray, #D9D9D9)" stroke="var(--mw-icon-glyph-content-gray, #616162)"/>
<rect x="7.5" y="7.5" width="12" height="12" rx="1" fill="var(--mw-icon-background-default-medium-gray, #D9D9D9)" stroke="var(--mw-icon-glyph-content-gray, #616162)"/>
<rect x="5.5" y="5.5" width="12" height="12" rx="2" fill="var(--mw-icon-background-default-medium-gray, #D9D9D9)" stroke="var(--mw-icon-glyph-content-gray, #616162)"/>
<rect x="5.5" y="5.5" width="12" height="12" rx="1" fill="var(--mw-icon-background-default-medium-gray, #D9D9D9)" stroke="var(--mw-icon-glyph-content-gray, #616162)"/>
<rect x="3.5" y="3.5" width="12" height="12" rx="2" fill="white"/>
<path d="M9.5 8.5L7.5 10.5M12.5 8.5L15.5 11.5M15.5 13.5L13.5 15.5" stroke="var(--mw-icon-glyph-content-gray, #616162)" stroke-linecap="round"/>
<rect x="9.5" y="5.5" width="3" height="3" fill="white" stroke="var(--mw-icon-glyph-content-gray, #616162)" stroke-linejoin="round"/>
<rect x="5.5" y="10.5" width="2" height="2" fill="white" stroke="var(--mw-icon-glyph-content-gray, #616162)" stroke-linejoin="round"/>
<rect x="3.5" y="3.5" width="12" height="12" rx="1" stroke="var(--mw-icon-glyph-content-gray, #616162)"/>
<rect x="0.5" y="0.5" width="22" height="22" rx="2" stroke="var(--mw-icon-border-default-gray, #616161)"/>
</svg>
