<svg width="24" height="24" viewBox="0 0 24 24" fill="none" xmlns="http://www.w3.org/2000/svg">
<rect x="0.5" y="1" width="22" height="22" rx="2" fill="var(--mw-icon-background-default-white, #FFFFFF)"/>
<rect x="7.5" y="7.5" width="12" height="12" rx="2" fill="var(--mw-icon-background-default-medium-gray, #D9D9D9)" stroke="var(--mw-icon-glyph-content-gray, #616162)"/>
<rect x="7.5" y="7.5" width="12" height="12" rx="1" fill="var(--mw-icon-background-default-medium-gray, #D9D9D9)" stroke="var(--mw-icon-glyph-content-gray, #616162)"/>
<rect x="5.5" y="5.5" width="12" height="12" rx="2" fill="var(--mw-icon-background-default-medium-gray, #D9D9D9)" stroke="var(--mw-icon-glyph-content-gray, #616162)"/>
<rect x="5.5" y="5.5" width="12" height="12" rx="1" fill="var(--mw-icon-background-default-medium-gray, #D9D9D9)" stroke="var(--mw-icon-glyph-content-gray, #616162)"/>
<rect x="3.5" y="3.5" width="12" height="12" rx="2" fill="white"/>
<path d="M8.5 7.5L3.5 12.5M10.5 7.5L15.5 12.5M11.5 10.5L10.5 11.5" stroke="var(--mw-icon-glyph-content-gray, #616162)" stroke-linecap="round"/>
<path d="M8.5 5.5H10.5V7.5H8.5V5.5Z" fill="white"/>
<path d="M5.5 8.5H7.5V10.5H5.5V8.5Z" fill="white"/>
<path d="M8.5 11.5H10.5V13.5H8.5V11.5Z" fill="white"/>
<path d="M11.5 8.5H13.5V10.5H11.5V8.5Z" fill="white"/>
<path d="M8.5 5.5H10.5V7.5H8.5V5.5Z" stroke="var(--mw-icon-glyph-content-gray, #616162)" stroke-linejoin="round"/>
<path d="M5.5 8.5H7.5V10.5H5.5V8.5Z" stroke="var(--mw-icon-glyph-content-gray, #616162)" stroke-linejoin="round"/>
<path d="M8.5 11.5H10.5V13.5H8.5V11.5Z" stroke="var(--mw-icon-glyph-content-gray, #616162)" stroke-linejoin="round"/>
<path d="M11.5 8.5H13.5V10.5H11.5V8.5Z" stroke="var(--mw-icon-glyph-content-gray, #616162)" stroke-linejoin="round"/>
<rect x="3.5" y="3.5" width="12" height="12" rx="1" stroke="var(--mw-icon-glyph-content-gray, #616162)"/>
<rect x="0.5" y="0.5" width="22" height="22" rx="2" stroke="var(--mw-icon-border-default-gray, #616161)"/>
</svg>
