<svg width="24" height="24" viewBox="0 0 24 24" fill="none" xmlns="http://www.w3.org/2000/svg">
<rect x="1" y="1" width="21" height="21" fill="var(--mw-icon-background-default-white, #FFFFFF)"/>
<path d="M22.5 12.5C17.5 12.5 18.5 4.5 15.97 4.5C13.44 4.5 14.5 12.5 9.5 12.5" stroke="#EDB120"/>
<path d="M18 12.5C13.3846 12.5 14.3077 4.5 11.9723 4.5C9.63692 4.5 10.6154 12.5 6 12.5" stroke="#D95319"/>
<path d="M15.5 15.5L13.5 12.5H21.5L19.5 15L18.5 19.5L17.5 20L17 19.5L15.5 15.5Z" fill="var(--mw-icon-background-medium-blue, #83CAFF)"/>
<path d="M4 8L1.5 12.5H11.5L9 8L7.5 3.5L6.5 2.5L5.5 3.5L4 8Z" fill="var(--mw-icon-background-medium-blue, #83CAFF)"/>
<path d="M0.5 12.5C4.5 12.5 4.31276 2.5 6.5 2.5C8.81538 2.5 8.5 12.5 12.5 12.5C16.5 12.5 15.5 19.5 17.5 19.5C19.5 19.5 18.5 12.5 22.5 12.5" stroke="#0072BD"/>
<path d="M1 12.5H22" stroke="var(--mw-icon-border-default-gray, #616161)"/>
<rect x="0.5" y="0.5" width="22" height="22" rx="2" stroke="var(--mw-icon-border-default-gray, #616161)"/>
</svg>
