<svg width="24" height="24" viewBox="0 0 24 24" fill="none" xmlns="http://www.w3.org/2000/svg">
<path d="M0.5 2.5C0.5 1.39543 1.39543 0.5 2.5 0.5H20.5C21.6046 0.5 22.5 1.39543 22.5 2.5V20.5C22.5 21.6046 21.6046 22.5 20.5 22.5H2.5C1.39543 22.5 0.5 21.6046 0.5 20.5V2.5Z" fill="var(--mw-icon-background-default-white, #FFFFFF)"/>
<path d="M0.5 9.5H2.79429L4.39714 8.198L5.98429 6.77L7.58714 5.342L9.19 3.928L10.7771 2.5H12.2857L13.8571 3.9L15.4286 5.3L17 6.7L18.5714 8.1L20.1429 9.5H22.5" stroke="#D95319" stroke-miterlimit="10" stroke-linecap="round" stroke-linejoin="round"/>
<path d="M22.5 13.5H20.1429L18.54 14.802L16.9529 16.23L15.35 17.658L13.7471 19.072L12.16 20.5H10.6514L9.08 19.1L7.50857 17.7L5.93714 16.3L4.36571 14.9L2.79429 13.5H0.5" stroke="#D95319" stroke-miterlimit="10" stroke-linecap="round" stroke-linejoin="round"/>
<path d="M4.5 10.4286V11.5L6 13L7.5 11.5V8.5L9 7L10.5 8.5V15.5L12 17L13.5 15.5V9.5L15 7.5L16.5 9.5V13.5" stroke="#0072BD" stroke-miterlimit="10"/>
<path d="M0.5 2.5C0.5 1.39543 1.39543 0.5 2.5 0.5H20.5C21.6046 0.5 22.5 1.39543 22.5 2.5V20.5C22.5 21.6046 21.6046 22.5 20.5 22.5H2.5C1.39543 22.5 0.5 21.6046 0.5 20.5V2.5Z" stroke="var(--mw-icon-border-default-gray, #616161)" stroke-linejoin="round"/>
</svg>
