<svg width="24" height="24" viewBox="0 0 24 24" fill="none" xmlns="http://www.w3.org/2000/svg">
<path d="M20.5 0.5H2.5C1.39543 0.5 0.5 1.39543 0.5 2.5V20.5C0.5 21.6046 1.39543 22.5 2.5 22.5H20.5C21.6046 22.5 22.5 21.6046 22.5 20.5V2.5C22.5 1.39543 21.6046 0.5 20.5 0.5Z" fill="var(--mw-icon-background-default-white, #FFFFFF)"/>
<path d="M22 11.5L1.00005 11.5" stroke="var(--mw-icon-border-default-gray, #616161)"/>
<path d="M0.5 7.5L3.5 3.5H7.5L10.5 8.5H13.5L15.5 5.5H22M0.5 18.5L3.5 14.5H7.5L10.5 19.5H13.5L15.5 16.5H22" stroke="#0072BD" stroke-miterlimit="10" stroke-linejoin="round"/>
<path d="M20.5 0.5H2.5C1.39543 0.5 0.5 1.39543 0.5 2.5V20.5C0.5 21.6046 1.39543 22.5 2.5 22.5H20.5C21.6046 22.5 22.5 21.6046 22.5 20.5V2.5C22.5 1.39543 21.6046 0.5 20.5 0.5Z" stroke="var(--mw-icon-border-default-gray, #616161)" stroke-linecap="round"/>
</svg>
