<svg width="24" height="24" viewBox="0 0 24 24" fill="none" xmlns="http://www.w3.org/2000/svg">
<path d="M4.5 0.5H18.5V14.4998H4.5V0.5Z" fill="var(--mw-icon-background-default-white, #FFFFFF)" stroke="var(--mw-icon-border-default-gray, #616161)" stroke-linejoin="round"/>
<path d="M0.5 4.5L3.5 7.5L0.5 10.5M19.5 4.5L22.5 7.5L19.5 10.5" stroke="var(--mw-icon-object-primary, #616160)" stroke-linecap="round" stroke-linejoin="round"/>
<rect x="9.5" y="9.5" width="14" height="14" rx="1" fill="white" stroke="var(--mw-icon-border-default-gray, #616161)" stroke-linejoin="round"/>
<rect x="9.5" y="9.5" width="14" height="14" rx="1" stroke="var(--mw-icon-border-default-gray, #616161)" stroke-linejoin="round"/>
<path d="M18.8465 14.485L18.8246 14.3178C18.7405 13.6778 18.5725 13.3395 18.3409 13.1501C18.1026 12.9552 17.7597 12.8855 17.2542 12.8855H15.2078L17.53 16.0353L14.9306 19.3733H18.1492C18.5734 19.3733 18.8226 19.2717 18.989 19.0906C19.1614 18.9029 19.2751 18.5985 19.3606 18.1136L19.3885 17.9559H20L19.6266 21H13V20.5365L16.049 16.5882L13 12.4611V12H19.463V14.485H18.8465Z" fill="var(--mw-icon-glyph-content-gray, #616162)"/>
</svg>
