<svg width="24" height="24" viewBox="0 0 24 24" fill="none" xmlns="http://www.w3.org/2000/svg">
<path d="M11.4792 3.5625C15.4375 3.5625 18.6042 5.9375 18.6042 8.3125C18.6042 10.6875 14.4375 11.0208 13 12C11.5625 12.9792 11 15.4375 7.52087 15.4375C6.00351 15.4375 0.395874 15.4375 0.395874 11.4792C0.395874 9.4255 4.01879 10.7188 5.93754 7.52083C7.4549 4.9919 8.31254 3.5625 11.4792 3.5625Z" fill="var(--mw-icon-background-medium-blue, #83CAFF)"/>
<path d="M7.5 15.5C5.98264 15.5 0.5 15.4375 0.5 11.4792C0.5 9.4255 4.01879 10.7188 5.93754 7.52083C7.4549 4.9919 8.33333 3.5 11.5 3.5C15.4583 3.5 18.5 6.125 18.5 8.5C18.5 10.875 13.6875 10.9167 12.5 12.5" stroke="var(--mw-icon-object-primary, #616160)" stroke-linecap="round" stroke-linejoin="round"/>
<line x1="10" y1="23.5" x2="24" y2="23.5" stroke="var(--mw-icon-object-primary, #616160)"/>
<path d="M12.5 18.5L15.5 21.5L13.5 23.5L10.5 20.5L12.5 18.5Z" fill="var(--mw-icon-background-red, #FF9D9A)" stroke="var(--mw-icon-border-default-red, #902622)" stroke-linejoin="round"/>
<path d="M12.5 18.5L20.5 10.5L23.5 10.5L23.5 13.5L15.5 21.5L12.5 18.5Z" fill="var(--mw-icon-background-default-highlight, #FFE864)" stroke="#674C06" stroke-linejoin="round"/>
</svg>
