<svg width="24" height="24" viewBox="0 0 24 24" fill="none" xmlns="http://www.w3.org/2000/svg">
<path d="M1.5 7.65076L7.65076 1.5L16.3492 1.5L22.5 7.65076V16.3492L16.3492 22.5H7.65076L1.5 16.3492L1.5 7.65076Z" fill="#B7312C" stroke="#B7312C"/>
<path d="M11 7C11 6.44772 11.4477 6 12 6V6C12.5523 6 13 6.44772 13 7V13C13 13.5523 12.5523 14 12 14V14C11.4477 14 11 13.5523 11 13V7Z" fill="var(--mw-icon-background-default-white, #FFFFFF)"/>
<path d="M11 17C11 16.4477 11.4477 16 12 16V16C12.5523 16 13 16.4477 13 17V17C13 17.5523 12.5523 18 12 18V18C11.4477 18 11 17.5523 11 17V17Z" fill="white"/>
</svg>
