<svg width="24" height="24" viewBox="0 0 24 24" fill="none" xmlns="http://www.w3.org/2000/svg">
<path d="M5 5.5C1.625 5.5 0.5 7.68629 0.5 11V12C0.5 12.2761 0.723858 12.5 1 12.5H9C9.27614 12.5 9.5 12.2761 9.5 12V11C9.5 7.68629 8.375 5.5 5 5.5Z" fill="var(--mw-icon-background-default-white, #FFFFFF)" stroke="var(--mw-icon-border-default-gray, #616161)"/>
<circle cx="5" cy="3" r="2.5" fill="white" stroke="var(--mw-icon-border-default-gray, #616161)"/>
<path d="M9.5 10.5C4.25 10.5 2.5 14.5996 2.5 18.4231V19.5C2.5 20.0523 2.94772 20.5 3.5 20.5H15.5C16.0523 20.5 16.5 20.0523 16.5 19.5V18.4231C16.5 14.5996 14.75 10.5 9.5 10.5Z" fill="white" stroke="var(--mw-icon-border-default-gray, #616161)"/>
<circle cx="9.5" cy="6.5" r="4" fill="white" stroke="var(--mw-icon-border-default-gray, #616161)"/>
<circle cx="17.5" cy="17.5" r="6" fill="var(--mw-icon-background-red, #FF9D9A)" stroke="var(--mw-icon-border-default-red, #902622)"/>
<path d="M20 15L15 20M15 15L20 20" stroke="var(--mw-icon-glyph-content-dark-red, #610908)" stroke-linecap="round"/>
</svg>
