<svg width="24" height="24" viewBox="0 0 24 24" fill="none" xmlns="http://www.w3.org/2000/svg">
<path d="M1 22H22V11.5V1H1V11.5V22Z" fill="var(--mw-icon-background-default-white, #FFFFFF)"/>
<rect x="11" y="2" width="2" height="12" fill="#1171BE"/>
<rect x="15" y="7" width="2" height="7" fill="#1171BE"/>
<rect x="7" y="9" width="2" height="5" fill="#1171BE"/>
<rect x="3" y="11" width="2" height="3" fill="#1171BE"/>
<rect x="5" y="15" width="2" height="2" fill="#1171BE"/>
<rect x="9" y="15" width="2" height="3" fill="#1171BE"/>
<rect x="13" y="15" width="2" height="3" fill="#1171BE"/>
<rect x="17" y="15" width="2" height="1" fill="#1171BE"/>
<rect x="19" y="12" width="2" height="2" fill="#1171BE"/>
<path d="M0 8H2V9H0V8Z" fill="#DD5400"/>
<path d="M3 8H5V9H3V8Z" fill="#DD5400"/>
<path d="M6 8H8V9H6V8Z" fill="#DD5400"/>
<path d="M9 8H11V9H9V8Z" fill="#DD5400"/>
<path d="M12 8H14V9H12V8Z" fill="#DD5400"/>
<path d="M15 8H17V9H15V8Z" fill="#DD5400"/>
<path d="M18 8H20V9H18V8Z" fill="#DD5400"/>
<path d="M21 8H23V9H21V8Z" fill="#DD5400"/>
<path d="M0 18H2V19H0V18Z" fill="#DD5400"/>
<path d="M3 18H5V19H3V18Z" fill="#DD5400"/>
<path d="M6 18H8V19H6V18Z" fill="#DD5400"/>
<path d="M9 18H11V19H9V18Z" fill="#DD5400"/>
<path d="M12 18H14V19H12V18Z" fill="#DD5400"/>
<path d="M15 18H17V19H15V18Z" fill="#DD5400"/>
<path d="M18 18H20V19H18V18Z" fill="#DD5400"/>
<path d="M21 18H23V19H21V18Z" fill="#DD5400"/>
<path d="M0.5 14.5H22.5" stroke="var(--mw-icon-glyph-content-gray, #616162)" stroke-linejoin="round"/>
<path d="M0.5 2.5C0.5 1.39543 1.39543 0.5 2.5 0.5H20.5C21.6046 0.5 22.5 1.39543 22.5 2.5V20.5C22.5 21.6046 21.6046 22.5 20.5 22.5H2.5C1.39543 22.5 0.5 21.6046 0.5 20.5V2.5Z" stroke="var(--mw-icon-border-default-gray, #616161)" stroke-linejoin="round"/>
</svg>
