<svg width="24" height="24" viewBox="0 0 24 24" fill="none" xmlns="http://www.w3.org/2000/svg">
<path d="M7.44365 1L16.5564 1L23 7.44365V16.5564L16.5564 23H7.44365L1 16.5564L1 7.44365L7.44365 1Z" fill="var(--mw-icon-object-primary, #616160)"/>
<path d="M13 13C13 13.5523 12.5523 14 12 14C11.4477 14 11 13.5523 11 13L11 7C11 6.44772 11.4477 6 12 6C12.5523 6 13 6.44772 13 7L13 13Z" fill="var(--mw-icon-object-secondary, #FFFFFE)"/>
<path d="M13 17C13 17.5523 12.5523 18 12 18C11.4477 18 11 17.5523 11 17C11 16.4477 11.4477 16 12 16C12.5523 16 13 16.4477 13 17Z" fill="var(--mw-icon-object-secondary, #FFFFFE)"/>
</svg>
