<svg width="24" height="24" viewBox="0 0 24 24" fill="none" xmlns="http://www.w3.org/2000/svg">
<path d="M17.5 0.5L0.5 17.5L6.5 23.5L9 21L12 18L15 15L18 12L21 9L23.5 6.5L17.5 0.5Z" fill="var(--mw-icon-background-default-white, #FFFFFF)"/>
<path d="M9 21L6.5 23.5L0.5 17.5L17.5 0.5L23.5 6.5L21 9M9 21L7.5 19.5M9 21L12 18M12 18L9.5 15.5M12 18L15 15M15 15L13.5 13.5M15 15L18 12M18 12L15.5 9.5M18 12L21 9M21 9L19.5 7.5" stroke="var(--mw-icon-border-default-gray, #616161)" stroke-linecap="round" stroke-linejoin="round"/>
<circle cx="17.5" cy="17.5" r="6" fill="var(--mw-icon-background-red, #FF9D9A)" stroke="var(--mw-icon-border-default-red, #902622)"/>
<path d="M20 15L15 20M15 15L20 20" stroke="var(--mw-icon-glyph-content-dark-red, #610908)" stroke-linecap="round"/>
</svg>
