<svg width="24" height="24" viewBox="0 0 24 24" fill="none" xmlns="http://www.w3.org/2000/svg">
<path d="M0.5 18.5V4.5C0.5 2.29086 2.29086 0.5 4.5 0.5H18.5C20.7091 0.5 22.5 2.29086 22.5 4.5V18.5C22.5 20.7091 20.7091 22.5 18.5 22.5H4.5C2.29086 22.5 0.5 20.7091 0.5 18.5Z" fill="#00A9E0"/>
<path d="M0.5 12.2518C0.569714 12.0353 1.34653 5.82353 2.83044 5.82353C5.47958 5.82353 4.92187 19 6.4755 19C8.02913 19 8.46733 3 11.4551 3C14.4428 3 13.4469 16.1765 14.9906 16.1765C16.5343 16.1765 18.3269 4.88235 20.6673 4.88235C21.4949 4.88235 22.07 5.89793 22.5 7.13787" stroke="var(--mw-icon-background-default-white, #FFFFFF)"/>
<path d="M1 11.5H22" stroke="white"/>
<path d="M18.885 15.8386L22 19.3957L19.3628 22L15.8751 18.8669C14.9273 19.2411 13.8891 19.3174 12.8973 19.0859C11.9056 18.8544 11.0069 18.3258 10.3198 17.5699C9.63266 16.814 9.18941 15.8664 9.04848 14.8519C8.90755 13.8374 9.07557 12.8038 9.53037 11.8874L13.2665 15.7328L15.0629 15.0214L15.8177 13.2333L11.9956 9.50315C12.9003 9.06364 13.915 8.90694 14.909 9.0533C15.903 9.19965 16.8306 9.64234 17.5721 10.3242C18.3136 11.0061 18.835 11.8959 19.069 12.8789C19.3031 13.8618 19.2389 14.8927 18.885 15.8386Z" fill="var(--mw-icon-background-default-white, #FFFFFF)" stroke="black" stroke-linejoin="round"/>
<path d="M0.5 18.5V4.5C0.5 2.29086 2.29086 0.5 4.5 0.5H18.5C20.7091 0.5 22.5 2.29086 22.5 4.5V18.5C22.5 20.7091 20.7091 22.5 18.5 22.5H4.5C2.29086 22.5 0.5 20.7091 0.5 18.5Z" stroke="#245474" stroke-linecap="round"/>
</svg>
