<svg width="24" height="24" viewBox="0 0 24 24" fill="none" xmlns="http://www.w3.org/2000/svg">
<path d="M0.5 18.5V4.5C0.5 2.29086 2.29086 0.5 4.5 0.5H18.5C20.7091 0.5 22.5 2.29086 22.5 4.5V18.5C22.5 20.7091 20.7091 22.5 18.5 22.5H4.5C2.29086 22.5 0.5 20.7091 0.5 18.5Z" fill="#00A9E0"/>
<path d="M22.5 8.78312C16.7234 11.3784 14.3185 6.17886 11.19 6.50022C8.28278 6.79884 3.23099 18.5301 2.04456 21.3808" stroke="#232B33" stroke-miterlimit="10"/>
<rect x="4.49995" y="4.5" width="3" height="3" fill="var(--mw-icon-background-default-white, #FFFFFF)" stroke="#273D4F"/>
<rect x="9.49995" y="9.5" width="3" height="3" fill="white" stroke="#273D4F"/>
<rect x="15.5" y="4.5" width="3" height="3" fill="white" stroke="#273D4F"/>
<rect x="17.5" y="12.5" width="3" height="3" fill="white" stroke="#273D4F"/>
<rect x="7.49995" y="15.5" width="3" height="3" fill="white" stroke="#273D4F"/>
<path d="M0.5 18.5V4.5C0.5 2.29086 2.29086 0.5 4.5 0.5H18.5C20.7091 0.5 22.5 2.29086 22.5 4.5V18.5C22.5 20.7091 20.7091 22.5 18.5 22.5H4.5C2.29086 22.5 0.5 20.7091 0.5 18.5Z" stroke="#245474" stroke-linecap="round"/>
</svg>
