<svg width="24" height="24" viewBox="0 0 24 24" fill="none" xmlns="http://www.w3.org/2000/svg">
<path d="M0.5 14.5H6.72222H14.5V7.03333V0.5H0.5V14.5Z" fill="var(--mw-icon-background-default-selection, #B4DEFF)" stroke="var(--mw-icon-border-default-blue, #1656A7)" stroke-linejoin="round"/>
<path d="M22.5 8.5H16.2H8.5V16.2V22.5H22.5V8.5Z" fill="var(--mw-icon-background-default-selection, #B4DEFF)" stroke="var(--mw-icon-border-default-blue, #1656A7)" stroke-linejoin="round"/>
<path d="M8.5 14.5H14.5V8.5H8.5V14.5Z" fill="var(--mw-icon-background-default-light-gray, #F5F5F5)"/>
<path d="M14.5 14.5V15C14.7761 15 15 14.7761 15 14.5H14.5ZM8.5 14.5H8V15H8.5V14.5ZM8.5 8.5V8C8.22386 8 8 8.22386 8 8.5H8.5ZM14.5 8.5H15V8H14.5V8.5ZM14.5 14H8.5V15H14.5V14ZM9 14.5V8.5H8V14.5H9ZM8.5 9H14.5V8H8.5V9ZM14 8.5V14.5H15V8.5H14Z" fill="var(--mw-icon-border-disabled-gray, #888888)"/>
</svg>
