<svg width="24" height="24" viewBox="0 0 24 24" fill="none" xmlns="http://www.w3.org/2000/svg">
<path d="M18.5 2.5H5.5C4.94772 2.5 4.5 2.94772 4.5 3.5V5.08579C4.5 5.351 4.60536 5.60536 4.79289 5.79289L5.91364 6.91364C6.28905 7.28905 6.49979 7.79832 6.49943 8.32923L6.49242 18.4986C6.49166 19.6037 7.38732 20.5 8.49242 20.5H17.5C18.6046 20.5 19.5 19.6046 19.5 18.5V3.5C19.5 2.94772 19.0523 2.5 18.5 2.5Z" fill="var(--mw-icon-background-default-white, #FFFFFF)" stroke="var(--mw-icon-border-default-gray, #616161)" stroke-linecap="round" stroke-linejoin="round"/>
<path d="M8 17V10.5C8 10.2239 8.22386 10 8.5 10H17.5C17.7761 10 18 10.2239 18 10.5V17C18 18.1046 17.1046 19 16 19H10C8.89543 19 8 18.1046 8 17Z" fill="#E6BFFF"/>
<circle cx="16" cy="8" r="1" fill="#E6BFFF"/>
<circle cx="10" cy="13" r="1" fill="white"/>
</svg>
