<svg width="24" height="24" viewBox="0 0 24 24" fill="none" xmlns="http://www.w3.org/2000/svg">
<path d="M0.5 18.5V4.5C0.5 2.29086 2.29086 0.5 4.5 0.5H18.5C20.7091 0.5 22.5 2.29086 22.5 4.5V18.5C22.5 20.7091 20.7091 22.5 18.5 22.5H4.5C2.29086 22.5 0.5 20.7091 0.5 18.5Z" fill="var(--mw-icon-background-default-white, white)"/>
<path d="M3.5 4.5L5.5 11.5M5.5 11.5L9.5 3.5M5.5 11.5L3.5 18.5" stroke="#FF453A" stroke-linecap="round" stroke-linejoin="round"/>
<rect x="8" y="2" width="3" height="3" rx="1" fill="var(--mw-icon-glyph-content-dark-blue, #104280)"/>
<rect x="2" y="3" width="3" height="3" rx="1" fill="var(--mw-icon-glyph-content-dark-blue, #104280)"/>
<rect x="4" y="10" width="3" height="3" rx="1" fill="var(--mw-icon-glyph-content-dark-blue, #104280)"/>
<rect x="2" y="17" width="3" height="3" rx="1" fill="var(--mw-icon-glyph-content-dark-blue, #104280)"/>
<path d="M17.5 6.5H10.5C9.94772 6.5 9.5 6.94772 9.5 7.5C9.5 8.05228 9.94772 8.5 10.5 8.5H10.8333C11.2015 8.5 11.5 8.79848 11.5 9.16667V10.9689C11.5 11.3169 11.4092 11.659 11.2365 11.9611L7.70822 18.1356C7.57177 18.3744 7.5 18.6447 7.5 18.9197C7.5 19.7925 8.20753 20.5 9.08032 20.5H18.9197C19.7925 20.5 20.5 19.7925 20.5 18.9197C20.5 18.6447 20.4282 18.3744 20.2918 18.1356L16.7635 11.9611C16.5908 11.659 16.5 11.3169 16.5 10.9689V9.16667C16.5 8.79848 16.7985 8.5 17.1667 8.5H17.5C18.0523 8.5 18.5 8.05228 18.5 7.5C18.5 6.94772 18.0523 6.5 17.5 6.5Z" stroke="var(--mw-icon-glyph-content-dark-gray, #333333)" stroke-linecap="round" stroke-linejoin="round"/>
<path d="M12.3553 13.2481L9.43863 18.2481C9.24419 18.5814 9.48462 19 9.87052 19H18.1295C18.5154 19 18.7558 18.5814 18.5614 18.2481L15.6447 13.2481C15.5551 13.0945 15.3906 13 15.2128 13H12.7872C12.6094 13 12.4449 13.0945 12.3553 13.2481Z" fill="var(--mw-icon-borderColor-light-blue, #268CDD)" stroke="var(--mw-icon-borderColor-light-blue, #268CDD)" stroke-linecap="round" stroke-linejoin="round"/>
<circle cx="14.5" cy="10.5" r="1" fill="var(--mw-icon-borderColor-light-blue, #268CDD)"/>
<circle cx="13" cy="15" r="1" fill="var(--mw-icon-background-default-white, white)"/>
<path d="M0.5 18.5V4.5C0.5 2.29086 2.29086 0.5 4.5 0.5H18.5C20.7091 0.5 22.5 2.29086 22.5 4.5V18.5C22.5 20.7091 20.7091 22.5 18.5 22.5H4.5C2.29086 22.5 0.5 20.7091 0.5 18.5Z" stroke="#B7312C" stroke-linecap="round"/>

</svg>
