<svg width="24" height="24" viewBox="0 0 24 24" fill="none" xmlns="http://www.w3.org/2000/svg">
<path fill-rule="evenodd" clip-rule="evenodd" d="M6.5 2.5H16.5C17.0523 2.5 17.5 2.94772 17.5 3.5V4.5C17.5 5.05228 17.0523 5.5 16.5 5.5H15.5V7.65456C17.6032 8.98313 19 11.3284 19 14C19 18.1421 15.6421 21.5 11.5 21.5C7.35786 21.5 4 18.1421 4 14C4 11.3284 5.39683 8.98313 7.5 7.65456V5.5H6.5C5.94772 5.5 5.5 5.05228 5.5 4.5V3.5C5.5 2.94772 5.94772 2.5 6.5 2.5Z" fill="var(--mw-icon-background-default-white, #FFFFFF)"/>
<path d="M15.5 5.5V5C15.2239 5 15 5.22386 15 5.5H15.5ZM15.5 7.65456H15C15 7.8261 15.0879 7.98567 15.233 8.07728L15.5 7.65456ZM7.5 7.65456L7.76703 8.07728C7.91206 7.98567 8 7.8261 8 7.65456H7.5ZM7.5 5.5H8C8 5.22386 7.77614 5 7.5 5V5.5ZM16.5 2H6.5V3H16.5V2ZM18 3.5C18 2.67157 17.3284 2 16.5 2V3C16.7761 3 17 3.22386 17 3.5H18ZM18 4.5V3.5H17V4.5H18ZM16.5 6C17.3284 6 18 5.32843 18 4.5H17C17 4.77614 16.7761 5 16.5 5V6ZM15.5 6H16.5V5H15.5V6ZM16 7.65456V5.5H15V7.65456H16ZM15.233 8.07728C17.1972 9.3181 18.5 11.5071 18.5 14H19.5C19.5 11.1498 18.0091 8.64816 15.767 7.23184L15.233 8.07728ZM18.5 14C18.5 17.866 15.366 21 11.5 21V22C15.9183 22 19.5 18.4183 19.5 14H18.5ZM11.5 21C7.63401 21 4.5 17.866 4.5 14H3.5C3.5 18.4183 7.08172 22 11.5 22V21ZM4.5 14C4.5 11.5071 5.80278 9.3181 7.76703 8.07728L7.23297 7.23184C4.99088 8.64816 3.5 11.1498 3.5 14H4.5ZM7 5.5V7.65456H8V5.5H7ZM6.5 6H7.5V5H6.5V6ZM5 4.5C5 5.32843 5.67157 6 6.5 6V5C6.22386 5 6 4.77614 6 4.5H5ZM5 3.5V4.5H6V3.5H5ZM6.5 2C5.67157 2 5 2.67157 5 3.5H6C6 3.22386 6.22386 3 6.5 3V2Z" fill="var(--mw-icon-border-default-gray, #616161)"/>
<path d="M17 14.5C17 17.5376 14.5376 20 11.5 20C8.46243 20 6 17.5376 6 14.5C6 11.4624 6 10 11.5 10C17 10 17 11.4624 17 14.5Z" fill="#FFAB66"/>
<circle cx="13" cy="8" r="1" fill="#FFAB66"/>
<circle cx="9" cy="13" r="1" fill="white"/>
</svg>
