<svg width="24" height="24" viewBox="0 0 24 24" fill="none" xmlns="http://www.w3.org/2000/svg">
<path d="M16.5 2.5H6.5C5.94772 2.5 5.5 2.94772 5.5 3.5V4.5C5.5 5.05228 5.94772 5.5 6.5 5.5H7.5V7.98175C7.5 8.32164 7.41338 8.65592 7.24831 8.95303L2.75169 17.047C2.58662 17.3441 2.5 17.6784 2.5 18.0183V18.5C2.5 19.6046 3.39543 20.5 4.5 20.5H18.5C19.6046 20.5 20.5 19.6046 20.5 18.5V18.0183C20.5 17.6784 20.4134 17.3441 20.2483 17.047L15.7517 8.95303C15.5866 8.65592 15.5 8.32164 15.5 7.98175V5.5H16.5C17.0523 5.5 17.5 5.05228 17.5 4.5V3.5C17.5 2.94772 17.0523 2.5 16.5 2.5Z" fill="var(--mw-icon-background-default-white, #FFFFFF)" stroke="var(--mw-icon-border-default-gray, #616161)" stroke-linecap="round" stroke-linejoin="round"/>
<path d="M8.70784 10.2465L4.00196 18.2465C3.80589 18.5798 4.04622 19 4.43292 19H18.5669C18.9536 19 19.1939 18.5798 18.9978 18.2465L14.2919 10.2465C14.2021 10.0938 14.0382 10 13.861 10H9.13881C8.96162 10 8.79767 10.0938 8.70784 10.2465Z" fill="var(--mw-icon-borderColor-light-blue, #268CDD)"/>
<circle cx="13" cy="8" r="1" fill="var(--mw-icon-borderColor-light-blue, #268CDD)"/>
<circle cx="9" cy="13" r="1" fill="white"/>
</svg>
