<svg width="24" height="24" viewBox="0 0 24 24" fill="none" xmlns="http://www.w3.org/2000/svg">
<mask id="path-1-inside-1_51372_8187" fill="var(--mw-icon-background-default-white, #FFFFFF)">
<path d="M0 20V4C0 1.79086 1.79086 0 4 0H20C22.2091 0 24 1.79086 24 4V20C24 22.2091 22.2091 24 20 24H4C1.79086 24 0 22.2091 0 20Z"/>
</mask>
<path d="M0 20V4C0 1.79086 1.79086 0 4 0H20C22.2091 0 24 1.79086 24 4V20C24 22.2091 22.2091 24 20 24H4C1.79086 24 0 22.2091 0 20Z" fill="white" stroke="var(--mw-icon-border-default-gray, #616161)" stroke-width="2" stroke-linecap="round" mask="url(#path-1-inside-1_51372_8187)"/>
<mask id="path-2-inside-2_51372_8187" fill="white">
<path d="M3 16V5C3 3.89543 3.89543 3 5 3H19C20.1046 3 21 3.89543 21 5V16C21 17.1046 20.1046 18 19 18H5C3.89543 18 3 17.1046 3 16Z"/>
</mask>
<path d="M3 16V5C3 3.89543 3.89543 3 5 3H19C20.1046 3 21 3.89543 21 5V16C21 17.1046 20.1046 18 19 18H5C3.89543 18 3 17.1046 3 16Z" fill="var(--mw-icon-background-default-medium-gray, #D9D9D9)" stroke="var(--mw-icon-glyph-content-gray, #616162)" stroke-width="2" stroke-linecap="round" mask="url(#path-2-inside-2_51372_8187)"/>
<path d="M7.5 5.5L7.5 17.5" stroke="var(--mw-icon-glyph-content-gray, #616162)"/>
<line x1="4" y1="8.5" x2="7" y2="8.5" stroke="var(--mw-icon-glyph-content-gray, #616162)"/>
<mask id="path-5-inside-3_51372_8187" fill="white">
<path d="M3 4.875C3 3.62501 4.05882 3 5.64706 3H18.3529C19.9412 2.99999 21 3.77043 21 4.875V6H12H3V4.875Z"/>
</mask>
<path d="M3 4.875C3 3.62501 4.05882 3 5.64706 3H18.3529C19.9412 2.99999 21 3.77043 21 4.875V6H12H3V4.875Z" fill="var(--mw-icon-background-default-dark-gray, #A6A6A6)" stroke="var(--mw-icon-glyph-content-gray, #616162)" stroke-width="2" stroke-linecap="round" stroke-linejoin="round" mask="url(#path-5-inside-3_51372_8187)"/>
<path d="M15.5 16.5V21.5L21.5 19.5V14.5C21.5 14.5 18.1667 15.463 15.5 16.5Z" fill="var(--mw-icon-background-medium-blue, #83CAFF)" stroke="var(--mw-icon-glyph-content-blue, #1656A8)" stroke-linejoin="round"/>
<path d="M9.5 19.5V14.5L15.5 16.5V21.5L9.5 19.5Z" fill="white" stroke="var(--mw-icon-glyph-content-blue, #1656A8)" stroke-linejoin="round"/>
<path d="M9.5 14.5L15.5 12.5L21.5 14.5L15.5 16.5L9.5 14.5Z" fill="var(--mw-icon-background-default-selection, #B4DEFF)" stroke="var(--mw-icon-glyph-content-blue, #1656A8)" stroke-linejoin="round"/>
<path d="M11.5 16.5V17.5" stroke="var(--mw-icon-glyph-content-dark-gray, #333333)" stroke-linecap="round"/>
</svg>
