<svg width="24" height="24" viewBox="0 0 24 24" fill="none" xmlns="http://www.w3.org/2000/svg">
<g id="export_workspace">
<g id="Group 564">
<g id="Group 257">
<rect id="box" x="0.5" y="0.5" width="18" height="18" rx="2" fill="var(--mw-icon-background-light-yellow, #FFF5BC)" stroke="var(--mw-icon-border-default-blue, #1656A7)"/>
<path id="Vector 513" d="M1.5 9.5H17.5" stroke="var(--mw-icon-borderColor-light-blue, #268CDD)" stroke-linecap="square"/>
<path id="Vector 514" d="M9.5 1.5L9.5 17.5" stroke="var(--mw-icon-borderColor-light-blue, #268CDD)" stroke-linecap="square"/>
</g>
<rect id="Rectangle 1416" x="9.5" y="9.5" width="14" height="14" rx="2" fill="var(--mw-icon-background-default-white, #FFFFFF)" stroke="var(--mw-icon-border-default-gray, #616161)"/>
<g id="Vector 323">
<path d="M16.2368 17.4545L16.2368 20.1818L21.5 15.8182L16.2368 12L16.2368 14.7273C13.6208 14.7273 11.5 16.848 11.5 19.4641L11.5 21C11.5 19.0419 13.0874 17.4545 15.0455 17.4545L16.2368 17.4545Z" fill="var(--mw-icon-background-default-action, #CBFFBE)"/>
<path d="M16.2368 20.1818L15.7368 20.1818L15.7368 21.2459L16.556 20.5667L16.2368 20.1818ZM16.2368 17.4545L16.7368 17.4545L16.7368 16.9545L16.2368 16.9545L16.2368 17.4545ZM15.0455 17.4545L15.0455 17.9545L15.0455 17.4545ZM16.2368 14.7273L16.2368 15.2273L16.7368 15.2273L16.7368 14.7273L16.2368 14.7273ZM16.2368 12L16.5304 11.5953L15.7368 11.0196L15.7368 12L16.2368 12ZM21.5 15.8182L21.8191 16.2031L22.3152 15.7918L21.7936 15.4135L21.5 15.8182ZM16.7368 20.1818L16.7368 17.4545L15.7368 17.4545L15.7368 20.1818L16.7368 20.1818ZM16.2368 16.9545L15.0455 16.9545L15.0455 17.9545L16.2368 17.9545L16.2368 16.9545ZM12 21L12 19.4641L11 19.4641L11 21L12 21ZM16.7368 14.7273L16.7368 12L15.7368 12L15.7368 14.7273L16.7368 14.7273ZM15.9432 12.4047L21.2064 16.2229L21.7936 15.4135L16.5304 11.5953L15.9432 12.4047ZM21.1809 15.4333L15.9177 19.7969L16.556 20.5667L21.8191 16.2031L21.1809 15.4333ZM12 19.4641C12 17.1242 13.8969 15.2273 16.2368 15.2273L16.2368 14.2273C13.3446 14.2273 11 16.5719 11 19.4641L12 19.4641ZM15.0455 16.9545C12.8112 16.9545 11 18.7658 11 21L12 21C12 19.318 13.3635 17.9545 15.0455 17.9545L15.0455 16.9545Z" fill="var(--mw-icon-border-default-green, #008013)"/>
</g>
</g>
</g>
</svg>
