<svg width="24" height="24" viewBox="0 0 24 24" fill="none" xmlns="http://www.w3.org/2000/svg">
<g id="export_documentHierarchy">
<g id="Group 564">
<g id="Group 566">
<g id="rep">
<g id="Group 334">
<path id="Vector 276" d="M10.962 0.895874H2C1.17157 0.895874 0.5 1.56745 0.5 2.39588V17.6042C0.5 18.4326 1.17157 19.1042 2 19.1042H14.0417C14.8701 19.1042 15.5417 18.4326 15.5417 17.6042V5.47553C15.5417 5.0777 15.3836 4.69617 15.1023 4.41487L12.0227 1.33521C11.7414 1.05391 11.3598 0.895874 10.962 0.895874Z" fill="var(--mw-icon-background-default-white, #FFFFFF)" stroke="var(--mw-icon-border-default-gray, #616161)" stroke-linecap="round"/>
</g>
<g id="hierarchy">
<g id="Group 380">
<path id="Vector 469" d="M7.96616 8.56511V9.95053H5.19533V11.3359" stroke="var(--mw-icon-glyph-disabled-gray, #888889)" stroke-linecap="square" stroke-linejoin="round"/>
<path id="Vector 470" d="M7.96617 9.95053H10.737V11.3359V13.5625" stroke="var(--mw-icon-glyph-disabled-gray, #888889)" stroke-linecap="square" stroke-linejoin="round"/>
<path id="Vector 471" d="M3.1172 13.6068V12.5286C3.1172 12.2525 3.34106 12.0286 3.6172 12.0286H6.77345C7.0496 12.0286 7.27345 12.2525 7.27345 12.5286V13.6068C7.27345 13.8829 7.0496 14.1068 6.77345 14.1068H3.6172C3.34106 14.1068 3.1172 13.8829 3.1172 13.6068Z" fill="var(--mw-icon-background-medium-yellow, #FFEF91)" stroke="#674C06" stroke-linecap="square"/>
<path id="Vector 468" d="M3.80992 7.3724V5.60156C3.80992 5.32542 4.03378 5.10156 4.30992 5.10156H11.6224C11.8986 5.10156 12.1224 5.32542 12.1224 5.60156V7.3724C12.1224 7.64854 11.8986 7.8724 11.6224 7.8724H4.30992C4.03378 7.8724 3.80992 7.64854 3.80992 7.3724Z" fill="var(--mw-icon-background-default-selection, #B4DEFF)" stroke="var(--mw-icon-border-default-blue, #1656A7)" stroke-linecap="square"/>
</g>
</g>
</g>
</g>
<rect id="Rectangle 1416" x="9.5" y="9" width="14" height="14" rx="2" fill="white" stroke="var(--mw-icon-border-default-gray, #616161)"/>
<g id="Vector 323">
<path d="M16.2368 16.9545L16.2368 19.6818L21.5 15.3182L16.2368 11.5L16.2368 14.2273C13.6208 14.2273 11.5 16.348 11.5 18.9641L11.5 20.5C11.5 18.5419 13.0874 16.9545 15.0455 16.9545L16.2368 16.9545Z" fill="var(--mw-icon-background-default-action, #CBFFBE)"/>
<path d="M16.2368 19.6818L15.7368 19.6818L15.7368 20.7459L16.556 20.0667L16.2368 19.6818ZM16.2368 16.9545L16.7368 16.9545L16.7368 16.4545L16.2368 16.4545L16.2368 16.9545ZM15.0455 16.9545L15.0455 17.4545L15.0455 16.9545ZM16.2368 14.2273L16.2368 14.7273L16.7368 14.7273L16.7368 14.2273L16.2368 14.2273ZM16.2368 11.5L16.5304 11.0953L15.7368 10.5196L15.7368 11.5L16.2368 11.5ZM21.5 15.3182L21.8191 15.7031L22.3152 15.2918L21.7936 14.9135L21.5 15.3182ZM16.7368 19.6818L16.7368 16.9545L15.7368 16.9545L15.7368 19.6818L16.7368 19.6818ZM16.2368 16.4545L15.0455 16.4545L15.0455 17.4545L16.2368 17.4545L16.2368 16.4545ZM12 20.5L12 18.9641L11 18.9641L11 20.5L12 20.5ZM16.7368 14.2273L16.7368 11.5L15.7368 11.5L15.7368 14.2273L16.7368 14.2273ZM15.9432 11.9047L21.2064 15.7229L21.7936 14.9135L16.5304 11.0953L15.9432 11.9047ZM21.1809 14.9333L15.9177 19.2969L16.556 20.0667L21.8191 15.7031L21.1809 14.9333ZM12 18.9641C12 16.6242 13.8969 14.7273 16.2368 14.7273L16.2368 13.7273C13.3446 13.7273 11 16.0719 11 18.9641L12 18.9641ZM15.0455 16.4545C12.8112 16.4545 11 18.2658 11 20.5L12 20.5C12 18.818 13.3635 17.4545 15.0455 17.4545L15.0455 16.4545Z" fill="var(--mw-icon-border-default-green, #008013)"/>
</g>
</g>
</g>
</svg>
