<svg width="24" height="24" viewBox="0 0 24 24" fill="none" xmlns="http://www.w3.org/2000/svg">
<path d="M1.5 0.5H17.5C18.0523 0.5 18.5 0.947716 18.5 1.5V17.5C18.5 18.0523 18.0523 18.5 17.5 18.5H1.5C0.947716 18.5 0.5 18.0523 0.5 17.5V1.5C0.5 0.947715 0.947716 0.5 1.5 0.5Z" fill="var(--mw-icon-background-default-white, #FFFFFF)" stroke="var(--mw-icon-border-default-gray, #616161)" stroke-linecap="round"/>
<path fill-rule="evenodd" clip-rule="evenodd" d="M19 5.77431C18.2968 5.23882 17.6316 5 17 5C16.2459 5 15.4438 5.3405 14.5863 6.11997C13.7262 6.90191 12.8409 8.0996 11.9381 9.74096C11.0075 11.4329 10.0595 12.7352 9.08634 13.62C8.11042 14.5072 7.0792 15 6 15C4.9208 15 3.88958 14.5072 2.91366 13.62C1.94047 12.7352 0.992477 11.4329 0.0618916 9.74096C-0.0711861 9.499 0.0170803 9.19497 0.259041 9.06189C0.501001 8.92881 0.805029 9.01708 0.938108 9.25904C1.84086 10.9004 2.7262 12.0981 3.58634 12.88C4.44375 13.6595 5.24587 14 6 14C6.75413 14 7.55624 13.6595 8.41366 12.88C9.2738 12.0981 10.1591 10.9004 11.0619 9.25904C11.9925 7.56707 12.9405 6.26476 13.9137 5.38003C14.8896 4.49283 15.9208 4 17 4C17.6867 4 18.354 4.19955 19 4.57329V5.77431Z" fill="#1171BE"/>
<path fill-rule="evenodd" clip-rule="evenodd" d="M2.86107e-05 13.2257C0.703217 13.7612 1.36845 14 2.00003 14C2.75416 14 3.55627 13.6595 4.41369 12.88C5.27383 12.0981 6.15917 10.9004 7.06192 9.25904C7.99251 7.56707 8.94049 6.26476 9.91369 5.38003C10.8896 4.49283 11.9208 4 13 4C14.0792 4 15.1105 4.49283 16.0864 5.38003C17.0596 6.26476 18.0076 7.56707 18.9381 9.25904C19.0712 9.501 18.9829 9.80503 18.741 9.93811C18.499 10.0712 18.195 9.98292 18.0619 9.74096C17.1592 8.0996 16.2738 6.90191 15.4137 6.11997C14.5563 5.3405 13.7542 5 13 5C12.2459 5 11.4438 5.3405 10.5864 6.11997C9.72623 6.90191 8.84089 8.0996 7.93814 9.74096C7.00755 11.4329 6.05956 12.7352 5.08636 13.62C4.11045 14.5072 3.07923 15 2.00003 15C1.3133 15 0.646009 14.8004 2.86107e-05 14.4267V13.2257Z" fill="#D95319"/>
<path d="M1.5 0.5H17.5C18.0523 0.5 18.5 0.947716 18.5 1.5V17.5C18.5 18.0523 18.0523 18.5 17.5 18.5H1.5C0.947716 18.5 0.5 18.0523 0.5 17.5V1.5C0.5 0.947715 0.947716 0.5 1.5 0.5Z" stroke="var(--mw-icon-border-default-gray, #616161)" stroke-linecap="round"/>
<path d="M9.5 11.5C9.5 10.3954 10.3954 9.5 11.5 9.5H21.5C22.6046 9.5 23.5 10.3954 23.5 11.5V21.5C23.5 22.6046 22.6046 23.5 21.5 23.5H11.5C10.3954 23.5 9.5 22.6046 9.5 21.5V11.5Z" fill="white"/>
<path d="M16.5 17.5V20.5L22 16L16.5 11.5L16.5 14.5H15.5C13.2909 14.5 11.5 16.2909 11.5 18.5L11.5 23C11.5 20.7909 12.7909 17.5 15 17.5H16.5Z" fill="var(--mw-icon-background-default-action, #CBFFBE)" stroke="var(--mw-icon-glyph-content-green, #008014)" stroke-linecap="square"/>
<path d="M9.5 11.5C9.5 10.3954 10.3954 9.5 11.5 9.5H21.5C22.6046 9.5 23.5 10.3954 23.5 11.5V21.5C23.5 22.6046 22.6046 23.5 21.5 23.5H11.5C10.3954 23.5 9.5 22.6046 9.5 21.5V11.5Z" stroke="var(--mw-icon-border-default-gray, #616161)"/>
</svg>
