<svg width="24" height="24" viewBox="0 0 24 24" fill="none" xmlns="http://www.w3.org/2000/svg">
<path d="M16.5 0.5H2.5C1.39543 0.5 0.5 1.39543 0.5 2.5V16.5C0.5 17.6046 1.39543 18.5 2.5 18.5H16.5C17.6046 18.5 18.5 17.6046 18.5 16.5V2.5C18.5 1.39543 17.6046 0.5 16.5 0.5Z" fill="var(--mw-icon-background-default-white, #FFFFFF)" stroke="var(--mw-icon-border-default-gray, #616161)"/>
<path d="M6.5 3.5H12.5C12.7018 3.50002 11.2743 4.47761 9.5 5.84088C12.1214 7.85499 15.5 10.7109 15.5 12.5C15.5 15.5 13.25 15.5 12.6111 15.5H6.83333C6.41667 15.5 3.5 15.5 3.5 12.5C3.5 10.7109 6.87856 7.85499 9.5 5.84088C7.72566 4.47761 6.29818 3.50002 6.5 3.5Z" fill="var(--mw-icon-background-default-dark-gray, #A6A6A6)"/>
<path d="M6.5 3.5C7 3.49994 12 3.49994 12.5 3.5C13 3.50006 3.5 9.5 3.5 12.5C3.5 15.5 6.41667 15.5 6.83333 15.5C7.25 15.5 11.9722 15.5 12.6111 15.5C13.25 15.5 15.5 15.5 15.5 12.5C15.5 9.5 6 3.50006 6.5 3.5Z" stroke="var(--mw-icon-glyph-content-dark-gray, #333333)"/>
<path d="M9.5 11.5C9.5 10.3954 10.3954 9.5 11.5 9.5H21.5C22.6046 9.5 23.5 10.3954 23.5 11.5V21.5C23.5 22.6046 22.6046 23.5 21.5 23.5H11.5C10.3954 23.5 9.5 22.6046 9.5 21.5V11.5Z" fill="white"/>
<path d="M16.5 17.5V20.5L22 16L16.5 11.5L16.5 14.5H15.5C13.2909 14.5 11.5 16.2909 11.5 18.5L11.5 23C11.5 20.7909 12.7909 17.5 15 17.5H16.5Z" fill="var(--mw-icon-background-default-action, #CBFFBE)" stroke="var(--mw-icon-glyph-content-green, #008014)" stroke-linecap="square"/>
<path d="M9.5 11.5C9.5 10.3954 10.3954 9.5 11.5 9.5H21.5C22.6046 9.5 23.5 10.3954 23.5 11.5V21.5C23.5 22.6046 22.6046 23.5 21.5 23.5H11.5C10.3954 23.5 9.5 22.6046 9.5 21.5V11.5Z" stroke="var(--mw-icon-border-default-gray, #616161)"/>
</svg>
