<svg width="24" height="24" viewBox="0 0 24 24" fill="none" xmlns="http://www.w3.org/2000/svg">
<g id="export_projectArchive">
<g id="Group 564">
<g id="Group 579">
<g id="Group 375">
<g id="BOTTOM BOX">
<path id="bottom box" d="M1.5 4.50005H17.5V14.5C17.5 15.0523 17.0523 15.5 16.5 15.5H2.5C1.94772 15.5 1.5 15.0523 1.5 14.5V4.50005Z" fill="var(--mw-icon-background-lightest-blue, #E2F0FF)" stroke="var(--mw-icon-border-default-blue, #1656A7)"/>
</g>
<g id="top box">
<path d="M0.5 1C0.5 0.723858 0.723858 0.5 1 0.5H18C18.2761 0.5 18.5 0.723858 18.5 1V4.5H0.5V1Z" fill="var(--mw-icon-background-lightest-blue, #E2F0FF)"/>
<path d="M18.5 4.5V5C18.7761 5 19 4.77614 19 4.5H18.5ZM0.5 4.5H0C0 4.77614 0.223858 5 0.5 5L0.5 4.5ZM1 1H18V0H1V1ZM18 1V4.5H19V1H18ZM18.5 4H0.5V5H18.5V4ZM1 4.5V1H0V4.5H1ZM18 1H19C19 0.447715 18.5523 0 18 0V1ZM1 0C0.447715 0 0 0.447715 0 1H1V0Z" fill="var(--mw-icon-border-default-blue, #1656A7)"/>
</g>
</g>
<g id="Group 563">
<rect id="Rectangle 1187" x="7.5" y="5" width="4" height="8" fill="var(--mw-icon-glyph-content-dark-gray, #333333)"/>
<rect id="Rectangle 1181" x="8.5" y="5" width="1" height="1" fill="var(--mw-icon-background-default-medium-gray, #D9D9D9)"/>
<rect id="Rectangle 1182" x="9.5" y="6" width="1" height="1" fill="var(--mw-icon-background-default-medium-gray, #D9D9D9)"/>
<rect id="Rectangle 1184" x="9.5" y="8" width="1" height="1" fill="var(--mw-icon-background-default-medium-gray, #D9D9D9)"/>
<rect id="Rectangle 1186" x="9.5" y="10" width="1" height="1" fill="var(--mw-icon-background-default-medium-gray, #D9D9D9)"/>
<rect id="Rectangle 1183" x="8.5" y="7" width="1" height="1" fill="var(--mw-icon-background-default-medium-gray, #D9D9D9)"/>
<rect id="Rectangle 1185" x="8.5" y="9" width="1" height="1" fill="var(--mw-icon-background-default-medium-gray, #D9D9D9)"/>
<rect id="Rectangle 1189" x="8.5" y="11" width="1" height="1" fill="var(--mw-icon-background-default-medium-gray, #D9D9D9)"/>
<path id="Vector 593" d="M8 17V13C8 12.7239 8.22386 12.5 8.5 12.5H10.5C10.7761 12.5 11 12.7239 11 13V17C11 17.2761 10.7761 17.5 10.5 17.5H8.5C8.22386 17.5 8 17.2761 8 17Z" fill="var(--mw-icon-background-default-medium-gray, #D9D9D9)" stroke="var(--mw-icon-border-default-gray, #616161)" stroke-linecap="round"/>
<rect id="Rectangle 1188" x="8.5" y="16" width="2" height="1" fill="var(--mw-icon-background-default-dark-gray, #A6A6A6)"/>
</g>
</g>
<rect id="Rectangle 1416" x="9.5" y="9" width="14" height="14" rx="2" fill="var(--mw-icon-background-default-white, #FFFFFF)" stroke="var(--mw-icon-border-default-gray, #616161)"/>
<g id="Vector 323">
<path d="M16.2368 16.9545L16.2368 19.6818L21.5 15.3182L16.2368 11.5L16.2368 14.2273C13.6208 14.2273 11.5 16.348 11.5 18.9641L11.5 20.5C11.5 18.5419 13.0874 16.9545 15.0455 16.9545L16.2368 16.9545Z" fill="var(--mw-icon-background-default-action, #CBFFBE)"/>
<path d="M16.2368 19.6818L15.7368 19.6818L15.7368 20.7459L16.556 20.0667L16.2368 19.6818ZM16.2368 16.9545L16.7368 16.9545L16.7368 16.4545L16.2368 16.4545L16.2368 16.9545ZM15.0455 16.9545L15.0455 17.4545L15.0455 16.9545ZM16.2368 14.2273L16.2368 14.7273L16.7368 14.7273L16.7368 14.2273L16.2368 14.2273ZM16.2368 11.5L16.5304 11.0953L15.7368 10.5196L15.7368 11.5L16.2368 11.5ZM21.5 15.3182L21.8191 15.7031L22.3152 15.2918L21.7936 14.9135L21.5 15.3182ZM16.7368 19.6818L16.7368 16.9545L15.7368 16.9545L15.7368 19.6818L16.7368 19.6818ZM16.2368 16.4545L15.0455 16.4545L15.0455 17.4545L16.2368 17.4545L16.2368 16.4545ZM12 20.5L12 18.9641L11 18.9641L11 20.5L12 20.5ZM16.7368 14.2273L16.7368 11.5L15.7368 11.5L15.7368 14.2273L16.7368 14.2273ZM15.9432 11.9047L21.2064 15.7229L21.7936 14.9135L16.5304 11.0953L15.9432 11.9047ZM21.1809 14.9333L15.9177 19.2969L16.556 20.0667L21.8191 15.7031L21.1809 14.9333ZM12 18.9641C12 16.6242 13.8969 14.7273 16.2368 14.7273L16.2368 13.7273C13.3446 13.7273 11 16.0719 11 18.9641L12 18.9641ZM15.0455 16.4545C12.8112 16.4545 11 18.2658 11 20.5L12 20.5C12 18.818 13.3635 17.4545 15.0455 17.4545L15.0455 16.4545Z" fill="var(--mw-icon-border-default-green, #008013)"/>
</g>
</g>
</g>
</svg>
