<svg width="24" height="24" viewBox="0 0 24 24" fill="none" xmlns="http://www.w3.org/2000/svg">
<path d="M14.5 0.5H2.5C1.39543 0.5 0.5 1.39543 0.5 2.5V16.5C0.5 17.6046 1.39543 18.5 2.5 18.5H14.5C15.6046 18.5 16.5 17.6046 16.5 16.5V2.5C16.5 1.39543 15.6046 0.5 14.5 0.5Z" fill="var(--mw-icon-background-default-white, #FFFFFF)" stroke="var(--mw-icon-border-default-gray, #616161)" stroke-linecap="round"/>
<path d="M3.5 10C3.5 9.72386 3.72386 9.5 4 9.5H12C12.2761 9.5 12.5 9.72386 12.5 10V15C12.5 15.2761 12.2761 15.5 12 15.5H4C3.72386 15.5 3.5 15.2761 3.5 15V10Z" fill="var(--mw-icon-background-default-selection, #B4DEFF)" stroke="var(--mw-icon-glyph-content-light-blue, #278CDD)"/>
<path d="M6.5 6.5H10.5" stroke="var(--mw-icon-glyph-content-gray, #616162)" stroke-linecap="round"/>
<path d="M3.5 3.5H7.5" stroke="var(--mw-icon-glyph-content-red, #902623)" stroke-linecap="round"/>
<path d="M9.5 11.5C9.5 10.3954 10.3954 9.5 11.5 9.5H21.5C22.6046 9.5 23.5 10.3954 23.5 11.5V21.5C23.5 22.6046 22.6046 23.5 21.5 23.5H11.5C10.3954 23.5 9.5 22.6046 9.5 21.5V11.5Z" fill="white"/>
<path d="M16.5 17.5V20.5L22 16L16.5 11.5L16.5 14.5H15.5C13.2909 14.5 11.5 16.2909 11.5 18.5L11.5 23C11.5 20.7909 12.7909 17.5 15 17.5H16.5Z" fill="var(--mw-icon-background-default-action, #CBFFBE)" stroke="var(--mw-icon-glyph-content-green, #008014)" stroke-linecap="square"/>
<path d="M9.5 11.5C9.5 10.3954 10.3954 9.5 11.5 9.5H21.5C22.6046 9.5 23.5 10.3954 23.5 11.5V21.5C23.5 22.6046 22.6046 23.5 21.5 23.5H11.5C10.3954 23.5 9.5 22.6046 9.5 21.5V11.5Z" stroke="var(--mw-icon-border-default-gray, #616161)"/>
</svg>
