<svg width="24" height="24" viewBox="0 0 24 24" fill="none" xmlns="http://www.w3.org/2000/svg">
<path d="M1.5 20V14C1.5 13.7239 1.72386 13.5 2 13.5H21C21.2761 13.5 21.5 13.7239 21.5 14V20C21.5 20.2761 21.2761 20.5 21 20.5H2C1.72386 20.5 1.5 20.2761 1.5 20Z" stroke="var(--mw-icon-object-primary, #616160)"/>
<path d="M19 17C19 17.8284 18.3284 18.5 17.5 18.5C16.6716 18.5 16 17.8284 16 17C16 16.1716 16.6716 15.5 17.5 15.5C18.3284 15.5 19 16.1716 19 17Z" stroke="var(--mw-icon-object-primary, #616160)"/>
<path d="M15.5 8.5L15.5 12.5L22 7L15.5 2L15.5 5.5L12.5 5.5C10.2909 5.5 8.5 7.29086 8.5 9.5L8.5 13C8.5 10.5147 10.5147 8.5 13 8.5L15.5 8.5Z" stroke="var(--mw-icon-object-primary, #616160)" stroke-linecap="square"/>
</svg>
