<svg width="24" height="24" viewBox="0 0 24 24" fill="none" xmlns="http://www.w3.org/2000/svg">
<path d="M21 18L16 13L18 11L23 16C23.5523 16.5523 23.5523 17.4477 23 18C22.4477 18.5523 21.5523 18.5523 21 18Z" fill="var(--mw-icon-background-default-medium-gray, #D9D9D9)" stroke="var(--mw-icon-border-default-gray, #616161)"/>
<path d="M17.4498 2.55025C20.1834 5.28392 20.1834 9.71608 17.4497 12.4497C14.716 15.1834 10.2838 15.1834 7.5502 12.4497C4.81656 9.71608 4.8166 5.28392 7.5503 2.55025C10.284 -0.183417 14.7162 -0.183418 17.4498 2.55025Z" fill="var(--mw-icon-background-default-white, #FFFFFF)" stroke="var(--mw-icon-border-default-gray, #616161)"/>
<path d="M0.5 11.5C0.5 10.3954 1.39543 9.5 2.5 9.5H12.5C13.6046 9.5 14.5 10.3954 14.5 11.5V21.5C14.5 22.6046 13.6046 23.5 12.5 23.5H2.5C1.39543 23.5 0.5 22.6046 0.5 21.5V11.5Z" fill="white"/>
<path d="M7.5 17.5L7.5 20.5L13 16L7.5 11.5L7.5 14.5H6.5C4.29086 14.5 2.5 16.2909 2.5 18.5L2.5 23C2.5 20.7909 3.79086 17.5 6 17.5H7.5Z" fill="var(--mw-icon-background-default-action, #CBFFBE)" stroke="var(--mw-icon-glyph-content-green, #008014)" stroke-linecap="square"/>
<path d="M0.5 11.5C0.5 10.3954 1.39543 9.5 2.5 9.5H12.5C13.6046 9.5 14.5 10.3954 14.5 11.5V21.5C14.5 22.6046 13.6046 23.5 12.5 23.5H2.5C1.39543 23.5 0.5 22.6046 0.5 21.5V11.5Z" stroke="var(--mw-icon-border-default-gray, #616161)"/>
</svg>
