<svg width="24" height="24" viewBox="0 0 24 24" fill="none" xmlns="http://www.w3.org/2000/svg">
<path d="M0.5 22.5V15.5C0.5 14.9477 0.947715 14.5 1.5 14.5H22.5C23.0523 14.5 23.5 14.9477 23.5 15.5V22.5C23.5 23.0523 23.0523 23.5 22.5 23.5H1.5C0.947715 23.5 0.5 23.0523 0.5 22.5Z" fill="var(--mw-icon-background-default-light-gray, #F5F5F5)" stroke="var(--mw-icon-border-default-gray, #616161)"/>
<circle cx="20" cy="19" r="1.5" fill="var(--mw-icon-background-default-action, #CBFFBE)" stroke="var(--mw-icon-glyph-content-green, #008014)"/>
<path d="M12.5 11.5L12.5 16.5L22.5 8.5L12.5 1.5L12.5 6.5L11 6.5C6.85786 6.5 3.5 9.85786 3.5 14L3.5 18C3.5 14.4101 6.41015 11.5 10 11.5L12.5 11.5Z" fill="var(--mw-icon-background-default-action, #CBFFBE)"/>
<path d="M12.5 16.5L12 16.5L12 17.5403L12.8123 16.8904L12.5 16.5ZM12.5 11.5L13 11.5L13 11L12.5 11L12.5 11.5ZM10 11.5L10 12L10 11.5ZM12.5 6.5L12.5 7L13 7L13 6.5L12.5 6.5ZM12.5 1.5L12.7867 1.09038L12 0.539672L12 1.5L12.5 1.5ZM22.5 8.5L22.8123 8.89043L23.3338 8.4733L22.7867 8.09038L22.5 8.5ZM13 16.5L13 11.5L12 11.5L12 16.5L13 16.5ZM12.5 11L10 11L10 12L12.5 12L12.5 11ZM4 18L4 14L3 14L3 18L4 18ZM11 7L12.5 7L12.5 6L11 6L11 7ZM13 6.5L13 1.5L12 1.5L12 6.5L13 6.5ZM12.2133 1.90962L22.2133 8.90962L22.7867 8.09038L12.7867 1.09038L12.2133 1.90962ZM22.1877 8.10957L12.1877 16.1096L12.8123 16.8904L22.8123 8.89043L22.1877 8.10957ZM4 14C4 10.134 7.13401 7 11 7L11 6C6.58172 6 3 9.58172 3 14L4 14ZM10 11C6.13401 11 3 14.134 3 18L4 18C4 14.6863 6.68629 12 10 12L10 11Z" fill="var(--mw-icon-border-default-green, #008013)"/>
<path d="M8.73423 19.984H9.99159C9.96636 20.3768 9.85282 20.7255 9.65097 21.0301C9.45192 21.3347 9.17297 21.5725 8.81413 21.7435C8.45809 21.9145 8.02916 22 7.52733 22C7.13485 22 6.78301 21.9359 6.47183 21.8076C6.16064 21.6767 5.89431 21.4896 5.67283 21.2465C5.45416 21.0033 5.28736 20.7094 5.17241 20.3647C5.05747 20.02 5 19.6339 5 19.2064V18.8016C5 18.3741 5.05887 17.988 5.17662 17.6433C5.29717 17.2959 5.46818 17.0007 5.68966 16.7575C5.91393 16.5144 6.18167 16.3273 6.49285 16.1964C6.80404 16.0655 7.15167 16 7.53574 16C8.04598 16 8.47631 16.0882 8.82675 16.2645C9.17998 16.4409 9.45332 16.684 9.64676 16.994C9.84301 17.3039 9.96075 17.6566 10 18.0521H8.73844C8.72442 17.817 8.67536 17.6179 8.59125 17.4549C8.50715 17.2892 8.37959 17.165 8.20858 17.0822C8.04037 16.9967 7.81609 16.9539 7.53574 16.9539C7.32548 16.9539 7.14186 16.9913 6.98486 17.0661C6.82787 17.1409 6.6961 17.2545 6.58957 17.4068C6.48304 17.5591 6.40314 17.7515 6.34987 17.984C6.29941 18.2138 6.27418 18.4836 6.27418 18.7936V19.2064C6.27418 19.5084 6.29801 19.7742 6.34567 20.004C6.39333 20.2311 6.46622 20.4235 6.56434 20.5812C6.66526 20.7361 6.79422 20.8537 6.95122 20.9339C7.11102 21.0114 7.30306 21.0501 7.52733 21.0501C7.79086 21.0501 8.00813 21.01 8.17914 20.9299C8.35015 20.8497 8.48052 20.7308 8.57023 20.5731C8.66274 20.4155 8.71741 20.2191 8.73423 19.984Z" fill="var(--mw-icon-glyph-content-gray, #616162)"/>
</svg>
