<svg width="24" height="24" viewBox="0 0 24 24" fill="none" xmlns="http://www.w3.org/2000/svg">
<path d="M0.5 17V5.63849C0.5 5.54787 0.524629 5.45895 0.571254 5.38124L3.35435 0.742752C3.44471 0.592149 3.60746 0.5 3.7831 0.5H8.2169C8.39254 0.5 8.55529 0.59215 8.64565 0.742752L11.4287 5.38124C11.4754 5.45895 11.5 5.54787 11.5 5.63849V17C11.5 17.2762 11.2761 17.5 11 17.5H5.94444L0.999997 17.5C0.723856 17.5 0.5 17.2761 0.5 17Z" fill="var(--mw-icon-background-default-selection, #B4DEFF)" stroke="var(--mw-icon-border-default-blue, #1656A7)" stroke-linejoin="round"/>
<path d="M7.26958 12.1374H4.72139L4.18825 14H3L5.48494 6H6.51054L9 14H7.80723L7.26958 12.1374ZM5.04217 11.0165H6.9488L5.99548 7.6978L5.04217 11.0165Z" fill="var(--mw-icon-glyph-content-blue, #1656A8)"/>
<path d="M7 3C7 3.55228 6.55228 4 6 4C5.44772 4 5 3.55228 5 3C5 2.44772 5.44772 2 6 2C6.55228 2 7 2.44772 7 3Z" fill="var(--mw-icon-glyph-content-blue, #1656A8)"/>
<path d="M9.5 11.5C9.5 10.3954 10.3954 9.5 11.5 9.5H21.5C22.6046 9.5 23.5 10.3954 23.5 11.5V21.5C23.5 22.6046 22.6046 23.5 21.5 23.5H11.5C10.3954 23.5 9.5 22.6046 9.5 21.5V11.5Z" fill="var(--mw-icon-background-default-white, #FFFFFF)"/>
<path d="M16.5 17.5V20.5L22 16L16.5 11.5L16.5 14.5H15.5C13.2909 14.5 11.5 16.2909 11.5 18.5L11.5 23C11.5 20.7909 12.7909 17.5 15 17.5H16.5Z" fill="var(--mw-icon-background-default-action, #CBFFBE)" stroke="var(--mw-icon-border-default-green, #008013)" stroke-linecap="square"/>
<path d="M9.5 11.5C9.5 10.3954 10.3954 9.5 11.5 9.5H21.5C22.6046 9.5 23.5 10.3954 23.5 11.5V21.5C23.5 22.6046 22.6046 23.5 21.5 23.5H11.5C10.3954 23.5 9.5 22.6046 9.5 21.5V11.5Z" stroke="var(--mw-icon-border-default-gray, #616161)"/>
</svg>
