<svg width="24" height="24" viewBox="0 0 24 24" fill="none" xmlns="http://www.w3.org/2000/svg">
<rect x="1" y="1" width="17" height="17" rx="1.5" fill="var(--mw-icon-background-default-white, #FFFFFF)"/>
<path d="M2.5 12.5C5 15 7 15.5 10.5 15.5" stroke="#D95319" stroke-linecap="round" stroke-linejoin="round"/>
<path d="M2.5 6.5C5 4 7 3.5 10.5 3.5" stroke="#0072BD" stroke-linecap="round" stroke-linejoin="round"/>
<path d="M12 1H16.5C17.3284 1 18 1.67157 18 2.5V16.5C18 17.3284 17.3284 18 16.5 18H12V1Z" fill="var(--mw-icon-background-default-medium-gray, #D9D9D9)"/>
<path d="M12.5 0.5V18.5" stroke="var(--mw-icon-glyph-content-gray, #616162)"/>
<line x1="0.5" y1="9.5" x2="12.5" y2="9.5" stroke="var(--mw-icon-glyph-content-gray, #616162)"/>
<path d="M14.5 3.5H16.5M14.5 6.5H16.5" stroke="var(--mw-icon-glyph-content-gray, #616162)" stroke-linecap="round"/>
<path d="M0.5 2.5C0.5 1.39543 1.39543 0.5 2.5 0.5H16.5C17.6046 0.5 18.5 1.39543 18.5 2.5V16.5C18.5 17.6046 17.6046 18.5 16.5 18.5H2.5C1.39543 18.5 0.5 17.6046 0.5 16.5V2.5Z" stroke="var(--mw-icon-border-default-gray, #616161)"/>
<path d="M9.5 11.5C9.5 10.3954 10.3954 9.5 11.5 9.5H21.5C22.6046 9.5 23.5 10.3954 23.5 11.5V21.5C23.5 22.6046 22.6046 23.5 21.5 23.5H11.5C10.3954 23.5 9.5 22.6046 9.5 21.5V11.5Z" fill="white"/>
<path d="M16.5 17.5V20.5L22 16L16.5 11.5L16.5 14.5H15.5C13.2909 14.5 11.5 16.2909 11.5 18.5L11.5 23C11.5 20.7909 12.7909 17.5 15 17.5H16.5Z" fill="var(--mw-icon-background-default-action, #CBFFBE)" stroke="var(--mw-icon-border-default-green, #008013)" stroke-linecap="square"/>
<path d="M9.5 11.5C9.5 10.3954 10.3954 9.5 11.5 9.5H21.5C22.6046 9.5 23.5 10.3954 23.5 11.5V21.5C23.5 22.6046 22.6046 23.5 21.5 23.5H11.5C10.3954 23.5 9.5 22.6046 9.5 21.5V11.5Z" stroke="var(--mw-icon-border-default-gray, #616161)"/>
</svg>
