<svg width="24" height="24" viewBox="0 0 24 24" fill="none" xmlns="http://www.w3.org/2000/svg">
<path d="M0.5 22.5V3.5C0.5 2.94772 0.947715 2.5 1.5 2.5H18.5C19.0523 2.5 19.5 2.94772 19.5 3.5V22.5C19.5 23.0523 19.0523 23.5 18.5 23.5H1.5C0.947715 23.5 0.5 23.0523 0.5 22.5Z" fill="var(--mw-icon-background-default-white, #FFFFFF)" stroke="var(--mw-icon-border-default-gray, #616161)"/>
<path d="M5.5 5V2C5.5 1.72386 5.72386 1.5 6 1.5H14C14.2761 1.5 14.5 1.72386 14.5 2V5C14.5 5.27614 14.2761 5.5 14 5.5H6C5.72386 5.5 5.5 5.27614 5.5 5Z" fill="var(--mw-icon-background-default-medium-gray, #D9D9D9)" stroke="var(--mw-icon-border-default-gray, #616161)"/>
<path d="M22.5 0.5H15.5C14.9477 0.5 14.5 0.947715 14.5 1.5V8.5C14.5 9.05229 14.9477 9.5 15.5 9.5H22.5C23.0523 9.5 23.5 9.05229 23.5 8.5V1.5C23.5 0.947715 23.0523 0.5 22.5 0.5Z" fill="white" stroke="var(--mw-icon-border-default-gray, #616161)"/>
<path d="M13.5 10.5V14.5M13.5 10.5H9.5M13.5 10.5L8.5 15.5" stroke="var(--mw-icon-glyph-content-gray, #616162)" stroke-linecap="round" stroke-linejoin="round"/>
</svg>
