<svg width="24" height="24" viewBox="0 0 24 24" fill="none" xmlns="http://www.w3.org/2000/svg">
<path d="M0.5 18.5V4.5C0.5 2.29086 2.29086 0.5 4.5 0.5H18.5C20.7091 0.5 22.5 2.29086 22.5 4.5V18.5C22.5 20.7091 20.7091 22.5 18.5 22.5H4.5C2.29086 22.5 0.5 20.7091 0.5 18.5Z" fill="#00A3A3"/>
<path d="M0.5 11.7303C2.8913 6.36448 4.4173 6.59024 5.37382 9.96526C5.85208 13.566 7.28686 18.2021 8.15217 13.0517C9.5336 -1.8683 12.0231 2.3721 11.9783 9.45087C12.0914 17.2837 13.9783 23.5682 14.8619 17.6877C15.7752 10.9461 15.5482 4.15387 17.9746 10.3831C18.9325 12.8474 21.1631 13.6782 22.5 10.191" stroke="var(--mw-icon-background-default-white, #FFFFFF)"/>
<path d="M22 5.375C22 1 22 1 17.4167 1H13V22H17.4167C22 22 22 22 22 17.625V5.375Z" fill="var(--mw-icon-background-default-light-gray, #F5F5F5)"/>
<path d="M15 5.5H17" stroke="var(--mw-icon-glyph-content-dark-gray, #333333)"/>
<path d="M18 5.5H20" stroke="var(--mw-icon-glyph-content-dark-gray, #333333)"/>
<path d="M15 8.5H17" stroke="var(--mw-icon-glyph-content-dark-gray, #333333)"/>
<path d="M18 8.5H20" stroke="var(--mw-icon-glyph-content-dark-gray, #333333)"/>
<path d="M15 11.5H17" stroke="var(--mw-icon-glyph-content-dark-gray, #333333)"/>
<path d="M18 11.5H20" stroke="var(--mw-icon-glyph-content-dark-gray, #333333)"/>
<path d="M15 14.5H17" stroke="var(--mw-icon-glyph-content-dark-gray, #333333)"/>
<path d="M18 14.5H20" stroke="var(--mw-icon-glyph-content-dark-gray, #333333)"/>
<path d="M15 17.5H17" stroke="var(--mw-icon-glyph-content-dark-gray, #333333)"/>
<path d="M18 17.5H20" stroke="var(--mw-icon-glyph-content-dark-gray, #333333)"/>
<path d="M13.5 0.5V22.5" stroke="#02555C"/>
<path d="M0.5 18.5V4.5C0.5 2.29086 2.29086 0.5 4.5 0.5H18.5C20.7091 0.5 22.5 2.29086 22.5 4.5V18.5C22.5 20.7091 20.7091 22.5 18.5 22.5H4.5C2.29086 22.5 0.5 20.7091 0.5 18.5Z" stroke="#02555C" stroke-linecap="round"/>
</svg>
