<svg width="24" height="24" viewBox="0 0 24 24" fill="none" xmlns="http://www.w3.org/2000/svg">
<path d="M0.5 2.5C0.5 1.39543 1.39543 0.5 2.5 0.5H20.5C21.6046 0.5 22.5 1.39543 22.5 2.5V20.5C22.5 21.6046 21.6046 22.5 20.5 22.5H2.5C1.39543 22.5 0.5 21.6046 0.5 20.5V2.5Z" fill="var(--mw-icon-background-default-medium-gray, #D9D9D9)"/>
<path d="M1 2C1 1.44772 1.44772 1 2 1H5V22H2C1.44772 22 1 21.5523 1 21V2Z" fill="var(--mw-icon-background-default-white, #FFFFFF)"/>
<path d="M22 2C22 1.44772 21.5523 1 21 1H18V22H21C21.5523 22 22 21.5523 22 21V2Z" fill="white"/>
<path d="M1.5 12.5H6.5L7.5 8.5L10.5 16.5L13.5 3.5L16.5 12.5H21.5" stroke="#1171BE" stroke-linecap="square" stroke-linejoin="round"/>
<path d="M5.5 1V22" stroke="var(--mw-icon-glyph-content-gray, #616162)"/>
<path d="M17.5 1V22" stroke="var(--mw-icon-glyph-content-gray, #616162)"/>
<path d="M0.5 2.5C0.5 1.39543 1.39543 0.5 2.5 0.5H20.5C21.6046 0.5 22.5 1.39543 22.5 2.5V20.5C22.5 21.6046 21.6046 22.5 20.5 22.5H2.5C1.39543 22.5 0.5 21.6046 0.5 20.5V2.5Z" stroke="var(--mw-icon-border-default-gray, #616161)" stroke-linejoin="round"/>
</svg>
