<svg width="24" height="24" viewBox="0 0 24 24" fill="none" xmlns="http://www.w3.org/2000/svg">
<path d="M0.5 2.5C0.5 1.39543 1.39543 0.5 2.5 0.5H20.5C21.6046 0.5 22.5 1.39543 22.5 2.5V20.5C22.5 21.6046 21.6046 22.5 20.5 22.5H2.5C1.39543 22.5 0.5 21.6046 0.5 20.5V2.5Z" fill="var(--mw-icon-background-default-white, #FFFFFF)" stroke="var(--mw-icon-border-default-gray, #616161)"/>
<path d="M7 12H15L9.5 17.5C8.39543 18.6046 6.60457 18.6046 5.5 17.5C4.39543 16.3954 4.39543 14.6046 5.5 13.5L7 12Z" fill="var(--mw-icon-background-default-medium-gray, #D9D9D9)"/>
<path d="M4.50003 16.5L3.50003 17.5C2.94774 18.0523 2.94774 18.9477 3.50003 19.5C4.05231 20.0523 4.94774 20.0523 5.50003 19.5L6.50003 18.5L4.50003 16.5Z" fill="var(--mw-icon-background-default-medium-gray, #D9D9D9)"/>
<path d="M5.50003 13.5L12.5 6.5L16.5 10.5L9.50003 17.5C8.39546 18.6046 6.6046 18.6046 5.50003 17.5C4.39546 16.3954 4.39546 14.6046 5.50003 13.5Z" stroke="var(--mw-icon-glyph-content-gray, #616162)"/>
<path d="M4.50003 16.5L3.50003 17.5C2.94774 18.0523 2.94774 18.9477 3.50003 19.5C4.05231 20.0523 4.94774 20.0523 5.50003 19.5L6.50003 18.5L4.50003 16.5Z" stroke="var(--mw-icon-glyph-content-gray, #616162)"/>
<path d="M16 2.99999L13.5 5.49999L11.5 3.49999L10.5 4.49999L18.5 12.5L19.5 11.5L17.5 9.5L20 6.99999C20 6.99999 21.5 5.49999 19.5 3.49999C17.5 1.49999 16 2.99999 16 2.99999Z" fill="var(--mw-icon-glyph-content-gray, #616162)" stroke="var(--mw-icon-border-default-gray, #616161)" stroke-linejoin="round"/>
</svg>
