<svg width="25" height="25" viewBox="0 0 25 25" fill="none" xmlns="http://www.w3.org/2000/svg">
<path fill-rule="evenodd" clip-rule="evenodd" d="M10.5 19.5C15.4706 19.5 19.5 15.4706 19.5 10.5C19.5 5.52944 15.4706 1.5 10.5 1.5C5.52944 1.5 1.5 5.52944 1.5 10.5C1.5 15.4706 5.52944 19.5 10.5 19.5ZM10.5 15.5C13.2614 15.5 15.5 13.2614 15.5 10.5C15.5 7.73858 13.2614 5.5 10.5 5.5C7.73858 5.5 5.5 7.73858 5.5 10.5C5.5 13.2614 7.73858 15.5 10.5 15.5Z" fill="var(--mw-icon-background-red, #FF9D9A)"/>
<path d="M19 10.5C19 15.1944 15.1944 19 10.5 19V20C15.7467 20 20 15.7467 20 10.5H19ZM10.5 2C15.1944 2 19 5.80558 19 10.5H20C20 5.25329 15.7467 1 10.5 1V2ZM2 10.5C2 5.80558 5.80558 2 10.5 2V1C5.25329 1 1 5.25329 1 10.5H2ZM10.5 19C5.80558 19 2 15.1944 2 10.5H1C1 15.7467 5.25329 20 10.5 20V19ZM15 10.5C15 12.9853 12.9853 15 10.5 15V16C13.5376 16 16 13.5376 16 10.5H15ZM10.5 6C12.9853 6 15 8.01472 15 10.5H16C16 7.46243 13.5376 5 10.5 5V6ZM6 10.5C6 8.01472 8.01472 6 10.5 6V5C7.46243 5 5 7.46243 5 10.5H6ZM10.5 15C8.01472 15 6 12.9853 6 10.5H5C5 13.5376 7.46243 16 10.5 16V15Z" fill="var(--mw-icon-border-default-red, #902622)"/>
<path d="M21.5 15.5L24 9.5H18.5L16.5 17.5H18.5L16.5 24.5L24.5 15.5H21.5Z" fill="var(--mw-icon-background-medium-yellow, #FFEF91)" stroke="#674C06" stroke-linejoin="round"/>
</svg>
