<svg width="24" height="24" viewBox="0 0 24 24" fill="none" xmlns="http://www.w3.org/2000/svg">
<path d="M1.5 17V5.63849C1.5 5.54787 1.52463 5.45895 1.57125 5.38124L4.35435 0.742752C4.44471 0.592149 4.60746 0.5 4.7831 0.5H9.2169C9.39254 0.5 9.55529 0.59215 9.64565 0.742752L12.4287 5.38124C12.4754 5.45895 12.5 5.54787 12.5 5.63849V17C12.5 17.2762 12.2761 17.5 12 17.5H6.94444L2 17.5C1.72386 17.5 1.5 17.2761 1.5 17Z" fill="var(--mw-icon-background-default-selection, #B4DEFF)" stroke="var(--mw-icon-border-default-blue, #1656A7)" stroke-linejoin="round"/>
<path d="M8.26958 12.1374H5.72139L5.18825 14H4L6.48494 6H7.51054L10 14H8.80723L8.26958 12.1374ZM6.04217 11.0165H7.9488L6.99548 7.6978L6.04217 11.0165Z" fill="var(--mw-icon-glyph-content-blue, #1656A8)"/>
<path d="M8 3C8 3.55228 7.55228 4 7 4C6.44772 4 6 3.55228 6 3C6 2.44772 6.44772 2 7 2C7.55228 2 8 2.44772 8 3Z" fill="var(--mw-icon-glyph-content-blue, #1656A8)"/>
<path d="M14.5 13.5L17 7.5H11.5L9.5 15.5H11.5L9.5 22.5L17.5 13.5H14.5Z" fill="var(--mw-icon-background-medium-yellow, #FFEF91)" stroke="#674C06" stroke-linejoin="round"/>
</svg>
