<svg width="24" height="24" viewBox="0 0 24 24" fill="none" xmlns="http://www.w3.org/2000/svg">
<path d="M0.5 9C0.5 8.72386 0.723858 8.5 1 8.5H5C5.27614 8.5 5.5 8.72386 5.5 9V23C5.5 23.2761 5.27614 23.5 5 23.5H1C0.723858 23.5 0.5 23.2761 0.5 23V9Z" fill="var(--mw-icon-background-default-medium-gray, #D9D9D9)" stroke="var(--mw-icon-border-default-gray, #616161)"/>
<path d="M5.5 21.5V10.5C5.5 10.5 9 10.5 10 9.5C11.1902 8.41755 11.4933 7.88608 12.247 6.86544C13.0007 5.84481 13.1566 5.07814 13.2823 3.92993C13.4079 2.78172 12.7338 0.494384 14.5 0.500012C16.3573 0.494384 18 2.50001 17.4234 5.88689C17.0465 7.16268 16.6256 7.86211 16.5 8.5C16.3744 9.13789 16.8719 9.5 17.5 9.5H21.5C21.5 9.5 23.5 9.5 23.5 11C23.5 12.5 23.5 13.5 23 15C21.9951 18.4446 22.5992 16.7025 22 18.5C21.5 20 20 23.5 17 23.5C10.5 23.5 5.5 21.5 5.5 21.5Z" fill="var(--mw-icon-background-default-white, #FFFFFF)" stroke="var(--mw-icon-border-default-gray, #616161)" stroke-miterlimit="10"/>
</svg>
