<svg width="24" height="24" viewBox="0 0 24 24" fill="none" xmlns="http://www.w3.org/2000/svg">
<path d="M20.5 0.5H2.5C1.39543 0.5 0.5 1.39543 0.5 2.5V20.5C0.5 21.6046 1.39543 22.5 2.5 22.5H20.5C21.6046 22.5 22.5 21.6046 22.5 20.5V2.5C22.5 1.39543 21.6046 0.5 20.5 0.5Z" fill="var(--mw-icon-background-default-white, #FFFFFF)" stroke="var(--mw-icon-border-default-gray, #616161)" stroke-linecap="round"/>
<path d="M16.5 6.5L17.5 5.5M18.5 4.5L17.5 5.5M17.5 5.5L16.5 4.5M17.5 5.5L18.5 6.5" stroke="var(--mw-icon-glyph-content-green, #008014)" stroke-linecap="round" stroke-linejoin="round"/>
<path d="M13.5 9.5L9.5 13.5M9.5 13.5V10.5M9.5 13.5H12.5" stroke="var(--mw-icon-glyph-content-gray, #616162)" stroke-linecap="round" stroke-linejoin="round"/>
<path d="M4.5 18.5L5.5 17.5M6.5 16.5L5.5 17.5M5.5 17.5L4.5 16.5M5.5 17.5L6.5 18.5" stroke="var(--mw-icon-glyph-content-light-blue, #278CDD)" stroke-linecap="round" stroke-linejoin="round"/>
<path d="M15 3C15 3.55228 14.5523 4 14 4C13.4477 4 13 3.55228 13 3C13 2.44772 13.4477 2 14 2C14.5523 2 15 2.44772 15 3Z" fill="var(--mw-icon-glyph-disabled-gray, #888889)"/>
<path d="M9 3C9 3.55228 8.55228 4 8 4C7.44772 4 7 3.55228 7 3C7 2.44772 7.44772 2 8 2C8.55228 2 9 2.44772 9 3Z" fill="var(--mw-icon-glyph-disabled-gray, #888889)"/>
<path d="M21 9C21 9.55228 20.5523 10 20 10C19.4477 10 19 9.55228 19 9C19 8.44772 19.4477 8 20 8C20.5523 8 21 8.44772 21 9Z" fill="var(--mw-icon-glyph-disabled-gray, #888889)"/>
<path d="M10 20C10 20.5523 9.55228 21 9 21C8.44772 21 8 20.5523 8 20C8 19.4477 8.44772 19 9 19C9.55228 19 10 19.4477 10 20Z" fill="var(--mw-icon-glyph-disabled-gray, #888889)"/>
<path d="M13 6C13 6.55228 12.5523 7 12 7C11.4477 7 11 6.55228 11 6C11 5.44772 11.4477 5 12 5C12.5523 5 13 5.44772 13 6Z" fill="var(--mw-icon-glyph-disabled-gray, #888889)"/>
<path d="M14 20C14 20.5523 13.5523 21 13 21C12.4477 21 12 20.5523 12 20C12 19.4477 12.4477 19 13 19C13.5523 19 14 19.4477 14 20Z" fill="var(--mw-icon-glyph-disabled-gray, #888889)"/>
<path d="M16 17C16 17.5523 15.5523 18 15 18C14.4477 18 14 17.5523 14 17C14 16.4477 14.4477 16 15 16C15.5523 16 16 16.4477 16 17Z" fill="var(--mw-icon-glyph-disabled-gray, #888889)"/>
<path d="M4 13C4 13.5523 3.55228 14 3 14C2.44772 14 2 13.5523 2 13C2 12.4477 2.44772 12 3 12C3.55228 12 4 12.4477 4 13Z" fill="var(--mw-icon-glyph-disabled-gray, #888889)"/>
<path d="M7 10C7 10.5523 6.55228 11 6 11C5.44772 11 5 10.5523 5 10C5 9.44772 5.44772 9 6 9C6.55228 9 7 9.44772 7 10Z" fill="var(--mw-icon-glyph-disabled-gray, #888889)"/>
</svg>
