<svg width="24" height="24" viewBox="0 0 24 24" fill="none" xmlns="http://www.w3.org/2000/svg">
<path d="M2.5 10.5H20.5V22.5C20.5 23.0523 20.0523 23.5 19.5 23.5H3.5C2.94772 23.5 2.5 23.0523 2.5 22.5V10.5Z" fill="var(--mw-sidebar-icon-fill, #ffffff)" stroke="var(--mw-sidebar-icon-stroke, #616161)"/>
<path d="M18.5 16.4999C16.5 13.9999 13.9351 13.5211 11.5 16.9998C9.16667 20.3332 7 20.4999 4.5 16.4999" stroke="var(--mw-sidebar-icon-stroke, #616161)" stroke-linecap="round"/>
<path d="M4.5 21.5H18.5V12.5H4.5V21.5Z" stroke="var(--mw-sidebar-icon-stroke, #616161)" stroke-linejoin="round"/>
<path d="M20.5 9.5V10.5H2.5V9.5C2.5 8.94772 2.94772 8.5 3.5 8.5H19.5C20.0523 8.5 20.5 8.94772 20.5 9.5Z" fill="var(--mw-sidebar-icon-fill, #ffffff)" stroke="var(--mw-sidebar-icon-stroke, #616161)" stroke-linecap="round"/>
<path d="M6 0H5V1H6V0Z" fill="var(--mw-sidebar-icon-stroke, #616161)"/>
<path d="M6 2H5V5H3L5.5 8L8 5H6V2Z" fill="var(--mw-sidebar-icon-stroke, #616161)"/>
<path d="M18 2H17V5H15L17.5 8L20 5H18V2Z" fill="var(--mw-sidebar-icon-stroke, #616161)"/>
<path d="M11 2H12V5H14L11.5 8L9 5H11V2Z" fill="var(--mw-sidebar-icon-stroke, #616161)"/>
<path d="M17 0H18V1H17V0Z" fill="var(--mw-sidebar-icon-stroke, #616161)"/>
<path d="M12 0H11V1H12V0Z" fill="var(--mw-sidebar-icon-stroke, #616161)"/>
</svg>
