<svg width="24" height="24" viewBox="0 0 24 24" fill="none" xmlns="http://www.w3.org/2000/svg">
<path d="M0.5 4.5H16.5V23.5H2.5C1.39543 23.5 0.5 22.6046 0.5 21.5V4.5Z" fill="var(--mw-icon-background-default-white, #FFFFFF)" stroke="var(--mw-icon-border-default-gray, #616161)"/>
<path d="M23.5 4.5H16.5V23.5H21.5C22.6046 23.5 23.5 22.6046 23.5 21.5V4.5Z" fill="var(--mw-icon-background-default-light-gray, #F5F5F5)" stroke="var(--mw-icon-border-default-gray, #616161)"/>
<path d="M0.5 2.5C0.5 1.39543 1.39543 0.5 2.5 0.5H21.5C22.6046 0.5 23.5 1.39543 23.5 2.5V4.5H0.5V2.5Z" fill="var(--mw-icon-background-default-selection, #B4DEFF)" stroke="var(--mw-icon-border-default-blue, #1656A7)"/>
<path d="M18.5 7.5H21.5M18.5 10.5H21.5M18.5 13.5H21.5M18.5 16.5H21.5M18.5 19.5H19.5" stroke="var(--mw-icon-glyph-content-gray, #616162)" stroke-linecap="round"/>
<path d="M2.5 13.9567C4.5 6.62333 6.5 6.62333 8.5 13.9567C10.5 21.29 12.5 21.29 14.5 13.9567" stroke="#0072BD" stroke-linecap="round"/>
</svg>
