<svg width="24" height="24" viewBox="0 0 24 24" fill="none" xmlns="http://www.w3.org/2000/svg">
<path d="M18.5 0.5H4.5C2.29086 0.5 0.5 2.29086 0.5 4.5V18.5C0.5 20.7091 2.29086 22.5 4.5 22.5H18.5C20.7091 22.5 22.5 20.7091 22.5 18.5V4.5C22.5 2.29086 20.7091 0.5 18.5 0.5Z" fill="var(--mw-icon-background-lightest-blue, #E2F0FF)" stroke="var(--mw-icon-border-default-blue, #1656A7)" stroke-linecap="round"/>
<path d="M6.24542 8V15H5V8H6.24542ZM9.19275 11.0625V12.0192H5.92786V11.0625H9.19275ZM9.60458 8V8.96154H5.92786V8H9.60458Z" fill="var(--mw-icon-glyph-content-dark-blue, #104280)"/>
<path d="M11.9267 8V15H10.6813V8H11.9267Z" fill="var(--mw-icon-glyph-content-dark-blue, #104280)"/>
<path d="M18 14.0433V15H14.3729V14.0433H18ZM14.7202 8V15H13.4748V8H14.7202Z" fill="var(--mw-icon-glyph-content-dark-blue, #104280)"/>
</svg>
