<svg width="24" height="24" viewBox="0 0 24 24" fill="none" xmlns="http://www.w3.org/2000/svg">
<path d="M12.7929 4.79292C12.6054 4.60539 12.351 4.50004 12.0858 4.50003L3.5 4.5C2.94772 4.5 2.5 4.94772 2.5 5.5L2.5 21.5C2.5 22.0523 2.94772 22.5 3.5 22.5H15.5C16.0523 22.5 16.5 22.0523 16.5 21.5V8.91422C16.5 8.649 16.3946 8.39464 16.2071 8.20711L12.7929 4.79292Z" fill="var(--mw-sidebar-icon-fill, #ffffff)" stroke="var(--mw-sidebar-icon-stroke, #616161)" stroke-linecap="round"/>
<path d="M15.2929 2.79292C15.1054 2.60539 14.851 2.50004 14.5858 2.50003L6 2.5C5.44772 2.5 5 2.94772 5 3.5L5 19.5C5 20.0523 5.44772 20.5 6 20.5H18C18.5523 20.5 19 20.0523 19 19.5V6.91422C19 6.649 18.8946 6.39464 18.7071 6.20711L15.2929 2.79292Z" fill="var(--mw-sidebar-icon-fill, #ffffff)" stroke="var(--mw-sidebar-icon-stroke, #616161)" stroke-linecap="round"/>
<path d="M17.7929 0.792924C17.6054 0.605391 17.351 0.500035 17.0858 0.500034L8.5 0.500004C7.94772 0.500002 7.5 0.947718 7.5 1.5L7.5 17.5C7.5 18.0523 7.94772 18.5 8.5 18.5H20.5C21.0523 18.5 21.5 18.0523 21.5 17.5V4.91422C21.5 4.649 21.3946 4.39464 21.2071 4.20711L17.7929 0.792924Z" fill="var(--mw-sidebar-icon-fill, #ffffff)" stroke="var(--mw-sidebar-icon-stroke, #616161)" stroke-linecap="round"/>
<path d="M10.5 3.5H14.5M12.5 6.5H16.5M14.5 9.5H18.5M12.5 12.5H16.5M10.5 15.5H14.5" stroke="var(--mw-sidebar-icon-stroke, #616161)" stroke-linecap="round"/>
</svg>
