<svg width="24" height="24" viewBox="0 0 24 24" fill="none" xmlns="http://www.w3.org/2000/svg">
<rect y="17" width="24" height="7" rx="1" fill="var(--mw-icon-object-primary, #616160)"/>
<path d="M21 14C21 15.1046 20.1046 16 19 16C17.8954 16 17 15.1046 17 14C17 12.8954 18 11.5 19 10C20 11.5 21 12.8954 21 14Z" fill="var(--mw-icon-glyph-content-light-blue, #278CDD)"/>
<path d="M16 6L18.5 8.5L15.5 9.5L10.5 14.5L3.5 7.5L5 6H16Z" fill="var(--mw-icon-glyph-content-light-blue, #278CDD)"/>
<path d="M3.5 7.5L10.5 0.5L18.5 8.5L15.5 9.5L10.5 14.5L3.5 7.5Z" stroke="var(--mw-icon-object-primary, #616160)" stroke-linejoin="round"/>
<path d="M13.5 4.5L17.5 0.5" stroke="var(--mw-icon-glyph-disabled-gray, #888889)" stroke-linecap="round"/>
</svg>
