<svg width="24" height="24" viewBox="0 0 24 24" fill="none" xmlns="http://www.w3.org/2000/svg">
<path d="M23.5 20.5C23.5 22.1569 22.1569 23.5 20.5 23.5C18.8431 23.5 17.5 22.1569 17.5 20.5C17.5 18.8431 19 16.75 20.5 14.5C22 16.75 23.5 18.8431 23.5 20.5Z" stroke="var(--mw-icon-glyph-content-mono, #616061)"/>
<path d="M2.5 8.5L10.5 0.5L15.5 5.5M2.5 8.5L0.5 10.5L9.5 20.5L17.5 12.5L21.5 11.5L18.5 8.5M2.5 8.5H18.5M18.5 8.5L15.5 5.5M15.5 5.5L14.5 6.5M15.5 5.5L20.5 0.5" stroke="var(--mw-icon-glyph-content-mono, #616061)" stroke-linecap="round" stroke-linejoin="round"/>
</svg>
