<svg width="24" height="24" viewBox="0 0 24 24" fill="none" xmlns="http://www.w3.org/2000/svg">
<path d="M0.5 18.5V4.5C0.5 2.29086 2.29086 0.5 4.5 0.5H18.5C20.7091 0.5 22.5 2.29086 22.5 4.5V18.5C22.5 20.7091 20.7091 22.5 18.5 22.5H4.5C2.29086 22.5 0.5 20.7091 0.5 18.5Z" fill="#00A3A3"/>
<path d="M0.5 4C2.2821 4 4.57545 4.54476 6.96273 7.65385C9.35 10.7629 10.5 15.4972 10.5 22.4062C10.5 19.7578 11.111 14.5 12.5 14.5C13.889 14.5 14.5 19.7578 14.5 22.4062C14.4758 21.103 15.2847 17.5 16.5 17.5C17.7153 17.5 18.5 21.133 18.5 22.5C18.5 21.5 18.9583 19.5 20 19.5C21.0417 19.5 21.5 20.5 21.5 21" stroke="var(--mw-icon-background-default-white, #FFFFFF)"/>
<path d="M0.5 18.5V4.5C0.5 2.29086 2.29086 0.5 4.5 0.5H18.5C20.7091 0.5 22.5 2.29086 22.5 4.5V18.5C22.5 20.7091 20.7091 22.5 18.5 22.5H4.5C2.29086 22.5 0.5 20.7091 0.5 18.5Z" stroke="#02555C" stroke-linecap="round"/>
</svg>
