<svg width="24" height="24" viewBox="0 0 24 24" fill="none" xmlns="http://www.w3.org/2000/svg">
<path d="M19.8991 3.82697C20.1463 3.48624 19.9111 3 19.4992 3H9.50082C9.08887 3 8.85372 3.48624 9.10089 3.82697L13 9L15.9998 9L19.8991 3.82697Z" fill="var(--mw-icon-object-primary, #616160)"/>
<path d="M13.2744 14.5941C13.1347 14.4997 13.0017 14.3338 13 14.1613V9L15.9998 9V15.4823C15.9998 15.8931 15.5586 16.1397 15.2261 15.9148L13.2744 14.5941Z" fill="var(--mw-icon-object-primary, #616160)"/>
<path d="M7 8L11 13H3L7 8Z" fill="var(--mw-icon-object-primary, #616160)"/>
<path d="M5 18H9V13H5V18Z" fill="var(--mw-icon-object-primary, #616160)"/>
<path d="M5 22H9V20H5V22Z" fill="var(--mw-icon-object-primary, #616160)"/>
</svg>
