<svg width="24" height="24" viewBox="0 0 24 24" fill="none" xmlns="http://www.w3.org/2000/svg">
<path d="M19.9 3.80364C20.1472 3.47252 19.912 3 19.5 3H9.50005C9.08803 3 8.85284 3.47252 9.10005 3.80364L13.0001 9H16.0001L19.9 3.80364Z" fill="var(--mw-icon-object-primary, #616160)"/>
<path d="M13.2304 14.2689C13.1165 14.1746 13.0015 14.0233 13.0001 13.875V9H16.0001V15.4968C16.0001 15.9213 15.5083 16.1544 15.1821 15.8844L13.2304 14.2689Z" fill="var(--mw-icon-object-primary, #616160)"/>
<path d="M7 22L11 17H3L7 22Z" fill="var(--mw-icon-object-primary, #616160)"/>
<path d="M5 12H9V17H5V12Z" fill="var(--mw-icon-object-primary, #616160)"/>
<path d="M5 8H9V10H5V8Z" fill="var(--mw-icon-object-primary, #616160)"/>
</svg>
