<svg width="24" height="24" viewBox="0 0 24 24" fill="none" xmlns="http://www.w3.org/2000/svg">
<path d="M16.5 0.5H2.5C1.39543 0.5 0.5 1.39543 0.5 2.5V16.5C0.5 17.6046 1.39543 18.5 2.5 18.5H16.5C17.6046 18.5 18.5 17.6046 18.5 16.5V2.5C18.5 1.39543 17.6046 0.5 16.5 0.5Z" fill="var(--mw-icon-background-default-white, #FFFFFF)" stroke="var(--mw-icon-border-default-gray, #616161)" stroke-linecap="round"/>
<path d="M7.5 14.5H15.5" stroke="var(--mw-icon-glyph-disabled-gray, #888889)" stroke-linecap="round"/>
<path d="M7.5 4.5H15.5M7.5 9.50006H15.5" stroke="var(--mw-icon-glyph-content-dark-gray, #333333)" stroke-linecap="round"/>
<circle cx="4" cy="5" r="1" fill="var(--mw-icon-glyph-content-dark-gray, #333333)"/>
<circle cx="4" cy="10" r="1" fill="var(--mw-icon-glyph-content-dark-gray, #333333)"/>
<circle cx="4" cy="15" r="1" fill="var(--mw-icon-border-disabled-gray, #888888)"/>
<path d="M9.5 21.5V11.5C9.5 10.3954 10.3954 9.5 11.5 9.5H21.5C22.6046 9.5 23.5 10.3954 23.5 11.5V21.5C23.5 22.6046 22.6046 23.5 21.5 23.5H11.5C10.3954 23.5 9.5 22.6046 9.5 21.5Z" fill="white" stroke="var(--mw-icon-border-default-gray, #616161)" stroke-linejoin="round"/>
<path d="M21.5 11.5H11.5L15.5 16.5H17.5L21.5 11.5Z" fill="white" stroke="var(--mw-icon-border-default-gray, #616161)" stroke-linejoin="round"/>
<path d="M15.5 19.5V16.5H17.5V21.5L15.5 19.5Z" fill="var(--mw-icon-background-default-medium-gray, #D9D9D9)" stroke="var(--mw-icon-border-default-gray, #616161)" stroke-linejoin="round"/>
</svg>
