<svg width="24" height="24" viewBox="0 0 24 24" fill="none" xmlns="http://www.w3.org/2000/svg">
<path d="M16.5 0.5H2.5C1.39543 0.5 0.5 1.39543 0.5 2.5V16.5C0.5 17.6046 1.39543 18.5 2.5 18.5H16.5C17.6046 18.5 18.5 17.6046 18.5 16.5V2.5C18.5 1.39543 17.6046 0.5 16.5 0.5Z" fill="var(--mw-icon-background-default-white, #FFFFFF)" stroke="var(--mw-icon-border-default-gray, #616161)" stroke-linecap="round"/>
<path d="M7.5 14.5H15.5" stroke="var(--mw-icon-glyph-disabled-gray, #888889)" stroke-linecap="round"/>
<path d="M7.5 4.5H15.5M7.5 9.50006H15.5" stroke="var(--mw-icon-glyph-content-dark-gray, #333333)" stroke-linecap="round"/>
<path d="M5 5C5 5.55228 4.55228 6 4 6C3.44772 6 3 5.55228 3 5C3 4.44772 3.44772 4 4 4C4.55228 4 5 4.44772 5 5Z" fill="var(--mw-icon-glyph-content-dark-gray, #333333)"/>
<path d="M5 10C5 10.5523 4.55228 11 4 11C3.44772 11 3 10.5523 3 10C3 9.44772 3.44772 9 4 9C4.55228 9 5 9.44772 5 10Z" fill="var(--mw-icon-glyph-content-dark-gray, #333333)"/>
<path d="M5 15C5 15.5523 4.55228 16 4 16C3.44772 16 3 15.5523 3 15C3 14.4477 3.44772 14 4 14C4.55228 14 5 14.4477 5 15Z" fill="var(--mw-icon-glyph-disabled-gray, #888889)"/>
<path d="M11.4584 23.1643L16.1023 18.5203L14.4443 16.8623L9.8004 21.5064C9.3525 21.9543 9.35251 22.6805 9.80041 23.1284L9.83638 23.1643C10.2843 23.6122 11.0105 23.6122 11.4584 23.1643Z" fill="var(--mw-icon-background-default-medium-gray, #D9D9D9)" stroke="var(--mw-icon-glyph-content-gray, #616162)"/>
<path d="M14.9644 10.9645C13.0118 12.9171 13.0119 16.0829 14.9645 18.0355C16.9171 19.9882 20.083 19.9882 22.0356 18.0355C23.9882 16.0829 23.9881 12.9171 22.0355 10.9645C20.0829 9.01184 16.917 9.01184 14.9644 10.9645Z" fill="white" stroke="var(--mw-icon-glyph-content-gray, #616162)"/>
</svg>
