<svg width="25" height="24" viewBox="0 0 25 24" fill="none" xmlns="http://www.w3.org/2000/svg">
<path d="M1.5 0.5H17.5C18.0523 0.5 18.5 0.947716 18.5 1.5V17.5C18.5 18.0523 18.0523 18.5 17.5 18.5H1.5C0.947716 18.5 0.5 18.0523 0.5 17.5V1.5C0.5 0.947715 0.947716 0.5 1.5 0.5Z" fill="var(--mw-icon-background-default-white, #FFFFFF)" stroke="var(--mw-icon-border-default-gray, #616161)" stroke-linecap="round"/>
<path d="M9.5 9L3.5 3.5L4.5 9M9.5 9L15.5 3.5L14.5 9M9.5 9L6.5 15.5L4.5 9M9.5 9L12.5 15.5L14.5 9M14.5 9L9.5 3.5L4.5 9" stroke="var(--mw-icon-background-default-dark-gray, #A6A6A6)" stroke-linecap="round" stroke-linejoin="round"/>
<path d="M8 15.5C8 16.3284 7.32843 17 6.5 17C5.67157 17 5 16.3284 5 15.5C5 14.6716 5.67157 14 6.5 14C7.32843 14 8 14.6716 8 15.5Z" fill="#DD5400"/>
<path d="M14 15.5C14 16.3284 13.3284 17 12.5 17C11.6716 17 11 16.3284 11 15.5C11 14.6716 11.6716 14 12.5 14C13.3284 14 14 14.6716 14 15.5Z" fill="#DD5400"/>
<path d="M6.5 9C6.5 10.1046 5.60457 11 4.5 11C3.39543 11 2.5 10.1046 2.5 9C2.5 7.89543 3.39543 7 4.5 7C5.60457 7 6.5 7.89543 6.5 9Z" fill="#EDB120"/>
<path d="M11.5 9C11.5 10.1046 10.6046 11 9.5 11C8.39543 11 7.5 10.1046 7.5 9C7.5 7.89543 8.39543 7 9.5 7C10.6046 7 11.5 7.89543 11.5 9Z" fill="#EDB120"/>
<path d="M16.5 9C16.5 10.1046 15.6046 11 14.5 11C13.3954 11 12.5 10.1046 12.5 9C12.5 7.89543 13.3954 7 14.5 7C15.6046 7 16.5 7.89543 16.5 9Z" fill="#EDB120"/>
<path d="M5 3.5C5 4.32843 4.32843 5 3.5 5C2.67157 5 2 4.32843 2 3.5C2 2.67157 2.67157 2 3.5 2C4.32843 2 5 2.67157 5 3.5Z" fill="#1171BE"/>
<path d="M11 3.5C11 4.32843 10.3284 5 9.5 5C8.67157 5 8 4.32843 8 3.5C8 2.67157 8.67157 2 9.5 2C10.3284 2 11 2.67157 11 3.5Z" fill="#1171BE"/>
<path d="M17 3.5C17 4.32843 16.3284 5 15.5 5C14.6716 5 14 4.32843 14 3.5C14 2.67157 14.6716 2 15.5 2C16.3284 2 17 2.67157 17 3.5Z" fill="#1171BE"/>
<path d="M21.5416 23.1643L16.8977 18.5203L18.5557 16.8623L23.1996 21.5064C23.6475 21.9543 23.6475 22.6805 23.1996 23.1284L23.1636 23.1643C22.7157 23.6122 21.9895 23.6122 21.5416 23.1643Z" fill="var(--mw-icon-background-default-medium-gray, #D9D9D9)" stroke="var(--mw-icon-border-default-gray, #616161)"/>
<path d="M18.0356 10.9645C19.9882 12.9171 19.9881 16.0829 18.0355 18.0355C16.0829 19.9882 12.917 19.9882 10.9644 18.0355C9.01183 16.0829 9.01186 12.9171 10.9645 10.9645C12.9171 9.01184 16.083 9.01184 18.0356 10.9645Z" fill="white" stroke="var(--mw-icon-border-default-gray, #616161)"/>
</svg>
