<svg width="25" height="24" viewBox="0 0 25 24" fill="none" xmlns="http://www.w3.org/2000/svg">
<path d="M1.5 0.5H17.5C18.0523 0.5 18.5 0.947716 18.5 1.5V17.5C18.5 18.0523 18.0523 18.5 17.5 18.5H1.5C0.947716 18.5 0.5 18.0523 0.5 17.5V1.5C0.5 0.947715 0.947716 0.5 1.5 0.5Z" fill="var(--mw-icon-background-default-white, #FFFFFF)"/>
<path d="M5.5 13L4 8.5L12.5 13M5.5 13L6 17.5L12.5 13M5.5 13L12 17.5L12.5 13M5.5 13L14 8.5L12.5 13" stroke="var(--mw-icon-background-default-dark-gray, #A6A6A6)" stroke-linecap="round" stroke-linejoin="round"/>
<path d="M7.5 17.5C7.5 18.3284 6.82843 19 6 19C5.17157 19 4.5 18.3284 4.5 17.5C4.5 16.6716 5.17157 16 6 16C6.82843 16 7.5 16.6716 7.5 17.5Z" fill="#DD5400"/>
<path d="M13.5 17.5C13.5 18.3284 12.8284 19 12 19C11.1716 19 10.5 18.3284 10.5 17.5C10.5 16.6716 11.1716 16 12 16C12.8284 16 13.5 16.6716 13.5 17.5Z" fill="#DD5400"/>
<path d="M7.5 13C7.5 14.1046 6.60457 15 5.5 15C4.39543 15 3.5 14.1046 3.5 13C3.5 11.8954 4.39543 11 5.5 11C6.60457 11 7.5 11.8954 7.5 13Z" fill="#EDB120"/>
<path d="M5.5 8.5C5.5 9.32843 4.82843 10 4 10C3.17157 10 2.5 9.32843 2.5 8.5C2.5 7.67157 3.17157 7 4 7C4.82843 7 5.5 7.67157 5.5 8.5Z" fill="#1171BE"/>
<path d="M15.5 8.5C15.5 9.32843 14.8284 10 14 10C13.1716 10 12.5 9.32843 12.5 8.5C12.5 7.67157 13.1716 7 14 7C14.8284 7 15.5 7.67157 15.5 8.5Z" fill="#1171BE"/>
<path d="M18 6L18 1L1 0.999999L1 6L18 6Z" fill="var(--mw-icon-background-default-medium-gray, #D9D9D9)"/>
<path d="M0.5 6.5H18.5" stroke="var(--mw-icon-glyph-content-gray, #616162)" stroke-linecap="round" stroke-linejoin="round"/>
<path d="M12 3L9.5 6L7 3L12 3Z" fill="var(--mw-icon-glyph-content-dark-gray, #333333)"/>
<path fill-rule="evenodd" clip-rule="evenodd" d="M9 3V1H10V3H9Z" fill="var(--mw-icon-glyph-content-dark-gray, #333333)"/>
<path d="M1.5 0.5H17.5C18.0523 0.5 18.5 0.947716 18.5 1.5V17.5C18.5 18.0523 18.0523 18.5 17.5 18.5H1.5C0.947716 18.5 0.5 18.0523 0.5 17.5V1.5C0.5 0.947715 0.947716 0.5 1.5 0.5Z" stroke="var(--mw-icon-border-default-gray, #616161)" stroke-linecap="round"/>
<path d="M21.5416 23.1643L16.8977 18.5203L18.5557 16.8623L23.1996 21.5064C23.6475 21.9543 23.6475 22.6805 23.1996 23.1284L23.1636 23.1643C22.7157 23.6122 21.9895 23.6122 21.5416 23.1643Z" fill="var(--mw-icon-background-default-medium-gray, #D9D9D9)" stroke="var(--mw-icon-border-default-gray, #616161)"/>
<path d="M18.0356 10.9645C19.9882 12.9171 19.9881 16.0829 18.0355 18.0355C16.0829 19.9882 12.917 19.9882 10.9644 18.0355C9.01183 16.0829 9.01186 12.9171 10.9645 10.9645C12.9171 9.01184 16.083 9.01184 18.0356 10.9645Z" fill="white" stroke="var(--mw-icon-border-default-gray, #616161)"/>
</svg>
