<svg width="24" height="24" viewBox="0 0 24 24" fill="none" xmlns="http://www.w3.org/2000/svg">
<path d="M7.5 8.5C2.25 8.5 0.5 12.5996 0.5 16.4231V17.5C0.5 18.0523 0.947716 18.5 1.5 18.5H13.5C14.0523 18.5 14.5 18.0523 14.5 17.5V16.4231C14.5 12.5996 12.75 8.5 7.5 8.5Z" fill="var(--mw-icon-background-default-white, #FFFFFF)" stroke="var(--mw-icon-border-default-gray, #616161)"/>
<circle cx="7.5" cy="4.5" r="4" fill="white" stroke="var(--mw-icon-border-default-gray, #616161)"/>
<path d="M20.5416 23.1643L15.8977 18.5203L17.5557 16.8623L22.1996 21.5064C22.6475 21.9543 22.6475 22.6805 22.1996 23.1284L22.1636 23.1643C21.7157 23.6122 20.9895 23.6122 20.5416 23.1643Z" fill="var(--mw-icon-background-default-medium-gray, #D9D9D9)" stroke="var(--mw-icon-border-default-gray, #616161)"/>
<path d="M17.0356 10.9645C18.9882 12.9171 18.9881 16.0829 17.0355 18.0355C15.0829 19.9882 11.917 19.9882 9.96443 18.0355C8.01183 16.0829 8.01186 12.9171 9.9645 10.9645C11.9171 9.01184 15.083 9.01184 17.0356 10.9645Z" fill="white" stroke="var(--mw-icon-border-default-gray, #616161)"/>
</svg>
