<svg width="24" height="24" viewBox="0 0 24 24" fill="none" xmlns="http://www.w3.org/2000/svg">
<path d="M0.5 2.16667C0.5 1.24619 1.39543 0.5 2.5 0.5H21.5C22.6046 0.5 23.5 1.24619 23.5 2.16667V8.83333C23.5 9.75381 22.6046 10.5 21.5 10.5H2.5C1.39543 10.5 0.5 9.75381 0.5 8.83333V2.16667Z" fill="var(--mw-icon-background-default-white, #FFFFFF)" stroke="var(--mw-icon-border-default-gray, #616161)"/>
<rect x="9" y="4" width="3" height="1" fill="var(--mw-icon-glyph-content-gray, #616162)"/>
<rect x="9" y="6" width="3" height="1" fill="var(--mw-icon-glyph-content-gray, #616162)"/>
<ellipse cx="19.5" cy="7" rx="1" ry="1.5" stroke="var(--mw-icon-glyph-content-gray, #616162)"/>
<path d="M4.6004 3L5.49006 4.52033L6.40457 3H7.93042L6.40954 5.44455L8 8H6.46918L5.5 6.39187L4.53082 8H3L4.59046 5.44455L3.06958 3H4.6004Z" fill="var(--mw-icon-glyph-content-gray, #616162)"/>
<path d="M14.6004 3L15.4901 4.52033L16.4046 3H17.9304L16.4095 5.44455L18 8H16.4692L15.5 6.39187L14.5308 8H13L14.5905 5.44455L13.0696 3H14.6004Z" fill="var(--mw-icon-glyph-content-gray, #616162)"/>
<path d="M19.5416 22.1643L14.8977 17.5203L16.5557 15.8623L21.1996 20.5064C21.6475 20.9543 21.6475 21.6805 21.1996 22.1284L21.1636 22.1643C20.7157 22.6122 19.9895 22.6122 19.5416 22.1643Z" fill="var(--mw-icon-background-default-medium-gray, #D9D9D9)" stroke="var(--mw-icon-border-default-gray, #616161)"/>
<path d="M16.0356 9.96447C17.9882 11.9171 17.9881 15.0829 16.0355 17.0355C14.0829 18.9882 10.917 18.9882 8.96443 17.0355C7.01183 15.0829 7.01186 11.9171 8.9645 9.96447C10.9171 8.01184 14.083 8.01184 16.0356 9.96447Z" fill="white" stroke="var(--mw-icon-border-default-gray, #616161)"/>
</svg>
