<svg width="24" height="24" viewBox="0 0 24 24" fill="none" xmlns="http://www.w3.org/2000/svg">
<path d="M7.5 0.5H22.5V13.5H7.5V0.5Z" fill="var(--mw-icon-background-default-white, #FFFFFF)" stroke="var(--mw-icon-alert-red, #B7313C)" stroke-linejoin="round"/>
<path d="M8 1H10V3H8V1Z" fill="var(--mw-icon-glyph-content-dark-gray, #333333)"/>
<path d="M8 5H10V7H8V5Z" fill="var(--mw-icon-glyph-content-dark-gray, #333333)"/>
<path d="M8 9H10V11H8V9Z" fill="var(--mw-icon-glyph-content-dark-gray, #333333)"/>
<path d="M18 11H20V13H18V11Z" fill="var(--mw-icon-glyph-content-dark-gray, #333333)"/>
<path d="M20 9H22V11H20V9Z" fill="var(--mw-icon-glyph-content-dark-gray, #333333)"/>
<path d="M18 7H20V9H18V7Z" fill="var(--mw-icon-glyph-content-dark-gray, #333333)"/>
<path d="M20 5H22V7H20V5Z" fill="var(--mw-icon-glyph-content-dark-gray, #333333)"/>
<path d="M18 3H20V5H18V3Z" fill="var(--mw-icon-glyph-content-dark-gray, #333333)"/>
<path d="M20 1H22V3H20V1Z" fill="var(--mw-icon-glyph-content-dark-gray, #333333)"/>
<path d="M14 11H16V13H14V11Z" fill="var(--mw-icon-glyph-content-dark-gray, #333333)"/>
<path d="M16 9H18V11H16V9Z" fill="var(--mw-icon-glyph-content-dark-gray, #333333)"/>
<path d="M14 7H16V9H14V7Z" fill="var(--mw-icon-glyph-content-dark-gray, #333333)"/>
<path d="M16 5H18V7H16V5Z" fill="var(--mw-icon-glyph-content-dark-gray, #333333)"/>
<path d="M14 3H16V5H14V3Z" fill="var(--mw-icon-glyph-content-dark-gray, #333333)"/>
<path d="M16 1H18V3H16V1Z" fill="var(--mw-icon-glyph-content-dark-gray, #333333)"/>
<path d="M10 11H12V13H10V11Z" fill="var(--mw-icon-glyph-content-dark-gray, #333333)"/>
<path d="M12 9H14V11H12V9Z" fill="var(--mw-icon-glyph-content-dark-gray, #333333)"/>
<path d="M10 7H12V9H10V7Z" fill="var(--mw-icon-glyph-content-dark-gray, #333333)"/>
<path d="M12 5H14V7H12V5Z" fill="var(--mw-icon-glyph-content-dark-gray, #333333)"/>
<path d="M10 3H12V5H10V3Z" fill="var(--mw-icon-glyph-content-dark-gray, #333333)"/>
<path d="M12 1H14V3H12V1Z" fill="var(--mw-icon-glyph-content-dark-gray, #333333)"/>
<path d="M12.5416 22.1643L7.89771 17.5203L9.55568 15.8623L14.1996 20.5064C14.6475 20.9543 14.6475 21.6805 14.1996 22.1284L14.1636 22.1643C13.7157 22.6122 12.9895 22.6122 12.5416 22.1643Z" fill="var(--mw-icon-background-default-medium-gray, #D9D9D9)" stroke="var(--mw-icon-glyph-content-gray, #616162)"/>
<path d="M9.03557 9.96447C10.9882 11.9171 10.9881 15.0829 9.0355 17.0355C7.08286 18.9882 3.91703 18.9882 1.96443 17.0355C0.0118293 15.0829 0.0118599 11.9171 1.9645 9.96447C3.91714 8.01184 7.08297 8.01184 9.03557 9.96447Z" fill="white" stroke="var(--mw-icon-glyph-content-gray, #616162)"/>
</svg>
