<svg width="24" height="24" viewBox="0 0 24 24" fill="none" xmlns="http://www.w3.org/2000/svg">
<path d="M16.5 0.5H2.5C1.39543 0.5 0.5 1.39543 0.5 2.5V16.5C0.5 17.6046 1.39543 18.5 2.5 18.5H16.5C17.6046 18.5 18.5 17.6046 18.5 16.5V2.5C18.5 1.39543 17.6046 0.5 16.5 0.5Z" fill="var(--mw-icon-background-default-white, #FFFFFF)" stroke="var(--mw-icon-border-default-gray, #616161)"/>
<path d="M6.5 3.5H12.5C12.7018 3.50002 11.2743 4.47761 9.5 5.84088C12.1214 7.85499 15.5 10.7109 15.5 12.5C15.5 15.5 13.25 15.5 12.6111 15.5H6.83333C6.41667 15.5 3.5 15.5 3.5 12.5C3.5 10.7109 6.87856 7.85499 9.5 5.84088C7.72566 4.47761 6.29818 3.50002 6.5 3.5Z" fill="var(--mw-icon-background-default-dark-gray, #A6A6A6)" stroke="var(--mw-icon-glyph-content-dark-gray, #333333)"/>
<path d="M20.5416 23.1643L15.8977 18.5203L17.5557 16.8623L22.1996 21.5064C22.6475 21.9543 22.6475 22.6805 22.1996 23.1284L22.1636 23.1643C21.7157 23.6122 20.9895 23.6122 20.5416 23.1643Z" fill="var(--mw-icon-background-default-medium-gray, #D9D9D9)" stroke="var(--mw-icon-border-default-gray, #616161)"/>
<path d="M17.0356 10.9645C18.9882 12.9171 18.9881 16.0829 17.0355 18.0355C15.0829 19.9882 11.917 19.9882 9.96443 18.0355C8.01183 16.0829 8.01186 12.9171 9.9645 10.9645C11.9171 9.01184 15.083 9.01184 17.0356 10.9645Z" fill="white" stroke="var(--mw-icon-border-default-gray, #616161)"/>
</svg>
