<svg width="24" height="24" viewBox="0 0 24 24" fill="none" xmlns="http://www.w3.org/2000/svg">
<path d="M21.5 0.5H1.5C0.947715 0.5 0.5 0.947716 0.5 1.5V21.5C0.5 22.0523 0.947716 22.5 1.5 22.5H21.5C22.0523 22.5 22.5 22.0523 22.5 21.5V1.5C22.5 0.947715 22.0523 0.5 21.5 0.5Z" fill="var(--mw-icon-background-default-white, #FFFFFF)" stroke="var(--mw-icon-border-default-gray, #616161)" stroke-linecap="round"/>
<path d="M22.0217 1.47827V15.3261C20.1087 8.63045 16.2826 8.63045 14.3696 15.3261C11.5 2.89131 3.84784 2.89131 0.978271 15.3261V1.47827C0.978271 1.20213 1.20213 0.978271 1.47827 0.978271H21.5217C21.7979 0.978271 22.0217 1.20213 22.0217 1.47827Z" fill="var(--mw-icon-glyph-content-gray, #616162)"/>
<circle cx="18.5" cy="4.5" r="2.5" fill="var(--mw-icon-background-medium-yellow, #FFEF91)"/>
</svg>
