<svg width="24" height="24" viewBox="0 0 24 24" fill="none" xmlns="http://www.w3.org/2000/svg">
<path d="M6.5 0.5H22.5C23.0523 0.5 23.5 0.947716 23.5 1.5V17.5C23.5 18.0523 23.0523 18.5 22.5 18.5H6.5C5.94772 18.5 5.5 18.0523 5.5 17.5V1.5C5.5 0.947715 5.94772 0.5 6.5 0.5Z" fill="var(--mw-icon-background-default-white, #FFFFFF)" stroke="var(--mw-icon-border-default-gray, #616161)" stroke-linecap="round"/>
<path fill-rule="evenodd" clip-rule="evenodd" d="M24 5.77431C23.2968 5.23882 22.6316 5 22 5C21.2459 5 20.4438 5.3405 19.5863 6.11997C18.7262 6.90191 17.8409 8.0996 16.9381 9.74096C16.0075 11.4329 15.0595 12.7352 14.0863 13.62C13.1104 14.5072 12.0792 15 11 15C9.9208 15 8.88958 14.5072 7.91366 13.62C6.94047 12.7352 5.99248 11.4329 5.06189 9.74096C4.92881 9.499 5.01708 9.19497 5.25904 9.06189C5.501 8.92881 5.80503 9.01708 5.93811 9.25904C6.84086 10.9004 7.7262 12.0981 8.58634 12.88C9.44375 13.6595 10.2459 14 11 14C11.7541 14 12.5562 13.6595 13.4137 12.88C14.2738 12.0981 15.1591 10.9004 16.0619 9.25904C16.9925 7.56707 17.9405 6.26476 18.9137 5.38003C19.8896 4.49283 20.9208 4 22 4C22.6867 4 23.354 4.19955 24 4.57329V5.77431Z" fill="#0072BD"/>
<path fill-rule="evenodd" clip-rule="evenodd" d="M4.99991 13.2257C5.70309 13.7612 6.36833 14 6.99991 14C7.75404 14 8.55615 13.6595 9.41357 12.88C10.2737 12.0981 11.159 10.9004 12.0618 9.25904C12.9924 7.56707 13.9404 6.26476 14.9136 5.38003C15.8895 4.49283 16.9207 4 17.9999 4C19.0791 4 20.1103 4.49283 21.0862 5.38003C22.0594 6.26476 23.0074 7.56707 23.938 9.25904C24.0711 9.501 23.9828 9.80503 23.7409 9.93811C23.4989 10.0712 23.1949 9.98292 23.0618 9.74096C22.1591 8.0996 21.2737 6.90191 20.4136 6.11997C19.5562 5.3405 18.754 5 17.9999 5C17.2458 5 16.4437 5.3405 15.5862 6.11997C14.7261 6.90191 13.8408 8.0996 12.938 9.74096C12.0074 11.4329 11.0594 12.7352 10.0862 13.62C9.11033 14.5072 8.07911 15 6.99991 15C6.31318 15 5.64589 14.8004 4.99991 14.4267V13.2257Z" fill="#D95319"/>
<path d="M6.5 0.5H22.5C23.0523 0.5 23.5 0.947716 23.5 1.5V17.5C23.5 18.0523 23.0523 18.5 22.5 18.5H6.5C5.94772 18.5 5.5 18.0523 5.5 17.5V1.5C5.5 0.947715 5.94772 0.5 6.5 0.5Z" stroke="var(--mw-icon-border-default-gray, #616161)" stroke-linecap="round"/>
<path d="M12.5416 23.1643L7.89771 18.5203L9.55568 16.8623L14.1996 21.5064C14.6475 21.9543 14.6475 22.6805 14.1996 23.1284L14.1636 23.1643C13.7157 23.6122 12.9895 23.6122 12.5416 23.1643Z" fill="var(--mw-icon-background-default-medium-gray, #D9D9D9)" stroke="var(--mw-icon-glyph-content-gray, #616162)"/>
<path d="M9.03557 10.9645C10.9882 12.9171 10.9881 16.0829 9.0355 18.0355C7.08286 19.9882 3.91703 19.9882 1.96443 18.0355C0.0118293 16.0829 0.0118599 12.9171 1.9645 10.9645C3.91714 9.01184 7.08297 9.01184 9.03557 10.9645Z" fill="white" stroke="var(--mw-icon-glyph-content-gray, #616162)"/>
</svg>
