<svg width="24" height="25" viewBox="0 0 24 25" fill="none" xmlns="http://www.w3.org/2000/svg">
<path d="M11.7929 0.792924C11.6054 0.605391 11.351 0.500035 11.0858 0.500034L2.5 0.500004C1.94772 0.500002 1.5 0.947718 1.5 1.5L1.5 17.5C1.5 18.0523 1.94772 18.5 2.5 18.5H14.5C15.0523 18.5 15.5 18.0523 15.5 17.5V4.91422C15.5 4.649 15.3946 4.39464 15.2071 4.20711L11.7929 0.792924Z" fill="var(--mw-sidebar-icon-fill, #ffffff)" stroke="var(--mw-sidebar-icon-stroke, #616161)" stroke-linecap="round"/>
<path d="M4.5 3.5H8.5M6.5 6.5H10.5M8.5 9.5H12.5M6.5 12.5H10.5M4.5 15.5H8.5" stroke="var(--mw-sidebar-icon-stroke, #616161)" stroke-linecap="round"/>
<path d="M14.5607 16.5251L15.9749 17.9394L10.6465 23.2678C10.2559 23.6583 9.62277 23.6583 9.23224 23.2678C8.84172 22.8773 8.84172 22.2441 9.23224 21.8536L14.5607 16.5251Z" fill="var(--mw-sidebar-icon-fill, #ffffff)" stroke="var(--mw-sidebar-icon-stroke, #616161)"/>
<path d="M21.0356 18.0355C22.9882 16.0829 22.9881 12.9171 21.0355 10.9645C19.0829 9.01184 15.917 9.01184 13.9644 10.9645C12.0118 12.9171 12.0119 16.0829 13.9645 18.0355C15.9171 19.9882 19.083 19.9882 21.0356 18.0355Z" fill="var(--mw-sidebar-icon-fill, #ffffff)" stroke="var(--mw-sidebar-icon-stroke, #616161)"/>
</svg>
