<svg width="24" height="24" viewBox="0 0 24 24" fill="none" xmlns="http://www.w3.org/2000/svg">
<path d="M0.5 4.5L8.5 0.5L16.5 4.5V12.5L8.5 16.5L0.5 12.5V4.5Z" fill="var(--mw-icon-background-default-selection, #B4DEFF)"/>
<path d="M0.5 4.5L8.5 0.5L16.5 4.5M0.5 4.5V12.5L8.5 16.5M0.5 4.5C0.5 4.5 4.94444 6.72222 8.5 8.5M8.5 16.5C8.5 16.5 8.5 11.6242 8.5 8.5M8.5 16.5L16.5 12.5V4.5M8.5 8.5C12.0556 6.72222 16.5 4.5 16.5 4.5" stroke="var(--mw-icon-border-default-blue, #1656A7)" stroke-linejoin="round"/>
<path d="M20.5416 23.1643L15.8977 18.5203L17.5557 16.8623L22.1996 21.5064C22.6475 21.9543 22.6475 22.6805 22.1996 23.1284L22.1636 23.1643C21.7157 23.6122 20.9895 23.6122 20.5416 23.1643Z" fill="var(--mw-icon-background-default-medium-gray, #D9D9D9)" stroke="var(--mw-icon-glyph-content-gray, #616162)"/>
<path d="M17.0356 10.9645C18.9882 12.9171 18.9881 16.0829 17.0355 18.0355C15.0829 19.9882 11.917 19.9882 9.96443 18.0355C8.01183 16.0829 8.01186 12.9171 9.9645 10.9645C11.9171 9.01184 15.083 9.01184 17.0356 10.9645Z" fill="var(--mw-icon-background-default-white, #FFFFFF)" stroke="var(--mw-icon-glyph-content-gray, #616162)"/>
</svg>
