<svg width="24" height="24" viewBox="0 0 24 24" fill="none" xmlns="http://www.w3.org/2000/svg">
<circle cx="12" cy="12" r="10.5" fill="var(--mw-icon-background-default-white, #FFFFFF)" stroke="var(--mw-icon-border-default-gray, #616161)"/>
<path d="M12 7H17V12H12V7Z" fill="var(--mw-icon-glyph-content-dark-gray, #333333)"/>
<path d="M3 7H7V12H2V9L3 7Z" fill="var(--mw-icon-glyph-content-dark-gray, #333333)"/>
<path d="M19.5 4.5L21 7H17V3L19.5 4.5Z" fill="var(--mw-icon-glyph-content-dark-gray, #333333)"/>
<path d="M17 12H22V15L21 17H17V12Z" fill="var(--mw-icon-glyph-content-dark-gray, #333333)"/>
<path d="M7 12H12V17H7V12Z" fill="var(--mw-icon-glyph-content-dark-gray, #333333)"/>
<path d="M12 17H17V21L15 22H12V17Z" fill="var(--mw-icon-glyph-content-dark-gray, #333333)"/>
<path d="M7 3L9 2H12V7H7V3Z" fill="var(--mw-icon-glyph-content-dark-gray, #333333)"/>
<path d="M3 17H7V21L4.5 19.5L3 17Z" fill="var(--mw-icon-glyph-content-dark-gray, #333333)"/>
<circle cx="12" cy="12" r="10.5" stroke="var(--mw-icon-border-default-gray, #616161)"/>
</svg>
