<svg width="24" height="24" viewBox="0 0 24 24" fill="none" xmlns="http://www.w3.org/2000/svg">
<rect x="0.5" y="0.5" width="22" height="22" rx="2" fill="var(--mw-icon-background-default-white, #FFFFFF)" stroke="var(--mw-icon-glyph-content-light-blue, #278CDD)"/>
<path d="M13 9.5H10C9.72386 9.5 9.5 9.72386 9.5 10V13C9.5 13.2761 9.72386 13.5 10 13.5H13C13.2761 13.5 13.5 13.2761 13.5 13V10C13.5 9.72386 13.2761 9.5 13 9.5Z" stroke="var(--mw-icon-glyph-disabled-gray, #888889)" stroke-linecap="square"/>
<path d="M7.5 3.5H3.5M3.5 3.5V7.5M3.5 3.5L8.5 8.5M15.5 3.5H19.5M19.5 3.5V7.5M19.5 3.5L14.5 8.5M8.5 14.5L3.5 19.5M3.5 19.5V15.5M3.5 19.5H7.5M14.5 14.5L19.5 19.5M19.5 19.5V15.5M19.5 19.5H15.5" stroke="var(--mw-icon-glyph-content-gray, #616162)" stroke-linecap="round" stroke-linejoin="round"/>
</svg>
