<svg width="24" height="24" viewBox="0 0 24 24" fill="none" xmlns="http://www.w3.org/2000/svg">
<path d="M21 20C21 20.5523 20.5523 21 20 21H18L18 2L20 2C20.5523 2 21 2.44772 21 3L21 20Z" fill="var(--mw-icon-background-default-medium-gray, #D9D9D9)"/>
<path d="M15 2H18V21H15V2Z" fill="#BFBFBF"/>
<path d="M12 2H15V21H12V2Z" fill="var(--mw-icon-background-default-dark-gray, #A6A6A6)"/>
<path d="M9 2H12V21H9V2Z" fill="#7D7D7D"/>
<path d="M6 2H9V21H6V2Z" fill="var(--mw-icon-border-default-gray, #616161)"/>
<path d="M3 2H6V21H3V2Z" fill="#4C4C4C"/>
<path d="M4 8C4 7.44772 4.44772 7 5 7H19C19.5523 7 20 7.44772 20 8V15C20 15.5523 19.5523 16 19 16H5C4.44772 16 4 15.5523 4 15V8Z" fill="var(--mw-icon-object-secondary, #FFFFFE)"/>
<path d="M7.5 8.5L4.5 11.5M4.5 11.5L7.5 14.5M4.5 11.5L19.5 11.5M19.5 11.5L16.5 8.5M19.5 11.5L16.5 14.5" stroke="var(--mw-icon-object-primary, #616160)" stroke-linecap="round" stroke-linejoin="round"/>
<path d="M19.5 1.5H4.5C3.39543 1.5 2.5 2.39543 2.5 3.5V19.5C2.5 20.6046 3.39543 21.5 4.5 21.5H19.5C20.6046 21.5 21.5 20.6046 21.5 19.5V3.5C21.5 2.39543 20.6046 1.5 19.5 1.5Z" stroke="var(--mw-icon-object-primary, #616160)" stroke-linecap="round"/>
</svg>
