<svg width="24" height="24" viewBox="0 0 24 24" fill="none" xmlns="http://www.w3.org/2000/svg">
<path d="M19.5 2.5H4.5C3.39543 2.5 2.5 3.39543 2.5 4.5V19.5C2.5 20.6046 3.39543 21.5 4.5 21.5H19.5C20.6046 21.5 21.5 20.6046 21.5 19.5V4.5C21.5 3.39543 20.6046 2.5 19.5 2.5Z" fill="var(--mw-icon-background-default-white, #FFFFFF)" stroke="var(--mw-icon-glyph-content-mono, #616061)" stroke-linecap="round"/>
<path d="M21 20C21 20.5523 20.5523 21 20 21L18 21L18 3L20 3C20.5523 3 21 3.44771 21 4L21 20Z" fill="var(--mw-icon-background-default-light-gray, #F5F5F5)"/>
<path d="M15 3H18V21H15V3Z" fill="var(--mw-icon-background-default-medium-gray, #D9D9D9)"/>
<path d="M12 3H15V21H12V3Z" fill="var(--mw-icon-background-default-dark-gray, #A6A6A6)"/>
<path d="M9 3H12V21H9V3Z" fill="var(--mw-icon-glyph-disabled-gray, #888889)"/>
<path d="M6 3H9V21H6V3Z" fill="var(--mw-icon-glyph-content-gray, #616162)"/>
<path d="M3 4C3 3.44772 3.44772 3 4 3H6V21H4C3.44772 21 3 20.5523 3 20V4Z" fill="var(--mw-icon-glyph-content-dark-gray, #333333)"/>
<rect x="3" y="7" width="18" height="9" rx="1" fill="white"/>
<path d="M7.5 8.5L4.5 11.5M4.5 11.5L7.5 14.5M4.5 11.5L19.5 11.5M19.5 11.5L16.5 8.5M19.5 11.5L16.5 14.5" stroke="var(--mw-icon-glyph-content-gray, #616162)" stroke-linecap="round" stroke-linejoin="round"/>
</svg>
