<svg width="24" height="24" viewBox="0 0 24 24" fill="none" xmlns="http://www.w3.org/2000/svg">
<rect x="2.5" y="2.5" width="19" height="19" rx="2" stroke="var(--mw-icon-glyph-content-mono, #616061)"/>
<path d="M14 9.5H10C9.72386 9.5 9.5 9.72386 9.5 10V14C9.5 14.2761 9.72386 14.5 10 14.5H14C14.2761 14.5 14.5 14.2761 14.5 14V10C14.5 9.72386 14.2761 9.5 14 9.5Z" stroke="var(--mw-icon-glyph-content-mono, #616061)" stroke-linecap="square"/>
<path d="M8.5 4.5H4.5M4.5 4.5V8.5M4.5 4.5L8.5 8.5M15.5 4.5H19.5M19.5 4.5V8.5M19.5 4.5L15.5 8.5M8.5 15.5L4.5 19.5M4.5 19.5V15.5M4.5 19.5H8.5M15.5 15.5L19.5 19.5M19.5 19.5V15.5M19.5 19.5H15.5" stroke="var(--mw-icon-glyph-content-mono, #616061)" stroke-linecap="round" stroke-linejoin="round"/>
</svg>
