<svg width="24" height="24" viewBox="0 0 24 24" fill="none" xmlns="http://www.w3.org/2000/svg">
<path d="M0.5 3.5H20.5V14.5C20.5 15.0523 20.0523 15.5 19.5 15.5H1.5C0.947715 15.5 0.5 15.0523 0.5 14.5V3.5Z" fill="var(--mw-icon-background-default-white, #FFFFFF)" stroke="var(--mw-icon-border-default-gray, #616161)"/>
<path d="M0.5 1.5C0.5 0.947715 0.947715 0.5 1.5 0.5H19.5C20.0523 0.5 20.5 0.947715 20.5 1.5V3.5H0.5V1.5Z" fill="var(--mw-icon-background-default-selection, #B4DEFF)" stroke="var(--mw-icon-border-default-blue, #1656A7)"/>
<path d="M6.5 9.5H14.5M6.5 12.5H16.5" stroke="var(--mw-icon-glyph-content-gray, #616162)" stroke-linecap="round"/>
<path d="M6.5 6.5H17.5M3.5 6.5H4.5" stroke="var(--mw-icon-glyph-content-red, #902623)" stroke-linecap="round"/>
<path d="M9.5 11.5C9.5 10.3954 10.3954 9.5 11.5 9.5H20.5C21.6046 9.5 22.5 10.3954 22.5 11.5V20.5C22.5 21.6046 21.6046 22.5 20.5 22.5H11.5C10.3954 22.5 9.5 21.6046 9.5 20.5V11.5Z" fill="white"/>
<path d="M11.245 13.3799C10.8891 13.7357 10.7915 15.773 11.8602 16.8416C12.5821 17.5635 13.5027 17.9533 14.4161 18.0034C15.2229 18.0476 16.0812 18.2162 16.6722 18.8071L18.5703 20.7052C18.9633 21.0983 19.6006 21.0983 19.9936 20.7052L20.7052 19.9936C21.0983 19.6006 21.0983 18.9633 20.7052 18.5703L18.8071 16.6722C18.2161 16.0812 18.0476 15.2229 18.0034 14.4161C17.9533 13.5027 17.5635 12.5821 16.8416 11.8602C15.773 10.7915 13.7357 10.8891 13.3799 11.245L15.8011 13.6662L15.499 15.499L13.6662 15.8011L11.245 13.3799Z" fill="var(--mw-icon-glyph-content-gray, #616162)"/>
<path d="M9.5 11.5C9.5 10.3954 10.3954 9.5 11.5 9.5H20.5C21.6046 9.5 22.5 10.3954 22.5 11.5V20.5C22.5 21.6046 21.6046 22.5 20.5 22.5H11.5C10.3954 22.5 9.5 21.6046 9.5 20.5V11.5Z" stroke="var(--mw-icon-border-default-gray, #616161)"/>
</svg>
