<svg width="24" height="24" viewBox="0 0 24 24" fill="none" xmlns="http://www.w3.org/2000/svg">
<rect x="0.5" y="0.5" width="23" height="23" rx="2" fill="var(--mw-icon-background-default-white, #FFFFFF)" stroke="var(--mw-icon-border-default-gray, #616161)"/>
<path fill-rule="evenodd" clip-rule="evenodd" d="M21 21H15.8129V20.2676L16.0289 20.2515C16.3591 20.2269 16.5963 20.1959 16.771 20.1472C16.9415 20.0997 17.0339 20.0403 17.0934 19.9697C17.1552 19.8963 17.2034 19.7847 17.2332 19.5924C17.2632 19.3991 17.2715 19.1476 17.2715 18.8104V13.633C17.2715 13.3894 17.2597 13.228 17.2231 13.1122C17.1912 13.0114 17.1423 12.9498 17.0505 12.9001C16.9443 12.8426 16.7707 12.7961 16.4771 12.7669C16.1873 12.7381 15.8047 12.7281 15.2962 12.7281H13.7285V18.9889C13.7285 19.5356 13.7982 19.8043 13.9458 19.9595C14.0926 20.114 14.3703 20.2118 14.969 20.2514L15.1871 20.2658V21H10V20.2584L10.226 20.251C10.8286 20.2311 11.0951 20.1439 11.2372 19.9863C11.3089 19.9067 11.3661 19.7903 11.4041 19.6067C11.4425 19.4215 11.4586 19.1824 11.4586 18.8699V12.7281H10.0214V11.6219H11.507C11.6131 10.7929 11.7083 10.1453 11.9118 9.59258C12.1364 8.98272 12.4897 8.49461 13.1065 7.98641L13.1095 7.98395C13.9353 7.32633 15.0876 7 16.4116 7C17.2769 7 17.9901 7.12576 18.4959 7.38015C19.0118 7.63965 19.3269 8.04441 19.3269 8.57469C19.3269 8.85654 19.2694 9.12253 19.0979 9.31982C18.9195 9.52515 18.6557 9.6138 18.3421 9.6138C18.0354 9.6138 17.789 9.47018 17.5856 9.29689C17.4226 9.15803 17.2662 8.98077 17.1174 8.81216C17.0845 8.77498 17.0521 8.73823 17.0201 8.7024C16.6452 8.28339 16.2845 7.94753 15.7467 7.94753C15.2064 7.94753 14.6663 8.16295 14.3042 8.51545L14.2999 8.51956C13.742 9.03553 13.7285 9.6576 13.7285 10.9551V11.6219H16.7977C17.7017 11.6219 18.2881 11.5447 19.2069 11.4064L19.3059 11.3915L19.5889 11.6009L19.5841 11.7178C19.5414 12.7647 19.5414 13.2377 19.5414 13.6718V18.8104C19.5414 19.4392 19.6355 19.7538 19.8008 19.9317C19.9638 20.1074 20.245 20.2026 20.7879 20.2518L21 20.2711V21Z" fill="var(--mw-icon-glyph-content-gray, #616162)"/>
<path d="M1 13.5H5.5V9.5H9.5V5.5H13.5V1" stroke="var(--mw-icon-glyph-content-light-blue, #278CDD)"/>
</svg>
