<svg width="24" height="24" viewBox="0 0 24 24" fill="none" xmlns="http://www.w3.org/2000/svg">
<path d="M20.5 0.5H2.5C1.39543 0.5 0.5 1.39543 0.5 2.5V20.5C0.5 21.6046 1.39543 22.5 2.5 22.5H20.5C21.6046 22.5 22.5 21.6046 22.5 20.5V2.5C22.5 1.39543 21.6046 0.5 20.5 0.5Z" fill="var(--mw-icon-background-default-white, #FFFFFF)" stroke="var(--mw-icon-border-default-gray, #616161)" stroke-linecap="round"/>
<path d="M15 10.5C15 10.2239 15.2239 10 15.5 10H20.5C20.7761 10 21 10.2239 21 10.5V14.5C21 14.7761 20.7761 15 20.5 15H15.5C15.2239 15 15 14.7761 15 14.5V10.5Z" fill="var(--mw-icon-alert-red, #B7313C)"/>
<path d="M16.5 10V9C16.5 8.17157 17.1716 7.5 18 7.5V7.5C18.8284 7.5 19.5 8.17157 19.5 9V10" stroke="var(--mw-icon-alert-red, #B7313C)"/>
<path d="M9 22L9 11L1 11" stroke="var(--mw-icon-glyph-disabled-gray, #888889)" stroke-width="2"/>
<rect x="6" y="8" width="6" height="6" rx="3" fill="var(--mw-icon-background-red, #FF9D9A)" stroke="var(--mw-icon-glyph-content-red, #902623)" stroke-width="2"/>
</svg>
