<svg width="24" height="24" viewBox="0 0 24 24" fill="none" xmlns="http://www.w3.org/2000/svg">
<circle cx="11.5" cy="11.5" r="11" fill="var(--mw-icon-background-default-action, #CBFFBE)" stroke="var(--mw-icon-glyph-content-green, #008014)"/>
<path d="M6.26947 8.61789C5.87806 9.00929 5.77062 11.2503 6.94617 12.4258C7.74026 13.2199 8.75301 13.6486 9.75775 13.7037C10.6452 13.7524 11.5893 13.9378 12.2394 14.5878L14.3273 16.6758C14.7597 17.1081 15.4606 17.1081 15.8929 16.6758L16.6757 15.8929C17.1081 15.4606 17.1081 14.7597 16.6758 14.3273L14.5878 12.2394C13.9378 11.5893 13.7524 10.6452 13.7037 9.75775C13.6486 8.75301 13.2199 7.74026 12.4258 6.94617C11.2503 5.77062 9.00929 5.87806 8.61788 6.26947L11.2812 8.93277L10.9489 10.9489L8.93277 11.2812L6.26947 8.61789Z" fill="var(--mw-icon-glyph-content-dark-green, #02580E)"/>
</svg>
