<svg width="24" height="24" viewBox="0 0 24 24" fill="none" xmlns="http://www.w3.org/2000/svg">
<path d="M0.5 18.5V4.5C0.5 2.29086 2.29086 0.5 4.5 0.5H18.5C20.7091 0.5 22.5 2.29086 22.5 4.5V18.5C22.5 20.7091 20.7091 22.5 18.5 22.5H4.5C2.29086 22.5 0.5 20.7091 0.5 18.5Z" fill="#E6E6E6"/>
<path d="M7.19176 8.42622L6.9201 8.35343L6.7088 8.29681L6.55736 8.86198L7.25041 9.23491L7.89115 9.80309L8.195 10.1488L7.64885 10.7074L7.97158 11.3115L8.73661 11.0869L8.91715 11.3996L9.02275 12.4852L9.03224 13.1486L9.35079 13.2339L9.59741 13.3L9.72682 12.8171L9.85622 12.3341L9.92781 12.0669L10.0544 11.5946L10.1591 11.2038L10.2913 10.7105L10.3573 10.4639L13.6649 8.97122L14.2065 9.90933L14.5015 10.7813L15.3204 13.644L15.5696 13.865L15.9053 13.6686L16.1819 13.5114L16.1924 13.349L16.335 11.0083L16.3807 8.90595L16.3228 7.43665L18.2321 6.23011L19.0469 5.65546L19.549 5.26134C19.6685 5.15474 19.7384 5.04777 19.7384 5.04777L19.9278 4.83419L20.1832 4.37399L20.2493 4.12737L20.159 3.97102L20.0688 3.81467L19.8552 3.62528L19.6086 3.5592L19.362 3.49311L19.0823 3.55034L18.8026 3.60757L18.523 3.6648L18.087 3.8123L17.0256 4.32087L14.993 5.49437L13.7688 4.63768L12.3882 3.87126L11.4678 3.36032L9.96386 2.56086L9.84055 2.52782L9.6842 2.61809L9.52785 2.70835L9.3715 2.79862L9.30542 3.04524L11.2518 5.15273L11.8595 5.84422L12.6147 6.97171L12.4584 7.06198L9.54492 9.05675L9.2983 8.99067L8.80506 8.8585L8.31182 8.72634L7.9419 8.62722L7.67472 8.55563L7.44866 8.49506L7.19176 8.42622Z" fill="var(--mw-icon-glyph-content-dark-gray, #333333)"/>
<path d="M3.5 16C4.56667 18 5.63333 18 6.7 16C7.76667 14 8.83333 14 9.9 16C10.9667 18 12.0333 18 13.1 16C14.1667 14 15.2333 14 16.3 16C17.3667 18 18.4333 18 19.5 16" stroke="var(--mw-icon-glyph-content-dark-blue, #104280)" stroke-linecap="round"/>
<path d="M3.5 5V19.5H20" stroke="var(--mw-icon-glyph-content-dark-gray, #333333)"/>
<path d="M0.5 18.5V4.5C0.5 2.29086 2.29086 0.5 4.5 0.5H18.5C20.7091 0.5 22.5 2.29086 22.5 4.5V18.5C22.5 20.7091 20.7091 22.5 18.5 22.5H4.5C2.29086 22.5 0.5 20.7091 0.5 18.5Z" stroke="var(--mw-icon-border-disabled-gray, #888888)" stroke-linecap="round"/>

</svg>
