<svg width="24" height="24" viewBox="0 0 24 24" fill="none" xmlns="http://www.w3.org/2000/svg">
<path d="M0.5 11.5H18.5V16.5C18.5 17.6046 17.6046 18.5 16.5 18.5H2.5C1.39543 18.5 0.5 17.6046 0.5 16.5V11.5Z" fill="var(--mw-icon-background-default-medium-gray, #D9D9D9)" stroke="var(--mw-icon-border-default-gray, #616161)"/>
<path d="M2.5 13.5H8.5M2.5 15.5H8.5" stroke="var(--mw-icon-glyph-content-gray, #616162)" stroke-linecap="round"/>
<path d="M0.5 11.5H18.5V2.5C18.5 1.39543 17.6046 0.5 16.5 0.5H2.5C1.39543 0.5 0.5 1.39543 0.5 2.5V11.5Z" fill="var(--mw-icon-background-default-white, #FFFFFF)" stroke="var(--mw-icon-border-default-gray, #616161)"/>
<rect x="2" y="7" width="3" height="3" fill="#0072BD"/>
<rect x="5" y="4" width="3" height="6" fill="#D95319"/>
<rect x="11" y="3" width="3" height="7" fill="#D95319"/>
<rect x="8" y="2" width="3" height="8" fill="#0072BD"/>
<rect x="14" y="6" width="3" height="4" fill="#0072BD"/>
<path d="M10.5 14C10.5 13.7239 10.7239 13.5 11 13.5H15.0858C15.351 13.5 15.6054 13.6054 15.7929 13.7929L17.2071 15.2071C17.3946 15.3946 17.649 15.5 17.9142 15.5H23C23.2761 15.5 23.5 15.7239 23.5 16V23C23.5 23.2761 23.2761 23.5 23 23.5H11C10.7239 23.5 10.5 23.2761 10.5 23V14Z" fill="var(--mw-icon-background-light-yellow, #FFF5BC)" stroke="#674C06"/>
</svg>
