<svg width="24" height="24" viewBox="0 0 24 24" fill="none" xmlns="http://www.w3.org/2000/svg">
<path d="M3.5 5.5H23.5V16.5C23.5 17.0523 23.0523 17.5 22.5 17.5H4.5C3.94772 17.5 3.5 17.0523 3.5 16.5V5.5Z" fill="var(--mw-icon-background-default-white, #FFFFFF)" stroke="var(--mw-icon-border-default-gray, #616161)"/>
<path d="M3.5 3.5C3.5 2.94772 3.94772 2.5 4.5 2.5H22.5C23.0523 2.5 23.5 2.94772 23.5 3.5V5.5H3.5V3.5Z" fill="var(--mw-icon-background-default-selection, #B4DEFF)" stroke="var(--mw-icon-border-default-blue, #1656A7)"/>
<path d="M9.5 11.5H17.5M9.5 14.5H19.5" stroke="var(--mw-icon-glyph-content-gray, #616162)" stroke-linecap="round"/>
<path d="M9.5 8.5H20.5M6.5 8.5H7.5" stroke="var(--mw-icon-glyph-content-red, #902623)" stroke-linecap="round"/>
<path d="M0.5 12C0.5 11.7239 0.723858 11.5 1 11.5H5.08579C5.351 11.5 5.60536 11.6054 5.79289 11.7929L7.20711 13.2071C7.39464 13.3946 7.649 13.5 7.91421 13.5H13C13.2761 13.5 13.5 13.7239 13.5 14V21C13.5 21.2761 13.2761 21.5 13 21.5H1C0.723858 21.5 0.5 21.2761 0.5 21V12Z" fill="var(--mw-icon-background-light-yellow, #FFF5BC)" stroke="#674C06"/>
</svg>
