<svg width="24" height="24" viewBox="0 0 24 24" fill="none" xmlns="http://www.w3.org/2000/svg">
<path d="M3.5 7C3.5 6.72386 3.72386 6.5 4 6.5H9.79289C9.9255 6.5 10.0527 6.55268 10.1464 6.64645L11.8536 8.35355C11.9473 8.44732 12.0745 8.5 12.2071 8.5H23C23.2761 8.5 23.5 8.72386 23.5 9L23.5 15.5667V23C23.5 23.2761 23.2761 23.5 23 23.5H4C3.72386 23.5 3.5 23.2761 3.5 23V7Z" fill="var(--mw-icon-background-light-yellow, #FFF5BC)" stroke="#674C06"/>
<path d="M10.5 1.5C10.5 0.947715 10.9477 0.5 11.5 0.5H22.5C23.0523 0.5 23.5 0.947715 23.5 1.5V12.5C23.5 13.0523 23.0523 13.5 22.5 13.5H11.5C10.9477 13.5 10.5 13.0523 10.5 12.5V1.5Z" fill="var(--mw-icon-background-default-white, #FFFFFF)" stroke="var(--mw-icon-border-default-gray, #616161)"/>
<path d="M16.5 4.5H19.5V8" stroke="var(--mw-icon-glyph-disabled-gray, #888889)" stroke-linecap="square"/>
<path d="M17.5 8C17.5 7.72386 17.7239 7.5 18 7.5H21C21.2761 7.5 21.5 7.72386 21.5 8V11C21.5 11.2761 21.2761 11.5 21 11.5H18C17.7239 11.5 17.5 11.2761 17.5 11V8Z" fill="var(--mw-icon-background-red, #FF9D9A)" stroke="var(--mw-icon-glyph-content-red, #902623)"/>
<path d="M12.5 7.5V1.5L17.5 4.5L12.5 7.5Z" fill="var(--mw-icon-background-default-selection, #B4DEFF)" stroke="var(--mw-icon-glyph-content-blue, #1656A8)" stroke-linejoin="round"/>
<path d="M1.14782 11.5H19.9712C20.1986 11.5 20.3973 11.6534 20.4549 11.8733L23.3359 22.8733C23.4189 23.1902 23.1798 23.5 22.8522 23.5H4.02877C3.80142 23.5 3.60268 23.3466 3.54508 23.1267L0.66413 12.1267C0.581131 11.8098 0.820222 11.5 1.14782 11.5Z" fill="var(--mw-icon-background-light-yellow, #FFF5BC)" stroke="#674C06"/>
</svg>
