<svg width="24" height="24" viewBox="0 0 24 24" fill="none" xmlns="http://www.w3.org/2000/svg">
<path d="M7.5 15.5V12.5C7.5 11.9477 7.94772 11.5 8.5 11.5H22.5C23.0523 11.5 23.5 11.9477 23.5 12.5V15.5C23.5 16.0523 23.0523 16.5 22.5 16.5H8.5C7.94772 16.5 7.5 16.0523 7.5 15.5Z" fill="var(--mw-icon-background-default-light-gray, #F5F5F5)" stroke="var(--mw-icon-border-default-gray, #616161)"/>
<path d="M19 14.5C19 14.7761 18.7761 15 18.5 15C18.2239 15 18 14.7761 18 14.5C18 14.2239 18.2239 14 18.5 14C18.7761 14 19 14.2239 19 14.5Z" fill="var(--mw-icon-glyph-content-gray, #616162)"/>
<path d="M17 14.5C17 14.7761 16.7761 15 16.5 15C16.2239 15 16 14.7761 16 14.5C16 14.2239 16.2239 14 16.5 14C16.7761 14 17 14.2239 17 14.5Z" fill="var(--mw-icon-glyph-content-gray, #616162)"/>
<path d="M22 14C22 14.5523 21.5523 15 21 15C20.4477 15 20 14.5523 20 14C20 13.4477 20.4477 13 21 13C21.5523 13 22 13.4477 22 14Z" fill="var(--mw-icon-glyph-content-green, #008014)"/>
<path d="M7.5 10.5V7.5C7.5 6.94772 7.94772 6.5 8.5 6.5H22.5C23.0523 6.5 23.5 6.94772 23.5 7.5V10.5C23.5 11.0523 23.0523 11.5 22.5 11.5H8.5C7.94772 11.5 7.5 11.0523 7.5 10.5Z" fill="var(--mw-icon-background-default-light-gray, #F5F5F5)" stroke="var(--mw-icon-border-default-gray, #616161)"/>
<path d="M19 9.5C19 9.77614 18.7761 10 18.5 10C18.2239 10 18 9.77614 18 9.5C18 9.22386 18.2239 9 18.5 9C18.7761 9 19 9.22386 19 9.5Z" fill="var(--mw-icon-glyph-content-gray, #616162)"/>
<path d="M17 9.5C17 9.77614 16.7761 10 16.5 10C16.2239 10 16 9.77614 16 9.5C16 9.22386 16.2239 9 16.5 9C16.7761 9 17 9.22386 17 9.5Z" fill="var(--mw-icon-glyph-content-gray, #616162)"/>
<path d="M22 9C22 9.55228 21.5523 10 21 10C20.4477 10 20 9.55228 20 9C20 8.44772 20.4477 8 21 8C21.5523 8 22 8.44772 22 9Z" fill="var(--mw-icon-glyph-content-green, #008014)"/>
<path d="M7.5 5.5V2.5C7.5 1.94772 7.94772 1.5 8.5 1.5H22.5C23.0523 1.5 23.5 1.94772 23.5 2.5V5.5C23.5 6.05228 23.0523 6.5 22.5 6.5H8.5C7.94772 6.5 7.5 6.05228 7.5 5.5Z" fill="var(--mw-icon-background-default-light-gray, #F5F5F5)" stroke="var(--mw-icon-border-default-gray, #616161)"/>
<path d="M19 4.5C19 4.77614 18.7761 5 18.5 5C18.2239 5 18 4.77614 18 4.5C18 4.22386 18.2239 4 18.5 4C18.7761 4 19 4.22386 19 4.5Z" fill="var(--mw-icon-glyph-content-gray, #616162)"/>
<path d="M17 4.5C17 4.77614 16.7761 5 16.5 5C16.2239 5 16 4.77614 16 4.5C16 4.22386 16.2239 4 16.5 4C16.7761 4 17 4.22386 17 4.5Z" fill="var(--mw-icon-glyph-content-gray, #616162)"/>
<path d="M22 4C22 4.55228 21.5523 5 21 5C20.4477 5 20 4.55228 20 4C20 3.44772 20.4477 3 21 3C21.5523 3 22 3.44772 22 4Z" fill="var(--mw-icon-glyph-content-green, #008014)"/>
<path d="M0.5 12C0.5 11.7239 0.723858 11.5 1 11.5H5.08579C5.351 11.5 5.60536 11.6054 5.79289 11.7929L7.20711 13.2071C7.39464 13.3946 7.649 13.5 7.91421 13.5H13C13.2761 13.5 13.5 13.7239 13.5 14V21C13.5 21.2761 13.2761 21.5 13 21.5H1C0.723858 21.5 0.5 21.2761 0.5 21V12Z" fill="var(--mw-icon-background-light-yellow, #FFF5BC)" stroke="#674C06"/>
</svg>
