<svg width="24" height="24" viewBox="0 0 24 24" fill="none" xmlns="http://www.w3.org/2000/svg">
<path d="M7.55919 9.13621H8.77854C9.1081 7.95681 9.48708 6.89369 10.0803 6.12957C10.6405 5.43189 11.382 5 12.5025 5C13.4912 5 14.1338 5.51495 14.1338 6.3289C14.1338 6.84385 13.8042 7.22591 13.2934 7.22591C12.8321 7.22591 12.486 6.86046 12.486 6.39535C12.486 6.01329 12.7497 5.93023 12.7497 5.69767C12.7497 5.56478 12.6179 5.48173 12.4531 5.48173C11.8928 5.48173 11.3326 6.41196 10.9371 8.03987L10.6735 9.13621H12.173L12.0247 9.83389H10.5581C9.63538 14.2359 9.43765 15.0332 8.99275 16.3787C8.48194 17.907 8.10295 18.6545 7.50976 19.2359C6.98247 19.7508 6.35632 20 5.6313 20C4.70854 20 4 19.4851 4 18.6877C4 18.1728 4.39547 17.7741 4.84036 17.7741C5.26878 17.7741 5.66425 18.1063 5.66425 18.588C5.66425 19.0033 5.40061 19.0532 5.40061 19.2857C5.40061 19.4186 5.53243 19.4851 5.69721 19.4851C6.35632 19.4851 6.66939 18.804 7.1802 16.3455C7.27907 15.8638 7.80635 13.4884 8.63024 9.83389H7.41089L7.55919 9.13621Z" fill="var(--mw-icon-object-primary, #616160)"/>
<path d="M12.9475 9.31894L15.6664 8.92027C15.9794 9.38538 16.1772 9.80066 16.4408 11.2126C17.7261 9.31894 18.2698 8.92027 19.0443 8.92027C19.5551 8.92027 20 9.40199 20 9.93355C20 10.4153 19.5716 10.814 19.0772 10.814C18.6818 10.814 18.517 10.4817 18.138 10.4817C17.759 10.4817 17.1494 11.0963 16.6221 12.0432L17.1494 14.6512C17.2812 15.299 17.446 15.5316 17.759 15.5316C18.0556 15.5316 18.2204 15.3821 18.863 14.5515L19.2091 14.7841C18.2039 16.2458 17.5119 16.8106 16.7209 16.8106C15.897 16.8106 15.4851 16.1462 15.1226 14.2359L14.7271 14.8837C13.7549 16.4784 13.3924 16.8106 12.5685 16.8106C11.9424 16.8106 11.5304 16.412 11.5304 15.8306C11.5304 15.299 11.9094 14.8837 12.4202 14.8837C12.9146 14.8837 13.0958 15.2492 13.4419 15.2492C13.7385 15.2492 13.8703 15.1495 14.2163 14.5847L14.9413 13.4053L14.4635 10.8804C14.3152 10.0664 14.0515 9.73422 13.5243 9.73422C13.376 9.73422 13.2606 9.73422 12.9475 9.76744V9.31894Z" fill="var(--mw-icon-object-primary, #616160)"/>
</svg>
