<svg width="24" height="24" viewBox="0 0 24 24" fill="none" xmlns="http://www.w3.org/2000/svg">
<path d="M0.5 2.5C0.5 1.39543 1.39543 0.5 2.5 0.5H21.5C22.6046 0.5 23.5 1.39543 23.5 2.5V21.5C23.5 22.6046 22.6046 23.5 21.5 23.5H2.5C1.39543 23.5 0.5 22.6046 0.5 21.5V2.5Z" fill="var(--mw-icon-background-default-white, #FFFFFF)" stroke="var(--mw-icon-border-default-gray, #616161)"/>
<path d="M6.87931 8.08475L6.73487 8.73559H8.61262L6.79677 17.278C6.32217 19.4746 5.66187 20.5729 4.79521 20.5729C4.5476 20.5729 4.38252 20.4305 4.38252 20.2475C4.38252 20.0237 4.56823 19.922 4.56823 19.6576C4.56823 19.2305 4.25871 18.9051 3.78412 18.9051C3.35079 18.9051 3 19.2915 3 19.7593C3 20.4712 3.70158 21 4.63013 21C6.50789 21 7.89041 19.0068 8.75706 15.2441L10.2428 8.73559H12.4713L12.5951 8.08475H10.3872C10.9856 4.87119 11.7491 3.44746 12.9046 3.44746C13.1935 3.44746 13.3586 3.54915 13.3586 3.71186C13.3586 3.89492 13.1522 3.99661 13.1522 4.34237C13.1522 4.83051 13.5443 5.13559 13.9157 5.13559C14.3903 5.13559 14.7824 4.70847 14.7824 4.26102C14.7824 3.52881 14.0189 3 13.0078 3C11.7491 3 10.9031 3.69152 10.284 4.5661C9.60308 5.52203 9.25229 6.64068 8.79833 8.08475H6.87931Z" fill="var(--mw-icon-glyph-content-gray, #616162)"/>
<path d="M16.7905 9.56949C16.5017 8.18644 16.254 7.82034 15.7382 7.82034C15.2636 7.82034 14.5826 7.96271 13.3239 8.41017L13.0969 8.49152L13.1588 8.81695L13.5303 8.71525C13.9223 8.61356 14.1699 8.57288 14.335 8.57288C14.8509 8.57288 14.9953 8.73559 15.2842 9.95593L15.862 12.478L14.1699 14.8373C13.7366 15.4475 13.3446 15.8339 13.1176 15.8339C12.9938 15.8339 12.7874 15.7729 12.5811 15.6508C12.3128 15.5085 12.1065 15.4271 11.9208 15.4271C11.5081 15.4271 11.2192 15.7525 11.2192 16.1593C11.2192 16.6881 11.6112 17.0136 12.2509 17.0136C12.8906 17.0136 13.3033 16.8305 14.2112 15.6305L16.0271 13.2102L16.6255 15.6305C16.8731 16.6475 17.1826 17.0136 17.8429 17.0136C18.627 17.0136 19.1635 16.5254 20.3603 14.6949L20.0508 14.5119C19.8857 14.7153 19.8032 14.8373 19.6175 15.0814C19.1429 15.6915 18.9159 15.8949 18.6477 15.8949C18.3588 15.8949 18.1731 15.6305 18.0286 15.061L17.3683 12.3356C17.2445 11.8475 17.2032 11.5627 17.2032 11.4203C18.1112 9.85424 18.854 8.95932 19.2254 8.95932C19.7207 8.95932 19.9064 9.30508 20.2984 9.30508C20.7111 9.30508 21 9 21 8.57288C21 8.12542 20.6492 7.82034 20.154 7.82034C19.2461 7.82034 18.4826 8.55254 17.0382 10.7288L16.7905 9.56949Z" fill="var(--mw-icon-glyph-content-gray, #616162)"/>
<path fill-rule="evenodd" clip-rule="evenodd" d="M8.61262 8.73559L6.79677 17.278C6.32217 19.4746 5.66187 20.5729 4.79521 20.5729C4.5476 20.5729 4.38252 20.4305 4.38252 20.2475C4.38252 20.1403 4.42515 20.0611 4.46956 19.9786C4.51785 19.8889 4.56823 19.7953 4.56823 19.6576C4.56823 19.2305 4.25871 18.9051 3.78412 18.9051C3.35079 18.9051 3 19.2915 3 19.7593C3 20.4712 3.70158 21 4.63013 21C6.50789 21 7.89041 19.0068 8.75706 15.2441L10.2428 8.73559H12.4713L12.5951 8.08475H10.3872C10.411 7.95692 10.4351 7.83193 10.4594 7.70975C11.047 4.76018 11.795 3.44746 12.9046 3.44746C13.1935 3.44746 13.3586 3.54915 13.3586 3.71186C13.3586 3.78896 13.322 3.85162 13.2796 3.92417C13.2214 4.02387 13.1522 4.14223 13.1522 4.34237C13.1522 4.83051 13.5443 5.13559 13.9157 5.13559C14.3903 5.13559 14.7824 4.70847 14.7824 4.26102C14.7824 3.52881 14.0189 3 13.0078 3C11.7491 3 10.9031 3.69152 10.284 4.5661C9.60463 5.51985 9.25389 6.63557 8.80144 8.07486L8.79833 8.08475H6.87931L6.73487 8.73559H8.61262ZM13.7286 8.66608C14.0089 8.60021 14.1997 8.57288 14.335 8.57288C14.8509 8.57288 14.9953 8.73559 15.2842 9.95593L15.862 12.478L14.1699 14.8373C13.7366 15.4475 13.3446 15.8339 13.1176 15.8339C12.9938 15.8339 12.7874 15.7729 12.5811 15.6508C12.3128 15.5085 12.1065 15.4271 11.9208 15.4271C11.5081 15.4271 11.2192 15.7525 11.2192 16.1593C11.2192 16.6881 11.6112 17.0136 12.2509 17.0136C12.8906 17.0136 13.3033 16.8305 14.2112 15.6305L16.0271 13.2102L16.6255 15.6305C16.8731 16.6475 17.1826 17.0136 17.8429 17.0136C18.5803 17.0136 19.0987 16.5819 20.1532 15.0081C20.1832 14.9633 20.2137 14.9175 20.2446 14.8708C20.2731 14.8278 20.3019 14.784 20.3312 14.7394C20.3409 14.7247 20.3506 14.7098 20.3603 14.6949L20.0508 14.5119C20.0094 14.5629 19.9731 14.6089 19.9391 14.6529C19.8868 14.7207 19.8399 14.7839 19.7876 14.8543C19.7386 14.9204 19.6848 14.9929 19.6175 15.0814C19.1429 15.6915 18.9159 15.8949 18.6477 15.8949C18.3588 15.8949 18.1731 15.6305 18.0286 15.061L17.3683 12.3356C17.2445 11.8475 17.2032 11.5627 17.2032 11.4203C18.1112 9.85424 18.854 8.95932 19.2254 8.95932C19.4875 8.95932 19.6629 9.05614 19.828 9.14731C19.975 9.22844 20.1138 9.30508 20.2984 9.30508C20.7111 9.30508 21 9 21 8.57288C21 8.12542 20.6492 7.82034 20.154 7.82034C19.3091 7.82034 18.5892 8.45446 17.3293 10.2964C17.2353 10.4338 17.1384 10.5778 17.0382 10.7288L16.7905 9.56949C16.5017 8.18644 16.254 7.82034 15.7382 7.82034C15.3028 7.82034 14.6939 7.94013 13.6246 8.3053C13.5647 8.32577 13.5033 8.347 13.4405 8.36903L13.4359 8.37063C13.3991 8.38354 13.3618 8.39671 13.3239 8.41017L13.0969 8.49152L13.1588 8.81695L13.5303 8.71525C13.6009 8.69692 13.6669 8.68057 13.7286 8.66608Z" fill="var(--mw-icon-glyph-content-gray, #616162)"/>
</svg>
