<svg width="24" height="24" viewBox="0 0 24 24" fill="none" xmlns="http://www.w3.org/2000/svg">
<path d="M0.5 6.5C0.5 5.39543 1.39543 4.5 2.5 4.5H20.5C21.6046 4.5 22.5 5.39543 22.5 6.5V17.5C22.5 18.6046 21.6046 19.5 20.5 19.5H2.5C1.39543 19.5 0.5 18.6046 0.5 17.5V6.5Z" fill="var(--mw-icon-background-default-light-gray, #F5F5F5)"/>
<path d="M9.5 11.5V19.5" stroke="#E11B14" stroke-linecap="round"/>
<path d="M3.5 9.5V7.5H7.5M11.5 7.5V9.5M11.5 7.5H15.5M11.5 7.5H7.5M15.5 7.5V9.5M15.5 7.5H19.5V9.5M7.5 7.5V9.5" stroke="var(--mw-icon-glyph-content-gray, #616162)" stroke-linecap="round" stroke-linejoin="round"/>
<path d="M0.5 6.5C0.5 5.39543 1.39543 4.5 2.5 4.5H20.5C21.6046 4.5 22.5 5.39543 22.5 6.5V17.5C22.5 18.6046 21.6046 19.5 20.5 19.5H2.5C1.39543 19.5 0.5 18.6046 0.5 17.5V6.5Z" stroke="var(--mw-icon-border-default-gray, #616161)"/>
</svg>
