<svg width="24" height="24" viewBox="0 0 24 24" fill="none" xmlns="http://www.w3.org/2000/svg">
<path d="M0.5 2.5C0.5 1.39543 1.39543 0.5 2.5 0.5H16.5C17.6046 0.5 18.5 1.39543 18.5 2.5V16.5C18.5 17.6046 17.6046 18.5 16.5 18.5H2.5C1.39543 18.5 0.5 17.6046 0.5 16.5V2.5Z" fill="var(--mw-icon-background-default-white, #FFFFFF)" stroke="var(--mw-icon-border-default-gray, #616161)" stroke-linejoin="round"/>
<path d="M2 3C2 2.44772 2.44772 2 3 2H16C16.5523 2 17 2.44772 17 3V7H14V5H11V7H9V8H6V6H4V4H2V3Z" fill="#3E26A8"/>
<path d="M9 10H11V8H14V5H11V7H9V8H6V9H9V10Z" fill="#4852F4"/>
<path d="M6 8V6H4V8H6Z" fill="#4852F4"/>
<path d="M11 12H14V9H17V7H14V8H11V12Z" fill="#2E87F7"/>
<path d="M2 4H4V6H2V4Z" fill="#2E87F7"/>
<path d="M9 13H11V10H9V9H6V8H4V6H2V9H4V11H6V12H9V13Z" fill="#12B1D6"/>
<path d="M17 12H14V9H17V12Z" fill="#12B1D6"/>
<path d="M4 15H6V14H9V15H11V13H9V12H6V11H4V9H2V13H4V15Z" fill="#ABC739"/>
<path d="M13 13H11V11H13V12H17V15H13V13Z" fill="#ABC739"/>
<path d="M4 13V15H6V14H9V15H11V13H13V15H17V16C17 16.5523 16.5523 17 16 17H3C2.44772 17 2 16.5523 2 16V13H4Z" fill="#FEC338"/>
<rect x="10.5" y="10.5" width="13" height="13" rx="2" fill="white" stroke="var(--mw-icon-border-default-gray, #616161)"/>
<path d="M12.5 12.5H15.5M14.5 14.5H17.5M16.5 16.5H19.5M14.5 18.5H17.5M16.5 20.5H19.5" stroke="var(--mw-icon-glyph-content-gray, #616162)" stroke-linecap="round" stroke-linejoin="round"/>
</svg>
