<svg width="24" height="24" viewBox="0 0 24 24" fill="none" xmlns="http://www.w3.org/2000/svg">
<path d="M0.5 9.5C0.5 8.39543 1.39543 7.5 2.5 7.5H21.5C22.6046 7.5 23.5 8.39543 23.5 9.5V20.5C23.5 21.6046 22.6046 22.5 21.5 22.5H2.5C1.39543 22.5 0.5 21.6046 0.5 20.5V9.5Z" fill="var(--mw-sidebar-icon-fill, #ffffff)" stroke="var(--mw-sidebar-icon-stroke, #616161)"/>
<path d="M3.5 10.5L9.5 14.5L3.5 18.5" stroke="var(--mw-sidebar-icon-stroke, #616161)" stroke-linecap="round" stroke-linejoin="round"/>
<path d="M4.99998 3H7L4 7L1 3H2.99998V0H4.99998V3Z" fill="var(--mw-sidebar-icon-stroke, #616161)"/>
<path d="M21 3H23L20 7L17 3H19V0H21V3Z" fill="var(--mw-sidebar-icon-stroke, #616161)"/>
<path d="M13 3H15L12 7L9 3H11V0H13V3Z" fill="var(--mw-sidebar-icon-stroke, #616161)"/>
<path d="M11.5 11.5H16.5" stroke="var(--mw-sidebar-icon-stroke, #616161)" stroke-linecap="round"/>
<path d="M14.5 14.5H19.5" stroke="var(--mw-sidebar-icon-stroke, #616161)" stroke-linecap="round"/>
<path d="M11.5 17.5H16.5" stroke="var(--mw-sidebar-icon-stroke, #616161)" stroke-linecap="round"/>
</svg>
