<svg width="24" height="24" viewBox="0 0 24 24" fill="none" xmlns="http://www.w3.org/2000/svg">
<path d="M2.5 22.5C1.39543 22.5 0.5 21.6046 0.5 20.5V4.5V2.5C0.5 1.39543 1.39543 0.5 2.5 0.5H20.5C21.6046 0.5 22.5 1.39543 22.5 2.5V4.5V20.5C22.5 21.6046 21.6046 22.5 20.5 22.5H2.5Z" fill="var(--mw-sidebar-icon-fill, #ffffff)" stroke="var(--mw-sidebar-icon-stroke, #616161)"/>
<path d="M3.86178 4.22361L11.0528 18.6056C11.237 18.9741 11.7629 18.9741 11.9472 18.6056L19.1382 4.22361C19.3044 3.89116 19.0627 3.5 18.691 3.5L4.30899 3.5C3.9373 3.5 3.69556 3.89116 3.86178 4.22361Z" stroke="var(--mw-sidebar-icon-stroke, #616161)"/>
</svg>
