<svg width="24" height="24" viewBox="0 0 24 24" fill="none" xmlns="http://www.w3.org/2000/svg">
<path d="M7.5 2.50006L7.5 21.5001C7.5 22.0523 7.94772 22.5001 8.5 22.5001L22.5 22.5001C23.0523 22.5001 23.5 22.0523 23.5 21.5001L23.5 6.41427C23.5 6.14906 23.3946 5.8947 23.2071 5.70717L19.2929 1.79295C19.1054 1.60542 18.851 1.50006 18.5858 1.50006L8.5 1.50006C7.94771 1.50006 7.5 1.94778 7.5 2.50006Z" fill="var(--mw-icon-background-default-white, #FFFFFF)" stroke="var(--mw-icon-border-default-gray, #616161)"/>
<path d="M19.5483 13.9805V8.25H20.6733V15L19.6538 15.0044L19.5483 13.9805ZM17.0347 12.8027V12.46C17.0347 12.0703 17.0684 11.7319 17.1357 11.4448C17.2061 11.1548 17.3071 10.9146 17.439 10.7241C17.5737 10.5337 17.7378 10.3916 17.9312 10.2979C18.1245 10.2041 18.3442 10.1572 18.5903 10.1572C18.8218 10.1572 19.0239 10.2129 19.1968 10.3242C19.3696 10.4326 19.5146 10.5864 19.6318 10.7856C19.752 10.9849 19.8486 11.2222 19.9219 11.4976C19.9951 11.77 20.0464 12.0703 20.0757 12.3984V12.8906C20.0405 13.2041 19.9863 13.4956 19.9131 13.7651C19.8428 14.0347 19.7476 14.2676 19.6274 14.4639C19.5073 14.6602 19.3608 14.814 19.188 14.9253C19.0181 15.0337 18.8174 15.0879 18.5859 15.0879C18.3398 15.0879 18.1201 15.0396 17.9268 14.9429C17.7363 14.8433 17.5737 14.6982 17.439 14.5078C17.3071 14.3145 17.2061 14.0757 17.1357 13.7915C17.0684 13.5044 17.0347 13.1748 17.0347 12.8027ZM18.1641 12.46V12.8027C18.1641 13.0342 18.1772 13.2349 18.2036 13.4048C18.23 13.5718 18.271 13.7095 18.3267 13.8179C18.3853 13.9233 18.4614 14.0024 18.5552 14.0552C18.6519 14.105 18.769 14.1299 18.9067 14.1299C19.0825 14.1299 19.2246 14.0859 19.333 13.998C19.4443 13.9102 19.5293 13.79 19.5879 13.6377C19.6465 13.4824 19.6846 13.3066 19.7021 13.1104V12.1831C19.6934 12.0249 19.6699 11.8799 19.6318 11.748C19.5938 11.6162 19.5425 11.5034 19.478 11.4097C19.4136 11.313 19.3345 11.2383 19.2407 11.1855C19.147 11.1328 19.0371 11.1064 18.9111 11.1064C18.7734 11.1064 18.6562 11.1343 18.5596 11.1899C18.4658 11.2427 18.3896 11.3232 18.3311 11.4316C18.2754 11.54 18.2329 11.6807 18.2036 11.8535C18.1772 12.0234 18.1641 12.2256 18.1641 12.46Z" fill="var(--mw-icon-border-default-gray, #616161)"/>
<path d="M11.6294 11.2207V15H10.5V10.2451H11.5591L11.6294 11.2207ZM11.458 12.4556L11.1108 12.46C11.1079 12.1289 11.1387 11.8228 11.2031 11.5415C11.2676 11.2603 11.3657 11.0171 11.4976 10.812C11.6294 10.604 11.7949 10.4429 11.9941 10.3286C12.1963 10.2144 12.4321 10.1572 12.7017 10.1572C12.8774 10.1572 13.0386 10.1895 13.1851 10.2539C13.3345 10.3154 13.4634 10.4136 13.5718 10.5483C13.6831 10.6802 13.7681 10.853 13.8267 11.0669C13.8882 11.2778 13.9189 11.5312 13.9189 11.8271V15H12.7939V11.9546C12.7939 11.7349 12.7705 11.5649 12.7236 11.4448C12.6797 11.3218 12.6138 11.2354 12.5259 11.1855C12.4409 11.1328 12.3354 11.1064 12.2095 11.1064C12.0776 11.1064 11.9619 11.1416 11.8623 11.2119C11.7656 11.2793 11.688 11.376 11.6294 11.502C11.5708 11.625 11.5269 11.7686 11.4976 11.9326C11.4683 12.0938 11.4551 12.2681 11.458 12.4556ZM13.8311 12.2578L13.3652 12.3413C13.3623 12.0396 13.3916 11.7568 13.4531 11.4932C13.5176 11.2295 13.6143 10.998 13.7432 10.7988C13.8721 10.5967 14.0347 10.4399 14.231 10.3286C14.4272 10.2144 14.6558 10.1572 14.9165 10.1572C15.1128 10.1572 15.29 10.1895 15.4482 10.2539C15.6094 10.3184 15.7471 10.4224 15.8613 10.5659C15.9756 10.7065 16.062 10.8911 16.1206 11.1196C16.1821 11.3452 16.2129 11.6206 16.2129 11.9458V15H15.0835V11.9458C15.0835 11.7202 15.0601 11.5474 15.0132 11.4272C14.9663 11.3042 14.8989 11.2207 14.811 11.1768C14.7261 11.1299 14.6235 11.1064 14.5034 11.1064C14.3921 11.1064 14.2939 11.1372 14.209 11.1987C14.127 11.2573 14.0566 11.3394 13.998 11.4448C13.9424 11.5503 13.8999 11.6719 13.8706 11.8096C13.8442 11.9473 13.8311 12.0967 13.8311 12.2578Z" fill="var(--mw-icon-border-default-gray, #616161)"/>
</svg>
