<svg width="24" height="25" viewBox="0 0 24 25" fill="none" xmlns="http://www.w3.org/2000/svg">
<path d="M0.5 9.7727C0.5 8.66814 1.39543 7.77271 2.5 7.77271H21.5C22.6046 7.77271 23.5 8.66814 23.5 9.77271V20.7727C23.5 21.8773 22.6046 22.7727 21.5 22.7727H2.5C1.39543 22.7727 0.5 21.8773 0.5 20.7727V9.7727Z" fill="var(--mw-icon-background-default-selection, #B4DEFF)" stroke="var(--mw-icon-border-default-blue, #1656A7)"/>
<path d="M3.5 10.7727L9.5 14.7727L3.5 18.7727" stroke="var(--mw-icon-glyph-content-blue, #1656A8)" stroke-linecap="round" stroke-linejoin="round"/>
<path d="M4.99998 3.27271H7L4 7.27271L1 3.27271H2.99998V0.272705H4.99998V3.27271Z" fill="var(--mw-icon-glyph-content-blue, #1656A8)"/>
<path d="M21 3.27271H23L20 7.27271L17 3.27271H19V0.272705H21V3.27271Z" fill="var(--mw-icon-glyph-content-blue, #1656A8)"/>
<path d="M13 3.27271H15L12 7.27271L9 3.27271H11V0.272705H13V3.27271Z" fill="var(--mw-icon-glyph-content-blue, #1656A8)"/>
<path d="M11.5 11.7727H16.5" stroke="var(--mw-icon-glyph-content-blue, #1656A8)" stroke-linecap="round"/>
<path d="M14.5 14.7727H19.5" stroke="var(--mw-icon-glyph-content-blue, #1656A8)" stroke-linecap="round"/>
<path d="M11.5 17.7727H16.5" stroke="var(--mw-icon-glyph-content-blue, #1656A8)" stroke-linecap="round"/>
</svg>
