<svg width="24" height="24" viewBox="0 0 24 24" fill="none" xmlns="http://www.w3.org/2000/svg">
<path d="M0.5 2.5C0.5 1.39543 1.39543 0.5 2.5 0.5H16.5C17.6046 0.5 18.5 1.39543 18.5 2.5V16.5C18.5 17.6046 17.6046 18.5 16.5 18.5H2.5C1.39543 18.5 0.5 17.6046 0.5 16.5V2.5Z" fill="var(--mw-icon-background-default-white, #FFFFFF)" stroke="var(--mw-icon-border-default-gray, #616161)" stroke-linejoin="round"/>
<path d="M3 2C2.44772 2 2 2.44772 2 3V16C2 16.5523 2.44772 17 3 17H16C16.5523 17 17 16.5523 17 16V3C17 2.44772 16.5523 2 16 2H3Z" fill="#3E26A8"/>
<path d="M8 3H11V5H8V3Z" fill="#4852F4"/>
<path d="M8 6H6V7H4V8H6V7H8V6Z" fill="#4852F4"/>
<path d="M4 11V12H6V13H8V15H11V13H13V12H15V11H11V13H8V11H4Z" fill="#4852F4"/>
<path d="M15 7H13V6H11V7H13V8H15V7Z" fill="#4852F4"/>
<path d="M8 5V7H6V8H2V9H6V8H8V7H9V6H10V7H11V8H13V9H17V8H13V7H11V5H8Z" fill="#2E87F7"/>
<path d="M9 11H8V10H2V11H8V13H11V11H17V10H11V11H10V12H9V11Z" fill="#2E87F7"/>
<path d="M9 6H10V7H11V8H13V9H17V10H11V11H10V12H9V11H8V10H2V9H6V8H8V7H9V6Z" fill="#12B1D6"/>
<rect x="10.5" y="10.5" width="13" height="13" rx="2" fill="white" stroke="var(--mw-icon-border-default-gray, #616161)"/>
<path d="M12.5 12.5H15.5M14.5 14.5H17.5M16.5 16.5H19.5M14.5 18.5H17.5M16.5 20.5H19.5" stroke="var(--mw-icon-glyph-content-gray, #616162)" stroke-linecap="round" stroke-linejoin="round"/>
</svg>
