<svg width="24" height="24" viewBox="0 0 24 24" fill="none" xmlns="http://www.w3.org/2000/svg">
<path d="M0.5 2.5C0.5 1.39543 1.39543 0.5 2.5 0.5H16.5C17.6046 0.5 18.5 1.39543 18.5 2.5V16.5C18.5 17.6046 17.6046 18.5 16.5 18.5H2.5C1.39543 18.5 0.5 17.6046 0.5 16.5V2.5Z" fill="var(--mw-icon-background-default-white, #FFFFFF)"/>
<path d="M0.5 12.4862C2.5 12.5 5.5 3.5 5.5 3.5C5.5 3.5 7.5 12.5 10.5 12.5C13.5 12.5 14.5 5.5 14.5 5.5C14.5 5.5 15 12.5 18.5 12.4862" stroke="var(--mw-icon-glyph-content-light-blue, #278CDD)" stroke-miterlimit="1" stroke-linecap="round" stroke-linejoin="round"/>
<path d="M0.5 2.5C0.5 1.39543 1.39543 0.5 2.5 0.5H16.5C17.6046 0.5 18.5 1.39543 18.5 2.5V16.5C18.5 17.6046 17.6046 18.5 16.5 18.5H2.5C1.39543 18.5 0.5 17.6046 0.5 16.5V2.5Z" stroke="var(--mw-icon-border-default-gray, #616161)" stroke-linejoin="round"/>
<rect x="10.5" y="10.5" width="13" height="13" rx="2" fill="white" stroke="var(--mw-icon-border-default-gray, #616161)"/>
<path d="M12.5 12.5H15.5M14.5 14.5H17.5M16.5 16.5H19.5M14.5 18.5H17.5M16.5 20.5H19.5" stroke="var(--mw-icon-glyph-content-gray, #616162)" stroke-linecap="round" stroke-linejoin="round"/>
</svg>
