<svg width="24" height="24" viewBox="0 0 24 24" fill="none" xmlns="http://www.w3.org/2000/svg">
<path d="M0.5 18.5V4.5C0.5 2.29086 2.29086 0.5 4.5 0.5H18.5C20.7091 0.5 22.5 2.29086 22.5 4.5V18.5C22.5 20.7091 20.7091 22.5 18.5 22.5H4.5C2.29086 22.5 0.5 20.7091 0.5 18.5Z" fill="var(--mw-icon-background-default-white, white)"/>
<path d="M7.49991 8.99976L7.82531 9.37938L7.49991 8.99976ZM20.4999 7.49975L20.2225 7.08373L20.4999 7.49975ZM12.6464 13.3533C12.8416 13.5486 13.1582 13.5486 13.3535 13.3533C13.5487 13.158 13.5487 12.8415 13.3535 12.6462L12.6464 13.3533ZM11.5001 16.4999L11.7237 16.9471L11.5001 16.4999ZM14 2.50005L13.584 2.2227V2.2227L14 2.50005ZM5.85347 22.8533C6.72733 21.9794 7.04527 20.7887 7.12681 19.5433C7.20819 18.3004 7.05807 16.9178 6.92184 15.6022C6.78316 14.263 6.65873 12.9922 6.75686 11.8891C6.85451 10.7914 7.16603 9.94448 7.82531 9.37938L7.17452 8.62013C6.23324 9.42693 5.86949 10.5785 5.76079 11.8005C5.65256 13.0171 5.7907 14.3874 5.92716 15.7052C6.06606 17.0466 6.20365 18.337 6.12895 19.4779C6.05442 20.6163 5.7725 21.5201 5.14636 22.1462L5.85347 22.8533ZM7.82531 9.37938C9.37385 8.05206 11.3462 8.29818 13.6941 8.64888C15.949 8.98569 18.5304 9.41364 20.7772 7.91578L20.2225 7.08373C18.3509 8.33149 16.1824 8.00945 13.8418 7.65985C11.5944 7.32415 9.12597 6.94745 7.17452 8.62013L7.82531 9.37938ZM20.7772 7.91578C21.6015 7.36627 22.1474 6.6822 22.4864 6.13976C22.6564 5.86778 22.7762 5.62861 22.8543 5.45494C22.8934 5.368 22.9223 5.29714 22.9419 5.24637C22.9517 5.22098 22.9592 5.20058 22.9646 5.18567C22.9672 5.17822 22.9694 5.17213 22.971 5.16748C22.9718 5.16515 22.9725 5.16319 22.973 5.16158C22.9733 5.16078 22.9735 5.16007 22.9737 5.15945C22.9738 5.15915 22.9739 5.15886 22.974 5.1586C22.9741 5.15847 22.9741 5.15829 22.9741 5.15822C22.9742 5.15805 22.9743 5.15788 22.4999 4.99976C22.0256 4.84163 22.0256 4.84148 22.0257 4.84133C22.0257 4.84128 22.0257 4.84114 22.0258 4.84105C22.0258 4.84088 22.0259 4.84073 22.0259 4.8406C22.026 4.84035 22.0261 4.84019 22.0261 4.84011C22.0261 4.83996 22.0261 4.84016 22.0259 4.8407C22.0255 4.84178 22.0246 4.84424 22.0233 4.84802C22.0206 4.85558 22.0159 4.86838 22.0091 4.88595C21.9955 4.92113 21.9736 4.97526 21.9424 5.04457C21.8799 5.1834 21.7809 5.38173 21.6384 5.60975C21.3524 6.06731 20.8983 6.63324 20.2225 7.08373L20.7772 7.91578ZM6.14636 11.3533L11.6464 16.8533L12.3535 16.1462L6.85347 10.6462L6.14636 11.3533ZM12.6464 4.85331L16.6464 8.85331L17.3535 8.1462L13.3535 4.1462L12.6464 4.85331ZM14.1464 2.35331L19.6464 7.85331L20.3535 7.1462L14.8535 1.6462L14.1464 2.35331ZM17.1464 0.853309L22.1464 5.85331L22.8535 5.1462L17.8535 0.146202L17.1464 0.853309ZM3.14636 16.8533L6.14636 19.8533L6.85347 19.1462L3.85347 16.1462L3.14636 16.8533ZM11.7237 16.9471C12.905 16.3565 13.4567 15.3264 13.6832 14.1417C13.9051 12.9813 13.8274 11.6149 13.7189 10.2546C13.6082 8.86799 13.4641 7.47416 13.5132 6.16244C13.5622 4.85439 13.8032 3.69657 14.416 2.77741L13.584 2.2227C12.8239 3.36274 12.566 4.7345 12.5139 6.125C12.462 7.51184 12.6144 8.98555 12.722 10.3341C12.8317 11.709 12.8939 12.9453 12.701 13.9539C12.5128 14.9382 12.0953 15.6433 11.2765 16.0527L11.7237 16.9471ZM14.416 2.77741C14.8858 2.0727 15.3214 1.65307 15.8944 1.39252C16.484 1.12449 17.2731 0.999769 18.5 0.999769V-0.000230581C17.2268 -0.000230581 16.266 0.125114 15.4806 0.48219C14.6787 0.846746 14.1143 1.42727 13.584 2.2227L14.416 2.77741ZM13.3535 12.6462L8.85346 8.1462L8.14636 8.85331L12.6464 13.3533L13.3535 12.6462ZM1.00459 17.3009C1.55151 17.0597 2.26231 16.9879 3.1213 17.0211C3.9779 17.0541 4.91636 17.1871 5.91161 17.3137C6.89317 17.4386 7.92193 17.5561 8.90498 17.5409C9.88856 17.5257 10.8621 17.3779 11.7237 16.9471L11.2765 16.0527C10.6001 16.3909 9.7931 16.527 8.88954 16.541C7.98545 16.555 7.02051 16.4468 6.03785 16.3217C5.06886 16.1984 4.07254 16.057 3.15985 16.0218C2.24954 15.9867 1.35653 16.0528 0.601122 16.3859L1.00459 17.3009ZM0.449303 17.6563L5.14636 22.3533L5.85347 21.6462L1.15641 16.9491L0.449303 17.6563Z" fill="#D1048B"/>
<path d="M0.5 18.5V4.5C0.5 2.29086 2.29086 0.5 4.5 0.5H18.5C20.7091 0.5 22.5 2.29086 22.5 4.5V18.5C22.5 20.7091 20.7091 22.5 18.5 22.5H4.5C2.29086 22.5 0.5 20.7091 0.5 18.5Z" stroke="#6E0149" stroke-linecap="round"/>

</svg>
