<svg width="24" height="24" viewBox="0 0 24 24" fill="none" xmlns="http://www.w3.org/2000/svg">
<path d="M0.805556 11.5H22.1944M11.5 0.805556L11.5 22.1944M17.5 11.5C17.5 17.5751 14.5376 22.5 11.5 22.5C8.46243 22.5 5.5 17.5751 5.5 11.5C5.5 5.42487 8.46243 0.5 11.5 0.5C14.5376 0.5 17.5 5.42487 17.5 11.5ZM11.5 17.5C5.42487 17.5 0.5 14.5376 0.5 11.5C0.5 8.46243 5.42487 5.5 11.5 5.5C17.5751 5.5 22.5 8.46243 22.5 11.5C22.5 14.5376 17.5751 17.5 11.5 17.5Z" stroke="var(--mw-icon-object-primary, #616160)"/>
<rect x="0.5" y="0.5" width="22" height="22" rx="11" stroke="var(--mw-icon-object-primary, #616160)"/>
</svg>
