<svg width="24" height="24" viewBox="0 0 24 24" fill="none" xmlns="http://www.w3.org/2000/svg">
<rect x="0.5" y="0.5" width="22" height="22" rx="2" fill="var(--mw-icon-background-default-white, #FFFFFF)"/>
<path d="M11.5 22V0" stroke="var(--mw-icon-glyph-content-gray, #616162)"/>
<circle cx="15" cy="19" r="1" fill="#0072BD"/>
<circle cx="7" cy="19" r="1" fill="#D95319"/>
<circle cx="10" cy="19" r="1" fill="#D95319"/>
<circle cx="11.9286" cy="19.0666" r="1" transform="rotate(3.95799 11.9286 19.0666)" fill="#0072BD"/>
<path d="M12 20C12 20.5523 11.5523 21 11 21C10.4477 21 10 20.5523 10 20C10 19.4477 10.4477 19 11 19C11.5523 19 12 19.4477 12 20Z" fill="#0072BD"/>
<path d="M12 20C12 20.5523 11.5523 21 11 21C10.4477 21 10 20.5523 10 20C10 19.4477 10.4477 19 11 19C11.5523 19 12 19.4477 12 20Z" fill="#0072BD"/>
<circle cx="11" cy="18" r="1" fill="#0072BD"/>
<circle cx="8" cy="13" r="1" fill="#0072BD"/>
<circle cx="6" cy="13" r="1" fill="#0072BD"/>
<circle cx="3" cy="13" r="1" fill="#0072BD"/>
<circle cx="8" cy="12.5" r="1" fill="#0072BD"/>
<circle cx="8.5" cy="12" r="1" fill="#0072BD"/>
<circle cx="7" cy="12.5" r="1" fill="#0072BD"/>
<circle cx="10" cy="13" r="1" fill="#0072BD"/>
<circle cx="9" cy="14" r="1" fill="#0072BD"/>
<circle cx="9" cy="13" r="1" fill="#0072BD"/>
<circle cx="7.5" cy="14" r="1" fill="#0072BD"/>
<circle cx="14" cy="12.5" r="1" fill="#D95319"/>
<circle cx="16.5" cy="12.5" r="1" fill="#D95319"/>
<circle cx="15" cy="12" r="1" fill="#D95319"/>
<circle cx="14" cy="12" r="1" fill="#D95319"/>
<circle cx="15" cy="13" r="1" fill="#D95319"/>
<circle cx="13" cy="13" r="1" fill="#D95319"/>
<circle cx="14.5" cy="14" r="1" fill="#D95319"/>
<circle cx="16" cy="14" r="1" fill="#D95319"/>
<circle cx="17" cy="13" r="1" fill="#D95319"/>
<circle cx="20" cy="13" r="1" fill="#D95319"/>
<circle cx="19" cy="6.5" r="1" fill="#0072BD"/>
<circle cx="13" cy="6" r="1" fill="#0072BD"/>
<circle cx="18" cy="4" r="1" fill="#0072BD"/>
<circle cx="20" cy="5" r="1" fill="#0072BD"/>
<circle cx="18" cy="5.5" r="1" fill="#0072BD"/>
<circle cx="15" cy="3.5" r="1" fill="#0072BD"/>
<circle cx="16.5" cy="4.5" r="1" fill="#0072BD"/>
<circle cx="16.5" cy="3.5" r="1" fill="#0072BD"/>
<circle cx="16" cy="5" r="1" fill="#0072BD"/>
<circle cx="18" cy="6" r="1" fill="#0072BD"/>
<circle cx="7" cy="5" r="1" fill="#D95319"/>
<circle cx="8" cy="5" r="1" fill="#D95319"/>
<circle cx="9" cy="5" r="1" fill="#D95319"/>
<circle cx="11.5" cy="4.5" r="1" fill="#D95319"/>
<circle cx="12.4938" cy="4.60524" r="1" transform="rotate(6.39999 12.4938 4.60524)" fill="#D95319"/>
<circle cx="10" cy="5" r="1" fill="#D95319"/>
<circle cx="6" cy="5" r="1" fill="#D95319"/>
<circle cx="11" cy="6" r="1" fill="#D95319"/>
<circle cx="17" cy="7.5" r="0.5" fill="#0072BD" stroke="#0072BD"/>
<circle cx="20.5" cy="5.5" r="0.5" fill="#0072BD" stroke="#0072BD"/>
<circle cx="12" cy="6" r="1" fill="#D95319"/>
<circle cx="12.5" cy="6.5" r="0.5" fill="#0072BD" stroke="#D95319"/>
<circle cx="12" cy="6.5" r="1" fill="#D95319"/>
<circle cx="12" cy="6.5" r="1" fill="#D95319"/>
<circle cx="13" cy="7" r="1" fill="#D95319"/>
<circle cx="16" cy="4.5" r="0.5" fill="#0072BD" stroke="#0072BD"/>
<circle cx="16.5" cy="5.5" r="0.5" fill="#0072BD" stroke="#0072BD"/>
<circle cx="15.5" cy="6" r="0.5" fill="#0072BD" stroke="#0072BD"/>
<circle cx="14.5" cy="6" r="0.5" fill="#0072BD" stroke="#0072BD"/>
<circle cx="15.5" cy="6.5" r="0.5" fill="#0072BD" stroke="#0072BD"/>
<circle cx="12.5" cy="5.5" r="0.5" fill="#0072BD" stroke="#0072BD"/>
<circle cx="20" cy="6" r="1" fill="#0072BD"/>
<circle cx="19" cy="7" r="1" fill="#0072BD"/>
<circle cx="14" cy="6.5" r="1" fill="#0072BD"/>
<circle cx="14" cy="6.5" r="1" fill="#0072BD"/>
<circle cx="15" cy="7" r="1" fill="#0072BD"/>
<path d="M15.5 5C15.5 5.55228 15.0523 6 14.5 6C13.9477 6 13.5 5.55228 13.5 5C13.5 4.44772 13.9477 4 14.5 4C15.0523 4 15.5 4.44772 15.5 5Z" fill="#0072BD"/>
<path d="M15.5 5C15.5 5.55228 15.0523 6 14.5 6C13.9477 6 13.5 5.55228 13.5 5C13.5 4.44772 13.9477 4 14.5 4C15.0523 4 15.5 4.44772 15.5 5Z" fill="#0072BD"/>
<path d="M16 6C16 6.55228 15.5523 7 15 7C14.4477 7 14 6.55228 14 6C14 5.44772 14.4477 5 15 5C15.5523 5 16 5.44772 16 6Z" fill="#0072BD"/>
<path d="M16 6C16 6.55228 15.5523 7 15 7C14.4477 7 14 6.55228 14 6C14 5.44772 14.4477 5 15 5C15.5523 5 16 5.44772 16 6Z" fill="#0072BD"/>
<circle cx="19" cy="4.5" r="1" fill="#0072BD"/>
<circle cx="1" cy="1" r="1" transform="matrix(1 0 0 -1 15 7.5)" fill="#0072BD"/>
<circle cx="1" cy="1" r="1" transform="matrix(1 0 0 -1 16 8)" fill="#0072BD"/>
<circle cx="1" cy="1" r="1" transform="matrix(1 0 0 -1 17 8)" fill="#0072BD"/>
<circle cx="1" cy="1" r="1" transform="matrix(1 0 0 -1 16 4)" fill="#0072BD"/>
<circle cx="14" cy="4" r="1" fill="#0072BD"/>
<circle cx="16" cy="5" r="1" fill="#0072BD"/>
<circle cx="13.5" cy="5" r="1" fill="#0072BD"/>
<circle cx="3" cy="5" r="1" fill="#D95319"/>
<rect x="0.5" y="0.5" width="22" height="22" rx="2" stroke="var(--mw-icon-border-default-gray, #616161)"/>
</svg>
