<svg width="24" height="24" viewBox="0 0 24 24" fill="none" xmlns="http://www.w3.org/2000/svg">
<path d="M21.5 0.5H9.5C8.39543 0.5 7.5 1.39543 7.5 2.5V21.5C7.5 22.6046 8.39543 23.5 9.5 23.5H21.5C22.6046 23.5 23.5 22.6046 23.5 21.5V2.5C23.5 1.39543 22.6046 0.5 21.5 0.5Z" fill="var(--mw-icon-background-default-white, white)" stroke="var(--mw-icon-border-default-gray, #616161)" stroke-linecap="round"/>
<path d="M8 12H23V6H8V12Z" fill="var(--mw-icon-background-default-selection, #B4DEFF)"/>
<path d="M16.5 7.5H20.5" stroke="var(--mw-icon-glyph-content-dark-blue, #104280)" stroke-linecap="round"/>
<path d="M16.5 10.5H20.5" stroke="var(--mw-icon-glyph-content-dark-blue, #104280)" stroke-linecap="round"/>
<path d="M10.5 3.5H14.5" stroke="var(--mw-icon-glyph-content-gray, #616162)" stroke-linecap="round"/>
<path d="M10.5 14.5H14.5" stroke="var(--mw-icon-glyph-content-gray, #616162)" stroke-linecap="round"/>
<path d="M10.5 20.5H14.5" stroke="var(--mw-icon-glyph-content-gray, #616162)" stroke-linecap="round"/>
<path d="M13.5 17.5H17.5" stroke="var(--mw-icon-glyph-content-gray, #616162)" stroke-linecap="round"/>
<path d="M0.5 6.5L0.5 11.5H4.5L4.5 15.5L13.5 9L4.5 2.5L4.5 6.5H0.5Z" fill="var(--mw-icon-background-default-selection, #B4DEFF)" stroke="var(--mw-icon-border-default-blue, #1656A7)"/>

</svg>
