<svg width="24" height="24" viewBox="0 0 24 24" fill="none" xmlns="http://www.w3.org/2000/svg">
<path d="M18.1321 0.5H7.5C6.39543 0.5 5.5 1.39543 5.5 2.5V21.5C5.5 22.6046 6.39543 23.5 7.5 23.5H21.5C22.6046 23.5 23.5 22.6046 23.5 21.5V6.26413C23.5 5.77206 23.3186 5.29725 22.9905 4.93054L19.6226 1.16641C19.2432 0.742364 18.7011 0.5 18.1321 0.5Z" fill="var(--mw-icon-background-default-white, #FFFFFF)" stroke="var(--mw-icon-border-default-gray, #616161)" stroke-linecap="round"/>
<path d="M11.7193 13.5147C11.5394 13.6886 9.55608 14.4873 8.5 14.8891C9.1609 15.3501 10.7991 16.3659 11.8522 17.0623C13.0173 17.8328 13.6714 19.6109 14.2028 20.5C14.5094 20.421 14.9182 20.1641 15.3475 19.769C15.7767 19.3739 16.7374 18.2082 17.3097 17.4179C17.8821 16.6277 18.9245 16.1535 19.5991 16.1535C20.1387 16.1535 21.0912 16.7067 21.5 16.9833C21.0026 15.5608 19.9302 12.4352 19.6195 11.3131C19.2311 9.91032 18.2806 7.5 17.5346 7.5C16.7476 7.5 15.7563 9.21885 15.4906 9.69301C15.2248 10.1672 14.3255 11.1748 13.8758 11.4711C13.4261 11.7675 13.007 12.0527 12.7311 12.4194C12.4997 12.7271 11.9441 13.2974 11.7193 13.5147Z" stroke="var(--mw-icon-glyph-content-dark-gray, #333333)" stroke-linejoin="round"/>
<path d="M10.7676 16.0955C10.55 16.2656 10.5114 16.5798 10.6815 16.7974C10.8515 17.015 11.1657 17.0535 11.3833 16.8835L10.7676 16.0955ZM13.5078 14.3162L13.1099 14.0135L13.5078 14.3162ZM15.93 10.0178L15.4351 9.94595L15.93 10.0178ZM11.3833 16.8835C11.7088 16.6291 12.2215 16.2147 12.7061 15.7945C13.1768 15.3862 13.665 14.9355 13.9058 14.619L13.1099 14.0135C12.9419 14.2344 12.5341 14.62 12.0509 15.039C11.5817 15.4459 11.0825 15.8494 10.7676 16.0955L11.3833 16.8835ZM13.9058 14.619C14.1657 14.2773 14.7352 13.5076 15.2654 12.6577C15.5304 12.2329 15.7898 11.7811 15.9965 11.3481C16.1997 10.9223 16.3677 10.4827 16.4248 10.0896L15.4351 9.94595C15.3997 10.1902 15.2825 10.5225 15.0941 10.9173C14.9091 11.3047 14.6704 11.722 14.4169 12.1285C13.91 12.9412 13.361 13.6834 13.1099 14.0135L13.9058 14.619ZM16.4248 10.0896C16.5939 8.92475 16.8858 8.43718 17.1694 8.22537L16.571 7.42417C15.9552 7.88409 15.6134 8.71773 15.4351 9.94595L16.4248 10.0896ZM11.4565 13.832L12.8464 14.8396L13.4334 14.03L12.0434 13.0224L11.4565 13.832Z" fill="var(--mw-icon-glyph-content-dark-gray, #333333)"/>
<path fill-rule="evenodd" clip-rule="evenodd" d="M11.0022 15.9953C11.309 15.7511 11.7116 15.4214 12.0945 15.0894C12.2898 14.9201 12.4737 14.7554 12.635 14.6042L11.7827 13.9864C11.7807 13.9875 11.7786 13.9885 11.7767 13.9896C11.6928 14.0344 11.5882 14.0853 11.4711 14.1396C11.2359 14.2486 10.9323 14.3798 10.6051 14.5165C10.2294 14.6734 9.81783 14.8396 9.43481 14.991C9.74543 15.1925 10.1046 15.4218 10.4748 15.6581C10.6495 15.7697 10.8266 15.8828 11.0022 15.9953ZM12.4452 13.3962L13.2301 13.9651C13.5039 13.6015 14.0063 12.9127 14.4733 12.1639C14.7276 11.7561 14.9677 11.3366 15.1541 10.9461C15.1876 10.876 15.2189 10.8077 15.248 10.7413C15.1905 10.8082 15.1321 10.8745 15.0737 10.9392C14.7571 11.29 14.3886 11.6522 14.1141 11.8331C13.6531 12.1369 13.3005 12.3834 13.0773 12.6801C12.931 12.8746 12.6772 13.1532 12.4452 13.3962Z" fill="#068CFC"/>
<path fill-rule="evenodd" clip-rule="evenodd" d="M16.9653 8.32595C16.7211 8.60678 16.4979 9.1226 16.3589 10.08C16.3033 10.4631 16.1387 10.8956 15.9365 11.3193C15.7313 11.7493 15.4732 12.1987 15.209 12.6223C14.6804 13.4698 14.1122 14.2377 13.8529 14.5785C13.6169 14.8887 13.1341 15.3351 12.6626 15.744C12.3584 16.0078 12.0431 16.2693 11.7702 16.4902C11.8812 16.5625 11.9886 16.6329 12.0914 16.7009C12.7612 17.1439 13.2573 17.8547 13.6407 18.5204C13.835 18.8576 14.0078 19.197 14.1617 19.4999L14.1691 19.5146C14.2493 19.6724 14.3232 19.818 14.3929 19.9501C14.5774 19.8451 14.8035 19.6808 15.0541 19.4502C15.4502 19.0855 16.3903 17.9489 16.9589 17.1637C17.2921 16.7036 17.7525 16.3469 18.2157 16.1052C18.6748 15.8656 19.1732 15.7201 19.5992 15.7201C19.9521 15.7201 20.3694 15.8778 20.7142 16.0396C20.1763 14.478 19.4512 12.3287 19.202 11.4287C19.0133 10.7469 18.6872 9.81954 18.3218 9.07046C18.1382 8.69393 17.9539 8.38192 17.7834 8.1707C17.6982 8.06514 17.6274 7.99861 17.5742 7.9614C17.5488 7.94363 17.533 7.93636 17.526 7.93365C17.4746 7.93734 17.365 7.9735 17.1937 8.11249C17.1718 8.13028 17.1497 8.14908 17.1274 8.16883L17.1297 8.17188C17.1148 8.183 17.0999 8.1948 17.0851 8.2073C17.0455 8.24415 17.0055 8.28382 16.9653 8.32595Z" fill="#F57729"/>
<path d="M0.5 5.5V10.5H4.5V14.5L13.5 8L4.5 1.5V5.5H0.5Z" fill="var(--mw-icon-background-default-selection, #B4DEFF)"/>
<path d="M0.5 5.5V5H0V5.5H0.5ZM0.5 10.5H0V11H0.5V10.5ZM4.5 10.5H5V10H4.5V10.5ZM4.5 14.5H4V15.4779L4.79275 14.9053L4.5 14.5ZM13.5 8L13.7927 8.40534L14.354 8L13.7927 7.59466L13.5 8ZM4.5 1.5L4.79275 1.09466L4 0.522122V1.5H4.5ZM4.5 5.5V6H5V5.5H4.5ZM0 5.5V10.5H1V5.5H0ZM0.5 11H4.5V10H0.5V11ZM4 10.5V14.5H5V10.5H4ZM4.79275 14.9053L13.7927 8.40534L13.2073 7.59466L4.20725 14.0947L4.79275 14.9053ZM13.7927 7.59466L4.79275 1.09466L4.20725 1.90534L13.2073 8.40534L13.7927 7.59466ZM4 1.5V5.5H5V1.5H4ZM4.5 5H0.5V6H4.5V5Z" fill="var(--mw-icon-border-default-blue, #1656A7)"/>
</svg>
