<svg width="24" height="24" viewBox="0 0 24 24" fill="none" xmlns="http://www.w3.org/2000/svg">
<path d="M5.5 5C5.5 4.72386 5.72386 4.5 6 4.5H12.0858C12.351 4.5 12.6054 4.60536 12.7929 4.79289L14.2071 6.20711C14.3946 6.39464 14.649 6.5 14.9142 6.5H23C23.2761 6.5 23.5 6.72386 23.5 7V10.9026V18C23.5 18.2761 23.2761 18.5 23 18.5H6C5.72386 18.5 5.5 18.2761 5.5 18V5Z" fill="var(--mw-icon-background-light-yellow, #FFF5BC)" stroke="#674C06"/>
<path d="M0.5 13.5V18.5H4.5V22.5L13.5 16L4.5 9.5V13.5H0.5Z" fill="var(--mw-icon-background-default-selection, #B4DEFF)"/>
<path d="M0.5 13.5V13H0V13.5H0.5ZM0.5 18.5H0V19H0.5V18.5ZM4.5 18.5H5V18H4.5V18.5ZM4.5 22.5H4V23.4779L4.79275 22.9053L4.5 22.5ZM13.5 16L13.7927 16.4053L14.354 16L13.7927 15.5947L13.5 16ZM4.5 9.5L4.79275 9.09466L4 8.52212V9.5H4.5ZM4.5 13.5V14H5V13.5H4.5ZM0 13.5V18.5H1V13.5H0ZM0.5 19H4.5V18H0.5V19ZM4 18.5V22.5H5V18.5H4ZM4.79275 22.9053L13.7927 16.4053L13.2073 15.5947L4.20725 22.0947L4.79275 22.9053ZM13.7927 15.5947L4.79275 9.09466L4.20725 9.90534L13.2073 16.4053L13.7927 15.5947ZM4 9.5V13.5H5V9.5H4ZM4.5 13H0.5V14H4.5V13Z" fill="var(--mw-icon-border-default-blue, #1656A7)"/>
</svg>
