<svg width="24" height="24" viewBox="0 0 24 24" fill="none" xmlns="http://www.w3.org/2000/svg">
<path d="M21.5 0.5H9.5C8.39543 0.5 7.5 1.39543 7.5 2.5V21.5C7.5 22.6046 8.39543 23.5 9.5 23.5H21.5C22.6046 23.5 23.5 22.6046 23.5 21.5V2.5C23.5 1.39543 22.6046 0.5 21.5 0.5Z" fill="var(--mw-icon-background-default-white, #FFFFFF)" stroke="var(--mw-icon-border-default-gray, #616161)" stroke-linecap="round"/>
<path d="M16.5 6.5H20.5M16.5 9.5H20.5M10.5 3.5H14.5M13.5 12.5L17.5 12.5M13.5 18.5L17.5 18.5M10.5 15.5L14.5 15.5" stroke="var(--mw-icon-glyph-content-gray, #616162)" stroke-linecap="round"/>
<path d="M0.5 5.5L0.5 10.5H4.5L4.5 14.5L13.5 8L4.5 1.5L4.5 5.5H0.5Z" fill="var(--mw-icon-background-default-action, #CBFFBE)" stroke="var(--mw-icon-border-default-green, #008013)"/>
</svg>
