<svg width="24" height="24" viewBox="0 0 24 24" fill="none" xmlns="http://www.w3.org/2000/svg">
<path d="M19.0858 0.5H8.5C7.94772 0.5 7.5 0.947715 7.5 1.5V22.5C7.5 23.0523 7.94772 23.5 8.5 23.5H22.5C23.0523 23.5 23.5 23.0523 23.5 22.5V4.91421C23.5 4.649 23.3946 4.39464 23.2071 4.20711L19.7929 0.792893C19.6054 0.605357 19.351 0.5 19.0858 0.5Z" fill="var(--mw-icon-background-default-white, white)" stroke="var(--mw-icon-border-default-gray, #616161)" stroke-linecap="round"/>
<path d="M10.5 3.5H17.5" stroke="var(--mw-icon-glyph-content-red, #902623)" stroke-linecap="round"/>
<path d="M14.5 6.5H20.5" stroke="var(--mw-icon-glyph-content-gray, #616162)" stroke-linecap="round"/>
<path d="M16.5 9.5H20.5" stroke="var(--mw-icon-glyph-content-gray, #616162)" stroke-linecap="round"/>
<path d="M12.5 12.5H20.5" stroke="var(--mw-icon-glyph-content-gray, #616162)" stroke-linecap="round"/>
<path d="M10.5 15.5H20.5" stroke="var(--mw-icon-glyph-content-gray, #616162)" stroke-linecap="round"/>
<path d="M10.5 18.5L15.5 18.5" stroke="var(--mw-icon-glyph-content-gray, #616162)" stroke-linecap="round"/>
<path d="M0.5 6.5L0.5 11.5H4.5L4.5 15.5L13.5 9L4.5 2.5L4.5 6.5H0.5Z" fill="var(--mw-icon-background-default-selection, #B4DEFF)" stroke="var(--mw-icon-border-default-blue, #1656A7)"/>

</svg>
