<svg width="24" height="24" viewBox="0 0 24 24" fill="none" xmlns="http://www.w3.org/2000/svg">
<path d="M0.5 4.5H19.5V14.5C19.5 15.0523 19.0523 15.5 18.5 15.5H1.5C0.947715 15.5 0.5 15.0523 0.5 14.5V4.5Z" fill="var(--mw-icon-background-default-white, #FFFFFF)" stroke="var(--mw-icon-border-default-gray, #616161)"/>
<path d="M0.5 1.5C0.5 0.947715 0.947715 0.5 1.5 0.5H18.5C19.0523 0.5 19.5 0.947715 19.5 1.5V4.5H0.5V1.5Z" fill="var(--mw-icon-background-default-selection, #B4DEFF)" stroke="var(--mw-icon-border-default-blue, #1656A7)"/>
<path d="M4.5 12.5H23.5V22.5C23.5 23.0523 23.0523 23.5 22.5 23.5H5.5C4.94771 23.5 4.5 23.0523 4.5 22.5V12.5Z" fill="var(--mw-icon-background-default-medium-gray, #D9D9D9)" stroke="var(--mw-icon-border-disabled-gray, #888888)"/>
<path d="M4.5 9.5C4.5 8.94772 4.94772 8.5 5.5 8.5H22.5C23.0523 8.5 23.5 8.94772 23.5 9.5V12.5H4.5V9.5Z" fill="var(--mw-icon-background-default-medium-gray, #D9D9D9)" stroke="var(--mw-icon-border-disabled-gray, #888888)"/>
</svg>
