<svg width="24" height="24" viewBox="0 0 24 24" fill="none" xmlns="http://www.w3.org/2000/svg">
<rect x="0.5" y="0.5" width="22" height="22" rx="2" fill="var(--mw-icon-background-default-white, #FFFFFF)"/>
<path d="M5.5 1.5C3.1 1.5 1.33333 4.33333 0.5 5.5V10.5L2 9.5L5.5 19.5L8 12.5C9.66667 15 13.5 20.3 15.5 21.5C17.5 22.7 20.5 22 22 22L22.5 5.5L18.5 10.5L13.5 2.5V8.5C11.6667 6.16667 7.9 1.5 5.5 1.5Z" fill="var(--mw-icon-background-default-medium-gray, #D9D9D9)"/>
<path d="M0.5 7.5L5.5 3.5L14.5 17.5L17.5 14.5L20.5 16.5L22.5 7.5" stroke="var(--mw-icon-borderColor-light-blue, #268CDD)" stroke-linecap="round" stroke-linejoin="round"/>
<path d="M16.5 17.5C16.5 16.9477 16.9477 16.5 17.5 16.5C18.0523 16.5 18.5 16.9477 18.5 17.5C18.5 18.0523 18.0523 18.5 17.5 18.5C16.9477 18.5 16.5 18.0523 16.5 17.5Z" fill="white"/>
<path d="M18.5 12.5C18.5 11.9477 18.9477 11.5 19.5 11.5C20.0523 11.5 20.5 11.9477 20.5 12.5C20.5 13.0523 20.0523 13.5 19.5 13.5C18.9477 13.5 18.5 13.0523 18.5 12.5Z" fill="white"/>
<path d="M12.5 12.5C12.5 11.9477 12.9477 11.5 13.5 11.5C14.0523 11.5 14.5 11.9477 14.5 12.5C14.5 13.0523 14.0523 13.5 13.5 13.5C12.9477 13.5 12.5 13.0523 12.5 12.5Z" fill="white"/>
<path d="M4.5 9.5C4.5 8.94772 4.94772 8.5 5.5 8.5C6.05228 8.5 6.5 8.94772 6.5 9.5C6.5 10.0523 6.05228 10.5 5.5 10.5C4.94772 10.5 4.5 10.0523 4.5 9.5Z" fill="white"/>
<path d="M16.5 17.5C16.5 16.9477 16.9477 16.5 17.5 16.5C18.0523 16.5 18.5 16.9477 18.5 17.5C18.5 18.0523 18.0523 18.5 17.5 18.5C16.9477 18.5 16.5 18.0523 16.5 17.5Z" stroke="#DD5400"/>
<path d="M18.5 12.5C18.5 11.9477 18.9477 11.5 19.5 11.5C20.0523 11.5 20.5 11.9477 20.5 12.5C20.5 13.0523 20.0523 13.5 19.5 13.5C18.9477 13.5 18.5 13.0523 18.5 12.5Z" stroke="#DD5400"/>
<path d="M12.5 12.5C12.5 11.9477 12.9477 11.5 13.5 11.5C14.0523 11.5 14.5 11.9477 14.5 12.5C14.5 13.0523 14.0523 13.5 13.5 13.5C12.9477 13.5 12.5 13.0523 12.5 12.5Z" stroke="#DD5400"/>
<path d="M4.5 9.5C4.5 8.94772 4.94772 8.5 5.5 8.5C6.05228 8.5 6.5 8.94772 6.5 9.5C6.5 10.0523 6.05228 10.5 5.5 10.5C4.94772 10.5 4.5 10.0523 4.5 9.5Z" stroke="#DD5400"/>
<rect x="0.5" y="0.5" width="22" height="22" rx="2" stroke="var(--mw-icon-border-default-gray, #616161)"/>
</svg>
