<svg width="24" height="24" viewBox="0 0 24 24" fill="none" xmlns="http://www.w3.org/2000/svg">
<rect x="3.5" y="3.5" width="19" height="19" rx="2" fill="var(--mw-icon-background-default-medium-gray, #D9D9D9)" stroke="var(--mw-icon-border-default-gray, #616161)"/>
<rect x="0.5" y="0.5" width="19" height="19" rx="2" fill="var(--mw-icon-background-default-white, #FFFFFF)"/>
<path d="M0.499892 11.5C0.499892 11.5 0.374891 11.125 0.499892 10.75V1C3.00033 1 7.5 9.5 10.5 9.5C12.9 9.5 17.8332 5.83333 18.9999 5V19.5C17.4999 19.5 15.4999 19.5 11.4999 17.5C7.02776 15.2639 4.99989 10 1.99989 10C0.999892 10 0.624892 10.375 0.499892 10.75V11.5Z" fill="var(--mw-icon-background-default-medium-gray, #D9D9D9)"/>
<path d="M0.5 5.5C3.5 5.5 8 15.5 13 15.5C17 15.5 18.5 12 19.5 11.5" stroke="var(--mw-icon-borderColor-light-blue, #268CDD)" stroke-linecap="round" stroke-linejoin="round"/>
<path d="M13.5 17.5C13.5 16.9477 13.9477 16.5 14.5 16.5C15.0523 16.5 15.5 16.9477 15.5 17.5C15.5 18.0523 15.0523 18.5 14.5 18.5C13.9477 18.5 13.5 18.0523 13.5 17.5Z" fill="white"/>
<path d="M15.5 11.5C15.5 10.9477 15.9477 10.5 16.5 10.5C17.0523 10.5 17.5 10.9477 17.5 11.5C17.5 12.0523 17.0523 12.5 16.5 12.5C15.9477 12.5 15.5 12.0523 15.5 11.5Z" fill="white"/>
<path d="M10.5 12.5C10.5 11.9477 10.9477 11.5 11.5 11.5C12.0523 11.5 12.5 11.9477 12.5 12.5C12.5 13.0523 12.0523 13.5 11.5 13.5C10.9477 13.5 10.5 13.0523 10.5 12.5Z" fill="white"/>
<path d="M1.5 9.5C1.5 8.94772 1.94772 8.5 2.5 8.5C3.05228 8.5 3.5 8.94772 3.5 9.5C3.5 10.0523 3.05228 10.5 2.5 10.5C1.94772 10.5 1.5 10.0523 1.5 9.5Z" fill="white"/>
<path d="M13.5 17.5C13.5 16.9477 13.9477 16.5 14.5 16.5C15.0523 16.5 15.5 16.9477 15.5 17.5C15.5 18.0523 15.0523 18.5 14.5 18.5C13.9477 18.5 13.5 18.0523 13.5 17.5Z" stroke="#DD5400"/>
<path d="M15.5 11.5C15.5 10.9477 15.9477 10.5 16.5 10.5C17.0523 10.5 17.5 10.9477 17.5 11.5C17.5 12.0523 17.0523 12.5 16.5 12.5C15.9477 12.5 15.5 12.0523 15.5 11.5Z" stroke="#DD5400"/>
<path d="M10.5 12.5C10.5 11.9477 10.9477 11.5 11.5 11.5C12.0523 11.5 12.5 11.9477 12.5 12.5C12.5 13.0523 12.0523 13.5 11.5 13.5C10.9477 13.5 10.5 13.0523 10.5 12.5Z" stroke="#DD5400"/>
<path d="M1.5 9.5C1.5 8.94772 1.94772 8.5 2.5 8.5C3.05228 8.5 3.5 8.94772 3.5 9.5C3.5 10.0523 3.05228 10.5 2.5 10.5C1.94772 10.5 1.5 10.0523 1.5 9.5Z" stroke="#DD5400"/>
<rect x="0.5" y="0.5" width="19" height="19" rx="2" stroke="var(--mw-icon-border-default-gray, #616161)"/>
</svg>
