<svg width="24" height="24" viewBox="0 0 24 24" fill="none" xmlns="http://www.w3.org/2000/svg">
<rect x="0.5" y="0.5" width="22" height="22" rx="2" fill="var(--mw-icon-background-default-white, #FFFFFF)"/>
<path d="M5.5 11.5C3.5 11.5 1.33333 16.6667 0.5 17.5C0.587608 16.8867 0.5 7.5 0.5 7.5C0.5 7.5 1.99956 2.5 4.5 2.5C7.00044 2.5 10.5 11.5 13.5 11.5C15.9 11.5 21.3333 7.33333 22.5 6.5V20.5C21 20.5 18.9093 21.1719 15 19C10.5 16.5 8.5 11.5 5.5 11.5Z" fill="var(--mw-icon-background-default-medium-gray, #D9D9D9)"/>
<path d="M0.5 9.50024C1.33333 8.66691 2.5 7.00024 4.5 7.00024C7.5 7.00024 11.5 17 16.5 17C20.5 17 21.5 14 22.5 13.5" stroke="var(--mw-icon-borderColor-light-blue, #268CDD)" stroke-linecap="round" stroke-linejoin="round"/>
<path d="M4.5 10.5C4.5 9.94772 4.94772 9.5 5.5 9.5C6.05228 9.5 6.5 9.94772 6.5 10.5C6.5 11.0523 6.05228 11.5 5.5 11.5C4.94772 11.5 4.5 11.0523 4.5 10.5Z" fill="white"/>
<path d="M12.5 13.5C12.5 12.9477 12.9477 12.5 13.5 12.5C14.0523 12.5 14.5 12.9477 14.5 13.5C14.5 14.0523 14.0523 14.5 13.5 14.5C12.9477 14.5 12.5 14.0523 12.5 13.5Z" fill="white"/>
<path d="M17.5 12.5C17.5 11.9477 17.9477 11.5 18.5 11.5C19.0523 11.5 19.5 11.9477 19.5 12.5C19.5 13.0523 19.0523 13.5 18.5 13.5C17.9477 13.5 17.5 13.0523 17.5 12.5Z" fill="white"/>
<path d="M15.5 19.5C15.5 18.9477 15.9477 18.5 16.5 18.5C17.0523 18.5 17.5 18.9477 17.5 19.5C17.5 20.0523 17.0523 20.5 16.5 20.5C15.9477 20.5 15.5 20.0523 15.5 19.5Z" fill="white"/>
<path d="M4.5 10.5C4.5 9.94772 4.94772 9.5 5.5 9.5C6.05228 9.5 6.5 9.94772 6.5 10.5C6.5 11.0523 6.05228 11.5 5.5 11.5C4.94772 11.5 4.5 11.0523 4.5 10.5Z" stroke="#DD5400"/>
<path d="M12.5 13.5C12.5 12.9477 12.9477 12.5 13.5 12.5C14.0523 12.5 14.5 12.9477 14.5 13.5C14.5 14.0523 14.0523 14.5 13.5 14.5C12.9477 14.5 12.5 14.0523 12.5 13.5Z" stroke="#DD5400"/>
<path d="M17.5 12.5C17.5 11.9477 17.9477 11.5 18.5 11.5C19.0523 11.5 19.5 11.9477 19.5 12.5C19.5 13.0523 19.0523 13.5 18.5 13.5C17.9477 13.5 17.5 13.0523 17.5 12.5Z" stroke="#DD5400"/>
<path d="M15.5 19.5C15.5 18.9477 15.9477 18.5 16.5 18.5C17.0523 18.5 17.5 18.9477 17.5 19.5C17.5 20.0523 17.0523 20.5 16.5 20.5C15.9477 20.5 15.5 20.0523 15.5 19.5Z" stroke="#DD5400"/>
<rect x="0.5" y="0.5" width="22" height="22" rx="2" stroke="var(--mw-icon-border-default-gray, #616161)"/>
</svg>
