<svg width="24" height="24" viewBox="0 0 24 24" fill="none" xmlns="http://www.w3.org/2000/svg">
<rect x="0.5" y="0.5" width="22" height="22" rx="2" fill="var(--mw-icon-background-default-action, #CBFFBE)" stroke="var(--mw-icon-border-default-green, #008013)"/>
<path d="M11.4917 12.1177H9.86133V11.0894H11.4917C11.7437 11.0894 11.9487 11.0483 12.1069 10.9663C12.2651 10.8813 12.3809 10.7642 12.4541 10.6147C12.5273 10.4653 12.564 10.2969 12.564 10.1094C12.564 9.91895 12.5273 9.7417 12.4541 9.57764C12.3809 9.41357 12.2651 9.28174 12.1069 9.18213C11.9487 9.08252 11.7437 9.03271 11.4917 9.03271H10.3184V14.3984H9V8H11.4917C11.9927 8 12.4219 8.09082 12.7793 8.27246C13.1396 8.45117 13.415 8.69873 13.6055 9.01514C13.7959 9.33154 13.8911 9.69336 13.8911 10.1006C13.8911 10.5137 13.7959 10.8711 13.6055 11.1729C13.415 11.4746 13.1396 11.7075 12.7793 11.8716C12.4219 12.0356 11.9927 12.1177 11.4917 12.1177Z" fill="var(--mw-icon-glyph-content-dark-green, #02580E)"/>
<path d="M18.5903 8H19.9043V12.2275C19.9043 12.7197 19.7988 13.1343 19.5879 13.4712C19.3799 13.8081 19.0913 14.0615 18.7222 14.2314C18.356 14.4014 17.9341 14.4863 17.4565 14.4863C16.979 14.4863 16.5542 14.4014 16.1821 14.2314C15.813 14.0615 15.5229 13.8081 15.312 13.4712C15.104 13.1343 15 12.7197 15 12.2275V8H16.3184V12.2275C16.3184 12.5146 16.3638 12.749 16.4546 12.9307C16.5454 13.1123 16.6758 13.2456 16.8457 13.3306C17.0186 13.4155 17.2222 13.458 17.4565 13.458C17.6968 13.458 17.9004 13.4155 18.0674 13.3306C18.2373 13.2456 18.3662 13.1123 18.4541 12.9307C18.5449 12.749 18.5903 12.5146 18.5903 12.2275V8Z" fill="var(--mw-icon-glyph-content-dark-green, #02580E)"/>
<path d="M8.2251 11.1465V13.6821C8.12549 13.8022 7.97168 13.9326 7.76367 14.0732C7.55566 14.2109 7.2876 14.3296 6.95947 14.4292C6.63135 14.5288 6.23438 14.5786 5.76855 14.5786C5.35547 14.5786 4.979 14.5112 4.63916 14.3765C4.29932 14.2388 4.00635 14.0381 3.76025 13.7744C3.51709 13.5107 3.32959 13.1885 3.19775 12.8076C3.06592 12.4238 3 11.9858 3 11.4937V11.0938C3 10.6016 3.06299 10.1636 3.18896 9.77979C3.31787 9.396 3.50098 9.07227 3.73828 8.80859C3.97559 8.54492 4.2583 8.34424 4.58643 8.20654C4.91455 8.06885 5.2793 8 5.68066 8C6.2373 8 6.69434 8.09082 7.05176 8.27246C7.40918 8.45117 7.68164 8.7002 7.86914 9.01953C8.05957 9.33594 8.17676 9.69922 8.2207 10.1094H6.94189C6.90967 9.89258 6.84814 9.70361 6.75732 9.54248C6.6665 9.38135 6.53613 9.25537 6.36621 9.16455C6.19922 9.07373 5.98242 9.02832 5.71582 9.02832C5.49609 9.02832 5.2998 9.07373 5.12695 9.16455C4.95703 9.25244 4.81348 9.38281 4.69629 9.55566C4.5791 9.72852 4.48975 9.94238 4.42822 10.1973C4.3667 10.4521 4.33594 10.748 4.33594 11.085V11.4937C4.33594 11.8276 4.36816 12.1235 4.43262 12.3813C4.49707 12.6362 4.59229 12.8516 4.71826 13.0273C4.84717 13.2002 5.00537 13.3306 5.19287 13.4185C5.38037 13.5063 5.59863 13.5503 5.84766 13.5503C6.05566 13.5503 6.22852 13.5327 6.36621 13.4976C6.50684 13.4624 6.61963 13.4199 6.70459 13.3701C6.79248 13.3174 6.85986 13.2676 6.90674 13.2207V12.0869H5.70264V11.1465H8.2251Z" fill="var(--mw-icon-glyph-content-dark-green, #02580E)"/>
</svg>
