<svg width="24" height="24" viewBox="0 0 24 24" fill="none" xmlns="http://www.w3.org/2000/svg">
<path d="M0.5 18.5V4.5C0.5 2.29086 2.29086 0.5 4.5 0.5H18.5C20.7091 0.5 22.5 2.29086 22.5 4.5V18.5C22.5 20.7091 20.7091 22.5 18.5 22.5H4.5C2.29086 22.5 0.5 20.7091 0.5 18.5Z" fill="var(--mw-icon-background-default-white, white)"/>
<path d="M0.5 18.5V4.5C0.5 2.29086 2.29086 0.5 4.5 0.5H18.5C20.7091 0.5 22.5 2.29086 22.5 4.5V18.5C22.5 20.7091 20.7091 22.5 18.5 22.5H4.5C2.29086 22.5 0.5 20.7091 0.5 18.5Z" stroke="var(--mw-icon-glyph-disabled-gray, #888889)" stroke-linecap="round"/>
<path d="M0.5 11.5H22.5V18.5C22.5 20.7091 20.7091 22.5 18.5 22.5H4.5C2.29086 22.5 0.5 20.7091 0.5 18.5V11.5Z" fill="var(--mw-icon-background-default-selection, #B4DEFF)" stroke="var(--mw-icon-borderColor-light-blue, #268CDD)"/>
<path d="M5.5 2.5L7.5 2.5L7.5 5.5L10 5.5L6.5 9.5L3 5.5L5.5 5.5L5.5 2.5Z" fill="var(--mw-icon-background-default-selection, #B4DEFF)" stroke="var(--mw-icon-glyph-content-blue, #1656A8)"/>
<path d="M15.5 2.5L17.5 2.5L17.5 5.5L20 5.5L16.5 9.5L13 5.5L15.5 5.5L15.5 2.5Z" fill="var(--mw-icon-background-default-selection, #B4DEFF)" stroke="var(--mw-icon-glyph-content-blue, #1656A8)"/>
<path d="M7.76953 19.5674C7.52865 19.9124 7.19173 20.1712 6.75879 20.3438C6.3291 20.513 5.8278 20.5977 5.25488 20.5977C4.67546 20.5977 4.16113 20.4626 3.71191 20.1924C3.2627 19.9189 2.91439 19.5316 2.66699 19.0303C2.42285 18.529 2.29753 17.9479 2.29102 17.2871V16.667C2.29102 15.596 2.54004 14.766 3.03809 14.1768C3.53939 13.5876 4.24251 13.293 5.14746 13.293C5.88965 13.293 6.48698 13.4834 6.93945 13.8643C7.39193 14.2419 7.66862 14.779 7.76953 15.4756H6.83203C6.65625 14.5348 6.09635 14.0645 5.15234 14.0645C4.52409 14.0645 4.0472 14.2858 3.72168 14.7285C3.39941 15.168 3.23665 15.806 3.2334 16.6426V17.2236C3.2334 18.0212 3.41569 18.6559 3.78027 19.1279C4.14486 19.5967 4.63802 19.8311 5.25977 19.8311C5.61133 19.8311 5.91895 19.792 6.18262 19.7139C6.44629 19.6357 6.66439 19.5039 6.83691 19.3184V17.7217H5.19141V16.96H7.76953V19.5674Z" fill="#212121"/>
<path d="M10.2744 17.7168V20.5H9.33691V13.3906H11.959C12.737 13.3906 13.3457 13.5892 13.7852 13.9863C14.2279 14.3835 14.4492 14.9092 14.4492 15.5635C14.4492 16.2536 14.2327 16.7858 13.7998 17.1602C13.3701 17.5312 12.7533 17.7168 11.9492 17.7168H10.2744ZM10.2744 16.9502H11.959C12.4603 16.9502 12.8444 16.833 13.1113 16.5986C13.3783 16.361 13.5117 16.0192 13.5117 15.5732C13.5117 15.1501 13.3783 14.8115 13.1113 14.5576C12.8444 14.3037 12.4782 14.1719 12.0127 14.1621H10.2744V16.9502Z" fill="#212121"/>
<path d="M20.6504 13.3906V18.2246C20.6471 18.8952 20.4355 19.4437 20.0156 19.8701C19.599 20.2965 19.0326 20.5358 18.3164 20.5879L18.0674 20.5977C17.2894 20.5977 16.6693 20.3877 16.207 19.9678C15.7448 19.5479 15.5104 18.9701 15.5039 18.2344V13.3906H16.4316V18.2051C16.4316 18.7194 16.5732 19.1198 16.8564 19.4062C17.1396 19.6895 17.5433 19.8311 18.0674 19.8311C18.598 19.8311 19.0033 19.6895 19.2832 19.4062C19.5664 19.123 19.708 18.7243 19.708 18.21V13.3906H20.6504Z" fill="#212121"/>

</svg>
