<svg width="24" height="24" viewBox="0 0 24 24" fill="none" xmlns="http://www.w3.org/2000/svg">
<path d="M0.5 18.5V4.5C0.5 2.29086 2.29086 0.5 4.5 0.5H18.5C20.7091 0.5 22.5 2.29086 22.5 4.5V18.5C22.5 20.7091 20.7091 22.5 18.5 22.5H4.5C2.29086 22.5 0.5 20.7091 0.5 18.5Z" fill="var(--mw-icon-background-default-white, #FFFFFF)"/>
<path d="M22.5 8.78291C16.7234 11.3782 14.3185 6.17864 11.19 6.5C8.28278 6.79863 3.23099 18.5299 2.04456 21.3806" stroke="#FF13A6" stroke-miterlimit="10"/>
<rect x="4.5" y="4.5" width="3" height="3" fill="white" stroke="#FF13A6"/>
<rect x="9.5" y="9.5" width="3" height="3" fill="white" stroke="#FF13A6"/>
<rect x="15.5" y="4.5" width="3" height="3" fill="white" stroke="#FF13A6"/>
<rect x="17.5" y="12.5" width="3" height="3" fill="white" stroke="#FF13A6"/>
<rect x="7.5" y="15.5" width="3" height="3" fill="white" stroke="#FF13A6"/>
<path d="M0 19V4C0 1.79086 1.79086 0 4 0H19C21.2091 0 23 1.79086 23 4V19C23 21.2091 21.2091 23 19 23H4C1.79086 23 0 21.2091 0 19Z" fill="#FFEBB7"/>
<path d="M1 19V6C1 3.79086 2.79086 2 5 2H18C20.2091 2 22 3.79086 22 6V19C22 21.2091 20.2091 23 18 23H5C2.79086 23 1 21.2091 1 19Z" fill="#FFDB9A"/>
<path d="M0.5 9.49998C1 8.33331 2.30399 6.20098 3.5 6.49998C5.5 6.99999 4.75105 13.5627 6.5 14C8.5 14.5 8.41833 11.9422 9.5 10.5C11 8.49998 12.6667 11.1667 13.5 11.5" stroke="var(--mw-icon-border-default-gray, #616161)"/>
<path d="M13.5 1V23" stroke="var(--mw-icon-border-default-gray, #616161)"/>
<path d="M13.5 8.5V6.5H16.5H19.5V8.5H16.5H13.5Z" fill="var(--mw-icon-background-default-medium-gray, #D9D9D9)"/>
<path d="M16.5 6.5H13.5V8.5H16.5M16.5 6.5V8.5M16.5 6.5H19.5V8.5H16.5" stroke="var(--mw-icon-border-default-gray, #616161)" stroke-linejoin="round"/>
<path d="M13.5 11.5V8.5H16.5H19.5V11.5H16.5H13.5Z" fill="white"/>
<path d="M16.5 8.5H13.5V11.5H16.5M16.5 8.5V11.5M16.5 8.5H19.5V11.5H16.5" stroke="var(--mw-icon-border-default-gray, #616161)" stroke-linejoin="round"/>
<path d="M13.5 14.5V11.5H16.5H19.5V14.5H16.5H13.5Z" fill="white"/>
<path d="M16.5 11.5H13.5V14.5H16.5M16.5 11.5V14.5M16.5 11.5H19.5V14.5H16.5" stroke="var(--mw-icon-border-default-gray, #616161)" stroke-linejoin="round"/>
<path d="M13.5 17.5V14.5H16.5H19.5V17.5H16.5H13.5Z" fill="white"/>
<path d="M16.5 14.5H13.5V17.5H16.5M16.5 14.5V17.5M16.5 14.5H19.5V17.5H16.5" stroke="var(--mw-icon-border-default-gray, #616161)" stroke-linejoin="round"/>
<path d="M3 16.5C3 16.2239 2.77614 16 2.5 16C2.22386 16 2 16.2239 2 16.5H3ZM2.5 17.5H2C2 17.7761 2.22386 18 2.5 18V17.5ZM13.5 18C13.7761 18 14 17.7761 14 17.5C14 17.2239 13.7761 17 13.5 17V18ZM2 16.5V17.5H3V16.5H2ZM2.5 18H5.5V17H2.5V18ZM5.5 18H13.5V17H5.5V18Z" fill="var(--mw-icon-border-default-gray, #616161)"/>
<rect x="0.5" y="0.5" width="22" height="22" rx="3.5" stroke="var(--mw-icon-border-default-gray, #616161)"/>
</svg>
