<svg width="24" height="24" viewBox="0 0 24 24" fill="none" xmlns="http://www.w3.org/2000/svg">
<path d="M0.5 2.5C0.5 1.39543 1.39543 0.5 2.5 0.5H20.5C21.6046 0.5 22.5 1.39543 22.5 2.5V20.5C22.5 21.6046 21.6046 22.5 20.5 22.5H2.5C1.39543 22.5 0.5 21.6046 0.5 20.5V2.5Z" fill="var(--mw-icon-background-default-white, #FFFFFF)" stroke="var(--mw-icon-border-default-gray, #616161)"/>
<circle cx="5.5" cy="5.5" r="3" fill="var(--mw-icon-background-red, #FF9D9A)" stroke="#DD5400"/>
<circle cx="5.5" cy="11.5" r="3" fill="var(--mw-icon-background-red, #FF9D9A)" stroke="#DD5400"/>
<circle cx="5.5" cy="17.5" r="3" fill="var(--mw-icon-background-red, #FF9D9A)" stroke="#DD5400"/>
<circle cx="11.5" cy="17.5" r="3" fill="var(--mw-icon-background-red, #FF9D9A)" stroke="#DD5400"/>
<circle cx="17.5" cy="17.5" r="3" fill="var(--mw-icon-background-red, #FF9D9A)" stroke="#DD5400"/>
<circle cx="11.5" cy="5.5" r="3" fill="var(--mw-icon-background-red, #FF9D9A)" stroke="#DD5400"/>
<circle cx="17.5" cy="5.5" r="3" fill="var(--mw-icon-background-red, #FF9D9A)" stroke="#DD5400"/>
<circle cx="17.5" cy="11.5" r="3" fill="var(--mw-icon-background-red, #FF9D9A)" stroke="#DD5400"/>
<circle cx="11.5" cy="11.5" r="3.5" fill="var(--mw-icon-background-default-action, #CBFFBE)"/>
<circle cx="11.5" cy="11.5" r="1.5" fill="var(--mw-icon-glyph-content-green, #008014)"/>
</svg>
