<svg width="24" height="24" viewBox="0 0 24 24" fill="none" xmlns="http://www.w3.org/2000/svg">
<rect x="0.5" y="0.5" width="23" height="23" rx="2" fill="var(--mw-icon-background-default-white, #FFFFFF)" stroke="var(--mw-icon-border-default-gray, #616161)"/>
<path d="M15 21V22H9V21H15Z" fill="var(--mw-icon-background-default-dark-gray, #A6A6A6)"/>
<path d="M2 9H3V15H2V9Z" fill="var(--mw-icon-background-default-dark-gray, #A6A6A6)"/>
<path d="M7.5 5.5V7.5M7.5 7.5V10.5M7.5 7.5H10.5M7.5 7.5H5.5M7.5 10.5V13.5M7.5 10.5H10.5M7.5 10.5H5.5M7.5 13.5V16.5M7.5 13.5H10.5M7.5 13.5H5.5M7.5 16.5V18.5M7.5 16.5H10.5M7.5 16.5H5.5M18.5 7.5H16.5M16.5 7.5L13.5 7.5M16.5 7.5V5.5M16.5 7.5V10.5M13.5 7.5L10.5 7.5M13.5 7.5V5.5M13.5 7.5V10.5M10.5 7.5V5.5M10.5 7.5V10.5M18.5 10.5H16.5M16.5 10.5H13.5M16.5 10.5V13.5M13.5 10.5L10.5 10.5M13.5 10.5V13.5M10.5 10.5V13.5M18.5 13.5H16.5M16.5 13.5H13.5M16.5 13.5V16.5M13.5 13.5H10.5M13.5 13.5V16.5M10.5 13.5V16.5M18.5 16.5H16.5M16.5 16.5H13.5M16.5 16.5V18.5M13.5 16.5L10.5 16.5M13.5 16.5V18.5M10.5 16.5V18.5M4.5 4.5H19.5V19.5H4.5V4.5Z" stroke="var(--mw-icon-glyph-content-light-blue, #278CDD)" stroke-linecap="square"/>
</svg>
