<svg width="24" height="24" viewBox="0 0 24 24" fill="none" xmlns="http://www.w3.org/2000/svg">
<path d="M1.5 3.5C1.5 2.39543 2.39543 1.5 3.5 1.5H20.5C21.6046 1.5 22.5 2.39543 22.5 3.5V20.5C22.5 21.6046 21.6046 22.5 20.5 22.5H3.5C2.39543 22.5 1.5 21.6046 1.5 20.5V3.5Z" fill="var(--mw-icon-background-default-white, #FFFFFF)" stroke="var(--mw-icon-border-default-gray, #616161)"/>
<path d="M21.5 4.49999H2.5M21.5 7.49999H2.5M21.5 10.5H2.5M21.5 13.5H2.5M21.5 16.5H2.5M21.5 19.5H2.5M19.5 21.5002V2.50021M16.5 21.5002L16.5 2.50021M13.5 21.5002L13.5 2.50021M10.5 21.5002L10.5 2.50021M7.5 21.5002L7.5 2.50021M4.5 21.5002L4.5 2.50021" stroke="var(--mw-icon-glyph-content-light-blue, #278CDD)" stroke-linecap="square"/>
</svg>
