<svg width="24" height="24" viewBox="0 0 24 24" fill="none" xmlns="http://www.w3.org/2000/svg">
<path d="M1.5 1.5H21.5V21.5H1.5V1.5Z" fill="var(--mw-icon-background-default-white, #FFFFFF)"/>
<path fill-rule="evenodd" clip-rule="evenodd" d="M1 1.5C1 1.22386 1.22386 1 1.5 1H21.5C21.7761 1 22 1.22386 22 1.5V21.5C22 21.7761 21.7761 22 21.5 22H1.5C1.22386 22 1 21.7761 1 21.5V1.5ZM2 2V21H21V2H2Z" fill="var(--mw-icon-border-default-gray, #616161)"/>
<path d="M0 0H3V3H0V0Z" fill="white"/>
<path fill-rule="evenodd" clip-rule="evenodd" d="M2 1H1V2H2V1ZM0 0V3H3V0H0Z" fill="var(--mw-icon-glyph-content-gray, #616162)"/>
<path d="M0 20H3V23H0V20Z" fill="white"/>
<path fill-rule="evenodd" clip-rule="evenodd" d="M2 21H1V22H2V21ZM0 20V23H3V20H0Z" fill="var(--mw-icon-glyph-content-gray, #616162)"/>
<path d="M20 20H23V23H20V20Z" fill="white"/>
<path fill-rule="evenodd" clip-rule="evenodd" d="M22 21H21V22H22V21ZM20 20V23H23V20H20Z" fill="var(--mw-icon-glyph-content-gray, #616162)"/>
<path d="M20 0H23V3H20V0Z" fill="white"/>
<path fill-rule="evenodd" clip-rule="evenodd" d="M22 1H21V2H22V1ZM20 0V3H23V0H20Z" fill="var(--mw-icon-glyph-content-gray, #616162)"/>
<path d="M5 1H6V2H5V1Z" fill="white"/>
<path d="M8 1H9V2H8V1Z" fill="white"/>
<path d="M11 1H12V2H11V1Z" fill="white"/>
<path d="M14 1H15V2H14V1Z" fill="white"/>
<path d="M17 1H18V2H17V1Z" fill="white"/>
<path d="M5 21H6V22H5V21Z" fill="white"/>
<path d="M1 19H2V20H1V19Z" fill="white"/>
<path d="M1 16H2V17H1V16Z" fill="white"/>
<path d="M1 13H2V14H1V13Z" fill="white"/>
<path d="M1 10H2V11H1V10Z" fill="white"/>
<path d="M1 7H2V8H1V7Z" fill="white"/>
<path d="M1 4H2V5H1V4Z" fill="white"/>
<path d="M21 19H22V20H21V19Z" fill="white"/>
<path d="M21 16H22V17H21V16Z" fill="white"/>
<path d="M21 13H22V14H21V13Z" fill="white"/>
<path d="M21 10H22V11H21V10Z" fill="white"/>
<path d="M21 7H22V8H21V7Z" fill="white"/>
<path d="M21 4H22V5H21V4Z" fill="white"/>
<path d="M8 21H9V22H8V21Z" fill="white"/>
<path d="M11 21H12V22H11V21Z" fill="white"/>
<path d="M14 21H15V22H14V21Z" fill="white"/>
<path d="M17 21H18V22H17V21Z" fill="white"/>
<path d="M17 5H18V19H17V5Z" fill="var(--mw-icon-glyph-content-gray, #616162)"/>
<path d="M11 5H12V19H11V5Z" fill="var(--mw-icon-glyph-content-gray, #616162)"/>
<path d="M5 5H6V19H5V5Z" fill="var(--mw-icon-glyph-content-gray, #616162)"/>
<path d="M3.5 8.5H7.5V10.5H3.5V8.5Z" fill="white"/>
<path fill-rule="evenodd" clip-rule="evenodd" d="M3 8.5C3 8.22386 3.22386 8 3.5 8H7.5C7.77614 8 8 8.22386 8 8.5V10.5C8 10.7761 7.77614 11 7.5 11H3.5C3.22386 11 3 10.7761 3 10.5V8.5ZM4 9V10H7V9H4Z" fill="var(--mw-icon-glyph-content-gray, #616162)"/>
<path d="M9.5 14.5H13.5V16.5H9.5V14.5Z" fill="white"/>
<path fill-rule="evenodd" clip-rule="evenodd" d="M9 14.5C9 14.2239 9.22386 14 9.5 14H13.5C13.7761 14 14 14.2239 14 14.5V16.5C14 16.7761 13.7761 17 13.5 17H9.5C9.22386 17 9 16.7761 9 16.5V14.5ZM10 15V16H13V15H10Z" fill="var(--mw-icon-glyph-content-gray, #616162)"/>
<path d="M15.5 6.5H19.5V8.5H15.5V6.5Z" fill="white"/>
<path fill-rule="evenodd" clip-rule="evenodd" d="M15 6.5C15 6.22386 15.2239 6 15.5 6H19.5C19.7761 6 20 6.22386 20 6.5V8.5C20 8.77614 19.7761 9 19.5 9H15.5C15.2239 9 15 8.77614 15 8.5V6.5ZM16 7V8H19V7H16Z" fill="var(--mw-icon-glyph-content-gray, #616162)"/>
</svg>
