<svg width="24" height="24" viewBox="0 0 24 24" fill="none" xmlns="http://www.w3.org/2000/svg">
<path d="M10 23H8L11 8H13L16 23H14L12 12.5L10 23Z" fill="var(--mw-icon-object-primary, #616160)"/>
<circle cx="12" cy="7" r="2" fill="var(--mw-icon-object-primary, #616160)"/>
<path d="M15.5 3.5C15.5 3.5 17.5 4.5 17.5 7C17.5 9.5 15.5 10.5 15.5 10.5" stroke="var(--mw-icon-glyph-content-light-blue, #278CDD)" stroke-linecap="round"/>
<path d="M8.5 3.5C8.5 3.5 6.5 4.5 6.5 7C6.5 9.5 8.5 10.5 8.5 10.5" stroke="var(--mw-icon-glyph-content-light-blue, #278CDD)" stroke-linecap="round"/>
<path d="M17.5 1.5C17.5 1.5 20.5 3 20.5 7C20.5 11 17.5 12.5 17.5 12.5" stroke="var(--mw-icon-glyph-content-light-blue, #278CDD)" stroke-linecap="round"/>
<path d="M6.5 1.5C6.5 1.5 3.5 3 3.5 7C3.5 11 6.5 12.5 6.5 12.5" stroke="var(--mw-icon-glyph-content-light-blue, #278CDD)" stroke-linecap="round"/>
</svg>
