<svg width="24" height="24" viewBox="0 0 24 24" fill="none" xmlns="http://www.w3.org/2000/svg">
<path d="M0.5 18.5V4.5C0.5 2.29086 2.29086 0.5 4.5 0.5H18.5C20.7091 0.5 22.5 2.29086 22.5 4.5V18.5C22.5 20.7091 20.7091 22.5 18.5 22.5H4.5C2.29086 22.5 0.5 20.7091 0.5 18.5Z" fill="var(--mw-icon-background-lightest-blue, #E2F0FF)"/>
<path d="M0.222296 17.1026C7.21319 13.6542 14.2689 11.5843 22 11V13.0617C22 13.0617 12.4998 19.8036 11.909 22.9889C10.8764 22.9889 10.2782 23.0139 9.48406 22.9889C8.35629 22.9533 7.29741 23.0041 6.41767 22.9889C-1.81041 22.846 0.222296 17.1026 0.222296 17.1026Z" fill="var(--mw-icon-background-default-dark-gray, #A6A6A6)"/>
<path d="M0.861973 16.3386L0.54261 16.4057L0.504398 13.3487C1.20134 13.1207 2.21739 12.9249 3.45729 12.7612C4.88773 12.5725 6.57347 12.4317 8.32521 12.3256C10.2552 12.2088 12.2571 12.1346 14.074 12.0845L4.39801 14.8052L4.3673 14.8139L4.33794 14.8263L1.92177 15.8523L1.91505 15.8551L1.90842 15.8582L1.2916 16.1416L1.29123 16.1418L0.861973 16.3386Z" fill="#3AC831" stroke="var(--mw-icon-glyph-content-dark-green, #02580E)"/>
<path d="M22.5 12.5C22.5 12.5 15.5 16.5 12.5 22.5H18C18.5 22.5 17 22.5 18.5 22.5C19 22.5 19.5 22.5 20.5 22C20.9181 21.5819 21.7743 21.0466 22 20.5C22.2257 19.9534 22.5013 19.0913 22.5 18.5V12.5Z" fill="#3AC831" stroke="var(--mw-icon-glyph-content-dark-green, #02580E)" stroke-miterlimit="10"/>
<path d="M20 12C15.7333 14.1352 7.41132 18.5338 4 21" stroke="var(--mw-icon-background-default-white, white)" stroke-miterlimit="10" stroke-dasharray="1.89 1.89"/>
<path d="M20 5V14H11V5H20ZM21 4H10V15H21V4Z" fill="var(--mw-icon-glyph-content-dark-blue, #104280)"/>
<path d="M16 9.95801H15V13H16V9.95801Z" fill="var(--mw-icon-border-default-red, #902622)"/>
<rect x="9.5" y="3.5" width="2" height="2" fill="var(--mw-icon-background-default-white, white)" stroke="var(--mw-icon-glyph-content-dark-blue, #104280)"/>
<rect x="9.5" y="13.5" width="2" height="2" fill="var(--mw-icon-background-default-white, white)" stroke="var(--mw-icon-glyph-content-dark-blue, #104280)"/>
<rect x="19.5" y="13.5" width="2" height="2" fill="var(--mw-icon-background-default-white, white)" stroke="var(--mw-icon-glyph-content-dark-blue, #104280)"/>
<rect x="19.5" y="3.5" width="2" height="2" fill="var(--mw-icon-background-default-white, white)" stroke="var(--mw-icon-glyph-content-dark-blue, #104280)"/>
<circle cx="15.5" cy="8.5" r="2" fill="var(--mw-icon-background-red, #FF9D9A)" stroke="var(--mw-icon-border-default-red, #902622)"/>
<path d="M0.5 18.5V4.5C0.5 2.29086 2.29086 0.5 4.5 0.5H18.5C20.7091 0.5 22.5 2.29086 22.5 4.5V18.5C22.5 20.7091 20.7091 22.5 18.5 22.5H4.5C2.29086 22.5 0.5 20.7091 0.5 18.5Z" stroke="var(--mw-icon-border-disabled-gray, #888888)" stroke-linecap="round"/>

</svg>
