<svg width="24" height="24" viewBox="0 0 24 24" fill="none" xmlns="http://www.w3.org/2000/svg">
<path d="M1.5 21.5V1.5H21.5V21.5H1.5Z" stroke="var(--mw-icon-borderColor-light-blue, #268CDD)"/>
<path d="M0.5 2.5V0.5H2.5V2.5H0.5Z" fill="var(--mw-icon-background-default-white, #FFFFFF)"/>
<path d="M20.5 2.5V0.5H22.5V2.5H20.5Z" fill="white"/>
<path d="M0.5 22.5V20.5H2.5V22.5H0.5Z" fill="white"/>
<path d="M20.5 22.5V20.5H22.5V22.5H20.5Z" fill="white"/>
<path d="M0.5 2.5V0.5H2.5V2.5H0.5Z" stroke="var(--mw-icon-border-default-blue, #1656A7)" stroke-linejoin="round"/>
<path d="M20.5 2.5V0.5H22.5V2.5H20.5Z" stroke="var(--mw-icon-border-default-blue, #1656A7)" stroke-linejoin="round"/>
<path d="M0.5 22.5V20.5H2.5V22.5H0.5Z" stroke="var(--mw-icon-border-default-blue, #1656A7)" stroke-linejoin="round"/>
<path d="M20.5 22.5V20.5H22.5V22.5H20.5Z" stroke="var(--mw-icon-border-default-blue, #1656A7)" stroke-linejoin="round"/>
<path d="M4.5 13.5V5.5C4.5 4.94772 4.94772 4.5 5.5 4.5H13.5C14.0523 4.5 14.5 4.94772 14.5 5.5V13.5C14.5 14.0523 14.0523 14.5 13.5 14.5H5.5C4.94772 14.5 4.5 14.0523 4.5 13.5Z" stroke="var(--mw-icon-glyph-disabled-gray, #888889)"/>
<path d="M8.5 17.5V9.5C8.5 8.94772 8.94772 8.5 9.5 8.5H17.5C18.0523 8.5 18.5 8.94772 18.5 9.5V17.5C18.5 18.0523 18.0523 18.5 17.5 18.5H9.5C8.94772 18.5 8.5 18.0523 8.5 17.5Z" stroke="var(--mw-icon-glyph-disabled-gray, #888889)"/>
</svg>
