<svg width="24" height="24" viewBox="0 0 24 24" fill="none" xmlns="http://www.w3.org/2000/svg">
<path d="M0.500488 2.5H23.5005V12.5H0.500488V2.5Z" fill="var(--mw-icon-background-default-medium-gray, #D9D9D9)" stroke="var(--mw-icon-border-default-gray, #616161)" stroke-linejoin="round"/>
<path d="M1 5H23V3H1V5Z" fill="var(--mw-icon-background-default-white, #FFFFFF)"/>
<path d="M1 12H23V10H1V12Z" fill="var(--mw-icon-background-default-light-gray, #F5F5F5)"/>
<path d="M4.50049 12.5011H6.50049V23.5011H4.50049V12.5011Z" fill="var(--mw-icon-background-default-dark-gray, #A6A6A6)"/>
<path d="M4.49951 1C4.49951 0.723858 4.72337 0.5 4.99951 0.5H5.99951C6.27565 0.5 6.49951 0.723858 6.49951 1V2.5H4.49951V1Z" fill="var(--mw-icon-background-default-dark-gray, #A6A6A6)"/>
<path d="M17.5005 12.5006H19.5005V23.5006H17.5005V12.5006Z" fill="var(--mw-icon-background-default-dark-gray, #A6A6A6)"/>
<path d="M17.4995 1C17.4995 0.723858 17.7234 0.5 17.9995 0.5H18.9995C19.2757 0.5 19.4995 0.723858 19.4995 1V2.5H17.4995V1Z" fill="var(--mw-icon-background-default-dark-gray, #A6A6A6)"/>
<path d="M4.50049 12.5011H6.50049V23.5011H4.50049V12.5011Z" stroke="var(--mw-icon-border-default-gray, #616161)"/>
<path d="M4.49951 1C4.49951 0.723858 4.72337 0.5 4.99951 0.5H5.99951C6.27565 0.5 6.49951 0.723858 6.49951 1V2.5H4.49951V1Z" stroke="var(--mw-icon-border-default-gray, #616161)"/>
<path d="M17.5005 12.5006H19.5005V23.5006H17.5005V12.5006Z" stroke="var(--mw-icon-border-default-gray, #616161)"/>
<path d="M17.4995 1C17.4995 0.723858 17.7234 0.5 17.9995 0.5H18.9995C19.2757 0.5 19.4995 0.723858 19.4995 1V2.5H17.4995V1Z" stroke="var(--mw-icon-border-default-gray, #616161)"/>
<path d="M6 6.5C6 6.77614 5.77614 7 5.5 7C5.22386 7 5 6.77614 5 6.5C5 6.22386 5.22386 6 5.5 6C5.77614 6 6 6.22386 6 6.5Z" fill="var(--mw-icon-glyph-content-gray, #616162)"/>
<path d="M19 6.5C19 6.77614 18.7761 7 18.5 7C18.2239 7 18 6.77614 18 6.5C18 6.22386 18.2239 6 18.5 6C18.7761 6 19 6.22386 19 6.5Z" fill="var(--mw-icon-glyph-content-gray, #616162)"/>
<path d="M6 8.5C6 8.77614 5.77614 9 5.5 9C5.22386 9 5 8.77614 5 8.5C5 8.22386 5.22386 8 5.5 8C5.77614 8 6 8.22386 6 8.5Z" fill="var(--mw-icon-glyph-content-gray, #616162)"/>
<path d="M19 8.5C19 8.77614 18.7761 9 18.5 9C18.2239 9 18 8.77614 18 8.5C18 8.22386 18.2239 8 18.5 8C18.7761 8 19 8.22386 19 8.5Z" fill="var(--mw-icon-glyph-content-gray, #616162)"/>
</svg>
