<svg width="24" height="24" viewBox="0 0 24 24" fill="none" xmlns="http://www.w3.org/2000/svg">
<path d="M0.5 18.5V4.5C0.5 2.29086 2.29086 0.5 4.5 0.5H18.5C20.7091 0.5 22.5 2.29086 22.5 4.5V18.5C22.5 20.7091 20.7091 22.5 18.5 22.5H4.5C2.29086 22.5 0.5 20.7091 0.5 18.5Z" fill="var(--mw-icon-glyph-content-green, #008014)"/>
<path d="M1 4H3V5H1V4Z" fill="var(--mw-icon-background-medium-yellow, #FFEF91)"/>
<path d="M1 6H3V7H1V6Z" fill="var(--mw-icon-background-medium-yellow, #FFEF91)"/>
<path d="M1 10H3V11H1V10Z" fill="var(--mw-icon-background-medium-yellow, #FFEF91)"/>
<path d="M1 12H3V13H1V12Z" fill="var(--mw-icon-background-medium-yellow, #FFEF91)"/>
<path d="M1 14H3V15H1V14Z" fill="var(--mw-icon-background-medium-yellow, #FFEF91)"/>
<path d="M1 16H3V17H1V16Z" fill="var(--mw-icon-background-medium-yellow, #FFEF91)"/>
<path d="M5 20H6V22H5V20Z" fill="var(--mw-icon-background-medium-yellow, #FFEF91)"/>
<path d="M7 20H8V22H7V20Z" fill="var(--mw-icon-background-medium-yellow, #FFEF91)"/>
<path d="M9 20H10V22H9V20Z" fill="var(--mw-icon-background-medium-yellow, #FFEF91)"/>
<path d="M11 20H12V22H11V20Z" fill="var(--mw-icon-background-medium-yellow, #FFEF91)"/>
<path d="M0.5 18.5V4.5C0.5 2.29086 2.29086 0.5 4.5 0.5H18.5C20.7091 0.5 22.5 2.29086 22.5 4.5V18.5C22.5 20.7091 20.7091 22.5 18.5 22.5H4.5C2.29086 22.5 0.5 20.7091 0.5 18.5Z" stroke="#013E0A" stroke-linecap="round"/>
<rect x="5.5" y="3.5" width="14" height="14" rx="1" fill="var(--mw-icon-background-medium-yellow, #FFEF91)" stroke="var(--mw-icon-glyph-content-yellow, #674C07)"/>
<path fill-rule="evenodd" clip-rule="evenodd" d="M17.5357 11.6393C17.2993 11.5144 17.05 11.4106 16.7904 11.3303L16.4091 9.5H14.5909L14.2096 11.3303C13.95 11.4106 13.7007 11.5144 13.4643 11.6393L11.9002 10.6145L10.6145 11.9002L11.6393 13.4643C11.5144 13.7007 11.4106 13.95 11.3303 14.2096L9.5 14.5909V16.4091L11.3303 16.7904C11.4106 17.05 11.5144 17.2993 11.6393 17.5357L10.6145 19.0998L11.9002 20.3855L13.4643 19.3607C13.7007 19.4856 13.95 19.5894 14.2096 19.6697L14.5909 21.5H16.4091L16.7904 19.6697C17.05 19.5894 17.2993 19.4856 17.5357 19.3607L19.0998 20.3855L20.3855 19.0998L19.3607 17.5357C19.4856 17.2993 19.5894 17.05 19.6697 16.7904L21.5 16.4091V14.5909L19.6697 14.2096C19.5894 13.95 19.4856 13.7007 19.3607 13.4643L20.3855 11.9002L19.0998 10.6145L17.5357 11.6393Z" fill="var(--mw-icon-background-default-medium-gray, #D9D9D9)" stroke="var(--mw-icon-border-default-gray, #616161)" stroke-linejoin="round"/>
<path d="M18 15.5C18 16.8807 16.8807 18 15.5 18C14.1193 18 13 16.8807 13 15.5C13 14.1193 14.1193 13 15.5 13C16.8807 13 18 14.1193 18 15.5Z" fill="var(--mw-icon-background-default-dark-gray, #A6A6A6)"/>
<path d="M17 15.5C17 16.3284 16.3284 17 15.5 17C14.6716 17 14 16.3284 14 15.5C14 14.6716 14.6716 14 15.5 14C16.3284 14 17 14.6716 17 15.5Z" fill="var(--mw-icon-glyph-content-gray, #616162)"/>
</svg>
