<svg width="24" height="24" viewBox="0 0 24 24" fill="none" xmlns="http://www.w3.org/2000/svg">
<rect x="0.5" y="0.5" width="23" height="23" rx="2" fill="var(--mw-icon-glyph-content-green, #008014)"/>
<path d="M13 8H16V11H13V8Z" fill="var(--mw-icon-glyph-content-dark-gray, #333333)"/>
<path d="M16 8H19V11H16V8Z" fill="var(--mw-icon-glyph-content-dark-gray, #333333)"/>
<path d="M19 8H22V11H19V8Z" fill="var(--mw-icon-glyph-content-dark-gray, #333333)"/>
<path d="M1 3C1 1.89543 1.89543 1 3 1H4V9H1V3Z" fill="var(--mw-icon-glyph-content-dark-gray, #333333)"/>
<path d="M1 15H5V22H1V15Z" fill="var(--mw-icon-glyph-content-dark-gray, #333333)"/>
<path d="M16 8H13V11H16M16 8V11M16 8H19M16 11H19M19 8V11M19 8H22V11H19M4 1H3C1.89543 1 1 1.89543 1 3V9H4V1ZM1 15H5V22H1V15Z" stroke="var(--mw-icon-background-default-action, #CBFFBE)" stroke-linejoin="round"/>
<path d="M9 1.5V5H23.5M6 1.5V9H10L11 10V23.5M9 23.5V11H1.5M1.5 13H7V23.5M11 1.5V3.5M13 1.5V3.5M15 1.5V3.5M17 1.5V3.5M19 1.5V3.5M21 1.5V3.5M19 14H23.5H21V16V17M19 14H15M19 14L17 16V17M17 17C16.4477 17 16 17.4477 16 18C16 18.5523 16.4477 19 17 19C17.5523 19 18 18.5523 18 18C18 17.4477 17.5523 17 17 17ZM15 23.5V21.5M17 23.5V21.5M19 23.5V21.5M21 23.5V21.5M21 17C20.4477 17 20 17.4477 20 18C20 18.5523 20.4477 19 21 19C21.5523 19 22 18.5523 22 18C22 17.4477 21.5523 17 21 17ZM15 14C15 14.5523 14.5523 15 14 15C13.4477 15 13 14.5523 13 14C13 13.4477 13.4477 13 14 13C14.5523 13 15 13.4477 15 14Z" stroke="var(--mw-icon-background-medium-yellow, #FFEF91)" stroke-linejoin="round"/>
<rect x="0.5" y="0.5" width="23" height="23" rx="2.52632" stroke="#013E0A"/>
</svg>
