<svg width="24" height="24" viewBox="0 0 24 24" fill="none" xmlns="http://www.w3.org/2000/svg">
<path d="M7.5 2.5L7.5 21.5C7.5 22.0523 7.94772 22.5 8.5 22.5L22.5 22.5C23.0523 22.5 23.5 22.0523 23.5 21.5L23.5 6.41421C23.5 6.149 23.3946 5.89464 23.2071 5.70711L19.2929 1.79289C19.1054 1.60536 18.851 1.5 18.5858 1.5L8.5 1.5C7.94771 1.5 7.5 1.94772 7.5 2.5Z" fill="var(--mw-icon-background-default-white, #FFFFFF)" stroke="var(--mw-icon-border-default-gray, #616161)"/>
<path d="M14.8914 8.25V15H13.762V8.25H14.8914ZM14.7112 12.4556L14.3816 12.46C14.3787 12.1289 14.4124 11.8228 14.4827 11.5415C14.5559 11.2603 14.6599 11.0171 14.7947 10.812C14.9294 10.604 15.092 10.4429 15.2825 10.3286C15.4758 10.2144 15.6897 10.1572 15.9241 10.1572C16.1174 10.1572 16.2947 10.1909 16.4558 10.2583C16.6169 10.3228 16.7561 10.4268 16.8733 10.5703C16.9905 10.7139 17.0798 10.9014 17.1414 11.1328C17.2058 11.3613 17.238 11.6411 17.238 11.9722V15H16.1086V11.9634C16.1086 11.7495 16.0867 11.5796 16.0427 11.4536C15.9988 11.3276 15.9314 11.2383 15.8406 11.1855C15.7527 11.1328 15.6428 11.1064 15.511 11.1064C15.3733 11.1064 15.2532 11.1416 15.1506 11.2119C15.051 11.2822 14.9675 11.3789 14.9001 11.502C14.8357 11.625 14.7874 11.7686 14.7551 11.9326C14.7258 12.0938 14.7112 12.2681 14.7112 12.4556Z" fill="var(--mw-icon-glyph-content-gray, #616162)"/>
</svg>
