<svg width="24" height="24" viewBox="0 0 24 24" fill="none" xmlns="http://www.w3.org/2000/svg">
<path d="M18.5 0.5H4.5C2.29086 0.5 0.5 2.29086 0.5 4.5V18.5C0.5 20.7091 2.29086 22.5 4.5 22.5H18.5C20.7091 22.5 22.5 20.7091 22.5 18.5V4.5C22.5 2.29086 20.7091 0.5 18.5 0.5Z" fill="var(--mw-icon-background-lightest-blue, #E2F0FF)" stroke="var(--mw-icon-border-default-blue, #1656A7)" stroke-linecap="round"/>
<path d="M7.41523 10.9231V11.8798H3.86744V10.9231H7.41523ZM4.152 8V15H3V8H4.152ZM8.30103 8V15H7.15362V8H8.30103Z" fill="var(--mw-icon-glyph-content-dark-blue, #104280)"/>
<path d="M11.6147 15H10.1874L10.1965 14.0433H11.6147C12.0278 14.0433 12.3736 13.9487 12.652 13.7596C12.9335 13.5705 13.1446 13.2997 13.2854 12.9471C13.4292 12.5946 13.5011 12.1747 13.5011 11.6875V11.3077C13.5011 10.9295 13.4598 10.5946 13.3772 10.3029C13.2976 10.0112 13.1783 9.76603 13.0192 9.56731C12.8631 9.36859 12.6704 9.21795 12.4409 9.11538C12.2145 9.01282 11.9528 8.96154 11.656 8.96154H10.1598V8H11.656C12.0997 8 12.5051 8.07853 12.8723 8.23558C13.2395 8.38942 13.5562 8.61218 13.8224 8.90385C14.0916 9.19551 14.2981 9.54487 14.442 9.95192C14.5858 10.359 14.6577 10.8141 14.6577 11.3173V11.6875C14.6577 12.1907 14.5858 12.6458 14.442 13.0529C14.2981 13.4599 14.0916 13.8093 13.8224 14.101C13.5531 14.3894 13.2318 14.6122 12.8585 14.7692C12.4883 14.9231 12.0737 15 11.6147 15ZM10.8253 8V15H9.67333V8H10.8253Z" fill="var(--mw-icon-glyph-content-dark-blue, #104280)"/>
<path d="M20 14.0433V15H16.645V14.0433H20ZM16.9663 8V15H15.8143V8H16.9663Z" fill="var(--mw-icon-glyph-content-dark-blue, #104280)"/>
</svg>
