<svg width="24" height="24" viewBox="0 0 24 24" fill="none" xmlns="http://www.w3.org/2000/svg">
<path d="M20.001 19.5543V17.4537C20.001 17.0963 19.8102 16.766 19.5006 16.5875L17.1685 15.2426C16.8632 15.0665 16.4878 15.0642 16.1803 15.2364L12.5124 17.2909C12.1966 17.4678 12.0011 17.8014 12.0011 18.1634V21.0086C12.0011 21.3613 12.1869 21.688 12.4901 21.8682L14.1988 22.8839C14.5094 23.0686 14.8955 23.0713 15.2086 22.891L19.4999 20.4209C19.8099 20.2425 20.001 19.912 20.001 19.5543Z" fill="#EDB120"/>
<path d="M3.00117 19.5543V17.4538C3.00117 17.0963 3.19196 16.7661 3.5016 16.5875L5.83366 15.2426C6.13897 15.0666 6.51443 15.0642 6.82192 15.2364L10.4898 17.2909C10.8056 17.4678 11.0011 17.8015 11.0011 18.1634V21.0086C11.0011 21.3614 10.8153 21.688 10.5121 21.8682L8.8034 22.884C8.49279 23.0686 8.10672 23.0713 7.79355 22.8911L3.5023 20.421C3.19226 20.2425 3.00117 19.912 3.00117 19.5543Z" fill="#DD5400"/>
<path d="M23 13.8938V9.09009C23 8.74157 22.8185 8.41819 22.5211 8.23658L21.0035 7.31008C20.6905 7.119 20.2981 7.11455 19.9808 7.29848L17.4984 8.73783C17.1899 8.9167 17 9.24632 17 9.60293V13.4081C17 13.7663 17.1916 14.0971 17.5022 14.2754L19.9888 15.7025C20.308 15.8857 20.7021 15.8787 21.0147 15.6843L22.5282 14.7429C22.8216 14.5604 23 14.2393 23 13.8938Z" fill="#8516D1"/>
<path d="M7.49643 8.72851L10.9902 6.65479C11.3044 6.46828 11.6954 6.46802 12.0098 6.65409L15.5161 8.72871C15.8203 8.9087 16.0068 9.2359 16.0068 9.58934V13.4328C16.0068 13.7933 15.8128 14.1259 15.499 14.3033L11.901 16.3375C11.589 16.5139 11.2065 16.5098 10.8983 16.3268L7.49628 14.3068C7.19284 14.1266 7.00684 13.7998 7.00684 13.4469V9.58844C7.00684 9.23548 7.19291 8.90866 7.49643 8.72851Z" fill="#1171BE"/>
<path d="M0 13.8937V9.09006C0 8.74154 0.181453 8.41816 0.478916 8.23655L1.99648 7.31005C2.30946 7.11896 2.70193 7.11451 3.01916 7.29845L5.5016 8.7378C5.8101 8.91667 6 9.24629 6 9.6029V13.4081C6 13.7662 5.80843 14.0971 5.49777 14.2754L3.01122 15.7024C2.69196 15.8857 2.29785 15.8787 1.98528 15.6843L0.471826 14.7429C0.178403 14.5604 0 14.2393 0 13.8937Z" fill="#3BAA32"/>
<path d="M20.001 3.58724V5.68778C20.001 6.04522 19.8102 6.37548 19.5006 6.55405L17.1685 7.89891C16.8632 8.07498 16.4878 8.07733 16.1803 7.90509L12.5124 5.85061C12.1966 5.67375 12.0011 5.34007 12.0011 4.97815V2.1329C12.0011 1.78018 12.1869 1.45354 12.4901 1.27331L14.1988 0.257569C14.5094 0.0729252 14.8955 0.0702161 15.2086 0.250481L19.4999 2.72056C19.8099 2.89902 20.001 3.22951 20.001 3.58724Z" fill="#D1048B"/>
<path d="M3.00117 3.58718V5.68771C3.00117 6.04516 3.19196 6.37542 3.5016 6.55399L5.83366 7.89885C6.13897 8.07492 6.51443 8.07727 6.82192 7.90503L10.4898 5.85055C10.8056 5.67368 11.0011 5.34001 11.0011 4.97809V2.13284C11.0011 1.78012 10.8153 1.45348 10.5121 1.27325L8.8034 0.257508C8.49279 0.0728642 8.10672 0.070155 7.79355 0.25042L3.5023 2.7205C3.19226 2.89896 3.00117 3.22945 3.00117 3.58718Z" fill="#2FBEEF"/>
</svg>
