<svg width="24" height="24" viewBox="0 0 24 24" fill="none" xmlns="http://www.w3.org/2000/svg">
<path d="M3.5 3.5H18.5L18.5 17.4999C18.5 18.0522 18.0523 18.4999 17.5 18.4999L3.5 18.5V3.5Z" fill="var(--mw-icon-background-default-white, #FFFFFF)" stroke="var(--mw-icon-border-default-gray, #616161)"/>
<path d="M3.5 0.5H17.5C18.0523 0.5 18.5 0.947715 18.5 1.5L18.5 3.5H3.5V0.5Z" fill="var(--mw-icon-background-default-dark-gray, #A6A6A6)"/>
<path d="M1.5 18.5C0.947716 18.5 0.500001 18.0523 0.500001 17.5L0.5 1.50001C0.5 0.947729 0.947711 0.500017 1.49999 0.500013L3.5 0.5L3.5 18.5H1.5Z" fill="var(--mw-icon-background-default-dark-gray, #A6A6A6)"/>
<path d="M3.5 0.5H17.5C18.0523 0.5 18.5 0.947715 18.5 1.5L18.5 3.5H3.5V0.5ZM3.5 0.5L1.49999 0.500013C0.947711 0.500017 0.5 0.947729 0.5 1.50001L0.500001 17.5C0.500001 18.0523 0.947716 18.5 1.5 18.5H3.5L3.5 0.5Z" stroke="var(--mw-icon-border-default-gray, #616161)"/>
<path d="M4.5 8.5H17.5M8.50001 4.5L8.50001 17.5M13.5 4.5L13.5 17.5M4.5 13.5H17.5" stroke="var(--mw-icon-border-default-gray, #616161)" stroke-linecap="square" stroke-linejoin="round"/>
<path d="M8.5 3V1M13.5 3V1M3 3.5H1M3 8.5H1M3 13.5H1" stroke="var(--mw-icon-border-default-gray, #616161)"/>
<path d="M18.5 3.5V8.5H13.5H8.5H3.5H0.5V3.5H3.5H8.5H13.5H18.5Z" fill="var(--mw-icon-background-default-selection, #B4DEFF)"/>
<path d="M3.5 8.5H0.5V3.5H3.5M3.5 8.5V3.5M3.5 8.5H8.5M3.5 3.5H8.5M8.5 8.5V3.5M8.5 8.5H13.5M8.5 3.5H13.5M13.5 8.5H18.5V3.5H13.5M13.5 8.5V3.5" stroke="var(--mw-icon-border-default-blue, #1656A7)"/>
<path d="M8.5 10.5C8.5 9.39543 9.39543 8.5 10.5 8.5H20.5C21.6046 8.5 22.5 9.39543 22.5 10.5V20.5C22.5 21.6046 21.6046 22.5 20.5 22.5H10.5C9.39543 22.5 8.5 21.6046 8.5 20.5V10.5Z" fill="white" stroke="var(--mw-icon-border-default-gray, #616161)"/>
<path d="M10.5 16L11.5 15M20.5 16L19.5 15M12.5 18L13 16.5M18.5 18L18 16.5M15.5 18.5V16.5" stroke="var(--mw-icon-glyph-content-gray, #616162)" stroke-linecap="round"/>
<path d="M10.5 13.5C10.5 13.5 12 16.5 15.5 16.5C19 16.5 20.5 13.5 20.5 13.5" stroke="var(--mw-icon-glyph-content-gray, #616162)" stroke-linecap="round"/>
</svg>
