<svg width="24" height="24" viewBox="0 0 24 24" fill="none" xmlns="http://www.w3.org/2000/svg">
<path d="M0.5 2.5C0.5 1.39543 1.39543 0.5 2.5 0.5H16.5C17.6046 0.5 18.5 1.39543 18.5 2.5V16.5C18.5 17.6046 17.6046 18.5 16.5 18.5H2.5C1.39543 18.5 0.5 17.6046 0.5 16.5V2.5Z" fill="var(--mw-icon-background-default-white, #FFFFFF)" stroke="var(--mw-icon-border-default-gray, #616161)" stroke-linejoin="round"/>
<path d="M5 3.5C5 4.32843 4.32843 5 3.5 5C2.67157 5 2 4.32843 2 3.5C2 2.67157 2.67157 2 3.5 2C4.32843 2 5 2.67157 5 3.5Z" fill="var(--mw-icon-glyph-content-light-blue, #278CDD)"/>
<path d="M10 6.5C10 7.32843 9.32843 8 8.5 8C7.67157 8 7 7.32843 7 6.5C7 5.67157 7.67157 5 8.5 5C9.32843 5 10 5.67157 10 6.5Z" fill="var(--mw-icon-glyph-content-light-blue, #278CDD)"/>
<path d="M17 4.5C17 5.32843 16.3284 6 15.5 6C14.6716 6 14 5.32843 14 4.5C14 3.67157 14.6716 3 15.5 3C16.3284 3 17 3.67157 17 4.5Z" fill="var(--mw-icon-glyph-content-light-blue, #278CDD)"/>
<path d="M14 10C14 10.8284 13.3284 11.5 12.5 11.5C11.6716 11.5 11 10.8284 11 10C11 9.17157 11.6716 8.5 12.5 8.5C13.3284 8.5 14 9.17157 14 10Z" fill="var(--mw-icon-glyph-content-light-blue, #278CDD)"/>
<path d="M6.5 11.5C6.5 12.3284 5.82843 13 5 13C4.17157 13 3.5 12.3284 3.5 11.5C3.5 10.6716 4.17157 10 5 10C5.82843 10 6.5 10.6716 6.5 11.5Z" fill="var(--mw-icon-glyph-content-light-blue, #278CDD)"/>
<path d="M11 15.5C11 16.3284 10.3284 17 9.5 17C8.67157 17 8 16.3284 8 15.5C8 14.6716 8.67157 14 9.5 14C10.3284 14 11 14.6716 11 15.5Z" fill="var(--mw-icon-glyph-content-light-blue, #278CDD)"/>
<path d="M17 14C17 14.8284 16.3284 15.5 15.5 15.5C14.6716 15.5 14 14.8284 14 14C14 13.1716 14.6716 12.5 15.5 12.5C16.3284 12.5 17 13.1716 17 14Z" fill="var(--mw-icon-glyph-content-light-blue, #278CDD)"/>
<path d="M9.5 11.5C9.5 10.3954 10.3954 9.5 11.5 9.5H21.5C22.6046 9.5 23.5 10.3954 23.5 11.5V21.5C23.5 22.6046 22.6046 23.5 21.5 23.5H11.5C10.3954 23.5 9.5 22.6046 9.5 21.5V11.5Z" fill="white" stroke="var(--mw-icon-border-default-gray, #616161)"/>
<path d="M11.5 17L12.5 16M21.5 17L20.5 16M13.5 19L14 17.5M19.5 19L19 17.5M16.5 19.5V17.5" stroke="var(--mw-icon-glyph-content-gray, #616162)" stroke-linecap="round"/>
<path d="M11.5 14.5C11.5 14.5 13 17.5 16.5 17.5C20 17.5 21.5 14.5 21.5 14.5" stroke="var(--mw-icon-glyph-content-gray, #616162)" stroke-linecap="round"/>
</svg>
