<svg width="24" height="24" viewBox="0 0 24 24" fill="none" xmlns="http://www.w3.org/2000/svg">
<path d="M0.5 2C0.5 1.17157 1.17157 0.5 2 0.5H17C17.8284 0.5 18.5 1.17157 18.5 2V17C18.5 17.8284 17.8284 18.5 17 18.5H2C1.17157 18.5 0.5 17.8284 0.5 17V2Z" fill="var(--mw-icon-glyph-content-green, #008014)"/>
<path d="M3.5 0.5H15.5V18.5H3.5V0.5Z" fill="var(--mw-icon-glyph-disabled-gray, #888889)" stroke="var(--mw-icon-background-default-medium-gray, #D9D9D9)"/>
<path d="M9 9H10V13H9V9Z" fill="var(--mw-icon-object-secondary, #FFFFFE)"/>
<path d="M9 2H10V6H9V2Z" fill="var(--mw-icon-object-secondary, #FFFFFE)"/>
<path d="M9 16H10V18H9V16Z" fill="var(--mw-icon-object-secondary, #FFFFFE)"/>
<path d="M0.5 2.5C0.5 1.39543 1.39543 0.5 2.5 0.5H16.5C17.6046 0.5 18.5 1.39543 18.5 2.5V16.5C18.5 17.6046 17.6046 18.5 16.5 18.5H2.5C1.39543 18.5 0.5 17.6046 0.5 16.5V2.5Z" stroke="var(--mw-icon-border-default-gray, #616161)"/>
<path d="M9.5 11.5C9.5 10.3954 10.3954 9.5 11.5 9.5H21.5C22.6046 9.5 23.5 10.3954 23.5 11.5V21.5C23.5 22.6046 22.6046 23.5 21.5 23.5H11.5C10.3954 23.5 9.5 22.6046 9.5 21.5V11.5Z" fill="var(--mw-icon-background-default-white, #FFFFFF)" stroke="var(--mw-icon-border-default-gray, #616161)"/>
<path d="M11.5 17L12.5 16M21.5 17L20.5 16M13.5 19L14 17.5M19.5 19L19 17.5M16.5 19.5V17.5" stroke="var(--mw-icon-glyph-content-gray, #616162)" stroke-linecap="round"/>
<path d="M11.5 14.5C11.5 14.5 13 17.5 16.5 17.5C20 17.5 21.5 14.5 21.5 14.5" stroke="var(--mw-icon-glyph-content-gray, #616162)" stroke-linecap="round"/>
</svg>
