<svg width="24" height="24" viewBox="0 0 24 24" fill="none" xmlns="http://www.w3.org/2000/svg">
<path d="M4.5 3.5H18.5V13.5C18.5 14.0523 18.0523 14.5 17.5 14.5H5.5C4.94772 14.5 4.5 14.0523 4.5 13.5V3.5Z" fill="var(--mw-icon-background-default-white, #FFFFFF)" stroke="var(--mw-icon-border-default-gray, #616161)"/>
<path d="M4.5 1.5C4.5 0.947715 4.94772 0.5 5.5 0.5H17.5C18.0523 0.5 18.5 0.947715 18.5 1.5V3.5H4.5V1.5Z" fill="var(--mw-icon-background-default-medium-gray, #D9D9D9)" stroke="var(--mw-icon-border-default-gray, #616161)"/>
<path d="M11.5 17.5H5.5V19.5M11.5 17.5H17.5V19.5M11.5 17.5V14.5" stroke="var(--mw-icon-object-primary, #616160)" stroke-linecap="square" stroke-linejoin="round"/>
<path d="M21.5 23.5V20.5H13.5V23.5H21.5Z" fill="var(--mw-icon-background-medium-blue, #83CAFF)"/>
<path d="M9.5 23.5V20.5H1.5V23.5H9.5Z" fill="var(--mw-icon-background-medium-blue, #83CAFF)"/>
<path d="M21.5 23.5V20.5H13.5V23.5H21.5Z" stroke="var(--mw-icon-border-default-blue, #1656A7)" stroke-linecap="square" stroke-linejoin="round"/>
<path d="M9.5 23.5V20.5H1.5V23.5H9.5Z" stroke="var(--mw-icon-border-default-blue, #1656A7)" stroke-linecap="square" stroke-linejoin="round"/>
</svg>
