<svg width="24" height="24" viewBox="0 0 24 24" fill="none" xmlns="http://www.w3.org/2000/svg">
<path d="M4 3C4 2.44772 4.44772 2 5 2H18C18.5523 2 19 2.44772 19 3V10C19 10.5523 18.5523 11 18 11H4V3Z" fill="var(--mw-icon-background-default-highlight, #FFE864)"/>
<path d="M22.5 8C23.3284 8 24 7.32843 24 6.5C24 5.67157 23.3284 5 22.5 5V8ZM2.5 6.5V5C1.67157 5 1 5.67157 1 6.5H2.5ZM1 15.5V17H4V15.5H1ZM22.5 5H2.5V8H22.5V5ZM1 6.5V15.5H4V6.5H1Z" fill="var(--mw-icon-background-default-highlight, #FFE864)"/>
<path d="M2 6.5C2 6.22386 2.22386 6 2.5 6H22.5C22.7761 6 23 6.22386 23 6.5C23 6.77614 22.7761 7 22.5 7H2.5C2.22386 7 2 6.77614 2 6.5Z" fill="var(--mw-icon-glyph-content-yellow, #674C07)"/>
<rect x="5.5" y="3.5" width="12" height="6" fill="var(--mw-icon-background-medium-yellow, #FFEF91)" stroke="var(--mw-icon-glyph-content-yellow, #674C07)" stroke-linejoin="round"/>
<path d="M2 6.5C2 6.22386 2.22386 6 2.5 6C2.77614 6 3 6.22386 3 6.5V8.5C3 8.77614 2.77614 9 2.5 9C2.22386 9 2 8.77614 2 8.5V6.5Z" fill="var(--mw-icon-glyph-content-yellow, #674C07)"/>
<rect x="2" y="10" width="1" height="2" rx="0.5" fill="var(--mw-icon-glyph-content-yellow, #674C07)"/>
<rect x="2" y="13" width="1" height="2" rx="0.5" fill="var(--mw-icon-glyph-content-yellow, #674C07)"/>
<rect y="16" width="23" height="1" fill="var(--mw-icon-border-disabled-gray, #888888)"/>
<rect x="5.5" y="13.5" width="12" height="6" fill="var(--mw-icon-background-default-medium-gray, #D9D9D9)" stroke="var(--mw-icon-border-disabled-gray, #888888)" stroke-linejoin="round"/>
</svg>
