<svg width="24" height="24" viewBox="0 0 24 24" fill="none" xmlns="http://www.w3.org/2000/svg">
<path d="M0.5 2.5C0.5 1.39543 1.39543 0.5 2.5 0.5H20.5C21.6046 0.5 22.5 1.39543 22.5 2.5V20.5C22.5 21.6046 21.6046 22.5 20.5 22.5H2.5C1.39543 22.5 0.5 21.6046 0.5 20.5V2.5Z" fill="var(--mw-icon-background-default-white, #FFFFFF)"/>
<path d="M17.5 7.5H22.5V20.5C22.5 21.6046 21.6046 22.5 20.5 22.5H7.5L1 21.5H7.5V17.5C7.5 11.9772 11.9772 7.5 17.5 7.5Z" fill="#4DBEEE" stroke="#0072BD"/>
<path d="M0.5 2.5C0.5 1.39543 1.39543 0.5 2.5 0.5H20.5C21.6046 0.5 22.5 1.39543 22.5 2.5V20.5C22.5 21.6046 21.6046 22.5 20.5 22.5H2.5C1.39543 22.5 0.5 21.6046 0.5 20.5V2.5Z" stroke="var(--mw-icon-border-default-gray, #616161)" stroke-linejoin="round"/>
</svg>
