<svg width="24" height="24" viewBox="0 0 24 24" fill="none" xmlns="http://www.w3.org/2000/svg">
<rect x="0.5" y="0.5" width="22" height="22" rx="2" fill="var(--mw-icon-background-default-white, #FFFFFF)" stroke="var(--mw-icon-border-default-gray, #616161)"/>
<path d="M3.5 11.5H7.5V22.5H3.5V11.5Z" fill="var(--mw-icon-background-default-selection, #B4DEFF)"/>
<path d="M11.5 7.5H15.5V22.5H11.5V7.5Z" fill="var(--mw-icon-background-default-selection, #B4DEFF)"/>
<path d="M7.5 4.5H11.5V22.5H7.5V4.5Z" fill="var(--mw-icon-background-default-selection, #B4DEFF)"/>
<path d="M15.5 17.5H19.5V22.5H15.5V17.5Z" fill="var(--mw-icon-background-default-selection, #B4DEFF)"/>
<path d="M3.5 11.5V11C3.22386 11 3 11.2239 3 11.5H3.5ZM7.5 11.5H8C8 11.2239 7.77614 11 7.5 11V11.5ZM3.5 22.5H3C3 22.7761 3.22386 23 3.5 23V22.5ZM11.5 7.5V7C11.2239 7 11 7.22386 11 7.5H11.5ZM15.5 7.5H16C16 7.22386 15.7761 7 15.5 7V7.5ZM7.5 4.5V4C7.22386 4 7 4.22386 7 4.5H7.5ZM11.5 4.5H12C12 4.22386 11.7761 4 11.5 4V4.5ZM15.5 17.5V17C15.2239 17 15 17.2239 15 17.5H15.5ZM19.5 17.5H20C20 17.2239 19.7761 17 19.5 17V17.5ZM19.5 22.5V23C19.7761 23 20 22.7761 20 22.5H19.5ZM3.5 12H7.5V11H3.5V12ZM7 11.5V22.5H8V11.5H7ZM7.5 22H3.5V23H7.5V22ZM4 22.5V11.5H3V22.5H4ZM11.5 8H15.5V7H11.5V8ZM15 7.5V22.5H16V7.5H15ZM15.5 22H11.5V23H15.5V22ZM12 22.5V7.5H11V22.5H12ZM7.5 5H11.5V4H7.5V5ZM11 4.5V22.5H12V4.5H11ZM11.5 22H7.5V23H11.5V22ZM8 22.5V4.5H7V22.5H8ZM15.5 18H19.5V17H15.5V18ZM19 17.5V22.5H20V17.5H19ZM19.5 22H15.5V23H19.5V22ZM16 22.5V17.5H15V22.5H16Z" fill="var(--mw-icon-border-default-blue, #1656A7)"/>
<rect x="0.5" y="0.5" width="22" height="22" rx="2" stroke="var(--mw-icon-border-default-gray, #616161)"/>
</svg>
