<svg width="24" height="24" viewBox="0 0 24 24" fill="none" xmlns="http://www.w3.org/2000/svg">
<path d="M7.5 2.5L7.5 21.5C7.5 22.0523 7.94772 22.5 8.5 22.5L22.5 22.5C23.0523 22.5 23.5 22.0523 23.5 21.5L23.5 6.41421C23.5 6.149 23.3946 5.89464 23.2071 5.70711L19.2929 1.79289C19.1054 1.60536 18.851 1.5 18.5858 1.5L8.5 1.5C7.94771 1.5 7.5 1.94772 7.5 2.5Z" fill="var(--mw-icon-background-default-white, #FFFFFF)" stroke="var(--mw-icon-border-default-gray, #616161)"/>
<path d="M21.6348 11.4492V12.5083H17.9521V11.4492H21.6348ZM20.3384 9.7002V14.3584H19.2617V9.7002H20.3384Z" fill="var(--mw-icon-glyph-content-gray, #616162)"/>
<path d="M17.3105 11.4492V12.5083H13.6279V11.4492H17.3105ZM16.0142 9.7002V14.3584H14.9375V9.7002H16.0142Z" fill="var(--mw-icon-glyph-content-gray, #616162)"/>
<path d="M10.4946 8.25V15H9.36523V8.25H10.4946ZM10.3145 12.4556L9.98486 12.46C9.98193 12.1289 10.0156 11.8228 10.0859 11.5415C10.1592 11.2603 10.2632 11.0171 10.3979 10.812C10.5327 10.604 10.6953 10.4429 10.8857 10.3286C11.0791 10.2144 11.293 10.1572 11.5273 10.1572C11.7207 10.1572 11.8979 10.1909 12.0591 10.2583C12.2202 10.3228 12.3594 10.4268 12.4766 10.5703C12.5938 10.7139 12.6831 10.9014 12.7446 11.1328C12.8091 11.3613 12.8413 11.6411 12.8413 11.9722V15H11.7119V11.9634C11.7119 11.7495 11.6899 11.5796 11.646 11.4536C11.6021 11.3276 11.5347 11.2383 11.4438 11.1855C11.356 11.1328 11.2461 11.1064 11.1143 11.1064C10.9766 11.1064 10.8564 11.1416 10.7539 11.2119C10.6543 11.2822 10.5708 11.3789 10.5034 11.502C10.439 11.625 10.3906 11.7686 10.3584 11.9326C10.3291 12.0938 10.3145 12.2681 10.3145 12.4556Z" fill="var(--mw-icon-glyph-content-gray, #616162)"/>
</svg>
