<svg width="24" height="24" viewBox="0 0 24 24" fill="none" xmlns="http://www.w3.org/2000/svg">
<path d="M0.5 18.5V4.5C0.5 2.29086 2.29086 0.5 4.5 0.5H18.5C20.7091 0.5 22.5 2.29086 22.5 4.5V18.5C22.5 20.7091 20.7091 22.5 18.5 22.5H4.5C2.29086 22.5 0.5 20.7091 0.5 18.5Z" fill="var(--mw-icon-background-default-white, white)"/>
<rect x="2.5" y="2.5" width="11" height="11" rx="1" fill="var(--mw-icon-background-default-selection, #B4DEFF)" stroke="var(--mw-icon-border-default-gray, #616161)"/>
<path d="M3 7.32652V12.4999C3 12.7761 3.22386 12.9999 3.5 12.9999H12.5C12.7761 12.9999 13 12.7761 13 12.4999V7.23257C10.6667 7.23257 11.5 10.9999 9.16667 7.23257C6.41477 2.78943 3.85254 5.16505 3.0347 7.14609C3.011 7.20348 3 7.26443 3 7.32652Z" fill="var(--mw-icon-glyph-content-green, #008014)"/>
<rect x="6" y="6" width="11" height="11" rx="1" fill="var(--mw-icon-background-default-selection, #B4DEFF)" stroke="var(--mw-icon-border-default-gray, #616161)"/>
<path d="M6.5 10.8265V15.9999C6.5 16.2761 6.72386 16.4999 7 16.4999H16C16.2761 16.4999 16.5 16.2761 16.5 15.9999V10.7326C14.1667 10.7326 15 14.4999 12.6667 10.7326C9.91477 6.28943 7.35254 8.66505 6.5347 10.6461C6.511 10.7035 6.5 10.7644 6.5 10.8265Z" fill="var(--mw-icon-glyph-content-green, #008014)"/>
<rect x="9.5" y="9.5" width="11" height="11" rx="1" fill="var(--mw-icon-background-default-selection, #B4DEFF)" stroke="var(--mw-icon-border-default-gray, #616161)"/>
<path d="M10 14.3265V19.4999C10 19.7761 10.2239 19.9999 10.5 19.9999H19.5C19.7761 19.9999 20 19.7761 20 19.4999V14.2326C17.6667 14.2326 18.5 17.9999 16.1667 14.2326C13.4148 9.78943 10.8525 12.1651 10.0347 14.1461C10.011 14.2035 10 14.2644 10 14.3265Z" fill="var(--mw-icon-glyph-content-green, #008014)"/>
<path d="M0.5 18.5V4.5C0.5 2.29086 2.29086 0.5 4.5 0.5H18.5C20.7091 0.5 22.5 2.29086 22.5 4.5V18.5C22.5 20.7091 20.7091 22.5 18.5 22.5H4.5C2.29086 22.5 0.5 20.7091 0.5 18.5Z" stroke="var(--mw-icon-border-default-gray, #616161)" stroke-linecap="round"/>

</svg>
