<svg width="24" height="24" viewBox="0 0 24 24" fill="none" xmlns="http://www.w3.org/2000/svg">
<circle cx="16.5" cy="9.5" r="3" stroke="var(--mw-icon-object-primary, #616160)"/>
<path d="M3 12L5.5 9.5L9.5 14.5L11.5 12.5L15.5 16.5H21.5" stroke="var(--mw-icon-object-primary, #616160)" stroke-linecap="square" stroke-linejoin="round"/>
<path d="M2.5 18.5V5.5C2.5 4.94772 2.94771 4.5 3.5 4.5H20.5C21.0523 4.5 21.5 4.94772 21.5 5.5V18.5C21.5 19.0523 21.0523 19.5 20.5 19.5H3.5C2.94772 19.5 2.5 19.0523 2.5 18.5Z" stroke="var(--mw-icon-object-primary, #616160)" stroke-linecap="square" stroke-linejoin="round"/>
<path d="M0.5 19.5V4.5C0.5 3.39543 1.39543 2.5 2.5 2.5H21.5C22.6046 2.5 23.5 3.39543 23.5 4.5V19.5C23.5 20.6046 22.6046 21.5 21.5 21.5H2.5C1.39543 21.5 0.5 20.6046 0.5 19.5Z" stroke="var(--mw-icon-object-primary, #616160)" stroke-linecap="square"/>
</svg>
