<svg width="24" height="24" viewBox="0 0 24 24" fill="none" xmlns="http://www.w3.org/2000/svg">
<path d="M22.5 0.5H1.5C0.947715 0.5 0.5 0.947715 0.5 1.5V22.5C0.5 23.0523 0.947715 23.5 1.5 23.5H22.5C23.0523 23.5 23.5 23.0523 23.5 22.5V1.5C23.5 0.947715 23.0523 0.5 22.5 0.5Z" fill="var(--mw-icon-object-secondary, #FFFFFE)" stroke="var(--mw-icon-object-primary, #616160)" stroke-linecap="round"/>
<path d="M2 7V2H7L2 7Z" fill="var(--mw-icon-object-primary, #616160)"/>
<path d="M2 15V10L10 2H15L2 15Z" fill="var(--mw-icon-object-primary, #616160)"/>
<path d="M14 22H9L22 9V14L14 22Z" fill="var(--mw-icon-object-primary, #616160)"/>
<path d="M22 17V22H17L22 17Z" fill="var(--mw-icon-object-primary, #616160)"/>
<path d="M6 22H2V18L18 2H22V6L6 22Z" fill="var(--mw-icon-object-primary, #616160)"/>
</svg>
