<svg width="24" height="24" viewBox="0 0 24 24" fill="none" xmlns="http://www.w3.org/2000/svg">
<path d="M0.5 18.5V4.5C0.5 2.29086 2.29086 0.5 4.5 0.5H18.5C20.7091 0.5 22.5 2.29086 22.5 4.5V18.5C22.5 20.7091 20.7091 22.5 18.5 22.5H4.5C2.29086 22.5 0.5 20.7091 0.5 18.5Z" fill="var(--mw-icon-background-default-white, white)"/>
<path d="M0.5 18.5V4.5C0.5 2.29086 2.29086 0.5 4.5 0.5H18.5C20.7091 0.5 22.5 2.29086 22.5 4.5V18.5C22.5 20.7091 20.7091 22.5 18.5 22.5H4.5C2.29086 22.5 0.5 20.7091 0.5 18.5Z" fill="var(--mw-icon-glyph-content-dark-gray, #333333)"/>
<path d="M0.5 18.5V4.5C0.5 2.29086 2.29086 0.5 4.5 0.5H11.5V22.5H4.5C2.29086 22.5 0.5 20.7091 0.5 18.5Z" fill="var(--mw-icon-background-default-medium-gray, #D9D9D9)"/>
<path d="M12.0002 9.19159C10.5907 6.97634 8.98229 5 7.5 5C5.58886 5 4.00952 8.47776 3.00189 10.6966C2.56458 11.6596 2.23495 12.3854 2.03262 12.4869C1.53434 12.7369 0.249143 12 0 11.5L0.5 18.5C0.5 20.9853 2.01472 22.5 4.5 22.5H12.0005L12.0002 9.19159Z" fill="#7D7D7D"/>
<path d="M11.5006 22.5H19.5L21.5 21.5L22.5 19.5V12.5001C21.6695 11.1668 19.6959 8.50009 18.5 8.50009C17.3041 8.50009 15.3304 11.8334 14.5 13.5001C14.3353 13.211 14.159 12.8956 13.9725 12.5621C13.1397 11.0726 12.1043 9.22074 11.0001 7.72241L11.5006 22.5Z" fill="var(--mw-icon-background-default-white, white)"/>
<path d="M11.5 1V22" stroke="var(--mw-icon-border-default-gray, #616161)"/>
<path d="M0.5 18.5V4.5C0.5 2.29086 2.29086 0.5 4.5 0.5H18.5C20.7091 0.5 22.5 2.29086 22.5 4.5V18.5C22.5 20.7091 20.7091 22.5 18.5 22.5H4.5C2.29086 22.5 0.5 20.7091 0.5 18.5Z" stroke="var(--mw-icon-border-default-gray, #616161)" stroke-linecap="round"/>

</svg>
