<svg width="24" height="24" viewBox="0 0 24 24" fill="none" xmlns="http://www.w3.org/2000/svg">
<path d="M0.5 18.5V4.5C0.5 2.29086 2.29086 0.5 4.5 0.5H18.5C20.7091 0.5 22.5 2.29086 22.5 4.5V18.5C22.5 20.7091 20.7091 22.5 18.5 22.5H4.5C2.29086 22.5 0.5 20.7091 0.5 18.5Z" fill="var(--mw-icon-background-default-white, white)"/>
<path d="M11 0H17C20.3137 0 23 2.68629 23 6V17C23 20.3137 20.3137 23 17 23H11V0Z" fill="var(--mw-icon-background-default-white, white)"/>
<path d="M0.5 18.5V4.5C0.5 2.29086 2.29086 0.5 4.5 0.5H11.5V22.5H4.5C2.29086 22.5 0.5 20.7091 0.5 18.5Z" fill="var(--mw-icon-glyph-content-dark-gray, #333333)"/>
<path d="M11.5 8.53684C10.0939 6.59658 8.55791 5 7.25 5C5.32914 5 3.73557 8.37359 2.72063 10.5222C2.28254 11.4497 1.95226 12.1489 1.75 12.25C1.25 12.5 0.75 12 0.5 11.5V20.25L3.5 22.75H11.5V8.53684Z" fill="var(--mw-icon-background-default-white, white)"/>
<path d="M11.5 1V22" stroke="var(--mw-icon-border-default-gray, #616161)"/>
<path d="M22 7.5L12 7.5" stroke="var(--mw-icon-border-default-gray, #616161)"/>
<path d="M22 15.5H12" stroke="var(--mw-icon-border-default-gray, #616161)"/>
<path d="M16.4817 6.5H13.3142V5.87158L14.8091 4.27832C15.0143 4.05404 15.1656 3.85832 15.2629 3.69116C15.3624 3.52401 15.4121 3.36532 15.4121 3.21509C15.4121 3.00985 15.3603 2.84904 15.2566 2.73267C15.1529 2.61418 15.0048 2.55493 14.8123 2.55493C14.6049 2.55493 14.4409 2.62687 14.3203 2.77075C14.2018 2.91252 14.1426 3.09977 14.1426 3.33252H13.2222C13.2222 3.05111 13.2888 2.79403 13.4221 2.56128C13.5575 2.32853 13.748 2.14657 13.9934 2.01538C14.2389 1.88208 14.5171 1.81543 14.8281 1.81543C15.3042 1.81543 15.6734 1.92969 15.9358 2.1582C16.2003 2.38672 16.3325 2.70939 16.3325 3.12622C16.3325 3.35474 16.2733 3.58748 16.1548 3.82446C16.0363 4.06144 15.8332 4.33757 15.5454 4.65283L14.4949 5.7605H16.4817V6.5Z" fill="#212121"/>
<path d="M19.5349 1.8313V2.58667H19.446C19.0313 2.59302 18.697 2.70093 18.4431 2.9104C18.1913 3.11987 18.04 3.41081 17.9893 3.7832C18.2347 3.53353 18.5447 3.40869 18.9192 3.40869C19.3212 3.40869 19.6407 3.55257 19.8777 3.84033C20.1147 4.12809 20.2332 4.50684 20.2332 4.97656C20.2332 5.27702 20.1676 5.54891 20.0364 5.79224C19.9073 6.03556 19.7232 6.22494 19.4841 6.36035C19.2472 6.49577 18.9784 6.56348 18.678 6.56348C18.1913 6.56348 17.7978 6.39421 17.4973 6.05566C17.199 5.71712 17.0498 5.26538 17.0498 4.70044V4.37036C17.0498 3.8689 17.144 3.42668 17.3323 3.0437C17.5227 2.65861 17.7946 2.36133 18.1479 2.15186C18.5034 1.94027 18.915 1.83341 19.3826 1.8313H19.5349ZM18.6399 4.14502C18.4918 4.14502 18.3574 4.18416 18.2368 4.26245C18.1162 4.33862 18.0273 4.44019 17.9702 4.56714V4.84644C17.9702 5.15324 18.0305 5.39339 18.1511 5.56689C18.2717 5.73828 18.441 5.82397 18.6589 5.82397C18.8557 5.82397 19.0144 5.74674 19.135 5.59229C19.2577 5.43571 19.3191 5.23364 19.3191 4.98608C19.3191 4.73429 19.2577 4.53117 19.135 4.37671C19.0123 4.22225 18.8472 4.14502 18.6399 4.14502Z" fill="#212121"/>
<path d="M16.0278 12.2607H16.5515V13.0002H16.0278V14H15.1106V13.0002H13.2158L13.1746 12.4226L15.1011 9.37891H16.0278V12.2607ZM14.0886 12.2607H15.1106V10.6294L15.0503 10.7341L14.0886 12.2607Z" fill="#212121"/>
<path d="M20.1887 9.89307L18.4019 14H17.4338L19.2239 10.1216H16.926V9.37891H20.1887V9.89307Z" fill="#212121"/>
<path d="M14.2473 18.7832H14.7361C14.9688 18.7832 15.1413 18.725 15.2534 18.6086C15.3656 18.4923 15.4216 18.3378 15.4216 18.1453C15.4216 17.9591 15.3656 17.8141 15.2534 17.7104C15.1434 17.6068 14.991 17.5549 14.7964 17.5549C14.6208 17.5549 14.4737 17.6036 14.3552 17.7009C14.2367 17.7961 14.1775 17.921 14.1775 18.0754H13.2603C13.2603 17.8342 13.3248 17.6184 13.4539 17.428C13.585 17.2354 13.767 17.0852 13.9998 16.9773C14.2346 16.8694 14.4928 16.8154 14.7742 16.8154C15.2629 16.8154 15.6459 16.9329 15.9231 17.1677C16.2003 17.4005 16.3389 17.7221 16.3389 18.1326C16.3389 18.3442 16.2743 18.5388 16.1453 18.7166C16.0162 18.8943 15.8469 19.0308 15.6375 19.126C15.8977 19.2191 16.0913 19.3587 16.2183 19.5449C16.3473 19.7311 16.4119 19.9512 16.4119 20.2051C16.4119 20.6156 16.2616 20.9446 15.9612 21.1921C15.6628 21.4397 15.2672 21.5635 14.7742 21.5635C14.3129 21.5635 13.9352 21.4418 13.6411 21.1985C13.3491 20.9552 13.2031 20.6335 13.2031 20.2336H14.1204C14.1204 20.4071 14.1849 20.5489 14.314 20.6589C14.4451 20.769 14.606 20.824 14.7964 20.824C15.0143 20.824 15.1847 20.7668 15.3074 20.6526C15.4322 20.5362 15.4946 20.3828 15.4946 20.1924C15.4946 19.7311 15.2407 19.5005 14.7329 19.5005H14.2473V18.7832Z" fill="#212121"/>
<path d="M0.5 18.5V4.5C0.5 2.29086 2.29086 0.5 4.5 0.5H18.5C20.7091 0.5 22.5 2.29086 22.5 4.5V18.5C22.5 20.7091 20.7091 22.5 18.5 22.5H4.5C2.29086 22.5 0.5 20.7091 0.5 18.5Z" stroke="var(--mw-icon-border-default-gray, #616161)" stroke-linecap="round"/>

</svg>
