<svg width="24" height="24" viewBox="0 0 24 24" fill="none" xmlns="http://www.w3.org/2000/svg">
<path d="M0.5 18.5V4.5C0.5 2.29086 2.29086 0.5 4.5 0.5H18.5C20.7091 0.5 22.5 2.29086 22.5 4.5V18.5C22.5 20.7091 20.7091 22.5 18.5 22.5H4.5C2.29086 22.5 0.5 20.7091 0.5 18.5Z" fill="var(--mw-icon-background-default-selection, #B4DEFF)"/>
<path d="M11.5 8.53684C10.0939 6.59658 8.55791 5 7.25 5C5.32914 5 3.73557 8.37359 2.72063 10.5222C2.28254 11.4497 1.95226 12.1489 1.75 12.25C1.25 12.5 0.75 12 0.5 11.5V20.25L3.5 22.75H11.5V8.53684Z" fill="var(--mw-icon-glyph-content-green, #008014)"/>
<rect x="12" y="3" width="4" height="4" fill="#54B6FF"/>
<rect x="12" y="1" width="4" height="2" fill="var(--mw-icon-background-default-selection, #B4DEFF)"/>
<rect x="16" y="11" width="4" height="4" fill="var(--mw-icon-glyph-content-green, #008014)"/>
<rect x="12" y="7" width="4" height="4" fill="var(--mw-icon-background-medium-blue, #83CAFF)"/>
<rect x="16" y="15" width="4" height="4" fill="#94EF84"/>
<rect x="12" y="15" width="4" height="4" fill="var(--mw-icon-glyph-content-dark-green, #02580E)"/>
<rect x="16" y="3" width="4" height="4" fill="#1171BE"/>
<rect x="16" y="1" width="4" height="2" fill="var(--mw-icon-background-medium-blue, #83CAFF)"/>
<rect x="12" y="11" width="4" height="4" fill="#3AC831"/>
<rect x="16" y="7" width="4" height="4" fill="#54B6FF"/>
<rect x="12" y="19" width="4" height="3" fill="#3AC831"/>
<rect x="16" y="19" width="4" height="3" fill="var(--mw-icon-glyph-content-green, #008014)"/>
<rect x="20" y="3" width="2" height="4" fill="var(--mw-icon-background-default-selection, #B4DEFF)"/>
<path d="M20 1L21.5 1.5L22 3H20V1Z" fill="#54B6FF"/>
<rect x="20" y="7" width="2" height="4" fill="#3AC831"/>
<rect x="20" y="11" width="2" height="4" fill="var(--mw-icon-glyph-content-dark-green, #02580E)"/>
<path d="M20 19H22L21.5 21L20 22V19Z" fill="var(--mw-icon-glyph-content-dark-green, #02580E)"/>
<rect x="20" y="15" width="2" height="4" fill="#3AC831"/>
<path d="M11.5 1V22" stroke="var(--mw-icon-border-default-gray, #616161)"/>
<path d="M0.5 18.5V4.5C0.5 2.29086 2.29086 0.5 4.5 0.5H18.5C20.7091 0.5 22.5 2.29086 22.5 4.5V18.5C22.5 20.7091 20.7091 22.5 18.5 22.5H4.5C2.29086 22.5 0.5 20.7091 0.5 18.5Z" stroke="var(--mw-icon-border-default-gray, #616161)" stroke-linecap="round"/>

</svg>
