<svg width="24" height="24" viewBox="0 0 24 24" fill="none" xmlns="http://www.w3.org/2000/svg">
<path d="M20.5 0.5H2.5C1.39543 0.5 0.5 1.39543 0.5 2.5V20.5C0.5 21.6046 1.39543 22.5 2.5 22.5H20.5C21.6046 22.5 22.5 21.6046 22.5 20.5V2.5C22.5 1.39543 21.6046 0.5 20.5 0.5Z" fill="#EDB120" stroke="var(--mw-icon-border-default-gray, #616161)" stroke-linecap="round"/>
<path d="M22.0217 2.47827V15.3261C20.1087 8.63045 16.2826 8.63045 14.3696 15.3261C11.5 2.89131 3.84784 2.89131 0.978271 15.3261V2.47827C0.978271 1.64984 1.64985 0.978271 2.47827 0.978271H20.5217C21.3502 0.978271 22.0217 1.64984 22.0217 2.47827Z" fill="var(--mw-icon-background-default-selection, #B4DEFF)"/>
<circle cx="18.5" cy="4.5" r="2.5" fill="#DD5400"/>
</svg>
