<svg width="24" height="24" viewBox="0 0 24 24" fill="none" xmlns="http://www.w3.org/2000/svg">
<path d="M0.5 16.5V3.5C0.5 2.94772 0.947715 2.5 1.5 2.5H18.5C19.0523 2.5 19.5 2.94772 19.5 3.5V16.5C19.5 17.0523 19.0523 17.5 18.5 17.5H1.5C0.947715 17.5 0.5 17.0523 0.5 16.5Z" fill="var(--mw-icon-background-default-medium-gray, #D9D9D9)" stroke="var(--mw-icon-border-default-gray, #616161)" stroke-linecap="square"/>
<path d="M4.5 20.5V7.5C4.5 6.94772 4.94771 6.5 5.5 6.5H22.5C23.0523 6.5 23.5 6.94772 23.5 7.5V20.5C23.5 21.0523 23.0523 21.5 22.5 21.5H5.5C4.94772 21.5 4.5 21.0523 4.5 20.5Z" fill="var(--mw-icon-background-default-white, #FFFFFF)" stroke="var(--mw-icon-border-default-gray, #616161)" stroke-linecap="square"/>
<path d="M6.5 19.5V8.5H21.5V19.5H6.5Z" fill="white" stroke="var(--mw-icon-glyph-content-gray, #616162)" stroke-linecap="square" stroke-linejoin="round"/>
<circle cx="17.5" cy="12.5" r="2" fill="white" stroke="var(--mw-icon-glyph-content-gray, #616162)"/>
<path d="M6.5 13.5L8.5 12L12.348 16.0001L13.5871 14.7609L16.5 17.5H21.5" stroke="var(--mw-icon-glyph-content-gray, #616162)" stroke-linecap="round" stroke-linejoin="round"/>
</svg>
