<svg width="24" height="24" viewBox="0 0 24 24" fill="none" xmlns="http://www.w3.org/2000/svg">
<path d="M0.5 18.5V4.5C0.5 2.29086 2.29086 0.5 4.5 0.5H18.5C20.7091 0.5 22.5 2.29086 22.5 4.5V18.5C22.5 20.7091 20.7091 22.5 18.5 22.5H4.5C2.29086 22.5 0.5 20.7091 0.5 18.5Z" fill="var(--mw-icon-background-default-selection, #B4DEFF)"/>
<path d="M2.03262 14.9869C1.53434 15.2369 0.249143 14.5 0 14L0.5 18L1 20.5L3.5 22.5H18C18.9737 22.5 19.9211 22.1842 20.7 21.6L21.5 21L22.5 19L23 15C22.1695 13.6667 20.1959 11 19 11C17.8041 11 15.3305 14.3333 14.5 16C12.839 13.0833 9.99143 7.5 7.5 7.5C4.75943 7.5 2.70114 14.6515 2.03262 14.9869Z" fill="var(--mw-icon-glyph-content-green, #008014)"/>
<mask id="path-3-inside-1_822_4513" fill="var(--mw-icon-background-default-white, white)">
<rect x="10" y="3" width="10" height="10" rx="0.5"/>
</mask>
<rect x="10" y="3" width="10" height="10" rx="0.5" fill="var(--mw-icon-background-default-selection, #B4DEFF)" stroke="var(--mw-icon-glyph-content-dark-blue, #104280)" stroke-width="2" mask="url(#path-3-inside-1_822_4513)"/>
<mask id="path-4-inside-2_822_4513" fill="var(--mw-icon-background-default-white, white)">
<rect x="9" y="2" width="3" height="3" rx="0.5"/>
</mask>
<rect x="9" y="2" width="3" height="3" rx="0.5" fill="var(--mw-icon-background-default-white, white)" stroke="var(--mw-icon-glyph-content-dark-blue, #104280)" stroke-width="2" mask="url(#path-4-inside-2_822_4513)"/>
<mask id="path-5-inside-3_822_4513" fill="var(--mw-icon-background-default-white, white)">
<rect x="18" y="2" width="3" height="3" rx="0.5"/>
</mask>
<rect x="18" y="2" width="3" height="3" rx="0.5" fill="var(--mw-icon-background-default-white, white)" stroke="var(--mw-icon-glyph-content-dark-blue, #104280)" stroke-width="2" mask="url(#path-5-inside-3_822_4513)"/>
<mask id="path-6-inside-4_822_4513" fill="var(--mw-icon-background-default-white, white)">
<rect x="18" y="11" width="3" height="3" rx="0.5"/>
</mask>
<rect x="18" y="11" width="3" height="3" rx="0.5" fill="var(--mw-icon-background-default-white, white)" stroke="var(--mw-icon-glyph-content-dark-blue, #104280)" stroke-width="2" mask="url(#path-6-inside-4_822_4513)"/>
<mask id="path-7-inside-5_822_4513" fill="var(--mw-icon-background-default-white, white)">
<rect x="9" y="11" width="3" height="3" rx="0.5"/>
</mask>
<rect x="9" y="11" width="3" height="3" rx="0.5" fill="var(--mw-icon-background-default-white, white)" stroke="var(--mw-icon-glyph-content-dark-blue, #104280)" stroke-width="2" mask="url(#path-7-inside-5_822_4513)"/>
<circle cx="15" cy="8" r="2.5" fill="#FF453A" stroke="var(--mw-icon-glyph-content-dark-red, #610908)"/>
<path d="M0.5 18.5V4.5C0.5 2.29086 2.29086 0.5 4.5 0.5H18.5C20.7091 0.5 22.5 2.29086 22.5 4.5V18.5C22.5 20.7091 20.7091 22.5 18.5 22.5H4.5C2.29086 22.5 0.5 20.7091 0.5 18.5Z" stroke="var(--mw-icon-border-default-gray, #616161)" stroke-linecap="round"/>

</svg>
