<svg width="24" height="24" viewBox="0 0 24 24" fill="none" xmlns="http://www.w3.org/2000/svg">
<path d="M10 6.5V6H9V6.5H10ZM14.5 7.5H15C15 7.22386 14.7761 7 14.5 7V7.5ZM14 9.5V10H15V9.5H14ZM10 5.5V5H9V5.5H10ZM4.5 7.5V7C4.22386 7 4 7.22386 4 7.5H4.5ZM4 9.5V10H5V9.5H4ZM9 6.5V7.5H10V6.5H9ZM9.5 8H14.5V7H9.5V8ZM14 7.5V9.5H15V7.5H14ZM9 5.5V7.5H10V5.5H9ZM9.5 7H4.5V8H9.5V7ZM4 7.5V9.5H5V7.5H4Z" fill="var(--mw-icon-glyph-disabled-gray, #888889)"/>
<path d="M18.5 14.5V10.5H10.5V14.5H18.5Z" fill="var(--mw-icon-background-medium-yellow, #FFEF91)"/>
<path d="M8.5 14.5V10.5H0.5V14.5H8.5Z" fill="var(--mw-icon-background-medium-yellow, #FFEF91)"/>
<path d="M18.5 14.5V10.5H10.5V14.5H18.5Z" stroke="#674C06" stroke-linecap="square" stroke-linejoin="round"/>
<path d="M8.5 14.5V10.5H0.5V14.5H8.5Z" stroke="#674C06" stroke-linecap="square" stroke-linejoin="round"/>
<path d="M13.5 4.5V0.5H5.5V4.5H13.5Z" fill="var(--mw-icon-background-default-selection, #B4DEFF)" stroke="var(--mw-icon-border-default-blue, #1656A7)" stroke-linecap="square" stroke-linejoin="round"/>
<mask id="path-4-inside-1_14740_34570" fill="var(--mw-icon-background-default-white, #FFFFFF)">
<path d="M14.8076 11L20.1924 11L24 14.8076V20.1924L20.1924 24H14.8076L11 20.1924L11 14.8076L14.8076 11Z"/>
</mask>
<path d="M14.8076 11L20.1924 11L24 14.8076V20.1924L20.1924 24H14.8076L11 20.1924L11 14.8076L14.8076 11Z" fill="var(--mw-icon-alert-red, #B7313C)" stroke="var(--mw-icon-alert-red, #B7313C)" stroke-width="2" mask="url(#path-4-inside-1_14740_34570)"/>
<path d="M18 20.5C18 20.7761 17.7761 21 17.5 21C17.2239 21 17 20.7761 17 20.5C17 20.2239 17.2239 20 17.5 20C17.7761 20 18 20.2239 18 20.5Z" fill="white"/>
<path fill-rule="evenodd" clip-rule="evenodd" d="M17.5 14C17.7761 14 18 14.2239 18 14.5V18.5C18 18.7761 17.7761 19 17.5 19C17.2239 19 17 18.7761 17 18.5V14.5C17 14.2239 17.2239 14 17.5 14Z" fill="white"/>
</svg>
