<svg width="24" height="24" viewBox="0 0 24 24" fill="none" xmlns="http://www.w3.org/2000/svg">
<rect x="0.5" y="0.5" width="18" height="18" rx="2" fill="var(--mw-icon-background-light-yellow, #FFF5BC)" stroke="var(--mw-icon-border-default-blue, #1656A7)"/>
<path d="M1.5 9.49999H17.5M9.50015 1.5L9.50015 17.5" stroke="var(--mw-icon-glyph-content-light-blue, #278CDD)" stroke-linecap="square"/>
<path d="M9.5 11.5C9.5 10.3954 10.3954 9.5 11.5 9.5H21.5C22.6046 9.5 23.5 10.3954 23.5 11.5V21.5C23.5 22.6046 22.6046 23.5 21.5 23.5H11.5C10.3954 23.5 9.5 22.6046 9.5 21.5V11.5Z" fill="var(--mw-icon-background-default-white, #FFFFFF)" stroke="var(--mw-icon-border-default-gray, #616161)"/>
<path d="M15.5 16.5L12.5 16.5L17 22L21.5 16.5L18.5 16.5L18.5 15.5C18.5 13.2909 16.7091 11.5 14.5 11.5L10 11.5C12.2091 11.5 15.5 12.7909 15.5 15L15.5 16.5Z" fill="var(--mw-icon-background-default-action, #CBFFBE)" stroke="var(--mw-icon-glyph-content-green, #008014)" stroke-linecap="square"/>
</svg>
