<svg width="24" height="24" viewBox="0 0 24 24" fill="none" xmlns="http://www.w3.org/2000/svg">
<path d="M9.5 10.5H3L12.4211 22.5L22 10.5H15.5L15.4695 8.84345C15.3841 4.21084 11.6043 0.5 6.97093 0.5H2.00655C6.1564 0.5 9.51745 3.86991 9.50653 8.01974L9.5 10.5Z" fill="var(--mw-icon-background-default-action, #CBFFBE)"/>
<path d="M3 10.5V10H1.97177L2.60672 10.8088L3 10.5ZM9.5 10.5V11H9.99869L10 10.5013L9.5 10.5ZM9.50653 8.01974L9.00653 8.01842V8.01842L9.50653 8.01974ZM1.5 0H1V1H1.5V0ZM15.4695 8.84345L15.9694 8.83424L15.4695 8.84345ZM15.5 10.5L15.0001 10.5092L15.0091 11H15.5V10.5ZM22 10.5L22.3908 10.8119L23.0389 10H22V10.5ZM12.4211 22.5L12.0278 22.8088L12.4178 23.3055L12.8118 22.8119L12.4211 22.5ZM3 11H9.5V10H3V11ZM10 10.5013L10.0065 8.02105L9.00653 8.01842L9 10.4987L10 10.5013ZM2.00655 0H1.5V1H2.00655V0ZM2.00655 1H6.97093V0H2.00655V1ZM14.9696 8.85266L15.0001 10.5092L15.9999 10.4908L15.9694 8.83424L14.9696 8.85266ZM15.5 11H22V10H15.5V11ZM21.6092 10.1881L12.0303 22.1881L12.8118 22.8119L22.3908 10.8119L21.6092 10.1881ZM12.8143 22.1912L3.39328 10.1912L2.60672 10.8088L12.0278 22.8088L12.8143 22.1912ZM6.97093 1C11.3318 1 14.8893 4.49256 14.9696 8.85266L15.9694 8.83424C15.879 3.92913 11.8769 0 6.97093 0V1ZM10.0065 8.02105C10.0182 3.59457 6.43306 0 2.00655 0V1C5.87974 1 9.01672 4.14525 9.00653 8.01842L10.0065 8.02105Z" fill="var(--mw-icon-border-default-green, #008013)"/>

</svg>
