<svg width="24" height="24" viewBox="0 0 24 24" fill="none" xmlns="http://www.w3.org/2000/svg">
<path d="M0.5 22.5V15.5C0.5 14.9477 0.947715 14.5 1.5 14.5H22.5C23.0523 14.5 23.5 14.9477 23.5 15.5V22.5C23.5 23.0523 23.0523 23.5 22.5 23.5H1.5C0.947715 23.5 0.5 23.0523 0.5 22.5Z" fill="var(--mw-icon-background-default-light-gray, #F5F5F5)" stroke="var(--mw-icon-border-default-gray, #616161)"/>
<circle cx="20" cy="19" r="1.5" fill="var(--mw-icon-background-default-action, #CBFFBE)" stroke="var(--mw-icon-glyph-content-green, #008014)"/>
<path d="M9.5 9.5H4.5L12 19.5L19.5 9.5H14.5V8.5C14.5 4.08172 10.9183 0.5 6.5 0.5H3C6.58985 0.5 9.5 3.41015 9.5 7V9.5Z" fill="var(--mw-icon-background-default-action, #CBFFBE)"/>
<path d="M4.5 9.5V9H3.5L4.1 9.8L4.5 9.5ZM9.5 9.5V10H10V9.5H9.5ZM14.5 9.5H14V10H14.5V9.5ZM19.5 9.5L19.9 9.8L20.5 9H19.5V9.5ZM12 19.5L11.6 19.8L12 20.3333L12.4 19.8L12 19.5ZM4.5 10H9.5V9H4.5V10ZM10 9.5V7H9V9.5H10ZM3 1H6.5V0H3V1ZM14 8.5V9.5H15V8.5H14ZM14.5 10H19.5V9H14.5V10ZM19.1 9.2L11.6 19.2L12.4 19.8L19.9 9.8L19.1 9.2ZM12.4 19.2L4.9 9.2L4.1 9.8L11.6 19.8L12.4 19.2ZM6.5 1C10.6421 1 14 4.35786 14 8.5H15C15 3.80558 11.1944 0 6.5 0V1ZM10 7C10 3.13401 6.86599 0 3 0V1C6.31371 1 9 3.68629 9 7H10Z" fill="var(--mw-icon-border-default-green, #008013)"/>
<path d="M5.73423 19.984H6.99159C6.96636 20.3768 6.85282 20.7255 6.65097 21.0301C6.45192 21.3347 6.17297 21.5725 5.81413 21.7435C5.45809 21.9145 5.02916 22 4.52733 22C4.13485 22 3.78301 21.9359 3.47183 21.8076C3.16064 21.6767 2.89431 21.4896 2.67283 21.2465C2.45416 21.0033 2.28736 20.7094 2.17241 20.3647C2.05747 20.02 2 19.6339 2 19.2064V18.8016C2 18.3741 2.05887 17.988 2.17662 17.6433C2.29717 17.2959 2.46818 17.0007 2.68966 16.7575C2.91393 16.5144 3.18167 16.3273 3.49285 16.1964C3.80404 16.0655 4.15167 16 4.53574 16C5.04598 16 5.47631 16.0882 5.82675 16.2645C6.17998 16.4409 6.45332 16.684 6.64676 16.994C6.84301 17.3039 6.96075 17.6566 7 18.0521H5.73844C5.72442 17.817 5.67536 17.6179 5.59125 17.4549C5.50715 17.2892 5.37959 17.165 5.20858 17.0822C5.04037 16.9967 4.81609 16.9539 4.53574 16.9539C4.32548 16.9539 4.14186 16.9913 3.98486 17.0661C3.82787 17.1409 3.6961 17.2545 3.58957 17.4068C3.48304 17.5591 3.40314 17.7515 3.34987 17.984C3.29941 18.2138 3.27418 18.4836 3.27418 18.7936V19.2064C3.27418 19.5084 3.29801 19.7742 3.34567 20.004C3.39333 20.2311 3.46622 20.4235 3.56434 20.5812C3.66526 20.7361 3.79422 20.8537 3.95122 20.9339C4.11102 21.0114 4.30306 21.0501 4.52733 21.0501C4.79086 21.0501 5.00813 21.01 5.17914 20.9299C5.35015 20.8497 5.48052 20.7308 5.57023 20.5731C5.66274 20.4155 5.71741 20.2191 5.73423 19.984Z" fill="var(--mw-icon-glyph-content-gray, #616162)"/>
</svg>
