<svg width="24" height="24" viewBox="0 0 24 24" fill="none" xmlns="http://www.w3.org/2000/svg">
<path d="M8.5 12.5L0.5 8.5V12.5L8.5 16.5V12.5Z" fill="var(--mw-icon-background-red, #FF9D9A)" stroke="var(--mw-icon-border-default-red, #902622)" stroke-linejoin="round"/>
<path d="M8.5 12.5L16.5 8.5V12.5L8.5 16.5L4.5 14.5V10.5L8.5 12.5Z" fill="#FFAB66"/>
<path d="M8.5 12.5L16.5 8.5V12.5L8.5 16.5M8.5 12.5V16.5M8.5 12.5L4.5 10.5V14.5L8.5 16.5" stroke="#A24302" stroke-linejoin="round"/>
<path d="M0.5 4.5L4.5 2.5L12.5 6.5V10.5L8.5 12.5L4.5 10.5L0.5 8.5V4.5Z" fill="var(--mw-icon-background-default-action, #CBFFBE)"/>
<path d="M0.5 4.5L8.5 8.5M0.5 4.5L4.5 2.5L12.5 6.5M0.5 4.5V8.5L4.5 10.5L8.5 12.5M8.5 8.5C8.5 8.5 11.2219 7.13903 12.5 6.5M8.5 8.5C8.5 8.5 8.5 11.1586 8.5 12.5M12.5 6.5V10.5L8.5 12.5" stroke="var(--mw-icon-border-default-green, #008013)" stroke-linejoin="round"/>
<path d="M8.5 0.5L16.5 4.5V8.5L12.5 10.5V6.5L4.5 2.5L8.5 0.5Z" fill="var(--mw-icon-background-default-selection, #B4DEFF)"/>
<path d="M16.5 4.5L8.5 0.5L4.5 2.5L12.5 6.5M16.5 4.5L12.5 6.5M16.5 4.5V8.5L12.5 10.5V6.5" stroke="var(--mw-icon-border-default-blue, #1656A7)" stroke-linejoin="round"/>
<path d="M9.5 11.5C9.5 10.3954 10.3954 9.5 11.5 9.5H21.5C22.6046 9.5 23.5 10.3954 23.5 11.5V21.5C23.5 22.6046 22.6046 23.5 21.5 23.5H11.5C10.3954 23.5 9.5 22.6046 9.5 21.5V11.5Z" fill="var(--mw-icon-background-default-white, #FFFFFF)"/>
<path d="M15.5 16.5L12.5 16.5L17 22L21.5 16.5L18.5 16.5L18.5 15.5C18.5 13.2909 16.7091 11.5 14.5 11.5L10 11.5C12.2091 11.5 15.5 12.7909 15.5 15L15.5 16.5Z" fill="var(--mw-icon-background-default-action, #CBFFBE)" stroke="var(--mw-icon-border-default-green, #008013)" stroke-linecap="square"/>
<path d="M9.5 11.5C9.5 10.3954 10.3954 9.5 11.5 9.5H21.5C22.6046 9.5 23.5 10.3954 23.5 11.5V21.5C23.5 22.6046 22.6046 23.5 21.5 23.5H11.5C10.3954 23.5 9.5 22.6046 9.5 21.5V11.5Z" stroke="var(--mw-icon-border-default-gray, #616161)"/>
</svg>
