<svg width="24" height="24" viewBox="0 0 24 24" fill="none" xmlns="http://www.w3.org/2000/svg">
<path d="M0.5 8.5L9.5 14.5L18.5 8.5L9.5 2.5L0.5 8.5Z" fill="#3BAA32" stroke="var(--mw-icon-glyph-content-green, #008014)" stroke-linejoin="round"/>
<path d="M5.88855 8.6466C6.17954 8.84077 7.47703 8.7784 7.518 8.86887C7.6874 9.24301 6.41401 9.40014 6.09973 9.62679C5.99946 9.6991 5.38215 9.45817 5.27399 9.48061C4.70996 9.59761 5.48881 9.70139 4.9066 9.93444C3.77624 10.3869 3.244 9.63215 2.00356 8.9129L1.04443 8.26172C1.7828 8.44473 3.01861 9.05311 3.44865 8.96051C3.97986 8.84613 5.73341 8.6466 5.88855 8.6466Z" fill="#49DB40"/>
<path d="M10.579 11.6154C10.87 11.8095 12.1798 11.7425 12.2085 11.8376C12.2931 12.1179 11.6263 12.4948 11.6263 12.4948L10.9922 12.8945L9.51172 13.9062C9.51172 13.9062 7.82422 12.7617 6.62891 12L6.28125 11.7461C7.01962 11.9291 7.7413 11.8387 8.17134 11.7461C8.70254 11.6317 10.4239 11.6154 10.579 11.6154Z" fill="#49DB40"/>
<path d="M13.5198 6.63662L12.9273 6.24908L12.457 6.0956C12.1155 6.16091 10.3065 4.75084 10.1211 4.80051C9.83721 4.87656 9.36012 5.76381 8.38667 5.46859C7.74545 5.72201 7.00098 5.46859 6.9731 5.46859C6.94522 5.46859 5.22113 5.83118 4.77274 5.72146L3.11624 6.55508L2.56421 7.07843L2.94378 8.3695L5.71682 9.28111C6.26744 9.32291 7.41613 9.34756 7.47747 9.34756C7.5388 9.34756 6.69438 10.8661 7.26677 11.4033C7.83917 11.9406 8.56143 11.4426 8.7595 11.4033C8.96106 11.3634 10.1695 12.2259 10.7118 11.8984C11.2542 11.5708 11.0613 11.0446 11.9411 10.6247C12.565 10.327 13.1097 10.6247 13.6766 10.6247C13.6766 10.6247 15.1983 11.5208 15.4249 10.8661C15.4665 10.7458 14.7801 8.03452 14.6534 7.84019C14.4924 7.59328 14.203 7.24173 14.203 7.24173L13.5198 6.63662Z" fill="var(--mw-icon-border-default-green, #008013)"/>
<path d="M10.2084 11.2862C9.9713 10.9595 9.83035 10.8222 9.63871 10.6067C9.44706 10.3912 9.17205 10.2989 8.82838 10.3024C8.37989 10.3071 7.80475 10.0994 7.62772 10.279C7.49382 10.4148 6.0517 11.3301 6.23435 11.707C6.3259 11.896 7.28481 11.8278 7.79483 12.0254C8.294 12.2188 8.85813 12.9862 9.14579 12.9632C9.5264 12.9328 10.0855 12.3211 10.4914 12.1833C10.8974 12.0454 11.3079 12.0701 11.5021 11.9276C11.6964 11.785 10.4455 11.6128 10.2084 11.2862Z" fill="#ABC739"/>
<path d="M5.01909 7.93397C4.78197 7.60733 4.64103 7.46996 4.44938 7.25445C4.25773 7.03894 3.98273 6.9467 3.63905 6.95023C3.19056 6.95485 2.66428 7.11374 2.48725 7.29329C2.35335 7.4291 0.980709 8.27033 1.03175 8.27033C1.22309 8.27033 2.11173 8.66967 2.62175 8.86727C3.12091 9.06067 3.6688 9.63395 3.95646 9.61097C4.33707 9.58055 4.89614 8.96891 5.30211 8.83104C5.70809 8.69318 5.9568 8.89238 6.04039 8.83104C6.12398 8.76971 5.25621 8.2606 5.01909 7.93397Z" fill="#ABC739"/>
<path d="M9.10168 10.1102C9.34959 10.2146 9.60395 10.4931 9.66477 10.6492C9.74516 10.8555 9.37281 10.5615 9.10168 10.6492C8.83516 10.7354 8.76536 11.41 8.59953 11.4192C8.4337 11.4285 8.2982 11.0357 8.03057 10.9217C7.79063 10.8195 7.31011 10.8982 7.26012 10.7895C7.19556 10.6492 7.50122 10.3377 7.71833 10.1694C7.93428 10.0019 8.17744 9.98187 8.43976 9.98187C8.70207 9.98187 8.79699 9.98187 9.10168 10.1102Z" fill="var(--mw-icon-background-default-action, #CBFFBE)"/>
<path d="M4.1763 7.0311C4.42421 7.1355 4.67856 7.41401 4.73939 7.57012C4.81978 7.77644 4.44742 7.48241 4.1763 7.57012C3.90977 7.65634 3.83997 8.33085 3.67415 8.34012C3.50832 8.3494 3.37282 7.95664 3.10518 7.84264C2.86525 7.74044 2.19276 7.7195 2.14277 7.61084C2.07821 7.47055 2.55316 7.24493 2.79294 7.09025C3.02047 6.94348 3.25206 6.90277 3.51437 6.90277C3.77668 6.90277 3.8716 6.90277 4.1763 7.0311Z" fill="var(--mw-icon-background-default-action, #CBFFBE)"/>
<path d="M9.24604 4.30321C9.53702 4.49739 10.1292 4.70176 10.1702 4.79224C10.3396 5.16638 9.8303 5.44909 9.51602 5.67573C9.41575 5.74804 9.413 5.83972 9.30484 5.86216C8.74081 5.97916 7.98228 5.48461 7.38812 5.67573C6.8114 5.86125 6.01361 7.57414 5.42001 7.67122C4.72179 7.7854 4.80418 6.14667 4.09881 6.12819C3.81631 6.12078 3.21729 7.15802 3.04183 6.90894C2.92061 6.73686 3.56064 5.50959 3.65412 5.31687C3.83774 4.93829 4.09881 4.46832 4.09881 4.46832C4.70788 4.37786 6.2002 4.44546 6.28295 4.38343C6.38637 4.30589 8.41587 3.48126 8.57101 3.48126C8.69512 3.48126 8.95505 4.10904 9.24604 4.30321Z" fill="#49DB40"/>
<path d="M13.998 6.19937C14.289 6.39354 14.8255 6.66835 14.8664 6.75882C15.0358 7.13296 14.5234 6.95291 14.2092 7.17956C14.1089 7.25187 13.4916 7.01094 13.3834 7.03338C12.8194 7.15038 12.6092 7.34944 12.027 7.58249C10.8966 8.03494 10.6616 6.41621 10.068 6.51328C9.36982 6.62746 9.74985 6.71953 9.04449 6.70104C8.76199 6.69364 8.1033 7.62853 7.92784 7.37945C7.80662 7.20737 7.88931 7.02689 7.98279 6.83416C8.1664 6.45559 8.81053 5.62532 8.81053 5.62532C9.4196 5.53486 11.0497 6.62275 11.5581 6.51328C12.0893 6.3989 13.8428 6.19937 13.998 6.19937Z" fill="#49DB40"/>
<path d="M6.06579 1.84465C5.15077 2.25727 4.48733 3.41343 3.86085 4.93739C3.23437 6.46135 4.42375 4.92134 4.77855 4.83741C5.10167 4.76096 5.54606 5.36669 6.25277 5.36669C6.95948 5.36669 7.02229 4.14744 7.59287 3.88603C8.16345 3.62463 8.96171 4.14253 8.87757 3.9533C8.10457 2.21487 7.28768 1.29365 6.06579 1.84465Z" fill="#ABC739"/>
<path d="M6.09776 0.113836C5.25083 0.669404 4.9239 2.20728 4.57489 3.3288C4.22588 4.45033 5.04872 3.27808 5.31297 3.21556C5.55363 3.15863 5.49349 3.42697 6.01984 3.42697C6.5462 3.42697 6.47938 2.01906 6.90435 1.82437C7.32931 1.62968 8.06878 2.58478 8.00612 2.44384C7.4304 1.14907 6.9447 -0.441731 6.09776 0.113836Z" fill="#94EF84"/>
<path d="M12.1612 4.77993L12.1547 4.77268C11.9631 4.55717 11.6881 4.46492 11.3444 4.46846C10.8959 4.47307 10.3208 4.26543 10.1437 4.44498C10.0098 4.58078 8.59951 5.45465 8.78216 5.83158C8.87372 6.02051 9.80082 5.99377 10.3108 6.19137C10.81 6.38477 11.3741 7.15218 11.6618 7.12919C12.0424 7.09878 12.6015 6.48714 13.0075 6.34927C13.4134 6.21141 13.917 6.29355 14.0006 6.23221C14.0842 6.17088 13.2869 5.77031 12.8608 5.42966C12.4394 5.09285 12.3484 4.99049 12.1612 4.77993Z" fill="#ABC739"/>
<path d="M11.6177 4.27621C11.8656 4.38062 12.1199 4.65913 12.1808 4.81524C12.2612 5.02155 11.8888 4.72752 11.6177 4.81524C11.3512 4.90146 11.2813 5.57597 11.1155 5.58524C10.9497 5.59452 10.8142 5.20176 10.5466 5.08776C10.3066 4.98556 9.82611 5.06418 9.77611 4.95552C9.71156 4.81524 10.0172 4.50371 10.2343 4.33537C10.4503 4.16793 10.6934 4.14789 10.9557 4.14789C11.2181 4.14789 11.313 4.14789 11.6177 4.27621Z" fill="#94EF84"/>
<path d="M16.9426 7.94093C16.7054 7.6143 16.5645 7.47692 16.3729 7.26142C16.1812 7.04591 15.9062 6.95366 15.5625 6.9572C15.114 6.96181 14.5389 6.75417 14.3619 6.93372C14.228 7.06952 12.8177 7.94339 13.0003 8.32032C13.0919 8.50925 14.019 8.48251 14.529 8.68011C15.0281 8.87351 14.8508 10.7143 15.3715 10.455C15.7149 10.284 16.5988 9.6497 16.9426 9.44855C17.2863 9.24739 17.8793 8.84907 17.9629 8.78773C18.0465 8.7264 17.1797 8.26757 16.9426 7.94093Z" fill="#ABC739"/>
<path d="M15.8357 6.76495C16.0836 6.86936 16.338 7.14786 16.3988 7.30398C16.4792 7.51029 16.1068 7.21626 15.8357 7.30398C15.5692 7.3902 15.4994 8.06471 15.3335 8.07398C15.1677 8.08325 15.0322 7.6905 14.7646 7.5765C14.5246 7.4743 14.0441 7.55292 13.9941 7.44426C13.9296 7.30398 14.2352 6.99245 14.4523 6.82411C14.6683 6.65666 14.9115 6.63663 15.1738 6.63663C15.4361 6.63663 15.531 6.63663 15.8357 6.76495Z" fill="var(--mw-icon-background-default-action, #CBFFBE)"/>
<path d="M9.5 11.5C9.5 10.3954 10.3954 9.5 11.5 9.5H21.5C22.6046 9.5 23.5 10.3954 23.5 11.5V21.5C23.5 22.6046 22.6046 23.5 21.5 23.5H11.5C10.3954 23.5 9.5 22.6046 9.5 21.5V11.5Z" fill="var(--mw-icon-background-default-white, #FFFFFF)"/>
<path d="M15.5 16.5L12.5 16.5L17 22L21.5 16.5L18.5 16.5L18.5 15.5C18.5 13.2909 16.7091 11.5 14.5 11.5L10 11.5C12.2091 11.5 15.5 12.7909 15.5 15L15.5 16.5Z" fill="var(--mw-icon-background-default-action, #CBFFBE)" stroke="var(--mw-icon-glyph-content-green, #008014)" stroke-linecap="square"/>
<path d="M9.5 11.5C9.5 10.3954 10.3954 9.5 11.5 9.5H21.5C22.6046 9.5 23.5 10.3954 23.5 11.5V21.5C23.5 22.6046 22.6046 23.5 21.5 23.5H11.5C10.3954 23.5 9.5 22.6046 9.5 21.5V11.5Z" stroke="var(--mw-icon-border-default-gray, #616161)"/>
</svg>
