<svg width="24" height="24" viewBox="0 0 24 24" fill="none" xmlns="http://www.w3.org/2000/svg">
<path d="M0.5 18.5V4.5C0.5 2.29086 2.29086 0.5 4.5 0.5H18.5C20.7091 0.5 22.5 2.29086 22.5 4.5V18.5C22.5 20.7091 20.7091 22.5 18.5 22.5H4.5C2.29086 22.5 0.5 20.7091 0.5 18.5Z" fill="#00A3A3"/>
<path d="M17.9167 0.5H5.08333C2.55203 0.5 0.5 2.55203 0.5 5.08333V17.9167C0.5 20.448 2.55203 22.5 5.08333 22.5H17.9167C20.448 22.5 22.5 20.448 22.5 17.9167V5.08333C22.5 2.55203 20.448 0.5 17.9167 0.5Z" fill="#00A3A3"/>
<mask id="path-3-inside-1_822_4223" fill="var(--mw-icon-background-default-white, white)">
<path d="M4 4H3V19H4V4Z"/>
</mask>
<path d="M4 4H3V19H4V4Z" fill="var(--mw-icon-background-default-white, white)"/>
<path d="M3 4V3H2V4H3ZM4 4H5V3H4V4ZM4 19V20H5V19H4ZM3 19H2V20H3V19ZM3 5H4V3H3V5ZM3 4V19H5V4H3ZM4 18H3V20H4V18ZM4 19V4H2V19H4Z" fill="var(--mw-icon-background-default-white, white)" mask="url(#path-3-inside-1_822_4223)"/>
<mask id="path-5-inside-2_822_4223" fill="var(--mw-icon-background-default-white, white)">
<path d="M3 18V19H21V18H3Z"/>
</mask>
<path d="M3 18V19H21V18H3Z" fill="var(--mw-icon-background-default-white, white)"/>
<path d="M3 19H2V20H3V19ZM3 18V17H2V18H3ZM21 18H22V17H21V18ZM21 19V20H22V19H21ZM4 19V18H2V19H4ZM3 19H21V17H3V19ZM20 18V19H22V18H20ZM21 18H3V20H21V18Z" fill="var(--mw-icon-background-default-white, white)" mask="url(#path-5-inside-2_822_4223)"/>
<mask id="path-7-inside-3_822_4223" fill="var(--mw-icon-background-default-white, white)">
<path d="M7 8H6V19H7V8Z"/>
</mask>
<path d="M7 8H6V19H7V8Z" fill="var(--mw-icon-background-default-white, white)"/>
<path d="M6 8V7H5V8H6ZM7 8H8V7H7V8ZM7 19V20H8V19H7ZM6 19H5V20H6V19ZM6 9H7V7H6V9ZM6 8V19H8V8H6ZM7 18H6V20H7V18ZM7 19V8H5V19H7Z" fill="var(--mw-icon-background-default-white, white)" mask="url(#path-7-inside-3_822_4223)"/>
<mask id="path-9-inside-4_822_4223" fill="var(--mw-icon-background-default-white, white)">
<path d="M10 12H9V19H10V12Z"/>
</mask>
<path d="M10 12H9V19H10V12Z" fill="var(--mw-icon-background-default-white, white)"/>
<path d="M9 12V11H8V12H9ZM10 12H11V11H10V12ZM10 19V20H11V19H10ZM9 19H8V20H9V19ZM9 13H10V11H9V13ZM9 12V19H11V12H9ZM10 18H9V20H10V18ZM10 19V12H8V19H10Z" fill="var(--mw-icon-background-default-white, white)" mask="url(#path-9-inside-4_822_4223)"/>
<path d="M12.5 14.8498L19.0704 18.5H12.5V14.8498Z" fill="var(--mw-icon-background-default-white, white)" stroke="var(--mw-icon-background-default-white, white)"/>
<path d="M19 8.5V6.38C19 4.79 18.1 3.5 17 3.5C15.9 3.5 15 4.79 15 6.38V8.5" stroke="var(--mw-icon-background-default-white, white)" stroke-miterlimit="10"/>
<path d="M19.5 7V8C19.5 8.27614 19.2761 8.5 19 8.5C18.7239 8.5 18.5 8.27614 18.5 8V7C18.5 6.72386 18.7239 6.5 19 6.5C19.2761 6.5 19.5 6.72386 19.5 7Z" fill="var(--mw-icon-background-default-white, white)" stroke="var(--mw-icon-background-default-white, white)"/>
<path d="M15.5 7V8C15.5 8.27614 15.2761 8.5 15 8.5C14.7239 8.5 14.5 8.27614 14.5 8V7C14.5 6.72386 14.7239 6.5 15 6.5C15.2761 6.5 15.5 6.72386 15.5 7Z" fill="var(--mw-icon-background-default-white, white)" stroke="var(--mw-icon-background-default-white, white)"/>
<path d="M0.5 18.5V4.5C0.5 2.29086 2.29086 0.5 4.5 0.5H18.5C20.7091 0.5 22.5 2.29086 22.5 4.5V18.5C22.5 20.7091 20.7091 22.5 18.5 22.5H4.5C2.29086 22.5 0.5 20.7091 0.5 18.5Z" stroke="#02555C" stroke-linecap="round"/>
<path d="M0.5 18.5V4.5C0.5 2.29086 2.29086 0.5 4.5 0.5H18.5C20.7091 0.5 22.5 2.29086 22.5 4.5V18.5C22.5 20.7091 20.7091 22.5 18.5 22.5H4.5C2.29086 22.5 0.5 20.7091 0.5 18.5Z" stroke="#02555C" stroke-linecap="round"/>

</svg>
