<svg width="24" height="24" viewBox="0 0 24 24" fill="none" xmlns="http://www.w3.org/2000/svg">
<path d="M0.5 14C0.223858 14 0 14.2239 0 14.5C0 14.7761 0.223858 15 0.5 15V14ZM2.5 14.5V15C2.74866 15 2.95953 14.8173 2.99491 14.5711L2.5 14.5ZM8.5 15.5L8.00509 15.5711C8.04047 15.8173 8.25134 16 8.5 16C8.74866 16 8.95953 15.8173 8.99491 15.5711L8.5 15.5ZM14.5 15.5L14.0051 15.5711C14.0405 15.8173 14.2513 16 14.5 16C14.7487 16 14.9595 15.8173 14.9949 15.5711L14.5 15.5ZM20.5 14.5L20.0051 14.5711C20.0405 14.8173 20.2513 15 20.5 15V14.5ZM22.5 15C22.7761 15 23 14.7761 23 14.5C23 14.2239 22.7761 14 22.5 14V15ZM0.5 15H2.5V14H0.5V15ZM2.99491 14.5711C3.18019 13.2823 3.52748 12.3764 3.96575 11.804C4.38959 11.2504 4.90171 11 5.5 11V10C4.56495 10 3.76875 10.4163 3.17175 11.196C2.58919 11.9569 2.20314 13.0511 2.00509 14.4289L2.99491 14.5711ZM5.5 11C5.98624 11 6.51028 11.3738 6.99441 12.2432C7.4655 13.0893 7.81876 14.275 8.00509 15.5711L8.99491 15.4289C8.79791 14.0584 8.41784 12.744 7.86809 11.7568C7.33138 10.7929 6.5471 10 5.5 10V11ZM8.99491 15.5711C9.18124 14.275 9.5345 13.0893 10.0056 12.2432C10.4897 11.3738 11.0138 11 11.5 11V10C10.4529 10 9.66862 10.7929 9.13191 11.7568C8.58216 12.744 8.20209 14.0584 8.00509 15.4289L8.99491 15.5711ZM11.5 11C11.9862 11 12.5103 11.3738 12.9944 12.2432C13.4655 13.0893 13.8188 14.275 14.0051 15.5711L14.9949 15.4289C14.7979 14.0584 14.4178 12.744 13.8681 11.7568C13.3314 10.7929 12.5471 10 11.5 10V11ZM14.9949 15.5711C15.1812 14.275 15.5345 13.0893 16.0056 12.2432C16.4897 11.3738 17.0138 11 17.5 11V10C16.4529 10 15.6686 10.7929 15.1319 11.7568C14.5822 12.744 14.2021 14.0584 14.0051 15.4289L14.9949 15.5711ZM17.5 11C18.0983 11 18.6104 11.2504 19.0342 11.804C19.4725 12.3764 19.8198 13.2823 20.0051 14.5711L20.9949 14.4289C20.7969 13.0511 20.4108 11.9569 19.8283 11.196C19.2313 10.4163 18.435 10 17.5 10V11ZM20.5 15H22.5V14H20.5V15Z" fill="var(--mw-icon-object-primary, #616160)"/>
</svg>
