<svg width="24" height="24" viewBox="0 0 24 24" fill="none" xmlns="http://www.w3.org/2000/svg">
<path d="M1 12C1 5.92487 5.92487 1 12 1C18.0751 1 23 5.92487 23 12C23 18.0751 18.0751 23 12 23C5.92487 23 1 18.0751 1 12Z" fill="var(--mw-icon-object-primary, #616160)"/>
<path d="M11 11C11 10.4477 11.4477 10 12 10C12.5523 10 13 10.4477 13 11L13 17C13 17.5523 12.5523 18 12 18C11.4477 18 11 17.5523 11 17L11 11Z" fill="var(--mw-icon-object-secondary, #FFFFFE)"/>
<path d="M11 7C11 6.44772 11.4477 6 12 6C12.5523 6 13 6.44772 13 7C13 7.55228 12.5523 8 12 8C11.4477 8 11 7.55228 11 7Z" fill="var(--mw-icon-object-secondary, #FFFFFE)"/>
</svg>
