<svg width="24" height="24" viewBox="0 0 24 24" fill="none" xmlns="http://www.w3.org/2000/svg">
<rect x="2" y="1" width="15" height="13" rx="1" fill="var(--mw-icon-background-default-highlight, #FFE864)"/>
<rect y="7" width="19" height="1" rx="0.5" fill="var(--mw-icon-glyph-content-yellow, #674C07)"/>
<rect x="3.5" y="2.5" width="12" height="10" fill="var(--mw-icon-background-medium-yellow, #FFEF91)" stroke="var(--mw-icon-glyph-content-yellow, #674C07)" stroke-linejoin="round"/>
<path d="M11.5 5.5L7.5 9.5M7.5 5.5L11.5 9.5" stroke="var(--mw-icon-glyph-content-yellow, #674C07)" stroke-linecap="round" stroke-linejoin="round"/>
<path d="M9.5 16.5C9.5 20.366 12.634 23.5 16.5 23.5C20.366 23.5 23.5 20.366 23.5 16.5C23.5 12.634 20.366 9.5 16.5 9.5C12.634 9.5 9.5 12.634 9.5 16.5Z" fill="var(--mw-icon-background-default-white, #FFFFFF)" stroke="var(--mw-icon-glyph-content-light-blue, #278CDD)" stroke-linecap="round"/>
<path fill-rule="evenodd" clip-rule="evenodd" d="M18 16V21H15V16H18Z" fill="var(--mw-icon-glyph-content-blue, #1656A8)"/>
<path d="M18 13.5C18 14.3284 17.3284 15 16.5 15C15.6716 15 15 14.3284 15 13.5C15 12.6716 15.6716 12 16.5 12C17.3284 12 18 12.6716 18 13.5Z" fill="var(--mw-icon-glyph-content-blue, #1656A8)"/>
</svg>
