<svg width="24" height="24" viewBox="0 0 24 24" fill="none" xmlns="http://www.w3.org/2000/svg">
<path d="M0.5 2.5C0.5 1.39543 1.39543 0.5 2.5 0.5H21.5C22.6046 0.5 23.5 1.39543 23.5 2.5V21.5C23.5 22.6046 22.6046 23.5 21.5 23.5H2.5C1.39543 23.5 0.5 22.6046 0.5 21.5V2.5Z" fill="var(--mw-icon-background-default-white, #FFFFFF)"/>
<rect x="9" y="10" width="3" height="1" fill="var(--mw-icon-glyph-content-gray, #616162)"/>
<rect x="9" y="12" width="3" height="1" fill="var(--mw-icon-glyph-content-gray, #616162)"/>
<ellipse cx="19.5" cy="13" rx="1" ry="1.5" stroke="var(--mw-icon-glyph-content-gray, #616162)"/>
<path d="M4.6004 9L5.49006 10.5203L6.40457 9H7.93042L6.40954 11.4445L8 14H6.46918L5.5 12.3919L4.53082 14H3L4.59046 11.4445L3.06958 9H4.6004Z" fill="var(--mw-icon-glyph-content-gray, #616162)"/>
<path d="M14.6004 9L15.4901 10.5203L16.4046 9H17.9304L16.4095 11.4445L18 14H16.4692L15.5 12.3919L14.5308 14H13L14.5905 11.4445L13.0696 9H14.6004Z" fill="var(--mw-icon-glyph-content-gray, #616162)"/>
<path d="M0.5 2.5C0.5 1.39543 1.39543 0.5 2.5 0.5H21.5C22.6046 0.5 23.5 1.39543 23.5 2.5V21.5C23.5 22.6046 22.6046 23.5 21.5 23.5H2.5C1.39543 23.5 0.5 22.6046 0.5 21.5V2.5Z" stroke="var(--mw-icon-border-default-gray, #616161)"/>
</svg>
