<svg width="24" height="24" viewBox="0 0 24 24" fill="none" xmlns="http://www.w3.org/2000/svg">
<path d="M10 18.5C10 20.433 8.433 22 6.5 22C4.567 22 3 20.433 3 18.5C3 16.567 4.567 15 6.5 15C8.433 15 10 16.567 10 18.5Z" stroke="var(--mw-icon-object-primary, #616160)" stroke-width="2"/>
<path d="M21 18.5C21 20.433 19.433 22 17.5 22C15.567 22 14 20.433 14 18.5C14 16.567 15.567 15 17.5 15C19.433 15 21 16.567 21 18.5Z" stroke="var(--mw-icon-object-primary, #616160)" stroke-width="2"/>
<path d="M7.5 12.5H5.5V6.5H3L6.5 1L10 6.5H7.5V12.5Z" fill="var(--mw-icon-background-default-medium-gray, #D9D9D9)"/>
<path d="M18.5 0.5L16.5 0.5V6.5H14L17.5 12L21 6.5H18.5V0.5Z" fill="var(--mw-icon-background-default-medium-gray, #D9D9D9)"/>
<path d="M7.5 12.5H5.5V6.5H3L6.5 1L10 6.5H7.5V12.5Z" stroke="var(--mw-icon-border-default-gray, #616161)"/>
<path d="M18.5 0.5L16.5 0.5V6.5H14L17.5 12L21 6.5H18.5V0.5Z" stroke="var(--mw-icon-border-default-gray, #616161)"/>
</svg>
