<svg width="24" height="24" viewBox="0 0 24 24" fill="none" xmlns="http://www.w3.org/2000/svg">
<path d="M20.5 0.500122L23.4998 3.50012M23.4998 3.50012L20.5001 6.50012M23.4998 3.50012L11.5 3.50012" stroke="var(--mw-icon-object-primary, #616160)" stroke-linecap="round" stroke-linejoin="round"/>
<path d="M21.5 1.5L23.5 3.5L21.5 5.5" stroke="var(--mw-icon-object-primary, #616160)" stroke-linecap="square" stroke-linejoin="round"/>
<path d="M14 3.49999L23 3.49999" stroke="var(--mw-icon-object-primary, #616160)" stroke-linejoin="round"/>
<path d="M8.80904 17.8483V12H10V18.91H8.92813L8.80904 17.8483ZM6 16.5347V16.4402C6 16.0683 6.03833 15.7309 6.11499 15.428C6.19165 15.1221 6.3039 14.8597 6.45175 14.6407C6.59959 14.4218 6.78166 14.2524 6.99795 14.1324C7.21424 14.0124 7.46064 13.9524 7.73717 13.9524C7.99726 13.9524 8.2245 14.0124 8.41889 14.1324C8.61602 14.2524 8.78303 14.4233 8.91992 14.6452C9.05955 14.8642 9.1718 15.1236 9.25667 15.4235C9.34155 15.7204 9.40315 16.0458 9.44148 16.3997V16.6067C9.40315 16.9456 9.34155 17.2605 9.25667 17.5514C9.1718 17.8423 9.05955 18.0973 8.91992 18.3162C8.78303 18.5321 8.61602 18.7001 8.41889 18.8201C8.22177 18.94 7.99179 19 7.72895 19C7.45243 19 7.20602 18.9385 6.98973 18.8156C6.77618 18.6926 6.59548 18.5201 6.44764 18.2982C6.30253 18.0763 6.19165 17.8153 6.11499 17.5154C6.03833 17.2155 6 16.8886 6 16.5347ZM7.18275 16.4402V16.5347C7.18275 16.7356 7.19644 16.9231 7.22382 17.097C7.25394 17.271 7.30185 17.4254 7.36756 17.5604C7.436 17.6924 7.52361 17.7958 7.63039 17.8708C7.7399 17.9428 7.87269 17.9788 8.02875 17.9788C8.23135 17.9788 8.39836 17.9293 8.52977 17.8303C8.66119 17.7284 8.76112 17.5889 8.82957 17.412C8.90075 17.235 8.94182 17.0311 8.95277 16.8001V16.2108C8.94456 16.0219 8.91992 15.8524 8.87885 15.7024C8.84052 15.5495 8.78303 15.419 8.70637 15.3111C8.63244 15.2031 8.53936 15.1191 8.4271 15.0591C8.31759 14.9991 8.18754 14.9692 8.03696 14.9692C7.88364 14.9692 7.75222 15.0081 7.64271 15.0861C7.5332 15.1611 7.44422 15.2646 7.37577 15.3965C7.31006 15.5285 7.26078 15.6844 7.22793 15.8644C7.19781 16.0413 7.18275 16.2333 7.18275 16.4402Z" fill="var(--mw-icon-object-primary, #616160)"/>
<path d="M0.5 4.5C0.5 3.94772 0.947715 3.5 1.5 3.5H17.5V20.5C17.5 21.0523 17.0523 21.5 16.5 21.5H1.5C0.947715 21.5 0.5 21.0523 0.5 20.5V4.5Z" stroke="var(--mw-icon-object-primary, #616160)"/>
<rect x="3.5" y="1.5" width="4" height="4" rx="0.5" fill="var(--mw-icon-object-secondary, #FFFFFE)" stroke="var(--mw-icon-object-primary, #616160)"/>
<rect x="10.5" y="1.5" width="4" height="4" rx="0.5" fill="var(--mw-icon-object-secondary, #FFFFFE)" stroke="var(--mw-icon-object-primary, #616160)"/>
<path d="M9.5 9.50012L12.5 6.50037M12.5 6.50037L15.5 9.5M12.5 6.50037L12.5 18.5001" stroke="var(--mw-icon-object-primary, #616160)" stroke-linecap="round" stroke-linejoin="round"/>
<path d="M10.4999 8.50012L12.4999 6.50012L14.4999 8.50012" stroke="var(--mw-icon-object-primary, #616160)" stroke-linecap="square" stroke-linejoin="round"/>
<path d="M12.4999 16.0001L12.4999 7.00012" stroke="var(--mw-icon-object-primary, #616160)" stroke-linejoin="round"/>
</svg>
