<svg width="24" height="24" viewBox="0 0 24 24" fill="none" xmlns="http://www.w3.org/2000/svg">
<path d="M9.5 16V8C9.5 7.72386 9.72386 7.5 10 7.5H23C23.2761 7.5 23.5 7.72386 23.5 8V16C23.5 16.2761 23.2761 16.5 23 16.5H10C9.72386 16.5 9.5 16.2761 9.5 16Z" fill="var(--mw-icon-background-default-white, #FFFFFF)" stroke="var(--mw-icon-border-default-gray, #616161)" stroke-linejoin="round"/>
<path d="M9.5 5V1C9.5 0.723858 9.72386 0.5 10 0.5H23C23.2761 0.5 23.5 0.723858 23.5 1V5C23.5 5.27614 23.2761 5.5 23 5.5H10C9.72386 5.5 9.5 5.27614 9.5 5Z" fill="#BFBFBF"/>
<path d="M9.5 23V19C9.5 18.7239 9.72386 18.5 10 18.5H23C23.2761 18.5 23.5 18.7239 23.5 19V23C23.5 23.2761 23.2761 23.5 23 23.5H10C9.72386 23.5 9.5 23.2761 9.5 23Z" fill="#BFBFBF"/>
<path d="M9.5 5V1C9.5 0.723858 9.72386 0.5 10 0.5H23C23.2761 0.5 23.5 0.723858 23.5 1V5C23.5 5.27614 23.2761 5.5 23 5.5H10C9.72386 5.5 9.5 5.27614 9.5 5Z" stroke="var(--mw-icon-glyph-disabled-gray, #888889)" stroke-linejoin="round"/>
<path d="M9.5 23V19C9.5 18.7239 9.72386 18.5 10 18.5H23C23.2761 18.5 23.5 18.7239 23.5 19V23C23.5 23.2761 23.2761 23.5 23 23.5H10C9.72386 23.5 9.5 23.2761 9.5 23Z" stroke="var(--mw-icon-glyph-disabled-gray, #888889)" stroke-linejoin="round"/>
<path d="M6.49976 12L0.500244 6V18L6.49976 12Z" fill="white" stroke="var(--mw-icon-border-default-gray, #616161)" stroke-linecap="round" stroke-linejoin="round"/>
</svg>
