<svg width="24" height="24" viewBox="0 0 24 24" fill="none" xmlns="http://www.w3.org/2000/svg">
<path d="M23 23.5L6 23.5C5.72386 23.5 5.5 23.2761 5.5 23L5.5 12C5.5 11.7239 5.72386 11.5 6 11.5L23 11.5C23.2761 11.5 23.5 11.7239 23.5 12V23C23.5 23.2761 23.2761 23.5 23 23.5Z" fill="var(--mw-icon-background-default-light-gray, #F5F5F5)"/>
<path d="M23 23.5V24V23.5ZM6 23.5L6 23L6 23.5ZM5.5 23H6H5.5ZM5.5 12L5 12L5.5 12ZM6 11.5L6 12L6 11.5ZM23 11.5V11V11.5ZM23.5 12H24V12L23.5 12ZM23.5 23H23H23.5ZM17 22.5V23H18V22.5H17ZM18 12.5V12L17 12V12.5L18 12.5ZM11 22.5V23H12V22.5H11ZM12 12.5V12L11 12V12.5L12 12.5ZM6.5 17H6V18H6.5V17ZM22.5 18H23V17H22.5V18ZM23 23L6 23V24L23 24V23ZM6 23H5C5 23.5523 5.44772 24 6 24L6 23ZM6 23L6 12L5 12L5 23H6ZM6 12L6 12L6 11C5.44772 11 5 11.4477 5 12L6 12ZM6 12L23 12V11L6 11L6 12ZM23 12L24 12C24 11.4477 23.5523 11 23 11V12ZM23 12V23H24V12H23ZM23 23V24C23.5523 24 24 23.5523 24 23H23ZM18 22.5L18 12.5L17 12.5L17 22.5H18ZM12 22.5V17.5H11V22.5H12ZM12 17.5L12 12.5L11 12.5L11 17.5H12ZM6.5 18H11.5V17H6.5V18ZM11.5 18H22.5V17H11.5V18Z" fill="var(--mw-icon-border-disabled-gray, #888888)"/>
<path d="M21 7.5L1 7.5C0.723858 7.5 0.5 7.27614 0.5 7L0.5 1C0.5 0.723859 0.723858 0.500002 1 0.500002L21 0.5C21.2761 0.5 21.5 0.723858 21.5 1V7C21.5 7.27614 21.2761 7.5 21 7.5Z" fill="var(--mw-icon-background-default-action, #CBFFBE)"/>
<path d="M21 7.5V8V7.5ZM1 7.5L1 7L1 7.5ZM0.5 7H1H0.5ZM0.5 1L0 1L0.5 1ZM1 0.500002L1 1L1 0.500002ZM21 0.5V0V0.5ZM21.5 1H22V1L21.5 1ZM21.5 7H21H21.5ZM14 6.5V7H15V6.5H14ZM15 1.5V1H14V1.5H15ZM7 6.5V7H8V6.5H7ZM8 1.5V1L7 1V1.5H8ZM21 7L1 7L1 8L21 8V7ZM1 7L1 7H4.47035e-07C5.06639e-07 7.55228 0.447715 8 1 8L1 7ZM1 7L1 1L0 1L4.47035e-07 7H1ZM1 1H1L1 1.51992e-06C0.447717 1.54972e-06 -5.96046e-08 0.447716 0 1L1 1ZM1 1L21 1V0L1 1.51992e-06L1 1ZM21 1L22 1C22 0.447715 21.5523 -5.96046e-08 21 0V1ZM21 1V7H22V1H21ZM21 7V8C21.5523 8 22 7.55228 22 7H21ZM15 6.5V1.5H14V6.5H15ZM8 6.5L8 1.5H7L7 6.5H8Z" fill="var(--mw-icon-border-default-green, #008013)"/>
</svg>
