<svg width="24" height="24" viewBox="0 0 24 24" fill="none" xmlns="http://www.w3.org/2000/svg">
<path d="M18 0.500001L1 0.5C0.723858 0.5 0.5 0.723858 0.5 1L0.499999 18C0.499999 18.2761 0.723857 18.5 1 18.5L18 18.5C18.2761 18.5 18.5 18.2761 18.5 18L18.5 1C18.5 0.723859 18.2761 0.500001 18 0.500001Z" fill="var(--mw-icon-background-default-white, #FFFFFF)" stroke="var(--mw-icon-border-default-gray, #616161)" stroke-linecap="round"/>
<path d="M12 1.5V1L13 1V1.5L12 1.5ZM13 17.5V18H12V17.5H13ZM6 1.5V1H7V1.5H6ZM7 17.5V18H6V17.5H7ZM1.5 7H1V6H1.5V7ZM17.5 6H18V7H17.5V6ZM1.5 13H1V12H1.5V13ZM17.5 12H18L18 13H17.5L17.5 12ZM13 1.5L13 17.5H12L12 1.5L13 1.5ZM7 1.5V6.5H6V1.5H7ZM7 6.5L7 12.5H6L6 6.5H7ZM7 12.5V17.5H6V12.5H7ZM1.5 6H6.5V7H1.5V6ZM6.5 6H17.5V7H6.5V6ZM1.5 12H6.5V13H1.5V12ZM6.5 12L17.5 12L17.5 13L6.5 13V12Z" fill="var(--mw-icon-border-default-gray, #616161)"/>
<rect width="12" height="12" rx="6" transform="matrix(-1 0 0 1 23.5 11.5)" fill="var(--mw-icon-background-default-action, #CBFFBE)" stroke="var(--mw-icon-border-default-green, #008013)"/>
<path d="M21.318 17.9999C21.5941 17.9999 21.818 17.776 21.818 17.4999C21.818 17.2237 21.5941 16.9999 21.318 16.9999V17.9999ZM13.6816 16.9999C13.4055 16.9999 13.1816 17.2237 13.1816 17.4999C13.1816 17.776 13.4055 17.9999 13.6816 17.9999V16.9999ZM17.9998 13.6816C17.9998 13.4055 17.776 13.1816 17.4998 13.1816C17.2237 13.1816 16.9998 13.4055 16.9998 13.6816H17.9998ZM16.9998 21.318C16.9998 21.5941 17.2237 21.818 17.4998 21.818C17.776 21.818 17.9998 21.5941 17.9998 21.318H16.9998ZM21.318 16.9999H13.6816V17.9999H21.318V16.9999ZM16.9998 13.6816V21.318H17.9998V13.6816H16.9998Z" fill="var(--mw-icon-glyph-content-dark-green, #02580E)"/>
<path d="M0.5 1C0.5 0.723858 0.723858 0.5 1 0.5H6.5V6.5H0.5V1Z" fill="var(--mw-icon-background-default-action, #CBFFBE)" stroke="var(--mw-icon-border-default-green, #008013)"/>
</svg>
