<svg width="24" height="24" viewBox="0 0 24 24" fill="none" xmlns="http://www.w3.org/2000/svg">
<rect x="0.5" y="0.5" width="22" height="22" rx="4" fill="var(--mw-icon-background-default-light-gray, #F5F5F5)"/>
<rect x="4.5" y="3.5" width="14" height="12" rx="1" fill="#00A3A3" stroke="#02555C"/>
<path d="M5 5.5V5.5C6.1038 5.5 6.9986 6.3948 6.9986 7.4986V12.001C6.9986 12.8289 7.6697 13.5 8.49755 13.5V13.5C9.3254 13.5 9.99651 12.8289 9.99651 12.001V6.99895C9.99651 6.1711 10.6676 5.5 11.4955 5.5V5.5C12.3233 5.5 12.9944 6.1711 12.9944 6.99895V12.001C12.9944 12.8289 13.6655 13.5 14.4934 13.5V13.5C15.3212 13.5 15.9923 12.8289 15.9923 12.001V8.61111V7.50769C15.9923 6.39887 16.8912 5.5 18 5.5V5.5" stroke="var(--mw-icon-background-medium-yellow, #FFEF91)"/>
<circle cx="16.5" cy="18.5" r="1.5" fill="var(--mw-icon-glyph-content-gray, #616162)"/>
<path d="M5.5 17.5H8.5" stroke="var(--mw-icon-border-default-gray, #616161)" stroke-linecap="round"/>
<path d="M10.5 17.5H13.5" stroke="var(--mw-icon-border-default-gray, #616161)" stroke-linecap="round"/>
<path d="M5.5 19.5H8.5" stroke="var(--mw-icon-border-default-gray, #616161)" stroke-linecap="round"/>
<path d="M10.5 19.5H13.5" stroke="var(--mw-icon-border-default-gray, #616161)" stroke-linecap="round"/>
<rect x="0.5" y="0.5" width="22" height="22" rx="4" stroke="var(--mw-icon-border-default-gray, #616161)"/>
</svg>
