<svg width="24" height="24" viewBox="0 0 24 24" fill="none" xmlns="http://www.w3.org/2000/svg">
<path d="M0.5 2.5C0.5 1.39543 1.39543 0.5 2.5 0.5H20.5C21.6046 0.5 22.5 1.39543 22.5 2.5V20.5C22.5 21.6046 21.6046 22.5 20.5 22.5H2.5C1.39543 22.5 0.5 21.6046 0.5 20.5V2.5Z" fill="var(--mw-icon-background-default-white, #FFFFFF)"/>
<path d="M3.5 19.5L7.5 11.5L11.5 17.5L15.5 3.5L19.5 10.5" stroke="var(--mw-icon-glyph-content-light-blue, #278CDD)" stroke-linecap="round" stroke-linejoin="round"/>
<path d="M6 11.5C6 10.6716 6.67157 10 7.5 10C8.32843 10 9 10.6716 9 11.5C9 12.3284 8.32843 13 7.5 13C6.67157 13 6 12.3284 6 11.5Z" fill="var(--mw-icon-glyph-content-dark-gray, #333333)"/>
<path d="M14 3.5C14 2.67157 14.6716 2 15.5 2C16.3284 2 17 2.67157 17 3.5C17 4.32843 16.3284 5 15.5 5C14.6716 5 14 4.32843 14 3.5Z" fill="var(--mw-icon-glyph-content-dark-gray, #333333)"/>
<path d="M18 10.5C18 9.67157 18.6716 9 19.5 9C20.3284 9 21 9.67157 21 10.5C21 11.3284 20.3284 12 19.5 12C18.6716 12 18 11.3284 18 10.5Z" fill="var(--mw-icon-glyph-content-dark-gray, #333333)"/>
<path d="M2 19.5C2 18.6716 2.67157 18 3.5 18C4.32843 18 5 18.6716 5 19.5C5 20.3284 4.32843 21 3.5 21C2.67157 21 2 20.3284 2 19.5Z" fill="var(--mw-icon-glyph-content-dark-gray, #333333)"/>
<path d="M10 17.5C10 16.6716 10.6716 16 11.5 16C12.3284 16 13 16.6716 13 17.5C13 18.3284 12.3284 19 11.5 19C10.6716 19 10 18.3284 10 17.5Z" fill="var(--mw-icon-glyph-content-dark-gray, #333333)"/>
<path d="M0.5 2.5C0.5 1.39543 1.39543 0.5 2.5 0.5H20.5C21.6046 0.5 22.5 1.39543 22.5 2.5V20.5C22.5 21.6046 21.6046 22.5 20.5 22.5H2.5C1.39543 22.5 0.5 21.6046 0.5 20.5V2.5Z" stroke="var(--mw-icon-border-default-gray, #616161)"/>
</svg>
