<svg width="24" height="24" viewBox="0 0 24 24" fill="none" xmlns="http://www.w3.org/2000/svg">
<path d="M0.5 17V6L11.5 0.5L22.5 6V17L11.5 22.5L0.5 17Z" fill="var(--mw-icon-background-default-white, #FFFFFF)"/>
<path d="M11.5 11.5V0.5L0.5 6V17L11.5 11.5Z" fill="var(--mw-icon-background-default-medium-gray, #D9D9D9)"/>
<path d="M11.5 11.5V0.5L22.5 6V17L11.5 11.5Z" fill="var(--mw-icon-background-default-light-gray, #F5F5F5)"/>
<path d="M8 9L12 7L18 11L15 14L13 17L9 14H3L6 11L8 9Z" fill="var(--mw-icon-background-default-selection, #B4DEFF)"/>
<path d="M12 7L8 9L6 11M12 7L18 11L15 14M12 7L10 11M9 14H3L6 11M9 14L13 17L15 14M9 14L10 11M10 11H6M10 11L15 14" stroke="var(--mw-icon-glyph-content-light-blue, #278CDD)" stroke-linecap="round" stroke-linejoin="round"/>
<path d="M7.5 9.49999L3 14H9L11 15C11.5 13.5 11.9 11.3 11.5 10.5C11.1 9.7 8.5 9.33333 7.5 9.49999Z" fill="var(--mw-icon-background-default-action, #CBFFBE)"/>
<path d="M6 11L3 14H9C9 13.6667 8.9 12.8 8.5 12C8.1 11.2 6.66667 11 6 11Z" fill="var(--mw-icon-background-medium-yellow, #FFEF91)"/>
<path d="M12 7L8 9L6 11M12 7L18 11L15 14M12 7L10 11M9 14H3L6 11M9 14L13 17L15 14M9 14L10 11M10 11H6M10 11L15 14" stroke="var(--mw-icon-glyph-content-light-blue, #278CDD)" stroke-linecap="round" stroke-linejoin="round"/>
<path d="M2 14C2 13.4477 2.44772 13 3 13C3.55228 13 4 13.4477 4 14C4 14.5523 3.55228 15 3 15C2.44772 15 2 14.5523 2 14Z" fill="var(--mw-icon-glyph-content-dark-gray, #333333)"/>
<path d="M8 14C8 13.4477 8.44772 13 9 13C9.55228 13 10 13.4477 10 14C10 14.5523 9.55228 15 9 15C8.44772 15 8 14.5523 8 14Z" fill="var(--mw-icon-glyph-content-dark-gray, #333333)"/>
<path d="M7 9C7 8.44772 7.44772 8 8 8C8.55228 8 9 8.44772 9 9C9 9.55228 8.55228 10 8 10C7.44772 10 7 9.55228 7 9Z" fill="var(--mw-icon-glyph-content-dark-gray, #333333)"/>
<path d="M5 11C5 10.4477 5.44772 10 6 10C6.55228 10 7 10.4477 7 11C7 11.5523 6.55228 12 6 12C5.44772 12 5 11.5523 5 11Z" fill="var(--mw-icon-glyph-content-dark-gray, #333333)"/>
<path d="M9 11C9 10.4477 9.44772 10 10 10C10.5523 10 11 10.4477 11 11C11 11.5523 10.5523 12 10 12C9.44772 12 9 11.5523 9 11Z" fill="var(--mw-icon-glyph-content-dark-gray, #333333)"/>
<path d="M14 14C14 13.4477 14.4477 13 15 13C15.5523 13 16 13.4477 16 14C16 14.5523 15.5523 15 15 15C14.4477 15 14 14.5523 14 14Z" fill="var(--mw-icon-glyph-content-dark-gray, #333333)"/>
<path d="M12 17C12 16.4477 12.4477 16 13 16C13.5523 16 14 16.4477 14 17C14 17.5523 13.5523 18 13 18C12.4477 18 12 17.5523 12 17Z" fill="var(--mw-icon-glyph-content-dark-gray, #333333)"/>
<path d="M17 11C17 10.4477 17.4477 10 18 10C18.5523 10 19 10.4477 19 11C19 11.5523 18.5523 12 18 12C17.4477 12 17 11.5523 17 11Z" fill="var(--mw-icon-glyph-content-dark-gray, #333333)"/>
<path d="M11 7C11 6.44772 11.4477 6 12 6C12.5523 6 13 6.44772 13 7C13 7.55228 12.5523 8 12 8C11.4477 8 11 7.55228 11 7Z" fill="var(--mw-icon-glyph-content-dark-gray, #333333)"/>
<path d="M0.5 6L11.5 0.5L22.5 6V17" stroke="var(--mw-icon-background-default-dark-gray, #A6A6A6)" stroke-linecap="round" stroke-linejoin="round"/>
<path d="M0.5 6V17L11.5 22.5L22.5 17" stroke="var(--mw-icon-border-default-gray, #616161)" stroke-linecap="round" stroke-linejoin="round"/>
</svg>
