<svg width="24" height="24" viewBox="0 0 24 24" fill="none" xmlns="http://www.w3.org/2000/svg">
<path d="M0.5 18.5V4.5C0.5 2.29086 2.29086 0.5 4.5 0.5H18.5C20.7091 0.5 22.5 2.29086 22.5 4.5V18.5C22.5 20.7091 20.7091 22.5 18.5 22.5H4.5C2.29086 22.5 0.5 20.7091 0.5 18.5Z" fill="#E6E6E6"/>
<path d="M11 6H9V5H11L12 4L13 2L16 2L17 3L17 4H16L15 3L14 3L13 4L12 5.49998L13 7L14 8L15 7.97487L16 7L17 7.00001L17 8L16 9H13L12 7L11 6Z" fill="var(--mw-icon-glyph-content-dark-blue, #104280)"/>
<path d="M2.5 18.463V19.5H8.5V18.463H7.5L5.5 14.5L3.5 18.463H2.5Z" fill="var(--mw-icon-glyph-content-dark-blue, #104280)"/>
<path d="M5.5 14.5L3.5 18.463H2.5V19.5H8.5V18.463H7.5L5.5 14.5ZM5.5 14.5V5.5H9" stroke="var(--mw-icon-glyph-content-dark-blue, #104280)" stroke-linecap="round"/>
<circle cx="5.5" cy="5.5" r="2" fill="#BFBFBF" stroke="var(--mw-icon-glyph-content-dark-blue, #104280)"/>
<path d="M16.0207 20L16 17.5L18.5 20H20L16 16L19.5 12H18L16 14.4531V12H15.0193V20H16.0207Z" fill="black"/>
<path d="M13 20H12V12H13V20Z" fill="black"/>
<path d="M0.5 18.5V4.5C0.5 2.29086 2.29086 0.5 4.5 0.5H18.5C20.7091 0.5 22.5 2.29086 22.5 4.5V18.5C22.5 20.7091 20.7091 22.5 18.5 22.5H4.5C2.29086 22.5 0.5 20.7091 0.5 18.5Z" stroke="var(--mw-icon-border-disabled-gray, #888888)" stroke-linecap="round"/>

</svg>
