<svg width="24" height="24" viewBox="0 0 24 24" fill="none" xmlns="http://www.w3.org/2000/svg">
<path d="M0.5 2.5C0.5 1.39543 1.39543 0.5 2.5 0.5H21.5C22.6046 0.5 23.5 1.39543 23.5 2.5V21.5C23.5 22.6046 22.6046 23.5 21.5 23.5H2.5C1.39543 23.5 0.5 22.6046 0.5 21.5V2.5Z" fill="var(--mw-icon-background-default-white, #FFFFFF)" stroke="var(--mw-icon-border-default-gray, #616161)"/>
<path d="M12 15V2.5C15 2.5 18.5 13.5 20.5 13.5H23V15H12Z" fill="var(--mw-icon-background-red, #FF9D9A)"/>
<path d="M1 15.5H23" stroke="var(--mw-icon-glyph-content-gray, #616162)"/>
<path d="M1.5 13.5H3C7 13.5 8 2.5 12 2.5C16 2.5 17 13.5 21 13.5H22.5" stroke="var(--mw-icon-glyph-content-red, #902623)" stroke-linecap="square" stroke-linejoin="round"/>
<path d="M8.18683 20.4402V17.0701H9.15266V20.4402C9.15266 20.7653 9.08375 21.0448 8.94593 21.2786C8.80811 21.5101 8.61968 21.6883 8.38064 21.813C8.14376 21.9377 7.87674 22 7.57956 22C7.27162 22 6.9992 21.9466 6.76232 21.8397C6.52544 21.7328 6.33917 21.5691 6.2035 21.3487C6.06783 21.126 6 20.8444 6 20.5037H6.97228C6.97228 20.6818 6.99597 20.8232 7.04335 20.9279C7.09288 21.0325 7.16287 21.1071 7.25331 21.1516C7.34376 21.1962 7.45251 21.2184 7.57956 21.2184C7.70231 21.2184 7.8089 21.1884 7.89935 21.1283C7.98979 21.0681 8.05978 20.9802 8.10931 20.8644C8.16099 20.7486 8.18683 20.6072 8.18683 20.4402Z" fill="var(--mw-icon-glyph-content-dark-gray, #333333)"/>
<path d="M13.0366 20.32H14.0025C13.9831 20.6473 13.8959 20.9379 13.7408 21.1917C13.5879 21.4456 13.3736 21.6437 13.098 21.7862C12.8245 21.9287 12.495 22 12.1096 22C11.8081 22 11.5378 21.9466 11.2988 21.8397C11.0598 21.7306 10.8552 21.5747 10.6851 21.3721C10.5171 21.1695 10.389 20.9245 10.3007 20.6373C10.2124 20.35 10.1682 20.0283 10.1682 19.672V19.3347C10.1682 18.9784 10.2134 18.6566 10.3039 18.3694C10.3965 18.0799 10.5279 17.8339 10.698 17.6313C10.8703 17.4286 11.0759 17.2728 11.3149 17.1637C11.554 17.0546 11.821 17 12.116 17C12.508 17 12.8385 17.0735 13.1077 17.2204C13.379 17.3674 13.589 17.57 13.7376 17.8283C13.8883 18.0866 13.9788 18.3805 14.0089 18.7101H13.0399C13.0291 18.5141 12.9914 18.3483 12.9268 18.2124C12.8622 18.0744 12.7642 17.9708 12.6329 17.9018C12.5036 17.8306 12.3314 17.7949 12.116 17.7949C11.9545 17.7949 11.8135 17.8261 11.6929 17.8884C11.5723 17.9508 11.4711 18.0454 11.3892 18.1723C11.3074 18.2993 11.246 18.4596 11.2051 18.6533C11.1664 18.8448 11.147 19.0697 11.147 19.328V19.672C11.147 19.9236 11.1653 20.1452 11.2019 20.3367C11.2385 20.5259 11.2945 20.6863 11.3699 20.8176C11.4474 20.9468 11.5464 21.0448 11.667 21.1116C11.7898 21.1761 11.9373 21.2084 12.1096 21.2084C12.312 21.2084 12.4789 21.175 12.6102 21.1082C12.7416 21.0414 12.8417 20.9423 12.9107 20.811C12.9817 20.6796 13.0237 20.5159 13.0366 20.32Z" fill="var(--mw-icon-glyph-content-dark-gray, #333333)"/>
<path d="M16 17.0701V21.9332H15.0342V17.0701H16Z" fill="var(--mw-icon-glyph-content-dark-gray, #333333)"/>
</svg>
