<svg width="24" height="24" viewBox="0 0 24 24" fill="none" xmlns="http://www.w3.org/2000/svg">
<path d="M0.5 18.5V4.5C0.5 2.29086 2.29086 0.5 4.5 0.5H18.5C20.7091 0.5 22.5 2.29086 22.5 4.5V18.5C22.5 20.7091 20.7091 22.5 18.5 22.5H4.5C2.29086 22.5 0.5 20.7091 0.5 18.5Z" fill="var(--mw-icon-background-default-white, #FFFFFF)"/>
<path d="M15.5 2.5V4.5H11.5H7.5H3.5V2.5H7.5H11.5H15.5Z" fill="var(--mw-icon-background-default-medium-gray, #D9D9D9)"/>
<path d="M7.5 2.5H3.5V4.5H7.5M7.5 2.5V4.5M7.5 2.5H11.5M7.5 4.5H11.5M11.5 2.5H15.5V4.5H11.5M11.5 2.5V4.5" stroke="var(--mw-icon-border-default-gray, #616161)" stroke-linejoin="round"/>
<path d="M19.5 15.5V17.5H15.5H11.5H7.5V15.5H11.5H15.5H19.5Z" fill="var(--mw-icon-background-default-medium-gray, #D9D9D9)"/>
<path d="M11.5 15.5H7.5V17.5H11.5M11.5 15.5V17.5M11.5 15.5H15.5M11.5 17.5H15.5M15.5 15.5H19.5V17.5H15.5M15.5 15.5V17.5" stroke="var(--mw-icon-border-default-gray, #616161)" stroke-linejoin="round"/>
<path d="M7.5 4.5H3.5V7.5H7.5M7.5 4.5V7.5M7.5 4.5H11.5M7.5 7.5H11.5M11.5 4.5H15.5V7.5H11.5M11.5 4.5V7.5" stroke="var(--mw-icon-border-default-gray, #616161)" stroke-linejoin="round"/>
<path d="M11.5 17.5H7.5V20.5H11.5M11.5 17.5V20.5M11.5 17.5H15.5M11.5 20.5H15.5M15.5 17.5H19.5V20.5H15.5M15.5 17.5V20.5" stroke="var(--mw-icon-border-default-gray, #616161)" stroke-linejoin="round"/>
<path fill-rule="evenodd" clip-rule="evenodd" d="M17.5 12.5L13.5 8L9.5 12.5L12.5 12.5L12.5 15.5L14.5 15.5L14.5 12.5L17.5 12.5Z" fill="var(--mw-icon-background-default-action, #CBFFBE)"/>
<path d="M13.5 8L13.8737 7.66782L13.5 7.2474L13.1263 7.66782L13.5 8ZM17.5 12.5L17.5 13L18.6134 13L17.8737 12.1678L17.5 12.5ZM9.5 12.5L9.1263 12.1678L8.38658 13L9.5 13L9.5 12.5ZM12.5 12.5L13 12.5L13 12L12.5 12L12.5 12.5ZM12.5 15.5L12 15.5L12 16L12.5 16L12.5 15.5ZM14.5 15.5L14.5 16L15 16L15 15.5L14.5 15.5ZM14.5 12.5L14.5 12L14 12L14 12.5L14.5 12.5ZM13.1263 8.33218L17.1263 12.8322L17.8737 12.1678L13.8737 7.66782L13.1263 8.33218ZM9.8737 12.8322L13.8737 8.33218L13.1263 7.66782L9.1263 12.1678L9.8737 12.8322ZM12.5 12L9.5 12L9.5 13L12.5 13L12.5 12ZM13 15.5L13 12.5L12 12.5L12 15.5L13 15.5ZM14.5 15L12.5 15L12.5 16L14.5 16L14.5 15ZM14 12.5L14 15.5L15 15.5L15 12.5L14 12.5ZM17.5 12L14.5 12L14.5 13L17.5 13L17.5 12Z" fill="var(--mw-icon-glyph-content-green, #008014)"/>
<path d="M0.5 18.5V4.5C0.5 2.29086 2.29086 0.5 4.5 0.5H18.5C20.7091 0.5 22.5 2.29086 22.5 4.5V18.5C22.5 20.7091 20.7091 22.5 18.5 22.5H4.5C2.29086 22.5 0.5 20.7091 0.5 18.5Z" stroke="#B7312C" stroke-linecap="round"/>
</svg>
