<svg width="24" height="24" viewBox="0 0 24 24" fill="none" xmlns="http://www.w3.org/2000/svg">
<rect x="0.5" y="0.5" width="22" height="22" rx="2" fill="var(--mw-icon-background-default-white, #FFFFFF)"/>
<path d="M7.5 22.5C7.82229 21.5334 5.74465 20.3599 4 18.9781C3.03722 18.2155 2.32807 17.3897 2.49986 16.5007C2.66752 15.633 3.24606 15.1148 4 14.7344C4.51192 14.4761 5.10472 14.2812 5.70467 14.0837C6.37143 13.8641 7.04703 13.641 7.63029 13.3236C8.21235 13.0068 8.70244 12.596 9 12.0007C9.81745 10.3654 9.89243 8.73035 10.4388 7.5C10.895 6.47268 11.6799 5.72753 13.5 5.50003C13.6702 5.47876 13.8368 5.46563 14 5.46C15.246 5.417 16.2943 5.81081 17.2479 6.34995C18.8998 7.28388 20.8821 9.20888 22.5 9.5" stroke="var(--mw-icon-background-default-selection, #B4DEFF)" stroke-width="2.5" stroke-linejoin="round"/>
<path d="M7.5 22.5C7.82229 21.5334 5.74465 20.3599 4 18.9781C3.03722 18.2155 2.32807 17.3897 2.49986 16.5007C2.66752 15.633 3.24606 15.1148 4 14.7344C4.51192 14.4761 5.10472 14.2812 5.70467 14.0837C6.37143 13.8641 7.04703 13.641 7.63029 13.3236C8.21235 13.0068 8.70244 12.596 9 12.0007C9.81745 10.3654 9.89243 8.73035 10.4388 7.5C10.895 6.47268 11.6799 5.72753 13.5 5.50003C13.6702 5.47876 13.8368 5.46563 14 5.46C15.246 5.417 16.2943 5.81081 17.2479 6.34995C18.8998 7.28388 20.8821 9.20888 22.5 9.5" stroke="var(--mw-icon-glyph-content-gray, #616162)" stroke-linecap="round" stroke-linejoin="round"/>
<path d="M4 4C4 3.44772 4.44772 3 5 3C5.55228 3 6 3.44772 6 4C6 4.55228 5.55228 5 5 5C4.44772 5 4 4.55228 4 4Z" fill="var(--mw-icon-glyph-disabled-gray, #888889)"/>
<path d="M2 7C2 6.44772 2.44772 6 3 6C3.55228 6 4 6.44772 4 7C4 7.55228 3.55228 8 3 8C2.44772 8 2 7.55228 2 7Z" fill="var(--mw-icon-glyph-disabled-gray, #888889)"/>
<path d="M5 8C5 7.44772 5.44772 7 6 7C6.55228 7 7 7.44772 7 8C7 8.55228 6.55228 9 6 9C5.44772 9 5 8.55228 5 8Z" fill="var(--mw-icon-glyph-disabled-gray, #888889)"/>
<path d="M9 3C9 2.44772 9.44772 2 10 2C10.5523 2 11 2.44772 11 3C11 3.55228 10.5523 4 10 4C9.44772 4 9 3.55228 9 3Z" fill="var(--mw-icon-glyph-disabled-gray, #888889)"/>
<path d="M16 3C16 2.44772 16.4477 2 17 2C17.5523 2 18 2.44772 18 3C18 3.55228 17.5523 4 17 4C16.4477 4 16 3.55228 16 3Z" fill="var(--mw-icon-glyph-disabled-gray, #888889)"/>
<path d="M19 5C19 4.44772 19.4477 4 20 4C20.5523 4 21 4.44772 21 5C21 5.55228 20.5523 6 20 6C19.4477 6 19 5.55228 19 5Z" fill="var(--mw-icon-glyph-disabled-gray, #888889)"/>
<path d="M17 11C17 10.4477 17.4477 10 18 10C18.5523 10 19 10.4477 19 11C19 11.5523 18.5523 12 18 12C17.4477 12 17 11.5523 17 11Z" fill="var(--mw-icon-glyph-disabled-gray, #888889)"/>
<path d="M13 13C13 12.4477 13.4477 12 14 12C14.5523 12 15 12.4477 15 13C15 13.5523 14.5523 14 14 14C13.4477 14 13 13.5523 13 13Z" fill="var(--mw-icon-glyph-disabled-gray, #888889)"/>
<path d="M16 15C16 14.4477 16.4477 14 17 14C17.5523 14 18 14.4477 18 15C18 15.5523 17.5523 16 17 16C16.4477 16 16 15.5523 16 15Z" fill="var(--mw-icon-glyph-disabled-gray, #888889)"/>
<path d="M19 18C19 17.4477 19.4477 17 20 17C20.5523 17 21 17.4477 21 18C21 18.5523 20.5523 19 20 19C19.4477 19 19 18.5523 19 18Z" fill="var(--mw-icon-glyph-disabled-gray, #888889)"/>
<path d="M15 19C15 18.4477 15.4477 18 16 18C16.5523 18 17 18.4477 17 19C17 19.5523 16.5523 20 16 20C15.4477 20 15 19.5523 15 19Z" fill="var(--mw-icon-glyph-disabled-gray, #888889)"/>
<path d="M11 18C11 17.4477 11.4477 17 12 17C12.5523 17 13 17.4477 13 18C13 18.5523 12.5523 19 12 19C11.4477 19 11 18.5523 11 18Z" fill="var(--mw-icon-glyph-disabled-gray, #888889)"/>
<path d="M7 17C7 16.4477 7.44772 16 8 16C8.55228 16 9 16.4477 9 17C9 17.5523 8.55228 18 8 18C7.44772 18 7 17.5523 7 17Z" fill="var(--mw-icon-glyph-disabled-gray, #888889)"/>
<rect x="0.5" y="0.5" width="22" height="22" rx="2" stroke="var(--mw-icon-border-default-gray, #616161)"/>
</svg>
