<svg width="24" height="24" viewBox="0 0 24 24" fill="none" xmlns="http://www.w3.org/2000/svg">
<rect x="0.5" y="0.5" width="22" height="22" rx="2" fill="var(--mw-icon-background-default-white, #FFFFFF)"/>
<path d="M5 11C5 10.4477 5.44772 10 6 10C6.55228 10 7 10.4477 7 11C7 11.5523 6.55228 12 6 12C5.44772 12 5 11.5523 5 11Z" fill="#FFCBCB"/>
<path d="M1 13C1 12.4477 1.44772 12 2 12C2.55228 12 3 12.4477 3 13C3 13.5523 2.55228 14 2 14C1.44772 14 1 13.5523 1 13Z" fill="#FFCBCB"/>
<path d="M2 9C2 8.44772 2.44772 8 3 8C3.55228 8 4 8.44772 4 9C4 9.55228 3.55228 10 3 10C2.44772 10 2 9.55228 2 9Z" fill="var(--mw-icon-background-red, #FF9D9A)"/>
<path d="M3 5C3 4.44772 3.44772 4 4 4C4.55228 4 5 4.44772 5 5C5 5.55228 4.55228 6 4 6C3.44772 6 3 5.55228 3 5Z" fill="#DD5400"/>
<path d="M4 1C4 0.447715 4.44772 0 5 0C5.55228 0 6 0.447715 6 1C6 1.55228 5.55228 2 5 2C4.44772 2 4 1.55228 4 1Z" fill="#DD5400"/>
<path d="M0 4C0 3.44772 0.447715 3 1 3C1.55228 3 2 3.44772 2 4C2 4.55228 1.55228 5 1 5C0.447715 5 0 4.55228 0 4Z" fill="#DD5400"/>
<path d="M7 3C7 2.44772 7.44772 2 8 2C8.55228 2 9 2.44772 9 3C9 3.55228 8.55228 4 8 4C7.44772 4 7 3.55228 7 3Z" fill="var(--mw-icon-background-red, #FF9D9A)"/>
<path d="M6 7C6 6.44772 6.44772 6 7 6C7.55228 6 8 6.44772 8 7C8 7.55228 7.55228 8 7 8C6.44772 8 6 7.55228 6 7Z" fill="var(--mw-icon-background-red, #FF9D9A)"/>
<path d="M9 5C9 4.44772 9.44772 4 10 4C10.5523 4 11 4.44772 11 5C11 5.55228 10.5523 6 10 6C9.44772 6 9 5.55228 9 5Z" fill="#FFCBCB"/>
<path d="M11 1C11 0.447715 11.4477 0 12 0C12.5523 0 13 0.447715 13 1C13 1.55228 12.5523 2 12 2C11.4477 2 11 1.55228 11 1Z" fill="var(--mw-icon-background-red, #FF9D9A)"/>
<path d="M14 3C14 2.44772 14.4477 2 15 2C15.5523 2 16 2.44772 16 3C16 3.55228 15.5523 4 15 4C14.4477 4 14 3.55228 14 3Z" fill="#FFCBCB"/>
<path d="M18 4C18 3.44772 18.4477 3 19 3C19.5523 3 20 3.44772 20 4C20 4.55228 19.5523 5 19 5C18.4477 5 18 4.55228 18 4Z" fill="#FFCBCB"/>
<path d="M6 17C6 16.4477 6.44772 16 7 16C7.55228 16 8 16.4477 8 17C8 17.5523 7.55228 18 7 18C6.44772 18 6 17.5523 6 17Z" fill="var(--mw-icon-background-default-selection, #B4DEFF)"/>
<path d="M10 15C10 14.4477 10.4477 14 11 14C11.5523 14 12 14.4477 12 15C12 15.5523 11.5523 16 11 16C10.4477 16 10 15.5523 10 15Z" fill="var(--mw-icon-background-default-selection, #B4DEFF)"/>
<path d="M15 18C15 17.4477 15.4477 17 16 17C16.5523 17 17 17.4477 17 18C17 18.5523 16.5523 19 16 19C15.4477 19 15 18.5523 15 18Z" fill="#1171BE"/>
<path d="M10 19C10 18.4477 10.4477 18 11 18C11.5523 18 12 18.4477 12 19C12 19.5523 11.5523 20 11 20C10.4477 20 10 19.5523 10 19Z" fill="var(--mw-icon-background-medium-blue, #83CAFF)"/>
<path d="M19 19C19 18.4477 19.4477 18 20 18C20.5523 18 21 18.4477 21 19C21 19.5523 20.5523 20 20 20C19.4477 20 19 19.5523 19 19Z" fill="#1171BE"/>
<path d="M14 14C14 13.4477 14.4477 13 15 13C15.5523 13 16 13.4477 16 14C16 14.5523 15.5523 15 15 15C14.4477 15 14 14.5523 14 14Z" fill="var(--mw-icon-background-medium-blue, #83CAFF)"/>
<path d="M19 14C19 13.4477 19.4477 13 20 13C20.5523 13 21 13.4477 21 14C21 14.5523 20.5523 15 20 15C19.4477 15 19 14.5523 19 14Z" fill="#1171BE"/>
<path d="M17 11C17 10.4477 17.4477 10 18 10C18.5523 10 19 10.4477 19 11C19 11.5523 18.5523 12 18 12C17.4477 12 17 11.5523 17 11Z" fill="var(--mw-icon-background-medium-blue, #83CAFF)"/>
<path d="M13 10C13 9.44772 13.4477 9 14 9C14.5523 9 15 9.44772 15 10C15 10.5523 14.5523 11 14 11C13.4477 11 13 10.5523 13 10Z" fill="var(--mw-icon-background-default-selection, #B4DEFF)"/>
<path d="M8.5 22.5C8.82229 21.5334 5.74465 20.3599 4 18.9781C3.03722 18.2155 2.32807 17.3897 2.49986 16.5007C2.66752 15.633 3.24606 15.1148 4 14.7344C4.51192 14.4761 5.10472 14.2812 5.70467 14.0837C6.37143 13.8641 7.04703 13.641 7.63029 13.3236C8.21235 13.0068 8.70244 12.596 9 12.0007C9.81745 10.3654 9.89243 8.73035 10.4388 7.5C10.895 6.47268 11.6799 5.72753 13.5 5.50003C13.6702 5.47876 13.8368 5.46563 14 5.46C15.246 5.417 16.2943 5.81081 17.2479 6.34995C18.8998 7.28388 20.8821 9.20888 22.5 9.5" stroke="var(--mw-icon-glyph-content-gray, #616162)" stroke-linecap="round" stroke-linejoin="round"/>
<rect x="0.5" y="0.5" width="22" height="22" rx="2" stroke="var(--mw-icon-border-default-gray, #616161)"/>
</svg>
