<svg width="24" height="24" viewBox="0 0 24 24" fill="none" xmlns="http://www.w3.org/2000/svg">
<rect x="3.5" y="3.5" width="19" height="19" rx="2" fill="var(--mw-icon-background-default-medium-gray, #D9D9D9)" stroke="var(--mw-icon-border-default-gray, #616161)"/>
<rect x="0.5" y="0.5" width="19" height="19" rx="2" fill="var(--mw-icon-background-default-white, #FFFFFF)"/>
<path d="M7.5 19.5C7.5 18.5 5.27635 17.242 3.79532 16.1069C2.97801 15.4805 2.37602 14.8022 2.52185 14.0719C2.66418 13.3592 3.1553 12.9335 3.79532 12.621C4.22989 12.4088 4.73312 12.2488 5.24242 12.0865C5.80843 11.9061 6.38195 11.7229 6.87708 11.4621C7.37119 11.2019 7.78723 10.8644 8.03983 10.3754C8.73376 9.03215 8.79741 7.68903 9.26123 6.67837C9.6485 5.83449 10.7392 5.18948 12.2843 5.00261M12.2843 5.00261C12.4288 4.98513 12.1458 5.00723 12.2843 5.00261ZM12.2843 5.00261C13.3421 4.96729 14.232 5.2908 15.0415 5.73367C16.4438 6.50084 18.1266 8.26085 19.5 8.49999" stroke="var(--mw-icon-background-default-selection, #B4DEFF)" stroke-width="4" stroke-linejoin="round"/>
<path d="M7.5 19.5C7.77359 18.706 5.27635 17.242 3.79532 16.1069C2.97801 15.4805 2.37602 14.8022 2.52185 14.0719C2.66418 13.3592 3.1553 12.9335 3.79532 12.621C4.22989 12.4088 4.73312 12.2488 5.24242 12.0865C5.80843 11.9061 6.38195 11.7229 6.87708 11.4621C7.37119 11.2019 7.78723 10.8644 8.03983 10.3755C8.73376 9.03216 8.79741 7.68904 9.26123 6.67838C9.6485 5.8345 10.3148 5.2224 11.8599 5.03552C12.0044 5.01805 12.1458 5.00726 12.2843 5.00264C13.3421 4.96732 14.232 5.29081 15.0415 5.73368C16.4438 6.50085 18.1266 8.26086 19.5 8.5" stroke="var(--mw-icon-glyph-content-gray, #616162)" stroke-linecap="round" stroke-linejoin="round"/>
<path d="M3 3C3 2.44772 3.44772 2 4 2C4.55228 2 5 2.44772 5 3C5 3.55228 4.55228 4 4 4C3.44772 4 3 3.55228 3 3Z" fill="var(--mw-icon-glyph-disabled-gray, #888889)"/>
<path d="M1 6C1 5.44772 1.44772 5 2 5C2.55228 5 3 5.44772 3 6C3 6.55228 2.55228 7 2 7C1.44772 7 1 6.55228 1 6Z" fill="var(--mw-icon-glyph-disabled-gray, #888889)"/>
<path d="M4 7C4 6.44772 4.44772 6 5 6C5.55228 6 6 6.44772 6 7C6 7.55228 5.55228 8 5 8C4.44772 8 4 7.55228 4 7Z" fill="var(--mw-icon-glyph-disabled-gray, #888889)"/>
<path d="M8 2C8 1.44772 8.44772 1 9 1C9.55228 1 10 1.44772 10 2C10 2.55228 9.55228 3 9 3C8.44772 3 8 2.55228 8 2Z" fill="var(--mw-icon-glyph-disabled-gray, #888889)"/>
<path d="M15 2C15 1.44772 15.4477 1 16 1C16.5523 1 17 1.44772 17 2C17 2.55228 16.5523 3 16 3C15.4477 3 15 2.55228 15 2Z" fill="var(--mw-icon-glyph-disabled-gray, #888889)"/>
<path d="M16 11C16 10.4477 16.4477 10 17 10C17.5523 10 18 10.4477 18 11C18 11.5523 17.5523 12 17 12C16.4477 12 16 11.5523 16 11Z" fill="var(--mw-icon-glyph-disabled-gray, #888889)"/>
<path d="M11 12C11 11.4477 11.4477 11 12 11C12.5523 11 13 11.4477 13 12C13 12.5523 12.5523 13 12 13C11.4477 13 11 12.5523 11 12Z" fill="var(--mw-icon-glyph-disabled-gray, #888889)"/>
<path d="M14 14C14 13.4477 14.4477 13 15 13C15.5523 13 16 13.4477 16 14C16 14.5523 15.5523 15 15 15C14.4477 15 14 14.5523 14 14Z" fill="var(--mw-icon-glyph-disabled-gray, #888889)"/>
<path d="M17 16C17 15.4477 17.4477 15 18 15C18.5523 15 19 15.4477 19 16C19 16.5523 18.5523 17 18 17C17.4477 17 17 16.5523 17 16Z" fill="var(--mw-icon-glyph-disabled-gray, #888889)"/>
<path d="M15 19C15 18.4477 15.4477 18 16 18C16.5523 18 17 18.4477 17 19C17 19.5523 16.5523 20 16 20C15.4477 20 15 19.5523 15 19Z" fill="var(--mw-icon-glyph-disabled-gray, #888889)"/>
<path d="M11 17C11 16.4477 11.4477 16 12 16C12.5523 16 13 16.4477 13 17C13 17.5523 12.5523 18 12 18C11.4477 18 11 17.5523 11 17Z" fill="var(--mw-icon-glyph-disabled-gray, #888889)"/>
<path d="M8 15C8 14.4477 8.44772 14 9 14C9.55228 14 10 14.4477 10 15C10 15.5523 9.55228 16 9 16C8.44772 16 8 15.5523 8 15Z" fill="var(--mw-icon-glyph-disabled-gray, #888889)"/>
<rect x="0.5" y="0.5" width="19" height="19" rx="2" stroke="var(--mw-icon-border-default-gray, #616161)"/>
</svg>
