<svg width="24" height="24" viewBox="0 0 24 24" fill="none" xmlns="http://www.w3.org/2000/svg">
<rect x="0.5" y="0.5" width="22" height="22" rx="2" fill="var(--mw-icon-background-default-white, #FFFFFF)"/>
<path d="M2.5 19.5C2.5 18.9477 2.94772 18.5 3.5 18.5C4.05228 18.5 4.5 18.9477 4.5 19.5C4.5 20.0523 4.05228 20.5 3.5 20.5C2.94772 20.5 2.5 20.0523 2.5 19.5Z" fill="white"/>
<path d="M6.5 21.5C6.5 20.9477 6.94772 20.5 7.5 20.5C8.05228 20.5 8.5 20.9477 8.5 21.5C8.5 22.0523 8.05228 22.5 7.5 22.5C6.94772 22.5 6.5 22.0523 6.5 21.5Z" fill="white"/>
<path d="M15.5 19.5C15.5 18.9477 15.9477 18.5 16.5 18.5C17.0523 18.5 17.5 18.9477 17.5 19.5C17.5 20.0523 17.0523 20.5 16.5 20.5C15.9477 20.5 15.5 20.0523 15.5 19.5Z" fill="white"/>
<path d="M19.5 20.5C19.5 19.9477 19.9477 19.5 20.5 19.5C21.0523 19.5 21.5 19.9477 21.5 20.5C21.5 21.0523 21.0523 21.5 20.5 21.5C19.9477 21.5 19.5 21.0523 19.5 20.5Z" fill="white"/>
<path d="M18.5 15.5C18.5 14.9477 18.9477 14.5 19.5 14.5C20.0523 14.5 20.5 14.9477 20.5 15.5C20.5 16.0523 20.0523 16.5 19.5 16.5C18.9477 16.5 18.5 16.0523 18.5 15.5Z" fill="white"/>
<path d="M18.5 3.5C18.5 2.94772 18.9477 2.5 19.5 2.5C20.0523 2.5 20.5 2.94772 20.5 3.5C20.5 4.05228 20.0523 4.5 19.5 4.5C18.9477 4.5 18.5 4.05228 18.5 3.5Z" fill="white"/>
<path d="M11.5 10.5C11.5 9.94772 11.9477 9.5 12.5 9.5C13.0523 9.5 13.5 9.94772 13.5 10.5C13.5 11.0523 13.0523 11.5 12.5 11.5C11.9477 11.5 11.5 11.0523 11.5 10.5Z" fill="white"/>
<path d="M7.5 7.5C7.5 6.94772 7.94772 6.5 8.5 6.5C9.05228 6.5 9.5 6.94772 9.5 7.5C9.5 8.05228 9.05228 8.5 8.5 8.5C7.94772 8.5 7.5 8.05228 7.5 7.5Z" fill="white"/>
<path d="M13.5 7.5C13.5 6.94772 13.9477 6.5 14.5 6.5C15.0523 6.5 15.5 6.94772 15.5 7.5C15.5 8.05228 15.0523 8.5 14.5 8.5C13.9477 8.5 13.5 8.05228 13.5 7.5Z" fill="white"/>
<path d="M2.5 19.5C2.5 18.9477 2.94772 18.5 3.5 18.5C4.05228 18.5 4.5 18.9477 4.5 19.5C4.5 20.0523 4.05228 20.5 3.5 20.5C2.94772 20.5 2.5 20.0523 2.5 19.5Z" stroke="#1171BE"/>
<path d="M6.5 21.5C6.5 20.9477 6.94772 20.5 7.5 20.5C8.05228 20.5 8.5 20.9477 8.5 21.5C8.5 22.0523 8.05228 22.5 7.5 22.5C6.94772 22.5 6.5 22.0523 6.5 21.5Z" stroke="#1171BE"/>
<path d="M15.5 19.5C15.5 18.9477 15.9477 18.5 16.5 18.5C17.0523 18.5 17.5 18.9477 17.5 19.5C17.5 20.0523 17.0523 20.5 16.5 20.5C15.9477 20.5 15.5 20.0523 15.5 19.5Z" stroke="#1171BE"/>
<path d="M19.5 20.5C19.5 19.9477 19.9477 19.5 20.5 19.5C21.0523 19.5 21.5 19.9477 21.5 20.5C21.5 21.0523 21.0523 21.5 20.5 21.5C19.9477 21.5 19.5 21.0523 19.5 20.5Z" stroke="#1171BE"/>
<path d="M18.5 15.5C18.5 14.9477 18.9477 14.5 19.5 14.5C20.0523 14.5 20.5 14.9477 20.5 15.5C20.5 16.0523 20.0523 16.5 19.5 16.5C18.9477 16.5 18.5 16.0523 18.5 15.5Z" stroke="#1171BE"/>
<path d="M18.5 3.5C18.5 2.94772 18.9477 2.5 19.5 2.5C20.0523 2.5 20.5 2.94772 20.5 3.5C20.5 4.05228 20.0523 4.5 19.5 4.5C18.9477 4.5 18.5 4.05228 18.5 3.5Z" stroke="#1171BE"/>
<path d="M11.5 10.5C11.5 9.94772 11.9477 9.5 12.5 9.5C13.0523 9.5 13.5 9.94772 13.5 10.5C13.5 11.0523 13.0523 11.5 12.5 11.5C11.9477 11.5 11.5 11.0523 11.5 10.5Z" stroke="#1171BE"/>
<path d="M7.5 7.5C7.5 6.94772 7.94772 6.5 8.5 6.5C9.05228 6.5 9.5 6.94772 9.5 7.5C9.5 8.05228 9.05228 8.5 8.5 8.5C7.94772 8.5 7.5 8.05228 7.5 7.5Z" stroke="#1171BE"/>
<path d="M13.5 7.5C13.5 6.94772 13.9477 6.5 14.5 6.5C15.0523 6.5 15.5 6.94772 15.5 7.5C15.5 8.05228 15.0523 8.5 14.5 8.5C13.9477 8.5 13.5 8.05228 13.5 7.5Z" stroke="#1171BE"/>
<path d="M2.5 3.5C2.5 2.94772 2.94772 2.5 3.5 2.5C4.05228 2.5 4.5 2.94772 4.5 3.5C4.5 4.05228 4.05228 4.5 3.5 4.5C2.94772 4.5 2.5 4.05228 2.5 3.5Z" fill="white"/>
<path d="M0.5 9.5C0.5 8.94772 0.947715 8.5 1.5 8.5C2.05228 8.5 2.5 8.94772 2.5 9.5C2.5 10.0523 2.05228 10.5 1.5 10.5C0.947715 10.5 0.5 10.0523 0.5 9.5Z" fill="white"/>
<path d="M7.5 11.5C7.5 10.9477 7.94772 10.5 8.5 10.5C9.05228 10.5 9.5 10.9477 9.5 11.5C9.5 12.0523 9.05228 12.5 8.5 12.5C7.94772 12.5 7.5 12.0523 7.5 11.5Z" fill="white"/>
<path d="M9.5 15.5C9.5 14.9477 9.94772 14.5 10.5 14.5C11.0523 14.5 11.5 14.9477 11.5 15.5C11.5 16.0523 11.0523 16.5 10.5 16.5C9.94772 16.5 9.5 16.0523 9.5 15.5Z" fill="white"/>
<path d="M13.5 14.5C13.5 13.9477 13.9477 13.5 14.5 13.5C15.0523 13.5 15.5 13.9477 15.5 14.5C15.5 15.0523 15.0523 15.5 14.5 15.5C13.9477 15.5 13.5 15.0523 13.5 14.5Z" fill="white"/>
<path d="M2.5 3.5C2.5 2.94772 2.94772 2.5 3.5 2.5C4.05228 2.5 4.5 2.94772 4.5 3.5C4.5 4.05228 4.05228 4.5 3.5 4.5C2.94772 4.5 2.5 4.05228 2.5 3.5Z" stroke="#DD5400"/>
<path d="M0.5 9.5C0.5 8.94772 0.947715 8.5 1.5 8.5C2.05228 8.5 2.5 8.94772 2.5 9.5C2.5 10.0523 2.05228 10.5 1.5 10.5C0.947715 10.5 0.5 10.0523 0.5 9.5Z" stroke="#DD5400"/>
<path d="M7.5 11.5C7.5 10.9477 7.94772 10.5 8.5 10.5C9.05228 10.5 9.5 10.9477 9.5 11.5C9.5 12.0523 9.05228 12.5 8.5 12.5C7.94772 12.5 7.5 12.0523 7.5 11.5Z" stroke="#DD5400"/>
<path d="M9.5 15.5C9.5 14.9477 9.94772 14.5 10.5 14.5C11.0523 14.5 11.5 14.9477 11.5 15.5C11.5 16.0523 11.0523 16.5 10.5 16.5C9.94772 16.5 9.5 16.0523 9.5 15.5Z" stroke="#DD5400"/>
<path d="M13.5 14.5C13.5 13.9477 13.9477 13.5 14.5 13.5C15.0523 13.5 15.5 13.9477 15.5 14.5C15.5 15.0523 15.0523 15.5 14.5 15.5C13.9477 15.5 13.5 15.0523 13.5 14.5Z" stroke="#DD5400"/>
<circle cx="11" cy="11" r="7.5" stroke="var(--mw-icon-glyph-content-gray, #616162)"/>
<rect x="0.5" y="0.5" width="22" height="22" rx="2" stroke="#212121"/>
</svg>
