<svg width="24" height="24" viewBox="0 0 24 24" fill="none" xmlns="http://www.w3.org/2000/svg">
<rect x="0.5" y="0.5" width="22" height="22" rx="2" fill="var(--mw-icon-background-default-white, #FFFFFF)"/>
<path d="M0.5 20.5L8.5 10.5M0.5 20.5L16.5 8.5M0.5 20.5L14.5 14.5" stroke="var(--mw-icon-glyph-content-gray, #616162)" stroke-linecap="round" stroke-linejoin="round"/>
<path d="M3.5 11.5C3.5 10.9477 3.94772 10.5 4.5 10.5C5.05228 10.5 5.5 10.9477 5.5 11.5C5.5 12.0523 5.05228 12.5 4.5 12.5C3.94772 12.5 3.5 12.0523 3.5 11.5Z" fill="white"/>
<path d="M11.5 7.5C11.5 6.94772 11.9477 6.5 12.5 6.5C13.0523 6.5 13.5 6.94772 13.5 7.5C13.5 8.05228 13.0523 8.5 12.5 8.5C11.9477 8.5 11.5 8.05228 11.5 7.5Z" fill="white"/>
<path d="M12.5 3.5C12.5 2.94772 12.9477 2.5 13.5 2.5C14.0523 2.5 14.5 2.94772 14.5 3.5C14.5 4.05228 14.0523 4.5 13.5 4.5C12.9477 4.5 12.5 4.05228 12.5 3.5Z" fill="white"/>
<path d="M16.5 7.5C16.5 6.94772 16.9477 6.5 17.5 6.5C18.0523 6.5 18.5 6.94772 18.5 7.5C18.5 8.05228 18.0523 8.5 17.5 8.5C16.9477 8.5 16.5 8.05228 16.5 7.5Z" fill="white"/>
<path d="M19.5 12.5C19.5 11.9477 19.9477 11.5 20.5 11.5C21.0523 11.5 21.5 11.9477 21.5 12.5C21.5 13.0523 21.0523 13.5 20.5 13.5C19.9477 13.5 19.5 13.0523 19.5 12.5Z" fill="white"/>
<path d="M18.5 19.5C18.5 18.9477 18.9477 18.5 19.5 18.5C20.0523 18.5 20.5 18.9477 20.5 19.5C20.5 20.0523 20.0523 20.5 19.5 20.5C18.9477 20.5 18.5 20.0523 18.5 19.5Z" fill="white"/>
<path d="M14.5 13.5C14.5 12.9477 14.9477 12.5 15.5 12.5C16.0523 12.5 16.5 12.9477 16.5 13.5C16.5 14.0523 16.0523 14.5 15.5 14.5C14.9477 14.5 14.5 14.0523 14.5 13.5Z" fill="white"/>
<path d="M3.5 11.5C3.5 10.9477 3.94772 10.5 4.5 10.5C5.05228 10.5 5.5 10.9477 5.5 11.5C5.5 12.0523 5.05228 12.5 4.5 12.5C3.94772 12.5 3.5 12.0523 3.5 11.5Z" stroke="#1171BE"/>
<path d="M11.5 7.5C11.5 6.94772 11.9477 6.5 12.5 6.5C13.0523 6.5 13.5 6.94772 13.5 7.5C13.5 8.05228 13.0523 8.5 12.5 8.5C11.9477 8.5 11.5 8.05228 11.5 7.5Z" stroke="#1171BE"/>
<path d="M12.5 3.5C12.5 2.94772 12.9477 2.5 13.5 2.5C14.0523 2.5 14.5 2.94772 14.5 3.5C14.5 4.05228 14.0523 4.5 13.5 4.5C12.9477 4.5 12.5 4.05228 12.5 3.5Z" stroke="#1171BE"/>
<path d="M16.5 7.5C16.5 6.94772 16.9477 6.5 17.5 6.5C18.0523 6.5 18.5 6.94772 18.5 7.5C18.5 8.05228 18.0523 8.5 17.5 8.5C16.9477 8.5 16.5 8.05228 16.5 7.5Z" stroke="#1171BE"/>
<path d="M19.5 12.5C19.5 11.9477 19.9477 11.5 20.5 11.5C21.0523 11.5 21.5 11.9477 21.5 12.5C21.5 13.0523 21.0523 13.5 20.5 13.5C19.9477 13.5 19.5 13.0523 19.5 12.5Z" stroke="#1171BE"/>
<path d="M18.5 19.5C18.5 18.9477 18.9477 18.5 19.5 18.5C20.0523 18.5 20.5 18.9477 20.5 19.5C20.5 20.0523 20.0523 20.5 19.5 20.5C18.9477 20.5 18.5 20.0523 18.5 19.5Z" stroke="#1171BE"/>
<path d="M14.5 13.5C14.5 12.9477 14.9477 12.5 15.5 12.5C16.0523 12.5 16.5 12.9477 16.5 13.5C16.5 14.0523 16.0523 14.5 15.5 14.5C14.9477 14.5 14.5 14.0523 14.5 13.5Z" stroke="#1171BE"/>
<path d="M12.5 18.5C12.5 17.9477 12.9477 17.5 13.5 17.5C14.0523 17.5 14.5 17.9477 14.5 18.5C14.5 19.0523 14.0523 19.5 13.5 19.5C12.9477 19.5 12.5 19.0523 12.5 18.5Z" fill="white"/>
<path d="M8.5 9.5C8.5 8.94772 8.94772 8.5 9.5 8.5C10.0523 8.5 10.5 8.94772 10.5 9.5C10.5 10.0523 10.0523 10.5 9.5 10.5C8.94772 10.5 8.5 10.0523 8.5 9.5Z" fill="white"/>
<path d="M18.5 3.5C18.5 2.94772 18.9477 2.5 19.5 2.5C20.0523 2.5 20.5 2.94772 20.5 3.5C20.5 4.05228 20.0523 4.5 19.5 4.5C18.9477 4.5 18.5 4.05228 18.5 3.5Z" fill="white"/>
<path d="M12.5 18.5C12.5 17.9477 12.9477 17.5 13.5 17.5C14.0523 17.5 14.5 17.9477 14.5 18.5C14.5 19.0523 14.0523 19.5 13.5 19.5C12.9477 19.5 12.5 19.0523 12.5 18.5Z" stroke="#DD5400"/>
<path d="M8.5 9.5C8.5 8.94772 8.94772 8.5 9.5 8.5C10.0523 8.5 10.5 8.94772 10.5 9.5C10.5 10.0523 10.0523 10.5 9.5 10.5C8.94772 10.5 8.5 10.0523 8.5 9.5Z" stroke="#DD5400"/>
<path d="M18.5 3.5C18.5 2.94772 18.9477 2.5 19.5 2.5C20.0523 2.5 20.5 2.94772 20.5 3.5C20.5 4.05228 20.0523 4.5 19.5 4.5C18.9477 4.5 18.5 4.05228 18.5 3.5Z" stroke="#DD5400"/>
<rect x="0.5" y="0.5" width="22" height="22" rx="2" stroke="#212121"/>
</svg>
