<svg width="24" height="24" viewBox="0 0 24 24" fill="none" xmlns="http://www.w3.org/2000/svg">
<rect x="0.5" y="0.5" width="22" height="22" rx="2" fill="var(--mw-icon-background-default-white, #FFFFFF)"/>
<path d="M1.5 20.5C1.5 19.9477 1.94772 19.5 2.5 19.5C3.05228 19.5 3.5 19.9477 3.5 20.5C3.5 21.0523 3.05228 21.5 2.5 21.5C1.94772 21.5 1.5 21.0523 1.5 20.5Z" fill="white"/>
<path d="M20.5 17.5C20.5 16.9477 20.9477 16.5 21.5 16.5C22.0523 16.5 22.5 16.9477 22.5 17.5C22.5 18.0523 22.0523 18.5 21.5 18.5C20.9477 18.5 20.5 18.0523 20.5 17.5Z" fill="white"/>
<path d="M16.5 1.5C16.5 0.947715 16.9477 0.5 17.5 0.5C18.0523 0.5 18.5 0.947715 18.5 1.5C18.5 2.05228 18.0523 2.5 17.5 2.5C16.9477 2.5 16.5 2.05228 16.5 1.5Z" fill="white"/>
<path d="M1.5 2.5C1.5 1.94772 1.94772 1.5 2.5 1.5C3.05228 1.5 3.5 1.94772 3.5 2.5C3.5 3.05228 3.05228 3.5 2.5 3.5C1.94772 3.5 1.5 3.05228 1.5 2.5Z" fill="white"/>
<path d="M6.5 12.5C6.5 11.9477 6.94772 11.5 7.5 11.5C8.05228 11.5 8.5 11.9477 8.5 12.5C8.5 13.0523 8.05228 13.5 7.5 13.5C6.94772 13.5 6.5 13.0523 6.5 12.5Z" fill="white"/>
<path d="M10.5 10.5C10.5 9.94772 10.9477 9.5 11.5 9.5C12.0523 9.5 12.5 9.94772 12.5 10.5C12.5 11.0523 12.0523 11.5 11.5 11.5C10.9477 11.5 10.5 11.0523 10.5 10.5Z" fill="white"/>
<path d="M13.5 14.5C13.5 13.9477 13.9477 13.5 14.5 13.5C15.0523 13.5 15.5 13.9477 15.5 14.5C15.5 15.0523 15.0523 15.5 14.5 15.5C13.9477 15.5 13.5 15.0523 13.5 14.5Z" fill="white"/>
<path d="M1.5 20.5C1.5 19.9477 1.94772 19.5 2.5 19.5C3.05228 19.5 3.5 19.9477 3.5 20.5C3.5 21.0523 3.05228 21.5 2.5 21.5C1.94772 21.5 1.5 21.0523 1.5 20.5Z" stroke="#1171BE"/>
<path d="M20.5 17.5C20.5 16.9477 20.9477 16.5 21.5 16.5C22.0523 16.5 22.5 16.9477 22.5 17.5C22.5 18.0523 22.0523 18.5 21.5 18.5C20.9477 18.5 20.5 18.0523 20.5 17.5Z" stroke="#1171BE"/>
<path d="M16.5 1.5C16.5 0.947715 16.9477 0.5 17.5 0.5C18.0523 0.5 18.5 0.947715 18.5 1.5C18.5 2.05228 18.0523 2.5 17.5 2.5C16.9477 2.5 16.5 2.05228 16.5 1.5Z" stroke="#1171BE"/>
<path d="M1.5 2.5C1.5 1.94772 1.94772 1.5 2.5 1.5C3.05228 1.5 3.5 1.94772 3.5 2.5C3.5 3.05228 3.05228 3.5 2.5 3.5C1.94772 3.5 1.5 3.05228 1.5 2.5Z" stroke="#1171BE"/>
<path d="M6.5 12.5C6.5 11.9477 6.94772 11.5 7.5 11.5C8.05228 11.5 8.5 11.9477 8.5 12.5C8.5 13.0523 8.05228 13.5 7.5 13.5C6.94772 13.5 6.5 13.0523 6.5 12.5Z" stroke="#1171BE"/>
<path d="M10.5 10.5C10.5 9.94772 10.9477 9.5 11.5 9.5C12.0523 9.5 12.5 9.94772 12.5 10.5C12.5 11.0523 12.0523 11.5 11.5 11.5C10.9477 11.5 10.5 11.0523 10.5 10.5Z" stroke="#1171BE"/>
<path d="M13.5 14.5C13.5 13.9477 13.9477 13.5 14.5 13.5C15.0523 13.5 15.5 13.9477 15.5 14.5C15.5 15.0523 15.0523 15.5 14.5 15.5C13.9477 15.5 13.5 15.0523 13.5 14.5Z" stroke="#1171BE"/>
<path d="M4.5 3.5C4.5 2.94772 4.94772 2.5 5.5 2.5C6.05228 2.5 6.5 2.94772 6.5 3.5C6.5 4.05228 6.05228 4.5 5.5 4.5C4.94772 4.5 4.5 4.05228 4.5 3.5Z" fill="white"/>
<path d="M17.5 5.5C17.5 4.94772 17.9477 4.5 18.5 4.5C19.0523 4.5 19.5 4.94772 19.5 5.5C19.5 6.05228 19.0523 6.5 18.5 6.5C17.9477 6.5 17.5 6.05228 17.5 5.5Z" fill="white"/>
<path d="M20.5 3.5C20.5 2.94772 20.9477 2.5 21.5 2.5C22.0523 2.5 22.5 2.94772 22.5 3.5C22.5 4.05228 22.0523 4.5 21.5 4.5C20.9477 4.5 20.5 4.05228 20.5 3.5Z" fill="white"/>
<path d="M19.5 20.5C19.5 19.9477 19.9477 19.5 20.5 19.5C21.0523 19.5 21.5 19.9477 21.5 20.5C21.5 21.0523 21.0523 21.5 20.5 21.5C19.9477 21.5 19.5 21.0523 19.5 20.5Z" fill="white"/>
<path d="M14.5 11.5C14.5 10.9477 14.9477 10.5 15.5 10.5C16.0523 10.5 16.5 10.9477 16.5 11.5C16.5 12.0523 16.0523 12.5 15.5 12.5C14.9477 12.5 14.5 12.0523 14.5 11.5Z" fill="white"/>
<path d="M7.5 8.5C7.5 7.94772 7.94772 7.5 8.5 7.5C9.05228 7.5 9.5 7.94772 9.5 8.5C9.5 9.05228 9.05228 9.5 8.5 9.5C7.94772 9.5 7.5 9.05228 7.5 8.5Z" fill="white"/>
<path d="M9.5 14.5C9.5 13.9477 9.94772 13.5 10.5 13.5C11.0523 13.5 11.5 13.9477 11.5 14.5C11.5 15.0523 11.0523 15.5 10.5 15.5C9.94772 15.5 9.5 15.0523 9.5 14.5Z" fill="white"/>
<path d="M12.5 7.5C12.5 6.94772 12.9477 6.5 13.5 6.5C14.0523 6.5 14.5 6.94772 14.5 7.5C14.5 8.05228 14.0523 8.5 13.5 8.5C12.9477 8.5 12.5 8.05228 12.5 7.5Z" fill="white"/>
<path d="M4.5 3.5C4.5 2.94772 4.94772 2.5 5.5 2.5C6.05228 2.5 6.5 2.94772 6.5 3.5C6.5 4.05228 6.05228 4.5 5.5 4.5C4.94772 4.5 4.5 4.05228 4.5 3.5Z" stroke="#DD5400"/>
<path d="M17.5 5.5C17.5 4.94772 17.9477 4.5 18.5 4.5C19.0523 4.5 19.5 4.94772 19.5 5.5C19.5 6.05228 19.0523 6.5 18.5 6.5C17.9477 6.5 17.5 6.05228 17.5 5.5Z" stroke="#DD5400"/>
<path d="M20.5 3.5C20.5 2.94772 20.9477 2.5 21.5 2.5C22.0523 2.5 22.5 2.94772 22.5 3.5C22.5 4.05228 22.0523 4.5 21.5 4.5C20.9477 4.5 20.5 4.05228 20.5 3.5Z" stroke="#DD5400"/>
<path d="M19.5 20.5C19.5 19.9477 19.9477 19.5 20.5 19.5C21.0523 19.5 21.5 19.9477 21.5 20.5C21.5 21.0523 21.0523 21.5 20.5 21.5C19.9477 21.5 19.5 21.0523 19.5 20.5Z" stroke="#DD5400"/>
<path d="M14.5 11.5C14.5 10.9477 14.9477 10.5 15.5 10.5C16.0523 10.5 16.5 10.9477 16.5 11.5C16.5 12.0523 16.0523 12.5 15.5 12.5C14.9477 12.5 14.5 12.0523 14.5 11.5Z" stroke="#DD5400"/>
<path d="M7.5 8.5C7.5 7.94772 7.94772 7.5 8.5 7.5C9.05228 7.5 9.5 7.94772 9.5 8.5C9.5 9.05228 9.05228 9.5 8.5 9.5C7.94772 9.5 7.5 9.05228 7.5 8.5Z" stroke="#DD5400"/>
<path d="M9.5 14.5C9.5 13.9477 9.94772 13.5 10.5 13.5C11.0523 13.5 11.5 13.9477 11.5 14.5C11.5 15.0523 11.0523 15.5 10.5 15.5C9.94772 15.5 9.5 15.0523 9.5 14.5Z" stroke="#DD5400"/>
<path d="M12.5 7.5C12.5 6.94772 12.9477 6.5 13.5 6.5C14.0523 6.5 14.5 6.94772 14.5 7.5C14.5 8.05228 14.0523 8.5 13.5 8.5C12.9477 8.5 12.5 8.05228 12.5 7.5Z" stroke="#DD5400"/>
<circle cx="11.5" cy="11.5" r="5.5" stroke="var(--mw-icon-glyph-content-gray, #616162)"/>
<rect x="0.5" y="0.5" width="22" height="22" rx="2" stroke="#212121"/>
</svg>
