<svg width="24" height="24" viewBox="0 0 24 24" fill="none" xmlns="http://www.w3.org/2000/svg">
<rect x="0.5" y="0.5" width="22" height="22" rx="2" fill="var(--mw-icon-background-default-white, #FFFFFF)"/>
<path d="M3.5 6.5C3.5 5.94772 3.94772 5.5 4.5 5.5C5.05228 5.5 5.5 5.94772 5.5 6.5C5.5 7.05228 5.05228 7.5 4.5 7.5C3.94772 7.5 3.5 7.05228 3.5 6.5Z" fill="white"/>
<path d="M16.5 5.5C16.5 4.94772 16.9477 4.5 17.5 4.5C18.0523 4.5 18.5 4.94772 18.5 5.5C18.5 6.05228 18.0523 6.5 17.5 6.5C16.9477 6.5 16.5 6.05228 16.5 5.5Z" fill="white"/>
<path d="M19.5 9.5C19.5 8.94772 19.9477 8.5 20.5 8.5C21.0523 8.5 21.5 8.94772 21.5 9.5C21.5 10.0523 21.0523 10.5 20.5 10.5C19.9477 10.5 19.5 10.0523 19.5 9.5Z" fill="white"/>
<path d="M9.5 3.5C9.5 2.94772 9.94772 2.5 10.5 2.5C11.0523 2.5 11.5 2.94772 11.5 3.5C11.5 4.05228 11.0523 4.5 10.5 4.5C9.94772 4.5 9.5 4.05228 9.5 3.5Z" fill="white"/>
<path d="M6.5 9.5C6.5 8.94772 6.94772 8.5 7.5 8.5C8.05228 8.5 8.5 8.94772 8.5 9.5C8.5 10.0523 8.05228 10.5 7.5 10.5C6.94772 10.5 6.5 10.0523 6.5 9.5Z" fill="white"/>
<path d="M3.5 6.5C3.5 5.94772 3.94772 5.5 4.5 5.5C5.05228 5.5 5.5 5.94772 5.5 6.5C5.5 7.05228 5.05228 7.5 4.5 7.5C3.94772 7.5 3.5 7.05228 3.5 6.5Z" stroke="#DD5400"/>
<path d="M16.5 5.5C16.5 4.94772 16.9477 4.5 17.5 4.5C18.0523 4.5 18.5 4.94772 18.5 5.5C18.5 6.05228 18.0523 6.5 17.5 6.5C16.9477 6.5 16.5 6.05228 16.5 5.5Z" stroke="#DD5400"/>
<path d="M19.5 9.5C19.5 8.94772 19.9477 8.5 20.5 8.5C21.0523 8.5 21.5 8.94772 21.5 9.5C21.5 10.0523 21.0523 10.5 20.5 10.5C19.9477 10.5 19.5 10.0523 19.5 9.5Z" stroke="#DD5400"/>
<path d="M9.5 3.5C9.5 2.94772 9.94772 2.5 10.5 2.5C11.0523 2.5 11.5 2.94772 11.5 3.5C11.5 4.05228 11.0523 4.5 10.5 4.5C9.94772 4.5 9.5 4.05228 9.5 3.5Z" stroke="#DD5400"/>
<path d="M11.5 9.5C11.5 8.39543 12.3954 7.5 13.5 7.5C14.6046 7.5 15.5 8.39543 15.5 9.5C15.5 10.6046 14.6046 11.5 13.5 11.5C12.3954 11.5 11.5 10.6046 11.5 9.5Z" stroke="#DD5400"/>
<path d="M6.5 9.5C6.5 8.94772 6.94772 8.5 7.5 8.5C8.05228 8.5 8.5 8.94772 8.5 9.5C8.5 10.0523 8.05228 10.5 7.5 10.5C6.94772 10.5 6.5 10.0523 6.5 9.5Z" stroke="#DD5400"/>
<path d="M3.5 19.5C3.5 18.9477 3.94772 18.5 4.5 18.5C5.05228 18.5 5.5 18.9477 5.5 19.5C5.5 20.0523 5.05228 20.5 4.5 20.5C3.94772 20.5 3.5 20.0523 3.5 19.5Z" fill="white"/>
<path d="M16.5 19.5C16.5 18.9477 16.9477 18.5 17.5 18.5C18.0523 18.5 18.5 18.9477 18.5 19.5C18.5 20.0523 18.0523 20.5 17.5 20.5C16.9477 20.5 16.5 20.0523 16.5 19.5Z" fill="white"/>
<path d="M1.5 13.5C1.5 12.9477 1.94772 12.5 2.5 12.5C3.05228 12.5 3.5 12.9477 3.5 13.5C3.5 14.0523 3.05228 14.5 2.5 14.5C1.94772 14.5 1.5 14.0523 1.5 13.5Z" fill="white"/>
<path d="M6.5 14.5C6.5 13.9477 6.94772 13.5 7.5 13.5C8.05228 13.5 8.5 13.9477 8.5 14.5C8.5 15.0523 8.05228 15.5 7.5 15.5C6.94772 15.5 6.5 15.0523 6.5 14.5Z" fill="white"/>
<path d="M8.5 11.5C8.5 10.9477 8.94772 10.5 9.5 10.5C10.0523 10.5 10.5 10.9477 10.5 11.5C10.5 12.0523 10.0523 12.5 9.5 12.5C8.94772 12.5 8.5 12.0523 8.5 11.5Z" fill="white"/>
<path d="M3.5 19.5C3.5 18.9477 3.94772 18.5 4.5 18.5C5.05228 18.5 5.5 18.9477 5.5 19.5C5.5 20.0523 5.05228 20.5 4.5 20.5C3.94772 20.5 3.5 20.0523 3.5 19.5Z" stroke="#1171BE"/>
<path d="M16.5 19.5C16.5 18.9477 16.9477 18.5 17.5 18.5C18.0523 18.5 18.5 18.9477 18.5 19.5C18.5 20.0523 18.0523 20.5 17.5 20.5C16.9477 20.5 16.5 20.0523 16.5 19.5Z" stroke="#1171BE"/>
<path d="M1.5 13.5C1.5 12.9477 1.94772 12.5 2.5 12.5C3.05228 12.5 3.5 12.9477 3.5 13.5C3.5 14.0523 3.05228 14.5 2.5 14.5C1.94772 14.5 1.5 14.0523 1.5 13.5Z" stroke="#1171BE"/>
<path d="M6.5 14.5C6.5 13.9477 6.94772 13.5 7.5 13.5C8.05228 13.5 8.5 13.9477 8.5 14.5C8.5 15.0523 8.05228 15.5 7.5 15.5C6.94772 15.5 6.5 15.0523 6.5 14.5Z" stroke="#1171BE"/>
<path d="M8.5 11.5C8.5 10.9477 8.94772 10.5 9.5 10.5C10.0523 10.5 10.5 10.9477 10.5 11.5C10.5 12.0523 10.0523 12.5 9.5 12.5C8.94772 12.5 8.5 12.0523 8.5 11.5Z" stroke="#1171BE"/>
<path d="M10.5 14.5C10.5 13.3954 11.3954 12.5 12.5 12.5C13.6046 12.5 14.5 13.3954 14.5 14.5C14.5 15.6046 13.6046 16.5 12.5 16.5C11.3954 16.5 10.5 15.6046 10.5 14.5Z" stroke="#1171BE"/>
<circle cx="11" cy="12" r="5.5" stroke="var(--mw-icon-glyph-content-gray, #616162)"/>
<rect x="0.5" y="0.5" width="22" height="22" rx="2" stroke="#212121"/>
</svg>
