<svg width="24" height="24" viewBox="0 0 24 24" fill="none" xmlns="http://www.w3.org/2000/svg">
<path d="M1 1H22V22H1V1Z" fill="var(--mw-icon-background-default-white, #FFFFFF)"/>
<path d="M22.5 16.5C20.28 13.17 19.28 6.5 17.5 6.5C15.04 6.5 13.37 18.5 8.5 18.5H0.5" stroke="#EDB120"/>
<path d="M22.5 18.5H19.5C14.4405 18.5 14.0601 3.5 11.5 3.5C8.93988 3.5 7.55952 18.5 2.5 18.5H0.5" stroke="#D95319"/>
<path d="M0.5 16.5C2.42021 14.49 2.72128 11.5 4.5 11.5C6.92553 11.5 7.68936 18.5 12.5 18.5H22.5" stroke="#0072BD"/>
<path d="M0.5 2.5C0.5 1.39543 1.39543 0.5 2.5 0.5H20.5C21.6046 0.5 22.5 1.39543 22.5 2.5V20.5C22.5 21.6046 21.6046 22.5 20.5 22.5H2.5C1.39543 22.5 0.5 21.6046 0.5 20.5V2.5Z" stroke="var(--mw-icon-border-default-gray, #616161)" stroke-linejoin="round"/>
</svg>
