<svg width="24" height="24" viewBox="0 0 24 24" fill="none" xmlns="http://www.w3.org/2000/svg">
<rect x="0.5" y="0.5" width="18" height="18" rx="1" fill="var(--mw-icon-background-default-white, #FFFFFF)"/>
<path d="M0.5 9.5L1.08274 10.5073C3.59749 14.8544 7.22279 14.4205 9.5 9.5C11.7772 4.57947 15.4025 4.14562 17.9173 8.49267L18.5 9.5" stroke="#0072BD"/>
<rect x="0.5" y="0.5" width="18" height="18" rx="2" stroke="var(--mw-icon-border-default-gray, #616161)"/>
<path d="M14.5 23V13.618C14.5 13.5404 14.5181 13.4639 14.5528 13.3944L16.3618 9.77639C16.4465 9.607 16.6196 9.5 16.809 9.5H21.191C21.3804 9.5 21.5535 9.607 21.6382 9.77639L23.4472 13.3944C23.4819 13.4639 23.5 13.5404 23.5 13.618V23C23.5 23.2761 23.2761 23.5 23 23.5H18.9545H15C14.7239 23.5 14.5 23.2761 14.5 23Z" fill="var(--mw-icon-background-default-selection, #B4DEFF)" stroke="var(--mw-icon-glyph-content-blue, #1656A8)" stroke-linejoin="round"/>
<path d="M16.5 21.5L19 15.5L21.5 21.5M17.5 19.5H20.5" stroke="var(--mw-icon-glyph-content-blue, #1656A8)" stroke-linecap="round" stroke-linejoin="round"/>
<path d="M20 12C20 12.5523 19.5523 13 19 13C18.4477 13 18 12.5523 18 12C18 11.4477 18.4477 11 19 11C19.5523 11 20 11.4477 20 12Z" fill="var(--mw-icon-glyph-content-blue, #1656A8)"/>
</svg>
