<svg width="24" height="24" viewBox="0 0 24 24" fill="none" xmlns="http://www.w3.org/2000/svg">
<path d="M16.5 0.5H2.5C1.39543 0.5 0.5 1.39543 0.5 2.5V16.5C0.5 17.6046 1.39543 18.5 2.5 18.5H16.5C17.6046 18.5 18.5 17.6046 18.5 16.5V2.5C18.5 1.39543 17.6046 0.5 16.5 0.5Z" fill="var(--mw-icon-background-default-white, #FFFFFF)" stroke="var(--mw-icon-border-default-gray, #616161)"/>
<path d="M6.5 3.5H12.5C12.7018 3.50002 11.2743 4.47761 9.5 5.84088C12.1214 7.85499 15.5 10.7109 15.5 12.5C15.5 15.5 13.25 15.5 12.6111 15.5H6.83333C6.41667 15.5 3.5 15.5 3.5 12.5C3.5 10.7109 6.87856 7.85499 9.5 5.84088C7.72566 4.47761 6.29818 3.50002 6.5 3.5Z" fill="var(--mw-icon-background-default-dark-gray, #A6A6A6)" stroke="var(--mw-icon-glyph-content-dark-gray, #333333)"/>
<path d="M12.5 23V11.6385C12.5 11.5479 12.5246 11.459 12.5713 11.3812L15.3543 6.74275C15.4447 6.59215 15.6075 6.5 15.7831 6.5H20.2169C20.3925 6.5 20.5553 6.59215 20.6457 6.74275L23.4287 11.3812C23.4754 11.459 23.5 11.5479 23.5 11.6385V23C23.5 23.2762 23.2761 23.5 23 23.5H17.9444L13 23.5C12.7239 23.5 12.5 23.2761 12.5 23Z" fill="var(--mw-icon-background-default-selection, #B4DEFF)" stroke="var(--mw-icon-border-default-blue, #1656A7)" stroke-linejoin="round"/>
<path d="M19 9C19 9.55228 18.5523 10 18 10C17.4477 10 17 9.55228 17 9C17 8.44772 17.4477 8 18 8C18.5523 8 19 8.44772 19 9Z" fill="var(--mw-icon-glyph-content-blue, #1656A8)"/>
</svg>
