<svg width="24" height="24" viewBox="0 0 24 24" fill="none" xmlns="http://www.w3.org/2000/svg">
<path d="M0.5 2.5C0.5 1.39543 1.39543 0.5 2.5 0.5H20.5C21.6046 0.5 22.5 1.39543 22.5 2.5V20.5C22.5 21.6046 21.6046 22.5 20.5 22.5H2.5C1.39543 22.5 0.5 21.6046 0.5 20.5V2.5Z" fill="var(--mw-icon-background-default-white, #FFFFFF)"/>
<path d="M5.5 22.5C5.5 22.5 7.79412 16.5 11.5 16.5C15.2059 16.5 17.5 22.5 17.5 22.5" stroke="#0072BD" stroke-linecap="round" stroke-linejoin="round"/>
<path d="M11.8299 14.2857C11.6705 14.521 11.2721 14.521 11.1128 14.2857L7.5274 8.9916C7.36805 8.75631 7.56723 8.46219 7.88593 8.46219L15.0567 8.46219C15.3754 8.46219 15.5746 8.75631 15.4152 8.9916L11.8299 14.2857Z" fill="var(--mw-icon-background-medium-yellow, #FFEF91)" stroke="var(--mw-icon-glyph-content-yellow, #674C07)" stroke-linejoin="round"/>
<path d="M10.4842 5.57711H9.51307V4.93557H10.4842C10.6343 4.93557 10.7565 4.90998 10.8507 4.85881C10.9449 4.8058 11.0139 4.73269 11.0575 4.63948C11.1011 4.54626 11.1229 4.44117 11.1229 4.32419C11.1229 4.20539 11.1011 4.09481 11.0575 3.99246C11.0139 3.89011 10.9449 3.80786 10.8507 3.74572C10.7565 3.68357 10.6343 3.6525 10.4842 3.6525H9.78531V7H9V3.00822H10.4842C10.7826 3.00822 11.0383 3.06488 11.2512 3.1782C11.4659 3.2897 11.6299 3.44414 11.7433 3.64154C11.8568 3.83893 11.9135 4.06466 11.9135 4.31871C11.9135 4.57642 11.8568 4.79941 11.7433 4.98766C11.6299 5.17592 11.4659 5.32122 11.2512 5.42358C11.0383 5.52593 10.7826 5.57711 10.4842 5.57711Z" fill="var(--mw-icon-glyph-content-dark-gray, #333333)"/>
<path d="M14 3V7H13.2461V3.91021L12.3404 4.21179V3.58944L13.9189 3H14Z" fill="var(--mw-icon-glyph-content-dark-gray, #333333)"/>
<path d="M0.5 2.5C0.5 1.39543 1.39543 0.5 2.5 0.5H20.5C21.6046 0.5 22.5 1.39543 22.5 2.5V20.5C22.5 21.6046 21.6046 22.5 20.5 22.5H2.5C1.39543 22.5 0.5 21.6046 0.5 20.5V2.5Z" stroke="var(--mw-icon-border-default-gray, #616161)" stroke-linejoin="round"/>
</svg>
