<svg width="24" height="24" viewBox="0 0 24 24" fill="none" xmlns="http://www.w3.org/2000/svg">
<path d="M0.5 18C0.5 17.7239 0.723858 17.5 1 17.5H23C23.2761 17.5 23.5 17.7239 23.5 18V18.5C23.5 19.6046 22.6046 20.5 21.5 20.5H2.5C1.39543 20.5 0.5 19.6046 0.5 18.5V18Z" fill="var(--mw-icon-background-default-medium-gray, #D9D9D9)" stroke="var(--mw-icon-border-default-gray, #616161)"/>
<rect x="9" y="18" width="5" height="1" fill="var(--mw-icon-background-default-dark-gray, #A6A6A6)"/>
<path d="M2.5 4.5C2.5 3.94772 2.94772 3.5 3.5 3.5H20.5C21.0523 3.5 21.5 3.94772 21.5 4.5V17.5H2.5V4.5Z" fill="var(--mw-icon-background-default-white, #FFFFFF)" stroke="var(--mw-icon-border-default-gray, #616161)"/>
<path d="M7.5 16.5V4.5L17.5 10.5L7.5 16.5Z" fill="var(--mw-icon-background-default-action, #CBFFBE)" stroke="var(--mw-icon-glyph-content-green, #008014)" stroke-linejoin="round"/>
</svg>
