<svg width="24" height="24" viewBox="0 0 24 24" fill="none" xmlns="http://www.w3.org/2000/svg">
<rect x="13" y="13" width="9" height="9" rx="0.5" fill="var(--mw-icon-background-default-white, #FFFFFF)"/>
<path d="M13.5 19.5H17.5V15.5H21.5" stroke="var(--mw-icon-glyph-content-light-blue, #278CDD)" stroke-linecap="square" stroke-linejoin="round"/>
<rect x="12.5" y="12.5" width="10" height="10" rx="1" stroke="var(--mw-icon-border-default-gray, #616161)" stroke-linejoin="round"/>
<rect x="1" y="13" width="9" height="9" rx="0.5" fill="white"/>
<circle cx="5.5" cy="19.5" r="1.5" fill="var(--mw-icon-glyph-content-light-blue, #278CDD)"/>
<path d="M1.96447 15.9645C2.90215 15.0268 4.17392 14.5 5.5 14.5C6.82608 14.5 8.09785 15.0268 9.03553 15.9645M3.37868 17.3787C3.94129 16.8161 4.70435 16.5 5.5 16.5C6.29565 16.5 7.05871 16.8161 7.62132 17.3787" stroke="var(--mw-icon-glyph-content-light-blue, #278CDD)" stroke-linecap="round" stroke-linejoin="round"/>
<rect x="0.5" y="12.5" width="10" height="10" rx="1" stroke="var(--mw-icon-border-default-gray, #616161)" stroke-linejoin="round"/>
<rect x="13" y="1" width="9" height="9" rx="0.5" fill="white"/>
<path d="M12.5 5.5C14 1.5 16 1.5 17.5 5.5C19 9.5 21 9.5 22.5 5.5" stroke="var(--mw-icon-glyph-content-light-blue, #278CDD)" stroke-linecap="round"/>
<rect x="12.5" y="0.5" width="10" height="10" rx="1" stroke="var(--mw-icon-border-default-gray, #616161)" stroke-linejoin="round"/>
<rect x="1" y="1" width="9" height="9" rx="0.5" fill="white"/>
<path d="M1.5 8H1V9H1.5V8ZM5.5 8.5V9C5.63261 9 5.75979 8.94732 5.85355 8.85355L5.5 8.5ZM6.85355 7.85355C7.04882 7.65829 7.04882 7.34171 6.85355 7.14645C6.65829 6.95118 6.34171 6.95118 6.14645 7.14645L6.85355 7.85355ZM1.5 9H5.5V8H1.5V9ZM5.85355 8.85355L6.85355 7.85355L6.14645 7.14645L5.14645 8.14645L5.85355 8.85355Z" fill="var(--mw-icon-glyph-content-light-blue, #278CDD)"/>
<circle cx="7.5" cy="6.5" r="1" transform="rotate(-180 7.5 6.5)" stroke="var(--mw-icon-glyph-content-light-blue, #278CDD)"/>
<path d="M9.5 3H10V2H9.5V3ZM5.5 2.5V2C5.36739 2 5.24021 2.05268 5.14645 2.14645L5.5 2.5ZM4.14645 3.14645C3.95118 3.34171 3.95118 3.65829 4.14645 3.85355C4.34171 4.04882 4.65829 4.04882 4.85355 3.85355L4.14645 3.14645ZM9.5 2H5.5V3H9.5V2ZM5.14645 2.14645L4.14645 3.14645L4.85355 3.85355L5.85355 2.85355L5.14645 2.14645Z" fill="var(--mw-icon-glyph-content-light-blue, #278CDD)"/>
<circle cx="3.5" cy="4.5" r="1" stroke="var(--mw-icon-glyph-content-light-blue, #278CDD)"/>
<rect x="0.5" y="0.5" width="10" height="10" rx="1" stroke="var(--mw-icon-border-default-gray, #616161)" stroke-linejoin="round"/>
</svg>
