<svg width="24" height="24" viewBox="0 0 24 24" fill="none" xmlns="http://www.w3.org/2000/svg">
<path d="M0.5 18.5V4.5C0.5 2.29086 2.29086 0.5 4.5 0.5H18.5C20.7091 0.5 22.5 2.29086 22.5 4.5V18.5C22.5 20.7091 20.7091 22.5 18.5 22.5H4.5C2.29086 22.5 0.5 20.7091 0.5 18.5Z" fill="var(--mw-icon-background-default-white, white)"/>
<path d="M14.5 12.5V16L7 13.5L12 11L14.5 12.5Z" fill="#CB845D"/>
<path d="M2.5 9.5V16.5L11.5 11.5V4.5L2.5 9.5Z" fill="#A0522C" stroke="var(--mw-icon-border-default-brown, #5F1B08)" stroke-linecap="round" stroke-linejoin="round"/>
<path d="M20.5 9.5V16.5L11.5 11.5V4.5L20.5 9.5Z" fill="#A0522C" stroke="var(--mw-icon-border-default-brown, #5F1B08)" stroke-linecap="round" stroke-linejoin="round"/>
<path d="M2.5 16.5V9.5L11.5 14.5V21.5L2.5 16.5Z" fill="var(--mw-icon-background-brown, #DC996C)" stroke="var(--mw-icon-border-default-brown, #5F1B08)" stroke-linecap="round" stroke-linejoin="round"/>
<path d="M20.5 16.5V9.5L11.5 14.5V21.5L20.5 16.5Z" fill="var(--mw-icon-background-brown, #DC996C)" stroke="var(--mw-icon-border-default-brown, #5F1B08)" stroke-linecap="round" stroke-linejoin="round"/>
<path d="M6 4.5L9.5 4.5L9.5 0.500001L13.5 0.5L13.5 4.5L17 4.5L11.5 11.5L6 4.5Z" fill="var(--mw-icon-background-default-selection, #B4DEFF)" stroke="var(--mw-icon-border-default-blue, #1656A7)"/>
<path d="M0.5 18.5V4.5C0.5 2.29086 2.29086 0.5 4.5 0.5H18.5C20.7091 0.5 22.5 2.29086 22.5 4.5V18.5C22.5 20.7091 20.7091 22.5 18.5 22.5H4.5C2.29086 22.5 0.5 20.7091 0.5 18.5Z" stroke="var(--mw-icon-border-default-gray, #616161)" stroke-linecap="round"/>

</svg>
