<svg width="24" height="24" viewBox="0 0 24 24" fill="none" xmlns="http://www.w3.org/2000/svg">
<path d="M0.5 2.5C0.5 1.39543 1.39543 0.5 2.5 0.5H20.5C21.6046 0.5 22.5 1.39543 22.5 2.5V20.5C22.5 21.6046 21.6046 22.5 20.5 22.5H2.5C1.39543 22.5 0.5 21.6046 0.5 20.5V2.5Z" fill="var(--mw-icon-background-default-white, #FFFFFF)" stroke="var(--mw-icon-border-default-gray, #616161)"/>
<path d="M9.5 10.5C9.5 9.94771 9.94772 9.5 10.5 9.5H19.5C20.0523 9.5 20.5 9.94772 20.5 10.5V19.5C20.5 20.0523 20.0523 20.5 19.5 20.5H10.5C9.94771 20.5 9.5 20.0523 9.5 19.5V10.5Z" fill="var(--mw-icon-background-default-medium-gray, #D9D9D9)" stroke="var(--mw-icon-glyph-disabled-gray, #888889)" stroke-linejoin="round"/>
<circle cx="18.5" cy="11.5" r="0.5" fill="var(--mw-icon-glyph-disabled-gray, #888889)"/>
<path d="M18.5 15C18.5 16.933 16.933 18.5 15 18.5C13.067 18.5 11.5 16.933 11.5 15C11.5 13.067 13.067 11.5 15 11.5C16.933 11.5 18.5 13.067 18.5 15Z" fill="var(--mw-icon-background-default-dark-gray, #A6A6A6)" stroke="var(--mw-icon-glyph-disabled-gray, #888889)" stroke-linejoin="round"/>
<path d="M17 15C17 16.1046 16.1046 17 15 17C13.8954 17 13 16.1046 13 15C13 13.8954 13.8954 13 15 13C16.1046 13 17 13.8954 17 15Z" fill="var(--mw-icon-glyph-content-gray, #616162)"/>
<path d="M19 7H16L17.5 9L19 7Z" fill="var(--mw-icon-border-default-gray, #616161)"/>
<path d="M15.5 4.5H17.5V7.5" stroke="var(--mw-icon-glyph-content-gray, #616162)" stroke-linecap="round" stroke-linejoin="round"/>
<path d="M2.5 3.5C2.5 2.94772 2.94772 2.5 3.5 2.5H12.5C13.0523 2.5 13.5 2.94772 13.5 3.5V14.5H2.5V3.5Z" fill="var(--mw-icon-background-default-light-gray, #F5F5F5)" stroke="var(--mw-icon-glyph-content-gray, #616162)" stroke-linejoin="round"/>
<path d="M2.5 4.5H13.5V11.5H2.5V4.5Z" fill="var(--mw-icon-glyph-disabled-gray, #888889)" stroke="var(--mw-icon-border-default-gray, #616161)"/>
<path d="M13 9.5C12 9.5 11.5 8.82843 11.5 8C11.5 7.17157 12 6.5 13 6.5M3 6.5C4 6.5 4.5 7.17157 4.5 8C4.5 8.82843 4 9.5 3 9.5M9.5 8C9.5 8.82843 8.82843 9.5 8 9.5C7.17157 9.5 6.5 8.82843 6.5 8C6.5 7.17157 7.17157 6.5 8 6.5C8.82843 6.5 9.5 7.17157 9.5 8Z" stroke="var(--mw-icon-border-default-gray, #616161)"/>
<rect x="4" y="5" width="1" height="6" fill="var(--mw-icon-background-default-light-gray, #F5F5F5)"/>
</svg>
