<svg width="24" height="24" viewBox="0 0 24 24" fill="none" xmlns="http://www.w3.org/2000/svg">
<rect x="0.5" y="0.500122" width="22" height="22" rx="2" fill="var(--mw-icon-background-default-white, #FFFFFF)" stroke="var(--mw-icon-border-default-blue, #1656A7)"/>
<path d="M15.619 3.49801C14.344 2.8417 12.9305 2.49957 11.4965 2.50012C10.0625 2.50068 8.64932 2.84391 7.37479 3.50121M7.5966 19.5096C8.84021 20.1082 10.2048 20.4128 11.585 20.3997C12.9651 20.3867 14.3237 20.0564 15.5558 19.4345M19.6095 15.9034C20.2081 14.6598 20.5126 13.2952 20.4996 11.9151C20.4866 10.5349 20.1563 9.17629 19.5343 7.94419M3.39053 8.09662C2.79193 9.34024 2.48737 10.7049 2.5004 12.085C2.51343 13.4651 2.84371 14.8238 3.46568 16.0559M13.7856 5.99751C13.0724 5.67167 12.2978 5.50208 11.5137 5.50014C10.7296 5.49819 9.9541 5.66393 9.23929 5.98624M9.21444 17.0025C9.92765 17.3284 10.7023 17.498 11.4864 17.4999C12.2705 17.5019 13.046 17.3361 13.7608 17.0138M17.0027 13.7856C17.3285 13.0724 17.4981 12.2978 17.5 11.5137C17.502 10.7296 17.3363 9.9541 17.014 9.23929M5.99739 9.21444C5.67154 9.92764 5.50196 10.7023 5.50001 11.4864C5.49807 12.2705 5.6638 13.046 5.98611 13.7608M8.80965 10.1727C8.60451 10.5886 8.49857 11.0464 8.50014 11.5101C8.50171 11.9738 8.61076 12.4308 8.81871 12.8453M10.173 14.1904C10.5888 14.3955 11.0466 14.5015 11.5103 14.4999C11.974 14.4983 12.431 14.3893 12.8455 14.1813M12.8273 8.80943C12.4114 8.60429 11.9537 8.49835 11.4899 8.49992C11.0262 8.50149 10.5692 8.61054 10.1548 8.81849M14.1906 12.8271C14.3957 12.4112 14.5017 11.9534 14.5001 11.4897C14.4985 11.026 14.3895 10.569 14.1815 10.1545" stroke="var(--mw-icon-glyph-content-blue, #1656A8)" stroke-linecap="round"/>
</svg>
