<svg width="24" height="24" viewBox="0 0 24 24" fill="none" xmlns="http://www.w3.org/2000/svg">
<path d="M14.5 12.5V10.5L17.5 8.5V14.5C17.5 15.0523 17.0523 15.5 16.5 15.5H5.5V17.5L1 14L5.5 10.5V12.5L14.5 12.5Z" fill="var(--mw-icon-background-default-selection, #B4DEFF)"/>
<path d="M14.5 12.5L14.5 13L15 13V12.5H14.5ZM5.5 17.5L5.19303 17.8947L6 18.5223V17.5H5.5ZM5.5 10.5H6V9.47768L5.19303 10.1053L5.5 10.5ZM5.5 15.5V15H5V15.5H5.5ZM5.5 12.5H5V13L5.5 13L5.5 12.5ZM1 14L0.69303 13.6053L0.185589 14L0.69303 14.3947L1 14ZM17.5 8.5H18C18 8.3156 17.8985 8.14617 17.7359 8.05916C17.5734 7.97215 17.3761 7.98169 17.2226 8.08397L17.5 8.5ZM14.5 10.5L14.2226 10.084C14.0836 10.1767 14 10.3328 14 10.5H14.5ZM16.5 15H5.5V16H16.5V15ZM5 15.5V17.5H6V15.5H5ZM5 10.5V12.5H6V10.5H5ZM5.5 13L14.5 13L14.5 12L5.5 12L5.5 13ZM5.80697 17.1053L1.30697 13.6053L0.69303 14.3947L5.19303 17.8947L5.80697 17.1053ZM1.30697 14.3947L5.80697 10.8947L5.19303 10.1053L0.69303 13.6053L1.30697 14.3947ZM17 8.5V14.5H18V8.5H17ZM14.7774 10.916L17.7774 8.91603L17.2226 8.08397L14.2226 10.084L14.7774 10.916ZM15 12.5V10.5H14V12.5H15ZM16.5 16C17.3284 16 18 15.3284 18 14.5H17C17 14.7761 16.7761 15 16.5 15V16Z" fill="var(--mw-icon-border-default-blue, #1656A7)"/>
<path d="M4.49996 6.5V8.5L1.49996 10.5L1.49989 4.50001C1.49988 3.94772 1.9476 3.5 2.49989 3.5L13.5 3.5V1.5L18 5L13.5 9V6.5H4.49996Z" fill="var(--mw-icon-background-default-selection, #B4DEFF)"/>
<path d="M4.49996 6.5V6H3.99996V6.5H4.49996ZM13.5 1.5L13.8069 1.10532L13 0.47768V1.5H13.5ZM13.5 9H13V10.1134L13.8321 9.3737L13.5 9ZM13.5 3.5L13.5 4L14 4V3.5H13.5ZM13.5 6.5H14V6H13.5V6.5ZM18 5L18.3321 5.3737L18.7814 4.97436L18.3069 4.60532L18 5ZM1.49996 10.5L0.999961 10.5C0.999963 10.6844 1.10146 10.8538 1.26403 10.9408C1.42661 11.0278 1.62388 11.0183 1.77731 10.916L1.49996 10.5ZM4.49996 8.5L4.77731 8.91603C4.91641 8.82329 4.99996 8.66718 4.99996 8.5H4.49996ZM2.49989 3.5L2.49989 3L2.49989 3.5ZM2.49989 4L13.5 4L13.5 3L2.49989 3L2.49989 4ZM14 3.5V1.5H13V3.5H14ZM14 9V6.5H13V9H14ZM13.5 6H4.49996V7H13.5V6ZM13.193 1.89468L17.693 5.39468L18.3069 4.60532L13.8069 1.10532L13.193 1.89468ZM17.6678 4.6263L13.1678 8.6263L13.8321 9.3737L18.3321 5.3737L17.6678 4.6263ZM1.99996 10.5L1.99989 4.50001L0.99989 4.50002L0.999961 10.5L1.99996 10.5ZM4.22261 8.08397L1.22261 10.084L1.77731 10.916L4.77731 8.91603L4.22261 8.08397ZM3.99996 6.5V8.5H4.99996V6.5H3.99996ZM2.49989 3C1.67146 3 0.99988 3.67158 0.99989 4.50002L1.99989 4.50001C1.99989 4.22386 2.22375 4 2.49989 4L2.49989 3Z" fill="var(--mw-icon-border-default-blue, #1656A7)"/>
<rect x="10.5" y="10.5" width="13" height="13" rx="2" fill="var(--mw-icon-background-default-white, #FFFFFF)" stroke="var(--mw-icon-border-default-gray, #616161)"/>
<path d="M18 11C16.6667 13 13 18 13 18H17L16 23C17.3333 21 21 16 21 16H17L18 11Z" fill="var(--mw-icon-glyph-content-gray, #616162)"/>
</svg>
