<svg width="24" height="24" viewBox="0 0 24 24" fill="none" xmlns="http://www.w3.org/2000/svg">
<path d="M8.5 0.5H2.5C1.39543 0.5 0.5 1.39543 0.5 2.5V21.5C0.5 22.6046 1.39543 23.5 2.5 23.5H8.5V0.5Z" fill="var(--mw-icon-background-default-light-gray, #F5F5F5)" stroke="var(--mw-icon-border-default-gray, #616161)" stroke-linecap="round"/>
<path d="M21.5 0.5H8.5V23.5H21.5C22.6046 23.5 23.5 22.6046 23.5 21.5V2.5C23.5 1.39543 22.6046 0.5 21.5 0.5Z" fill="var(--mw-icon-background-default-white, #FFFFFF)" stroke="var(--mw-icon-border-default-gray, #616161)" stroke-linecap="round"/>
<path d="M11.5 3.5H17.5M11.5 17.5H17.5M14.5 20.5H20.5M11.5 10.5H17.5M14.5 6.5H20.5M14.5 13.5H20.5" stroke="var(--mw-icon-glyph-content-gray, #616162)" stroke-linecap="round"/>
<path d="M3.5 16C3.22386 16 3 16.2239 3 16.5C3 16.7761 3.22386 17 3.5 17V16ZM3.5 20C3.22386 20 3 20.2239 3 20.5C3 20.7761 3.22386 21 3.5 21V20ZM3.5 18C3.22386 18 3 18.2239 3 18.5C3 18.7761 3.22386 19 3.5 19V18ZM3.5 17H4.5V16H3.5V17ZM4.5 20H3.5V21H4.5V20ZM5 17.5V18.5H6V17.5H5ZM5 18.5V19.5H6V18.5H5ZM3.5 19H5.5V18H3.5V19ZM4.5 21C5.32843 21 6 20.3284 6 19.5H5C5 19.7761 4.77614 20 4.5 20V21ZM4.5 17C4.77614 17 5 17.2239 5 17.5H6C6 16.6716 5.32843 16 4.5 16V17Z" fill="var(--mw-icon-glyph-content-gray, #616162)"/>
<path d="M3 10.5C3 10.7761 3.22386 11 3.5 11C3.77614 11 4 10.7761 4 10.5H3ZM3.5 9.5V9C3.22386 9 3 9.22386 3 9.5H3.5ZM5.5 9.5H6C6 9.22386 5.77614 9 5.5 9V9.5ZM5.5 11L5.8 11.4C5.9259 11.3056 6 11.1574 6 11H5.5ZM3.5 13.5H3C3 13.7761 3.22386 14 3.5 14V13.5ZM5.5 14C5.77614 14 6 13.7761 6 13.5C6 13.2239 5.77614 13 5.5 13V14ZM3.5 12.5L3.2 12.1L3 12.25V12.5H3.5ZM4 10.5V9.5H3V10.5H4ZM3.5 10H5.5V9H3.5V10ZM5 9.5V11H6V9.5H5ZM3.5 14H5.5V13H3.5V14ZM5.2 10.6L3.2 12.1L3.8 12.9L5.8 11.4L5.2 10.6ZM3 12.5V13.5H4V12.5H3Z" fill="var(--mw-icon-glyph-content-gray, #616162)"/>
<path d="M3.5 2C3.22386 2 3 2.22386 3 2.5C3 2.77614 3.22386 3 3.5 3V2ZM4.5 2.5H5C5 2.22386 4.77614 2 4.5 2V2.5ZM4 6.5C4 6.77614 4.22386 7 4.5 7C4.77614 7 5 6.77614 5 6.5H4ZM3.5 3H4.5V2H3.5V3ZM4 2.5V6.5H5V2.5H4Z" fill="var(--mw-icon-glyph-content-gray, #616162)"/>
</svg>
