<svg width="24" height="24" viewBox="0 0 24 24" fill="none" xmlns="http://www.w3.org/2000/svg">
<path d="M13 16H0V17H13V16Z" fill="var(--mw-icon-glyph-content-mono, #616061)"/>
<path d="M24 16H18V17H24V16Z" fill="var(--mw-icon-glyph-content-mono, #616061)"/>
<path d="M15 8L16 8L16 1.5C16 1.22386 15.7761 1 15.5 1C15.2239 1 15 1.22386 15 1.5L15 8Z" fill="var(--mw-icon-glyph-content-mono, #616061)"/>
<path d="M12 8L15.5 13L19 8L12 8Z" fill="var(--mw-icon-glyph-content-mono, #616061)"/>
<path d="M8 14.5V10.5C8 10.2239 7.77614 10 7.5 10C7.22386 10 7 10.2239 7 10.5V14.5C7 14.7761 7.22386 15 7.5 15C7.77614 15 8 14.7761 8 14.5Z" fill="var(--mw-icon-glyph-content-mono, #616061)"/>
<path d="M9.5 12H5.5C5.22386 12 5 12.2239 5 12.5C5 12.7761 5.22386 13 5.5 13H9.5C9.77614 13 10 12.7761 10 12.5C10 12.2239 9.77614 12 9.5 12Z" fill="var(--mw-icon-glyph-content-mono, #616061)"/>
<circle cx="15.5" cy="16.5" r="3" stroke="var(--mw-icon-glyph-content-mono, #616061)"/>
</svg>
