<svg width="24" height="24" viewBox="0 0 24 24" fill="none" xmlns="http://www.w3.org/2000/svg">
<path d="M18 8L19 8L19 1.5C19 1.22386 18.7761 1 18.5 1V1C18.2239 1 18 1.22386 18 1.5L18 8Z" fill="var(--mw-icon-glyph-content-mono, #616061)"/>
<path d="M15 8L18.5 13L22 8L15 8Z" fill="var(--mw-icon-glyph-content-mono, #616061)"/>
<path d="M6 9H5V15.5C5 15.7761 5.22386 16 5.5 16V16C5.77614 16 6 15.7761 6 15.5V9Z" fill="var(--mw-icon-glyph-content-mono, #616061)"/>
<path d="M9 9L5.5 4L2 9H9Z" fill="var(--mw-icon-glyph-content-mono, #616061)"/>
<path d="M24 16H21V17H24V16Z" fill="var(--mw-icon-glyph-content-mono, #616061)"/>
<path d="M16 16H0V17H16V16Z" fill="var(--mw-icon-glyph-content-mono, #616061)"/>
<path d="M12 14.5V10.5C12 10.2239 11.7761 10 11.5 10C11.2239 10 11 10.2239 11 10.5V14.5C11 14.7761 11.2239 15 11.5 15C11.7761 15 12 14.7761 12 14.5Z" fill="var(--mw-icon-glyph-content-mono, #616061)"/>
<path d="M13.5 12H9.5C9.22386 12 9 12.2239 9 12.5C9 12.7761 9.22386 13 9.5 13H13.5C13.7761 13 14 12.7761 14 12.5C14 12.2239 13.7761 12 13.5 12Z" fill="var(--mw-icon-glyph-content-mono, #616061)"/>
<circle cx="18.5" cy="16.5" r="3" stroke="var(--mw-icon-glyph-content-mono, #616061)"/>
<path d="M5.5 18C6.32843 18 7 17.3284 7 16.5C7 15.6716 6.32843 15 5.5 15C4.67157 15 4 15.6716 4 16.5C4 17.3284 4.67157 18 5.5 18Z" fill="var(--mw-icon-glyph-content-mono, #616061)"/>
</svg>
