<svg width="24" height="24" viewBox="0 0 24 24" fill="none" xmlns="http://www.w3.org/2000/svg">
<path d="M8 16H0V17H8V16Z" fill="var(--mw-icon-glyph-content-mono, #616061)"/>
<path d="M24 16H17V17H24V16Z" fill="var(--mw-icon-glyph-content-mono, #616061)"/>
<path d="M18.5 14.5L14.5 18.5" stroke="var(--mw-icon-glyph-content-mono, #616061)" stroke-linecap="round"/>
<path d="M18.5 18.5L14.5 14.5" stroke="var(--mw-icon-glyph-content-mono, #616061)" stroke-linecap="round"/>
<path d="M9 11H8V15.5C8 15.7761 8.22386 16 8.5 16V16C8.77614 16 9 15.7761 9 15.5V11Z" fill="var(--mw-icon-glyph-content-mono, #616061)"/>
<path d="M12 11L8.5 6L5 11H12Z" fill="var(--mw-icon-glyph-content-mono, #616061)"/>
<path d="M8.5 18C9.32843 18 10 17.3284 10 16.5C10 15.6716 9.32843 15 8.5 15C7.67157 15 7 15.6716 7 16.5C7 17.3284 7.67157 18 8.5 18Z" fill="var(--mw-icon-glyph-content-mono, #616061)"/>
</svg>
