<svg width="24" height="24" viewBox="0 0 24 24" fill="none" xmlns="http://www.w3.org/2000/svg">
<path d="M15 7L16 7L16 0.5C16 0.223858 15.7761 -1.95703e-08 15.5 -4.37114e-08C15.2239 -6.78526e-08 15 0.223858 15 0.5L15 7Z" fill="var(--mw-icon-glyph-content-light-blue, #278CDD)"/>
<path d="M12 7L15.5 12L19 7L12 7Z" fill="var(--mw-icon-glyph-content-light-blue, #278CDD)"/>
<path d="M8 13.5V9.5C8 9.22386 7.77614 9 7.5 9C7.22386 9 7 9.22386 7 9.5V13.5C7 13.7761 7.22386 14 7.5 14C7.77614 14 8 13.7761 8 13.5Z" fill="var(--mw-icon-glyph-content-mono, #616061)"/>
<path d="M9.5 11H5.5C5.22386 11 5 11.2239 5 11.5C5 11.7761 5.22386 12 5.5 12H9.5C9.77614 12 10 11.7761 10 11.5C10 11.2239 9.77614 11 9.5 11Z" fill="var(--mw-icon-glyph-content-mono, #616061)"/>
<circle cx="15.5" cy="15.5" r="3" stroke="var(--mw-icon-glyph-content-light-blue, #278CDD)"/>
<path d="M12.5 15.5H0.5V23.5H23.5V15.5H18.5" stroke="var(--mw-icon-glyph-content-mono, #616061)" stroke-linejoin="round"/>
</svg>
