<svg width="24" height="24" viewBox="0 0 24 24" fill="none" xmlns="http://www.w3.org/2000/svg">
<path d="M15.5 15.5H0.5V23.5H23.5V15.5H21.5" stroke="var(--mw-icon-glyph-content-mono, #616061)" stroke-linejoin="round"/>
<path d="M18 7L19 7L19 0.5C19 0.223858 18.7761 -1.95703e-08 18.5 -4.37114e-08V-4.37114e-08C18.2239 -6.78526e-08 18 0.223858 18 0.5L18 7Z" fill="var(--mw-icon-glyph-content-light-blue, #278CDD)"/>
<path d="M15 7L18.5 12L22 7L15 7Z" fill="var(--mw-icon-glyph-content-light-blue, #278CDD)"/>
<path d="M6 5H5V14.5C5 14.7761 5.22386 15 5.5 15V15C5.77614 15 6 14.7761 6 14.5V5Z" fill="var(--mw-icon-glyph-content-light-blue, #278CDD)"/>
<path d="M9 5L5.5 0L2 5H9Z" fill="var(--mw-icon-glyph-content-light-blue, #278CDD)"/>
<path d="M10 10.5V6.5C10 6.22386 9.77614 6 9.5 6C9.22386 6 9 6.22386 9 6.5V10.5C9 10.7761 9.22386 11 9.5 11C9.77614 11 10 10.7761 10 10.5Z" fill="var(--mw-icon-glyph-content-mono, #616061)"/>
<path d="M14 21.5V17.5C14 17.2239 13.7761 17 13.5 17C13.2239 17 13 17.2239 13 17.5V21.5C13 21.7761 13.2239 22 13.5 22C13.7761 22 14 21.7761 14 21.5Z" fill="var(--mw-icon-glyph-content-mono, #616061)"/>
<path d="M11.5 8H7.5C7.22386 8 7 8.22386 7 8.5C7 8.77614 7.22386 9 7.5 9H11.5C11.7761 9 12 8.77614 12 8.5C12 8.22386 11.7761 8 11.5 8Z" fill="var(--mw-icon-glyph-content-mono, #616061)"/>
<path d="M15.5 19H11.5C11.2239 19 11 19.2239 11 19.5C11 19.7761 11.2239 20 11.5 20H15.5C15.7761 20 16 19.7761 16 19.5C16 19.2239 15.7761 19 15.5 19Z" fill="var(--mw-icon-glyph-content-mono, #616061)"/>
<circle cx="18.5" cy="15.5" r="3" stroke="var(--mw-icon-glyph-content-light-blue, #278CDD)"/>
<path d="M5.5 17C6.32843 17 7 16.3284 7 15.5C7 14.6716 6.32843 14 5.5 14C4.67157 14 4 14.6716 4 15.5C4 16.3284 4.67157 17 5.5 17Z" fill="var(--mw-icon-glyph-content-light-blue, #278CDD)"/>
</svg>
