<svg width="24" height="24" viewBox="0 0 24 24" fill="none" xmlns="http://www.w3.org/2000/svg">
<path d="M2.5 0.5H21.5C22.6046 0.5 23.5 1.39543 23.5 2.5V21.5C23.5 22.6046 22.6046 23.5 21.5 23.5H2.5C1.39543 23.5 0.5 22.6046 0.5 21.5V2.5C0.5 1.39543 1.39543 0.5 2.5 0.5Z" fill="var(--mw-icon-background-default-white, #FFFFFF)" stroke="var(--mw-icon-border-default-gray, #616161)" stroke-linecap="round"/>
<path d="M3 3H21V4H3V3Z" fill="var(--mw-icon-glyph-content-gray, #616162)"/>
<path d="M3 5H21V7H3V5Z" fill="var(--mw-icon-glyph-content-gray, #616162)"/>
<path d="M3 8H21V11H3V8Z" fill="var(--mw-icon-glyph-content-gray, #616162)"/>
<path d="M3 12H21V16H3V12Z" fill="var(--mw-icon-glyph-content-gray, #616162)"/>
<path d="M3 17H21V22H3V17Z" fill="var(--mw-icon-glyph-content-gray, #616162)"/>
</svg>
