<svg width="24" height="24" viewBox="0 0 24 24" fill="none" xmlns="http://www.w3.org/2000/svg">
<path d="M7.5 15.5H0.5V23.5H23.5V15.5H13.5" stroke="var(--mw-icon-glyph-content-mono, #616061)" stroke-linecap="round" stroke-linejoin="round"/>
<path d="M10 7L11 7L11 0.5C11 0.223858 10.7761 -1.95703e-08 10.5 -4.37114e-08V-4.37114e-08C10.2239 -6.78526e-08 10 0.223858 10 0.5L10 7Z" fill="var(--mw-icon-glyph-content-light-blue, #278CDD)"/>
<path d="M7 7L10.5 12L14 7L7 7Z" fill="var(--mw-icon-glyph-content-light-blue, #278CDD)"/>
<path d="M4 13.5V9.5C4 9.22386 3.77614 9 3.5 9C3.22386 9 3 9.22386 3 9.5V13.5C3 13.7761 3.22386 14 3.5 14C3.77614 14 4 13.7761 4 13.5Z" fill="var(--mw-icon-glyph-content-mono, #616061)"/>
<path d="M5.5 11H1.5C1.22386 11 1 11.2239 1 11.5C1 11.7761 1.22386 12 1.5 12H5.5C5.77614 12 6 11.7761 6 11.5C6 11.2239 5.77614 11 5.5 11Z" fill="var(--mw-icon-glyph-content-mono, #616061)"/>
<circle cx="10.5" cy="15.5" r="3" stroke="var(--mw-icon-glyph-content-light-blue, #278CDD)"/>
<path d="M19 5H18V14.5C18 14.7761 18.2239 15 18.5 15V15C18.7761 15 19 14.7761 19 14.5V5Z" fill="var(--mw-icon-glyph-content-light-blue, #278CDD)"/>
<path d="M22 5L18.5 0L15 5H22Z" fill="var(--mw-icon-glyph-content-light-blue, #278CDD)"/>
<path d="M18.5 17C19.3284 17 20 16.3284 20 15.5C20 14.6716 19.3284 14 18.5 14C17.6716 14 17 14.6716 17 15.5C17 16.3284 17.6716 17 18.5 17Z" fill="var(--mw-icon-glyph-content-light-blue, #278CDD)"/>
</svg>
