<svg width="24" height="24" viewBox="0 0 24 24" fill="none" xmlns="http://www.w3.org/2000/svg">
<path d="M24 16H19.5C19.2239 16 19 16.2239 19 16.5C19 16.7761 19.2239 17 19.5 17H24V16Z" fill="var(--mw-icon-glyph-content-mono, #616061)"/>
<path d="M12 16H0V17H12V16Z" fill="var(--mw-icon-glyph-content-mono, #616061)"/>
<path d="M14.5 14.5L10.5 18.5" stroke="var(--mw-icon-glyph-content-mono, #616061)" stroke-linecap="round"/>
<path d="M14.5 18.5L10.5 14.5" stroke="var(--mw-icon-glyph-content-mono, #616061)" stroke-linecap="round"/>
<path d="M5 9H4V15.5C4 15.7761 4.22386 16 4.5 16V16C4.77614 16 5 15.7761 5 15.5V9Z" fill="var(--mw-icon-glyph-content-mono, #616061)"/>
<path d="M8 9L4.5 4L1 9H8Z" fill="var(--mw-icon-glyph-content-mono, #616061)"/>
<path d="M19 11L20 11L20 4.5C20 4.22386 19.7761 4 19.5 4V4C19.2239 4 19 4.22386 19 4.5L19 11Z" fill="var(--mw-icon-glyph-content-mono, #616061)"/>
<path d="M16 11L19.5 16L23 11L16 11Z" fill="var(--mw-icon-glyph-content-mono, #616061)"/>
<path d="M4.5 18C5.32843 18 6 17.3284 6 16.5C6 15.6716 5.32843 15 4.5 15C3.67157 15 3 15.6716 3 16.5C3 17.3284 3.67157 18 4.5 18Z" fill="var(--mw-icon-glyph-content-mono, #616061)"/>
</svg>
