<svg width="24" height="24" viewBox="0 0 24 24" fill="none" xmlns="http://www.w3.org/2000/svg">
<rect x="0.5" y="0.5" width="22" height="22" rx="2" fill="var(--mw-icon-background-default-white, #FFFFFF)"/>
<path d="M0.5 18.5L22.5 7.5" stroke="#DD5400" stroke-linecap="round" stroke-linejoin="round"/>
<path d="M8.5 14.5V12.5H6.5V14.5H8.5ZM8.5 14.5H10.5V16.5H8.5M8.5 14.5V16.5M8.5 16.5H6.5V18.5H8.5V16.5ZM17.5 5.5H19.5V7.5H17.5V5.5ZM13.5 8.5H15.5V10.5H13.5V8.5ZM10.5 7.5H12.5V9.5H10.5V7.5ZM8.5 8.5H10.5V10.5H8.5V8.5ZM3.5 11.5H5.5V13.5H3.5V11.5ZM2.5 14.5H4.5V16.5H2.5V14.5ZM9.5 16.5H11.5V18.5H9.5V16.5ZM13.5 13.5H15.5V15.5H13.5V13.5ZM17.5 13.5H19.5V15.5H17.5V13.5ZM17.5 9.5H19.5V11.5H17.5V9.5Z" stroke="var(--mw-icon-glyph-disabled-gray, #888889)" stroke-linejoin="round"/>
<rect x="0.5" y="0.5" width="22" height="22" rx="2" stroke="var(--mw-icon-border-default-gray, #616161)"/>
</svg>
