<svg width="24" height="24" viewBox="0 0 24 24" fill="none" xmlns="http://www.w3.org/2000/svg">
<rect x="3.5" y="3.5" width="19" height="19" rx="2" fill="var(--mw-icon-background-default-medium-gray, #D9D9D9)" stroke="var(--mw-icon-border-default-gray, #616161)"/>
<rect x="0.5" y="0.5" width="19" height="19" rx="2" fill="var(--mw-icon-background-default-white, #FFFFFF)"/>
<path d="M0.5 16.5L19.5 6.5" stroke="#DD5400" stroke-linecap="round" stroke-linejoin="round"/>
<path d="M7.5 12.5V10.5H5.5V12.5H7.5ZM7.5 12.5H9.5V14.5H7.5M7.5 12.5V14.5M7.5 14.5H5.5V16.5H7.5V14.5ZM16.5 3.5H18.5V5.5H16.5V3.5ZM12.5 6.5H14.5V8.5H12.5V6.5ZM9.5 5.5H11.5V7.5H9.5V5.5ZM7.5 6.5H9.5V8.5H7.5V6.5ZM2.5 9.5H4.5V11.5H2.5V9.5ZM1.5 12.5H3.5V14.5H1.5V12.5ZM8.5 14.5H10.5V16.5H8.5V14.5ZM12.5 11.5H14.5V13.5H12.5V11.5ZM16.5 11.5H18.5V13.5H16.5V11.5ZM16.5 7.5H18.5V9.5H16.5V7.5Z" stroke="var(--mw-icon-glyph-disabled-gray, #888889)" stroke-linejoin="round"/>
<rect x="0.5" y="0.5" width="19" height="19" rx="2" stroke="var(--mw-icon-border-default-gray, #616161)"/>
</svg>
