<svg width="24" height="24" viewBox="0 0 24 24" fill="none" xmlns="http://www.w3.org/2000/svg">
<path d="M8.5 4.5H4.5V8.5M8.5 12.5H4.5V8.5M4.5 8.5H1.5" stroke="var(--mw-icon-background-default-highlight, #FFE864)" stroke-width="3" stroke-linecap="square" stroke-linejoin="round"/>
<path d="M8.5 4.5H4.5V8.5M8.5 12.5H4.5V8.5M4.5 8.5H0.5" stroke="var(--mw-icon-glyph-content-yellow, #674C07)" stroke-linecap="square" stroke-linejoin="round"/>
<path d="M18.5 7.5H9.5V4.5V1.5H18.5V4.5V7.5Z" fill="var(--mw-icon-background-default-medium-gray, #D9D9D9)"/>
<path d="M18.5 4.5V7.5H9.5V4.5V1.5H18.5V4.5ZM18.5 4.5H22.5" stroke="var(--mw-icon-glyph-disabled-gray, #888889)" stroke-linecap="round" stroke-linejoin="round"/>
<path d="M18.5 15.5H9.5V12.5V9.5H18.5V12.5V15.5Z" fill="var(--mw-icon-background-default-medium-gray, #D9D9D9)" stroke="var(--mw-icon-glyph-disabled-gray, #888889)" stroke-linecap="round" stroke-linejoin="round"/>
<rect x="11.5" y="11.5" width="12" height="12" rx="2" fill="var(--mw-icon-background-default-white, #FFFFFF)" stroke="var(--mw-icon-border-default-gray, #616161)"/>
<path fill-rule="evenodd" clip-rule="evenodd" d="M17.8387 17.1613C17.4185 16.741 16.7372 16.741 16.317 17.1613L14.347 19.1312C13.9268 19.5514 13.9268 20.2327 14.347 20.653C14.7673 21.0732 15.4486 21.0732 15.8688 20.653L16.713 19.8087C16.9145 19.6072 17.2412 19.6072 17.4427 19.8087C17.6442 20.0102 17.6442 20.3368 17.4427 20.5383L16.5984 21.3826C15.7752 22.2058 14.4406 22.2058 13.6174 21.3826C12.7942 20.5594 12.7942 19.2248 13.6174 18.4016L15.5873 16.4316C16.4105 15.6084 17.7452 15.6084 18.5684 16.4316C18.7699 16.6331 18.7699 16.9598 18.5684 17.1613C18.3669 17.3627 18.0402 17.3627 17.8387 17.1613Z" fill="var(--mw-icon-glyph-content-gray, #616162)"/>
<path fill-rule="evenodd" clip-rule="evenodd" d="M17.1613 17.8387C17.5815 18.259 18.2628 18.259 18.683 17.8387L20.653 15.8688C21.0732 15.4486 21.0732 14.7673 20.653 14.347C20.2327 13.9268 19.5514 13.9268 19.1312 14.347L18.287 15.1913C18.0855 15.3928 17.7588 15.3928 17.5573 15.1913C17.3558 14.9898 17.3558 14.6632 17.5573 14.4617L18.4016 13.6174C19.2248 12.7942 20.5594 12.7942 21.3826 13.6174C22.2058 14.4406 22.2058 15.7752 21.3826 16.5984L19.4127 18.5684C18.5895 19.3916 17.2548 19.3916 16.4316 18.5684C16.2301 18.3669 16.2301 18.0402 16.4316 17.8387C16.6331 17.6373 16.9598 17.6373 17.1613 17.8387Z" fill="var(--mw-icon-glyph-content-gray, #616162)"/>
</svg>
