<svg width="24" height="24" viewBox="0 0 24 24" fill="none" xmlns="http://www.w3.org/2000/svg">
<path d="M2.5 16.5V3.5C2.5 2.94772 2.94772 2.5 3.5 2.5H16.5C17.0523 2.5 17.5 2.94772 17.5 3.5V16.5C17.5 17.0523 17.0523 17.5 16.5 17.5H3.5C2.94772 17.5 2.5 17.0523 2.5 16.5Z" fill="var(--mw-icon-background-default-medium-gray, #D9D9D9)" stroke="var(--mw-icon-border-default-gray, #616161)" stroke-linecap="square"/>
<path d="M0.5 14.5V1.5C0.5 0.947715 0.947715 0.5 1.5 0.5H14.5C15.0523 0.5 15.5 0.947715 15.5 1.5V14.5C15.5 15.0523 15.0523 15.5 14.5 15.5H1.5C0.947715 15.5 0.5 15.0523 0.5 14.5Z" fill="var(--mw-icon-background-default-white, #FFFFFF)"/>
<path d="M15.5 8C13 3.33333 10.5 3.33333 8 8C5.5 12.6667 3 12.6667 0.5 8" stroke="#0072BD" stroke-linecap="round"/>
<path d="M0.5 14.5V1.5C0.5 0.947715 0.947715 0.5 1.5 0.5H14.5C15.0523 0.5 15.5 0.947715 15.5 1.5V14.5C15.5 15.0523 15.0523 15.5 14.5 15.5H1.5C0.947715 15.5 0.5 15.0523 0.5 14.5Z" stroke="var(--mw-icon-border-default-gray, #616161)" stroke-linecap="square"/>
<rect x="10.5" y="10.5" width="13" height="13" rx="2" fill="white" stroke="var(--mw-icon-border-default-gray, #616161)"/>
<path fill-rule="evenodd" clip-rule="evenodd" d="M17.3764 16.6236C16.9094 16.1567 16.1524 16.1567 15.6855 16.6236L13.4967 18.8125C13.0298 19.2794 13.0298 20.0364 13.4967 20.5033C13.9636 20.9702 14.7206 20.9702 15.1875 20.5033L16.1256 19.5652C16.3495 19.3413 16.7124 19.3413 16.9363 19.5652C17.1602 19.7891 17.1602 20.1521 16.9363 20.3759L15.9982 21.314C15.0836 22.2287 13.6006 22.2287 12.686 21.314C11.7713 20.3994 11.7713 18.9164 12.686 18.0017L14.8748 15.8129C15.7895 14.8982 17.2724 14.8982 18.1871 15.8129C18.4109 16.0368 18.4109 16.3997 18.1871 16.6236C17.9632 16.8475 17.6002 16.8475 17.3764 16.6236Z" fill="var(--mw-icon-border-default-gray, #616161)"/>
<path fill-rule="evenodd" clip-rule="evenodd" d="M16.6236 17.3764C17.0906 17.8433 17.8476 17.8433 18.3145 17.3764L20.5033 15.1875C20.9702 14.7206 20.9702 13.9636 20.5033 13.4967C20.0364 13.0298 19.2794 13.0298 18.8125 13.4967L17.8744 14.4348C17.6505 14.6587 17.2876 14.6587 17.0637 14.4348C16.8398 14.2109 16.8398 13.8479 17.0637 13.6241L18.0018 12.686C18.9164 11.7713 20.3994 11.7713 21.314 12.686C22.2287 13.6006 22.2287 15.0836 21.314 15.9983L19.1252 18.1871C18.2105 19.1018 16.7276 19.1018 15.8129 18.1871C15.5891 17.9632 15.5891 17.6003 15.8129 17.3764C16.0368 17.1525 16.3998 17.1525 16.6236 17.3764Z" fill="var(--mw-icon-border-default-gray, #616161)"/>
</svg>
