<svg width="24" height="24" viewBox="0 0 24 24" fill="none" xmlns="http://www.w3.org/2000/svg">
<path d="M23.5 14.5C23.5 18.9183 19.9183 22.5 15.5 22.5C11.0817 22.5 7.5 18.9183 7.5 14.5C7.5 10.0817 11.0817 6.5 15.5 6.5C19.9183 6.5 23.5 10.0817 23.5 14.5Z" fill="var(--mw-icon-background-default-white, #FFFFFF)" stroke="var(--mw-icon-border-default-gray, #616161)"/>
<path fill-rule="evenodd" clip-rule="evenodd" d="M15.8764 14.1236C15.4094 13.6567 14.6525 13.6567 14.1855 14.1236L11.9967 16.3125C11.5298 16.7794 11.5298 17.5364 11.9967 18.0033C12.4636 18.4702 13.2206 18.4702 13.6875 18.0033L14.6256 17.0652C14.8495 16.8413 15.2124 16.8413 15.4363 17.0652C15.6602 17.2891 15.6602 17.6521 15.4363 17.8759L14.4982 18.814C13.5836 19.7287 12.1006 19.7287 11.186 18.814C10.2713 17.8994 10.2713 16.4164 11.186 15.5017L13.3748 13.3129C14.2895 12.3982 15.7724 12.3982 16.6871 13.3129C16.9109 13.5368 16.9109 13.8997 16.6871 14.1236C16.4632 14.3475 16.1002 14.3475 15.8764 14.1236Z" fill="var(--mw-icon-glyph-content-gray, #616162)"/>
<path fill-rule="evenodd" clip-rule="evenodd" d="M15.1236 14.8764C15.5906 15.3433 16.3476 15.3433 16.8145 14.8764L19.0033 12.6875C19.4702 12.2206 19.4702 11.4636 19.0033 10.9967C18.5364 10.5298 17.7794 10.5298 17.3125 10.9967L16.3744 11.9348C16.1505 12.1587 15.7876 12.1587 15.5637 11.9348C15.3398 11.7109 15.3398 11.3479 15.5637 11.1241L16.5018 10.186C17.4164 9.27134 18.8994 9.27134 19.814 10.186C20.7287 11.1006 20.7287 12.5836 19.814 13.4983L17.6252 15.6871C16.7105 16.6018 15.2276 16.6018 14.3129 15.6871C14.0891 15.4632 14.0891 15.1003 14.3129 14.8764C14.5368 14.6525 14.8998 14.6525 15.1236 14.8764Z" fill="var(--mw-icon-glyph-content-gray, #616162)"/>
<path fill-rule="evenodd" clip-rule="evenodd" d="M8.96607 2.32589C8.7219 2.60672 8.49872 3.12253 8.35974 4.0799C8.30412 4.46305 8.13954 4.89555 7.93731 5.31921C7.73206 5.7492 7.47398 6.19866 7.20975 6.62228C6.68118 7.46972 6.11295 8.23762 5.85366 8.57847C5.61772 8.88862 5.13494 9.33502 4.66335 9.74396C4.35921 10.0077 4.04391 10.2692 3.771 10.4901C3.88197 10.5624 3.98944 10.6329 4.09215 10.7008C4.76203 11.1438 5.25807 11.8547 5.64153 12.5203C5.83582 12.8576 6.00863 13.1969 6.16246 13.4999L6.1699 13.5145C6.25005 13.6723 6.32401 13.818 6.39365 13.95C6.57815 13.845 6.80434 13.6808 7.05492 13.4501C7.45103 13.0855 8.3911 11.9488 8.9597 11.1637C9.29292 10.7036 9.75324 10.3469 10.2165 10.1051C10.6756 9.86557 11.174 9.72009 11.6 9.72009C11.9529 9.72009 12.3702 9.87771 12.715 10.0396C12.1771 8.47793 11.452 6.3286 11.2028 5.42861C11.014 4.74688 10.688 3.81948 10.3226 3.0704C10.139 2.69387 9.95469 2.38186 9.7842 2.17064C9.69899 2.06508 9.6282 1.99855 9.57499 1.96134C9.54958 1.94356 9.53378 1.9363 9.52679 1.93359C9.47541 1.93728 9.36581 1.97344 9.19449 2.11243C9.17257 2.13022 9.15045 2.14902 9.12818 2.16877L9.13047 2.17182C9.11557 2.18294 9.10071 2.19473 9.08588 2.20724C9.04631 2.24409 9.00633 2.28376 8.96607 2.32589Z" fill="#F57729"/>
<path fill-rule="evenodd" clip-rule="evenodd" d="M3.00298 9.99514C3.30974 9.75096 3.71234 9.42132 4.09522 9.0893C4.29052 8.91995 4.47448 8.75523 4.63574 8.60407L3.78346 7.98623C3.7814 7.98733 3.77937 7.98842 3.77738 7.98948C3.69356 8.03425 3.58891 8.08517 3.47179 8.13948C3.23665 8.24853 2.93299 8.37969 2.60582 8.51635C2.23011 8.67328 1.81856 8.83947 1.43555 8.99084C1.74616 9.19237 2.10536 9.4217 2.4755 9.65802C2.6502 9.76956 2.82737 9.88268 3.00298 9.99514ZM4.44592 7.39603L5.2308 7.965C5.50461 7.60134 6.00699 6.91256 6.47407 6.16373C6.72837 5.75603 6.96844 5.33648 7.15484 4.94598C7.1883 4.87588 7.21961 4.80758 7.2487 4.74121C7.19128 4.80807 7.13286 4.87438 7.07443 4.93912C6.75787 5.28987 6.3893 5.65209 6.11481 5.83298C5.65387 6.13675 5.3012 6.3833 5.07799 6.68C4.9317 6.87446 4.6779 7.15309 4.44592 7.39603Z" fill="#068CFC"/>
<path d="M0.5 8.88907L0.322231 8.42173C0.149021 8.48762 0.0264605 8.64391 0.00376406 8.82783C-0.0189323 9.01175 0.0619588 9.19314 0.213954 9.29916L0.5 8.88907ZM3.7193 7.51471L4.0668 7.87422L4.0668 7.87422L3.7193 7.51471ZM4.73113 6.41944L4.33158 6.11884L4.33158 6.11884L4.73113 6.41944ZM7.49056 3.69301L7.05439 3.44857L7.05439 3.44857L7.49056 3.69301ZM9.14969 2.17221C9.36709 2.00193 9.40529 1.68766 9.23501 1.47027C9.06474 1.25287 8.75047 1.21467 8.53307 1.38495L9.14969 2.17221ZM0.677769 9.3564C1.21008 9.15391 1.97498 8.8518 2.63094 8.57781C2.95841 8.44102 3.26298 8.30948 3.49926 8.19991C3.61688 8.14536 3.72281 8.09385 3.80822 8.04823C3.87205 8.01413 3.98596 7.95235 4.0668 7.87422L3.3718 7.1552C3.40767 7.12053 3.42025 7.12175 3.33706 7.16618C3.27546 7.19909 3.18867 7.24164 3.07855 7.29271C2.85937 7.39436 2.56837 7.52021 2.24551 7.65507C1.60081 7.92436 0.845997 8.2225 0.322231 8.42173L0.677769 9.3564ZM4.0668 7.87422C4.29244 7.65611 4.87339 7.06204 5.13069 6.72003L4.33158 6.11884C4.12603 6.39206 3.59584 6.93865 3.3718 7.1552L4.0668 7.87422ZM5.13069 6.72003C5.34579 6.4341 5.68825 6.19351 6.15092 5.88859L5.60065 5.05361C5.16395 5.3414 4.66827 5.6713 4.33158 6.11884L5.13069 6.72003ZM6.15092 5.88859C6.43305 5.70267 6.80643 5.33487 7.12334 4.98373C7.44279 4.62978 7.76537 4.22539 7.92674 3.93744L7.05439 3.44857C6.95003 3.63478 6.69006 3.97127 6.38098 4.31373C6.06936 4.65901 5.7682 4.94319 5.60065 5.05361L6.15092 5.88859ZM3.5511 10.2032C3.01414 9.84814 2.47647 9.52521 1.99807 9.23779C1.51336 8.94657 1.09945 8.69757 0.786046 8.47897L0.213954 9.29916C0.56145 9.54154 1.00864 9.80994 1.48307 10.095C1.96382 10.3838 2.48334 10.696 2.99948 11.0373L3.5511 10.2032ZM3.45648 7.83197L4.84642 8.83957L5.43335 8.02993L4.04341 7.02233L3.45648 7.83197ZM7.92674 3.93744C8.04186 3.73203 8.20294 3.41042 8.42783 3.05227C8.65359 2.69274 8.90345 2.36507 9.14969 2.17221L8.53307 1.38495C8.14608 1.68806 7.82171 2.13706 7.58095 2.52049C7.33933 2.90529 7.14162 3.29291 7.05439 3.44857L7.92674 3.93744Z" fill="#004A88"/>
<path d="M11.6193 5.31305C11.2309 3.91031 10.3616 1.5 9.51733 1.5C8.67307 1.5 8.23371 2.54645 7.92972 4.01775C7.66911 5.27907 6.01859 7.64448 5.50759 8.31622C5.09879 8.85361 3.71566 9.98897 3.0752 10.4895L3.85198 11.0623C5.01707 11.8328 5.67116 13.6109 6.20261 14.5C6.50921 14.421 6.91802 14.1641 7.34726 13.769C7.77651 13.3739 8.7372 12.2082 9.30953 11.4179C9.88185 10.6277 10.9243 10.1535 11.5988 10.1535C12.1385 10.1535 13.091 10.7067 13.4998 10.9833C13.0024 9.56078 11.93 6.43524 11.6193 5.31305Z" stroke="#923800" stroke-linejoin="round"/>
</svg>
