<svg width="24" height="24" viewBox="0 0 24 24" fill="none" xmlns="http://www.w3.org/2000/svg">
<path d="M7.5 3.5L7.5 22.5C7.5 23.0523 7.94772 23.5 8.5 23.5L22.5 23.5C23.0523 23.5 23.5 23.0523 23.5 22.5L23.5 7.41421C23.5 7.149 23.3946 6.89464 23.2071 6.70711L19.2929 2.79289C19.1054 2.60536 18.851 2.5 18.5858 2.5L8.5 2.5C7.94771 2.5 7.5 2.94772 7.5 3.5Z" fill="var(--mw-icon-background-default-white, #FFFFFF)" stroke="var(--mw-icon-border-default-gray, #616161)"/>
<path fill-rule="evenodd" clip-rule="evenodd" d="M15.9893 14.0107C15.3823 13.4037 14.3982 13.4037 13.7912 14.0107L10.9457 16.8562C10.3388 17.4632 10.3388 18.4473 10.9457 19.0543C11.5527 19.6612 12.5368 19.6612 13.1438 19.0543L14.3633 17.8348C14.6543 17.5437 15.1262 17.5437 15.4172 17.8348C15.7082 18.1258 15.7082 18.5977 15.4172 18.8887L14.1977 20.1082C13.0087 21.2973 11.0808 21.2973 9.89179 20.1082C8.70274 18.9192 8.70274 16.9913 9.89179 15.8023L12.7373 12.9568C13.9263 11.7677 15.8541 11.7677 17.0432 12.9568C17.3342 13.2478 17.3342 13.7197 17.0432 14.0107C16.7522 14.3017 16.2803 14.3017 15.9893 14.0107Z" fill="var(--mw-icon-glyph-content-gray, #616162)"/>
<path fill-rule="evenodd" clip-rule="evenodd" d="M15.0107 14.9893C15.6177 15.5963 16.6018 15.5963 17.2088 14.9893L20.0543 12.1438C20.6613 11.5368 20.6613 10.5527 20.0543 9.94573C19.4473 9.33876 18.4632 9.33876 17.8562 9.94573L16.6367 11.1652C16.3457 11.4563 15.8738 11.4563 15.5828 11.1652C15.2918 10.8742 15.2918 10.4023 15.5828 10.1113L16.8023 8.89179C17.9913 7.70274 19.9192 7.70274 21.1082 8.89179C22.2973 10.0808 22.2973 12.0087 21.1082 13.1977L18.2627 16.0432C17.0737 17.2323 15.1459 17.2323 13.9568 16.0432C13.6658 15.7522 13.6658 15.2803 13.9568 14.9893C14.2478 14.6983 14.7197 14.6983 15.0107 14.9893Z" fill="var(--mw-icon-glyph-content-gray, #616162)"/>
<path d="M0.5 1.5C0.5 0.947715 0.947715 0.5 1.5 0.5H9.5C10.0523 0.5 10.5 0.947715 10.5 1.5V9.5C10.5 10.0523 10.0523 10.5 9.5 10.5H1.5C0.947715 10.5 0.5 10.0523 0.5 9.5V1.5Z" fill="white" stroke="var(--mw-icon-border-default-gray, #616161)"/>
<path d="M5 5.25C5 5.11193 5.11193 5 5.25 5H8.75C8.88807 5 9 5.11193 9 5.25V8.75C9 8.88807 8.88807 9 8.75 9H5.25C5.11193 9 5 8.88807 5 8.75V5.25Z" fill="#D78825"/>
<path d="M2 7V2L6.5 4.5L2 7Z" fill="#0076A8"/>
</svg>
