<svg width="24" height="24" viewBox="0 0 24 24" fill="none" xmlns="http://www.w3.org/2000/svg">
<path d="M0.5 4.5V1.5C0.5 0.947715 0.947715 0.5 1.5 0.5H15.5C16.0523 0.5 16.5 0.947715 16.5 1.5V4.5C16.5 5.05228 16.0523 5.5 15.5 5.5H1.5C0.947715 5.5 0.5 5.05228 0.5 4.5Z" fill="var(--mw-icon-background-default-light-gray, #F5F5F5)"/>
<path d="M0.5 9.5V6.5C0.5 5.94772 0.947715 5.5 1.5 5.5H15.5C16.0523 5.5 16.5 5.94772 16.5 6.5V9.5C16.5 10.0523 16.0523 10.5 15.5 10.5H1.5C0.947715 10.5 0.5 10.0523 0.5 9.5Z" fill="var(--mw-icon-background-default-light-gray, #F5F5F5)"/>
<path d="M0.5 14.5V11.5C0.5 10.9477 0.947715 10.5 1.5 10.5H15.5C16.0523 10.5 16.5 10.9477 16.5 11.5V14.5C16.5 15.0523 16.0523 15.5 15.5 15.5H1.5C0.947715 15.5 0.5 15.0523 0.5 14.5Z" fill="var(--mw-icon-background-default-light-gray, #F5F5F5)"/>
<path d="M15.5 5.5C16.0523 5.5 16.5 5.05228 16.5 4.5V1.5C16.5 0.947715 16.0523 0.5 15.5 0.5H1.5C0.947715 0.5 0.5 0.947715 0.5 1.5V4.5C0.5 5.05228 0.947715 5.5 1.5 5.5M15.5 5.5H1.5M15.5 5.5C16.0523 5.5 16.5 5.94772 16.5 6.5V9.5C16.5 10.0523 16.0523 10.5 15.5 10.5M1.5 5.5C0.947715 5.5 0.5 5.94772 0.5 6.5V9.5C0.5 10.0523 0.947715 10.5 1.5 10.5M15.5 10.5H1.5M15.5 10.5C16.0523 10.5 16.5 10.9477 16.5 11.5V14.5C16.5 15.0523 16.0523 15.5 15.5 15.5H1.5C0.947715 15.5 0.5 15.0523 0.5 14.5V11.5C0.5 10.9477 0.947715 10.5 1.5 10.5" stroke="var(--mw-icon-border-default-gray, #616161)"/>
<path d="M15 3C15 3.55228 14.5523 4 14 4C13.4477 4 13 3.55228 13 3C13 2.44772 13.4477 2 14 2C14.5523 2 15 2.44772 15 3Z" fill="var(--mw-icon-glyph-content-green, #008014)"/>
<path d="M12 3.5C12 3.77614 11.7761 4 11.5 4C11.2239 4 11 3.77614 11 3.5C11 3.22386 11.2239 3 11.5 3C11.7761 3 12 3.22386 12 3.5Z" fill="var(--mw-icon-border-default-gray, #616161)"/>
<path d="M10 3.5C10 3.77614 9.77614 4 9.5 4C9.22386 4 9 3.77614 9 3.5C9 3.22386 9.22386 3 9.5 3C9.77614 3 10 3.22386 10 3.5Z" fill="var(--mw-icon-border-default-gray, #616161)"/>
<path d="M15 8C15 8.55228 14.5523 9 14 9C13.4477 9 13 8.55228 13 8C13 7.44772 13.4477 7 14 7C14.5523 7 15 7.44772 15 8Z" fill="var(--mw-icon-glyph-content-green, #008014)"/>
<path d="M12 8.5C12 8.77614 11.7761 9 11.5 9C11.2239 9 11 8.77614 11 8.5C11 8.22386 11.2239 8 11.5 8C11.7761 8 12 8.22386 12 8.5Z" fill="var(--mw-icon-border-default-gray, #616161)"/>
<path d="M10 8.5C10 8.77614 9.77614 9 9.5 9C9.22386 9 9 8.77614 9 8.5C9 8.22386 9.22386 8 9.5 8C9.77614 8 10 8.22386 10 8.5Z" fill="var(--mw-icon-border-default-gray, #616161)"/>
<path d="M15 13C15 13.5523 14.5523 14 14 14C13.4477 14 13 13.5523 13 13C13 12.4477 13.4477 12 14 12C14.5523 12 15 12.4477 15 13Z" fill="var(--mw-icon-glyph-content-green, #008014)"/>
<path d="M12 13.5C12 13.7761 11.7761 14 11.5 14C11.2239 14 11 13.7761 11 13.5C11 13.2239 11.2239 13 11.5 13C11.7761 13 12 13.2239 12 13.5Z" fill="var(--mw-icon-border-default-gray, #616161)"/>
<path d="M10 13.5C10 13.7761 9.77614 14 9.5 14C9.22386 14 9 13.7761 9 13.5C9 13.2239 9.22386 13 9.5 13C9.77614 13 10 13.2239 10 13.5Z" fill="var(--mw-icon-border-default-gray, #616161)"/>
<rect x="10.5" y="10.5" width="13" height="13" rx="2" fill="var(--mw-icon-background-default-white, #FFFFFF)" stroke="var(--mw-icon-border-default-gray, #616161)"/>
<path fill-rule="evenodd" clip-rule="evenodd" d="M17.3764 16.6236C16.9094 16.1567 16.1525 16.1567 15.6855 16.6236L13.4967 18.8125C13.0298 19.2794 13.0298 20.0364 13.4967 20.5033C13.9636 20.9702 14.7206 20.9702 15.1875 20.5033L16.1256 19.5652C16.3495 19.3413 16.7124 19.3413 16.9363 19.5652C17.1602 19.7891 17.1602 20.1521 16.9363 20.3759L15.9982 21.314C15.0836 22.2287 13.6006 22.2287 12.686 21.314C11.7713 20.3994 11.7713 18.9164 12.686 18.0017L14.8748 15.8129C15.7895 14.8982 17.2724 14.8982 18.1871 15.8129C18.4109 16.0368 18.4109 16.3997 18.1871 16.6236C17.9632 16.8475 17.6002 16.8475 17.3764 16.6236Z" fill="var(--mw-icon-glyph-content-gray, #616162)"/>
<path fill-rule="evenodd" clip-rule="evenodd" d="M16.6236 17.3764C17.0906 17.8433 17.8476 17.8433 18.3145 17.3764L20.5033 15.1875C20.9702 14.7206 20.9702 13.9636 20.5033 13.4967C20.0364 13.0298 19.2794 13.0298 18.8125 13.4967L17.8744 14.4348C17.6505 14.6587 17.2876 14.6587 17.0637 14.4348C16.8398 14.2109 16.8398 13.8479 17.0637 13.6241L18.0018 12.686C18.9164 11.7713 20.3994 11.7713 21.314 12.686C22.2287 13.6006 22.2287 15.0836 21.314 15.9983L19.1252 18.1871C18.2105 19.1018 16.7276 19.1018 15.8129 18.1871C15.5891 17.9632 15.5891 17.6003 15.8129 17.3764C16.0368 17.1525 16.3998 17.1525 16.6236 17.3764Z" fill="var(--mw-icon-glyph-content-gray, #616162)"/>
</svg>
