<svg width="24" height="24" viewBox="0 0 24 24" fill="none" xmlns="http://www.w3.org/2000/svg">
<path d="M5.5 2.5C5.5 1.39543 6.39543 0.5 7.5 0.5H21.5C22.6046 0.5 23.5 1.39543 23.5 2.5V16.5C23.5 17.6046 22.6046 18.5 21.5 18.5H7.5C6.39543 18.5 5.5 17.6046 5.5 16.5V2.5Z" fill="var(--mw-icon-background-default-white, #FFFFFF)" stroke="var(--mw-icon-border-default-gray, #616161)"/>
<path d="M7.5 6C7.22386 6 7 6.22386 7 6.5C7 6.77614 7.22386 7 7.5 7V6ZM18.5 7C18.7761 7 19 6.77614 19 6.5C19 6.22386 18.7761 6 18.5 6V7ZM18 11.5V12H19V11.5H18ZM19 7V6.5H18V7H19ZM7.5 7H18.5V6H7.5V7ZM19 11.5V7H18V11.5H19Z" fill="var(--mw-icon-glyph-disabled-gray, #888889)"/>
<path d="M14.3235 6.14146C14.5588 6.30081 14.5588 6.69919 14.3235 6.85854L9.02941 10.4439C8.79412 10.6033 8.5 10.4041 8.5 10.0854L8.5 2.91462C8.5 2.59592 8.79412 2.39673 9.02941 2.55608L14.3235 6.14146Z" fill="var(--mw-icon-background-default-selection, #B4DEFF)" stroke="var(--mw-icon-glyph-content-blue, #1656A8)" stroke-linejoin="round"/>
<rect x="15.5" y="10.5" width="6" height="6" rx="1" fill="var(--mw-icon-background-red, #FF9D9A)" stroke="var(--mw-icon-glyph-content-red, #902623)"/>
<rect x="0.5" y="10.5" width="13" height="13" rx="2" fill="var(--mw-icon-background-default-selection, #B4DEFF)" stroke="var(--mw-icon-border-default-blue, #1656A7)"/>
<path fill-rule="evenodd" clip-rule="evenodd" d="M7.37635 16.6236C6.90945 16.1567 6.15245 16.1567 5.68555 16.6236L3.49671 18.8125C3.02981 19.2794 3.02981 20.0364 3.49671 20.5033C3.96361 20.9702 4.72061 20.9702 5.18752 20.5033L6.12559 19.5652C6.34946 19.3413 6.71244 19.3413 6.93631 19.5652C7.16018 19.7891 7.16018 20.1521 6.93631 20.3759L5.99824 21.314C5.08359 22.2287 3.60064 22.2287 2.68599 21.314C1.77134 20.3994 1.77134 18.9164 2.68599 18.0017L4.87483 15.8129C5.78948 14.8982 7.27242 14.8982 8.18707 15.8129C8.41095 16.0368 8.41095 16.3997 8.18707 16.6236C7.9632 16.8475 7.60023 16.8475 7.37635 16.6236Z" fill="var(--mw-icon-glyph-content-blue, #1656A8)"/>
<path fill-rule="evenodd" clip-rule="evenodd" d="M6.62365 17.3764C7.09055 17.8433 7.84755 17.8433 8.31445 17.3764L10.5033 15.1875C10.9702 14.7206 10.9702 13.9636 10.5033 13.4967C10.0364 13.0298 9.27939 13.0298 8.81249 13.4967L7.87441 14.4348C7.65054 14.6587 7.28757 14.6587 7.06369 14.4348C6.83982 14.2109 6.83982 13.8479 7.06369 13.6241L8.00176 12.686C8.91642 11.7713 10.3994 11.7713 11.314 12.686C12.2287 13.6006 12.2287 15.0836 11.314 15.9983L9.12518 18.1871C8.21052 19.1018 6.72758 19.1018 5.81293 18.1871C5.58905 17.9632 5.58905 17.6003 5.81293 17.3764C6.0368 17.1525 6.39978 17.1525 6.62365 17.3764Z" fill="var(--mw-icon-glyph-content-blue, #1656A8)"/>
</svg>
