<svg width="24" height="24" viewBox="0 0 24 24" fill="none" xmlns="http://www.w3.org/2000/svg">
<path d="M0.5 2.5C0.5 1.39543 1.39543 0.5 2.5 0.5H20.5C21.6046 0.5 22.5 1.39543 22.5 2.5V20.5C22.5 21.6046 21.6046 22.5 20.5 22.5H2.5C1.39543 22.5 0.5 21.6046 0.5 20.5V2.5Z" fill="var(--mw-icon-background-default-light-gray, #F5F5F5)"/>
<path d="M19 1H22V22H19V1Z" fill="var(--mw-icon-background-default-light-gray, #F5F5F5)"/>
<path d="M20 16H21V20.5C21 20.7761 20.7761 21 20.5 21C20.2239 21 20 20.7761 20 20.5V16Z" fill="var(--mw-icon-background-default-dark-gray, #A6A6A6)"/>
<path d="M20 2.5C20 2.22386 20.2239 2 20.5 2C20.7761 2 21 2.22386 21 2.5V16H20V2.5Z" fill="var(--mw-icon-glyph-content-gray, #616162)"/>
<rect x="1" y="10" width="17" height="8" fill="var(--mw-icon-background-default-medium-gray, #D9D9D9)"/>
<path d="M1 18.5H18.5M18.5 18.5V22M18.5 18.5V9.5M1 9.5H18.5M18.5 9.5V1" stroke="var(--mw-icon-glyph-disabled-gray, #888889)"/>
<path d="M0.5 2.5C0.5 1.39543 1.39543 0.5 2.5 0.5H20.5C21.6046 0.5 22.5 1.39543 22.5 2.5V20.5C22.5 21.6046 21.6046 22.5 20.5 22.5H2.5C1.39543 22.5 0.5 21.6046 0.5 20.5V2.5Z" stroke="var(--mw-icon-border-default-gray, #616161)"/>
<path d="M2.5 5.5H16.5M2.5 7.5H11.5" stroke="var(--mw-icon-glyph-disabled-gray, #888889)" stroke-linecap="round"/>
<rect x="2" y="2" width="6" height="2" rx="0.5" fill="var(--mw-icon-background-default-dark-gray, #A6A6A6)"/>
<path d="M2.5 14.5H16.5M2.5 16.5H11.5" stroke="var(--mw-icon-glyph-content-gray, #616162)" stroke-linecap="round"/>
<path d="M2 11.5C2 11.2239 2.22386 11 2.5 11H7.5C7.77614 11 8 11.2239 8 11.5V12.5C8 12.7761 7.77614 13 7.5 13H2.5C2.22386 13 2 12.7761 2 12.5V11.5Z" fill="var(--mw-icon-glyph-content-gray, #616162)"/>
<path d="M2 20.5C2 20.2239 2.22386 20 2.5 20H7.5C7.77614 20 8 20.2239 8 20.5V21.5C8 21.7761 7.77614 22 7.5 22H2.5C2.22386 22 2 21.7761 2 21.5V20.5Z" fill="var(--mw-icon-background-default-dark-gray, #A6A6A6)"/>
</svg>
