<svg width="24" height="24" viewBox="0 0 24 24" fill="none" xmlns="http://www.w3.org/2000/svg">
<path d="M20.5 0.5H3.5C2.94772 0.5 2.5 0.947715 2.5 1.5V22.5C2.5 23.0523 2.94771 23.5 3.5 23.5H20.5C21.0523 23.5 21.5 23.0523 21.5 22.5V1.5C21.5 0.947715 21.0523 0.5 20.5 0.5Z" fill="var(--mw-icon-background-default-white, #FFFFFF)" stroke="var(--mw-icon-border-default-gray, #616161)" stroke-linecap="round"/>
<path d="M5.5 15C5.5 14.7239 5.72386 14.5 6 14.5H18C18.2761 14.5 18.5 14.7239 18.5 15V20C18.5 20.2761 18.2761 20.5 18 20.5H6C5.72386 20.5 5.5 20.2761 5.5 20V15Z" fill="var(--mw-icon-background-default-selection, #B4DEFF)" stroke="var(--mw-icon-glyph-content-light-blue, #278CDD)"/>
<path fill-rule="evenodd" clip-rule="evenodd" d="M8.53018 5.25424H9.77483C10.0395 4.41409 10.2728 3.71161 10.7063 3.10306C11.128 2.50755 11.7333 2 12.645 2C13.0079 2 13.3427 2.09457 13.5938 2.27166C13.8478 2.45076 14.0207 2.72024 14.0207 3.04705C14.0207 3.45831 13.6699 3.84678 13.2261 3.84678C12.8674 3.84678 12.4974 3.55542 12.4974 3.09912C12.4974 2.94965 12.5396 2.84341 12.5802 2.76637L12.579 2.76637C12.3341 2.76637 12.0923 2.90696 11.8507 3.3533C11.63 3.76098 11.435 4.38213 11.2588 5.25424H12.6708L12.6184 5.52959L12.7663 5.47658C13.5756 5.18892 14.0449 5.08502 14.3924 5.08502C14.504 5.08502 14.6188 5.10503 14.7279 5.16586C14.8366 5.22652 14.9205 5.3171 14.9881 5.42715C15.1165 5.63598 15.2086 5.95396 15.3008 6.39481L15.3419 6.58758C15.6613 6.13301 15.9334 5.79545 16.186 5.55842C16.5256 5.23968 16.8489 5.08502 17.2185 5.08502C17.4257 5.08502 17.6206 5.14917 17.7671 5.2786C17.9159 5.4101 18 5.59671 18 5.80664C18 5.99813 17.9345 6.1768 17.8081 6.3092C17.6809 6.44243 17.5046 6.51525 17.311 6.51525C17.1282 6.51525 16.9881 6.43704 16.8985 6.38698C16.8909 6.38275 16.8837 6.37872 16.8768 6.37496C16.7867 6.32546 16.7238 6.2961 16.6343 6.29408C16.6292 6.29641 16.6033 6.30681 16.553 6.34685C16.4842 6.40165 16.3964 6.49054 16.2912 6.61824C16.0904 6.86184 15.8465 7.22201 15.5738 7.68744C15.5825 7.77027 15.6081 7.91825 15.6684 8.15577L15.669 8.15826L16.0909 9.90005L16.0913 9.90126C16.1351 10.0737 16.1787 10.1707 16.2153 10.2207C16.2409 10.2556 16.2506 10.2535 16.2538 10.2529C16.2657 10.2529 16.2931 10.2528 16.3599 10.196C16.4347 10.1324 16.5335 10.0204 16.6849 9.82575C16.7237 9.77478 16.7565 9.7306 16.7874 9.68902C16.845 9.61146 16.8959 9.54296 16.9662 9.45635L17.0966 9.29568L17.6889 9.64596L17.5515 9.85608C17.1688 10.4414 16.8772 10.8357 16.6084 11.0827C16.3254 11.3428 16.0577 11.4487 15.7395 11.4487C15.4761 11.4487 15.248 11.3719 15.07 11.168C14.9078 10.9822 14.8081 10.7127 14.7272 10.3807L14.4657 9.32315L13.6066 10.4683C13.313 10.8563 13.0814 11.1054 12.8557 11.2544C12.6149 11.4133 12.396 11.4487 12.1606 11.4487C11.9178 11.4487 11.6927 11.387 11.5238 11.247C11.3495 11.1026 11.2603 10.8954 11.2603 10.662C11.2603 10.2842 11.538 9.95336 11.9493 9.95336C12.1326 9.95336 12.3108 10.0324 12.4844 10.1246L12.4942 10.1297C12.5456 10.1602 12.5957 10.1824 12.6383 10.1964C12.6682 10.2062 12.6898 10.2106 12.7026 10.2125C12.7064 10.2106 12.7116 10.2078 12.7183 10.2037C12.7465 10.1867 12.7861 10.1561 12.8365 10.1079C12.937 10.0117 13.0591 9.8655 13.1931 9.6769L14.2136 8.25399L13.8683 6.74708C13.8226 6.55405 13.784 6.40886 13.7477 6.29983C13.7108 6.18893 13.6805 6.12852 13.6567 6.09495C13.6374 6.0676 13.626 6.06273 13.6176 6.05955C13.601 6.05326 13.5684 6.04664 13.4944 6.04664C13.4213 6.04664 13.2881 6.06569 13.0412 6.12967L12.5544 6.26294L12.5167 6.06449L12.5003 6.15078H11.0667L10.1585 10.1296C9.87809 11.347 9.50917 12.3034 9.04217 12.9602C8.57114 13.6227 7.98423 14 7.28329 14C6.62212 14 6 13.6114 6 12.966C6 12.5546 6.31227 12.1793 6.74183 12.1793C6.95014 12.1793 7.13823 12.2517 7.27513 12.3866C7.41175 12.5213 7.48367 12.7048 7.48367 12.9009C7.48367 13.0489 7.42816 13.1525 7.39567 13.213C7.38819 13.2269 7.3825 13.2378 7.37818 13.2463C7.38146 13.2465 7.38504 13.2466 7.38894 13.2466C7.54603 13.2466 7.72594 13.1525 7.91827 12.8351C8.11067 12.5175 8.28542 12.021 8.43526 11.3276L9.5357 6.15078H8.33121L8.53018 5.25424Z" fill="var(--mw-icon-glyph-content-gray, #616162)"/>
</svg>
