<svg width="24" height="24" viewBox="0 0 24 24" fill="none" xmlns="http://www.w3.org/2000/svg">
<path d="M20.5 0.5H3.5C2.94772 0.5 2.5 0.947715 2.5 1.5V22.5C2.5 23.0523 2.94771 23.5 3.5 23.5H20.5C21.0523 23.5 21.5 23.0523 21.5 22.5V1.5C21.5 0.947715 21.0523 0.5 20.5 0.5Z" fill="var(--mw-icon-background-default-white, #FFFFFF)" stroke="var(--mw-icon-border-default-gray, #616161)" stroke-linecap="round"/>
<path d="M13.5 4C13.5 3.72386 13.7239 3.5 14 3.5H18C18.2761 3.5 18.5 3.72386 18.5 4V8C18.5 8.27614 18.2761 8.5 18 8.5H14C13.7239 8.5 13.5 8.27614 13.5 8V4Z" fill="var(--mw-icon-background-default-selection, #B4DEFF)"/>
<path d="M13.5 12C13.5 11.7239 13.7239 11.5 14 11.5H18C18.2761 11.5 18.5 11.7239 18.5 12V16C18.5 16.2761 18.2761 16.5 18 16.5H14C13.7239 16.5 13.5 16.2761 13.5 16V12Z" fill="var(--mw-icon-background-default-selection, #B4DEFF)"/>
<path d="M13.5 4C13.5 3.72386 13.7239 3.5 14 3.5H18C18.2761 3.5 18.5 3.72386 18.5 4V8C18.5 8.27614 18.2761 8.5 18 8.5H14C13.7239 8.5 13.5 8.27614 13.5 8V4Z" stroke="var(--mw-icon-glyph-content-light-blue, #278CDD)"/>
<path d="M13.5 12C13.5 11.7239 13.7239 11.5 14 11.5H18C18.2761 11.5 18.5 11.7239 18.5 12V16C18.5 16.2761 18.2761 16.5 18 16.5H14C13.7239 16.5 13.5 16.2761 13.5 16V12Z" stroke="var(--mw-icon-glyph-content-light-blue, #278CDD)"/>
<path d="M7.5 6.5H10.5M5.5 9.5H8.5M7.5 12.5H10.5M5.5 15.5H8.5M7.5 18.5H10.5" stroke="var(--mw-icon-glyph-content-gray, #616162)" stroke-linecap="round"/>
<path d="M5.5 3.5H8.5" stroke="var(--mw-icon-glyph-content-red, #902623)" stroke-linecap="round"/>
</svg>
