<svg width="24" height="24" viewBox="0 0 24 24" fill="none" xmlns="http://www.w3.org/2000/svg">
<path d="M20.5 0.5H3.5C2.94772 0.5 2.5 0.947715 2.5 1.5V22.5C2.5 23.0523 2.94771 23.5 3.5 23.5H20.5C21.0523 23.5 21.5 23.0523 21.5 22.5V1.5C21.5 0.947715 21.0523 0.5 20.5 0.5Z" fill="var(--mw-icon-background-default-white, #FFFFFF)" stroke="var(--mw-icon-border-default-gray, #616161)" stroke-linecap="round"/>
<path d="M5.5 12C5.5 11.7239 5.72386 11.5 6 11.5H18C18.2761 11.5 18.5 11.7239 18.5 12V20C18.5 20.2761 18.2761 20.5 18 20.5H6C5.72386 20.5 5.5 20.2761 5.5 20V12Z" fill="var(--mw-icon-background-default-selection, #B4DEFF)" stroke="var(--mw-icon-glyph-content-light-blue, #278CDD)"/>
<path d="M6 7H18" stroke="var(--mw-icon-glyph-disabled-gray, #888889)" stroke-width="2" stroke-linecap="round" stroke-linejoin="round"/>
<path d="M13.5 5.5H15.5V8.5L14.5 9.5L13.5 8.5V5.5Z" fill="white" stroke="var(--mw-icon-glyph-content-gray, #616162)"/>
<path d="M5.5 3.5H8.5" stroke="var(--mw-icon-glyph-content-red, #902623)" stroke-linecap="round"/>
</svg>
