<svg width="24" height="24" viewBox="0 0 24 24" fill="none" xmlns="http://www.w3.org/2000/svg">
<path d="M21.5 0.5H1.5C0.947715 0.5 0.5 0.947716 0.5 1.5V21.5C0.5 22.0523 0.947716 22.5 1.5 22.5H21.5C22.0523 22.5 22.5 22.0523 22.5 21.5V1.5C22.5 0.947715 22.0523 0.5 21.5 0.5Z" fill="var(--mw-icon-background-default-white, #FFFFFF)" stroke="var(--mw-icon-border-default-gray, #616161)" stroke-linecap="round"/>
<path d="M22.0217 1.47827V15.3261C20.1087 8.63045 16.2826 8.63045 14.3696 15.3261C11.5 2.89131 3.84784 2.89131 0.978271 15.3261V1.47827C0.978271 1.20213 1.20213 0.978271 1.47827 0.978271H21.5217C21.7979 0.978271 22.0217 1.20213 22.0217 1.47827Z" fill="var(--mw-icon-glyph-content-gray, #616162)"/>
<path d="M3.5 5.00001C3.5 4.72387 3.72386 4.50001 4 4.50001L16 4.5C16.2761 4.5 16.5 4.72386 16.5 5V15.5C16.5 15.7762 16.2761 16 16 16H4C3.72386 16 3.5 15.7762 3.5 15.5V5.00001Z" fill="var(--mw-icon-background-red, #FF9D9A)" stroke="var(--mw-icon-glyph-content-red, #902623)"/>
<path d="M14.5 15.5C12.5 6.00004 6.5 4 3.5 9.50003V17.5H16.5V11.5L14.5 15.5Z" fill="var(--mw-icon-background-default-action, #CBFFBE)" stroke="var(--mw-icon-glyph-content-green, #008014)" stroke-linecap="round" stroke-linejoin="round"/>
</svg>
