<svg width="24" height="24" viewBox="0 0 24 24" fill="none" xmlns="http://www.w3.org/2000/svg">
<rect x="0.5" y="0.5" width="18" height="18" rx="9" fill="var(--mw-icon-background-default-selection, #B4DEFF)" stroke="var(--mw-icon-glyph-content-blue, #1656A8)"/>
<path d="M0.75 9.5H18.25M9.5 0.75L9.5 18.25M14 9.5C14 14.4706 11.9853 18.5 9.5 18.5C7.01472 18.5 5 14.4706 5 9.5C5 4.52944 7.01472 0.5 9.5 0.5C11.9853 0.5 14 4.52944 14 9.5ZM9.5 14C4.52944 14 0.5 11.9853 0.5 9.5C0.5 7.01472 4.52944 5 9.5 5C14.4706 5 18.5 7.01472 18.5 9.5C18.5 11.9853 14.4706 14 9.5 14Z" stroke="var(--mw-icon-glyph-content-blue, #1656A8)"/>
<path d="M20.4985 13.4395C20.4985 15.6152 16.4985 22.5001 16.4985 22.5001C16.4985 22.5001 12.4985 15.6152 12.4985 13.4395C12.4985 11.2638 14.2894 9.50012 16.4985 9.50012C18.7077 9.50012 20.4985 11.2638 20.4985 13.4395Z" fill="#FFAB66" stroke="#823400" stroke-linejoin="round"/>
<circle cx="16.4985" cy="13.5001" r="1.5" fill="#823400"/>
</svg>
