<svg width="24" height="25" viewBox="0 0 24 25" fill="none" xmlns="http://www.w3.org/2000/svg">
<path d="M0.500122 3.40012C0.500122 2.29555 1.39555 1.40012 2.50012 1.40012H20.5001C21.6047 1.40012 22.5001 2.29555 22.5001 3.40012V21.4001C22.5001 22.5047 21.6047 23.4001 20.5001 23.4001H2.50012C1.39555 23.4001 0.500122 22.5047 0.500122 21.4001V3.40012Z" fill="var(--mw-icon-background-default-white, #FFFFFF)" stroke="var(--mw-icon-border-default-blue, #1656A7)"/>
<ellipse cx="11.5001" cy="17.4001" rx="5" ry="2" stroke="var(--mw-icon-glyph-content-light-blue, #278CDD)"/>
<ellipse cx="11.5001" cy="17.4001" rx="1.5" ry="0.5" fill="var(--mw-icon-glyph-content-blue, #1656A8)"/>
<path d="M4.50012 19.4001C4.50012 19.4001 2.50012 18.5047 2.50012 17.4001C2.50012 16.2955 4.50012 15.4001 4.50012 15.4001M18.5001 15.4001C18.5001 15.4001 20.5001 16.2955 20.5001 17.4001C20.5001 18.5047 18.5001 19.4001 18.5001 19.4001" stroke="var(--mw-icon-background-medium-blue, #83CAFF)" stroke-linecap="round"/>
<path d="M15.5004 8.23963C15.5004 10.4153 11.5004 17.3002 11.5004 17.3002C11.5004 17.3002 7.50037 10.4153 7.50037 8.23963C7.50037 6.06396 9.29123 4.30023 11.5004 4.30023C13.7095 4.30023 15.5004 6.06396 15.5004 8.23963Z" fill="#FFAB66" stroke="#A24302" stroke-linejoin="round"/>
<circle cx="11.4999" cy="8.40015" r="1" fill="white" stroke="#823400"/>
</svg>
