<svg width="24" height="24" viewBox="0 0 24 24" fill="none" xmlns="http://www.w3.org/2000/svg">
<path d="M16.5 0.5H2.5C1.39543 0.5 0.5 1.39543 0.5 2.5V16.5C0.5 17.6046 1.39543 18.5 2.5 18.5H16.5C17.6046 18.5 18.5 17.6046 18.5 16.5V2.5C18.5 1.39543 17.6046 0.5 16.5 0.5Z" fill="var(--mw-icon-background-default-white, #FFFFFF)" stroke="var(--mw-icon-border-default-gray, #616161)" stroke-linecap="round"/>
<path fill-rule="evenodd" clip-rule="evenodd" d="M9.50004 5C5.75002 5 2 8.37521 2 9.50025C2.00117 10.6264 5.75064 14 9.50007 14C13.2501 14 17 10.6253 17 9.49969C16.9988 8.37407 13.2494 5 9.50004 5ZM9.5 13C11.433 13 13 11.433 13 9.5C13 7.567 11.433 6 9.5 6C7.567 6 6 7.567 6 9.5C6 11.433 7.567 13 9.5 13Z" fill="var(--mw-icon-object-primary, #616160)"/>
<path d="M12 9.5C12 10.8807 10.8807 12 9.5 12C8.11929 12 7 10.8807 7 9.5C7 8.11929 8.11929 7 9.5 7C10.8807 7 12 8.11929 12 9.5Z" fill="var(--mw-icon-object-primary, #616160)"/>
<path d="M9.5 22.5V10.5C9.5 9.94772 9.94772 9.5 10.5 9.5H22.5C23.0523 9.5 23.5 9.94772 23.5 10.5V22.5C23.5 23.0523 23.0523 23.5 22.5 23.5H10.5C9.94772 23.5 9.5 23.0523 9.5 22.5Z" fill="white" stroke="var(--mw-icon-border-default-gray, #616161)" stroke-linecap="square"/>
<path d="M13 15.5C13 15.2239 13.2239 15 13.5 15H19.5C19.7761 15 20 15.2239 20 15.5V20.5C20 20.7761 19.7761 21 19.5 21H13.5C13.2239 21 13 20.7761 13 20.5V15.5Z" fill="var(--mw-icon-glyph-content-gray, #616162)"/>
<path fill-rule="evenodd" clip-rule="evenodd" d="M15 17H18V18H17V19H16V18H15V17Z" fill="white"/>
<path d="M14.5 15V13.5C14.5 12.3954 15.3954 11.5 16.5 11.5V11.5C17.6046 11.5 18.5 12.3954 18.5 13.5V15" stroke="var(--mw-icon-glyph-content-gray, #616162)"/>
</svg>
