<svg width="24" height="24" viewBox="0 0 24 24" fill="none" xmlns="http://www.w3.org/2000/svg">
<path d="M0.5 17V6L11.5 0.5L22.5 6V17L11.5 22.5L0.5 17Z" fill="var(--mw-icon-background-default-white, #FFFFFF)"/>
<path d="M11.5 11.5V0.5L0.5 6V17L11.5 11.5Z" fill="var(--mw-icon-background-default-medium-gray, #D9D9D9)"/>
<path d="M11.5 11.5V0.5L22.5 6V17L11.5 11.5Z" fill="var(--mw-icon-background-default-light-gray, #F5F5F5)"/>
<path d="M8.5 9.5L12.5 7.5L18.5 11.5L15.5 14.5L13.5 17.5L9.5 14.5H3.5L6.5 11.5L8.5 9.5Z" fill="var(--mw-icon-background-default-selection, #B4DEFF)"/>
<path d="M8 9.99999L3.5 14.5H9.5L11.5 15.5C12 14 12.4 11.8 12 11C11.6 10.2 9 9.83333 8 9.99999Z" fill="var(--mw-icon-background-default-action, #CBFFBE)"/>
<path d="M6.5 11.5L3.5 14.5H9.5C9.5 14.1667 9.4 13.3 9 12.5C8.6 11.7 7.16667 11.5 6.5 11.5Z" fill="var(--mw-icon-background-medium-yellow, #FFEF91)"/>
<path d="M12.5 7.5L8.5 9.5L6.5 11.5M12.5 7.5L18.5 11.5L15.5 14.5M12.5 7.5L10.5 11.5M9.5 14.5H3.5L6.5 11.5M9.5 14.5L13.5 17.5L15.5 14.5M9.5 14.5L10.5 11.5M10.5 11.5H6.5M10.5 11.5L15.5 14.5" stroke="var(--mw-icon-glyph-content-light-blue, #278CDD)" stroke-linecap="round" stroke-linejoin="round"/>
<path d="M3 11C3 10.4477 3.44772 10 4 10C4.55228 10 5 10.4477 5 11C5 11.5523 4.55228 12 4 12C3.44772 12 3 11.5523 3 11Z" fill="var(--mw-icon-glyph-content-dark-gray, #333333)"/>
<path d="M7 13C7 12.4477 7.44772 12 8 12C8.55228 12 9 12.4477 9 13C9 13.5523 8.55228 14 8 14C7.44772 14 7 13.5523 7 13Z" fill="var(--mw-icon-glyph-content-dark-gray, #333333)"/>
<path d="M5 9C5 8.44772 5.44772 8 6 8C6.55228 8 7 8.44772 7 9C7 9.55228 6.55228 10 6 10C5.44772 10 5 9.55228 5 9Z" fill="var(--mw-icon-glyph-content-dark-gray, #333333)"/>
<path d="M12 15C12 14.4477 12.4477 14 13 14C13.5523 14 14 14.4477 14 15C14 15.5523 13.5523 16 13 16C12.4477 16 12 15.5523 12 15Z" fill="var(--mw-icon-glyph-content-dark-gray, #333333)"/>
<path d="M11 19C11 18.4477 11.4477 18 12 18C12.5523 18 13 18.4477 13 19C13 19.5523 12.5523 20 12 20C11.4477 20 11 19.5523 11 19Z" fill="var(--mw-icon-glyph-content-dark-gray, #333333)"/>
<path d="M8 18C8 17.4477 8.44772 17 9 17C9.55228 17 10 17.4477 10 18C10 18.5523 9.55228 19 9 19C8.44772 19 8 18.5523 8 18Z" fill="var(--mw-icon-glyph-content-dark-gray, #333333)"/>
<path d="M5 17C5 16.4477 5.44772 16 6 16C6.55228 16 7 16.4477 7 17C7 17.5523 6.55228 18 6 18C5.44772 18 5 17.5523 5 17Z" fill="var(--mw-icon-glyph-content-dark-gray, #333333)"/>
<path d="M15 18C15 17.4477 15.4477 17 16 17C16.5523 17 17 17.4477 17 18C17 18.5523 16.5523 19 16 19C15.4477 19 15 18.5523 15 18Z" fill="var(--mw-icon-glyph-content-dark-gray, #333333)"/>
<path d="M11 5C11 4.44772 11.4477 4 12 4C12.5523 4 13 4.44772 13 5C13 5.55228 12.5523 6 12 6C11.4477 6 11 5.55228 11 5Z" fill="var(--mw-icon-glyph-content-dark-gray, #333333)"/>
<path d="M15 9C15 8.44772 15.4477 8 16 8C16.5523 8 17 8.44772 17 9C17 9.55228 16.5523 10 16 10C15.4477 10 15 9.55228 15 9Z" fill="var(--mw-icon-glyph-content-dark-gray, #333333)"/>
<path d="M8 7C8 6.44772 8.44772 6 9 6C9.55228 6 10 6.44772 10 7C10 7.55228 9.55228 8 9 8C8.44772 8 8 7.55228 8 7Z" fill="var(--mw-icon-glyph-content-dark-gray, #333333)"/>
<path d="M19 10C19 9.44772 19.4477 9 20 9C20.5523 9 21 9.44772 21 10C21 10.5523 20.5523 11 20 11C19.4477 11 19 10.5523 19 10Z" fill="var(--mw-icon-glyph-content-dark-gray, #333333)"/>
<path d="M13 11C13 10.4477 13.4477 10 14 10C14.5523 10 15 10.4477 15 11C15 11.5523 14.5523 12 14 12C13.4477 12 13 11.5523 13 11Z" fill="var(--mw-icon-glyph-content-dark-gray, #333333)"/>
<path d="M0.5 6L11.5 0.5L22.5 6V17" stroke="var(--mw-icon-background-default-dark-gray, #A6A6A6)" stroke-linecap="round" stroke-linejoin="round"/>
<path d="M0.5 6V17L11.5 22.5L22.5 17" stroke="var(--mw-icon-border-default-gray, #616161)" stroke-linecap="round" stroke-linejoin="round"/>
</svg>
