<svg width="24" height="24" viewBox="0 0 24 24" fill="none" xmlns="http://www.w3.org/2000/svg">
<path d="M0.5 18.5V4.5C0.5 2.29086 2.29086 0.5 4.5 0.5H18.5C20.7091 0.5 22.5 2.29086 22.5 4.5V18.5C22.5 20.7091 20.7091 22.5 18.5 22.5H4.5C2.29086 22.5 0.5 20.7091 0.5 18.5Z" fill="var(--mw-icon-background-default-white, white)"/>
<path d="M18 6.05994C18 6.30732 18 7.27783 17.0167 7.3254C16.0334 7.37298 16.0334 6.28829 16.0334 6.06946C16.0541 5.41997 15.8451 4.78309 15.4411 4.26408C15.037 3.74508 14.4621 3.375 13.8112 3.21503C12.9079 2.94883 11.9418 2.95856 11.0444 3.2429C10.147 3.52724 9.36208 4.07236 8.79646 4.80399C9.29504 3.83877 10.0988 3.0526 11.0908 2.55979C12.0829 2.06697 13.2116 1.8932 14.3127 2.06374C15.3253 2.17982 16.2592 2.65017 16.9383 3.38622C17.6175 4.12227 17.9951 5.07321 18 6.05994ZM15.2468 7.27783C15.2468 7.45861 15.2468 8.2293 14.47 8.2293C13.6932 8.2293 13.762 7.44909 13.7719 7.27783C13.8068 6.79892 13.6705 6.32296 13.3858 5.92974C13.1012 5.53651 12.6855 5.24991 12.2085 5.11798C11.5386 4.895 10.8138 4.87868 10.1339 5.07126C9.45411 5.26384 8.8528 5.65583 8.41298 6.19315C8.8115 5.49538 9.42641 4.93632 10.1709 4.59489C10.9154 4.25345 11.752 4.14688 12.5624 4.2902C13.307 4.39118 13.9888 4.74917 14.4821 5.29821C14.9754 5.84724 15.247 6.5503 15.2468 7.27783ZM12.5821 9C11.9626 9 12.0315 8.43863 12.0315 8.31494C12.0301 7.95739 11.9041 7.61073 11.674 7.33102C11.4438 7.05132 11.1228 6.8549 10.763 6.77355C10.2572 6.64003 9.7212 6.65964 9.22722 6.82975C8.73324 6.99986 8.30496 7.31229 8 7.72502C8.26855 7.18821 8.70412 6.74627 9.24554 6.46128C9.78696 6.17628 10.407 6.06255 11.0187 6.13606C11.5834 6.1849 12.1098 6.43292 12.4978 6.83293C12.8858 7.23293 13.1083 7.757 13.1229 8.30542C13.1229 8.4196 13.1917 8.96194 12.5821 9Z" fill="#EC1944"/>
<path d="M12.305 18.7526L11.6375 18.8825C11.2192 18.9517 10.7962 18.9884 10.3723 18.9924C9.84476 19.0257 9.31734 18.926 8.83803 18.7026C8.49861 18.508 8.23779 18.2005 8.10081 17.8332C7.90918 17.2196 7.82821 16.5766 7.86171 15.9345V13.1764H7.03482V10.9979H7.86171V9.53893L10.6612 8V10.9979H12.2054V13.1964H10.6612V15.9945C10.6431 16.2182 10.6737 16.4433 10.7508 16.654C10.8008 16.7373 10.873 16.8048 10.9593 16.849C11.0456 16.8931 11.1425 16.9121 11.239 16.9038C11.5328 16.8863 11.822 16.8222 12.0958 16.714H12.2253C12.3145 17.0614 12.4449 17.3969 12.6138 17.7133C12.7862 17.9844 12.9794 18.2417 13.1917 18.4827C12.9044 18.5982 12.6078 18.6885 12.305 18.7526ZM17.0372 13.6461C16.9151 13.5287 16.7693 13.4391 16.6096 13.3834C16.4499 13.3276 16.28 13.3072 16.1117 13.3233C15.9434 13.3394 15.7805 13.3918 15.6342 13.4768C15.4878 13.5618 15.3615 13.6775 15.2639 13.816C15.1195 14.049 15.0309 14.3123 15.0048 14.5854H17.4456C17.4061 14.2384 17.2638 13.9113 17.0372 13.6461ZM19.9363 15.8546V15.9945V16.0644H14.955C14.9769 16.3832 15.0836 16.6903 15.2639 16.9538C15.3742 17.0968 15.5163 17.212 15.6789 17.2901C15.8415 17.3682 16.0201 17.407 16.2003 17.4035C16.4467 17.4022 16.6879 17.333 16.8977 17.2036C17.067 17.0857 17.2124 16.9364 17.3261 16.7639L17.4158 16.604H19.8566V16.7639C19.6167 17.5099 19.1137 18.1424 18.4419 18.5427C17.7383 18.8826 16.9601 19.0374 16.1804 18.9924C15.495 19.0203 14.8126 18.8868 14.1879 18.6027C13.6696 18.3191 13.2467 17.8879 12.9725 17.3635C12.6395 16.7515 12.4745 16.0618 12.4943 15.3649C12.477 14.8823 12.5563 14.4011 12.7274 13.9497C12.8985 13.4984 13.158 13.0859 13.4905 12.7367C13.844 12.3932 14.2647 12.1271 14.726 11.9551C15.1873 11.783 15.6791 11.7089 16.1704 11.7374C16.9239 11.7004 17.6744 11.8551 18.3522 12.1871C18.8845 12.4876 19.3121 12.9445 19.5776 13.4962C19.8832 14.1978 20.0262 14.9597 19.9961 15.7246V15.8046L19.9363 15.8546ZM3 18.8525V9.89868H5.90905L5.79947 16.7939H7.48313C7.50312 17.1683 7.55984 17.5399 7.65249 17.9031C7.77293 18.2516 7.97843 18.5642 8.25025 18.8125L3 18.8525Z" fill="black"/>
<path d="M0.5 18.5V4.5C0.5 2.29086 2.29086 0.5 4.5 0.5H18.5C20.7091 0.5 22.5 2.29086 22.5 4.5V18.5C22.5 20.7091 20.7091 22.5 18.5 22.5H4.5C2.29086 22.5 0.5 20.7091 0.5 18.5Z" stroke="var(--mw-icon-border-default-gray, #616161)" stroke-linecap="round"/>

</svg>
