<svg width="24" height="24" viewBox="0 0 24 24" fill="none" xmlns="http://www.w3.org/2000/svg">
<path d="M18.5 0.5H4.5C2.29086 0.5 0.5 2.29086 0.5 4.5V18.5C0.5 20.7091 2.29086 22.5 4.5 22.5H18.5C20.7091 22.5 22.5 20.7091 22.5 18.5V4.5C22.5 2.29086 20.7091 0.5 18.5 0.5Z" fill="#F5FAFF" stroke="var(--mw-icon-border-default-blue, #1656A7)" stroke-linecap="round"/>
<path d="M5.54727 4H7.22498L11.5045 17.044L15.775 4H17.4617L12.1504 20H10.8406L5.54727 4ZM5 4H6.48033L6.72257 13.7582V20H5V4ZM16.5197 4H18V20H16.2774V13.7582L16.5197 4Z" fill="var(--mw-icon-glyph-content-dark-blue, #104280)"/>
</svg>
