<svg width="24" height="24" viewBox="0 0 24 24" fill="none" xmlns="http://www.w3.org/2000/svg">
<path d="M7.5 19.5L4.5 16.5L13.5 7.5L16.5 10.5L7.5 19.5Z" fill="var(--mw-icon-background-default-white, #FFFFFF)" stroke="var(--mw-icon-border-default-blue, #1656A7)" stroke-linejoin="round"/>
<path d="M7.5 19.5L3.5 23.5L0.5 20.5L4.5 16.5L7.5 19.5Z" fill="var(--mw-icon-background-medium-blue, #83CAFF)" stroke="var(--mw-icon-border-default-blue, #1656A7)" stroke-linejoin="round"/>
<path d="M18.5 3.5L19.5 0.5L20.5 3.5L23.5 4.5L20.5 5.5L19.5 8.5L18.5 5.5L15.5 4.5L18.5 3.5Z" fill="var(--mw-icon-background-medium-yellow, #FFEF91)" stroke="#674C06" stroke-linejoin="round"/>
<path d="M8.5 3.5L9.5 1.5L10.5 3.5L12.5 4.5L10.5 5.5L9.5 7.5L8.5 5.5L6.5 4.5L8.5 3.5Z" fill="var(--mw-icon-background-medium-yellow, #FFEF91)" stroke="#674C06" stroke-linejoin="round"/>
<path d="M18.5 13.5L19.5 11.5L20.5 13.5L22.5 14.5L20.5 15.5L19.5 17.5L18.5 15.5L16.5 14.5L18.5 13.5Z" fill="var(--mw-icon-background-medium-yellow, #FFEF91)" stroke="#674C06" stroke-linejoin="round"/>
</svg>
