<svg width="24" height="24" viewBox="0 0 24 24" fill="none" xmlns="http://www.w3.org/2000/svg">
<path d="M0.5 18.5V4.5C0.5 2.29086 2.29086 0.5 4.5 0.5H18.5C20.7091 0.5 22.5 2.29086 22.5 4.5V18.5C22.5 20.7091 20.7091 22.5 18.5 22.5H4.5C2.29086 22.5 0.5 20.7091 0.5 18.5Z" fill="var(--mw-icon-background-default-white, #FFFFFF)" stroke="var(--mw-icon-border-default-blue, #1656A7)" stroke-linecap="round"/>
<path d="M11.4999 18.3608V12.9323L16.4999 15.6465V21.0751L11.4999 18.3608Z" fill="var(--mw-icon-glyph-content-blue, #1656A8)"/>
<path d="M21.5 18.3608V12.9323L16.4999 15.6465V21.0751L21.5 18.3608Z" fill="var(--mw-icon-glyph-content-blue, #1656A8)"/>
<path d="M21.5 12.9323L16.5 10.2177L11.4999 12.9323L16.4999 15.6465L21.5 12.9323Z" fill="var(--mw-icon-glyph-content-blue, #1656A8)"/>
<path d="M1.5 18.3608V12.9323L6.5 15.6465V21.0751L1.5 18.3608Z" fill="var(--mw-icon-glyph-content-blue, #1656A8)"/>
<path d="M11.4999 18.3608V12.9323L6.5 15.6465V21.0751L11.4999 18.3608Z" fill="var(--mw-icon-glyph-content-blue, #1656A8)"/>
<path d="M11.4999 12.9323L6.5 10.2177L1.5 12.9323L6.5 15.6465L11.4999 12.9323Z" fill="var(--mw-icon-glyph-content-blue, #1656A8)"/>
<path d="M6.5 10.2177L6.49997 4.78928L11.5 7.50356L11.4999 12.9323L6.5 10.2177Z" fill="var(--mw-icon-glyph-content-blue, #1656A8)"/>
<path d="M16.5 10.2177L16.4999 4.78928L11.5 7.50356L11.4999 12.9323L16.5 10.2177Z" fill="var(--mw-icon-glyph-content-blue, #1656A8)"/>
<path d="M16.4999 4.78928L11.5 2.07495L6.49997 4.78928L11.5 7.50356L16.4999 4.78928Z" fill="var(--mw-icon-glyph-content-blue, #1656A8)"/>
<path d="M11.4999 18.3608V12.9323M11.4999 18.3608L16.4999 21.0751M11.4999 18.3608L6.5 21.0751M11.4999 12.9323L16.4999 15.6465M11.4999 12.9323L16.5 10.2177M11.4999 12.9323L6.5 15.6465M11.4999 12.9323L6.5 10.2177M11.4999 12.9323L11.5 7.50356M16.4999 15.6465V21.0751M16.4999 15.6465L21.5 12.9323M16.4999 21.0751L21.5 18.3608V12.9323M21.5 12.9323L16.5 10.2177M16.5 10.2177L16.4999 4.78928M1.5 12.9323V18.3608L6.5 21.0751M1.5 12.9323L6.5 15.6465M1.5 12.9323L6.5 10.2177M6.5 15.6465V21.0751M6.5 10.2177L6.49997 4.78928M6.49997 4.78928L11.5 7.50356M6.49997 4.78928L11.5 2.07495L16.4999 4.78928M11.5 7.50356L16.4999 4.78928" stroke="var(--mw-icon-background-default-white, #FFFFFF)" stroke-linecap="round" stroke-linejoin="round"/>
</svg>
