<svg width="24" height="24" viewBox="0 0 24 24" fill="none" xmlns="http://www.w3.org/2000/svg">
<rect x="0.5" y="0.5" width="22" height="22" rx="1.5" fill="var(--mw-icon-background-default-white, #FFFFFF)" stroke="var(--mw-icon-border-default-gray, #616161)"/>
<path d="M7.5 18.5H15.5" stroke="#1171BE" stroke-linecap="round"/>
<path d="M7.5 4.5H11.5V11.5H15.5" stroke="#DD5400" stroke-linecap="round" stroke-linejoin="round"/>
<rect x="3.5" y="2.5" width="4" height="4" stroke="var(--mw-icon-border-default-gray, #616161)" stroke-linejoin="round"/>
<rect x="15.5" y="2.5" width="4" height="4" stroke="var(--mw-icon-border-default-gray, #616161)" stroke-linejoin="round"/>
<rect x="3.5" y="9.5" width="4" height="4" stroke="var(--mw-icon-border-default-gray, #616161)" stroke-linejoin="round"/>
<rect x="15.5" y="9.5" width="4" height="4" stroke="var(--mw-icon-border-default-gray, #616161)" stroke-linejoin="round"/>
<rect x="3.5" y="16.5" width="4" height="4" stroke="var(--mw-icon-border-default-gray, #616161)" stroke-linejoin="round"/>
<rect x="15.5" y="16.5" width="4" height="4" stroke="var(--mw-icon-border-default-gray, #616161)" stroke-linejoin="round"/>
<path d="M4 4.75L4.9 5.5L7 3.5" stroke="#DD5400" stroke-linecap="round" stroke-linejoin="round"/>
<path d="M4 18.75L4.9 19.5L7 17.5" stroke="#1171BE" stroke-linecap="round" stroke-linejoin="round"/>
<path d="M16 18.75L16.9 19.5L19 17.5" stroke="#1171BE" stroke-linecap="round" stroke-linejoin="round"/>
<path d="M16 11.75L16.9 12.5L19 10.5" stroke="#DD5400" stroke-linecap="round" stroke-linejoin="round"/>
</svg>
