<svg width="24" height="24" viewBox="0 0 24 24" fill="none" xmlns="http://www.w3.org/2000/svg">
<path d="M20.5 0.5H2.5C1.39543 0.5 0.5 1.39543 0.5 2.5V20.5C0.5 21.6046 1.39543 22.5 2.5 22.5H20.5C21.6046 22.5 22.5 21.6046 22.5 20.5V2.5C22.5 1.39543 21.6046 0.5 20.5 0.5Z" fill="var(--mw-icon-background-default-white, #FFFFFF)" stroke="var(--mw-icon-border-default-gray, #616161)" stroke-linecap="round"/>
<path d="M0.5 9.5H3.5L4.5 8.5L5.5 9.5H6.5L7.5 7.5L8.5 9.5H9.5L11.5 2.5L13.5 9.5H14.5L15.5 7.5L16.5 9.5H17.5L18.5 8.5L19.5 9.5H22.5" stroke="#0072BD" stroke-linejoin="round"/>
<path d="M0.5 20.5H2.5V14.5H5.5V20.5H8.5V15.5H11.5V20.5H14.5V13.5H17.5V20.5H22.5" stroke="#0072BD" stroke-linejoin="round"/>
<path d="M22.4999 11.5L0.499878 11.5" stroke="var(--mw-icon-border-default-gray, #616161)"/>
<path d="M20.5 0.5H2.5C1.39543 0.5 0.5 1.39543 0.5 2.5V20.5C0.5 21.6046 1.39543 22.5 2.5 22.5H20.5C21.6046 22.5 22.5 21.6046 22.5 20.5V2.5C22.5 1.39543 21.6046 0.5 20.5 0.5Z" stroke="var(--mw-icon-border-default-gray, #616161)" stroke-linecap="round"/>
</svg>
