<svg width="24" height="24" viewBox="0 0 24 24" fill="none" xmlns="http://www.w3.org/2000/svg">
<path d="M1 23H23V12V1H1V12V23Z" fill="var(--mw-icon-background-default-white, #FFFFFF)"/>
<path fill-rule="evenodd" clip-rule="evenodd" d="M14.5704 4.58023C14.2511 4.94747 13.9593 5.62199 13.7775 6.87393C13.7048 7.37497 13.4896 7.94055 13.2251 8.49456C12.9567 9.05687 12.6192 9.64462 12.2737 10.1986C11.5825 11.3068 10.8394 12.3109 10.5003 12.7567C10.1918 13.1623 9.56047 13.746 8.94378 14.2808C8.54605 14.6257 8.13375 14.9676 7.77686 15.2565C7.92197 15.3511 8.06251 15.4432 8.19683 15.532C9.07283 16.1114 9.72149 17.0409 10.2229 17.9114C10.477 18.3524 10.703 18.7962 10.9042 19.1923L10.9139 19.2115C11.0187 19.4179 11.1154 19.6083 11.2065 19.781C11.4477 19.6437 11.7435 19.4289 12.0712 19.1273C12.5892 18.6505 13.8185 17.1641 14.5621 16.1373C14.9978 15.5357 15.5998 15.0692 16.2056 14.7531C16.8059 14.4398 17.4576 14.2496 18.0147 14.2496C18.4762 14.2496 19.022 14.4557 19.4728 14.6673C18.7695 12.6252 17.8212 9.81454 17.4954 8.63763C17.2485 7.74614 16.8221 6.53338 16.3443 5.55381C16.1042 5.06143 15.8632 4.65342 15.6403 4.3772C15.5289 4.23916 15.4363 4.15217 15.3667 4.1035C15.3335 4.08026 15.3128 4.07076 15.3037 4.06722C15.2365 4.07204 15.0931 4.11933 14.8691 4.30108C14.8404 4.32434 14.8115 4.34893 14.7824 4.37476L14.7854 4.37875C14.7659 4.39329 14.7465 4.40871 14.7271 4.42507C14.6753 4.47326 14.6231 4.52513 14.5704 4.58023Z" fill="var(--mw-icon-background-default-medium-gray, #D9D9D9)" stroke="var(--mw-icon-background-default-medium-gray, #D9D9D9)" stroke-width="0.5"/>
<path d="M6.63707 14.8195L6.78767 14.916L6.92759 14.8046C7.33075 14.4837 7.86002 14.0503 8.36399 13.6133C8.62114 13.3903 8.86421 13.1727 9.07801 12.9723L9.29894 12.7652L9.05377 12.5875L7.93925 11.7795L7.81248 11.6876L7.67446 11.7616L7.66678 11.7657C7.66678 11.7657 7.66678 11.7657 7.66678 11.7657C7.56311 11.8211 7.43104 11.8854 7.27977 11.9556C6.97655 12.0962 6.58285 12.2663 6.15617 12.4445C5.66668 12.649 5.13004 12.8657 4.63028 13.0632L4.17924 13.2414L4.5861 13.5054C4.99315 13.7695 5.46362 14.0699 5.94737 14.3787L5.94758 14.3789L5.95053 14.3808C6.17805 14.526 6.40858 14.6732 6.63707 14.8195ZM8.47801 11.0375L8.28031 11.2445L8.51208 11.4126L9.53846 12.1566L9.73723 12.3007L9.88491 12.1046C10.2452 11.6261 10.9069 10.7189 11.5231 9.731C11.8585 9.19326 12.1777 8.63599 12.4269 8.11394C12.4265 8.11462 12.427 8.11385 12.4284 8.11137C12.4318 8.1055 12.4407 8.09006 12.458 8.06143C12.4795 8.02601 12.5083 7.97937 12.5425 7.92462C12.6051 7.82449 12.6837 7.70006 12.7641 7.57292L12.7864 7.53763C12.8741 7.39887 12.9622 7.25928 13.0308 7.14887C13.0651 7.09375 13.0951 7.04495 13.118 7.00672C13.1366 6.97567 13.161 6.9346 13.1735 6.9059L12.7549 6.64268C12.7262 6.67613 12.6593 6.76993 12.5868 6.87257C12.5174 6.97084 12.4325 7.09243 12.3463 7.21576L12.3159 7.25925C12.2192 7.39759 12.1231 7.53496 12.0465 7.64296C12.0081 7.69702 11.9752 7.7429 11.9498 7.77749C11.9263 7.80961 11.9145 7.82469 11.9113 7.82869C11.9106 7.82958 11.9104 7.82992 11.9105 7.82978C11.4979 8.2869 11.034 8.73972 10.7036 8.95743C10.1078 9.35007 9.60799 9.69497 9.28558 10.1235C9.10399 10.3649 8.78126 10.7199 8.47801 11.0375Z" fill="white" stroke="var(--mw-icon-background-default-white, #FFFFFF)" stroke-width="0.5"/>
<path d="M3.5 13.1626L3.32223 12.6953C3.14902 12.7612 3.02646 12.9175 3.00376 13.1014C2.98107 13.2853 3.06196 13.4667 3.21395 13.5727L3.5 13.1626ZM7.70985 11.3654L8.05735 11.7249L7.70985 11.3654ZM9.03302 9.93312L9.43257 10.2337V10.2337L9.03302 9.93312ZM10.5299 8.69299L10.2547 8.2755L10.2547 8.2755L10.5299 8.69299ZM12.6415 6.36779L13.0777 6.61222L13.0777 6.61222L12.6415 6.36779ZM18.0409 8.4863L18.5228 8.35289L18.0409 8.4863ZM20.5 15.9012L20.2198 16.3153C20.3984 16.4361 20.6342 16.4289 20.805 16.2974C20.9758 16.1659 21.0431 15.9397 20.972 15.7362L20.5 15.9012ZM15.0204 16.4696L15.4254 16.7629L15.0204 16.4696ZM12.4544 19.5441L12.1158 19.1762L12.4544 19.5441ZM10.9575 20.5L10.5284 20.7565C10.6421 20.9469 10.8676 21.0395 11.0823 20.9842L10.9575 20.5ZM7.88365 16.0046L7.60784 16.4216L7.88365 16.0046ZM6.55969 14.8614C6.3421 15.0315 6.30356 15.3457 6.47359 15.5633C6.64363 15.7809 6.95785 15.8194 7.17544 15.6494L6.55969 14.8614ZM10.0484 12.4135L9.65044 12.1107L10.0484 12.4135ZM13.2158 6.7924L13.7106 6.86423V6.86423L13.2158 6.7924ZM3.67777 13.63C4.37256 13.3657 5.37125 12.9712 6.22732 12.6136C6.65484 12.4351 7.05104 12.2639 7.35739 12.1219C7.51004 12.0511 7.64562 11.9851 7.75365 11.9274C7.8401 11.8812 7.9696 11.8097 8.05735 11.7249L7.36235 11.0059C7.3913 10.9779 7.38829 10.9888 7.28249 11.0453C7.19827 11.0903 7.08184 11.1473 6.93668 11.2147C6.64742 11.3488 6.2648 11.5143 5.84189 11.6909C4.99709 12.0438 4.00847 12.4343 3.32223 12.6953L3.67777 13.63ZM8.05735 11.7249C8.35218 11.4399 9.10406 10.6704 9.43257 10.2337L8.63346 9.63253C8.35671 10.0004 7.65558 10.7225 7.36235 11.0059L8.05735 11.7249ZM9.43257 10.2337C9.73257 9.83494 10.204 9.50658 10.805 9.11048L10.2547 8.2755C9.67967 8.65448 9.05505 9.07214 8.63346 9.63253L9.43257 10.2337ZM10.805 9.11048C11.1563 8.87896 11.6335 8.41086 12.0471 7.95259C12.4632 7.49149 12.8754 6.97312 13.0777 6.61222L12.2053 6.12335C12.0601 6.38251 11.7105 6.83298 11.3047 7.28258C10.8964 7.73501 10.4915 8.11948 10.2547 8.2755L10.805 9.11048ZM13.0777 6.61222C13.2493 6.30602 13.6453 5.61632 14.1174 5.00789C14.3542 4.7027 14.5968 4.43556 14.8265 4.24918C15.0682 4.05314 15.23 4 15.3145 4V3C14.8844 3 14.4982 3.22782 14.1965 3.47261C13.8829 3.72706 13.5867 4.0606 13.3273 4.39485C12.8071 5.0653 12.3812 5.80949 12.2053 6.12335L13.0777 6.61222ZM15.3145 4C15.2998 4 15.3269 3.9946 15.4043 4.04874C15.4808 4.10224 15.5778 4.19433 15.6916 4.3352C15.9191 4.61706 16.1626 5.03016 16.4037 5.52446C16.8836 6.50847 17.3114 7.7252 17.559 8.61971L18.5228 8.35289C18.2625 7.41305 17.8149 6.13664 17.3025 5.08608C17.0474 4.56309 16.7655 4.07357 16.4697 3.70711C16.3217 3.52382 16.1577 3.35533 15.9775 3.22929C15.7982 3.1039 15.573 3 15.3145 3V4ZM17.559 8.61971C17.9708 10.107 19.3799 14.2127 20.028 16.0662L20.972 15.7362C20.3192 13.8694 18.9236 9.80058 18.5228 8.35289L17.559 8.61971ZM20.7802 15.4871C20.4965 15.2952 20.0307 15.0113 19.5393 14.7731C19.0718 14.5465 18.4923 14.3161 18.0142 14.3161V15.3161C18.2417 15.3161 18.6378 15.4474 19.1032 15.673C19.5446 15.8869 19.9689 16.1455 20.2198 16.3153L20.7802 15.4871ZM18.0142 14.3161C17.4707 14.3161 16.8296 14.5022 16.2359 14.812C15.6372 15.1244 15.044 15.5846 14.6155 16.1763L15.4254 16.7629C15.7453 16.3211 16.2079 15.9546 16.6985 15.6986C17.194 15.44 17.6755 15.3161 18.0142 15.3161V14.3161ZM14.6155 16.1763C13.8714 17.2038 12.6389 18.6947 12.1158 19.1762L12.793 19.9119C13.3926 19.36 14.6727 17.8022 15.4254 16.7629L14.6155 16.1763ZM12.1158 19.1762C11.5759 19.6732 11.1147 19.9432 10.8327 20.0158L11.0823 20.9842C11.6023 20.8502 12.2103 20.4484 12.793 19.9119L12.1158 19.1762ZM11.3867 20.2435C11.2238 19.9709 11.0488 19.6254 10.8441 19.2224C10.6429 18.8262 10.4176 18.3838 10.1646 17.9446C9.66434 17.0762 9.02202 16.1579 8.15945 15.5875L7.60784 16.4216C8.26886 16.8588 8.81601 17.6069 9.29808 18.4437C9.53617 18.857 9.75029 19.277 9.95251 19.6752C10.1513 20.0667 10.3438 20.4477 10.5284 20.7565L11.3867 20.2435ZM8.15945 15.5875C6.7525 14.657 4.64896 13.3544 3.78605 12.7525L3.21395 13.5727C4.07955 14.1765 6.26056 15.5306 7.60784 16.4216L8.15945 15.5875ZM7.17544 15.6494C7.59949 15.318 8.26781 14.7778 8.89915 14.2303C9.51666 13.6948 10.1426 13.1154 10.4463 12.7162L9.65044 12.1107C9.41954 12.4143 8.87388 12.9286 8.24401 13.4748C7.62797 14.009 6.97316 14.5383 6.55969 14.8614L7.17544 15.6494ZM10.4463 12.7162C10.7848 12.2712 11.5265 11.2689 12.2162 10.1632C12.5609 9.61044 12.897 9.02498 13.164 8.46572C13.4275 7.91377 13.6393 7.35535 13.7106 6.86423L12.721 6.72057C12.6713 7.06284 12.5102 7.51394 12.2615 8.03495C12.0163 8.54864 11.701 9.09957 11.3677 9.63395C10.7012 10.7025 9.98019 11.6773 9.65044 12.1107L10.4463 12.7162ZM13.7106 6.86423C13.9331 5.3312 14.3226 4.64037 14.7445 4.32521L14.1461 3.52402C13.392 4.08728 12.9527 5.12419 12.721 6.72057L13.7106 6.86423ZM7.45617 11.6557L9.27379 12.9733L9.86071 12.1637L8.0431 10.846L7.45617 11.6557Z" fill="var(--mw-icon-glyph-content-gray, #616162)"/>
<path d="M0.5 2.5C0.5 1.39543 1.39543 0.5 2.5 0.5H21.5C22.6046 0.5 23.5 1.39543 23.5 2.5V21.5C23.5 22.6046 22.6046 23.5 21.5 23.5H2.5C1.39543 23.5 0.5 22.6046 0.5 21.5V2.5Z" stroke="var(--mw-icon-border-default-gray, #616161)" stroke-linejoin="round"/>
</svg>
