<svg width="24" height="24" viewBox="0 0 24 24" fill="none" xmlns="http://www.w3.org/2000/svg">
<path d="M0.5 3C0.5 2.72386 0.723858 2.5 1 2.5H7.08579C7.351 2.5 7.60536 2.60536 7.79289 2.79289L9.20711 4.20711C9.39464 4.39464 9.649 4.5 9.91421 4.5H18C18.2761 4.5 18.5 4.72386 18.5 5V8.9026V16C18.5 16.2761 18.2761 16.5 18 16.5H1C0.723858 16.5 0.5 16.2761 0.5 16V3Z" fill="var(--mw-icon-background-light-yellow, #FFF5BC)" stroke="#674C06"/>
<path d="M9.59091 21.5C7.33157 21.5 5.5 19.6058 5.5 17.2692C5.5 14.9326 7.33157 13.0385 9.59091 13.0385C10.1157 13.0385 10.6174 13.1406 11.0784 13.3268C11.9869 11.6406 13.7283 10.5 15.7273 10.5C18.536 10.5 20.8361 12.7518 21.0319 15.605C22.4263 15.8042 23.5 17.0417 23.5 18.5385C23.5 20.1741 22.2179 21.5 20.6364 21.5H9.59091Z" fill="var(--mw-icon-glyph-content-light-blue, #278CDD)" stroke="var(--mw-icon-border-default-blue, #1656A7)"/>
<path fill-rule="evenodd" clip-rule="evenodd" d="M11.1118 17.367C11.3294 17.2044 11.615 16.985 11.8866 16.7639C12.0251 16.6512 12.1556 16.5415 12.27 16.4409L11.6654 16.0295C11.664 16.0303 11.6611 16.0317 11.6611 16.0317C11.6017 16.0615 11.5274 16.0954 11.4444 16.1316C11.2776 16.2042 11.0622 16.2915 10.8301 16.3825C10.5636 16.4869 10.2717 16.5976 10 16.6984C10.2203 16.8325 10.4751 16.9852 10.7377 17.1425C10.8616 17.2168 10.9873 17.2921 11.1118 17.367ZM12.1353 15.6366L12.6921 16.0154C12.8863 15.7733 13.2426 15.3147 13.574 14.8162C13.7543 14.5448 13.9246 14.2654 14.0568 14.0055C14.0806 13.9588 14.1028 13.9133 14.1234 13.8691C14.0827 13.9137 14.0413 13.9578 13.9998 14.0009C13.7753 14.2344 13.5138 14.4756 13.3191 14.596C12.9922 14.7982 12.742 14.9624 12.5837 15.1599C12.4799 15.2894 12.2999 15.4749 12.1353 15.6366Z" fill="var(--mw-icon-background-default-white, #FFFFFF)"/>
<path fill-rule="evenodd" clip-rule="evenodd" d="M15.3408 12.2612C15.1676 12.4481 15.0093 12.7915 14.9107 13.4289C14.8713 13.684 14.7545 13.9719 14.6111 14.254C14.4655 14.5403 14.2824 14.8395 14.095 15.1215C13.7201 15.6857 13.317 16.1969 13.1331 16.4239C12.9657 16.6304 12.6233 16.9276 12.2888 17.1998C12.073 17.3754 11.8494 17.5495 11.6558 17.6966C11.7345 17.7447 11.8107 17.7916 11.8836 17.8368C12.3588 18.1318 12.7106 18.605 12.9826 19.0482C13.1204 19.2727 13.243 19.4987 13.3521 19.7003L13.3574 19.7101C13.4143 19.8151 13.4667 19.9121 13.5161 20C13.647 19.9301 13.8074 19.8208 13.9852 19.6672C14.2661 19.4244 14.933 18.6677 15.3363 18.145C15.5726 17.8387 15.8992 17.6012 16.2278 17.4402C16.5534 17.2808 16.9069 17.1839 17.2091 17.1839C17.4594 17.1839 17.7555 17.2889 18 17.3966C17.6185 16.3569 17.1041 14.926 16.9274 14.3268C16.7935 13.873 16.5622 13.2555 16.303 12.7568C16.1728 12.5062 16.0421 12.2984 15.9211 12.1578C15.8607 12.0875 15.8105 12.0432 15.7727 12.0185C15.7547 12.0066 15.7435 12.0018 15.7385 12C15.7021 12.0025 15.6243 12.0265 15.5028 12.1191C15.4873 12.1309 15.4716 12.1434 15.4558 12.1566L15.4574 12.1586C15.4468 12.166 15.4363 12.1739 15.4258 12.1822C15.3977 12.2067 15.3694 12.2331 15.3408 12.2612Z" fill="white"/>
</svg>
