<svg width="24" height="24" viewBox="0 0 24 24" fill="none" xmlns="http://www.w3.org/2000/svg">
<path d="M16.5 0.5H2.5C1.39543 0.5 0.5 1.39543 0.5 2.5V16.5C0.5 17.6046 1.39543 18.5 2.5 18.5H16.5C17.6046 18.5 18.5 17.6046 18.5 16.5V2.5C18.5 1.39543 17.6046 0.5 16.5 0.5Z" fill="var(--mw-icon-background-default-white, #FFFFFF)" stroke="var(--mw-icon-border-default-gray, #616161)" stroke-linecap="round"/>
<rect x="1" y="8" width="17" height="3" fill="var(--mw-icon-background-default-highlight, #FFE864)"/>
<path d="M9.6875 9.52084H14.2292" stroke="var(--mw-icon-glyph-content-yellow, #674C07)" stroke-linecap="round"/>
<path d="M3.5 3.5H8.5M6.5 6.5H11.5M6.5 12.5H11.5M3.5 15.5H8.5" stroke="var(--mw-icon-glyph-disabled-gray, #888889)" stroke-linecap="round"/>
<path fill-rule="evenodd" clip-rule="evenodd" d="M18.9653 11.3259C18.7211 11.6067 18.4979 12.1225 18.3589 13.0799C18.3033 13.463 18.1387 13.8955 17.9365 14.3192C17.7313 14.7492 17.4732 15.1987 17.209 15.6223C16.6804 16.4697 16.1122 17.2376 15.8529 17.5785C15.6169 17.8886 15.1341 18.335 14.6626 18.744C14.3584 19.0077 14.0431 19.2692 13.7702 19.4901C13.8812 19.5624 13.9886 19.6329 14.0914 19.7008C14.7612 20.1438 15.2573 20.8547 15.6407 21.5203C15.835 21.8576 16.0078 22.1969 16.1617 22.4999L16.1691 22.5145C16.2493 22.6723 16.3232 22.818 16.3929 22.95C16.5774 22.845 16.8035 22.6808 17.0541 22.4501C17.4502 22.0855 18.3903 20.9488 18.9589 20.1637C19.2921 19.7036 19.7525 19.3469 20.2157 19.1051C20.6748 18.8656 21.1732 18.7201 21.5992 18.7201C21.9521 18.7201 22.3694 18.8777 22.7142 19.0396C22.1763 17.4779 21.4512 15.3286 21.202 14.4286C21.0133 13.7469 20.6872 12.8195 20.3218 12.0704C20.1382 11.6939 19.9539 11.3819 19.7834 11.1706C19.6982 11.0651 19.6274 10.9986 19.5742 10.9613C19.5488 10.9436 19.533 10.9363 19.526 10.9336C19.4746 10.9373 19.365 10.9734 19.1937 11.1124C19.1718 11.1302 19.1497 11.149 19.1274 11.1688L19.1297 11.1718C19.1148 11.1829 19.0999 11.1947 19.0851 11.2072C19.0455 11.2441 19.0055 11.2838 18.9653 11.3259Z" fill="#F57729"/>
<path fill-rule="evenodd" clip-rule="evenodd" d="M13.0022 18.9951C13.309 18.751 13.7116 18.4213 14.0945 18.0893C14.2898 17.9199 14.4737 17.7552 14.635 17.6041L13.7827 16.9862C13.7807 16.9873 13.7786 16.9884 13.7767 16.9895C13.6928 17.0343 13.5882 17.0852 13.4711 17.1395C13.2359 17.2485 12.9323 17.3797 12.6051 17.5163C12.2294 17.6733 11.8178 17.8395 11.4348 17.9908C11.7454 18.1924 12.1046 18.4217 12.4748 18.658C12.6495 18.7696 12.8266 18.8827 13.0022 18.9951ZM14.4452 16.396L15.2301 16.965C15.5039 16.6013 16.0063 15.9126 16.4733 15.1637C16.7276 14.756 16.9677 14.3365 17.1541 13.946C17.1876 13.8759 17.2189 13.8076 17.248 13.7412C17.1905 13.8081 17.1321 13.8744 17.0737 13.9391C16.7571 14.2899 16.3886 14.6521 16.1141 14.833C15.6531 15.1368 15.3005 15.3833 15.0773 15.68C14.931 15.8745 14.6772 16.1531 14.4452 16.396Z" fill="#068CFC"/>
<path d="M10.5 17.8891L10.3222 17.4217C10.149 17.4876 10.0265 17.6439 10.0038 17.8278C9.98107 18.0118 10.062 18.1932 10.214 18.2992L10.5 17.8891ZM13.7193 16.5147L14.0668 16.8742L14.0668 16.8742L13.7193 16.5147ZM14.7311 15.4194L14.3316 15.1189L14.3316 15.1189L14.7311 15.4194ZM17.4906 12.693L17.0544 12.4486L17.0544 12.4486L17.4906 12.693ZM21.6195 14.3131L22.1014 14.1796V14.1796L21.6195 14.3131ZM23.5 19.9833L23.2198 20.3974C23.3984 20.5182 23.6342 20.511 23.805 20.3794C23.9758 20.2479 24.0431 20.0217 23.972 19.8182L23.5 19.9833ZM19.3097 20.4179L18.9048 20.1247L19.3097 20.4179ZM17.3475 22.769L17.0088 22.4011H17.0088L17.3475 22.769ZM16.2028 23.5L15.7737 23.7565C15.8874 23.9469 16.1129 24.0395 16.3276 23.9842L16.2028 23.5ZM13.8522 20.0623L13.5764 20.4794L13.8522 20.0623ZM12.7675 19.0955C12.55 19.2655 12.5114 19.5798 12.6814 19.7973C12.8515 20.0149 13.1657 20.0535 13.3833 19.8834L12.7675 19.0955ZM15.5078 17.3162L15.9058 17.6189L15.9058 17.6189L15.5078 17.3162ZM17.9299 13.0178L18.4248 13.0896L17.9299 13.0178ZM10.6778 18.3564C11.2101 18.1539 11.975 17.8518 12.6309 17.5778C12.9584 17.441 13.263 17.3095 13.4993 17.1999C13.6169 17.1454 13.7228 17.0939 13.8082 17.0482C13.8721 17.0141 13.986 16.9524 14.0668 16.8742L13.3718 16.1552C13.4077 16.1205 13.4202 16.1218 13.3371 16.1662C13.2755 16.1991 13.1887 16.2417 13.0786 16.2927C12.8594 16.3944 12.5684 16.5202 12.2455 16.6551C11.6008 16.9244 10.846 17.2225 10.3222 17.4217L10.6778 18.3564ZM14.0668 16.8742C14.2924 16.6561 14.8734 16.062 15.1307 15.72L14.3316 15.1189C14.126 15.3921 13.5958 15.9387 13.3718 16.1552L14.0668 16.8742ZM15.1307 15.72C15.3458 15.4341 15.6882 15.1935 16.1509 14.8886L15.6006 14.0536C15.164 14.3414 14.6683 14.6713 14.3316 15.1189L15.1307 15.72ZM16.1509 14.8886C16.4331 14.7027 16.8064 14.3349 17.1233 13.9837C17.4428 13.6298 17.7654 13.2254 17.9267 12.9374L17.0544 12.4486C16.95 12.6348 16.6901 12.9713 16.381 13.3137C16.0694 13.659 15.7682 13.9432 15.6006 14.0536L16.1509 14.8886ZM17.9267 12.9374C18.0575 12.7042 18.3568 12.1832 18.7121 11.7252C18.8906 11.4953 19.0698 11.2988 19.2356 11.1643C19.4133 11.0201 19.5106 11 19.5346 11V10C19.1651 10 18.8434 10.1948 18.6056 10.3877C18.3558 10.5903 18.1231 10.8532 17.9221 11.1122C17.5186 11.6322 17.1894 12.2077 17.0544 12.4486L17.9267 12.9374ZM19.5346 11C19.4913 11 19.4887 10.983 19.5359 11.016C19.5822 11.0484 19.6485 11.1098 19.7314 11.2126C19.8974 11.4182 20.0791 11.7251 20.2618 12.0997C20.625 12.8443 20.9497 13.7678 21.1376 14.4465L22.1014 14.1796C21.9009 13.4556 21.5562 12.4725 21.1606 11.6613C20.9639 11.258 20.7438 10.8747 20.5095 10.5845C20.3924 10.4393 20.259 10.3015 20.109 10.1966C19.9599 10.0923 19.7644 10 19.5346 10V11ZM21.1376 14.4465C21.4538 15.5884 22.533 18.7325 23.028 20.1483L23.972 19.8182C23.4723 18.3891 22.4066 15.282 22.1014 14.1796L21.1376 14.4465ZM23.7802 19.5692C23.5594 19.4198 23.1983 19.1997 22.8167 19.0147C22.4589 18.8413 21.9942 18.6535 21.5991 18.6535V19.6535C21.7436 19.6535 22.0249 19.7423 22.3805 19.9146C22.7122 20.0753 23.0318 20.2702 23.2198 20.3974L23.7802 19.5692ZM21.5991 18.6535C21.1594 18.6535 20.6504 18.8031 20.1848 19.0461C19.7143 19.2916 19.2453 19.6545 18.9048 20.1247L19.7147 20.7112C19.9466 20.391 20.2849 20.1218 20.6474 19.9326C21.0147 19.7409 21.3642 19.6535 21.5991 19.6535V18.6535ZM18.9048 20.1247C18.3368 20.909 17.3999 22.0412 17.0088 22.4011L17.6861 23.1369C18.1536 22.7065 19.1381 21.5074 19.7147 20.7112L18.9048 20.1247ZM17.0088 22.4011C16.601 22.7765 16.2656 22.9675 16.078 23.0158L16.3276 23.9842C16.7532 23.8745 17.2354 23.5517 17.6861 23.1369L17.0088 22.4011ZM16.632 23.2435C16.51 23.0393 16.3782 22.7793 16.221 22.4697C16.0672 22.167 15.8937 21.8261 15.6984 21.4871C15.3137 20.8194 14.8113 20.0972 14.128 19.6453L13.5764 20.4794C14.0582 20.798 14.4654 21.3501 14.8319 21.9863C15.0122 22.2993 15.1746 22.6178 15.3294 22.9225C15.4807 23.2205 15.63 23.5161 15.7737 23.7565L16.632 23.2435ZM14.128 19.6453C13.0451 18.9291 11.4456 17.939 10.786 17.479L10.214 18.2992C10.8762 18.7611 12.5531 19.8026 13.5764 20.4794L14.128 19.6453ZM13.3833 19.8834C13.7088 19.6291 14.2215 19.2146 14.7061 18.7944C15.1768 18.3862 15.665 17.9355 15.9058 17.6189L15.1099 17.0135C14.9419 17.2343 14.534 17.62 14.0509 18.0389C13.5816 18.4459 13.0825 18.8494 12.7675 19.0955L13.3833 19.8834ZM15.9058 17.6189C16.1656 17.2773 16.7352 16.5076 17.2654 15.6577C17.5303 15.2328 17.7898 14.7811 17.9965 14.348C18.1997 13.9223 18.3677 13.4827 18.4248 13.0896L17.4351 12.9459C17.3997 13.1902 17.2825 13.5225 17.0941 13.9173C16.9091 14.3047 16.6704 14.722 16.4169 15.1284C15.9099 15.9412 15.361 16.6834 15.1099 17.0135L15.9058 17.6189ZM18.4248 13.0896C18.5939 11.9247 18.8858 11.4372 19.1694 11.2253L18.571 10.4241C17.9552 10.8841 17.6134 11.7177 17.4351 12.9459L18.4248 13.0896ZM13.4565 16.832L14.8464 17.8396L15.4333 17.0299L14.0434 16.0223L13.4565 16.832Z" fill="var(--mw-icon-glyph-content-dark-gray, #333333)"/>
</svg>
