<svg width="24" height="24" viewBox="0 0 24 24" fill="none" xmlns="http://www.w3.org/2000/svg">
<path d="M0.5 18.5V4.5C0.5 2.29086 2.29086 0.5 4.5 0.5H18.5C20.7091 0.5 22.5 2.29086 22.5 4.5V18.5C22.5 20.7091 20.7091 22.5 18.5 22.5H4.5C2.29086 22.5 0.5 20.7091 0.5 18.5Z" fill="var(--mw-icon-background-default-white, white)"/>
<path d="M0.5 18.5V4.5C0.5 2.29086 2.29086 0.5 4.5 0.5H18.5C20.7091 0.5 22.5 2.29086 22.5 4.5V18.5C22.5 20.7091 20.7091 22.5 18.5 22.5H4.5C2.29086 22.5 0.5 20.7091 0.5 18.5Z" stroke="var(--mw-icon-glyph-disabled-gray, #888889)" stroke-linecap="round"/>
<path d="M0.5 11.5H22.5V18.5C22.5 20.7091 20.7091 22.5 18.5 22.5H4.5C2.29086 22.5 0.5 20.7091 0.5 18.5V11.5Z" fill="var(--mw-icon-background-default-selection, #B4DEFF)" stroke="var(--mw-icon-borderColor-light-blue, #268CDD)"/>
<path d="M5.5 2.5L7.5 2.5L7.5 5.5L10 5.5L6.5 9.5L3 5.5L5.5 5.5L5.5 2.5Z" fill="var(--mw-icon-background-default-selection, #B4DEFF)" stroke="var(--mw-icon-glyph-content-blue, #1656A8)"/>
<path d="M15.5 2.5L17.5 2.5L17.5 5.5L20 5.5L16.5 9.5L13 5.5L15.5 5.5L15.5 2.5Z" fill="var(--mw-icon-background-default-selection, #B4DEFF)" stroke="var(--mw-icon-glyph-content-blue, #1656A8)"/>
<path d="M14.2979 18.2441C14.21 18.9961 13.9316 19.5771 13.4629 19.9873C12.9974 20.3942 12.3773 20.5977 11.6025 20.5977C10.7627 20.5977 10.0889 20.2965 9.58105 19.6943C9.0765 19.0921 8.82422 18.2865 8.82422 17.2773V16.5938C8.82422 15.9329 8.94141 15.3519 9.17578 14.8506C9.41341 14.3493 9.7487 13.9652 10.1816 13.6982C10.6146 13.4281 11.1159 13.293 11.6855 13.293C12.4408 13.293 13.0462 13.5046 13.502 13.9277C13.9577 14.3477 14.223 14.9303 14.2979 15.6758H13.3555C13.2741 15.1094 13.0967 14.6992 12.8232 14.4453C12.5531 14.1914 12.1738 14.0645 11.6855 14.0645C11.0866 14.0645 10.6162 14.2858 10.2744 14.7285C9.93587 15.1712 9.7666 15.8011 9.7666 16.6182V17.3066C9.7666 18.0781 9.92773 18.6917 10.25 19.1475C10.5723 19.6032 11.0231 19.8311 11.6025 19.8311C12.1234 19.8311 12.5221 19.7139 12.7988 19.4795C13.0788 19.2419 13.2643 18.8301 13.3555 18.2441H14.2979Z" fill="#212121"/>

</svg>
