<svg width="24" height="24" viewBox="0 0 24 24" fill="none" xmlns="http://www.w3.org/2000/svg">
<path d="M0.5 18.5V4.5C0.5 2.29086 2.29086 0.5 4.5 0.5H18.5C20.7091 0.5 22.5 2.29086 22.5 4.5V18.5C22.5 20.7091 20.7091 22.5 18.5 22.5H4.5C2.29086 22.5 0.5 20.7091 0.5 18.5Z" fill="var(--mw-icon-background-default-white, white)"/>
<circle cx="6.5" cy="2.5" r="1.5" fill="#0072BD"/>
<circle cx="2.5" cy="5.5" r="1.5" fill="#0072BD"/>
<circle cx="3.5" cy="19.5" r="1.5" fill="#0072BD"/>
<circle cx="17.5" cy="20.5" r="1.5" fill="#0072BD"/>
<circle cx="20.5" cy="16.5" r="1.5" fill="#0072BD"/>
<circle cx="18.5" cy="3.5" r="1.5" fill="#0072BD"/>
<circle cx="8.5" cy="16.5" r="1.5" fill="#0072BD"/>
<circle cx="15.5" cy="7.5" r="1.5" fill="#0072BD"/>
<path d="M11.4999 19.5001C5.99985 20.0225 0.999995 13 4.49994 7.00005C7.99989 1.00006 19.5 3.64674 19.5 9.5C19.5 15.3533 17 18.9777 11.4999 19.5001Z" stroke="#D95319"/>
<path d="M11.5 22.5V0.5M0.5 11.5H22.5" stroke="var(--mw-icon-glyph-content-dark-gray, #333333)"/>
<path d="M0.5 18.5V4.5C0.5 2.29086 2.29086 0.5 4.5 0.5H18.5C20.7091 0.5 22.5 2.29086 22.5 4.5V18.5C22.5 20.7091 20.7091 22.5 18.5 22.5H4.5C2.29086 22.5 0.5 20.7091 0.5 18.5Z" stroke="#B7312C" stroke-linecap="round"/>

</svg>
