<svg width="24" height="24" viewBox="0 0 24 24" fill="none" xmlns="http://www.w3.org/2000/svg">
<path d="M0.5 18.5V4.5C0.5 2.29086 2.29086 0.5 4.5 0.5H11.5H18.5C20.7091 0.5 22.5 2.29086 22.5 4.5V18.5C22.5 20.7091 20.7091 22.5 18.5 22.5H11.5H4.5C2.29086 22.5 0.5 20.7091 0.5 18.5Z" fill="var(--mw-icon-background-default-white, #FFFFFF)"/>
<path d="M11.5 0.5H18.5C20.7091 0.5 22.5 2.29086 22.5 4.5V18.5C22.5 20.7091 20.7091 22.5 18.5 22.5H11.5M11.5 0.5H4.5C2.29086 0.5 0.5 2.29086 0.5 4.5V18.5C0.5 20.7091 2.29086 22.5 4.5 22.5H11.5M11.5 0.5V22.5" stroke="var(--mw-icon-border-default-gray, #616161)" stroke-linecap="round"/>
<path d="M2.5 19.5V9.14849C2.5 8.14842 3.09599 7.24457 4.0152 6.85063L9.5 4.5V19.5L8.54558 18.5456C7.1397 17.1397 4.8603 17.1397 3.45442 18.5456L2.5 19.5Z" fill="var(--mw-icon-background-medium-blue, #83CAFF)" stroke="var(--mw-icon-glyph-content-light-blue, #278CDD)" stroke-linejoin="round"/>
<path d="M13.5 19.5V9.14849C13.5 8.14842 14.096 7.24457 15.0152 6.85063L20.5 4.5V19.5L19.5456 18.5456C18.1397 17.1397 15.8603 17.1397 14.4544 18.5456L13.5 19.5Z" fill="var(--mw-icon-background-default-medium-gray, #D9D9D9)" stroke="var(--mw-icon-glyph-content-gray, #616162)" stroke-linejoin="round"/>
<path d="M16.5 9.5H18.5V11.5H16.5V10.5V9.5Z" fill="white"/>
<path d="M6.5 10.5V9.5H4.5V11.5H5.5H6.5V10.5Z" fill="white"/>
<path d="M16.5 10.5V11.5H18.5V9.5H16.5V10.5ZM16.5 10.5H6.5M6.5 10.5V9.5H4.5V11.5H5.5H6.5V10.5Z" stroke="var(--mw-icon-glyph-content-blue, #1656A8)" stroke-linejoin="round"/>
<path d="M15.5 13.5H17.5V15.5H15.5V14.5V13.5Z" fill="white"/>
<path d="M7.5 14.5V13.5H5.5V15.5H6.5H7.5V14.5Z" fill="white"/>
<path d="M15.5 14.5V15.5H17.5V13.5H15.5V14.5ZM15.5 14.5H7.5M7.5 14.5V13.5H5.5V15.5H6.5H7.5V14.5Z" stroke="var(--mw-icon-glyph-content-blue, #1656A8)" stroke-linejoin="round"/>
</svg>
