<svg width="24" height="24" viewBox="0 0 24 24" fill="none" xmlns="http://www.w3.org/2000/svg">
<path d="M14.5 0.5H2.5C1.39543 0.5 0.5 1.39543 0.5 2.5V16.5C0.5 17.6046 1.39543 18.5 2.5 18.5H14.5C15.6046 18.5 16.5 17.6046 16.5 16.5V2.5C16.5 1.39543 15.6046 0.5 14.5 0.5Z" fill="var(--mw-icon-background-default-white, #FFFFFF)" stroke="var(--mw-icon-border-default-gray, #616161)" stroke-linecap="round"/>
<path d="M9.5 9.5H13.5M6.5 6.5H10.5M3.5 3.5H7.5M6.5 12.5H10.5M3.5 15.5H7.5" stroke="var(--mw-icon-glyph-content-gray, #616162)" stroke-linecap="round"/>
<rect x="9.5" y="9.5" width="14" height="14" rx="2" fill="var(--mw-icon-glyph-content-gray, #616162)" stroke="var(--mw-icon-border-default-gray, #616161)"/>
<path d="M13.5 12C13.5 11.7239 13.7239 11.5 14 11.5H19C19.2761 11.5 19.5 11.7239 19.5 12V21C19.5 21.2761 19.2761 21.5 19 21.5H14C13.7239 21.5 13.5 21.2761 13.5 21V12Z" stroke="var(--mw-icon-background-default-white, #FFFFFF)" stroke-linejoin="round"/>
<path d="M11.5 12.5H13M20 12.5H21.5M11.5 14.5H13M20 14.5H21.5M11.5 16.5H13M20 16.5H21.5M11.5 18.5H13M20 18.5H21.5M11.5 20.5H13M20 20.5H21.5" stroke="white" stroke-linecap="round"/>
</svg>
