<svg width="24" height="24" viewBox="0 0 24 24" fill="none" xmlns="http://www.w3.org/2000/svg">
<path fill-rule="evenodd" clip-rule="evenodd" d="M8 1.5C8 1.22386 7.77614 1 7.5 1C7.22386 1 7 1.22386 7 1.5L7 5C5.89543 5 5 5.89543 5 7H1.5C1.22386 7 1 7.22386 1 7.5C1 7.77614 1.22386 8 1.5 8H5V10H1.5C1.22386 10 1 10.2239 1 10.5C1 10.7761 1.22386 11 1.5 11H5V13H1.5C1.22386 13 1 13.2239 1 13.5C1 13.7761 1.22386 14 1.5 14H5V16H1.5C1.22386 16 1 16.2239 1 16.5C1 16.7761 1.22386 17 1.5 17H5C5 18.1046 5.89543 19 7 19V22.5C7 22.7761 7.22386 23 7.5 23C7.77614 23 8 22.7761 8 22.5V19H10V22.5C10 22.7761 10.2239 23 10.5 23C10.7761 23 11 22.7761 11 22.5V19H13V22.5C13 22.7761 13.2239 23 13.5 23C13.7761 23 14 22.7761 14 22.5V19H16V22.5C16 22.7761 16.2239 23 16.5 23C16.7761 23 17 22.7761 17 22.5V19C18.1046 19 19 18.1046 19 17H22.5C22.7761 17 23 16.7761 23 16.5C23 16.2239 22.7761 16 22.5 16H19V14H22.5C22.7761 14 23 13.7761 23 13.5C23 13.2239 22.7761 13 22.5 13H19V11H22.5C22.7761 11 23 10.7761 23 10.5C23 10.2239 22.7761 10 22.5 10H19V8H22.5C22.7761 8 23 7.77614 23 7.5C23 7.22386 22.7761 7 22.5 7L19 7C19 5.89543 18.1046 5 17 5V1.5C17 1.22386 16.7761 1 16.5 1C16.2239 1 16 1.22386 16 1.5V5H14V1.5C14 1.22386 13.7761 1 13.5 1C13.2239 1 13 1.22386 13 1.5V5H11V1.5C11 1.22386 10.7761 1 10.5 1C10.2239 1 10 1.22386 10 1.5V5H8V1.5ZM6 16.5L6 17C6 17.5523 6.44772 18 7 18H7.5H10.5H13.5H16.5H17C17.5523 18 18 17.5523 18 17V16.5V13.5V10.5V7.5V7C18 6.44772 17.5523 6 17 6H16.5H13.5H10.5H7.5H7C6.44772 6 6 6.44772 6 7V7.5V10.5L6 13.5V16.5Z" fill="var(--mw-icon-object-primary, #616160)"/>
</svg>
