<svg width="24" height="24" viewBox="0 0 24 24" fill="none" xmlns="http://www.w3.org/2000/svg">
<path d="M0.5 11.5H18.5V16.5C18.5 17.6046 17.6046 18.5 16.5 18.5H2.5C1.39543 18.5 0.5 17.6046 0.5 16.5V11.5Z" fill="var(--mw-icon-background-default-medium-gray, #D9D9D9)" stroke="var(--mw-icon-border-default-gray, #616161)"/>
<path d="M2 14C2 13.4477 2.44772 13 3 13C3.55228 13 4 13.4477 4 14C4 14.5523 3.55228 15 3 15C2.44772 15 2 14.5523 2 14Z" fill="var(--mw-icon-glyph-content-green, #008014)"/>
<path d="M6.5 13.5H14.5M6.5 15.5H11.5" stroke="var(--mw-icon-glyph-content-gray, #616162)" stroke-linecap="round"/>
<path d="M0.5 11.5833H18.5V1.50001C18.5 0.947723 18.0523 0.50001 17.5 0.50001H1.5C0.947716 0.50001 0.5 0.947725 0.5 1.50001V11.5833Z" fill="var(--mw-icon-background-default-white, #FFFFFF)"/>
<path d="M0.5 6.4998C3.53472 1.22202 6.46528 1.22222 9.5 6.5C12 10.5001 15.4653 10.7776 18.5 5.49977" stroke="#0072BD" stroke-linecap="round"/>
<path d="M0.5 11.4998H18.5V2.50001C18.5 1.39544 17.6046 0.50001 16.5 0.50001H2.5C1.39543 0.50001 0.5 1.39544 0.5 2.50001V11.4998Z" stroke="var(--mw-icon-border-default-gray, #616161)"/>
<rect x="9.5" y="9.5" width="14" height="14" rx="2" fill="var(--mw-icon-glyph-content-gray, #616162)" stroke="var(--mw-icon-border-default-gray, #616161)"/>
<path d="M13.5 12C13.5 11.7239 13.7239 11.5 14 11.5H19C19.2761 11.5 19.5 11.7239 19.5 12V21C19.5 21.2761 19.2761 21.5 19 21.5H14C13.7239 21.5 13.5 21.2761 13.5 21V12Z" stroke="var(--mw-icon-background-default-white, #FFFFFF)" stroke-linejoin="round"/>
<path d="M11.5 12.5H13M20 12.5H21.5M11.5 14.5H13M20 14.5H21.5M11.5 16.5H13M20 16.5H21.5M11.5 18.5H13M20 18.5H21.5M11.5 20.5H13M20 20.5H21.5" stroke="white" stroke-linecap="round"/>
</svg>
