<svg width="24" height="24" viewBox="0 0 24 24" fill="none" xmlns="http://www.w3.org/2000/svg">
<g id="mergeText">
<path id="Vector 276" d="M21.5 0.5H9.5C8.39543 0.5 7.5 1.39543 7.5 2.5V21.5C7.5 22.6046 8.39543 23.5 9.5 23.5H21.5C22.6046 23.5 23.5 22.6046 23.5 21.5V2.5C23.5 1.39543 22.6046 0.5 21.5 0.5Z" fill="var(--mw-icon-background-default-white, #FFFFFF)" stroke="var(--mw-icon-border-default-gray, #616161)" stroke-linecap="round"/>
<path id="Vector 277" d="M10.5 3.5H18.5" stroke="var(--mw-icon-border-default-gray, #616161)" stroke-linecap="round"/>
<rect id="Rectangle 1410" x="13" y="5" width="10" height="9" fill="var(--mw-icon-background-light-yellow, #FFF5BC)"/>
<path id="Vector 280" d="M16 12.5H21" stroke="#674C06" stroke-linecap="round"/>
<path id="Vector 281" d="M10.5 15.5H18.5" stroke="var(--mw-icon-border-default-gray, #616161)" stroke-linecap="round"/>
<path id="Vector 282" d="M10.5 18.5H16.5" stroke="var(--mw-icon-border-default-gray, #616161)" stroke-linecap="round"/>
<path id="Vector 548" d="M0.5 7L0.5 12H4.5L4.5 16L13.5 9.5L4.5 3L4.5 7H0.5Z" fill="var(--mw-icon-background-medium-yellow, #FFEF91)" stroke="#674C06"/>
<path id="Vector 278" d="M16 6.5H21" stroke="#674C06" stroke-linecap="round"/>
<path id="Vector 279" d="M16 9.5H18" stroke="#674C06" stroke-linecap="round"/>
</g>
</svg>
