<svg width="24" height="24" viewBox="0 0 24 24" fill="none" xmlns="http://www.w3.org/2000/svg">
<rect x="1" y="12" width="8" height="8" fill="var(--mw-icon-background-default-medium-gray, #D9D9D9)"/>
<path d="M0.5 15.5C0.5 15.5 3 11 5 15.5C7 20 9.5 15.5 9.5 15.5" stroke="#D95319" stroke-linejoin="round"/>
<rect x="0.5" y="11.5" width="9" height="9" rx="1" stroke="var(--mw-icon-border-default-gray, #616161)"/>
<rect x="1" y="1" width="8" height="8" fill="var(--mw-icon-background-default-medium-gray, #D9D9D9)"/>
<path d="M0.5 4.50002C0.5 4.50002 3 4.673e-05 5 4.50002C7 9 9.5 4.50002 9.5 4.50002" stroke="#0072BD" stroke-linejoin="round"/>
<rect x="0.5" y="0.5" width="9" height="9" rx="1" stroke="var(--mw-icon-border-default-gray, #616161)"/>
<rect x="8" y="8" width="16" height="16" rx="2" fill="var(--mw-icon-background-default-white, #FFFFFF)"/>
<path d="M8.5 17.5C8.5 17.5 10.9849 13 12.9728 17.5C14.9607 22 17.4455 17.5 17.4455 17.5C17.4455 17.5 19.9304 13 21.9183 17.5C22.4296 18.6573 22.9737 19.2194 23.5 19.4157" stroke="#D95319" stroke-linejoin="round"/>
<path d="M8.5 15.5L8.98561 14.4927C11.0812 10.1456 14.1023 10.5795 16 15.5C17.8977 20.4205 20.9188 20.8544 23.0144 16.5073L23.5 15.5" stroke="#0072BD"/>
<rect x="8.5" y="8.5" width="15" height="15" rx="1.5" stroke="var(--mw-icon-border-default-gray, #616161)"/>
<path d="M14.5 5.5L11.5 5.5L16 11L20.5 5.5L17.5 5.5L17.5 4.5C17.5 2.29086 15.7091 0.5 13.5 0.5L9 0.5C11.2091 0.5 14.5 1.79086 14.5 4L14.5 5.5Z" fill="var(--mw-icon-background-default-action, #CBFFBE)" stroke="var(--mw-icon-border-default-green, #008013)" stroke-linecap="square"/>
</svg>
