<svg width="24" height="24" viewBox="0 0 24 24" fill="none" xmlns="http://www.w3.org/2000/svg">
<path d="M5 5.5L10.5 5.5C11.0523 5.5 11.5 5.94772 11.5 6.5M11.5 6.5V11.5M11.5 6.5C11.5 5.94772 11.9477 5.5 12.5 5.5L18 5.5" stroke="var(--mw-icon-object-primary, #616160)" stroke-linecap="round" stroke-linejoin="round"/>
<path d="M11.5 13L14 10H9L11.5 13Z" fill="var(--mw-icon-object-primary, #616160)"/>
<rect x="14.5" y="22.5" width="6" height="9" transform="rotate(180 14.5 22.5)" fill="var(--mw-icon-background-default-selection, #B4DEFF)" stroke="var(--mw-icon-border-default-blue, #1656A7)" stroke-linejoin="round"/>
<path d="M21.5 9.5H17.5V1.5H21.5V9.5Z" fill="var(--mw-icon-background-medium-yellow, #FFEF91)"/>
<path d="M5.5 9.5H1.5V1.5H5.5V9.5Z" fill="var(--mw-icon-background-medium-yellow, #FFEF91)"/>
<path d="M21.5 9.5H17.5V1.5H21.5V9.5Z" stroke="#674C06" stroke-linejoin="round"/>
<path d="M5.5 9.5H1.5V1.5H5.5V9.5Z" stroke="#674C06" stroke-linejoin="round"/>
</svg>
