<svg width="24" height="24" viewBox="0 0 24 24" fill="none" xmlns="http://www.w3.org/2000/svg">
<path d="M0.5 15.9595V7.04054L11.5 0.5L22.5 7.04054V15.9595L11.5 22.5L0.5 15.9595Z" fill="var(--mw-icon-background-default-white, #FFFFFF)"/>
<path d="M11.5 9.71621L11.5034 0.847015L22.2219 7.19151V16.0323L11.5 9.71621Z" fill="var(--mw-icon-background-default-light-gray, #F5F5F5)"/>
<path d="M11.5 9.71621L11.4966 0.847015L0.778089 7.19959L0.778091 16.0323L11.5 9.71621Z" fill="#E6E6E6"/>
<path d="M22.5 15.9595V7.01619L11.5 0.5L0.5 7.0227" stroke="#BFBFBF" stroke-linecap="round" stroke-linejoin="round"/>
<path d="M0.5 7.04054V15.9773L11.5 22.5L22.5 15.9804" stroke="var(--mw-icon-border-default-gray, #616161)" stroke-linecap="round" stroke-linejoin="round"/>
<path d="M2.5 14.5V8.5751L6.5 10.5L11.5 13.5L16.5 10.5L20.5 8.5751V14.5L16.5 16.9444L11.5 20L6.5 16.9444L2.5 14.5Z" fill="var(--mw-icon-border-default-green, #008013)"/>
<path d="M2.5 14.5V8.5751L6.5 10.5M2.5 14.5L6.5 10.5M2.5 14.5L11.5 20M20.5 14.5V8.5751L16.5 10.5M20.5 14.5L11.5 20M20.5 14.5L16.5 10.5M11.5 20L16.5 10.5M11.5 20L6.5 10.5M11.5 20V13.5M11.5 13.5L16.5 10.5M11.5 13.5L6.5 10.5M16.5 10.5V17M6.5 10.5V17" stroke="#013E0A" stroke-linejoin="round"/>
<path d="M2.5 8.5L11.5 3.5L20.5 8.5L11.5 13.5L2.5 8.5Z" fill="#FEC04C"/>
<path d="M2.5 8.5L11.5 3.5M2.5 8.5H20.5M2.5 8.5L11.5 13.5M11.5 3.5L20.5 8.5M11.5 3.5V13.5M20.5 8.5L11.5 13.5" stroke="#4A3A19" stroke-linejoin="round"/>
</svg>
