<svg width="24" height="24" viewBox="0 0 24 24" fill="none" xmlns="http://www.w3.org/2000/svg">
<path d="M11.5 1.5C5.42487 1.5 0.5 6.42487 0.5 12.5C0.5 15.924 2.047 19.4826 4.5 21.5H18.5C20.953 19.4826 22.5 15.924 22.5 12.5C22.5 6.42487 17.5751 1.5 11.5 1.5Z" fill="var(--mw-icon-background-default-white, #FFFFFF)" stroke="var(--mw-icon-border-default-gray, #616161)" stroke-linejoin="round"/>
<circle cx="11.5" cy="12.5" r="1" stroke="#A2142F"/>
<path d="M10.1464 11.8536L10.5 12.2071L11.2071 11.5L10.8536 11.1464L10.1464 11.8536ZM6.85355 7.14645C6.65829 6.95118 6.34171 6.95118 6.14645 7.14645C5.95118 7.34171 5.95118 7.65829 6.14645 7.85355L6.85355 7.14645ZM10.8536 11.1464L6.85355 7.14645L6.14645 7.85355L10.1464 11.8536L10.8536 11.1464Z" fill="#A2142F"/>
<path d="M5 6L4 5" stroke="var(--mw-icon-border-default-gray, #616161)" stroke-linecap="round" stroke-linejoin="round"/>
<path d="M11.5 4.5L11.5 1.5" stroke="var(--mw-icon-border-default-gray, #616161)" stroke-linecap="round" stroke-linejoin="round"/>
<path d="M4 21L6.5 18.5" stroke="var(--mw-icon-border-default-gray, #616161)" stroke-linecap="round" stroke-linejoin="round"/>
<path d="M19 21L16.5 18.5" stroke="var(--mw-icon-border-default-gray, #616161)" stroke-linecap="round" stroke-linejoin="round"/>
<path d="M3.5 12.5L0.5 12.5" stroke="var(--mw-icon-border-default-gray, #616161)" stroke-linecap="round" stroke-linejoin="round"/>
<path d="M19 5L16.5 7.5" stroke="var(--mw-icon-border-default-gray, #616161)" stroke-linecap="round" stroke-linejoin="round"/>
<path d="M19.5 12.5L22.5 12.5" stroke="var(--mw-icon-border-default-gray, #616161)" stroke-linecap="round" stroke-linejoin="round"/>
</svg>
