<svg width="24" height="24" viewBox="0 0 24 24" fill="none" xmlns="http://www.w3.org/2000/svg">
<path d="M0.5 4.5H21.5V13.5C21.5 14.0523 21.0523 14.5 20.5 14.5H1.5C0.947715 14.5 0.5 14.0523 0.5 13.5V4.5Z" fill="var(--mw-icon-background-default-white, #FFFFFF)" stroke="var(--mw-icon-border-default-gray, #616161)"/>
<path d="M3.5 7.5H18.5M3.5 9.5H14.5M3.5 11.5H9" stroke="var(--mw-icon-glyph-content-gray, #616162)" stroke-linecap="round"/>
<path d="M0.5 1.5C0.5 0.947715 0.947715 0.5 1.5 0.5H20.5C21.0523 0.5 21.5 0.947715 21.5 1.5V4.5H0.5V1.5Z" fill="var(--mw-icon-background-default-selection, #B4DEFF)" stroke="var(--mw-icon-border-default-blue, #1656A7)"/>
<path d="M6.5 2.5H16.5" stroke="var(--mw-icon-glyph-content-blue, #1656A8)" stroke-linecap="round"/>
<path d="M22.5 23.5C23.0523 23.5 23.5 23.0523 23.5 22.5L23.5 13.5C23.5 12.9477 23.0523 12.5 22.5 12.5L13.5 12.5C12.9477 12.5 12.5 12.9477 12.5 13.5L12.5 22.5C12.5 23.0523 12.9477 23.5 13.5 23.5L22.5 23.5Z" fill="white" stroke="var(--mw-icon-border-default-gray, #616161)"/>
<path d="M14.5462 14H15.7456L18 20.1703L20.249 14H21.4485L18.4712 22H17.5181L14.5462 14ZM14 14H15.1406L15.3387 19.3407V22H14V14ZM20.8541 14H22V22H20.656V19.3407L20.8541 14Z" fill="var(--mw-icon-glyph-content-gray, #616162)"/>
</svg>
