<svg width="24" height="24" viewBox="0 0 24 24" fill="none" xmlns="http://www.w3.org/2000/svg">
<path d="M6.5 1C6.5 0.723858 6.72386 0.5 7 0.5H16C16.2761 0.5 16.5 0.723858 16.5 1V5.5H6.5V1Z" fill="#EDB120"/>
<path d="M0.5 19.5H22.5V22C22.5 22.2761 22.2761 22.5 22 22.5H1C0.723857 22.5 0.5 22.2761 0.5 22V19.5Z" fill="#EDB120"/>
<path d="M16.5 5.5V6C16.7761 6 17 5.77614 17 5.5H16.5ZM6.5 5.5H6C6 5.77614 6.22386 6 6.5 6V5.5ZM0.5 19.5V19H0V19.5H0.5ZM22.5 19.5H23V19H22.5V19.5ZM7 1H16V0H7V1ZM16 1V5.5H17V1H16ZM16.5 5H6.5V6H16.5V5ZM7 5.5V1H6V5.5H7ZM0.5 20H22.5V19H0.5V20ZM22 19.5V22H23V19.5H22ZM22 22H1V23H22V22ZM1 22V19.5H0V22H1ZM1 22L1 22H0C0 22.5523 0.447714 23 1 23V22ZM22 22L22 22V23C22.5523 23 23 22.5523 23 22H22ZM16 1L16 1H17C17 0.447715 16.5523 0 16 0V1ZM7 0C6.44772 0 6 0.447716 6 1H7L7 1V0Z" fill="#745A26"/>
<path d="M0.5 5.5C0.5 4.94772 0.947715 4.5 1.5 4.5H21.5C22.0523 4.5 22.5 4.94772 22.5 5.5V19.5H0.5V5.5Z" fill="var(--mw-icon-glyph-content-green, #008014)" stroke="#013E0A"/>
</svg>
