<svg width="24" height="24" viewBox="0 0 24 24" fill="none" xmlns="http://www.w3.org/2000/svg">
<path d="M0.5 2.5C0.5 1.39543 1.39543 0.5 2.5 0.5H20.5C21.6046 0.5 22.5 1.39543 22.5 2.5V20.5C22.5 21.6046 21.6046 22.5 20.5 22.5H2.5C1.39543 22.5 0.5 21.6046 0.5 20.5V2.5Z" fill="var(--mw-icon-background-default-white, #FFFFFF)" stroke="var(--mw-icon-border-default-gray, #616161)"/>
<path fill-rule="evenodd" clip-rule="evenodd" d="M4.50007 4.5C3.94779 4.5 3.50007 4.94771 3.50007 5.49999L3.5 17.5C3.5 18.0523 3.94771 18.5 4.5 18.5H18.5C19.0523 18.5 19.5 18.0523 19.5 17.5V5.5C19.5 4.94772 19.0523 4.5 18.5 4.5H4.50007ZM16.5 9.5H6.49999V13.5H16.5V9.5Z" fill="#EDB120" stroke="#745A26" stroke-linejoin="round"/>
</svg>
