<svg width="24" height="24" viewBox="0 0 24 24" fill="none" xmlns="http://www.w3.org/2000/svg">
<path d="M0.5 5.5H22.5V21.5C22.5 22.6046 21.6046 23.5 20.5 23.5H2.5C1.39543 23.5 0.5 22.6046 0.5 21.5V5.5Z" fill="var(--mw-icon-background-default-white, #FFFFFF)" stroke="var(--mw-icon-border-default-gray, #616161)"/>
<path d="M0.5 2.5C0.5 1.39543 1.39543 0.5 2.5 0.5H20.5C21.6046 0.5 22.5 1.39543 22.5 2.5V5.5H0.5V2.5Z" fill="var(--mw-icon-background-default-selection, #B4DEFF)" stroke="var(--mw-icon-border-default-blue, #1656A7)"/>
<path d="M1 6H3V20H1V6Z" fill="var(--mw-icon-background-default-medium-gray, #D9D9D9)"/>
<path d="M20 6H22V20H20V6Z" fill="var(--mw-icon-background-default-medium-gray, #D9D9D9)"/>
<path d="M0.5 5.5H3.5V19.5C3.5 20.0523 3.05228 20.5 2.5 20.5H0.5M22.5 5.5H19.5V19.5C19.5 20.0523 19.9477 20.5 20.5 20.5H22.5" stroke="var(--mw-icon-glyph-content-gray, #616162)"/>
<path d="M5.5 7.5L7.5 9.5L5.5 11.5M8.5 7.5L10.5 9.5L8.5 11.5" stroke="var(--mw-icon-glyph-content-gray, #616162)" stroke-linecap="round" stroke-linejoin="round"/>
<path d="M0.5 2.5C0.5 1.39543 1.39543 0.5 2.5 0.5H20.5C21.6046 0.5 22.5 1.39543 22.5 2.5V5.5H0.5V2.5Z" fill="var(--mw-icon-background-default-selection, #B4DEFF)" stroke="var(--mw-icon-border-default-blue, #1656A7)"/>
</svg>
