<svg width="24" height="24" viewBox="0 0 24 24" fill="none" xmlns="http://www.w3.org/2000/svg">
<rect x="0.5" y="0.5" width="22" height="22" rx="2" fill="var(--mw-icon-background-default-white, #FFFFFF)" stroke="var(--mw-icon-glyph-disabled-gray, #888889)"/>
<path d="M13 9.5H10C9.72386 9.5 9.5 9.72386 9.5 10V13C9.5 13.2761 9.72386 13.5 10 13.5H13C13.2761 13.5 13.5 13.2761 13.5 13V10C13.5 9.72386 13.2761 9.5 13 9.5Z" stroke="var(--mw-icon-glyph-content-light-blue, #278CDD)" stroke-linecap="square"/>
<path d="M14.5 4.5V8.5M14.5 8.5H18.5M14.5 8.5L19.5 3.5M8.5 4.5V8.5M8.5 8.5H4.5M8.5 8.5L3.5 3.5M3.5 19.5L8.5 14.5M8.5 14.5L8.5 18.5M8.5 14.5L4.5 14.5M19.5 19.5L14.5 14.5M14.5 14.5V18.5M14.5 14.5H18.5" stroke="var(--mw-icon-glyph-content-gray, #616162)" stroke-linecap="round" stroke-linejoin="round"/>
</svg>
