<svg width="24" height="24" viewBox="0 0 24 24" fill="none" xmlns="http://www.w3.org/2000/svg">
<path d="M0.5 2.5C0.5 1.39543 1.39543 0.5 2.5 0.5H20.5C21.6046 0.5 22.5 1.39543 22.5 2.5V20.5C22.5 21.6046 21.6046 22.5 20.5 22.5H2.5C1.39543 22.5 0.5 21.6046 0.5 20.5V2.5Z" fill="var(--mw-icon-background-default-white, #FFFFFF)" stroke="var(--mw-icon-border-default-gray, #616161)" stroke-linejoin="round"/>
<path d="M5.51825 1.79926C4.46509 1.36304 3.34943 1.10181 2.21527 1.02438L2.25006 1H6.19049C7.47174 1.57236 8.63824 2.37476 9.63177 3.36829C10.6996 4.43616 11.5468 5.70389 12.1247 7.09915C12.7026 8.49438 13.0001 9.98981 13.0001 11.5C13.0001 13.0102 12.7026 14.5056 12.1247 15.9008C11.5468 17.2961 10.6996 18.5638 9.63177 19.6317C8.63824 20.6252 7.47174 21.4277 6.19049 22H2.23615L2.19067 21.9773C3.33331 21.9019 4.45746 21.6401 5.51825 21.2007C6.79218 20.6731 7.94965 19.8996 8.92468 18.9246C9.89972 17.9496 10.6731 16.7921 11.2008 15.5182C11.7285 14.2443 12.0001 12.8789 12.0001 11.5C12.0001 10.1211 11.7285 8.75574 11.2008 7.48181C10.6732 6.20792 9.89972 5.05038 8.92468 4.07538C7.94965 3.10037 6.79218 2.32693 5.51825 1.79926Z" fill="var(--mw-icon-glyph-content-gray, #616162)"/>
<path d="M14.5 14.5V8.5L20.5 14.5H14.5Z" fill="var(--mw-icon-background-medium-blue, #83CAFF)" stroke="var(--mw-icon-glyph-content-blue, #1656A8)"/>
<path d="M9.5 8.5L3.5 14.5H9.5V8.5Z" fill="var(--mw-icon-background-medium-blue, #83CAFF)" stroke="var(--mw-icon-glyph-content-blue, #1656A8)"/>
</svg>
