<svg width="24" height="24" viewBox="0 0 24 24" fill="none" xmlns="http://www.w3.org/2000/svg">
<path d="M0.5 18.5V4.5C0.5 2.29086 2.29086 0.5 4.5 0.5H18.5C20.7091 0.5 22.5 2.29086 22.5 4.5V18.5C22.5 20.7091 20.7091 22.5 18.5 22.5H4.5C2.29086 22.5 0.5 20.7091 0.5 18.5Z" fill="#00A3A3"/>
<path d="M18.5 11.5V3.5H4.5V11.5H18.5Z" fill="var(--mw-icon-background-default-highlight, #FFE864)" stroke="var(--mw-icon-border-default-yellow, #674C06)" stroke-linecap="square" stroke-linejoin="round"/>
<path d="M11.5 12.5V13.5H16.5V14.5" stroke="#02555C" stroke-linecap="square" stroke-linejoin="round"/>
<path d="M11.5 12.5V13.5H6.5V14.5" stroke="#02555C" stroke-linecap="square" stroke-linejoin="round"/>
<path d="M20.5 19.5V15.5H12.5V19.5H20.5Z" fill="var(--mw-icon-background-default-highlight, #FFE864)" stroke="var(--mw-icon-border-default-yellow, #674C06)" stroke-linecap="square" stroke-linejoin="round"/>
<path d="M10.5 19.5V15.5H2.5V19.5H10.5Z" fill="var(--mw-icon-background-default-highlight, #FFE864)" stroke="var(--mw-icon-border-default-yellow, #674C06)" stroke-linecap="square" stroke-linejoin="round"/>
<path d="M4.5 7.5C5.43333 4.83333 6.36667 4.83333 7.3 7.5C8.23333 10.1667 9.16667 10.1667 10.1 7.5C11.0333 4.83333 11.9667 4.83333 12.9 7.5C13.8333 10.1667 14.7667 10.1667 15.7 7.5C16.6333 4.83333 17.5667 4.83333 18.5 7.5" stroke="var(--mw-icon-glyph-content-dark-gray, #333333)"/>
<path d="M18.5 11.5V3.5H4.5V11.5H18.5Z" stroke="var(--mw-icon-border-default-yellow, #674C06)" stroke-linecap="square" stroke-linejoin="round"/>
<path d="M0.5 18.5V4.5C0.5 2.29086 2.29086 0.5 4.5 0.5H18.5C20.7091 0.5 22.5 2.29086 22.5 4.5V18.5C22.5 20.7091 20.7091 22.5 18.5 22.5H4.5C2.29086 22.5 0.5 20.7091 0.5 18.5Z" stroke="#02555C" stroke-linecap="round"/>

</svg>
