<svg width="24" height="24" viewBox="0 0 24 24" fill="none" xmlns="http://www.w3.org/2000/svg">
<g id="modelHierachy">
<path id="Vector 468" d="M11.5 11.5V15.5H5.5V16.5" stroke="var(--mw-icon-glyph-disabled-gray, #888889)" stroke-linecap="square" stroke-linejoin="round"/>
<path id="Vector 469" d="M11.5 10.5V15.5H17.5V16.5" stroke="var(--mw-icon-glyph-disabled-gray, #888889)" stroke-linecap="square" stroke-linejoin="round"/>
<path id="Vector 470" d="M0.5 22V18C0.5 17.7239 0.723858 17.5 1 17.5H10C10.2761 17.5 10.5 17.7239 10.5 18V22C10.5 22.2761 10.2761 22.5 10 22.5H1C0.723858 22.5 0.5 22.2761 0.5 22Z" fill="var(--mw-icon-background-default-medium-gray, #D9D9D9)" stroke="var(--mw-icon-border-default-gray, #616161)" stroke-linecap="square"/>
<path id="Vector 471" d="M12.5 22V18C12.5 17.7239 12.7239 17.5 13 17.5H22C22.2761 17.5 22.5 17.7239 22.5 18V22C22.5 22.2761 22.2761 22.5 22 22.5H13C12.7239 22.5 12.5 22.2761 12.5 22Z" fill="var(--mw-icon-background-default-medium-gray, #D9D9D9)" stroke="var(--mw-icon-border-default-gray, #616161)" stroke-linecap="square"/>
<path id="Vector 121" d="M8.5 3.5H11.5V7" stroke="var(--mw-icon-glyph-disabled-gray, #888889)" stroke-linecap="square" stroke-linejoin="round"/>
<path id="triangle" d="M4.5 6.5V0.5L9.5 3.5L4.5 6.5Z" fill="var(--mw-icon-background-default-selection, #B4DEFF)" stroke="var(--mw-icon-glyph-content-blue, #1656A8)" stroke-linejoin="round"/>
<path id="square" d="M9.5 8C9.5 7.72386 9.72386 7.5 10 7.5H13C13.2761 7.5 13.5 7.72386 13.5 8V11C13.5 11.2761 13.2761 11.5 13 11.5H10C9.72386 11.5 9.5 11.2761 9.5 11V8Z" fill="var(--mw-icon-background-red, #FF9D9A)" stroke="var(--mw-icon-glyph-content-red, #902623)"/>
</g>
</svg>
