<svg width="24" height="24" viewBox="0 0 24 24" fill="none" xmlns="http://www.w3.org/2000/svg">
<g id="modelInstance">
<path id="Vector 468" d="M11.5 12.5V16.5H5.5V17.5" stroke="var(--mw-icon-glyph-disabled-gray, #888889)" stroke-linecap="square" stroke-linejoin="round"/>
<path id="Vector 469" d="M11.5 11.5V16.5H17.5V17.5" stroke="var(--mw-icon-glyph-disabled-gray, #888889)" stroke-linecap="square" stroke-linejoin="round"/>
<path id="Vector 470" d="M0.5 23V19C0.5 18.7239 0.723858 18.5 1 18.5H10C10.2761 18.5 10.5 18.7239 10.5 19V23C10.5 23.2761 10.2761 23.5 10 23.5H1C0.723858 23.5 0.5 23.2761 0.5 23Z" fill="var(--mw-icon-background-default-medium-gray, #D9D9D9)" stroke="var(--mw-icon-border-default-gray, #616161)" stroke-linecap="square"/>
<path id="Vector 471" d="M12.5 23V19C12.5 18.7239 12.7239 18.5 13 18.5H22C22.2761 18.5 22.5 18.7239 22.5 19V23C22.5 23.2761 22.2761 23.5 22 23.5H13C12.7239 23.5 12.5 23.2761 12.5 23Z" fill="var(--mw-icon-background-default-medium-gray, #D9D9D9)" stroke="var(--mw-icon-border-default-gray, #616161)" stroke-linecap="square"/>
<path id="box" d="M4.5 1.5C4.5 0.947716 4.94772 0.5 5.5 0.5H17.5C18.0523 0.5 18.5 0.947715 18.5 1.5V13.5C18.5 14.0523 18.0523 14.5 17.5 14.5H5.5C4.94772 14.5 4.5 14.0523 4.5 13.5V1.5Z" fill="var(--mw-icon-background-default-white, #FFFFFF)" stroke="var(--mw-icon-border-default-gray, #616161)"/>
<path id="Vector 121" d="M8.5 5H13.5V8" stroke="var(--mw-icon-glyph-disabled-gray, #888889)" stroke-linecap="square" stroke-linejoin="round"/>
<path id="triangle" d="M7.5 7.5V2.5L11.5 5L7.5 7.5Z" fill="var(--mw-icon-background-default-selection, #B4DEFF)" stroke="var(--mw-icon-glyph-content-blue, #1656A8)" stroke-linejoin="round"/>
<path id="square" d="M11.5 9C11.5 8.72386 11.7239 8.5 12 8.5H15C15.2761 8.5 15.5 8.72386 15.5 9V12C15.5 12.2761 15.2761 12.5 15 12.5H12C11.7239 12.5 11.5 12.2761 11.5 12V9Z" fill="var(--mw-icon-background-red, #FF9D9A)" stroke="var(--mw-icon-glyph-content-red, #902623)"/>
</g>
</svg>
