<svg width="24" height="24" viewBox="0 0 24 24" fill="none" xmlns="http://www.w3.org/2000/svg">
<path d="M0.5 18.5V4.5C0.5 2.29086 2.29086 0.5 4.5 0.5H18.5C20.7091 0.5 22.5 2.29086 22.5 4.5V18.5C22.5 20.7091 20.7091 22.5 18.5 22.5H4.5C2.29086 22.5 0.5 20.7091 0.5 18.5Z" fill="var(--mw-icon-background-default-action, #CBFFBE)"/>
<path d="M0.5 18.5V4.5C0.5 2.29086 2.29086 0.5 4.5 0.5H18.5C20.7091 0.5 22.5 2.29086 22.5 4.5V18.5C22.5 20.7091 20.7091 22.5 18.5 22.5H4.5C2.29086 22.5 0.5 20.7091 0.5 18.5Z" stroke="var(--mw-icon-glyph-content-green, #008014)" stroke-linecap="round"/>
<rect x="9" y="4" width="5" height="15" fill="var(--mw-icon-glyph-content-gray, #616162)"/>
<rect x="3" y="12" width="5" height="7" fill="var(--mw-icon-glyph-content-gray, #616162)"/>
<rect x="15" y="9" width="5" height="10" fill="var(--mw-icon-glyph-content-gray, #616162)"/>
</svg>
