<svg width="24" height="24" viewBox="0 0 24 24" fill="none" xmlns="http://www.w3.org/2000/svg">
<path d="M0.5 8.5H22.5V19.5C22.5 21.7091 20.7091 23.5 18.5 23.5H4.5C2.29086 23.5 0.5 21.7091 0.5 19.5V8.5Z" fill="var(--mw-icon-background-lightest-blue, #E2F0FF)"/>
<path d="M7.5 17V15.5H11.5M15.5 17V15.5H11.5M11.5 15.5V14" stroke="var(--mw-icon-glyph-content-gray, #616162)" stroke-linejoin="round"/>
<path d="M4.5 20.5V17.5H10.5V20.5H4.5Z" fill="var(--mw-icon-background-default-selection, #B4DEFF)"/>
<path d="M12.5 20.5V17.5H18.5V20.5H12.5Z" fill="var(--mw-icon-background-default-selection, #B4DEFF)"/>
<path d="M4.5 20.5V17.5H10.5V20.5H4.5Z" stroke="var(--mw-icon-glyph-content-blue, #1656A8)" stroke-linejoin="round"/>
<path d="M12.5 20.5V17.5H18.5V20.5H12.5Z" stroke="var(--mw-icon-glyph-content-blue, #1656A8)" stroke-linejoin="round"/>
<path d="M8.5 13.5V10.5H14.5V13.5H8.5Z" fill="var(--mw-icon-background-default-selection, #B4DEFF)" stroke="var(--mw-icon-glyph-content-blue, #1656A8)" stroke-linejoin="round"/>
<path d="M0.5 8.5H22.5V19.5C22.5 21.7091 20.7091 23.5 18.5 23.5H4.5C2.29086 23.5 0.5 21.7091 0.5 19.5V8.5Z" stroke="var(--mw-icon-border-default-blue, #1656A7)" stroke-linejoin="round"/>
<path d="M0.5 4.5C0.5 2.29086 2.29086 0.5 4.5 0.5H18.5C20.7091 0.5 22.5 2.29086 22.5 4.5V8.5H0.5V4.5Z" fill="var(--mw-icon-background-default-white, #FFFFFF)"/>
<path d="M2 3.5C2 3.22386 2.22386 3 2.5 3H5.5C5.77614 3 6 3.22386 6 3.5V8H2V3.5Z" fill="var(--mw-icon-glyph-content-blue, #1656A8)"/>
<path d="M12 2.5C12 2.22386 12.2239 2 12.5 2H15.5C15.7761 2 16 2.22386 16 2.5V8H12V2.5Z" fill="var(--mw-icon-glyph-content-blue, #1656A8)"/>
<path d="M7 6.5C7 6.22386 7.22386 6 7.5 6H10.5C10.7761 6 11 6.22386 11 6.5V8H7V6.5Z" fill="var(--mw-icon-glyph-content-light-blue, #278CDD)"/>
<path d="M17 5.5C17 5.22386 17.2239 5 17.5 5H20.5C20.7761 5 21 5.22386 21 5.5V8H17V5.5Z" fill="var(--mw-icon-glyph-content-light-blue, #278CDD)"/>
<path d="M0.5 4.5C0.5 2.29086 2.29086 0.5 4.5 0.5H18.5C20.7091 0.5 22.5 2.29086 22.5 4.5V8.5H0.5V4.5Z" stroke="var(--mw-icon-glyph-content-blue, #1656A8)"/>
</svg>
