<svg width="24" height="24" viewBox="0 0 24 24" fill="none" xmlns="http://www.w3.org/2000/svg">
<rect x="0.5" y="0.5" width="22" height="22" rx="2" fill="var(--mw-icon-background-default-white, #FFFFFF)" stroke="var(--mw-icon-border-default-gray, #616161)"/>
<path d="M3 11H8V22H3V11Z" fill="var(--mw-icon-glyph-content-blue, #1656A8)"/>
<path d="M9 6H14V22H9V6Z" fill="var(--mw-icon-glyph-content-blue, #1656A8)"/>
<path d="M15 17H20V22H15V17Z" fill="var(--mw-icon-glyph-content-blue, #1656A8)"/>
<path d="M5.5 15.5L11.5 10.5L17.5 3.5" stroke="#EDB120"/>
<path d="M7 15.5C7 16.3284 6.32843 17 5.5 17C4.67157 17 4 16.3284 4 15.5C4 14.6716 4.67157 14 5.5 14C6.32843 14 7 14.6716 7 15.5Z" fill="#EDB120"/>
<path d="M13 10.5C13 11.3284 12.3284 12 11.5 12C10.6716 12 10 11.3284 10 10.5C10 9.67157 10.6716 9 11.5 9C12.3284 9 13 9.67157 13 10.5Z" fill="#EDB120"/>
<path d="M19 3.5C19 4.32843 18.3284 5 17.5 5C16.6716 5 16 4.32843 16 3.5C16 2.67157 16.6716 2 17.5 2C18.3284 2 19 2.67157 19 3.5Z" fill="#EDB120"/>
</svg>
