<svg width="24" height="24" viewBox="0 0 24 24" fill="none" xmlns="http://www.w3.org/2000/svg">
<path d="M0.5 2.5C0.5 1.39543 1.39543 0.5 2.5 0.5H20.5C21.6046 0.5 22.5 1.39543 22.5 2.5V20.5C22.5 21.6046 21.6046 22.5 20.5 22.5H2.5C1.39543 22.5 0.5 21.6046 0.5 20.5V2.5Z" fill="var(--mw-icon-background-default-white, #FFFFFF)"/>
<path d="M22.5 11.5L22.5 20.5C22.5 21.6046 21.6046 22.5 20.5 22.5H16.5C16.5 22.5 17.5 11.5 22.5 11.5Z" stroke="#1171BE" stroke-linecap="round" stroke-linejoin="round" stroke-dasharray="2 2"/>
<path d="M11.5 11.5C7.50004 11.5 7.5 22.5 7.5 22.5H15.5C15.5 22.5 15.5 11.5 11.5 11.5Z" stroke="#1171BE" stroke-linecap="round" stroke-linejoin="round" stroke-dasharray="2 2"/>
<path d="M0.500043 11.5L0.500008 20.5C0.500003 21.6046 1.39544 22.5 2.50001 22.5H5.5C5.5 22.5 5.5 11.5 0.500043 11.5Z" fill="#2FBEEF" stroke="#1171BE" stroke-linejoin="round"/>
<path d="M4.5 10.5H6.5V8.5M6.5 0.5V2.5M6.5 4.5V6.5M6.5 12.5V14.5M6.5 16.5V18.5M6.5 20.5V22.5M2.5 10.5H0.5" stroke="#DD5400" stroke-linecap="round" stroke-linejoin="round"/>
<path d="M0.5 2.5C0.5 1.39543 1.39543 0.5 2.5 0.5H20.5C21.6046 0.5 22.5 1.39543 22.5 2.5V20.5C22.5 21.6046 21.6046 22.5 20.5 22.5H2.5C1.39543 22.5 0.5 21.6046 0.5 20.5V2.5Z" stroke="var(--mw-icon-border-default-gray, #616161)" stroke-linejoin="round"/>
</svg>
