<svg width="24" height="24" viewBox="0 0 24 24" fill="none" xmlns="http://www.w3.org/2000/svg">
<path d="M22.5 4.5C22.5 2.29086 20.7091 0.5 18.5 0.5H4.5C2.29086 0.5 0.5 2.29086 0.5 4.5V18.5C0.5 20.7091 2.29086 22.5 4.5 22.5H18.5C20.7091 22.5 22.5 20.7091 22.5 18.5V4.5Z" fill="var(--mw-icon-background-default-light-gray, #F5F5F5)" stroke="var(--mw-icon-border-default-gray, #616161)"/>
<path d="M5.5 16.5L15.5 16.5" stroke="var(--mw-icon-glyph-disabled-gray, #888889)" stroke-linecap="square"/>
<path d="M5.5 14.5C6.60457 14.5 7.5 15.3954 7.5 16.5C7.5 17.6046 6.60457 18.5 5.5 18.5C4.39543 18.5 3.5 17.6046 3.5 16.5C3.5 15.3954 4.39543 14.5 5.5 14.5Z" fill="var(--mw-icon-background-default-medium-gray, #D9D9D9)" stroke="var(--mw-icon-glyph-disabled-gray, #888889)"/>
<path d="M16.5 13C18.433 13 20 14.567 20 16.5C20 18.433 18.433 20 16.5 20C14.567 20 13 18.433 13 16.5C13 14.567 14.567 13 16.5 13Z" fill="var(--mw-icon-background-default-dark-gray, #A6A6A6)"/>
<path d="M16.5 14.5C17.6046 14.5 18.5 15.3954 18.5 16.5C18.5 17.6046 17.6046 18.5 16.5 18.5C15.3954 18.5 14.5 17.6046 14.5 16.5C14.5 15.3954 15.3954 14.5 16.5 14.5Z" fill="var(--mw-icon-background-default-action, #CBFFBE)" stroke="var(--mw-icon-glyph-content-green, #008014)"/>
<path d="M15.5 3.5L17.5 3.5L17.5 7.5L19.5 7.5L16.5 11.5L13.5 7.5L15.5 7.5L15.5 3.5Z" fill="var(--mw-icon-background-default-action, #CBFFBE)" stroke="var(--mw-icon-glyph-content-green, #008014)"/>
<path d="M0.5 4.5V8L8 0.5L4.5 0.5C2.29086 0.500001 0.5 2.29086 0.5 4.5Z" fill="#7D7D7D" stroke="#7D7D7D"/>
<path d="M8.5 4.5V0.5L0.5 8.5H4.5C6.70914 8.5 8.5 6.70914 8.5 4.5Z" fill="var(--mw-icon-background-default-medium-gray, #D9D9D9)"/>
<path d="M8.5 0.5V4.5C8.5 6.70914 6.70914 8.5 4.5 8.5H0.5M8.5 0.5H9.5M8.5 0.5L0.5 8.5M0.5 8.5V9.5" stroke="var(--mw-icon-border-default-gray, #616161)" stroke-linejoin="round"/>
</svg>
