<svg width="24" height="24" viewBox="0 0 24 24" fill="none" xmlns="http://www.w3.org/2000/svg">
<path d="M22.5 4.5C22.5 2.29086 20.7091 0.5 18.5 0.5H4.5C2.29086 0.5 0.5 2.29086 0.5 4.5V18.5C0.5 20.7091 2.29086 22.5 4.5 22.5H18.5C20.7091 22.5 22.5 20.7091 22.5 18.5V4.5Z" fill="var(--mw-icon-background-default-light-gray, #F5F5F5)" stroke="var(--mw-icon-border-default-gray, #616161)"/>
<path d="M5.62592 2L9.07335 9.12322L12.4768 2H14.8386V2.3128C13.5917 2.41232 13.5037 2.4692 13.5477 4.00474L13.665 8.98104C13.709 10.5308 13.7531 10.5735 15 10.673V10.9858H11.2298V10.673C12.4328 10.5735 12.4768 10.5308 12.4621 8.98104L12.4034 3.40758H12.3447L8.8533 10.8436H8.50122L5.20049 3.60664H5.17115L5.02445 7.47393C4.96577 8.76777 4.96577 9.53554 5.02445 9.96208C5.0978 10.4739 5.43521 10.6161 6.35941 10.6872V11H3V10.6872C3.80685 10.6161 4.10024 10.4739 4.20293 9.96208C4.29095 9.53554 4.37897 8.69668 4.45232 7.33175L4.61369 4.43128C4.71638 2.56872 4.61369 2.42654 3.26406 2.32702V2.01422H5.62592V2Z" fill="#08609D"/>
<path d="M10.3704 12.3103L9.94553 12.3668C9.32244 12.4514 9.23747 12.5784 9.43573 13.1708L11.2908 19.0251H11.3192L13.5283 12.127H13.854L16.3464 19.011H16.3747C16.9412 17.2759 17.7342 14.384 17.9749 13.3966C18.1732 12.6066 18.1024 12.4373 17.4793 12.3668L17.0828 12.3103V12H20V12.3103C19.0937 12.4232 18.9946 12.4796 18.5414 13.721C18.4139 14.0596 17.4085 17.2194 16.2614 21H15.8932L13.415 14.2853L13.3867 14.3135L11.1351 21H10.7527L8.35948 13.6364C7.99129 12.4937 7.77887 12.395 7 12.3245V12.0141H10.3845V12.3103H10.3704Z" fill="#08609D"/>
<path d="M0.5 4.5V8L8 0.5L4.5 0.5C2.29086 0.500001 0.5 2.29086 0.5 4.5Z" fill="#7D7D7D" stroke="#7D7D7D"/>
<path d="M8.5 4.5V0.5L0.5 8.5H4.5C6.70914 8.5 8.5 6.70914 8.5 4.5Z" fill="var(--mw-icon-background-default-medium-gray, #D9D9D9)"/>
<path d="M8.5 0.5V4.5C8.5 6.70914 6.70914 8.5 4.5 8.5H0.5M8.5 0.5H9.5M8.5 0.5L0.5 8.5M0.5 8.5V9.5" stroke="var(--mw-icon-border-default-gray, #616161)" stroke-linejoin="round"/>
</svg>
