<svg width="24" height="24" viewBox="0 0 24 24" fill="none" xmlns="http://www.w3.org/2000/svg">
<path d="M22.5 4.5C22.5 2.29086 20.7091 0.5 18.5 0.5H4.5C2.29086 0.5 0.5 2.29086 0.5 4.5V18.5C0.5 20.7091 2.29086 22.5 4.5 22.5H18.5C20.7091 22.5 22.5 20.7091 22.5 18.5V4.5Z" fill="var(--mw-icon-background-default-light-gray, #F5F5F5)" stroke="var(--mw-icon-border-default-gray, #616161)"/>
<path d="M8.5 14.5L17.5 5.5L19.5 7.5L8.5 18.5L3.5 13.5L5.5 11.5L8.5 14.5Z" fill="var(--mw-icon-background-default-action, #CBFFBE)" stroke="var(--mw-icon-glyph-content-green, #008014)" stroke-linejoin="round"/>
<path d="M0.5 4.5V8L8 0.5L4.5 0.5C2.29086 0.500001 0.5 2.29086 0.5 4.5Z" fill="#7D7D7D" stroke="#7D7D7D"/>
<path d="M8.5 4.5V0.5L0.5 8.5H4.5C6.70914 8.5 8.5 6.70914 8.5 4.5Z" fill="var(--mw-icon-background-default-medium-gray, #D9D9D9)"/>
<path d="M8.5 0.5V4.5C8.5 6.70914 6.70914 8.5 4.5 8.5H0.5M8.5 0.5H9.5M8.5 0.5L0.5 8.5M0.5 8.5V9.5" stroke="var(--mw-icon-border-default-gray, #616161)" stroke-linejoin="round"/>
</svg>
