<svg width="24" height="24" viewBox="0 0 24 24" fill="none" xmlns="http://www.w3.org/2000/svg">
<path d="M22.5 4.5C22.5 2.29086 20.7091 0.5 18.5 0.5H4.5C2.29086 0.5 0.5 2.29086 0.5 4.5V18.5C0.5 20.7091 2.29086 22.5 4.5 22.5H18.5C20.7091 22.5 22.5 20.7091 22.5 18.5V4.5Z" fill="var(--mw-icon-background-default-light-gray, #F5F5F5)" stroke="var(--mw-icon-border-default-gray, #616161)"/>
<path fill-rule="evenodd" clip-rule="evenodd" d="M12.1398 10.8602C11.3461 10.0664 10.0592 10.0664 9.26543 10.8602L5.54441 14.5812C4.75067 15.3749 4.75067 16.6618 5.54441 17.4556C6.33814 18.2493 7.62504 18.2493 8.41878 17.4556L10.0135 15.8608C10.3941 15.4803 11.0111 15.4803 11.3917 15.8608C11.7723 16.2414 11.7723 16.8585 11.3917 17.2391L9.797 18.8338C8.24209 20.3887 5.72109 20.3887 4.16618 18.8338C2.61127 17.2789 2.61127 14.7579 4.16618 13.203L7.8872 9.48192C9.44211 7.92701 11.9631 7.92701 13.518 9.48192C13.8986 9.86251 13.8986 10.4796 13.518 10.8602C13.1374 11.2407 12.5204 11.2407 12.1398 10.8602Z" fill="var(--mw-icon-glyph-content-gray, #616162)"/>
<path fill-rule="evenodd" clip-rule="evenodd" d="M10.8602 12.1398C11.6539 12.9336 12.9408 12.9336 13.7346 12.1398L17.4556 8.4188C18.2493 7.62506 18.2493 6.33816 17.4556 5.54442C16.6619 4.75068 15.375 4.75068 14.5812 5.54442L12.9865 7.13915C12.6059 7.51974 11.9889 7.51974 11.6083 7.13915C11.2277 6.75856 11.2277 6.14151 11.6083 5.76092L13.203 4.16619C14.7579 2.61127 17.2789 2.61127 18.8338 4.16619C20.3887 5.7211 20.3887 8.24212 18.8338 9.79704L15.1128 13.5181C13.5579 15.073 11.0369 15.073 9.48198 13.5181C9.10139 13.1375 9.10139 12.5204 9.48198 12.1398C9.86256 11.7593 10.4796 11.7593 10.8602 12.1398Z" fill="var(--mw-icon-glyph-content-gray, #616162)"/>
<path d="M0.5 4.5V8L8 0.5L4.5 0.5C2.29086 0.500001 0.5 2.29086 0.5 4.5Z" fill="#7D7D7D" stroke="#7D7D7D"/>
<path d="M8.5 4.5V0.5L0.5 8.5H4.5C6.70914 8.5 8.5 6.70914 8.5 4.5Z" fill="var(--mw-icon-background-default-medium-gray, #D9D9D9)"/>
<path d="M8.5 0.5V4.5C8.5 6.70914 6.70914 8.5 4.5 8.5H0.5M8.5 0.5H9.5M8.5 0.5L0.5 8.5M0.5 8.5V9.5" stroke="var(--mw-icon-border-default-gray, #616161)" stroke-linejoin="round"/>
</svg>
