<svg width="24" height="24" viewBox="0 0 24 24" fill="none" xmlns="http://www.w3.org/2000/svg">
<path d="M22.5 4.5C22.5 2.29086 20.7091 0.5 18.5 0.5H4.5C2.29086 0.5 0.5 2.29086 0.5 4.5V18.5C0.5 20.7091 2.29086 22.5 4.5 22.5H18.5C20.7091 22.5 22.5 20.7091 22.5 18.5V4.5Z" fill="var(--mw-icon-background-default-light-gray, #F5F5F5)" stroke="var(--mw-icon-border-default-gray, #616161)"/>
<path d="M11.5 4.5L19.5 18.5H12H3.5L11.5 4.5Z" fill="var(--mw-icon-background-medium-yellow, #FFEF91)" stroke="var(--mw-icon-glyph-content-yellow, #674C07)" stroke-linecap="square" stroke-linejoin="round"/>
<path fill-rule="evenodd" clip-rule="evenodd" d="M11.5 9C11.7761 9 12 9.22386 12 9.5V13.5C12 13.7761 11.7761 14 11.5 14C11.2239 14 11 13.7761 11 13.5V9.5C11 9.22386 11.2239 9 11.5 9Z" fill="var(--mw-icon-glyph-content-yellow, #674C07)"/>
<path fill-rule="evenodd" clip-rule="evenodd" d="M11.5 15C11.7761 15 12 15.2239 12 15.5C12 15.7761 11.7761 16 11.5 16C11.2239 16 11 15.7761 11 15.5C11 15.2239 11.2239 15 11.5 15Z" fill="var(--mw-icon-glyph-content-yellow, #674C07)"/>
<path d="M0.5 4.5V8L8 0.5L4.5 0.5C2.29086 0.500001 0.5 2.29086 0.5 4.5Z" fill="#7D7D7D" stroke="#7D7D7D"/>
<path d="M8.5 4.5V0.5L0.5 8.5H4.5C6.70914 8.5 8.5 6.70914 8.5 4.5Z" fill="var(--mw-icon-background-default-medium-gray, #D9D9D9)"/>
<path d="M8.5 0.5V4.5C8.5 6.70914 6.70914 8.5 4.5 8.5H0.5M8.5 0.5H9.5M8.5 0.5L0.5 8.5M0.5 8.5V9.5" stroke="var(--mw-icon-border-default-gray, #616161)" stroke-linejoin="round"/>
</svg>
