<svg width="24" height="24" viewBox="0 0 24 24" fill="none" xmlns="http://www.w3.org/2000/svg">
<path d="M22.5 4.5C22.5 2.29086 20.7091 0.5 18.5 0.5H4.5C2.29086 0.5 0.5 2.29086 0.5 4.5V18.5C0.5 20.7091 2.29086 22.5 4.5 22.5H18.5C20.7091 22.5 22.5 20.7091 22.5 18.5V4.5Z" fill="var(--mw-icon-glyph-content-gray, #616162)" stroke="var(--mw-icon-border-default-gray, #616161)"/>
<path d="M1 11C1 5.47368 5.60526 1.73684 7.07895 1C7.07895 1 5.41857 4.78314 5.06551 7.55979C4.99054 8.14935 5.27981 8.70986 5.75526 9.06645L6.03189 9.27391C6.62521 9.71891 7.41903 9.79049 8.08238 9.45881C8.65707 9.17146 9.05422 8.62045 9.14509 7.98438L10 2L11 5H12L13 2L13.8522 7.9656C13.9448 8.61343 14.3493 9.17463 14.9346 9.46729C15.5908 9.7954 16.3742 9.73671 16.9741 9.31449L17.2905 9.09189C17.8178 8.72081 18.1419 8.11483 18.0532 7.47615C17.6685 4.70781 16 1 16 1C17.4737 1.73684 22 5.47368 22 11C22 16.5263 16.4737 21.2632 15 22C15 22 17.3714 18.6926 17.8975 15.6286C18.0204 14.9123 17.7113 14.2113 17.1975 13.6975L17.1361 13.6361C16.4398 12.9398 15.4099 12.6967 14.4758 13.0081C13.5671 13.311 12.9005 14.089 12.7136 15.0285C12.3898 16.656 11.8608 19 11.5 19C11.1392 19 10.6102 16.656 10.2864 15.0285C10.0995 14.089 9.43294 13.311 8.52422 13.0081C7.59008 12.6967 6.56018 12.9398 5.86391 13.6361L5.83848 13.6615C5.30484 14.1952 5.00554 14.9347 5.15884 15.6736C5.79182 18.7249 8 22 8 22C6.52632 21.2632 1 16.5263 1 11Z" fill="var(--mw-icon-background-default-white, #FFFFFF)"/>
<path d="M0.5 4.5V8L8 0.5L4.5 0.5C2.29086 0.500001 0.5 2.29086 0.5 4.5Z" fill="#7D7D7D" stroke="#7D7D7D"/>
<path d="M8.5 4.5V0.5L0.5 8.5H4.5C6.70914 8.5 8.5 6.70914 8.5 4.5Z" fill="var(--mw-icon-background-default-medium-gray, #D9D9D9)"/>
<path d="M8.5 0.5V4.5C8.5 6.70914 6.70914 8.5 4.5 8.5H0.5M8.5 0.5H9.5M8.5 0.5L0.5 8.5M0.5 8.5V9.5" stroke="var(--mw-icon-border-default-gray, #616161)" stroke-linejoin="round"/>
</svg>
