<svg width="24" height="24" viewBox="0 0 24 24" fill="none" xmlns="http://www.w3.org/2000/svg">
<rect x="3.5" y="3.5" width="19" height="19" rx="2" fill="var(--mw-icon-background-default-medium-gray, #D9D9D9)" stroke="var(--mw-icon-border-default-gray, #616161)"/>
<rect x="0.5" y="0.5" width="19" height="19" rx="2" fill="var(--mw-icon-background-default-white, #FFFFFF)"/>
<path d="M0.5 16.5C0.5 16.5 2 16 3.5 13.5C5 11 3.40909 3.49997 6.5 3.5C9.59091 3.50003 8 11 9.5 13.5C11 16 12.5 16.5 12.5 16.5M7.5 16.5C7.5 16.5 9 16 10.5 13.5C12 11 10.4091 3.49997 13.5 3.5C16.5909 3.50003 15 11 16.5 13.5C18 16 19.5 16.5 19.5 16.5" stroke="var(--mw-icon-border-default-gray, #616161)" stroke-linecap="round" stroke-linejoin="round"/>
<path d="M13.5 5.5C13.5 4.94772 13.9477 4.5 14.5 4.5C15.0523 4.5 15.5 4.94772 15.5 5.5C15.5 6.05228 15.0523 6.5 14.5 6.5C13.9477 6.5 13.5 6.05228 13.5 5.5Z" fill="white"/>
<path d="M11.5 10.5C11.5 9.94772 11.9477 9.5 12.5 9.5C13.0523 9.5 13.5 9.94772 13.5 10.5C13.5 11.0523 13.0523 11.5 12.5 11.5C11.9477 11.5 11.5 11.0523 11.5 10.5Z" fill="white"/>
<path d="M13.5 14.5C13.5 13.9477 13.9477 13.5 14.5 13.5C15.0523 13.5 15.5 13.9477 15.5 14.5C15.5 15.0523 15.0523 15.5 14.5 15.5C13.9477 15.5 13.5 15.0523 13.5 14.5Z" fill="white"/>
<path d="M13.5 5.5C13.5 4.94772 13.9477 4.5 14.5 4.5C15.0523 4.5 15.5 4.94772 15.5 5.5C15.5 6.05228 15.0523 6.5 14.5 6.5C13.9477 6.5 13.5 6.05228 13.5 5.5Z" stroke="#DD5400"/>
<path d="M11.5 10.5C11.5 9.94772 11.9477 9.5 12.5 9.5C13.0523 9.5 13.5 9.94772 13.5 10.5C13.5 11.0523 13.0523 11.5 12.5 11.5C11.9477 11.5 11.5 11.0523 11.5 10.5Z" stroke="#DD5400"/>
<path d="M13.5 14.5C13.5 13.9477 13.9477 13.5 14.5 13.5C15.0523 13.5 15.5 13.9477 15.5 14.5C15.5 15.0523 15.0523 15.5 14.5 15.5C13.9477 15.5 13.5 15.0523 13.5 14.5Z" stroke="#DD5400"/>
<path d="M3.5 6.5C3.5 5.94772 3.94772 5.5 4.5 5.5C5.05228 5.5 5.5 5.94772 5.5 6.5C5.5 7.05228 5.05228 7.5 4.5 7.5C3.94772 7.5 3.5 7.05228 3.5 6.5Z" fill="white"/>
<path d="M6.5 8.5C6.5 7.94772 6.94772 7.5 7.5 7.5C8.05228 7.5 8.5 7.94772 8.5 8.5C8.5 9.05228 8.05228 9.5 7.5 9.5C6.94772 9.5 6.5 9.05228 6.5 8.5Z" fill="white"/>
<path d="M6.5 12.5C6.5 11.9477 6.94772 11.5 7.5 11.5C8.05228 11.5 8.5 11.9477 8.5 12.5C8.5 13.0523 8.05228 13.5 7.5 13.5C6.94772 13.5 6.5 13.0523 6.5 12.5Z" fill="white"/>
<path d="M3.5 6.5C3.5 5.94772 3.94772 5.5 4.5 5.5C5.05228 5.5 5.5 5.94772 5.5 6.5C5.5 7.05228 5.05228 7.5 4.5 7.5C3.94772 7.5 3.5 7.05228 3.5 6.5Z" stroke="#1171BE"/>
<path d="M6.5 8.5C6.5 7.94772 6.94772 7.5 7.5 7.5C8.05228 7.5 8.5 7.94772 8.5 8.5C8.5 9.05228 8.05228 9.5 7.5 9.5C6.94772 9.5 6.5 9.05228 6.5 8.5Z" stroke="#1171BE"/>
<path d="M6.5 12.5C6.5 11.9477 6.94772 11.5 7.5 11.5C8.05228 11.5 8.5 11.9477 8.5 12.5C8.5 13.0523 8.05228 13.5 7.5 13.5C6.94772 13.5 6.5 13.0523 6.5 12.5Z" stroke="#1171BE"/>
<rect x="0.5" y="0.5" width="19" height="19" rx="2" stroke="var(--mw-icon-border-default-gray, #616161)"/>
</svg>
