<svg width="24" height="24" viewBox="0 0 24 24" fill="none" xmlns="http://www.w3.org/2000/svg">
<rect x="0.5" y="0.5" width="22" height="22" rx="2" fill="var(--mw-icon-background-default-white, #FFFFFF)"/>
<path d="M2.5 19.5C6.5 19.5 5 10.5 7.5 10.5C10 10.5 8.5 19.5002 12.5 19.5002M8.5 19.5002C11.8158 19.0263 10.1842 6.49977 13.5 6.5C16.8158 6.50023 15 18 18.5 19.5002" stroke="var(--mw-icon-glyph-content-gray, #616162)" stroke-linecap="round" stroke-linejoin="round"/>
<path d="M2.5 17.5C4.5 14 3.5 7.99996 6.5 6.49996C8.16314 5.66839 9.5 8.49996 9.5 8.49996C9.5 8.49996 11.1621 2.77805 14.5 2.49994C20.1842 2.02632 16.7105 19.5 20.5 19.4999" stroke="#DD5400" stroke-linecap="round" stroke-linejoin="round" stroke-dasharray="2 2"/>
<rect x="0.5" y="0.5" width="22" height="22" rx="2" stroke="var(--mw-icon-border-default-gray, #616161)"/>
</svg>
