<svg width="24" height="24" viewBox="0 0 24 24" fill="none" xmlns="http://www.w3.org/2000/svg">
<rect x="0.5" y="0.5" width="22" height="22" rx="2" fill="var(--mw-icon-background-default-white, #FFFFFF)"/>
<path d="M0.5 19.5C0.5 19.5 3 19 4.5 16.5C6 14 3.5 2.5 7.5 2.5C11.5 2.5 9 14 10.5 16.5C12 19 14.5 19.5 14.5 19.5M8.5 19.5C8.5 19.5 11 19 12.5 16.5C14 14 11.5 2.5 15.5 2.5C19.5 2.5 17 14 18.5 16.5C20 19 22.5 19.5 22.5 19.5" stroke="var(--mw-icon-glyph-content-gray, #616162)" stroke-linecap="round"/>
<path d="M14.5 6.5C14.5 5.94772 14.9477 5.5 15.5 5.5C16.0523 5.5 16.5 5.94772 16.5 6.5C16.5 7.05228 16.0523 7.5 15.5 7.5C14.9477 7.5 14.5 7.05228 14.5 6.5Z" fill="white"/>
<path d="M12.5 10.5C12.5 9.94772 12.9477 9.5 13.5 9.5C14.0523 9.5 14.5 9.94772 14.5 10.5C14.5 11.0523 14.0523 11.5 13.5 11.5C12.9477 11.5 12.5 11.0523 12.5 10.5Z" fill="white"/>
<path d="M16.5 10.5C16.5 9.94772 16.9477 9.5 17.5 9.5C18.0523 9.5 18.5 9.94772 18.5 10.5C18.5 11.0523 18.0523 11.5 17.5 11.5C16.9477 11.5 16.5 11.0523 16.5 10.5Z" fill="white"/>
<path d="M15.5 15.5C15.5 14.9477 15.9477 14.5 16.5 14.5C17.0523 14.5 17.5 14.9477 17.5 15.5C17.5 16.0523 17.0523 16.5 16.5 16.5C15.9477 16.5 15.5 16.0523 15.5 15.5Z" fill="white"/>
<path d="M14.5 6.5C14.5 5.94772 14.9477 5.5 15.5 5.5C16.0523 5.5 16.5 5.94772 16.5 6.5C16.5 7.05228 16.0523 7.5 15.5 7.5C14.9477 7.5 14.5 7.05228 14.5 6.5Z" stroke="#DD5400"/>
<path d="M12.5 10.5C12.5 9.94772 12.9477 9.5 13.5 9.5C14.0523 9.5 14.5 9.94772 14.5 10.5C14.5 11.0523 14.0523 11.5 13.5 11.5C12.9477 11.5 12.5 11.0523 12.5 10.5Z" stroke="#DD5400"/>
<path d="M16.5 10.5C16.5 9.94772 16.9477 9.5 17.5 9.5C18.0523 9.5 18.5 9.94772 18.5 10.5C18.5 11.0523 18.0523 11.5 17.5 11.5C16.9477 11.5 16.5 11.0523 16.5 10.5Z" stroke="#DD5400"/>
<path d="M15.5 15.5C15.5 14.9477 15.9477 14.5 16.5 14.5C17.0523 14.5 17.5 14.9477 17.5 15.5C17.5 16.0523 17.0523 16.5 16.5 16.5C15.9477 16.5 15.5 16.0523 15.5 15.5Z" stroke="#DD5400"/>
<path d="M6.5 5.5C6.5 4.94772 6.94772 4.5 7.5 4.5C8.05228 4.5 8.5 4.94772 8.5 5.5C8.5 6.05228 8.05228 6.5 7.5 6.5C6.94772 6.5 6.5 6.05228 6.5 5.5Z" fill="white"/>
<path d="M4.5 9.5C4.5 8.94772 4.94772 8.5 5.5 8.5C6.05228 8.5 6.5 8.94772 6.5 9.5C6.5 10.0523 6.05228 10.5 5.5 10.5C4.94772 10.5 4.5 10.0523 4.5 9.5Z" fill="white"/>
<path d="M4.5 14.5C4.5 13.9477 4.94772 13.5 5.5 13.5C6.05228 13.5 6.5 13.9477 6.5 14.5C6.5 15.0523 6.05228 15.5 5.5 15.5C4.94772 15.5 4.5 15.0523 4.5 14.5Z" fill="white"/>
<path d="M8.5 9.5C8.5 8.94772 8.94772 8.5 9.5 8.5C10.0523 8.5 10.5 8.94772 10.5 9.5C10.5 10.0523 10.0523 10.5 9.5 10.5C8.94772 10.5 8.5 10.0523 8.5 9.5Z" fill="white"/>
<path d="M8.5 14.5C8.5 13.9477 8.94772 13.5 9.5 13.5C10.0523 13.5 10.5 13.9477 10.5 14.5C10.5 15.0523 10.0523 15.5 9.5 15.5C8.94772 15.5 8.5 15.0523 8.5 14.5Z" fill="white"/>
<path d="M6.5 5.5C6.5 4.94772 6.94772 4.5 7.5 4.5C8.05228 4.5 8.5 4.94772 8.5 5.5C8.5 6.05228 8.05228 6.5 7.5 6.5C6.94772 6.5 6.5 6.05228 6.5 5.5Z" stroke="#1171BE"/>
<path d="M4.5 9.5C4.5 8.94772 4.94772 8.5 5.5 8.5C6.05228 8.5 6.5 8.94772 6.5 9.5C6.5 10.0523 6.05228 10.5 5.5 10.5C4.94772 10.5 4.5 10.0523 4.5 9.5Z" stroke="#1171BE"/>
<path d="M4.5 14.5C4.5 13.9477 4.94772 13.5 5.5 13.5C6.05228 13.5 6.5 13.9477 6.5 14.5C6.5 15.0523 6.05228 15.5 5.5 15.5C4.94772 15.5 4.5 15.0523 4.5 14.5Z" stroke="#1171BE"/>
<path d="M8.5 9.5C8.5 8.94772 8.94772 8.5 9.5 8.5C10.0523 8.5 10.5 8.94772 10.5 9.5C10.5 10.0523 10.0523 10.5 9.5 10.5C8.94772 10.5 8.5 10.0523 8.5 9.5Z" stroke="#1171BE"/>
<path d="M8.5 14.5C8.5 13.9477 8.94772 13.5 9.5 13.5C10.0523 13.5 10.5 13.9477 10.5 14.5C10.5 15.0523 10.0523 15.5 9.5 15.5C8.94772 15.5 8.5 15.0523 8.5 14.5Z" stroke="#1171BE"/>
<rect x="0.5" y="0.5" width="22" height="22" rx="2" stroke="var(--mw-icon-border-default-gray, #616161)"/>
</svg>
