<svg width="24" height="24" viewBox="0 0 24 24" fill="none" xmlns="http://www.w3.org/2000/svg">
<rect x="0.5" y="0.5" width="22" height="22" rx="2" fill="var(--mw-icon-background-default-white, #FFFFFF)"/>
<path d="M16 11C16 14.8751 16 13.5 16 19.1678C15.2063 19.3841 14.3675 19.5 13.5 19.5C8.52944 19.5 4.5 15.6944 4.5 11C4.5 6.30558 8.52944 2.5 13.5 2.5C14.3675 2.5 15.2063 2.61591 16 2.83222C16 6.5 16 7.12486 16 11Z" fill="var(--mw-icon-background-medium-yellow, #FFEF91)"/>
<path d="M1.5 9.5H3.5" stroke="var(--mw-icon-background-default-dark-gray, #A6A6A6)" stroke-linecap="round" stroke-linejoin="round"/>
<path d="M5.5 9.5H7.5" stroke="var(--mw-icon-background-default-dark-gray, #A6A6A6)" stroke-linecap="round" stroke-linejoin="round"/>
<path d="M9.5 9.5H11.5" stroke="var(--mw-icon-background-default-dark-gray, #A6A6A6)" stroke-linecap="round" stroke-linejoin="round"/>
<path d="M13.5 9.5H15.5" stroke="var(--mw-icon-background-default-dark-gray, #A6A6A6)" stroke-linecap="round" stroke-linejoin="round"/>
<path d="M17.5 9.5H19.5" stroke="var(--mw-icon-background-default-dark-gray, #A6A6A6)" stroke-linecap="round" stroke-linejoin="round"/>
<path d="M21.5 9.5H22.5" stroke="var(--mw-icon-background-default-dark-gray, #A6A6A6)" stroke-linecap="round" stroke-linejoin="round"/>
<path d="M15.5 21.5V19.5" stroke="var(--mw-icon-background-default-dark-gray, #A6A6A6)" stroke-linecap="round" stroke-linejoin="round"/>
<path d="M15.5 17.5V15.5" stroke="var(--mw-icon-background-default-dark-gray, #A6A6A6)" stroke-linecap="round" stroke-linejoin="round"/>
<path d="M15.5 13.5V11.5" stroke="var(--mw-icon-background-default-dark-gray, #A6A6A6)" stroke-linecap="round" stroke-linejoin="round"/>
<path d="M15.5 9.5V7.5" stroke="var(--mw-icon-background-default-dark-gray, #A6A6A6)" stroke-linecap="round" stroke-linejoin="round"/>
<path d="M15.5 5.5V3.5" stroke="var(--mw-icon-background-default-dark-gray, #A6A6A6)" stroke-linecap="round" stroke-linejoin="round"/>
<path d="M15.5 1.5V1" stroke="var(--mw-icon-background-default-dark-gray, #A6A6A6)" stroke-linecap="round" stroke-linejoin="round"/>
<rect x="0.5" y="0.5" width="22" height="22" rx="2" stroke="var(--mw-icon-border-default-gray, #616161)"/>
<path d="M15.5 2.71063C14.8568 2.57278 14.1874 2.5 13.5 2.5C8.52944 2.5 4.5 6.30558 4.5 11C4.5 15.6944 8.52944 19.5 13.5 19.5C14.1874 19.5 14.8568 19.4272 15.5 19.2894" stroke="#1171BE" stroke-linecap="round"/>
<path d="M14.5 4.5L15.5 5.5M15.5 5.5L16.5 6.5M15.5 5.5L16.5 4.5M15.5 5.5L14.5 6.5" stroke="#1171BE" stroke-linecap="round"/>
<path d="M8.5 8.5L9.5 9.5M9.5 9.5L10.5 10.5M9.5 9.5L10.5 8.5M9.5 9.5L8.5 10.5" stroke="#1171BE" stroke-linecap="round"/>
<path d="M14.5 15.5L15.5 16.5M15.5 16.5L16.5 17.5M15.5 16.5L16.5 15.5M15.5 16.5L14.5 17.5" stroke="#1171BE" stroke-linecap="round"/>
</svg>
