<svg width="24" height="24" viewBox="0 0 24 24" fill="none" xmlns="http://www.w3.org/2000/svg">
<path d="M1.13037 22.01H22.1304V11.51V1.01001H1.13037V11.51V22.01Z" fill="var(--mw-icon-background-default-white, #FFFFFF)"/>
<path d="M11.4999 12.6967L10.0017 11.8317L8.00012 12.9799V15.2899L9.50139 16.1599L11.4999 14.9999V12.6967Z" fill="#FEC04C"/>
<path d="M18.4968 12.6967L16.9962 11.8299L15 12.9801V15.2901L16.5 16.1601L18.4949 15.0044L18.4968 12.6967Z" fill="#FEC04C"/>
<path d="M15.0001 6.63985L13.4999 5.77698L11.4999 6.92988V9.23988L13.0046 10.1007L14.9999 8.94996L15.0001 6.63985Z" fill="#FEC04C"/>
<path d="M8 6.63994L6.5001 5.77484L4.49854 6.92747V9.24018L5.9998 10.1007L8 8.94747V6.63994Z" fill="#FEC04C"/>
<path d="M7.99988 15.2899L6.49988 16.1599L4.50012 15.0049L4.49988 12.6999L5.99988 11.83L7.99988 12.9799V15.2899Z" fill="#F57729"/>
<path d="M14.9999 15.2926L13.4999 16.1599L11.5001 15.0049L11.4999 12.6999L12.9999 11.83L14.9999 12.9799V15.2926Z" fill="#F57729"/>
<path d="M11.4999 9.23994L10.0017 10.1009L8.00012 8.94831V6.6356L9.50139 5.77509L11.4999 6.92831V9.23994Z" fill="#F57729"/>
<path d="M18.4999 9.22994L17.0017 10.1009L15.0001 8.94831V6.6356L16.5014 5.77509L18.5123 6.92831L18.4999 9.22994Z" fill="#F57729"/>
<path d="M5.99988 11.83L5.99353 10.1035L7.99744 8.94727L9.99988 10.1V11.83L8.00012 12.98L5.99988 11.83Z" fill="#DD5400"/>
<path d="M9.5 5.77997V4.03994L11.5053 2.88934L13.5 4.03994V5.77994L11.5 6.92841L9.5 5.77997Z" fill="#DD5400"/>
<path d="M9.49829 17.8953L9.5 16.1598L11.5 14.9998L13.5 16.1598L13.5022 17.8875L11.5049 19.0437L9.49829 17.8953Z" fill="#DD5400"/>
<path d="M13.0001 11.8299L12.9999 10.0999L15.004 8.94739L16.9999 10.0999V11.8299L14.9999 12.9799L13.0001 11.8299Z" fill="#DD5400"/>
<path d="M15 15.2899L16.5 16.1599V17.8968L15 18.7628L13.5 17.8968V16.1599L15 15.2899Z" fill="#1171BE"/>
<path d="M8.00095 15.2899L9.5 16.1599L9.50024 17.8902L8.00024 18.7562L6.50024 17.8902V16.1581L8.00095 15.2899Z" fill="#1171BE"/>
<path d="M11.5 9.23773L13 10.0999V11.8299L11.5 12.7018L10 11.8299V10.0999L11.5 9.23773Z" fill="#1171BE"/>
<path d="M18.5 9.22992L20 10.1009V11.8299L18.5 12.6989L17 11.8299V10.1009L18.5 9.22992Z" fill="#1171BE"/>
<path d="M15 3.17694L16.5 4.04297V5.77502L15 6.64104L13.5 5.77994V4.04297L15 3.17694Z" fill="#1171BE"/>
<path d="M8 3.17694L9.5 4.04297V5.77994L8 6.64104L6.5 5.77502V4.04297L8 3.17694Z" fill="#1171BE"/>
<path d="M4.5 9.23773L6 10.1038V11.8299L4.5 12.7018L3 11.8299V10.1038L4.5 9.23773Z" fill="#1171BE"/>
<path d="M0.5 2.5C0.5 1.39543 1.39543 0.5 2.5 0.5H20.5C21.6046 0.5 22.5 1.39543 22.5 2.5V20.5C22.5 21.6046 21.6046 22.5 20.5 22.5H2.5C1.39543 22.5 0.5 21.6046 0.5 20.5V2.5Z" stroke="var(--mw-icon-border-default-gray, #616161)" stroke-linejoin="round"/>
</svg>
