<svg width="24" height="24" viewBox="0 0 24 24" fill="none" xmlns="http://www.w3.org/2000/svg">
<rect y="0.5" width="22" height="22" rx="2" fill="var(--mw-icon-background-default-white, #FFFFFF)"/>
<path d="M8 9L4.5 3.5L15 9M8 9L11.5 3.5L15 9M8 9L11.5 14M8 9L5 14M8 9L18.5 3.5L15 9M8 9L18 14M15 9L18 14M15 9L11.5 14M15 9L5 14M18 14L15.5 19.5M18 14L7.5 19.5M15.5 19.5L11.5 14M15.5 19.5L5 14M11.5 14L7.5 19.5M7.5 19.5L5 14" stroke="#BFBFBF" stroke-linecap="round" stroke-linejoin="round"/>
<path d="M9.5 14C9.5 12.8954 10.3954 12 11.5 12C12.6046 12 13.5 12.8954 13.5 14C13.5 15.1046 12.6046 16 11.5 16C10.3954 16 9.5 15.1046 9.5 14Z" fill="#EDB120"/>
<path d="M16 14C16 12.8954 16.8954 12 18 12C19.1046 12 20 12.8954 20 14C20 15.1046 19.1046 16 18 16C16.8954 16 16 15.1046 16 14Z" fill="#EDB120"/>
<path d="M3 14C3 12.8954 3.89543 12 5 12C6.10457 12 7 12.8954 7 14C7 15.1046 6.10457 16 5 16C3.89543 16 3 15.1046 3 14Z" fill="#EDB120"/>
<path d="M6 9C6 7.89543 6.89543 7 8 7C9.10457 7 10 7.89543 10 9C10 10.1046 9.10457 11 8 11C6.89543 11 6 10.1046 6 9Z" fill="#EDB120"/>
<path d="M13 9C13 7.89543 13.8954 7 15 7C16.1046 7 17 7.89543 17 9C17 10.1046 16.1046 11 15 11C13.8954 11 13 10.1046 13 9Z" fill="#EDB120"/>
<path d="M14 19.5C14 18.6716 14.6716 18 15.5 18C16.3284 18 17 18.6716 17 19.5C17 20.3284 16.3284 21 15.5 21C14.6716 21 14 20.3284 14 19.5Z" fill="#DD5400"/>
<path d="M6 19.5C6 18.6716 6.67157 18 7.5 18C8.32843 18 9 18.6716 9 19.5C9 20.3284 8.32843 21 7.5 21C6.67157 21 6 20.3284 6 19.5Z" fill="#DD5400"/>
<path d="M17 3.5C17 2.67157 17.6716 2 18.5 2C19.3284 2 20 2.67157 20 3.5C20 4.32843 19.3284 5 18.5 5C17.6716 5 17 4.32843 17 3.5Z" fill="#1171BE"/>
<path d="M10 3.5C10 2.67157 10.6716 2 11.5 2C12.3284 2 13 2.67157 13 3.5C13 4.32843 12.3284 5 11.5 5C10.6716 5 10 4.32843 10 3.5Z" fill="#1171BE"/>
<path d="M3 3.5C3 2.67157 3.67157 2 4.5 2C5.32843 2 6 2.67157 6 3.5C6 4.32843 5.32843 5 4.5 5C3.67157 5 3 4.32843 3 3.5Z" fill="#1171BE"/>
<rect x="0.5" y="0.5" width="22" height="22" rx="2" stroke="var(--mw-icon-border-default-gray, #616161)"/>
</svg>
