<svg width="24" height="24" viewBox="0 0 24 24" fill="none" xmlns="http://www.w3.org/2000/svg">
<rect y="0.5" width="22" height="22" rx="2" fill="var(--mw-icon-background-default-white, #FFFFFF)"/>
<path d="M4.5 3.5L4 12M4.5 3.5L9 12M4.5 3.5L14 12M4.5 3.5L19 12M4 12L11.5 19.5M4 12L11.5 3.5M4 12L18.5 3.5M11.5 3.5L9 12M11.5 3.5L14 12M11.5 3.5L19 12M19 12L18.5 3.5M19 12L11.5 19.5M18.5 3.5L14 12M18.5 3.5L9 12M14 12L11.5 19.5M9 12L11.5 19.5" stroke="#BFBFBF" stroke-linejoin="round"/>
<path d="M7 12C7 10.8954 7.89543 10 9 10C10.1046 10 11 10.8954 11 12C11 13.1046 10.1046 14 9 14C7.89543 14 7 13.1046 7 12Z" fill="#EDB120"/>
<path d="M17 12C17 10.8954 17.8954 10 19 10C20.1046 10 21 10.8954 21 12C21 13.1046 20.1046 14 19 14C17.8954 14 17 13.1046 17 12Z" fill="#EDB120"/>
<path d="M2 12C2 10.8954 2.89543 10 4 10C5.10457 10 6 10.8954 6 12C6 13.1046 5.10457 14 4 14C2.89543 14 2 13.1046 2 12Z" fill="#EDB120"/>
<path d="M12 12C12 10.8954 12.8954 10 14 10C15.1046 10 16 10.8954 16 12C16 13.1046 15.1046 14 14 14C12.8954 14 12 13.1046 12 12Z" fill="#EDB120"/>
<rect x="10" y="18" width="3" height="3" rx="1.5" fill="#DD5400"/>
<path d="M17 3.5C17 2.67157 17.6716 2 18.5 2C19.3284 2 20 2.67157 20 3.5C20 4.32843 19.3284 5 18.5 5C17.6716 5 17 4.32843 17 3.5Z" fill="#1171BE"/>
<path d="M10 3.5C10 2.67157 10.6716 2 11.5 2C12.3284 2 13 2.67157 13 3.5C13 4.32843 12.3284 5 11.5 5C10.6716 5 10 4.32843 10 3.5Z" fill="#1171BE"/>
<path d="M3 3.5C3 2.67157 3.67157 2 4.5 2C5.32843 2 6 2.67157 6 3.5C6 4.32843 5.32843 5 4.5 5C3.67157 5 3 4.32843 3 3.5Z" fill="#1171BE"/>
<rect x="0.5" y="0.5" width="22" height="22" rx="2" stroke="var(--mw-icon-border-default-gray, #616161)"/>
</svg>
