<svg width="24" height="24" viewBox="0 0 24 24" fill="none" xmlns="http://www.w3.org/2000/svg">
<path d="M0.5 18.5V4.5C0.5 2.29086 2.29086 0.5 4.5 0.5H18.5C20.7091 0.5 22.5 2.29086 22.5 4.5V18.5C22.5 20.7091 20.7091 22.5 18.5 22.5H4.5C2.29086 22.5 0.5 20.7091 0.5 18.5Z" fill="#00A9E0"/>
<path d="M5 18.5H11.5L19.33 5.5H23" stroke="#74EBDA" stroke-miterlimit="10"/>
<path d="M1 5.5H4L12.42 18.5H19" stroke="black" stroke-miterlimit="10"/>
<path d="M1 18.5H5L12 5L18.75 18.5H23" stroke="var(--mw-icon-background-default-white, white)" stroke-miterlimit="10"/>
<path d="M0.5 18.5V4.5C0.5 2.29086 2.29086 0.5 4.5 0.5H18.5C20.7091 0.5 22.5 2.29086 22.5 4.5V18.5C22.5 20.7091 20.7091 22.5 18.5 22.5H4.5C2.29086 22.5 0.5 20.7091 0.5 18.5Z" stroke="#245474" stroke-linecap="round"/>

</svg>
