<svg width="24" height="24" viewBox="0 0 24 24" fill="none" xmlns="http://www.w3.org/2000/svg">
<rect y="0.5" width="22" height="22" rx="2" fill="var(--mw-icon-background-default-white, #FFFFFF)"/>
<path d="M4.5 3.5L4.65811 3.02566C4.43812 2.95233 4.19659 3.03988 4.07467 3.23713C3.95276 3.43439 3.98248 3.68958 4.14645 3.85355L4.5 3.5ZM11.5 3.5L11.8536 3.14645C11.6583 2.95118 11.3417 2.95118 11.1464 3.14645L11.5 3.5ZM18.5 3.5L18.8536 3.85355C19.0175 3.68958 19.0472 3.43439 18.9253 3.23713C18.8034 3.03988 18.5619 2.95233 18.3419 3.02566L18.5 3.5ZM5 11L4.6 10.7L4.39828 10.969L4.57125 11.2572L5 11ZM18 11L18.4287 11.2572L18.6017 10.969L18.4 10.7L18 11ZM15 16L15.3536 16.3536L15.3971 16.31L15.4287 16.2572L15 16ZM8 16L7.57125 16.2572L7.60292 16.31L7.64645 16.3536L8 16ZM11.5 19.5L11.1464 19.8536C11.3417 20.0488 11.6583 20.0488 11.8536 19.8536L11.5 19.5ZM4.14645 3.85355L7.64645 7.35355L8.35355 6.64645L4.85355 3.14645L4.14645 3.85355ZM11.1464 3.85355L14.6464 7.35355L15.3536 6.64645L11.8536 3.14645L11.1464 3.85355ZM15.3536 7.35355L18.8536 3.85355L18.1464 3.14645L14.6464 6.64645L15.3536 7.35355ZM7.6 6.7L4.6 10.7L5.4 11.3L8.4 7.3L7.6 6.7ZM7.62371 7.32925L11.1237 11.3293L11.8763 10.6707L8.37629 6.67075L7.62371 7.32925ZM11.8763 11.3293L15.3763 7.32925L14.6237 6.67075L11.1237 10.6707L11.8763 11.3293ZM14.6 7.3L17.6 11.3L18.4 10.7L15.4 6.7L14.6 7.3ZM17.5713 10.7428L14.5713 15.7428L15.4287 16.2572L18.4287 11.2572L17.5713 10.7428ZM15.4096 15.7133L11.9096 10.7133L11.0904 11.2867L14.5904 16.2867L15.4096 15.7133ZM11.0904 10.7133L7.59038 15.7133L8.40962 16.2867L11.9096 11.2867L11.0904 10.7133ZM8.42875 15.7428L5.42875 10.7428L4.57125 11.2572L7.57125 16.2572L8.42875 15.7428ZM7.64645 16.3536L11.1464 19.8536L11.8536 19.1464L8.35355 15.6464L7.64645 16.3536ZM11.8536 19.8536L15.3536 16.3536L14.6464 15.6464L11.1464 19.1464L11.8536 19.8536ZM8.35355 7.35355L11.8536 3.85355L11.1464 3.14645L7.64645 6.64645L8.35355 7.35355ZM4.34189 3.97434L14.8419 7.47434L15.1581 6.52566L4.65811 3.02566L4.34189 3.97434ZM8.15811 7.47434L18.6581 3.97434L18.3419 3.02566L7.84189 6.52566L8.15811 7.47434ZM7.8143 7.46424L17.8143 11.4642L18.1857 10.5358L8.1857 6.53576L7.8143 7.46424ZM14.8143 6.53576L4.8143 10.5358L5.1857 11.4642L15.1857 7.46424L14.8143 6.53576ZM4.77639 11.4472L14.7764 16.4472L15.2236 15.5528L5.22361 10.5528L4.77639 11.4472ZM17.7764 10.5528L7.77639 15.5528L8.22361 16.4472L18.2236 11.4472L17.7764 10.5528Z" fill="#BFBFBF"/>
<path d="M9.5 11C9.5 9.89543 10.3954 9 11.5 9C12.6046 9 13.5 9.89543 13.5 11C13.5 12.1046 12.6046 13 11.5 13C10.3954 13 9.5 12.1046 9.5 11Z" fill="#EDB120"/>
<path d="M16 11C16 9.89543 16.8954 9 18 9C19.1046 9 20 9.89543 20 11C20 12.1046 19.1046 13 18 13C16.8954 13 16 12.1046 16 11Z" fill="#EDB120"/>
<path d="M3 11C3 9.89543 3.89543 9 5 9C6.10457 9 7 9.89543 7 11C7 12.1046 6.10457 13 5 13C3.89543 13 3 12.1046 3 11Z" fill="#EDB120"/>
<path d="M6 16C6 14.8954 6.89543 14 8 14C9.10457 14 10 14.8954 10 16C10 17.1046 9.10457 18 8 18C6.89543 18 6 17.1046 6 16Z" fill="#EDB120"/>
<path d="M13 16C13 14.8954 13.8954 14 15 14C16.1046 14 17 14.8954 17 16C17 17.1046 16.1046 18 15 18C13.8954 18 13 17.1046 13 16Z" fill="#EDB120"/>
<path d="M6 7C6 5.89543 6.89543 5 8 5C9.10457 5 10 5.89543 10 7C10 8.10457 9.10457 9 8 9C6.89543 9 6 8.10457 6 7Z" fill="#EDB120"/>
<path d="M13 7C13 5.89543 13.8954 5 15 5C16.1046 5 17 5.89543 17 7C17 8.10457 16.1046 9 15 9C13.8954 9 13 8.10457 13 7Z" fill="#EDB120"/>
<rect x="10" y="18" width="3" height="3" rx="1.5" fill="#DD5400"/>
<path d="M17 3.5C17 2.67157 17.6716 2 18.5 2C19.3284 2 20 2.67157 20 3.5C20 4.32843 19.3284 5 18.5 5C17.6716 5 17 4.32843 17 3.5Z" fill="#1171BE"/>
<path d="M10 3.5C10 2.67157 10.6716 2 11.5 2C12.3284 2 13 2.67157 13 3.5C13 4.32843 12.3284 5 11.5 5C10.6716 5 10 4.32843 10 3.5Z" fill="#1171BE"/>
<path d="M3 3.5C3 2.67157 3.67157 2 4.5 2C5.32843 2 6 2.67157 6 3.5C6 4.32843 5.32843 5 4.5 5C3.67157 5 3 4.32843 3 3.5Z" fill="#1171BE"/>
<rect x="0.5" y="0.5" width="22" height="22" rx="2" stroke="var(--mw-icon-border-default-gray, #616161)"/>
</svg>
