<svg width="24" height="24" viewBox="0 0 24 24" fill="none" xmlns="http://www.w3.org/2000/svg">
<rect y="0.5" width="22" height="22" rx="2" fill="var(--mw-icon-background-default-white, #FFFFFF)"/>
<path d="M8 12L4.5 3.5L15 12M8 12L11.5 3.5L15 12M8 12L15.5 19.5L15 12M8 12L7.5 19.5L15 12M8 12L18.5 3.5L15 12" stroke="#BFBFBF" stroke-linejoin="bevel"/>
<path d="M13 12C13 10.8954 13.8954 10 15 10C16.1046 10 17 10.8954 17 12C17 13.1046 16.1046 14 15 14C13.8954 14 13 13.1046 13 12Z" fill="#EDB120"/>
<path d="M6 12C6 10.8954 6.89543 10 8 10C9.10457 10 10 10.8954 10 12C10 13.1046 9.10457 14 8 14C6.89543 14 6 13.1046 6 12Z" fill="#EDB120"/>
<path d="M14 19.5C14 18.6716 14.6716 18 15.5 18C16.3284 18 17 18.6716 17 19.5C17 20.3284 16.3284 21 15.5 21C14.6716 21 14 20.3284 14 19.5Z" fill="#DD5400"/>
<path d="M6 19.5C6 18.6716 6.67157 18 7.5 18C8.32843 18 9 18.6716 9 19.5C9 20.3284 8.32843 21 7.5 21C6.67157 21 6 20.3284 6 19.5Z" fill="#DD5400"/>
<path d="M17 3.5C17 2.67157 17.6716 2 18.5 2C19.3284 2 20 2.67157 20 3.5C20 4.32843 19.3284 5 18.5 5C17.6716 5 17 4.32843 17 3.5Z" fill="#1171BE"/>
<path d="M10 3.5C10 2.67157 10.6716 2 11.5 2C12.3284 2 13 2.67157 13 3.5C13 4.32843 12.3284 5 11.5 5C10.6716 5 10 4.32843 10 3.5Z" fill="#1171BE"/>
<path d="M3 3.5C3 2.67157 3.67157 2 4.5 2C5.32843 2 6 2.67157 6 3.5C6 4.32843 5.32843 5 4.5 5C3.67157 5 3 4.32843 3 3.5Z" fill="#1171BE"/>
<rect x="0.5" y="0.5" width="22" height="22" rx="2" stroke="var(--mw-icon-border-default-gray, #616161)"/>
</svg>
