<svg width="24" height="24" viewBox="0 0 24 24" fill="none" xmlns="http://www.w3.org/2000/svg">
<rect y="0.5" width="22" height="22" rx="2" fill="var(--mw-icon-background-default-white, #FFFFFF)"/>
<path d="M4.5 3.5L4.65811 3.02566C4.43812 2.95233 4.19659 3.03988 4.07467 3.23713C3.95276 3.43439 3.98248 3.68958 4.14645 3.85355L4.5 3.5ZM11.5 3.5L11.8536 3.14645C11.6583 2.95118 11.3417 2.95118 11.1464 3.14645L11.5 3.5ZM18.5 3.5L18.8536 3.85355C19.0175 3.68958 19.0472 3.43439 18.9253 3.23713C18.8034 3.03988 18.5619 2.95233 18.3419 3.02566L18.5 3.5ZM5 11L4.6 10.7L4.375 11L4.6 11.3L5 11ZM18 11L18.4 11.3L18.625 11L18.4 10.7L18 11ZM7.5 19.5L7.00306 19.4448C6.98207 19.6337 7.07 19.8182 7.22997 19.9208C7.38993 20.0235 7.59427 20.0265 7.75725 19.9287L7.5 19.5ZM15.5 19.5L15.2428 19.9287C15.4057 20.0265 15.6101 20.0235 15.77 19.9208C15.93 19.8182 16.0179 19.6337 15.9969 19.4448L15.5 19.5ZM4.14645 3.85355L7.64645 7.35355L8.35355 6.64645L4.85355 3.14645L4.14645 3.85355ZM11.1464 3.85355L14.6464 7.35355L15.3536 6.64645L11.8536 3.14645L11.1464 3.85355ZM15.3536 7.35355L18.8536 3.85355L18.1464 3.14645L14.6464 6.64645L15.3536 7.35355ZM7.6 6.7L4.6 10.7L5.4 11.3L8.4 7.3L7.6 6.7ZM7.62371 7.32925L11.1237 11.3293L11.8763 10.6707L8.37629 6.67075L7.62371 7.32925ZM11.8763 11.3293L15.3763 7.32925L14.6237 6.67075L11.1237 10.6707L11.8763 11.3293ZM14.6 7.3L17.6 11.3L18.4 10.7L15.4 6.7L14.6 7.3ZM17.6 10.7L14.6 14.7L15.4 15.3L18.4 11.3L17.6 10.7ZM15.3763 14.6707L11.8763 10.6707L11.1237 11.3293L14.6237 15.3293L15.3763 14.6707ZM11.1237 10.6707L7.62371 14.6707L8.37629 15.3293L11.8763 11.3293L11.1237 10.6707ZM8.4 14.7L5.4 10.7L4.6 11.3L7.6 15.3L8.4 14.7ZM7.50306 14.9448L7.00306 19.4448L7.99694 19.5552L8.49694 15.0552L7.50306 14.9448ZM7.75725 19.9287L15.2572 15.4287L14.7428 14.5713L7.24275 19.0713L7.75725 19.9287ZM15.9969 19.4448L15.4969 14.9448L14.5031 15.0552L15.0031 19.5552L15.9969 19.4448ZM15.7572 19.0713L8.25725 14.5713L7.74275 15.4287L15.2428 19.9287L15.7572 19.0713ZM8.35355 7.35355L11.8536 3.85355L11.1464 3.14645L7.64645 6.64645L8.35355 7.35355ZM4.34189 3.97434L14.8419 7.47434L15.1581 6.52566L4.65811 3.02566L4.34189 3.97434ZM8.15811 7.47434L18.6581 3.97434L18.3419 3.02566L7.84189 6.52566L8.15811 7.47434ZM7.8143 7.46424L17.8143 11.4642L18.1857 10.5358L8.1857 6.53576L7.8143 7.46424ZM14.8143 6.53576L4.8143 10.5358L5.1857 11.4642L15.1857 7.46424L14.8143 6.53576ZM4.8143 11.4642L14.8143 15.4642L15.1857 14.5358L5.1857 10.5358L4.8143 11.4642ZM17.8143 10.5358L7.8143 14.5358L8.1857 15.4642L18.1857 11.4642L17.8143 10.5358Z" fill="#BFBFBF"/>
<path d="M9.5 11C9.5 9.89543 10.3954 9 11.5 9C12.6046 9 13.5 9.89543 13.5 11C13.5 12.1046 12.6046 13 11.5 13C10.3954 13 9.5 12.1046 9.5 11Z" fill="#EDB120"/>
<path d="M16 11C16 9.89543 16.8954 9 18 9C19.1046 9 20 9.89543 20 11C20 12.1046 19.1046 13 18 13C16.8954 13 16 12.1046 16 11Z" fill="#EDB120"/>
<path d="M3 11C3 9.89543 3.89543 9 5 9C6.10457 9 7 9.89543 7 11C7 12.1046 6.10457 13 5 13C3.89543 13 3 12.1046 3 11Z" fill="#EDB120"/>
<path d="M6 15C6 13.8954 6.89543 13 8 13C9.10457 13 10 13.8954 10 15C10 16.1046 9.10457 17 8 17C6.89543 17 6 16.1046 6 15Z" fill="#EDB120"/>
<path d="M13 15C13 13.8954 13.8954 13 15 13C16.1046 13 17 13.8954 17 15C17 16.1046 16.1046 17 15 17C13.8954 17 13 16.1046 13 15Z" fill="#EDB120"/>
<path d="M6 7C6 5.89543 6.89543 5 8 5C9.10457 5 10 5.89543 10 7C10 8.10457 9.10457 9 8 9C6.89543 9 6 8.10457 6 7Z" fill="#EDB120"/>
<path d="M13 7C13 5.89543 13.8954 5 15 5C16.1046 5 17 5.89543 17 7C17 8.10457 16.1046 9 15 9C13.8954 9 13 8.10457 13 7Z" fill="#EDB120"/>
<path d="M14 19.5C14 18.6716 14.6716 18 15.5 18C16.3284 18 17 18.6716 17 19.5C17 20.3284 16.3284 21 15.5 21C14.6716 21 14 20.3284 14 19.5Z" fill="#DD5400"/>
<path d="M6 19.5C6 18.6716 6.67157 18 7.5 18C8.32843 18 9 18.6716 9 19.5C9 20.3284 8.32843 21 7.5 21C6.67157 21 6 20.3284 6 19.5Z" fill="#DD5400"/>
<path d="M17 3.5C17 2.67157 17.6716 2 18.5 2C19.3284 2 20 2.67157 20 3.5C20 4.32843 19.3284 5 18.5 5C17.6716 5 17 4.32843 17 3.5Z" fill="#1171BE"/>
<path d="M10 3.5C10 2.67157 10.6716 2 11.5 2C12.3284 2 13 2.67157 13 3.5C13 4.32843 12.3284 5 11.5 5C10.6716 5 10 4.32843 10 3.5Z" fill="#1171BE"/>
<path d="M3 3.5C3 2.67157 3.67157 2 4.5 2C5.32843 2 6 2.67157 6 3.5C6 4.32843 5.32843 5 4.5 5C3.67157 5 3 4.32843 3 3.5Z" fill="#1171BE"/>
<rect x="0.5" y="0.5" width="22" height="22" rx="2" stroke="var(--mw-icon-border-default-gray, #616161)"/>
</svg>
