<svg width="24" height="24" viewBox="0 0 24 24" fill="none" xmlns="http://www.w3.org/2000/svg">
<path d="M9.5 15.5C14.4706 15.5 18.5 12.1421 18.5 8C18.5 3.85786 14.4706 0.5 9.5 0.5C4.52944 0.5 0.5 3.85786 0.5 8C0.5 10.7095 2.22414 13.0834 4.80802 14.4014L2.84784 18.5L7.6752 15.3457C8.26448 15.4469 8.87479 15.5 9.5 15.5Z" fill="var(--mw-icon-background-default-white, #FFFFFF)" stroke="var(--mw-icon-border-default-gray, #616161)" stroke-linejoin="round"/>
<path d="M11 18.5H14.5V22C14.5 22.2761 14.7239 22.5 15 22.5H19C19.2761 22.5 19.5 22.2761 19.5 22V18.5H23C23.2761 18.5 23.5 18.2761 23.5 18V14C23.5 13.7239 23.2761 13.5 23 13.5H19.5V10C19.5 9.72386 19.2761 9.5 19 9.5H15C14.7239 9.5 14.5 9.72386 14.5 10V13.5H11C10.7239 13.5 10.5 13.7239 10.5 14V18C10.5 18.2761 10.7239 18.5 11 18.5Z" fill="var(--mw-icon-background-medium-yellow, #FFEF91)" stroke="#674C06"/>
</svg>
