<svg width="24" height="24" viewBox="0 0 24 24" fill="none" xmlns="http://www.w3.org/2000/svg">
<g id="new_project">
<path id="bottom box" d="M1.5 4.50005H17.5V14.5C17.5 15.0523 17.0523 15.5 16.5 15.5H2.5C1.94772 15.5 1.5 15.0523 1.5 14.5V4.50005Z" fill="var(--mw-icon-background-lightest-blue, #E2F0FF)" stroke="var(--mw-icon-border-default-blue, #1656A7)"/>
<path id="handle" d="M7.5 6.50002H11.5" stroke="var(--mw-icon-glyph-content-dark-blue, #104280)" stroke-linecap="round"/>
<g id="top box">
<path d="M0.5 1C0.5 0.723858 0.723858 0.5 1 0.5H18C18.2761 0.5 18.5 0.723858 18.5 1V4.5H0.5V1Z" fill="var(--mw-icon-background-lightest-blue, #E2F0FF)"/>
<path d="M18.5 4.5V5C18.7761 5 19 4.77614 19 4.5H18.5ZM0.5 4.5H0C0 4.77614 0.223858 5 0.5 5L0.5 4.5ZM1 1H18V0H1V1ZM18 1V4.5H19V1H18ZM18.5 4H0.5V5H18.5V4ZM1 4.5V1H0V4.5H1ZM18 1L18 1H19C19 0.447715 18.5523 0 18 0V1ZM1 0C0.447715 0 0 0.447715 0 1H1L1 1V0Z" fill="var(--mw-icon-border-default-blue, #1656A7)"/>
</g>
<path id="Vector 516" d="M11 19.5H14.5V23C14.5 23.2761 14.7239 23.5 15 23.5H19C19.2761 23.5 19.5 23.2761 19.5 23V19.5H23C23.2761 19.5 23.5 19.2761 23.5 19V15C23.5 14.7239 23.2761 14.5 23 14.5H19.5V11C19.5 10.7239 19.2761 10.5 19 10.5H15C14.7239 10.5 14.5 10.7239 14.5 11V14.5H11C10.7239 14.5 10.5 14.7239 10.5 15V19C10.5 19.2761 10.7239 19.5 11 19.5Z" fill="var(--mw-icon-background-medium-yellow, #FFEF91)" stroke="#674C06"/>
</g>
</svg>
