<svg width="24" height="24" viewBox="0 0 24 24" fill="none" xmlns="http://www.w3.org/2000/svg">
<path d="M4.59091 12.5C2.33157 12.5 0.5 10.6058 0.5 8.26923C0.5 5.93265 2.33157 4.03846 4.59091 4.03846C5.11568 4.03846 5.61736 4.14064 6.07838 4.32682C6.98688 2.64058 8.72829 1.5 10.7273 1.5C13.536 1.5 15.8361 3.7518 16.0319 6.60497C17.4263 6.80421 18.5 8.04166 18.5 9.53846C18.5 11.1741 17.2179 12.5 15.6364 12.5H4.59091Z" fill="var(--mw-icon-background-default-white, #FFFFFF)" stroke="var(--mw-icon-border-default-gray, #616161)"/>
<path d="M11 19.5H14.5V23C14.5 23.2761 14.7239 23.5 15 23.5H19C19.2761 23.5 19.5 23.2761 19.5 23V19.5H23C23.2761 19.5 23.5 19.2761 23.5 19V15C23.5 14.7239 23.2761 14.5 23 14.5H19.5V11C19.5 10.7239 19.2761 10.5 19 10.5H15C14.7239 10.5 14.5 10.7239 14.5 11V14.5H11C10.7239 14.5 10.5 14.7239 10.5 15V19C10.5 19.2761 10.7239 19.5 11 19.5Z" fill="var(--mw-icon-background-medium-yellow, #FFEF91)" stroke="#674C06"/>
</svg>
