<svg width="24" height="24" viewBox="0 0 24 24" fill="none" xmlns="http://www.w3.org/2000/svg">
<path d="M14.5 0.5H2.5C1.39543 0.5 0.5 1.39543 0.5 2.5V16.5C0.5 17.6046 1.39543 18.5 2.5 18.5H14.5C15.6046 18.5 16.5 17.6046 16.5 16.5V2.5C16.5 1.39543 15.6046 0.5 14.5 0.5Z" fill="var(--mw-icon-background-default-white, #FFFFFF)" stroke="var(--mw-icon-border-default-gray, #616161)" stroke-linecap="round"/>
<path d="M9.5 9.5H13.5M6.5 6.5H10.5M3.5 3.5H7.5M6.5 12.5H10.5M3.5 15.5H7.5" stroke="var(--mw-icon-glyph-content-gray, #616162)" stroke-linecap="round"/>
<path d="M11 19.5H14.5V23C14.5 23.2761 14.7239 23.5 15 23.5H19C19.2761 23.5 19.5 23.2761 19.5 23V19.5H23C23.2761 19.5 23.5 19.2761 23.5 19V15C23.5 14.7239 23.2761 14.5 23 14.5H19.5V11C19.5 10.7239 19.2761 10.5 19 10.5H15C14.7239 10.5 14.5 10.7239 14.5 11V14.5H11C10.7239 14.5 10.5 14.7239 10.5 15V19C10.5 19.2761 10.7239 19.5 11 19.5Z" fill="var(--mw-icon-background-medium-yellow, #FFEF91)" stroke="#674C06"/>
</svg>
