<svg width="24" height="24" viewBox="0 0 24 24" fill="none" xmlns="http://www.w3.org/2000/svg">
<g id="new_branch">
<path id="box" d="M0.5 1.5C0.5 0.947716 0.947715 0.5 1.5 0.5H17.5C18.0523 0.5 18.5 0.947715 18.5 1.5V17.5C18.5 18.0523 18.0523 18.5 17.5 18.5H1.5C0.947716 18.5 0.5 18.0523 0.5 17.5V1.5Z" fill="var(--mw-icon-background-default-white, #FFFFFF)" stroke="var(--mw-icon-glyph-content-gray, #616162)"/>
<path id="Vector 609" d="M5.5 4.5V12.2929C5.5 12.7383 6.03857 12.9614 6.35355 12.6464L13.5 5.5" stroke="var(--mw-icon-glyph-content-gray, #616162)" stroke-linecap="square"/>
<circle id="Ellipse 95" cx="5.5" cy="5.5" r="2" fill="var(--mw-icon-background-default-action, #CBFFBE)" stroke="var(--mw-icon-glyph-content-green, #008014)"/>
<circle id="Ellipse 97" cx="13.5" cy="5.5" r="2" fill="var(--mw-icon-background-default-action, #CBFFBE)" stroke="var(--mw-icon-glyph-content-green, #008014)"/>
<circle id="Ellipse 96" cx="5.5" cy="13.5" r="2" fill="var(--mw-icon-background-default-action, #CBFFBE)" stroke="var(--mw-icon-glyph-content-green, #008014)"/>
<path id="Vector 516" d="M11 19.5H14.5V23C14.5 23.2761 14.7239 23.5 15 23.5H19C19.2761 23.5 19.5 23.2761 19.5 23V19.5H23C23.2761 19.5 23.5 19.2761 23.5 19V15C23.5 14.7239 23.2761 14.5 23 14.5H19.5V11C19.5 10.7239 19.2761 10.5 19 10.5H15C14.7239 10.5 14.5 10.7239 14.5 11V14.5H11C10.7239 14.5 10.5 14.7239 10.5 15V19C10.5 19.2761 10.7239 19.5 11 19.5Z" fill="var(--mw-icon-background-medium-yellow, #FFEF91)" stroke="#674C06"/>
</g>
</svg>
