<svg width="24" height="24" viewBox="0 0 24 24" fill="none" xmlns="http://www.w3.org/2000/svg">
<path d="M0.5 14.5V2.5C0.5 1.39543 1.39543 0.5 2.5 0.5H14.5C15.6046 0.5 16.5 1.39543 16.5 2.5V14.5C16.5 15.6046 15.6046 16.5 14.5 16.5H2.5C1.39543 16.5 0.5 15.6046 0.5 14.5Z" fill="var(--mw-icon-background-default-white, #FFFFFF)" stroke="var(--mw-icon-border-default-gray, #616161)"/>
<path d="M4.9998 3L7.9998 6L4.82719 9.17261C3.16103 10.8388 3.97796 13.6873 6.27393 14.2171L7.4998 14.5L6.80321 13.339C6.33104 12.5521 6.45504 11.5448 7.10398 10.8958L9.9998 8L12.9998 11V3H4.9998Z" fill="var(--mw-icon-glyph-content-gray, #616162)"/>
<path d="M11 19.5H14.5V23C14.5 23.2761 14.7239 23.5 15 23.5H19C19.2761 23.5 19.5 23.2761 19.5 23V19.5H23C23.2761 19.5 23.5 19.2761 23.5 19V15C23.5 14.7239 23.2761 14.5 23 14.5H19.5V11C19.5 10.7239 19.2761 10.5 19 10.5H15C14.7239 10.5 14.5 10.7239 14.5 11V14.5H11C10.7239 14.5 10.5 14.7239 10.5 15V19C10.5 19.2761 10.7239 19.5 11 19.5Z" fill="var(--mw-icon-background-medium-yellow, #FFEF91)" stroke="#674C06"/>
</svg>
