<svg width="24" height="24" viewBox="0 0 24 24" fill="none" xmlns="http://www.w3.org/2000/svg">
<path d="M0.5 12.5V2.5C0.5 1.94772 0.947715 1.5 1.5 1.5H14.5C15.0523 1.5 15.5 1.94772 15.5 2.5V12.5C15.5 13.0523 15.0523 13.5 14.5 13.5H1.5C0.947715 13.5 0.5 13.0523 0.5 12.5Z" fill="var(--mw-icon-background-default-medium-gray, #D9D9D9)" stroke="var(--mw-icon-border-default-gray, #616161)" stroke-linecap="square"/>
<path d="M3.5 15.5V5.5C3.5 4.94772 3.94772 4.5 4.5 4.5H17.5C18.0523 4.5 18.5 4.94772 18.5 5.5V15.5C18.5 16.0523 18.0523 16.5 17.5 16.5H4.5C3.94772 16.5 3.5 16.0523 3.5 15.5Z" fill="var(--mw-icon-background-default-white, #FFFFFF)" stroke="var(--mw-icon-border-default-gray, #616161)" stroke-linecap="square"/>
<path d="M5.5 14.5V6.5H16.5V14.5H5.5Z" fill="white" stroke="var(--mw-icon-glyph-content-gray, #616162)" stroke-linecap="square" stroke-linejoin="round"/>
<path d="M5.5 10.5L7.5 8.5L9.5 11.5L10.5 10.5L11.5 12.5H16.5" stroke="var(--mw-icon-glyph-content-gray, #616162)" stroke-linecap="round" stroke-linejoin="round"/>
<circle cx="13.5" cy="9.5" r="1" fill="white" stroke="var(--mw-icon-glyph-content-gray, #616162)"/>
<path d="M11 19.5H14.5V23C14.5 23.2761 14.7239 23.5 15 23.5H19C19.2761 23.5 19.5 23.2761 19.5 23V19.5H23C23.2761 19.5 23.5 19.2761 23.5 19V15C23.5 14.7239 23.2761 14.5 23 14.5H19.5V11C19.5 10.7239 19.2761 10.5 19 10.5H15C14.7239 10.5 14.5 10.7239 14.5 11V14.5H11C10.7239 14.5 10.5 14.7239 10.5 15V19C10.5 19.2761 10.7239 19.5 11 19.5Z" fill="var(--mw-icon-background-medium-yellow, #FFEF91)" stroke="#674C06"/>
</svg>
