<svg width="24" height="24" viewBox="0 0 24 24" fill="none" xmlns="http://www.w3.org/2000/svg">
<rect x="0.5" y="0.5" width="22" height="22" rx="2" fill="var(--mw-icon-background-default-white, #FFFFFF)"/>
<path d="M18.5 2.5C18.5 6.36599 15.366 9.5 11.5 9.5C7.63401 9.5 4.5 6.36599 4.5 2.5" stroke="var(--mw-icon-background-default-dark-gray, #A6A6A6)" stroke-linecap="round" stroke-dasharray="2 2.5"/>
<path d="M20.5 1C20.5 14 11.5001 7.5 11.5001 22.5" stroke="#1171BE"/>
<rect x="0.5" y="0.5" width="22" height="22" rx="2" stroke="var(--mw-icon-border-default-gray, #616161)"/>
<path d="M10.5 17.5L11.5 18.5M11.5 18.5L12.5 19.5M11.5 18.5L12.5 17.5M11.5 18.5L10.5 19.5" stroke="#DD5400" stroke-linecap="round"/>
<path d="M20.5 5.5C20.5 6.05228 20.0523 6.5 19.5 6.5C18.9477 6.5 18.5 6.05228 18.5 5.5C18.5 4.94772 18.9477 4.5 19.5 4.5C20.0523 4.5 20.5 4.94772 20.5 5.5Z" fill="white" stroke="#DD5400"/>
<path d="M9.5 4.5H13.5M11.5 2.5V6.5" stroke="#1171BE" stroke-linecap="round" stroke-linejoin="round"/>
</svg>
