<svg width="24" height="24" viewBox="0 0 24 24" fill="none" xmlns="http://www.w3.org/2000/svg">
<path d="M0.5 9.87715V14.1228C0.5 14.3461 0.647989 14.5423 0.862639 14.6036L7.43267 16.4808C7.47734 16.4935 7.52357 16.5 7.57003 16.5H16.43C16.4764 16.5 16.5227 16.4935 16.5673 16.4808L23.1374 14.6036C23.352 14.5423 23.5 14.3461 23.5 14.1228V9.87715C23.5 9.65391 23.352 9.45772 23.1374 9.39639L16.5673 7.51924C16.5227 7.50647 16.4764 7.5 16.43 7.5H7.57003C7.52357 7.5 7.47734 7.50647 7.43267 7.51924L0.862639 9.39639C0.647989 9.45772 0.5 9.65391 0.5 9.87715Z" fill="#F3E3FF" stroke="#A709F5"/>
</svg>
