<svg width="24" height="24" viewBox="0 0 24 24" fill="none" xmlns="http://www.w3.org/2000/svg">
<path d="M1 23H23V12V1H1V12V23Z" fill="var(--mw-icon-background-default-white, #FFFFFF)"/>
<path d="M12 17V23H13V17H23V16H13L13 1H12L12 16H1V17H12Z" fill="var(--mw-icon-background-default-dark-gray, #A6A6A6)"/>
<path d="M1 16.5C6.5 16.5 7.24241 9.5 12.5 9.5C17.7576 9.5 18.5 16.5 24 16.5" stroke="var(--mw-icon-glyph-content-gray, #616162)" stroke-linejoin="round"/>
<path d="M0.5 2.5C0.5 1.39543 1.39543 0.5 2.5 0.5H21.5C22.6046 0.5 23.5 1.39543 23.5 2.5V21.5C23.5 22.6046 22.6046 23.5 21.5 23.5H2.5C1.39543 23.5 0.5 22.6046 0.5 21.5V2.5Z" stroke="var(--mw-icon-border-default-gray, #616161)" stroke-linejoin="round"/>
</svg>
