<svg width="24" height="24" viewBox="0 0 24 24" fill="none" xmlns="http://www.w3.org/2000/svg">
<path d="M8.5 12C8.77614 12 9 11.7761 9 11.5C9 11.2239 8.77614 11 8.5 11V12ZM1.5 11C1.22386 11 1 11.2239 1 11.5C1 11.7761 1.22386 12 1.5 12V11ZM8 16.5C8 16.7761 8.22386 17 8.5 17C8.77614 17 9 16.7761 9 16.5H8ZM9 6.5C9 6.22386 8.77614 6 8.5 6C8.22386 6 8 6.22386 8 6.5H9ZM8.5 14.5H8C8 14.6672 8.08355 14.8233 8.22265 14.916L8.5 14.5ZM14.5 18.5H15C15 18.3328 14.9164 18.1767 14.7774 18.084L14.5 18.5ZM8.5 8.5L8.22265 8.08397C8.08355 8.17671 8 8.33282 8 8.5H8.5ZM14.5 4.5L14.7774 4.91603C14.9164 4.82329 15 4.66718 15 4.5H14.5ZM15 0.5C15 0.223858 14.7761 0 14.5 0C14.2239 0 14 0.223858 14 0.5H15ZM14 22.5C14 22.7761 14.2239 23 14.5 23C14.7761 23 15 22.7761 15 22.5H14ZM20 11.5C20 15.9183 16.4183 19.5 12 19.5V20.5C16.9706 20.5 21 16.4706 21 11.5H20ZM12 19.5C7.58172 19.5 4 15.9183 4 11.5H3C3 16.4706 7.02944 20.5 12 20.5V19.5ZM4 11.5C4 7.08172 7.58172 3.5 12 3.5V2.5C7.02944 2.5 3 6.52944 3 11.5H4ZM12 3.5C16.4183 3.5 20 7.08172 20 11.5H21C21 6.52944 16.9706 2.5 12 2.5V3.5ZM8.5 11H1.5V12H8.5V11ZM9 16.5V6.5H8V16.5H9ZM8.22265 14.916L14.2226 18.916L14.7774 18.084L8.77735 14.084L8.22265 14.916ZM9 14.5V8.5H8V14.5H9ZM8.77735 8.91603L14.7774 4.91603L14.2226 4.08397L8.22265 8.08397L8.77735 8.91603ZM15 4.5V0.5H14V4.5H15ZM14 18.5V22.5H15V18.5H14Z" fill="var(--mw-icon-object-primary, #616160)"/>
<path d="M14 18L10.3052 17.677L12.3052 14.677L14 18Z" fill="var(--mw-icon-object-primary, #616160)"/>
</svg>
