<svg width="24" height="24" viewBox="0 0 24 24" fill="none" xmlns="http://www.w3.org/2000/svg">
<path d="M21.5 0.5H2.5C1.39543 0.5 0.5 1.39543 0.5 2.5V21.5C0.5 22.6046 1.39543 23.5 2.5 23.5H21.5C22.6046 23.5 23.5 22.6046 23.5 21.5V2.5C23.5 1.39543 22.6046 0.5 21.5 0.5Z" fill="var(--mw-icon-background-default-white, #FFFFFF)" stroke="var(--mw-icon-border-default-gray, #616161)" stroke-linecap="round"/>
<path d="M8.5 5.5H19.5M8.5 11.5001H19.5M8.5 17.5H19.5" stroke="var(--mw-icon-glyph-content-gray, #616162)" stroke-linecap="round"/>
<path d="M4.0996 17.0723H4.6143C4.8594 17.0723 5.041 17.011 5.15909 16.8884C5.27718 16.7659 5.33623 16.6032 5.33623 16.4005C5.33623 16.2044 5.27718 16.0518 5.15909 15.9426C5.04323 15.8334 4.8828 15.7788 4.67781 15.7788C4.49287 15.7788 4.33801 15.8301 4.21324 15.9325C4.08846 16.0328 4.02607 16.1643 4.02607 16.3269H3.06016C3.06016 16.0729 3.12812 15.8456 3.26404 15.6451C3.40218 15.4424 3.59381 15.2842 3.8389 15.1705C4.08623 15.0569 4.35807 15.0001 4.65441 15.0001C5.16912 15.0001 5.57242 15.1237 5.8643 15.3711C6.15619 15.6161 6.30214 15.9548 6.30214 16.3871C6.30214 16.6099 6.23418 16.8149 6.09826 17.0021C5.96234 17.1892 5.78409 17.3329 5.5635 17.4332C5.83757 17.5313 6.04144 17.6783 6.17513 17.8744C6.31105 18.0705 6.37901 18.3022 6.37901 18.5696C6.37901 19.0018 6.22081 19.3483 5.90441 19.609C5.59024 19.8697 5.17357 20.0001 4.65441 20.0001C4.16867 20.0001 3.77094 19.8719 3.46123 19.6157C3.15374 19.3595 3 19.0208 3 18.5997H3.96591C3.96591 18.7824 4.03387 18.9317 4.16979 19.0475C4.30793 19.1634 4.47727 19.2213 4.67781 19.2213C4.90731 19.2213 5.08668 19.1612 5.21591 19.0408C5.34737 18.9183 5.4131 18.7567 5.4131 18.5562C5.4131 18.0705 5.14572 17.8276 4.61096 17.8276H4.0996V17.0723Z" fill="var(--mw-icon-glyph-content-gray, #616162)"/>
<path d="M6.49365 14H3.11289V13.3293L4.70842 11.6287C4.92748 11.3893 5.08895 11.1804 5.19283 11.002C5.29898 10.8236 5.35205 10.6542 5.35205 10.4939C5.35205 10.2748 5.29672 10.1032 5.18606 9.979C5.0754 9.85253 4.91731 9.7893 4.7118 9.7893C4.49048 9.7893 4.31546 9.86608 4.18674 10.0196C4.06027 10.171 3.99703 10.3708 3.99703 10.6192H3.01465C3.01465 10.3189 3.08579 10.0445 3.22806 9.79607C3.3726 9.54765 3.57585 9.35343 3.83782 9.21341C4.09979 9.07114 4.39676 9 4.72874 9C5.23687 9 5.63095 9.12195 5.91099 9.36585C6.19328 9.60976 6.33443 9.95416 6.33443 10.3991C6.33443 10.643 6.2712 10.8914 6.14473 11.1443C6.01826 11.3972 5.80146 11.692 5.49432 12.0285L4.37305 13.2107H6.49365V14Z" fill="var(--mw-icon-glyph-content-gray, #616162)"/>
<path d="M5.42568 8H4.43459V4.1797L3.25146 4.54664V3.74074L5.31937 3H5.42568V8Z" fill="var(--mw-icon-glyph-content-gray, #616162)"/>
</svg>
