<svg width="24" height="24" viewBox="0 0 24 24" fill="none" xmlns="http://www.w3.org/2000/svg">
<path d="M20.0789 0.5H2.92105C1.58394 0.5 0.5 1.58394 0.5 2.92105V20.0789C0.5 21.4161 1.58394 22.5 2.92105 22.5H20.0789C21.4161 22.5 22.5 21.4161 22.5 20.0789V2.92105C22.5 1.58394 21.4161 0.5 20.0789 0.5Z" fill="var(--mw-icon-background-default-white, #FFFFFF)" stroke="var(--mw-icon-border-default-gray, #616161)"/>
<path d="M3.5 16V6.99998L11.5 11.5V20.5L3.5 16Z" fill="var(--mw-icon-background-default-medium-gray, #D9D9D9)"/>
<path d="M19.5 16V6.99998L11.5 11.5V20.5L19.5 16Z" fill="var(--mw-icon-background-default-dark-gray, #A6A6A6)"/>
<path d="M19.5 6.99998L11.5 3L3.5 6.99998L11.5 11.5L19.5 6.99998Z" fill="var(--mw-icon-background-default-light-gray, #F5F5F5)"/>
<path d="M3.5 16H3C3 16.1806 3.09743 16.3472 3.25487 16.4358L3.5 16ZM3.5 6.99998L3.27639 6.55276C3.107 6.63746 3 6.81059 3 6.99998H3.5ZM11.5 20.5L11.2549 20.9358C11.4071 21.0214 11.5929 21.0214 11.7451 20.9358L11.5 20.5ZM19.5 16L19.7451 16.4358C19.9026 16.3472 20 16.1806 20 16H19.5ZM19.5 6.99998H20C20 6.81059 19.893 6.63746 19.7236 6.55276L19.5 6.99998ZM11.5 3L11.7236 2.55279C11.5828 2.4824 11.4172 2.4824 11.2764 2.55279L11.5 3ZM4 16V6.99998H3V16H4ZM3.25487 7.43576L11.2549 11.9358L11.7451 11.0642L3.74513 6.56419L3.25487 7.43576ZM11 11.5V20.5H12V11.5H11ZM11.7451 20.0642L3.74513 15.5642L3.25487 16.4358L11.2549 20.9358L11.7451 20.0642ZM20 16V6.99998H19V16H20ZM19.2549 6.56419L11.2549 11.0642L11.7451 11.9358L19.7451 7.43576L19.2549 6.56419ZM11.7451 20.9358L19.7451 16.4358L19.2549 15.5642L11.2549 20.0642L11.7451 20.9358ZM19.7236 6.55276L11.7236 2.55279L11.2764 3.44721L19.2764 7.44719L19.7236 6.55276ZM11.2764 2.55279L3.27639 6.55276L3.72361 7.44719L11.7236 3.44721L11.2764 2.55279Z" fill="var(--mw-icon-glyph-content-gray, #616162)"/>
</svg>
