<svg width="24" height="24" viewBox="0 0 24 24" fill="none" xmlns="http://www.w3.org/2000/svg">
<path d="M16.5 0.5H2.5C1.39543 0.5 0.5 1.39543 0.5 2.5V16.5C0.5 17.6046 1.39543 18.5 2.5 18.5H16.5C17.6046 18.5 18.5 17.6046 18.5 16.5V2.5C18.5 1.39543 17.6046 0.5 16.5 0.5Z" fill="var(--mw-icon-glyph-disabled-gray, #888889)" stroke="var(--mw-icon-border-default-gray, #616161)"/>
<path d="M2.5 12.9091V5.63634L9.5 9.2727V16.5454L2.5 12.9091Z" fill="var(--mw-icon-background-default-white, #FFFFFF)"/>
<path d="M16.5 12.9091V5.63634L9.5 9.2727V16.5454L16.5 12.9091Z" fill="var(--mw-icon-background-default-medium-gray, #D9D9D9)"/>
<path d="M16.5 5.63634L9.5 2L2.5 5.63634L9.5 9.2727L16.5 5.63634Z" fill="white"/>
<path d="M2.5 12.9091H2C2 13.0957 2.10391 13.2667 2.26951 13.3528L2.5 12.9091ZM2.5 5.63634L2.26951 5.19264C2.10391 5.27866 2 5.44973 2 5.63634H2.5ZM9.5 16.5454L9.26951 16.9891C9.414 17.0642 9.586 17.0642 9.73049 16.9891L9.5 16.5454ZM16.5 12.9091L16.7305 13.3528C16.8961 13.2667 17 13.0957 17 12.9091H16.5ZM16.5 5.63634H17C17 5.44973 16.8961 5.27866 16.7305 5.19264L16.5 5.63634ZM9.5 2L9.73049 1.5563C9.586 1.48123 9.414 1.48123 9.26951 1.5563L9.5 2ZM3 12.9091V5.63634H2V12.9091H3ZM2.26951 6.08004L9.26951 9.71641L9.73049 8.829L2.73049 5.19264L2.26951 6.08004ZM9 9.2727V16.5454H10V9.2727H9ZM9.73049 16.1017L2.73049 12.4654L2.26951 13.3528L9.26951 16.9891L9.73049 16.1017ZM17 12.9091V5.63634H16V12.9091H17ZM16.2695 5.19264L9.26951 8.829L9.73049 9.71641L16.7305 6.08004L16.2695 5.19264ZM9.73049 16.9891L16.7305 13.3528L16.2695 12.4654L9.26951 16.1017L9.73049 16.9891ZM16.7305 5.19264L9.73049 1.5563L9.26951 2.4437L16.2695 6.08004L16.7305 5.19264ZM9.26951 1.5563L2.26951 5.19264L2.73049 6.08004L9.73049 2.4437L9.26951 1.5563Z" fill="var(--mw-icon-glyph-disabled-gray, #888889)"/>
<path d="M13.5 23.5V11.5L23.5 17.5L13.5 23.5Z" fill="var(--mw-icon-background-default-action, #CBFFBE)" stroke="var(--mw-icon-border-default-green, #008013)" stroke-linejoin="round"/>
</svg>
