<svg width="24" height="24" viewBox="0 0 24 24" fill="none" xmlns="http://www.w3.org/2000/svg">
<path d="M0.5 18.5V4.5C0.5 2.29086 2.29086 0.5 4.5 0.5H18.5C20.7091 0.5 22.5 2.29086 22.5 4.5V18.5C22.5 20.7091 20.7091 22.5 18.5 22.5H4.5C2.29086 22.5 0.5 20.7091 0.5 18.5Z" fill="var(--mw-icon-background-default-white, #FFFFFF)"/>
<path d="M18.5 3.5C16.8413 6.98588 15.1482 9.6912 12.5 12.5C9.88512 15.0248 7.83632 16.0573 4.5 17.5" stroke="#1171BE" stroke-linecap="round"/>
<path d="M4.5 17.5L12.5 15.5L18.5 9.5" stroke="#DD5400" stroke-linecap="round"/>
<circle cx="12.5001" cy="15.5" r="2" fill="white" stroke="#DD5400"/>
<circle cx="4.5" cy="17.5" r="2" fill="white" stroke="#DD5400"/>
<circle cx="18.5001" cy="9.5" r="2" fill="white" stroke="#DD5400"/>
<path d="M0.5 18.5V4.5C0.5 2.29086 2.29086 0.5 4.5 0.5H18.5C20.7091 0.5 22.5 2.29086 22.5 4.5V18.5C22.5 20.7091 20.7091 22.5 18.5 22.5H4.5C2.29086 22.5 0.5 20.7091 0.5 18.5Z" stroke="#B7312C" stroke-linecap="round"/>
</svg>
