<svg width="24" height="25" viewBox="0 0 24 25" fill="none" xmlns="http://www.w3.org/2000/svg">
<path d="M8.50012 17C8.22398 17 8.00012 16.7761 8.00012 16.5L8.00012 7.5C8.00012 7.22386 8.22398 7 8.50012 7L10.5 7C10.7761 7 11 7.22386 11 7.5L11 16.5C11 16.7761 10.7761 17 10.5 17H8.50012Z" fill="var(--mw-icon-object-primary, #616160)"/>
<path d="M13.5 17C13.2238 17 13 16.7761 13 16.5L13 7.5C13 7.22386 13.2238 7 13.5 7L15.5 7C15.7761 7 16 7.22386 16 7.5L16 16.5C16 16.7761 15.7761 17 15.5 17H13.5Z" fill="var(--mw-icon-object-primary, #616160)"/>
<path d="M21.2584 18.8227L20.945 19.2123L21.3511 19.539L21.6607 19.1197L21.2584 18.8227ZM11.5 23.4893L11.4786 23.9889L11.9991 24.0111L12 23.4902L11.5 23.4893ZM11.8414 21.5L11.37 21.3334L11.37 21.3334L11.8414 21.5ZM21 18.626L20.708 19.0319L20.708 19.0319L21 18.626ZM23 12C23 14.4438 22.2036 16.7002 20.8561 18.5258L21.6607 19.1197C23.1308 17.128 24 14.6648 24 12H23ZM12 1C18.0751 1 23 5.92487 23 12H24C24 5.37258 18.6274 0 12 0V1ZM1 12C1 5.92487 5.92487 1 12 1V0C5.37258 0 0 5.37258 0 12H1ZM11.5214 22.9898C5.6685 22.7394 1 17.9148 1 12H0C0 18.4527 5.0929 23.7157 11.4786 23.9889L11.5214 22.9898ZM11.37 21.3334C11.1315 22.0083 11.0013 22.7338 11 23.4885L12 23.4902C12.0011 22.85 12.1114 22.2365 12.3128 21.6666L11.37 21.3334ZM17.5 17C14.6691 17 12.2621 18.8095 11.37 21.3334L12.3128 21.6666C13.0681 19.5298 15.106 18 17.5 18V17ZM21.292 18.2202C20.2246 17.4523 18.9144 17 17.5 17V18C18.698 18 19.8051 18.3824 20.708 19.0319L21.292 18.2202ZM21.5718 18.4331C21.4806 18.3597 21.3872 18.2887 21.292 18.2202L20.708 19.0319C20.7886 19.0899 20.8677 19.1501 20.945 19.2123L21.5718 18.4331Z" fill="var(--mw-icon-object-primary, #616160)"/>
<path d="M15.5 20.5L17.5 23.5" stroke="#FF453A" stroke-linecap="round"/>
<path d="M17.5 17.5C18.8062 17.5 20.0149 17.9174 21 18.626M17.5 17.5V19.5M17.5 17.5C14.8876 17.5 12.6651 19.1696 11.8414 21.5M11.8414 21.5C11.6203 22.1256 11.5 22.7987 11.5 23.5H23.5C23.5 22.7987 23.3797 22.1256 23.1586 21.5M11.8414 21.5L13.5 22M23.1586 21.5C22.7467 20.3348 21.9852 19.3348 21 18.626M23.1586 21.5L21.5 22M21 18.626L20 20" stroke="var(--mw-icon-object-primary, #616160)" stroke-linecap="round"/>
</svg>
