<svg width="24" height="24" viewBox="0 0 24 24" fill="none" xmlns="http://www.w3.org/2000/svg">
<path d="M2.5 23.5V0.5L21.5 12L2.5 23.5Z" fill="var(--mw-icon-background-default-action, #CBFFBE)" stroke="var(--mw-icon-glyph-content-green, #008014)" stroke-linejoin="round"/>
<path d="M15 20L17.5 23.5" stroke="#FF453A" stroke-linecap="round"/>
<path d="M17.5 17.5C18.8062 17.5 20.0149 17.9174 21 18.626M17.5 17.5V19.5M17.5 17.5C14.8876 17.5 12.6651 19.1696 11.8414 21.5M11.8414 21.5C11.6203 22.1256 11.5 22.7987 11.5 23.5H23.5C23.5 22.7987 23.3797 22.1256 23.1586 21.5M11.8414 21.5L13.5 22M23.1586 21.5C22.7467 20.3348 21.9852 19.3348 21 18.626M23.1586 21.5L21.5 22M21 18.626L20 20" stroke="var(--mw-icon-object-primary, #616160)" stroke-linecap="round"/>
</svg>
