<svg width="24" height="24" viewBox="0 0 24 24" fill="none" xmlns="http://www.w3.org/2000/svg">
<path fill-rule="evenodd" clip-rule="evenodd" d="M1.5 3.5V20.5C1.5 21.0523 1.94772 21.5 2.5 21.5H6.5C7.05228 21.5 7.5 21.0523 7.5 20.5V3.5C7.5 2.94771 7.05228 2.5 6.5 2.5H2.5C1.94772 2.5 1.5 2.94772 1.5 3.5ZM10.5 3.5V20.5C10.5 21.0523 10.9477 21.5 11.5 21.5H11.8414C12.5577 19.4735 14.3316 17.9467 16.5 17.583V3.5C16.5 2.94771 16.0523 2.5 15.5 2.5H11.5C10.9477 2.5 10.5 2.94772 10.5 3.5Z" fill="var(--mw-icon-background-default-selection, #B4DEFF)"/>
<path d="M11.8414 21.5V22C12.0533 22 12.2422 21.8664 12.3128 21.6666L11.8414 21.5ZM16.5 17.583L16.5827 18.0761C16.8236 18.0357 17 17.8272 17 17.583H16.5ZM2 20.5V3.5H1V20.5H2ZM2.5 21C2.22386 21 2 20.7761 2 20.5H1C1 21.3284 1.67157 22 2.5 22V21ZM6.5 21H2.5V22H6.5V21ZM7 20.5C7 20.7761 6.77614 21 6.5 21V22C7.32843 22 8 21.3284 8 20.5H7ZM7 3.5V20.5H8V3.5H7ZM6.5 3C6.77614 3 7 3.22386 7 3.5H8C8 2.67157 7.32843 2 6.5 2V3ZM2.5 3H6.5V2H2.5V3ZM2 3.5C2 3.22386 2.22386 3 2.5 3V2C1.67157 2 1 2.67157 1 3.5H2ZM11 20.5V3.5H10V20.5H11ZM11.5 21C11.2239 21 11 20.7761 11 20.5H10C10 21.3284 10.6716 22 11.5 22V21ZM11.8414 21H11.5V22H11.8414V21ZM16.4173 17.0898C14.0668 17.4842 12.1459 19.1382 11.37 21.3334L12.3128 21.6666C12.9695 19.8089 14.5965 18.4093 16.5827 18.0761L16.4173 17.0898ZM16 3.5V17.583H17V3.5H16ZM15.5 3C15.7761 3 16 3.22386 16 3.5H17C17 2.67157 16.3284 2 15.5 2V3ZM11.5 3H15.5V2H11.5V3ZM11 3.5C11 3.22386 11.2239 3 11.5 3V2C10.6716 2 10 2.67157 10 3.5H11Z" fill="var(--mw-icon-border-default-blue, #1656A7)"/>
<path d="M15 20L17.5 23.5" stroke="#FF453A" stroke-linecap="round"/>
<path d="M17.5 17.5C18.8062 17.5 20.0149 17.9174 21 18.626M17.5 17.5V19.5M17.5 17.5C14.8876 17.5 12.6651 19.1696 11.8414 21.5M11.8414 21.5C11.6203 22.1256 11.5 22.7987 11.5 23.5H23.5C23.5 22.7987 23.3797 22.1256 23.1586 21.5M11.8414 21.5L13.5 22M23.1586 21.5C22.7467 20.3348 21.9852 19.3348 21 18.626M23.1586 21.5L21.5 22M21 18.626L20 20" stroke="var(--mw-icon-object-primary, #616160)" stroke-linecap="round"/>
</svg>
