<svg width="24" height="25" viewBox="0 0 24 25" fill="none" xmlns="http://www.w3.org/2000/svg">
<path d="M21.2584 18.8227C22.6672 16.9141 23.5 14.5543 23.5 12C23.5 5.64873 18.3513 0.5 12 0.5C5.64873 0.5 0.5 5.64873 0.5 12C0.5 18.1838 5.3807 23.2276 11.5 23.4893C11.5012 22.7919 11.6214 22.1224 11.8414 21.5C12.6651 19.1696 14.8876 17.5 17.5 17.5C18.8062 17.5 20.0149 17.9174 21 18.626C21.0879 18.6893 21.1741 18.7549 21.2584 18.8227Z" fill="var(--mw-icon-background-default-action, #CBFFBE)" stroke="var(--mw-icon-glyph-content-green, #008014)"/>
<path d="M12.5 17.5V6.5L20.5 12L12.5 17.5Z" fill="var(--mw-icon-glyph-content-green, #008014)" stroke="var(--mw-icon-glyph-content-green, #008014)" stroke-linejoin="round"/>
<path d="M5.5 17.5V6.5L13.5 12L5.5 17.5Z" fill="var(--mw-icon-glyph-content-green, #008014)" stroke="var(--mw-icon-glyph-content-green, #008014)" stroke-linejoin="round"/>
<path d="M15.5 20.5L17.5 23.5" stroke="#FF453A" stroke-linecap="round"/>
<path d="M17.5 17.5C18.8062 17.5 20.0149 17.9174 21 18.626M17.5 17.5V19.5M17.5 17.5C14.8876 17.5 12.6651 19.1696 11.8414 21.5M11.8414 21.5C11.6203 22.1256 11.5 22.7987 11.5 23.5H23.5C23.5 22.7987 23.3797 22.1256 23.1586 21.5M11.8414 21.5L13.5 22M23.1586 21.5C22.7467 20.3348 21.9852 19.3348 21 18.626M23.1586 21.5L21.5 22M21 18.626L20 20" stroke="var(--mw-icon-object-primary, #616160)" stroke-linecap="round"/>
</svg>
