<svg width="24" height="24" viewBox="0 0 24 24" fill="none" xmlns="http://www.w3.org/2000/svg">
<path d="M0.5 2.5C0.5 1.39543 1.39543 0.5 2.5 0.5H20.5C21.6046 0.5 22.5 1.39543 22.5 2.5V20.5C22.5 21.6046 21.6046 22.5 20.5 22.5H2.5C1.39543 22.5 0.5 21.6046 0.5 20.5V2.5Z" fill="var(--mw-icon-background-default-white, #FFFFFF)"/>
<path d="M22 11.5C19.5 11.5 20 19.5 17.5 19.5C15 19.5 14 3.5 11.5 3.5C9.00001 3.5 9 19.5 6.5 19.5C4 19.5 4 11.5 2 11.5C1 11.5 0.5 13 0.5 13" stroke="#0072BD"/>
<path d="M0.5 13C1 14 2 15.5 3 15.5C5.20131 15.5 4.5 11.5 6.5 11.5C8.5 11.5 8.5 19.5 11 19.5C13.5 19.5 14 3.5 16.5 3.5C19 3.5 20 19.5 22 19.5" stroke="#EDB120"/>
<path d="M0.5 15C0.5 15 0.570494 19.5 2.5 19.5C5 19.5 5 3.5 7.5 3.5C10 3.5 11 19.5 13.5 19.5C16 19.5 15.5 11.5 17.5 11.5C19.5 11.5 19.5 18.5 22.5 16" stroke="#D95319"/>
<path d="M0.5 2.5C0.5 1.39543 1.39543 0.5 2.5 0.5H20.5C21.6046 0.5 22.5 1.39543 22.5 2.5V20.5C22.5 21.6046 21.6046 22.5 20.5 22.5H2.5C1.39543 22.5 0.5 21.6046 0.5 20.5V2.5Z" stroke="var(--mw-icon-border-default-gray, #616161)" stroke-linejoin="round"/>
</svg>
