<svg width="24" height="24" viewBox="0 0 24 24" fill="none" xmlns="http://www.w3.org/2000/svg">
<path d="M4.5 22.5C2.29086 22.5 0.500001 20.7091 0.500001 18.5L0.5 4.5C0.5 2.29086 2.29086 0.500001 4.5 0.5L18.5 0.5C20.7091 0.5 22.5 2.29086 22.5 4.5L22.5 18.5C22.5 20.7091 20.7091 22.5 18.5 22.5H4.5Z" stroke="var(--mw-icon-object-primary, #616160)"/>
<path d="M4 10.5V10H3V10.5H4ZM3 15.5C3 15.7761 3.22386 16 3.5 16C3.77614 16 4 15.7761 4 15.5H3ZM17 12.5V12H16V12.5H17ZM7 12.5V12H6V12.5H7ZM11.5 18.5L11.5018 18L11.4982 18L11.5 18.5ZM11.7329 14.3774L11.5 13.935L11.7329 14.3774ZM16.4444 16.5188L16.0197 16.2549L16.4444 16.5188ZM6.5556 16.5188L6.98026 16.2549L6.5556 16.5188ZM20.1593 9.05754L19.9265 9.5L20.1593 9.05754ZM20.1593 9.94246L19.9265 9.5L20.1593 9.94246ZM2.84067 9.94246L2.6078 10.3849L2.84067 9.94246ZM11.2671 4.62256L11.5 5.06502L11.2671 4.62256ZM11.7329 4.62257L11.5 5.06502L11.7329 4.62257ZM11.0343 4.18011L2.6078 8.61508L3.07355 9.5L11.5 5.06502L11.0343 4.18011ZM20.3922 8.61508L11.9657 4.18011L11.5 5.06502L19.9265 9.5L20.3922 8.61508ZM3 10.5V15.5H4V10.5H3ZM17 16.3078V12.5H16V16.3078H17ZM6 12.5V16.3078H7V12.5H6ZM19.9265 9.5L11.5 13.935L11.9657 14.8199L20.3922 10.3849L19.9265 9.5ZM11.5 13.935L3.07355 9.5L2.6078 10.3849L11.0343 14.8199L11.5 13.935ZM6.13094 16.7828C6.47138 17.3305 7.83628 19.0131 11.5018 19L11.4982 18C8.2083 18.0118 7.1532 16.5331 6.98026 16.2549L6.13094 16.7828ZM11.4982 19C15.1637 19.0131 16.5286 17.3305 16.8691 16.7828L16.0197 16.2549C15.8468 16.5331 14.7917 18.0118 11.5018 18L11.4982 19ZM11.5 13.935L11.0343 14.8199C11.3258 14.9733 11.6742 14.9733 11.9657 14.8199L11.5 13.935ZM16 16.3078C16 16.3113 15.9993 16.2877 16.0197 16.2549L16.8691 16.7828C16.9682 16.6232 17 16.4535 17 16.3078H16ZM6 16.3078C6 16.4535 6.03179 16.6232 6.13094 16.7828L6.98026 16.2549C7.00067 16.2877 7 16.3113 7 16.3078H6ZM19.9265 9.5L20.3922 10.3849C21.1045 10.01 21.1045 8.99 20.3922 8.61508L19.9265 9.5ZM2.6078 8.61508C1.89546 8.99 1.89546 10.01 2.6078 10.3849L3.07355 9.5V9.5L2.6078 8.61508ZM11.5 5.06502V5.06502L11.9657 4.18011C11.6742 4.02666 11.3258 4.02666 11.0343 4.18011L11.5 5.06502Z" fill="var(--mw-icon-object-primary, #616160)"/>
</svg>
