<svg width="24" height="24" viewBox="0 0 24 24" fill="none" xmlns="http://www.w3.org/2000/svg">
<path d="M3.5 5C3.5 4.72386 3.72386 4.5 4 4.5H8.79289C8.9255 4.5 9.05268 4.55268 9.14645 4.64645L10.8536 6.35355C10.9473 6.44732 11.0745 6.5 11.2071 6.5H22C22.2761 6.5 22.5 6.72386 22.5 7L22.5 13.5667V21C22.5 21.2761 22.2761 21.5 22 21.5H4C3.72386 21.5 3.5 21.2761 3.5 21V5Z" fill="var(--mw-icon-background-light-yellow, #FFF5BC)" stroke="#674C06"/>
<path d="M5.5 2.5C5.5 1.94772 5.94772 1.5 6.5 1.5H19.5C20.0523 1.5 20.5 1.94772 20.5 2.5V15.5C20.5 16.0523 20.0523 16.5 19.5 16.5H6.5C5.94772 16.5 5.5 16.0523 5.5 15.5L5.5 2.5Z" fill="var(--mw-icon-background-default-medium-gray, #D9D9D9)" stroke="var(--mw-icon-border-default-gray, #616161)" stroke-linejoin="round"/>
<circle cx="18.5" cy="3.5" r="0.5" fill="var(--mw-icon-glyph-content-dark-gray, #333333)"/>
<path d="M18.5 9C18.5 12.0376 16.0376 14.5 13 14.5C9.96243 14.5 7.5 12.0376 7.5 9C7.5 5.96243 9.96243 3.5 13 3.5C16.0376 3.5 18.5 5.96243 18.5 9Z" fill="var(--mw-icon-background-default-dark-gray, #A6A6A6)" stroke="var(--mw-icon-glyph-content-dark-gray, #333333)" stroke-linejoin="round"/>
<path d="M17 9C17 11.2091 15.2091 13 13 13C10.7909 13 9 11.2091 9 9C9 6.79086 10.7909 5 13 5C15.2091 5 17 6.79086 17 9Z" fill="var(--mw-icon-glyph-content-dark-gray, #333333)"/>
<circle cx="12" cy="7.5" r="1" fill="var(--mw-icon-background-default-light-gray, #F5F5F5)"/>
<path d="M1.14782 9.5H18.9712C19.1986 9.5 19.3973 9.65339 19.4549 9.87332L22.3359 20.8733C22.4189 21.1902 22.1798 21.5 21.8522 21.5H4.02877C3.80142 21.5 3.60268 21.3466 3.54508 21.1267L0.66413 10.1267C0.581131 9.80977 0.820222 9.5 1.14782 9.5Z" fill="var(--mw-icon-background-light-yellow, #FFF5BC)" stroke="#674C06"/>
</svg>
