<svg width="24" height="24" viewBox="0 0 24 24" fill="none" xmlns="http://www.w3.org/2000/svg">
<path d="M3.5 7C3.5 6.72386 3.72386 6.5 4 6.5H9.79289C9.9255 6.5 10.0527 6.55268 10.1464 6.64645L11.8536 8.35355C11.9473 8.44732 12.0745 8.5 12.2071 8.5H23C23.2761 8.5 23.5 8.72386 23.5 9L23.5 15.5667V23C23.5 23.2761 23.2761 23.5 23 23.5H4C3.72386 23.5 3.5 23.2761 3.5 23V7Z" fill="var(--mw-icon-background-light-yellow, #FFF5BC)" stroke="#674C06"/>
<rect x="5.5" y="0.5" width="18" height="18" rx="2" fill="var(--mw-icon-background-lightest-blue, #E2F0FF)" stroke="var(--mw-icon-borderColor-light-blue, #268CDD)"/>
<path d="M6.49988 9.49999H22.4999M14.5 1.5L14.5 17.5" stroke="var(--mw-icon-borderColor-light-blue, #268CDD)" stroke-linecap="square"/>
<path d="M1.14782 11.5H19.9712C20.1986 11.5 20.3973 11.6534 20.4549 11.8733L23.3359 22.8733C23.4189 23.1902 23.1798 23.5 22.8522 23.5H4.02877C3.80142 23.5 3.60268 23.3466 3.54508 23.1267L0.66413 12.1267C0.581131 11.8098 0.820222 11.5 1.14782 11.5Z" fill="var(--mw-icon-background-light-yellow, #FFF5BC)" stroke="#674C06"/>
</svg>
