<svg width="24" height="24" viewBox="0 0 24 24" fill="none" xmlns="http://www.w3.org/2000/svg">
<rect x="0.5" y="0.5" width="23" height="23" fill="var(--mw-icon-background-default-white, #FFFFFF)"/>
<path d="M2.5 23.5C2.5 7.9923 9.84374 4.50003 23.5 4.50002" stroke="#0072BD"/>
<rect x="0.5" y="0.5" width="23" height="23" stroke="var(--mw-icon-border-default-gray, #616161)" stroke-linejoin="round"/>
<path d="M7.09348 21.0392V15.5H7.88385V21.9165H7.16147L7.09348 21.0392ZM4 19.7066V19.6189C4 19.2736 4.04249 18.9603 4.12748 18.679C4.2153 18.3949 4.33853 18.1512 4.49717 17.9479C4.65864 17.7446 4.84986 17.5887 5.07082 17.4801C5.29462 17.3687 5.54391 17.313 5.8187 17.313C6.10765 17.313 6.35977 17.3631 6.57507 17.4634C6.7932 17.5608 6.97734 17.7043 7.12748 17.8936C7.28045 18.0802 7.40085 18.3058 7.48867 18.5704C7.57649 18.8349 7.63739 19.1343 7.67139 19.4685V19.8528C7.64023 20.1842 7.57932 20.4822 7.48867 20.7468C7.40085 21.0114 7.28045 21.2369 7.12748 21.4235C6.97734 21.6101 6.7932 21.7535 6.57507 21.8538C6.35694 21.9513 6.10198 22 5.8102 22C5.54108 22 5.29462 21.9429 5.07082 21.8287C4.84986 21.7145 4.65864 21.5544 4.49717 21.3483C4.33853 21.1422 4.2153 20.9 4.12748 20.6215C4.04249 20.3402 4 20.0352 4 19.7066ZM4.79037 19.6189V19.7066C4.79037 19.9322 4.81303 20.1439 4.85836 20.3416C4.90652 20.5393 4.98017 20.7134 5.07932 20.8638C5.17847 21.0141 5.30453 21.1325 5.45751 21.2188C5.61048 21.3024 5.7932 21.3442 6.00567 21.3442C6.26629 21.3442 6.48017 21.2898 6.64731 21.1812C6.81728 21.0726 6.95326 20.9292 7.05524 20.751C7.15722 20.5727 7.23654 20.3792 7.2932 20.1703V19.1636C7.25921 19.0104 7.20963 18.8628 7.14448 18.7208C7.08215 18.5759 7 18.4478 6.89802 18.3364C6.79887 18.2223 6.67564 18.1317 6.52833 18.0649C6.38385 17.9981 6.21246 17.9647 6.01416 17.9647C5.79887 17.9647 5.61331 18.0092 5.45751 18.0983C5.30453 18.1847 5.17847 18.3044 5.07932 18.4576C4.98017 18.608 4.90652 18.7834 4.85836 18.9839C4.81303 19.1817 4.79037 19.3933 4.79037 19.6189Z" fill="#D95319"/>
<path d="M9.63881 17.3965L10.6459 19.0424L11.6657 17.3965H12.5878L11.0836 19.6272L12.6346 21.9165H11.7252L10.6629 20.2204L9.60057 21.9165H8.68697L10.2337 19.6272L8.73371 17.3965H9.63881Z" fill="#D95319"/>
<path d="M17.0156 17.8435V18.5161H13.4717V17.8435H17.0156ZM17.0156 19.5771V20.2497H13.4717V19.5771H17.0156Z" fill="#D95319"/>
<path d="M22 18.3907V19.3181C22 19.8166 21.9547 20.2371 21.864 20.5797C21.7734 20.9222 21.6431 21.1979 21.4731 21.4068C21.3031 21.6157 21.0977 21.7675 20.8569 21.8621C20.619 21.954 20.3499 22 20.0496 22C19.8116 22 19.5921 21.9708 19.3909 21.9123C19.1898 21.8538 19.0085 21.7605 18.847 21.6324C18.6884 21.5015 18.5524 21.3316 18.4391 21.1228C18.3258 20.9139 18.2394 20.6605 18.1799 20.3625C18.1204 20.0645 18.0907 19.7164 18.0907 19.3181V18.3907C18.0907 17.8922 18.136 17.4745 18.2266 17.1375C18.3201 16.8006 18.4518 16.5304 18.6218 16.3271C18.7918 16.121 18.9958 15.9734 19.2337 15.8843C19.4745 15.7952 19.7436 15.7506 20.0411 15.7506C20.2819 15.7506 20.5028 15.7799 20.704 15.8384C20.9079 15.8941 21.0892 15.9846 21.2479 16.1099C21.4065 16.2324 21.5411 16.3967 21.6516 16.6028C21.7649 16.8061 21.8513 17.0554 21.9108 17.3506C21.9703 17.6458 22 17.9925 22 18.3907ZM21.2096 19.4434V18.2612C21.2096 17.9883 21.1926 17.7488 21.1586 17.5427C21.1275 17.3339 21.0807 17.1556 21.0184 17.008C20.9561 16.8604 20.8768 16.7407 20.7805 16.6488C20.687 16.5569 20.5779 16.49 20.4533 16.4483C20.3314 16.4037 20.1941 16.3814 20.0411 16.3814C19.8541 16.3814 19.6884 16.4162 19.5439 16.4859C19.3994 16.5527 19.2776 16.6599 19.1785 16.8075C19.0822 16.9551 19.0085 17.1487 18.9575 17.3882C18.9065 17.6277 18.881 17.9187 18.881 18.2612V19.4434C18.881 19.7164 18.8966 19.9573 18.9278 20.1661C18.9618 20.375 19.0113 20.556 19.0765 20.7092C19.1416 20.8596 19.221 20.9835 19.3144 21.081C19.4079 21.1784 19.5156 21.2509 19.6374 21.2982C19.762 21.3428 19.8994 21.365 20.0496 21.365C20.2422 21.365 20.4108 21.3288 20.5552 21.2564C20.6997 21.184 20.8201 21.0712 20.9164 20.9181C21.0156 20.7621 21.0892 20.563 21.1374 20.3207C21.1856 20.0756 21.2096 19.7832 21.2096 19.4434Z" fill="#D95319"/>
</svg>
