<svg width="24" height="24" viewBox="0 0 24 24" fill="none" xmlns="http://www.w3.org/2000/svg">
<path d="M0.5 18.5V4.5C0.5 2.29086 2.29086 0.5 4.5 0.5H18.5C20.7091 0.5 22.5 2.29086 22.5 4.5V18.5C22.5 20.7091 20.7091 22.5 18.5 22.5H4.5C2.29086 22.5 0.5 20.7091 0.5 18.5Z" fill="#1776A5"/>
<path d="M16.5 11.5C16.5 16.598 14.7308 19.5 13.5 19.5C12.2692 19.5 10.5 16.598 10.5 11.5C10.5 6.40199 12.2692 3.5 13.5 3.5C14.7308 3.5 16.5 6.40199 16.5 11.5Z" fill="#C9E7FF" stroke="#1776A5"/>
<path d="M6.5 3.5H13.5C13.5 3.5 10.5 4 10.5 11.5C10.5 19 13.5 19.5 13.5 19.5H6.5C6.5 19.5 6.5 14.8423 6.5 11.5C6.5 8.15765 6.5 3.5 6.5 3.5Z" fill="#C9E7FF"/>
<path d="M6.5 3.5V3C6.22386 3 6 3.22386 6 3.5H6.5ZM13.5 3.5L13.5822 3.9932C13.8388 3.95043 14.0198 3.71803 13.9983 3.45876C13.9768 3.19949 13.7602 3 13.5 3V3.5ZM13.5 19.5V20C13.7602 20 13.9768 19.8005 13.9983 19.5412C14.0198 19.282 13.8388 19.0496 13.5822 19.0068L13.5 19.5ZM6.5 19.5H6C6 19.7761 6.22386 20 6.5 20V19.5ZM6.5 4H13.5V3H6.5V4ZM13.5 19H6.5V20H13.5V19ZM6.5 19.5C7 19.5 7 19.5 7 19.4999C7 19.4999 7 19.4999 7 19.4998C7 19.4997 7 19.4996 7 19.4995C7 19.4994 7 19.4993 7 19.4992C7 19.499 7 19.4988 7 19.4987C7 19.4985 7 19.4983 7 19.4981C7 19.4979 7 19.4977 7 19.4974C7 19.4972 7 19.4969 7 19.4966C7 19.4963 7 19.496 7 19.4957C7 19.4954 7 19.4951 7 19.4947C7 19.4944 7 19.494 7 19.4936C7 19.4932 7 19.4928 7 19.4924C7 19.492 7 19.4915 7 19.4911C7 19.4906 7 19.4902 7 19.4897C7 19.4892 7 19.4887 7 19.4882C7 19.4876 7 19.4871 7 19.4865C7 19.486 7 19.4854 7 19.4848C7 19.4842 7 19.4836 7 19.483C7 19.4824 7 19.4817 7 19.4811C7 19.4804 7 19.4797 7 19.479C7 19.4783 7 19.4776 7 19.4769C7 19.4762 7 19.4754 7 19.4747C7 19.4739 7 19.4731 7 19.4723C7 19.4716 7 19.4707 7 19.4699C7 19.4691 7 19.4682 7 19.4674C7 19.4665 7 19.4656 7 19.4647C7 19.4639 7 19.4629 7 19.462C7 19.4611 7 19.4601 7 19.4592C7 19.4582 7 19.4573 7 19.4563C7 19.4553 7 19.4543 7 19.4532C7 19.4522 7 19.4512 7 19.4501C7 19.449 7 19.448 7 19.4469C7 19.4458 7 19.4447 7 19.4436C7 19.4424 7 19.4413 7 19.4401C7 19.439 7 19.4378 7 19.4366C7 19.4354 7 19.4342 7 19.433C7 19.4318 7 19.4305 7 19.4293C7 19.428 7 19.4268 7 19.4255C7 19.4242 7 19.4229 7 19.4216C7 19.4202 7 19.4189 7 19.4176C7 19.4162 7 19.4148 7 19.4135C7 19.4121 7 19.4107 7 19.4093C7 19.4079 7 19.4064 7 19.405C7 19.4035 7 19.4021 7 19.4006C7 19.3991 7 19.3976 7 19.3961C7 19.3946 7 19.3931 7 19.3915C7 19.39 7 19.3884 7 19.3869C7 19.3853 7 19.3837 7 19.3821C7 19.3805 7 19.3789 7 19.3773C7 19.3756 7 19.374 7 19.3723C7 19.3706 7 19.369 7 19.3673C7 19.3656 7 19.3639 7 19.3621C7 19.3604 7 19.3587 7 19.3569C7 19.3551 7 19.3534 7 19.3516C7 19.3498 7 19.348 7 19.3462C7 19.3443 7 19.3425 7 19.3407C7 19.3388 7 19.3369 7 19.3351C7 19.3332 7 19.3313 7 19.3294C7 19.3275 7 19.3255 7 19.3236C7 19.3217 7 19.3197 7 19.3177C7 19.3158 7 19.3138 7 19.3118C7 19.3098 7 19.3077 7 19.3057C7 19.3037 7 19.3016 7 19.2996C7 19.2975 7 19.2954 7 19.2933C7 19.2912 7 19.2891 7 19.287C7 19.2849 7 19.2828 7 19.2806C7 19.2785 7 19.2763 7 19.2741C7 19.2719 7 19.2697 7 19.2675C7 19.2653 7 19.2631 7 19.2608C7 19.2586 7 19.2564 7 19.2541C7 19.2518 7 19.2495 7 19.2472C7 19.2449 7 19.2426 7 19.2403C7 19.238 7 19.2356 7 19.2333C7 19.2309 7 19.2285 7 19.2261C7 19.2238 7 19.2214 7 19.2189C7 19.2165 7 19.2141 7 19.2117C7 19.2092 7 19.2068 7 19.2043C7 19.2018 7 19.1993 7 19.1968C7 19.1943 7 19.1918 7 19.1893C7 19.1868 7 19.1842 7 19.1816C7 19.1791 7 19.1765 7 19.1739C7 19.1713 7 19.1687 7 19.1661C7 19.1635 7 19.1609 7 19.1582C7 19.1556 7 19.1529 7 19.1503C7 19.1476 7 19.1449 7 19.1422C7 19.1395 7 19.1368 7 19.1341C7 19.1314 7 19.1286 7 19.1259C7 19.1231 7 19.1203 7 19.1176C7 19.1148 7 19.112 7 19.1092C7 19.1064 7 19.1035 7 19.1007C7 19.0979 7 19.095 7 19.0921C7 19.0893 7 19.0864 7 19.0835C7 19.0806 7 19.0777 7 19.0748C7 19.0719 7 19.0689 7 19.066C7 19.063 7 19.0601 7 19.0571C7 19.0541 7 19.0511 7 19.0481C7 19.0451 7 19.0421 7 19.0391C7 19.0361 7 19.033 7 19.03C7 19.0269 7 19.0238 7 19.0208C7 19.0177 7 19.0146 7 19.0115C7 19.0084 7 19.0052 7 19.0021C7 18.999 7 18.9958 7 18.9927C7 18.9895 7 18.9863 7 18.9831C7 18.98 7 18.9768 7 18.9735C7 18.9703 7 18.9671 7 18.9639C7 18.9606 7 18.9574 7 18.9541C7 18.9508 7 18.9475 7 18.9443C7 18.941 7 18.9377 7 18.9343C7 18.931 7 18.9277 7 18.9243C7 18.921 7 18.9176 7 18.9143C7 18.9109 7 18.9075 7 18.9041C7 18.9007 7 18.8973 7 18.8939C7 18.8905 7 18.887 7 18.8836C7 18.8801 7 18.8767 7 18.8732C7 18.8697 7 18.8663 7 18.8628C7 18.8593 7 18.8557 7 18.8522C7 18.8487 7 18.8452 7 18.8416C7 18.8381 7 18.8345 7 18.8309C7 18.8274 7 18.8238 7 18.8202C7 18.8166 7 18.813 7 18.8093C7 18.8057 7 18.8021 7 18.7984C7 18.7948 7 18.7911 7 18.7875C7 18.7838 7 18.7801 7 18.7764C7 18.7727 7 18.769 7 18.7653C7 18.7615 7 18.7578 7 18.7541C7 18.7503 7 18.7466 7 18.7428C7 18.739 7 18.7352 7 18.7314C7 18.7276 7 18.7238 7 18.72C7 18.7162 7 18.7124 7 18.7085C7 18.7047 7 18.7008 7 18.697C7 18.6931 7 18.6892 7 18.6853C7 18.6814 7 18.6775 7 18.6736C7 18.6697 7 18.6658 7 18.6618C7 18.6579 7 18.6539 7 18.65C7 18.646 7 18.642 7 18.6381C7 18.6341 7 18.6301 7 18.6261C7 18.622 7 18.618 7 18.614C7 18.61 7 18.6059 7 18.6019C7 18.5978 7 18.5937 7 18.5897C7 18.5856 7 18.5815 7 18.5774C7 18.5733 7 18.5692 7 18.565C7 18.5609 7 18.5568 7 18.5526C7 18.5485 7 18.5443 7 18.5401C7 18.536 7 18.5318 7 18.5276C7 18.5234 7 18.5192 7 18.515C7 18.5108 7 18.5065 7 18.5023C7 18.4981 7 18.4938 7 18.4895C7 18.4853 7 18.481 7 18.4767C7 18.4724 7 18.4681 7 18.4638C7 18.4595 7 18.4552 7 18.4509C7 18.4466 7 18.4422 7 18.4379C7 18.4335 7 18.4292 7 18.4248C7 18.4204 7 18.416 7 18.4116C7 18.4072 7 18.4028 7 18.3984C7 18.394 7 18.3896 7 18.3851C7 18.3807 7 18.3762 7 18.3718C7 18.3673 7 18.3628 7 18.3584C7 18.3539 7 18.3494 7 18.3449C7 18.3404 7 18.3359 7 18.3313C7 18.3268 7 18.3223 7 18.3177C7 18.3132 7 18.3086 7 18.3041C7 18.2995 7 18.2949 7 18.2903C7 18.2857 7 18.2811 7 18.2765C7 18.2719 7 18.2673 7 18.2627C7 18.258 7 18.2534 7 18.2487C7 18.2441 7 18.2394 7 18.2348C7 18.2301 7 18.2254 7 18.2207C7 18.216 7 18.2113 7 18.2066C7 18.2019 7 18.1972 7 18.1924C7 18.1877 7 18.1829 7 18.1782C7 18.1734 7 18.1687 7 18.1639C7 18.1591 7 18.1543 7 18.1495C7 18.1447 7 18.1399 7 18.1351C7 18.1303 7 18.1255 7 18.1206C7 18.1158 7 18.111 7 18.1061C7 18.1013 7 18.0964 7 18.0915C7 18.0866 7 18.0818 7 18.0769C7 18.072 7 18.0671 7 18.0621C7 18.0572 7 18.0523 7 18.0474C7 18.0424 7 18.0375 7 18.0325C7 18.0276 7 18.0226 7 18.0176C7 18.0127 7 18.0077 7 18.0027C7 17.9977 7 17.9927 7 17.9877C7 17.9827 7 17.9776 7 17.9726C7 17.9676 7 17.9625 7 17.9575C7 17.9524 7 17.9474 7 17.9423C7 17.9372 7 17.9322 7 17.9271C7 17.922 7 17.9169 7 17.9118C7 17.9067 7 17.9015 7 17.8964C7 17.8913 7 17.8862 7 17.881C7 17.8759 7 17.8707 7 17.8656C7 17.8604 7 17.8552 7 17.85C7 17.8449 7 17.8397 7 17.8345C7 17.8293 7 17.824 7 17.8188C7 17.8136 7 17.8084 7 17.8031C7 17.7979 7 17.7927 7 17.7874C7 17.7822 7 17.7769 7 17.7716C7 17.7663 7 17.7611 7 17.7558C7 17.7505 7 17.7452 7 17.7399C7 17.7346 7 17.7292 7 17.7239C7 17.7186 7 17.7132 7 17.7079C7 17.7026 7 17.6972 7 17.6918C7 17.6865 7 17.6811 7 17.6757C7 17.6704 7 17.665 7 17.6596C7 17.6542 7 17.6488 7 17.6433C7 17.6379 7 17.6325 7 17.6271C7 17.6216 7 17.6162 7 17.6108C7 17.6053 7 17.5999 7 17.5944C7 17.5889 7 17.5834 7 17.578C7 17.5725 7 17.567 7 17.5615C7 17.556 7 17.5505 7 17.545C7 17.5394 7 17.5339 7 17.5284C7 17.5229 7 17.5173 7 17.5118C7 17.5062 7 17.5007 7 17.4951C7 17.4895 7 17.4839 7 17.4784C7 17.4728 7 17.4672 7 17.4616C7 17.456 7 17.4504 7 17.4448C7 17.4392 7 17.4335 7 17.4279C7 17.4223 7 17.4166 7 17.411C7 17.4053 7 17.3997 7 17.394C7 17.3883 7 17.3827 7 17.377C7 17.3713 7 17.3656 7 17.3599C7 17.3542 7 17.3485 7 17.3428C7 17.3371 7 17.3314 7 17.3257C7 17.3199 7 17.3142 7 17.3085C7 17.3027 7 17.297 7 17.2912C7 17.2855 7 17.2797 7 17.2739C7 17.2681 7 17.2624 7 17.2566C7 17.2508 7 17.245 7 17.2392C7 17.2334 7 17.2276 7 17.2217C7 17.2159 7 17.2101 7 17.2043C7 17.1984 7 17.1926 7 17.1867C7 17.1809 7 17.175 7 17.1692C7 17.1633 7 17.1574 7 17.1516C7 17.1457 7 17.1398 7 17.1339C7 17.128 7 17.1221 7 17.1162C7 17.1103 7 17.1044 7 17.0985C7 17.0925 7 17.0866 7 17.0807C7 17.0747 7 17.0688 7 17.0628C7 17.0569 7 17.0509 7 17.045C7 17.039 7 17.033 7 17.027C7 17.0211 7 17.0151 7 17.0091C7 17.0031 7 16.9971 7 16.9911C7 16.9851 7 16.9791 7 16.973C7 16.967 7 16.961 7 16.955C7 16.9489 7 16.9429 7 16.9368C7 16.9308 7 16.9247 7 16.9187C7 16.9126 7 16.9065 7 16.9005C7 16.8944 7 16.8883 7 16.8822C7 16.8761 7 16.87 7 16.8639C7 16.8578 7 16.8517 7 16.8456C7 16.8395 7 16.8334 7 16.8272C7 16.8211 7 16.815 7 16.8088C7 16.8027 7 16.7965 7 16.7904C7 16.7842 7 16.7781 7 16.7719C7 16.7657 7 16.7596 7 16.7534C7 16.7472 7 16.741 7 16.7348C7 16.7286 7 16.7224 7 16.7162C7 16.71 7 16.7038 7 16.6976C7 16.6914 7 16.6851 7 16.6789C7 16.6727 7 16.6664 7 16.6602C7 16.654 7 16.6477 7 16.6415C7 16.6352 7 16.6289 7 16.6227C7 16.6164 7 16.6101 7 16.6038C7 16.5976 7 16.5913 7 16.585C7 16.5787 7 16.5724 7 16.5661C7 16.5598 7 16.5535 7 16.5472C7 16.5409 7 16.5345 7 16.5282C7 16.5219 7 16.5155 7 16.5092C7 16.5029 7 16.4965 7 16.4902C7 16.4838 7 16.4775 7 16.4711C7 16.4647 7 16.4584 7 16.452C7 16.4456 7 16.4393 7 16.4329C7 16.4265 7 16.4201 7 16.4137C7 16.4073 7 16.4009 7 16.3945C7 16.3881 7 16.3817 7 16.3753C7 16.3688 7 16.3624 7 16.356C7 16.3496 7 16.3431 7 16.3367C7 16.3302 7 16.3238 7 16.3174C7 16.3109 7 16.3044 7 16.298C7 16.2915 7 16.2851 7 16.2786C7 16.2721 7 16.2656 7 16.2592C7 16.2527 7 16.2462 7 16.2397C7 16.2332 7 16.2267 7 16.2202C7 16.2137 7 16.2072 7 16.2007C7 16.1942 7 16.1876 7 16.1811C7 16.1746 7 16.1681 7 16.1615C7 16.155 7 16.1485 7 16.1419C7 16.1354 7 16.1288 7 16.1223C7 16.1157 7 16.1092 7 16.1026C7 16.096 7 16.0895 7 16.0829C7 16.0763 7 16.0698 7 16.0632C7 16.0566 7 16.05 7 16.0434C7 16.0368 7 16.0302 7 16.0236C7 16.017 7 16.0104 7 16.0038C7 15.9972 7 15.9906 7 15.984C7 15.9774 7 15.9707 7 15.9641C7 15.9575 7 15.9508 7 15.9442C7 15.9376 7 15.9309 7 15.9243C7 15.9176 7 15.911 7 15.9043C7 15.8977 7 15.891 7 15.8843C7 15.8777 7 15.871 7 15.8643C7 15.8577 7 15.851 7 15.8443C7 15.8376 7 15.8309 7 15.8242C7 15.8176 7 15.8109 7 15.8042C7 15.7975 7 15.7908 7 15.7841C7 15.7774 7 15.7706 7 15.7639C7 15.7572 7 15.7505 7 15.7438C7 15.737 7 15.7303 7 15.7236C7 15.7169 7 15.7101 7 15.7034C7 15.6966 7 15.6899 7 15.6832C7 15.6764 7 15.6697 7 15.6629C7 15.6561 7 15.6494 7 15.6426C7 15.6359 7 15.6291 7 15.6223C7 15.6156 7 15.6088 7 15.602C7 15.5952 7 15.5884 7 15.5817C7 15.5749 7 15.5681 7 15.5613C7 15.5545 7 15.5477 7 15.5409C7 15.5341 7 15.5273 7 15.5205C7 15.5137 7 15.5069 7 15.5001C7 15.4932 7 15.4864 7 15.4796C7 15.4728 7 15.466 7 15.4591C7 15.4523 7 15.4455 7 15.4386C7 15.4318 7 15.425 7 15.4181C7 15.4113 7 15.4044 7 15.3976C7 15.3907 7 15.3839 7 15.377C7 15.3702 7 15.3633 7 15.3565C7 15.3496 7 15.3427 7 15.3359C7 15.329 7 15.3221 7 15.3152C7 15.3084 7 15.3015 7 15.2946C7 15.2877 7 15.2809 7 15.274C7 15.2671 7 15.2602 7 15.2533C7 15.2464 7 15.2395 7 15.2326C7 15.2257 7 15.2188 7 15.2119C7 15.205 7 15.1981 7 15.1912C7 15.1843 7 15.1774 7 15.1704C7 15.1635 7 15.1566 7 15.1497C7 15.1428 7 15.1358 7 15.1289C7 15.122 7 15.1151 7 15.1081C7 15.1012 7 15.0943 7 15.0873C7 15.0804 7 15.0734 7 15.0665C7 15.0596 7 15.0526 7 15.0457C7 15.0387 7 15.0318 7 15.0248C7 15.0179 7 15.0109 7 15.004C7 14.997 7 14.99 7 14.9831C7 14.9761 7 14.9691 7 14.9622C7 14.9552 7 14.9482 7 14.9413C7 14.9343 7 14.9273 7 14.9203C7 14.9134 7 14.9064 7 14.8994C7 14.8924 7 14.8854 7 14.8785C7 14.8715 7 14.8645 7 14.8575C7 14.8505 7 14.8435 7 14.8365C7 14.8295 7 14.8225 7 14.8155C7 14.8085 7 14.8015 7 14.7945C7 14.7875 7 14.7805 7 14.7735C7 14.7665 7 14.7595 7 14.7525C7 14.7455 7 14.7385 7 14.7314C7 14.7244 7 14.7174 7 14.7104C7 14.7034 7 14.6964 7 14.6893C7 14.6823 7 14.6753 7 14.6683C7 14.6612 7 14.6542 7 14.6472C7 14.6402 7 14.6331 7 14.6261C7 14.6191 7 14.612 7 14.605C7 14.598 7 14.5909 7 14.5839C7 14.5768 7 14.5698 7 14.5628C7 14.5557 7 14.5487 7 14.5416C7 14.5346 7 14.5275 7 14.5205C7 14.5135 7 14.5064 7 14.4994C7 14.4923 7 14.4853 7 14.4782C7 14.4711 7 14.4641 7 14.457C7 14.45 7 14.4429 7 14.4359C7 14.4288 7 14.4217 7 14.4147C7 14.4076 7 14.4006 7 14.3935C7 14.3864 7 14.3794 7 14.3723C7 14.3652 7 14.3582 7 14.3511C7 14.344 7 14.337 7 14.3299C7 14.3228 7 14.3158 7 14.3087C7 14.3016 7 14.2945 7 14.2875C7 14.2804 7 14.2733 7 14.2662C7 14.2592 7 14.2521 7 14.245C7 14.2379 7 14.2309 7 14.2238C7 14.2167 7 14.2096 7 14.2025C7 14.1955 7 14.1884 7 14.1813C7 14.1742 7 14.1671 7 14.1601C7 14.153 7 14.1459 7 14.1388C7 14.1317 7 14.1246 7 14.1175C7 14.1105 7 14.1034 7 14.0963C7 14.0892 7 14.0821 7 14.075C7 14.0679 7 14.0608 7 14.0538C7 14.0467 7 14.0396 7 14.0325C7 14.0254 7 14.0183 7 14.0112C7 14.0041 7 13.997 7 13.9899C7 13.9829 7 13.9758 7 13.9687C7 13.9616 7 13.9545 7 13.9474C7 13.9403 7 13.9332 7 13.9261C7 13.919 7 13.9119 7 13.9048C7 13.8977 7 13.8906 7 13.8836C7 13.8765 7 13.8694 7 13.8623C7 13.8552 7 13.8481 7 13.841C7 13.8339 7 13.8268 7 13.8197C7 13.8126 7 13.8055 7 13.7984C7 13.7913 7 13.7842 7 13.7772C7 13.7701 7 13.763 7 13.7559C7 13.7488 7 13.7417 7 13.7346C7 13.7275 7 13.7204 7 13.7133C7 13.7062 7 13.6991 7 13.692C7 13.6849 7 13.6779 7 13.6708C7 13.6637 7 13.6566 7 13.6495C7 13.6424 7 13.6353 7 13.6282C7 13.6211 7 13.614 7 13.607C7 13.5999 7 13.5928 7 13.5857C7 13.5786 7 13.5715 7 13.5644C7 13.5573 7 13.5503 7 13.5432C7 13.5361 7 13.529 7 13.5219C7 13.5148 7 13.5078 7 13.5007C7 13.4936 7 13.4865 7 13.4794C7 13.4723 7 13.4653 7 13.4582C7 13.4511 7 13.444 7 13.4369C7 13.4299 7 13.4228 7 13.4157C7 13.4086 7 13.4016 7 13.3945C7 13.3874 7 13.3803 7 13.3733C7 13.3662 7 13.3591 7 13.352C7 13.345 7 13.3379 7 13.3308C7 13.3238 7 13.3167 7 13.3096C7 13.3026 7 13.2955 7 13.2884C7 13.2814 7 13.2743 7 13.2673C7 13.2602 7 13.2531 7 13.2461C7 13.239 7 13.232 7 13.2249C7 13.2178 7 13.2108 7 13.2037C7 13.1967 7 13.1896 7 13.1826C7 13.1755 7 13.1685 7 13.1614C7 13.1544 7 13.1473 7 13.1403C7 13.1332 7 13.1262 7 13.1191C7 13.1121 7 13.1051 7 13.098C7 13.091 7 13.0839 7 13.0769C7 13.0699 7 13.0628 7 13.0558C7 13.0488 7 13.0417 7 13.0347C7 13.0277 7 13.0206 7 13.0136C7 13.0066 7 12.9996 7 12.9925C7 12.9855 7 12.9785 7 12.9715C7 12.9645 7 12.9574 7 12.9504C7 12.9434 7 12.9364 7 12.9294C7 12.9224 7 12.9154 7 12.9083C7 12.9013 7 12.8943 7 12.8873C7 12.8803 7 12.8733 7 12.8663C7 12.8593 7 12.8523 7 12.8453C7 12.8383 7 12.8313 7 12.8243C7 12.8173 7 12.8104 7 12.8034C7 12.7964 7 12.7894 7 12.7824C7 12.7754 7 12.7684 7 12.7615C7 12.7545 7 12.7475 7 12.7405C7 12.7336 7 12.7266 7 12.7196C7 12.7127 7 12.7057 7 12.6987C7 12.6918 7 12.6848 7 12.6778C7 12.6709 7 12.6639 7 12.657C7 12.65 7 12.643 7 12.6361C7 12.6291 7 12.6222 7 12.6153C7 12.6083 7 12.6014 7 12.5944C7 12.5875 7 12.5805 7 12.5736C7 12.5667 7 12.5597 7 12.5528C7 12.5459 7 12.539 7 12.532C7 12.5251 7 12.5182 7 12.5113C7 12.5044 7 12.4974 7 12.4905C7 12.4836 7 12.4767 7 12.4698C7 12.4629 7 12.456 7 12.4491C7 12.4422 7 12.4353 7 12.4284C7 12.4215 7 12.4146 7 12.4077C7 12.4008 7 12.3939 7 12.3871C7 12.3802 7 12.3733 7 12.3664C7 12.3595 7 12.3527 7 12.3458C7 12.3389 7 12.332 7 12.3252C7 12.3183 7 12.3115 7 12.3046C7 12.2977 7 12.2909 7 12.284C7 12.2772 7 12.2703 7 12.2635C7 12.2566 7 12.2498 7 12.243C7 12.2361 7 12.2293 7 12.2225C7 12.2156 7 12.2088 7 12.202C7 12.1951 7 12.1883 7 12.1815C7 12.1747 7 12.1679 7 12.1611C7 12.1543 7 12.1474 7 12.1406C7 12.1338 7 12.127 7 12.1202C7 12.1134 7 12.1067 7 12.0999C7 12.0931 7 12.0863 7 12.0795C7 12.0727 7 12.066 7 12.0592C7 12.0524 7 12.0456 7 12.0389C7 12.0321 7 12.0253 7 12.0186C7 12.0118 7 12.0051 7 11.9983C7 11.9916 7 11.9848 7 11.9781C7 11.9713 7 11.9646 7 11.9579C7 11.9511 7 11.9444 7 11.9377C7 11.9309 7 11.9242 7 11.9175C7 11.9108 7 11.9041 7 11.8973C7 11.8906 7 11.8839 7 11.8772C7 11.8705 7 11.8638 7 11.8571C7 11.8504 7 11.8437 7 11.8371C7 11.8304 7 11.8237 7 11.817C7 11.8103 7 11.8037 7 11.797C7 11.7903 7 11.7837 7 11.777C7 11.7703 7 11.7637 7 11.757C7 11.7504 7 11.7437 7 11.7371C7 11.7305 7 11.7238 7 11.7172C7 11.7106 7 11.7039 7 11.6973C7 11.6907 7 11.6841 7 11.6774C7 11.6708 7 11.6642 7 11.6576C7 11.651 7 11.6444 7 11.6378C7 11.6312 7 11.6246 7 11.618C7 11.6115 7 11.6049 7 11.5983C7 11.5917 7 11.5851 7 11.5786C7 11.572 7 11.5654 7 11.5589C7 11.5523 7 11.5458 7 11.5392C7 11.5327 7 11.5261 7 11.5196C7 11.5131 7 11.5065 7 11.5H6C6 11.5065 6 11.5131 6 11.5196C6 11.5261 6 11.5327 6 11.5392C6 11.5458 6 11.5523 6 11.5589C6 11.5654 6 11.572 6 11.5786C6 11.5851 6 11.5917 6 11.5983C6 11.6049 6 11.6115 6 11.618C6 11.6246 6 11.6312 6 11.6378C6 11.6444 6 11.651 6 11.6576C6 11.6642 6 11.6708 6 11.6774C6 11.6841 6 11.6907 6 11.6973C6 11.7039 6 11.7106 6 11.7172C6 11.7238 6 11.7305 6 11.7371C6 11.7437 6 11.7504 6 11.757C6 11.7637 6 11.7703 6 11.777C6 11.7837 6 11.7903 6 11.797C6 11.8037 6 11.8103 6 11.817C6 11.8237 6 11.8304 6 11.8371C6 11.8437 6 11.8504 6 11.8571C6 11.8638 6 11.8705 6 11.8772C6 11.8839 6 11.8906 6 11.8973C6 11.9041 6 11.9108 6 11.9175C6 11.9242 6 11.9309 6 11.9377C6 11.9444 6 11.9511 6 11.9579C6 11.9646 6 11.9713 6 11.9781C6 11.9848 6 11.9916 6 11.9983C6 12.0051 6 12.0118 6 12.0186C6 12.0253 6 12.0321 6 12.0389C6 12.0456 6 12.0524 6 12.0592C6 12.066 6 12.0727 6 12.0795C6 12.0863 6 12.0931 6 12.0999C6 12.1067 6 12.1134 6 12.1202C6 12.127 6 12.1338 6 12.1406C6 12.1474 6 12.1543 6 12.1611C6 12.1679 6 12.1747 6 12.1815C6 12.1883 6 12.1951 6 12.202C6 12.2088 6 12.2156 6 12.2225C6 12.2293 6 12.2361 6 12.243C6 12.2498 6 12.2566 6 12.2635C6 12.2703 6 12.2772 6 12.284C6 12.2909 6 12.2977 6 12.3046C6 12.3115 6 12.3183 6 12.3252C6 12.332 6 12.3389 6 12.3458C6 12.3527 6 12.3595 6 12.3664C6 12.3733 6 12.3802 6 12.3871C6 12.3939 6 12.4008 6 12.4077C6 12.4146 6 12.4215 6 12.4284C6 12.4353 6 12.4422 6 12.4491C6 12.456 6 12.4629 6 12.4698C6 12.4767 6 12.4836 6 12.4905C6 12.4974 6 12.5044 6 12.5113C6 12.5182 6 12.5251 6 12.532C6 12.539 6 12.5459 6 12.5528C6 12.5597 6 12.5667 6 12.5736C6 12.5805 6 12.5875 6 12.5944C6 12.6014 6 12.6083 6 12.6153C6 12.6222 6 12.6291 6 12.6361C6 12.643 6 12.65 6 12.657C6 12.6639 6 12.6709 6 12.6778C6 12.6848 6 12.6918 6 12.6987C6 12.7057 6 12.7127 6 12.7196C6 12.7266 6 12.7336 6 12.7405C6 12.7475 6 12.7545 6 12.7615C6 12.7684 6 12.7754 6 12.7824C6 12.7894 6 12.7964 6 12.8034C6 12.8104 6 12.8173 6 12.8243C6 12.8313 6 12.8383 6 12.8453C6 12.8523 6 12.8593 6 12.8663C6 12.8733 6 12.8803 6 12.8873C6 12.8943 6 12.9013 6 12.9083C6 12.9154 6 12.9224 6 12.9294C6 12.9364 6 12.9434 6 12.9504C6 12.9574 6 12.9645 6 12.9715C6 12.9785 6 12.9855 6 12.9925C6 12.9996 6 13.0066 6 13.0136C6 13.0206 6 13.0277 6 13.0347C6 13.0417 6 13.0488 6 13.0558C6 13.0628 6 13.0699 6 13.0769C6 13.0839 6 13.091 6 13.098C6 13.1051 6 13.1121 6 13.1191C6 13.1262 6 13.1332 6 13.1403C6 13.1473 6 13.1544 6 13.1614C6 13.1685 6 13.1755 6 13.1826C6 13.1896 6 13.1967 6 13.2037C6 13.2108 6 13.2178 6 13.2249C6 13.232 6 13.239 6 13.2461C6 13.2531 6 13.2602 6 13.2673C6 13.2743 6 13.2814 6 13.2884C6 13.2955 6 13.3026 6 13.3096C6 13.3167 6 13.3238 6 13.3308C6 13.3379 6 13.345 6 13.352C6 13.3591 6 13.3662 6 13.3733C6 13.3803 6 13.3874 6 13.3945C6 13.4016 6 13.4086 6 13.4157C6 13.4228 6 13.4299 6 13.4369C6 13.444 6 13.4511 6 13.4582C6 13.4653 6 13.4723 6 13.4794C6 13.4865 6 13.4936 6 13.5007C6 13.5078 6 13.5148 6 13.5219C6 13.529 6 13.5361 6 13.5432C6 13.5503 6 13.5573 6 13.5644C6 13.5715 6 13.5786 6 13.5857C6 13.5928 6 13.5999 6 13.607C6 13.614 6 13.6211 6 13.6282C6 13.6353 6 13.6424 6 13.6495C6 13.6566 6 13.6637 6 13.6708C6 13.6779 6 13.6849 6 13.692C6 13.6991 6 13.7062 6 13.7133C6 13.7204 6 13.7275 6 13.7346C6 13.7417 6 13.7488 6 13.7559C6 13.763 6 13.7701 6 13.7772C6 13.7842 6 13.7913 6 13.7984C6 13.8055 6 13.8126 6 13.8197C6 13.8268 6 13.8339 6 13.841C6 13.8481 6 13.8552 6 13.8623C6 13.8694 6 13.8765 6 13.8836C6 13.8906 6 13.8977 6 13.9048C6 13.9119 6 13.919 6 13.9261C6 13.9332 6 13.9403 6 13.9474C6 13.9545 6 13.9616 6 13.9687C6 13.9758 6 13.9829 6 13.9899C6 13.997 6 14.0041 6 14.0112C6 14.0183 6 14.0254 6 14.0325C6 14.0396 6 14.0467 6 14.0538C6 14.0608 6 14.0679 6 14.075C6 14.0821 6 14.0892 6 14.0963C6 14.1034 6 14.1105 6 14.1175C6 14.1246 6 14.1317 6 14.1388C6 14.1459 6 14.153 6 14.1601C6 14.1671 6 14.1742 6 14.1813C6 14.1884 6 14.1955 6 14.2025C6 14.2096 6 14.2167 6 14.2238C6 14.2309 6 14.2379 6 14.245C6 14.2521 6 14.2592 6 14.2662C6 14.2733 6 14.2804 6 14.2875C6 14.2945 6 14.3016 6 14.3087C6 14.3158 6 14.3228 6 14.3299C6 14.337 6 14.344 6 14.3511C6 14.3582 6 14.3652 6 14.3723C6 14.3794 6 14.3864 6 14.3935C6 14.4006 6 14.4076 6 14.4147C6 14.4217 6 14.4288 6 14.4359C6 14.4429 6 14.45 6 14.457C6 14.4641 6 14.4711 6 14.4782C6 14.4853 6 14.4923 6 14.4994C6 14.5064 6 14.5135 6 14.5205C6 14.5275 6 14.5346 6 14.5416C6 14.5487 6 14.5557 6 14.5628C6 14.5698 6 14.5768 6 14.5839C6 14.5909 6 14.598 6 14.605C6 14.612 6 14.6191 6 14.6261C6 14.6331 6 14.6402 6 14.6472C6 14.6542 6 14.6612 6 14.6683C6 14.6753 6 14.6823 6 14.6893C6 14.6964 6 14.7034 6 14.7104C6 14.7174 6 14.7244 6 14.7314C6 14.7385 6 14.7455 6 14.7525C6 14.7595 6 14.7665 6 14.7735C6 14.7805 6 14.7875 6 14.7945C6 14.8015 6 14.8085 6 14.8155C6 14.8225 6 14.8295 6 14.8365C6 14.8435 6 14.8505 6 14.8575C6 14.8645 6 14.8715 6 14.8785C6 14.8854 6 14.8924 6 14.8994C6 14.9064 6 14.9134 6 14.9203C6 14.9273 6 14.9343 6 14.9413C6 14.9482 6 14.9552 6 14.9622C6 14.9691 6 14.9761 6 14.9831C6 14.99 6 14.997 6 15.004C6 15.0109 6 15.0179 6 15.0248C6 15.0318 6 15.0387 6 15.0457C6 15.0526 6 15.0596 6 15.0665C6 15.0734 6 15.0804 6 15.0873C6 15.0943 6 15.1012 6 15.1081C6 15.1151 6 15.122 6 15.1289C6 15.1358 6 15.1428 6 15.1497C6 15.1566 6 15.1635 6 15.1704C6 15.1774 6 15.1843 6 15.1912C6 15.1981 6 15.205 6 15.2119C6 15.2188 6 15.2257 6 15.2326C6 15.2395 6 15.2464 6 15.2533C6 15.2602 6 15.2671 6 15.274C6 15.2809 6 15.2877 6 15.2946C6 15.3015 6 15.3084 6 15.3152C6 15.3221 6 15.329 6 15.3359C6 15.3427 6 15.3496 6 15.3565C6 15.3633 6 15.3702 6 15.377C6 15.3839 6 15.3907 6 15.3976C6 15.4044 6 15.4113 6 15.4181C6 15.425 6 15.4318 6 15.4386C6 15.4455 6 15.4523 6 15.4591C6 15.466 6 15.4728 6 15.4796C6 15.4864 6 15.4932 6 15.5001C6 15.5069 6 15.5137 6 15.5205C6 15.5273 6 15.5341 6 15.5409C6 15.5477 6 15.5545 6 15.5613C6 15.5681 6 15.5749 6 15.5817C6 15.5884 6 15.5952 6 15.602C6 15.6088 6 15.6156 6 15.6223C6 15.6291 6 15.6359 6 15.6426C6 15.6494 6 15.6561 6 15.6629C6 15.6697 6 15.6764 6 15.6832C6 15.6899 6 15.6966 6 15.7034C6 15.7101 6 15.7169 6 15.7236C6 15.7303 6 15.737 6 15.7438C6 15.7505 6 15.7572 6 15.7639C6 15.7706 6 15.7774 6 15.7841C6 15.7908 6 15.7975 6 15.8042C6 15.8109 6 15.8176 6 15.8242C6 15.8309 6 15.8376 6 15.8443C6 15.851 6 15.8577 6 15.8643C6 15.871 6 15.8777 6 15.8843C6 15.891 6 15.8977 6 15.9043C6 15.911 6 15.9176 6 15.9243C6 15.9309 6 15.9376 6 15.9442C6 15.9508 6 15.9575 6 15.9641C6 15.9707 6 15.9774 6 15.984C6 15.9906 6 15.9972 6 16.0038C6 16.0104 6 16.017 6 16.0236C6 16.0302 6 16.0368 6 16.0434C6 16.05 6 16.0566 6 16.0632C6 16.0698 6 16.0763 6 16.0829C6 16.0895 6 16.096 6 16.1026C6 16.1092 6 16.1157 6 16.1223C6 16.1288 6 16.1354 6 16.1419C6 16.1485 6 16.155 6 16.1615C6 16.1681 6 16.1746 6 16.1811C6 16.1876 6 16.1942 6 16.2007C6 16.2072 6 16.2137 6 16.2202C6 16.2267 6 16.2332 6 16.2397C6 16.2462 6 16.2527 6 16.2592C6 16.2656 6 16.2721 6 16.2786C6 16.2851 6 16.2915 6 16.298C6 16.3044 6 16.3109 6 16.3174C6 16.3238 6 16.3302 6 16.3367C6 16.3431 6 16.3496 6 16.356C6 16.3624 6 16.3688 6 16.3753C6 16.3817 6 16.3881 6 16.3945C6 16.4009 6 16.4073 6 16.4137C6 16.4201 6 16.4265 6 16.4329C6 16.4393 6 16.4456 6 16.452C6 16.4584 6 16.4647 6 16.4711C6 16.4775 6 16.4838 6 16.4902C6 16.4965 6 16.5029 6 16.5092C6 16.5155 6 16.5219 6 16.5282C6 16.5345 6 16.5409 6 16.5472C6 16.5535 6 16.5598 6 16.5661C6 16.5724 6 16.5787 6 16.585C6 16.5913 6 16.5976 6 16.6038C6 16.6101 6 16.6164 6 16.6227C6 16.6289 6 16.6352 6 16.6415C6 16.6477 6 16.654 6 16.6602C6 16.6664 6 16.6727 6 16.6789C6 16.6851 6 16.6914 6 16.6976C6 16.7038 6 16.71 6 16.7162C6 16.7224 6 16.7286 6 16.7348C6 16.741 6 16.7472 6 16.7534C6 16.7596 6 16.7657 6 16.7719C6 16.7781 6 16.7842 6 16.7904C6 16.7965 6 16.8027 6 16.8088C6 16.815 6 16.8211 6 16.8272C6 16.8334 6 16.8395 6 16.8456C6 16.8517 6 16.8578 6 16.8639C6 16.87 6 16.8761 6 16.8822C6 16.8883 6 16.8944 6 16.9005C6 16.9065 6 16.9126 6 16.9187C6 16.9247 6 16.9308 6 16.9368C6 16.9429 6 16.9489 6 16.955C6 16.961 6 16.967 6 16.973C6 16.9791 6 16.9851 6 16.9911C6 16.9971 6 17.0031 6 17.0091C6 17.0151 6 17.0211 6 17.027C6 17.033 6 17.039 6 17.045C6 17.0509 6 17.0569 6 17.0628C6 17.0688 6 17.0747 6 17.0807C6 17.0866 6 17.0925 6 17.0985C6 17.1044 6 17.1103 6 17.1162C6 17.1221 6 17.128 6 17.1339C6 17.1398 6 17.1457 6 17.1516C6 17.1574 6 17.1633 6 17.1692C6 17.175 6 17.1809 6 17.1867C6 17.1926 6 17.1984 6 17.2043C6 17.2101 6 17.2159 6 17.2217C6 17.2276 6 17.2334 6 17.2392C6 17.245 6 17.2508 6 17.2566C6 17.2624 6 17.2681 6 17.2739C6 17.2797 6 17.2855 6 17.2912C6 17.297 6 17.3027 6 17.3085C6 17.3142 6 17.3199 6 17.3257C6 17.3314 6 17.3371 6 17.3428C6 17.3485 6 17.3542 6 17.3599C6 17.3656 6 17.3713 6 17.377C6 17.3827 6 17.3883 6 17.394C6 17.3997 6 17.4053 6 17.411C6 17.4166 6 17.4223 6 17.4279C6 17.4335 6 17.4392 6 17.4448C6 17.4504 6 17.456 6 17.4616C6 17.4672 6 17.4728 6 17.4784C6 17.4839 6 17.4895 6 17.4951C6 17.5007 6 17.5062 6 17.5118C6 17.5173 6 17.5229 6 17.5284C6 17.5339 6 17.5394 6 17.545C6 17.5505 6 17.556 6 17.5615C6 17.567 6 17.5725 6 17.578C6 17.5834 6 17.5889 6 17.5944C6 17.5999 6 17.6053 6 17.6108C6 17.6162 6 17.6216 6 17.6271C6 17.6325 6 17.6379 6 17.6433C6 17.6488 6 17.6542 6 17.6596C6 17.665 6 17.6704 6 17.6757C6 17.6811 6 17.6865 6 17.6918C6 17.6972 6 17.7026 6 17.7079C6 17.7132 6 17.7186 6 17.7239C6 17.7292 6 17.7346 6 17.7399C6 17.7452 6 17.7505 6 17.7558C6 17.7611 6 17.7663 6 17.7716C6 17.7769 6 17.7822 6 17.7874C6 17.7927 6 17.7979 6 17.8031C6 17.8084 6 17.8136 6 17.8188C6 17.824 6 17.8293 6 17.8345C6 17.8397 6 17.8449 6 17.85C6 17.8552 6 17.8604 6 17.8656C6 17.8707 6 17.8759 6 17.881C6 17.8862 6 17.8913 6 17.8964C6 17.9015 6 17.9067 6 17.9118C6 17.9169 6 17.922 6 17.9271C6 17.9322 6 17.9372 6 17.9423C6 17.9474 6 17.9524 6 17.9575C6 17.9625 6 17.9676 6 17.9726C6 17.9776 6 17.9827 6 17.9877C6 17.9927 6 17.9977 6 18.0027C6 18.0077 6 18.0127 6 18.0176C6 18.0226 6 18.0276 6 18.0325C6 18.0375 6 18.0424 6 18.0474C6 18.0523 6 18.0572 6 18.0621C6 18.0671 6 18.072 6 18.0769C6 18.0818 6 18.0866 6 18.0915C6 18.0964 6 18.1013 6 18.1061C6 18.111 6 18.1158 6 18.1206C6 18.1255 6 18.1303 6 18.1351C6 18.1399 6 18.1447 6 18.1495C6 18.1543 6 18.1591 6 18.1639C6 18.1687 6 18.1734 6 18.1782C6 18.1829 6 18.1877 6 18.1924C6 18.1972 6 18.2019 6 18.2066C6 18.2113 6 18.216 6 18.2207C6 18.2254 6 18.2301 6 18.2348C6 18.2394 6 18.2441 6 18.2487C6 18.2534 6 18.258 6 18.2627C6 18.2673 6 18.2719 6 18.2765C6 18.2811 6 18.2857 6 18.2903C6 18.2949 6 18.2995 6 18.3041C6 18.3086 6 18.3132 6 18.3177C6 18.3223 6 18.3268 6 18.3313C6 18.3359 6 18.3404 6 18.3449C6 18.3494 6 18.3539 6 18.3584C6 18.3628 6 18.3673 6 18.3718C6 18.3762 6 18.3807 6 18.3851C6 18.3896 6 18.394 6 18.3984C6 18.4028 6 18.4072 6 18.4116C6 18.416 6 18.4204 6 18.4248C6 18.4292 6 18.4335 6 18.4379C6 18.4422 6 18.4466 6 18.4509C6 18.4552 6 18.4595 6 18.4638C6 18.4681 6 18.4724 6 18.4767C6 18.481 6 18.4853 6 18.4895C6 18.4938 6 18.4981 6 18.5023C6 18.5065 6 18.5108 6 18.515C6 18.5192 6 18.5234 6 18.5276C6 18.5318 6 18.536 6 18.5401C6 18.5443 6 18.5485 6 18.5526C6 18.5568 6 18.5609 6 18.565C6 18.5692 6 18.5733 6 18.5774C6 18.5815 6 18.5856 6 18.5897C6 18.5937 6 18.5978 6 18.6019C6 18.6059 6 18.61 6 18.614C6 18.618 6 18.622 6 18.6261C6 18.6301 6 18.6341 6 18.6381C6 18.642 6 18.646 6 18.65C6 18.6539 6 18.6579 6 18.6618C6 18.6658 6 18.6697 6 18.6736C6 18.6775 6 18.6814 6 18.6853C6 18.6892 6 18.6931 6 18.697C6 18.7008 6 18.7047 6 18.7085C6 18.7124 6 18.7162 6 18.72C6 18.7238 6 18.7276 6 18.7314C6 18.7352 6 18.739 6 18.7428C6 18.7466 6 18.7503 6 18.7541C6 18.7578 6 18.7615 6 18.7653C6 18.769 6 18.7727 6 18.7764C6 18.7801 6 18.7838 6 18.7875C6 18.7911 6 18.7948 6 18.7984C6 18.8021 6 18.8057 6 18.8093C6 18.813 6 18.8166 6 18.8202C6 18.8238 6 18.8274 6 18.8309C6 18.8345 6 18.8381 6 18.8416C6 18.8452 6 18.8487 6 18.8522C6 18.8557 6 18.8593 6 18.8628C6 18.8663 6 18.8697 6 18.8732C6 18.8767 6 18.8801 6 18.8836C6 18.887 6 18.8905 6 18.8939C6 18.8973 6 18.9007 6 18.9041C6 18.9075 6 18.9109 6 18.9143C6 18.9176 6 18.921 6 18.9243C6 18.9277 6 18.931 6 18.9343C6 18.9377 6 18.941 6 18.9443C6 18.9475 6 18.9508 6 18.9541C6 18.9574 6 18.9606 6 18.9639C6 18.9671 6 18.9703 6 18.9735C6 18.9768 6 18.98 6 18.9831C6 18.9863 6 18.9895 6 18.9927C6 18.9958 6 18.999 6 19.0021C6 19.0052 6 19.0084 6 19.0115C6 19.0146 6 19.0177 6 19.0208C6 19.0238 6 19.0269 6 19.03C6 19.033 6 19.0361 6 19.0391C6 19.0421 6 19.0451 6 19.0481C6 19.0511 6 19.0541 6 19.0571C6 19.0601 6 19.063 6 19.066C6 19.0689 6 19.0719 6 19.0748C6 19.0777 6 19.0806 6 19.0835C6 19.0864 6 19.0893 6 19.0921C6 19.095 6 19.0979 6 19.1007C6 19.1035 6 19.1064 6 19.1092C6 19.112 6 19.1148 6 19.1176C6 19.1203 6 19.1231 6 19.1259C6 19.1286 6 19.1314 6 19.1341C6 19.1368 6 19.1395 6 19.1422C6 19.1449 6 19.1476 6 19.1503C6 19.1529 6 19.1556 6 19.1582C6 19.1609 6 19.1635 6 19.1661C6 19.1687 6 19.1713 6 19.1739C6 19.1765 6 19.1791 6 19.1816C6 19.1842 6 19.1868 6 19.1893C6 19.1918 6 19.1943 6 19.1968C6 19.1993 6 19.2018 6 19.2043C6 19.2068 6 19.2092 6 19.2117C6 19.2141 6 19.2165 6 19.2189C6 19.2214 6 19.2238 6 19.2261C6 19.2285 6 19.2309 6 19.2333C6 19.2356 6 19.238 6 19.2403C6 19.2426 6 19.2449 6 19.2472C6 19.2495 6 19.2518 6 19.2541C6 19.2564 6 19.2586 6 19.2608C6 19.2631 6 19.2653 6 19.2675C6 19.2697 6 19.2719 6 19.2741C6 19.2763 6 19.2785 6 19.2806C6 19.2828 6 19.2849 6 19.287C6 19.2891 6 19.2912 6 19.2933C6 19.2954 6 19.2975 6 19.2996C6 19.3016 6 19.3037 6 19.3057C6 19.3077 6 19.3098 6 19.3118C6 19.3138 6 19.3158 6 19.3177C6 19.3197 6 19.3217 6 19.3236C6 19.3255 6 19.3275 6 19.3294C6 19.3313 6 19.3332 6 19.3351C6 19.3369 6 19.3388 6 19.3407C6 19.3425 6 19.3443 6 19.3462C6 19.348 6 19.3498 6 19.3516C6 19.3534 6 19.3551 6 19.3569C6 19.3587 6 19.3604 6 19.3621C6 19.3639 6 19.3656 6 19.3673C6 19.369 6 19.3706 6 19.3723C6 19.374 6 19.3756 6 19.3773C6 19.3789 6 19.3805 6 19.3821C6 19.3837 6 19.3853 6 19.3869C6 19.3884 6 19.39 6 19.3915C6 19.3931 6 19.3946 6 19.3961C6 19.3976 6 19.3991 6 19.4006C6 19.4021 6 19.4035 6 19.405C6 19.4064 6 19.4079 6 19.4093C6 19.4107 6 19.4121 6 19.4135C6 19.4148 6 19.4162 6 19.4176C6 19.4189 6 19.4202 6 19.4216C6 19.4229 6 19.4242 6 19.4255C6 19.4268 6 19.428 6 19.4293C6 19.4305 6 19.4318 6 19.433C6 19.4342 6 19.4354 6 19.4366C6 19.4378 6 19.439 6 19.4401C6 19.4413 6 19.4424 6 19.4436C6 19.4447 6 19.4458 6 19.4469C6 19.448 6 19.449 6 19.4501C6 19.4512 6 19.4522 6 19.4532C6 19.4543 6 19.4553 6 19.4563C6 19.4573 6 19.4582 6 19.4592C6 19.4601 6 19.4611 6 19.462C6 19.4629 6 19.4639 6 19.4647C6 19.4656 6 19.4665 6 19.4674C6 19.4682 6 19.4691 6 19.4699C6 19.4707 6 19.4716 6 19.4723C6 19.4731 6 19.4739 6 19.4747C6 19.4754 6 19.4762 6 19.4769C6 19.4776 6 19.4783 6 19.479C6 19.4797 6 19.4804 6 19.4811C6 19.4817 6 19.4824 6 19.483C6 19.4836 6 19.4842 6 19.4848C6 19.4854 6 19.486 6 19.4865C6 19.4871 6 19.4876 6 19.4882C6 19.4887 6 19.4892 6 19.4897C6 19.4902 6 19.4906 6 19.4911C6 19.4915 6 19.492 6 19.4924C6 19.4928 6 19.4932 6 19.4936C6 19.494 6 19.4944 6 19.4947C6 19.4951 6 19.4954 6 19.4957C6 19.496 6 19.4963 6 19.4966C6 19.4969 6 19.4972 6 19.4974C6 19.4977 6 19.4979 6 19.4981C6 19.4983 6 19.4985 6 19.4987C6 19.4988 6 19.499 6 19.4992C6 19.4993 6 19.4994 6 19.4995C6 19.4996 6 19.4997 6 19.4998C6 19.4999 6 19.4999 6 19.4999C6 19.5 6 19.5 6.5 19.5ZM7 11.5C7 11.4935 7 11.4869 7 11.4804C7 11.4739 7 11.4673 7 11.4608C7 11.4542 7 11.4477 7 11.4411C7 11.4346 7 11.428 7 11.4214C7 11.4149 7 11.4083 7 11.4017C7 11.3951 7 11.3885 7 11.382C7 11.3754 7 11.3688 7 11.3622C7 11.3556 7 11.349 7 11.3424C7 11.3358 7 11.3292 7 11.3226C7 11.3159 7 11.3093 7 11.3027C7 11.2961 7 11.2894 7 11.2828C7 11.2762 7 11.2695 7 11.2629C7 11.2563 7 11.2496 7 11.243C7 11.2363 7 11.2297 7 11.223C7 11.2163 7 11.2097 7 11.203C7 11.1963 7 11.1897 7 11.183C7 11.1763 7 11.1696 7 11.1629C7 11.1563 7 11.1496 7 11.1429C7 11.1362 7 11.1295 7 11.1228C7 11.1161 7 11.1094 7 11.1027C7 11.0959 7 11.0892 7 11.0825C7 11.0758 7 11.0691 7 11.0623C7 11.0556 7 11.0489 7 11.0421C7 11.0354 7 11.0287 7 11.0219C7 11.0152 7 11.0084 7 11.0017C7 10.9949 7 10.9882 7 10.9814C7 10.9747 7 10.9679 7 10.9611C7 10.9544 7 10.9476 7 10.9408C7 10.934 7 10.9273 7 10.9205C7 10.9137 7 10.9069 7 10.9001C7 10.8933 7 10.8866 7 10.8798C7 10.873 7 10.8662 7 10.8594C7 10.8526 7 10.8457 7 10.8389C7 10.8321 7 10.8253 7 10.8185C7 10.8117 7 10.8049 7 10.798C7 10.7912 7 10.7844 7 10.7775C7 10.7707 7 10.7639 7 10.757C7 10.7502 7 10.7434 7 10.7365C7 10.7297 7 10.7228 7 10.716C7 10.7091 7 10.7023 7 10.6954C7 10.6885 7 10.6817 7 10.6748C7 10.668 7 10.6611 7 10.6542C7 10.6473 7 10.6405 7 10.6336C7 10.6267 7 10.6198 7 10.6129C7 10.6061 7 10.5992 7 10.5923C7 10.5854 7 10.5785 7 10.5716C7 10.5647 7 10.5578 7 10.5509C7 10.544 7 10.5371 7 10.5302C7 10.5233 7 10.5164 7 10.5095C7 10.5026 7 10.4956 7 10.4887C7 10.4818 7 10.4749 7 10.468C7 10.461 7 10.4541 7 10.4472C7 10.4403 7 10.4333 7 10.4264C7 10.4195 7 10.4125 7 10.4056C7 10.3986 7 10.3917 7 10.3847C7 10.3778 7 10.3709 7 10.3639C7 10.357 7 10.35 7 10.343C7 10.3361 7 10.3291 7 10.3222C7 10.3152 7 10.3082 7 10.3013C7 10.2943 7 10.2873 7 10.2804C7 10.2734 7 10.2664 7 10.2595C7 10.2525 7 10.2455 7 10.2385C7 10.2316 7 10.2246 7 10.2176C7 10.2106 7 10.2036 7 10.1966C7 10.1896 7 10.1827 7 10.1757C7 10.1687 7 10.1617 7 10.1547C7 10.1477 7 10.1407 7 10.1337C7 10.1267 7 10.1197 7 10.1127C7 10.1057 7 10.0987 7 10.0917C7 10.0846 7 10.0776 7 10.0706C7 10.0636 7 10.0566 7 10.0496C7 10.0426 7 10.0355 7 10.0285C7 10.0215 7 10.0145 7 10.0075C7 10.0004 7 9.99341 7 9.98638C7 9.97936 7 9.97233 7 9.9653C7 9.95827 7 9.95124 7 9.9442C7 9.93717 7 9.93013 7 9.9231C7 9.91606 7 9.90902 7 9.90198C7 9.89494 7 9.8879 7 9.88086C7 9.87381 7 9.86677 7 9.85972C7 9.85268 7 9.84563 7 9.83858C7 9.83153 7 9.82448 7 9.81743C7 9.81038 7 9.80333 7 9.79627C7 9.78922 7 9.78216 7 9.7751C7 9.76805 7 9.76099 7 9.75393C7 9.74687 7 9.73981 7 9.73275C7 9.72569 7 9.71862 7 9.71156C7 9.70449 7 9.69743 7 9.69036C7 9.6833 7 9.67623 7 9.66916C7 9.66209 7 9.65502 7 9.64795C7 9.64088 7 9.63381 7 9.62674C7 9.61966 7 9.61259 7 9.60551C7 9.59844 7 9.59136 7 9.58429C7 9.57721 7 9.57013 7 9.56306C7 9.55598 7 9.5489 7 9.54182C7 9.53474 7 9.52766 7 9.52058C7 9.5135 7 9.50641 7 9.49933C7 9.49225 7 9.48517 7 9.47808C7 9.471 7 9.46391 7 9.45683C7 9.44974 7 9.44266 7 9.43557C7 9.42848 7 9.4214 7 9.41431C7 9.40722 7 9.40013 7 9.39304C7 9.38596 7 9.37887 7 9.37178C7 9.36469 7 9.3576 7 9.35051C7 9.34342 7 9.33633 7 9.32924C7 9.32214 7 9.31505 7 9.30796C7 9.30087 7 9.29378 7 9.28669C7 9.27959 7 9.2725 7 9.26541C7 9.25831 7 9.25122 7 9.24413C7 9.23704 7 9.22994 7 9.22285C7 9.21576 7 9.20866 7 9.20157C7 9.19447 7 9.18738 7 9.18029C7 9.17319 7 9.1661 7 9.15901C7 9.15191 7 9.14482 7 9.13773C7 9.13063 7 9.12354 7 9.11644C7 9.10935 7 9.10226 7 9.09516C7 9.08807 7 9.08098 7 9.07388C7 9.06679 7 9.0597 7 9.05261C7 9.04551 7 9.03842 7 9.03133C7 9.02424 7 9.01715 7 9.01005C7 9.00296 7 8.99587 7 8.98878C7 8.98169 7 8.9746 7 8.96751C7 8.96042 7 8.95333 7 8.94624C7 8.93915 7 8.93206 7 8.92498C7 8.91789 7 8.9108 7 8.90371C7 8.89663 7 8.88954 7 8.88245C7 8.87537 7 8.86828 7 8.8612C7 8.85411 7 8.84703 7 8.83995C7 8.83286 7 8.82578 7 8.8187C7 8.81162 7 8.80454 7 8.79745C7 8.79037 7 8.78329 7 8.77622C7 8.76914 7 8.76206 7 8.75498C7 8.7479 7 8.74083 7 8.73375C7 8.72668 7 8.7196 7 8.71253C7 8.70545 7 8.69838 7 8.69131C7 8.68424 7 8.67717 7 8.6701C7 8.66303 7 8.65596 7 8.64889C7 8.64182 7 8.63476 7 8.62769C7 8.62063 7 8.61356 7 8.6065C7 8.59944 7 8.59238 7 8.58531C7 8.57825 7 8.57119 7 8.56414C7 8.55708 7 8.55002 7 8.54297C7 8.53591 7 8.52886 7 8.5218C7 8.51475 7 8.5077 7 8.50065C7 8.4936 7 8.48655 7 8.4795C7 8.47245 7 8.46541 7 8.45836C7 8.45132 7 8.44428 7 8.43723C7 8.43019 7 8.42315 7 8.41611C7 8.40908 7 8.40204 7 8.395C7 8.38797 7 8.38093 7 8.3739C7 8.36687 7 8.35984 7 8.35281C7 8.34578 7 8.33876 7 8.33173C7 8.32471 7 8.31768 7 8.31066C7 8.30364 7 8.29662 7 8.2896C7 8.28258 7 8.27557 7 8.26855C7 8.26154 7 8.25453 7 8.24752C7 8.24051 7 8.2335 7 8.22649C7 8.21948 7 8.21248 7 8.20548C7 8.19847 7 8.19147 7 8.18447C7 8.17748 7 8.17048 7 8.16349C7 8.15649 7 8.1495 7 8.14251C7 8.13552 7 8.12853 7 8.12154C7 8.11456 7 8.10758 7 8.10059C7 8.09361 7 8.08663 7 8.07966C7 8.07268 7 8.06571 7 8.05873C7 8.05176 7 8.04479 7 8.03782C7 8.03086 7 8.02389 7 8.01693C7 8.00997 7 8.003 7 7.99605C7 7.98909 7 7.98213 7 7.97518C7 7.96823 7 7.96128 7 7.95433C7 7.94738 7 7.94044 7 7.93349C7 7.92655 7 7.91961 7 7.91267C7 7.90574 7 7.8988 7 7.89187C7 7.88494 7 7.87801 7 7.87108C7 7.86415 7 7.85723 7 7.85031C7 7.84339 7 7.83647 7 7.82955C7 7.82264 7 7.81572 7 7.80881C7 7.8019 7 7.795 7 7.78809C7 7.78119 7 7.77429 7 7.76739C7 7.76049 7 7.7536 7 7.7467C7 7.73981 7 7.73292 7 7.72603C7 7.71915 7 7.71226 7 7.70538C7 7.6985 7 7.69163 7 7.68475C7 7.67788 7 7.67101 7 7.66414C7 7.65727 7 7.65041 7 7.64355C7 7.63668 7 7.62983 7 7.62297C7 7.61612 7 7.60926 7 7.60242C7 7.59557 7 7.58872 7 7.58188C7 7.57504 7 7.5682 7 7.56137C7 7.55453 7 7.5477 7 7.54087C7 7.53404 7 7.52722 7 7.5204C7 7.51358 7 7.50676 7 7.49994C7 7.49313 7 7.48632 7 7.47951C7 7.4727 7 7.4659 7 7.4591C7 7.4523 7 7.44551 7 7.43871C7 7.43192 7 7.42513 7 7.41835C7 7.41156 7 7.40478 7 7.398C7 7.39122 7 7.38445 7 7.37768C7 7.37091 7 7.36414 7 7.35738C7 7.35062 7 7.34386 7 7.3371C7 7.33035 7 7.3236 7 7.31685C7 7.3101 7 7.30336 7 7.29662C7 7.28988 7 7.28315 7 7.27641C7 7.26968 7 7.26296 7 7.25623C7 7.24951 7 7.24279 7 7.23608C7 7.22936 7 7.22265 7 7.21594C7 7.20924 7 7.20253 7 7.19584C7 7.18914 7 7.18244 7 7.17575C7 7.16906 7 7.16238 7 7.1557C7 7.14901 7 7.14234 7 7.13566C7 7.12899 7 7.12232 7 7.11566C7 7.10899 7 7.10233 7 7.09568C7 7.08902 7 7.08237 7 7.07573C7 7.06908 7 7.06244 7 7.0558C7 7.04916 7 7.04253 7 7.0359C7 7.02927 7 7.02265 7 7.01603C7 7.00941 7 7.0028 7 6.99619C7 6.98958 7 6.98297 7 6.97637C7 6.96977 7 6.96317 7 6.95658C7 6.94999 7 6.9434 7 6.93682C7 6.93024 7 6.92366 7 6.91709C7 6.91052 7 6.90395 7 6.89739C7 6.89083 7 6.88427 7 6.87772C7 6.87116 7 6.86462 7 6.85807C7 6.85153 7 6.84499 7 6.83846C7 6.83193 7 6.8254 7 6.81887C7 6.81235 7 6.80583 7 6.79932C7 6.79281 7 6.7863 7 6.7798C7 6.77329 7 6.7668 7 6.76031C7 6.75381 7 6.74733 7 6.74084C7 6.73436 7 6.72789 7 6.72141C7 6.71494 7 6.70848 7 6.70202C7 6.69555 7 6.6891 7 6.68265C7 6.6762 7 6.66975 7 6.66331C7 6.65687 7 6.65044 7 6.64401C7 6.63758 7 6.63116 7 6.62474C7 6.61832 7 6.61191 7 6.60551C7 6.5991 7 6.5927 7 6.5863C7 6.57991 7 6.57352 7 6.56713C7 6.56075 7 6.55437 7 6.548C7 6.54162 7 6.53526 7 6.52889C7 6.52253 7 6.51618 7 6.50983C7 6.50348 7 6.49713 7 6.49079C7 6.48445 7 6.47812 7 6.47179C7 6.46547 7 6.45915 7 6.45283C7 6.44651 7 6.44021 7 6.4339C7 6.4276 7 6.4213 7 6.41501C7 6.40872 7 6.40243 7 6.39615C7 6.38987 7 6.3836 7 6.37733C7 6.37106 7 6.3648 7 6.35855C7 6.35229 7 6.34604 7 6.3398C7 6.33356 7 6.32732 7 6.32109C7 6.31486 7 6.30863 7 6.30241C7 6.2962 7 6.28998 7 6.28378C7 6.27757 7 6.27137 7 6.26518C7 6.25899 7 6.2528 7 6.24662C7 6.24044 7 6.23426 7 6.2281C7 6.22193 7 6.21577 7 6.20961C7 6.20346 7 6.19731 7 6.19117C7 6.18503 7 6.17889 7 6.17276C7 6.16663 7 6.16051 7 6.1544C7 6.14828 7 6.14217 7 6.13607C7 6.12997 7 6.12387 7 6.11778C7 6.11169 7 6.10561 7 6.09953C7 6.09346 7 6.08739 7 6.08133C7 6.07527 7 6.06921 7 6.06316C7 6.05711 7 6.05107 7 6.04504C7 6.039 7 6.03297 7 6.02695C7 6.02093 7 6.01492 7 6.00891C7 6.0029 7 5.9969 7 5.99091C7 5.98492 7 5.97893 7 5.97295C7 5.96697 7 5.961 7 5.95503C7 5.94907 7 5.94311 7 5.93716C7 5.93121 7 5.92526 7 5.91933C7 5.91339 7 5.90746 7 5.90154C7 5.89562 7 5.8897 7 5.8838C7 5.87789 7 5.87199 7 5.86609C7 5.8602 7 5.85432 7 5.84844C7 5.84256 7 5.83669 7 5.83082C7 5.82496 7 5.8191 7 5.81325C7 5.80741 7 5.80156 7 5.79573C7 5.7899 7 5.78407 7 5.77825C7 5.77243 7 5.76662 7 5.76082C7 5.75501 7 5.74922 7 5.74343C7 5.73764 7 5.73186 7 5.72609C7 5.72031 7 5.71455 7 5.70879C7 5.70303 7 5.69728 7 5.69154C7 5.6858 7 5.68006 7 5.67433C7 5.66861 7 5.66289 7 5.65718C7 5.65147 7 5.64576 7 5.64007C7 5.63437 7 5.62868 7 5.623C7 5.61732 7 5.61165 7 5.60599C7 5.60032 7 5.59467 7 5.58902C7 5.58337 7 5.57773 7 5.5721C7 5.56647 7 5.56085 7 5.55523C7 5.54961 7 5.54401 7 5.53841C7 5.53281 7 5.52722 7 5.52163C7 5.51605 7 5.51048 7 5.50491C7 5.49934 7 5.49379 7 5.48824C7 5.48269 7 5.47714 7 5.47161C7 5.46608 7 5.46055 7 5.45504C7 5.44952 7 5.44401 7 5.43851C7 5.43301 7 5.42752 7 5.42204C7 5.41655 7 5.41108 7 5.40561C7 5.40015 7 5.39469 7 5.38924C7 5.38379 7 5.37835 7 5.37292C7 5.36749 7 5.36207 7 5.35665C7 5.35124 7 5.34583 7 5.34043C7 5.33504 7 5.32965 7 5.32427C7 5.31889 7 5.31352 7 5.30816C7 5.30279 7 5.29744 7 5.29209C7 5.28675 7 5.28141 7 5.27609C7 5.27076 7 5.26544 7 5.26013C7 5.25482 7 5.24952 7 5.24423C7 5.23894 7 5.23366 7 5.22839C7 5.22311 7 5.21785 7 5.21259C7 5.20734 7 5.20209 7 5.19685C7 5.19162 7 5.18639 7 5.18117C7 5.17595 7 5.17074 7 5.16554C7 5.16034 7 5.15515 7 5.14997C7 5.14478 7 5.13961 7 5.13445C7 5.12928 7 5.12413 7 5.11898C7 5.11384 7 5.1087 7 5.10358C7 5.09845 7 5.09333 7 5.08823C7 5.08312 7 5.07802 7 5.07293C7 5.06784 7 5.06276 7 5.05769C7 5.05262 7 5.04756 7 5.04251C7 5.03746 7 5.03242 7 5.02739C7 5.02236 7 5.01733 7 5.01232C7 5.00731 7 5.0023 7 4.99731C7 4.99232 7 4.98733 7 4.98236C7 4.97739 7 4.97242 7 4.96747C7 4.96251 7 4.95757 7 4.95263C7 4.9477 7 4.94277 7 4.93786C7 4.93294 7 4.92804 7 4.92314C7 4.91825 7 4.91336 7 4.90849C7 4.90361 7 4.89874 7 4.89389C7 4.88903 7 4.88419 7 4.87935C7 4.87452 7 4.86969 7 4.86487C7 4.86006 7 4.85525 7 4.85046C7 4.84566 7 4.84088 7 4.8361C7 4.83133 7 4.82656 7 4.82181C7 4.81705 7 4.81231 7 4.80757C7 4.80284 7 4.79811 7 4.7934C7 4.78869 7 4.78398 7 4.77929C7 4.7746 7 4.76991 7 4.76524C7 4.76057 7 4.75591 7 4.75125C7 4.7466 7 4.74196 7 4.73733C7 4.7327 7 4.72808 7 4.72347C7 4.71886 7 4.71426 7 4.70967C7 4.70508 7 4.7005 7 4.69594C7 4.69137 7 4.68681 7 4.68227C7 4.67772 7 4.67318 7 4.66866C7 4.66413 7 4.65962 7 4.65512C7 4.65061 7 4.64612 7 4.64164C7 4.63716 7 4.63268 7 4.62822C7 4.62376 7 4.61931 7 4.61487C7 4.61044 7 4.60601 7 4.60159C7 4.59717 7 4.59277 7 4.58837C7 4.58398 7 4.57959 7 4.57522C7 4.57085 7 4.56649 7 4.56213C7 4.55778 7 4.55344 7 4.54911C7 4.54478 7 4.54047 7 4.53616C7 4.53185 7 4.52756 7 4.52327C7 4.51899 7 4.51472 7 4.51045C7 4.50619 7 4.50194 7 4.4977C7 4.49346 7 4.48923 7 4.48502C7 4.4808 7 4.47659 7 4.4724C7 4.46821 7 4.46402 7 4.45985C7 4.45568 7 4.45152 7 4.44737C7 4.44322 7 4.43909 7 4.43496C7 4.43083 7 4.42672 7 4.42262C7 4.41851 7 4.41442 7 4.41034C7 4.40626 7 4.4022 7 4.39814C7 4.39408 7 4.39004 7 4.38601C7 4.38197 7 4.37795 7 4.37394C7 4.36993 7 4.36593 7 4.36195C7 4.35796 7 4.35399 7 4.35002C7 4.34606 7 4.34211 7 4.33817C7 4.33423 7 4.33031 7 4.32639C7 4.32248 7 4.31857 7 4.31468C7 4.31079 7 4.30691 7 4.30304C7 4.29918 7 4.29532 7 4.29148C7 4.28763 7 4.2838 7 4.27998C7 4.27616 7 4.27236 7 4.26856C7 4.26477 7 4.26098 7 4.25721C7 4.25344 7 4.24968 7 4.24593C7 4.24219 7 4.23845 7 4.23473C7 4.23101 7 4.2273 7 4.2236C7 4.2199 7 4.21622 7 4.21255C7 4.20887 7 4.20521 7 4.20157C7 4.19792 7 4.19428 7 4.19066C7 4.18703 7 4.18342 7 4.17982C7 4.17623 7 4.17264 7 4.16907C7 4.16549 7 4.16193 7 4.15838C7 4.15484 7 4.1513 7 4.14778C7 4.14425 7 4.14074 7 4.13724C7 4.13375 7 4.13026 7 4.12679C7 4.12332 7 4.11986 7 4.11641C7 4.11296 7 4.10953 7 4.10611C7 4.10268 7 4.09927 7 4.09588C7 4.09248 7 4.0891 7 4.08573C7 4.08236 7 4.079 7 4.07566C7 4.07231 7 4.06898 7 4.06566C7 4.06234 7 4.05904 7 4.05574C7 4.05245 7 4.04917 7 4.04591C7 4.04264 7 4.03938 7 4.03614C7 4.0329 7 4.02968 7 4.02646C7 4.02325 7 4.02005 7 4.01686C7 4.01367 7 4.0105 7 4.00733C7 4.00417 7 4.00102 7 3.99789C7 3.99475 7 3.99163 7 3.98852C7 3.98542 7 3.98232 7 3.97924C7 3.97616 7 3.97309 7 3.97003C7 3.96698 7 3.96394 7 3.96091C7 3.95788 7 3.95487 7 3.95186C7 3.94886 7 3.94588 7 3.9429C7 3.93993 7 3.93697 7 3.93402C7 3.93107 7 3.92814 7 3.92522C7 3.9223 7 3.91939 7 3.9165C7 3.91361 7 3.91073 7 3.90786C7 3.905 7 3.90215 7 3.89931C7 3.89647 7 3.89365 7 3.89084C7 3.88803 7 3.88523 7 3.88245C7 3.87967 7 3.8769 7 3.87414C7 3.87139 7 3.86865 7 3.86592C7 3.86319 7 3.86048 7 3.85778C7 3.85508 7 3.8524 7 3.84973C7 3.84706 7 3.8444 7 3.84176C7 3.83911 7 3.83648 7 3.83387C7 3.83125 7 3.82865 7 3.82607C7 3.82348 7 3.82091 7 3.81835C7 3.81579 7 3.81325 7 3.81072C7 3.80819 7 3.80568 7 3.80317C7 3.80067 7 3.79819 7 3.79571C7 3.79324 7 3.79078 7 3.78834C7 3.7859 7 3.78347 7 3.78105C7 3.77864 7 3.77624 7 3.77385C7 3.77147 7 3.76909 7 3.76674C7 3.76438 7 3.76204 7 3.75971C7 3.75738 7 3.75507 7 3.75277C7 3.75047 7 3.74819 7 3.74592C7 3.74365 7 3.74139 7 3.73915C7 3.73691 7 3.73469 7 3.73248C7 3.73027 7 3.72807 7 3.72589C7 3.72371 7 3.72154 7 3.71939C7 3.71724 7 3.7151 7 3.71298C7 3.71086 7 3.70875 7 3.70666C7 3.70457 7 3.70249 7 3.70043C7 3.69837 7 3.69632 7 3.69429C7 3.69226 7 3.69024 7 3.68824C7 3.68624 7 3.68425 7 3.68228C7 3.6803 7 3.67835 7 3.67641C7 3.67446 7 3.67254 7 3.67063C7 3.66872 7 3.66682 7 3.66494C7 3.66306 7 3.66119 7 3.65934C7 3.65749 7 3.65566 7 3.65384C7 3.65202 7 3.65021 7 3.64842C7 3.64663 7 3.64486 7 3.6431C7 3.64134 7 3.6396 7 3.63787C7 3.63615 7 3.63443 7 3.63274C7 3.63104 7 3.62936 7 3.62769C7 3.62603 7 3.62438 7 3.62274C7 3.62111 7 3.61949 7 3.61789C7 3.61628 7 3.6147 7 3.61313C7 3.61155 7 3.61 7 3.60846C7 3.60692 7 3.60539 7 3.60388C7 3.60237 7 3.60088 7 3.5994C7 3.59793 7 3.59646 7 3.59502C7 3.59357 7 3.59214 7 3.59073C7 3.58931 7 3.58792 7 3.58653C7 3.58515 7 3.58379 7 3.58244C7 3.58109 7 3.57975 7 3.57843C7 3.57712 7 3.57581 7 3.57453C7 3.57324 7 3.57197 7 3.57072C7 3.56946 7 3.56823 7 3.567C7 3.56578 7 3.56458 7 3.56339C7 3.5622 7 3.56103 7 3.55987C7 3.55871 7 3.55757 7 3.55645C7 3.55532 7 3.55422 7 3.55312C7 3.55203 7 3.55096 7 3.5499C7 3.54884 7 3.5478 7 3.54677C7 3.54574 7 3.54474 7 3.54374C7 3.54275 7 3.54177 7 3.54081C7 3.53985 7 3.53891 7 3.53798C7 3.53705 7 3.53614 7 3.53525C7 3.53436 7 3.53348 7 3.53262C7 3.53176 7 3.53091 7 3.53009C7 3.52926 7 3.52845 7 3.52766C7 3.52686 7 3.52608 7 3.52532C7 3.52456 7 3.52382 7 3.52309C7 3.52237 7 3.52166 7 3.52097C7 3.52027 7 3.5196 7 3.51894C7 3.51828 7 3.51764 7 3.51701C7 3.51639 7 3.51578 7 3.51519C7 3.51459 7 3.51402 7 3.51346C7 3.51291 7 3.51237 7 3.51184C7 3.51132 7 3.51081 7 3.51033C7 3.50984 7 3.50936 7 3.50891C7 3.50846 7 3.50802 7 3.5076C7 3.50718 7 3.50678 7 3.50639C7 3.506 7 3.50564 7 3.50529C7 3.50493 7 3.5046 7 3.50429C7 3.50397 7 3.50367 7 3.50339C7 3.50311 7 3.50284 7 3.5026C7 3.50235 7 3.50212 7 3.50191C7 3.5017 7 3.5015 7 3.50133C7 3.50115 7 3.50099 7 3.50085C7 3.50071 7 3.50058 7 3.50048C7 3.50037 7 3.50028 7 3.50021C7 3.50014 7 3.50009 7 3.50005C7 3.50002 7 3.5 6.5 3.5C6 3.5 6 3.50002 6 3.50005C6 3.50009 6 3.50014 6 3.50021C6 3.50028 6 3.50037 6 3.50048C6 3.50058 6 3.50071 6 3.50085C6 3.50099 6 3.50115 6 3.50133C6 3.5015 6 3.5017 6 3.50191C6 3.50212 6 3.50235 6 3.5026C6 3.50284 6 3.50311 6 3.50339C6 3.50367 6 3.50397 6 3.50429C6 3.5046 6 3.50493 6 3.50529C6 3.50564 6 3.506 6 3.50639C6 3.50678 6 3.50718 6 3.5076C6 3.50802 6 3.50846 6 3.50891C6 3.50936 6 3.50984 6 3.51033C6 3.51081 6 3.51132 6 3.51184C6 3.51237 6 3.51291 6 3.51346C6 3.51402 6 3.51459 6 3.51519C6 3.51578 6 3.51639 6 3.51701C6 3.51764 6 3.51828 6 3.51894C6 3.5196 6 3.52027 6 3.52097C6 3.52166 6 3.52237 6 3.52309C6 3.52382 6 3.52456 6 3.52532C6 3.52608 6 3.52686 6 3.52766C6 3.52845 6 3.52926 6 3.53009C6 3.53091 6 3.53176 6 3.53262C6 3.53348 6 3.53436 6 3.53525C6 3.53614 6 3.53705 6 3.53798C6 3.53891 6 3.53985 6 3.54081C6 3.54177 6 3.54275 6 3.54374C6 3.54474 6 3.54574 6 3.54677C6 3.5478 6 3.54884 6 3.5499C6 3.55096 6 3.55203 6 3.55312C6 3.55422 6 3.55532 6 3.55645C6 3.55757 6 3.55871 6 3.55987C6 3.56103 6 3.5622 6 3.56339C6 3.56458 6 3.56578 6 3.567C6 3.56823 6 3.56946 6 3.57072C6 3.57197 6 3.57324 6 3.57453C6 3.57581 6 3.57712 6 3.57843C6 3.57975 6 3.58109 6 3.58244C6 3.58379 6 3.58515 6 3.58653C6 3.58792 6 3.58931 6 3.59073C6 3.59214 6 3.59357 6 3.59502C6 3.59646 6 3.59793 6 3.5994C6 3.60088 6 3.60237 6 3.60388C6 3.60539 6 3.60692 6 3.60846C6 3.61 6 3.61155 6 3.61313C6 3.6147 6 3.61628 6 3.61789C6 3.61949 6 3.62111 6 3.62274C6 3.62438 6 3.62603 6 3.62769C6 3.62936 6 3.63104 6 3.63274C6 3.63443 6 3.63615 6 3.63787C6 3.6396 6 3.64134 6 3.6431C6 3.64486 6 3.64663 6 3.64842C6 3.65021 6 3.65202 6 3.65384C6 3.65566 6 3.65749 6 3.65934C6 3.66119 6 3.66306 6 3.66494C6 3.66682 6 3.66872 6 3.67063C6 3.67254 6 3.67446 6 3.67641C6 3.67835 6 3.6803 6 3.68228C6 3.68425 6 3.68624 6 3.68824C6 3.69024 6 3.69226 6 3.69429C6 3.69632 6 3.69837 6 3.70043C6 3.70249 6 3.70457 6 3.70666C6 3.70875 6 3.71086 6 3.71298C6 3.7151 6 3.71724 6 3.71939C6 3.72154 6 3.72371 6 3.72589C6 3.72807 6 3.73027 6 3.73248C6 3.73469 6 3.73691 6 3.73915C6 3.74139 6 3.74365 6 3.74592C6 3.74819 6 3.75047 6 3.75277C6 3.75507 6 3.75738 6 3.75971C6 3.76204 6 3.76438 6 3.76674C6 3.76909 6 3.77147 6 3.77385C6 3.77624 6 3.77864 6 3.78105C6 3.78347 6 3.7859 6 3.78834C6 3.79078 6 3.79324 6 3.79571C6 3.79819 6 3.80067 6 3.80317C6 3.80568 6 3.80819 6 3.81072C6 3.81325 6 3.81579 6 3.81835C6 3.82091 6 3.82348 6 3.82607C6 3.82865 6 3.83125 6 3.83387C6 3.83648 6 3.83911 6 3.84176C6 3.8444 6 3.84706 6 3.84973C6 3.8524 6 3.85508 6 3.85778C6 3.86048 6 3.86319 6 3.86592C6 3.86865 6 3.87139 6 3.87414C6 3.8769 6 3.87967 6 3.88245C6 3.88523 6 3.88803 6 3.89084C6 3.89365 6 3.89647 6 3.89931C6 3.90215 6 3.905 6 3.90786C6 3.91073 6 3.91361 6 3.9165C6 3.91939 6 3.9223 6 3.92522C6 3.92814 6 3.93107 6 3.93402C6 3.93697 6 3.93993 6 3.9429C6 3.94588 6 3.94886 6 3.95186C6 3.95487 6 3.95788 6 3.96091C6 3.96394 6 3.96698 6 3.97003C6 3.97309 6 3.97616 6 3.97924C6 3.98232 6 3.98542 6 3.98852C6 3.99163 6 3.99475 6 3.99789C6 4.00102 6 4.00417 6 4.00733C6 4.0105 6 4.01367 6 4.01686C6 4.02005 6 4.02325 6 4.02646C6 4.02968 6 4.0329 6 4.03614C6 4.03938 6 4.04264 6 4.04591C6 4.04917 6 4.05245 6 4.05574C6 4.05904 6 4.06234 6 4.06566C6 4.06898 6 4.07231 6 4.07566C6 4.079 6 4.08236 6 4.08573C6 4.0891 6 4.09248 6 4.09588C6 4.09927 6 4.10268 6 4.10611C6 4.10953 6 4.11296 6 4.11641C6 4.11986 6 4.12332 6 4.12679C6 4.13026 6 4.13375 6 4.13724C6 4.14074 6 4.14425 6 4.14778C6 4.1513 6 4.15484 6 4.15838C6 4.16193 6 4.16549 6 4.16907C6 4.17264 6 4.17623 6 4.17982C6 4.18342 6 4.18703 6 4.19066C6 4.19428 6 4.19792 6 4.20157C6 4.20521 6 4.20887 6 4.21255C6 4.21622 6 4.2199 6 4.2236C6 4.2273 6 4.23101 6 4.23473C6 4.23845 6 4.24219 6 4.24593C6 4.24968 6 4.25344 6 4.25721C6 4.26098 6 4.26477 6 4.26856C6 4.27236 6 4.27616 6 4.27998C6 4.2838 6 4.28763 6 4.29148C6 4.29532 6 4.29918 6 4.30304C6 4.30691 6 4.31079 6 4.31468C6 4.31857 6 4.32248 6 4.32639C6 4.33031 6 4.33423 6 4.33817C6 4.34211 6 4.34606 6 4.35002C6 4.35399 6 4.35796 6 4.36195C6 4.36593 6 4.36993 6 4.37394C6 4.37795 6 4.38197 6 4.38601C6 4.39004 6 4.39408 6 4.39814C6 4.4022 6 4.40626 6 4.41034C6 4.41442 6 4.41851 6 4.42262C6 4.42672 6 4.43083 6 4.43496C6 4.43909 6 4.44322 6 4.44737C6 4.45152 6 4.45568 6 4.45985C6 4.46402 6 4.46821 6 4.4724C6 4.47659 6 4.4808 6 4.48502C6 4.48923 6 4.49346 6 4.4977C6 4.50194 6 4.50619 6 4.51045C6 4.51472 6 4.51899 6 4.52327C6 4.52756 6 4.53185 6 4.53616C6 4.54047 6 4.54478 6 4.54911C6 4.55344 6 4.55778 6 4.56213C6 4.56649 6 4.57085 6 4.57522C6 4.57959 6 4.58398 6 4.58837C6 4.59277 6 4.59717 6 4.60159C6 4.60601 6 4.61044 6 4.61487C6 4.61931 6 4.62376 6 4.62822C6 4.63268 6 4.63716 6 4.64164C6 4.64612 6 4.65061 6 4.65512C6 4.65962 6 4.66413 6 4.66866C6 4.67318 6 4.67772 6 4.68227C6 4.68681 6 4.69137 6 4.69594C6 4.7005 6 4.70508 6 4.70967C6 4.71426 6 4.71886 6 4.72347C6 4.72808 6 4.7327 6 4.73733C6 4.74196 6 4.7466 6 4.75125C6 4.75591 6 4.76057 6 4.76524C6 4.76991 6 4.7746 6 4.77929C6 4.78398 6 4.78869 6 4.7934C6 4.79811 6 4.80284 6 4.80757C6 4.81231 6 4.81705 6 4.82181C6 4.82656 6 4.83133 6 4.8361C6 4.84088 6 4.84566 6 4.85046C6 4.85525 6 4.86006 6 4.86487C6 4.86969 6 4.87452 6 4.87935C6 4.88419 6 4.88903 6 4.89389C6 4.89874 6 4.90361 6 4.90849C6 4.91336 6 4.91825 6 4.92314C6 4.92804 6 4.93294 6 4.93786C6 4.94277 6 4.9477 6 4.95263C6 4.95757 6 4.96251 6 4.96747C6 4.97242 6 4.97739 6 4.98236C6 4.98733 6 4.99232 6 4.99731C6 5.0023 6 5.00731 6 5.01232C6 5.01733 6 5.02236 6 5.02739C6 5.03242 6 5.03746 6 5.04251C6 5.04756 6 5.05262 6 5.05769C6 5.06276 6 5.06784 6 5.07293C6 5.07802 6 5.08312 6 5.08823C6 5.09333 6 5.09845 6 5.10358C6 5.1087 6 5.11384 6 5.11898C6 5.12413 6 5.12928 6 5.13445C6 5.13961 6 5.14478 6 5.14997C6 5.15515 6 5.16034 6 5.16554C6 5.17074 6 5.17595 6 5.18117C6 5.18639 6 5.19162 6 5.19685C6 5.20209 6 5.20734 6 5.21259C6 5.21785 6 5.22311 6 5.22839C6 5.23366 6 5.23894 6 5.24423C6 5.24952 6 5.25482 6 5.26013C6 5.26544 6 5.27076 6 5.27609C6 5.28141 6 5.28675 6 5.29209C6 5.29744 6 5.30279 6 5.30816C6 5.31352 6 5.31889 6 5.32427C6 5.32965 6 5.33504 6 5.34043C6 5.34583 6 5.35124 6 5.35665C6 5.36207 6 5.36749 6 5.37292C6 5.37835 6 5.38379 6 5.38924C6 5.39469 6 5.40015 6 5.40561C6 5.41108 6 5.41655 6 5.42204C6 5.42752 6 5.43301 6 5.43851C6 5.44401 6 5.44952 6 5.45504C6 5.46055 6 5.46608 6 5.47161C6 5.47714 6 5.48269 6 5.48824C6 5.49379 6 5.49934 6 5.50491C6 5.51048 6 5.51605 6 5.52163C6 5.52722 6 5.53281 6 5.53841C6 5.54401 6 5.54961 6 5.55523C6 5.56085 6 5.56647 6 5.5721C6 5.57773 6 5.58337 6 5.58902C6 5.59467 6 5.60032 6 5.60599C6 5.61165 6 5.61732 6 5.623C6 5.62868 6 5.63437 6 5.64007C6 5.64576 6 5.65147 6 5.65718C6 5.66289 6 5.66861 6 5.67433C6 5.68006 6 5.6858 6 5.69154C6 5.69728 6 5.70303 6 5.70879C6 5.71455 6 5.72031 6 5.72609C6 5.73186 6 5.73764 6 5.74343C6 5.74922 6 5.75501 6 5.76082C6 5.76662 6 5.77243 6 5.77825C6 5.78407 6 5.7899 6 5.79573C6 5.80156 6 5.80741 6 5.81325C6 5.8191 6 5.82496 6 5.83082C6 5.83669 6 5.84256 6 5.84844C6 5.85432 6 5.8602 6 5.86609C6 5.87199 6 5.87789 6 5.8838C6 5.8897 6 5.89562 6 5.90154C6 5.90746 6 5.91339 6 5.91933C6 5.92526 6 5.93121 6 5.93716C6 5.94311 6 5.94907 6 5.95503C6 5.961 6 5.96697 6 5.97295C6 5.97893 6 5.98492 6 5.99091C6 5.9969 6 6.0029 6 6.00891C6 6.01492 6 6.02093 6 6.02695C6 6.03297 6 6.039 6 6.04504C6 6.05107 6 6.05711 6 6.06316C6 6.06921 6 6.07527 6 6.08133C6 6.08739 6 6.09346 6 6.09953C6 6.10561 6 6.11169 6 6.11778C6 6.12387 6 6.12997 6 6.13607C6 6.14217 6 6.14828 6 6.1544C6 6.16051 6 6.16663 6 6.17276C6 6.17889 6 6.18503 6 6.19117C6 6.19731 6 6.20346 6 6.20961C6 6.21577 6 6.22193 6 6.2281C6 6.23426 6 6.24044 6 6.24662C6 6.2528 6 6.25899 6 6.26518C6 6.27137 6 6.27757 6 6.28378C6 6.28998 6 6.2962 6 6.30241C6 6.30863 6 6.31486 6 6.32109C6 6.32732 6 6.33356 6 6.3398C6 6.34604 6 6.35229 6 6.35855C6 6.3648 6 6.37106 6 6.37733C6 6.3836 6 6.38987 6 6.39615C6 6.40243 6 6.40872 6 6.41501C6 6.4213 6 6.4276 6 6.4339C6 6.44021 6 6.44651 6 6.45283C6 6.45915 6 6.46547 6 6.47179C6 6.47812 6 6.48445 6 6.49079C6 6.49713 6 6.50348 6 6.50983C6 6.51618 6 6.52253 6 6.52889C6 6.53526 6 6.54162 6 6.548C6 6.55437 6 6.56075 6 6.56713C6 6.57352 6 6.57991 6 6.5863C6 6.5927 6 6.5991 6 6.60551C6 6.61191 6 6.61832 6 6.62474C6 6.63116 6 6.63758 6 6.64401C6 6.65044 6 6.65687 6 6.66331C6 6.66975 6 6.6762 6 6.68265C6 6.6891 6 6.69555 6 6.70202C6 6.70848 6 6.71494 6 6.72141C6 6.72789 6 6.73436 6 6.74084C6 6.74733 6 6.75381 6 6.76031C6 6.7668 6 6.77329 6 6.7798C6 6.7863 6 6.79281 6 6.79932C6 6.80583 6 6.81235 6 6.81887C6 6.8254 6 6.83193 6 6.83846C6 6.84499 6 6.85153 6 6.85807C6 6.86462 6 6.87116 6 6.87772C6 6.88427 6 6.89083 6 6.89739C6 6.90395 6 6.91052 6 6.91709C6 6.92366 6 6.93024 6 6.93682C6 6.9434 6 6.94999 6 6.95658C6 6.96317 6 6.96977 6 6.97637C6 6.98297 6 6.98958 6 6.99619C6 7.0028 6 7.00941 6 7.01603C6 7.02265 6 7.02927 6 7.0359C6 7.04253 6 7.04916 6 7.0558C6 7.06244 6 7.06908 6 7.07573C6 7.08237 6 7.08902 6 7.09568C6 7.10233 6 7.10899 6 7.11566C6 7.12232 6 7.12899 6 7.13566C6 7.14234 6 7.14901 6 7.1557C6 7.16238 6 7.16906 6 7.17575C6 7.18244 6 7.18914 6 7.19584C6 7.20253 6 7.20924 6 7.21594C6 7.22265 6 7.22936 6 7.23608C6 7.24279 6 7.24951 6 7.25623C6 7.26296 6 7.26968 6 7.27641C6 7.28315 6 7.28988 6 7.29662C6 7.30336 6 7.3101 6 7.31685C6 7.3236 6 7.33035 6 7.3371C6 7.34386 6 7.35062 6 7.35738C6 7.36414 6 7.37091 6 7.37768C6 7.38445 6 7.39122 6 7.398C6 7.40478 6 7.41156 6 7.41835C6 7.42513 6 7.43192 6 7.43871C6 7.44551 6 7.4523 6 7.4591C6 7.4659 6 7.4727 6 7.47951C6 7.48632 6 7.49313 6 7.49994C6 7.50676 6 7.51358 6 7.5204C6 7.52722 6 7.53404 6 7.54087C6 7.5477 6 7.55453 6 7.56137C6 7.5682 6 7.57504 6 7.58188C6 7.58872 6 7.59557 6 7.60242C6 7.60926 6 7.61612 6 7.62297C6 7.62983 6 7.63668 6 7.64355C6 7.65041 6 7.65727 6 7.66414C6 7.67101 6 7.67788 6 7.68475C6 7.69163 6 7.6985 6 7.70538C6 7.71226 6 7.71915 6 7.72603C6 7.73292 6 7.73981 6 7.7467C6 7.7536 6 7.76049 6 7.76739C6 7.77429 6 7.78119 6 7.78809C6 7.795 6 7.8019 6 7.80881C6 7.81572 6 7.82264 6 7.82955C6 7.83647 6 7.84339 6 7.85031C6 7.85723 6 7.86415 6 7.87108C6 7.87801 6 7.88494 6 7.89187C6 7.8988 6 7.90574 6 7.91267C6 7.91961 6 7.92655 6 7.93349C6 7.94044 6 7.94738 6 7.95433C6 7.96128 6 7.96823 6 7.97518C6 7.98213 6 7.98909 6 7.99605C6 8.003 6 8.00997 6 8.01693C6 8.02389 6 8.03086 6 8.03782C6 8.04479 6 8.05176 6 8.05873C6 8.06571 6 8.07268 6 8.07966C6 8.08663 6 8.09361 6 8.10059C6 8.10758 6 8.11456 6 8.12154C6 8.12853 6 8.13552 6 8.14251C6 8.1495 6 8.15649 6 8.16349C6 8.17048 6 8.17748 6 8.18447C6 8.19147 6 8.19847 6 8.20548C6 8.21248 6 8.21948 6 8.22649C6 8.2335 6 8.24051 6 8.24752C6 8.25453 6 8.26154 6 8.26855C6 8.27557 6 8.28258 6 8.2896C6 8.29662 6 8.30364 6 8.31066C6 8.31768 6 8.32471 6 8.33173C6 8.33876 6 8.34578 6 8.35281C6 8.35984 6 8.36687 6 8.3739C6 8.38093 6 8.38797 6 8.395C6 8.40204 6 8.40908 6 8.41611C6 8.42315 6 8.43019 6 8.43723C6 8.44428 6 8.45132 6 8.45836C6 8.46541 6 8.47245 6 8.4795C6 8.48655 6 8.4936 6 8.50065C6 8.5077 6 8.51475 6 8.5218C6 8.52886 6 8.53591 6 8.54297C6 8.55002 6 8.55708 6 8.56414C6 8.57119 6 8.57825 6 8.58531C6 8.59238 6 8.59944 6 8.6065C6 8.61356 6 8.62063 6 8.62769C6 8.63476 6 8.64182 6 8.64889C6 8.65596 6 8.66303 6 8.6701C6 8.67717 6 8.68424 6 8.69131C6 8.69838 6 8.70545 6 8.71253C6 8.7196 6 8.72668 6 8.73375C6 8.74083 6 8.7479 6 8.75498C6 8.76206 6 8.76914 6 8.77622C6 8.78329 6 8.79037 6 8.79745C6 8.80454 6 8.81162 6 8.8187C6 8.82578 6 8.83286 6 8.83995C6 8.84703 6 8.85411 6 8.8612C6 8.86828 6 8.87537 6 8.88245C6 8.88954 6 8.89663 6 8.90371C6 8.9108 6 8.91789 6 8.92498C6 8.93206 6 8.93915 6 8.94624C6 8.95333 6 8.96042 6 8.96751C6 8.9746 6 8.98169 6 8.98878C6 8.99587 6 9.00296 6 9.01005C6 9.01715 6 9.02424 6 9.03133C6 9.03842 6 9.04551 6 9.05261C6 9.0597 6 9.06679 6 9.07388C6 9.08098 6 9.08807 6 9.09516C6 9.10226 6 9.10935 6 9.11644C6 9.12354 6 9.13063 6 9.13773C6 9.14482 6 9.15191 6 9.15901C6 9.1661 6 9.17319 6 9.18029C6 9.18738 6 9.19447 6 9.20157C6 9.20866 6 9.21576 6 9.22285C6 9.22994 6 9.23704 6 9.24413C6 9.25122 6 9.25831 6 9.26541C6 9.2725 6 9.27959 6 9.28669C6 9.29378 6 9.30087 6 9.30796C6 9.31505 6 9.32214 6 9.32924C6 9.33633 6 9.34342 6 9.35051C6 9.3576 6 9.36469 6 9.37178C6 9.37887 6 9.38596 6 9.39304C6 9.40013 6 9.40722 6 9.41431C6 9.4214 6 9.42848 6 9.43557C6 9.44266 6 9.44974 6 9.45683C6 9.46391 6 9.471 6 9.47808C6 9.48517 6 9.49225 6 9.49933C6 9.50641 6 9.5135 6 9.52058C6 9.52766 6 9.53474 6 9.54182C6 9.5489 6 9.55598 6 9.56306C6 9.57013 6 9.57721 6 9.58429C6 9.59136 6 9.59844 6 9.60551C6 9.61259 6 9.61966 6 9.62674C6 9.63381 6 9.64088 6 9.64795C6 9.65502 6 9.66209 6 9.66916C6 9.67623 6 9.6833 6 9.69036C6 9.69743 6 9.70449 6 9.71156C6 9.71862 6 9.72569 6 9.73275C6 9.73981 6 9.74687 6 9.75393C6 9.76099 6 9.76805 6 9.7751C6 9.78216 6 9.78922 6 9.79627C6 9.80333 6 9.81038 6 9.81743C6 9.82448 6 9.83153 6 9.83858C6 9.84563 6 9.85268 6 9.85972C6 9.86677 6 9.87381 6 9.88086C6 9.8879 6 9.89494 6 9.90198C6 9.90902 6 9.91606 6 9.9231C6 9.93013 6 9.93717 6 9.9442C6 9.95124 6 9.95827 6 9.9653C6 9.97233 6 9.97936 6 9.98638C6 9.99341 6 10.0004 6 10.0075C6 10.0145 6 10.0215 6 10.0285C6 10.0355 6 10.0426 6 10.0496C6 10.0566 6 10.0636 6 10.0706C6 10.0776 6 10.0846 6 10.0917C6 10.0987 6 10.1057 6 10.1127C6 10.1197 6 10.1267 6 10.1337C6 10.1407 6 10.1477 6 10.1547C6 10.1617 6 10.1687 6 10.1757C6 10.1827 6 10.1896 6 10.1966C6 10.2036 6 10.2106 6 10.2176C6 10.2246 6 10.2316 6 10.2385C6 10.2455 6 10.2525 6 10.2595C6 10.2664 6 10.2734 6 10.2804C6 10.2873 6 10.2943 6 10.3013C6 10.3082 6 10.3152 6 10.3222C6 10.3291 6 10.3361 6 10.343C6 10.35 6 10.357 6 10.3639C6 10.3709 6 10.3778 6 10.3847C6 10.3917 6 10.3986 6 10.4056C6 10.4125 6 10.4195 6 10.4264C6 10.4333 6 10.4403 6 10.4472C6 10.4541 6 10.461 6 10.468C6 10.4749 6 10.4818 6 10.4887C6 10.4956 6 10.5026 6 10.5095C6 10.5164 6 10.5233 6 10.5302C6 10.5371 6 10.544 6 10.5509C6 10.5578 6 10.5647 6 10.5716C6 10.5785 6 10.5854 6 10.5923C6 10.5992 6 10.6061 6 10.6129C6 10.6198 6 10.6267 6 10.6336C6 10.6405 6 10.6473 6 10.6542C6 10.6611 6 10.668 6 10.6748C6 10.6817 6 10.6885 6 10.6954C6 10.7023 6 10.7091 6 10.716C6 10.7228 6 10.7297 6 10.7365C6 10.7434 6 10.7502 6 10.757C6 10.7639 6 10.7707 6 10.7775C6 10.7844 6 10.7912 6 10.798C6 10.8049 6 10.8117 6 10.8185C6 10.8253 6 10.8321 6 10.8389C6 10.8457 6 10.8526 6 10.8594C6 10.8662 6 10.873 6 10.8798C6 10.8866 6 10.8933 6 10.9001C6 10.9069 6 10.9137 6 10.9205C6 10.9273 6 10.934 6 10.9408C6 10.9476 6 10.9544 6 10.9611C6 10.9679 6 10.9747 6 10.9814C6 10.9882 6 10.9949 6 11.0017C6 11.0084 6 11.0152 6 11.0219C6 11.0287 6 11.0354 6 11.0421C6 11.0489 6 11.0556 6 11.0623C6 11.0691 6 11.0758 6 11.0825C6 11.0892 6 11.0959 6 11.1027C6 11.1094 6 11.1161 6 11.1228C6 11.1295 6 11.1362 6 11.1429C6 11.1496 6 11.1563 6 11.1629C6 11.1696 6 11.1763 6 11.183C6 11.1897 6 11.1963 6 11.203C6 11.2097 6 11.2163 6 11.223C6 11.2297 6 11.2363 6 11.243C6 11.2496 6 11.2563 6 11.2629C6 11.2695 6 11.2762 6 11.2828C6 11.2894 6 11.2961 6 11.3027C6 11.3093 6 11.3159 6 11.3226C6 11.3292 6 11.3358 6 11.3424C6 11.349 6 11.3556 6 11.3622C6 11.3688 6 11.3754 6 11.382C6 11.3885 6 11.3951 6 11.4017C6 11.4083 6 11.4149 6 11.4214C6 11.428 6 11.4346 6 11.4411C6 11.4477 6 11.4542 6 11.4608C6 11.4673 6 11.4739 6 11.4804C6 11.4869 6 11.4935 6 11.5H7ZM13.5 3.5C13.4178 3.0068 13.4172 3.0069 13.4166 3.00701C13.4164 3.00704 13.4158 3.00715 13.4153 3.00722C13.4144 3.00737 13.4135 3.00753 13.4125 3.00771C13.4106 3.00805 13.4085 3.00843 13.4062 3.00887C13.4015 3.00973 13.3961 3.01078 13.39 3.01204C13.3779 3.01457 13.3628 3.01794 13.345 3.02238C13.3095 3.03125 13.2633 3.04439 13.2079 3.06351C13.0971 3.10178 12.9499 3.16391 12.7793 3.26342C12.4363 3.46352 12.0079 3.80931 11.5915 4.39916C10.7609 5.57581 10 7.69046 10 11.5H11C11 7.80954 11.7391 5.92419 12.4085 4.97584C12.7421 4.50319 13.0637 4.25523 13.2832 4.1272C13.3938 4.06266 13.4811 4.02713 13.5343 4.00876C13.5609 3.99956 13.5791 3.99463 13.5876 3.99252C13.5918 3.99146 13.5936 3.99111 13.5927 3.99128C13.5923 3.99137 13.5912 3.99159 13.5895 3.99192C13.5886 3.99208 13.5876 3.99227 13.5864 3.99248C13.5858 3.99259 13.5851 3.9927 13.5844 3.99282C13.5841 3.99288 13.5835 3.99298 13.5833 3.99301C13.5828 3.9931 13.5822 3.9932 13.5 3.5ZM10 11.5C10 15.3095 10.7609 17.4242 11.5915 18.6008C12.0079 19.1907 12.4363 19.5365 12.7793 19.7366C12.9499 19.8361 13.0971 19.8982 13.2079 19.9365C13.2633 19.9556 13.3095 19.9688 13.345 19.9776C13.3628 19.9821 13.3779 19.9854 13.39 19.988C13.3961 19.9892 13.4015 19.9903 13.4062 19.9911C13.4085 19.9916 13.4106 19.992 13.4125 19.9923C13.4135 19.9925 13.4144 19.9926 13.4153 19.9928C13.4158 19.9929 13.4164 19.993 13.4166 19.993C13.4172 19.9931 13.4178 19.9932 13.5 19.5C13.5822 19.0068 13.5828 19.0069 13.5833 19.007C13.5835 19.007 13.5841 19.0071 13.5844 19.0072C13.5851 19.0073 13.5858 19.0074 13.5864 19.0075C13.5876 19.0077 13.5886 19.0079 13.5895 19.0081C13.5912 19.0084 13.5923 19.0086 13.5927 19.0087C13.5936 19.0089 13.5918 19.0085 13.5876 19.0075C13.5791 19.0054 13.5609 19.0004 13.5343 18.9912C13.4811 18.9729 13.3938 18.9373 13.2832 18.8728C13.0637 18.7448 12.7421 18.4968 12.4085 18.0242C11.7391 17.0758 11 15.1905 11 11.5H10Z" fill="#1776A5"/>
<path d="M3.5 6.5H6.63636H9.72727L19.5 11.5" stroke="var(--mw-icon-background-light-yellow, #FFF5BC)" stroke-linecap="round"/>
<path d="M7 6.5H9.72726L15.5 9.5" stroke="#1776A5"/>
<path d="M3.5 11.5H6.63636H9.72727H19.5" stroke="var(--mw-icon-background-light-yellow, #FFF5BC)" stroke-linecap="round"/>
<path d="M7 11.5H9.72726H16" stroke="#1776A5"/>
<path d="M3.5 16.5H6.63636H9.75758L19.5 11.5" stroke="var(--mw-icon-background-light-yellow, #FFF5BC)" stroke-linecap="round"/>
<path d="M7 16.5H9.72726L15.5 13.5" stroke="#1776A5"/>
<path d="M19.5 5.5V17.5" stroke="var(--mw-icon-background-light-yellow, #FFF5BC)" stroke-linecap="round" stroke-linejoin="round"/>
<path d="M0.5 18.5V4.5C0.5 2.29086 2.29086 0.5 4.5 0.5H18.5C20.7091 0.5 22.5 2.29086 22.5 4.5V18.5C22.5 20.7091 20.7091 22.5 18.5 22.5H4.5C2.29086 22.5 0.5 20.7091 0.5 18.5Z" stroke="var(--mw-icon-border-default-gray, #616161)" stroke-linecap="round"/>
</svg>
