<svg width="24" height="24" viewBox="0 0 24 24" fill="none" xmlns="http://www.w3.org/2000/svg">
<path d="M0.5 18.5V4.5C0.5 2.29086 2.29086 0.5 4.5 0.5H18.5C20.7091 0.5 22.5 2.29086 22.5 4.5V18.5C22.5 20.7091 20.7091 22.5 18.5 22.5H4.5C2.29086 22.5 0.5 20.7091 0.5 18.5Z" fill="var(--mw-icon-background-default-white, #FFFFFF)" stroke="#B7312C" stroke-linecap="round"/>
<path d="M3 12.5V3.5C3 2.94772 3.44771 2.5 4 2.5H13C13.5523 2.5 14 2.94771 14 3.5V12.5C14 13.0523 13.5523 13.5 13 13.5H4C3.44772 13.5 3 13.0523 3 12.5Z" fill="white" stroke="#B7312C" stroke-linecap="round"/>
<path d="M3.5 6.5V6.5C4.79998 6.5 5.97488 7.27473 6.48697 8.4696L6.5 8.5L7.05279 9.60557C7.32687 10.1537 7.88713 10.5 8.5 10.5V10.5C9.11287 10.5 9.67313 10.1537 9.94721 9.60557L10.5 8.5L10.513 8.4696C11.0251 7.27472 12.2 6.5 13.5 6.5V6.5" stroke="#FF453A"/>
<path d="M8.5 12C9.60457 12 10.5 11.1046 10.5 10C10.5 8.89543 9.60457 8 8.5 8C7.39543 8 6.5 8.89543 6.5 10C6.5 11.1046 7.39543 12 8.5 12Z" fill="var(--mw-icon-glyph-content-dark-blue, #104280)"/>
<path d="M6 15.5V6.5C6 5.94772 6.44771 5.5 7 5.5H16C16.5523 5.5 17 5.94771 17 6.5V15.5C17 16.0523 16.5523 16.5 16 16.5H7C6.44772 16.5 6 16.0523 6 15.5Z" fill="white" stroke="#B7312C" stroke-linecap="round"/>
<path d="M6.5 9.5V9.5C7.79998 9.5 8.97488 10.2747 9.48697 11.4696L9.5 11.5L10.0528 12.6056C10.3269 13.1537 10.8871 13.5 11.5 13.5V13.5C12.1129 13.5 12.6731 13.1537 12.9472 12.6056L13.5 11.5L13.513 11.4696C14.0251 10.2747 15.2 9.5 16.5 9.5V9.5" stroke="#FF453A"/>
<path d="M11.5 15C12.6046 15 13.5 14.1046 13.5 13C13.5 11.8954 12.6046 11 11.5 11C10.3954 11 9.5 11.8954 9.5 13C9.5 14.1046 10.3954 15 11.5 15Z" fill="var(--mw-icon-glyph-content-dark-blue, #104280)"/>
<path d="M9 19.5V10.5C9 9.94772 9.44771 9.5 10 9.5H19C19.5523 9.5 20 9.94771 20 10.5V19.5C20 20.0523 19.5523 20.5 19 20.5H10C9.44772 20.5 9 20.0523 9 19.5Z" fill="white" stroke="#B7312C" stroke-linecap="round"/>
<path d="M9.5 13.5V13.5C10.8 13.5 11.9749 14.2747 12.487 15.4696L12.5 15.5L13.0528 16.6056C13.3269 17.1537 13.8871 17.5 14.5 17.5V17.5C15.1129 17.5 15.6731 17.1537 15.9472 16.6056L16.5 15.5L16.513 15.4696C17.0251 14.2747 18.2 13.5 19.5 13.5V13.5" stroke="#FF453A"/>
<path d="M14.5 19C15.6046 19 16.5 18.1046 16.5 17C16.5 15.8954 15.6046 15 14.5 15C13.3954 15 12.5 15.8954 12.5 17C12.5 18.1046 13.3954 19 14.5 19Z" fill="var(--mw-icon-glyph-content-dark-blue, #104280)"/>
</svg>
