<svg width="24" height="24" viewBox="0 0 24 24" fill="none" xmlns="http://www.w3.org/2000/svg">
<path d="M0.5 18.5V4.5C0.5 2.29086 2.29086 0.5 4.5 0.5H18.5C20.7091 0.5 22.5 2.29086 22.5 4.5V18.5C22.5 20.7091 20.7091 22.5 18.5 22.5H4.5C2.29086 22.5 0.5 20.7091 0.5 18.5Z" fill="var(--mw-icon-background-default-white, #FFFFFF)"/>
<path d="M22.5 6.5C22.5 6.5 19.5 7 17.5 9.5C15.7331 11.7086 14.5 15.5 13.5 16.5C12.5 17.5 11.5 17.5 11.5 17.5C11.5 17.5 10.5 17.5 9.5 16.5C8.5 15.5 7.2669 11.7086 5.5 9.5C3.5 7 0.5 6.5 0.5 6.5" stroke="#FF453A" stroke-linejoin="round"/>
<path d="M11.5 20C12.8807 20 14 18.8807 14 17.5C14 16.1193 12.8807 15 11.5 15C10.1193 15 9 16.1193 9 17.5C9 18.8807 10.1193 20 11.5 20Z" fill="var(--mw-icon-glyph-content-dark-blue, #104280)"/>
<path d="M0.5 18.5V4.5C0.5 2.29086 2.29086 0.5 4.5 0.5H18.5C20.7091 0.5 22.5 2.29086 22.5 4.5V18.5C22.5 20.7091 20.7091 22.5 18.5 22.5H4.5C2.29086 22.5 0.5 20.7091 0.5 18.5Z" stroke="#B7312C" stroke-linecap="round"/>
</svg>
