<svg width="24" height="24" viewBox="0 0 24 24" fill="none" xmlns="http://www.w3.org/2000/svg">
<path d="M0.5 18.5V4.5C0.5 2.29086 2.29086 0.5 4.5 0.5H18.5C20.7091 0.5 22.5 2.29086 22.5 4.5V18.5C22.5 20.7091 20.7091 22.5 18.5 22.5H4.5C2.29086 22.5 0.5 20.7091 0.5 18.5Z" fill="var(--mw-icon-background-default-white, #FFFFFF)" stroke="#B7312C" stroke-linecap="round"/>
<path d="M0.5 19.5C0.5 19.5 3.5 19 5.5 16.5C7.2669 14.2914 8.5 10.5 9.5 9.5C10.5 8.5 11.5 8.5 11.5 8.5C11.5 8.5 12.5 8.5 13.5 9.5C14.5 10.5 15.7331 14.2914 17.5 16.5C19.5 19 22.5 19.5 22.5 19.5" stroke="#FF453A" stroke-linejoin="round"/>
<path d="M11.5 6C10.1193 6 9 7.11929 9 8.5C9 9.88071 10.1193 11 11.5 11C12.8807 11 14 9.88071 14 8.5C14 7.11929 12.8807 6 11.5 6Z" fill="var(--mw-icon-glyph-content-dark-blue, #104280)"/>
<path d="M0.5 18.5V4.5C0.5 2.29086 2.29086 0.5 4.5 0.5H18.5C20.7091 0.5 22.5 2.29086 22.5 4.5V18.5C22.5 20.7091 20.7091 22.5 18.5 22.5H4.5C2.29086 22.5 0.5 20.7091 0.5 18.5Z" stroke="#B7312C" stroke-linecap="round"/>
</svg>
