<svg width="28" height="25" viewBox="0 0 28 25" fill="none" xmlns="http://www.w3.org/2000/svg">
<path d="M14.5 1.5L4.5 13.5H11.5L9.5 22.5L18.5 10.5H11.5L14.5 1.5Z" fill="var(--mw-icon-background-default-selection, #B4DEFF)" stroke="var(--mw-icon-border-default-blue, #1656A7)" stroke-linejoin="round"/>
<path d="M21.5 23C21.5 23.8284 20.8284 24.5 20 24.5C19.1716 24.5 18.5 23.8284 18.5 23C18.5 22.1716 19.1716 21.5 20 21.5C20.8284 21.5 21.5 22.1716 21.5 23Z" fill="#FEC04C"/>
<path d="M18.5 19.5C18.5 18.6291 18.65 18.2286 18.8802 17.7113C19.1105 17.194 19.564 16.6276 20.2407 16.0121C20.9244 15.39 21.357 14.948 21.5384 14.6861C21.8174 14.2867 21.957 13.8545 21.957 13.3896C21.957 12.7741 21.793 12.3059 21.4651 11.985C21.1442 11.6576 20.8686 11.5 20.2407 11.5C19.6407 11.5 19.3855 11.6543 19.0158 11.9752C18.653 12.2895 18.5 12.9565 18.5 13.5H15.5C15.514 12.341 15.9326 11.1861 16.7558 10.5117C17.586 9.83723 18.6814 9.5 20.0419 9.5C21.4442 9.5 22.536 9.83395 23.3174 10.5019C24.1058 11.1698 24.5 12.1029 24.5 13.3012C24.5 14.3685 23.9698 15.4195 22.9093 16.4541L21.8364 17.6426C21.3759 18.1337 21.514 18.5571 21.5 19.5H18.5Z" fill="#FEC04C"/>
<path d="M21.5 23C21.5 23.8284 20.8284 24.5 20 24.5C19.1716 24.5 18.5 23.8284 18.5 23C18.5 22.1716 19.1716 21.5 20 21.5C20.8284 21.5 21.5 22.1716 21.5 23Z" stroke="#745A26" stroke-linejoin="round"/>
<path d="M18.5 19.5C18.5 18.6291 18.65 18.2286 18.8802 17.7113C19.1105 17.194 19.564 16.6276 20.2407 16.0121C20.9244 15.39 21.357 14.948 21.5384 14.6861C21.8174 14.2867 21.957 13.8545 21.957 13.3896C21.957 12.7741 21.793 12.3059 21.4651 11.985C21.1442 11.6576 20.8686 11.5 20.2407 11.5C19.6407 11.5 19.3855 11.6543 19.0158 11.9752C18.653 12.2895 18.5 12.9565 18.5 13.5H15.5C15.514 12.341 15.9326 11.1861 16.7558 10.5117C17.586 9.83723 18.6814 9.5 20.0419 9.5C21.4442 9.5 22.536 9.83395 23.3174 10.5019C24.1058 11.1698 24.5 12.1029 24.5 13.3012C24.5 14.3685 23.9698 15.4195 22.9093 16.4541L21.8364 17.6426C21.3759 18.1337 21.514 18.5571 21.5 19.5H18.5Z" stroke="#745A26" stroke-linejoin="round"/>
</svg>
