<svg width="24" height="24" viewBox="0 0 24 24" fill="none" xmlns="http://www.w3.org/2000/svg">
<path d="M23.5 11.5C23.5 12.6046 22.6046 13.5 21.5 13.5C20.3954 13.5 19.5 12.6046 19.5 11.5C19.5 10.3954 20.3954 9.5 21.5 9.5C22.6046 9.5 23.5 10.3954 23.5 11.5Z" fill="var(--mw-icon-background-default-selection, #B4DEFF)" stroke="var(--mw-icon-border-default-blue, #1656A7)"/>
<path d="M18.5711 18.5711C14.6658 22.4764 8.33418 22.4764 4.42893 18.5711C0.523689 14.6659 0.523689 8.33422 4.42893 4.42898C8.33418 0.523735 14.6658 0.523735 18.5711 4.42898" stroke="var(--mw-icon-glyph-content-light-blue, #278CDD)"/>
<path d="M21 8V2L16 6L21 8Z" fill="var(--mw-icon-glyph-content-light-blue, #278CDD)"/>
<path d="M21 15V21L16 17L21 15Z" fill="var(--mw-icon-glyph-content-light-blue, #278CDD)"/>
<path d="M3.5 13.5V10.5H5C5.27614 10.5 5.5 10.7239 5.5 11V13C5.5 13.2761 5.27614 13.5 5 13.5H3.5Z" fill="var(--mw-icon-glyph-disabled-gray, #888889)" stroke="var(--mw-icon-border-default-gray, #616161)" stroke-linecap="round"/>
<path d="M0.5 16V8C0.5 7.72386 0.723858 7.5 1 7.5H3C3.27614 7.5 3.5 7.72386 3.5 8V16C3.5 16.2761 3.27614 16.5 3 16.5H1C0.723858 16.5 0.5 16.2761 0.5 16Z" fill="var(--mw-icon-background-default-dark-gray, #A6A6A6)" stroke="var(--mw-icon-border-default-gray, #616161)" stroke-linecap="round"/>
</svg>
