<svg width="24" height="24" viewBox="0 0 24 24" fill="none" xmlns="http://www.w3.org/2000/svg">
<path d="M20.5 10.5001L23.4998 13.5001M23.4998 13.5001L20.5001 16.5001M23.4998 13.5001L11.5 13.5001" stroke="var(--mw-icon-object-primary, #616160)" stroke-linecap="round" stroke-linejoin="round"/>
<path d="M21.5 11.5L23.5 13.5L21.5 15.5" stroke="var(--mw-icon-object-primary, #616160)" stroke-linecap="square" stroke-linejoin="round"/>
<path d="M14 13.5L23 13.5" stroke="var(--mw-icon-object-primary, #616160)" stroke-linejoin="round"/>
<path d="M11.809 5.84833V0H13V6.91003H11.9281L11.809 5.84833ZM9 4.5347V4.44023C9 4.06834 9.03833 3.73093 9.11499 3.42802C9.19165 3.12211 9.3039 2.85968 9.45175 2.64075C9.59959 2.42181 9.78166 2.25236 9.99795 2.13239C10.2142 2.01242 10.4606 1.95244 10.7372 1.95244C10.9973 1.95244 11.2245 2.01242 11.4189 2.13239C11.616 2.25236 11.783 2.42331 11.9199 2.64524C12.0595 2.86418 12.1718 3.12361 12.2567 3.42352C12.3415 3.72044 12.4031 4.04584 12.4415 4.39974V4.60668C12.4031 4.94559 12.3415 5.2605 12.2567 5.55141C12.1718 5.84233 12.0595 6.09726 11.9199 6.3162C11.783 6.53213 11.616 6.70009 11.4189 6.82005C11.2218 6.94002 10.9918 7 10.729 7C10.4524 7 10.206 6.93852 9.98973 6.81555C9.77618 6.69259 9.59548 6.52014 9.44764 6.2982C9.30253 6.07626 9.19165 5.81534 9.11499 5.51542C9.03833 5.21551 9 4.8886 9 4.5347ZM10.1828 4.44023V4.5347C10.1828 4.73565 10.1964 4.92309 10.2238 5.09704C10.2539 5.27099 10.3018 5.42545 10.3676 5.56041C10.436 5.69237 10.5236 5.79584 10.6304 5.87082C10.7399 5.9428 10.8727 5.97879 11.0287 5.97879C11.2313 5.97879 11.3984 5.92931 11.5298 5.83033C11.6612 5.72836 11.7611 5.5889 11.8296 5.41195C11.9008 5.235 11.9418 5.03106 11.9528 4.80013V4.2108C11.9446 4.02185 11.9199 3.8524 11.8789 3.70244C11.8405 3.54949 11.783 3.41902 11.7064 3.31105C11.6324 3.20308 11.5394 3.11911 11.4271 3.05913C11.3176 2.99914 11.1875 2.96915 11.037 2.96915C10.8836 2.96915 10.7522 3.00814 10.6427 3.08612C10.5332 3.1611 10.4442 3.26457 10.3758 3.39653C10.3101 3.52849 10.2608 3.68445 10.2279 3.8644C10.1978 4.04135 10.1828 4.23329 10.1828 4.44023Z" fill="var(--mw-icon-object-primary, #616160)"/>
<path d="M0.5 14.5C0.5 13.9477 0.947715 13.5 1.5 13.5H18.5V19.5C18.5 20.0523 18.0523 20.5 17.5 20.5H1.5C0.947716 20.5 0.5 20.0523 0.5 19.5V14.5Z" stroke="var(--mw-icon-object-primary, #616160)"/>
<rect x="2.5" y="11.5" width="4" height="4" rx="0.5" fill="var(--mw-icon-object-secondary, #FFFFFE)" stroke="var(--mw-icon-object-primary, #616160)"/>
<rect x="14" y="12" width="3" height="3" rx="0.5" fill="var(--mw-icon-object-primary, #616160)"/>
<path d="M18.5 8.5L15.5 11.4998M15.5 11.4998L12.5 8.50012M15.5 11.4998L15.5 0.5" stroke="var(--mw-icon-object-primary, #616160)" stroke-linecap="round" stroke-linejoin="round"/>
<rect x="8.5" y="11.5" width="4" height="4" rx="0.5" fill="var(--mw-icon-object-secondary, #FFFFFE)" stroke="var(--mw-icon-object-primary, #616160)"/>
</svg>
