<svg width="24" height="24" viewBox="0 0 24 24" fill="none" xmlns="http://www.w3.org/2000/svg">
<rect x="0.5" y="0.5" width="22" height="22" rx="2" fill="var(--mw-icon-background-default-white, #FFFFFF)" stroke="var(--mw-icon-border-default-gray, #616161)"/>
<path d="M1 3.5H22M1 11.5H22" stroke="#FF6929"/>
<path d="M1 7.5H22" stroke="var(--mw-icon-glyph-disabled-gray, #888889)"/>
<path d="M1 15.5H22" stroke="var(--mw-icon-glyph-content-gray, #616162)"/>
<path d="M9 4.5C9 5.32843 8.32843 6 7.5 6C6.67157 6 6 5.32843 6 4.5C6 3.67157 6.67157 3 7.5 3C8.32843 3 9 3.67157 9 4.5Z" fill="#139FFF"/>
<path d="M13 7.5C13 8.32843 12.3284 9 11.5 9C10.6716 9 10 8.32843 10 7.5C10 6.67157 10.6716 6 11.5 6C12.3284 6 13 6.67157 13 7.5Z" fill="#139FFF"/>
<path d="M17 10.5C17 11.3284 16.3284 12 15.5 12C14.6716 12 14 11.3284 14 10.5C14 9.67157 14.6716 9 15.5 9C16.3284 9 17 9.67157 17 10.5Z" fill="#139FFF"/>
<path d="M21 12.5C21 13.3284 20.3284 14 19.5 14C18.6716 14 18 13.3284 18 12.5C18 11.6716 18.6716 11 19.5 11C20.3284 11 21 11.6716 21 12.5Z" fill="#139FFF"/>
<path d="M5 3.5C5 4.32843 4.32843 5 3.5 5C2.67157 5 2 4.32843 2 3.5C2 2.67157 2.67157 2 3.5 2C4.32843 2 5 2.67157 5 3.5Z" fill="#139FFF"/>
<path d="M3.5 4V8M7.5 5V8M15.5 7V11.5M19.5 7V13" stroke="#139FFF"/>
<path d="M5.67699 19.5945H4.60769V18.9185H5.67699C5.83476 18.9185 5.96136 18.8945 6.0568 18.8464C6.15418 18.7983 6.22527 18.7324 6.27007 18.6486C6.31682 18.5631 6.34019 18.4669 6.34019 18.3601C6.34019 18.2496 6.31682 18.1472 6.27007 18.0528C6.22527 17.9566 6.15418 17.8791 6.0568 17.8203C5.96136 17.7615 5.83476 17.7321 5.67699 17.7321H4.95244V20.9466H4V17.0561H5.67699C6.01589 17.0561 6.3061 17.1122 6.54762 17.2244C6.79109 17.3367 6.97709 17.4908 7.10564 17.6867C7.23614 17.8809 7.30139 18.1035 7.30139 18.3547C7.30139 18.6059 7.23614 18.8241 7.10564 19.0094C6.97709 19.1946 6.79109 19.3389 6.54762 19.4422C6.3061 19.5438 6.01589 19.5945 5.67699 19.5945Z" fill="var(--mw-icon-glyph-content-dark-gray, #333333)"/>
<path d="M9.44408 17.7963L8.34557 20.9466H7.32885L8.90359 17.0561H9.54634L9.44408 17.7963ZM10.3556 20.9466L9.25418 17.7963L9.14024 17.0561H9.79175L11.3723 20.9466H10.3556ZM10.3089 19.4983V20.1717H8.09139V19.4983H10.3089Z" fill="var(--mw-icon-glyph-content-dark-gray, #333333)"/>
<path d="M14.4119 19.6426H15.3585C15.343 19.9098 15.2631 20.1458 15.119 20.3507C14.9768 20.5538 14.7791 20.7132 14.5259 20.829C14.2727 20.943 13.9718 21 13.6231 21C13.3446 21 13.0953 20.9564 12.8752 20.8691C12.6551 20.7818 12.4681 20.6571 12.3142 20.495C12.1623 20.3311 12.0455 20.1343 11.9637 19.9045C11.8838 19.6729 11.8439 19.4119 11.8439 19.1216V18.8838C11.8439 18.5934 11.8857 18.3324 11.9695 18.1009C12.0533 17.8693 12.173 17.6716 12.3289 17.5077C12.4847 17.3438 12.6717 17.2182 12.8898 17.1309C13.1079 17.0436 13.3514 17 13.6202 17C13.9825 17 14.2883 17.0597 14.5376 17.179C14.7869 17.2984 14.9797 17.4623 15.116 17.6707C15.2543 17.8791 15.3371 18.1169 15.3644 18.3841H14.4149C14.4071 18.2327 14.3759 18.1053 14.3214 18.002C14.2668 17.8969 14.1831 17.8176 14.0701 17.7642C13.9572 17.7108 13.8072 17.684 13.6202 17.684C13.4839 17.684 13.3641 17.7072 13.2608 17.7535C13.1596 17.7998 13.0748 17.872 13.0067 17.9699C12.9404 18.0679 12.8908 18.1926 12.8577 18.344C12.8245 18.4937 12.808 18.6718 12.808 18.8784V19.1216C12.808 19.3264 12.8226 19.5037 12.8518 19.6533C12.881 19.8029 12.9278 19.9267 12.9921 20.0247C13.0583 20.1227 13.143 20.1957 13.2462 20.2438C13.3495 20.2919 13.4751 20.316 13.6231 20.316C13.7926 20.316 13.9338 20.2919 14.0467 20.2438C14.1597 20.1939 14.2464 20.1191 14.3068 20.0194C14.3671 19.9196 14.4022 19.794 14.4119 19.6426Z" fill="var(--mw-icon-glyph-content-dark-gray, #333333)"/>
<path d="M17.139 17.0561V20.9466H16.1865V17.0561H17.139ZM18.813 18.6967V19.3701H16.8731V18.6967H18.813ZM19 17.0561V17.7321H16.8731V17.0561H19Z" fill="var(--mw-icon-glyph-content-dark-gray, #333333)"/>
<rect x="0.5" y="0.5" width="22" height="22" rx="2" stroke="var(--mw-icon-border-default-gray, #616161)"/>
</svg>
