<svg width="24" height="24" viewBox="0 0 24 24" fill="none" xmlns="http://www.w3.org/2000/svg">
<path d="M17.9167 0.5H5.08333C2.55203 0.5 0.5 2.55203 0.5 5.08333V17.9167C0.5 20.448 2.55203 22.5 5.08333 22.5H17.9167C20.448 22.5 22.5 20.448 22.5 17.9167V5.08333C22.5 2.55203 20.448 0.5 17.9167 0.5Z" fill="var(--mw-icon-background-default-white, #FFFFFF)" stroke="var(--mw-icon-border-default-blue, #1656A7)"/>
<path d="M14 15V17H17L11.5 21L6 17H9V15H14Z" fill="var(--mw-icon-glyph-content-blue, #1656A8)"/>
<path d="M15 10H14V9H9V10H8V9H5V13C5 13.5523 5.44772 14 6 14H17C17.5523 14 18 13.5523 18 13V9H15V10Z" fill="var(--mw-icon-glyph-content-blue, #1656A8)"/>
<path d="M17 6H6C5.44772 6 5 6.44772 5 7V8H8V7H9V8H14V7H15V8H18V7C18 6.44772 17.5523 6 17 6Z" fill="var(--mw-icon-glyph-content-blue, #1656A8)"/>
<path d="M8.5 6V4.5C8.5 3.94772 8.94772 3.5 9.5 3.5H13.5C14.0523 3.5 14.5 3.94772 14.5 4.5V6" stroke="var(--mw-icon-glyph-content-blue, #1656A8)"/>
</svg>
