<svg width="24" height="24" viewBox="0 0 24 24" fill="none" xmlns="http://www.w3.org/2000/svg">
<path d="M0.5 4.5C0.5 3.94772 0.947715 3.5 1.5 3.5H8.05954C8.35851 3.5 8.64181 3.63377 8.83176 3.86465L10.7 6.13535C10.8899 6.36623 11.1732 6.5 11.4722 6.5H22.5C23.0523 6.5 23.5 6.94772 23.5 7.5V13.4302V19.5C23.5 20.0523 23.0523 20.5 22.5 20.5H1.5C0.947715 20.5 0.5 20.0523 0.5 19.5V4.5Z" fill="var(--mw-icon-background-light-yellow, #FFF5BC)" stroke="#674C06"/>
<path d="M5.5 9C5.5 8.72386 5.72386 8.5 6 8.5H18C18.2761 8.5 18.5 8.72386 18.5 9V11C18.5 11.2761 18.2761 11.5 18 11.5H6C5.72386 11.5 5.5 11.2761 5.5 11V9Z" fill="var(--mw-icon-background-brown, #DC996C)"/>
<path d="M17.5 18C17.5 18.2761 17.2761 18.5 17 18.5L7 18.5C6.72386 18.5 6.5 18.2761 6.5 18L6.5 12C6.5 11.7239 6.72386 11.5 7 11.5L17 11.5C17.2761 11.5 17.5 11.7239 17.5 12L17.5 18Z" fill="var(--mw-icon-background-brown, #DC996C)"/>
<path d="M8.5 14.5V15.5V16.5M10.5 14.5V16.5M12.5 14.5V16.5M5.5 9C5.5 8.72386 5.72386 8.5 6 8.5H18C18.2761 8.5 18.5 8.72386 18.5 9V11C18.5 11.2761 18.2761 11.5 18 11.5H6C5.72386 11.5 5.5 11.2761 5.5 11V9ZM17.5 18C17.5 18.2761 17.2761 18.5 17 18.5L7 18.5C6.72386 18.5 6.5 18.2761 6.5 18L6.5 12C6.5 11.7239 6.72386 11.5 7 11.5L17 11.5C17.2761 11.5 17.5 11.7239 17.5 12L17.5 18Z" stroke="var(--mw-icon-glyph-content-brown, #5F1B18)" stroke-linecap="square" stroke-linejoin="round"/>
</svg>
