<svg width="24" height="24" viewBox="0 0 24 24" fill="none" xmlns="http://www.w3.org/2000/svg">
<path d="M7.5 6C7.5 5.72386 7.72386 5.5 8 5.5H15.0858C15.351 5.5 15.6054 5.60536 15.7929 5.79289L17.2071 7.20711C17.3946 7.39464 17.649 7.5 17.9142 7.5H23C23.2761 7.5 23.5 7.72386 23.5 8V12.9026V18C23.5 18.2761 23.2761 18.5 23 18.5H8C7.72386 18.5 7.5 18.2761 7.5 18V6Z" fill="var(--mw-icon-background-light-yellow, #FFF5BC)" stroke="#674C06"/>
<path d="M20 15.5H11C10.7239 15.5 10.5 15.7239 10.5 16V22C10.5 22.2761 10.7239 22.5 11 22.5H20C20.2761 22.5 20.5 22.2761 20.5 22V16C20.5 15.7239 20.2761 15.5 20 15.5Z" fill="#E9B490" stroke="var(--mw-icon-border-default-brown, #5F1B08)" stroke-linecap="square"/>
<path d="M16 20.5H19" stroke="var(--mw-icon-glyph-content-brown, #5F1B18)"/>
<path d="M17 17H14V16H17V17Z" fill="#FBE7D8"/>
</svg>
