<svg width="24" height="24" viewBox="0 0 24 24" fill="none" xmlns="http://www.w3.org/2000/svg">
<path fill-rule="evenodd" clip-rule="evenodd" d="M12.8346 0.50271C11.9454 0.45637 11.4204 1.01103 11.4204 1.65374L11.2942 9.34427C11.2942 9.59943 11.2331 10.6469 11.0649 10.7984C10.6367 11.0407 10.4739 10.1017 10.3881 9.86078L8.1717 3.43751C7.94944 2.81281 7.25367 2.48109 6.61434 2.695C5.96743 2.91146 5.62544 3.60336 5.85346 4.2344L8.20557 12.7675C8.40314 13.3142 8.37377 13.8429 8.12912 14.1458C7.96093 14.267 7.35085 14.5398 6.75052 13.9398L3.02375 10.7196C2.44563 10.1417 1.49517 10.1427 0.918309 10.7218C0.364347 11.2778 0.360057 12.1637 0.908612 12.7249L6.02623 17.9603C6.41049 18.3534 6.74516 18.7902 7.02305 19.2614L8.44335 21.6698C9.11123 22.8023 10.3454 23.5 11.6811 23.5H16.1371C18.2231 23.5 20.2096 22.3872 20.4967 20.2667C20.4967 20.2667 20.7317 18.0168 20.7056 16.2583C20.6795 14.4998 20.2829 13.8206 20.6534 12.9568L23.3161 7.31052C23.6101 6.62499 23.6003 5.6067 22.9245 5.26754C22.2287 4.91827 21.348 5.3232 20.9666 5.99164L18.1229 11.0113C17.9924 11.24 17.7093 11.3389 17.4605 11.2427C17.2117 11.1465 17.0739 10.8849 17.1382 10.6306L19.0996 3.06824C19.2526 2.46302 18.9076 1.84375 18.305 1.64213C17.6245 1.41443 16.8907 1.80574 16.7169 2.48904L14.8499 9.5135C14.7847 9.76988 14.5534 9.88864 14.2855 9.85649C14.0177 9.82433 13.9111 8.91521 13.9111 8.65101L13.9345 1.82414C13.9345 1.18143 13.6537 0.525937 12.8346 0.50271Z" fill="var(--mw-icon-background-default-white, #FFFFFF)" stroke="var(--mw-icon-border-default-gray, #616161)" stroke-linecap="round" stroke-linejoin="round"/>
</svg>
