<svg width="26" height="25" viewBox="0 0 26 25" fill="none" xmlns="http://www.w3.org/2000/svg">
<rect x="1.5" y="0.5" width="18" height="18" rx="2" fill="var(--mw-icon-background-default-light-gray, #F5F5F5)"/>
<path d="M4 3H9V13H4" stroke="#1171BE" stroke-width="2" stroke-linecap="square" stroke-linejoin="round"/>
<path d="M6 6H14V9.33333V16H11H6" stroke="#EDB120" stroke-width="2" stroke-linecap="square" stroke-linejoin="round"/>
<rect x="1.5" y="0.5" width="18" height="18" rx="2" stroke="var(--mw-icon-border-default-gray, #616161)"/>
<path fill-rule="evenodd" clip-rule="evenodd" d="M17.9903 9.47041C17.4466 9.44207 17.1256 9.7812 17.1256 10.1742L17.0485 14.8763C17.0485 15.0323 17.0111 15.6727 16.9082 15.7653C16.6465 15.9135 16.5469 15.3394 16.4945 15.1921L15.1393 11.2648C15.0034 10.8828 14.578 10.68 14.1871 10.8108C13.7916 10.9431 13.5825 11.3662 13.7219 11.752L15.16 16.9692C15.2808 17.3035 15.2629 17.6268 15.1133 17.812C15.0104 17.8861 14.6374 18.0529 14.2704 17.686L11.9918 15.7171C11.6383 15.3638 11.0572 15.3644 10.7045 15.7185C10.3658 16.0585 10.3632 16.6001 10.6986 16.9432L13.8275 20.1442C14.0625 20.3845 14.2671 20.6516 14.437 20.9397L15.3054 22.4123C15.7138 23.1047 16.4684 23.5313 17.285 23.5313H20.0095C21.2849 23.5313 22.4994 22.8509 22.675 21.5543C22.675 21.5543 22.8187 20.1787 22.8027 19.1036C22.7867 18.0284 22.5443 17.7762 22.7708 17.248L24.3988 13.6328C24.5786 13.2137 24.5726 12.5911 24.1594 12.3837C23.7339 12.1701 23.1955 12.4177 22.9623 12.8264L21.2236 15.8955C21.1438 16.0353 20.9707 16.0958 20.8186 16.037C20.6665 15.9782 20.5822 15.8182 20.6215 15.6628L21.8208 11.039C21.9143 10.669 21.7034 10.2903 21.3349 10.1671C20.9189 10.0278 20.4702 10.2671 20.364 10.6849L19.2224 14.9797C19.1826 15.1365 19.0411 15.2091 18.8774 15.1894C18.7136 15.1698 18.6484 14.6139 18.6484 14.4524L18.6628 10.2783C18.6628 9.88538 18.4911 9.48461 17.9903 9.47041Z" fill="var(--mw-icon-background-default-white, #FFFFFF)" stroke="var(--mw-icon-border-default-gray, #616161)" stroke-linecap="round" stroke-linejoin="round"/>
</svg>
