<svg width="25" height="24" viewBox="0 0 25 24" fill="none" xmlns="http://www.w3.org/2000/svg">
<path d="M20.5 3.5L22.5 1.5M22.5 1.5L24.5 3.5M22.5 1.5V21.5M24.5 19.5L22.5 21.5M22.5 21.5L20.5 19.5" stroke="var(--mw-icon-glyph-content-mono, #616061)" stroke-linecap="round" stroke-linejoin="round"/>
<path fill-rule="evenodd" clip-rule="evenodd" d="M11.1604 3.39765C10.4564 3.36097 10.0408 3.80007 10.0408 4.30888L9.94093 10.3972C9.94093 10.5992 9.89251 11.4285 9.75936 11.5484C9.42042 11.7402 9.29149 10.9969 9.22362 10.8061L7.46894 5.72104C7.29298 5.22648 6.74216 4.96387 6.23603 5.13322C5.72389 5.30458 5.45315 5.85233 5.63366 6.35191L7.49575 13.1073C7.65216 13.5401 7.62891 13.9586 7.43523 14.1985C7.30207 14.2944 6.8191 14.5104 6.34384 14.0353L3.39348 11.486C2.9358 11.0285 2.18335 11.0293 1.72667 11.4877C1.28812 11.928 1.28472 12.6293 1.71899 13.0735L5.77044 17.2182C6.07464 17.5294 6.33959 17.8753 6.55959 18.2483L7.68399 20.1549C8.21273 21.0515 9.18981 21.6038 10.2472 21.6038H13.7749C15.4263 21.6038 16.9989 20.7229 17.2263 19.0441C17.2263 19.0441 17.4123 17.263 17.3916 15.8708C17.3709 14.4787 17.057 13.941 17.3503 13.2571L19.4583 8.78717C19.691 8.24446 19.6833 7.43831 19.1483 7.16981C18.5974 6.89331 17.9002 7.21388 17.5983 7.74305L15.347 11.717C15.2437 11.898 15.0196 11.9763 14.8226 11.9001C14.6256 11.824 14.5165 11.6169 14.5674 11.4156L16.1202 5.4287C16.2413 4.94957 15.9682 4.45931 15.4911 4.2997C14.9524 4.11943 14.3715 4.42922 14.2339 4.97016L12.7558 10.5312C12.7042 10.7342 12.5211 10.8282 12.309 10.8027C12.097 10.7773 12.0126 10.0576 12.0126 9.84839L12.0312 4.44378C12.0312 3.93497 11.8088 3.41604 11.1604 3.39765Z" stroke="var(--mw-icon-glyph-content-mono, #616061)" stroke-linecap="round" stroke-linejoin="round"/>
</svg>
