<svg width="24" height="24" viewBox="0 0 24 24" fill="none" xmlns="http://www.w3.org/2000/svg">
<path fill-rule="evenodd" clip-rule="evenodd" d="M11 0.500222C10.296 0.463536 10 0.99141 10 1.50022L9.94093 7.39724C9.94093 7.59924 9.89251 8.42849 9.75936 8.54841C9.42042 8.74027 9.29149 7.9969 9.22362 7.80615L7.46894 2.72106C7.29298 2.2265 6.74216 1.96389 6.23603 2.13324C5.72389 2.3046 5.45315 2.85235 5.63366 3.35193L7.49575 10.1073C7.65216 10.5401 7.62891 10.9587 7.43523 11.1985C7.30207 11.2944 6.8191 11.5104 6.34384 11.0354L3.39348 8.48602C2.9358 8.02856 2.18335 8.02935 1.72667 8.48776C1.28812 8.92797 1.28472 9.62928 1.71899 10.0735L5.77044 14.2182C6.07464 14.5294 6.33959 14.8753 6.55959 15.2483L7.68399 17.155C8.21273 18.0516 9.18981 18.6039 10.2472 18.6039H13.7749C15.4263 18.6039 16.9989 17.7229 17.2263 16.0441C17.2263 16.0441 17.4123 14.263 17.3916 12.8708C17.3709 11.4787 17.057 10.941 17.3503 10.2571L19.4583 5.78719C19.691 5.24448 19.6833 4.43833 19.1483 4.16983C18.5974 3.89333 17.9002 4.2139 17.5983 4.74307L15.347 8.717C15.2437 8.89803 15.0196 8.97632 14.8226 8.90016C14.6256 8.82401 14.5165 8.61691 14.5674 8.41562L16.1202 2.42872C16.2413 1.94959 15.9682 1.45933 15.4911 1.29972C14.9524 1.11945 14.3715 1.42924 14.2339 1.97018L12.7558 7.53121C12.7042 7.73418 12.5211 7.8282 12.309 7.80274C12.097 7.77728 12.0126 7.05757 12.0126 6.84841L12 1.50037C12 0.991555 11.6484 0.518609 11 0.500222Z" stroke="var(--mw-icon-glyph-content-mono, #616061)" stroke-linecap="round" stroke-linejoin="round"/>
<path d="M3.5 19.5L1.5 21.5M1.5 21.5L3.5 23.5M1.5 21.5L21.5 21.5M19.5 23.5L21.5 21.5M21.5 21.5L19.5 19.5" stroke="var(--mw-icon-glyph-content-mono, #616061)" stroke-linecap="round" stroke-linejoin="round"/>
</svg>
