<svg width="24" height="24" viewBox="0 0 24 24" fill="none" xmlns="http://www.w3.org/2000/svg">
<path fill-rule="evenodd" clip-rule="evenodd" d="M12.6895 2.50224C11.9549 2.46396 11.5212 2.92215 11.5212 3.45309L11.417 9.80614C11.417 10.0169 11.3664 10.8822 11.2275 11.0074C10.8738 11.2076 10.7393 10.4319 10.6685 10.2328L8.8375 4.92664C8.65388 4.41058 8.07912 4.13655 7.55098 4.31326C7.01657 4.49207 6.73406 5.06365 6.92242 5.58494L8.86547 12.634C9.02868 13.0857 9.00441 13.5224 8.80232 13.7727C8.66337 13.8728 8.1594 14.0981 7.66347 13.6024L4.58484 10.9422C4.10726 10.4649 3.32209 10.4657 2.84556 10.9441C2.38794 11.4034 2.3844 12.1352 2.83755 12.5988L7.06514 16.9237C7.38258 17.2484 7.65904 17.6093 7.88861 17.9986L9.0619 19.9881C9.61363 20.9237 10.6332 21.5 11.7366 21.5H15.4176C17.1408 21.5 18.7818 20.5808 19.0191 18.829C19.0191 18.829 19.2131 16.9704 19.1916 15.5177C19.17 14.065 18.8424 13.504 19.1484 12.7904L21.3481 8.12609C21.591 7.55978 21.5829 6.71858 21.0246 6.4384C20.4498 6.14988 19.7223 6.48438 19.4072 7.03657L17.0581 11.1833C16.9503 11.3722 16.7164 11.4539 16.5108 11.3744C16.3053 11.2949 16.1915 11.0788 16.2446 10.8688L17.8649 4.62159C17.9913 4.12163 17.7063 3.61005 17.2085 3.4435C16.6463 3.2554 16.0401 3.57866 15.8966 4.14312L14.3542 9.94594C14.3004 10.1577 14.1093 10.2558 13.888 10.2293C13.6668 10.2027 13.5787 9.4517 13.5787 9.23344L13.5981 3.59385C13.5981 3.06292 13.3661 2.52143 12.6895 2.50224Z" stroke="var(--mw-icon-object-primary, #616160)" stroke-linecap="round" stroke-linejoin="round"/>
</svg>
