<svg width="24" height="24" viewBox="0 0 24 24" fill="none" xmlns="http://www.w3.org/2000/svg">
<path d="M5.5 4.5H19.5V18.5H5.5V4.5Z" fill="var(--mw-icon-background-default-white, #FFFFFF)" stroke="var(--mw-icon-border-default-gray, #616161)" stroke-linejoin="round"/>
<path fill-rule="evenodd" clip-rule="evenodd" d="M20.1464 8.14645C20.3417 7.95118 20.6583 7.95118 20.8536 8.14645L23.8182 11.1111C24.033 11.3259 24.033 11.6741 23.8182 11.8889L20.8536 14.8536C20.6583 15.0488 20.3417 15.0488 20.1464 14.8536C19.9512 14.6583 19.9512 14.3417 20.1464 14.1464L22.7929 11.5L20.1464 8.85355C19.9512 8.65829 19.9512 8.34171 20.1464 8.14645Z" fill="var(--mw-icon-object-primary, #616160)"/>
<path d="M7.5 8C7.5 7.72386 7.72386 7.5 8 7.5H17C17.2761 7.5 17.5 7.72386 17.5 8V10C17.5 10.2761 17.2761 10.5 17 10.5H8C7.72386 10.5 7.5 10.2761 7.5 10V8Z" fill="var(--mw-icon-background-medium-yellow, #FFEF91)" stroke="#E11B14"/>
<path d="M7.5 13C7.5 12.7239 7.72386 12.5 8 12.5H17C17.2761 12.5 17.5 12.7239 17.5 13V15C17.5 15.2761 17.2761 15.5 17 15.5H8C7.72386 15.5 7.5 15.2761 7.5 15V13Z" stroke="var(--mw-icon-glyph-content-gray, #616162)"/>
<path fill-rule="evenodd" clip-rule="evenodd" d="M1.14645 9.14645C1.34171 8.95118 1.65829 8.95118 1.85355 9.14645L3.85355 11.1464C4.04882 11.3417 4.04882 11.6583 3.85355 11.8536L1.85355 13.8536C1.65829 14.0488 1.34171 14.0488 1.14645 13.8536C0.951184 13.6583 0.951184 13.3417 1.14645 13.1464L2.79289 11.5L1.14645 9.85355C0.951184 9.65829 0.951184 9.34171 1.14645 9.14645Z" fill="white"/>
<path fill-rule="evenodd" clip-rule="evenodd" d="M3.5 12.2071C3.49987 12.2072 3.50013 12.207 3.5 12.2071L1.85355 13.8536C1.65829 14.0488 1.34171 14.0488 1.14645 13.8536C0.951185 13.6583 0.951185 13.3417 1.14645 13.1464C1.1464 13.1465 1.14649 13.1464 1.14645 13.1464L2.79289 11.5L1.14645 9.85355C0.951185 9.65829 0.951185 9.34171 1.14645 9.14645C1.34171 8.95118 1.65829 8.95118 1.85355 9.14645M1.85355 9.14645L3.5 10.7929C3.50013 10.793 3.49987 10.7928 3.5 10.7929L3.85355 11.1464C4.04882 11.3417 4.04882 11.6583 3.85355 11.8536L3.5 12.2071M1.37868 11.5L0.43934 10.5607C-0.146446 9.97487 -0.146446 9.02513 0.43934 8.43934C1.02513 7.85355 1.97487 7.85355 2.56066 8.43934L4.56066 10.4393C5.14645 11.0251 5.14645 11.9749 4.56066 12.5607L2.56066 14.5607C1.97487 15.1464 1.02513 15.1464 0.439339 14.5607C-0.146447 13.9749 -0.146447 13.0251 0.43934 12.4393L1.37868 11.5Z" fill="#E11B14"/>
</svg>
