<svg width="24" height="24" viewBox="0 0 24 24" fill="none" xmlns="http://www.w3.org/2000/svg">
<path d="M0.5 4.5H22.5V20.5C22.5 21.6046 21.6046 22.5 20.5 22.5H2.5C1.39543 22.5 0.5 21.6046 0.5 20.5V4.5Z" fill="var(--mw-icon-background-default-white, #FFFFFF)" stroke="var(--mw-icon-border-default-gray, #616161)"/>
<path d="M3.50003 15C3.50003 14.7239 3.72389 14.5 4.00003 14.5H19C19.2761 14.5 19.5 14.7239 19.5 15V18C19.5 18.2761 19.2761 18.5 19 18.5H4C3.72386 18.5 3.5 18.2761 3.5 18L3.50003 15Z" fill="white" stroke="var(--mw-icon-glyph-content-gray, #616162)"/>
<line x1="13" y1="16.5" x2="18" y2="16.5" stroke="var(--mw-icon-glyph-content-gray, #616162)"/>
<path d="M3.5 7C3.5 6.72386 3.72386 6.5 4 6.5H19C19.2761 6.5 19.5 6.72386 19.5 7V10C19.5 10.2761 19.2761 10.5 19 10.5H4C3.72386 10.5 3.5 10.2761 3.5 10V7Z" stroke="var(--mw-icon-glyph-content-red, #902623)"/>
<rect x="4" y="7" width="15" height="3" fill="var(--mw-icon-background-medium-yellow, #FFEF91)"/>
<path d="M13 8.5H18" stroke="var(--mw-icon-glyph-content-gray, #616162)"/>
<path d="M1 2C1 1.44772 1.44772 1 2 1H21C21.5523 1 22 1.44772 22 2V4H1V2Z" fill="var(--mw-icon-glyph-content-blue, #1656A8)"/>
<path d="M0.5 2.5C0.5 1.39543 1.39543 0.5 2.5 0.5H20.5C21.6046 0.5 22.5 1.39543 22.5 2.5V4.5H0.5V2.5Z" stroke="var(--mw-icon-border-default-gray, #616161)"/>
</svg>
