<svg width="24" height="24" viewBox="0 0 24 24" fill="none" xmlns="http://www.w3.org/2000/svg">
<path d="M1.5 21.5V3.5C1.5 2.39543 2.39543 1.5 3.5 1.5H16.5C17.6046 1.5 18.5 2.39543 18.5 3.5V21.5C18.5 22.6046 17.6046 23.5 16.5 23.5H3.5C2.39543 23.5 1.5 22.6046 1.5 21.5Z" fill="var(--mw-icon-background-default-medium-gray, #D9D9D9)" stroke="var(--mw-icon-border-default-gray, #616161)"/>
<path d="M3.5 19.5V5.5C3.5 4.39543 4.39543 3.5 5.5 3.5H19.5C20.6046 3.5 21.5 4.39543 21.5 5.5V19.5C21.5 20.6046 20.6046 21.5 19.5 21.5H5.5C4.39543 21.5 3.5 20.6046 3.5 19.5Z" fill="var(--mw-icon-background-default-white, #FFFFFF)" stroke="var(--mw-icon-border-default-gray, #616161)"/>
<path d="M5.5 4V1C5.5 0.723858 5.72386 0.5 6 0.5H14C14.2761 0.5 14.5 0.723858 14.5 1V4C14.5 4.27614 14.2761 4.5 14 4.5H6C5.72386 4.5 5.5 4.27614 5.5 4Z" fill="white" stroke="var(--mw-icon-border-default-gray, #616161)"/>
</svg>
