<svg width="24" height="24" viewBox="0 0 24 24" fill="none" xmlns="http://www.w3.org/2000/svg">
<path d="M0.5 2.5C0.5 1.39543 1.39543 0.5 2.5 0.5H20.5C21.6046 0.5 22.5 1.39543 22.5 2.5V20.5C22.5 21.6046 21.6046 22.5 20.5 22.5H2.5C1.39543 22.5 0.5 21.6046 0.5 20.5V2.5Z" fill="var(--mw-icon-background-default-white, #FFFFFF)" stroke="var(--mw-icon-border-default-gray, #616161)"/>
<path fill-rule="evenodd" clip-rule="evenodd" d="M12.9959 17.9892H9.99792V19.688C9.99792 19.8056 10.0486 19.9073 10.1225 19.9564C10.1527 19.9765 10.1868 19.9878 10.2228 19.9878H12.771C12.8424 19.9878 12.906 19.9436 12.9471 19.8745C12.9777 19.8233 12.9959 19.7585 12.9959 19.688V17.9892Z" fill="var(--mw-icon-glyph-content-dark-blue, #104280)"/>
<path d="M7 17.9892H15.9939V18.6887C15.9939 18.8543 15.8933 18.9885 15.7691 18.9885H7.22485C7.10067 18.9885 7 18.8543 7 18.6887V17.9892Z" fill="#00A9E0"/>
<path d="M7.2108 12.4851C7.608 14.4959 8.49565 16.0348 9.53308 16.9864H7.22485C7.10067 16.9864 7 17.1046 7 17.2506V17.9892H15.9939V17.2468C15.9939 17.1009 15.8933 16.9827 15.7691 16.9827H13.4609C14.4983 16.0311 15.3625 14.57 15.7597 12.5593C14.5496 13.2486 13.0805 13.5861 11.497 13.5861C9.91348 13.5861 8.42092 13.1745 7.2108 12.4851Z" fill="#35D2FA"/>
<path d="M15.9828 10.7888C14.732 11.5139 13.1792 11.9434 11.4969 11.9434C9.81467 11.9434 8.26184 11.5139 7.01111 10.7888C7.03847 11.4078 7.11557 12.0054 7.23453 12.5727C8.44465 13.2221 9.91345 13.6026 11.4969 13.6026C13.0804 13.6026 14.5492 13.2221 15.7594 12.5727C15.8783 12.0054 15.9554 11.4078 15.9828 10.7888Z" fill="#37C897"/>
<path d="M15.9892 9.12579C14.7374 9.85318 13.1821 10.2841 11.497 10.2841C9.81181 10.2841 8.25655 9.85318 7.00472 9.12579C7.00159 9.23474 7 9.34432 7 9.45448V10.2841C7 10.4537 7.00375 10.6221 7.01112 10.7888C8.26184 11.5139 9.81468 11.9434 11.497 11.9434C13.1793 11.9434 14.7321 11.5139 15.9828 10.7888C15.9902 10.6221 15.9939 10.4537 15.9939 10.2841V9.45448C15.9939 9.34432 15.9923 9.23474 15.9892 9.12579Z" fill="#ABC739"/>
<path d="M7.05594 8.32576C7.02974 8.58805 7.01242 8.85495 7.00464 9.12577C8.25648 9.85315 9.81174 10.2841 11.4969 10.2841C13.182 10.2841 14.7373 9.85315 15.9891 9.12577C15.9814 8.85494 15.964 8.58802 15.9378 8.32571C14.6949 9.03522 13.1591 9.4545 11.4968 9.4545C9.83466 9.4545 8.29885 9.03524 7.05594 8.32576Z" fill="#F9FB15"/>
<path d="M15.4708 6.08304C14.3188 6.64231 12.9565 6.96565 11.4968 6.96565C10.0371 6.96565 8.67491 6.64232 7.52292 6.08304C7.29726 6.77459 7.13554 7.52886 7.05591 8.32577C8.29882 9.03527 9.83464 9.45453 11.4968 9.45453C13.1591 9.45453 14.6949 9.03527 15.9378 8.32577C15.8582 7.52886 15.6964 6.77458 15.4708 6.08304Z" fill="#FEC338"/>
<path d="M7.52295 6.08306C7.77933 5.29737 8.11823 4.59265 8.51307 3.99836C9.4274 4.30615 10.4364 4.4768 11.4969 4.4768C12.5573 4.4768 13.5663 4.30614 14.4807 3.99835C14.8755 4.59265 15.2144 5.29736 15.4708 6.08305C14.3188 6.64232 12.9566 6.96565 11.4969 6.96565C10.0372 6.96565 8.67494 6.64232 7.52295 6.08306Z" fill="#FE9043"/>
<path d="M14.4666 3.99831C13.5523 4.3061 12.5433 4.47676 11.4828 4.47676C10.4224 4.47676 9.41335 4.30611 8.49902 3.99832C9.32891 2.74918 10.4059 1.98787 11.4828 1.98787C12.5598 1.98787 13.6367 2.74918 14.4666 3.99831Z" fill="#E11B14"/>
</svg>
