<svg width="24" height="24" viewBox="0 0 24 24" fill="none" xmlns="http://www.w3.org/2000/svg">
<path d="M5.5 21C5.22386 21 5 20.7761 5 20.5L5.00003 3.5C5.00003 3.22386 5.22389 3 5.50003 3L9.5 3C9.77614 3 10 3.22386 10 3.5L9.99997 20.5C9.99997 20.7761 9.77611 21 9.49997 21L5.5 21Z" fill="var(--mw-icon-object-primary, #616160)"/>
<path d="M14.5 21C14.2239 21 14 20.7761 14 20.5L14 3.5C14 3.22386 14.2239 3 14.5 3L18.5 3C18.7761 3 19 3.22386 19 3.5L19 20.5C19 20.7761 18.7761 21 18.5 21L14.5 21Z" fill="var(--mw-icon-object-primary, #616160)"/>
</svg>
