<svg width="24" height="24" viewBox="0 0 24 24" fill="none" xmlns="http://www.w3.org/2000/svg">
<path d="M8.50012 17C8.22398 17 8.00012 16.7761 8.00012 16.5L8.00012 7.5C8.00012 7.22386 8.22398 7 8.50012 7L10.5 7C10.7761 7 11 7.22386 11 7.5L11 16.5C11 16.7761 10.7761 17 10.5 17H8.50012Z" fill="var(--mw-icon-object-primary, #616160)"/>
<path d="M13.5 17C13.2238 17 13 16.7761 13 16.5L13 7.5C13 7.22386 13.2238 7 13.5 7L15.5 7C15.7761 7 16 7.22386 16 7.5L16 16.5C16 16.7761 15.7761 17 15.5 17H13.5Z" fill="var(--mw-icon-object-primary, #616160)"/>
<circle cx="12" cy="12" r="11.5" stroke="var(--mw-icon-object-primary, #616160)"/>
</svg>
