<svg width="24" height="24" viewBox="0 0 24 24" fill="none" xmlns="http://www.w3.org/2000/svg">
<path d="M0.5 18.5V4.5C0.5 2.29086 2.29086 0.5 4.5 0.5H18.5C20.7091 0.5 22.5 2.29086 22.5 4.5V18.5C22.5 20.7091 20.7091 22.5 18.5 22.5H4.5C2.29086 22.5 0.5 20.7091 0.5 18.5Z" fill="var(--mw-icon-background-default-white, white)"/>
<path d="M20.4999 1L15.3491 0.500061L22.6354 7.78632L22.4999 3L20.4999 1Z" fill="#FF453A"/>
<path d="M22.5 11.8935V7.65088L15.2627 0.413513L11.1761 0.569633L22.5 11.8935Z" fill="#FF7A74"/>
<path d="M22.4998 11.8934V16.1361L6.8125 0.44873L11.1065 0.500041L22.4998 11.8934Z" fill="#FFAB66"/>
<path d="M22.2857 20.1645L22.4999 16.1361L6.86385 0.5L2.80518 0.683963L22.2857 20.1645Z" fill="var(--mw-icon-background-default-highlight, #FFE864)"/>
<path d="M20.171 22.2925L22.1212 20L2.93492 0.813782L0.813599 2.9351L20.171 22.2925Z" fill="#94EF84"/>
<path d="M0.395874 6.75993L0.81364 2.93506L20.1776 22.299L16.1359 22.5L0.395874 6.75993Z" fill="#74EBDA"/>
<path d="M11.7282 22.3349L16.136 22.5L0.5 6.86407V11.1067L11.7282 22.3349Z" fill="#6CF4FF"/>
<path d="M7.75736 22.6067H12L0.5 11.1067V15.3493L7.75736 22.6067Z" fill="var(--mw-icon-background-medium-blue, #83CAFF)"/>
<path d="M0.674658 20L0.499878 15.3493L7.77423 22.6237L3.5 22.5062L0.674658 20Z" fill="#6582FD"/>
<path d="M8 16L1.5 17.5L5 12M8 16L10 21.5L16.5 14.5M8 16L10.5 11.5M8 16L16.5 14.5M16.5 14.5V22.5M16.5 14.5L22.5 16.5M16.5 14.5L19.5 7.5M16.5 14.5L11 8.5M11 8.5L22 3M11 8.5L15.5 0.5M11 8.5L9.5 0.5M11 8.5L2 1.5M11 8.5L10.5 11.5M17.5 5.5L22.5 10.5M10.5 11.5L5 12M5 12L0.5 9.5M5 12L6 4.60106" stroke="var(--mw-icon-glyph-content-dark-gray, #333333)" stroke-linecap="round"/>
<path d="M0.5 18.5V4.5C0.5 2.29086 2.29086 0.5 4.5 0.5H18.5C20.7091 0.5 22.5 2.29086 22.5 4.5V18.5C22.5 20.7091 20.7091 22.5 18.5 22.5H4.5C2.29086 22.5 0.5 20.7091 0.5 18.5Z" stroke="#B7312C" stroke-linecap="round"/>

</svg>
