<svg width="24" height="24" viewBox="0 0 24 24" fill="none" xmlns="http://www.w3.org/2000/svg">
<path d="M22 7H11V22H22V7Z" fill="var(--mw-icon-background-light-yellow, #FFF5BC)"/>
<path d="M11 7H1V22H11V7Z" fill="#FFCBCB"/>
<path d="M22 1H1L1 7H22L22 1Z" fill="var(--mw-icon-background-default-action, #CBFFBE)"/>
<path d="M0.5 7.49979C14.0579 7.28343 15.5 16.0899 15.5 21.9998" stroke="#0072BD"/>
<path d="M0.5 2.5C19.8684 2.19083 20.5 14.0548 20.5 22.5" stroke="#D95319"/>
<path d="M20.5 0.5H2.5C1.39543 0.5 0.5 1.39543 0.5 2.5V20.5C0.5 21.6046 1.39543 22.5 2.5 22.5H20.5C21.6046 22.5 22.5 21.6046 22.5 20.5V2.5C22.5 1.39543 21.6046 0.5 20.5 0.5Z" stroke="var(--mw-icon-border-default-gray, #616161)" stroke-linecap="round"/>
</svg>
