<svg width="24" height="24" viewBox="0 0 24 24" fill="none" xmlns="http://www.w3.org/2000/svg">
<path d="M0.5 2.5L14.5 13.5M14.5 13.5H22M14.5 13.5V21" stroke="var(--mw-icon-border-disabled-gray, #888888)" stroke-linecap="round" stroke-linejoin="round" stroke-dasharray="2 2"/>
<path d="M22.5 13.5H23C23 13.4049 22.9729 13.3118 22.9218 13.2316L22.5 13.5ZM15.9218 2.23156C15.7736 1.99859 15.4645 1.92992 15.2316 2.07817C14.9986 2.22642 14.9299 2.53547 15.0782 2.76844L15.9218 2.23156ZM14.5 21.5L14.3626 21.9808C14.4073 21.9935 14.4535 22 14.5 22V21.5ZM22.5 21.5V22C22.7761 22 23 21.7761 23 21.5H22.5ZM0.637361 17.0192C0.371843 16.9434 0.0951002 17.0971 0.019238 17.3626C-0.0566241 17.6282 0.0971219 17.9049 0.362639 17.9808L0.637361 17.0192ZM15.7481 17.0659C15.5083 16.9289 15.2029 17.0122 15.0659 17.2519C14.9289 17.4917 15.0122 17.7971 15.2519 17.9341L15.7481 17.0659ZM22.9218 13.2316L15.9218 2.23156L15.0782 2.76844L22.0782 13.7684L22.9218 13.2316ZM14.5 22H22.5V21H14.5V22ZM23 21.5V13.5H22V21.5H23ZM0.362639 17.9808L14.3626 21.9808L14.6374 21.0192L0.637361 17.0192L0.362639 17.9808ZM22.7481 21.0659L15.7481 17.0659L15.2519 17.9341L22.2519 21.9341L22.7481 21.0659Z" fill="var(--mw-icon-border-disabled-gray, #888888)"/>
<path d="M0.5 17.5V2.5H15.5V17.5H0.5Z" stroke="var(--mw-icon-borderColor-light-blue, #268CDD)" stroke-linejoin="round"/>
</svg>
