<svg width="24" height="24" viewBox="0 0 24 24" fill="none" xmlns="http://www.w3.org/2000/svg">
<path d="M0.5 20.5V2.5C0.5 1.39543 1.39543 0.5 2.5 0.5H20.5C21.6046 0.5 22.5 1.39543 22.5 2.5V20.5C22.5 21.6046 21.6046 22.5 20.5 22.5H2.5C1.39543 22.5 0.5 21.6046 0.5 20.5Z" fill="var(--mw-icon-background-default-selection, #B4DEFF)" stroke="var(--mw-icon-borderColor-light-blue, #268CDD)" stroke-linecap="round"/>
<path d="M18.5 14.5H4.5V12C4.5 10.3431 5.84315 9 7.5 9H15.5C17.1569 9 18.5 10.3431 18.5 12V14.5Z" fill="var(--mw-icon-glyph-content-red, #902623)" stroke="var(--mw-icon-glyph-content-red, #902623)"/>
<path d="M4 14H6V16.5C6 16.7761 5.77614 17 5.5 17H4.5C4.22386 17 4 16.7761 4 16.5V14Z" fill="var(--mw-icon-glyph-content-red, #902623)"/>
<path d="M17 14H19V16.5C19 16.7761 18.7761 17 18.5 17H17.5C17.2239 17 17 16.7761 17 16.5V14Z" fill="var(--mw-icon-glyph-content-red, #902623)"/>
<path d="M14.807 5.5H8.193C7.77616 5.5 7.40304 5.75857 7.25667 6.14888L6 9.5H17L15.7433 6.14888C15.597 5.75857 15.2238 5.5 14.807 5.5Z" fill="var(--mw-icon-background-default-white, #FFFFFF)" stroke="var(--mw-icon-glyph-content-red, #902623)"/>
<path d="M7 12C7 12.5523 6.55228 13 6 13C5.44772 13 5 12.5523 5 12C5 11.4477 5.44772 11 6 11C6.55228 11 7 11.4477 7 12Z" fill="white"/>
<path d="M18 12C18 12.5523 17.5523 13 17 13C16.4477 13 16 12.5523 16 12C16 11.4477 16.4477 11 17 11C17.5523 11 18 11.4477 18 12Z" fill="white"/>
</svg>
