<svg width="24" height="24" viewBox="0 0 24 24" fill="none" xmlns="http://www.w3.org/2000/svg">
<rect x="0.5" y="0.5" width="22" height="22" rx="2" fill="var(--mw-icon-background-default-white, #FFFFFF)"/>
<path d="M4.5 3.5V4.5M4.5 4.5V5.5M4.5 4.5H3.5M4.5 4.5H5.5M8.5 5.5V6.5M8.5 6.5V7.5M8.5 6.5H7.5M8.5 6.5H9.5M12.5 3.5V4.5M12.5 4.5V5.5M12.5 4.5H11.5M12.5 4.5H13.5M13.5 7.5V8.5M13.5 8.5V9.5M13.5 8.5H12.5M13.5 8.5H14.5M7.5 9.5V10.5M7.5 10.5V11.5M7.5 10.5H6.5M7.5 10.5H8.5M5.5 17.5V18.5M5.5 18.5V19.5M5.5 18.5H4.5M5.5 18.5H6.5M18.5 17.5V18.5M18.5 18.5V19.5M18.5 18.5H17.5M18.5 18.5H19.5M17.5 9.5V10.5M17.5 10.5V11.5M17.5 10.5H16.5M17.5 10.5H18.5M15.5 13.5V14.5M15.5 14.5V15.5M15.5 14.5H14.5M15.5 14.5H16.5" stroke="#1171BE" stroke-linecap="round"/>
<rect x="0.5" y="0.5" width="22" height="22" rx="2" stroke="var(--mw-icon-border-default-gray, #616161)"/>
</svg>
