<svg width="24" height="24" viewBox="0 0 24 24" fill="none" xmlns="http://www.w3.org/2000/svg">
<rect x="0.5" y="0.5" width="22" height="22" rx="2" fill="var(--mw-icon-background-default-white, #FFFFFF)"/>
<path d="M2.5 4.5C4.16667 6.16667 7.7 9.5 8.5 9.5C9.5 9.5 13 4.5 14.5 4.5C15.7 4.5 19.3333 8 20.5 9.5M2.5 7.5C3.33333 8.33333 6.1 10.4996 8.5 10.4996M8.5 10.4996C11.5 10.4996 12.5 7 14.5 7.5C16.5 8 19.5 11.5 20.5 11.5C17 11.5 15.5 10 13 10C11 10 9.33333 10.1663 8.5 10.4996ZM8.5 10.4996L2.5 10.5" stroke="#1171BE" stroke-linecap="round"/>
<path d="M2.5 11.5C2.83333 12.1667 4.9 13.5 6.5 13.5C8.5 13.5 8.5 10.5 10.5 10.5C12.5 10.5 12 11.5 13.5 12.5C14.7 13.3 18.8333 13.6667 20.5 13.5C19.1667 13 16.1 11.5 14.5 11.5C12.5 11.5 11 16.5 8.5 15.5C6.5 14.7 3.33333 11 2.5 9.5" stroke="#DD5400" stroke-linecap="round"/>
<path d="M2.5 18.5C3.33333 17.1667 6.5 15.5 8.5 15.5C11 15.5 13 13.5 14.5 13.5C16 13.5 20 15.5 20.5 15.5L2.5 14.5" stroke="#EDB120" stroke-linecap="round"/>
<path d="M2.5 0.5V22.5M8.5 0.5V22.5M14.5 0.5V22.5M20.5 0.5V22.5" stroke="var(--mw-icon-glyph-disabled-gray, #888889)" stroke-linecap="round"/>
<rect x="0.5" y="0.5" width="22" height="22" rx="2" stroke="var(--mw-icon-border-default-gray, #616161)"/>
</svg>
