<svg width="24" height="24" viewBox="0 0 24 24" fill="none" xmlns="http://www.w3.org/2000/svg">
<rect x="0.5" y="0.5" width="22" height="22" rx="2" fill="var(--mw-icon-background-default-white, #FFFFFF)"/>
<path d="M1.5 10.5H3.5V12.5H1.5V10.5Z" fill="white"/>
<path d="M3.5 8.5H5.5V10.5H3.5V8.5Z" fill="white"/>
<path d="M5.5 5.5H7.5V7.5H5.5V5.5Z" fill="white"/>
<path d="M7.5 5.5H9.5V7.5H7.5V5.5Z" fill="white"/>
<path d="M9.5 4.5H11.5V6.5H9.5V4.5Z" fill="white"/>
<path d="M12.5 2.5H14.5V4.5H12.5V2.5Z" fill="white"/>
<path d="M14.5 4.5H16.5V6.5H14.5V4.5Z" fill="white"/>
<path d="M16.5 6.5H18.5V8.5H16.5V6.5Z" fill="white"/>
<path d="M19.5 3.5H21.5V5.5H19.5V3.5Z" fill="white"/>
<path d="M3.5 10.5H1.5V12.5H3.5V10.5ZM3.5 10.5H5.5V8.5H3.5V10.5ZM7.5 5.5H5.5V7.5H7.5M7.5 5.5V7.5M7.5 5.5H9.5V7.5H7.5M14.5 4.5V2.5H12.5V4.5H14.5ZM14.5 4.5H16.5V6.5M14.5 4.5V6.5H16.5M16.5 6.5H18.5V8.5H16.5V6.5ZM9.5 4.5H11.5V6.5H9.5V4.5ZM19.5 3.5H21.5V5.5H19.5V3.5Z" stroke="#DD5400" stroke-linejoin="round"/>
<path d="M19.5 15.5H21.5V17.5H19.5V15.5Z" fill="white"/>
<path d="M16.5 17.5H18.5V19.5H16.5V17.5Z" fill="white"/>
<path d="M13.5 14.5H15.5V16.5H13.5V14.5Z" fill="white"/>
<path d="M12.5 11.5H14.5V13.5H12.5V11.5Z" fill="white"/>
<path d="M9.5 13.5H11.5V15.5H9.5V13.5Z" fill="white"/>
<path d="M7.5 15.5H9.5V17.5H7.5V15.5Z" fill="white"/>
<path d="M4.5 15.5H6.5V17.5H4.5V15.5Z" fill="white"/>
<path d="M3.5 17.5H5.5V19.5H3.5V17.5Z" fill="white"/>
<path d="M1.5 17.5H3.5V19.5H1.5V17.5Z" fill="white"/>
<path d="M9.5 15.5H11.5V13.5H9.5V15.5ZM9.5 15.5H7.5V17.5H9.5V15.5ZM3.5 17.5H5.5V19.5H3.5M3.5 17.5V19.5M3.5 17.5H1.5V19.5H3.5M19.5 15.5H21.5V17.5H19.5V15.5ZM16.5 17.5H18.5V19.5H16.5V17.5ZM13.5 14.5H15.5V16.5H13.5V14.5ZM12.5 11.5H14.5V13.5H12.5V11.5ZM4.5 15.5H6.5V17.5H4.5V15.5Z" stroke="#1171BE" stroke-linejoin="round"/>
<rect x="0.5" y="0.5" width="22" height="22" rx="2" stroke="var(--mw-icon-border-default-gray, #616161)"/>
</svg>
