<svg width="24" height="24" viewBox="0 0 24 24" fill="none" xmlns="http://www.w3.org/2000/svg">
<path d="M3.5 5.5C3.5 4.39543 4.39543 3.5 5.5 3.5H20.5C21.6046 3.5 22.5 4.39543 22.5 5.5V20.5C22.5 21.6046 21.6046 22.5 20.5 22.5H5.5C4.39543 22.5 3.5 21.6046 3.5 20.5V5.5Z" fill="var(--mw-icon-background-default-medium-gray, #D9D9D9)" stroke="var(--mw-icon-border-default-gray, #616161)" stroke-linejoin="round"/>
<path d="M0.5 2.5C0.5 1.39543 1.39543 0.5 2.5 0.5H17.5C18.6046 0.5 19.5 1.39543 19.5 2.5V17.5C19.5 18.6046 18.6046 19.5 17.5 19.5H2.5C1.39543 19.5 0.5 18.6046 0.5 17.5V2.5Z" fill="var(--mw-icon-background-default-white, #FFFFFF)"/>
<path d="M0.5 10C3.52273 17.3333 6.97727 17.3333 10 10C13.0227 2.66667 16.4773 2.66667 19.5 10" stroke="#0072BD" stroke-linecap="round" stroke-linejoin="round"/>
<path d="M0.5 2.5C0.5 1.39543 1.39543 0.5 2.5 0.5H17.5C18.6046 0.5 19.5 1.39543 19.5 2.5V17.5C19.5 18.6046 18.6046 19.5 17.5 19.5H2.5C1.39543 19.5 0.5 18.6046 0.5 17.5V2.5Z" stroke="var(--mw-icon-border-default-gray, #616161)" stroke-linejoin="round"/>
</svg>
