<svg width="24" height="24" viewBox="0 0 24 24" fill="none" xmlns="http://www.w3.org/2000/svg">
<rect x="0.395874" y="0.395844" width="18.2083" height="18.2083" rx="1" fill="var(--mw-icon-background-default-white, #FFFFFF)"/>
<path d="M2.5 18.5C2.5 6.25706 8.09523 3.5 18.5 3.5" stroke="#0072BD"/>
<rect x="0.5" y="0.5" width="18" height="18" rx="1" stroke="var(--mw-icon-border-default-gray, #616161)" stroke-linejoin="round"/>
<path d="M9.5 15.5C9.5 14.9477 9.94772 14.5 10.5 14.5H22.5C23.0523 14.5 23.5 14.9477 23.5 15.5V22.5C23.5 23.0523 23.0523 23.5 22.5 23.5H10.5C9.94772 23.5 9.5 23.0523 9.5 22.5V15.5Z" fill="var(--mw-icon-background-default-medium-gray, #D9D9D9)" stroke="var(--mw-icon-border-default-gray, #616161)" stroke-linejoin="round"/>
<path d="M10.5 12.5C10.5 11.9477 10.9477 11.5 11.5 11.5L14.5 11.5C15.0523 11.5 15.5 11.9477 15.5 12.5V14.5L10.5 14.5V12.5Z" fill="var(--mw-icon-background-default-medium-gray, #D9D9D9)" stroke="var(--mw-icon-border-default-gray, #616161)" stroke-linejoin="round"/>
<path d="M17.5 12.5C17.5 11.9477 17.9477 11.5 18.5 11.5L21.5 11.5C22.0523 11.5 22.5 11.9477 22.5 12.5V14.5L17.5 14.5V12.5Z" fill="var(--mw-icon-background-default-medium-gray, #D9D9D9)" stroke="var(--mw-icon-border-default-gray, #616161)" stroke-linejoin="round"/>
</svg>
