<svg width="24" height="24" viewBox="0 0 24 24" fill="none" xmlns="http://www.w3.org/2000/svg">
<path d="M20 17.5C20 18.8807 18.8807 20 17.5 20C16.1193 20 15 18.8807 15 17.5C15 16.1193 16.1193 15 17.5 15C18.8807 15 20 16.1193 20 17.5Z" fill="var(--mw-icon-object-primary, #616160)"/>
<path d="M14 6.5C14 7.88071 12.8807 9 11.5 9C10.1193 9 9 7.88071 9 6.5C9 5.11929 10.1193 4 11.5 4C12.8807 4 14 5.11929 14 6.5Z" fill="var(--mw-icon-object-primary, #616160)"/>
<path d="M8 17.5C8 18.8807 6.88071 20 5.5 20C4.11929 20 3 18.8807 3 17.5C3 16.1193 4.11929 15 5.5 15C6.88071 15 8 16.1193 8 17.5Z" fill="var(--mw-icon-object-primary, #616160)"/>
</svg>
