<svg width="24" height="24" viewBox="0 0 24 24" fill="none" xmlns="http://www.w3.org/2000/svg">
<path d="M0.5 2.5C0.5 1.39543 1.39543 0.5 2.5 0.5H20.5C21.6046 0.5 22.5 1.39543 22.5 2.5V20.5C22.5 21.6046 21.6046 22.5 20.5 22.5H2.5C1.39543 22.5 0.5 21.6046 0.5 20.5V2.5Z" fill="var(--mw-icon-background-default-white, #FFFFFF)" stroke="var(--mw-icon-border-default-gray, #616161)"/>
<path d="M11.5027 20.5V2.5M2.5 11.5H20.5" stroke="var(--mw-icon-glyph-content-gray, #616162)" stroke-linecap="round"/>
<path d="M15.1537 15.1537C19.0832 11.2241 20.6329 6.40283 18.615 4.38496C16.5972 2.3671 11.7759 3.9168 7.84633 7.84633C3.9168 11.7759 2.3671 16.5972 4.38496 18.615C6.40283 20.6329 11.2241 19.0832 15.1537 15.1537Z" stroke="var(--mw-icon-glyph-content-gray, #616162)" stroke-miterlimit="10" stroke-linecap="round"/>
<path d="M6.44922 6.55228L9.94922 6.01611L9.32761 9.51611L6.44922 6.55228Z" fill="var(--mw-icon-glyph-content-gray, #616162)"/>
<path d="M16.7462 16.0604L13.2411 16.725L13.9546 13.2303L16.7462 16.0604Z" fill="var(--mw-icon-glyph-content-gray, #616162)"/>
</svg>
