<svg width="24" height="24" viewBox="0 0 24 24" fill="none" xmlns="http://www.w3.org/2000/svg">
<path d="M7.5 12.5H23.5V21.5C23.5 22.0523 23.0523 22.5 22.5 22.5H8.5C7.94772 22.5 7.5 22.0523 7.5 21.5V12.5Z" fill="#F5FAFF" stroke="var(--mw-icon-border-default-blue, #1656A7)"/>
<path d="M12.5 14.5H18.5" stroke="var(--mw-icon-glyph-content-blue, #1656A8)" stroke-linecap="round"/>
<path d="M7.5 9.5C7.5 8.94772 7.94772 8.5 8.5 8.5H22.5C23.0523 8.5 23.5 8.94772 23.5 9.5V12.5H7.5V9.5Z" fill="#F5FAFF" stroke="var(--mw-icon-border-default-blue, #1656A7)" stroke-linejoin="round"/>
<path d="M0.5 1.5C0.5 0.947715 0.947715 0.5 1.5 0.5H9.5C10.0523 0.5 10.5 0.947715 10.5 1.5V9.5C10.5 10.0523 10.0523 10.5 9.5 10.5H1.5C0.947715 10.5 0.5 10.0523 0.5 9.5V1.5Z" fill="var(--mw-icon-background-default-white, #FFFFFF)" stroke="var(--mw-icon-border-default-gray, #616161)"/>
<path d="M3.33854 3.00126H2.18538C2.15513 2.99768 2.12438 3.00177 2.09658 3.01306C2.06877 3.02436 2.04502 3.0424 2.02798 3.06518C2.01094 3.08796 2.00129 3.11456 2.00012 3.142C1.99895 3.16945 2.0063 3.19664 2.02135 3.22052L3.18445 5.01046L3.96482 3.8291L3.46777 3.07285C3.45456 3.05217 3.43582 3.03479 3.41325 3.02229C3.39068 3.00978 3.365 3.00255 3.33854 3.00126Z" fill="#B7312C"/>
<path d="M4.24315 4.2721L3.48267 5.46688L3.80078 5.95464L4.56127 4.76433L4.24315 4.2721Z" fill="#F2A900"/>
<path d="M7.52372 3.07747L5.64487 6.00402C5.62977 6.02624 5.60858 6.04459 5.58335 6.05733C5.55811 6.07006 5.52966 6.07675 5.50073 6.07675C5.4718 6.07675 5.44335 6.07006 5.41811 6.05733C5.39287 6.04459 5.37169 6.02624 5.35658 6.00402L4.85953 5.2075L4.0891 6.40228L5.36155 8.37122C5.376 8.3935 5.39668 8.41199 5.42154 8.42484C5.44639 8.43768 5.47455 8.44444 5.50321 8.44444C5.53187 8.44444 5.56003 8.43768 5.58489 8.42484C5.60974 8.41199 5.63042 8.3935 5.64487 8.37122L8.98008 3.22514C8.99363 3.20229 9.00048 3.1767 8.99997 3.1508C8.99947 3.1249 8.99163 3.09955 8.97719 3.07714C8.96275 3.05474 8.9422 3.03602 8.91748 3.02276C8.89276 3.00951 8.8647 3.00215 8.83594 3.0014H7.6629C7.63401 3.00057 7.60547 3.00732 7.58076 3.02082C7.55605 3.03433 7.53623 3.05401 7.52372 3.07747Z" fill="#48A23F"/>
</svg>
