<svg width="24" height="24" viewBox="0 0 24 24" fill="none" xmlns="http://www.w3.org/2000/svg">
<path d="M0.5 2.5C0.5 1.39543 1.39543 0.5 2.5 0.5H20.5C21.6046 0.5 22.5 1.39543 22.5 2.5V20.5C22.5 21.6046 21.6046 22.5 20.5 22.5H2.5C1.39543 22.5 0.5 21.6046 0.5 20.5V2.5Z" fill="var(--mw-icon-background-default-white, #FFFFFF)"/>
<path d="M0.5 4.5C2.05407 4.7525 4.46509 5.12792 7.64589 5.35317C12.1557 5.67254 13.5685 5.35317 14.5317 6.82828C15.4948 8.30339 16.3856 17.2683 17.8905 19.2955C19.3953 21.3227 20.3459 21.2704 22 21.5" stroke="#0072BD"/>
<path d="M0.5 16.5C3.21646 16.5 2.63443 11.5 3.5 11.5C4.5398 11.5 4.80043 18.5 7 18.5C8.55406 18.5 9.34951 14.7957 9.6134 12.6564C9.83461 10.8631 10.1338 5.5 11 5.5C11.759 5.5 12.4475 10.6196 12.736 12.6564C13.0245 14.6932 13.7992 19.6767 16 21C17.491 21.8965 22 21.5 22 21.5" stroke="#D95319"/>
<path d="M1 21.5C2 21.5 7.03526 21.621 8.37369 20.1451C9.76668 18.6089 9.64727 16.5 10.5 16.5C11.3527 16.5 11.6285 19.166 12.8925 21.08C13.5 22 14.8883 22.5 16.5 22.5" stroke="#EDB120"/>
<path d="M0.5 2.5C0.5 1.39543 1.39543 0.5 2.5 0.5H20.5C21.6046 0.5 22.5 1.39543 22.5 2.5V20.5C22.5 21.6046 21.6046 22.5 20.5 22.5H2.5C1.39543 22.5 0.5 21.6046 0.5 20.5V2.5Z" stroke="var(--mw-icon-border-default-gray, #616161)" stroke-linejoin="round"/>
</svg>
