<svg width="24" height="24" viewBox="0 0 24 24" fill="none" xmlns="http://www.w3.org/2000/svg">
<path d="M0.5 17V6L11.5 0.5L22.5 6V17L11.5 22.5L0.5 17Z" fill="var(--mw-icon-background-default-white, #FFFFFF)"/>
<path d="M11.5 11.5V0.5L0.5 6V17L11.5 11.5Z" fill="var(--mw-icon-background-default-medium-gray, #D9D9D9)"/>
<path d="M11.5 11.5V0.5L22.5 6V17L11.5 11.5Z" fill="var(--mw-icon-background-default-light-gray, #F5F5F5)"/>
<path d="M8.5 9.5L12.5 7.5L18.5 11.5L15.5 14.5L13.5 17.5L9.5 14.5H3.5L6.5 11.5L8.5 9.5Z" fill="var(--mw-icon-background-default-selection, #B4DEFF)"/>
<path d="M8 9.99999L3.5 14.5H9.5L11.5 15.5C12 14 12.4 11.8 12 11C11.6 10.2 9 9.83333 8 9.99999Z" fill="var(--mw-icon-background-default-action, #CBFFBE)"/>
<path d="M6.5 11.5L3.5 14.5H9.5C9.5 14.1667 9.4 13.3 9 12.5C8.6 11.7 7.16667 11.5 6.5 11.5Z" fill="var(--mw-icon-background-medium-yellow, #FFEF91)"/>
<path d="M12.5 7.5L8.5 9.5L6.5 11.5M12.5 7.5L18.5 11.5L15.5 14.5M12.5 7.5L10.5 11.5M9.5 14.5H3.5L6.5 11.5M9.5 14.5L13.5 17.5L15.5 14.5M9.5 14.5L10.5 11.5M10.5 11.5H6.5M10.5 11.5L15.5 14.5" stroke="var(--mw-icon-glyph-content-light-blue, #278CDD)" stroke-linecap="round" stroke-linejoin="round"/>
<path d="M5 14C5 13.4477 5.44772 13 6 13C6.55228 13 7 13.4477 7 14C7 14.5523 6.55228 15 6 15C5.44772 15 5 14.5523 5 14Z" fill="var(--mw-icon-glyph-content-dark-gray, #333333)"/>
<path d="M7 13C7 12.4477 7.44772 12 8 12C8.55228 12 9 12.4477 9 13C9 13.5523 8.55228 14 8 14C7.44772 14 7 13.5523 7 13Z" fill="var(--mw-icon-glyph-content-dark-gray, #333333)"/>
<path d="M9 11C9 10.4477 9.44772 10 10 10C10.5523 10 11 10.4477 11 11C11 11.5523 10.5523 12 10 12C9.44772 12 9 11.5523 9 11Z" fill="var(--mw-icon-glyph-content-dark-gray, #333333)"/>
<path d="M11 9C11 8.44772 11.4477 8 12 8C12.5523 8 13 8.44772 13 9C13 9.55228 12.5523 10 12 10C11.4477 10 11 9.55228 11 9Z" fill="var(--mw-icon-glyph-content-dark-gray, #333333)"/>
<path d="M7 10C7 9.44772 7.44772 9 8 9C8.55228 9 9 9.44772 9 10C9 10.5523 8.55228 11 8 11C7.44772 11 7 10.5523 7 10Z" fill="var(--mw-icon-glyph-content-dark-gray, #333333)"/>
<path d="M10 13C10 12.4477 10.4477 12 11 12C11.5523 12 12 12.4477 12 13C12 13.5523 11.5523 14 11 14C10.4477 14 10 13.5523 10 13Z" fill="var(--mw-icon-glyph-content-dark-gray, #333333)"/>
<path d="M12 15C12 14.4477 12.4477 14 13 14C13.5523 14 14 14.4477 14 15C14 15.5523 13.5523 16 13 16C12.4477 16 12 15.5523 12 15Z" fill="var(--mw-icon-glyph-content-dark-gray, #333333)"/>
<path d="M11 5C11 4.44772 11.4477 4 12 4C12.5523 4 13 4.44772 13 5C13 5.55228 12.5523 6 12 6C11.4477 6 11 5.55228 11 5Z" fill="var(--mw-icon-glyph-content-dark-gray, #333333)"/>
<path d="M14 5C14 4.44772 14.4477 4 15 4C15.5523 4 16 4.44772 16 5C16 5.55228 15.5523 6 15 6C14.4477 6 14 5.55228 14 5Z" fill="var(--mw-icon-glyph-content-dark-gray, #333333)"/>
<path d="M9 7C9 6.44772 9.44772 6 10 6C10.5523 6 11 6.44772 11 7C11 7.55228 10.5523 8 10 8C9.44772 8 9 7.55228 9 7Z" fill="var(--mw-icon-glyph-content-dark-gray, #333333)"/>
<path d="M14 8C14 7.44772 14.4477 7 15 7C15.5523 7 16 7.44772 16 8C16 8.55228 15.5523 9 15 9C14.4477 9 14 8.55228 14 8Z" fill="var(--mw-icon-glyph-content-dark-gray, #333333)"/>
<path d="M13 10C13 9.44772 13.4477 9 14 9C14.5523 9 15 9.44772 15 10C15 10.5523 14.5523 11 14 11C13.4477 11 13 10.5523 13 10Z" fill="var(--mw-icon-glyph-content-dark-gray, #333333)"/>
<path d="M14 12C14 11.4477 14.4477 11 15 11C15.5523 11 16 11.4477 16 12C16 12.5523 15.5523 13 15 13C14.4477 13 14 12.5523 14 12Z" fill="var(--mw-icon-glyph-content-dark-gray, #333333)"/>
<path d="M0.5 6L11.5 0.5L22.5 6V17" stroke="var(--mw-icon-background-default-dark-gray, #A6A6A6)" stroke-linecap="round" stroke-linejoin="round"/>
<path d="M0.5 6V17L11.5 22.5L22.5 17" stroke="var(--mw-icon-border-default-gray, #616161)" stroke-linecap="round" stroke-linejoin="round"/>
</svg>
