<svg width="24" height="24" viewBox="0 0 24 24" fill="none" xmlns="http://www.w3.org/2000/svg">
<path d="M0.5 6V17L6 20.5H12H17L22.5 17V6L17 8.5H12H6L0.5 6Z" fill="var(--mw-icon-background-medium-blue, #83CAFF)"/>
<path d="M6 3.5L0.5 6L6 8.5H11.5H17L22.5 6L17 3.5H11.5H6Z" fill="var(--mw-icon-background-medium-blue, #83CAFF)"/>
<path d="M0.5 6V17L6.5 20.5M0.5 6L6.5 8.5M0.5 6L6 3.5H17L22.5 6M22.5 6V17L16.5 20.5M22.5 6L16.5 8.5M6.5 8.5V20.5M6.5 8.5H16.5M16.5 8.5V20.5M6.5 20.5H16.5" stroke="var(--mw-icon-border-default-blue, #1656A7)" stroke-linecap="round" stroke-linejoin="round"/>
</svg>
