<svg width="24" height="24" viewBox="0 0 24 24" fill="none" xmlns="http://www.w3.org/2000/svg">
<path d="M5.20684 2.00439H1.58262C1.48757 1.99191 1.39092 2.00618 1.30353 2.04559C1.21614 2.085 1.14148 2.14798 1.08793 2.22748C1.03438 2.30697 1.00406 2.39981 1.00038 2.49558C0.996702 2.59135 1.01981 2.68624 1.06711 2.7696L4.72257 9.01629L7.17516 4.89348L5.613 2.25425C5.57148 2.18208 5.51258 2.12141 5.44165 2.07778C5.37072 2.03414 5.29 2.00891 5.20684 2.00439Z" fill="#B7312C"/>
<path d="M8.04998 6.43953L5.65987 10.6092L6.65965 12.3114L9.04976 8.15737L8.04998 6.43953Z" fill="#F2A900"/>
<path d="M18.3603 2.26987L12.4553 12.4832C12.4078 12.5607 12.3412 12.6248 12.2619 12.6692C12.1826 12.7137 12.0932 12.737 12.0022 12.737C11.9113 12.737 11.8219 12.7137 11.7426 12.6692C11.6633 12.6248 11.5967 12.5607 11.5492 12.4832L9.98706 9.70343L7.56571 13.8731L11.5648 20.7444C11.6103 20.8222 11.6753 20.8867 11.7534 20.9316C11.8315 20.9764 11.92 21 12.0101 21C12.1001 21 12.1886 20.9764 12.2668 20.9316C12.3449 20.8867 12.4099 20.8222 12.4553 20.7444L22.9374 2.78522C22.98 2.70548 23.0015 2.61618 22.9999 2.5258C22.9983 2.43541 22.9737 2.34693 22.9283 2.26873C22.8829 2.19053 22.8184 2.12521 22.7407 2.07895C22.663 2.03269 22.5748 2.00702 22.4844 2.00439H18.7977C18.7069 2.00149 18.6172 2.02505 18.5395 2.07218C18.4619 2.11931 18.3996 2.188 18.3603 2.26987Z" fill="#48A23F"/>
</svg>
