<svg width="24" height="24" viewBox="0 0 24 24" fill="none" xmlns="http://www.w3.org/2000/svg">
<path d="M11.5 11C12.3284 11 13 10.3284 13 9.5L13 3.5C13 3.5 13 2 11.5 2C10 2 10 3.5 10 3.5L10 9.5C10 10.3284 10.6716 11 11.5 11Z" fill="var(--mw-icon-object-primary, #616160)"/>
<path d="M16.255 6.12861C16.7142 5.50342 17.6004 5.35757 18.1568 5.89811C19.2421 6.95257 20.0607 8.25462 20.535 9.69868C21.155 11.5861 21.155 13.6192 20.535 15.5066C19.9151 17.394 18.707 19.0388 17.084 20.2053C15.4609 21.3717 13.5062 22 11.5 22C9.4938 22 7.53909 21.3717 5.91604 20.2053C4.29299 19.0388 3.08492 17.394 2.46496 15.5066C1.84501 13.6192 1.84501 11.5861 2.46496 9.69869C2.93929 8.25462 3.7579 6.95257 4.84324 5.89811C5.39961 5.35757 6.28579 5.50342 6.74498 6.12862V6.12862C7.21093 6.76301 7.05487 7.64769 6.52888 8.23327C5.92306 8.90773 5.46048 9.70218 5.17547 10.5699C4.74151 11.8911 4.74151 13.3142 5.17547 14.6354C5.60944 15.9566 6.45509 17.1079 7.59123 17.9245C8.72737 18.741 10.0957 19.1808 11.5 19.1808C12.9043 19.1808 14.2726 18.741 15.4088 17.9245C16.5449 17.1079 17.3906 15.9566 17.8245 14.6354C18.2585 13.3142 18.2585 11.891 17.8245 10.5699C17.5395 9.70217 17.0769 8.90773 16.4711 8.23327C15.9451 7.64769 15.7891 6.76301 16.255 6.12861V6.12861Z" fill="var(--mw-icon-object-primary, #616160)"/>
</svg>
