<svg width="24" height="24" viewBox="0 0 24 24" fill="none" xmlns="http://www.w3.org/2000/svg">
<path d="M16.5 0.5H2.5C1.39543 0.5 0.5 1.39543 0.5 2.5V16.5C0.5 17.6046 1.39543 18.5 2.5 18.5H16.5C17.6046 18.5 18.5 17.6046 18.5 16.5V2.5C18.5 1.39543 17.6046 0.5 16.5 0.5Z" fill="var(--mw-icon-background-default-white, #FFFFFF)" stroke="var(--mw-icon-border-default-gray, #616161)"/>
<path d="M4.02081 18.0002V14.0002" stroke="var(--mw-icon-glyph-content-dark-gray, #333333)" stroke-width="2"/>
<path d="M10 3.021L7.02081 6.00018V9.00018L9.02081 11.0002H12.0208L15 8.021" stroke="var(--mw-icon-glyph-content-dark-gray, #333333)" stroke-width="2"/>
<path d="M4 14.0002L8 10.0002" stroke="var(--mw-icon-glyph-content-dark-gray, #333333)" stroke-width="2"/>
<circle cx="4" cy="14.0002" r="1.5" fill="white" stroke="var(--mw-icon-glyph-content-dark-gray, #333333)"/>
<path d="M9.5 11.5C9.5 10.3954 10.3954 9.5 11.5 9.5H21.5C22.6046 9.5 23.5 10.3954 23.5 11.5V21.5C23.5 22.6046 22.6046 23.5 21.5 23.5H11.5C10.3954 23.5 9.5 22.6046 9.5 21.5V11.5Z" fill="var(--mw-icon-background-light-yellow, #FFF5BC)" stroke="#674C06"/>
<path d="M14.5 20L12 23H17L14.5 20Z" fill="#674C06"/>
<path d="M14.5 14V19.5M14.5 19.5H20M14.5 19.5L20.5 13.5" stroke="var(--mw-icon-glyph-content-yellow, #674C07)" stroke-linejoin="round"/>
<path d="M19 22V17L22 19.5L19 22Z" fill="var(--mw-icon-glyph-content-yellow, #674C07)"/>
<path d="M17 14H12L14.5 11L17 14Z" fill="var(--mw-icon-glyph-content-yellow, #674C07)"/>
<path d="M21 16.5L17.5 13H21V16.5Z" fill="var(--mw-icon-glyph-content-yellow, #674C07)"/>
</svg>
