<svg width="24" height="24" viewBox="0 0 24 24" fill="none" xmlns="http://www.w3.org/2000/svg">
<path d="M0.5 5.5V2.5H22.5V5.5H0.5Z" fill="var(--mw-icon-background-default-dark-gray, #A6A6A6)"/>
<path d="M1.5 17.5V5.5H21.5V17.5H11.5H1.5Z" fill="var(--mw-icon-background-default-white, #FFFFFF)"/>
<path d="M0.5 5.5V2.5H22.5V5.5H0.5Z" stroke="var(--mw-icon-border-default-gray, #616161)" stroke-linecap="round" stroke-linejoin="round"/>
<path d="M1.5 17.5V5.5H21.5V17.5H11.5H1.5Z" stroke="var(--mw-icon-border-default-gray, #616161)" stroke-linecap="round" stroke-linejoin="round"/>
<path d="M12 17.5V17H11V17.5H12ZM4.5 21C4.22386 21 4 21.2239 4 21.5C4 21.7761 4.22386 22 4.5 22V21ZM18.5 22C18.7761 22 19 21.7761 19 21.5C19 21.2239 18.7761 21 18.5 21V22ZM11.5 21H4.5V22H11.5V21ZM11.5 22H18.5V21H11.5V22ZM11 17.5V19.5H12V17.5H11ZM11 19.5V21.5H12V19.5H11Z" fill="var(--mw-icon-object-primary, #616160)"/>
<path d="M3.5 15.5V11.5H18.5V15.5H3.5Z" fill="var(--mw-icon-background-default-selection, #B4DEFF)" stroke="var(--mw-icon-glyph-content-light-blue, #278CDD)" stroke-linecap="round" stroke-linejoin="round"/>
<path d="M3.5 9.5H13.5" stroke="var(--mw-icon-glyph-content-gray, #616162)" stroke-linecap="round" stroke-linejoin="round"/>
<path d="M3.5 7.5H7.5" stroke="var(--mw-icon-glyph-content-red, #902623)" stroke-linecap="round" stroke-linejoin="round"/>
</svg>
