<svg width="24" height="24" viewBox="0 0 24 24" fill="none" xmlns="http://www.w3.org/2000/svg">
<path d="M0.5 10.5C0.5 9.94772 0.947715 9.5 1.5 9.5H22.5C23.0523 9.5 23.5 9.94772 23.5 10.5V17.5H0.5V10.5Z" fill="var(--mw-icon-background-default-medium-gray, #D9D9D9)" stroke="var(--mw-icon-border-default-gray, #616161)" stroke-linejoin="round"/>
<path d="M17 10H21V12H17V10Z" fill="var(--mw-icon-background-default-dark-gray, #A6A6A6)"/>
<path d="M3.5 13.5H20.5V22.5C20.5 23.0523 20.0523 23.5 19.5 23.5H4.5C3.94772 23.5 3.5 23.0523 3.5 22.5V13.5Z" fill="var(--mw-icon-background-default-white, #FFFFFF)" stroke="var(--mw-icon-border-default-gray, #616161)" stroke-linejoin="round"/>
<path d="M6.5 19.5H11.5M6.5 16.5H17.5" stroke="var(--mw-icon-glyph-content-gray, #616162)" stroke-linecap="round" stroke-linejoin="round"/>
<path d="M3.5 9.5H20.5V3.91421C20.5 3.649 20.3946 3.39464 20.2071 3.20711L17.7929 0.792893C17.6054 0.605357 17.351 0.5 17.0858 0.5H4.5C3.94772 0.5 3.5 0.947715 3.5 1.5V9.5Z" fill="white" stroke="var(--mw-icon-border-default-gray, #616161)" stroke-linejoin="round"/>
</svg>
