<svg width="24" height="24" viewBox="0 0 24 24" fill="none" xmlns="http://www.w3.org/2000/svg">
<path d="M20.5 0.5H2.5C1.39543 0.5 0.5 1.39543 0.5 2.5V20.5C0.5 21.6046 1.39543 22.5 2.5 22.5H20.5C21.6046 22.5 22.5 21.6046 22.5 20.5V2.5C22.5 1.39543 21.6046 0.5 20.5 0.5Z" fill="var(--mw-icon-background-default-white, #FFFFFF)" stroke="var(--mw-icon-border-default-gray, #616161)" stroke-linecap="round"/>
<path d="M11 22L11 1" stroke="var(--mw-icon-glyph-disabled-gray, #888889)" stroke-width="2"/>
<rect x="8" y="8" width="6" height="6" fill="var(--mw-icon-background-lightest-blue, #E2F0FF)" stroke="var(--mw-icon-glyph-content-blue, #1656A8)" stroke-width="2" stroke-linejoin="round"/>
<path d="M18.5 10.4998V18.4998M4.5 12.5016L4.5 4.50164" stroke="var(--mw-icon-glyph-content-dark-blue, #104280)" stroke-linecap="round" stroke-linejoin="round"/>
<path d="M21 17.9998H16L18.5436 20.9994L21 17.9998Z" fill="var(--mw-icon-glyph-content-dark-blue, #104280)"/>
<path d="M2 5.00164H7L4.45643 2.002L2 5.00164Z" fill="var(--mw-icon-glyph-content-dark-blue, #104280)"/>
</svg>
