<svg width="24" height="24" viewBox="0 0 24 24" fill="none" xmlns="http://www.w3.org/2000/svg">
<rect x="0.5" y="0.5" width="23" height="23" rx="4" fill="var(--mw-icon-background-default-white, #FFFFFF)" stroke="var(--mw-icon-border-default-gray, #616161)"/>
<path d="M5.5 7V18" stroke="var(--mw-icon-glyph-content-blue, #1656A8)" stroke-linejoin="round"/>
<rect x="3.5" y="17.5" width="4" height="4" rx="1" fill="white" stroke="var(--mw-icon-glyph-content-green, #008014)"/>
<rect x="3.5" y="10.5" width="4" height="4" rx="1" fill="white" stroke="var(--mw-icon-glyph-content-blue, #1656A8)"/>
<path d="M3.5 4.5C3.5 3.94772 3.94772 3.5 4.5 3.5H6.5C7.05228 3.5 7.5 3.94772 7.5 4.5V6.5C7.5 7.05228 7.05228 7.5 6.5 7.5H4.5C3.94772 7.5 3.5 7.05228 3.5 6.5V4.5Z" fill="white" stroke="var(--mw-icon-glyph-content-blue, #1656A8)"/>
<path d="M10.5 16.5V7.5L17.5 12L10.5 16.5Z" fill="var(--mw-icon-background-default-action, #CBFFBE)" stroke="var(--mw-icon-glyph-content-green, #008014)" stroke-linejoin="round"/>
<path d="M12.3384 20.8531L16 16.1L17.1668 18.6819L18.3336 21.2638L12.3384 20.8531Z" fill="var(--mw-icon-glyph-content-blue, #1656A8)"/>
<path d="M16.5615 18.9291C17.5321 18.5522 18.414 17.9997 19.1569 17.3033C19.8997 16.6068 20.489 15.78 20.891 14.8701C21.2931 13.9602 21.5 12.9849 21.5 12C21.5 11.0151 21.2931 10.0398 20.891 9.12986C20.489 8.21991 19.8997 7.39312 19.1569 6.69668C18.414 6.00024 17.5321 5.44779 16.5615 5.07088C15.5909 4.69397 14.5506 4.49998 13.5 4.49998" stroke="var(--mw-icon-glyph-content-blue, #1656A8)" stroke-linecap="round" stroke-linejoin="round"/>
</svg>
