<svg width="24" height="24" viewBox="0 0 24 24" fill="none" xmlns="http://www.w3.org/2000/svg">
<path d="M0.5 13.5H23.5V21.5C23.5 22.6046 22.6046 23.5 21.5 23.5H2.5C1.39543 23.5 0.5 22.6046 0.5 21.5V13.5Z" fill="var(--mw-icon-background-default-white, #FFFFFF)" stroke="var(--mw-icon-border-default-gray, #616161)"/>
<path d="M7.5 16.5H18.5M7.5 20.5H14.5" stroke="var(--mw-icon-glyph-content-gray, #616162)" stroke-linecap="round"/>
<path d="M3.5 20.5C3.5 19.9477 3.94772 19.5 4.5 19.5V19.5C5.05228 19.5 5.5 19.9477 5.5 20.5V20.5C5.5 21.0523 5.05228 21.5 4.5 21.5V21.5C3.94772 21.5 3.5 21.0523 3.5 20.5V20.5Z" fill="var(--mw-icon-background-red, #FF9D9A)" stroke="var(--mw-icon-glyph-content-red, #902623)"/>
<path d="M3.5 16.5C3.5 15.9477 3.94772 15.5 4.5 15.5V15.5C5.05228 15.5 5.5 15.9477 5.5 16.5V16.5C5.5 17.0523 5.05228 17.5 4.5 17.5V17.5C3.94772 17.5 3.5 17.0523 3.5 16.5V16.5Z" fill="var(--mw-icon-background-default-action, #CBFFBE)" stroke="var(--mw-icon-glyph-content-green, #008014)"/>
<path d="M0.5 13.5H23.5V2.5C23.5 1.39543 22.6046 0.5 21.5 0.5H2.5C1.39543 0.5 0.5 1.39543 0.5 2.5V13.5Z" fill="white" stroke="var(--mw-icon-border-default-gray, #616161)"/>
<path d="M18.5 5.5V3.5H21.5V5.5H18.5Z" fill="var(--mw-icon-background-default-medium-gray, #D9D9D9)"/>
<path d="M11.5 7.5V5.5H13.5V7.5H11.5Z" fill="var(--mw-icon-background-default-medium-gray, #D9D9D9)"/>
<path d="M9.5 9.5V7.5H13.5V9.5H9.5Z" fill="var(--mw-icon-background-default-medium-gray, #D9D9D9)"/>
<path d="M13.5 7.5V5.5H11.5V7.5H13.5ZM13.5 7.5H9.5V9.5H13.5V7.5ZM18.5 5.5V3.5H21.5V5.5H18.5Z" stroke="var(--mw-icon-border-default-gray, #616161)" stroke-linecap="square" stroke-linejoin="round"/>
<path d="M2.5 11.5V9.5H9.5V11.5H2.5Z" fill="var(--mw-icon-background-default-selection, #B4DEFF)"/>
<path d="M13.5 11.5V9.5H21.5V11.5H13.5Z" fill="var(--mw-icon-background-default-selection, #B4DEFF)"/>
<path d="M15.5 9.5V7.5H21.5V9.5H15.5Z" fill="var(--mw-icon-background-default-selection, #B4DEFF)"/>
<path d="M17.5 7.5V5.5H21.5V7.5H17.5Z" fill="var(--mw-icon-background-default-selection, #B4DEFF)"/>
<path d="M4.5 9.5V7.5H9.5V9.5H4.5Z" fill="var(--mw-icon-background-default-selection, #B4DEFF)"/>
<path d="M6.5 7.5V5.5H9.5V7.5H6.5Z" fill="var(--mw-icon-background-default-selection, #B4DEFF)"/>
<path d="M9.5 11.5V9.5H13.5V11.5H9.5Z" fill="var(--mw-icon-background-default-selection, #B4DEFF)"/>
<path d="M7.5 5.5V3.5H9.5V5.5H7.5Z" fill="var(--mw-icon-background-default-selection, #B4DEFF)"/>
<path d="M9.5 9.5H2.5V11.5H9.5M9.5 9.5V11.5M9.5 9.5V7.5M9.5 9.5H4.5V7.5H9.5M9.5 9.5H13.5M9.5 11.5H13.5M13.5 11.5V9.5M13.5 11.5H21.5V9.5M13.5 9.5H21.5M21.5 9.5V7.5M21.5 9.5H15.5V7.5H21.5M21.5 7.5V5.5H17.5V7.5H21.5ZM9.5 7.5V5.5M9.5 7.5H6.5V5.5H9.5M9.5 5.5V3.5H7.5V5.5H9.5Z" stroke="var(--mw-icon-border-default-blue, #1656A7)" stroke-linecap="square" stroke-linejoin="round"/>
</svg>
