<svg width="24" height="24" viewBox="0 0 24 24" fill="none" xmlns="http://www.w3.org/2000/svg">
<path d="M1.5 5.5H22.5V18.5C22.5 19.0523 22.0523 19.5 21.5 19.5H2.5C1.94772 19.5 1.5 19.0523 1.5 18.5V5.5Z" fill="var(--mw-icon-background-lightest-blue, #E2F0FF)" stroke="var(--mw-icon-border-default-blue, #1656A7)"/>
<path d="M0.5 1.5C0.5 0.947715 0.947715 0.5 1.5 0.5H22.5C23.0523 0.5 23.5 0.947715 23.5 1.5V5.5H0.5V1.5Z" fill="var(--mw-icon-background-lightest-blue, #E2F0FF)"/>
<path d="M23.5 5.5V6C23.7761 6 24 5.77614 24 5.5H23.5ZM0.5 5.5H0C0 5.77614 0.223858 6 0.5 6L0.5 5.5ZM1.5 1H22.5V0H1.5V1ZM23 1.5V5.5H24V1.5H23ZM23.5 5H0.5V6H23.5V5ZM1 5.5V1.5H0V5.5H1ZM22.5 1C22.7761 1 23 1.22386 23 1.5H24C24 0.671573 23.3284 0 22.5 0V1ZM1.5 0C0.671573 0 0 0.671573 0 1.5H1C1 1.22386 1.22386 1 1.5 1V0Z" fill="var(--mw-icon-border-default-blue, #1656A7)"/>
<path d="M10 6H14V17H10V6Z" fill="var(--mw-icon-glyph-content-dark-gray, #333333)"/>
<path d="M11 6H12V7H11V6Z" fill="var(--mw-icon-background-default-medium-gray, #D9D9D9)"/>
<path d="M12 7H13V8H12V7Z" fill="var(--mw-icon-background-default-medium-gray, #D9D9D9)"/>
<path d="M11 8H12V9H11V8Z" fill="var(--mw-icon-background-default-medium-gray, #D9D9D9)"/>
<path d="M11 10H12V11H11V10Z" fill="var(--mw-icon-background-default-medium-gray, #D9D9D9)"/>
<path d="M12 11H13V12H12V11Z" fill="var(--mw-icon-background-default-medium-gray, #D9D9D9)"/>
<path d="M12 9H13V10H12V9Z" fill="var(--mw-icon-background-default-medium-gray, #D9D9D9)"/>
<path d="M11 12H12V13H11V12Z" fill="var(--mw-icon-background-default-medium-gray, #D9D9D9)"/>
<path d="M11 14H12V15H11V14Z" fill="var(--mw-icon-background-default-medium-gray, #D9D9D9)"/>
<path d="M12 13H13V14H12V13Z" fill="var(--mw-icon-background-default-medium-gray, #D9D9D9)"/>
<path d="M12 15H13V16H12V15Z" fill="var(--mw-icon-background-default-medium-gray, #D9D9D9)"/>
<path d="M9.5 22.5V17.5C9.5 16.9477 9.94772 16.5 10.5 16.5H13.5C14.0523 16.5 14.5 16.9477 14.5 17.5V22.5C14.5 23.0523 14.0523 23.5 13.5 23.5H10.5C9.94772 23.5 9.5 23.0523 9.5 22.5Z" fill="var(--mw-icon-background-default-medium-gray, #D9D9D9)" stroke="var(--mw-icon-border-default-gray, #616161)" stroke-linecap="round"/>
<rect x="11" y="21" width="2" height="1" fill="var(--mw-icon-glyph-disabled-gray, #888889)"/>
</svg>
