<svg width="24" height="24" viewBox="0 0 24 24" fill="none" xmlns="http://www.w3.org/2000/svg">
<path d="M0.5 7.5H18.5V15.5C18.5 17.1569 17.1569 18.5 15.5 18.5H3.5C1.84315 18.5 0.5 17.1569 0.5 15.5V7.5Z" fill="var(--mw-icon-background-lightest-blue, #E2F0FF)"/>
<path d="M18.5 12.4999C14.6083 16.4999 11.2166 16.4999 7.32485 12.4999C4.88324 9.99034 2.94162 8.86053 0.5 9.49991" stroke="var(--mw-icon-glyph-content-light-blue, #278CDD)" stroke-linecap="round"/>
<path d="M0.5 12.5C4.39086 8.5 7.78172 8.5 11.6726 12.5C14.1151 15.011 15.5575 16.1415 18 15.5" stroke="var(--mw-icon-glyph-content-blue, #1656A8)" stroke-linecap="round"/>
<path d="M0.5 7.5H18.5V15.5C18.5 17.1569 17.1569 18.5 15.5 18.5H3.5C1.84315 18.5 0.5 17.1569 0.5 15.5V7.5Z" stroke="var(--mw-icon-border-default-blue, #1656A7)" stroke-linejoin="round"/>
<path d="M0.5 3.5C0.5 1.84315 1.84315 0.5 3.5 0.5H15.5C17.1569 0.5 18.5 1.84315 18.5 3.5V7.5H0.5V3.5Z" fill="var(--mw-icon-background-default-white, #FFFFFF)" stroke="var(--mw-icon-border-default-blue, #1656A7)"/>
<path d="M2 3.5C2 3.22386 2.22386 3 2.5 3H4.5C4.77614 3 5 3.22386 5 3.5V7H2V3.5Z" fill="var(--mw-icon-glyph-content-blue, #1656A8)"/>
<path d="M6 5.5C6 5.22386 6.22386 5 6.5 5H8.5C8.77614 5 9 5.22386 9 5.5V7H6V5.5Z" fill="var(--mw-icon-glyph-content-light-blue, #278CDD)"/>
<path d="M10 2.5C10 2.22386 10.2239 2 10.5 2H12.5C12.7761 2 13 2.22386 13 2.5V7H10V2.5Z" fill="var(--mw-icon-glyph-content-blue, #1656A8)"/>
<path d="M14 4.5C14 4.22386 14.2239 4 14.5 4H16.5C16.7761 4 17 4.22386 17 4.5V7H14V4.5Z" fill="var(--mw-icon-glyph-content-light-blue, #278CDD)"/>
<path d="M11.5 15.5H22.5V23C22.5 23.2761 22.2761 23.5 22 23.5H12C11.7239 23.5 11.5 23.2761 11.5 23V15.5Z" fill="#F5FAFF" stroke="var(--mw-icon-border-default-blue, #1656A7)"/>
<rect x="15" y="17" width="4" height="1" fill="var(--mw-icon-glyph-content-blue, #1656A8)"/>
<path d="M10.5 13C10.5 12.7239 10.7239 12.5 11 12.5H23C23.2761 12.5 23.5 12.7239 23.5 13V15.5H10.5V13Z" fill="#F5FAFF" stroke="var(--mw-icon-border-default-blue, #1656A7)" stroke-linejoin="round"/>
</svg>
