<svg width="24" height="24" viewBox="0 0 24 24" fill="none" xmlns="http://www.w3.org/2000/svg">
<path d="M7.5 12.5H23.5V21.5C23.5 22.0523 23.0523 22.5 22.5 22.5H8.5C7.94772 22.5 7.5 22.0523 7.5 21.5V12.5Z" fill="var(--mw-icon-background-default-selection, #B4DEFF)" stroke="var(--mw-icon-border-default-blue, #1656A7)"/>
<path d="M7.5 9.5C7.5 8.94772 7.94772 8.5 8.5 8.5H22.5C23.0523 8.5 23.5 8.94772 23.5 9.5V12.5H7.5V9.5Z" fill="var(--mw-icon-background-default-selection, #B4DEFF)" stroke="var(--mw-icon-border-default-blue, #1656A7)" stroke-linejoin="round"/>
<path fill-rule="evenodd" clip-rule="evenodd" d="M8.96607 1.32589C8.7219 1.60672 8.49872 2.12253 8.35974 3.0799C8.30412 3.46305 8.13954 3.89555 7.93731 4.31921C7.73206 4.7492 7.47398 5.19866 7.20975 5.62228C6.68118 6.46972 6.11295 7.23762 5.85366 7.57847C5.61772 7.88862 5.13494 8.33502 4.66335 8.74396C4.35921 9.0077 4.04391 9.2692 3.771 9.49011C3.88197 9.5624 3.98944 9.63287 4.09215 9.70079C4.76203 10.1438 5.25807 10.8547 5.64153 11.5203C5.83582 11.8576 6.00863 12.1969 6.16246 12.4999L6.1699 12.5145C6.25005 12.6723 6.32401 12.818 6.39365 12.95C6.57815 12.845 6.80434 12.6808 7.05492 12.4501C7.45103 12.0855 8.3911 10.9488 8.9597 10.1637C9.29292 9.70357 9.75324 9.34686 10.2165 9.10511C10.6756 8.86557 11.174 8.72009 11.6 8.72009C11.9529 8.72009 12.3702 8.87771 12.715 9.03956C12.1771 7.47793 11.452 5.3286 11.2028 4.42861C11.014 3.74688 10.688 2.81948 10.3226 2.0704C10.139 1.69387 9.95469 1.38186 9.7842 1.17064C9.69899 1.06508 9.6282 0.998551 9.57499 0.961336C9.54958 0.943565 9.53378 0.936302 9.52679 0.933594C9.47541 0.93728 9.36581 0.973442 9.19449 1.11243C9.17257 1.13022 9.15045 1.14902 9.12818 1.16877L9.13047 1.17182C9.11557 1.18294 9.10071 1.19473 9.08588 1.20724C9.04631 1.24409 9.00633 1.28376 8.96607 1.32589Z" fill="#F57729"/>
<path fill-rule="evenodd" clip-rule="evenodd" d="M3.00298 8.99514C3.30974 8.75096 3.71234 8.42132 4.09522 8.0893C4.29052 7.91995 4.47448 7.75523 4.63574 7.60407L3.78346 6.98623C3.7814 6.98733 3.77937 6.98842 3.77738 6.98948C3.69356 7.03425 3.58891 7.08517 3.47179 7.13948C3.23665 7.24853 2.93299 7.37969 2.60582 7.51635C2.23011 7.67328 1.81856 7.83947 1.43555 7.99084C1.74616 8.19237 2.10536 8.4217 2.4755 8.65802C2.6502 8.76956 2.82737 8.88268 3.00298 8.99514ZM4.44592 6.39603L5.2308 6.965C5.50461 6.60134 6.00699 5.91256 6.47407 5.16373C6.72837 4.75603 6.96844 4.33648 7.15484 3.94598C7.1883 3.87588 7.21961 3.80758 7.2487 3.74121C7.19128 3.80807 7.13286 3.87438 7.07443 3.93912C6.75787 4.28987 6.3893 4.65209 6.11481 4.83298C5.65387 5.13675 5.3012 5.3833 5.07799 5.68C4.9317 5.87446 4.6779 6.15309 4.44592 6.39603Z" fill="#068CFC"/>
<path d="M0.5 7.88906L0.322231 7.42173C0.149021 7.48762 0.0264605 7.6439 0.00376406 7.82782C-0.0189323 8.01174 0.0619588 8.19313 0.213954 8.29915L0.5 7.88906ZM3.7193 6.5147L4.0668 6.87421L4.0668 6.87421L3.7193 6.5147ZM4.73113 5.41943L4.33158 5.11884L4.33158 5.11884L4.73113 5.41943ZM7.49056 2.693L7.05439 2.44856L7.05439 2.44856L7.49056 2.693ZM9.14969 1.1722C9.36709 1.00192 9.40529 0.687655 9.23501 0.470258C9.06474 0.252862 8.75047 0.214663 8.53307 0.384937L9.14969 1.1722ZM0.677769 8.35639C1.21008 8.1539 1.97498 7.85179 2.63094 7.5778C2.95841 7.44102 3.26298 7.30947 3.49926 7.1999C3.61688 7.14535 3.72281 7.09385 3.80822 7.04822C3.87205 7.01412 3.98596 6.95234 4.0668 6.87421L3.3718 6.15519C3.40767 6.12053 3.42025 6.12174 3.33706 6.16617C3.27546 6.19908 3.18867 6.24164 3.07855 6.2927C2.85937 6.39435 2.56837 6.52021 2.24551 6.65506C1.60081 6.92435 0.845997 7.22249 0.322231 7.42173L0.677769 8.35639ZM4.0668 6.87421C4.29244 6.6561 4.87339 6.06203 5.13069 5.72002L4.33158 5.11884C4.12603 5.39206 3.59584 5.93864 3.3718 6.15519L4.0668 6.87421ZM5.13069 5.72002C5.34579 5.43409 5.68825 5.1935 6.15092 4.88859L5.60065 4.0536C5.16395 4.3414 4.66827 4.67129 4.33158 5.11884L5.13069 5.72002ZM6.15092 4.88859C6.43305 4.70266 6.80643 4.33486 7.12334 3.98373C7.44279 3.62977 7.76537 3.22538 7.92674 2.93743L7.05439 2.44856C6.95003 2.63478 6.69006 2.97126 6.38098 3.31373C6.06936 3.65901 5.7682 3.94318 5.60065 4.0536L6.15092 4.88859ZM3.5511 9.20324C3.01414 8.84813 2.47647 8.5252 1.99807 8.23778C1.51336 7.94656 1.09945 7.69757 0.786046 7.47896L0.213954 8.29915C0.56145 8.54153 1.00864 8.80993 1.48307 9.09497C1.96382 9.3838 2.48334 9.696 2.99948 10.0373L3.5511 9.20324ZM3.45648 6.83197L4.84642 7.83957L5.43335 7.02993L4.04341 6.02233L3.45648 6.83197ZM7.92674 2.93743C8.04186 2.73202 8.20294 2.41041 8.42783 2.05226C8.65359 1.69273 8.90345 1.36506 9.14969 1.1722L8.53307 0.384937C8.14608 0.688048 7.82171 1.13706 7.58095 1.52048C7.33933 1.90528 7.14162 2.2929 7.05439 2.44856L7.92674 2.93743Z" fill="#004A88"/>
<path d="M11.6195 4.31305C11.2312 2.91031 10.3618 0.5 9.51757 0.5C8.67331 0.5 8.23395 1.54645 7.92996 3.01775C7.66935 4.27907 6.01884 6.64448 5.50784 7.31622C5.09903 7.85361 3.7159 8.98897 3.07544 9.48947L3.85222 10.0623C5.01732 10.8328 5.6714 12.6109 6.20285 13.5C6.50945 13.421 6.91826 13.1641 7.34751 12.769C7.77675 12.3739 8.73744 11.2082 9.30977 10.4179C9.8821 9.62765 10.9246 9.15348 11.5991 9.15348C12.1387 9.15348 13.0912 9.70668 13.5 9.98327C13.0026 8.56078 11.9302 5.43524 11.6195 4.31305Z" stroke="#923800" stroke-linejoin="round"/>
<path d="M15 13H16.5C16.7761 13 17 13.2239 17 13.5C17 13.7761 16.7761 14 16.5 14H16V15H16.5C16.7761 15 17 15.2239 17 15.5C17 15.7761 16.7761 16 16.5 16H16V17H16.5C16.7761 17 17 17.2239 17 17.5C17 17.7761 16.7761 18 16.5 18H16V19H16.5C16.7761 19 17 19.2239 17 19.5C17 19.7761 16.7761 20 16.5 20H15V19H14.5C14.2239 19 14 18.7761 14 18.5C14 18.2239 14.2239 18 14.5 18H15V17H14.5C14.2239 17 14 16.7761 14 16.5C14 16.2239 14.2239 16 14.5 16H15V15H14.5C14.2239 15 14 14.7761 14 14.5C14 14.2239 14.2239 14 14.5 14H15V13Z" fill="var(--mw-icon-glyph-content-gray, #616162)"/>
<path d="M14 16.5C14 16.2239 14.2239 16 14.5 16H16V17H16.5C16.7761 17 17 17.2239 17 17.5C17 17.7761 16.7761 18 16.5 18H16V19H16.5C16.7761 19 17 19.2239 17 19.5C17 19.7761 16.7761 20 16.5 20H16V21H16.5C16.7761 21 17 21.2239 17 21.5C17 21.7761 16.7761 22 16.5 22H15V21H14.5C14.2239 21 14 20.7761 14 20.5C14 20.2239 14.2239 20 14.5 20H15V19H14.5C14.2239 19 14 18.7761 14 18.5C14 18.2239 14.2239 18 14.5 18H15V17H14.5C14.2239 17 14 16.7761 14 16.5Z" fill="var(--mw-icon-glyph-content-gray, #616162)"/>
<path d="M16.5 19.5H14.5V23C14.5 23.2761 14.7239 23.5 15 23.5H16C16.2761 23.5 16.5 23.2761 16.5 23V19.5Z" fill="var(--mw-icon-background-default-medium-gray, #D9D9D9)" stroke="var(--mw-icon-glyph-content-dark-gray, #333333)" stroke-linejoin="round"/>
<rect x="15" y="20" width="1" height="1" fill="var(--mw-icon-background-default-dark-gray, #A6A6A6)"/>
</svg>
