<svg width="24" height="24" viewBox="0 0 24 24" fill="none" xmlns="http://www.w3.org/2000/svg">
<path d="M0.5 20.5C0.5 21.6046 1.39543 22.5 2.5 22.5H14.5V4.5H0.5V20.5Z" fill="var(--mw-sidebar-icon-fill-de-emphasized, #D9D9D9)" stroke="var(--mw-sidebar-icon-stroke-de-emphasized, #888888)"/>
<path d="M0.5 2.5C0.5 1.39543 1.39543 0.5 2.5 0.5H20.5C21.6046 0.5 22.5 1.39543 22.5 2.5V4.5H0.5V2.5Z" fill="var(--mw-sidebar-icon-fill-de-emphasized, #D9D9D9)" stroke="var(--mw-sidebar-icon-stroke-de-emphasized, #888888)"/>
<path d="M14.5 22.5H20.5C21.6046 22.5 22.5 21.6046 22.5 20.5V4.5H14.5V22.5Z" fill="var(--mw-sidebar-icon-fill, #ffffff)" stroke="var(--mw-sidebar-icon-stroke, #616161)"/>
<path d="M16.5 7.5H20.5M16.5 9.5H19.5M16.5 11.5H18.5M16.5 13.5H19.5M16.5 17.5H20.5M16.5 19.5H19.5" stroke="var(--mw-sidebar-icon-stroke, #616161)" stroke-linecap="round"/>
</svg>
