<svg width="24" height="24" viewBox="0 0 24 24" fill="none" xmlns="http://www.w3.org/2000/svg">
<path fill-rule="evenodd" clip-rule="evenodd" d="M9.68913 1.21944C9.93962 0.774096 10.4009 0.5 10.9 0.5H22.1C22.5991 0.5 23.0604 0.774096 23.3109 1.21944C23.5614 1.66478 23.5631 2.21403 23.3155 2.66109L17.7155 12.7722C17.4663 13.2223 17.0024 13.5 16.5 13.5C15.9976 13.5 15.5337 13.2223 15.2845 12.7722L9.68446 2.66109C9.43686 2.21403 9.43864 1.66478 9.68913 1.21944ZM13.5 3.5L16.5 9.5L19.5 3.5H13.5Z" fill="#E6BFFF" stroke="#8516D1" stroke-linejoin="round"/>
<path fill-rule="evenodd" clip-rule="evenodd" d="M7.5 23.5C11.366 23.5 14.5 20.366 14.5 16.5C14.5 12.634 11.366 9.5 7.5 9.5C3.63401 9.5 0.5 12.634 0.5 16.5C0.5 20.366 3.63401 23.5 7.5 23.5ZM7.5 20.5C9.70914 20.5 11.5 18.7091 11.5 16.5C11.5 14.2909 9.70914 12.5 7.5 12.5C5.29086 12.5 3.5 14.2909 3.5 16.5C3.5 18.7091 5.29086 20.5 7.5 20.5Z" fill="var(--mw-icon-background-red, #FF9D9A)"/>
<path d="M14 16.5C14 20.0899 11.0899 23 7.5 23V24C11.6421 24 15 20.6421 15 16.5H14ZM7.5 10C11.0899 10 14 12.9101 14 16.5H15C15 12.3579 11.6421 9 7.5 9V10ZM1 16.5C1 12.9101 3.91015 10 7.5 10V9C3.35786 9 0 12.3579 0 16.5H1ZM7.5 23C3.91015 23 1 20.0899 1 16.5H0C0 20.6421 3.35786 24 7.5 24V23ZM11 16.5C11 18.433 9.433 20 7.5 20V21C9.98528 21 12 18.9853 12 16.5H11ZM7.5 13C9.433 13 11 14.567 11 16.5H12C12 14.0147 9.98528 12 7.5 12V13ZM4 16.5C4 14.567 5.567 13 7.5 13V12C5.01472 12 3 14.0147 3 16.5H4ZM7.5 20C5.567 20 4 18.433 4 16.5H3C3 18.9853 5.01472 21 7.5 21V20Z" fill="var(--mw-icon-border-default-red, #902622)"/>
</svg>
