<svg width="24" height="24" viewBox="0 0 24 24" fill="none" xmlns="http://www.w3.org/2000/svg">
<path d="M20.4865 12.0152C20.4531 12.2867 20.2346 12.5074 19.9611 12.5074H18.696C18.4177 12.5074 18.191 12.2799 18.2084 12.0021C18.2282 11.6871 18.2636 11.4042 18.3147 11.1532C18.3975 10.7688 18.5366 10.4223 18.732 10.1136C18.9332 9.80488 19.1996 9.4991 19.5311 9.19624C19.8093 8.95161 20.052 8.71864 20.2592 8.49731C20.4663 8.27599 20.6291 8.04884 20.7475 7.81586C20.8659 7.57706 20.9251 7.31205 20.9251 7.02083C20.9251 6.68302 20.8718 6.40345 20.7653 6.18212C20.6646 5.95497 20.5107 5.78315 20.3036 5.66667C20.1023 5.55018 19.8478 5.49194 19.54 5.49194C19.2854 5.49194 19.0486 5.54727 18.8296 5.65793C18.6106 5.76277 18.4301 5.92585 18.288 6.14718C18.2197 6.25828 18.1677 6.38698 18.1322 6.5333C18.0678 6.79855 17.856 7.02083 17.583 7.02083H16.0113C15.7308 7.02083 15.5017 6.7894 15.5366 6.51109C15.6087 5.93814 15.7829 5.4499 16.0594 5.04637C16.4205 4.52218 16.9029 4.13486 17.5067 3.88441C18.1104 3.62814 18.7882 3.5 19.54 3.5C20.3687 3.5 21.079 3.63396 21.6709 3.90188C22.2629 4.16398 22.7157 4.5513 23.0294 5.06384C23.3431 5.57056 23.5 6.18795 23.5 6.91599C23.5 7.42272 23.3994 7.8741 23.1981 8.27016C22.9969 8.66039 22.7334 9.02442 22.4079 9.36223C22.0823 9.70004 21.7242 10.0495 21.3335 10.4106C20.9961 10.7077 20.7653 11.0193 20.641 11.3454C20.5683 11.5456 20.5168 11.7689 20.4865 12.0152ZM17.924 15.207C17.924 14.8342 18.0542 14.5255 18.3147 14.2809C18.5751 14.0305 18.9243 13.9052 19.3624 13.9052C19.7945 13.9052 20.1408 14.0305 20.4012 14.2809C20.6676 14.5255 20.8008 14.8342 20.8008 15.207C20.8008 15.5681 20.6676 15.8739 20.4012 16.1243C20.1408 16.3748 19.7945 16.5 19.3624 16.5C18.9243 16.5 18.5751 16.3748 18.3147 16.1243C18.0542 15.8739 17.924 15.5681 17.924 15.207Z" fill="#FEC04C" stroke="#745A26"/>
<path d="M15.3512 15.3037C15.5496 15.1053 15.5496 14.7837 15.3512 14.5854L14.4146 13.6488C14.2162 13.4504 13.8946 13.4504 13.6963 13.6488L10.5 16.8451L7.30373 13.6488C7.10537 13.4504 6.78377 13.4504 6.58542 13.6488L5.6488 14.5854C5.45045 14.7837 5.45045 15.1053 5.6488 15.3037L8.84507 18.5L5.64877 21.6963C5.45041 21.8947 5.45041 22.2163 5.64877 22.4146L6.58538 23.3512C6.78374 23.5496 7.10534 23.5496 7.30369 23.3512L10.5 20.1549L13.6963 23.3512C13.8947 23.5496 14.2163 23.5496 14.4146 23.3512L15.3512 22.4146C15.5496 22.2163 15.5496 21.8947 15.3512 21.6963L12.1549 18.5L15.3512 15.3037Z" fill="var(--mw-icon-background-default-medium-gray, #D9D9D9)" stroke="var(--mw-icon-border-default-gray, #616161)" stroke-linecap="round" stroke-linejoin="round"/>
<circle cx="6" cy="6" r="5.5" fill="var(--mw-icon-background-red, #FF9D9A)" stroke="var(--mw-icon-border-default-red, #902622)"/>
</svg>
