<svg width="24" height="24" viewBox="0 0 24 24" fill="none" xmlns="http://www.w3.org/2000/svg">
<path d="M14.5 0.500001L18.5 0.500001L18.5 5.5L22.5 5.5L16.5 13.5L10.5 5.5L14.5 5.5L14.5 0.500001Z" fill="var(--mw-icon-background-default-action, #CBFFBE)" stroke="var(--mw-icon-border-default-green, #008013)"/>
<path d="M3.5 18.5L16.5 18.5" stroke="var(--mw-icon-border-disabled-gray, #888888)" stroke-linecap="square"/>
<path d="M3.5 15.5C5.15685 15.5 6.5 16.8431 6.5 18.5C6.5 20.1569 5.15685 21.5 3.5 21.5C1.84315 21.5 0.5 20.1569 0.5 18.5C0.5 16.8431 1.84315 15.5 3.5 15.5Z" fill="var(--mw-icon-background-default-medium-gray, #D9D9D9)"/>
<path d="M16.5 13.5C19.2614 13.5 21.5 15.7386 21.5 18.5C21.5 21.2614 19.2614 23.5 16.5 23.5C13.7386 23.5 11.5 21.2614 11.5 18.5C11.5 15.7386 13.7386 13.5 16.5 13.5Z" fill="var(--mw-icon-background-default-medium-gray, #D9D9D9)"/>
<path d="M3.5 15.5C5.15685 15.5 6.5 16.8431 6.5 18.5C6.5 20.1569 5.15685 21.5 3.5 21.5C1.84315 21.5 0.5 20.1569 0.5 18.5C0.5 16.8431 1.84315 15.5 3.5 15.5Z" stroke="var(--mw-icon-glyph-disabled-gray, #888889)"/>
<path d="M16.5 13.5C19.2614 13.5 21.5 15.7386 21.5 18.5C21.5 21.2614 19.2614 23.5 16.5 23.5C13.7386 23.5 11.5 21.2614 11.5 18.5C11.5 15.7386 13.7386 13.5 16.5 13.5Z" stroke="var(--mw-icon-glyph-disabled-gray, #888889)"/>
<circle cx="16.5" cy="18.5" r="3" transform="rotate(-90 16.5 18.5)" fill="var(--mw-icon-background-default-action, #CBFFBE)" stroke="var(--mw-icon-glyph-content-green, #008014)"/>
</svg>
