<svg width="24" height="24" viewBox="0 0 24 24" fill="none" xmlns="http://www.w3.org/2000/svg">
<path fill-rule="evenodd" clip-rule="evenodd" d="M7 4.5C7 4.22386 7.22386 4 7.5 4H15.5C15.7761 4 16 4.22386 16 4.5V18H17.05C17.2816 16.8589 18.2905 16 19.5 16C20.8807 16 22 17.1193 22 18.5C22 19.8807 20.8807 21 19.5 21C18.2905 21 17.2816 20.1411 17.05 19H15.5C15.2239 19 15 18.7761 15 18.5V5H8V18.5C8 18.7761 7.77614 19 7.5 19H5.94999C5.71836 20.1411 4.70948 21 3.5 21C2.11929 21 1 19.8807 1 18.5C1 17.1193 2.11929 16 3.5 16C4.70948 16 5.71836 16.8589 5.94999 18H7V4.5ZM3.5 17C2.67157 17 2 17.6716 2 18.5C2 19.3284 2.67157 20 3.5 20C4.32843 20 5 19.3284 5 18.5C5 17.6716 4.32843 17 3.5 17ZM18 18.5C18 17.6716 18.6716 17 19.5 17C20.3284 17 21 17.6716 21 18.5C21 19.3284 20.3284 20 19.5 20C18.6716 20 18 19.3284 18 18.5Z" fill="var(--mw-icon-object-primary, #616160)"/>
</svg>
