<svg width="24" height="24" viewBox="0 0 24 24" fill="none" xmlns="http://www.w3.org/2000/svg">
<rect x="0.5" y="0.5" width="22" height="22" rx="2" fill="var(--mw-icon-background-default-white, #FFFFFF)"/>
<path d="M1.5 11.5H3.5" stroke="var(--mw-icon-background-default-dark-gray, #A6A6A6)" stroke-linecap="round" stroke-linejoin="round"/>
<path d="M5.5 11.5H7.5" stroke="var(--mw-icon-background-default-dark-gray, #A6A6A6)" stroke-linecap="round" stroke-linejoin="round"/>
<path d="M9.5 11.5H11.5" stroke="var(--mw-icon-background-default-dark-gray, #A6A6A6)" stroke-linecap="round" stroke-linejoin="round"/>
<path d="M13.5 11.5H15.5" stroke="var(--mw-icon-background-default-dark-gray, #A6A6A6)" stroke-linecap="round" stroke-linejoin="round"/>
<path d="M17.5 11.5H19.5" stroke="var(--mw-icon-background-default-dark-gray, #A6A6A6)" stroke-linecap="round" stroke-linejoin="round"/>
<path d="M21.5 11.5H22" stroke="var(--mw-icon-background-default-dark-gray, #A6A6A6)" stroke-linecap="round" stroke-linejoin="round"/>
<circle cx="7" cy="6" r="4.5" fill="var(--mw-icon-background-medium-yellow, #FFEF91)" stroke="#EDB120"/>
<circle cx="7" cy="17" r="4.5" fill="var(--mw-icon-background-medium-yellow, #FFEF91)" stroke="#EDB120"/>
<path d="M16.5 10.5L17.5 11.5M17.5 11.5L18.5 12.5M17.5 11.5L18.5 10.5M17.5 11.5L16.5 12.5" stroke="#1171BE" stroke-linecap="round"/>
<path d="M4.5 3.5L5.5 4.5M5.5 4.5L6.5 5.5M5.5 4.5L6.5 3.5M5.5 4.5L4.5 5.5" stroke="#1171BE" stroke-linecap="round"/>
<path d="M4.5 17.5L5.5 18.5M5.5 18.5L6.5 19.5M5.5 18.5L6.5 17.5M5.5 18.5L4.5 19.5" stroke="#1171BE" stroke-linecap="round"/>
<path d="M7.5 6.5L8.5 7.5M8.5 7.5L9.5 8.5M8.5 7.5L9.5 6.5M8.5 7.5L7.5 8.5" stroke="#1171BE" stroke-linecap="round"/>
<path d="M7.5 14.5L8.5 15.5M8.5 15.5L9.5 16.5M8.5 15.5L9.5 14.5M8.5 15.5L7.5 16.5" stroke="#1171BE" stroke-linecap="round"/>
<rect x="0.5" y="0.5" width="22" height="22" rx="2" stroke="var(--mw-icon-border-default-gray, #616161)"/>
</svg>
