<svg width="24" height="24" viewBox="0 0 24 24" fill="none" xmlns="http://www.w3.org/2000/svg">
<path d="M20.5 0.5H2.5C1.39543 0.5 0.5 1.39543 0.5 2.5V20.5C0.5 21.6046 1.39543 22.5 2.5 22.5H20.5C21.6046 22.5 22.5 21.6046 22.5 20.5V2.5C22.5 1.39543 21.6046 0.5 20.5 0.5Z" fill="var(--mw-icon-background-default-white, #FFFFFF)" stroke="var(--mw-icon-border-default-gray, #616161)" stroke-linecap="round"/>
<path fill-rule="evenodd" clip-rule="evenodd" d="M7.85355 3.14645C8.04882 3.34171 8.04882 3.65829 7.85355 3.85355L6.85381 4.85329C6.94752 5.04911 7 5.26843 7 5.5C7 5.65153 6.97753 5.79782 6.93574 5.93571C6.93574 5.93571 8.00011 7.45229 9 7.99997C9.57217 8.31337 10.129 8.20795 10.6807 8.10349C10.9546 8.05163 11.2273 8 11.5 8C11.7727 8 12.0454 8.05163 12.3193 8.1035C12.871 8.20797 13.4278 8.3134 14 8C14.9999 7.45233 16.0643 5.93573 16.0643 5.93573C16.0225 5.79784 16 5.65154 16 5.5C16 5.26843 16.0525 5.04911 16.1462 4.85329L15.1464 3.85355C14.9512 3.65829 14.9512 3.34171 15.1464 3.14645C15.3417 2.95118 15.6583 2.95118 15.8536 3.14645L16.8533 4.14619C17.0491 4.05248 17.2684 4 17.5 4C18.3284 4 19 4.67157 19 5.5C19 5.73157 18.9475 5.95089 18.8538 6.14671L19.8536 7.14645C20.0488 7.34171 20.0488 7.65829 19.8536 7.85355C19.6583 8.04882 19.3417 8.04882 19.1464 7.85355L18.1467 6.85381C17.9509 6.94752 17.7316 7 17.5 7C17.3485 7 17.2022 6.97753 17.0643 6.93573C17.0643 6.93573 15.5477 8.0001 15 9C14.6866 9.57216 14.792 10.129 14.8965 10.6807C14.9484 10.9546 15 11.2273 15 11.5C15 11.7727 14.9484 12.0454 14.8965 12.3193C14.792 12.871 14.6866 13.4279 15 14C15.5477 14.9999 17.0642 16.0643 17.0642 16.0643C17.2021 16.0225 17.3484 16 17.5 16C17.7316 16 17.9509 16.0525 18.1467 16.1462L19.1464 15.1464C19.3417 14.9512 19.6583 14.9512 19.8536 15.1464C20.0488 15.3417 20.0488 15.6583 19.8536 15.8536L18.8538 16.8533C18.9475 17.0491 19 17.2684 19 17.5C19 18.3284 18.3284 19 17.5 19C17.2684 19 17.0491 18.9475 16.8533 18.8538L15.8536 19.8536C15.6583 20.0488 15.3417 20.0488 15.1464 19.8536C14.9512 19.6583 14.9512 19.3417 15.1464 19.1464L16.1462 18.1467C16.0525 17.9509 16 17.7316 16 17.5C16 17.3485 16.0225 17.2022 16.0643 17.0643C16.0643 17.0643 14.9999 15.5477 14 15C13.4278 14.6866 12.871 14.7921 12.3193 14.8965C12.0454 14.9484 11.7727 15 11.5 15C11.2273 15 10.9546 14.9484 10.6807 14.8965C10.129 14.792 9.57217 14.6866 9 15C8.0001 15.5477 6.93573 17.0643 6.93573 17.0643C6.97753 17.2022 7 17.3485 7 17.5C7 17.7316 6.94752 17.9509 6.85381 18.1467L7.85355 19.1464C8.04882 19.3417 8.04882 19.6583 7.85355 19.8536C7.65829 20.0488 7.34171 20.0488 7.14645 19.8536L6.14671 18.8538C5.95089 18.9475 5.73157 19 5.5 19C4.67157 19 4 18.3284 4 17.5C4 17.2684 4.05248 17.0491 4.14619 16.8533L3.14645 15.8536C2.95118 15.6583 2.95118 15.3417 3.14645 15.1464C3.34171 14.9512 3.65829 14.9512 3.85355 15.1464L4.85329 16.1462C5.04911 16.0525 5.26843 16 5.5 16C5.65154 16 5.79784 16.0225 5.93573 16.0643C5.93573 16.0643 7.45232 14.9999 8 14C8.31339 13.4278 8.20797 12.871 8.1035 12.3193C8.05163 12.0454 8 11.7727 8 11.5C8 11.2273 8.05163 10.9546 8.10351 10.6807C8.20797 10.129 8.3134 9.57214 8 8.99997C7.45233 8.00008 5.93576 6.93573 5.93576 6.93573C5.79785 6.97752 5.65155 7 5.5 7C5.26843 7 5.04911 6.94752 4.85329 6.85381L3.85355 7.85355C3.65829 8.04882 3.34171 8.04882 3.14645 7.85355C2.95118 7.65829 2.95118 7.34171 3.14645 7.14645L4.14619 6.14671C4.05248 5.95089 4 5.73157 4 5.5C4 4.67157 4.67157 4 5.5 4C5.73157 4 5.95089 4.05248 6.14671 4.14619L7.14645 3.14645C7.34171 2.95118 7.65829 2.95118 7.85355 3.14645ZM17.5 5C17.2239 5 17 5.22386 17 5.5C17 5.77614 17.2239 6 17.5 6C17.7761 6 18 5.77614 18 5.5C18 5.22386 17.7761 5 17.5 5ZM6 17.5C6 17.7761 5.77614 18 5.5 18C5.22386 18 5 17.7761 5 17.5C5 17.2239 5.22386 17 5.5 17C5.77614 17 6 17.2239 6 17.5ZM5 5.5C5 5.77614 5.22386 6 5.5 6C5.77614 6 6 5.77614 6 5.5C6 5.22386 5.77614 5 5.5 5C5.22386 5 5 5.22386 5 5.5ZM17.5 17C17.7761 17 18 17.2239 18 17.5C18 17.7761 17.7761 18 17.5 18C17.2239 18 17 17.7761 17 17.5C17 17.2239 17.2239 17 17.5 17Z" fill="var(--mw-icon-glyph-content-gray, #616162)"/>
</svg>
