<svg width="24" height="24" viewBox="0 0 24 24" fill="none" xmlns="http://www.w3.org/2000/svg">
<path d="M3.72182 19.2782C5.2602 20.8166 7.22021 21.8642 9.354 22.2886C11.4878 22.7131 13.6995 22.4952 15.7095 21.6627C17.7195 20.8301 19.4375 19.4202 20.6462 17.6113C21.8549 15.8023 22.5 13.6756 22.5 11.5L11.5 11.5L3.72182 19.2782Z" fill="var(--mw-icon-background-default-light-gray, #F5F5F5)" stroke="var(--mw-icon-border-default-gray, #616161)"/>
<path d="M22.5 11.5C22.5 10.0555 22.2155 8.62506 21.6627 7.29048C21.1099 5.9559 20.2996 4.74327 19.2782 3.72183C18.2567 2.70038 17.0441 1.89013 15.7095 1.33732C14.3749 0.784523 12.9445 0.5 11.5 0.5L11.5 11.5H22.5Z" fill="var(--mw-icon-glyph-content-light-blue, #278CDD)" stroke="var(--mw-icon-border-default-blue, #1656A7)"/>
<path d="M11.5 0.499999C9.3244 0.499999 7.19767 1.14514 5.38873 2.35383C3.57979 3.56253 2.16989 5.28049 1.33732 7.29048C0.504761 9.30047 0.286924 11.5122 0.711362 13.646C1.1358 15.7798 2.18345 17.7398 3.72183 19.2782L11.5 11.5L11.5 0.499999Z" fill="var(--mw-icon-background-default-selection, #B4DEFF)" stroke="var(--mw-icon-border-default-blue, #1656A7)"/>
</svg>
