<svg width="24" height="24" viewBox="0 0 24 24" fill="none" xmlns="http://www.w3.org/2000/svg">
<rect x="0.5" y="0.5" width="22" height="22" rx="2" fill="var(--mw-icon-background-default-white, #FFFFFF)" stroke="var(--mw-icon-border-default-gray, #616161)"/>
<path d="M1 22L22 1" stroke="#D95319" stroke-dasharray="3 3"/>
<path d="M3.49994 12.5L4.49994 13.5M4.49994 13.5L5.49994 14.5M4.49994 13.5L3.49994 14.5M4.49994 13.5L5.49994 12.5M8.49994 7.5L9.49994 8.5M9.49994 8.5L10.4999 9.5M9.49994 8.5L8.49994 9.5M9.49994 8.5L10.4999 7.5M13.4999 2.5L14.4999 3.5M14.4999 3.5L15.4999 4.5M14.4999 3.5L13.4999 4.5M14.4999 3.5L15.4999 2.5M7.49994 18.5L8.49994 19.5M8.49994 19.5L9.49994 20.5M8.49994 19.5L7.49994 20.5M8.49994 19.5L9.49994 18.5M12.4999 13.5L13.4999 14.5M13.4999 14.5L14.4999 15.5M13.4999 14.5L12.4999 15.5M13.4999 14.5L14.4999 13.5M17.4999 8.5L18.4999 9.5M18.4999 9.5L19.4999 10.5M18.4999 9.5L17.4999 10.5M18.4999 9.5L19.4999 8.5" stroke="#0072BD" stroke-linecap="round"/>
<rect x="0.5" y="0.5" width="22" height="22" rx="2" stroke="var(--mw-icon-border-default-gray, #616161)"/>
</svg>
