<svg width="24" height="24" viewBox="0 0 24 24" fill="none" xmlns="http://www.w3.org/2000/svg">
<rect x="0.5" y="0.5" width="22" height="22" rx="2" fill="var(--mw-icon-background-default-white, #FFFFFF)"/>
<path d="M1.5 11.5H3.5" stroke="var(--mw-icon-background-default-dark-gray, #A6A6A6)" stroke-linecap="round" stroke-linejoin="round"/>
<path d="M5.5 11.5H7.5" stroke="var(--mw-icon-background-default-dark-gray, #A6A6A6)" stroke-linecap="round" stroke-linejoin="round"/>
<path d="M9.5 11.5H11.5" stroke="var(--mw-icon-background-default-dark-gray, #A6A6A6)" stroke-linecap="round" stroke-linejoin="round"/>
<path d="M13.5 11.5H15.5" stroke="var(--mw-icon-background-default-dark-gray, #A6A6A6)" stroke-linecap="round" stroke-linejoin="round"/>
<path d="M17.5 11.5H19.5" stroke="var(--mw-icon-background-default-dark-gray, #A6A6A6)" stroke-linecap="round" stroke-linejoin="round"/>
<path d="M21.5 11.5H22.5" stroke="var(--mw-icon-background-default-dark-gray, #A6A6A6)" stroke-linecap="round" stroke-linejoin="round"/>
<path d="M10.4838 18.7416L10.6791 18.8698C10.414 19.2404 10.1908 19.5539 9.87691 19.7178C9.71647 19.8033 9.52814 19.846 9.29795 19.846C8.66319 19.846 8.23071 19.4684 8.23071 18.7701C8.23071 18.1145 8.53065 17.5089 8.96313 17.0671C9.31887 16.6966 9.75135 16.4614 10.2187 16.4614C10.6372 16.4614 10.9999 16.7251 10.9999 17.1027C10.9999 17.402 10.8256 17.6086 10.5675 17.6086C10.3303 17.6086 10.1629 17.4447 10.1629 17.231C10.1629 17.0172 10.3094 16.9745 10.3094 16.8177C10.3094 16.7464 10.2257 16.6966 10.142 16.6966C9.87691 16.6966 9.68857 16.9602 9.49326 17.3236C9.26307 17.7583 9.12356 18.2784 9.12356 18.7558C9.12356 19.1691 9.32585 19.39 9.63277 19.39C9.93271 19.39 10.1489 19.219 10.4838 18.7416Z" fill="var(--mw-icon-glyph-content-gray, #616162)"/>
<path d="M6.66693 14.2099V14C7.54515 14 7.91492 14.2643 8.09981 14.6296C8.18455 14.7929 8.23077 14.9794 8.23077 15.1893C8.23077 16.1143 7.58366 17.3192 6.5976 17.6223C6.45123 17.669 6.28175 17.6923 6.11997 17.6923C5.74249 17.6923 5.38042 17.5679 5.25717 17.2104C5.02606 17.5368 4.58695 17.6923 4.17095 17.6923C3.93214 17.6923 3.69333 17.6457 3.50844 17.5368C3.19259 17.3581 3 17.0083 3 16.604C3 15.6946 3.33126 15.0338 3.79347 14.583C4.17866 14.2177 4.65628 14 5.48827 14V14.2099C5.14931 14.2099 4.9028 14.2565 4.71021 14.4742C4.20947 15.0261 3.91673 16.0366 3.91673 16.9461C3.91673 17.2181 4.01688 17.4669 4.2788 17.4669C4.65628 17.4669 4.94132 17.086 5.1108 16.6196C5.1108 16.5263 5.10309 16.3942 5.10309 16.2387C5.10309 15.6091 5.38813 14.7074 5.91968 14.7074C6.10457 14.7074 6.20471 14.9172 6.20471 15.2126C6.20471 15.3603 6.1739 15.5391 6.12768 15.7179C6.04294 16.0288 5.76561 16.5185 5.71168 16.6118C5.69627 16.7129 5.68857 16.8139 5.68857 16.9072C5.68857 17.2337 5.80412 17.4669 6.09686 17.4669C6.91345 17.4669 7.31404 15.3603 7.31404 14.8706C7.31404 14.7151 7.29863 14.583 7.25241 14.4664C7.18307 14.2876 7.00589 14.2099 6.66693 14.2099Z" fill="var(--mw-icon-glyph-content-gray, #616162)"/>
<path d="M1.5 1.5L22.5 20.5" stroke="#EDB120" stroke-linecap="round" stroke-linejoin="round"/>
<path d="M0.5 8.5C13.5 10.5 21.5 13.0001 22 21.5" stroke="#1171BE" stroke-linecap="round" stroke-linejoin="round"/>
<rect x="0.5" y="0.5" width="22" height="22" rx="2" stroke="var(--mw-icon-border-default-gray, #616161)"/>
</svg>
