<svg width="24" height="24" viewBox="0 0 24 24" fill="none" xmlns="http://www.w3.org/2000/svg">
<path d="M20.5 0.5H2.5C1.39543 0.5 0.5 1.39543 0.5 2.5V20.5C0.5 21.6046 1.39543 22.5 2.5 22.5H20.5C21.6046 22.5 22.5 21.6046 22.5 20.5V2.5C22.5 1.39543 21.6046 0.5 20.5 0.5Z" fill="var(--mw-icon-background-default-white, #FFFFFF)" stroke="var(--mw-icon-border-default-gray, #616161)" stroke-linecap="round"/>
<path fill-rule="evenodd" clip-rule="evenodd" d="M13.0923 16.2524C13.2402 15.9927 13.533 15.9237 13.7559 16.0909C13.7769 16.1056 13.7969 16.1219 13.8158 16.1399L20.7837 21.9251C21.0088 22.112 21.0677 22.4802 20.9154 22.7476C20.8046 22.942 20.6127 23.0296 20.4296 22.9911H13.4998C13.2238 22.9911 13 22.7306 13 22.4093V16.5907C13 16.4733 13.0299 16.3639 13.0813 16.2725C13.0848 16.2657 13.0885 16.259 13.0923 16.2524Z" fill="var(--mw-icon-glyph-content-gray, #616162)"/>
<path fill-rule="evenodd" clip-rule="evenodd" d="M9.90783 16.252C9.76109 15.995 9.47231 15.925 9.25023 16.0865C9.22548 16.1031 9.20208 16.1221 9.18024 16.1432L2.23698 21.9142C2.09465 22.0168 1.99985 22.2001 1.99985 22.4093C1.99985 22.5267 2.02976 22.6361 2.0812 22.7275C2.08479 22.7344 2.0885 22.7412 2.09236 22.748C2.2032 22.9421 2.3951 23.0296 2.57808 22.9911H9.49985C9.77599 22.9911 9.99985 22.7306 9.99985 22.4093V16.5907C9.99985 16.4785 9.97252 16.3736 9.92518 16.2847C9.91973 16.2737 9.91395 16.2628 9.90783 16.252Z" fill="var(--mw-icon-glyph-content-gray, #616162)"/>
<path d="M11.1807 2.28852C11.1974 2.12467 11.3353 2 11.5 2C11.6647 2 11.8026 2.12467 11.8193 2.28852L12.3141 7.16732C13.2318 7.55548 13.9701 8.59259 14.305 10H21.4265C21.4671 10 21.5 10.0329 21.5 10.0735C21.5 10.0906 21.4941 10.1072 21.4831 10.1203C21.0645 10.6186 20.5117 10.9865 19.89 11.18C19.0179 11.3492 18.1421 11.4976 17.2633 11.6251C17.4107 11.9336 17.4998 12.335 17.4998 12.78C17.5251 13.0736 17.4347 13.3655 17.2479 13.5934C17.1088 13.763 16.9245 13.8873 16.7186 13.9532C16.5767 13.9986 16.4228 13.9986 16.281 13.9532C16.0751 13.8873 15.8907 13.763 15.7517 13.5934C15.5649 13.3655 15.4745 13.0736 15.4998 12.78C15.4998 12.4272 15.5536 12.1054 15.6468 11.8355C15.2655 11.8795 14.8836 11.9196 14.5013 11.9557C14.4792 12.7069 14.1879 13.4283 13.6765 13.9857C13.114 14.5989 12.3312 14.9636 11.4999 15C10.6686 14.9636 9.88579 14.5989 9.32329 13.9857C8.81185 13.4283 8.5206 12.7069 8.49844 11.9557C8.11609 11.9196 7.73416 11.8795 7.35271 11.8355C7.44593 12.1054 7.49978 12.4271 7.49978 12.78C7.52508 13.0736 7.4347 13.3655 7.24789 13.5934C7.10882 13.763 6.92451 13.8873 6.71857 13.9532C6.57673 13.9986 6.42283 13.9986 6.28099 13.9532C6.07505 13.8873 5.89074 13.763 5.75168 13.5934C5.56487 13.3655 5.47448 13.0736 5.49978 12.78C5.49978 12.335 5.5889 11.9335 5.73628 11.625C4.8576 11.4976 3.98192 11.3492 3.11 11.18C2.48832 10.9865 1.93546 10.6186 1.51695 10.1203C1.50595 10.1072 1.5 10.0906 1.5 10.0735C1.5 10.0329 1.53292 10 1.57354 10H8.69477C9.02974 8.59247 9.76806 7.55531 10.6859 7.16722L11.1807 2.28852Z" fill="var(--mw-icon-glyph-content-gray, #616162)"/>
</svg>
