<svg width="24" height="24" viewBox="0 0 24 24" fill="none" xmlns="http://www.w3.org/2000/svg">
<path d="M20.5 0.5H2.5C1.39543 0.5 0.5 1.39543 0.5 2.5V20.5C0.5 21.6046 1.39543 22.5 2.5 22.5H20.5C21.6046 22.5 22.5 21.6046 22.5 20.5V2.5C22.5 1.39543 21.6046 0.5 20.5 0.5Z" fill="var(--mw-icon-background-default-white, #FFFFFF)" stroke="var(--mw-icon-border-default-gray, #616161)" stroke-linecap="round"/>
<path d="M1 4C1 4 7 4 11.5 12.0006C16 20.0013 22 19.5 22 19.5" stroke="#0072BD"/>
<path d="M1 9H3V8H1V9Z" fill="#D95319"/>
<path d="M5 9H7V8H5V9Z" fill="#D95319"/>
<path d="M9 9H11V8H9V9Z" fill="#D95319"/>
<path d="M13 9H15V8H13V9Z" fill="#D95319"/>
<path d="M17 9H19V8H17V9Z" fill="#D95319"/>
<path d="M21 9H22V8H21V9Z" fill="#D95319"/>
</svg>
