<svg width="24" height="24" viewBox="0 0 24 24" fill="none" xmlns="http://www.w3.org/2000/svg">
<path d="M20.5 0.5H2.5C1.39543 0.5 0.5 1.39543 0.5 2.5V20.5C0.5 21.6046 1.39543 22.5 2.5 22.5H20.5C21.6046 22.5 22.5 21.6046 22.5 20.5V2.5C22.5 1.39543 21.6046 0.5 20.5 0.5Z" fill="var(--mw-icon-background-default-white, #FFFFFF)" stroke="var(--mw-icon-border-default-gray, #616161)" stroke-linecap="round"/>
<path d="M12 11.5C12 11.7761 11.7761 12 11.5 12C11.2239 12 11 11.7761 11 11.5C11 11.2239 11.2239 11 11.5 11C11.7761 11 12 11.2239 12 11.5Z" fill="var(--mw-icon-glyph-content-gray, #616162)"/>
<path d="M16.5 11.5C16.5 14.2614 14.2614 16.5 11.5 16.5C8.73858 16.5 6.5 14.2614 6.5 11.5C6.5 8.73858 8.73858 6.5 11.5 6.5C14.2614 6.5 16.5 8.73858 16.5 11.5Z" stroke="var(--mw-icon-glyph-content-gray, #616162)"/>
<path d="M19.5 11.5C19.5 15.9183 15.9183 19.5 11.5 19.5C7.08172 19.5 3.5 15.9183 3.5 11.5C3.5 7.08172 7.08172 3.5 11.5 3.5C15.9183 3.5 19.5 7.08172 19.5 11.5Z" stroke="var(--mw-icon-glyph-content-gray, #616162)"/>
<path d="M11.5 2.5V9.5M11.5 13.5V20.5M13.5 11.5H20.5001M2.5 11.5H9.5" stroke="var(--mw-icon-glyph-content-gray, #616162)" stroke-linecap="round"/>
</svg>
