<svg width="24" height="25" viewBox="0 0 24 25" fill="none" xmlns="http://www.w3.org/2000/svg">
<circle cx="11" cy="11" r="11" transform="matrix(1 0 0 -1 0.5 23.5)" fill="#027880" stroke="#013A3E"/>
<path d="M11.5 23V2M1 12.5H22" stroke="#74EBDA"/>
<path d="M19.5 12.5C19.5 8.08172 15.9183 4.5 11.5 4.5C7.08172 4.5 3.5 8.08172 3.5 12.5C3.5 16.9183 7.08172 20.5 11.5 20.5C15.9183 20.5 19.5 16.9183 19.5 12.5Z" stroke="#74EBDA"/>
<path d="M16.5 12.5C16.5 9.73858 14.2614 7.5 11.5 7.5C8.73858 7.5 6.5 9.73858 6.5 12.5C6.5 15.2614 8.73858 17.5 11.5 17.5C14.2614 17.5 16.5 15.2614 16.5 12.5Z" stroke="#74EBDA"/>
<path d="M12.5 12.5C12.5 11.9477 12.0523 11.5 11.5 11.5C10.9477 11.5 10.5 11.9477 10.5 12.5C10.5 13.0523 10.9477 13.5 11.5 13.5C12.0523 13.5 12.5 13.0523 12.5 12.5Z" fill="var(--mw-icon-background-default-white, #FFFFFF)" stroke="var(--mw-icon-background-default-white, #FFFFFF)"/>
<path d="M11.5 12.5L6 3L2 7L11.5 12.5Z" fill="white"/>
<path d="M17 6C17 5.44772 16.5523 5 16 5C15.4477 5 15 5.44772 15 6C15 6.55228 15.4477 7 16 7C16.5523 7 17 6.55228 17 6Z" fill="white"/>
<path d="M9 16C9 15.4477 8.55228 15 8 15C7.44772 15 7 15.4477 7 16C7 16.5523 7.44772 17 8 17C8.55228 17 9 16.5523 9 16Z" fill="white"/>
<path d="M19 17C19 16.4477 18.5523 16 18 16C17.4477 16 17 16.4477 17 17C17 17.5523 17.4477 18 18 18C18.5523 18 19 17.5523 19 17Z" fill="white"/>
<circle cx="11" cy="11" r="11" transform="matrix(1 0 0 -1 0.5 23.5)" stroke="#013A3E"/>
</svg>
