<svg width="24" height="24" viewBox="0 0 24 24" fill="none" xmlns="http://www.w3.org/2000/svg">
<path d="M20.5 0.5H2.5C1.39543 0.5 0.5 1.39543 0.5 2.5V20.5C0.5 21.6046 1.39543 22.5 2.5 22.5H20.5C21.6046 22.5 22.5 21.6046 22.5 20.5V2.5C22.5 1.39543 21.6046 0.5 20.5 0.5Z" fill="var(--mw-icon-background-default-white, #FFFFFF)" stroke="var(--mw-icon-border-default-gray, #616161)" stroke-linecap="round"/>
<path d="M20.5 19.5C20.5 19.5 19.5 15.5 18.5 15.5C17.5 15.5 16.5 19.5 16.5 19.5C16.5 19.5 16.5 11.5 15 11.5C13.5 11.5 13.5 19.5 13.5 19.5C13.5 19.5 13.5 2.5 11.5 2.5C9.5 2.5 9.5 19.5 9.5 19.5C9.5 19.5 9.5 11.5 8 11.5C6.5 11.5 6.5 19.5 6.5 19.5C6.5 19.5 5.5 15.5 4.5 15.5C3.5 15.5 2.5 19.5 2.5 19.5" stroke="#0072BD" stroke-linecap="round" stroke-linejoin="round"/>
</svg>
