<svg width="24" height="24" viewBox="0 0 24 24" fill="none" xmlns="http://www.w3.org/2000/svg">
<path d="M20.5 0.5H2.5C1.39543 0.5 0.5 1.39543 0.5 2.5V20.5C0.5 21.6046 1.39543 22.5 2.5 22.5H20.5C21.6046 22.5 22.5 21.6046 22.5 20.5V2.5C22.5 1.39543 21.6046 0.5 20.5 0.5Z" fill="var(--mw-icon-background-default-white, #FFFFFF)" stroke="var(--mw-icon-border-default-gray, #616161)" stroke-linecap="round"/>
<path d="M15.5 16C14.4391 17.2806 13.0003 18 11.5 18C9.99971 18 8.56087 17.2806 7.5 16M13.5 14.5C12.9696 15.1403 12.2501 15.5 11.5 15.5C10.7499 15.5 10.0304 15.1403 9.5 14.5M17.5 17.5C15.9087 19.4209 13.7504 20.5 11.5 20.5C9.24956 20.5 7.0913 19.4209 5.5 17.5" stroke="var(--mw-icon-glyph-content-gray, #616162)" stroke-linecap="round"/>
<path d="M7.22059 5.11765L13.8382 8.64706C14.2727 8.87879 14.7569 9 15.2493 9H18H19.5C20.3284 9 21 9.67157 21 10.5C21 11.3284 20.3284 12 19.5 12H18H10.0353C9.67896 12 9.32312 11.9728 8.97091 11.9186L4.31378 11.2021C3.51781 11.0797 2.87294 10.4917 2.67761 9.71045L2 7H2.82461C2.93815 7 3.0483 7.03864 3.13696 7.10957L4.95217 8.56174C5.3068 8.84544 5.74742 9 6.20156 9H9.5L5 5H6.75C6.91414 5 7.07576 5.0404 7.22059 5.11765Z" fill="var(--mw-icon-glyph-content-gray, #616162)"/>
</svg>
