<svg width="24" height="24" viewBox="0 0 24 24" fill="none" xmlns="http://www.w3.org/2000/svg">
<rect x="0.5" y="0.5" width="22" height="22" rx="2" fill="var(--mw-icon-background-default-white, #FFFFFF)"/>
<path d="M1.5 11.5H3.5" stroke="var(--mw-icon-background-default-dark-gray, #A6A6A6)" stroke-linecap="round" stroke-linejoin="round"/>
<path d="M5.5 11.5H7.5" stroke="var(--mw-icon-background-default-dark-gray, #A6A6A6)" stroke-linecap="round" stroke-linejoin="round"/>
<path d="M9.5 11.5H11.5" stroke="var(--mw-icon-background-default-dark-gray, #A6A6A6)" stroke-linecap="round" stroke-linejoin="round"/>
<path d="M13.5 11.5H15.5" stroke="var(--mw-icon-background-default-dark-gray, #A6A6A6)" stroke-linecap="round" stroke-linejoin="round"/>
<path d="M17.5 11.5H19.5" stroke="var(--mw-icon-background-default-dark-gray, #A6A6A6)" stroke-linecap="round" stroke-linejoin="round"/>
<path d="M21.5 11.5H22.5" stroke="var(--mw-icon-background-default-dark-gray, #A6A6A6)" stroke-linecap="round" stroke-linejoin="round"/>
<path d="M0.5 17C0.5 17 1.9625 5.3125 3.1875 5.3125C4.15 5.3125 4.01875 15.8125 5.15625 15.8125C6.20625 15.8125 6.075 8.8125 7.34375 8.8125C8.6125 8.8125 8.35 14.5 9.3125 14.5C10.275 14.5 9.96875 4 11.5 4C13.0313 4 12.2437 18 13.6875 18C15.1313 18 14.7375 6.625 15.875 6.625C17.0125 6.625 16.7937 12.75 17.8438 12.75C18.8938 12.75 18.85 7.0625 19.8125 7.0625C20.775 7.0625 20.4688 14.9375 22 14.9375" stroke="#1171BE"/>
<rect x="0.5" y="0.5" width="22" height="22" rx="2" stroke="var(--mw-icon-border-default-gray, #616161)"/>
</svg>
