<svg width="24" height="24" viewBox="0 0 24 24" fill="none" xmlns="http://www.w3.org/2000/svg">
<path d="M20.5 0.5H2.5C1.39543 0.5 0.5 1.39543 0.5 2.5V20.5C0.5 21.6046 1.39543 22.5 2.5 22.5H20.5C21.6046 22.5 22.5 21.6046 22.5 20.5V2.5C22.5 1.39543 21.6046 0.5 20.5 0.5Z" fill="var(--mw-icon-background-default-white, #FFFFFF)"/>
<path d="M6 1H7V2H6V1Z" fill="#D95319"/>
<path d="M1 6H2V7H1V6Z" fill="#D95319"/>
<path d="M6 4H7V6H6V4Z" fill="#D95319"/>
<path d="M6 8H7V10H6V8Z" fill="#D95319"/>
<path d="M6 12H7V14H6V12Z" fill="#D95319"/>
<path d="M6 16H7V18H6V16Z" fill="#D95319"/>
<path d="M6 20H7V22H6V20Z" fill="#D95319"/>
<path d="M4 6H6V7H4V6Z" fill="#D95319"/>
<path d="M8 6H10V7H8V6Z" fill="#D95319"/>
<path d="M12 6H14V7H12V6Z" fill="#D95319"/>
<path d="M16 6H18V7H16V6Z" fill="#D95319"/>
<path d="M20 6H22V7H20V6Z" fill="#D95319"/>
<path d="M1.00004 1.00003L22 22" stroke="#0072BD"/>
<path d="M20.5 0.5H2.5C1.39543 0.5 0.5 1.39543 0.5 2.5V20.5C0.5 21.6046 1.39543 22.5 2.5 22.5H20.5C21.6046 22.5 22.5 21.6046 22.5 20.5V2.5C22.5 1.39543 21.6046 0.5 20.5 0.5Z" stroke="var(--mw-icon-border-default-gray, #616161)" stroke-linecap="round"/>
</svg>
