<svg width="24" height="24" viewBox="0 0 24 24" fill="none" xmlns="http://www.w3.org/2000/svg">
<path d="M2.5 5C2.5 3.89543 3.39543 3 4.5 3H19.5C20.6046 3 21.5 3.89543 21.5 5V19C21.5 20.1046 20.6046 21 19.5 21H4.5C3.39543 21 2.5 20.1046 2.5 19V5Z" fill="var(--mw-icon-background-default-medium-gray, #D9D9D9)"/>
<path d="M2.5 4.5C2.5 3.39543 3.39543 2.5 4.5 2.5H19.5C20.6046 2.5 21.5 3.39543 21.5 4.5V19.5C21.5 20.6046 20.6046 21.5 19.5 21.5H4.5C3.39543 21.5 2.5 20.6046 2.5 19.5V4.5Z" fill="var(--mw-icon-background-default-medium-gray, #D9D9D9)" stroke="var(--mw-icon-border-default-gray, #616161)" stroke-linejoin="round"/>
<path d="M0.5 2.5C0.5 1.39543 1.39543 0.5 2.5 0.5H16.5C17.6046 0.5 18.5 1.39543 18.5 2.5V16.5C18.5 17.6046 17.6046 18.5 16.5 18.5H2.5C1.39543 18.5 0.5 17.6046 0.5 16.5V2.5Z" fill="var(--mw-icon-background-default-white, #FFFFFF)"/>
<path d="M15.5 16.5L11.5 16.5L7.5 16.5H3.5V11.5H7.5V7.5H11.5V2.5H15.5V16.5Z" fill="var(--mw-icon-background-medium-yellow, #FFEF91)"/>
<path d="M11.5 16.5V2.5M7.5 16.5L7.5 11.5M7.5 11.5V7.5H11.5V2.5M7.5 11.5H3.5V16.5L15.5 16.5V2.5H11.5" stroke="#674C06" stroke-linecap="square" stroke-linejoin="round"/>
<path d="M0.5 2.5C0.5 1.39543 1.39543 0.5 2.5 0.5H16.5C17.6046 0.5 18.5 1.39543 18.5 2.5V16.5C18.5 17.6046 17.6046 18.5 16.5 18.5H2.5C1.39543 18.5 0.5 17.6046 0.5 16.5V2.5Z" stroke="var(--mw-icon-border-default-gray, #616161)" stroke-linejoin="round"/>
</svg>
