<svg width="24" height="24" viewBox="0 0 24 24" fill="none" xmlns="http://www.w3.org/2000/svg">
<path d="M1.5 4.5H19.5V16.5C19.5 17.6046 18.6046 18.5 17.5 18.5H3.5C2.39543 18.5 1.5 17.6046 1.5 16.5V4.5Z" fill="var(--mw-icon-background-default-white, #FFFFFF)" stroke="var(--mw-icon-border-default-gray, #616161)"/>
<path d="M1.5 1.5C1.5 0.947715 1.94772 0.5 2.5 0.5H18.5C19.0523 0.5 19.5 0.947715 19.5 1.5V4.5H1.5V1.5Z" fill="var(--mw-icon-background-default-medium-gray, #D9D9D9)" stroke="var(--mw-icon-border-default-gray, #616161)"/>
<path d="M10.5 4.5V18.5M1.5 11.5H19.5" stroke="var(--mw-icon-border-default-gray, #616161)" stroke-linecap="square" stroke-linejoin="round"/>
<rect x="3" y="13" width="6" height="4" fill="#D95319"/>
<rect x="3" y="6" width="6" height="4" fill="#0072BD"/>
<path d="M21.5 22.5L17.5 22.5L13.5 22.5H9.5V17.5H13.5V13.5H17.5V8.5H21.5V22.5Z" fill="var(--mw-icon-background-medium-yellow, #FFEF91)"/>
<path d="M17.5 22.5V8.5M13.5 22.5L13.5 17.5M13.5 17.5V13.5H17.5V8.5M13.5 17.5H9.5V22.5L21.5 22.5V8.5H17.5" stroke="#674C06" stroke-linecap="square" stroke-linejoin="round"/>
</svg>
