<svg width="24" height="24" viewBox="0 0 24 24" fill="none" xmlns="http://www.w3.org/2000/svg">
<path d="M2 1H19V18H2V1Z" fill="var(--mw-icon-background-default-white, #FFFFFF)"/>
<path d="M2 9.50012H19" stroke="var(--mw-icon-border-default-gray, #616161)"/>
<path d="M2 4.5H19M2 14.5H19" stroke="#0072BD"/>
<path d="M9.5 9.50003H10.5M10.5 9.50003H11.5M10.5 9.50003V8.50003M10.5 9.50003V10.5M3.5 3.5H4.5M4.5 3.5H5.5M4.5 3.5V2.5M4.5 3.5V9.5M6.5 6.5H7.5M7.5 6.5H8.5M7.5 6.5V5.5M7.5 6.5V9.5M15.5 14.5001H16.5M16.5 14.5001H17.5M16.5 14.5001V9.50008M16.5 14.5001V15.5001M12.5 11.5001H13.5M13.5 11.5001H14.5M13.5 11.5001V9.50008M13.5 11.5001V13.5001" stroke="#D95319" stroke-linecap="round"/>
<path d="M1.5 2.5C1.5 1.39543 2.39543 0.5 3.5 0.5H17.5C18.6046 0.5 19.5 1.39543 19.5 2.5V16.5C19.5 17.6046 18.6046 18.5 17.5 18.5H3.5C2.39543 18.5 1.5 17.6046 1.5 16.5V2.5Z" stroke="var(--mw-icon-border-default-gray, #616161)" stroke-linejoin="round"/>
<path d="M22.5 22.5L18.5 22.5L14.5 22.5H10.5V17.5H14.5V13.5H18.5V8.5H22.5V22.5Z" fill="var(--mw-icon-background-medium-yellow, #FFEF91)"/>
<path d="M18.5 22.5V8.5M14.5 22.5L14.5 17.5M14.5 17.5V13.5H18.5V8.5M14.5 17.5H10.5V22.5L22.5 22.5V8.5H18.5" stroke="#674C06" stroke-linecap="square" stroke-linejoin="round"/>
</svg>
