<svg width="24" height="24" viewBox="0 0 24 24" fill="none" xmlns="http://www.w3.org/2000/svg">
<path d="M19.5 9.5C19.5 14.4706 15.4706 18.5 10.5 18.5C5.52944 18.5 1.5 14.4706 1.5 9.5C1.5 4.52944 5.52944 0.5 10.5 0.5C15.4706 0.5 19.5 4.52944 19.5 9.5ZM6 9.5C6 11.9853 8.01472 14 10.5 14C12.9853 14 15 11.9853 15 9.5C15 7.01472 12.9853 5 10.5 5C8.01472 5 6 7.01472 6 9.5Z" fill="var(--mw-icon-background-default-white, #FFFFFF)"/>
<circle cx="10.5" cy="9.5" r="9" stroke="var(--mw-icon-border-default-gray, #616161)"/>
<circle cx="10.5" cy="9.5" r="5" stroke="var(--mw-icon-border-default-gray, #616161)"/>
<path d="M19 9.5C19 10.3284 18.3284 11 17.5 11C16.6716 11 16 10.3284 16 9.5C16 8.67157 16.6716 8 17.5 8C18.3284 8 19 8.67157 19 9.5Z" fill="var(--mw-icon-glyph-content-dark-gray, #333333)"/>
<path d="M12 2.5C12 3.32843 11.3284 4 10.5 4C9.67157 4 9 3.32843 9 2.5C9 1.67157 9.67157 1 10.5 1C11.3284 1 12 1.67157 12 2.5Z" fill="var(--mw-icon-glyph-content-dark-gray, #333333)"/>
<path d="M12 16.5C12 17.3284 11.3284 18 10.5 18C9.67157 18 9 17.3284 9 16.5C9 15.6716 9.67157 15 10.5 15C11.3284 15 12 15.6716 12 16.5Z" fill="var(--mw-icon-glyph-content-dark-gray, #333333)"/>
<path d="M17 14.5C17 15.3284 16.3284 16 15.5 16C14.6716 16 14 15.3284 14 14.5C14 13.6716 14.6716 13 15.5 13C16.3284 13 17 13.6716 17 14.5Z" fill="var(--mw-icon-glyph-content-dark-gray, #333333)"/>
<path d="M17 4.5C17 5.32843 16.3284 6 15.5 6C14.6716 6 14 5.32843 14 4.5C14 3.67157 14.6716 3 15.5 3C16.3284 3 17 3.67157 17 4.5Z" fill="var(--mw-icon-glyph-content-dark-gray, #333333)"/>
<path d="M7 14.5C7 15.3284 6.32843 16 5.5 16C4.67157 16 4 15.3284 4 14.5C4 13.6716 4.67157 13 5.5 13C6.32843 13 7 13.6716 7 14.5Z" fill="var(--mw-icon-glyph-content-dark-gray, #333333)"/>
<path d="M7 4.5C7 5.32843 6.32843 6 5.5 6C4.67157 6 4 5.32843 4 4.5C4 3.67157 4.67157 3 5.5 3C6.32843 3 7 3.67157 7 4.5Z" fill="var(--mw-icon-glyph-content-dark-gray, #333333)"/>
<path d="M5 9.5C5 10.3284 4.32843 11 3.5 11C2.67157 11 2 10.3284 2 9.5C2 8.67157 2.67157 8 3.5 8C4.32843 8 5 8.67157 5 9.5Z" fill="var(--mw-icon-glyph-content-dark-gray, #333333)"/>
<path d="M22.5 22.5L18.5 22.5L14.5 22.5H10.5V17.5H14.5V13.5H18.5V8.5H22.5V22.5Z" fill="var(--mw-icon-background-medium-yellow, #FFEF91)"/>
<path d="M18.5 22.5V8.5M14.5 22.5L14.5 17.5M14.5 17.5V13.5H18.5V8.5M14.5 17.5H10.5V22.5L22.5 22.5V8.5H18.5" stroke="#674C06" stroke-linecap="square" stroke-linejoin="round"/>
</svg>
