<svg width="24" height="24" viewBox="0 0 24 24" fill="none" xmlns="http://www.w3.org/2000/svg">
<path d="M1.5 2.5C1.5 1.39543 2.39543 0.5 3.5 0.5H17.5C18.6046 0.5 19.5 1.39543 19.5 2.5V16.5C19.5 17.6046 18.6046 18.5 17.5 18.5H3.5C2.39543 18.5 1.5 17.6046 1.5 16.5V2.5Z" fill="var(--mw-icon-background-default-white, #FFFFFF)"/>
<path fill-rule="evenodd" clip-rule="evenodd" d="M6.74103 6.52542H8.0894C8.37618 5.61527 8.62888 4.85424 9.09849 4.19498C9.5553 3.54985 10.2111 3 11.1987 3C11.5919 3 11.9546 3.10245 12.2266 3.2943C12.5018 3.48833 12.6891 3.78026 12.6891 4.1343C12.6891 4.57984 12.309 5.00068 11.8282 5.00068C11.4397 5.00068 11.0389 4.68503 11.0389 4.19071C11.0389 4.02878 11.0846 3.91369 11.1286 3.83024L11.1272 3.83024C10.862 3.83024 10.6 3.98254 10.3383 4.46608C10.0992 4.90773 9.88793 5.58064 9.69704 6.52542H11.2267L11.17 6.82372L11.3302 6.7663C12.2068 6.45466 12.7153 6.3421 13.0918 6.3421C13.2126 6.3421 13.337 6.36378 13.4552 6.42968C13.573 6.4954 13.6639 6.59353 13.7371 6.71275C13.8762 6.93898 13.976 7.28346 14.0758 7.76105L14.1204 7.96988C14.4664 7.47742 14.7612 7.11174 15.0348 6.85496C15.4028 6.50965 15.753 6.3421 16.1534 6.3421C16.3779 6.3421 16.589 6.4116 16.7476 6.55182C16.9089 6.69428 17 6.89643 17 7.12386C17 7.33131 16.9291 7.52487 16.7921 7.6683C16.6543 7.81263 16.4633 7.89153 16.2536 7.89153C16.0556 7.89153 15.9038 7.80679 15.8067 7.75256C15.7985 7.74798 15.7907 7.74361 15.7832 7.73953C15.6856 7.68592 15.6175 7.65411 15.5205 7.65192C15.5149 7.65444 15.4869 7.66571 15.4324 7.70909C15.3579 7.76845 15.2627 7.86475 15.1488 8.00309C14.9313 8.26699 14.667 8.65718 14.3716 9.16139C14.381 9.25112 14.4088 9.41143 14.474 9.66876L14.4747 9.67145L14.9319 11.5584L14.9322 11.5597C14.9797 11.7465 15.0269 11.8516 15.0666 11.9058C15.0943 11.9435 15.1049 11.9413 15.1082 11.9406L15.1094 11.9405C15.1223 11.9405 15.1508 11.9405 15.2232 11.879C15.3043 11.8101 15.4113 11.6888 15.5754 11.4779C15.6174 11.4227 15.6529 11.3748 15.6864 11.3298C15.7488 11.2457 15.8039 11.1715 15.88 11.0777L16.0213 10.9037L16.6629 11.2831L16.5141 11.5108C16.0996 12.1448 15.7836 12.572 15.4924 12.8396C15.1859 13.1214 14.8959 13.2361 14.5511 13.2361C14.2658 13.2361 14.0187 13.1528 13.8259 12.932C13.6502 12.7307 13.5421 12.4387 13.4545 12.0791L13.1712 10.9334L12.2404 12.174C11.9224 12.5944 11.6715 12.8642 11.427 13.0256C11.1662 13.1977 10.929 13.2361 10.674 13.2361C10.4109 13.2361 10.1671 13.1692 9.98411 13.0176C9.79529 12.8612 9.69864 12.6367 9.69864 12.3838C9.69864 11.9745 9.99953 11.6161 10.4451 11.6161C10.6436 11.6161 10.8367 11.7018 11.0248 11.8016L11.0354 11.8072C11.0911 11.8402 11.1453 11.8643 11.1915 11.8794C11.2239 11.8901 11.2473 11.8948 11.2612 11.8968C11.2653 11.8948 11.2709 11.8918 11.2782 11.8874C11.3087 11.8689 11.3516 11.8358 11.4062 11.7835C11.5151 11.6793 11.6474 11.521 11.7925 11.3166L11.7932 11.3157L12.898 9.77515L12.524 8.14267C12.4745 7.93356 12.4327 7.77626 12.3933 7.65814C12.3533 7.53801 12.3205 7.47256 12.2948 7.4362C12.2738 7.40657 12.2615 7.40129 12.2524 7.39785C12.2344 7.39103 12.1991 7.38386 12.1189 7.38386C12.0397 7.38386 11.8954 7.4045 11.628 7.47381L11.1006 7.61819L11.0597 7.4032L11.042 7.49668H9.48898L8.50504 11.8071C8.20127 13.126 7.8016 14.162 7.29568 14.8736C6.7854 15.5913 6.14958 16 5.39023 16C4.67396 16 4 15.579 4 14.8798C4 14.4342 4.3383 14.0275 4.80365 14.0275C5.02931 14.0275 5.23308 14.106 5.38139 14.2522C5.52939 14.3981 5.60731 14.5969 5.60731 14.8093C5.60731 14.9696 5.54717 15.0818 5.51198 15.1474C5.50387 15.1625 5.49771 15.1743 5.49303 15.1835C5.49659 15.1837 5.50046 15.1839 5.50468 15.1839C5.67487 15.1839 5.86977 15.0819 6.07812 14.738C6.28656 14.394 6.47587 13.8561 6.6382 13.1049L7.83034 7.49668H6.52548L6.74103 6.52542Z" fill="var(--mw-icon-glyph-content-gray, #616162)"/>
<path d="M1.5 2.5C1.5 1.39543 2.39543 0.5 3.5 0.5H17.5C18.6046 0.5 19.5 1.39543 19.5 2.5V16.5C19.5 17.6046 18.6046 18.5 17.5 18.5H3.5C2.39543 18.5 1.5 17.6046 1.5 16.5V2.5Z" stroke="var(--mw-icon-border-default-gray, #616161)" stroke-linejoin="round"/>
<path d="M22.5 22.5L18.5 22.5L14.5 22.5H10.5V17.5H14.5V13.5H18.5V8.5H22.5V22.5Z" fill="var(--mw-icon-background-medium-yellow, #FFEF91)"/>
<path d="M18.5 22.5V8.5M14.5 22.5L14.5 17.5M14.5 17.5V13.5H18.5V8.5M14.5 17.5H10.5V22.5L22.5 22.5V8.5H18.5" stroke="#674C06" stroke-linecap="square" stroke-linejoin="round"/>
</svg>
