<svg width="24" height="24" viewBox="0 0 24 24" fill="none" xmlns="http://www.w3.org/2000/svg">
<path d="M1.5 2.5C1.5 1.39543 2.39543 0.5 3.5 0.5H17.5C18.6046 0.5 19.5 1.39543 19.5 2.5V16.5C19.5 17.6046 18.6046 18.5 17.5 18.5H3.5C2.39543 18.5 1.5 17.6046 1.5 16.5V2.5Z" fill="var(--mw-icon-background-default-white, #FFFFFF)"/>
<path d="M1.5 14.5H3.95455L17.0455 17.5H19.5" stroke="#0072BD" stroke-linejoin="round"/>
<path d="M1.5 10.5C3.54545 10.5 4.45455 8.5 6.5 8.5C8.54545 8.5 9.45455 10.5 11.5 10.5C13.5455 10.5 14.4545 8.5 16.5 8.5C18.5455 8.5 18.6818 9 19.5 10" stroke="#0072BD"/>
<path d="M1.5 3C1.5 3 2 2.5 2.5 2.5C3.72727 2.5 4.27273 4.5 5.5 4.5C6.72727 4.5 7.27273 2.5 8.5 2.5C9.72727 2.5 10.2727 4.5 11.5 4.5C12.7273 4.5 13.2727 2.5 14.5 2.5C15.7273 2.5 16.2727 4.5 17.5 4.5C18.7273 4.5 19.5 2.5 19.5 2.5" stroke="#0072BD" stroke-linejoin="round"/>
<path d="M2 6.5H19M2 12.5H19M3.5 18.5H17.5C18.6046 18.5 19.5 17.6046 19.5 16.5V2.5C19.5 1.39543 18.6046 0.5 17.5 0.5H3.5C2.39543 0.5 1.5 1.39543 1.5 2.5V16.5C1.5 17.6046 2.39543 18.5 3.5 18.5Z" stroke="var(--mw-icon-border-default-gray, #616161)"/>
<path d="M22.5 22.5L18.5 22.5L14.5 22.5H10.5V17.5H14.5V13.5H18.5V8.5H22.5V22.5Z" fill="var(--mw-icon-background-medium-yellow, #FFEF91)"/>
<path d="M18.5 22.5V8.5M14.5 22.5L14.5 17.5M14.5 17.5V13.5H18.5V8.5M14.5 17.5H10.5V22.5L22.5 22.5V8.5H18.5" stroke="#674C06" stroke-linecap="square" stroke-linejoin="round"/>
</svg>
