<svg width="24" height="24" viewBox="0 0 24 24" fill="none" xmlns="http://www.w3.org/2000/svg">
<path d="M1.5 2.5C1.5 1.39543 2.39543 0.5 3.5 0.5H17.5C18.6046 0.5 19.5 1.39543 19.5 2.5V16.5C19.5 17.6046 18.6046 18.5 17.5 18.5H3.5C2.39543 18.5 1.5 17.6046 1.5 16.5V2.5Z" fill="var(--mw-icon-background-default-white, #FFFFFF)"/>
<path d="M1.5 12.4862C3.5 12.5 6.5 3.5 6.5 3.5C6.5 3.5 8.5 12.5 11.5 12.5C14.5 12.5 15.5 5.5 15.5 5.5C15.5 5.5 16 12.5 19.5 12.4862" stroke="var(--mw-icon-glyph-content-light-blue, #278CDD)" stroke-miterlimit="1" stroke-linecap="round" stroke-linejoin="round"/>
<path d="M1.5 2.5C1.5 1.39543 2.39543 0.5 3.5 0.5H17.5C18.6046 0.5 19.5 1.39543 19.5 2.5V16.5C19.5 17.6046 18.6046 18.5 17.5 18.5H3.5C2.39543 18.5 1.5 17.6046 1.5 16.5V2.5Z" stroke="var(--mw-icon-border-default-gray, #616161)" stroke-linejoin="round"/>
<path d="M21.5 22.5L17.5 22.5L13.5 22.5H9.5V17.5H13.5V13.5H17.5V8.5H21.5V22.5Z" fill="var(--mw-icon-background-medium-yellow, #FFEF91)"/>
<path d="M17.5 22.5V8.5M13.5 22.5L13.5 17.5M13.5 17.5V13.5H17.5V8.5M13.5 17.5H9.5V22.5L21.5 22.5V8.5H17.5" stroke="#674C06" stroke-linecap="square" stroke-linejoin="round"/>
</svg>
