<svg width="24" height="24" viewBox="0 0 24 24" fill="none" xmlns="http://www.w3.org/2000/svg">
<path d="M0.5 18.5V4.5C0.5 2.29086 2.29086 0.5 4.5 0.5H18.5C20.7091 0.5 22.5 2.29086 22.5 4.5V18.5C22.5 20.7091 20.7091 22.5 18.5 22.5H4.5C2.29086 22.5 0.5 20.7091 0.5 18.5Z" fill="var(--mw-icon-border-default-green, #008013)"/>
<path d="M13.5 0.5V11.5L3 22" stroke="#3AC831" stroke-linecap="round"/>
<path d="M10.5 0.5V11.5L1.5 20.5" stroke="#3AC831" stroke-linecap="round"/>
<path d="M7.5 0.5V11.5L0.5 18.5" stroke="#3AC831" stroke-linecap="round"/>
<circle cx="18.5" cy="18.5" r="1" fill="var(--mw-icon-glyph-content-dark-gray, #333333)" stroke="#FFD60A"/>
<circle cx="4.5" cy="4.5" r="1" fill="var(--mw-icon-glyph-content-dark-gray, #333333)" stroke="#FFD60A"/>
<circle cx="18.5" cy="4.5" r="1" fill="var(--mw-icon-glyph-content-dark-gray, #333333)" stroke="#FFD60A"/>
<rect x="6.5" y="7.5" width="8" height="8" rx="0.5" fill="#7D7D7D" stroke="var(--mw-icon-glyph-content-dark-gray, #333333)"/>
<rect x="16" y="7" width="4" height="2" rx="1" fill="#BFBFBF"/>
<rect x="5" y="7" width="4" height="2" rx="1" transform="rotate(90 5 7)" fill="#BFBFBF"/>
<rect x="16" y="10" width="4" height="2" rx="1" fill="#BFBFBF"/>
<rect x="7" y="17" width="1" height="3" rx="0.5" fill="#FFD60A"/>
<rect x="15" y="17" width="1" height="3" rx="0.5" fill="#FFD60A"/>
<rect x="9" y="17" width="2" height="3" rx="0.5" fill="#FFD60A"/>
<rect x="12" y="17" width="2" height="3" rx="0.5" fill="#FFD60A"/>
<circle cx="4.5" cy="18.5" r="1" fill="var(--mw-icon-glyph-content-dark-gray, #333333)" stroke="#FFD60A"/>
<path d="M0.5 18.5V4.5C0.5 2.29086 2.29086 0.5 4.5 0.5H18.5C20.7091 0.5 22.5 2.29086 22.5 4.5V18.5C22.5 20.7091 20.7091 22.5 18.5 22.5H4.5C2.29086 22.5 0.5 20.7091 0.5 18.5Z" stroke="#013E0A" stroke-linecap="round"/>

</svg>
