<svg width="24" height="24" viewBox="0 0 24 24" fill="none" xmlns="http://www.w3.org/2000/svg">
<path d="M20.5 0.5H2.5C1.39543 0.5 0.5 1.39543 0.5 2.5V20.5C0.5 21.6046 1.39543 22.5 2.5 22.5H20.5C21.6046 22.5 22.5 21.6046 22.5 20.5V2.5C22.5 1.39543 21.6046 0.5 20.5 0.5Z" fill="var(--mw-icon-glyph-disabled-gray, #888889)" stroke="var(--mw-icon-border-default-gray, #616161)" stroke-linecap="round"/>
<path d="M20.4675 15.1614L4.5 20L7.92133 2.40457C7.96702 2.16962 8.1728 2 8.41214 2H20.5C20.7761 2 21 2.22386 21 2.5V6.51479C21 6.82118 20.8595 7.11066 20.6189 7.30028L17.1923 10H20C20.5523 10 21 10.4477 21 11V14.4436C21 14.774 20.7837 15.0655 20.4675 15.1614Z" fill="#027880"/>
<path d="M8.5 2.5H20.5V6.5H8.5V10.5H20.5V14.5H8.5" stroke="#74EBDA" stroke-linecap="round" stroke-linejoin="round"/>
<path d="M10 2L4.5 20L7.92133 2.40457C7.96702 2.16962 8.1728 2 8.41214 2H10Z" fill="var(--mw-icon-background-default-white, #FFFFFF)"/>
<path d="M4 20.75C4 20.8881 3.88807 21 3.75 21H3.25C3.11193 21 3 21.1119 3 21.25V22H6V21.25C6 21.1119 5.88807 21 5.75 21H5.25C5.11193 21 5 20.8881 5 20.75V20.25C5 20.1119 4.88807 20 4.75 20H4.25C4.11193 20 4 20.1119 4 20.25V20.75Z" fill="white"/>
<path d="M13 20C13 20.5523 12.5523 21 12 21C11.4477 21 11 20.5523 11 20C11 19.4477 11.4477 19 12 19C12.5523 19 13 19.4477 13 20Z" fill="var(--mw-icon-glyph-content-dark-gray, #333333)"/>
<path d="M5 10C5 10.5523 4.55228 11 4 11C3.44772 11 3 10.5523 3 10C3 9.44772 3.44772 9 4 9C4.55228 9 5 9.44772 5 10Z" fill="var(--mw-icon-glyph-content-dark-gray, #333333)"/>
<circle cx="17" cy="4" r="1" fill="white"/>
</svg>
