<svg width="24" height="24" viewBox="0 0 24 24" fill="none" xmlns="http://www.w3.org/2000/svg">
<path d="M13.4068 22.2828L13.8494 22.5155L13.4068 22.2828ZM9.11714 21.3397L9.61648 21.314L9.11714 21.3397ZM9.11026 21.2059L8.61142 21.1718L8.60938 21.2016L8.61092 21.2315L9.11026 21.2059ZM9.42704 16.5681L8.9282 16.5341L9.42704 16.5681ZM22.5 0.5V0V0.5ZM22.5 14.5V14V14.5ZM17.0575 14.2673L12.9643 22.05L13.8494 22.5155L17.9425 14.7327L17.0575 14.2673ZM9.61648 21.314L9.6096 21.1802L8.61092 21.2315L8.6178 21.3654L9.61648 21.314ZM9.6091 21.2399L9.92588 16.6022L8.9282 16.5341L8.61142 21.1718L9.6091 21.2399ZM8.42936 15H3.5V16H8.42936V15ZM5.5 1H17.5V2.86102e-06H5.5V1ZM17 0.500003V14.5H18V0.500003H17ZM1 12.4998V11.5H0V12.4998H1ZM1 11.5C1 9.29372 1.36925 6.60535 2.15621 4.4866C2.54998 3.42644 3.03696 2.54014 3.60813 1.92665C4.17253 1.32044 4.79804 1 5.5 1V2.86102e-06C4.45196 2.86102e-06 3.57747 0.492064 2.87624 1.24523C2.1818 1.99112 1.63752 3.01107 1.21879 4.13841C0.380753 6.39466 0 9.20628 0 11.5H1ZM3.5 15C2.11932 15 1 13.8806 1 12.4998H0C0 14.4328 1.56697 16 3.5 16V15ZM9.92588 16.6022C9.98507 15.7356 9.29803 15 8.42936 15V16C8.71892 16 8.94793 16.2452 8.9282 16.5341L9.92588 16.6022ZM11.3914 23C10.4453 23 9.66506 22.2589 9.61648 21.314L8.6178 21.3654C8.69371 22.8418 9.91296 24 11.3914 24V23ZM12.9643 22.05C12.6571 22.6342 12.0514 23 11.3914 23V24C12.4228 24 13.3693 23.4284 13.8494 22.5155L12.9643 22.05ZM22.5 14L17.5 14V15L22.5 15V14ZM17.5 1L22.5 1V0L17.5 2.86102e-06V1ZM23 1.5V13.5H24V1.5H23ZM22.5 1C22.7761 1 23 1.22386 23 1.5H24C24 0.671573 23.3284 0 22.5 0V1ZM22.5 15C23.3284 15 24 14.3284 24 13.5H23C23 13.7761 22.7761 14 22.5 14V15Z" fill="var(--mw-icon-object-primary, #616160)"/>
</svg>
