<svg width="24" height="24" viewBox="0 0 24 24" fill="none" xmlns="http://www.w3.org/2000/svg">
<path d="M10.5932 1.71723L10.1506 1.48449V1.48449L10.5932 1.71723ZM14.8829 2.6603L14.3835 2.68597V2.68597L14.8829 2.6603ZM14.8897 2.79415L15.3886 2.82822L15.3906 2.79836L15.3891 2.76847L14.8897 2.79415ZM14.573 7.43185L15.0718 7.46593V7.46593L14.573 7.43185ZM1.5 23.5V24H1.5L1.5 23.5ZM1.5 9.5V10H1.5L1.5 9.5ZM6.94253 9.73274L11.0357 1.94997L10.1506 1.48449L6.05747 9.26726L6.94253 9.73274ZM14.3835 2.68597L14.3904 2.81982L15.3891 2.76847L15.3822 2.63463L14.3835 2.68597ZM14.3909 2.76007L14.0741 7.39778L15.0718 7.46593L15.3886 2.82822L14.3909 2.76007ZM15.5706 9H20.5V8H15.5706V9ZM18.5 23H6.5V24H18.5V23ZM7 23.5V9.5H6V23.5H7ZM23 11.5002V12.5H24V11.5002H23ZM23 12.5C23 14.7063 22.6308 17.3947 21.8438 19.5134C21.45 20.5736 20.963 21.4599 20.3919 22.0734C19.8275 22.6796 19.202 23 18.5 23V24C19.548 24 20.4225 23.5079 21.1238 22.7548C21.8182 22.0089 22.3625 20.9889 22.7812 19.8616C23.6192 17.6053 24 14.7937 24 12.5H23ZM20.5 9C21.8807 9 23 10.1194 23 11.5002H24C24 9.56721 22.433 8 20.5 8V9ZM14.0741 7.39778C14.0149 8.26443 14.702 9 15.5706 9V8C15.2811 8 15.0521 7.75481 15.0718 7.46593L14.0741 7.39778ZM12.6086 1C13.5547 1 14.3349 1.74115 14.3835 2.68597L15.3822 2.63463C15.3063 1.15818 14.087 0 12.6086 0V1ZM11.0357 1.94997C11.3429 1.36579 11.9486 1 12.6086 1V0C11.5772 0 10.6307 0.571615 10.1506 1.48449L11.0357 1.94997ZM1.5 10L6.5 10L6.5 9L1.5 9L1.5 10ZM6.5 23L1.5 23L1.5 24L6.5 24V23ZM1 22.5V10.5H0V22.5H1ZM1.5 23C1.22386 23 1 22.7761 1 22.5H0C0 23.3284 0.671573 24 1.5 24V23ZM1.5 9C0.671573 9 0 9.67158 0 10.5H1C1 10.2239 1.22386 10 1.5 10V9Z" fill="var(--mw-icon-object-primary, #616160)"/>
</svg>
