<svg width="24" height="24" viewBox="0 0 24 24" fill="none" xmlns="http://www.w3.org/2000/svg">
<path d="M20.5 0.5H2.5C1.39543 0.5 0.5 1.39543 0.5 2.5V20.5C0.5 21.6046 1.39543 22.5 2.5 22.5H20.5C21.6046 22.5 22.5 21.6046 22.5 20.5V2.5C22.5 1.39543 21.6046 0.5 20.5 0.5Z" fill="var(--mw-icon-background-default-white, #FFFFFF)" stroke="var(--mw-icon-border-default-gray, #616161)" stroke-linecap="round"/>
<path d="M22.4999 11.5L0.499878 11.5" stroke="var(--mw-icon-border-default-gray, #616161)"/>
<path d="M22.5 2.5L21.5 9.5L20.5 2.5L19.5 9.5L18.5 2.5L17.5 9.5L16.5 2.5L15.5 9.5L14.5 2.5C14.5 2.5 14.2465 6.5 12.5 6.5C10.7535 6.5 10.5 2.5 10.5 2.5L9.5 9.5L8.5 2.5L7.5 9.5L6.5 2.5L5.5 9.5L4.5 2.5L3.5 9.5L2.5 2.5L1.5 9.5L0.5 2.5" stroke="#0072BD" stroke-linecap="round" stroke-linejoin="round"/>
<path d="M22.5 13.5L21.5 20.5L20.5 13.5L19.5 20.5L18.5 13.5L17.5 20.5L16.5 13.5L15.5 20.5L14.5 13.5C14.5 13.5 14.2465 17.5 12.5 17.5C10.7535 17.5 10.5 13.5 10.5 13.5L9.5 20.5L8.5 13.5L7.5 20.5L6.5 13.5L5.5 20.5L4.5 13.5L3.5 20.5L2.5 13.5L1.5 20.5L0.5 13.5" stroke="#0072BD" stroke-linecap="round" stroke-linejoin="round"/>
<path d="M20.5 0.5H2.5C1.39543 0.5 0.5 1.39543 0.5 2.5V20.5C0.5 21.6046 1.39543 22.5 2.5 22.5H20.5C21.6046 22.5 22.5 21.6046 22.5 20.5V2.5C22.5 1.39543 21.6046 0.5 20.5 0.5Z" stroke="var(--mw-icon-border-default-gray, #616161)" stroke-linecap="round"/>
</svg>
