<svg width="24" height="24" viewBox="0 0 24 24" fill="none" xmlns="http://www.w3.org/2000/svg">
<rect x="0.5" y="0.5" width="22" height="22" rx="2" fill="var(--mw-icon-background-default-white, #FFFFFF)"/>
<path d="M8.5 6.5C8.5 7.60457 7.60457 8.5 6.5 8.5M8.5 6.5C8.5 5.39543 7.60457 4.5 6.5 4.5C5.39543 4.5 4.5 5.39543 4.5 6.5C4.5 7.60457 5.39543 8.5 6.5 8.5M8.5 6.5C8.5 6.5 13 7 17.5 6.5C19.3479 6.29468 20.5 4.5 20.5 4.5M6.5 8.5C5.47498 10.895 6.42828 11.9303 6 14.5C5.5 17.5 3.5 19.5 3.5 19.5" stroke="#1171BE" stroke-linecap="round"/>
<rect x="0.5" y="0.5" width="22" height="22" rx="2" stroke="var(--mw-icon-border-default-gray, #616161)"/>
</svg>
