<svg width="24" height="24" viewBox="0 0 24 24" fill="none" xmlns="http://www.w3.org/2000/svg">
<path d="M3.5 19.5V4.5H20.5V19.5H3.5Z" stroke="var(--mw-icon-object-primary, #616160)"/>
<path d="M22 4.5C22 5.32843 21.3284 6 20.5 6C19.6716 6 19 5.32843 19 4.5C19 3.67157 19.6716 3 20.5 3C21.3284 3 22 3.67157 22 4.5Z" fill="var(--mw-icon-object-primary, #616160)"/>
<path d="M5 4.5C5 5.32843 4.32843 6 3.5 6C2.67157 6 2 5.32843 2 4.5C2 3.67157 2.67157 3 3.5 3C4.32843 3 5 3.67157 5 4.5Z" fill="var(--mw-icon-object-primary, #616160)"/>
<path d="M5 19.5C5 20.3284 4.32843 21 3.5 21C2.67157 21 2 20.3284 2 19.5C2 18.6716 2.67157 18 3.5 18C4.32843 18 5 18.6716 5 19.5Z" fill="var(--mw-icon-object-primary, #616160)"/>
<path d="M22 19.5C22 20.3284 21.3284 21 20.5 21C19.6716 21 19 20.3284 19 19.5C19 18.6716 19.6716 18 20.5 18C21.3284 18 22 18.6716 22 19.5Z" fill="var(--mw-icon-object-primary, #616160)"/>
</svg>
