<svg width="24" height="24" viewBox="0 0 24 24" fill="none" xmlns="http://www.w3.org/2000/svg">
<path d="M10 1H2C1.44772 1 1 1.44772 1 2L1 21C1 21.5523 1.44772 22 2 22H10V1Z" fill="var(--mw-icon-background-default-white, #FFFFFF)"/>
<path d="M13 1L21 1C21.5523 1 22 1.44772 22 2V21C22 21.5523 21.5523 22 21 22H13V1Z" fill="white"/>
<path d="M13 16H22V18H13V16Z" fill="#EDB120"/>
<path d="M1 18L10 16V18L1 20V18Z" fill="#EDB120"/>
<path d="M13 10H22V12H13V10Z" fill="#D95319"/>
<path d="M1 8L10 10V12L1 10V8Z" fill="#D95319"/>
<path d="M13 4H22V6H13V4Z" fill="#0072BD"/>
<path d="M1 1L10 4V6L1 3V1Z" fill="#0072BD"/>
<path d="M12.5 0.5H20.5C21.6046 0.5 22.5 1.39543 22.5 2.5V20.5C22.5 21.6046 21.6046 22.5 20.5 22.5H12.5V0.5Z" stroke="var(--mw-icon-border-default-gray, #616161)" stroke-linecap="round" stroke-linejoin="round"/>
<path d="M10.5 0.5H2.5C1.39543 0.5 0.5 1.39543 0.5 2.5V20.5C0.5 21.6046 1.39543 22.5 2.5 22.5H10.5V0.5Z" stroke="var(--mw-icon-border-default-gray, #616161)" stroke-linecap="round" stroke-linejoin="round"/>
</svg>
