<svg width="24" height="24" viewBox="0 0 24 24" fill="none" xmlns="http://www.w3.org/2000/svg">
<path d="M15.5 0.5H1.5C0.947715 0.5 0.5 0.947715 0.5 1.5V15.5C0.5 16.0523 0.947715 16.5 1.5 16.5H15.5C16.0523 16.5 16.5 16.0523 16.5 15.5V1.5C16.5 0.947715 16.0523 0.5 15.5 0.5Z" fill="var(--mw-icon-background-default-white, #FFFFFF)" stroke="var(--mw-icon-border-default-gray, #616161)" stroke-linecap="round"/>
<path fill-rule="evenodd" clip-rule="evenodd" d="M8.98926 8.01071C8.38228 7.40373 7.39818 7.40373 6.79121 8.01071L3.94572 10.8562C3.33875 11.4632 3.33875 12.4473 3.94572 13.0543C4.5527 13.6612 5.5368 13.6612 6.14377 13.0543L7.36327 11.8348C7.6543 11.5437 8.12617 11.5437 8.4172 11.8348C8.70824 12.1258 8.70824 12.5977 8.4172 12.8887L7.19771 14.1082C6.00866 15.2973 4.08083 15.2973 2.89179 14.1082C1.70274 12.9192 1.70274 10.9913 2.89179 9.80227L5.73727 6.95676C6.92632 5.76771 8.85415 5.76771 10.0432 6.95676C10.3342 7.2478 10.3342 7.71967 10.0432 8.01071C9.75216 8.30175 9.28029 8.30175 8.98926 8.01071Z" fill="var(--mw-icon-glyph-content-gray, #616162)"/>
<path fill-rule="evenodd" clip-rule="evenodd" d="M8.01074 8.98929C8.61772 9.59627 9.60182 9.59627 10.2088 8.98929L13.0543 6.14379C13.6613 5.53681 13.6613 4.55271 13.0543 3.94573C12.4473 3.33876 11.4632 3.33876 10.8562 3.94573L9.63674 5.16523C9.3457 5.45627 8.87384 5.45627 8.5828 5.16523C8.29176 4.87419 8.29176 4.40233 8.5828 4.11129L9.80229 2.89179C10.9913 1.70274 12.9192 1.70274 14.1082 2.89179C15.2973 4.08084 15.2973 6.00868 14.1082 7.19773L11.2627 10.0432C10.0737 11.2323 8.14585 11.2323 6.95681 10.0432C6.66577 9.7522 6.66577 9.28033 6.95681 8.98929C7.24784 8.69825 7.71971 8.69825 8.01074 8.98929Z" fill="var(--mw-icon-glyph-content-gray, #616162)"/>
<rect x="11.5" y="11.5" width="12" height="12" rx="6" fill="var(--mw-icon-background-default-selection, #B4DEFF)" stroke="var(--mw-icon-border-default-blue, #1656A7)"/>
<path d="M12 18H23V17H12V18ZM17 12L17 23H18L18 12L17 12ZM20 17.5C20 19.0961 19.6755 20.5163 19.1741 21.519C18.6578 22.5517 18.037 23 17.5 23V24C18.6198 24 19.4991 23.1052 20.0685 21.9662C20.653 20.7974 21 19.2176 21 17.5H20ZM17.5 23C16.963 23 16.3422 22.5517 15.8259 21.519C15.3245 20.5163 15 19.0961 15 17.5H14C14 19.2176 14.347 20.7974 14.9315 21.9662C15.5009 23.1052 16.3802 24 17.5 24V23ZM15 17.5C15 15.9039 15.3245 14.4837 15.8259 13.481C16.3422 12.4483 16.963 12 17.5 12V11C16.3802 11 15.5009 11.8948 14.9315 13.0338C14.347 14.2026 14 15.7824 14 17.5H15ZM17.5 12C18.037 12 18.6578 12.4483 19.1741 13.481C19.6755 14.4837 20 15.9039 20 17.5H21C21 15.7824 20.653 14.2026 20.0685 13.0338C19.4991 11.8948 18.6198 11 17.5 11V12ZM17.5 20C15.9039 20 14.4837 19.6755 13.481 19.1741C12.4483 18.6578 12 18.037 12 17.5H11C11 18.6198 11.8948 19.4991 13.0338 20.0685C14.2026 20.653 15.7824 21 17.5 21V20ZM12 17.5C12 16.963 12.4483 16.3422 13.481 15.8259C14.4837 15.3245 15.9039 15 17.5 15V14C15.7824 14 14.2026 14.347 13.0338 14.9315C11.8948 15.5009 11 16.3802 11 17.5H12ZM17.5 15C19.0961 15 20.5163 15.3245 21.519 15.8259C22.5517 16.3422 23 16.963 23 17.5H24C24 16.3802 23.1052 15.5009 21.9662 14.9315C20.7974 14.347 19.2176 14 17.5 14V15ZM23 17.5C23 18.037 22.5517 18.6578 21.519 19.1741C20.5163 19.6755 19.0961 20 17.5 20V21C19.2176 21 20.7974 20.653 21.9662 20.0685C23.1052 19.4991 24 18.6198 24 17.5H23Z" fill="var(--mw-icon-border-default-blue, #1656A7)"/>
</svg>
