<svg width="24" height="24" viewBox="0 0 24 24" fill="none" xmlns="http://www.w3.org/2000/svg">
<path d="M5.5 1.5H1.5V5.5M9.5 1.5H13.5M1.5 9.5V13.5M17.5 1.5H21.5V5.5M1.5 17.5V21.5H5.5M13.5 21.5H9.5M17.5 21.5H21.5V17.5M21.5 9.5V13.5" stroke="var(--mw-icon-object-primary, #616160)" stroke-linecap="round"/>
<path d="M2 0.5H1C0.723858 0.5 0.5 0.723858 0.5 1V2C0.5 2.27614 0.723858 2.5 1 2.5H2C2.27614 2.5 2.5 2.27614 2.5 2V1C2.5 0.723858 2.27614 0.5 2 0.5Z" fill="var(--mw-icon-object-secondary, #FFFFFE)"/>
<path d="M22 0.5H21C20.7239 0.5 20.5 0.723858 20.5 1V2C20.5 2.27614 20.7239 2.5 21 2.5H22C22.2761 2.5 22.5 2.27614 22.5 2V1C22.5 0.723858 22.2761 0.5 22 0.5Z" fill="var(--mw-icon-object-secondary, #FFFFFE)"/>
<path d="M2 20.5H1C0.723858 20.5 0.5 20.7239 0.5 21V22C0.5 22.2761 0.723858 22.5 1 22.5H2C2.27614 22.5 2.5 22.2761 2.5 22V21C2.5 20.7239 2.27614 20.5 2 20.5Z" fill="var(--mw-icon-object-secondary, #FFFFFE)"/>
<path d="M22 20.5H21C20.7239 20.5 20.5 20.7239 20.5 21V22C20.5 22.2761 20.7239 22.5 21 22.5H22C22.2761 22.5 22.5 22.2761 22.5 22V21C22.5 20.7239 22.2761 20.5 22 20.5Z" fill="var(--mw-icon-object-secondary, #FFFFFE)"/>
<path d="M2 0.5H1C0.723858 0.5 0.5 0.723858 0.5 1V2C0.5 2.27614 0.723858 2.5 1 2.5H2C2.27614 2.5 2.5 2.27614 2.5 2V1C2.5 0.723858 2.27614 0.5 2 0.5Z" stroke="var(--mw-icon-object-primary, #616160)"/>
<path d="M22 0.5H21C20.7239 0.5 20.5 0.723858 20.5 1V2C20.5 2.27614 20.7239 2.5 21 2.5H22C22.2761 2.5 22.5 2.27614 22.5 2V1C22.5 0.723858 22.2761 0.5 22 0.5Z" stroke="var(--mw-icon-object-primary, #616160)"/>
<path d="M2 20.5H1C0.723858 20.5 0.5 20.7239 0.5 21V22C0.5 22.2761 0.723858 22.5 1 22.5H2C2.27614 22.5 2.5 22.2761 2.5 22V21C2.5 20.7239 2.27614 20.5 2 20.5Z" stroke="var(--mw-icon-object-primary, #616160)"/>
<path d="M22 20.5H21C20.7239 20.5 20.5 20.7239 20.5 21V22C20.5 22.2761 20.7239 22.5 21 22.5H22C22.2761 22.5 22.5 22.2761 22.5 22V21C22.5 20.7239 22.2761 20.5 22 20.5Z" stroke="var(--mw-icon-object-primary, #616160)"/>
<path d="M4.5 8.5V15.5L11.5 19.5V12.5L4.5 8.5Z" fill="var(--mw-icon-background-default-selection, #B4DEFF)"/>
<path d="M11.5 12.5V19.5L18.5 15.5V8.5L11.5 12.5Z" fill="var(--mw-icon-background-medium-blue, #83CAFF)"/>
<path d="M4.5 8.5L11.5 12.5L18.5 8.5L11.5 4.5L4.5 8.5Z" fill="#F5FAFF"/>
<path d="M4.5 8.5V15.5L11.5 19.5M4.5 8.5L11.5 12.5M4.5 8.5L11.5 4.5L18.5 8.5M11.5 12.5V19.5M11.5 12.5L18.5 8.5M11.5 19.5L18.5 15.5V8.5" stroke="var(--mw-icon-border-default-blue, #1656A7)" stroke-linecap="round" stroke-linejoin="round"/>
</svg>
