<svg width="24" height="24" viewBox="0 0 24 24" fill="none" xmlns="http://www.w3.org/2000/svg">
<rect x="0.5" y="0.5" width="22" height="22" rx="2" fill="var(--mw-icon-background-default-white, #FFFFFF)"/>
<path d="M0.5 19.5C10.5 19.5 9 5.5 11.5 5.5C14 5.5 12.5 19.5 22.5 19.5" stroke="var(--mw-icon-glyph-content-light-blue, #278CDD)" stroke-linecap="round" stroke-linejoin="round"/>
<path d="M6 8.5C6 7.67157 6.67157 7 7.5 7C8.32843 7 9 7.67157 9 8.5C9 9.32843 8.32843 10 7.5 10C6.67157 10 6 9.32843 6 8.5Z" fill="var(--mw-icon-glyph-content-dark-gray, #333333)"/>
<path d="M3 15.5C3 14.6716 3.67157 14 4.5 14C5.32843 14 6 14.6716 6 15.5C6 16.3284 5.32843 17 4.5 17C3.67157 17 3 16.3284 3 15.5Z" fill="var(--mw-icon-glyph-content-dark-gray, #333333)"/>
<path d="M10 3.5C10 2.67157 10.6716 2 11.5 2C12.3284 2 13 2.67157 13 3.5C13 4.32843 12.3284 5 11.5 5C10.6716 5 10 4.32843 10 3.5Z" fill="var(--mw-icon-glyph-content-dark-gray, #333333)"/>
<path d="M15 11.5C15 10.6716 15.6716 10 16.5 10C17.3284 10 18 10.6716 18 11.5C18 12.3284 17.3284 13 16.5 13C15.6716 13 15 12.3284 15 11.5Z" fill="var(--mw-icon-glyph-content-dark-gray, #333333)"/>
<path d="M18 16.5C18 15.6716 18.6716 15 19.5 15C20.3284 15 21 15.6716 21 16.5C21 17.3284 20.3284 18 19.5 18C18.6716 18 18 17.3284 18 16.5Z" fill="var(--mw-icon-glyph-content-dark-gray, #333333)"/>
<rect x="0.5" y="0.5" width="22" height="22" rx="2" stroke="var(--mw-icon-border-default-gray, #616161)"/>
</svg>
