<svg width="24" height="24" viewBox="0 0 24 24" fill="none" xmlns="http://www.w3.org/2000/svg">
<rect x="0.5" y="0.5" width="22" height="22" rx="2" fill="var(--mw-icon-background-default-white, #FFFFFF)"/>
<path d="M10 12.5C10 11.6716 10.6716 11 11.5 11C12.3284 11 13 11.6716 13 12.5C13 13.3284 12.3284 14 11.5 14C10.6716 14 10 13.3284 10 12.5Z" fill="var(--mw-icon-glyph-content-dark-gray, #333333)"/>
<path d="M3 15.5C3 14.6716 3.67157 14 4.5 14C5.32843 14 6 14.6716 6 15.5C6 16.3284 5.32843 17 4.5 17C3.67157 17 3 16.3284 3 15.5Z" fill="var(--mw-icon-glyph-content-dark-gray, #333333)"/>
<path d="M17 12C17 11.1716 17.6716 10.5 18.5 10.5C19.3284 10.5 20 11.1716 20 12C20 12.8284 19.3284 13.5 18.5 13.5C17.6716 13.5 17 12.8284 17 12Z" fill="var(--mw-icon-glyph-content-dark-gray, #333333)"/>
<path d="M13 7.5C13 6.67157 13.6716 6 14.5 6C15.3284 6 16 6.67157 16 7.5C16 8.32843 15.3284 9 14.5 9C13.6716 9 13 8.32843 13 7.5Z" fill="var(--mw-icon-glyph-content-dark-gray, #333333)"/>
<path d="M5 9.5C5 8.67157 5.67157 8 6.5 8C7.32843 8 8 8.67157 8 9.5C8 10.3284 7.32843 11 6.5 11C5.67157 11 5 10.3284 5 9.5Z" fill="var(--mw-icon-glyph-content-dark-gray, #333333)"/>
<path d="M1.5 22C1.5 12 5.5 9.5 22.5 9.5" stroke="var(--mw-icon-glyph-content-light-blue, #278CDD)"/>
<rect x="0.5" y="0.5" width="22" height="22" rx="2" stroke="var(--mw-icon-border-default-gray, #616161)"/>
</svg>
