<svg width="24" height="24" viewBox="0 0 24 24" fill="none" xmlns="http://www.w3.org/2000/svg">
<rect x="0.5" y="0.5" width="22" height="22" rx="2" fill="var(--mw-icon-background-default-white, #FFFFFF)"/>
<path d="M1.5 21.5C3.5 19.5 3 5.5 5.5 5.5C8 5.5 8.5 19 21.5 21.5" stroke="var(--mw-icon-glyph-content-light-blue, #278CDD)" stroke-linecap="round" stroke-linejoin="round"/>
<path d="M4 13.5C4 12.6716 4.67157 12 5.5 12C6.32843 12 7 12.6716 7 13.5C7 14.3284 6.32843 15 5.5 15C4.67157 15 4 14.3284 4 13.5Z" fill="var(--mw-icon-glyph-content-dark-gray, #333333)"/>
<path d="M7 4.5C7 3.67157 7.67157 3 8.5 3C9.32843 3 10 3.67157 10 4.5C10 5.32843 9.32843 6 8.5 6C7.67157 6 7 5.32843 7 4.5Z" fill="var(--mw-icon-glyph-content-dark-gray, #333333)"/>
<path d="M11 11.5C11 10.6716 11.6716 10 12.5 10C13.3284 10 14 10.6716 14 11.5C14 12.3284 13.3284 13 12.5 13C11.6716 13 11 12.3284 11 11.5Z" fill="var(--mw-icon-glyph-content-dark-gray, #333333)"/>
<path d="M17 17.5C17 16.6716 17.6716 16 18.5 16C19.3284 16 20 16.6716 20 17.5C20 18.3284 19.3284 19 18.5 19C17.6716 19 17 18.3284 17 17.5Z" fill="var(--mw-icon-glyph-content-dark-gray, #333333)"/>
<path d="M7 19.5C7 18.6716 7.67157 18 8.5 18C9.32843 18 10 18.6716 10 19.5C10 20.3284 9.32843 21 8.5 21C7.67157 21 7 20.3284 7 19.5Z" fill="var(--mw-icon-glyph-content-dark-gray, #333333)"/>
<rect x="0.5" y="0.5" width="22" height="22" rx="2" stroke="var(--mw-icon-border-default-gray, #616161)"/>
</svg>
