<svg width="24" height="24" viewBox="0 0 24 24" fill="none" xmlns="http://www.w3.org/2000/svg">
<rect x="0.5" y="0.5" width="22" height="22" rx="2" fill="var(--mw-icon-background-default-white, #FFFFFF)"/>
<path d="M7 13.5C7 12.6716 7.67157 12 8.5 12C9.32843 12 10 12.6716 10 13.5C10 14.3284 9.32843 15 8.5 15C7.67157 15 7 14.3284 7 13.5Z" fill="var(--mw-icon-glyph-content-dark-gray, #333333)"/>
<path d="M13 12.5C13 11.6716 13.6716 11 14.5 11C15.3284 11 16 11.6716 16 12.5C16 13.3284 15.3284 14 14.5 14C13.6716 14 13 13.3284 13 12.5Z" fill="var(--mw-icon-glyph-content-dark-gray, #333333)"/>
<path d="M2 18C2 17.1716 2.67157 16.5 3.5 16.5C4.32843 16.5 5 17.1716 5 18C5 18.8284 4.32843 19.5 3.5 19.5C2.67157 19.5 2 18.8284 2 18Z" fill="var(--mw-icon-glyph-content-dark-gray, #333333)"/>
<path d="M18.5 5.5C18.5 4.67157 19.1716 4 20 4C20.8284 4 21.5 4.67157 21.5 5.5C21.5 6.32843 20.8284 7 20 7C19.1716 7 18.5 6.32843 18.5 5.5Z" fill="var(--mw-icon-glyph-content-dark-gray, #333333)"/>
<path d="M12 4.5C12 3.67157 12.6716 3 13.5 3C14.3284 3 15 3.67157 15 4.5C15 5.32843 14.3284 6 13.5 6C12.6716 6 12 5.32843 12 4.5Z" fill="var(--mw-icon-glyph-content-dark-gray, #333333)"/>
<path d="M1 20.5C7 20.5 10.2 17.5 12 11.5C14.1 4.5 18.5 2.5 22 2.5" stroke="var(--mw-icon-borderColor-light-blue, #268CDD)"/>
<rect x="0.5" y="0.5" width="22" height="22" rx="2" stroke="var(--mw-icon-border-default-gray, #616161)"/>
</svg>
