<svg width="24" height="24" viewBox="0 0 24 24" fill="none" xmlns="http://www.w3.org/2000/svg">
<path d="M0.5 18.5V4.5C0.5 2.29086 2.29086 0.5 4.5 0.5H18.5C20.7091 0.5 22.5 2.29086 22.5 4.5V18.5C22.5 20.7091 20.7091 22.5 18.5 22.5H4.5C2.29086 22.5 0.5 20.7091 0.5 18.5Z" fill="var(--mw-icon-background-default-white, #FFFFFF)"/>
<rect x="6" y="13" width="2" height="9" fill="#0072BD"/>
<rect x="3" y="20" width="2" height="2" fill="#0072BD"/>
<rect x="9" y="15" width="2" height="7" fill="#0072BD"/>
<rect x="12" y="6" width="2" height="16" fill="#0072BD"/>
<rect x="15" y="10" width="2" height="12" fill="#0072BD"/>
<rect x="18" y="15" width="2" height="7" fill="#0072BD"/>
<path d="M0.5 18.5V4.5C0.5 2.29086 2.29086 0.5 4.5 0.5H18.5C20.7091 0.5 22.5 2.29086 22.5 4.5V18.5C22.5 20.7091 20.7091 22.5 18.5 22.5H4.5C2.29086 22.5 0.5 20.7091 0.5 18.5Z" stroke="#3AC831" stroke-linecap="round"/>
</svg>
