<svg width="24" height="24" viewBox="0 0 24 24" fill="none" xmlns="http://www.w3.org/2000/svg">
<path d="M15.5 0.5H1.5C0.947715 0.5 0.5 0.947715 0.5 1.5V15.5C0.5 16.0523 0.947715 16.5 1.5 16.5H15.5C16.0523 16.5 16.5 16.0523 16.5 15.5V1.5C16.5 0.947715 16.0523 0.5 15.5 0.5Z" fill="var(--mw-icon-background-default-white, #FFFFFF)" stroke="var(--mw-icon-border-default-gray, #616161)" stroke-linecap="round"/>
<path fill-rule="evenodd" clip-rule="evenodd" d="M8.98926 8.01071C8.38228 7.40373 7.39818 7.40373 6.79121 8.01071L3.94572 10.8562C3.33875 11.4632 3.33875 12.4473 3.94572 13.0543C4.5527 13.6612 5.5368 13.6612 6.14377 13.0543L7.36327 11.8348C7.6543 11.5437 8.12617 11.5437 8.4172 11.8348C8.70824 12.1258 8.70824 12.5977 8.4172 12.8887L7.19771 14.1082C6.00866 15.2973 4.08083 15.2973 2.89179 14.1082C1.70274 12.9192 1.70274 10.9913 2.89179 9.80227L5.73727 6.95676C6.92632 5.76771 8.85415 5.76771 10.0432 6.95676C10.3342 7.2478 10.3342 7.71967 10.0432 8.01071C9.75216 8.30175 9.28029 8.30175 8.98926 8.01071Z" fill="var(--mw-icon-glyph-content-gray, #616162)"/>
<path fill-rule="evenodd" clip-rule="evenodd" d="M8.01074 8.98929C8.61772 9.59627 9.60182 9.59627 10.2088 8.98929L13.0543 6.14379C13.6613 5.53681 13.6613 4.55271 13.0543 3.94573C12.4473 3.33876 11.4632 3.33876 10.8562 3.94573L9.63674 5.16523C9.3457 5.45627 8.87384 5.45627 8.5828 5.16523C8.29176 4.87419 8.29176 4.40233 8.5828 4.11129L9.80229 2.89179C10.9913 1.70274 12.9192 1.70274 14.1082 2.89179C15.2973 4.08084 15.2973 6.00868 14.1082 7.19773L11.2627 10.0432C10.0737 11.2323 8.14585 11.2323 6.95681 10.0432C6.66577 9.7522 6.66577 9.28033 6.95681 8.98929C7.24784 8.69825 7.71971 8.69825 8.01074 8.98929Z" fill="var(--mw-icon-glyph-content-gray, #616162)"/>
<rect x="11.5" y="23.5" width="12" height="12" rx="1" transform="rotate(-90 11.5 23.5)" fill="var(--mw-icon-background-red, #FF9D9A)" stroke="var(--mw-icon-border-default-red, #902622)"/>
<path d="M20.1465 20.8536C20.3417 21.0488 20.6583 21.0488 20.8536 20.8536C21.0488 20.6583 21.0488 20.3417 20.8536 20.1464L20.1465 20.8536ZM14.8536 14.1464C14.6583 13.9512 14.3417 13.9512 14.1465 14.1464C13.9512 14.3417 13.9512 14.6583 14.1465 14.8536L14.8536 14.1464ZM14.1464 20.1464C13.9512 20.3417 13.9512 20.6583 14.1464 20.8536C14.3417 21.0488 14.6583 21.0488 14.8536 20.8536L14.1464 20.1464ZM20.8536 14.8536C21.0488 14.6583 21.0488 14.3417 20.8536 14.1464C20.6583 13.9512 20.3417 13.9512 20.1464 14.1464L20.8536 14.8536ZM20.8536 20.1464L14.8536 14.1464L14.1465 14.8536L20.1465 20.8536L20.8536 20.1464ZM14.8536 20.8536L20.8536 14.8536L20.1464 14.1464L14.1464 20.1464L14.8536 20.8536Z" fill="var(--mw-icon-glyph-content-dark-red, #610908)"/>
</svg>
