<svg width="24" height="24" viewBox="0 0 24 24" fill="none" xmlns="http://www.w3.org/2000/svg">
<path d="M2.5 17V5.63849C2.5 5.54787 2.52463 5.45895 2.57125 5.38124L5.35435 0.742752C5.44471 0.592149 5.60746 0.5 5.7831 0.5H10.2169C10.3925 0.5 10.5553 0.59215 10.6457 0.742752L13.4287 5.38124C13.4754 5.45895 13.5 5.54787 13.5 5.63849V17C13.5 17.2762 13.2761 17.5 13 17.5H7.94444L3 17.5C2.72386 17.5 2.5 17.2761 2.5 17Z" fill="var(--mw-icon-background-default-selection, #B4DEFF)" stroke="var(--mw-icon-border-default-blue, #1656A7)" stroke-linejoin="round"/>
<path d="M9 3C9 3.55228 8.55228 4 8 4C7.44772 4 7 3.55228 7 3C7 2.44772 7.44772 2 8 2C8.55228 2 9 2.44772 9 3Z" fill="var(--mw-icon-glyph-content-blue, #1656A8)"/>
<rect x="9.5" y="23.5" width="12" height="12" rx="1" transform="rotate(-90 9.5 23.5)" fill="var(--mw-icon-background-red, #FF9D9A)" stroke="var(--mw-icon-border-default-red, #902622)"/>
<path d="M18.1465 20.8536C18.3417 21.0488 18.6583 21.0488 18.8536 20.8536C19.0488 20.6583 19.0488 20.3417 18.8536 20.1464L18.1465 20.8536ZM12.8536 14.1464C12.6583 13.9512 12.3417 13.9512 12.1465 14.1464C11.9512 14.3417 11.9512 14.6583 12.1465 14.8536L12.8536 14.1464ZM12.1464 20.1464C11.9512 20.3417 11.9512 20.6583 12.1464 20.8536C12.3417 21.0488 12.6583 21.0488 12.8536 20.8536L12.1464 20.1464ZM18.8536 14.8536C19.0488 14.6583 19.0488 14.3417 18.8536 14.1464C18.6583 13.9512 18.3417 13.9512 18.1464 14.1464L18.8536 14.8536ZM18.8536 20.1464L12.8536 14.1464L12.1465 14.8536L18.1465 20.8536L18.8536 20.1464ZM12.8536 20.8536L18.8536 14.8536L18.1464 14.1464L12.1464 20.1464L12.8536 20.8536Z" fill="var(--mw-icon-glyph-content-dark-red, #610908)"/>
</svg>
