<svg width="24" height="24" viewBox="0 0 24 24" fill="none" xmlns="http://www.w3.org/2000/svg">
<path d="M1 22H22V11.5V1H1V11.5V22Z" fill="var(--mw-icon-background-default-white, #FFFFFF)"/>
<path d="M3.5 17.5V22.5M11.5 3.5L11.5 22.5M7.5 7.50004V22.5M15.5 13.5V22.5M19.5 17.5V22.5" stroke="#0072BD" stroke-linecap="round"/>
<path d="M5.5 9.5L9.5 13.5M5.5 13.5L9.5 9.5M13.5 13.5L17.5 17.5M13.5 17.5L17.5 13.5" stroke="var(--mw-icon-alert-red, #B7313C)" stroke-linecap="round" stroke-linejoin="round"/>
<path d="M0.5 2.5C0.5 1.39543 1.39543 0.5 2.5 0.5H20.5C21.6046 0.5 22.5 1.39543 22.5 2.5V20.5C22.5 21.6046 21.6046 22.5 20.5 22.5H2.5C1.39543 22.5 0.5 21.6046 0.5 20.5V2.5Z" stroke="var(--mw-icon-border-default-gray, #616161)" stroke-linejoin="round"/>
</svg>
