<svg width="24" height="24" viewBox="0 0 24 24" fill="none" xmlns="http://www.w3.org/2000/svg">
<path d="M0.5 2.5C0.5 1.39543 1.39543 0.5 2.5 0.5H20.5C21.6046 0.5 22.5 1.39543 22.5 2.5V20.5C22.5 21.6046 21.6046 22.5 20.5 22.5H2.5C1.39543 22.5 0.5 21.6046 0.5 20.5V2.5Z" fill="var(--mw-icon-background-default-white, #FFFFFF)"/>
<path d="M0.5 12.5C0.5 12.5 2.5 7.5 6.5 7.5C10.5 7.5 13.5 15.5 17.5 15.5C20.1161 15.3878 21.5 12.5 22.5 10.5" stroke="#0072BD" stroke-miterlimit="10"/>
<path d="M6.5 7.5C10.5 7.5 13.5 15.5 17.5 15.5" stroke="#D95319" stroke-miterlimit="10"/>
<path d="M15 13.5C15 14.3284 14.3284 15 13.5 15C12.6716 15 12 14.3284 12 13.5C12 12.6716 12.6716 12 13.5 12C14.3284 12 15 12.6716 15 13.5Z" fill="#D95319"/>
<path d="M12 9.5C12 10.3284 11.3284 11 10.5 11C9.67157 11 9 10.3284 9 9.5C9 8.67157 9.67157 8 10.5 8C11.3284 8 12 8.67157 12 9.5Z" fill="#D95319"/>
<path d="M3 11.5C3 12.3284 2.32843 13 1.5 13C0.671573 13 0 12.3284 0 11.5C0 10.6716 0.671573 10 1.5 10C2.32843 10 3 10.6716 3 11.5Z" fill="#0072BD"/>
<path d="M23 12.5C23 13.3284 22.3284 14 21.5 14C20.6716 14 20 13.3284 20 12.5C20 11.6716 20.6716 11 21.5 11C22.3284 11 23 11.6716 23 12.5Z" fill="#0072BD"/>
<path d="M7 7.5C7 8.32843 6.32843 9 5.5 9C4.67157 9 4 8.32843 4 7.5C4 6.67157 4.67157 6 5.5 6C6.32843 6 7 6.67157 7 7.5Z" fill="#0072BD"/>
<path d="M19 15.5C19 16.3284 18.3284 17 17.5 17C16.6716 17 16 16.3284 16 15.5C16 14.6716 16.6716 14 17.5 14C18.3284 14 19 14.6716 19 15.5Z" fill="#0072BD"/>
<path d="M0.5 2.5C0.5 1.39543 1.39543 0.5 2.5 0.5H20.5C21.6046 0.5 22.5 1.39543 22.5 2.5V20.5C22.5 21.6046 21.6046 22.5 20.5 22.5H2.5C1.39543 22.5 0.5 21.6046 0.5 20.5V2.5Z" stroke="var(--mw-icon-border-default-gray, #616161)" stroke-linejoin="round"/>
</svg>
