<svg width="24" height="24" viewBox="0 0 24 24" fill="none" xmlns="http://www.w3.org/2000/svg">
<path d="M0.5 18.5V4.5C0.5 2.29086 2.29086 0.5 4.5 0.5H18.5C20.7091 0.5 22.5 2.29086 22.5 4.5V18.5C22.5 20.7091 20.7091 22.5 18.5 22.5H4.5C2.29086 22.5 0.5 20.7091 0.5 18.5Z" fill="#BFBFBF"/>
<path d="M0.5 18.5V4.5H12.5L16.5 8.5V22.5H4.5C2.29086 22.5 0.5 20.7091 0.5 18.5Z" fill="var(--mw-icon-background-default-white, white)"/>
<path d="M3.5 7C3.22386 7 3 7.22386 3 7.5C3 7.77614 3.22386 8 3.5 8V7ZM9.5 8C9.77614 8 10 7.77614 10 7.5C10 7.22386 9.77614 7 9.5 7V8ZM3.5 8H9.5V7H3.5V8Z" fill="var(--mw-icon-border-default-red, #902622)"/>
<path d="M3.5 10C3.22386 10 3 10.2239 3 10.5C3 10.7761 3.22386 11 3.5 11V10ZM13.5 11C13.7761 11 14 10.7761 14 10.5C14 10.2239 13.7761 10 13.5 10V11ZM3.5 11H13.5V10H3.5V11Z" fill="var(--mw-icon-border-default-gray, #616161)"/>
<path d="M3.5 13C3.22386 13 3 13.2239 3 13.5C3 13.7761 3.22386 14 3.5 14V13ZM13.5 14C13.7761 14 14 13.7761 14 13.5C14 13.2239 13.7761 13 13.5 13V14ZM3.5 14H13.5V13H3.5V14Z" fill="var(--mw-icon-border-default-gray, #616161)"/>
<path d="M3.5 16C3.22386 16 3 16.2239 3 16.5C3 16.7761 3.22386 17 3.5 17V16ZM13.5 17C13.7761 17 14 16.7761 14 16.5C14 16.2239 13.7761 16 13.5 16V17ZM3.5 17H13.5V16H3.5V17Z" fill="var(--mw-icon-border-default-gray, #616161)"/>
<path d="M3.5 19C3.22386 19 3 19.2239 3 19.5C3 19.7761 3.22386 20 3.5 20V19ZM13.5 20C13.7761 20 14 19.7761 14 19.5C14 19.2239 13.7761 19 13.5 19V20ZM3.5 20H13.5V19H3.5V20Z" fill="var(--mw-icon-border-default-gray, #616161)"/>
<path d="M0.5 4.5H12.0858C12.351 4.5 12.6054 4.60536 12.7929 4.79289L16.2071 8.20711C16.3946 8.39464 16.5 8.649 16.5 8.91421V22.5" stroke="var(--mw-icon-glyph-content-dark-gray, #333333)" stroke-linejoin="round"/>
<path d="M0.5 18.5V4.5C0.5 2.29086 2.29086 0.5 4.5 0.5H18.5C20.7091 0.5 22.5 2.29086 22.5 4.5V18.5C22.5 20.7091 20.7091 22.5 18.5 22.5H4.5C2.29086 22.5 0.5 20.7091 0.5 18.5Z" stroke="var(--mw-icon-border-default-gray, #616161)" stroke-linecap="round"/>

</svg>
