<svg width="24" height="24" viewBox="0 0 24 24" fill="none" xmlns="http://www.w3.org/2000/svg">
<path d="M11.5 17.5H5.5V19.5M11.5 17.5H17.5V19.5M11.5 17.5V14.5" stroke="var(--mw-icon-object-primary, #616160)" stroke-linecap="square" stroke-linejoin="round"/>
<path d="M21.5 23.5V20.5H13.5V23.5H21.5Z" fill="var(--mw-icon-background-medium-blue, #83CAFF)"/>
<path d="M9.5 23.5V20.5H1.5V23.5H9.5Z" fill="var(--mw-icon-background-medium-blue, #83CAFF)"/>
<path d="M21.5 23.5V20.5H13.5V23.5H21.5Z" stroke="var(--mw-icon-border-default-blue, #1656A7)" stroke-linecap="square" stroke-linejoin="round"/>
<path d="M9.5 23.5V20.5H1.5V23.5H9.5Z" stroke="var(--mw-icon-border-default-blue, #1656A7)" stroke-linecap="square" stroke-linejoin="round"/>
<path d="M4.5 1.5C4.5 0.947716 4.94772 0.5 5.5 0.5H17.5C18.0523 0.5 18.5 0.947715 18.5 1.5V13.5C18.5 14.0523 18.0523 14.5 17.5 14.5H5.5C4.94772 14.5 4.5 14.0523 4.5 13.5V1.5Z" fill="var(--mw-icon-background-default-white, #FFFFFF)" stroke="var(--mw-icon-border-default-gray, #616161)"/>
<path fill-rule="evenodd" clip-rule="evenodd" d="M11.914 7.08598C11.4004 6.57239 10.5677 6.57239 10.0541 7.08598L7.64638 9.49372C7.13279 10.0073 7.13279 10.84 7.64638 11.3536C8.15998 11.8672 8.99267 11.8672 9.50627 11.3536L10.5381 10.3217C10.7844 10.0755 11.1837 10.0755 11.4299 10.3217C11.6762 10.568 11.6762 10.9673 11.4299 11.2135L10.3981 12.2454C9.39194 13.2515 7.76071 13.2515 6.75459 12.2454C5.74847 11.2393 5.74847 9.60804 6.75459 8.60192L9.16231 6.19419C10.1684 5.18806 11.7997 5.18806 12.8058 6.19419C13.052 6.44045 13.052 6.83972 12.8058 7.08598C12.5595 7.33225 12.1602 7.33225 11.914 7.08598Z" fill="var(--mw-icon-glyph-content-gray, #616162)"/>
<path fill-rule="evenodd" clip-rule="evenodd" d="M11.086 7.91401C11.5996 8.42761 12.4323 8.42761 12.9459 7.91402L15.3536 5.50628C15.8672 4.99269 15.8672 4.15999 15.3536 3.64639C14.84 3.13279 14.0073 3.13279 13.4937 3.64639L12.4619 4.67827C12.2156 4.92454 11.8163 4.92454 11.5701 4.67827C11.3238 4.43201 11.3238 4.03274 11.5701 3.78648L12.6019 2.75459C13.6081 1.74847 15.2393 1.74847 16.2454 2.75459C17.2515 3.76071 17.2515 5.39196 16.2454 6.39808L13.8377 8.80581C12.8316 9.81194 11.2003 9.81193 10.1942 8.80581C9.94796 8.55955 9.94796 8.16028 10.1942 7.91401C10.4405 7.66775 10.8398 7.66775 11.086 7.91401Z" fill="var(--mw-icon-glyph-content-gray, #616162)"/>
</svg>
