<svg width="24" height="24" viewBox="0 0 24 24" fill="none" xmlns="http://www.w3.org/2000/svg">
<path d="M2.5 19.5V3.5C2.5 3.22386 2.72386 3 3 3H10.5858C10.851 3 11.1054 3.10536 11.2929 3.29289L16.0196 8.01961C16.2071 8.20714 16.3125 8.4615 16.3125 8.72671V17.6679C16.3125 17.8005 16.2598 17.9277 16.1661 18.0214L14.4804 19.7071C14.2929 19.8946 14.0385 20 13.7733 20H3C2.72386 20 2.5 19.7761 2.5 19.5Z" fill="var(--mw-sidebar-icon-fill, #ffffff)" stroke="var(--mw-sidebar-icon-stroke, #616161)" stroke-linecap="round" stroke-linejoin="round"/>
<path d="M19 17L16.5 14.5L19 12L21.5 14.5L19 17Z" fill="var(--mw-sidebar-icon-fill, #ffffff)" stroke="var(--mw-sidebar-icon-stroke, #616161)" stroke-linejoin="round"/>
<path d="M19 17L14 22H11.5V19.5L16.5 14.5L19 17Z" fill="var(--mw-sidebar-icon-fill, #ffffff)" stroke="var(--mw-sidebar-icon-stroke, #616161)" stroke-linejoin="round"/>
<path d="M4 4.22727V11.5C4 12.6046 4.89543 13.5 6 13.5H6.36364C7.46821 13.5 8.36364 12.6046 8.36364 11.5V3.13636C8.36364 2.23263 7.63101 1.5 6.72727 1.5V1.5C5.82353 1.5 5.09091 2.23263 5.09091 3.13636V9.13636C5.09091 9.73886 5.57933 10.2273 6.18182 10.2273V10.2273C6.78431 10.2273 7.27273 9.73886 7.27273 9.13636V4.22727" stroke="var(--mw-sidebar-icon-stroke, #616161)" stroke-linecap="round"/>
</svg>
