<svg width="24" height="24" viewBox="0 0 24 24" fill="none" xmlns="http://www.w3.org/2000/svg">
<path d="M17.5 9H1.5C0.947715 9 0.5 9.44772 0.5 10V20C0.5 20.5523 0.947716 21 1.5 21H17.5C18.0523 21 18.5 20.5523 18.5 20V10C18.5 9.44772 18.0523 9 17.5 9Z" fill="var(--mw-icon-background-default-white, #FFFFFF)" stroke="var(--mw-icon-border-default-gray, #616161)" stroke-linecap="round"/>
<path d="M1 9.5L6.5 15M18 9.5L12.5 15M18 20.5L12.5 15M12.5 15L9.5 18L6.5 15M6.5 15L1 20.5" stroke="var(--mw-icon-border-default-gray, #616161)" stroke-linecap="round" stroke-linejoin="round"/>
<path d="M8.5 5.5L8.5 10.5H15.5V14L23 7.5L15.5 2L15.5 5.5H8.5Z" fill="var(--mw-icon-background-default-action, #CBFFBE)" stroke="var(--mw-icon-glyph-content-green, #008014)"/>
</svg>
