<svg width="24" height="25" viewBox="0 0 24 25" fill="none" xmlns="http://www.w3.org/2000/svg">
<g id="requiredHierarchy">
<path id="Vector 466" d="M14.5 10.5V11.5H19.5V13.5" stroke="var(--mw-icon-border-default-gray, #616161)" stroke-linecap="square" stroke-linejoin="round"/>
<path id="Vector 467" d="M14.5 7V11.5H9.5V13.5" stroke="var(--mw-icon-border-default-gray, #616161)" stroke-linecap="square" stroke-linejoin="round"/>
<path id="Vector 464" d="M23.5 18V14H15.5V18H23.5Z" fill="var(--mw-icon-background-light-yellow, #FFF5BC)" stroke="#674C06" stroke-linecap="square" stroke-linejoin="round"/>
<path id="Vector 463" d="M22.5 8V2C22.5 1.72386 22.2761 1.5 22 1.5H7C6.72386 1.5 6.5 1.72386 6.5 2V8C6.5 8.27614 6.72386 8.5 7 8.5H22C22.2761 8.5 22.5 8.27614 22.5 8Z" fill="var(--mw-icon-background-default-light-gray, #F5F5F5)" stroke="var(--mw-icon-object-primary, #616160)" stroke-linecap="square" stroke-linejoin="round"/>
<path id="Vector 548" d="M0.5 13.3077L0.5 18.6923H4.34615V23L13 16L4.34615 9V13.3077H0.5Z" fill="var(--mw-icon-background-default-action, #CBFFBE)" stroke="var(--mw-icon-border-default-green, #008013)"/>
</g>
</svg>
