<svg width="24" height="24" viewBox="0 0 24 24" fill="none" xmlns="http://www.w3.org/2000/svg">
<path d="M7.5 3.5L7.5 22.5C7.5 23.0523 7.94772 23.5 8.5 23.5L22.5 23.5C23.0523 23.5 23.5 23.0523 23.5 22.5L23.5 7.41421C23.5 7.149 23.3946 6.89464 23.2071 6.70711L19.2929 2.79289C19.1054 2.60536 18.851 2.5 18.5858 2.5L8.5 2.5C7.94771 2.5 7.5 2.94772 7.5 3.5Z" fill="var(--mw-icon-background-default-white, #FFFFFF)" stroke="var(--mw-icon-border-default-gray, #616161)"/>
<path d="M18.5 5.5V15C18.5 15.8284 17.8284 16.5 17 16.5V16.5C16.1716 16.5 15.5 15.8284 15.5 15V2.5C15.5 1.39543 16.3954 0.5 17.5 0.5V0.5C18.6046 0.5 19.5 1.39543 19.5 2.5V3" stroke="var(--mw-icon-border-default-gray, #616161)" stroke-linecap="round"/>
<path fill-rule="evenodd" clip-rule="evenodd" d="M8.96607 1.32589C8.7219 1.60672 8.49872 2.12253 8.35974 3.0799C8.30412 3.46305 8.13954 3.89555 7.93731 4.31921C7.73206 4.7492 7.47398 5.19866 7.20975 5.62228C6.68118 6.46972 6.11295 7.23762 5.85366 7.57847C5.61772 7.88862 5.13494 8.33502 4.66335 8.74396C4.35921 9.0077 4.04391 9.2692 3.771 9.49011C3.88197 9.5624 3.98944 9.63287 4.09215 9.70079C4.76203 10.1438 5.25807 10.8547 5.64153 11.5203C5.83582 11.8576 6.00863 12.1969 6.16246 12.4999L6.1699 12.5145C6.25005 12.6723 6.32401 12.818 6.39365 12.95C6.57815 12.845 6.80434 12.6808 7.05492 12.4501C7.45103 12.0855 8.3911 10.9488 8.9597 10.1637C9.29292 9.70357 9.75324 9.34686 10.2165 9.10511C10.6756 8.86557 11.174 8.72009 11.6 8.72009C11.9529 8.72009 12.3702 8.87771 12.715 9.03956C12.1771 7.47793 11.452 5.3286 11.2028 4.42861C11.014 3.74688 10.688 2.81948 10.3226 2.0704C10.139 1.69387 9.95469 1.38186 9.7842 1.17064C9.69899 1.06508 9.6282 0.998551 9.57499 0.961336C9.54958 0.943565 9.53378 0.936302 9.52679 0.933594C9.47541 0.93728 9.36581 0.973442 9.19449 1.11243C9.17257 1.13022 9.15045 1.14902 9.12818 1.16877L9.13047 1.17182C9.11557 1.18294 9.10071 1.19473 9.08588 1.20724C9.04631 1.24409 9.00633 1.28376 8.96607 1.32589Z" fill="#F57729"/>
<path fill-rule="evenodd" clip-rule="evenodd" d="M3.00298 8.99514C3.30974 8.75096 3.71234 8.42132 4.09522 8.0893C4.29052 7.91995 4.47448 7.75523 4.63574 7.60407L3.78346 6.98623C3.7814 6.98733 3.77937 6.98842 3.77738 6.98948C3.69356 7.03425 3.58891 7.08517 3.47179 7.13948C3.23665 7.24853 2.93299 7.37969 2.60582 7.51635C2.23011 7.67328 1.81856 7.83947 1.43555 7.99084C1.74616 8.19237 2.10536 8.4217 2.4755 8.65802C2.6502 8.76956 2.82737 8.88268 3.00298 8.99514ZM4.44592 6.39603L5.2308 6.965C5.50461 6.60134 6.00699 5.91256 6.47407 5.16373C6.72837 4.75603 6.96844 4.33648 7.15484 3.94598C7.1883 3.87588 7.21961 3.80758 7.2487 3.74121C7.19128 3.80807 7.13286 3.87438 7.07443 3.93912C6.75787 4.28987 6.3893 4.65209 6.11481 4.83298C5.65387 5.13675 5.3012 5.3833 5.07799 5.68C4.9317 5.87446 4.6779 6.15309 4.44592 6.39603Z" fill="#068CFC"/>
<path d="M0.5 7.88907L0.322231 7.42173C0.149021 7.48762 0.0264605 7.64391 0.00376406 7.82783C-0.0189323 8.01175 0.0619588 8.19314 0.213954 8.29916L0.5 7.88907ZM3.7193 6.51471L4.0668 6.87422L4.0668 6.87422L3.7193 6.51471ZM4.73113 5.41944L4.33158 5.11884L4.33158 5.11884L4.73113 5.41944ZM7.49056 2.69301L7.05439 2.44857L7.05439 2.44857L7.49056 2.69301ZM9.14969 1.17221C9.36709 1.00193 9.40529 0.687662 9.23501 0.470266C9.06474 0.25287 8.75047 0.21467 8.53307 0.384945L9.14969 1.17221ZM0.677769 8.3564C1.21008 8.15391 1.97498 7.8518 2.63094 7.57781C2.95841 7.44102 3.26298 7.30948 3.49926 7.19991C3.61688 7.14536 3.72281 7.09385 3.80822 7.04823C3.87205 7.01413 3.98596 6.95235 4.0668 6.87422L3.3718 6.1552C3.40767 6.12053 3.42025 6.12175 3.33706 6.16618C3.27546 6.19909 3.18867 6.24164 3.07855 6.29271C2.85937 6.39436 2.56837 6.52021 2.24551 6.65507C1.60081 6.92436 0.845997 7.2225 0.322231 7.42173L0.677769 8.3564ZM4.0668 6.87422C4.29244 6.65611 4.87339 6.06204 5.13069 5.72003L4.33158 5.11884C4.12603 5.39206 3.59584 5.93865 3.3718 6.1552L4.0668 6.87422ZM5.13069 5.72003C5.34579 5.4341 5.68825 5.19351 6.15092 4.88859L5.60065 4.05361C5.16395 4.3414 4.66827 4.6713 4.33158 5.11884L5.13069 5.72003ZM6.15092 4.88859C6.43305 4.70267 6.80643 4.33487 7.12334 3.98373C7.44279 3.62978 7.76537 3.22539 7.92674 2.93744L7.05439 2.44857C6.95003 2.63478 6.69006 2.97127 6.38098 3.31373C6.06936 3.65901 5.7682 3.94319 5.60065 4.05361L6.15092 4.88859ZM3.5511 9.20324C3.01414 8.84814 2.47647 8.52521 1.99807 8.23779C1.51336 7.94657 1.09945 7.69757 0.786046 7.47897L0.213954 8.29916C0.56145 8.54154 1.00864 8.80994 1.48307 9.09498C1.96382 9.38381 2.48334 9.696 2.99948 10.0373L3.5511 9.20324ZM3.45648 6.83197L4.84642 7.83957L5.43335 7.02993L4.04341 6.02233L3.45648 6.83197ZM7.92674 2.93744C8.04186 2.73203 8.20294 2.41042 8.42783 2.05227C8.65359 1.69274 8.90345 1.36507 9.14969 1.17221L8.53307 0.384945C8.14608 0.688056 7.82171 1.13706 7.58095 1.52049C7.33933 1.90529 7.14162 2.29291 7.05439 2.44857L7.92674 2.93744Z" fill="#004A88"/>
<path d="M11.6193 4.31305C11.2309 2.91031 10.3616 0.5 9.51733 0.5C8.67307 0.5 8.23371 1.54645 7.92972 3.01775C7.66911 4.27907 6.01859 6.64448 5.50759 7.31622C5.09879 7.85361 3.71566 8.98897 3.0752 9.48947L3.85198 10.0623C5.01707 10.8328 5.67116 12.6109 6.20261 13.5C6.50921 13.421 6.91802 13.1641 7.34726 12.769C7.77651 12.3739 8.7372 11.2082 9.30953 10.4179C9.88185 9.62765 10.9243 9.15348 11.5988 9.15348C12.1385 9.15348 13.091 9.70668 13.4998 9.98327C13.0024 8.56078 11.93 5.43524 11.6193 4.31305Z" stroke="#923800" stroke-linejoin="round"/>
</svg>
