<svg width="24" height="24" viewBox="0 0 24 24" fill="none" xmlns="http://www.w3.org/2000/svg">
<path d="M0.5 2.5C0.5 1.39543 1.39543 0.5 2.5 0.5H20.5C21.6046 0.5 22.5 1.39543 22.5 2.5V20.5C22.5 21.6046 21.6046 22.5 20.5 22.5H2.5C1.39543 22.5 0.5 21.6046 0.5 20.5V2.5Z" fill="var(--mw-icon-background-default-white, #FFFFFF)"/>
<path d="M0.5 12.5C0.5 12.5 2.5 7.5 6.5 7.5C10.5 7.5 13.5 15.5 17.5 15.5C20.1161 15.3878 21.5 12.5 22.5 10.5" stroke="#0072BD" stroke-miterlimit="10"/>
<circle cx="1.5" cy="11.5" r="1.5" fill="#D95319"/>
<circle cx="21.5" cy="12.5" r="1.5" fill="#D95319"/>
<path d="M0.5 2.5C0.5 1.39543 1.39543 0.5 2.5 0.5H20.5C21.6046 0.5 22.5 1.39543 22.5 2.5V20.5C22.5 21.6046 21.6046 22.5 20.5 22.5H2.5C1.39543 22.5 0.5 21.6046 0.5 20.5V2.5Z" stroke="var(--mw-icon-border-default-gray, #616161)" stroke-linejoin="round"/>
<circle cx="13.5" cy="13.5" r="1.5" fill="#D95319"/>
<circle cx="10.5" cy="9.5" r="1.5" fill="#D95319"/>
<circle cx="5.5" cy="7.5" r="1.5" fill="#0072BD"/>
<circle cx="17.5" cy="15.5" r="1.5" fill="#0072BD"/>
</svg>
