<svg width="24" height="24" viewBox="0 0 24 24" fill="none" xmlns="http://www.w3.org/2000/svg">
<rect x="0.5" y="0.5" width="22" height="22" rx="2" fill="var(--mw-icon-background-default-white, #FFFFFF)" stroke="var(--mw-icon-border-default-gray, #616161)"/>
<path d="M7 11.5C7 12.3284 6.32843 13 5.5 13C4.67157 13 4 12.3284 4 11.5C4 10.6716 4.67157 10 5.5 10C6.32843 10 7 10.6716 7 11.5Z" fill="#FF6929"/>
<path d="M14 4.5C14 5.32843 13.3284 6 12.5 6C11.6716 6 11 5.32843 11 4.5C11 3.67157 11.6716 3 12.5 3C13.3284 3 14 3.67157 14 4.5Z" fill="#FF6929"/>
<path d="M19 11.5C19 12.3284 18.3284 13 17.5 13C16.6716 13 16 12.3284 16 11.5C16 10.6716 16.6716 10 17.5 10C18.3284 10 19 10.6716 19 11.5Z" fill="#FF6929"/>
<path d="M12 18.5C12 19.3284 11.3284 20 10.5 20C9.67157 20 9 19.3284 9 18.5C9 17.6716 9.67157 17 10.5 17C11.3284 17 12 17.6716 12 18.5Z" fill="#FF6929"/>
<path d="M12.5 4.5V10.5M5.5 11.5V17.5M17.5 5.5V11.5M10.5 12.5V18.5" stroke="#FF6929"/>
<path d="M1 22L22 1" stroke="var(--mw-icon-glyph-content-light-blue, #278CDD)"/>
<rect x="0.5" y="0.5" width="22" height="22" rx="2" stroke="var(--mw-icon-border-default-gray, #616161)"/>
</svg>
