<svg width="24" height="26" viewBox="0 0 24 26" fill="none" xmlns="http://www.w3.org/2000/svg">
<path d="M7.5 6C7.5 5.72386 7.72386 5.5 8 5.5H15.0858C15.351 5.5 15.6054 5.60536 15.7929 5.79289L17.2071 7.20711C17.3946 7.39464 17.649 7.5 17.9142 7.5H23C23.2761 7.5 23.5 7.72386 23.5 8V12.9026V18C23.5 18.2761 23.2761 18.5 23 18.5H8C7.72386 18.5 7.5 18.2761 7.5 18V6Z" fill="var(--mw-icon-background-light-yellow, #FFF5BC)" stroke="#674C06"/>
<path fill-rule="evenodd" clip-rule="evenodd" d="M17.5357 13.6393C17.2993 13.5144 17.05 13.4106 16.7904 13.3303L16.4091 11.5H14.5909L14.2096 13.3303C13.95 13.4106 13.7007 13.5144 13.4643 13.6393L11.9002 12.6145L10.6145 13.9002L11.6393 15.4643C11.5144 15.7007 11.4106 15.95 11.3303 16.2096L9.5 16.5909V18.4091L11.3303 18.7904C11.4106 19.05 11.5144 19.2993 11.6393 19.5357L10.6145 21.0998L11.9002 22.3855L13.4643 21.3607C13.7007 21.4856 13.95 21.5894 14.2096 21.6697L14.5909 23.5H16.4091L16.7904 21.6697C17.05 21.5894 17.2993 21.4856 17.5357 21.3607L19.0998 22.3855L20.3855 21.0998L19.3607 19.5357C19.4856 19.2993 19.5894 19.05 19.6697 18.7904L21.5 18.4091V16.5909L19.6697 16.2096C19.5894 15.95 19.4856 15.7007 19.3607 15.4643L20.3855 13.9002L19.0998 12.6145L17.5357 13.6393Z" fill="var(--mw-icon-background-default-medium-gray, #D9D9D9)" stroke="var(--mw-icon-border-default-gray, #616161)"/>
<path d="M17.3 17.5C17.3 18.4941 16.4941 19.3 15.5 19.3C14.5058 19.3 13.7 18.4941 13.7 17.5C13.7 16.5059 14.5058 15.7 15.5 15.7C16.4941 15.7 17.3 16.5059 17.3 17.5Z" fill="var(--mw-icon-glyph-disabled-gray, #888889)"/>
</svg>
