<svg width="24" height="24" viewBox="0 0 24 24" fill="none" xmlns="http://www.w3.org/2000/svg">
<path d="M1 22H22V11.5V1H1V11.5V22Z" fill="var(--mw-icon-background-default-white, #FFFFFF)"/>
<path d="M0.5 14.5H22.5" stroke="var(--mw-icon-glyph-content-gray, #616162)" stroke-linejoin="round"/>
<path d="M0.5 18.5H22.5" stroke="var(--mw-icon-glyph-content-gray, #616162)" stroke-linejoin="round"/>
<rect x="2" y="19" width="1" height="1" fill="#1171BE"/>
<rect x="4" y="17" width="1" height="1" fill="#1171BE"/>
<rect x="10" y="17" width="1" height="1" fill="#1171BE"/>
<rect x="12" y="17" width="1" height="1" fill="#1171BE"/>
<rect x="18" y="17" width="1" height="1" fill="#1171BE"/>
<rect x="14" y="17" width="1" height="1" fill="#3BAA32"/>
<rect x="20" y="17" width="1" height="1" fill="#3BAA32"/>
<rect x="8" y="19" width="1" height="1" fill="#1171BE"/>
<rect x="16" y="19" width="1" height="3" fill="#DD5400"/>
<rect x="6" y="15" width="1" height="3" fill="#DD5400"/>
<path d="M3 4.5H6M4.5 3V6" stroke="#1171BE" stroke-linejoin="round"/>
<path d="M7 6.5H10M8.5 5V8" stroke="#3BAA32" stroke-linejoin="round"/>
<path d="M12 2.5H15M13.5 1V4" stroke="#DD5400" stroke-linejoin="round"/>
<path d="M17 4.5H20M18.5 3V6" stroke="#1171BE" stroke-linejoin="round"/>
<path d="M22.5 10.5H20.5L18.5 6.5L16.5 13.5L13.5 4.5L10.5 10.5L8.5 8.5L6.5 10.5L4.5 6.5L2.5 9.5H0.5" stroke="var(--mw-icon-glyph-content-gray, #616162)" stroke-linecap="round" stroke-linejoin="round"/>
<path d="M0.5 2.5C0.5 1.39543 1.39543 0.5 2.5 0.5H20.5C21.6046 0.5 22.5 1.39543 22.5 2.5V20.5C22.5 21.6046 21.6046 22.5 20.5 22.5H2.5C1.39543 22.5 0.5 21.6046 0.5 20.5V2.5Z" stroke="var(--mw-icon-border-default-gray, #616161)" stroke-linejoin="round"/>
</svg>
