<svg width="24" height="24" viewBox="0 0 24 24" fill="none" xmlns="http://www.w3.org/2000/svg">
<path d="M20.5 0.5H2.5C1.39543 0.5 0.5 1.39543 0.5 2.5V20.5C0.5 21.6046 1.39543 22.5 2.5 22.5H20.5C21.6046 22.5 22.5 21.6046 22.5 20.5V2.5C22.5 1.39543 21.6046 0.5 20.5 0.5Z" stroke="var(--mw-icon-object-primary, #616160)"/>
<path d="M13 9.5H10C9.72386 9.5 9.5 9.72386 9.5 10V13C9.5 13.2761 9.72386 13.5 10 13.5H13C13.2761 13.5 13.5 13.2761 13.5 13V10C13.5 9.72386 13.2761 9.5 13 9.5Z" stroke="var(--mw-icon-glyph-disabled-gray, #888889)" stroke-linecap="square"/>
<path d="M18.5 14.5H14.5M14.5 14.5V18.5M14.5 14.5L19.5 19.5M4.5 14.5H8.5M8.5 14.5V18.5M8.5 14.5L3.5 19.5M19.5 3.5L14.5 8.5M14.5 8.5V4.5M14.5 8.5H18.5M3.5 3.5L8.5 8.5M8.5 8.5V4.5M8.5 8.5H4.5" stroke="var(--mw-icon-object-primary, #616160)" stroke-linecap="round" stroke-linejoin="round"/>
</svg>
