<svg width="24" height="24" viewBox="0 0 24 24" fill="none" xmlns="http://www.w3.org/2000/svg">
<path d="M12.5 9.5C15.2614 9.5 17.5 11.7386 17.5 14.5C17.5 17.2614 15.2614 19.5 12.5 19.5C9.73857 19.5 7.5 17.2614 7.5 14.5C7.5 13.9477 7.05228 13.5 6.5 13.5H4.5C3.94771 13.5 3.5 13.9477 3.5 14.5C3.5 19.4706 7.52944 23.5 12.5 23.5C17.4706 23.5 21.5 19.4706 21.5 14.5C21.5 9.52944 17.4706 5.5 12.5 5.5H11.5L11.5 1L2.5 7.5L11.5 14L11.5 9.5H12.5Z" fill="var(--mw-icon-background-default-selection, #B4DEFF)" stroke="var(--mw-icon-border-default-blue, #1656A7)"/>
</svg>
