<svg width="24" height="24" viewBox="0 0 24 24" fill="none" xmlns="http://www.w3.org/2000/svg">
<path d="M0 1C0 0.447715 0.447715 0 1 0H5C5.55228 0 6 0.447715 6 1V5C6 5.55228 5.55228 6 5 6H1C0.447715 6 0 5.55228 0 5V1Z" fill="var(--mw-icon-background-red, #FF9D9A)"/>
<path d="M13 7C13 6.44772 13.4477 6 14 6H18C18.5523 6 19 6.44772 19 7V11C19 11.5523 18.5523 12 18 12H14C13.4477 12 13 11.5523 13 11V7Z" fill="var(--mw-icon-background-red, #FF9D9A)"/>
<path d="M13 14C13 13.4477 13.4477 13 14 13H18C18.5523 13 19 13.4477 19 14V18C19 18.5523 18.5523 19 18 19H14C13.4477 19 13 18.5523 13 18V14Z" fill="var(--mw-icon-background-default-selection, #B4DEFF)"/>
<path d="M0 14C0 13.4477 0.447715 13 1 13H5C5.55229 13 6 13.4477 6 14V18C6 18.5523 5.55229 19 5 19H1C0.447715 19 0 18.5523 0 18V14Z" fill="var(--mw-icon-background-default-selection, #B4DEFF)"/>
<path d="M1.5 1.5H4.5V4.5H1.5V1.5Z" fill="var(--mw-icon-background-red, #FF9D9A)" stroke="#B7312C" stroke-linejoin="round"/>
<path d="M14.5 7.5H17.5V10.5H14.5V7.5Z" fill="var(--mw-icon-background-red, #FF9D9A)" stroke="#B7312C" stroke-linejoin="round"/>
<path d="M13.5 0.5H17.5V4.5H13.5V0.5Z" fill="var(--mw-icon-background-default-medium-gray, #D9D9D9)" stroke="var(--mw-icon-glyph-disabled-gray, #888889)" stroke-linejoin="round"/>
<path d="M14.5 14.5H17.5V17.5H14.5V14.5Z" fill="var(--mw-icon-background-default-selection, #B4DEFF)" stroke="var(--mw-icon-glyph-content-light-blue, #278CDD)" stroke-linejoin="round"/>
<path d="M1.5 7.5H5.5V11.5H1.5V7.5Z" fill="var(--mw-icon-background-default-medium-gray, #D9D9D9)" stroke="var(--mw-icon-glyph-disabled-gray, #888889)" stroke-linejoin="round"/>
<path d="M1.5 14.5H4.5V17.5H1.5V14.5Z" fill="var(--mw-icon-background-default-selection, #B4DEFF)" stroke="var(--mw-icon-glyph-content-light-blue, #278CDD)" stroke-linejoin="round"/>
<path d="M4.5 15.5H14.5" stroke="var(--mw-icon-glyph-content-light-blue, #278CDD)" stroke-linecap="square" stroke-linejoin="round"/>
<path d="M4.5 2.5H9.5V8.5H14.5" stroke="#B7312C" stroke-linecap="square" stroke-linejoin="round"/>
<rect x="11.5" y="23.5" width="12" height="12" rx="1" transform="rotate(-90 11.5 23.5)" fill="var(--mw-icon-background-default-selection, #B4DEFF)" stroke="var(--mw-icon-border-default-blue, #1656A7)"/>
<path d="M14.5 17.5C14.5 18.0933 14.6759 18.6734 15.0056 19.1667C15.3352 19.6601 15.8038 20.0446 16.3519 20.2716C16.9001 20.4987 17.5033 20.5581 18.0853 20.4424C18.6672 20.3266 19.2018 20.0409 19.6213 19.6213C20.0409 19.2018 20.3266 18.6672 20.4424 18.0853C20.5581 17.5033 20.4987 16.9001 20.2716 16.3519C20.0446 15.8038 19.6601 15.3352 19.1667 15.0056C18.6734 14.6759 18.0933 14.5 17.5 14.5H17" stroke="var(--mw-icon-glyph-content-blue, #1656A8)" stroke-linecap="round"/>
<path d="M17 16V13L15 14.5L17 16Z" fill="var(--mw-icon-glyph-content-blue, #1656A8)"/>
</svg>
