<svg width="24" height="24" viewBox="0 0 24 24" fill="none" xmlns="http://www.w3.org/2000/svg">
<path d="M16.5 17.5L2.5 17.5C1.39543 17.5 0.5 16.6046 0.5 15.5L0.499999 4.5L18.5 4.5L18.5 15.5C18.5 16.6046 17.6046 17.5 16.5 17.5Z" fill="var(--mw-icon-background-default-white, #FFFFFF)" stroke="var(--mw-icon-border-default-gray, #616161)" stroke-linecap="round"/>
<path d="M18.5 4.5L0.5 4.5L0.5 2.5C0.5 1.39543 1.39543 0.500002 2.5 0.500002L16.5 0.500001C17.6046 0.500001 18.5 1.39543 18.5 2.5L18.5 4.5Z" fill="var(--mw-icon-background-default-selection, #B4DEFF)" stroke="var(--mw-icon-border-default-blue, #1656A7)" stroke-linecap="round"/>
<path d="M0 10.5H19" stroke="var(--mw-icon-border-default-gray, #616161)"/>
<path d="M9.5 18V5" stroke="var(--mw-icon-border-default-gray, #616161)"/>
<rect x="11.5" y="23.5" width="12" height="12" rx="1" transform="rotate(-90 11.5 23.5)" fill="var(--mw-icon-background-default-selection, #B4DEFF)" stroke="var(--mw-icon-border-default-blue, #1656A7)"/>
<path d="M14.5 17.5C14.5 18.0933 14.6759 18.6734 15.0056 19.1667C15.3352 19.6601 15.8038 20.0446 16.3519 20.2716C16.9001 20.4987 17.5033 20.5581 18.0853 20.4424C18.6672 20.3266 19.2018 20.0409 19.6213 19.6213C20.0409 19.2018 20.3266 18.6672 20.4424 18.0853C20.5581 17.5033 20.4987 16.9001 20.2716 16.3519C20.0446 15.8038 19.6601 15.3352 19.1667 15.0056C18.6734 14.6759 18.0933 14.5 17.5 14.5H17" stroke="var(--mw-icon-glyph-content-blue, #1656A8)" stroke-linecap="round"/>
<path d="M17 16V13L15 14.5L17 16Z" fill="var(--mw-icon-glyph-content-blue, #1656A8)"/>
</svg>
