<svg width="24" height="24" viewBox="0 0 24 24" fill="none" xmlns="http://www.w3.org/2000/svg">
<path d="M0.5 5.5H22.5V21.5C22.5 22.6046 21.6046 23.5 20.5 23.5H2.5C1.39543 23.5 0.5 22.6046 0.5 21.5V5.5Z" fill="var(--mw-icon-background-default-white, #FFFFFF)" stroke="var(--mw-icon-border-default-gray, #616161)"/>
<path d="M0.5 2.5C0.5 1.39543 1.39543 0.5 2.5 0.5H20.5C21.6046 0.5 22.5 1.39543 22.5 2.5V5.5H0.5V2.5Z" fill="var(--mw-icon-background-default-selection, #B4DEFF)" stroke="var(--mw-icon-border-default-blue, #1656A7)"/>
<path d="M11.5 12.5V14.5M11.5 14.5H7.5V16.5M11.5 14.5L15.5 14.5V16.5" stroke="var(--mw-icon-glyph-disabled-gray, #888889)" stroke-linecap="square" stroke-linejoin="round"/>
<path d="M8.50001 11V9C8.50001 8.72386 8.72387 8.5 9.00001 8.5H14C14.2761 8.5 14.5 8.72386 14.5 9V11C14.5 11.2761 14.2762 11.5 14 11.5H9.00001C8.72387 11.5 8.50001 11.2761 8.50001 11Z" fill="var(--mw-icon-background-default-medium-gray, #D9D9D9)"/>
<path d="M4.5 20V18C4.5 17.7239 4.72386 17.5 5 17.5H10C10.2761 17.5 10.5 17.7239 10.5 18V20C10.5 20.2761 10.2761 20.5 10 20.5H5C4.72386 20.5 4.5 20.2761 4.5 20Z" fill="var(--mw-icon-background-default-medium-gray, #D9D9D9)"/>
<path d="M12.5 20V18C12.5 17.7239 12.7239 17.5 13 17.5H18C18.2761 17.5 18.5 17.7239 18.5 18V20C18.5 20.2761 18.2761 20.5 18 20.5H13C12.7239 20.5 12.5 20.2761 12.5 20Z" fill="var(--mw-icon-background-default-medium-gray, #D9D9D9)"/>
<path d="M8.50001 11V9C8.50001 8.72386 8.72387 8.5 9.00001 8.5H14C14.2761 8.5 14.5 8.72386 14.5 9V11C14.5 11.2761 14.2762 11.5 14 11.5H9.00001C8.72387 11.5 8.50001 11.2761 8.50001 11Z" stroke="var(--mw-icon-glyph-content-gray, #616162)" stroke-linecap="square"/>
<path d="M4.5 20V18C4.5 17.7239 4.72386 17.5 5 17.5H10C10.2761 17.5 10.5 17.7239 10.5 18V20C10.5 20.2761 10.2761 20.5 10 20.5H5C4.72386 20.5 4.5 20.2761 4.5 20Z" stroke="var(--mw-icon-glyph-content-gray, #616162)" stroke-linecap="square"/>
<path d="M12.5 20V18C12.5 17.7239 12.7239 17.5 13 17.5H18C18.2761 17.5 18.5 17.7239 18.5 18V20C18.5 20.2761 18.2761 20.5 18 20.5H13C12.7239 20.5 12.5 20.2761 12.5 20Z" stroke="var(--mw-icon-glyph-content-gray, #616162)" stroke-linecap="square"/>
</svg>
