<svg width="24" height="24" viewBox="0 0 24 24" fill="none" xmlns="http://www.w3.org/2000/svg">
<path d="M0.5 18.5V4.5C0.5 2.29086 2.29086 0.5 4.5 0.5H18.5C20.7091 0.5 22.5 2.29086 22.5 4.5V18.5C22.5 20.7091 20.7091 22.5 18.5 22.5H4.5C2.29086 22.5 0.5 20.7091 0.5 18.5Z" fill="var(--mw-icon-background-default-white, #FFFFFF)"/>
<path d="M16.5 5.5V7.5H12.5H8.5H4.5V5.5H8.5H12.5H16.5Z" fill="var(--mw-icon-background-default-medium-gray, #D9D9D9)"/>
<path d="M8.5 5.5H4.5V7.5H8.5M8.5 5.5V7.5M8.5 5.5H12.5M8.5 7.5H12.5M12.5 5.5H16.5V7.5H12.5M12.5 5.5V7.5" stroke="var(--mw-icon-border-default-gray, #616161)" stroke-linejoin="round"/>
<path d="M8.5 7.5H4.5V10.5H8.5M8.5 7.5V10.5M8.5 7.5H12.5M8.5 10.5H12.5M12.5 7.5H16.5V10.5H12.5M12.5 7.5V10.5" stroke="var(--mw-icon-border-default-gray, #616161)" stroke-linejoin="round"/>
<path d="M8.5 10.5H4.5V13.5H8.5M8.5 10.5V13.5M8.5 10.5H12.5M8.5 13.5H12.5M12.5 10.5H16.5V13.5H12.5M12.5 10.5V13.5" stroke="var(--mw-icon-border-default-gray, #616161)" stroke-linejoin="round"/>
<circle cx="14.5" cy="14.5" r="5" fill="white" stroke="var(--mw-icon-border-default-gray, #616161)"/>
<path d="M14.5 11C15.0756 11 15.6423 11.1419 16.1499 11.4133C16.6575 11.6846 17.0904 12.0769 17.4101 12.5555C17.7299 13.0341 17.9267 13.5841 17.9831 14.1569C18.0396 14.7297 17.9538 15.3076 17.7336 15.8394C17.5133 16.3712 17.1653 16.8404 16.7204 17.2055C16.2754 17.5707 15.7473 17.8205 15.1828 17.9327C14.6183 18.045 14.0348 18.0164 13.484 17.8493C12.9332 17.6822 12.4321 17.3819 12.0251 16.9749L14.5 14.5L14.5 11Z" fill="var(--mw-icon-background-default-selection, #B4DEFF)"/>
<path d="M14.5001 11.5V14.5L12.0001 17" stroke="var(--mw-icon-glyph-content-gray, #616162)" stroke-linecap="square" stroke-linejoin="round"/>
<path d="M0.5 18.5V4.5C0.5 2.29086 2.29086 0.5 4.5 0.5H18.5C20.7091 0.5 22.5 2.29086 22.5 4.5V18.5C22.5 20.7091 20.7091 22.5 18.5 22.5H4.5C2.29086 22.5 0.5 20.7091 0.5 18.5Z" stroke="#B7312C" stroke-linecap="round"/>
</svg>
