<svg width="24" height="24" viewBox="0 0 24 24" fill="none" xmlns="http://www.w3.org/2000/svg">
<path d="M11.5 9.5C8.73858 9.5 6.5 11.7386 6.5 14.5C6.5 17.2614 8.73858 19.5 11.5 19.5C14.2614 19.5 16.5 17.2614 16.5 14.5C16.5 13.9477 16.9477 13.5 17.5 13.5H19.5C20.0523 13.5 20.5 13.9477 20.5 14.5C20.5 19.4706 16.4706 23.5 11.5 23.5C6.52944 23.5 2.5 19.4706 2.5 14.5C2.5 9.52944 6.52944 5.5 11.5 5.5H12.5L12.5 1L21.5 7.5L12.5 14L12.5 9.5H11.5Z" fill="var(--mw-icon-background-default-selection, #B4DEFF)" stroke="var(--mw-icon-border-default-blue, #1656A7)"/>
</svg>
