<svg width="24" height="24" viewBox="0 0 24 24" fill="none" xmlns="http://www.w3.org/2000/svg">
<rect x="0.5" y="0.5" width="18" height="18" rx="2" fill="var(--mw-icon-background-default-white, #FFFFFF)"/>
<path d="M0.5 9.5C1.5 5.61172 2.5 6.67216 3.5 10.5604C4.5 14.4487 5.5 13.3883 6.5 9.5C7.5 5.61172 8.5 4.55128 9.5 8.43956C10.5 12.3278 11.5 13.3883 12.5 9.5C13.5 5.61172 14.5 6.67216 15.5 10.5604C16.5 14.4487 17.5 13.3883 18.5 9.5" stroke="#0072BD" stroke-miterlimit="10"/>
<rect x="1" y="1" width="17" height="3" fill="var(--mw-icon-background-medium-yellow, #FFEF91)"/>
<rect x="1" y="4" width="17" height="1" fill="var(--mw-icon-glyph-content-yellow, #674C07)"/>
<rect x="1" y="14" width="17" height="1" fill="var(--mw-icon-glyph-content-yellow, #674C07)"/>
<rect x="1" y="15" width="17" height="3" fill="var(--mw-icon-background-medium-yellow, #FFEF91)"/>
<rect x="0.5" y="0.5" width="18" height="18" rx="2" stroke="var(--mw-icon-border-default-gray, #616161)"/>
<rect x="11.5" y="23.5" width="12" height="12" rx="1" transform="rotate(-90 11.5 23.5)" fill="var(--mw-icon-background-default-selection, #B4DEFF)" stroke="var(--mw-icon-border-default-blue, #1656A7)"/>
<path d="M20.5 17.5C20.5 18.0933 20.3241 18.6734 19.9944 19.1667C19.6648 19.6601 19.1962 20.0446 18.6481 20.2716C18.0999 20.4987 17.4967 20.5581 16.9147 20.4424C16.3328 20.3266 15.7982 20.0409 15.3787 19.6213C14.9591 19.2018 14.6734 18.6672 14.5576 18.0853C14.4419 17.5033 14.5013 16.9001 14.7284 16.3519C14.9554 15.8038 15.3399 15.3352 15.8333 15.0056C16.3266 14.6759 16.9067 14.5 17.5 14.5H18" stroke="var(--mw-icon-glyph-content-blue, #1656A8)" stroke-linecap="round"/>
<path d="M18 16V13L20 14.5L18 16Z" fill="var(--mw-icon-glyph-content-blue, #1656A8)"/>
</svg>
