<svg width="24" height="24" viewBox="0 0 24 24" fill="none" xmlns="http://www.w3.org/2000/svg">
<path d="M2.5 4.5C2.5 3.39543 3.39543 2.5 4.5 2.5H16.5C17.6046 2.5 18.5 3.39543 18.5 4.5V16.5C18.5 17.6046 17.6046 18.5 16.5 18.5H4.5C3.39543 18.5 2.5 17.6046 2.5 16.5V4.5Z" fill="var(--mw-icon-background-default-white, #FFFFFF)" stroke="var(--mw-icon-border-default-gray, #616161)" stroke-linejoin="round"/>
<path d="M0.5 2.5C0.5 1.39543 1.39543 0.5 2.5 0.5H14.5C15.6046 0.5 16.5 1.39543 16.5 2.5V14.5C16.5 15.6046 15.6046 16.5 14.5 16.5H2.5C1.39543 16.5 0.5 15.6046 0.5 14.5V2.5Z" fill="white"/>
<path d="M16.5 9.06096C13.8025 2.97953 11.1975 2.97976 8.5 9.06119C6.27778 13.6704 3.19753 13.9901 0.5 7.90866" stroke="#0072BD" stroke-linecap="round"/>
<path d="M0.5 2.5C0.5 1.39543 1.39543 0.5 2.5 0.5H14.5C15.6046 0.5 16.5 1.39543 16.5 2.5V14.5C16.5 15.6046 15.6046 16.5 14.5 16.5H2.5C1.39543 16.5 0.5 15.6046 0.5 14.5V2.5Z" stroke="var(--mw-icon-border-default-gray, #616161)" stroke-linejoin="round"/>
<path d="M9.5 21.5V11.5C9.5 10.3954 10.3954 9.5 11.5 9.5H21.5C22.6046 9.5 23.5 10.3954 23.5 11.5V21.5C23.5 22.6046 22.6046 23.5 21.5 23.5H11.5C10.3954 23.5 9.5 22.6046 9.5 21.5Z" fill="var(--mw-icon-background-default-selection, #B4DEFF)" stroke="var(--mw-icon-border-default-blue, #1656A7)" stroke-linejoin="round"/>
<path d="M16 15V10.5L19.5 12.5L16 15Z" fill="var(--mw-icon-glyph-content-blue, #1656A8)"/>
<path d="M16.5 12.5C15.7089 12.5 14.9355 12.7346 14.2777 13.1741C13.6199 13.6136 13.1072 14.2384 12.8045 14.9693C12.5017 15.7002 12.4225 16.5044 12.5769 17.2804C12.7312 18.0563 13.1122 18.769 13.6716 19.3284C14.231 19.8878 14.9437 20.2688 15.7196 20.4231C16.4956 20.5775 17.2998 20.4983 18.0307 20.1955C18.7616 19.8928 19.3864 19.3801 19.8259 18.7223C20.2654 18.0645 20.5 17.2911 20.5 16.5" stroke="var(--mw-icon-glyph-content-blue, #1656A8)" stroke-linecap="round" stroke-linejoin="round"/>
</svg>
