<svg width="24" height="24" viewBox="0 0 24 24" fill="none" xmlns="http://www.w3.org/2000/svg">
<path d="M4.5 0.5H18.5V14.4998H4.5V0.5Z" fill="var(--mw-icon-background-default-white, #FFFFFF)" stroke="var(--mw-icon-border-default-gray, #616161)" stroke-linejoin="round"/>
<path d="M0.5 4.5L3.5 7.5L0.5 10.5M19.5 4.5L22.5 7.5L19.5 10.5" stroke="var(--mw-icon-object-primary, #616160)" stroke-linecap="round" stroke-linejoin="round"/>
<path d="M16 14.5C14.6193 14.5 13.5 15.6193 13.5 17C13.5 18.3807 14.6193 19.5 16 19.5H16.8333C17.7538 19.5 18.5 18.7538 18.5 17.8333C18.5 17.6492 18.6492 17.5 18.8333 17.5H21.0833C21.3135 17.5 21.5 17.6865 21.5 17.9167C21.5 20.448 19.448 22.5 16.9167 22.5H16C12.9624 22.5 10.5 20.0376 10.5 17C10.5 13.9624 12.9624 11.5 16 11.5H16.5V8.5L22.5 13L16.5 17.5V14.5H16Z" fill="var(--mw-icon-background-default-selection, #B4DEFF)" stroke="var(--mw-icon-border-default-blue, #1656A7)"/>
</svg>
