<svg width="24" height="24" viewBox="0 0 24 24" fill="none" xmlns="http://www.w3.org/2000/svg">
<path d="M20.5 0.5H2.5C1.39543 0.5 0.5 1.39543 0.5 2.5V20.5C0.5 21.6046 1.39543 22.5 2.5 22.5H20.5C21.6046 22.5 22.5 21.6046 22.5 20.5V2.5C22.5 1.39543 21.6046 0.5 20.5 0.5Z" fill="var(--mw-icon-background-default-white, #FFFFFF)" stroke="var(--mw-icon-border-default-gray, #616161)" stroke-linecap="round"/>
<rect width="2" height="4" transform="matrix(1 -8.74228e-08 -8.74228e-08 -1 6 22)" fill="var(--mw-icon-glyph-disabled-gray, #888889)"/>
<rect width="2" height="12" transform="matrix(1 -8.74228e-08 -8.74228e-08 -1 6 14)" fill="var(--mw-icon-glyph-content-blue, #1656A8)"/>
<path d="M18.5 15.5H20.5V16.5H18.5V15.5ZM14.5 15.5H16.5V16.5H14.5V15.5ZM9.5 15.5H12.5V16.5H9.5V15.5Z" fill="var(--mw-icon-glyph-content-blue, #1656A8)" stroke="var(--mw-icon-glyph-content-light-blue, #278CDD)"/>
<rect width="6" height="6" rx="3" transform="matrix(-1 0 0 1 10 13)" fill="var(--mw-icon-background-lightest-blue, #E2F0FF)" stroke="var(--mw-icon-glyph-content-blue, #1656A8)" stroke-width="2"/>
<path d="M12 2L12 7L9 4.5L12 2Z" fill="var(--mw-icon-glyph-content-dark-blue, #104280)"/>
<path d="M16 11H21L18.5 14L16 11Z" fill="var(--mw-icon-glyph-content-dark-blue, #104280)"/>
<path d="M12 4.5C15.5899 4.5 18.5 7.41015 18.5 11" stroke="var(--mw-icon-glyph-content-dark-blue, #104280)"/>
</svg>
