<svg width="24" height="24" viewBox="0 0 24 24" fill="none" xmlns="http://www.w3.org/2000/svg">
<path d="M0.5 2.5C0.5 1.39543 1.39543 0.5 2.5 0.5H20.5C21.6046 0.5 22.5 1.39543 22.5 2.5V20.5C22.5 21.6046 21.6046 22.5 20.5 22.5H2.5C1.39543 22.5 0.5 21.6046 0.5 20.5V2.5Z" fill="var(--mw-icon-background-default-white, #FFFFFF)" stroke="var(--mw-icon-border-default-gray, #616161)"/>
<path d="M0.5 2.5C0.5 1.39543 1.39543 0.5 2.5 0.5H20.5C21.6046 0.5 22.5 1.39543 22.5 2.5V20.5C22.5 21.6046 21.6046 22.5 20.5 22.5H2.5C1.39543 22.5 0.5 21.6046 0.5 20.5V2.5Z" stroke="var(--mw-icon-border-default-gray, #616161)"/>
<circle cx="11.5" cy="11.5" r="8" fill="white" stroke="var(--mw-icon-glyph-content-gray, #616162)"/>
<path d="M5.5 5.5L17 17M5.5 17.5L17.5 5.5" stroke="var(--mw-icon-glyph-content-gray, #616162)"/>
<path d="M16.5 9.50003L16.5 13" stroke="var(--mw-icon-glyph-content-gray, #616162)" stroke-linecap="round"/>
<path d="M18 12L15 12L16.5 14L18 12Z" fill="var(--mw-icon-glyph-content-gray, #616162)"/>
</svg>
