<svg width="24" height="24" viewBox="0 0 24 24" fill="none" xmlns="http://www.w3.org/2000/svg">
<path d="M0.5 2.5C0.5 1.39543 1.39543 0.5 2.5 0.5H20.5C21.6046 0.5 22.5 1.39543 22.5 2.5V20.5C22.5 21.6046 21.6046 22.5 20.5 22.5H2.5C1.39543 22.5 0.5 21.6046 0.5 20.5V2.5Z" fill="var(--mw-icon-background-default-white, #FFFFFF)" stroke="var(--mw-icon-border-default-gray, #616161)"/>
<path d="M0.5 2.5C0.5 1.39543 1.39543 0.5 2.5 0.5H20.5C21.6046 0.5 22.5 1.39543 22.5 2.5V20.5C22.5 21.6046 21.6046 22.5 20.5 22.5H2.5C1.39543 22.5 0.5 21.6046 0.5 20.5V2.5Z" stroke="var(--mw-icon-border-default-gray, #616161)"/>
<path d="M4.5 7.5C4.5 7.5 5.66503 3.5 8.14 3.5C10.615 3.5 12.4757 9.5 14.86 9.5C16.7583 9.5 17.9015 7.37663 18.5 5.5" stroke="var(--mw-icon-glyph-content-gray, #616162)" stroke-linecap="round"/>
<path d="M18.5 15.5C18.5 15.5 17.335 19.5 14.86 19.5C12.385 19.5 10.5243 13.5 8.14 13.5C6.24173 13.5 5.09845 15.6234 4.5 17.5" stroke="var(--mw-icon-glyph-content-gray, #616162)" stroke-linecap="round"/>
<path d="M18.5 10.5C18.5 10.5 17.335 14.5 14.86 14.5C12.385 14.5 10.5243 8.5 8.14 8.5C6.24173 8.5 5.09845 10.6234 4.5 12.5" stroke="var(--mw-icon-glyph-content-gray, #616162)" stroke-linecap="round"/>
</svg>
