<svg width="24" height="24" viewBox="0 0 24 24" fill="none" xmlns="http://www.w3.org/2000/svg">
<path d="M0.5 2.5C0.5 1.39543 1.39543 0.5 2.5 0.5H20.5C21.6046 0.5 22.5 1.39543 22.5 2.5V20.5C22.5 21.6046 21.6046 22.5 20.5 22.5H2.5C1.39543 22.5 0.5 21.6046 0.5 20.5V2.5Z" fill="var(--mw-icon-background-default-white, #FFFFFF)" stroke="var(--mw-icon-border-default-gray, #616161)"/>
<path d="M0.5 2.5C0.5 1.39543 1.39543 0.5 2.5 0.5H20.5C21.6046 0.5 22.5 1.39543 22.5 2.5V20.5C22.5 21.6046 21.6046 22.5 20.5 22.5H2.5C1.39543 22.5 0.5 21.6046 0.5 20.5V2.5Z" stroke="var(--mw-icon-border-default-gray, #616161)"/>
<rect x="3.5" y="3.5" width="16" height="16" fill="white" stroke="var(--mw-icon-glyph-content-gray, #616162)" stroke-linejoin="round"/>
<path d="M15 11.4037V14.7487C14.8752 14.9131 14.6799 15.0936 14.4142 15.2901C14.1524 15.4826 13.8041 15.6491 13.3693 15.7894C12.9344 15.9298 12.3929 16 11.7446 16C11.193 16 10.6877 15.9078 10.2286 15.7233C9.76963 15.5348 9.37302 15.26 9.03883 14.8991C8.70866 14.5381 8.45298 14.0989 8.27179 13.5816C8.0906 13.0602 8 12.4666 8 11.8008V11.1932C8 10.5314 8.08254 9.94184 8.24763 9.42447C8.41674 8.90307 8.65833 8.4619 8.97239 8.10094C9.28645 7.73997 9.66494 7.46725 10.1079 7.28275C10.5548 7.09425 11.0601 7 11.6238 7C12.3445 7 12.9405 7.12032 13.4116 7.36096C13.8867 7.59759 14.2531 7.92647 14.5108 8.34759C14.7685 8.76872 14.9316 9.25 15 9.79144H13.5142C13.4659 9.48663 13.3713 9.2139 13.2304 8.97326C13.0935 8.73262 12.8962 8.54412 12.6385 8.40775C12.3848 8.26738 12.0546 8.19719 11.648 8.19719C11.2977 8.19719 10.9896 8.26337 10.7239 8.39572C10.4582 8.52807 10.2367 8.72259 10.0595 8.97928C9.8864 9.23596 9.75554 9.5488 9.66695 9.91778C9.57837 10.2868 9.53408 10.7079 9.53408 11.1811V11.8008C9.53408 12.2821 9.58441 12.7092 9.68507 13.0822C9.78976 13.4552 9.93874 13.7701 10.132 14.0267C10.3293 14.2834 10.5689 14.4779 10.8507 14.6103C11.1326 14.7386 11.4507 14.8028 11.805 14.8028C12.1513 14.8028 12.4351 14.7747 12.6566 14.7186C12.8781 14.6584 13.0532 14.5882 13.1821 14.508C13.3149 14.4238 13.4176 14.3436 13.4901 14.2674V12.5287H11.6601V11.4037H15Z" fill="var(--mw-icon-glyph-content-gray, #616162)"/>
</svg>
