<svg width="24" height="24" viewBox="0 0 24 24" fill="none" xmlns="http://www.w3.org/2000/svg">
<path d="M0.5 2.5C0.5 1.39543 1.39543 0.5 2.5 0.5H20.5C21.6046 0.5 22.5 1.39543 22.5 2.5V20.5C22.5 21.6046 21.6046 22.5 20.5 22.5H2.5C1.39543 22.5 0.5 21.6046 0.5 20.5V2.5Z" fill="var(--mw-icon-background-default-white, #FFFFFF)" stroke="var(--mw-icon-border-default-gray, #616161)"/>
<path d="M0.5 2.5C0.5 1.39543 1.39543 0.5 2.5 0.5H20.5C21.6046 0.5 22.5 1.39543 22.5 2.5V20.5C22.5 21.6046 21.6046 22.5 20.5 22.5H2.5C1.39543 22.5 0.5 21.6046 0.5 20.5V2.5Z" stroke="var(--mw-icon-border-default-gray, #616161)"/>
<path d="M12 6.50002C12 6.22387 11.7761 6.00002 11.5 6.00002C11.2239 6.00002 11 6.22387 11 6.50002H12ZM9.5 11C9.22386 11 9 11.2239 9 11.5C9 11.7761 9.22386 12 9.5 12L9.5 11ZM13.5 12C13.7761 12 14 11.7762 14 11.5C14 11.2239 13.7761 11 13.5 11L13.5 12ZM9.5 13.0001C9.22386 13.0001 9 13.2239 9 13.5001C9 13.7762 9.22386 14.0001 9.5 14.0001V13.0001ZM13.5 14.0001C13.7761 14.0001 14 13.7762 14 13.5001C14 13.2239 13.7761 13.0001 13.5 13.0001V14.0001ZM2.5 19C2.22386 19 2 19.2239 2 19.5C2 19.7761 2.22386 20 2.5 20V19ZM20.5 20C20.7761 20 21 19.7761 21 19.5C21 19.2239 20.7761 19 20.5 19V20ZM11 6.50002V11.5H12V6.50002H11ZM9.5 12L11.5 12L11.5 11L9.5 11L9.5 12ZM11.5 12L13.5 12L13.5 11L11.5 11L11.5 12ZM9.5 14.0001H13.5V13.0001H9.5V14.0001ZM11 13.5001V19.5H12V13.5001H11ZM2.5 20H11.5V19H2.5V20ZM11.5 20H20.5V19H11.5V20Z" fill="var(--mw-icon-glyph-content-gray, #616162)"/>
<path d="M6.52314 4.64C6.04444 3.94142 5.47232 3.41014 5.00669 3.51397C4.01969 3.73407 3.5 5.50379 3.5 6.5013H2.5M6.52314 4.64C7.07326 5.44279 7.5 6.46651 7.5 7.00121C7.5 8.00121 6.9935 8.50121 6.5 8.50121C6.0065 8.50121 5.5 8.00121 5.5 7.00121C5.5 6.44779 5.94825 5.43458 6.52314 4.64ZM6.52314 4.64C6.98705 3.99882 7.53343 3.5 7.99331 3.5C8.96353 3.5 9.5 5.48982 9.5 6.48733L12 6.5013H13.5C13.5 5.50379 14.0197 3.73407 15.0067 3.51397C15.4723 3.41014 16.0444 3.94142 16.5231 4.64M16.5231 4.64C17.0733 5.44279 17.5 6.46651 17.5 7.00121C17.5 8.00121 16.9935 8.50121 16.5 8.50121C16.0065 8.50121 15.5 8.00121 15.5 7.00121C15.5 6.44779 15.9482 5.43458 16.5231 4.64ZM16.5231 4.64C16.9871 3.99882 17.5334 3.5 17.9933 3.5C18.9635 3.5 19.5 5.48982 19.5 6.48733L20.5 6.48733" stroke="var(--mw-icon-glyph-content-gray, #616162)" stroke-linecap="round" stroke-linejoin="round"/>
</svg>
