<svg width="24" height="24" viewBox="0 0 24 24" fill="none" xmlns="http://www.w3.org/2000/svg">
<path d="M0.5 2.5C0.5 1.39543 1.39543 0.5 2.5 0.5H20.5C21.6046 0.5 22.5 1.39543 22.5 2.5V20.5C22.5 21.6046 21.6046 22.5 20.5 22.5H2.5C1.39543 22.5 0.5 21.6046 0.5 20.5V2.5Z" fill="var(--mw-icon-background-default-white, #FFFFFF)" stroke="var(--mw-icon-border-default-gray, #616161)"/>
<path d="M0.5 2.5C0.5 1.39543 1.39543 0.5 2.5 0.5H20.5C21.6046 0.5 22.5 1.39543 22.5 2.5V20.5C22.5 21.6046 21.6046 22.5 20.5 22.5H2.5C1.39543 22.5 0.5 21.6046 0.5 20.5V2.5Z" stroke="var(--mw-icon-border-default-gray, #616161)"/>
<path d="M19 11.8478C19 10.1553 17.8272 9.44901 15.5556 9.36377C15.5802 8.60883 15.716 8.3653 16.7654 8.3653V8H13.1975V8.3653C14.2469 8.3653 14.4074 8.59665 14.4198 9.36377C12.1605 9.46119 11 10.277 11 11.9452C11 13.6621 12.1358 14.4536 14.4198 14.5388C14.4074 15.4399 14.2346 15.6347 13.1975 15.6347V16H16.7654V15.6347C15.7407 15.6347 15.5679 15.4277 15.5556 14.5388C17.8272 14.4292 19 13.6134 19 11.8478ZM17.7407 11.8721C17.7407 13.5038 17.0617 14.003 15.5556 14.0883V9.81431C16.9383 9.9239 17.7407 10.484 17.7407 11.8721ZM12.2469 11.7991C12.2469 10.3744 13.0494 9.89954 14.4198 9.80213V14.0761C12.9012 13.9422 12.2469 13.2725 12.2469 11.7991Z" fill="var(--mw-icon-glyph-content-gray, #616162)"/>
<path d="M12 16V15.6616L8.35275 8H7.84692L4 15.6616V16H12ZM10.2163 15.0332H5.06489L7.75374 9.4864H7.80699L10.2163 15.0332Z" fill="var(--mw-icon-glyph-content-gray, #616162)"/>
</svg>
