<svg width="24" height="24" viewBox="0 0 24 24" fill="none" xmlns="http://www.w3.org/2000/svg">
<path d="M0.5 2.5C0.5 1.39543 1.39543 0.5 2.5 0.5H20.5C21.6046 0.5 22.5 1.39543 22.5 2.5V20.5C22.5 21.6046 21.6046 22.5 20.5 22.5H2.5C1.39543 22.5 0.5 21.6046 0.5 20.5V2.5Z" fill="var(--mw-icon-background-default-white, #FFFFFF)" stroke="var(--mw-icon-border-default-gray, #616161)"/>
<path d="M0.5 2.5C0.5 1.39543 1.39543 0.5 2.5 0.5H20.5C21.6046 0.5 22.5 1.39543 22.5 2.5V20.5C22.5 21.6046 21.6046 22.5 20.5 22.5H2.5C1.39543 22.5 0.5 21.6046 0.5 20.5V2.5Z" stroke="var(--mw-icon-border-default-gray, #616161)"/>
<path d="M19.5 11.5C19.5 15.9183 15.9183 19.5 11.5 19.5C7.08172 19.5 3.5 15.9183 3.5 11.5C3.5 7.08172 7.08172 3.5 11.5 3.5C15.9183 3.5 19.5 7.08172 19.5 11.5Z" fill="white"/>
<path d="M15.5 11.5C15.5 13.7091 13.7091 15.5 11.5 15.5C9.29086 15.5 7.5 13.7091 7.5 11.5C7.5 9.29086 9.29086 7.5 11.5 7.5C13.7091 7.5 15.5 9.29086 15.5 11.5Z" fill="white"/>
<path d="M19.5 11.5C19.5 15.9183 15.9183 19.5 11.5 19.5C7.08172 19.5 3.5 15.9183 3.5 11.5C3.5 7.08172 7.08172 3.5 11.5 3.5C15.9183 3.5 19.5 7.08172 19.5 11.5Z" stroke="var(--mw-icon-glyph-content-gray, #616162)"/>
<path d="M15.5 11.5C15.5 13.7091 13.7091 15.5 11.5 15.5C9.29086 15.5 7.5 13.7091 7.5 11.5C7.5 9.29086 9.29086 7.5 11.5 7.5C13.7091 7.5 15.5 9.29086 15.5 11.5Z" stroke="var(--mw-icon-glyph-content-gray, #616162)"/>
<path d="M3.5 11H3V12H3.5V11ZM11 3.5V19.5H12V3.5H11ZM3.5 12H19.5V11H3.5V12Z" fill="var(--mw-icon-glyph-content-gray, #616162)"/>
</svg>
