<svg width="24" height="24" viewBox="0 0 24 24" fill="none" xmlns="http://www.w3.org/2000/svg">
<path d="M0.5 2C0.5 1.17157 1.17157 0.5 2 0.5H21C21.8284 0.5 22.5 1.17157 22.5 2V21C22.5 21.8284 21.8284 22.5 21 22.5H2C1.17157 22.5 0.5 21.8284 0.5 21V2Z" fill="var(--mw-icon-glyph-content-green, #008014)"/>
<path d="M4 0.5H11.5H19V22.5H4V0.5Z" fill="var(--mw-icon-background-default-medium-gray, #D9D9D9)"/>
<path d="M5 1.00006H11.5H18V22.0001H5V1.00006Z" fill="var(--mw-icon-glyph-content-dark-gray, #333333)"/>
<path d="M11 9.05009H12V15.0001H11V9.05009Z" fill="var(--mw-icon-background-default-medium-gray, #D9D9D9)"/>
<path d="M11 1.00003H12V6.00003H11V1.00003Z" fill="var(--mw-icon-background-default-medium-gray, #D9D9D9)"/>
<path d="M11 18H12V22H11V18Z" fill="var(--mw-icon-background-default-medium-gray, #D9D9D9)"/>
<path d="M0.5 2.5C0.5 1.39543 1.39543 0.5 2.5 0.5H20.5C21.6046 0.5 22.5 1.39543 22.5 2.5V20.5C22.5 21.6046 21.6046 22.5 20.5 22.5H2.5C1.39543 22.5 0.5 21.6046 0.5 20.5V2.5Z" stroke="var(--mw-icon-border-default-gray, #616161)"/>
<rect x="14" y="16" width="3" height="6" fill="#4DBEEE"/>
<path d="M15.5005 16V1" stroke="#4DBEEE"/>
</svg>
