<svg width="24" height="24" viewBox="0 0 24 24" fill="none" xmlns="http://www.w3.org/2000/svg">
<path d="M0.5 2C0.5 1.17157 1.17157 0.5 2 0.5H21C21.8284 0.5 22.5 1.17157 22.5 2V21C22.5 21.8284 21.8284 22.5 21 22.5H2C1.17157 22.5 0.5 21.8284 0.5 21V2Z" fill="var(--mw-icon-glyph-content-green, #008014)"/>
<path d="M4 0.5H11.5H19V22.5H4V0.5Z" fill="var(--mw-icon-background-default-medium-gray, #D9D9D9)"/>
<path d="M5 1.00006H11.5H18V22.0001H5V1.00006Z" fill="var(--mw-icon-glyph-content-dark-gray, #333333)"/>
<path d="M0.5 2.5C0.5 1.39543 1.39543 0.5 2.5 0.5H20.5C21.6046 0.5 22.5 1.39543 22.5 2.5V20.5C22.5 21.6046 21.6046 22.5 20.5 22.5H2.5C1.39543 22.5 0.5 21.6046 0.5 20.5V2.5Z" stroke="var(--mw-icon-border-default-gray, #616161)"/>
<rect x="10" y="12" width="3" height="6" fill="#4DBEEE"/>
<path fill-rule="evenodd" clip-rule="evenodd" d="M7.20781 4.36885C8.44251 3.47952 9.95127 3 11.5 3C13.0488 3 14.5576 3.47952 15.7923 4.36885C16.0163 4.53024 16.0671 4.84272 15.9058 5.06679C15.7444 5.29086 15.4319 5.34167 15.2078 5.18028C14.1474 4.41651 12.8442 4 11.5 4C10.1559 4 8.85264 4.41651 7.79226 5.18028C7.56819 5.34167 7.25572 5.29086 7.09432 5.06679C6.93293 4.84272 6.98374 4.53024 7.20781 4.36885ZM8.35067 7.07774C9.22521 6.44783 10.3668 6.01426 11.5 6.01426C12.6333 6.01426 13.7749 6.34783 14.6494 6.97774C14.8735 7.13914 14.9243 7.55161 14.7629 7.77568C14.6015 7.99975 14.289 8.05056 14.065 7.88917C13.3329 7.36192 12.3918 7.01426 11.5 7.01426C10.6083 7.01426 9.66714 7.36192 8.93512 7.88917C8.71105 8.05056 8.39857 7.99975 8.23718 7.77568C8.07579 7.55161 8.1266 7.23914 8.35067 7.07774ZM9.60781 9.59429C10.154 9.20088 10.8191 8.99017 11.5 8.99017C12.1809 8.99017 12.8461 9.20089 13.3923 9.59429C13.6163 9.75568 13.6671 10.0682 13.5058 10.2922C13.3444 10.5163 13.0319 10.5671 12.8078 10.4057C12.436 10.1379 11.9763 9.99017 11.5 9.99017C11.0238 9.99017 10.5641 10.1379 10.1923 10.4057C9.9682 10.5671 9.65572 10.5163 9.49433 10.2922C9.33293 10.0682 9.38374 9.75568 9.60781 9.59429Z" fill="var(--mw-icon-background-default-light-gray, #F5F5F5)"/>
</svg>
