<svg width="24" height="24" viewBox="0 0 24 24" fill="none" xmlns="http://www.w3.org/2000/svg">
<path d="M6.5 6C6.5 2.96243 8.96243 0.5 12 0.5C15.0376 0.5 17.5 2.96243 17.5 6V17C17.5 20.0376 15.0376 22.5 12 22.5C8.96243 22.5 6.5 20.0376 6.5 17V6Z" fill="var(--mw-icon-glyph-disabled-gray, #888889)" stroke="var(--mw-icon-border-default-gray, #616161)"/>
<path d="M6.5 17C6.5 20.0376 8.96243 22.5 12 22.5C15.0376 22.5 17.5 20.0376 17.5 17V11.5H6.5V17Z" fill="var(--mw-icon-background-default-light-gray, #F5F5F5)" stroke="var(--mw-icon-border-default-gray, #616161)"/>
<path d="M7 8C7 5.23858 9.23858 3 12 3C14.7614 3 17 5.23858 17 8V11H7V8Z" fill="var(--mw-icon-background-default-medium-gray, #D9D9D9)"/>
</svg>
