<svg width="24" height="24" viewBox="0 0 24 24" fill="none" xmlns="http://www.w3.org/2000/svg">
<rect x="0.5" y="0.5" width="22" height="22" rx="2" fill="var(--mw-icon-background-default-white, #FFFFFF)"/>
<rect x="0.5" y="0.5" width="22" height="22" rx="2" stroke="var(--mw-icon-border-default-gray, #616161)"/>
<path d="M16.5 1.5V21.5" stroke="var(--mw-icon-background-default-dark-gray, #A6A6A6)" stroke-linecap="round" stroke-dasharray="2 2"/>
<path d="M1.5 11.5H21.5" stroke="var(--mw-icon-glyph-content-gray, #616162)" stroke-linecap="square"/>
<ellipse cx="5.5" cy="11.5" rx="2" ry="7" stroke="#1171BE"/>
<path d="M6.5 13.5L7.5 14.5M7.5 14.5L8.5 15.5M7.5 14.5L8.5 13.5M7.5 14.5L6.5 15.5" stroke="#DD5400" stroke-linecap="round"/>
<path d="M6.5 7.5L7.5 8.5M7.5 8.5L8.5 9.5M7.5 8.5L8.5 7.5M7.5 8.5L6.5 9.5" stroke="#DD5400" stroke-linecap="round"/>
<circle cx="6.5" cy="4.5" r="1" fill="white" stroke="#1171BE"/>
<circle cx="6.5" cy="18.5" r="1" fill="white" stroke="#1171BE"/>
<circle cx="12.5" cy="11.5" r="2" fill="white" stroke="#1171BE"/>
</svg>
