<svg width="24" height="24" viewBox="0 0 24 24" fill="none" xmlns="http://www.w3.org/2000/svg">
<path d="M0.5 18.5V4.5C0.5 2.29086 2.29086 0.5 4.5 0.5H18.5C20.7091 0.5 22.5 2.29086 22.5 4.5V18.5C22.5 20.7091 20.7091 22.5 18.5 22.5H4.5C2.29086 22.5 0.5 20.7091 0.5 18.5Z" fill="#E6E6E6"/>
<path d="M14.5 5.5H8.5" stroke="var(--mw-icon-glyph-content-gray, #616162)" stroke-linecap="round"/>
<path d="M6.5 7.5V10.5H13.5" stroke="var(--mw-icon-glyph-content-gray, #616162)" stroke-linecap="round" stroke-linejoin="round"/>
<path d="M3.5 4C3.5 3.72386 3.72386 3.5 4 3.5H9C9.27614 3.5 9.5 3.72386 9.5 4V7C9.5 7.27614 9.27614 7.5 9 7.5H4C3.72386 7.5 3.5 7.27614 3.5 7V4Z" fill="var(--mw-icon-background-medium-blue, #83CAFF)" stroke="var(--mw-icon-glyph-content-blue, #1656A8)"/>
<ellipse cx="16" cy="5.5" rx="3.5" ry="2" fill="var(--mw-icon-background-medium-yellow, #FFEF91)" stroke="var(--mw-icon-glyph-content-yellow, #674C07)"/>
<path d="M10.5 9.5H17.5L16.5 12.5H9.5L10.5 9.5Z" fill="#E6BFFF" stroke="#8D1FD7" stroke-linejoin="round"/>
<path d="M18.0423 19.4158C18.0423 19.2955 18.0245 19.1885 17.9891 19.0949C17.9561 19.0013 17.8966 18.9158 17.8104 18.8382C17.7243 18.7607 17.6027 18.6858 17.4456 18.6136C17.291 18.5388 17.0934 18.4626 16.8527 18.385C16.5892 18.2995 16.346 18.2045 16.123 18.1003C15.9026 17.9933 15.71 17.8703 15.5454 17.7313C15.3807 17.5896 15.2527 17.4278 15.1615 17.246C15.0703 17.0615 15.0247 16.8489 15.0247 16.6083C15.0247 16.3703 15.0716 16.1537 15.1653 15.9586C15.2616 15.7634 15.3971 15.5949 15.572 15.4532C15.7493 15.3088 15.9583 15.1979 16.199 15.1203C16.4397 15.0401 16.7058 15 16.9971 15C17.4076 15 17.761 15.0802 18.0575 15.2406C18.3565 15.4011 18.5857 15.6163 18.7454 15.8864C18.9075 16.1564 19 16.6517 19 16.9779H18.0423C18.0423 16.7854 18.003 16.4184 17.9245 16.2714C17.8485 16.1217 17.7319 16.004 17.5748 15.9184C17.4203 15.8329 17.2239 15.7901 16.9857 15.7901C16.7602 15.7901 16.5728 15.8262 16.4233 15.8984C16.2738 15.9706 16.1623 16.0682 16.0888 16.1912C16.0153 16.3142 15.9786 16.4532 15.9786 16.6083C15.9786 16.7179 16.0027 16.8182 16.0508 16.9091C16.099 16.9973 16.1724 17.0802 16.2712 17.1578C16.3701 17.2326 16.4942 17.3035 16.6437 17.3703C16.7932 17.4372 16.9693 17.5013 17.172 17.5628C17.4785 17.6591 17.7458 17.766 17.9739 17.8837C18.2019 17.9987 18.3919 18.1297 18.5439 18.2767C18.696 18.4238 18.81 18.5909 18.886 18.7781C18.962 18.9626 19 19.1725 19 19.4078C19 19.6537 18.9531 19.8757 18.8594 20.0735C18.7656 20.2687 18.6314 20.4358 18.4565 20.5749C18.2842 20.7112 18.0765 20.8168 17.8332 20.8917C17.5926 20.9639 17.324 21 17.0275 21C16.7615 21 16.4993 20.9626 16.2408 20.8877C15.9849 20.8128 15.7518 20.6992 15.5416 20.5468C15.3313 20.3917 15.2264 20.2423 15.1326 20.0056C15.0085 19.773 15 19.3246 15 19.0145H15.879C15.879 19.2043 15.8923 19.503 15.9531 19.6366C16.0164 19.7703 16.0838 19.8439 16.1953 19.9294C16.3068 20.0123 16.4117 20.1019 16.5587 20.142C16.7082 20.1821 16.8578 20.2139 17.0275 20.2139C17.2505 20.2139 17.4367 20.1805 17.5862 20.1136C17.7382 20.0468 17.8523 19.9532 17.9283 19.8329C18.0043 19.7126 18.0423 19.5735 18.0423 19.4158Z" fill="var(--mw-icon-glyph-content-dark-gray, #333333)"/>
<path d="M4 15H5.86493C6.26568 15 6.60728 15.0687 6.88974 15.206C7.17219 15.3434 7.38826 15.5467 7.53793 15.8159C7.69003 16.0824 7.76607 16.4121 7.76607 16.8049C7.76607 17.1044 7.71779 17.3681 7.62122 17.5962C7.52466 17.8242 7.38826 18.0165 7.21202 18.1731C7.03579 18.3269 6.82576 18.4464 6.58193 18.5316L6.30672 18.6841H4.63009L4.62285 17.864H5.87941C6.09669 17.864 6.27775 17.8201 6.4226 17.7321C6.56745 17.6442 6.67608 17.5247 6.74851 17.3736C6.82335 17.2198 6.86077 17.0467 6.86077 16.8544C6.86077 16.6456 6.82455 16.4643 6.75213 16.3104C6.68212 16.1538 6.57348 16.0343 6.42622 15.9519C6.27896 15.8668 6.09186 15.8242 5.86493 15.8242H5V21H4V15ZM7.00924 21L5.77078 18.3049L6.72316 18.3008L8 21H7.00924Z" fill="var(--mw-icon-glyph-content-dark-gray, #333333)"/>
<path d="M14 17.8396V18.1604C14 18.6016 13.9407 18.9973 13.822 19.3476C13.7034 19.6979 13.5337 19.996 13.3129 20.242C13.0949 20.488 12.8328 20.6765 12.5265 20.8075C12.2202 20.9358 11.8808 21 11.5083 21C11.1385 21 10.8005 20.9358 10.4942 20.8075C10.1907 20.6765 9.92715 20.488 9.70364 20.242C9.48013 19.996 9.30629 19.6979 9.18212 19.3476C9.06071 18.9973 9 18.6016 9 18.1604V17.8396C9 17.3984 9.06071 17.004 9.18212 16.6564C9.30353 16.3061 9.47461 16.008 9.69536 15.762C9.91887 15.5134 10.1824 15.3249 10.4859 15.1965C10.7922 15.0655 11.1302 15 11.5 15C11.8725 15 12.2119 15.0655 12.5182 15.1965C12.8245 15.3249 13.088 15.5134 13.3088 15.762C13.5295 16.008 13.6992 16.3061 13.8179 16.6564C13.9393 17.004 14 17.3984 14 17.8396ZM13 18C13 17.6738 12.928 17.2179 12.8618 16.9693C12.7983 16.7179 12.7031 16.508 12.5762 16.3396C12.452 16.1684 12.2988 16.0401 12.1167 15.9545C11.9346 15.8663 11.729 15.8222 11.5 15.8222C11.271 15.8222 11.0668 15.8663 10.8874 15.9545C10.7081 16.0401 10.5549 16.1684 10.428 16.3396C10.3038 16.508 10.2086 16.7179 10.1424 16.9693C10.0762 17.2179 10 17.6738 10 18C9.99638 18.3396 10.0762 18.7754 10.1424 19.0267C10.2086 19.2781 10.3052 19.4906 10.4321 19.6644C10.5618 19.8356 10.7163 19.9652 10.8957 20.0535C11.0751 20.139 11.2792 20.1818 11.5083 20.1818C11.7401 20.1818 11.9456 20.139 12.125 20.0535C12.3044 19.9652 12.4561 19.8356 12.5803 19.6644C12.7045 19.4906 12.7983 19.2781 12.8618 19.0267C12.928 18.7754 12.9902 18.3396 13 18Z" fill="var(--mw-icon-glyph-content-dark-gray, #333333)"/>
<path d="M0.5 18.5V4.5C0.5 2.29086 2.29086 0.5 4.5 0.5H18.5C20.7091 0.5 22.5 2.29086 22.5 4.5V18.5C22.5 20.7091 20.7091 22.5 18.5 22.5H4.5C2.29086 22.5 0.5 20.7091 0.5 18.5Z" stroke="var(--mw-icon-glyph-disabled-gray, #888889)" stroke-linecap="round"/>
</svg>
