<svg width="24" height="24" viewBox="0 0 24 24" fill="none" xmlns="http://www.w3.org/2000/svg">
<path d="M0.5 18.5V4.5C0.5 2.29086 2.29086 0.5 4.5 0.5H18.5C20.7091 0.5 22.5 2.29086 22.5 4.5V18.5C22.5 20.7091 20.7091 22.5 18.5 22.5H4.5C2.29086 22.5 0.5 20.7091 0.5 18.5Z" fill="#E6E6E6"/>
<path d="M9 3.5H16L12.5 6.38235C12.5 6.38235 19.5 10.9118 19.5 13.7941C19.5 16.6765 17.3125 17.5 16.4375 17.5H12.5H9C7.6875 17.5 5.5 16.6765 5.5 13.7941C5.5 10.9118 12.5 6.38235 12.5 6.38235L9 3.5Z" fill="var(--mw-icon-background-default-dark-gray, #A6A6A6)"/>
<path d="M9 3.5V3C8.78896 3 8.60064 3.13251 8.52937 3.33115C8.4581 3.5298 8.51924 3.7518 8.68215 3.88597L9 3.5ZM16 3.5L16.3179 3.88597C16.4808 3.7518 16.5419 3.5298 16.4706 3.33115C16.3994 3.13251 16.211 3 16 3V3.5ZM9 4H16V3H9V4ZM15.6821 3.11403L12.1821 5.99639L12.8179 6.76832L16.3179 3.88597L15.6821 3.11403ZM12.8179 5.99639L9.31785 3.11403L8.68215 3.88597L12.1821 6.76832L12.8179 5.99639ZM12.5 6.38235C12.2284 5.96257 12.2283 5.96262 12.2282 5.9627C12.2281 5.96274 12.228 5.96283 12.2278 5.96293C12.2275 5.96312 12.2271 5.96338 12.2266 5.9637C12.2256 5.96436 12.2242 5.96529 12.2223 5.96649C12.2186 5.96889 12.2133 5.97237 12.2063 5.97692C12.1924 5.98602 12.1721 5.99936 12.1457 6.01677C12.0931 6.05158 12.0164 6.10265 11.9191 6.16846C11.7245 6.30007 11.4474 6.49078 11.1153 6.72851C10.4517 7.20343 9.56463 7.86858 8.67553 8.62694C7.78912 9.38299 6.88662 10.2435 6.20154 11.1099C5.53234 11.9563 5 12.8948 5 13.7941H6C6 13.2523 6.34266 12.5437 6.98596 11.7302C7.61338 10.9366 8.46088 10.1244 9.32447 9.38777C10.1854 8.65348 11.0483 8.00613 11.6972 7.54171C12.0213 7.30977 12.2911 7.12411 12.4794 6.99675C12.5735 6.93308 12.6472 6.88402 12.697 6.85108C12.722 6.83461 12.7409 6.82217 12.7535 6.81395C12.7598 6.80984 12.7645 6.80678 12.7675 6.80481C12.769 6.80382 12.7701 6.8031 12.7708 6.80265C12.7712 6.80243 12.7714 6.80228 12.7715 6.80219C12.7716 6.80215 12.7716 6.80213 12.7717 6.80211C12.7717 6.80212 12.7716 6.80214 12.5 6.38235ZM20 13.7941C20 12.8948 19.4677 11.9563 18.7985 11.1099C18.1134 10.2435 17.2109 9.38299 16.3245 8.62694C15.4354 7.86858 14.5483 7.20343 13.8847 6.72851C13.5526 6.49078 13.2755 6.30007 13.0809 6.16846C12.9836 6.10265 12.9069 6.05158 12.8543 6.01677C12.8279 5.99936 12.8076 5.98602 12.7937 5.97692C12.7867 5.97237 12.7814 5.96889 12.7777 5.96649C12.7758 5.96529 12.7744 5.96436 12.7734 5.9637C12.7729 5.96338 12.7725 5.96312 12.7722 5.96293C12.772 5.96283 12.7719 5.96274 12.7718 5.9627C12.7717 5.96262 12.7716 5.96257 12.5 6.38235C12.2284 6.80214 12.2283 6.80212 12.2283 6.80211C12.2284 6.80213 12.2284 6.80215 12.2285 6.80219C12.2286 6.80228 12.2288 6.80243 12.2292 6.80265C12.2299 6.8031 12.231 6.80382 12.2325 6.80481C12.2355 6.80678 12.2402 6.80984 12.2465 6.81395C12.2591 6.82217 12.278 6.83461 12.303 6.85108C12.3528 6.88402 12.4265 6.93308 12.5206 6.99675C12.7089 7.12411 12.9787 7.30977 13.3028 7.54171C13.9517 8.00613 14.8146 8.65348 15.6755 9.38777C16.5391 10.1244 17.3866 10.9366 18.014 11.7302C18.6573 12.5437 19 13.2523 19 13.7941H20ZM5 13.7941C5 15.3787 5.60951 16.4526 6.44633 17.1191C7.26278 17.7693 8.25443 18 9 18V17C8.43307 17 7.67472 16.819 7.0693 16.3368C6.48424 15.8709 6 15.0919 6 13.7941H5ZM9 18H12.5V17H9V18ZM12.5 18H16.4375V17H12.5V18ZM16.4375 18C16.9954 18 17.8768 17.7507 18.6235 17.1065C19.392 16.4435 20 15.3779 20 13.7941H19C19 15.0927 18.5143 15.88 17.9703 16.3494C17.4044 16.8375 16.7546 17 16.4375 17V18Z" fill="var(--mw-icon-glyph-content-dark-gray, #333333)"/>
<path d="M10.5034 20.4325L7.5 17L8.5 16L11.5653 19.5032C11.8099 19.7828 11.7959 20.2041 11.5333 20.4667C11.2447 20.7553 10.7721 20.7396 10.5034 20.4325Z" fill="var(--mw-icon-background-default-light-gray, #F5F5F5)" stroke="var(--mw-icon-glyph-content-dark-blue, #104280)"/>
<path d="M9.32845 11.6716C10.8905 13.2337 10.8905 15.7663 9.3284 17.3284C7.76629 18.8905 5.23363 18.8905 3.67155 17.3284C2.10946 15.7663 2.10949 13.2337 3.6716 11.6716C5.23371 10.1095 7.76637 10.1095 9.32845 11.6716Z" fill="var(--mw-icon-background-default-white, #FFFFFF)" stroke="var(--mw-icon-glyph-content-dark-blue, #104280)"/>
<path d="M0.5 18.5V4.5C0.5 2.29086 2.29086 0.5 4.5 0.5H18.5C20.7091 0.5 22.5 2.29086 22.5 4.5V18.5C22.5 20.7091 20.7091 22.5 18.5 22.5H4.5C2.29086 22.5 0.5 20.7091 0.5 18.5Z" stroke="var(--mw-icon-border-disabled-gray, #888888)" stroke-linecap="round"/>
</svg>
