<svg width="24" height="24" viewBox="0 0 24 24" fill="none" xmlns="http://www.w3.org/2000/svg">
<circle cx="11" cy="11" r="11" transform="matrix(1 0 0 -1 0.5 22.5)" fill="#027880" stroke="#013A3E"/>
<path d="M19.5 11.5C19.5 7.08172 15.9183 3.5 11.5 3.5C7.08172 3.5 3.5 7.08172 3.5 11.5C3.5 15.9183 7.08172 19.5 11.5 19.5C15.9183 19.5 19.5 15.9183 19.5 11.5Z" stroke="#74EBDA"/>
<path d="M16.5 11.5C16.5 8.73858 14.2614 6.5 11.5 6.5C8.73858 6.5 6.5 8.73858 6.5 11.5C6.5 14.2614 8.73858 16.5 11.5 16.5C14.2614 16.5 16.5 14.2614 16.5 11.5Z" stroke="#74EBDA"/>
<path d="M11.5 22V1M1 11.5H22" stroke="#74EBDA"/>
<path d="M19.2782 3.72182C19.5967 4.04039 19.8954 4.37823 20.1726 4.73343L11.5 11.5L19.2782 3.72182Z" fill="var(--mw-icon-background-default-white, #FFFFFF)"/>
<path d="M17 14C17 14.5523 16.5523 15 16 15C15.4477 15 15 14.5523 15 14C15 13.4477 15.4477 13 16 13C16.5523 13 17 13.4477 17 14Z" fill="white"/>
<path d="M5 15C5 15.5523 4.55228 16 4 16C3.44772 16 3 15.5523 3 15C3 14.4477 3.44772 14 4 14C4.55228 14 5 14.4477 5 15Z" fill="white"/>
<path d="M9 8C9 8.55228 8.55228 9 8 9C7.44772 9 7 8.55228 7 8C7 7.44772 7.44772 7 8 7C8.55228 7 9 7.44772 9 8Z" fill="white"/>
<path d="M12.5 11.5C12.5 10.9477 12.0523 10.5 11.5 10.5C10.9477 10.5 10.5 10.9477 10.5 11.5C10.5 12.0523 10.9477 12.5 11.5 12.5C12.0523 12.5 12.5 12.0523 12.5 11.5Z" fill="white" stroke="var(--mw-icon-background-default-white, #FFFFFF)"/>
<circle cx="11" cy="11" r="11" transform="matrix(1 0 0 -1 0.5 22.5)" stroke="#013A3E"/>
</svg>
