<svg width="24" height="24" viewBox="0 0 24 24" fill="none" xmlns="http://www.w3.org/2000/svg">
<path d="M0.5 2.5C0.5 1.39543 1.39543 0.5 2.5 0.5H21.5C22.6046 0.5 23.5 1.39543 23.5 2.5V21.5C23.5 22.6046 22.6046 23.5 21.5 23.5H2.5C1.39543 23.5 0.5 22.6046 0.5 21.5V2.5Z" fill="var(--mw-icon-background-default-white, #FFFFFF)" stroke="var(--mw-icon-border-default-gray, #616161)"/>
<path d="M14.5 12C14.5 13.3807 13.3807 14.5 12 14.5C10.6193 14.5 9.5 13.3807 9.5 12C9.5 10.6193 10.6193 9.5 12 9.5C13.3807 9.5 14.5 10.6193 14.5 12Z" fill="var(--mw-icon-background-default-selection, #B4DEFF)" stroke="var(--mw-icon-border-default-blue, #1656A7)"/>
<path d="M17.3538 8.54435C17.1022 8.65805 16.9903 8.95422 17.104 9.20587L18.9569 13.3067C19.0706 13.5584 19.3668 13.6702 19.6184 13.5565C19.87 13.4428 19.9819 13.1466 19.8682 12.895L18.2212 9.24978L21.8664 7.6028C22.118 7.48909 22.2299 7.19292 22.1162 6.94127C22.0025 6.68962 21.7063 6.5778 21.4546 6.6915L17.3538 8.54435ZM21.023 11.475L21.4461 11.2086L21.023 11.475ZM17.629 17.0336L17.8086 17.5002H17.8086L17.629 17.0336ZM2.99055 14.6064L3.41182 14.3371L2.99055 14.6064ZM2.93746 11.5392L2.50891 11.2816L2.50891 11.2816L2.93746 11.5392ZM17.3831 9.46777C18.952 10.0602 20.053 10.8728 20.5999 11.7414L21.4461 11.2086C20.7395 10.0864 19.4161 9.1665 17.7363 8.53223L17.3831 9.46777ZM20.5999 11.7414C21.1262 12.5773 21.1327 13.4467 20.6228 14.2817L21.4763 14.8029C22.1855 13.6413 22.1734 12.3635 21.4461 11.2086L20.5999 11.7414ZM20.6228 14.2817C20.0923 15.1505 19.0075 15.9674 17.4495 16.5669L17.8086 17.5002C19.478 16.8578 20.7876 15.9308 21.4763 14.8029L20.6228 14.2817ZM17.4495 16.5669C15.9007 17.1629 14.0146 17.493 12.0627 17.4999L12.0662 18.4999C14.1208 18.4926 16.1299 18.1462 17.8086 17.5002L17.4495 16.5669ZM12.0627 17.4999C10.1109 17.5068 8.21571 17.1902 6.65048 16.6049L6.30019 17.5415C7.99432 18.1751 10.0116 18.5072 12.0662 18.4999L12.0627 17.4999ZM6.65048 16.6049C5.07613 16.0161 3.96702 15.2056 3.41182 14.3371L2.56928 14.8757C3.28488 15.9951 4.61518 16.9113 6.30019 17.5415L6.65048 16.6049ZM3.41182 14.3371C2.87722 13.5009 2.86434 12.6314 3.36601 11.7968L2.50891 11.2816C1.80878 12.4465 1.83306 13.7241 2.56928 14.8757L3.41182 14.3371ZM3.36601 11.7968C3.88817 10.928 4.96486 10.109 6.51735 9.50591L6.15523 8.57378C4.49109 9.22027 3.18854 10.1509 2.50891 11.2816L3.36601 11.7968Z" fill="var(--mw-icon-glyph-content-gray, #616162)"/>
<path d="M14.7941 6.89598C15.0458 7.00968 15.3419 6.89785 15.4556 6.6462L17.3085 2.54536C17.4222 2.29371 17.3104 1.99753 17.0587 1.88383C16.8071 1.77013 16.5109 1.88196 16.3972 2.13361L14.7502 5.77881L11.105 4.13182C10.8534 4.01812 10.5572 4.12995 10.4435 4.3816C10.3298 4.63325 10.4416 4.92942 10.6933 5.04312L14.7941 6.89598ZM12.525 2.97697L12.7914 2.55386L12.525 2.97697ZM9.4577 2.95048L9.71826 3.37722L9.71826 3.37722L9.4577 2.95048ZM6.96643 6.37096L7.43307 6.55053L7.43307 6.55053L6.96643 6.37096ZM6.00011 11.9355L6.50011 11.9373L6.00011 11.9355ZM6.92683 17.5247L6.45851 17.6998H6.45851L6.92683 17.5247ZM12.4608 21.0625L12.7184 21.4911H12.7184L12.4608 21.0625ZM15.4678 6.26371C14.8335 4.58388 13.9136 3.2605 12.7914 2.55386L12.2586 3.40008C13.1272 3.947 13.9398 5.04802 14.5322 6.61695L15.4678 6.26371ZM12.7914 2.55386C11.6365 1.82661 10.3587 1.81449 9.19713 2.52374L9.71826 3.37722C10.5533 2.86734 11.4227 2.87377 12.2586 3.40008L12.7914 2.55386ZM9.19713 2.52374C8.06922 3.21243 7.1422 4.52197 6.49978 6.19139L7.43307 6.55053C8.03262 4.9925 8.84953 3.90765 9.71826 3.37722L9.19713 2.52374ZM6.49978 6.19139C5.8538 7.87008 5.50741 9.87924 5.50012 11.9338L6.50011 11.9373C6.50704 9.98541 6.83709 8.09927 7.43307 6.55053L6.49978 6.19139ZM5.50012 11.9338C5.49282 13.9884 5.82494 16.0057 6.45851 17.6998L7.39515 17.3495C6.80978 15.7843 6.49318 13.8891 6.50011 11.9373L5.50012 11.9338ZM6.45851 17.6998C7.08867 19.3848 8.00491 20.7151 9.12426 21.4307L9.6629 20.5882C8.79445 20.033 7.98392 18.9239 7.39515 17.3495L6.45851 17.6998ZM9.12426 21.4307C10.2759 22.1669 11.5535 22.1912 12.7184 21.4911L12.2032 20.634C11.3686 21.1357 10.4991 21.1228 9.6629 20.5882L9.12426 21.4307ZM12.7184 21.4911C13.8491 20.8115 14.7797 19.5089 15.4262 17.8448L14.4941 17.4826C13.891 19.0351 13.072 20.1118 12.2032 20.634L12.7184 21.4911Z" fill="var(--mw-icon-glyph-content-gray, #616162)"/>
</svg>
