<svg width="24" height="24" viewBox="0 0 24 24" fill="none" xmlns="http://www.w3.org/2000/svg">
<path d="M11 0.5C11 0.223858 10.7761 0 10.5 0C10.2239 0 10 0.223858 10 0.5H11ZM21 17C21.2761 17 21.5 16.7761 21.5 16.5C21.5 16.2239 21.2761 16 21 16V17ZM0.5 16C0.223858 16 8.77833e-08 16.2239 0 16.5C-8.77833e-08 16.7761 0.223857 17 0.5 17L0.5 16ZM9.14645 22.8536C9.34171 23.0488 9.65829 23.0488 9.85355 22.8536C10.0488 22.6583 10.0488 22.3417 9.85355 22.1464L9.14645 22.8536ZM2.85355 19.1464C2.65829 18.9512 2.34171 18.9512 2.14645 19.1464C1.95118 19.3417 1.95118 19.6583 2.14645 19.8536L2.85355 19.1464ZM5.14645 22.8536C5.34171 23.0488 5.65829 23.0488 5.85355 22.8536C6.04882 22.6583 6.04882 22.3417 5.85355 22.1464L5.14645 22.8536ZM13.1464 22.8536C13.3417 23.0488 13.6583 23.0488 13.8536 22.8536C14.0488 22.6583 14.0488 22.3417 13.8536 22.1464L13.1464 22.8536ZM17.1464 22.8536C17.3417 23.0488 17.6583 23.0488 17.8536 22.8536C18.0488 22.6583 18.0488 22.3417 17.8536 22.1464L17.1464 22.8536ZM21.1464 22.8536C21.3417 23.0488 21.6583 23.0488 21.8536 22.8536C22.0488 22.6583 22.0488 22.3417 21.8536 22.1464L21.1464 22.8536ZM1.5 4.5L2.99429 10.0768L7.07678 5.99429L1.5 4.5ZM19.5 4.5L13.9232 5.99429L18.0057 10.0768L19.5 4.5ZM10 0.5V16.5H11V0.5H10ZM21 16H15.5V17H21V16ZM15.5 16H11.5V17H15.5V16ZM11.5 16H10.5V17H11.5V16ZM10.5 16H7.5V17H10.5V16ZM7.5 16H3.5V17H7.5V16ZM3.5 16L0.5 16L0.5 17L3.5 17L3.5 16ZM3.14645 16.8536L9.14645 22.8536L9.85355 22.1464L3.85355 16.1464L3.14645 16.8536ZM2.14645 19.8536L5.14645 22.8536L5.85355 22.1464L2.85355 19.1464L2.14645 19.8536ZM7.14645 16.8536L13.1464 22.8536L13.8536 22.1464L7.85355 16.1464L7.14645 16.8536ZM11.1464 16.8536L17.1464 22.8536L17.8536 22.1464L11.8536 16.1464L11.1464 16.8536ZM15.1464 16.8536L21.1464 22.8536L21.8536 22.1464L15.8536 16.1464L15.1464 16.8536ZM4.32843 8.03553L5.1967 8.90381L5.90381 8.1967L5.03553 7.32843L4.32843 8.03553ZM15.8033 8.90381L16.6716 8.03553L15.9645 7.32843L15.0962 8.1967L15.8033 8.90381ZM5.1967 8.90381C8.12563 11.8327 12.8744 11.8327 15.8033 8.90381L15.0962 8.1967C12.5578 10.7351 8.44222 10.7351 5.90381 8.1967L5.1967 8.90381Z" fill="var(--mw-icon-object-primary, #616160)"/>
</svg>
