<svg width="24" height="24" viewBox="0 0 24 24" fill="none" xmlns="http://www.w3.org/2000/svg">
<rect width="18" height="18" rx="1" transform="matrix(1 0 0 -1 0.5 18.5)" fill="var(--mw-icon-background-default-white, #FFFFFF)"/>
<path d="M0.5 9.5L1.08274 8.49267C3.59749 4.14562 7.22279 4.57947 9.5 9.5C11.7772 14.4205 15.4025 14.8544 17.9173 10.5073L18.5 9.5" stroke="#0072BD"/>
<rect width="18" height="18" rx="2" transform="matrix(1 0 0 -1 0.5 18.5)" stroke="var(--mw-icon-border-default-gray, #616161)"/>
<path d="M23 16.5H4C3.72386 16.5 3.5 16.7239 3.5 17V23C3.5 23.2761 3.72386 23.5 4 23.5H23C23.2761 23.5 23.5 23.2761 23.5 23V17C23.5 16.7239 23.2761 16.5 23 16.5Z" fill="var(--mw-icon-background-light-yellow, #FFF5BC)" stroke="#674C06" stroke-linejoin="round"/>
<path d="M5.5 22V23M7.5 20V23M9.5 22V23M11.5 20V23M13.5 22V23M15.5 20V23M17.5 22V23M19.5 20V23M21.5 22V23" stroke="var(--mw-icon-glyph-content-yellow, #674C07)"/>
</svg>
