<svg width="24" height="24" viewBox="0 0 24 24" fill="none" xmlns="http://www.w3.org/2000/svg">
<path d="M17.5 17.5L4.5 17.5C3.94772 17.5 3.5 17.0523 3.5 16.5L3.5 4.5C3.5 3.94772 3.94771 3.5 4.5 3.5L17.5 3.5C18.0523 3.5 18.5 3.94772 18.5 4.5L18.5 16.5C18.5 17.0523 18.0523 17.5 17.5 17.5Z" fill="var(--mw-icon-background-default-medium-gray, #D9D9D9)" stroke="var(--mw-icon-border-default-gray, #616161)" stroke-linecap="round"/>
<path d="M14.5 14.5L1.5 14.5C0.947715 14.5 0.5 14.0523 0.5 13.5L0.499999 1.5C0.499999 0.947717 0.947715 0.500002 1.5 0.500002L14.5 0.500001C15.0523 0.500001 15.5 0.947717 15.5 1.5L15.5 13.5C15.5 14.0523 15.0523 14.5 14.5 14.5Z" fill="var(--mw-icon-background-default-white, #FFFFFF)" stroke="var(--mw-icon-border-default-gray, #616161)" stroke-linecap="round"/>
<path d="M13.5 23.5V11.5L23.5 17.5L13.5 23.5Z" fill="var(--mw-icon-background-default-action, #CBFFBE)" stroke="var(--mw-icon-border-default-green, #008013)" stroke-linejoin="round"/>
</svg>
