<svg width="24" height="24" viewBox="0 0 24 24" fill="none" xmlns="http://www.w3.org/2000/svg">
<path d="M3.5 4.5C3.5 3.39543 4.39543 2.5 5.5 2.5H15.5C16.6046 2.5 17.5 3.39543 17.5 4.5V16.5C17.5 17.6046 16.6046 18.5 15.5 18.5H5.5C4.39543 18.5 3.5 17.6046 3.5 16.5V4.5Z" fill="var(--mw-icon-background-default-medium-gray, #D9D9D9)" stroke="var(--mw-icon-border-default-gray, #616161)"/>
<path d="M13.5 0.5H3.5C2.39543 0.5 1.5 1.39543 1.5 2.5V14.5C1.5 15.6046 2.39543 16.5 3.5 16.5H13.5C14.6046 16.5 15.5 15.6046 15.5 14.5V2.5C15.5 1.39543 14.6046 0.5 13.5 0.5Z" fill="var(--mw-icon-background-default-white, #FFFFFF)" stroke="var(--mw-icon-border-default-gray, #616161)" stroke-linecap="round"/>
<path d="M9.5 9.5H13.5M6.5 6.5H10.5M3.5 3.5H7.5M6.5 12.5H10.5" stroke="var(--mw-icon-glyph-content-gray, #616162)" stroke-linecap="round"/>
<path d="M12.5 23.5V11.5L22.5 17.5L12.5 23.5Z" fill="var(--mw-icon-background-default-action, #CBFFBE)" stroke="var(--mw-icon-border-default-green, #008013)" stroke-linejoin="round"/>
</svg>
