<svg width="24" height="24" viewBox="0 0 24 24" fill="none" xmlns="http://www.w3.org/2000/svg">
<path d="M6.5 19.5V2.5C6.5 1.94772 6.94772 1.5 7.5 1.5H22.5C23.0523 1.5 23.5 1.94771 23.5 2.5V19.5C23.5 20.0523 23.0523 20.5 22.5 20.5H7.5C6.94772 20.5 6.5 20.0523 6.5 19.5Z" fill="var(--mw-icon-background-default-white, #FFFFFF)" stroke="var(--mw-icon-border-default-gray, #616161)"/>
<path d="M10.5 4V1C10.5 0.723858 10.7239 0.5 11 0.5H19C19.2761 0.5 19.5 0.723858 19.5 1V4C19.5 4.27614 19.2761 4.5 19 4.5H11C10.7239 4.5 10.5 4.27614 10.5 4Z" fill="var(--mw-icon-background-default-medium-gray, #D9D9D9)" stroke="var(--mw-icon-border-default-gray, #616161)"/>
<path d="M0.5 23.5V11.5L10.5 17.5L0.5 23.5Z" fill="var(--mw-icon-background-default-action, #CBFFBE)" stroke="var(--mw-icon-glyph-content-green, #008014)" stroke-linejoin="round"/>
<circle cx="15.5" cy="12.5" r="5" fill="white" stroke="var(--mw-icon-border-default-gray, #616161)"/>
<path d="M13.0251 14.9749C13.4321 15.3819 13.9332 15.6822 14.484 15.8493C15.0348 16.0164 15.6183 16.045 16.1828 15.9327C16.7473 15.8205 17.2754 15.5707 17.7204 15.2055C18.1653 14.8404 18.5133 14.3712 18.7336 13.8394C18.9538 13.3076 19.0396 12.7297 18.9831 12.1569C18.9267 11.5841 18.7299 11.0341 18.4101 10.5555C18.0904 10.0769 17.6575 9.6846 17.1499 9.41328C16.6423 9.14195 16.0756 9 15.5 9L15.5 12.5L13.0251 14.9749Z" fill="var(--mw-icon-background-default-selection, #B4DEFF)"/>
<path d="M15.5 9.5V12.4999L13.5 14.5" stroke="var(--mw-icon-glyph-content-gray, #616162)" stroke-linecap="round" stroke-linejoin="round"/>
</svg>
