<svg width="24" height="24" viewBox="0 0 24 24" fill="none" xmlns="http://www.w3.org/2000/svg">
<path d="M21.5 0.5H6.5C5.39543 0.5 4.5 1.39543 4.5 2.5V21.5C4.5 22.6046 5.39543 23.5 6.5 23.5H21.5C22.6046 23.5 23.5 22.6046 23.5 21.5V2.5C23.5 1.39543 22.6046 0.5 21.5 0.5Z" fill="var(--mw-icon-background-default-white, #FFFFFF)"/>
<path d="M4.5 7.5H23.5M4.5 15.5H23.5M21.5 0.5H6.5C5.39543 0.5 4.5 1.39543 4.5 2.5V21.5C4.5 22.6046 5.39543 23.5 6.5 23.5H21.5C22.6046 23.5 23.5 22.6046 23.5 21.5V2.5C23.5 1.39543 22.6046 0.5 21.5 0.5Z" stroke="var(--mw-icon-border-default-gray, #616161)"/>
<rect x="5" y="8" width="18" height="7" fill="var(--mw-icon-background-default-selection, #B4DEFF)"/>
<path d="M0.5 17.5V5.5L10.5 11.5L0.5 17.5Z" fill="var(--mw-icon-background-default-action, #CBFFBE)" stroke="var(--mw-icon-glyph-content-green, #008014)" stroke-linejoin="round"/>
</svg>
