<svg width="24" height="24" viewBox="0 0 24 24" fill="none" xmlns="http://www.w3.org/2000/svg">
<path d="M21.5 0.5H6.5C5.39543 0.5 4.5 1.39543 4.5 2.5V21.5C4.5 22.6046 5.39543 23.5 6.5 23.5H21.5C22.6046 23.5 23.5 22.6046 23.5 21.5V2.5C23.5 1.39543 22.6046 0.5 21.5 0.5Z" fill="var(--mw-icon-background-default-white, #FFFFFF)" stroke="var(--mw-icon-border-default-gray, #616161)" stroke-linecap="round"/>
<path d="M5 2.5C5 1.67157 5.67157 1 6.5 1H21.5C22.3284 1 23 1.67157 23 2.5V9H5V2.5Z" fill="var(--mw-icon-background-default-selection, #B4DEFF)"/>
<path d="M14.5 11.5H20.5M11.5 14.5H17.5M7.5 17.5H13.5M11.5 20.5H17.5" stroke="var(--mw-icon-glyph-content-gray, #616162)" stroke-linecap="round"/>
<path d="M11.5 3.5H17.5M14.5 6.5H20.5" stroke="var(--mw-icon-glyph-content-dark-blue, #104280)" stroke-linecap="round"/>
<path d="M0.5 12.5V0.5L10.5 6.5L0.5 12.5Z" fill="var(--mw-icon-background-default-action, #CBFFBE)" stroke="var(--mw-icon-border-default-green, #008013)" stroke-linejoin="round"/>
</svg>
