<svg width="24" height="24" viewBox="0 0 24 24" fill="none" xmlns="http://www.w3.org/2000/svg">
<path d="M0.5 0.5H15.5V13.5H0.5V0.5Z" fill="var(--mw-icon-background-default-white, #FFFFFF)" stroke="var(--mw-icon-glyph-content-red, #902623)" stroke-linejoin="round"/>
<path d="M1 1H3V3H1V1Z" fill="var(--mw-icon-glyph-content-dark-gray, #333333)"/>
<path d="M1 5H3V7H1V5Z" fill="var(--mw-icon-glyph-content-dark-gray, #333333)"/>
<path d="M1 9H3V11H1V9Z" fill="var(--mw-icon-glyph-content-dark-gray, #333333)"/>
<path d="M11 11H13V13H11V11Z" fill="var(--mw-icon-glyph-content-dark-gray, #333333)"/>
<path d="M13 9H15V11H13V9Z" fill="var(--mw-icon-glyph-content-dark-gray, #333333)"/>
<path d="M11 7H13V9H11V7Z" fill="var(--mw-icon-glyph-content-dark-gray, #333333)"/>
<path d="M13 5H15V7H13V5Z" fill="var(--mw-icon-glyph-content-dark-gray, #333333)"/>
<path d="M11 3H13V5H11V3Z" fill="var(--mw-icon-glyph-content-dark-gray, #333333)"/>
<path d="M13 1H15V3H13V1Z" fill="var(--mw-icon-glyph-content-dark-gray, #333333)"/>
<path d="M7 11H9V13H7V11Z" fill="var(--mw-icon-glyph-content-dark-gray, #333333)"/>
<path d="M9 9H11V11H9V9Z" fill="var(--mw-icon-glyph-content-dark-gray, #333333)"/>
<path d="M7 7H9V9H7V7Z" fill="var(--mw-icon-glyph-content-dark-gray, #333333)"/>
<path d="M9 5H11V7H9V5Z" fill="var(--mw-icon-glyph-content-dark-gray, #333333)"/>
<path d="M7 3H9V5H7V3Z" fill="var(--mw-icon-glyph-content-dark-gray, #333333)"/>
<path d="M9 1H11V3H9V1Z" fill="var(--mw-icon-glyph-content-dark-gray, #333333)"/>
<path d="M3 11H5V13H3V11Z" fill="var(--mw-icon-glyph-content-dark-gray, #333333)"/>
<path d="M5 9H7V11H5V9Z" fill="var(--mw-icon-glyph-content-dark-gray, #333333)"/>
<path d="M3 7H5V9H3V7Z" fill="var(--mw-icon-glyph-content-dark-gray, #333333)"/>
<path d="M5 5H7V7H5V5Z" fill="var(--mw-icon-glyph-content-dark-gray, #333333)"/>
<path d="M3 3H5V5H3V3Z" fill="var(--mw-icon-glyph-content-dark-gray, #333333)"/>
<path d="M5 1H7V3H5V1Z" fill="var(--mw-icon-glyph-content-dark-gray, #333333)"/>
<path d="M13.5 23.5V11.5L23.5 17.5L13.5 23.5Z" fill="var(--mw-icon-background-default-action, #CBFFBE)" stroke="var(--mw-icon-glyph-content-green, #008014)" stroke-linejoin="round"/>
</svg>
