<svg width="24" height="24" viewBox="0 0 24 24" fill="none" xmlns="http://www.w3.org/2000/svg">
<path d="M17.6716 0.5H6.5C5.39543 0.5 4.5 1.39543 4.5 2.5V21.5C4.5 22.6046 5.39543 23.5 6.5 23.5H21.5C22.6046 23.5 23.5 22.6046 23.5 21.5V6.32843C23.5 5.79799 23.2893 5.28929 22.9142 4.91421L19.0858 1.08579C18.7107 0.710714 18.202 0.5 17.6716 0.5Z" fill="var(--mw-icon-background-default-white, #FFFFFF)" stroke="var(--mw-icon-border-default-gray, #616161)" stroke-linecap="round"/>
<path d="M0.5 12.5V0.5L10.5 6.5L0.5 12.5Z" fill="var(--mw-icon-background-default-action, #CBFFBE)" stroke="var(--mw-icon-border-default-green, #008013)" stroke-linejoin="round"/>
<path d="M10.8536 9.85355C11.0488 9.65829 11.0488 9.34171 10.8536 9.14645C10.6583 8.95118 10.3417 8.95118 10.1464 9.14645L10.8536 9.85355ZM7.5 12.5L7.14645 12.1464C6.95118 12.3417 6.95118 12.6583 7.14645 12.8536L7.5 12.5ZM10.1464 15.8536C10.3417 16.0488 10.6583 16.0488 10.8536 15.8536C11.0488 15.6583 11.0488 15.3417 10.8536 15.1464L10.1464 15.8536ZM17.1464 15.1464C16.9512 15.3417 16.9512 15.6583 17.1464 15.8536C17.3417 16.0488 17.6583 16.0488 17.8536 15.8536L17.1464 15.1464ZM20.5 12.5L20.8536 12.8536C20.9473 12.7598 21 12.6326 21 12.5C21 12.3674 20.9473 12.2402 20.8536 12.1464L20.5 12.5ZM17.8536 9.14645C17.6583 8.95119 17.3417 8.95119 17.1464 9.14645C16.9512 9.34171 16.9512 9.65829 17.1464 9.85356L17.8536 9.14645ZM15.9682 8.67556C16.0651 8.417 15.9341 8.1288 15.6756 8.03184C15.417 7.93488 15.1288 8.06588 15.0318 8.32444L15.9682 8.67556ZM12.0318 16.3244C11.9349 16.583 12.0659 16.8712 12.3244 16.9682C12.583 17.0651 12.8712 16.9341 12.9682 16.6756L12.0318 16.3244ZM10.1464 9.14645L7.14645 12.1464L7.85355 12.8536L10.8536 9.85355L10.1464 9.14645ZM7.14645 12.8536L10.1464 15.8536L10.8536 15.1464L7.85355 12.1464L7.14645 12.8536ZM17.8536 15.8536L20.8536 12.8536L20.1464 12.1464L17.1464 15.1464L17.8536 15.8536ZM20.8536 12.1464L17.8536 9.14645L17.1464 9.85356L20.1464 12.8536L20.8536 12.1464ZM15.0318 8.32444L12.0318 16.3244L12.9682 16.6756L15.9682 8.67556L15.0318 8.32444Z" fill="var(--mw-icon-glyph-content-gray, #616162)"/>
</svg>
