<svg width="24" height="24" viewBox="0 0 24 24" fill="none" xmlns="http://www.w3.org/2000/svg">
<path d="M0.5 1.5C0.5 0.947715 0.947715 0.5 1.5 0.5H16.5C17.0523 0.5 17.5 0.947715 17.5 1.5V12.5C17.5 13.0523 17.0523 13.5 16.5 13.5H1.5C0.947715 13.5 0.5 13.0523 0.5 12.5V1.5Z" fill="var(--mw-icon-background-default-selection, #B4DEFF)" stroke="var(--mw-icon-border-default-blue, #1656A7)"/>
<rect x="2" y="3" width="2" height="2" rx="0.5" fill="var(--mw-icon-glyph-content-blue, #1656A8)"/>
<rect x="6" y="3" width="2" height="2" rx="0.5" fill="var(--mw-icon-glyph-content-blue, #1656A8)"/>
<rect x="10" y="3" width="2" height="2" rx="0.5" fill="var(--mw-icon-glyph-content-blue, #1656A8)"/>
<rect x="14" y="3" width="2" height="2" rx="0.5" fill="var(--mw-icon-glyph-content-blue, #1656A8)"/>
<rect x="2" y="6" width="2" height="2" rx="0.5" fill="var(--mw-icon-glyph-content-blue, #1656A8)"/>
<rect x="6" y="6" width="2" height="2" rx="0.5" fill="var(--mw-icon-glyph-content-blue, #1656A8)"/>
<rect x="10" y="6" width="2" height="2" rx="0.5" fill="var(--mw-icon-glyph-content-blue, #1656A8)"/>
<rect x="14" y="6" width="2" height="2" rx="0.5" fill="var(--mw-icon-glyph-content-blue, #1656A8)"/>
<rect x="2" y="9" width="2" height="2" rx="0.5" fill="var(--mw-icon-glyph-content-blue, #1656A8)"/>
<rect x="6" y="9" width="2" height="2" rx="0.5" fill="var(--mw-icon-glyph-content-blue, #1656A8)"/>
<rect x="10" y="9" width="2" height="2" rx="0.5" fill="var(--mw-icon-glyph-content-blue, #1656A8)"/>
<rect x="14" y="9" width="2" height="2" rx="0.5" fill="var(--mw-icon-glyph-content-blue, #1656A8)"/>
<path d="M9.5 21.5V9.5L19.5 15.5L9.5 21.5Z" fill="var(--mw-icon-background-default-action, #CBFFBE)" stroke="var(--mw-icon-glyph-content-green, #008014)" stroke-linejoin="round"/>
</svg>
