<svg width="24" height="24" viewBox="0 0 24 24" fill="none" xmlns="http://www.w3.org/2000/svg">
<rect x="0.5" y="0.5" width="18" height="14" rx="2" fill="var(--mw-icon-background-default-white, #FFFFFF)" stroke="var(--mw-icon-border-default-gray, #616161)"/>
<path d="M2.85938 3.3125H3.79297L5.03125 7.375L6.25781 3.3125H7.10547L5.41797 9H4.63672L2.85938 3.3125ZM2.49609 3.3125H3.375L3.51172 7V9H2.49609V3.3125ZM6.67578 3.3125H7.55859V9H6.54297V7L6.67578 3.3125ZM11.7734 8.12891V9H9.30469V8.12891H11.7734ZM9.60547 3.3125V9H8.55859V3.3125H9.60547ZM11.4414 5.64844V6.49609H9.30469V5.64844H11.4414ZM11.7578 3.3125V4.1875H9.30469V3.3125H11.7578ZM13.3906 3.3125L14.2656 5.27734L15.1055 3.3125H16.2734L14.875 6.12891L16.3008 9H15.0938L14.2188 6.99609L13.3477 9H12.1641L13.6055 6.10938L12.1953 3.3125H13.3906Z" fill="var(--mw-icon-glyph-content-gray, #616162)"/>
<path d="M9.5 21.5V9.5L19.5 15.5L9.5 21.5Z" fill="var(--mw-icon-background-default-action, #CBFFBE)" stroke="var(--mw-icon-glyph-content-green, #008014)" stroke-linejoin="round"/>
</svg>
