<svg width="24" height="24" viewBox="0 0 24 24" fill="none" xmlns="http://www.w3.org/2000/svg">
<rect x="1" y="0.5" width="17" height="18" rx="2" fill="var(--mw-icon-background-default-white, #FFFFFF)"/>
<rect x="1" y="16" width="5" height="2" fill="var(--mw-icon-background-medium-yellow, #FFEF91)"/>
<rect x="6" y="13" width="12" height="5" fill="var(--mw-icon-background-medium-yellow, #FFEF91)"/>
<rect x="1" y="1" width="17" height="2" fill="var(--mw-icon-background-medium-yellow, #FFEF91)"/>
<rect x="1" y="3" width="17" height="1" fill="#674C06"/>
<rect x="6" y="12" width="12" height="1" fill="#674C06"/>
<rect x="1" y="15" width="5" height="1" fill="#674C06"/>
<path d="M0.5 12.5C0.5 11 2 5.5 5.5 5.5C9 5.5 9 9.5 18.5 7.5" stroke="#1171BE" stroke-linecap="round"/>
<path d="M0.5 14.5C4.5 6.49999 4.5 10.5 18.5 10.5" stroke="#DD5400"/>
<rect x="0.5" y="0.5" width="18" height="18" rx="2" stroke="var(--mw-icon-border-default-gray, #616161)"/>
<path d="M13.5 23.5V11.5L23.5 17.5L13.5 23.5Z" fill="var(--mw-icon-background-default-action, #CBFFBE)" stroke="var(--mw-icon-glyph-content-green, #008014)" stroke-linejoin="round"/>
</svg>
