<svg width="24" height="24" viewBox="0 0 24 24" fill="none" xmlns="http://www.w3.org/2000/svg">
<path d="M0.395874 16.5V2.5C0.395874 1.39543 1.29131 0.5 2.39587 0.5H16.5C17.6046 0.5 18.5 1.39543 18.5 2.5V16.5C18.5 17.6046 17.6046 18.5 16.5 18.5H2.39587C1.2913 18.5 0.395874 17.6046 0.395874 16.5Z" fill="var(--mw-icon-background-default-white, #FFFFFF)"/>
<path d="M18 12.5H11.5V14.5H8.5V16.5H1" stroke="var(--mw-icon-borderColor-light-blue, #268CDD)" stroke-linejoin="round"/>
<path d="M12.5 3.5H5.5M12.5 3.5L13.5 8.5M12.5 3.5L7.5 7.5M5.5 3.5L3.5 8.5M5.5 3.5L7.5 7.5M3.5 8.5L8.5 11.5M3.5 8.5L7.5 7.5M8.5 11.5L13.5 8.5M8.5 11.5L7.5 7.5M13.5 8.5L7.5 7.5" stroke="#FF453A"/>
<path d="M4 3C4 2.44772 4.44772 2 5 2H6C6.55228 2 7 2.44772 7 3V4C7 4.55228 6.55228 5 6 5H5C4.44772 5 4 4.55228 4 4V3Z" fill="var(--mw-icon-glyph-content-blue, #1656A8)"/>
<path d="M11 3C11 2.44772 11.4477 2 12 2H13C13.5523 2 14 2.44772 14 3V4C14 4.55228 13.5523 5 13 5H12C11.4477 5 11 4.55228 11 4V3Z" fill="var(--mw-icon-glyph-content-blue, #1656A8)"/>
<path d="M12 8C12 7.44772 12.4477 7 13 7H14C14.5523 7 15 7.44772 15 8V9C15 9.55228 14.5523 10 14 10H13C12.4477 10 12 9.55228 12 9V8Z" fill="var(--mw-icon-glyph-content-blue, #1656A8)"/>
<path d="M7 11C7 10.4477 7.44772 10 8 10H9C9.55228 10 10 10.4477 10 11V12C10 12.5523 9.55228 13 9 13H8C7.44772 13 7 12.5523 7 12V11Z" fill="var(--mw-icon-glyph-content-blue, #1656A8)"/>
<path d="M2 8C2 7.44772 2.44772 7 3 7H4C4.55228 7 5 7.44772 5 8V9C5 9.55228 4.55228 10 4 10H3C2.44772 10 2 9.55228 2 9V8Z" fill="var(--mw-icon-glyph-content-blue, #1656A8)"/>
<path d="M6 7C6 6.44772 6.44772 6 7 6H8C8.55228 6 9 6.44772 9 7V8C9 8.55228 8.55228 9 8 9H7C6.44772 9 6 8.55228 6 8V7Z" fill="var(--mw-icon-glyph-content-blue, #1656A8)"/>
<path d="M0.5 16.5V2.5C0.5 1.39543 1.39543 0.5 2.5 0.5H16.5C17.6046 0.5 18.5 1.39543 18.5 2.5V16.5C18.5 17.6046 17.6046 18.5 16.5 18.5H2.5C1.39543 18.5 0.5 17.6046 0.5 16.5Z" stroke="#B7312C" stroke-linecap="round"/>
<path d="M13.5 23.5V11.5L23.5 17.5L13.5 23.5Z" fill="var(--mw-icon-background-default-action, #CBFFBE)" stroke="var(--mw-icon-glyph-content-green, #008014)" stroke-linejoin="round"/>
</svg>
