<svg width="24" height="24" viewBox="0 0 24 24" fill="none" xmlns="http://www.w3.org/2000/svg">
<path d="M4.5 2.5C4.5 1.39543 5.39543 0.5 6.5 0.5H20.5C21.6046 0.5 22.5 1.39543 22.5 2.5V16.5C22.5 17.6046 21.6046 18.5 20.5 18.5H6.5C5.39543 18.5 4.5 17.6046 4.5 16.5V2.5Z" fill="var(--mw-icon-background-default-white, #FFFFFF)" stroke="var(--mw-icon-border-default-gray, #616161)"/>
<path d="M6.5 6C6.22386 6 6 6.22386 6 6.5C6 6.77614 6.22386 7 6.5 7V6ZM17.5 7C17.7761 7 18 6.77614 18 6.5C18 6.22386 17.7761 6 17.5 6V7ZM17 11.5V12H18V11.5H17ZM18 7V6.5H17V7H18ZM6.5 7H17.5V6H6.5V7ZM18 11.5V7H17V11.5H18Z" fill="var(--mw-icon-glyph-disabled-gray, #888889)"/>
<path d="M13.3235 6.14146C13.5588 6.30081 13.5588 6.69919 13.3235 6.85854L8.02941 10.4439C7.79412 10.6033 7.5 10.4041 7.5 10.0854L7.5 2.91462C7.5 2.59592 7.79412 2.39673 8.02941 2.55608L13.3235 6.14146Z" fill="var(--mw-icon-background-default-selection, #B4DEFF)" stroke="var(--mw-icon-glyph-content-blue, #1656A8)" stroke-linejoin="round"/>
<rect x="14.5" y="10.5" width="6" height="6" rx="1" fill="var(--mw-icon-background-red, #FF9D9A)" stroke="var(--mw-icon-glyph-content-red, #902623)"/>
<path d="M0.5 22.5V10.5L10.5 16.5L0.5 22.5Z" fill="var(--mw-icon-background-default-action, #CBFFBE)" stroke="var(--mw-icon-border-default-green, #008013)" stroke-linejoin="round"/>
</svg>
