<svg width="24" height="24" viewBox="0 0 24 24" fill="none" xmlns="http://www.w3.org/2000/svg">
<path d="M10.6716 0.5H2.5C1.39543 0.5 0.5 1.39543 0.5 2.5V18.5C0.5 19.6046 1.39543 20.5 2.5 20.5H13.5C14.6046 20.5 15.5 19.6046 15.5 18.5V5.32843C15.5 4.79799 15.2893 4.28929 14.9142 3.91421L12.0858 1.08579C11.7107 0.710714 11.202 0.5 10.6716 0.5Z" fill="var(--mw-icon-background-default-white, #FFFFFF)" stroke="var(--mw-icon-border-default-gray, #616161)" stroke-linecap="round"/>
<path d="M13.5 17.5V13.5C13.5 12.9477 13.0523 12.5 12.5 12.5H3.5C2.94772 12.5 2.5 12.9477 2.5 13.5V17.5C2.5 18.0523 2.94772 18.5 3.5 18.5H12.5C13.0523 18.5 13.5 18.0523 13.5 17.5Z" fill="var(--mw-icon-background-medium-blue, #83CAFF)" stroke="var(--mw-icon-glyph-content-dark-blue, #104280)" stroke-linecap="square" stroke-linejoin="round"/>
<path d="M7.5 8.5C8.05228 8.5 8.5 8.05228 8.5 7.5V3.5C8.5 2.94772 8.05228 2.5 7.5 2.5H3.5C2.94772 2.5 2.5 2.94772 2.5 3.5V7.5C2.5 8.05228 2.94772 8.5 3.5 8.5H7.5Z" fill="var(--mw-icon-background-medium-blue, #83CAFF)" stroke="var(--mw-icon-glyph-content-dark-blue, #104280)" stroke-linecap="square" stroke-linejoin="round"/>
<path d="M4 15C4 14.4477 4.44772 14 5 14H6C6.55228 14 7 14.4477 7 15V16C7 16.5523 6.55228 17 6 17H5C4.44772 17 4 16.5523 4 16C4 15.4477 4 15 4 15Z" fill="var(--mw-icon-glyph-content-dark-blue, #104280)"/>
<path d="M9 15C9 14.4477 9.44772 14 10 14H11C11.5523 14 12 14.4477 12 15V16C12 16.5523 11.5523 17 11 17H10C9.44772 17 9 16.5523 9 16V15Z" fill="var(--mw-icon-glyph-content-dark-blue, #104280)"/>
<path d="M5.5 9.5V11.5" stroke="var(--mw-icon-glyph-content-gray, #616162)" stroke-linecap="square"/>
<path d="M12.5 22.5V10.5L22.5 16.5L12.5 22.5Z" fill="var(--mw-icon-background-default-action, #CBFFBE)" stroke="var(--mw-icon-glyph-content-green, #008014)" stroke-linejoin="round"/>
</svg>
