<svg width="24" height="24" viewBox="0 0 24 24" fill="none" xmlns="http://www.w3.org/2000/svg">
<path d="M17.6716 0.5H6.5C5.39543 0.5 4.5 1.39543 4.5 2.5V21.5C4.5 22.6046 5.39543 23.5 6.5 23.5H21.5C22.6046 23.5 23.5 22.6046 23.5 21.5V6.32843C23.5 5.79799 23.2893 5.28929 22.9142 4.91421L19.0858 1.08579C18.7107 0.710714 18.202 0.5 17.6716 0.5Z" fill="var(--mw-icon-background-default-white, #FFFFFF)" stroke="var(--mw-icon-border-default-gray, #616161)" stroke-linecap="round"/>
<path d="M10.5 3.5H17.5" stroke="var(--mw-icon-glyph-content-red, #902623)" stroke-linecap="round"/>
<path d="M12.5 6.5H20.5" stroke="var(--mw-icon-glyph-content-gray, #616162)" stroke-linecap="round"/>
<path d="M11.5 9.5H20.5" stroke="var(--mw-icon-glyph-content-gray, #616162)" stroke-linecap="round"/>
<path d="M0.5 12.5V0.5L10.5 6.5L0.5 12.5Z" fill="var(--mw-icon-background-default-action, #CBFFBE)" stroke="var(--mw-icon-border-default-green, #008013)" stroke-linejoin="round"/>
<path d="M7.5 13C7.5 12.7239 7.72386 12.5 8 12.5H20C20.2761 12.5 20.5 12.7239 20.5 13V20C20.5 20.2761 20.2761 20.5 20 20.5H8C7.72386 20.5 7.5 20.2761 7.5 20V13Z" fill="var(--mw-icon-background-default-selection, #B4DEFF)" stroke="var(--mw-icon-glyph-content-light-blue, #278CDD)"/>
</svg>
