<svg width="24" height="24" viewBox="0 0 24 24" fill="none" xmlns="http://www.w3.org/2000/svg">
<path d="M8.5 17.5V0.5L23.5 9L8.5 17.5Z" fill="var(--mw-icon-background-default-action, #CBFFBE)" stroke="var(--mw-icon-border-default-green, #008013)" stroke-linejoin="round"/>
<circle cx="8.5" cy="15.5" r="8" fill="var(--mw-icon-background-default-selection, #B4DEFF)" stroke="var(--mw-icon-border-default-blue, #1656A7)"/>
<path d="M5 15.5C5 16.3284 4.32843 17 3.5 17C2.67157 17 2 16.3284 2 15.5C2 14.6716 2.67157 14 3.5 14C4.32843 14 5 14.6716 5 15.5Z" fill="var(--mw-icon-glyph-content-blue, #1656A8)"/>
<path d="M10 15.5C10 16.3284 9.32843 17 8.5 17C7.67157 17 7 16.3284 7 15.5C7 14.6716 7.67157 14 8.5 14C9.32843 14 10 14.6716 10 15.5Z" fill="var(--mw-icon-glyph-content-blue, #1656A8)"/>
<path d="M15 15.5C15 16.3284 14.3284 17 13.5 17C12.6716 17 12 16.3284 12 15.5C12 14.6716 12.6716 14 13.5 14C14.3284 14 15 14.6716 15 15.5Z" fill="var(--mw-icon-glyph-content-blue, #1656A8)"/>
</svg>
