<svg width="24" height="24" viewBox="0 0 24 24" fill="none" xmlns="http://www.w3.org/2000/svg">
<path d="M0.5 18.5V4.5C0.5 2.29086 2.29086 0.5 4.5 0.5H18.5C20.7091 0.5 22.5 2.29086 22.5 4.5V18.5C22.5 20.7091 20.7091 22.5 18.5 22.5H4.5C2.29086 22.5 0.5 20.7091 0.5 18.5Z" fill="var(--mw-icon-background-default-white, #FFFFFF)"/>
<path fill-rule="evenodd" clip-rule="evenodd" d="M9.01172 3.13526C8.82389 3.35129 8.65222 3.74807 8.54531 4.4845C8.50252 4.77923 8.37592 5.11192 8.22036 5.43781C8.06247 5.76858 7.86395 6.11432 7.6607 6.44018C7.2541 7.09205 6.81701 7.68274 6.61756 7.94494C6.43606 8.18352 6.06469 8.5269 5.70193 8.84147C5.46797 9.04434 5.22544 9.2455 5.0155 9.41543C5.10086 9.47104 5.18354 9.52524 5.26254 9.5775C5.77784 9.91828 6.15941 10.4651 6.45438 10.9771C6.60383 11.2366 6.73676 11.4976 6.85509 11.7306L6.86081 11.7419C6.92246 11.8633 6.97936 11.9753 7.03293 12.0769C7.17485 11.9962 7.34884 11.8698 7.54159 11.6924C7.84629 11.4119 8.56943 10.5375 9.00681 9.93357C9.26314 9.57963 9.61723 9.30524 9.9736 9.11928C10.3267 8.93502 10.7101 8.82311 11.0378 8.82311C11.3093 8.82311 11.6303 8.94436 11.8955 9.06886C11.4818 7.8676 10.9239 6.21427 10.7323 5.52197C10.5871 4.99756 10.3363 4.28418 10.0552 3.70796C9.91394 3.41832 9.77219 3.17832 9.64104 3.01584C9.5755 2.93464 9.52104 2.88346 9.48011 2.85484C9.46057 2.84117 9.44841 2.83558 9.44303 2.8335C9.40351 2.83633 9.3192 2.86415 9.18742 2.97106C9.17056 2.98474 9.15355 2.99921 9.13642 3.0144L9.13817 3.01675C9.12672 3.0253 9.11528 3.03437 9.10387 3.04399C9.07344 3.07234 9.04268 3.10286 9.01172 3.13526Z" fill="#F57729"/>
<path fill-rule="evenodd" clip-rule="evenodd" d="M4.42484 9.03477C4.66081 8.84694 4.97049 8.59337 5.26502 8.33797C5.41525 8.2077 5.55676 8.08099 5.68081 7.96472L5.0252 7.48945C5.02362 7.4903 5.02206 7.49114 5.02053 7.49195C4.95605 7.5264 4.87555 7.56556 4.78546 7.60734C4.60458 7.69122 4.37099 7.79212 4.11933 7.89724C3.83032 8.01795 3.51374 8.14579 3.21912 8.26223C3.45805 8.41726 3.73435 8.59366 4.01908 8.77545C4.15346 8.86125 4.28975 8.94826 4.42484 9.03477ZM5.53479 7.03545L6.13854 7.47313C6.34916 7.19338 6.73561 6.66355 7.0949 6.08753C7.29051 5.77391 7.47519 5.45119 7.61857 5.1508C7.64431 5.09688 7.6684 5.04434 7.69077 4.99329C7.6466 5.04472 7.60166 5.09572 7.55672 5.14552C7.31321 5.41533 7.0297 5.69396 6.81855 5.83311C6.46398 6.06678 6.1927 6.25643 6.02099 6.48467C5.90846 6.63424 5.71323 6.84858 5.53479 7.03545Z" fill="#068CFC"/>
<path d="M2.5 8.1839L2.32223 7.71657C2.14902 7.78246 2.02646 7.93874 2.00376 8.12267C1.98107 8.30659 2.06196 8.48798 2.21395 8.594L2.5 8.1839ZM4.97638 7.1267L5.32388 7.48621L5.32388 7.48621L4.97638 7.1267ZM5.75472 6.28419L5.35516 5.9836L5.35516 5.9836L5.75472 6.28419ZM7.87736 4.18693L7.44118 3.9425L7.44118 3.9425L7.87736 4.18693ZM11.0535 5.43312L11.5353 5.29971L11.5353 5.29971L11.0535 5.43312ZM12.5 9.79483L12.2198 10.2089C12.3984 10.3298 12.6342 10.3225 12.805 10.191C12.9758 10.0595 13.0431 9.83329 12.972 9.6298L12.5 9.79483ZM9.27673 10.1292L8.87177 9.8359L8.87177 9.8359L9.27673 10.1292ZM7.76729 11.9377L7.42866 11.5698H7.42866L7.76729 11.9377ZM6.88679 12.5L6.45762 12.7565C6.57138 12.9469 6.79689 13.0395 7.01159 12.9842L6.88679 12.5ZM5.07862 9.85562L4.80281 10.2727L5.07862 9.85562ZM4.17322 9.02101C3.95563 9.19104 3.91708 9.50527 4.08712 9.72285C4.25715 9.94044 4.57138 9.97899 4.78896 9.80895L4.17322 9.02101ZM6.35216 7.74324L6.75011 8.04596L6.75011 8.04596L6.35216 7.74324ZM8.21534 4.43673L8.71015 4.50857L8.21534 4.43673ZM2.67777 8.65123C3.08823 8.4951 3.67777 8.26225 4.18366 8.05094C4.43609 7.9455 4.67194 7.84366 4.85567 7.75846C4.94701 7.7161 5.0307 7.67544 5.09915 7.63888C5.14602 7.61384 5.24824 7.55933 5.32388 7.48621L4.62889 6.7672C4.66994 6.72751 4.69421 6.72146 4.62799 6.75683C4.58335 6.78068 4.5188 6.81238 4.43496 6.85126C4.26833 6.92854 4.04605 7.02469 3.79823 7.12821C3.30361 7.33481 2.72414 7.56369 2.32223 7.71657L2.67777 8.65123ZM5.32388 7.48621C5.49764 7.31826 5.95038 6.8558 6.15427 6.58478L5.35516 5.9836C5.20302 6.18583 4.80104 6.6008 4.62889 6.7672L5.32388 7.48621ZM6.15427 6.58478C6.30571 6.38348 6.55146 6.20872 6.91036 5.97219L6.36008 5.13721C6.02716 5.35661 5.62819 5.62068 5.35516 5.9836L6.15427 6.58478ZM6.91036 5.97219C7.1406 5.82046 7.43615 5.52789 7.68053 5.25711C7.92746 4.98351 8.18283 4.66461 8.31354 4.43137L7.44118 3.9425C7.36749 4.074 7.17474 4.325 6.93817 4.58711C6.69907 4.85203 6.47575 5.06098 6.36008 5.13721L6.91036 5.97219ZM8.31354 4.43137C8.41359 4.25282 8.64039 3.85834 8.90819 3.5132C9.04284 3.33966 9.17451 3.1962 9.29237 3.10058C9.42214 2.9953 9.47112 3 9.44969 3V2C9.12557 2 8.8522 2.16998 8.66235 2.324C8.46058 2.48769 8.27533 2.69757 8.11813 2.90017C7.80221 3.30732 7.54553 3.7563 7.44118 3.9425L8.31354 4.43137ZM9.44969 3C9.38483 3 9.35997 2.97432 9.38453 2.9915C9.40818 3.00804 9.45146 3.04648 9.5113 3.12061C9.63107 3.26899 9.76641 3.49626 9.90535 3.78111C10.181 4.34624 10.4285 5.04968 10.5716 5.56653L11.5353 5.29971C11.3797 4.73753 11.1122 3.97441 10.8041 3.34273C10.6512 3.02919 10.4775 2.7255 10.2894 2.49251C10.1954 2.37596 10.085 2.26112 9.95768 2.17205C9.83125 2.08362 9.65801 2 9.44969 2V3ZM10.5716 5.56653C10.8161 6.44954 11.6477 8.87227 12.028 9.95986L12.972 9.6298C12.5871 8.52893 11.7688 6.14314 11.5353 5.29971L10.5716 5.56653ZM12.7802 9.38071C12.6066 9.26327 12.3241 9.09105 12.0247 8.94595C11.7492 8.81244 11.3706 8.65653 11.0377 8.65653V9.65653C11.12 9.65653 11.3153 9.71339 11.5885 9.84583C11.8379 9.96669 12.0789 10.1136 12.2198 10.2089L12.7802 9.38071ZM11.0377 8.65653C10.6759 8.65653 10.2659 8.77881 9.89644 8.97161C9.52207 9.16697 9.1462 9.45697 8.87177 9.8359L9.68169 10.4225C9.84751 10.1935 10.0927 9.99716 10.3591 9.85817C10.6303 9.71662 10.8807 9.65653 11.0377 9.65653V8.65653ZM8.87177 9.8359C8.43582 10.4379 7.72061 11.3011 7.42866 11.5698L8.10593 12.3056C8.47435 11.9664 9.23714 11.0363 9.68169 10.4225L8.87177 9.8359ZM7.42866 11.5698C7.1199 11.854 6.87886 11.9857 6.762 12.0158L7.01159 12.9842C7.36642 12.8927 7.75431 12.6292 8.10593 12.3056L7.42866 11.5698ZM7.31596 12.2435C7.2246 12.0906 7.12522 11.8947 7.00364 11.6553C6.88547 11.4226 6.75068 11.1578 6.59874 10.894C6.30074 10.3767 5.90331 9.80157 5.35442 9.43857L4.80281 10.2727C5.15015 10.5024 5.45241 10.9075 5.73224 11.3932C5.86921 11.631 5.99287 11.8734 6.11202 12.108C6.22776 12.336 6.34458 12.5674 6.45762 12.7565L7.31596 12.2435ZM5.35442 9.43857C4.51452 8.88311 3.29309 8.12748 2.78605 7.77381L2.21395 8.594C2.72368 8.94953 4.02257 9.75667 4.80281 10.2727L5.35442 9.43857ZM4.78896 9.80895C5.04059 9.61232 5.43649 9.29228 5.81102 8.96751C6.17172 8.65473 6.55648 8.30049 6.75011 8.04596L5.95422 7.44052C5.83338 7.59937 5.52894 7.88851 5.15588 8.212C4.79666 8.5235 4.41426 8.83264 4.17322 9.02101L4.78896 9.80895ZM6.75011 8.04596C6.95102 7.78186 7.39155 7.18658 7.80202 6.5285C8.00718 6.19958 8.20916 5.84809 8.37068 5.50973C8.5287 5.17868 8.66376 4.8281 8.71015 4.50857L7.72052 4.3649C7.69574 4.5356 7.61146 4.77886 7.46822 5.07895C7.32846 5.37174 7.14725 5.68872 6.95354 5.99928C6.56627 6.62016 6.14639 7.18791 5.95422 7.44052L6.75011 8.04596ZM8.71015 4.50857C8.83917 3.61983 9.05799 3.28471 9.23781 3.1504L8.6394 2.3492C8.1274 2.73162 7.85874 3.41281 7.72052 4.3649L8.71015 4.50857ZM4.70649 7.46417L5.77568 8.23925L6.36261 7.42961L5.29342 6.65454L4.70649 7.46417Z" fill="var(--mw-icon-glyph-content-dark-gray, #333333)"/>
<path d="M0.5 18.5V4.5C0.5 2.29086 2.29086 0.5 4.5 0.5H18.5C20.7091 0.5 22.5 2.29086 22.5 4.5V18.5C22.5 20.7091 20.7091 22.5 18.5 22.5H4.5C2.29086 22.5 0.5 20.7091 0.5 18.5Z" stroke="#B7312C" stroke-linecap="round"/>
<path d="M13.5 6.5H17.5V11.5" stroke="var(--mw-icon-glyph-content-gray, #616162)" stroke-linecap="round" stroke-linejoin="round"/>
<path d="M20 10H15L17.5 14L20 10Z" fill="var(--mw-icon-glyph-content-gray, #616162)"/>
<path d="M8.0566 18.8613H6.0566V17.897H8.0566C8.36568 17.897 8.61725 17.8585 8.81132 17.7816C9.00539 17.7019 9.14735 17.592 9.2372 17.4519C9.32704 17.3118 9.37197 17.1538 9.37197 16.978C9.37197 16.7995 9.32704 16.6332 9.2372 16.4794C9.14735 16.3255 9.00539 16.2019 8.81132 16.1085C8.61725 16.0151 8.36568 15.9684 8.0566 15.9684H6.61725V21H5V15H8.0566C8.67116 15 9.19766 15.0852 9.63612 15.2555C10.0782 15.4231 10.416 15.6552 10.6496 15.9519C10.8832 16.2486 11 16.5879 11 16.9698C11 17.3571 10.8832 17.6923 10.6496 17.9753C10.416 18.2582 10.0782 18.4766 9.63612 18.6305C9.19766 18.7843 8.67116 18.8613 8.0566 18.8613Z" fill="var(--mw-icon-glyph-content-gray, #616162)"/>
<path d="M12.5582 15L14.0024 17.7363L15.4466 15H17L14.7245 18.8159V21H13.2803V18.8159L11 15H12.5582Z" fill="var(--mw-icon-glyph-content-gray, #616162)"/>
</svg>
