<svg width="24" height="24" viewBox="0 0 24 24" fill="none" xmlns="http://www.w3.org/2000/svg">
<path d="M0.5 18.5V4.5C0.5 2.29086 2.29086 0.5 4.5 0.5H18.5C20.7091 0.5 22.5 2.29086 22.5 4.5V18.5C22.5 20.7091 20.7091 22.5 18.5 22.5H4.5C2.29086 22.5 0.5 20.7091 0.5 18.5Z" fill="var(--mw-icon-border-disabled-gray, #888888)"/>
<rect x="3.5" y="3.5" width="16" height="12" fill="var(--mw-icon-glyph-content-gray, #616162)" stroke="var(--mw-icon-background-default-light-gray, #F5F5F5)" stroke-linejoin="round"/>
<path d="M6.5 17.5H16.5" stroke="var(--mw-icon-background-default-light-gray, #F5F5F5)" stroke-linecap="round"/>
<path d="M4.5 19.5H18.5" stroke="var(--mw-icon-background-default-light-gray, #F5F5F5)" stroke-linecap="round"/>
<path d="M16 9V13C15.5273 12.4166 13.6543 11.4086 11.5121 11.3357C9.73239 11.2752 7.56625 10.5442 7 10V6C7.47265 6.58338 9.35783 7.5742 11.5001 7.64706C13.2798 7.70759 15.4337 8.4558 16 9Z" fill="var(--mw-icon-background-default-highlight, #FFE864)"/>
<path d="M0.5 18.5V4.5C0.5 2.29086 2.29086 0.5 4.5 0.5H18.5C20.7091 0.5 22.5 2.29086 22.5 4.5V18.5C22.5 20.7091 20.7091 22.5 18.5 22.5H4.5C2.29086 22.5 0.5 20.7091 0.5 18.5Z" stroke="var(--mw-icon-border-default-gray, #616161)" stroke-linecap="round"/>
</svg>
