<svg width="24" height="24" viewBox="0 0 24 24" fill="none" xmlns="http://www.w3.org/2000/svg">
<rect x="0.5" y="0.5" width="22" height="22" rx="4" fill="var(--mw-icon-background-default-medium-gray, #D9D9D9)" stroke="var(--mw-icon-border-default-gray, #616161)"/>
<path d="M11 6.5C11 8.98528 8.98528 11 6.5 11C4.01472 11 2 8.98528 2 6.5C2 4.01472 4.01472 2 6.5 2C8.98528 2 11 4.01472 11 6.5Z" fill="var(--mw-icon-background-default-dark-gray, #A6A6A6)"/>
<path d="M21 6.5C21 8.98528 18.9853 11 16.5 11C14.0147 11 12 8.98528 12 6.5C12 4.01472 14.0147 2 16.5 2C18.9853 2 21 4.01472 21 6.5Z" fill="var(--mw-icon-background-default-dark-gray, #A6A6A6)"/>
<path d="M11 16.5C11 18.9853 8.98528 21 6.5 21C4.01472 21 2 18.9853 2 16.5C2 14.0147 4.01472 12 6.5 12C8.98528 12 11 14.0147 11 16.5Z" fill="var(--mw-icon-background-default-dark-gray, #A6A6A6)"/>
<path d="M21 16.5C21 18.9853 18.9853 21 16.5 21C14.0147 21 12 18.9853 12 16.5C12 14.0147 14.0147 12 16.5 12C18.9853 12 21 14.0147 21 16.5Z" fill="var(--mw-icon-background-default-dark-gray, #A6A6A6)"/>
<path d="M6.44971 6.55023L10.3654 8.91539C11.0013 9.29947 11.7976 9.29947 12.4335 8.91539L16.3492 6.55023L13.984 10.4659C13.6 11.1018 13.6 11.8982 13.984 12.534L16.3492 16.4497L12.4335 14.0846C11.7976 13.7005 11.0013 13.7005 10.3654 14.0846L6.44971 16.4497L8.81487 12.534C9.19895 11.8982 9.19895 11.1018 8.81487 10.4659L6.44971 6.55023Z" fill="var(--mw-icon-background-default-white, #FFFFFF)" stroke="var(--mw-icon-glyph-content-gray, #616162)" stroke-linejoin="round"/>
</svg>
