<svg width="24" height="24" viewBox="0 0 24 24" fill="none" xmlns="http://www.w3.org/2000/svg">
<path d="M4.44341 1.01623V8.89182H2.64803V1.01623H4.44341ZM7.13347 1.01623V2.28736H0V1.01623H7.13347Z" fill="var(--mw-icon-glyph-content-light-blue, #278CDD)"/>
<path d="M10.5446 7.27451C10.5446 7.16272 10.5085 7.06175 10.4365 6.9716C10.3644 6.88145 10.2303 6.79851 10.0342 6.72279C9.84203 6.64345 9.56382 6.57133 9.19954 6.50642C8.87128 6.44151 8.56505 6.36038 8.28083 6.26302C8.00062 6.16205 7.75643 6.04124 7.54827 5.90061C7.34411 5.75997 7.18399 5.5941 7.0679 5.40298C6.95181 5.20825 6.89377 4.98648 6.89377 4.73766C6.89377 4.49245 6.95181 4.26166 7.0679 4.0453C7.18799 3.82894 7.35812 3.63782 7.57829 3.47194C7.80246 3.30246 8.07467 3.17084 8.39492 3.07708C8.71917 2.97972 9.08345 2.93103 9.48776 2.93103C10.0522 2.93103 10.5366 3.01217 10.9409 3.17444C11.3492 3.33671 11.6614 3.56029 11.8776 3.84517C12.0978 4.12644 12.2078 4.44737 12.2078 4.80798H10.4785C10.4785 4.65652 10.4425 4.5213 10.3704 4.4023C10.3024 4.27969 10.1943 4.18413 10.0462 4.11562C9.90207 4.0435 9.71393 4.00744 9.48175 4.00744C9.28961 4.00744 9.12348 4.03809 8.98337 4.09939C8.84326 4.15709 8.73518 4.23642 8.65912 4.33739C8.58707 4.43475 8.55104 4.54293 8.55104 4.66193C8.55104 4.75208 8.57105 4.83322 8.61108 4.90534C8.65512 4.97386 8.72517 5.03696 8.82125 5.09466C8.91732 5.15236 9.04142 5.20645 9.19353 5.25693C9.34965 5.30381 9.5418 5.34708 9.76997 5.38675C10.2383 5.47329 10.6567 5.58688 11.0249 5.72752C11.3932 5.86455 11.6854 6.05206 11.9016 6.29006C12.1178 6.52445 12.2259 6.83277 12.2259 7.21501C12.2259 7.47464 12.1618 7.71264 12.0337 7.92901C11.9056 8.14537 11.7215 8.33469 11.4813 8.49696C11.2411 8.65562 10.9529 8.78003 10.6166 8.87018C10.2844 8.95673 9.91008 9 9.49376 9C8.8893 9 8.3769 8.90264 7.95658 8.70791C7.54026 8.51318 7.22402 8.26617 7.00785 7.96687C6.79569 7.66396 6.68961 7.35384 6.68961 7.03651H8.32887C8.33687 7.24927 8.39692 7.42055 8.50901 7.55037C8.6251 7.68019 8.77121 7.77395 8.94734 7.83164C9.12748 7.88934 9.32163 7.91819 9.52979 7.91819C9.75396 7.91819 9.9401 7.89114 10.0882 7.83705C10.2363 7.77936 10.3484 7.70363 10.4245 7.60987C10.5045 7.51251 10.5446 7.40072 10.5446 7.27451Z" fill="var(--mw-icon-glyph-content-light-blue, #278CDD)"/>
<path d="M17 1V8.89182H15.2707V2.79581L13.1931 3.3908V2.16295L16.8139 1H17Z" fill="var(--mw-icon-glyph-content-light-blue, #278CDD)"/>
<path d="M4.02539 14.1122V21.8931H2.39892V14.1122H4.02539ZM6.46239 14.1122V15.3681H0V14.1122H6.46239Z" fill="#3BAA32"/>
<path d="M9.55259 20.2953C9.55259 20.1848 9.51995 20.0851 9.45467 19.996C9.38939 19.9069 9.26791 19.825 9.09021 19.7502C8.91614 19.6718 8.6641 19.6005 8.33409 19.5364C8.03672 19.4723 7.75929 19.3921 7.50181 19.2959C7.24796 19.1962 7.02674 19.0768 6.83816 18.9379C6.65321 18.7989 6.50815 18.635 6.40299 18.4462C6.29782 18.2538 6.24523 18.0347 6.24523 17.7889C6.24523 17.5466 6.29782 17.3186 6.40299 17.1049C6.51178 16.8911 6.66591 16.7023 6.86536 16.5384C7.06845 16.371 7.31505 16.2409 7.60517 16.1483C7.89891 16.0521 8.22892 16.004 8.59519 16.004C9.10653 16.004 9.54533 16.0842 9.91161 16.2445C10.2815 16.4048 10.5644 16.6257 10.7602 16.9071C10.9597 17.185 11.0594 17.5021 11.0594 17.8584H9.49275C9.49275 17.7088 9.46011 17.5752 9.39483 17.4576C9.33318 17.3365 9.23527 17.242 9.10109 17.1743C8.97054 17.1031 8.80009 17.0675 8.58976 17.0675C8.41568 17.0675 8.26519 17.0978 8.13826 17.1583C8.01133 17.2153 7.91342 17.2937 7.84451 17.3935C7.77924 17.4896 7.7466 17.5965 7.7466 17.7141C7.7466 17.8032 7.76473 17.8833 7.801 17.9546C7.84089 18.0223 7.90435 18.0846 7.99139 18.1416C8.07842 18.1986 8.19084 18.2521 8.32865 18.3019C8.47008 18.3483 8.64415 18.391 8.85086 18.4302C9.27516 18.5157 9.65413 18.6279 9.98776 18.7669C10.3214 18.9022 10.5861 19.0875 10.782 19.3226C10.9778 19.5542 11.0757 19.8588 11.0757 20.2365C11.0757 20.493 11.0177 20.7281 10.9016 20.9419C10.7856 21.1556 10.6188 21.3427 10.4012 21.503C10.1836 21.6598 9.92249 21.7827 9.61786 21.8717C9.31686 21.9572 8.97779 22 8.60063 22C8.05304 22 7.58885 21.9038 7.20807 21.7114C6.83091 21.519 6.54442 21.275 6.34859 20.9793C6.15639 20.68 6.06028 20.3736 6.06028 20.0601H7.54533C7.55258 20.2703 7.60698 20.4395 7.70852 20.5678C7.81369 20.6961 7.94605 20.7887 8.10562 20.8457C8.26881 20.9027 8.4447 20.9312 8.63327 20.9312C8.83636 20.9312 9.00499 20.9045 9.13917 20.851C9.27335 20.794 9.37489 20.7192 9.44379 20.6266C9.51632 20.5304 9.55259 20.42 9.55259 20.2953Z" fill="#3BAA32"/>
<path d="M17 20.6907V21.8931H11.582V20.8671L14.1441 18.1683C14.4016 17.8869 14.6047 17.6393 14.7534 17.4255C14.9021 17.2082 15.0091 17.014 15.0743 16.843C15.1432 16.6684 15.1777 16.5028 15.1777 16.346C15.1777 16.1109 15.1378 15.9096 15.058 15.7422C14.9782 15.5711 14.8604 15.4393 14.7044 15.3467C14.5521 15.2541 14.3635 15.2077 14.1387 15.2077C13.8994 15.2077 13.6926 15.2648 13.5186 15.3788C13.3481 15.4928 13.2176 15.6513 13.1269 15.8544C13.0399 16.0574 12.9964 16.2872 12.9964 16.5438H11.4243C11.4243 16.0806 11.5367 15.6566 11.7615 15.2719C11.9864 14.8835 12.3037 14.5754 12.7135 14.3474C13.1233 14.1158 13.6092 14 14.1713 14C14.7262 14 15.194 14.0891 15.5748 14.2672C15.9592 14.4418 16.2493 14.6947 16.4451 15.0261C16.6446 15.3538 16.7443 15.7457 16.7443 16.2017C16.7443 16.4582 16.7026 16.7094 16.6192 16.9552C16.5358 17.1975 16.4161 17.4398 16.2602 17.682C16.1079 17.9207 15.9229 18.163 15.7053 18.4088C15.4878 18.6546 15.2466 18.9094 14.9819 19.173L13.6056 20.6907H17Z" fill="#3BAA32"/>
<path d="M18.5 4.5H22.5V17.5H17.5M17.5 17.5L19.5 15.5M17.5 17.5L19.5 19.5" stroke="var(--mw-icon-object-primary, #616160)" stroke-linecap="round" stroke-linejoin="round"/>
</svg>
