<svg width="24" height="24" viewBox="0 0 24 24" fill="none" xmlns="http://www.w3.org/2000/svg">
<path d="M1 22H22V11.5V1H1V11.5V22Z" fill="var(--mw-icon-background-default-white, #FFFFFF)"/>
<path d="M5.5 7.5V4.5L8.5 2.5L11.5 4.5M5.5 7.5L8.5 9.5M5.5 7.5L2.5 9.5V12.5L5.5 14.5M8.5 9.5L11.5 7.5M8.5 9.5V12.5M11.5 7.5V4.5M11.5 7.5L14.5 9.5M11.5 4.5L14.5 2.5L17.5 4.5V7.5M5.5 14.5V17.5L8.5 19.5L11.5 17.5M5.5 14.5L8.5 12.5M11.5 17.5V14.5M11.5 17.5L14.5 19.5L17.5 17.5V14.5M11.5 14.5L8.5 12.5M11.5 14.5L14.5 12.5M14.5 12.5V9.5M14.5 12.5L17.5 14.5M14.5 9.5L17.5 7.5M17.5 14.5L20.5 12.5V9.5L17.5 7.5" stroke="var(--mw-icon-glyph-disabled-gray, #888889)" stroke-linejoin="round"/>
<path fill-rule="evenodd" clip-rule="evenodd" d="M7 5.25607V6.74393L8.5 7.75L10 6.74393V5.25607L8.5 4.25L7 5.25607Z" fill="#1171BE"/>
<path fill-rule="evenodd" clip-rule="evenodd" d="M10 10.2561V11.7439L11.5 12.75L13 11.7439V10.2561L11.5 9.25L10 10.2561Z" fill="#1171BE"/>
<path fill-rule="evenodd" clip-rule="evenodd" d="M7 15.2561V16.7439L8.5 17.75L10 16.7439V15.2561L8.5 14.25L7 15.2561Z" fill="#1171BE"/>
<path fill-rule="evenodd" clip-rule="evenodd" d="M13 15.2561V16.7439L14.5 17.75L16 16.7439V15.2561L14.5 14.25L13 15.2561Z" fill="#1171BE"/>
<path fill-rule="evenodd" clip-rule="evenodd" d="M4 10.2561V11.7439L5.5 12.75L7 11.7439V10.2561L5.5 9.25L4 10.2561Z" fill="#1171BE"/>
<path fill-rule="evenodd" clip-rule="evenodd" d="M16 10.2561V11.7439L17.5 12.75L19 11.7439V10.2561L17.5 9.25L16 10.2561Z" fill="#1171BE"/>
<path fill-rule="evenodd" clip-rule="evenodd" d="M13 5.25607V6.74393L14.5 7.75L16 6.74393V5.25607L14.5 4.25L13 5.25607Z" fill="#1171BE"/>
<path d="M0.5 2.5C0.5 1.39543 1.39543 0.5 2.5 0.5H20.5C21.6046 0.5 22.5 1.39543 22.5 2.5V20.5C22.5 21.6046 21.6046 22.5 20.5 22.5H2.5C1.39543 22.5 0.5 21.6046 0.5 20.5V2.5Z" stroke="var(--mw-icon-border-default-gray, #616161)" stroke-linejoin="round"/>
</svg>
