<svg width="24" height="24" viewBox="0 0 24 24" fill="none" xmlns="http://www.w3.org/2000/svg">
<path d="M0.5 18.5V4.5C0.5 2.29086 2.29086 0.5 4.5 0.5H18.5C20.7091 0.5 22.5 2.29086 22.5 4.5V18.5C22.5 20.7091 20.7091 22.5 18.5 22.5H4.5C2.29086 22.5 0.5 20.7091 0.5 18.5Z" fill="#00A3A3"/>
<path d="M3.57795 12.4716C3.04699 13.1178 2.78479 13.9867 2.85273 14.9298C2.92076 15.8742 3.31568 16.8262 3.97317 17.6098C4.63067 18.3934 5.49967 18.9476 6.41785 19.1786C6.94241 19.3105 7.46177 19.3319 7.94661 19.2491" stroke="var(--mw-icon-background-default-white, white)" stroke-linecap="round"/>
<path d="M6.22771 12.6271C5.9469 13.1193 5.87034 13.7179 6.01179 14.3152C6.15325 14.9125 6.50344 15.4693 6.99938 15.8854C7.49533 16.3016 8.10447 16.5497 8.71725 16.5853C8.98704 16.601 9.24975 16.575 9.49652 16.5101" stroke="var(--mw-icon-background-default-white, white)" stroke-linecap="round"/>
<circle cx="12.5" cy="11.5" r="2.5" fill="var(--mw-icon-background-default-white, white)" stroke="var(--mw-icon-background-default-white, white)"/>
<rect x="14.4226" y="16.6663" width="3" height="6" rx="1" transform="rotate(-40 14.4226 16.6663)" fill="var(--mw-icon-background-default-white, white)"/>
<rect x="4.42261" y="3.66626" width="3" height="6" rx="1" transform="rotate(-40 4.42261 3.66626)" fill="var(--mw-icon-background-default-white, white)"/>
<path d="M0.5 18.5V4.5C0.5 2.29086 2.29086 0.5 4.5 0.5H18.5C20.7091 0.5 22.5 2.29086 22.5 4.5V18.5C22.5 20.7091 20.7091 22.5 18.5 22.5H4.5C2.29086 22.5 0.5 20.7091 0.5 18.5Z" stroke="#02555C" stroke-linecap="round"/>

</svg>
