<svg width="24" height="24" viewBox="0 0 24 24" fill="none" xmlns="http://www.w3.org/2000/svg">
<path d="M1.5 0.5H17.5C18.0523 0.5 18.5 0.947716 18.5 1.5V17.5C18.5 18.0523 18.0523 18.5 17.5 18.5H1.5C0.947716 18.5 0.5 18.0523 0.5 17.5V1.5C0.5 0.947715 0.947716 0.5 1.5 0.5Z" fill="var(--mw-icon-background-default-white, #FFFFFF)" stroke="var(--mw-icon-border-default-gray, #616161)" stroke-linecap="round"/>
<path fill-rule="evenodd" clip-rule="evenodd" d="M19 5.77431C18.2968 5.23882 17.6316 5 17 5C16.2459 5 15.4438 5.3405 14.5863 6.11997C13.7262 6.90191 12.8409 8.0996 11.9381 9.74096C11.0075 11.4329 10.0595 12.7352 9.08634 13.62C8.11042 14.5072 7.0792 15 6 15C4.9208 15 3.88958 14.5072 2.91366 13.62C1.94047 12.7352 0.992477 11.4329 0.0618916 9.74096C-0.0711861 9.499 0.0170803 9.19497 0.259041 9.06189C0.501001 8.92881 0.805029 9.01708 0.938108 9.25904C1.84086 10.9004 2.7262 12.0981 3.58634 12.88C4.44375 13.6595 5.24587 14 6 14C6.75413 14 7.55624 13.6595 8.41366 12.88C9.2738 12.0981 10.1591 10.9004 11.0619 9.25904C11.9925 7.56707 12.9405 6.26476 13.9137 5.38003C14.8896 4.49283 15.9208 4 17 4C17.6867 4 18.354 4.19955 19 4.57329V5.77431Z" fill="#1171BE"/>
<path fill-rule="evenodd" clip-rule="evenodd" d="M2.86102e-05 13.2257C0.703217 13.7612 1.36845 14 2.00003 14C2.75416 14 3.55627 13.6595 4.41369 12.88C5.27383 12.0981 6.15917 10.9004 7.06192 9.25904C7.99251 7.56707 8.94049 6.26476 9.91369 5.38003C10.8896 4.49283 11.9208 4 13 4C14.0792 4 15.1105 4.49283 16.0864 5.38003C17.0596 6.26476 18.0076 7.56707 18.9381 9.25904C19.0712 9.501 18.9829 9.80503 18.741 9.93811C18.499 10.0712 18.195 9.98292 18.0619 9.74096C17.1592 8.0996 16.2738 6.90191 15.4137 6.11997C14.5563 5.3405 13.7542 5 13 5C12.2459 5 11.4438 5.3405 10.5864 6.11997C9.72623 6.90191 8.84089 8.0996 7.93814 9.74096C7.00755 11.4329 6.05956 12.7352 5.08636 13.62C4.11045 14.5072 3.07923 15 2.00003 15C1.3133 15 0.646009 14.8004 2.86102e-05 14.4267V13.2257Z" fill="#DD5400"/>
<path d="M1.5 0.5H17.5C18.0523 0.5 18.5 0.947716 18.5 1.5V17.5C18.5 18.0523 18.0523 18.5 17.5 18.5H1.5C0.947716 18.5 0.5 18.0523 0.5 17.5V1.5C0.5 0.947715 0.947716 0.5 1.5 0.5Z" stroke="var(--mw-icon-border-default-gray, #616161)" stroke-linecap="round"/>
<path d="M9.5 11.5C9.5 10.9477 9.94772 10.5 10.5 10.5H21.5C22.0523 10.5 22.5 10.9477 22.5 11.5V22.5C22.5 23.0523 22.0523 23.5 21.5 23.5H12.0942C11.8778 23.5 11.6673 23.4298 11.4942 23.3L9.9 22.1043C9.64819 21.9155 9.5 21.6191 9.5 21.3043V11.5Z" fill="var(--mw-icon-background-default-medium-gray, #D9D9D9)" stroke="var(--mw-icon-border-default-gray, #616161)" stroke-linejoin="round"/>
<path d="M12.5 18.5H19.5V23.5H12.5V18.5Z" fill="white" stroke="var(--mw-icon-border-default-gray, #616161)" stroke-linejoin="round"/>
<path d="M14 20.0001H16V23.0001H14V20.0001Z" fill="var(--mw-icon-border-default-gray, #616161)"/>
<path d="M11.5 10.5H20.5V16.5H11.5V10.5Z" fill="white"/>
<path d="M11.5 10.5V10H11V10.5H11.5ZM20.5 10.5H21V10H20.5V10.5ZM20.5 16.5V17C20.7761 17 21 16.7761 21 16.5H20.5ZM11.5 16.5H11C11 16.7761 11.2239 17 11.5 17V16.5ZM11.5 11H20.5V10H11.5V11ZM20 10.5V16.5H21V10.5H20ZM20.5 16H11.5V17H20.5V16ZM12 16.5V10.5H11V16.5H12Z" fill="var(--mw-icon-border-default-gray, #616161)"/>
</svg>
