<svg width="24" height="24" viewBox="0 0 24 24" fill="none" xmlns="http://www.w3.org/2000/svg">
<path d="M8.5 16.5H10.5V21.5H8.5V16.5Z" fill="var(--mw-icon-object-primary, #616160)" stroke="var(--mw-icon-object-primary, #616160)" stroke-linejoin="round"/>
<path d="M5.5 15C5.5 14.7239 5.72386 14.5 6 14.5H17C17.2761 14.5 17.5 14.7239 17.5 15V21.5H5.75C5.61193 21.5 5.5 21.3881 5.5 21.25V15Z" stroke="var(--mw-icon-object-primary, #616160)"/>
<path d="M1.5 2.5C1.5 1.94772 1.94772 1.5 2.5 1.5H20.5C21.0523 1.5 21.5 1.94772 21.5 2.5V20.5C21.5 21.0523 21.0523 21.5 20.5 21.5H5.65942C5.44305 21.5 5.23252 21.4298 5.05942 21.3L1.9 18.9304C1.64819 18.7416 1.5 18.4452 1.5 18.1304V2.5Z" stroke="var(--mw-icon-object-primary, #616160)"/>
<path d="M4.5 1.5H18.5V11C18.5 11.2761 18.2761 11.5 18 11.5H5C4.72386 11.5 4.5 11.2761 4.5 11V1.5Z" stroke="var(--mw-icon-object-primary, #616160)"/>
</svg>
