<svg width="24" height="24" viewBox="0 0 24 24" fill="none" xmlns="http://www.w3.org/2000/svg">
<path d="M0.5 5.5C0.5 4.94772 0.947715 4.5 1.5 4.5H18.5C19.0523 4.5 19.5 4.94772 19.5 5.5V22.5C19.5 23.0523 19.0523 23.5 18.5 23.5H3.76421C3.499 23.5 3.24464 23.3946 3.05711 23.2071L0.792893 20.9429C0.605357 20.7554 0.5 20.501 0.5 20.2358V5.5Z" fill="var(--mw-icon-background-default-medium-gray, #D9D9D9)" stroke="var(--mw-icon-border-disabled-gray, #888888)"/>
<path d="M3.5 17C3.5 16.7239 3.72386 16.5 4 16.5H16C16.2761 16.5 16.5 16.7239 16.5 17V23.5H3.75C3.61193 23.5 3.5 23.3881 3.5 23.25V17Z" fill="var(--mw-icon-background-default-medium-gray, #D9D9D9)" stroke="var(--mw-icon-border-disabled-gray, #888888)"/>
<path d="M6 19H9V23H6V19Z" fill="var(--mw-icon-border-disabled-gray, #888888)"/>
<path d="M3.5 4.5H16.5V13C16.5 13.2761 16.2761 13.5 16 13.5H4C3.72386 13.5 3.5 13.2761 3.5 13V4.5Z" fill="var(--mw-icon-background-default-medium-gray, #D9D9D9)" stroke="var(--mw-icon-border-disabled-gray, #888888)"/>
<path d="M5.5 9.5V1.5C5.5 0.947715 5.94772 0.5 6.5 0.5H22.5C23.0523 0.5 23.5 0.947715 23.5 1.5V9.5C23.5 10.0523 23.0523 10.5 22.5 10.5H6.5C5.94772 10.5 5.5 10.0523 5.5 9.5Z" fill="var(--mw-icon-background-default-white, #FFFFFF)" stroke="var(--mw-icon-border-default-blue, #1656A7)" stroke-linejoin="round"/>
<path d="M11 7.5C11 8.32843 10.3284 9 9.5 9C8.67157 9 8 8.32843 8 7.5C8 6.67157 8.67157 6 9.5 6C10.3284 6 11 6.67157 11 7.5Z" fill="var(--mw-icon-glyph-content-blue, #1656A8)"/>
<path d="M16 7.5C16 8.32843 15.3284 9 14.5 9C13.6716 9 13 8.32843 13 7.5C13 6.67157 13.6716 6 14.5 6C15.3284 6 16 6.67157 16 7.5Z" fill="var(--mw-icon-glyph-content-blue, #1656A8)"/>
<path d="M21 7.5C21 8.32843 20.3284 9 19.5 9C18.6716 9 18 8.32843 18 7.5C18 6.67157 18.6716 6 19.5 6C20.3284 6 21 6.67157 21 7.5Z" fill="var(--mw-icon-glyph-content-blue, #1656A8)"/>
</svg>
