<svg width="24" height="24" viewBox="0 0 24 24" fill="none" xmlns="http://www.w3.org/2000/svg">
<path d="M0.5 11.5H18.5V16.5C18.5 17.6046 17.6046 18.5 16.5 18.5H2.5C1.39543 18.5 0.5 17.6046 0.5 16.5V11.5Z" fill="var(--mw-icon-background-default-medium-gray, #D9D9D9)" stroke="var(--mw-icon-border-default-gray, #616161)"/>
<path d="M2.5 13.5H8.5M2.5 15.5H8.5" stroke="var(--mw-icon-glyph-content-gray, #616162)" stroke-linecap="round"/>
<path d="M0.5 11.5H18.5V2.5C18.5 1.39543 17.6046 0.5 16.5 0.5H2.5C1.39543 0.5 0.5 1.39543 0.5 2.5V11.5Z" fill="var(--mw-icon-background-default-white, #FFFFFF)" stroke="var(--mw-icon-border-default-gray, #616161)"/>
<rect x="2" y="7" width="3" height="3" fill="#0072BD"/>
<rect x="5" y="4" width="3" height="6" fill="#D95319"/>
<rect x="11" y="3" width="3" height="7" fill="#D95319"/>
<rect x="8" y="2" width="3" height="8" fill="#0072BD"/>
<rect x="14" y="6" width="3" height="4" fill="#0072BD"/>
<path d="M10.5 10.5C10.5 9.94772 10.9477 9.5 11.5 9.5H22.5C23.0523 9.5 23.5 9.94772 23.5 10.5V21.5C23.5 22.0523 23.0523 22.5 22.5 22.5H13.0942C12.8778 22.5 12.6673 22.4298 12.4942 22.3L10.9 21.1043C10.6482 20.9155 10.5 20.6191 10.5 20.3043V10.5Z" fill="var(--mw-icon-background-default-selection, #B4DEFF)" stroke="var(--mw-icon-border-default-blue, #1656A7)" stroke-linejoin="round"/>
<path d="M13.5 17.5H20.5V22.5H13.5V17.5Z" fill="white" stroke="var(--mw-icon-border-default-blue, #1656A7)" stroke-linejoin="round"/>
<path d="M15 19.0001H17V22.0001H15V19.0001Z" fill="var(--mw-icon-border-default-blue, #1656A7)"/>
<path d="M12.5 9.5H21.5V15.5H12.5V9.5Z" fill="white"/>
<path d="M12.5 9.5V9H12V9.5H12.5ZM21.5 9.5H22V9H21.5V9.5ZM21.5 15.5V16C21.7761 16 22 15.7761 22 15.5H21.5ZM12.5 15.5H12C12 15.7761 12.2239 16 12.5 16V15.5ZM12.5 10H21.5V9H12.5V10ZM21 9.5V15.5H22V9.5H21ZM21.5 15H12.5V16H21.5V15ZM13 15.5V9.5H12V15.5H13Z" fill="var(--mw-icon-border-default-blue, #1656A7)"/>
</svg>
