<svg width="24" height="24" viewBox="0 0 24 24" fill="none" xmlns="http://www.w3.org/2000/svg">
<path d="M0.5 2.5C0.5 1.39543 1.39543 0.5 2.5 0.5H16.5C17.6046 0.5 18.5 1.39543 18.5 2.5V16.5C18.5 17.6046 17.6046 18.5 16.5 18.5H2.5C1.39543 18.5 0.5 17.6046 0.5 16.5L0.5 2.5Z" fill="var(--mw-icon-background-default-medium-gray, #D9D9D9)" stroke="var(--mw-icon-border-default-gray, #616161)" stroke-linejoin="round"/>
<circle r="1" transform="matrix(-1 0 0 1 15.5 3.5)" fill="var(--mw-icon-background-default-light-gray, #F5F5F5)" stroke="var(--mw-icon-glyph-content-dark-gray, #333333)" stroke-linejoin="round"/>
<path d="M15.5 9.56699C15.5 12.8807 12.8137 15.567 9.5 15.567C6.18629 15.567 3.5 12.8807 3.5 9.56699C3.5 6.25328 6.18629 3.56699 9.5 3.56699C12.8137 3.56699 15.5 6.25328 15.5 9.56699Z" fill="var(--mw-icon-background-default-dark-gray, #A6A6A6)" stroke="var(--mw-icon-glyph-content-dark-gray, #333333)" stroke-linejoin="round"/>
<path d="M14 9.5C14 11.9853 11.9853 14 9.5 14C7.01472 14 5 11.9853 5 9.5C5 7.01472 7.01472 5 9.5 5C11.9853 5 14 7.01472 14 9.5Z" fill="var(--mw-icon-glyph-content-dark-gray, #333333)"/>
<ellipse cx="8" cy="8" rx="1" ry="1" fill="var(--mw-icon-background-default-light-gray, #F5F5F5)"/>
<path d="M10.5 11.5C10.5 10.9477 10.9477 10.5 11.5 10.5H22.5C23.0523 10.5 23.5 10.9477 23.5 11.5V22.5C23.5 23.0523 23.0523 23.5 22.5 23.5H13.0942C12.8778 23.5 12.6673 23.4298 12.4942 23.3L10.9 22.1043C10.6482 21.9155 10.5 21.6191 10.5 21.3043V11.5Z" fill="var(--mw-icon-background-default-selection, #B4DEFF)" stroke="var(--mw-icon-border-default-blue, #1656A7)" stroke-linejoin="round"/>
<path d="M13.5 18.5H20.5V23.5H13.5V18.5Z" fill="var(--mw-icon-background-default-white, #FFFFFF)" stroke="var(--mw-icon-border-default-blue, #1656A7)" stroke-linejoin="round"/>
<path d="M15 20.0001H17V23.0001H15V20.0001Z" fill="var(--mw-icon-border-default-blue, #1656A7)"/>
<path d="M12.5 10.5H21.5V16.5H12.5V10.5Z" fill="white"/>
<path d="M12.5 10.5V10H12V10.5H12.5ZM21.5 10.5H22V10H21.5V10.5ZM21.5 16.5V17C21.7761 17 22 16.7761 22 16.5H21.5ZM12.5 16.5H12C12 16.7761 12.2239 17 12.5 17V16.5ZM12.5 11H21.5V10H12.5V11ZM21 10.5V16.5H22V10.5H21ZM21.5 16H12.5V17H21.5V16ZM13 16.5V10.5H12V16.5H13Z" fill="var(--mw-icon-border-default-blue, #1656A7)"/>
</svg>
