<svg width="25" height="25" viewBox="0 0 25 25" fill="none" xmlns="http://www.w3.org/2000/svg">
<path d="M6.5 3.5H17.5V11C17.5 11.2761 17.2761 11.5 17 11.5H7C6.72386 11.5 6.5 11.2761 6.5 11V3.5Z" fill="#F5FAFF" stroke="var(--mw-icon-border-default-blue, #1656A7)"/>
<path d="M5.5 1C5.5 0.723858 5.72386 0.5 6 0.5H18C18.2761 0.5 18.5 0.723858 18.5 1V3.5H5.5V1Z" fill="#F5FAFF" stroke="var(--mw-icon-border-default-blue, #1656A7)" stroke-linejoin="round"/>
<path d="M1.5 9.5H12.5V17C12.5 17.2761 12.2761 17.5 12 17.5H2C1.72386 17.5 1.5 17.2761 1.5 17V9.5Z" fill="#F5FAFF" stroke="var(--mw-icon-border-default-blue, #1656A7)"/>
<path d="M0.5 7C0.5 6.72386 0.723858 6.5 1 6.5H13C13.2761 6.5 13.5 6.72386 13.5 7V9.5H0.5V7Z" fill="#F5FAFF" stroke="var(--mw-icon-border-default-blue, #1656A7)" stroke-linejoin="round"/>
<path d="M10.5 11.5C10.5 10.9477 10.9477 10.5 11.5 10.5H22.5C23.0523 10.5 23.5 10.9477 23.5 11.5V22.5C23.5 23.0523 23.0523 23.5 22.5 23.5H13.0942C12.8778 23.5 12.6673 23.4298 12.4942 23.3L10.9 22.1043C10.6482 21.9155 10.5 21.6191 10.5 21.3043V11.5Z" fill="var(--mw-icon-background-default-medium-gray, #D9D9D9)" stroke="var(--mw-icon-border-default-gray, #616161)" stroke-linejoin="round"/>
<path d="M13.5 18.5H20.5V23.5H13.5V18.5Z" fill="var(--mw-icon-background-default-white, #FFFFFF)" stroke="var(--mw-icon-border-default-gray, #616161)" stroke-linejoin="round"/>
<path d="M15 20.0001H17V23.0001H15V20.0001Z" fill="var(--mw-icon-border-default-gray, #616161)"/>
<path d="M12.5 10.5H21.5V16.5H12.5V10.5Z" fill="white"/>
<path d="M12.5 10.5V10H12V10.5H12.5ZM21.5 10.5H22V10H21.5V10.5ZM21.5 16.5V17C21.7761 17 22 16.7761 22 16.5H21.5ZM12.5 16.5H12C12 16.7761 12.2239 17 12.5 17V16.5ZM12.5 11H21.5V10H12.5V11ZM21 10.5V16.5H22V10.5H21ZM21.5 16H12.5V17H21.5V16ZM13 16.5V10.5H12V16.5H13Z" fill="var(--mw-icon-border-default-gray, #616161)"/>
</svg>
