<svg width="24" height="24" viewBox="0 0 24 24" fill="none" xmlns="http://www.w3.org/2000/svg">
<path d="M2.5 4.56897H17.5V16.5C17.5 17.0523 17.0523 17.5 16.5 17.5H3.5C2.94772 17.5 2.5 17.0523 2.5 16.5V4.56897Z" fill="var(--mw-icon-background-default-white, #FFFFFF)" stroke="var(--mw-icon-border-default-gray, #616161)"/>
<path d="M6.24992 7.91668C6.24992 8.37691 5.87682 8.75001 5.41659 8.75001C4.95635 8.75001 4.58325 8.37691 4.58325 7.91668C4.58325 7.45644 4.95635 7.08334 5.41659 7.08334C5.87682 7.08334 6.24992 7.45644 6.24992 7.91668Z" fill="var(--mw-icon-glyph-content-gray, #616162)"/>
<path d="M6.24992 11.25C6.24992 11.7102 5.87682 12.0833 5.41659 12.0833C4.95635 12.0833 4.58325 11.7102 4.58325 11.25C4.58325 10.7898 4.95635 10.4167 5.41659 10.4167C5.87682 10.4167 6.24992 10.7898 6.24992 11.25Z" fill="var(--mw-icon-glyph-content-gray, #616162)"/>
<path d="M6.24992 14.5833C6.24992 15.0436 5.87682 15.4167 5.41659 15.4167C4.95635 15.4167 4.58325 15.0436 4.58325 14.5833C4.58325 14.1231 4.95635 13.75 5.41659 13.75C5.87682 13.75 6.24992 14.1231 6.24992 14.5833Z" fill="var(--mw-icon-glyph-content-gray, #616162)"/>
<path d="M8.33325 7.5H14.9999M8.33325 10.8333H14.9999M8.33325 14.1667H14.9999" stroke="var(--mw-icon-glyph-content-gray, #616162)" stroke-linecap="round"/>
<path d="M2.5 3.5C2.5 2.94772 2.94772 2.5 3.5 2.5H16.5C17.0523 2.5 17.5 2.94772 17.5 3.5V4.56896H2.5V3.5Z" fill="var(--mw-icon-background-default-medium-gray, #D9D9D9)" stroke="var(--mw-icon-border-default-gray, #616161)"/>
<path d="M0.5 2.56897H15.5V14.5C15.5 15.0523 15.0523 15.5 14.5 15.5H1.5C0.947715 15.5 0.5 15.0523 0.5 14.5V2.56897Z" fill="white" stroke="var(--mw-icon-border-default-gray, #616161)"/>
<path d="M4.24992 5.41666C4.24992 5.8769 3.87682 6.24999 3.41659 6.24999C2.95635 6.24999 2.58325 5.8769 2.58325 5.41666C2.58325 4.95642 2.95635 4.58333 3.41659 4.58333C3.87682 4.58333 4.24992 4.95642 4.24992 5.41666Z" fill="var(--mw-icon-glyph-content-gray, #616162)"/>
<path d="M4.24992 8.74999C4.24992 9.21023 3.87682 9.58332 3.41659 9.58332C2.95635 9.58332 2.58325 9.21023 2.58325 8.74999C2.58325 8.28975 2.95635 7.91666 3.41659 7.91666C3.87682 7.91666 4.24992 8.28975 4.24992 8.74999Z" fill="var(--mw-icon-glyph-content-gray, #616162)"/>
<path d="M4.24992 11.5833C4.24992 12.0436 3.87682 12.4167 3.41659 12.4167C2.95635 12.4167 2.58325 12.0436 2.58325 11.5833C2.58325 11.1231 2.95635 10.75 3.41659 10.75C3.87682 10.75 4.24992 11.1231 4.24992 11.5833Z" fill="var(--mw-icon-glyph-content-gray, #616162)"/>
<path d="M6.5 5.5H12.9999M6.5 8.5H13M6.5 11.5H12.9999" stroke="var(--mw-icon-glyph-content-gray, #616162)" stroke-linecap="round"/>
<path d="M0.5 1.5C0.5 0.947716 0.947715 0.5 1.5 0.5H14.5C15.0523 0.5 15.5 0.947715 15.5 1.5V2.56896H0.5V1.5Z" fill="var(--mw-icon-background-default-selection, #B4DEFF)" stroke="var(--mw-icon-border-default-blue, #1656A7)"/>
<path d="M10.5 11.5C10.5 10.9477 10.9477 10.5 11.5 10.5H22.5C23.0523 10.5 23.5 10.9477 23.5 11.5V22.5C23.5 23.0523 23.0523 23.5 22.5 23.5H13.0942C12.8778 23.5 12.6673 23.4298 12.4942 23.3L10.9 22.1043C10.6482 21.9155 10.5 21.6191 10.5 21.3043V11.5Z" fill="var(--mw-icon-background-default-selection, #B4DEFF)" stroke="var(--mw-icon-border-default-blue, #1656A7)" stroke-linejoin="round"/>
<path d="M13.5 18.5H20.5V23.5H13.5V18.5Z" fill="white" stroke="var(--mw-icon-border-default-blue, #1656A7)" stroke-linejoin="round"/>
<path d="M15 20.0001H17V23.0001H15V20.0001Z" fill="var(--mw-icon-border-default-blue, #1656A7)"/>
<path d="M12.5 10.5H21.5V16.5H12.5V10.5Z" fill="white"/>
<path d="M12.5 10.5V10H12V10.5H12.5ZM21.5 10.5H22V10H21.5V10.5ZM21.5 16.5V17C21.7761 17 22 16.7761 22 16.5H21.5ZM12.5 16.5H12C12 16.7761 12.2239 17 12.5 17V16.5ZM12.5 11H21.5V10H12.5V11ZM21 10.5V16.5H22V10.5H21ZM21.5 16H12.5V17H21.5V16ZM13 16.5V10.5H12V16.5H13Z" fill="var(--mw-icon-border-default-blue, #1656A7)"/>
</svg>
