<svg width="24" height="24" viewBox="0 0 24 24" fill="none" xmlns="http://www.w3.org/2000/svg">
<path d="M18.5 17.5L1.5 17.5C0.947715 17.5 0.5 17.0523 0.5 16.5L0.499999 4.5L19.5 4.5L19.5 16.5C19.5 17.0523 19.0523 17.5 18.5 17.5Z" fill="var(--mw-icon-background-default-white, #FFFFFF)" stroke="var(--mw-icon-border-default-gray, #616161)" stroke-linecap="round"/>
<path d="M19.5 4.5L0.5 4.5L0.5 1.5C0.5 0.947717 0.947715 0.500002 1.5 0.500002L18.5 0.500001C19.0523 0.500001 19.5 0.947715 19.5 1.5L19.5 4.5Z" fill="var(--mw-icon-background-default-selection, #B4DEFF)" stroke="var(--mw-icon-border-default-blue, #1656A7)" stroke-linecap="round"/>
<path d="M10.5 11.5C10.5 10.9477 10.9477 10.5 11.5 10.5H22.5C23.0523 10.5 23.5 10.9477 23.5 11.5V22.5C23.5 23.0523 23.0523 23.5 22.5 23.5H13.0942C12.8778 23.5 12.6673 23.4298 12.4942 23.3L10.9 22.1043C10.6482 21.9155 10.5 21.6191 10.5 21.3043V11.5Z" fill="var(--mw-icon-background-default-medium-gray, #D9D9D9)" stroke="var(--mw-icon-border-default-gray, #616161)" stroke-linejoin="round"/>
<path d="M13.5 18.5H20.5V23.5H13.5V18.5Z" fill="white" stroke="var(--mw-icon-border-default-gray, #616161)" stroke-linejoin="round"/>
<path d="M15 20.0001H17V23.0001H15V20.0001Z" fill="var(--mw-icon-border-default-gray, #616161)"/>
<path d="M12.5 10.5H21.5V16.5H12.5V10.5Z" fill="white"/>
<path d="M12.5 10.5V10H12V10.5H12.5ZM21.5 10.5H22V10H21.5V10.5ZM21.5 16.5V17C21.7761 17 22 16.7761 22 16.5H21.5ZM12.5 16.5H12C12 16.7761 12.2239 17 12.5 17V16.5ZM12.5 11H21.5V10H12.5V11ZM21 10.5V16.5H22V10.5H21ZM21.5 16H12.5V17H21.5V16ZM13 16.5V10.5H12V16.5H13Z" fill="var(--mw-icon-border-default-gray, #616161)"/>
</svg>
