<svg width="24" height="24" viewBox="0 0 24 24" fill="none" xmlns="http://www.w3.org/2000/svg">
<path d="M16.5 0.5H2.5C1.39543 0.5 0.5 1.39543 0.5 2.5V16.5C0.5 17.6046 1.39543 18.5 2.5 18.5H16.5C17.6046 18.5 18.5 17.6046 18.5 16.5V2.5C18.5 1.39543 17.6046 0.5 16.5 0.5Z" fill="var(--mw-icon-background-default-white, #FFFFFF)" stroke="var(--mw-icon-border-default-gray, #616161)" stroke-linecap="round"/>
<path d="M17 16C17 16.5523 16.5523 17 16 17L14 17L14 2L16 2C16.5523 2 17 2.44772 17 3L17 16Z" fill="#F57729"/>
<path d="M12 2H14V17H12V2Z" fill="#FFD60A"/>
<path d="M10 2H12V17H10V2Z" fill="#3AC831"/>
<path d="M7 2H10V17H7V2Z" fill="var(--mw-icon-borderColor-light-blue, #268CDD)"/>
<path d="M4 2H7V17H4V2Z" fill="#C05CFB"/>
<path d="M2 3C2 2.44772 2.44772 2 3 2H4V17H3C2.44772 17 2 16.5523 2 16V3Z" fill="#F267C5"/>
<path d="M10.5 11.5C10.5 10.9477 10.9477 10.5 11.5 10.5H22.5C23.0523 10.5 23.5 10.9477 23.5 11.5V22.5C23.5 23.0523 23.0523 23.5 22.5 23.5H13.0942C12.8778 23.5 12.6673 23.4298 12.4942 23.3L10.9 22.1043C10.6482 21.9155 10.5 21.6191 10.5 21.3043V11.5Z" fill="var(--mw-icon-background-default-selection, #B4DEFF)" stroke="var(--mw-icon-border-default-blue, #1656A7)" stroke-linejoin="round"/>
<path d="M13.5 18.5H20.5V23.5H13.5V18.5Z" fill="white" stroke="var(--mw-icon-border-default-blue, #1656A7)" stroke-linejoin="round"/>
<path d="M15 20.0001H17V23.0001H15V20.0001Z" fill="var(--mw-icon-border-default-blue, #1656A7)"/>
<path d="M12.5 10.5H21.5V16.5H12.5V10.5Z" fill="white"/>
<path d="M12.5 10.5V10H12V10.5H12.5ZM21.5 10.5H22V10H21.5V10.5ZM21.5 16.5V17C21.7761 17 22 16.7761 22 16.5H21.5ZM12.5 16.5H12C12 16.7761 12.2239 17 12.5 17V16.5ZM12.5 11H21.5V10H12.5V11ZM21 10.5V16.5H22V10.5H21ZM21.5 16H12.5V17H21.5V16ZM13 16.5V10.5H12V16.5H13Z" fill="var(--mw-icon-border-default-blue, #1656A7)"/>
</svg>
