<svg width="24" height="24" viewBox="0 0 24 24" fill="none" xmlns="http://www.w3.org/2000/svg">
<rect x="0.5" y="0.5" width="18" height="18" rx="2" fill="var(--mw-icon-background-light-yellow, #FFF5BC)" stroke="var(--mw-icon-border-default-blue, #1656A7)"/>
<path d="M1.49988 9.49999H17.4999M9.50003 1.5L9.50003 17.5" stroke="var(--mw-icon-glyph-content-light-blue, #278CDD)" stroke-linecap="square"/>
<path d="M9.5 10.5C9.5 9.94772 9.94772 9.5 10.5 9.5H21.5C22.0523 9.5 22.5 9.94772 22.5 10.5V21.5C22.5 22.0523 22.0523 22.5 21.5 22.5H12.0942C11.8778 22.5 11.6673 22.4298 11.4942 22.3L9.9 21.1043C9.64819 20.9155 9.5 20.6191 9.5 20.3043V10.5Z" fill="var(--mw-icon-background-default-medium-gray, #D9D9D9)" stroke="var(--mw-icon-border-default-gray, #616161)" stroke-linejoin="round"/>
<path d="M12.5 17.5H19.5V22.5H12.5V17.5Z" fill="var(--mw-icon-background-default-white, #FFFFFF)" stroke="var(--mw-icon-border-default-gray, #616161)" stroke-linejoin="round"/>
<path d="M14 19H16V22H14V19Z" fill="var(--mw-icon-border-default-gray, #616161)"/>
<path d="M11.5 9.5H20.5V15.5H11.5V9.5Z" fill="white"/>
<path d="M11.5 9.5V9H11V9.5H11.5ZM20.5 9.5H21V9H20.5V9.5ZM20.5 15.5V16C20.7761 16 21 15.7761 21 15.5H20.5ZM11.5 15.5H11C11 15.7761 11.2239 16 11.5 16V15.5ZM11.5 10H20.5V9H11.5V10ZM20 9.5V15.5H21V9.5H20ZM20.5 15H11.5V16H20.5V15ZM12 15.5V9.5H11V15.5H12Z" fill="var(--mw-icon-border-default-gray, #616161)"/>
</svg>
