<svg width="24" height="24" viewBox="0 0 24 24" fill="none" xmlns="http://www.w3.org/2000/svg">
<path d="M3.5 3.5H18.5L18.5 17.4999C18.5 18.0522 18.0523 18.4999 17.5 18.4999L3.5 18.5V3.5Z" fill="var(--mw-icon-background-default-white, #FFFFFF)" stroke="var(--mw-icon-border-default-gray, #616161)"/>
<path d="M3.5 0.5H17.5C18.0523 0.5 18.5 0.947715 18.5 1.5L18.5 3.5H3.5V0.5Z" fill="var(--mw-icon-background-default-selection, #B4DEFF)"/>
<path d="M1.5 18.5C0.947716 18.5 0.500001 18.0523 0.500001 17.5L0.5 1.50001C0.5 0.947729 0.947711 0.500017 1.49999 0.500013L3.5 0.5L3.5 18.5H1.5Z" fill="var(--mw-icon-background-default-selection, #B4DEFF)"/>
<path d="M3.5 0.5H17.5C18.0523 0.5 18.5 0.947715 18.5 1.5L18.5 3.5H3.5V0.5ZM3.5 0.5L1.49999 0.500013C0.947711 0.500017 0.5 0.947729 0.5 1.50001L0.500001 17.5C0.500001 18.0523 0.947716 18.5 1.5 18.5H3.5L3.5 0.5Z" stroke="var(--mw-icon-border-default-blue, #1656A7)"/>
<path d="M4.5 8.5H17.5M8.50001 4.5L8.50001 17.5M13.5 4.5L13.5 17.5M4.5 13.5H17.5" stroke="var(--mw-icon-border-default-gray, #616161)" stroke-linecap="square" stroke-linejoin="round"/>
<path d="M8.5 3V1M13.5 3V1M3 3.5H1M3 8.5H1M3 13.5H1" stroke="var(--mw-icon-border-default-blue, #1656A7)"/>
<path d="M9.5 10.5C9.5 9.94772 9.94772 9.5 10.5 9.5H21.5C22.0523 9.5 22.5 9.94772 22.5 10.5V21.5C22.5 22.0523 22.0523 22.5 21.5 22.5H12.0942C11.8778 22.5 11.6673 22.4298 11.4942 22.3L9.9 21.1043C9.64819 20.9155 9.5 20.6191 9.5 20.3043V10.5Z" fill="var(--mw-icon-background-default-selection, #B4DEFF)" stroke="var(--mw-icon-border-default-blue, #1656A7)" stroke-linejoin="round"/>
<path d="M12.5 17.5H19.5V22.5H12.5V17.5Z" fill="white" stroke="var(--mw-icon-border-default-blue, #1656A7)" stroke-linejoin="round"/>
<path d="M14 19.0001H16V22.0001H14V19.0001Z" fill="var(--mw-icon-border-default-blue, #1656A7)"/>
<path d="M11.5 9.5H20.5V15.5H11.5V9.5Z" fill="white"/>
<path d="M11.5 9.5V9H11V9.5H11.5ZM20.5 9.5H21V9H20.5V9.5ZM20.5 15.5V16C20.7761 16 21 15.7761 21 15.5H20.5ZM11.5 15.5H11C11 15.7761 11.2239 16 11.5 16V15.5ZM11.5 10H20.5V9H11.5V10ZM20 9.5V15.5H21V9.5H20ZM20.5 15H11.5V16H20.5V15ZM12 15.5V9.5H11V15.5H12Z" fill="var(--mw-icon-border-default-blue, #1656A7)"/>
</svg>
