<svg width="24" height="24" viewBox="0 0 24 24" fill="none" xmlns="http://www.w3.org/2000/svg">
<path d="M0.5 2.5C0.5 1.39543 1.39543 0.5 2.5 0.5H16.5C17.6046 0.5 18.5 1.39543 18.5 2.5V16.5C18.5 17.6046 17.6046 18.5 16.5 18.5H2.5C1.39543 18.5 0.5 17.6046 0.5 16.5V2.5Z" fill="var(--mw-icon-background-default-white, #FFFFFF)" stroke="var(--mw-icon-border-default-blue, #1656A7)"/>
<path d="M8 13.5C8 14.8807 6.88071 16 5.5 16C4.11929 16 3 14.8807 3 13.5C3 12.1193 4.11929 11 5.5 11C6.88071 11 8 12.1193 8 13.5Z" fill="var(--mw-icon-glyph-content-blue, #1656A8)"/>
<path d="M15 12.5C15 13.8807 13.8807 15 12.5 15C11.1193 15 10 13.8807 10 12.5C10 11.1193 11.1193 10 12.5 10C13.8807 10 15 11.1193 15 12.5Z" fill="var(--mw-icon-glyph-content-blue, #1656A8)"/>
<path d="M7 9.00002V5.7808C7 5.32193 7.3123 4.92195 7.75746 4.81065L13.7575 3.31065C14.3886 3.15287 15 3.63023 15 4.2808V7.00002L7 9.00002Z" fill="var(--mw-icon-glyph-content-blue, #1656A8)"/>
<path d="M7 8.00002H8V13.5H7V8.00002Z" fill="var(--mw-icon-glyph-content-blue, #1656A8)"/>
<path d="M14 7.00002H15V12.5H14V7.00002Z" fill="var(--mw-icon-glyph-content-blue, #1656A8)"/>
<path d="M10.5 11.5C10.5 10.9477 10.9477 10.5 11.5 10.5H22.5C23.0523 10.5 23.5 10.9477 23.5 11.5V22.5C23.5 23.0523 23.0523 23.5 22.5 23.5H13.0942C12.8778 23.5 12.6673 23.4298 12.4942 23.3L10.9 22.1043C10.6482 21.9155 10.5 21.6191 10.5 21.3043V11.5Z" fill="var(--mw-icon-background-default-medium-gray, #D9D9D9)" stroke="var(--mw-icon-border-default-gray, #616161)" stroke-linejoin="round"/>
<path d="M13.5 18.5H20.5V23.5H13.5V18.5Z" fill="white" stroke="var(--mw-icon-border-default-gray, #616161)" stroke-linejoin="round"/>
<path d="M15 20.0001H17V23.0001H15V20.0001Z" fill="var(--mw-icon-border-default-gray, #616161)"/>
<path d="M12.5 10.5H21.5V16.5H12.5V10.5Z" fill="white"/>
<path d="M12.5 10.5V10H12V10.5H12.5ZM21.5 10.5H22V10H21.5V10.5ZM21.5 16.5V17C21.7761 17 22 16.7761 22 16.5H21.5ZM12.5 16.5H12C12 16.7761 12.2239 17 12.5 17V16.5ZM12.5 11H21.5V10H12.5V11ZM21 10.5V16.5H22V10.5H21ZM21.5 16H12.5V17H21.5V16ZM13 16.5V10.5H12V16.5H13Z" fill="var(--mw-icon-border-default-gray, #616161)"/>
</svg>
