<svg width="24" height="24" viewBox="0 0 24 24" fill="none" xmlns="http://www.w3.org/2000/svg">
<path d="M6.5 3.5H17.5V11C17.5 11.2761 17.2761 11.5 17 11.5H7C6.72386 11.5 6.5 11.2761 6.5 11V3.5Z" fill="#F5FAFF" stroke="var(--mw-icon-border-default-blue, #1656A7)"/>
<path d="M5.5 1C5.5 0.723858 5.72386 0.5 6 0.5H18C18.2761 0.5 18.5 0.723858 18.5 1V3.5H5.5V1Z" fill="#F5FAFF" stroke="var(--mw-icon-border-default-blue, #1656A7)" stroke-linejoin="round"/>
<path d="M1.5 9.5H12.5V17C12.5 17.2761 12.2761 17.5 12 17.5H2C1.72386 17.5 1.5 17.2761 1.5 17V9.5Z" fill="#F5FAFF" stroke="var(--mw-icon-border-default-blue, #1656A7)"/>
<path d="M0.5 7C0.5 6.72386 0.723858 6.5 1 6.5H13C13.2761 6.5 13.5 6.72386 13.5 7V9.5H0.5V7Z" fill="#F5FAFF" stroke="var(--mw-icon-border-default-blue, #1656A7)" stroke-linejoin="round"/>
<path d="M8.5 12C8.5 11.7239 8.72386 11.5 9 11.5H20C20.2761 11.5 20.5 11.7239 20.5 12V23C20.5 23.2761 20.2761 23.5 20 23.5H10.7879C10.6589 23.5 10.535 23.4502 10.4419 23.361L8.65405 21.6476C8.55564 21.5533 8.5 21.4229 8.5 21.2866V12Z" fill="var(--mw-icon-background-default-medium-gray, #D9D9D9)" stroke="var(--mw-icon-glyph-disabled-gray, #888889)"/>
<path d="M10.5 19.75C10.5 19.6119 10.6119 19.5 10.75 19.5H18.25C18.3881 19.5 18.5 19.6119 18.5 19.75V23.5H10.75C10.6119 23.5 10.5 23.3881 10.5 23.25V19.75Z" fill="var(--mw-icon-background-default-medium-gray, #D9D9D9)" stroke="var(--mw-icon-glyph-disabled-gray, #888889)"/>
<path d="M12 21H13V23H12V21Z" fill="var(--mw-icon-glyph-disabled-gray, #888889)"/>
<path d="M10.5 11.5H18.5V17.25C18.5 17.3881 18.3881 17.5 18.25 17.5H10.75C10.6119 17.5 10.5 17.3881 10.5 17.25V11.5Z" fill="var(--mw-icon-background-default-medium-gray, #D9D9D9)" stroke="var(--mw-icon-glyph-disabled-gray, #888889)"/>
<path d="M12.5 15V9C12.5 8.72386 12.7239 8.5 13 8.5H23C23.2761 8.5 23.5 8.72386 23.5 9V15C23.5 15.2761 23.2761 15.5 23 15.5H13C12.7239 15.5 12.5 15.2761 12.5 15Z" fill="var(--mw-icon-background-default-white, #FFFFFF)" stroke="var(--mw-icon-border-default-blue, #1656A7)" stroke-linejoin="round"/>
<path d="M16 13C16 13.5523 15.5523 14 15 14C14.4477 14 14 13.5523 14 13C14 12.4477 14.4477 12 15 12C15.5523 12 16 12.4477 16 13Z" fill="var(--mw-icon-glyph-content-blue, #1656A8)"/>
<path d="M19 13C19 13.5523 18.5523 14 18 14C17.4477 14 17 13.5523 17 13C17 12.4477 17.4477 12 18 12C18.5523 12 19 12.4477 19 13Z" fill="var(--mw-icon-glyph-content-blue, #1656A8)"/>
<path d="M22 13C22 13.5523 21.5523 14 21 14C20.4477 14 20 13.5523 20 13C20 12.4477 20.4477 12 21 12C21.5523 12 22 12.4477 22 13Z" fill="var(--mw-icon-glyph-content-blue, #1656A8)"/>
</svg>
