<svg width="24" height="24" viewBox="0 0 24 24" fill="none" xmlns="http://www.w3.org/2000/svg">
<rect x="0.5" y="0.5" width="22" height="22" rx="2" fill="var(--mw-icon-background-default-white, #FFFFFF)"/>
<path d="M1 11.5H22M11.5 22V1" stroke="var(--mw-icon-glyph-content-gray, #616162)"/>
<path d="M22 21H15V22H22V21Z" fill="#1171BE"/>
<path d="M22 20H15V21H22V20Z" fill="#1171BE"/>
<path d="M21 17H15V20H21V17Z" fill="#1171BE"/>
<path d="M21 16H16V17H21V16Z" fill="#1171BE"/>
<path d="M20 15H16V16H20V15Z" fill="#1171BE"/>
<path d="M19 14H17V15H19V14Z" fill="#1171BE"/>
<path d="M18 13H17V14H18V13Z" fill="#1171BE"/>
<path d="M14 21H13V22H14V21Z" fill="#1171BE"/>
<path d="M10 10H1V11H10V10Z" fill="#1171BE"/>
<path d="M9 9H2V10H9V9Z" fill="#1171BE"/>
<path d="M8 8H3V9H8V8Z" fill="#1171BE"/>
<path d="M8 7H3V8H8V7Z" fill="#1171BE"/>
<path d="M8 6H4V7H8V6Z" fill="#1171BE"/>
<path d="M6 2H5V6H6V2Z" fill="#1171BE"/>
<path d="M8 5H7V6H8V5Z" fill="#1171BE"/>
<path d="M5 5H4V6H5V5Z" fill="#1171BE"/>
<path d="M19 4H13V5H19V4Z" fill="#DD5400"/>
<path d="M22 5H15V6H22V5Z" fill="#DD5400"/>
<path d="M23 6H14V7H23V6Z" fill="#DD5400"/>
<path d="M23 7H20V8H23V7Z" fill="#DD5400"/>
<path d="M19 7H16V8H19V7Z" fill="#DD5400"/>
<path d="M17 8H15V9H17V8Z" fill="#DD5400"/>
<path d="M18 2H17V3H18V2Z" fill="#DD5400"/>
<path d="M21 8H19V10H21V8Z" fill="#DD5400"/>
<path d="M19 3H15V4H19V3Z" fill="#DD5400"/>
<path d="M10 16H3V17H10V16Z" fill="#DD5400"/>
<path d="M11 17H4V18H11V17Z" fill="#DD5400"/>
<path d="M7 15H1V16H7V15Z" fill="#DD5400"/>
<path d="M5 15V13H4V15H5Z" fill="#DD5400"/>
<path d="M3 19V17H2V19H3Z" fill="#DD5400"/>
<path d="M9 20V19H8V20H9Z" fill="#DD5400"/>
<path d="M6 20V19H5V20H6Z" fill="#DD5400"/>
<path d="M7 15V14H6V15H7Z" fill="#DD5400"/>
<path d="M9 18H5V19H9V18Z" fill="#DD5400"/>
<rect x="0.5" y="0.5" width="22" height="22" rx="2" stroke="var(--mw-icon-border-default-gray, #616161)"/>
</svg>
