<svg width="24" height="24" viewBox="0 0 24 24" fill="none" xmlns="http://www.w3.org/2000/svg">
<path d="M21.682 15.318C21.2641 14.9002 20.768 14.5687 20.2221 14.3425C19.6761 14.1164 19.0909 14 18.5 14C17.9091 14 17.3239 14.1164 16.7779 14.3425C16.232 14.5687 15.7359 14.9002 15.318 15.318C14.9002 15.7359 14.5687 16.232 14.3425 16.7779C14.1164 17.3239 14 17.9091 14 18.5C14 19.0909 14.1164 19.6761 14.3425 20.2221C14.5687 20.768 14.9002 21.2641 15.318 21.682L18.5 18.5L21.682 15.318Z" fill="var(--mw-icon-border-default-blue, #1656A7)"/>
<path d="M15.318 21.682C15.7359 22.0998 16.232 22.4313 16.7779 22.6575C17.3239 22.8836 17.9091 23 18.5 23C19.0909 23 19.6761 22.8836 20.2221 22.6575C20.768 22.4313 21.2641 22.0998 21.682 21.682C22.0998 21.2641 22.4313 20.768 22.6575 20.2221C22.8836 19.6761 23 19.0909 23 18.5C23 17.9091 22.8836 17.3239 22.6575 16.7779C22.4313 16.232 22.0998 15.7359 21.682 15.318L18.5 18.5L15.318 21.682Z" fill="var(--mw-icon-border-default-gray, #616161)"/>
<path d="M16.0251 20.9749C16.3501 21.2999 16.736 21.5577 17.1606 21.7336C17.5852 21.9095 18.0404 22 18.5 22C18.9596 22 19.4148 21.9095 19.8394 21.7336C20.264 21.5577 20.6499 21.2999 20.9749 20.9749C21.2999 20.6499 21.5577 20.264 21.7336 19.8394C21.9095 19.4148 22 18.9596 22 18.5C22 18.0404 21.9095 17.5852 21.7336 17.1606C21.5577 16.736 21.2999 16.3501 20.9749 16.0251L18.5 18.5L16.0251 20.9749Z" fill="var(--mw-icon-background-default-medium-gray, #D9D9D9)"/>
<path d="M20.9749 16.0251C20.6499 15.7001 20.264 15.4423 19.8394 15.2664C19.4148 15.0905 18.9596 15 18.5 15C18.0404 15 17.5852 15.0905 17.1606 15.2664C16.736 15.4423 16.3501 15.7001 16.0251 16.0251C15.7001 16.3501 15.4423 16.736 15.2664 17.1606C15.0905 17.5852 15 18.0404 15 18.5C15 18.9596 15.0905 19.4148 15.2664 19.8394C15.4423 20.264 15.7001 20.6499 16.0251 20.9749L18.5 18.5L20.9749 16.0251Z" fill="var(--mw-icon-background-medium-blue, #83CAFF)"/>
<path d="M8.5 0.5V2.5M8.5 14.5V16.5M16.5 8.5H14.5M2.5 8.5H0.5M14.1569 2.84315L12.7426 4.25736M4.25736 12.7426L2.84315 14.1569M14.1569 14.1569L12.7426 12.7426M4.25736 4.25736L2.84315 2.84315" stroke="#674C06" stroke-linecap="round"/>
<rect x="4.5" y="4.5" width="8" height="8" rx="4" fill="var(--mw-icon-background-default-highlight, #FFE864)" stroke="#674C06"/>
</svg>
