<svg width="24" height="24" viewBox="0 0 24 24" fill="none" xmlns="http://www.w3.org/2000/svg">
<path fill-rule="evenodd" clip-rule="evenodd" d="M12.2929 13.7071L16.7929 18.2071L18.2071 16.7929L13.7071 12.2929L12.2929 13.7071Z" fill="var(--mw-icon-object-primary, #616160)"/>
<path fill-rule="evenodd" clip-rule="evenodd" d="M10.7071 13.7071L6.20711 18.2071L4.79289 16.7929L9.29289 12.2929L10.7071 13.7071Z" fill="var(--mw-icon-object-primary, #616160)"/>
<path fill-rule="evenodd" clip-rule="evenodd" d="M3.5 17C2.11929 17 1 18.1193 1 19.5C1 20.8807 2.11929 22 3.5 22C4.88071 22 6 20.8807 6 19.5C6 18.1193 4.88071 17 3.5 17ZM0 19.5C0 17.567 1.567 16 3.5 16C5.433 16 7 17.567 7 19.5C7 21.433 5.433 23 3.5 23C1.567 23 0 21.433 0 19.5Z" fill="var(--mw-icon-object-primary, #616160)"/>
<path fill-rule="evenodd" clip-rule="evenodd" d="M19.5 17C18.1193 17 17 18.1193 17 19.5C17 20.8807 18.1193 22 19.5 22C20.8807 22 22 20.8807 22 19.5C22 18.1193 20.8807 17 19.5 17ZM16 19.5C16 17.567 17.567 16 19.5 16C21.433 16 23 17.567 23 19.5C23 21.433 21.433 23 19.5 23C17.567 23 16 21.433 16 19.5Z" fill="var(--mw-icon-object-primary, #616160)"/>
<path fill-rule="evenodd" clip-rule="evenodd" d="M21 0L11.5 9.5L2 0V5L10 13V14H13V13L21 5V0ZM11.5 13C12.3284 13 13 12.3284 13 11.5C13 10.6716 12.3284 10 11.5 10C10.6716 10 10 10.6716 10 11.5C10 12.3284 10.6716 13 11.5 13Z" fill="var(--mw-icon-object-primary, #616160)"/>
</svg>
