<svg width="24" height="25" viewBox="0 0 24 25" fill="none" xmlns="http://www.w3.org/2000/svg">
<path d="M0.5 23.5V16.5C0.5 15.9477 0.947715 15.5 1.5 15.5H22.5C23.0523 15.5 23.5 15.9477 23.5 16.5V23.5C23.5 24.0523 23.0523 24.5 22.5 24.5H1.5C0.947715 24.5 0.5 24.0523 0.5 23.5Z" fill="var(--mw-icon-background-default-white, #FFFFFF)" stroke="var(--mw-icon-border-default-gray, #616161)"/>
<circle cx="20" cy="20" r="1" fill="var(--mw-icon-glyph-content-light-blue, #278CDD)"/>
<rect x="8.5" y="18.5" width="7" height="3" rx="0.5" fill="var(--mw-icon-background-default-medium-gray, #D9D9D9)" stroke="var(--mw-icon-glyph-content-gray, #616162)"/>
<rect x="2" y="19" width="3" height="2" rx="1" fill="var(--mw-icon-glyph-content-gray, #616162)"/>
<path d="M3.5 15.5L3.5 10.5" stroke="var(--mw-icon-object-primary, #616160)" stroke-linecap="square"/>
<circle cx="3.5" cy="9.5" r="1.5" fill="var(--mw-icon-object-primary, #616160)"/>
<path d="M4.5 6.50001C4.5 6.50001 4.90209 6.4325 5.23316 6.72731C5.56423 7.02212 5.51171 7.50494 5.51171 7.50494" stroke="var(--mw-icon-glyph-content-light-blue, #278CDD)" stroke-linecap="round"/>
<path d="M4.5 4.00342C4.5 4.00342 6 3.99841 7 5.00002C8 6.00163 8 7.5 8 7.5" stroke="var(--mw-icon-glyph-content-light-blue, #278CDD)" stroke-linecap="round"/>
<path d="M4.5 1.50502C4.5 1.50502 7 1.10717 8.97186 3.08046C10.9437 5.05376 10.4895 7.4945 10.4895 7.4945" stroke="var(--mw-icon-glyph-content-light-blue, #278CDD)" stroke-linecap="round"/>
</svg>
