<svg width="24" height="24" viewBox="0 0 24 24" fill="none" xmlns="http://www.w3.org/2000/svg">
<path d="M17.5 18.5H0.5L9 1.5L17.5 18.5Z" stroke="var(--mw-icon-object-primary, #616160)" stroke-linejoin="round"/>
<path d="M8.5 2.5L16.5 18.5" stroke="var(--mw-icon-object-primary, #616160)" stroke-linejoin="round"/>
<path d="M22.4816 21.2941C22.4816 21.1836 22.449 21.0838 22.3839 20.9947C22.3189 20.9055 22.1978 20.8235 22.0206 20.7487C21.8471 20.6702 21.5958 20.5989 21.2668 20.5348C20.9704 20.4706 20.6938 20.3904 20.4371 20.2941C20.184 20.1943 19.9635 20.0749 19.7755 19.9358C19.5911 19.7968 19.4465 19.6328 19.3416 19.4439C19.2368 19.2513 19.1844 19.0321 19.1844 18.7861C19.1844 18.5437 19.2368 18.3155 19.3416 18.1016C19.4501 17.8877 19.6038 17.6988 19.8026 17.5348C20.0051 17.3672 20.2509 17.2371 20.5401 17.1444C20.833 17.0481 21.162 17 21.5271 17C22.0369 17 22.4743 17.0802 22.8395 17.2406C23.2082 17.4011 23.4902 17.6221 23.6855 17.9037C23.8843 18.1818 23.9837 18.4991 23.9837 18.8556H22.4219C22.4219 18.7059 22.3894 18.5722 22.3243 18.4545C22.2628 18.3333 22.1652 18.2389 22.0315 18.1711C21.9013 18.0998 21.7314 18.0642 21.5217 18.0642C21.3482 18.0642 21.1981 18.0945 21.0716 18.1551C20.945 18.2121 20.8474 18.2906 20.7787 18.3904C20.7137 18.4866 20.6811 18.5936 20.6811 18.7112C20.6811 18.8004 20.6992 18.8806 20.7354 18.9519C20.7751 19.0196 20.8384 19.082 20.9252 19.139C21.0119 19.1961 21.124 19.2496 21.2614 19.2995C21.4024 19.3458 21.5759 19.3886 21.782 19.4278C22.205 19.5134 22.5828 19.6257 22.9154 19.7647C23.248 19.9002 23.5119 20.0856 23.7072 20.3209C23.9024 20.5526 24 20.8574 24 21.2353C24 21.492 23.9422 21.7273 23.8265 21.9412C23.7108 22.1551 23.5445 22.3422 23.3275 22.5027C23.1106 22.6595 22.8503 22.7825 22.5466 22.8717C22.2466 22.9572 21.9085 23 21.5325 23C20.9866 23 20.5239 22.9037 20.1443 22.7112C19.7683 22.5187 19.4826 22.2745 19.2874 21.9786C19.0958 21.6791 19 21.3725 19 21.0588H20.4805C20.4877 21.2692 20.5419 21.4385 20.6432 21.5668C20.748 21.6952 20.88 21.7879 21.039 21.8449C21.2017 21.902 21.3771 21.9305 21.5651 21.9305C21.7675 21.9305 21.9356 21.9037 22.0694 21.8503C22.2032 21.7932 22.3044 21.7184 22.3731 21.6257C22.4454 21.5294 22.4816 21.4189 22.4816 21.2941Z" fill="var(--mw-icon-object-primary, #616160)"/>
</svg>
