<svg width="24" height="24" viewBox="0 0 24 24" fill="none" xmlns="http://www.w3.org/2000/svg">
<path d="M19.5 0.5H4.5C3.39543 0.5 2.5 1.39543 2.5 2.5V21.5C2.5 22.6046 3.39543 23.5 4.5 23.5H19.5C20.6046 23.5 21.5 22.6046 21.5 21.5V2.5C21.5 1.39543 20.6046 0.5 19.5 0.5Z" fill="var(--mw-icon-background-default-white, #FFFFFF)" stroke="var(--mw-icon-border-default-gray, #616161)" stroke-linecap="round"/>
<path d="M3 2.5C3 1.67157 3.67157 1 4.5 1H19.5C20.3284 1 21 1.67157 21 2.5V9H3V2.5Z" fill="var(--mw-icon-background-default-selection, #B4DEFF)"/>
<path d="M12.5 11.5H18.5M9.5 14.5H15.5M5.5 17.5H11.5M9.5 20.5H15.5" stroke="var(--mw-icon-glyph-content-gray, #616162)" stroke-linecap="round"/>
<path d="M9.5 3.5H15.5M12.5 6.5H18.5" stroke="var(--mw-icon-glyph-content-dark-blue, #104280)" stroke-linecap="round"/>
</svg>
