<svg width="24" height="24" viewBox="0 0 24 24" fill="none" xmlns="http://www.w3.org/2000/svg">
<circle cx="11" cy="11" r="11" transform="matrix(1 0 0 -1 0.5 22.5)" fill="#027880" stroke="var(--mw-icon-border-default-gray, #616161)"/>
<path d="M22 11.5C22 13.5767 21.3842 15.6068 20.2304 17.3335C19.0767 19.0602 17.4368 20.406 15.5182 21.2007C13.5996 21.9955 11.4884 22.2034 9.45156 21.7982C7.41476 21.3931 5.54384 20.3931 4.07539 18.9246C2.60694 17.4562 1.60691 15.5852 1.20176 13.5484C0.796617 11.5116 1.00455 9.40045 1.79927 7.48182C2.59399 5.5632 3.9398 3.92332 5.66652 2.76957C7.39324 1.61581 9.4233 1 11.5 1L11.5 11.5H22Z" fill="var(--mw-icon-glyph-disabled-gray, #888889)"/>
<path d="M19.5 11.5C19.5 7.08172 15.9183 3.5 11.5 3.5C7.08173 3.5 3.50001 7.08172 3.50001 11.5C3.50001 15.9183 7.08173 19.5 11.5 19.5C15.9183 19.5 19.5 15.9183 19.5 11.5Z" stroke="#74EBDA"/>
<path d="M16.5 11.5C16.5 8.73858 14.2614 6.5 11.5 6.5C8.73858 6.5 6.50001 8.73858 6.50001 11.5C6.50001 14.2614 8.73858 16.5 11.5 16.5C14.2614 16.5 16.5 14.2614 16.5 11.5Z" stroke="#74EBDA"/>
<path d="M19.5 11.5C19.5 15.9183 15.9183 19.5 11.5 19.5C7.08173 19.5 3.50001 15.9183 3.50001 11.5C3.50001 7.08172 7.08173 3.5 11.5 3.5M16.5 11.5C16.5 14.2614 14.2614 16.5 11.5 16.5C8.73858 16.5 6.50001 14.2614 6.50001 11.5C6.50001 8.73858 8.73858 6.5 11.5 6.5" stroke="var(--mw-icon-glyph-content-gray, #616162)"/>
<path d="M11.5 22.5L11.5 11.5L0.5 11.5" stroke="var(--mw-icon-glyph-content-gray, #616162)"/>
<path d="M16 4C16 4.55228 15.5523 5 15 5C14.4477 5 14 4.55228 14 4C14 3.44772 14.4477 3 15 3C15.5523 3 16 3.44772 16 4Z" fill="var(--mw-icon-background-default-white, #FFFFFF)"/>
<path d="M21 11C21 11.5523 20.5523 12 20 12C19.4477 12 19 11.5523 19 11C19 10.4477 19.4477 10 20 10C20.5523 10 21 10.4477 21 11Z" fill="white"/>
<path d="M9 8C9 8.55228 8.55228 9 8 9C7.44772 9 7 8.55228 7 8C7 7.44772 7.44772 7 8 7C8.55228 7 9 7.44772 9 8Z" fill="var(--mw-icon-glyph-content-dark-gray, #333333)"/>
<path d="M5 15C5 15.5523 4.55228 16 4 16C3.44772 16 3 15.5523 3 15C3 14.4477 3.44772 14 4 14C4.55228 14 5 14.4477 5 15Z" fill="var(--mw-icon-glyph-content-dark-gray, #333333)"/>
<path d="M17 14C17 14.5523 16.5523 15 16 15C15.4477 15 15 14.5523 15 14C15 13.4477 15.4477 13 16 13C16.5523 13 17 13.4477 17 14Z" fill="var(--mw-icon-glyph-content-dark-gray, #333333)"/>
<path d="M19.2782 3.72182C19.5967 4.04039 19.8954 4.37823 20.1726 4.73343L11.5 11.5L19.2782 3.72182Z" fill="white"/>
<path d="M11.5 0.5C17.5751 0.5 22.5 5.42487 22.5 11.5H11.5V0.5Z" stroke="#013A3E" stroke-linecap="round" stroke-linejoin="round"/>
<path d="M12.5 11.5C12.5 10.9477 12.0523 10.5 11.5 10.5C10.9477 10.5 10.5 10.9477 10.5 11.5C10.5 12.0523 10.9477 12.5 11.5 12.5C12.0523 12.5 12.5 12.0523 12.5 11.5Z" fill="white" stroke="var(--mw-icon-background-default-white, #FFFFFF)"/>
</svg>
