<svg width="24" height="24" viewBox="0 0 24 24" fill="none" xmlns="http://www.w3.org/2000/svg">
<path d="M1.31134e-07 4.37113e-08H3V1H1.31134e-07V4.37113e-08Z" fill="var(--mw-icon-glyph-content-red, #902623)"/>
<path d="M5 4.37113e-08H8V1H5V4.37113e-08Z" fill="var(--mw-icon-glyph-content-red, #902623)"/>
<path d="M10 4.37113e-08H13V1H10V4.37113e-08Z" fill="var(--mw-icon-glyph-content-red, #902623)"/>
<path d="M15 4.37113e-08H18V1H15V4.37113e-08Z" fill="var(--mw-icon-glyph-content-red, #902623)"/>
<path d="M1.31134e-07 17H3V18H1.31134e-07V17Z" fill="var(--mw-icon-glyph-content-red, #902623)"/>
<path d="M5 17H8V18H5V17Z" fill="var(--mw-icon-glyph-content-red, #902623)"/>
<path d="M1 4.37113e-08L1 3H0L1.31134e-07 4.37113e-08H1Z" fill="var(--mw-icon-glyph-content-red, #902623)"/>
<path d="M1 5L1 8H0L1.31134e-07 5H1Z" fill="var(--mw-icon-glyph-content-red, #902623)"/>
<path d="M1 10L1 13H0L1.31134e-07 10H1Z" fill="var(--mw-icon-glyph-content-red, #902623)"/>
<path d="M18 4.37113e-08V3H17V0L18 4.37113e-08Z" fill="var(--mw-icon-glyph-content-red, #902623)"/>
<path d="M18 5V8H17V5H18Z" fill="var(--mw-icon-glyph-content-red, #902623)"/>
<path d="M1 15L1 18H1.31134e-07V15H1Z" fill="var(--mw-icon-glyph-content-red, #902623)"/>
<path d="M18 10V13H17V10H18Z" fill="var(--mw-icon-glyph-content-red, #902623)"/>
<path d="M10 17H13V18H10V17Z" fill="var(--mw-icon-glyph-content-red, #902623)"/>
<path d="M9.5 9.5L12.5 21.5L16 18L20.9606 23.0643C21.5415 23.6452 22.4834 23.6452 23.0643 23.0643C23.6452 22.4834 23.6452 21.5415 23.0643 20.9606L18 16L21.5 12.5L9.5 9.5Z" fill="var(--mw-icon-background-default-white, #FFFFFF)" stroke="var(--mw-icon-border-default-gray, #616161)" stroke-linejoin="round"/>
</svg>
