<svg width="24" height="24" viewBox="0 0 24 24" fill="none" xmlns="http://www.w3.org/2000/svg">
<path d="M7.5 7.5L11.0891 20.5559L14.7706 16.8743L19.9606 22.0643C20.5415 22.6452 21.4834 22.6452 22.0643 22.0643C22.6452 21.4834 22.6452 20.5415 22.0643 19.9606L16.8743 14.7706L20.5559 11.0891L7.5 7.5Z" stroke="var(--mw-icon-object-primary, #616160)" stroke-linejoin="round"/>
<path d="M8.82624 12.3209C7.76223 12.6136 6.63127 12.5461 5.60964 12.1289C4.58801 11.7117 3.73311 10.9682 3.17818 10.0143C2.62325 9.06047 2.39947 7.94982 2.54172 6.85548C2.68397 5.76115 3.18426 4.74462 3.96461 3.96433C4.74496 3.18405 5.76153 2.68384 6.85587 2.54167C7.95022 2.39951 9.06085 2.62337 10.0147 3.17838C10.9685 3.73338 11.7119 4.58834 12.129 5.61001C12.5462 6.63167 12.6136 7.76263 12.3208 8.82662" stroke="var(--mw-icon-object-primary, #616160)"/>
</svg>
