<svg width="24" height="24" viewBox="0 0 24 24" fill="none" xmlns="http://www.w3.org/2000/svg">
<path d="M0.5 1C0.5 0.723857 0.723858 0.5 1 0.5H7.08579C7.351 0.5 7.60536 0.605357 7.79289 0.792893L9.20711 2.20711C9.39464 2.39464 9.649 2.5 9.91421 2.5H18C18.2761 2.5 18.5 2.72386 18.5 3V6.9026V14C18.5 14.2761 18.2761 14.5 18 14.5H1C0.723858 14.5 0.5 14.2761 0.5 14V1Z" fill="var(--mw-icon-background-light-yellow, #FFF5BC)" stroke="#674C06"/>
<path d="M9.5 9.5L12.5 21.5L16 18L20.9606 23.0643C21.5415 23.6452 22.4834 23.6452 23.0643 23.0643C23.6452 22.4834 23.6452 21.5415 23.0643 20.9606L18 16L21.5 12.5L9.5 9.5Z" fill="var(--mw-icon-background-default-white, #FFFFFF)" stroke="var(--mw-icon-border-default-gray, #616161)" stroke-linejoin="round"/>
</svg>
