<svg width="24" height="24" viewBox="0 0 24 24" fill="none" xmlns="http://www.w3.org/2000/svg">
<path d="M0.5 14V4.61803C0.5 4.54041 0.518072 4.46386 0.552786 4.39443L2.3618 0.776393C2.4465 0.607001 2.61963 0.5 2.80902 0.5H7.19098C7.38037 0.5 7.5535 0.607001 7.6382 0.776393L9.44721 4.39443C9.48193 4.46385 9.5 4.54041 9.5 4.61803V14C9.5 14.2761 9.27614 14.5 9 14.5H4.95455H1C0.723858 14.5 0.5 14.2761 0.5 14Z" fill="var(--mw-icon-background-default-selection, #B4DEFF)" stroke="var(--mw-icon-glyph-content-blue, #1656A8)" stroke-linejoin="round"/>
<path d="M5.99998 3C5.99998 3.55228 5.55227 4 4.99998 4C4.4477 4 3.99998 3.55228 3.99998 3C3.99998 2.44772 4.4477 2 4.99998 2C5.55227 2 5.99998 2.44772 5.99998 3Z" fill="var(--mw-icon-glyph-content-blue, #1656A8)"/>
<path d="M7.5 17V7.61803C7.5 7.54041 7.51807 7.46386 7.55279 7.39443L9.3618 3.77639C9.4465 3.607 9.61963 3.5 9.80902 3.5H14.191C14.3804 3.5 14.5535 3.607 14.6382 3.77639L16.4472 7.39443C16.4819 7.46385 16.5 7.54041 16.5 7.61803V17C16.5 17.2761 16.2761 17.5 16 17.5H11.9545H8C7.72386 17.5 7.5 17.2761 7.5 17Z" fill="var(--mw-icon-background-default-selection, #B4DEFF)" stroke="var(--mw-icon-glyph-content-blue, #1656A8)" stroke-linejoin="round"/>
<path d="M13 6C13 6.55228 12.5523 7 12 7C11.4477 7 11 6.55228 11 6C11 5.44772 11.4477 5 12 5C12.5523 5 13 5.44772 13 6Z" fill="var(--mw-icon-glyph-content-blue, #1656A8)"/>
<path d="M9.5 9.5L12.5 21.5L16 18L20.9606 23.0643C21.5415 23.6452 22.4834 23.6452 23.0643 23.0643C23.6452 22.4834 23.6452 21.5415 23.0643 20.9606L18 16L21.5 12.5L9.5 9.5Z" fill="var(--mw-icon-background-default-white, #FFFFFF)" stroke="var(--mw-icon-border-default-gray, #616161)" stroke-linejoin="round"/>
</svg>
