<svg width="24" height="24" viewBox="0 0 24 24" fill="none" xmlns="http://www.w3.org/2000/svg">
<path d="M0.5 2.49999C0.5 1.39542 1.39543 0.499992 2.5 0.499992H15.5C16.6046 0.499992 17.5 1.39542 17.5 2.49999V15.5C17.5 16.6046 16.6046 17.5 15.5 17.5H2.5C1.39543 17.5 0.5 16.6046 0.5 15.5V2.49999Z" fill="var(--mw-icon-background-default-white, #FFFFFF)"/>
<path d="M14 8.5C14 9.32843 13.3284 10 12.5 10C11.6716 10 11 9.32843 11 8.5C11 7.67157 11.6716 7 12.5 7C13.3284 7 14 7.67157 14 8.5Z" fill="#D95319"/>
<path d="M18 10.5C18 11.3284 17.3284 12 16.5 12C15.6716 12 15 11.3284 15 10.5C15 9.67157 15.6716 9 16.5 9C17.3284 9 18 9.67157 18 10.5Z" fill="#D95319"/>
<path d="M9 16.5C9 17.3284 8.32843 18 7.5 18C6.67157 18 6 17.3284 6 16.5C6 15.6716 6.67157 15 7.5 15C8.32843 15 9 15.6716 9 16.5Z" fill="#D95319"/>
<path d="M8.99998 5.5C8.99998 6.32843 8.32841 7 7.49998 7C6.67156 7 5.99998 6.32843 5.99998 5.5C5.99998 4.67157 6.67156 4 7.49998 4C8.32841 4 8.99998 4.67157 8.99998 5.5Z" fill="#0072BD"/>
<path d="M4.99998 5.5C4.99998 6.32843 4.32841 7 3.49998 7C2.67156 7 1.99998 6.32843 1.99998 5.5C1.99998 4.67157 2.67156 4 3.49998 4C4.32841 4 4.99998 4.67157 4.99998 5.5Z" fill="#0072BD"/>
<path d="M2.99998 2.5C2.99998 3.32843 2.32841 4 1.49998 4C0.671558 4 -1.52588e-05 3.32843 -1.52588e-05 2.5C-1.52588e-05 1.67157 0.671558 1 1.49998 1C2.32841 1 2.99998 1.67157 2.99998 2.5Z" fill="#0072BD"/>
<path d="M6.99998 1.5C6.99998 2.32843 6.32841 3 5.49998 3C4.67156 3 3.99998 2.32843 3.99998 1.5C3.99998 0.671573 4.67156 0 5.49998 0C6.32841 0 6.99998 0.671573 6.99998 1.5Z" fill="#0072BD"/>
<path d="M12 1.5C12 2.32843 11.3284 3 10.5 3C9.67156 3 8.99998 2.32843 8.99998 1.5C8.99998 0.671573 9.67156 0 10.5 0C11.3284 0 12 0.671573 12 1.5Z" fill="#0072BD"/>
<path d="M7.99998 9.5C7.99998 10.3284 7.32841 11 6.49998 11C5.67156 11 4.99998 10.3284 4.99998 9.5C4.99998 8.67157 5.67156 8 6.49998 8C7.32841 8 7.99998 8.67157 7.99998 9.5Z" fill="#0072BD"/>
<path d="M2.99998 9.5C2.99998 10.3284 2.32841 11 1.49998 11C0.671558 11 -1.52588e-05 10.3284 -1.52588e-05 9.5C-1.52588e-05 8.67157 0.671558 8 1.49998 8C2.32841 8 2.99998 8.67157 2.99998 9.5Z" fill="#0072BD"/>
<path d="M0.5 2.5C0.5 1.39543 1.39543 0.5 2.5 0.5H15.5C16.6046 0.5 17.5 1.39543 17.5 2.5V15.5C17.5 16.6046 16.6046 17.5 15.5 17.5H2.5C1.39543 17.5 0.5 16.6046 0.5 15.5V2.5Z" stroke="var(--mw-icon-border-default-gray, #616161)"/>
<path d="M9.5 9.5L12.5 21.5L16 18L20.9606 23.0643C21.5415 23.6452 22.4834 23.6452 23.0643 23.0643C23.6452 22.4834 23.6452 21.5415 23.0643 20.9606L18 16L21.5 12.5L9.5 9.5Z" fill="white" stroke="var(--mw-icon-border-default-gray, #616161)" stroke-linejoin="round"/>
</svg>
