<svg width="24" height="24" viewBox="0 0 24 24" fill="none" xmlns="http://www.w3.org/2000/svg">
<path d="M7.5 21L7.5 1C7.5 0.723858 7.27614 0.500001 7 0.500001L1 0.5C0.72386 0.5 0.500002 0.723858 0.500002 1L0.5 21C0.5 21.2761 0.723858 21.5 1 21.5H7C7.27614 21.5 7.5 21.2761 7.5 21Z" fill="var(--mw-icon-background-default-action, #CBFFBE)"/>
<path d="M6.5 14.5H1.5M6.5 7.5L1.5 7.5M7.5 21L7.5 1C7.5 0.723858 7.27614 0.500001 7 0.500001L1 0.5C0.72386 0.5 0.500002 0.723858 0.500002 1L0.5 21C0.5 21.2761 0.723858 21.5 1 21.5H7C7.27614 21.5 7.5 21.2761 7.5 21Z" stroke="var(--mw-icon-border-default-green, #008013)" stroke-linecap="square"/>
<path d="M6.5 9.5L9.5 21.5L13 18L17.9606 23.0643C18.5415 23.6452 19.4834 23.6452 20.0643 23.0643C20.6452 22.4834 20.6452 21.5415 20.0643 20.9606L15 16L18.5 12.5L6.5 9.5Z" fill="var(--mw-icon-background-default-white, #FFFFFF)" stroke="var(--mw-icon-border-default-gray, #616161)" stroke-linejoin="round"/>
</svg>
