<svg width="24" height="24" viewBox="0 0 24 24" fill="none" xmlns="http://www.w3.org/2000/svg">
<path d="M17 9H9V17H17V9Z" fill="#E6BFFF"/>
<path d="M9 9H1V17H9V9Z" fill="var(--mw-icon-background-light-yellow, #FFF5BC)"/>
<path d="M17 1H9V9H17V1Z" fill="var(--mw-icon-background-red, #FF9D9A)"/>
<path d="M1 1H9V9H1V1Z" fill="var(--mw-icon-background-default-selection, #B4DEFF)"/>
<path d="M0.5 15.5V2.5C0.5 1.39543 1.39543 0.5 2.5 0.5H15.5C16.6046 0.5 17.5 1.39543 17.5 2.5V15.5C17.5 16.6046 16.6046 17.5 15.5 17.5H2.5C1.39543 17.5 0.5 16.6046 0.5 15.5Z" stroke="var(--mw-icon-border-default-gray, #616161)"/>
<path d="M10 10L13.1105 21.3151L16.3012 18.1244L20.7992 22.6224C21.3026 23.1259 22.1189 23.1259 22.6224 22.6224C23.1259 22.1189 23.1259 21.3026 22.6224 20.7992L18.1244 16.3012L21.3151 13.1105L10 10Z" fill="var(--mw-icon-background-default-white, #FFFFFF)" stroke="var(--mw-icon-border-default-gray, #616161)" stroke-linejoin="round"/>
</svg>
