<svg width="24" height="24" viewBox="0 0 24 24" fill="none" xmlns="http://www.w3.org/2000/svg">
<path d="M0.5 2.5C0.5 1.39543 1.39543 0.5 2.5 0.5H20.5C21.6046 0.5 22.5 1.39543 22.5 2.5V20.5C22.5 21.6046 21.6046 22.5 20.5 22.5H2.5C1.39543 22.5 0.5 21.6046 0.5 20.5V2.5Z" fill="var(--mw-icon-background-default-white, #FFFFFF)" stroke="var(--mw-icon-border-default-gray, #616161)" stroke-linejoin="round"/>
<path d="M5.51752 1.79926C4.46436 1.36304 3.34869 1.10181 2.21454 1.02438L2.24933 1H6.18976C7.47101 1.57236 8.63751 2.37476 9.63104 3.36829C10.6989 4.43616 11.546 5.70389 12.124 7.09915C12.7019 8.49438 12.9993 9.98981 12.9993 11.5C12.9993 13.0102 12.7019 14.5056 12.124 15.9008C11.546 17.2961 10.6989 18.5638 9.63104 19.6317C8.63751 20.6252 7.47101 21.4277 6.18976 22H2.23541L2.18994 21.9773C3.33258 21.9019 4.45673 21.6401 5.51752 21.2007C6.79144 20.6731 7.94891 19.8996 8.92395 18.9246C9.89899 17.9496 10.6724 16.7921 11.2001 15.5182C11.7277 14.2443 11.9993 12.8789 11.9993 11.5C11.9993 10.1211 11.7277 8.75574 11.2001 7.48181C10.6724 6.20792 9.89899 5.05038 8.92395 4.07538C7.94891 3.10037 6.79144 2.32693 5.51752 1.79926Z" fill="var(--mw-icon-glyph-content-gray, #616162)"/>
<path d="M16 11V12H12V11H16Z" fill="var(--mw-icon-glyph-content-gray, #616162)"/>
<path d="M16 8L19.5 11.5L16 15V8Z" fill="var(--mw-icon-glyph-content-gray, #616162)"/>
</svg>
