<svg width="24" height="24" viewBox="0 0 24 24" fill="none" xmlns="http://www.w3.org/2000/svg">
<path d="M17.2955 14.0007C15.7393 16.6904 12.831 18.4999 9.5 18.4999V13.4999C10.9804 13.4999 12.273 12.6957 12.9647 11.5002L17.2955 14.0007Z" stroke="var(--mw-icon-border-default-gray, #616161)" stroke-linejoin="round"/>
<path d="M9.49999 18.4999V13.4999C8.01957 13.4999 6.72698 12.6957 6.03532 11.5002L1.70447 14.0007C3.26072 16.6904 6.16903 18.4999 9.49999 18.4999Z" fill="var(--mw-icon-background-medium-yellow, #FFEF91)" stroke="#674C06" stroke-linejoin="round"/>
<path d="M17.2955 14.0007C15.7393 16.6904 12.831 18.4999 9.5 18.4999V13.4999C10.9804 13.4999 12.273 12.6957 12.9647 11.5002L17.2955 14.0007Z" fill="#FFAB66" stroke="#A24302" stroke-linejoin="round"/>
<path d="M6.03534 11.5003L1.70449 14.0007C0.938456 12.6768 0.500018 11.1396 0.500018 9.49998C0.500018 7.86038 0.938456 6.32319 1.70449 4.99924L6.03534 7.49965C5.69488 8.08807 5.50002 8.77127 5.50002 9.49998C5.50002 10.2287 5.69488 10.9119 6.03534 11.5003Z" fill="#E6BFFF" stroke="#8D1FD8" stroke-linejoin="round"/>
<path d="M1.70447 4.99934C3.26072 2.30965 6.16904 0.500088 9.5 0.500088L9.5 5.50009C8.01957 5.50009 6.72699 6.30434 6.03532 7.49976L1.70447 4.99934Z" stroke="var(--mw-icon-border-default-gray, #616161)" stroke-linejoin="round"/>
<path d="M9.50001 0.500091L9.50001 5.50009C10.9804 5.50009 12.273 6.30434 12.9647 7.49976L17.2955 4.99934C15.7393 2.30965 12.831 0.500091 9.50001 0.500091Z" fill="var(--mw-icon-background-default-action, #CBFFBE)" stroke="var(--mw-icon-border-default-green, #008013)" stroke-linejoin="round"/>
<path d="M12.9647 7.49968L17.2955 4.99927C18.0615 6.32322 18.5 7.86041 18.5 9.50002C18.5 11.1396 18.0615 12.6768 17.2955 14.0008L12.9647 11.5003C13.3051 10.9119 13.5 10.2287 13.5 9.50002C13.5 8.7713 13.3051 8.08811 12.9647 7.49968Z" fill="var(--mw-icon-background-red, #FF9D9A)" stroke="var(--mw-icon-border-default-red, #902622)" stroke-linejoin="round"/>
<path d="M1.70447 4.99934C3.26072 2.30965 6.16904 0.500088 9.5 0.500088L9.5 5.50009C8.01957 5.50009 6.72699 6.30434 6.03532 7.49976L1.70447 4.99934Z" fill="var(--mw-icon-background-default-selection, #B4DEFF)" stroke="var(--mw-icon-border-default-blue, #1656A7)" stroke-linejoin="round"/>
<path d="M9.5 9.5L12.5 21.5L16 18L20.9606 23.0643C21.5415 23.6452 22.4834 23.6452 23.0643 23.0643C23.6452 22.4834 23.6452 21.5415 23.0643 20.9606L18 16L21.5 12.5L9.5 9.5Z" fill="var(--mw-icon-background-default-white, #FFFFFF)" stroke="var(--mw-icon-border-default-gray, #616161)" stroke-linejoin="round"/>
</svg>
