<svg width="24" height="24" viewBox="0 0 24 24" fill="none" xmlns="http://www.w3.org/2000/svg">
<path d="M2.5 4.5C2.5 3.39543 3.39543 2.5 4.5 2.5H16.5C17.6046 2.5 18.5 3.39543 18.5 4.5V16.5C18.5 17.6046 17.6046 18.5 16.5 18.5H4.5C3.39543 18.5 2.5 17.6046 2.5 16.5V4.5Z" fill="var(--mw-icon-background-default-white, #FFFFFF)" stroke="var(--mw-icon-border-default-gray, #616161)" stroke-linejoin="round"/>
<path d="M0.5 2.5C0.5 1.39543 1.39543 0.5 2.5 0.5H14.5C15.6046 0.5 16.5 1.39543 16.5 2.5V14.5C16.5 15.6046 15.6046 16.5 14.5 16.5H2.5C1.39543 16.5 0.5 15.6046 0.5 14.5V2.5Z" fill="white"/>
<path d="M16.5 9.06096C13.8025 2.97953 11.1975 2.97976 8.5 9.06119C6.27778 13.6704 3.19753 13.9901 0.5 7.90866" stroke="#0072BD" stroke-linecap="round"/>
<path d="M0.5 2.5C0.5 1.39543 1.39543 0.5 2.5 0.5H14.5C15.6046 0.5 16.5 1.39543 16.5 2.5V14.5C16.5 15.6046 15.6046 16.5 14.5 16.5H2.5C1.39543 16.5 0.5 15.6046 0.5 14.5V2.5Z" stroke="var(--mw-icon-border-default-gray, #616161)" stroke-linejoin="round"/>
<path d="M9.5 9.5L12.5 21.5L16 18L20.9606 23.0643C21.5415 23.6452 22.4834 23.6452 23.0643 23.0643C23.6452 22.4834 23.6452 21.5415 23.0643 20.9606L18 16L21.5 12.5L9.5 9.5Z" fill="white" stroke="var(--mw-icon-border-default-gray, #616161)" stroke-linejoin="round"/>
</svg>
