<svg width="24" height="24" viewBox="0 0 24 24" fill="none" xmlns="http://www.w3.org/2000/svg">
<rect x="0.5" y="0.5" width="22" height="22" rx="2" fill="var(--mw-icon-background-default-white, #FFFFFF)"/>
<path d="M1.5 21.5C8 20 20 9 22.5 2.5" stroke="var(--mw-icon-glyph-content-light-blue, #278CDD)" stroke-linecap="round"/>
<path d="M7.5 5C7.5 5.82843 6.82843 6.5 6 6.5C5.17157 6.5 4.5 5.82843 4.5 5C4.5 4.17157 5.17157 3.5 6 3.5C6.82843 3.5 7.5 4.17157 7.5 5Z" fill="white"/>
<path d="M6.5 13C6.5 13.8284 5.82843 14.5 5 14.5C4.17157 14.5 3.5 13.8284 3.5 13C3.5 12.1716 4.17157 11.5 5 11.5C5.82843 11.5 6.5 12.1716 6.5 13Z" fill="white"/>
<path d="M16.5 18C16.5 18.8284 15.8284 19.5 15 19.5C14.1716 19.5 13.5 18.8284 13.5 18C13.5 17.1716 14.1716 16.5 15 16.5C15.8284 16.5 16.5 17.1716 16.5 18Z" fill="white"/>
<path d="M7.5 5C7.5 5.82843 6.82843 6.5 6 6.5C5.17157 6.5 4.5 5.82843 4.5 5C4.5 4.17157 5.17157 3.5 6 3.5C6.82843 3.5 7.5 4.17157 7.5 5Z" stroke="var(--mw-icon-glyph-content-green, #008014)"/>
<path d="M6.5 13C6.5 13.8284 5.82843 14.5 5 14.5C4.17157 14.5 3.5 13.8284 3.5 13C3.5 12.1716 4.17157 11.5 5 11.5C5.82843 11.5 6.5 12.1716 6.5 13Z" stroke="var(--mw-icon-glyph-content-green, #008014)"/>
<path d="M16.5 18C16.5 18.8284 15.8284 19.5 15 19.5C14.1716 19.5 13.5 18.8284 13.5 18C13.5 17.1716 14.1716 16.5 15 16.5C15.8284 16.5 16.5 17.1716 16.5 18Z" stroke="var(--mw-icon-glyph-content-green, #008014)"/>
<path d="M12 9.5C12 8.67157 12.6716 8 13.5 8C14.3284 8 15 8.67157 15 9.5C15 10.3284 14.3284 11 13.5 11C12.6716 11 12 10.3284 12 9.5Z" fill="var(--mw-icon-glyph-content-dark-gray, #333333)"/>
<path d="M18 12.5C18 11.6716 18.6716 11 19.5 11C20.3284 11 21 11.6716 21 12.5C21 13.3284 20.3284 14 19.5 14C18.6716 14 18 13.3284 18 12.5Z" fill="var(--mw-icon-glyph-content-dark-gray, #333333)"/>
<path d="M15 4.5C15 3.67157 15.6716 3 16.5 3C17.3284 3 18 3.67157 18 4.5C18 5.32843 17.3284 6 16.5 6C15.6716 6 15 5.32843 15 4.5Z" fill="var(--mw-icon-glyph-content-dark-gray, #333333)"/>
<path d="M0.5 2.5C0.5 1.39543 1.39543 0.5 2.5 0.5H20.5C21.6046 0.5 22.5 1.39543 22.5 2.5V20.5C22.5 21.6046 21.6046 22.5 20.5 22.5H2.5C1.39543 22.5 0.5 21.6046 0.5 20.5V2.5Z" stroke="var(--mw-icon-border-default-gray, #616161)"/>
</svg>
