<svg width="24" height="24" viewBox="0 0 24 24" fill="none" xmlns="http://www.w3.org/2000/svg">
<rect x="0.5" width="22" height="23" rx="2" fill="var(--mw-icon-background-default-white, #FFFFFF)"/>
<path d="M1 3H19.5C19.7761 3 20 3.22386 20 3.5V5.5C20 5.77614 19.7761 6 19.5 6H1V3Z" fill="#1171BE"/>
<path d="M1 8H14.5C14.7761 8 15 8.22386 15 8.5V10.5C15 10.7761 14.7761 11 14.5 11H1V8Z" fill="#DD5400"/>
<path d="M1 13H10.5C10.7761 13 11 13.2239 11 13.5V15.5C11 15.7761 10.7761 16 10.5 16H1V13Z" fill="#EDB120"/>
<path d="M1 18H5.5C5.77614 18 6 18.2239 6 18.5V20.5C6 20.7761 5.77614 21 5.5 21H1V18Z" fill="#8516D1"/>
<rect x="0.5" y="0.5" width="22" height="22" rx="2" stroke="var(--mw-icon-border-default-gray, #616161)"/>
</svg>
