<svg width="24" height="24" viewBox="0 0 24 24" fill="none" xmlns="http://www.w3.org/2000/svg">
<path d="M0.5 18.5V4.5C0.5 2.29086 2.29086 0.5 4.5 0.5H18.5C20.7091 0.5 22.5 2.29086 22.5 4.5V18.5C22.5 20.7091 20.7091 22.5 18.5 22.5H4.5C2.29086 22.5 0.5 20.7091 0.5 18.5Z" fill="#00A3A3"/>
<path d="M3 1H2V22H3V1Z" fill="#02555C"/>
<path d="M21 1H20V22H21V1Z" fill="#02555C"/>
<path d="M16 0.5H15V22.5H16V0.5Z" fill="#02555C"/>
<path d="M8 0.5H7V22.5H8V0.5Z" fill="#02555C"/>
<path d="M22 20H1V21H22V20Z" fill="#02555C"/>
<path d="M22 3H1V4H22V3Z" fill="#02555C"/>
<path d="M22.5 8H0.5V9H22.5V8Z" fill="#02555C"/>
<path d="M22.5 15H0.5V16H22.5V15Z" fill="#02555C"/>
<path d="M5.42066 7.24727C5.50315 7.48083 5.52609 7.81611 5.46672 8.26053C5.4081 8.69925 5.27443 9.20744 5.08065 9.76388C4.69306 10.8768 4.08398 12.1297 3.43594 13.3152C2.78954 14.4976 2.11247 15.5985 1.59624 16.4047C1.59023 16.4141 1.58424 16.4235 1.57828 16.4328C1.54782 15.5426 1.51527 14.3573 1.50406 13.1186C1.49255 11.8462 1.50362 10.5237 1.56185 9.40884C1.59097 8.85114 1.63159 8.35166 1.6859 7.93961C1.74147 7.51809 1.8073 7.22196 1.87429 7.05148C2.32791 5.89697 3.05606 5.47766 3.64922 5.50096C4.24912 5.52453 4.98368 6.01009 5.42066 7.24727Z" fill="#00A3A3" stroke="var(--mw-icon-background-default-white, white)"/>
<path d="M16.4626 18.2247C16.25 18.4682 15.8884 18.6938 15.3632 18.8843C14.8435 19.0729 14.2018 19.2135 13.4721 19.3122C12.0129 19.5096 10.2632 19.5312 8.56549 19.4691C6.8715 19.4071 5.24715 19.2624 4.04499 19.133C3.98075 19.1261 3.91773 19.1192 3.85598 19.1124C3.85662 19.1121 3.85726 19.1119 3.85789 19.1116C4.86519 18.6693 6.23143 18.0734 7.66777 17.4588C10.5629 16.2201 13.6789 14.9337 14.7624 14.6445C16.2102 14.2582 17.0429 14.696 17.3418 15.2738C17.6569 15.8828 17.5599 16.9678 16.4626 18.2247Z" fill="#00A3A3" stroke="var(--mw-icon-background-default-white, white)"/>
<path d="M19.4711 7.51482C19.418 8.06416 19.133 8.67206 18.6107 9.33032C18.091 9.98537 17.3622 10.6574 16.4794 11.3304C14.7141 12.6764 12.3926 13.9815 10.0659 15.1273C7.74318 16.2711 5.43426 17.2469 3.70446 17.9371C3.04133 18.2017 2.46394 18.4241 2.00429 18.5977C2.16921 18.267 2.36661 17.8731 2.59061 17.4297C3.29215 16.0409 4.25398 14.1674 5.29585 12.2268C6.33834 10.285 7.45805 8.28148 8.47567 6.63063C8.98462 5.80499 9.4648 5.07285 9.8945 4.48302C10.3299 3.88539 10.6935 3.46186 10.9679 3.23037C12.6026 1.85126 14.8568 1.67634 16.6463 2.48106C18.4145 3.27619 19.7123 5.01918 19.4711 7.51482Z" fill="#00A3A3" stroke="var(--mw-icon-background-default-white, white)"/>
<path d="M0.5 18.5V4.5C0.5 2.29086 2.29086 0.5 4.5 0.5H18.5C20.7091 0.5 22.5 2.29086 22.5 4.5V18.5C22.5 20.7091 20.7091 22.5 18.5 22.5H4.5C2.29086 22.5 0.5 20.7091 0.5 18.5Z" stroke="#02555C" stroke-linecap="round"/>

</svg>
