<svg width="24" height="24" viewBox="0 0 24 24" fill="none" xmlns="http://www.w3.org/2000/svg">
<path d="M1 23H23V12V1H1V12V23Z" fill="var(--mw-icon-background-default-white, #FFFFFF)"/>
<path d="M9.5 13C9.5 12.1716 10.1716 11.5 11 11.5H16C16.8284 11.5 17.5 12.1716 17.5 13V18C17.5 18.8284 16.8284 19.5 16 19.5H11C10.1716 19.5 9.5 18.8284 9.5 18V13Z" fill="var(--mw-icon-background-default-medium-gray, #D9D9D9)" stroke="var(--mw-icon-glyph-content-gray, #616162)"/>
<path d="M5 4C3.89543 4 3 4.89543 3 6V14C3 15.1046 3.89543 16 5 16V18L9 15.5L5 13V15C4.44772 15 4 14.5523 4 14V6C4 5.44772 4.44772 5 5 5H19C19.5523 5 20 5.44772 20 6V14C20 14.5523 19.5523 15 19 15H17V16H19C20.1046 16 21 15.1046 21 14V6C21 4.89543 20.1046 4 19 4H5Z" fill="var(--mw-icon-glyph-content-gray, #616162)"/>
<path d="M0.5 2.5C0.5 1.39543 1.39543 0.5 2.5 0.5H21.5C22.6046 0.5 23.5 1.39543 23.5 2.5V21.5C23.5 22.6046 22.6046 23.5 21.5 23.5H2.5C1.39543 23.5 0.5 22.6046 0.5 21.5V2.5Z" stroke="var(--mw-icon-border-default-gray, #616161)" stroke-linejoin="round"/>
</svg>
