<svg width="24" height="24" viewBox="0 0 24 24" fill="none" xmlns="http://www.w3.org/2000/svg">
<path d="M0.5 18.5V4.5C0.5 2.29086 2.29086 0.5 4.5 0.5H18.5C20.7091 0.5 22.5 2.29086 22.5 4.5V18.5C22.5 20.7091 20.7091 22.5 18.5 22.5H4.5C2.29086 22.5 0.5 20.7091 0.5 18.5Z" fill="var(--mw-icon-glyph-content-gray, #616162)"/>
<path d="M0.497464 18.2964C3.37446 18.6358 7.25928 19.0584 10.1363 18.7189C11.826 18.5991 13.5297 18.6579 15.1978 18.8938C16.8363 19.0254 19.4543 19.0985 20.9012 18.7189C21.1458 18.6548 22.2429 18.8311 22.3987 18.7964C22.5599 18.7605 22.2777 17.8304 22.3963 17.6156C22.6295 17.1931 22.3963 16.1127 22.3963 16.1127C21.3558 15.869 19.8999 15.4548 19.0971 14.8999C18.2942 14.345 17.6643 13.663 17.2526 12.9031C16.974 12.4308 16.7186 11.9848 16.4632 11.53C16.5561 11.3289 16.6258 11.1627 16.6722 11.0752C17.5429 9.49228 19.9816 7.7344 22.3731 7.31461V6.03775L22.3963 5.97653V4.47078C21.5414 4.43593 20.1914 4.85113 19.3539 4.71716C17.4616 4.40231 17.5661 4.17493 14.9308 4.47228C13.0228 4.78108 11.0566 4.82848 9.12629 4.61221C7.73282 4.25519 6.22505 4.23988 4.81932 4.56848C3.82976 4.7737 2.80251 4.8564 1.77774 4.81336C1.48751 4.47228 0.732113 4.71866 0.499932 4.50001L0.999932 7.62071C1.76923 7.85662 2.4637 8.21229 3.03787 8.66443C3.61203 9.11657 3.86358 9.78514 4.33174 10.2444C4.81932 10.7227 5.22232 11.0338 5.47772 11.4886C5.47772 12.1694 5.47772 12.1694 4.98019 12.8501C3.98181 14.6692 3.29772 15.3081 0.499932 15.6405V17.6156C0.499932 17.6156 0.358923 18.3692 0.497464 18.2964ZM20.0853 17.3196L19.737 17.3896C17.816 17.6814 15.8327 17.6455 13.9324 17.2846C13.1779 17.1535 12.2715 16.9785 11.784 16.9173C13.2235 16.3751 14.7683 14.9321 15.6506 13.2092C16.6038 14.8583 18.1373 16.2797 20.0853 17.3196ZM16.3936 5.88907C17.1017 5.95029 18.1698 6.00277 19.261 6.02026C18.4433 6.63945 17.7156 7.32255 17.0901 8.05799C16.5448 8.67203 16.0524 9.31177 15.6158 9.97329C14.6754 8.31162 13.7699 6.82486 12.609 6.1427C13.8417 5.89438 15.1221 5.80857 16.3936 5.88907ZM11.0998 7.18193C12.3188 7.18193 13.6074 9.51851 14.7451 11.53V11.5737C14.4216 12.5083 13.8918 13.3952 13.1779 14.1974C12.6684 14.8148 11.9241 15.3024 11.0418 15.5967C9.38169 15.5967 8.23324 13.7689 6.96785 11.53C9.24323 7.542 10.6703 7.18193 11.0998 7.18193ZM3.32175 6.4313C4.17264 6.00298 5.16628 5.76356 6.18919 5.7404C7.08309 5.80162 8.34848 6.01151 9.521 6.16019C8.36009 6.79862 7.19918 8.16294 6.03827 10.1132C5.99265 10.0486 5.95383 9.9813 5.92218 9.91207C5.17323 8.70403 4.30394 7.54045 3.32175 6.4313ZM4.7853 15.2017C5.4584 14.4064 6.04093 13.5697 6.52666 12.7004C7.76884 14.7819 8.5 16 9.63628 17.1185C8.17032 17.3335 7.72392 17.4883 6.23563 17.582C5.17752 17.5448 3.63275 17.3885 2.636 17.1185C2.97267 16.6637 3.84416 16.1827 4.27369 15.7017L4.7853 15.2017Z" fill="#64D413"/>
<path d="M11 7C11.5523 7 12 6.55228 12 6C12 5.44772 11.5523 5 11 5C10.4477 5 10 5.44772 10 6C10 6.55228 10.4477 7 11 7Z" fill="#FF13A6"/>
<path d="M6 13C6.55229 13 7 12.5523 7 12C7 11.4477 6.55229 11 6 11C5.44772 11 5 11.4477 5 12C5 12.5523 5.44772 13 6 13Z" fill="#FF13A6"/>
<path d="M16 13C16.5523 13 17 12.5523 17 12C17 11.4477 16.5523 11 16 11C15.4477 11 15 11.4477 15 12C15 12.5523 15.4477 13 16 13Z" fill="#FF13A6"/>
<path d="M21 7C21.5523 7 22 6.55228 22 6C22 5.44772 21.5523 5 21 5C20.4477 5 20 5.44772 20 6C20 6.55228 20.4477 7 21 7Z" fill="#FF13A6"/>
<path d="M2 7C2.55229 7 3 6.55228 3 6C3 5.44772 2.55229 5 2 5C1.44772 5 1 5.44772 1 6C1 6.55228 1.44772 7 2 7Z" fill="#FF13A6"/>
<path d="M2 18C2.55229 18 3 17.5523 3 17C3 16.4477 2.55229 16 2 16C1.44772 16 1 16.4477 1 17C1 17.5523 1.44772 18 2 18Z" fill="#FF13A6"/>
<path d="M21 18C21.5523 18 22 17.5523 22 17C22 16.4477 21.5523 16 21 16C20.4477 16 20 16.4477 20 17C20 17.5523 20.4477 18 21 18Z" fill="#FF13A6"/>
<path d="M11 18C11.5523 18 12 17.5523 12 17C12 16.4477 11.5523 16 11 16C10.4477 16 10 16.4477 10 17C10 17.5523 10.4477 18 11 18Z" fill="#FF13A6"/>
<path d="M0.5 18.5V4.5C0.5 2.29086 2.29086 0.5 4.5 0.5H18.5C20.7091 0.5 22.5 2.29086 22.5 4.5V18.5C22.5 20.7091 20.7091 22.5 18.5 22.5H4.5C2.29086 22.5 0.5 20.7091 0.5 18.5Z" stroke="var(--mw-icon-border-default-gray, #616161)" stroke-linecap="round"/>

</svg>
