<svg width="24" height="24" viewBox="0 0 24 24" fill="none" xmlns="http://www.w3.org/2000/svg">
<path d="M0.5 2.5C0.5 1.39543 1.39543 0.5 2.5 0.5H20.5C21.6046 0.5 22.5 1.39543 22.5 2.5V20.5C22.5 21.6046 21.6046 22.5 20.5 22.5H2.5C1.39543 22.5 0.5 21.6046 0.5 20.5V2.5Z" fill="var(--mw-icon-background-default-white, #FFFFFF)" stroke="var(--mw-icon-border-default-gray, #616161)"/>
<path d="M3.81063 8.74254C3.65285 8.11139 4.13021 7.5 4.78078 7.5H18.2192C18.8698 7.5 19.3472 8.11139 19.1894 8.74254L17.6894 14.7425C17.5781 15.1877 17.1781 15.5 16.7192 15.5H6.28078C5.82191 15.5 5.42193 15.1877 5.31063 14.7425L3.81063 8.74254Z" fill="var(--mw-icon-glyph-content-gray, #616162)" stroke="var(--mw-icon-glyph-content-gray, #616162)"/>
<path d="M8 10C8 10.5523 7.55228 11 7 11C6.44772 11 6 10.5523 6 10C6 9.44772 6.44772 9 7 9C7.55228 9 8 9.44772 8 10Z" fill="white"/>
<path d="M9 13C9 13.5523 8.55228 14 8 14C7.44772 14 7 13.5523 7 13C7 12.4477 7.44772 12 8 12C8.55228 12 9 12.4477 9 13Z" fill="white"/>
<path d="M11 10C11 10.5523 10.5523 11 10 11C9.44772 11 9 10.5523 9 10C9 9.44772 9.44772 9 10 9C10.5523 9 11 9.44772 11 10Z" fill="white"/>
<path d="M12.5 13C12.5 13.5523 12.0523 14 11.5 14C10.9477 14 10.5 13.5523 10.5 13C10.5 12.4477 10.9477 12 11.5 12C12.0523 12 12.5 12.4477 12.5 13Z" fill="white"/>
<path d="M14 10C14 10.5523 13.5523 11 13 11C12.4477 11 12 10.5523 12 10C12 9.44772 12.4477 9 13 9C13.5523 9 14 9.44772 14 10Z" fill="white"/>
<path d="M16 13C16 13.5523 15.5523 14 15 14C14.4477 14 14 13.5523 14 13C14 12.4477 14.4477 12 15 12C15.5523 12 16 12.4477 16 13Z" fill="white"/>
<path d="M17 10C17 10.5523 16.5523 11 16 11C15.4477 11 15 10.5523 15 10C15 9.44772 15.4477 9 16 9C16.5523 9 17 9.44772 17 10Z" fill="white"/>
</svg>
