<svg width="24" height="24" viewBox="0 0 24 24" fill="none" xmlns="http://www.w3.org/2000/svg">
<path d="M3 21.5L6 19.7679V23.2321L3 21.5Z" fill="var(--mw-icon-object-primary, #616160)"/>
<path d="M24 21.5L21 19.7679V23.2321L24 21.5Z" fill="var(--mw-icon-object-primary, #616160)"/>
<path d="M4 21.5L22.0009 21.5" stroke="var(--mw-icon-object-primary, #616160)"/>
<path d="M2.5 0L4.23205 3H0.767949L2.5 0Z" fill="var(--mw-icon-object-primary, #616160)"/>
<path d="M2.5 21L4.23205 18H0.767949L2.5 21Z" fill="var(--mw-icon-object-primary, #616160)"/>
<path d="M2.5 1.5L2.49998 19.5009" stroke="var(--mw-icon-object-primary, #616160)"/>
<rect x="5.5" y="0.5" width="18" height="18" rx="1" fill="var(--mw-icon-background-default-white, #FFFFFF)"/>
<path d="M5.5 9.5L6.08274 10.5073C8.59749 14.8544 12.2228 14.4205 14.5 9.5C16.7772 4.57947 20.4025 4.14562 22.9173 8.49267L23.5 9.5" stroke="#0072BD"/>
<rect x="5.5" y="0.5" width="18" height="18" rx="2" stroke="var(--mw-icon-border-default-gray, #616161)"/>
</svg>
