<svg width="24" height="24" viewBox="0 0 24 24" fill="none" xmlns="http://www.w3.org/2000/svg">
<rect x="0.5" y="0.5" width="18" height="18" rx="2" fill="var(--mw-icon-glyph-content-green, #008014)"/>
<path d="M7.5 1V4.5H18M5.5 1V6.5H9.5V18M7.5 18V8.5H1M1 10.5H5.5V18M9.5 1V3M11.5 1V3M13.5 1V3M15.5 1V3M17.5 1V3" stroke="var(--mw-icon-background-medium-yellow, #FFEF91)" stroke-linejoin="round"/>
<path d="M11.5 6.5H13.5V8.5H11.5V6.5Z" fill="var(--mw-icon-glyph-content-dark-gray, #333333)"/>
<path d="M13.5 6.5H15.5V8.5H13.5V6.5Z" fill="var(--mw-icon-glyph-content-dark-gray, #333333)"/>
<path d="M15.5 6.5H17.5V8.5H15.5V6.5Z" fill="var(--mw-icon-glyph-content-dark-gray, #333333)"/>
<path d="M0.5 2.5C0.5 1.39543 1.39543 0.5 2.5 0.5H3.5V6.5H0.5V2.5Z" fill="var(--mw-icon-glyph-content-dark-gray, #333333)"/>
<path d="M0.5 12.5H3.5V16.5H0.5V12.5Z" fill="var(--mw-icon-glyph-content-dark-gray, #333333)"/>
<path d="M11.5 6.5V6C11.2239 6 11 6.22386 11 6.5H11.5ZM11.5 8.5H11C11 8.77614 11.2239 9 11.5 9V8.5ZM17.5 6.5H18V6H17.5V6.5ZM17.5 8.5V9H18V8.5H17.5ZM3.5 0.5H4C4 0.223858 3.77614 0 3.5 0V0.5ZM3.5 6.5V7C3.77614 7 4 6.77614 4 6.5H3.5ZM0.5 6.5H0C0 6.77614 0.223858 7 0.5 7L0.5 6.5ZM0.5 12.5V12C0.223858 12 0 12.2239 0 12.5H0.5ZM3.5 12.5H4C4 12.2239 3.77614 12 3.5 12V12.5ZM3.5 16.5V17C3.77614 17 4 16.7761 4 16.5H3.5ZM0.5 16.5H0C0 16.7761 0.223858 17 0.5 17L0.5 16.5ZM11.5 7H13.5V6H11.5V7ZM13 6.5V8.5H14V6.5H13ZM13.5 8H11.5V9H13.5V8ZM12 8.5V6.5H11V8.5H12ZM13.5 7H15.5V6H13.5V7ZM15 6.5V8.5H16V6.5H15ZM15.5 8H13.5V9H15.5V8ZM15.5 7H17.5V6H15.5V7ZM17 6.5V8.5H18V6.5H17ZM17.5 8H15.5V9H17.5V8ZM2.5 1H3.5V0H2.5V1ZM3 0.5V6.5H4V0.5H3ZM3.5 6H0.5V7H3.5V6ZM1 6.5V2.5H0V6.5H1ZM0.5 13H3.5V12H0.5V13ZM3 12.5V16.5H4V12.5H3ZM3.5 16H0.5V17H3.5V16ZM1 16.5V12.5H0V16.5H1ZM2.5 0C1.11929 0 0 1.11929 0 2.5H1C1 1.67157 1.67157 1 2.5 1V0Z" fill="var(--mw-icon-background-default-action, #CBFFBE)"/>
<rect x="0.5" y="0.5" width="18" height="18" rx="2" stroke="#013E0A"/>
<path fill-rule="evenodd" clip-rule="evenodd" d="M19.5357 13.6393C19.2993 13.5144 19.05 13.4106 18.7904 13.3303L18.4091 11.5H16.5909L16.2096 13.3303C15.95 13.4106 15.7007 13.5144 15.4643 13.6393L13.9002 12.6145L12.6145 13.9002L13.6393 15.4643C13.5144 15.7007 13.4106 15.95 13.3303 16.2096L11.5 16.5909V18.4091L13.3303 18.7904C13.4106 19.05 13.5144 19.2993 13.6393 19.5357L12.6145 21.0998L13.9002 22.3855L15.4643 21.3607C15.7007 21.4856 15.95 21.5894 16.2096 21.6697L16.5909 23.5H18.4091L18.7904 21.6697C19.05 21.5894 19.2993 21.4856 19.5357 21.3607L21.0998 22.3855L22.3855 21.0998L21.3607 19.5357C21.4856 19.2993 21.5894 19.05 21.6697 18.7904L23.5 18.4091V16.5909L21.6697 16.2096C21.5894 15.95 21.4856 15.7007 21.3607 15.4643L22.3855 13.9002L21.0998 12.6145L19.5357 13.6393Z" fill="var(--mw-icon-background-default-medium-gray, #D9D9D9)" stroke="var(--mw-icon-border-default-gray, #616161)" stroke-linejoin="round"/>
<path d="M20 17.5C20 18.8807 18.8807 20 17.5 20C16.1193 20 15 18.8807 15 17.5C15 16.1193 16.1193 15 17.5 15C18.8807 15 20 16.1193 20 17.5Z" fill="var(--mw-icon-background-default-dark-gray, #A6A6A6)"/>
<path d="M19 17.5C19 18.3284 18.3284 19 17.5 19C16.6716 19 16 18.3284 16 17.5C16 16.6716 16.6716 16 17.5 16C18.3284 16 19 16.6716 19 17.5Z" fill="var(--mw-icon-glyph-content-gray, #616162)"/>
</svg>
