<svg width="24" height="24" viewBox="0 0 24 24" fill="none" xmlns="http://www.w3.org/2000/svg">
<path d="M17.5 18.5L1.5 18.5C0.947715 18.5 0.5 18.0523 0.5 17.5L0.499999 1.5C0.499999 0.947714 0.947714 0.499998 1.5 0.499998L17.5 0.499997C18.0523 0.499997 18.5 0.947714 18.5 1.5L18.5 17.5C18.5 18.0523 18.0523 18.5 17.5 18.5Z" fill="var(--mw-icon-background-default-white, #FFFFFF)" stroke="var(--mw-icon-border-default-gray, #616161)" stroke-linecap="round"/>
<path d="M4 2.5C4 2.22386 4.22386 2 4.5 2C4.77614 2 5 2.22386 5 2.5V16.5C5 16.7761 4.77614 17 4.5 17C4.22386 17 4 16.7761 4 16.5V2.5Z" fill="var(--mw-icon-glyph-content-gray, #616162)"/>
<path d="M2.5 9.5V7.5H6.5V9.5H2.5Z" fill="var(--mw-icon-background-default-medium-gray, #D9D9D9)" stroke="var(--mw-icon-glyph-content-gray, #616162)" stroke-linejoin="round"/>
<path d="M9 2.5C9 2.22386 9.22386 2 9.5 2C9.77614 2 10 2.22386 10 2.5V16.5C10 16.7761 9.77614 17 9.5 17C9.22386 17 9 16.7761 9 16.5V2.5Z" fill="var(--mw-icon-glyph-content-gray, #616162)"/>
<path d="M7.5 13.5V11.5H11.5V13.5H7.5Z" fill="var(--mw-icon-background-default-medium-gray, #D9D9D9)" stroke="var(--mw-icon-glyph-content-gray, #616162)" stroke-linejoin="round"/>
<path d="M14 2.5C14 2.22386 14.2239 2 14.5 2C14.7761 2 15 2.22386 15 2.5V16.5C15 16.7761 14.7761 17 14.5 17C14.2239 17 14 16.7761 14 16.5V2.5Z" fill="var(--mw-icon-glyph-content-gray, #616162)"/>
<path d="M12.5 6.5V4.5H16.5V6.5H12.5Z" fill="var(--mw-icon-background-default-medium-gray, #D9D9D9)" stroke="var(--mw-icon-glyph-content-gray, #616162)" stroke-linejoin="round"/>
<path fill-rule="evenodd" clip-rule="evenodd" d="M18.5357 12.6393C18.2993 12.5144 18.05 12.4106 17.7904 12.3303L17.4091 10.5H15.5909L15.2096 12.3303C14.95 12.4106 14.7007 12.5144 14.4643 12.6393L12.9002 11.6145L11.6145 12.9002L12.6393 14.4643C12.5144 14.7007 12.4106 14.95 12.3303 15.2096L10.5 15.5909V17.4091L12.3303 17.7904C12.4106 18.05 12.5144 18.2993 12.6393 18.5357L11.6145 20.0998L12.9002 21.3855L14.4643 20.3607C14.7007 20.4856 14.95 20.5894 15.2096 20.6697L15.5909 22.5H17.4091L17.7904 20.6697C18.05 20.5894 18.2993 20.4856 18.5357 20.3607L20.0998 21.3855L21.3855 20.0998L20.3607 18.5357C20.4856 18.2993 20.5894 18.05 20.6697 17.7904L22.5 17.4091V15.5909L20.6697 15.2096C20.5894 14.95 20.4856 14.7007 20.3607 14.4643L21.3855 12.9002L20.0998 11.6145L18.5357 12.6393Z" fill="var(--mw-icon-background-default-medium-gray, #D9D9D9)" stroke="var(--mw-icon-border-default-gray, #616161)" stroke-linejoin="round"/>
<path d="M19 16.5C19 17.8807 17.8807 19 16.5 19C15.1193 19 14 17.8807 14 16.5C14 15.1193 15.1193 14 16.5 14C17.8807 14 19 15.1193 19 16.5Z" fill="var(--mw-icon-background-default-dark-gray, #A6A6A6)"/>
<path d="M18 16.5C18 17.3284 17.3284 18 16.5 18C15.6716 18 15 17.3284 15 16.5C15 15.6716 15.6716 15 16.5 15C17.3284 15 18 15.6716 18 16.5Z" fill="var(--mw-icon-glyph-content-gray, #616162)"/>
</svg>
