<svg width="24" height="24" viewBox="0 0 24 24" fill="none" xmlns="http://www.w3.org/2000/svg">
<rect x="2.5" y="2.5" width="16" height="16" rx="2" fill="var(--mw-icon-background-default-medium-gray, #D9D9D9)" stroke="var(--mw-icon-border-default-gray, #616161)"/>
<rect x="0.5" y="0.5" width="16" height="16" rx="2" fill="var(--mw-icon-background-default-white, #FFFFFF)"/>
<path d="M7.5 16.5C7.5 16 5.17504 16.4234 3.6001 15.1948C2.82987 14.594 2.26255 13.9434 2.39999 13.2429C2.53412 12.5593 2.99694 12.1511 3.6001 11.8513C4.00774 11.6487 4.47949 11.4957 4.95717 11.3408L4.96383 11.3386C5.49724 11.1656 6.03772 10.9899 6.50433 10.7398C6.96998 10.4902 7.36205 10.1665 7.6001 9.69752C8.25406 8.40911 8.31404 7.12087 8.75113 6.1515C9.1161 5.3421 9.74398 4.75501 11.2001 4.57577C11.2961 4.56396 11.8528 4.57117 12.0332 4.57478M12.0332 4.57478C12.1087 4.57629 12.1182 4.57717 12.0001 4.57575C12.0112 4.57537 12.0222 4.57505 12.0332 4.57478ZM12.0332 4.57478C13.0111 4.55069 13.6457 4.94356 14.4001 5.36363C15.5 6.5 16.5001 6.49999 16.5001 6.49999" stroke="var(--mw-icon-background-default-selection, #B4DEFF)" stroke-width="3" stroke-linejoin="round"/>
<path d="M7.5 16.5C7.5 16 5.17504 16.4234 3.6001 15.1948C2.82987 14.594 2.26255 13.9434 2.39999 13.2429C2.53412 12.5593 2.99694 12.1511 3.6001 11.8513C4.00774 11.6487 4.47949 11.4957 4.95717 11.3408L4.96383 11.3386C5.49724 11.1656 6.03772 10.9899 6.50433 10.7398C6.96998 10.4902 7.36205 10.1665 7.6001 9.69752C8.25406 8.40911 8.31404 7.12087 8.75113 6.1515C9.1161 5.3421 9.74398 4.75501 11.2001 4.57577C11.2961 4.56396 11.8528 4.57117 12.0332 4.57478M12.0332 4.57478C12.1087 4.57629 12.1182 4.57717 12.0001 4.57575C12.0112 4.57537 12.0222 4.57505 12.0332 4.57478ZM12.0332 4.57478C13.0111 4.55069 13.6457 4.94356 14.4001 5.36363C15.7216 6.09945 16.5001 6.49999 16.5001 6.49999" stroke="var(--mw-icon-glyph-content-gray, #616162)" stroke-linecap="round" stroke-linejoin="round"/>
<path d="M3 3C3 2.44772 3.44772 2 4 2C4.55228 2 5 2.44772 5 3C5 3.55228 4.55228 4 4 4C3.44772 4 3 3.55228 3 3Z" fill="var(--mw-icon-glyph-disabled-gray, #888889)"/>
<path d="M1 6C1 5.44772 1.44772 5 2 5C2.55228 5 3 5.44772 3 6C3 6.55228 2.55228 7 2 7C1.44772 7 1 6.55228 1 6Z" fill="var(--mw-icon-glyph-disabled-gray, #888889)"/>
<path d="M4 7C4 6.44772 4.44772 6 5 6C5.55228 6 6 6.44772 6 7C6 7.55228 5.55228 8 5 8C4.44772 8 4 7.55228 4 7Z" fill="var(--mw-icon-glyph-disabled-gray, #888889)"/>
<path d="M8 2C8 1.44772 8.44772 1 9 1C9.55228 1 10 1.44772 10 2C10 2.55228 9.55228 3 9 3C8.44772 3 8 2.55228 8 2Z" fill="var(--mw-icon-glyph-disabled-gray, #888889)"/>
<path d="M14 2C14 1.44772 14.4477 1 15 1C15.5523 1 16 1.44772 16 2C16 2.55228 15.5523 3 15 3C14.4477 3 14 2.55228 14 2Z" fill="var(--mw-icon-glyph-disabled-gray, #888889)"/>
<path d="M11 12C11 11.4477 11.4477 11 12 11C12.5523 11 13 11.4477 13 12C13 12.5523 12.5523 13 12 13C11.4477 13 11 12.5523 11 12Z" fill="var(--mw-icon-glyph-disabled-gray, #888889)"/>
<path d="M17 16C17 15.4477 17.4477 15 18 15C18.5523 15 19 15.4477 19 16C19 16.5523 18.5523 17 18 17C17.4477 17 17 16.5523 17 16Z" fill="var(--mw-icon-glyph-disabled-gray, #888889)"/>
<path d="M8 15C8 14.4477 8.44772 14 9 14C9.55228 14 10 14.4477 10 15C10 15.5523 9.55228 16 9 16C8.44772 16 8 15.5523 8 15Z" fill="var(--mw-icon-glyph-disabled-gray, #888889)"/>
<rect x="0.5" y="0.5" width="16" height="16" rx="2" stroke="var(--mw-icon-border-default-gray, #616161)"/>
<path fill-rule="evenodd" clip-rule="evenodd" d="M19.5357 13.6393C19.2993 13.5144 19.05 13.4106 18.7904 13.3303L18.4091 11.5H16.5909L16.2096 13.3303C15.95 13.4106 15.7007 13.5144 15.4643 13.6393L13.9002 12.6145L12.6145 13.9002L13.6393 15.4643C13.5144 15.7007 13.4106 15.95 13.3303 16.2096L11.5 16.5909V18.4091L13.3303 18.7904C13.4106 19.05 13.5144 19.2993 13.6393 19.5357L12.6145 21.0998L13.9002 22.3855L15.4643 21.3607C15.7007 21.4856 15.95 21.5894 16.2096 21.6697L16.5909 23.5H18.4091L18.7904 21.6697C19.05 21.5894 19.2993 21.4856 19.5357 21.3607L21.0998 22.3855L22.3855 21.0998L21.3607 19.5357C21.4856 19.2993 21.5894 19.05 21.6697 18.7904L23.5 18.4091V16.5909L21.6697 16.2096C21.5894 15.95 21.4856 15.7007 21.3607 15.4643L22.3855 13.9002L21.0998 12.6145L19.5357 13.6393Z" fill="var(--mw-icon-background-default-medium-gray, #D9D9D9)" stroke="var(--mw-icon-border-default-gray, #616161)" stroke-linejoin="round"/>
<path d="M20 17.5C20 18.8807 18.8807 20 17.5 20C16.1193 20 15 18.8807 15 17.5C15 16.1193 16.1193 15 17.5 15C18.8807 15 20 16.1193 20 17.5Z" fill="var(--mw-icon-background-default-dark-gray, #A6A6A6)"/>
<path d="M19 17.5C19 18.3284 18.3284 19 17.5 19C16.6716 19 16 18.3284 16 17.5C16 16.6716 16.6716 16 17.5 16C18.3284 16 19 16.6716 19 17.5Z" fill="var(--mw-icon-glyph-content-gray, #616162)"/>
<path d="M3 17H7V18H4C3.44772 18 3 17.5523 3 17Z" fill="var(--mw-icon-background-default-medium-gray, #D9D9D9)"/>
</svg>
