<svg width="24" height="24" viewBox="0 0 24 24" fill="none" xmlns="http://www.w3.org/2000/svg">
<rect x="2.5" y="2.5" width="16" height="16" rx="2" fill="var(--mw-icon-background-default-medium-gray, #D9D9D9)" stroke="var(--mw-icon-border-default-gray, #616161)"/>
<rect x="0.5" y="0.5" width="16" height="16" rx="2" fill="var(--mw-icon-background-default-white, #FFFFFF)"/>
<path d="M10.5 14.5C7.20832 12.8542 2.5 7 0.522443 8.5L0.500004 2H1.50006C3.36075 2 7.26757 7.5 9.5 7.5C11.2859 7.5 15.503 5.3964 16.3712 4.81081V16.5C15.255 16.5 13.5 16 10.5 14.5Z" fill="var(--mw-icon-background-default-medium-gray, #D9D9D9)"/>
<path d="M0.5 4.5C2.73243 4.5 8.18559 12.1892 11.9063 12.1892C14.8829 12.1892 15.7559 9.85135 16.5 9.5" stroke="var(--mw-icon-borderColor-light-blue, #268CDD)" stroke-linecap="round" stroke-linejoin="round"/>
<path d="M13.5 9.5C13.5 8.94772 13.9477 8.5 14.5 8.5C15.0523 8.5 15.5 8.94772 15.5 9.5C15.5 10.0523 15.0523 10.5 14.5 10.5C13.9477 10.5 13.5 10.0523 13.5 9.5Z" fill="white"/>
<path d="M9.5 10.5C9.5 9.94772 9.94772 9.5 10.5 9.5C11.0523 9.5 11.5 9.94772 11.5 10.5C11.5 11.0523 11.0523 11.5 10.5 11.5C9.94772 11.5 9.5 11.0523 9.5 10.5Z" fill="white"/>
<path d="M11.5 14.5C11.5 13.9477 11.9477 13.5 12.5 13.5C13.0523 13.5 13.5 13.9477 13.5 14.5C13.5 15.0523 13.0523 15.5 12.5 15.5C11.9477 15.5 11.5 15.0523 11.5 14.5Z" fill="white"/>
<path d="M2.5 8.5C2.5 7.94772 2.94772 7.5 3.5 7.5C4.05228 7.5 4.5 7.94772 4.5 8.5C4.5 9.05228 4.05228 9.5 3.5 9.5C2.94772 9.5 2.5 9.05228 2.5 8.5Z" fill="white"/>
<path d="M13.5 9.5C13.5 8.94772 13.9477 8.5 14.5 8.5C15.0523 8.5 15.5 8.94772 15.5 9.5C15.5 10.0523 15.0523 10.5 14.5 10.5C13.9477 10.5 13.5 10.0523 13.5 9.5Z" stroke="#DD5400"/>
<path d="M9.5 10.5C9.5 9.94772 9.94772 9.5 10.5 9.5C11.0523 9.5 11.5 9.94772 11.5 10.5C11.5 11.0523 11.0523 11.5 10.5 11.5C9.94772 11.5 9.5 11.0523 9.5 10.5Z" stroke="#DD5400"/>
<path d="M11.5 14.5C11.5 13.9477 11.9477 13.5 12.5 13.5C13.0523 13.5 13.5 13.9477 13.5 14.5C13.5 15.0523 13.0523 15.5 12.5 15.5C11.9477 15.5 11.5 15.0523 11.5 14.5Z" stroke="#DD5400"/>
<path d="M2.5 8.5C2.5 7.94772 2.94772 7.5 3.5 7.5C4.05228 7.5 4.5 7.94772 4.5 8.5C4.5 9.05228 4.05228 9.5 3.5 9.5C2.94772 9.5 2.5 9.05228 2.5 8.5Z" stroke="#DD5400"/>
<rect x="0.5" y="0.5" width="16" height="16" rx="2" stroke="var(--mw-icon-border-default-gray, #616161)"/>
<path fill-rule="evenodd" clip-rule="evenodd" d="M19.5357 13.6393C19.2993 13.5144 19.05 13.4106 18.7904 13.3303L18.4091 11.5H16.5909L16.2096 13.3303C15.95 13.4106 15.7007 13.5144 15.4643 13.6393L13.9002 12.6145L12.6145 13.9002L13.6393 15.4643C13.5144 15.7007 13.4106 15.95 13.3303 16.2096L11.5 16.5909V18.4091L13.3303 18.7904C13.4106 19.05 13.5144 19.2993 13.6393 19.5357L12.6145 21.0998L13.9002 22.3855L15.4643 21.3607C15.7007 21.4856 15.95 21.5894 16.2096 21.6697L16.5909 23.5H18.4091L18.7904 21.6697C19.05 21.5894 19.2993 21.4856 19.5357 21.3607L21.0998 22.3855L22.3855 21.0998L21.3607 19.5357C21.4856 19.2993 21.5894 19.05 21.6697 18.7904L23.5 18.4091V16.5909L21.6697 16.2096C21.5894 15.95 21.4856 15.7007 21.3607 15.4643L22.3855 13.9002L21.0998 12.6145L19.5357 13.6393Z" fill="var(--mw-icon-background-default-medium-gray, #D9D9D9)" stroke="var(--mw-icon-border-default-gray, #616161)" stroke-linejoin="round"/>
<path d="M20 17.5C20 18.8807 18.8807 20 17.5 20C16.1193 20 15 18.8807 15 17.5C15 16.1193 16.1193 15 17.5 15C18.8807 15 20 16.1193 20 17.5Z" fill="var(--mw-icon-background-default-dark-gray, #A6A6A6)"/>
<path d="M19 17.5C19 18.3284 18.3284 19 17.5 19C16.6716 19 16 18.3284 16 17.5C16 16.6716 16.6716 16 17.5 16C18.3284 16 19 16.6716 19 17.5Z" fill="var(--mw-icon-glyph-content-gray, #616162)"/>
</svg>
