<svg width="24" height="24" viewBox="0 0 24 24" fill="none" xmlns="http://www.w3.org/2000/svg">
<rect x="1" y="1" width="17" height="17" fill="var(--mw-icon-background-default-white, #FFFFFF)"/>
<rect x="0.5" y="0.5" width="18" height="18" rx="2" stroke="var(--mw-icon-border-default-gray, #616161)"/>
<path d="M8.28032 12L8.99205 13.5203L9.72366 12H10.9443L9.72763 14.4445L11 17H9.77535L9 15.3919L8.22465 17H7L8.27237 14.4445L7.05567 12H8.28032Z" fill="#0072BD"/>
<path d="M3.23209 13.1388V17H2V12.0907H3.15508L3.23209 13.1388ZM3.05241 14.373H2.71872C2.71872 14.01 2.76292 13.6833 2.85134 13.3929C2.93975 13.0995 3.06381 12.85 3.22353 12.6443C3.38324 12.4356 3.57291 12.2768 3.79251 12.1679C4.01497 12.056 4.2631 12 4.5369 12C4.75365 12 4.95187 12.0333 5.13155 12.0998C5.31123 12.1664 5.46524 12.2722 5.59358 12.4174C5.72478 12.5626 5.8246 12.7547 5.89305 12.9936C5.96435 13.2326 6 13.5245 6 13.8693V17H4.75936V13.8648C4.75936 13.647 4.73084 13.4776 4.6738 13.3566C4.61676 13.2356 4.53262 13.1509 4.42139 13.1025C4.31301 13.0511 4.17897 13.0254 4.01925 13.0254C3.85383 13.0254 3.7098 13.0602 3.58717 13.1298C3.46738 13.1993 3.36756 13.2961 3.2877 13.4201C3.2107 13.5411 3.15223 13.6833 3.1123 13.8466C3.07237 14.01 3.05241 14.1854 3.05241 14.373Z" fill="#0072BD"/>
<path d="M7.12332 8.58757C7.12332 8.43115 7.0983 8.29078 7.04826 8.16644C7.00238 8.0381 6.9148 7.92179 6.78552 7.81751C6.65624 7.70922 6.47483 7.60294 6.24129 7.49866C6.00775 7.39438 5.70539 7.2861 5.33423 7.1738C4.92136 7.04545 4.52934 6.90107 4.15818 6.74064C3.79118 6.58021 3.46589 6.39372 3.18231 6.18115C2.90289 5.96457 2.68186 5.7139 2.51921 5.42914C2.36074 5.14438 2.2815 4.8135 2.2815 4.4365C2.2815 4.07152 2.36491 3.74064 2.53172 3.44385C2.69854 3.14305 2.93208 2.88636 3.23235 2.6738C3.53262 2.45722 3.8871 2.29078 4.2958 2.17447C4.70867 2.05816 5.16116 2 5.65326 2C6.32469 2 6.91063 2.11631 7.41108 2.34893C7.91153 2.58155 8.29937 2.9004 8.57462 3.30548C8.85404 3.71056 8.99374 4.1738 8.99374 4.69519H7.12958C7.12958 4.4385 7.07328 4.2139 6.96068 4.02139C6.85225 3.82487 6.68543 3.67045 6.46023 3.55816C6.2392 3.44586 5.95979 3.38971 5.62198 3.38971C5.29669 3.38971 5.02562 3.43783 4.80876 3.53409C4.5919 3.62634 4.42925 3.75267 4.32082 3.9131C4.21239 4.06952 4.15818 4.24599 4.15818 4.44251C4.15818 4.59091 4.19571 4.72527 4.27078 4.84559C4.35001 4.96591 4.46679 5.07821 4.62109 5.18249C4.77539 5.28676 4.96515 5.38503 5.19035 5.47727C5.41555 5.56952 5.6762 5.65976 5.9723 5.74799C6.46857 5.89238 6.90438 6.05481 7.27971 6.23529C7.65922 6.41578 7.97617 6.61832 8.23056 6.84291C8.48496 7.06751 8.6768 7.32219 8.80608 7.60695C8.93536 7.89171 9 8.21457 9 8.57553C9 8.95655 8.92285 9.29746 8.76854 9.59826C8.61424 9.89906 8.39112 10.1537 8.0992 10.3623C7.80727 10.5709 7.45904 10.7293 7.05451 10.8376C6.64999 10.9459 6.1975 11 5.69705 11C5.24665 11 4.8025 10.9438 4.36461 10.8316C3.92672 10.7152 3.52845 10.5408 3.16979 10.3082C2.81531 10.0755 2.53172 9.77874 2.31903 9.41778C2.10634 9.05682 2 8.62968 2 8.13636H3.88293C3.88293 8.40909 3.92672 8.63971 4.0143 8.82821C4.10188 9.01671 4.2249 9.16912 4.38338 9.28543C4.54602 9.40174 4.73786 9.48596 4.95889 9.5381C5.18409 9.59024 5.43015 9.61631 5.69705 9.61631C6.02234 9.61631 6.28925 9.57219 6.49777 9.48396C6.71046 9.39572 6.86685 9.2734 6.96693 9.11698C7.07119 8.96056 7.12332 8.78409 7.12332 8.58757Z" fill="#0072BD"/>
<path d="M15.1233 8.58757C15.1233 8.43115 15.0983 8.29078 15.0483 8.16644C15.0024 8.0381 14.9148 7.92179 14.7855 7.81751C14.6562 7.70922 14.4748 7.60294 14.2413 7.49866C14.0077 7.39438 13.7054 7.2861 13.3342 7.1738C12.9214 7.04545 12.5293 6.90107 12.1582 6.74064C11.7912 6.58021 11.4659 6.39372 11.1823 6.18115C10.9029 5.96457 10.6819 5.7139 10.5192 5.42914C10.3607 5.14438 10.2815 4.8135 10.2815 4.4365C10.2815 4.07152 10.3649 3.74064 10.5317 3.44385C10.6985 3.14305 10.9321 2.88636 11.2324 2.6738C11.5326 2.45722 11.8871 2.29078 12.2958 2.17447C12.7087 2.05816 13.1612 2 13.6533 2C14.3247 2 14.9106 2.11631 15.4111 2.34893C15.9115 2.58155 16.2994 2.9004 16.5746 3.30548C16.854 3.71056 16.9937 4.1738 16.9937 4.69519H15.1296C15.1296 4.4385 15.0733 4.2139 14.9607 4.02139C14.8522 3.82487 14.6854 3.67045 14.4602 3.55816C14.2392 3.44586 13.9598 3.38971 13.622 3.38971C13.2967 3.38971 13.0256 3.43783 12.8088 3.53409C12.5919 3.62634 12.4293 3.75267 12.3208 3.9131C12.2124 4.06952 12.1582 4.24599 12.1582 4.44251C12.1582 4.59091 12.1957 4.72527 12.2708 4.84559C12.35 4.96591 12.4668 5.07821 12.6211 5.18249C12.7754 5.28676 12.9651 5.38503 13.1903 5.47727C13.4155 5.56952 13.6762 5.65976 13.9723 5.74799C14.4686 5.89238 14.9044 6.05481 15.2797 6.23529C15.6592 6.41578 15.9762 6.61832 16.2306 6.84291C16.485 7.06751 16.6768 7.32219 16.8061 7.60695C16.9354 7.89171 17 8.21457 17 8.57553C17 8.95655 16.9228 9.29746 16.7685 9.59826C16.6142 9.89906 16.3911 10.1537 16.0992 10.3623C15.8073 10.5709 15.459 10.7293 15.0545 10.8376C14.65 10.9459 14.1975 11 13.6971 11C13.2466 11 12.8025 10.9438 12.3646 10.8316C11.9267 10.7152 11.5284 10.5408 11.1698 10.3082C10.8153 10.0755 10.5317 9.77874 10.319 9.41778C10.1063 9.05682 10 8.62968 10 8.13636H11.8829C11.8829 8.40909 11.9267 8.63971 12.0143 8.82821C12.1019 9.01671 12.2249 9.16912 12.3834 9.28543C12.546 9.40174 12.7379 9.48596 12.9589 9.5381C13.1841 9.59024 13.4301 9.61631 13.6971 9.61631C14.0223 9.61631 14.2892 9.57219 14.4978 9.48396C14.7105 9.39572 14.8668 9.2734 14.9669 9.11698C15.0712 8.96056 15.1233 8.78409 15.1233 8.58757Z" fill="#0072BD"/>
<path fill-rule="evenodd" clip-rule="evenodd" d="M18.5357 12.6393C18.2993 12.5144 18.05 12.4106 17.7904 12.3303L17.4091 10.5H15.5909L15.2096 12.3303C14.95 12.4106 14.7007 12.5144 14.4643 12.6393L12.9002 11.6145L11.6145 12.9002L12.6393 14.4643C12.5144 14.7007 12.4106 14.95 12.3303 15.2096L10.5 15.5909V17.4091L12.3303 17.7904C12.4106 18.05 12.5144 18.2993 12.6393 18.5357L11.6145 20.0998L12.9002 21.3855L14.4643 20.3607C14.7007 20.4856 14.95 20.5894 15.2096 20.6697L15.5909 22.5H17.4091L17.7904 20.6697C18.05 20.5894 18.2993 20.4856 18.5357 20.3607L20.0998 21.3855L21.3855 20.0998L20.3607 18.5357C20.4856 18.2993 20.5894 18.05 20.6697 17.7904L22.5 17.4091V15.5909L20.6697 15.2096C20.5894 14.95 20.4856 14.7007 20.3607 14.4643L21.3855 12.9002L20.0998 11.6145L18.5357 12.6393Z" fill="var(--mw-icon-background-default-medium-gray, #D9D9D9)" stroke="var(--mw-icon-border-default-gray, #616161)" stroke-linejoin="round"/>
<path d="M19 16.5C19 17.8807 17.8807 19 16.5 19C15.1193 19 14 17.8807 14 16.5C14 15.1193 15.1193 14 16.5 14C17.8807 14 19 15.1193 19 16.5Z" fill="var(--mw-icon-background-default-dark-gray, #A6A6A6)"/>
<path d="M18 16.5C18 17.3284 17.3284 18 16.5 18C15.6716 18 15 17.3284 15 16.5C15 15.6716 15.6716 15 16.5 15C17.3284 15 18 15.6716 18 16.5Z" fill="var(--mw-icon-glyph-content-gray, #616162)"/>
</svg>
