<svg width="24" height="24" viewBox="0 0 24 24" fill="none" xmlns="http://www.w3.org/2000/svg">
<path d="M1.5 0.5H17.5C18.0523 0.5 18.5 0.947716 18.5 1.5V17.5C18.5 18.0523 18.0523 18.5 17.5 18.5H1.5C0.947716 18.5 0.5 18.0523 0.5 17.5V1.5C0.5 0.947715 0.947716 0.5 1.5 0.5Z" fill="var(--mw-icon-background-default-white, #FFFFFF)" stroke="var(--mw-icon-border-default-gray, #616161)" stroke-linecap="round"/>
<path fill-rule="evenodd" clip-rule="evenodd" d="M19 5.77431C18.2968 5.23882 17.6316 5 17 5C16.2459 5 15.4438 5.3405 14.5863 6.11997C13.7262 6.90191 12.8409 8.0996 11.9381 9.74096C11.0075 11.4329 10.0595 12.7352 9.08634 13.62C8.11042 14.5072 7.0792 15 6 15C4.9208 15 3.88958 14.5072 2.91366 13.62C1.94047 12.7352 0.992477 11.4329 0.0618916 9.74096C-0.0711861 9.499 0.0170803 9.19497 0.259041 9.06189C0.501001 8.92881 0.805029 9.01708 0.938108 9.25904C1.84086 10.9004 2.7262 12.0981 3.58634 12.88C4.44375 13.6595 5.24587 14 6 14C6.75413 14 7.55624 13.6595 8.41366 12.88C9.2738 12.0981 10.1591 10.9004 11.0619 9.25904C11.9925 7.56707 12.9405 6.26476 13.9137 5.38003C14.8896 4.49283 15.9208 4 17 4C17.6867 4 18.354 4.19955 19 4.57329V5.77431Z" fill="#0072BD"/>
<path fill-rule="evenodd" clip-rule="evenodd" d="M-9.34601e-05 13.2257C0.703094 13.7612 1.36833 14 1.99991 14C2.75404 14 3.55615 13.6595 4.41357 12.88C5.2737 12.0981 6.15905 10.9004 7.0618 9.25904C7.99238 7.56707 8.94037 6.26476 9.91357 5.38003C10.8895 4.49283 11.9207 4 12.9999 4C14.0791 4 15.1103 4.49283 16.0862 5.38003C17.0594 6.26476 18.0074 7.56707 18.938 9.25904C19.0711 9.501 18.9828 9.80503 18.7409 9.93811C18.4989 10.0712 18.1949 9.98292 18.0618 9.74096C17.1591 8.0996 16.2737 6.90191 15.4136 6.11997C14.5562 5.3405 13.754 5 12.9999 5C12.2458 5 11.4437 5.3405 10.5862 6.11997C9.72611 6.90191 8.84076 8.0996 7.93801 9.74096C7.00743 11.4329 6.05944 12.7352 5.08624 13.62C4.11033 14.5072 3.07911 15 1.99991 15C1.31318 15 0.645887 14.8004 -9.34601e-05 14.4267V13.2257Z" fill="#D95319"/>
<path d="M1.5 0.5H17.5C18.0523 0.5 18.5 0.947716 18.5 1.5V17.5C18.5 18.0523 18.0523 18.5 17.5 18.5H1.5C0.947716 18.5 0.5 18.0523 0.5 17.5V1.5C0.5 0.947715 0.947716 0.5 1.5 0.5Z" stroke="var(--mw-icon-border-default-gray, #616161)" stroke-linecap="round"/>
<path fill-rule="evenodd" clip-rule="evenodd" d="M19.5357 13.6393C19.2993 13.5144 19.05 13.4106 18.7904 13.3303L18.4091 11.5H16.5909L16.2096 13.3303C15.95 13.4106 15.7007 13.5144 15.4643 13.6393L13.9002 12.6145L12.6145 13.9002L13.6393 15.4643C13.5144 15.7007 13.4106 15.95 13.3303 16.2096L11.5 16.5909V18.4091L13.3303 18.7904C13.4106 19.05 13.5144 19.2993 13.6393 19.5357L12.6145 21.0998L13.9002 22.3855L15.4643 21.3607C15.7007 21.4856 15.95 21.5894 16.2096 21.6697L16.5909 23.5H18.4091L18.7904 21.6697C19.05 21.5894 19.2993 21.4856 19.5357 21.3607L21.0998 22.3855L22.3855 21.0998L21.3607 19.5357C21.4856 19.2993 21.5894 19.05 21.6697 18.7904L23.5 18.4091V16.5909L21.6697 16.2096C21.5894 15.95 21.4856 15.7007 21.3607 15.4643L22.3855 13.9002L21.0998 12.6145L19.5357 13.6393Z" fill="var(--mw-icon-background-default-medium-gray, #D9D9D9)" stroke="var(--mw-icon-border-default-gray, #616161)" stroke-linejoin="round"/>
<path d="M20 17.5C20 18.8807 18.8807 20 17.5 20C16.1193 20 15 18.8807 15 17.5C15 16.1193 16.1193 15 17.5 15C18.8807 15 20 16.1193 20 17.5Z" fill="var(--mw-icon-background-default-dark-gray, #A6A6A6)"/>
<path d="M19 17.5C19 18.3284 18.3284 19 17.5 19C16.6716 19 16 18.3284 16 17.5C16 16.6716 16.6716 16 17.5 16C18.3284 16 19 16.6716 19 17.5Z" fill="var(--mw-icon-glyph-content-gray, #616162)"/>
</svg>
