<svg width="24" height="24" viewBox="0 0 24 24" fill="none" xmlns="http://www.w3.org/2000/svg">
<rect x="2.5" y="2.5" width="16" height="16" rx="2" fill="var(--mw-icon-background-default-medium-gray, #D9D9D9)" stroke="var(--mw-icon-border-default-gray, #616161)"/>
<rect x="0.5" y="0.5" width="16" height="16" rx="2" fill="var(--mw-icon-background-default-white, #FFFFFF)"/>
<path d="M6.5001 16.5C6.1001 16.5 4.8001 16 3.6001 15.1948C2.82987 14.594 2.26255 13.9434 2.39999 13.243C2.53412 12.5593 2.99694 12.1511 3.6001 11.8513M7.6001 9.69754C7.36205 10.1665 6.96998 10.4902 6.50433 10.7398M7.6001 9.69754L10.0001 12M7.6001 9.69754C8.25406 8.40912 8.31404 7.12088 8.75113 6.15152M3.6001 11.8513L2 9M3.6001 11.8513C4.00964 11.6478 4.48387 11.4943 4.96383 11.3386M4.96383 11.3386L7.0001 14M4.96383 11.3386C5.49724 11.1656 6.03772 10.9899 6.50433 10.7398M6.50433 10.7398L4.96383 8M8.75113 6.15152C9.1161 5.34211 9.74398 4.75502 11.2001 4.57578C11.3363 4.55902 12.4001 4.58056 12.0001 4.57576M8.75113 6.15152L7.0001 4M10.0001 4.88367L11.0001 8M12.0001 4.57576V2M12.0001 4.57576C12.9969 4.54188 13.6372 4.93886 14.4001 5.36364M14.4001 5.36364L14 8M14.4001 5.36364C15.7216 6.09946 16.5001 6.5 16.5001 6.5" stroke="var(--mw-icon-glyph-content-gray, #616162)" stroke-linecap="round" stroke-linejoin="round"/>
<path d="M9 16C9 15.4477 9.44772 15 10 15C10.5523 15 11 15.4477 11 16C11 16.5523 10.5523 17 10 17C9.44772 17 9 16.5523 9 16Z" fill="#1171BE"/>
<path d="M6 14C6 13.4477 6.44772 13 7 13C7.55228 13 8 13.4477 8 14C8 14.5523 7.55228 15 7 15C6.44772 15 6 14.5523 6 14Z" fill="#1171BE"/>
<path d="M9 12C9 11.4477 9.44772 11 10 11C10.5523 11 11 11.4477 11 12C11 12.5523 10.5523 13 10 13C9.44772 13 9 12.5523 9 12Z" fill="#1171BE"/>
<path d="M12 14C12 13.4477 12.4477 13 13 13C13.5523 13 14 13.4477 14 14C14 14.5523 13.5523 15 13 15C12.4477 15 12 14.5523 12 14Z" fill="#1171BE"/>
<path d="M13 11C13 10.4477 13.4477 10 14 10C14.5523 10 15 10.4477 15 11C15 11.5523 14.5523 12 14 12C13.4477 12 13 11.5523 13 11Z" fill="#1171BE"/>
<path d="M14 16C14 15.4477 14.4477 15 15 15C15.5523 15 16 15.4477 16 16C16 16.5523 15.5523 17 15 17C14.4477 17 14 16.5523 14 16Z" fill="#1171BE"/>
<path d="M10 8C10 7.44772 10.4477 7 11 7C11.5523 7 12 7.44772 12 8C12 8.55228 11.5523 9 11 9C10.4477 9 10 8.55228 10 8Z" fill="#1171BE"/>
<path d="M13 8C13 7.44772 13.4477 7 14 7C14.5523 7 15 7.44772 15 8C15 8.55228 14.5523 9 14 9C13.4477 9 13 8.55228 13 8Z" fill="#1171BE"/>
<path d="M2 3C2 2.44772 2.44772 2 3 2C3.55228 2 4 2.44772 4 3C4 3.55228 3.55228 4 3 4C2.44772 4 2 3.55228 2 3Z" fill="#DD5400"/>
<path d="M2 6C2 5.44772 2.44772 5 3 5C3.55228 5 4 5.44772 4 6C4 6.55228 3.55228 7 3 7C2.44772 7 2 6.55228 2 6Z" fill="#DD5400"/>
<path d="M4 8C4 7.44772 4.44772 7 5 7C5.55228 7 6 7.44772 6 8C6 8.55228 5.55228 9 5 9C4.44772 9 4 8.55228 4 8Z" fill="#DD5400"/>
<path d="M1 9C1 8.44772 1.44772 8 2 8C2.55228 8 3 8.44772 3 9C3 9.55228 2.55228 10 2 10C1.44772 10 1 9.55228 1 9Z" fill="#DD5400"/>
<path d="M5 1C5 0.447715 5.44772 0 6 0C6.55228 0 7 0.447715 7 1C7 1.55228 6.55228 2 6 2C5.44772 2 5 1.55228 5 1Z" fill="#DD5400"/>
<path d="M6 4C6 3.44772 6.44772 3 7 3C7.55228 3 8 3.44772 8 4C8 4.55228 7.55228 5 7 5C6.44772 5 6 4.55228 6 4Z" fill="#DD5400"/>
<path d="M11 2C11 1.44772 11.4477 1 12 1C12.5523 1 13 1.44772 13 2C13 2.55228 12.5523 3 12 3C11.4477 3 11 2.55228 11 2Z" fill="#DD5400"/>
<path d="M14 3C14 2.44772 14.4477 2 15 2C15.5523 2 16 2.44772 16 3C16 3.55228 15.5523 4 15 4C14.4477 4 14 3.55228 14 3Z" fill="#DD5400"/>
<rect x="0.5" y="0.5" width="16" height="16" rx="2" stroke="var(--mw-icon-border-default-gray, #616161)"/>
<path fill-rule="evenodd" clip-rule="evenodd" d="M19.5357 13.6393C19.2993 13.5144 19.05 13.4106 18.7904 13.3303L18.4091 11.5H16.5909L16.2096 13.3303C15.95 13.4106 15.7007 13.5144 15.4643 13.6393L13.9002 12.6145L12.6145 13.9002L13.6393 15.4643C13.5144 15.7007 13.4106 15.95 13.3303 16.2096L11.5 16.5909V18.4091L13.3303 18.7904C13.4106 19.05 13.5144 19.2993 13.6393 19.5357L12.6145 21.0998L13.9002 22.3855L15.4643 21.3607C15.7007 21.4856 15.95 21.5894 16.2096 21.6697L16.5909 23.5H18.4091L18.7904 21.6697C19.05 21.5894 19.2993 21.4856 19.5357 21.3607L21.0998 22.3855L22.3855 21.0998L21.3607 19.5357C21.4856 19.2993 21.5894 19.05 21.6697 18.7904L23.5 18.4091V16.5909L21.6697 16.2096C21.5894 15.95 21.4856 15.7007 21.3607 15.4643L22.3855 13.9002L21.0998 12.6145L19.5357 13.6393Z" fill="var(--mw-icon-background-default-medium-gray, #D9D9D9)" stroke="var(--mw-icon-border-default-gray, #616161)" stroke-linejoin="round"/>
<path d="M20 17.5C20 18.8807 18.8807 20 17.5 20C16.1193 20 15 18.8807 15 17.5C15 16.1193 16.1193 15 17.5 15C18.8807 15 20 16.1193 20 17.5Z" fill="var(--mw-icon-background-default-dark-gray, #A6A6A6)"/>
<path d="M19 17.5C19 18.3284 18.3284 19 17.5 19C16.6716 19 16 18.3284 16 17.5C16 16.6716 16.6716 16 17.5 16C18.3284 16 19 16.6716 19 17.5Z" fill="var(--mw-icon-glyph-content-gray, #616162)"/>
</svg>
