<svg width="24" height="24" viewBox="0 0 24 24" fill="none" xmlns="http://www.w3.org/2000/svg">
<rect x="0.5" y="0.5" width="22" height="22" rx="2" fill="var(--mw-icon-background-default-white, #FFFFFF)"/>
<rect x="13" y="1" width="9" height="21" fill="var(--mw-icon-background-medium-yellow, #FFEF91)"/>
<rect x="12" y="1" width="1" height="21" fill="var(--mw-icon-glyph-content-yellow, #674C07)"/>
<rect x="0.5" y="0.5" width="22" height="22" rx="2" stroke="var(--mw-icon-border-default-gray, #616161)"/>
<path d="M16.5 3.5L17.5 4.5M17.5 4.5L18.5 5.5M17.5 4.5L18.5 3.5M17.5 4.5L16.5 5.5" stroke="#1171BE" stroke-linecap="round"/>
<path d="M5.5 9.5L6.5 10.5M6.5 10.5L7.5 11.5M6.5 10.5L7.5 9.5M6.5 10.5L5.5 11.5" stroke="#1171BE" stroke-linecap="round"/>
<path d="M16.5 16.5L17.5 17.5M17.5 17.5L18.5 18.5M17.5 17.5L18.5 16.5M17.5 17.5L16.5 18.5" stroke="#1171BE" stroke-linecap="round"/>
</svg>
