<svg width="24" height="24" viewBox="0 0 24 24" fill="none" xmlns="http://www.w3.org/2000/svg">
<path d="M1.5 1.5C1.5 0.947715 1.94772 0.5 2.5 0.5H16.5C17.0523 0.5 17.5 0.947715 17.5 1.5V16.5C17.5 17.0523 17.0523 17.5 16.5 17.5H2.5C1.94772 17.5 1.5 17.0523 1.5 16.5V1.5Z" fill="var(--mw-icon-background-default-medium-gray, #D9D9D9)" stroke="var(--mw-icon-border-disabled-gray, #888888)"/>
<path d="M9.5 1V3M9.5 5V8M9.5 10V13M9.5 15V17" stroke="var(--mw-icon-glyph-disabled-gray, #888889)"/>
<path d="M3.5 3L3.5 14C3.5 14.2761 3.72386 14.5 4 14.5H7C7.27614 14.5 7.5 14.2761 7.5 14L7.5 3C7.5 2.72386 7.27614 2.5 7 2.5L4 2.5C3.72386 2.5 3.5 2.72386 3.5 3Z" fill="var(--mw-icon-background-default-light-gray, #F5F5F5)"/>
<path d="M11.5 3L11.5 14C11.5 14.2761 11.7239 14.5 12 14.5H15C15.2761 14.5 15.5 14.2761 15.5 14L15.5 3C15.5 2.72386 15.2761 2.5 15 2.5L12 2.5C11.7239 2.5 11.5 2.72386 11.5 3Z" fill="var(--mw-icon-background-default-light-gray, #F5F5F5)"/>
<path d="M3.5 3L4 3L3.5 3ZM3.5 14H3H3.5ZM4 14.5L4 15H4V14.5ZM7 14.5V14V14.5ZM7.5 14H8H7.5ZM7.5 3L7 3L7.5 3ZM7 2.5V3V2.5ZM4 2.5L4 2L4 2.5ZM4.5 6H4V7H4.5V6ZM6.5 7H7V6H6.5V7ZM4.5 10H4V11H4.5V10ZM6.5 11H7V10H6.5V11ZM11.5 3L11 3L11.5 3ZM11.5 14H12H11.5ZM12 14.5V15V14.5ZM15 14.5V14V14.5ZM15.5 14H16H15.5ZM15.5 3L15 3L15.5 3ZM15 2.5V3V2.5ZM12 2.5V2V2.5ZM12.5 6H12V7H12.5V6ZM14.5 7H15V6H14.5V7ZM12.5 10H12V11H12.5V10ZM14.5 11H15V10H14.5V11ZM3 3L3 14H4L4 3L3 3ZM3 14C3 14.5523 3.44771 15 4 15L4 14H4H3ZM4 15H7V14H4V15ZM7 15C7.55228 15 8 14.5523 8 14H7V15ZM8 14L8 3L7 3L7 14H8ZM8 3C8 2.44772 7.55228 2 7 2V3H7L8 3ZM7 2L4 2L4 3L7 3V2ZM4 2C3.44772 2 3 2.44772 3 3L4 3H4L4 2ZM4.5 7H6.5V6H4.5V7ZM4.5 11H6.5V10H4.5V11ZM11 3L11 14H12L12 3L11 3ZM11 14C11 14.5523 11.4477 15 12 15V14H11ZM12 15H15V14H12V15ZM15 15C15.5523 15 16 14.5523 16 14H15V15ZM16 14L16 3L15 3L15 14H16ZM16 3C16 2.44772 15.5523 2 15 2V3H15L16 3ZM15 2L12 2V3L15 3V2ZM12 2C11.4477 2 11 2.44772 11 3L12 3V2ZM12.5 7H14.5V6H12.5V7ZM12.5 11H14.5V10H12.5V11Z" fill="var(--mw-icon-glyph-disabled-gray, #888889)"/>
<path fill-rule="evenodd" clip-rule="evenodd" d="M19.5357 13.6393C19.2993 13.5144 19.05 13.4106 18.7904 13.3303L18.4091 11.5H16.5909L16.2096 13.3303C15.95 13.4106 15.7007 13.5144 15.4643 13.6393L13.9002 12.6145L12.6145 13.9002L13.6393 15.4643C13.5144 15.7007 13.4106 15.95 13.3303 16.2096L11.5 16.5909V18.4091L13.3303 18.7904C13.4106 19.05 13.5144 19.2993 13.6393 19.5357L12.6145 21.0998L13.9002 22.3855L15.4643 21.3607C15.7007 21.4856 15.95 21.5894 16.2096 21.6697L16.5909 23.5H18.4091L18.7904 21.6697C19.05 21.5894 19.2993 21.4856 19.5357 21.3607L21.0998 22.3855L22.3855 21.0998L21.3607 19.5357C21.4856 19.2993 21.5894 19.05 21.6697 18.7904L23.5 18.4091V16.5909L21.6697 16.2096C21.5894 15.95 21.4856 15.7007 21.3607 15.4643L22.3855 13.9002L21.0998 12.6145L19.5357 13.6393Z" fill="var(--mw-icon-background-default-medium-gray, #D9D9D9)" stroke="var(--mw-icon-border-default-gray, #616161)" stroke-linejoin="round"/>
<path d="M20 17.5C20 18.8807 18.8807 20 17.5 20C16.1193 20 15 18.8807 15 17.5C15 16.1193 16.1193 15 17.5 15C18.8807 15 20 16.1193 20 17.5Z" fill="var(--mw-icon-background-default-dark-gray, #A6A6A6)"/>
<path d="M19 17.5C19 18.3284 18.3284 19 17.5 19C16.6716 19 16 18.3284 16 17.5C16 16.6716 16.6716 16 17.5 16C18.3284 16 19 16.6716 19 17.5Z" fill="var(--mw-icon-glyph-content-gray, #616162)"/>
</svg>
