<svg width="24" height="24" viewBox="0 0 24 24" fill="none" xmlns="http://www.w3.org/2000/svg">
<path d="M0.395874 16.5V2.5C0.395874 1.39543 1.29131 0.5 2.39587 0.5H16.5C17.6046 0.5 18.5 1.39543 18.5 2.5V16.5C18.5 17.6046 17.6046 18.5 16.5 18.5H2.39587C1.2913 18.5 0.395874 17.6046 0.395874 16.5Z" fill="var(--mw-icon-background-default-white, #FFFFFF)"/>
<path d="M18 12.5H11.5V14.5H8.5V16.5H1" stroke="var(--mw-icon-glyph-content-light-blue, #278CDD)" stroke-linejoin="round"/>
<path d="M12.5 3.5H5.5M12.5 3.5L13.5 8.5M12.5 3.5L7.5 7.5M5.5 3.5L3.5 8.5M5.5 3.5L7.5 7.5M3.5 8.5L8.5 11.5M3.5 8.5L7.5 7.5M8.5 11.5L13.5 8.5M8.5 11.5L7.5 7.5M13.5 8.5L7.5 7.5" stroke="#FF453A"/>
<path d="M4 3C4 2.44772 4.44772 2 5 2H6C6.55228 2 7 2.44772 7 3V4C7 4.55228 6.55228 5 6 5H5C4.44772 5 4 4.55228 4 4V3Z" fill="var(--mw-icon-glyph-content-blue, #1656A8)"/>
<path d="M11 3C11 2.44772 11.4477 2 12 2H13C13.5523 2 14 2.44772 14 3V4C14 4.55228 13.5523 5 13 5H12C11.4477 5 11 4.55228 11 4V3Z" fill="var(--mw-icon-glyph-content-blue, #1656A8)"/>
<path d="M12 8C12 7.44772 12.4477 7 13 7H14C14.5523 7 15 7.44772 15 8V9C15 9.55228 14.5523 10 14 10H13C12.4477 10 12 9.55228 12 9V8Z" fill="var(--mw-icon-glyph-content-blue, #1656A8)"/>
<path d="M7 11C7 10.4477 7.44772 10 8 10H9C9.55228 10 10 10.4477 10 11V12C10 12.5523 9.55228 13 9 13H8C7.44772 13 7 12.5523 7 12V11Z" fill="var(--mw-icon-glyph-content-blue, #1656A8)"/>
<path d="M2 8C2 7.44772 2.44772 7 3 7H4C4.55228 7 5 7.44772 5 8V9C5 9.55228 4.55228 10 4 10H3C2.44772 10 2 9.55228 2 9V8Z" fill="var(--mw-icon-glyph-content-blue, #1656A8)"/>
<path d="M6 7C6 6.44772 6.44772 6 7 6H8C8.55228 6 9 6.44772 9 7V8C9 8.55228 8.55228 9 8 9H7C6.44772 9 6 8.55228 6 8V7Z" fill="var(--mw-icon-glyph-content-blue, #1656A8)"/>
<path d="M0.5 16.5V2.5C0.5 1.39543 1.39543 0.5 2.5 0.5H16.5C17.6046 0.5 18.5 1.39543 18.5 2.5V16.5C18.5 17.6046 17.6046 18.5 16.5 18.5H2.5C1.39543 18.5 0.5 17.6046 0.5 16.5Z" stroke="#B7312C" stroke-linecap="round"/>
<path fill-rule="evenodd" clip-rule="evenodd" d="M19.5357 13.6393C19.2993 13.5144 19.05 13.4106 18.7904 13.3303L18.4091 11.5H16.5909L16.2096 13.3303C15.95 13.4106 15.7007 13.5144 15.4643 13.6393L13.9002 12.6145L12.6145 13.9002L13.6393 15.4643C13.5144 15.7007 13.4106 15.95 13.3303 16.2096L11.5 16.5909V18.4091L13.3303 18.7904C13.4106 19.05 13.5144 19.2993 13.6393 19.5357L12.6145 21.0998L13.9002 22.3855L15.4643 21.3607C15.7007 21.4856 15.95 21.5894 16.2096 21.6697L16.5909 23.5H18.4091L18.7904 21.6697C19.05 21.5894 19.2993 21.4856 19.5357 21.3607L21.0998 22.3855L22.3855 21.0998L21.3607 19.5357C21.4856 19.2993 21.5894 19.05 21.6697 18.7904L23.5 18.4091V16.5909L21.6697 16.2096C21.5894 15.95 21.4856 15.7007 21.3607 15.4643L22.3855 13.9002L21.0998 12.6145L19.5357 13.6393Z" fill="var(--mw-icon-background-default-medium-gray, #D9D9D9)" stroke="var(--mw-icon-border-default-gray, #616161)" stroke-linejoin="round"/>
<path d="M20 17.5C20 18.8807 18.8807 20 17.5 20C16.1193 20 15 18.8807 15 17.5C15 16.1193 16.1193 15 17.5 15C18.8807 15 20 16.1193 20 17.5Z" fill="var(--mw-icon-background-default-dark-gray, #A6A6A6)"/>
<path d="M19 17.5C19 18.3284 18.3284 19 17.5 19C16.6716 19 16 18.3284 16 17.5C16 16.6716 16.6716 16 17.5 16C18.3284 16 19 16.6716 19 17.5Z" fill="var(--mw-icon-glyph-content-gray, #616162)"/>
</svg>
