<svg width="24" height="24" viewBox="0 0 24 24" fill="none" xmlns="http://www.w3.org/2000/svg">
<rect x="3.5" y="3.5" width="15" height="15" rx="2" fill="var(--mw-icon-background-default-medium-gray, #D9D9D9)" stroke="var(--mw-icon-border-default-gray, #616161)"/>
<rect x="1.5" y="1.5" width="15" height="15" rx="2" fill="var(--mw-icon-background-default-white, #FFFFFF)"/>
<path d="M9 3.375C9 2.85723 9.41973 2.4375 9.9375 2.4375C10.4553 2.4375 10.875 2.85723 10.875 3.375C10.875 3.89277 10.4553 4.3125 9.9375 4.3125C9.41973 4.3125 9 3.89277 9 3.375Z" fill="white"/>
<path d="M5.25 6.1875C5.25 5.66973 5.66973 5.25 6.1875 5.25C6.70527 5.25 7.125 5.66973 7.125 6.1875C7.125 6.70527 6.70527 7.125 6.1875 7.125C5.66973 7.125 5.25 6.70527 5.25 6.1875Z" fill="white"/>
<path d="M2.4375 3.375C2.4375 2.85723 2.85723 2.4375 3.375 2.4375C3.89277 2.4375 4.3125 2.85723 4.3125 3.375C4.3125 3.89277 3.89277 4.3125 3.375 4.3125C2.85723 4.3125 2.4375 3.89277 2.4375 3.375Z" fill="white"/>
<path d="M9 3.375C9 2.85723 9.41973 2.4375 9.9375 2.4375C10.4553 2.4375 10.875 2.85723 10.875 3.375C10.875 3.89277 10.4553 4.3125 9.9375 4.3125C9.41973 4.3125 9 3.89277 9 3.375Z" stroke="#DD5400"/>
<path d="M5.25 6.1875C5.25 5.66973 5.66973 5.25 6.1875 5.25C6.70527 5.25 7.125 5.66973 7.125 6.1875C7.125 6.70527 6.70527 7.125 6.1875 7.125C5.66973 7.125 5.25 6.70527 5.25 6.1875Z" stroke="#DD5400"/>
<path d="M2.4375 3.375C2.4375 2.85723 2.85723 2.4375 3.375 2.4375C3.89277 2.4375 4.3125 2.85723 4.3125 3.375C4.3125 3.89277 3.89277 4.3125 3.375 4.3125C2.85723 4.3125 2.4375 3.89277 2.4375 3.375Z" stroke="#DD5400"/>
<path d="M10.875 9.9375C10.875 9.41973 11.2947 9 11.8125 9C12.3303 9 12.75 9.41973 12.75 9.9375C12.75 10.4553 12.3303 10.875 11.8125 10.875C11.2947 10.875 10.875 10.4553 10.875 9.9375Z" fill="white"/>
<path d="M12.2812 13.6875C12.2812 13.1697 12.701 12.75 13.2188 12.75C13.7365 12.75 14.1562 13.1697 14.1562 13.6875C14.1562 14.2053 13.7365 14.625 13.2188 14.625C12.701 14.625 12.2812 14.2053 12.2812 13.6875Z" fill="white"/>
<path d="M8.0625 13.6875C8.0625 13.1697 8.48223 12.75 9 12.75C9.51777 12.75 9.9375 13.1697 9.9375 13.6875C9.9375 14.2053 9.51777 14.625 9 14.625C8.48223 14.625 8.0625 14.2053 8.0625 13.6875Z" fill="white"/>
<path d="M4.3125 14.625C4.3125 14.1072 4.73223 13.6875 5.25 13.6875C5.76777 13.6875 6.1875 14.1072 6.1875 14.625C6.1875 15.1428 5.76777 15.5625 5.25 15.5625C4.73223 15.5625 4.3125 15.1428 4.3125 14.625Z" fill="white"/>
<path d="M10.875 9.9375C10.875 9.41973 11.2947 9 11.8125 9C12.3303 9 12.75 9.41973 12.75 9.9375C12.75 10.4553 12.3303 10.875 11.8125 10.875C11.2947 10.875 10.875 10.4553 10.875 9.9375Z" stroke="#1171BE"/>
<path d="M12.2812 13.6875C12.2812 13.1697 12.701 12.75 13.2188 12.75C13.7365 12.75 14.1562 13.1697 14.1562 13.6875C14.1562 14.2053 13.7365 14.625 13.2188 14.625C12.701 14.625 12.2812 14.2053 12.2812 13.6875Z" stroke="#1171BE"/>
<path d="M8.0625 13.6875C8.0625 13.1697 8.48223 12.75 9 12.75C9.51777 12.75 9.9375 13.1697 9.9375 13.6875C9.9375 14.2053 9.51777 14.625 9 14.625C8.48223 14.625 8.0625 14.2053 8.0625 13.6875Z" stroke="#1171BE"/>
<path d="M4.3125 14.625C4.3125 14.1072 4.73223 13.6875 5.25 13.6875C5.76777 13.6875 6.1875 14.1072 6.1875 14.625C6.1875 15.1428 5.76777 15.5625 5.25 15.5625C4.73223 15.5625 4.3125 15.1428 4.3125 14.625Z" stroke="#1171BE"/>
<path d="M1.5 11.8125L16.5 5.25" stroke="var(--mw-icon-glyph-content-gray, #616162)" stroke-linecap="round" stroke-linejoin="round"/>
<path d="M1.5 13.6875L16.5 7.125M1.5 9.9375L16.5 3.375" stroke="var(--mw-icon-glyph-content-gray, #616162)" stroke-linecap="round" stroke-linejoin="round" stroke-dasharray="2 3"/>
<rect x="1.5" y="1.5" width="15" height="15" rx="2" stroke="var(--mw-icon-border-default-gray, #616161)"/>
<path fill-rule="evenodd" clip-rule="evenodd" d="M19.5357 13.6393C19.2993 13.5144 19.05 13.4106 18.7904 13.3303L18.4091 11.5H16.5909L16.2096 13.3303C15.95 13.4106 15.7007 13.5144 15.4643 13.6393L13.9002 12.6145L12.6145 13.9002L13.6393 15.4643C13.5144 15.7007 13.4106 15.95 13.3303 16.2096L11.5 16.5909V18.4091L13.3303 18.7904C13.4106 19.05 13.5144 19.2993 13.6393 19.5357L12.6145 21.0998L13.9002 22.3855L15.4643 21.3607C15.7007 21.4856 15.95 21.5894 16.2096 21.6697L16.5909 23.5H18.4091L18.7904 21.6697C19.05 21.5894 19.2993 21.4856 19.5357 21.3607L21.0998 22.3855L22.3855 21.0998L21.3607 19.5357C21.4856 19.2993 21.5894 19.05 21.6697 18.7904L23.5 18.4091V16.5909L21.6697 16.2096C21.5894 15.95 21.4856 15.7007 21.3607 15.4643L22.3855 13.9002L21.0998 12.6145L19.5357 13.6393Z" fill="var(--mw-icon-background-default-medium-gray, #D9D9D9)" stroke="var(--mw-icon-border-default-gray, #616161)" stroke-linejoin="round"/>
<path d="M20 17.5C20 18.8807 18.8807 20 17.5 20C16.1193 20 15 18.8807 15 17.5C15 16.1193 16.1193 15 17.5 15C18.8807 15 20 16.1193 20 17.5Z" fill="var(--mw-icon-background-default-dark-gray, #A6A6A6)"/>
<path d="M19 17.5C19 18.3284 18.3284 19 17.5 19C16.6716 19 16 18.3284 16 17.5C16 16.6716 16.6716 16 17.5 16C18.3284 16 19 16.6716 19 17.5Z" fill="var(--mw-icon-glyph-content-gray, #616162)"/>
<circle cx="5.5" cy="5.5" r="5" fill="white" stroke="var(--mw-icon-border-default-gray, #616161)"/>
<path d="M3.02513 7.97487C3.43212 8.38187 3.93321 8.68221 4.484 8.84929C5.0348 9.01637 5.6183 9.04504 6.18282 8.93275C6.74733 8.82046 7.27545 8.57068 7.72038 8.20554C8.1653 7.84039 8.51331 7.37116 8.73358 6.83939C8.95384 6.30763 9.03956 5.72975 8.98315 5.15694C8.92673 4.58413 8.72992 4.03408 8.41014 3.5555C8.09037 3.07693 7.6575 2.6846 7.14989 2.41328C6.64227 2.14195 6.07558 2 5.5 2L5.5 5.5L3.02513 7.97487Z" fill="var(--mw-icon-background-default-selection, #B4DEFF)"/>
<path d="M5.5 2.5V5.49995L3.5 7.5" stroke="var(--mw-icon-glyph-content-gray, #616162)" stroke-linecap="square" stroke-linejoin="round"/>
</svg>
