<svg width="24" height="24" viewBox="0 0 24 24" fill="none" xmlns="http://www.w3.org/2000/svg">
<path d="M1.5 4.5H17.5V14.5C17.5 15.0523 17.0523 15.5 16.5 15.5H2.5C1.94772 15.5 1.5 15.0523 1.5 14.5V4.5Z" fill="var(--mw-icon-background-lightest-blue, #E2F0FF)" stroke="var(--mw-icon-border-default-blue, #1656A7)"/>
<path d="M7.5 6.49997H11.5" stroke="var(--mw-icon-glyph-content-dark-blue, #104280)" stroke-linecap="round"/>
<path d="M0.5 1C0.5 0.723858 0.723858 0.5 1 0.5H18C18.2761 0.5 18.5 0.723858 18.5 1V4.5H0.5V1Z" fill="var(--mw-icon-background-lightest-blue, #E2F0FF)"/>
<path d="M18.5 4.5V5C18.7761 5 19 4.77614 19 4.5H18.5ZM0.5 4.5H0C0 4.77614 0.223858 5 0.5 5L0.5 4.5ZM1 1H18V0H1V1ZM18 1V4.5H19V1H18ZM18.5 4H0.5V5H18.5V4ZM1 4.5V1H0V4.5H1ZM18 1H19C19 0.447715 18.5523 0 18 0V1ZM1 0C0.447715 0 0 0.447715 0 1H1V0Z" fill="var(--mw-icon-border-default-blue, #1656A7)"/>
<rect x="10.5" y="10.5" width="13" height="13" rx="2" fill="var(--mw-icon-background-default-white, #FFFFFF)" stroke="var(--mw-icon-border-default-gray, #616161)"/>
<path d="M19.9996 13.9999L13.9996 16.9999L19.9996 19.9999" stroke="var(--mw-icon-glyph-content-gray, #616162)" stroke-linejoin="round"/>
<path d="M22 14C22 15.1046 21.1046 16 20 16C18.8955 16 18 15.1046 18 14C18 12.8954 18.8955 12 20 12C21.1046 12 22 12.8954 22 14Z" fill="var(--mw-icon-glyph-content-gray, #616162)"/>
<path d="M21.9996 20C21.9996 21.1046 21.1042 22 19.9996 22C18.8951 22 17.9996 21.1046 17.9996 20C17.9996 18.8954 18.8951 18 19.9996 18C21.1042 18 21.9996 18.8954 21.9996 20Z" fill="var(--mw-icon-glyph-content-gray, #616162)"/>
<path d="M15.9996 17C15.9996 18.1046 15.1042 19 13.9996 19C12.8951 19 11.9996 18.1046 11.9996 17C11.9996 15.8954 12.8951 15 13.9996 15C15.1042 15 15.9996 15.8954 15.9996 17Z" fill="var(--mw-icon-glyph-content-gray, #616162)"/>
</svg>
