<svg width="24" height="24" viewBox="0 0 24 24" fill="none" xmlns="http://www.w3.org/2000/svg">
<path d="M0.5 2.5C0.5 1.39543 1.39543 0.5 2.5 0.5H21.5C22.6046 0.5 23.5 1.39543 23.5 2.5V21.5C23.5 22.6046 22.6046 23.5 21.5 23.5H2.5C1.39543 23.5 0.5 22.6046 0.5 21.5V2.5Z" fill="var(--mw-icon-background-default-white, #FFFFFF)" stroke="var(--mw-icon-glyph-content-gray, #616162)"/>
<path d="M18 5L6 12L18 19" stroke="var(--mw-icon-glyph-content-gray, #616162)" stroke-width="1.5" stroke-linejoin="round"/>
<path d="M9 12C9 13.6569 7.65685 15 6 15C4.34315 15 3 13.6569 3 12C3 10.3431 4.34315 9 6 9C7.65685 9 9 10.3431 9 12Z" fill="var(--mw-icon-glyph-content-gray, #616162)"/>
<path d="M21 5C21 6.65685 19.6569 8 18 8C16.3431 8 15 6.65685 15 5C15 3.34315 16.3431 2 18 2C19.6569 2 21 3.34315 21 5Z" fill="var(--mw-icon-glyph-content-gray, #616162)"/>
<path d="M21 19C21 20.6569 19.6569 22 18 22C16.3431 22 15 20.6569 15 19C15 17.3431 16.3431 16 18 16C19.6569 16 21 17.3431 21 19Z" fill="var(--mw-icon-glyph-content-gray, #616162)"/>
</svg>
