<svg width="24" height="24" viewBox="0 0 24 24" fill="none" xmlns="http://www.w3.org/2000/svg">
<path d="M3.103 4.1794L1.5 4.5V9H21.5V4.5L19.897 4.1794C17.6491 3.72981 15.4952 2.8971 13.5294 1.71765L11.5 0.5L9.47059 1.71765C7.50483 2.8971 5.35093 3.72981 3.103 4.1794Z" fill="var(--mw-icon-object-primary, #616160)"/>
<path d="M11.5 0.5L9.47059 1.71765C7.50483 2.8971 5.35093 3.72981 3.103 4.1794L1.5 4.5V12.635C1.5 14.1548 2.07164 15.6205 3.1578 16.6835C5.41728 18.8948 9.42003 22.5 11.5 22.5C13.58 22.5 17.5827 18.8948 19.8422 16.6835C20.9284 15.6205 21.5 14.1548 21.5 12.635V4.5L19.897 4.1794C17.6491 3.72981 15.4952 2.8971 13.5294 1.71765L11.5 0.5Z" stroke="var(--mw-icon-object-primary, #616160)" stroke-linejoin="round"/>
</svg>
