<svg width="24" height="24" viewBox="0 0 24 24" fill="none" xmlns="http://www.w3.org/2000/svg">
<path d="M1 22H22V11.5V1H1V11.5V22Z" fill="var(--mw-icon-background-default-white, #FFFFFF)"/>
<path d="M0.5 18.5C0.5 18.5 2.59722 13.5 5.5 13.5C10 13.5 10.5103 19.5 15.5 19.5C18 19.5 22.5 13.5 22.5 13.5" stroke="#0072BD" stroke-linejoin="round"/>
<path d="M7.5 12.5C7.5 12.5 10.5972 7.5 13.5 7.5C17.5 7.5 18.3868 13.1599 22.5 13.5" stroke="#0072BD" stroke-linejoin="round"/>
<path d="M22 4V5H11V4H22Z" fill="var(--mw-icon-glyph-content-gray, #616162)"/>
<path d="M11 7L8 4.5L11 2V7Z" fill="var(--mw-icon-glyph-content-gray, #616162)"/>
<path d="M7.5 1V22" stroke="var(--mw-icon-border-default-gray, #616161)"/>
<path d="M0.5 2.5C0.5 1.39543 1.39543 0.5 2.5 0.5H20.5C21.6046 0.5 22.5 1.39543 22.5 2.5V20.5C22.5 21.6046 21.6046 22.5 20.5 22.5H2.5C1.39543 22.5 0.5 21.6046 0.5 20.5V2.5Z" stroke="var(--mw-icon-border-default-gray, #616161)" stroke-linejoin="round"/>
</svg>
