<svg width="24" height="24" viewBox="0 0 24 24" fill="none" xmlns="http://www.w3.org/2000/svg">
<path d="M0.5 6.5C0.5 5.94772 0.947715 5.5 1.5 5.5H16.5C17.0523 5.5 17.5 5.94772 17.5 6.5V9.5V14.5V17.5C17.5 18.0523 17.0523 18.5 16.5 18.5H1.5C0.947715 18.5 0.5 18.0523 0.5 17.5V6.5Z" fill="var(--mw-icon-background-default-medium-gray, #D9D9D9)"/>
<path d="M21.5 6.5L17.5 9.5V14.5L21.5 17.5V6.5Z" fill="var(--mw-icon-background-default-medium-gray, #D9D9D9)"/>
<path d="M21.5 6.5V17.5H23.5V6.5H21.5Z" fill="var(--mw-icon-background-default-medium-gray, #D9D9D9)"/>
<path d="M17.5 9.5V6.5C17.5 5.94772 17.0523 5.5 16.5 5.5H1.5C0.947715 5.5 0.5 5.94772 0.5 6.5V17.5C0.5 18.0523 0.947715 18.5 1.5 18.5H16.5C17.0523 18.5 17.5 18.0523 17.5 17.5V14.5M17.5 9.5L21.5 6.5M17.5 9.5V14.5M21.5 6.5V17.5M21.5 6.5H23.5V17.5H21.5M21.5 17.5L17.5 14.5" stroke="var(--mw-icon-border-default-gray, #616161)" stroke-linejoin="round"/>
<path d="M12.5 9.5V7.5H14.5V9.5H12.5Z" fill="var(--mw-icon-background-default-action, #CBFFBE)"/>
<path d="M12.5 7.5V7C12.2239 7 12 7.22386 12 7.5H12.5ZM12.5 9.5H12C12 9.77614 12.2239 10 12.5 10V9.5ZM14.5 9.5V10C14.7761 10 15 9.77614 15 9.5H14.5ZM14.5 7.5H15C15 7.22386 14.7761 7 14.5 7V7.5ZM12 7.5V9.5H13V7.5H12ZM12.5 10H14.5V9H12.5V10ZM15 9.5V7.5H14V9.5H15ZM14.5 7H12.5V8H14.5V7Z" fill="var(--mw-icon-glyph-content-green, #008014)"/>
<path d="M2.5 11.5H14.5V16.5H2.5V11.5Z" fill="var(--mw-icon-background-default-white, #FFFFFF)"/>
<path d="M14.5 11.5H15C15 11.2239 14.7761 11 14.5 11V11.5ZM2.5 11.5V11C2.22386 11 2 11.2239 2 11.5H2.5ZM2.5 16.5H2C2 16.7761 2.22386 17 2.5 17V16.5ZM14.5 16.5V17C14.7761 17 15 16.7761 15 16.5H14.5ZM14.5 11H2.5V12H14.5V11ZM2 11.5V16.5H3V11.5H2ZM2.5 17H14.5V16H2.5V17ZM15 16.5V11.5H14V16.5H15Z" fill="var(--mw-icon-glyph-content-gray, #616162)"/>
</svg>
