<svg width="24" height="24" viewBox="0 0 24 24" fill="none" xmlns="http://www.w3.org/2000/svg">
<path d="M7.5 8.5C2.25 8.5 0.5 12.5996 0.5 16.4231V17.5C0.5 18.0523 0.947716 18.5 1.5 18.5H13.5C14.0523 18.5 14.5 18.0523 14.5 17.5V16.4231C14.5 12.5996 12.75 8.5 7.5 8.5Z" fill="var(--mw-icon-background-default-white, #FFFFFF)" stroke="var(--mw-icon-border-default-gray, #616161)"/>
<circle cx="7.5" cy="4.5" r="4" fill="white" stroke="var(--mw-icon-border-default-gray, #616161)"/>
<path d="M9.5 11.5C9.5 10.3954 10.3954 9.5 11.5 9.5H21.5C22.6046 9.5 23.5 10.3954 23.5 11.5V21.5C23.5 22.6046 22.6046 23.5 21.5 23.5H11.5C10.3954 23.5 9.5 22.6046 9.5 21.5V11.5Z" fill="white" stroke="var(--mw-icon-border-default-gray, #616161)"/>
<path d="M11 16.5001C11 15.6251 13.75 13 16.5 13C19.2496 13 21.9991 15.6242 22 16.4997C22 17.3751 19.2501 19.9998 16.5 19.9998C13.7505 19.9998 11.0009 17.376 11 16.5001Z" fill="var(--mw-icon-glyph-content-gray, #616162)"/>
<circle cx="16.5" cy="16.5" r="2.5" fill="white"/>
<circle cx="16.5" cy="16.5" r="1.5" fill="var(--mw-icon-glyph-content-gray, #616162)"/>
</svg>
