<svg width="24" height="24" viewBox="0 0 24 24" fill="none" xmlns="http://www.w3.org/2000/svg">
<rect x="0.395874" y="0.395844" width="18.2083" height="18.2083" rx="1" fill="var(--mw-icon-background-default-white, #FFFFFF)"/>
<path d="M2.5 18.5C2.5 6.25706 8.09523 3.5 18.5 3.5" stroke="#0072BD"/>
<rect x="0.5" y="0.5" width="18" height="18" rx="1" stroke="var(--mw-icon-border-default-gray, #616161)" stroke-linejoin="round"/>
<path d="M9.5 11.5C9.5 10.3954 10.3954 9.5 11.5 9.5H21.5C22.6046 9.5 23.5 10.3954 23.5 11.5V21.5C23.5 22.6046 22.6046 23.5 21.5 23.5H11.5C10.3954 23.5 9.5 22.6046 9.5 21.5V11.5Z" fill="white" stroke="var(--mw-icon-border-default-gray, #616161)"/>
<path d="M11 16.5001C11 15.6251 13.75 13 16.5 13C19.2496 13 21.9991 15.6242 22 16.4997C22 17.3751 19.2501 19.9998 16.5 19.9998C13.7505 19.9998 11.0009 17.376 11 16.5001Z" fill="var(--mw-icon-glyph-content-gray, #616162)"/>
<circle cx="16.5" cy="16.5" r="2.5" fill="white"/>
<circle cx="16.5" cy="16.5" r="1.5" fill="var(--mw-icon-glyph-content-gray, #616162)"/>
</svg>
