<svg width="24" height="24" viewBox="0 0 24 24" fill="none" xmlns="http://www.w3.org/2000/svg">
<path d="M3.5 3.5H18.5L18.5 17.4999C18.5 18.0522 18.0523 18.4999 17.5 18.4999L3.5 18.5V3.5Z" fill="var(--mw-icon-background-default-white, #FFFFFF)" stroke="var(--mw-icon-border-default-gray, #616161)"/>
<path d="M3.5 0.5H17.5C18.0523 0.5 18.5 0.947715 18.5 1.5L18.5 3.5H3.5V0.5Z" fill="var(--mw-icon-background-default-dark-gray, #A6A6A6)"/>
<path d="M1.5 18.5C0.947716 18.5 0.500001 18.0523 0.500001 17.5L0.5 1.50001C0.5 0.947729 0.947711 0.500017 1.49999 0.500013L3.5 0.5L3.5 18.5H1.5Z" fill="var(--mw-icon-background-default-dark-gray, #A6A6A6)"/>
<path d="M3.5 0.5H17.5C18.0523 0.5 18.5 0.947715 18.5 1.5L18.5 3.5H3.5V0.5ZM3.5 0.5L1.49999 0.500013C0.947711 0.500017 0.5 0.947729 0.5 1.50001L0.500001 17.5C0.500001 18.0523 0.947716 18.5 1.5 18.5H3.5L3.5 0.5Z" stroke="var(--mw-icon-border-default-gray, #616161)"/>
<path d="M4.5 8.5H17.5M8.50001 4.5L8.50001 17.5M13.5 4.5L13.5 17.5M4.5 13.5H17.5" stroke="var(--mw-icon-border-default-gray, #616161)" stroke-linecap="square" stroke-linejoin="round"/>
<path d="M8.5 3V1M13.5 3V1M3 3.5H1M3 8.5H1M3 13.5H1" stroke="var(--mw-icon-border-default-gray, #616161)"/>
<path d="M18.5 3.5V8.5H13.5H8.5H3.5H0.5V3.5H3.5H8.5H13.5H18.5Z" fill="var(--mw-icon-background-default-selection, #B4DEFF)"/>
<path d="M3.5 8.5H0.5V3.5H3.5M3.5 8.5V3.5M3.5 8.5H8.5M3.5 3.5H8.5M8.5 8.5V3.5M8.5 8.5H13.5M8.5 3.5H13.5M13.5 8.5H18.5V3.5H13.5M13.5 8.5V3.5" stroke="var(--mw-icon-border-default-blue, #1656A7)"/>
<path d="M8.5 10.5C8.5 9.39543 9.39543 8.5 10.5 8.5H20.5C21.6046 8.5 22.5 9.39543 22.5 10.5V20.5C22.5 21.6046 21.6046 22.5 20.5 22.5H10.5C9.39543 22.5 8.5 21.6046 8.5 20.5V10.5Z" fill="white" stroke="var(--mw-icon-border-default-gray, #616161)"/>
<path d="M10 15.5001C10 14.6251 12.75 12 15.5 12C18.2496 12 20.9991 14.6242 21 15.4997C21 16.3751 18.2501 18.9998 15.5 18.9998C12.7505 18.9998 10.0009 16.376 10 15.5001Z" fill="var(--mw-icon-glyph-content-gray, #616162)"/>
<path d="M18 15.5C18 16.8807 16.8807 18 15.5 18C14.1193 18 13 16.8807 13 15.5C13 14.1193 14.1193 13 15.5 13C16.8807 13 18 14.1193 18 15.5Z" fill="white"/>
<path d="M17 15.5C17 16.3284 16.3284 17 15.5 17C14.6716 17 14 16.3284 14 15.5C14 14.6716 14.6716 14 15.5 14C16.3284 14 17 14.6716 17 15.5Z" fill="var(--mw-icon-glyph-content-gray, #616162)"/>
</svg>
