<svg width="24" height="24" viewBox="0 0 24 24" fill="none" xmlns="http://www.w3.org/2000/svg">
<path d="M0.5 14.5V2.5C0.5 1.39543 1.39543 0.5 2.5 0.5H14.5C15.6046 0.5 16.5 1.39543 16.5 2.5V14.5C16.5 15.6046 15.6046 16.5 14.5 16.5H2.5C1.39543 16.5 0.5 15.6046 0.5 14.5Z" fill="var(--mw-icon-background-default-white, #FFFFFF)" stroke="var(--mw-icon-border-default-gray, #616161)"/>
<path d="M3.5 3.5H8.5M5.5 6.5H10.5M8.5 9.5H13.5M5.5 12.5H10.5" stroke="var(--mw-icon-glyph-content-gray, #616162)" stroke-linecap="round"/>
<path d="M9.5 11.5C9.5 10.3954 10.3954 9.5 11.5 9.5H21.5C22.6046 9.5 23.5 10.3954 23.5 11.5V21.5C23.5 22.6046 22.6046 23.5 21.5 23.5H11.5C10.3954 23.5 9.5 22.6046 9.5 21.5V11.5Z" fill="white" stroke="var(--mw-icon-border-default-gray, #616161)"/>
<path d="M11 16.5001C11 15.6251 13.75 13 16.5 13C19.2496 13 21.9991 15.6242 22 16.4997C22 17.3751 19.2501 19.9998 16.5 19.9998C13.7505 19.9998 11.0009 17.376 11 16.5001Z" fill="var(--mw-icon-glyph-content-gray, #616162)"/>
<circle cx="16.5" cy="16.5" r="2.5" fill="white"/>
<circle cx="16.5" cy="16.5" r="1.5" fill="var(--mw-icon-glyph-content-gray, #616162)"/>
</svg>
