<svg width="24" height="24" viewBox="0 0 24 24" fill="none" xmlns="http://www.w3.org/2000/svg">
<rect x="0.5" y="0.5" width="18" height="18" rx="2" fill="var(--mw-icon-background-default-white, #FFFFFF)" stroke="var(--mw-icon-border-default-gray, #616161)"/>
<rect x="3" y="3" width="2" height="2" fill="#1171BE"/>
<rect x="3" y="8" width="2" height="2" fill="#E11B14"/>
<rect x="3" y="13" width="2" height="2" fill="#EDB120"/>
<path d="M7.5 3.5H13.5" stroke="var(--mw-icon-glyph-content-mono, #616061)" stroke-linecap="round"/>
<path d="M7.5 8.5H15.5" stroke="var(--mw-icon-glyph-content-mono, #616061)" stroke-linecap="round"/>
<path d="M7.5 13.5H12.5" stroke="var(--mw-icon-glyph-content-mono, #616061)" stroke-linecap="round"/>
<path d="M9.5 11.5C9.5 10.3954 10.3954 9.5 11.5 9.5H21.5C22.6046 9.5 23.5 10.3954 23.5 11.5V21.5C23.5 22.6046 22.6046 23.5 21.5 23.5H11.5C10.3954 23.5 9.5 22.6046 9.5 21.5V11.5Z" fill="white" stroke="var(--mw-icon-border-default-gray, #616161)"/>
<path d="M11.0001 16.5001C11.0001 15.6251 13.7501 13 16.5001 13C19.2496 13 21.9992 15.6242 22.0001 16.4997C22.0001 17.3751 19.2501 19.9998 16.5001 19.9998C13.7505 19.9998 11.0009 17.376 11.0001 16.5001Z" fill="var(--mw-icon-glyph-content-gray, #616162)"/>
<circle cx="16.5001" cy="16.5" r="2.5" fill="white"/>
<circle cx="16.5001" cy="16.5" r="1.5" fill="var(--mw-icon-glyph-content-gray, #616162)"/>
</svg>
