<svg width="24" height="24" viewBox="0 0 24 24" fill="none" xmlns="http://www.w3.org/2000/svg">
<rect x="1" y="1" width="17" height="17" rx="0.5" fill="var(--mw-icon-background-default-white, #FFFFFF)"/>
<rect x="2" y="2" width="3" height="3" rx="0.5" fill="var(--mw-icon-background-medium-blue, #83CAFF)"/>
<rect x="2" y="6" width="3" height="3" rx="0.5" fill="#FFAB66"/>
<rect x="2" y="10" width="3" height="3" rx="0.5" fill="var(--mw-icon-background-default-action, #CBFFBE)"/>
<rect x="2" y="14" width="3" height="3" rx="0.5" fill="#E6BFFF"/>
<path d="M8 3.5H15M8 7.5H15M8 11.5H15M8 15.5H15" stroke="var(--mw-icon-glyph-content-gray, #616162)"/>
<path d="M0.5 2.5C0.5 1.39543 1.39543 0.5 2.5 0.5H16.5C17.6046 0.5 18.5 1.39543 18.5 2.5V16.5C18.5 17.6046 17.6046 18.5 16.5 18.5H2.5C1.39543 18.5 0.5 17.6046 0.5 16.5V11.5V2.5Z" stroke="var(--mw-icon-border-default-gray, #616161)"/>
<path d="M9.5 11.5C9.5 10.3954 10.3954 9.5 11.5 9.5H21.5C22.6046 9.5 23.5 10.3954 23.5 11.5V21.5C23.5 22.6046 22.6046 23.5 21.5 23.5H11.5C10.3954 23.5 9.5 22.6046 9.5 21.5V11.5Z" fill="white" stroke="var(--mw-icon-border-default-gray, #616161)" stroke-linejoin="round"/>
<path d="M19 15.5L22 13.5L19 11.5V15.5Z" fill="var(--mw-icon-glyph-content-gray, #616162)"/>
<path d="M19 22.5L22 20.5L19 18.5V22.5Z" fill="var(--mw-icon-glyph-content-gray, #616162)"/>
<path d="M11 20.5C12.8508 20.5 14.5254 19.4026 15.2642 17.7057L16.3349 15.2464C16.7966 14.1859 17.8433 13.5 19 13.5M11 13.5C12.8508 13.5 14.5254 14.5974 15.2642 16.2943L16.3349 18.7536C16.7966 19.8141 17.8433 20.5 19 20.5" stroke="var(--mw-icon-glyph-content-gray, #616162)"/>
</svg>
