<svg width="24" height="24" viewBox="0 0 24 24" fill="none" xmlns="http://www.w3.org/2000/svg">
<path d="M0.5 2.5C0.5 1.39543 1.39543 0.5 2.5 0.5H20.5C21.6046 0.5 22.5 1.39543 22.5 2.5V20.5C22.5 21.6046 21.6046 22.5 20.5 22.5H2.5C1.39543 22.5 0.5 21.6046 0.5 20.5V2.5Z" fill="var(--mw-icon-background-default-white, #FFFFFF)" stroke="var(--mw-icon-border-default-gray, #616161)" stroke-linejoin="round"/>
<path d="M7 13L1 17.5V1H22V17.5L16 13L13.5 7.5L12.5 6.5H10.5L9.5 7.5L7 13Z" fill="var(--mw-icon-background-default-action, #CBFFBE)"/>
<path d="M0.5 17.5C0.5 17.5 4.17941 16.1107 6.5 13.5C8.47591 11.2771 8.52586 6.5 11.5 6.5C14.4741 6.5 14.5241 11.2771 16.5 13.5C18.8206 16.1107 22.5 17.5 22.5 17.5" stroke="#0072BD" stroke-linejoin="round"/>
<path d="M0.5 2.5C0.5 1.39543 1.39543 0.5 2.5 0.5H20.5C21.6046 0.5 22.5 1.39543 22.5 2.5V20.5C22.5 21.6046 21.6046 22.5 20.5 22.5H2.5C1.39543 22.5 0.5 21.6046 0.5 20.5V2.5Z" stroke="var(--mw-icon-border-default-gray, #616161)" stroke-linejoin="round"/>
</svg>
