<svg width="24" height="24" viewBox="0 0 24 24" fill="none" xmlns="http://www.w3.org/2000/svg">
<path d="M0.5 18.5V4.5C0.5 2.29086 2.29086 0.5 4.5 0.5H18.5C20.7091 0.5 22.5 2.29086 22.5 4.5V18.5C22.5 20.7091 20.7091 22.5 18.5 22.5H4.5C2.29086 22.5 0.5 20.7091 0.5 18.5Z" fill="#00A3A3"/>
<path d="M1.5 6H1V7H1.5V6ZM2.5 6.5V7C2.77614 7 3 6.77614 3 6.5H2.5ZM2.5 3.5V3C2.22386 3 2 3.22386 2 3.5H2.5ZM4.5 3.5H5C5 3.22386 4.77614 3 4.5 3V3.5ZM4.5 6.5H4C4 6.77614 4.22386 7 4.5 7V6.5ZM6.5 6.5V7C6.77614 7 7 6.77614 7 6.5H6.5ZM6.5 3.5V3C6.22386 3 6 3.22386 6 3.5H6.5ZM8.5 3.5H9C9 3.22386 8.77614 3 8.5 3V3.5ZM8.5 6.5H8C8 6.77614 8.22386 7 8.5 7V6.5ZM10.5 6.5V7C10.7761 7 11 6.77614 11 6.5H10.5ZM10.5 3.5V3C10.2239 3 10 3.22386 10 3.5H10.5ZM12.5 3.5H13C13 3.22386 12.7761 3 12.5 3V3.5ZM12.5 6.5H12C12 6.77614 12.2239 7 12.5 7V6.5ZM14.5 6.5V7C14.7761 7 15 6.77614 15 6.5H14.5ZM14.5 3.5V3C14.2239 3 14 3.22386 14 3.5H14.5ZM16.5 3.5H17C17 3.22386 16.7761 3 16.5 3V3.5ZM16.5 6.5H16C16 6.77614 16.2239 7 16.5 7V6.5ZM18.5 6.5V7C18.7761 7 19 6.77614 19 6.5H18.5ZM18.5 3.5V3C18.2239 3 18 3.22386 18 3.5H18.5ZM20.5 3.5H21C21 3.22386 20.7761 3 20.5 3V3.5ZM20.5 6.5H20C20 6.77614 20.2239 7 20.5 7V6.5ZM21.5 7H22V6H21.5V7ZM1.5 7H2.5V6H1.5V7ZM3 6.5V3.5H2V6.5H3ZM2.5 4H4.5V3H2.5V4ZM4 3.5V6.5H5V3.5H4ZM4.5 7H6.5V6H4.5V7ZM7 6.5V3.5H6V6.5H7ZM6.5 4H8.5V3H6.5V4ZM8 3.5V6.5H9V3.5H8ZM8.5 7H10.5V6H8.5V7ZM11 6.5V3.5H10V6.5H11ZM10.5 4H12.5V3H10.5V4ZM12 3.5V6.5H13V3.5H12ZM12.5 7H14.5V6H12.5V7ZM15 6.5V3.5H14V6.5H15ZM14.5 4H16.5V3H14.5V4ZM16 3.5V6.5H17V3.5H16ZM16.5 7H18.5V6H16.5V7ZM19 6.5V3.5H18V6.5H19ZM18.5 4H20.5V3H18.5V4ZM20 3.5V6.5H21V3.5H20ZM20.5 7H21.5V6H20.5V7Z" fill="var(--mw-icon-background-default-white, white)"/>
<path d="M1 19H0.5V20H1V19ZM22 20H22.5V19H22V20ZM1 20H2.5V19H1V20ZM4 18.5V16.5H3V18.5H4ZM4.5 16H7.5V15H4.5V16ZM8 16.5V18.5H9V16.5H8ZM9.5 20H12.5V19H9.5V20ZM14 18.5V16.5H13V18.5H14ZM14.5 16H17.5V15H14.5V16ZM18 16.5V18.5H19V16.5H18ZM19.5 20H22V19H19.5V20ZM18 18.5C18 19.3284 18.6716 20 19.5 20V19C19.2239 19 19 18.7761 19 18.5H18ZM17.5 16C17.7761 16 18 16.2239 18 16.5H19C19 15.6716 18.3284 15 17.5 15V16ZM14 16.5C14 16.2239 14.2239 16 14.5 16V15C13.6716 15 13 15.6716 13 16.5H14ZM8 18.5C8 19.3284 8.67157 20 9.5 20V19C9.22386 19 9 18.7761 9 18.5H8ZM7.5 16C7.77614 16 8 16.2239 8 16.5H9C9 15.6716 8.32843 15 7.5 15V16ZM4 16.5C4 16.2239 4.22386 16 4.5 16V15C3.67157 15 3 15.6716 3 16.5H4ZM12.5 20C13.3284 20 14 19.3284 14 18.5H13C13 18.7761 12.7761 19 12.5 19V20ZM2.5 20C3.32843 20 4 19.3284 4 18.5H3C3 18.7761 2.77614 19 2.5 19V20Z" fill="var(--mw-icon-background-default-white, white)"/>
<path d="M1.5 12H1V13H1.5V12ZM2.5 12.5V13C2.77614 13 3 12.7761 3 12.5H2.5ZM2.5 9.5V9C2.22386 9 2 9.22386 2 9.5H2.5ZM5.5 9.5H6C6 9.22386 5.77614 9 5.5 9V9.5ZM5.5 12.5H5C5 12.7761 5.22386 13 5.5 13V12.5ZM8.5 12.5V13C8.77614 13 9 12.7761 9 12.5H8.5ZM8.5 9.5V9C8.22386 9 8 9.22386 8 9.5H8.5ZM11.5 9.5H12C12 9.22386 11.7761 9 11.5 9V9.5ZM11.5 12.5H11C11 12.7761 11.2239 13 11.5 13V12.5ZM14.5 12.5V13C14.7761 13 15 12.7761 15 12.5H14.5ZM14.5 9.5V9C14.2239 9 14 9.22386 14 9.5H14.5ZM17.5 9.5H18C18 9.22386 17.7761 9 17.5 9V9.5ZM17.5 12.5H17C17 12.7761 17.2239 13 17.5 13V12.5ZM20.5 12.5V13C20.7761 13 21 12.7761 21 12.5H20.5ZM20.5 9.5V9C20.2239 9 20 9.22386 20 9.5H20.5ZM22.5 10C22.7761 10 23 9.77614 23 9.5C23 9.22386 22.7761 9 22.5 9V10ZM1.5 13H2.5V12H1.5V13ZM3 12.5V9.5H2V12.5H3ZM2.5 10H5.5V9H2.5V10ZM5 9.5V12.5H6V9.5H5ZM5.5 13H8.5V12H5.5V13ZM9 12.5V9.5H8V12.5H9ZM8.5 10H11.5V9H8.5V10ZM11 9.5V12.5H12V9.5H11ZM11.5 13H14.5V12H11.5V13ZM15 12.5V9.5H14V12.5H15ZM14.5 10H17.5V9H14.5V10ZM17 9.5V12.5H18V9.5H17ZM17.5 13H20.5V12H17.5V13ZM21 12.5V9.5H20V12.5H21ZM20.5 10H22.5V9H20.5V10Z" fill="var(--mw-icon-background-default-white, white)"/>
<path d="M0.5 18.5V4.5C0.5 2.29086 2.29086 0.5 4.5 0.5H18.5C20.7091 0.5 22.5 2.29086 22.5 4.5V18.5C22.5 20.7091 20.7091 22.5 18.5 22.5H4.5C2.29086 22.5 0.5 20.7091 0.5 18.5Z" stroke="#02555C" stroke-linecap="round"/>

</svg>
