<svg width="24" height="24" viewBox="0 0 24 24" fill="none" xmlns="http://www.w3.org/2000/svg">
<path d="M0.5 18.5V4.5C0.5 2.29086 2.29086 0.5 4.5 0.5H18.5C20.7091 0.5 22.5 2.29086 22.5 4.5V18.5C22.5 20.7091 20.7091 22.5 18.5 22.5H4.5C2.29086 22.5 0.5 20.7091 0.5 18.5Z" fill="var(--mw-icon-glyph-content-gray, #616162)"/>
<path d="M1.49753 18.4838C4.37453 18.7327 7.25935 19.0426 10.1363 18.7936C11.8261 18.7057 13.5298 18.7489 15.1979 18.9219C16.8364 19.0184 19.4544 19.072 20.9013 18.7936C21.1459 18.7466 21.2429 18.5092 21.3988 18.4838C21.56 18.4574 21.7778 18.142 21.8963 17.9845C22.1296 17.6747 21.8963 16.8824 21.8963 16.8824C20.8559 16.7037 19.9 16.3999 19.0971 15.993C18.2943 15.586 17.6644 15.086 17.2527 14.5287C16.9741 14.1823 16.7187 13.8553 16.4633 13.5218C16.5562 13.3742 16.6258 13.2524 16.6723 13.1882C17.5429 12.0274 19.4817 10.7383 21.8731 10.4305L21.8731 9.49409L21.8963 9.4492L21.8963 8.71165C21.0415 8.68609 20.1914 8.62391 19.354 8.52566C17.4617 8.29477 17.5662 8.12802 14.9309 8.34608C13.0229 8.57253 11.0567 8.60729 9.12636 8.4487C7.73289 8.18689 6.22512 8.17566 4.81939 8.41663C3.82983 8.56712 2.80258 8.62777 1.77781 8.59621C1.48758 8.34608 1.23218 8.16009 1 7.99976L1 10.6549C1.7693 10.8279 2.46377 11.0888 3.03793 11.4203C3.6121 11.7519 3.86365 12.2422 4.33181 12.579C4.81939 12.9297 5.22239 13.1579 5.47779 13.4914C5.47779 13.9906 5.47779 13.9906 4.98026 14.4899C3.98188 15.8239 3.79779 16.2924 1 16.5361L1 17.9845C1 17.9845 1.35899 18.5371 1.49753 18.4838ZM20.0853 17.7675L19.7371 17.8188C17.8161 18.0327 15.8327 18.0065 13.9325 17.7418C13.1779 17.6456 12.7716 17.5173 12.284 17.4724C13.7236 17.0748 14.7684 16.0166 15.6507 14.7531C16.6038 15.9625 18.1373 17.0048 20.0853 17.7675ZM16.3936 9.38506C17.1018 9.42996 18.1698 9.46844 19.2611 9.48126C18.4434 9.93534 17.7156 10.4363 17.0902 10.9756C16.5449 11.4259 16.0524 11.895 15.6158 12.3802C14.6755 11.1616 13.77 10.0713 12.6091 9.57105C13.8417 9.38895 15.1221 9.32603 16.3936 9.38506ZM11.0999 10.6998C12.3189 10.6998 13.6075 12.0467 14.7452 13.5218L14.7452 13.5538C14.4217 14.2392 13.8919 14.8896 13.1779 15.4779C12.6685 15.9306 11.9242 16.2882 11.0419 16.504C9.38176 16.504 8.73331 15.1636 7.46792 13.5218C9.7433 10.5972 10.6704 10.6998 11.0999 10.6998ZM3.32182 9.7827C4.17271 9.4686 5.16635 9.29302 6.18926 9.27604C7.08316 9.32093 8.34855 9.47485 9.52107 9.58388C8.36016 10.0521 7.19925 11.0526 6.03834 12.4828C5.99272 12.4354 5.9539 12.386 5.92225 12.3353C5.1733 11.4494 4.30401 10.5961 3.32182 9.7827ZM4.28537 16.581C4.95847 15.9978 5.541 15.3842 6.02673 14.7467C7.2689 16.2731 8.00028 17.4724 10.1363 17.62C8.67039 17.7777 7.72399 17.8911 6.2357 17.9599C5.17759 17.9326 4.13282 17.818 3.13607 17.62C3.47274 17.2865 3.84423 16.9337 4.27376 16.581L4.28537 16.581Z" fill="#64D413"/>
<path d="M15.5 13.9998C15.7761 13.9998 16 13.7759 16 13.4998C16 13.2236 15.7761 12.9998 15.5 12.9998C15.2239 12.9998 15 13.2236 15 13.4998C15 13.7759 15.2239 13.9998 15.5 13.9998Z" fill="#FF13A6"/>
<path d="M6.5 13.9998C6.77614 13.9998 7 13.7759 7 13.4998C7 13.2236 6.77614 12.9998 6.5 12.9998C6.22386 12.9998 6 13.2236 6 13.4998C6 13.7759 6.22386 13.9998 6.5 13.9998Z" fill="#FF13A6"/>
<path d="M11.5 9.99976C11.7761 9.99976 12 9.7759 12 9.49976C12 9.22361 11.7761 8.99976 11.5 8.99976C11.2239 8.99976 11 9.22361 11 9.49976C11 9.7759 11.2239 9.99976 11.5 9.99976Z" fill="#FF13A6"/>
<path d="M11.5 17.9998C11.7761 17.9998 12 17.7759 12 17.4998C12 17.2236 11.7761 16.9998 11.5 16.9998C11.2239 16.9998 11 17.2236 11 17.4998C11 17.7759 11.2239 17.9998 11.5 17.9998Z" fill="#FF13A6"/>
<path d="M2.5 17.9998C2.77614 17.9998 3 17.7759 3 17.4998C3 17.2236 2.77614 16.9998 2.5 16.9998C2.22386 16.9998 2 17.2236 2 17.4998C2 17.7759 2.22386 17.9998 2.5 17.9998Z" fill="#FF13A6"/>
<path d="M2.5 9.99976C2.77614 9.99976 3 9.7759 3 9.49976C3 9.22361 2.77614 8.99976 2.5 8.99976C2.22386 8.99976 2 9.22361 2 9.49976C2 9.7759 2.22386 9.99976 2.5 9.99976Z" fill="#FF13A6"/>
<path d="M20.5 9.99976C20.7761 9.99976 21 9.7759 21 9.49976C21 9.22361 20.7761 8.99976 20.5 8.99976C20.2239 8.99976 20 9.22361 20 9.49976C20 9.7759 20.2239 9.99976 20.5 9.99976Z" fill="#FF13A6"/>
<path d="M20.5 17.9998C20.7761 17.9998 21 17.7759 21 17.4998C21 17.2236 20.7761 16.9998 20.5 16.9998C20.2239 16.9998 20 17.2236 20 17.4998C20 17.7759 20.2239 17.9998 20.5 17.9998Z" fill="#FF13A6"/>
<path d="M1.5 3.99976L1 3.99976L1 2.99976L1.5 2.99976L1.5 3.99976ZM4.5 3.49976L4.5 2.99976C4.77614 2.99976 5 3.22361 5 3.49976L4.5 3.49976ZM4.5 5.49976L4.5 5.99976C4.22386 5.99976 4 5.7759 4 5.49976L4.5 5.49976ZM7.5 5.49976L8 5.49976C8 5.63237 7.94732 5.75954 7.85355 5.85331C7.75979 5.94708 7.63261 5.99976 7.5 5.99976L7.5 5.49976ZM7.5 2.49976L7 2.49976C7 2.36715 7.05268 2.23997 7.14645 2.1462C7.24022 2.05243 7.36739 1.99976 7.5 1.99976L7.5 2.49976ZM9.5 2.49976L9.5 1.99976C9.77614 1.99976 10 2.22362 10 2.49976L9.5 2.49976ZM9.5 6.49976L9.5 6.99976C9.22386 6.99976 9 6.7759 9 6.49976L9.5 6.49976ZM13.5 6.49976L14 6.49976C14 6.7759 13.7761 6.99976 13.5 6.99976L13.5 6.49976ZM13.5 1.49976L13 1.49976C13 1.22362 13.2239 0.999758 13.5 0.999758L13.5 1.49976ZM17.5 1.49976L17.5 0.999759C17.7761 0.999759 18 1.22362 18 1.49976L17.5 1.49976ZM17.5 3.49976L17.5 3.99976C17.2239 3.99976 17 3.7759 17 3.49976L17.5 3.49976ZM20.5 3.49976L21 3.49976C21 3.7759 20.7761 3.99976 20.5 3.99976L20.5 3.49976ZM20 1.49976C20 1.22362 20.2239 0.999759 20.5 0.999759C20.7761 0.999759 21 1.22362 21 1.49976L20 1.49976ZM1.5 2.99976L4.5 2.99976L4.5 3.99976L1.5 3.99976L1.5 2.99976ZM5 3.49976L5 5.49976L4 5.49976L4 3.49976L5 3.49976ZM4.5 4.99976L7.5 4.99976L7.5 5.99976L4.5 5.99976L4.5 4.99976ZM7 5.49976L7 2.49976L8 2.49976L8 5.49976L7 5.49976ZM7.5 1.99976L9.5 1.99976L9.5 2.99976L7.5 2.99976L7.5 1.99976ZM10 2.49976L10 6.49976L9 6.49976L9 2.49976L10 2.49976ZM9.5 5.99976L13.5 5.99976L13.5 6.99976L9.5 6.99976L9.5 5.99976ZM13 6.49976L13 1.49976L14 1.49976L14 6.49976L13 6.49976ZM13.5 0.999758L17.5 0.999759L17.5 1.99976L13.5 1.99976L13.5 0.999758ZM18 1.49976L18 3.49976L17 3.49976L17 1.49976L18 1.49976ZM17.5 2.99976L20.5 2.99976L20.5 3.99976L17.5 3.99976L17.5 2.99976ZM20 3.49976L20 1.49976L21 1.49976L21 3.49976L20 3.49976Z" fill="var(--mw-icon-background-default-medium-gray, #D9D9D9)"/>
<path d="M14.3536 18.6464L14 18.2929L13.2929 19L13.6464 19.3536L14.3536 18.6464ZM15.6464 21.3536C15.8417 21.5488 16.1583 21.5488 16.3536 21.3536C16.5488 21.1583 16.5488 20.8417 16.3536 20.6464L15.6464 21.3536ZM13.6464 19.3536L15.6464 21.3536L16.3536 20.6464L14.3536 18.6464L13.6464 19.3536Z" fill="var(--mw-icon-background-default-white, white)"/>
<circle cx="12.0356" cy="17" r="2.5" stroke="var(--mw-icon-background-default-white, white)"/>
<path d="M14.3536 18.6464L14 18.2929L13.2929 19L13.6464 19.3536L14.3536 18.6464ZM15.6464 21.3536C15.8417 21.5488 16.1583 21.5488 16.3536 21.3536C16.5488 21.1583 16.5488 20.8417 16.3536 20.6464L15.6464 21.3536ZM13.6464 19.3536L15.6464 21.3536L16.3536 20.6464L14.3536 18.6464L13.6464 19.3536Z" fill="var(--mw-icon-background-default-white, white)"/>
<circle cx="12.0356" cy="17" r="2.5" stroke="var(--mw-icon-background-default-white, white)"/>
<path d="M0.5 18.5V4.5C0.5 2.29086 2.29086 0.5 4.5 0.5H18.5C20.7091 0.5 22.5 2.29086 22.5 4.5V18.5C22.5 20.7091 20.7091 22.5 18.5 22.5H4.5C2.29086 22.5 0.5 20.7091 0.5 18.5Z" stroke="var(--mw-icon-border-default-gray, #616161)" stroke-linecap="round"/>

</svg>
