<svg width="24" height="24" viewBox="0 0 24 24" fill="none" xmlns="http://www.w3.org/2000/svg">
<path d="M0.5 18.5V4.5C0.5 2.29086 2.29086 0.5 4.5 0.5H18.5C20.7091 0.5 22.5 2.29086 22.5 4.5V18.5C22.5 20.7091 20.7091 22.5 18.5 22.5H4.5C2.29086 22.5 0.5 20.7091 0.5 18.5Z" fill="var(--mw-icon-background-default-white, white)"/>
<path d="M14.5 2.5H17.5" stroke="#6E0149" stroke-linecap="round" stroke-linejoin="round"/>
<path d="M14.5 6.5H17.5" stroke="#6E0149" stroke-linecap="round" stroke-linejoin="round"/>
<path d="M7.5 10.5H10.5" stroke="#6E0149" stroke-linecap="round" stroke-linejoin="round"/>
<path d="M6.5 14.5H9.5" stroke="#6E0149" stroke-linecap="round" stroke-linejoin="round"/>
<path d="M7.5 12.5H9.5" stroke="#6E0149" stroke-linecap="round" stroke-linejoin="round"/>
<path d="M5.5 18.5H8.5" stroke="#6E0149" stroke-linecap="round" stroke-linejoin="round"/>
<path d="M6.5 20.5H10.5" stroke="#6E0149" stroke-linecap="round" stroke-linejoin="round"/>
<path d="M12.5 8.5H16.5" stroke="#6E0149" stroke-linecap="round" stroke-linejoin="round"/>
<path d="M5.5 16.5H12.5" stroke="#6E0149" stroke-linecap="round" stroke-linejoin="round"/>
<path d="M11.5 4.5H18.5" stroke="#6E0149" stroke-linecap="round" stroke-linejoin="round"/>
<path d="M3.5 2.5H5.5" stroke="#D1048B" stroke-linecap="round" stroke-linejoin="round"/>
<path d="M4.5 6.5H7.5" stroke="#D1048B" stroke-linecap="round" stroke-linejoin="round"/>
<path d="M16.5 18.5H19.5" stroke="#D1048B" stroke-linecap="round" stroke-linejoin="round"/>
<path d="M6.5 8.5H10.5" stroke="#D1048B" stroke-linecap="round" stroke-linejoin="round"/>
<path d="M13.5 14.5H18.5" stroke="#D1048B" stroke-linecap="round" stroke-linejoin="round"/>
<path d="M12.5 20.5H18.5" stroke="#D1048B" stroke-linecap="round" stroke-linejoin="round"/>
<path d="M13.5 16.5H19.5" stroke="#D1048B" stroke-linecap="round" stroke-linejoin="round"/>
<path d="M3.5 4.5H9.5" stroke="#D1048B" stroke-linecap="round" stroke-linejoin="round"/>
<path d="M10.5 12.5H16.5" stroke="#D1048B" stroke-linecap="round" stroke-linejoin="round"/>
<path d="M11.5 10.5H14.5" stroke="#D1048B" stroke-linecap="round" stroke-linejoin="round"/>
<path d="M0.5 18.5V4.5C0.5 2.29086 2.29086 0.5 4.5 0.5H18.5C20.7091 0.5 22.5 2.29086 22.5 4.5V18.5C22.5 20.7091 20.7091 22.5 18.5 22.5H4.5C2.29086 22.5 0.5 20.7091 0.5 18.5Z" stroke="#6E0149" stroke-linecap="round"/>

</svg>
