<svg width="24" height="24" viewBox="0 0 24 24" fill="none" xmlns="http://www.w3.org/2000/svg">
<path d="M7.5 3.5L7.5 22.5C7.5 23.0523 7.94772 23.5 8.5 23.5L22.5 23.5C23.0523 23.5 23.5 23.0523 23.5 22.5L23.5 7.41421C23.5 7.149 23.3946 6.89464 23.2071 6.70711L19.2929 2.79289C19.1054 2.60536 18.851 2.5 18.5858 2.5L8.5 2.5C7.94771 2.5 7.5 2.94772 7.5 3.5Z" fill="var(--mw-icon-background-default-white, #FFFFFF)" stroke="var(--mw-icon-border-default-gray, #616161)"/>
<path d="M15.5 19.5038V14.0485L21.5 10.7754V16.2306L15.5 19.5038Z" fill="#FFEAC6" stroke="var(--mw-icon-glyph-content-gray, #616162)" stroke-linecap="square" stroke-linejoin="round"/>
<path d="M9.5 16.2306V10.7754L15.5 14.0485V19.5038L9.5 16.2306Z" fill="#FFEAC6" stroke="var(--mw-icon-glyph-content-gray, #616162)" stroke-linecap="square" stroke-linejoin="round"/>
<path d="M9.5 10.7731L15.5 7.5L21.5 10.7731L15.5 14.0463L9.5 10.7731Z" fill="#FFD997" stroke="var(--mw-icon-glyph-content-gray, #616162)" stroke-linejoin="round"/>
<path d="M15.5 17.251V13.8428L19.25 11.7979V15.2061L15.5 17.251Z" fill="#FFD997" stroke="var(--mw-icon-glyph-content-gray, #616162)" stroke-linecap="square" stroke-linejoin="round"/>
<path d="M11.75 15.2061V11.7979L15.5 13.8428V17.251L11.75 15.2061Z" fill="#FFD997" stroke="var(--mw-icon-glyph-content-gray, #616162)" stroke-linecap="square" stroke-linejoin="round"/>
<path d="M11.75 11.7949L15.5 9.75L19.25 11.7949L15.5 13.8399L11.75 11.7949Z" fill="#FFEAC6" stroke="var(--mw-icon-glyph-content-gray, #616162)" stroke-linejoin="round"/>
<path d="M0.5 1.5C0.5 0.947715 0.947715 0.5 1.5 0.5H9.5C10.0523 0.5 10.5 0.947715 10.5 1.5V9.5C10.5 10.0523 10.0523 10.5 9.5 10.5H1.5C0.947715 10.5 0.5 10.0523 0.5 9.5V1.5Z" fill="white" stroke="var(--mw-icon-border-default-gray, #616161)"/>
<path d="M5 5.25C5 5.11193 5.11193 5 5.25 5H8.75C8.88807 5 9 5.11193 9 5.25V8.75C9 8.88807 8.88807 9 8.75 9H5.25C5.11193 9 5 8.88807 5 8.75V5.25Z" fill="#D78825"/>
<path d="M2 7V2L6.5 4.5L2 7Z" fill="#0076A8"/>
</svg>
