<svg width="24" height="24" viewBox="0 0 24 24" fill="none" xmlns="http://www.w3.org/2000/svg">
<path d="M0.5 7.5C0.5 6.94772 0.947715 6.5 1.5 6.5H21.5C22.0523 6.5 22.5 6.94772 22.5 7.5V15.5C22.5 16.0523 22.0523 16.5 21.5 16.5H1.5C0.947716 16.5 0.5 16.0523 0.5 15.5V7.5Z" fill="var(--mw-icon-background-default-light-gray, #F5F5F5)" stroke="var(--mw-icon-border-default-gray, #616161)"/>
<path d="M7 9H6V14H7V9Z" fill="var(--mw-icon-glyph-content-gray, #616162)"/>
<path d="M8 9V10H10V11H8V14H11V13H9V12H11V9H8Z" fill="var(--mw-icon-glyph-content-gray, #616162)"/>
<path d="M14 9V10H16V11H14V12H16V13H14V14H17V9H14Z" fill="var(--mw-icon-glyph-content-gray, #616162)"/>
<path d="M12 13H13V14H12V13Z" fill="var(--mw-icon-glyph-content-gray, #616162)"/>
</svg>
