<svg width="24" height="24" viewBox="0 0 24 24" fill="none" xmlns="http://www.w3.org/2000/svg">
<rect x="0.5" y="0.5" width="18" height="18" rx="1" fill="var(--mw-icon-background-default-white, #FFFFFF)"/>
<path d="M0.5 9.5L1.08274 10.5073C3.59749 14.8544 7.22279 14.4205 9.5 9.5C11.7772 4.57947 15.4025 4.14562 17.9173 8.49267L18.5 9.5" stroke="#0072BD"/>
<rect x="0.5" y="0.5" width="18" height="18" rx="2" stroke="var(--mw-icon-border-default-gray, #616161)"/>
<path d="M10.5 11.5C10.5 10.9477 10.9477 10.5 11.5 10.5H22.5C23.0523 10.5 23.5 10.9477 23.5 11.5V22.5C23.5 23.0523 23.0523 23.5 22.5 23.5H11.5C10.9477 23.5 10.5 23.0523 10.5 22.5V11.5Z" fill="white" stroke="var(--mw-icon-border-default-gray, #616161)"/>
<path d="M16.5 14.5H19.5V18" stroke="var(--mw-icon-glyph-disabled-gray, #888889)" stroke-linecap="square"/>
<path d="M17.5 18C17.5 17.7239 17.7239 17.5 18 17.5H21C21.2761 17.5 21.5 17.7239 21.5 18V21C21.5 21.2761 21.2761 21.5 21 21.5H18C17.7239 21.5 17.5 21.2761 17.5 21V18Z" fill="var(--mw-icon-background-red, #FF9D9A)" stroke="var(--mw-icon-glyph-content-red, #902623)"/>
<path d="M12.5 17.5V11.5L17.5 14.5L12.5 17.5Z" fill="var(--mw-icon-background-default-selection, #B4DEFF)" stroke="var(--mw-icon-glyph-content-blue, #1656A8)" stroke-linejoin="round"/>
</svg>
