<svg width="24" height="24" viewBox="0 0 24 24" fill="none" xmlns="http://www.w3.org/2000/svg">
<path d="M1.5 4.5H17.5V14.5C17.5 15.0523 17.0523 15.5 16.5 15.5H2.5C1.94772 15.5 1.5 15.0523 1.5 14.5V4.5Z" fill="var(--mw-icon-background-lightest-blue, #E2F0FF)" stroke="var(--mw-icon-border-default-blue, #1656A7)"/>
<path d="M7.5 6.49997H11.5" stroke="var(--mw-icon-glyph-content-blue, #1656A8)" stroke-linecap="round"/>
<path d="M0.5 1C0.5 0.723858 0.723858 0.5 1 0.5H18C18.2761 0.5 18.5 0.723858 18.5 1V4.5H0.5V1Z" fill="var(--mw-icon-background-lightest-blue, #E2F0FF)"/>
<path d="M18.5 4.5V5C18.7761 5 19 4.77614 19 4.5H18.5ZM0.5 4.5H0C0 4.77614 0.223858 5 0.5 5L0.5 4.5ZM1 1H18V0H1V1ZM18 1V4.5H19V1H18ZM18.5 4H0.5V5H18.5V4ZM1 4.5V1H0V4.5H1ZM18 1H19C19 0.447715 18.5523 0 18 0V1ZM1 0C0.447715 0 0 0.447715 0 1H1V0Z" fill="var(--mw-icon-border-default-blue, #1656A7)"/>
<path d="M10.5 11.5C10.5 10.9477 10.9477 10.5 11.5 10.5H22.5C23.0523 10.5 23.5 10.9477 23.5 11.5V22.5C23.5 23.0523 23.0523 23.5 22.5 23.5H11.5C10.9477 23.5 10.5 23.0523 10.5 22.5V11.5Z" fill="var(--mw-icon-background-default-white, #FFFFFF)" stroke="var(--mw-icon-border-default-gray, #616161)"/>
<path d="M16.5 14.5H19.5V18" stroke="var(--mw-icon-glyph-disabled-gray, #888889)" stroke-linecap="square"/>
<path d="M17.5 18C17.5 17.7239 17.7239 17.5 18 17.5H21C21.2761 17.5 21.5 17.7239 21.5 18V21C21.5 21.2761 21.2761 21.5 21 21.5H18C17.7239 21.5 17.5 21.2761 17.5 21V18Z" fill="var(--mw-icon-background-red, #FF9D9A)" stroke="var(--mw-icon-glyph-content-red, #902623)"/>
<path d="M12.5 17.5V11.5L17.5 14.5L12.5 17.5Z" fill="var(--mw-icon-background-default-selection, #B4DEFF)" stroke="var(--mw-icon-glyph-content-blue, #1656A8)" stroke-linejoin="round"/>
</svg>
