<svg width="24" height="24" viewBox="0 0 24 24" fill="none" xmlns="http://www.w3.org/2000/svg">
<path d="M7.5 2.5L7.5 21.5C7.5 22.0523 7.94772 22.5 8.5 22.5L22.5 22.5C23.0523 22.5 23.5 22.0523 23.5 21.5L23.5 6.41421C23.5 6.149 23.3946 5.89464 23.2071 5.70711L19.2929 1.79289C19.1054 1.60536 18.851 1.5 18.5858 1.5L8.5 1.5C7.94771 1.5 7.5 1.94772 7.5 2.5Z" fill="var(--mw-icon-background-default-white, #FFFFFF)" stroke="var(--mw-icon-border-default-gray, #616161)"/>
<path d="M9.5 9C9.22386 9 9 9.22386 9 9.5C9 9.77614 9.22386 10 9.5 10V9ZM18.5 9.5H19C19 9.22386 18.7761 9 18.5 9V9.5ZM9.5 10H18.5V9H9.5V10ZM18 9.5V16H19V9.5H18Z" fill="var(--mw-icon-glyph-disabled-gray, #888889)"/>
<path d="M15 12.5C15 12.2239 15.2239 12 15.5 12H21.5C21.7761 12 22 12.2239 22 12.5V18.5C22 18.7761 21.7761 19 21.5 19H15.5C15.2239 19 15 18.7761 15 18.5V12.5Z" fill="#D78825"/>
<path d="M10 14V5L17 9.5L10 14Z" fill="#0076A8"/>
</svg>
