<svg width="24" height="24" viewBox="0 0 24 24" fill="none" xmlns="http://www.w3.org/2000/svg">
<path d="M0.5 7.5H18.5V15.5C18.5 17.1569 17.1569 18.5 15.5 18.5H3.5C1.84315 18.5 0.5 17.1569 0.5 15.5V7.5Z" fill="var(--mw-icon-background-lightest-blue, #E2F0FF)"/>
<path d="M18.5 12.4999C14.6083 16.4999 11.2166 16.4999 7.32485 12.4999C4.88324 9.99034 2.94162 8.86053 0.5 9.49991" stroke="var(--mw-icon-glyph-content-light-blue, #278CDD)" stroke-linecap="round"/>
<path d="M0.5 12.5C4.39086 8.5 7.78172 8.5 11.6726 12.5C14.1151 15.011 15.5575 16.1415 18 15.5" stroke="var(--mw-icon-glyph-content-blue, #1656A8)" stroke-linecap="round"/>
<path d="M0.5 7.5H18.5V15.5C18.5 17.1569 17.1569 18.5 15.5 18.5H3.5C1.84315 18.5 0.5 17.1569 0.5 15.5V7.5Z" stroke="var(--mw-icon-border-default-blue, #1656A7)" stroke-linejoin="round"/>
<path d="M0.500015 3.5C0.500015 1.84315 1.84316 0.5 3.50002 0.5H15.5C17.1569 0.5 18.5 1.84315 18.5 3.5V7.5H0.500015V3.5Z" fill="var(--mw-icon-background-default-white, #FFFFFF)" stroke="var(--mw-icon-glyph-content-blue, #1656A8)"/>
<path d="M2.00003 3.5C2.00003 3.22386 2.22388 3 2.50003 3H4.50003C4.77617 3 5.00003 3.22386 5.00003 3.5V7H2.00003V3.5Z" fill="var(--mw-icon-glyph-content-blue, #1656A8)"/>
<path d="M6.00003 5.5C6.00003 5.22386 6.22388 5 6.50003 5H8.50003C8.77617 5 9.00003 5.22386 9.00003 5.5V7H6.00003V5.5Z" fill="var(--mw-icon-glyph-content-light-blue, #278CDD)"/>
<path d="M10 2.5C10 2.22386 10.2239 2 10.5 2H12.5C12.7762 2 13 2.22386 13 2.5V7H10V2.5Z" fill="var(--mw-icon-glyph-content-blue, #1656A8)"/>
<path d="M14 4.5C14 4.22386 14.2239 4 14.5 4H16.5C16.7762 4 17 4.22386 17 4.5V7H14V4.5Z" fill="var(--mw-icon-glyph-content-light-blue, #278CDD)"/>
<path d="M10.5 11.5C10.5 10.9477 10.9477 10.5 11.5 10.5H22.5C23.0523 10.5 23.5 10.9477 23.5 11.5V22.5C23.5 23.0523 23.0523 23.5 22.5 23.5H11.5C10.9477 23.5 10.5 23.0523 10.5 22.5V11.5Z" fill="white" stroke="var(--mw-icon-border-default-gray, #616161)"/>
<path d="M16.5 14.5H19.5V18" stroke="var(--mw-icon-glyph-disabled-gray, #888889)" stroke-linecap="square"/>
<path d="M17.5 18C17.5 17.7239 17.7239 17.5 18 17.5H21C21.2761 17.5 21.5 17.7239 21.5 18V21C21.5 21.2761 21.2761 21.5 21 21.5H18C17.7239 21.5 17.5 21.2761 17.5 21V18Z" fill="var(--mw-icon-background-red, #FF9D9A)" stroke="var(--mw-icon-glyph-content-red, #902623)"/>
<path d="M12.5 17.5V11.5L17.5 14.5L12.5 17.5Z" fill="var(--mw-icon-background-default-selection, #B4DEFF)" stroke="var(--mw-icon-glyph-content-blue, #1656A8)" stroke-linejoin="round"/>
</svg>
