<svg width="24" height="24" viewBox="0 0 24 24" fill="none" xmlns="http://www.w3.org/2000/svg">
<path d="M7.5 3.5L7.5 22.5C7.5 23.0523 7.94772 23.5 8.5 23.5L22.5 23.5C23.0523 23.5 23.5 23.0523 23.5 22.5L23.5 7.41421C23.5 7.149 23.3946 6.89464 23.2071 6.70711L19.2929 2.79289C19.1054 2.60536 18.851 2.5 18.5858 2.5L8.5 2.5C7.94771 2.5 7.5 2.94772 7.5 3.5Z" fill="var(--mw-icon-background-default-white, #FFFFFF)" stroke="var(--mw-icon-border-default-gray, #616161)"/>
<path d="M21.4995 15.8844C21.4995 16.7928 18.8133 17.7306 15.4996 17.7306C12.186 17.7306 9.49976 16.7928 9.49976 15.8844M21.4995 13.1153C21.4995 14.0236 18.8133 14.9614 15.4996 14.9614C12.186 14.9614 9.49976 14.0236 9.49976 13.1153M21.4998 10.3461C21.4998 9.43776 18.8135 8.5 15.4999 8.5C12.1863 8.5 9.50003 9.43776 9.50003 10.3461C9.50003 10.664 9.49976 18.6536 9.49976 18.6536C9.49976 19.562 12.1863 20.4997 15.4999 20.4997C18.8135 20.4997 21.4998 19.562 21.4998 18.6536C21.4998 18.3357 21.4998 10.3461 21.4998 10.3461Z" stroke="var(--mw-icon-border-default-gray, #616161)"/>
<path d="M21.4998 10.3C21.4998 11.1857 18.8135 12.1 15.4998 12.1C12.186 12.1 9.49976 11.1857 9.49976 10.3C9.49976 9.41434 12.186 8.5 15.4998 8.5C18.8135 8.5 21.4998 9.41434 21.4998 10.3Z" fill="var(--mw-icon-background-default-light-gray, #F5F5F5)" stroke="var(--mw-icon-border-default-gray, #616161)"/>
<path d="M0.5 1.5C0.5 0.947716 0.947715 0.5 1.5 0.5H9.5C10.0523 0.5 10.5 0.947715 10.5 1.5V9.5C10.5 10.0523 10.0523 10.5 9.5 10.5H1.5C0.947716 10.5 0.5 10.0523 0.5 9.5V1.5Z" fill="white" stroke="var(--mw-icon-border-default-gray, #616161)"/>
<path d="M5 5.25C5 5.11193 5.11193 5 5.25 5H8.75C8.88807 5 9 5.11193 9 5.25V8.75C9 8.88807 8.88807 9 8.75 9H5.25C5.11193 9 5 8.88807 5 8.75V5.25Z" fill="#D78825"/>
<path d="M2 7V2L6.5 4.5L2 7Z" fill="#0076A8"/>
</svg>
