<svg width="24" height="24" viewBox="0 0 24 24" fill="none" xmlns="http://www.w3.org/2000/svg">
<path d="M0.5 0.5H18.5V15.4998H0.5V0.5Z" fill="var(--mw-icon-background-default-white, #FFFFFF)" stroke="var(--mw-icon-border-default-gray, #616161)" stroke-linejoin="round"/>
<path d="M5.5 12.5H5V13H5.5V12.5ZM1 6H18V5H1V6ZM5 5.5V12.5H6V5.5H5ZM5.5 13H18V12H5.5V13Z" fill="var(--mw-icon-glyph-content-gray, #616162)"/>
<rect x="4" y="4" width="3" height="3" fill="var(--mw-icon-glyph-content-gray, #616162)"/>
<path d="M10.5 11.5C10.5 10.9477 10.9477 10.5 11.5 10.5H22.5C23.0523 10.5 23.5 10.9477 23.5 11.5V22.5C23.5 23.0523 23.0523 23.5 22.5 23.5H11.5C10.9477 23.5 10.5 23.0523 10.5 22.5V11.5Z" fill="white" stroke="var(--mw-icon-border-default-gray, #616161)"/>
<path d="M16.5 14.5H19.5V18" stroke="var(--mw-icon-glyph-disabled-gray, #888889)" stroke-linecap="square"/>
<path d="M17.5 18C17.5 17.7239 17.7239 17.5 18 17.5H21C21.2761 17.5 21.5 17.7239 21.5 18V21C21.5 21.2761 21.2761 21.5 21 21.5H18C17.7239 21.5 17.5 21.2761 17.5 21V18Z" fill="var(--mw-icon-background-red, #FF9D9A)" stroke="var(--mw-icon-glyph-content-red, #902623)"/>
<path d="M12.5 17.5V11.5L17.5 14.5L12.5 17.5Z" fill="var(--mw-icon-background-default-selection, #B4DEFF)" stroke="var(--mw-icon-glyph-content-blue, #1656A8)" stroke-linejoin="round"/>
</svg>
