<svg width="24" height="24" viewBox="0 0 24 24" fill="none" xmlns="http://www.w3.org/2000/svg">
<path d="M0.5 3.5H18.5V17.5C18.5 18.0523 18.0523 18.5 17.5 18.5H1.5C0.947716 18.5 0.5 18.0523 0.5 17.5V3.5Z" fill="var(--mw-icon-background-default-white, #FFFFFF)" stroke="var(--mw-icon-border-default-gray, #616161)"/>
<path d="M6.69836 10.3583H7.99481C7.95333 10.8681 7.81504 11.3226 7.57995 11.7219C7.34486 12.1176 7.01469 12.4296 6.58946 12.6578C6.16422 12.8859 5.64736 13 5.03889 13C4.57217 13 4.15212 12.9144 3.77874 12.7433C3.40536 12.5686 3.08557 12.3226 2.81936 12.0053C2.55315 11.6845 2.34918 11.2977 2.20743 10.8449C2.06914 10.3922 2 9.88592 2 9.3262V8.67914C2 8.11943 2.07087 7.61319 2.21262 7.16043C2.35782 6.70766 2.56525 6.32086 2.83492 6C3.10458 5.67558 3.42783 5.42781 3.80467 5.25668C4.18496 5.08556 4.61193 5 5.08557 5C5.68712 5 6.19533 5.11408 6.6102 5.34225C7.02506 5.57041 7.34659 5.88592 7.57476 6.28877C7.8064 6.69162 7.94814 7.1533 8 7.6738H6.70354C6.66897 7.33868 6.59291 7.05169 6.47537 6.81283C6.36128 6.57397 6.19188 6.39216 5.96716 6.26738C5.74244 6.13904 5.44857 6.07487 5.08557 6.07487C4.78825 6.07487 4.52895 6.13191 4.30769 6.24599C4.08643 6.36007 3.90147 6.52763 3.75281 6.74866C3.60415 6.9697 3.49179 7.24242 3.41573 7.56684C3.34313 7.8877 3.30683 8.2549 3.30683 8.66845V9.3262C3.30683 9.71836 3.33967 10.0749 3.40536 10.3957C3.4745 10.713 3.57822 10.9857 3.71651 11.2139C3.85825 11.4421 4.03803 11.6185 4.25583 11.7433C4.47364 11.8681 4.73466 11.9305 5.03889 11.9305C5.40882 11.9305 5.70787 11.8699 5.93604 11.7487C6.16768 11.6275 6.34226 11.451 6.45981 11.2193C6.58081 10.984 6.66033 10.697 6.69836 10.3583Z" fill="var(--mw-icon-glyph-content-gray, #616162)"/>
<path d="M0.5 1.5C0.5 0.947715 0.947715 0.5 1.5 0.5H17.5C18.0523 0.5 18.5 0.947715 18.5 1.5V3.5H0.5V1.5Z" fill="var(--mw-icon-background-default-medium-gray, #D9D9D9)" stroke="var(--mw-icon-border-default-gray, #616161)"/>
<path d="M10.5 11.5C10.5 10.9477 10.9477 10.5 11.5 10.5H22.5C23.0523 10.5 23.5 10.9477 23.5 11.5V22.5C23.5 23.0523 23.0523 23.5 22.5 23.5H11.5C10.9477 23.5 10.5 23.0523 10.5 22.5V11.5Z" fill="white" stroke="var(--mw-icon-border-default-gray, #616161)"/>
<path d="M16.5 14.5H19.5V18" stroke="var(--mw-icon-glyph-disabled-gray, #888889)" stroke-linecap="square"/>
<path d="M17.5 18C17.5 17.7239 17.7239 17.5 18 17.5H21C21.2761 17.5 21.5 17.7239 21.5 18V21C21.5 21.2761 21.2761 21.5 21 21.5H18C17.7239 21.5 17.5 21.2761 17.5 21V18Z" fill="var(--mw-icon-background-red, #FF9D9A)" stroke="var(--mw-icon-glyph-content-red, #902623)"/>
<path d="M12.5 17.5V11.5L17.5 14.5L12.5 17.5Z" fill="var(--mw-icon-background-default-selection, #B4DEFF)" stroke="var(--mw-icon-glyph-content-blue, #1656A8)" stroke-linejoin="round"/>
</svg>
