<svg width="24" height="24" viewBox="0 0 24 24" fill="none" xmlns="http://www.w3.org/2000/svg">
<path d="M0.5 2.5C0.5 1.39543 1.39543 0.5 2.5 0.5H20.5C21.6046 0.5 22.5 1.39543 22.5 2.5V20.5C22.5 21.6046 21.6046 22.5 20.5 22.5H2.5C1.39543 22.5 0.5 21.6046 0.5 20.5V2.5Z" fill="#00A3A3"/>
<path d="M0.5 11.5C0.5 11.5 1.5 7.5 3.5 7.5C5.5 7.5 6 15.5 7.5 15.5C9.5 15.5 8.5 3.5 11 3.5C13.5 3.5 11.8074 19.5 14.5 19.5C16.5 19.5 15.9424 8.5 17.5 8.5C19.1341 8.5 18.5 12.5 21 12.5C21.4337 12.5 22.5 12 22.5 12" stroke="var(--mw-icon-background-default-white, #FFFFFF)"/>
<path d="M0.5 2.5C0.5 1.39543 1.39543 0.5 2.5 0.5H20.5C21.6046 0.5 22.5 1.39543 22.5 2.5V20.5C22.5 21.6046 21.6046 22.5 20.5 22.5H2.5C1.39543 22.5 0.5 21.6046 0.5 20.5V2.5Z" stroke="#02555C" stroke-linejoin="round"/>
</svg>
