<svg width="25" height="24" viewBox="0 0 25 24" fill="none" xmlns="http://www.w3.org/2000/svg">
<rect x="1.5" y="0.5" width="22" height="22" rx="2" fill="var(--mw-icon-background-default-white, #FFFFFF)"/>
<path d="M2.5 13.5H4.5" stroke="var(--mw-icon-background-default-dark-gray, #A6A6A6)" stroke-linecap="round" stroke-linejoin="round"/>
<path d="M6.5 13.5H8.5" stroke="var(--mw-icon-background-default-dark-gray, #A6A6A6)" stroke-linecap="round" stroke-linejoin="round"/>
<path d="M10.5 13.5H12.5" stroke="var(--mw-icon-background-default-dark-gray, #A6A6A6)" stroke-linecap="round" stroke-linejoin="round"/>
<path d="M14.5 13.5H16.5" stroke="var(--mw-icon-background-default-dark-gray, #A6A6A6)" stroke-linecap="round" stroke-linejoin="round"/>
<path d="M18.5 13.5H20.5" stroke="var(--mw-icon-background-default-dark-gray, #A6A6A6)" stroke-linecap="round" stroke-linejoin="round"/>
<path d="M22.5 13.5H23" stroke="var(--mw-icon-background-default-dark-gray, #A6A6A6)" stroke-linecap="round" stroke-linejoin="round"/>
<path d="M1.5 13.5C4.80119 13.3383 6 12 8.5 6.5C11.0432 11.0497 11.5 18.5 23.5 18.5" stroke="#1171BE" stroke-linecap="square" stroke-linejoin="round"/>
<rect x="2" y="1" width="5" height="2" fill="var(--mw-icon-background-medium-yellow, #FFEF91)"/>
<rect x="7" y="1" width="7" height="4" fill="var(--mw-icon-background-medium-yellow, #FFEF91)"/>
<rect x="14" y="1" width="9" height="8" fill="var(--mw-icon-background-medium-yellow, #FFEF91)"/>
<rect x="2" y="3" width="5" height="1" fill="var(--mw-icon-glyph-content-yellow, #674C07)"/>
<rect x="7" y="5" width="7" height="1" fill="var(--mw-icon-glyph-content-yellow, #674C07)"/>
<rect x="1.5" y="0.5" width="22" height="22" rx="2" stroke="var(--mw-icon-border-default-gray, #616161)"/>
</svg>
