<svg width="24" height="24" viewBox="0 0 24 24" fill="none" xmlns="http://www.w3.org/2000/svg">
<path d="M23 3C23.5523 3 24 3.44772 24 4L24 20C24 20.5523 23.5522 21 23 21L21 21C20.4477 21 20 20.5523 20 20L20 4C20 3.44771 20.4477 3 21 3L23 3Z" fill="var(--mw-icon-object-primary, #616160)"/>
<path d="M10.5408 20.0095C9.87524 20.4373 9 19.9595 9 19.1683L9 4.83167C9 4.04051 9.87525 3.56266 10.5408 3.99049L21.6915 11.1588C22.3038 11.5525 22.3038 12.4475 21.6915 12.8412L10.5408 20.0095Z" fill="var(--mw-icon-object-primary, #616160)"/>
<path d="M1.54076 20.0095C0.875244 20.4373 1.44778e-06 19.9595 1.38024e-06 19.1683L1.56364e-07 4.83167C8.88245e-08 4.04051 0.875249 3.56266 1.54076 3.99049L12.6915 11.1588C13.3038 11.5525 13.3038 12.4475 12.6915 12.8412L1.54076 20.0095Z" fill="var(--mw-icon-object-primary, #616160)"/>
</svg>
