<svg width="24" height="24" viewBox="0 0 24 24" fill="none" xmlns="http://www.w3.org/2000/svg">
<path d="M18.4592 3.99054C19.1248 3.56271 20 4.04055 20 4.83171L20 19.1684C20 19.9595 19.1247 20.4374 18.4592 20.0096L7.30851 12.8412C6.69619 12.4476 6.69619 11.5525 7.30852 11.1589L18.4592 3.99054Z" fill="var(--mw-icon-object-primary, #616160)"/>
<path d="M7 3C7.55228 3 8 3.44772 8 4L7.99996 20C7.99996 20.5523 7.55225 21 6.99997 21L5 21C4.44771 21 4 20.5523 4 20L4.00003 4C4.00003 3.44771 4.44775 3 5.00003 3L7 3Z" fill="var(--mw-icon-object-primary, #616160)"/>
</svg>
