<svg width="24" height="24" viewBox="0 0 24 24" fill="none" xmlns="http://www.w3.org/2000/svg">
<path d="M17 21C16.4477 21 16 20.5523 16 20L16 4C16 3.44772 16.4477 3 17 3L19 3C19.5523 3 20 3.44772 20 4L20 20C20 20.5523 19.5523 21 19 21L17 21Z" fill="var(--mw-icon-object-primary, #616160)"/>
<path d="M5.54076 20.0095C4.87524 20.4373 4 19.9595 4 19.1683L4 4.83167C4 4.04051 4.87525 3.56266 5.54076 3.99049L16.6915 11.1588C17.3038 11.5525 17.3038 12.4475 16.6915 12.8412L5.54076 20.0095Z" fill="var(--mw-icon-object-primary, #616160)"/>
</svg>
