<svg width="24" height="24" viewBox="0 0 24 24" fill="none" xmlns="http://www.w3.org/2000/svg">
<path d="M2.5 0.5H21.5C22.6046 0.5 23.5 1.39543 23.5 2.5V21.5C23.5 22.6046 22.6046 23.5 21.5 23.5H2.5C1.39543 23.5 0.5 22.6046 0.5 21.5V2.5C0.5 1.39543 1.39543 0.5 2.5 0.5Z" fill="var(--mw-icon-background-default-white, #FFFFFF)" stroke="var(--mw-icon-border-default-gray, #616161)" stroke-linecap="round"/>
<path d="M13.623 17.6071H18.3849L19.4543 21H21L16.6596 8H15.3482L11 21H12.5379L13.623 17.6071ZM17.9321 16.1964H14.0679L16.0039 10.1161L17.9321 16.1964Z" fill="var(--mw-icon-glyph-content-gray, #616162)"/>
<path d="M8.5 3.5L5.5 3.5L5.5 7.5L3 7.5L7 12L11 7.5L8.5 7.5L8.5 3.5Z" fill="var(--mw-icon-background-default-action, #CBFFBE)" stroke="var(--mw-icon-glyph-content-green, #008014)"/>
</svg>
