<svg width="24" height="24" viewBox="0 0 24 24" fill="none" xmlns="http://www.w3.org/2000/svg">
<path d="M0.5 2.5C0.5 1.39543 1.39543 0.5 2.5 0.5H20.5C21.6046 0.5 22.5 1.39543 22.5 2.5V20.5C22.5 21.6046 21.6046 22.5 20.5 22.5H2.5C1.39543 22.5 0.5 21.6046 0.5 20.5V2.5Z" fill="var(--mw-icon-background-default-white, #FFFFFF)"/>
<path d="M0.5 16.5L3.5 8.5L5.5 12.5L7.5 3.5L9.5 17.5L11.5 9.5L12.5 13.5L14.5 6.5L16.5 13.5L18.5 4.5L22.5 18.5" stroke="#0072BD" stroke-linecap="round" stroke-linejoin="round"/>
<path d="M0.5 17.5L3.5 13.5L6.5 15.5L9.5 11.5L12.5 14.5L16.5 12.5L19.5 17.5L22.5 14.5" stroke="#D95319" stroke-linecap="round" stroke-linejoin="round"/>
<path d="M0.5 2.5C0.5 1.39543 1.39543 0.5 2.5 0.5H20.5C21.6046 0.5 22.5 1.39543 22.5 2.5V20.5C22.5 21.6046 21.6046 22.5 20.5 22.5H2.5C1.39543 22.5 0.5 21.6046 0.5 20.5V2.5Z" stroke="var(--mw-icon-border-default-gray, #616161)" stroke-linejoin="round"/>
</svg>
