<svg width="24" height="24" viewBox="0 0 24 24" fill="none" xmlns="http://www.w3.org/2000/svg">
<path d="M0.5 18.5V4.5C0.5 2.29086 2.29086 0.5 4.5 0.5H18.5C20.7091 0.5 22.5 2.29086 22.5 4.5V18.5C22.5 20.7091 20.7091 22.5 18.5 22.5H4.5C2.29086 22.5 0.5 20.7091 0.5 18.5Z" fill="var(--mw-icon-background-default-white, #FFFFFF)"/>
<path d="M0.5 16C2 15 5.19333 6.5 8.32222 6.5C12.2333 6.5 15.6556 20 22.5 20" stroke="#D95319" stroke-linejoin="round"/>
<path d="M0.5 11C2 11 5.5 2.5 5.5 2.5L6.5 4.5H10L10.5 2.5L15.5 10L17.5 7.5L16.589 12C16.589 12 21.2276 18 22.5 18" stroke="#0072BD" stroke-linejoin="round"/>
<path d="M0.5 18.5V4.5C0.5 2.29086 2.29086 0.5 4.5 0.5H18.5C20.7091 0.5 22.5 2.29086 22.5 4.5V18.5C22.5 20.7091 20.7091 22.5 18.5 22.5H4.5C2.29086 22.5 0.5 20.7091 0.5 18.5Z" stroke="#B7312C" stroke-linecap="round"/>
</svg>
