<svg width="24" height="24" viewBox="0 0 24 24" fill="none" xmlns="http://www.w3.org/2000/svg">
<rect x="0.5" y="0.5" width="22" height="22" rx="2" fill="var(--mw-icon-background-default-white, #FFFFFF)"/>
<path d="M0.5 10.5C0.5 10.5 1.5 6.5 3.5 6.5C6 6.5 6.5 16.5 9.5 16.5C12 16.5 12 8.5 14.5 8.5C16.5 8.5 16.5 12.5 19.5 12.5C22 12.5 22.5 8.5 22.5 8.5" stroke="var(--mw-icon-glyph-content-light-blue, #278CDD)"/>
<path d="M8 19.5C8 18.6716 8.67157 18 9.5 18C10.3284 18 11 18.6716 11 19.5C11 20.3284 10.3284 21 9.5 21C8.67157 21 8 20.3284 8 19.5Z" fill="var(--mw-icon-glyph-content-dark-gray, #333333)"/>
<path d="M11 6.5C11 5.67157 11.6716 5 12.5 5C13.3284 5 14 5.67157 14 6.5C14 7.32843 13.3284 8 12.5 8C11.6716 8 11 7.32843 11 6.5Z" fill="var(--mw-icon-glyph-content-dark-gray, #333333)"/>
<path d="M18 15.5C18 14.6716 18.6716 14 19.5 14C20.3284 14 21 14.6716 21 15.5C21 16.3284 20.3284 17 19.5 17C18.6716 17 18 16.3284 18 15.5Z" fill="var(--mw-icon-glyph-content-dark-gray, #333333)"/>
<path d="M3 3.5C3 2.67157 3.67157 2 4.5 2C5.32843 2 6 2.67157 6 3.5C6 4.32843 5.32843 5 4.5 5C3.67157 5 3 4.32843 3 3.5Z" fill="var(--mw-icon-glyph-content-dark-gray, #333333)"/>
<rect x="0.5" y="0.5" width="22" height="22" rx="2" stroke="var(--mw-icon-border-default-gray, #616161)"/>
</svg>
