<svg width="24" height="24" viewBox="0 0 24 24" fill="none" xmlns="http://www.w3.org/2000/svg">
<rect x="0.5" y="0.5" width="18" height="18" rx="2" fill="var(--mw-icon-background-default-light-gray, #F5F5F5)"/>
<path d="M3 3H8V13H3" stroke="#1171BE" stroke-width="2" stroke-linecap="square" stroke-linejoin="round"/>
<path d="M5 6H13V9.33333V16H10H5" stroke="#EDB120" stroke-width="2" stroke-linecap="square" stroke-linejoin="round"/>
<rect x="0.5" y="0.5" width="18" height="18" rx="2" stroke="var(--mw-icon-border-default-gray, #616161)"/>
<path d="M10.5 12.5C10.5 11.3954 11.3954 10.5 12.5 10.5H21.5C22.6046 10.5 23.5 11.3954 23.5 12.5V21.5C23.5 22.6046 22.6046 23.5 21.5 23.5H12.5C11.3954 23.5 10.5 22.6046 10.5 21.5V12.5Z" fill="var(--mw-icon-background-default-white, #FFFFFF)"/>
<path d="M14.4999 18.5L11 22L12 23L15.4999 19.5L14.4999 18.5Z" fill="var(--mw-icon-object-primary, #616160)" stroke="var(--mw-icon-glyph-content-gray, #616162)" stroke-linejoin="round"/>
<path d="M16.5 16.5L14.5 18.5L15.5 19.5L17.5 17.5L16.5 16.5Z" fill="var(--mw-icon-object-secondary, #FFFFFE)" stroke="var(--mw-icon-glyph-content-gray, #616162)" stroke-linejoin="round"/>
<path d="M16.5 12.5V14.5M12.5 13.5L14.5 15.5M18.5 19.5L20.5 21.5M21.5 17.5H19.5M20.5 13.5L18.5 15.5" stroke="var(--mw-icon-glyph-disabled-gray, #888889)" stroke-linecap="round" stroke-linejoin="round"/>
<path d="M10.5 12.5C10.5 11.3954 11.3954 10.5 12.5 10.5H21.5C22.6046 10.5 23.5 11.3954 23.5 12.5V21.5C23.5 22.6046 22.6046 23.5 21.5 23.5H12.5C11.3954 23.5 10.5 22.6046 10.5 21.5V12.5Z" stroke="var(--mw-icon-border-default-gray, #616161)"/>
</svg>
