<svg width="24" height="24" viewBox="0 0 24 24" fill="none" xmlns="http://www.w3.org/2000/svg">
<path d="M0.5 21.5V7.5C0.5 6.94772 0.947715 6.5 1.5 6.5H15.5C16.0523 6.5 16.5 6.94772 16.5 7.5V21.5C16.5 22.0523 16.0523 22.5 15.5 22.5H1.5C0.947715 22.5 0.5 22.0523 0.5 21.5Z" fill="var(--mw-icon-background-default-medium-gray, #D9D9D9)" stroke="var(--mw-icon-border-disabled-gray, #888888)"/>
<path d="M4.5 7V22M8.5 7V22M12.5 7V22M1 10.5H16M1 14.5H16M1 18.5H16" stroke="var(--mw-icon-border-disabled-gray, #888888)"/>
<rect x="11.5" y="0.5" width="12" height="12" rx="1" fill="var(--mw-icon-background-default-selection, #B4DEFF)" stroke="var(--mw-icon-border-default-blue, #1656A7)"/>
<path d="M12 4.5H23M15.5 1L15.5 12M19.5 1L19.5 12M12 8.5H23" stroke="var(--mw-icon-border-default-blue, #1656A7)"/>
</svg>
