<svg width="24" height="24" viewBox="0 0 24 24" fill="none" xmlns="http://www.w3.org/2000/svg">
<path d="M0.5 2.5C0.5 1.39543 1.39543 0.5 2.5 0.5H20.5C21.6046 0.5 22.5 1.39543 22.5 2.5V20.5C22.5 21.6046 21.6046 22.5 20.5 22.5H2.5C1.39543 22.5 0.5 21.6046 0.5 20.5V2.5Z" fill="var(--mw-icon-background-default-white, #FFFFFF)" stroke="var(--mw-icon-border-default-gray, #616161)"/>
<path d="M17.5 5.5L20.5 2.5M5.5 5.5L2.5 2.5M2.5 20.5L5.5 17.5M20.5 20.5L17.5 17.5" stroke="var(--mw-icon-glyph-content-gray, #616162)" stroke-linecap="round" stroke-linejoin="round"/>
<path d="M6 17L6 20L3 17H6Z" fill="var(--mw-icon-glyph-content-gray, #616162)"/>
<path d="M17 17H20L17 20V17Z" fill="var(--mw-icon-glyph-content-gray, #616162)"/>
<path d="M17 6V3L20 6L17 6Z" fill="var(--mw-icon-glyph-content-gray, #616162)"/>
<path d="M6 6H3L6 3V6Z" fill="var(--mw-icon-glyph-content-gray, #616162)"/>
<path d="M11 12.5C11 13.3284 10.3284 14 9.5 14C8.67157 14 8 13.3284 8 12.5C8 11.6716 8.67157 11 9.5 11C10.3284 11 11 11.6716 11 12.5Z" fill="#0072BD"/>
<path d="M15 13.5C15 14.3284 14.3284 15 13.5 15C12.6716 15 12 14.3284 12 13.5C12 12.6716 12.6716 12 13.5 12C14.3284 12 15 12.6716 15 13.5Z" fill="#0072BD"/>
<path d="M14 9.5C14 10.3284 13.3284 11 12.5 11C11.6716 11 11 10.3284 11 9.5C11 8.67157 11.6716 8 12.5 8C13.3284 8 14 8.67157 14 9.5Z" fill="#0072BD"/>
<path d="M6.5 6.5H16.5V16.5H6.5V6.5Z" stroke="var(--mw-icon-glyph-content-gray, #616162)" stroke-linejoin="round"/>
</svg>
