<svg width="24" height="24" viewBox="0 0 24 24" fill="none" xmlns="http://www.w3.org/2000/svg">
<path d="M20.5 0.5H2.5C1.39543 0.5 0.5 1.39543 0.5 2.5V20.5C0.5 21.6046 1.39543 22.5 2.5 22.5H20.5C21.6046 22.5 22.5 21.6046 22.5 20.5V2.5C22.5 1.39543 21.6046 0.5 20.5 0.5Z" fill="var(--mw-icon-background-default-white, #FFFFFF)"/>
<path d="M0.5 6.5C4.89199 11.297 6.5 10.5 9.5001 10.5C13.8076 16.7097 17.4207 18.8951 22.5 20.5" stroke="#D95319" stroke-linejoin="round"/>
<path d="M1 1.5C5.39199 6.29698 6.5 5.5 9.99998 5.50001C14.3075 11.7097 17.4207 14.3951 22.5 16" stroke="#0072BD" stroke-linejoin="round"/>
<path d="M17 1V3H18V1H17Z" fill="var(--mw-icon-glyph-content-dark-gray, #333333)"/>
<path d="M17 5V7H18V5H17Z" fill="var(--mw-icon-glyph-content-dark-gray, #333333)"/>
<path d="M17 9V11H18V9H17Z" fill="var(--mw-icon-glyph-content-dark-gray, #333333)"/>
<path d="M17 13V15H18V13H17Z" fill="var(--mw-icon-glyph-content-dark-gray, #333333)"/>
<path d="M17 17V19H18V17H17Z" fill="var(--mw-icon-glyph-content-dark-gray, #333333)"/>
<path d="M17 21V22H18V21H17Z" fill="var(--mw-icon-glyph-content-dark-gray, #333333)"/>
<path d="M1 19H3V18H1V19Z" fill="#D95319"/>
<path d="M5 19H7V18H5V19Z" fill="#D95319"/>
<path d="M9 19H11V18H9V19Z" fill="#D95319"/>
<path d="M13 19H15V18H13V19Z" fill="#D95319"/>
<path d="M17 19H19V18H17V19Z" fill="#D95319"/>
<path d="M21 19H22V18H21V19Z" fill="#D95319"/>
<path d="M1 14H3V13H1V14Z" fill="#0072BD"/>
<path d="M5 14H7V13H5V14Z" fill="#0072BD"/>
<path d="M9 14H11V13H9V14Z" fill="#0072BD"/>
<path d="M13 14H15V13H13V14Z" fill="#0072BD"/>
<path d="M17 14H19V13H17V14Z" fill="#0072BD"/>
<path d="M21 14H22V13H21V14Z" fill="#0072BD"/>
<path d="M20.5 0.5H2.5C1.39543 0.5 0.5 1.39543 0.5 2.5V20.5C0.5 21.6046 1.39543 22.5 2.5 22.5H20.5C21.6046 22.5 22.5 21.6046 22.5 20.5V2.5C22.5 1.39543 21.6046 0.5 20.5 0.5Z" stroke="var(--mw-icon-border-default-gray, #616161)" stroke-linecap="round"/>
</svg>
