<svg width="24" height="24" viewBox="0 0 24 24" fill="none" xmlns="http://www.w3.org/2000/svg">
<path d="M0.5 18.5V4.5C0.5 2.29086 2.29086 0.5 4.5 0.5H18.5C20.7091 0.5 22.5 2.29086 22.5 4.5V18.5C22.5 20.7091 20.7091 22.5 18.5 22.5H4.5C2.29086 22.5 0.5 20.7091 0.5 18.5Z" fill="var(--mw-icon-background-default-white, #FFFFFF)"/>
<path d="M0.5 18.5V4.5C0.5 2.29086 2.29086 0.5 4.5 0.5L7.5 0.5V22.5H4.5C2.29086 22.5 0.5 20.7091 0.5 18.5Z" fill="#EDB120" stroke="#EDB120" stroke-linecap="round"/>
<path d="M13 10L12.5 11H14.2548L12.9002 17.1051C12.5377 18.8136 12.0333 19.6678 11.3713 19.6678C11.1821 19.6678 11.056 19.5571 11.056 19.4147C11.056 19.2407 11.1979 19.1616 11.1979 18.9559C11.1979 18.6237 10.9615 18.3706 10.5989 18.3706C10.268 18.3706 10 18.6712 10 19.035C10 19.5887 10.5359 20 11.2452 20C12.6795 20 13.7356 18.4497 14.3975 15.5232L15.5 11H17L17.5 10H15.6112C16.0683 7.50057 16.683 6.34802 17.5657 6.34802C17.7863 6.34802 17.9124 6.42712 17.9124 6.55367C17.9124 6.69605 17.7548 6.77514 17.7548 7.04407C17.7548 7.42373 18.0543 7.66102 18.338 7.66102C18.7005 7.66102 19 7.32881 19 6.98079C19 6.4113 18.4168 6 17.6445 6C16.683 6 16.0368 6.53785 15.5639 7.21808C15.0438 7.96158 14.7443 8.87684 14.3975 10H13Z" fill="var(--mw-icon-glyph-content-gray, #616162)"/>
<path fill-rule="evenodd" clip-rule="evenodd" d="M14.2548 11L12.9002 17.1051C12.5377 18.8136 12.0333 19.6678 11.3713 19.6678C11.1821 19.6678 11.056 19.5571 11.056 19.4147C11.056 19.3313 11.0886 19.2697 11.1225 19.2056C11.1594 19.1358 11.1979 19.063 11.1979 18.9559C11.1979 18.6237 10.9615 18.3706 10.5989 18.3706C10.268 18.3706 10 18.6712 10 19.035C10 19.5887 10.5359 20 11.2452 20C12.6795 20 13.7356 18.4497 14.3975 15.5232L15.5 11H17L17.5 10H15.6112C15.6294 9.90058 15.6793 9.75817 15.6979 9.66314C16.1467 7.36903 16.7181 6.34802 17.5657 6.34802C17.7863 6.34802 17.9124 6.42712 17.9124 6.55367C17.9124 6.61363 17.8845 6.66237 17.8521 6.7188C17.8076 6.79634 17.7548 6.8884 17.7548 7.04407C17.7548 7.42373 18.0543 7.66102 18.338 7.66102C18.7005 7.66102 19 7.32881 19 6.98079C19 6.4113 18.4168 6 17.6445 6C16.683 6 16.0368 6.53785 15.5639 7.21808C15.045 7.95988 14.7455 8.87286 14.3999 9.99231L14.3975 10H13L12.5 11H14.2548Z" fill="var(--mw-icon-glyph-content-gray, #616162)"/>
<path d="M6.5 19C7.27365 19 8 18.66 8 15.66V10C8 8 7.93656 4 11.2463 4C12.1489 4 13 4.09559 13 5.16C13 5.66 12.6017 6.16 12 6.16C11.0901 6.16001 11.5662 5.16 10.5 5.16C9.50949 5.16 10 7 10 9V14.66C10 19.16 7.17625 20 5.5 20C5 20 4 20 4 18.5C4 17.8547 4.5 17.5 5 17.5C6.5 17.5 5.72635 19 6.5 19Z" fill="var(--mw-icon-glyph-content-gray, #616162)"/>
<path d="M0.5 18.5V4.5C0.5 2.29086 2.29086 0.5 4.5 0.5H18.5C20.7091 0.5 22.5 2.29086 22.5 4.5V18.5C22.5 20.7091 20.7091 22.5 18.5 22.5H4.5C2.29086 22.5 0.5 20.7091 0.5 18.5Z" stroke="var(--mw-icon-border-default-gray, #616161)" stroke-linecap="round"/>
</svg>
