<svg width="24" height="24" viewBox="0 0 24 24" fill="none" xmlns="http://www.w3.org/2000/svg">
<path d="M0.5 21.5V2.5C0.5 1.39543 1.39543 0.5 2.5 0.5H21.5C22.6046 0.5 23.5 1.39543 23.5 2.5V21.5C23.5 22.6046 22.6046 23.5 21.5 23.5H2.5C1.39543 23.5 0.5 22.6046 0.5 21.5Z" fill="var(--mw-icon-background-default-white, #FFFFFF)" stroke="var(--mw-icon-border-default-gray, #616161)" stroke-linecap="square"/>
<path d="M19.095 9.32967H16.91L16.48 11H15L17.385 3H18.66L21 11H19.52L19.095 9.32967ZM17.255 8.01648H18.765L18.02 5.07143L17.255 8.01648Z" fill="var(--mw-icon-glyph-content-gray, #616162)"/>
<path d="M16.9286 19.7527H21V21H15V20.0549L18.9812 14.2582H15.0113V13H20.8985L20.9041 13.9176L16.9286 19.7527Z" fill="var(--mw-icon-glyph-content-gray, #616162)"/>
<path d="M9.5 15.5L5.5 15.5L5.5 9.5L2 9.5L7.5 2.5L13 9.5L9.5 9.5L9.5 15.5Z" fill="var(--mw-icon-background-default-action, #CBFFBE)" stroke="var(--mw-icon-border-default-green, #008013)"/>
</svg>
