<svg width="24" height="24" viewBox="0 0 24 24" fill="none" xmlns="http://www.w3.org/2000/svg">
<path d="M0.5 2.5C0.5 1.39543 1.39543 0.5 2.5 0.5H20.5C21.6046 0.5 22.5 1.39543 22.5 2.5V20.5C22.5 21.6046 21.6046 22.5 20.5 22.5H2.5C1.39543 22.5 0.5 21.6046 0.5 20.5V2.5Z" fill="var(--mw-icon-background-default-white, #FFFFFF)" stroke="var(--mw-icon-border-default-gray, #616161)" stroke-linejoin="round"/>
<path d="M6.74117 13.1377C6.74117 13.0067 6.72162 12.8897 6.68251 12.7868C6.6464 12.6807 6.57871 12.5856 6.47943 12.5013C6.38315 12.414 6.24626 12.3298 6.06875 12.2487C5.89426 12.1644 5.66861 12.0771 5.39182 11.9866C5.08495 11.8868 4.79913 11.7745 4.53438 11.6497C4.26962 11.525 4.03646 11.3799 3.83488 11.2146C3.63632 11.0492 3.48137 10.859 3.37006 10.6437C3.25874 10.4254 3.20308 10.1727 3.20308 9.8857C3.20308 9.60495 3.26024 9.34915 3.37457 9.11832C3.4919 8.88748 3.65738 8.68939 3.87098 8.52406C4.08459 8.35561 4.33581 8.22616 4.62463 8.1357C4.91647 8.04523 5.23839 8 5.59039 8C6.07778 8 6.49898 8.09202 6.854 8.27607C7.21202 8.46012 7.48881 8.70967 7.68436 9.02473C7.87992 9.33979 7.9777 9.69385 7.9777 10.0869H6.74117C6.74117 9.87478 6.69755 9.68761 6.6103 9.5254C6.52606 9.36319 6.39669 9.23529 6.22219 9.14171C6.0507 9.04813 5.83409 9.00134 5.57234 9.00134C5.31962 9.00134 5.10902 9.04033 4.94054 9.11832C4.77506 9.1963 4.65021 9.30236 4.56597 9.4365C4.48474 9.57063 4.44412 9.72037 4.44412 9.8857C4.44412 10.0105 4.4727 10.1228 4.52986 10.2226C4.58703 10.3193 4.67277 10.4113 4.7871 10.4987C4.90142 10.5829 5.04283 10.6624 5.21131 10.7373C5.3828 10.809 5.58136 10.8808 5.80701 10.9525C6.16804 11.0648 6.48394 11.1896 6.75471 11.3269C7.02849 11.4641 7.25564 11.6201 7.43616 11.7948C7.61968 11.9695 7.75657 12.166 7.84683 12.3844C7.94009 12.6027 7.98673 12.8507 7.98673 13.1283C7.98673 13.4216 7.93107 13.6836 7.81975 13.9144C7.70843 14.1453 7.54898 14.3418 7.34139 14.504C7.13379 14.6662 6.88408 14.7894 6.59225 14.8737C6.30342 14.9579 5.98 15 5.62198 15C5.30307 15 4.98717 14.9563 4.67428 14.869C4.36439 14.7785 4.08309 14.6444 3.83037 14.4666C3.57765 14.2857 3.37607 14.0579 3.22564 13.7834C3.07521 13.5058 3 13.1814 3 12.8102H4.24555C4.24555 13.0254 4.27865 13.2094 4.34484 13.3623C4.41403 13.512 4.51031 13.6353 4.63366 13.732C4.76002 13.8255 4.90744 13.8942 5.07592 13.9378C5.2444 13.9815 5.42642 14.0033 5.62198 14.0033C5.8747 14.0033 6.08229 13.9675 6.24476 13.8957C6.41023 13.8209 6.53358 13.7179 6.61481 13.5869C6.69905 13.4559 6.74117 13.3061 6.74117 13.1377Z" fill="var(--mw-icon-glyph-content-dark-gray, #333333)"/>
<path d="M14.2641 11.3269V11.6778C14.2641 12.1925 14.1979 12.6557 14.0656 13.0675C13.9332 13.4762 13.7452 13.824 13.5015 14.111C13.2578 14.398 12.9674 14.6179 12.6305 14.7707C12.2935 14.9236 11.9189 15 11.5068 15C11.1006 15 10.7275 14.9236 10.3876 14.7707C10.0506 14.6179 9.75878 14.398 9.51208 14.111C9.26537 13.824 9.07433 13.4762 8.93894 13.0675C8.80356 12.6557 8.73586 12.1925 8.73586 11.6778V11.3269C8.73586 10.809 8.80356 10.3458 8.93894 9.93717C9.07433 9.52852 9.26387 9.1807 9.50757 8.89372C9.75126 8.60361 10.0416 8.38213 10.3786 8.22928C10.7185 8.07643 11.0916 8 11.4977 8C11.9099 8 12.2845 8.07643 12.6214 8.22928C12.9584 8.38213 13.2487 8.60361 13.4924 8.89372C13.7391 9.1807 13.9287 9.52852 14.0611 9.93717C14.1964 10.3458 14.2641 10.809 14.2641 11.3269ZM13.0096 11.6778V11.3175C13.0096 10.9463 12.9765 10.6203 12.9103 10.3396C12.8441 10.0557 12.7463 9.81707 12.6169 9.62366C12.4876 9.43026 12.3281 9.28521 12.1386 9.1885C11.949 9.08868 11.7354 9.03877 11.4977 9.03877C11.2571 9.03877 11.0434 9.08868 10.8569 9.1885C10.6734 9.28521 10.5169 9.43026 10.3876 9.62366C10.2582 9.81707 10.1589 10.0557 10.0897 10.3396C10.0235 10.6203 9.99044 10.9463 9.99044 11.3175V11.6778C9.99044 12.0459 10.0235 12.3719 10.0897 12.6557C10.1589 12.9396 10.2582 13.1798 10.3876 13.3763C10.52 13.5697 10.6794 13.7164 10.8659 13.8162C11.0525 13.916 11.2661 13.9659 11.5068 13.9659C11.7475 13.9659 11.9611 13.916 12.1476 13.8162C12.3341 13.7164 12.4906 13.5697 12.6169 13.3763C12.7463 13.1798 12.8441 12.9396 12.9103 12.6557C12.9765 12.3719 13.0096 12.0459 13.0096 11.6778Z" fill="var(--mw-icon-glyph-content-dark-gray, #333333)"/>
<path d="M18.7544 13.1377C18.7544 13.0067 18.7349 12.8897 18.6958 12.7868C18.6597 12.6807 18.592 12.5856 18.4927 12.5013C18.3964 12.414 18.2595 12.3298 18.082 12.2487C17.9075 12.1644 17.6819 12.0771 17.4051 11.9866C17.0982 11.8868 16.8124 11.7745 16.5477 11.6497C16.2829 11.525 16.0497 11.3799 15.8482 11.2146C15.6496 11.0492 15.4946 10.859 15.3833 10.6437C15.272 10.4254 15.2164 10.1727 15.2164 9.8857C15.2164 9.60495 15.2735 9.34915 15.3878 9.11832C15.5052 8.88748 15.6706 8.68939 15.8843 8.52406C16.0979 8.35561 16.3491 8.22616 16.6379 8.1357C16.9297 8.04523 17.2517 8 17.6037 8C18.0911 8 18.5123 8.09202 18.8673 8.27607C19.2253 8.46012 19.5021 8.70967 19.6976 9.02473C19.8932 9.33979 19.991 9.69385 19.991 10.0869H18.7544C18.7544 9.87478 18.7108 9.68761 18.6236 9.5254C18.5393 9.36319 18.41 9.23529 18.2355 9.14171C18.064 9.04813 17.8474 9.00134 17.5856 9.00134C17.3329 9.00134 17.1223 9.04033 16.9538 9.11832C16.7883 9.1963 16.6635 9.30236 16.5792 9.4365C16.498 9.57063 16.4574 9.72037 16.4574 9.8857C16.4574 10.0105 16.486 10.1228 16.5431 10.2226C16.6003 10.3193 16.686 10.4113 16.8004 10.4987C16.9147 10.5829 17.0561 10.6624 17.2246 10.7373C17.3961 10.809 17.5946 10.8808 17.8203 10.9525C18.1813 11.0648 18.4972 11.1896 18.768 11.3269C19.0418 11.4641 19.2689 11.6201 19.4494 11.7948C19.633 11.9695 19.7698 12.166 19.8601 12.3844C19.9534 12.6027 20 12.8507 20 13.1283C20 13.4216 19.9443 13.6836 19.833 13.9144C19.7217 14.1453 19.5623 14.3418 19.3547 14.504C19.1471 14.6662 18.8974 14.7894 18.6055 14.8737C18.3167 14.9579 17.9933 15 17.6353 15C17.3163 15 17.0004 14.9563 16.6875 14.869C16.3777 14.7785 16.0964 14.6444 15.8436 14.4666C15.5909 14.2857 15.3893 14.0579 15.2389 13.7834C15.0885 13.5058 15.0133 13.1814 15.0133 12.8102H16.2588C16.2588 13.0254 16.2919 13.2094 16.3581 13.3623C16.4273 13.512 16.5236 13.6353 16.6469 13.732C16.7733 13.8255 16.9207 13.8942 17.0892 13.9378C17.2577 13.9815 17.4397 14.0033 17.6353 14.0033C17.888 14.0033 18.0956 13.9675 18.258 13.8957C18.4235 13.8209 18.5469 13.7179 18.6281 13.5869C18.7123 13.4559 18.7544 13.3061 18.7544 13.1377Z" fill="var(--mw-icon-glyph-content-dark-gray, #333333)"/>
</svg>
