<svg width="24" height="24" viewBox="0 0 24 24" fill="none" xmlns="http://www.w3.org/2000/svg">
<path d="M23.5 21.5C23.5 22.6046 22.6046 23.5 21.5 23.5L2.5 23.5C1.39543 23.5 0.5 22.6046 0.5 21.5L0.5 2.5C0.5 1.39543 1.39543 0.5 2.5 0.5L21.5 0.5C22.6046 0.5 23.5 1.39543 23.5 2.5L23.5 21.5Z" fill="var(--mw-icon-background-default-white, #FFFFFF)" stroke="var(--mw-icon-border-default-gray, #616161)"/>
<path d="M16.5 18.5V12.7445C16.5 12.5902 16.4288 12.4446 16.307 12.3499L8.30697 6.12764C7.97854 5.8722 7.5 6.10625 7.5 6.52232L7.5 18.5" stroke="var(--mw-icon-glyph-content-gray, #616162)" stroke-linecap="square"/>
<path d="M5.5 12.5C5.5 11.3954 6.39543 10.5 7.5 10.5C8.60457 10.5 9.5 11.3954 9.5 12.5C9.5 13.6046 8.60457 14.5 7.5 14.5C6.39543 14.5 5.5 13.6046 5.5 12.5Z" fill="var(--mw-icon-background-default-action, #CBFFBE)"/>
<path d="M5.5 18.5C5.5 17.3954 6.39543 16.5 7.5 16.5C8.60457 16.5 9.5 17.3954 9.5 18.5C9.5 19.6046 8.60457 20.5 7.5 20.5C6.39543 20.5 5.5 19.6046 5.5 18.5Z" fill="var(--mw-icon-background-default-action, #CBFFBE)"/>
<path d="M5.5 12.5C5.5 11.3954 6.39543 10.5 7.5 10.5C8.60457 10.5 9.5 11.3954 9.5 12.5C9.5 13.6046 8.60457 14.5 7.5 14.5C6.39543 14.5 5.5 13.6046 5.5 12.5Z" stroke="var(--mw-icon-glyph-content-green, #008014)"/>
<path d="M5.5 18.5C5.5 17.3954 6.39543 16.5 7.5 16.5C8.60457 16.5 9.5 17.3954 9.5 18.5C9.5 19.6046 8.60457 20.5 7.5 20.5C6.39543 20.5 5.5 19.6046 5.5 18.5Z" stroke="var(--mw-icon-glyph-content-green, #008014)"/>
<path d="M14.5 18.5C14.5 17.3954 15.3954 16.5 16.5 16.5C17.6046 16.5 18.5 17.3954 18.5 18.5C18.5 19.6046 17.6046 20.5 16.5 20.5C15.3954 20.5 14.5 19.6046 14.5 18.5Z" fill="var(--mw-icon-background-default-medium-gray, #D9D9D9)"/>
<path d="M14.5 12.5C14.5 11.3954 15.3954 10.5 16.5 10.5C17.6046 10.5 18.5 11.3954 18.5 12.5C18.5 13.6046 17.6046 14.5 16.5 14.5C15.3954 14.5 14.5 13.6046 14.5 12.5Z" fill="var(--mw-icon-background-default-medium-gray, #D9D9D9)"/>
<path d="M14.5 18.5C14.5 17.3954 15.3954 16.5 16.5 16.5C17.6046 16.5 18.5 17.3954 18.5 18.5C18.5 19.6046 17.6046 20.5 16.5 20.5C15.3954 20.5 14.5 19.6046 14.5 18.5Z" stroke="var(--mw-icon-glyph-content-gray, #616162)"/>
<path d="M14.5 12.5C14.5 11.3954 15.3954 10.5 16.5 10.5C17.6046 10.5 18.5 11.3954 18.5 12.5C18.5 13.6046 17.6046 14.5 16.5 14.5C15.3954 14.5 14.5 13.6046 14.5 12.5Z" stroke="var(--mw-icon-glyph-content-gray, #616162)"/>
<path d="M4.5 5.5C4.5 3.84315 5.84315 2.5 7.5 2.5C9.15685 2.5 10.5 3.84315 10.5 5.5C10.5 7.15685 9.15685 8.5 7.5 8.5C5.84315 8.5 4.5 7.15685 4.5 5.5Z" fill="var(--mw-icon-background-default-medium-gray, #D9D9D9)" stroke="var(--mw-icon-glyph-content-gray, #616162)"/>
<path d="M6.5 5.5C6.5 4.94772 6.94772 4.5 7.5 4.5C8.05228 4.5 8.5 4.94772 8.5 5.5C8.5 6.05228 8.05228 6.5 7.5 6.5C6.94772 6.5 6.5 6.05228 6.5 5.5Z" fill="var(--mw-icon-background-default-action, #CBFFBE)" stroke="var(--mw-icon-glyph-content-green, #008014)"/>
</svg>
