<svg width="24" height="24" viewBox="0 0 24 24" fill="none" xmlns="http://www.w3.org/2000/svg">
<path d="M0.5 2.5C0.5 1.39543 1.39543 0.5 2.5 0.5H20.5C21.6046 0.5 22.5 1.39543 22.5 2.5V21.5C22.5 22.6046 21.6046 23.5 20.5 23.5H2.5C1.39543 23.5 0.5 22.6046 0.5 21.5V2.5Z" fill="var(--mw-icon-background-default-white, #FFFFFF)" stroke="var(--mw-icon-border-default-gray, #616161)"/>
<path d="M11.5 11V19.5M5.5 15.5H8.5C10.1569 15.5 11.5 14.1569 11.5 12.5M11.5 12.5V11.5M11.5 12.5C11.5 14.1569 12.8431 15.5 14.5 15.5H17.5" stroke="var(--mw-icon-glyph-content-gray, #616162)"/>
<path d="M13.5 19.5C13.5 20.6046 12.6046 21.5 11.5 21.5C10.3954 21.5 9.5 20.6046 9.5 19.5C9.5 18.3954 10.3954 17.5 11.5 17.5C12.6046 17.5 13.5 18.3954 13.5 19.5Z" fill="var(--mw-icon-background-default-action, #CBFFBE)"/>
<path d="M7.5 15.5C7.5 16.6046 6.60457 17.5 5.5 17.5C4.39543 17.5 3.5 16.6046 3.5 15.5C3.5 14.3954 4.39543 13.5 5.5 13.5C6.60457 13.5 7.5 14.3954 7.5 15.5Z" fill="var(--mw-icon-background-default-action, #CBFFBE)"/>
<path d="M19.5 15.5C19.5 16.6046 18.6046 17.5 17.5 17.5C16.3954 17.5 15.5 16.6046 15.5 15.5C15.5 14.3954 16.3954 13.5 17.5 13.5C18.6046 13.5 19.5 14.3954 19.5 15.5Z" fill="var(--mw-icon-background-default-action, #CBFFBE)"/>
<path d="M13.5 19.5C13.5 20.6046 12.6046 21.5 11.5 21.5C10.3954 21.5 9.5 20.6046 9.5 19.5C9.5 18.3954 10.3954 17.5 11.5 17.5C12.6046 17.5 13.5 18.3954 13.5 19.5Z" stroke="var(--mw-icon-glyph-content-green, #008014)"/>
<path d="M7.5 15.5C7.5 16.6046 6.60457 17.5 5.5 17.5C4.39543 17.5 3.5 16.6046 3.5 15.5C3.5 14.3954 4.39543 13.5 5.5 13.5C6.60457 13.5 7.5 14.3954 7.5 15.5Z" stroke="var(--mw-icon-glyph-content-green, #008014)"/>
<path d="M19.5 15.5C19.5 16.6046 18.6046 17.5 17.5 17.5C16.3954 17.5 15.5 16.6046 15.5 15.5C15.5 14.3954 16.3954 13.5 17.5 13.5C18.6046 13.5 19.5 14.3954 19.5 15.5Z" stroke="var(--mw-icon-glyph-content-green, #008014)"/>
<path d="M13.5 10.5L9.5 10.5L9.5 8.5L6.5 8.5L11.5 2L16.5 8.5L13.5 8.5L13.5 10.5Z" fill="var(--mw-icon-background-default-action, #CBFFBE)" stroke="var(--mw-icon-glyph-content-green, #008014)"/>
</svg>
