<svg width="24" height="24" viewBox="0 0 24 24" fill="none" xmlns="http://www.w3.org/2000/svg">
<path d="M16.5 0.5H2.5C1.39543 0.5 0.5 1.39543 0.5 2.5V16.5C0.5 17.6046 1.39543 18.5 2.5 18.5H16.5C17.6046 18.5 18.5 17.6046 18.5 16.5V2.5C18.5 1.39543 17.6046 0.5 16.5 0.5Z" fill="var(--mw-icon-glyph-disabled-gray, #888889)" stroke="var(--mw-icon-border-default-gray, #616161)"/>
<path d="M2.5 12.9091V5.63634L9.5 9.2727V16.5454L2.5 12.9091Z" fill="var(--mw-icon-background-default-white, #FFFFFF)"/>
<path d="M16.5 12.9091V5.63634L9.5 9.2727V16.5454L16.5 12.9091Z" fill="var(--mw-icon-background-default-medium-gray, #D9D9D9)"/>
<path d="M16.5 5.63634L9.5 2L2.5 5.63634L9.5 9.2727L16.5 5.63634Z" fill="white"/>
<path d="M2.5 5.63634V12.9091L9.5 16.5454M2.5 5.63634L9.5 9.2727M2.5 5.63634L9.5 2L16.5 5.63634M9.5 9.2727V16.5454M9.5 9.2727L16.5 5.63634M9.5 16.5454L16.5 12.9091V5.63634" stroke="var(--mw-icon-glyph-disabled-gray, #888889)" stroke-linecap="round" stroke-linejoin="round"/>
<path d="M22.5 10.5C22.5 9.39543 21.6046 8.5 20.5 8.5H10.5C9.39543 8.5 8.5 9.39543 8.5 10.5V20.5C8.5 21.6046 9.39543 22.5 10.5 22.5H20.5C21.6046 22.5 22.5 21.6046 22.5 20.5V10.5Z" fill="white" stroke="var(--mw-icon-border-default-gray, #616161)"/>
<path d="M13 11H14V20H13V11Z" fill="var(--mw-icon-borderColor-light-blue, #268CDD)"/>
<path d="M15 11H16V20H15V11Z" fill="#1FCFBE"/>
<path d="M11 11.5C11 11.2239 11.2239 11 11.5 11H12V20H11.5C11.2239 20 11 19.7761 11 19.5V11.5Z" fill="#08036F"/>
<path d="M12 11L13 11V20L12 20V11Z" fill="#0E00FF"/>
<path d="M14 11H15V20H14V11Z" fill="#35D2FA"/>
<path d="M16 11L17 11V20L16 20V11Z" fill="#3AC831"/>
<path d="M17 11H18V20H17V11Z" fill="#FFD60A"/>
<path d="M18 11H19V20H18V11Z" fill="#F57729"/>
<path d="M19 11H19.5C19.7761 11 20 11.2239 20 11.5V19.5C20 19.7761 19.7761 20 19.5 20H19V11Z" fill="#FF453A"/>
</svg>
