<svg width="24" height="24" viewBox="0 0 24 24" fill="none" xmlns="http://www.w3.org/2000/svg">
<path d="M0.5 2.5C0.5 1.39543 1.39543 0.5 2.5 0.5H20.5C21.6046 0.5 22.5 1.39543 22.5 2.5V20.5C22.5 21.6046 21.6046 22.5 20.5 22.5H2.5C1.39543 22.5 0.5 21.6046 0.5 20.5V2.5Z" fill="var(--mw-icon-background-default-white, #FFFFFF)"/>
<path d="M0.5 3.5H6.5L16.5 19.5H22.5" stroke="#0072BD" stroke-linejoin="round"/>
<path fill-rule="evenodd" clip-rule="evenodd" d="M6 3.5C6 3.22386 6.22386 3 6.5 3H8.5C8.77614 3 9 3.22386 9 3.5C9 3.77614 8.77614 4 8.5 4H7V4.5C7 4.77614 6.77614 5 6.5 5C6.22386 5 6 4.77614 6 4.5V3.5ZM10 3.5C10 3.22386 10.2239 3 10.5 3H12.5C12.7761 3 13 3.22386 13 3.5C13 3.77614 12.7761 4 12.5 4H10.5C10.2239 4 10 3.77614 10 3.5ZM14 3.5C14 3.22386 14.2239 3 14.5 3H16.5C16.7761 3 17 3.22386 17 3.5V4.5C17 4.77614 16.7761 5 16.5 5C16.2239 5 16 4.77614 16 4.5V4H14.5C14.2239 4 14 3.77614 14 3.5ZM16.5 6C16.7761 6 17 6.22386 17 6.5V8.5C17 8.77614 16.7761 9 16.5 9C16.2239 9 16 8.77614 16 8.5V6.5C16 6.22386 16.2239 6 16.5 6ZM6.5 6C6.77614 6 7 6.22386 7 6.5V8.5C7 8.77614 6.77614 9 6.5 9C6.22386 9 6 8.77614 6 8.5V6.5C6 6.22386 6.22386 6 6.5 6ZM16.5 10C16.7761 10 17 10.2239 17 10.5V12.5C17 12.7761 16.7761 13 16.5 13C16.2239 13 16 12.7761 16 12.5V10.5C16 10.2239 16.2239 10 16.5 10ZM6.5 10C6.77614 10 7 10.2239 7 10.5V12.5C7 12.7761 6.77614 13 6.5 13C6.22386 13 6 12.7761 6 12.5V10.5C6 10.2239 6.22386 10 6.5 10ZM16.5 14C16.7761 14 17 14.2239 17 14.5V16.5C17 16.7761 16.7761 17 16.5 17C16.2239 17 16 16.7761 16 16.5V14.5C16 14.2239 16.2239 14 16.5 14ZM6.5 14C6.77614 14 7 14.2239 7 14.5V16.5C7 16.7761 6.77614 17 6.5 17C6.22386 17 6 16.7761 6 16.5V14.5C6 14.2239 6.22386 14 6.5 14ZM16.5 18C16.7761 18 17 18.2239 17 18.5V19.5C17 19.7761 16.7761 20 16.5 20H14.5C14.2239 20 14 19.7761 14 19.5C14 19.2239 14.2239 19 14.5 19H16V18.5C16 18.2239 16.2239 18 16.5 18ZM6.5 18C6.77614 18 7 18.2239 7 18.5V19H8.5C8.77614 19 9 19.2239 9 19.5C9 19.7761 8.77614 20 8.5 20H6.5C6.22386 20 6 19.7761 6 19.5V18.5C6 18.2239 6.22386 18 6.5 18ZM10 19.5C10 19.2239 10.2239 19 10.5 19H12.5C12.7761 19 13 19.2239 13 19.5C13 19.7761 12.7761 20 12.5 20H10.5C10.2239 20 10 19.7761 10 19.5Z" fill="#D95319"/>
<path fill-rule="evenodd" clip-rule="evenodd" d="M2 3.5C2 3.22386 2.22386 3 2.5 3H4.5C4.77614 3 5 3.22386 5 3.5C5 3.77614 4.77614 4 4.5 4H2.5C2.22386 4 2 3.77614 2 3.5Z" fill="#D95319"/>
<path fill-rule="evenodd" clip-rule="evenodd" d="M18 19.5C18 19.2239 18.2239 19 18.5 19H20.5C20.7761 19 21 19.2239 21 19.5C21 19.7761 20.7761 20 20.5 20H18.5C18.2239 20 18 19.7761 18 19.5Z" fill="#D95319"/>
<path d="M0.5 2.5C0.5 1.39543 1.39543 0.5 2.5 0.5H20.5C21.6046 0.5 22.5 1.39543 22.5 2.5V20.5C22.5 21.6046 21.6046 22.5 20.5 22.5H2.5C1.39543 22.5 0.5 21.6046 0.5 20.5V2.5Z" stroke="var(--mw-icon-border-default-gray, #616161)" stroke-linejoin="round"/>
</svg>
