<svg width="24" height="24" viewBox="0 0 24 24" fill="none" xmlns="http://www.w3.org/2000/svg">
<path d="M0.5 2.5C0.5 1.39543 1.39543 0.5 2.5 0.5H20.5C21.6046 0.5 22.5 1.39543 22.5 2.5V20.5C22.5 21.6046 21.6046 22.5 20.5 22.5H2.5C1.39543 22.5 0.5 21.6046 0.5 20.5V2.5Z" fill="var(--mw-icon-background-default-white, #FFFFFF)" stroke="var(--mw-icon-border-default-gray, #616161)" stroke-linejoin="round"/>
<path d="M8 10.5C3.875 10.5 2.5 14.1896 2.5 17.6308V18.5C2.5 19.0523 2.94771 19.5 3.5 19.5H12.5C13.0523 19.5 13.5 19.0523 13.5 18.5V17.6308C13.5 14.1896 12.125 10.5 8 10.5Z" fill="var(--mw-icon-background-default-medium-gray, #D9D9D9)"/>
<path d="M11.5 7C11.5 8.933 9.933 10.5 8 10.5C6.067 10.5 4.5 8.933 4.5 7C4.5 5.067 6.067 3.5 8 3.5C9.933 3.5 11.5 5.067 11.5 7Z" fill="var(--mw-icon-background-default-medium-gray, #D9D9D9)"/>
<path d="M8 10.5C3.875 10.5 2.5 14.1896 2.5 17.6308V18.5C2.5 19.0523 2.94771 19.5 3.5 19.5H12.5C13.0523 19.5 13.5 19.0523 13.5 18.5V17.6308C13.5 14.1896 12.125 10.5 8 10.5ZM8 10.5C9.933 10.5 11.5 8.933 11.5 7C11.5 5.067 9.933 3.5 8 3.5C6.067 3.5 4.5 5.067 4.5 7C4.5 8.933 6.067 10.5 8 10.5Z" stroke="var(--mw-icon-glyph-content-gray, #616162)"/>
<path d="M18.5 17V4M17.5 14V7M19.5 14V7M14.5 9V12M15.5 8V13M13 10.5H22" stroke="#0072BD"/>
</svg>
