<svg width="24" height="24" viewBox="0 0 24 24" fill="none" xmlns="http://www.w3.org/2000/svg">
<path d="M0.5 2.5C0.5 1.39543 1.39543 0.5 2.5 0.5H20.5C21.6046 0.5 22.5 1.39543 22.5 2.5V20.5C22.5 21.6046 21.6046 22.5 20.5 22.5H2.5C1.39543 22.5 0.5 21.6046 0.5 20.5V2.5Z" fill="var(--mw-icon-background-default-white, #FFFFFF)" stroke="var(--mw-icon-border-default-gray, #616161)"/>
<path d="M22 2.5H16C15.7239 2.5 15.5 2.72386 15.5 3V20C15.5 20.2761 15.7239 20.5 16 20.5H22C22.2761 20.5 22.5 20.2761 22.5 20V3C22.5 2.72386 22.2761 2.5 22 2.5Z" fill="var(--mw-icon-glyph-content-blue, #1656A8)" stroke="var(--mw-icon-border-default-blue, #1656A7)"/>
<path d="M20.5 14.5C20.5 15.0523 20.0523 15.5 19.5 15.5C18.9477 15.5 18.5 15.0523 18.5 14.5C18.5 13.9477 18.9477 13.5 19.5 13.5C20.0523 13.5 20.5 13.9477 20.5 14.5Z" stroke="var(--mw-icon-background-medium-blue, #83CAFF)"/>
<path d="M18.5 6.5C18.5 7.05228 18.0523 7.5 17.5 7.5C16.9477 7.5 16.5 7.05228 16.5 6.5C16.5 5.94772 16.9477 5.5 17.5 5.5C18.0523 5.5 18.5 5.94772 18.5 6.5Z" stroke="var(--mw-icon-background-medium-blue, #83CAFF)"/>
<path d="M18.5 9.5C18.5 8.94772 18.9477 8.5 19.5 8.5C20.0523 8.5 20.5 8.94772 20.5 9.5C20.5 10.0523 20.0523 10.5 19.5 10.5C18.9477 10.5 18.5 10.0523 18.5 9.5Z" stroke="var(--mw-icon-background-medium-blue, #83CAFF)"/>
<path d="M16.5 17.5C16.5 16.9477 16.9477 16.5 17.5 16.5C18.0523 16.5 18.5 16.9477 18.5 17.5C18.5 18.0523 18.0523 18.5 17.5 18.5C16.9477 18.5 16.5 18.0523 16.5 17.5Z" stroke="var(--mw-icon-background-medium-blue, #83CAFF)"/>
<path d="M16.5 14H16V15H16.5V14ZM18 15H18.5V14H18V15ZM20.5 3.5V3C20.3674 3 20.2402 3.05268 20.1464 3.14645L20.5 3.5ZM19.5 19.5L19.1464 19.8536C19.2402 19.9473 19.3674 20 19.5 20V19.5ZM17.5 11.5V12C17.6326 12 17.7598 11.9473 17.8536 11.8536L17.5 11.5ZM16.5 15H18V14H16.5V15ZM22 3H20.5V4H22V3ZM20.1464 3.14645L17.6464 5.64645L18.3536 6.35355L20.8536 3.85355L20.1464 3.14645ZM22 19H19.5V20H22V19ZM19.8536 19.1464L18.3536 17.6464L17.6464 18.3536L19.1464 19.8536L19.8536 19.1464ZM16 12H17.5V11H16V12ZM17.8536 11.8536L18.8536 10.8536L18.1464 10.1464L17.1464 11.1464L17.8536 11.8536Z" fill="var(--mw-icon-background-medium-blue, #83CAFF)"/>
<path d="M14.5 5.5H8.5M14.5 13.5H8.5M14.5 9.5H8.5M14.5 17.5H8.5" stroke="var(--mw-icon-glyph-content-gray, #616162)" stroke-linecap="square" stroke-linejoin="round"/>
<path d="M6.5 2.5H1C0.723858 2.5 0.5 2.72386 0.5 3V20C0.5 20.2761 0.723858 20.5 1 20.5H6.5C7.05228 20.5 7.5 20.0523 7.5 19.5V3.5C7.5 2.94772 7.05228 2.5 6.5 2.5Z" fill="var(--mw-icon-glyph-content-green, #008014)" stroke="var(--mw-icon-glyph-content-green, #008014)"/>
<path d="M4.5 16V9C4.5 8.72386 4.27614 8.5 4 8.5H0.5V16.5H4C4.27614 16.5 4.5 16.2761 4.5 16Z" fill="var(--mw-icon-glyph-content-dark-gray, #333333)" stroke="var(--mw-icon-background-default-action, #CBFFBE)"/>
<path d="M2 4H3V6H2V4Z" fill="var(--mw-icon-background-medium-yellow, #FFEF91)"/>
<path d="M4 4H5V6H4V4Z" fill="var(--mw-icon-background-medium-yellow, #FFEF91)"/>
<path d="M5 19V20H2L2 19H5Z" fill="var(--mw-icon-background-medium-yellow, #FFEF91)"/>
<path d="M6 3H6.5C6.77614 3 7 3.22386 7 3.5V19.5C7 19.7761 6.77614 20 6.5 20H6V3Z" fill="var(--mw-icon-background-medium-yellow, #FFEF91)"/>
<path d="M0.5 2.5C0.5 1.39543 1.39543 0.5 2.5 0.5H20.5C21.6046 0.5 22.5 1.39543 22.5 2.5V20.5C22.5 21.6046 21.6046 22.5 20.5 22.5H2.5C1.39543 22.5 0.5 21.6046 0.5 20.5V2.5Z" stroke="var(--mw-icon-border-default-gray, #616161)"/>
</svg>
