<svg width="24" height="24" viewBox="0 0 24 24" fill="none" xmlns="http://www.w3.org/2000/svg">
<path d="M0.5 2.5C0.5 1.39543 1.39543 0.5 2.5 0.5H16.5C17.6046 0.5 18.5 1.39543 18.5 2.5V16.5C18.5 17.6046 17.6046 18.5 16.5 18.5H2.5C1.39543 18.5 0.5 17.6046 0.5 16.5V2.5Z" fill="var(--mw-icon-background-default-white, #FFFFFF)"/>
<path d="M0.5 12.4862C2.5 12.5 5.5 3.5 5.5 3.5C5.5 3.5 7.5 12.5 10.5 12.5C13.5 12.5 14.5 5.5 14.5 5.5C14.5 5.5 15 12.5 18.5 12.4862" stroke="#0072BD" stroke-miterlimit="1" stroke-linecap="round" stroke-linejoin="round"/>
<path d="M0.5 2.5C0.5 1.39543 1.39543 0.5 2.5 0.5H16.5C17.6046 0.5 18.5 1.39543 18.5 2.5V16.5C18.5 17.6046 17.6046 18.5 16.5 18.5H2.5C1.39543 18.5 0.5 17.6046 0.5 16.5V2.5Z" stroke="var(--mw-icon-border-default-gray, #616161)" stroke-linejoin="round"/>
<path d="M9.5 11.5C9.5 10.3954 10.3954 9.5 11.5 9.5H21.5C22.6046 9.5 23.5 10.3954 23.5 11.5V21.5C23.5 22.6046 22.6046 23.5 21.5 23.5H11.5C10.3954 23.5 9.5 22.6046 9.5 21.5V11.5Z" fill="white" stroke="var(--mw-icon-border-default-gray, #616161)"/>
<path d="M14.7837 18.1237C14.7837 18.002 14.7652 17.8928 14.7283 17.7961C14.6944 17.6963 14.6297 17.6058 14.5342 17.5247C14.4388 17.4405 14.3048 17.3578 14.1323 17.2767C13.9598 17.1956 13.7365 17.1114 13.4624 17.0241C13.1575 16.9242 12.868 16.8119 12.5939 16.6872C12.3228 16.5624 12.0826 16.4173 11.8732 16.252C11.6668 16.0836 11.5036 15.8886 11.3835 15.6671C11.2664 15.4456 11.2079 15.1883 11.2079 14.8951C11.2079 14.6112 11.2695 14.3538 11.3927 14.123C11.5159 13.889 11.6884 13.6894 11.9101 13.5241C12.1319 13.3556 12.3937 13.2262 12.6955 13.1357C13.0004 13.0452 13.3346 13 13.698 13C14.1939 13 14.6266 13.0905 14.9962 13.2714C15.3658 13.4523 15.6522 13.7003 15.8555 14.0154C16.0619 14.3304 16.1651 14.6907 16.1651 15.0963H14.7883C14.7883 14.8966 14.7467 14.7219 14.6636 14.5722C14.5835 14.4193 14.4603 14.2992 14.294 14.2119C14.1308 14.1246 13.9244 14.0809 13.6749 14.0809C13.4347 14.0809 13.2345 14.1183 13.0743 14.1932C12.9142 14.2649 12.7941 14.3632 12.714 14.488C12.6339 14.6096 12.5939 14.7469 12.5939 14.8997C12.5939 15.0152 12.6216 15.1197 12.677 15.2132C12.7355 15.3068 12.8218 15.3942 12.9357 15.4753C13.0497 15.5564 13.1898 15.6328 13.3562 15.7045C13.5225 15.7763 13.715 15.8465 13.9336 15.9151C14.3002 16.0274 14.622 16.1537 14.8992 16.2941C15.1795 16.4345 15.4136 16.592 15.6014 16.7667C15.7893 16.9414 15.931 17.1395 16.0265 17.361C16.1219 17.5824 16.1697 17.8336 16.1697 18.1143C16.1697 18.4107 16.1127 18.6758 15.9987 18.9098C15.8848 19.1437 15.72 19.3418 15.5044 19.504C15.2888 19.6662 15.0316 19.7894 14.7329 19.8737C14.4341 19.9579 14.1 20 13.7304 20C13.3977 20 13.0697 19.9563 12.7463 19.869C12.4229 19.7785 12.1288 19.6428 11.8639 19.4619C11.6021 19.281 11.3927 19.0501 11.2356 18.7694C11.0785 18.4886 11 18.1564 11 17.7727H12.3906C12.3906 17.9848 12.4229 18.1642 12.4876 18.3108C12.5523 18.4574 12.6431 18.576 12.7602 18.6664C12.8803 18.7569 13.022 18.8224 13.1852 18.863C13.3515 18.9035 13.5332 18.9238 13.7304 18.9238C13.9706 18.9238 14.1677 18.8895 14.3217 18.8209C14.4788 18.7522 14.5943 18.6571 14.6682 18.5354C14.7452 18.4138 14.7837 18.2765 14.7837 18.1237Z" fill="var(--mw-icon-glyph-content-dark-gray, #333333)"/>
<path d="M20.614 18.1237C20.614 18.002 20.5955 17.8928 20.5586 17.7961C20.5247 17.6963 20.46 17.6058 20.3646 17.5247C20.2691 17.4405 20.1351 17.3578 19.9626 17.2767C19.7901 17.1956 19.5668 17.1114 19.2927 17.0241C18.9878 16.9242 18.6983 16.8119 18.4242 16.6872C18.1532 16.5624 17.9129 16.4173 17.7035 16.252C17.4971 16.0836 17.3339 15.8886 17.2138 15.6671C17.0967 15.4456 17.0382 15.1883 17.0382 14.8951C17.0382 14.6112 17.0998 14.3538 17.223 14.123C17.3462 13.889 17.5187 13.6894 17.7404 13.5241C17.9622 13.3556 18.224 13.2262 18.5258 13.1357C18.8307 13.0452 19.1649 13 19.5283 13C20.0242 13 20.457 13.0905 20.8265 13.2714C21.1961 13.4523 21.4826 13.7003 21.6858 14.0154C21.8922 14.3304 21.9954 14.6907 21.9954 15.0963H20.6186C20.6186 14.8966 20.5771 14.7219 20.4939 14.5722C20.4138 14.4193 20.2906 14.2992 20.1243 14.2119C19.9611 14.1246 19.7547 14.0809 19.5052 14.0809C19.265 14.0809 19.0648 14.1183 18.9047 14.1932C18.7445 14.2649 18.6244 14.3632 18.5443 14.488C18.4642 14.6096 18.4242 14.7469 18.4242 14.8997C18.4242 15.0152 18.4519 15.1197 18.5073 15.2132C18.5659 15.3068 18.6521 15.3942 18.7661 15.4753C18.88 15.5564 19.0202 15.6328 19.1865 15.7045C19.3528 15.7763 19.5453 15.8465 19.764 15.9151C20.1305 16.0274 20.4523 16.1537 20.7295 16.2941C21.0098 16.4345 21.2439 16.592 21.4318 16.7667C21.6196 16.9414 21.7613 17.1395 21.8568 17.361C21.9523 17.5824 22 17.8336 22 18.1143C22 18.4107 21.943 18.6758 21.8291 18.9098C21.7151 19.1437 21.5503 19.3418 21.3347 19.504C21.1191 19.6662 20.862 19.7894 20.5632 19.8737C20.2645 19.9579 19.9303 20 19.5607 20C19.2281 20 18.9 19.9563 18.5766 19.869C18.2533 19.7785 17.9591 19.6428 17.6942 19.4619C17.4325 19.281 17.223 19.0501 17.0659 18.7694C16.9089 18.4886 16.8303 18.1564 16.8303 17.7727H18.2209C18.2209 17.9848 18.2533 18.1642 18.3179 18.3108C18.3826 18.4574 18.4735 18.576 18.5905 18.6664C18.7106 18.7569 18.8523 18.8224 19.0155 18.863C19.1819 18.9035 19.3636 18.9238 19.5607 18.9238C19.8009 18.9238 19.998 18.8895 20.152 18.8209C20.3091 18.7522 20.4246 18.6571 20.4985 18.5354C20.5755 18.4138 20.614 18.2765 20.614 18.1237Z" fill="var(--mw-icon-glyph-content-dark-gray, #333333)"/>
</svg>
