<svg width="24" height="24" viewBox="0 0 24 24" fill="none" xmlns="http://www.w3.org/2000/svg">
<path d="M0.5 18.5V4.5C0.5 2.29086 2.29086 0.5 4.5 0.5H18.5C20.7091 0.5 22.5 2.29086 22.5 4.5V18.5C22.5 20.7091 20.7091 22.5 18.5 22.5H4.5C2.29086 22.5 0.5 20.7091 0.5 18.5Z" fill="var(--mw-icon-background-default-white, #FFFFFF)"/>
<path d="M15.5 3.5V5.5H11.5H7.5H3.5V3.5H7.5H11.5H15.5Z" fill="var(--mw-icon-background-default-medium-gray, #D9D9D9)"/>
<path d="M7.5 3.5H3.5V5.5H7.5M7.5 3.5V5.5M7.5 3.5H11.5M7.5 5.5H11.5M11.5 3.5H15.5V5.5H11.5M11.5 3.5V5.5" stroke="var(--mw-icon-border-default-gray, #616161)" stroke-linejoin="round"/>
<path d="M7.5 5.5H3.5V8.5H7.5M7.5 5.5V8.5M7.5 5.5H11.5M7.5 8.5H11.5M11.5 5.5H15.5V8.5H11.5M11.5 5.5V8.5" stroke="var(--mw-icon-border-default-gray, #616161)" stroke-linejoin="round"/>
<path d="M13.5 13.5V11.5H16.5H19.5V13.5H16.5H13.5Z" fill="var(--mw-icon-background-default-medium-gray, #D9D9D9)"/>
<path d="M16.5 11.5H13.5V13.5H16.5M16.5 11.5V13.5M16.5 11.5H19.5V13.5H16.5" stroke="var(--mw-icon-border-default-gray, #616161)" stroke-linejoin="round"/>
<path d="M16.5 13.5H13.5V16.5H16.5M16.5 13.5V16.5M16.5 13.5H19.5V16.5H16.5" stroke="var(--mw-icon-border-default-gray, #616161)" stroke-linejoin="round"/>
<path d="M16.5 16.5H13.5V19.5H16.5M16.5 16.5V19.5M16.5 16.5H19.5V19.5H16.5" stroke="var(--mw-icon-border-default-gray, #616161)" stroke-linejoin="round"/>
<path fill-rule="evenodd" clip-rule="evenodd" d="M3.5 10.5L3.5 14.5L3.5 16.5H5.5H7.5L7.5 18.5L11.5 15.5L7.5 12.5V14.5H5.5L5.5 10.5H3.5Z" fill="var(--mw-icon-background-default-action, #CBFFBE)"/>
<path d="M3.5 10.5V10H3V10.5H3.5ZM3.5 16.5H3V17H3.5V16.5ZM7.5 16.5H8V16H7.5V16.5ZM7.5 18.5H7V19.5L7.8 18.9L7.5 18.5ZM11.5 15.5L11.8 15.9L12.3333 15.5L11.8 15.1L11.5 15.5ZM7.5 12.5L7.8 12.1L7 11.5V12.5H7.5ZM7.5 14.5L7.5 15H8V14.5H7.5ZM5.5 14.5H5V15H5.5L5.5 14.5ZM5.5 10.5L6 10.5V10H5.5V10.5ZM4 14.5L4 10.5H3L3 14.5H4ZM3 14.5V16.5H4V14.5H3ZM3.5 17H5.5V16H3.5V17ZM5.5 17H7.5V16H5.5V17ZM7 16.5L7 18.5H8V16.5H7ZM7.8 18.9L11.8 15.9L11.2 15.1L7.2 18.1L7.8 18.9ZM11.8 15.1L7.8 12.1L7.2 12.9L11.2 15.9L11.8 15.1ZM7 12.5V14.5H8L8 12.5H7ZM7.5 14H5.5L5.5 15H7.5L7.5 14ZM5 10.5L5 14.5H6L6 10.5L5 10.5ZM3.5 11H5.5V10H3.5V11Z" fill="var(--mw-icon-glyph-content-green, #008014)"/>
<path d="M0.5 18.5V4.5C0.5 2.29086 2.29086 0.5 4.5 0.5H18.5C20.7091 0.5 22.5 2.29086 22.5 4.5V18.5C22.5 20.7091 20.7091 22.5 18.5 22.5H4.5C2.29086 22.5 0.5 20.7091 0.5 18.5Z" stroke="#B7312C" stroke-linecap="round"/>
</svg>
