<svg width="24" height="24" viewBox="0 0 24 24" fill="none" xmlns="http://www.w3.org/2000/svg">
<path d="M0.5 18.5V4.5C0.5 2.29086 2.29086 0.5 4.5 0.5H18.5C20.7091 0.5 22.5 2.29086 22.5 4.5V18.5C22.5 20.7091 20.7091 22.5 18.5 22.5H4.5C2.29086 22.5 0.5 20.7091 0.5 18.5Z" fill="var(--mw-icon-background-brown, #DC996C)"/>
<path d="M0.5 18.5V4.5C0.5 2.29086 2.29086 0.5 4.5 0.5H18.5C20.7091 0.5 22.5 2.29086 22.5 4.5V18.5C22.5 20.7091 20.7091 22.5 18.5 22.5H4.5C2.29086 22.5 0.5 20.7091 0.5 18.5Z" stroke="var(--mw-icon-glyph-content-brown, #5F1B18)" stroke-linecap="round"/>
<path d="M3.5 16.5L3.5 18.5M5.5 16.5V18.5" stroke="var(--mw-icon-glyph-content-brown, #5F1B18)" stroke-linecap="round" stroke-linejoin="round"/>
<path d="M1 4.5H22" stroke="var(--mw-icon-border-default-brown, #5F1B08)"/>
<path d="M11.5 4.5V1" stroke="var(--mw-icon-border-default-brown, #5F1B08)"/>
<path fill-rule="evenodd" clip-rule="evenodd" d="M14.9653 7.32589C14.7212 7.60672 14.498 8.12253 14.359 9.0799C14.3034 9.46305 14.1388 9.89555 13.9366 10.3192C13.7313 10.7492 13.4732 11.1987 13.209 11.6223C12.6804 12.4697 12.1122 13.2376 11.8529 13.5785C11.617 13.8886 11.1342 14.335 10.6626 14.744C10.3585 15.0077 10.0432 15.2692 9.77026 15.4901C9.88123 15.5624 9.98871 15.6329 10.0914 15.7008C10.7613 16.1438 11.2573 16.8547 11.6408 17.5203C11.8351 17.8576 12.0079 18.1969 12.1617 18.4999L12.1692 18.5145C12.2493 18.6723 12.3233 18.818 12.3929 18.95C12.5774 18.845 12.8036 18.6808 13.0542 18.4501C13.4503 18.0855 14.3904 16.9488 14.959 16.1637C15.2922 15.7036 15.7525 15.3469 16.2158 15.1051C16.6748 14.8656 17.1732 14.7201 17.5992 14.7201C17.9521 14.7201 18.3695 14.8777 18.7142 15.0396C18.1764 13.4779 17.4512 11.3286 17.2021 10.4286C17.0133 9.74688 16.6872 8.81948 16.3219 8.0704C16.1382 7.69387 15.954 7.38186 15.7835 7.17064C15.6983 7.06508 15.6275 6.99855 15.5743 6.96134C15.5489 6.94356 15.533 6.9363 15.5261 6.93359C15.4747 6.93728 15.3651 6.97344 15.1938 7.11243C15.1718 7.13022 15.1497 7.14902 15.1275 7.16877L15.1297 7.17182C15.1148 7.18294 15.1 7.19473 15.0851 7.20724C15.0456 7.24409 15.0056 7.28376 14.9653 7.32589Z" fill="#F57729"/>
<path fill-rule="evenodd" clip-rule="evenodd" d="M9.00225 14.9951C9.30901 14.751 9.7116 14.4213 10.0945 14.0893C10.2898 13.9199 10.4737 13.7552 10.635 13.6041L9.78273 12.9862C9.78067 12.9873 9.77864 12.9884 9.77665 12.9895C9.69283 13.0343 9.58818 13.0852 9.47106 13.1395C9.23592 13.2485 8.93225 13.3797 8.60509 13.5163C8.22938 13.6733 7.81783 13.8395 7.43481 13.9908C7.74543 14.1924 8.10462 14.4217 8.47477 14.658C8.64946 14.7696 8.82664 14.8827 9.00225 14.9951ZM10.4452 12.396L11.2301 12.965C11.5039 12.6013 12.0063 11.9126 12.4733 11.1637C12.7276 10.756 12.9677 10.3365 13.1541 9.94598C13.1876 9.87588 13.2189 9.80758 13.248 9.74121C13.1905 9.80807 13.1321 9.87438 13.0737 9.93912C12.7571 10.2899 12.3886 10.6521 12.1141 10.833C11.6531 11.1368 11.3005 11.3833 11.0773 11.68C10.931 11.8745 10.6772 12.1531 10.4452 12.396Z" fill="#068CFC"/>
<path d="M6.5 13.8891L6.32223 13.4217C6.14902 13.4876 6.02646 13.6439 6.00376 13.8278C5.98107 14.0118 6.06196 14.1932 6.21395 14.2992L6.5 13.8891ZM9.7193 12.5147L10.0668 12.8742L10.0668 12.8742L9.7193 12.5147ZM10.7311 11.4194L10.3316 11.1189L10.3316 11.1189L10.7311 11.4194ZM13.4906 8.69301L13.0544 8.44858L13.0544 8.44858L13.4906 8.69301ZM17.6195 10.3131L18.1014 10.1796V10.1796L17.6195 10.3131ZM19.5 15.9833L19.2198 16.3974C19.3984 16.5182 19.6342 16.511 19.805 16.3794C19.9758 16.2479 20.0431 16.0217 19.972 15.8182L19.5 15.9833ZM15.3097 16.4179L14.9048 16.1247L15.3097 16.4179ZM13.3475 18.769L13.0088 18.4011H13.0088L13.3475 18.769ZM12.2028 19.5L11.7737 19.7565C11.8874 19.9469 12.1129 20.0395 12.3276 19.9842L12.2028 19.5ZM9.8522 16.0623L9.57639 16.4794L9.8522 16.0623ZM8.76754 15.0955C8.54996 15.2655 8.51141 15.5798 8.68145 15.7973C8.85148 16.0149 9.16571 16.0535 9.38329 15.8834L8.76754 15.0955ZM11.5078 13.3162L11.9058 13.6189L11.9058 13.6189L11.5078 13.3162ZM13.9299 9.01775L14.4248 9.08959L13.9299 9.01775ZM6.67777 14.3564C7.21008 14.1539 7.97498 13.8518 8.63094 13.5778C8.95841 13.441 9.26298 13.3095 9.49926 13.1999C9.61688 13.1454 9.72281 13.0939 9.80822 13.0482C9.87205 13.0141 9.98596 12.9524 10.0668 12.8742L9.3718 12.1552C9.40767 12.1205 9.42025 12.1218 9.33706 12.1662C9.27546 12.1991 9.18867 12.2417 9.07855 12.2927C8.85937 12.3944 8.56837 12.5202 8.24551 12.6551C7.60081 12.9244 6.846 13.2225 6.32223 13.4217L6.67777 14.3564ZM10.0668 12.8742C10.2924 12.6561 10.8734 12.062 11.1307 11.72L10.3316 11.1189C10.126 11.3921 9.59584 11.9387 9.3718 12.1552L10.0668 12.8742ZM11.1307 11.72C11.3458 11.4341 11.6882 11.1935 12.1509 10.8886L11.6006 10.0536C11.164 10.3414 10.6683 10.6713 10.3316 11.1189L11.1307 11.72ZM12.1509 10.8886C12.4331 10.7027 12.8064 10.3349 13.1233 9.98374C13.4428 9.62979 13.7654 9.2254 13.9267 8.93745L13.0544 8.44858C12.95 8.63479 12.6901 8.97128 12.381 9.31374C12.0694 9.65902 11.7682 9.94319 11.6006 10.0536L12.1509 10.8886ZM13.9267 8.93745C14.0575 8.70419 14.3568 8.18318 14.7121 7.72521C14.8906 7.49525 15.0698 7.29878 15.2356 7.16427C15.4133 7.02009 15.5106 7 15.5346 7V6C15.1651 6 14.8434 6.19477 14.6056 6.38769C14.3558 6.59028 14.1231 6.85316 13.9221 7.11218C13.5186 7.63217 13.1894 8.20767 13.0544 8.44858L13.9267 8.93745ZM15.5346 7C15.4913 7 15.4887 6.98301 15.5359 7.01603C15.5822 7.04841 15.6485 7.10985 15.7314 7.21258C15.8974 7.41816 16.0791 7.72507 16.2618 8.09969C16.625 8.84434 16.9497 9.76776 17.1376 10.4465L18.1014 10.1796C17.9009 9.45561 17.5562 8.47251 17.1606 7.66131C16.9639 7.25801 16.7438 6.87467 16.5095 6.58448C16.3924 6.43933 16.259 6.3015 16.109 6.19658C15.9599 6.09231 15.7644 6 15.5346 6V7ZM17.1376 10.4465C17.4538 11.5884 18.533 14.7325 19.028 16.1483L19.972 15.8182C19.4723 14.3891 18.4066 11.282 18.1014 10.1796L17.1376 10.4465ZM19.7802 15.5692C19.5594 15.4198 19.1983 15.1997 18.8167 15.0147C18.4589 14.8413 17.9942 14.6535 17.5991 14.6535V15.6535C17.7436 15.6535 18.0249 15.7423 18.3805 15.9146C18.7122 16.0753 19.0318 16.2702 19.2198 16.3974L19.7802 15.5692ZM17.5991 14.6535C17.1594 14.6535 16.6504 14.8031 16.1848 15.0461C15.7143 15.2916 15.2453 15.6545 14.9048 16.1247L15.7147 16.7112C15.9466 16.391 16.2849 16.1218 16.6474 15.9326C17.0147 15.7409 17.3642 15.6535 17.5991 15.6535V14.6535ZM14.9048 16.1247C14.3368 16.909 13.3999 18.0412 13.0088 18.4011L13.6861 19.1369C14.1536 18.7065 15.1381 17.5074 15.7147 16.7112L14.9048 16.1247ZM13.0088 18.4011C12.601 18.7765 12.2656 18.9675 12.078 19.0158L12.3276 19.9842C12.7532 19.8745 13.2354 19.5517 13.6861 19.1369L13.0088 18.4011ZM12.632 19.2435C12.51 19.0393 12.3782 18.7793 12.221 18.4697C12.0672 18.167 11.8937 17.8261 11.6984 17.4871C11.3137 16.8194 10.8113 16.0972 10.128 15.6453L9.57639 16.4794C10.0582 16.798 10.4654 17.3501 10.8319 17.9863C11.0122 18.2993 11.1746 18.6178 11.3294 18.9225C11.4807 19.2205 11.63 19.5161 11.7737 19.7565L12.632 19.2435ZM10.128 15.6453C9.04508 14.9291 7.44561 13.939 6.78605 13.479L6.21395 14.2992C6.87619 14.7611 8.55314 15.8026 9.57639 16.4794L10.128 15.6453ZM9.38329 15.8834C9.70881 15.6291 10.2215 15.2146 10.7061 14.7944C11.1768 14.3862 11.665 13.9355 11.9058 13.6189L11.1099 13.0135C10.9419 13.2343 10.534 13.62 10.0509 14.0389C9.58163 14.4459 9.08249 14.8494 8.76754 15.0955L9.38329 15.8834ZM11.9058 13.6189C12.1656 13.2773 12.7352 12.5076 13.2654 11.6577C13.5303 11.2328 13.7898 10.7811 13.9965 10.348C14.1997 9.92231 14.3677 9.48266 14.4248 9.08959L13.4351 8.94592C13.3997 9.19015 13.2825 9.52249 13.0941 9.91726C12.9091 10.3047 12.6704 10.722 12.4169 11.1284C11.9099 11.9412 11.361 12.6834 11.1099 13.0135L11.9058 13.6189ZM14.4248 9.08959C14.5939 7.92473 14.8858 7.43715 15.1694 7.22534L14.571 6.42414C13.9552 6.88406 13.6134 7.71771 13.4351 8.94592L14.4248 9.08959ZM9.45648 12.832L10.8464 13.8396L11.4333 13.0299L10.0434 12.0223L9.45648 12.832Z" fill="var(--mw-icon-glyph-content-dark-gray, #333333)"/>
</svg>
