<svg width="24" height="24" viewBox="0 0 24 24" fill="none" xmlns="http://www.w3.org/2000/svg">
<path d="M7.5 3.5L7.5 22.5C7.5 23.0523 7.94772 23.5 8.5 23.5L22.5 23.5C23.0523 23.5 23.5 23.0523 23.5 22.5L23.5 7.41421C23.5 7.149 23.3946 6.89464 23.2071 6.70711L19.2929 2.79289C19.1054 2.60536 18.851 2.5 18.5858 2.5L8.5 2.5C7.94771 2.5 7.5 2.94772 7.5 3.5Z" fill="var(--mw-icon-background-default-white, #FFFFFF)" stroke="var(--mw-icon-border-default-gray, #616161)"/>
<path d="M15 21.5C14.7239 21.5 14.5 21.2761 14.5 21V16.5H21.5V21C21.5 21.2761 21.2761 21.5 21 21.5H15Z" fill="var(--mw-icon-background-medium-yellow, #FFEF91)"/>
<path d="M10 12.5C9.72386 12.5 9.5 12.2761 9.5 12V7.5H16.5V12C16.5 12.2761 16.2761 12.5 16 12.5H10Z" fill="var(--mw-icon-background-medium-yellow, #FFEF91)"/>
<path d="M15 21.5C14.7239 21.5 14.5 21.2761 14.5 21V16.5H21.5V21C21.5 21.2761 21.2761 21.5 21 21.5H15Z" stroke="var(--mw-icon-glyph-content-yellow, #674C07)" stroke-linecap="square" stroke-linejoin="round"/>
<path d="M10 12.5C9.72386 12.5 9.5 12.2761 9.5 12V7.5H16.5V12C16.5 12.2761 16.2761 12.5 16 12.5H10Z" stroke="var(--mw-icon-glyph-content-yellow, #674C07)" stroke-linecap="square" stroke-linejoin="round"/>
<path d="M14.5 16.5V15C14.5 14.7239 14.7239 14.5 15 14.5H21C21.2761 14.5 21.5 14.7239 21.5 15V16.5H14.5Z" fill="var(--mw-icon-background-default-selection, #B4DEFF)"/>
<path d="M9.5 7.5V6C9.5 5.72386 9.72386 5.5 10 5.5H16C16.2761 5.5 16.5 5.72386 16.5 6V7.5H9.5Z" fill="var(--mw-icon-background-default-selection, #B4DEFF)"/>
<path d="M14.5 16.5V15C14.5 14.7239 14.7239 14.5 15 14.5H21C21.2761 14.5 21.5 14.7239 21.5 15V16.5H14.5Z" stroke="var(--mw-icon-glyph-content-blue, #1656A8)" stroke-linecap="square"/>
<path d="M9.5 7.5V6C9.5 5.72386 9.72386 5.5 10 5.5H16C16.2761 5.5 16.5 5.72386 16.5 6V7.5H9.5Z" stroke="var(--mw-icon-glyph-content-blue, #1656A8)" stroke-linecap="square"/>
<path d="M19.5 12V9.5H17M11.5 14.5V18.5H14" stroke="var(--mw-icon-glyph-disabled-gray, #888889)" stroke-linejoin="round"/>
<path d="M21 12H18L19.5 14L21 12Z" fill="var(--mw-icon-glyph-disabled-gray, #888889)"/>
<path d="M13 15H10L11.5 13L13 15Z" fill="var(--mw-icon-glyph-disabled-gray, #888889)"/>
<path d="M0.5 1.5C0.5 0.947716 0.947715 0.5 1.5 0.5H9.5C10.0523 0.5 10.5 0.947715 10.5 1.5V9.5C10.5 10.0523 10.0523 10.5 9.5 10.5H1.5C0.947716 10.5 0.5 10.0523 0.5 9.5V1.5Z" fill="white" stroke="var(--mw-icon-border-default-gray, #616161)"/>
<path d="M5 5.25C5 5.11193 5.11193 5 5.25 5H8.75C8.88807 5 9 5.11193 9 5.25V8.75C9 8.88807 8.88807 9 8.75 9H5.25C5.11193 9 5 8.88807 5 8.75V5.25Z" fill="#D78825"/>
<path d="M2 7V2L6.5 4.5L2 7Z" fill="#0076A8"/>
</svg>
