<svg width="24" height="24" viewBox="0 0 24 24" fill="none" xmlns="http://www.w3.org/2000/svg">
<rect x="1.5" y="1.5" width="20" height="20" fill="var(--mw-icon-background-light-yellow, #FFF5BC)" stroke="#674C06"/>
<path d="M7.5 5.5C7.5 4.94771 7.94772 4.5 8.5 4.5H14.5C15.0523 4.5 15.5 4.94772 15.5 5.5V9.5C15.5 10.0523 15.0523 10.5 14.5 10.5L8.5 10.5C7.94771 10.5 7.5 10.0523 7.5 9.49998V5.5Z" stroke="var(--mw-icon-glyph-content-yellow, #674C07)" stroke-linecap="round"/>
<path d="M7.5 13.5C7.5 12.9477 7.94772 12.5 8.5 12.5H14.5C15.0523 12.5 15.5 12.9477 15.5 13.5V17.5C15.5 18.0523 15.0523 18.5 14.5 18.5L8.5 18.5C7.94771 18.5 7.5 18.0523 7.5 17.5V13.5Z" stroke="var(--mw-icon-glyph-content-yellow, #674C07)" stroke-linecap="round"/>
<rect x="0.5" y="0.5" width="2" height="2" fill="var(--mw-icon-background-light-yellow, #FFF5BC)" stroke="#674C06" stroke-linejoin="round"/>
<rect x="20.5" y="0.5" width="2" height="2" fill="var(--mw-icon-background-light-yellow, #FFF5BC)" stroke="#674C06" stroke-linejoin="round"/>
<rect x="20.5" y="20.5" width="2" height="2" fill="var(--mw-icon-background-light-yellow, #FFF5BC)" stroke="#674C06" stroke-linejoin="round"/>
<rect x="0.5" y="20.5" width="2" height="2" fill="var(--mw-icon-background-light-yellow, #FFF5BC)" stroke="#674C06" stroke-linejoin="round"/>
</svg>
