<svg width="24" height="24" viewBox="0 0 24 24" fill="none" xmlns="http://www.w3.org/2000/svg">
<path d="M8.5 3.5H22.5V21.5C22.5 22.0523 22.0523 22.5 21.5 22.5H8.5V3.5Z" fill="var(--mw-icon-background-default-white, #FFFFFF)" stroke="var(--mw-icon-border-default-gray, #616161)"/>
<path d="M22.5 1.5C22.5 0.947715 22.0523 0.5 21.5 0.5H8.5V3.5H22.5V1.5Z" fill="var(--mw-icon-background-default-medium-gray, #D9D9D9)"/>
<path d="M1.5 1.5C1.5 0.947715 1.94772 0.5 2.5 0.5H8.5V3.5H1.5V1.5Z" fill="var(--mw-icon-background-default-medium-gray, #D9D9D9)"/>
<path d="M8.5 0.5H21.5C22.0523 0.5 22.5 0.947715 22.5 1.5V3.5H8.5M8.5 0.5V3.5M8.5 0.5H2.5C1.94772 0.5 1.5 0.947715 1.5 1.5V3.5H8.5" stroke="var(--mw-icon-border-default-gray, #616161)"/>
<path d="M9 12.5H22M15.5 1V22.5" stroke="var(--mw-icon-glyph-content-gray, #616162)"/>
<path d="M2.5 22.5C1.94772 22.5 1.5 22.0523 1.5 21.5L1.5 12.5L1.5 3.5H8.5L8.5 12.5V22.5H2.5Z" fill="var(--mw-icon-background-light-yellow, #FFF5BC)"/>
<path d="M8.5 12.5L8.5 3.5H1.5L1.5 12.5M8.5 12.5V22.5H2.5C1.94772 22.5 1.5 22.0523 1.5 21.5L1.5 12.5M8.5 12.5H1.5" stroke="#674C06"/>
<path d="M10.5 14.5H13.5M10.5 16.5H12.5M17.5 5.5H20.5M10.5 5.5H13.5" stroke="var(--mw-icon-glyph-content-gray, #616162)" stroke-linecap="round"/>
<path d="M3.5 14.5H6.5M3.5 5.5H5.5M3.5 7.5H6.5" stroke="var(--mw-icon-glyph-content-yellow, #674C07)" stroke-linecap="round"/>
</svg>
