<svg width="24" height="24" viewBox="0 0 24 24" fill="none" xmlns="http://www.w3.org/2000/svg">
<path d="M20.5 0.5H2.5C1.39543 0.5 0.5 1.39543 0.5 2.5V20.5C0.5 21.6046 1.39543 22.5 2.5 22.5H20.5C21.6046 22.5 22.5 21.6046 22.5 20.5V2.5C22.5 1.39543 21.6046 0.5 20.5 0.5Z" fill="var(--mw-icon-background-light-yellow, #FFF5BC)" stroke="#674C06"/>
<path d="M3.5 4.5C3.5 3.94771 3.94772 3.5 4.5 3.5H10.5C11.0523 3.5 11.5 3.94772 11.5 4.5V8.5C11.5 9.05228 11.0523 9.5 10.5 9.5L4.5 9.49998C3.94771 9.49998 3.5 9.05226 3.5 8.49998V4.5Z" stroke="var(--mw-icon-glyph-content-yellow, #674C07)" stroke-linecap="round"/>
<path d="M9.5 17.5H8.5C7.94772 17.5 7.5 17.0523 7.5 16.5V13.5" stroke="var(--mw-icon-glyph-content-yellow, #674C07)" stroke-linecap="round" stroke-linejoin="round"/>
<path d="M7.5 11L5 14H10L7.5 11Z" fill="var(--mw-icon-glyph-content-yellow, #674C07)"/>
<path d="M19.5 18.5C19.5 19.0523 19.0523 19.5 18.5 19.5L12.5 19.5C11.9477 19.5 11.5 19.0523 11.5 18.5L11.5 14.5C11.5 13.9477 11.9477 13.5 12.5 13.5L18.5 13.5C19.0523 13.5 19.5 13.9477 19.5 14.5V18.5Z" stroke="var(--mw-icon-glyph-content-yellow, #674C07)" stroke-linecap="round"/>
<path d="M13.5 5.5L14.5 5.5C15.0523 5.5 15.5 5.94772 15.5 6.5L15.5 9.5" stroke="var(--mw-icon-glyph-content-yellow, #674C07)" stroke-linecap="round" stroke-linejoin="round"/>
<path d="M15.5 12L18 9L13 9L15.5 12Z" fill="var(--mw-icon-glyph-content-yellow, #674C07)"/>
</svg>
