<svg width="24" height="24" viewBox="0 0 24 24" fill="none" xmlns="http://www.w3.org/2000/svg">
<path d="M22.5 0.5H1.5C0.947715 0.5 0.5 0.947715 0.5 1.5V22.5C0.5 23.0523 0.947715 23.5 1.5 23.5H22.5C23.0523 23.5 23.5 23.0523 23.5 22.5V1.5C23.5 0.947715 23.0523 0.5 22.5 0.5Z" fill="var(--mw-icon-background-default-white, #FFFFFF)" stroke="var(--mw-icon-border-default-gray, #616161)" stroke-linecap="round"/>
<path d="M2.5 23.5C2.5 7.99227 9.84374 4.5 23.5 4.5" stroke="#0072BD"/>
<path d="M22.5 0.5H1.5C0.947715 0.5 0.5 0.947715 0.5 1.5V22.5C0.5 23.0523 0.947715 23.5 1.5 23.5H22.5C23.0523 23.5 23.5 23.0523 23.5 22.5V1.5C23.5 0.947715 23.0523 0.5 22.5 0.5Z" stroke="var(--mw-icon-border-default-gray, #616161)" stroke-linecap="round"/>
</svg>
