<svg width="24" height="24" viewBox="0 0 24 24" fill="none" xmlns="http://www.w3.org/2000/svg">
<path fill-rule="evenodd" clip-rule="evenodd" d="M19.5 3C18.6716 3 18 3.67157 18 4.5C18 5.32843 18.6716 6 19.5 6C20.3284 6 21 5.32843 21 4.5C21 3.67157 20.3284 3 19.5 3ZM12 5H17.05C17.2816 6.14112 18.2905 7 19.5 7C20.8807 7 22 5.88071 22 4.5C22 3.11929 20.8807 2 19.5 2C18.2905 2 17.2816 2.85888 17.05 4H11.5C11.2239 4 11 4.22386 11 4.5V18H5.94999C5.71836 16.8589 4.70948 16 3.5 16C2.11929 16 1 17.1193 1 18.5C1 19.8807 2.11929 21 3.5 21C4.70948 21 5.71836 20.1411 5.94999 19H11.5C11.7761 19 12 18.7761 12 18.5V5ZM2 18.5C2 17.6716 2.67157 17 3.5 17C4.32843 17 5 17.6716 5 18.5C5 19.3284 4.32843 20 3.5 20C2.67157 20 2 19.3284 2 18.5Z" fill="var(--mw-icon-object-primary, #616160)"/>
</svg>
