<svg width="24" height="24" viewBox="0 0 24 24" fill="none" xmlns="http://www.w3.org/2000/svg">
<rect x="0.5" y="0.5" width="22" height="22" rx="2" fill="var(--mw-icon-background-default-white, #FFFFFF)"/>
<rect x="3.5" y="3.5" width="11" height="11" rx="1" fill="var(--mw-icon-background-default-medium-gray, #D9D9D9)" stroke="var(--mw-icon-glyph-content-gray, #616162)"/>
<rect x="6" y="6" width="11" height="11" rx="1" fill="var(--mw-icon-background-default-medium-gray, #D9D9D9)" stroke="var(--mw-icon-glyph-content-gray, #616162)"/>
<path d="M6 7.5L12 12.5" stroke="var(--mw-icon-glyph-disabled-gray, #888889)" stroke-linecap="round" stroke-linejoin="round"/>
<path d="M13.5 7.5H15.5V9.5H13.5V7.5Z" fill="var(--mw-icon-background-default-medium-gray, #D9D9D9)"/>
<path d="M6.5 12.5H8.5V14.5H6.5V12.5Z" fill="var(--mw-icon-background-default-medium-gray, #D9D9D9)"/>
<path d="M13.5 7.5H15.5V9.5H13.5V7.5Z" stroke="var(--mw-icon-glyph-content-gray, #616162)"/>
<path d="M6.5 12.5H8.5V14.5H6.5V12.5Z" stroke="var(--mw-icon-glyph-content-gray, #616162)"/>
<rect x="6" y="6" width="11" height="11" rx="1" stroke="var(--mw-icon-glyph-content-gray, #616162)"/>
<rect x="8.5" y="8.5" width="11" height="11" rx="1" fill="#FFD19E" stroke="#DD5400"/>
<path d="M8.5 18.5435L19.5 10.4131" stroke="#DD5400" stroke-linecap="round" stroke-linejoin="round"/>
<path d="M11.5 10.5H13.5V12.5H11.5V10.5Z" stroke="var(--mw-icon-glyph-content-gray, #616162)"/>
<path d="M14.5 16.5H16.5V18.5H14.5V16.5Z" stroke="var(--mw-icon-glyph-content-gray, #616162)"/>
<path d="M16.5 13.5H18.5V15.5H16.5V13.5Z" stroke="var(--mw-icon-glyph-content-gray, #616162)"/>
<rect x="0.5" y="0.5" width="22" height="22" rx="2" stroke="var(--mw-icon-border-default-gray, #616161)"/>
</svg>
