<svg width="24" height="24" viewBox="0 0 24 24" fill="none" xmlns="http://www.w3.org/2000/svg">
<path d="M0.5 1.5C0.5 0.947715 0.947715 0.5 1.5 0.5H16.5C17.0523 0.5 17.5 0.947715 17.5 1.5V16.5C17.5 17.0523 17.0523 17.5 16.5 17.5H1.5C0.947715 17.5 0.5 17.0523 0.5 16.5V1.5Z" fill="var(--mw-icon-background-default-white, #FFFFFF)" stroke="var(--mw-icon-border-default-green, #008013)" stroke-linejoin="round"/>
<path d="M3.5 3.5H14.5V14.5H3.5V3.5Z" stroke="var(--mw-icon-border-default-green, #008013)" stroke-linejoin="round"/>
<path d="M4 4H9V9H4V4Z" fill="#FFD60A"/>
<path d="M9 9H14V14H9V9Z" fill="#FFD60A"/>
<path d="M14 9L9 9L9 4L14 4L14 9Z" fill="#3AC831"/>
<path d="M9 14L4 14L4 9L9 9L9 14Z" fill="#3AC831"/>
<path d="M10.5 20.5V12.5C10.5 11.3954 11.3954 10.5 12.5 10.5H20.5C21.6046 10.5 22.5 11.3954 22.5 12.5V20.5C22.5 21.6046 21.6046 22.5 20.5 22.5H12.5C11.3954 22.5 10.5 21.6046 10.5 20.5Z" fill="var(--mw-icon-background-red, #FF9D9A)" stroke="var(--mw-icon-border-default-red, #902622)" stroke-linejoin="round"/>
</svg>
