<svg width="24" height="24" viewBox="0 0 24 24" fill="none" xmlns="http://www.w3.org/2000/svg">
<path d="M21.5 23.5H9.5C8.39543 23.5 7.5 22.6046 7.5 21.5V9.5C7.5 8.39543 8.39543 7.5 9.5 7.5H21.5C22.6046 7.5 23.5 8.39543 23.5 9.5V21.5C23.5 22.6046 22.6046 23.5 21.5 23.5Z" fill="var(--mw-icon-background-default-white, #FFFFFF)" stroke="var(--mw-icon-border-default-gray, #616161)" stroke-linejoin="round"/>
<path d="M23.5 17.5V21.5C23.5 22.6046 22.6046 23.5 21.5 23.5H17.5L23.5 17.5Z" fill="var(--mw-icon-background-default-medium-gray, #D9D9D9)" stroke="var(--mw-icon-border-default-gray, #616161)" stroke-linejoin="round"/>
<path d="M19.5 14.5V11.5H11.5V14.5M19.5 14.5V17.5H11.5V14.5M19.5 14.5H21.5M11.5 14.5H9.5" stroke="var(--mw-icon-glyph-content-light-blue, #278CDD)" stroke-linecap="round" stroke-linejoin="round"/>
<path d="M0.5 1.5C0.5 0.947715 0.947715 0.5 1.5 0.5H9.5C10.0523 0.5 10.5 0.947715 10.5 1.5V9.5C10.5 10.0523 10.0523 10.5 9.5 10.5H1.5C0.947715 10.5 0.5 10.0523 0.5 9.5V1.5Z" fill="white" stroke="var(--mw-icon-border-default-gray, #616161)"/>
<path d="M5 5.25C5 5.11193 5.11193 5 5.25 5H8.75C8.88807 5 9 5.11193 9 5.25V8.75C9 8.88807 8.88807 9 8.75 9H5.25C5.11193 9 5 8.88807 5 8.75V5.25Z" fill="#D78825"/>
<path d="M2 7V2L6.5 4.5L2 7Z" fill="#0076A8"/>
</svg>
