<svg width="24" height="24" viewBox="0 0 24 24" fill="none" xmlns="http://www.w3.org/2000/svg">
<rect x="0.5" y="0.5" width="15" height="10" rx="1" fill="var(--mw-icon-background-default-white, #FFFFFF)" stroke="var(--mw-icon-border-default-gray, #616161)" stroke-linejoin="round"/>
<path d="M6.5 10V1" stroke="#A2142F" stroke-linejoin="round"/>
<path d="M3.5 10V6M12.5 10V2M8.5 10V4" stroke="#8D1FD8" stroke-linejoin="round"/>
<rect x="9" y="14" width="14" height="9" fill="white"/>
<path fill-rule="evenodd" clip-rule="evenodd" d="M18.5 15.5L17.75 18.5H13.5H11.5L9.5 23.5H13.5H15.5H16.5H18H22.5L20.5 15.5H18.5Z" fill="#E6BFFF"/>
<path d="M17.75 18.5V19C17.9794 19 18.1794 18.8439 18.2351 18.6213L17.75 18.5ZM18.5 15.5V15C18.2706 15 18.0706 15.1561 18.0149 15.3787L18.5 15.5ZM11.5 18.5V18C11.2955 18 11.1117 18.1245 11.0358 18.3143L11.5 18.5ZM9.5 23.5L9.03576 23.3143C8.97414 23.4683 8.99295 23.6429 9.08597 23.7803C9.17898 23.9177 9.33409 24 9.5 24V23.5ZM22.5 23.5V24C22.654 24 22.7993 23.9291 22.8941 23.8077C22.9889 23.6863 23.0224 23.5281 22.9851 23.3787L22.5 23.5ZM20.5 15.5L20.9851 15.3787C20.9294 15.1561 20.7294 15 20.5 15V15.5ZM18.2351 18.6213L18.9851 15.6213L18.0149 15.3787L17.2649 18.3787L18.2351 18.6213ZM13.5 19H17.75V18H13.5V19ZM11.5 19H13.5V18H11.5V19ZM9.96424 23.6857L11.9642 18.6857L11.0358 18.3143L9.03576 23.3143L9.96424 23.6857ZM13.5 23H9.5V24H13.5V23ZM15.5 23H13.5V24H15.5V23ZM16.5 23H15.5V24H16.5V23ZM18 23H16.5V24H18V23ZM22.5 23H18V24H22.5V23ZM20.0149 15.6213L22.0149 23.6213L22.9851 23.3787L20.9851 15.3787L20.0149 15.6213ZM18.5 16H20.5V15H18.5V16Z" fill="#8D1FD8"/>
<path d="M14.5 23V14" stroke="#A2142F"/>
<rect x="8.5" y="13.5" width="15" height="10" rx="1" stroke="var(--mw-icon-border-default-gray, #616161)" stroke-linejoin="round"/>
<path d="M17.5 5.5H21.5V10.5" stroke="var(--mw-icon-object-primary, #616160)" stroke-linecap="round" stroke-linejoin="round"/>
<path d="M20.5 10.5L21.5 11.5L22.5 10.5H20.5Z" stroke="var(--mw-icon-object-primary, #616160)" stroke-linecap="round"/>
</svg>
