<svg width="24" height="24" viewBox="0 0 24 24" fill="none" xmlns="http://www.w3.org/2000/svg">
<path d="M0.5 23.5V0.5H8.5V6.5L11.5 8.5L14.5 11.5L8.5 17.5V23.5H0.5Z" fill="var(--mw-icon-background-medium-blue, #83CAFF)"/>
<path d="M8.5 0.5H23.5V23.5H8.5V17.5L14.5 11.5L11.5 8.5L8.5 6.5V0.5Z" fill="var(--mw-icon-background-default-white, #FFFFFF)"/>
<path d="M8.5 0.5H1.5C0.947715 0.5 0.5 0.947715 0.5 1.5V2.5M8.5 0.5V6.5M8.5 0.5H19.5M8.5 6.5L6.5 8.5M8.5 6.5L11.5 8.5M6.5 8.5L0.5 2.5M6.5 8.5V14.5M0.5 2.5V14.5M6.5 14.5H0.5M6.5 14.5L8.5 17.5M0.5 14.5V22.5C0.5 23.0523 0.947715 23.5 1.5 23.5H3M8.5 17.5L3 23.5M8.5 17.5V23.5M8.5 17.5L11 15M3 23.5H8.5M8.5 23.5H17.5M14.5 11.5L11.5 8.5M14.5 11.5H17.5M14.5 11.5L11 15M23.5 8.5V1.5C23.5 0.947715 23.0523 0.5 22.5 0.5H19.5M23.5 8.5V21.5M23.5 8.5L20.5 11.5H17.5M23.5 8.5L22.5 9.5L16.5 3.5M11.5 8.5L16.5 3.5M19.5 0.5L16.5 3.5M17.5 11.5V15.5M17.5 23.5H22.5C23.0523 23.5 23.5 23.0523 23.5 22.5V21.5M17.5 23.5V21.5M17.5 15.5L23.5 21.5M17.5 15.5V21.5M11 15L17.5 21.5" stroke="var(--mw-icon-border-default-gray, #616161)" stroke-linecap="round"/>
</svg>
