<svg width="24" height="24" viewBox="0 0 24 24" fill="none" xmlns="http://www.w3.org/2000/svg">
<path d="M0.5 5.5L12 0.5L23.5 5.5V18.5L12 23.5L0.5 18.5V5.5Z" fill="var(--mw-icon-background-default-white, #FFFFFF)"/>
<path d="M12 0.5L0.5 5.5V18.5L12 13.5V0.5Z" fill="#E6E6E6"/>
<path d="M12 0.5L23.5 5.5V18.5L12 13.5V0.5Z" fill="var(--mw-icon-background-default-light-gray, #F5F5F5)"/>
<path d="M0.5 5.5L12 0.5L23.5 5.5V18.5" stroke="var(--mw-icon-background-default-dark-gray, #A6A6A6)" stroke-linecap="round" stroke-linejoin="round"/>
<path d="M0.5 5.5V18.5L12 23.5L23.5 18.5" stroke="var(--mw-icon-border-default-gray, #616161)" stroke-linecap="round" stroke-linejoin="round"/>
<path d="M11.2623 4.5L10.082 5.74998L8.37292 7.19791C8.13604 7.3986 7.8766 7.57103 7.59984 7.71171L6.54098 8.24996L6.065 8.5524C5.60044 8.84759 5.2018 9.23548 4.89402 9.6918L4.25751 10.6355C4.2066 10.711 4.14067 10.7751 4.06383 10.824L3.50093 11.1816C3.289 11.3163 3.31529 11.6335 3.54649 11.7314C3.57544 11.7437 3.60237 11.7603 3.62635 11.7806L3.94503 12.0506C4.1015 12.1831 4.24422 12.3311 4.37103 12.4923L4.38357 12.5082C4.63918 12.833 4.83059 13.2036 4.94758 13.6L5.26274 14.6681C5.32777 14.8884 5.41972 15.1 5.5365 15.2979C5.80708 15.7563 6.20292 16.128 6.6775 16.3693L10.8752 18.5031C11.4893 18.8153 12.2156 18.8153 12.8297 18.5031C13.1564 18.337 13.4354 18.0904 13.6404 17.7866L13.9806 17.2821C14.3276 16.7677 14.7894 16.341 15.3297 16.0359L15.3934 15.9999L16.5738 15.2499L17.9522 14.4157C18.4033 14.1428 18.7796 13.7623 19.0476 13.3082C19.1685 13.1033 19.312 12.9126 19.4753 12.7396L20.3662 11.7961C20.395 11.7657 20.4298 11.7415 20.4683 11.7251C20.6933 11.6299 20.7188 11.3213 20.5127 11.1903L19.9167 10.8116C19.8525 10.7708 19.7956 10.7194 19.7486 10.6596L19.5421 10.3972C19.3356 10.1348 19.181 9.8354 19.0864 9.51511L18.8431 8.69041C18.7089 8.23567 18.4764 7.81595 18.1622 7.46095C17.8925 7.15636 17.5679 6.90533 17.2053 6.72099L12.542 4.3505C12.1242 4.13815 11.6199 4.19707 11.2623 4.5Z" fill="#F9FB15"/>
<path d="M12.3448 5.73443L16.0086 7.48048C16.3526 7.64439 16.7607 7.59142 17.0514 7.34513L17.0785 7.32219C17.1351 7.27421 17.1987 7.23507 17.2671 7.20612C17.558 7.08286 17.8952 7.15923 18.1047 7.39585L18.4302 7.76358C18.568 7.91916 18.6698 8.10308 18.7286 8.30236L19.0864 9.51494C19.181 9.83523 19.3356 10.1346 19.5421 10.397L19.7486 10.6594C19.7956 10.7192 19.8525 10.7706 19.9167 10.8114L20.5127 11.1901C20.7188 11.3211 20.6933 11.6297 20.4683 11.725C20.4298 11.7413 20.395 11.7655 20.3662 11.796L19.4753 12.7395C19.312 12.9124 19.1685 13.1032 19.0476 13.3081C18.7796 13.7621 18.4033 14.1426 17.9522 14.4156L16.5738 15.2497L15.3934 15.9997L15.3297 16.0357C14.7894 16.3409 14.3276 16.7675 13.9806 17.2819L13.6404 17.7864C13.4354 18.0902 13.1564 18.3369 12.8297 18.5029C12.2156 18.8151 11.4893 18.8151 10.8752 18.5029L6.6775 16.3691C6.20292 16.1279 5.80708 15.7562 5.5365 15.2977C5.41972 15.0998 5.32777 14.8883 5.26274 14.6679L4.94758 13.5999C4.83059 13.2034 4.63918 12.8329 4.38357 12.508L4.37103 12.4921C4.24422 12.3309 4.1015 12.183 3.94503 12.0504L3.62635 11.7804C3.60237 11.7601 3.57544 11.7435 3.54649 11.7313C3.31529 11.6333 3.289 11.3161 3.50093 11.1815L4.06383 10.8238C4.14067 10.775 4.2066 10.7108 4.25751 10.6353L4.89402 9.69163C5.2018 9.23531 5.60044 8.84742 6.065 8.55224L6.54098 8.24979L7.6858 7.66785C7.90545 7.55619 8.11135 7.41935 8.29935 7.26008L9.63816 6.12582C9.90214 5.90217 10.2809 5.87622 10.5729 6.06177L10.7426 6.16956C11.0268 6.35017 11.4041 6.25951 11.5753 5.96949C11.7322 5.70364 12.0661 5.60164 12.3448 5.73443Z" fill="#FEC338"/>
<path d="M16.1748 8.42608L16.1953 8.39124C16.3562 8.11862 16.7565 8.13706 16.8917 8.42331C17.0168 8.68834 17.377 8.72915 17.5583 8.49882L17.6553 8.37558C17.7195 8.29395 17.8079 8.23478 17.9079 8.20655L17.9733 8.18809C18.3424 8.08385 18.7267 8.29594 18.8352 8.66382L19.1334 9.67437C19.1969 9.88947 19.3008 10.0905 19.4394 10.2668L19.7486 10.6596C19.7956 10.7194 19.8525 10.7708 19.9167 10.8116L20.5127 11.1903C20.7188 11.3213 20.6933 11.6299 20.4683 11.7252C20.4298 11.7415 20.395 11.7657 20.3662 11.7962L19.4753 12.7396C19.312 12.9126 19.1685 13.1034 19.0476 13.3083C18.7796 13.7623 18.4033 14.1428 17.9522 14.4158L16.5738 15.2499L15.3934 15.9999L15.3297 16.0359C14.7894 16.3411 14.3276 16.7677 13.9806 17.2821L13.6404 17.7866C13.4354 18.0904 13.1564 18.337 12.8297 18.5031C12.2156 18.8153 11.4893 18.8153 10.8752 18.5031L6.6775 16.3693C6.20292 16.1281 5.80708 15.7564 5.5365 15.2979C5.41972 15.1 5.32777 14.8885 5.26274 14.6681L4.94758 13.6001C4.83059 13.2036 4.63918 12.8331 4.38357 12.5082L4.37103 12.4923C4.24422 12.3311 4.1015 12.1832 3.94503 12.0506L3.62635 11.7806C3.60237 11.7603 3.57544 11.7437 3.54649 11.7315C3.31529 11.6335 3.289 11.3163 3.50093 11.1817L4.06383 10.824C4.14067 10.7752 4.2066 10.711 4.25751 10.6355L4.89402 9.69183C5.2018 9.23551 5.60044 8.84762 6.065 8.55243L6.54098 8.24999L7.6909 7.66545C7.89727 7.56054 8.13944 7.55211 8.3526 7.64241C8.51698 7.71204 8.70018 7.72355 8.87198 7.67504L9.29746 7.55488C9.42325 7.51935 9.55739 7.52778 9.67775 7.57876L9.75203 7.61023C9.94682 7.69274 10.1727 7.63464 10.3036 7.4684L10.3977 7.34877C10.5375 7.17108 10.8068 7.17108 10.9466 7.34877C11.0985 7.54181 11.3969 7.52186 11.5218 7.31031L11.6154 7.1516C11.7471 6.92858 12.033 6.85198 12.2585 6.97933L12.7377 7.25L15.6422 8.59221C15.836 8.68179 16.0662 8.60998 16.1748 8.42608Z" fill="#ABC739"/>
<path d="M4.06383 10.8241L3.50093 11.1818C3.289 11.3165 3.31529 11.6336 3.54649 11.7316C3.57544 11.7438 3.60237 11.7604 3.62635 11.7807L3.94503 12.0507C4.1015 12.1833 4.24422 12.3313 4.37103 12.4924L4.38357 12.5084C4.63918 12.8332 4.83059 13.2037 4.94758 13.6002L5.26274 14.6682C5.32777 14.8886 5.41972 15.1001 5.5365 15.298C5.80708 15.7565 6.20292 16.1282 6.6775 16.3694L10.8752 18.5033C11.4893 18.8154 12.2156 18.8154 12.8297 18.5033C13.1564 18.3372 13.4354 18.0906 13.6404 17.7867L13.9806 17.2822C14.3276 16.7678 14.7894 16.3412 15.3297 16.0361L15.3934 16L16.5738 15.2501L17.9522 14.4159C18.4033 14.1429 18.7796 13.7624 19.0476 13.3084C19.1685 13.1035 19.312 12.9128 19.4753 12.7398L20.3662 11.7963C20.395 11.7658 20.4298 11.7416 20.4683 11.7253C20.6933 11.63 20.7188 11.3214 20.5127 11.1904L19.9167 10.8118C19.8525 10.7709 19.7956 10.7195 19.7486 10.6597L19.4394 10.2669C19.3008 10.0906 19.1969 9.8896 19.1334 9.67451L18.8352 8.66395C18.7267 8.29608 18.3424 8.08398 17.9733 8.18822C17.8308 8.22845 17.7048 8.31277 17.6133 8.42909L17.1639 9.00011L16.9251 9.40488C16.7757 9.65792 16.4041 9.64081 16.2787 9.37511C16.1532 9.10941 15.7817 9.09229 15.6323 9.34534L15.3851 9.76424C15.2223 10.0401 14.877 10.1478 14.5862 10.0134L12.072 8.85155C11.929 8.7855 11.8096 8.67747 11.7296 8.54186L11.6264 8.36702C11.4361 8.04462 11.0014 7.97117 10.7157 8.21316C10.6867 8.23774 10.6555 8.25953 10.6224 8.27823L8.32031 9.57845C8.13768 9.6816 7.91012 9.66006 7.75008 9.52448C7.5632 9.36616 7.28925 9.36616 7.10238 9.52448L7.09551 9.5303C6.93832 9.66347 6.7166 9.68937 6.53295 9.59602L6.20282 9.42821C5.72186 9.18372 5.13408 9.33603 4.83238 9.78334L4.25751 10.6357C4.2066 10.7111 4.14067 10.7753 4.06383 10.8241Z" fill="#37C897"/>
<path d="M10.9124 11.0815L11.9616 11.437C12.0851 11.4789 12.2032 11.5354 12.3133 11.6054C12.9168 11.9888 13.6995 11.9352 14.2451 11.473L14.3978 11.3437C14.4709 11.2817 14.5331 11.2079 14.5818 11.1254L14.8036 10.7497C14.9577 10.4886 15.3097 10.4291 15.541 10.6251C15.7724 10.8211 16.1244 10.7616 16.2785 10.5005L16.6032 9.95027C16.8229 9.57798 17.3784 9.63592 17.5166 10.0456L17.6057 10.3098C17.6769 10.5209 17.9386 10.5938 18.1087 10.4497C18.2396 10.3388 18.4352 10.3528 18.549 10.4813L18.9369 10.9195C19.0996 11.1032 19.3792 11.1233 19.5664 10.9647C19.7171 10.837 19.9333 10.8222 20.1 10.9281L20.5127 11.1904C20.7189 11.3214 20.6933 11.63 20.4684 11.7253C20.4298 11.7416 20.395 11.7658 20.3663 11.7963L19.4753 12.7398C19.312 12.9127 19.1685 13.1035 19.0476 13.3084C18.7796 13.7624 18.4033 14.1429 17.9523 14.4159L16.5738 15.25L15.3935 16L15.3297 16.036C14.7895 16.3412 14.3276 16.7678 13.9807 17.2822L13.6404 17.7867C13.4355 18.0906 13.1565 18.3372 12.8297 18.5032C12.2156 18.8154 11.4894 18.8154 10.8753 18.5032L6.67754 16.3694C6.20297 16.1282 5.80713 15.7565 5.53655 15.298C5.41976 15.1001 5.32781 14.8886 5.26278 14.6682L4.94762 13.6002C4.83064 13.2037 4.63922 12.8332 4.38361 12.5083L4.20836 12.2856C4.18975 12.262 4.16881 12.2403 4.14585 12.2208L4.03733 12.1289C3.8323 11.9552 3.88237 11.6263 4.1298 11.5215C4.16332 11.5073 4.1945 11.4881 4.22228 11.4646L4.44843 11.273C4.642 11.109 4.91723 11.0829 5.13812 11.2077L5.24975 11.2707C5.47523 11.3981 5.76118 11.3215 5.8928 11.0985L5.98646 10.9398C6.11131 10.7282 6.40976 10.7083 6.56166 10.9013C6.70149 11.079 6.97074 11.079 7.11056 10.9013L7.42628 10.5001L7.4942 10.4138C7.73422 10.1087 8.21129 10.1628 8.377 10.5138C8.50271 10.78 8.82353 10.8898 9.08601 10.7564L9.45733 10.5676C9.82048 10.383 10.2634 10.4806 10.5154 10.8008C10.6177 10.9308 10.7556 11.0284 10.9124 11.0815Z" fill="#12B1D6"/>
<path d="M7.76197 11.3533L7.69754 11.1895C7.57736 10.8841 7.17101 10.8244 6.96803 11.0823L6.83608 11.25L6.76266 11.3744C6.42413 11.948 5.94061 12.4224 5.36067 12.75C5.02442 12.8924 4.84855 13.2645 4.9519 13.6147L5.2888 14.7564C5.33653 14.9182 5.40402 15.0734 5.48975 15.2187L5.53652 15.2979C5.8071 15.7564 6.20294 16.1281 6.67751 16.3693L10.8752 18.5032C11.4893 18.8153 12.2156 18.8153 12.8297 18.5032C13.1564 18.3371 13.4354 18.0905 13.6404 17.7866L13.9807 17.2821C14.3276 16.7677 14.7895 16.3411 15.3297 16.036L15.3935 15.9999L16.5738 15.25L18.4706 14.1021C18.5814 14.035 18.6738 13.9416 18.7396 13.8301C18.9922 13.4021 18.7873 12.8501 18.3166 12.6906L17.9253 12.558C17.8136 12.5201 17.7153 12.4506 17.6423 12.3579L17.4128 12.0662C17.286 11.9051 17.0419 11.9051 16.9151 12.0662C16.7639 12.2584 16.4612 12.2139 16.3717 11.9863L16.2604 11.7035C16.1303 11.3727 15.7027 11.2856 15.4535 11.5389L14.6102 12.3963C14.5424 12.4652 14.467 12.5261 14.3855 12.578L13.4132 13.1958C13.3564 13.2318 13.2968 13.2632 13.2348 13.2894C12.9182 13.4235 12.5598 13.4177 12.2476 13.2735L9.65223 12.0741C9.54644 12.0252 9.45193 11.9549 9.37468 11.8677L8.9156 11.3491C8.76299 11.1767 8.48663 11.2032 8.36962 11.4015C8.22604 11.6448 7.8654 11.6162 7.76197 11.3533Z" fill="#2E87F7"/>
<path d="M6.34104 12.0885L6.30747 12.1454C6.26715 12.2137 6.20955 12.2702 6.14046 12.3092L5.36067 12.7497C5.02442 12.8921 4.84855 13.2641 4.9519 13.6144L5.2888 14.7561C5.33653 14.9178 5.40402 15.0731 5.48975 15.2183L5.53652 15.2976C5.8071 15.7561 6.20294 16.1278 6.67751 16.369L10.8752 18.5028C11.4893 18.815 12.2156 18.815 12.8297 18.5028C13.1564 18.3368 13.4354 18.0901 13.6404 17.7863L13.9807 17.2818C14.3276 16.7674 14.7895 16.3408 15.3297 16.0356L15.3935 15.9996L15.6547 15.8336C16.0825 15.5618 16.0825 14.9375 15.6547 14.6656C15.4885 14.56 15.2851 14.5302 15.0956 14.5838L14.7954 14.6685C14.6159 14.7192 14.4229 14.6773 14.2805 14.5567L14.1506 14.4466C14.0164 14.333 13.8197 14.333 13.6855 14.4466C13.5051 14.5995 13.2287 14.5396 13.1278 14.3258L13.0552 14.172C12.9049 13.8537 12.4782 13.7928 12.2449 14.0564L12.1514 14.162C11.9754 14.3608 11.6872 14.4156 11.4505 14.2953L9.0343 13.0671C8.94666 13.0225 8.86819 12.9618 8.80302 12.8882L8.35199 12.3787C8.19315 12.1993 7.90257 12.2408 7.80026 12.4575C7.66932 12.7348 7.26511 12.7036 7.17831 12.4094L7.11174 12.1838C7.00698 11.8288 6.52917 11.7697 6.34104 12.0885Z" fill="#4852F4"/>
<path d="M6.67751 16.3695L10.8752 18.5034C11.4893 18.8155 12.2156 18.8155 12.8297 18.5034L12.934 18.4503C13.1923 18.319 13.4129 18.1241 13.5749 17.8838L13.9335 17.3523C14.2529 16.8788 14.1351 16.2368 13.6685 15.9073L13.2508 15.6124C12.9745 15.4173 12.5904 15.4997 12.4185 15.7911C12.2654 16.0505 11.9389 16.1491 11.6678 16.0179L8.17455 14.3267C8.07142 14.2768 7.98534 14.1975 7.92711 14.0989C7.70207 13.7175 7.15042 13.7175 6.92538 14.0989L6.8802 14.1754C6.85099 14.2249 6.81369 14.2691 6.76985 14.3063C6.50814 14.528 6.10681 14.4359 5.96798 14.1222L5.49673 13.0576C5.42124 12.887 5.22289 12.8085 5.05115 12.8813C4.89125 12.949 4.80762 13.1259 4.85677 13.2925L5.2888 14.7566C5.33653 14.9184 5.40402 15.0736 5.48975 15.2189L5.53652 15.2981C5.8071 15.7566 6.20294 16.1283 6.67751 16.3695Z" fill="#3E26A8"/>
</svg>
