<svg width="24" height="24" viewBox="0 0 24 24" fill="none" xmlns="http://www.w3.org/2000/svg">
<rect x="0.5" y="0.5" width="22" height="22" rx="1" fill="var(--mw-icon-background-default-white, #FFFFFF)" stroke="var(--mw-icon-border-default-gray, #616161)"/>
<path d="M16.817 13.317C13.3023 16.8317 8.8701 18.098 6.91748 16.1454C4.96485 14.1928 6.23118 9.76062 9.7459 6.2459C13.2606 2.73118 17.6928 1.46485 19.6454 3.41748C21.598 5.3701 20.3317 9.80225 16.817 13.317Z" fill="white" stroke="var(--mw-icon-glyph-content-gray, #616162)"/>
<path d="M12.454 10.1028C17.156 11.7146 20.2418 15.1387 19.3464 17.751C18.451 20.3632 13.9134 21.1743 9.21144 19.5625C4.50943 17.9508 1.42357 14.5266 2.31897 11.9144C3.21436 9.3022 7.75196 8.49112 12.454 10.1028Z" fill="white" stroke="var(--mw-icon-glyph-content-gray, #616162)"/>
<path d="M16.5 6.5H14.5V8.5H16.5V6.5Z" stroke="#0072BD" stroke-linejoin="round"/>
<path d="M11.5 13.5H9.5V15.5H11.5V13.5Z" stroke="#0072BD" stroke-linejoin="round"/>
</svg>
