<svg width="24" height="24" viewBox="0 0 24 24" fill="none" xmlns="http://www.w3.org/2000/svg">
<path d="M0.5 17V6L11.5 0.5L22.5 6V17L11.5 22.5L0.5 17Z" fill="var(--mw-icon-background-default-white, #FFFFFF)"/>
<path d="M11.5 11.5V0.5L0.5 6V17L11.5 11.5Z" fill="var(--mw-icon-background-default-medium-gray, #D9D9D9)"/>
<path d="M11.5 11.5V0.5L22.5 6V17L11.5 11.5Z" fill="var(--mw-icon-background-default-light-gray, #F5F5F5)"/>
<path d="M0.5 6L11.5 0.5L22.5 6V17" stroke="#BFBFBF" stroke-linecap="round" stroke-linejoin="round"/>
<path d="M0.5 6V17L11.5 22.5L22.5 17" stroke="var(--mw-icon-border-default-gray, #616161)" stroke-linecap="round" stroke-linejoin="round"/>
<path d="M16.0105 10.1893C16.0105 10.1893 14.6233 10.422 13.9742 11.4826" stroke="#37C897"/>
<path d="M12.2826 10.4238C12.8835 9.65575 13.6852 9.29765 14.0646 9.1626" stroke="#37C897" stroke-linecap="round"/>
<path d="M18.4854 14.5459C18.4854 14.5459 18.1654 14.0218 17.7297 14.2215C17.2939 14.4212 17.5405 18.2778 16.141 18.2778C14.7414 18.2778 16.3471 15.1925 14.733 12.6492C13.6166 10.8903 12.2796 11.0548 10.8825 9.78377C9.48546 8.51271 9.14041 4.40456 7.66971 5.26247C6.19901 6.12038 6.2817 9.27528 5.98308 10.1286C5.68445 10.982 5.5 11.5 5.5 11.5" stroke="#F9FB15"/>
<path d="M10.8826 9.78378C12.2796 11.0548 13.6166 10.8903 14.733 12.6492C14.8738 12.8711 14.9902 13.0972 15.0861 13.3249C16.0898 15.7074 14.8636 18.2778 16.141 18.2778C17.5406 18.2778 17.294 14.4212 17.7297 14.2215C18.1654 14.0218 18.4854 14.5459 18.4854 14.5459" stroke="#ABC739"/>
<path d="M17.7044 11.1611C17.7044 11.1611 17.3328 11.3027 16.8011 11.6371C16.4448 11.8611 16.0165 12.1719 15.5799 12.5846C14.4918 13.6134 14.9132 15.5238 14.7025 16.3589" stroke="#3E26A8"/>
<path d="M18.4853 14.5459C18.4853 14.5459 18.1652 14.0218 17.7295 14.2215C17.2938 14.4212 17.5404 18.2778 16.1409 18.2778C14.8634 18.2778 16.0897 15.7074 15.0859 13.3249" stroke="#3E26A8"/>
<path d="M14.8529 16.654C14.8529 16.654 12.9667 15.5185 10.1036 13.7532C8.31526 12.6506 7.23607 11.9669 6.24239 11.753C5.38708 11.3757 5.7334 10.6931 5.7334 10.6931" stroke="#ABC739" stroke-linecap="round"/>
<path d="M6.4707 7.43338C6.4707 7.43338 8.35646 12.7082 11.1636 12.1393C11.7395 12.0226 11.5979 11.6401 12.1834 11.5902C14.0317 11.4326 14.8531 16.654 14.8531 16.654" stroke="#F9FB15"/>
<path d="M14.8529 16.654C14.8529 16.654 14.0316 11.4326 12.1833 11.5902C11.5978 11.6401 11.7394 12.0226 11.1635 12.1393C10.0335 12.3683 9.05289 11.6505 8.28442 10.7109" stroke="#FEC338"/>
<path d="M14.853 16.654C14.853 16.654 14.3229 13.2844 13.1562 12.0407" stroke="#ABC739"/>
<path d="M5.07361 13.0217C6.47067 12.1835 6.75104 10.7884 7.29663 9.15163C7.62398 8.16957 7.92748 7.20927 8.51568 7.07372C9.10387 6.93817 9.77011 7.84459 9.77011 7.84459" stroke="#FEC338" stroke-linecap="round"/>
<path d="M3.21558 13.8931C3.21558 13.8931 4.09691 13.5758 5.06251 12.9208" stroke="#37C897"/>
<path d="M6.77161 13.6376C7.75147 12.8755 7.86714 12.0482 8.34494 10.6148C8.63162 9.75475 8.89742 8.73757 9.41253 8.61886C9.92765 8.50015 10.4705 9.28671 10.4705 9.28671" stroke="#FEC338" stroke-linecap="round"/>
<path d="M4.77087 14.7671C4.77087 14.7671 5.49067 14.6221 6.47054 13.86" stroke="#37C897"/>
<path d="M9.82959 15.7329C10.6606 15.0866 10.7586 14.9041 11.1638 13.6885C11.407 12.9591 11.6324 11.4538 12.0692 11.3531C12.5061 11.2525 13.2129 12.1218 13.2129 12.1218" stroke="#FEC338" stroke-linecap="round"/>
<path d="M8.13306 16.6908C8.13306 16.6908 8.99865 16.3792 9.82962 15.7329" stroke="#37C897"/>
<path d="M14.3209 14.3033C14.3209 14.3033 13.7766 13.1722 13.3046 13.39C12.8326 13.6077 12.7089 14.3864 12.4902 15.0425C12.1257 16.1359 12.0375 16.3286 11.29 16.91C10.7637 17.3193 10.2219 17.5794 9.94739 17.6975" stroke="#ABC739"/>
<path d="M11.3443 16.8645C10.8365 17.2824 10.2365 17.5724 9.95862 17.6927" stroke="#37C897"/>
<path d="M8.24207 14.6813C9.14578 13.9784 9.25245 13.6179 9.69312 12.2959C9.95752 11.5027 10.1733 9.92636 10.6483 9.81688C11.1234 9.70739 11.5941 10.3552 11.5941 10.3552" stroke="#FEC338" stroke-linecap="round"/>
<path d="M6.39697 15.723C6.39697 15.723 7.33834 15.3841 8.24206 14.6812" stroke="#37C897"/>
<path d="M14.853 16.654C14.853 16.654 15.0656 17.4767 15.2725 17.7218C15.3918 17.8631 15.5727 18.0973 15.7829 18.206C15.9373 18.2859 16.2763 18.265 16.2763 18.265" stroke="#3E26A8"/>
<path d="M19.603 12.1834C19.603 12.1834 19.179 12.3449 18.5886 12.7306C18.256 12.9478 17.8706 13.2362 17.4786 13.6069C16.3905 14.6356 16.8118 16.5461 16.6012 17.3811C16.3905 18.2162 16.0988 18.2611 16.0988 18.2611" stroke="#3E26A8"/>
<path d="M19.6029 12.1834C19.6029 12.1834 19.1788 12.3449 18.5884 12.7306" stroke="#37C897"/>
<path d="M17.7045 11.1611C17.7045 11.1611 17.333 11.3027 16.8013 11.6371" stroke="#37C897"/>
<path d="M19.5 13C19.5 13 18.0797 12.3706 15.2166 10.6053C14.3267 10.0566 12.4096 9.28022 12.0184 8.89922C11.6273 8.51822 11.7067 8.35747 11.3516 8.27159C10.9964 8.18571 10.3195 8.38667 10.3195 8.38667" stroke="#37C897"/>
<path d="M13.1764 17.7716C13.1764 17.7716 11.2901 16.6362 8.42705 14.8709C5.56399 13.1056 4 12.5 4 12.5" stroke="#37C897"/>
<path d="M5.5 11.5L2.5 13.5L11.5 18.5L20.5 12.5L11.5 7.5L10.1913 8.39523" stroke="#12B1D6" stroke-linecap="square" stroke-linejoin="round"/>
</svg>
