<svg width="24" height="24" viewBox="0 0 24 24" fill="none" xmlns="http://www.w3.org/2000/svg">
<rect x="0.5" y="0.5" width="22" height="22" rx="2" fill="var(--mw-icon-background-default-white, #FFFFFF)"/>
<path d="M7.5 7.5C7.5 6.94772 7.94772 6.5 8.5 6.5C9.05228 6.5 9.5 6.94772 9.5 7.5C9.5 8.05228 9.05228 8.5 8.5 8.5C7.94772 8.5 7.5 8.05228 7.5 7.5Z" fill="white"/>
<path d="M1.5 7.5C1.5 6.94772 1.94772 6.5 2.5 6.5C3.05228 6.5 3.5 6.94772 3.5 7.5C3.5 8.05228 3.05228 8.5 2.5 8.5C1.94772 8.5 1.5 8.05228 1.5 7.5Z" fill="white"/>
<path d="M3.5 3.5C3.5 2.94772 3.94772 2.5 4.5 2.5C5.05228 2.5 5.5 2.94772 5.5 3.5C5.5 4.05228 5.05228 4.5 4.5 4.5C3.94772 4.5 3.5 4.05228 3.5 3.5Z" fill="white"/>
<path d="M9.5 4.5C9.5 3.94772 9.94772 3.5 10.5 3.5C11.0523 3.5 11.5 3.94772 11.5 4.5C11.5 5.05228 11.0523 5.5 10.5 5.5C9.94772 5.5 9.5 5.05228 9.5 4.5Z" fill="white"/>
<path d="M14.5 3.5C14.5 2.94772 14.9477 2.5 15.5 2.5C16.0523 2.5 16.5 2.94772 16.5 3.5C16.5 4.05228 16.0523 4.5 15.5 4.5C14.9477 4.5 14.5 4.05228 14.5 3.5Z" fill="white"/>
<path d="M18.5 6.5C18.5 5.94772 18.9477 5.5 19.5 5.5C20.0523 5.5 20.5 5.94772 20.5 6.5C20.5 7.05228 20.0523 7.5 19.5 7.5C18.9477 7.5 18.5 7.05228 18.5 6.5Z" fill="white"/>
<path d="M7.5 7.5C7.5 6.94772 7.94772 6.5 8.5 6.5C9.05228 6.5 9.5 6.94772 9.5 7.5C9.5 8.05228 9.05228 8.5 8.5 8.5C7.94772 8.5 7.5 8.05228 7.5 7.5Z" stroke="#1171BE"/>
<path d="M1.5 7.5C1.5 6.94772 1.94772 6.5 2.5 6.5C3.05228 6.5 3.5 6.94772 3.5 7.5C3.5 8.05228 3.05228 8.5 2.5 8.5C1.94772 8.5 1.5 8.05228 1.5 7.5Z" stroke="#1171BE"/>
<path d="M3.5 3.5C3.5 2.94772 3.94772 2.5 4.5 2.5C5.05228 2.5 5.5 2.94772 5.5 3.5C5.5 4.05228 5.05228 4.5 4.5 4.5C3.94772 4.5 3.5 4.05228 3.5 3.5Z" stroke="#1171BE"/>
<path d="M9.5 4.5C9.5 3.94772 9.94772 3.5 10.5 3.5C11.0523 3.5 11.5 3.94772 11.5 4.5C11.5 5.05228 11.0523 5.5 10.5 5.5C9.94772 5.5 9.5 5.05228 9.5 4.5Z" stroke="#1171BE"/>
<path d="M14.5 3.5C14.5 2.94772 14.9477 2.5 15.5 2.5C16.0523 2.5 16.5 2.94772 16.5 3.5C16.5 4.05228 16.0523 4.5 15.5 4.5C14.9477 4.5 14.5 4.05228 14.5 3.5Z" stroke="#1171BE"/>
<path d="M18.5 6.5C18.5 5.94772 18.9477 5.5 19.5 5.5C20.0523 5.5 20.5 5.94772 20.5 6.5C20.5 7.05228 20.0523 7.5 19.5 7.5C18.9477 7.5 18.5 7.05228 18.5 6.5Z" stroke="#1171BE"/>
<path d="M6.5 21.5C6.5 20.9477 6.94772 20.5 7.5 20.5C8.05228 20.5 8.5 20.9477 8.5 21.5C8.5 22.0523 8.05228 22.5 7.5 22.5C6.94772 22.5 6.5 22.0523 6.5 21.5Z" fill="white"/>
<path d="M16.5 18.5C16.5 17.9477 16.9477 17.5 17.5 17.5C18.0523 17.5 18.5 17.9477 18.5 18.5C18.5 19.0523 18.0523 19.5 17.5 19.5C16.9477 19.5 16.5 19.0523 16.5 18.5Z" fill="white"/>
<path d="M10.5 18.5C10.5 17.9477 10.9477 17.5 11.5 17.5C12.0523 17.5 12.5 17.9477 12.5 18.5C12.5 19.0523 12.0523 19.5 11.5 19.5C10.9477 19.5 10.5 19.0523 10.5 18.5Z" fill="white"/>
<path d="M4.5 15.5C4.5 14.9477 4.94772 14.5 5.5 14.5C6.05228 14.5 6.5 14.9477 6.5 15.5C6.5 16.0523 6.05228 16.5 5.5 16.5C4.94772 16.5 4.5 16.0523 4.5 15.5Z" fill="white"/>
<path d="M10.5 12.5C10.5 11.9477 10.9477 11.5 11.5 11.5C12.0523 11.5 12.5 11.9477 12.5 12.5C12.5 13.0523 12.0523 13.5 11.5 13.5C10.9477 13.5 10.5 13.0523 10.5 12.5Z" fill="white"/>
<path d="M6.5 21.5C6.5 20.9477 6.94772 20.5 7.5 20.5C8.05228 20.5 8.5 20.9477 8.5 21.5C8.5 22.0523 8.05228 22.5 7.5 22.5C6.94772 22.5 6.5 22.0523 6.5 21.5Z" stroke="#DD5400"/>
<path d="M16.5 18.5C16.5 17.9477 16.9477 17.5 17.5 17.5C18.0523 17.5 18.5 17.9477 18.5 18.5C18.5 19.0523 18.0523 19.5 17.5 19.5C16.9477 19.5 16.5 19.0523 16.5 18.5Z" stroke="#DD5400"/>
<path d="M10.5 18.5C10.5 17.9477 10.9477 17.5 11.5 17.5C12.0523 17.5 12.5 17.9477 12.5 18.5C12.5 19.0523 12.0523 19.5 11.5 19.5C10.9477 19.5 10.5 19.0523 10.5 18.5Z" stroke="#DD5400"/>
<path d="M4.5 15.5C4.5 14.9477 4.94772 14.5 5.5 14.5C6.05228 14.5 6.5 14.9477 6.5 15.5C6.5 16.0523 6.05228 16.5 5.5 16.5C4.94772 16.5 4.5 16.0523 4.5 15.5Z" stroke="#DD5400"/>
<path d="M10.5 12.5C10.5 11.9477 10.9477 11.5 11.5 11.5C12.0523 11.5 12.5 11.9477 12.5 12.5C12.5 13.0523 12.0523 13.5 11.5 13.5C10.9477 13.5 10.5 13.0523 10.5 12.5Z" stroke="#DD5400"/>
<path d="M4.5 22.5L4.00971 22.4019C3.98033 22.5488 4.01836 22.7012 4.11333 22.817C4.2083 22.9328 4.3502 23 4.5 23V22.5ZM5.09906 19.5047L5.58935 19.6028L5.09906 19.5047ZM16.1484 19.8631L15.6528 19.9291L15.6528 19.9291L16.1484 19.8631ZM16.5 22.5V23C16.6441 23 16.7812 22.9378 16.8762 22.8294C16.9711 22.7209 17.0147 22.5768 16.9956 22.4339L16.5 22.5ZM0.5 13L-4.76837e-07 13L4.76837e-07 14L0.5 14L0.5 13ZM11.5 8.5V8V8.5ZM1.47487 13.2753C1.65966 13.0701 1.64311 12.754 1.4379 12.5692C1.2327 12.3844 0.916547 12.401 0.731762 12.6062L1.47487 13.2753ZM2.60187 10.8182C2.38487 10.9889 2.3474 11.3033 2.51819 11.5203C2.68897 11.7373 3.00332 11.7748 3.22032 11.604L2.60187 10.8182ZM4.54163 10.7071C4.78048 10.5685 4.86176 10.2626 4.72318 10.0237C4.5846 9.78486 4.27863 9.70358 4.03978 9.84216L4.54163 10.7071ZM6.41104 8.77555C6.14916 8.86313 6.00786 9.14644 6.09544 9.40832C6.18302 9.67021 6.46633 9.8115 6.72821 9.72392L6.41104 8.77555ZM8.2819 9.30924C8.55248 9.25406 8.72708 8.98998 8.6719 8.71941C8.61671 8.44884 8.35263 8.27423 8.08206 8.32942L8.2819 9.30924ZM10.6413 8.01918C10.3655 8.03166 10.152 8.2654 10.1644 8.54126C10.1769 8.81712 10.4107 9.03064 10.6865 9.01816L10.6413 8.01918ZM12.3849 9.03034C12.6604 9.04946 12.8992 8.84164 12.9183 8.56616C12.9374 8.29068 12.7296 8.05186 12.4541 8.03274L12.3849 9.03034ZM15.2681 8.54934C15.0042 8.46825 14.7244 8.6165 14.6434 8.88047C14.5623 9.14444 14.7105 9.42416 14.9745 9.50525L15.2681 8.54934ZM16.6032 10.153C16.8507 10.2753 17.1506 10.1739 17.273 9.92631C17.3954 9.67876 17.2939 9.37888 17.0463 9.25651L16.6032 10.153ZM19.4457 10.8189C19.2331 10.6426 18.9179 10.6721 18.7416 10.8847C18.5654 11.0973 18.5949 11.4125 18.8075 11.5887L19.4457 10.8189ZM20.0797 12.809C20.265 13.0137 20.5812 13.0294 20.7859 12.8441C20.9907 12.6588 21.0064 12.3426 20.8211 12.1379L20.0797 12.809ZM22.5084 14.4378C22.3695 14.1992 22.0634 14.1184 21.8247 14.2573C21.5861 14.3963 21.5053 14.7024 21.6443 14.941L22.5084 14.4378ZM5.1101 21.999C5.16426 21.7282 4.98865 21.4648 4.71787 21.4106C4.44709 21.3565 4.18368 21.5321 4.12952 21.8029L5.1101 21.999ZM4.48896 20.0057C4.4348 20.2765 4.61041 20.5399 4.88119 20.594C5.15197 20.6482 5.41538 20.4726 5.46954 20.2018L4.48896 20.0057ZM5.7733 18.9265C5.86386 18.6656 5.72579 18.3807 5.46492 18.2902C5.20405 18.1996 4.91916 18.3377 4.8286 18.5986L5.7733 18.9265ZM6.11445 16.4574C5.9268 16.66 5.9389 16.9764 6.14148 17.164C6.34406 17.3517 6.66041 17.3396 6.84807 17.137L6.11445 16.4574ZM7.92916 16.2507C8.16461 16.1064 8.23852 15.7986 8.09423 15.5631C7.94995 15.3277 7.64212 15.2538 7.40667 15.3981L7.92916 16.2507ZM9.75841 14.5571C9.48484 14.5947 9.29359 14.847 9.33123 15.1206C9.36886 15.3941 9.62115 15.5854 9.89471 15.5477L9.75841 14.5571ZM11.326 15.5523C11.5993 15.5917 11.8528 15.402 11.8922 15.1287C11.9315 14.8554 11.7419 14.6019 11.4685 14.5625L11.326 15.5523ZM13.9151 15.4824C13.6835 15.3321 13.3739 15.3979 13.2235 15.6296C13.0731 15.8612 13.139 16.1708 13.3706 16.3212L13.9151 15.4824ZM14.4718 17.2853C14.6515 17.495 14.9671 17.5194 15.1768 17.3397C15.3865 17.1601 15.4109 16.8444 15.2313 16.6347L14.4718 17.2853ZM16.4665 18.9383C16.3913 18.6725 16.115 18.5181 15.8493 18.5932C15.5836 18.6684 15.4291 18.9447 15.5042 19.2104L16.4665 18.9383ZM15.7231 20.4565C15.7596 20.7302 16.0111 20.9226 16.2848 20.8861C16.5585 20.8496 16.7508 20.5981 16.7143 20.3244L15.7231 20.4565ZM16.9253 21.9065C16.8888 21.6328 16.6373 21.4405 16.3636 21.477C16.0899 21.5135 15.8976 21.765 15.9341 22.0387L16.9253 21.9065ZM15.3 22C15.0239 22 14.8 22.2239 14.8 22.5C14.8 22.7761 15.0239 23 15.3 23V22ZM11.7 23C11.9761 23 12.2 22.7761 12.2 22.5C12.2 22.2239 11.9761 22 11.7 22V23ZM9.3 22C9.02386 22 8.8 22.2239 8.8 22.5C8.8 22.7761 9.02386 23 9.3 23V22ZM5.7 23C5.97614 23 6.2 22.7761 6.2 22.5C6.2 22.2239 5.97614 22 5.7 22V23ZM0.5 14C0.683027 14 0.819936 13.9128 0.877925 13.8729C0.95029 13.8232 1.01741 13.7622 1.07433 13.7066C1.18811 13.5954 1.32674 13.4398 1.47487 13.2753L0.731762 12.6062C0.571201 12.7845 0.460193 12.9085 0.375491 12.9913C0.355842 13.0105 0.340381 13.0247 0.328512 13.0349C0.316294 13.0455 0.310959 13.0492 0.311565 13.0487C0.312126 13.0484 0.315433 13.0461 0.321293 13.0428C0.327072 13.0395 0.336885 13.0343 0.350407 13.0287C0.375202 13.0183 0.427762 13 0.5 13L0.5 14ZM3.22032 11.604C3.60297 11.3028 4.0411 10.9975 4.54163 10.7071L4.03978 9.84216C3.495 10.1582 3.01808 10.4906 2.60187 10.8182L3.22032 11.604ZM6.72821 9.72392C7.20772 9.56355 7.72473 9.42288 8.2819 9.30924L8.08206 8.32942C7.4851 8.45117 6.92892 8.60235 6.41104 8.77555L6.72821 9.72392ZM10.6865 9.01816C10.9507 9.00621 11.2218 9 11.5 9V8C11.2069 8 10.9207 8.00654 10.6413 8.01918L10.6865 9.01816ZM11.5 9C11.8027 9 12.0976 9.0104 12.3849 9.03034L12.4541 8.03274C12.1436 8.01119 11.8256 8 11.5 8V9ZM14.9745 9.50525C15.5577 9.68444 16.1 9.90423 16.6032 10.153L17.0463 9.25651C16.4969 8.98492 15.9047 8.74491 15.2681 8.54934L14.9745 9.50525ZM18.8075 11.5887C19.2888 11.9878 19.7118 12.4025 20.0797 12.809L20.8211 12.1379C20.4245 11.6998 19.9674 11.2514 19.4457 10.8189L18.8075 11.5887ZM21.6443 14.941C21.7826 15.1785 21.8833 15.3713 21.9486 15.503C21.9813 15.5688 22.0051 15.6192 22.0203 15.6522C22.0279 15.6688 22.0333 15.6809 22.0367 15.6885C22.0384 15.6922 22.0395 15.6948 22.0401 15.6963C22.0404 15.697 22.0406 15.6974 22.0407 15.6975C22.0407 15.6976 22.0407 15.6976 22.0406 15.6975C22.0406 15.6974 22.0406 15.6974 22.0406 15.6973C22.0405 15.6972 22.0405 15.6972 22.0405 15.6971C22.0405 15.6971 22.0405 15.6971 22.0405 15.697C22.0404 15.697 22.0404 15.697 22.5 15.5C22.9596 15.303 22.9596 15.303 22.9595 15.3029C22.9595 15.3029 22.9595 15.3029 22.9595 15.3028C22.9595 15.3028 22.9594 15.3027 22.9594 15.3026C22.9593 15.3025 22.9592 15.3023 22.9592 15.3021C22.959 15.3017 22.9588 15.3012 22.9585 15.3006C22.9581 15.2995 22.9575 15.2981 22.9567 15.2964C22.9552 15.293 22.9532 15.2884 22.9506 15.2826C22.9454 15.271 22.9381 15.2547 22.9286 15.2339C22.9095 15.1925 22.8815 15.1332 22.8443 15.0584C22.77 14.9087 22.6589 14.6962 22.5084 14.4378L21.6443 14.941ZM4.99029 22.5981L5.1101 21.999L4.12952 21.8029L4.00971 22.4019L4.99029 22.5981ZM5.46954 20.2018L5.58935 19.6028L4.60877 19.4066L4.48896 20.0057L5.46954 20.2018ZM5.58935 19.6028C5.6358 19.3705 5.69751 19.1448 5.7733 18.9265L4.8286 18.5986C4.73793 18.8597 4.6642 19.1295 4.60877 19.4066L5.58935 19.6028ZM6.84807 17.137C7.16612 16.7936 7.5301 16.4952 7.92916 16.2507L7.40667 15.3981C6.92965 15.6904 6.49464 16.047 6.11445 16.4574L6.84807 17.137ZM9.89471 15.5477C10.1236 15.5163 10.3571 15.5 10.5939 15.5V14.5C10.3113 14.5 10.0323 14.5194 9.75841 14.5571L9.89471 15.5477ZM10.5939 15.5C10.8423 15.5 11.0867 15.5178 11.326 15.5523L11.4685 14.5625C11.1823 14.5213 10.8902 14.5 10.5939 14.5V15.5ZM13.3706 16.3212C13.7818 16.5881 14.1529 16.913 14.4718 17.2853L15.2313 16.6347C14.8501 16.1898 14.4066 15.8015 13.9151 15.4824L13.3706 16.3212ZM15.5042 19.2104C15.57 19.443 15.62 19.6829 15.6528 19.9291L16.644 19.797C16.6049 19.5033 16.5452 19.2166 16.4665 18.9383L15.5042 19.2104ZM15.6528 19.9291L15.7231 20.4565L16.7143 20.3244L16.644 19.797L15.6528 19.9291ZM15.9341 22.0387L16.0044 22.5661L16.9956 22.4339L16.9253 21.9065L15.9341 22.0387ZM16.5 22H15.3V23H16.5V22ZM11.7 22H9.3V23H11.7V22ZM5.7 22H4.5V23H5.7V22Z" fill="var(--mw-icon-glyph-content-gray, #616162)"/>
<path d="M0.5 19.4999C1.5 16.6666 5.1 11.0999 11.5 11.4999C17.9 11.8999 20.8333 18.6666 21.5 22" stroke="var(--mw-icon-glyph-content-gray, #616162)" stroke-linecap="round" stroke-linejoin="round"/>
<rect x="0.5" y="0.5" width="22" height="22" rx="2" stroke="var(--mw-icon-border-default-gray, #616161)"/>
</svg>
