<svg width="24" height="24" viewBox="0 0 24 24" fill="none" xmlns="http://www.w3.org/2000/svg">
<rect x="0.5" y="0.5" width="22" height="22" rx="2" fill="var(--mw-icon-background-default-white, #FFFFFF)"/>
<path d="M1.5 1.5C1.5 0.947715 1.94772 0.5 2.5 0.5C3.05228 0.5 3.5 0.947715 3.5 1.5C3.5 2.05228 3.05228 2.5 2.5 2.5C1.94772 2.5 1.5 2.05228 1.5 1.5Z" fill="white"/>
<path d="M13.5 2.5C13.5 1.94772 13.9477 1.5 14.5 1.5C15.0523 1.5 15.5 1.94772 15.5 2.5C15.5 3.05228 15.0523 3.5 14.5 3.5C13.9477 3.5 13.5 3.05228 13.5 2.5Z" fill="white"/>
<path d="M18.5 3.5C18.5 2.94772 18.9477 2.5 19.5 2.5C20.0523 2.5 20.5 2.94772 20.5 3.5C20.5 4.05228 20.0523 4.5 19.5 4.5C18.9477 4.5 18.5 4.05228 18.5 3.5Z" fill="white"/>
<path d="M19.5 8.5C19.5 7.94772 19.9477 7.5 20.5 7.5C21.0523 7.5 21.5 7.94772 21.5 8.5C21.5 9.05228 21.0523 9.5 20.5 9.5C19.9477 9.5 19.5 9.05228 19.5 8.5Z" fill="white"/>
<path d="M2.5 18.5C2.5 17.9477 2.94772 17.5 3.5 17.5C4.05228 17.5 4.5 17.9477 4.5 18.5C4.5 19.0523 4.05228 19.5 3.5 19.5C2.94772 19.5 2.5 19.0523 2.5 18.5Z" fill="white"/>
<path d="M1.5 1.5C1.5 0.947715 1.94772 0.5 2.5 0.5C3.05228 0.5 3.5 0.947715 3.5 1.5C3.5 2.05228 3.05228 2.5 2.5 2.5C1.94772 2.5 1.5 2.05228 1.5 1.5Z" stroke="#1171BE"/>
<path d="M13.5 2.5C13.5 1.94772 13.9477 1.5 14.5 1.5C15.0523 1.5 15.5 1.94772 15.5 2.5C15.5 3.05228 15.0523 3.5 14.5 3.5C13.9477 3.5 13.5 3.05228 13.5 2.5Z" stroke="#1171BE"/>
<path d="M18.5 3.5C18.5 2.94772 18.9477 2.5 19.5 2.5C20.0523 2.5 20.5 2.94772 20.5 3.5C20.5 4.05228 20.0523 4.5 19.5 4.5C18.9477 4.5 18.5 4.05228 18.5 3.5Z" stroke="#1171BE"/>
<path d="M19.5 8.5C19.5 7.94772 19.9477 7.5 20.5 7.5C21.0523 7.5 21.5 7.94772 21.5 8.5C21.5 9.05228 21.0523 9.5 20.5 9.5C19.9477 9.5 19.5 9.05228 19.5 8.5Z" stroke="#1171BE"/>
<path d="M2.5 18.5C2.5 17.9477 2.94772 17.5 3.5 17.5C4.05228 17.5 4.5 17.9477 4.5 18.5C4.5 19.0523 4.05228 19.5 3.5 19.5C2.94772 19.5 2.5 19.0523 2.5 18.5Z" stroke="#1171BE"/>
<path d="M2.5 11.5C2.5 10.9477 2.94772 10.5 3.5 10.5C4.05228 10.5 4.5 10.9477 4.5 11.5C4.5 12.0523 4.05228 12.5 3.5 12.5C2.94772 12.5 2.5 12.0523 2.5 11.5Z" fill="white"/>
<path d="M8.5 5.5C8.5 4.94772 8.94772 4.5 9.5 4.5C10.0523 4.5 10.5 4.94772 10.5 5.5C10.5 6.05228 10.0523 6.5 9.5 6.5C8.94772 6.5 8.5 6.05228 8.5 5.5Z" fill="white"/>
<path d="M14.5 11.5C14.5 10.9477 14.9477 10.5 15.5 10.5C16.0523 10.5 16.5 10.9477 16.5 11.5C16.5 12.0523 16.0523 12.5 15.5 12.5C14.9477 12.5 14.5 12.0523 14.5 11.5Z" fill="white"/>
<path d="M10.5 17.5C10.5 16.9477 10.9477 16.5 11.5 16.5C12.0523 16.5 12.5 16.9477 12.5 17.5C12.5 18.0523 12.0523 18.5 11.5 18.5C10.9477 18.5 10.5 18.0523 10.5 17.5Z" fill="white"/>
<path d="M15.5 21.5C15.5 20.9477 15.9477 20.5 16.5 20.5C17.0523 20.5 17.5 20.9477 17.5 21.5C17.5 22.0523 17.0523 22.5 16.5 22.5C15.9477 22.5 15.5 22.0523 15.5 21.5Z" fill="white"/>
<path d="M20.5 16.5C20.5 15.9477 20.9477 15.5 21.5 15.5C22.0523 15.5 22.5 15.9477 22.5 16.5C22.5 17.0523 22.0523 17.5 21.5 17.5C20.9477 17.5 20.5 17.0523 20.5 16.5Z" fill="white"/>
<path d="M2.5 11.5C2.5 10.9477 2.94772 10.5 3.5 10.5C4.05228 10.5 4.5 10.9477 4.5 11.5C4.5 12.0523 4.05228 12.5 3.5 12.5C2.94772 12.5 2.5 12.0523 2.5 11.5Z" stroke="#DD5400"/>
<path d="M8.5 5.5C8.5 4.94772 8.94772 4.5 9.5 4.5C10.0523 4.5 10.5 4.94772 10.5 5.5C10.5 6.05228 10.0523 6.5 9.5 6.5C8.94772 6.5 8.5 6.05228 8.5 5.5Z" stroke="#DD5400"/>
<path d="M14.5 11.5C14.5 10.9477 14.9477 10.5 15.5 10.5C16.0523 10.5 16.5 10.9477 16.5 11.5C16.5 12.0523 16.0523 12.5 15.5 12.5C14.9477 12.5 14.5 12.0523 14.5 11.5Z" stroke="#DD5400"/>
<path d="M10.5 17.5C10.5 16.9477 10.9477 16.5 11.5 16.5C12.0523 16.5 12.5 16.9477 12.5 17.5C12.5 18.0523 12.0523 18.5 11.5 18.5C10.9477 18.5 10.5 18.0523 10.5 17.5Z" stroke="#DD5400"/>
<path d="M15.5 21.5C15.5 20.9477 15.9477 20.5 16.5 20.5C17.0523 20.5 17.5 20.9477 17.5 21.5C17.5 22.0523 17.0523 22.5 16.5 22.5C15.9477 22.5 15.5 22.0523 15.5 21.5Z" stroke="#DD5400"/>
<path d="M20.5 16.5C20.5 15.9477 20.9477 15.5 21.5 15.5C22.0523 15.5 22.5 15.9477 22.5 16.5C22.5 17.0523 22.0523 17.5 21.5 17.5C20.9477 17.5 20.5 17.0523 20.5 16.5Z" stroke="#DD5400"/>
<path d="M0.5 5.50006C0.5 5.50006 2.60568 8.47355 4.5 7.99997C6.5 7.49997 5.59091 4.64545 7.5 3.50005C10 2.00012 13 3.00004 13 6.49997C13 9.82517 8.04666 7.22011 7.5 10.5001C7 13.5001 9.25871 15.2371 11.5 14.5001C13.1993 13.9413 11.5 9.50006 14.5 9.50006C15.9081 9.50006 18 10.5001 17.5 12.5001C17.0264 14.3944 14 14.5001 14.5 16.5001C15 18.5001 17.5 19.0001 18.5 17.5001C19.5 16.0001 18.5 14.5 22.5 13M0.5 14.5001C0.5 14.5001 7.5 13.9997 8.5 16.5001C9.26551 18.4141 6.93662 18.1902 6.5 19.5C6.19126 20.4263 6.5 22.5 6.5 22.5" stroke="var(--mw-icon-glyph-content-gray, #616162)" stroke-linecap="round" stroke-linejoin="round"/>
<rect x="0.5" y="0.5" width="22" height="22" rx="2" stroke="var(--mw-icon-border-default-gray, #616161)"/>
</svg>
