<svg width="24" height="24" viewBox="0 0 24 24" fill="none" xmlns="http://www.w3.org/2000/svg">
<path d="M3.5 5.5C3.5 4.39543 4.39543 3.5 5.5 3.5H20.5C21.6046 3.5 22.5 4.39543 22.5 5.5V20.5C22.5 21.6046 21.6046 22.5 20.5 22.5H5.5C4.39543 22.5 3.5 21.6046 3.5 20.5V5.5Z" fill="var(--mw-icon-background-default-medium-gray, #D9D9D9)"/>
<path d="M3.5 5.5C3.5 4.39543 4.39543 3.5 5.5 3.5H20.5C21.6046 3.5 22.5 4.39543 22.5 5.5V20.5C22.5 21.6046 21.6046 22.5 20.5 22.5H5.5C4.39543 22.5 3.5 21.6046 3.5 20.5V5.5Z" fill="var(--mw-icon-background-default-medium-gray, #D9D9D9)"/>
<path d="M3.5 5.5C3.5 4.39543 4.39543 3.5 5.5 3.5H20.5C21.6046 3.5 22.5 4.39543 22.5 5.5V20.5C22.5 21.6046 21.6046 22.5 20.5 22.5H5.5C4.39543 22.5 3.5 21.6046 3.5 20.5V5.5Z" stroke="var(--mw-icon-border-default-gray, #616161)"/>
<rect x="0.5" y="0.5" width="19" height="19" rx="2" fill="var(--mw-icon-background-default-white, #FFFFFF)"/>
<path d="M1.5 2.5C1.5 1.94772 1.94772 1.5 2.5 1.5C3.05228 1.5 3.5 1.94772 3.5 2.5C3.5 3.05228 3.05228 3.5 2.5 3.5C1.94772 3.5 1.5 3.05228 1.5 2.5Z" fill="white"/>
<path d="M3.5 8.5C3.5 7.94772 3.94772 7.5 4.5 7.5C5.05228 7.5 5.5 7.94772 5.5 8.5C5.5 9.05228 5.05228 9.5 4.5 9.5C3.94772 9.5 3.5 9.05228 3.5 8.5Z" fill="white"/>
<path d="M5.5 4.5C5.5 3.94772 5.94772 3.5 6.5 3.5C7.05228 3.5 7.5 3.94772 7.5 4.5C7.5 5.05228 7.05228 5.5 6.5 5.5C5.94772 5.5 5.5 5.05228 5.5 4.5Z" fill="white"/>
<path d="M10.5 4.5C10.5 3.94772 10.9477 3.5 11.5 3.5C12.0523 3.5 12.5 3.94772 12.5 4.5C12.5 5.05228 12.0523 5.5 11.5 5.5C10.9477 5.5 10.5 5.05228 10.5 4.5Z" fill="white"/>
<path d="M14.5 2C14.5 1.44772 14.9477 1 15.5 1C16.0523 1 16.5 1.44772 16.5 2C16.5 2.55228 16.0523 3 15.5 3C14.9477 3 14.5 2.55228 14.5 2Z" fill="white"/>
<path d="M1.5 2.5C1.5 1.94772 1.94772 1.5 2.5 1.5C3.05228 1.5 3.5 1.94772 3.5 2.5C3.5 3.05228 3.05228 3.5 2.5 3.5C1.94772 3.5 1.5 3.05228 1.5 2.5Z" stroke="#DD5400"/>
<path d="M3.5 8.5C3.5 7.94772 3.94772 7.5 4.5 7.5C5.05228 7.5 5.5 7.94772 5.5 8.5C5.5 9.05228 5.05228 9.5 4.5 9.5C3.94772 9.5 3.5 9.05228 3.5 8.5Z" stroke="#DD5400"/>
<path d="M5.5 4.5C5.5 3.94772 5.94772 3.5 6.5 3.5C7.05228 3.5 7.5 3.94772 7.5 4.5C7.5 5.05228 7.05228 5.5 6.5 5.5C5.94772 5.5 5.5 5.05228 5.5 4.5Z" stroke="#DD5400"/>
<path d="M10.5 4.5C10.5 3.94772 10.9477 3.5 11.5 3.5C12.0523 3.5 12.5 3.94772 12.5 4.5C12.5 5.05228 12.0523 5.5 11.5 5.5C10.9477 5.5 10.5 5.05228 10.5 4.5Z" stroke="#DD5400"/>
<path d="M14.5 2C14.5 1.44772 14.9477 1 15.5 1C16.0523 1 16.5 1.44772 16.5 2C16.5 2.55228 16.0523 3 15.5 3C14.9477 3 14.5 2.55228 14.5 2Z" stroke="#DD5400"/>
<path d="M14.5 13.5C14.5 12.9477 14.9477 12.5 15.5 12.5C16.0523 12.5 16.5 12.9477 16.5 13.5C16.5 14.0523 16.0523 14.5 15.5 14.5C14.9477 14.5 14.5 14.0523 14.5 13.5Z" fill="white"/>
<path d="M17.5 10.5C17.5 9.94772 17.9477 9.5 18.5 9.5C19.0523 9.5 19.5 9.94772 19.5 10.5C19.5 11.0523 19.0523 11.5 18.5 11.5C17.9477 11.5 17.5 11.0523 17.5 10.5Z" fill="white"/>
<path d="M17.5 17.5C17.5 16.9477 17.9477 16.5 18.5 16.5C19.0523 16.5 19.5 16.9477 19.5 17.5C19.5 18.0523 19.0523 18.5 18.5 18.5C17.9477 18.5 17.5 18.0523 17.5 17.5Z" fill="white"/>
<path d="M12.5 17.5C12.5 16.9477 12.9477 16.5 13.5 16.5C14.0523 16.5 14.5 16.9477 14.5 17.5C14.5 18.0523 14.0523 18.5 13.5 18.5C12.9477 18.5 12.5 18.0523 12.5 17.5Z" fill="white"/>
<path d="M8.5 15.5C8.5 14.9477 8.94772 14.5 9.5 14.5C10.0523 14.5 10.5 14.9477 10.5 15.5C10.5 16.0523 10.0523 16.5 9.5 16.5C8.94772 16.5 8.5 16.0523 8.5 15.5Z" fill="white"/>
<path d="M4.5 18.5C4.5 17.9477 4.94772 17.5 5.5 17.5C6.05228 17.5 6.5 17.9477 6.5 18.5C6.5 19.0523 6.05228 19.5 5.5 19.5C4.94772 19.5 4.5 19.0523 4.5 18.5Z" fill="white"/>
<path d="M14.5 13.5C14.5 12.9477 14.9477 12.5 15.5 12.5C16.0523 12.5 16.5 12.9477 16.5 13.5C16.5 14.0523 16.0523 14.5 15.5 14.5C14.9477 14.5 14.5 14.0523 14.5 13.5Z" stroke="#1171BE"/>
<path d="M17.5 10.5C17.5 9.94772 17.9477 9.5 18.5 9.5C19.0523 9.5 19.5 9.94772 19.5 10.5C19.5 11.0523 19.0523 11.5 18.5 11.5C17.9477 11.5 17.5 11.0523 17.5 10.5Z" stroke="#1171BE"/>
<path d="M17.5 17.5C17.5 16.9477 17.9477 16.5 18.5 16.5C19.0523 16.5 19.5 16.9477 19.5 17.5C19.5 18.0523 19.0523 18.5 18.5 18.5C17.9477 18.5 17.5 18.0523 17.5 17.5Z" stroke="#1171BE"/>
<path d="M12.5 17.5C12.5 16.9477 12.9477 16.5 13.5 16.5C14.0523 16.5 14.5 16.9477 14.5 17.5C14.5 18.0523 14.0523 18.5 13.5 18.5C12.9477 18.5 12.5 18.0523 12.5 17.5Z" stroke="#1171BE"/>
<path d="M8.5 15.5C8.5 14.9477 8.94772 14.5 9.5 14.5C10.0523 14.5 10.5 14.9477 10.5 15.5C10.5 16.0523 10.0523 16.5 9.5 16.5C8.94772 16.5 8.5 16.0523 8.5 15.5Z" stroke="#1171BE"/>
<path d="M4.5 18.5C4.5 17.9477 4.94772 17.5 5.5 17.5C6.05228 17.5 6.5 17.9477 6.5 18.5C6.5 19.0523 6.05228 19.5 5.5 19.5C4.94772 19.5 4.5 19.0523 4.5 18.5Z" stroke="#1171BE"/>
<path d="M0.5 13.5L19.5 5.5" stroke="var(--mw-icon-glyph-content-gray, #616162)" stroke-linecap="round" stroke-linejoin="round"/>
<path d="M0.5 16.5L19.5 8.5M0.5 10.5L19.5 2.5" stroke="var(--mw-icon-glyph-content-gray, #616162)" stroke-linecap="round" stroke-linejoin="round" stroke-dasharray="2 3"/>
<rect x="0.5" y="0.5" width="19" height="19" rx="2" stroke="var(--mw-icon-border-default-gray, #616161)"/>
</svg>
