<svg width="24" height="24" viewBox="0 0 24 24" fill="none" xmlns="http://www.w3.org/2000/svg">
<rect x="0.5" y="0.5" width="22" height="22" rx="2" fill="var(--mw-icon-background-default-white, #FFFFFF)"/>
<path d="M3.5 3.5C3.5 2.94772 3.94772 2.5 4.5 2.5C5.05228 2.5 5.5 2.94772 5.5 3.5C5.5 4.05228 5.05228 4.5 4.5 4.5C3.94772 4.5 3.5 4.05228 3.5 3.5Z" fill="white"/>
<path d="M4.5 9.5C4.5 8.94772 4.94772 8.5 5.5 8.5C6.05228 8.5 6.5 8.94772 6.5 9.5C6.5 10.0523 6.05228 10.5 5.5 10.5C4.94772 10.5 4.5 10.0523 4.5 9.5Z" fill="white"/>
<path d="M5.5 14.5C5.5 13.9477 5.94772 13.5 6.5 13.5C7.05228 13.5 7.5 13.9477 7.5 14.5C7.5 15.0523 7.05228 15.5 6.5 15.5C5.94772 15.5 5.5 15.0523 5.5 14.5Z" fill="white"/>
<path d="M8.5 6.5C8.5 5.94772 8.94772 5.5 9.5 5.5C10.0523 5.5 10.5 5.94772 10.5 6.5C10.5 7.05228 10.0523 7.5 9.5 7.5C8.94772 7.5 8.5 7.05228 8.5 6.5Z" fill="white"/>
<path d="M15.5 3.5C15.5 2.94772 15.9477 2.5 16.5 2.5C17.0523 2.5 17.5 2.94772 17.5 3.5C17.5 4.05228 17.0523 4.5 16.5 4.5C15.9477 4.5 15.5 4.05228 15.5 3.5Z" fill="white"/>
<path d="M3.5 3.5C3.5 2.94772 3.94772 2.5 4.5 2.5C5.05228 2.5 5.5 2.94772 5.5 3.5C5.5 4.05228 5.05228 4.5 4.5 4.5C3.94772 4.5 3.5 4.05228 3.5 3.5Z" stroke="#1171BE"/>
<path d="M4.5 9.5C4.5 8.94772 4.94772 8.5 5.5 8.5C6.05228 8.5 6.5 8.94772 6.5 9.5C6.5 10.0523 6.05228 10.5 5.5 10.5C4.94772 10.5 4.5 10.0523 4.5 9.5Z" stroke="#1171BE"/>
<path d="M5.5 14.5C5.5 13.9477 5.94772 13.5 6.5 13.5C7.05228 13.5 7.5 13.9477 7.5 14.5C7.5 15.0523 7.05228 15.5 6.5 15.5C5.94772 15.5 5.5 15.0523 5.5 14.5Z" stroke="#1171BE"/>
<path d="M8.5 6.5C8.5 5.94772 8.94772 5.5 9.5 5.5C10.0523 5.5 10.5 5.94772 10.5 6.5C10.5 7.05228 10.0523 7.5 9.5 7.5C8.94772 7.5 8.5 7.05228 8.5 6.5Z" stroke="#1171BE"/>
<path d="M15.5 3.5C15.5 2.94772 15.9477 2.5 16.5 2.5C17.0523 2.5 17.5 2.94772 17.5 3.5C17.5 4.05228 17.0523 4.5 16.5 4.5C15.9477 4.5 15.5 4.05228 15.5 3.5Z" stroke="#1171BE"/>
<path d="M1.5 18.5C1.5 17.9477 1.94772 17.5 2.5 17.5C3.05228 17.5 3.5 17.9477 3.5 18.5C3.5 19.0523 3.05228 19.5 2.5 19.5C1.94772 19.5 1.5 19.0523 1.5 18.5Z" fill="white"/>
<path d="M8.5 21.5C8.5 20.9477 8.94772 20.5 9.5 20.5C10.0523 20.5 10.5 20.9477 10.5 21.5C10.5 22.0523 10.0523 22.5 9.5 22.5C8.94772 22.5 8.5 22.0523 8.5 21.5Z" fill="white"/>
<path d="M11.5 17.5C11.5 16.9477 11.9477 16.5 12.5 16.5C13.0523 16.5 13.5 16.9477 13.5 17.5C13.5 18.0523 13.0523 18.5 12.5 18.5C11.9477 18.5 11.5 18.0523 11.5 17.5Z" fill="white"/>
<path d="M16.5 8.5C16.5 7.94772 16.9477 7.5 17.5 7.5C18.0523 7.5 18.5 7.94772 18.5 8.5C18.5 9.05228 18.0523 9.5 17.5 9.5C16.9477 9.5 16.5 9.05228 16.5 8.5Z" fill="white"/>
<path d="M14.5 12.5C14.5 11.9477 14.9477 11.5 15.5 11.5C16.0523 11.5 16.5 11.9477 16.5 12.5C16.5 13.0523 16.0523 13.5 15.5 13.5C14.9477 13.5 14.5 13.0523 14.5 12.5Z" fill="white"/>
<path d="M17.5 16.5C17.5 15.9477 17.9477 15.5 18.5 15.5C19.0523 15.5 19.5 15.9477 19.5 16.5C19.5 17.0523 19.0523 17.5 18.5 17.5C17.9477 17.5 17.5 17.0523 17.5 16.5Z" fill="white"/>
<path d="M19.5 21.5C19.5 20.9477 19.9477 20.5 20.5 20.5C21.0523 20.5 21.5 20.9477 21.5 21.5C21.5 22.0523 21.0523 22.5 20.5 22.5C19.9477 22.5 19.5 22.0523 19.5 21.5Z" fill="white"/>
<path d="M1.5 18.5C1.5 17.9477 1.94772 17.5 2.5 17.5C3.05228 17.5 3.5 17.9477 3.5 18.5C3.5 19.0523 3.05228 19.5 2.5 19.5C1.94772 19.5 1.5 19.0523 1.5 18.5Z" stroke="#DD5400"/>
<path d="M8.5 21.5C8.5 20.9477 8.94772 20.5 9.5 20.5C10.0523 20.5 10.5 20.9477 10.5 21.5C10.5 22.0523 10.0523 22.5 9.5 22.5C8.94772 22.5 8.5 22.0523 8.5 21.5Z" stroke="#DD5400"/>
<path d="M11.5 17.5C11.5 16.9477 11.9477 16.5 12.5 16.5C13.0523 16.5 13.5 16.9477 13.5 17.5C13.5 18.0523 13.0523 18.5 12.5 18.5C11.9477 18.5 11.5 18.0523 11.5 17.5Z" stroke="#DD5400"/>
<path d="M16.5 8.5C16.5 7.94772 16.9477 7.5 17.5 7.5C18.0523 7.5 18.5 7.94772 18.5 8.5C18.5 9.05228 18.0523 9.5 17.5 9.5C16.9477 9.5 16.5 9.05228 16.5 8.5Z" stroke="#DD5400"/>
<path d="M14.5 12.5C14.5 11.9477 14.9477 11.5 15.5 11.5C16.0523 11.5 16.5 11.9477 16.5 12.5C16.5 13.0523 16.0523 13.5 15.5 13.5C14.9477 13.5 14.5 13.0523 14.5 12.5Z" stroke="#DD5400"/>
<path d="M17.5 16.5C17.5 15.9477 17.9477 15.5 18.5 15.5C19.0523 15.5 19.5 15.9477 19.5 16.5C19.5 17.0523 19.0523 17.5 18.5 17.5C17.9477 17.5 17.5 17.0523 17.5 16.5Z" stroke="#DD5400"/>
<path d="M19.5 21.5C19.5 20.9477 19.9477 20.5 20.5 20.5C21.0523 20.5 21.5 20.9477 21.5 21.5C21.5 22.0523 21.0523 22.5 20.5 22.5C19.9477 22.5 19.5 22.0523 19.5 21.5Z" stroke="#DD5400"/>
<path d="M0.5 11.5C0.5 11.5 2.5 17.5 6.5 17.5C10.5 17.5 12 5.5 16.5 5.5C21 5.5 22.5 9.5 22.5 9.5" stroke="var(--mw-icon-glyph-content-gray, #616162)" stroke-linecap="round" stroke-linejoin="round"/>
<rect x="0.5" y="0.5" width="22" height="22" rx="2" stroke="var(--mw-icon-border-default-gray, #616161)"/>
</svg>
