<svg width="24" height="24" viewBox="0 0 24 24" fill="none" xmlns="http://www.w3.org/2000/svg">
<rect x="0.5" y="0.5" width="22" height="22" rx="2" fill="var(--mw-icon-background-default-white, #FFFFFF)"/>
<path d="M0.5 15.5V8.5C0.5 8.5 3.5 15.5 6.5 15.5C8.5 15.5 10.7408 3.5 16.5 3.5C19.5 3.5 22.5 6.5 22.5 6.5V12.5C22.5 12.5 20.231 7.5 17.5 7.5C14 7.5 12.1656 19.5 7.5 19.5C3.5 19.5 0.5 15.5 0.5 15.5Z" fill="var(--mw-icon-background-default-selection, #B4DEFF)"/>
<path d="M0.5 11.5C0.5 11.5 2.5 17.5 6.5 17.5C10.5 17.5 12 5.5 16.5 5.5C21 5.5 22.5 9.5 22.5 9.5" stroke="var(--mw-icon-glyph-content-gray, #616162)" stroke-linecap="round" stroke-linejoin="round"/>
<path d="M3.5 2.5H5.5V4.5H3.5V2.5Z" fill="white"/>
<path d="M4.5 8.5H6.5V10.5H4.5V8.5Z" fill="white"/>
<path d="M8.5 4.5H10.5V6.5H8.5V4.5Z" fill="white"/>
<path d="M15.5 2.5H17.5V4.5H15.5V2.5Z" fill="white"/>
<path d="M8.5 20.5H10.5V22.5H8.5V20.5Z" fill="white"/>
<path d="M11.5 16.5H13.5V18.5H11.5V16.5Z" fill="white"/>
<path d="M14.5 11.5H16.5V13.5H14.5V11.5Z" fill="white"/>
<path d="M17.5 15.5H19.5V17.5H17.5V15.5Z" fill="white"/>
<path d="M19.5 20.5H21.5V22C21.5 22.2761 21.2761 22.5 21 22.5H19.5V20.5Z" fill="white"/>
<path d="M3.5 2.5H5.5V4.5H3.5V2.5Z" stroke="var(--mw-icon-glyph-disabled-gray, #888889)" stroke-linejoin="round"/>
<path d="M4.5 8.5H6.5V10.5H4.5V8.5Z" stroke="var(--mw-icon-glyph-disabled-gray, #888889)" stroke-linejoin="round"/>
<path d="M8.5 4.5H10.5V6.5H8.5V4.5Z" stroke="var(--mw-icon-glyph-disabled-gray, #888889)" stroke-linejoin="round"/>
<path d="M15.5 2.5H17.5V4.5H15.5V2.5Z" stroke="var(--mw-icon-glyph-disabled-gray, #888889)" stroke-linejoin="round"/>
<path d="M8.5 20.5H10.5V22.5H8.5V20.5Z" stroke="var(--mw-icon-glyph-disabled-gray, #888889)" stroke-linejoin="round"/>
<path d="M11.5 16.5H13.5V18.5H11.5V16.5Z" stroke="var(--mw-icon-glyph-disabled-gray, #888889)" stroke-linejoin="round"/>
<path d="M14.5 11.5H16.5V13.5H14.5V11.5Z" stroke="var(--mw-icon-glyph-disabled-gray, #888889)" stroke-linejoin="round"/>
<path d="M17.5 15.5H19.5V17.5H17.5V15.5Z" stroke="var(--mw-icon-glyph-disabled-gray, #888889)" stroke-linejoin="round"/>
<path d="M19.5 20.5H21.5V22C21.5 22.2761 21.2761 22.5 21 22.5H19.5V20.5Z" stroke="var(--mw-icon-glyph-disabled-gray, #888889)" stroke-linejoin="round"/>
<path d="M5.5 13.5H7.5V15.5H5.5V13.5Z" fill="var(--mw-icon-glyph-content-dark-gray, #333333)"/>
<path d="M1.5 17.5H3.5V19.5H1.5V17.5Z" fill="var(--mw-icon-glyph-content-dark-gray, #333333)"/>
<path d="M16.5 7.5H18.5V9.5H16.5V7.5Z" fill="var(--mw-icon-glyph-content-dark-gray, #333333)"/>
<path d="M5.5 13.5H7.5V15.5H5.5V13.5Z" stroke="var(--mw-icon-glyph-content-dark-gray, #333333)" stroke-linejoin="round"/>
<path d="M1.5 17.5H3.5V19.5H1.5V17.5Z" stroke="var(--mw-icon-glyph-content-dark-gray, #333333)" stroke-linejoin="round"/>
<path d="M16.5 7.5H18.5V9.5H16.5V7.5Z" stroke="var(--mw-icon-glyph-content-dark-gray, #333333)" stroke-linejoin="round"/>
<rect x="0.5" y="0.5" width="22" height="22" rx="2" stroke="var(--mw-icon-border-default-gray, #616161)"/>
</svg>
