<svg width="24" height="24" viewBox="0 0 24 24" fill="none" xmlns="http://www.w3.org/2000/svg">
<rect x="0.5" y="0.5" width="22" height="22" rx="2" fill="var(--mw-icon-background-default-white, #FFFFFF)"/>
<path d="M0.5 19.5V13.5L22.5 2.5V8.5L0.5 19.5Z" fill="var(--mw-icon-background-default-selection, #B4DEFF)"/>
<path d="M0.5 16.5L22.5 5.5" stroke="var(--mw-icon-glyph-content-gray, #616162)" stroke-linecap="round" stroke-linejoin="round"/>
<path d="M0.5 19.5L22.5 8.5M0.5 13.5L22.5 2.5" stroke="var(--mw-icon-glyph-content-gray, #616162)" stroke-linecap="round" stroke-linejoin="round" stroke-dasharray="1 2"/>
<path d="M2.5 1C2.5 0.723858 2.72386 0.5 3 0.5H4.5V2.5H2.5V1Z" fill="white"/>
<path d="M4.5 3.5H6.5V5.5H4.5V3.5Z" fill="white"/>
<path d="M8.5 4.5H10.5V6.5H8.5V4.5Z" fill="white"/>
<path d="M14.5 1.5H16.5V3.5H14.5V1.5Z" fill="white"/>
<path d="M20.5 13.5H22.5V15.5H20.5V13.5Z" fill="white"/>
<path d="M17.5 18.5H19.5V20.5H17.5V18.5Z" fill="white"/>
<path d="M12.5 18.5H14.5V20.5H12.5V18.5Z" fill="white"/>
<path d="M7.5 18.5H9.5V20.5H7.5V18.5Z" fill="white"/>
<path d="M3.5 20.5H5.5V22.5H3.5V20.5Z" fill="white"/>
<path d="M2.5 1C2.5 0.723858 2.72386 0.5 3 0.5H4.5V2.5H2.5V1Z" stroke="var(--mw-icon-glyph-disabled-gray, #888889)" stroke-linejoin="round"/>
<path d="M4.5 3.5H6.5V5.5H4.5V3.5Z" stroke="var(--mw-icon-glyph-disabled-gray, #888889)" stroke-linejoin="round"/>
<path d="M8.5 4.5H10.5V6.5H8.5V4.5Z" stroke="var(--mw-icon-glyph-disabled-gray, #888889)" stroke-linejoin="round"/>
<path d="M14.5 1.5H16.5V3.5H14.5V1.5Z" stroke="var(--mw-icon-glyph-disabled-gray, #888889)" stroke-linejoin="round"/>
<path d="M20.5 13.5H22.5V15.5H20.5V13.5Z" stroke="var(--mw-icon-glyph-disabled-gray, #888889)" stroke-linejoin="round"/>
<path d="M17.5 18.5H19.5V20.5H17.5V18.5Z" stroke="var(--mw-icon-glyph-disabled-gray, #888889)" stroke-linejoin="round"/>
<path d="M12.5 18.5H14.5V20.5H12.5V18.5Z" stroke="var(--mw-icon-glyph-disabled-gray, #888889)" stroke-linejoin="round"/>
<path d="M7.5 18.5H9.5V20.5H7.5V18.5Z" stroke="var(--mw-icon-glyph-disabled-gray, #888889)" stroke-linejoin="round"/>
<path d="M3.5 20.5H5.5V22.5H3.5V20.5Z" stroke="var(--mw-icon-glyph-disabled-gray, #888889)" stroke-linejoin="round"/>
<path d="M2.5 7.5H4.5V9.5H2.5V7.5Z" fill="var(--mw-icon-glyph-content-dark-gray, #333333)"/>
<path d="M13.5 14.5H15.5V16.5H13.5V14.5Z" fill="var(--mw-icon-glyph-content-dark-gray, #333333)"/>
<path d="M16.5 11.5H18.5V13.5H16.5V11.5Z" fill="var(--mw-icon-glyph-content-dark-gray, #333333)"/>
<path d="M2.5 7.5H4.5V9.5H2.5V7.5Z" stroke="var(--mw-icon-glyph-content-dark-gray, #333333)" stroke-linejoin="round"/>
<path d="M13.5 14.5H15.5V16.5H13.5V14.5Z" stroke="var(--mw-icon-glyph-content-dark-gray, #333333)" stroke-linejoin="round"/>
<path d="M16.5 11.5H18.5V13.5H16.5V11.5Z" stroke="var(--mw-icon-glyph-content-dark-gray, #333333)" stroke-linejoin="round"/>
<rect x="0.5" y="0.5" width="22" height="22" rx="2" stroke="var(--mw-icon-border-default-gray, #616161)"/>
</svg>
