<svg width="24" height="24" viewBox="0 0 24 24" fill="none" xmlns="http://www.w3.org/2000/svg">
<rect x="0.5" y="0.5" width="22" height="22" rx="2" fill="var(--mw-icon-background-default-white, #FFFFFF)"/>
<path d="M7.49987 22.5007C7.49995 21.0001 2.01678 19 2.49987 16.5C3.03416 13.735 7.24076 14.0189 8.49992 11.5C9.99992 8.49927 8.49992 5.99996 12.4999 5.5C16.4999 5.00004 19.5001 8.4997 22.4999 8.5M13.4999 22.5V15.5C13.4999 12.0007 17.4999 12.5007 19.4999 14.5C21.4999 16.4993 16.4999 18.5 16.4999 19.5C16.4999 20.5 18.5 21.5001 18.4998 22.5007" stroke="var(--mw-icon-background-default-selection, #B4DEFF)" stroke-width="4" stroke-linejoin="round"/>
<path d="M2.5 9.5H4.5V11.5H2.5V9.5Z" fill="white"/>
<path d="M0.5 3.5H2.5V5.5H0.5V3.5Z" fill="white"/>
<path d="M10.5 0.5H12.5V2.5H10.5V0.5Z" fill="white"/>
<path d="M18.5 2.5H20.5V4.5H18.5V2.5Z" fill="white"/>
<path d="M11.5 9.5H13.5V11.5H11.5V9.5Z" fill="white"/>
<path d="M2.5 9.5H4.5V11.5H2.5V9.5Z" stroke="var(--mw-icon-glyph-disabled-gray, #888889)" stroke-linejoin="round"/>
<path d="M0.5 3.5H2.5V5.5H0.5V3.5Z" stroke="var(--mw-icon-glyph-disabled-gray, #888889)" stroke-linejoin="round"/>
<path d="M10.5 0.5H12.5V2.5H10.5V0.5Z" stroke="var(--mw-icon-glyph-disabled-gray, #888889)" stroke-linejoin="round"/>
<path d="M18.5 2.5H20.5V4.5H18.5V2.5Z" stroke="var(--mw-icon-glyph-disabled-gray, #888889)" stroke-linejoin="round"/>
<path d="M11.5 9.5H13.5V11.5H11.5V9.5Z" stroke="var(--mw-icon-glyph-disabled-gray, #888889)" stroke-linejoin="round"/>
<path d="M5.5 6.5H7.5V8.5H5.5V6.5Z" fill="var(--mw-icon-glyph-content-dark-gray, #333333)"/>
<path d="M7.5 15.5H9.5V17.5H7.5V15.5Z" fill="var(--mw-icon-glyph-content-dark-gray, #333333)"/>
<path d="M15.5 14.5H17.5V16.5H15.5V14.5Z" fill="var(--mw-icon-glyph-content-dark-gray, #333333)"/>
<path d="M16.5 8.5H18.5V10.5H16.5V8.5Z" fill="var(--mw-icon-glyph-content-dark-gray, #333333)"/>
<path d="M19.5 18.5H21.5V20.5H19.5V18.5Z" fill="var(--mw-icon-glyph-content-dark-gray, #333333)"/>
<path d="M5.5 6.5H7.5V8.5H5.5V6.5Z" stroke="var(--mw-icon-glyph-content-dark-gray, #333333)" stroke-linejoin="round"/>
<path d="M7.5 15.5H9.5V17.5H7.5V15.5Z" stroke="var(--mw-icon-glyph-content-dark-gray, #333333)" stroke-linejoin="round"/>
<path d="M15.5 14.5H17.5V16.5H15.5V14.5Z" stroke="var(--mw-icon-glyph-content-dark-gray, #333333)" stroke-linejoin="round"/>
<path d="M16.5 8.5H18.5V10.5H16.5V8.5Z" stroke="var(--mw-icon-glyph-content-dark-gray, #333333)" stroke-linejoin="round"/>
<path d="M19.5 18.5H21.5V20.5H19.5V18.5Z" stroke="var(--mw-icon-glyph-content-dark-gray, #333333)" stroke-linejoin="round"/>
<path d="M7.49995 22.5007C8.00009 21.0007 2.01686 19 2.49995 16.5C3.03424 13.735 7.24084 14.0189 8.5 11.5C10 8.49927 8.5 5.99996 12.5 5.5C16.5 5.00004 19.5001 8.4997 22.5 8.5M13.5 22.5V15.5C13.5 12.0007 17.5 12.5007 19.5 14.5C21.5 16.4993 16.5 18.5 16.5 19.5C16.5 20.5 17.4999 21.5 18.4999 22.5007" stroke="var(--mw-icon-glyph-content-gray, #616162)" stroke-linecap="round" stroke-linejoin="round"/>
<rect x="0.5" y="0.5" width="22" height="22" rx="2" stroke="var(--mw-icon-border-default-gray, #616161)"/>
</svg>
