<svg width="24" height="24" viewBox="0 0 24 24" fill="none" xmlns="http://www.w3.org/2000/svg">
<path d="M16.5 7.49999C17.0523 7.49999 17.5 7.94771 17.5 8.49999L17.5 10.3455C17.5 10.4402 17.5535 10.5267 17.6382 10.5691L19.7764 11.6382C20.1088 11.8044 20.5 11.5627 20.5 11.191L20.5 8.5C20.5 6.29086 18.7091 4.49999 16.5 4.49999L8.49999 4.49999L8.49999 0.999999L1 6.49999L8.49999 11L8.49999 7.49999L16.5 7.49999Z" fill="var(--mw-icon-background-default-selection, #B4DEFF)" stroke="var(--mw-icon-border-default-blue, #1656A7)"/>
<path d="M7.5 16.5C6.94772 16.5 6.5 16.0523 6.5 15.5L6.5 13.6545C6.5 13.5598 6.4465 13.4733 6.3618 13.4309L4.22361 12.3618C3.89116 12.1956 3.5 12.4373 3.5 12.809L3.5 15.5C3.5 17.7091 5.29086 19.5 7.5 19.5L15.5 19.5L15.5 23L23 17.5L15.5 13L15.5 16.5L7.5 16.5Z" fill="var(--mw-icon-background-default-selection, #B4DEFF)" stroke="var(--mw-icon-border-default-blue, #1656A7)"/>

</svg>
