<svg width="24" height="24" viewBox="0 0 24 24" fill="none" xmlns="http://www.w3.org/2000/svg">
<path d="M0.5 18.5V4.5C0.5 2.29086 2.29086 0.5 4.5 0.5H18.5C20.7091 0.5 22.5 2.29086 22.5 4.5V18.5C22.5 20.7091 20.7091 22.5 18.5 22.5H4.5C2.29086 22.5 0.5 20.7091 0.5 18.5Z" fill="#00A9E0"/>
<path d="M22.5001 8.78288C16.7236 11.3782 14.3186 6.17861 11.1901 6.49997C8.28291 6.7986 3.23111 18.5298 2.04468 21.3805" stroke="#232B33" stroke-miterlimit="10"/>
<rect x="4.5" y="4.5" width="3" height="3" fill="var(--mw-icon-background-default-white, white)" stroke="#273D4F"/>
<rect x="9.5" y="9.5" width="3" height="3" fill="var(--mw-icon-background-default-white, white)" stroke="#273D4F"/>
<rect x="15.5" y="4.5" width="3" height="3" fill="var(--mw-icon-background-default-white, white)" stroke="#273D4F"/>
<rect x="17.5" y="12.5" width="3" height="3" fill="var(--mw-icon-background-default-white, white)" stroke="#273D4F"/>
<rect x="7.5" y="15.5" width="3" height="3" fill="var(--mw-icon-background-default-white, white)" stroke="#273D4F"/>
<path d="M0.5 18.5V4.5C0.5 2.29086 2.29086 0.5 4.5 0.5H18.5C20.7091 0.5 22.5 2.29086 22.5 4.5V18.5C22.5 20.7091 20.7091 22.5 18.5 22.5H4.5C2.29086 22.5 0.5 20.7091 0.5 18.5Z" stroke="#245474" stroke-linecap="round"/>

</svg>
