<svg width="24" height="24" viewBox="0 0 24 24" fill="none" xmlns="http://www.w3.org/2000/svg">
<path d="M0.5 2.5C0.5 1.39543 1.39543 0.5 2.5 0.5H16.5C17.6046 0.5 18.5 1.39543 18.5 2.5V21.5C18.5 22.6046 17.6046 23.5 16.5 23.5H2.5C1.39543 23.5 0.5 22.6046 0.5 21.5V2.5Z" fill="var(--mw-icon-background-default-white, #FFFFFF)" stroke="var(--mw-icon-border-default-gray, #616161)"/>
<path d="M9.5 9.5V11.5M9.5 11.5H5.5V13.5M9.5 11.5H13.5V13.5" stroke="var(--mw-icon-glyph-disabled-gray, #888889)" stroke-linecap="square" stroke-linejoin="round"/>
<path d="M2.5 15C2.5 14.7239 2.72386 14.5 3 14.5H8C8.27614 14.5 8.5 14.7239 8.5 15V17C8.5 17.2761 8.27614 17.5 8 17.5H3C2.72386 17.5 2.5 17.2761 2.5 17V15Z" fill="var(--mw-icon-background-medium-blue, #83CAFF)"/>
<path d="M10.5 15C10.5 14.7239 10.7239 14.5 11 14.5H16C16.2761 14.5 16.5 14.7239 16.5 15V17C16.5 17.2761 16.2761 17.5 16 17.5H11C10.7239 17.5 10.5 17.2761 10.5 17V15Z" fill="var(--mw-icon-background-medium-blue, #83CAFF)"/>
<path d="M2.5 15C2.5 14.7239 2.72386 14.5 3 14.5H8C8.27614 14.5 8.5 14.7239 8.5 15V17C8.5 17.2761 8.27614 17.5 8 17.5H3C2.72386 17.5 2.5 17.2761 2.5 17V15Z" stroke="var(--mw-icon-glyph-content-blue, #1656A8)"/>
<path d="M10.5 15C10.5 14.7239 10.7239 14.5 11 14.5H16C16.2761 14.5 16.5 14.7239 16.5 15V17C16.5 17.2761 16.2761 17.5 16 17.5H11C10.7239 17.5 10.5 17.2761 10.5 17V15Z" stroke="var(--mw-icon-glyph-content-blue, #1656A8)"/>
<path d="M6.5 6C6.5 5.72386 6.72386 5.5 7 5.5H12C12.2761 5.5 12.5 5.72386 12.5 6V8C12.5 8.27614 12.2761 8.5 12 8.5H7C6.72386 8.5 6.5 8.27614 6.5 8V6Z" fill="var(--mw-icon-background-medium-blue, #83CAFF)" stroke="var(--mw-icon-glyph-content-blue, #1656A8)"/>
</svg>
