<svg width="24" height="24" viewBox="0 0 24 24" fill="none" xmlns="http://www.w3.org/2000/svg">
<path d="M7.5 3.5L7.5 22.5C7.5 23.0523 7.94772 23.5 8.5 23.5L22.5 23.5C23.0523 23.5 23.5 23.0523 23.5 22.5L23.5 7.41421C23.5 7.149 23.3946 6.89464 23.2071 6.70711L19.2929 2.79289C19.1054 2.60536 18.851 2.5 18.5858 2.5L8.5 2.5C7.94771 2.5 7.5 2.94772 7.5 3.5Z" fill="var(--mw-icon-background-default-white, #FFFFFF)" stroke="var(--mw-icon-border-default-gray, #616161)"/>
<path d="M16.5 15.5H19.5C20.0523 15.5 20.5 15.0523 20.5 14.5V9.5C20.5 8.94772 20.9477 8.5 21.5 8.5H23" stroke="var(--mw-icon-glyph-content-light-blue, #278CDD)"/>
<path d="M19 23V21H23V22.5C23 22.7761 22.7761 23 22.5 23H19Z" fill="var(--mw-icon-background-default-medium-gray, #D9D9D9)"/>
<path d="M19 21V18H23V21H19Z" fill="var(--mw-icon-background-default-dark-gray, #A6A6A6)"/>
<path d="M18.5 23V19C18.5 18.1716 19.1716 17.5 20 17.5H23" stroke="var(--mw-icon-border-default-gray, #616161)" stroke-linecap="square" stroke-linejoin="round"/>
<path d="M13.5 23V9H8V22.5C8 22.7761 8.22386 23 8.5 23H13.5Z" fill="var(--mw-icon-background-default-medium-gray, #D9D9D9)"/>
<path d="M13 9V6H8V8.5C8 8.77614 8.22386 9 8.5 9H13Z" fill="var(--mw-icon-background-default-dark-gray, #A6A6A6)"/>
<path d="M13 23.5V24H14V23.5H13ZM13.5 12.5H13C13 12.7761 13.2239 13 13.5 13V12.5ZM13.5 18.5V18C13.2239 18 13 18.2239 13 18.5H13.5ZM14.6481 18.2716L14.8394 18.7336L14.6481 18.2716ZM15.6213 17.6213L15.9749 17.9749V17.9749L15.6213 17.6213ZM15.6213 13.3787L15.9749 13.0251L15.6213 13.3787ZM14.6481 12.7284L14.8394 12.2664L14.6481 12.7284ZM7.5 6H12V5H7.5V6ZM13 7V12.5H14V7H13ZM12 6C12.5523 6 13 6.44772 13 7H14C14 5.89543 13.1046 5 12 5V6ZM13.5 19C13.9596 19 14.4148 18.9095 14.8394 18.7336L14.4567 17.8097C14.1534 17.9353 13.8283 18 13.5 18V19ZM14.8394 18.7336C15.264 18.5577 15.6499 18.2999 15.9749 17.9749L15.2678 17.2678C15.0356 17.4999 14.76 17.6841 14.4567 17.8097L14.8394 18.7336ZM15.9749 17.9749C16.2999 17.6499 16.5577 17.264 16.7336 16.8394L15.8097 16.4567C15.6841 16.76 15.4999 17.0356 15.2678 17.2678L15.9749 17.9749ZM16.7336 16.8394C16.9095 16.4148 17 15.9596 17 15.5H16C16 15.8283 15.9353 16.1534 15.8097 16.4567L16.7336 16.8394ZM17 15.5C17 15.0404 16.9095 14.5852 16.7336 14.1606L15.8097 14.5433C15.9353 14.8466 16 15.1717 16 15.5H17ZM16.7336 14.1606C16.5577 13.736 16.2999 13.3501 15.9749 13.0251L15.2678 13.7322C15.4999 13.9644 15.6841 14.24 15.8097 14.5433L16.7336 14.1606ZM15.9749 13.0251C15.6499 12.7001 15.264 12.4423 14.8394 12.2664L14.4567 13.1903C14.76 13.3159 15.0356 13.5001 15.2678 13.7322L15.9749 13.0251ZM14.8394 12.2664C14.4148 12.0905 13.9596 12 13.5 12V13C13.8283 13 14.1534 13.0647 14.4567 13.1903L14.8394 12.2664ZM13 18.5V23.5H14V18.5H13Z" fill="var(--mw-icon-border-default-gray, #616161)"/>
<circle cx="13.5" cy="15.5" r="2.5" fill="white"/>
<path d="M13 14L15.5 15.5L13 17V14Z" fill="var(--mw-icon-glyph-content-gray, #616162)"/>
<path d="M0.5 1.5C0.5 0.947715 0.947715 0.5 1.5 0.5H9.5C10.0523 0.5 10.5 0.947715 10.5 1.5V9.5C10.5 10.0523 10.0523 10.5 9.5 10.5H1.5C0.947715 10.5 0.5 10.0523 0.5 9.5V1.5Z" fill="white" stroke="var(--mw-icon-border-default-gray, #616161)"/>
<path d="M5 5.25C5 5.11193 5.11193 5 5.25 5H8.75C8.88807 5 9 5.11193 9 5.25V8.75C9 8.88807 8.88807 9 8.75 9H5.25C5.11193 9 5 8.88807 5 8.75V5.25Z" fill="#D78825"/>
<path d="M2 7V2L6.5 4.5L2 7Z" fill="#0076A8"/>
</svg>
