<svg width="24" height="24" viewBox="0 0 24 24" fill="none" xmlns="http://www.w3.org/2000/svg">
<path d="M0.5 20.5V3.5C0.5 2.94772 0.947715 2.5 1.5 2.5H7.5V4.5C7.5 5.05228 7.94772 5.5 8.5 5.5H22.5C23.0523 5.5 23.5 5.94772 23.5 6.5V20.5C23.5 21.0523 23.0523 21.5 22.5 21.5H1.5C0.947715 21.5 0.5 21.0523 0.5 20.5Z" fill="var(--mw-icon-background-default-light-gray, #F5F5F5)" stroke="var(--mw-icon-border-default-gray, #616161)"/>
<path d="M17.5 1V4M16 2.5H19" stroke="var(--mw-icon-object-primary, #616160)"/>
<path d="M7.5 5.5V2.5H14C14.2761 2.5 14.5 2.72386 14.5 3V5.5H7.5Z" fill="var(--mw-icon-background-default-medium-gray, #D9D9D9)"/>
<path d="M7.5 2.5V2H7V2.5H7.5ZM7.5 5.5H7C7 5.77614 7.22386 6 7.5 6V5.5ZM14.5 5.5V6H15V5.5H14.5ZM7 2.5V5.5H8V2.5H7ZM7.5 6H14.5V5H7.5V6ZM15 5.5V3H14V5.5H15ZM14 2H7.5V3H14V2ZM15 3C15 2.44772 14.5523 2 14 2V3V3H15Z" fill="var(--mw-icon-border-default-gray, #616161)"/>
</svg>
