<svg width="24" height="24" viewBox="0 0 24 24" fill="none" xmlns="http://www.w3.org/2000/svg">
<path d="M4.5 4.5H22.5V20.5C22.5 21.6046 21.6046 22.5 20.5 22.5H4.5V4.5Z" fill="var(--mw-icon-background-default-white, #FFFFFF)" stroke="var(--mw-icon-border-default-gray, #616161)"/>
<path d="M10.5 5.5V21.5M16.5 5.5V21.5M5.5 10.5H21.5M5.5 16.5H21.5" stroke="var(--mw-icon-border-default-gray, #616161)" stroke-linecap="square" stroke-linejoin="round"/>
<path d="M0.5 2.5C0.5 1.39543 1.39543 0.5 2.5 0.5H20.5C21.6046 0.5 22.5 1.39543 22.5 2.5V4.5H0.5V2.5Z" fill="var(--mw-icon-background-default-medium-gray, #D9D9D9)"/>
<path d="M2.5 22.5C1.39543 22.5 0.5 21.6046 0.5 20.5L0.5 2.5C0.5 1.39543 1.39543 0.5 2.5 0.5L4.5 0.5L4.5 22.5H2.5Z" fill="var(--mw-icon-background-default-medium-gray, #D9D9D9)"/>
<path d="M0.5 2.5C0.5 1.39543 1.39543 0.5 2.5 0.5M0.5 2.5V4.5H22.5V2.5C22.5 1.39543 21.6046 0.5 20.5 0.5H2.5M0.5 2.5L0.5 20.5C0.5 21.6046 1.39543 22.5 2.5 22.5H4.5L4.5 0.5L2.5 0.5" stroke="var(--mw-icon-border-default-gray, #616161)"/>
<path d="M3.5 4.5H1.5M3.5 10.5H1.5M3.5 16.5H1.5M10.5 1.5V3.5M16.5 1.5V3.5" stroke="var(--mw-icon-border-default-gray, #616161)" stroke-linecap="square" stroke-linejoin="round"/>
</svg>
