<svg width="24" height="24" viewBox="0 0 24 24" fill="none" xmlns="http://www.w3.org/2000/svg">
<path d="M22.5 12.5V14.5H17.5H12.5H9.5V12.5H12.5H17.5H22.5Z" fill="var(--mw-icon-background-default-medium-gray, #D9D9D9)"/>
<path d="M12.5 12.5H9.5V14.5H12.5M12.5 12.5V14.5M12.5 12.5H17.5M12.5 14.5H17.5M17.5 12.5H22.5V14.5H17.5M17.5 12.5V14.5" stroke="var(--mw-icon-border-default-gray, #616161)" stroke-linejoin="round"/>
<path d="M22.5 18.5V14.5H17.5M22.5 18.5H17.5M22.5 18.5V22.5H17.5M9.5 18.5V14.5H12.5M9.5 18.5H12.5M9.5 18.5V22.5H12.5M12.5 14.5V18.5M12.5 14.5H17.5M12.5 18.5H17.5M12.5 18.5V22.5M17.5 14.5V18.5M17.5 18.5V22.5M12.5 22.5H17.5" stroke="var(--mw-icon-border-default-gray, #616161)" stroke-linejoin="round"/>
<rect x="10" y="15" width="2" height="3" fill="var(--mw-icon-background-default-medium-gray, #D9D9D9)"/>
<rect x="10" y="19" width="2" height="3" fill="var(--mw-icon-background-default-medium-gray, #D9D9D9)"/>
<rect x="13" y="15" width="4" height="3" fill="var(--mw-icon-background-default-white, #FFFFFF)"/>
<rect x="13" y="19" width="4" height="3" fill="white"/>
<rect x="18" y="15" width="4" height="3" fill="white"/>
<rect x="18" y="19" width="4" height="3" fill="white"/>
<path d="M13.5 0.5V3L8.5 2.5H3.5H0.5V0.5H3.5H8.5H13.5Z" fill="var(--mw-icon-background-default-medium-gray, #D9D9D9)"/>
<path d="M3.5 0.5H0.5V2.5H3.5M3.5 0.5V2.5M3.5 0.5H8.5M3.5 2.5H8.5M8.5 0.5H13.5V3L8.5 2.5M8.5 0.5V2.5" stroke="var(--mw-icon-border-default-gray, #616161)" stroke-linejoin="round"/>
<path d="M13.5 6.5V2.5H8.5M13.5 6.5H8.5M13.5 6.5V10.5H8.5M0.5 6.5V2.5H3.5M0.5 6.5H3.5M0.5 6.5V10.5H3.5M3.5 2.5V6.5M3.5 2.5H8.5M3.5 6.5H8.5M3.5 6.5V10.5M8.5 2.5V6.5M8.5 6.5V10.5M3.5 10.5H8.5" stroke="var(--mw-icon-border-default-gray, #616161)" stroke-linejoin="round"/>
<rect x="1" y="3" width="2" height="3" fill="var(--mw-icon-background-default-medium-gray, #D9D9D9)"/>
<rect x="1" y="7" width="2" height="3" fill="var(--mw-icon-background-default-medium-gray, #D9D9D9)"/>
<rect x="4" y="3" width="4" height="3" fill="white"/>
<rect x="4" y="7" width="4" height="3" fill="white"/>
<rect x="9" y="3" width="4" height="3" fill="white"/>
<rect x="9" y="7" width="4" height="3" fill="white"/>
<path d="M16 7.5L13 7.5L17.5 13L22 7.5L19 7.5L19 6.5C19 4.29086 17.2091 2.5 15 2.5L10.5 2.5C12.7091 2.5 16 3.79086 16 6L16 7.5Z" fill="var(--mw-icon-background-default-action, #CBFFBE)" stroke="var(--mw-icon-glyph-content-green, #008014)" stroke-linecap="square"/>
</svg>
