<svg width="24" height="24" viewBox="0 0 24 24" fill="none" xmlns="http://www.w3.org/2000/svg">
<rect x="0.5" y="1.5" width="20" height="20" rx="2" fill="var(--mw-icon-background-light-yellow, #FFF5BC)" stroke="var(--mw-icon-border-default-blue, #1656A7)"/>
<path d="M24 21C24 21.5523 23.5523 22 23 22C22.4477 22 22 21.5523 22 21C22 20.4477 22.4477 20 23 20C23.5523 20 24 20.4477 24 21Z" fill="var(--mw-icon-object-primary, #616160)"/>
<path d="M24 17C24 17.5523 23.5523 18 23 18C22.4477 18 22 17.5523 22 17C22 16.4477 22.4477 16 23 16C23.5523 16 24 16.4477 24 17Z" fill="var(--mw-icon-object-primary, #616160)"/>
<path d="M24 13C24 13.5523 23.5523 14 23 14C22.4477 14 22 13.5523 22 13C22 12.4477 22.4477 12 23 12C23.5523 12 24 12.4477 24 13Z" fill="var(--mw-icon-object-primary, #616160)"/>
<path d="M3.5 12.5H5.5V14.5H3.5V12.5Z" fill="var(--mw-icon-background-default-selection, #B4DEFF)"/>
<path d="M7.5 12.5H9.5V14.5H7.5V12.5Z" fill="var(--mw-icon-background-default-selection, #B4DEFF)"/>
<path d="M11.5 12.5H13.5V14.5H11.5V12.5Z" fill="var(--mw-icon-background-default-selection, #B4DEFF)"/>
<path d="M15.5 12.5H17.5V14.5H15.5V12.5Z" fill="var(--mw-icon-background-default-selection, #B4DEFF)"/>
<path d="M3.5 12.5H5.5V14.5H3.5V12.5Z" stroke="var(--mw-icon-glyph-content-dark-blue, #104280)" stroke-linejoin="round"/>
<path d="M7.5 12.5H9.5V14.5H7.5V12.5Z" stroke="var(--mw-icon-glyph-content-dark-blue, #104280)" stroke-linejoin="round"/>
<path d="M11.5 12.5H13.5V14.5H11.5V12.5Z" stroke="var(--mw-icon-glyph-content-dark-blue, #104280)" stroke-linejoin="round"/>
<path d="M15.5 12.5H17.5V14.5H15.5V12.5Z" stroke="var(--mw-icon-glyph-content-dark-blue, #104280)" stroke-linejoin="round"/>
<path d="M3.5 16.5H5.5V18.5H3.5V16.5Z" fill="var(--mw-icon-background-default-medium-gray, #D9D9D9)"/>
<path d="M7.5 8.5H9.5V10.5H7.5V8.5Z" fill="var(--mw-icon-background-default-medium-gray, #D9D9D9)"/>
<path d="M7.5 16.5H9.5V18.5H7.5V16.5Z" fill="var(--mw-icon-background-default-medium-gray, #D9D9D9)"/>
<path d="M11.5 8.5H13.5V10.5H11.5V8.5Z" fill="var(--mw-icon-background-default-medium-gray, #D9D9D9)"/>
<path d="M11.5 16.5H13.5V18.5H11.5V16.5Z" fill="var(--mw-icon-background-default-medium-gray, #D9D9D9)"/>
<path d="M15.5 8.5H17.5V10.5H15.5V8.5Z" fill="var(--mw-icon-background-default-medium-gray, #D9D9D9)"/>
<path d="M3.5 16.5H5.5V18.5H3.5V16.5Z" stroke="var(--mw-icon-glyph-content-gray, #616162)" stroke-linejoin="round"/>
<path d="M7.5 8.5H9.5V10.5H7.5V8.5Z" stroke="var(--mw-icon-glyph-content-gray, #616162)" stroke-linejoin="round"/>
<path d="M7.5 16.5H9.5V18.5H7.5V16.5Z" stroke="var(--mw-icon-glyph-content-gray, #616162)" stroke-linejoin="round"/>
<path d="M11.5 8.5H13.5V10.5H11.5V8.5Z" stroke="var(--mw-icon-glyph-content-gray, #616162)" stroke-linejoin="round"/>
<path d="M11.5 16.5H13.5V18.5H11.5V16.5Z" stroke="var(--mw-icon-glyph-content-gray, #616162)" stroke-linejoin="round"/>
<path d="M15.5 8.5H17.5V10.5H15.5V8.5Z" stroke="var(--mw-icon-glyph-content-gray, #616162)" stroke-linejoin="round"/>
<path d="M0.500305 3.5C0.500305 2.39543 1.39574 1.5 2.50031 1.5H18.8336C19.7541 1.5 20.5003 2.24619 20.5003 3.16667V3.16667V5.5H0.500305V3.5Z" fill="var(--mw-icon-background-default-selection, #B4DEFF)" stroke="var(--mw-icon-border-default-blue, #1656A7)"/>
</svg>
