<svg width="24" height="24" viewBox="0 0 24 24" fill="none" xmlns="http://www.w3.org/2000/svg">
<rect x="0.5" y="1.5" width="20" height="20" rx="2" fill="var(--mw-icon-background-light-yellow, #FFF5BC)" stroke="var(--mw-icon-border-default-blue, #1656A7)"/>
<path d="M24 21C24 21.5523 23.5523 22 23 22C22.4477 22 22 21.5523 22 21C22 20.4477 22.4477 20 23 20C23.5523 20 24 20.4477 24 21Z" fill="var(--mw-icon-object-primary, #616160)"/>
<path d="M24 17C24 17.5523 23.5523 18 23 18C22.4477 18 22 17.5523 22 17C22 16.4477 22.4477 16 23 16C23.5523 16 24 16.4477 24 17Z" fill="var(--mw-icon-object-primary, #616160)"/>
<path d="M24 13C24 13.5523 23.5523 14 23 14C22.4477 14 22 13.5523 22 13C22 12.4477 22.4477 12 23 12C23.5523 12 24 12.4477 24 13Z" fill="var(--mw-icon-object-primary, #616160)"/>
<path d="M17.5 15V8L10.5 11.5V18.5L17.5 15Z" fill="var(--mw-icon-background-medium-blue, #83CAFF)"/>
<path d="M3.5 15V8L10.5 11.5V18.5L3.5 15Z" fill="var(--mw-icon-background-default-selection, #B4DEFF)"/>
<path d="M3.5 8L10.5 4.5L17.5 8L10.5 11.5L3.5 8Z" fill="var(--mw-icon-background-lightest-blue, #E2F0FF)"/>
<path d="M17.5 8V15L10.5 18.5M17.5 8L10.5 11.5M17.5 8L10.5 4.5L3.5 8M10.5 11.5V18.5M10.5 11.5L3.5 8M10.5 18.5L3.5 15V8" stroke="var(--mw-icon-glyph-content-blue, #1656A8)" stroke-linecap="round" stroke-linejoin="round"/>
</svg>
