<svg width="24" height="24" viewBox="0 0 24 24" fill="none" xmlns="http://www.w3.org/2000/svg">
<rect x="0.5" y="1.5" width="20" height="20" rx="2" fill="var(--mw-icon-background-light-yellow, #FFF5BC)" stroke="var(--mw-icon-border-default-blue, #1656A7)"/>
<path d="M24 21C24 21.5523 23.5523 22 23 22C22.4477 22 22 21.5523 22 21C22 20.4477 22.4477 20 23 20C23.5523 20 24 20.4477 24 21Z" fill="var(--mw-icon-object-primary, #616160)"/>
<path d="M24 17C24 17.5523 23.5523 18 23 18C22.4477 18 22 17.5523 22 17C22 16.4477 22.4477 16 23 16C23.5523 16 24 16.4477 24 17Z" fill="var(--mw-icon-object-primary, #616160)"/>
<path d="M24 13C24 13.5523 23.5523 14 23 14C22.4477 14 22 13.5523 22 13C22 12.4477 22.4477 12 23 12C23.5523 12 24 12.4477 24 13Z" fill="var(--mw-icon-object-primary, #616160)"/>
<path d="M6.63792 15.2031C7.02989 15.2031 7.34836 15.09 7.59334 14.8638C7.83831 14.6375 7.9657 14.3368 7.9755 13.9614H9.96717C9.96227 14.527 9.81529 15.0463 9.52621 15.5193C9.23714 15.9871 8.84027 16.3522 8.33562 16.6144C7.83586 16.8715 7.28221 17 6.67467 17C5.53797 17 4.64135 16.6221 3.98481 15.8663C3.32827 15.1054 3 14.0566 3 12.7198V12.5733C3 11.2879 3.32582 10.2622 3.97746 9.49614C4.6291 8.73008 5.52327 8.34704 6.65997 8.34704C7.65458 8.34704 8.45076 8.64524 9.04851 9.24165C9.65115 9.8329 9.95737 10.6221 9.96717 11.6093H7.9755C7.9657 11.1774 7.83831 10.8278 7.59334 10.5604C7.34836 10.2879 7.02499 10.1517 6.62322 10.1517C6.12837 10.1517 5.75355 10.3419 5.49878 10.7224C5.2489 11.0977 5.12396 11.7095 5.12396 12.5578V12.7892C5.12396 13.6478 5.2489 14.2648 5.49878 14.6401C5.74865 15.0154 6.12837 15.2031 6.63792 15.2031Z" fill="var(--mw-icon-glyph-content-blue, #1656A8)"/>
<path d="M13.2523 9.41131C13.8158 8.7018 14.5238 8.34704 15.3763 8.34704C17.1009 8.34704 17.9755 9.39846 18 11.5013V16.8458H15.876V11.563C15.876 11.0848 15.7781 10.7326 15.5821 10.5064C15.3861 10.2751 15.0603 10.1594 14.6046 10.1594C13.9824 10.1594 13.5316 10.4113 13.2523 10.9152V16.8458H11.1284V5H13.2523V9.41131Z" fill="var(--mw-icon-glyph-content-blue, #1656A8)"/>
</svg>
