<svg width="24" height="24" viewBox="0 0 24 24" fill="none" xmlns="http://www.w3.org/2000/svg">
<rect x="0.5" y="1.5" width="20" height="20" rx="2" fill="var(--mw-icon-background-light-yellow, #FFF5BC)" stroke="var(--mw-icon-border-default-blue, #1656A7)"/>
<path d="M24 21C24 21.5523 23.5523 22 23 22C22.4477 22 22 21.5523 22 21C22 20.4477 22.4477 20 23 20C23.5523 20 24 20.4477 24 21Z" fill="var(--mw-icon-object-primary, #616160)"/>
<path d="M24 17C24 17.5523 23.5523 18 23 18C22.4477 18 22 17.5523 22 17C22 16.4477 22.4477 16 23 16C23.5523 16 24 16.4477 24 17Z" fill="var(--mw-icon-object-primary, #616160)"/>
<path d="M24 13C24 13.5523 23.5523 14 23 14C22.4477 14 22 13.5523 22 13C22 12.4477 22.4477 12 23 12C23.5523 12 24 12.4477 24 13Z" fill="var(--mw-icon-object-primary, #616160)"/>
<path fill-rule="evenodd" clip-rule="evenodd" d="M5.12951 8.88102C5.82496 8.29098 6.70691 8 7.75086 8C8.83885 8 9.72958 8.27146 10.3828 8.84171C11.036 9.41185 11.3448 10.1921 11.3448 11.1471C11.3448 11.6456 11.1703 12.123 10.8341 12.5755C10.6104 12.8812 10.3308 13.136 9.99734 13.3389C10.3883 13.5296 10.7119 13.7836 10.9629 14.1019C11.3325 14.564 11.5092 15.1197 11.5092 15.7549C11.5092 16.7255 11.1685 17.5241 10.4611 18.1196C9.75798 18.7116 8.84742 19 7.75833 19C6.67228 19 5.76111 18.7226 5.05281 18.1516C4.34613 17.5773 4 16.8204 4 15.909V15.6471H6.00119V15.909C6.00119 16.3902 6.16631 16.7486 6.47283 17.0128C6.77869 17.2765 7.19575 17.4188 7.75833 17.4188C8.36651 17.4188 8.78583 17.2715 9.06641 17.0123C9.35088 16.7495 9.51547 16.3533 9.51547 15.7829C9.51547 15.2399 9.33919 14.8617 9.02729 14.607C8.71231 14.3497 8.23691 14.1981 7.55423 14.1891H6.21217V12.6078H7.55394C8.14773 12.599 8.57824 12.454 8.88261 12.1992C9.18642 11.9449 9.35105 11.5951 9.35105 11.119C9.35105 10.5561 9.20084 10.1828 8.95431 9.95091C8.71269 9.72362 8.33131 9.58824 7.75086 9.58824C7.22272 9.58824 6.82918 9.72796 6.53696 9.99036C6.24813 10.2496 6.09087 10.6024 6.09087 11.077V11.3389H4.09716V11.077C4.09716 10.2047 4.43957 9.46596 5.12951 8.88102ZM16.2508 8.09104H16.8333V18.8599H14.8321V10.351L12.0445 11.3104V9.57089L16.2508 8.09104Z" fill="var(--mw-icon-glyph-content-blue, #1656A8)"/>
<path d="M0.500305 3.5C0.500305 2.39543 1.39574 1.5 2.50031 1.5H18.8336C19.7541 1.5 20.5003 2.24619 20.5003 3.16667V3.16667V5.5H0.500305V3.5Z" fill="var(--mw-icon-background-default-selection, #B4DEFF)" stroke="var(--mw-icon-border-default-blue, #1656A7)"/>
</svg>
