<svg width="24" height="24" viewBox="0 0 24 24" fill="none" xmlns="http://www.w3.org/2000/svg">
<rect x="0.5" y="1.5" width="20" height="20" rx="2" fill="var(--mw-icon-background-light-yellow, #FFF5BC)" stroke="var(--mw-icon-border-default-blue, #1656A7)"/>
<path d="M24 21C24 21.5523 23.5523 22 23 22C22.4477 22 22 21.5523 22 21C22 20.4477 22.4477 20 23 20C23.5523 20 24 20.4477 24 21Z" fill="var(--mw-icon-object-primary, #616160)"/>
<path d="M24 17C24 17.5523 23.5523 18 23 18C22.4477 18 22 17.5523 22 17C22 16.4477 22.4477 16 23 16C23.5523 16 24 16.4477 24 17Z" fill="var(--mw-icon-object-primary, #616160)"/>
<path d="M24 13C24 13.5523 23.5523 14 23 14C22.4477 14 22 13.5523 22 13C22 12.4477 22.4477 12 23 12C23.5523 12 24 12.4477 24 13Z" fill="var(--mw-icon-object-primary, #616160)"/>
<path d="M0.500001 3.5C0.500001 2.39543 1.39543 1.5 2.5 1.5H18.8333C19.7538 1.5 20.5 2.24619 20.5 3.16667V4.5H0.500001V3.5Z" fill="var(--mw-icon-background-default-selection, #B4DEFF)"/>
<path d="M2.5 21.5C1.39543 21.5 0.5 20.6046 0.5 19.5L0.500001 3.5C0.500001 2.39543 1.39543 1.5 2.5 1.5L3.5 1.5V21.5H2.5Z" fill="var(--mw-icon-background-default-selection, #B4DEFF)"/>
<path d="M0.500001 3.5C0.500001 2.39543 1.39543 1.5 2.5 1.5M0.500001 3.5V4.5H20.5V3.16667C20.5 2.24619 19.7538 1.5 18.8333 1.5H2.5M0.500001 3.5L0.5 19.5C0.5 20.6046 1.39543 21.5 2.5 21.5H3.5V1.5L2.5 1.5" stroke="var(--mw-icon-border-default-blue, #1656A7)"/>
<path d="M9.50008 2.5V20.5M15.4996 2.5V20.5M19.4999 10.5H0.999878M19.4999 16.5H0.999878M2.49988 4.49997H1.49988" stroke="var(--mw-icon-border-default-blue, #1656A7)" stroke-linecap="square"/>
</svg>
