<svg width="24" height="24" viewBox="0 0 24 24" fill="none" xmlns="http://www.w3.org/2000/svg">
<path d="M4.45694 7.61707C1.96945 5.75827 -2.38419e-07 3.49999 1.56256 1.65132C3.5 0 5.70069 2.04064 7.5663 4.51904L14 7.84729L10.8906 10.902L7.78129 14L4.45694 7.61707Z" fill="var(--mw-icon-background-default-dark-gray, #A6A6A6)" stroke="var(--mw-icon-border-default-gray, #616161)" stroke-linejoin="round"/>
<path d="M15.8829 19.5431C17.7417 22.0305 20 24 21.8487 22.4374C23.5 21 21.4594 18.2993 18.981 16.4337L15.6527 10L12.598 13.1093L9.50002 16.2187L15.8829 19.5431Z" fill="var(--mw-icon-background-default-dark-gray, #A6A6A6)" stroke="var(--mw-icon-border-default-gray, #616161)" stroke-linejoin="round"/>
<path d="M20.5 3.5L17.5 6.5M14.5 2.5V5.5M21.5 9.50001H18.5" stroke="#B7312C" stroke-linecap="round"/>
<path d="M3.5 20.5L6.5 17.5M9.5 21.5V18.5M2.5 14.5H5.5" stroke="#B7312C" stroke-linecap="round"/>
<rect x="0.5" y="0.5" width="23" height="23" stroke="#B7312C"/>
</svg>
