<svg width="24" height="24" viewBox="0 0 24 24" fill="none" xmlns="http://www.w3.org/2000/svg">
<path d="M0.5 4.50001C0.5 3.94773 0.947715 3.50001 1.5 3.50001L22.5 3.5C23.0523 3.5 23.5 3.94772 23.5 4.5V11.5H1.5C0.947715 11.5 0.5 11.0523 0.5 10.5L0.5 4.50001Z" fill="var(--mw-icon-background-default-light-gray, #F5F5F5)"/>
<path d="M17.5 3.5V11.5M23.5 11.5V4.5C23.5 3.94772 23.0523 3.5 22.5 3.5L1.5 3.50001C0.947715 3.50001 0.5 3.94773 0.5 4.50001L0.5 10.5C0.5 11.0523 0.947715 11.5 1.5 11.5H23.5Z" stroke="var(--mw-icon-glyph-disabled-gray, #888889)" stroke-linecap="round"/>
<path d="M19 7H22L20.5 9L19 7Z" fill="var(--mw-icon-glyph-content-gray, #616162)"/>
<path fill-rule="evenodd" clip-rule="evenodd" d="M5.11348 9.54796C5.08271 9.58514 5.04954 9.62175 5.01396 9.65775C4.91514 9.75758 4.79592 9.83957 4.65628 9.90374C4.5188 9.96791 4.35983 10 4.17938 10C3.95166 10 3.74866 9.95009 3.57035 9.85027C3.39205 9.74807 3.25242 9.61141 3.15145 9.44028C3.05048 9.26679 3 9.07071 3 8.85205C3 8.64765 3.03437 8.46702 3.10312 8.31016C3.17401 8.15092 3.27712 8.01783 3.41246 7.91087C3.54995 7.80392 3.71751 7.72311 3.91514 7.66845C4.11278 7.61141 4.33835 7.58289 4.59184 7.58289H5.08808V7.31551C5.08808 7.17766 5.06552 7.05882 5.02041 6.959C4.9753 6.85918 4.90655 6.78194 4.81418 6.72727C4.72395 6.67261 4.6101 6.64528 4.47261 6.64528C4.34586 6.64528 4.23631 6.66904 4.14393 6.71658C4.05156 6.76411 3.97959 6.82828 3.92803 6.90909C3.87648 6.9899 3.8507 7.0814 3.8507 7.1836H3.07734C3.07734 7.03149 3.11063 6.88414 3.17723 6.74153C3.24382 6.59893 3.34049 6.47178 3.46724 6.36007C3.59399 6.24837 3.74544 6.16043 3.92159 6.09626C4.09774 6.03209 4.29538 6 4.5145 6C4.77658 6 5.00859 6.04872 5.21053 6.14617C5.41461 6.24361 5.57465 6.39097 5.69066 6.58824C5.80881 6.78313 5.86788 7.02793 5.86788 7.32264V9.03743C5.86788 9.21331 5.87862 9.37136 5.90011 9.51159C5.92374 9.64944 5.95704 9.76946 6 9.87166V9.9287H5.20408C5.16756 9.83601 5.13856 9.71836 5.11708 9.57576C5.11584 9.56647 5.11464 9.5572 5.11348 9.54796ZM5.08808 8.83977C5.07232 8.8741 5.05299 8.90909 5.03008 8.94474C4.96133 9.04932 4.86681 9.13844 4.74651 9.21212C4.62836 9.28342 4.4898 9.31907 4.33083 9.31907C4.21267 9.31907 4.11171 9.29531 4.02793 9.24777C3.94629 9.20024 3.884 9.13488 3.84103 9.05169C3.79807 8.96613 3.77658 8.87225 3.77658 8.77005C3.77658 8.66786 3.79484 8.57635 3.83136 8.49554C3.86788 8.41474 3.92266 8.34581 3.9957 8.28877C4.06874 8.23173 4.16004 8.18895 4.2696 8.16043C4.37916 8.12953 4.50591 8.11408 4.64984 8.11408H5.08808V8.83977Z" fill="var(--mw-icon-glyph-disabled-gray, #888889)"/>
<path d="M13.5 11.5H23.5V18.5C23.5 19.0523 23.0523 19.5 22.5 19.5H14.5C13.9477 19.5 13.5 19.0523 13.5 18.5V11.5Z" fill="var(--mw-icon-background-default-medium-gray, #D9D9D9)" stroke="var(--mw-icon-border-default-gray, #616161)" stroke-linejoin="round"/>
<path fill-rule="evenodd" clip-rule="evenodd" d="M17.7635 13H17V17.9357H17.6906L17.7283 17.552C17.8332 17.6917 17.9611 17.8003 18.1119 17.8779C18.2703 17.9593 18.4562 18 18.6695 18C18.887 18 19.0781 17.9572 19.2429 17.8715C19.4097 17.7836 19.5491 17.6605 19.661 17.5019C19.7751 17.3434 19.8596 17.157 19.9145 16.9428C19.9715 16.7264 20 16.4897 20 16.2326V16.1652C20 15.9038 19.9715 15.665 19.9145 15.4486C19.8596 15.2322 19.7761 15.0458 19.6642 14.8895C19.5523 14.7309 19.4118 14.6088 19.2429 14.5231C19.076 14.4374 18.8828 14.3946 18.6631 14.3946C18.452 14.3946 18.2672 14.4353 18.1088 14.5167C17.9762 14.5858 17.8611 14.6803 17.7635 14.8002V13ZM17.7635 16.9149V15.4711C17.7958 15.4016 17.8349 15.3384 17.8807 15.2815C17.9461 15.2001 18.0275 15.1358 18.1246 15.0887C18.2218 15.0416 18.3379 15.018 18.4731 15.018C18.6188 15.018 18.7402 15.0491 18.8374 15.1112C18.9366 15.1712 19.0148 15.2536 19.0718 15.3586C19.1309 15.4636 19.1732 15.5857 19.1985 15.7249C19.2239 15.862 19.2365 16.0088 19.2365 16.1652V16.2326C19.2365 16.3933 19.2228 16.5433 19.1954 16.6825C19.17 16.8218 19.1278 16.9439 19.0686 17.0488C19.0116 17.1517 18.9345 17.232 18.8374 17.2898C18.7402 17.3477 18.6209 17.3766 18.4794 17.3766C18.2999 17.3766 18.1531 17.337 18.0391 17.2577C17.925 17.1763 17.8363 17.0692 17.773 16.9364C17.7697 16.9293 17.7666 16.9221 17.7635 16.9149Z" fill="var(--mw-icon-glyph-content-gray, #616162)"/>
</svg>
