<svg width="25" height="25" viewBox="0 0 25 25" fill="none" xmlns="http://www.w3.org/2000/svg">
<path d="M0.5 4.5H21.5V13.5C21.5 14.0523 21.0523 14.5 20.5 14.5H1.5C0.947715 14.5 0.5 14.0523 0.5 13.5V4.5Z" fill="var(--mw-icon-background-default-white, #FFFFFF)" stroke="var(--mw-icon-border-default-gray, #616161)"/>
<path d="M3.5 7.5H18.5M3.5 9.5H14.5M3.5 11.5H9" stroke="var(--mw-icon-glyph-content-gray, #616162)" stroke-linecap="round"/>
<path d="M0.5 1.5C0.5 0.947715 0.947715 0.5 1.5 0.5H20.5C21.0523 0.5 21.5 0.947715 21.5 1.5V4.5H0.5V1.5Z" fill="var(--mw-icon-background-default-selection, #B4DEFF)" stroke="var(--mw-icon-border-default-blue, #1656A7)"/>
<path d="M6.5 2.5H16.5" stroke="var(--mw-icon-glyph-content-blue, #1656A8)" stroke-linecap="round"/>
<path d="M12.4615 18.9231H23.5385V22.5385C23.5385 23.0907 23.0908 23.5384 22.5385 23.5384H13.4615C12.9093 23.5384 12.4615 23.0907 12.4615 22.5384V18.9231Z" fill="var(--mw-icon-background-default-medium-gray, #D9D9D9)" stroke="var(--mw-icon-border-default-gray, #616161)"/>
<rect x="13.8462" y="20.3077" width="0.923077" height="0.923077" rx="0.461538" fill="var(--mw-icon-glyph-content-green, #008014)"/>
<path d="M20.7692 21.6923V20.7692H16.125L16.1538 21.6923H20.7692Z" stroke="var(--mw-icon-glyph-disabled-gray, #888889)" stroke-linecap="square" stroke-linejoin="round"/>
<path d="M12.4615 18.923H23.5385V13.4615C23.5385 12.9092 23.0908 12.4615 22.5385 12.4615H13.4615C12.9093 12.4615 12.4615 12.9092 12.4615 13.4615V18.923Z" fill="white"/>
<path d="M12.4615 15.6923C14.3077 13.8461 16.1539 13.8461 18 15.6923C19.8462 17.5384 21.6923 17.5384 23.5385 15.6923" stroke="#0072BD" stroke-linecap="round"/>
<path d="M12.4615 18.9231H23.5385V13.4616C23.5385 12.9093 23.0908 12.4616 22.5385 12.4616H13.4615C12.9093 12.4616 12.4615 12.9093 12.4615 13.4616V18.9231Z" stroke="var(--mw-icon-border-default-gray, #616161)"/>
</svg>
