<svg width="24" height="24" viewBox="0 0 24 24" fill="none" xmlns="http://www.w3.org/2000/svg">
<path d="M4.5 22.5C2.29086 22.5 0.5 20.7091 0.5 18.5L0.499999 4.5C0.499999 2.29086 2.29086 0.5 4.5 0.5L18.5 0.499999C20.7091 0.499999 22.5 2.29086 22.5 4.5L22.5 18.5C22.5 20.7091 20.7091 22.5 18.5 22.5L4.5 22.5Z" fill="var(--mw-icon-background-default-white, #FFFFFF)" stroke="var(--mw-icon-border-default-gray, #616161)"/>
<path d="M8.5 5.5H19.5M8.5 9.5H19.5M8.5 13.5H19.5M8.5 17.5H19.5" stroke="var(--mw-icon-glyph-content-gray, #616162)" stroke-linecap="round" stroke-linejoin="round"/>
<path d="M3.5 5.5L4.5 6.5L6.5 4.5M3.5 9.5L4.5 10.5L6.5 8.5" stroke="var(--mw-icon-glyph-content-green, #008014)" stroke-linecap="round" stroke-linejoin="round"/>
<path d="M3.5 17.5L4.5 18.5L6.5 16.5" stroke="var(--mw-icon-glyph-content-green, #008014)" stroke-linecap="round" stroke-linejoin="round"/>
<path d="M3.5 12.5L5.5 14.5M5.5 12.5L3.5 14.5" stroke="var(--mw-icon-glyph-content-red, #902623)" stroke-linecap="round"/>
</svg>
