<svg width="24" height="24" viewBox="0 0 24 24" fill="none" xmlns="http://www.w3.org/2000/svg">
<path d="M11.5 17.5H5.5V19.5M11.5 17.5H17.5V19.5M11.5 17.5V14.5" stroke="var(--mw-icon-object-primary, #616160)" stroke-linecap="square" stroke-linejoin="round"/>
<path d="M21.5 23.5V20.5H13.5V23.5H21.5Z" fill="var(--mw-icon-background-medium-blue, #83CAFF)"/>
<path d="M9.5 23.5V20.5H1.5V23.5H9.5Z" fill="var(--mw-icon-background-medium-blue, #83CAFF)"/>
<path d="M21.5 23.5V20.5H13.5V23.5H21.5Z" stroke="var(--mw-icon-border-default-blue, #1656A7)" stroke-linecap="square" stroke-linejoin="round"/>
<path d="M9.5 23.5V20.5H1.5V23.5H9.5Z" stroke="var(--mw-icon-border-default-blue, #1656A7)" stroke-linecap="square" stroke-linejoin="round"/>
<path d="M2.5 1.5C2.5 0.947716 2.94772 0.5 3.5 0.5H19.5C20.0523 0.5 20.5 0.947715 20.5 1.5V13.5C20.5 14.0523 20.0523 14.5 19.5 14.5H3.5C2.94772 14.5 2.5 14.0523 2.5 13.5V1.5Z" fill="var(--mw-icon-background-default-white, #FFFFFF)" stroke="var(--mw-icon-border-default-gray, #616161)"/>
<path d="M10.5 3.5H17.5M10.5 7.5H15.5M10.5 11.5H16.5" stroke="var(--mw-icon-glyph-content-gray, #616162)" stroke-linecap="round"/>
<path d="M5.5 3.5L6.5 4.5L8.5 2.5" stroke="var(--mw-icon-glyph-content-green, #008014)" stroke-linecap="round" stroke-linejoin="round"/>
<path d="M5.5 8.5L7.5 6.5M5.5 6.5L7.5 8.5" stroke="var(--mw-icon-glyph-content-red, #902623)" stroke-linecap="round"/>
<path d="M5.5 11.5L6.5 12.5L8.5 10.5" stroke="var(--mw-icon-glyph-content-green, #008014)" stroke-linecap="round" stroke-linejoin="round"/>
</svg>
