<svg width="24" height="24" viewBox="0 0 24 24" fill="none" xmlns="http://www.w3.org/2000/svg">
<rect x="0.5" y="0.5" width="23" height="23" rx="1" fill="var(--mw-icon-background-default-light-gray, #F5F5F5)" stroke="var(--mw-icon-border-default-gray, #616161)"/>
<rect x="3" y="3" width="2" height="2" fill="var(--mw-icon-border-default-gray, #616161)"/>
<rect x="10" y="3" width="2" height="2" fill="var(--mw-icon-border-default-gray, #616161)"/>
<rect x="17" y="3" width="2" height="2" fill="var(--mw-icon-border-default-gray, #616161)"/>
<rect x="5" y="7" width="2" height="2" fill="var(--mw-icon-border-default-gray, #616161)"/>
<rect x="12" y="7" width="2" height="2" fill="var(--mw-icon-border-default-gray, #616161)"/>
<rect x="19" y="7" width="2" height="2" fill="var(--mw-icon-border-default-gray, #616161)"/>
<rect x="3" y="11" width="2" height="2" fill="var(--mw-icon-border-default-gray, #616161)"/>
<rect x="10" y="11" width="2" height="2" fill="var(--mw-icon-border-default-gray, #616161)"/>
<rect x="17" y="11" width="2" height="2" fill="var(--mw-icon-border-default-gray, #616161)"/>
<rect x="5" y="15" width="2" height="2" fill="var(--mw-icon-border-default-gray, #616161)"/>
<rect x="12" y="15" width="2" height="2" fill="var(--mw-icon-border-default-gray, #616161)"/>
<rect x="19" y="15" width="2" height="2" fill="var(--mw-icon-border-default-gray, #616161)"/>
<rect x="3" y="19" width="2" height="2" fill="var(--mw-icon-border-default-gray, #616161)"/>
<rect x="10" y="19" width="2" height="2" fill="var(--mw-icon-border-default-gray, #616161)"/>
<rect x="17" y="19" width="2" height="2" fill="var(--mw-icon-border-default-gray, #616161)"/>
</svg>
