<svg width="24" height="24" viewBox="0 0 24 24" fill="none" xmlns="http://www.w3.org/2000/svg">
<path d="M0.5 18.5V4.5C0.5 2.29086 2.29086 0.5 4.5 0.5H18.5C20.7091 0.5 22.5 2.29086 22.5 4.5V18.5C22.5 20.7091 20.7091 22.5 18.5 22.5H4.5C2.29086 22.5 0.5 20.7091 0.5 18.5Z" fill="var(--mw-icon-background-default-white, #FFFFFF)"/>
<rect x="4" y="5" width="2" height="17" fill="#77AC30"/>
<rect x="7" y="3" width="2" height="19" fill="#77AC30"/>
<rect x="10" y="10" width="2" height="12" fill="#EDB120"/>
<rect x="13" y="11" width="2" height="11" fill="#EDB120"/>
<rect x="16" y="15" width="2" height="7" fill="#A2142F"/>
<path d="M22.5 7.5H0.5V13.5H22.5V7.5Z" stroke="var(--mw-icon-glyph-content-light-blue, #278CDD)"/>
<path d="M0.5 18.5V4.5C0.5 2.29086 2.29086 0.5 4.5 0.5H18.5C20.7091 0.5 22.5 2.29086 22.5 4.5V18.5C22.5 20.7091 20.7091 22.5 18.5 22.5H4.5C2.29086 22.5 0.5 20.7091 0.5 18.5Z" stroke="#3AC831" stroke-linecap="round"/>
</svg>
