<svg width="24" height="24" viewBox="0 0 24 24" fill="none" xmlns="http://www.w3.org/2000/svg">
<path d="M17.5 1.5C17.5 0.947715 17.9477 0.5 18.5 0.5H21.5C22.0523 0.5 22.5 0.947715 22.5 1.5V8.44575C22.5 8.79054 22.3224 9.11101 22.03 9.29375L14.97 13.7062C14.6776 13.889 14.5 14.2095 14.5 14.5542V21.5C14.5 22.0523 14.0523 22.5 13.5 22.5H10.5C9.94771 22.5 9.5 22.0523 9.5 21.5V14.5542C9.5 14.2095 9.67762 13.889 9.97 13.7062L17.03 9.29375C17.3224 9.11101 17.5 8.79054 17.5 8.44575V1.5Z" fill="#FFF9EF" stroke="#4A3A19" stroke-linejoin="round"/>
<path d="M6.5 5.46155C6.5 4.90926 6.05228 4.46155 5.5 4.46155H2.5C1.94772 4.46155 1.5 4.90926 1.5 5.46155V12.3733C1.5 12.7157 1.67513 13.0342 1.96418 13.2177L9.03582 17.7054C9.32487 17.8889 9.5 18.2074 9.5 18.5498V21.4615C9.5 22.0138 9.94771 22.4615 10.5 22.4615H13.5C14.0523 22.4615 14.5 22.0138 14.5 21.4615V18.552C14.5 18.2084 14.3236 17.8889 14.0329 17.7058L6.96708 13.2557C6.67637 13.0726 6.5 12.7531 6.5 12.4096V5.46155Z" fill="#FFF9EF" stroke="#4A3A19" stroke-linejoin="round"/>
<rect x="9.5" y="0.5" width="5" height="22" rx="1" fill="#745A26" stroke="#4A3A19" stroke-linejoin="round"/>
</svg>
