<svg width="24" height="24" viewBox="0 0 24 24" fill="none" xmlns="http://www.w3.org/2000/svg">
<path d="M0.5 20.5V2.5C0.5 1.39543 1.39543 0.5 2.5 0.5H20.5C21.6046 0.5 22.5 1.39543 22.5 2.5V20.5C22.5 21.6046 21.6046 22.5 20.5 22.5H2.5C1.39543 22.5 0.5 21.6046 0.5 20.5Z" fill="var(--mw-icon-background-default-white, #FFFFFF)"/>
<path d="M0.5 10.5C6 10.5 8.25 2.5 9.5 2.5C10.75 2.5 11 5 14.5 8.5C18 12 22 15 21.5 22.5" stroke="#0072BD"/>
<path d="M0.5 10.5C11 10.5 21.5 8.50001 21.5 22.4063" stroke="#0072BD"/>
<path d="M0.5 10.5C4 10.5 8.5 6.5 9.5 6.5C10.2364 6.5 11.5 7.5 14.5 9.5C17.5 11.5 21.5 12.5 21.5 22.5" stroke="#0072BD"/>
<path d="M0.5 20.5V2.5C0.5 1.39543 1.39543 0.5 2.5 0.5H20.5C21.6046 0.5 22.5 1.39543 22.5 2.5V20.5C22.5 21.6046 21.6046 22.5 20.5 22.5H2.5C1.39543 22.5 0.5 21.6046 0.5 20.5Z" stroke="var(--mw-icon-border-default-gray, #616161)" stroke-linecap="round"/>
</svg>
