<svg width="24" height="24" viewBox="0 0 24 24" fill="none" xmlns="http://www.w3.org/2000/svg">
<path d="M17.5 1.5C17.5 0.947715 17.9477 0.5 18.5 0.5H21.5C22.0523 0.5 22.5 0.947715 22.5 1.5V8.44801C22.5 8.79157 22.3236 9.11108 22.0329 9.29417L14.9671 13.7443C14.6764 13.9274 14.5 14.2469 14.5 14.5905V21.5C14.5 21.7761 14.3881 22.0261 14.2071 22.2071C14.0262 22.3881 13.7762 22.5 13.5 22.5C13.5 22.5 13.5 22.5 13.5 22.5H10.5C10.4655 22.5 10.4314 22.4983 10.3978 22.4948C9.8935 22.4436 9.5 22.0178 9.5 21.5L9.5 18.5882C9.5 18.2459 9.32487 17.9273 9.03582 17.7439L1.96418 13.2561C1.67513 13.0727 1.5 12.7541 1.5 12.4118V6.5C1.5 5.94772 1.94772 5.5 2.5 5.5H5.5C6.05228 5.5 6.5 5.94772 6.5 6.5V12.4671C6.5 12.8002 6.66586 13.1114 6.94236 13.2972L9.5 15.0154V1.5C9.5 0.947716 9.94771 0.5 10.5 0.5H13.5C14.0523 0.5 14.5 0.947715 14.5 1.5V10.8894L17.0329 9.29417C17.3236 9.11108 17.5 8.79157 17.5 8.44801V1.5Z" fill="var(--mw-icon-border-default-green, #008013)"/>
<path d="M13.5 22.5C13.7762 22.5 14.0262 22.3881 14.2071 22.2071C14.3881 22.0261 14.5 21.7761 14.5 21.5V14.5905C14.5 14.2469 14.6764 13.9274 14.9671 13.7443L22.0329 9.29417C22.3236 9.11108 22.5 8.79157 22.5 8.44801V1.5C22.5 0.947715 22.0523 0.5 21.5 0.5H18.5C17.9477 0.5 17.5 0.947715 17.5 1.5V8.44801C17.5 8.79157 17.3236 9.11108 17.0329 9.29417L14.5 10.8894V1.5C14.5 0.947715 14.0523 0.5 13.5 0.5H10.5C9.94771 0.5 9.5 0.947716 9.5 1.5V15.0154L6.94236 13.2972C6.66586 13.1114 6.5 12.8002 6.5 12.4671V6.5C6.5 5.94772 6.05228 5.5 5.5 5.5H2.5C1.94772 5.5 1.5 5.94772 1.5 6.5V12.4118C1.5 12.7541 1.67513 13.0727 1.96418 13.2561L9.03582 17.7439C9.32487 17.9273 9.5 18.2459 9.5 18.5882L9.5 21.5C9.5 22.0178 9.8935 22.4436 10.3978 22.4948C10.4314 22.4983 10.4655 22.5 10.5 22.5H13.5ZM13.5 22.5C13.5 22.5 13.5 22.5 13.5 22.5Z" stroke="#013E0A" stroke-linejoin="round"/>
</svg>
