<svg width="24" height="24" viewBox="0 0 24 24" fill="none" xmlns="http://www.w3.org/2000/svg">
<path d="M13.8128 22.2776L17.5 14.5002V1.50012H6.69611C5.35667 1.50012 4.18042 2.38483 3.8223 3.6755C2.96269 6.77358 1.49988 12.1977 1.49988 13.2335V13.5002C1.49988 14.6047 2.39531 15.5002 3.49988 15.5002H10.5L9.76094 21.1145C9.7442 21.2417 9.73909 21.3702 9.74568 21.4983C9.80335 22.6201 10.746 23.5001 11.8693 23.5001C12.6955 23.5001 13.4589 23.0242 13.8128 22.2776Z" stroke="var(--mw-icon-object-primary, #616160)" stroke-linejoin="round"/>
<path d="M23.4999 14.0002C23.4999 14.2763 23.276 14.5002 22.9999 14.5002H17.5V1.50016L22.9999 1.50012C23.276 1.50012 23.4999 1.72398 23.4999 2.00012V14.0002Z" stroke="var(--mw-icon-object-primary, #616160)"/>
</svg>
