<svg width="24" height="24" viewBox="0 0 24 24" fill="none" xmlns="http://www.w3.org/2000/svg">
<path d="M10.1872 1.72255L6.49994 9.49997V22.5H17.3039C18.6433 22.5 19.8195 21.6153 20.1777 20.3246C21.0373 17.2265 22.5001 11.8024 22.5001 10.7667V10.5C22.5001 9.39539 21.6047 8.49997 20.5001 8.49997H13.4999L14.239 2.88558C14.2558 2.75839 14.2609 2.62994 14.2543 2.50183C14.1966 1.38 13.254 0.5 12.1307 0.5C11.3044 0.5 10.5411 0.97594 10.1872 1.72255Z" stroke="var(--mw-icon-object-primary, #616160)" stroke-linejoin="round"/>
<path d="M0.500122 9.99994C0.500122 9.7238 0.72398 9.49994 1.00012 9.49994L6.5 9.49994V22.4999L1.00013 22.5C0.723982 22.5 0.500122 22.2761 0.500122 22V9.99994Z" stroke="var(--mw-icon-object-primary, #616160)"/>
</svg>
