<svg width="24" height="24" viewBox="0 0 24 24" fill="none" xmlns="http://www.w3.org/2000/svg">
<path d="M13.0223 22.3244L16.4999 14.5001V1.50006H6.55204C5.19413 1.50006 4.00643 2.40885 3.66474 3.72307C2.85728 6.82878 1.49988 12.203 1.49988 13.2334V13.5001C1.49988 14.6047 2.39531 15.5001 3.49988 15.5001H9.93744L9.24316 21.1258C9.22838 21.2455 9.22388 21.3662 9.22968 21.4867L9.2359 21.6157C9.28675 22.6708 10.157 23.5001 11.2133 23.5001C11.9956 23.5001 12.7045 23.0393 13.0223 22.3244Z" fill="var(--mw-icon-object-primary, #616160)"/>
<path d="M23.4998 14.0001C23.4998 14.2762 23.2759 14.5001 22.9998 14.5001H18.4998V1.5001L22.9998 1.50006C23.2759 1.50006 23.4998 1.72392 23.4998 2.00006V14.0001Z" fill="var(--mw-icon-object-primary, #616160)"/>
<path d="M16.4999 14.5001L16.9568 14.7032C16.9852 14.6392 16.9999 14.5701 16.9999 14.5001H16.4999ZM13.0223 22.3244L13.4792 22.5275L13.0223 22.3244ZM9.2359 21.6157L8.73648 21.6398L9.2359 21.6157ZM9.22968 21.4867L9.7291 21.4626L9.22968 21.4867ZM9.24316 21.1258L9.73939 21.187V21.187L9.24316 21.1258ZM9.93744 15.5001L10.4337 15.5613C10.4512 15.4191 10.4069 15.2762 10.312 15.1689C10.2171 15.0616 10.0807 15.0001 9.93744 15.0001V15.5001ZM16.4999 1.50006H16.9999C16.9999 1.22392 16.776 1.00006 16.4999 1.00006V1.50006ZM3.66474 3.72307L3.18083 3.59726L3.66474 3.72307ZM18.4998 14.5001H17.9998C17.9998 14.7762 18.2236 15.0001 18.4998 15.0001V14.5001ZM18.4998 1.5001L18.4998 1.0001C18.2236 1.0001 17.9998 1.22396 17.9998 1.5001H18.4998ZM22.9998 1.50006L22.9997 1.00006L22.9998 1.50006ZM22.9998 14.5001V14.0001V14.5001ZM16.043 14.297L12.5654 22.1214L13.4792 22.5275L16.9568 14.7032L16.043 14.297ZM9.73532 21.5916L9.7291 21.4626L8.73026 21.5108L8.73648 21.6398L9.73532 21.5916ZM9.73939 21.187L10.4337 15.5613L9.44121 15.4388L8.74692 21.0645L9.73939 21.187ZM9.93744 15.0001H3.49988V16.0001H9.93744V15.0001ZM6.55204 2.00006H16.4999V1.00006H6.55204V2.00006ZM15.9999 1.50006V14.5001H16.9999V1.50006H15.9999ZM1.99988 13.5001V13.2334H0.999878V13.5001H1.99988ZM1.99988 13.2334C1.99988 13.035 2.07248 12.5573 2.21482 11.8478C2.35306 11.1587 2.54647 10.2996 2.76607 9.3716C3.20509 7.51639 3.74523 5.40058 4.14866 3.84889L3.18083 3.59726C2.7768 5.15128 2.2345 7.27541 1.79295 9.14132C1.57227 10.0739 1.37587 10.9457 1.23436 11.6511C1.09695 12.3361 0.999878 12.9166 0.999878 13.2334H1.99988ZM3.49988 15.0001C2.67145 15.0001 1.99988 14.3285 1.99988 13.5001H0.999878C0.999878 14.8808 2.11917 16.0001 3.49988 16.0001V15.0001ZM9.7291 21.4626C9.72467 21.3706 9.72811 21.2784 9.73939 21.187L8.74692 21.0645C8.72866 21.2125 8.72308 21.3618 8.73026 21.5108L9.7291 21.4626ZM11.2133 23.0001C10.4238 23.0001 9.77333 22.3802 9.73532 21.5916L8.73648 21.6398C8.80018 22.9613 9.89019 24.0001 11.2133 24.0001V23.0001ZM6.55204 1.00006C4.96894 1.00006 3.58044 2.06027 3.18083 3.59726L4.14866 3.84889C4.43243 2.75743 5.41932 2.00006 6.55204 2.00006V1.00006ZM12.5654 22.1214C12.3279 22.6557 11.798 23.0001 11.2133 23.0001V24.0001C12.1932 24.0001 13.0812 23.423 13.4792 22.5275L12.5654 22.1214ZM22.9998 14.0001H18.4998V15.0001H22.9998V14.0001ZM18.9998 14.5001V1.5001H17.9998V14.5001H18.9998ZM18.4998 2.0001L22.9998 2.00006L22.9997 1.00006L18.4998 1.0001L18.4998 2.0001ZM22.9998 2.00006V14.0001H23.9998V2.00006H22.9998ZM22.9998 2.00006H23.9998C23.9998 1.44778 23.552 1.00006 22.9997 1.00006L22.9998 2.00006ZM22.9998 15.0001C23.552 15.0001 23.9998 14.5524 23.9998 14.0001H22.9998V15.0001Z" fill="var(--mw-icon-object-primary, #616160)"/>
</svg>
