<svg width="24" height="24" viewBox="0 0 24 24" fill="none" xmlns="http://www.w3.org/2000/svg">
<path d="M10.9776 1.67562L7.5 9.5V22.5H17.4478C18.8058 22.5 19.9934 21.5912 20.3351 20.277C21.1426 17.1713 22.5 11.7971 22.5 10.7667V10.5C22.5 9.39539 21.6046 8.49997 20.5 8.49997H14.0624L14.7567 2.87428C14.7715 2.75458 14.776 2.63384 14.7702 2.51337L14.764 2.38435C14.7131 1.32929 13.8429 0.5 12.7866 0.5C12.0043 0.5 11.2953 0.960722 10.9776 1.67562Z" fill="var(--mw-icon-object-primary, #616160)"/>
<path d="M0.500122 9.99996C0.500122 9.72382 0.72398 9.49996 1.00012 9.49996H5.50012V22.5L1.00013 22.5C0.723982 22.5 0.500122 22.2761 0.500122 22V9.99996Z" fill="var(--mw-icon-object-primary, #616160)"/>
<path d="M7.5 9.5L7.0431 9.29693C7.01468 9.36086 7 9.43004 7 9.5H7.5ZM10.9776 1.67562L10.5207 1.47255V1.47255L10.9776 1.67562ZM14.764 2.38435L15.2634 2.36028V2.36028L14.764 2.38435ZM14.7702 2.51337L14.2708 2.53744V2.53744L14.7702 2.51337ZM14.7567 2.87428L14.2605 2.81304V2.81304L14.7567 2.87428ZM14.0624 8.49997L13.5662 8.43873C13.5487 8.58093 13.5929 8.72382 13.6879 8.83116C13.7828 8.9385 13.9192 8.99997 14.0624 8.99997V8.49997ZM7.5 22.5H7C7 22.7761 7.22386 23 7.5 23V22.5ZM20.3351 20.277L20.819 20.4028V20.4028L20.3351 20.277ZM5.50012 9.49996H6.00012C6.00012 9.22382 5.77626 8.99996 5.50012 8.99996V9.49996ZM5.50012 22.5L5.50013 23C5.77627 23 6.00012 22.7761 6.00012 22.5H5.50012ZM1.00013 22.5L1.00013 23L1.00013 22.5ZM1.00012 9.49996V9.99996V9.49996ZM7.9569 9.70307L11.4345 1.87869L10.5207 1.47255L7.0431 9.29693L7.9569 9.70307ZM14.2646 2.40842L14.2708 2.53744L15.2696 2.4893L15.2634 2.36028L14.2646 2.40842ZM14.2605 2.81304L13.5662 8.43873L14.5587 8.56121L15.253 2.93552L14.2605 2.81304ZM14.0624 8.99997H20.5V7.99997H14.0624V8.99997ZM17.4478 22H7.5V23H17.4478V22ZM8 22.5V9.5H7V22.5H8ZM22 10.5V10.7667H23V10.5H22ZM22 10.7667C22 10.9651 21.9274 11.4427 21.7851 12.1523C21.6468 12.8414 21.4534 13.7005 21.2338 14.6285C20.7948 16.4837 20.2547 18.5995 19.8512 20.1512L20.819 20.4028C21.2231 18.8488 21.7654 16.7247 22.2069 14.8587C22.4276 13.9262 22.624 13.0544 22.7655 12.349C22.9029 11.664 23 11.0835 23 10.7667H22ZM20.5 8.99997C21.3284 8.99997 22 9.67154 22 10.5H23C23 9.11925 21.8807 7.99997 20.5 7.99997V8.99997ZM14.2708 2.53744C14.2752 2.62943 14.2718 2.72163 14.2605 2.81304L15.253 2.93552C15.2712 2.78753 15.2768 2.63824 15.2696 2.4893L14.2708 2.53744ZM12.7866 1C13.5761 1 14.2265 1.61984 14.2646 2.40842L15.2634 2.36028C15.1997 1.03875 14.1097 0 12.7866 0V1ZM17.4478 23C19.0309 23 20.4194 21.9398 20.819 20.4028L19.8512 20.1512C19.5675 21.2426 18.5806 22 17.4478 22V23ZM11.4345 1.8787C11.672 1.34436 12.2019 1 12.7866 1V0C11.8067 0 10.9187 0.577087 10.5207 1.47255L11.4345 1.8787ZM1.00012 9.99996H5.50012V8.99996H1.00012V9.99996ZM5.00012 9.49996V22.5H6.00012V9.49996H5.00012ZM5.50012 22L1.00012 22L1.00013 23L5.50013 23L5.50012 22ZM1.00012 22V9.99996H0.00012207V22H1.00012ZM1.00012 22L1.00012 22H0.00012207C0.00012207 22.5523 0.447844 23 1.00013 23L1.00012 22ZM1.00012 8.99996C0.447837 8.99996 0.00012207 9.44768 0.00012207 9.99996H1.00012V8.99996Z" fill="var(--mw-icon-object-primary, #616160)"/>
</svg>
