<svg width="24" height="24" viewBox="0 0 24 24" fill="none" xmlns="http://www.w3.org/2000/svg">
<rect x="0.5" y="0.5" width="22" height="22" rx="2" fill="var(--mw-icon-background-default-white, #FFFFFF)"/>
<path d="M1 16.5L22.5 16.5" stroke="#0072BD" stroke-linecap="round"/>
<circle cx="11.5" cy="16.5" r="2" fill="white" stroke="#0072BD"/>
<path d="M0.5 13C0.5 13 0.380404 7.5 11.5 7.5C22.6196 7.5 22.5 12.5 22.5 12.5" stroke="#D95319" stroke-linejoin="round"/>
<circle cx="11.5" cy="7.5" r="2" fill="white" stroke="#D95319"/>
<path d="M0.5 2.5C0.5 1.39543 1.39543 0.5 2.5 0.5H20.5C21.6046 0.5 22.5 1.39543 22.5 2.5V20.5C22.5 21.6046 21.6046 22.5 20.5 22.5H2.5C1.39543 22.5 0.5 21.6046 0.5 20.5V2.5Z" stroke="var(--mw-icon-border-default-gray, #616161)" stroke-linejoin="round"/>
</svg>
