<svg width="24" height="24" viewBox="0 0 24 24" fill="none" xmlns="http://www.w3.org/2000/svg">
<path d="M20.5 0.5H2.5C1.39543 0.5 0.5 1.39543 0.5 2.5V20.5C0.5 21.6046 1.39543 22.5 2.5 22.5H20.5C21.6046 22.5 22.5 21.6046 22.5 20.5V2.5C22.5 1.39543 21.6046 0.5 20.5 0.5Z" fill="var(--mw-icon-background-default-white, #FFFFFF)" stroke="var(--mw-icon-border-default-gray, #616161)" stroke-linecap="round"/>
<path fill-rule="evenodd" clip-rule="evenodd" d="M8.6529 2.28323C8.99099 2.07004 9.41519 1.99999 9.8007 1.99999C10.53 1.99999 11.0912 2.27357 11.4633 2.81461C11.829 3.34641 12 4.11911 12 5.09718C12 5.95192 11.8311 7.16554 11.3315 8.17124C10.8296 9.18159 9.98197 9.99999 8.6307 9.99999C8.04994 9.99999 7.63368 9.75994 7.36798 9.38091C7.10722 9.00893 7 8.51608 7 8.01572C7 7.17991 7.31611 6.3411 7.83983 5.70998C8.36409 5.07822 9.10444 4.64598 9.95379 4.64598C10.2413 4.64598 10.6263 4.72476 10.9096 4.98476C10.9263 4.83861 10.9365 4.6893 10.9365 4.54073C10.9365 4.05224 10.8583 3.56722 10.6571 3.20947C10.4617 2.86189 10.1492 2.62984 9.64762 2.62984C9.37321 2.62984 9.14871 2.68203 8.88346 2.77018L8.76408 2.80986L8.54369 2.35209L8.6529 2.28323ZM8.75786 6.24909C8.40084 6.84701 8.17289 7.63891 8.17289 8.40183C8.17289 8.61809 8.18507 8.86858 8.26892 9.06236C8.30957 9.15631 8.3647 9.231 8.43874 9.28278C8.51201 9.33403 8.61419 9.37015 8.76191 9.37015C9.11414 9.37015 9.44843 9.13188 9.74272 8.71797C10.0343 8.30783 10.2661 7.75206 10.4164 7.18383C10.5129 6.81625 10.5756 6.44324 10.5756 6.10788C10.5756 5.7624 10.4888 5.55544 10.3876 5.43707C10.287 5.31945 10.1612 5.27583 10.0522 5.27583C9.58713 5.27583 9.11916 5.64402 8.75786 6.24909Z" fill="var(--mw-icon-glyph-content-gray, #616162)"/>
<path fill-rule="evenodd" clip-rule="evenodd" d="M8.6529 13.2832C8.99099 13.07 9.41519 13 9.8007 13C10.53 13 11.0912 13.2736 11.4633 13.8146C11.829 14.3464 12 15.1191 12 16.0972C12 16.9519 11.8311 18.1655 11.3315 19.1712C10.8296 20.1816 9.98197 21 8.6307 21C8.04994 21 7.63368 20.7599 7.36798 20.3809C7.10722 20.0089 7 19.5161 7 19.0157C7 18.1799 7.31611 17.3411 7.83983 16.71C8.36409 16.0782 9.10444 15.646 9.95379 15.646C10.2413 15.646 10.6263 15.7248 10.9096 15.9848C10.9263 15.8386 10.9365 15.6893 10.9365 15.5407C10.9365 15.0522 10.8583 14.5672 10.6571 14.2095C10.4617 13.8619 10.1492 13.6298 9.64762 13.6298C9.37321 13.6298 9.14871 13.682 8.88346 13.7702L8.76408 13.8099L8.54369 13.3521L8.6529 13.2832ZM8.75786 17.2491C8.40084 17.847 8.17289 18.6389 8.17289 19.4018C8.17289 19.6181 8.18507 19.8686 8.26892 20.0624C8.30957 20.1563 8.3647 20.231 8.43874 20.2828C8.51201 20.334 8.61419 20.3702 8.76191 20.3702C9.11414 20.3702 9.44843 20.1319 9.74272 19.718C10.0343 19.3078 10.2661 18.7521 10.4164 18.1838C10.5129 17.8163 10.5756 17.4432 10.5756 17.1079C10.5756 16.7624 10.4888 16.5554 10.3876 16.4371C10.287 16.3195 10.1612 16.2758 10.0522 16.2758C9.58713 16.2758 9.11916 16.644 8.75786 17.2491Z" fill="var(--mw-icon-glyph-content-gray, #616162)"/>
<path d="M14.9904 9.49526C14.8413 9.62904 14.6698 9.73957 14.4757 9.82685C14.2003 9.95073 13.8762 10.0081 13.5033 9.99907C13.2044 9.99001 12.9524 9.93713 12.7475 9.84044C12.546 9.74073 12.3865 9.60628 12.2689 9.43707C12.1513 9.26787 12.0724 9.07449 12.0321 8.85695C11.9951 8.6394 11.9901 8.40976 12.017 8.16804L12.6065 5H13.7905L13.196 8.18164C13.1859 8.29948 13.1859 8.41279 13.196 8.52156C13.206 8.63033 13.2346 8.72853 13.2816 8.81616C13.3286 8.90378 13.3975 8.97478 13.4882 9.02917C13.5823 9.08054 13.7049 9.10924 13.856 9.11528C14.1785 9.12435 14.4472 9.06845 14.6622 8.94759C14.8585 8.83618 15.0168 8.68811 15.1371 8.50338L15.8109 5H17L16.0528 9.9039H14.9342L14.9904 9.49526Z" fill="var(--mw-icon-glyph-content-gray, #616162)"/>
<path fill-rule="evenodd" clip-rule="evenodd" d="M15.8507 16.9382L16 16.1647H15.1035L15.321 15H14.1894L13.9745 16.1647H13.1445L13 16.9382H13.8318L13.3274 19.672C13.3018 19.9181 13.3242 20.1408 13.3949 20.34C13.4655 20.5393 13.5891 20.6989 13.7657 20.8191C13.9422 20.9363 14.175 20.9963 14.4639 20.9993C14.5859 21.0022 14.7063 20.9963 14.825 20.9817C14.947 20.967 15.0658 20.9436 15.1814 20.9114L15.2632 20.0939L15.0514 20.1203C14.9839 20.129 14.9165 20.132 14.8491 20.129C14.7239 20.1261 14.6308 20.1041 14.5698 20.0631C14.512 20.0192 14.4751 19.9591 14.4591 19.8829C14.4462 19.8067 14.4462 19.7174 14.4591 19.6148L14.959 16.9382H15.8507Z" fill="var(--mw-icon-glyph-content-gray, #616162)"/>
<line x1="3.5" y1="11.5001" x2="19.5" y2="11.5001" stroke="var(--mw-icon-glyph-content-gray, #616162)" stroke-linecap="round"/>
</svg>
