<svg width="24" height="24" viewBox="0 0 24 24" fill="none" xmlns="http://www.w3.org/2000/svg">
<rect x="2.5" y="2.5" width="16" height="16" rx="2" fill="var(--mw-icon-background-default-medium-gray, #D9D9D9)" stroke="var(--mw-icon-border-default-gray, #616161)"/>
<rect x="0.5" y="0.5" width="16" height="16" rx="2" fill="var(--mw-icon-background-default-white, #FFFFFF)"/>
<path d="M2.5 13.5L9.5 9.5M9.5 9.5L13.5 3.5M9.5 9.5L13.5 13.5" stroke="var(--mw-icon-glyph-content-gray, #616162)" stroke-linecap="round" stroke-linejoin="round"/>
<rect x="12.5" y="7.5" width="2" height="2" rx="1" fill="white" stroke="#DD5400"/>
<path d="M2.5 4.5C2.5 3.94772 2.94772 3.5 3.5 3.5C4.05228 3.5 4.5 3.94772 4.5 4.5C4.5 5.05228 4.05228 5.5 3.5 5.5C2.94772 5.5 2.5 5.05228 2.5 4.5Z" fill="white"/>
<path d="M7.5 3.5C7.5 2.94772 7.94772 2.5 8.5 2.5C9.05228 2.5 9.5 2.94772 9.5 3.5C9.5 4.05228 9.05228 4.5 8.5 4.5C7.94772 4.5 7.5 4.05228 7.5 3.5Z" fill="white"/>
<path d="M5.5 7.5C5.5 6.94772 5.94772 6.5 6.5 6.5C7.05228 6.5 7.5 6.94772 7.5 7.5C7.5 8.05228 7.05228 8.5 6.5 8.5C5.94772 8.5 5.5 8.05228 5.5 7.5Z" fill="white"/>
<path d="M2.5 4.5C2.5 3.94772 2.94772 3.5 3.5 3.5C4.05228 3.5 4.5 3.94772 4.5 4.5C4.5 5.05228 4.05228 5.5 3.5 5.5C2.94772 5.5 2.5 5.05228 2.5 4.5Z" stroke="var(--mw-icon-glyph-content-light-blue, #278CDD)"/>
<path d="M7.5 3.5C7.5 2.94772 7.94772 2.5 8.5 2.5C9.05228 2.5 9.5 2.94772 9.5 3.5C9.5 4.05228 9.05228 4.5 8.5 4.5C7.94772 4.5 7.5 4.05228 7.5 3.5Z" stroke="var(--mw-icon-glyph-content-light-blue, #278CDD)"/>
<path d="M5.5 7.5C5.5 6.94772 5.94772 6.5 6.5 6.5C7.05228 6.5 7.5 6.94772 7.5 7.5C7.5 8.05228 7.05228 8.5 6.5 8.5C5.94772 8.5 5.5 8.05228 5.5 7.5Z" stroke="var(--mw-icon-glyph-content-light-blue, #278CDD)"/>
<rect x="7.5" y="12.5" width="2" height="2" rx="1" fill="white" stroke="#EDB120"/>
<rect x="0.5" y="0.5" width="16" height="16" rx="2" stroke="var(--mw-icon-border-default-gray, #616161)"/>
<circle cx="17.5" cy="17.5" r="6" fill="white" stroke="var(--mw-icon-border-default-gray, #616161)"/>
<path d="M17.5 13C18.24 13 18.9686 13.1825 19.6213 13.5314C20.2739 13.8802 20.8305 14.3846 21.2416 14.9999C21.6528 15.6152 21.9058 16.3225 21.9783 17.0589C22.0509 17.7954 21.9407 18.5384 21.6575 19.2221C21.3743 19.9058 20.9268 20.5091 20.3548 20.9785C19.7827 21.448 19.1037 21.7692 18.3779 21.9135C17.6521 22.0579 16.9019 22.0211 16.1937 21.8062C15.4856 21.5914 14.8413 21.2053 14.318 20.682L17.5 17.5V13Z" fill="var(--mw-icon-background-default-selection, #B4DEFF)"/>
<path d="M17.5 13.5V17.4998L14.5 20.5" stroke="var(--mw-icon-glyph-content-gray, #616162)" stroke-linecap="round" stroke-linejoin="round"/>
</svg>
