<svg width="24" height="24" viewBox="0 0 24 24" fill="none" xmlns="http://www.w3.org/2000/svg">
<rect x="5.5" y="5.5" width="18" height="18" rx="2" fill="var(--mw-icon-background-default-white, #FFFFFF)"/>
<path d="M5.5 20.5L23.5 10.5" stroke="#DD5400" stroke-linecap="round" stroke-linejoin="round"/>
<path d="M11.5 16.5V14.5H9.5V16.5H11.5ZM11.5 16.5H13.5V18.5H11.5M11.5 16.5V18.5M11.5 18.5H9.5V20.5H11.5V18.5ZM20.5 7.5H22.5V9.5H20.5V7.5ZM16.5 10.5H18.5V12.5H16.5V10.5ZM13.5 9.5H15.5V11.5H13.5V9.5ZM11.5 10.5H13.5V12.5H11.5V10.5ZM6.5 13.5H8.5V15.5H6.5V13.5ZM5.5 16.5H7.5V18.5H5.5V16.5ZM12.5 18.5H14.5V20.5H12.5V18.5ZM16.5 15.5H18.5V17.5H16.5V15.5ZM20.5 15.5H22.5V17.5H20.5V15.5ZM20.5 11.5H22.5V13.5H20.5V11.5Z" stroke="var(--mw-icon-glyph-disabled-gray, #888889)" stroke-linejoin="round"/>
<rect x="5.5" y="5.5" width="18" height="18" rx="2" stroke="var(--mw-icon-border-default-gray, #616161)"/>
<circle cx="6.5" cy="6.5" r="6" fill="white" stroke="var(--mw-icon-border-default-gray, #616161)"/>
<path d="M6.5 2C7.24003 2 7.96864 2.18251 8.62129 2.53135C9.27393 2.8802 9.83047 3.38462 10.2416 3.99993C10.6528 4.61525 10.9058 5.32246 10.9783 6.05892C11.0509 6.79539 10.9407 7.53838 10.6575 8.22207C10.3743 8.90577 9.92682 9.50908 9.35477 9.97855C8.78272 10.448 8.10372 10.7692 7.37791 10.9135C6.6521 11.0579 5.90188 11.0211 5.19372 10.8062C4.48556 10.5914 3.8413 10.2053 3.31802 9.68198L6.5 6.5V2Z" fill="var(--mw-icon-background-default-selection, #B4DEFF)"/>
<path d="M6.5 2.5V6.4998L3.5 9.5" stroke="var(--mw-icon-glyph-content-gray, #616162)" stroke-linecap="round" stroke-linejoin="round"/>
</svg>
