<svg width="24" height="24" viewBox="0 0 24 24" fill="none" xmlns="http://www.w3.org/2000/svg">
<path d="M11.5 4C12.7334 4 13.9477 4.30418 15.0355 4.88559C16.1232 5.467 17.0508 6.3077 17.736 7.33322C18.4213 8.35874 18.843 9.53743 18.9639 10.7649C19.0848 11.9923 18.9011 13.2306 18.4291 14.3701C17.9571 15.5096 17.2114 16.5151 16.258 17.2976C15.3045 18.08 14.1729 18.6153 12.9632 18.8559C11.7535 19.0965 10.5031 19.0351 9.32287 18.6771C8.14259 18.319 7.06883 17.6754 6.1967 16.8033L11.5 11.5V4Z" fill="var(--mw-icon-background-default-medium-gray, #D9D9D9)"/>
<path d="M12 3.5C12 3.22386 11.7761 3 11.5 3C11.2239 3 11 3.22386 11 3.5H12ZM11.5 11.5L11.8536 11.8536C11.9473 11.7598 12 11.6326 12 11.5H11.5ZM5.64645 16.6464C5.45118 16.8417 5.45118 17.1583 5.64645 17.3536C5.84171 17.5488 6.15829 17.5488 6.35355 17.3536L5.64645 16.6464ZM22 11.5C22 17.299 17.299 22 11.5 22V23C17.8513 23 23 17.8513 23 11.5H22ZM11.5 22C5.70101 22 1 17.299 1 11.5H0C0 17.8513 5.14873 23 11.5 23V22ZM1 11.5C1 5.70101 5.70101 1 11.5 1V0C5.14873 0 0 5.14873 0 11.5H1ZM11.5 1C17.299 1 22 5.70101 22 11.5H23C23 5.14873 17.8513 0 11.5 0V1ZM11 3.5V11.5H12V3.5H11ZM11.1464 11.1464L5.64645 16.6464L6.35355 17.3536L11.8536 11.8536L11.1464 11.1464Z" fill="var(--mw-icon-object-primary, #616160)"/>
</svg>
