<svg width="24" height="24" viewBox="0 0 24 24" fill="none" xmlns="http://www.w3.org/2000/svg">
<path d="M0.5 2.5C0.5 1.39543 1.39543 0.5 2.5 0.5H21.5C22.6046 0.5 23.5 1.39543 23.5 2.5V21.5C23.5 22.6046 22.6046 23.5 21.5 23.5H2.5C1.39543 23.5 0.5 22.6046 0.5 21.5V2.5Z" fill="var(--mw-icon-background-default-white, #FFFFFF)" stroke="var(--mw-icon-border-default-gray, #616161)"/>
<path d="M3.48046 4.63789C3.12511 4.99324 3.02267 7.02289 4.08454 8.08476C4.80184 8.80206 5.718 9.18797 6.62776 9.23556C7.43134 9.2776 8.2859 9.44332 8.87311 10.0305L14.0593 15.2168C14.6465 15.804 14.8123 16.6585 14.8543 17.4621C14.9019 18.3719 15.2878 19.288 16.0051 20.0053C17.067 21.0672 19.0966 20.9648 19.452 20.6094L17.0462 18.2036L17.3517 16.3771L19.1783 16.0716L21.5841 18.4773C21.9394 18.122 22.0419 16.0923 20.98 15.0304C20.2627 14.3131 19.3465 13.9272 18.4368 13.8796C17.6332 13.8376 16.7786 13.6719 16.1914 13.0847L11.0052 7.89844C10.418 7.31123 10.2523 6.45666 10.2102 5.65309C10.1626 4.74332 9.77673 3.82717 9.05943 3.10987C7.99756 2.048 5.96791 2.15044 5.61256 2.50579L8.01831 4.91154L7.71281 6.73814L5.88621 7.04364L3.48046 4.63789Z" fill="var(--mw-icon-glyph-disabled-gray, #888889)"/>
<path d="M10.4999 12.5L18.9999 4.00002L20.6424 3.01451C20.8656 2.88061 21.1193 3.13434 20.9854 3.35751L19.9999 5.00002L11.4999 13.5L10.4999 12.5Z" fill="var(--mw-icon-glyph-content-gray, #616162)"/>
<path d="M12.6463 14.6464L11.4998 13.4999L10.4998 12.4999L9.3534 11.3535C9.15814 11.1582 8.84156 11.1582 8.6463 11.3535L7.8534 12.1464C7.75853 12.2412 7.74433 12.3993 7.77719 12.5592C7.83279 12.8297 7.84156 13.1582 7.6463 13.3535L2.70696 18.2928C2.31643 18.6833 2.31643 19.3165 2.70696 19.707L4.29274 21.2928C4.68327 21.6833 5.31643 21.6833 5.70696 21.2928L10.6463 16.3535C10.8416 16.1582 11.1701 16.167 11.4406 16.2226C11.6005 16.2554 11.7585 16.2412 11.8534 16.1464L12.6463 15.3535C12.8416 15.1582 12.8416 14.8416 12.6463 14.6464Z" fill="#E11B14"/>
</svg>
