<svg width="24" height="24" viewBox="0 0 24 24" fill="none" xmlns="http://www.w3.org/2000/svg">
<path d="M0.5 2.5C0.5 1.39543 1.39543 0.5 2.5 0.5H21.5C22.6046 0.5 23.5 1.39543 23.5 2.5V21.5C23.5 22.6046 22.6046 23.5 21.5 23.5H2.5C1.39543 23.5 0.5 22.6046 0.5 21.5V2.5Z" fill="var(--mw-icon-background-default-white, #FFFFFF)" stroke="var(--mw-icon-border-default-gray, #616161)"/>
<path d="M3.48048 4.63793C3.12513 4.99328 3.02269 7.02293 4.08456 8.0848C4.80186 8.8021 5.71801 9.18801 6.62778 9.2356C7.43136 9.27764 8.28592 9.44336 8.87313 10.0306L14.0593 15.2168C14.6466 15.804 14.8123 16.6586 14.8543 17.4621C14.9019 18.3719 15.2878 19.2881 16.0051 20.0054C17.067 21.0672 19.0966 20.9648 19.452 20.6094L17.0462 18.2037L17.3517 16.3771L19.1783 16.0716L21.5841 18.4773C21.9394 18.122 22.0419 16.0923 20.98 15.0305C20.2627 14.3132 19.3466 13.9273 18.4368 13.8797C17.6332 13.8376 16.7787 13.6719 16.1914 13.0847L11.0052 7.89848C10.418 7.31127 10.2523 6.4567 10.2102 5.65313C10.1627 4.74337 9.77675 3.82721 9.05945 3.10991C7.99758 2.04804 5.96793 2.15048 5.61258 2.50583L8.01833 4.91158L7.71283 6.73818L5.88623 7.04368L3.48048 4.63793Z" fill="var(--mw-icon-glyph-content-gray, #616162)"/>
<path d="M10.4998 12.5L18.9998 4.00002L20.6424 3.01451C20.8655 2.88061 21.1193 3.13434 20.9854 3.35751L19.9998 5.00002L11.4998 13.5L12.6463 14.6465C12.8416 14.8417 12.8416 15.1583 12.6463 15.3536L11.8534 16.1465C11.7585 16.2413 11.6005 16.2555 11.4406 16.2227C11.1701 16.1671 10.8416 16.1583 10.6463 16.3536L5.70696 21.2929C5.31643 21.6834 4.68327 21.6834 4.29274 21.2929L2.70696 19.7071C2.31643 19.3166 2.31643 18.6834 2.70696 18.2929L7.6463 13.3536C7.84156 13.1583 7.83279 12.8298 7.77719 12.5593C7.74433 12.3994 7.75853 12.2413 7.8534 12.1465L8.6463 11.3536C8.84156 11.1583 9.15814 11.1583 9.3534 11.3536L10.4998 12.5Z" fill="var(--mw-icon-glyph-content-gray, #616162)"/>
</svg>
