<svg width="24" height="24" viewBox="0 0 24 24" fill="none" xmlns="http://www.w3.org/2000/svg">
<path d="M15.5 0.5H1.5C0.947715 0.5 0.5 0.947716 0.5 1.5V13.5C0.5 14.0523 0.947715 14.5 1.5 14.5H15.5C16.0523 14.5 16.5 14.0523 16.5 13.5V1.5C16.5 0.947715 16.0523 0.5 15.5 0.5Z" fill="var(--mw-icon-background-default-white, #FFFFFF)" stroke="var(--mw-icon-border-default-gray, #616161)" stroke-linecap="round"/>
<path d="M1 4.5H16" stroke="var(--mw-icon-glyph-disabled-gray, #888889)"/>
<path d="M4.5 5L4.5 14" stroke="var(--mw-icon-glyph-disabled-gray, #888889)"/>
<path d="M12.5 5L12.5 14" stroke="var(--mw-icon-glyph-disabled-gray, #888889)"/>
<path d="M6.5 3.5H10.5V5.5H6.5V3.5Z" fill="var(--mw-icon-background-default-selection, #B4DEFF)" stroke="var(--mw-icon-glyph-content-blue, #1656A8)" stroke-linejoin="round"/>
<path d="M3.5 11.5L3.5 7.5L5.5 7.5L5.5 11.5L3.5 11.5Z" fill="var(--mw-icon-background-default-selection, #B4DEFF)" stroke="var(--mw-icon-glyph-content-blue, #1656A8)" stroke-linejoin="round"/>
<path d="M11.5 11.5L11.5 7.5L13.5 7.5L13.5 11.5L11.5 11.5Z" fill="var(--mw-icon-background-default-selection, #B4DEFF)" stroke="var(--mw-icon-glyph-content-blue, #1656A8)" stroke-linejoin="round"/>
<path d="M22.5 9.5H8.5C7.94772 9.5 7.5 9.94772 7.5 10.5V22.5C7.5 23.0523 7.94772 23.5 8.5 23.5H22.5C23.0523 23.5 23.5 23.0523 23.5 22.5V10.5C23.5 9.94772 23.0523 9.5 22.5 9.5Z" fill="white" stroke="var(--mw-icon-border-default-gray, #616161)" stroke-linecap="round"/>
<path d="M8 13.5H23" stroke="var(--mw-icon-glyph-disabled-gray, #888889)"/>
<path d="M15.5 13L15.5 23" stroke="var(--mw-icon-glyph-disabled-gray, #888889)"/>
<path d="M9.5 12.5H13.5V14.5H9.5V12.5Z" fill="var(--mw-icon-background-default-selection, #B4DEFF)" stroke="var(--mw-icon-glyph-content-blue, #1656A8)" stroke-linejoin="round"/>
<path d="M17.5 12.5H21.5V14.5H17.5V12.5Z" fill="var(--mw-icon-background-default-selection, #B4DEFF)" stroke="var(--mw-icon-glyph-content-blue, #1656A8)" stroke-linejoin="round"/>
<path d="M16.5 16.5L16.5 20.5H14.5L14.5 16.5L16.5 16.5Z" fill="var(--mw-icon-background-default-selection, #B4DEFF)" stroke="var(--mw-icon-glyph-content-blue, #1656A8)" stroke-linejoin="round"/>
</svg>
