<svg width="24" height="24" viewBox="0 0 24 24" fill="none" xmlns="http://www.w3.org/2000/svg">
<path d="M21.5 0.5H2.5C1.39543 0.5 0.5 1.39543 0.5 2.5V20.5C0.5 21.6046 1.39543 22.5 2.5 22.5H21.5C22.6046 22.5 23.5 21.6046 23.5 20.5V2.5C23.5 1.39543 22.6046 0.5 21.5 0.5Z" fill="var(--mw-icon-background-default-white, #FFFFFF)" stroke="var(--mw-icon-border-default-gray, #616161)" stroke-linecap="round"/>
<path d="M1 5.5H23" stroke="var(--mw-icon-glyph-disabled-gray, #888889)"/>
<path d="M4.5 6L4.5 22" stroke="var(--mw-icon-glyph-disabled-gray, #888889)"/>
<path d="M19.5 6L19.5 22" stroke="var(--mw-icon-glyph-disabled-gray, #888889)"/>
<path d="M8.5 3.5H15.5V7.5H8.5V3.5Z" fill="var(--mw-icon-background-default-selection, #B4DEFF)" stroke="var(--mw-icon-glyph-content-blue, #1656A8)" stroke-linejoin="round"/>
<path d="M2.5 18.5L2.5 11.5L6.5 11.5L6.5 18.5H2.5Z" fill="var(--mw-icon-background-default-selection, #B4DEFF)" stroke="var(--mw-icon-glyph-content-blue, #1656A8)" stroke-linejoin="round"/>
<path d="M17.5 18.5L17.5 11.5L21.5 11.5L21.5 18.5H17.5Z" fill="var(--mw-icon-background-default-selection, #B4DEFF)" stroke="var(--mw-icon-glyph-content-blue, #1656A8)" stroke-linejoin="round"/>
</svg>
