<svg width="24" height="24" viewBox="0 0 24 24" fill="none" xmlns="http://www.w3.org/2000/svg">
<path d="M8.5 13.5L18.5 23.5L11.5 4.5L4.5 23.5L14.5 13.5M8.5 13.5H14.5M8.5 13.5L13 9M14.5 13.5L10 9" stroke="var(--mw-icon-object-primary, #616160)" stroke-linecap="round" stroke-linejoin="round"/>
<circle cx="11.5" cy="4.5" r="2" fill="var(--mw-icon-background-medium-blue, #83CAFF)" stroke="var(--mw-icon-glyph-content-blue, #1656A8)"/>
<path d="M15.5 2.50019C15.5 2.50019 16.5 3.23705 16.5 4.50021C16.5 5.76336 15.5 6.50019 15.5 6.50019M18.5 1.5C18.5 1.5 19.5 2.60544 19.5 4.50018C19.5 6.39492 18.5 7.5 18.5 7.5M7.5 2.50019C7.5 2.50019 6.5 3.23705 6.5 4.50021C6.5 5.76336 7.5 6.50019 7.5 6.50019M4.5 1.5C4.5 1.5 3.5 2.60544 3.5 4.50018C3.5 6.39492 4.5 7.5 4.5 7.5" stroke="var(--mw-icon-object-primary, #616160)" stroke-linecap="round" stroke-linejoin="round"/>
</svg>
