<svg width="24" height="24" viewBox="0 0 24 24" fill="none" xmlns="http://www.w3.org/2000/svg">
<rect x="1" y="1" width="21" height="21" fill="var(--mw-icon-background-default-white, #FFFFFF)"/>
<path d="M2.5 18.5H3.5M3.5 18.5H4.5M3.5 18.5V17.5M3.5 18.5V19.5M6.5 18.5H7.5M7.5 18.5H8.5M7.5 18.5V17.5M7.5 18.5V19.5M10.5 17.5H11.5M11.5 17.5H12.5M11.5 17.5V16.5M11.5 17.5V18.5M13.5 15.5H14.5M14.5 15.5H15.5M14.5 15.5V14.5M14.5 15.5V16.5M16.5 12.5H17.5M17.5 12.5H18.5M17.5 12.5V11.5M17.5 12.5V13.5M17.5 8.5H18.5M18.5 8.5H19.5M18.5 8.5V7.5M18.5 8.5V9.5M18.5 4.5H19.5M19.5 4.5H20.5M19.5 4.5V3.5M19.5 4.5V5.5" stroke="#0072BD" stroke-linecap="round"/>
<rect x="0.5" y="0.5" width="22" height="22" rx="2" stroke="var(--mw-icon-border-default-gray, #616161)"/>
</svg>
