<svg width="24" height="24" viewBox="0 0 24 24" fill="none" xmlns="http://www.w3.org/2000/svg">
<rect x="0.5" y="0.5" width="18" height="18" rx="9" fill="var(--mw-icon-background-default-selection, #B4DEFF)" stroke="var(--mw-icon-border-default-blue, #1656A7)"/>
<path d="M0.75 10H18.25V9H0.75V10ZM9 0.75L9 18.25H10L10 0.75L9 0.75ZM13.5 9.5C13.5 11.9245 13.0076 14.0947 12.2348 15.6404C11.447 17.2159 10.4512 18 9.5 18V19C11.0341 19 12.2883 17.7694 13.1292 16.0876C13.9851 14.3758 14.5 12.0461 14.5 9.5H13.5ZM9.5 18C8.54877 18 7.553 17.2159 6.76523 15.6404C5.99242 14.0947 5.5 11.9245 5.5 9.5H4.5C4.5 12.0461 5.01494 14.3758 5.87081 16.0876C6.71172 17.7694 7.96595 19 9.5 19V18ZM5.5 9.5C5.5 7.07551 5.99242 4.90527 6.76523 3.35965C7.553 1.78412 8.54877 1 9.5 1V0C7.96595 0 6.71172 1.2306 5.87081 2.91243C5.01494 4.62417 4.5 6.95393 4.5 9.5H5.5ZM9.5 1C10.4512 1 11.447 1.78412 12.2348 3.35965C13.0076 4.90527 13.5 7.07551 13.5 9.5H14.5C14.5 6.95393 13.9851 4.62417 13.1292 2.91243C12.2883 1.2306 11.0341 0 9.5 0V1ZM9.5 13.5C7.07551 13.5 4.90527 13.0076 3.35965 12.2348C1.78412 11.447 1 10.4512 1 9.5H0C-5.96046e-08 11.0341 1.2306 12.2883 2.91243 13.1292C4.62417 13.9851 6.95393 14.5 9.5 14.5V13.5ZM1 9.5C1 8.54877 1.78412 7.553 3.35965 6.76523C4.90527 5.99242 7.07551 5.5 9.5 5.5V4.5C6.95393 4.5 4.62417 5.01494 2.91243 5.87081C1.2306 6.71172 5.96046e-08 7.96594 0 9.5H1ZM9.5 5.5C11.9245 5.5 14.0947 5.99242 15.6404 6.76523C17.2159 7.553 18 8.54877 18 9.5H19C19 7.96595 17.7694 6.71172 16.0876 5.87081C14.3758 5.01494 12.0461 4.5 9.5 4.5V5.5ZM18 9.5C18 10.4512 17.2159 11.447 15.6404 12.2348C14.0947 13.0076 11.9245 13.5 9.5 13.5V14.5C12.0461 14.5 14.3758 13.9851 16.0876 13.1292C17.7694 12.2883 19 11.0341 19 9.5H18Z" fill="var(--mw-icon-border-default-blue, #1656A7)"/>
<path d="M8.5 10.5C8.5 9.39543 9.39543 8.5 10.5 8.5H20.5C21.6046 8.5 22.5 9.39543 22.5 10.5V20.5C22.5 21.6046 21.6046 22.5 20.5 22.5H10.5C9.39543 22.5 8.5 21.6046 8.5 20.5V10.5Z" fill="var(--mw-icon-background-default-white, #FFFFFF)"/>
<path d="M16.0001 17.0667V20.2667L21.8667 15.4667L16.0001 10.6667L16.0001 13.8667H14.9334C12.577 13.8667 10.6667 15.7769 10.6667 18.1333L10.6667 22.9333C10.6667 20.5769 12.0437 17.0667 14.4001 17.0667H16.0001Z" fill="var(--mw-icon-background-default-action, #CBFFBE)" stroke="var(--mw-icon-border-default-green, #008013)" stroke-linecap="square"/>
<path d="M8.5 10.5C8.5 9.39543 9.39543 8.5 10.5 8.5H20.5C21.6046 8.5 22.5 9.39543 22.5 10.5V20.5C22.5 21.6046 21.6046 22.5 20.5 22.5H10.5C9.39543 22.5 8.5 21.6046 8.5 20.5V10.5Z" stroke="var(--mw-icon-border-default-gray, #616161)"/>
</svg>
