<svg width="24" height="24" viewBox="0 0 24 24" fill="none" xmlns="http://www.w3.org/2000/svg">
<path d="M0.5 18.5V4.5C0.5 2.29086 2.29086 0.5 4.5 0.5H18.5C20.7091 0.5 22.5 2.29086 22.5 4.5V18.5C22.5 20.7091 20.7091 22.5 18.5 22.5H4.5C2.29086 22.5 0.5 20.7091 0.5 18.5Z" fill="#00A3A3"/>
<path d="M0.5 18.5V4.5C0.5 2.29086 2.29086 0.5 4.5 0.5H18.5C20.7091 0.5 22.5 2.29086 22.5 4.5V18.5C22.5 20.7091 20.7091 22.5 18.5 22.5H4.5C2.29086 22.5 0.5 20.7091 0.5 18.5Z" stroke="#02555C" stroke-linecap="round"/>
<path d="M17.5 21.5C17.5 14 8 6.5 1.5 6.5" stroke="var(--mw-icon-background-default-white, #FFFFFF)" stroke-linecap="square" stroke-dasharray="2 2"/>
<path d="M7.50323 11.5C7.49997 13 7.99997 15.5 11.5 15.5" stroke="white" stroke-linecap="round"/>
<path d="M7.50323 11.5C7.49997 13 7.99997 15.5 11.5 15.5" stroke="white" stroke-linecap="round"/>
<path d="M4.56763 11.5C4.56763 15 5.9324 18.5 11.5 18.5" stroke="white" stroke-linecap="round"/>
<path d="M17 8.5C17 9.88071 15.8807 11 14.5 11C13.1193 11 12 9.88071 12 8.5C12 7.11929 13.1193 6 14.5 6C15.8807 6 17 7.11929 17 8.5Z" fill="var(--mw-icon-background-default-white, #FFFFFF)"/>
<path d="M16.3536 11.6464C16.1583 11.8417 16.1583 12.1583 16.3536 12.3536L18.6464 14.6464C18.8417 14.8417 19.1583 14.8417 19.3536 14.6464L20.6464 13.3536C20.8417 13.1583 20.8417 12.8417 20.6464 12.6464L18.3536 10.3536C18.1583 10.1583 17.8417 10.1583 17.6464 10.3536L16.3536 11.6464Z" fill="white"/>
<path d="M8.35355 3.64645C8.15829 3.84171 8.15829 4.15829 8.35355 4.35355L10.6464 6.64645C10.8417 6.84171 11.1583 6.84171 11.3536 6.64645L12.6464 5.35355C12.8417 5.15829 12.8417 4.84171 12.6464 4.64645L10.3536 2.35355C10.1583 2.15829 9.84171 2.15829 9.64645 2.35355L8.35355 3.64645Z" fill="white"/>
</svg>
