<svg width="24" height="24" viewBox="0 0 24 24" fill="none" xmlns="http://www.w3.org/2000/svg">
<path d="M14.5 0.5H2.5C1.39543 0.5 0.5 1.39543 0.5 2.5V15.5C0.5 16.6046 1.39543 17.5 2.5 17.5H14.5C15.6046 17.5 16.5 16.6046 16.5 15.5V2.5C16.5 1.39543 15.6046 0.5 14.5 0.5Z" fill="var(--mw-icon-background-default-white, #FFFFFF)" stroke="var(--mw-icon-border-default-gray, #616161)"/>
<path d="M8.5 9.5H11.5V11.5M8.5 9.5V7.5M8.5 9.5H5.5V11.5" stroke="var(--mw-icon-glyph-content-gray, #616162)" stroke-linecap="square" stroke-linejoin="round"/>
<path d="M14.5 15.5V12.5H8.5V15.5H14.5Z" fill="var(--mw-icon-background-medium-blue, #83CAFF)"/>
<path d="M8.5 15.5V12.5H2.5V15.5H8.5Z" fill="var(--mw-icon-background-medium-blue, #83CAFF)"/>
<path d="M8.5 12.5H14.5V15.5H8.5M8.5 12.5V15.5M8.5 12.5H2.5V15.5H8.5" stroke="var(--mw-icon-glyph-content-blue, #1656A8)" stroke-linecap="square" stroke-linejoin="round"/>
<path d="M12.5 6.5V2.5H4.5V6.5H12.5Z" fill="var(--mw-icon-background-medium-blue, #83CAFF)" stroke="var(--mw-icon-glyph-content-blue, #1656A8)" stroke-linecap="square" stroke-linejoin="round"/>
<path d="M8.5 18.5V13.5L14.5 13.5V9.5L22.5 16L14.5 22.5L14.5 18.5H8.5Z" fill="var(--mw-icon-background-default-action, #CBFFBE)"/>
<path d="M8.5 18.5V13.5L14.5 13.5V9.5L22.5 16L14.5 22.5L14.5 18.5H8.5Z" stroke="var(--mw-icon-glyph-content-green, #008014)"/>
</svg>
