<svg width="24" height="24" viewBox="0 0 24 24" fill="none" xmlns="http://www.w3.org/2000/svg">
<path d="M14.5 0.5H2.5C1.39543 0.5 0.5 1.39543 0.5 2.5V16.5C0.5 17.6046 1.39543 18.5 2.5 18.5H14.5C15.6046 18.5 16.5 17.6046 16.5 16.5V2.5C16.5 1.39543 15.6046 0.5 14.5 0.5Z" fill="var(--mw-icon-background-default-white, #FFFFFF)" stroke="var(--mw-icon-border-default-gray, #616161)" stroke-linecap="round"/>
<path d="M9.5 9.5H13.5M6.5 6.5H10.5M3.5 3.5H7.5M6.5 12.5H10.5M3.5 15.5H7.5" stroke="var(--mw-icon-glyph-content-gray, #616162)" stroke-linecap="round"/>
<rect x="1" y="5" width="15" height="3" fill="var(--mw-icon-background-default-selection, #B4DEFF)"/>
<path d="M6.5 6.5H10.5" stroke="var(--mw-icon-glyph-content-yellow, #674C07)" stroke-linecap="round"/>
<path d="M8.5 18.5V13.5L14.5 13.5V9.5L22.5 16L14.5 22.5L14.5 18.5H8.5Z" fill="var(--mw-icon-background-default-action, #CBFFBE)"/>
<path d="M8.5 18.5V13.5L14.5 13.5V9.5L22.5 16L14.5 22.5L14.5 18.5H8.5Z" stroke="var(--mw-icon-glyph-content-green, #008014)"/>
</svg>
