<svg width="24" height="24" viewBox="0 0 24 24" fill="none" xmlns="http://www.w3.org/2000/svg">
<path d="M5.5 11.5H23.5V16.5C23.5 17.6046 22.6046 18.5 21.5 18.5H7.5C6.39543 18.5 5.5 17.6046 5.5 16.5V11.5Z" fill="var(--mw-icon-background-default-medium-gray, #D9D9D9)" stroke="var(--mw-icon-border-default-gray, #616161)"/>
<path d="M7 14C7 13.4477 7.44772 13 8 13V13C8.55228 13 9 13.4477 9 14V14C9 14.5523 8.55228 15 8 15V15C7.44772 15 7 14.5523 7 14V14Z" fill="var(--mw-icon-glyph-content-green, #008014)"/>
<path d="M11.5 13.5H19.5M11.5 15.5H16.5" stroke="var(--mw-icon-glyph-content-gray, #616162)" stroke-linecap="round"/>
<path d="M5.5 11.5833H23.5V1.50001C23.5 0.947724 23.0523 0.50001 22.5 0.50001H6.5C5.94772 0.50001 5.5 0.947725 5.5 1.50001V11.5833Z" fill="var(--mw-icon-background-default-white, #FFFFFF)"/>
<path d="M5.5 6.4998C8.53472 1.22202 11.4653 1.22222 14.5 6.5C17 10.5001 20.4653 10.7776 23.5 5.49977" stroke="#0072BD" stroke-linecap="round"/>
<path d="M5.5 11.4998H23.5V2.50001C23.5 1.39544 22.6046 0.50001 21.5 0.50001H7.5C6.39543 0.50001 5.5 1.39544 5.5 2.50001V11.4998Z" stroke="var(--mw-icon-border-default-gray, #616161)"/>
<path d="M0.5 13.5V18.5H4.5V22.5L13.5 16L4.5 9.5V13.5H0.5Z" fill="var(--mw-icon-background-default-action, #CBFFBE)"/>
<path d="M0.5 13.5V18.5H4.5V22.5L13.5 16L4.5 9.5V13.5H0.5Z" stroke="var(--mw-icon-border-default-green, #008013)"/>
</svg>
