<svg width="24" height="24" viewBox="0 0 24 24" fill="none" xmlns="http://www.w3.org/2000/svg">
<path d="M0.5 2.5C0.5 1.39543 1.39543 0.5 2.5 0.5H20.5C21.6046 0.5 22.5 1.39543 22.5 2.5V20.5C22.5 21.6046 21.6046 22.5 20.5 22.5H2.5C1.39543 22.5 0.5 21.6046 0.5 20.5V2.5Z" fill="var(--mw-icon-background-default-light-gray, #F5F5F5)" stroke="var(--mw-icon-border-default-gray, #616161)"/>
<path d="M5.5 8V12.5M13 18.5H6.5C5.94772 18.5 5.5 18.0523 5.5 17.5V12.5M5.5 12.5H13" stroke="var(--mw-icon-background-default-dark-gray, #A6A6A6)"/>
<path d="M16.0967 20.1444C16.2657 20.1444 16.4175 20.1102 16.5521 20.0419C16.6896 19.9706 16.7999 19.8725 16.8829 19.7478C16.9689 19.623 17.0161 19.4789 17.0247 19.3155H18C17.9943 19.6275 17.9055 19.9112 17.7336 20.1667C17.5618 20.4222 17.334 20.6257 17.0505 20.7772C16.7669 20.9257 16.4533 21 16.1096 21C15.7544 21 15.445 20.9376 15.1815 20.8128C14.918 20.6851 14.6989 20.5098 14.5242 20.287C14.3494 20.0642 14.2177 19.8072 14.1289 19.516C14.043 19.2249 14 18.913 14 18.5802V18.4242C14 18.0915 14.043 17.7796 14.1289 17.4884C14.2177 17.1943 14.3494 16.9358 14.5242 16.713C14.6989 16.4902 14.918 16.3164 15.1815 16.1916C15.445 16.0639 15.753 16 16.1053 16C16.4776 16 16.8042 16.0772 17.0849 16.2317C17.3656 16.3832 17.5861 16.5957 17.7465 16.869C17.9098 17.1393 17.9943 17.4542 18 17.8137H17.0247C17.0161 17.6355 16.9731 17.475 16.8958 17.3324C16.8213 17.1869 16.7154 17.071 16.5779 16.9848C16.4433 16.8987 16.2814 16.8556 16.0924 16.8556C15.8833 16.8556 15.71 16.9002 15.5725 16.9893C15.435 17.0755 15.3276 17.1943 15.2503 17.3458C15.1729 17.4944 15.1171 17.6622 15.0827 17.8494C15.0512 18.0336 15.0354 18.2252 15.0354 18.4242V18.5802C15.0354 18.7793 15.0512 18.9724 15.0827 19.1595C15.1142 19.3467 15.1686 19.5146 15.246 19.6631C15.3262 19.8087 15.435 19.926 15.5725 20.0152C15.71 20.1013 15.8847 20.1444 16.0967 20.1444Z" fill="var(--mw-icon-glyph-content-gray, #616162)"/>
<path fill-rule="evenodd" clip-rule="evenodd" d="M15.018 8H14V14.91H14.9208L14.971 14.3727C15.1109 14.5684 15.2814 14.7205 15.4826 14.829C15.6938 14.943 15.9416 15 16.226 15C16.516 15 16.7709 14.94 16.9905 14.8201C17.213 14.6971 17.3988 14.5246 17.548 14.3027C17.7001 14.0808 17.8127 13.8198 17.886 13.5199C17.962 13.217 18 12.8856 18 12.5257V12.4312C18 12.0653 17.962 11.7309 17.886 11.428C17.8127 11.1251 17.7015 10.8642 17.5523 10.6452C17.403 10.4233 17.2158 10.2524 16.9905 10.1324C16.768 10.0124 16.5104 9.95244 16.2175 9.95244C15.9359 9.95244 15.6895 10.0094 15.4784 10.1234C15.3016 10.2201 15.1481 10.3524 15.018 10.5203V8ZM15.018 13.4809V11.4596C15.0611 11.3623 15.1132 11.2738 15.1742 11.1941C15.2615 11.0801 15.3699 10.9901 15.4995 10.9242C15.629 10.8582 15.7839 10.8252 15.9641 10.8252C16.1584 10.8252 16.3203 10.8687 16.4498 10.9557C16.5822 11.0396 16.6864 11.1551 16.7624 11.3021C16.8413 11.449 16.8976 11.62 16.9314 11.8149C16.9652 12.0069 16.982 12.2123 16.982 12.4312V12.5257C16.982 12.7506 16.9637 12.9606 16.9271 13.1555C16.8933 13.3505 16.837 13.5214 16.7582 13.6684C16.6822 13.8123 16.5794 13.9248 16.4498 14.0058C16.3203 14.0868 16.1612 14.1272 15.9725 14.1272C15.7332 14.1272 15.5375 14.0718 15.3854 13.9608C15.2334 13.8468 15.1151 13.6969 15.0306 13.5109C15.0263 13.501 15.0221 13.491 15.018 13.4809Z" fill="var(--mw-icon-glyph-content-gray, #616162)"/>
<path fill-rule="evenodd" clip-rule="evenodd" d="M5.81798 6.43495C5.77695 6.48144 5.73272 6.52718 5.68528 6.57219C5.55353 6.69697 5.39456 6.79947 5.20838 6.87968C5.02506 6.95989 4.8131 7 4.5725 7C4.26889 7 3.99821 6.93761 3.76047 6.81283C3.52274 6.68509 3.33656 6.51426 3.20193 6.30036C3.06731 6.08348 3 5.83838 3 5.56506C3 5.30957 3.04583 5.08378 3.13749 4.8877C3.23201 4.68865 3.3695 4.52228 3.54995 4.38859C3.73326 4.2549 3.95668 4.15389 4.22019 4.08556C4.48371 4.01426 4.78446 3.97861 5.12245 3.97861H5.7841V3.64438C5.7841 3.47207 5.75403 3.32353 5.69388 3.19875C5.63373 3.07397 5.54207 2.97742 5.4189 2.90909C5.2986 2.84076 5.1468 2.8066 4.96348 2.8066C4.79449 2.8066 4.64841 2.8363 4.52524 2.89572C4.40208 2.95514 4.30612 3.03535 4.23738 3.13636C4.16864 3.23737 4.13426 3.35175 4.13426 3.4795H3.10311C3.10311 3.28936 3.14751 3.10517 3.23631 2.92692C3.3251 2.74866 3.45399 2.58972 3.62299 2.45009C3.79198 2.31046 3.99391 2.20053 4.22879 2.12032C4.46366 2.04011 4.72717 2 5.01933 2C5.36878 2 5.67812 2.0609 5.94737 2.18271C6.21948 2.30452 6.43287 2.48871 6.58754 2.73529C6.74508 2.97891 6.82385 3.28491 6.82385 3.6533V5.79679C6.82385 6.01664 6.83817 6.2142 6.86681 6.38948C6.89832 6.56179 6.94271 6.71182 7 6.83957V6.91087H5.93878C5.89008 6.79501 5.85141 6.64795 5.82277 6.4697C5.82112 6.45809 5.81952 6.44651 5.81798 6.43495ZM5.7841 5.54971C5.7631 5.59263 5.73732 5.63636 5.70677 5.68093C5.61511 5.81165 5.48908 5.92305 5.32868 6.01515C5.17114 6.10428 4.98639 6.14884 4.77444 6.14884C4.6169 6.14884 4.48228 6.11913 4.37057 6.05971C4.26173 6.0003 4.17866 5.9186 4.12137 5.81462C4.06409 5.70766 4.03545 5.59031 4.03545 5.46257C4.03545 5.33482 4.05979 5.22044 4.10849 5.11943C4.15718 5.01842 4.23022 4.93226 4.3276 4.86096C4.42499 4.78966 4.54672 4.73619 4.6928 4.70053C4.83888 4.66191 5.00788 4.6426 5.19979 4.6426H5.7841V5.54971Z" fill="var(--mw-icon-glyph-content-gray, #616162)"/>
</svg>
