<svg width="24" height="24" viewBox="0 0 24 24" fill="none" xmlns="http://www.w3.org/2000/svg">
<path d="M22 1H10V22H22V1Z" fill="var(--mw-icon-background-default-white, #FFFFFF)"/>
<path d="M22.5 12.5604C20.7967 18.4504 19.2492 17.7161 17.6214 10.4905C15.822 2.50317 14.0226 2.50317 12.2232 10.4905C11.389 14.1937 10.5547 16.18 9.72043 16.4493M9.72043 16.4493C9.64695 16.473 9.57348 16.4834 9.5 16.4805L9.72043 16.4493Z" stroke="#0072BD"/>
<path d="M0.998962 22H8.99896V11.5V1H0.998962V11.5V22Z" fill="white"/>
<path d="M8.9826 22H9.98056V1H8.9826V22Z" fill="var(--mw-icon-glyph-content-gray, #616162)"/>
<path d="M9 11V12H4V11H9Z" fill="var(--mw-icon-glyph-content-gray, #616162)"/>
<path d="M4 14L1 11.5L4 9V14Z" fill="var(--mw-icon-glyph-content-gray, #616162)"/>
<path d="M0.5 2.5C0.5 1.39543 1.39543 0.5 2.5 0.5H20.4549C21.5595 0.5 22.4549 1.39543 22.4549 2.5V20.5C22.4549 21.6046 21.5595 22.5 20.4549 22.5H2.5C1.39543 22.5 0.5 21.6046 0.5 20.5V2.5Z" stroke="var(--mw-icon-border-default-gray, #616161)" stroke-linejoin="round"/>
</svg>
