<svg width="24" height="24" viewBox="0 0 24 24" fill="none" xmlns="http://www.w3.org/2000/svg">
<path d="M3.5 1.5C3.5 0.947715 3.94772 0.5 4.5 0.5H18.5C19.0523 0.5 19.5 0.947715 19.5 1.5V18.5C19.5 19.0523 19.0523 19.5 18.5 19.5H4.5C3.94772 19.5 3.5 19.0523 3.5 18.5V1.5Z" fill="var(--mw-icon-background-default-medium-gray, #D9D9D9)" stroke="var(--mw-icon-border-default-gray, #616161)"/>
<path d="M3.50049 20C3.50049 19.4477 3.9482 19 4.50049 19H6.50049C7.05277 19 7.50049 19.4477 7.50049 20V23C7.50049 23.5523 7.05277 24 6.50049 24H4.50049C3.9482 24 3.50049 23.5523 3.50049 23V20Z" fill="var(--mw-icon-glyph-disabled-gray, #888889)"/>
<path d="M15.4995 20C15.4995 19.4477 15.9472 19 16.4995 19H18.4995C19.0518 19 19.4995 19.4477 19.4995 20V23C19.4995 23.5523 19.0518 24 18.4995 24H16.4995C15.9472 24 15.4995 23.5523 15.4995 23V20Z" fill="var(--mw-icon-glyph-disabled-gray, #888889)"/>
<path d="M5.50186 12.5002H17.5019L17.5 14.5L18.9474 15.2237C19.2861 15.3931 19.5001 15.7391 19.5002 16.1178L19.5019 20.5002L19.5 20.5L3.50186 20.5002L3.50023 16.1183C3.50009 15.7394 3.71411 15.3929 4.05302 15.2235L5.5 14.5L5.50186 12.5002Z" fill="var(--mw-icon-background-default-selection, #B4DEFF)"/>
<path d="M5.50186 12.5002V12.0002H5.00233L5.00186 12.4998L5.50186 12.5002ZM17.5019 12.5002L18.0019 12.5007L18.0023 12.0002H17.5019V12.5002ZM19.5019 20.5002L19.4368 20.996C19.5796 21.0147 19.7235 20.971 19.8317 20.876C19.9399 20.781 20.0019 20.644 20.0019 20.5001L19.5019 20.5002ZM3.50186 20.5002L3.00186 20.5004C3.00196 20.7765 3.2258 21.0002 3.50187 21.0002L3.50186 20.5002ZM17.5 14.5L17 14.4995C16.9998 14.6891 17.1069 14.8624 17.2764 14.9472L17.5 14.5ZM5.5 14.5L5.72361 14.9472C5.89285 14.8626 5.99982 14.6897 6 14.5005L5.5 14.5ZM19.5 20.5L19.565 20.0042L19.5326 20L19.5 20L19.5 20.5ZM18.9474 15.2237L19.1711 14.7765L18.9474 15.2237ZM19.5002 16.1178L20.0002 16.1176L19.5002 16.1178ZM4.05302 15.2235L3.82941 14.7763L4.05302 15.2235ZM5.50186 13.0002H17.5019V12.0002H5.50186V13.0002ZM17.0019 12.4998L17 14.4995L18 14.5005L18.0019 12.5007L17.0019 12.4998ZM6 14.5005L6.00186 12.5007L5.00186 12.4998L5 14.4995L6 14.5005ZM4.00186 20.5001L4.00023 16.1181L3.00023 16.1185L3.00186 20.5004L4.00186 20.5001ZM4.27662 15.6707L5.72361 14.9472L5.27639 14.0528L3.82941 14.7763L4.27662 15.6707ZM17.2764 14.9472L18.7238 15.6709L19.1711 14.7765L17.7236 14.0528L17.2764 14.9472ZM19.0002 16.118L19.0019 20.5004L20.0019 20.5001L20.0002 16.1176L19.0002 16.118ZM19.5669 20.0045L19.565 20.0042L19.435 20.9958L19.4368 20.996L19.5669 20.0045ZM19.5 20L3.50185 20.0002L3.50187 21.0002L19.5 21L19.5 20ZM18.7238 15.6709C18.8932 15.7556 19.0002 15.9286 19.0002 16.118L20.0002 16.1176C20 15.5496 19.679 15.0305 19.1711 14.7765L18.7238 15.6709ZM4.00023 16.1181C4.00016 15.9287 4.10717 15.7554 4.27662 15.6707L3.82941 14.7763C3.32105 15.0305 3.00002 15.5501 3.00023 16.1185L4.00023 16.1181Z" fill="var(--mw-icon-glyph-content-blue, #1656A8)"/>
<path d="M20.5 19.5H2.5V20.5H20.5V19.5Z" fill="var(--mw-icon-glyph-content-blue, #1656A8)" stroke="var(--mw-icon-glyph-content-blue, #1656A8)" stroke-linejoin="round"/>
<path d="M5.50195 8.50024H17.502V12.0002C17.502 12.2764 17.2781 12.5002 17.002 12.5002H6.00195C5.72581 12.5002 5.50195 12.2764 5.50195 12.0002V8.50024Z" fill="var(--mw-icon-background-default-light-gray, #F5F5F5)" stroke="var(--mw-icon-glyph-content-blue, #1656A8)" stroke-linejoin="round"/>
<path d="M6.27403 6.18402C6.41014 5.77567 6.79228 5.50024 7.22271 5.50024H15.7812C16.2116 5.50024 16.5938 5.77567 16.7299 6.18402L17.502 8.50024H5.50195L6.27403 6.18402Z" fill="var(--mw-icon-background-default-selection, #B4DEFF)" stroke="var(--mw-icon-glyph-content-blue, #1656A8)" stroke-linejoin="round"/>
<path d="M14.5 14.5H8.5V19.5H14.5V14.5Z" fill="var(--mw-icon-glyph-content-blue, #1656A8)" stroke="var(--mw-icon-glyph-content-blue, #1656A8)" stroke-linejoin="round"/>
<path d="M3.5 19.5V17.5H6.5V19.5H3.5Z" fill="var(--mw-icon-background-default-light-gray, #F5F5F5)" stroke="var(--mw-icon-glyph-content-blue, #1656A8)" stroke-linejoin="round"/>
<path d="M19.5 19.5V17.5H16.5V19.5H19.5Z" fill="var(--mw-icon-background-default-light-gray, #F5F5F5)" stroke="var(--mw-icon-glyph-content-blue, #1656A8)" stroke-linejoin="round"/>
</svg>
