<svg width="24" height="24" viewBox="0 0 24 24" fill="none" xmlns="http://www.w3.org/2000/svg">
<rect x="0.5" y="0.5" width="22" height="22" rx="2" fill="var(--mw-icon-background-default-white, #FFFFFF)"/>
<path d="M0.5 6.5H8.5V17.5H15.5V11.5H22.5" stroke="#EDB120" stroke-linecap="round" stroke-linejoin="round"/>
<path d="M0.5 3.5C2 3.5 1.49999 9.5 2.49999 9.5C3.49999 9.5 3.75352 2.5 5.5 2.5C8 2.5 7 20.5 9.5 20.5C12 20.5 11 15.5 12.5 18.5C14 21.5 13.3396 6.13664 16.5 9C17.9251 10.2912 17.5 13.5 18.5 13.5C19.908 13.5 19.0919 9.5 20.5 9.5C21.908 9.5 21 13 22.5 13.5" stroke="#1171BE" stroke-linecap="round" stroke-linejoin="round"/>
<rect x="0.5" y="0.5" width="22" height="22" rx="2" stroke="var(--mw-icon-border-default-gray, #616161)"/>
</svg>
