<svg width="24" height="24" viewBox="0 0 24 24" fill="none" xmlns="http://www.w3.org/2000/svg">
<rect x="0.5" y="0.5" width="22" height="22" rx="2" fill="var(--mw-icon-background-default-white, #FFFFFF)"/>
<rect x="0.5" y="0.5" width="22" height="22" rx="2" stroke="var(--mw-icon-border-default-gray, #616161)"/>
<path d="M2.72896 14.1469L4.2525 7.93182C4.36377 7.46853 4.64622 6.96154 5.02282 6.56818C5.3224 6.2535 5.70756 6 6.23823 6C6.75178 6 7 6.28846 7 6.65559C7 6.9965 6.76034 7.34615 6.33238 7.34615C6.14408 7.34615 5.9301 7.18881 5.9301 6.94406C5.9301 6.68182 6.1612 6.57692 6.1612 6.46329C6.1612 6.38462 6.05849 6.36713 6.01569 6.36713C5.71612 6.36713 5.48502 6.98776 5.27104 7.84441L3.7475 14.0594C3.63623 14.5227 3.39658 15.0297 3.01997 15.4231C2.7204 15.7378 2.29244 16 1.76177 16C1.24822 16 1 15.7028 1 15.3357C1 14.9948 1.23966 14.6451 1.66762 14.6451C1.85592 14.6451 2.0699 14.8024 2.0699 15.0472C2.0699 15.3094 1.8388 15.4143 1.8388 15.528C1.8388 15.6066 1.94151 15.6329 1.98431 15.6329C2.28388 15.6329 2.52354 15.0035 2.72896 14.1469Z" fill="#1171BE"/>
<path d="M9 9.0759L6.94891 11.6186C7.23358 11.7476 7.39416 11.8843 7.57664 12.1423C7.72993 12.3624 7.86131 12.7799 8.07299 12.7799C8.16788 12.7799 8.23358 12.7192 8.23358 12.6509C8.23358 12.5294 8.08759 12.5218 8.08759 12.3093C8.08759 12.0968 8.25547 11.907 8.45255 11.907C8.65693 11.907 8.83942 12.0968 8.83942 12.3093C8.83942 12.7799 8.48175 13 8.0365 13C7.73723 13 7.45255 12.8861 7.09489 12.6205C6.83942 12.4307 6.70073 12.37 6.55474 12.37C6.47445 12.37 6.43066 12.3928 6.32117 12.4763C6.27737 12.5142 6.23358 12.5522 6.18248 12.5825L6 12.4156L8.13139 9.72865H7.13869C6.86861 9.72865 6.71533 9.83491 6.60584 10.1917L6.40876 10.1689L6.72993 9H9V9.0759Z" fill="#1171BE"/>
<path d="M17 9.0759L14.9489 11.6186C15.2336 11.7476 15.3942 11.8843 15.5766 12.1423C15.7299 12.3624 15.8613 12.7799 16.073 12.7799C16.1679 12.7799 16.2336 12.7192 16.2336 12.6509C16.2336 12.5294 16.0876 12.5218 16.0876 12.3093C16.0876 12.0968 16.2555 11.907 16.4526 11.907C16.6569 11.907 16.8394 12.0968 16.8394 12.3093C16.8394 12.7799 16.4818 13 16.0365 13C15.7372 13 15.4526 12.8861 15.0949 12.6205C14.8394 12.4307 14.7007 12.37 14.5547 12.37C14.4745 12.37 14.4307 12.3928 14.3212 12.4763C14.2774 12.5142 14.2336 12.5522 14.1825 12.5825L14 12.4156L16.1314 9.72865H15.1387C14.8686 9.72865 14.7153 9.83491 14.6058 10.1917L14.4088 10.1689L14.7299 9H17V9.0759Z" fill="#1171BE"/>
<path d="M11 8L10.8802 8.86099L10.7903 8.85202C10.7903 8.34081 10.6639 8.15695 10.3311 8.15695L9.88186 10.3498C9.85857 10.4574 9.82529 10.5874 9.82529 10.6816C9.82529 10.8117 9.90183 10.8879 10.1015 10.8879V11H9V10.8879H9.04992C9.203 10.8879 9.30616 10.7982 9.35275 10.565L9.84526 8.15695C9.50582 8.16592 9.28952 8.32287 9.1198 8.79821L9.03661 8.76682L9.16639 8H11Z" fill="#1171BE"/>
<path d="M11.7952 12.1445L11.8042 12.1265C11.7816 12.1176 11.7681 12.1131 11.7319 12.0997C11.2756 11.9384 11 11.6159 11 11.1232C11 10.4513 11.3343 9.81075 11.8133 9.41657C12.134 9.1523 12.5136 9 12.9066 9C13.5392 9 14 9.43897 14 10.0437C14 10.5991 13.747 11.1904 13.2997 11.6159C12.9066 11.9922 12.6536 12.1176 12.0166 12.1445L11.8178 12.355V12.3684C12.012 12.3774 12.3283 12.4087 12.6581 12.5252C12.8253 12.5834 12.9202 12.5969 13.0422 12.5969C13.3178 12.5969 13.4804 12.5162 13.7425 12.2475L13.8373 12.3326C13.4804 12.8477 13.1596 13 12.6672 13C12.4819 13 12.3328 12.9731 12.0527 12.8835C11.8178 12.8119 11.7139 12.7895 11.5828 12.7895C11.4383 12.7895 11.3208 12.8163 11.0678 12.9149L11.0045 12.8074L11.7952 12.1445ZM13.3494 9.68533C13.3494 9.3673 13.1642 9.1523 12.8931 9.1523C12.6084 9.1523 12.378 9.32251 12.1611 9.68533C11.8901 10.1377 11.6506 10.9664 11.6506 11.4591C11.6506 11.7861 11.8268 11.9922 12.1114 11.9922C12.4187 11.9922 12.6762 11.7368 12.875 11.3785C13.1325 10.9082 13.3494 10.1601 13.3494 9.68533Z" fill="#1171BE"/>
<path d="M19.8241 9L19.21 11.3652C19.0262 12.073 18.9423 12.4551 18.9423 12.5056C18.9423 12.5393 18.9685 12.5899 19 12.5899C19.0787 12.5899 19.21 12.4438 19.357 12.191L19.4724 12.2809C19.1837 12.7753 18.9423 12.9888 18.685 12.9888C18.4856 12.9888 18.3701 12.8596 18.3701 12.6461C18.3701 12.5562 18.3806 12.4831 18.4278 12.264C18.1549 12.7921 17.8766 13 17.5564 13C17.2362 13 17 12.764 17 12.2978C17 11.7416 17.3045 11.1067 17.6877 10.7135C17.9134 10.4775 18.1759 10.3315 18.4121 10.3315C18.5643 10.3315 18.6903 10.3764 18.8058 10.5169L18.9003 10.1573C19.0315 9.66292 19.0525 9.52247 19.0525 9.47191C19.0525 9.37079 18.9738 9.31461 18.8373 9.31461H18.727V9.16292C19.252 9.11798 19.5092 9.07865 19.8241 9ZM18.727 10.8427C18.727 10.6854 18.6483 10.5674 18.5328 10.5674C18.3071 10.5618 18.0866 10.8708 17.9344 11.1966C17.7612 11.5674 17.6509 12.0056 17.6509 12.2416C17.6509 12.4438 17.7349 12.5955 17.8661 12.5955C18.0184 12.5955 18.1759 12.4551 18.3176 12.1798C18.5066 11.8202 18.727 11.0899 18.727 10.8427Z" fill="#1171BE"/>
<path d="M21 10.6404H20.5643L20.3858 11.309C20.2021 11.9944 20.1076 12.3483 20.1076 12.4831C20.1076 12.5562 20.1496 12.5843 20.1916 12.5843C20.2756 12.5843 20.4121 12.4326 20.5906 12.1348L20.7113 12.2191C20.3648 12.7978 20.1339 12.9775 19.8189 12.9775C19.5984 12.9775 19.4672 12.8596 19.4672 12.6124C19.4672 12.5112 19.5197 12.2584 19.5984 11.9663L19.9501 10.6404H19.6772V10.4438C20.1076 10.2865 20.3596 10.0674 20.643 9.58989H20.8268L20.622 10.4045H21V10.6404Z" fill="#1171BE"/>
</svg>
