<svg width="24" height="24" viewBox="0 0 24 24" fill="none" xmlns="http://www.w3.org/2000/svg">
<rect x="0.5" y="0.5" width="22" height="22" rx="2" fill="var(--mw-icon-background-default-white, #FFFFFF)"/>
<path d="M1.5 11.5H21.5" stroke="var(--mw-icon-background-default-dark-gray, #A6A6A6)" stroke-linecap="square" stroke-linejoin="round"/>
<path d="M11.5 9.5V14.5M11.5 14.5L10.5 13.5M11.5 14.5L12.5 13.5" stroke="var(--mw-icon-glyph-content-dark-gray, #333333)" stroke-linecap="round" stroke-linejoin="round"/>
<path d="M0.5 17.4999C2.98939 14.755 4.42433 14.8057 7 17.4999C8.82542 19.5428 9.96461 19.9548 12.5 17.4999C14.9894 14.755 16.4243 14.8057 19 17.4999C20.2652 18.9158 21.2007 19.5483 22.5 18.9858" stroke="#DD5400" stroke-linecap="round" stroke-linejoin="round"/>
<path d="M3.00009 6.50007C3.00009 6.50007 3.50009 1.5 5 1.5C6.5 1.5 6.5 10.5 8 10.5C9.5 10.5 10 6.5 10 6.5C10 6.5 10.5001 1.5 12 1.5C14.0001 1.5 13.5 10.5 15 10.5C16.5 10.5 17 6.5 17 6.5C17 6.5 17.5001 1.5 19 1.5C20.5 1.5 20.5 10.5 22 10.5M3.00009 6.50007C3.00009 6.50007 2.5 10.5 1 10.5M3.00009 6.50007C3.00009 6.50007 3.25413 3.95916 3.94342 2.5" stroke="#1171BE" stroke-linecap="round" stroke-linejoin="round"/>
<rect x="0.5" y="0.5" width="22" height="22" rx="2" stroke="var(--mw-icon-border-default-gray, #616161)"/>
</svg>
