<svg width="24" height="24" viewBox="0 0 24 24" fill="none" xmlns="http://www.w3.org/2000/svg">
<rect x="0.5" y="0.5" width="22" height="22" rx="2" fill="var(--mw-icon-background-medium-yellow, #FFEF91)"/>
<path d="M16.5 20.5C11.5294 20.5 7.5 16.4706 7.5 11.5C7.5 6.52944 11.5294 2.5 16.5 2.5H19.5V20.5H16.5Z" stroke="#EDB120"/>
<path d="M7.5 0.5L19.5 11.5L7.5 22.5" stroke="#EDB120" stroke-linecap="round" stroke-linejoin="round"/>
<path d="M7.5 0.5L19.5 11.5L7.5 22.5" stroke="#EDB120" stroke-linecap="round" stroke-linejoin="round"/>
<path d="M11.5 4.5L17 9V13.5L11.5 19L9.5 17L8.5 15.5L7.5 12V9.5L9 7L11.5 4.5Z" fill="var(--mw-icon-background-default-white, #FFFFFF)"/>
<path fill-rule="evenodd" clip-rule="evenodd" d="M7.13143 0.162141C7.31802 -0.0414189 7.63431 -0.0551703 7.83787 0.131426L11.4561 3.44812C12.9177 2.53059 14.6469 2 16.5 2H19H20V3V11.5V20V21H19H16.5C14.6469 21 12.9177 20.4694 11.4561 19.5519L7.83787 22.8686C7.63431 23.0552 7.31802 23.0414 7.13143 22.8379C6.94483 22.6343 6.95858 22.318 7.16214 22.1314L10.6198 18.9619C8.41513 17.2222 7 14.5264 7 11.5C7 8.47363 8.41513 5.77779 10.6198 4.03808L7.16214 0.86858C6.95858 0.681984 6.94483 0.3657 7.13143 0.162141ZM11.3678 4.72372C9.32155 6.2759 8 8.73362 8 11.5C8 14.2664 9.32155 16.7241 11.3678 18.2763L18.7601 11.5L11.3678 4.72372ZM12.2241 18.8478C13.4802 19.5803 14.9411 20 16.5 20H19V12.6366L12.2241 18.8478ZM19 10.3634V3H16.5C14.9411 3 13.4802 3.41966 12.2241 4.15217L19 10.3634Z" fill="#EDB120"/>
<rect x="0.5" y="0.5" width="22" height="22" rx="2" stroke="var(--mw-icon-border-default-gray, #616161)"/>
<path d="M1.5 11.5H21.5" stroke="var(--mw-icon-background-default-dark-gray, #A6A6A6)" stroke-linecap="square" stroke-linejoin="round"/>
<path d="M16.5 1.5V21.5" stroke="var(--mw-icon-background-default-dark-gray, #A6A6A6)" stroke-linecap="square" stroke-linejoin="round"/>
<path d="M13.5 10.5L14.5 11.5M14.5 11.5L15.5 12.5M14.5 11.5L15.5 10.5M14.5 11.5L13.5 12.5" stroke="#1171BE" stroke-linecap="round"/>
<path d="M10.5 7.5L11.5 8.5M11.5 8.5L12.5 9.5M11.5 8.5L12.5 7.5M11.5 8.5L10.5 9.5" stroke="#1171BE" stroke-linecap="round"/>
<path d="M10.5 13.5L11.5 14.5M11.5 14.5L12.5 15.5M11.5 14.5L12.5 13.5M11.5 14.5L10.5 15.5" stroke="#1171BE" stroke-linecap="round"/>
</svg>
