<svg width="24" height="24" viewBox="0 0 24 24" fill="none" xmlns="http://www.w3.org/2000/svg">
<rect x="0.5" y="0.5" width="22" height="22" rx="2" fill="var(--mw-icon-background-default-white, #FFFFFF)"/>
<path d="M1.5 15.5L2.5 16.5M2.5 16.5L3.5 17.5M2.5 16.5L3.5 15.5M2.5 16.5L1.5 17.5" stroke="#1171BE" stroke-linecap="round"/>
<path d="M12.5 15.5L13.5 16.5M13.5 16.5L14.5 17.5M13.5 16.5L14.5 15.5M13.5 16.5L12.5 17.5" stroke="#1171BE" stroke-linecap="round"/>
<path d="M1 11C3 5 5.5 3.5 11.5 3.5" stroke="#0072BD" stroke-linecap="square" stroke-linejoin="round"/>
<path d="M12.5 6.5H21.5" stroke="var(--mw-icon-glyph-content-gray, #616162)" stroke-linecap="square" stroke-linejoin="round"/>
<path d="M11.5 5.5C13.84 5.52222 14.3926 3.98767 15.5 1.5C19.4415 4.72283 21 5.5 22.5 5.5" stroke="#1171BE" stroke-linecap="square" stroke-linejoin="round"/>
<path d="M11.5 7.5C16.5 7.5 16 10.5 22.5 10.5" stroke="#1171BE" stroke-linecap="square" stroke-linejoin="round"/>
<path d="M5.5 12.5V21.5" stroke="#EDB120" stroke-linecap="square" stroke-linejoin="round"/>
<rect x="6" y="12" width="5" height="10" fill="var(--mw-icon-background-medium-yellow, #FFEF91)"/>
<path d="M7.5 13.5L8.5 14.5M8.5 14.5L9.5 15.5M8.5 14.5L9.5 13.5M8.5 14.5L7.5 15.5" stroke="#1171BE" stroke-linecap="round"/>
<path d="M7.5 18.5L8.5 19.5M8.5 19.5L9.5 20.5M8.5 19.5L9.5 18.5M8.5 19.5L7.5 20.5" stroke="#1171BE" stroke-linecap="round"/>
<path d="M17.5 17L12 12H22V22H12L17.5 17Z" fill="var(--mw-icon-background-medium-yellow, #FFEF91)"/>
<path d="M12 12L17.5 17L12 22" stroke="#EDB120" stroke-linecap="square" stroke-linejoin="round"/>
<rect x="0.5" y="0.5" width="22" height="22" rx="2" stroke="var(--mw-icon-border-default-gray, #616161)"/>
<path d="M1.5 11.5H21.5" stroke="var(--mw-icon-glyph-content-gray, #616162)" stroke-linecap="square" stroke-linejoin="round"/>
<path d="M11.5 21.5V1.5" stroke="var(--mw-icon-glyph-content-gray, #616162)" stroke-linecap="square" stroke-linejoin="round"/>
<path d="M18.5 13.5L19.5 14.5M19.5 14.5L20.5 15.5M19.5 14.5L20.5 13.5M19.5 14.5L18.5 15.5" stroke="#1171BE" stroke-linecap="round"/>
<path d="M18.5 18.5L19.5 19.5M19.5 19.5L20.5 20.5M19.5 19.5L20.5 18.5M19.5 19.5L18.5 20.5" stroke="#1171BE" stroke-linecap="round"/>
</svg>
