<svg width="24" height="24" viewBox="0 0 24 24" fill="none" xmlns="http://www.w3.org/2000/svg">
<rect x="0.5" y="0.5" width="22" height="22" rx="2" fill="var(--mw-icon-background-default-white, #FFFFFF)"/>
<path d="M1.5 15.5H3.5" stroke="var(--mw-icon-background-default-dark-gray, #A6A6A6)" stroke-linecap="round" stroke-linejoin="round"/>
<path d="M5.5 15.5H7.5" stroke="var(--mw-icon-background-default-dark-gray, #A6A6A6)" stroke-linecap="round" stroke-linejoin="round"/>
<path d="M9.5 15.5H11.5" stroke="var(--mw-icon-background-default-dark-gray, #A6A6A6)" stroke-linecap="round" stroke-linejoin="round"/>
<path d="M13.5 15.5H15.5" stroke="var(--mw-icon-background-default-dark-gray, #A6A6A6)" stroke-linecap="round" stroke-linejoin="round"/>
<path d="M17.5 15.5H19.5" stroke="var(--mw-icon-background-default-dark-gray, #A6A6A6)" stroke-linecap="round" stroke-linejoin="round"/>
<path d="M21.5 15.5H22.5" stroke="var(--mw-icon-background-default-dark-gray, #A6A6A6)" stroke-linecap="round" stroke-linejoin="round"/>
<path d="M1 21.5003C4 21.5 3.26271 7.5 5.5 7.5C7.73729 7.5 8.5 18 10.5 18.5C12.5 19 13 13.5 14.5 13.5C16.5 13.5 15 15.5 22.5 15.5" stroke="#EDB120" stroke-linecap="round" stroke-linejoin="round"/>
<path d="M1 21.5003C4 21.5 1.79243 2.5 5.5 2.5C9.20757 2.5 7 20.5 10.5 20.5C14 20.5 11 11.5 14.5 11.5C16.5 11.5 16.5 15.5 22.5 15.5" stroke="#1171BE" stroke-linecap="round" stroke-linejoin="round"/>
<rect x="0.5" y="0.5" width="22" height="22" rx="2" stroke="var(--mw-icon-border-default-gray, #616161)"/>
</svg>
