<svg width="24" height="24" viewBox="0 0 24 24" fill="none" xmlns="http://www.w3.org/2000/svg">
<rect x="0.5" y="0.5" width="22" height="22" rx="2" fill="var(--mw-icon-background-default-white, #FFFFFF)"/>
<path d="M13 9.5L11.5 3.31148L10.5 8.55738L9.5 4.62295L8.5 8.55738L7.5 5.93443L6.5 9.86885L5.5 2L4.5 8.55738L3.5 5.93443L2.5 9.86885L0.5 5.93443" stroke="#1171BE" stroke-linecap="round" stroke-linejoin="round"/>
<path d="M12.5 19L11.5 16.3115L10.5 18.2787L9.5 16.3115L8.5 18.2787L7.5 16.9672L6.5 18.9344L5.5 15L4.5 18.2787L3.5 16.9672L2.5 18.9344L0.5 16.9672" stroke="#DD5400" stroke-linecap="round" stroke-linejoin="round"/>
<path d="M13 9.5L13.5 5.80328L14.5 8.55738L15.5 2.5L16.5 8.55738L17.5 5.5L18.5 8.55738L19.5 3.31148L20.5 8.55738L21.5 4.62295L22.5 8.55738" stroke="#1171BE" stroke-linecap="round" stroke-linejoin="round"/>
<path d="M12.5 19L13.5 16.9016L14.5 18.2787L15.5 15L16.5 18.2787L17.5 16.9672L18.5 18.2787L19.5 15.6557L20.5 18.2787L21.5 16.3115L22.5 18.2787" stroke="#DD5400" stroke-linecap="round" stroke-linejoin="round"/>
<path d="M1.5 11.5H21.5" stroke="var(--mw-icon-background-default-dark-gray, #A6A6A6)" stroke-linecap="square" stroke-linejoin="round"/>
<rect x="0.5" y="0.5" width="22" height="22" rx="2" stroke="var(--mw-icon-border-default-gray, #616161)"/>
<path d="M11.5 9.5V14.5M11.5 14.5L10.5 13.5M11.5 14.5L12.5 13.5" stroke="var(--mw-icon-glyph-content-dark-gray, #333333)" stroke-linecap="round" stroke-linejoin="round"/>
</svg>
