<svg width="24" height="24" viewBox="0 0 24 24" fill="none" xmlns="http://www.w3.org/2000/svg">
<rect x="0.5" y="0.5" width="22" height="22" rx="2" fill="var(--mw-icon-background-medium-yellow, #FFEF91)"/>
<path d="M16.5 20.5C11.5294 20.5 7.5 16.4706 7.5 11.5C7.5 6.52944 11.5294 2.5 16.5 2.5H19.5V20.5H16.5Z" stroke="#EDB120"/>
<path d="M11.5 4L16.5 2.5L17 13.5L16.5 20.5L12.5 19.5L9.5 17L8.5 15.5L7.5 12V9.5L9 7L11.5 4Z" fill="var(--mw-icon-background-default-white, #FFFFFF)"/>
<path fill-rule="evenodd" clip-rule="evenodd" d="M8 11.5C8 16.1944 11.8056 20 16.5 20H19V3H16.5C11.8056 3 8 6.80558 8 11.5ZM16.5 21C11.2533 21 7 16.7467 7 11.5C7 6.25329 11.2533 2 16.5 2H19H20V3V20V21H19H16.5Z" fill="#EDB120"/>
<rect x="0.5" y="0.5" width="22" height="22" rx="2" stroke="var(--mw-icon-border-default-gray, #616161)"/>
<path d="M1.5 11.5H21.5" stroke="var(--mw-icon-background-default-dark-gray, #A6A6A6)" stroke-linecap="square" stroke-linejoin="round"/>
<path d="M16.5 1.5V21.5" stroke="var(--mw-icon-background-default-dark-gray, #A6A6A6)" stroke-linecap="square" stroke-linejoin="round"/>
<path d="M13.5 10.5L14.5 11.5M14.5 11.5L15.5 12.5M14.5 11.5L15.5 10.5M14.5 11.5L13.5 12.5" stroke="#1171BE" stroke-linecap="round"/>
<path d="M10.5 7.5L11.5 8.5M11.5 8.5L12.5 9.5M11.5 8.5L12.5 7.5M11.5 8.5L10.5 9.5" stroke="#1171BE" stroke-linecap="round"/>
<path d="M10.5 13.5L11.5 14.5M11.5 14.5L12.5 15.5M11.5 14.5L12.5 13.5M11.5 14.5L10.5 15.5" stroke="#1171BE" stroke-linecap="round"/>
</svg>
