<svg width="24" height="24" viewBox="0 0 24 24" fill="none" xmlns="http://www.w3.org/2000/svg">
<rect x="0.5" y="0.5" width="22" height="22" rx="2" fill="var(--mw-icon-background-default-white, #FFFFFF)"/>
<rect x="0.5" y="0.5" width="22" height="22" rx="2" stroke="var(--mw-icon-border-default-gray, #616161)"/>
<path d="M5.33675 7.5982V14.4065H4V7.5982H5.33675Z" fill="#1171BE"/>
<path d="M6.83927 7.5982H7.97483L9.64688 12.5969L11.3189 7.5982H12.4545L10.1029 14.4065H9.19087L6.83927 7.5982ZM6.22678 7.5982H7.35787L7.56353 12.4706V14.4065H6.22678V7.5982ZM11.9359 7.5982H13.0715V14.4065H11.7302V12.4706L11.9359 7.5982Z" fill="#1171BE"/>
<path d="M17.6543 12.148H18.9911C18.9642 12.6062 18.8435 13.013 18.6289 13.3684C18.4173 13.7238 18.1208 14.0012 17.7393 14.2007C17.3607 14.4002 16.9047 14.5 16.3712 14.5C15.9539 14.5 15.5799 14.4252 15.2491 14.2756C14.9182 14.1228 14.6351 13.9046 14.3996 13.6209C14.1671 13.3372 13.9898 12.9943 13.8676 12.5922C13.7454 12.19 13.6843 11.7396 13.6843 11.2408V10.7685C13.6843 10.2698 13.7469 9.81931 13.8721 9.41717C14.0002 9.01191 14.182 8.66745 14.4175 8.38377C14.6559 8.10009 14.9406 7.88187 15.2714 7.72912C15.6022 7.57637 15.9718 7.5 16.3802 7.5C16.9226 7.5 17.3801 7.60287 17.7527 7.80862C18.1282 8.01436 18.4188 8.29804 18.6245 8.65965C18.8331 9.02126 18.9583 9.43275 19 9.89412H17.6588C17.6439 9.6198 17.5917 9.38755 17.5023 9.19739C17.4129 9.00412 17.2773 8.85916 17.0955 8.76253C16.9166 8.66277 16.6782 8.61289 16.3802 8.61289C16.1566 8.61289 15.9614 8.65654 15.7945 8.74382C15.6276 8.83111 15.4875 8.96359 15.3742 9.14128C15.261 9.31897 15.176 9.54342 15.1194 9.81463C15.0658 10.0827 15.0389 10.3976 15.0389 10.7592V11.2408C15.0389 11.5931 15.0643 11.9033 15.1149 12.1713C15.1656 12.4363 15.2431 12.6608 15.3474 12.8447C15.4547 13.0255 15.5918 13.1627 15.7587 13.2562C15.9286 13.3466 16.1328 13.3918 16.3712 13.3918C16.6514 13.3918 16.8824 13.345 17.0642 13.2515C17.246 13.158 17.3846 13.0193 17.48 12.8353C17.5783 12.6514 17.6364 12.4223 17.6543 12.148Z" fill="#1171BE"/>
</svg>
