<svg width="24" height="24" viewBox="0 0 24 24" fill="none" xmlns="http://www.w3.org/2000/svg">
<path d="M17.5 18.5L1.5 18.5C0.947715 18.5 0.5 18.0523 0.5 17.5L0.499999 1.5C0.499999 0.947714 0.947714 0.499998 1.5 0.499998L17.5 0.499997C18.0523 0.499997 18.5 0.947714 18.5 1.5L18.5 17.5C18.5 18.0523 18.0523 18.5 17.5 18.5Z" fill="var(--mw-icon-background-default-white, #FFFFFF)" stroke="var(--mw-icon-border-default-gray, #616161)" stroke-linecap="round"/>
<path d="M4 2.5C4 2.22386 4.22386 2 4.5 2C4.77614 2 5 2.22386 5 2.5V16.5C5 16.7761 4.77614 17 4.5 17C4.22386 17 4 16.7761 4 16.5V2.5Z" fill="var(--mw-icon-glyph-content-gray, #616162)"/>
<path d="M9 2.5C9 2.22386 9.22386 2 9.5 2C9.77614 2 10 2.22386 10 2.5V16.5C10 16.7761 9.77614 17 9.5 17C9.22386 17 9 16.7761 9 16.5V2.5Z" fill="var(--mw-icon-glyph-content-gray, #616162)"/>
<path d="M14 2.5C14 2.22386 14.2239 2 14.5 2C14.7761 2 15 2.22386 15 2.5V16.5C15 16.7761 14.7761 17 14.5 17C14.2239 17 14 16.7761 14 16.5V2.5Z" fill="var(--mw-icon-glyph-content-gray, #616162)"/>
<path d="M2.5 9.5V7.5H6.5V9.5H2.5Z" fill="var(--mw-icon-background-default-medium-gray, #D9D9D9)"/>
<path d="M7.5 13.5V11.5H11.5V13.5H7.5Z" fill="var(--mw-icon-background-default-medium-gray, #D9D9D9)"/>
<path d="M12.5 6.5V4.5H16.5V6.5H12.5Z" fill="var(--mw-icon-background-default-medium-gray, #D9D9D9)"/>
<path d="M2.5 9.5V7.5H6.5V9.5H2.5Z" stroke="var(--mw-icon-glyph-content-gray, #616162)" stroke-linejoin="round"/>
<path d="M7.5 13.5V11.5H11.5V13.5H7.5Z" stroke="var(--mw-icon-glyph-content-gray, #616162)" stroke-linejoin="round"/>
<path d="M12.5 6.5V4.5H16.5V6.5H12.5Z" stroke="var(--mw-icon-glyph-content-gray, #616162)" stroke-linejoin="round"/>
<path d="M10.5 20.5V12.5C10.5 11.3954 11.3954 10.5 12.5 10.5H20.5C21.6046 10.5 22.5 11.3954 22.5 12.5V20.5C22.5 21.6046 21.6046 22.5 20.5 22.5H12.5C11.3954 22.5 10.5 21.6046 10.5 20.5Z" fill="var(--mw-icon-background-red, #FF9D9A)" stroke="var(--mw-icon-border-default-red, #902622)" stroke-linejoin="round"/>
</svg>
