<svg width="24" height="24" viewBox="0 0 24 24" fill="none" xmlns="http://www.w3.org/2000/svg">
<rect x="0.5" y="0.5" width="22" height="22" rx="2" fill="var(--mw-icon-background-default-white, #FFFFFF)"/>
<path d="M11.5 11.5L1 1H22L11.5 11.5Z" fill="var(--mw-icon-background-medium-yellow, #FFEF91)"/>
<path d="M11.5 11.5L1 22H22L11.5 11.5Z" fill="var(--mw-icon-background-medium-yellow, #FFEF91)"/>
<path d="M21.5 1.5L1.5 21.5" stroke="#EDB120" stroke-linecap="round" stroke-linejoin="round"/>
<path d="M1.5 1.5L21.5 21.5" stroke="#EDB120" stroke-linecap="round" stroke-linejoin="round"/>
<rect x="0.5" y="0.5" width="22" height="22" rx="2" stroke="var(--mw-icon-border-default-gray, #616161)"/>
<path d="M11 22V1H12V22H11Z" fill="var(--mw-icon-glyph-content-gray, #616162)"/>
<rect x="1" y="11" width="21" height="1" fill="var(--mw-icon-glyph-content-gray, #616162)"/>
<path d="M22.5 18.5C22.5 18.5 20.6834 14.7189 18.5 13.5C17.4217 12.898 16.6839 12.8513 15.5 12.5C13.9563 12.042 13.0621 11.8905 11.5 11.5C9.9379 11.1095 8.96487 11.1684 7.5 10.5C6.21901 9.91547 5.62867 9.34186 4.5 8.5C2.83619 7.25899 0.5 5 0.5 5" stroke="#0072BD" stroke-linejoin="round"/>
</svg>
