<svg width="24" height="24" viewBox="0 0 24 24" fill="none" xmlns="http://www.w3.org/2000/svg">
<path d="M0.5 7.5C0.5 6.39543 1.39543 5.5 2.5 5.5H12.5C13.6046 5.5 14.5 6.39543 14.5 7.5V17.5C14.5 18.6046 13.6046 19.5 12.5 19.5H2.5C1.39543 19.5 0.5 18.6046 0.5 17.5V7.5Z" fill="var(--mw-icon-background-light-yellow, #FFF5BC)" stroke="var(--mw-icon-border-default-blue, #1656A7)"/>
<path d="M1.5 12.5L13.5 12.5M7.5 6.5L7.5 18.5" stroke="var(--mw-icon-glyph-content-light-blue, #278CDD)" stroke-linecap="square"/>
<path d="M2.5 0.5V2.5M7.5 0.5V2.5M12.5 0.5V2.5" stroke="var(--mw-icon-object-primary, #616160)" stroke-linecap="round"/>
<path d="M2.5 5L5 2H0L2.5 5Z" fill="var(--mw-icon-object-primary, #616160)"/>
<path d="M7.5 5L10 2H5L7.5 5Z" fill="var(--mw-icon-object-primary, #616160)"/>
<path d="M12.5 5L15 2H10L12.5 5Z" fill="var(--mw-icon-object-primary, #616160)"/>
<path d="M7.5 10.5C7.5 9.39543 8.39543 8.5 9.5 8.5H19.5C20.6046 8.5 21.5 9.39543 21.5 10.5V20.5C21.5 21.6046 20.6046 22.5 19.5 22.5H9.5C8.39543 22.5 7.5 21.6046 7.5 20.5V10.5Z" fill="var(--mw-icon-background-default-white, #FFFFFF)" stroke="var(--mw-icon-border-default-gray, #616161)"/>
<path d="M11 12L18 15" stroke="var(--mw-icon-glyph-content-gray, #616162)"/>
<circle cx="11" cy="12" r="2" fill="var(--mw-icon-glyph-content-red, #902623)"/>
<circle cx="18" cy="15" r="2" fill="var(--mw-icon-glyph-content-red, #902623)"/>
<circle cx="11" cy="19" r="2" fill="var(--mw-icon-glyph-content-dark-gray, #333333)"/>
</svg>
