<svg width="24" height="24" viewBox="0 0 24 24" fill="none" xmlns="http://www.w3.org/2000/svg">
<path d="M17.5 1.5C17.5 0.947715 17.9477 0.5 18.5 0.5H21.5C22.0523 0.5 22.5 0.947715 22.5 1.5V8.44575C22.5 8.79054 22.3224 9.11101 22.03 9.29375L14.97 13.7062C14.6776 13.889 14.5 14.2095 14.5 14.5542V21.5C14.5 22.0523 14.0523 22.5 13.5 22.5H10.5C9.94771 22.5 9.5 22.0523 9.5 21.5V14.5542C9.5 14.2095 9.67762 13.889 9.97 13.7062L17.03 9.29375C17.3224 9.11101 17.5 8.79054 17.5 8.44575V1.5Z" fill="#FFF9EF" stroke="#4A3A19" stroke-linejoin="round"/>
<path d="M6.5 1.5C6.5 0.947715 6.05228 0.5 5.5 0.5H2.5C1.94772 0.5 1.5 0.947715 1.5 1.5V8.44575C1.5 8.79054 1.67762 9.11101 1.97 9.29375L9.03 13.7062C9.32238 13.889 9.5 14.2095 9.5 14.5542V21.5C9.5 22.0523 9.94771 22.5 10.5 22.5H13.5C14.0523 22.5 14.5 22.0523 14.5 21.5V14.5542C14.5 14.2095 14.3224 13.889 14.03 13.7062L6.97 9.29375C6.67762 9.11101 6.5 8.79054 6.5 8.44575V1.5Z" fill="#745A26" stroke="#4A3A19" stroke-linejoin="round"/>
</svg>
