<svg width="24" height="24" viewBox="0 0 24 24" fill="none" xmlns="http://www.w3.org/2000/svg">
<rect x="0.5" y="0.5" width="22" height="22" rx="2" fill="var(--mw-icon-background-default-white, #FFFFFF)" stroke="var(--mw-icon-border-default-gray, #616161)"/>
<path d="M11.5 5C11.2239 5 11 5.22386 11 5.5V11H5.5C5.22386 11 5 11.2239 5 11.5C5 11.7761 5.22386 12 5.5 12H11V17.5C11 17.7761 11.2239 18 11.5 18H17.5C17.7761 18 18 17.7761 18 17.5C18 17.2239 17.7761 17 17.5 17H12V14H17.5C17.7761 14 18 13.7761 18 13.5C18 13.2239 17.7761 13 17.5 13H12V10H17.5C17.7761 10 18 9.77614 18 9.5C18 9.22386 17.7761 9 17.5 9H12V6H17.5C17.7761 6 18 5.77614 18 5.5C18 5.22386 17.7761 5 17.5 5H11.5Z" fill="var(--mw-icon-glyph-content-gray, #616162)"/>
</svg>
