<svg width="24" height="24" viewBox="0 0 24 24" fill="none" xmlns="http://www.w3.org/2000/svg">
<rect x="0.5" y="0.5" width="22" height="22" rx="2" fill="var(--mw-icon-background-default-white, #FFFFFF)" stroke="var(--mw-icon-border-default-gray, #616161)"/>
<path fill-rule="evenodd" clip-rule="evenodd" d="M8.08535 9H3.5C3.22386 9 3 8.77614 3 8.5C3 8.22386 3.22386 8 3.5 8H8.08535C8.29127 7.4174 8.84689 7 9.5 7C10.1531 7 10.7087 7.4174 10.9146 8H19.5C19.7761 8 20 8.22386 20 8.5C20 8.77614 19.7761 9 19.5 9H10.9146C10.764 9.42618 10.4263 9.76395 10.0001 9.91461L10.0001 15L19.5 15C19.7761 15 20 15.2239 20 15.5C20 15.7762 19.7761 16 19.5 16L9.50008 16C9.36748 16 9.2403 15.9473 9.14653 15.8536C9.05276 15.7598 9.00008 15.6326 9.00009 15.5L9.0001 9.91468C8.57384 9.76406 8.23601 9.42624 8.08535 9Z" fill="var(--mw-icon-glyph-content-gray, #616162)"/>
</svg>
