<svg width="24" height="24" viewBox="0 0 24 24" fill="none" xmlns="http://www.w3.org/2000/svg">
<rect x="0.5" y="0.5" width="22" height="22" rx="2" fill="var(--mw-icon-background-default-white, #FFFFFF)" stroke="var(--mw-icon-border-default-gray, #616161)"/>
<path d="M6.26394 13.6056C6.26394 13.4372 6.24165 13.2868 6.19708 13.1544C6.15593 13.018 6.07878 12.8957 5.96562 12.7874C5.85589 12.6751 5.69987 12.5668 5.49756 12.4626C5.29868 12.3543 5.04151 12.242 4.72604 12.1257C4.37629 11.9973 4.05053 11.8529 3.74878 11.6925C3.44703 11.5321 3.18128 11.3456 2.95154 11.133C2.72523 10.9205 2.54864 10.6758 2.42177 10.3991C2.29489 10.1183 2.23146 9.79345 2.23146 9.42447C2.23146 9.0635 2.29661 8.73463 2.42691 8.43783C2.56064 8.14104 2.74923 7.88636 2.99269 7.6738C3.23615 7.45722 3.52247 7.29078 3.85165 7.17447C4.18426 7.05816 4.55116 7 4.95236 7C5.50785 7 5.98791 7.11832 6.39253 7.35495C6.80058 7.59158 7.11604 7.91243 7.33893 8.31751C7.56181 8.72259 7.67325 9.17781 7.67325 9.68316H6.26394C6.26394 9.41043 6.21422 9.16979 6.11478 8.96123C6.01877 8.75267 5.87132 8.58824 5.67244 8.46791C5.47699 8.34759 5.2301 8.28743 4.93178 8.28743C4.64375 8.28743 4.40372 8.33757 4.21169 8.43783C4.0231 8.5381 3.8808 8.67447 3.78479 8.84693C3.6922 9.01938 3.64591 9.2119 3.64591 9.42447C3.64591 9.58489 3.67849 9.72928 3.74364 9.85762C3.80879 9.98195 3.90651 10.1003 4.03682 10.2126C4.16712 10.3209 4.32828 10.4231 4.5203 10.5194C4.71576 10.6116 4.94207 10.7039 5.19924 10.7961C5.61072 10.9405 5.97076 11.1009 6.27937 11.2774C6.59141 11.4539 6.8503 11.6544 7.05604 11.879C7.2652 12.1036 7.42122 12.3563 7.52409 12.637C7.63039 12.9178 7.68354 13.2366 7.68354 13.5936C7.68354 13.9706 7.6201 14.3075 7.49323 14.6043C7.36636 14.9011 7.18462 15.1537 6.94802 15.3623C6.71142 15.5709 6.42682 15.7293 6.09421 15.8376C5.76502 15.9459 5.39641 16 4.98836 16C4.62489 16 4.26484 15.9439 3.90823 15.8316C3.55504 15.7152 3.23443 15.5428 2.9464 15.3142C2.65836 15.0816 2.42862 14.7888 2.25717 14.4358C2.08572 14.0789 2 13.6618 2 13.1845H3.4196C3.4196 13.4612 3.45732 13.6979 3.53276 13.8944C3.61162 14.0869 3.72135 14.2453 3.86194 14.3697C4.00596 14.49 4.17398 14.5782 4.366 14.6344C4.55802 14.6905 4.76548 14.7186 4.98836 14.7186C5.27639 14.7186 5.51299 14.6725 5.69816 14.5802C5.88675 14.484 6.02734 14.3516 6.11992 14.1832C6.21594 14.0147 6.26394 13.8222 6.26394 13.6056Z" fill="var(--mw-icon-glyph-content-gray, #616162)"/>
<path d="M11.9886 7.12032V15.8797H10.5793V7.12032H11.9886ZM14.3135 7.12032V8.4258H8.28018V7.12032H14.3135Z" fill="var(--mw-icon-glyph-content-gray, #616162)"/>
<path d="M15.2547 7.12032H17.9756C18.5448 7.12032 19.0335 7.22059 19.4415 7.42112C19.8496 7.62166 20.1633 7.91845 20.3828 8.3115C20.6022 8.70455 20.712 9.18783 20.712 9.76136C20.712 10.2146 20.6434 10.6076 20.5062 10.9405C20.3691 11.2734 20.1753 11.5521 19.925 11.7767C19.6781 12.0013 19.3867 12.1778 19.0506 12.3061L18.6083 12.5709H16.2063L16.196 11.2654H17.9911C18.2825 11.2654 18.5243 11.2052 18.7163 11.0849C18.9083 10.9646 19.0523 10.7981 19.1483 10.5856C19.2478 10.373 19.2975 10.1303 19.2975 9.85762C19.2975 9.56484 19.2495 9.31217 19.1535 9.0996C19.0575 8.88302 18.9117 8.71658 18.7163 8.60027C18.5208 8.48396 18.274 8.4258 17.9756 8.4258H16.6692V15.8797H15.2547V7.12032ZM19.4827 15.8797L17.7493 11.9572L19.2461 11.9512L21 15.7955V15.8797H19.4827Z" fill="var(--mw-icon-glyph-content-gray, #616162)"/>
</svg>
