<svg width="24" height="24" viewBox="0 0 24 24" fill="none" xmlns="http://www.w3.org/2000/svg">
<rect x="0.5" y="0.5" width="22" height="22" rx="2" fill="var(--mw-icon-background-default-white, #FFFFFF)" stroke="var(--mw-icon-border-default-gray, #616161)"/>
<path fill-rule="evenodd" clip-rule="evenodd" d="M5.85155 6.04185C5.35108 6.56985 5.05392 7.23135 5.00505 7.92622C4.96795 8.41647 5.13623 8.90136 5.47624 9.28397C5.81625 9.66657 6.30295 9.91871 6.83906 9.98997C6.97923 10.0092 7.12232 10.0007 7.25856 9.96518C7.39479 9.92963 7.52096 9.86783 7.62844 9.78399C7.73593 9.70016 7.82219 9.59628 7.88133 9.47943C7.94048 9.36259 7.97112 9.23554 7.97116 9.10697C7.97694 9.02382 7.96236 8.94053 7.92847 8.86309C7.89457 8.78564 7.8422 8.71596 7.77511 8.65904C7.70802 8.60212 7.62787 8.55937 7.54041 8.53385C7.45296 8.50834 7.36036 8.50069 7.26926 8.51146C6.94823 8.47334 6.65439 8.3281 6.44507 8.10408C6.23575 7.88007 6.12597 7.59336 6.13715 7.2999C6.13715 6.41691 7.06548 5.82139 7.94852 5.45177C7.97518 5.413 7.99201 5.36934 7.99777 5.32395C8.00353 5.27856 7.99809 5.23258 7.98183 5.18933C7.96558 5.14608 7.93892 5.10666 7.90378 5.07391C7.86865 5.04117 7.82592 5.01592 7.7787 5C7.02855 5.14811 6.35202 5.51385 5.85155 6.04185ZM9.84554 6.04299C9.3504 6.57191 9.05526 7.23496 9.00467 7.9321C8.96893 8.428 9.1394 8.91782 9.4814 9.30196C9.82341 9.6861 10.3113 9.9357 10.8457 10C11.7607 10 11.9616 9.43416 11.9616 9.11523C11.9666 9.03477 11.9529 8.95426 11.9214 8.87907C11.8899 8.80389 11.8414 8.73577 11.7791 8.67928C11.7168 8.62278 11.6421 8.57922 11.56 8.55149C11.4779 8.52377 11.3904 8.51253 11.3032 8.51852C10.9868 8.48032 10.6972 8.33479 10.4909 8.11032C10.2846 7.88586 10.1764 7.59857 10.1874 7.30453C10.1874 6.41975 11.1024 5.82305 11.9616 5.45267C11.985 5.41076 11.9981 5.36457 11.9998 5.31744C12.0015 5.27031 11.9919 5.22341 11.9717 5.18011C11.9514 5.13682 11.9209 5.09821 11.8825 5.06706C11.8441 5.03592 11.7987 5.01301 11.7496 5C11.009 5.148 10.3407 5.51408 9.84554 6.04299ZM17.9939 15.0534C17.9511 15.7477 17.6568 16.4106 17.1554 16.9422C16.654 17.4738 15.9728 17.8451 15.2146 18C15.1691 17.9814 15.1284 17.9547 15.0949 17.9216C15.0614 17.8885 15.0358 17.8496 15.0197 17.8073C15.0035 17.765 14.9972 17.7202 15.0011 17.6757C15.005 17.6311 15.019 17.5878 15.0423 17.5483C15.9381 17.1786 16.8798 16.5729 16.8798 15.6899C16.8897 15.3896 16.77 15.0974 16.5456 14.8738C16.3211 14.6502 16.009 14.5123 15.6739 14.4887C15.5855 14.4902 15.4977 14.4754 15.416 14.4453C15.3343 14.4151 15.2604 14.3702 15.199 14.3133C15.1376 14.2565 15.0899 14.1889 15.059 14.1149C15.0281 14.0408 15.0146 13.9619 15.0193 13.883C15.0193 13.5544 15.2375 13 16.1678 13C16.7056 13.0736 17.1924 13.3261 17.531 13.7068C17.8695 14.0875 18.0349 14.5684 17.9939 15.0534ZM13.1472 16.9529C13.6487 16.422 13.9465 15.7566 13.9953 15.0576C14.0313 14.5629 13.8583 14.0743 13.5118 13.6918C13.1653 13.3094 12.6715 13.0619 12.1312 13C11.2387 13 11.0015 13.5556 11.0015 13.8848C10.995 13.9701 11.0099 14.0556 11.045 14.135C11.0801 14.2143 11.1345 14.2853 11.2041 14.3428C11.2737 14.4002 11.3567 14.4425 11.4468 14.4665C11.537 14.4906 11.6319 14.4957 11.7245 14.4815C12.0439 14.5173 12.337 14.6607 12.5461 14.8835C12.7552 15.1063 12.8652 15.3923 12.8543 15.6852C12.8543 16.57 11.9279 17.177 11.0579 17.5473C11.033 17.586 11.0172 17.6289 11.0117 17.6735C11.0062 17.718 11.0111 17.7631 11.026 17.8058C11.0409 17.8485 11.0656 17.8879 11.0983 17.9214C11.1311 17.9548 11.1712 17.9816 11.2161 18C11.9677 17.8515 12.6457 17.4839 13.1472 16.9529Z" fill="var(--mw-icon-glyph-content-gray, #616162)"/>
</svg>
