<svg width="24" height="24" viewBox="0 0 24 24" fill="none" xmlns="http://www.w3.org/2000/svg">
<path d="M16 6H2C0.895431 6 0 6.89543 0 8V22C0 23.1046 0.89543 24 2 24H16C17.1046 24 18 23.1046 18 22V8C18 6.89543 17.1046 6 16 6Z" fill="var(--mw-icon-object-secondary, #FFFFFE)"/>
<path d="M22.5 0.5H15.5C14.9477 0.5 14.5 0.947715 14.5 1.5V8.5C14.5 9.05229 14.9477 9.5 15.5 9.5H22.5C23.0523 9.5 23.5 9.05229 23.5 8.5V1.5C23.5 0.947715 23.0523 0.5 22.5 0.5Z" fill="var(--mw-icon-object-secondary, #FFFFFE)" stroke="var(--mw-icon-object-primary, #616160)"/>
<path d="M17.5 11.5V22.5C17.5 23.0523 17.0523 23.5 16.5 23.5H1.5C0.947716 23.5 0.5 23.0523 0.5 22.5V7.5C0.5 6.94772 0.947716 6.5 1.5 6.5H12.5" stroke="var(--mw-icon-object-primary, #616160)" stroke-linecap="round"/>
<path d="M13.5 10.5V14.5M13.5 10.5H9.5M13.5 10.5L8.5 15.5" stroke="var(--mw-icon-object-primary, #616160)" stroke-linecap="round" stroke-linejoin="round"/>
</svg>
