<svg width="24" height="24" viewBox="0 0 24 24" fill="none" xmlns="http://www.w3.org/2000/svg">
<path d="M12 1.5L23.5 22.5H11.5H0.5L12 1.5Z" fill="var(--mw-icon-background-default-white, white)" stroke="var(--mw-icon-borderColor-light-blue, #268CDD)" stroke-linecap="square" stroke-linejoin="round"/>
<path d="M11.0233 16.7473C11.0233 16.0918 11.1 15.5694 11.2535 15.1801C11.407 14.7908 11.7093 14.3645 12.1605 13.9012C12.6163 13.433 12.9047 13.1004 13.0256 12.9032C13.2116 12.6026 13.3047 12.2773 13.3047 11.9274C13.3047 11.4642 13.1953 11.1118 12.9767 10.8703C12.7628 10.6239 12.4465 10.5007 12.0279 10.5007C11.6279 10.5007 11.3047 10.6214 11.0581 10.8629C10.8163 11.0995 10.6953 11.4223 10.6953 11.8313H9C9.0093 10.959 9.28837 10.269 9.83721 9.76142C10.3907 9.25381 11.1209 9 12.0279 9C12.9628 9 13.6907 9.25134 14.2116 9.75403C14.7372 10.2567 15 10.959 15 11.8609C15 12.6642 14.6465 13.4552 13.9395 14.2339L13.0814 15.1284C12.7744 15.498 12.6163 16.0376 12.607 16.7473H11.0233ZM10.9047 19.0464C10.9047 18.7556 10.9907 18.5215 11.1628 18.3441C11.3349 18.1617 11.5674 18.0706 11.8605 18.0706C12.1581 18.0706 12.393 18.1642 12.5651 18.3515C12.7372 18.5338 12.8233 18.7655 12.8233 19.0464C12.8233 19.3174 12.7395 19.5441 12.5721 19.7265C12.4047 19.9088 12.1674 20 11.8605 20C11.5535 20 11.3163 19.9088 11.1488 19.7265C10.986 19.5441 10.9047 19.3174 10.9047 19.0464Z" fill="var(--mw-icon-glyph-content-blue, #1656A8)"/>

</svg>
