<svg width="24" height="24" viewBox="0 0 24 24" fill="none" xmlns="http://www.w3.org/2000/svg">
<path d="M0.5 21.5V2.5C0.5 1.39543 1.39543 0.5 2.5 0.5H21.5C22.6046 0.5 23.5 1.39543 23.5 2.5V21.5C23.5 22.6046 22.6046 23.5 21.5 23.5H2.5C1.39543 23.5 0.5 22.6046 0.5 21.5Z" fill="var(--mw-icon-background-default-white, #FFFFFF)" stroke="var(--mw-icon-border-default-gray, #616161)" stroke-linecap="square"/>
<path d="M10.5 3L9 7L7.5 3H10.5Z" fill="var(--mw-icon-border-default-gray, #616161)"/>
<path d="M13.5 21L15 17L16.5 21H13.5Z" fill="var(--mw-icon-border-default-gray, #616161)"/>
<path d="M3 7.5L7 9L3 10.5V7.5Z" fill="var(--mw-icon-border-default-gray, #616161)"/>
<path d="M21 16.5L17 15L21 13.5V16.5Z" fill="var(--mw-icon-border-default-gray, #616161)"/>
<path d="M8.38263 12.9738L6.69408 14.6623C5.85365 15.5028 5.85365 16.8654 6.69408 17.7058C7.5345 18.5462 8.8971 18.5462 9.73753 17.7058L11.4261 16.0173C11.829 15.6143 12.4824 15.6143 12.8854 16.0173C13.2883 16.4202 13.2883 17.0736 12.8854 17.4766L11.1968 19.1651C9.55045 20.8115 6.88115 20.8115 5.23478 19.1651C3.58841 17.5187 3.58841 14.8494 5.23478 13.203L6.92333 11.5145C7.34005 11.0978 8.09703 11.097 8.5 11.5C8.90297 11.903 8.78561 12.5709 8.38263 12.9738Z" fill="var(--mw-icon-glyph-content-gray, #616162)"/>
<path d="M16.305 11.1332L17.9935 9.44467C18.834 8.60424 18.834 7.24164 17.9935 6.40121C17.1531 5.56078 15.7905 5.56078 14.9501 6.40121L13.2616 8.08975C12.8586 8.49272 12.2052 8.49272 11.8023 8.08975C11.3993 7.68677 11.3993 7.03342 11.8023 6.63044L13.4908 4.9419C15.1372 3.29552 17.8065 3.29552 19.4528 4.9419C21.0992 6.58828 21.0992 9.2576 19.4528 10.904L17.7643 12.5925C17.3476 13.0092 16.708 12.9954 16.305 12.5925C15.902 12.1895 15.902 11.5362 16.305 11.1332Z" fill="var(--mw-icon-glyph-content-gray, #616162)"/>
</svg>
