<svg width="24" height="24" viewBox="0 0 24 24" fill="none" xmlns="http://www.w3.org/2000/svg">
<path d="M0.5 1C0.5 0.723857 0.723858 0.5 1 0.5H7.08579C7.351 0.5 7.60536 0.605357 7.79289 0.792893L9.20711 2.20711C9.39464 2.39464 9.649 2.5 9.91421 2.5H18C18.2761 2.5 18.5 2.72386 18.5 3V6.9026V14C18.5 14.2761 18.2761 14.5 18 14.5H1C0.723858 14.5 0.5 14.2761 0.5 14V1Z" fill="var(--mw-icon-background-light-yellow, #FFF5BC)" stroke="#674C06"/>
<path d="M23.5 17.5C23.5 14.1863 20.8137 11.5 17.5 11.5C14.1863 11.5 11.5 14.1863 11.5 17.5C11.5 20.8137 14.1863 23.5 17.5 23.5C20.8137 23.5 23.5 20.8137 23.5 17.5Z" fill="var(--mw-icon-background-default-white, #FFFFFF)"/>
<path d="M24 17.5C24 13.9101 21.0899 11 17.5 11V12C20.5376 12 23 14.4624 23 17.5H24ZM17.5 11C13.9101 11 11 13.9101 11 17.5H12C12 14.4624 14.4624 12 17.5 12V11ZM11 17.5C11 21.0899 13.9101 24 17.5 24V23C14.4624 23 12 20.5376 12 17.5H11ZM17.5 24C21.0899 24 24 21.0899 24 17.5H23C23 20.5376 20.5376 23 17.5 23V24Z" fill="var(--mw-icon-border-default-gray, #616161)"/>
<path d="M14.5 17.5H20.5" stroke="var(--mw-icon-glyph-content-gray, #616162)" stroke-linecap="round"/>
</svg>
