<svg width="24" height="24" viewBox="0 0 24 24" fill="none" xmlns="http://www.w3.org/2000/svg">
<path d="M6 0.500002C6 0.22386 6.22386 2.08572e-06 6.5 2.01166e-06L13.5 1.3411e-07C13.7761 6.00433e-08 14 0.223857 14 0.5V1.5C14 1.77614 13.7761 2 13.5 2H12.5C12.2239 2 12 2.22386 12 2.5V6.21923C12 6.67809 12.3123 7.07808 12.7575 7.18937L15.6213 7.90532C15.8439 7.96096 16 8.16096 16 8.39039V9.5C16 9.77614 15.7761 10 15.5 10L11 9.99999V17.5L10 19L9 17.5V10L4.5 9.99999C4.22386 9.99999 4 9.77614 4 9.49999V8.39039C4 8.16096 4.15615 7.96096 4.37873 7.90532L7.24254 7.18937C7.6877 7.07808 8 6.67809 8 6.21923V2.5C8 2.22386 7.77614 2 7.5 2H6.5C6.22386 2 6 1.77614 6 1.5V0.500002Z" fill="var(--mw-icon-object-primary, #616160)"/>
<path d="M23.5 17.5C23.5 14.1863 20.8137 11.5 17.5 11.5C14.1863 11.5 11.5 14.1863 11.5 17.5C11.5 20.8137 14.1863 23.5 17.5 23.5C20.8137 23.5 23.5 20.8137 23.5 17.5Z" fill="var(--mw-icon-background-default-white, #FFFFFF)"/>
<path d="M23.5 17.5C23.5 14.1863 20.8137 11.5 17.5 11.5C14.1863 11.5 11.5 14.1863 11.5 17.5C11.5 20.8137 14.1863 23.5 17.5 23.5C20.8137 23.5 23.5 20.8137 23.5 17.5Z" stroke="var(--mw-icon-border-default-gray, #616161)"/>
<path d="M13.5 13.5L21.5 21.5M13.5 21.5L21.5 13.5" stroke="var(--mw-icon-border-default-gray, #616161)" stroke-linecap="round"/>
</svg>
