<svg width="24" height="24" viewBox="0 0 24 24" fill="none" xmlns="http://www.w3.org/2000/svg">
<path d="M5.5 0.500001L9.5 0.500001L9.5 5.5L13.5 5.5L7.5 13.5L1.5 5.5L5.5 5.5L5.5 0.500001Z" fill="var(--mw-icon-background-default-action, #CBFFBE)" stroke="var(--mw-icon-glyph-content-green, #008014)"/>
<path d="M12 18.5H16.5" stroke="var(--mw-icon-glyph-disabled-gray, #888889)"/>
<circle cx="19.5" cy="18.5" r="3" transform="rotate(90 19.5 18.5)" fill="var(--mw-icon-background-default-action, #CBFFBE)" stroke="var(--mw-icon-glyph-content-green, #008014)"/>
<path d="M7.5 13.5C10.2614 13.5 12.5 15.7386 12.5 18.5C12.5 21.2614 10.2614 23.5 7.5 23.5C4.73858 23.5 2.5 21.2614 2.5 18.5C2.5 15.7386 4.73858 13.5 7.5 13.5Z" fill="var(--mw-icon-background-default-medium-gray, #D9D9D9)" stroke="var(--mw-icon-glyph-disabled-gray, #888889)"/>
<path d="M7.5 15.5C9.15685 15.5 10.5 16.8431 10.5 18.5C10.5 20.1569 9.15685 21.5 7.5 21.5C5.84315 21.5 4.5 20.1569 4.5 18.5C4.5 16.8431 5.84315 15.5 7.5 15.5Z" fill="var(--mw-icon-background-default-medium-gray, #D9D9D9)" stroke="var(--mw-icon-glyph-disabled-gray, #888889)"/>
</svg>
