<svg width="24" height="24" viewBox="0 0 24 24" fill="none" xmlns="http://www.w3.org/2000/svg">
<path d="M12.5 6.5H18C18.2761 6.5 18.5 6.72386 18.5 7V18.5H12.5V6.5Z" fill="var(--mw-icon-background-default-action, #CBFFBE)" stroke="var(--mw-icon-border-default-green, #008013)" stroke-linejoin="round"/>
<path d="M0.5 4C0.5 3.72386 0.723858 3.5 1 3.5H6.5V18.5H0.5V4Z" fill="var(--mw-icon-background-default-selection, #B4DEFF)" stroke="var(--mw-icon-border-default-blue, #1656A7)" stroke-linejoin="round"/>
<path d="M6.5 1C6.5 0.723858 6.72386 0.5 7 0.5H12C12.2761 0.5 12.5 0.723858 12.5 1V18.5H6.5V1Z" fill="var(--mw-icon-background-medium-yellow, #FFEF91)" stroke="#674C06"/>
<rect x="10.9286" y="10.9286" width="11.1429" height="11.1429" fill="var(--mw-icon-background-default-white, #FFFFFF)"/>
<path d="M10.5 18.5H11.6716C12.202 18.5 12.7107 18.2893 13.0858 17.9142L17.9142 13.0858C18.2893 12.7107 18.5 12.202 18.5 11.6716V10.5M22.5 14.5H21.3284C20.798 14.5 20.2893 14.7107 19.9142 15.0858L15.0858 19.9142C14.7107 20.2893 14.5 20.798 14.5 21.3284V22.5" stroke="var(--mw-icon-border-default-gray, #616161)"/>
<path d="M11 11.5C11 11.2239 11.2239 11 11.5 11H12.5C12.7761 11 13 11.2239 13 11.5V12.5C13 12.7761 12.7761 13 12.5 13H11.5C11.2239 13 11 12.7761 11 12.5V11.5Z" fill="#A2142F"/>
<path d="M22 21.5C22 21.7761 21.7761 22 21.5 22H20.5C20.2239 22 20 21.7761 20 21.5V20.5C20 20.2239 20.2239 20 20.5 20H21.5C21.7761 20 22 20.2239 22 20.5V21.5Z" fill="#A2142F"/>
<path d="M11 14.5C11 14.2239 11.2239 14 11.5 14H12.5C12.7761 14 13 14.2239 13 14.5V15.5C13 15.7761 12.7761 16 12.5 16H11.5C11.2239 16 11 15.7761 11 15.5V14.5Z" fill="#A2142F"/>
<path d="M22 18.5C22 18.7761 21.7761 19 21.5 19H20.5C20.2239 19 20 18.7761 20 18.5V17.5C20 17.2239 20.2239 17 20.5 17H21.5C21.7761 17 22 17.2239 22 17.5V18.5Z" fill="#A2142F"/>
<path d="M14 11.5C14 11.2239 14.2239 11 14.5 11H15.5C15.7761 11 16 11.2239 16 11.5V12.5C16 12.7761 15.7761 13 15.5 13H14.5C14.2239 13 14 12.7761 14 12.5V11.5Z" fill="#A2142F"/>
<path d="M19 21.5C19 21.7761 18.7761 22 18.5 22H17.5C17.2239 22 17 21.7761 17 21.5V20.5C17 20.2239 17.2239 20 17.5 20H18.5C18.7761 20 19 20.2239 19 20.5V21.5Z" fill="#A2142F"/>
<path d="M10.5 21.5V11.5C10.5 10.9477 10.9477 10.5 11.5 10.5H21.5C22.0523 10.5 22.5 10.9477 22.5 11.5V21.5C22.5 22.0523 22.0523 22.5 21.5 22.5H11.5C10.9477 22.5 10.5 22.0523 10.5 21.5Z" stroke="var(--mw-icon-border-default-gray, #616161)"/>
</svg>
