<svg width="24" height="24" viewBox="0 0 24 24" fill="none" xmlns="http://www.w3.org/2000/svg">
<rect x="0.5" y="0.5" width="18" height="18" rx="2" fill="var(--mw-icon-background-default-white, #FFFFFF)"/>
<path d="M0.5 9.5C1.5 5.61172 2.5 6.67216 3.5 10.5604C4.5 14.4487 5.5 13.3883 6.5 9.5C7.5 5.61172 8.5 4.55128 9.5 8.43956C10.5 12.3278 11.5 13.3883 12.5 9.5C13.5 5.61172 14.5 6.67216 15.5 10.5604C16.5 14.4487 17.5 13.3883 18.5 9.5" stroke="#0072BD" stroke-miterlimit="10"/>
<rect x="1" y="1" width="17" height="3" fill="var(--mw-icon-background-medium-yellow, #FFEF91)"/>
<rect x="1" y="4" width="17" height="1" fill="var(--mw-icon-glyph-content-yellow, #674C07)"/>
<rect x="1" y="14" width="17" height="1" fill="var(--mw-icon-glyph-content-yellow, #674C07)"/>
<rect x="1" y="15" width="17" height="3" fill="var(--mw-icon-background-medium-yellow, #FFEF91)"/>
<rect x="0.5" y="0.5" width="18" height="18" rx="2" stroke="var(--mw-icon-border-default-gray, #616161)"/>
<path d="M10.5 12.5C10.5 11.3954 11.3954 10.5 12.5 10.5H21.5C22.6046 10.5 23.5 11.3954 23.5 12.5V21.5C23.5 22.6046 22.6046 23.5 21.5 23.5H12.5C11.3954 23.5 10.5 22.6046 10.5 21.5V12.5Z" fill="white" stroke="var(--mw-icon-border-default-gray, #616161)"/>
<ellipse cx="17" cy="17" rx="3.99999" ry="4" stroke="var(--mw-icon-background-medium-blue, #83CAFF)" stroke-width="2"/>
<path d="M17 13C17.6579 13 18.3055 13.1622 18.8856 13.4723C19.4658 13.7824 19.9605 14.2308 20.3259 14.7777C20.6914 15.3247 20.9163 15.9533 20.9808 16.6079C21.0453 17.2626 20.9473 17.923 20.6956 18.5307C20.4438 19.1385 20.0461 19.6747 19.5376 20.092C19.0291 20.5093 18.4256 20.7948 17.7804 20.9231C17.1352 21.0515 16.4684 21.0187 15.8389 20.8278C15.2094 20.6368 14.6368 20.2936 14.1716 19.8284" stroke="var(--mw-icon-glyph-content-light-blue, #278CDD)" stroke-width="2"/>
</svg>
