<svg width="24" height="24" viewBox="0 0 24 24" fill="none" xmlns="http://www.w3.org/2000/svg">
<rect x="0.5" y="0.5" width="18" height="18" rx="2" fill="var(--mw-icon-background-light-yellow, #FFF5BC)" stroke="var(--mw-icon-border-default-blue, #1656A7)"/>
<path d="M1.49988 9.49999H17.4999M9.50003 1.5L9.50003 17.5" stroke="var(--mw-icon-glyph-content-light-blue, #278CDD)" stroke-linecap="square"/>
<path d="M19.1429 11.0178L19.4821 10.7634C20.0004 10.3747 20.746 10.574 21.0012 11.1695L23.3312 16.6061C23.439 16.8576 23.439 17.1424 23.3312 17.3939L20.9178 23.0252C20.6911 23.554 20.066 23.783 19.5514 23.5257L19.3349 23.4174C18.8648 23.1824 18.6569 22.6235 18.859 22.1384L20.8325 17.402C20.9393 17.1456 20.9347 16.8564 20.8198 16.6036L18.8326 12.2316C18.6383 11.8043 18.7674 11.2994 19.1429 11.0178Z" fill="var(--mw-icon-glyph-content-light-blue, #278CDD)"/>
<path d="M15.1429 11.0178L15.4821 10.7634C16.0004 10.3747 16.746 10.574 17.0012 11.1695L19.3312 16.6061C19.439 16.8576 19.439 17.1424 19.3312 17.3939L16.9178 23.0252C16.6911 23.554 16.066 23.783 15.5514 23.5257L15.3349 23.4174C14.8648 23.1824 14.6569 22.6235 14.859 22.1384L16.8325 17.402C16.9393 17.1456 16.9347 16.8564 16.8198 16.6036L14.8326 12.2316C14.6383 11.8043 14.7674 11.2994 15.1429 11.0178Z" fill="var(--mw-icon-glyph-content-light-blue, #278CDD)"/>
<path d="M11.1429 11.0178L11.4821 10.7634C12.0004 10.3747 12.746 10.574 13.0012 11.1695L15.3312 16.6061C15.439 16.8576 15.439 17.1424 15.3312 17.3939L12.9178 23.0252C12.6911 23.554 12.066 23.783 11.5514 23.5257L11.3349 23.4174C10.8648 23.1824 10.6569 22.6235 10.859 22.1384L12.8325 17.402C12.9393 17.1456 12.9347 16.8564 12.8198 16.6036L10.8326 12.2316C10.6383 11.8043 10.7674 11.2994 11.1429 11.0178Z" fill="var(--mw-icon-glyph-content-light-blue, #278CDD)"/>
</svg>
