<svg width="24" height="24" viewBox="0 0 24 24" fill="none" xmlns="http://www.w3.org/2000/svg">
<path d="M0.5 2.5C0.5 1.39543 1.39543 0.5 2.5 0.5H20.5C21.6046 0.5 22.5 1.39543 22.5 2.5V20.5C22.5 21.6046 21.6046 22.5 20.5 22.5H2.5C1.39543 22.5 0.5 21.6046 0.5 20.5V2.5Z" fill="var(--mw-icon-background-default-white, #FFFFFF)"/>
<path d="M4.99996 7.5C2.28295 7.5 2.49997 22 2.49997 22H5H7.49996C7.49996 22 7.71697 7.5 4.99996 7.5Z" fill="var(--mw-icon-background-default-medium-gray, #D9D9D9)" stroke="var(--mw-icon-glyph-disabled-gray, #888889)"/>
<path d="M11.5 16.5C4.74289 16.5 2.5 22 2.5 22H11.5H20.5C20.5 22 18.2571 16.5 11.5 16.5Z" fill="var(--mw-icon-background-medium-blue, #83CAFF)"/>
<path d="M2.5 22.5C2.5 22.5 4.34541 16.5 11.5 16.5C18.6546 16.5 20.5 22.5 20.5 22.5" stroke="#0072BD"/>
<path d="M0.5 2.5C0.5 1.39543 1.39543 0.5 2.5 0.5H20.5C21.6046 0.5 22.5 1.39543 22.5 2.5V20.5C22.5 21.6046 21.6046 22.5 20.5 22.5H2.5C1.39543 22.5 0.5 21.6046 0.5 20.5V2.5Z" stroke="var(--mw-icon-border-default-gray, #616161)" stroke-linejoin="round"/>
</svg>
