<svg width="24" height="24" viewBox="0 0 24 24" fill="none" xmlns="http://www.w3.org/2000/svg">
<path d="M0.5 1.5C0.5 0.947715 0.947715 0.5 1.5 0.5H16.5C17.0523 0.5 17.5 0.947715 17.5 1.5V16.5C17.5 17.0523 17.0523 17.5 16.5 17.5H1.5C0.947715 17.5 0.5 17.0523 0.5 16.5V1.5Z" fill="var(--mw-icon-background-light-yellow, #FFF5BC)" stroke="var(--mw-icon-border-default-blue, #1656A7)"/>
<path d="M4.5 5.5C4.5 4.94772 4.94772 4.5 5.5 4.5H21.5C22.0523 4.5 22.5 4.94772 22.5 5.5V21.5C22.5 22.0523 22.0523 22.5 21.5 22.5H5.5C4.94772 22.5 4.5 22.0523 4.5 21.5V5.5Z" fill="var(--mw-icon-background-light-yellow, #FFF5BC)" stroke="var(--mw-icon-border-default-blue, #1656A7)"/>
<path d="M19.5 8.5C19.5 7.94772 19.0523 7.5 18.5 7.5H8.5C7.94771 7.5 7.5 7.94772 7.5 8.5V18.5C7.5 19.0523 7.94771 19.5 8.5 19.5H18.5C19.0523 19.5 19.5 19.0523 19.5 18.5V8.5Z" fill="var(--mw-icon-background-default-action, #CBFFBE)" stroke="var(--mw-icon-glyph-content-green, #008014)"/>
<path d="M10.5 11.5L12.5 13.5L16.5 9.5" stroke="var(--mw-icon-glyph-content-green, #008014)" stroke-linecap="round" stroke-linejoin="round"/>
<path d="M12.5 15.5H17.5" stroke="var(--mw-icon-glyph-content-green, #008014)" stroke-linecap="round"/>
<path d="M12.5 17.5H17.5" stroke="var(--mw-icon-glyph-content-green, #008014)" stroke-linecap="round"/>
<path d="M9.5 17.5H10.5" stroke="var(--mw-icon-glyph-content-green, #008014)" stroke-linecap="round"/>
<path d="M9.5 15.5H10.5" stroke="var(--mw-icon-glyph-content-green, #008014)" stroke-linecap="round"/>
</svg>
