<svg width="24" height="24" viewBox="0 0 24 24" fill="none" xmlns="http://www.w3.org/2000/svg">
<path d="M1 1H22V22H1V1Z" fill="var(--mw-icon-background-default-white, #FFFFFF)"/>
<path d="M22.5 15.5C13.9444 14.1838 15.7815 8.5 11.5 8.5C7.21846 8.5 9.05556 14.1838 0.5 15.5" stroke="#D95319"/>
<path d="M22.5 19.5C13.9444 16.8675 15.7815 3.5 11.5 3.5C7.21846 3.5 9.05556 16.8675 0.5 19.5" stroke="#0072BD"/>
<path d="M0.5 2.5C0.5 1.39543 1.39543 0.5 2.5 0.5H20.5C21.6046 0.5 22.5 1.39543 22.5 2.5V20.5C22.5 21.6046 21.6046 22.5 20.5 22.5H2.5C1.39543 22.5 0.5 21.6046 0.5 20.5V2.5Z" stroke="var(--mw-icon-border-default-gray, #616161)" stroke-linejoin="round"/>
</svg>
