<svg width="24" height="24" viewBox="0 0 24 24" fill="none" xmlns="http://www.w3.org/2000/svg">
<path d="M20.5 3.5H2.5C1.39543 3.5 0.5 4.39543 0.5 5.5V20.5C0.5 21.6046 1.39543 22.5 2.5 22.5H20.5C21.6046 22.5 22.5 21.6046 22.5 20.5V5.5C22.5 4.39543 21.6046 3.5 20.5 3.5Z" fill="var(--mw-icon-background-default-white, #FFFFFF)" stroke="var(--mw-icon-border-default-gray, #616161)" stroke-linecap="round" stroke-linejoin="round"/>
<path d="M3.5 11.5V0.5H9.5V11.5L6.5 7.5L3.5 11.5Z" fill="var(--mw-icon-background-default-selection, #B4DEFF)" stroke="var(--mw-icon-border-default-blue, #1656A7)" stroke-linecap="round" stroke-linejoin="round"/>
<path d="M19.5 12H13.5C13.2239 12 13 11.7761 13 11.5V6.5C13 6.22386 13.2239 6 13.5 6H19.5C19.7761 6 20 6.22386 20 6.5V11.5C20 11.7761 19.7761 12 19.5 12Z" fill="var(--mw-icon-background-default-dark-gray, #A6A6A6)"/>
<path d="M19.5 20H13.5C13.2239 20 13 19.7761 13 19.5V14.5C13 14.2239 13.2239 14 13.5 14H19.5C19.7761 14 20 14.2239 20 14.5V19.5C20 19.7761 19.7761 20 19.5 20Z" fill="var(--mw-icon-background-default-dark-gray, #A6A6A6)"/>
<path d="M9.5 20H3.5C3.22386 20 3 19.7761 3 19.5V14.5C3 14.2239 3.22386 14 3.5 14H9.5C9.77614 14 10 14.2239 10 14.5V19.5C10 19.7761 9.77614 20 9.5 20Z" fill="var(--mw-icon-background-default-dark-gray, #A6A6A6)"/>
</svg>
