<svg width="24" height="24" viewBox="0 0 24 24" fill="none" xmlns="http://www.w3.org/2000/svg">
<path d="M22.5 17V6L11.5 11.5V22.5L22.5 17Z" fill="var(--mw-icon-glyph-content-gray, #616162)"/>
<path d="M0.5 17V6L11.5 11.5V22.5L0.5 17Z" fill="var(--mw-icon-glyph-content-gray, #616162)"/>
<path d="M22.5 6L11.5 0.5L0.5 6L11.5 11.5L22.5 6Z" fill="var(--mw-icon-background-default-dark-gray, #A6A6A6)"/>
<path d="M11.5 22.5L0.5 17C0.5 17 2.5 9.50018 5.5 10.5C8.5 11.4998 11.5 22.5 11.5 22.5Z" fill="var(--mw-icon-background-medium-blue, #83CAFF)"/>
<path d="M22.5 17L11.5 22.5C11.5 22.5 13.9535 9.62979 18.5 10.5C21.351 11.0457 22.5 17 22.5 17Z" fill="var(--mw-icon-background-medium-blue, #83CAFF)"/>
<path d="M0.5 6L11.5 0.5L22.5 6M0.5 6V17L11.5 22.5M0.5 6L11.5 11.5M11.5 22.5V11.5M11.5 22.5L22.5 17V6M11.5 11.5L22.5 6" stroke="var(--mw-icon-border-disabled-gray, #888888)" stroke-linejoin="round"/>
<rect x="1.5" y="12" width="1" height="1" fill="var(--mw-icon-background-default-selection, #B4DEFF)"/>
<rect x="1" y="12.5" width="1" height="1" fill="var(--mw-icon-glyph-content-light-blue, #278CDD)"/>
<rect x="1" y="14.5" width="1" height="1" fill="var(--mw-icon-glyph-content-light-blue, #278CDD)"/>
<rect x="3.5" y="10" width="1" height="1" fill="var(--mw-icon-background-default-selection, #B4DEFF)"/>
<rect x="5.5" y="10" width="1" height="1" fill="var(--mw-icon-background-default-selection, #B4DEFF)"/>
<rect x="8" y="12" width="1" height="1" fill="var(--mw-icon-glyph-content-light-blue, #278CDD)"/>
<rect x="9" y="14" width="1" height="1" fill="var(--mw-icon-glyph-content-light-blue, #278CDD)"/>
<rect x="8" y="13.5" width="1" height="1" fill="var(--mw-icon-background-default-selection, #B4DEFF)"/>
<rect x="9.5" y="16" width="1" height="1" fill="var(--mw-icon-background-default-selection, #B4DEFF)"/>
<rect x="9" y="16.5" width="1" height="1" fill="var(--mw-icon-glyph-content-light-blue, #278CDD)"/>
<rect x="9.5" y="18" width="1" height="1" fill="var(--mw-icon-glyph-content-light-blue, #278CDD)"/>
<rect x="10" y="18.5" width="1" height="1" fill="var(--mw-icon-background-default-selection, #B4DEFF)"/>
<rect x="6.5" y="11" width="1" height="1" fill="var(--mw-icon-glyph-content-light-blue, #278CDD)"/>
<rect x="7" y="10.5" width="1" height="1" fill="var(--mw-icon-background-default-selection, #B4DEFF)"/>
<rect x="3" y="11" width="1" height="1" fill="var(--mw-icon-glyph-content-light-blue, #278CDD)"/>
</svg>
