<svg width="24" height="24" viewBox="0 0 24 24" fill="none" xmlns="http://www.w3.org/2000/svg">
<path d="M10.5 0.5H1.5C0.947715 0.5 0.5 0.947716 0.5 1.5V21.5C0.5 22.0523 0.947715 22.5 1.5 22.5H10.5V0.5Z" fill="var(--mw-icon-background-default-white, #FFFFFF)" stroke="var(--mw-icon-border-default-gray, #616161)" stroke-linecap="round"/>
<path d="M12.5 0.5H21.5C22.0523 0.5 22.5 0.947716 22.5 1.5V21.5C22.5 22.0523 22.0523 22.5 21.5 22.5H12.5V0.5Z" fill="var(--mw-icon-background-medium-blue, #83CAFF)" stroke="var(--mw-icon-border-default-gray, #616161)" stroke-linecap="round"/>
<path d="M13 1H21.5C21.7761 1 22 1.22386 22 1.5V14C20.5 5 14.5 5 13 14V1Z" fill="var(--mw-icon-glyph-content-gray, #616162)"/>
<path d="M1.5 1H10V14C8.5 5 2.5 5 1 14V1.5C1 1.22386 1.22386 1 1.5 1Z" fill="var(--mw-icon-glyph-content-gray, #616162)"/>
</svg>
