<svg width="24" height="24" viewBox="0 0 24 24" fill="none" xmlns="http://www.w3.org/2000/svg">
<path d="M0.5 2.5C0.5 1.39543 1.39543 0.5 2.5 0.5H21.5C22.6046 0.5 23.5 1.39543 23.5 2.5V21.5C23.5 22.6046 22.6046 23.5 21.5 23.5H2.5C1.39543 23.5 0.5 22.6046 0.5 21.5V2.5Z" fill="var(--mw-icon-background-default-white, #FFFFFF)" stroke="var(--mw-icon-border-default-gray, #616161)"/>
<path d="M9.16128 20.956L10.3053 17H11.4193L9.72828 22H8.99452L9.16128 20.956ZM8.10732 17L9.248 20.956L9.42143 22H8.681L7 17H8.10732Z" fill="var(--mw-icon-glyph-content-dark-gray, #333333)"/>
<path d="M12.2144 17H14.0255C14.3968 17 14.7159 17.0572 14.9827 17.1717C15.2518 17.2862 15.4586 17.4556 15.6031 17.6799C15.7476 17.9043 15.8199 18.1802 15.8199 18.5076C15.8199 18.7754 15.7754 19.0055 15.6865 19.1978C15.5998 19.3878 15.4764 19.5469 15.3163 19.6751C15.1584 19.8011 14.9727 19.9018 14.7593 19.9773L14.4424 20.149H12.8681L12.8615 19.3455H14.0322C14.2078 19.3455 14.3535 19.3134 14.4691 19.2493C14.5847 19.1852 14.6714 19.0959 14.7292 18.9815C14.7893 18.867 14.8193 18.7342 14.8193 18.5831C14.8193 18.4228 14.7904 18.2843 14.7326 18.1676C14.6748 18.0508 14.5869 17.9615 14.4691 17.8997C14.3512 17.8379 14.2034 17.807 14.0255 17.807H13.215V22H12.2144V17ZM14.9294 22L13.822 19.7713L14.8793 19.7644L16 21.9519V22H14.9294Z" fill="var(--mw-icon-glyph-content-dark-gray, #333333)"/>
<path d="M12 15V2.5C15 2.5 18.5 13.5 20.5 13.5H23V15H12Z" fill="var(--mw-icon-background-red, #FF9D9A)"/>
<path d="M1 15.5H23" stroke="var(--mw-icon-glyph-content-gray, #616162)"/>
<path d="M1.5 13.5H3C7 13.5 8 2.5 12 2.5C16 2.5 17 13.5 21 13.5H22.5" stroke="var(--mw-icon-glyph-content-red, #902623)" stroke-linecap="square" stroke-linejoin="round"/>
</svg>
