<svg width="24" height="24" viewBox="0 0 24 24" fill="none" xmlns="http://www.w3.org/2000/svg">
<path d="M0.5 2.5C0.5 1.39543 1.39543 0.5 2.5 0.5H16.5C17.6046 0.5 18.5 1.39543 18.5 2.5V16.5C18.5 17.6046 17.6046 18.5 16.5 18.5H2.5C1.39543 18.5 0.5 17.6046 0.5 16.5V2.5Z" fill="var(--mw-icon-background-default-white, #FFFFFF)"/>
<path d="M0.5 12.4862C2.5 12.5 5.5 3.5 5.5 3.5C5.5 3.5 7.5 12.5 10.5 12.5C13.5 12.5 14.5 5.5 14.5 5.5C14.5 5.5 15 12.5 18.5 12.4862" stroke="#0072BD" stroke-miterlimit="1" stroke-linecap="round" stroke-linejoin="round"/>
<path d="M0.5 2.5C0.5 1.39543 1.39543 0.5 2.5 0.5H16.5C17.6046 0.5 18.5 1.39543 18.5 2.5V16.5C18.5 17.6046 17.6046 18.5 16.5 18.5H2.5C1.39543 18.5 0.5 17.6046 0.5 16.5V2.5Z" stroke="var(--mw-icon-border-default-gray, #616161)" stroke-linejoin="round"/>
<path d="M9.5 11.5C9.5 10.3954 10.3954 9.5 11.5 9.5H21.5C22.6046 9.5 23.5 10.3954 23.5 11.5V21.5C23.5 22.6046 22.6046 23.5 21.5 23.5H11.5C10.3954 23.5 9.5 22.6046 9.5 21.5V11.5Z" fill="white" stroke="var(--mw-icon-border-default-gray, #616161)"/>
<path d="M14.4466 18.1885L15.8509 13H16.9931L16.6248 15.0379L15.2205 20H14.2656L14.4466 18.1885ZM13.7351 13L14.7399 18.1821L14.8336 20H13.7101L12 13H13.7351ZM18.2788 18.098L19.2587 13H21L19.2899 20H18.1727L18.2788 18.098ZM17.1491 13L18.5472 18.1497L18.7406 20H17.7795L16.3752 15.0444L16.0194 13H17.1491Z" fill="var(--mw-icon-glyph-content-dark-gray, #333333)"/>
</svg>
