<svg width="24" height="24" viewBox="0 0 24 24" fill="none" xmlns="http://www.w3.org/2000/svg">
<path d="M22.0967 10.7606L16.9389 1.30474C16.7494 0.957306 16.2506 0.957306 16.0611 1.30474L10.9033 10.7606C10.7216 11.0938 10.9627 11.5 11.3423 11.5H21.6577C22.0373 11.5 22.2784 11.0938 22.0967 10.7606Z" fill="var(--mw-icon-background-medium-yellow, #FFEF91)" stroke="#674C06"/>
<path d="M17 9.5C17 9.77614 16.7761 10 16.5 10C16.2239 10 16 9.77614 16 9.5C16 9.22386 16.2239 9 16.5 9C16.7761 9 17 9.22386 17 9.5Z" fill="var(--mw-icon-glyph-content-yellow, #674C07)"/>
<path d="M16 4.5C16 4.22386 16.2239 4 16.5 4C16.7761 4 17 4.22386 17 4.5V7.5C17 7.77614 16.7761 8 16.5 8C16.2239 8 16 7.77614 16 7.5V4.5Z" fill="var(--mw-icon-glyph-content-yellow, #674C07)"/>
<path d="M17.0967 15.7606L11.9389 6.30474C11.7494 5.95731 11.2506 5.95731 11.0611 6.30474L5.90332 15.7606C5.72158 16.0938 5.96274 16.5 6.34227 16.5H16.6577C17.0373 16.5 17.2784 16.0938 17.0967 15.7606Z" fill="var(--mw-icon-background-medium-yellow, #FFEF91)" stroke="#674C06"/>
<path d="M12 14.5C12 14.7761 11.7761 15 11.5 15C11.2239 15 11 14.7761 11 14.5C11 14.2239 11.2239 14 11.5 14C11.7761 14 12 14.2239 12 14.5Z" fill="var(--mw-icon-glyph-content-yellow, #674C07)"/>
<path d="M11 9.5C11 9.22386 11.2239 9 11.5 9C11.7761 9 12 9.22386 12 9.5V12.5C12 12.7761 11.7761 13 11.5 13C11.2239 13 11 12.7761 11 12.5V9.5Z" fill="var(--mw-icon-glyph-content-yellow, #674C07)"/>
<path d="M12.0967 20.7606L6.93895 11.3047C6.74944 10.9573 6.25056 10.9573 6.06105 11.3047L0.903323 20.7606C0.721585 21.0938 0.962741 21.5 1.34227 21.5H11.6577C12.0373 21.5 12.2784 21.0938 12.0967 20.7606Z" fill="var(--mw-icon-background-medium-yellow, #FFEF91)" stroke="#674C06"/>
<path d="M7 19.5C7 19.7761 6.77614 20 6.5 20C6.22386 20 6 19.7761 6 19.5C6 19.2239 6.22386 19 6.5 19C6.77614 19 7 19.2239 7 19.5Z" fill="var(--mw-icon-glyph-content-yellow, #674C07)"/>
<path d="M6 14.5C6 14.2239 6.22386 14 6.5 14C6.77614 14 7 14.2239 7 14.5V17.5C7 17.7761 6.77614 18 6.5 18C6.22386 18 6 17.7761 6 17.5V14.5Z" fill="var(--mw-icon-glyph-content-yellow, #674C07)"/>
</svg>
