<svg width="24" height="24" viewBox="0 0 24 24" fill="none" xmlns="http://www.w3.org/2000/svg">
<path d="M7.5 4V0.5" stroke="var(--mw-icon-object-primary, #616160)" stroke-linecap="round"/>
<path d="M7.5 16.5V13" stroke="var(--mw-icon-object-primary, #616160)" stroke-linecap="round"/>
<path d="M14.5 8.49997L7.5 13L0.5 8.50002L7.49999 4L14.5 8.49997Z" stroke="var(--mw-icon-object-primary, #616160)" stroke-linejoin="round"/>
<path d="M22.0967 21.7606L16.9389 12.3047C16.7494 11.9573 16.2506 11.9573 16.0611 12.3047L10.9033 21.7606C10.7216 22.0938 10.9627 22.5 11.3423 22.5H21.6577C22.0373 22.5 22.2784 22.0938 22.0967 21.7606Z" fill="var(--mw-icon-background-medium-yellow, #FFEF91)" stroke="#674C06"/>
<path d="M17 20.5C17 20.7761 16.7761 21 16.5 21C16.2239 21 16 20.7761 16 20.5C16 20.2239 16.2239 20 16.5 20C16.7761 20 17 20.2239 17 20.5Z" fill="var(--mw-icon-glyph-content-yellow, #674C07)"/>
<path d="M16 15.5C16 15.2239 16.2239 15 16.5 15C16.7761 15 17 15.2239 17 15.5V18.5C17 18.7761 16.7761 19 16.5 19C16.2239 19 16 18.7761 16 18.5V15.5Z" fill="var(--mw-icon-glyph-content-yellow, #674C07)"/>
</svg>
