<svg width="24" height="24" viewBox="0 0 24 24" fill="none" xmlns="http://www.w3.org/2000/svg">
<rect x="0.5" y="0.5" width="18" height="18" rx="2" fill="var(--mw-icon-background-light-yellow, #FFF5BC)" stroke="var(--mw-icon-border-default-blue, #1656A7)"/>
<path d="M1.49988 9.49999H17.4999M9.50003 1.5L9.50003 17.5" stroke="var(--mw-icon-glyph-content-light-blue, #278CDD)" stroke-linecap="square"/>
<path d="M23.0967 22.7606L17.9389 13.3047C17.7494 12.9573 17.2506 12.9573 17.0611 13.3047L11.9033 22.7606C11.7216 23.0938 11.9627 23.5 12.3423 23.5H22.6577C23.0373 23.5 23.2784 23.0938 23.0967 22.7606Z" fill="var(--mw-icon-background-medium-yellow, #FFEF91)" stroke="#674C06"/>
<path d="M18 21.5C18 21.7761 17.7761 22 17.5 22C17.2239 22 17 21.7761 17 21.5C17 21.2239 17.2239 21 17.5 21C17.7761 21 18 21.2239 18 21.5Z" fill="var(--mw-icon-glyph-content-yellow, #674C07)"/>
<path d="M17 16.5C17 16.2239 17.2239 16 17.5 16C17.7761 16 18 16.2239 18 16.5V19.5C18 19.7761 17.7761 20 17.5 20C17.2239 20 17 19.7761 17 19.5V16.5Z" fill="var(--mw-icon-glyph-content-yellow, #674C07)"/>
</svg>
