<svg width="24" height="24" viewBox="0 0 24 24" fill="none" xmlns="http://www.w3.org/2000/svg">
<path d="M10.6716 0.5H2.5C1.39543 0.5 0.5 1.39543 0.5 2.5V16.5C0.5 17.6046 1.39543 18.5 2.5 18.5H14.5C15.6046 18.5 16.5 17.6046 16.5 16.5V6.32843C16.5 5.79799 16.2893 5.28929 15.9142 4.91421L12.0858 1.08579C11.7107 0.710714 11.202 0.5 10.6716 0.5Z" fill="var(--mw-icon-background-default-white, #FFFFFF)" stroke="var(--mw-icon-border-default-gray, #616161)" stroke-linecap="round"/>
<path d="M8.5 9.5H11.5V11.5M8.5 9.5V7M8.5 9.5H5.5V11.5" stroke="var(--mw-icon-glyph-content-gray, #616162)" stroke-linecap="square" stroke-linejoin="round"/>
<path d="M14.5 15.5V12.5H8.5V15.5H14.5Z" fill="var(--mw-icon-background-medium-blue, #83CAFF)"/>
<path d="M8.5 15.5V12.5H2.5V15.5H8.5Z" fill="var(--mw-icon-background-medium-blue, #83CAFF)"/>
<path d="M8.5 12.5H14.5V15.5H8.5M8.5 12.5V15.5M8.5 12.5H2.5V15.5H8.5" stroke="var(--mw-icon-glyph-content-blue, #1656A8)" stroke-linecap="square" stroke-linejoin="round"/>
<path d="M11.5 6.5V3.5H5.5V6.5H11.5Z" fill="var(--mw-icon-background-medium-blue, #83CAFF)" stroke="var(--mw-icon-glyph-content-blue, #1656A8)" stroke-linecap="square" stroke-linejoin="round"/>
<path d="M23.0967 22.7606L17.9389 13.3047C17.7494 12.9573 17.2506 12.9573 17.0611 13.3047L11.9033 22.7606C11.7216 23.0938 11.9627 23.5 12.3423 23.5H22.6577C23.0373 23.5 23.2784 23.0938 23.0967 22.7606Z" fill="var(--mw-icon-background-medium-yellow, #FFEF91)" stroke="#674C06"/>
<path d="M18 21.5C18 21.7761 17.7761 22 17.5 22C17.2239 22 17 21.7761 17 21.5C17 21.2239 17.2239 21 17.5 21C17.7761 21 18 21.2239 18 21.5Z" fill="var(--mw-icon-glyph-content-yellow, #674C07)"/>
<path d="M17 16.5C17 16.2239 17.2239 16 17.5 16C17.7761 16 18 16.2239 18 16.5V19.5C18 19.7761 17.7761 20 17.5 20C17.2239 20 17 19.7761 17 19.5V16.5Z" fill="var(--mw-icon-glyph-content-yellow, #674C07)"/>
</svg>
