<svg width="24" height="24" viewBox="0 0 24 24" fill="none" xmlns="http://www.w3.org/2000/svg">
<path d="M0.5 18.5V4.5C0.5 2.29086 2.29086 0.5 4.5 0.5H18.5C20.7091 0.5 22.5 2.29086 22.5 4.5V18.5C22.5 20.7091 20.7091 22.5 18.5 22.5H4.5C2.29086 22.5 0.5 20.7091 0.5 18.5Z" fill="#00A3A3"/>
<rect x="3" y="4" width="2" height="3" fill="#FEC338"/>
<rect x="7" y="4" width="2" height="2" fill="#FEC338"/>
<rect x="15.5" y="4" width="3" height="2" fill="#FEC338"/>
<rect x="18.5" y="4" width="2" height="1" fill="#FEC338"/>
<rect x="9" y="4" width="3" height="4" fill="#FEC338"/>
<rect x="5" y="4" width="2" height="4" fill="#ABC739"/>
<rect x="3" y="7" width="2" height="2" fill="#ABC739"/>
<rect x="7" y="6" width="2" height="3" fill="#ABC739"/>
<rect x="12" y="4" width="4" height="2" fill="#ABC739"/>
<rect x="16" y="6" width="2" height="3" fill="#ABC739"/>
<rect x="18" y="5" width="2" height="2" fill="#ABC739"/>
<rect x="9" y="8" width="3" height="6" fill="#ABC739"/>
<path d="M2 9H5V17L3.5 16L2 9Z" fill="#4852F4"/>
<rect x="7" y="9" width="2" height="11" fill="#2E87F7"/>
<path d="M14 6H16V19.5L14 20V6Z" fill="#3E26A8"/>
<path d="M5 8H7V19L5 17.5V8Z" fill="#3E26A8"/>
<rect x="12" y="6" width="2" height="14" fill="#4852F4"/>
<path d="M16 9H18V18L16 19V9Z" fill="#12B1D6"/>
<path d="M18 7H20V14.7778L18 17V7Z" fill="#2E87F7"/>
<rect x="9" y="14" width="3" height="6" fill="#37C897"/>
<path d="M2.5 3.5L20.5 3.5V11.5C20.5 16.4706 16.4706 20.5 11.5 20.5C6.52944 20.5 2.5 16.4706 2.5 11.5L2.5 3.5Z" stroke="var(--mw-icon-background-default-white, white)"/>
<path d="M0.5 18.5V4.5C0.5 2.29086 2.29086 0.5 4.5 0.5H18.5C20.7091 0.5 22.5 2.29086 22.5 4.5V18.5C22.5 20.7091 20.7091 22.5 18.5 22.5H4.5C2.29086 22.5 0.5 20.7091 0.5 18.5Z" stroke="#02555C" stroke-linecap="round"/>

</svg>
