<svg width="24" height="24" viewBox="0 0 24 24" fill="none" xmlns="http://www.w3.org/2000/svg">
<path d="M0.5 18.5V4.5C0.5 2.29086 2.29086 0.5 4.5 0.5H18.5C20.7091 0.5 22.5 2.29086 22.5 4.5V18.5C22.5 20.7091 20.7091 22.5 18.5 22.5H4.5C2.29086 22.5 0.5 20.7091 0.5 18.5Z" fill="#00A3A3"/>
<path d="M10 6L10 3" stroke="var(--mw-icon-background-default-white, #FFFFFF)" stroke-width="2"/>
<path d="M8 6V5" stroke="#013A3E" stroke-width="2"/>
<path d="M12 6L12 4" stroke="#013A3E" stroke-width="2"/>
<path d="M6 10L6 7" stroke="white" stroke-width="2"/>
<path d="M16 10L16 7" stroke="white" stroke-width="2"/>
<path d="M4 9L4 7" stroke="#013A3E" stroke-width="2"/>
<path d="M14 8L14 7" stroke="#013A3E" stroke-width="2"/>
<path d="M2 6L2 4" stroke="#013A3E" stroke-width="2"/>
<path d="M18 6V4" stroke="#013A3E" stroke-width="2"/>
<path d="M20 9V7" stroke="#013A3E" stroke-width="2"/>
<path d="M0.5 6.5H22.5" stroke="#013A3E"/>
<path d="M5 16L5 12.5" stroke="#013A3E" stroke-width="2"/>
<path d="M19 17L19 20.5" stroke="#013A3E" stroke-width="2"/>
<path d="M9 16V12.5" stroke="#013A3E" stroke-width="2"/>
<path d="M15 17L15 20.5" stroke="#013A3E" stroke-width="2"/>
<path d="M7 16L7 11.5" stroke="white" stroke-width="2"/>
<path d="M17 17L17 21.5" stroke="white" stroke-width="2"/>
<path d="M3 16L3 13.5" stroke="#013A3E" stroke-width="2"/>
<path d="M21 17L21 19.5" stroke="#013A3E" stroke-width="2"/>
<path d="M11 13.5L11 16" stroke="#013A3E" stroke-width="2"/>
<path d="M13 19.5L13 17" stroke="#013A3E" stroke-width="2"/>
<path d="M0.5 16.5H22.5" stroke="#013A3E"/>
<path d="M0.5 18.5V4.5C0.5 2.29086 2.29086 0.5 4.5 0.5H18.5C20.7091 0.5 22.5 2.29086 22.5 4.5V18.5C22.5 20.7091 20.7091 22.5 18.5 22.5H4.5C2.29086 22.5 0.5 20.7091 0.5 18.5Z" stroke="#02555C" stroke-linecap="round"/>
</svg>
