<svg width="24" height="24" viewBox="0 0 24 24" fill="none" xmlns="http://www.w3.org/2000/svg">
<path d="M0.5 18.5V4.5C0.5 2.29086 2.29086 0.5 4.5 0.5H18.5C20.7091 0.5 22.5 2.29086 22.5 4.5V18.5C22.5 20.7091 20.7091 22.5 18.5 22.5H4.5C2.29086 22.5 0.5 20.7091 0.5 18.5Z" fill="var(--mw-icon-background-default-white, #FFFFFF)"/>
<path d="M1.5 10.5H3.5V3.5H7.5V10.5H11.5V3.5H15.5V10.5H19.5V3.5H21.5" stroke="var(--mw-icon-glyph-content-red, #902623)" stroke-linecap="square" stroke-linejoin="round"/>
<path d="M22 20C19 20 21 13.5 18.5 13.5C16 13.5 18 20.5 15 20.5C12 20.5 14 13.5 11.5 13.5C9 13.5 11 20.5 8 20.5C5 20.5 7 13.5 4.5 13.5C2 13.5 4.00024 20 1 20" stroke="var(--mw-icon-glyph-content-blue, #1656A8)"/>
<path d="M0.5 18.5V4.5C0.5 2.29086 2.29086 0.5 4.5 0.5H18.5C20.7091 0.5 22.5 2.29086 22.5 4.5V18.5C22.5 20.7091 20.7091 22.5 18.5 22.5H4.5C2.29086 22.5 0.5 20.7091 0.5 18.5Z" stroke="var(--mw-icon-border-default-red, #902622)" stroke-linecap="round"/>
</svg>
