<svg width="24" height="24" viewBox="0 0 24 24" fill="none" xmlns="http://www.w3.org/2000/svg">
<path d="M0.5 2.50002C0.5 1.39545 1.39543 0.500023 2.5 0.500022L20.5 0.500002C21.6046 0.500001 22.5 1.39543 22.5 2.5V20.5C22.5 21.6046 21.6046 22.5 20.5 22.5H2.5C1.39543 22.5 0.5 21.6046 0.5 20.5V2.50002Z" fill="var(--mw-icon-background-default-white, #FFFFFF)" stroke="var(--mw-icon-border-default-gray, #616161)"/>
<path d="M1 4.5H22" stroke="var(--mw-icon-glyph-content-gray, #616162)"/>
<path d="M1 2C1 1.44772 1.44772 1 2 1H21C21.5523 1 22 1.44772 22 2V4H1V2Z" fill="var(--mw-icon-glyph-content-gray, #616162)"/>
<path d="M4 3C4 3.55228 3.55228 4 3 4C2.44772 4 2 3.55228 2 3C2 2.44772 2.44772 2 3 2C3.55228 2 4 2.44772 4 3Z" fill="white"/>
<path d="M7 3C7 3.55228 6.55228 4 6 4C5.44772 4 5 3.55228 5 3C5 2.44772 5.44772 2 6 2C6.55228 2 7 2.44772 7 3Z" fill="white"/>
<rect x="5.5" y="7.5" width="12" height="12" rx="6" fill="white" stroke="var(--mw-icon-glyph-content-gray, #616162)"/>
<path d="M6 13.5H17M11.5 8L11.5 19M14.5 13.5C14.5 16.8137 13.1569 19.5 11.5 19.5C9.84315 19.5 8.5 16.8137 8.5 13.5C8.5 10.1863 9.84315 7.5 11.5 7.5C13.1569 7.5 14.5 10.1863 14.5 13.5ZM11.5 16.5C8.18629 16.5 5.5 15.1569 5.5 13.5C5.5 11.8431 8.18629 10.5 11.5 10.5C14.8137 10.5 17.5 11.8431 17.5 13.5C17.5 15.1569 14.8137 16.5 11.5 16.5Z" stroke="var(--mw-icon-glyph-content-gray, #616162)"/>
</svg>
