<svg width="24" height="24" viewBox="0 0 24 24" fill="none" xmlns="http://www.w3.org/2000/svg">
<path d="M1 22H22V11.5V1H1V11.5V22Z" fill="var(--mw-icon-background-default-white, #FFFFFF)"/>
<path d="M4 8.40915V5.76366L6.5 4L9 5.76366V8.40915L6.5 10.1728L4 8.40915Z" fill="#B7312C"/>
<path d="M4 17.2363V14.5908L6.5 12.8271L9 14.5908V17.2363L6.5 19L4 17.2363Z" fill="var(--mw-icon-background-default-highlight, #FFE864)"/>
<path d="M9 8.40915V5.76366L11.5 4L14 5.76366V8.40915L11.5 10.1728L9 8.40915Z" fill="var(--mw-icon-glyph-content-red, #902623)"/>
<path d="M11.5 12.8225V10.177L14 8.41333L16.5 10.177V12.8225L14 14.5861L11.5 12.8225Z" fill="#DD5400"/>
<path d="M6.5 12.8225V10.177L9 8.41333L11.5 10.177V12.8225L9 14.5861L6.5 12.8225Z" fill="#F57729"/>
<path d="M9 17.2363V14.5908L11.5 12.8271L14 14.5908V17.2363L11.5 19L9 17.2363Z" fill="#FEC04C"/>
<path d="M14 8.40915V5.76366L16.5 4L19 5.76366V8.40915L16.5 10.1728L14 8.40915Z" fill="var(--mw-icon-glyph-content-dark-red, #610908)"/>
<path d="M14 17.2363V14.5908L16.5 12.8271L19 14.5908V17.2363L16.5 19L14 17.2363Z" fill="#EDB120"/>
<path d="M0.5 2.5C0.5 1.39543 1.39543 0.5 2.5 0.5H20.5C21.6046 0.5 22.5 1.39543 22.5 2.5V20.5C22.5 21.6046 21.6046 22.5 20.5 22.5H2.5C1.39543 22.5 0.5 21.6046 0.5 20.5V2.5Z" stroke="var(--mw-icon-border-default-gray, #616161)" stroke-linejoin="round"/>
</svg>
