<svg width="24" height="24" viewBox="0 0 24 24" fill="none" xmlns="http://www.w3.org/2000/svg">
<path d="M11.5 15.5C13.7091 15.5 15.5 13.7091 15.5 11.5C15.5 9.29086 13.7091 7.5 11.5 7.5C9.29086 7.5 7.5 9.29086 7.5 11.5C7.5 13.7091 9.29086 15.5 11.5 15.5Z" fill="var(--mw-icon-object-secondary, #FFFFFE)" stroke="var(--mw-icon-object-primary, #616160)"/>
<path d="M8 11.5C8 13.433 9.567 15 11.5 15V8C9.567 8 8 9.567 8 11.5Z" fill="var(--mw-icon-object-primary, #616160)"/>
<path d="M11.5 0.5V5.5M11.5 17.5V22.5M17.5 11.5H22.5M0.5 11.5H5.5M16 7L19.5 3.5M16 16L19.5 19.5M3.5 19.5L7 16M7 7L3.5 3.5" stroke="var(--mw-icon-object-primary, #616160)" stroke-linecap="round"/>
</svg>
