<svg width="24" height="24" viewBox="0 0 24 24" fill="none" xmlns="http://www.w3.org/2000/svg">
<path d="M0.5 2.5C0.5 1.39543 1.39543 0.5 2.5 0.5H20.5C21.6046 0.5 22.5 1.39543 22.5 2.5V20.5C22.5 21.6046 21.6046 22.5 20.5 22.5H2.5C1.39543 22.5 0.5 21.6046 0.5 20.5V2.5Z" fill="var(--mw-icon-background-default-white, #FFFFFF)"/>
<path d="M2.5 3C2.5 2.72386 2.72386 2.5 3 2.5H20C20.2761 2.5 20.5 2.72386 20.5 3V11C20.5 11.2761 20.2761 11.5 20 11.5H3C2.72386 11.5 2.5 11.2761 2.5 11V3Z" fill="var(--mw-icon-background-medium-blue, #83CAFF)" stroke="var(--mw-icon-glyph-content-blue, #1656A8)"/>
<path d="M0.5 2.5C0.5 1.39543 1.39543 0.5 2.5 0.5H20.5C21.6046 0.5 22.5 1.39543 22.5 2.5V20.5C22.5 21.6046 21.6046 22.5 20.5 22.5H2.5C1.39543 22.5 0.5 21.6046 0.5 20.5V2.5Z" stroke="var(--mw-icon-border-default-gray, #616161)"/>
</svg>
