<svg width="24" height="24" viewBox="0 0 24 24" fill="none" xmlns="http://www.w3.org/2000/svg">
<path d="M12 11C13.1046 11 14 10.1046 14 9C14 7.89543 13.1046 7 12 7C10.8954 7 10 7.89543 10 9C10 10.1046 10.8954 11 12 11Z" fill="var(--mw-icon-object-primary, #616160)"/>
<path d="M12 12.6V10.78" stroke="var(--mw-icon-object-primary, #616160)" stroke-linecap="round" stroke-linejoin="round"/>
<path d="M6.5 23.5L12 12.11L17.5 23.5" stroke="var(--mw-icon-object-primary, #616160)" stroke-linecap="round" stroke-linejoin="round"/>
<path d="M7.31 21.89L14.5 17.29" stroke="var(--mw-icon-object-primary, #616160)" stroke-linecap="round" stroke-linejoin="round"/>
<path d="M16.7 21.89L9.51001 17.29" stroke="var(--mw-icon-object-primary, #616160)" stroke-linecap="round" stroke-linejoin="round"/>
<path d="M8.79999 11.71C8.37911 11.2901 8.04518 10.7914 7.81734 10.2423C7.58951 9.69315 7.47223 9.1045 7.47223 8.51C7.47223 7.9155 7.58951 7.32684 7.81734 6.77773C8.04518 6.22863 8.37911 5.72986 8.79999 5.31" stroke="var(--mw-icon-glyph-content-light-blue, #278CDD)" stroke-linecap="round" stroke-linejoin="round"/>
<path d="M15.2 5.31C15.6209 5.72986 15.9548 6.22863 16.1827 6.77773C16.4105 7.32684 16.5278 7.9155 16.5278 8.51C16.5278 9.1045 16.4105 9.69315 16.1827 10.2423C15.9548 10.7914 15.6209 11.2901 15.2 11.71" stroke="var(--mw-icon-glyph-content-light-blue, #278CDD)" stroke-linecap="round" stroke-linejoin="round"/>
<path d="M6.80001 13.71C5.42238 12.3301 4.64862 10.4599 4.64862 8.51C4.64862 6.56011 5.42238 4.68991 6.80001 3.31" stroke="var(--mw-icon-glyph-content-light-blue, #278CDD)" stroke-linecap="round" stroke-linejoin="round"/>
<path d="M17.2 3.31C18.5776 4.68991 19.3514 6.56011 19.3514 8.51C19.3514 10.4599 18.5776 12.3301 17.2 13.71" stroke="var(--mw-icon-glyph-content-light-blue, #278CDD)" stroke-linecap="round" stroke-linejoin="round"/>
<path d="M4.80003 15.71C2.89235 13.7994 1.82086 11.2099 1.82086 8.51C1.82086 5.8101 2.89235 3.22055 4.80003 1.31" stroke="var(--mw-icon-glyph-content-light-blue, #278CDD)" stroke-linecap="round" stroke-linejoin="round"/>
<path d="M19.2 1.31C21.1077 3.22055 22.1792 5.8101 22.1792 8.51C22.1792 11.2099 21.1077 13.7994 19.2 15.71" stroke="var(--mw-icon-glyph-content-light-blue, #278CDD)" stroke-linecap="round" stroke-linejoin="round"/>
<path d="M9.84003 16.76H14.07" stroke="var(--mw-icon-object-primary, #616160)" stroke-linecap="round" stroke-linejoin="round"/>
<path d="M7.47998 21.78H16.61" stroke="var(--mw-icon-object-primary, #616160)" stroke-linecap="round" stroke-linejoin="round"/>
</svg>
