<svg width="24" height="24" viewBox="0 0 24 24" fill="none" xmlns="http://www.w3.org/2000/svg">
<path d="M0.5 18.5V4.5C0.5 2.29086 2.29086 0.5 4.5 0.5H18.5C20.7091 0.5 22.5 2.29086 22.5 4.5V18.5C22.5 20.7091 20.7091 22.5 18.5 22.5H4.5C2.29086 22.5 0.5 20.7091 0.5 18.5Z" fill="#00A3A3"/>
<path d="M16.5 5L16.5 15" stroke="var(--mw-icon-background-default-white, #FFFFFF)" stroke-miterlimit="10"/>
<circle cx="1.5" cy="1.5" r="2" transform="matrix(-1 0 0 1 18 5)" fill="var(--mw-icon-background-default-white, #FFFFFF)" stroke="white"/>
<path d="M9.5 10.5C9.5 10.5 11.5 9.2544 11.5 6.5C11.5 3.7456 9.5 2.5 9.5 2.5" stroke="white" stroke-linecap="round"/>
<path d="M4.5 8.5C4.5 8.5 5.5 7.63975 5.5 6.5C5.5 5.36025 4.5 4.5 4.5 4.5" stroke="white" stroke-linecap="round"/>
<path d="M7 9.5C7 9.5 8.5 8.5 8.5 6.5C8.5 4.5 7 3.5 7 3.5" stroke="white" stroke-linecap="round"/>
<path d="M1 12H22V20C22 21.1046 21.1046 22 20 22H3C1.89543 22 1 21.1046 1 20V12Z" fill="#013A3E"/>
<path d="M22.5 18.5L21.5 16.5L20.5 19.5L19.5 16.5L18.5 19.5L17.5 16.5L16.5 19.5L15.5 16.5L14.5 18.5L13.5 13.5L12.5 15.5L11.5 13.5L10.5 15.5L9.67367 13.5L8.5 18.5L7.5 16.5L6.5 19.5L5.5 16.5L4.5 19.5L3.5 16.5L2.5 19.5L1.5 16.5L0.5 18.5" stroke="#FFFF11" stroke-linecap="round" stroke-linejoin="round"/>
<path d="M0.5 18.5V4.5C0.5 2.29086 2.29086 0.5 4.5 0.5H18.5C20.7091 0.5 22.5 2.29086 22.5 4.5V18.5C22.5 20.7091 20.7091 22.5 18.5 22.5H4.5C2.29086 22.5 0.5 20.7091 0.5 18.5Z" stroke="#02555C" stroke-linecap="round"/>
</svg>
