<svg width="24" height="24" viewBox="0 0 24 24" fill="none" xmlns="http://www.w3.org/2000/svg">
<path d="M16.65 11.92C17.6305 11.7055 18.4971 11.1362 19.0834 10.3216C19.6697 9.50695 19.9343 8.50441 19.8264 7.50655C19.7185 6.50869 19.2457 5.58589 18.4988 4.91542C17.752 4.24494 16.7837 3.87408 15.78 3.87408C14.7763 3.87408 13.8081 4.24494 13.0612 4.91542C12.3143 5.58589 11.8415 6.50869 11.7336 7.50655C11.6257 8.50441 11.8903 9.50695 12.4766 10.3216C13.0629 11.1362 13.9295 11.7055 14.91 11.92C13.182 12.1343 11.5917 12.9718 10.4373 14.2753C9.28288 15.5788 8.64382 17.2588 8.64001 19V24H22.93V19C22.9259 17.2573 22.2854 15.5761 21.129 14.2723C19.9726 12.9686 18.3798 12.1321 16.65 11.92Z" fill="var(--mw-icon-object-primary, #616160)"/>
<path d="M1.72998 11.79C1.64434 11.7919 1.55925 11.7759 1.48008 11.7432C1.40091 11.7105 1.32937 11.6618 1.26998 11.6C1.20829 11.5403 1.15923 11.4689 1.12572 11.3898C1.09222 11.3108 1.07495 11.2259 1.07495 11.14C1.07495 11.0542 1.09222 10.9692 1.12572 10.8902C1.15923 10.8112 1.20829 10.7397 1.26998 10.68C1.98997 9.95182 2.39378 8.96907 2.39378 7.94503C2.39378 6.92098 1.98997 5.93823 1.26998 5.21003C1.14798 5.08803 1.07944 4.92256 1.07944 4.75003C1.07944 4.57749 1.14798 4.41203 1.26998 4.29003C1.39198 4.16803 1.55745 4.09949 1.72998 4.09949C1.90251 4.09949 2.06798 4.16803 2.18998 4.29003C3.15909 5.25953 3.7035 6.57422 3.7035 7.94503C3.7035 9.31583 3.15909 10.6305 2.18998 11.6C2.13023 11.6613 2.05862 11.7097 1.97954 11.7424C1.90045 11.775 1.81554 11.7913 1.72998 11.79Z" fill="var(--mw-icon-glyph-content-light-blue, #278CDD)"/>
<path d="M3.73003 13.79C3.60051 13.7922 3.47329 13.7556 3.36471 13.685C3.25613 13.6143 3.17113 13.5128 3.12062 13.3936C3.07011 13.2743 3.0564 13.1426 3.08124 13.0155C3.10608 12.8883 3.16834 12.7715 3.26003 12.68C4.50713 11.441 5.21198 9.75797 5.22003 8.00002C5.21817 7.11671 5.04036 6.24261 4.69697 5.42878C4.35358 4.61494 3.85149 3.87767 3.22003 3.26002C3.15962 3.19895 3.11183 3.12659 3.07939 3.04706C3.04695 2.96752 3.03049 2.88238 3.03095 2.79648C3.03142 2.71059 3.0488 2.62563 3.0821 2.54645C3.1154 2.46727 3.16396 2.39543 3.22503 2.33502C3.28609 2.27461 3.35846 2.22682 3.43799 2.19438C3.51752 2.16194 3.60267 2.14548 3.68856 2.14594C3.77446 2.14641 3.85942 2.16379 3.9386 2.19709C4.01778 2.23039 4.08962 2.27895 4.15003 2.34002C5.64919 3.84016 6.49132 5.8742 6.49132 7.99502C6.49132 10.1158 5.64919 12.1499 4.15003 13.65C4.03072 13.7444 3.8821 13.7939 3.73003 13.79Z" fill="var(--mw-icon-glyph-content-light-blue, #278CDD)"/>
<path d="M5.72002 15.79C5.63463 15.7901 5.55005 15.7734 5.47112 15.7408C5.39219 15.7082 5.32046 15.6603 5.26002 15.6C5.13965 15.4751 5.07239 15.3084 5.07239 15.135C5.07239 14.9615 5.13965 14.7949 5.26002 14.67C7.0413 12.8852 8.04172 10.4666 8.04172 7.94499C8.04172 5.42339 7.0413 3.00479 5.26002 1.21999C5.13965 1.09512 5.07239 0.928436 5.07239 0.754992C5.07239 0.581548 5.13965 0.414862 5.26002 0.289992C5.38489 0.169617 5.55158 0.102356 5.72502 0.102356C5.89847 0.102356 6.06515 0.169617 6.19002 0.289992C8.21678 2.32206 9.35496 5.07496 9.35496 7.94499C9.35496 10.815 8.21678 13.5679 6.19002 15.6C6.12807 15.6611 6.05465 15.7093 5.97399 15.7419C5.89333 15.7745 5.80702 15.7909 5.72002 15.79Z" fill="var(--mw-icon-glyph-content-light-blue, #278CDD)"/>
</svg>
