<svg width="24" height="24" viewBox="0 0 24 24" fill="none" xmlns="http://www.w3.org/2000/svg">
<path d="M7.5 2.5L7.5 21.5C7.5 22.0523 7.94772 22.5 8.5 22.5L22.5 22.5C23.0523 22.5 23.5 22.0523 23.5 21.5L23.5 6.41421C23.5 6.149 23.3946 5.89464 23.2071 5.70711L19.2929 1.79289C19.1054 1.60536 18.851 1.5 18.5858 1.5L8.5 1.5C7.94771 1.5 7.5 1.94772 7.5 2.5Z" fill="#2659C1" stroke="#2659C1"/>
<path d="M13.2305 15.3193L14.8232 7.54688H15.8076L15.7666 9.49512L14.0439 17.5H13.0117L13.2305 15.3193ZM12.2188 7.54688L13.4834 15.2646L13.5381 17.5H12.4512L10.5713 7.54688H12.2188ZM17.5371 15.2373L18.7881 7.54688H20.4287L18.5557 17.5H17.4688L17.5371 15.2373ZM16.2041 7.54688L17.7832 15.3398L17.9883 17.5H16.9561L15.2744 9.48828L15.2334 7.54688H16.2041Z" fill="var(--mw-icon-background-default-white, #FFFFFF)"/>
</svg>
