<svg width="24" height="24" viewBox="0 0 24 24" fill="none" xmlns="http://www.w3.org/2000/svg">
<path d="M14.5 0.5H2.5C1.39543 0.5 0.5 1.39543 0.5 2.5V14.5C0.5 15.6046 1.39543 16.5 2.5 16.5H14.5C15.6046 16.5 16.5 15.6046 16.5 14.5V2.5C16.5 1.39543 15.6046 0.5 14.5 0.5Z" fill="var(--mw-icon-background-default-white, #FFFFFF)" stroke="var(--mw-icon-border-default-gray, #616161)" stroke-linecap="round"/>
<path d="M17 13H21.5C21.7761 13 22 13.2239 22 13.5V18.5C22 18.7761 21.7761 19 21.5 19H19V16L12.5 20.5L19 24V21H22C23.1046 21 24 20.1046 24 19V13C24 11.8954 23.1046 11 22 11H17V13Z" fill="var(--mw-icon-object-primary, #616160)"/>
<path d="M2 4.61389C2 3.8497 2.27946 3.22445 2.83839 2.73814C3.39732 2.24605 4.1305 2 5.03794 2C5.95852 2 6.69499 2.24605 7.24734 2.73814C7.80627 3.22445 8.08574 3.86417 8.08574 4.65731V5.28257C8.08574 6.04097 7.80627 6.66333 7.24734 7.14963C6.69499 7.63594 5.9651 7.87909 5.05766 7.87909C4.16995 7.87909 3.43677 7.64173 2.85812 7.167C2.28604 6.68648 2 6.04097 2 5.23046V4.61389ZM3.67678 5.28257C3.67678 5.68203 3.80172 6.00623 4.05159 6.25518C4.30804 6.49833 4.6434 6.61991 5.05766 6.61991C5.46535 6.61991 5.79413 6.49833 6.04401 6.25518C6.29388 6.00623 6.41882 5.67045 6.41882 5.24783V4.61389C6.41882 4.21443 6.29059 3.89022 6.03414 3.64128C5.78427 3.39234 5.4522 3.26787 5.03794 3.26787C4.62367 3.26787 4.2916 3.39523 4.04173 3.64997C3.79843 3.89891 3.67678 4.2289 3.67678 4.63995V5.28257ZM8.9044 11.7261C8.9044 10.9503 9.19044 10.3222 9.76252 9.84168C10.3346 9.36117 11.0645 9.12091 11.9522 9.12091C12.8465 9.12091 13.5764 9.36117 14.1419 9.84168C14.714 10.3222 15 10.9706 15 11.7869V12.4035C15 13.1561 14.7238 13.7784 14.1715 14.2705C13.6257 14.7568 12.8925 15 11.9719 15C11.0513 15 10.3083 14.7597 9.74279 14.2792C9.18386 13.7929 8.9044 13.1532 8.9044 12.3601V11.7261ZM10.5812 12.4035C10.5812 12.7971 10.7094 13.1214 10.9659 13.3761C11.2289 13.625 11.5642 13.7495 11.9719 13.7495C12.3928 13.7495 12.7215 13.6308 12.9583 13.3935C13.2016 13.1503 13.3232 12.8116 13.3232 12.3774V11.7261C13.3232 11.3209 13.195 10.9967 12.9385 10.7535C12.6821 10.5104 12.3533 10.3888 11.9522 10.3888C11.5445 10.3888 11.2124 10.5104 10.956 10.7535C10.7061 10.9967 10.5812 11.3324 10.5812 11.7609V12.4035ZM5.55083 13.8798L4.31791 13.2545L11.3308 3.37208L12.5637 3.99733L5.55083 13.8798Z" fill="var(--mw-icon-glyph-content-green, #008014)"/>
</svg>
