<svg width="24" height="24" viewBox="0 0 24 24" fill="none" xmlns="http://www.w3.org/2000/svg">
<path d="M5.34296 8.33185C4.84481 8.83 4.70806 11.6822 6.20422 13.1783C7.21488 14.189 8.50383 14.7346 9.78259 14.8047C10.9121 14.8667 12.1137 15.1026 12.9411 15.93L15.5984 18.5873C16.1487 19.1376 17.0408 19.1376 17.591 18.5873L18.5873 17.591C19.1376 17.0408 19.1376 16.1487 18.5873 15.5984L15.93 12.9411C15.1026 12.1137 14.8667 10.9121 14.8047 9.7826C14.7346 8.50383 14.189 7.21488 13.1783 6.20422C11.6821 4.70806 8.83 4.84481 8.33185 5.34296L11.7215 8.73261L11.2987 11.2987L8.73261 11.7215L5.34296 8.33185Z" fill="var(--mw-icon-object-primary, #616160)"/>
</svg>
