<svg width="24" height="24" viewBox="0 0 24 24" fill="none" xmlns="http://www.w3.org/2000/svg">
<rect x="0.5" y="0.5" width="22" height="22" rx="2" fill="var(--mw-icon-background-light-yellow, #FFF5BC)" stroke="var(--mw-icon-border-default-blue, #1656A7)"/>
<path d="M18.5 15V8L11.5 11.5V18.5L18.5 15Z" fill="var(--mw-icon-background-medium-blue, #83CAFF)"/>
<path d="M4.5 15V8L11.5 11.5V18.5L4.5 15Z" fill="var(--mw-icon-background-default-selection, #B4DEFF)"/>
<path d="M4.5 8L11.5 4.5L18.5 8L11.5 11.5L4.5 8Z" fill="var(--mw-icon-background-lightest-blue, #E2F0FF)"/>
<path d="M18.5 8V15L11.5 18.5M18.5 8L11.5 11.5M18.5 8L11.5 4.5L4.5 8M11.5 11.5V18.5M11.5 11.5L4.5 8M11.5 18.5L4.5 15V8" stroke="var(--mw-icon-glyph-content-blue, #1656A8)" stroke-linecap="round" stroke-linejoin="round"/>
</svg>
