<svg width="24" height="24" viewBox="0 0 24 24" fill="none" xmlns="http://www.w3.org/2000/svg">
<rect x="0.5" y="0.5" width="22" height="22" rx="2" fill="var(--mw-icon-background-light-yellow, #FFF5BC)" stroke="var(--mw-icon-border-default-blue, #1656A7)"/>
<path d="M8.6229 18C7.00673 17.5527 6.19865 16.5231 6.19865 14.9111V13.5892C6.19865 12.6547 5.7991 12.1875 5 12.1875V10.8125C5.78114 10.8125 6.1807 10.3718 6.19865 9.49055V8.08227C6.19865 7.26299 6.40067 6.60092 6.80471 6.09607C7.20875 5.59121 7.81482 5.22586 8.6229 5L9 6.06949C8.65881 6.19349 8.40067 6.41049 8.22559 6.72049C8.05051 7.02606 7.95847 7.4512 7.9495 7.99591V9.3909C7.9495 10.3918 7.5477 11.0937 6.74411 11.4967C7.5477 11.9041 7.9495 12.6105 7.9495 13.6157V15.024C7.97194 16.0603 8.32211 16.6936 9 16.9239L8.6229 18Z" fill="var(--mw-icon-glyph-content-blue, #1656A8)"/>
<path d="M14.3771 5C15.9933 5.44728 16.8013 6.47692 16.8013 8.08891V9.41083C16.8013 10.3453 17.2009 10.8125 18 10.8125V12.1875C17.2189 12.1875 16.8193 12.6282 16.8013 13.5095V14.9177C16.8013 15.737 16.5993 16.3991 16.1953 16.9039C15.7912 17.4088 15.1852 17.7741 14.3771 18L14 16.9305C14.3412 16.8065 14.5993 16.5895 14.7744 16.2795C14.9495 15.9739 15.0415 15.5488 15.0505 15.0041V13.6091C15.0505 12.6082 15.4523 11.9063 16.2559 11.5033C15.4523 11.0959 15.0505 10.3895 15.0505 9.38426V7.97598C15.0281 6.9397 14.6779 6.30642 14 6.07614L14.3771 5Z" fill="var(--mw-icon-glyph-content-blue, #1656A8)"/>
</svg>
