<svg width="24" height="24" viewBox="0 0 24 24" fill="none" xmlns="http://www.w3.org/2000/svg">
<rect x="0.5" y="0.5" width="22" height="22" rx="2" fill="var(--mw-icon-background-light-yellow, #FFF5BC)" stroke="var(--mw-icon-border-default-blue, #1656A7)"/>
<path d="M7.63792 15.2031C8.02989 15.2031 8.34836 15.09 8.59334 14.8638C8.83831 14.6375 8.9657 14.3368 8.9755 13.9614H10.9672C10.9623 14.527 10.8153 15.0463 10.5262 15.5193C10.2371 15.9871 9.84027 16.3522 9.33562 16.6144C8.83586 16.8715 8.28221 17 7.67467 17C6.53797 17 5.64135 16.6221 4.98481 15.8663C4.32827 15.1054 4 14.0566 4 12.7198V12.5733C4 11.2879 4.32582 10.2622 4.97746 9.49614C5.6291 8.73008 6.52327 8.34704 7.65997 8.34704C8.65458 8.34704 9.45076 8.64524 10.0485 9.24165C10.6512 9.8329 10.9574 10.6221 10.9672 11.6093H8.9755C8.9657 11.1774 8.83831 10.8278 8.59334 10.5604C8.34836 10.2879 8.02499 10.1517 7.62322 10.1517C7.12837 10.1517 6.75355 10.3419 6.49878 10.7224C6.2489 11.0977 6.12396 11.7095 6.12396 12.5578V12.7892C6.12396 13.6478 6.2489 14.2648 6.49878 14.6401C6.74865 15.0154 7.12837 15.2031 7.63792 15.2031Z" fill="var(--mw-icon-glyph-content-blue, #1656A8)"/>
<path d="M14.2523 9.41131C14.8158 8.7018 15.5238 8.34704 16.3763 8.34704C18.1009 8.34704 18.9755 9.39846 19 11.5013V16.8458H16.876V11.563C16.876 11.0848 16.7781 10.7326 16.5821 10.5064C16.3861 10.2751 16.0603 10.1594 15.6046 10.1594C14.9824 10.1594 14.5316 10.4113 14.2523 10.9152V16.8458H12.1284V5H14.2523V9.41131Z" fill="var(--mw-icon-glyph-content-blue, #1656A8)"/>
</svg>
