<svg width="24" height="24" viewBox="0 0 24 24" fill="none" xmlns="http://www.w3.org/2000/svg">
<rect x="0.5" y="0.5" width="22" height="22" rx="2" fill="var(--mw-icon-background-light-yellow, #FFF5BC)" stroke="var(--mw-icon-border-default-blue, #1656A7)"/>
<path fill-rule="evenodd" clip-rule="evenodd" d="M18 20H11.8698V19.163L12.1251 19.1446C12.5153 19.1164 12.7956 19.081 13.0021 19.0254C13.2036 18.9711 13.3128 18.9032 13.3831 18.8226C13.4562 18.7386 13.5131 18.6111 13.5483 18.3913C13.5838 18.1704 13.5936 17.8829 13.5936 17.4976V11.5806C13.5936 11.3022 13.5796 11.1178 13.5363 10.9854C13.4987 10.8701 13.4409 10.7998 13.3324 10.743C13.2069 10.6773 13.0017 10.6241 12.6548 10.5908C12.3122 10.5579 11.8601 10.5465 11.2592 10.5465H9.40638V17.7016C9.40638 18.3264 9.48878 18.6335 9.66317 18.8109C9.83668 18.9874 10.1648 19.0992 10.8725 19.1444L11.1302 19.1609V20H5V19.1525L5.26713 19.144C5.97928 19.1212 6.29423 19.0217 6.4621 18.8415C6.54693 18.7505 6.61448 18.6175 6.65945 18.4076C6.70478 18.1961 6.72379 17.9228 6.72379 17.5656V10.5465H5.02535V9.2822H6.781C6.9064 8.33476 7.01885 7.59461 7.25943 6.96294C7.52489 6.26597 7.94235 5.70812 8.67132 5.12733L8.67484 5.12452C9.65079 4.37295 11.0126 4 12.5774 4C13.6 4 14.4428 4.14373 15.0406 4.43446C15.6504 4.73103 16.0227 5.19361 16.0227 5.79965C16.0227 6.12176 15.9547 6.42574 15.7521 6.65122C15.5413 6.88588 15.2295 6.9872 14.8589 6.9872C14.4964 6.9872 14.2051 6.82306 13.9648 6.62502C13.7722 6.46631 13.5873 6.26374 13.4114 6.07103C13.3726 6.02855 13.3343 5.98655 13.2964 5.94561C12.8534 5.46673 12.4271 5.08289 11.7915 5.08289C11.153 5.08289 10.5147 5.32908 10.0867 5.73194L10.0817 5.73664C9.42237 6.32632 9.40638 7.03726 9.40638 8.5201V9.2822H13.0337C14.1021 9.2822 14.7951 9.19399 15.8809 9.03591L15.9979 9.01888L16.3323 9.25814L16.3267 9.39172C16.2762 10.5882 16.2762 11.1288 16.2762 11.6249V17.4976C16.2762 18.2162 16.3874 18.5757 16.5827 18.7791C16.7754 18.9799 17.1077 19.0887 17.7493 19.1449L18 19.1669V20Z" fill="var(--mw-icon-glyph-content-blue, #1656A8)"/>
</svg>
