<svg width="24" height="24" viewBox="0 0 24 24" fill="none" xmlns="http://www.w3.org/2000/svg">
<rect x="0.5" y="0.5" width="22" height="22" rx="2" fill="var(--mw-icon-background-light-yellow, #FFF5BC)" stroke="var(--mw-icon-border-default-blue, #1656A7)"/>
<path d="M21.4449 1.33498L10.7988 5.0038C10.2854 5.19751 9.85008 5.55472 9.55984 6.02035L1 20.1733V20.5C1 20.8872 1.14669 21.2401 1.38752 21.5062L10.6452 12.062C11.1671 11.5401 11.9911 11.4754 12.5881 11.9095L22 18.7546V17.5181L13.1762 11.1008C12.1814 10.3773 10.8079 10.485 9.93805 11.3549L4.23176 17.0612L10.1538 8.63733C10.4347 8.23778 10.8925 8 11.3809 8H22V7H11.3809C10.776 7 10.1992 7.21886 9.7507 7.60457L10.4085 6.54933C10.5826 6.26995 10.8438 6.05563 11.1518 5.9394L21.9721 2.21057C21.9035 1.8594 21.7123 1.5521 21.4449 1.33498Z" fill="var(--mw-icon-glyph-content-blue, #1656A8)"/>
</svg>
