<svg width="24" height="24" viewBox="0 0 24 24" fill="none" xmlns="http://www.w3.org/2000/svg">
<path d="M22.5 21.5C22.5 22.0523 22.0523 22.5 21.5 22.5H7.5C6.94772 22.5 6.5 22.0523 6.5 21.5V7.5C6.5 6.94771 6.94772 6.5 7.5 6.5H21.5C22.0523 6.5 22.5 6.94771 22.5 7.5V21.5Z" fill="var(--mw-icon-background-light-yellow, #FFF5BC)" stroke="var(--mw-icon-borderColor-light-blue, #268CDD)"/>
<path d="M18.5 21.5V7.5M21.5 18.5H7.5M14.5 21.5V7.5M10.5 21.5V7.5M21.5 14.5H7.5M21.5 10.5H7.5" stroke="var(--mw-icon-background-medium-blue, #83CAFF)" stroke-linecap="square"/>
<path d="M19.5 18.5C19.5 19.0523 19.0523 19.5 18.5 19.5H4.5C3.94771 19.5 3.5 19.0523 3.5 18.5V4.5C3.5 3.94771 3.94771 3.5 4.5 3.5H18.5C19.0523 3.5 19.5 3.94771 19.5 4.5V18.5Z" fill="var(--mw-icon-background-light-yellow, #FFF5BC)" stroke="var(--mw-icon-borderColor-light-blue, #268CDD)"/>
<path d="M15.5 18.5V4.5M18.5 15.5H4.5M11.5 18.5V4.5M7.5 18.5V4.5M18.5 11.5H4.5M18.5 7.5H4.5" stroke="var(--mw-icon-background-medium-blue, #83CAFF)" stroke-linecap="square"/>
<path d="M16.5 15.5C16.5 16.0523 16.0523 16.5 15.5 16.5H1.5C0.947714 16.5 0.499999 16.0523 0.499999 15.5V1.5C0.499999 0.947714 0.947714 0.499999 1.5 0.499999H15.5C16.0523 0.499999 16.5 0.947714 16.5 1.5V15.5Z" fill="var(--mw-icon-background-light-yellow, #FFF5BC)" stroke="var(--mw-icon-border-default-blue, #1656A7)"/>
<path d="M12.5 15.5V1.5M15.5 12.5H1.5M8.5 15.5V1.5M4.5 15.5V1.5M15.5 8.5H1.5M15.5 4.5H1.5" stroke="var(--mw-icon-glyph-content-light-blue, #278CDD)" stroke-linecap="square"/>
</svg>
