<svg width="24" height="24" viewBox="0 0 24 24" fill="none" xmlns="http://www.w3.org/2000/svg">
<path d="M0.5 1.5C0.5 0.947715 0.947715 0.5 1.5 0.5H15.5C16.0523 0.5 16.5 0.947715 16.5 1.5V12.5C16.5 13.0523 16.0523 13.5 15.5 13.5H1.5C0.947715 13.5 0.5 13.0523 0.5 12.5V1.5Z" fill="var(--mw-icon-background-light-yellow, #FFF5BC)" stroke="var(--mw-icon-border-default-blue, #1656A7)"/>
<path d="M3.5 11.5C3.5 10.9477 3.94772 10.5 4.5 10.5H18.5C19.0523 10.5 19.5 10.9477 19.5 11.5V22.5C19.5 23.0523 19.0523 23.5 18.5 23.5H4.5C3.94772 23.5 3.5 23.0523 3.5 22.5V11.5Z" fill="var(--mw-icon-background-light-yellow, #FFF5BC)" stroke="var(--mw-icon-border-default-blue, #1656A7)"/>
<path d="M7.5 6.5C7.5 5.94772 7.94772 5.5 8.5 5.5H22.5C23.0523 5.5 23.5 5.94772 23.5 6.5V17.5C23.5 18.0523 23.0523 18.5 22.5 18.5H8.5C7.94772 18.5 7.5 18.0523 7.5 17.5V6.5Z" fill="var(--mw-icon-background-light-yellow, #FFF5BC)" stroke="var(--mw-icon-border-default-blue, #1656A7)"/>
</svg>
