<svg width="24" height="24" viewBox="0 0 24 24" fill="none" xmlns="http://www.w3.org/2000/svg">
<g id="wsPlot">
<g id="Base + Badge template">
<g id="workspace">
<g id="Frame">
<rect id="box" x="2.5" y="3.5" width="18" height="18" rx="2" fill="var(--mw-icon-background-light-yellow, #FFF5BC)" stroke="var(--mw-icon-border-default-blue, #1656A7)"/>
</g>
<g id="tall">
<path d="M24 21C24 21.5523 23.5523 22 23 22C22.4477 22 22 21.5523 22 21C22 20.4477 22.4477 20 23 20C23.5523 20 24 20.4477 24 21Z" fill="var(--mw-icon-object-primary, #616160)"/>
<path d="M24 17C24 17.5523 23.5523 18 23 18C22.4477 18 22 17.5523 22 17C22 16.4477 22.4477 16 23 16C23.5523 16 24 16.4477 24 17Z" fill="var(--mw-icon-object-primary, #616160)"/>
<path d="M24 13C24 13.5523 23.5523 14 23 14C22.4477 14 22 13.5523 22 13C22 12.4477 22.4477 12 23 12C23.5523 12 24 12.4477 24 13Z" fill="var(--mw-icon-object-primary, #616160)"/>
</g>
</g>
<g id="Glyph">
<path id="blue" d="M2.50043 14.5622C2.50043 14.5622 15.4998 26.9388 20.4999 12.4995" stroke="#0072BD" stroke-linecap="round" stroke-linejoin="round"/>
<path id="orange" d="M2.65766 14.2064C2.39561 14.1193 2.11257 14.2611 2.02547 14.5231C1.93836 14.7852 2.08018 15.0682 2.34222 15.1553L2.65766 14.2064ZM19.9981 4.03143L20.0293 3.53241L19.0312 3.47003L19 3.96906L19.9981 4.03143ZM2.49994 14.6808C2.34222 15.1553 2.34249 15.1554 2.34283 15.1555C2.34302 15.1556 2.34342 15.1557 2.34381 15.1558C2.34458 15.1561 2.3456 15.1564 2.34685 15.1568C2.34937 15.1577 2.35285 15.1588 2.35729 15.1603C2.36616 15.1631 2.37885 15.1672 2.39522 15.1724C2.42798 15.1827 2.47551 15.1975 2.53687 15.2158C2.65957 15.2524 2.83769 15.3033 3.06362 15.3621C3.51525 15.4794 4.15924 15.6281 4.9345 15.7553C6.48073 16.0089 8.57023 16.1805 10.7047 15.8337C12.8427 15.4862 15.0496 14.614 16.786 12.7605C18.5244 10.9047 19.7427 8.11707 19.9981 4.03143L19 3.96906C18.7554 7.88287 17.5989 10.43 16.0562 12.0768C14.5115 13.7257 12.5312 14.5237 10.5443 14.8466C8.55404 15.17 6.58124 15.012 5.09637 14.7684C4.35609 14.647 3.74232 14.5052 3.31509 14.3942C3.10159 14.3387 2.93501 14.291 2.82286 14.2575C2.76679 14.2408 2.72436 14.2276 2.69651 14.2188C2.68258 14.2144 2.6723 14.2111 2.66579 14.209C2.66253 14.208 2.66021 14.2072 2.65885 14.2068C2.65817 14.2065 2.65773 14.2064 2.65753 14.2063C2.65743 14.2063 2.65746 14.2063 2.65741 14.2063C2.65751 14.2063 2.65766 14.2064 2.49994 14.6808Z" fill="#D95319"/>
<rect id="border" x="2.5" y="3.50024" width="18" height="18" rx="2" stroke="var(--mw-icon-border-default-blue, #1656A7)"/>
</g>
<g id="history">
<g id="Frame_2">
<circle id="box_2" cx="6.5" cy="6.5" r="6" fill="var(--mw-icon-background-default-white, #FFFFFF)" stroke="var(--mw-icon-border-default-gray, #616161)"/>
<path id="hands" d="M6.5 2.2998V6.4998H10.7" stroke="var(--mw-icon-glyph-content-gray, #616162)" stroke-linecap="round" stroke-linejoin="round"/>
</g>
</g>
</g>
</g>
</svg>
