<svg width="24" height="24" viewBox="0 0 24 24" fill="none" xmlns="http://www.w3.org/2000/svg">
<path d="M4.5 4.5H22.5V20.5C22.5 21.6046 21.6046 22.5 20.5 22.5H4.5V4.5Z" fill="var(--mw-icon-background-light-yellow, #FFF5BC)" stroke="var(--mw-icon-border-default-blue, #1656A7)"/>
<path d="M0.500001 2.5C0.500001 1.39543 1.39543 0.5 2.5 0.5H20.8333C21.7538 0.5 22.5 1.24619 22.5 2.16667V4.5H0.500001V2.5Z" fill="var(--mw-icon-background-default-selection, #B4DEFF)"/>
<path d="M2.5 22.5C1.39543 22.5 0.5 21.6046 0.5 20.5L0.500001 2.5C0.500001 1.39543 1.39543 0.5 2.5 0.5L4.5 0.5V22.5H2.5Z" fill="var(--mw-icon-background-default-selection, #B4DEFF)"/>
<path d="M0.500001 2.5C0.500001 1.39543 1.39543 0.5 2.5 0.5M0.500001 2.5V4.5H22.5V2.16667C22.5 1.24619 21.7538 0.5 20.8333 0.5H2.5M0.500001 2.5L0.5 20.5C0.5 21.6046 1.39543 22.5 2.5 22.5H4.5V0.5L2.5 0.5" stroke="var(--mw-icon-border-default-blue, #1656A7)"/>
<path d="M10.5001 1.5V21.5M16.4996 1.5V21.5M21.4999 10.5H1.49988M21.4999 16.5H1.49988" stroke="var(--mw-icon-border-default-blue, #1656A7)" stroke-linecap="square"/>
</svg>
