<svg width="24" height="24" viewBox="0 0 24 24" fill="none" xmlns="http://www.w3.org/2000/svg">
<rect x="5.5" y="3.5" width="18" height="18" rx="1" fill="var(--mw-icon-background-light-yellow, #FFF5BC)" stroke="var(--mw-icon-border-default-blue, #1656A7)"/>
<path d="M5.5 4.5C5.5 3.94772 5.94772 3.5 6.5 3.5H22.5C23.0523 3.5 23.5 3.94772 23.5 4.5V6.5H5.5V4.5Z" fill="var(--mw-icon-background-default-selection, #B4DEFF)"/>
<path d="M6.5 21.5C5.94772 21.5 5.5 21.0523 5.5 20.5L5.5 4.5C5.5 3.94772 5.94772 3.5 6.5 3.5L8.5 3.5L8.5 21.5H6.5Z" fill="var(--mw-icon-background-default-selection, #B4DEFF)"/>
<path d="M5.5 4.5C5.5 3.94772 5.94772 3.5 6.5 3.5M5.5 4.5V6.5H23.5V4.5C23.5 3.94772 23.0523 3.5 22.5 3.5H6.5M5.5 4.5L5.5 20.5C5.5 21.0523 5.94772 21.5 6.5 21.5H8.5L8.5 3.5L6.5 3.5" stroke="var(--mw-icon-border-default-blue, #1656A7)"/>
<path d="M13.5 4.5V20.5M18.5 4.5V20.5M22.5 11.5H6.5M22.5 16.5H6.5M17.5 6.5H6.5" stroke="var(--mw-icon-border-default-blue, #1656A7)" stroke-linecap="square"/>
<circle cx="6.5" cy="6.5" r="6" fill="var(--mw-icon-background-default-white, #FFFFFF)" stroke="var(--mw-icon-border-default-gray, #616161)"/>
<path d="M6.5 2.2998V6.4998H10.7" stroke="var(--mw-icon-glyph-content-gray, #616162)" stroke-linecap="round" stroke-linejoin="round"/>
</svg>
