<svg width="24" height="24" viewBox="0 0 24 24" fill="none" xmlns="http://www.w3.org/2000/svg">
<rect x="0.5" y="0.5" width="22" height="22" rx="2" fill="var(--mw-icon-background-light-yellow, #FFF5BC)" stroke="var(--mw-icon-border-default-blue, #1656A7)"/>
<circle cx="11.5" cy="11.5" r="8" fill="var(--mw-icon-background-default-white, #FFFFFF)" stroke="var(--mw-icon-glyph-content-blue, #1656A8)" stroke-linejoin="round"/>
<path d="M11.5 6C12.4045 6 13.295 6.22306 14.0927 6.64943C14.8904 7.0758 15.5706 7.69232 16.0731 8.44436C16.5756 9.19641 16.8849 10.0608 16.9735 10.9609C17.0622 11.861 16.9275 12.7691 16.5813 13.6048C16.2352 14.4404 15.6883 15.1778 14.9892 15.7516C14.29 16.3254 13.4601 16.7179 12.573 16.8943C11.6859 17.0708 10.769 17.0257 9.90344 16.7632C9.0379 16.5006 8.25048 16.0287 7.61091 15.3891L11.5 11.5L11.5 6Z" fill="var(--mw-icon-background-default-selection, #B4DEFF)"/>
<path d="M11.5 6V11.5L7.5 15.5" stroke="var(--mw-icon-glyph-content-blue, #1656A8)" stroke-linecap="round" stroke-linejoin="round"/>
</svg>
