<svg width="24" height="24" viewBox="0 0 24 24" fill="none" xmlns="http://www.w3.org/2000/svg">
<path d="M2.5 21.5V2.5C2.5 1.94772 2.94771 1.5 3.5 1.5H20.5C21.0523 1.5 21.5 1.94772 21.5 2.5V21.5C21.5 22.0523 21.0523 22.5 20.5 22.5H3.5C2.94772 22.5 2.5 22.0523 2.5 21.5Z" fill="var(--mw-icon-background-default-white, #FFFFFF)" stroke="var(--mw-icon-border-default-gray, #616161)"/>
<path d="M7.5 4V1C7.5 0.723858 7.72386 0.5 8 0.5H16C16.2761 0.5 16.5 0.723858 16.5 1V4C16.5 4.27614 16.2761 4.5 16 4.5H8C7.72386 4.5 7.5 4.27614 7.5 4Z" fill="var(--mw-icon-background-default-medium-gray, #D9D9D9)" stroke="var(--mw-icon-border-default-gray, #616161)"/>
<path d="M13.5 9.5V17.5C13.5 18.0523 13.9477 18.5 14.5 18.5H17.5C18.0523 18.5 18.5 18.0523 18.5 17.5V9.5" stroke="var(--mw-icon-glyph-content-gray, #616162)" stroke-linecap="round" stroke-linejoin="round"/>
<path d="M10.5 11.5L8 15M5.5 18.5L8 15M5.5 11.5L8 15M10.5 18.5L8 15" stroke="var(--mw-icon-glyph-content-gray, #616162)" stroke-linecap="round" stroke-linejoin="round"/>
</svg>
