<svg width="24" height="24" viewBox="0 0 24 24" fill="none" xmlns="http://www.w3.org/2000/svg">
<path d="M7.5 6C7.5 5.72386 7.72386 5.5 8 5.5H15.0858C15.351 5.5 15.6054 5.60536 15.7929 5.79289L17.2071 7.20711C17.3946 7.39464 17.649 7.5 17.9142 7.5H23C23.2761 7.5 23.5 7.72386 23.5 8V11.9026V17C23.5 17.2761 23.2761 17.5 23 17.5H8C7.72386 17.5 7.5 17.2761 7.5 17V6Z" fill="var(--mw-icon-background-light-yellow, #FFF5BC)" stroke="#674C06"/>
<path d="M21.5 16.5H19.5V20C19.5 20.2761 19.7239 20.5 20 20.5H21C21.2761 20.5 21.5 20.2761 21.5 20V16.5Z" fill="var(--mw-icon-background-default-medium-gray, #D9D9D9)" stroke="var(--mw-icon-glyph-content-dark-gray, #333333)" stroke-linejoin="round"/>
<rect x="20" y="19" width="1" height="1" fill="var(--mw-icon-background-default-dark-gray, #A6A6A6)"/>
<path d="M19 8.5C19 8.22386 19.2239 8 19.5 8H21V9H21.5C21.7761 9 22 9.22386 22 9.5C22 9.77614 21.7761 10 21.5 10H21V11H21.5C21.7761 11 22 11.2239 22 11.5C22 11.7761 21.7761 12 21.5 12H21V13H21.5C21.7761 13 22 13.2239 22 13.5C22 13.7761 21.7761 14 21.5 14H21V15H21.5C21.7761 15 22 15.2239 22 15.5C22 15.7761 21.7761 16 21.5 16H20V15H19.5C19.2239 15 19 14.7761 19 14.5C19 14.2239 19.2239 14 19.5 14H20V13H19.5C19.2239 13 19 12.7761 19 12.5C19 12.2239 19.2239 12 19.5 12H20V11H19.5C19.2239 11 19 10.7761 19 10.5C19 10.2239 19.2239 10 19.5 10H20V9H19.5C19.2239 9 19 8.77614 19 8.5Z" fill="var(--mw-icon-glyph-content-gray, #616162)"/>
</svg>
