<svg width="24" height="24" viewBox="0 0 24 24" fill="none" xmlns="http://www.w3.org/2000/svg">
<path d="M23.5 11.5C23.5 13.7091 21.7091 15.5 19.5 15.5C17.2909 15.5 15.5 13.7091 15.5 11.5C15.5 9.29086 17.2909 7.5 19.5 7.5C21.7091 7.5 23.5 9.29086 23.5 11.5Z" fill="var(--mw-icon-background-default-selection, #B4DEFF)" stroke="var(--mw-icon-border-default-blue, #1656A7)"/>
<path d="M8.5 1.5V3.5M8.5 3.5V5.5M8.5 3.5H6.5M8.5 3.5H10.5M6.5 19.5H10.5" stroke="var(--mw-icon-glyph-content-light-blue, #278CDD)" stroke-linecap="round"/>
<path d="M7.5 8.5L22.5 0.5M7.5 14.5L22.5 22.5" stroke="var(--mw-icon-glyph-disabled-gray, #888889)" stroke-linecap="round"/>
<path d="M0.5 17.5V5.5C0.5 4.94772 0.947715 4.5 1.5 4.5H3.5C4.05228 4.5 4.5 4.94772 4.5 5.5V17.5C4.5 18.0523 4.05228 18.5 3.5 18.5H1.5C0.947715 18.5 0.5 18.0523 0.5 17.5Z" fill="var(--mw-icon-background-default-medium-gray, #D9D9D9)" stroke="var(--mw-icon-border-disabled-gray, #888888)" stroke-linecap="round"/>
<path d="M4.5 14.5V8.5H7C7.27614 8.5 7.5 8.72386 7.5 9V14C7.5 14.2761 7.27614 14.5 7 14.5H4.5Z" fill="var(--mw-icon-glyph-disabled-gray, #888889)" stroke="var(--mw-icon-border-default-gray, #616161)" stroke-linecap="round"/>
</svg>
