<svg width="24" height="24" viewBox="0 0 24 24" fill="none" xmlns="http://www.w3.org/2000/svg">
<path d="M19.5 2.5H4.5C3.39543 2.5 2.5 3.39543 2.5 4.5V19.5C2.5 20.6046 3.39543 21.5 4.5 21.5H19.5C20.6046 21.5 21.5 20.6046 21.5 19.5V4.5C21.5 3.39543 20.6046 2.5 19.5 2.5Z" stroke="var(--mw-icon-glyph-content-mono, #616061)" stroke-linecap="round"/>
<path d="M14 4.5H12M11 4.5H9M8 4.5H6M5 4.5H3M5 12.5H3M8 12.5H6M11 12.5H9M14 12.5H12M13.5 6V8M13.5 9V11" stroke="var(--mw-icon-glyph-content-mono, #616061)"/>
<path d="M3 7.5H9.5L15.5 16.5H21" stroke="var(--mw-icon-glyph-content-mono, #616061)"/>
</svg>
