<svg width="24" height="24" viewBox="0 0 24 24" fill="none" xmlns="http://www.w3.org/2000/svg">
<path d="M15.7071 14.2929L15 13.5858L13.5858 15L14.2929 15.7071L15.7071 14.2929ZM20.2929 21.7071C20.6834 22.0976 21.3166 22.0976 21.7071 21.7071C22.0976 21.3166 22.0976 20.6834 21.7071 20.2929L20.2929 21.7071ZM14.2929 15.7071L20.2929 21.7071L21.7071 20.2929L15.7071 14.2929L14.2929 15.7071Z" fill="var(--mw-icon-object-primary, #616160)"/>
<path d="M14.4498 4.55025C17.1834 7.28392 17.1834 11.7161 14.4497 14.4497C11.716 17.1834 7.28385 17.1834 4.5502 14.4497C1.81656 11.7161 1.8166 7.28392 4.5503 4.55025C7.284 1.81658 11.7162 1.81658 14.4498 4.55025Z" stroke="var(--mw-icon-object-primary, #616160)"/>
<path d="M5.5 7.5V5.5H7.5M7.5 13.5H5.5L5.5 11.5M13.5 11.5V13.5H11.5M11.5 5.5L13.5 5.5V7.5" stroke="var(--mw-icon-object-primary, #616160)" stroke-linecap="square" stroke-linejoin="round"/>
</svg>
