<svg width="24" height="24" viewBox="0 0 24 24" fill="none" xmlns="http://www.w3.org/2000/svg">
<path d="M19.5 22.5L14 17L17 14L22.5 19.5C23.3284 20.3284 23.3284 21.6716 22.5 22.5C21.6716 23.3284 20.3284 23.3284 19.5 22.5Z" fill="var(--mw-icon-background-default-medium-gray, #D9D9D9)" stroke="var(--mw-icon-border-default-gray, #616161)"/>
<path d="M15.864 3.13604C19.3787 6.65076 19.3787 12.3492 15.8639 15.864C12.3491 19.3787 6.65066 19.3787 3.13598 15.864C-0.378707 12.3492 -0.378652 6.65076 3.1361 3.13604C6.65085 -0.37868 12.3493 -0.37868 15.864 3.13604Z" fill="var(--mw-icon-background-default-white, #FFFFFF)" stroke="var(--mw-icon-border-default-gray, #616161)"/>
<path d="M8 5.5H4.5V8M4.5 11L4.5 13.5H8M11 13.5H14.5V11M14.5 8V5.5L11 5.5" stroke="var(--mw-icon-glyph-content-gray, #616162)"/>
</svg>
