<svg width="24" height="24" viewBox="0 0 24 24" fill="none" xmlns="http://www.w3.org/2000/svg">
<path d="M19.5 2.5H4.5C3.39543 2.5 2.5 3.39543 2.5 4.5V19.5C2.5 20.6046 3.39543 21.5 4.5 21.5H19.5C20.6046 21.5 21.5 20.6046 21.5 19.5V4.5C21.5 3.39543 20.6046 2.5 19.5 2.5Z" stroke="var(--mw-icon-glyph-content-mono, #616061)" stroke-linecap="round"/>
<path d="M10 11.5H12M13 11.5H15M16 11.5H18M19 11.5H21M19 19.5H21M16 19.5H18M13 19.5H15M10 19.5H12M10.5 13V15M10.5 16V18" stroke="var(--mw-icon-glyph-content-mono, #616061)"/>
<path d="M3 7.5H9L15.5 16.5H21" stroke="var(--mw-icon-glyph-content-mono, #616061)"/>
</svg>
